<?xml version="1.0" encoding="UTF-8" standalone="no"?>
<!DOCTYPE svg PUBLIC "-//W3C//DTD SVG 1.1//EN"
 "http://www.w3.org/Graphics/SVG/1.1/DTD/svg11.dtd">
<!-- Generated by graphviz version 2.38.0 (20140413.2041)
 -->
<!-- Title: Control&#45;flow graph for function &#39;__ofl_unlock()&#39;. Pages: 1 -->
<svg width="362pt" height="231pt"
 viewBox="0.00 0.00 362.00 231.00" xmlns="http://www.w3.org/2000/svg" xmlns:xlink="http://www.w3.org/1999/xlink">
<g id="graph0" class="graph" transform="scale(1 1) rotate(0) translate(4 227)">
<title>Control&#45;flow graph for function &#39;__ofl_unlock()&#39;.</title>
<polygon fill="white" stroke="none" points="-4,4 -4,-227 358,-227 358,4 -4,4"/>
<text text-anchor="middle" x="177" y="-7.8" font-family="Times,serif" font-size="14.00">Control&#45;flow graph for function &#39;__ofl_unlock()&#39;.</text>
<!-- Node0x17cbb2e0 -->
<g id="node1" class="node"><title>Node0x17cbb2e0</title>
<polygon fill="none" stroke="black" points="147.5,-186.5 147.5,-222.5 206.5,-222.5 206.5,-186.5 147.5,-186.5"/>
<text text-anchor="start" x="155.5" y="-200.8" font-family="Times,serif" font-size="14.00">entry:</text>
</g>
<!-- Node0x17cbb7f0 -->
<g id="node2" class="node"><title>Node0x17cbb7f0</title>
<polygon fill="none" stroke="black" points="71,-96.5 71,-149.5 283,-149.5 283,-96.5 71,-96.5"/>
<text text-anchor="start" x="79" y="-134.3" font-family="Times,serif" font-size="14.00">result = __unlock(&amp;(g221))</text>
<text text-anchor="start" x="79" y="-119.3" font-family="Times,serif" font-size="14.00"> g1 = result</text>
<text text-anchor="start" x="79" y="-104.3" font-family="Times,serif" font-size="14.00"> return result</text>
</g>
<!-- Node0x17cbb2e0&#45;&gt;Node0x17cbb7f0 -->
<g id="edge1" class="edge"><title>Node0x17cbb2e0&#45;&gt;Node0x17cbb7f0</title>
<path fill="none" stroke="black" d="M177,-186.25C177,-178.486 177,-169.014 177,-159.825"/>
<polygon fill="black" stroke="black" points="180.5,-159.676 177,-149.676 173.5,-159.676 180.5,-159.676"/>
</g>
<!-- Node0x17cbb240 -->
<g id="node3" class="node"><title>Node0x17cbb240</title>
<polygon fill="none" stroke="black" points="150,-23.5 150,-59.5 204,-59.5 204,-23.5 150,-23.5"/>
<text text-anchor="start" x="158" y="-37.8" font-family="Times,serif" font-size="14.00">exit:</text>
</g>
<!-- Node0x17cbb7f0&#45;&gt;Node0x17cbb240 -->
<g id="edge2" class="edge"><title>Node0x17cbb7f0&#45;&gt;Node0x17cbb240</title>
<path fill="none" stroke="black" d="M177,-96.4081C177,-87.9823 177,-78.5803 177,-70.0174"/>
<polygon fill="black" stroke="black" points="180.5,-69.7564 177,-59.7564 173.5,-69.7565 180.5,-69.7564"/>
</g>
</g>
</svg>
