<?xml version="1.0" encoding="UTF-8" standalone="no"?>
<!DOCTYPE svg PUBLIC "-//W3C//DTD SVG 1.1//EN"
 "http://www.w3.org/Graphics/SVG/1.1/DTD/svg11.dtd">
<!-- Generated by graphviz version 2.38.0 (20140413.2041)
 -->
<!-- Title: Control&#45;flow graph for function &#39;blowfish_ctx_free(a1, a2, a3)&#39;. Pages: 1 -->
<svg width="469pt" height="353pt"
 viewBox="0.00 0.00 469.00 353.00" xmlns="http://www.w3.org/2000/svg" xmlns:xlink="http://www.w3.org/1999/xlink">
<g id="graph0" class="graph" transform="scale(1 1) rotate(0) translate(4 349)">
<title>Control&#45;flow graph for function &#39;blowfish_ctx_free(a1, a2, a3)&#39;.</title>
<polygon fill="white" stroke="none" points="-4,4 -4,-349 465,-349 465,4 -4,4"/>
<text text-anchor="middle" x="230.5" y="-7.8" font-family="Times,serif" font-size="14.00">Control&#45;flow graph for function &#39;blowfish_ctx_free(a1, a2, a3)&#39;.</text>
<!-- Node0x257ad500 -->
<g id="node1" class="node"><title>Node0x257ad500</title>
<polygon fill="none" stroke="black" points="201,-276.5 201,-344.5 260,-344.5 260,-276.5 201,-276.5"/>
<text text-anchor="start" x="209" y="-329.3" font-family="Times,serif" font-size="14.00">entry:</text>
<text text-anchor="start" x="209" y="-314.3" font-family="Times,serif" font-size="14.00"> a1</text>
<text text-anchor="start" x="209" y="-299.3" font-family="Times,serif" font-size="14.00"> a2</text>
<text text-anchor="start" x="209" y="-284.3" font-family="Times,serif" font-size="14.00"> a3</text>
</g>
<!-- Node0x20b9e4c0 -->
<g id="node2" class="node"><title>Node0x20b9e4c0</title>
<polygon fill="none" stroke="black" points="34,-96.5 34,-239.5 427,-239.5 427,-96.5 34,-96.5"/>
<text text-anchor="start" x="42" y="-224.3" font-family="Times,serif" font-size="14.00">0x806a7f0:</text>
<text text-anchor="start" x="42" y="-209.3" font-family="Times,serif" font-size="14.00"> v1</text>
<text text-anchor="start" x="42" y="-194.3" font-family="Times,serif" font-size="14.00"> v2 = IntToPtrCastExpr&lt;ptr&gt;(v1)</text>
<text text-anchor="start" x="42" y="-179.3" font-family="Times,serif" font-size="14.00"> result = g3</text>
<text text-anchor="start" x="42" y="-164.3" font-family="Times,serif" font-size="14.00"> mbedtls_blowfish_free(IntToPtrCastExpr&lt;ptr&gt;(a1))</text>
<text text-anchor="start" x="42" y="-149.3" font-family="Times,serif" font-size="14.00"> g3 = result</text>
<text text-anchor="start" x="42" y="-134.3" font-family="Times,serif" font-size="14.00"> g2 = PtrToIntCastExpr&lt;int32&gt;(v2)</text>
<text text-anchor="start" x="42" y="-119.3" font-family="Times,serif" font-size="14.00"> free(v2)</text>
<text text-anchor="start" x="42" y="-104.3" font-family="Times,serif" font-size="14.00"> return result</text>
</g>
<!-- Node0x257ad500&#45;&gt;Node0x20b9e4c0 -->
<g id="edge1" class="edge"><title>Node0x257ad500&#45;&gt;Node0x20b9e4c0</title>
<path fill="none" stroke="black" d="M230.5,-276.203C230.5,-268.099 230.5,-259.077 230.5,-249.804"/>
<polygon fill="black" stroke="black" points="234,-249.674 230.5,-239.674 227,-249.675 234,-249.674"/>
</g>
<!-- Node0x20b9e440 -->
<g id="node3" class="node"><title>Node0x20b9e440</title>
<polygon fill="none" stroke="black" points="203.5,-23.5 203.5,-59.5 257.5,-59.5 257.5,-23.5 203.5,-23.5"/>
<text text-anchor="start" x="211.5" y="-37.8" font-family="Times,serif" font-size="14.00">exit:</text>
</g>
<!-- Node0x20b9e4c0&#45;&gt;Node0x20b9e440 -->
<g id="edge2" class="edge"><title>Node0x20b9e4c0&#45;&gt;Node0x20b9e440</title>
<path fill="none" stroke="black" d="M230.5,-96.3834C230.5,-87.0259 230.5,-77.9253 230.5,-69.9482"/>
<polygon fill="black" stroke="black" points="234,-69.848 230.5,-59.848 227,-69.8481 234,-69.848"/>
</g>
</g>
</svg>
