<?xml version="1.0" encoding="UTF-8" standalone="no"?>
<!DOCTYPE svg PUBLIC "-//W3C//DTD SVG 1.1//EN"
 "http://www.w3.org/Graphics/SVG/1.1/DTD/svg11.dtd">
<!-- Generated by graphviz version 2.38.0 (20140413.2041)
 -->
<!-- Title: Control&#45;flow graph for function &#39;mbedtls_aes_init(*a1)&#39;. Pages: 1 -->
<svg width="420pt" height="263pt"
 viewBox="0.00 0.00 420.00 263.00" xmlns="http://www.w3.org/2000/svg" xmlns:xlink="http://www.w3.org/1999/xlink">
<g id="graph0" class="graph" transform="scale(1 1) rotate(0) translate(4 259)">
<title>Control&#45;flow graph for function &#39;mbedtls_aes_init(*a1)&#39;.</title>
<polygon fill="white" stroke="none" points="-4,4 -4,-259 416,-259 416,4 -4,4"/>
<text text-anchor="middle" x="206" y="-7.8" font-family="Times,serif" font-size="14.00">Control&#45;flow graph for function &#39;mbedtls_aes_init(*a1)&#39;.</text>
<!-- Node0x29176020 -->
<g id="node1" class="node"><title>Node0x29176020</title>
<polygon fill="none" stroke="black" points="176.5,-216.5 176.5,-254.5 235.5,-254.5 235.5,-216.5 176.5,-216.5"/>
<text text-anchor="start" x="184.5" y="-239.3" font-family="Times,serif" font-size="14.00">entry:</text>
<text text-anchor="start" x="184.5" y="-224.3" font-family="Times,serif" font-size="14.00"> a1</text>
</g>
<!-- Node0xf026660 -->
<g id="node2" class="node"><title>Node0xf026660</title>
<polygon fill="none" stroke="black" points="11.5,-96.5 11.5,-179.5 400.5,-179.5 400.5,-96.5 11.5,-96.5"/>
<text text-anchor="start" x="19.5" y="-164.3" font-family="Times,serif" font-size="14.00">0x804a3c0:</text>
<text text-anchor="start" x="19.5" y="-149.3" font-family="Times,serif" font-size="14.00"> g4 = PtrToIntCastExpr&lt;int32&gt;(memset(a1, 0, 70))</text>
<text text-anchor="start" x="19.5" y="-134.3" font-family="Times,serif" font-size="14.00"> v1</text>
<text text-anchor="start" x="19.5" y="-119.3" font-family="Times,serif" font-size="14.00"> g2 = v1</text>
<text text-anchor="start" x="19.5" y="-104.3" font-family="Times,serif" font-size="14.00"> return 0</text>
</g>
<!-- Node0x29176020&#45;&gt;Node0xf026660 -->
<g id="edge1" class="edge"><title>Node0x29176020&#45;&gt;Node0xf026660</title>
<path fill="none" stroke="black" d="M206,-216.087C206,-208.444 206,-199.165 206,-189.73"/>
<polygon fill="black" stroke="black" points="209.5,-189.501 206,-179.501 202.5,-189.501 209.5,-189.501"/>
</g>
<!-- Node0x10590af0 -->
<g id="node3" class="node"><title>Node0x10590af0</title>
<polygon fill="none" stroke="black" points="179,-23.5 179,-59.5 233,-59.5 233,-23.5 179,-23.5"/>
<text text-anchor="start" x="187" y="-37.8" font-family="Times,serif" font-size="14.00">exit:</text>
</g>
<!-- Node0xf026660&#45;&gt;Node0x10590af0 -->
<g id="edge2" class="edge"><title>Node0xf026660&#45;&gt;Node0x10590af0</title>
<path fill="none" stroke="black" d="M206,-96.3751C206,-87.4706 206,-78.246 206,-70"/>
<polygon fill="black" stroke="black" points="209.5,-69.8327 206,-59.8328 202.5,-69.8328 209.5,-69.8327"/>
</g>
</g>
</svg>
