<?xml version="1.0" encoding="UTF-8" standalone="no"?>
<!DOCTYPE svg PUBLIC "-//W3C//DTD SVG 1.1//EN"
 "http://www.w3.org/Graphics/SVG/1.1/DTD/svg11.dtd">
<!-- Generated by graphviz version 2.38.0 (20140413.2041)
 -->
<!-- Title: Control&#45;flow graph for function &#39;mbedtls_ecp_point_free(a1)&#39;. Pages: 1 -->
<svg width="517pt" height="625pt"
 viewBox="0.00 0.00 517.00 625.00" xmlns="http://www.w3.org/2000/svg" xmlns:xlink="http://www.w3.org/1999/xlink">
<g id="graph0" class="graph" transform="scale(1 1) rotate(0) translate(4 621)">
<title>Control&#45;flow graph for function &#39;mbedtls_ecp_point_free(a1)&#39;.</title>
<polygon fill="white" stroke="none" points="-4,4 -4,-621 513,-621 513,4 -4,4"/>
<text text-anchor="middle" x="254.5" y="-7.8" font-family="Times,serif" font-size="14.00">Control&#45;flow graph for function &#39;mbedtls_ecp_point_free(a1)&#39;.</text>
<!-- Node0x96aa3c0 -->
<g id="node1" class="node"><title>Node0x96aa3c0</title>
<polygon fill="none" stroke="black" points="368.5,-578.5 368.5,-616.5 427.5,-616.5 427.5,-578.5 368.5,-578.5"/>
<text text-anchor="start" x="376.5" y="-601.3" font-family="Times,serif" font-size="14.00">entry:</text>
<text text-anchor="start" x="376.5" y="-586.3" font-family="Times,serif" font-size="14.00"> a1</text>
</g>
<!-- Node0x96ab2d0 -->
<g id="node2" class="node"><title>Node0x96ab2d0</title>
<polygon fill="none" stroke="black" points="359.5,-487.5 359.5,-540.5 436.5,-540.5 436.5,-487.5 359.5,-487.5"/>
<text text-anchor="start" x="367.5" y="-525.3" font-family="Times,serif" font-size="14.00">v1 = g3</text>
<text text-anchor="start" x="367.5" y="-510.3" font-family="Times,serif" font-size="14.00"> g3 = a1</text>
<text text-anchor="start" x="367.5" y="-495.3" font-family="Times,serif" font-size="14.00"> result</text>
</g>
<!-- Node0x96aa3c0&#45;&gt;Node0x96ab2d0 -->
<g id="edge1" class="edge"><title>Node0x96aa3c0&#45;&gt;Node0x96ab2d0</title>
<path fill="none" stroke="black" d="M398,-578.413C398,-570.285 398,-560.394 398,-550.864"/>
<polygon fill="black" stroke="black" points="401.5,-550.766 398,-540.766 394.5,-550.766 401.5,-550.766"/>
</g>
<!-- Node0x96aafe0 -->
<g id="node3" class="node"><title>Node0x96aafe0</title>
<polygon fill="none" stroke="black" points="348.5,-413.5 348.5,-449.5 447.5,-449.5 447.5,-413.5 348.5,-413.5"/>
<text text-anchor="start" x="356.5" y="-427.8" font-family="Times,serif" font-size="14.00">if (a1 != 0):</text>
</g>
<!-- Node0x96ab2d0&#45;&gt;Node0x96aafe0 -->
<g id="edge2" class="edge"><title>Node0x96ab2d0&#45;&gt;Node0x96aafe0</title>
<path fill="none" stroke="black" d="M398,-487.086C398,-478.46 398,-468.822 398,-460.075"/>
<polygon fill="black" stroke="black" points="401.5,-459.973 398,-449.974 394.5,-459.974 401.5,-459.973"/>
</g>
<!-- Node0x96abbc0 -->
<g id="node4" class="node"><title>Node0x96abbc0</title>
<polygon fill="none" stroke="black" points="0,-188.5 0,-361.5 424,-361.5 424,-188.5 0,-188.5"/>
<text text-anchor="start" x="8" y="-346.3" font-family="Times,serif" font-size="14.00">0x805be4e:</text>
<text text-anchor="start" x="8" y="-331.3" font-family="Times,serif" font-size="14.00"> mbedtls_mpi_free(IntToPtrCastExpr&lt;ptr&gt;(a1))</text>
<text text-anchor="start" x="8" y="-316.3" font-family="Times,serif" font-size="14.00"> v2 = g3</text>
<text text-anchor="start" x="8" y="-301.3" font-family="Times,serif" font-size="14.00"> v3 = (v2 + 12)</text>
<text text-anchor="start" x="8" y="-286.3" font-family="Times,serif" font-size="14.00"> g1 = v3</text>
<text text-anchor="start" x="8" y="-271.3" font-family="Times,serif" font-size="14.00"> g3 = (v2 + 24)</text>
<text text-anchor="start" x="8" y="-256.3" font-family="Times,serif" font-size="14.00"> g1 = mbedtls_mpi_free(IntToPtrCastExpr&lt;ptr&gt;(v3))</text>
<text text-anchor="start" x="8" y="-241.3" font-family="Times,serif" font-size="14.00"> g3 = v1</text>
<text text-anchor="start" x="8" y="-226.3" font-family="Times,serif" font-size="14.00"> v4</text>
<text text-anchor="start" x="8" y="-211.3" font-family="Times,serif" font-size="14.00"> result = mbedtls_mpi_free(IntToPtrCastExpr&lt;ptr&gt;(v4))</text>
<text text-anchor="start" x="8" y="-196.3" font-family="Times,serif" font-size="14.00"> g1 = result</text>
</g>
<!-- Node0x96aafe0&#45;&gt;Node0x96abbc0 -->
<g id="edge3" class="edge"><title>Node0x96aafe0&#45;&gt;Node0x96abbc0</title>
<path fill="none" stroke="black" d="M377.384,-413.375C363.4,-401.76 343.703,-385.398 322.757,-367.999"/>
<polygon fill="black" stroke="black" points="324.92,-365.247 314.992,-361.549 320.448,-370.631 324.92,-365.247"/>
<text text-anchor="middle" x="381" y="-383.8" font-family="Times,serif" font-size="14.00">a1 != 0</text>
</g>
<!-- Node0x96abb10 -->
<g id="node5" class="node"><title>Node0x96abb10</title>
<polygon fill="none" stroke="black" points="335.5,-97.5 335.5,-150.5 448.5,-150.5 448.5,-97.5 335.5,-97.5"/>
<text text-anchor="start" x="343.5" y="-135.3" font-family="Times,serif" font-size="14.00">0x805be78:</text>
<text text-anchor="start" x="343.5" y="-120.3" font-family="Times,serif" font-size="14.00"> g3 = v1</text>
<text text-anchor="start" x="343.5" y="-105.3" font-family="Times,serif" font-size="14.00"> return result</text>
</g>
<!-- Node0x96aafe0&#45;&gt;Node0x96abb10 -->
<g id="edge4" class="edge"><title>Node0x96aafe0&#45;&gt;Node0x96abb10</title>
<path fill="none" stroke="black" d="M409.652,-413.375C417.988,-400.034 428.5,-380.697 433,-362 451.096,-286.814 455,-262.138 433,-188 430.021,-177.96 424.88,-168.024 419.227,-159.113"/>
<polygon fill="black" stroke="black" points="421.96,-156.907 413.463,-150.578 416.159,-160.824 421.96,-156.907"/>
<text text-anchor="middle" x="479" y="-271.3" font-family="Times,serif" font-size="14.00">a1 == 0</text>
</g>
<!-- Node0x96abbc0&#45;&gt;Node0x96abb10 -->
<g id="edge5" class="edge"><title>Node0x96abbc0&#45;&gt;Node0x96abb10</title>
<path fill="none" stroke="black" d="M315.403,-188.405C328.769,-177.341 341.732,-166.611 353.076,-157.22"/>
<polygon fill="black" stroke="black" points="355.561,-159.707 361.033,-150.634 351.098,-154.314 355.561,-159.707"/>
</g>
<!-- Node0x96ab250 -->
<g id="node6" class="node"><title>Node0x96ab250</title>
<polygon fill="none" stroke="black" points="365,-23.5 365,-59.5 419,-59.5 419,-23.5 365,-23.5"/>
<text text-anchor="start" x="373" y="-37.8" font-family="Times,serif" font-size="14.00">exit:</text>
</g>
<!-- Node0x96abb10&#45;&gt;Node0x96ab250 -->
<g id="edge6" class="edge"><title>Node0x96abb10&#45;&gt;Node0x96ab250</title>
<path fill="none" stroke="black" d="M392,-97.0862C392,-88.4596 392,-78.8224 392,-70.0748"/>
<polygon fill="black" stroke="black" points="395.5,-69.9735 392,-59.9735 388.5,-69.9735 395.5,-69.9735"/>
</g>
</g>
</svg>
