<?xml version="1.0" encoding="UTF-8" standalone="no"?>
<!DOCTYPE svg PUBLIC "-//W3C//DTD SVG 1.1//EN"
 "http://www.w3.org/Graphics/SVG/1.1/DTD/svg11.dtd">
<!-- Generated by graphviz version 2.38.0 (20140413.2041)
 -->
<!-- Title: Control&#45;flow graph for function &#39;mbedtls_cipher_free(*a1, a2)&#39;. Pages: 1 -->
<svg width="666pt" height="1084pt"
 viewBox="0.00 0.00 666.00 1084.00" xmlns="http://www.w3.org/2000/svg" xmlns:xlink="http://www.w3.org/1999/xlink">
<g id="graph0" class="graph" transform="scale(1 1) rotate(0) translate(4 1080)">
<title>Control&#45;flow graph for function &#39;mbedtls_cipher_free(*a1, a2)&#39;.</title>
<polygon fill="white" stroke="none" points="-4,4 -4,-1080 662,-1080 662,4 -4,4"/>
<text text-anchor="middle" x="329" y="-7.8" font-family="Times,serif" font-size="14.00">Control&#45;flow graph for function &#39;mbedtls_cipher_free(*a1, a2)&#39;.</text>
<!-- Node0xe028bc0 -->
<g id="node1" class="node"><title>Node0xe028bc0</title>
<polygon fill="none" stroke="black" points="119.5,-1022.5 119.5,-1075.5 178.5,-1075.5 178.5,-1022.5 119.5,-1022.5"/>
<text text-anchor="start" x="127.5" y="-1060.3" font-family="Times,serif" font-size="14.00">entry:</text>
<text text-anchor="start" x="127.5" y="-1045.3" font-family="Times,serif" font-size="14.00"> a1</text>
<text text-anchor="start" x="127.5" y="-1030.3" font-family="Times,serif" font-size="14.00"> a2</text>
</g>
<!-- Node0xd6c44f0 -->
<g id="node2" class="node"><title>Node0xd6c44f0</title>
<polygon fill="none" stroke="black" points="11,-886.5 11,-984.5 287,-984.5 287,-886.5 11,-886.5"/>
<text text-anchor="start" x="19" y="-969.3" font-family="Times,serif" font-size="14.00">v1</text>
<text text-anchor="start" x="19" y="-954.3" font-family="Times,serif" font-size="14.00"> g2 = &amp;(v1)</text>
<text text-anchor="start" x="19" y="-939.3" font-family="Times,serif" font-size="14.00"> v2 = g3</text>
<text text-anchor="start" x="19" y="-924.3" font-family="Times,serif" font-size="14.00"> v3 = PtrToIntCastExpr&lt;int32&gt;(a1)</text>
<text text-anchor="start" x="19" y="-909.3" font-family="Times,serif" font-size="14.00"> g3 = v3</text>
<text text-anchor="start" x="19" y="-894.3" font-family="Times,serif" font-size="14.00"> result</text>
</g>
<!-- Node0xe028bc0&#45;&gt;Node0xd6c44f0 -->
<g id="edge1" class="edge"><title>Node0xe028bc0&#45;&gt;Node0xd6c44f0</title>
<path fill="none" stroke="black" d="M149,-1022.42C149,-1014.12 149,-1004.54 149,-994.851"/>
<polygon fill="black" stroke="black" points="152.5,-994.768 149,-984.768 145.5,-994.768 152.5,-994.768"/>
</g>
<!-- Node0xe02b630 -->
<g id="node3" class="node"><title>Node0xe02b630</title>
<polygon fill="none" stroke="black" points="79,-810.5 79,-848.5 219,-848.5 219,-810.5 79,-810.5"/>
<text text-anchor="start" x="87" y="-833.3" font-family="Times,serif" font-size="14.00">if (a1 == NULL):</text>
<text text-anchor="start" x="87" y="-818.3" font-family="Times,serif" font-size="14.00"> else:</text>
</g>
<!-- Node0xd6c44f0&#45;&gt;Node0xe02b630 -->
<g id="edge2" class="edge"><title>Node0xd6c44f0&#45;&gt;Node0xe02b630</title>
<path fill="none" stroke="black" d="M149,-886.458C149,-876.952 149,-867.27 149,-858.69"/>
<polygon fill="black" stroke="black" points="152.5,-858.509 149,-848.509 145.5,-858.509 152.5,-858.509"/>
</g>
<!-- Node0xd6c4b90 -->
<g id="node4" class="node"><title>Node0xd6c4b90</title>
<polygon fill="none" stroke="black" points="0,-648.5 0,-686.5 102,-686.5 102,-648.5 0,-648.5"/>
<text text-anchor="start" x="8" y="-671.3" font-family="Times,serif" font-size="14.00">0x80695d0:</text>
<text text-anchor="start" x="8" y="-656.3" font-family="Times,serif" font-size="14.00"> result = g1</text>
</g>
<!-- Node0xe02b630&#45;&gt;Node0xd6c4b90 -->
<g id="edge3" class="edge"><title>Node0xe02b630&#45;&gt;Node0xd6c4b90</title>
<path fill="none" stroke="black" d="M130.922,-810.312C125.789,-804.685 120.403,-798.303 116,-792 94.3451,-761.002 74.9363,-721.901 63.0829,-696.096"/>
<polygon fill="black" stroke="black" points="66.2334,-694.569 58.921,-686.902 59.8564,-697.456 66.2334,-694.569"/>
<text text-anchor="middle" x="163" y="-780.8" font-family="Times,serif" font-size="14.00">a1 == NULL</text>
</g>
<!-- Node0xe02b9b0 -->
<g id="node5" class="node"><title>Node0xe02b9b0</title>
<polygon fill="none" stroke="black" points="145.5,-705.5 145.5,-758.5 468.5,-758.5 468.5,-705.5 145.5,-705.5"/>
<text text-anchor="start" x="153.5" y="-743.3" font-family="Times,serif" font-size="14.00">v4 = *(IntToPtrCastExpr&lt;ptr&gt;((v3 + 60)))</text>
<text text-anchor="start" x="153.5" y="-728.3" font-family="Times,serif" font-size="14.00"> g1 = v4</text>
<text text-anchor="start" x="153.5" y="-713.3" font-family="Times,serif" font-size="14.00"> g237 = (v4 == 0)</text>
</g>
<!-- Node0xe02b630&#45;&gt;Node0xe02b9b0 -->
<g id="edge4" class="edge"><title>Node0xe02b630&#45;&gt;Node0xe02b9b0</title>
<path fill="none" stroke="black" d="M179.09,-810.312C200.796,-797.193 230.621,-779.166 256.012,-763.819"/>
<polygon fill="black" stroke="black" points="258.04,-766.683 264.788,-758.514 254.419,-760.692 258.04,-766.683"/>
<text text-anchor="middle" x="277" y="-780.8" font-family="Times,serif" font-size="14.00">a1 != NULL</text>
</g>
<!-- Node0xe02b800 -->
<g id="node6" class="node"><title>Node0xe02b800</title>
<polygon fill="none" stroke="black" points="86.5,-97.5 86.5,-150.5 199.5,-150.5 199.5,-97.5 86.5,-97.5"/>
<text text-anchor="start" x="94.5" y="-135.3" font-family="Times,serif" font-size="14.00">0x8069602:</text>
<text text-anchor="start" x="94.5" y="-120.3" font-family="Times,serif" font-size="14.00"> g3 = v2</text>
<text text-anchor="start" x="94.5" y="-105.3" font-family="Times,serif" font-size="14.00"> return result</text>
</g>
<!-- Node0xd6c4b90&#45;&gt;Node0xe02b800 -->
<g id="edge5" class="edge"><title>Node0xd6c4b90&#45;&gt;Node0xe02b800</title>
<path fill="none" stroke="black" d="M49.2323,-648.458C47.4624,-628.812 45,-596.455 45,-568.5 45,-568.5 45,-568.5 45,-214 45,-189.968 61.3493,-170.72 80.6922,-156.357"/>
<polygon fill="black" stroke="black" points="82.9084,-159.079 89.1263,-150.501 78.916,-153.33 82.9084,-159.079"/>
</g>
<!-- Node0xd6c4ce0 -->
<g id="node7" class="node"><title>Node0xd6c4ce0</title>
<polygon fill="none" stroke="black" points="274.5,-593.5 274.5,-629.5 373.5,-629.5 373.5,-593.5 274.5,-593.5"/>
<text text-anchor="start" x="282.5" y="-607.8" font-family="Times,serif" font-size="14.00">if (v4 != 0):</text>
</g>
<!-- Node0xe02b9b0&#45;&gt;Node0xd6c4ce0 -->
<g id="edge6" class="edge"><title>Node0xe02b9b0&#45;&gt;Node0xd6c4ce0</title>
<path fill="none" stroke="black" d="M310.689,-705.287C313.457,-685.989 317.241,-659.614 320.067,-639.916"/>
<polygon fill="black" stroke="black" points="323.57,-640.142 321.526,-629.747 316.641,-639.148 323.57,-640.142"/>
</g>
<!-- Node0xd6c4490 -->
<g id="node8" class="node"><title>Node0xd6c4490</title>
<polygon fill="none" stroke="black" points="116,-23.5 116,-59.5 170,-59.5 170,-23.5 116,-23.5"/>
<text text-anchor="start" x="124" y="-37.8" font-family="Times,serif" font-size="14.00">exit:</text>
</g>
<!-- Node0xe02b800&#45;&gt;Node0xd6c4490 -->
<g id="edge7" class="edge"><title>Node0xe02b800&#45;&gt;Node0xd6c4490</title>
<path fill="none" stroke="black" d="M143,-97.0862C143,-88.4596 143,-78.8224 143,-70.0748"/>
<polygon fill="black" stroke="black" points="146.5,-69.9735 143,-59.9735 139.5,-69.9735 146.5,-69.9735"/>
</g>
<!-- Node0xe02bca0 -->
<g id="node9" class="node"><title>Node0xe02bca0</title>
<polygon fill="none" stroke="black" points="73.5,-473.5 73.5,-541.5 574.5,-541.5 574.5,-473.5 73.5,-473.5"/>
<text text-anchor="start" x="81.5" y="-526.3" font-family="Times,serif" font-size="14.00">v5 = *(IntToPtrCastExpr&lt;ptr&gt;((*(BitCastExpr&lt;ptr&gt;(a1)) + 28)))</text>
<text text-anchor="start" x="81.5" y="-511.3" font-family="Times,serif" font-size="14.00"> g6 = v5</text>
<text text-anchor="start" x="81.5" y="-496.3" font-family="Times,serif" font-size="14.00"> IntToPtrCastExpr&lt;ptr&gt;(*(IntToPtrCastExpr&lt;ptr&gt;((v5 + 36))))(v4)</text>
<text text-anchor="start" x="81.5" y="-481.3" font-family="Times,serif" font-size="14.00"> v3 = g3</text>
</g>
<!-- Node0xd6c4ce0&#45;&gt;Node0xe02bca0 -->
<g id="edge8" class="edge"><title>Node0xd6c4ce0&#45;&gt;Node0xe02bca0</title>
<path fill="none" stroke="black" d="M324,-593.197C324,-581.854 324,-566.486 324,-551.954"/>
<polygon fill="black" stroke="black" points="327.5,-551.59 324,-541.59 320.5,-551.59 327.5,-551.59"/>
<text text-anchor="middle" x="351" y="-563.8" font-family="Times,serif" font-size="14.00">v4 != 0</text>
</g>
<!-- Node0xe02bb50 -->
<g id="node10" class="node"><title>Node0xe02bb50</title>
<polygon fill="none" stroke="black" points="189,-367.5 189,-435.5 459,-435.5 459,-367.5 189,-367.5"/>
<text text-anchor="start" x="197" y="-420.3" font-family="Times,serif" font-size="14.00">0x80695f0:</text>
<text text-anchor="start" x="197" y="-405.3" font-family="Times,serif" font-size="14.00"> g6 = (v3 + 64)</text>
<text text-anchor="start" x="197" y="-390.3" font-family="Times,serif" font-size="14.00"> *(IntToPtrCastExpr&lt;ptr&gt;(v3)) = 0</text>
<text text-anchor="start" x="197" y="-375.3" font-family="Times,serif" font-size="14.00"> v6 = (v3 + 1)</text>
</g>
<!-- Node0xd6c4ce0&#45;&gt;Node0xe02bb50 -->
<g id="edge9" class="edge"><title>Node0xd6c4ce0&#45;&gt;Node0xe02bb50</title>
<path fill="none" stroke="black" d="M373.78,-604.579C441.87,-595.34 558.533,-575.045 584,-542 602.72,-517.71 602.632,-497.357 584,-473 568.684,-452.977 520.162,-437.316 469.116,-425.894"/>
<polygon fill="black" stroke="black" points="469.739,-422.448 459.223,-423.739 468.249,-429.287 469.739,-422.448"/>
<text text-anchor="middle" x="628" y="-503.8" font-family="Times,serif" font-size="14.00">v4 == 0</text>
</g>
<!-- Node0xe02bca0&#45;&gt;Node0xe02bb50 -->
<g id="edge10" class="edge"><title>Node0xe02bca0&#45;&gt;Node0xe02bb50</title>
<path fill="none" stroke="black" d="M324,-473.308C324,-464.583 324,-455.042 324,-445.87"/>
<polygon fill="black" stroke="black" points="327.5,-445.734 324,-435.734 320.5,-445.734 327.5,-445.734"/>
</g>
<!-- Node0xddc0160 -->
<g id="node11" class="node"><title>Node0xddc0160</title>
<polygon fill="none" stroke="black" points="234.5,-293.5 234.5,-329.5 371.5,-329.5 371.5,-293.5 234.5,-293.5"/>
<text text-anchor="start" x="242.5" y="-307.8" font-family="Times,serif" font-size="14.00">while (v6 != g6):</text>
</g>
<!-- Node0xe02bb50&#45;&gt;Node0xddc0160 -->
<g id="edge11" class="edge"><title>Node0xe02bb50&#45;&gt;Node0xddc0160</title>
<path fill="none" stroke="black" d="M316.121,-367.482C313.912,-358.228 311.539,-348.281 309.426,-339.426"/>
<polygon fill="black" stroke="black" points="312.816,-338.555 307.09,-329.64 306.007,-340.18 312.816,-338.555"/>
</g>
<!-- Node0x200ff300 -->
<g id="node12" class="node"><title>Node0x200ff300</title>
<polygon fill="none" stroke="black" points="74,-188.5 74,-241.5 344,-241.5 344,-188.5 74,-188.5"/>
<text text-anchor="start" x="82" y="-226.3" font-family="Times,serif" font-size="14.00">0x80695f8:</text>
<text text-anchor="start" x="82" y="-211.3" font-family="Times,serif" font-size="14.00"> *(IntToPtrCastExpr&lt;ptr&gt;(v6)) = 0</text>
<text text-anchor="start" x="82" y="-196.3" font-family="Times,serif" font-size="14.00"> v6 = (v6 + 1)</text>
</g>
<!-- Node0xddc0160&#45;&gt;Node0x200ff300 -->
<g id="edge12" class="edge"><title>Node0xddc0160&#45;&gt;Node0x200ff300</title>
<path fill="none" stroke="black" d="M239.367,-293.431C230.788,-288.701 222.919,-282.674 217,-275 211.883,-268.367 209.204,-260.02 207.933,-251.709"/>
<polygon fill="black" stroke="black" points="211.414,-251.344 207.01,-241.708 204.444,-251.987 211.414,-251.344"/>
<text text-anchor="middle" x="248.5" y="-263.8" font-family="Times,serif" font-size="14.00">v6 != g6</text>
</g>
<!-- Node0xe02bbb0 -->
<g id="node13" class="node"><title>Node0xe02bbb0</title>
<polygon fill="none" stroke="black" points="362.5,-196 362.5,-234 463.5,-234 463.5,-196 362.5,-196"/>
<text text-anchor="start" x="370.5" y="-218.8" font-family="Times,serif" font-size="14.00">0x8069602:</text>
<text text-anchor="start" x="370.5" y="-203.8" font-family="Times,serif" font-size="14.00"> result = v6</text>
</g>
<!-- Node0xddc0160&#45;&gt;Node0xe02bbb0 -->
<g id="edge13" class="edge"><title>Node0xddc0160&#45;&gt;Node0xe02bbb0</title>
<path fill="none" stroke="black" d="M322.92,-293.387C340.006,-278.708 364.845,-257.37 384.114,-240.816"/>
<polygon fill="black" stroke="black" points="386.422,-243.447 391.727,-234.276 381.861,-238.137 386.422,-243.447"/>
<text text-anchor="middle" x="395.5" y="-263.8" font-family="Times,serif" font-size="14.00">v6 == g6</text>
</g>
<!-- Node0x200ff300&#45;&gt;Node0xddc0160 -->
<g id="edge14" class="edge"><title>Node0x200ff300&#45;&gt;Node0xddc0160</title>
<path fill="none" stroke="black" d="M258.925,-241.623C266.599,-246.994 273.964,-253.142 280,-260 286.038,-266.861 290.76,-275.573 294.312,-283.821"/>
<polygon fill="black" stroke="black" points="291.057,-285.109 297.952,-293.152 297.578,-282.564 291.057,-285.109"/>
</g>
<!-- Node0xe02bbb0&#45;&gt;Node0xe02b800 -->
<g id="edge15" class="edge"><title>Node0xe02bbb0&#45;&gt;Node0xe02b800</title>
<path fill="none" stroke="black" d="M373.244,-195.997C366.54,-193.185 359.611,-190.415 353,-188 305.667,-170.712 251.129,-154.457 209.496,-142.789"/>
<polygon fill="black" stroke="black" points="210.315,-139.384 199.742,-140.073 208.437,-146.127 210.315,-139.384"/>
</g>
</g>
</svg>
