<?xml version="1.0" encoding="UTF-8" standalone="no"?>
<!DOCTYPE svg PUBLIC "-//W3C//DTD SVG 1.1//EN"
 "http://www.w3.org/Graphics/SVG/1.1/DTD/svg11.dtd">
<!-- Generated by graphviz version 2.38.0 (20140413.2041)
 -->
<!-- Title: Control&#45;flow graph for function &#39;mbedtls_asn1_write_mpi(*a1, a2, *a3)&#39;. Pages: 1 -->
<svg width="1124pt" height="2132pt"
 viewBox="0.00 0.00 1124.00 2132.00" xmlns="http://www.w3.org/2000/svg" xmlns:xlink="http://www.w3.org/1999/xlink">
<g id="graph0" class="graph" transform="scale(1 1) rotate(0) translate(4 2128)">
<title>Control&#45;flow graph for function &#39;mbedtls_asn1_write_mpi(*a1, a2, *a3)&#39;.</title>
<polygon fill="white" stroke="none" points="-4,4 -4,-2128 1120,-2128 1120,4 -4,4"/>
<text text-anchor="middle" x="558" y="-7.8" font-family="Times,serif" font-size="14.00">Control&#45;flow graph for function &#39;mbedtls_asn1_write_mpi(*a1, a2, *a3)&#39;.</text>
<!-- Node0x20f38f80 -->
<g id="node1" class="node"><title>Node0x20f38f80</title>
<polygon fill="none" stroke="black" points="129.5,-2055.5 129.5,-2123.5 188.5,-2123.5 188.5,-2055.5 129.5,-2055.5"/>
<text text-anchor="start" x="137.5" y="-2108.3" font-family="Times,serif" font-size="14.00">entry:</text>
<text text-anchor="start" x="137.5" y="-2093.3" font-family="Times,serif" font-size="14.00"> a1</text>
<text text-anchor="start" x="137.5" y="-2078.3" font-family="Times,serif" font-size="14.00"> a2</text>
<text text-anchor="start" x="137.5" y="-2063.3" font-family="Times,serif" font-size="14.00"> a3</text>
</g>
<!-- Node0x81faf90 -->
<g id="node2" class="node"><title>Node0x81faf90</title>
<polygon fill="none" stroke="black" points="20.5,-1844.5 20.5,-2017.5 297.5,-2017.5 297.5,-1844.5 20.5,-1844.5"/>
<text text-anchor="start" x="28.5" y="-2002.3" font-family="Times,serif" font-size="14.00">v1 = PtrToIntCastExpr&lt;int32&gt;(a3)</text>
<text text-anchor="start" x="28.5" y="-1987.3" font-family="Times,serif" font-size="14.00"> v2 = g5</text>
<text text-anchor="start" x="28.5" y="-1972.3" font-family="Times,serif" font-size="14.00"> g5 = v1</text>
<text text-anchor="start" x="28.5" y="-1957.3" font-family="Times,serif" font-size="14.00"> v3 = g3</text>
<text text-anchor="start" x="28.5" y="-1942.3" font-family="Times,serif" font-size="14.00"> v4 = g7</text>
<text text-anchor="start" x="28.5" y="-1927.3" font-family="Times,serif" font-size="14.00"> g7 = PtrToIntCastExpr&lt;int32&gt;(a1)</text>
<text text-anchor="start" x="28.5" y="-1912.3" font-family="Times,serif" font-size="14.00"> v5 = mbedtls_mpi_size(v1)</text>
<text text-anchor="start" x="28.5" y="-1897.3" font-family="Times,serif" font-size="14.00"> g3 = v5</text>
<text text-anchor="start" x="28.5" y="-1882.3" font-family="Times,serif" font-size="14.00"> v6 = IntToPtrCastExpr&lt;ptr&gt;(g7)</text>
<text text-anchor="start" x="28.5" y="-1867.3" font-family="Times,serif" font-size="14.00"> v7 = *(v6)</text>
<text text-anchor="start" x="28.5" y="-1852.3" font-family="Times,serif" font-size="14.00"> result</text>
</g>
<!-- Node0x20f38f80&#45;&gt;Node0x81faf90 -->
<g id="edge1" class="edge"><title>Node0x20f38f80&#45;&gt;Node0x81faf90</title>
<path fill="none" stroke="black" d="M159,-2055.31C159,-2046.99 159,-2037.63 159,-2027.89"/>
<polygon fill="black" stroke="black" points="162.5,-2027.63 159,-2017.63 155.5,-2027.63 162.5,-2027.63"/>
</g>
<!-- Node0x20f39340 -->
<g id="node3" class="node"><title>Node0x20f39340</title>
<polygon fill="none" stroke="black" points="87.5,-1768.5 87.5,-1806.5 230.5,-1806.5 230.5,-1768.5 87.5,-1768.5"/>
<text text-anchor="start" x="95.5" y="-1791.3" font-family="Times,serif" font-size="14.00">if ((v7 &#45; a2) &lt; v5):</text>
<text text-anchor="start" x="95.5" y="-1776.3" font-family="Times,serif" font-size="14.00"> else:</text>
</g>
<!-- Node0x81faf90&#45;&gt;Node0x20f39340 -->
<g id="edge2" class="edge"><title>Node0x81faf90&#45;&gt;Node0x20f39340</title>
<path fill="none" stroke="black" d="M159,-1844.42C159,-1834.55 159,-1825.08 159,-1816.83"/>
<polygon fill="black" stroke="black" points="162.5,-1816.75 159,-1806.75 155.5,-1816.75 162.5,-1816.75"/>
</g>
<!-- Node0x20f39ef0 -->
<g id="node4" class="node"><title>Node0x20f39ef0</title>
<polygon fill="none" stroke="black" points="0,-1606.5 0,-1644.5 116,-1644.5 116,-1606.5 0,-1606.5"/>
<text text-anchor="start" x="8" y="-1629.3" font-family="Times,serif" font-size="14.00">0x8068f0a:</text>
<text text-anchor="start" x="8" y="-1614.3" font-family="Times,serif" font-size="14.00"> result = &#45;108</text>
</g>
<!-- Node0x20f39340&#45;&gt;Node0x20f39ef0 -->
<g id="edge3" class="edge"><title>Node0x20f39340&#45;&gt;Node0x20f39ef0</title>
<path fill="none" stroke="black" d="M128.796,-1768.27C111.016,-1755.98 89.6084,-1738.16 77,-1717 65.751,-1698.12 61.0996,-1673.55 59.2064,-1654.78"/>
<polygon fill="black" stroke="black" points="62.6903,-1654.44 58.3976,-1644.75 55.7129,-1655 62.6903,-1654.44"/>
<text text-anchor="middle" x="152.5" y="-1738.8" font-family="Times,serif" font-size="14.00">(v7 &#45; a2) &lt; v5</text>
</g>
<!-- Node0x20f39f70 -->
<g id="node5" class="node"><title>Node0x20f39f70</title>
<polygon fill="none" stroke="black" points="86.5,-1663.5 86.5,-1716.5 601.5,-1716.5 601.5,-1663.5 86.5,-1663.5"/>
<text text-anchor="start" x="94.5" y="-1701.3" font-family="Times,serif" font-size="14.00">v8 = (v7 &#45; v5)</text>
<text text-anchor="start" x="94.5" y="-1686.3" font-family="Times,serif" font-size="14.00"> *(v6) = v8</text>
<text text-anchor="start" x="94.5" y="-1671.3" font-family="Times,serif" font-size="14.00"> v9 = mbedtls_mpi_write_binary(IntToPtrCastExpr&lt;ptr&gt;(g5), v8, g3)</text>
</g>
<!-- Node0x20f39340&#45;&gt;Node0x20f39f70 -->
<g id="edge4" class="edge"><title>Node0x20f39340&#45;&gt;Node0x20f39f70</title>
<path fill="none" stroke="black" d="M194.233,-1768.31C219.98,-1755.02 255.486,-1736.69 285.465,-1721.22"/>
<polygon fill="black" stroke="black" points="287.294,-1724.21 294.574,-1716.51 284.083,-1717.99 287.294,-1724.21"/>
<text text-anchor="middle" x="312.5" y="-1738.8" font-family="Times,serif" font-size="14.00">(v7 &#45; a2) &gt;= v5</text>
</g>
<!-- Node0x20f39e00 -->
<g id="node6" class="node"><title>Node0x20f39e00</title>
<polygon fill="none" stroke="black" points="1.5,-1265.5 1.5,-1348.5 114.5,-1348.5 114.5,-1265.5 1.5,-1265.5"/>
<text text-anchor="start" x="9.5" y="-1333.3" font-family="Times,serif" font-size="14.00">0x8068f0f:</text>
<text text-anchor="start" x="9.5" y="-1318.3" font-family="Times,serif" font-size="14.00"> g3 = v3</text>
<text text-anchor="start" x="9.5" y="-1303.3" font-family="Times,serif" font-size="14.00"> g7 = v4</text>
<text text-anchor="start" x="9.5" y="-1288.3" font-family="Times,serif" font-size="14.00"> g5 = v2</text>
<text text-anchor="start" x="9.5" y="-1273.3" font-family="Times,serif" font-size="14.00"> return result</text>
</g>
<!-- Node0x20f39ef0&#45;&gt;Node0x20f39e00 -->
<g id="edge5" class="edge"><title>Node0x20f39ef0&#45;&gt;Node0x20f39e00</title>
<path fill="none" stroke="black" d="M58,-1606.12C58,-1558.65 58,-1430.67 58,-1358.78"/>
<polygon fill="black" stroke="black" points="61.5001,-1358.6 58,-1348.6 54.5001,-1358.6 61.5001,-1358.6"/>
</g>
<!-- Node0x20f3a010 -->
<g id="node7" class="node"><title>Node0x20f3a010</title>
<polygon fill="none" stroke="black" points="291.5,-1551.5 291.5,-1587.5 396.5,-1587.5 396.5,-1551.5 291.5,-1551.5"/>
<text text-anchor="start" x="299.5" y="-1565.8" font-family="Times,serif" font-size="14.00">if (v9 == 0):</text>
</g>
<!-- Node0x20f39f70&#45;&gt;Node0x20f3a010 -->
<g id="edge6" class="edge"><title>Node0x20f39f70&#45;&gt;Node0x20f3a010</title>
<path fill="none" stroke="black" d="M344,-1663.29C344,-1643.99 344,-1617.61 344,-1597.92"/>
<polygon fill="black" stroke="black" points="347.5,-1597.75 344,-1587.75 340.5,-1597.75 347.5,-1597.75"/>
</g>
<!-- Node0x106e3c80 -->
<g id="node8" class="node"><title>Node0x106e3c80</title>
<polygon fill="none" stroke="black" points="290,-23.5 290,-59.5 344,-59.5 344,-23.5 290,-23.5"/>
<text text-anchor="start" x="298" y="-37.8" font-family="Times,serif" font-size="14.00">exit:</text>
</g>
<!-- Node0x20f39e00&#45;&gt;Node0x106e3c80 -->
<g id="edge7" class="edge"><title>Node0x20f39e00&#45;&gt;Node0x106e3c80</title>
<path fill="none" stroke="black" d="M55.8244,-1265.34C54.8862,-1244.47 54,-1218.63 54,-1195.5 54,-1195.5 54,-1195.5 54,-138 54,-90.5428 207.209,-59.8957 279.755,-48.0441"/>
<polygon fill="black" stroke="black" points="280.522,-51.4659 289.845,-46.4321 279.418,-44.5536 280.522,-51.4659"/>
</g>
<!-- Node0x20f39e60 -->
<g id="node9" class="node"><title>Node0x20f39e60</title>
<polygon fill="none" stroke="black" points="363,-1386.5 363,-1499.5 461,-1499.5 461,-1386.5 363,-1386.5"/>
<text text-anchor="start" x="371" y="-1484.3" font-family="Times,serif" font-size="14.00">0x8068f38:</text>
<text text-anchor="start" x="371" y="-1469.3" font-family="Times,serif" font-size="14.00"> v10</text>
<text text-anchor="start" x="371" y="-1454.3" font-family="Times,serif" font-size="14.00"> v11</text>
<text text-anchor="start" x="371" y="-1439.3" font-family="Times,serif" font-size="14.00"> v12</text>
<text text-anchor="start" x="371" y="-1424.3" font-family="Times,serif" font-size="14.00"> v13</text>
<text text-anchor="start" x="371" y="-1409.3" font-family="Times,serif" font-size="14.00"> v14</text>
<text text-anchor="start" x="371" y="-1394.3" font-family="Times,serif" font-size="14.00"> v15</text>
</g>
<!-- Node0x20f3a010&#45;&gt;Node0x20f39e60 -->
<g id="edge8" class="edge"><title>Node0x20f3a010&#45;&gt;Node0x20f39e60</title>
<path fill="none" stroke="black" d="M353.313,-1551.45C359.512,-1540.1 368.087,-1524.4 376.77,-1508.5"/>
<polygon fill="black" stroke="black" points="379.868,-1510.13 381.59,-1499.68 373.725,-1506.78 379.868,-1510.13"/>
<text text-anchor="middle" x="400" y="-1521.8" font-family="Times,serif" font-size="14.00">v9 == 0</text>
</g>
<!-- Node0x20f3a160 -->
<g id="node10" class="node"><title>Node0x20f3a160</title>
<polygon fill="none" stroke="black" points="167.5,-1425 167.5,-1461 264.5,-1461 264.5,-1425 167.5,-1425"/>
<text text-anchor="start" x="175.5" y="-1439.3" font-family="Times,serif" font-size="14.00">result = v9</text>
</g>
<!-- Node0x20f3a010&#45;&gt;Node0x20f3a160 -->
<g id="edge9" class="edge"><title>Node0x20f3a010&#45;&gt;Node0x20f3a160</title>
<path fill="none" stroke="black" d="M325.9,-1551.2C319.876,-1545.42 313.138,-1538.95 307,-1533 284.501,-1511.21 259.018,-1486.26 240.753,-1468.33"/>
<polygon fill="black" stroke="black" points="242.985,-1465.62 233.397,-1461.11 238.08,-1470.62 242.985,-1465.62"/>
<text text-anchor="middle" x="334" y="-1521.8" font-family="Times,serif" font-size="14.00">v9 != 0</text>
</g>
<!-- Node0x20f3a490 -->
<g id="node11" class="node"><title>Node0x20f3a490</title>
<polygon fill="none" stroke="black" points="280,-1289 280,-1325 588,-1325 588,-1289 280,-1289"/>
<text text-anchor="start" x="288" y="-1303.3" font-family="Times,serif" font-size="14.00">if (*(IntToPtrCastExpr&lt;ptr&gt;(g5)) == 1):</text>
</g>
<!-- Node0x20f39e60&#45;&gt;Node0x20f3a490 -->
<g id="edge10" class="edge"><title>Node0x20f39e60&#45;&gt;Node0x20f3a490</title>
<path fill="none" stroke="black" d="M421.139,-1386.34C424.046,-1368.63 427.131,-1349.84 429.551,-1335.1"/>
<polygon fill="black" stroke="black" points="433.017,-1335.59 431.184,-1325.15 426.11,-1334.45 433.017,-1335.59"/>
</g>
<!-- Node0x20f3a160&#45;&gt;Node0x20f39e00 -->
<g id="edge11" class="edge"><title>Node0x20f3a160&#45;&gt;Node0x20f39e00</title>
<path fill="none" stroke="black" d="M195.668,-1424.76C175.022,-1407.25 142.129,-1379.35 113.673,-1355.22"/>
<polygon fill="black" stroke="black" points="115.668,-1352.32 105.778,-1348.52 111.141,-1357.66 115.668,-1352.32"/>
</g>
<!-- Node0x20f3ab20 -->
<g id="node12" class="node"><title>Node0x20f3ab20</title>
<polygon fill="none" stroke="black" points="301,-1175.5 301,-1213.5 567,-1213.5 567,-1175.5 301,-1175.5"/>
<text text-anchor="start" x="309" y="-1198.3" font-family="Times,serif" font-size="14.00">v16 = IntToPtrCastExpr&lt;ptr&gt;(g7)</text>
<text text-anchor="start" x="309" y="-1183.3" font-family="Times,serif" font-size="14.00"> v17 = *(v16)</text>
</g>
<!-- Node0x20f3a490&#45;&gt;Node0x20f3ab20 -->
<g id="edge12" class="edge"><title>Node0x20f3a490&#45;&gt;Node0x20f3ab20</title>
<path fill="none" stroke="black" d="M434,-1288.73C434,-1271.37 434,-1244.29 434,-1223.79"/>
<polygon fill="black" stroke="black" points="437.5,-1223.75 434,-1213.75 430.5,-1223.75 437.5,-1223.75"/>
<text text-anchor="middle" x="565" y="-1235.8" font-family="Times,serif" font-size="14.00">*(IntToPtrCastExpr&lt;ptr&gt;(g5)) == 1</text>
</g>
<!-- Node0x20f3a7e0 -->
<g id="node13" class="node"><title>Node0x20f3a7e0</title>
<polygon fill="none" stroke="black" points="436,-990 436,-1028 1116,-1028 1116,-990 436,-990"/>
<text text-anchor="start" x="444" y="-1012.8" font-family="Times,serif" font-size="14.00">0x8068f44:</text>
<text text-anchor="start" x="444" y="-997.8" font-family="Times,serif" font-size="14.00"> v11 = mbedtls_asn1_write_len(IntToPtrCastExpr&lt;ptr&gt;(g7), a2, TruncCastExpr&lt;int8&gt;(g3))</text>
</g>
<!-- Node0x20f3a490&#45;&gt;Node0x20f3a7e0 -->
<g id="edge13" class="edge"><title>Node0x20f3a490&#45;&gt;Node0x20f3a7e0</title>
<path fill="none" stroke="black" d="M565.815,-1288.97C621.985,-1279.29 679.323,-1265.39 700,-1247 761.362,-1192.42 773.502,-1088.26 775.684,-1038.21"/>
<polygon fill="black" stroke="black" points="779.186,-1038.22 776.019,-1028.11 772.19,-1037.99 779.186,-1038.22"/>
<text text-anchor="middle" x="887" y="-1145.8" font-family="Times,serif" font-size="14.00">*(IntToPtrCastExpr&lt;ptr&gt;(g5)) != 1</text>
</g>
<!-- Node0x20f3ac30 -->
<g id="node14" class="node"><title>Node0x20f3ac30</title>
<polygon fill="none" stroke="black" points="282,-1087.5 282,-1123.5 586,-1123.5 586,-1087.5 282,-1087.5"/>
<text text-anchor="start" x="290" y="-1101.8" font-family="Times,serif" font-size="14.00">if (*(IntToPtrCastExpr&lt;ptr&gt;(v17)) &lt; 0):</text>
</g>
<!-- Node0x20f3ab20&#45;&gt;Node0x20f3ac30 -->
<g id="edge14" class="edge"><title>Node0x20f3ab20&#45;&gt;Node0x20f3ac30</title>
<path fill="none" stroke="black" d="M434,-1175.47C434,-1163.46 434,-1147.43 434,-1133.86"/>
<polygon fill="black" stroke="black" points="437.5,-1133.62 434,-1123.62 430.5,-1133.62 437.5,-1133.62"/>
</g>
<!-- Node0x20f3a840 -->
<g id="node15" class="node"><title>Node0x20f3a840</title>
<polygon fill="none" stroke="black" points="788,-733.5 788,-771.5 902,-771.5 902,-733.5 788,-733.5"/>
<text text-anchor="start" x="796" y="-756.3" font-family="Times,serif" font-size="14.00">if (v11 &gt;= 0):</text>
<text text-anchor="start" x="796" y="-741.3" font-family="Times,serif" font-size="14.00"> else:</text>
</g>
<!-- Node0x20f3a7e0&#45;&gt;Node0x20f3a840 -->
<g id="edge15" class="edge"><title>Node0x20f3a7e0&#45;&gt;Node0x20f3a840</title>
<path fill="none" stroke="black" d="M791.447,-989.714C803.044,-974.89 818.211,-952.929 826,-931 843.861,-880.713 846.29,-817.772 845.967,-781.949"/>
<polygon fill="black" stroke="black" points="849.463,-781.685 845.792,-771.746 842.464,-781.804 849.463,-781.685"/>
</g>
<!-- Node0x20f3ac30&#45;&gt;Node0x20f3a7e0 -->
<g id="edge17" class="edge"><title>Node0x20f3ac30&#45;&gt;Node0x20f3a7e0</title>
<path fill="none" stroke="black" d="M451.146,-1087.34C464.477,-1074.39 482.145,-1058.16 491,-1054 511.817,-1044.22 534.34,-1036.54 557.287,-1030.51"/>
<polygon fill="black" stroke="black" points="558.301,-1033.86 567.143,-1028.03 556.591,-1027.07 558.301,-1033.86"/>
<text text-anchor="middle" x="626.5" y="-1057.8" font-family="Times,serif" font-size="14.00">*(IntToPtrCastExpr&lt;ptr&gt;(v17)) &gt;= 0</text>
</g>
<!-- Node0xaf34540 -->
<g id="node16" class="node"><title>Node0xaf34540</title>
<polygon fill="none" stroke="black" points="134,-982.5 134,-1035.5 282,-1035.5 282,-982.5 134,-982.5"/>
<text text-anchor="start" x="142" y="-1020.3" font-family="Times,serif" font-size="14.00">0x8068f80:</text>
<text text-anchor="start" x="142" y="-1005.3" font-family="Times,serif" font-size="14.00"> if ((v17 &#45; a2) &lt; 1):</text>
<text text-anchor="start" x="142" y="-990.3" font-family="Times,serif" font-size="14.00"> else:</text>
</g>
<!-- Node0x20f3ac30&#45;&gt;Node0xaf34540 -->
<g id="edge16" class="edge"><title>Node0x20f3ac30&#45;&gt;Node0xaf34540</title>
<path fill="none" stroke="black" d="M281.996,-1095.17C248.704,-1089.91 220.059,-1081.72 209,-1069 203.457,-1062.62 201.381,-1054.23 201.115,-1045.79"/>
<polygon fill="black" stroke="black" points="204.62,-1045.74 201.575,-1035.59 197.628,-1045.42 204.62,-1045.74"/>
<text text-anchor="middle" x="338.5" y="-1057.8" font-family="Times,serif" font-size="14.00">*(IntToPtrCastExpr&lt;ptr&gt;(v17)) &lt; 0</text>
</g>
<!-- Node0x20f3b080 -->
<g id="node17" class="node"><title>Node0x20f3b080</title>
<polygon fill="none" stroke="black" points="559,-598.5 559,-681.5 829,-681.5 829,-598.5 559,-598.5"/>
<text text-anchor="start" x="567" y="-666.3" font-family="Times,serif" font-size="14.00">0x8068f5b:</text>
<text text-anchor="start" x="567" y="-651.3" font-family="Times,serif" font-size="14.00"> v10 = IntToPtrCastExpr&lt;ptr&gt;(g7)</text>
<text text-anchor="start" x="567" y="-636.3" font-family="Times,serif" font-size="14.00"> v13 = *(v10)</text>
<text text-anchor="start" x="567" y="-621.3" font-family="Times,serif" font-size="14.00"> v12 = (v13 &#45; a2)</text>
<text text-anchor="start" x="567" y="-606.3" font-family="Times,serif" font-size="14.00"> g4 = v12</text>
</g>
<!-- Node0x20f3a840&#45;&gt;Node0x20f3b080 -->
<g id="edge18" class="edge"><title>Node0x20f3a840&#45;&gt;Node0x20f3b080</title>
<path fill="none" stroke="black" d="M798.312,-733.367C787.28,-728.166 775.865,-721.983 766,-715 755.494,-707.564 745.218,-698.478 735.868,-689.252"/>
<polygon fill="black" stroke="black" points="738.092,-686.522 728.582,-681.852 733.104,-691.433 738.092,-686.522"/>
<text text-anchor="middle" x="800.5" y="-703.8" font-family="Times,serif" font-size="14.00">v11 &gt;= 0</text>
</g>
<!-- Node0xaf34470 -->
<g id="node18" class="node"><title>Node0xaf34470</title>
<polygon fill="none" stroke="black" points="803,-543.5 803,-579.5 909,-579.5 909,-543.5 803,-543.5"/>
<text text-anchor="start" x="811" y="-557.8" font-family="Times,serif" font-size="14.00">result = v11</text>
</g>
<!-- Node0x20f3a840&#45;&gt;Node0xaf34470 -->
<g id="edge19" class="edge"><title>Node0x20f3a840&#45;&gt;Node0xaf34470</title>
<path fill="none" stroke="black" d="M846.055,-733.378C847.991,-700.103 852.124,-629.094 854.405,-589.898"/>
<polygon fill="black" stroke="black" points="857.909,-589.931 854.996,-579.745 850.921,-589.524 857.909,-589.931"/>
<text text-anchor="middle" x="875.5" y="-703.8" font-family="Times,serif" font-size="14.00">v11 &lt; 0</text>
</g>
<!-- Node0x20f3bcb0 -->
<g id="node19" class="node"><title>Node0x20f3bcb0</title>
<polygon fill="none" stroke="black" points="69,-790.5 69,-828.5 185,-828.5 185,-790.5 69,-790.5"/>
<text text-anchor="start" x="77" y="-813.3" font-family="Times,serif" font-size="14.00">0x8068f0a:</text>
<text text-anchor="start" x="77" y="-798.3" font-family="Times,serif" font-size="14.00"> result = &#45;108</text>
</g>
<!-- Node0xaf34540&#45;&gt;Node0x20f3bcb0 -->
<g id="edge20" class="edge"><title>Node0xaf34540&#45;&gt;Node0x20f3bcb0</title>
<path fill="none" stroke="black" d="M169.903,-982.187C153.797,-968.97 136.763,-951.363 128,-931 115.264,-901.406 117.489,-863.811 121.284,-838.551"/>
<polygon fill="black" stroke="black" points="124.761,-838.981 122.968,-828.539 117.858,-837.82 124.761,-838.981"/>
<text text-anchor="middle" x="199" y="-952.8" font-family="Times,serif" font-size="14.00">(v17 &#45; a2) &lt; 1</text>
</g>
<!-- Node0x20f3bee0 -->
<g id="node20" class="node"><title>Node0x20f3bee0</title>
<polygon fill="none" stroke="black" points="137,-847.5 137,-930.5 817,-930.5 817,-847.5 137,-847.5"/>
<text text-anchor="start" x="145" y="-915.3" font-family="Times,serif" font-size="14.00">0x8068f89:</text>
<text text-anchor="start" x="145" y="-900.3" font-family="Times,serif" font-size="14.00"> g3 = (g3 + 1)</text>
<text text-anchor="start" x="145" y="-885.3" font-family="Times,serif" font-size="14.00"> *(v16) = (v17 &#45; 1)</text>
<text text-anchor="start" x="145" y="-870.3" font-family="Times,serif" font-size="14.00"> *(IntToPtrCastExpr&lt;ptr&gt;((v17 &#45; 1))) = 0</text>
<text text-anchor="start" x="145" y="-855.3" font-family="Times,serif" font-size="14.00"> v11 = mbedtls_asn1_write_len(IntToPtrCastExpr&lt;ptr&gt;(g7), a2, TruncCastExpr&lt;int8&gt;(g3))</text>
</g>
<!-- Node0xaf34540&#45;&gt;Node0x20f3bee0 -->
<g id="edge21" class="edge"><title>Node0xaf34540&#45;&gt;Node0x20f3bee0</title>
<path fill="none" stroke="black" d="M266.369,-982.396C298.206,-968.43 338.53,-950.742 375.354,-934.588"/>
<polygon fill="black" stroke="black" points="376.881,-937.74 384.633,-930.518 374.069,-931.33 376.881,-937.74"/>
<text text-anchor="middle" x="398" y="-952.8" font-family="Times,serif" font-size="14.00">(v17 &#45; a2) &gt;= 1</text>
</g>
<!-- Node0x20f3a1c0 -->
<g id="node21" class="node"><title>Node0x20f3a1c0</title>
<polygon fill="none" stroke="black" points="637,-488.5 637,-524.5 751,-524.5 751,-488.5 637,-488.5"/>
<text text-anchor="start" x="645" y="-502.8" font-family="Times,serif" font-size="14.00">if (v12 &gt;= 1):</text>
</g>
<!-- Node0x20f3b080&#45;&gt;Node0x20f3a1c0 -->
<g id="edge22" class="edge"><title>Node0x20f3b080&#45;&gt;Node0x20f3a1c0</title>
<path fill="none" stroke="black" d="M694,-598.473C694,-577.781 694,-553.162 694,-534.755"/>
<polygon fill="black" stroke="black" points="697.5,-534.712 694,-524.712 690.5,-534.712 697.5,-534.712"/>
</g>
<!-- Node0x20f3aac0 -->
<g id="node22" class="node"><title>Node0x20f3aac0</title>
<polygon fill="none" stroke="black" points="773.5,-97.5 773.5,-180.5 886.5,-180.5 886.5,-97.5 773.5,-97.5"/>
<text text-anchor="start" x="781.5" y="-165.3" font-family="Times,serif" font-size="14.00">0x8068f0f:</text>
<text text-anchor="start" x="781.5" y="-150.3" font-family="Times,serif" font-size="14.00"> g3 = v3</text>
<text text-anchor="start" x="781.5" y="-135.3" font-family="Times,serif" font-size="14.00"> g7 = v4</text>
<text text-anchor="start" x="781.5" y="-120.3" font-family="Times,serif" font-size="14.00"> g5 = v2</text>
<text text-anchor="start" x="781.5" y="-105.3" font-family="Times,serif" font-size="14.00"> return result</text>
</g>
<!-- Node0xaf34470&#45;&gt;Node0x20f3aac0 -->
<g id="edge23" class="edge"><title>Node0xaf34470&#45;&gt;Node0x20f3aac0</title>
<path fill="none" stroke="black" d="M856.155,-543.494C856.442,-491.638 855.967,-331.007 841,-199 840.681,-196.185 840.305,-193.303 839.889,-190.399"/>
<polygon fill="black" stroke="black" points="843.346,-189.848 838.34,-180.51 836.43,-190.932 843.346,-189.848"/>
</g>
<!-- Node0x20f3bae0 -->
<g id="node23" class="node"><title>Node0x20f3bae0</title>
<polygon fill="none" stroke="black" points="132.5,-97.5 132.5,-180.5 245.5,-180.5 245.5,-97.5 132.5,-97.5"/>
<text text-anchor="start" x="140.5" y="-165.3" font-family="Times,serif" font-size="14.00">0x8068f0f:</text>
<text text-anchor="start" x="140.5" y="-150.3" font-family="Times,serif" font-size="14.00"> g3 = v3</text>
<text text-anchor="start" x="140.5" y="-135.3" font-family="Times,serif" font-size="14.00"> g7 = v4</text>
<text text-anchor="start" x="140.5" y="-120.3" font-family="Times,serif" font-size="14.00"> g5 = v2</text>
<text text-anchor="start" x="140.5" y="-105.3" font-family="Times,serif" font-size="14.00"> return result</text>
</g>
<!-- Node0x20f3bcb0&#45;&gt;Node0x20f3bae0 -->
<g id="edge24" class="edge"><title>Node0x20f3bcb0&#45;&gt;Node0x20f3bae0</title>
<path fill="none" stroke="black" d="M125.265,-790.454C123.493,-770.444 121,-737.197 121,-708.5 121,-708.5 121,-708.5 121,-394.5 121,-307.321 102.887,-279.228 137,-199 138.448,-195.596 140.171,-192.251 142.096,-188.992"/>
<polygon fill="black" stroke="black" points="145.055,-190.862 147.611,-180.581 139.201,-187.024 145.055,-190.862"/>
</g>
<!-- Node0x20f3c050 -->
<g id="node24" class="node"><title>Node0x20f3c050</title>
<polygon fill="none" stroke="black" points="420,-733.5 420,-771.5 534,-771.5 534,-733.5 420,-733.5"/>
<text text-anchor="start" x="428" y="-756.3" font-family="Times,serif" font-size="14.00">if (v11 &gt;= 0):</text>
<text text-anchor="start" x="428" y="-741.3" font-family="Times,serif" font-size="14.00"> else:</text>
</g>
<!-- Node0x20f3bee0&#45;&gt;Node0x20f3c050 -->
<g id="edge25" class="edge"><title>Node0x20f3bee0&#45;&gt;Node0x20f3c050</title>
<path fill="none" stroke="black" d="M477,-847.281C477,-826.112 477,-800.766 477,-781.764"/>
<polygon fill="black" stroke="black" points="480.5,-781.658 477,-771.658 473.5,-781.658 480.5,-781.658"/>
</g>
<!-- Node0x20f3bb40 -->
<g id="node25" class="node"><title>Node0x20f3bb40</title>
<polygon fill="none" stroke="black" points="503,-199.5 503,-357.5 815,-357.5 815,-199.5 503,-199.5"/>
<text text-anchor="start" x="511" y="-342.3" font-family="Times,serif" font-size="14.00">0x8068f66:</text>
<text text-anchor="start" x="511" y="-327.3" font-family="Times,serif" font-size="14.00"> v15 = (v13 &#45; 1)</text>
<text text-anchor="start" x="511" y="-312.3" font-family="Times,serif" font-size="14.00"> g4 = v15</text>
<text text-anchor="start" x="511" y="-297.3" font-family="Times,serif" font-size="14.00"> *(v10) = v15</text>
<text text-anchor="start" x="511" y="-282.3" font-family="Times,serif" font-size="14.00"> v14 = g3</text>
<text text-anchor="start" x="511" y="-267.3" font-family="Times,serif" font-size="14.00"> *(IntToPtrCastExpr&lt;ptr&gt;((v13 &#45; 1))) = 2</text>
<text text-anchor="start" x="511" y="-252.3" font-family="Times,serif" font-size="14.00"> g3 = v3</text>
<text text-anchor="start" x="511" y="-237.3" font-family="Times,serif" font-size="14.00"> g7 = v4</text>
<text text-anchor="start" x="511" y="-222.3" font-family="Times,serif" font-size="14.00"> g5 = v2</text>
<text text-anchor="start" x="511" y="-207.3" font-family="Times,serif" font-size="14.00"> return ((v14 + 1) + v11)</text>
</g>
<!-- Node0x20f3a1c0&#45;&gt;Node0x20f3bb40 -->
<g id="edge26" class="edge"><title>Node0x20f3a1c0&#45;&gt;Node0x20f3bb40</title>
<path fill="none" stroke="black" d="M673.219,-488.219C668.287,-482.933 663.682,-476.721 661,-470 648.279,-438.124 645.542,-400.791 646.785,-367.661"/>
<polygon fill="black" stroke="black" points="650.288,-367.688 647.292,-357.525 643.297,-367.338 650.288,-367.688"/>
<text text-anchor="middle" x="695.5" y="-447.8" font-family="Times,serif" font-size="14.00">v12 &gt;= 1</text>
</g>
<!-- Node0x20f3a270 -->
<g id="node26" class="node"><title>Node0x20f3a270</title>
<polygon fill="none" stroke="black" points="702,-376.5 702,-414.5 818,-414.5 818,-376.5 702,-376.5"/>
<text text-anchor="start" x="710" y="-399.3" font-family="Times,serif" font-size="14.00">0x8068f0a:</text>
<text text-anchor="start" x="710" y="-384.3" font-family="Times,serif" font-size="14.00"> result = &#45;108</text>
</g>
<!-- Node0x20f3a1c0&#45;&gt;Node0x20f3a270 -->
<g id="edge27" class="edge"><title>Node0x20f3a1c0&#45;&gt;Node0x20f3a270</title>
<path fill="none" stroke="black" d="M717.175,-488.458C723.285,-483.091 729.437,-476.778 734,-470 743.245,-456.266 749.591,-438.878 753.697,-424.462"/>
<polygon fill="black" stroke="black" points="757.136,-425.147 756.302,-414.585 750.368,-423.362 757.136,-425.147"/>
<text text-anchor="middle" x="778.5" y="-447.8" font-family="Times,serif" font-size="14.00">v12 &lt; 1</text>
</g>
<!-- Node0x20f3aac0&#45;&gt;Node0x106e3c80 -->
<g id="edge28" class="edge"><title>Node0x20f3aac0&#45;&gt;Node0x106e3c80</title>
<path fill="none" stroke="black" d="M773.395,-126.665C711.477,-114.347 609.276,-94.2497 521,-78 462.782,-67.2834 395.056,-55.6654 354.14,-48.7395"/>
<polygon fill="black" stroke="black" points="354.532,-45.2562 344.089,-47.0412 353.366,-52.1584 354.532,-45.2562"/>
</g>
<!-- Node0x20f3bae0&#45;&gt;Node0x106e3c80 -->
<g id="edge29" class="edge"><title>Node0x20f3bae0&#45;&gt;Node0x106e3c80</title>
<path fill="none" stroke="black" d="M243.284,-97.4994C257.928,-86.5734 273.267,-75.129 286.137,-65.5266"/>
<polygon fill="black" stroke="black" points="288.284,-68.2916 294.206,-59.5064 284.098,-62.6811 288.284,-68.2916"/>
</g>
<!-- Node0x20f3c470 -->
<g id="node27" class="node"><title>Node0x20f3c470</title>
<polygon fill="none" stroke="black" points="178,-598.5 178,-681.5 448,-681.5 448,-598.5 178,-598.5"/>
<text text-anchor="start" x="186" y="-666.3" font-family="Times,serif" font-size="14.00">0x8068f5b:</text>
<text text-anchor="start" x="186" y="-651.3" font-family="Times,serif" font-size="14.00"> v10 = IntToPtrCastExpr&lt;ptr&gt;(g7)</text>
<text text-anchor="start" x="186" y="-636.3" font-family="Times,serif" font-size="14.00"> v13 = *(v10)</text>
<text text-anchor="start" x="186" y="-621.3" font-family="Times,serif" font-size="14.00"> v12 = (v13 &#45; a2)</text>
<text text-anchor="start" x="186" y="-606.3" font-family="Times,serif" font-size="14.00"> g4 = v12</text>
</g>
<!-- Node0x20f3c050&#45;&gt;Node0x20f3c470 -->
<g id="edge30" class="edge"><title>Node0x20f3c050&#45;&gt;Node0x20f3c470</title>
<path fill="none" stroke="black" d="M434.561,-733.435C423.341,-728.042 411.451,-721.75 401,-715 388.738,-707.081 376.301,-697.648 364.79,-688.212"/>
<polygon fill="black" stroke="black" points="366.902,-685.416 356.982,-681.698 362.418,-690.791 366.902,-685.416"/>
<text text-anchor="middle" x="435.5" y="-703.8" font-family="Times,serif" font-size="14.00">v11 &gt;= 0</text>
</g>
<!-- Node0x20f39bf0 -->
<g id="node28" class="node"><title>Node0x20f39bf0</title>
<polygon fill="none" stroke="black" points="432,-433.5 432,-469.5 538,-469.5 538,-433.5 432,-433.5"/>
<text text-anchor="start" x="440" y="-447.8" font-family="Times,serif" font-size="14.00">result = v11</text>
</g>
<!-- Node0x20f3c050&#45;&gt;Node0x20f39bf0 -->
<g id="edge31" class="edge"><title>Node0x20f3c050&#45;&gt;Node0x20f39bf0</title>
<path fill="none" stroke="black" d="M477.488,-733.246C478.842,-682.637 482.651,-540.306 484.264,-480.026"/>
<polygon fill="black" stroke="black" points="487.769,-479.855 484.538,-469.765 480.772,-479.668 487.769,-479.855"/>
<text text-anchor="middle" x="509.5" y="-636.3" font-family="Times,serif" font-size="14.00">v11 &lt; 0</text>
</g>
<!-- Node0x20f3bb40&#45;&gt;Node0x106e3c80 -->
<g id="edge32" class="edge"><title>Node0x20f3bb40&#45;&gt;Node0x106e3c80</title>
<path fill="none" stroke="black" d="M545.119,-199.248C476.988,-152.433 395.19,-96.2271 350.395,-65.447"/>
<polygon fill="black" stroke="black" points="352.169,-62.419 341.945,-59.6403 348.204,-68.1883 352.169,-62.419"/>
</g>
<!-- Node0x20f3a270&#45;&gt;Node0x20f3aac0 -->
<g id="edge33" class="edge"><title>Node0x20f3a270&#45;&gt;Node0x20f3aac0</title>
<path fill="none" stroke="black" d="M798.386,-376.425C805.338,-371.426 811.727,-365.315 816,-358 845.698,-307.156 844.523,-237.8 838.999,-191.088"/>
<polygon fill="black" stroke="black" points="842.435,-190.364 837.683,-180.895 835.493,-191.261 842.435,-190.364"/>
</g>
<!-- Node0x20f3c520 -->
<g id="node29" class="node"><title>Node0x20f3c520</title>
<polygon fill="none" stroke="black" points="256,-488.5 256,-524.5 370,-524.5 370,-488.5 256,-488.5"/>
<text text-anchor="start" x="264" y="-502.8" font-family="Times,serif" font-size="14.00">if (v12 &gt;= 1):</text>
</g>
<!-- Node0x20f3c470&#45;&gt;Node0x20f3c520 -->
<g id="edge34" class="edge"><title>Node0x20f3c470&#45;&gt;Node0x20f3c520</title>
<path fill="none" stroke="black" d="M313,-598.473C313,-577.781 313,-553.162 313,-534.755"/>
<polygon fill="black" stroke="black" points="316.5,-534.712 313,-524.712 309.5,-534.712 316.5,-534.712"/>
</g>
<!-- Node0x20f39bf0&#45;&gt;Node0x20f3bae0 -->
<g id="edge35" class="edge"><title>Node0x20f39bf0&#45;&gt;Node0x20f3bae0</title>
<path fill="none" stroke="black" d="M486.87,-433.173C491.98,-382.197 503.887,-234.111 474,-199 446.356,-166.524 331.244,-151.223 256.04,-144.568"/>
<polygon fill="black" stroke="black" points="255.968,-141.049 245.706,-143.686 255.372,-148.024 255.968,-141.049"/>
</g>
<!-- Node0x20f39cc0 -->
<g id="node30" class="node"><title>Node0x20f39cc0</title>
<polygon fill="none" stroke="black" points="161,-199.5 161,-357.5 473,-357.5 473,-199.5 161,-199.5"/>
<text text-anchor="start" x="169" y="-342.3" font-family="Times,serif" font-size="14.00">0x8068f66:</text>
<text text-anchor="start" x="169" y="-327.3" font-family="Times,serif" font-size="14.00"> v15 = (v13 &#45; 1)</text>
<text text-anchor="start" x="169" y="-312.3" font-family="Times,serif" font-size="14.00"> g4 = v15</text>
<text text-anchor="start" x="169" y="-297.3" font-family="Times,serif" font-size="14.00"> *(v10) = v15</text>
<text text-anchor="start" x="169" y="-282.3" font-family="Times,serif" font-size="14.00"> v14 = g3</text>
<text text-anchor="start" x="169" y="-267.3" font-family="Times,serif" font-size="14.00"> *(IntToPtrCastExpr&lt;ptr&gt;((v13 &#45; 1))) = 2</text>
<text text-anchor="start" x="169" y="-252.3" font-family="Times,serif" font-size="14.00"> g3 = v3</text>
<text text-anchor="start" x="169" y="-237.3" font-family="Times,serif" font-size="14.00"> g7 = v4</text>
<text text-anchor="start" x="169" y="-222.3" font-family="Times,serif" font-size="14.00"> g5 = v2</text>
<text text-anchor="start" x="169" y="-207.3" font-family="Times,serif" font-size="14.00"> return ((v14 + 1) + v11)</text>
</g>
<!-- Node0x20f3c520&#45;&gt;Node0x20f39cc0 -->
<g id="edge36" class="edge"><title>Node0x20f3c520&#45;&gt;Node0x20f39cc0</title>
<path fill="none" stroke="black" d="M313.307,-488.141C313.763,-462.388 314.65,-412.291 315.44,-367.642"/>
<polygon fill="black" stroke="black" points="318.94,-367.678 315.617,-357.618 311.941,-367.554 318.94,-367.678"/>
<text text-anchor="middle" x="349.5" y="-447.8" font-family="Times,serif" font-size="14.00">v12 &gt;= 1</text>
</g>
<!-- Node0x20f3c800 -->
<g id="node31" class="node"><title>Node0x20f3c800</title>
<polygon fill="none" stroke="black" points="160,-376.5 160,-414.5 276,-414.5 276,-376.5 160,-376.5"/>
<text text-anchor="start" x="168" y="-399.3" font-family="Times,serif" font-size="14.00">0x8068f0a:</text>
<text text-anchor="start" x="168" y="-384.3" font-family="Times,serif" font-size="14.00"> result = &#45;108</text>
</g>
<!-- Node0x20f3c520&#45;&gt;Node0x20f3c800 -->
<g id="edge37" class="edge"><title>Node0x20f3c520&#45;&gt;Node0x20f3c800</title>
<path fill="none" stroke="black" d="M259.321,-488.465C250.538,-483.668 242.274,-477.61 236,-470 225.643,-457.439 221.096,-439.816 219.16,-424.975"/>
<polygon fill="black" stroke="black" points="222.619,-424.386 218.166,-414.772 215.652,-425.064 222.619,-424.386"/>
<text text-anchor="middle" x="264.5" y="-447.8" font-family="Times,serif" font-size="14.00">v12 &lt; 1</text>
</g>
<!-- Node0x20f39cc0&#45;&gt;Node0x106e3c80 -->
<g id="edge38" class="edge"><title>Node0x20f39cc0&#45;&gt;Node0x106e3c80</title>
<path fill="none" stroke="black" d="M317,-199.248C317,-154.579 317,-101.36 317,-69.8362"/>
<polygon fill="black" stroke="black" points="320.5,-69.6403 317,-59.6403 313.5,-69.6404 320.5,-69.6403"/>
</g>
<!-- Node0x20f3c800&#45;&gt;Node0x20f3bae0 -->
<g id="edge39" class="edge"><title>Node0x20f3c800&#45;&gt;Node0x20f3bae0</title>
<path fill="none" stroke="black" d="M177.307,-376.45C170.363,-371.495 164.083,-365.395 160,-358 125.839,-296.139 143.998,-267.831 160,-199 160.689,-196.038 161.548,-193.054 162.535,-190.084"/>
<polygon fill="black" stroke="black" points="165.823,-191.284 166.069,-180.692 159.271,-188.819 165.823,-191.284"/>
</g>
</g>
</svg>
