<?xml version="1.0" encoding="UTF-8" standalone="no"?>
<!DOCTYPE svg PUBLIC "-//W3C//DTD SVG 1.1//EN"
 "http://www.w3.org/Graphics/SVG/1.1/DTD/svg11.dtd">
<!-- Generated by graphviz version 2.38.0 (20140413.2041)
 -->
<!-- Title: Control&#45;flow graph for function &#39;ccm_aes_setkey_wrap(a1, a2, a3)&#39;. Pages: 1 -->
<svg width="504pt" height="293pt"
 viewBox="0.00 0.00 504.00 293.00" xmlns="http://www.w3.org/2000/svg" xmlns:xlink="http://www.w3.org/1999/xlink">
<g id="graph0" class="graph" transform="scale(1 1) rotate(0) translate(4 289)">
<title>Control&#45;flow graph for function &#39;ccm_aes_setkey_wrap(a1, a2, a3)&#39;.</title>
<polygon fill="white" stroke="none" points="-4,4 -4,-289 500,-289 500,4 -4,4"/>
<text text-anchor="middle" x="248" y="-7.8" font-family="Times,serif" font-size="14.00">Control&#45;flow graph for function &#39;ccm_aes_setkey_wrap(a1, a2, a3)&#39;.</text>
<!-- Node0x26ff43f0 -->
<g id="node1" class="node"><title>Node0x26ff43f0</title>
<polygon fill="none" stroke="black" points="218.5,-216.5 218.5,-284.5 277.5,-284.5 277.5,-216.5 218.5,-216.5"/>
<text text-anchor="start" x="226.5" y="-269.3" font-family="Times,serif" font-size="14.00">entry:</text>
<text text-anchor="start" x="226.5" y="-254.3" font-family="Times,serif" font-size="14.00"> a1</text>
<text text-anchor="start" x="226.5" y="-239.3" font-family="Times,serif" font-size="14.00"> a2</text>
<text text-anchor="start" x="226.5" y="-224.3" font-family="Times,serif" font-size="14.00"> a3</text>
</g>
<!-- Node0xd9fc810 -->
<g id="node2" class="node"><title>Node0xd9fc810</title>
<polygon fill="none" stroke="black" points="84,-96.5 84,-179.5 412,-179.5 412,-96.5 84,-96.5"/>
<text text-anchor="start" x="92" y="-164.3" font-family="Times,serif" font-size="14.00">result = mbedtls_ccm_setkey(a1, 2, a2, a3)</text>
<text text-anchor="start" x="92" y="-149.3" font-family="Times,serif" font-size="14.00"> g1 = result</text>
<text text-anchor="start" x="92" y="-134.3" font-family="Times,serif" font-size="14.00"> v1</text>
<text text-anchor="start" x="92" y="-119.3" font-family="Times,serif" font-size="14.00"> g2 = v1</text>
<text text-anchor="start" x="92" y="-104.3" font-family="Times,serif" font-size="14.00"> return result</text>
</g>
<!-- Node0x26ff43f0&#45;&gt;Node0xd9fc810 -->
<g id="edge1" class="edge"><title>Node0x26ff43f0&#45;&gt;Node0xd9fc810</title>
<path fill="none" stroke="black" d="M248,-216.346C248,-207.94 248,-198.717 248,-189.659"/>
<polygon fill="black" stroke="black" points="251.5,-189.555 248,-179.555 244.5,-189.555 251.5,-189.555"/>
</g>
<!-- Node0xd5e9230 -->
<g id="node3" class="node"><title>Node0xd5e9230</title>
<polygon fill="none" stroke="black" points="221,-23.5 221,-59.5 275,-59.5 275,-23.5 221,-23.5"/>
<text text-anchor="start" x="229" y="-37.8" font-family="Times,serif" font-size="14.00">exit:</text>
</g>
<!-- Node0xd9fc810&#45;&gt;Node0xd5e9230 -->
<g id="edge2" class="edge"><title>Node0xd9fc810&#45;&gt;Node0xd5e9230</title>
<path fill="none" stroke="black" d="M248,-96.3751C248,-87.4706 248,-78.246 248,-70"/>
<polygon fill="black" stroke="black" points="251.5,-69.8327 248,-59.8328 244.5,-69.8328 251.5,-69.8327"/>
</g>
</g>
</svg>
