<?xml version="1.0" encoding="UTF-8" standalone="no"?>
<!DOCTYPE svg PUBLIC "-//W3C//DTD SVG 1.1//EN"
 "http://www.w3.org/Graphics/SVG/1.1/DTD/svg11.dtd">
<!-- Generated by graphviz version 2.38.0 (20140413.2041)
 -->
<!-- Title: Control&#45;flow graph for function &#39;myrand(a1, a2)&#39;. Pages: 1 -->
<svg width="725pt" height="661pt"
 viewBox="0.00 0.00 725.00 661.00" xmlns="http://www.w3.org/2000/svg" xmlns:xlink="http://www.w3.org/1999/xlink">
<g id="graph0" class="graph" transform="scale(1 1) rotate(0) translate(4 657)">
<title>Control&#45;flow graph for function &#39;myrand(a1, a2)&#39;.</title>
<polygon fill="white" stroke="none" points="-4,4 -4,-657 721,-657 721,4 -4,4"/>
<text text-anchor="middle" x="358.5" y="-7.8" font-family="Times,serif" font-size="14.00">Control&#45;flow graph for function &#39;myrand(a1, a2)&#39;.</text>
<!-- Node0xb4cfcb0 -->
<g id="node1" class="node"><title>Node0xb4cfcb0</title>
<polygon fill="none" stroke="black" points="130.5,-599.5 130.5,-652.5 189.5,-652.5 189.5,-599.5 130.5,-599.5"/>
<text text-anchor="start" x="138.5" y="-637.3" font-family="Times,serif" font-size="14.00">entry:</text>
<text text-anchor="start" x="138.5" y="-622.3" font-family="Times,serif" font-size="14.00"> a1</text>
<text text-anchor="start" x="138.5" y="-607.3" font-family="Times,serif" font-size="14.00"> a2</text>
</g>
<!-- Node0xb4cfc00 -->
<g id="node2" class="node"><title>Node0xb4cfc00</title>
<polygon fill="none" stroke="black" points="111,-523.5 111,-561.5 209,-561.5 209,-523.5 111,-523.5"/>
<text text-anchor="start" x="119" y="-546.3" font-family="Times,serif" font-size="14.00">0x804f3b0:</text>
<text text-anchor="start" x="119" y="-531.3" font-family="Times,serif" font-size="14.00"> v1</text>
</g>
<!-- Node0xb4cfcb0&#45;&gt;Node0xb4cfc00 -->
<g id="edge1" class="edge"><title>Node0xb4cfcb0&#45;&gt;Node0xb4cfc00</title>
<path fill="none" stroke="black" d="M160,-599.213C160,-590.526 160,-580.787 160,-571.91"/>
<polygon fill="black" stroke="black" points="163.5,-571.638 160,-561.638 156.5,-571.638 163.5,-571.638"/>
</g>
<!-- Node0x2677d3b0 -->
<g id="node3" class="node"><title>Node0x2677d3b0</title>
<polygon fill="none" stroke="black" points="107.5,-449.5 107.5,-485.5 212.5,-485.5 212.5,-449.5 107.5,-449.5"/>
<text text-anchor="start" x="115.5" y="-463.8" font-family="Times,serif" font-size="14.00">if (v1 == 0):</text>
</g>
<!-- Node0xb4cfc00&#45;&gt;Node0x2677d3b0 -->
<g id="edge2" class="edge"><title>Node0xb4cfc00&#45;&gt;Node0x2677d3b0</title>
<path fill="none" stroke="black" d="M160,-523.455C160,-515.201 160,-505.238 160,-496.074"/>
<polygon fill="black" stroke="black" points="163.5,-495.835 160,-485.835 156.5,-495.835 163.5,-495.835"/>
</g>
<!-- Node0xb4d0540 -->
<g id="node4" class="node"><title>Node0xb4d0540</title>
<polygon fill="none" stroke="black" points="0,-272.5 0,-310.5 98,-310.5 98,-272.5 0,-272.5"/>
<text text-anchor="start" x="8" y="-295.3" font-family="Times,serif" font-size="14.00">0x804f3d7:</text>
<text text-anchor="start" x="8" y="-280.3" font-family="Times,serif" font-size="14.00"> return 0</text>
</g>
<!-- Node0x2677d3b0&#45;&gt;Node0xb4d0540 -->
<g id="edge3" class="edge"><title>Node0x2677d3b0&#45;&gt;Node0xb4d0540</title>
<path fill="none" stroke="black" d="M149.155,-449.499C129.793,-419.149 89.1468,-355.433 66.0291,-319.194"/>
<polygon fill="black" stroke="black" points="68.882,-317.158 60.553,-310.61 62.9805,-320.923 68.882,-317.158"/>
<text text-anchor="middle" x="167" y="-419.8" font-family="Times,serif" font-size="14.00">v1 == 0</text>
</g>
<!-- Node0xb4d0330 -->
<g id="node5" class="node"><title>Node0xb4d0330</title>
<polygon fill="none" stroke="black" points="130,-329.5 130,-397.5 656,-397.5 656,-329.5 130,-329.5"/>
<text text-anchor="start" x="138" y="-382.3" font-family="Times,serif" font-size="14.00">v2 = 0</text>
<text text-anchor="start" x="138" y="-367.3" font-family="Times,serif" font-size="14.00"> *(IntToPtrCastExpr&lt;ptr&gt;((v2 + a2))) = TruncCastExpr&lt;int8&gt;(rand())</text>
<text text-anchor="start" x="138" y="-352.3" font-family="Times,serif" font-size="14.00"> v3 = (v2 + 1)</text>
<text text-anchor="start" x="138" y="-337.3" font-family="Times,serif" font-size="14.00"> v2 = v3</text>
</g>
<!-- Node0x2677d3b0&#45;&gt;Node0xb4d0330 -->
<g id="edge4" class="edge"><title>Node0x2677d3b0&#45;&gt;Node0xb4d0330</title>
<path fill="none" stroke="black" d="M198.999,-449.427C228.737,-436.409 270.804,-417.993 308.169,-401.636"/>
<polygon fill="black" stroke="black" points="309.799,-404.743 317.556,-397.527 306.992,-398.331 309.799,-404.743"/>
<text text-anchor="middle" x="297" y="-419.8" font-family="Times,serif" font-size="14.00">v1 != 0</text>
</g>
<!-- Node0xb4d0100 -->
<g id="node6" class="node"><title>Node0xb4d0100</title>
<polygon fill="none" stroke="black" points="181,-23.5 181,-59.5 235,-59.5 235,-23.5 181,-23.5"/>
<text text-anchor="start" x="189" y="-37.8" font-family="Times,serif" font-size="14.00">exit:</text>
</g>
<!-- Node0xb4d0540&#45;&gt;Node0xb4d0100 -->
<g id="edge5" class="edge"><title>Node0xb4d0540&#45;&gt;Node0xb4d0100</title>
<path fill="none" stroke="black" d="M44.8067,-272.292C37.3836,-235.166 26.2106,-149.779 66,-97 90.6711,-64.2745 137.621,-51.1978 170.767,-45.9736"/>
<polygon fill="black" stroke="black" points="171.582,-49.3937 180.999,-44.5384 170.609,-42.4616 171.582,-49.3937"/>
</g>
<!-- Node0xb4d0420 -->
<g id="node7" class="node"><title>Node0xb4d0420</title>
<polygon fill="none" stroke="black" points="341,-217.5 341,-253.5 471,-253.5 471,-217.5 341,-217.5"/>
<text text-anchor="start" x="349" y="-231.8" font-family="Times,serif" font-size="14.00">while (v1 &gt; v3):</text>
</g>
<!-- Node0xb4d0330&#45;&gt;Node0xb4d0420 -->
<g id="edge6" class="edge"><title>Node0xb4d0330&#45;&gt;Node0xb4d0420</title>
<path fill="none" stroke="black" d="M396.416,-329.395C398.526,-308.942 401.201,-283.017 403.188,-263.755"/>
<polygon fill="black" stroke="black" points="406.696,-263.853 404.241,-253.546 399.733,-263.134 406.696,-263.853"/>
</g>
<!-- Node0xb4cfb80 -->
<g id="node8" class="node"><title>Node0xb4cfb80</title>
<polygon fill="none" stroke="black" points="75,-97.5 75,-165.5 601,-165.5 601,-97.5 75,-97.5"/>
<text text-anchor="start" x="83" y="-150.3" font-family="Times,serif" font-size="14.00">0x804f3c8:</text>
<text text-anchor="start" x="83" y="-135.3" font-family="Times,serif" font-size="14.00"> *(IntToPtrCastExpr&lt;ptr&gt;((v2 + a2))) = TruncCastExpr&lt;int8&gt;(rand())</text>
<text text-anchor="start" x="83" y="-120.3" font-family="Times,serif" font-size="14.00"> v3 = (v2 + 1)</text>
<text text-anchor="start" x="83" y="-105.3" font-family="Times,serif" font-size="14.00"> v2 = v3</text>
</g>
<!-- Node0xb4d0420&#45;&gt;Node0xb4cfb80 -->
<g id="edge7" class="edge"><title>Node0xb4d0420&#45;&gt;Node0xb4cfb80</title>
<path fill="none" stroke="black" d="M356.046,-217.405C348.46,-212.626 341.631,-206.59 337,-199 332.772,-192.069 330.941,-183.929 330.511,-175.767"/>
<polygon fill="black" stroke="black" points="334.014,-175.549 330.639,-165.506 327.015,-175.461 334.014,-175.549"/>
<text text-anchor="middle" x="365" y="-187.8" font-family="Times,serif" font-size="14.00">v1 &gt; v3</text>
</g>
<!-- Node0xb4d0910 -->
<g id="node9" class="node"><title>Node0xb4d0910</title>
<polygon fill="none" stroke="black" points="619,-112.5 619,-150.5 717,-150.5 717,-112.5 619,-112.5"/>
<text text-anchor="start" x="627" y="-135.3" font-family="Times,serif" font-size="14.00">0x804f3d7:</text>
<text text-anchor="start" x="627" y="-120.3" font-family="Times,serif" font-size="14.00"> return 0</text>
</g>
<!-- Node0xb4d0420&#45;&gt;Node0xb4d0910 -->
<g id="edge8" class="edge"><title>Node0xb4d0420&#45;&gt;Node0xb4d0910</title>
<path fill="none" stroke="black" d="M467.469,-217.367C508.605,-205.056 563.516,-186.974 610,-166 616.777,-162.942 623.787,-159.322 630.49,-155.611"/>
<polygon fill="black" stroke="black" points="632.435,-158.531 639.391,-150.539 628.97,-152.449 632.435,-158.531"/>
<text text-anchor="middle" x="600" y="-187.8" font-family="Times,serif" font-size="14.00">v1 &lt;= v3</text>
</g>
<!-- Node0xb4cfb80&#45;&gt;Node0xb4d0420 -->
<g id="edge9" class="edge"><title>Node0xb4cfb80&#45;&gt;Node0xb4d0420</title>
<path fill="none" stroke="black" d="M378.867,-165.555C384.192,-171.261 389.131,-177.473 393,-184 397.173,-191.039 400.02,-199.404 401.957,-207.279"/>
<polygon fill="black" stroke="black" points="398.556,-208.118 404.014,-217.199 405.41,-206.697 398.556,-208.118"/>
</g>
<!-- Node0xb4d0910&#45;&gt;Node0xb4d0100 -->
<g id="edge10" class="edge"><title>Node0xb4d0910&#45;&gt;Node0xb4d0100</title>
<path fill="none" stroke="black" d="M641.605,-112.355C632.036,-106.576 620.894,-100.722 610,-97 481.313,-53.0275 318.056,-44.3829 245.586,-42.7896"/>
<polygon fill="black" stroke="black" points="245.224,-39.2824 235.16,-42.5962 245.094,-46.2812 245.224,-39.2824"/>
</g>
</g>
</svg>
