<?xml version="1.0" encoding="UTF-8" standalone="no"?>
<!DOCTYPE svg PUBLIC "-//W3C//DTD SVG 1.1//EN"
 "http://www.w3.org/Graphics/SVG/1.1/DTD/svg11.dtd">
<!-- Generated by graphviz version 2.38.0 (20140413.2041)
 -->
<!-- Title: Control&#45;flow graph for function &#39;mbedtls_asn1_get_alg(*a1, a2, *a3, *a4)&#39;. Pages: 1 -->
<svg width="1379pt" height="1895pt"
 viewBox="0.00 0.00 1378.50 1895.00" xmlns="http://www.w3.org/2000/svg" xmlns:xlink="http://www.w3.org/1999/xlink">
<g id="graph0" class="graph" transform="scale(1 1) rotate(0) translate(4 1891)">
<title>Control&#45;flow graph for function &#39;mbedtls_asn1_get_alg(*a1, a2, *a3, *a4)&#39;.</title>
<polygon fill="white" stroke="none" points="-4,4 -4,-1891 1374.5,-1891 1374.5,4 -4,4"/>
<text text-anchor="middle" x="685.25" y="-7.8" font-family="Times,serif" font-size="14.00">Control&#45;flow graph for function &#39;mbedtls_asn1_get_alg(*a1, a2, *a3, *a4)&#39;.</text>
<!-- Node0xdce1970 -->
<g id="node1" class="node"><title>Node0xdce1970</title>
<polygon fill="none" stroke="black" points="258,-1803.5 258,-1886.5 317,-1886.5 317,-1803.5 258,-1803.5"/>
<text text-anchor="start" x="266" y="-1871.3" font-family="Times,serif" font-size="14.00">entry:</text>
<text text-anchor="start" x="266" y="-1856.3" font-family="Times,serif" font-size="14.00"> a1</text>
<text text-anchor="start" x="266" y="-1841.3" font-family="Times,serif" font-size="14.00"> a2</text>
<text text-anchor="start" x="266" y="-1826.3" font-family="Times,serif" font-size="14.00"> a3</text>
<text text-anchor="start" x="266" y="-1811.3" font-family="Times,serif" font-size="14.00"> a4</text>
</g>
<!-- Node0xdce2ff0 -->
<g id="node2" class="node"><title>Node0xdce2ff0</title>
<polygon fill="none" stroke="black" points="0,-1637.5 0,-1765.5 575,-1765.5 575,-1637.5 0,-1637.5"/>
<text text-anchor="start" x="8" y="-1750.3" font-family="Times,serif" font-size="14.00">v1 = g3</text>
<text text-anchor="start" x="8" y="-1735.3" font-family="Times,serif" font-size="14.00"> g3 = PtrToIntCastExpr&lt;int32&gt;(a1)</text>
<text text-anchor="start" x="8" y="-1720.3" font-family="Times,serif" font-size="14.00"> v2 = g7</text>
<text text-anchor="start" x="8" y="-1705.3" font-family="Times,serif" font-size="14.00"> g7 = a2</text>
<text text-anchor="start" x="8" y="-1690.3" font-family="Times,serif" font-size="14.00"> v3 = g5</text>
<text text-anchor="start" x="8" y="-1675.3" font-family="Times,serif" font-size="14.00"> g5 = PtrToIntCastExpr&lt;int32&gt;(a3)</text>
<text text-anchor="start" x="8" y="-1660.3" font-family="Times,serif" font-size="14.00"> v4</text>
<text text-anchor="start" x="8" y="-1645.3" font-family="Times,serif" font-size="14.00"> result = mbedtls_asn1_get_tag(a1, a2, PtrToIntCastExpr&lt;int32&gt;(&amp;(v4)), 48)</text>
</g>
<!-- Node0xdce1970&#45;&gt;Node0xdce2ff0 -->
<g id="edge1" class="edge"><title>Node0xdce1970&#45;&gt;Node0xdce2ff0</title>
<path fill="none" stroke="black" d="M287.5,-1803.45C287.5,-1794.82 287.5,-1785.44 287.5,-1776"/>
<polygon fill="black" stroke="black" points="291,-1775.76 287.5,-1765.76 284,-1775.76 291,-1775.76"/>
</g>
<!-- Node0xdce2e00 -->
<g id="node3" class="node"><title>Node0xdce2e00</title>
<polygon fill="none" stroke="black" points="225.5,-1563.5 225.5,-1599.5 349.5,-1599.5 349.5,-1563.5 225.5,-1563.5"/>
<text text-anchor="start" x="233.5" y="-1577.8" font-family="Times,serif" font-size="14.00">if (result != 0):</text>
</g>
<!-- Node0xdce2ff0&#45;&gt;Node0xdce2e00 -->
<g id="edge2" class="edge"><title>Node0xdce2ff0&#45;&gt;Node0xdce2e00</title>
<path fill="none" stroke="black" d="M287.5,-1637.35C287.5,-1627.75 287.5,-1618.3 287.5,-1610.02"/>
<polygon fill="black" stroke="black" points="291,-1609.89 287.5,-1599.89 284,-1609.89 291,-1609.89"/>
</g>
<!-- Node0x99a06d0 -->
<g id="node4" class="node"><title>Node0x99a06d0</title>
<polygon fill="none" stroke="black" points="164,-1356.5 164,-1439.5 277,-1439.5 277,-1356.5 164,-1356.5"/>
<text text-anchor="start" x="172" y="-1424.3" font-family="Times,serif" font-size="14.00">0x8056017:</text>
<text text-anchor="start" x="172" y="-1409.3" font-family="Times,serif" font-size="14.00"> g3 = v1</text>
<text text-anchor="start" x="172" y="-1394.3" font-family="Times,serif" font-size="14.00"> g7 = v2</text>
<text text-anchor="start" x="172" y="-1379.3" font-family="Times,serif" font-size="14.00"> g5 = v3</text>
<text text-anchor="start" x="172" y="-1364.3" font-family="Times,serif" font-size="14.00"> return result</text>
</g>
<!-- Node0xdce2e00&#45;&gt;Node0x99a06d0 -->
<g id="edge3" class="edge"><title>Node0xdce2e00&#45;&gt;Node0x99a06d0</title>
<path fill="none" stroke="black" d="M259.073,-1563.37C252.688,-1558.23 246.598,-1552.06 242.5,-1545 225.858,-1516.35 220.413,-1479.41 219.101,-1449.85"/>
<polygon fill="black" stroke="black" points="222.596,-1449.63 218.797,-1439.74 215.599,-1449.84 222.596,-1449.63"/>
<text text-anchor="middle" x="282" y="-1533.8" font-family="Times,serif" font-size="14.00">result != 0</text>
</g>
<!-- Node0xdce33f0 -->
<g id="node5" class="node"><title>Node0xdce33f0</title>
<polygon fill="none" stroke="black" points="249,-1458.5 249,-1511.5 524,-1511.5 524,-1458.5 249,-1458.5"/>
<text text-anchor="start" x="257" y="-1496.3" font-family="Times,serif" font-size="14.00">v5 = *(IntToPtrCastExpr&lt;ptr&gt;(g3))</text>
<text text-anchor="start" x="257" y="-1481.3" font-family="Times,serif" font-size="14.00"> g6 = v5</text>
<text text-anchor="start" x="257" y="-1466.3" font-family="Times,serif" font-size="14.00"> result2 = &#45;96</text>
</g>
<!-- Node0xdce2e00&#45;&gt;Node0xdce33f0 -->
<g id="edge4" class="edge"><title>Node0xdce2e00&#45;&gt;Node0xdce33f0</title>
<path fill="none" stroke="black" d="M305.658,-1563.17C318.61,-1550.8 336.426,-1533.8 352.037,-1518.9"/>
<polygon fill="black" stroke="black" points="354.676,-1521.22 359.493,-1511.78 349.843,-1516.15 354.676,-1521.22"/>
<text text-anchor="middle" x="383" y="-1533.8" font-family="Times,serif" font-size="14.00">result == 0</text>
</g>
<!-- Node0xdce2f70 -->
<g id="node6" class="node"><title>Node0xdce2f70</title>
<polygon fill="none" stroke="black" points="318.5,-23.5 318.5,-59.5 372.5,-59.5 372.5,-23.5 318.5,-23.5"/>
<text text-anchor="start" x="326.5" y="-37.8" font-family="Times,serif" font-size="14.00">exit:</text>
</g>
<!-- Node0x99a06d0&#45;&gt;Node0xdce2f70 -->
<g id="edge5" class="edge"><title>Node0x99a06d0&#45;&gt;Node0xdce2f70</title>
<path fill="none" stroke="black" d="M220.5,-1356.28C220.5,-1332.93 220.5,-1303.07 220.5,-1276.5 220.5,-1276.5 220.5,-1276.5 220.5,-138 220.5,-93.125 271.998,-66.5124 308.885,-53.2062"/>
<polygon fill="black" stroke="black" points="310.051,-56.5066 318.377,-49.9543 307.782,-49.8844 310.051,-56.5066"/>
</g>
<!-- Node0xdce3450 -->
<g id="node7" class="node"><title>Node0xdce3450</title>
<polygon fill="none" stroke="black" points="313,-1301.5 313,-1337.5 460,-1337.5 460,-1301.5 313,-1301.5"/>
<text text-anchor="start" x="321" y="-1315.8" font-family="Times,serif" font-size="14.00">if ((g7 &#45; v5) &gt;= 1):</text>
</g>
<!-- Node0xdce33f0&#45;&gt;Node0xdce3450 -->
<g id="edge6" class="edge"><title>Node0xdce33f0&#45;&gt;Node0xdce3450</title>
<path fill="none" stroke="black" d="M386.5,-1458.45C386.5,-1428.41 386.5,-1378.72 386.5,-1347.9"/>
<polygon fill="black" stroke="black" points="390,-1347.84 386.5,-1337.84 383,-1347.84 390,-1347.84"/>
</g>
<!-- Node0xdce3ad0 -->
<g id="node8" class="node"><title>Node0xdce3ad0</title>
<polygon fill="none" stroke="black" points="332,-1151.5 332,-1249.5 977,-1249.5 977,-1151.5 332,-1151.5"/>
<text text-anchor="start" x="340" y="-1234.3" font-family="Times,serif" font-size="14.00">0x8056035:</text>
<text text-anchor="start" x="340" y="-1219.3" font-family="Times,serif" font-size="14.00"> *(IntToPtrCastExpr&lt;ptr&gt;(g5)) = ExtCastExpr&lt;int32&gt;(*(IntToPtrCastExpr&lt;ptr&gt;(v5)))</text>
<text text-anchor="start" x="340" y="-1204.3" font-family="Times,serif" font-size="14.00"> v6 = (g6 + v4)</text>
<text text-anchor="start" x="340" y="-1189.3" font-family="Times,serif" font-size="14.00"> g7 = v6</text>
<text text-anchor="start" x="340" y="-1174.3" font-family="Times,serif" font-size="14.00"> v7 = mbedtls_asn1_get_tag(IntToPtrCastExpr&lt;ptr&gt;(g3), v6, (g5 + 4), 6)</text>
<text text-anchor="start" x="340" y="-1159.3" font-family="Times,serif" font-size="14.00"> result2 = v7</text>
</g>
<!-- Node0xdce3450&#45;&gt;Node0xdce3ad0 -->
<g id="edge7" class="edge"><title>Node0xdce3450&#45;&gt;Node0xdce3ad0</title>
<path fill="none" stroke="black" d="M425.47,-1301.49C454.433,-1288.84 495.599,-1270.87 535.061,-1253.64"/>
<polygon fill="black" stroke="black" points="536.747,-1256.73 544.512,-1249.52 533.946,-1250.31 536.747,-1256.73"/>
<text text-anchor="middle" x="547.5" y="-1271.8" font-family="Times,serif" font-size="14.00">(g7 &#45; v5) &gt;= 1</text>
</g>
<!-- Node0xdce3600 -->
<g id="node9" class="node"><title>Node0xdce3600</title>
<polygon fill="none" stroke="black" points="248.5,-928.5 248.5,-1011.5 370.5,-1011.5 370.5,-928.5 248.5,-928.5"/>
<text text-anchor="start" x="256.5" y="-996.3" font-family="Times,serif" font-size="14.00">0x8056017:</text>
<text text-anchor="start" x="256.5" y="-981.3" font-family="Times,serif" font-size="14.00"> g3 = v1</text>
<text text-anchor="start" x="256.5" y="-966.3" font-family="Times,serif" font-size="14.00"> g7 = v2</text>
<text text-anchor="start" x="256.5" y="-951.3" font-family="Times,serif" font-size="14.00"> g5 = v3</text>
<text text-anchor="start" x="256.5" y="-936.3" font-family="Times,serif" font-size="14.00"> return result2</text>
</g>
<!-- Node0xdce3450&#45;&gt;Node0xdce3600 -->
<g id="edge8" class="edge"><title>Node0xdce3450&#45;&gt;Node0xdce3600</title>
<path fill="none" stroke="black" d="M364.177,-1301.36C349.752,-1288.86 332.118,-1270.56 323.5,-1250 292.199,-1175.31 295.774,-1079.36 302.046,-1021.66"/>
<polygon fill="black" stroke="black" points="305.526,-1022.03 303.197,-1011.69 298.572,-1021.22 305.526,-1022.03"/>
<text text-anchor="middle" x="344.5" y="-1121.8" font-family="Times,serif" font-size="14.00">(g7 &#45; v5) &lt; 1</text>
</g>
<!-- Node0xdce3e20 -->
<g id="node10" class="node"><title>Node0xdce3e20</title>
<polygon fill="none" stroke="black" points="598,-1063.5 598,-1099.5 703,-1099.5 703,-1063.5 598,-1063.5"/>
<text text-anchor="start" x="606" y="-1077.8" font-family="Times,serif" font-size="14.00">if (v7 == 0):</text>
</g>
<!-- Node0xdce3ad0&#45;&gt;Node0xdce3e20 -->
<g id="edge9" class="edge"><title>Node0xdce3ad0&#45;&gt;Node0xdce3e20</title>
<path fill="none" stroke="black" d="M652.85,-1151.24C652.367,-1137.12 651.856,-1122.18 651.435,-1109.85"/>
<polygon fill="black" stroke="black" points="654.93,-1109.64 651.09,-1099.77 647.934,-1109.88 654.93,-1109.64"/>
</g>
<!-- Node0xdce3600&#45;&gt;Node0xdce2f70 -->
<g id="edge10" class="edge"><title>Node0xdce3600&#45;&gt;Node0xdce2f70</title>
<path fill="none" stroke="black" d="M293.951,-928.241C288.867,-911.531 284.5,-891.838 284.5,-873.5 284.5,-873.5 284.5,-873.5 284.5,-138 284.5,-110.874 302.196,-85.264 318.525,-67.4064"/>
<polygon fill="black" stroke="black" points="321.459,-69.4053 325.863,-59.7695 316.411,-64.5552 321.459,-69.4053"/>
</g>
<!-- Node0xdce3e20&#45;&gt;Node0xdce3600 -->
<g id="edge12" class="edge"><title>Node0xdce3e20&#45;&gt;Node0xdce3600</title>
<path fill="none" stroke="black" d="M597.892,-1071.6C542.469,-1061.22 453.301,-1041.59 380.5,-1012 380.294,-1011.92 380.088,-1011.83 379.882,-1011.75"/>
<polygon fill="black" stroke="black" points="381.11,-1008.46 370.548,-1007.63 378.285,-1014.87 381.11,-1008.46"/>
<text text-anchor="middle" x="502.5" y="-1033.8" font-family="Times,serif" font-size="14.00">v7 != 0</text>
</g>
<!-- Node0xdce4030 -->
<g id="node11" class="node"><title>Node0xdce4030</title>
<polygon fill="none" stroke="black" points="389.5,-928.5 389.5,-1011.5 911.5,-1011.5 911.5,-928.5 389.5,-928.5"/>
<text text-anchor="start" x="397.5" y="-996.3" font-family="Times,serif" font-size="14.00">0x805605e:</text>
<text text-anchor="start" x="397.5" y="-981.3" font-family="Times,serif" font-size="14.00"> *(IntToPtrCastExpr&lt;ptr&gt;((g5 + 8))) = *(IntToPtrCastExpr&lt;ptr&gt;(g3))</text>
<text text-anchor="start" x="397.5" y="-966.3" font-family="Times,serif" font-size="14.00"> v8 = IntToPtrCastExpr&lt;ptr&gt;(g3)</text>
<text text-anchor="start" x="397.5" y="-951.3" font-family="Times,serif" font-size="14.00"> v9 = (*(IntToPtrCastExpr&lt;ptr&gt;((g5 + 4))) + *(v8))</text>
<text text-anchor="start" x="397.5" y="-936.3" font-family="Times,serif" font-size="14.00"> *(v8) = v9</text>
</g>
<!-- Node0xdce3e20&#45;&gt;Node0xdce4030 -->
<g id="edge11" class="edge"><title>Node0xdce3e20&#45;&gt;Node0xdce4030</title>
<path fill="none" stroke="black" d="M650.5,-1063.39C650.5,-1052.15 650.5,-1036.81 650.5,-1021.85"/>
<polygon fill="black" stroke="black" points="654,-1021.62 650.5,-1011.62 647,-1021.62 654,-1021.62"/>
<text text-anchor="middle" x="680.5" y="-1033.8" font-family="Times,serif" font-size="14.00">v7 == 0</text>
</g>
<!-- Node0xdce4090 -->
<g id="node12" class="node"><title>Node0xdce4090</title>
<polygon fill="none" stroke="black" points="593.5,-854.5 593.5,-890.5 707.5,-890.5 707.5,-854.5 593.5,-854.5"/>
<text text-anchor="start" x="601.5" y="-868.8" font-family="Times,serif" font-size="14.00">if (g7 == v9):</text>
</g>
<!-- Node0xdce4030&#45;&gt;Node0xdce4090 -->
<g id="edge13" class="edge"><title>Node0xdce4030&#45;&gt;Node0xdce4090</title>
<path fill="none" stroke="black" d="M650.5,-928.499C650.5,-919.206 650.5,-909.537 650.5,-900.946"/>
<polygon fill="black" stroke="black" points="654,-900.749 650.5,-890.749 647,-900.749 654,-900.749"/>
</g>
<!-- Node0xdce3950 -->
<g id="node13" class="node"><title>Node0xdce3950</title>
<polygon fill="none" stroke="black" points="345,-704.5 345,-802.5 626,-802.5 626,-704.5 345,-704.5"/>
<text text-anchor="start" x="353" y="-787.3" font-family="Times,serif" font-size="14.00">v10 = PtrToIntCastExpr&lt;int32&gt;(a4)</text>
<text text-anchor="start" x="353" y="-772.3" font-family="Times,serif" font-size="14.00"> g6 = v10</text>
<text text-anchor="start" x="353" y="-757.3" font-family="Times,serif" font-size="14.00"> g4 = (v10 + 12)</text>
<text text-anchor="start" x="353" y="-742.3" font-family="Times,serif" font-size="14.00"> *(IntToPtrCastExpr&lt;ptr&gt;(v10)) = 0</text>
<text text-anchor="start" x="353" y="-727.3" font-family="Times,serif" font-size="14.00"> v11 = (g6 + 1)</text>
<text text-anchor="start" x="353" y="-712.3" font-family="Times,serif" font-size="14.00"> g6 = v11</text>
</g>
<!-- Node0xdce4090&#45;&gt;Node0xdce3950 -->
<g id="edge14" class="edge"><title>Node0xdce4090&#45;&gt;Node0xdce3950</title>
<path fill="none" stroke="black" d="M626.508,-854.487C609.318,-842.298 585.146,-825.158 561.663,-808.506"/>
<polygon fill="black" stroke="black" points="563.58,-805.575 553.398,-802.646 559.531,-811.285 563.58,-805.575"/>
<text text-anchor="middle" x="631" y="-824.8" font-family="Times,serif" font-size="14.00">g7 == v9</text>
</g>
<!-- Node0xdce41e0 -->
<g id="node14" class="node"><title>Node0xdce41e0</title>
<polygon fill="none" stroke="black" points="644.5,-704.5 644.5,-802.5 1370.5,-802.5 1370.5,-704.5 644.5,-704.5"/>
<text text-anchor="start" x="652.5" y="-787.3" font-family="Times,serif" font-size="14.00">v12 = PtrToIntCastExpr&lt;int32&gt;(a4)</text>
<text text-anchor="start" x="652.5" y="-772.3" font-family="Times,serif" font-size="14.00"> v13 = IntToPtrCastExpr&lt;ptr&gt;(g3)</text>
<text text-anchor="start" x="652.5" y="-757.3" font-family="Times,serif" font-size="14.00"> *(v13) = (*(v13) + 1)</text>
<text text-anchor="start" x="652.5" y="-742.3" font-family="Times,serif" font-size="14.00"> *(IntToPtrCastExpr&lt;ptr&gt;(v12)) = ExtCastExpr&lt;int32&gt;(*(IntToPtrCastExpr&lt;ptr&gt;(v9)))</text>
<text text-anchor="start" x="652.5" y="-727.3" font-family="Times,serif" font-size="14.00"> v14 = mbedtls_asn1_get_len(IntToPtrCastExpr&lt;ptr&gt;(g3), g7, IntToPtrCastExpr&lt;ptr&gt;((v12 + 4)))</text>
<text text-anchor="start" x="652.5" y="-712.3" font-family="Times,serif" font-size="14.00"> result2 = v14</text>
</g>
<!-- Node0xdce4090&#45;&gt;Node0xdce41e0 -->
<g id="edge15" class="edge"><title>Node0xdce4090&#45;&gt;Node0xdce41e0</title>
<path fill="none" stroke="black" d="M702.411,-854.487C741.725,-841.603 797.918,-823.187 851.388,-805.663"/>
<polygon fill="black" stroke="black" points="852.573,-808.958 860.986,-802.517 850.393,-802.306 852.573,-808.958"/>
<text text-anchor="middle" x="828" y="-824.8" font-family="Times,serif" font-size="14.00">g7 != v9</text>
</g>
<!-- Node0xdce4a00 -->
<g id="node15" class="node"><title>Node0xdce4a00</title>
<polygon fill="none" stroke="black" points="412.5,-630.5 412.5,-666.5 558.5,-666.5 558.5,-630.5 412.5,-630.5"/>
<text text-anchor="start" x="420.5" y="-644.8" font-family="Times,serif" font-size="14.00">while (v11 != g4):</text>
</g>
<!-- Node0xdce3950&#45;&gt;Node0xdce4a00 -->
<g id="edge16" class="edge"><title>Node0xdce3950&#45;&gt;Node0xdce4a00</title>
<path fill="none" stroke="black" d="M485.5,-704.317C485.5,-694.893 485.5,-685.32 485.5,-676.868"/>
<polygon fill="black" stroke="black" points="489,-676.856 485.5,-666.856 482,-676.856 489,-676.856"/>
</g>
<!-- Node0xdce4240 -->
<g id="node16" class="node"><title>Node0xdce4240</title>
<polygon fill="none" stroke="black" points="949.5,-630.5 949.5,-666.5 1063.5,-666.5 1063.5,-630.5 949.5,-630.5"/>
<text text-anchor="start" x="957.5" y="-644.8" font-family="Times,serif" font-size="14.00">if (v14 == 0):</text>
</g>
<!-- Node0xdce41e0&#45;&gt;Node0xdce4240 -->
<g id="edge17" class="edge"><title>Node0xdce41e0&#45;&gt;Node0xdce4240</title>
<path fill="none" stroke="black" d="M1007.03,-704.317C1006.94,-694.893 1006.85,-685.32 1006.77,-676.868"/>
<polygon fill="black" stroke="black" points="1010.27,-676.822 1006.67,-666.856 1003.27,-676.89 1010.27,-676.822"/>
</g>
<!-- Node0xdce5490 -->
<g id="node17" class="node"><title>Node0xdce5490</title>
<polygon fill="none" stroke="black" points="313,-488 313,-556 592,-556 592,-488 313,-488"/>
<text text-anchor="start" x="321" y="-540.8" font-family="Times,serif" font-size="14.00">0x80560b8:</text>
<text text-anchor="start" x="321" y="-525.8" font-family="Times,serif" font-size="14.00"> *(IntToPtrCastExpr&lt;ptr&gt;(v11)) = 0</text>
<text text-anchor="start" x="321" y="-510.8" font-family="Times,serif" font-size="14.00"> v11 = (g6 + 1)</text>
<text text-anchor="start" x="321" y="-495.8" font-family="Times,serif" font-size="14.00"> g6 = v11</text>
</g>
<!-- Node0xdce4a00&#45;&gt;Node0xdce5490 -->
<g id="edge18" class="edge"><title>Node0xdce4a00&#45;&gt;Node0xdce5490</title>
<path fill="none" stroke="black" d="M480.981,-630.45C476.603,-613.933 469.783,-588.205 463.915,-566.065"/>
<polygon fill="black" stroke="black" points="467.243,-564.961 461.298,-556.191 460.477,-566.754 467.243,-564.961"/>
<text text-anchor="middle" x="512.5" y="-600.8" font-family="Times,serif" font-size="14.00">v11 != g4</text>
</g>
<!-- Node0xdce3d10 -->
<g id="node18" class="node"><title>Node0xdce3d10</title>
<polygon fill="none" stroke="black" points="429.5,-363.5 429.5,-446.5 551.5,-446.5 551.5,-363.5 429.5,-363.5"/>
<text text-anchor="start" x="437.5" y="-431.3" font-family="Times,serif" font-size="14.00">0x8056017:</text>
<text text-anchor="start" x="437.5" y="-416.3" font-family="Times,serif" font-size="14.00"> g3 = v1</text>
<text text-anchor="start" x="437.5" y="-401.3" font-family="Times,serif" font-size="14.00"> g7 = v2</text>
<text text-anchor="start" x="437.5" y="-386.3" font-family="Times,serif" font-size="14.00"> g5 = v3</text>
<text text-anchor="start" x="437.5" y="-371.3" font-family="Times,serif" font-size="14.00"> return result2</text>
</g>
<!-- Node0xdce4a00&#45;&gt;Node0xdce3d10 -->
<g id="edge19" class="edge"><title>Node0xdce4a00&#45;&gt;Node0xdce3d10</title>
<path fill="none" stroke="black" d="M538.98,-630.483C562.876,-619.82 588.535,-603.363 601.5,-579 625.303,-534.272 627.598,-508.428 601.5,-465 592.062,-449.296 576.877,-437.546 560.729,-428.847"/>
<polygon fill="black" stroke="black" points="562.198,-425.668 551.689,-424.322 559.065,-431.928 562.198,-425.668"/>
<text text-anchor="middle" x="626.5" y="-600.8" font-family="Times,serif" font-size="14.00">v11 == g4</text>
</g>
<!-- Node0xdce5140 -->
<g id="node19" class="node"><title>Node0xdce5140</title>
<polygon fill="none" stroke="black" points="741.5,-465.5 741.5,-578.5 1271.5,-578.5 1271.5,-465.5 741.5,-465.5"/>
<text text-anchor="start" x="749.5" y="-563.3" font-family="Times,serif" font-size="14.00">0x8056092:</text>
<text text-anchor="start" x="749.5" y="-548.3" font-family="Times,serif" font-size="14.00"> g4 = v12</text>
<text text-anchor="start" x="749.5" y="-533.3" font-family="Times,serif" font-size="14.00"> *(IntToPtrCastExpr&lt;ptr&gt;((v12 + 8))) = *(IntToPtrCastExpr&lt;ptr&gt;(g3))</text>
<text text-anchor="start" x="749.5" y="-518.3" font-family="Times,serif" font-size="14.00"> v15 = IntToPtrCastExpr&lt;ptr&gt;(g3)</text>
<text text-anchor="start" x="749.5" y="-503.3" font-family="Times,serif" font-size="14.00"> v16 = (*(IntToPtrCastExpr&lt;ptr&gt;((g4 + 4))) + *(v15))</text>
<text text-anchor="start" x="749.5" y="-488.3" font-family="Times,serif" font-size="14.00"> *(v15) = v16</text>
<text text-anchor="start" x="749.5" y="-473.3" font-family="Times,serif" font-size="14.00"> g6 = &#45;102</text>
</g>
<!-- Node0xdce4240&#45;&gt;Node0xdce5140 -->
<g id="edge20" class="edge"><title>Node0xdce4240&#45;&gt;Node0xdce5140</title>
<path fill="none" stroke="black" d="M1006.5,-630.45C1006.5,-619.415 1006.5,-604.268 1006.5,-588.826"/>
<polygon fill="black" stroke="black" points="1010,-588.677 1006.5,-578.677 1003,-588.677 1010,-588.677"/>
<text text-anchor="middle" x="1041" y="-600.8" font-family="Times,serif" font-size="14.00">v14 == 0</text>
</g>
<!-- Node0xdce4530 -->
<g id="node20" class="node"><title>Node0xdce4530</title>
<polygon fill="none" stroke="black" points="675.5,-97.5 675.5,-180.5 797.5,-180.5 797.5,-97.5 675.5,-97.5"/>
<text text-anchor="start" x="683.5" y="-165.3" font-family="Times,serif" font-size="14.00">0x8056017:</text>
<text text-anchor="start" x="683.5" y="-150.3" font-family="Times,serif" font-size="14.00"> g3 = v1</text>
<text text-anchor="start" x="683.5" y="-135.3" font-family="Times,serif" font-size="14.00"> g7 = v2</text>
<text text-anchor="start" x="683.5" y="-120.3" font-family="Times,serif" font-size="14.00"> g5 = v3</text>
<text text-anchor="start" x="683.5" y="-105.3" font-family="Times,serif" font-size="14.00"> return result2</text>
</g>
<!-- Node0xdce4240&#45;&gt;Node0xdce4530 -->
<g id="edge21" class="edge"><title>Node0xdce4240&#45;&gt;Node0xdce4530</title>
<path fill="none" stroke="black" d="M949.22,-639.722C878.52,-629.038 763.787,-607.818 732.5,-579 713.168,-561.194 713.5,-549.282 713.5,-523 713.5,-523 713.5,-523 713.5,-236.5 713.5,-221.387 716.202,-205.297 719.754,-190.674"/>
<polygon fill="black" stroke="black" points="723.189,-191.376 722.327,-180.816 716.415,-189.608 723.189,-191.376"/>
<text text-anchor="middle" x="745" y="-322.8" font-family="Times,serif" font-size="14.00">v14 != 0</text>
</g>
<!-- Node0xdce5490&#45;&gt;Node0xdce4a00 -->
<g id="edge22" class="edge"><title>Node0xdce5490&#45;&gt;Node0xdce4a00</title>
<path fill="none" stroke="black" d="M456.912,-556.005C459.653,-572.975 463.764,-593.851 469.5,-612 470.447,-614.997 471.578,-618.077 472.795,-621.11"/>
<polygon fill="black" stroke="black" points="469.669,-622.698 476.854,-630.484 476.092,-619.917 469.669,-622.698"/>
</g>
<!-- Node0xdce3d10&#45;&gt;Node0xdce2f70 -->
<g id="edge23" class="edge"><title>Node0xdce3d10&#45;&gt;Node0xdce2f70</title>
<path fill="none" stroke="black" d="M444.078,-363.479C424.651,-342.018 406.5,-313.847 406.5,-283.5 406.5,-283.5 406.5,-283.5 406.5,-138 406.5,-110.874 388.804,-85.264 372.475,-67.4064"/>
<polygon fill="black" stroke="black" points="374.589,-64.5552 365.137,-59.7695 369.541,-69.4053 374.589,-64.5552"/>
</g>
<!-- Node0xdce53a0 -->
<g id="node21" class="node"><title>Node0xdce53a0</title>
<polygon fill="none" stroke="black" points="875,-308.5 875,-344.5 992,-344.5 992,-308.5 875,-308.5"/>
<text text-anchor="start" x="883" y="-322.8" font-family="Times,serif" font-size="14.00">if (g7 != v16):</text>
</g>
<!-- Node0xdce5140&#45;&gt;Node0xdce53a0 -->
<g id="edge24" class="edge"><title>Node0xdce5140&#45;&gt;Node0xdce53a0</title>
<path fill="none" stroke="black" d="M985.483,-465.291C971.753,-428.898 954.435,-382.993 943.663,-354.44"/>
<polygon fill="black" stroke="black" points="946.814,-352.876 940.01,-344.755 940.265,-355.347 946.814,-352.876"/>
</g>
<!-- Node0xdce4530&#45;&gt;Node0xdce2f70 -->
<g id="edge25" class="edge"><title>Node0xdce4530&#45;&gt;Node0xdce2f70</title>
<path fill="none" stroke="black" d="M675.406,-123.078C593.28,-103.019 449.819,-67.9795 382.44,-51.5225"/>
<polygon fill="black" stroke="black" points="383.229,-48.1123 372.684,-49.1396 381.568,-54.9124 383.229,-48.1123"/>
</g>
<!-- Node0xdce53a0&#45;&gt;Node0xdce4530 -->
<g id="edge27" class="edge"><title>Node0xdce53a0&#45;&gt;Node0xdce4530</title>
<path fill="none" stroke="black" d="M874.752,-314.421C839.593,-304.876 796.613,-287.601 769.5,-257 753.358,-238.781 745.062,-213.23 740.82,-190.651"/>
<polygon fill="black" stroke="black" points="744.23,-189.817 739.142,-180.524 737.324,-190.961 744.23,-189.817"/>
<text text-anchor="middle" x="808.5" y="-233.8" font-family="Times,serif" font-size="14.00">g7 == v16</text>
</g>
<!-- Node0x15c30b10 -->
<g id="node22" class="node"><title>Node0x15c30b10</title>
<polygon fill="none" stroke="black" points="856,-218.5 856,-256.5 1011,-256.5 1011,-218.5 856,-218.5"/>
<text text-anchor="start" x="864" y="-241.3" font-family="Times,serif" font-size="14.00">if_80560a8_0_true:</text>
<text text-anchor="start" x="864" y="-226.3" font-family="Times,serif" font-size="14.00"> result2 = &#45;102</text>
</g>
<!-- Node0xdce53a0&#45;&gt;Node0x15c30b10 -->
<g id="edge26" class="edge"><title>Node0xdce53a0&#45;&gt;Node0x15c30b10</title>
<path fill="none" stroke="black" d="M933.5,-308.312C933.5,-296.511 933.5,-280.572 933.5,-266.904"/>
<polygon fill="black" stroke="black" points="937,-266.551 933.5,-256.551 930,-266.551 937,-266.551"/>
<text text-anchor="middle" x="969.5" y="-278.8" font-family="Times,serif" font-size="14.00">g7 != v16</text>
</g>
<!-- Node0x15c30b10&#45;&gt;Node0xdce4530 -->
<g id="edge28" class="edge"><title>Node0x15c30b10&#45;&gt;Node0xdce4530</title>
<path fill="none" stroke="black" d="M896.446,-218.349C871.295,-206.029 837.245,-189.35 807.025,-174.547"/>
<polygon fill="black" stroke="black" points="808.304,-171.276 797.784,-170.02 805.224,-177.562 808.304,-171.276"/>
</g>
</g>
</svg>
