<?xml version="1.0" encoding="UTF-8" standalone="no"?>
<!DOCTYPE svg PUBLIC "-//W3C//DTD SVG 1.1//EN"
 "http://www.w3.org/Graphics/SVG/1.1/DTD/svg11.dtd">
<!-- Generated by graphviz version 2.38.0 (20140413.2041)
 -->
<!-- Title: Control&#45;flow graph for function &#39;encrypt_directory(*a1)&#39;. Pages: 1 -->
<svg width="2246pt" height="2868pt"
 viewBox="0.00 0.00 2245.50 2868.00" xmlns="http://www.w3.org/2000/svg" xmlns:xlink="http://www.w3.org/1999/xlink">
<g id="graph0" class="graph" transform="scale(1 1) rotate(0) translate(4 2864)">
<title>Control&#45;flow graph for function &#39;encrypt_directory(*a1)&#39;.</title>
<polygon fill="white" stroke="none" points="-4,4 -4,-2864 2241.5,-2864 2241.5,4 -4,4"/>
<text text-anchor="middle" x="1118.75" y="-7.8" font-family="Times,serif" font-size="14.00">Control&#45;flow graph for function &#39;encrypt_directory(*a1)&#39;.</text>
<!-- Node0x163ab520 -->
<g id="node1" class="node"><title>Node0x163ab520</title>
<polygon fill="none" stroke="black" points="460.5,-2821.5 460.5,-2859.5 519.5,-2859.5 519.5,-2821.5 460.5,-2821.5"/>
<text text-anchor="start" x="468.5" y="-2844.3" font-family="Times,serif" font-size="14.00">entry:</text>
<text text-anchor="start" x="468.5" y="-2829.3" font-family="Times,serif" font-size="14.00"> a1</text>
</g>
<!-- Node0x163adeb0 -->
<g id="node2" class="node"><title>Node0x163adeb0</title>
<polygon fill="none" stroke="black" points="351.5,-2700.5 351.5,-2783.5 628.5,-2783.5 628.5,-2700.5 351.5,-2700.5"/>
<text text-anchor="start" x="359.5" y="-2768.3" font-family="Times,serif" font-size="14.00">v1 = g5</text>
<text text-anchor="start" x="359.5" y="-2753.3" font-family="Times,serif" font-size="14.00"> v2 = g7</text>
<text text-anchor="start" x="359.5" y="-2738.3" font-family="Times,serif" font-size="14.00"> v3 = g3</text>
<text text-anchor="start" x="359.5" y="-2723.3" font-family="Times,serif" font-size="14.00"> g3 = PtrToIntCastExpr&lt;int32&gt;(a1)</text>
<text text-anchor="start" x="359.5" y="-2708.3" font-family="Times,serif" font-size="14.00"> v4 = checkExclude(a1)</text>
</g>
<!-- Node0x163ab520&#45;&gt;Node0x163adeb0 -->
<g id="edge1" class="edge"><title>Node0x163ab520&#45;&gt;Node0x163adeb0</title>
<path fill="none" stroke="black" d="M490,-2821.35C490,-2813.49 490,-2803.85 490,-2794.06"/>
<polygon fill="black" stroke="black" points="493.5,-2793.87 490,-2783.87 486.5,-2793.87 493.5,-2793.87"/>
</g>
<!-- Node0x163ae040 -->
<g id="node3" class="node"><title>Node0x163ae040</title>
<polygon fill="none" stroke="black" points="440.5,-2626.5 440.5,-2662.5 539.5,-2662.5 539.5,-2626.5 440.5,-2626.5"/>
<text text-anchor="start" x="448.5" y="-2640.8" font-family="Times,serif" font-size="14.00">if (v4 != 0):</text>
</g>
<!-- Node0x163adeb0&#45;&gt;Node0x163ae040 -->
<g id="edge2" class="edge"><title>Node0x163adeb0&#45;&gt;Node0x163ae040</title>
<path fill="none" stroke="black" d="M490,-2700.5C490,-2691.21 490,-2681.54 490,-2672.95"/>
<polygon fill="black" stroke="black" points="493.5,-2672.75 490,-2662.75 486.5,-2672.75 493.5,-2672.75"/>
</g>
<!-- Node0xff46d90 -->
<g id="node4" class="node"><title>Node0xff46d90</title>
<polygon fill="none" stroke="black" points="0,-2239.5 0,-2322.5 272,-2322.5 272,-2239.5 0,-2239.5"/>
<text text-anchor="start" x="8" y="-2307.3" font-family="Times,serif" font-size="14.00">0x804908f:</text>
<text text-anchor="start" x="8" y="-2292.3" font-family="Times,serif" font-size="14.00"> g3 = v3</text>
<text text-anchor="start" x="8" y="-2277.3" font-family="Times,serif" font-size="14.00"> g7 = v2</text>
<text text-anchor="start" x="8" y="-2262.3" font-family="Times,serif" font-size="14.00"> g5 = v1</text>
<text text-anchor="start" x="8" y="-2247.3" font-family="Times,serif" font-size="14.00"> return IntToPtrCastExpr&lt;ptr&gt;(v4)</text>
</g>
<!-- Node0x163ae040&#45;&gt;Node0xff46d90 -->
<g id="edge3" class="edge"><title>Node0x163ae040&#45;&gt;Node0xff46d90</title>
<path fill="none" stroke="black" d="M472.926,-2626.06C420.88,-2572.92 262.925,-2411.61 183.159,-2330.16"/>
<polygon fill="black" stroke="black" points="185.187,-2327.23 175.69,-2322.53 180.186,-2332.12 185.187,-2327.23"/>
<text text-anchor="middle" x="481" y="-2596.8" font-family="Times,serif" font-size="14.00">v4 != 0</text>
</g>
<!-- Node0x28d55f00 -->
<g id="node5" class="node"><title>Node0x28d55f00</title>
<polygon fill="none" stroke="black" points="930,-2341.5 930,-2574.5 1516,-2574.5 1516,-2341.5 930,-2341.5"/>
<text text-anchor="start" x="938" y="-2559.3" font-family="Times,serif" font-size="14.00">mem = malloc(4096)</text>
<text text-anchor="start" x="938" y="-2544.3" font-family="Times,serif" font-size="14.00"> strcpy(mem, IntToPtrCastExpr&lt;ptr&gt;(g3))</text>
<text text-anchor="start" x="938" y="-2529.3" font-family="Times,serif" font-size="14.00"> v5 = g194</text>
<text text-anchor="start" x="938" y="-2514.3" font-family="Times,serif" font-size="14.00"> v6 = PtrToIntCastExpr&lt;int32&gt;(g193)</text>
<text text-anchor="start" x="938" y="-2499.3" font-family="Times,serif" font-size="14.00"> *(IntToPtrCastExpr&lt;ptr&gt;((v6 + (4 * v5)))) = PtrToIntCastExpr&lt;int32&gt;(mem)</text>
<text text-anchor="start" x="938" y="-2484.3" font-family="Times,serif" font-size="14.00"> g194 = (v5 + 1)</text>
<text text-anchor="start" x="938" y="-2469.3" font-family="Times,serif" font-size="14.00"> v7 = PtrToIntCastExpr&lt;int32&gt;(BitCastExpr&lt;ptr&gt;(mem))</text>
<text text-anchor="start" x="938" y="-2454.3" font-family="Times,serif" font-size="14.00"> g7 = PtrToIntCastExpr&lt;int32&gt;(IntToPtrCastExpr&lt;ptr&gt;(v6))</text>
<text text-anchor="start" x="938" y="-2439.3" font-family="Times,serif" font-size="14.00"> g193 = BitCastExpr&lt;ptr&gt;(realloc(IntToPtrCastExpr&lt;ptr&gt;(v6), ((4 * v5) + 8)))</text>
<text text-anchor="start" x="938" y="-2424.3" font-family="Times,serif" font-size="14.00"> v8</text>
<text text-anchor="start" x="938" y="-2409.3" font-family="Times,serif" font-size="14.00"> v9</text>
<text text-anchor="start" x="938" y="-2394.3" font-family="Times,serif" font-size="14.00"> v10</text>
<text text-anchor="start" x="938" y="-2379.3" font-family="Times,serif" font-size="14.00"> setChmod(IntToPtrCastExpr&lt;ptr&gt;(g3), 4, v10, v9, v8, 0)</text>
<text text-anchor="start" x="938" y="-2364.3" font-family="Times,serif" font-size="14.00"> dirp = opendir(IntToPtrCastExpr&lt;ptr&gt;(g3))</text>
<text text-anchor="start" x="938" y="-2349.3" font-family="Times,serif" font-size="14.00"> v11</text>
</g>
<!-- Node0x163ae040&#45;&gt;Node0x28d55f00 -->
<g id="edge4" class="edge"><title>Node0x163ae040&#45;&gt;Node0x28d55f00</title>
<path fill="none" stroke="black" d="M539.519,-2631.04C617.643,-2611.37 775.489,-2571.64 919.823,-2535.31"/>
<polygon fill="black" stroke="black" points="920.906,-2538.65 929.749,-2532.81 919.197,-2531.86 920.906,-2538.65"/>
<text text-anchor="middle" x="717" y="-2596.8" font-family="Times,serif" font-size="14.00">v4 == 0</text>
</g>
<!-- Node0x163ade50 -->
<g id="node6" class="node"><title>Node0x163ade50</title>
<polygon fill="none" stroke="black" points="842,-23.5 842,-59.5 896,-59.5 896,-23.5 842,-23.5"/>
<text text-anchor="start" x="850" y="-37.8" font-family="Times,serif" font-size="14.00">exit:</text>
</g>
<!-- Node0xff46d90&#45;&gt;Node0x163ade50 -->
<g id="edge5" class="edge"><title>Node0xff46d90&#45;&gt;Node0x163ade50</title>
<path fill="none" stroke="black" d="M102.313,-2239.34C86.8948,-2216.69 72,-2187.13 72,-2157.5 72,-2157.5 72,-2157.5 72,-138 72,-60.5205 673.464,-45.5857 831.394,-42.9996"/>
<polygon fill="black" stroke="black" points="831.622,-46.4966 841.565,-42.8403 831.512,-39.4974 831.622,-46.4966"/>
</g>
<!-- Node0x28d571e0 -->
<g id="node7" class="node"><title>Node0x28d571e0</title>
<polygon fill="none" stroke="black" points="1310,-2182.5 1310,-2220.5 1456,-2220.5 1456,-2182.5 1310,-2182.5"/>
<text text-anchor="start" x="1318" y="-2205.3" font-family="Times,serif" font-size="14.00">if (dirp != NULL):</text>
<text text-anchor="start" x="1318" y="-2190.3" font-family="Times,serif" font-size="14.00"> else:</text>
</g>
<!-- Node0x28d55f00&#45;&gt;Node0x28d571e0 -->
<g id="edge6" class="edge"><title>Node0x28d55f00&#45;&gt;Node0x28d571e0</title>
<path fill="none" stroke="black" d="M1295.74,-2341.29C1322,-2299.53 1349.3,-2256.1 1366.23,-2229.18"/>
<polygon fill="black" stroke="black" points="1369.19,-2231.04 1371.55,-2220.71 1363.26,-2227.32 1369.19,-2231.04"/>
</g>
<!-- Node0x28d57490 -->
<g id="node8" class="node"><title>Node0x28d57490</title>
<polygon fill="none" stroke="black" points="1293.5,-1987.5 1293.5,-2130.5 1472.5,-2130.5 1472.5,-1987.5 1293.5,-1987.5"/>
<text text-anchor="start" x="1301.5" y="-2115.3" font-family="Times,serif" font-size="14.00">0x8048f27:</text>
<text text-anchor="start" x="1301.5" y="-2100.3" font-family="Times,serif" font-size="14.00"> v12</text>
<text text-anchor="start" x="1301.5" y="-2085.3" font-family="Times,serif" font-size="14.00"> g7 = &amp;(v12)</text>
<text text-anchor="start" x="1301.5" y="-2070.3" font-family="Times,serif" font-size="14.00"> str2</text>
<text text-anchor="start" x="1301.5" y="-2055.3" font-family="Times,serif" font-size="14.00"> v13 = &amp;(str2)</text>
<text text-anchor="start" x="1301.5" y="-2040.3" font-family="Times,serif" font-size="14.00"> v14 = readdir64(dirp)</text>
<text text-anchor="start" x="1301.5" y="-2025.3" font-family="Times,serif" font-size="14.00"> v15</text>
<text text-anchor="start" x="1301.5" y="-2010.3" font-family="Times,serif" font-size="14.00"> v16</text>
<text text-anchor="start" x="1301.5" y="-1995.3" font-family="Times,serif" font-size="14.00"> str3</text>
</g>
<!-- Node0x28d571e0&#45;&gt;Node0x28d57490 -->
<g id="edge7" class="edge"><title>Node0x28d571e0&#45;&gt;Node0x28d57490</title>
<path fill="none" stroke="black" d="M1383,-2182.42C1383,-2171.42 1383,-2156.5 1383,-2140.86"/>
<polygon fill="black" stroke="black" points="1386.5,-2140.52 1383,-2130.52 1379.5,-2140.52 1386.5,-2140.52"/>
<text text-anchor="middle" x="1433" y="-2152.8" font-family="Times,serif" font-size="14.00">dirp != NULL</text>
</g>
<!-- Node0x163ad9f0 -->
<g id="node9" class="node"><title>Node0x163ad9f0</title>
<polygon fill="none" stroke="black" points="1834.5,-1932.5 1834.5,-1968.5 1907.5,-1968.5 1907.5,-1932.5 1834.5,-1932.5"/>
<text text-anchor="start" x="1842.5" y="-1946.8" font-family="Times,serif" font-size="14.00">v11 = 0</text>
</g>
<!-- Node0x28d571e0&#45;&gt;Node0x163ad9f0 -->
<g id="edge8" class="edge"><title>Node0x28d571e0&#45;&gt;Node0x163ad9f0</title>
<path fill="none" stroke="black" d="M1439.81,-2182.5C1455.32,-2177.06 1471.98,-2170.73 1487,-2164 1619.8,-2104.46 1768.21,-2015.46 1835,-1974.12"/>
<polygon fill="black" stroke="black" points="1837.23,-1976.86 1843.88,-1968.61 1833.53,-1970.91 1837.23,-1976.86"/>
<text text-anchor="middle" x="1570" y="-2152.8" font-family="Times,serif" font-size="14.00">dirp == NULL</text>
</g>
<!-- Node0x28d57600 -->
<g id="node10" class="node"><title>Node0x28d57600</title>
<polygon fill="none" stroke="black" points="1311.5,-1877.5 1311.5,-1913.5 1454.5,-1913.5 1454.5,-1877.5 1311.5,-1877.5"/>
<text text-anchor="start" x="1319.5" y="-1891.8" font-family="Times,serif" font-size="14.00">if (v14 != NULL):</text>
</g>
<!-- Node0x28d57490&#45;&gt;Node0x28d57600 -->
<g id="edge9" class="edge"><title>Node0x28d57490&#45;&gt;Node0x28d57600</title>
<path fill="none" stroke="black" d="M1383,-1987.16C1383,-1964.7 1383,-1941.21 1383,-1923.76"/>
<polygon fill="black" stroke="black" points="1386.5,-1923.75 1383,-1913.75 1379.5,-1923.75 1386.5,-1923.75"/>
</g>
<!-- Node0x28d57430 -->
<g id="node11" class="node"><title>Node0x28d57430</title>
<polygon fill="none" stroke="black" points="1956.5,-1775.5 1956.5,-1858.5 2237.5,-1858.5 2237.5,-1775.5 1956.5,-1775.5"/>
<text text-anchor="start" x="1964.5" y="-1843.3" font-family="Times,serif" font-size="14.00">0x804908f:</text>
<text text-anchor="start" x="1964.5" y="-1828.3" font-family="Times,serif" font-size="14.00"> g3 = v3</text>
<text text-anchor="start" x="1964.5" y="-1813.3" font-family="Times,serif" font-size="14.00"> g7 = v2</text>
<text text-anchor="start" x="1964.5" y="-1798.3" font-family="Times,serif" font-size="14.00"> g5 = v1</text>
<text text-anchor="start" x="1964.5" y="-1783.3" font-family="Times,serif" font-size="14.00"> return IntToPtrCastExpr&lt;ptr&gt;(v11)</text>
</g>
<!-- Node0x163ad9f0&#45;&gt;Node0x28d57430 -->
<g id="edge10" class="edge"><title>Node0x163ad9f0&#45;&gt;Node0x28d57430</title>
<path fill="none" stroke="black" d="M1900.55,-1932.31C1930.31,-1914.99 1977.52,-1887.52 2018.2,-1863.85"/>
<polygon fill="black" stroke="black" points="2020.16,-1866.76 2027.04,-1858.7 2016.64,-1860.71 2020.16,-1866.76"/>
</g>
<!-- Node0x163ad960 -->
<g id="node12" class="node"><title>Node0x163ad960</title>
<polygon fill="none" stroke="black" points="1299,-1720.5 1299,-1756.5 1589,-1756.5 1589,-1720.5 1299,-1720.5"/>
<text text-anchor="start" x="1307" y="-1734.8" font-family="Times,serif" font-size="14.00">v17 = PtrToIntCastExpr&lt;int32&gt;(v14)</text>
</g>
<!-- Node0x28d57600&#45;&gt;Node0x163ad960 -->
<g id="edge11" class="edge"><title>Node0x28d57600&#45;&gt;Node0x163ad960</title>
<path fill="none" stroke="black" d="M1389.76,-1877.32C1400.34,-1850.44 1420.9,-1798.21 1433.44,-1766.33"/>
<polygon fill="black" stroke="black" points="1436.8,-1767.34 1437.21,-1756.76 1430.29,-1764.78 1436.8,-1767.34"/>
<text text-anchor="middle" x="1477.5" y="-1813.3" font-family="Times,serif" font-size="14.00">v14 != NULL</text>
</g>
<!-- Node0x28d57730 -->
<g id="node13" class="node"><title>Node0x28d57730</title>
<polygon fill="none" stroke="black" points="623.5,-1663.5 623.5,-1701.5 788.5,-1701.5 788.5,-1663.5 623.5,-1663.5"/>
<text text-anchor="start" x="631.5" y="-1686.3" font-family="Times,serif" font-size="14.00">0x804904a:</text>
<text text-anchor="start" x="631.5" y="-1671.3" font-family="Times,serif" font-size="14.00"> v15 = closedir(dirp)</text>
</g>
<!-- Node0x28d57600&#45;&gt;Node0x28d57730 -->
<g id="edge12" class="edge"><title>Node0x28d57600&#45;&gt;Node0x28d57730</title>
<path fill="none" stroke="black" d="M1328.17,-1877.41C1205.33,-1839.13 908.315,-1746.56 773.989,-1704.69"/>
<polygon fill="black" stroke="black" points="774.803,-1701.28 764.215,-1701.64 772.72,-1707.96 774.803,-1701.28"/>
<text text-anchor="middle" x="1312.5" y="-1813.3" font-family="Times,serif" font-size="14.00">v14 == NULL</text>
</g>
<!-- Node0x28d57430&#45;&gt;Node0x163ade50 -->
<g id="edge13" class="edge"><title>Node0x28d57430&#45;&gt;Node0x163ade50</title>
<path fill="none" stroke="black" d="M2114.05,-1775.29C2123.36,-1749.47 2133,-1715.08 2133,-1683.5 2133,-1683.5 2133,-1683.5 2133,-138 2133,-74.831 1115.97,-48.147 906.466,-43.3203"/>
<polygon fill="black" stroke="black" points="906.357,-39.817 896.28,-43.0882 906.198,-46.8152 906.357,-39.817"/>
</g>
<!-- Node0x163ae2f0 -->
<g id="node14" class="node"><title>Node0x163ae2f0</title>
<polygon fill="none" stroke="black" points="1407.5,-1608.5 1407.5,-1644.5 1504.5,-1644.5 1504.5,-1608.5 1407.5,-1608.5"/>
<text text-anchor="start" x="1415.5" y="-1622.8" font-family="Times,serif" font-size="14.00">while True:</text>
</g>
<!-- Node0x163ad960&#45;&gt;Node0x163ae2f0 -->
<g id="edge14" class="edge"><title>Node0x163ad960&#45;&gt;Node0x163ae2f0</title>
<path fill="none" stroke="black" d="M1445.88,-1720.31C1447.79,-1702.71 1450.81,-1675.11 1453.05,-1654.57"/>
<polygon fill="black" stroke="black" points="1456.53,-1654.89 1454.14,-1644.57 1449.57,-1654.13 1456.53,-1654.89"/>
</g>
<!-- Node0xb9113b0 -->
<g id="node15" class="node"><title>Node0xb9113b0</title>
<polygon fill="none" stroke="black" points="100,-510.5 100,-546.5 214,-546.5 214,-510.5 100,-510.5"/>
<text text-anchor="start" x="108" y="-524.8" font-family="Times,serif" font-size="14.00">if (v15 == 0):</text>
</g>
<!-- Node0x28d57730&#45;&gt;Node0xb9113b0 -->
<g id="edge15" class="edge"><title>Node0x28d57730&#45;&gt;Node0xb9113b0</title>
<path fill="none" stroke="black" d="M623.442,-1676.36C459.81,-1665.07 110,-1634.91 110,-1583.5 110,-1583.5 110,-1583.5 110,-610 110,-589.381 121.641,-569.347 133.336,-554.422"/>
<polygon fill="black" stroke="black" points="136.067,-556.613 139.766,-546.685 130.683,-552.139 136.067,-556.613"/>
</g>
<!-- Node0x28d56de0 -->
<g id="node16" class="node"><title>Node0x28d56de0</title>
<polygon fill="none" stroke="black" points="1389,-1518.5 1389,-1556.5 1523,-1556.5 1523,-1518.5 1389,-1518.5"/>
<text text-anchor="start" x="1397" y="-1541.3" font-family="Times,serif" font-size="14.00">str = (v17 + 19)</text>
<text text-anchor="start" x="1397" y="-1526.3" font-family="Times,serif" font-size="14.00"> g5 = str</text>
</g>
<!-- Node0x163ae2f0&#45;&gt;Node0x28d56de0 -->
<g id="edge16" class="edge"><title>Node0x163ae2f0&#45;&gt;Node0x28d56de0</title>
<path fill="none" stroke="black" d="M1456,-1608.31C1456,-1596.51 1456,-1580.57 1456,-1566.9"/>
<polygon fill="black" stroke="black" points="1459.5,-1566.55 1456,-1556.55 1452.5,-1566.55 1459.5,-1566.55"/>
<text text-anchor="middle" x="1473" y="-1578.8" font-family="Times,serif" font-size="14.00">True</text>
</g>
<!-- Node0x28d578f0 -->
<g id="node17" class="node"><title>Node0x28d578f0</title>
<polygon fill="none" stroke="black" points="399.5,-405.5 399.5,-458.5 556.5,-458.5 556.5,-405.5 399.5,-405.5"/>
<text text-anchor="start" x="407.5" y="-443.3" font-family="Times,serif" font-size="14.00">0x804905f:</text>
<text text-anchor="start" x="407.5" y="-428.3" font-family="Times,serif" font-size="14.00"> if (g195 != NULL):</text>
<text text-anchor="start" x="407.5" y="-413.3" font-family="Times,serif" font-size="14.00"> else:</text>
</g>
<!-- Node0xb9113b0&#45;&gt;Node0x28d578f0 -->
<g id="edge17" class="edge"><title>Node0xb9113b0&#45;&gt;Node0x28d578f0</title>
<path fill="none" stroke="black" d="M214.018,-510.714C262.626,-496.404 333.308,-475.596 389.303,-459.112"/>
<polygon fill="black" stroke="black" points="390.618,-462.373 399.223,-456.192 388.641,-455.658 390.618,-462.373"/>
<text text-anchor="middle" x="362.5" y="-480.8" font-family="Times,serif" font-size="14.00">v15 == 0</text>
</g>
<!-- Node0x163ac570 -->
<g id="node18" class="node"><title>Node0x163ac570</title>
<polygon fill="none" stroke="black" points="91,-350.5 91,-386.5 181,-386.5 181,-350.5 91,-350.5"/>
<text text-anchor="start" x="99" y="-364.8" font-family="Times,serif" font-size="14.00">v11 = v15</text>
</g>
<!-- Node0xb9113b0&#45;&gt;Node0x163ac570 -->
<g id="edge18" class="edge"><title>Node0xb9113b0&#45;&gt;Node0x163ac570</title>
<path fill="none" stroke="black" d="M154.713,-510.29C151.083,-482.985 143.974,-429.494 139.639,-396.88"/>
<polygon fill="black" stroke="black" points="143.072,-396.14 138.285,-386.688 136.133,-397.062 143.072,-396.14"/>
<text text-anchor="middle" x="184.5" y="-480.8" font-family="Times,serif" font-size="14.00">v15 != 0</text>
</g>
<!-- Node0x3cc6760 -->
<g id="node19" class="node"><title>Node0x3cc6760</title>
<polygon fill="none" stroke="black" points="1129,-1442.5 1129,-1480.5 1783,-1480.5 1783,-1442.5 1129,-1442.5"/>
<text text-anchor="start" x="1137" y="-1465.3" font-family="Times,serif" font-size="14.00">if ((ExtCastExpr&lt;int32&gt;(*(IntToPtrCastExpr&lt;ptr&gt;((v17 + 18)))) or (v17 &amp; &#45;256)) == 4):</text>
<text text-anchor="start" x="1137" y="-1450.3" font-family="Times,serif" font-size="14.00"> else:</text>
</g>
<!-- Node0x28d56de0&#45;&gt;Node0x3cc6760 -->
<g id="edge19" class="edge"><title>Node0x28d56de0&#45;&gt;Node0x3cc6760</title>
<path fill="none" stroke="black" d="M1456,-1518.21C1456,-1509.96 1456,-1500.04 1456,-1490.86"/>
<polygon fill="black" stroke="black" points="1459.5,-1490.58 1456,-1480.58 1452.5,-1490.58 1459.5,-1490.58"/>
</g>
<!-- Node0x28d58d90 -->
<g id="node20" class="node"><title>Node0x28d58d90</title>
<polygon fill="none" stroke="black" points="158,-218.5 158,-331.5 798,-331.5 798,-218.5 158,-218.5"/>
<text text-anchor="start" x="166" y="-316.3" font-family="Times,serif" font-size="14.00">0x8049068:</text>
<text text-anchor="start" x="166" y="-301.3" font-family="Times,serif" font-size="14.00"> str3 = g3</text>
<text text-anchor="start" x="166" y="-286.3" font-family="Times,serif" font-size="14.00"> g3 = v13</text>
<text text-anchor="start" x="166" y="-271.3" font-family="Times,serif" font-size="14.00"> strcpy(BitCastExpr&lt;ptr&gt;(&amp;(str2)), IntToPtrCastExpr&lt;ptr&gt;(str3))</text>
<text text-anchor="start" x="166" y="-256.3" font-family="Times,serif" font-size="14.00"> strcat(IntToPtrCastExpr&lt;ptr&gt;(g3), &quot;/README_FOR_DECRYPT.txt&quot;)</text>
<text text-anchor="start" x="166" y="-241.3" font-family="Times,serif" font-size="14.00"> v16 = putReadme(g3, PtrToIntCastExpr&lt;int32&gt;(&quot;/README_FOR_DECRYPT.txt&quot;), v7)</text>
<text text-anchor="start" x="166" y="-226.3" font-family="Times,serif" font-size="14.00"> v11 = PtrToIntCastExpr&lt;int32&gt;(v16)</text>
</g>
<!-- Node0x28d578f0&#45;&gt;Node0x28d58d90 -->
<g id="edge20" class="edge"><title>Node0x28d578f0&#45;&gt;Node0x28d58d90</title>
<path fill="none" stroke="black" d="M478,-405.405C478,-388.031 478,-364.217 478,-341.751"/>
<polygon fill="black" stroke="black" points="481.5,-341.551 478,-331.552 474.5,-341.552 481.5,-341.551"/>
<text text-anchor="middle" x="531.5" y="-364.8" font-family="Times,serif" font-size="14.00">g195 != NULL</text>
</g>
<!-- Node0x28d58df0 -->
<g id="node21" class="node"><title>Node0x28d58df0</title>
<polygon fill="none" stroke="black" points="816.5,-257 816.5,-293 889.5,-293 889.5,-257 816.5,-257"/>
<text text-anchor="start" x="824.5" y="-271.3" font-family="Times,serif" font-size="14.00">v11 = 0</text>
</g>
<!-- Node0x28d578f0&#45;&gt;Node0x28d58df0 -->
<g id="edge21" class="edge"><title>Node0x28d578f0&#45;&gt;Node0x28d58df0</title>
<path fill="none" stroke="black" d="M556.661,-420.631C627.025,-408.412 730.555,-382.931 807,-332 818.897,-324.074 829.295,-312.151 837.181,-301.342"/>
<polygon fill="black" stroke="black" points="840.135,-303.224 842.948,-293.009 834.379,-299.24 840.135,-303.224"/>
<text text-anchor="middle" x="832.5" y="-364.8" font-family="Times,serif" font-size="14.00">g195 == NULL</text>
</g>
<!-- Node0x163ac570&#45;&gt;Node0x163ade50 -->
<g id="edge22" class="edge"><title>Node0x163ac570&#45;&gt;Node0x163ade50</title>
<path fill="none" stroke="black" d="M131.807,-350.379C125.447,-319.915 117.208,-255.942 149,-218 238.906,-110.701 696.2,-59.0093 831.341,-45.9179"/>
<polygon fill="black" stroke="black" points="831.976,-49.3733 841.598,-44.9389 831.311,-42.405 831.976,-49.3733"/>
</g>
<!-- Node0x28d58f40 -->
<g id="node22" class="node"><title>Node0x28d58f40</title>
<polygon fill="none" stroke="black" points="648.5,-1352.5 648.5,-1390.5 1031.5,-1390.5 1031.5,-1352.5 648.5,-1352.5"/>
<text text-anchor="start" x="656.5" y="-1375.3" font-family="Times,serif" font-size="14.00">0x8048f50:</text>
<text text-anchor="start" x="656.5" y="-1360.3" font-family="Times,serif" font-size="14.00"> if (strcmp(IntToPtrCastExpr&lt;ptr&gt;(str), &quot;..&quot;) != 0):</text>
</g>
<!-- Node0x3cc6760&#45;&gt;Node0x28d58f40 -->
<g id="edge23" class="edge"><title>Node0x3cc6760&#45;&gt;Node0x28d58f40</title>
<path fill="none" stroke="black" d="M1128.68,-1450.32C987.66,-1444.29 852.105,-1435.56 841,-1424 835.097,-1417.86 833.449,-1409.15 833.707,-1400.65"/>
<polygon fill="black" stroke="black" points="837.203,-1400.87 834.808,-1390.55 830.244,-1400.12 837.203,-1400.87"/>
<text text-anchor="middle" x="1142.5" y="-1412.8" font-family="Times,serif" font-size="14.00">(ExtCastExpr&lt;int32&gt;(*(IntToPtrCastExpr&lt;ptr&gt;((v17 + 18)))) or (v17 &amp; &#45;256)) != 4</text>
</g>
<!-- Node0x28d586b0 -->
<g id="node23" class="node"><title>Node0x28d586b0</title>
<polygon fill="none" stroke="black" points="1057,-839.5 1057,-875.5 1231,-875.5 1231,-839.5 1057,-839.5"/>
<text text-anchor="start" x="1065" y="-853.8" font-family="Times,serif" font-size="14.00">v18 = readdir64(dirp)</text>
</g>
<!-- Node0x3cc6760&#45;&gt;Node0x28d586b0 -->
<g id="edge24" class="edge"><title>Node0x3cc6760&#45;&gt;Node0x28d586b0</title>
<path fill="none" stroke="black" d="M1456.65,-1442.3C1457.24,-1424.51 1458,-1396.65 1458,-1372.5 1458,-1372.5 1458,-1372.5 1458,-1235.5 1458,-1207.47 1459.57,-1199.13 1472,-1174 1476.62,-1164.67 1483.45,-1165.79 1487,-1156 1489.27,-1149.73 1489.85,-1147.03 1487,-1141 1425.15,-1009.93 1269.36,-919.097 1190.82,-880.03"/>
<polygon fill="black" stroke="black" points="1192.15,-876.786 1181.63,-875.523 1189.07,-883.07 1192.15,-876.786"/>
<text text-anchor="middle" x="1776.5" y="-1188.8" font-family="Times,serif" font-size="14.00">(ExtCastExpr&lt;int32&gt;(*(IntToPtrCastExpr&lt;ptr&gt;((v17 + 18)))) or (v17 &amp; &#45;256)) == 4</text>
</g>
<!-- Node0x28d56d30 -->
<g id="node24" class="node"><title>Node0x28d56d30</title>
<polygon fill="none" stroke="black" points="608.5,-97.5 608.5,-180.5 889.5,-180.5 889.5,-97.5 608.5,-97.5"/>
<text text-anchor="start" x="616.5" y="-165.3" font-family="Times,serif" font-size="14.00">0x804908f:</text>
<text text-anchor="start" x="616.5" y="-150.3" font-family="Times,serif" font-size="14.00"> g3 = v3</text>
<text text-anchor="start" x="616.5" y="-135.3" font-family="Times,serif" font-size="14.00"> g7 = v2</text>
<text text-anchor="start" x="616.5" y="-120.3" font-family="Times,serif" font-size="14.00"> g5 = v1</text>
<text text-anchor="start" x="616.5" y="-105.3" font-family="Times,serif" font-size="14.00"> return IntToPtrCastExpr&lt;ptr&gt;(v11)</text>
</g>
<!-- Node0x28d58d90&#45;&gt;Node0x28d56d30 -->
<g id="edge25" class="edge"><title>Node0x28d58d90&#45;&gt;Node0x28d56d30</title>
<path fill="none" stroke="black" d="M590.574,-218.336C612.969,-207.262 636.225,-195.763 657.798,-185.096"/>
<polygon fill="black" stroke="black" points="659.52,-188.149 666.933,-180.579 656.417,-181.874 659.52,-188.149"/>
</g>
<!-- Node0x28d58df0&#45;&gt;Node0x28d56d30 -->
<g id="edge26" class="edge"><title>Node0x28d58df0&#45;&gt;Node0x28d56d30</title>
<path fill="none" stroke="black" d="M839.617,-256.756C826.259,-239.546 805.114,-212.301 786.608,-188.457"/>
<polygon fill="black" stroke="black" points="789.345,-186.274 780.449,-180.52 783.815,-190.566 789.345,-186.274"/>
</g>
<!-- Node0x28d58f40&#45;&gt;Node0x28d586b0 -->
<g id="edge28" class="edge"><title>Node0x28d58f40&#45;&gt;Node0x28d586b0</title>
<path fill="none" stroke="black" d="M1031.81,-1362.83C1076.12,-1357.45 1115.22,-1348.57 1132,-1334 1149.91,-1318.45 1146,-1306.22 1146,-1282.5 1146,-1282.5 1146,-1282.5 1146,-1014.5 1146,-969.434 1145.16,-917.052 1144.56,-885.899"/>
<polygon fill="black" stroke="black" points="1148.06,-885.742 1144.37,-875.813 1141.06,-885.879 1148.06,-885.742"/>
<text text-anchor="middle" x="1316" y="-1144.8" font-family="Times,serif" font-size="14.00">strcmp(IntToPtrCastExpr&lt;ptr&gt;(str), &quot;..&quot;) == 0</text>
</g>
<!-- Node0x28d57240 -->
<g id="node25" class="node"><title>Node0x28d57240</title>
<polygon fill="none" stroke="black" points="608.5,-1262.5 608.5,-1300.5 985.5,-1300.5 985.5,-1262.5 608.5,-1262.5"/>
<text text-anchor="start" x="616.5" y="-1285.3" font-family="Times,serif" font-size="14.00">0x8048f64:</text>
<text text-anchor="start" x="616.5" y="-1270.3" font-family="Times,serif" font-size="14.00"> if (strcmp(IntToPtrCastExpr&lt;ptr&gt;(g5), &quot;.&quot;) != 0):</text>
</g>
<!-- Node0x28d58f40&#45;&gt;Node0x28d57240 -->
<g id="edge27" class="edge"><title>Node0x28d58f40&#45;&gt;Node0x28d57240</title>
<path fill="none" stroke="black" d="M812.383,-1352.39C806.603,-1347.19 801.273,-1341 798,-1334 794.719,-1326.98 793.544,-1318.82 793.425,-1311.09"/>
<polygon fill="black" stroke="black" points="796.928,-1311.09 793.819,-1300.96 789.933,-1310.81 796.928,-1311.09"/>
<text text-anchor="middle" x="965" y="-1322.8" font-family="Times,serif" font-size="14.00">strcmp(IntToPtrCastExpr&lt;ptr&gt;(str), &quot;..&quot;) != 0</text>
</g>
<!-- Node0x28d58710 -->
<g id="node26" class="node"><title>Node0x28d58710</title>
<polygon fill="none" stroke="black" points="1069.5,-765.5 1069.5,-801.5 1218.5,-801.5 1218.5,-765.5 1069.5,-765.5"/>
<text text-anchor="start" x="1077.5" y="-779.8" font-family="Times,serif" font-size="14.00">if (v18 == NULL):</text>
</g>
<!-- Node0x28d586b0&#45;&gt;Node0x28d58710 -->
<g id="edge29" class="edge"><title>Node0x28d586b0&#45;&gt;Node0x28d58710</title>
<path fill="none" stroke="black" d="M1144,-839.437C1144,-831.307 1144,-821.376 1144,-812.205"/>
<polygon fill="black" stroke="black" points="1147.5,-811.941 1144,-801.941 1140.5,-811.941 1147.5,-811.941"/>
</g>
<!-- Node0x28d56d30&#45;&gt;Node0x163ade50 -->
<g id="edge30" class="edge"><title>Node0x28d56d30&#45;&gt;Node0x163ade50</title>
<path fill="none" stroke="black" d="M799.891,-97.4994C813.489,-86.6775 827.726,-75.3469 839.721,-65.8014"/>
<polygon fill="black" stroke="black" points="841.986,-68.4721 847.631,-59.5064 837.627,-62.9949 841.986,-68.4721"/>
</g>
<!-- Node0x28d57240&#45;&gt;Node0x28d586b0 -->
<g id="edge32" class="edge"><title>Node0x28d57240&#45;&gt;Node0x28d586b0</title>
<path fill="none" stroke="black" d="M985.755,-1263.31C1006.51,-1258.36 1026.99,-1252.04 1046,-1244 1078.73,-1230.16 1108,-1229.04 1108,-1193.5 1108,-1193.5 1108,-1193.5 1108,-1014.5 1108,-968.052 1123.34,-915.77 1133.99,-885.064"/>
<polygon fill="black" stroke="black" points="1137.34,-886.111 1137.4,-875.517 1130.74,-883.76 1137.34,-886.111"/>
</g>
<!-- Node0x18040a40 -->
<g id="node27" class="node"><title>Node0x18040a40</title>
<polygon fill="none" stroke="black" points="138,-1174.5 138,-1210.5 1080,-1210.5 1080,-1174.5 138,-1174.5"/>
<text text-anchor="start" x="146" y="-1188.8" font-family="Times,serif" font-size="14.00">chars_printed = snprintf(IntToPtrCastExpr&lt;ptr&gt;(g7), 4096, &quot;%s/%s&quot;, IntToPtrCastExpr&lt;ptr&gt;(g3), IntToPtrCastExpr&lt;ptr&gt;(g5))</text>
</g>
<!-- Node0x28d57240&#45;&gt;Node0x18040a40 -->
<g id="edge31" class="edge"><title>Node0x28d57240&#45;&gt;Node0x18040a40</title>
<path fill="none" stroke="black" d="M758.046,-1262.47C728.221,-1248.67 686.98,-1229.59 655.439,-1214.99"/>
<polygon fill="black" stroke="black" points="656.53,-1211.64 645.985,-1210.62 653.59,-1217.99 656.53,-1211.64"/>
<text text-anchor="middle" x="878.5" y="-1232.8" font-family="Times,serif" font-size="14.00">strcmp(IntToPtrCastExpr&lt;ptr&gt;(g5), &quot;.&quot;) != 0</text>
</g>
<!-- Node0x28d59460 -->
<g id="node28" class="node"><title>Node0x28d59460</title>
<polygon fill="none" stroke="black" points="1049.5,-675.5 1049.5,-713.5 1216.5,-713.5 1216.5,-675.5 1049.5,-675.5"/>
<text text-anchor="start" x="1057.5" y="-698.3" font-family="Times,serif" font-size="14.00">break &#45;&gt; 0x804904a:</text>
<text text-anchor="start" x="1057.5" y="-683.3" font-family="Times,serif" font-size="14.00"> break</text>
</g>
<!-- Node0x28d58710&#45;&gt;Node0x28d59460 -->
<g id="edge33" class="edge"><title>Node0x28d58710&#45;&gt;Node0x28d59460</title>
<path fill="none" stroke="black" d="M1141.83,-765.312C1140.32,-753.394 1138.28,-737.256 1136.54,-723.499"/>
<polygon fill="black" stroke="black" points="1140.01,-723.033 1135.28,-713.551 1133.06,-723.911 1140.01,-723.033"/>
<text text-anchor="middle" x="1191.5" y="-735.8" font-family="Times,serif" font-size="14.00">v18 == NULL</text>
</g>
<!-- Node0x28d58bd0 -->
<g id="node29" class="node"><title>Node0x28d58bd0</title>
<polygon fill="none" stroke="black" points="1640,-676.5 1640,-712.5 1930,-712.5 1930,-676.5 1640,-676.5"/>
<text text-anchor="start" x="1648" y="-690.8" font-family="Times,serif" font-size="14.00">v17 = PtrToIntCastExpr&lt;int32&gt;(v18)</text>
</g>
<!-- Node0x28d58710&#45;&gt;Node0x28d58bd0 -->
<g id="edge34" class="edge"><title>Node0x28d58710&#45;&gt;Node0x28d58bd0</title>
<path fill="none" stroke="black" d="M1218.79,-772.35C1324.2,-758.043 1518.23,-731.707 1649.43,-713.901"/>
<polygon fill="black" stroke="black" points="1650.11,-717.34 1659.55,-712.527 1649.17,-710.404 1650.11,-717.34"/>
<text text-anchor="middle" x="1550.5" y="-735.8" font-family="Times,serif" font-size="14.00">v18 != NULL</text>
</g>
<!-- Node0xc1f36c0 -->
<g id="node30" class="node"><title>Node0xc1f36c0</title>
<polygon fill="none" stroke="black" points="588.5,-1086.5 588.5,-1122.5 791.5,-1122.5 791.5,-1086.5 588.5,-1086.5"/>
<text text-anchor="start" x="596.5" y="-1100.8" font-family="Times,serif" font-size="14.00">if (chars_printed &gt; 4095):</text>
</g>
<!-- Node0x18040a40&#45;&gt;Node0xc1f36c0 -->
<g id="edge35" class="edge"><title>Node0x18040a40&#45;&gt;Node0xc1f36c0</title>
<path fill="none" stroke="black" d="M625.392,-1174.1C637.327,-1161.42 653.654,-1144.09 666.909,-1130.02"/>
<polygon fill="black" stroke="black" points="669.601,-1132.26 673.909,-1122.58 664.505,-1127.46 669.601,-1132.26"/>
</g>
<!-- Node0x163aa5c0 -->
<g id="node31" class="node"><title>Node0x163aa5c0</title>
<polygon fill="none" stroke="black" points="1049.5,-584.5 1049.5,-637.5 1214.5,-637.5 1214.5,-584.5 1049.5,-584.5"/>
<text text-anchor="start" x="1057.5" y="-622.3" font-family="Times,serif" font-size="14.00">0x804904a:</text>
<text text-anchor="start" x="1057.5" y="-607.3" font-family="Times,serif" font-size="14.00"> v15 = closedir(dirp)</text>
<text text-anchor="start" x="1057.5" y="-592.3" font-family="Times,serif" font-size="14.00"> v11 = v15</text>
</g>
<!-- Node0x28d59460&#45;&gt;Node0x163aa5c0 -->
<g id="edge36" class="edge"><title>Node0x28d59460&#45;&gt;Node0x163aa5c0</title>
<path fill="none" stroke="black" d="M1132.78,-675.413C1132.68,-667.285 1132.56,-657.394 1132.44,-647.864"/>
<polygon fill="black" stroke="black" points="1135.94,-647.722 1132.32,-637.766 1128.94,-647.808 1135.94,-647.722"/>
</g>
<!-- Node0x28d58bd0&#45;&gt;Node0x163ae2f0 -->
<g id="edge37" class="edge"><title>Node0x28d58bd0&#45;&gt;Node0x163ae2f0</title>
<path fill="none" stroke="black" d="M1930.02,-710.567C2010.7,-723.132 2095,-745.188 2095,-782.5 2095,-1538.5 2095,-1538.5 2095,-1538.5 2095,-1596.77 1672.43,-1617.8 1514.56,-1623.63"/>
<polygon fill="black" stroke="black" points="1514.42,-1620.13 1504.55,-1623.99 1514.67,-1627.12 1514.42,-1620.13"/>
</g>
<!-- Node0x18041160 -->
<g id="node32" class="node"><title>Node0x18041160</title>
<polygon fill="none" stroke="black" points="562.5,-894.5 562.5,-977.5 917.5,-977.5 917.5,-894.5 562.5,-894.5"/>
<text text-anchor="start" x="570.5" y="-962.3" font-family="Times,serif" font-size="14.00">0x804908f:</text>
<text text-anchor="start" x="570.5" y="-947.3" font-family="Times,serif" font-size="14.00"> g3 = v3</text>
<text text-anchor="start" x="570.5" y="-932.3" font-family="Times,serif" font-size="14.00"> g7 = v2</text>
<text text-anchor="start" x="570.5" y="-917.3" font-family="Times,serif" font-size="14.00"> g5 = v1</text>
<text text-anchor="start" x="570.5" y="-902.3" font-family="Times,serif" font-size="14.00"> return IntToPtrCastExpr&lt;ptr&gt;(chars_printed)</text>
</g>
<!-- Node0xc1f36c0&#45;&gt;Node0x18041160 -->
<g id="edge38" class="edge"><title>Node0xc1f36c0&#45;&gt;Node0x18041160</title>
<path fill="none" stroke="black" d="M688.631,-1086.09C688.203,-1076.31 688.23,-1063.9 690,-1053 693.685,-1030.29 702.743,-1006.72 712.154,-986.804"/>
<polygon fill="black" stroke="black" points="715.389,-988.156 716.632,-977.634 709.099,-985.084 715.389,-988.156"/>
<text text-anchor="middle" x="768.5" y="-1056.8" font-family="Times,serif" font-size="14.00">chars_printed &gt; 4095</text>
</g>
<!-- Node0x7d256b0 -->
<g id="node33" class="node"><title>Node0x7d256b0</title>
<polygon fill="none" stroke="black" points="718,-996.5 718,-1034.5 1080,-1034.5 1080,-996.5 718,-996.5"/>
<text text-anchor="start" x="726" y="-1019.3" font-family="Times,serif" font-size="14.00">0x8049042:</text>
<text text-anchor="start" x="726" y="-1004.3" font-family="Times,serif" font-size="14.00"> encrypt_directory(IntToPtrCastExpr&lt;ptr&gt;(g7))</text>
</g>
<!-- Node0xc1f36c0&#45;&gt;Node0x7d256b0 -->
<g id="edge39" class="edge"><title>Node0xc1f36c0&#45;&gt;Node0x7d256b0</title>
<path fill="none" stroke="black" d="M791.798,-1090.79C812.252,-1085.6 832.979,-1078.29 851,-1068 862.083,-1061.67 872.11,-1051.94 880.099,-1042.63"/>
<polygon fill="black" stroke="black" points="882.987,-1044.63 886.57,-1034.66 877.551,-1040.22 882.987,-1044.63"/>
<text text-anchor="middle" x="954.5" y="-1056.8" font-family="Times,serif" font-size="14.00">chars_printed &lt;= 4095</text>
</g>
<!-- Node0x1cbfc570 -->
<g id="node34" class="node"><title>Node0x1cbfc570</title>
<polygon fill="none" stroke="black" points="1075,-510.5 1075,-546.5 1189,-546.5 1189,-510.5 1075,-510.5"/>
<text text-anchor="start" x="1083" y="-524.8" font-family="Times,serif" font-size="14.00">if (v15 == 0):</text>
</g>
<!-- Node0x163aa5c0&#45;&gt;Node0x1cbfc570 -->
<g id="edge40" class="edge"><title>Node0x163aa5c0&#45;&gt;Node0x1cbfc570</title>
<path fill="none" stroke="black" d="M1132,-584.086C1132,-575.46 1132,-565.822 1132,-557.075"/>
<polygon fill="black" stroke="black" points="1135.5,-556.973 1132,-546.974 1128.5,-556.974 1135.5,-556.973"/>
</g>
<!-- Node0x18041160&#45;&gt;Node0x163ade50 -->
<g id="edge41" class="edge"><title>Node0x18041160&#45;&gt;Node0x163ade50</title>
<path fill="none" stroke="black" d="M868.417,-894.452C896.486,-877.39 918,-853.661 918,-821 918,-821 918,-821 918,-138 918,-112.217 903.687,-86.4076 890.532,-68.1319"/>
<polygon fill="black" stroke="black" points="893.056,-65.6668 884.235,-59.7984 887.472,-69.8869 893.056,-65.6668"/>
</g>
<!-- Node0x7d256b0&#45;&gt;Node0x28d586b0 -->
<g id="edge42" class="edge"><title>Node0x7d256b0&#45;&gt;Node0x28d586b0</title>
<path fill="none" stroke="black" d="M927.584,-996.3C972.502,-967.699 1059.52,-912.289 1108.42,-881.152"/>
<polygon fill="black" stroke="black" points="1110.54,-883.956 1117.09,-875.633 1106.78,-878.052 1110.54,-883.956"/>
</g>
<!-- Node0x28d58c30 -->
<g id="node35" class="node"><title>Node0x28d58c30</title>
<polygon fill="none" stroke="black" points="1053.5,-405.5 1053.5,-458.5 1210.5,-458.5 1210.5,-405.5 1053.5,-405.5"/>
<text text-anchor="start" x="1061.5" y="-443.3" font-family="Times,serif" font-size="14.00">0x804905f:</text>
<text text-anchor="start" x="1061.5" y="-428.3" font-family="Times,serif" font-size="14.00"> if (g195 != NULL):</text>
<text text-anchor="start" x="1061.5" y="-413.3" font-family="Times,serif" font-size="14.00"> else:</text>
</g>
<!-- Node0x1cbfc570&#45;&gt;Node0x28d58c30 -->
<g id="edge43" class="edge"><title>Node0x1cbfc570&#45;&gt;Node0x28d58c30</title>
<path fill="none" stroke="black" d="M1132,-510.167C1132,-498.703 1132,-483.247 1132,-469.178"/>
<polygon fill="black" stroke="black" points="1135.5,-468.78 1132,-458.78 1128.5,-468.78 1135.5,-468.78"/>
<text text-anchor="middle" x="1166.5" y="-480.8" font-family="Times,serif" font-size="14.00">v15 == 0</text>
</g>
<!-- Node0x28d57560 -->
<g id="node36" class="node"><title>Node0x28d57560</title>
<polygon fill="none" stroke="black" points="949.5,-97.5 949.5,-180.5 1230.5,-180.5 1230.5,-97.5 949.5,-97.5"/>
<text text-anchor="start" x="957.5" y="-165.3" font-family="Times,serif" font-size="14.00">0x804908f:</text>
<text text-anchor="start" x="957.5" y="-150.3" font-family="Times,serif" font-size="14.00"> g3 = v3</text>
<text text-anchor="start" x="957.5" y="-135.3" font-family="Times,serif" font-size="14.00"> g7 = v2</text>
<text text-anchor="start" x="957.5" y="-120.3" font-family="Times,serif" font-size="14.00"> g5 = v1</text>
<text text-anchor="start" x="957.5" y="-105.3" font-family="Times,serif" font-size="14.00"> return IntToPtrCastExpr&lt;ptr&gt;(v11)</text>
</g>
<!-- Node0x1cbfc570&#45;&gt;Node0x28d57560 -->
<g id="edge44" class="edge"><title>Node0x1cbfc570&#45;&gt;Node0x28d57560</title>
<path fill="none" stroke="black" d="M1097.06,-510.486C1077.57,-498.923 1055.05,-481.612 1044,-459 996.959,-362.771 1015.8,-321.332 1044,-218 1046.64,-208.331 1050.82,-198.641 1055.6,-189.54"/>
<polygon fill="black" stroke="black" points="1058.74,-191.096 1060.56,-180.657 1052.63,-187.686 1058.74,-191.096"/>
<text text-anchor="middle" x="1050.5" y="-364.8" font-family="Times,serif" font-size="14.00">v15 != 0</text>
</g>
<!-- Node0xb73dd60 -->
<g id="node37" class="node"><title>Node0xb73dd60</title>
<polygon fill="none" stroke="black" points="1145,-218.5 1145,-331.5 1785,-331.5 1785,-218.5 1145,-218.5"/>
<text text-anchor="start" x="1153" y="-316.3" font-family="Times,serif" font-size="14.00">0x8049068:</text>
<text text-anchor="start" x="1153" y="-301.3" font-family="Times,serif" font-size="14.00"> str3 = g3</text>
<text text-anchor="start" x="1153" y="-286.3" font-family="Times,serif" font-size="14.00"> g3 = v13</text>
<text text-anchor="start" x="1153" y="-271.3" font-family="Times,serif" font-size="14.00"> strcpy(BitCastExpr&lt;ptr&gt;(&amp;(str2)), IntToPtrCastExpr&lt;ptr&gt;(str3))</text>
<text text-anchor="start" x="1153" y="-256.3" font-family="Times,serif" font-size="14.00"> strcat(IntToPtrCastExpr&lt;ptr&gt;(g3), &quot;/README_FOR_DECRYPT.txt&quot;)</text>
<text text-anchor="start" x="1153" y="-241.3" font-family="Times,serif" font-size="14.00"> v16 = putReadme(g3, PtrToIntCastExpr&lt;int32&gt;(&quot;/README_FOR_DECRYPT.txt&quot;), v7)</text>
<text text-anchor="start" x="1153" y="-226.3" font-family="Times,serif" font-size="14.00"> v11 = PtrToIntCastExpr&lt;int32&gt;(v16)</text>
</g>
<!-- Node0x28d58c30&#45;&gt;Node0xb73dd60 -->
<g id="edge45" class="edge"><title>Node0x28d58c30&#45;&gt;Node0xb73dd60</title>
<path fill="none" stroke="black" d="M1194.71,-405.399C1208.7,-399.502 1223.4,-393.152 1237,-387 1272.25,-371.047 1310.18,-352.963 1344.78,-336.093"/>
<polygon fill="black" stroke="black" points="1346.53,-339.136 1353.97,-331.602 1343.45,-332.847 1346.53,-339.136"/>
<text text-anchor="middle" x="1365.5" y="-364.8" font-family="Times,serif" font-size="14.00">g195 != NULL</text>
</g>
<!-- Node0x28d592e0 -->
<g id="node38" class="node"><title>Node0x28d592e0</title>
<polygon fill="none" stroke="black" points="1053.5,-257 1053.5,-293 1126.5,-293 1126.5,-257 1053.5,-257"/>
<text text-anchor="start" x="1061.5" y="-271.3" font-family="Times,serif" font-size="14.00">v11 = 0</text>
</g>
<!-- Node0x28d58c30&#45;&gt;Node0x28d592e0 -->
<g id="edge46" class="edge"><title>Node0x28d58c30&#45;&gt;Node0x28d592e0</title>
<path fill="none" stroke="black" d="M1125.06,-405.405C1117.43,-377.223 1105.2,-332.095 1097.39,-303.264"/>
<polygon fill="black" stroke="black" points="1100.72,-302.178 1094.73,-293.442 1093.96,-304.009 1100.72,-302.178"/>
<text text-anchor="middle" x="1176.5" y="-364.8" font-family="Times,serif" font-size="14.00">g195 == NULL</text>
</g>
<!-- Node0x28d57560&#45;&gt;Node0x163ade50 -->
<g id="edge47" class="edge"><title>Node0x28d57560&#45;&gt;Node0x163ade50</title>
<path fill="none" stroke="black" d="M996.276,-97.4994C964.288,-83.6765 930.38,-69.0238 905.612,-58.3211"/>
<polygon fill="black" stroke="black" points="906.826,-55.0329 896.258,-54.279 904.049,-61.4587 906.826,-55.0329"/>
</g>
<!-- Node0xb73dd60&#45;&gt;Node0x28d57560 -->
<g id="edge48" class="edge"><title>Node0xb73dd60&#45;&gt;Node0x28d57560</title>
<path fill="none" stroke="black" d="M1309.5,-218.433C1277.29,-206.924 1243.78,-194.951 1212.93,-183.927"/>
<polygon fill="black" stroke="black" points="1214.04,-180.607 1203.45,-180.538 1211.68,-187.199 1214.04,-180.607"/>
</g>
<!-- Node0x28d592e0&#45;&gt;Node0x28d57560 -->
<g id="edge49" class="edge"><title>Node0x28d592e0&#45;&gt;Node0x28d57560</title>
<path fill="none" stroke="black" d="M1090,-256.756C1090,-240.07 1090,-213.95 1090,-190.643"/>
<polygon fill="black" stroke="black" points="1093.5,-190.52 1090,-180.52 1086.5,-190.52 1093.5,-190.52"/>
</g>
</g>
</svg>
