<?xml version="1.0" encoding="UTF-8" standalone="no"?>
<!DOCTYPE svg PUBLIC "-//W3C//DTD SVG 1.1//EN"
 "http://www.w3.org/Graphics/SVG/1.1/DTD/svg11.dtd">
<!-- Generated by graphviz version 2.38.0 (20140413.2041)
 -->
<!-- Title: Control&#45;flow graph for function &#39;ecp_group_load(a1, a2, a3, a4, a5, a6, a7, a8, a9, a10, a11, a12, a13)&#39;. Pages: 1 -->
<svg width="755pt" height="1000pt"
 viewBox="0.00 0.00 755.00 1000.00" xmlns="http://www.w3.org/2000/svg" xmlns:xlink="http://www.w3.org/1999/xlink">
<g id="graph0" class="graph" transform="scale(1 1) rotate(0) translate(4 996)">
<title>Control&#45;flow graph for function &#39;ecp_group_load(a1, a2, a3, a4, a5, a6, a7, a8, a9, a10, a11, a12, a13)&#39;.</title>
<polygon fill="white" stroke="none" points="-4,4 -4,-996 751,-996 751,4 -4,4"/>
<text text-anchor="middle" x="373.5" y="-7.8" font-family="Times,serif" font-size="14.00">Control&#45;flow graph for function &#39;ecp_group_load(a1, a2, a3, a4, a5, a6, a7, a8, a9, a10, a11, a12, a13)&#39;.</text>
<!-- Node0x21079280 -->
<g id="node1" class="node"><title>Node0x21079280</title>
<polygon fill="none" stroke="black" points="376,-773.5 376,-991.5 435,-991.5 435,-773.5 376,-773.5"/>
<text text-anchor="start" x="384" y="-976.3" font-family="Times,serif" font-size="14.00">entry:</text>
<text text-anchor="start" x="384" y="-961.3" font-family="Times,serif" font-size="14.00"> a1</text>
<text text-anchor="start" x="384" y="-946.3" font-family="Times,serif" font-size="14.00"> a2</text>
<text text-anchor="start" x="384" y="-931.3" font-family="Times,serif" font-size="14.00"> a3</text>
<text text-anchor="start" x="384" y="-916.3" font-family="Times,serif" font-size="14.00"> a4</text>
<text text-anchor="start" x="384" y="-901.3" font-family="Times,serif" font-size="14.00"> a5</text>
<text text-anchor="start" x="384" y="-886.3" font-family="Times,serif" font-size="14.00"> a6</text>
<text text-anchor="start" x="384" y="-871.3" font-family="Times,serif" font-size="14.00"> a7</text>
<text text-anchor="start" x="384" y="-856.3" font-family="Times,serif" font-size="14.00"> a8</text>
<text text-anchor="start" x="384" y="-841.3" font-family="Times,serif" font-size="14.00"> a9</text>
<text text-anchor="start" x="384" y="-826.3" font-family="Times,serif" font-size="14.00"> a10</text>
<text text-anchor="start" x="384" y="-811.3" font-family="Times,serif" font-size="14.00"> a11</text>
<text text-anchor="start" x="384" y="-796.3" font-family="Times,serif" font-size="14.00"> a12</text>
<text text-anchor="start" x="384" y="-781.3" font-family="Times,serif" font-size="14.00"> a13</text>
</g>
<!-- Node0x21079340 -->
<g id="node2" class="node"><title>Node0x21079340</title>
<polygon fill="none" stroke="black" points="229,-652.5 229,-735.5 582,-735.5 582,-652.5 229,-652.5"/>
<text text-anchor="start" x="237" y="-720.3" font-family="Times,serif" font-size="14.00">0x805fa60:</text>
<text text-anchor="start" x="237" y="-705.3" font-family="Times,serif" font-size="14.00"> g3 = g1</text>
<text text-anchor="start" x="237" y="-690.3" font-family="Times,serif" font-size="14.00"> *(IntToPtrCastExpr&lt;ptr&gt;((g1 + 4))) = 1</text>
<text text-anchor="start" x="237" y="-675.3" font-family="Times,serif" font-size="14.00"> *(IntToPtrCastExpr&lt;ptr&gt;((g3 + 8))) = (g4 / 4)</text>
<text text-anchor="start" x="237" y="-660.3" font-family="Times,serif" font-size="14.00"> *(IntToPtrCastExpr&lt;ptr&gt;((g3 + 12))) = g6</text>
</g>
<!-- Node0x21079280&#45;&gt;Node0x21079340 -->
<g id="edge1" class="edge"><title>Node0x21079280&#45;&gt;Node0x21079340</title>
<path fill="none" stroke="black" d="M405.5,-773.282C405.5,-763.8 405.5,-754.53 405.5,-745.879"/>
<polygon fill="black" stroke="black" points="409,-745.659 405.5,-735.659 402,-745.659 409,-745.659"/>
</g>
<!-- Node0x2107a890 -->
<g id="node3" class="node"><title>Node0x2107a890</title>
<polygon fill="none" stroke="black" points="356,-578.5 356,-614.5 455,-614.5 455,-578.5 356,-578.5"/>
<text text-anchor="start" x="364" y="-592.8" font-family="Times,serif" font-size="14.00">if (a1 != 0):</text>
</g>
<!-- Node0x21079340&#45;&gt;Node0x2107a890 -->
<g id="edge2" class="edge"><title>Node0x21079340&#45;&gt;Node0x2107a890</title>
<path fill="none" stroke="black" d="M405.5,-652.499C405.5,-643.206 405.5,-633.537 405.5,-624.946"/>
<polygon fill="black" stroke="black" points="409,-624.749 405.5,-614.749 402,-624.749 409,-624.749"/>
</g>
<!-- Node0x9a55760 -->
<g id="node4" class="node"><title>Node0x9a55760</title>
<polygon fill="none" stroke="black" points="62.5,-458.5 62.5,-526.5 424.5,-526.5 424.5,-458.5 62.5,-458.5"/>
<text text-anchor="start" x="70.5" y="-511.3" font-family="Times,serif" font-size="14.00">0x805fa80:</text>
<text text-anchor="start" x="70.5" y="-496.3" font-family="Times,serif" font-size="14.00"> *(IntToPtrCastExpr&lt;ptr&gt;((g3 + 16))) = 1</text>
<text text-anchor="start" x="70.5" y="-481.3" font-family="Times,serif" font-size="14.00"> *(IntToPtrCastExpr&lt;ptr&gt;((g3 + 24))) = a1</text>
<text text-anchor="start" x="70.5" y="-466.3" font-family="Times,serif" font-size="14.00"> *(IntToPtrCastExpr&lt;ptr&gt;((g3 + 20))) = (a2 / 4)</text>
</g>
<!-- Node0x2107a890&#45;&gt;Node0x9a55760 -->
<g id="edge3" class="edge"><title>Node0x2107a890&#45;&gt;Node0x9a55760</title>
<path fill="none" stroke="black" d="M378.385,-578.427C358.234,-565.74 329.942,-547.926 304.469,-531.888"/>
<polygon fill="black" stroke="black" points="306.281,-528.893 295.954,-526.527 302.552,-534.817 306.281,-528.893"/>
<text text-anchor="middle" x="375.5" y="-548.8" font-family="Times,serif" font-size="14.00">a1 != 0</text>
</g>
<!-- Node0x2107aae0 -->
<g id="node5" class="node"><title>Node0x2107aae0</title>
<polygon fill="none" stroke="black" points="114.5,-97.5 114.5,-420.5 684.5,-420.5 684.5,-97.5 114.5,-97.5"/>
<text text-anchor="start" x="122.5" y="-405.3" font-family="Times,serif" font-size="14.00">0x805fa93:</text>
<text text-anchor="start" x="122.5" y="-390.3" font-family="Times,serif" font-size="14.00"> *(IntToPtrCastExpr&lt;ptr&gt;((g3 + 28))) = 1</text>
<text text-anchor="start" x="122.5" y="-375.3" font-family="Times,serif" font-size="14.00"> *(IntToPtrCastExpr&lt;ptr&gt;((g3 + 76))) = 1</text>
<text text-anchor="start" x="122.5" y="-360.3" font-family="Times,serif" font-size="14.00"> *(IntToPtrCastExpr&lt;ptr&gt;((g3 + 40))) = 1</text>
<text text-anchor="start" x="122.5" y="-345.3" font-family="Times,serif" font-size="14.00"> *(IntToPtrCastExpr&lt;ptr&gt;((g3 + 32))) = (a4 / 4)</text>
<text text-anchor="start" x="122.5" y="-330.3" font-family="Times,serif" font-size="14.00"> *(IntToPtrCastExpr&lt;ptr&gt;((g3 + 52))) = 1</text>
<text text-anchor="start" x="122.5" y="-315.3" font-family="Times,serif" font-size="14.00"> *(IntToPtrCastExpr&lt;ptr&gt;((g3 + 64))) = 1</text>
<text text-anchor="start" x="122.5" y="-300.3" font-family="Times,serif" font-size="14.00"> *(IntToPtrCastExpr&lt;ptr&gt;((g3 + 68))) = 1</text>
<text text-anchor="start" x="122.5" y="-285.3" font-family="Times,serif" font-size="14.00"> *(IntToPtrCastExpr&lt;ptr&gt;((g3 + 36))) = a3</text>
<text text-anchor="start" x="122.5" y="-270.3" font-family="Times,serif" font-size="14.00"> *(IntToPtrCastExpr&lt;ptr&gt;((g3 + 72))) = PtrToIntCastExpr&lt;int32&gt;(&amp;(g192))</text>
<text text-anchor="start" x="122.5" y="-255.3" font-family="Times,serif" font-size="14.00"> *(IntToPtrCastExpr&lt;ptr&gt;((g3 + 80))) = (a10 / 4)</text>
<text text-anchor="start" x="122.5" y="-240.3" font-family="Times,serif" font-size="14.00"> *(IntToPtrCastExpr&lt;ptr&gt;((g3 + 84))) = a9</text>
<text text-anchor="start" x="122.5" y="-225.3" font-family="Times,serif" font-size="14.00"> *(IntToPtrCastExpr&lt;ptr&gt;((g3 + 44))) = (a6 / 4)</text>
<text text-anchor="start" x="122.5" y="-210.3" font-family="Times,serif" font-size="14.00"> *(IntToPtrCastExpr&lt;ptr&gt;((g3 + 48))) = a5</text>
<text text-anchor="start" x="122.5" y="-195.3" font-family="Times,serif" font-size="14.00"> *(IntToPtrCastExpr&lt;ptr&gt;((g3 + 56))) = (a8 / 4)</text>
<text text-anchor="start" x="122.5" y="-180.3" font-family="Times,serif" font-size="14.00"> *(IntToPtrCastExpr&lt;ptr&gt;((g3 + 60))) = a7</text>
<text text-anchor="start" x="122.5" y="-165.3" font-family="Times,serif" font-size="14.00"> *(IntToPtrCastExpr&lt;ptr&gt;((g3 + 88))) = mbedtls_mpi_bitlen((g3 + 4), 0)</text>
<text text-anchor="start" x="122.5" y="-150.3" font-family="Times,serif" font-size="14.00"> v1 = mbedtls_mpi_bitlen((g3 + 76), 0)</text>
<text text-anchor="start" x="122.5" y="-135.3" font-family="Times,serif" font-size="14.00"> *(IntToPtrCastExpr&lt;ptr&gt;((g3 + 96))) = 1</text>
<text text-anchor="start" x="122.5" y="-120.3" font-family="Times,serif" font-size="14.00"> *(IntToPtrCastExpr&lt;ptr&gt;((g3 + 92))) = v1</text>
<text text-anchor="start" x="122.5" y="-105.3" font-family="Times,serif" font-size="14.00"> return 0</text>
</g>
<!-- Node0x2107a890&#45;&gt;Node0x2107aae0 -->
<g id="edge4" class="edge"><title>Node0x2107a890&#45;&gt;Node0x2107aae0</title>
<path fill="none" stroke="black" d="M414.702,-578.343C421.402,-564.828 429.908,-545.279 433.5,-527 439.557,-496.176 440.088,-463.13 437.578,-431.153"/>
<polygon fill="black" stroke="black" points="441.03,-430.463 436.659,-420.812 434.058,-431.083 441.03,-430.463"/>
<text text-anchor="middle" x="468.5" y="-488.8" font-family="Times,serif" font-size="14.00">a1 == 0</text>
</g>
<!-- Node0x9a55760&#45;&gt;Node0x2107aae0 -->
<g id="edge5" class="edge"><title>Node0x9a55760&#45;&gt;Node0x2107aae0</title>
<path fill="none" stroke="black" d="M265.851,-458.332C271.692,-449.664 278.401,-439.707 285.637,-428.97"/>
<polygon fill="black" stroke="black" points="288.582,-430.863 291.267,-420.615 282.777,-426.951 288.582,-430.863"/>
</g>
<!-- Node0x20677480 -->
<g id="node6" class="node"><title>Node0x20677480</title>
<polygon fill="none" stroke="black" points="372.5,-23.5 372.5,-59.5 426.5,-59.5 426.5,-23.5 372.5,-23.5"/>
<text text-anchor="start" x="380.5" y="-37.8" font-family="Times,serif" font-size="14.00">exit:</text>
</g>
<!-- Node0x2107aae0&#45;&gt;Node0x20677480 -->
<g id="edge6" class="edge"><title>Node0x2107aae0&#45;&gt;Node0x20677480</title>
<path fill="none" stroke="black" d="M399.5,-97.4373C399.5,-87.1305 399.5,-77.6801 399.5,-69.6314"/>
<polygon fill="black" stroke="black" points="403,-69.5759 399.5,-59.576 396,-69.576 403,-69.5759"/>
</g>
</g>
</svg>
