<?xml version="1.0" encoding="UTF-8" standalone="no"?>
<!DOCTYPE svg PUBLIC "-//W3C//DTD SVG 1.1//EN"
 "http://www.w3.org/Graphics/SVG/1.1/DTD/svg11.dtd">
<!-- Generated by graphviz version 2.38.0 (20140413.2041)
 -->
<!-- Title: Control&#45;flow graph for function &#39;mbedtls_pem_free(*a1)&#39;. Pages: 1 -->
<svg width="511pt" height="459pt"
 viewBox="0.00 0.00 511.00 459.00" xmlns="http://www.w3.org/2000/svg" xmlns:xlink="http://www.w3.org/1999/xlink">
<g id="graph0" class="graph" transform="scale(1 1) rotate(0) translate(4 455)">
<title>Control&#45;flow graph for function &#39;mbedtls_pem_free(*a1)&#39;.</title>
<polygon fill="white" stroke="none" points="-4,4 -4,-455 507,-455 507,4 -4,4"/>
<text text-anchor="middle" x="251.5" y="-7.8" font-family="Times,serif" font-size="14.00">Control&#45;flow graph for function &#39;mbedtls_pem_free(*a1)&#39;.</text>
<!-- Node0x14431df0 -->
<g id="node1" class="node"><title>Node0x14431df0</title>
<polygon fill="none" stroke="black" points="222,-412.5 222,-450.5 281,-450.5 281,-412.5 222,-412.5"/>
<text text-anchor="start" x="230" y="-435.3" font-family="Times,serif" font-size="14.00">entry:</text>
<text text-anchor="start" x="230" y="-420.3" font-family="Times,serif" font-size="14.00"> a1</text>
</g>
<!-- Node0x144344b0 -->
<g id="node2" class="node"><title>Node0x144344b0</title>
<polygon fill="none" stroke="black" points="0,-276.5 0,-374.5 503,-374.5 503,-276.5 0,-276.5"/>
<text text-anchor="start" x="8" y="-359.3" font-family="Times,serif" font-size="14.00">v1 = PtrToIntCastExpr&lt;int32&gt;(a1)</text>
<text text-anchor="start" x="8" y="-344.3" font-family="Times,serif" font-size="14.00"> free(IntToPtrCastExpr&lt;ptr&gt;(*(BitCastExpr&lt;ptr&gt;(a1))))</text>
<text text-anchor="start" x="8" y="-329.3" font-family="Times,serif" font-size="14.00"> free(IntToPtrCastExpr&lt;ptr&gt;(*(IntToPtrCastExpr&lt;ptr&gt;((v1 + 8)))))</text>
<text text-anchor="start" x="8" y="-314.3" font-family="Times,serif" font-size="14.00"> g6 = (v1 + 12)</text>
<text text-anchor="start" x="8" y="-299.3" font-family="Times,serif" font-size="14.00"> *(IntToPtrCastExpr&lt;ptr&gt;(v1)) = 0</text>
<text text-anchor="start" x="8" y="-284.3" font-family="Times,serif" font-size="14.00"> result = (v1 + 1)</text>
</g>
<!-- Node0x14431df0&#45;&gt;Node0x144344b0 -->
<g id="edge1" class="edge"><title>Node0x14431df0&#45;&gt;Node0x144344b0</title>
<path fill="none" stroke="black" d="M251.5,-412.385C251.5,-404.528 251.5,-394.844 251.5,-384.842"/>
<polygon fill="black" stroke="black" points="255,-384.789 251.5,-374.789 248,-384.789 255,-384.789"/>
</g>
<!-- Node0x14434660 -->
<g id="node3" class="node"><title>Node0x14434660</title>
<polygon fill="none" stroke="black" points="171,-202.5 171,-238.5 332,-238.5 332,-202.5 171,-202.5"/>
<text text-anchor="start" x="179" y="-216.8" font-family="Times,serif" font-size="14.00">while (result != g6):</text>
</g>
<!-- Node0x144344b0&#45;&gt;Node0x14434660 -->
<g id="edge2" class="edge"><title>Node0x144344b0&#45;&gt;Node0x14434660</title>
<path fill="none" stroke="black" d="M251.5,-276.317C251.5,-266.893 251.5,-257.32 251.5,-248.868"/>
<polygon fill="black" stroke="black" points="255,-248.856 251.5,-238.856 248,-248.856 255,-248.856"/>
</g>
<!-- Node0x14434b70 -->
<g id="node4" class="node"><title>Node0x14434b70</title>
<polygon fill="none" stroke="black" points="1,-97.5 1,-150.5 296,-150.5 296,-97.5 1,-97.5"/>
<text text-anchor="start" x="9" y="-135.3" font-family="Times,serif" font-size="14.00">0x80635f8:</text>
<text text-anchor="start" x="9" y="-120.3" font-family="Times,serif" font-size="14.00"> *(IntToPtrCastExpr&lt;ptr&gt;(result)) = 0</text>
<text text-anchor="start" x="9" y="-105.3" font-family="Times,serif" font-size="14.00"> result = (result + 1)</text>
</g>
<!-- Node0x14434660&#45;&gt;Node0x14434b70 -->
<g id="edge3" class="edge"><title>Node0x14434660&#45;&gt;Node0x14434b70</title>
<path fill="none" stroke="black" d="M170.816,-202.569C162.526,-197.816 155.106,-191.747 149.5,-184 144.686,-177.347 142.789,-169.077 142.453,-160.853"/>
<polygon fill="black" stroke="black" points="145.96,-160.688 142.762,-150.587 138.963,-160.478 145.96,-160.688"/>
<text text-anchor="middle" x="193.5" y="-172.8" font-family="Times,serif" font-size="14.00">result != g6</text>
</g>
<!-- Node0x14434a60 -->
<g id="node5" class="node"><title>Node0x14434a60</title>
<polygon fill="none" stroke="black" points="314,-105 314,-143 427,-143 427,-105 314,-105"/>
<text text-anchor="start" x="322" y="-127.8" font-family="Times,serif" font-size="14.00">0x8063602:</text>
<text text-anchor="start" x="322" y="-112.8" font-family="Times,serif" font-size="14.00"> return result</text>
</g>
<!-- Node0x14434660&#45;&gt;Node0x14434a60 -->
<g id="edge4" class="edge"><title>Node0x14434660&#45;&gt;Node0x14434a60</title>
<path fill="none" stroke="black" d="M273.05,-202.387C291.616,-187.643 318.644,-166.18 339.528,-149.595"/>
<polygon fill="black" stroke="black" points="341.832,-152.235 347.486,-143.276 337.478,-146.754 341.832,-152.235"/>
<text text-anchor="middle" x="361.5" y="-172.8" font-family="Times,serif" font-size="14.00">result == g6</text>
</g>
<!-- Node0x14434b70&#45;&gt;Node0x14434660 -->
<g id="edge5" class="edge"><title>Node0x14434b70&#45;&gt;Node0x14434660</title>
<path fill="none" stroke="black" d="M216.21,-150.556C224.178,-155.723 231.568,-161.828 237.5,-169 242.963,-175.605 246.302,-184.189 248.339,-192.4"/>
<polygon fill="black" stroke="black" points="244.943,-193.276 250.286,-202.425 251.815,-191.941 244.943,-193.276"/>
</g>
<!-- Node0x14432de0 -->
<g id="node6" class="node"><title>Node0x14432de0</title>
<polygon fill="none" stroke="black" points="343.5,-23.5 343.5,-59.5 397.5,-59.5 397.5,-23.5 343.5,-23.5"/>
<text text-anchor="start" x="351.5" y="-37.8" font-family="Times,serif" font-size="14.00">exit:</text>
</g>
<!-- Node0x14434a60&#45;&gt;Node0x14432de0 -->
<g id="edge6" class="edge"><title>Node0x14434a60&#45;&gt;Node0x14432de0</title>
<path fill="none" stroke="black" d="M370.5,-104.733C370.5,-94.3626 370.5,-81.1832 370.5,-69.6251"/>
<polygon fill="black" stroke="black" points="374,-69.5935 370.5,-59.5935 367,-69.5936 374,-69.5935"/>
</g>
</g>
</svg>
