<?xml version="1.0" encoding="UTF-8" standalone="no"?>
<!DOCTYPE svg PUBLIC "-//W3C//DTD SVG 1.1//EN"
 "http://www.w3.org/Graphics/SVG/1.1/DTD/svg11.dtd">
<!-- Generated by graphviz version 2.38.0 (20140413.2041)
 -->
<!-- Title: Control&#45;flow graph for function &#39;mbedtls_camellia_free(*a1)&#39;. Pages: 1 -->
<svg width="460pt" height="587pt"
 viewBox="0.00 0.00 460.00 587.00" xmlns="http://www.w3.org/2000/svg" xmlns:xlink="http://www.w3.org/1999/xlink">
<g id="graph0" class="graph" transform="scale(1 1) rotate(0) translate(4 583)">
<title>Control&#45;flow graph for function &#39;mbedtls_camellia_free(*a1)&#39;.</title>
<polygon fill="white" stroke="none" points="-4,4 -4,-583 456,-583 456,4 -4,4"/>
<text text-anchor="middle" x="226" y="-7.8" font-family="Times,serif" font-size="14.00">Control&#45;flow graph for function &#39;mbedtls_camellia_free(*a1)&#39;.</text>
<!-- Node0x1ec11ac0 -->
<g id="node1" class="node"><title>Node0x1ec11ac0</title>
<polygon fill="none" stroke="black" points="121,-540.5 121,-578.5 180,-578.5 180,-540.5 121,-540.5"/>
<text text-anchor="start" x="129" y="-563.3" font-family="Times,serif" font-size="14.00">entry:</text>
<text text-anchor="start" x="129" y="-548.3" font-family="Times,serif" font-size="14.00"> a1</text>
</g>
<!-- Node0x95be170 -->
<g id="node2" class="node"><title>Node0x95be170</title>
<polygon fill="none" stroke="black" points="14.5,-464.5 14.5,-502.5 286.5,-502.5 286.5,-464.5 14.5,-464.5"/>
<text text-anchor="start" x="22.5" y="-487.3" font-family="Times,serif" font-size="14.00">v1 = PtrToIntCastExpr&lt;int32&gt;(a1)</text>
<text text-anchor="start" x="22.5" y="-472.3" font-family="Times,serif" font-size="14.00"> g1 = v1</text>
</g>
<!-- Node0x1ec11ac0&#45;&gt;Node0x95be170 -->
<g id="edge1" class="edge"><title>Node0x1ec11ac0&#45;&gt;Node0x95be170</title>
<path fill="none" stroke="black" d="M150.5,-540.208C150.5,-531.964 150.5,-522.038 150.5,-512.862"/>
<polygon fill="black" stroke="black" points="154,-512.582 150.5,-502.582 147,-512.582 154,-512.582"/>
</g>
<!-- Node0x8e3fb90 -->
<g id="node3" class="node"><title>Node0x8e3fb90</title>
<polygon fill="none" stroke="black" points="80.5,-390.5 80.5,-426.5 220.5,-426.5 220.5,-390.5 80.5,-390.5"/>
<text text-anchor="start" x="88.5" y="-404.8" font-family="Times,serif" font-size="14.00">if (a1 == NULL):</text>
</g>
<!-- Node0x95be170&#45;&gt;Node0x8e3fb90 -->
<g id="edge2" class="edge"><title>Node0x95be170&#45;&gt;Node0x8e3fb90</title>
<path fill="none" stroke="black" d="M150.5,-464.455C150.5,-456.201 150.5,-446.238 150.5,-437.074"/>
<polygon fill="black" stroke="black" points="154,-436.835 150.5,-426.835 147,-436.835 154,-436.835"/>
</g>
<!-- Node0x8e420e0 -->
<g id="node4" class="node"><title>Node0x8e420e0</title>
<polygon fill="none" stroke="black" points="49.5,-198.5 49.5,-236.5 149.5,-236.5 149.5,-198.5 49.5,-198.5"/>
<text text-anchor="start" x="57.5" y="-221.3" font-family="Times,serif" font-size="14.00">0x806e91a:</text>
<text text-anchor="start" x="57.5" y="-206.3" font-family="Times,serif" font-size="14.00"> return</text>
</g>
<!-- Node0x8e3fb90&#45;&gt;Node0x8e420e0 -->
<g id="edge3" class="edge"><title>Node0x8e3fb90&#45;&gt;Node0x8e420e0</title>
<path fill="none" stroke="black" d="M104.04,-390.35C96.6386,-385.549 89.9612,-379.52 85.5,-372 62.4608,-333.166 75.8759,-278.836 87.6982,-246.31"/>
<polygon fill="black" stroke="black" points="91.1232,-247.153 91.4325,-236.563 84.5865,-244.649 91.1232,-247.153"/>
<text text-anchor="middle" x="132.5" y="-360.8" font-family="Times,serif" font-size="14.00">a1 == NULL</text>
</g>
<!-- Node0x8e41df0 -->
<g id="node5" class="node"><title>Node0x8e41df0</title>
<polygon fill="none" stroke="black" points="108.5,-255.5 108.5,-338.5 378.5,-338.5 378.5,-255.5 108.5,-255.5"/>
<text text-anchor="start" x="116.5" y="-323.3" font-family="Times,serif" font-size="14.00">0x806e90a:</text>
<text text-anchor="start" x="116.5" y="-308.3" font-family="Times,serif" font-size="14.00"> g6 = (v1 + 276)</text>
<text text-anchor="start" x="116.5" y="-293.3" font-family="Times,serif" font-size="14.00"> *(IntToPtrCastExpr&lt;ptr&gt;(v1)) = 0</text>
<text text-anchor="start" x="116.5" y="-278.3" font-family="Times,serif" font-size="14.00"> v2 = (g1 + 1)</text>
<text text-anchor="start" x="116.5" y="-263.3" font-family="Times,serif" font-size="14.00"> g1 = v2</text>
</g>
<!-- Node0x8e3fb90&#45;&gt;Node0x8e41df0 -->
<g id="edge4" class="edge"><title>Node0x8e3fb90&#45;&gt;Node0x8e41df0</title>
<path fill="none" stroke="black" d="M165.031,-390.391C175.129,-378.502 189.124,-362.023 202.504,-346.27"/>
<polygon fill="black" stroke="black" points="205.197,-348.506 209.002,-338.618 199.861,-343.974 205.197,-348.506"/>
<text text-anchor="middle" x="235.5" y="-360.8" font-family="Times,serif" font-size="14.00">a1 != NULL</text>
</g>
<!-- Node0x7b92310 -->
<g id="node6" class="node"><title>Node0x7b92310</title>
<polygon fill="none" stroke="black" points="89.5,-39.5 89.5,-75.5 143.5,-75.5 143.5,-39.5 89.5,-39.5"/>
<text text-anchor="start" x="97.5" y="-53.8" font-family="Times,serif" font-size="14.00">exit:</text>
</g>
<!-- Node0x8e420e0&#45;&gt;Node0x7b92310 -->
<g id="edge5" class="edge"><title>Node0x8e420e0&#45;&gt;Node0x7b92310</title>
<path fill="none" stroke="black" d="M101.45,-198.375C104.412,-170.847 110.066,-118.298 113.538,-86.0312"/>
<polygon fill="black" stroke="black" points="117.034,-86.2489 114.624,-75.9318 110.075,-85.4999 117.034,-86.2489"/>
</g>
<!-- Node0x8e3f5b0 -->
<g id="node7" class="node"><title>Node0x8e3f5b0</title>
<polygon fill="none" stroke="black" points="165,-143.5 165,-179.5 302,-179.5 302,-143.5 165,-143.5"/>
<text text-anchor="start" x="173" y="-157.8" font-family="Times,serif" font-size="14.00">while (v2 != g6):</text>
</g>
<!-- Node0x8e41df0&#45;&gt;Node0x8e3f5b0 -->
<g id="edge6" class="edge"><title>Node0x8e41df0&#45;&gt;Node0x8e3f5b0</title>
<path fill="none" stroke="black" d="M240.445,-255.22C238.853,-233.969 236.95,-208.556 235.539,-189.714"/>
<polygon fill="black" stroke="black" points="239.028,-189.437 234.79,-179.726 232.047,-189.96 239.028,-189.437"/>
</g>
<!-- Node0x8e3f5b0&#45;&gt;Node0x7b92310 -->
<g id="edge8" class="edge"><title>Node0x8e3f5b0&#45;&gt;Node0x7b92310</title>
<path fill="none" stroke="black" d="M184.785,-143.405C174.736,-138.465 164.722,-132.368 156.5,-125 144.227,-114.003 134.551,-98.3339 127.791,-84.9676"/>
<polygon fill="black" stroke="black" points="130.855,-83.2599 123.39,-75.7416 124.537,-86.2742 130.855,-83.2599"/>
<text text-anchor="middle" x="191" y="-113.8" font-family="Times,serif" font-size="14.00">v2 == g6</text>
</g>
<!-- Node0x8e421c0 -->
<g id="node8" class="node"><title>Node0x8e421c0</title>
<polygon fill="none" stroke="black" points="167.5,-23.5 167.5,-91.5 437.5,-91.5 437.5,-23.5 167.5,-23.5"/>
<text text-anchor="start" x="175.5" y="-76.3" font-family="Times,serif" font-size="14.00">0x806e910:</text>
<text text-anchor="start" x="175.5" y="-61.3" font-family="Times,serif" font-size="14.00"> *(IntToPtrCastExpr&lt;ptr&gt;(v2)) = 0</text>
<text text-anchor="start" x="175.5" y="-46.3" font-family="Times,serif" font-size="14.00"> v2 = (g1 + 1)</text>
<text text-anchor="start" x="175.5" y="-31.3" font-family="Times,serif" font-size="14.00"> g1 = v2</text>
</g>
<!-- Node0x8e3f5b0&#45;&gt;Node0x8e421c0 -->
<g id="edge7" class="edge"><title>Node0x8e3f5b0&#45;&gt;Node0x8e421c0</title>
<path fill="none" stroke="black" d="M229.273,-143.235C227.693,-133.036 227.355,-120.173 232.5,-110 234.415,-106.213 236.754,-102.637 239.401,-99.2709"/>
<polygon fill="black" stroke="black" points="242.027,-101.585 246.082,-91.7969 236.808,-96.9204 242.027,-101.585"/>
<text text-anchor="middle" x="264" y="-113.8" font-family="Times,serif" font-size="14.00">v2 != g6</text>
</g>
<!-- Node0x8e421c0&#45;&gt;Node0x8e3f5b0 -->
<g id="edge9" class="edge"><title>Node0x8e421c0&#45;&gt;Node0x8e3f5b0</title>
<path fill="none" stroke="black" d="M304.934,-91.6532C304.296,-103.002 301.841,-115.276 295.5,-125 292.451,-129.675 288.559,-133.804 284.213,-137.434"/>
<polygon fill="black" stroke="black" points="282,-134.716 275.986,-143.438 286.127,-140.37 282,-134.716"/>
</g>
</g>
</svg>
