<?xml version="1.0" encoding="UTF-8" standalone="no"?>
<!DOCTYPE svg PUBLIC "-//W3C//DTD SVG 1.1//EN"
 "http://www.w3.org/Graphics/SVG/1.1/DTD/svg11.dtd">
<!-- Generated by graphviz version 2.38.0 (20140413.2041)
 -->
<!-- Title: Control&#45;flow graph for function &#39;blowfish_crypt_cfb64_wrap(a1)&#39;. Pages: 1 -->
<svg width="488pt" height="263pt"
 viewBox="0.00 0.00 488.00 263.00" xmlns="http://www.w3.org/2000/svg" xmlns:xlink="http://www.w3.org/1999/xlink">
<g id="graph0" class="graph" transform="scale(1 1) rotate(0) translate(4 259)">
<title>Control&#45;flow graph for function &#39;blowfish_crypt_cfb64_wrap(a1)&#39;.</title>
<polygon fill="white" stroke="none" points="-4,4 -4,-259 484,-259 484,4 -4,4"/>
<text text-anchor="middle" x="240" y="-7.8" font-family="Times,serif" font-size="14.00">Control&#45;flow graph for function &#39;blowfish_crypt_cfb64_wrap(a1)&#39;.</text>
<!-- Node0xf9cbb50 -->
<g id="node1" class="node"><title>Node0xf9cbb50</title>
<polygon fill="none" stroke="black" points="210.5,-216.5 210.5,-254.5 269.5,-254.5 269.5,-216.5 210.5,-216.5"/>
<text text-anchor="start" x="218.5" y="-239.3" font-family="Times,serif" font-size="14.00">entry:</text>
<text text-anchor="start" x="218.5" y="-224.3" font-family="Times,serif" font-size="14.00"> a1</text>
</g>
<!-- Node0xde72f40 -->
<g id="node2" class="node"><title>Node0xde72f40</title>
<polygon fill="none" stroke="black" points="14.5,-96.5 14.5,-179.5 465.5,-179.5 465.5,-96.5 14.5,-96.5"/>
<text text-anchor="start" x="22.5" y="-164.3" font-family="Times,serif" font-size="14.00">0x806a870:</text>
<text text-anchor="start" x="22.5" y="-149.3" font-family="Times,serif" font-size="14.00"> v1</text>
<text text-anchor="start" x="22.5" y="-134.3" font-family="Times,serif" font-size="14.00"> result</text>
<text text-anchor="start" x="22.5" y="-119.3" font-family="Times,serif" font-size="14.00"> mbedtls_blowfish_crypt_cfb64(result, v1, a1, NULL, 0, 0, 0)</text>
<text text-anchor="start" x="22.5" y="-104.3" font-family="Times,serif" font-size="14.00"> return result</text>
</g>
<!-- Node0xf9cbb50&#45;&gt;Node0xde72f40 -->
<g id="edge1" class="edge"><title>Node0xf9cbb50&#45;&gt;Node0xde72f40</title>
<path fill="none" stroke="black" d="M240,-216.087C240,-208.444 240,-199.165 240,-189.73"/>
<polygon fill="black" stroke="black" points="243.5,-189.501 240,-179.501 236.5,-189.501 243.5,-189.501"/>
</g>
<!-- Node0xb214c30 -->
<g id="node3" class="node"><title>Node0xb214c30</title>
<polygon fill="none" stroke="black" points="213,-23.5 213,-59.5 267,-59.5 267,-23.5 213,-23.5"/>
<text text-anchor="start" x="221" y="-37.8" font-family="Times,serif" font-size="14.00">exit:</text>
</g>
<!-- Node0xde72f40&#45;&gt;Node0xb214c30 -->
<g id="edge2" class="edge"><title>Node0xde72f40&#45;&gt;Node0xb214c30</title>
<path fill="none" stroke="black" d="M240,-96.3751C240,-87.4706 240,-78.246 240,-70"/>
<polygon fill="black" stroke="black" points="243.5,-69.8327 240,-59.8328 236.5,-69.8328 243.5,-69.8327"/>
</g>
</g>
</svg>
