<?xml version="1.0" encoding="UTF-8" standalone="no"?>
<!DOCTYPE svg PUBLIC "-//W3C//DTD SVG 1.1//EN"
 "http://www.w3.org/Graphics/SVG/1.1/DTD/svg11.dtd">
<!-- Generated by graphviz version 2.38.0 (20140413.2041)
 -->
<!-- Title: Control&#45;flow graph for function &#39;_fini()&#39;. Pages: 1 -->
<svg width="304pt" height="231pt"
 viewBox="0.00 0.00 304.00 231.00" xmlns="http://www.w3.org/2000/svg" xmlns:xlink="http://www.w3.org/1999/xlink">
<g id="graph0" class="graph" transform="scale(1 1) rotate(0) translate(4 227)">
<title>Control&#45;flow graph for function &#39;_fini()&#39;.</title>
<polygon fill="white" stroke="none" points="-4,4 -4,-227 300,-227 300,4 -4,4"/>
<text text-anchor="middle" x="148" y="-7.8" font-family="Times,serif" font-size="14.00">Control&#45;flow graph for function &#39;_fini()&#39;.</text>
<!-- Node0x8fe5590 -->
<g id="node1" class="node"><title>Node0x8fe5590</title>
<polygon fill="none" stroke="black" points="118.5,-186.5 118.5,-222.5 177.5,-222.5 177.5,-186.5 118.5,-186.5"/>
<text text-anchor="start" x="126.5" y="-200.8" font-family="Times,serif" font-size="14.00">entry:</text>
</g>
<!-- Node0xb229710 -->
<g id="node2" class="node"><title>Node0xb229710</title>
<polygon fill="none" stroke="black" points="69,-96.5 69,-149.5 227,-149.5 227,-96.5 69,-96.5"/>
<text text-anchor="start" x="77" y="-134.3" font-family="Times,serif" font-size="14.00">0x807779c:</text>
<text text-anchor="start" x="77" y="-119.3" font-family="Times,serif" font-size="14.00"> abort()</text>
<text text-anchor="start" x="77" y="-104.3" font-family="Times,serif" font-size="14.00"> # UNREACHABLE</text>
</g>
<!-- Node0x8fe5590&#45;&gt;Node0xb229710 -->
<g id="edge1" class="edge"><title>Node0x8fe5590&#45;&gt;Node0xb229710</title>
<path fill="none" stroke="black" d="M148,-186.25C148,-178.486 148,-169.014 148,-159.825"/>
<polygon fill="black" stroke="black" points="151.5,-159.676 148,-149.676 144.5,-159.676 151.5,-159.676"/>
</g>
<!-- Node0x290cec40 -->
<g id="node3" class="node"><title>Node0x290cec40</title>
<polygon fill="none" stroke="black" points="121,-23.5 121,-59.5 175,-59.5 175,-23.5 121,-23.5"/>
<text text-anchor="start" x="129" y="-37.8" font-family="Times,serif" font-size="14.00">exit:</text>
</g>
<!-- Node0xb229710&#45;&gt;Node0x290cec40 -->
<g id="edge2" class="edge"><title>Node0xb229710&#45;&gt;Node0x290cec40</title>
<path fill="none" stroke="black" d="M148,-96.4081C148,-87.9823 148,-78.5803 148,-70.0174"/>
<polygon fill="black" stroke="black" points="151.5,-69.7564 148,-59.7564 144.5,-69.7565 151.5,-69.7564"/>
</g>
</g>
</svg>
