<?xml version="1.0" encoding="UTF-8" standalone="no"?>
<!DOCTYPE svg PUBLIC "-//W3C//DTD SVG 1.1//EN"
 "http://www.w3.org/Graphics/SVG/1.1/DTD/svg11.dtd">
<!-- Generated by graphviz version 2.38.0 (20140413.2041)
 -->
<!-- Title: Control&#45;flow graph for function &#39;mbedtls_mpi_set_bit(a1, a2, a3)&#39;. Pages: 1 -->
<svg width="1118pt" height="2391pt"
 viewBox="0.00 0.00 1117.50 2391.00" xmlns="http://www.w3.org/2000/svg" xmlns:xlink="http://www.w3.org/1999/xlink">
<g id="graph0" class="graph" transform="scale(1 1) rotate(0) translate(4 2387)">
<title>Control&#45;flow graph for function &#39;mbedtls_mpi_set_bit(a1, a2, a3)&#39;.</title>
<polygon fill="white" stroke="none" points="-4,4 -4,-2387 1113.5,-2387 1113.5,4 -4,4"/>
<text text-anchor="middle" x="554.75" y="-7.8" font-family="Times,serif" font-size="14.00">Control&#45;flow graph for function &#39;mbedtls_mpi_set_bit(a1, a2, a3)&#39;.</text>
<!-- Node0x151fdfc0 -->
<g id="node1" class="node"><title>Node0x151fdfc0</title>
<polygon fill="none" stroke="black" points="97,-2314.5 97,-2382.5 156,-2382.5 156,-2314.5 97,-2314.5"/>
<text text-anchor="start" x="105" y="-2367.3" font-family="Times,serif" font-size="14.00">entry:</text>
<text text-anchor="start" x="105" y="-2352.3" font-family="Times,serif" font-size="14.00"> a1</text>
<text text-anchor="start" x="105" y="-2337.3" font-family="Times,serif" font-size="14.00"> a2</text>
<text text-anchor="start" x="105" y="-2322.3" font-family="Times,serif" font-size="14.00"> a3</text>
</g>
<!-- Node0x140ec710 -->
<g id="node2" class="node"><title>Node0x140ec710</title>
<polygon fill="none" stroke="black" points="58,-2118.5 58,-2276.5 195,-2276.5 195,-2118.5 58,-2118.5"/>
<text text-anchor="start" x="66" y="-2261.3" font-family="Times,serif" font-size="14.00">0x80571c0:</text>
<text text-anchor="start" x="66" y="-2246.3" font-family="Times,serif" font-size="14.00"> g1 = &#45;4</text>
<text text-anchor="start" x="66" y="-2231.3" font-family="Times,serif" font-size="14.00"> v1 = g3</text>
<text text-anchor="start" x="66" y="-2216.3" font-family="Times,serif" font-size="14.00"> v2 = (a3 % 256)</text>
<text text-anchor="start" x="66" y="-2201.3" font-family="Times,serif" font-size="14.00"> g3 = v2</text>
<text text-anchor="start" x="66" y="-2186.3" font-family="Times,serif" font-size="14.00"> v3 = g7</text>
<text text-anchor="start" x="66" y="-2171.3" font-family="Times,serif" font-size="14.00"> g7 = a2</text>
<text text-anchor="start" x="66" y="-2156.3" font-family="Times,serif" font-size="14.00"> v4 = g5</text>
<text text-anchor="start" x="66" y="-2141.3" font-family="Times,serif" font-size="14.00"> g5 = a1</text>
<text text-anchor="start" x="66" y="-2126.3" font-family="Times,serif" font-size="14.00"> v5</text>
</g>
<!-- Node0x151fdfc0&#45;&gt;Node0x140ec710 -->
<g id="edge1" class="edge"><title>Node0x151fdfc0&#45;&gt;Node0x140ec710</title>
<path fill="none" stroke="black" d="M126.5,-2314.43C126.5,-2306.03 126.5,-2296.6 126.5,-2286.84"/>
<polygon fill="black" stroke="black" points="130,-2286.59 126.5,-2276.59 123,-2286.59 130,-2286.59"/>
</g>
<!-- Node0x8d7be60 -->
<g id="node3" class="node"><title>Node0x8d7be60</title>
<polygon fill="none" stroke="black" points="74,-2044.5 74,-2080.5 179,-2080.5 179,-2044.5 74,-2044.5"/>
<text text-anchor="start" x="82" y="-2058.8" font-family="Times,serif" font-size="14.00">if (v2 &gt;= 2):</text>
</g>
<!-- Node0x140ec710&#45;&gt;Node0x8d7be60 -->
<g id="edge2" class="edge"><title>Node0x140ec710&#45;&gt;Node0x8d7be60</title>
<path fill="none" stroke="black" d="M126.5,-2118.36C126.5,-2108.46 126.5,-2098.9 126.5,-2090.63"/>
<polygon fill="black" stroke="black" points="130,-2090.55 126.5,-2080.55 123,-2090.55 130,-2090.55"/>
</g>
<!-- Node0x21cad930 -->
<g id="node4" class="node"><title>Node0x21cad930</title>
<polygon fill="none" stroke="black" points="0,-1702.5 0,-1800.5 101,-1800.5 101,-1702.5 0,-1702.5"/>
<text text-anchor="start" x="8" y="-1785.3" font-family="Times,serif" font-size="14.00">0x80571e3:</text>
<text text-anchor="start" x="8" y="-1770.3" font-family="Times,serif" font-size="14.00"> g3 = v1</text>
<text text-anchor="start" x="8" y="-1755.3" font-family="Times,serif" font-size="14.00"> g7 = v3</text>
<text text-anchor="start" x="8" y="-1740.3" font-family="Times,serif" font-size="14.00"> g5 = v4</text>
<text text-anchor="start" x="8" y="-1725.3" font-family="Times,serif" font-size="14.00"> g2 = v5</text>
<text text-anchor="start" x="8" y="-1710.3" font-family="Times,serif" font-size="14.00"> return &#45;4</text>
</g>
<!-- Node0x8d7be60&#45;&gt;Node0x21cad930 -->
<g id="edge3" class="edge"><title>Node0x8d7be60&#45;&gt;Node0x21cad930</title>
<path fill="none" stroke="black" d="M104.471,-2044.24C99.0926,-2038.95 93.9107,-2032.73 90.5,-2026 55.933,-1957.75 48.9068,-1868.43 48.5248,-1810.76"/>
<polygon fill="black" stroke="black" points="52.0249,-1810.72 48.5233,-1800.73 45.0249,-1810.73 52.0249,-1810.72"/>
<text text-anchor="middle" x="120.5" y="-2014.8" font-family="Times,serif" font-size="14.00">v2 &gt;= 2</text>
</g>
<!-- Node0x140ed800 -->
<g id="node5" class="node"><title>Node0x140ed800</title>
<polygon fill="none" stroke="black" points="181.5,-1819.5 181.5,-1992.5 295.5,-1992.5 295.5,-1819.5 181.5,-1819.5"/>
<text text-anchor="start" x="189.5" y="-1977.3" font-family="Times,serif" font-size="14.00">v6 = (a2 / 32)</text>
<text text-anchor="start" x="189.5" y="-1962.3" font-family="Times,serif" font-size="14.00"> g6 = v6</text>
<text text-anchor="start" x="189.5" y="-1947.3" font-family="Times,serif" font-size="14.00"> v7</text>
<text text-anchor="start" x="189.5" y="-1932.3" font-family="Times,serif" font-size="14.00"> v8</text>
<text text-anchor="start" x="189.5" y="-1917.3" font-family="Times,serif" font-size="14.00"> v9</text>
<text text-anchor="start" x="189.5" y="-1902.3" font-family="Times,serif" font-size="14.00"> v10</text>
<text text-anchor="start" x="189.5" y="-1887.3" font-family="Times,serif" font-size="14.00"> v11</text>
<text text-anchor="start" x="189.5" y="-1872.3" font-family="Times,serif" font-size="14.00"> v12</text>
<text text-anchor="start" x="189.5" y="-1857.3" font-family="Times,serif" font-size="14.00"> v13</text>
<text text-anchor="start" x="189.5" y="-1842.3" font-family="Times,serif" font-size="14.00"> v14</text>
<text text-anchor="start" x="189.5" y="-1827.3" font-family="Times,serif" font-size="14.00"> v15</text>
</g>
<!-- Node0x8d7be60&#45;&gt;Node0x140ed800 -->
<g id="edge4" class="edge"><title>Node0x8d7be60&#45;&gt;Node0x140ed800</title>
<path fill="none" stroke="black" d="M138.914,-2044.38C148.133,-2031.66 161.478,-2013.25 175.417,-1994.02"/>
<polygon fill="black" stroke="black" points="178.381,-1995.89 181.417,-1985.74 172.714,-1991.79 178.381,-1995.89"/>
<text text-anchor="middle" x="187.5" y="-2014.8" font-family="Times,serif" font-size="14.00">v2 &lt; 2</text>
</g>
<!-- Node0x1b8fbc70 -->
<g id="node6" class="node"><title>Node0x1b8fbc70</title>
<polygon fill="none" stroke="black" points="533.5,-23.5 533.5,-59.5 587.5,-59.5 587.5,-23.5 533.5,-23.5"/>
<text text-anchor="start" x="541.5" y="-37.8" font-family="Times,serif" font-size="14.00">exit:</text>
</g>
<!-- Node0x21cad930&#45;&gt;Node0x1b8fbc70 -->
<g id="edge5" class="edge"><title>Node0x21cad930&#45;&gt;Node0x1b8fbc70</title>
<path fill="none" stroke="black" d="M45.4999,-1702.23C43.4284,-1678.28 41.5,-1648.9 41.5,-1622.5 41.5,-1622.5 41.5,-1622.5 41.5,-168 41.5,-68.7913 404.309,-47.747 523.242,-43.5137"/>
<polygon fill="black" stroke="black" points="523.45,-47.0088 533.327,-43.1747 523.215,-40.0127 523.45,-47.0088"/>
</g>
<!-- Node0x21ca9790 -->
<g id="node7" class="node"><title>Node0x21ca9790</title>
<polygon fill="none" stroke="black" points="73,-1647.5 73,-1683.5 462,-1683.5 462,-1647.5 73,-1647.5"/>
<text text-anchor="start" x="81" y="-1661.8" font-family="Times,serif" font-size="14.00">if ((32 * *(IntToPtrCastExpr&lt;ptr&gt;((a1 + 4)))) &gt; a2):</text>
</g>
<!-- Node0x140ed800&#45;&gt;Node0x21ca9790 -->
<g id="edge6" class="edge"><title>Node0x140ed800&#45;&gt;Node0x21ca9790</title>
<path fill="none" stroke="black" d="M248.929,-1819.23C254.28,-1775.23 260.436,-1724.6 264.144,-1694.1"/>
<polygon fill="black" stroke="black" points="267.661,-1694.18 265.393,-1683.83 260.712,-1693.33 267.661,-1694.18"/>
</g>
<!-- Node0x140ebf40 -->
<g id="node8" class="node"><title>Node0x140ebf40</title>
<polygon fill="none" stroke="black" points="69.5,-1497.5 69.5,-1595.5 473.5,-1595.5 473.5,-1497.5 69.5,-1497.5"/>
<text text-anchor="start" x="77.5" y="-1580.3" font-family="Times,serif" font-size="14.00">0x8057220:</text>
<text text-anchor="start" x="77.5" y="-1565.3" font-family="Times,serif" font-size="14.00"> v7 = (*(IntToPtrCastExpr&lt;ptr&gt;((a1 + 8))) + (4 * v6))</text>
<text text-anchor="start" x="77.5" y="-1550.3" font-family="Times,serif" font-size="14.00"> v14 = (a2 % 32)</text>
<text text-anchor="start" x="77.5" y="-1535.3" font-family="Times,serif" font-size="14.00"> g4 = v14</text>
<text text-anchor="start" x="77.5" y="-1520.3" font-family="Times,serif" font-size="14.00"> g6 = &#45;2</text>
<text text-anchor="start" x="77.5" y="-1505.3" font-family="Times,serif" font-size="14.00"> v12 = &#45;2</text>
</g>
<!-- Node0x21ca9790&#45;&gt;Node0x140ebf40 -->
<g id="edge7" class="edge"><title>Node0x21ca9790&#45;&gt;Node0x140ebf40</title>
<path fill="none" stroke="black" d="M267.734,-1647.2C267.894,-1637.45 268.142,-1625.04 268.5,-1614 268.587,-1611.33 268.682,-1608.6 268.784,-1605.84"/>
<polygon fill="black" stroke="black" points="272.283,-1605.93 269.178,-1595.8 265.289,-1605.66 272.283,-1605.93"/>
<text text-anchor="middle" x="440" y="-1617.8" font-family="Times,serif" font-size="14.00">(32 * *(IntToPtrCastExpr&lt;ptr&gt;((a1 + 4)))) &gt; a2</text>
</g>
<!-- Node0x21ca9690 -->
<g id="node9" class="node"><title>Node0x21ca9690</title>
<polygon fill="none" stroke="black" points="586.5,-1527.5 586.5,-1565.5 680.5,-1565.5 680.5,-1527.5 586.5,-1527.5"/>
<text text-anchor="start" x="594.5" y="-1550.3" font-family="Times,serif" font-size="14.00">0x80571ff:</text>
<text text-anchor="start" x="594.5" y="-1535.3" font-family="Times,serif" font-size="14.00"> g1 = 0</text>
</g>
<!-- Node0x21ca9790&#45;&gt;Node0x21ca9690 -->
<g id="edge8" class="edge"><title>Node0x21ca9790&#45;&gt;Node0x21ca9690</title>
<path fill="none" stroke="black" d="M462.312,-1653.55C533.049,-1647.83 598.868,-1639.75 611.5,-1629 626.709,-1616.06 631.961,-1593.81 633.546,-1575.82"/>
<polygon fill="black" stroke="black" points="637.041,-1576 634.103,-1565.82 630.051,-1575.61 637.041,-1576"/>
<text text-anchor="middle" x="800" y="-1617.8" font-family="Times,serif" font-size="14.00">(32 * *(IntToPtrCastExpr&lt;ptr&gt;((a1 + 4)))) &lt;= a2</text>
</g>
<!-- Node0x21caccc0 -->
<g id="node10" class="node"><title>Node0x21caccc0</title>
<polygon fill="none" stroke="black" points="217.5,-1423.5 217.5,-1459.5 325.5,-1459.5 325.5,-1423.5 217.5,-1423.5"/>
<text text-anchor="start" x="225.5" y="-1437.8" font-family="Times,serif" font-size="14.00">if (v14 != 0):</text>
</g>
<!-- Node0x140ebf40&#45;&gt;Node0x21caccc0 -->
<g id="edge9" class="edge"><title>Node0x140ebf40&#45;&gt;Node0x21caccc0</title>
<path fill="none" stroke="black" d="M271.5,-1497.32C271.5,-1487.89 271.5,-1478.32 271.5,-1469.87"/>
<polygon fill="black" stroke="black" points="275,-1469.86 271.5,-1459.86 268,-1469.86 275,-1469.86"/>
</g>
<!-- Node0xe36a590 -->
<g id="node11" class="node"><title>Node0xe36a590</title>
<polygon fill="none" stroke="black" points="581,-1423.5 581,-1459.5 686,-1459.5 686,-1423.5 581,-1423.5"/>
<text text-anchor="start" x="589" y="-1437.8" font-family="Times,serif" font-size="14.00">if (v2 == 0):</text>
</g>
<!-- Node0x21ca9690&#45;&gt;Node0xe36a590 -->
<g id="edge10" class="edge"><title>Node0x21ca9690&#45;&gt;Node0xe36a590</title>
<path fill="none" stroke="black" d="M633.5,-1527.09C633.5,-1511.2 633.5,-1488.02 633.5,-1469.95"/>
<polygon fill="black" stroke="black" points="637,-1469.73 633.5,-1459.73 630,-1469.73 637,-1469.73"/>
</g>
<!-- Node0x21cac280 -->
<g id="node12" class="node"><title>Node0x21cac280</title>
<polygon fill="none" stroke="black" points="70,-1303.5 70,-1371.5 447,-1371.5 447,-1303.5 70,-1303.5"/>
<text text-anchor="start" x="78" y="-1356.3" font-family="Times,serif" font-size="14.00">if_8057237_0_true:</text>
<text text-anchor="start" x="78" y="-1341.3" font-family="Times,serif" font-size="14.00"> v15 = ((4294967294 &gt;&gt; (32 &#45; v14)) | (&#45;2 &lt;&lt; v14))</text>
<text text-anchor="start" x="78" y="-1326.3" font-family="Times,serif" font-size="14.00"> g6 = v15</text>
<text text-anchor="start" x="78" y="-1311.3" font-family="Times,serif" font-size="14.00"> v12 = v15</text>
</g>
<!-- Node0x21caccc0&#45;&gt;Node0x21cac280 -->
<g id="edge11" class="edge"><title>Node0x21caccc0&#45;&gt;Node0x21cac280</title>
<path fill="none" stroke="black" d="M269.295,-1423.2C267.835,-1411.74 265.852,-1396.19 263.984,-1381.53"/>
<polygon fill="black" stroke="black" points="267.454,-1381.07 262.717,-1371.59 260.51,-1381.95 267.454,-1381.07"/>
<text text-anchor="middle" x="299" y="-1393.8" font-family="Times,serif" font-size="14.00">v14 != 0</text>
</g>
<!-- Node0xdf90bc0 -->
<g id="node13" class="node"><title>Node0xdf90bc0</title>
<polygon fill="none" stroke="black" points="266.5,-1084.5 266.5,-1167.5 526.5,-1167.5 526.5,-1084.5 266.5,-1084.5"/>
<text text-anchor="start" x="274.5" y="-1152.3" font-family="Times,serif" font-size="14.00">after_if_8057237_0:</text>
<text text-anchor="start" x="274.5" y="-1137.3" font-family="Times,serif" font-size="14.00"> v8 = IntToPtrCastExpr&lt;ptr&gt;(v7)</text>
<text text-anchor="start" x="274.5" y="-1122.3" font-family="Times,serif" font-size="14.00"> *(v8) = (*(v8) &amp; v12)</text>
<text text-anchor="start" x="274.5" y="-1107.3" font-family="Times,serif" font-size="14.00"> v10 = (g4 % 32)</text>
<text text-anchor="start" x="274.5" y="-1092.3" font-family="Times,serif" font-size="14.00"> v11 = (v2 % 256)</text>
</g>
<!-- Node0x21caccc0&#45;&gt;Node0xdf90bc0 -->
<g id="edge12" class="edge"><title>Node0x21caccc0&#45;&gt;Node0xdf90bc0</title>
<path fill="none" stroke="black" d="M325.875,-1436.46C368.944,-1430.07 426.521,-1413.71 455.5,-1372 496.442,-1313.07 460.706,-1229.09 429.738,-1176.34"/>
<polygon fill="black" stroke="black" points="432.581,-1174.28 424.427,-1167.51 426.582,-1177.88 432.581,-1174.28"/>
<text text-anchor="middle" x="509" y="-1333.8" font-family="Times,serif" font-size="14.00">v14 == 0</text>
</g>
<!-- Node0xdf90fd0 -->
<g id="node14" class="node"><title>Node0xdf90fd0</title>
<polygon fill="none" stroke="black" points="517,-1186.5 517,-1284.5 618,-1284.5 618,-1186.5 517,-1186.5"/>
<text text-anchor="start" x="525" y="-1269.3" font-family="Times,serif" font-size="14.00">0x80571e3:</text>
<text text-anchor="start" x="525" y="-1254.3" font-family="Times,serif" font-size="14.00"> g3 = v1</text>
<text text-anchor="start" x="525" y="-1239.3" font-family="Times,serif" font-size="14.00"> g7 = v3</text>
<text text-anchor="start" x="525" y="-1224.3" font-family="Times,serif" font-size="14.00"> g5 = v4</text>
<text text-anchor="start" x="525" y="-1209.3" font-family="Times,serif" font-size="14.00"> g2 = v5</text>
<text text-anchor="start" x="525" y="-1194.3" font-family="Times,serif" font-size="14.00"> return 0</text>
</g>
<!-- Node0xe36a590&#45;&gt;Node0xdf90fd0 -->
<g id="edge13" class="edge"><title>Node0xe36a590&#45;&gt;Node0xdf90fd0</title>
<path fill="none" stroke="black" d="M623.552,-1423.25C616.074,-1409.68 606.035,-1390.11 599.5,-1372 590.522,-1347.12 583.373,-1318.75 578.129,-1294.43"/>
<polygon fill="black" stroke="black" points="581.55,-1293.69 576.07,-1284.62 574.7,-1295.13 581.55,-1293.69"/>
<text text-anchor="middle" x="643.5" y="-1393.8" font-family="Times,serif" font-size="14.00">v2 == 0</text>
</g>
<!-- Node0x21cac920 -->
<g id="node15" class="node"><title>Node0x21cac920</title>
<polygon fill="none" stroke="black" points="608.5,-1311 608.5,-1364 1102.5,-1364 1102.5,-1311 608.5,-1311"/>
<text text-anchor="start" x="616.5" y="-1348.8" font-family="Times,serif" font-size="14.00">result = mbedtls_mpi_grow(a1, IntToPtrCastExpr&lt;ptr&gt;((v6 + 1)))</text>
<text text-anchor="start" x="616.5" y="-1333.8" font-family="Times,serif" font-size="14.00"> g1 = result</text>
<text text-anchor="start" x="616.5" y="-1318.8" font-family="Times,serif" font-size="14.00"> g6 = v6</text>
</g>
<!-- Node0xe36a590&#45;&gt;Node0x21cac920 -->
<g id="edge14" class="edge"><title>Node0xe36a590&#45;&gt;Node0x21cac920</title>
<path fill="none" stroke="black" d="M670.658,-1423.43C703.34,-1408.41 751.652,-1386.21 790.688,-1368.28"/>
<polygon fill="black" stroke="black" points="792.26,-1371.41 799.885,-1364.05 789.337,-1365.05 792.26,-1371.41"/>
<text text-anchor="middle" x="764.5" y="-1393.8" font-family="Times,serif" font-size="14.00">v2 != 0</text>
</g>
<!-- Node0x21cac280&#45;&gt;Node0xdf90bc0 -->
<g id="edge15" class="edge"><title>Node0x21cac280&#45;&gt;Node0xdf90bc0</title>
<path fill="none" stroke="black" d="M280.367,-1303.3C302.906,-1269.09 338.299,-1215.36 364.092,-1176.2"/>
<polygon fill="black" stroke="black" points="367.192,-1177.86 369.77,-1167.58 361.346,-1174 367.192,-1177.86"/>
</g>
<!-- Node0x8a890e0 -->
<g id="node16" class="node"><title>Node0x8a890e0</title>
<polygon fill="none" stroke="black" points="342.5,-964.5 342.5,-1002.5 450.5,-1002.5 450.5,-964.5 342.5,-964.5"/>
<text text-anchor="start" x="350.5" y="-987.3" font-family="Times,serif" font-size="14.00">if (v10 != 0):</text>
<text text-anchor="start" x="350.5" y="-972.3" font-family="Times,serif" font-size="14.00"> else:</text>
</g>
<!-- Node0xdf90bc0&#45;&gt;Node0x8a890e0 -->
<g id="edge16" class="edge"><title>Node0xdf90bc0&#45;&gt;Node0x8a890e0</title>
<path fill="none" stroke="black" d="M396.5,-1084.36C396.5,-1061.42 396.5,-1033.31 396.5,-1012.77"/>
<polygon fill="black" stroke="black" points="400,-1012.5 396.5,-1002.5 393,-1012.5 400,-1012.5"/>
</g>
<!-- Node0xdf90fd0&#45;&gt;Node0x1b8fbc70 -->
<g id="edge17" class="edge"><title>Node0xdf90fd0&#45;&gt;Node0x1b8fbc70</title>
<path fill="none" stroke="black" d="M564.531,-1186.24C562.624,-1151.11 560.5,-1102.37 560.5,-1059.5 560.5,-1059.5 560.5,-1059.5 560.5,-168 560.5,-134.065 560.5,-94.9683 560.5,-69.5517"/>
<polygon fill="black" stroke="black" points="564,-69.5513 560.5,-59.5513 557,-69.5514 564,-69.5513"/>
</g>
<!-- Node0x21cac630 -->
<g id="node17" class="node"><title>Node0x21cac630</title>
<polygon fill="none" stroke="black" points="793.5,-1108 793.5,-1144 917.5,-1144 917.5,-1108 793.5,-1108"/>
<text text-anchor="start" x="801.5" y="-1122.3" font-family="Times,serif" font-size="14.00">if (result != 0):</text>
</g>
<!-- Node0x21cac920&#45;&gt;Node0x21cac630 -->
<g id="edge18" class="edge"><title>Node0x21cac920&#45;&gt;Node0x21cac630</title>
<path fill="none" stroke="black" d="M855.5,-1310.81C855.5,-1271.08 855.5,-1195.06 855.5,-1154.34"/>
<polygon fill="black" stroke="black" points="859,-1154.09 855.5,-1144.09 852,-1154.09 859,-1154.09"/>
</g>
<!-- Node0x21cac320 -->
<g id="node18" class="node"><title>Node0x21cac320</title>
<polygon fill="none" stroke="black" points="249.5,-760.5 249.5,-798.5 413.5,-798.5 413.5,-760.5 249.5,-760.5"/>
<text text-anchor="start" x="257.5" y="-783.3" font-family="Times,serif" font-size="14.00">if_805723b_0_true:</text>
<text text-anchor="start" x="257.5" y="-768.3" font-family="Times,serif" font-size="14.00"> v13 = (v11 &lt;&lt; v10)</text>
</g>
<!-- Node0x8a890e0&#45;&gt;Node0x21cac320 -->
<g id="edge19" class="edge"><title>Node0x8a890e0&#45;&gt;Node0x21cac320</title>
<path fill="none" stroke="black" d="M390.617,-964.218C379.184,-928.689 353.908,-850.136 340.408,-808.182"/>
<polygon fill="black" stroke="black" points="343.718,-807.043 337.323,-798.596 337.054,-809.187 343.718,-807.043"/>
<text text-anchor="middle" x="406" y="-862.8" font-family="Times,serif" font-size="14.00">v10 != 0</text>
</g>
<!-- Node0xdf91480 -->
<g id="node19" class="node"><title>Node0xdf91480</title>
<polygon fill="none" stroke="black" points="431.5,-761.5 431.5,-797.5 521.5,-797.5 521.5,-761.5 431.5,-761.5"/>
<text text-anchor="start" x="439.5" y="-775.8" font-family="Times,serif" font-size="14.00">v13 = v11</text>
</g>
<!-- Node0x8a890e0&#45;&gt;Node0xdf91480 -->
<g id="edge20" class="edge"><title>Node0x8a890e0&#45;&gt;Node0xdf91480</title>
<path fill="none" stroke="black" d="M411.326,-964.315C421.13,-951.489 433.588,-933.535 441.5,-916 457.626,-880.259 467.329,-835.732 472.299,-807.7"/>
<polygon fill="black" stroke="black" points="475.754,-808.261 473.976,-797.817 468.853,-807.09 475.754,-808.261"/>
<text text-anchor="middle" x="505" y="-862.8" font-family="Times,serif" font-size="14.00">v10 == 0</text>
</g>
<!-- Node0xdf910c0 -->
<g id="node20" class="node"><title>Node0xdf910c0</title>
<polygon fill="none" stroke="black" points="576,-817.5 576,-915.5 689,-915.5 689,-817.5 576,-817.5"/>
<text text-anchor="start" x="584" y="-900.3" font-family="Times,serif" font-size="14.00">0x80571e3:</text>
<text text-anchor="start" x="584" y="-885.3" font-family="Times,serif" font-size="14.00"> g3 = v1</text>
<text text-anchor="start" x="584" y="-870.3" font-family="Times,serif" font-size="14.00"> g7 = v3</text>
<text text-anchor="start" x="584" y="-855.3" font-family="Times,serif" font-size="14.00"> g5 = v4</text>
<text text-anchor="start" x="584" y="-840.3" font-family="Times,serif" font-size="14.00"> g2 = v5</text>
<text text-anchor="start" x="584" y="-825.3" font-family="Times,serif" font-size="14.00"> return result</text>
</g>
<!-- Node0x21cac630&#45;&gt;Node0xdf910c0 -->
<g id="edge21" class="edge"><title>Node0x21cac630&#45;&gt;Node0xdf910c0</title>
<path fill="none" stroke="black" d="M793.402,-1114.01C746.599,-1102.29 684.951,-1078.81 651.5,-1033 629.242,-1002.52 624.74,-960.107 625.674,-925.85"/>
<polygon fill="black" stroke="black" points="629.186,-925.645 626.125,-915.502 622.193,-925.34 629.186,-925.645"/>
<text text-anchor="middle" x="720" y="-1054.8" font-family="Times,serif" font-size="14.00">result != 0</text>
</g>
<!-- Node0x21cac5b0 -->
<g id="node21" class="node"><title>Node0x21cac5b0</title>
<polygon fill="none" stroke="black" points="660.5,-934.5 660.5,-1032.5 1064.5,-1032.5 1064.5,-934.5 660.5,-934.5"/>
<text text-anchor="start" x="668.5" y="-1017.3" font-family="Times,serif" font-size="14.00">0x8057220:</text>
<text text-anchor="start" x="668.5" y="-1002.3" font-family="Times,serif" font-size="14.00"> v7 = (*(IntToPtrCastExpr&lt;ptr&gt;((g5 + 8))) + (4 * v6))</text>
<text text-anchor="start" x="668.5" y="-987.3" font-family="Times,serif" font-size="14.00"> v14 = (g7 % 32)</text>
<text text-anchor="start" x="668.5" y="-972.3" font-family="Times,serif" font-size="14.00"> g4 = v14</text>
<text text-anchor="start" x="668.5" y="-957.3" font-family="Times,serif" font-size="14.00"> g6 = &#45;2</text>
<text text-anchor="start" x="668.5" y="-942.3" font-family="Times,serif" font-size="14.00"> v12 = &#45;2</text>
</g>
<!-- Node0x21cac630&#45;&gt;Node0x21cac5b0 -->
<g id="edge22" class="edge"><title>Node0x21cac630&#45;&gt;Node0x21cac5b0</title>
<path fill="none" stroke="black" d="M856.358,-1107.77C857.166,-1091.56 858.423,-1066.34 859.589,-1042.92"/>
<polygon fill="black" stroke="black" points="863.098,-1042.84 860.1,-1032.68 856.106,-1042.49 863.098,-1042.84"/>
<text text-anchor="middle" x="901" y="-1054.8" font-family="Times,serif" font-size="14.00">result == 0</text>
</g>
<!-- Node0xdf90d90 -->
<g id="node22" class="node"><title>Node0xdf90d90</title>
<polygon fill="none" stroke="black" points="272.5,-565.5 272.5,-708.5 532.5,-708.5 532.5,-565.5 272.5,-565.5"/>
<text text-anchor="start" x="280.5" y="-693.3" font-family="Times,serif" font-size="14.00">after_if_805723b_0:</text>
<text text-anchor="start" x="280.5" y="-678.3" font-family="Times,serif" font-size="14.00"> v9 = IntToPtrCastExpr&lt;ptr&gt;(v7)</text>
<text text-anchor="start" x="280.5" y="-663.3" font-family="Times,serif" font-size="14.00"> *(v9) = (*(v9) | v13)</text>
<text text-anchor="start" x="280.5" y="-648.3" font-family="Times,serif" font-size="14.00"> g1 = 0</text>
<text text-anchor="start" x="280.5" y="-633.3" font-family="Times,serif" font-size="14.00"> g3 = v1</text>
<text text-anchor="start" x="280.5" y="-618.3" font-family="Times,serif" font-size="14.00"> g7 = v3</text>
<text text-anchor="start" x="280.5" y="-603.3" font-family="Times,serif" font-size="14.00"> g5 = v4</text>
<text text-anchor="start" x="280.5" y="-588.3" font-family="Times,serif" font-size="14.00"> g2 = v5</text>
<text text-anchor="start" x="280.5" y="-573.3" font-family="Times,serif" font-size="14.00"> return 0</text>
</g>
<!-- Node0x21cac320&#45;&gt;Node0xdf90d90 -->
<g id="edge23" class="edge"><title>Node0x21cac320&#45;&gt;Node0xdf90d90</title>
<path fill="none" stroke="black" d="M340.637,-760.42C346.356,-749.101 354.168,-733.643 362.315,-717.522"/>
<polygon fill="black" stroke="black" points="365.477,-719.023 366.864,-708.519 359.23,-715.866 365.477,-719.023"/>
</g>
<!-- Node0xdf91480&#45;&gt;Node0xdf90d90 -->
<g id="edge24" class="edge"><title>Node0xdf91480&#45;&gt;Node0xdf90d90</title>
<path fill="none" stroke="black" d="M467.426,-761.272C461.467,-749.958 453.197,-734.256 444.552,-717.843"/>
<polygon fill="black" stroke="black" points="447.48,-715.891 439.724,-708.674 441.287,-719.153 447.48,-715.891"/>
</g>
<!-- Node0xdf910c0&#45;&gt;Node0x1b8fbc70 -->
<g id="edge25" class="edge"><title>Node0xdf910c0&#45;&gt;Node0x1b8fbc70</title>
<path fill="none" stroke="black" d="M613.611,-817.202C605.785,-793.051 598.5,-763.144 598.5,-735.5 598.5,-735.5 598.5,-735.5 598.5,-168 598.5,-132.629 584.502,-93.9633 573.498,-69.032"/>
<polygon fill="black" stroke="black" points="576.651,-67.5119 569.313,-59.8694 570.284,-70.4197 576.651,-67.5119"/>
</g>
<!-- Node0x21cac460 -->
<g id="node23" class="node"><title>Node0x21cac460</title>
<polygon fill="none" stroke="black" points="808.5,-761.5 808.5,-797.5 916.5,-797.5 916.5,-761.5 808.5,-761.5"/>
<text text-anchor="start" x="816.5" y="-775.8" font-family="Times,serif" font-size="14.00">if (v14 != 0):</text>
</g>
<!-- Node0x21cac5b0&#45;&gt;Node0x21cac460 -->
<g id="edge26" class="edge"><title>Node0x21cac5b0&#45;&gt;Node0x21cac460</title>
<path fill="none" stroke="black" d="M862.5,-934.373C862.5,-894.742 862.5,-839.987 862.5,-807.607"/>
<polygon fill="black" stroke="black" points="866,-807.538 862.5,-797.538 859,-807.538 866,-807.538"/>
</g>
<!-- Node0xdf90d90&#45;&gt;Node0x1b8fbc70 -->
<g id="edge27" class="edge"><title>Node0xdf90d90&#45;&gt;Node0x1b8fbc70</title>
<path fill="none" stroke="black" d="M443.68,-565.14C454.15,-541.129 462.5,-513.632 462.5,-487 462.5,-487 462.5,-487 462.5,-168 462.5,-125.227 498.299,-88.313 526.624,-65.8005"/>
<polygon fill="black" stroke="black" points="528.949,-68.4277 534.752,-59.5629 524.688,-62.8745 528.949,-68.4277"/>
</g>
<!-- Node0xdf91380 -->
<g id="node24" class="node"><title>Node0xdf91380</title>
<polygon fill="none" stroke="black" points="628,-603 628,-671 1005,-671 1005,-603 628,-603"/>
<text text-anchor="start" x="636" y="-655.8" font-family="Times,serif" font-size="14.00">if_8057237_0_true:</text>
<text text-anchor="start" x="636" y="-640.8" font-family="Times,serif" font-size="14.00"> v15 = ((4294967294 &gt;&gt; (32 &#45; v14)) | (&#45;2 &lt;&lt; v14))</text>
<text text-anchor="start" x="636" y="-625.8" font-family="Times,serif" font-size="14.00"> g6 = v15</text>
<text text-anchor="start" x="636" y="-610.8" font-family="Times,serif" font-size="14.00"> v12 = v15</text>
</g>
<!-- Node0x21cac460&#45;&gt;Node0xdf91380 -->
<g id="edge28" class="edge"><title>Node0x21cac460&#45;&gt;Node0xdf91380</title>
<path fill="none" stroke="black" d="M856.859,-761.272C850.343,-741.367 839.38,-707.884 830.524,-680.834"/>
<polygon fill="black" stroke="black" points="833.806,-679.611 827.369,-671.196 827.154,-681.789 833.806,-679.611"/>
<text text-anchor="middle" x="881" y="-730.8" font-family="Times,serif" font-size="14.00">v14 != 0</text>
</g>
<!-- Node0x21cab480 -->
<g id="node25" class="node"><title>Node0x21cab480</title>
<polygon fill="none" stroke="black" points="686.5,-444.5 686.5,-527.5 946.5,-527.5 946.5,-444.5 686.5,-444.5"/>
<text text-anchor="start" x="694.5" y="-512.3" font-family="Times,serif" font-size="14.00">after_if_8057237_0:</text>
<text text-anchor="start" x="694.5" y="-497.3" font-family="Times,serif" font-size="14.00"> v8 = IntToPtrCastExpr&lt;ptr&gt;(v7)</text>
<text text-anchor="start" x="694.5" y="-482.3" font-family="Times,serif" font-size="14.00"> *(v8) = (*(v8) &amp; v12)</text>
<text text-anchor="start" x="694.5" y="-467.3" font-family="Times,serif" font-size="14.00"> v10 = (g4 % 32)</text>
<text text-anchor="start" x="694.5" y="-452.3" font-family="Times,serif" font-size="14.00"> v11 = (g3 % 256)</text>
</g>
<!-- Node0x21cac460&#45;&gt;Node0x21cab480 -->
<g id="edge29" class="edge"><title>Node0x21cac460&#45;&gt;Node0x21cab480</title>
<path fill="none" stroke="black" d="M916.571,-769.091C950.995,-760 993.016,-742.447 1014.5,-709 1049.09,-655.152 1050.52,-617.902 1014.5,-565 1000.09,-543.836 978.972,-528.414 955.834,-517.177"/>
<polygon fill="black" stroke="black" points="957.074,-513.895 946.524,-512.92 954.163,-520.261 957.074,-513.895"/>
<text text-anchor="middle" x="1075" y="-633.3" font-family="Times,serif" font-size="14.00">v14 == 0</text>
</g>
<!-- Node0xdf91380&#45;&gt;Node0x21cab480 -->
<g id="edge30" class="edge"><title>Node0xdf91380&#45;&gt;Node0x21cab480</title>
<path fill="none" stroke="black" d="M816.5,-602.932C816.5,-583.849 816.5,-559.449 816.5,-537.96"/>
<polygon fill="black" stroke="black" points="820,-537.681 816.5,-527.681 813,-537.681 820,-537.681"/>
</g>
<!-- Node0x21caad90 -->
<g id="node26" class="node"><title>Node0x21caad90</title>
<polygon fill="none" stroke="black" points="762.5,-368.5 762.5,-406.5 870.5,-406.5 870.5,-368.5 762.5,-368.5"/>
<text text-anchor="start" x="770.5" y="-391.3" font-family="Times,serif" font-size="14.00">if (v10 != 0):</text>
<text text-anchor="start" x="770.5" y="-376.3" font-family="Times,serif" font-size="14.00"> else:</text>
</g>
<!-- Node0x21cab480&#45;&gt;Node0x21caad90 -->
<g id="edge31" class="edge"><title>Node0x21cab480&#45;&gt;Node0x21caad90</title>
<path fill="none" stroke="black" d="M816.5,-444.355C816.5,-435.083 816.5,-425.427 816.5,-416.803"/>
<polygon fill="black" stroke="black" points="820,-416.538 816.5,-406.538 813,-416.538 820,-416.538"/>
</g>
<!-- Node0xdf91400 -->
<g id="node27" class="node"><title>Node0xdf91400</title>
<polygon fill="none" stroke="black" points="641.5,-278.5 641.5,-316.5 805.5,-316.5 805.5,-278.5 641.5,-278.5"/>
<text text-anchor="start" x="649.5" y="-301.3" font-family="Times,serif" font-size="14.00">if_805723b_0_true:</text>
<text text-anchor="start" x="649.5" y="-286.3" font-family="Times,serif" font-size="14.00"> v13 = (v11 &lt;&lt; v10)</text>
</g>
<!-- Node0x21caad90&#45;&gt;Node0xdf91400 -->
<g id="edge32" class="edge"><title>Node0x21caad90&#45;&gt;Node0xdf91400</title>
<path fill="none" stroke="black" d="M792.623,-368.155C785.645,-362.523 778.118,-356.178 771.5,-350 762.881,-341.954 753.942,-332.659 746.148,-324.199"/>
<polygon fill="black" stroke="black" points="748.669,-321.77 739.353,-316.724 743.489,-326.478 748.669,-321.77"/>
<text text-anchor="middle" x="803" y="-338.8" font-family="Times,serif" font-size="14.00">v10 != 0</text>
</g>
<!-- Node0x21cac1e0 -->
<g id="node28" class="node"><title>Node0x21cac1e0</title>
<polygon fill="none" stroke="black" points="823.5,-279.5 823.5,-315.5 913.5,-315.5 913.5,-279.5 823.5,-279.5"/>
<text text-anchor="start" x="831.5" y="-293.8" font-family="Times,serif" font-size="14.00">v13 = v11</text>
</g>
<!-- Node0x21caad90&#45;&gt;Node0x21cac1e0 -->
<g id="edge33" class="edge"><title>Node0x21caad90&#45;&gt;Node0x21cac1e0</title>
<path fill="none" stroke="black" d="M827.274,-368.266C834.791,-355.547 844.928,-338.392 853.269,-324.276"/>
<polygon fill="black" stroke="black" points="856.371,-325.906 858.445,-315.516 850.344,-322.345 856.371,-325.906"/>
<text text-anchor="middle" x="880" y="-338.8" font-family="Times,serif" font-size="14.00">v10 == 0</text>
</g>
<!-- Node0x21ca9f30 -->
<g id="node29" class="node"><title>Node0x21ca9f30</title>
<polygon fill="none" stroke="black" points="626.5,-97.5 626.5,-240.5 886.5,-240.5 886.5,-97.5 626.5,-97.5"/>
<text text-anchor="start" x="634.5" y="-225.3" font-family="Times,serif" font-size="14.00">after_if_805723b_0:</text>
<text text-anchor="start" x="634.5" y="-210.3" font-family="Times,serif" font-size="14.00"> v9 = IntToPtrCastExpr&lt;ptr&gt;(v7)</text>
<text text-anchor="start" x="634.5" y="-195.3" font-family="Times,serif" font-size="14.00"> *(v9) = (*(v9) | v13)</text>
<text text-anchor="start" x="634.5" y="-180.3" font-family="Times,serif" font-size="14.00"> g1 = 0</text>
<text text-anchor="start" x="634.5" y="-165.3" font-family="Times,serif" font-size="14.00"> g3 = v1</text>
<text text-anchor="start" x="634.5" y="-150.3" font-family="Times,serif" font-size="14.00"> g7 = v3</text>
<text text-anchor="start" x="634.5" y="-135.3" font-family="Times,serif" font-size="14.00"> g5 = v4</text>
<text text-anchor="start" x="634.5" y="-120.3" font-family="Times,serif" font-size="14.00"> g2 = v5</text>
<text text-anchor="start" x="634.5" y="-105.3" font-family="Times,serif" font-size="14.00"> return 0</text>
</g>
<!-- Node0xdf91400&#45;&gt;Node0x21ca9f30 -->
<g id="edge34" class="edge"><title>Node0xdf91400&#45;&gt;Node0x21ca9f30</title>
<path fill="none" stroke="black" d="M728.228,-278.376C730.275,-270.53 732.826,-260.751 735.552,-250.301"/>
<polygon fill="black" stroke="black" points="738.957,-251.112 738.095,-240.552 732.184,-249.345 738.957,-251.112"/>
</g>
<!-- Node0x21cac1e0&#45;&gt;Node0x21ca9f30 -->
<g id="edge35" class="edge"><title>Node0x21cac1e0&#45;&gt;Node0x21ca9f30</title>
<path fill="none" stroke="black" d="M853.395,-279.44C845.901,-270.975 836.259,-260.085 825.972,-248.466"/>
<polygon fill="black" stroke="black" points="828.384,-245.91 819.134,-240.743 823.143,-250.551 828.384,-245.91"/>
</g>
<!-- Node0x21ca9f30&#45;&gt;Node0x1b8fbc70 -->
<g id="edge36" class="edge"><title>Node0x21ca9f30&#45;&gt;Node0x1b8fbc70</title>
<path fill="none" stroke="black" d="M646.183,-97.3636C628.018,-85.732 610.426,-74.4677 595.958,-65.2037"/>
<polygon fill="black" stroke="black" points="597.685,-62.1535 587.376,-59.7086 593.91,-68.0486 597.685,-62.1535"/>
</g>
</g>
</svg>
