<?xml version="1.0" encoding="UTF-8" standalone="no"?>
<!DOCTYPE svg PUBLIC "-//W3C//DTD SVG 1.1//EN"
 "http://www.w3.org/Graphics/SVG/1.1/DTD/svg11.dtd">
<!-- Generated by graphviz version 2.38.0 (20140413.2041)
 -->
<!-- Title: Control&#45;flow graph for function &#39;mbedtls_set_alarm(a1, a2)&#39;. Pages: 1 -->
<svg width="454pt" height="278pt"
 viewBox="0.00 0.00 454.00 278.00" xmlns="http://www.w3.org/2000/svg" xmlns:xlink="http://www.w3.org/1999/xlink">
<g id="graph0" class="graph" transform="scale(1 1) rotate(0) translate(4 274)">
<title>Control&#45;flow graph for function &#39;mbedtls_set_alarm(a1, a2)&#39;.</title>
<polygon fill="white" stroke="none" points="-4,4 -4,-274 450,-274 450,4 -4,4"/>
<text text-anchor="middle" x="223" y="-7.8" font-family="Times,serif" font-size="14.00">Control&#45;flow graph for function &#39;mbedtls_set_alarm(a1, a2)&#39;.</text>
<!-- Node0x29dbb600 -->
<g id="node1" class="node"><title>Node0x29dbb600</title>
<polygon fill="none" stroke="black" points="193.5,-216.5 193.5,-269.5 252.5,-269.5 252.5,-216.5 193.5,-216.5"/>
<text text-anchor="start" x="201.5" y="-254.3" font-family="Times,serif" font-size="14.00">entry:</text>
<text text-anchor="start" x="201.5" y="-239.3" font-family="Times,serif" font-size="14.00"> a1</text>
<text text-anchor="start" x="201.5" y="-224.3" font-family="Times,serif" font-size="14.00"> a2</text>
</g>
<!-- Node0x9e7f220 -->
<g id="node2" class="node"><title>Node0x9e7f220</title>
<polygon fill="none" stroke="black" points="3,-96.5 3,-179.5 443,-179.5 443,-96.5 3,-96.5"/>
<text text-anchor="start" x="11" y="-164.3" font-family="Times,serif" font-size="14.00">0x80557e0:</text>
<text text-anchor="start" x="11" y="-149.3" font-family="Times,serif" font-size="14.00"> g212 = 0</text>
<text text-anchor="start" x="11" y="-134.3" font-family="Times,serif" font-size="14.00"> signal((SIGALARM &#45;&gt; 14), BitCastExpr&lt;ptr&gt;(sighandler))</text>
<text text-anchor="start" x="11" y="-119.3" font-family="Times,serif" font-size="14.00"> seconds</text>
<text text-anchor="start" x="11" y="-104.3" font-family="Times,serif" font-size="14.00"> return IntToPtrCastExpr&lt;ptr&gt;(alarm(seconds))</text>
</g>
<!-- Node0x29dbb600&#45;&gt;Node0x9e7f220 -->
<g id="edge1" class="edge"><title>Node0x29dbb600&#45;&gt;Node0x9e7f220</title>
<path fill="none" stroke="black" d="M223,-216.274C223,-208.222 223,-199.037 223,-189.878"/>
<polygon fill="black" stroke="black" points="226.5,-189.61 223,-179.61 219.5,-189.61 226.5,-189.61"/>
</g>
<!-- Node0x9e7f1c0 -->
<g id="node3" class="node"><title>Node0x9e7f1c0</title>
<polygon fill="none" stroke="black" points="196,-23.5 196,-59.5 250,-59.5 250,-23.5 196,-23.5"/>
<text text-anchor="start" x="204" y="-37.8" font-family="Times,serif" font-size="14.00">exit:</text>
</g>
<!-- Node0x9e7f220&#45;&gt;Node0x9e7f1c0 -->
<g id="edge2" class="edge"><title>Node0x9e7f220&#45;&gt;Node0x9e7f1c0</title>
<path fill="none" stroke="black" d="M223,-96.3751C223,-87.4706 223,-78.246 223,-70"/>
<polygon fill="black" stroke="black" points="226.5,-69.8327 223,-59.8328 219.5,-69.8328 226.5,-69.8327"/>
</g>
</g>
</svg>
