<?xml version="1.0" encoding="UTF-8" standalone="no"?>
<!DOCTYPE svg PUBLIC "-//W3C//DTD SVG 1.1//EN"
 "http://www.w3.org/Graphics/SVG/1.1/DTD/svg11.dtd">
<!-- Generated by graphviz version 2.38.0 (20140413.2041)
 -->
<!-- Title: Control&#45;flow graph for function &#39;ecdsa_verify_wrap(a1, a2, a3, a4, a5)&#39;. Pages: 1 -->
<svg width="530pt" height="550pt"
 viewBox="0.00 0.00 530.00 550.00" xmlns="http://www.w3.org/2000/svg" xmlns:xlink="http://www.w3.org/1999/xlink">
<g id="graph0" class="graph" transform="scale(1 1) rotate(0) translate(4 546)">
<title>Control&#45;flow graph for function &#39;ecdsa_verify_wrap(a1, a2, a3, a4, a5)&#39;.</title>
<polygon fill="white" stroke="none" points="-4,4 -4,-546 526,-546 526,4 -4,4"/>
<text text-anchor="middle" x="261" y="-7.8" font-family="Times,serif" font-size="14.00">Control&#45;flow graph for function &#39;ecdsa_verify_wrap(a1, a2, a3, a4, a5)&#39;.</text>
<!-- Node0x87ec580 -->
<g id="node1" class="node"><title>Node0x87ec580</title>
<polygon fill="none" stroke="black" points="231.5,-443.5 231.5,-541.5 290.5,-541.5 290.5,-443.5 231.5,-443.5"/>
<text text-anchor="start" x="239.5" y="-526.3" font-family="Times,serif" font-size="14.00">entry:</text>
<text text-anchor="start" x="239.5" y="-511.3" font-family="Times,serif" font-size="14.00"> a1</text>
<text text-anchor="start" x="239.5" y="-496.3" font-family="Times,serif" font-size="14.00"> a2</text>
<text text-anchor="start" x="239.5" y="-481.3" font-family="Times,serif" font-size="14.00"> a3</text>
<text text-anchor="start" x="239.5" y="-466.3" font-family="Times,serif" font-size="14.00"> a4</text>
<text text-anchor="start" x="239.5" y="-451.3" font-family="Times,serif" font-size="14.00"> a5</text>
</g>
<!-- Node0xb2625c0 -->
<g id="node2" class="node"><title>Node0xb2625c0</title>
<polygon fill="none" stroke="black" points="54,-337.5 54,-405.5 468,-405.5 468,-337.5 54,-337.5"/>
<text text-anchor="start" x="62" y="-390.3" font-family="Times,serif" font-size="14.00">0x804d680:</text>
<text text-anchor="start" x="62" y="-375.3" font-family="Times,serif" font-size="14.00"> v1</text>
<text text-anchor="start" x="62" y="-360.3" font-family="Times,serif" font-size="14.00"> v2 = mbedtls_ecdsa_read_signature(a1, a3, a4, a5, v1)</text>
<text text-anchor="start" x="62" y="-345.3" font-family="Times,serif" font-size="14.00"> result = v2</text>
</g>
<!-- Node0x87ec580&#45;&gt;Node0xb2625c0 -->
<g id="edge1" class="edge"><title>Node0x87ec580&#45;&gt;Node0xb2625c0</title>
<path fill="none" stroke="black" d="M261,-443.441C261,-434.354 261,-424.897 261,-415.961"/>
<polygon fill="black" stroke="black" points="264.5,-415.764 261,-405.764 257.5,-415.764 264.5,-415.764"/>
</g>
<!-- Node0x1053c640 -->
<g id="node3" class="node"><title>Node0x1053c640</title>
<polygon fill="none" stroke="black" points="188,-263.5 188,-299.5 334,-299.5 334,-263.5 188,-263.5"/>
<text text-anchor="start" x="196" y="-277.8" font-family="Times,serif" font-size="14.00">if (v2 == &#45;19456):</text>
</g>
<!-- Node0xb2625c0&#45;&gt;Node0x1053c640 -->
<g id="edge2" class="edge"><title>Node0xb2625c0&#45;&gt;Node0x1053c640</title>
<path fill="none" stroke="black" d="M261,-337.482C261,-328.328 261,-318.497 261,-309.715"/>
<polygon fill="black" stroke="black" points="264.5,-309.64 261,-299.64 257.5,-309.64 264.5,-309.64"/>
</g>
<!-- Node0x1053d640 -->
<g id="node4" class="node"><title>Node0x1053d640</title>
<polygon fill="none" stroke="black" points="127.5,-173.5 127.5,-211.5 282.5,-211.5 282.5,-173.5 127.5,-173.5"/>
<text text-anchor="start" x="135.5" y="-196.3" font-family="Times,serif" font-size="14.00">if_804d6b8_0_true:</text>
<text text-anchor="start" x="135.5" y="-181.3" font-family="Times,serif" font-size="14.00"> result = &#45;14592</text>
</g>
<!-- Node0x1053c640&#45;&gt;Node0x1053d640 -->
<g id="edge3" class="edge"><title>Node0x1053c640&#45;&gt;Node0x1053d640</title>
<path fill="none" stroke="black" d="M222.273,-263.301C215.344,-258.413 209.05,-252.363 205,-245 201.165,-238.028 199.996,-229.679 200.104,-221.753"/>
<polygon fill="black" stroke="black" points="203.598,-221.965 200.863,-211.729 196.618,-221.436 203.598,-221.965"/>
<text text-anchor="middle" x="255" y="-233.8" font-family="Times,serif" font-size="14.00">v2 == &#45;19456</text>
</g>
<!-- Node0x1053d500 -->
<g id="node5" class="node"><title>Node0x1053d500</title>
<polygon fill="none" stroke="black" points="204,-97.5 204,-135.5 364,-135.5 364,-97.5 204,-97.5"/>
<text text-anchor="start" x="212" y="-120.3" font-family="Times,serif" font-size="14.00">after_if_804d6b8_0:</text>
<text text-anchor="start" x="212" y="-105.3" font-family="Times,serif" font-size="14.00"> return result</text>
</g>
<!-- Node0x1053c640&#45;&gt;Node0x1053d500 -->
<g id="edge4" class="edge"><title>Node0x1053c640&#45;&gt;Node0x1053d500</title>
<path fill="none" stroke="black" d="M289.993,-263.279C296.046,-258.208 301.613,-252.084 305,-245 320.34,-212.914 308.628,-171.673 297.485,-144.92"/>
<polygon fill="black" stroke="black" points="300.688,-143.507 293.457,-135.763 294.28,-146.326 300.688,-143.507"/>
<text text-anchor="middle" x="360" y="-188.8" font-family="Times,serif" font-size="14.00">v2 != &#45;19456</text>
</g>
<!-- Node0x1053d640&#45;&gt;Node0x1053d500 -->
<g id="edge5" class="edge"><title>Node0x1053d640&#45;&gt;Node0x1053d500</title>
<path fill="none" stroke="black" d="M224.528,-173.208C234.382,-163.978 246.486,-152.64 257.196,-142.607"/>
<polygon fill="black" stroke="black" points="259.791,-144.972 264.697,-135.582 255.006,-139.864 259.791,-144.972"/>
</g>
<!-- Node0xb262a40 -->
<g id="node6" class="node"><title>Node0xb262a40</title>
<polygon fill="none" stroke="black" points="257,-23.5 257,-59.5 311,-59.5 311,-23.5 257,-23.5"/>
<text text-anchor="start" x="265" y="-37.8" font-family="Times,serif" font-size="14.00">exit:</text>
</g>
<!-- Node0x1053d500&#45;&gt;Node0xb262a40 -->
<g id="edge6" class="edge"><title>Node0x1053d500&#45;&gt;Node0xb262a40</title>
<path fill="none" stroke="black" d="M284,-97.4551C284,-89.2008 284,-79.2377 284,-70.0742"/>
<polygon fill="black" stroke="black" points="287.5,-69.8347 284,-59.8347 280.5,-69.8347 287.5,-69.8347"/>
</g>
</g>
</svg>
