<?xml version="1.0" encoding="UTF-8" standalone="no"?>
<!DOCTYPE svg PUBLIC "-//W3C//DTD SVG 1.1//EN"
 "http://www.w3.org/Graphics/SVG/1.1/DTD/svg11.dtd">
<!-- Generated by graphviz version 2.38.0 (20140413.2041)
 -->
<!-- Title: Control&#45;flow graph for function &#39;mbedtls_base64_encode(*a1, a2, *a3, *a4, a5)&#39;. Pages: 1 -->
<svg width="3090pt" height="2447pt"
 viewBox="0.00 0.00 3090.00 2447.00" xmlns="http://www.w3.org/2000/svg" xmlns:xlink="http://www.w3.org/1999/xlink">
<g id="graph0" class="graph" transform="scale(1 1) rotate(0) translate(4 2443)">
<title>Control&#45;flow graph for function &#39;mbedtls_base64_encode(*a1, a2, *a3, *a4, a5)&#39;.</title>
<polygon fill="white" stroke="none" points="-4,4 -4,-2443 3086,-2443 3086,4 -4,4"/>
<text text-anchor="middle" x="1541" y="-7.8" font-family="Times,serif" font-size="14.00">Control&#45;flow graph for function &#39;mbedtls_base64_encode(*a1, a2, *a3, *a4, a5)&#39;.</text>
<!-- Node0x20f38b20 -->
<g id="node1" class="node"><title>Node0x20f38b20</title>
<polygon fill="none" stroke="black" points="1484.5,-2340.5 1484.5,-2438.5 1543.5,-2438.5 1543.5,-2340.5 1484.5,-2340.5"/>
<text text-anchor="start" x="1492.5" y="-2423.3" font-family="Times,serif" font-size="14.00">entry:</text>
<text text-anchor="start" x="1492.5" y="-2408.3" font-family="Times,serif" font-size="14.00"> a1</text>
<text text-anchor="start" x="1492.5" y="-2393.3" font-family="Times,serif" font-size="14.00"> a2</text>
<text text-anchor="start" x="1492.5" y="-2378.3" font-family="Times,serif" font-size="14.00"> a3</text>
<text text-anchor="start" x="1492.5" y="-2363.3" font-family="Times,serif" font-size="14.00"> a4</text>
<text text-anchor="start" x="1492.5" y="-2348.3" font-family="Times,serif" font-size="14.00"> a5</text>
</g>
<!-- Node0x20f3de00 -->
<g id="node2" class="node"><title>Node0x20f3de00</title>
<polygon fill="none" stroke="black" points="1376,-2264.5 1376,-2302.5 1652,-2302.5 1652,-2264.5 1376,-2264.5"/>
<text text-anchor="start" x="1384" y="-2287.3" font-family="Times,serif" font-size="14.00">v1 = TruncCastExpr&lt;int32&gt;(a5)</text>
<text text-anchor="start" x="1384" y="-2272.3" font-family="Times,serif" font-size="14.00"> v2 = PtrToIntCastExpr&lt;int32&gt;(a4)</text>
</g>
<!-- Node0x20f38b20&#45;&gt;Node0x20f3de00 -->
<g id="edge1" class="edge"><title>Node0x20f38b20&#45;&gt;Node0x20f3de00</title>
<path fill="none" stroke="black" d="M1514,-2340.46C1514,-2330.95 1514,-2321.27 1514,-2312.69"/>
<polygon fill="black" stroke="black" points="1517.5,-2312.51 1514,-2302.51 1510.5,-2312.51 1517.5,-2312.51"/>
</g>
<!-- Node0x20f3de80 -->
<g id="node3" class="node"><title>Node0x20f3de80</title>
<polygon fill="none" stroke="black" points="1461.5,-2190.5 1461.5,-2226.5 1566.5,-2226.5 1566.5,-2190.5 1461.5,-2190.5"/>
<text text-anchor="start" x="1469.5" y="-2204.8" font-family="Times,serif" font-size="14.00">if (v1 == 0):</text>
</g>
<!-- Node0x20f3de00&#45;&gt;Node0x20f3de80 -->
<g id="edge2" class="edge"><title>Node0x20f3de00&#45;&gt;Node0x20f3de80</title>
<path fill="none" stroke="black" d="M1514,-2264.46C1514,-2256.2 1514,-2246.24 1514,-2237.07"/>
<polygon fill="black" stroke="black" points="1517.5,-2236.83 1514,-2226.83 1510.5,-2236.83 1517.5,-2236.83"/>
</g>
<!-- Node0x20f3e910 -->
<g id="node4" class="node"><title>Node0x20f3e910</title>
<polygon fill="none" stroke="black" points="36.5,-2013.5 36.5,-2066.5 137.5,-2066.5 137.5,-2013.5 36.5,-2013.5"/>
<text text-anchor="start" x="44.5" y="-2051.3" font-family="Times,serif" font-size="14.00">0x80690d8:</text>
<text text-anchor="start" x="44.5" y="-2036.3" font-family="Times,serif" font-size="14.00"> *(a3) = 0</text>
<text text-anchor="start" x="44.5" y="-2021.3" font-family="Times,serif" font-size="14.00"> return 0</text>
</g>
<!-- Node0x20f3de80&#45;&gt;Node0x20f3e910 -->
<g id="edge3" class="edge"><title>Node0x20f3de80&#45;&gt;Node0x20f3e910</title>
<path fill="none" stroke="black" d="M1461.09,-2201.33C1239.18,-2175.43 384.028,-2075.66 147.776,-2048.09"/>
<polygon fill="black" stroke="black" points="147.992,-2044.59 137.654,-2046.91 147.181,-2051.55 147.992,-2044.59"/>
<text text-anchor="middle" x="1236" y="-2160.8" font-family="Times,serif" font-size="14.00">v1 == 0</text>
</g>
<!-- Node0x20f3e2b0 -->
<g id="node5" class="node"><title>Node0x20f3e2b0</title>
<polygon fill="none" stroke="black" points="2102,-2085.5 2102,-2138.5 2446,-2138.5 2446,-2085.5 2102,-2085.5"/>
<text text-anchor="start" x="2110" y="-2123.3" font-family="Times,serif" font-size="14.00">v3 = ((2863311531 * a5) / 8589934592)</text>
<text text-anchor="start" x="2110" y="-2108.3" font-family="Times,serif" font-size="14.00"> v4 = (3 * v3)</text>
<text text-anchor="start" x="2110" y="-2093.3" font-family="Times,serif" font-size="14.00"> v5 = (ExtCastExpr&lt;int32&gt;((v1 != v4)) + v3)</text>
</g>
<!-- Node0x20f3de80&#45;&gt;Node0x20f3e2b0 -->
<g id="edge4" class="edge"><title>Node0x20f3de80&#45;&gt;Node0x20f3e2b0</title>
<path fill="none" stroke="black" d="M1566.54,-2200.97C1673.27,-2187.7 1919.91,-2157.03 2091.75,-2135.66"/>
<polygon fill="black" stroke="black" points="2092.43,-2139.1 2101.93,-2134.4 2091.57,-2132.16 2092.43,-2139.1"/>
<text text-anchor="middle" x="1944" y="-2160.8" font-family="Times,serif" font-size="14.00">v1 != 0</text>
</g>
<!-- Node0x20f3dd80 -->
<g id="node6" class="node"><title>Node0x20f3dd80</title>
<polygon fill="none" stroke="black" points="2649,-23.5 2649,-59.5 2703,-59.5 2703,-23.5 2649,-23.5"/>
<text text-anchor="start" x="2657" y="-37.8" font-family="Times,serif" font-size="14.00">exit:</text>
</g>
<!-- Node0x20f3e910&#45;&gt;Node0x20f3dd80 -->
<g id="edge5" class="edge"><title>Node0x20f3e910&#45;&gt;Node0x20f3dd80</title>
<path fill="none" stroke="black" d="M48.5873,-2013.3C25.2812,-1994.36 0,-1966.26 0,-1933.5 0,-1933.5 0,-1933.5 0,-115.5 0,-46.3541 2313.82,-42.6815 2638.36,-42.5065"/>
<polygon fill="black" stroke="black" points="2638.64,-46.0065 2648.64,-42.5018 2638.64,-39.0065 2638.64,-46.0065"/>
</g>
<!-- Node0x20f3e250 -->
<g id="node7" class="node"><title>Node0x20f3e250</title>
<polygon fill="none" stroke="black" points="2707,-1958.5 2707,-1994.5 2881,-1994.5 2881,-1958.5 2707,-1958.5"/>
<text text-anchor="start" x="2715" y="-1972.8" font-family="Times,serif" font-size="14.00">if (v5 &gt; 1073741823):</text>
</g>
<!-- Node0x20f3e2b0&#45;&gt;Node0x20f3e250 -->
<g id="edge6" class="edge"><title>Node0x20f3e2b0&#45;&gt;Node0x20f3e250</title>
<path fill="none" stroke="black" d="M2373.34,-2085.5C2473.74,-2059.72 2626.71,-2020.45 2717.88,-1997.04"/>
<polygon fill="black" stroke="black" points="2718.78,-2000.42 2727.6,-1994.55 2717.04,-1993.64 2718.78,-2000.42"/>
</g>
<!-- Node0x20f3e360 -->
<g id="node8" class="node"><title>Node0x20f3e360</title>
<polygon fill="none" stroke="black" points="2951.5,-1796.5 2951.5,-1849.5 3052.5,-1849.5 3052.5,-1796.5 2951.5,-1796.5"/>
<text text-anchor="start" x="2959.5" y="-1834.3" font-family="Times,serif" font-size="14.00">0x8069130:</text>
<text text-anchor="start" x="2959.5" y="-1819.3" font-family="Times,serif" font-size="14.00"> *(a3) = &#45;1</text>
<text text-anchor="start" x="2959.5" y="-1804.3" font-family="Times,serif" font-size="14.00"> return &#45;42</text>
</g>
<!-- Node0x20f3e250&#45;&gt;Node0x20f3e360 -->
<g id="edge7" class="edge"><title>Node0x20f3e250&#45;&gt;Node0x20f3e360</title>
<path fill="none" stroke="black" d="M2881.33,-1966.38C2901.75,-1961.08 2922.37,-1952.82 2939,-1940 2965.23,-1919.78 2981.93,-1885.41 2991.49,-1859.32"/>
<polygon fill="black" stroke="black" points="2994.83,-1860.37 2994.81,-1849.77 2988.22,-1858.07 2994.83,-1860.37"/>
<text text-anchor="middle" x="3017.5" y="-1928.8" font-family="Times,serif" font-size="14.00">v5 &gt; 1073741823</text>
</g>
<!-- Node0x20f3e710 -->
<g id="node9" class="node"><title>Node0x20f3e710</title>
<polygon fill="none" stroke="black" points="2723.5,-1868.5 2723.5,-1906.5 2864.5,-1906.5 2864.5,-1868.5 2723.5,-1868.5"/>
<text text-anchor="start" x="2731.5" y="-1891.3" font-family="Times,serif" font-size="14.00">v6 = ((4 * v5) | 1)</text>
<text text-anchor="start" x="2731.5" y="-1876.3" font-family="Times,serif" font-size="14.00"> result</text>
</g>
<!-- Node0x20f3e250&#45;&gt;Node0x20f3e710 -->
<g id="edge8" class="edge"><title>Node0x20f3e250&#45;&gt;Node0x20f3e710</title>
<path fill="none" stroke="black" d="M2794,-1958.31C2794,-1946.51 2794,-1930.57 2794,-1916.9"/>
<polygon fill="black" stroke="black" points="2797.5,-1916.55 2794,-1906.55 2790.5,-1916.55 2797.5,-1916.55"/>
<text text-anchor="middle" x="2864.5" y="-1928.8" font-family="Times,serif" font-size="14.00">v5 &lt;= 1073741823</text>
</g>
<!-- Node0x20f3e360&#45;&gt;Node0x20f3dd80 -->
<g id="edge9" class="edge"><title>Node0x20f3e360&#45;&gt;Node0x20f3dd80</title>
<path fill="none" stroke="black" d="M3008.81,-1796.14C3013.9,-1774.49 3020,-1742.7 3020,-1714.5 3020,-1714.5 3020,-1714.5 3020,-115.5 3020,-53.386 2802.67,-43.8941 2713.5,-42.6138"/>
<polygon fill="black" stroke="black" points="2713.32,-39.1116 2703.28,-42.4954 2713.24,-46.1112 2713.32,-39.1116"/>
</g>
<!-- Node0x20f3e770 -->
<g id="node10" class="node"><title>Node0x20f3e770</title>
<polygon fill="none" stroke="black" points="2743.5,-1739.5 2743.5,-1777.5 2844.5,-1777.5 2844.5,-1739.5 2743.5,-1739.5"/>
<text text-anchor="start" x="2751.5" y="-1762.3" font-family="Times,serif" font-size="14.00">if (v6 &gt; a2):</text>
<text text-anchor="start" x="2751.5" y="-1747.3" font-family="Times,serif" font-size="14.00"> else:</text>
</g>
<!-- Node0x20f3e710&#45;&gt;Node0x20f3e770 -->
<g id="edge10" class="edge"><title>Node0x20f3e710&#45;&gt;Node0x20f3e770</title>
<path fill="none" stroke="black" d="M2794,-1868.3C2794,-1847.27 2794,-1812.41 2794,-1787.82"/>
<polygon fill="black" stroke="black" points="2797.5,-1787.66 2794,-1777.66 2790.5,-1787.66 2797.5,-1787.66"/>
</g>
<!-- Node0x23628d60 -->
<g id="node11" class="node"><title>Node0x23628d60</title>
<polygon fill="none" stroke="black" points="2879.5,-1577.5 2879.5,-1630.5 2986.5,-1630.5 2986.5,-1577.5 2879.5,-1577.5"/>
<text text-anchor="start" x="2887.5" y="-1615.3" font-family="Times,serif" font-size="14.00">0x8069143:</text>
<text text-anchor="start" x="2887.5" y="-1600.3" font-family="Times,serif" font-size="14.00"> *(a3) = v6</text>
<text text-anchor="start" x="2887.5" y="-1585.3" font-family="Times,serif" font-size="14.00"> result = &#45;42</text>
</g>
<!-- Node0x20f3e770&#45;&gt;Node0x23628d60 -->
<g id="edge11" class="edge"><title>Node0x20f3e770&#45;&gt;Node0x23628d60</title>
<path fill="none" stroke="black" d="M2810.49,-1739.41C2833.16,-1714.53 2874.37,-1669.33 2902.68,-1638.26"/>
<polygon fill="black" stroke="black" points="2905.44,-1640.44 2909.59,-1630.69 2900.26,-1635.72 2905.44,-1640.44"/>
<text text-anchor="middle" x="2868" y="-1709.8" font-family="Times,serif" font-size="14.00">v6 &gt; a2</text>
</g>
<!-- Node0x23628e00 -->
<g id="node12" class="node"><title>Node0x23628e00</title>
<polygon fill="none" stroke="black" points="2288,-1649.5 2288,-1687.5 2560,-1687.5 2560,-1649.5 2288,-1649.5"/>
<text text-anchor="start" x="2296" y="-1672.3" font-family="Times,serif" font-size="14.00">v7 = PtrToIntCastExpr&lt;int32&gt;(a1)</text>
<text text-anchor="start" x="2296" y="-1657.3" font-family="Times,serif" font-size="14.00"> v8 = 0</text>
</g>
<!-- Node0x20f3e770&#45;&gt;Node0x23628e00 -->
<g id="edge12" class="edge"><title>Node0x20f3e770&#45;&gt;Node0x23628e00</title>
<path fill="none" stroke="black" d="M2743.33,-1745.45C2683.22,-1731.15 2582.06,-1707.09 2509.7,-1689.88"/>
<polygon fill="black" stroke="black" points="2510.23,-1686.41 2499.69,-1687.5 2508.61,-1693.22 2510.23,-1686.41"/>
<text text-anchor="middle" x="2665" y="-1709.8" font-family="Times,serif" font-size="14.00">v6 &lt;= a2</text>
</g>
<!-- Node0x20f3e8b0 -->
<g id="node13" class="node"><title>Node0x20f3e8b0</title>
<polygon fill="none" stroke="black" points="2619.5,-97.5 2619.5,-135.5 2732.5,-135.5 2732.5,-97.5 2619.5,-97.5"/>
<text text-anchor="start" x="2627.5" y="-120.3" font-family="Times,serif" font-size="14.00">0x8069092:</text>
<text text-anchor="start" x="2627.5" y="-105.3" font-family="Times,serif" font-size="14.00"> return result</text>
</g>
<!-- Node0x23628d60&#45;&gt;Node0x20f3e8b0 -->
<g id="edge13" class="edge"><title>Node0x23628d60&#45;&gt;Node0x20f3e8b0</title>
<path fill="none" stroke="black" d="M2952.65,-1577.21C2966.28,-1556.74 2982,-1526.78 2982,-1497.5 2982,-1497.5 2982,-1497.5 2982,-206.5 2982,-157.089 2833.04,-133.302 2742.98,-123.436"/>
<polygon fill="black" stroke="black" points="2743.15,-119.935 2732.84,-122.356 2742.41,-126.895 2743.15,-119.935"/>
</g>
<!-- Node0x20f3e3f0 -->
<g id="node14" class="node"><title>Node0x20f3e3f0</title>
<polygon fill="none" stroke="black" points="2149.5,-1522.5 2149.5,-1558.5 2248.5,-1558.5 2248.5,-1522.5 2149.5,-1522.5"/>
<text text-anchor="start" x="2157.5" y="-1536.8" font-family="Times,serif" font-size="14.00">if (v4 != 0):</text>
</g>
<!-- Node0x23628e00&#45;&gt;Node0x20f3e3f0 -->
<g id="edge14" class="edge"><title>Node0x23628e00&#45;&gt;Node0x20f3e3f0</title>
<path fill="none" stroke="black" d="M2391.76,-1649.45C2351.26,-1626.77 2281.81,-1587.87 2238.26,-1563.48"/>
<polygon fill="black" stroke="black" points="2239.81,-1560.34 2229.38,-1558.51 2236.39,-1566.45 2239.81,-1560.34"/>
</g>
<!-- Node0x20f3e8b0&#45;&gt;Node0x20f3dd80 -->
<g id="edge15" class="edge"><title>Node0x20f3e8b0&#45;&gt;Node0x20f3dd80</title>
<path fill="none" stroke="black" d="M2676,-97.4551C2676,-89.2008 2676,-79.2377 2676,-70.0742"/>
<polygon fill="black" stroke="black" points="2679.5,-69.8347 2676,-59.8347 2672.5,-69.8347 2679.5,-69.8347"/>
</g>
<!-- Node0xdff60b0 -->
<g id="node15" class="node"><title>Node0xdff60b0</title>
<polygon fill="none" stroke="black" points="2167,-1434.5 2167,-1470.5 2231,-1470.5 2231,-1434.5 2167,-1434.5"/>
<text text-anchor="start" x="2175" y="-1448.8" font-family="Times,serif" font-size="14.00">v9 = 0</text>
</g>
<!-- Node0x20f3e3f0&#45;&gt;Node0xdff60b0 -->
<g id="edge16" class="edge"><title>Node0x20f3e3f0&#45;&gt;Node0xdff60b0</title>
<path fill="none" stroke="black" d="M2199,-1522.1C2199,-1510.25 2199,-1494.32 2199,-1480.79"/>
<polygon fill="black" stroke="black" points="2202.5,-1480.58 2199,-1470.58 2195.5,-1480.58 2202.5,-1480.58"/>
<text text-anchor="middle" x="2226" y="-1492.8" font-family="Times,serif" font-size="14.00">v4 != 0</text>
</g>
<!-- Node0x20f3e450 -->
<g id="node16" class="node"><title>Node0x20f3e450</title>
<polygon fill="none" stroke="black" points="1137.5,-820.5 1137.5,-856.5 1218.5,-856.5 1218.5,-820.5 1137.5,-820.5"/>
<text text-anchor="start" x="1145.5" y="-834.8" font-family="Times,serif" font-size="14.00">v19 = v7</text>
</g>
<!-- Node0x20f3e3f0&#45;&gt;Node0x20f3e450 -->
<g id="edge17" class="edge"><title>Node0x20f3e3f0&#45;&gt;Node0x20f3e450</title>
<path fill="none" stroke="black" d="M2149.41,-1537.95C1944.94,-1531.25 1178,-1502.84 1178,-1453.5 1178,-1453.5 1178,-1453.5 1178,-927.5 1178,-907.13 1178,-884.109 1178,-866.722"/>
<polygon fill="black" stroke="black" points="1181.5,-866.699 1178,-856.699 1174.5,-866.7 1181.5,-866.699"/>
<text text-anchor="middle" x="1208" y="-1195.8" font-family="Times,serif" font-size="14.00">v4 == 0</text>
</g>
<!-- Node0x23628c50 -->
<g id="node17" class="node"><title>Node0x23628c50</title>
<polygon fill="none" stroke="black" points="2150.5,-1360.5 2150.5,-1396.5 2247.5,-1396.5 2247.5,-1360.5 2150.5,-1360.5"/>
<text text-anchor="start" x="2158.5" y="-1374.8" font-family="Times,serif" font-size="14.00">while True:</text>
</g>
<!-- Node0xdff60b0&#45;&gt;Node0x23628c50 -->
<g id="edge18" class="edge"><title>Node0xdff60b0&#45;&gt;Node0x23628c50</title>
<path fill="none" stroke="black" d="M2199,-1434.44C2199,-1426.31 2199,-1416.38 2199,-1407.2"/>
<polygon fill="black" stroke="black" points="2202.5,-1406.94 2199,-1396.94 2195.5,-1406.94 2202.5,-1406.94"/>
</g>
<!-- Node0x20f3bc20 -->
<g id="node18" class="node"><title>Node0x20f3bc20</title>
<polygon fill="none" stroke="black" points="850.5,-746.5 850.5,-782.5 951.5,-782.5 951.5,-746.5 850.5,-746.5"/>
<text text-anchor="start" x="858.5" y="-760.8" font-family="Times,serif" font-size="14.00">if (v1 &gt; v8):</text>
</g>
<!-- Node0x20f3e450&#45;&gt;Node0x20f3bc20 -->
<g id="edge19" class="edge"><title>Node0x20f3e450&#45;&gt;Node0x20f3bc20</title>
<path fill="none" stroke="black" d="M1137.43,-826.953C1091.02,-814.892 1014.6,-795.028 961.242,-781.158"/>
<polygon fill="black" stroke="black" points="962.118,-777.77 951.559,-778.642 960.357,-784.545 962.118,-777.77"/>
</g>
<!-- Node0x23629e50 -->
<g id="node19" class="node"><title>Node0x23629e50</title>
<polygon fill="none" stroke="black" points="1255.5,-1090.5 1255.5,-1308.5 2896.5,-1308.5 2896.5,-1090.5 1255.5,-1090.5"/>
<text text-anchor="start" x="1263.5" y="-1293.3" font-family="Times,serif" font-size="14.00">v10 = *(IntToPtrCastExpr&lt;ptr&gt;(v2))</text>
<text text-anchor="start" x="1263.5" y="-1278.3" font-family="Times,serif" font-size="14.00"> v11 = *(IntToPtrCastExpr&lt;ptr&gt;((v2 + 1)))</text>
<text text-anchor="start" x="1263.5" y="-1263.3" font-family="Times,serif" font-size="14.00"> v2 = (v2 + 3)</text>
<text text-anchor="start" x="1263.5" y="-1248.3" font-family="Times,serif" font-size="14.00"> v12 = *(IntToPtrCastExpr&lt;ptr&gt;((ExtCastExpr&lt;int32&gt;((v10 / 4)) + PtrToIntCastExpr&lt;int32&gt;(&quot;ABCDEFGHIJKLMNOPQRSTUVWXYZabcdefghijklmnopqrstuvwxyz0123456789+/&quot;))))</text>
<text text-anchor="start" x="1263.5" y="-1233.3" font-family="Times,serif" font-size="14.00"> v13 = ExtCastExpr&lt;int32&gt;(*(IntToPtrCastExpr&lt;ptr&gt;((v2 + 2))))</text>
<text text-anchor="start" x="1263.5" y="-1218.3" font-family="Times,serif" font-size="14.00"> v14 = *(IntToPtrCastExpr&lt;ptr&gt;(((ExtCastExpr&lt;int32&gt;((v11 / 16)) | (16 * ExtCastExpr&lt;int32&gt;((v10 % 4)))) + PtrToIntCastExpr&lt;int32&gt;(&quot;ABCDEFGHIJKLMNOPQRSTUVWXYZabcdefghijklmnopqrstuvwxyz0123456789+/&quot;))))</text>
<text text-anchor="start" x="1263.5" y="-1203.3" font-family="Times,serif" font-size="14.00"> *(IntToPtrCastExpr&lt;ptr&gt;(v7)) = v12</text>
<text text-anchor="start" x="1263.5" y="-1188.3" font-family="Times,serif" font-size="14.00"> *(IntToPtrCastExpr&lt;ptr&gt;((v7 + 1))) = v14</text>
<text text-anchor="start" x="1263.5" y="-1173.3" font-family="Times,serif" font-size="14.00"> v15 = *(IntToPtrCastExpr&lt;ptr&gt;(((((v13 / 64) + (4 * ExtCastExpr&lt;int32&gt;((v11 % 16)))) % 64) + PtrToIntCastExpr&lt;int32&gt;(&quot;ABCDEFGHIJKLMNOPQRSTUVWXYZabcdefghijklmnopqrstuvwxyz0123456789+/&quot;))))</text>
<text text-anchor="start" x="1263.5" y="-1158.3" font-family="Times,serif" font-size="14.00"> *(IntToPtrCastExpr&lt;ptr&gt;((v7 + 2))) = v15</text>
<text text-anchor="start" x="1263.5" y="-1143.3" font-family="Times,serif" font-size="14.00"> v16 = *(IntToPtrCastExpr&lt;ptr&gt;(((v13 % 64) + PtrToIntCastExpr&lt;int32&gt;(&quot;ABCDEFGHIJKLMNOPQRSTUVWXYZabcdefghijklmnopqrstuvwxyz0123456789+/&quot;))))</text>
<text text-anchor="start" x="1263.5" y="-1128.3" font-family="Times,serif" font-size="14.00"> *(IntToPtrCastExpr&lt;ptr&gt;((v7 + 3))) = v16</text>
<text text-anchor="start" x="1263.5" y="-1113.3" font-family="Times,serif" font-size="14.00"> v17 = (v7 + 4)</text>
<text text-anchor="start" x="1263.5" y="-1098.3" font-family="Times,serif" font-size="14.00"> v18 = (v9 + 3)</text>
</g>
<!-- Node0x23628c50&#45;&gt;Node0x23629e50 -->
<g id="edge20" class="edge"><title>Node0x23628c50&#45;&gt;Node0x23629e50</title>
<path fill="none" stroke="black" d="M2186.98,-1360.21C2179.35,-1349.22 2168.72,-1333.93 2157.05,-1317.13"/>
<polygon fill="black" stroke="black" points="2159.82,-1314.99 2151.24,-1308.78 2154.07,-1318.98 2159.82,-1314.99"/>
<text text-anchor="middle" x="2190" y="-1330.8" font-family="Times,serif" font-size="14.00">True</text>
</g>
<!-- Node0x23629a50 -->
<g id="node20" class="node"><title>Node0x23629a50</title>
<polygon fill="none" stroke="black" points="753,-656.5 753,-694.5 1049,-694.5 1049,-656.5 753,-656.5"/>
<text text-anchor="start" x="761" y="-679.3" font-family="Times,serif" font-size="14.00">v20 = v2</text>
<text text-anchor="start" x="761" y="-664.3" font-family="Times,serif" font-size="14.00"> v21 = *(IntToPtrCastExpr&lt;ptr&gt;(v20))</text>
</g>
<!-- Node0x20f3bc20&#45;&gt;Node0x23629a50 -->
<g id="edge21" class="edge"><title>Node0x20f3bc20&#45;&gt;Node0x23629a50</title>
<path fill="none" stroke="black" d="M901,-746.312C901,-734.511 901,-718.572 901,-704.904"/>
<polygon fill="black" stroke="black" points="904.5,-704.551 901,-694.551 897.5,-704.551 904.5,-704.551"/>
<text text-anchor="middle" x="929" y="-716.8" font-family="Times,serif" font-size="14.00">v1 &gt; v8</text>
</g>
<!-- Node0xf2020a0 -->
<g id="node21" class="node"><title>Node0xf2020a0</title>
<polygon fill="none" stroke="black" points="1725,-173.5 1725,-241.5 2069,-241.5 2069,-173.5 1725,-173.5"/>
<text text-anchor="start" x="1733" y="-226.3" font-family="Times,serif" font-size="14.00">0x8069083:</text>
<text text-anchor="start" x="1733" y="-211.3" font-family="Times,serif" font-size="14.00"> *(a3) = (v19 &#45; PtrToIntCastExpr&lt;int32&gt;(a1))</text>
<text text-anchor="start" x="1733" y="-196.3" font-family="Times,serif" font-size="14.00"> *(IntToPtrCastExpr&lt;ptr&gt;(v7)) = 0</text>
<text text-anchor="start" x="1733" y="-181.3" font-family="Times,serif" font-size="14.00"> result = 0</text>
</g>
<!-- Node0x20f3bc20&#45;&gt;Node0xf2020a0 -->
<g id="edge22" class="edge"><title>Node0x20f3bc20&#45;&gt;Node0xf2020a0</title>
<path fill="none" stroke="black" d="M850.237,-763.742C665.248,-763.965 38,-758.663 38,-676.5 38,-676.5 38,-676.5 38,-320 38,-236.602 1245.87,-215.206 1714.36,-210.044"/>
<polygon fill="black" stroke="black" points="1714.65,-213.541 1724.61,-209.933 1714.57,-206.542 1714.65,-213.541"/>
<text text-anchor="middle" x="72" y="-550.8" font-family="Times,serif" font-size="14.00">v1 &lt;= v8</text>
</g>
<!-- Node0x23628ff0 -->
<g id="node22" class="node"><title>Node0x23628ff0</title>
<polygon fill="none" stroke="black" points="2021,-1014.5 2021,-1052.5 2131,-1052.5 2131,-1014.5 2021,-1014.5"/>
<text text-anchor="start" x="2029" y="-1037.3" font-family="Times,serif" font-size="14.00">if (v4 &gt; v18):</text>
<text text-anchor="start" x="2029" y="-1022.3" font-family="Times,serif" font-size="14.00"> else:</text>
</g>
<!-- Node0x23629e50&#45;&gt;Node0x23628ff0 -->
<g id="edge23" class="edge"><title>Node0x23629e50&#45;&gt;Node0x23628ff0</title>
<path fill="none" stroke="black" d="M2076,-1090.48C2076,-1080.59 2076,-1071.25 2076,-1063.15"/>
<polygon fill="black" stroke="black" points="2079.5,-1062.92 2076,-1052.92 2072.5,-1062.92 2079.5,-1062.92"/>
</g>
<!-- Node0x23629af0 -->
<g id="node23" class="node"><title>Node0x23629af0</title>
<polygon fill="none" stroke="black" points="830,-580.5 830,-618.5 972,-618.5 972,-580.5 830,-580.5"/>
<text text-anchor="start" x="838" y="-603.3" font-family="Times,serif" font-size="14.00">if (v1 &gt; (v8 + 1)):</text>
<text text-anchor="start" x="838" y="-588.3" font-family="Times,serif" font-size="14.00"> else:</text>
</g>
<!-- Node0x23629a50&#45;&gt;Node0x23629af0 -->
<g id="edge24" class="edge"><title>Node0x23629a50&#45;&gt;Node0x23629af0</title>
<path fill="none" stroke="black" d="M901,-656.208C901,-647.964 901,-638.038 901,-628.862"/>
<polygon fill="black" stroke="black" points="904.5,-628.582 901,-618.582 897.5,-628.582 904.5,-628.582"/>
</g>
<!-- Node0xf2020a0&#45;&gt;Node0x20f3e8b0 -->
<g id="edge25" class="edge"><title>Node0xf2020a0&#45;&gt;Node0x20f3e8b0</title>
<path fill="none" stroke="black" d="M2069.4,-186.803C2239.45,-167.375 2490.61,-138.68 2609.27,-125.124"/>
<polygon fill="black" stroke="black" points="2609.76,-128.591 2619.3,-123.978 2608.97,-121.636 2609.76,-128.591"/>
</g>
<!-- Node0x2362a540 -->
<g id="node24" class="node"><title>Node0x2362a540</title>
<polygon fill="none" stroke="black" points="2656.5,-894.5 2656.5,-962.5 2757.5,-962.5 2757.5,-894.5 2656.5,-894.5"/>
<text text-anchor="start" x="2664.5" y="-947.3" font-family="Times,serif" font-size="14.00">0x8069008:</text>
<text text-anchor="start" x="2664.5" y="-932.3" font-family="Times,serif" font-size="14.00"> v7 = v17</text>
<text text-anchor="start" x="2664.5" y="-917.3" font-family="Times,serif" font-size="14.00"> v9 = v18</text>
<text text-anchor="start" x="2664.5" y="-902.3" font-family="Times,serif" font-size="14.00"> continue</text>
</g>
<!-- Node0x23628ff0&#45;&gt;Node0x2362a540 -->
<g id="edge26" class="edge"><title>Node0x23628ff0&#45;&gt;Node0x2362a540</title>
<path fill="none" stroke="black" d="M2131.17,-1023.49C2248.88,-1004.28 2523.86,-959.394 2646.31,-939.406"/>
<polygon fill="black" stroke="black" points="2646.97,-942.846 2656.27,-937.78 2645.84,-935.937 2646.97,-942.846"/>
<text text-anchor="middle" x="2424.5" y="-984.8" font-family="Times,serif" font-size="14.00">v4 &gt; v18</text>
</g>
<!-- Node0x2362a730 -->
<g id="node25" class="node"><title>Node0x2362a730</title>
<polygon fill="none" stroke="black" points="1706,-909.5 1706,-947.5 1792,-947.5 1792,-909.5 1706,-909.5"/>
<text text-anchor="start" x="1714" y="-932.3" font-family="Times,serif" font-size="14.00">v7 = v17</text>
<text text-anchor="start" x="1714" y="-917.3" font-family="Times,serif" font-size="14.00"> v8 = v18</text>
</g>
<!-- Node0x23628ff0&#45;&gt;Node0x2362a730 -->
<g id="edge27" class="edge"><title>Node0x23628ff0&#45;&gt;Node0x2362a730</title>
<path fill="none" stroke="black" d="M2020.9,-1015.14C1959.86,-995.919 1862.15,-965.139 1801.98,-946.187"/>
<polygon fill="black" stroke="black" points="1802.88,-942.802 1792.29,-943.136 1800.78,-949.478 1802.88,-942.802"/>
<text text-anchor="middle" x="1990.5" y="-984.8" font-family="Times,serif" font-size="14.00">v4 &lt;= v18</text>
</g>
<!-- Node0x2362a420 -->
<g id="node26" class="node"><title>Node0x2362a420</title>
<polygon fill="none" stroke="black" points="66,-400.5 66,-528.5 1550,-528.5 1550,-400.5 66,-400.5"/>
<text text-anchor="start" x="74" y="-513.3" font-family="Times,serif" font-size="14.00">0x80690f0:</text>
<text text-anchor="start" x="74" y="-498.3" font-family="Times,serif" font-size="14.00"> v2 = ExtCastExpr&lt;int32&gt;(*(IntToPtrCastExpr&lt;ptr&gt;((v20 + 1))))</text>
<text text-anchor="start" x="74" y="-483.3" font-family="Times,serif" font-size="14.00"> v22 = *(IntToPtrCastExpr&lt;ptr&gt;((ExtCastExpr&lt;int32&gt;((v21 / 4)) + PtrToIntCastExpr&lt;int32&gt;(&quot;ABCDEFGHIJKLMNOPQRSTUVWXYZabcdefghijklmnopqrstuvwxyz0123456789+/&quot;))))</text>
<text text-anchor="start" x="74" y="-468.3" font-family="Times,serif" font-size="14.00"> *(IntToPtrCastExpr&lt;ptr&gt;(v7)) = v22</text>
<text text-anchor="start" x="74" y="-453.3" font-family="Times,serif" font-size="14.00"> v23 = *(IntToPtrCastExpr&lt;ptr&gt;(((((v2 / 16) + (16 * ExtCastExpr&lt;int32&gt;(v21))) % 64) + PtrToIntCastExpr&lt;int32&gt;(&quot;ABCDEFGHIJKLMNOPQRSTUVWXYZabcdefghijklmnopqrstuvwxyz0123456789+/&quot;))))</text>
<text text-anchor="start" x="74" y="-438.3" font-family="Times,serif" font-size="14.00"> *(IntToPtrCastExpr&lt;ptr&gt;((v7 + 1))) = v23</text>
<text text-anchor="start" x="74" y="-423.3" font-family="Times,serif" font-size="14.00"> v24 = *(IntToPtrCastExpr&lt;ptr&gt;(((4 * (v2 % 16)) + PtrToIntCastExpr&lt;int32&gt;(&quot;ABCDEFGHIJKLMNOPQRSTUVWXYZabcdefghijklmnopqrstuvwxyz0123456789+/&quot;))))</text>
<text text-anchor="start" x="74" y="-408.3" font-family="Times,serif" font-size="14.00"> *(IntToPtrCastExpr&lt;ptr&gt;((v7 + 2))) = v24</text>
</g>
<!-- Node0x23629af0&#45;&gt;Node0x2362a420 -->
<g id="edge28" class="edge"><title>Node0x23629af0&#45;&gt;Node0x2362a420</title>
<path fill="none" stroke="black" d="M888.264,-580.286C880.215,-568.775 869.238,-553.077 857.987,-536.987"/>
<polygon fill="black" stroke="black" points="860.691,-534.746 852.092,-528.557 854.955,-538.758 860.691,-534.746"/>
<text text-anchor="middle" x="922.5" y="-550.8" font-family="Times,serif" font-size="14.00">v1 &gt; (v8 + 1)</text>
</g>
<!-- Node0x20f3c380 -->
<g id="node27" class="node"><title>Node0x20f3c380</title>
<polygon fill="none" stroke="black" points="1568.5,-423 1568.5,-506 2953.5,-506 2953.5,-423 1568.5,-423"/>
<text text-anchor="start" x="1576.5" y="-490.8" font-family="Times,serif" font-size="14.00">v25 = *(IntToPtrCastExpr&lt;ptr&gt;((ExtCastExpr&lt;int32&gt;((v21 / 4)) + PtrToIntCastExpr&lt;int32&gt;(&quot;ABCDEFGHIJKLMNOPQRSTUVWXYZabcdefghijklmnopqrstuvwxyz0123456789+/&quot;))))</text>
<text text-anchor="start" x="1576.5" y="-475.8" font-family="Times,serif" font-size="14.00"> v26 = *(IntToPtrCastExpr&lt;ptr&gt;(((16 * ExtCastExpr&lt;int32&gt;((v21 % 4))) + PtrToIntCastExpr&lt;int32&gt;(&quot;ABCDEFGHIJKLMNOPQRSTUVWXYZabcdefghijklmnopqrstuvwxyz0123456789+/&quot;))))</text>
<text text-anchor="start" x="1576.5" y="-460.8" font-family="Times,serif" font-size="14.00"> *(IntToPtrCastExpr&lt;ptr&gt;((v7 + 2))) = 61</text>
<text text-anchor="start" x="1576.5" y="-445.8" font-family="Times,serif" font-size="14.00"> *(IntToPtrCastExpr&lt;ptr&gt;(v7)) = v25</text>
<text text-anchor="start" x="1576.5" y="-430.8" font-family="Times,serif" font-size="14.00"> *(IntToPtrCastExpr&lt;ptr&gt;((v7 + 1))) = v26</text>
</g>
<!-- Node0x23629af0&#45;&gt;Node0x20f3c380 -->
<g id="edge29" class="edge"><title>Node0x23629af0&#45;&gt;Node0x20f3c380</title>
<path fill="none" stroke="black" d="M972.205,-591.537C1131.23,-575.985 1525.73,-537.405 1836.72,-506.992"/>
<polygon fill="black" stroke="black" points="1837.21,-510.461 1846.82,-506.005 1836.52,-503.495 1837.21,-510.461"/>
<text text-anchor="middle" x="1474.5" y="-550.8" font-family="Times,serif" font-size="14.00">v1 &lt;= (v8 + 1)</text>
</g>
<!-- Node0x2362a540&#45;&gt;Node0x23628c50 -->
<g id="edge30" class="edge"><title>Node0x2362a540&#45;&gt;Node0x23628c50</title>
<path fill="none" stroke="black" d="M2757.7,-953.812C2805.68,-979.956 2874.73,-1026.49 2905,-1090 2946.88,-1177.86 2970.42,-1236.93 2905,-1309 2861.8,-1356.6 2419.45,-1372.12 2257.77,-1376.23"/>
<polygon fill="black" stroke="black" points="2257.44,-1372.73 2247.53,-1376.48 2257.61,-1379.73 2257.44,-1372.73"/>
</g>
<!-- Node0x2362a730&#45;&gt;Node0x20f3e450 -->
<g id="edge31" class="edge"><title>Node0x2362a730&#45;&gt;Node0x20f3e450</title>
<path fill="none" stroke="black" d="M1705.61,-920.813C1601.76,-904.808 1339.3,-864.359 1228.55,-847.29"/>
<polygon fill="black" stroke="black" points="1229.04,-843.825 1218.63,-845.761 1227.98,-850.744 1229.04,-843.825"/>
</g>
<!-- Node0x23629d30 -->
<g id="node28" class="node"><title>Node0x23629d30</title>
<polygon fill="none" stroke="black" points="1753,-279.5 1753,-362.5 2041,-362.5 2041,-279.5 1753,-279.5"/>
<text text-anchor="start" x="1761" y="-347.3" font-family="Times,serif" font-size="14.00">v27 = (v7 + 3)</text>
<text text-anchor="start" x="1761" y="-332.3" font-family="Times,serif" font-size="14.00"> *(IntToPtrCastExpr&lt;ptr&gt;(v27)) = 61</text>
<text text-anchor="start" x="1761" y="-317.3" font-family="Times,serif" font-size="14.00"> v28 = (v27 + 1)</text>
<text text-anchor="start" x="1761" y="-302.3" font-family="Times,serif" font-size="14.00"> v7 = v28</text>
<text text-anchor="start" x="1761" y="-287.3" font-family="Times,serif" font-size="14.00"> v19 = v28</text>
</g>
<!-- Node0x2362a420&#45;&gt;Node0x23629d30 -->
<g id="edge32" class="edge"><title>Node0x2362a420&#45;&gt;Node0x23629d30</title>
<path fill="none" stroke="black" d="M1293.18,-400.457C1455.41,-379.378 1624.75,-357.375 1742.67,-342.053"/>
<polygon fill="black" stroke="black" points="1743.38,-345.49 1752.85,-340.731 1742.48,-338.548 1743.38,-345.49"/>
</g>
<!-- Node0x20f3c380&#45;&gt;Node0x23629d30 -->
<g id="edge33" class="edge"><title>Node0x20f3c380&#45;&gt;Node0x23629d30</title>
<path fill="none" stroke="black" d="M2156.69,-422.952C2111.09,-405.226 2057.49,-384.388 2010.86,-366.26"/>
<polygon fill="black" stroke="black" points="2011.91,-362.915 2001.32,-362.554 2009.38,-369.44 2011.91,-362.915"/>
</g>
<!-- Node0x23629d30&#45;&gt;Node0xf2020a0 -->
<g id="edge34" class="edge"><title>Node0x23629d30&#45;&gt;Node0xf2020a0</title>
<path fill="none" stroke="black" d="M1897,-279.431C1897,-270.382 1897,-260.757 1897,-251.61"/>
<polygon fill="black" stroke="black" points="1900.5,-251.543 1897,-241.543 1893.5,-251.544 1900.5,-251.543"/>
</g>
</g>
</svg>
