<?xml version="1.0" encoding="UTF-8" standalone="no"?>
<!DOCTYPE svg PUBLIC "-//W3C//DTD SVG 1.1//EN"
 "http://www.w3.org/Graphics/SVG/1.1/DTD/svg11.dtd">
<!-- Generated by graphviz version 2.38.0 (20140413.2041)
 -->
<!-- Title: Control&#45;flow graph for function &#39;mbedtls_md5_init(*a1)&#39;. Pages: 1 -->
<svg width="427pt" height="233pt"
 viewBox="0.00 0.00 427.00 233.00" xmlns="http://www.w3.org/2000/svg" xmlns:xlink="http://www.w3.org/1999/xlink">
<g id="graph0" class="graph" transform="scale(1 1) rotate(0) translate(4 229)">
<title>Control&#45;flow graph for function &#39;mbedtls_md5_init(*a1)&#39;.</title>
<polygon fill="white" stroke="none" points="-4,4 -4,-229 423,-229 423,4 -4,4"/>
<text text-anchor="middle" x="209.5" y="-7.8" font-family="Times,serif" font-size="14.00">Control&#45;flow graph for function &#39;mbedtls_md5_init(*a1)&#39;.</text>
<!-- Node0x2185b930 -->
<g id="node1" class="node"><title>Node0x2185b930</title>
<polygon fill="none" stroke="black" points="180,-186.5 180,-224.5 239,-224.5 239,-186.5 180,-186.5"/>
<text text-anchor="start" x="188" y="-209.3" font-family="Times,serif" font-size="14.00">entry:</text>
<text text-anchor="start" x="188" y="-194.3" font-family="Times,serif" font-size="14.00"> a1</text>
</g>
<!-- Node0x2185fb30 -->
<g id="node2" class="node"><title>Node0x2185fb30</title>
<polygon fill="none" stroke="black" points="134,-96.5 134,-149.5 285,-149.5 285,-96.5 134,-96.5"/>
<text text-anchor="start" x="142" y="-134.3" font-family="Times,serif" font-size="14.00">0x806e0c0:</text>
<text text-anchor="start" x="142" y="-119.3" font-family="Times,serif" font-size="14.00"> memset(a1, 0, 22)</text>
<text text-anchor="start" x="142" y="-104.3" font-family="Times,serif" font-size="14.00"> return 0</text>
</g>
<!-- Node0x2185b930&#45;&gt;Node0x2185fb30 -->
<g id="edge1" class="edge"><title>Node0x2185b930&#45;&gt;Node0x2185fb30</title>
<path fill="none" stroke="black" d="M209.5,-186.233C209.5,-178.347 209.5,-168.835 209.5,-159.648"/>
<polygon fill="black" stroke="black" points="213,-159.517 209.5,-149.517 206,-159.517 213,-159.517"/>
</g>
<!-- Node0x2185fa10 -->
<g id="node3" class="node"><title>Node0x2185fa10</title>
<polygon fill="none" stroke="black" points="182.5,-23.5 182.5,-59.5 236.5,-59.5 236.5,-23.5 182.5,-23.5"/>
<text text-anchor="start" x="190.5" y="-37.8" font-family="Times,serif" font-size="14.00">exit:</text>
</g>
<!-- Node0x2185fb30&#45;&gt;Node0x2185fa10 -->
<g id="edge2" class="edge"><title>Node0x2185fb30&#45;&gt;Node0x2185fa10</title>
<path fill="none" stroke="black" d="M209.5,-96.4081C209.5,-87.9823 209.5,-78.5803 209.5,-70.0174"/>
<polygon fill="black" stroke="black" points="213,-69.7564 209.5,-59.7564 206,-69.7565 213,-69.7564"/>
</g>
</g>
</svg>
