<?xml version="1.0" encoding="UTF-8" standalone="no"?>
<!DOCTYPE svg PUBLIC "-//W3C//DTD SVG 1.1//EN"
 "http://www.w3.org/Graphics/SVG/1.1/DTD/svg11.dtd">
<!-- Generated by graphviz version 2.38.0 (20140413.2041)
 -->
<!-- Title: Control&#45;flow graph for function &#39;__syscall_cp_c()&#39;. Pages: 1 -->
<svg width="379pt" height="261pt"
 viewBox="0.00 0.00 379.00 261.00" xmlns="http://www.w3.org/2000/svg" xmlns:xlink="http://www.w3.org/1999/xlink">
<g id="graph0" class="graph" transform="scale(1 1) rotate(0) translate(4 257)">
<title>Control&#45;flow graph for function &#39;__syscall_cp_c()&#39;.</title>
<polygon fill="white" stroke="none" points="-4,4 -4,-257 375,-257 375,4 -4,4"/>
<text text-anchor="middle" x="185.5" y="-7.8" font-family="Times,serif" font-size="14.00">Control&#45;flow graph for function &#39;__syscall_cp_c()&#39;.</text>
<!-- Node0x13d73670 -->
<g id="node1" class="node"><title>Node0x13d73670</title>
<polygon fill="none" stroke="black" points="156,-216.5 156,-252.5 215,-252.5 215,-216.5 156,-216.5"/>
<text text-anchor="start" x="164" y="-230.8" font-family="Times,serif" font-size="14.00">entry:</text>
</g>
<!-- Node0x273782b0 -->
<g id="node2" class="node"><title>Node0x273782b0</title>
<polygon fill="none" stroke="black" points="58,-96.5 58,-179.5 313,-179.5 313,-96.5 58,-96.5"/>
<text text-anchor="start" x="66" y="-164.3" font-family="Times,serif" font-size="14.00">0x80756c3:</text>
<text text-anchor="start" x="66" y="-149.3" font-family="Times,serif" font-size="14.00"> syscall_number</text>
<text text-anchor="start" x="66" y="-134.3" font-family="Times,serif" font-size="14.00"> result = syscall(syscall_number)</text>
<text text-anchor="start" x="66" y="-119.3" font-family="Times,serif" font-size="14.00"> g1 = result</text>
<text text-anchor="start" x="66" y="-104.3" font-family="Times,serif" font-size="14.00"> return result</text>
</g>
<!-- Node0x13d73670&#45;&gt;Node0x273782b0 -->
<g id="edge1" class="edge"><title>Node0x13d73670&#45;&gt;Node0x273782b0</title>
<path fill="none" stroke="black" d="M185.5,-216.167C185.5,-208.654 185.5,-199.427 185.5,-189.999"/>
<polygon fill="black" stroke="black" points="189,-189.762 185.5,-179.762 182,-189.762 189,-189.762"/>
</g>
<!-- Node0x13d702b0 -->
<g id="node3" class="node"><title>Node0x13d702b0</title>
<polygon fill="none" stroke="black" points="158.5,-23.5 158.5,-59.5 212.5,-59.5 212.5,-23.5 158.5,-23.5"/>
<text text-anchor="start" x="166.5" y="-37.8" font-family="Times,serif" font-size="14.00">exit:</text>
</g>
<!-- Node0x273782b0&#45;&gt;Node0x13d702b0 -->
<g id="edge2" class="edge"><title>Node0x273782b0&#45;&gt;Node0x13d702b0</title>
<path fill="none" stroke="black" d="M185.5,-96.3751C185.5,-87.4706 185.5,-78.246 185.5,-70"/>
<polygon fill="black" stroke="black" points="189,-69.8327 185.5,-59.8328 182,-69.8328 189,-69.8327"/>
</g>
</g>
</svg>
