<?xml version="1.0" encoding="UTF-8" standalone="no"?>
<!DOCTYPE svg PUBLIC "-//W3C//DTD SVG 1.1//EN"
 "http://www.w3.org/Graphics/SVG/1.1/DTD/svg11.dtd">
<!-- Generated by graphviz version 2.38.0 (20140413.2041)
 -->
<!-- Title: Control&#45;flow graph for function &#39;mbedtls_ctr_drbg_set_prediction_resistance(result, a2)&#39;. Pages: 1 -->
<svg width="662pt" height="248pt"
 viewBox="0.00 0.00 662.00 248.00" xmlns="http://www.w3.org/2000/svg" xmlns:xlink="http://www.w3.org/1999/xlink">
<g id="graph0" class="graph" transform="scale(1 1) rotate(0) translate(4 244)">
<title>Control&#45;flow graph for function &#39;mbedtls_ctr_drbg_set_prediction_resistance(result, a2)&#39;.</title>
<polygon fill="white" stroke="none" points="-4,4 -4,-244 658,-244 658,4 -4,4"/>
<text text-anchor="middle" x="327" y="-7.8" font-family="Times,serif" font-size="14.00">Control&#45;flow graph for function &#39;mbedtls_ctr_drbg_set_prediction_resistance(result, a2)&#39;.</text>
<!-- Node0x9ac3b20 -->
<g id="node1" class="node"><title>Node0x9ac3b20</title>
<polygon fill="none" stroke="black" points="295.5,-186.5 295.5,-239.5 358.5,-239.5 358.5,-186.5 295.5,-186.5"/>
<text text-anchor="start" x="303.5" y="-224.3" font-family="Times,serif" font-size="14.00">entry:</text>
<text text-anchor="start" x="303.5" y="-209.3" font-family="Times,serif" font-size="14.00"> result</text>
<text text-anchor="start" x="303.5" y="-194.3" font-family="Times,serif" font-size="14.00"> a2</text>
</g>
<!-- Node0x2614c580 -->
<g id="node2" class="node"><title>Node0x2614c580</title>
<polygon fill="none" stroke="black" points="150.5,-96.5 150.5,-149.5 503.5,-149.5 503.5,-96.5 150.5,-96.5"/>
<text text-anchor="start" x="158.5" y="-134.3" font-family="Times,serif" font-size="14.00">0x804b7f0:</text>
<text text-anchor="start" x="158.5" y="-119.3" font-family="Times,serif" font-size="14.00"> *(IntToPtrCastExpr&lt;ptr&gt;((result + 20))) = a2</text>
<text text-anchor="start" x="158.5" y="-104.3" font-family="Times,serif" font-size="14.00"> return result</text>
</g>
<!-- Node0x9ac3b20&#45;&gt;Node0x2614c580 -->
<g id="edge1" class="edge"><title>Node0x9ac3b20&#45;&gt;Node0x2614c580</title>
<path fill="none" stroke="black" d="M327,-186.073C327,-177.838 327,-168.58 327,-159.777"/>
<polygon fill="black" stroke="black" points="330.5,-159.742 327,-149.742 323.5,-159.742 330.5,-159.742"/>
</g>
<!-- Node0x7d0f1a0 -->
<g id="node3" class="node"><title>Node0x7d0f1a0</title>
<polygon fill="none" stroke="black" points="300,-23.5 300,-59.5 354,-59.5 354,-23.5 300,-23.5"/>
<text text-anchor="start" x="308" y="-37.8" font-family="Times,serif" font-size="14.00">exit:</text>
</g>
<!-- Node0x2614c580&#45;&gt;Node0x7d0f1a0 -->
<g id="edge2" class="edge"><title>Node0x2614c580&#45;&gt;Node0x7d0f1a0</title>
<path fill="none" stroke="black" d="M327,-96.4081C327,-87.9823 327,-78.5803 327,-70.0174"/>
<polygon fill="black" stroke="black" points="330.5,-69.7564 327,-59.7564 323.5,-69.7565 330.5,-69.7564"/>
</g>
</g>
</svg>
