<?xml version="1.0" encoding="UTF-8" standalone="no"?>
<!DOCTYPE svg PUBLIC "-//W3C//DTD SVG 1.1//EN"
 "http://www.w3.org/Graphics/SVG/1.1/DTD/svg11.dtd">
<!-- Generated by graphviz version 2.38.0 (20140413.2041)
 -->
<!-- Title: Control&#45;flow graph for function &#39;createDaemon()&#39;. Pages: 1 -->
<svg width="766pt" height="1380pt"
 viewBox="0.00 0.00 766.00 1380.00" xmlns="http://www.w3.org/2000/svg" xmlns:xlink="http://www.w3.org/1999/xlink">
<g id="graph0" class="graph" transform="scale(1 1) rotate(0) translate(4 1376)">
<title>Control&#45;flow graph for function &#39;createDaemon()&#39;.</title>
<polygon fill="white" stroke="none" points="-4,4 -4,-1376 762,-1376 762,4 -4,4"/>
<text text-anchor="middle" x="379" y="-7.8" font-family="Times,serif" font-size="14.00">Control&#45;flow graph for function &#39;createDaemon()&#39;.</text>
<!-- Node0x25022390 -->
<g id="node1" class="node"><title>Node0x25022390</title>
<polygon fill="none" stroke="black" points="118.5,-1335.5 118.5,-1371.5 177.5,-1371.5 177.5,-1335.5 118.5,-1335.5"/>
<text text-anchor="start" x="126.5" y="-1349.8" font-family="Times,serif" font-size="14.00">entry:</text>
</g>
<!-- Node0xf1da520 -->
<g id="node2" class="node"><title>Node0xf1da520</title>
<polygon fill="none" stroke="black" points="90,-1199.5 90,-1297.5 206,-1297.5 206,-1199.5 90,-1199.5"/>
<text text-anchor="start" x="98" y="-1282.3" font-family="Times,serif" font-size="14.00">v1</text>
<text text-anchor="start" x="98" y="-1267.3" font-family="Times,serif" font-size="14.00"> g2 = &amp;(v1)</text>
<text text-anchor="start" x="98" y="-1252.3" font-family="Times,serif" font-size="14.00"> v2 = g3</text>
<text text-anchor="start" x="98" y="-1237.3" font-family="Times,serif" font-size="14.00"> g3 = getpid()</text>
<text text-anchor="start" x="98" y="-1222.3" font-family="Times,serif" font-size="14.00"> v3 = fork()</text>
<text text-anchor="start" x="98" y="-1207.3" font-family="Times,serif" font-size="14.00"> g1 = v3</text>
</g>
<!-- Node0x25022390&#45;&gt;Node0xf1da520 -->
<g id="edge1" class="edge"><title>Node0x25022390&#45;&gt;Node0xf1da520</title>
<path fill="none" stroke="black" d="M148,-1335.49C148,-1327.69 148,-1317.94 148,-1307.83"/>
<polygon fill="black" stroke="black" points="151.5,-1307.66 148,-1297.66 144.5,-1307.66 151.5,-1307.66"/>
</g>
<!-- Node0xf1da580 -->
<g id="node3" class="node"><title>Node0xf1da580</title>
<polygon fill="none" stroke="black" points="101.5,-1125.5 101.5,-1161.5 194.5,-1161.5 194.5,-1125.5 101.5,-1125.5"/>
<text text-anchor="start" x="109.5" y="-1139.8" font-family="Times,serif" font-size="14.00">if (v3 &lt; 0):</text>
</g>
<!-- Node0xf1da520&#45;&gt;Node0xf1da580 -->
<g id="edge2" class="edge"><title>Node0xf1da520&#45;&gt;Node0xf1da580</title>
<path fill="none" stroke="black" d="M148,-1199.32C148,-1189.89 148,-1180.32 148,-1171.87"/>
<polygon fill="black" stroke="black" points="151.5,-1171.86 148,-1161.86 144.5,-1171.86 151.5,-1171.86"/>
</g>
<!-- Node0x2501fb80 -->
<g id="node4" class="node"><title>Node0x2501fb80</title>
<polygon fill="none" stroke="black" points="0,-963.5 0,-1016.5 158,-1016.5 158,-963.5 0,-963.5"/>
<text text-anchor="start" x="8" y="-1001.3" font-family="Times,serif" font-size="14.00">0x8048b08:</text>
<text text-anchor="start" x="8" y="-986.3" font-family="Times,serif" font-size="14.00"> exit(1)</text>
<text text-anchor="start" x="8" y="-971.3" font-family="Times,serif" font-size="14.00"> # UNREACHABLE</text>
</g>
<!-- Node0xf1da580&#45;&gt;Node0x2501fb80 -->
<g id="edge3" class="edge"><title>Node0xf1da580&#45;&gt;Node0x2501fb80</title>
<path fill="none" stroke="black" d="M140.219,-1125.42C129.263,-1101.36 109.046,-1056.97 94.8504,-1025.8"/>
<polygon fill="black" stroke="black" points="97.9853,-1024.24 90.6552,-1016.59 91.6149,-1027.14 97.9853,-1024.24"/>
<text text-anchor="middle" x="155" y="-1095.8" font-family="Times,serif" font-size="14.00">v3 &lt; 0</text>
</g>
<!-- Node0x25020730 -->
<g id="node5" class="node"><title>Node0x25020730</title>
<polygon fill="none" stroke="black" points="203.5,-1035.5 203.5,-1073.5 300.5,-1073.5 300.5,-1035.5 203.5,-1035.5"/>
<text text-anchor="start" x="211.5" y="-1058.3" font-family="Times,serif" font-size="14.00">0x8048af3:</text>
<text text-anchor="start" x="211.5" y="-1043.3" font-family="Times,serif" font-size="14.00"> status</text>
</g>
<!-- Node0xf1da580&#45;&gt;Node0x25020730 -->
<g id="edge4" class="edge"><title>Node0xf1da580&#45;&gt;Node0x25020730</title>
<path fill="none" stroke="black" d="M168.547,-1125.31C183.91,-1112.46 205.141,-1094.7 222.344,-1080.31"/>
<polygon fill="black" stroke="black" points="224.997,-1082.65 230.422,-1073.55 220.506,-1077.28 224.997,-1082.65"/>
<text text-anchor="middle" x="237" y="-1095.8" font-family="Times,serif" font-size="14.00">v3 &gt;= 0</text>
</g>
<!-- Node0xbba5000 -->
<g id="node6" class="node"><title>Node0xbba5000</title>
<polygon fill="none" stroke="black" points="251,-23.5 251,-59.5 305,-59.5 305,-23.5 251,-23.5"/>
<text text-anchor="start" x="259" y="-37.8" font-family="Times,serif" font-size="14.00">exit:</text>
</g>
<!-- Node0x2501fb80&#45;&gt;Node0xbba5000 -->
<g id="edge5" class="edge"><title>Node0x2501fb80&#45;&gt;Node0xbba5000</title>
<path fill="none" stroke="black" d="M72.9511,-963.093C68.4202,-941.419 63,-909.614 63,-881.5 63,-881.5 63,-881.5 63,-123 63,-85.5111 179.096,-59.65 240.665,-48.571"/>
<polygon fill="black" stroke="black" points="241.526,-51.9735 250.77,-46.7972 240.316,-45.0789 241.526,-51.9735"/>
</g>
<!-- Node0xf1dac90 -->
<g id="node7" class="node"><title>Node0xf1dac90</title>
<polygon fill="none" stroke="black" points="215.5,-906.5 215.5,-944.5 320.5,-944.5 320.5,-906.5 215.5,-906.5"/>
<text text-anchor="start" x="223.5" y="-929.3" font-family="Times,serif" font-size="14.00">if (v3 == 0):</text>
<text text-anchor="start" x="223.5" y="-914.3" font-family="Times,serif" font-size="14.00"> else:</text>
</g>
<!-- Node0x25020730&#45;&gt;Node0xf1dac90 -->
<g id="edge6" class="edge"><title>Node0x25020730&#45;&gt;Node0xf1dac90</title>
<path fill="none" stroke="black" d="M254.292,-1035.3C256.942,-1014.27 261.334,-979.409 264.432,-954.824"/>
<polygon fill="black" stroke="black" points="267.934,-955.021 265.712,-944.662 260.989,-954.146 267.934,-955.021"/>
</g>
<!-- Node0xf1d7e60 -->
<g id="node8" class="node"><title>Node0xf1d7e60</title>
<polygon fill="none" stroke="black" points="356.5,-786.5 356.5,-854.5 469.5,-854.5 469.5,-786.5 356.5,-786.5"/>
<text text-anchor="start" x="364.5" y="-839.3" font-family="Times,serif" font-size="14.00">0x8048b0d:</text>
<text text-anchor="start" x="364.5" y="-824.3" font-family="Times,serif" font-size="14.00"> umask(0)</text>
<text text-anchor="start" x="364.5" y="-809.3" font-family="Times,serif" font-size="14.00"> v4 = setsid()</text>
<text text-anchor="start" x="364.5" y="-794.3" font-family="Times,serif" font-size="14.00"> g1 = v4</text>
</g>
<!-- Node0xf1dac90&#45;&gt;Node0xf1d7e60 -->
<g id="edge7" class="edge"><title>Node0xf1dac90&#45;&gt;Node0xf1d7e60</title>
<path fill="none" stroke="black" d="M297.844,-906.443C306.992,-900.715 317.011,-894.245 326,-888 338.178,-879.54 351.012,-870.061 362.971,-860.971"/>
<polygon fill="black" stroke="black" points="365.278,-863.613 371.092,-854.756 361.024,-858.054 365.278,-863.613"/>
<text text-anchor="middle" x="375" y="-876.8" font-family="Times,serif" font-size="14.00">v3 == 0</text>
</g>
<!-- Node0xf1db080 -->
<g id="node9" class="node"><title>Node0xf1db080</title>
<polygon fill="none" stroke="black" points="78,-699.5 78,-767.5 458,-767.5 458,-699.5 78,-699.5"/>
<text text-anchor="start" x="86" y="-752.3" font-family="Times,serif" font-size="14.00">0x8048af5:</text>
<text text-anchor="start" x="86" y="-737.3" font-family="Times,serif" font-size="14.00"> stat_loc</text>
<text text-anchor="start" x="86" y="-722.3" font-family="Times,serif" font-size="14.00"> g1 = wait(PtrToIntCastExpr&lt;int32&gt;(&amp;(stat_loc)))</text>
<text text-anchor="start" x="86" y="-707.3" font-family="Times,serif" font-size="14.00"> status = 0</text>
</g>
<!-- Node0xf1dac90&#45;&gt;Node0xf1db080 -->
<g id="edge8" class="edge"><title>Node0xf1dac90&#45;&gt;Node0xf1db080</title>
<path fill="none" stroke="black" d="M268,-906.282C268,-876.889 268,-818.207 268,-777.67"/>
<polygon fill="black" stroke="black" points="271.5,-777.528 268,-767.528 264.5,-777.528 271.5,-777.528"/>
<text text-anchor="middle" x="295" y="-876.8" font-family="Times,serif" font-size="14.00">v3 != 0</text>
</g>
<!-- Node0xf1d7fd0 -->
<g id="node10" class="node"><title>Node0xf1d7fd0</title>
<polygon fill="none" stroke="black" points="420.5,-644.5 420.5,-680.5 525.5,-680.5 525.5,-644.5 420.5,-644.5"/>
<text text-anchor="start" x="428.5" y="-658.8" font-family="Times,serif" font-size="14.00">if (v4 &gt;= 0):</text>
</g>
<!-- Node0xf1d7e60&#45;&gt;Node0xf1d7fd0 -->
<g id="edge9" class="edge"><title>Node0xf1d7e60&#45;&gt;Node0xf1d7fd0</title>
<path fill="none" stroke="black" d="M447.545,-786.361C452.008,-780.625 456.044,-774.426 459,-768 470.255,-743.531 473.197,-712.668 473.664,-690.844"/>
<polygon fill="black" stroke="black" points="477.165,-690.649 473.717,-680.631 470.165,-690.613 477.165,-690.649"/>
</g>
<!-- Node0xf1dad70 -->
<g id="node11" class="node"><title>Node0xf1dad70</title>
<polygon fill="none" stroke="black" points="199,-97.5 199,-150.5 357,-150.5 357,-97.5 199,-97.5"/>
<text text-anchor="start" x="207" y="-135.3" font-family="Times,serif" font-size="14.00">0x8048b08:</text>
<text text-anchor="start" x="207" y="-120.3" font-family="Times,serif" font-size="14.00"> exit(status)</text>
<text text-anchor="start" x="207" y="-105.3" font-family="Times,serif" font-size="14.00"> # UNREACHABLE</text>
</g>
<!-- Node0xf1db080&#45;&gt;Node0xf1dad70 -->
<g id="edge10" class="edge"><title>Node0xf1db080&#45;&gt;Node0xf1dad70</title>
<path fill="none" stroke="black" d="M267.105,-699.374C266.573,-676.853 266,-646.381 266,-619.5 266,-619.5 266,-619.5 266,-394.5 266,-310.768 271.853,-212.547 275.383,-160.912"/>
<polygon fill="black" stroke="black" points="278.897,-160.841 276.099,-150.623 271.913,-160.356 278.897,-160.841"/>
</g>
<!-- Node0xf1db0e0 -->
<g id="node12" class="node"><title>Node0xf1db0e0</title>
<polygon fill="none" stroke="black" points="437.5,-554.5 437.5,-592.5 558.5,-592.5 558.5,-554.5 437.5,-554.5"/>
<text text-anchor="start" x="445.5" y="-577.3" font-family="Times,serif" font-size="14.00">v5 = chdir(&quot;/&quot;)</text>
<text text-anchor="start" x="445.5" y="-562.3" font-family="Times,serif" font-size="14.00"> g1 = v5</text>
</g>
<!-- Node0xf1d7fd0&#45;&gt;Node0xf1db0e0 -->
<g id="edge11" class="edge"><title>Node0xf1d7fd0&#45;&gt;Node0xf1db0e0</title>
<path fill="none" stroke="black" d="M477.939,-644.312C481.364,-632.394 486.001,-616.256 489.954,-602.499"/>
<polygon fill="black" stroke="black" points="493.415,-603.129 492.813,-592.551 486.687,-601.196 493.415,-603.129"/>
<text text-anchor="middle" x="516" y="-614.8" font-family="Times,serif" font-size="14.00">v4 &gt;= 0</text>
</g>
<!-- Node0xf1db020 -->
<g id="node13" class="node"><title>Node0xf1db020</title>
<polygon fill="none" stroke="black" points="358.5,-376.5 358.5,-414.5 459.5,-414.5 459.5,-376.5 358.5,-376.5"/>
<text text-anchor="start" x="366.5" y="-399.3" font-family="Times,serif" font-size="14.00">0x8048b37:</text>
<text text-anchor="start" x="366.5" y="-384.3" font-family="Times,serif" font-size="14.00"> status = 1</text>
</g>
<!-- Node0xf1d7fd0&#45;&gt;Node0xf1db020 -->
<g id="edge12" class="edge"><title>Node0xf1d7fd0&#45;&gt;Node0xf1db020</title>
<path fill="none" stroke="black" d="M458.747,-644.396C448.616,-631.218 435.668,-612.081 429,-593 408.991,-535.745 407.084,-463.807 407.816,-424.805"/>
<polygon fill="black" stroke="black" points="411.317,-424.806 408.08,-414.717 404.32,-424.623 411.317,-424.806"/>
<text text-anchor="middle" x="438" y="-524.8" font-family="Times,serif" font-size="14.00">v4 &lt; 0</text>
</g>
<!-- Node0xf1dad70&#45;&gt;Node0xbba5000 -->
<g id="edge13" class="edge"><title>Node0xf1dad70&#45;&gt;Node0xbba5000</title>
<path fill="none" stroke="black" d="M278,-97.0862C278,-88.4596 278,-78.8224 278,-70.0748"/>
<polygon fill="black" stroke="black" points="281.5,-69.9735 278,-59.9735 274.5,-69.9735 281.5,-69.9735"/>
</g>
<!-- Node0xf1daee0 -->
<g id="node14" class="node"><title>Node0xf1daee0</title>
<polygon fill="none" stroke="black" points="451.5,-466.5 451.5,-502.5 544.5,-502.5 544.5,-466.5 451.5,-466.5"/>
<text text-anchor="start" x="459.5" y="-480.8" font-family="Times,serif" font-size="14.00">if (v5 &gt; 0):</text>
</g>
<!-- Node0xf1db0e0&#45;&gt;Node0xf1daee0 -->
<g id="edge14" class="edge"><title>Node0xf1db0e0&#45;&gt;Node0xf1daee0</title>
<path fill="none" stroke="black" d="M498,-554.474C498,-542.456 498,-526.434 498,-512.857"/>
<polygon fill="black" stroke="black" points="501.5,-512.615 498,-502.615 494.5,-512.615 501.5,-512.615"/>
</g>
<!-- Node0xf1db020&#45;&gt;Node0xf1dad70 -->
<g id="edge15" class="edge"><title>Node0xf1db020&#45;&gt;Node0xf1dad70</title>
<path fill="none" stroke="black" d="M358.389,-388.333C338.81,-383.328 318.023,-374.292 305,-358 281.304,-328.354 277.801,-218.353 277.647,-160.73"/>
<polygon fill="black" stroke="black" points="281.147,-160.613 277.654,-150.611 274.147,-160.609 281.147,-160.613"/>
</g>
<!-- Node0xf1daee0&#45;&gt;Node0xf1db020 -->
<g id="edge17" class="edge"><title>Node0xf1daee0&#45;&gt;Node0xf1db020</title>
<path fill="none" stroke="black" d="M471.483,-466.369C463.87,-460.912 455.796,-454.573 449,-448 441.188,-440.444 433.61,-431.313 427.189,-422.851"/>
<polygon fill="black" stroke="black" points="429.933,-420.675 421.188,-414.694 424.295,-424.823 429.933,-420.675"/>
<text text-anchor="middle" x="479" y="-436.8" font-family="Times,serif" font-size="14.00">v5 &lt;= 0</text>
</g>
<!-- Node0xf1daf40 -->
<g id="node15" class="node"><title>Node0xf1daf40</title>
<polygon fill="none" stroke="black" points="306,-169.5 306,-357.5 758,-357.5 758,-169.5 306,-169.5"/>
<text text-anchor="start" x="314" y="-342.3" font-family="Times,serif" font-size="14.00">0x8048b3e:</text>
<text text-anchor="start" x="314" y="-327.3" font-family="Times,serif" font-size="14.00"> close(0)</text>
<text text-anchor="start" x="314" y="-312.3" font-family="Times,serif" font-size="14.00"> close(1)</text>
<text text-anchor="start" x="314" y="-297.3" font-family="Times,serif" font-size="14.00"> close(2)</text>
<text text-anchor="start" x="314" y="-282.3" font-family="Times,serif" font-size="14.00"> g6 = PtrToIntCastExpr&lt;int32&gt;(IntToPtrCastExpr&lt;ptr&gt;(2))</text>
<text text-anchor="start" x="314" y="-267.3" font-family="Times,serif" font-size="14.00"> v6</text>
<text text-anchor="start" x="314" y="-252.3" font-family="Times,serif" font-size="14.00"> g4 = v6</text>
<text text-anchor="start" x="314" y="-237.3" font-family="Times,serif" font-size="14.00"> result = kill(g3, (SIGKILL &#45;&gt; 9))</text>
<text text-anchor="start" x="314" y="-222.3" font-family="Times,serif" font-size="14.00"> g1 = result</text>
<text text-anchor="start" x="314" y="-207.3" font-family="Times,serif" font-size="14.00"> g3 = v2</text>
<text text-anchor="start" x="314" y="-192.3" font-family="Times,serif" font-size="14.00"> g2 = v1</text>
<text text-anchor="start" x="314" y="-177.3" font-family="Times,serif" font-size="14.00"> return result</text>
</g>
<!-- Node0xf1daee0&#45;&gt;Node0xf1daf40 -->
<g id="edge16" class="edge"><title>Node0xf1daee0&#45;&gt;Node0xf1daf40</title>
<path fill="none" stroke="black" d="M503.988,-466.328C505.82,-460.561 507.693,-454.055 509,-448 514.556,-422.258 518.913,-394.175 522.269,-367.892"/>
<polygon fill="black" stroke="black" points="525.749,-368.271 523.506,-357.916 518.802,-367.409 525.749,-368.271"/>
<text text-anchor="middle" x="535" y="-436.8" font-family="Times,serif" font-size="14.00">v5 &gt; 0</text>
</g>
<!-- Node0xf1daf40&#45;&gt;Node0xbba5000 -->
<g id="edge18" class="edge"><title>Node0xf1daf40&#45;&gt;Node0xbba5000</title>
<path fill="none" stroke="black" d="M445.929,-169.206C421.19,-144.513 393.45,-118.711 366,-97 349.826,-84.2076 330.471,-71.9332 314.036,-62.2827"/>
<polygon fill="black" stroke="black" points="315.655,-59.1756 305.245,-57.2046 312.153,-65.2371 315.655,-59.1756"/>
</g>
</g>
</svg>
