<?xml version="1.0" encoding="UTF-8" standalone="no"?>
<!DOCTYPE svg PUBLIC "-//W3C//DTD SVG 1.1//EN"
 "http://www.w3.org/Graphics/SVG/1.1/DTD/svg11.dtd">
<!-- Generated by graphviz version 2.38.0 (20140413.2041)
 -->
<!-- Title: Control&#45;flow graph for function &#39;pk_get_ecpubkey(a1, a2, a3)&#39;. Pages: 1 -->
<svg width="605pt" height="805pt"
 viewBox="0.00 0.00 604.50 805.00" xmlns="http://www.w3.org/2000/svg" xmlns:xlink="http://www.w3.org/1999/xlink">
<g id="graph0" class="graph" transform="scale(1 1) rotate(0) translate(4 801)">
<title>Control&#45;flow graph for function &#39;pk_get_ecpubkey(a1, a2, a3)&#39;.</title>
<polygon fill="white" stroke="none" points="-4,4 -4,-801 600.5,-801 600.5,4 -4,4"/>
<text text-anchor="middle" x="298.25" y="-7.8" font-family="Times,serif" font-size="14.00">Control&#45;flow graph for function &#39;pk_get_ecpubkey(a1, a2, a3)&#39;.</text>
<!-- Node0xb14f590 -->
<g id="node1" class="node"><title>Node0xb14f590</title>
<polygon fill="none" stroke="black" points="273.5,-728.5 273.5,-796.5 332.5,-796.5 332.5,-728.5 273.5,-728.5"/>
<text text-anchor="start" x="281.5" y="-781.3" font-family="Times,serif" font-size="14.00">entry:</text>
<text text-anchor="start" x="281.5" y="-766.3" font-family="Times,serif" font-size="14.00"> a1</text>
<text text-anchor="start" x="281.5" y="-751.3" font-family="Times,serif" font-size="14.00"> a2</text>
<text text-anchor="start" x="281.5" y="-736.3" font-family="Times,serif" font-size="14.00"> a3</text>
</g>
<!-- Node0xea9ac70 -->
<g id="node2" class="node"><title>Node0xea9ac70</title>
<polygon fill="none" stroke="black" points="9.5,-427.5 9.5,-690.5 596.5,-690.5 596.5,-427.5 9.5,-427.5"/>
<text text-anchor="start" x="17.5" y="-675.3" font-family="Times,serif" font-size="14.00">v1 = g3</text>
<text text-anchor="start" x="17.5" y="-660.3" font-family="Times,serif" font-size="14.00"> v2 = g1</text>
<text text-anchor="start" x="17.5" y="-645.3" font-family="Times,serif" font-size="14.00"> g3 = v2</text>
<text text-anchor="start" x="17.5" y="-630.3" font-family="Times,serif" font-size="14.00"> v3 = g7</text>
<text text-anchor="start" x="17.5" y="-615.3" font-family="Times,serif" font-size="14.00"> v4 = g6</text>
<text text-anchor="start" x="17.5" y="-600.3" font-family="Times,serif" font-size="14.00"> g7 = v4</text>
<text text-anchor="start" x="17.5" y="-585.3" font-family="Times,serif" font-size="14.00"> v5 = g5</text>
<text text-anchor="start" x="17.5" y="-570.3" font-family="Times,serif" font-size="14.00"> v6 = *(IntToPtrCastExpr&lt;ptr&gt;(v2))</text>
<text text-anchor="start" x="17.5" y="-555.3" font-family="Times,serif" font-size="14.00"> v7 = g4</text>
<text text-anchor="start" x="17.5" y="-540.3" font-family="Times,serif" font-size="14.00"> v8 = (v7 + 136)</text>
<text text-anchor="start" x="17.5" y="-525.3" font-family="Times,serif" font-size="14.00"> g6 = v8</text>
<text text-anchor="start" x="17.5" y="-510.3" font-family="Times,serif" font-size="14.00"> g5 = v7</text>
<text text-anchor="start" x="17.5" y="-495.3" font-family="Times,serif" font-size="14.00"> v9 = (v4 &#45; v6)</text>
<text text-anchor="start" x="17.5" y="-480.3" font-family="Times,serif" font-size="14.00"> g4 = v9</text>
<text text-anchor="start" x="17.5" y="-465.3" font-family="Times,serif" font-size="14.00"> v10 = mbedtls_ecp_point_read_binary(v7, v8, IntToPtrCastExpr&lt;ptr&gt;(v6), v9)</text>
<text text-anchor="start" x="17.5" y="-450.3" font-family="Times,serif" font-size="14.00"> g1 = v10</text>
<text text-anchor="start" x="17.5" y="-435.3" font-family="Times,serif" font-size="14.00"> g6 = v8</text>
</g>
<!-- Node0xb14f590&#45;&gt;Node0xea9ac70 -->
<g id="edge1" class="edge"><title>Node0xb14f590&#45;&gt;Node0xea9ac70</title>
<path fill="none" stroke="black" d="M303,-728.226C303,-720.011 303,-710.687 303,-700.742"/>
<polygon fill="black" stroke="black" points="306.5,-700.609 303,-690.609 299.5,-700.609 306.5,-700.609"/>
</g>
<!-- Node0xb5e1bd0 -->
<g id="node3" class="node"><title>Node0xb5e1bd0</title>
<polygon fill="none" stroke="black" points="246,-353.5 246,-389.5 360,-389.5 360,-353.5 246,-353.5"/>
<text text-anchor="start" x="254" y="-367.8" font-family="Times,serif" font-size="14.00">if (v10 == 0):</text>
</g>
<!-- Node0xea9ac70&#45;&gt;Node0xb5e1bd0 -->
<g id="edge2" class="edge"><title>Node0xea9ac70&#45;&gt;Node0xb5e1bd0</title>
<path fill="none" stroke="black" d="M303,-427.403C303,-417.307 303,-407.933 303,-399.892"/>
<polygon fill="black" stroke="black" points="306.5,-399.809 303,-389.809 299.5,-399.81 306.5,-399.809"/>
</g>
<!-- Node0x18f2c680 -->
<g id="node4" class="node"><title>Node0x18f2c680</title>
<polygon fill="none" stroke="black" points="0,-263.5 0,-301.5 316,-301.5 316,-263.5 0,-263.5"/>
<text text-anchor="start" x="8" y="-286.3" font-family="Times,serif" font-size="14.00">0x804e3cf:</text>
<text text-anchor="start" x="8" y="-271.3" font-family="Times,serif" font-size="14.00"> g1 = mbedtls_ecp_check_pubkey(g5, v8)</text>
</g>
<!-- Node0xb5e1bd0&#45;&gt;Node0x18f2c680 -->
<g id="edge3" class="edge"><title>Node0xb5e1bd0&#45;&gt;Node0x18f2c680</title>
<path fill="none" stroke="black" d="M274.353,-353.312C252.154,-339.992 221.168,-321.401 196.754,-306.753"/>
<polygon fill="black" stroke="black" points="198.461,-303.695 188.085,-301.551 194.86,-309.697 198.461,-303.695"/>
<text text-anchor="middle" x="278.5" y="-323.8" font-family="Times,serif" font-size="14.00">v10 == 0</text>
</g>
<!-- Node0x18f2c620 -->
<g id="node5" class="node"><title>Node0x18f2c620</title>
<polygon fill="none" stroke="black" points="157,-97.5 157,-225.5 437,-225.5 437,-97.5 157,-97.5"/>
<text text-anchor="start" x="165" y="-210.3" font-family="Times,serif" font-size="14.00">0x804e3db:</text>
<text text-anchor="start" x="165" y="-195.3" font-family="Times,serif" font-size="14.00"> *(IntToPtrCastExpr&lt;ptr&gt;(g3)) = g7</text>
<text text-anchor="start" x="165" y="-180.3" font-family="Times,serif" font-size="14.00"> g5 = v5</text>
<text text-anchor="start" x="165" y="-165.3" font-family="Times,serif" font-size="14.00"> g3 = v1</text>
<text text-anchor="start" x="165" y="-150.3" font-family="Times,serif" font-size="14.00"> g7 = v3</text>
<text text-anchor="start" x="165" y="-135.3" font-family="Times,serif" font-size="14.00"> v11</text>
<text text-anchor="start" x="165" y="-120.3" font-family="Times,serif" font-size="14.00"> g2 = v11</text>
<text text-anchor="start" x="165" y="-105.3" font-family="Times,serif" font-size="14.00"> return g1</text>
</g>
<!-- Node0xb5e1bd0&#45;&gt;Node0x18f2c620 -->
<g id="edge4" class="edge"><title>Node0xb5e1bd0&#45;&gt;Node0x18f2c620</title>
<path fill="none" stroke="black" d="M310.497,-353.457C315.985,-339.841 322.836,-320.108 325,-302 327.056,-284.789 327.348,-280.174 325,-263 323.775,-254.038 321.962,-244.749 319.838,-235.6"/>
<polygon fill="black" stroke="black" points="323.204,-234.63 317.424,-225.751 316.405,-236.297 323.204,-234.63"/>
<text text-anchor="middle" x="358.5" y="-278.8" font-family="Times,serif" font-size="14.00">v10 != 0</text>
</g>
<!-- Node0x18f2c680&#45;&gt;Node0x18f2c620 -->
<g id="edge5" class="edge"><title>Node0x18f2c680&#45;&gt;Node0x18f2c620</title>
<path fill="none" stroke="black" d="M179.111,-263.426C189.206,-254.784 202.004,-243.828 215.421,-232.341"/>
<polygon fill="black" stroke="black" points="218.057,-234.692 223.377,-225.529 213.505,-229.374 218.057,-234.692"/>
</g>
<!-- Node0xf604460 -->
<g id="node6" class="node"><title>Node0xf604460</title>
<polygon fill="none" stroke="black" points="270,-23.5 270,-59.5 324,-59.5 324,-23.5 270,-23.5"/>
<text text-anchor="start" x="278" y="-37.8" font-family="Times,serif" font-size="14.00">exit:</text>
</g>
<!-- Node0x18f2c620&#45;&gt;Node0xf604460 -->
<g id="edge6" class="edge"><title>Node0x18f2c620&#45;&gt;Node0xf604460</title>
<path fill="none" stroke="black" d="M297,-97.3546C297,-87.7534 297,-78.2993 297,-70.016"/>
<polygon fill="black" stroke="black" points="300.5,-69.8875 297,-59.8875 293.5,-69.8876 300.5,-69.8875"/>
</g>
</g>
</svg>
