<?xml version="1.0" encoding="UTF-8" standalone="no"?>
<!DOCTYPE svg PUBLIC "-//W3C//DTD SVG 1.1//EN"
 "http://www.w3.org/Graphics/SVG/1.1/DTD/svg11.dtd">
<!-- Generated by graphviz version 2.38.0 (20140413.2041)
 -->
<!-- Title: Control&#45;flow graph for function &#39;mbedtls_mpi_safe_cond_assign(*a1, *a2, a3)&#39;. Pages: 1 -->
<svg width="1413pt" height="2359pt"
 viewBox="0.00 0.00 1413.00 2359.00" xmlns="http://www.w3.org/2000/svg" xmlns:xlink="http://www.w3.org/1999/xlink">
<g id="graph0" class="graph" transform="scale(1 1) rotate(0) translate(4 2355)">
<title>Control&#45;flow graph for function &#39;mbedtls_mpi_safe_cond_assign(*a1, *a2, a3)&#39;.</title>
<polygon fill="white" stroke="none" points="-4,4 -4,-2355 1409,-2355 1409,4 -4,4"/>
<text text-anchor="middle" x="702.5" y="-7.8" font-family="Times,serif" font-size="14.00">Control&#45;flow graph for function &#39;mbedtls_mpi_safe_cond_assign(*a1, *a2, a3)&#39;.</text>
<!-- Node0x15b95d90 -->
<g id="node1" class="node"><title>Node0x15b95d90</title>
<polygon fill="none" stroke="black" points="320.5,-2282.5 320.5,-2350.5 379.5,-2350.5 379.5,-2282.5 320.5,-2282.5"/>
<text text-anchor="start" x="328.5" y="-2335.3" font-family="Times,serif" font-size="14.00">entry:</text>
<text text-anchor="start" x="328.5" y="-2320.3" font-family="Times,serif" font-size="14.00"> a1</text>
<text text-anchor="start" x="328.5" y="-2305.3" font-family="Times,serif" font-size="14.00"> a2</text>
<text text-anchor="start" x="328.5" y="-2290.3" font-family="Times,serif" font-size="14.00"> a3</text>
</g>
<!-- Node0xdb9d580 -->
<g id="node2" class="node"><title>Node0xdb9d580</title>
<polygon fill="none" stroke="black" points="0,-2101.5 0,-2244.5 700,-2244.5 700,-2101.5 0,-2101.5"/>
<text text-anchor="start" x="8" y="-2229.3" font-family="Times,serif" font-size="14.00">v1 = PtrToIntCastExpr&lt;int32&gt;(a1)</text>
<text text-anchor="start" x="8" y="-2214.3" font-family="Times,serif" font-size="14.00"> v2 = PtrToIntCastExpr&lt;int32&gt;(a2)</text>
<text text-anchor="start" x="8" y="-2199.3" font-family="Times,serif" font-size="14.00"> v3 = g7</text>
<text text-anchor="start" x="8" y="-2184.3" font-family="Times,serif" font-size="14.00"> v4 = g3</text>
<text text-anchor="start" x="8" y="-2169.3" font-family="Times,serif" font-size="14.00"> g5 = v2</text>
<text text-anchor="start" x="8" y="-2154.3" font-family="Times,serif" font-size="14.00"> g3 = v1</text>
<text text-anchor="start" x="8" y="-2139.3" font-family="Times,serif" font-size="14.00"> g7 = (a3 % 256)</text>
<text text-anchor="start" x="8" y="-2124.3" font-family="Times,serif" font-size="14.00"> result = mbedtls_mpi_grow(v1, IntToPtrCastExpr&lt;ptr&gt;(*(IntToPtrCastExpr&lt;ptr&gt;((v2 + 4)))))</text>
<text text-anchor="start" x="8" y="-2109.3" font-family="Times,serif" font-size="14.00"> v5</text>
</g>
<!-- Node0x15b95d90&#45;&gt;Node0xdb9d580 -->
<g id="edge1" class="edge"><title>Node0x15b95d90&#45;&gt;Node0xdb9d580</title>
<path fill="none" stroke="black" d="M350,-2282.32C350,-2273.9 350,-2264.47 350,-2254.78"/>
<polygon fill="black" stroke="black" points="353.5,-2254.63 350,-2244.63 346.5,-2254.63 353.5,-2254.63"/>
</g>
<!-- Node0xf3cdce0 -->
<g id="node3" class="node"><title>Node0xf3cdce0</title>
<polygon fill="none" stroke="black" points="285,-2027.5 285,-2063.5 415,-2063.5 415,-2027.5 285,-2027.5"/>
<text text-anchor="start" x="293" y="-2041.8" font-family="Times,serif" font-size="14.00">if (result == 0):</text>
</g>
<!-- Node0xdb9d580&#45;&gt;Node0xf3cdce0 -->
<g id="edge2" class="edge"><title>Node0xdb9d580&#45;&gt;Node0xf3cdce0</title>
<path fill="none" stroke="black" d="M350,-2101.18C350,-2091.44 350,-2081.96 350,-2073.71"/>
<polygon fill="black" stroke="black" points="353.5,-2073.64 350,-2063.64 346.5,-2073.64 353.5,-2073.64"/>
</g>
<!-- Node0xf3ce020 -->
<g id="node4" class="node"><title>Node0xf3ce020</title>
<polygon fill="none" stroke="black" points="361,-1772.5 361,-1975.5 839,-1975.5 839,-1772.5 361,-1772.5"/>
<text text-anchor="start" x="369" y="-1960.3" font-family="Times,serif" font-size="14.00">v6 = IntToPtrCastExpr&lt;ptr&gt;(g3)</text>
<text text-anchor="start" x="369" y="-1945.3" font-family="Times,serif" font-size="14.00"> v7 = (((g7 | &#45;(g7)) / 128) % 2)</text>
<text text-anchor="start" x="369" y="-1930.3" font-family="Times,serif" font-size="14.00"> v8 = (v7 ^ 1)</text>
<text text-anchor="start" x="369" y="-1915.3" font-family="Times,serif" font-size="14.00"> g6 = v8</text>
<text text-anchor="start" x="369" y="-1900.3" font-family="Times,serif" font-size="14.00"> v9 = &#45;(v7)</text>
<text text-anchor="start" x="369" y="-1885.3" font-family="Times,serif" font-size="14.00"> g4 = *(IntToPtrCastExpr&lt;ptr&gt;((g5 + 4)))</text>
<text text-anchor="start" x="369" y="-1870.3" font-family="Times,serif" font-size="14.00"> *(v6) = ((*(v6) &amp; &#45;(v8)) + (*(IntToPtrCastExpr&lt;ptr&gt;(g5)) &amp; v9))</text>
<text text-anchor="start" x="369" y="-1855.3" font-family="Times,serif" font-size="14.00"> v10</text>
<text text-anchor="start" x="369" y="-1840.3" font-family="Times,serif" font-size="14.00"> v11</text>
<text text-anchor="start" x="369" y="-1825.3" font-family="Times,serif" font-size="14.00"> v12</text>
<text text-anchor="start" x="369" y="-1810.3" font-family="Times,serif" font-size="14.00"> v13</text>
<text text-anchor="start" x="369" y="-1795.3" font-family="Times,serif" font-size="14.00"> v14</text>
<text text-anchor="start" x="369" y="-1780.3" font-family="Times,serif" font-size="14.00"> v15</text>
</g>
<!-- Node0xf3cdce0&#45;&gt;Node0xf3ce020 -->
<g id="edge3" class="edge"><title>Node0xf3cdce0&#45;&gt;Node0xf3ce020</title>
<path fill="none" stroke="black" d="M375.347,-2027.31C392.485,-2015.7 416.715,-1999.27 442.966,-1981.47"/>
<polygon fill="black" stroke="black" points="445.241,-1984.16 451.554,-1975.65 441.313,-1978.36 445.241,-1984.16"/>
<text text-anchor="middle" x="466.5" y="-1997.8" font-family="Times,serif" font-size="14.00">result == 0</text>
</g>
<!-- Node0xf3cdf10 -->
<g id="node5" class="node"><title>Node0xf3cdf10</title>
<polygon fill="none" stroke="black" points="251.5,-1297.5 251.5,-1380.5 364.5,-1380.5 364.5,-1297.5 251.5,-1297.5"/>
<text text-anchor="start" x="259.5" y="-1365.3" font-family="Times,serif" font-size="14.00">0x8057681:</text>
<text text-anchor="start" x="259.5" y="-1350.3" font-family="Times,serif" font-size="14.00"> g3 = v4</text>
<text text-anchor="start" x="259.5" y="-1335.3" font-family="Times,serif" font-size="14.00"> g7 = v3</text>
<text text-anchor="start" x="259.5" y="-1320.3" font-family="Times,serif" font-size="14.00"> g2 = v5</text>
<text text-anchor="start" x="259.5" y="-1305.3" font-family="Times,serif" font-size="14.00"> return result</text>
</g>
<!-- Node0xf3cdce0&#45;&gt;Node0xf3cdf10 -->
<g id="edge4" class="edge"><title>Node0xf3cdce0&#45;&gt;Node0xf3cdf10</title>
<path fill="none" stroke="black" d="M336.592,-2027.31C315.019,-1997.88 275,-1935.17 275,-1875 275,-1875 275,-1875 275,-1450.5 275,-1430.21 280.171,-1408.67 286.419,-1390.05"/>
<polygon fill="black" stroke="black" points="289.726,-1391.19 289.763,-1380.6 283.127,-1388.86 289.726,-1391.19"/>
<text text-anchor="middle" x="314.5" y="-1666.8" font-family="Times,serif" font-size="14.00">result != 0</text>
</g>
<!-- Node0xf3cdd40 -->
<g id="node6" class="node"><title>Node0xf3cdd40</title>
<polygon fill="none" stroke="black" points="591,-1696.5 591,-1734.5 697,-1734.5 697,-1696.5 591,-1696.5"/>
<text text-anchor="start" x="599" y="-1719.3" font-family="Times,serif" font-size="14.00">if (g4 == 0):</text>
<text text-anchor="start" x="599" y="-1704.3" font-family="Times,serif" font-size="14.00"> else:</text>
</g>
<!-- Node0xf3ce020&#45;&gt;Node0xf3cdd40 -->
<g id="edge5" class="edge"><title>Node0xf3ce020&#45;&gt;Node0xf3cdd40</title>
<path fill="none" stroke="black" d="M628.363,-1772.12C631.138,-1762.25 633.765,-1752.9 636.046,-1744.79"/>
<polygon fill="black" stroke="black" points="639.491,-1745.47 638.829,-1734.89 632.753,-1743.57 639.491,-1745.47"/>
</g>
<!-- Node0xa340260 -->
<g id="node7" class="node"><title>Node0xa340260</title>
<polygon fill="none" stroke="black" points="426,-23.5 426,-59.5 480,-59.5 480,-23.5 426,-23.5"/>
<text text-anchor="start" x="434" y="-37.8" font-family="Times,serif" font-size="14.00">exit:</text>
</g>
<!-- Node0xf3cdf10&#45;&gt;Node0xa340260 -->
<g id="edge6" class="edge"><title>Node0xf3cdf10&#45;&gt;Node0xa340260</title>
<path fill="none" stroke="black" d="M309.325,-1297.43C310.128,-1269.37 311,-1231.17 311,-1197.5 311,-1197.5 311,-1197.5 311,-138 311,-87.3613 373.948,-61.8188 416.022,-50.4021"/>
<polygon fill="black" stroke="black" points="417.136,-53.7298 425.957,-47.86 415.401,-46.9483 417.136,-53.7298"/>
</g>
<!-- Node0xf3ceaf0 -->
<g id="node8" class="node"><title>Node0xf3ceaf0</title>
<polygon fill="none" stroke="black" points="595,-1591.5 595,-1644.5 693,-1644.5 693,-1591.5 595,-1591.5"/>
<text text-anchor="start" x="603" y="-1629.3" font-family="Times,serif" font-size="14.00">0x80575fd:</text>
<text text-anchor="start" x="603" y="-1614.3" font-family="Times,serif" font-size="14.00"> v14 = 0</text>
<text text-anchor="start" x="603" y="-1599.3" font-family="Times,serif" font-size="14.00"> v13 = g3</text>
</g>
<!-- Node0xf3cdd40&#45;&gt;Node0xf3ceaf0 -->
<g id="edge7" class="edge"><title>Node0xf3cdd40&#45;&gt;Node0xf3ceaf0</title>
<path fill="none" stroke="black" d="M644,-1696.09C644,-1684.42 644,-1668.95 644,-1654.93"/>
<polygon fill="black" stroke="black" points="647.5,-1654.58 644,-1644.58 640.5,-1654.58 647.5,-1654.58"/>
<text text-anchor="middle" x="674.5" y="-1666.8" font-family="Times,serif" font-size="14.00">g4 == 0</text>
</g>
<!-- Node0xf3ceb50 -->
<g id="node9" class="node"><title>Node0xf3ceb50</title>
<polygon fill="none" stroke="black" points="740.5,-1489.5 740.5,-1572.5 1077.5,-1572.5 1077.5,-1489.5 740.5,-1489.5"/>
<text text-anchor="start" x="748.5" y="-1557.3" font-family="Times,serif" font-size="14.00">v16 = g3</text>
<text text-anchor="start" x="748.5" y="-1542.3" font-family="Times,serif" font-size="14.00"> v17 = *(IntToPtrCastExpr&lt;ptr&gt;((v16 + 8)))</text>
<text text-anchor="start" x="748.5" y="-1527.3" font-family="Times,serif" font-size="14.00"> g4 = v17</text>
<text text-anchor="start" x="748.5" y="-1512.3" font-family="Times,serif" font-size="14.00"> v12 = 0</text>
<text text-anchor="start" x="748.5" y="-1497.3" font-family="Times,serif" font-size="14.00"> v18 = 0</text>
</g>
<!-- Node0xf3cdd40&#45;&gt;Node0xf3ceb50 -->
<g id="edge8" class="edge"><title>Node0xf3cdd40&#45;&gt;Node0xf3ceb50</title>
<path fill="none" stroke="black" d="M677.851,-1696.49C688.014,-1690.82 699.092,-1684.37 709,-1678 757.285,-1646.97 809.601,-1608.6 848.612,-1578.98"/>
<polygon fill="black" stroke="black" points="850.894,-1581.65 856.728,-1572.8 846.652,-1576.08 850.894,-1581.65"/>
<text text-anchor="middle" x="757.5" y="-1666.8" font-family="Times,serif" font-size="14.00">g4 != 0</text>
</g>
<!-- Node0xf3ce620 -->
<g id="node10" class="node"><title>Node0xf3ce620</title>
<polygon fill="none" stroke="black" points="461,-1432.5 461,-1470.5 827,-1470.5 827,-1432.5 461,-1432.5"/>
<text text-anchor="start" x="469" y="-1455.3" font-family="Times,serif" font-size="14.00">0x8057664:</text>
<text text-anchor="start" x="469" y="-1440.3" font-family="Times,serif" font-size="14.00"> if (v14 &lt; *(IntToPtrCastExpr&lt;ptr&gt;((v13 + 4)))):</text>
</g>
<!-- Node0xf3ceaf0&#45;&gt;Node0xf3ce620 -->
<g id="edge9" class="edge"><title>Node0xf3ceaf0&#45;&gt;Node0xf3ce620</title>
<path fill="none" stroke="black" d="M644,-1591.3C644,-1561.39 644,-1512.15 644,-1481.07"/>
<polygon fill="black" stroke="black" points="647.5,-1480.89 644,-1470.89 640.5,-1480.89 647.5,-1480.89"/>
</g>
<!-- Node0xf3cec80 -->
<g id="node11" class="node"><title>Node0xf3cec80</title>
<polygon fill="none" stroke="black" points="941.5,-1321 941.5,-1357 1038.5,-1357 1038.5,-1321 941.5,-1321"/>
<text text-anchor="start" x="949.5" y="-1335.3" font-family="Times,serif" font-size="14.00">while True:</text>
</g>
<!-- Node0xf3ceb50&#45;&gt;Node0xf3cec80 -->
<g id="edge10" class="edge"><title>Node0xf3ceb50&#45;&gt;Node0xf3cec80</title>
<path fill="none" stroke="black" d="M927.769,-1489.41C937.876,-1467.24 950.407,-1439.23 961,-1414 967.533,-1398.44 974.443,-1380.85 979.879,-1366.73"/>
<polygon fill="black" stroke="black" points="983.244,-1367.73 983.55,-1357.14 976.707,-1365.23 983.244,-1367.73"/>
</g>
<!-- Node0xf3ce620&#45;&gt;Node0xf3cdf10 -->
<g id="edge12" class="edge"><title>Node0xf3ce620&#45;&gt;Node0xf3cdf10</title>
<path fill="none" stroke="black" d="M460.548,-1441.11C386.846,-1435.43 316.446,-1426.74 305,-1414 299.195,-1407.54 296.664,-1399.33 296.081,-1390.75"/>
<polygon fill="black" stroke="black" points="299.583,-1390.64 296.214,-1380.59 292.584,-1390.55 299.583,-1390.64"/>
<text text-anchor="middle" x="469" y="-1402.8" font-family="Times,serif" font-size="14.00">v14 &gt;= *(IntToPtrCastExpr&lt;ptr&gt;((v13 + 4)))</text>
</g>
<!-- Node0xf3ced00 -->
<g id="node12" class="node"><title>Node0xf3ced00</title>
<polygon fill="none" stroke="black" points="436.5,-1312.5 436.5,-1365.5 773.5,-1365.5 773.5,-1312.5 436.5,-1312.5"/>
<text text-anchor="start" x="444.5" y="-1350.3" font-family="Times,serif" font-size="14.00">0x8057669:</text>
<text text-anchor="start" x="444.5" y="-1335.3" font-family="Times,serif" font-size="14.00"> v15 = *(IntToPtrCastExpr&lt;ptr&gt;((v13 + 8)))</text>
<text text-anchor="start" x="444.5" y="-1320.3" font-family="Times,serif" font-size="14.00"> g4 = v15</text>
</g>
<!-- Node0xf3ce620&#45;&gt;Node0xf3ced00 -->
<g id="edge11" class="edge"><title>Node0xf3ce620&#45;&gt;Node0xf3ced00</title>
<path fill="none" stroke="black" d="M643.11,-1432.03C642.228,-1422.05 640.477,-1409.63 637,-1399 634.293,-1390.72 630.438,-1382.25 626.337,-1374.4"/>
<polygon fill="black" stroke="black" points="629.344,-1372.6 621.464,-1365.52 623.207,-1375.97 629.344,-1372.6"/>
<text text-anchor="middle" x="799" y="-1402.8" font-family="Times,serif" font-size="14.00">v14 &lt; *(IntToPtrCastExpr&lt;ptr&gt;((v13 + 4)))</text>
</g>
<!-- Node0xf3ceea0 -->
<g id="node13" class="node"><title>Node0xf3ceea0</title>
<polygon fill="none" stroke="black" points="770,-1147.5 770,-1245.5 1358,-1245.5 1358,-1147.5 770,-1147.5"/>
<text text-anchor="start" x="778" y="-1230.3" font-family="Times,serif" font-size="14.00">v19 = (4 * v18)</text>
<text text-anchor="start" x="778" y="-1215.3" font-family="Times,serif" font-size="14.00"> v20 = IntToPtrCastExpr&lt;ptr&gt;((v19 + v17))</text>
<text text-anchor="start" x="778" y="-1200.3" font-family="Times,serif" font-size="14.00"> v21 = *(IntToPtrCastExpr&lt;ptr&gt;((v19 + *(IntToPtrCastExpr&lt;ptr&gt;((g5 + 8))))))</text>
<text text-anchor="start" x="778" y="-1185.3" font-family="Times,serif" font-size="14.00"> *(v20) = ((v21 &amp; v9) + (g6 * *(v20)))</text>
<text text-anchor="start" x="778" y="-1170.3" font-family="Times,serif" font-size="14.00"> v22 = (v12 + 1)</text>
<text text-anchor="start" x="778" y="-1155.3" font-family="Times,serif" font-size="14.00"> v12 = v22</text>
</g>
<!-- Node0xf3cec80&#45;&gt;Node0xf3ceea0 -->
<g id="edge13" class="edge"><title>Node0xf3cec80&#45;&gt;Node0xf3ceea0</title>
<path fill="none" stroke="black" d="M999.074,-1320.77C1007.77,-1304.27 1021.37,-1278.43 1033.89,-1254.66"/>
<polygon fill="black" stroke="black" points="1037.06,-1256.16 1038.62,-1245.68 1030.87,-1252.9 1037.06,-1256.16"/>
<text text-anchor="middle" x="1044" y="-1267.8" font-family="Times,serif" font-size="14.00">True</text>
</g>
<!-- Node0xf3cee00 -->
<g id="node14" class="node"><title>Node0xf3cee00</title>
<polygon fill="none" stroke="black" points="530.5,-1178.5 530.5,-1214.5 627.5,-1214.5 627.5,-1178.5 530.5,-1178.5"/>
<text text-anchor="start" x="538.5" y="-1192.8" font-family="Times,serif" font-size="14.00">while True:</text>
</g>
<!-- Node0xf3ced00&#45;&gt;Node0xf3cee00 -->
<g id="edge14" class="edge"><title>Node0xf3ced00&#45;&gt;Node0xf3cee00</title>
<path fill="none" stroke="black" d="M600.231,-1312.23C595.639,-1287.41 588.719,-1250.02 584.038,-1224.72"/>
<polygon fill="black" stroke="black" points="587.444,-1223.89 582.182,-1214.7 580.561,-1225.17 587.444,-1223.89"/>
</g>
<!-- Node0xf3ce2f0 -->
<g id="node15" class="node"><title>Node0xf3ce2f0</title>
<polygon fill="none" stroke="black" points="881.5,-1036 881.5,-1072 1246.5,-1072 1246.5,-1036 881.5,-1036"/>
<text text-anchor="start" x="889.5" y="-1050.3" font-family="Times,serif" font-size="14.00">if (*(IntToPtrCastExpr&lt;ptr&gt;((g5 + 4))) &lt;= v22):</text>
</g>
<!-- Node0xf3ceea0&#45;&gt;Node0xf3ce2f0 -->
<g id="edge15" class="edge"><title>Node0xf3ceea0&#45;&gt;Node0xf3ce2f0</title>
<path fill="none" stroke="black" d="M1064,-1147.15C1064,-1125.38 1064,-1100.5 1064,-1082.09"/>
<polygon fill="black" stroke="black" points="1067.5,-1082.06 1064,-1072.06 1060.5,-1082.06 1067.5,-1082.06"/>
</g>
<!-- Node0xf3ce680 -->
<g id="node16" class="node"><title>Node0xf3ce680</title>
<polygon fill="none" stroke="black" points="342,-1012.5 342,-1095.5 714,-1095.5 714,-1012.5 342,-1012.5"/>
<text text-anchor="start" x="350" y="-1080.3" font-family="Times,serif" font-size="14.00">0x8057670:</text>
<text text-anchor="start" x="350" y="-1065.3" font-family="Times,serif" font-size="14.00"> v11 = IntToPtrCastExpr&lt;ptr&gt;(((4 * v14) + v15))</text>
<text text-anchor="start" x="350" y="-1050.3" font-family="Times,serif" font-size="14.00"> *(v11) = (g6 * *(v11))</text>
<text text-anchor="start" x="350" y="-1035.3" font-family="Times,serif" font-size="14.00"> v10 = 1</text>
<text text-anchor="start" x="350" y="-1020.3" font-family="Times,serif" font-size="14.00"> v12 = v10</text>
</g>
<!-- Node0xf3cee00&#45;&gt;Node0xf3ce680 -->
<g id="edge16" class="edge"><title>Node0xf3cee00&#45;&gt;Node0xf3ce680</title>
<path fill="none" stroke="black" d="M572.746,-1178.27C566.166,-1160.14 555.498,-1130.75 546.228,-1105.22"/>
<polygon fill="black" stroke="black" points="549.458,-1103.86 542.756,-1095.65 542.878,-1106.24 549.458,-1103.86"/>
<text text-anchor="middle" x="571" y="-1117.8" font-family="Times,serif" font-size="14.00">True</text>
</g>
<!-- Node0xf3cfdd0 -->
<g id="node17" class="node"><title>Node0xf3cfdd0</title>
<polygon fill="none" stroke="black" points="1027.5,-892.5 1027.5,-960.5 1128.5,-960.5 1128.5,-892.5 1027.5,-892.5"/>
<text text-anchor="start" x="1035.5" y="-945.3" font-family="Times,serif" font-size="14.00">0x8057661:</text>
<text text-anchor="start" x="1035.5" y="-930.3" font-family="Times,serif" font-size="14.00"> g3 = v16</text>
<text text-anchor="start" x="1035.5" y="-915.3" font-family="Times,serif" font-size="14.00"> v14 = v22</text>
<text text-anchor="start" x="1035.5" y="-900.3" font-family="Times,serif" font-size="14.00"> v13 = v16</text>
</g>
<!-- Node0xf3ce2f0&#45;&gt;Node0xf3cfdd0 -->
<g id="edge17" class="edge"><title>Node0xf3ce2f0&#45;&gt;Node0xf3cfdd0</title>
<path fill="none" stroke="black" d="M1071.49,-1035.83C1076.11,-1024.26 1081.61,-1008.51 1084,-994 1085.23,-986.524 1085.44,-978.531 1085.08,-970.772"/>
<polygon fill="black" stroke="black" points="1088.56,-970.468 1084.3,-960.77 1081.59,-971.012 1088.56,-970.468"/>
<text text-anchor="middle" x="1245" y="-982.8" font-family="Times,serif" font-size="14.00">*(IntToPtrCastExpr&lt;ptr&gt;((g5 + 4))) &lt;= v22</text>
</g>
<!-- Node0x8d806f0 -->
<g id="node18" class="node"><title>Node0x8d806f0</title>
<polygon fill="none" stroke="black" points="723.5,-900 723.5,-953 824.5,-953 824.5,-900 723.5,-900"/>
<text text-anchor="start" x="731.5" y="-937.8" font-family="Times,serif" font-size="14.00">0x8057640:</text>
<text text-anchor="start" x="731.5" y="-922.8" font-family="Times,serif" font-size="14.00"> v18 = v22</text>
<text text-anchor="start" x="731.5" y="-907.8" font-family="Times,serif" font-size="14.00"> v17 = g4</text>
</g>
<!-- Node0xf3ce2f0&#45;&gt;Node0x8d806f0 -->
<g id="edge18" class="edge"><title>Node0xf3ce2f0&#45;&gt;Node0x8d806f0</title>
<path fill="none" stroke="black" d="M887.13,-1035.94C835.314,-1027.06 788.17,-1013.76 772,-994 765.072,-985.532 763.545,-974.225 764.37,-963.341"/>
<polygon fill="black" stroke="black" points="767.878,-963.526 765.783,-953.14 760.944,-962.566 767.878,-963.526"/>
<text text-anchor="middle" x="926" y="-982.8" font-family="Times,serif" font-size="14.00">*(IntToPtrCastExpr&lt;ptr&gt;((g5 + 4))) &gt; v22</text>
</g>
<!-- Node0xf3ce720 -->
<g id="node19" class="node"><title>Node0xf3ce720</title>
<polygon fill="none" stroke="black" points="351.5,-908.5 351.5,-944.5 704.5,-944.5 704.5,-908.5 351.5,-908.5"/>
<text text-anchor="start" x="359.5" y="-922.8" font-family="Times,serif" font-size="14.00">if (*(IntToPtrCastExpr&lt;ptr&gt;((g3 + 4))) &gt; v10):</text>
</g>
<!-- Node0xf3ce680&#45;&gt;Node0xf3ce720 -->
<g id="edge19" class="edge"><title>Node0xf3ce680&#45;&gt;Node0xf3ce720</title>
<path fill="none" stroke="black" d="M528,-1012.25C528,-993.466 528,-971.665 528,-954.879"/>
<polygon fill="black" stroke="black" points="531.5,-954.654 528,-944.654 524.5,-954.654 531.5,-954.654"/>
</g>
<!-- Node0xf3cff10 -->
<g id="node20" class="node"><title>Node0xf3cff10</title>
<polygon fill="none" stroke="black" points="866,-802.5 866,-840.5 1232,-840.5 1232,-802.5 866,-802.5"/>
<text text-anchor="start" x="874" y="-825.3" font-family="Times,serif" font-size="14.00">0x8057664:</text>
<text text-anchor="start" x="874" y="-810.3" font-family="Times,serif" font-size="14.00"> if (v14 &lt; *(IntToPtrCastExpr&lt;ptr&gt;((v13 + 4)))):</text>
</g>
<!-- Node0xf3cfdd0&#45;&gt;Node0xf3cff10 -->
<g id="edge20" class="edge"><title>Node0xf3cfdd0&#45;&gt;Node0xf3cff10</title>
<path fill="none" stroke="black" d="M1068.66,-892.343C1064.85,-878.793 1060.49,-863.295 1056.84,-850.345"/>
<polygon fill="black" stroke="black" points="1060.17,-849.269 1054.09,-840.592 1053.44,-851.167 1060.17,-849.269"/>
</g>
<!-- Node0x8d806f0&#45;&gt;Node0xf3cec80 -->
<g id="edge21" class="edge"><title>Node0x8d806f0&#45;&gt;Node0xf3cec80</title>
<path fill="none" stroke="black" d="M763.508,-953.391C741.817,-1011.48 699.017,-1154.3 761,-1246 798.756,-1301.86 876.62,-1323.81 931.019,-1332.43"/>
<polygon fill="black" stroke="black" points="930.824,-1335.94 941.228,-1333.93 931.846,-1329.01 930.824,-1335.94"/>
</g>
<!-- Node0xf3d06d0 -->
<g id="node21" class="node"><title>Node0xf3d06d0</title>
<polygon fill="none" stroke="black" points="656.5,-803.5 656.5,-839.5 789.5,-839.5 789.5,-803.5 656.5,-803.5"/>
<text text-anchor="start" x="664.5" y="-817.8" font-family="Times,serif" font-size="14.00">goto 0x8057670</text>
</g>
<!-- Node0xf3ce720&#45;&gt;Node0xf3d06d0 -->
<g id="edge22" class="edge"><title>Node0xf3ce720&#45;&gt;Node0xf3d06d0</title>
<path fill="none" stroke="black" d="M641.423,-908.469C663.844,-900.853 685.745,-889.859 703,-874 710.08,-867.492 714.683,-858.182 717.662,-849.263"/>
<polygon fill="black" stroke="black" points="721.061,-850.102 720.381,-839.529 714.319,-848.219 721.061,-850.102"/>
<text text-anchor="middle" x="868" y="-862.8" font-family="Times,serif" font-size="14.00">*(IntToPtrCastExpr&lt;ptr&gt;((g3 + 4))) &gt; v10</text>
</g>
<!-- Node0xf3cfd70 -->
<g id="node22" class="node"><title>Node0xf3cfd70</title>
<polygon fill="none" stroke="black" points="342.5,-700.5 342.5,-783.5 455.5,-783.5 455.5,-700.5 342.5,-700.5"/>
<text text-anchor="start" x="350.5" y="-768.3" font-family="Times,serif" font-size="14.00">0x8057681:</text>
<text text-anchor="start" x="350.5" y="-753.3" font-family="Times,serif" font-size="14.00"> g3 = v4</text>
<text text-anchor="start" x="350.5" y="-738.3" font-family="Times,serif" font-size="14.00"> g7 = v3</text>
<text text-anchor="start" x="350.5" y="-723.3" font-family="Times,serif" font-size="14.00"> g2 = v5</text>
<text text-anchor="start" x="350.5" y="-708.3" font-family="Times,serif" font-size="14.00"> return result</text>
</g>
<!-- Node0xf3ce720&#45;&gt;Node0xf3cfd70 -->
<g id="edge23" class="edge"><title>Node0xf3ce720&#45;&gt;Node0xf3cfd70</title>
<path fill="none" stroke="black" d="M424.691,-908.483C406.757,-900.836 390.275,-889.827 379,-874 362.547,-850.905 366.573,-819.682 375.172,-793.512"/>
<polygon fill="black" stroke="black" points="378.589,-794.351 378.659,-783.756 371.997,-791.995 378.589,-794.351"/>
<text text-anchor="middle" x="539" y="-862.8" font-family="Times,serif" font-size="14.00">*(IntToPtrCastExpr&lt;ptr&gt;((g3 + 4))) &lt;= v10</text>
</g>
<!-- Node0xf3d0780 -->
<g id="node23" class="node"><title>Node0xf3d0780</title>
<polygon fill="none" stroke="black" points="863.5,-598.5 863.5,-681.5 1200.5,-681.5 1200.5,-598.5 863.5,-598.5"/>
<text text-anchor="start" x="871.5" y="-666.3" font-family="Times,serif" font-size="14.00">0x8057669:</text>
<text text-anchor="start" x="871.5" y="-651.3" font-family="Times,serif" font-size="14.00"> v15 = *(IntToPtrCastExpr&lt;ptr&gt;((v13 + 8)))</text>
<text text-anchor="start" x="871.5" y="-636.3" font-family="Times,serif" font-size="14.00"> g4 = v15</text>
<text text-anchor="start" x="871.5" y="-621.3" font-family="Times,serif" font-size="14.00"> v23 = v14</text>
<text text-anchor="start" x="871.5" y="-606.3" font-family="Times,serif" font-size="14.00"> v24 = v15</text>
</g>
<!-- Node0xf3cff10&#45;&gt;Node0xf3d0780 -->
<g id="edge24" class="edge"><title>Node0xf3cff10&#45;&gt;Node0xf3d0780</title>
<path fill="none" stroke="black" d="M1047.28,-802.301C1044.85,-776.638 1040.32,-728.827 1036.82,-691.895"/>
<polygon fill="black" stroke="black" points="1040.29,-691.419 1035.86,-681.794 1033.32,-692.079 1040.29,-691.419"/>
<text text-anchor="middle" x="1203" y="-738.3" font-family="Times,serif" font-size="14.00">v14 &lt; *(IntToPtrCastExpr&lt;ptr&gt;((v13 + 4)))</text>
</g>
<!-- Node0xf3d0620 -->
<g id="node24" class="node"><title>Node0xf3d0620</title>
<polygon fill="none" stroke="black" points="494.5,-496.5 494.5,-579.5 607.5,-579.5 607.5,-496.5 494.5,-496.5"/>
<text text-anchor="start" x="502.5" y="-564.3" font-family="Times,serif" font-size="14.00">0x8057681:</text>
<text text-anchor="start" x="502.5" y="-549.3" font-family="Times,serif" font-size="14.00"> g3 = v4</text>
<text text-anchor="start" x="502.5" y="-534.3" font-family="Times,serif" font-size="14.00"> g7 = v3</text>
<text text-anchor="start" x="502.5" y="-519.3" font-family="Times,serif" font-size="14.00"> g2 = v5</text>
<text text-anchor="start" x="502.5" y="-504.3" font-family="Times,serif" font-size="14.00"> return result</text>
</g>
<!-- Node0xf3cff10&#45;&gt;Node0xf3d0620 -->
<g id="edge25" class="edge"><title>Node0xf3cff10&#45;&gt;Node0xf3d0620</title>
<path fill="none" stroke="black" d="M865.662,-807.92C791.484,-801.539 719.746,-793.197 705,-784 633.071,-739.137 589.057,-646.973 567.409,-589.355"/>
<polygon fill="black" stroke="black" points="570.604,-587.902 563.875,-579.718 564.032,-590.312 570.604,-587.902"/>
<text text-anchor="middle" x="869" y="-738.3" font-family="Times,serif" font-size="14.00">v14 &gt;= *(IntToPtrCastExpr&lt;ptr&gt;((v13 + 4)))</text>
</g>
<!-- Node0xf3d0ee0 -->
<g id="node25" class="node"><title>Node0xf3d0ee0</title>
<polygon fill="none" stroke="black" points="726.5,-613.5 726.5,-666.5 827.5,-666.5 827.5,-613.5 726.5,-613.5"/>
<text text-anchor="start" x="734.5" y="-651.3" font-family="Times,serif" font-size="14.00">0x8057670:</text>
<text text-anchor="start" x="734.5" y="-636.3" font-family="Times,serif" font-size="14.00"> v23 = v10</text>
<text text-anchor="start" x="734.5" y="-621.3" font-family="Times,serif" font-size="14.00"> v24 = g4</text>
</g>
<!-- Node0xf3d06d0&#45;&gt;Node0xf3d0ee0 -->
<g id="edge26" class="edge"><title>Node0xf3d06d0&#45;&gt;Node0xf3d0ee0</title>
<path fill="none" stroke="black" d="M694.903,-803.43C688.5,-798.07 682.545,-791.546 679,-784 663.127,-750.209 660.63,-732.501 679,-700 687.699,-684.608 702.2,-672.786 717.415,-663.913"/>
<polygon fill="black" stroke="black" points="719.3,-666.872 726.418,-659.024 715.96,-660.721 719.3,-666.872"/>
</g>
<!-- Node0xf3cfd70&#45;&gt;Node0xa340260 -->
<g id="edge27" class="edge"><title>Node0xf3cfd70&#45;&gt;Node0xa340260</title>
<path fill="none" stroke="black" d="M408.014,-700.22C416.199,-659.583 427,-595.294 427,-539 427,-539 427,-539 427,-138 427,-114.112 434.667,-88.0071 441.674,-69.1365"/>
<polygon fill="black" stroke="black" points="444.974,-70.3065 445.34,-59.718 438.451,-67.7676 444.974,-70.3065"/>
</g>
<!-- Node0xf3d09b0 -->
<g id="node26" class="node"><title>Node0xf3d09b0</title>
<polygon fill="none" stroke="black" points="973.5,-441.5 973.5,-477.5 1070.5,-477.5 1070.5,-441.5 973.5,-441.5"/>
<text text-anchor="start" x="981.5" y="-455.8" font-family="Times,serif" font-size="14.00">while True:</text>
</g>
<!-- Node0xf3d0780&#45;&gt;Node0xf3d09b0 -->
<g id="edge28" class="edge"><title>Node0xf3d0780&#45;&gt;Node0xf3d09b0</title>
<path fill="none" stroke="black" d="M1029.73,-598.496C1027.83,-564.6 1025.17,-517.172 1023.52,-487.672"/>
<polygon fill="black" stroke="black" points="1027.02,-487.462 1022.96,-477.674 1020.03,-487.854 1027.02,-487.462"/>
</g>
<!-- Node0xf3d0620&#45;&gt;Node0xa340260 -->
<g id="edge29" class="edge"><title>Node0xf3d0620&#45;&gt;Node0xa340260</title>
<path fill="none" stroke="black" d="M512.05,-496.413C495.085,-474.521 479,-445.988 479,-416.5 479,-416.5 479,-416.5 479,-138 479,-114.112 471.333,-88.0071 464.326,-69.1365"/>
<polygon fill="black" stroke="black" points="467.549,-67.7676 460.66,-59.718 461.026,-70.3065 467.549,-67.7676"/>
</g>
<!-- Node0xf3d0ee0&#45;&gt;Node0xf3d09b0 -->
<g id="edge30" class="edge"><title>Node0xf3d0ee0&#45;&gt;Node0xf3d09b0</title>
<path fill="none" stroke="black" d="M812.103,-613.425C859.809,-578.667 944.417,-517.025 990.294,-483.6"/>
<polygon fill="black" stroke="black" points="992.371,-486.418 998.392,-477.7 988.249,-480.76 992.371,-486.418"/>
</g>
<!-- Node0xf3ccb90 -->
<g id="node27" class="node"><title>Node0xf3ccb90</title>
<polygon fill="none" stroke="black" points="777,-306.5 777,-389.5 1149,-389.5 1149,-306.5 777,-306.5"/>
<text text-anchor="start" x="785" y="-374.3" font-family="Times,serif" font-size="14.00">0x8057670:</text>
<text text-anchor="start" x="785" y="-359.3" font-family="Times,serif" font-size="14.00"> v11 = IntToPtrCastExpr&lt;ptr&gt;(((4 * v23) + v24))</text>
<text text-anchor="start" x="785" y="-344.3" font-family="Times,serif" font-size="14.00"> *(v11) = (g6 * *(v11))</text>
<text text-anchor="start" x="785" y="-329.3" font-family="Times,serif" font-size="14.00"> v10 = (v12 + 1)</text>
<text text-anchor="start" x="785" y="-314.3" font-family="Times,serif" font-size="14.00"> v12 = v10</text>
</g>
<!-- Node0xf3d09b0&#45;&gt;Node0xf3ccb90 -->
<g id="edge31" class="edge"><title>Node0xf3d09b0&#45;&gt;Node0xf3ccb90</title>
<path fill="none" stroke="black" d="M1015.28,-441.37C1011.21,-431.451 1005.71,-418.826 1000,-408 998.371,-404.912 996.639,-401.77 994.847,-398.626"/>
<polygon fill="black" stroke="black" points="997.752,-396.66 989.678,-389.8 991.712,-400.198 997.752,-396.66"/>
<text text-anchor="middle" x="1024" y="-411.8" font-family="Times,serif" font-size="14.00">True</text>
</g>
<!-- Node0xf3d0ab0 -->
<g id="node28" class="node"><title>Node0xf3d0ab0</title>
<polygon fill="none" stroke="black" points="508.5,-232.5 508.5,-268.5 873.5,-268.5 873.5,-232.5 508.5,-232.5"/>
<text text-anchor="start" x="516.5" y="-246.8" font-family="Times,serif" font-size="14.00">if (*(IntToPtrCastExpr&lt;ptr&gt;((g3 + 4))) &lt;= v10):</text>
</g>
<!-- Node0xf3ccb90&#45;&gt;Node0xf3d0ab0 -->
<g id="edge32" class="edge"><title>Node0xf3ccb90&#45;&gt;Node0xf3d0ab0</title>
<path fill="none" stroke="black" d="M847.648,-306.499C813.565,-294.533 777.711,-281.944 748.918,-271.835"/>
<polygon fill="black" stroke="black" points="750.032,-268.517 739.437,-268.506 747.713,-275.122 750.032,-268.517"/>
</g>
<!-- Node0xf3d0ab0&#45;&gt;Node0xf3d0ee0 -->
<g id="edge34" class="edge"><title>Node0xf3d0ab0&#45;&gt;Node0xf3d0ee0</title>
<path fill="none" stroke="black" d="M688.314,-268.752C683.988,-299.912 677.013,-367.497 688,-423 701.326,-490.32 735.916,-563.01 757.84,-604.563"/>
<polygon fill="black" stroke="black" points="754.784,-606.269 762.583,-613.441 760.958,-602.971 754.784,-606.269"/>
<text text-anchor="middle" x="842" y="-411.8" font-family="Times,serif" font-size="14.00">*(IntToPtrCastExpr&lt;ptr&gt;((g3 + 4))) &gt; v10</text>
</g>
<!-- Node0xf3d0f90 -->
<g id="node29" class="node"><title>Node0xf3d0f90</title>
<polygon fill="none" stroke="black" points="539.5,-97.5 539.5,-180.5 652.5,-180.5 652.5,-97.5 539.5,-97.5"/>
<text text-anchor="start" x="547.5" y="-165.3" font-family="Times,serif" font-size="14.00">0x8057681:</text>
<text text-anchor="start" x="547.5" y="-150.3" font-family="Times,serif" font-size="14.00"> g3 = v4</text>
<text text-anchor="start" x="547.5" y="-135.3" font-family="Times,serif" font-size="14.00"> g7 = v3</text>
<text text-anchor="start" x="547.5" y="-120.3" font-family="Times,serif" font-size="14.00"> g2 = v5</text>
<text text-anchor="start" x="547.5" y="-105.3" font-family="Times,serif" font-size="14.00"> return result</text>
</g>
<!-- Node0xf3d0ab0&#45;&gt;Node0xf3d0f90 -->
<g id="edge33" class="edge"><title>Node0xf3d0ab0&#45;&gt;Node0xf3d0f90</title>
<path fill="none" stroke="black" d="M676.156,-232.391C665.842,-220.502 651.545,-204.023 637.878,-188.27"/>
<polygon fill="black" stroke="black" points="640.436,-185.878 631.239,-180.618 635.149,-190.465 640.436,-185.878"/>
<text text-anchor="middle" x="818" y="-202.8" font-family="Times,serif" font-size="14.00">*(IntToPtrCastExpr&lt;ptr&gt;((g3 + 4))) &lt;= v10</text>
</g>
<!-- Node0xf3d0f90&#45;&gt;Node0xa340260 -->
<g id="edge35" class="edge"><title>Node0xf3d0f90&#45;&gt;Node0xa340260</title>
<path fill="none" stroke="black" d="M539.483,-100.256C521.698,-88.3785 502.618,-75.6364 486.916,-65.1505"/>
<polygon fill="black" stroke="black" points="488.831,-62.2201 478.571,-59.5769 484.943,-68.0413 488.831,-62.2201"/>
</g>
</g>
</svg>
