<?xml version="1.0" encoding="UTF-8" standalone="no"?>
<!DOCTYPE svg PUBLIC "-//W3C//DTD SVG 1.1//EN"
 "http://www.w3.org/Graphics/SVG/1.1/DTD/svg11.dtd">
<!-- Generated by graphviz version 2.38.0 (20140413.2041)
 -->
<!-- Title: Control&#45;flow graph for function &#39;mbedtls_blowfish_crypt_ecb(*a1, a2, *a3, *a4)&#39;. Pages: 1 -->
<svg width="1999pt" height="1000pt"
 viewBox="0.00 0.00 1998.50 1000.00" xmlns="http://www.w3.org/2000/svg" xmlns:xlink="http://www.w3.org/1999/xlink">
<g id="graph0" class="graph" transform="scale(1 1) rotate(0) translate(4 996)">
<title>Control&#45;flow graph for function &#39;mbedtls_blowfish_crypt_ecb(*a1, a2, *a3, *a4)&#39;.</title>
<polygon fill="white" stroke="none" points="-4,4 -4,-996 1994.5,-996 1994.5,4 -4,4"/>
<text text-anchor="middle" x="995.25" y="-7.8" font-family="Times,serif" font-size="14.00">Control&#45;flow graph for function &#39;mbedtls_blowfish_crypt_ecb(*a1, a2, *a3, *a4)&#39;.</text>
<!-- Node0x2768b750 -->
<g id="node1" class="node"><title>Node0x2768b750</title>
<polygon fill="none" stroke="black" points="959.5,-908.5 959.5,-991.5 1018.5,-991.5 1018.5,-908.5 959.5,-908.5"/>
<text text-anchor="start" x="967.5" y="-976.3" font-family="Times,serif" font-size="14.00">entry:</text>
<text text-anchor="start" x="967.5" y="-961.3" font-family="Times,serif" font-size="14.00"> a1</text>
<text text-anchor="start" x="967.5" y="-946.3" font-family="Times,serif" font-size="14.00"> a2</text>
<text text-anchor="start" x="967.5" y="-931.3" font-family="Times,serif" font-size="14.00"> a3</text>
<text text-anchor="start" x="967.5" y="-916.3" font-family="Times,serif" font-size="14.00"> a4</text>
</g>
<!-- Node0x95b9320 -->
<g id="node2" class="node"><title>Node0x95b9320</title>
<polygon fill="none" stroke="black" points="434.5,-652.5 434.5,-870.5 1543.5,-870.5 1543.5,-652.5 434.5,-652.5"/>
<text text-anchor="start" x="442.5" y="-855.3" font-family="Times,serif" font-size="14.00">v1 = PtrToIntCastExpr&lt;int32&gt;(a1)</text>
<text text-anchor="start" x="442.5" y="-840.3" font-family="Times,serif" font-size="14.00"> v2 = PtrToIntCastExpr&lt;int32&gt;(a3)</text>
<text text-anchor="start" x="442.5" y="-825.3" font-family="Times,serif" font-size="14.00"> v3 = *(a3)</text>
<text text-anchor="start" x="442.5" y="-810.3" font-family="Times,serif" font-size="14.00"> v4 = *(IntToPtrCastExpr&lt;ptr&gt;((v2 + 3)))</text>
<text text-anchor="start" x="442.5" y="-795.3" font-family="Times,serif" font-size="14.00"> v5 = *(IntToPtrCastExpr&lt;ptr&gt;((v2 + 5)))</text>
<text text-anchor="start" x="442.5" y="-780.3" font-family="Times,serif" font-size="14.00"> v6 = *(IntToPtrCastExpr&lt;ptr&gt;((v2 + 1)))</text>
<text text-anchor="start" x="442.5" y="-765.3" font-family="Times,serif" font-size="14.00"> v7 = *(IntToPtrCastExpr&lt;ptr&gt;((v2 + 2)))</text>
<text text-anchor="start" x="442.5" y="-750.3" font-family="Times,serif" font-size="14.00"> v8 = ((256 * ExtCastExpr&lt;int32&gt;(v7)) | ((65536 * ExtCastExpr&lt;int32&gt;(v6)) | ((16777216 * ExtCastExpr&lt;int32&gt;(v3)) | ExtCastExpr&lt;int32&gt;(v4))))</text>
<text text-anchor="start" x="442.5" y="-735.3" font-family="Times,serif" font-size="14.00"> v9 = *(IntToPtrCastExpr&lt;ptr&gt;((v2 + 4)))</text>
<text text-anchor="start" x="442.5" y="-720.3" font-family="Times,serif" font-size="14.00"> v10 = *(IntToPtrCastExpr&lt;ptr&gt;((v2 + 7)))</text>
<text text-anchor="start" x="442.5" y="-705.3" font-family="Times,serif" font-size="14.00"> v11 = *(IntToPtrCastExpr&lt;ptr&gt;((v2 + 6)))</text>
<text text-anchor="start" x="442.5" y="-690.3" font-family="Times,serif" font-size="14.00"> v12 = ((((16777216 * ExtCastExpr&lt;int32&gt;(v9)) | (65536 * ExtCastExpr&lt;int32&gt;(v5))) | ExtCastExpr&lt;int32&gt;(v10)) | (256 * ExtCastExpr&lt;int32&gt;(v11)))</text>
<text text-anchor="start" x="442.5" y="-675.3" font-family="Times,serif" font-size="14.00"> v13</text>
<text text-anchor="start" x="442.5" y="-660.3" font-family="Times,serif" font-size="14.00"> v14</text>
</g>
<!-- Node0x2768b750&#45;&gt;Node0x95b9320 -->
<g id="edge1" class="edge"><title>Node0x2768b750&#45;&gt;Node0x95b9320</title>
<path fill="none" stroke="black" d="M989,-908.072C989,-899.716 989,-890.531 989,-880.963"/>
<polygon fill="black" stroke="black" points="992.5,-880.873 989,-870.873 985.5,-880.873 992.5,-880.873"/>
</g>
<!-- Node0x95b8ea0 -->
<g id="node3" class="node"><title>Node0x95b8ea0</title>
<polygon fill="none" stroke="black" points="936.5,-576.5 936.5,-614.5 1041.5,-614.5 1041.5,-576.5 936.5,-576.5"/>
<text text-anchor="start" x="944.5" y="-599.3" font-family="Times,serif" font-size="14.00">if (a2 == 0):</text>
<text text-anchor="start" x="944.5" y="-584.3" font-family="Times,serif" font-size="14.00"> else:</text>
</g>
<!-- Node0x95b9320&#45;&gt;Node0x95b8ea0 -->
<g id="edge2" class="edge"><title>Node0x95b9320&#45;&gt;Node0x95b8ea0</title>
<path fill="none" stroke="black" d="M989,-652.481C989,-642.585 989,-633.254 989,-625.151"/>
<polygon fill="black" stroke="black" points="992.5,-624.925 989,-614.925 985.5,-624.925 992.5,-624.925"/>
</g>
<!-- Node0x95b94f0 -->
<g id="node4" class="node"><title>Node0x95b94f0</title>
<polygon fill="none" stroke="black" points="312,-389 312,-517 890,-517 890,-389 312,-389"/>
<text text-anchor="start" x="320" y="-501.8" font-family="Times,serif" font-size="14.00">v15 = v1</text>
<text text-anchor="start" x="320" y="-486.8" font-family="Times,serif" font-size="14.00"> v16 = (v15 &#45; 4)</text>
<text text-anchor="start" x="320" y="-471.8" font-family="Times,serif" font-size="14.00"> v17 = (*(IntToPtrCastExpr&lt;ptr&gt;((v15 + 68))) ^ v8)</text>
<text text-anchor="start" x="320" y="-456.8" font-family="Times,serif" font-size="14.00"> v18 = *(IntToPtrCastExpr&lt;ptr&gt;(((v1 + 72) + (4 * (v17 / 16777216)))))</text>
<text text-anchor="start" x="320" y="-441.8" font-family="Times,serif" font-size="14.00"> v19 = *(IntToPtrCastExpr&lt;ptr&gt;(((v1 + 1096) + (4 * ((v17 / 65536) % 256)))))</text>
<text text-anchor="start" x="320" y="-426.8" font-family="Times,serif" font-size="14.00"> v20 = *(IntToPtrCastExpr&lt;ptr&gt;(((v1 + 2120) + (4 * ((v17 / 256) % 256)))))</text>
<text text-anchor="start" x="320" y="-411.8" font-family="Times,serif" font-size="14.00"> v21 = *(IntToPtrCastExpr&lt;ptr&gt;(((v1 + 3144) + (4 * (v17 % 256)))))</text>
<text text-anchor="start" x="320" y="-396.8" font-family="Times,serif" font-size="14.00"> v22 = ((v21 + (v20 ^ (v19 + v18))) ^ v12)</text>
</g>
<!-- Node0x95b8ea0&#45;&gt;Node0x95b94f0 -->
<g id="edge3" class="edge"><title>Node0x95b8ea0&#45;&gt;Node0x95b94f0</title>
<path fill="none" stroke="black" d="M939.07,-576.42C899.422,-562.062 841.381,-541.045 784.541,-520.462"/>
<polygon fill="black" stroke="black" points="785.656,-517.144 775.062,-517.03 783.273,-523.726 785.656,-517.144"/>
<text text-anchor="middle" x="915" y="-546.8" font-family="Times,serif" font-size="14.00">a2 == 0</text>
</g>
<!-- Node0x95b98e0 -->
<g id="node5" class="node"><title>Node0x95b98e0</title>
<polygon fill="none" stroke="black" points="934,-381.5 934,-524.5 1512,-524.5 1512,-381.5 934,-381.5"/>
<text text-anchor="start" x="942" y="-509.3" font-family="Times,serif" font-size="14.00">v23 = (v1 + 64)</text>
<text text-anchor="start" x="942" y="-494.3" font-family="Times,serif" font-size="14.00"> v24 = v1</text>
<text text-anchor="start" x="942" y="-479.3" font-family="Times,serif" font-size="14.00"> v25 = (v24 + 4)</text>
<text text-anchor="start" x="942" y="-464.3" font-family="Times,serif" font-size="14.00"> v26 = (*(IntToPtrCastExpr&lt;ptr&gt;(v24)) ^ v8)</text>
<text text-anchor="start" x="942" y="-449.3" font-family="Times,serif" font-size="14.00"> v27 = *(IntToPtrCastExpr&lt;ptr&gt;(((v1 + 72) + (4 * (v26 / 16777216)))))</text>
<text text-anchor="start" x="942" y="-434.3" font-family="Times,serif" font-size="14.00"> v28 = *(IntToPtrCastExpr&lt;ptr&gt;(((v1 + 1096) + (4 * ((v26 / 65536) % 256)))))</text>
<text text-anchor="start" x="942" y="-419.3" font-family="Times,serif" font-size="14.00"> v29 = *(IntToPtrCastExpr&lt;ptr&gt;(((v1 + 2120) + (4 * ((v26 / 256) % 256)))))</text>
<text text-anchor="start" x="942" y="-404.3" font-family="Times,serif" font-size="14.00"> v30 = *(IntToPtrCastExpr&lt;ptr&gt;(((v1 + 3144) + (4 * (v26 % 256)))))</text>
<text text-anchor="start" x="942" y="-389.3" font-family="Times,serif" font-size="14.00"> v31 = ((v30 + (v29 ^ (v28 + v27))) ^ v12)</text>
</g>
<!-- Node0x95b8ea0&#45;&gt;Node0x95b98e0 -->
<g id="edge4" class="edge"><title>Node0x95b8ea0&#45;&gt;Node0x95b98e0</title>
<path fill="none" stroke="black" d="M1019.11,-576.42C1039.45,-564.21 1067.8,-547.184 1096.92,-529.705"/>
<polygon fill="black" stroke="black" points="1098.78,-532.668 1105.55,-524.519 1095.18,-526.666 1098.78,-532.668"/>
<text text-anchor="middle" x="1099" y="-546.8" font-family="Times,serif" font-size="14.00">a2 != 0</text>
</g>
<!-- Node0x95b9c50 -->
<g id="node6" class="node"><title>Node0x95b9c50</title>
<polygon fill="none" stroke="black" points="409.5,-307.5 409.5,-343.5 596.5,-343.5 596.5,-307.5 409.5,-307.5"/>
<text text-anchor="start" x="417.5" y="-321.8" font-family="Times,serif" font-size="14.00">while (v16 != (v1 &#45; 64)):</text>
</g>
<!-- Node0x95b94f0&#45;&gt;Node0x95b9c50 -->
<g id="edge5" class="edge"><title>Node0x95b94f0&#45;&gt;Node0x95b9c50</title>
<path fill="none" stroke="black" d="M551.713,-388.882C541.408,-375.686 531.12,-362.51 522.672,-351.692"/>
<polygon fill="black" stroke="black" points="525.239,-349.293 516.326,-343.565 519.722,-353.601 525.239,-349.293"/>
</g>
<!-- Node0x95b9b20 -->
<g id="node7" class="node"><title>Node0x95b9b20</title>
<polygon fill="none" stroke="black" points="1211,-307.5 1211,-343.5 1365,-343.5 1365,-307.5 1211,-307.5"/>
<text text-anchor="start" x="1219" y="-321.8" font-family="Times,serif" font-size="14.00">while (v25 != v23):</text>
</g>
<!-- Node0x95b98e0&#45;&gt;Node0x95b9b20 -->
<g id="edge6" class="edge"><title>Node0x95b98e0&#45;&gt;Node0x95b9b20</title>
<path fill="none" stroke="black" d="M1259.68,-381.181C1264.95,-371.001 1270.07,-361.109 1274.48,-352.601"/>
<polygon fill="black" stroke="black" points="1277.63,-354.131 1279.12,-343.642 1271.41,-350.912 1277.63,-354.131"/>
</g>
<!-- Node0xc3aa9f0 -->
<g id="node8" class="node"><title>Node0xc3aa9f0</title>
<polygon fill="none" stroke="black" points="0,-97.5 0,-255.5 578,-255.5 578,-97.5 0,-97.5"/>
<text text-anchor="start" x="8" y="-240.3" font-family="Times,serif" font-size="14.00">0x806e4c0:</text>
<text text-anchor="start" x="8" y="-225.3" font-family="Times,serif" font-size="14.00"> v12 = v17</text>
<text text-anchor="start" x="8" y="-210.3" font-family="Times,serif" font-size="14.00"> v15 = v16</text>
<text text-anchor="start" x="8" y="-195.3" font-family="Times,serif" font-size="14.00"> v16 = (v15 &#45; 4)</text>
<text text-anchor="start" x="8" y="-180.3" font-family="Times,serif" font-size="14.00"> v17 = (*(IntToPtrCastExpr&lt;ptr&gt;((v15 + 68))) ^ v22)</text>
<text text-anchor="start" x="8" y="-165.3" font-family="Times,serif" font-size="14.00"> v18 = *(IntToPtrCastExpr&lt;ptr&gt;(((v1 + 72) + (4 * (v17 / 16777216)))))</text>
<text text-anchor="start" x="8" y="-150.3" font-family="Times,serif" font-size="14.00"> v19 = *(IntToPtrCastExpr&lt;ptr&gt;(((v1 + 1096) + (4 * ((v17 / 65536) % 256)))))</text>
<text text-anchor="start" x="8" y="-135.3" font-family="Times,serif" font-size="14.00"> v20 = *(IntToPtrCastExpr&lt;ptr&gt;(((v1 + 2120) + (4 * ((v17 / 256) % 256)))))</text>
<text text-anchor="start" x="8" y="-120.3" font-family="Times,serif" font-size="14.00"> v21 = *(IntToPtrCastExpr&lt;ptr&gt;(((v1 + 3144) + (4 * (v17 % 256)))))</text>
<text text-anchor="start" x="8" y="-105.3" font-family="Times,serif" font-size="14.00"> v22 = ((v21 + (v20 ^ (v19 + v18))) ^ v12)</text>
</g>
<!-- Node0x95b9c50&#45;&gt;Node0xc3aa9f0 -->
<g id="edge7" class="edge"><title>Node0x95b9c50&#45;&gt;Node0xc3aa9f0</title>
<path fill="none" stroke="black" d="M409.419,-313.232C390.857,-307.945 372.378,-300.232 357,-289 347.488,-282.052 339.035,-273.332 331.605,-263.845"/>
<polygon fill="black" stroke="black" points="334.359,-261.683 325.603,-255.718 328.728,-265.842 334.359,-261.683"/>
<text text-anchor="middle" x="413.5" y="-277.8" font-family="Times,serif" font-size="14.00">v16 != (v1 &#45; 64)</text>
</g>
<!-- Node0x95ba0f0 -->
<g id="node9" class="node"><title>Node0x95ba0f0</title>
<polygon fill="none" stroke="black" points="596,-150 596,-203 982,-203 982,-150 596,-150"/>
<text text-anchor="start" x="604" y="-187.8" font-family="Times,serif" font-size="14.00">0x806e500:</text>
<text text-anchor="start" x="604" y="-172.8" font-family="Times,serif" font-size="14.00"> v13 = (*(IntToPtrCastExpr&lt;ptr&gt;((v1 + 4))) ^ v22)</text>
<text text-anchor="start" x="604" y="-157.8" font-family="Times,serif" font-size="14.00"> v14 = (*(a1) ^ v17)</text>
</g>
<!-- Node0x95b9c50&#45;&gt;Node0x95ba0f0 -->
<g id="edge8" class="edge"><title>Node0x95b9c50&#45;&gt;Node0x95ba0f0</title>
<path fill="none" stroke="black" d="M536.087,-307.494C583.472,-283.138 671.402,-237.944 730.065,-207.792"/>
<polygon fill="black" stroke="black" points="731.925,-210.771 739.219,-203.087 728.725,-204.545 731.925,-210.771"/>
<text text-anchor="middle" x="655.5" y="-277.8" font-family="Times,serif" font-size="14.00">v16 == (v1 &#45; 64)</text>
</g>
<!-- Node0x7b922b0 -->
<g id="node10" class="node"><title>Node0x7b922b0</title>
<polygon fill="none" stroke="black" points="1000,-97.5 1000,-255.5 1578,-255.5 1578,-97.5 1000,-97.5"/>
<text text-anchor="start" x="1008" y="-240.3" font-family="Times,serif" font-size="14.00">0x806e550:</text>
<text text-anchor="start" x="1008" y="-225.3" font-family="Times,serif" font-size="14.00"> v12 = v26</text>
<text text-anchor="start" x="1008" y="-210.3" font-family="Times,serif" font-size="14.00"> v24 = v25</text>
<text text-anchor="start" x="1008" y="-195.3" font-family="Times,serif" font-size="14.00"> v25 = (v24 + 4)</text>
<text text-anchor="start" x="1008" y="-180.3" font-family="Times,serif" font-size="14.00"> v26 = (*(IntToPtrCastExpr&lt;ptr&gt;(v24)) ^ v31)</text>
<text text-anchor="start" x="1008" y="-165.3" font-family="Times,serif" font-size="14.00"> v27 = *(IntToPtrCastExpr&lt;ptr&gt;(((v1 + 72) + (4 * (v26 / 16777216)))))</text>
<text text-anchor="start" x="1008" y="-150.3" font-family="Times,serif" font-size="14.00"> v28 = *(IntToPtrCastExpr&lt;ptr&gt;(((v1 + 1096) + (4 * ((v26 / 65536) % 256)))))</text>
<text text-anchor="start" x="1008" y="-135.3" font-family="Times,serif" font-size="14.00"> v29 = *(IntToPtrCastExpr&lt;ptr&gt;(((v1 + 2120) + (4 * ((v26 / 256) % 256)))))</text>
<text text-anchor="start" x="1008" y="-120.3" font-family="Times,serif" font-size="14.00"> v30 = *(IntToPtrCastExpr&lt;ptr&gt;(((v1 + 3144) + (4 * (v26 % 256)))))</text>
<text text-anchor="start" x="1008" y="-105.3" font-family="Times,serif" font-size="14.00"> v31 = ((v30 + (v29 ^ (v28 + v27))) ^ v12)</text>
</g>
<!-- Node0x95b9b20&#45;&gt;Node0x7b922b0 -->
<g id="edge9" class="edge"><title>Node0x95b9b20&#45;&gt;Node0x7b922b0</title>
<path fill="none" stroke="black" d="M1257.24,-307.121C1251.1,-302.116 1245.47,-296.062 1242,-289 1239.06,-283.017 1240.5,-280.496 1242,-274 1242.66,-271.149 1243.41,-268.284 1244.25,-265.418"/>
<polygon fill="black" stroke="black" points="1247.65,-266.281 1247.38,-255.689 1240.98,-264.134 1247.65,-266.281"/>
<text text-anchor="middle" x="1282" y="-277.8" font-family="Times,serif" font-size="14.00">v25 != v23</text>
</g>
<!-- Node0x95b9720 -->
<g id="node11" class="node"><title>Node0x95b9720</title>
<polygon fill="none" stroke="black" points="1595.5,-150 1595.5,-203 1990.5,-203 1990.5,-150 1595.5,-150"/>
<text text-anchor="start" x="1603.5" y="-187.8" font-family="Times,serif" font-size="14.00">0x806e58f:</text>
<text text-anchor="start" x="1603.5" y="-172.8" font-family="Times,serif" font-size="14.00"> v13 = (*(IntToPtrCastExpr&lt;ptr&gt;(v23)) ^ v31)</text>
<text text-anchor="start" x="1603.5" y="-157.8" font-family="Times,serif" font-size="14.00"> v14 = (*(IntToPtrCastExpr&lt;ptr&gt;((v1 + 68))) ^ v26)</text>
</g>
<!-- Node0x95b9b20&#45;&gt;Node0x95b9720 -->
<g id="edge10" class="edge"><title>Node0x95b9b20&#45;&gt;Node0x95b9720</title>
<path fill="none" stroke="black" d="M1365.28,-309.87C1426.11,-297.619 1512.73,-278.54 1587,-256 1633.11,-242.006 1683.69,-222.789 1723.2,-206.872"/>
<polygon fill="black" stroke="black" points="1724.52,-210.111 1732.48,-203.111 1721.89,-203.623 1724.52,-210.111"/>
<text text-anchor="middle" x="1566" y="-277.8" font-family="Times,serif" font-size="14.00">v25 == v23</text>
</g>
<!-- Node0xc3aa9f0&#45;&gt;Node0x95b9c50 -->
<g id="edge11" class="edge"><title>Node0xc3aa9f0&#45;&gt;Node0x95b9c50</title>
<path fill="none" stroke="black" d="M447.795,-255.755C455.576,-261.546 463.037,-267.631 470,-274 477.605,-280.956 484.239,-290.027 489.525,-298.558"/>
<polygon fill="black" stroke="black" points="486.661,-300.594 494.715,-307.478 492.711,-297.074 486.661,-300.594"/>
</g>
<!-- Node0x95b92a0 -->
<g id="node12" class="node"><title>Node0x95b92a0</title>
<polygon fill="none" stroke="black" points="1386,-23.5 1386,-59.5 1440,-59.5 1440,-23.5 1386,-23.5"/>
<text text-anchor="start" x="1394" y="-37.8" font-family="Times,serif" font-size="14.00">exit:</text>
</g>
<!-- Node0x95ba0f0&#45;&gt;Node0x95b92a0 -->
<g id="edge12" class="edge"><title>Node0x95ba0f0&#45;&gt;Node0x95b92a0</title>
<path fill="none" stroke="black" d="M843.971,-149.954C883.933,-132.425 939.775,-110.055 991,-97 1130.19,-61.5274 1301.38,-48.4996 1375.67,-44.2852"/>
<polygon fill="black" stroke="black" points="1376.12,-47.7661 1385.91,-43.7257 1375.74,-40.7765 1376.12,-47.7661"/>
</g>
<!-- Node0x7b922b0&#45;&gt;Node0x95b9b20 -->
<g id="edge13" class="edge"><title>Node0x7b922b0&#45;&gt;Node0x95b9b20</title>
<path fill="none" stroke="black" d="M1325.59,-255.522C1327.03,-266.871 1326.29,-278.322 1322,-289 1320.5,-292.724 1318.41,-296.279 1315.99,-299.599"/>
<polygon fill="black" stroke="black" points="1313.23,-297.44 1309.45,-307.337 1318.58,-301.959 1313.23,-297.44"/>
</g>
<!-- Node0x95b9720&#45;&gt;Node0x95b92a0 -->
<g id="edge14" class="edge"><title>Node0x95b9720&#45;&gt;Node0x95b92a0</title>
<path fill="none" stroke="black" d="M1728.88,-149.92C1688.41,-134.06 1634.91,-113.615 1587,-97 1540.18,-80.7634 1485.56,-64.0044 1450.18,-53.4336"/>
<polygon fill="black" stroke="black" points="1450.87,-49.989 1440.29,-50.4906 1448.88,-56.6981 1450.87,-49.989"/>
</g>
</g>
</svg>
