<?xml version="1.0" encoding="UTF-8" standalone="no"?>
<!DOCTYPE svg PUBLIC "-//W3C//DTD SVG 1.1//EN"
 "http://www.w3.org/Graphics/SVG/1.1/DTD/svg11.dtd">
<!-- Generated by graphviz version 2.38.0 (20140413.2041)
 -->
<!-- Title: Control&#45;flow graph for function &#39;mbedtls_hmac_drbg_reseed(*a1, *a2, a3)&#39;. Pages: 1 -->
<svg width="1058pt" height="1577pt"
 viewBox="0.00 0.00 1057.50 1577.00" xmlns="http://www.w3.org/2000/svg" xmlns:xlink="http://www.w3.org/1999/xlink">
<g id="graph0" class="graph" transform="scale(1 1) rotate(0) translate(4 1573)">
<title>Control&#45;flow graph for function &#39;mbedtls_hmac_drbg_reseed(*a1, *a2, a3)&#39;.</title>
<polygon fill="white" stroke="none" points="-4,4 -4,-1573 1053.5,-1573 1053.5,4 -4,4"/>
<text text-anchor="middle" x="524.75" y="-7.8" font-family="Times,serif" font-size="14.00">Control&#45;flow graph for function &#39;mbedtls_hmac_drbg_reseed(*a1, *a2, a3)&#39;.</text>
<!-- Node0xe8804f0 -->
<g id="node1" class="node"><title>Node0xe8804f0</title>
<polygon fill="none" stroke="black" points="276,-1500.5 276,-1568.5 335,-1568.5 335,-1500.5 276,-1500.5"/>
<text text-anchor="start" x="284" y="-1553.3" font-family="Times,serif" font-size="14.00">entry:</text>
<text text-anchor="start" x="284" y="-1538.3" font-family="Times,serif" font-size="14.00"> a1</text>
<text text-anchor="start" x="284" y="-1523.3" font-family="Times,serif" font-size="14.00"> a2</text>
<text text-anchor="start" x="284" y="-1508.3" font-family="Times,serif" font-size="14.00"> a3</text>
</g>
<!-- Node0x8a87660 -->
<g id="node2" class="node"><title>Node0x8a87660</title>
<polygon fill="none" stroke="black" points="167.5,-1334.5 167.5,-1462.5 443.5,-1462.5 443.5,-1334.5 167.5,-1334.5"/>
<text text-anchor="start" x="175.5" y="-1447.3" font-family="Times,serif" font-size="14.00">v1</text>
<text text-anchor="start" x="175.5" y="-1432.3" font-family="Times,serif" font-size="14.00"> g2 = &amp;(v1)</text>
<text text-anchor="start" x="175.5" y="-1417.3" font-family="Times,serif" font-size="14.00"> v2 = g3</text>
<text text-anchor="start" x="175.5" y="-1402.3" font-family="Times,serif" font-size="14.00"> g3 = a3</text>
<text text-anchor="start" x="175.5" y="-1387.3" font-family="Times,serif" font-size="14.00"> v3 = g7</text>
<text text-anchor="start" x="175.5" y="-1372.3" font-family="Times,serif" font-size="14.00"> v4 = PtrToIntCastExpr&lt;int32&gt;(a1)</text>
<text text-anchor="start" x="175.5" y="-1357.3" font-family="Times,serif" font-size="14.00"> g7 = v4</text>
<text text-anchor="start" x="175.5" y="-1342.3" font-family="Times,serif" font-size="14.00"> v5 = g5</text>
</g>
<!-- Node0xe8804f0&#45;&gt;Node0x8a87660 -->
<g id="edge1" class="edge"><title>Node0xe8804f0&#45;&gt;Node0x8a87660</title>
<path fill="none" stroke="black" d="M305.5,-1500.38C305.5,-1491.86 305.5,-1482.36 305.5,-1472.68"/>
<polygon fill="black" stroke="black" points="309,-1472.57 305.5,-1462.57 302,-1472.57 309,-1472.57"/>
</g>
<!-- Node0x17a6f7f0 -->
<g id="node3" class="node"><title>Node0x17a6f7f0</title>
<polygon fill="none" stroke="black" points="39,-1260.5 39,-1296.5 572,-1296.5 572,-1260.5 39,-1260.5"/>
<text text-anchor="start" x="47" y="-1274.8" font-family="Times,serif" font-size="14.00">if ((a3 &gt;= 257) or ((*(IntToPtrCastExpr&lt;ptr&gt;((v4 + 80))) + a3) &gt; 384)):</text>
</g>
<!-- Node0x8a87660&#45;&gt;Node0x17a6f7f0 -->
<g id="edge2" class="edge"><title>Node0x8a87660&#45;&gt;Node0x17a6f7f0</title>
<path fill="none" stroke="black" d="M305.5,-1334.35C305.5,-1324.75 305.5,-1315.3 305.5,-1307.02"/>
<polygon fill="black" stroke="black" points="309,-1306.89 305.5,-1296.89 302,-1306.89 309,-1306.89"/>
</g>
<!-- Node0x17a70eb0 -->
<g id="node4" class="node"><title>Node0x17a70eb0</title>
<polygon fill="none" stroke="black" points="0,-858.5 0,-941.5 101,-941.5 101,-858.5 0,-858.5"/>
<text text-anchor="start" x="8" y="-926.3" font-family="Times,serif" font-size="14.00">0x80619c5:</text>
<text text-anchor="start" x="8" y="-911.3" font-family="Times,serif" font-size="14.00"> g3 = v2</text>
<text text-anchor="start" x="8" y="-896.3" font-family="Times,serif" font-size="14.00"> g7 = v3</text>
<text text-anchor="start" x="8" y="-881.3" font-family="Times,serif" font-size="14.00"> g5 = v5</text>
<text text-anchor="start" x="8" y="-866.3" font-family="Times,serif" font-size="14.00"> return &#45;5</text>
</g>
<!-- Node0x17a6f7f0&#45;&gt;Node0x17a70eb0 -->
<g id="edge3" class="edge"><title>Node0x17a6f7f0&#45;&gt;Node0x17a70eb0</title>
<path fill="none" stroke="black" d="M81.9757,-1260.45C66.3556,-1255.67 54.1481,-1249.63 47.5,-1242 -22.872,-1161.28 7.6975,-1024.39 31.6978,-951.005"/>
<polygon fill="black" stroke="black" points="35.0192,-952.108 34.8811,-941.515 28.3825,-949.882 35.0192,-952.108"/>
<text text-anchor="middle" x="291.5" y="-1230.8" font-family="Times,serif" font-size="14.00">(a3 &gt;= 257) or ((*(IntToPtrCastExpr&lt;ptr&gt;((v4 + 80))) + a3) &gt; 384)</text>
</g>
<!-- Node0x17a704b0 -->
<g id="node5" class="node"><title>Node0x17a704b0</title>
<polygon fill="none" stroke="black" points="280,-960.5 280,-1208.5 843,-1208.5 843,-960.5 280,-960.5"/>
<text text-anchor="start" x="288" y="-1193.3" font-family="Times,serif" font-size="14.00">0x80619e4:</text>
<text text-anchor="start" x="288" y="-1178.3" font-family="Times,serif" font-size="14.00"> v6</text>
<text text-anchor="start" x="288" y="-1163.3" font-family="Times,serif" font-size="14.00"> v7 = &amp;(v6)</text>
<text text-anchor="start" x="288" y="-1148.3" font-family="Times,serif" font-size="14.00"> g6 = v7</text>
<text text-anchor="start" x="288" y="-1133.3" font-family="Times,serif" font-size="14.00"> g237 = True</text>
<text text-anchor="start" x="288" y="-1118.3" font-family="Times,serif" font-size="14.00"> g5 = v7</text>
<text text-anchor="start" x="288" y="-1103.3" font-family="Times,serif" font-size="14.00"> g4 = PtrToIntCastExpr&lt;int32&gt;(memset(BitCastExpr&lt;ptr&gt;(&amp;(v6)), 0, 96))</text>
<text text-anchor="start" x="288" y="-1088.3" font-family="Times,serif" font-size="14.00"> v8 = g7</text>
<text text-anchor="start" x="288" y="-1073.3" font-family="Times,serif" font-size="14.00"> v9 = *(IntToPtrCastExpr&lt;ptr&gt;((v8 + 96)))</text>
<text text-anchor="start" x="288" y="-1058.3" font-family="Times,serif" font-size="14.00"> g1 = v9</text>
<text text-anchor="start" x="288" y="-1043.3" font-family="Times,serif" font-size="14.00"> v10 = *(IntToPtrCastExpr&lt;ptr&gt;((v8 + 92)))</text>
<text text-anchor="start" x="288" y="-1028.3" font-family="Times,serif" font-size="14.00"> IntToPtrCastExpr&lt;ptr&gt;(v10)(v9, g6, *(IntToPtrCastExpr&lt;ptr&gt;((v8 + 80))))</text>
<text text-anchor="start" x="288" y="-1013.3" font-family="Times,serif" font-size="14.00"> g6 = v7</text>
<text text-anchor="start" x="288" y="-998.3" font-family="Times,serif" font-size="14.00"> v11 = g1</text>
<text text-anchor="start" x="288" y="-983.3" font-family="Times,serif" font-size="14.00"> g4 = v11</text>
<text text-anchor="start" x="288" y="-968.3" font-family="Times,serif" font-size="14.00"> result = &#45;9</text>
</g>
<!-- Node0x17a6f7f0&#45;&gt;Node0x17a704b0 -->
<g id="edge4" class="edge"><title>Node0x17a6f7f0&#45;&gt;Node0x17a704b0</title>
<path fill="none" stroke="black" d="M499.376,-1260.47C517.463,-1255.74 531.879,-1249.7 539.5,-1242 546.445,-1234.98 551.873,-1226.84 556.071,-1218.03"/>
<polygon fill="black" stroke="black" points="559.374,-1219.21 560.014,-1208.63 552.918,-1216.5 559.374,-1219.21"/>
<text text-anchor="middle" x="800" y="-1230.8" font-family="Times,serif" font-size="14.00">(a3 &lt; 257) and ((*(IntToPtrCastExpr&lt;ptr&gt;((v4 + 80))) + a3) &lt;= 384)</text>
</g>
<!-- Node0xef4ed70 -->
<g id="node6" class="node"><title>Node0xef4ed70</title>
<polygon fill="none" stroke="black" points="128.5,-23.5 128.5,-59.5 182.5,-59.5 182.5,-23.5 128.5,-23.5"/>
<text text-anchor="start" x="136.5" y="-37.8" font-family="Times,serif" font-size="14.00">exit:</text>
</g>
<!-- Node0x17a70eb0&#45;&gt;Node0xef4ed70 -->
<g id="edge5" class="edge"><title>Node0x17a70eb0&#45;&gt;Node0xef4ed70</title>
<path fill="none" stroke="black" d="M50.5,-858.283C50.5,-834.932 50.5,-805.069 50.5,-778.5 50.5,-778.5 50.5,-778.5 50.5,-138 50.5,-99.8137 88.9767,-72.8638 119.347,-57.5397"/>
<polygon fill="black" stroke="black" points="120.964,-60.6454 128.46,-53.1576 117.931,-54.3369 120.964,-60.6454"/>
</g>
<!-- Node0x17a6e090 -->
<g id="node7" class="node"><title>Node0x17a6e090</title>
<polygon fill="none" stroke="black" points="504.5,-803.5 504.5,-839.5 618.5,-839.5 618.5,-803.5 504.5,-803.5"/>
<text text-anchor="start" x="512.5" y="-817.8" font-family="Times,serif" font-size="14.00">if (v11 == 0):</text>
</g>
<!-- Node0x17a704b0&#45;&gt;Node0x17a6e090 -->
<g id="edge6" class="edge"><title>Node0x17a704b0&#45;&gt;Node0x17a6e090</title>
<path fill="none" stroke="black" d="M561.5,-960.261C561.5,-918.731 561.5,-876.217 561.5,-849.613"/>
<polygon fill="black" stroke="black" points="565,-849.567 561.5,-839.567 558,-849.568 565,-849.567"/>
</g>
<!-- Node0x17a70f30 -->
<g id="node8" class="node"><title>Node0x17a70f30</title>
<polygon fill="none" stroke="black" points="355.5,-653.5 355.5,-751.5 701.5,-751.5 701.5,-653.5 355.5,-653.5"/>
<text text-anchor="start" x="363.5" y="-736.3" font-family="Times,serif" font-size="14.00">v12 = g3</text>
<text text-anchor="start" x="363.5" y="-721.3" font-family="Times,serif" font-size="14.00"> v13 = g7</text>
<text text-anchor="start" x="363.5" y="-706.3" font-family="Times,serif" font-size="14.00"> v14 = *(IntToPtrCastExpr&lt;ptr&gt;((v13 + 80)))</text>
<text text-anchor="start" x="363.5" y="-691.3" font-family="Times,serif" font-size="14.00"> g5 = v14</text>
<text text-anchor="start" x="363.5" y="-676.3" font-family="Times,serif" font-size="14.00"> v15 = v13</text>
<text text-anchor="start" x="363.5" y="-661.3" font-family="Times,serif" font-size="14.00"> v16 = v14</text>
</g>
<!-- Node0x17a6e090&#45;&gt;Node0x17a70f30 -->
<g id="edge7" class="edge"><title>Node0x17a6e090&#45;&gt;Node0x17a70f30</title>
<path fill="none" stroke="black" d="M556.702,-803.487C553.549,-792.309 549.222,-776.968 544.904,-761.658"/>
<polygon fill="black" stroke="black" points="548.163,-760.32 542.08,-751.646 541.426,-762.22 548.163,-760.32"/>
<text text-anchor="middle" x="586" y="-773.8" font-family="Times,serif" font-size="14.00">v11 == 0</text>
</g>
<!-- Node0x17a70e50 -->
<g id="node9" class="node"><title>Node0x17a70e50</title>
<polygon fill="none" stroke="black" points="392,-97.5 392,-180.5 505,-180.5 505,-97.5 392,-97.5"/>
<text text-anchor="start" x="400" y="-165.3" font-family="Times,serif" font-size="14.00">0x80619c5:</text>
<text text-anchor="start" x="400" y="-150.3" font-family="Times,serif" font-size="14.00"> g3 = v2</text>
<text text-anchor="start" x="400" y="-135.3" font-family="Times,serif" font-size="14.00"> g7 = v3</text>
<text text-anchor="start" x="400" y="-120.3" font-family="Times,serif" font-size="14.00"> g5 = v5</text>
<text text-anchor="start" x="400" y="-105.3" font-family="Times,serif" font-size="14.00"> return result</text>
</g>
<!-- Node0x17a6e090&#45;&gt;Node0x17a70e50 -->
<g id="edge8" class="edge"><title>Node0x17a6e090&#45;&gt;Node0x17a70e50</title>
<path fill="none" stroke="black" d="M618.846,-806.116C667.514,-790.063 729.5,-758.769 729.5,-703.5 729.5,-703.5 729.5,-703.5 729.5,-251.5 729.5,-234.383 723.894,-228.658 710.5,-218 654.096,-173.119 572.399,-154.038 515.274,-145.94"/>
<polygon fill="black" stroke="black" points="515.637,-142.458 505.261,-144.597 514.707,-149.396 515.637,-142.458"/>
<text text-anchor="middle" x="761" y="-497.3" font-family="Times,serif" font-size="14.00">v11 != 0</text>
</g>
<!-- Node0x17a71150 -->
<g id="node10" class="node"><title>Node0x17a71150</title>
<polygon fill="none" stroke="black" points="474.5,-579.5 474.5,-615.5 582.5,-615.5 582.5,-579.5 474.5,-579.5"/>
<text text-anchor="start" x="482.5" y="-593.8" font-family="Times,serif" font-size="14.00">if (v12 != 0):</text>
</g>
<!-- Node0x17a70f30&#45;&gt;Node0x17a71150 -->
<g id="edge9" class="edge"><title>Node0x17a70f30&#45;&gt;Node0x17a71150</title>
<path fill="none" stroke="black" d="M528.5,-653.317C528.5,-643.893 528.5,-634.32 528.5,-625.868"/>
<polygon fill="black" stroke="black" points="532,-625.856 528.5,-615.856 525,-625.856 532,-625.856"/>
</g>
<!-- Node0x17a70e50&#45;&gt;Node0xef4ed70 -->
<g id="edge10" class="edge"><title>Node0x17a70e50&#45;&gt;Node0xef4ed70</title>
<path fill="none" stroke="black" d="M391.659,-119.473C332.808,-100.291 242.591,-70.8862 192.412,-54.5311"/>
<polygon fill="black" stroke="black" points="193.227,-51.1155 182.635,-51.3442 191.058,-57.7709 193.227,-51.1155"/>
</g>
<!-- Node0x7f61e00 -->
<g id="node11" class="node"><title>Node0x7f61e00</title>
<polygon fill="none" stroke="black" points="447.5,-474.5 447.5,-527.5 585.5,-527.5 585.5,-474.5 447.5,-474.5"/>
<text text-anchor="start" x="455.5" y="-512.3" font-family="Times,serif" font-size="14.00">0x8061a42:</text>
<text text-anchor="start" x="455.5" y="-497.3" font-family="Times,serif" font-size="14.00"> if (a2 != NULL):</text>
<text text-anchor="start" x="455.5" y="-482.3" font-family="Times,serif" font-size="14.00"> else:</text>
</g>
<!-- Node0x17a71150&#45;&gt;Node0x7f61e00 -->
<g id="edge11" class="edge"><title>Node0x17a71150&#45;&gt;Node0x7f61e00</title>
<path fill="none" stroke="black" d="M526.299,-579.167C524.829,-567.59 522.842,-551.943 521.042,-537.765"/>
<polygon fill="black" stroke="black" points="524.506,-537.259 519.774,-527.78 517.561,-538.141 524.506,-537.259"/>
<text text-anchor="middle" x="556" y="-549.8" font-family="Times,serif" font-size="14.00">v12 != 0</text>
</g>
<!-- Node0x17a71340 -->
<g id="node12" class="node"><title>Node0x17a71340</title>
<polygon fill="none" stroke="black" points="195.5,-218.5 195.5,-286.5 701.5,-286.5 701.5,-218.5 195.5,-218.5"/>
<text text-anchor="start" x="203.5" y="-271.3" font-family="Times,serif" font-size="14.00">0x8061a27:</text>
<text text-anchor="start" x="203.5" y="-256.3" font-family="Times,serif" font-size="14.00"> mbedtls_hmac_drbg_update(IntToPtrCastExpr&lt;ptr&gt;(v15), v7, v16)</text>
<text text-anchor="start" x="203.5" y="-241.3" font-family="Times,serif" font-size="14.00"> *(IntToPtrCastExpr&lt;ptr&gt;((g7 + 76))) = 1</text>
<text text-anchor="start" x="203.5" y="-226.3" font-family="Times,serif" font-size="14.00"> result = 0</text>
</g>
<!-- Node0x17a71150&#45;&gt;Node0x17a71340 -->
<g id="edge12" class="edge"><title>Node0x17a71150&#45;&gt;Node0x17a71340</title>
<path fill="none" stroke="black" d="M570.856,-579.424C578.733,-574.528 586.153,-568.443 591.5,-561 622.371,-518.025 643.701,-368.127 614.5,-324 605.995,-311.148 594.625,-300.632 581.805,-292.029"/>
<polygon fill="black" stroke="black" points="583.522,-288.975 573.187,-286.647 579.814,-294.913 583.522,-288.975"/>
<text text-anchor="middle" x="660" y="-444.8" font-family="Times,serif" font-size="14.00">v12 == 0</text>
</g>
<!-- Node0x17a713a0 -->
<g id="node13" class="node"><title>Node0x17a713a0</title>
<polygon fill="none" stroke="black" points="79,-324.5 79,-422.5 492,-422.5 492,-324.5 79,-324.5"/>
<text text-anchor="start" x="87" y="-407.3" font-family="Times,serif" font-size="14.00">0x8061a48:</text>
<text text-anchor="start" x="87" y="-392.3" font-family="Times,serif" font-size="14.00"> g4 = PtrToIntCastExpr&lt;int32&gt;(a2)</text>
<text text-anchor="start" x="87" y="-377.3" font-family="Times,serif" font-size="14.00"> g5 = (v14 + v12)</text>
<text text-anchor="start" x="87" y="-362.3" font-family="Times,serif" font-size="14.00"> memcpy(IntToPtrCastExpr&lt;ptr&gt;((v14 + v7)), a2, v12)</text>
<text text-anchor="start" x="87" y="-347.3" font-family="Times,serif" font-size="14.00"> v15 = g7</text>
<text text-anchor="start" x="87" y="-332.3" font-family="Times,serif" font-size="14.00"> v16 = g5</text>
</g>
<!-- Node0x7f61e00&#45;&gt;Node0x17a713a0 -->
<g id="edge13" class="edge"><title>Node0x7f61e00&#45;&gt;Node0x17a713a0</title>
<path fill="none" stroke="black" d="M460.025,-474.295C447.874,-468.483 435.177,-462.194 423.5,-456 406.859,-447.173 389.369,-437.315 372.642,-427.589"/>
<polygon fill="black" stroke="black" points="374.372,-424.547 363.973,-422.521 370.839,-430.59 374.372,-424.547"/>
<text text-anchor="middle" x="467.5" y="-444.8" font-family="Times,serif" font-size="14.00">a2 != NULL</text>
</g>
<!-- Node0x17a71d10 -->
<g id="node14" class="node"><title>Node0x17a71d10</title>
<polygon fill="none" stroke="black" points="510,-354.5 510,-392.5 605,-392.5 605,-354.5 510,-354.5"/>
<text text-anchor="start" x="518" y="-377.3" font-family="Times,serif" font-size="14.00">v15 = v13</text>
<text text-anchor="start" x="518" y="-362.3" font-family="Times,serif" font-size="14.00"> v16 = v14</text>
</g>
<!-- Node0x7f61e00&#45;&gt;Node0x17a71d10 -->
<g id="edge14" class="edge"><title>Node0x7f61e00&#45;&gt;Node0x17a71d10</title>
<path fill="none" stroke="black" d="M514.059,-474.306C513.796,-463.798 514.451,-451.636 517.5,-441 521.554,-426.861 529.425,-412.688 537.12,-401.08"/>
<polygon fill="black" stroke="black" points="540.077,-402.958 542.904,-392.747 534.326,-398.967 540.077,-402.958"/>
<text text-anchor="middle" x="564.5" y="-444.8" font-family="Times,serif" font-size="14.00">a2 == NULL</text>
</g>
<!-- Node0x17a71340&#45;&gt;Node0x17a70e50 -->
<g id="edge15" class="edge"><title>Node0x17a71340&#45;&gt;Node0x17a70e50</title>
<path fill="none" stroke="black" d="M448.5,-218.348C448.5,-209.674 448.5,-200.121 448.5,-190.758"/>
<polygon fill="black" stroke="black" points="452,-190.722 448.5,-180.722 445,-190.722 452,-190.722"/>
</g>
<!-- Node0x17a713a0&#45;&gt;Node0x17a71340 -->
<g id="edge16" class="edge"><title>Node0x17a713a0&#45;&gt;Node0x17a71340</title>
<path fill="none" stroke="black" d="M351.328,-324.441C365.67,-313.971 380.684,-303.01 394.503,-292.921"/>
<polygon fill="black" stroke="black" points="396.923,-295.488 402.936,-286.764 392.796,-289.834 396.923,-295.488"/>
</g>
<!-- Node0x17a71d10&#45;&gt;Node0x17a71340 -->
<g id="edge17" class="edge"><title>Node0x17a71d10&#45;&gt;Node0x17a71340</title>
<path fill="none" stroke="black" d="M540.945,-354.426C526.306,-338.444 504.415,-314.544 485.609,-294.014"/>
<polygon fill="black" stroke="black" points="488.175,-291.634 478.84,-286.623 483.013,-296.362 488.175,-291.634"/>
</g>
</g>
</svg>
