<?xml version="1.0" encoding="UTF-8" standalone="no"?>
<!DOCTYPE svg PUBLIC "-//W3C//DTD SVG 1.1//EN"
 "http://www.w3.org/Graphics/SVG/1.1/DTD/svg11.dtd">
<!-- Generated by graphviz version 2.38.0 (20140413.2041)
 -->
<!-- Title: Control&#45;flow graph for function &#39;mbedtls_sha256_starts(*a1, a2)&#39;. Pages: 1 -->
<svg width="886pt" height="564pt"
 viewBox="0.00 0.00 886.00 564.00" xmlns="http://www.w3.org/2000/svg" xmlns:xlink="http://www.w3.org/1999/xlink">
<g id="graph0" class="graph" transform="scale(1 1) rotate(0) translate(4 560)">
<title>Control&#45;flow graph for function &#39;mbedtls_sha256_starts(*a1, a2)&#39;.</title>
<polygon fill="white" stroke="none" points="-4,4 -4,-560 882,-560 882,4 -4,4"/>
<text text-anchor="middle" x="439" y="-7.8" font-family="Times,serif" font-size="14.00">Control&#45;flow graph for function &#39;mbedtls_sha256_starts(*a1, a2)&#39;.</text>
<!-- Node0x205b2a30 -->
<g id="node1" class="node"><title>Node0x205b2a30</title>
<polygon fill="none" stroke="black" points="408.5,-502.5 408.5,-555.5 467.5,-555.5 467.5,-502.5 408.5,-502.5"/>
<text text-anchor="start" x="416.5" y="-540.3" font-family="Times,serif" font-size="14.00">entry:</text>
<text text-anchor="start" x="416.5" y="-525.3" font-family="Times,serif" font-size="14.00"> a1</text>
<text text-anchor="start" x="416.5" y="-510.3" font-family="Times,serif" font-size="14.00"> a2</text>
</g>
<!-- Node0x205b3850 -->
<g id="node2" class="node"><title>Node0x205b3850</title>
<polygon fill="none" stroke="black" points="270.5,-396.5 270.5,-464.5 605.5,-464.5 605.5,-396.5 270.5,-396.5"/>
<text text-anchor="start" x="278.5" y="-449.3" font-family="Times,serif" font-size="14.00">result = PtrToIntCastExpr&lt;int32&gt;(a1)</text>
<text text-anchor="start" x="278.5" y="-434.3" font-family="Times,serif" font-size="14.00"> *(a1) = 0</text>
<text text-anchor="start" x="278.5" y="-419.3" font-family="Times,serif" font-size="14.00"> *(IntToPtrCastExpr&lt;ptr&gt;((result + 4))) = 0</text>
<text text-anchor="start" x="278.5" y="-404.3" font-family="Times,serif" font-size="14.00"> v1 = IntToPtrCastExpr&lt;ptr&gt;((result + 8))</text>
</g>
<!-- Node0x205b2a30&#45;&gt;Node0x205b3850 -->
<g id="edge1" class="edge"><title>Node0x205b2a30&#45;&gt;Node0x205b3850</title>
<path fill="none" stroke="black" d="M438,-502.393C438,-493.864 438,-484.114 438,-474.631"/>
<polygon fill="black" stroke="black" points="441.5,-474.516 438,-464.516 434.5,-474.516 441.5,-474.516"/>
</g>
<!-- Node0x205b3940 -->
<g id="node3" class="node"><title>Node0x205b3940</title>
<polygon fill="none" stroke="black" points="385.5,-322.5 385.5,-358.5 490.5,-358.5 490.5,-322.5 385.5,-322.5"/>
<text text-anchor="start" x="393.5" y="-336.8" font-family="Times,serif" font-size="14.00">if (a2 == 0):</text>
</g>
<!-- Node0x205b3850&#45;&gt;Node0x205b3940 -->
<g id="edge2" class="edge"><title>Node0x205b3850&#45;&gt;Node0x205b3940</title>
<path fill="none" stroke="black" d="M438,-396.482C438,-387.328 438,-377.497 438,-368.715"/>
<polygon fill="black" stroke="black" points="441.5,-368.64 438,-358.64 434.5,-368.64 441.5,-368.64"/>
</g>
<!-- Node0x205b35b0 -->
<g id="node4" class="node"><title>Node0x205b35b0</title>
<polygon fill="none" stroke="black" points="0,-97.5 0,-270.5 430,-270.5 430,-97.5 0,-97.5"/>
<text text-anchor="start" x="8" y="-255.3" font-family="Times,serif" font-size="14.00">0x8067018:</text>
<text text-anchor="start" x="8" y="-240.3" font-family="Times,serif" font-size="14.00"> *(v1) = 1779033703</text>
<text text-anchor="start" x="8" y="-225.3" font-family="Times,serif" font-size="14.00"> *(IntToPtrCastExpr&lt;ptr&gt;((result + 12))) = &#45;1150833019</text>
<text text-anchor="start" x="8" y="-210.3" font-family="Times,serif" font-size="14.00"> *(IntToPtrCastExpr&lt;ptr&gt;((result + 16))) = 1013904242</text>
<text text-anchor="start" x="8" y="-195.3" font-family="Times,serif" font-size="14.00"> *(IntToPtrCastExpr&lt;ptr&gt;((result + 20))) = &#45;1521486534</text>
<text text-anchor="start" x="8" y="-180.3" font-family="Times,serif" font-size="14.00"> *(IntToPtrCastExpr&lt;ptr&gt;((result + 24))) = 1359893119</text>
<text text-anchor="start" x="8" y="-165.3" font-family="Times,serif" font-size="14.00"> *(IntToPtrCastExpr&lt;ptr&gt;((result + 28))) = &#45;1694144372</text>
<text text-anchor="start" x="8" y="-150.3" font-family="Times,serif" font-size="14.00"> *(IntToPtrCastExpr&lt;ptr&gt;((result + 32))) = 528734635</text>
<text text-anchor="start" x="8" y="-135.3" font-family="Times,serif" font-size="14.00"> *(IntToPtrCastExpr&lt;ptr&gt;((result + 36))) = 1541459225</text>
<text text-anchor="start" x="8" y="-120.3" font-family="Times,serif" font-size="14.00"> *(IntToPtrCastExpr&lt;ptr&gt;((result + 104))) = a2</text>
<text text-anchor="start" x="8" y="-105.3" font-family="Times,serif" font-size="14.00"> return result</text>
</g>
<!-- Node0x205b3940&#45;&gt;Node0x205b35b0 -->
<g id="edge3" class="edge"><title>Node0x205b3940&#45;&gt;Node0x205b35b0</title>
<path fill="none" stroke="black" d="M413.283,-322.375C396.297,-310.607 372.279,-293.967 346.797,-276.312"/>
<polygon fill="black" stroke="black" points="348.692,-273.367 338.479,-270.549 344.706,-279.121 348.692,-273.367"/>
<text text-anchor="middle" x="415" y="-292.8" font-family="Times,serif" font-size="14.00">a2 == 0</text>
</g>
<!-- Node0x205b3b30 -->
<g id="node5" class="node"><title>Node0x205b3b30</title>
<polygon fill="none" stroke="black" points="448,-97.5 448,-270.5 878,-270.5 878,-97.5 448,-97.5"/>
<text text-anchor="start" x="456" y="-255.3" font-family="Times,serif" font-size="14.00">0x8066fda:</text>
<text text-anchor="start" x="456" y="-240.3" font-family="Times,serif" font-size="14.00"> *(v1) = &#45;1056596264</text>
<text text-anchor="start" x="456" y="-225.3" font-family="Times,serif" font-size="14.00"> *(IntToPtrCastExpr&lt;ptr&gt;((result + 12))) = 914150663</text>
<text text-anchor="start" x="456" y="-210.3" font-family="Times,serif" font-size="14.00"> *(IntToPtrCastExpr&lt;ptr&gt;((result + 16))) = 812702999</text>
<text text-anchor="start" x="456" y="-195.3" font-family="Times,serif" font-size="14.00"> *(IntToPtrCastExpr&lt;ptr&gt;((result + 20))) = &#45;150054599</text>
<text text-anchor="start" x="456" y="-180.3" font-family="Times,serif" font-size="14.00"> *(IntToPtrCastExpr&lt;ptr&gt;((result + 24))) = &#45;4191439</text>
<text text-anchor="start" x="456" y="-165.3" font-family="Times,serif" font-size="14.00"> *(IntToPtrCastExpr&lt;ptr&gt;((result + 28))) = 1750603025</text>
<text text-anchor="start" x="456" y="-150.3" font-family="Times,serif" font-size="14.00"> *(IntToPtrCastExpr&lt;ptr&gt;((result + 32))) = 1694076839</text>
<text text-anchor="start" x="456" y="-135.3" font-family="Times,serif" font-size="14.00"> *(IntToPtrCastExpr&lt;ptr&gt;((result + 36))) = &#45;1090891868</text>
<text text-anchor="start" x="456" y="-120.3" font-family="Times,serif" font-size="14.00"> *(IntToPtrCastExpr&lt;ptr&gt;((result + 104))) = a2</text>
<text text-anchor="start" x="456" y="-105.3" font-family="Times,serif" font-size="14.00"> return result</text>
</g>
<!-- Node0x205b3940&#45;&gt;Node0x205b3b30 -->
<g id="edge4" class="edge"><title>Node0x205b3940&#45;&gt;Node0x205b3b30</title>
<path fill="none" stroke="black" d="M462.939,-322.375C480.077,-310.607 504.311,-293.967 530.021,-276.312"/>
<polygon fill="black" stroke="black" points="532.151,-279.095 538.413,-270.549 528.189,-273.325 532.151,-279.095"/>
<text text-anchor="middle" x="537" y="-292.8" font-family="Times,serif" font-size="14.00">a2 != 0</text>
</g>
<!-- Node0x205b37f0 -->
<g id="node6" class="node"><title>Node0x205b37f0</title>
<polygon fill="none" stroke="black" points="464,-23.5 464,-59.5 518,-59.5 518,-23.5 464,-23.5"/>
<text text-anchor="start" x="472" y="-37.8" font-family="Times,serif" font-size="14.00">exit:</text>
</g>
<!-- Node0x205b35b0&#45;&gt;Node0x205b37f0 -->
<g id="edge5" class="edge"><title>Node0x205b35b0&#45;&gt;Node0x205b37f0</title>
<path fill="none" stroke="black" d="M383.105,-97.4246C409.996,-83.7358 435.283,-70.8631 454.608,-61.0254"/>
<polygon fill="black" stroke="black" points="456.274,-64.1052 463.597,-56.4495 453.098,-57.867 456.274,-64.1052"/>
</g>
<!-- Node0x205b3b30&#45;&gt;Node0x205b37f0 -->
<g id="edge6" class="edge"><title>Node0x205b3b30&#45;&gt;Node0x205b37f0</title>
<path fill="none" stroke="black" d="M557.992,-97.2233C544.058,-85.8413 530.825,-75.0318 519.857,-66.0724"/>
<polygon fill="black" stroke="black" points="521.896,-63.2186 511.937,-59.6029 517.468,-68.6398 521.896,-63.2186"/>
</g>
</g>
</svg>
