<?xml version="1.0" encoding="UTF-8" standalone="no"?>
<!DOCTYPE svg PUBLIC "-//W3C//DTD SVG 1.1//EN"
 "http://www.w3.org/Graphics/SVG/1.1/DTD/svg11.dtd">
<!-- Generated by graphviz version 2.38.0 (20140413.2041)
 -->
<!-- Title: Control&#45;flow graph for function &#39;pem_get_iv(a1, a2, a3)&#39;. Pages: 1 -->
<svg width="1015pt" height="1780pt"
 viewBox="0.00 0.00 1015.00 1780.00" xmlns="http://www.w3.org/2000/svg" xmlns:xlink="http://www.w3.org/1999/xlink">
<g id="graph0" class="graph" transform="scale(1 1) rotate(0) translate(4 1776)">
<title>Control&#45;flow graph for function &#39;pem_get_iv(a1, a2, a3)&#39;.</title>
<polygon fill="white" stroke="none" points="-4,4 -4,-1776 1011,-1776 1011,4 -4,4"/>
<text text-anchor="middle" x="503.5" y="-7.8" font-family="Times,serif" font-size="14.00">Control&#45;flow graph for function &#39;pem_get_iv(a1, a2, a3)&#39;.</text>
<!-- Node0xaa2c720 -->
<g id="node1" class="node"><title>Node0xaa2c720</title>
<polygon fill="none" stroke="black" points="184.5,-1703.5 184.5,-1771.5 243.5,-1771.5 243.5,-1703.5 184.5,-1703.5"/>
<text text-anchor="start" x="192.5" y="-1756.3" font-family="Times,serif" font-size="14.00">entry:</text>
<text text-anchor="start" x="192.5" y="-1741.3" font-family="Times,serif" font-size="14.00"> a1</text>
<text text-anchor="start" x="192.5" y="-1726.3" font-family="Times,serif" font-size="14.00"> a2</text>
<text text-anchor="start" x="192.5" y="-1711.3" font-family="Times,serif" font-size="14.00"> a3</text>
</g>
<!-- Node0x144351d0 -->
<g id="node2" class="node"><title>Node0x144351d0</title>
<polygon fill="none" stroke="black" points="46.5,-1597.5 46.5,-1665.5 381.5,-1665.5 381.5,-1597.5 46.5,-1597.5"/>
<text text-anchor="start" x="54.5" y="-1650.3" font-family="Times,serif" font-size="14.00">v1 = g4</text>
<text text-anchor="start" x="54.5" y="-1635.3" font-family="Times,serif" font-size="14.00"> v2 = g3</text>
<text text-anchor="start" x="54.5" y="-1620.3" font-family="Times,serif" font-size="14.00"> memset(IntToPtrCastExpr&lt;ptr&gt;(g6), 0, v1)</text>
<text text-anchor="start" x="54.5" y="-1605.3" font-family="Times,serif" font-size="14.00"> v3 = (2 * v1)</text>
</g>
<!-- Node0xaa2c720&#45;&gt;Node0x144351d0 -->
<g id="edge1" class="edge"><title>Node0xaa2c720&#45;&gt;Node0x144351d0</title>
<path fill="none" stroke="black" d="M214,-1703.31C214,-1694.58 214,-1685.04 214,-1675.87"/>
<polygon fill="black" stroke="black" points="217.5,-1675.73 214,-1665.73 210.5,-1675.73 217.5,-1675.73"/>
</g>
<!-- Node0x14435310 -->
<g id="node3" class="node"><title>Node0x14435310</title>
<polygon fill="none" stroke="black" points="161.5,-1521.5 161.5,-1559.5 266.5,-1559.5 266.5,-1521.5 161.5,-1521.5"/>
<text text-anchor="start" x="169.5" y="-1544.3" font-family="Times,serif" font-size="14.00">if (v3 == 0):</text>
<text text-anchor="start" x="169.5" y="-1529.3" font-family="Times,serif" font-size="14.00"> else:</text>
</g>
<!-- Node0x144351d0&#45;&gt;Node0x14435310 -->
<g id="edge2" class="edge"><title>Node0x144351d0&#45;&gt;Node0x14435310</title>
<path fill="none" stroke="black" d="M214,-1597.36C214,-1588.36 214,-1578.71 214,-1569.99"/>
<polygon fill="black" stroke="black" points="217.5,-1569.94 214,-1559.94 210.5,-1569.94 217.5,-1569.94"/>
</g>
<!-- Node0x144356d0 -->
<g id="node4" class="node"><title>Node0x144356d0</title>
<polygon fill="none" stroke="black" points="246,-1433.5 246,-1469.5 310,-1469.5 310,-1433.5 246,-1433.5"/>
<text text-anchor="start" x="254" y="-1447.8" font-family="Times,serif" font-size="14.00">v4 = 0</text>
</g>
<!-- Node0x14435310&#45;&gt;Node0x144356d0 -->
<g id="edge3" class="edge"><title>Node0x14435310&#45;&gt;Node0x144356d0</title>
<path fill="none" stroke="black" d="M227.261,-1521.47C236.539,-1508.86 249.062,-1491.84 259.345,-1477.86"/>
<polygon fill="black" stroke="black" points="262.303,-1479.74 265.409,-1469.62 256.664,-1475.6 262.303,-1479.74"/>
<text text-anchor="middle" x="279" y="-1491.8" font-family="Times,serif" font-size="14.00">v3 != 0</text>
</g>
<!-- Node0x14435500 -->
<g id="node5" class="node"><title>Node0x14435500</title>
<polygon fill="none" stroke="black" points="0,-1361.5 0,-1414.5 264,-1414.5 264,-1361.5 0,-1361.5"/>
<text text-anchor="start" x="8" y="-1399.3" font-family="Times,serif" font-size="14.00">0x8063802:</text>
<text text-anchor="start" x="8" y="-1384.3" font-family="Times,serif" font-size="14.00"> g3 = v2</text>
<text text-anchor="start" x="8" y="-1369.3" font-family="Times,serif" font-size="14.00"> return IntToPtrCastExpr&lt;ptr&gt;(0)</text>
</g>
<!-- Node0x14435310&#45;&gt;Node0x14435500 -->
<g id="edge4" class="edge"><title>Node0x14435310&#45;&gt;Node0x14435500</title>
<path fill="none" stroke="black" d="M194.015,-1521.34C188.674,-1515.81 183.219,-1509.47 179,-1503 163.041,-1478.52 150.739,-1447.74 142.73,-1424.33"/>
<polygon fill="black" stroke="black" points="146.036,-1423.18 139.563,-1414.79 139.392,-1425.38 146.036,-1423.18"/>
<text text-anchor="middle" x="209" y="-1491.8" font-family="Times,serif" font-size="14.00">v3 == 0</text>
</g>
<!-- Node0xaa2d4a0 -->
<g id="node6" class="node"><title>Node0xaa2d4a0</title>
<polygon fill="none" stroke="black" points="269.5,-1306.5 269.5,-1342.5 366.5,-1342.5 366.5,-1306.5 269.5,-1306.5"/>
<text text-anchor="start" x="277.5" y="-1320.8" font-family="Times,serif" font-size="14.00">while True:</text>
</g>
<!-- Node0x144356d0&#45;&gt;Node0xaa2d4a0 -->
<g id="edge5" class="edge"><title>Node0x144356d0&#45;&gt;Node0xaa2d4a0</title>
<path fill="none" stroke="black" d="M283.478,-1433.38C290.143,-1412.55 301.476,-1377.14 309.331,-1352.59"/>
<polygon fill="black" stroke="black" points="312.746,-1353.4 312.46,-1342.81 306.079,-1351.27 312.746,-1353.4"/>
</g>
<!-- Node0x14435150 -->
<g id="node7" class="node"><title>Node0x14435150</title>
<polygon fill="none" stroke="black" points="369,-23.5 369,-59.5 423,-59.5 423,-23.5 369,-23.5"/>
<text text-anchor="start" x="377" y="-37.8" font-family="Times,serif" font-size="14.00">exit:</text>
</g>
<!-- Node0x14435500&#45;&gt;Node0x14435150 -->
<g id="edge6" class="edge"><title>Node0x14435500&#45;&gt;Node0x14435150</title>
<path fill="none" stroke="black" d="M125.86,-1361.15C121.348,-1339.89 116,-1308.92 116,-1281.5 116,-1281.5 116,-1281.5 116,-115.5 116,-65.9013 282.589,-49.3851 358.775,-44.4252"/>
<polygon fill="black" stroke="black" points="359.133,-47.9098 368.898,-43.7997 358.701,-40.9231 359.133,-47.9098"/>
</g>
<!-- Node0x144355b0 -->
<g id="node8" class="node"><title>Node0x144355b0</title>
<polygon fill="none" stroke="black" points="144,-1201.5 144,-1254.5 632,-1254.5 632,-1201.5 144,-1201.5"/>
<text text-anchor="start" x="152" y="-1239.3" font-family="Times,serif" font-size="14.00">v5 = ExtCastExpr&lt;int32&gt;(*(IntToPtrCastExpr&lt;ptr&gt;((g1 + v4))))</text>
<text text-anchor="start" x="152" y="-1224.3" font-family="Times,serif" font-size="14.00"> v6 = (v5 &#45; 48)</text>
<text text-anchor="start" x="152" y="-1209.3" font-family="Times,serif" font-size="14.00"> v7</text>
</g>
<!-- Node0xaa2d4a0&#45;&gt;Node0x144355b0 -->
<g id="edge7" class="edge"><title>Node0xaa2d4a0&#45;&gt;Node0x144355b0</title>
<path fill="none" stroke="black" d="M330.839,-1306.17C339.747,-1294.14 351.91,-1277.72 362.726,-1263.12"/>
<polygon fill="black" stroke="black" points="365.764,-1264.9 368.904,-1254.78 360.139,-1260.73 365.764,-1264.9"/>
<text text-anchor="middle" x="373" y="-1276.8" font-family="Times,serif" font-size="14.00">True</text>
</g>
<!-- Node0x14435c40 -->
<g id="node9" class="node"><title>Node0x14435c40</title>
<polygon fill="none" stroke="black" points="250.5,-1125.5 250.5,-1163.5 525.5,-1163.5 525.5,-1125.5 250.5,-1125.5"/>
<text text-anchor="start" x="258.5" y="-1148.3" font-family="Times,serif" font-size="14.00">if (TruncCastExpr&lt;int8&gt;(v6) &lt; 10):</text>
<text text-anchor="start" x="258.5" y="-1133.3" font-family="Times,serif" font-size="14.00"> else:</text>
</g>
<!-- Node0x144355b0&#45;&gt;Node0x14435c40 -->
<g id="edge8" class="edge"><title>Node0x144355b0&#45;&gt;Node0x14435c40</title>
<path fill="none" stroke="black" d="M388,-1201.21C388,-1192.53 388,-1182.79 388,-1173.91"/>
<polygon fill="black" stroke="black" points="391.5,-1173.64 388,-1163.64 384.5,-1173.64 391.5,-1173.64"/>
</g>
<!-- Node0x14436510 -->
<g id="node10" class="node"><title>Node0x14436510</title>
<polygon fill="none" stroke="black" points="250,-1020.5 250,-1073.5 562,-1073.5 562,-1020.5 250,-1020.5"/>
<text text-anchor="start" x="258" y="-1058.3" font-family="Times,serif" font-size="14.00">0x80637ea:</text>
<text text-anchor="start" x="258" y="-1043.3" font-family="Times,serif" font-size="14.00"> if (TruncCastExpr&lt;int8&gt;((v5 &#45; 65)) &gt; 5):</text>
<text text-anchor="start" x="258" y="-1028.3" font-family="Times,serif" font-size="14.00"> else:</text>
</g>
<!-- Node0x14435c40&#45;&gt;Node0x14436510 -->
<g id="edge9" class="edge"><title>Node0x14435c40&#45;&gt;Node0x14436510</title>
<path fill="none" stroke="black" d="M391.471,-1125.09C393.69,-1113.31 396.642,-1097.65 399.306,-1083.52"/>
<polygon fill="black" stroke="black" points="402.766,-1084.05 401.179,-1073.58 395.888,-1082.76 402.766,-1084.05"/>
<text text-anchor="middle" x="518.5" y="-1095.8" font-family="Times,serif" font-size="14.00">TruncCastExpr&lt;int8&gt;(v6) &gt;= 10</text>
</g>
<!-- Node0x14435f30 -->
<g id="node11" class="node"><title>Node0x14435f30</title>
<polygon fill="none" stroke="black" points="144,-599.5 144,-637.5 296,-637.5 296,-599.5 144,-599.5"/>
<text text-anchor="start" x="152" y="-622.3" font-family="Times,serif" font-size="14.00">0x80637c6:</text>
<text text-anchor="start" x="152" y="-607.3" font-family="Times,serif" font-size="14.00"> if ((v4 % 2) == 0):</text>
</g>
<!-- Node0x14435c40&#45;&gt;Node0x14435f30 -->
<g id="edge10" class="edge"><title>Node0x14435c40&#45;&gt;Node0x14435f30</title>
<path fill="none" stroke="black" d="M286.263,-1125.47C246.39,-1112 210,-1088.59 210,-1048 210,-1048 210,-1048 210,-746.5 210,-712.44 213.619,-673.4 216.502,-647.697"/>
<polygon fill="black" stroke="black" points="220.004,-647.889 217.681,-637.552 213.05,-647.081 220.004,-647.889"/>
<text text-anchor="middle" x="324.5" y="-888.8" font-family="Times,serif" font-size="14.00">TruncCastExpr&lt;int8&gt;(v6) &lt; 10</text>
</g>
<!-- Node0x19da3010 -->
<g id="node12" class="node"><title>Node0x19da3010</title>
<polygon fill="none" stroke="black" points="646,-930.5 646,-968.5 760,-968.5 760,-930.5 646,-930.5"/>
<text text-anchor="start" x="654" y="-953.3" font-family="Times,serif" font-size="14.00">v8 = (v5 &#45; 97)</text>
<text text-anchor="start" x="654" y="-938.3" font-family="Times,serif" font-size="14.00"> g4 = v8</text>
</g>
<!-- Node0x14436510&#45;&gt;Node0x19da3010 -->
<g id="edge11" class="edge"><title>Node0x14436510&#45;&gt;Node0x19da3010</title>
<path fill="none" stroke="black" d="M562.239,-1034.06C613.022,-1027.44 661.373,-1017.32 681,-1002 688.517,-996.131 693.503,-987.2 696.795,-978.413"/>
<polygon fill="black" stroke="black" points="700.18,-979.316 699.835,-968.726 693.501,-977.219 700.18,-979.316"/>
<text text-anchor="middle" x="823" y="-990.8" font-family="Times,serif" font-size="14.00">TruncCastExpr&lt;int8&gt;((v5 &#45; 65)) &gt; 5</text>
</g>
<!-- Node0x19da34b0 -->
<g id="node13" class="node"><title>Node0x19da34b0</title>
<polygon fill="none" stroke="black" points="444.5,-873.5 444.5,-911.5 563.5,-911.5 563.5,-873.5 444.5,-873.5"/>
<text text-anchor="start" x="452.5" y="-896.3" font-family="Times,serif" font-size="14.00">0x80637f2:</text>
<text text-anchor="start" x="452.5" y="-881.3" font-family="Times,serif" font-size="14.00"> v6 = (v5 &#45; 55)</text>
</g>
<!-- Node0x14436510&#45;&gt;Node0x19da34b0 -->
<g id="edge12" class="edge"><title>Node0x14436510&#45;&gt;Node0x19da34b0</title>
<path fill="none" stroke="black" d="M399.778,-1020.41C398.401,-1009.69 398.483,-997.338 403,-987 415.641,-958.071 442.136,-934.098 464.818,-917.671"/>
<polygon fill="black" stroke="black" points="467.097,-920.348 473.288,-911.75 463.087,-914.611 467.097,-920.348"/>
<text text-anchor="middle" x="540" y="-990.8" font-family="Times,serif" font-size="14.00">TruncCastExpr&lt;int8&gt;((v5 &#45; 65)) &lt;= 5</text>
</g>
<!-- Node0x19da2dd0 -->
<g id="node14" class="node"><title>Node0x19da2dd0</title>
<polygon fill="none" stroke="black" points="246,-511.5 246,-547.5 432,-547.5 432,-511.5 246,-511.5"/>
<text text-anchor="start" x="254" y="-525.8" font-family="Times,serif" font-size="14.00">goto if_80637cd_0_true</text>
</g>
<!-- Node0x14435f30&#45;&gt;Node0x19da2dd0 -->
<g id="edge13" class="edge"><title>Node0x14435f30&#45;&gt;Node0x19da2dd0</title>
<path fill="none" stroke="black" d="M287.943,-599.415C298.148,-594.603 307.937,-588.563 316,-581 322.768,-574.652 327.699,-565.933 331.217,-557.525"/>
<polygon fill="black" stroke="black" points="334.568,-558.552 334.723,-547.959 327.996,-556.143 334.568,-558.552"/>
<text text-anchor="middle" x="378" y="-569.8" font-family="Times,serif" font-size="14.00">(v4 % 2) == 0</text>
</g>
<!-- Node0x14436390 -->
<g id="node15" class="node"><title>Node0x14436390</title>
<polygon fill="none" stroke="black" points="137.5,-454.5 137.5,-492.5 332.5,-492.5 332.5,-454.5 137.5,-454.5"/>
<text text-anchor="start" x="145.5" y="-477.3" font-family="Times,serif" font-size="14.00">v7 = v6</text>
<text text-anchor="start" x="145.5" y="-462.3" font-family="Times,serif" font-size="14.00"> goto after_if_80637cd_0</text>
</g>
<!-- Node0x14435f30&#45;&gt;Node0x14436390 -->
<g id="edge14" class="edge"><title>Node0x14435f30&#45;&gt;Node0x14436390</title>
<path fill="none" stroke="black" d="M217.615,-599.338C216.953,-593.494 216.327,-586.983 216,-581 214.53,-554.086 220.679,-523.877 226.367,-502.527"/>
<polygon fill="black" stroke="black" points="229.762,-503.384 229.087,-492.81 223.021,-501.497 229.762,-503.384"/>
<text text-anchor="middle" x="264" y="-569.8" font-family="Times,serif" font-size="14.00">(v4 % 2) != 0</text>
</g>
<!-- Node0x19da3140 -->
<g id="node16" class="node"><title>Node0x19da3140</title>
<polygon fill="none" stroke="black" points="570,-818.5 570,-854.5 836,-854.5 836,-818.5 570,-818.5"/>
<text text-anchor="start" x="578" y="-832.8" font-family="Times,serif" font-size="14.00">if (TruncCastExpr&lt;int8&gt;(v8) &gt; 5):</text>
</g>
<!-- Node0x19da3010&#45;&gt;Node0x19da3140 -->
<g id="edge15" class="edge"><title>Node0x19da3010&#45;&gt;Node0x19da3140</title>
<path fill="none" stroke="black" d="M703,-930.171C703,-912.424 703,-885.294 703,-864.966"/>
<polygon fill="black" stroke="black" points="706.5,-864.76 703,-854.76 699.5,-864.76 706.5,-864.76"/>
</g>
<!-- Node0x14436c20 -->
<g id="node17" class="node"><title>Node0x14436c20</title>
<polygon fill="none" stroke="black" points="473.5,-599.5 473.5,-637.5 574.5,-637.5 574.5,-599.5 473.5,-599.5"/>
<text text-anchor="start" x="481.5" y="-622.3" font-family="Times,serif" font-size="14.00">0x80637c6:</text>
<text text-anchor="start" x="481.5" y="-607.3" font-family="Times,serif" font-size="14.00"> v7 = v6</text>
</g>
<!-- Node0x19da34b0&#45;&gt;Node0x14436c20 -->
<g id="edge16" class="edge"><title>Node0x19da34b0&#45;&gt;Node0x14436c20</title>
<path fill="none" stroke="black" d="M503.723,-873.314C503.424,-843.087 503.493,-780.62 508,-728 510.346,-700.611 515.135,-669.605 518.865,-647.774"/>
<polygon fill="black" stroke="black" points="522.325,-648.303 520.596,-637.85 515.429,-647.1 522.325,-648.303"/>
</g>
<!-- Node0x19da35b0 -->
<g id="node18" class="node"><title>Node0x19da35b0</title>
<polygon fill="none" stroke="black" points="322.5,-397.5 322.5,-435.5 477.5,-435.5 477.5,-397.5 322.5,-397.5"/>
<text text-anchor="start" x="330.5" y="-420.3" font-family="Times,serif" font-size="14.00">if_80637cd_0_true:</text>
<text text-anchor="start" x="330.5" y="-405.3" font-family="Times,serif" font-size="14.00"> v7 = (16 * v6)</text>
</g>
<!-- Node0x19da2dd0&#45;&gt;Node0x19da35b0 -->
<g id="edge17" class="edge"><title>Node0x19da2dd0&#45;&gt;Node0x19da35b0</title>
<path fill="none" stroke="black" d="M348.072,-511.26C356.089,-496.11 368.157,-473.503 379,-454 380.722,-450.903 382.544,-447.67 384.368,-444.464"/>
<polygon fill="black" stroke="black" points="387.492,-446.052 389.426,-435.635 381.418,-442.572 387.492,-446.052"/>
</g>
<!-- Node0x19da2870 -->
<g id="node19" class="node"><title>Node0x19da2870</title>
<polygon fill="none" stroke="black" points="145.5,-261.5 145.5,-359.5 654.5,-359.5 654.5,-261.5 145.5,-261.5"/>
<text text-anchor="start" x="153.5" y="-344.3" font-family="Times,serif" font-size="14.00">after_if_80637cd_0:</text>
<text text-anchor="start" x="153.5" y="-329.3" font-family="Times,serif" font-size="14.00"> v9 = (v4 / 2)</text>
<text text-anchor="start" x="153.5" y="-314.3" font-family="Times,serif" font-size="14.00"> g4 = v9</text>
<text text-anchor="start" x="153.5" y="-299.3" font-family="Times,serif" font-size="14.00"> v10 = IntToPtrCastExpr&lt;ptr&gt;((g6 + v9))</text>
<text text-anchor="start" x="153.5" y="-284.3" font-family="Times,serif" font-size="14.00"> *(v10) = TruncCastExpr&lt;int8&gt;((ExtCastExpr&lt;int32&gt;(*(v10)) | v7))</text>
<text text-anchor="start" x="153.5" y="-269.3" font-family="Times,serif" font-size="14.00"> v11 = (v4 + 1)</text>
</g>
<!-- Node0x14436390&#45;&gt;Node0x19da2870 -->
<g id="edge18" class="edge"><title>Node0x14436390&#45;&gt;Node0x19da2870</title>
<path fill="none" stroke="black" d="M253.607,-454.344C275.22,-433.255 311.907,-397.457 343.147,-366.975"/>
<polygon fill="black" stroke="black" points="345.831,-369.246 350.544,-359.757 340.943,-364.235 345.831,-369.246"/>
</g>
<!-- Node0x14433730 -->
<g id="node20" class="node"><title>Node0x14433730</title>
<polygon fill="none" stroke="black" points="579,-656.5 579,-709.5 875,-709.5 875,-656.5 579,-656.5"/>
<text text-anchor="start" x="587" y="-694.3" font-family="Times,serif" font-size="14.00">0x8063802:</text>
<text text-anchor="start" x="587" y="-679.3" font-family="Times,serif" font-size="14.00"> g3 = v2</text>
<text text-anchor="start" x="587" y="-664.3" font-family="Times,serif" font-size="14.00"> return IntToPtrCastExpr&lt;ptr&gt;(&#45;4608)</text>
</g>
<!-- Node0x19da3140&#45;&gt;Node0x14433730 -->
<g id="edge19" class="edge"><title>Node0x19da3140&#45;&gt;Node0x14433730</title>
<path fill="none" stroke="black" d="M762.009,-818.491C769.924,-813.748 777.018,-807.701 782,-800 798.968,-773.772 780.871,-741.493 761.018,-717.651"/>
<polygon fill="black" stroke="black" points="763.477,-715.145 754.266,-709.909 758.201,-719.746 763.477,-715.145"/>
<text text-anchor="middle" x="897" y="-788.8" font-family="Times,serif" font-size="14.00">TruncCastExpr&lt;int8&gt;(v8) &gt; 5</text>
</g>
<!-- Node0x19da3420 -->
<g id="node21" class="node"><title>Node0x19da3420</title>
<polygon fill="none" stroke="black" points="517.5,-728.5 517.5,-766.5 636.5,-766.5 636.5,-728.5 517.5,-728.5"/>
<text text-anchor="start" x="525.5" y="-751.3" font-family="Times,serif" font-size="14.00">0x8063818:</text>
<text text-anchor="start" x="525.5" y="-736.3" font-family="Times,serif" font-size="14.00"> v6 = (v5 &#45; 87)</text>
</g>
<!-- Node0x19da3140&#45;&gt;Node0x19da3420 -->
<g id="edge20" class="edge"><title>Node0x19da3140&#45;&gt;Node0x19da3420</title>
<path fill="none" stroke="black" d="M587.838,-818.448C570.269,-813.599 555.979,-807.526 550,-800 543.971,-792.412 546.261,-783.273 551.478,-774.813"/>
<polygon fill="black" stroke="black" points="554.367,-776.792 557.471,-766.662 548.727,-772.645 554.367,-776.792"/>
<text text-anchor="middle" x="666" y="-788.8" font-family="Times,serif" font-size="14.00">TruncCastExpr&lt;int8&gt;(v8) &lt;= 5</text>
</g>
<!-- Node0x14436f80 -->
<g id="node22" class="node"><title>Node0x14436f80</title>
<polygon fill="none" stroke="black" points="450.5,-511.5 450.5,-547.5 597.5,-547.5 597.5,-511.5 450.5,-511.5"/>
<text text-anchor="start" x="458.5" y="-525.8" font-family="Times,serif" font-size="14.00">if ((v4 % 2) == 0):</text>
</g>
<!-- Node0x14436c20&#45;&gt;Node0x14436f80 -->
<g id="edge21" class="edge"><title>Node0x14436c20&#45;&gt;Node0x14436f80</title>
<path fill="none" stroke="black" d="M524,-599.474C524,-587.456 524,-571.434 524,-557.857"/>
<polygon fill="black" stroke="black" points="527.5,-557.615 524,-547.615 520.5,-557.615 527.5,-557.615"/>
</g>
<!-- Node0x19da35b0&#45;&gt;Node0x19da2870 -->
<g id="edge22" class="edge"><title>Node0x19da35b0&#45;&gt;Node0x19da2870</title>
<path fill="none" stroke="black" d="M400,-397.385C400,-389.528 400,-379.844 400,-369.842"/>
<polygon fill="black" stroke="black" points="403.5,-369.789 400,-359.789 396.5,-369.789 403.5,-369.789"/>
</g>
<!-- Node0x19da2b70 -->
<g id="node23" class="node"><title>Node0x19da2b70</title>
<polygon fill="none" stroke="black" points="339,-187.5 339,-223.5 461,-223.5 461,-187.5 339,-187.5"/>
<text text-anchor="start" x="347" y="-201.8" font-family="Times,serif" font-size="14.00">if (v11 &gt;= v3):</text>
</g>
<!-- Node0x19da2870&#45;&gt;Node0x19da2b70 -->
<g id="edge23" class="edge"><title>Node0x19da2870&#45;&gt;Node0x19da2b70</title>
<path fill="none" stroke="black" d="M400,-261.317C400,-251.893 400,-242.32 400,-233.868"/>
<polygon fill="black" stroke="black" points="403.5,-233.856 400,-223.856 396.5,-233.856 403.5,-233.856"/>
</g>
<!-- Node0x14433730&#45;&gt;Node0x14435150 -->
<g id="edge24" class="edge"><title>Node0x14433730&#45;&gt;Node0x14435150</title>
<path fill="none" stroke="black" d="M718.683,-656.235C712.453,-634.644 705,-602.885 705,-574.5 705,-574.5 705,-574.5 705,-115.5 705,-60.2498 515.527,-46.7657 433.318,-43.5154"/>
<polygon fill="black" stroke="black" points="433.272,-40.0115 423.151,-43.1444 433.017,-47.0069 433.272,-40.0115"/>
</g>
<!-- Node0x19da3420&#45;&gt;Node0x14436c20 -->
<g id="edge25" class="edge"><title>Node0x19da3420&#45;&gt;Node0x14436c20</title>
<path fill="none" stroke="black" d="M569.406,-728.304C560.551,-707.085 545.819,-671.783 535.545,-647.165"/>
<polygon fill="black" stroke="black" points="538.661,-645.543 531.58,-637.662 532.201,-648.239 538.661,-645.543"/>
</g>
<!-- Node0x14436f80&#45;&gt;Node0x19da35b0 -->
<g id="edge26" class="edge"><title>Node0x14436f80&#45;&gt;Node0x19da35b0</title>
<path fill="none" stroke="black" d="M453.758,-511.479C429.151,-504.837 406.67,-497.703 403,-493 392.772,-479.891 391.937,-461.255 393.7,-445.778"/>
<polygon fill="black" stroke="black" points="397.193,-446.091 395.253,-435.675 390.275,-445.027 397.193,-446.091"/>
<text text-anchor="middle" x="454" y="-469.8" font-family="Times,serif" font-size="14.00">(v4 % 2) == 0</text>
</g>
<!-- Node0x14436f80&#45;&gt;Node0x19da2870 -->
<g id="edge27" class="edge"><title>Node0x14436f80&#45;&gt;Node0x19da2870</title>
<path fill="none" stroke="black" d="M522.023,-511.103C518.383,-484.715 508.792,-433.758 486,-397 479.522,-386.552 471.525,-376.422 463.039,-367.009"/>
<polygon fill="black" stroke="black" points="465.528,-364.546 456.148,-359.621 460.409,-369.321 465.528,-364.546"/>
<text text-anchor="middle" x="553" y="-412.8" font-family="Times,serif" font-size="14.00">(v4 % 2) != 0</text>
</g>
<!-- Node0x144335e0 -->
<g id="node24" class="node"><title>Node0x144335e0</title>
<polygon fill="none" stroke="black" points="255,-97.5 255,-135.5 423,-135.5 423,-97.5 255,-97.5"/>
<text text-anchor="start" x="263" y="-120.3" font-family="Times,serif" font-size="14.00">break &#45;&gt; 0x8063800:</text>
<text text-anchor="start" x="263" y="-105.3" font-family="Times,serif" font-size="14.00"> break</text>
</g>
<!-- Node0x19da2b70&#45;&gt;Node0x144335e0 -->
<g id="edge28" class="edge"><title>Node0x19da2b70&#45;&gt;Node0x144335e0</title>
<path fill="none" stroke="black" d="M386.582,-187.338C382.172,-181.572 377.3,-175.063 373,-169 367.416,-161.127 361.552,-152.416 356.295,-144.434"/>
<polygon fill="black" stroke="black" points="359.065,-142.273 350.667,-135.813 353.203,-146.1 359.065,-142.273"/>
<text text-anchor="middle" x="411.5" y="-157.8" font-family="Times,serif" font-size="14.00">v11 &gt;= v3</text>
</g>
<!-- Node0x19da2ce0 -->
<g id="node25" class="node"><title>Node0x19da2ce0</title>
<polygon fill="none" stroke="black" points="441.5,-97.5 441.5,-135.5 524.5,-135.5 524.5,-97.5 441.5,-97.5"/>
<text text-anchor="start" x="449.5" y="-120.3" font-family="Times,serif" font-size="14.00">v4 = v11</text>
<text text-anchor="start" x="449.5" y="-105.3" font-family="Times,serif" font-size="14.00"> continue</text>
</g>
<!-- Node0x19da2b70&#45;&gt;Node0x19da2ce0 -->
<g id="edge29" class="edge"><title>Node0x19da2b70&#45;&gt;Node0x19da2ce0</title>
<path fill="none" stroke="black" d="M427.984,-187.46C435.606,-182.094 443.535,-175.78 450,-169 456.889,-161.776 463.168,-152.913 468.356,-144.59"/>
<polygon fill="black" stroke="black" points="471.436,-146.257 473.535,-135.872 465.418,-142.682 471.436,-146.257"/>
<text text-anchor="middle" x="494.5" y="-157.8" font-family="Times,serif" font-size="14.00">v11 &lt; v3</text>
</g>
<!-- Node0x144335e0&#45;&gt;Node0x14435150 -->
<g id="edge30" class="edge"><title>Node0x144335e0&#45;&gt;Node0x14435150</title>
<path fill="none" stroke="black" d="M353.09,-97.4551C360.025,-88.5727 368.506,-77.7116 376.091,-67.9975"/>
<polygon fill="black" stroke="black" points="379.069,-69.8706 382.465,-59.8347 373.552,-65.5626 379.069,-69.8706"/>
</g>
<!-- Node0x19da2ce0&#45;&gt;Node0x14435150 -->
<g id="edge31" class="edge"><title>Node0x19da2ce0&#45;&gt;Node0x14435150</title>
<path fill="none" stroke="black" d="M461.494,-97.4551C450.184,-87.9651 436.183,-76.2165 424.032,-66.0211"/>
<polygon fill="black" stroke="black" points="426.272,-63.3316 416.362,-59.585 421.772,-68.694 426.272,-63.3316"/>
</g>
</g>
</svg>
