<?xml version="1.0" encoding="UTF-8" standalone="no"?>
<!DOCTYPE svg PUBLIC "-//W3C//DTD SVG 1.1//EN"
 "http://www.w3.org/Graphics/SVG/1.1/DTD/svg11.dtd">
<!-- Generated by graphviz version 2.38.0 (20140413.2041)
 -->
<!-- Title: Control&#45;flow graph for function &#39;des3_crypt_cbc_wrap(a1)&#39;. Pages: 1 -->
<svg width="611pt" height="278pt"
 viewBox="0.00 0.00 611.00 278.00" xmlns="http://www.w3.org/2000/svg" xmlns:xlink="http://www.w3.org/1999/xlink">
<g id="graph0" class="graph" transform="scale(1 1) rotate(0) translate(4 274)">
<title>Control&#45;flow graph for function &#39;des3_crypt_cbc_wrap(a1)&#39;.</title>
<polygon fill="white" stroke="none" points="-4,4 -4,-274 607,-274 607,4 -4,4"/>
<text text-anchor="middle" x="301.5" y="-7.8" font-family="Times,serif" font-size="14.00">Control&#45;flow graph for function &#39;des3_crypt_cbc_wrap(a1)&#39;.</text>
<!-- Node0x2630d5c0 -->
<g id="node1" class="node"><title>Node0x2630d5c0</title>
<polygon fill="none" stroke="black" points="272,-231.5 272,-269.5 331,-269.5 331,-231.5 272,-231.5"/>
<text text-anchor="start" x="280" y="-254.3" font-family="Times,serif" font-size="14.00">entry:</text>
<text text-anchor="start" x="280" y="-239.3" font-family="Times,serif" font-size="14.00"> a1</text>
</g>
<!-- Node0x21029bd0 -->
<g id="node2" class="node"><title>Node0x21029bd0</title>
<polygon fill="none" stroke="black" points="0,-96.5 0,-194.5 603,-194.5 603,-96.5 0,-96.5"/>
<text text-anchor="start" x="8" y="-179.3" font-family="Times,serif" font-size="14.00">0x806a590:</text>
<text text-anchor="start" x="8" y="-164.3" font-family="Times,serif" font-size="14.00"> v1</text>
<text text-anchor="start" x="8" y="-149.3" font-family="Times,serif" font-size="14.00"> v2</text>
<text text-anchor="start" x="8" y="-134.3" font-family="Times,serif" font-size="14.00"> result = mbedtls_des3_crypt_cbc(v2, v1, TruncCastExpr&lt;int8&gt;(a1), NULL, 0, 0)</text>
<text text-anchor="start" x="8" y="-119.3" font-family="Times,serif" font-size="14.00"> g1 = result</text>
<text text-anchor="start" x="8" y="-104.3" font-family="Times,serif" font-size="14.00"> return result</text>
</g>
<!-- Node0x2630d5c0&#45;&gt;Node0x21029bd0 -->
<g id="edge1" class="edge"><title>Node0x2630d5c0&#45;&gt;Node0x21029bd0</title>
<path fill="none" stroke="black" d="M301.5,-231.086C301.5,-223.607 301.5,-214.513 301.5,-205.097"/>
<polygon fill="black" stroke="black" points="305,-204.814 301.5,-194.814 298,-204.815 305,-204.814"/>
</g>
<!-- Node0x1d0c0150 -->
<g id="node3" class="node"><title>Node0x1d0c0150</title>
<polygon fill="none" stroke="black" points="274.5,-23.5 274.5,-59.5 328.5,-59.5 328.5,-23.5 274.5,-23.5"/>
<text text-anchor="start" x="282.5" y="-37.8" font-family="Times,serif" font-size="14.00">exit:</text>
</g>
<!-- Node0x21029bd0&#45;&gt;Node0x1d0c0150 -->
<g id="edge2" class="edge"><title>Node0x21029bd0&#45;&gt;Node0x1d0c0150</title>
<path fill="none" stroke="black" d="M301.5,-96.4868C301.5,-87.2893 301.5,-77.9618 301.5,-69.7064"/>
<polygon fill="black" stroke="black" points="305,-69.5725 301.5,-59.5725 298,-69.5725 305,-69.5725"/>
</g>
</g>
</svg>
