<?xml version="1.0" encoding="UTF-8" standalone="no"?>
<!DOCTYPE svg PUBLIC "-//W3C//DTD SVG 1.1//EN"
 "http://www.w3.org/Graphics/SVG/1.1/DTD/svg11.dtd">
<!-- Generated by graphviz version 2.38.0 (20140413.2041)
 -->
<!-- Title: Control&#45;flow graph for function &#39;blowfish_crypt_cbc_wrap(a1)&#39;. Pages: 1 -->
<svg width="598pt" height="263pt"
 viewBox="0.00 0.00 598.00 263.00" xmlns="http://www.w3.org/2000/svg" xmlns:xlink="http://www.w3.org/1999/xlink">
<g id="graph0" class="graph" transform="scale(1 1) rotate(0) translate(4 259)">
<title>Control&#45;flow graph for function &#39;blowfish_crypt_cbc_wrap(a1)&#39;.</title>
<polygon fill="white" stroke="none" points="-4,4 -4,-259 594,-259 594,4 -4,4"/>
<text text-anchor="middle" x="295" y="-7.8" font-family="Times,serif" font-size="14.00">Control&#45;flow graph for function &#39;blowfish_crypt_cbc_wrap(a1)&#39;.</text>
<!-- Node0xde72de0 -->
<g id="node1" class="node"><title>Node0xde72de0</title>
<polygon fill="none" stroke="black" points="265.5,-216.5 265.5,-254.5 324.5,-254.5 324.5,-216.5 265.5,-216.5"/>
<text text-anchor="start" x="273.5" y="-239.3" font-family="Times,serif" font-size="14.00">entry:</text>
<text text-anchor="start" x="273.5" y="-224.3" font-family="Times,serif" font-size="14.00"> a1</text>
</g>
<!-- Node0x26ff3b30 -->
<g id="node2" class="node"><title>Node0x26ff3b30</title>
<polygon fill="none" stroke="black" points="0,-96.5 0,-179.5 590,-179.5 590,-96.5 0,-96.5"/>
<text text-anchor="start" x="8" y="-164.3" font-family="Times,serif" font-size="14.00">0x806a880:</text>
<text text-anchor="start" x="8" y="-149.3" font-family="Times,serif" font-size="14.00"> v1</text>
<text text-anchor="start" x="8" y="-134.3" font-family="Times,serif" font-size="14.00"> result</text>
<text text-anchor="start" x="8" y="-119.3" font-family="Times,serif" font-size="14.00"> mbedtls_blowfish_crypt_cbc(result, v1, TruncCastExpr&lt;int8&gt;(a1), NULL, 0, 0)</text>
<text text-anchor="start" x="8" y="-104.3" font-family="Times,serif" font-size="14.00"> return result</text>
</g>
<!-- Node0xde72de0&#45;&gt;Node0x26ff3b30 -->
<g id="edge1" class="edge"><title>Node0xde72de0&#45;&gt;Node0x26ff3b30</title>
<path fill="none" stroke="black" d="M295,-216.087C295,-208.444 295,-199.165 295,-189.73"/>
<polygon fill="black" stroke="black" points="298.5,-189.501 295,-179.501 291.5,-189.501 298.5,-189.501"/>
</g>
<!-- Node0xb216470 -->
<g id="node3" class="node"><title>Node0xb216470</title>
<polygon fill="none" stroke="black" points="268,-23.5 268,-59.5 322,-59.5 322,-23.5 268,-23.5"/>
<text text-anchor="start" x="276" y="-37.8" font-family="Times,serif" font-size="14.00">exit:</text>
</g>
<!-- Node0x26ff3b30&#45;&gt;Node0xb216470 -->
<g id="edge2" class="edge"><title>Node0x26ff3b30&#45;&gt;Node0xb216470</title>
<path fill="none" stroke="black" d="M295,-96.3751C295,-87.4706 295,-78.246 295,-70"/>
<polygon fill="black" stroke="black" points="298.5,-69.8327 295,-59.8328 291.5,-69.8328 298.5,-69.8327"/>
</g>
</g>
</svg>
