<?xml version="1.0" encoding="UTF-8" standalone="no"?>
<!DOCTYPE svg PUBLIC "-//W3C//DTD SVG 1.1//EN"
 "http://www.w3.org/Graphics/SVG/1.1/DTD/svg11.dtd">
<!-- Generated by graphviz version 2.38.0 (20140413.2041)
 -->
<!-- Title: Control&#45;flow graph for function &#39;mbedtls_ecp_keypair_free(a1)&#39;. Pages: 1 -->
<svg width="499pt" height="640pt"
 viewBox="0.00 0.00 498.50 640.00" xmlns="http://www.w3.org/2000/svg" xmlns:xlink="http://www.w3.org/1999/xlink">
<g id="graph0" class="graph" transform="scale(1 1) rotate(0) translate(4 636)">
<title>Control&#45;flow graph for function &#39;mbedtls_ecp_keypair_free(a1)&#39;.</title>
<polygon fill="white" stroke="none" points="-4,4 -4,-636 494.5,-636 494.5,4 -4,4"/>
<text text-anchor="middle" x="245.25" y="-7.8" font-family="Times,serif" font-size="14.00">Control&#45;flow graph for function &#39;mbedtls_ecp_keypair_free(a1)&#39;.</text>
<!-- Node0xfd82cf0 -->
<g id="node1" class="node"><title>Node0xfd82cf0</title>
<polygon fill="none" stroke="black" points="355,-593.5 355,-631.5 414,-631.5 414,-593.5 355,-593.5"/>
<text text-anchor="start" x="363" y="-616.3" font-family="Times,serif" font-size="14.00">entry:</text>
<text text-anchor="start" x="363" y="-601.3" font-family="Times,serif" font-size="14.00"> a1</text>
</g>
<!-- Node0xfb556e0 -->
<g id="node2" class="node"><title>Node0xfb556e0</title>
<polygon fill="none" stroke="black" points="346,-487.5 346,-555.5 423,-555.5 423,-487.5 346,-487.5"/>
<text text-anchor="start" x="354" y="-540.3" font-family="Times,serif" font-size="14.00">v1 = g3</text>
<text text-anchor="start" x="354" y="-525.3" font-family="Times,serif" font-size="14.00"> g3 = a1</text>
<text text-anchor="start" x="354" y="-510.3" font-family="Times,serif" font-size="14.00"> result</text>
<text text-anchor="start" x="354" y="-495.3" font-family="Times,serif" font-size="14.00"> v2</text>
</g>
<!-- Node0xfd82cf0&#45;&gt;Node0xfb556e0 -->
<g id="edge1" class="edge"><title>Node0xfd82cf0&#45;&gt;Node0xfb556e0</title>
<path fill="none" stroke="black" d="M384.5,-593.49C384.5,-585.422 384.5,-575.529 384.5,-565.718"/>
<polygon fill="black" stroke="black" points="388,-565.605 384.5,-555.605 381,-565.605 388,-565.605"/>
</g>
<!-- Node0x2ad03a80 -->
<g id="node3" class="node"><title>Node0x2ad03a80</title>
<polygon fill="none" stroke="black" points="335,-413.5 335,-449.5 434,-449.5 434,-413.5 335,-413.5"/>
<text text-anchor="start" x="343" y="-427.8" font-family="Times,serif" font-size="14.00">if (a1 != 0):</text>
</g>
<!-- Node0xfb556e0&#45;&gt;Node0x2ad03a80 -->
<g id="edge2" class="edge"><title>Node0xfb556e0&#45;&gt;Node0x2ad03a80</title>
<path fill="none" stroke="black" d="M384.5,-487.482C384.5,-478.328 384.5,-468.497 384.5,-459.715"/>
<polygon fill="black" stroke="black" points="388,-459.64 384.5,-449.64 381,-459.64 388,-459.64"/>
</g>
<!-- Node0x28ae5140 -->
<g id="node4" class="node"><title>Node0x28ae5140</title>
<polygon fill="none" stroke="black" points="0,-203.5 0,-361.5 409,-361.5 409,-203.5 0,-203.5"/>
<text text-anchor="start" x="8" y="-346.3" font-family="Times,serif" font-size="14.00">0x805d6ee:</text>
<text text-anchor="start" x="8" y="-331.3" font-family="Times,serif" font-size="14.00"> mbedtls_ecp_group_free(IntToPtrCastExpr&lt;ptr&gt;(a1))</text>
<text text-anchor="start" x="8" y="-316.3" font-family="Times,serif" font-size="14.00"> v3 = g3</text>
<text text-anchor="start" x="8" y="-301.3" font-family="Times,serif" font-size="14.00"> v4 = (v3 + 124)</text>
<text text-anchor="start" x="8" y="-286.3" font-family="Times,serif" font-size="14.00"> g1 = v4</text>
<text text-anchor="start" x="8" y="-271.3" font-family="Times,serif" font-size="14.00"> g3 = (v3 + 136)</text>
<text text-anchor="start" x="8" y="-256.3" font-family="Times,serif" font-size="14.00"> g1 = mbedtls_mpi_free(IntToPtrCastExpr&lt;ptr&gt;(v4))</text>
<text text-anchor="start" x="8" y="-241.3" font-family="Times,serif" font-size="14.00"> g3 = v1</text>
<text text-anchor="start" x="8" y="-226.3" font-family="Times,serif" font-size="14.00"> result = mbedtls_ecp_point_free(v2)</text>
<text text-anchor="start" x="8" y="-211.3" font-family="Times,serif" font-size="14.00"> g1 = result</text>
</g>
<!-- Node0x2ad03a80&#45;&gt;Node0x28ae5140 -->
<g id="edge3" class="edge"><title>Node0x2ad03a80&#45;&gt;Node0x28ae5140</title>
<path fill="none" stroke="black" d="M363.499,-413.35C349.21,-401.68 329.122,-385.275 308.02,-368.041"/>
<polygon fill="black" stroke="black" points="310.167,-365.276 300.208,-361.661 305.739,-370.698 310.167,-365.276"/>
<text text-anchor="middle" x="368.5" y="-383.8" font-family="Times,serif" font-size="14.00">a1 != 0</text>
</g>
<!-- Node0x28ae5360 -->
<g id="node5" class="node"><title>Node0x28ae5360</title>
<polygon fill="none" stroke="black" points="322,-97.5 322,-165.5 435,-165.5 435,-97.5 322,-97.5"/>
<text text-anchor="start" x="330" y="-150.3" font-family="Times,serif" font-size="14.00">0x805d718:</text>
<text text-anchor="start" x="330" y="-135.3" font-family="Times,serif" font-size="14.00"> g3 = v1</text>
<text text-anchor="start" x="330" y="-120.3" font-family="Times,serif" font-size="14.00"> g2 = v2</text>
<text text-anchor="start" x="330" y="-105.3" font-family="Times,serif" font-size="14.00"> return result</text>
</g>
<!-- Node0x2ad03a80&#45;&gt;Node0x28ae5360 -->
<g id="edge4" class="edge"><title>Node0x2ad03a80&#45;&gt;Node0x28ae5360</title>
<path fill="none" stroke="black" d="M395.493,-413.28C403.356,-399.889 413.269,-380.532 417.5,-362 433.23,-293.106 435.164,-271.423 417.5,-203 415.035,-193.451 410.969,-183.814 406.372,-174.862"/>
<polygon fill="black" stroke="black" points="409.296,-172.914 401.433,-165.813 403.151,-176.268 409.296,-172.914"/>
<text text-anchor="middle" x="460.5" y="-278.8" font-family="Times,serif" font-size="14.00">a1 == 0</text>
</g>
<!-- Node0x28ae5140&#45;&gt;Node0x28ae5360 -->
<g id="edge5" class="edge"><title>Node0x28ae5140&#45;&gt;Node0x28ae5360</title>
<path fill="none" stroke="black" d="M295.831,-203.291C308.244,-192.662 320.539,-182.134 331.701,-172.575"/>
<polygon fill="black" stroke="black" points="334.296,-174.961 339.615,-165.798 329.743,-169.644 334.296,-174.961"/>
</g>
<!-- Node0xfb55660 -->
<g id="node6" class="node"><title>Node0xfb55660</title>
<polygon fill="none" stroke="black" points="351.5,-23.5 351.5,-59.5 405.5,-59.5 405.5,-23.5 351.5,-23.5"/>
<text text-anchor="start" x="359.5" y="-37.8" font-family="Times,serif" font-size="14.00">exit:</text>
</g>
<!-- Node0x28ae5360&#45;&gt;Node0xfb55660 -->
<g id="edge6" class="edge"><title>Node0x28ae5360&#45;&gt;Node0xfb55660</title>
<path fill="none" stroke="black" d="M378.5,-97.4817C378.5,-88.3281 378.5,-78.4972 378.5,-69.7155"/>
<polygon fill="black" stroke="black" points="382,-69.6402 378.5,-59.6402 375,-69.6403 382,-69.6402"/>
</g>
</g>
</svg>
