<?xml version="1.0" encoding="UTF-8" standalone="no"?>
<!DOCTYPE svg PUBLIC "-//W3C//DTD SVG 1.1//EN"
 "http://www.w3.org/Graphics/SVG/1.1/DTD/svg11.dtd">
<!-- Generated by graphviz version 2.38.0 (20140413.2041)
 -->
<!-- Title: Control&#45;flow graph for function &#39;mbedtls_entropy_func(*a1, a2, a3)&#39;. Pages: 1 -->
<svg width="1344pt" height="2879pt"
 viewBox="0.00 0.00 1344.00 2879.00" xmlns="http://www.w3.org/2000/svg" xmlns:xlink="http://www.w3.org/1999/xlink">
<g id="graph0" class="graph" transform="scale(1 1) rotate(0) translate(4 2875)">
<title>Control&#45;flow graph for function &#39;mbedtls_entropy_func(*a1, a2, a3)&#39;.</title>
<polygon fill="white" stroke="none" points="-4,4 -4,-2875 1340,-2875 1340,4 -4,4"/>
<text text-anchor="middle" x="668" y="-7.8" font-family="Times,serif" font-size="14.00">Control&#45;flow graph for function &#39;mbedtls_entropy_func(*a1, a2, a3)&#39;.</text>
<!-- Node0x198cc300 -->
<g id="node1" class="node"><title>Node0x198cc300</title>
<polygon fill="none" stroke="black" points="353.5,-2802.5 353.5,-2870.5 412.5,-2870.5 412.5,-2802.5 353.5,-2802.5"/>
<text text-anchor="start" x="361.5" y="-2855.3" font-family="Times,serif" font-size="14.00">entry:</text>
<text text-anchor="start" x="361.5" y="-2840.3" font-family="Times,serif" font-size="14.00"> a1</text>
<text text-anchor="start" x="361.5" y="-2825.3" font-family="Times,serif" font-size="14.00"> a2</text>
<text text-anchor="start" x="361.5" y="-2810.3" font-family="Times,serif" font-size="14.00"> a3</text>
</g>
<!-- Node0x198cc590 -->
<g id="node2" class="node"><title>Node0x198cc590</title>
<polygon fill="none" stroke="black" points="344.5,-2696.5 344.5,-2764.5 421.5,-2764.5 421.5,-2696.5 344.5,-2696.5"/>
<text text-anchor="start" x="352.5" y="-2749.3" font-family="Times,serif" font-size="14.00">v1 = g5</text>
<text text-anchor="start" x="352.5" y="-2734.3" font-family="Times,serif" font-size="14.00"> v2 = g7</text>
<text text-anchor="start" x="352.5" y="-2719.3" font-family="Times,serif" font-size="14.00"> v3 = g3</text>
<text text-anchor="start" x="352.5" y="-2704.3" font-family="Times,serif" font-size="14.00"> g3 = 0</text>
</g>
<!-- Node0x198cc300&#45;&gt;Node0x198cc590 -->
<g id="edge1" class="edge"><title>Node0x198cc300&#45;&gt;Node0x198cc590</title>
<path fill="none" stroke="black" d="M383,-2802.31C383,-2793.58 383,-2784.04 383,-2774.87"/>
<polygon fill="black" stroke="black" points="386.5,-2774.73 383,-2764.73 379.5,-2774.73 386.5,-2774.73"/>
</g>
<!-- Node0x198cc690 -->
<g id="node3" class="node"><title>Node0x198cc690</title>
<polygon fill="none" stroke="black" points="332,-2622.5 332,-2658.5 434,-2658.5 434,-2622.5 332,-2622.5"/>
<text text-anchor="start" x="340" y="-2636.8" font-family="Times,serif" font-size="14.00">if (a3 &gt; 64):</text>
</g>
<!-- Node0x198cc590&#45;&gt;Node0x198cc690 -->
<g id="edge2" class="edge"><title>Node0x198cc590&#45;&gt;Node0x198cc690</title>
<path fill="none" stroke="black" d="M383,-2696.48C383,-2687.33 383,-2677.5 383,-2668.72"/>
<polygon fill="black" stroke="black" points="386.5,-2668.64 383,-2658.64 379.5,-2668.64 386.5,-2668.64"/>
</g>
<!-- Node0x198ccce0 -->
<g id="node4" class="node"><title>Node0x198ccce0</title>
<polygon fill="none" stroke="black" points="13.5,-2370.5 13.5,-2468.5 114.5,-2468.5 114.5,-2370.5 13.5,-2370.5"/>
<text text-anchor="start" x="21.5" y="-2453.3" font-family="Times,serif" font-size="14.00">0x804c77d:</text>
<text text-anchor="start" x="21.5" y="-2438.3" font-family="Times,serif" font-size="14.00"> g1 = &#45;60</text>
<text text-anchor="start" x="21.5" y="-2423.3" font-family="Times,serif" font-size="14.00"> g3 = v3</text>
<text text-anchor="start" x="21.5" y="-2408.3" font-family="Times,serif" font-size="14.00"> g7 = v2</text>
<text text-anchor="start" x="21.5" y="-2393.3" font-family="Times,serif" font-size="14.00"> g5 = v1</text>
<text text-anchor="start" x="21.5" y="-2378.3" font-family="Times,serif" font-size="14.00"> return g4</text>
</g>
<!-- Node0x198cc690&#45;&gt;Node0x198ccce0 -->
<g id="edge3" class="edge"><title>Node0x198cc690&#45;&gt;Node0x198ccce0</title>
<path fill="none" stroke="black" d="M358.234,-2622.5C308.156,-2588.12 193.643,-2509.5 123.157,-2461.11"/>
<polygon fill="black" stroke="black" points="125.011,-2458.14 114.786,-2455.37 121.049,-2463.91 125.011,-2458.14"/>
<text text-anchor="middle" x="359.5" y="-2592.8" font-family="Times,serif" font-size="14.00">a3 &gt; 64</text>
</g>
<!-- Node0x198cc7f0 -->
<g id="node5" class="node"><title>Node0x198cc7f0</title>
<polygon fill="none" stroke="black" points="865.5,-2487.5 865.5,-2570.5 1142.5,-2570.5 1142.5,-2487.5 865.5,-2487.5"/>
<text text-anchor="start" x="873.5" y="-2555.3" font-family="Times,serif" font-size="14.00">0x804c64c:</text>
<text text-anchor="start" x="873.5" y="-2540.3" font-family="Times,serif" font-size="14.00"> g1 = PtrToIntCastExpr&lt;int32&gt;(a1)</text>
<text text-anchor="start" x="873.5" y="-2525.3" font-family="Times,serif" font-size="14.00"> v4</text>
<text text-anchor="start" x="873.5" y="-2510.3" font-family="Times,serif" font-size="14.00"> v5 = entropy_gather_internal(v4)</text>
<text text-anchor="start" x="873.5" y="-2495.3" font-family="Times,serif" font-size="14.00"> v6 = v5</text>
</g>
<!-- Node0x198cc690&#45;&gt;Node0x198cc7f0 -->
<g id="edge4" class="edge"><title>Node0x198cc690&#45;&gt;Node0x198cc7f0</title>
<path fill="none" stroke="black" d="M434.083,-2630.49C525.225,-2614.42 719.07,-2580.24 855.28,-2556.22"/>
<polygon fill="black" stroke="black" points="856.155,-2559.62 865.395,-2554.44 854.939,-2552.73 856.155,-2559.62"/>
<text text-anchor="middle" x="691.5" y="-2592.8" font-family="Times,serif" font-size="14.00">a3 &lt;= 64</text>
</g>
<!-- Node0x198cc360 -->
<g id="node6" class="node"><title>Node0x198cc360</title>
<polygon fill="none" stroke="black" points="666,-23.5 666,-59.5 720,-59.5 720,-23.5 666,-23.5"/>
<text text-anchor="start" x="674" y="-37.8" font-family="Times,serif" font-size="14.00">exit:</text>
</g>
<!-- Node0x198ccce0&#45;&gt;Node0x198cc360 -->
<g id="edge5" class="edge"><title>Node0x198ccce0&#45;&gt;Node0x198cc360</title>
<path fill="none" stroke="black" d="M26.9563,-2370.49C12.803,-2347.55 0,-2318.95 0,-2290.5 0,-2290.5 0,-2290.5 0,-153 0,-95.2889 49.0864,-87.5608 106,-78 311.531,-43.4733 562.52,-41.4372 655.787,-42.0294"/>
<polygon fill="black" stroke="black" points="655.829,-45.5297 665.856,-42.1078 655.884,-38.5299 655.829,-45.5297"/>
</g>
<!-- Node0x1954b440 -->
<g id="node7" class="node"><title>Node0x1954b440</title>
<polygon fill="none" stroke="black" points="1120.5,-2315.5 1120.5,-2351.5 1225.5,-2351.5 1225.5,-2315.5 1120.5,-2315.5"/>
<text text-anchor="start" x="1128.5" y="-2329.8" font-family="Times,serif" font-size="14.00">if (v5 == 0):</text>
</g>
<!-- Node0x198cc7f0&#45;&gt;Node0x1954b440 -->
<g id="edge6" class="edge"><title>Node0x198cc7f0&#45;&gt;Node0x1954b440</title>
<path fill="none" stroke="black" d="M1039.43,-2487.44C1073.16,-2448.82 1122.85,-2391.92 1151.15,-2359.52"/>
<polygon fill="black" stroke="black" points="1153.92,-2361.67 1157.86,-2351.84 1148.65,-2357.06 1153.92,-2361.67"/>
</g>
<!-- Node0x198ccd40 -->
<g id="node8" class="node"><title>Node0x198ccd40</title>
<polygon fill="none" stroke="black" points="1141,-2227.5 1141,-2263.5 1205,-2263.5 1205,-2227.5 1141,-2227.5"/>
<text text-anchor="start" x="1149" y="-2241.8" font-family="Times,serif" font-size="14.00">v7 = 1</text>
</g>
<!-- Node0x1954b440&#45;&gt;Node0x198ccd40 -->
<g id="edge7" class="edge"><title>Node0x1954b440&#45;&gt;Node0x198ccd40</title>
<path fill="none" stroke="black" d="M1173,-2315.1C1173,-2303.25 1173,-2287.32 1173,-2273.79"/>
<polygon fill="black" stroke="black" points="1176.5,-2273.58 1173,-2263.58 1169.5,-2273.58 1176.5,-2273.58"/>
<text text-anchor="middle" x="1203" y="-2285.8" font-family="Times,serif" font-size="14.00">v5 == 0</text>
</g>
<!-- Node0x198ccbf0 -->
<g id="node9" class="node"><title>Node0x198ccbf0</title>
<polygon fill="none" stroke="black" points="1015.5,-105 1015.5,-203 1116.5,-203 1116.5,-105 1015.5,-105"/>
<text text-anchor="start" x="1023.5" y="-187.8" font-family="Times,serif" font-size="14.00">0x804c6b5:</text>
<text text-anchor="start" x="1023.5" y="-172.8" font-family="Times,serif" font-size="14.00"> g1 = v6</text>
<text text-anchor="start" x="1023.5" y="-157.8" font-family="Times,serif" font-size="14.00"> g3 = v3</text>
<text text-anchor="start" x="1023.5" y="-142.8" font-family="Times,serif" font-size="14.00"> g7 = v2</text>
<text text-anchor="start" x="1023.5" y="-127.8" font-family="Times,serif" font-size="14.00"> g5 = v1</text>
<text text-anchor="start" x="1023.5" y="-112.8" font-family="Times,serif" font-size="14.00"> return g4</text>
</g>
<!-- Node0x1954b440&#45;&gt;Node0x198ccbf0 -->
<g id="edge8" class="edge"><title>Node0x1954b440&#45;&gt;Node0x198ccbf0</title>
<path fill="none" stroke="black" d="M1221.76,-2315.43C1250.78,-2301.83 1282,-2279.52 1282,-2246.5 1282,-2246.5 1282,-2246.5 1282,-280.5 1282,-208.25 1190.53,-176.888 1126.64,-163.793"/>
<polygon fill="black" stroke="black" points="1127.13,-160.322 1116.64,-161.845 1125.79,-167.193 1127.13,-160.322"/>
<text text-anchor="middle" x="1309" y="-1489.3" font-family="Times,serif" font-size="14.00">v5 != 0</text>
</g>
<!-- Node0x198cc8a0 -->
<g id="node10" class="node"><title>Node0x198cc8a0</title>
<polygon fill="none" stroke="black" points="1124.5,-2153.5 1124.5,-2189.5 1221.5,-2189.5 1221.5,-2153.5 1124.5,-2153.5"/>
<text text-anchor="start" x="1132.5" y="-2167.8" font-family="Times,serif" font-size="14.00">while True:</text>
</g>
<!-- Node0x198ccd40&#45;&gt;Node0x198cc8a0 -->
<g id="edge9" class="edge"><title>Node0x198ccd40&#45;&gt;Node0x198cc8a0</title>
<path fill="none" stroke="black" d="M1173,-2227.44C1173,-2219.31 1173,-2209.38 1173,-2200.2"/>
<polygon fill="black" stroke="black" points="1176.5,-2199.94 1173,-2189.94 1169.5,-2199.94 1176.5,-2199.94"/>
</g>
<!-- Node0x198ccbf0&#45;&gt;Node0x198cc360 -->
<g id="edge10" class="edge"><title>Node0x198ccbf0&#45;&gt;Node0x198cc360</title>
<path fill="none" stroke="black" d="M1033.09,-104.906C1023.63,-94.4145 1012.45,-84.5142 1000,-78 953.992,-53.923 802.047,-45.9603 730.667,-43.5084"/>
<polygon fill="black" stroke="black" points="730.444,-39.9994 720.336,-43.1729 730.217,-46.9957 730.444,-39.9994"/>
</g>
<!-- Node0x198ccda0 -->
<g id="node11" class="node"><title>Node0x198ccda0</title>
<polygon fill="none" stroke="black" points="795.5,-2048.5 795.5,-2101.5 1132.5,-2101.5 1132.5,-2048.5 795.5,-2048.5"/>
<text text-anchor="start" x="803.5" y="-2086.3" font-family="Times,serif" font-size="14.00">v8 = PtrToIntCastExpr&lt;int32&gt;(a1)</text>
<text text-anchor="start" x="803.5" y="-2071.3" font-family="Times,serif" font-size="14.00"> v9 = *(IntToPtrCastExpr&lt;ptr&gt;((v8 + 212)))</text>
<text text-anchor="start" x="803.5" y="-2056.3" font-family="Times,serif" font-size="14.00"> g5 = v9</text>
</g>
<!-- Node0x198cc8a0&#45;&gt;Node0x198ccda0 -->
<g id="edge11" class="edge"><title>Node0x198cc8a0&#45;&gt;Node0x198ccda0</title>
<path fill="none" stroke="black" d="M1135.15,-2153.39C1105.78,-2140.11 1064.35,-2121.37 1029.61,-2105.67"/>
<polygon fill="black" stroke="black" points="1031.03,-2102.47 1020.47,-2101.53 1028.14,-2108.84 1031.03,-2102.47"/>
<text text-anchor="middle" x="1110" y="-2123.8" font-family="Times,serif" font-size="14.00">True</text>
</g>
<!-- Node0x198cce00 -->
<g id="node12" class="node"><title>Node0x198cce00</title>
<polygon fill="none" stroke="black" points="787.5,-1974.5 787.5,-2010.5 892.5,-2010.5 892.5,-1974.5 787.5,-1974.5"/>
<text text-anchor="start" x="795.5" y="-1988.8" font-family="Times,serif" font-size="14.00">if (v9 &gt;= 1):</text>
</g>
<!-- Node0x198ccda0&#45;&gt;Node0x198cce00 -->
<g id="edge12" class="edge"><title>Node0x198ccda0&#45;&gt;Node0x198cce00</title>
<path fill="none" stroke="black" d="M924.425,-2048.31C908.546,-2038 890.399,-2026.22 875.009,-2016.23"/>
<polygon fill="black" stroke="black" points="876.598,-2013.09 866.304,-2010.58 872.786,-2018.96 876.598,-2013.09"/>
</g>
<!-- Node0x198cd0c0 -->
<g id="node13" class="node"><title>Node0x198cd0c0</title>
<polygon fill="none" stroke="black" points="710.5,-1824.5 710.5,-1922.5 811.5,-1922.5 811.5,-1824.5 710.5,-1824.5"/>
<text text-anchor="start" x="718.5" y="-1907.3" font-family="Times,serif" font-size="14.00">0x804c66d:</text>
<text text-anchor="start" x="718.5" y="-1892.3" font-family="Times,serif" font-size="14.00"> g4 = 1</text>
<text text-anchor="start" x="718.5" y="-1877.3" font-family="Times,serif" font-size="14.00"> v10 = 1</text>
<text text-anchor="start" x="718.5" y="-1862.3" font-family="Times,serif" font-size="14.00"> v11 = 0</text>
<text text-anchor="start" x="718.5" y="-1847.3" font-family="Times,serif" font-size="14.00"> v12 = v8</text>
<text text-anchor="start" x="718.5" y="-1832.3" font-family="Times,serif" font-size="14.00"> v13</text>
</g>
<!-- Node0x198cce00&#45;&gt;Node0x198cd0c0 -->
<g id="edge13" class="edge"><title>Node0x198cce00&#45;&gt;Node0x198cd0c0</title>
<path fill="none" stroke="black" d="M787.269,-1974.97C778.939,-1970.13 771.33,-1963.92 766,-1956 761.386,-1949.14 758.614,-1941.18 757.084,-1932.98"/>
<polygon fill="black" stroke="black" points="760.536,-1932.38 755.795,-1922.91 753.593,-1933.27 760.536,-1932.38"/>
<text text-anchor="middle" x="796" y="-1944.8" font-family="Times,serif" font-size="14.00">v9 &gt;= 1</text>
</g>
<!-- Node0x198cd260 -->
<g id="node14" class="node"><title>Node0x198cd260</title>
<polygon fill="none" stroke="black" points="176.5,-790.5 176.5,-1068.5 779.5,-1068.5 779.5,-790.5 176.5,-790.5"/>
<text text-anchor="start" x="184.5" y="-1053.3" font-family="Times,serif" font-size="14.00">0x804c6c0:</text>
<text text-anchor="start" x="184.5" y="-1038.3" font-family="Times,serif" font-size="14.00"> v19</text>
<text text-anchor="start" x="184.5" y="-1023.3" font-family="Times,serif" font-size="14.00"> v20 = &amp;(v19)</text>
<text text-anchor="start" x="184.5" y="-1008.3" font-family="Times,serif" font-size="14.00"> g3 = v20</text>
<text text-anchor="start" x="184.5" y="-993.3" font-family="Times,serif" font-size="14.00"> g7 = 0</text>
<text text-anchor="start" x="184.5" y="-978.3" font-family="Times,serif" font-size="14.00"> g5 = v20</text>
<text text-anchor="start" x="184.5" y="-963.3" font-family="Times,serif" font-size="14.00"> memset(BitCastExpr&lt;ptr&gt;(&amp;(v19)), 0, 16)</text>
<text text-anchor="start" x="184.5" y="-948.3" font-family="Times,serif" font-size="14.00"> v21</text>
<text text-anchor="start" x="184.5" y="-933.3" font-family="Times,serif" font-size="14.00"> mbedtls_sha512_finish(BitCastExpr&lt;ptr&gt;(a1), IntToPtrCastExpr&lt;ptr&gt;(g3), v21)</text>
<text text-anchor="start" x="184.5" y="-918.3" font-family="Times,serif" font-size="14.00"> g5 = PtrToIntCastExpr&lt;int32&gt;(a1)</text>
<text text-anchor="start" x="184.5" y="-903.3" font-family="Times,serif" font-size="14.00"> memset(a1, g7, 53)</text>
<text text-anchor="start" x="184.5" y="-888.3" font-family="Times,serif" font-size="14.00"> mbedtls_sha512_starts(BitCastExpr&lt;ptr&gt;(a1), 0)</text>
<text text-anchor="start" x="184.5" y="-873.3" font-family="Times,serif" font-size="14.00"> g1 = PtrToIntCastExpr&lt;int32&gt;(a1)</text>
<text text-anchor="start" x="184.5" y="-858.3" font-family="Times,serif" font-size="14.00"> mbedtls_sha512_update(a1, IntToPtrCastExpr&lt;ptr&gt;(g3), 64)</text>
<text text-anchor="start" x="184.5" y="-843.3" font-family="Times,serif" font-size="14.00"> v22 = g3</text>
<text text-anchor="start" x="184.5" y="-828.3" font-family="Times,serif" font-size="14.00"> mbedtls_sha512(v22, 64, v22, 0)</text>
<text text-anchor="start" x="184.5" y="-813.3" font-family="Times,serif" font-size="14.00"> v23 = PtrToIntCastExpr&lt;int32&gt;(a1)</text>
<text text-anchor="start" x="184.5" y="-798.3" font-family="Times,serif" font-size="14.00"> v24 = *(IntToPtrCastExpr&lt;ptr&gt;((v23 + 212)))</text>
</g>
<!-- Node0x198cce00&#45;&gt;Node0x198cd260 -->
<g id="edge14" class="edge"><title>Node0x198cce00&#45;&gt;Node0x198cd260</title>
<path fill="none" stroke="black" d="M840,-1974.45C840,-1951.67 840,-1910.05 840,-1874.5 840,-1874.5 840,-1874.5 840,-1138.5 840,-1114.78 841.404,-1105.04 826,-1087 825.318,-1086.2 811.223,-1079.57 789.062,-1069.44"/>
<polygon fill="black" stroke="black" points="790.374,-1066.19 779.823,-1065.23 787.471,-1072.56 790.374,-1066.19"/>
<text text-anchor="middle" x="864" y="-1489.3" font-family="Times,serif" font-size="14.00">v9 &lt; 1</text>
</g>
<!-- Node0x198cdec0 -->
<g id="node15" class="node"><title>Node0x198cdec0</title>
<polygon fill="none" stroke="black" points="712.5,-1750.5 712.5,-1786.5 809.5,-1786.5 809.5,-1750.5 712.5,-1750.5"/>
<text text-anchor="start" x="720.5" y="-1764.8" font-family="Times,serif" font-size="14.00">while True:</text>
</g>
<!-- Node0x198cd0c0&#45;&gt;Node0x198cdec0 -->
<g id="edge15" class="edge"><title>Node0x198cd0c0&#45;&gt;Node0x198cdec0</title>
<path fill="none" stroke="black" d="M761,-1824.32C761,-1814.89 761,-1805.32 761,-1796.87"/>
<polygon fill="black" stroke="black" points="764.5,-1796.86 761,-1786.86 757.5,-1796.86 764.5,-1796.86"/>
</g>
<!-- Node0x198cd2c0 -->
<g id="node16" class="node"><title>Node0x198cd2c0</title>
<polygon fill="none" stroke="black" points="396,-694 396,-730 498,-730 498,-694 396,-694"/>
<text text-anchor="start" x="404" y="-708.3" font-family="Times,serif" font-size="14.00">if (v24 &lt; 1):</text>
</g>
<!-- Node0x198cd260&#45;&gt;Node0x198cd2c0 -->
<g id="edge16" class="edge"><title>Node0x198cd260&#45;&gt;Node0x198cd2c0</title>
<path fill="none" stroke="black" d="M458.148,-790.496C455.404,-771.42 452.858,-753.721 450.894,-740.068"/>
<polygon fill="black" stroke="black" points="454.339,-739.436 449.451,-730.036 447.41,-740.432 454.339,-739.436"/>
</g>
<!-- Node0x198ce580 -->
<g id="node17" class="node"><title>Node0x198ce580</title>
<polygon fill="none" stroke="black" points="350,-1645.5 350,-1698.5 700,-1698.5 700,-1645.5 350,-1645.5"/>
<text text-anchor="start" x="358" y="-1683.3" font-family="Times,serif" font-size="14.00">v14 = *(IntToPtrCastExpr&lt;ptr&gt;((v12 + 224)))</text>
<text text-anchor="start" x="358" y="-1668.3" font-family="Times,serif" font-size="14.00"> g7 = v14</text>
<text text-anchor="start" x="358" y="-1653.3" font-family="Times,serif" font-size="14.00"> v13 = v10</text>
</g>
<!-- Node0x198cdec0&#45;&gt;Node0x198ce580 -->
<g id="edge17" class="edge"><title>Node0x198cdec0&#45;&gt;Node0x198ce580</title>
<path fill="none" stroke="black" d="M718.535,-1750.5C685.118,-1737.12 637.758,-1718.15 598.252,-1702.33"/>
<polygon fill="black" stroke="black" points="599.498,-1699.06 588.914,-1698.59 596.896,-1705.56 599.498,-1699.06"/>
<text text-anchor="middle" x="689" y="-1720.8" font-family="Times,serif" font-size="14.00">True</text>
</g>
<!-- Node0x198ce2a0 -->
<g id="node18" class="node"><title>Node0x198ce2a0</title>
<polygon fill="none" stroke="black" points="15,-319.5 15,-432.5 545,-432.5 545,-319.5 15,-319.5"/>
<text text-anchor="start" x="23" y="-417.3" font-family="Times,serif" font-size="14.00">0x804c75c:</text>
<text text-anchor="start" x="23" y="-402.3" font-family="Times,serif" font-size="14.00"> memcpy(IntToPtrCastExpr&lt;ptr&gt;(a2), IntToPtrCastExpr&lt;ptr&gt;(g3), a3)</text>
<text text-anchor="start" x="23" y="-387.3" font-family="Times,serif" font-size="14.00"> g1 = 0</text>
<text text-anchor="start" x="23" y="-372.3" font-family="Times,serif" font-size="14.00"> g3 = v3</text>
<text text-anchor="start" x="23" y="-357.3" font-family="Times,serif" font-size="14.00"> g7 = v2</text>
<text text-anchor="start" x="23" y="-342.3" font-family="Times,serif" font-size="14.00"> g5 = v1</text>
<text text-anchor="start" x="23" y="-327.3" font-family="Times,serif" font-size="14.00"> return g4</text>
</g>
<!-- Node0x198cd2c0&#45;&gt;Node0x198ce2a0 -->
<g id="edge18" class="edge"><title>Node0x198cd2c0&#45;&gt;Node0x198ce2a0</title>
<path fill="none" stroke="black" d="M428.346,-693.764C420.749,-686.082 412.294,-676.607 406,-667 359.026,-595.302 322.479,-503.178 301.115,-442.219"/>
<polygon fill="black" stroke="black" points="304.401,-441.012 297.817,-432.711 297.787,-443.306 304.401,-441.012"/>
<text text-anchor="middle" x="434.5" y="-613.8" font-family="Times,serif" font-size="14.00">v24 &lt; 1</text>
</g>
<!-- Node0x198ccfd0 -->
<g id="node19" class="node"><title>Node0x198ccfd0</title>
<polygon fill="none" stroke="black" points="370,-451.5 370,-549.5 708,-549.5 708,-451.5 370,-451.5"/>
<text text-anchor="start" x="378" y="-534.3" font-family="Times,serif" font-size="14.00">0x804c73e:</text>
<text text-anchor="start" x="378" y="-519.3" font-family="Times,serif" font-size="14.00"> g4 = v23</text>
<text text-anchor="start" x="378" y="-504.3" font-family="Times,serif" font-size="14.00"> *(IntToPtrCastExpr&lt;ptr&gt;((v23 + 224))) = 0</text>
<text text-anchor="start" x="378" y="-489.3" font-family="Times,serif" font-size="14.00"> v25 = (g4 + 20)</text>
<text text-anchor="start" x="378" y="-474.3" font-family="Times,serif" font-size="14.00"> g4 = v25</text>
<text text-anchor="start" x="378" y="-459.3" font-family="Times,serif" font-size="14.00"> v26 = 1</text>
</g>
<!-- Node0x198cd2c0&#45;&gt;Node0x198ccfd0 -->
<g id="edge19" class="edge"><title>Node0x198cd2c0&#45;&gt;Node0x198ccfd0</title>
<path fill="none" stroke="black" d="M454.529,-693.856C467.309,-664.752 493.802,-604.424 513.731,-559.043"/>
<polygon fill="black" stroke="black" points="517.06,-560.166 517.876,-549.603 510.651,-557.351 517.06,-560.166"/>
<text text-anchor="middle" x="544.5" y="-613.8" font-family="Times,serif" font-size="14.00">v24 &gt;= 1</text>
</g>
<!-- Node0x198ce6a0 -->
<g id="node20" class="node"><title>Node0x198ce6a0</title>
<polygon fill="none" stroke="black" points="213,-1571.5 213,-1607.5 593,-1607.5 593,-1571.5 213,-1571.5"/>
<text text-anchor="start" x="221" y="-1585.8" font-family="Times,serif" font-size="14.00">if (v14 &lt; *(IntToPtrCastExpr&lt;ptr&gt;((v12 + 228)))):</text>
</g>
<!-- Node0x198ce580&#45;&gt;Node0x198ce6a0 -->
<g id="edge20" class="edge"><title>Node0x198ce580&#45;&gt;Node0x198ce6a0</title>
<path fill="none" stroke="black" d="M486.063,-1645.31C470.44,-1635 452.586,-1623.22 437.444,-1613.23"/>
<polygon fill="black" stroke="black" points="439.154,-1610.16 428.88,-1607.58 435.299,-1616.01 439.154,-1610.16"/>
</g>
<!-- Node0x198ce2a0&#45;&gt;Node0x198cc360 -->
<g id="edge21" class="edge"><title>Node0x198ce2a0&#45;&gt;Node0x198cc360</title>
<path fill="none" stroke="black" d="M168.491,-319.346C127.506,-292.644 85.619,-256.447 63,-211 40.4245,-165.641 28.7519,-134.339 63,-97 103.195,-53.1781 526.601,-44.4948 655.786,-42.8609"/>
<polygon fill="black" stroke="black" points="656.011,-46.3586 665.969,-42.7392 655.928,-39.3591 656.011,-46.3586"/>
</g>
<!-- Node0x198cd430 -->
<g id="node21" class="node"><title>Node0x198cd430</title>
<polygon fill="none" stroke="black" points="429,-263.5 429,-299.5 577,-299.5 577,-263.5 429,-263.5"/>
<text text-anchor="start" x="437" y="-277.8" font-family="Times,serif" font-size="14.00">while (v26 &lt; v24):</text>
</g>
<!-- Node0x198ccfd0&#45;&gt;Node0x198cd430 -->
<g id="edge22" class="edge"><title>Node0x198ccfd0&#45;&gt;Node0x198cd430</title>
<path fill="none" stroke="black" d="M552.419,-451.177C560.251,-413.417 565.232,-360.551 546,-319 543.949,-314.568 541.064,-310.477 537.75,-306.764"/>
<polygon fill="black" stroke="black" points="540.078,-304.146 530.47,-299.681 535.197,-309.163 540.078,-304.146"/>
</g>
<!-- Node0xe79db90 -->
<g id="node22" class="node"><title>Node0xe79db90</title>
<polygon fill="none" stroke="black" points="150.5,-1466.5 150.5,-1519.5 245.5,-1519.5 245.5,-1466.5 150.5,-1466.5"/>
<text text-anchor="start" x="158.5" y="-1504.3" font-family="Times,serif" font-size="14.00">v15 = g3</text>
<text text-anchor="start" x="158.5" y="-1489.3" font-family="Times,serif" font-size="14.00"> g4 = v15</text>
<text text-anchor="start" x="158.5" y="-1474.3" font-family="Times,serif" font-size="14.00"> v13 = v15</text>
</g>
<!-- Node0x198ce6a0&#45;&gt;Node0xe79db90 -->
<g id="edge23" class="edge"><title>Node0x198ce6a0&#45;&gt;Node0xe79db90</title>
<path fill="none" stroke="black" d="M212.744,-1579.81C137.807,-1574.4 66.6774,-1565.93 55,-1553 26.3109,-1521.24 88.7669,-1506.15 140.001,-1499.3"/>
<polygon fill="black" stroke="black" points="140.582,-1502.75 150.068,-1498.03 139.71,-1495.8 140.582,-1502.75"/>
<text text-anchor="middle" x="222" y="-1541.8" font-family="Times,serif" font-size="14.00">v14 &lt; *(IntToPtrCastExpr&lt;ptr&gt;((v12 + 228)))</text>
</g>
<!-- Node0x198cea80 -->
<g id="node23" class="node"><title>Node0x198cea80</title>
<polygon fill="none" stroke="black" points="331,-1375.5 331,-1428.5 475,-1428.5 475,-1375.5 331,-1375.5"/>
<text text-anchor="start" x="339" y="-1413.3" font-family="Times,serif" font-size="14.00">v16 = (v11 + 1)</text>
<text text-anchor="start" x="339" y="-1398.3" font-family="Times,serif" font-size="14.00"> g6 = v16</text>
<text text-anchor="start" x="339" y="-1383.3" font-family="Times,serif" font-size="14.00"> v17 = (v12 + 20)</text>
</g>
<!-- Node0x198ce6a0&#45;&gt;Node0x198cea80 -->
<g id="edge24" class="edge"><title>Node0x198ce6a0&#45;&gt;Node0x198cea80</title>
<path fill="none" stroke="black" d="M403,-1571.38C403,-1541.33 403,-1478.5 403,-1438.66"/>
<polygon fill="black" stroke="black" points="406.5,-1438.57 403,-1428.57 399.5,-1438.57 406.5,-1438.57"/>
<text text-anchor="middle" x="576" y="-1489.3" font-family="Times,serif" font-size="14.00">v14 &gt;= *(IntToPtrCastExpr&lt;ptr&gt;((v12 + 228)))</text>
</g>
<!-- Node0x198ce3c0 -->
<g id="node24" class="node"><title>Node0x198ce3c0</title>
<polygon fill="none" stroke="black" points="72,-112.5 72,-195.5 410,-195.5 410,-112.5 72,-112.5"/>
<text text-anchor="start" x="80" y="-180.3" font-family="Times,serif" font-size="14.00">0x804c748:</text>
<text text-anchor="start" x="80" y="-165.3" font-family="Times,serif" font-size="14.00"> *(IntToPtrCastExpr&lt;ptr&gt;((v25 + 224))) = 0</text>
<text text-anchor="start" x="80" y="-150.3" font-family="Times,serif" font-size="14.00"> v25 = (g4 + 20)</text>
<text text-anchor="start" x="80" y="-135.3" font-family="Times,serif" font-size="14.00"> g4 = v25</text>
<text text-anchor="start" x="80" y="-120.3" font-family="Times,serif" font-size="14.00"> v26 = (v26 + 1)</text>
</g>
<!-- Node0x198cd430&#45;&gt;Node0x198ce3c0 -->
<g id="edge25" class="edge"><title>Node0x198cd430&#45;&gt;Node0x198ce3c0</title>
<path fill="none" stroke="black" d="M428.806,-277.474C392.722,-273.246 349.929,-263.956 316,-244 299.1,-234.06 284.237,-218.87 272.294,-203.836"/>
<polygon fill="black" stroke="black" points="274.811,-201.365 265.965,-195.535 269.244,-205.609 274.811,-201.365"/>
<text text-anchor="middle" x="353" y="-232.8" font-family="Times,serif" font-size="14.00">v26 &lt; v24</text>
</g>
<!-- Node0x198cdb40 -->
<g id="node25" class="node"><title>Node0x198cdb40</title>
<polygon fill="none" stroke="black" points="428,-97.5 428,-210.5 958,-210.5 958,-97.5 428,-97.5"/>
<text text-anchor="start" x="436" y="-195.3" font-family="Times,serif" font-size="14.00">0x804c75c:</text>
<text text-anchor="start" x="436" y="-180.3" font-family="Times,serif" font-size="14.00"> memcpy(IntToPtrCastExpr&lt;ptr&gt;(a2), IntToPtrCastExpr&lt;ptr&gt;(g3), a3)</text>
<text text-anchor="start" x="436" y="-165.3" font-family="Times,serif" font-size="14.00"> g1 = 0</text>
<text text-anchor="start" x="436" y="-150.3" font-family="Times,serif" font-size="14.00"> g3 = v3</text>
<text text-anchor="start" x="436" y="-135.3" font-family="Times,serif" font-size="14.00"> g7 = v2</text>
<text text-anchor="start" x="436" y="-120.3" font-family="Times,serif" font-size="14.00"> g5 = v1</text>
<text text-anchor="start" x="436" y="-105.3" font-family="Times,serif" font-size="14.00"> return g4</text>
</g>
<!-- Node0x198cd430&#45;&gt;Node0x198cdb40 -->
<g id="edge26" class="edge"><title>Node0x198cd430&#45;&gt;Node0x198cdb40</title>
<path fill="none" stroke="black" d="M529.02,-263.313C547.729,-250.955 574.181,-233.483 600.39,-216.171"/>
<polygon fill="black" stroke="black" points="602.466,-218.995 608.881,-210.563 598.608,-213.154 602.466,-218.995"/>
<text text-anchor="middle" x="619" y="-232.8" font-family="Times,serif" font-size="14.00">v26 &gt;= v24</text>
</g>
<!-- Node0xe79db90&#45;&gt;Node0x198cea80 -->
<g id="edge27" class="edge"><title>Node0xe79db90&#45;&gt;Node0x198cea80</title>
<path fill="none" stroke="black" d="M245.546,-1471.36C272.015,-1459.87 305.425,-1445.36 334.652,-1432.67"/>
<polygon fill="black" stroke="black" points="336.202,-1435.82 343.981,-1428.62 333.414,-1429.4 336.202,-1435.82"/>
</g>
<!-- Node0x198ceb30 -->
<g id="node26" class="node"><title>Node0x198ceb30</title>
<polygon fill="none" stroke="black" points="461,-1301.5 461,-1337.5 583,-1337.5 583,-1301.5 461,-1301.5"/>
<text text-anchor="start" x="469" y="-1315.8" font-family="Times,serif" font-size="14.00">if (v16 == v9):</text>
</g>
<!-- Node0x198cea80&#45;&gt;Node0x198ceb30 -->
<g id="edge28" class="edge"><title>Node0x198cea80&#45;&gt;Node0x198ceb30</title>
<path fill="none" stroke="black" d="M440.98,-1375.31C456.218,-1365 473.633,-1353.22 488.403,-1343.23"/>
<polygon fill="black" stroke="black" points="490.435,-1346.08 496.756,-1337.58 486.512,-1340.28 490.435,-1346.08"/>
</g>
<!-- Node0x198ce3c0&#45;&gt;Node0x198cd430 -->
<g id="edge29" class="edge"><title>Node0x198ce3c0&#45;&gt;Node0x198cd430</title>
<path fill="none" stroke="black" d="M325.662,-195.554C369.711,-216.654 421.784,-241.597 458.063,-258.975"/>
<polygon fill="black" stroke="black" points="456.862,-262.28 467.393,-263.444 459.886,-255.967 456.862,-262.28"/>
</g>
<!-- Node0x198cdb40&#45;&gt;Node0x198cc360 -->
<g id="edge30" class="edge"><title>Node0x198cdb40&#45;&gt;Node0x198cc360</title>
<path fill="none" stroke="black" d="M693,-97.4263C693,-87.8599 693,-78.3065 693,-69.9133"/>
<polygon fill="black" stroke="black" points="696.5,-69.6444 693,-59.6444 689.5,-69.6444 696.5,-69.6444"/>
</g>
<!-- Node0x1954c770 -->
<g id="node27" class="node"><title>Node0x1954c770</title>
<polygon fill="none" stroke="black" points="438.5,-1204 438.5,-1242 605.5,-1242 605.5,-1204 438.5,-1204"/>
<text text-anchor="start" x="446.5" y="-1226.8" font-family="Times,serif" font-size="14.00">break &#45;&gt; 0x804c691:</text>
<text text-anchor="start" x="446.5" y="-1211.8" font-family="Times,serif" font-size="14.00"> break</text>
</g>
<!-- Node0x198ceb30&#45;&gt;Node0x1954c770 -->
<g id="edge31" class="edge"><title>Node0x198ceb30&#45;&gt;Node0x1954c770</title>
<path fill="none" stroke="black" d="M522,-1301.17C522,-1287.57 522,-1268.37 522,-1252.52"/>
<polygon fill="black" stroke="black" points="525.5,-1252.19 522,-1242.19 518.5,-1252.19 525.5,-1252.19"/>
<text text-anchor="middle" x="560.5" y="-1271.8" font-family="Times,serif" font-size="14.00">v16 == v9</text>
</g>
<!-- Node0x198cec30 -->
<g id="node28" class="node"><title>Node0x198cec30</title>
<polygon fill="none" stroke="black" points="686.5,-1196.5 686.5,-1249.5 781.5,-1249.5 781.5,-1196.5 686.5,-1196.5"/>
<text text-anchor="start" x="694.5" y="-1234.3" font-family="Times,serif" font-size="14.00">v10 = v13</text>
<text text-anchor="start" x="694.5" y="-1219.3" font-family="Times,serif" font-size="14.00"> v11 = v16</text>
<text text-anchor="start" x="694.5" y="-1204.3" font-family="Times,serif" font-size="14.00"> v12 = v17</text>
</g>
<!-- Node0x198ceb30&#45;&gt;Node0x198cec30 -->
<g id="edge32" class="edge"><title>Node0x198ceb30&#45;&gt;Node0x198cec30</title>
<path fill="none" stroke="black" d="M561.174,-1301.43C574.464,-1295.61 589.39,-1289.05 603,-1283 627.342,-1272.18 654.17,-1260.13 677.175,-1249.74"/>
<polygon fill="black" stroke="black" points="678.777,-1252.86 686.45,-1245.55 675.895,-1246.48 678.777,-1252.86"/>
<text text-anchor="middle" x="671.5" y="-1271.8" font-family="Times,serif" font-size="14.00">v16 != v9</text>
</g>
<!-- Node0x198cdfb0 -->
<g id="node29" class="node"><title>Node0x198cdfb0</title>
<polygon fill="none" stroke="black" points="462.5,-1120.5 462.5,-1158.5 581.5,-1158.5 581.5,-1120.5 462.5,-1120.5"/>
<text text-anchor="start" x="470.5" y="-1143.3" font-family="Times,serif" font-size="14.00">0x804c691:</text>
<text text-anchor="start" x="470.5" y="-1128.3" font-family="Times,serif" font-size="14.00"> if (v13 == 0):</text>
</g>
<!-- Node0x1954c770&#45;&gt;Node0x198cdfb0 -->
<g id="edge33" class="edge"><title>Node0x1954c770&#45;&gt;Node0x198cdfb0</title>
<path fill="none" stroke="black" d="M522,-1203.91C522,-1193.57 522,-1180.38 522,-1168.7"/>
<polygon fill="black" stroke="black" points="525.5,-1168.54 522,-1158.54 518.5,-1168.54 525.5,-1168.54"/>
</g>
<!-- Node0x198cec30&#45;&gt;Node0x198cdec0 -->
<g id="edge34" class="edge"><title>Node0x198cec30&#45;&gt;Node0x198cdec0</title>
<path fill="none" stroke="black" d="M752.986,-1249.87C764.505,-1268.11 777,-1293.63 777,-1318.5 777,-1673 777,-1673 777,-1673 777,-1695.92 772.368,-1721.53 768.089,-1740.3"/>
<polygon fill="black" stroke="black" points="764.637,-1739.69 765.714,-1750.23 771.445,-1741.32 764.637,-1739.69"/>
</g>
<!-- Node0x198cdfb0&#45;&gt;Node0x198cd260 -->
<g id="edge36" class="edge"><title>Node0x198cdfb0&#45;&gt;Node0x198cd260</title>
<path fill="none" stroke="black" d="M518.172,-1120.41C515.918,-1109.75 512.831,-1095.15 509.362,-1078.76"/>
<polygon fill="black" stroke="black" points="512.773,-1077.97 507.279,-1068.91 505.925,-1079.42 512.773,-1077.97"/>
<text text-anchor="middle" x="545.5" y="-1090.8" font-family="Times,serif" font-size="14.00">v13 != 0</text>
</g>
<!-- Node0x198cee10 -->
<g id="node30" class="node"><title>Node0x198cee10</title>
<polygon fill="none" stroke="black" points="798,-910.5 798,-948.5 926,-948.5 926,-910.5 798,-910.5"/>
<text text-anchor="start" x="806" y="-933.3" font-family="Times,serif" font-size="14.00">0x804c695:</text>
<text text-anchor="start" x="806" y="-918.3" font-family="Times,serif" font-size="14.00"> if (v7 == 257):</text>
</g>
<!-- Node0x198cdfb0&#45;&gt;Node0x198cee10 -->
<g id="edge35" class="edge"><title>Node0x198cdfb0&#45;&gt;Node0x198cee10</title>
<path fill="none" stroke="black" d="M581.688,-1136.39C639.955,-1131.47 728.318,-1116.07 788,-1069 823.77,-1040.79 844.373,-990.391 854.368,-958.795"/>
<polygon fill="black" stroke="black" points="857.828,-959.444 857.358,-948.859 851.125,-957.427 857.828,-959.444"/>
<text text-anchor="middle" x="792.5" y="-1090.8" font-family="Times,serif" font-size="14.00">v13 == 0</text>
</g>
<!-- Node0x1954c800 -->
<g id="node31" class="node"><title>Node0x1954c800</title>
<polygon fill="none" stroke="black" points="758.5,-568.5 758.5,-666.5 859.5,-666.5 859.5,-568.5 758.5,-568.5"/>
<text text-anchor="start" x="766.5" y="-651.3" font-family="Times,serif" font-size="14.00">0x804c77d:</text>
<text text-anchor="start" x="766.5" y="-636.3" font-family="Times,serif" font-size="14.00"> g1 = &#45;60</text>
<text text-anchor="start" x="766.5" y="-621.3" font-family="Times,serif" font-size="14.00"> g3 = v3</text>
<text text-anchor="start" x="766.5" y="-606.3" font-family="Times,serif" font-size="14.00"> g7 = v2</text>
<text text-anchor="start" x="766.5" y="-591.3" font-family="Times,serif" font-size="14.00"> g5 = v1</text>
<text text-anchor="start" x="766.5" y="-576.3" font-family="Times,serif" font-size="14.00"> return 0</text>
</g>
<!-- Node0x198cee10&#45;&gt;Node0x1954c800 -->
<g id="edge37" class="edge"><title>Node0x198cee10&#45;&gt;Node0x1954c800</title>
<path fill="none" stroke="black" d="M857.659,-910.405C849.471,-880.39 828.785,-820.587 788,-790 699.716,-723.79 614.557,-824.671 545,-739 529.872,-720.368 530.247,-703.93 545,-685 557.591,-668.844 674.178,-644.076 748.149,-629.768"/>
<polygon fill="black" stroke="black" points="749.128,-633.143 758.288,-627.82 747.807,-626.269 749.128,-633.143"/>
<text text-anchor="middle" x="794" y="-760.8" font-family="Times,serif" font-size="14.00">v7 == 257</text>
</g>
<!-- Node0x198cef90 -->
<g id="node32" class="node"><title>Node0x198cef90</title>
<polygon fill="none" stroke="black" points="554.5,-685.5 554.5,-738.5 1207.5,-738.5 1207.5,-685.5 554.5,-685.5"/>
<text text-anchor="start" x="562.5" y="-723.3" font-family="Times,serif" font-size="14.00">0x804c6a2:</text>
<text text-anchor="start" x="562.5" y="-708.3" font-family="Times,serif" font-size="14.00"> g1 = v8</text>
<text text-anchor="start" x="562.5" y="-693.3" font-family="Times,serif" font-size="14.00"> v18 = entropy_gather_internal(PtrToIntCastExpr&lt;int32&gt;(IntToPtrCastExpr&lt;ptr&gt;(v4)))</text>
</g>
<!-- Node0x198cee10&#45;&gt;Node0x198cef90 -->
<g id="edge38" class="edge"><title>Node0x198cee10&#45;&gt;Node0x198cef90</title>
<path fill="none" stroke="black" d="M863.587,-910.497C866.715,-875.023 873.727,-795.492 877.835,-748.898"/>
<polygon fill="black" stroke="black" points="881.347,-748.914 878.739,-738.645 874.374,-748.299 881.347,-748.914"/>
<text text-anchor="middle" x="913" y="-760.8" font-family="Times,serif" font-size="14.00">v7 != 257</text>
</g>
<!-- Node0x1954c800&#45;&gt;Node0x198cc360 -->
<g id="edge39" class="edge"><title>Node0x1954c800&#45;&gt;Node0x198cc360</title>
<path fill="none" stroke="black" d="M859.721,-579.95C912.024,-537.596 986,-462.568 986,-377 986,-377 986,-377 986,-153 986,-126.718 986.759,-114.331 967,-97 932.216,-66.4905 797.087,-51.1855 730.505,-45.3682"/>
<polygon fill="black" stroke="black" points="730.693,-41.8717 720.433,-44.5151 730.102,-48.8467 730.693,-41.8717"/>
</g>
<!-- Node0x198cf070 -->
<g id="node33" class="node"><title>Node0x198cf070</title>
<polygon fill="none" stroke="black" points="1014,-482.5 1014,-518.5 1122,-518.5 1122,-482.5 1014,-482.5"/>
<text text-anchor="start" x="1022" y="-496.8" font-family="Times,serif" font-size="14.00">if (v18 != 0):</text>
</g>
<!-- Node0x198cef90&#45;&gt;Node0x198cf070 -->
<g id="edge40" class="edge"><title>Node0x198cef90&#45;&gt;Node0x198cf070</title>
<path fill="none" stroke="black" d="M903.93,-685.311C940.153,-644.73 1010.16,-566.299 1045.88,-526.287"/>
<polygon fill="black" stroke="black" points="1048.7,-528.38 1052.75,-518.589 1043.48,-523.718 1048.7,-528.38"/>
</g>
<!-- Node0x198cfb70 -->
<g id="node34" class="node"><title>Node0x198cfb70</title>
<polygon fill="none" stroke="black" points="1025.5,-262.5 1025.5,-300.5 1106.5,-300.5 1106.5,-262.5 1025.5,-262.5"/>
<text text-anchor="start" x="1033.5" y="-285.3" font-family="Times,serif" font-size="14.00">v6 = v18</text>
<text text-anchor="start" x="1033.5" y="-270.3" font-family="Times,serif" font-size="14.00"> break</text>
</g>
<!-- Node0x198cf070&#45;&gt;Node0x198cfb70 -->
<g id="edge41" class="edge"><title>Node0x198cf070&#45;&gt;Node0x198cfb70</title>
<path fill="none" stroke="black" d="M1067.7,-482.277C1067.48,-468.852 1067.18,-449.741 1067,-433 1066.54,-390.416 1066.26,-341.052 1066.12,-310.802"/>
<polygon fill="black" stroke="black" points="1069.62,-310.554 1066.07,-300.57 1062.62,-310.586 1069.62,-310.554"/>
<text text-anchor="middle" x="1098.5" y="-372.3" font-family="Times,serif" font-size="14.00">v18 != 0</text>
</g>
<!-- Node0x198cf1f0 -->
<g id="node35" class="node"><title>Node0x198cf1f0</title>
<polygon fill="none" stroke="black" points="1132.5,-262.5 1132.5,-300.5 1245.5,-300.5 1245.5,-262.5 1132.5,-262.5"/>
<text text-anchor="start" x="1140.5" y="-285.3" font-family="Times,serif" font-size="14.00">v7 = (v7 + 1)</text>
<text text-anchor="start" x="1140.5" y="-270.3" font-family="Times,serif" font-size="14.00"> continue</text>
</g>
<!-- Node0x198cf070&#45;&gt;Node0x198cf1f0 -->
<g id="edge42" class="edge"><title>Node0x198cf070&#45;&gt;Node0x198cf1f0</title>
<path fill="none" stroke="black" d="M1089.03,-482.487C1102.8,-470.184 1120.04,-452.374 1130,-433 1153.63,-387.028 1128.73,-364.635 1153,-319 1154.97,-315.287 1157.45,-311.701 1160.17,-308.322"/>
<polygon fill="black" stroke="black" points="1162.79,-310.64 1166.84,-300.85 1157.57,-305.977 1162.79,-310.64"/>
<text text-anchor="middle" x="1187.5" y="-372.3" font-family="Times,serif" font-size="14.00">v18 == 0</text>
</g>
<!-- Node0x198cfb70&#45;&gt;Node0x198ccbf0 -->
<g id="edge43" class="edge"><title>Node0x198cfb70&#45;&gt;Node0x198ccbf0</title>
<path fill="none" stroke="black" d="M1066,-262.251C1066,-249.294 1066,-231.122 1066,-213.412"/>
<polygon fill="black" stroke="black" points="1069.5,-213.081 1066,-203.081 1062.5,-213.081 1069.5,-213.081"/>
</g>
<!-- Node0x198cf1f0&#45;&gt;Node0x198cc8a0 -->
<g id="edge44" class="edge"><title>Node0x198cf1f0&#45;&gt;Node0x198cc8a0</title>
<path fill="none" stroke="black" d="M1209.83,-300.862C1214.64,-306.212 1219.16,-312.408 1222,-319 1253.8,-392.914 1236,-419.037 1236,-499.5 1236,-2076 1236,-2076 1236,-2076 1236,-2103.02 1217.95,-2128.18 1201.18,-2145.74"/>
<polygon fill="black" stroke="black" points="1198.25,-2143.72 1193.63,-2153.25 1203.19,-2148.68 1198.25,-2143.72"/>
</g>
</g>
</svg>
