<?xml version="1.0" encoding="UTF-8" standalone="no"?>
<!DOCTYPE svg PUBLIC "-//W3C//DTD SVG 1.1//EN"
 "http://www.w3.org/Graphics/SVG/1.1/DTD/svg11.dtd">
<!-- Generated by graphviz version 2.38.0 (20140413.2041)
 -->
<!-- Title: Control&#45;flow graph for function &#39;mbedtls_oid_get_pk_alg(a1, *a2)&#39;. Pages: 1 -->
<svg width="1257pt" height="1329pt"
 viewBox="0.00 0.00 1256.50 1329.00" xmlns="http://www.w3.org/2000/svg" xmlns:xlink="http://www.w3.org/1999/xlink">
<g id="graph0" class="graph" transform="scale(1 1) rotate(0) translate(4 1325)">
<title>Control&#45;flow graph for function &#39;mbedtls_oid_get_pk_alg(a1, *a2)&#39;.</title>
<polygon fill="white" stroke="none" points="-4,4 -4,-1325 1252.5,-1325 1252.5,4 -4,4"/>
<text text-anchor="middle" x="624.25" y="-7.8" font-family="Times,serif" font-size="14.00">Control&#45;flow graph for function &#39;mbedtls_oid_get_pk_alg(a1, *a2)&#39;.</text>
<!-- Node0xaa30bf0 -->
<g id="node1" class="node"><title>Node0xaa30bf0</title>
<polygon fill="none" stroke="black" points="271,-1267.5 271,-1320.5 330,-1320.5 330,-1267.5 271,-1267.5"/>
<text text-anchor="start" x="279" y="-1305.3" font-family="Times,serif" font-size="14.00">entry:</text>
<text text-anchor="start" x="279" y="-1290.3" font-family="Times,serif" font-size="14.00"> a1</text>
<text text-anchor="start" x="279" y="-1275.3" font-family="Times,serif" font-size="14.00"> a2</text>
</g>
<!-- Node0x261b5a90 -->
<g id="node2" class="node"><title>Node0x261b5a90</title>
<polygon fill="none" stroke="black" points="264,-1193.5 264,-1229.5 337,-1229.5 337,-1193.5 264,-1193.5"/>
<text text-anchor="start" x="272" y="-1207.8" font-family="Times,serif" font-size="14.00">v1 = g3</text>
</g>
<!-- Node0xaa30bf0&#45;&gt;Node0x261b5a90 -->
<g id="edge1" class="edge"><title>Node0xaa30bf0&#45;&gt;Node0x261b5a90</title>
<path fill="none" stroke="black" d="M300.5,-1267.09C300.5,-1258.46 300.5,-1248.82 300.5,-1240.07"/>
<polygon fill="black" stroke="black" points="304,-1239.97 300.5,-1229.97 297,-1239.97 304,-1239.97"/>
</g>
<!-- Node0x14431370 -->
<g id="node3" class="node"><title>Node0x14431370</title>
<polygon fill="none" stroke="black" points="248,-1119.5 248,-1155.5 353,-1155.5 353,-1119.5 248,-1119.5"/>
<text text-anchor="start" x="256" y="-1133.8" font-family="Times,serif" font-size="14.00">if (a1 == 0):</text>
</g>
<!-- Node0x261b5a90&#45;&gt;Node0x14431370 -->
<g id="edge2" class="edge"><title>Node0x261b5a90&#45;&gt;Node0x14431370</title>
<path fill="none" stroke="black" d="M300.5,-1193.44C300.5,-1185.31 300.5,-1175.38 300.5,-1166.2"/>
<polygon fill="black" stroke="black" points="304,-1165.94 300.5,-1155.94 297,-1165.94 304,-1165.94"/>
</g>
<!-- Node0x14432140 -->
<g id="node4" class="node"><title>Node0x14432140</title>
<polygon fill="none" stroke="black" points="0,-912.5 0,-965.5 101,-965.5 101,-912.5 0,-912.5"/>
<text text-anchor="start" x="8" y="-950.3" font-family="Times,serif" font-size="14.00">0x8063380:</text>
<text text-anchor="start" x="8" y="-935.3" font-family="Times,serif" font-size="14.00"> g3 = v1</text>
<text text-anchor="start" x="8" y="-920.3" font-family="Times,serif" font-size="14.00"> return &#45;46</text>
</g>
<!-- Node0x14431370&#45;&gt;Node0x14432140 -->
<g id="edge3" class="edge"><title>Node0x14431370&#45;&gt;Node0x14432140</title>
<path fill="none" stroke="black" d="M278.751,-1119.41C236.943,-1086.54 144.767,-1014.09 91.2187,-972.005"/>
<polygon fill="black" stroke="black" points="93.3145,-969.2 83.2895,-965.773 88.9887,-974.704 93.3145,-969.2"/>
<text text-anchor="middle" x="285.5" y="-1089.8" font-family="Times,serif" font-size="14.00">a1 == 0</text>
</g>
<!-- Node0x14431ef0 -->
<g id="node5" class="node"><title>Node0x14431ef0</title>
<polygon fill="none" stroke="black" points="627.5,-984.5 627.5,-1067.5 945.5,-1067.5 945.5,-984.5 627.5,-984.5"/>
<text text-anchor="start" x="635.5" y="-1052.3" font-family="Times,serif" font-size="14.00">v2 = *(IntToPtrCastExpr&lt;ptr&gt;((a1 + 4)))</text>
<text text-anchor="start" x="635.5" y="-1037.3" font-family="Times,serif" font-size="14.00"> v3 = PtrToIntCastExpr&lt;int32&gt;(&amp;(g114))</text>
<text text-anchor="start" x="635.5" y="-1022.3" font-family="Times,serif" font-size="14.00"> str = &amp;(g108)</text>
<text text-anchor="start" x="635.5" y="-1007.3" font-family="Times,serif" font-size="14.00"> n = v2</text>
<text text-anchor="start" x="635.5" y="-992.3" font-family="Times,serif" font-size="14.00"> v4 = PtrToIntCastExpr&lt;int32&gt;(&amp;(g114))</text>
</g>
<!-- Node0x14431370&#45;&gt;Node0x14431ef0 -->
<g id="edge4" class="edge"><title>Node0x14431370&#45;&gt;Node0x14431ef0</title>
<path fill="none" stroke="black" d="M353.436,-1124.57C416.521,-1110.36 525.042,-1085.91 617.664,-1065.04"/>
<polygon fill="black" stroke="black" points="618.449,-1068.45 627.435,-1062.84 616.91,-1061.62 618.449,-1068.45"/>
<text text-anchor="middle" x="541.5" y="-1089.8" font-family="Times,serif" font-size="14.00">a1 != 0</text>
</g>
<!-- Node0xaa31a80 -->
<g id="node6" class="node"><title>Node0xaa31a80</title>
<polygon fill="none" stroke="black" points="461.5,-23.5 461.5,-59.5 515.5,-59.5 515.5,-23.5 461.5,-23.5"/>
<text text-anchor="start" x="469.5" y="-37.8" font-family="Times,serif" font-size="14.00">exit:</text>
</g>
<!-- Node0x14432140&#45;&gt;Node0xaa31a80 -->
<g id="edge5" class="edge"><title>Node0x14432140&#45;&gt;Node0xaa31a80</title>
<path fill="none" stroke="black" d="M32.3196,-912.462C19.4618,-891.885 4.5,-861.673 4.5,-832.5 4.5,-832.5 4.5,-832.5 4.5,-130.5 4.5,-85.1501 337.672,-54.4755 451.162,-45.3421"/>
<polygon fill="black" stroke="black" points="451.75,-48.8066 461.441,-44.5257 451.195,-41.8285 451.75,-48.8066"/>
</g>
<!-- Node0x144320c0 -->
<g id="node7" class="node"><title>Node0x144320c0</title>
<polygon fill="none" stroke="black" points="853,-857.5 853,-893.5 950,-893.5 950,-857.5 853,-857.5"/>
<text text-anchor="start" x="861" y="-871.8" font-family="Times,serif" font-size="14.00">while True:</text>
</g>
<!-- Node0x14431ef0&#45;&gt;Node0x144320c0 -->
<g id="edge6" class="edge"><title>Node0x14431ef0&#45;&gt;Node0x144320c0</title>
<path fill="none" stroke="black" d="M817.924,-984.422C838.328,-958.075 864.288,-924.552 881.82,-901.913"/>
<polygon fill="black" stroke="black" points="884.741,-903.857 888.097,-893.807 879.207,-899.571 884.741,-903.857"/>
</g>
<!-- Node0x14431e90 -->
<g id="node8" class="node"><title>Node0x14431e90</title>
<polygon fill="none" stroke="black" points="865.5,-769.5 865.5,-805.5 937.5,-805.5 937.5,-769.5 865.5,-769.5"/>
<text text-anchor="start" x="873.5" y="-783.8" font-family="Times,serif" font-size="14.00">v5 = v4</text>
</g>
<!-- Node0x144320c0&#45;&gt;Node0x14431e90 -->
<g id="edge7" class="edge"><title>Node0x144320c0&#45;&gt;Node0x14431e90</title>
<path fill="none" stroke="black" d="M901.5,-857.097C901.5,-845.246 901.5,-829.317 901.5,-815.792"/>
<polygon fill="black" stroke="black" points="905,-815.584 901.5,-805.584 898,-815.584 905,-815.584"/>
<text text-anchor="middle" x="918.5" y="-827.8" font-family="Times,serif" font-size="14.00">True</text>
</g>
<!-- Node0x14432370 -->
<g id="node9" class="node"><title>Node0x14432370</title>
<polygon fill="none" stroke="black" points="728,-695.5 728,-731.5 1075,-731.5 1075,-695.5 728,-695.5"/>
<text text-anchor="start" x="736" y="-709.8" font-family="Times,serif" font-size="14.00">if (n == *(IntToPtrCastExpr&lt;ptr&gt;((v4 + 4)))):</text>
</g>
<!-- Node0x14431e90&#45;&gt;Node0x14432370 -->
<g id="edge8" class="edge"><title>Node0x14431e90&#45;&gt;Node0x14432370</title>
<path fill="none" stroke="black" d="M901.5,-769.437C901.5,-761.307 901.5,-751.376 901.5,-742.205"/>
<polygon fill="black" stroke="black" points="905,-741.941 901.5,-731.941 898,-741.941 905,-741.941"/>
</g>
<!-- Node0x14432c80 -->
<g id="node10" class="node"><title>Node0x14432c80</title>
<polygon fill="none" stroke="black" points="32,-575.5 32,-643.5 897,-643.5 897,-575.5 32,-575.5"/>
<text text-anchor="start" x="40" y="-628.3" font-family="Times,serif" font-size="14.00">strncmp_rc = strncmp(IntToPtrCastExpr&lt;ptr&gt;(str), IntToPtrCastExpr&lt;ptr&gt;(*(IntToPtrCastExpr&lt;ptr&gt;((a1 + 8)))), n)</text>
<text text-anchor="start" x="40" y="-613.3" font-family="Times,serif" font-size="14.00"> g4 = strncmp_rc</text>
<text text-anchor="start" x="40" y="-598.3" font-family="Times,serif" font-size="14.00"> g237 = ((strncmp_rc % 2) == 0)</text>
<text text-anchor="start" x="40" y="-583.3" font-family="Times,serif" font-size="14.00"> v6 = v3</text>
</g>
<!-- Node0x14432370&#45;&gt;Node0x14432c80 -->
<g id="edge9" class="edge"><title>Node0x14432370&#45;&gt;Node0x14432c80</title>
<path fill="none" stroke="black" d="M727.746,-700.506C688.085,-695.279 646.455,-687.775 608.5,-677 583.36,-669.863 557.07,-658.879 533.937,-647.881"/>
<polygon fill="black" stroke="black" points="535.428,-644.714 524.902,-643.509 532.379,-651.015 535.428,-644.714"/>
<text text-anchor="middle" x="759.5" y="-665.8" font-family="Times,serif" font-size="14.00">n == *(IntToPtrCastExpr&lt;ptr&gt;((v4 + 4)))</text>
</g>
<!-- Node0x14432940 -->
<g id="node11" class="node"><title>Node0x14432940</title>
<polygon fill="none" stroke="black" points="771.5,-293.5 771.5,-361.5 1049.5,-361.5 1049.5,-293.5 771.5,-293.5"/>
<text text-anchor="start" x="779.5" y="-346.3" font-family="Times,serif" font-size="14.00">v7 = (v5 + 20)</text>
<text text-anchor="start" x="779.5" y="-331.3" font-family="Times,serif" font-size="14.00"> v3 = v7</text>
<text text-anchor="start" x="779.5" y="-316.3" font-family="Times,serif" font-size="14.00"> v8 = *(IntToPtrCastExpr&lt;ptr&gt;(v7))</text>
<text text-anchor="start" x="779.5" y="-301.3" font-family="Times,serif" font-size="14.00"> g4 = v7</text>
</g>
<!-- Node0x14432370&#45;&gt;Node0x14432940 -->
<g id="edge10" class="edge"><title>Node0x14432370&#45;&gt;Node0x14432940</title>
<path fill="none" stroke="black" d="M907.785,-695.439C914.595,-675.394 924.5,-640.997 924.5,-610.5 924.5,-610.5 924.5,-610.5 924.5,-430.5 924.5,-411.135 921.993,-389.892 919.1,-371.83"/>
<polygon fill="black" stroke="black" points="922.536,-371.155 917.418,-361.878 915.634,-372.322 922.536,-371.155"/>
<text text-anchor="middle" x="1072.5" y="-515.8" font-family="Times,serif" font-size="14.00">n != *(IntToPtrCastExpr&lt;ptr&gt;((v4 + 4)))</text>
</g>
<!-- Node0x14432290 -->
<g id="node12" class="node"><title>Node0x14432290</title>
<polygon fill="none" stroke="black" points="474.5,-501.5 474.5,-537.5 686.5,-537.5 686.5,-501.5 474.5,-501.5"/>
<text text-anchor="start" x="482.5" y="-515.8" font-family="Times,serif" font-size="14.00">if ((strncmp_rc % 2) == 0):</text>
</g>
<!-- Node0x14432c80&#45;&gt;Node0x14432290 -->
<g id="edge11" class="edge"><title>Node0x14432c80&#45;&gt;Node0x14432290</title>
<path fill="none" stroke="black" d="M508.024,-575.482C521.947,-564.92 537.058,-553.456 549.861,-543.743"/>
<polygon fill="black" stroke="black" points="552.055,-546.473 557.906,-537.64 547.824,-540.896 552.055,-546.473"/>
</g>
<!-- Node0x144329a0 -->
<g id="node13" class="node"><title>Node0x144329a0</title>
<polygon fill="none" stroke="black" points="858,-218.5 858,-254.5 963,-254.5 963,-218.5 858,-218.5"/>
<text text-anchor="start" x="866" y="-232.8" font-family="Times,serif" font-size="14.00">if (v8 == 0):</text>
</g>
<!-- Node0x14432940&#45;&gt;Node0x144329a0 -->
<g id="edge12" class="edge"><title>Node0x14432940&#45;&gt;Node0x144329a0</title>
<path fill="none" stroke="black" d="M910.5,-293.36C910.5,-284.084 910.5,-274.102 910.5,-265.179"/>
<polygon fill="black" stroke="black" points="914,-264.938 910.5,-254.938 907,-264.938 914,-264.938"/>
</g>
<!-- Node0x144333d0 -->
<g id="node14" class="node"><title>Node0x144333d0</title>
<polygon fill="none" stroke="black" points="525.5,-217.5 525.5,-255.5 635.5,-255.5 635.5,-217.5 525.5,-217.5"/>
<text text-anchor="start" x="533.5" y="-240.3" font-family="Times,serif" font-size="14.00">0x8063366:</text>
<text text-anchor="start" x="533.5" y="-225.3" font-family="Times,serif" font-size="14.00"> if (v6 == 0):</text>
</g>
<!-- Node0x14432290&#45;&gt;Node0x144333d0 -->
<g id="edge13" class="edge"><title>Node0x14432290&#45;&gt;Node0x144333d0</title>
<path fill="none" stroke="black" d="M580.5,-501.345C580.5,-454.441 580.5,-323.707 580.5,-265.765"/>
<polygon fill="black" stroke="black" points="584,-265.511 580.5,-255.511 577,-265.511 584,-265.511"/>
<text text-anchor="middle" x="664" y="-383.8" font-family="Times,serif" font-size="14.00">(strncmp_rc % 2) == 0</text>
</g>
<!-- Node0x144331f0 -->
<g id="node15" class="node"><title>Node0x144331f0</title>
<polygon fill="none" stroke="black" points="713.5,-413.5 713.5,-449.5 785.5,-449.5 785.5,-413.5 713.5,-413.5"/>
<text text-anchor="start" x="721.5" y="-427.8" font-family="Times,serif" font-size="14.00">v5 = v6</text>
</g>
<!-- Node0x14432290&#45;&gt;Node0x144331f0 -->
<g id="edge14" class="edge"><title>Node0x14432290&#45;&gt;Node0x144331f0</title>
<path fill="none" stroke="black" d="M614.293,-501.303C640.977,-487.724 678.367,-468.698 707.066,-454.094"/>
<polygon fill="black" stroke="black" points="708.728,-457.175 716.053,-449.52 705.554,-450.936 708.728,-457.175"/>
<text text-anchor="middle" x="755" y="-471.8" font-family="Times,serif" font-size="14.00">(strncmp_rc % 2) != 0</text>
</g>
<!-- Node0x144332a0 -->
<g id="node16" class="node"><title>Node0x144332a0</title>
<polygon fill="none" stroke="black" points="804,-105 804,-158 905,-158 905,-105 804,-105"/>
<text text-anchor="start" x="812" y="-142.8" font-family="Times,serif" font-size="14.00">0x8063380:</text>
<text text-anchor="start" x="812" y="-127.8" font-family="Times,serif" font-size="14.00"> g3 = v1</text>
<text text-anchor="start" x="812" y="-112.8" font-family="Times,serif" font-size="14.00"> return &#45;46</text>
</g>
<!-- Node0x144329a0&#45;&gt;Node0x144332a0 -->
<g id="edge15" class="edge"><title>Node0x144329a0&#45;&gt;Node0x144332a0</title>
<path fill="none" stroke="black" d="M901.253,-218.492C893.704,-204.607 882.789,-184.532 873.404,-167.27"/>
<polygon fill="black" stroke="black" points="876.23,-165.14 868.379,-158.027 870.08,-168.484 876.23,-165.14"/>
<text text-anchor="middle" x="918.5" y="-187.8" font-family="Times,serif" font-size="14.00">v8 == 0</text>
</g>
<!-- Node0x14432c20 -->
<g id="node17" class="node"><title>Node0x14432c20</title>
<polygon fill="none" stroke="black" points="1104,-97.5 1104,-165.5 1205,-165.5 1205,-97.5 1104,-97.5"/>
<text text-anchor="start" x="1112" y="-150.3" font-family="Times,serif" font-size="14.00">0x8063348:</text>
<text text-anchor="start" x="1112" y="-135.3" font-family="Times,serif" font-size="14.00"> str = v8</text>
<text text-anchor="start" x="1112" y="-120.3" font-family="Times,serif" font-size="14.00"> n = v2</text>
<text text-anchor="start" x="1112" y="-105.3" font-family="Times,serif" font-size="14.00"> v4 = v7</text>
</g>
<!-- Node0x144329a0&#45;&gt;Node0x14432c20 -->
<g id="edge16" class="edge"><title>Node0x144329a0&#45;&gt;Node0x14432c20</title>
<path fill="none" stroke="black" d="M950.792,-218.492C989.966,-201.955 1049.94,-176.637 1094.69,-157.75"/>
<polygon fill="black" stroke="black" points="1096.14,-160.936 1103.99,-153.822 1093.42,-154.487 1096.14,-160.936"/>
<text text-anchor="middle" x="1059.5" y="-187.8" font-family="Times,serif" font-size="14.00">v8 != 0</text>
</g>
<!-- Node0x14433920 -->
<g id="node18" class="node"><title>Node0x14433920</title>
<polygon fill="none" stroke="black" points="318,-105 318,-158 419,-158 419,-105 318,-105"/>
<text text-anchor="start" x="326" y="-142.8" font-family="Times,serif" font-size="14.00">0x8063380:</text>
<text text-anchor="start" x="326" y="-127.8" font-family="Times,serif" font-size="14.00"> g3 = v1</text>
<text text-anchor="start" x="326" y="-112.8" font-family="Times,serif" font-size="14.00"> return &#45;46</text>
</g>
<!-- Node0x144333d0&#45;&gt;Node0x14433920 -->
<g id="edge17" class="edge"><title>Node0x144333d0&#45;&gt;Node0x14433920</title>
<path fill="none" stroke="black" d="M538.459,-217.365C507.7,-203.835 465.124,-184.56 428.5,-166 426.511,-164.992 424.493,-163.953 422.461,-162.892"/>
<polygon fill="black" stroke="black" points="423.976,-159.734 413.502,-158.136 420.693,-165.917 423.976,-159.734"/>
<text text-anchor="middle" x="525.5" y="-187.8" font-family="Times,serif" font-size="14.00">v6 == 0</text>
</g>
<!-- Node0x14433800 -->
<g id="node19" class="node"><title>Node0x14433800</title>
<polygon fill="none" stroke="black" points="437.5,-97.5 437.5,-165.5 783.5,-165.5 783.5,-97.5 437.5,-97.5"/>
<text text-anchor="start" x="445.5" y="-150.3" font-family="Times,serif" font-size="14.00">0x806336a:</text>
<text text-anchor="start" x="445.5" y="-135.3" font-family="Times,serif" font-size="14.00"> *(a2) = *(IntToPtrCastExpr&lt;ptr&gt;((v6 + 16)))</text>
<text text-anchor="start" x="445.5" y="-120.3" font-family="Times,serif" font-size="14.00"> g3 = v1</text>
<text text-anchor="start" x="445.5" y="-105.3" font-family="Times,serif" font-size="14.00"> return 0</text>
</g>
<!-- Node0x144333d0&#45;&gt;Node0x14433800 -->
<g id="edge18" class="edge"><title>Node0x144333d0&#45;&gt;Node0x14433800</title>
<path fill="none" stroke="black" d="M585.863,-217.086C589.232,-205.52 593.725,-190.094 597.951,-175.584"/>
<polygon fill="black" stroke="black" points="601.381,-176.323 600.817,-165.743 594.661,-174.366 601.381,-176.323"/>
<text text-anchor="middle" x="622.5" y="-187.8" font-family="Times,serif" font-size="14.00">v6 != 0</text>
</g>
<!-- Node0x144331f0&#45;&gt;Node0x14432940 -->
<g id="edge19" class="edge"><title>Node0x144331f0&#45;&gt;Node0x14432940</title>
<path fill="none" stroke="black" d="M776.448,-413.427C796.474,-400.74 824.592,-382.926 849.907,-366.888"/>
<polygon fill="black" stroke="black" points="851.795,-369.835 858.37,-361.527 848.049,-363.922 851.795,-369.835"/>
</g>
<!-- Node0x144332a0&#45;&gt;Node0xaa31a80 -->
<g id="edge20" class="edge"><title>Node0x144332a0&#45;&gt;Node0xaa31a80</title>
<path fill="none" stroke="black" d="M811.261,-104.916C805.101,-101.932 798.736,-99.1807 792.5,-97 699.824,-64.5933 584.2,-50.6631 525.867,-45.3575"/>
<polygon fill="black" stroke="black" points="525.927,-41.8495 515.66,-44.4647 525.317,-48.8229 525.927,-41.8495"/>
</g>
<!-- Node0x14432c20&#45;&gt;Node0x144320c0 -->
<g id="edge21" class="edge"><title>Node0x14432c20&#45;&gt;Node0x144320c0</title>
<path fill="none" stroke="black" d="M1205.08,-163.561C1227.33,-181.391 1248.5,-206.086 1248.5,-235.5 1248.5,-788.5 1248.5,-788.5 1248.5,-788.5 1248.5,-847.17 1059.25,-866.088 960.271,-871.969"/>
<polygon fill="black" stroke="black" points="959.9,-868.485 950.114,-872.546 960.297,-875.473 959.9,-868.485"/>
</g>
<!-- Node0x14433920&#45;&gt;Node0xaa31a80 -->
<g id="edge22" class="edge"><title>Node0x14433920&#45;&gt;Node0xaa31a80</title>
<path fill="none" stroke="black" d="M403.532,-104.81C420.38,-92.4548 440.425,-77.7549 456.814,-65.7366"/>
<polygon fill="black" stroke="black" points="459.02,-68.4589 465.014,-59.7228 454.88,-62.8141 459.02,-68.4589"/>
</g>
<!-- Node0x14433800&#45;&gt;Node0xaa31a80 -->
<g id="edge23" class="edge"><title>Node0x14433800&#45;&gt;Node0xaa31a80</title>
<path fill="none" stroke="black" d="M564.725,-97.4817C550.082,-86.9199 534.189,-75.4562 520.724,-65.7432"/>
<polygon fill="black" stroke="black" points="522.42,-62.6517 512.263,-59.6402 518.325,-68.3289 522.42,-62.6517"/>
</g>
</g>
</svg>
