<?xml version="1.0" encoding="UTF-8" standalone="no"?>
<!DOCTYPE svg PUBLIC "-//W3C//DTD SVG 1.1//EN"
 "http://www.w3.org/Graphics/SVG/1.1/DTD/svg11.dtd">
<!-- Generated by graphviz version 2.38.0 (20140413.2041)
 -->
<!-- Title: Control&#45;flow graph for function &#39;mbedtls_mpi_bitlen(a1, a2)&#39;. Pages: 1 -->
<svg width="721pt" height="1640pt"
 viewBox="0.00 0.00 720.50 1640.00" xmlns="http://www.w3.org/2000/svg" xmlns:xlink="http://www.w3.org/1999/xlink">
<g id="graph0" class="graph" transform="scale(1 1) rotate(0) translate(4 1636)">
<title>Control&#45;flow graph for function &#39;mbedtls_mpi_bitlen(a1, a2)&#39;.</title>
<polygon fill="white" stroke="none" points="-4,4 -4,-1636 716.5,-1636 716.5,4 -4,4"/>
<text text-anchor="middle" x="356.25" y="-7.8" font-family="Times,serif" font-size="14.00">Control&#45;flow graph for function &#39;mbedtls_mpi_bitlen(a1, a2)&#39;.</text>
<!-- Node0xc1d4810 -->
<g id="node1" class="node"><title>Node0xc1d4810</title>
<polygon fill="none" stroke="black" points="130,-1578.5 130,-1631.5 189,-1631.5 189,-1578.5 130,-1578.5"/>
<text text-anchor="start" x="138" y="-1616.3" font-family="Times,serif" font-size="14.00">entry:</text>
<text text-anchor="start" x="138" y="-1601.3" font-family="Times,serif" font-size="14.00"> a1</text>
<text text-anchor="start" x="138" y="-1586.3" font-family="Times,serif" font-size="14.00"> a2</text>
</g>
<!-- Node0xb20edf0 -->
<g id="node2" class="node"><title>Node0xb20edf0</title>
<polygon fill="none" stroke="black" points="0,-1457.5 0,-1540.5 319,-1540.5 319,-1457.5 0,-1457.5"/>
<text text-anchor="start" x="8" y="-1525.3" font-family="Times,serif" font-size="14.00">0x80563e0:</text>
<text text-anchor="start" x="8" y="-1510.3" font-family="Times,serif" font-size="14.00"> g4 = a1</text>
<text text-anchor="start" x="8" y="-1495.3" font-family="Times,serif" font-size="14.00"> v1 = *(IntToPtrCastExpr&lt;ptr&gt;((a1 + 4)))</text>
<text text-anchor="start" x="8" y="-1480.3" font-family="Times,serif" font-size="14.00"> g6 = v1</text>
<text text-anchor="start" x="8" y="-1465.3" font-family="Times,serif" font-size="14.00"> v2</text>
</g>
<!-- Node0xc1d4810&#45;&gt;Node0xb20edf0 -->
<g id="edge1" class="edge"><title>Node0xc1d4810&#45;&gt;Node0xb20edf0</title>
<path fill="none" stroke="black" d="M159.5,-1578.29C159.5,-1569.99 159.5,-1560.47 159.5,-1550.99"/>
<polygon fill="black" stroke="black" points="163,-1550.79 159.5,-1540.79 156,-1550.79 163,-1550.79"/>
</g>
<!-- Node0xb20eec0 -->
<g id="node3" class="node"><title>Node0xb20eec0</title>
<polygon fill="none" stroke="black" points="107,-1383.5 107,-1419.5 212,-1419.5 212,-1383.5 107,-1383.5"/>
<text text-anchor="start" x="115" y="-1397.8" font-family="Times,serif" font-size="14.00">if (v1 == 0):</text>
</g>
<!-- Node0xb20edf0&#45;&gt;Node0xb20eec0 -->
<g id="edge2" class="edge"><title>Node0xb20edf0&#45;&gt;Node0xb20eec0</title>
<path fill="none" stroke="black" d="M159.5,-1457.5C159.5,-1448.21 159.5,-1438.54 159.5,-1429.95"/>
<polygon fill="black" stroke="black" points="163,-1429.75 159.5,-1419.75 156,-1429.75 163,-1429.75"/>
</g>
<!-- Node0xb20fce0 -->
<g id="node4" class="node"><title>Node0xb20fce0</title>
<polygon fill="none" stroke="black" points="42,-1221.5 42,-1274.5 143,-1274.5 143,-1221.5 42,-1221.5"/>
<text text-anchor="start" x="50" y="-1259.3" font-family="Times,serif" font-size="14.00">0x8056433:</text>
<text text-anchor="start" x="50" y="-1244.3" font-family="Times,serif" font-size="14.00"> g2 = v2</text>
<text text-anchor="start" x="50" y="-1229.3" font-family="Times,serif" font-size="14.00"> return 0</text>
</g>
<!-- Node0xb20eec0&#45;&gt;Node0xb20fce0 -->
<g id="edge3" class="edge"><title>Node0xb20eec0&#45;&gt;Node0xb20fce0</title>
<path fill="none" stroke="black" d="M144.628,-1383.34C133.921,-1370.13 119.932,-1350.98 111.5,-1332 104.867,-1317.07 100.421,-1299.57 97.5084,-1284.49"/>
<polygon fill="black" stroke="black" points="100.929,-1283.74 95.7295,-1274.5 94.0373,-1284.96 100.929,-1283.74"/>
<text text-anchor="middle" x="160.5" y="-1353.8" font-family="Times,serif" font-size="14.00">v1 == 0</text>
</g>
<!-- Node0xb20fc80 -->
<g id="node5" class="node"><title>Node0xb20fc80</title>
<polygon fill="none" stroke="black" points="121,-1293.5 121,-1331.5 440,-1331.5 440,-1293.5 121,-1293.5"/>
<text text-anchor="start" x="129" y="-1316.3" font-family="Times,serif" font-size="14.00">v3 = (v1 &#45; 1)</text>
<text text-anchor="start" x="129" y="-1301.3" font-family="Times,serif" font-size="14.00"> v4 = *(IntToPtrCastExpr&lt;ptr&gt;((a1 + 8)))</text>
</g>
<!-- Node0xb20eec0&#45;&gt;Node0xb20fc80 -->
<g id="edge4" class="edge"><title>Node0xb20eec0&#45;&gt;Node0xb20fc80</title>
<path fill="none" stroke="black" d="M183.406,-1383.31C201.605,-1370.23 226.882,-1352.05 247.083,-1337.53"/>
<polygon fill="black" stroke="black" points="249.318,-1340.23 255.394,-1331.55 245.232,-1334.55 249.318,-1340.23"/>
<text text-anchor="middle" x="254.5" y="-1353.8" font-family="Times,serif" font-size="14.00">v1 != 0</text>
</g>
<!-- Node0xb20ed90 -->
<g id="node6" class="node"><title>Node0xb20ed90</title>
<polygon fill="none" stroke="black" points="151.5,-23.5 151.5,-59.5 205.5,-59.5 205.5,-23.5 151.5,-23.5"/>
<text text-anchor="start" x="159.5" y="-37.8" font-family="Times,serif" font-size="14.00">exit:</text>
</g>
<!-- Node0xb20fce0&#45;&gt;Node0xb20ed90 -->
<g id="edge5" class="edge"><title>Node0xb20fce0&#45;&gt;Node0xb20ed90</title>
<path fill="none" stroke="black" d="M92.5,-1221.42C92.5,-1200.05 92.5,-1168.79 92.5,-1141.5 92.5,-1141.5 92.5,-1141.5 92.5,-130.5 92.5,-100.193 118.914,-76.45 142.464,-61.3041"/>
<polygon fill="black" stroke="black" points="144.572,-64.1181 151.289,-55.9244 140.929,-58.1412 144.572,-64.1181"/>
</g>
<!-- Node0xb20fd70 -->
<g id="node7" class="node"><title>Node0xb20fd70</title>
<polygon fill="none" stroke="black" points="228,-1166.5 228,-1202.5 333,-1202.5 333,-1166.5 228,-1166.5"/>
<text text-anchor="start" x="236" y="-1180.8" font-family="Times,serif" font-size="14.00">if (v1 == 1):</text>
</g>
<!-- Node0xb20fc80&#45;&gt;Node0xb20fd70 -->
<g id="edge6" class="edge"><title>Node0xb20fc80&#45;&gt;Node0xb20fd70</title>
<path fill="none" stroke="black" d="M280.5,-1293.45C280.5,-1272.35 280.5,-1237.2 280.5,-1212.77"/>
<polygon fill="black" stroke="black" points="284,-1212.71 280.5,-1202.71 277,-1212.71 284,-1212.71"/>
</g>
<!-- Node0xb2104c0 -->
<g id="node8" class="node"><title>Node0xb2104c0</title>
<polygon fill="none" stroke="black" points="116,-959.5 116,-1042.5 395,-1042.5 395,-959.5 116,-959.5"/>
<text text-anchor="start" x="124" y="-1027.3" font-family="Times,serif" font-size="14.00">0x805643d:</text>
<text text-anchor="start" x="124" y="-1012.3" font-family="Times,serif" font-size="14.00"> g4 = *(IntToPtrCastExpr&lt;ptr&gt;(v4))</text>
<text text-anchor="start" x="124" y="-997.3" font-family="Times,serif" font-size="14.00"> g6 = 0</text>
<text text-anchor="start" x="124" y="-982.3" font-family="Times,serif" font-size="14.00"> g2 = v2</text>
<text text-anchor="start" x="124" y="-967.3" font-family="Times,serif" font-size="14.00"> return 0</text>
</g>
<!-- Node0xb20fd70&#45;&gt;Node0xb2104c0 -->
<g id="edge7" class="edge"><title>Node0xb20fd70&#45;&gt;Node0xb2104c0</title>
<path fill="none" stroke="black" d="M278.148,-1166.42C274.615,-1140.77 267.794,-1091.25 262.557,-1053.23"/>
<polygon fill="black" stroke="black" points="265.958,-1052.27 261.126,-1042.84 259.023,-1053.23 265.958,-1052.27"/>
<text text-anchor="middle" x="306.5" y="-1136.8" font-family="Times,serif" font-size="14.00">v1 == 1</text>
</g>
<!-- Node0xb20fff0 -->
<g id="node9" class="node"><title>Node0xb20fff0</title>
<polygon fill="none" stroke="black" points="317,-1061.5 317,-1114.5 676,-1114.5 676,-1061.5 317,-1061.5"/>
<text text-anchor="start" x="325" y="-1099.3" font-family="Times,serif" font-size="14.00">v5 = *(IntToPtrCastExpr&lt;ptr&gt;((v4 + (4 * v3))))</text>
<text text-anchor="start" x="325" y="-1084.3" font-family="Times,serif" font-size="14.00"> g4 = v5</text>
<text text-anchor="start" x="325" y="-1069.3" font-family="Times,serif" font-size="14.00"> result</text>
</g>
<!-- Node0xb20fd70&#45;&gt;Node0xb20fff0 -->
<g id="edge8" class="edge"><title>Node0xb20fd70&#45;&gt;Node0xb20fff0</title>
<path fill="none" stroke="black" d="M319.616,-1166.39C349.971,-1153.11 392.787,-1134.37 428.69,-1118.67"/>
<polygon fill="black" stroke="black" points="430.378,-1121.75 438.136,-1114.53 427.572,-1115.34 430.378,-1121.75"/>
<text text-anchor="middle" x="422.5" y="-1136.8" font-family="Times,serif" font-size="14.00">v1 != 1</text>
</g>
<!-- Node0xb2104c0&#45;&gt;Node0xb20ed90 -->
<g id="edge9" class="edge"><title>Node0xb2104c0&#45;&gt;Node0xb20ed90</title>
<path fill="none" stroke="black" d="M180.982,-959.355C154.213,-938.985 130.5,-911.379 130.5,-877.5 130.5,-877.5 130.5,-877.5 130.5,-130.5 130.5,-107.233 143.592,-84.2673 156.101,-67.6336"/>
<polygon fill="black" stroke="black" points="159.045,-69.5543 162.517,-59.5445 153.56,-65.2043 159.045,-69.5543"/>
</g>
<!-- Node0xb20fbb0 -->
<g id="node10" class="node"><title>Node0xb20fbb0</title>
<polygon fill="none" stroke="black" points="497,-902.5 497,-940.5 602,-940.5 602,-902.5 497,-902.5"/>
<text text-anchor="start" x="505" y="-925.3" font-family="Times,serif" font-size="14.00">if (v5 == 0):</text>
<text text-anchor="start" x="505" y="-910.3" font-family="Times,serif" font-size="14.00"> else:</text>
</g>
<!-- Node0xb20fff0&#45;&gt;Node0xb20fbb0 -->
<g id="edge10" class="edge"><title>Node0xb20fff0&#45;&gt;Node0xb20fbb0</title>
<path fill="none" stroke="black" d="M504.781,-1061.3C514.459,-1031.26 530.421,-981.717 540.427,-950.66"/>
<polygon fill="black" stroke="black" points="543.839,-951.483 543.574,-940.891 537.176,-949.336 543.839,-951.483"/>
</g>
<!-- Node0xb210560 -->
<g id="node11" class="node"><title>Node0xb210560</title>
<polygon fill="none" stroke="black" points="513.5,-814.5 513.5,-850.5 585.5,-850.5 585.5,-814.5 513.5,-814.5"/>
<text text-anchor="start" x="521.5" y="-828.8" font-family="Times,serif" font-size="14.00">v6 = v3</text>
</g>
<!-- Node0xb20fbb0&#45;&gt;Node0xb210560 -->
<g id="edge11" class="edge"><title>Node0xb20fbb0&#45;&gt;Node0xb210560</title>
<path fill="none" stroke="black" d="M549.5,-902.474C549.5,-890.456 549.5,-874.434 549.5,-860.857"/>
<polygon fill="black" stroke="black" points="553,-860.615 549.5,-850.615 546,-860.615 553,-860.615"/>
<text text-anchor="middle" x="579.5" y="-872.8" font-family="Times,serif" font-size="14.00">v5 == 0</text>
</g>
<!-- Node0xb2109a0 -->
<g id="node12" class="node"><title>Node0xb2109a0</title>
<polygon fill="none" stroke="black" points="566.5,-757.5 566.5,-795.5 712.5,-795.5 712.5,-757.5 566.5,-757.5"/>
<text text-anchor="start" x="574.5" y="-780.3" font-family="Times,serif" font-size="14.00">0x8056438:</text>
<text text-anchor="start" x="574.5" y="-765.3" font-family="Times,serif" font-size="14.00"> result = (32 * v3)</text>
</g>
<!-- Node0xb20fbb0&#45;&gt;Node0xb2109a0 -->
<g id="edge12" class="edge"><title>Node0xb20fbb0&#45;&gt;Node0xb2109a0</title>
<path fill="none" stroke="black" d="M592.568,-902.435C600.468,-897.459 607.956,-891.354 613.5,-884 630.611,-861.302 636.606,-828.841 638.632,-805.734"/>
<polygon fill="black" stroke="black" points="642.139,-805.749 639.324,-795.534 635.155,-805.275 642.139,-805.749"/>
<text text-anchor="middle" x="648.5" y="-872.8" font-family="Times,serif" font-size="14.00">v5 != 0</text>
</g>
<!-- Node0xb2100a0 -->
<g id="node13" class="node"><title>Node0xb2100a0</title>
<polygon fill="none" stroke="black" points="501,-702.5 501,-738.5 598,-738.5 598,-702.5 501,-702.5"/>
<text text-anchor="start" x="509" y="-716.8" font-family="Times,serif" font-size="14.00">while True:</text>
</g>
<!-- Node0xb210560&#45;&gt;Node0xb2100a0 -->
<g id="edge13" class="edge"><title>Node0xb210560&#45;&gt;Node0xb2100a0</title>
<path fill="none" stroke="black" d="M549.5,-814.312C549.5,-796.715 549.5,-769.107 549.5,-748.571"/>
<polygon fill="black" stroke="black" points="553,-748.567 549.5,-738.567 546,-748.567 553,-748.567"/>
</g>
<!-- Node0xb210350 -->
<g id="node14" class="node"><title>Node0xb210350</title>
<polygon fill="none" stroke="black" points="382,-97.5 382,-165.5 495,-165.5 495,-97.5 382,-97.5"/>
<text text-anchor="start" x="390" y="-150.3" font-family="Times,serif" font-size="14.00">0x8056422:</text>
<text text-anchor="start" x="390" y="-135.3" font-family="Times,serif" font-size="14.00"> g6 = 0</text>
<text text-anchor="start" x="390" y="-120.3" font-family="Times,serif" font-size="14.00"> g2 = v2</text>
<text text-anchor="start" x="390" y="-105.3" font-family="Times,serif" font-size="14.00"> return result</text>
</g>
<!-- Node0xb2109a0&#45;&gt;Node0xb210350 -->
<g id="edge14" class="edge"><title>Node0xb2109a0&#45;&gt;Node0xb210350</title>
<path fill="none" stroke="black" d="M639.795,-757.438C640.09,-737.775 640.5,-705.404 640.5,-677.5 640.5,-677.5 640.5,-677.5 640.5,-221.5 640.5,-161.092 563.913,-141.332 505.056,-135.066"/>
<polygon fill="black" stroke="black" points="505.324,-131.576 495.037,-134.109 504.659,-138.544 505.324,-131.576"/>
</g>
<!-- Node0xb210aa0 -->
<g id="node15" class="node"><title>Node0xb210aa0</title>
<polygon fill="none" stroke="black" points="399,-614.5 399,-650.5 504,-650.5 504,-614.5 399,-614.5"/>
<text text-anchor="start" x="407" y="-628.8" font-family="Times,serif" font-size="14.00">v7 = (v6 &#45; 1)</text>
</g>
<!-- Node0xb2100a0&#45;&gt;Node0xb210aa0 -->
<g id="edge15" class="edge"><title>Node0xb2100a0&#45;&gt;Node0xb210aa0</title>
<path fill="none" stroke="black" d="M529.668,-702.097C514.961,-689.19 494.74,-671.446 478.55,-657.238"/>
<polygon fill="black" stroke="black" points="480.793,-654.549 470.968,-650.584 476.176,-659.811 480.793,-654.549"/>
<text text-anchor="middle" x="523.5" y="-672.8" font-family="Times,serif" font-size="14.00">True</text>
</g>
<!-- Node0xb210350&#45;&gt;Node0xb20ed90 -->
<g id="edge16" class="edge"><title>Node0xb210350&#45;&gt;Node0xb20ed90</title>
<path fill="none" stroke="black" d="M381.763,-111.297C331.167,-94.1718 258.586,-69.6061 215.233,-54.9326"/>
<polygon fill="black" stroke="black" points="216.252,-51.5827 205.658,-51.6919 214.008,-58.2132 216.252,-51.5827"/>
</g>
<!-- Node0xb210b70 -->
<g id="node16" class="node"><title>Node0xb210b70</title>
<polygon fill="none" stroke="black" points="342,-540.5 342,-576.5 447,-576.5 447,-540.5 342,-540.5"/>
<text text-anchor="start" x="350" y="-554.8" font-family="Times,serif" font-size="14.00">if (v7 == 0):</text>
</g>
<!-- Node0xb210aa0&#45;&gt;Node0xb210b70 -->
<g id="edge17" class="edge"><title>Node0xb210aa0&#45;&gt;Node0xb210b70</title>
<path fill="none" stroke="black" d="M437.992,-614.437C430.996,-605.6 422.316,-594.635 414.554,-584.831"/>
<polygon fill="black" stroke="black" points="417.258,-582.609 408.307,-576.941 411.77,-586.954 417.258,-582.609"/>
</g>
<!-- Node0xb2113a0 -->
<g id="node17" class="node"><title>Node0xb2113a0</title>
<polygon fill="none" stroke="black" points="146,-348.5 146,-431.5 425,-431.5 425,-348.5 146,-348.5"/>
<text text-anchor="start" x="154" y="-416.3" font-family="Times,serif" font-size="14.00">0x8056414:</text>
<text text-anchor="start" x="154" y="-401.3" font-family="Times,serif" font-size="14.00"> g4 = *(IntToPtrCastExpr&lt;ptr&gt;(v4))</text>
<text text-anchor="start" x="154" y="-386.3" font-family="Times,serif" font-size="14.00"> g6 = 0</text>
<text text-anchor="start" x="154" y="-371.3" font-family="Times,serif" font-size="14.00"> g2 = v2</text>
<text text-anchor="start" x="154" y="-356.3" font-family="Times,serif" font-size="14.00"> return 0</text>
</g>
<!-- Node0xb210b70&#45;&gt;Node0xb2113a0 -->
<g id="edge18" class="edge"><title>Node0xb210b70&#45;&gt;Node0xb2113a0</title>
<path fill="none" stroke="black" d="M341.785,-554.333C297.278,-548.545 236.058,-532.578 205.5,-489 195.548,-474.808 197.686,-465.472 205.5,-450 207.329,-446.378 209.498,-442.923 211.928,-439.635"/>
<polygon fill="black" stroke="black" points="214.739,-441.729 218.461,-431.809 209.366,-437.243 214.739,-441.729"/>
<text text-anchor="middle" x="268.5" y="-510.8" font-family="Times,serif" font-size="14.00">v7 == 0</text>
</g>
<!-- Node0xb210eb0 -->
<g id="node18" class="node"><title>Node0xb210eb0</title>
<polygon fill="none" stroke="black" points="215,-450.5 215,-488.5 574,-488.5 574,-450.5 215,-450.5"/>
<text text-anchor="start" x="223" y="-473.3" font-family="Times,serif" font-size="14.00">v8 = *(IntToPtrCastExpr&lt;ptr&gt;(((4 * v7) + v4)))</text>
<text text-anchor="start" x="223" y="-458.3" font-family="Times,serif" font-size="14.00"> g4 = v8</text>
</g>
<!-- Node0xb210b70&#45;&gt;Node0xb210eb0 -->
<g id="edge19" class="edge"><title>Node0xb210b70&#45;&gt;Node0xb210eb0</title>
<path fill="none" stroke="black" d="M394.5,-540.312C394.5,-528.511 394.5,-512.572 394.5,-498.904"/>
<polygon fill="black" stroke="black" points="398,-498.551 394.5,-488.551 391,-498.551 398,-498.551"/>
<text text-anchor="middle" x="421.5" y="-510.8" font-family="Times,serif" font-size="14.00">v7 != 0</text>
</g>
<!-- Node0xb2113a0&#45;&gt;Node0xb20ed90 -->
<g id="edge20" class="edge"><title>Node0xb2113a0&#45;&gt;Node0xb20ed90</title>
<path fill="none" stroke="black" d="M254.272,-348.421C240.12,-326.087 226.5,-297.151 226.5,-268.5 226.5,-268.5 226.5,-268.5 226.5,-130.5 226.5,-107.233 213.408,-84.2673 200.899,-67.6336"/>
<polygon fill="black" stroke="black" points="203.44,-65.2043 194.483,-59.5445 197.955,-69.5543 203.44,-65.2043"/>
</g>
<!-- Node0xb210ff0 -->
<g id="node19" class="node"><title>Node0xb210ff0</title>
<polygon fill="none" stroke="black" points="391,-293.5 391,-329.5 490,-329.5 490,-293.5 391,-293.5"/>
<text text-anchor="start" x="399" y="-307.8" font-family="Times,serif" font-size="14.00">if (v8 != 0):</text>
</g>
<!-- Node0xb210eb0&#45;&gt;Node0xb210ff0 -->
<g id="edge21" class="edge"><title>Node0xb210eb0&#45;&gt;Node0xb210ff0</title>
<path fill="none" stroke="black" d="M414.198,-450.352C418.979,-444.915 423.557,-438.623 426.5,-432 439.654,-402.403 442.009,-364.82 441.822,-339.783"/>
<polygon fill="black" stroke="black" points="445.316,-339.479 441.598,-329.558 438.318,-339.632 445.316,-339.479"/>
</g>
<!-- Node0xb211750 -->
<g id="node20" class="node"><title>Node0xb211750</title>
<polygon fill="none" stroke="black" points="354.5,-203.5 354.5,-241.5 522.5,-241.5 522.5,-203.5 354.5,-203.5"/>
<text text-anchor="start" x="362.5" y="-226.3" font-family="Times,serif" font-size="14.00">break &#45;&gt; 0x8056438:</text>
<text text-anchor="start" x="362.5" y="-211.3" font-family="Times,serif" font-size="14.00"> break</text>
</g>
<!-- Node0xb210ff0&#45;&gt;Node0xb211750 -->
<g id="edge22" class="edge"><title>Node0xb210ff0&#45;&gt;Node0xb211750</title>
<path fill="none" stroke="black" d="M440.105,-293.312C439.834,-281.511 439.467,-265.572 439.153,-251.904"/>
<polygon fill="black" stroke="black" points="442.644,-251.468 438.915,-241.551 435.646,-251.629 442.644,-251.468"/>
<text text-anchor="middle" x="467.5" y="-263.8" font-family="Times,serif" font-size="14.00">v8 != 0</text>
</g>
<!-- Node0xb211340 -->
<g id="node21" class="node"><title>Node0xb211340</title>
<polygon fill="none" stroke="black" points="540.5,-204.5 540.5,-240.5 612.5,-240.5 612.5,-204.5 540.5,-204.5"/>
<text text-anchor="start" x="548.5" y="-218.8" font-family="Times,serif" font-size="14.00">v6 = v7</text>
</g>
<!-- Node0xb210ff0&#45;&gt;Node0xb211340 -->
<g id="edge23" class="edge"><title>Node0xb210ff0&#45;&gt;Node0xb211340</title>
<path fill="none" stroke="black" d="M468.941,-293.359C478.389,-287.594 488.936,-281.082 498.5,-275 512.99,-265.786 528.828,-255.39 542.425,-246.363"/>
<polygon fill="black" stroke="black" points="544.614,-249.11 550.999,-240.655 540.735,-243.283 544.614,-249.11"/>
<text text-anchor="middle" x="550.5" y="-263.8" font-family="Times,serif" font-size="14.00">v8 == 0</text>
</g>
<!-- Node0xb211750&#45;&gt;Node0xb210350 -->
<g id="edge24" class="edge"><title>Node0xb211750&#45;&gt;Node0xb210350</title>
<path fill="none" stroke="black" d="M438.5,-203.49C438.5,-195.422 438.5,-185.529 438.5,-175.718"/>
<polygon fill="black" stroke="black" points="442,-175.605 438.5,-165.605 435,-175.605 442,-175.605"/>
</g>
<!-- Node0xb211340&#45;&gt;Node0xb2100a0 -->
<g id="edge25" class="edge"><title>Node0xb211340&#45;&gt;Node0xb2100a0</title>
<path fill="none" stroke="black" d="M584.87,-240.71C592.47,-257.944 602.5,-285.435 602.5,-310.5 602.5,-633.5 602.5,-633.5 602.5,-633.5 602.5,-656.5 588.592,-678.503 575.025,-694.496"/>
<polygon fill="black" stroke="black" points="572.11,-692.504 568.037,-702.284 577.32,-697.179 572.11,-692.504"/>
</g>
</g>
</svg>
