<?xml version="1.0" encoding="UTF-8" standalone="no"?>
<!DOCTYPE svg PUBLIC "-//W3C//DTD SVG 1.1//EN"
 "http://www.w3.org/Graphics/SVG/1.1/DTD/svg11.dtd">
<!-- Generated by graphviz version 2.38.0 (20140413.2041)
 -->
<!-- Title: Control&#45;flow graph for function &#39;mbedtls_blowfish_setkey(*a1, a2, a3)&#39;. Pages: 1 -->
<svg width="531pt" height="248pt"
 viewBox="0.00 0.00 531.00 248.00" xmlns="http://www.w3.org/2000/svg" xmlns:xlink="http://www.w3.org/1999/xlink">
<g id="graph0" class="graph" transform="scale(1 1) rotate(0) translate(4 244)">
<title>Control&#45;flow graph for function &#39;mbedtls_blowfish_setkey(*a1, a2, a3)&#39;.</title>
<polygon fill="white" stroke="none" points="-4,4 -4,-244 527,-244 527,4 -4,4"/>
<text text-anchor="middle" x="261.5" y="-7.8" font-family="Times,serif" font-size="14.00">Control&#45;flow graph for function &#39;mbedtls_blowfish_setkey(*a1, a2, a3)&#39;.</text>
<!-- Node0x2768b840 -->
<g id="node1" class="node"><title>Node0x2768b840</title>
<polygon fill="none" stroke="black" points="232,-171.5 232,-239.5 291,-239.5 291,-171.5 232,-171.5"/>
<text text-anchor="start" x="240" y="-224.3" font-family="Times,serif" font-size="14.00">entry:</text>
<text text-anchor="start" x="240" y="-209.3" font-family="Times,serif" font-size="14.00"> a1</text>
<text text-anchor="start" x="240" y="-194.3" font-family="Times,serif" font-size="14.00"> a2</text>
<text text-anchor="start" x="240" y="-179.3" font-family="Times,serif" font-size="14.00"> a3</text>
</g>
<!-- Node0x2768a0c0 -->
<g id="node2" class="node"><title>Node0x2768a0c0</title>
<polygon fill="none" stroke="black" points="211,-96.5 211,-134.5 312,-134.5 312,-96.5 211,-96.5"/>
<text text-anchor="start" x="219" y="-119.3" font-family="Times,serif" font-size="14.00">0x806e270:</text>
<text text-anchor="start" x="219" y="-104.3" font-family="Times,serif" font-size="14.00"> g1 = &#45;22</text>
</g>
<!-- Node0x2768b840&#45;&gt;Node0x2768a0c0 -->
<g id="edge1" class="edge"><title>Node0x2768b840&#45;&gt;Node0x2768a0c0</title>
<path fill="none" stroke="black" d="M261.5,-171.482C261.5,-162.703 261.5,-153.301 261.5,-144.8"/>
<polygon fill="black" stroke="black" points="265,-144.627 261.5,-134.627 258,-144.627 265,-144.627"/>
</g>
<!-- Node0x2768c1a0 -->
<g id="node3" class="node"><title>Node0x2768c1a0</title>
<polygon fill="none" stroke="black" points="234.5,-23.5 234.5,-59.5 288.5,-59.5 288.5,-23.5 234.5,-23.5"/>
<text text-anchor="start" x="242.5" y="-37.8" font-family="Times,serif" font-size="14.00">exit:</text>
</g>
<!-- Node0x2768a0c0&#45;&gt;Node0x2768c1a0 -->
<g id="edge2" class="edge"><title>Node0x2768a0c0&#45;&gt;Node0x2768c1a0</title>
<path fill="none" stroke="black" d="M261.5,-96.3314C261.5,-88.394 261.5,-78.9095 261.5,-70.1285"/>
<polygon fill="black" stroke="black" points="265,-69.9177 261.5,-59.9177 258,-69.9177 265,-69.9177"/>
</g>
</g>
</svg>
