<?xml version="1.0" encoding="UTF-8" standalone="no"?>
<!DOCTYPE svg PUBLIC "-//W3C//DTD SVG 1.1//EN"
 "http://www.w3.org/Graphics/SVG/1.1/DTD/svg11.dtd">
<!-- Generated by graphviz version 2.38.0 (20140413.2041)
 -->
<!-- Title: Control&#45;flow graph for function &#39;is_ignore_dir(*str2)&#39;. Pages: 1 -->
<svg width="1552pt" height="993pt"
 viewBox="0.00 0.00 1551.50 993.00" xmlns="http://www.w3.org/2000/svg" xmlns:xlink="http://www.w3.org/1999/xlink">
<g id="graph0" class="graph" transform="scale(1 1) rotate(0) translate(4 989)">
<title>Control&#45;flow graph for function &#39;is_ignore_dir(*str2)&#39;.</title>
<polygon fill="white" stroke="none" points="-4,4 -4,-989 1547.5,-989 1547.5,4 -4,4"/>
<text text-anchor="middle" x="771.75" y="-7.8" font-family="Times,serif" font-size="14.00">Control&#45;flow graph for function &#39;is_ignore_dir(*str2)&#39;.</text>
<!-- Node0x6f37fb0 -->
<g id="node1" class="node"><title>Node0x6f37fb0</title>
<polygon fill="none" stroke="black" points="1050,-946.5 1050,-984.5 1109,-984.5 1109,-946.5 1050,-946.5"/>
<text text-anchor="start" x="1058" y="-969.3" font-family="Times,serif" font-size="14.00">entry:</text>
<text text-anchor="start" x="1058" y="-954.3" font-family="Times,serif" font-size="14.00"> str2</text>
</g>
<!-- Node0x17c88710 -->
<g id="node2" class="node"><title>Node0x17c88710</title>
<polygon fill="none" stroke="black" points="1043,-870.5 1043,-908.5 1116,-908.5 1116,-870.5 1043,-870.5"/>
<text text-anchor="start" x="1051" y="-893.3" font-family="Times,serif" font-size="14.00">v1 = g3</text>
<text text-anchor="start" x="1051" y="-878.3" font-family="Times,serif" font-size="14.00"> v2 = 0</text>
</g>
<!-- Node0x6f37fb0&#45;&gt;Node0x17c88710 -->
<g id="edge1" class="edge"><title>Node0x6f37fb0&#45;&gt;Node0x17c88710</title>
<path fill="none" stroke="black" d="M1079.5,-946.208C1079.5,-937.964 1079.5,-928.038 1079.5,-918.862"/>
<polygon fill="black" stroke="black" points="1083,-918.582 1079.5,-908.582 1076,-918.582 1083,-918.582"/>
</g>
<!-- Node0x17c88770 -->
<g id="node3" class="node"><title>Node0x17c88770</title>
<polygon fill="none" stroke="black" points="1023.5,-796.5 1023.5,-832.5 1135.5,-832.5 1135.5,-796.5 1023.5,-796.5"/>
<text text-anchor="start" x="1031.5" y="-810.8" font-family="Times,serif" font-size="14.00">if (g194 &gt; 0):</text>
</g>
<!-- Node0x17c88710&#45;&gt;Node0x17c88770 -->
<g id="edge2" class="edge"><title>Node0x17c88710&#45;&gt;Node0x17c88770</title>
<path fill="none" stroke="black" d="M1079.5,-870.455C1079.5,-862.201 1079.5,-852.238 1079.5,-843.074"/>
<polygon fill="black" stroke="black" points="1083,-842.835 1079.5,-832.835 1076,-842.835 1083,-842.835"/>
</g>
<!-- Node0x17c88310 -->
<g id="node4" class="node"><title>Node0x17c88310</title>
<polygon fill="none" stroke="black" points="951.5,-708.5 951.5,-744.5 1015.5,-744.5 1015.5,-708.5 951.5,-708.5"/>
<text text-anchor="start" x="959.5" y="-722.8" font-family="Times,serif" font-size="14.00">v3 = 0</text>
</g>
<!-- Node0x17c88770&#45;&gt;Node0x17c88310 -->
<g id="edge3" class="edge"><title>Node0x17c88770&#45;&gt;Node0x17c88310</title>
<path fill="none" stroke="black" d="M1060.07,-796.097C1045.8,-783.307 1026.22,-765.768 1010.43,-751.626"/>
<polygon fill="black" stroke="black" points="1012.35,-748.65 1002.57,-744.584 1007.68,-753.863 1012.35,-748.65"/>
<text text-anchor="middle" x="1070" y="-766.8" font-family="Times,serif" font-size="14.00">g194 &gt; 0</text>
</g>
<!-- Node0x17c888d0 -->
<g id="node5" class="node"><title>Node0x17c888d0</title>
<polygon fill="none" stroke="black" points="1166,-636.5 1166,-689.5 1267,-689.5 1267,-636.5 1166,-636.5"/>
<text text-anchor="start" x="1174" y="-674.3" font-family="Times,serif" font-size="14.00">0x8048321:</text>
<text text-anchor="start" x="1174" y="-659.3" font-family="Times,serif" font-size="14.00"> g3 = v1</text>
<text text-anchor="start" x="1174" y="-644.3" font-family="Times,serif" font-size="14.00"> return 0</text>
</g>
<!-- Node0x17c88770&#45;&gt;Node0x17c888d0 -->
<g id="edge4" class="edge"><title>Node0x17c88770&#45;&gt;Node0x17c888d0</title>
<path fill="none" stroke="black" d="M1095.22,-796.35C1117.31,-772.24 1157.99,-727.844 1186.11,-697.161"/>
<polygon fill="black" stroke="black" points="1188.8,-699.413 1192.97,-689.676 1183.63,-694.684 1188.8,-699.413"/>
<text text-anchor="middle" x="1164" y="-766.8" font-family="Times,serif" font-size="14.00">g194 &lt;= 0</text>
</g>
<!-- Node0x17c87fa0 -->
<g id="node6" class="node"><title>Node0x17c87fa0</title>
<polygon fill="none" stroke="black" points="567,-581.5 567,-617.5 664,-617.5 664,-581.5 567,-581.5"/>
<text text-anchor="start" x="575" y="-595.8" font-family="Times,serif" font-size="14.00">while True:</text>
</g>
<!-- Node0x17c88310&#45;&gt;Node0x17c87fa0 -->
<g id="edge5" class="edge"><title>Node0x17c88310&#45;&gt;Node0x17c87fa0</title>
<path fill="none" stroke="black" d="M951.486,-714.626C889.523,-693.578 752.398,-647.001 673.826,-620.312"/>
<polygon fill="black" stroke="black" points="674.67,-616.902 664.076,-617 672.419,-623.53 674.67,-616.902"/>
</g>
<!-- Node0x17c87760 -->
<g id="node7" class="node"><title>Node0x17c87760</title>
<polygon fill="none" stroke="black" points="771.5,-23.5 771.5,-59.5 825.5,-59.5 825.5,-23.5 771.5,-23.5"/>
<text text-anchor="start" x="779.5" y="-37.8" font-family="Times,serif" font-size="14.00">exit:</text>
</g>
<!-- Node0x17c888d0&#45;&gt;Node0x17c87760 -->
<g id="edge6" class="edge"><title>Node0x17c888d0&#45;&gt;Node0x17c87760</title>
<path fill="none" stroke="black" d="M1267.23,-656.299C1359.08,-644.557 1543.5,-613.841 1543.5,-556.5 1543.5,-556.5 1543.5,-556.5 1543.5,-123 1543.5,-51.0613 987.323,-43.3399 836.075,-42.5701"/>
<polygon fill="black" stroke="black" points="835.914,-39.0695 825.898,-42.5259 835.883,-46.0694 835.914,-39.0695"/>
</g>
<!-- Node0x17c8ab10 -->
<g id="node8" class="node"><title>Node0x17c8ab10</title>
<polygon fill="none" stroke="black" points="325.5,-493.5 325.5,-529.5 905.5,-529.5 905.5,-493.5 325.5,-493.5"/>
<text text-anchor="start" x="333.5" y="-507.8" font-family="Times,serif" font-size="14.00">str = *(IntToPtrCastExpr&lt;ptr&gt;((PtrToIntCastExpr&lt;int32&gt;(g193) + (4 * v3))))</text>
</g>
<!-- Node0x17c87fa0&#45;&gt;Node0x17c8ab10 -->
<g id="edge7" class="edge"><title>Node0x17c87fa0&#45;&gt;Node0x17c8ab10</title>
<path fill="none" stroke="black" d="M615.5,-581.097C615.5,-569.246 615.5,-553.317 615.5,-539.792"/>
<polygon fill="black" stroke="black" points="619,-539.584 615.5,-529.584 612,-539.584 619,-539.584"/>
<text text-anchor="middle" x="632.5" y="-551.8" font-family="Times,serif" font-size="14.00">True</text>
</g>
<!-- Node0x17c8ab70 -->
<g id="node9" class="node"><title>Node0x17c8ab70</title>
<polygon fill="none" stroke="black" points="231,-419.5 231,-455.5 1000,-455.5 1000,-419.5 231,-419.5"/>
<text text-anchor="start" x="239" y="-433.8" font-family="Times,serif" font-size="14.00">if (strcmp(IntToPtrCastExpr&lt;ptr&gt;(str), IntToPtrCastExpr&lt;ptr&gt;(PtrToIntCastExpr&lt;int32&gt;(str2))) != 0):</text>
</g>
<!-- Node0x17c8ab10&#45;&gt;Node0x17c8ab70 -->
<g id="edge8" class="edge"><title>Node0x17c8ab10&#45;&gt;Node0x17c8ab70</title>
<path fill="none" stroke="black" d="M615.5,-493.437C615.5,-485.307 615.5,-475.376 615.5,-466.205"/>
<polygon fill="black" stroke="black" points="619,-465.941 615.5,-455.941 612,-465.941 619,-465.941"/>
</g>
<!-- Node0x17c8a3f0 -->
<g id="node10" class="node"><title>Node0x17c8a3f0</title>
<polygon fill="none" stroke="black" points="50,-329.5 50,-367.5 163,-367.5 163,-329.5 50,-329.5"/>
<text text-anchor="start" x="58" y="-352.3" font-family="Times,serif" font-size="14.00">v4 = (v2 + 1)</text>
<text text-anchor="start" x="58" y="-337.3" font-family="Times,serif" font-size="14.00"> v2 = v4</text>
</g>
<!-- Node0x17c8ab70&#45;&gt;Node0x17c8a3f0 -->
<g id="edge9" class="edge"><title>Node0x17c8ab70&#45;&gt;Node0x17c8a3f0</title>
<path fill="none" stroke="black" d="M230.98,-431.321C141.44,-426.196 67.5625,-417.042 52.5,-401 43.7945,-391.728 49.707,-381.994 60.3063,-373.516"/>
<polygon fill="black" stroke="black" points="62.5557,-376.212 68.7106,-367.588 58.5212,-370.492 62.5557,-376.212"/>
<text text-anchor="middle" x="414.5" y="-389.8" font-family="Times,serif" font-size="14.00">strcmp(IntToPtrCastExpr&lt;ptr&gt;(str), IntToPtrCastExpr&lt;ptr&gt;(PtrToIntCastExpr&lt;int32&gt;(str2))) != 0</text>
</g>
<!-- Node0x17c88b30 -->
<g id="node11" class="node"><title>Node0x17c88b30</title>
<polygon fill="none" stroke="black" points="748,-257.5 748,-310.5 849,-310.5 849,-257.5 748,-257.5"/>
<text text-anchor="start" x="756" y="-295.3" font-family="Times,serif" font-size="14.00">0x8048321:</text>
<text text-anchor="start" x="756" y="-280.3" font-family="Times,serif" font-size="14.00"> g3 = v1</text>
<text text-anchor="start" x="756" y="-265.3" font-family="Times,serif" font-size="14.00"> return 1</text>
</g>
<!-- Node0x17c8ab70&#45;&gt;Node0x17c88b30 -->
<g id="edge10" class="edge"><title>Node0x17c8ab70&#45;&gt;Node0x17c88b30</title>
<path fill="none" stroke="black" d="M733.935,-419.404C753.226,-414.52 769.273,-408.445 776.5,-401 796.83,-380.06 801.351,-346.529 801.359,-320.891"/>
<polygon fill="black" stroke="black" points="804.857,-320.717 801.136,-310.797 797.858,-320.872 804.857,-320.717"/>
<text text-anchor="middle" x="1152.5" y="-389.8" font-family="Times,serif" font-size="14.00">strcmp(IntToPtrCastExpr&lt;ptr&gt;(str), IntToPtrCastExpr&lt;ptr&gt;(PtrToIntCastExpr&lt;int32&gt;(str2))) == 0</text>
</g>
<!-- Node0x17c88ce0 -->
<g id="node12" class="node"><title>Node0x17c88ce0</title>
<polygon fill="none" stroke="black" points="46.5,-202.5 46.5,-238.5 178.5,-238.5 178.5,-202.5 46.5,-202.5"/>
<text text-anchor="start" x="54.5" y="-216.8" font-family="Times,serif" font-size="14.00">if (v4 &gt;= g194):</text>
</g>
<!-- Node0x17c8a3f0&#45;&gt;Node0x17c88ce0 -->
<g id="edge11" class="edge"><title>Node0x17c8a3f0&#45;&gt;Node0x17c88ce0</title>
<path fill="none" stroke="black" d="M107.36,-329.447C108.365,-308.345 110.038,-273.205 111.201,-248.773"/>
<polygon fill="black" stroke="black" points="114.701,-248.866 111.68,-238.71 107.709,-248.532 114.701,-248.866"/>
</g>
<!-- Node0x17c88b30&#45;&gt;Node0x17c87760 -->
<g id="edge12" class="edge"><title>Node0x17c88b30&#45;&gt;Node0x17c87760</title>
<path fill="none" stroke="black" d="M798.5,-257.262C798.5,-211.507 798.5,-116.436 798.5,-69.672"/>
<polygon fill="black" stroke="black" points="802,-69.6695 798.5,-59.6695 795,-69.6696 802,-69.6695"/>
</g>
<!-- Node0xbba16f0 -->
<g id="node13" class="node"><title>Node0xbba16f0</title>
<polygon fill="none" stroke="black" points="529,-97.5 529,-150.5 630,-150.5 630,-97.5 529,-97.5"/>
<text text-anchor="start" x="537" y="-135.3" font-family="Times,serif" font-size="14.00">0x8048321:</text>
<text text-anchor="start" x="537" y="-120.3" font-family="Times,serif" font-size="14.00"> g3 = v1</text>
<text text-anchor="start" x="537" y="-105.3" font-family="Times,serif" font-size="14.00"> return 0</text>
</g>
<!-- Node0x17c88ce0&#45;&gt;Node0xbba16f0 -->
<g id="edge13" class="edge"><title>Node0x17c88ce0&#45;&gt;Node0xbba16f0</title>
<path fill="none" stroke="black" d="M178.914,-206.061C269.628,-187.704 430.996,-155.051 518.688,-137.306"/>
<polygon fill="black" stroke="black" points="519.642,-140.684 528.749,-135.27 518.254,-133.823 519.642,-140.684"/>
<text text-anchor="middle" x="404" y="-172.8" font-family="Times,serif" font-size="14.00">v4 &gt;= g194</text>
</g>
<!-- Node0x44049c0 -->
<g id="node14" class="node"><title>Node0x44049c0</title>
<polygon fill="none" stroke="black" points="0,-97.5 0,-150.5 101,-150.5 101,-97.5 0,-97.5"/>
<text text-anchor="start" x="8" y="-135.3" font-family="Times,serif" font-size="14.00">0x8048316:</text>
<text text-anchor="start" x="8" y="-120.3" font-family="Times,serif" font-size="14.00"> v3 = v4</text>
<text text-anchor="start" x="8" y="-105.3" font-family="Times,serif" font-size="14.00"> continue</text>
</g>
<!-- Node0x17c88ce0&#45;&gt;Node0x44049c0 -->
<g id="edge14" class="edge"><title>Node0x17c88ce0&#45;&gt;Node0x44049c0</title>
<path fill="none" stroke="black" d="M101.128,-202.167C93.3117,-190.253 82.6668,-174.028 73.1545,-159.53"/>
<polygon fill="black" stroke="black" points="75.8256,-157.221 67.4136,-150.78 69.9729,-161.061 75.8256,-157.221"/>
<text text-anchor="middle" x="127" y="-172.8" font-family="Times,serif" font-size="14.00">v4 &lt; g194</text>
</g>
<!-- Node0xbba16f0&#45;&gt;Node0x17c87760 -->
<g id="edge15" class="edge"><title>Node0xbba16f0&#45;&gt;Node0x17c87760</title>
<path fill="none" stroke="black" d="M630.018,-104.431C670.2,-89.6606 725.485,-69.3388 761.597,-56.0647"/>
<polygon fill="black" stroke="black" points="763.068,-59.2533 771.246,-52.518 760.652,-52.6831 763.068,-59.2533"/>
</g>
<!-- Node0x44049c0&#45;&gt;Node0x17c87fa0 -->
<g id="edge16" class="edge"><title>Node0x44049c0&#45;&gt;Node0x17c87fa0</title>
<path fill="none" stroke="black" d="M36.7434,-150.688C28.0703,-169.261 18.5,-195.25 18.5,-219.5 18.5,-512.5 18.5,-512.5 18.5,-512.5 18.5,-566.475 405.734,-589.292 556.463,-596.129"/>
<polygon fill="black" stroke="black" points="556.752,-599.645 566.898,-596.594 557.064,-592.652 556.752,-599.645"/>
</g>
</g>
</svg>
