<?xml version="1.0" encoding="UTF-8" standalone="no"?>
<!DOCTYPE svg PUBLIC "-//W3C//DTD SVG 1.1//EN"
 "http://www.w3.org/Graphics/SVG/1.1/DTD/svg11.dtd">
<!-- Generated by graphviz version 2.38.0 (20140413.2041)
 -->
<!-- Title: Control&#45;flow graph for function &#39;mbedtls_gcm_free(*a1)&#39;. Pages: 1 -->
<svg width="501pt" height="444pt"
 viewBox="0.00 0.00 500.50 444.00" xmlns="http://www.w3.org/2000/svg" xmlns:xlink="http://www.w3.org/1999/xlink">
<g id="graph0" class="graph" transform="scale(1 1) rotate(0) translate(4 440)">
<title>Control&#45;flow graph for function &#39;mbedtls_gcm_free(*a1)&#39;.</title>
<polygon fill="white" stroke="none" points="-4,4 -4,-440 496.5,-440 496.5,4 -4,4"/>
<text text-anchor="middle" x="246.25" y="-7.8" font-family="Times,serif" font-size="14.00">Control&#45;flow graph for function &#39;mbedtls_gcm_free(*a1)&#39;.</text>
<!-- Node0xa078400 -->
<g id="node1" class="node"><title>Node0xa078400</title>
<polygon fill="none" stroke="black" points="279,-397.5 279,-435.5 338,-435.5 338,-397.5 279,-397.5"/>
<text text-anchor="start" x="287" y="-420.3" font-family="Times,serif" font-size="14.00">entry:</text>
<text text-anchor="start" x="287" y="-405.3" font-family="Times,serif" font-size="14.00"> a1</text>
</g>
<!-- Node0xa709fd0 -->
<g id="node2" class="node"><title>Node0xa709fd0</title>
<polygon fill="none" stroke="black" points="170,-276.5 170,-359.5 447,-359.5 447,-276.5 170,-276.5"/>
<text text-anchor="start" x="178" y="-344.3" font-family="Times,serif" font-size="14.00">v1 = g3</text>
<text text-anchor="start" x="178" y="-329.3" font-family="Times,serif" font-size="14.00"> g3 = PtrToIntCastExpr&lt;int32&gt;(a1)</text>
<text text-anchor="start" x="178" y="-314.3" font-family="Times,serif" font-size="14.00"> mbedtls_cipher_free(a1, 0)</text>
<text text-anchor="start" x="178" y="-299.3" font-family="Times,serif" font-size="14.00"> *(IntToPtrCastExpr&lt;ptr&gt;(g3)) = 0</text>
<text text-anchor="start" x="178" y="-284.3" font-family="Times,serif" font-size="14.00"> result = (g3 + 1)</text>
</g>
<!-- Node0xa078400&#45;&gt;Node0xa709fd0 -->
<g id="edge1" class="edge"><title>Node0xa078400&#45;&gt;Node0xa709fd0</title>
<path fill="none" stroke="black" d="M308.5,-397.349C308.5,-389.488 308.5,-379.852 308.5,-370.061"/>
<polygon fill="black" stroke="black" points="312,-369.87 308.5,-359.87 305,-369.87 312,-369.87"/>
</g>
<!-- Node0xa077c30 -->
<g id="node3" class="node"><title>Node0xa077c30</title>
<polygon fill="none" stroke="black" points="198.5,-202.5 198.5,-238.5 418.5,-238.5 418.5,-202.5 198.5,-202.5"/>
<text text-anchor="start" x="206.5" y="-216.8" font-family="Times,serif" font-size="14.00">while (result != (g3 + 388)):</text>
</g>
<!-- Node0xa709fd0&#45;&gt;Node0xa077c30 -->
<g id="edge2" class="edge"><title>Node0xa709fd0&#45;&gt;Node0xa077c30</title>
<path fill="none" stroke="black" d="M308.5,-276.499C308.5,-267.206 308.5,-257.537 308.5,-248.946"/>
<polygon fill="black" stroke="black" points="312,-248.749 308.5,-238.749 305,-248.749 312,-248.749"/>
</g>
<!-- Node0x1cf1f1e0 -->
<g id="node4" class="node"><title>Node0x1cf1f1e0</title>
<polygon fill="none" stroke="black" points="0,-97.5 0,-150.5 295,-150.5 295,-97.5 0,-97.5"/>
<text text-anchor="start" x="8" y="-135.3" font-family="Times,serif" font-size="14.00">0x806c3d0:</text>
<text text-anchor="start" x="8" y="-120.3" font-family="Times,serif" font-size="14.00"> *(IntToPtrCastExpr&lt;ptr&gt;(result)) = 0</text>
<text text-anchor="start" x="8" y="-105.3" font-family="Times,serif" font-size="14.00"> result = (result + 1)</text>
</g>
<!-- Node0xa077c30&#45;&gt;Node0x1cf1f1e0 -->
<g id="edge3" class="edge"><title>Node0xa077c30&#45;&gt;Node0x1cf1f1e0</title>
<path fill="none" stroke="black" d="M198.282,-205.307C175.412,-200.094 155.968,-193.147 148.5,-184 143.203,-177.512 141.187,-169.151 140.897,-160.774"/>
<polygon fill="black" stroke="black" points="144.399,-160.803 141.295,-150.673 137.404,-160.528 144.399,-160.803"/>
<text text-anchor="middle" x="221.5" y="-172.8" font-family="Times,serif" font-size="14.00">result != (g3 + 388)</text>
</g>
<!-- Node0x1cf1d7e0 -->
<g id="node5" class="node"><title>Node0x1cf1d7e0</title>
<polygon fill="none" stroke="black" points="313,-97.5 313,-150.5 426,-150.5 426,-97.5 313,-97.5"/>
<text text-anchor="start" x="321" y="-135.3" font-family="Times,serif" font-size="14.00">0x806c3da:</text>
<text text-anchor="start" x="321" y="-120.3" font-family="Times,serif" font-size="14.00"> g3 = v1</text>
<text text-anchor="start" x="321" y="-105.3" font-family="Times,serif" font-size="14.00"> return result</text>
</g>
<!-- Node0xa077c30&#45;&gt;Node0x1cf1d7e0 -->
<g id="edge4" class="edge"><title>Node0xa077c30&#45;&gt;Node0x1cf1d7e0</title>
<path fill="none" stroke="black" d="M319.688,-202.167C327.379,-190.253 337.852,-174.028 347.211,-159.53"/>
<polygon fill="black" stroke="black" points="350.376,-161.079 352.859,-150.78 344.495,-157.283 350.376,-161.079"/>
<text text-anchor="middle" x="416.5" y="-172.8" font-family="Times,serif" font-size="14.00">result == (g3 + 388)</text>
</g>
<!-- Node0x1cf1f1e0&#45;&gt;Node0xa077c30 -->
<g id="edge5" class="edge"><title>Node0x1cf1f1e0&#45;&gt;Node0xa077c30</title>
<path fill="none" stroke="black" d="M270.332,-150.649C279.195,-155.716 287.415,-161.769 294.5,-169 300.656,-175.283 304.16,-184.024 306.135,-192.47"/>
<polygon fill="black" stroke="black" points="302.707,-193.185 307.864,-202.44 309.604,-191.989 302.707,-193.185"/>
</g>
<!-- Node0x1cf1cd80 -->
<g id="node6" class="node"><title>Node0x1cf1cd80</title>
<polygon fill="none" stroke="black" points="342.5,-23.5 342.5,-59.5 396.5,-59.5 396.5,-23.5 342.5,-23.5"/>
<text text-anchor="start" x="350.5" y="-37.8" font-family="Times,serif" font-size="14.00">exit:</text>
</g>
<!-- Node0x1cf1d7e0&#45;&gt;Node0x1cf1cd80 -->
<g id="edge6" class="edge"><title>Node0x1cf1d7e0&#45;&gt;Node0x1cf1cd80</title>
<path fill="none" stroke="black" d="M369.5,-97.0862C369.5,-88.4596 369.5,-78.8224 369.5,-70.0748"/>
<polygon fill="black" stroke="black" points="373,-69.9735 369.5,-59.9735 366,-69.9735 373,-69.9735"/>
</g>
</g>
</svg>
