<?xml version="1.0" encoding="UTF-8" standalone="no"?>
<!DOCTYPE svg PUBLIC "-//W3C//DTD SVG 1.1//EN"
 "http://www.w3.org/Graphics/SVG/1.1/DTD/svg11.dtd">
<!-- Generated by graphviz version 2.38.0 (20140413.2041)
 -->
<!-- Title: Control&#45;flow graph for function &#39;mbedtls_rsa_check_pubkey(a1)&#39;. Pages: 1 -->
<svg width="1478pt" height="1477pt"
 viewBox="0.00 0.00 1477.50 1477.00" xmlns="http://www.w3.org/2000/svg" xmlns:xlink="http://www.w3.org/1999/xlink">
<g id="graph0" class="graph" transform="scale(1 1) rotate(0) translate(4 1473)">
<title>Control&#45;flow graph for function &#39;mbedtls_rsa_check_pubkey(a1)&#39;.</title>
<polygon fill="white" stroke="none" points="-4,4 -4,-1473 1473.5,-1473 1473.5,4 -4,4"/>
<text text-anchor="middle" x="734.75" y="-7.8" font-family="Times,serif" font-size="14.00">Control&#45;flow graph for function &#39;mbedtls_rsa_check_pubkey(a1)&#39;.</text>
<!-- Node0x92a21a0 -->
<g id="node1" class="node"><title>Node0x92a21a0</title>
<polygon fill="none" stroke="black" points="148,-1430.5 148,-1468.5 207,-1468.5 207,-1430.5 148,-1430.5"/>
<text text-anchor="start" x="156" y="-1453.3" font-family="Times,serif" font-size="14.00">entry:</text>
<text text-anchor="start" x="156" y="-1438.3" font-family="Times,serif" font-size="14.00"> a1</text>
</g>
<!-- Node0x92a3f40 -->
<g id="node2" class="node"><title>Node0x92a3f40</title>
<polygon fill="none" stroke="black" points="13.5,-1324.5 13.5,-1392.5 341.5,-1392.5 341.5,-1324.5 13.5,-1324.5"/>
<text text-anchor="start" x="21.5" y="-1377.3" font-family="Times,serif" font-size="14.00">v1 = g3</text>
<text text-anchor="start" x="21.5" y="-1362.3" font-family="Times,serif" font-size="14.00"> g3 = a1</text>
<text text-anchor="start" x="21.5" y="-1347.3" font-family="Times,serif" font-size="14.00"> v2 = g7</text>
<text text-anchor="start" x="21.5" y="-1332.3" font-family="Times,serif" font-size="14.00"> v3 = *(IntToPtrCastExpr&lt;ptr&gt;((a1 + 16)))</text>
</g>
<!-- Node0x92a21a0&#45;&gt;Node0x92a3f40 -->
<g id="edge1" class="edge"><title>Node0x92a21a0&#45;&gt;Node0x92a3f40</title>
<path fill="none" stroke="black" d="M177.5,-1430.49C177.5,-1422.42 177.5,-1412.53 177.5,-1402.72"/>
<polygon fill="black" stroke="black" points="181,-1402.6 177.5,-1392.6 174,-1402.6 181,-1402.6"/>
</g>
<!-- Node0x92a2e50 -->
<g id="node3" class="node"><title>Node0x92a2e50</title>
<polygon fill="none" stroke="black" points="125,-1250.5 125,-1286.5 230,-1286.5 230,-1250.5 125,-1250.5"/>
<text text-anchor="start" x="133" y="-1264.8" font-family="Times,serif" font-size="14.00">if (v3 == 0):</text>
</g>
<!-- Node0x92a3f40&#45;&gt;Node0x92a2e50 -->
<g id="edge2" class="edge"><title>Node0x92a3f40&#45;&gt;Node0x92a2e50</title>
<path fill="none" stroke="black" d="M177.5,-1324.48C177.5,-1315.33 177.5,-1305.5 177.5,-1296.72"/>
<polygon fill="black" stroke="black" points="181,-1296.64 177.5,-1286.64 174,-1296.64 181,-1296.64"/>
</g>
<!-- Node0x92a4b00 -->
<g id="node4" class="node"><title>Node0x92a4b00</title>
<polygon fill="none" stroke="black" points="0,-1058.5 0,-1141.5 121,-1141.5 121,-1058.5 0,-1058.5"/>
<text text-anchor="start" x="8" y="-1126.3" font-family="Times,serif" font-size="14.00">0x804f776:</text>
<text text-anchor="start" x="8" y="-1111.3" font-family="Times,serif" font-size="14.00"> g1 = &#45;16896</text>
<text text-anchor="start" x="8" y="-1096.3" font-family="Times,serif" font-size="14.00"> g3 = v1</text>
<text text-anchor="start" x="8" y="-1081.3" font-family="Times,serif" font-size="14.00"> g7 = v2</text>
<text text-anchor="start" x="8" y="-1066.3" font-family="Times,serif" font-size="14.00"> return &#45;16896</text>
</g>
<!-- Node0x92a2e50&#45;&gt;Node0x92a4b00 -->
<g id="edge3" class="edge"><title>Node0x92a2e50&#45;&gt;Node0x92a4b00</title>
<path fill="none" stroke="black" d="M165.42,-1250.31C148.949,-1226.87 118.779,-1183.94 95.0041,-1150.1"/>
<polygon fill="black" stroke="black" points="97.7229,-1147.88 89.1097,-1141.71 91.9955,-1151.91 97.7229,-1147.88"/>
<text text-anchor="middle" x="182.5" y="-1220.8" font-family="Times,serif" font-size="14.00">v3 == 0</text>
</g>
<!-- Node0x92a30b0 -->
<g id="node5" class="node"><title>Node0x92a30b0</title>
<polygon fill="none" stroke="black" points="236,-1160.5 236,-1198.5 559,-1198.5 559,-1160.5 236,-1160.5"/>
<text text-anchor="start" x="244" y="-1183.3" font-family="Times,serif" font-size="14.00">v4 = *(IntToPtrCastExpr&lt;ptr&gt;((a1 + 28)))</text>
<text text-anchor="start" x="244" y="-1168.3" font-family="Times,serif" font-size="14.00"> g6 = v4</text>
</g>
<!-- Node0x92a2e50&#45;&gt;Node0x92a30b0 -->
<g id="edge4" class="edge"><title>Node0x92a2e50&#45;&gt;Node0x92a30b0</title>
<path fill="none" stroke="black" d="M220.702,-1250.42C255.541,-1236.64 304.767,-1217.17 342.433,-1202.28"/>
<polygon fill="black" stroke="black" points="343.731,-1205.53 351.744,-1198.59 341.157,-1199.02 343.731,-1205.53"/>
<text text-anchor="middle" x="328.5" y="-1220.8" font-family="Times,serif" font-size="14.00">v3 != 0</text>
</g>
<!-- Node0x92a3ec0 -->
<g id="node6" class="node"><title>Node0x92a3ec0</title>
<polygon fill="none" stroke="black" points="173.5,-23.5 173.5,-59.5 227.5,-59.5 227.5,-23.5 173.5,-23.5"/>
<text text-anchor="start" x="181.5" y="-37.8" font-family="Times,serif" font-size="14.00">exit:</text>
</g>
<!-- Node0x92a4b00&#45;&gt;Node0x92a3ec0 -->
<g id="edge5" class="edge"><title>Node0x92a4b00&#45;&gt;Node0x92a3ec0</title>
<path fill="none" stroke="black" d="M54.4297,-1058.38C51.4533,-1035.06 48.5,-1005.2 48.5,-978.5 48.5,-978.5 48.5,-978.5 48.5,-138 48.5,-83.9328 118.306,-59.2877 163.306,-49.0175"/>
<polygon fill="black" stroke="black" points="164.28,-52.3884 173.325,-46.8721 162.814,-45.5436 164.28,-52.3884"/>
</g>
<!-- Node0x92a31c0 -->
<g id="node7" class="node"><title>Node0x92a31c0</title>
<polygon fill="none" stroke="black" points="76,-1003.5 76,-1039.5 793,-1039.5 793,-1003.5 76,-1003.5"/>
<text text-anchor="start" x="84" y="-1017.8" font-family="Times,serif" font-size="14.00">if ((v4 == 0) or ((*(IntToPtrCastExpr&lt;ptr&gt;(v3)) == 1) or (*(IntToPtrCastExpr&lt;ptr&gt;(v4)) == 1))):</text>
</g>
<!-- Node0x92a30b0&#45;&gt;Node0x92a31c0 -->
<g id="edge6" class="edge"><title>Node0x92a30b0&#45;&gt;Node0x92a31c0</title>
<path fill="none" stroke="black" d="M401.817,-1160.3C408.291,-1133 420.556,-1081.29 428.081,-1049.56"/>
<polygon fill="black" stroke="black" points="431.534,-1050.17 430.436,-1039.63 424.723,-1048.56 431.534,-1050.17"/>
</g>
<!-- Node0x15be5280 -->
<g id="node8" class="node"><title>Node0x15be5280</title>
<polygon fill="none" stroke="black" points="64,-796.5 64,-879.5 185,-879.5 185,-796.5 64,-796.5"/>
<text text-anchor="start" x="72" y="-864.3" font-family="Times,serif" font-size="14.00">0x804f776:</text>
<text text-anchor="start" x="72" y="-849.3" font-family="Times,serif" font-size="14.00"> g1 = &#45;16896</text>
<text text-anchor="start" x="72" y="-834.3" font-family="Times,serif" font-size="14.00"> g3 = v1</text>
<text text-anchor="start" x="72" y="-819.3" font-family="Times,serif" font-size="14.00"> g7 = v2</text>
<text text-anchor="start" x="72" y="-804.3" font-family="Times,serif" font-size="14.00"> return &#45;16896</text>
</g>
<!-- Node0x92a31c0&#45;&gt;Node0x15be5280 -->
<g id="edge7" class="edge"><title>Node0x92a31c0&#45;&gt;Node0x15be5280</title>
<path fill="none" stroke="black" d="M179.612,-1003.5C142.437,-998.634 114.269,-992.544 107.5,-985 84.5642,-959.439 90.441,-920.405 101.175,-889.127"/>
<polygon fill="black" stroke="black" points="104.478,-890.286 104.636,-879.692 97.9064,-887.875 104.478,-890.286"/>
<text text-anchor="middle" x="443.5" y="-973.8" font-family="Times,serif" font-size="14.00">(v4 == 0) or ((*(IntToPtrCastExpr&lt;ptr&gt;(v3)) == 1) or (*(IntToPtrCastExpr&lt;ptr&gt;(v4)) == 1))</text>
</g>
<!-- Node0x92a4aa0 -->
<g id="node9" class="node"><title>Node0x92a4aa0</title>
<polygon fill="none" stroke="black" points="742,-898.5 742,-951.5 855,-951.5 855,-898.5 742,-898.5"/>
<text text-anchor="start" x="750" y="-936.3" font-family="Times,serif" font-size="14.00">v5 = (a1 + 8)</text>
<text text-anchor="start" x="750" y="-921.3" font-family="Times,serif" font-size="14.00"> g7 = v5</text>
<text text-anchor="start" x="750" y="-906.3" font-family="Times,serif" font-size="14.00"> v6</text>
</g>
<!-- Node0x92a31c0&#45;&gt;Node0x92a4aa0 -->
<g id="edge8" class="edge"><title>Node0x92a31c0&#45;&gt;Node0x92a4aa0</title>
<path fill="none" stroke="black" d="M698.648,-1003.49C741.54,-998.551 774.881,-992.432 783.5,-985 790.42,-979.032 794.377,-970.366 796.583,-961.504"/>
<polygon fill="black" stroke="black" points="800.047,-962.014 798.394,-951.549 793.16,-960.762 800.047,-962.014"/>
<text text-anchor="middle" x="1131.5" y="-973.8" font-family="Times,serif" font-size="14.00">(v4 != 0) and ((*(IntToPtrCastExpr&lt;ptr&gt;(v3)) != 1) and (*(IntToPtrCastExpr&lt;ptr&gt;(v4)) != 1))</text>
</g>
<!-- Node0x15be5280&#45;&gt;Node0x92a3ec0 -->
<g id="edge9" class="edge"><title>Node0x15be5280&#45;&gt;Node0x92a3ec0</title>
<path fill="none" stroke="black" d="M124.5,-796.283C124.5,-772.932 124.5,-743.069 124.5,-716.5 124.5,-716.5 124.5,-716.5 124.5,-138 124.5,-108.818 146.495,-83.3959 166.82,-66.1333"/>
<polygon fill="black" stroke="black" points="169.197,-68.7115 174.77,-59.7004 164.794,-63.2697 169.197,-68.7115"/>
</g>
<!-- Node0x92a4200 -->
<g id="node10" class="node"><title>Node0x92a4200</title>
<polygon fill="none" stroke="black" points="471,-741.5 471,-777.5 1058,-777.5 1058,-741.5 471,-741.5"/>
<text text-anchor="start" x="479" y="-755.8" font-family="Times,serif" font-size="14.00">if ((mbedtls_mpi_bitlen(v5, v6) &lt; 128) or (mbedtls_mpi_bitlen(g7, v6) &gt; 8192)):</text>
</g>
<!-- Node0x92a4aa0&#45;&gt;Node0x92a4200 -->
<g id="edge10" class="edge"><title>Node0x92a4aa0&#45;&gt;Node0x92a4200</title>
<path fill="none" stroke="black" d="M793.188,-898.453C786.939,-868.406 776.608,-818.724 770.197,-787.897"/>
<polygon fill="black" stroke="black" points="773.569,-786.921 768.106,-777.843 766.716,-788.346 773.569,-786.921"/>
</g>
<!-- Node0x15be5300 -->
<g id="node11" class="node"><title>Node0x15be5300</title>
<polygon fill="none" stroke="black" points="140,-549.5 140,-632.5 261,-632.5 261,-549.5 140,-549.5"/>
<text text-anchor="start" x="148" y="-617.3" font-family="Times,serif" font-size="14.00">0x804f776:</text>
<text text-anchor="start" x="148" y="-602.3" font-family="Times,serif" font-size="14.00"> g1 = &#45;16896</text>
<text text-anchor="start" x="148" y="-587.3" font-family="Times,serif" font-size="14.00"> g3 = v1</text>
<text text-anchor="start" x="148" y="-572.3" font-family="Times,serif" font-size="14.00"> g7 = v2</text>
<text text-anchor="start" x="148" y="-557.3" font-family="Times,serif" font-size="14.00"> return &#45;16896</text>
</g>
<!-- Node0x92a4200&#45;&gt;Node0x15be5300 -->
<g id="edge11" class="edge"><title>Node0x92a4200&#45;&gt;Node0x15be5300</title>
<path fill="none" stroke="black" d="M470.953,-756.617C346.624,-752.745 225.59,-743.605 205.5,-723 185.423,-702.409 183.948,-670.23 187.602,-642.919"/>
<polygon fill="black" stroke="black" points="191.109,-643.15 189.225,-632.724 184.196,-642.049 191.109,-643.15"/>
<text text-anchor="middle" x="476" y="-711.8" font-family="Times,serif" font-size="14.00">(mbedtls_mpi_bitlen(v5, v6) &lt; 128) or (mbedtls_mpi_bitlen(g7, v6) &gt; 8192)</text>
</g>
<!-- Node0x15be4480 -->
<g id="node12" class="node"><title>Node0x15be4480</title>
<polygon fill="none" stroke="black" points="678.5,-651.5 678.5,-689.5 800.5,-689.5 800.5,-651.5 678.5,-651.5"/>
<text text-anchor="start" x="686.5" y="-674.3" font-family="Times,serif" font-size="14.00">v7 = (g3 + 20)</text>
<text text-anchor="start" x="686.5" y="-659.3" font-family="Times,serif" font-size="14.00"> g3 = v7</text>
</g>
<!-- Node0x92a4200&#45;&gt;Node0x15be4480 -->
<g id="edge12" class="edge"><title>Node0x92a4200&#45;&gt;Node0x15be4480</title>
<path fill="none" stroke="black" d="M759.561,-741.312C756.136,-729.394 751.499,-713.256 747.546,-699.499"/>
<polygon fill="black" stroke="black" points="750.813,-698.196 744.687,-689.551 744.085,-700.129 750.813,-698.196"/>
<text text-anchor="middle" x="1042" y="-711.8" font-family="Times,serif" font-size="14.00">(mbedtls_mpi_bitlen(v5, v6) &gt;= 128) and (mbedtls_mpi_bitlen(g7, v6) &lt;= 8192)</text>
</g>
<!-- Node0x15be5300&#45;&gt;Node0x92a3ec0 -->
<g id="edge13" class="edge"><title>Node0x15be5300&#45;&gt;Node0x92a3ec0</title>
<path fill="none" stroke="black" d="M190.833,-549.258C186.139,-526.028 181.5,-496.291 181.5,-469.5 181.5,-469.5 181.5,-469.5 181.5,-138 181.5,-114.465 187.119,-88.2845 192.246,-69.2959"/>
<polygon fill="black" stroke="black" points="195.649,-70.1243 195.004,-59.5491 188.913,-68.2179 195.649,-70.1243"/>
</g>
<!-- Node0x94a2f90 -->
<g id="node13" class="node"><title>Node0x94a2f90</title>
<polygon fill="none" stroke="black" points="472,-494.5 472,-530.5 743,-530.5 743,-494.5 472,-494.5"/>
<text text-anchor="start" x="480" y="-508.8" font-family="Times,serif" font-size="14.00">if (mbedtls_mpi_bitlen(v7, v6) &lt; 2):</text>
</g>
<!-- Node0x15be4480&#45;&gt;Node0x94a2f90 -->
<g id="edge14" class="edge"><title>Node0x15be4480&#45;&gt;Node0x94a2f90</title>
<path fill="none" stroke="black" d="M724.1,-651.3C700.501,-623.411 655.334,-570.032 628.673,-538.522"/>
<polygon fill="black" stroke="black" points="631.128,-536.006 621.997,-530.633 625.785,-540.527 631.128,-536.006"/>
</g>
<!-- Node0x15be53d0 -->
<g id="node14" class="node"><title>Node0x15be53d0</title>
<polygon fill="none" stroke="black" points="197,-287.5 197,-370.5 318,-370.5 318,-287.5 197,-287.5"/>
<text text-anchor="start" x="205" y="-355.3" font-family="Times,serif" font-size="14.00">0x804f776:</text>
<text text-anchor="start" x="205" y="-340.3" font-family="Times,serif" font-size="14.00"> g1 = &#45;16896</text>
<text text-anchor="start" x="205" y="-325.3" font-family="Times,serif" font-size="14.00"> g3 = v1</text>
<text text-anchor="start" x="205" y="-310.3" font-family="Times,serif" font-size="14.00"> g7 = v2</text>
<text text-anchor="start" x="205" y="-295.3" font-family="Times,serif" font-size="14.00"> return &#45;16896</text>
</g>
<!-- Node0x94a2f90&#45;&gt;Node0x15be53d0 -->
<g id="edge15" class="edge"><title>Node0x94a2f90&#45;&gt;Node0x15be53d0</title>
<path fill="none" stroke="black" d="M471.995,-500.067C392.308,-490.298 302.248,-472.908 276.5,-443 261.944,-426.092 256.495,-402.312 254.967,-380.926"/>
<polygon fill="black" stroke="black" points="258.452,-380.494 254.51,-370.66 251.459,-380.806 258.452,-380.494"/>
<text text-anchor="middle" x="453.5" y="-464.8" font-family="Times,serif" font-size="14.00">mbedtls_mpi_bitlen(v7, v6) &lt; 2</text>
</g>
<!-- Node0x15be4bd0 -->
<g id="node15" class="node"><title>Node0x15be4bd0</title>
<polygon fill="none" stroke="black" points="286,-389.5 286,-442.5 929,-442.5 929,-389.5 286,-389.5"/>
<text text-anchor="start" x="294" y="-427.3" font-family="Times,serif" font-size="14.00">v8 = mbedtls_mpi_cmp_mpi(IntToPtrCastExpr&lt;ptr&gt;(g3), IntToPtrCastExpr&lt;ptr&gt;(g7))</text>
<text text-anchor="start" x="294" y="-412.3" font-family="Times,serif" font-size="14.00"> g6 = v8</text>
<text text-anchor="start" x="294" y="-397.3" font-family="Times,serif" font-size="14.00"> g1 = 0</text>
</g>
<!-- Node0x94a2f90&#45;&gt;Node0x15be4bd0 -->
<g id="edge16" class="edge"><title>Node0x94a2f90&#45;&gt;Node0x15be4bd0</title>
<path fill="none" stroke="black" d="M607.5,-494.167C607.5,-482.703 607.5,-467.247 607.5,-453.178"/>
<polygon fill="black" stroke="black" points="611,-452.78 607.5,-442.78 604,-452.78 611,-452.78"/>
<text text-anchor="middle" x="726.5" y="-464.8" font-family="Times,serif" font-size="14.00">mbedtls_mpi_bitlen(v7, v6) &gt;= 2</text>
</g>
<!-- Node0x15be53d0&#45;&gt;Node0x92a3ec0 -->
<g id="edge17" class="edge"><title>Node0x15be53d0&#45;&gt;Node0x92a3ec0</title>
<path fill="none" stroke="black" d="M249.394,-287.398C237.572,-228.183 215.918,-119.724 205.876,-69.4293"/>
<polygon fill="black" stroke="black" points="209.308,-68.7397 203.918,-59.6185 202.443,-70.1102 209.308,-68.7397"/>
</g>
<!-- Node0xf74be60 -->
<g id="node16" class="node"><title>Node0xf74be60</title>
<polygon fill="none" stroke="black" points="371,-232.5 371,-268.5 476,-268.5 476,-232.5 371,-232.5"/>
<text text-anchor="start" x="379" y="-246.8" font-family="Times,serif" font-size="14.00">if (v8 &lt;= 0):</text>
</g>
<!-- Node0x15be4bd0&#45;&gt;Node0xf74be60 -->
<g id="edge18" class="edge"><title>Node0x15be4bd0&#45;&gt;Node0xf74be60</title>
<path fill="none" stroke="black" d="M578.75,-389.453C543.66,-358.273 484.778,-305.95 450.501,-275.493"/>
<polygon fill="black" stroke="black" points="452.557,-272.638 442.757,-268.611 447.907,-277.87 452.557,-272.638"/>
</g>
<!-- Node0x15be4530 -->
<g id="node17" class="node"><title>Node0x15be4530</title>
<polygon fill="none" stroke="black" points="247.5,-105 247.5,-173 345.5,-173 345.5,-105 247.5,-105"/>
<text text-anchor="start" x="255.5" y="-157.8" font-family="Times,serif" font-size="14.00">0x804f77b:</text>
<text text-anchor="start" x="255.5" y="-142.8" font-family="Times,serif" font-size="14.00"> g3 = v1</text>
<text text-anchor="start" x="255.5" y="-127.8" font-family="Times,serif" font-size="14.00"> g7 = v2</text>
<text text-anchor="start" x="255.5" y="-112.8" font-family="Times,serif" font-size="14.00"> return 0</text>
</g>
<!-- Node0xf74be60&#45;&gt;Node0x15be4530 -->
<g id="edge19" class="edge"><title>Node0xf74be60&#45;&gt;Node0x15be4530</title>
<path fill="none" stroke="black" d="M387.501,-232.484C377.953,-227.199 367.955,-220.922 359.5,-214 347.831,-204.448 336.631,-192.546 326.995,-181.099"/>
<polygon fill="black" stroke="black" points="329.633,-178.797 320.587,-173.282 324.22,-183.235 329.633,-178.797"/>
<text text-anchor="middle" x="389.5" y="-202.8" font-family="Times,serif" font-size="14.00">v8 &lt;= 0</text>
</g>
<!-- Node0x15be4d10 -->
<g id="node18" class="node"><title>Node0x15be4d10</title>
<polygon fill="none" stroke="black" points="363,-97.5 363,-180.5 484,-180.5 484,-97.5 363,-97.5"/>
<text text-anchor="start" x="371" y="-165.3" font-family="Times,serif" font-size="14.00">0x804f776:</text>
<text text-anchor="start" x="371" y="-150.3" font-family="Times,serif" font-size="14.00"> g1 = &#45;16896</text>
<text text-anchor="start" x="371" y="-135.3" font-family="Times,serif" font-size="14.00"> g3 = v1</text>
<text text-anchor="start" x="371" y="-120.3" font-family="Times,serif" font-size="14.00"> g7 = v2</text>
<text text-anchor="start" x="371" y="-105.3" font-family="Times,serif" font-size="14.00"> return &#45;16896</text>
</g>
<!-- Node0xf74be60&#45;&gt;Node0x15be4d10 -->
<g id="edge20" class="edge"><title>Node0xf74be60&#45;&gt;Node0x15be4d10</title>
<path fill="none" stroke="black" d="M423.5,-232.391C423.5,-221.15 423.5,-205.807 423.5,-190.853"/>
<polygon fill="black" stroke="black" points="427,-190.618 423.5,-180.618 420,-190.618 427,-190.618"/>
<text text-anchor="middle" x="447.5" y="-202.8" font-family="Times,serif" font-size="14.00">v8 &gt; 0</text>
</g>
<!-- Node0x15be4530&#45;&gt;Node0x92a3ec0 -->
<g id="edge21" class="edge"><title>Node0x15be4530&#45;&gt;Node0x92a3ec0</title>
<path fill="none" stroke="black" d="M263.193,-104.867C250.666,-92.4045 236.661,-78.4723 225.07,-66.9423"/>
<polygon fill="black" stroke="black" points="227.4,-64.3233 217.842,-59.752 222.463,-69.2859 227.4,-64.3233"/>
</g>
<!-- Node0x15be4d10&#45;&gt;Node0x92a3ec0 -->
<g id="edge22" class="edge"><title>Node0x15be4d10&#45;&gt;Node0x92a3ec0</title>
<path fill="none" stroke="black" d="M362.899,-101.116C360.084,-99.6804 357.276,-98.3006 354.5,-97 315.684,-78.8139 269.021,-63.1047 237.308,-53.2869"/>
<polygon fill="black" stroke="black" points="238.152,-49.8851 227.566,-50.3107 236.107,-56.5797 238.152,-49.8851"/>
</g>
</g>
</svg>
