<?xml version="1.0" encoding="UTF-8" standalone="no"?>
<!DOCTYPE svg PUBLIC "-//W3C//DTD SVG 1.1//EN"
 "http://www.w3.org/Graphics/SVG/1.1/DTD/svg11.dtd">
<!-- Generated by graphviz version 2.38.0 (20140413.2041)
 -->
<!-- Title: Control&#45;flow graph for function &#39;aes_setkey_dec_wrap(a1)&#39;. Pages: 1 -->
<svg width="533pt" height="278pt"
 viewBox="0.00 0.00 533.00 278.00" xmlns="http://www.w3.org/2000/svg" xmlns:xlink="http://www.w3.org/1999/xlink">
<g id="graph0" class="graph" transform="scale(1 1) rotate(0) translate(4 274)">
<title>Control&#45;flow graph for function &#39;aes_setkey_dec_wrap(a1)&#39;.</title>
<polygon fill="white" stroke="none" points="-4,4 -4,-274 529,-274 529,4 -4,4"/>
<text text-anchor="middle" x="262.5" y="-7.8" font-family="Times,serif" font-size="14.00">Control&#45;flow graph for function &#39;aes_setkey_dec_wrap(a1)&#39;.</text>
<!-- Node0x99cb120 -->
<g id="node1" class="node"><title>Node0x99cb120</title>
<polygon fill="none" stroke="black" points="233,-231.5 233,-269.5 292,-269.5 292,-231.5 233,-231.5"/>
<text text-anchor="start" x="241" y="-254.3" font-family="Times,serif" font-size="14.00">entry:</text>
<text text-anchor="start" x="241" y="-239.3" font-family="Times,serif" font-size="14.00"> a1</text>
</g>
<!-- Node0x99cb9c0 -->
<g id="node2" class="node"><title>Node0x99cb9c0</title>
<polygon fill="none" stroke="black" points="0,-96.5 0,-194.5 525,-194.5 525,-96.5 0,-96.5"/>
<text text-anchor="start" x="8" y="-179.3" font-family="Times,serif" font-size="14.00">0x806aa70:</text>
<text text-anchor="start" x="8" y="-164.3" font-family="Times,serif" font-size="14.00"> v1</text>
<text text-anchor="start" x="8" y="-149.3" font-family="Times,serif" font-size="14.00"> v2</text>
<text text-anchor="start" x="8" y="-134.3" font-family="Times,serif" font-size="14.00"> result = mbedtls_aes_setkey_dec(IntToPtrCastExpr&lt;ptr&gt;(v2), v1, a1)</text>
<text text-anchor="start" x="8" y="-119.3" font-family="Times,serif" font-size="14.00"> g1 = result</text>
<text text-anchor="start" x="8" y="-104.3" font-family="Times,serif" font-size="14.00"> return result</text>
</g>
<!-- Node0x99cb120&#45;&gt;Node0x99cb9c0 -->
<g id="edge1" class="edge"><title>Node0x99cb120&#45;&gt;Node0x99cb9c0</title>
<path fill="none" stroke="black" d="M262.5,-231.086C262.5,-223.607 262.5,-214.513 262.5,-205.097"/>
<polygon fill="black" stroke="black" points="266,-204.814 262.5,-194.814 259,-204.815 266,-204.814"/>
</g>
<!-- Node0xa78bc40 -->
<g id="node3" class="node"><title>Node0xa78bc40</title>
<polygon fill="none" stroke="black" points="235.5,-23.5 235.5,-59.5 289.5,-59.5 289.5,-23.5 235.5,-23.5"/>
<text text-anchor="start" x="243.5" y="-37.8" font-family="Times,serif" font-size="14.00">exit:</text>
</g>
<!-- Node0x99cb9c0&#45;&gt;Node0xa78bc40 -->
<g id="edge2" class="edge"><title>Node0x99cb9c0&#45;&gt;Node0xa78bc40</title>
<path fill="none" stroke="black" d="M262.5,-96.4868C262.5,-87.2893 262.5,-77.9618 262.5,-69.7064"/>
<polygon fill="black" stroke="black" points="266,-69.5725 262.5,-59.5725 259,-69.5725 266,-69.5725"/>
</g>
</g>
</svg>
