<?xml version="1.0" encoding="UTF-8" standalone="no"?>
<!DOCTYPE svg PUBLIC "-//W3C//DTD SVG 1.1//EN"
 "http://www.w3.org/Graphics/SVG/1.1/DTD/svg11.dtd">
<!-- Generated by graphviz version 2.38.0 (20140413.2041)
 -->
<!-- Title: Control&#45;flow graph for function &#39;mbedtls_aes_crypt_ctr(a1, a2, *a3, a4, a5, a6, a7)&#39;. Pages: 1 -->
<svg width="705pt" height="1516pt"
 viewBox="0.00 0.00 704.50 1516.00" xmlns="http://www.w3.org/2000/svg" xmlns:xlink="http://www.w3.org/1999/xlink">
<g id="graph0" class="graph" transform="scale(1 1) rotate(0) translate(4 1512)">
<title>Control&#45;flow graph for function &#39;mbedtls_aes_crypt_ctr(a1, a2, *a3, a4, a5, a6, a7)&#39;.</title>
<polygon fill="white" stroke="none" points="-4,4 -4,-1512 700.5,-1512 700.5,4 -4,4"/>
<text text-anchor="middle" x="348.25" y="-7.8" font-family="Times,serif" font-size="14.00">Control&#45;flow graph for function &#39;mbedtls_aes_crypt_ctr(a1, a2, *a3, a4, a5, a6, a7)&#39;.</text>
<!-- Node0x29175f80 -->
<g id="node1" class="node"><title>Node0x29175f80</title>
<polygon fill="none" stroke="black" points="110,-1379.5 110,-1507.5 169,-1507.5 169,-1379.5 110,-1379.5"/>
<text text-anchor="start" x="118" y="-1492.3" font-family="Times,serif" font-size="14.00">entry:</text>
<text text-anchor="start" x="118" y="-1477.3" font-family="Times,serif" font-size="14.00"> a1</text>
<text text-anchor="start" x="118" y="-1462.3" font-family="Times,serif" font-size="14.00"> a2</text>
<text text-anchor="start" x="118" y="-1447.3" font-family="Times,serif" font-size="14.00"> a3</text>
<text text-anchor="start" x="118" y="-1432.3" font-family="Times,serif" font-size="14.00"> a4</text>
<text text-anchor="start" x="118" y="-1417.3" font-family="Times,serif" font-size="14.00"> a5</text>
<text text-anchor="start" x="118" y="-1402.3" font-family="Times,serif" font-size="14.00"> a6</text>
<text text-anchor="start" x="118" y="-1387.3" font-family="Times,serif" font-size="14.00"> a7</text>
</g>
<!-- Node0x7cb0a70 -->
<g id="node2" class="node"><title>Node0x7cb0a70</title>
<polygon fill="none" stroke="black" points="92,-1243.5 92,-1341.5 187,-1341.5 187,-1243.5 92,-1243.5"/>
<text text-anchor="start" x="100" y="-1326.3" font-family="Times,serif" font-size="14.00">v1 = g5</text>
<text text-anchor="start" x="100" y="-1311.3" font-family="Times,serif" font-size="14.00"> v2 = g7</text>
<text text-anchor="start" x="100" y="-1296.3" font-family="Times,serif" font-size="14.00"> v3 = g3</text>
<text text-anchor="start" x="100" y="-1281.3" font-family="Times,serif" font-size="14.00"> g7 = a4</text>
<text text-anchor="start" x="100" y="-1266.3" font-family="Times,serif" font-size="14.00"> v4 = *(a3)</text>
<text text-anchor="start" x="100" y="-1251.3" font-family="Times,serif" font-size="14.00"> g3 = v4</text>
</g>
<!-- Node0x29175f80&#45;&gt;Node0x7cb0a70 -->
<g id="edge1" class="edge"><title>Node0x29175f80&#45;&gt;Node0x7cb0a70</title>
<path fill="none" stroke="black" d="M139.5,-1379.31C139.5,-1370.3 139.5,-1361.07 139.5,-1352.15"/>
<polygon fill="black" stroke="black" points="143,-1351.87 139.5,-1341.87 136,-1351.87 143,-1351.87"/>
</g>
<!-- Node0x10593f20 -->
<g id="node3" class="node"><title>Node0x10593f20</title>
<polygon fill="none" stroke="black" points="87,-1169.5 87,-1205.5 192,-1205.5 192,-1169.5 87,-1169.5"/>
<text text-anchor="start" x="95" y="-1183.8" font-family="Times,serif" font-size="14.00">if (a2 == 0):</text>
</g>
<!-- Node0x7cb0a70&#45;&gt;Node0x10593f20 -->
<g id="edge2" class="edge"><title>Node0x7cb0a70&#45;&gt;Node0x10593f20</title>
<path fill="none" stroke="black" d="M139.5,-1243.32C139.5,-1233.89 139.5,-1224.32 139.5,-1215.87"/>
<polygon fill="black" stroke="black" points="143,-1215.86 139.5,-1205.86 136,-1215.86 143,-1215.86"/>
</g>
<!-- Node0x29175070 -->
<g id="node4" class="node"><title>Node0x29175070</title>
<polygon fill="none" stroke="black" points="0,-932.5 0,-1030.5 97,-1030.5 97,-932.5 0,-932.5"/>
<text text-anchor="start" x="8" y="-1015.3" font-family="Times,serif" font-size="14.00">0x804a4f0:</text>
<text text-anchor="start" x="8" y="-1000.3" font-family="Times,serif" font-size="14.00"> *(a3) = v4</text>
<text text-anchor="start" x="8" y="-985.3" font-family="Times,serif" font-size="14.00"> g3 = v3</text>
<text text-anchor="start" x="8" y="-970.3" font-family="Times,serif" font-size="14.00"> g7 = v2</text>
<text text-anchor="start" x="8" y="-955.3" font-family="Times,serif" font-size="14.00"> g5 = v1</text>
<text text-anchor="start" x="8" y="-940.3" font-family="Times,serif" font-size="14.00"> return 0</text>
</g>
<!-- Node0x10593f20&#45;&gt;Node0x29175070 -->
<g id="edge3" class="edge"><title>Node0x10593f20&#45;&gt;Node0x29175070</title>
<path fill="none" stroke="black" d="M131.898,-1169.46C119.362,-1141.36 93.7978,-1084.05 74.2588,-1040.24"/>
<polygon fill="black" stroke="black" points="77.3329,-1038.54 70.0626,-1030.84 70.9401,-1041.4 77.3329,-1038.54"/>
<text text-anchor="middle" x="153.5" y="-1139.8" font-family="Times,serif" font-size="14.00">a2 == 0</text>
</g>
<!-- Node0x291762c0 -->
<g id="node5" class="node"><title>Node0x291762c0</title>
<polygon fill="none" stroke="black" points="255,-1049.5 255,-1117.5 356,-1117.5 356,-1049.5 255,-1049.5"/>
<text text-anchor="start" x="263" y="-1102.3" font-family="Times,serif" font-size="14.00">0x804a48b:</text>
<text text-anchor="start" x="263" y="-1087.3" font-family="Times,serif" font-size="14.00"> g5 = 0</text>
<text text-anchor="start" x="263" y="-1072.3" font-family="Times,serif" font-size="14.00"> v5 = 0</text>
<text text-anchor="start" x="263" y="-1057.3" font-family="Times,serif" font-size="14.00"> v6</text>
</g>
<!-- Node0x10593f20&#45;&gt;Node0x291762c0 -->
<g id="edge4" class="edge"><title>Node0x10593f20&#45;&gt;Node0x291762c0</title>
<path fill="none" stroke="black" d="M167.285,-1169.43C188.772,-1156.22 219.295,-1137.47 246.194,-1120.94"/>
<polygon fill="black" stroke="black" points="248.096,-1123.88 254.784,-1115.66 244.431,-1117.92 248.096,-1123.88"/>
<text text-anchor="middle" x="245.5" y="-1139.8" font-family="Times,serif" font-size="14.00">a2 != 0</text>
</g>
<!-- Node0xb8883a0 -->
<g id="node6" class="node"><title>Node0xb8883a0</title>
<polygon fill="none" stroke="black" points="49.5,-23.5 49.5,-59.5 103.5,-59.5 103.5,-23.5 49.5,-23.5"/>
<text text-anchor="start" x="57.5" y="-37.8" font-family="Times,serif" font-size="14.00">exit:</text>
</g>
<!-- Node0x29175070&#45;&gt;Node0xb8883a0 -->
<g id="edge5" class="edge"><title>Node0x29175070&#45;&gt;Node0xb8883a0</title>
<path fill="none" stroke="black" d="M45.1666,-932.204C43.7856,-908.245 42.5,-878.862 42.5,-852.5 42.5,-852.5 42.5,-852.5 42.5,-145.5 42.5,-118.475 53.1856,-89.3795 62.5759,-69.0289"/>
<polygon fill="black" stroke="black" points="65.8406,-70.3164 67.0291,-59.7884 59.5347,-67.2774 65.8406,-70.3164"/>
</g>
<!-- Node0x291763b0 -->
<g id="node7" class="node"><title>Node0x291763b0</title>
<polygon fill="none" stroke="black" points="493,-877.5 493,-913.5 590,-913.5 590,-877.5 493,-877.5"/>
<text text-anchor="start" x="501" y="-891.8" font-family="Times,serif" font-size="14.00">while True:</text>
</g>
<!-- Node0x291762c0&#45;&gt;Node0x291763b0 -->
<g id="edge6" class="edge"><title>Node0x291762c0&#45;&gt;Node0x291763b0</title>
<path fill="none" stroke="black" d="M347.42,-1049.46C394.633,-1012.25 470.172,-952.716 511.715,-919.975"/>
<polygon fill="black" stroke="black" points="514.109,-922.544 519.797,-913.605 509.776,-917.046 514.109,-922.544"/>
</g>
<!-- Node0x291750d0 -->
<g id="node8" class="node"><title>Node0x291750d0</title>
<polygon fill="none" stroke="black" points="503,-787.5 503,-825.5 580,-825.5 580,-787.5 503,-787.5"/>
<text text-anchor="start" x="511" y="-810.3" font-family="Times,serif" font-size="14.00">v7 = v4</text>
<text text-anchor="start" x="511" y="-795.3" font-family="Times,serif" font-size="14.00"> v8 = v5</text>
</g>
<!-- Node0x291763b0&#45;&gt;Node0x291750d0 -->
<g id="edge7" class="edge"><title>Node0x291763b0&#45;&gt;Node0x291750d0</title>
<path fill="none" stroke="black" d="M541.5,-877.312C541.5,-865.511 541.5,-849.572 541.5,-835.904"/>
<polygon fill="black" stroke="black" points="545,-835.551 541.5,-825.551 538,-835.551 545,-835.551"/>
<text text-anchor="middle" x="558.5" y="-847.8" font-family="Times,serif" font-size="14.00">True</text>
</g>
<!-- Node0x29176320 -->
<g id="node9" class="node"><title>Node0x29176320</title>
<polygon fill="none" stroke="black" points="489,-713.5 489,-749.5 594,-749.5 594,-713.5 489,-713.5"/>
<text text-anchor="start" x="497" y="-727.8" font-family="Times,serif" font-size="14.00">if (v4 == 0):</text>
</g>
<!-- Node0x291750d0&#45;&gt;Node0x29176320 -->
<g id="edge8" class="edge"><title>Node0x291750d0&#45;&gt;Node0x29176320</title>
<path fill="none" stroke="black" d="M541.5,-787.455C541.5,-779.201 541.5,-769.238 541.5,-760.074"/>
<polygon fill="black" stroke="black" points="545,-759.835 541.5,-749.835 538,-759.835 545,-759.835"/>
</g>
<!-- Node0x29176860 -->
<g id="node10" class="node"><title>Node0x29176860</title>
<polygon fill="none" stroke="black" points="70.5,-548.5 70.5,-661.5 578.5,-661.5 578.5,-548.5 70.5,-548.5"/>
<text text-anchor="start" x="78.5" y="-646.3" font-family="Times,serif" font-size="14.00">v9 = a5</text>
<text text-anchor="start" x="78.5" y="-631.3" font-family="Times,serif" font-size="14.00"> mbedtls_aes_crypt_ecb(a1, 1, g7, v9)</text>
<text text-anchor="start" x="78.5" y="-616.3" font-family="Times,serif" font-size="14.00"> a5 = v9</text>
<text text-anchor="start" x="78.5" y="-601.3" font-family="Times,serif" font-size="14.00"> v10 = IntToPtrCastExpr&lt;ptr&gt;((g7 + 15))</text>
<text text-anchor="start" x="78.5" y="-586.3" font-family="Times,serif" font-size="14.00"> *(v10) = TruncCastExpr&lt;int8&gt;((ExtCastExpr&lt;int32&gt;(*(v10)) + 1))</text>
<text text-anchor="start" x="78.5" y="-571.3" font-family="Times,serif" font-size="14.00"> v7 = g3</text>
<text text-anchor="start" x="78.5" y="-556.3" font-family="Times,serif" font-size="14.00"> v8 = g5</text>
</g>
<!-- Node0x29176320&#45;&gt;Node0x29176860 -->
<g id="edge9" class="edge"><title>Node0x29176320&#45;&gt;Node0x29176860</title>
<path fill="none" stroke="black" d="M511.782,-713.45C490.441,-701.206 460.278,-683.9 430.381,-666.747"/>
<polygon fill="black" stroke="black" points="431.959,-663.618 421.543,-661.677 428.475,-669.689 431.959,-663.618"/>
<text text-anchor="middle" x="506.5" y="-683.8" font-family="Times,serif" font-size="14.00">v4 == 0</text>
</g>
<!-- Node0x29176800 -->
<g id="node11" class="node"><title>Node0x29176800</title>
<polygon fill="none" stroke="black" points="237.5,-397.5 237.5,-510.5 631.5,-510.5 631.5,-397.5 237.5,-397.5"/>
<text text-anchor="start" x="245.5" y="-495.3" font-family="Times,serif" font-size="14.00">v11 = *(IntToPtrCastExpr&lt;ptr&gt;((v8 + a6)))</text>
<text text-anchor="start" x="245.5" y="-480.3" font-family="Times,serif" font-size="14.00"> v12 = *(IntToPtrCastExpr&lt;ptr&gt;((a5 + v7)))</text>
<text text-anchor="start" x="245.5" y="-465.3" font-family="Times,serif" font-size="14.00"> g3 = ((v7 + 1) % 16)</text>
<text text-anchor="start" x="245.5" y="-450.3" font-family="Times,serif" font-size="14.00"> *(IntToPtrCastExpr&lt;ptr&gt;((v8 + a7))) = (v12 ^ v11)</text>
<text text-anchor="start" x="245.5" y="-435.3" font-family="Times,serif" font-size="14.00"> v13 = (g5 + 1)</text>
<text text-anchor="start" x="245.5" y="-420.3" font-family="Times,serif" font-size="14.00"> g5 = v13</text>
<text text-anchor="start" x="245.5" y="-405.3" font-family="Times,serif" font-size="14.00"> v6 = g3</text>
</g>
<!-- Node0x29176320&#45;&gt;Node0x29176800 -->
<g id="edge10" class="edge"><title>Node0x29176320&#45;&gt;Node0x29176800</title>
<path fill="none" stroke="black" d="M557.215,-713.423C568.068,-700.406 581.573,-681.459 587.5,-662 602.264,-613.532 612.337,-592.162 587.5,-548 581.065,-536.557 572.588,-526.359 562.919,-517.305"/>
<polygon fill="black" stroke="black" points="565.126,-514.585 555.307,-510.604 560.5,-519.839 565.126,-514.585"/>
<text text-anchor="middle" x="629.5" y="-601.3" font-family="Times,serif" font-size="14.00">v4 != 0</text>
</g>
<!-- Node0x29176860&#45;&gt;Node0x29176800 -->
<g id="edge11" class="edge"><title>Node0x29176860&#45;&gt;Node0x29176800</title>
<path fill="none" stroke="black" d="M365.773,-548.094C372.822,-538.546 380.192,-528.563 387.379,-518.828"/>
<polygon fill="black" stroke="black" points="390.238,-520.848 393.362,-510.724 384.606,-516.69 390.238,-520.848"/>
</g>
<!-- Node0x2ab7a8b0 -->
<g id="node12" class="node"><title>Node0x2ab7a8b0</title>
<polygon fill="none" stroke="black" points="373.5,-323.5 373.5,-359.5 495.5,-359.5 495.5,-323.5 373.5,-323.5"/>
<text text-anchor="start" x="381.5" y="-337.8" font-family="Times,serif" font-size="14.00">if (v13 == a2):</text>
</g>
<!-- Node0x29176800&#45;&gt;Node0x2ab7a8b0 -->
<g id="edge12" class="edge"><title>Node0x29176800&#45;&gt;Node0x2ab7a8b0</title>
<path fill="none" stroke="black" d="M434.5,-397.426C434.5,-387.86 434.5,-378.307 434.5,-369.913"/>
<polygon fill="black" stroke="black" points="438,-369.644 434.5,-359.644 431,-369.644 438,-369.644"/>
</g>
<!-- Node0x29176950 -->
<g id="node13" class="node"><title>Node0x29176950</title>
<polygon fill="none" stroke="black" points="181.5,-233.5 181.5,-271.5 345.5,-271.5 345.5,-233.5 181.5,-233.5"/>
<text text-anchor="start" x="189.5" y="-256.3" font-family="Times,serif" font-size="14.00">break &#45;&gt; 0x804a4f0:</text>
<text text-anchor="start" x="189.5" y="-241.3" font-family="Times,serif" font-size="14.00"> break</text>
</g>
<!-- Node0x2ab7a8b0&#45;&gt;Node0x29176950 -->
<g id="edge13" class="edge"><title>Node0x2ab7a8b0&#45;&gt;Node0x29176950</title>
<path fill="none" stroke="black" d="M400.716,-323.312C374.192,-309.817 337.031,-290.911 308.071,-276.176"/>
<polygon fill="black" stroke="black" points="309.48,-272.966 298.98,-271.551 306.306,-279.205 309.48,-272.966"/>
<text text-anchor="middle" x="402" y="-293.8" font-family="Times,serif" font-size="14.00">v13 == a2</text>
</g>
<!-- Node0x2ab7a980 -->
<g id="node14" class="node"><title>Node0x2ab7a980</title>
<polygon fill="none" stroke="black" points="474,-233.5 474,-271.5 555,-271.5 555,-233.5 474,-233.5"/>
<text text-anchor="start" x="482" y="-256.3" font-family="Times,serif" font-size="14.00">v5 = v13</text>
<text text-anchor="start" x="482" y="-241.3" font-family="Times,serif" font-size="14.00"> v4 = v6</text>
</g>
<!-- Node0x2ab7a8b0&#45;&gt;Node0x2ab7a980 -->
<g id="edge14" class="edge"><title>Node0x2ab7a8b0&#45;&gt;Node0x2ab7a980</title>
<path fill="none" stroke="black" d="M450.305,-323.312C461.909,-310.693 477.862,-293.343 490.963,-279.097"/>
<polygon fill="black" stroke="black" points="493.709,-281.281 497.901,-271.551 488.556,-276.543 493.709,-281.281"/>
<text text-anchor="middle" x="514" y="-293.8" font-family="Times,serif" font-size="14.00">v13 != a2</text>
</g>
<!-- Node0x29176410 -->
<g id="node15" class="node"><title>Node0x29176410</title>
<polygon fill="none" stroke="black" points="107,-97.5 107,-195.5 204,-195.5 204,-97.5 107,-97.5"/>
<text text-anchor="start" x="115" y="-180.3" font-family="Times,serif" font-size="14.00">0x804a4f0:</text>
<text text-anchor="start" x="115" y="-165.3" font-family="Times,serif" font-size="14.00"> *(a3) = v6</text>
<text text-anchor="start" x="115" y="-150.3" font-family="Times,serif" font-size="14.00"> g3 = v3</text>
<text text-anchor="start" x="115" y="-135.3" font-family="Times,serif" font-size="14.00"> g7 = v2</text>
<text text-anchor="start" x="115" y="-120.3" font-family="Times,serif" font-size="14.00"> g5 = v1</text>
<text text-anchor="start" x="115" y="-105.3" font-family="Times,serif" font-size="14.00"> return 0</text>
</g>
<!-- Node0x29176950&#45;&gt;Node0x29176410 -->
<g id="edge15" class="edge"><title>Node0x29176950&#45;&gt;Node0x29176410</title>
<path fill="none" stroke="black" d="M244.688,-233.385C235.379,-224.42 223.599,-213.077 211.677,-201.597"/>
<polygon fill="black" stroke="black" points="213.888,-198.866 204.257,-194.451 209.032,-203.909 213.888,-198.866"/>
</g>
<!-- Node0x2ab7a980&#45;&gt;Node0x291763b0 -->
<g id="edge16" class="edge"><title>Node0x2ab7a980&#45;&gt;Node0x291763b0</title>
<path fill="none" stroke="black" d="M555.344,-255.489C609.004,-260.551 696.5,-278.336 696.5,-340.5 696.5,-807.5 696.5,-807.5 696.5,-807.5 696.5,-853.546 643.841,-875.471 599.909,-885.751"/>
<polygon fill="black" stroke="black" points="599.141,-882.336 590.118,-887.889 600.634,-889.175 599.141,-882.336"/>
</g>
<!-- Node0x29176410&#45;&gt;Node0xb8883a0 -->
<g id="edge17" class="edge"><title>Node0x29176410&#45;&gt;Node0xb8883a0</title>
<path fill="none" stroke="black" d="M118.544,-97.3173C110.754,-87.16 102.831,-76.8299 95.994,-67.9163"/>
<polygon fill="black" stroke="black" points="98.6751,-65.6608 89.8119,-59.8561 93.1207,-69.921 98.6751,-65.6608"/>
</g>
</g>
</svg>
