<?xml version="1.0" encoding="UTF-8" standalone="no"?>
<!DOCTYPE svg PUBLIC "-//W3C//DTD SVG 1.1//EN"
 "http://www.w3.org/Graphics/SVG/1.1/DTD/svg11.dtd">
<!-- Generated by graphviz version 2.38.0 (20140413.2041)
 -->
<!-- Title: Control&#45;flow graph for function &#39;mbedtls_des3_crypt_cbc(a1, a2, a3, *a4, a5, a6)&#39;. Pages: 1 -->
<svg width="1743pt" height="2081pt"
 viewBox="0.00 0.00 1743.00 2081.00" xmlns="http://www.w3.org/2000/svg" xmlns:xlink="http://www.w3.org/1999/xlink">
<g id="graph0" class="graph" transform="scale(1 1) rotate(0) translate(4 2077)">
<title>Control&#45;flow graph for function &#39;mbedtls_des3_crypt_cbc(a1, a2, a3, *a4, a5, a6)&#39;.</title>
<polygon fill="white" stroke="none" points="-4,4 -4,-2077 1739,-2077 1739,4 -4,4"/>
<text text-anchor="middle" x="867.5" y="-7.8" font-family="Times,serif" font-size="14.00">Control&#45;flow graph for function &#39;mbedtls_des3_crypt_cbc(a1, a2, a3, *a4, a5, a6)&#39;.</text>
<!-- Node0x182df470 -->
<g id="node1" class="node"><title>Node0x182df470</title>
<polygon fill="none" stroke="black" points="1466,-1959.5 1466,-2072.5 1525,-2072.5 1525,-1959.5 1466,-1959.5"/>
<text text-anchor="start" x="1474" y="-2057.3" font-family="Times,serif" font-size="14.00">entry:</text>
<text text-anchor="start" x="1474" y="-2042.3" font-family="Times,serif" font-size="14.00"> a1</text>
<text text-anchor="start" x="1474" y="-2027.3" font-family="Times,serif" font-size="14.00"> a2</text>
<text text-anchor="start" x="1474" y="-2012.3" font-family="Times,serif" font-size="14.00"> a3</text>
<text text-anchor="start" x="1474" y="-1997.3" font-family="Times,serif" font-size="14.00"> a4</text>
<text text-anchor="start" x="1474" y="-1982.3" font-family="Times,serif" font-size="14.00"> a5</text>
<text text-anchor="start" x="1474" y="-1967.3" font-family="Times,serif" font-size="14.00"> a6</text>
</g>
<!-- Node0x1d99cec0 -->
<g id="node2" class="node"><title>Node0x1d99cec0</title>
<polygon fill="none" stroke="black" points="1357,-1838.5 1357,-1921.5 1634,-1921.5 1634,-1838.5 1357,-1838.5"/>
<text text-anchor="start" x="1365" y="-1906.3" font-family="Times,serif" font-size="14.00">v1 = g5</text>
<text text-anchor="start" x="1365" y="-1891.3" font-family="Times,serif" font-size="14.00"> v2 = g7</text>
<text text-anchor="start" x="1365" y="-1876.3" font-family="Times,serif" font-size="14.00"> v3 = g3</text>
<text text-anchor="start" x="1365" y="-1861.3" font-family="Times,serif" font-size="14.00"> g7 = PtrToIntCastExpr&lt;int32&gt;(a4)</text>
<text text-anchor="start" x="1365" y="-1846.3" font-family="Times,serif" font-size="14.00"> v4 = a3</text>
</g>
<!-- Node0x182df470&#45;&gt;Node0x1d99cec0 -->
<g id="edge1" class="edge"><title>Node0x182df470&#45;&gt;Node0x1d99cec0</title>
<path fill="none" stroke="black" d="M1495.5,-1959.34C1495.5,-1950.14 1495.5,-1940.65 1495.5,-1931.59"/>
<polygon fill="black" stroke="black" points="1499,-1931.58 1495.5,-1921.58 1492,-1931.58 1499,-1931.58"/>
</g>
<!-- Node0x1d99da90 -->
<g id="node3" class="node"><title>Node0x1d99da90</title>
<polygon fill="none" stroke="black" points="1443,-1764.5 1443,-1800.5 1548,-1800.5 1548,-1764.5 1443,-1764.5"/>
<text text-anchor="start" x="1451" y="-1778.8" font-family="Times,serif" font-size="14.00">if (a3 == 7):</text>
</g>
<!-- Node0x1d99cec0&#45;&gt;Node0x1d99da90 -->
<g id="edge2" class="edge"><title>Node0x1d99cec0&#45;&gt;Node0x1d99da90</title>
<path fill="none" stroke="black" d="M1495.5,-1838.5C1495.5,-1829.21 1495.5,-1819.54 1495.5,-1810.95"/>
<polygon fill="black" stroke="black" points="1499,-1810.75 1495.5,-1800.75 1492,-1810.75 1499,-1810.75"/>
</g>
<!-- Node0x1d99d360 -->
<g id="node4" class="node"><title>Node0x1d99d360</title>
<polygon fill="none" stroke="black" points="1360,-1674.5 1360,-1712.5 1461,-1712.5 1461,-1674.5 1360,-1674.5"/>
<text text-anchor="start" x="1368" y="-1697.3" font-family="Times,serif" font-size="14.00">0x806b9c7:</text>
<text text-anchor="start" x="1368" y="-1682.3" font-family="Times,serif" font-size="14.00"> v5</text>
</g>
<!-- Node0x1d99da90&#45;&gt;Node0x1d99d360 -->
<g id="edge3" class="edge"><title>Node0x1d99da90&#45;&gt;Node0x1d99d360</title>
<path fill="none" stroke="black" d="M1478.71,-1764.31C1466.38,-1751.69 1449.43,-1734.34 1435.51,-1720.1"/>
<polygon fill="black" stroke="black" points="1437.63,-1717.26 1428.14,-1712.55 1432.62,-1722.15 1437.63,-1717.26"/>
<text text-anchor="middle" x="1490.5" y="-1734.8" font-family="Times,serif" font-size="14.00">a3 == 7</text>
</g>
<!-- Node0x1d99d270 -->
<g id="node5" class="node"><title>Node0x1d99d270</title>
<polygon fill="none" stroke="black" points="1634,-1572.5 1634,-1655.5 1735,-1655.5 1735,-1572.5 1634,-1572.5"/>
<text text-anchor="start" x="1642" y="-1640.3" font-family="Times,serif" font-size="14.00">0x806ba38:</text>
<text text-anchor="start" x="1642" y="-1625.3" font-family="Times,serif" font-size="14.00"> g3 = v3</text>
<text text-anchor="start" x="1642" y="-1610.3" font-family="Times,serif" font-size="14.00"> g7 = v2</text>
<text text-anchor="start" x="1642" y="-1595.3" font-family="Times,serif" font-size="14.00"> g5 = v1</text>
<text text-anchor="start" x="1642" y="-1580.3" font-family="Times,serif" font-size="14.00"> return &#45;50</text>
</g>
<!-- Node0x1d99da90&#45;&gt;Node0x1d99d270 -->
<g id="edge4" class="edge"><title>Node0x1d99da90&#45;&gt;Node0x1d99d270</title>
<path fill="none" stroke="black" d="M1515.01,-1764.31C1542.07,-1740.47 1592.02,-1696.47 1630.71,-1662.39"/>
<polygon fill="black" stroke="black" points="1633.09,-1664.95 1638.28,-1655.71 1628.47,-1659.7 1633.09,-1664.95"/>
<text text-anchor="middle" x="1577.5" y="-1734.8" font-family="Times,serif" font-size="14.00">a3 != 7</text>
</g>
<!-- Node0x1d99d3e0 -->
<g id="node6" class="node"><title>Node0x1d99d3e0</title>
<polygon fill="none" stroke="black" points="1010,-1515.5 1010,-1553.5 1115,-1553.5 1115,-1515.5 1010,-1515.5"/>
<text text-anchor="start" x="1018" y="-1538.3" font-family="Times,serif" font-size="14.00">if (a2 == 1):</text>
<text text-anchor="start" x="1018" y="-1523.3" font-family="Times,serif" font-size="14.00"> else:</text>
</g>
<!-- Node0x1d99d360&#45;&gt;Node0x1d99d3e0 -->
<g id="edge5" class="edge"><title>Node0x1d99d360&#45;&gt;Node0x1d99d3e0</title>
<path fill="none" stroke="black" d="M1370.58,-1674.49C1306.64,-1645.64 1181.4,-1589.14 1111.91,-1557.79"/>
<polygon fill="black" stroke="black" points="1113.04,-1554.46 1102.49,-1553.54 1110.16,-1560.84 1113.04,-1554.46"/>
</g>
<!-- Node0x1d99dfd0 -->
<g id="node7" class="node"><title>Node0x1d99dfd0</title>
<polygon fill="none" stroke="black" points="1346.5,-23.5 1346.5,-59.5 1400.5,-59.5 1400.5,-23.5 1346.5,-23.5"/>
<text text-anchor="start" x="1354.5" y="-37.8" font-family="Times,serif" font-size="14.00">exit:</text>
</g>
<!-- Node0x1d99d270&#45;&gt;Node0x1d99dfd0 -->
<g id="edge6" class="edge"><title>Node0x1d99d270&#45;&gt;Node0x1d99dfd0</title>
<path fill="none" stroke="black" d="M1693.5,-1572.39C1698,-1548.64 1702.5,-1518.01 1702.5,-1490.5 1702.5,-1490.5 1702.5,-1490.5 1702.5,-138 1702.5,-77.8368 1497.03,-53.1213 1410.84,-45.4008"/>
<polygon fill="black" stroke="black" points="1410.97,-41.8988 1400.7,-44.5221 1410.36,-48.8726 1410.97,-41.8988"/>
</g>
<!-- Node0x1d99d480 -->
<g id="node8" class="node"><title>Node0x1d99d480</title>
<polygon fill="none" stroke="black" points="828,-1410.5 828,-1463.5 929,-1463.5 929,-1410.5 828,-1410.5"/>
<text text-anchor="start" x="836" y="-1448.3" font-family="Times,serif" font-size="14.00">0x806ba50:</text>
<text text-anchor="start" x="836" y="-1433.3" font-family="Times,serif" font-size="14.00"> g5 = 0</text>
<text text-anchor="start" x="836" y="-1418.3" font-family="Times,serif" font-size="14.00"> v6 = 0</text>
</g>
<!-- Node0x1d99d3e0&#45;&gt;Node0x1d99d480 -->
<g id="edge7" class="edge"><title>Node0x1d99d3e0&#45;&gt;Node0x1d99d480</title>
<path fill="none" stroke="black" d="M1019.54,-1515.4C1006.84,-1509.77 992.994,-1503.37 980.5,-1497 963.586,-1488.37 945.529,-1478.25 929.381,-1468.84"/>
<polygon fill="black" stroke="black" points="931.022,-1465.75 920.626,-1463.71 927.48,-1471.79 931.022,-1465.75"/>
<text text-anchor="middle" x="1010.5" y="-1485.8" font-family="Times,serif" font-size="14.00">a2 == 1</text>
</g>
<!-- Node0x1d99d2f0 -->
<g id="node9" class="node"><title>Node0x1d99d2f0</title>
<polygon fill="none" stroke="black" points="1003.5,-1308.5 1003.5,-1391.5 1121.5,-1391.5 1121.5,-1308.5 1003.5,-1308.5"/>
<text text-anchor="start" x="1011.5" y="-1376.3" font-family="Times,serif" font-size="14.00">0x806b9e0:</text>
<text text-anchor="start" x="1011.5" y="-1361.3" font-family="Times,serif" font-size="14.00"> g5 = 0</text>
<text text-anchor="start" x="1011.5" y="-1346.3" font-family="Times,serif" font-size="14.00"> v15</text>
<text text-anchor="start" x="1011.5" y="-1331.3" font-family="Times,serif" font-size="14.00"> v16 = &amp;(v15)</text>
<text text-anchor="start" x="1011.5" y="-1316.3" font-family="Times,serif" font-size="14.00"> v17 = 0</text>
</g>
<!-- Node0x1d99d3e0&#45;&gt;Node0x1d99d2f0 -->
<g id="edge8" class="edge"><title>Node0x1d99d3e0&#45;&gt;Node0x1d99d2f0</title>
<path fill="none" stroke="black" d="M1062.5,-1515.33C1062.5,-1489.13 1062.5,-1439.71 1062.5,-1401.88"/>
<polygon fill="black" stroke="black" points="1066,-1401.55 1062.5,-1391.55 1059,-1401.55 1066,-1401.55"/>
<text text-anchor="middle" x="1089.5" y="-1485.8" font-family="Times,serif" font-size="14.00">a2 != 1</text>
</g>
<!-- Node0x1d99d730 -->
<g id="node10" class="node"><title>Node0x1d99d730</title>
<polygon fill="none" stroke="black" points="660,-1251.5 660,-1289.5 761,-1289.5 761,-1251.5 660,-1251.5"/>
<text text-anchor="start" x="668" y="-1274.3" font-family="Times,serif" font-size="14.00">0x806ba50:</text>
<text text-anchor="start" x="668" y="-1259.3" font-family="Times,serif" font-size="14.00"> while True:</text>
</g>
<!-- Node0x1d99d480&#45;&gt;Node0x1d99d730 -->
<g id="edge9" class="edge"><title>Node0x1d99d480&#45;&gt;Node0x1d99d730</title>
<path fill="none" stroke="black" d="M852.25,-1410.3C820.772,-1379.47 768.324,-1328.12 736.816,-1297.27"/>
<polygon fill="black" stroke="black" points="738.877,-1294.39 729.283,-1289.89 733.979,-1299.39 738.877,-1294.39"/>
</g>
<!-- Node0x1d99d8e0 -->
<g id="node11" class="node"><title>Node0x1d99d8e0</title>
<polygon fill="none" stroke="black" points="1014,-916 1014,-952 1111,-952 1111,-916 1014,-916"/>
<text text-anchor="start" x="1022" y="-930.3" font-family="Times,serif" font-size="14.00">while True:</text>
</g>
<!-- Node0x1d99d2f0&#45;&gt;Node0x1d99d8e0 -->
<g id="edge10" class="edge"><title>Node0x1d99d2f0&#45;&gt;Node0x1d99d8e0</title>
<path fill="none" stroke="black" d="M1062.5,-1308.45C1062.5,-1284.59 1062.5,-1253.83 1062.5,-1226.5 1062.5,-1226.5 1062.5,-1226.5 1062.5,-1044.5 1062.5,-1016.4 1062.5,-984.244 1062.5,-962.084"/>
<polygon fill="black" stroke="black" points="1066,-962.07 1062.5,-952.07 1059,-962.07 1066,-962.07"/>
</g>
<!-- Node0x1d99cfb0 -->
<g id="node12" class="node"><title>Node0x1d99cfb0</title>
<polygon fill="none" stroke="black" points="557,-1101.5 557,-1199.5 682,-1199.5 682,-1101.5 557,-1101.5"/>
<text text-anchor="start" x="565" y="-1184.3" font-family="Times,serif" font-size="14.00">0x806ba50:</text>
<text text-anchor="start" x="565" y="-1169.3" font-family="Times,serif" font-size="14.00"> v5 = 0</text>
<text text-anchor="start" x="565" y="-1154.3" font-family="Times,serif" font-size="14.00"> v7 = (v6 + a5)</text>
<text text-anchor="start" x="565" y="-1139.3" font-family="Times,serif" font-size="14.00"> v8 = (v6 + a6)</text>
<text text-anchor="start" x="565" y="-1124.3" font-family="Times,serif" font-size="14.00"> g3 = v8</text>
<text text-anchor="start" x="565" y="-1109.3" font-family="Times,serif" font-size="14.00"> v9 = 0</text>
</g>
<!-- Node0x1d99d730&#45;&gt;Node0x1d99cfb0 -->
<g id="edge11" class="edge"><title>Node0x1d99d730&#45;&gt;Node0x1d99cfb0</title>
<path fill="none" stroke="black" d="M682.563,-1251.49C675.478,-1246.09 668.254,-1239.79 662.5,-1233 656.282,-1225.66 650.613,-1217.28 645.578,-1208.74"/>
<polygon fill="black" stroke="black" points="648.517,-1206.83 640.564,-1199.83 642.416,-1210.26 648.517,-1206.83"/>
<text text-anchor="middle" x="679.5" y="-1221.8" font-family="Times,serif" font-size="14.00">True</text>
</g>
<!-- Node0x1d99bf40 -->
<g id="node13" class="node"><title>Node0x1d99bf40</title>
<polygon fill="none" stroke="black" points="739,-652.5 739,-840.5 1386,-840.5 1386,-652.5 739,-652.5"/>
<text text-anchor="start" x="747" y="-825.3" font-family="Times,serif" font-size="14.00">v18 = (a5 &#45; v17)</text>
<text text-anchor="start" x="747" y="-810.3" font-family="Times,serif" font-size="14.00"> v5 = v18</text>
<text text-anchor="start" x="747" y="-795.3" font-family="Times,serif" font-size="14.00"> g3 = (a6 &#45; v17)</text>
<text text-anchor="start" x="747" y="-780.3" font-family="Times,serif" font-size="14.00"> *(IntToPtrCastExpr&lt;ptr&gt;(v16)) = *(IntToPtrCastExpr&lt;ptr&gt;(v18))</text>
<text text-anchor="start" x="747" y="-765.3" font-family="Times,serif" font-size="14.00"> *(IntToPtrCastExpr&lt;ptr&gt;((v16 + 4))) = *(IntToPtrCastExpr&lt;ptr&gt;((v5 + 4)))</text>
<text text-anchor="start" x="747" y="-750.3" font-family="Times,serif" font-size="14.00"> mbedtls_des3_crypt_ecb(a1, IntToPtrCastExpr&lt;ptr&gt;(v5), IntToPtrCastExpr&lt;ptr&gt;(g3))</text>
<text text-anchor="start" x="747" y="-735.3" font-family="Times,serif" font-size="14.00"> v19 = 0</text>
<text text-anchor="start" x="747" y="-720.3" font-family="Times,serif" font-size="14.00"> v20 = *(IntToPtrCastExpr&lt;ptr&gt;((g7 + v19)))</text>
<text text-anchor="start" x="747" y="-705.3" font-family="Times,serif" font-size="14.00"> g4 = v20</text>
<text text-anchor="start" x="747" y="-690.3" font-family="Times,serif" font-size="14.00"> v21 = IntToPtrCastExpr&lt;ptr&gt;((g3 + v19))</text>
<text text-anchor="start" x="747" y="-675.3" font-family="Times,serif" font-size="14.00"> *(v21) = (*(v21) ^ v20)</text>
<text text-anchor="start" x="747" y="-660.3" font-family="Times,serif" font-size="14.00"> v22 = 1</text>
</g>
<!-- Node0x1d99d8e0&#45;&gt;Node0x1d99bf40 -->
<g id="edge12" class="edge"><title>Node0x1d99d8e0&#45;&gt;Node0x1d99bf40</title>
<path fill="none" stroke="black" d="M1062.5,-915.881C1062.5,-900.362 1062.5,-876.101 1062.5,-850.779"/>
<polygon fill="black" stroke="black" points="1066,-850.658 1062.5,-840.658 1059,-850.658 1066,-850.658"/>
<text text-anchor="middle" x="1079.5" y="-862.8" font-family="Times,serif" font-size="14.00">True</text>
</g>
<!-- Node0x1d99be20 -->
<g id="node14" class="node"><title>Node0x1d99be20</title>
<polygon fill="none" stroke="black" points="571,-1027.5 571,-1063.5 668,-1063.5 668,-1027.5 571,-1027.5"/>
<text text-anchor="start" x="579" y="-1041.8" font-family="Times,serif" font-size="14.00">while True:</text>
</g>
<!-- Node0x1d99cfb0&#45;&gt;Node0x1d99be20 -->
<g id="edge13" class="edge"><title>Node0x1d99cfb0&#45;&gt;Node0x1d99be20</title>
<path fill="none" stroke="black" d="M619.5,-1101.32C619.5,-1091.89 619.5,-1082.32 619.5,-1073.87"/>
<polygon fill="black" stroke="black" points="623,-1073.86 619.5,-1063.86 616,-1073.86 623,-1073.86"/>
</g>
<!-- Node0x1d99c010 -->
<g id="node15" class="node"><title>Node0x1d99c010</title>
<polygon fill="none" stroke="black" points="964,-526 964,-562 1101,-562 1101,-526 964,-526"/>
<text text-anchor="start" x="972" y="-540.3" font-family="Times,serif" font-size="14.00">while (v22 != 8):</text>
</g>
<!-- Node0x1d99bf40&#45;&gt;Node0x1d99c010 -->
<g id="edge14" class="edge"><title>Node0x1d99bf40&#45;&gt;Node0x1d99c010</title>
<path fill="none" stroke="black" d="M1048.55,-652.294C1044.18,-623.033 1039.68,-592.969 1036.56,-572.137"/>
<polygon fill="black" stroke="black" points="1040.01,-571.51 1035.06,-562.138 1033.08,-572.546 1040.01,-571.51"/>
</g>
<!-- Node0xa0715a0 -->
<g id="node16" class="node"><title>Node0xa0715a0</title>
<polygon fill="none" stroke="black" points="209.5,-892.5 209.5,-975.5 603.5,-975.5 603.5,-892.5 209.5,-892.5"/>
<text text-anchor="start" x="217.5" y="-960.3" font-family="Times,serif" font-size="14.00">v10 = *(IntToPtrCastExpr&lt;ptr&gt;((g7 + v9)))</text>
<text text-anchor="start" x="217.5" y="-945.3" font-family="Times,serif" font-size="14.00"> v11 = *(IntToPtrCastExpr&lt;ptr&gt;((v9 + v7)))</text>
<text text-anchor="start" x="217.5" y="-930.3" font-family="Times,serif" font-size="14.00"> *(IntToPtrCastExpr&lt;ptr&gt;((v9 + v8))) = (v11 ^ v10)</text>
<text text-anchor="start" x="217.5" y="-915.3" font-family="Times,serif" font-size="14.00"> v12 = (v5 + 1)</text>
<text text-anchor="start" x="217.5" y="-900.3" font-family="Times,serif" font-size="14.00"> v5 = v12</text>
</g>
<!-- Node0x1d99be20&#45;&gt;Node0xa0715a0 -->
<g id="edge15" class="edge"><title>Node0x1d99be20&#45;&gt;Node0xa0715a0</title>
<path fill="none" stroke="black" d="M586.219,-1027.39C561.62,-1014.74 526.922,-996.907 494.565,-980.273"/>
<polygon fill="black" stroke="black" points="496.005,-977.078 485.511,-975.618 492.804,-983.303 496.005,-977.078"/>
<text text-anchor="middle" x="562.5" y="-997.8" font-family="Times,serif" font-size="14.00">True</text>
</g>
<!-- Node0xa071750 -->
<g id="node17" class="node"><title>Node0xa071750</title>
<polygon fill="none" stroke="black" points="738.5,-322.5 738.5,-435.5 1084.5,-435.5 1084.5,-322.5 738.5,-322.5"/>
<text text-anchor="start" x="746.5" y="-420.3" font-family="Times,serif" font-size="14.00">0x806ba10:</text>
<text text-anchor="start" x="746.5" y="-405.3" font-family="Times,serif" font-size="14.00"> v19 = v22</text>
<text text-anchor="start" x="746.5" y="-390.3" font-family="Times,serif" font-size="14.00"> v20 = *(IntToPtrCastExpr&lt;ptr&gt;((g7 + v19)))</text>
<text text-anchor="start" x="746.5" y="-375.3" font-family="Times,serif" font-size="14.00"> g4 = v20</text>
<text text-anchor="start" x="746.5" y="-360.3" font-family="Times,serif" font-size="14.00"> v21 = IntToPtrCastExpr&lt;ptr&gt;((g3 + v19))</text>
<text text-anchor="start" x="746.5" y="-345.3" font-family="Times,serif" font-size="14.00"> *(v21) = (*(v21) ^ v20)</text>
<text text-anchor="start" x="746.5" y="-330.3" font-family="Times,serif" font-size="14.00"> v22 = (v22 + 1)</text>
</g>
<!-- Node0x1d99c010&#45;&gt;Node0xa071750 -->
<g id="edge16" class="edge"><title>Node0x1d99c010&#45;&gt;Node0xa071750</title>
<path fill="none" stroke="black" d="M1000.93,-525.948C979.766,-512.974 952.87,-493.241 936.5,-469 931.605,-461.752 927.662,-453.557 924.486,-445.147"/>
<polygon fill="black" stroke="black" points="927.768,-443.926 921.217,-435.599 921.145,-446.194 927.768,-443.926"/>
<text text-anchor="middle" x="968" y="-457.8" font-family="Times,serif" font-size="14.00">v22 != 8</text>
</g>
<!-- Node0x1d99c4c0 -->
<g id="node18" class="node"><title>Node0x1d99c4c0</title>
<polygon fill="none" stroke="black" points="1103,-337.5 1103,-420.5 1674,-420.5 1674,-337.5 1103,-337.5"/>
<text text-anchor="start" x="1111" y="-405.3" font-family="Times,serif" font-size="14.00">0x806ba1f:</text>
<text text-anchor="start" x="1111" y="-390.3" font-family="Times,serif" font-size="14.00"> g5 = (g5 &#45; 8)</text>
<text text-anchor="start" x="1111" y="-375.3" font-family="Times,serif" font-size="14.00"> *(IntToPtrCastExpr&lt;ptr&gt;(g7)) = *(IntToPtrCastExpr&lt;ptr&gt;(v16))</text>
<text text-anchor="start" x="1111" y="-360.3" font-family="Times,serif" font-size="14.00"> *(IntToPtrCastExpr&lt;ptr&gt;((g7 + 4))) = *(IntToPtrCastExpr&lt;ptr&gt;((v16 + 4)))</text>
<text text-anchor="start" x="1111" y="-345.3" font-family="Times,serif" font-size="14.00"> v23 = g5</text>
</g>
<!-- Node0x1d99c010&#45;&gt;Node0x1d99c4c0 -->
<g id="edge17" class="edge"><title>Node0x1d99c010&#45;&gt;Node0x1d99c4c0</title>
<path fill="none" stroke="black" d="M1069.93,-525.864C1121.88,-502.074 1217.72,-458.196 1290.75,-424.756"/>
<polygon fill="black" stroke="black" points="1292.36,-427.87 1299.99,-420.525 1289.44,-421.506 1292.36,-427.87"/>
<text text-anchor="middle" x="1255" y="-457.8" font-family="Times,serif" font-size="14.00">v22 == 8</text>
</g>
<!-- Node0xa0716d0 -->
<g id="node19" class="node"><title>Node0xa0716d0</title>
<polygon fill="none" stroke="black" points="349.5,-727.5 349.5,-765.5 463.5,-765.5 463.5,-727.5 349.5,-727.5"/>
<text text-anchor="start" x="357.5" y="-750.3" font-family="Times,serif" font-size="14.00">if (v12 == 8):</text>
<text text-anchor="start" x="357.5" y="-735.3" font-family="Times,serif" font-size="14.00"> else:</text>
</g>
<!-- Node0xa0715a0&#45;&gt;Node0xa0716d0 -->
<g id="edge18" class="edge"><title>Node0xa0715a0&#45;&gt;Node0xa0716d0</title>
<path fill="none" stroke="black" d="M406.5,-892.291C406.5,-856.992 406.5,-806.825 406.5,-775.763"/>
<polygon fill="black" stroke="black" points="410,-775.628 406.5,-765.628 403,-775.628 410,-775.628"/>
</g>
<!-- Node0xa071750&#45;&gt;Node0x1d99c010 -->
<g id="edge19" class="edge"><title>Node0xa071750&#45;&gt;Node0x1d99c010</title>
<path fill="none" stroke="black" d="M984.336,-435.649C989.861,-441.49 995.019,-447.634 999.5,-454 1012.64,-472.674 1021.23,-497.209 1026.34,-515.789"/>
<polygon fill="black" stroke="black" points="1023,-516.876 1028.89,-525.686 1029.78,-515.129 1023,-516.876"/>
</g>
<!-- Node0x1d99c830 -->
<g id="node20" class="node"><title>Node0x1d99c830</title>
<polygon fill="none" stroke="black" points="1307,-233.5 1307,-269.5 1470,-269.5 1470,-233.5 1307,-233.5"/>
<text text-anchor="start" x="1315" y="-247.8" font-family="Times,serif" font-size="14.00">if ((v23 + v4) == 0):</text>
</g>
<!-- Node0x1d99c4c0&#45;&gt;Node0x1d99c830 -->
<g id="edge20" class="edge"><title>Node0x1d99c4c0&#45;&gt;Node0x1d99c830</title>
<path fill="none" stroke="black" d="M1388.5,-337.254C1388.5,-318.466 1388.5,-296.665 1388.5,-279.879"/>
<polygon fill="black" stroke="black" points="1392,-279.654 1388.5,-269.654 1385,-279.654 1392,-279.654"/>
</g>
<!-- Node0xa071cd0 -->
<g id="node21" class="node"><title>Node0xa071cd0</title>
<polygon fill="none" stroke="black" points="0,-487.5 0,-600.5 563,-600.5 563,-487.5 0,-487.5"/>
<text text-anchor="start" x="8" y="-585.3" font-family="Times,serif" font-size="14.00">0x806ba72:</text>
<text text-anchor="start" x="8" y="-570.3" font-family="Times,serif" font-size="14.00"> g5 = (g5 + 8)</text>
<text text-anchor="start" x="8" y="-555.3" font-family="Times,serif" font-size="14.00"> v13 = IntToPtrCastExpr&lt;ptr&gt;(g3)</text>
<text text-anchor="start" x="8" y="-540.3" font-family="Times,serif" font-size="14.00"> mbedtls_des3_crypt_ecb(a1, v13, v13)</text>
<text text-anchor="start" x="8" y="-525.3" font-family="Times,serif" font-size="14.00"> *(IntToPtrCastExpr&lt;ptr&gt;(g7)) = *(IntToPtrCastExpr&lt;ptr&gt;(g3))</text>
<text text-anchor="start" x="8" y="-510.3" font-family="Times,serif" font-size="14.00"> *(IntToPtrCastExpr&lt;ptr&gt;((g7 + 4))) = *(IntToPtrCastExpr&lt;ptr&gt;((g3 + 4)))</text>
<text text-anchor="start" x="8" y="-495.3" font-family="Times,serif" font-size="14.00"> v14 = g5</text>
</g>
<!-- Node0xa0716d0&#45;&gt;Node0xa071cd0 -->
<g id="edge21" class="edge"><title>Node0xa0716d0&#45;&gt;Node0xa071cd0</title>
<path fill="none" stroke="black" d="M395.187,-727.353C378.691,-700.895 347.21,-650.398 321.55,-609.24"/>
<polygon fill="black" stroke="black" points="324.431,-607.245 316.17,-600.611 318.491,-610.949 324.431,-607.245"/>
<text text-anchor="middle" x="372" y="-622.8" font-family="Times,serif" font-size="14.00">v12 == 8</text>
</g>
<!-- Node0xa071d70 -->
<g id="node22" class="node"><title>Node0xa071d70</title>
<polygon fill="none" stroke="black" points="581,-510 581,-578 682,-578 682,-510 581,-510"/>
<text text-anchor="start" x="589" y="-562.8" font-family="Times,serif" font-size="14.00">0x806ba60:</text>
<text text-anchor="start" x="589" y="-547.8" font-family="Times,serif" font-size="14.00"> v8 = g3</text>
<text text-anchor="start" x="589" y="-532.8" font-family="Times,serif" font-size="14.00"> v9 = v12</text>
<text text-anchor="start" x="589" y="-517.8" font-family="Times,serif" font-size="14.00"> continue</text>
</g>
<!-- Node0xa0716d0&#45;&gt;Node0xa071d70 -->
<g id="edge22" class="edge"><title>Node0xa0716d0&#45;&gt;Node0xa071d70</title>
<path fill="none" stroke="black" d="M427.524,-727.461C459.062,-700.318 520.377,-647.222 571.5,-601 577.222,-595.826 583.208,-590.336 589.089,-584.895"/>
<polygon fill="black" stroke="black" points="591.508,-587.425 596.456,-578.056 586.746,-582.295 591.508,-587.425"/>
<text text-anchor="middle" x="581" y="-622.8" font-family="Times,serif" font-size="14.00">v12 != 8</text>
</g>
<!-- Node0xa071c50 -->
<g id="node23" class="node"><title>Node0xa071c50</title>
<polygon fill="none" stroke="black" points="1274,-97.5 1274,-180.5 1375,-180.5 1375,-97.5 1274,-97.5"/>
<text text-anchor="start" x="1282" y="-165.3" font-family="Times,serif" font-size="14.00">0x806ba38:</text>
<text text-anchor="start" x="1282" y="-150.3" font-family="Times,serif" font-size="14.00"> g3 = v3</text>
<text text-anchor="start" x="1282" y="-135.3" font-family="Times,serif" font-size="14.00"> g7 = v2</text>
<text text-anchor="start" x="1282" y="-120.3" font-family="Times,serif" font-size="14.00"> g5 = v1</text>
<text text-anchor="start" x="1282" y="-105.3" font-family="Times,serif" font-size="14.00"> return 0</text>
</g>
<!-- Node0x1d99c830&#45;&gt;Node0xa071c50 -->
<g id="edge23" class="edge"><title>Node0x1d99c830&#45;&gt;Node0xa071c50</title>
<path fill="none" stroke="black" d="M1336.04,-233.397C1327.87,-228.424 1320.49,-222.076 1315.5,-214 1311.24,-207.111 1309.6,-199.168 1309.56,-191.098"/>
<polygon fill="black" stroke="black" points="1313.07,-191.099 1310.28,-180.878 1306.08,-190.608 1313.07,-191.099"/>
<text text-anchor="middle" x="1374.5" y="-202.8" font-family="Times,serif" font-size="14.00">(v23 + v4) == 0</text>
</g>
<!-- Node0xa071540 -->
<g id="node24" class="node"><title>Node0xa071540</title>
<polygon fill="none" stroke="black" points="1399,-120 1399,-158 1496,-158 1496,-120 1399,-120"/>
<text text-anchor="start" x="1407" y="-142.8" font-family="Times,serif" font-size="14.00">0x806ba1f:</text>
<text text-anchor="start" x="1407" y="-127.8" font-family="Times,serif" font-size="14.00"> v17 = v23</text>
</g>
<!-- Node0x1d99c830&#45;&gt;Node0xa071540 -->
<g id="edge24" class="edge"><title>Node0x1d99c830&#45;&gt;Node0xa071540</title>
<path fill="none" stroke="black" d="M1419.26,-233.415C1426.31,-228.089 1433.03,-221.586 1437.5,-214 1445.47,-200.471 1448.14,-183.178 1448.74,-168.712"/>
<polygon fill="black" stroke="black" points="1452.24,-168.345 1448.84,-158.31 1445.24,-168.273 1452.24,-168.345"/>
<text text-anchor="middle" x="1499.5" y="-202.8" font-family="Times,serif" font-size="14.00">(v23 + v4) != 0</text>
</g>
<!-- Node0xa071f10 -->
<g id="node25" class="node"><title>Node0xa071f10</title>
<polygon fill="none" stroke="black" points="443.5,-361 443.5,-397 565.5,-397 565.5,-361 443.5,-361"/>
<text text-anchor="start" x="451.5" y="-375.3" font-family="Times,serif" font-size="14.00">if (v14 == v4):</text>
</g>
<!-- Node0xa071cd0&#45;&gt;Node0xa071f10 -->
<g id="edge25" class="edge"><title>Node0xa071cd0&#45;&gt;Node0xa071f10</title>
<path fill="none" stroke="black" d="M357.62,-487.361C397.01,-458.569 442.971,-424.974 472.846,-403.137"/>
<polygon fill="black" stroke="black" points="475.194,-405.757 481.202,-397.03 471.063,-400.105 475.194,-405.757"/>
</g>
<!-- Node0xa071d70&#45;&gt;Node0x1d99be20 -->
<g id="edge26" class="edge"><title>Node0xa071d70&#45;&gt;Node0x1d99be20</title>
<path fill="none" stroke="black" d="M630.705,-578.102C628.478,-670.809 622.208,-931.796 620.158,-1017.13"/>
<polygon fill="black" stroke="black" points="616.654,-1017.22 619.913,-1027.31 623.652,-1017.39 616.654,-1017.22"/>
</g>
<!-- Node0xa071c50&#45;&gt;Node0x1d99dfd0 -->
<g id="edge27" class="edge"><title>Node0xa071c50&#45;&gt;Node0x1d99dfd0</title>
<path fill="none" stroke="black" d="M1345.28,-97.4994C1350.26,-87.7927 1355.45,-77.6768 1360,-68.8069"/>
<polygon fill="black" stroke="black" points="1363.2,-70.2444 1364.65,-59.7494 1356.97,-67.0488 1363.2,-70.2444"/>
</g>
<!-- Node0xa071540&#45;&gt;Node0x1d99dfd0 -->
<g id="edge28" class="edge"><title>Node0xa071540&#45;&gt;Node0x1d99dfd0</title>
<path fill="none" stroke="black" d="M1433.23,-119.587C1421.79,-104.817 1405.6,-83.9327 1392.97,-67.6266"/>
<polygon fill="black" stroke="black" points="1395.62,-65.3344 1386.73,-59.5735 1390.09,-69.6219 1395.62,-65.3344"/>
</g>
<!-- Node0x1d99a140 -->
<g id="node26" class="node"><title>Node0x1d99a140</title>
<polygon fill="none" stroke="black" points="385,-232.5 385,-270.5 624,-270.5 624,-232.5 385,-232.5"/>
<text text-anchor="start" x="393" y="-255.3" font-family="Times,serif" font-size="14.00">break (via goto) &#45;&gt; 0x806ba97:</text>
<text text-anchor="start" x="393" y="-240.3" font-family="Times,serif" font-size="14.00"> goto 0x806ba97</text>
</g>
<!-- Node0xa071f10&#45;&gt;Node0x1d99a140 -->
<g id="edge29" class="edge"><title>Node0xa071f10&#45;&gt;Node0x1d99a140</title>
<path fill="none" stroke="black" d="M504.5,-360.813C504.5,-340.229 504.5,-305.453 504.5,-280.865"/>
<polygon fill="black" stroke="black" points="508,-280.698 504.5,-270.698 501,-280.699 508,-280.698"/>
<text text-anchor="middle" x="543" y="-292.8" font-family="Times,serif" font-size="14.00">v14 == v4</text>
</g>
<!-- Node0xa072040 -->
<g id="node27" class="node"><title>Node0xa072040</title>
<polygon fill="none" stroke="black" points="642,-232.5 642,-270.5 779,-270.5 779,-232.5 642,-232.5"/>
<text text-anchor="start" x="650" y="-255.3" font-family="Times,serif" font-size="14.00">v6 = v14</text>
<text text-anchor="start" x="650" y="-240.3" font-family="Times,serif" font-size="14.00"> goto 0x806ba50</text>
</g>
<!-- Node0xa071f10&#45;&gt;Node0xa072040 -->
<g id="edge30" class="edge"><title>Node0xa071f10&#45;&gt;Node0xa072040</title>
<path fill="none" stroke="black" d="M524.92,-360.708C548.207,-341.543 587.931,-310.505 625.5,-289 634.478,-283.861 644.319,-278.997 654.021,-274.595"/>
<polygon fill="black" stroke="black" points="655.513,-277.763 663.248,-270.523 652.686,-271.359 655.513,-277.763"/>
<text text-anchor="middle" x="661" y="-292.8" font-family="Times,serif" font-size="14.00">v14 != v4</text>
</g>
<!-- Node0x1d99bea0 -->
<g id="node28" class="node"><title>Node0x1d99bea0</title>
<polygon fill="none" stroke="black" points="978,-97.5 978,-180.5 1079,-180.5 1079,-97.5 978,-97.5"/>
<text text-anchor="start" x="986" y="-165.3" font-family="Times,serif" font-size="14.00">0x806ba38:</text>
<text text-anchor="start" x="986" y="-150.3" font-family="Times,serif" font-size="14.00"> g3 = v3</text>
<text text-anchor="start" x="986" y="-135.3" font-family="Times,serif" font-size="14.00"> g7 = v2</text>
<text text-anchor="start" x="986" y="-120.3" font-family="Times,serif" font-size="14.00"> g5 = v1</text>
<text text-anchor="start" x="986" y="-105.3" font-family="Times,serif" font-size="14.00"> return 0</text>
</g>
<!-- Node0x1d99a140&#45;&gt;Node0x1d99bea0 -->
<g id="edge31" class="edge"><title>Node0x1d99a140&#45;&gt;Node0x1d99bea0</title>
<path fill="none" stroke="black" d="M590.148,-232.439C696.398,-210.033 874.871,-172.397 967.924,-152.774"/>
<polygon fill="black" stroke="black" points="968.686,-156.191 977.748,-150.702 967.241,-149.341 968.686,-156.191"/>
</g>
<!-- Node0xa072040&#45;&gt;Node0x1d99d730 -->
<g id="edge32" class="edge"><title>Node0xa072040&#45;&gt;Node0x1d99d730</title>
<path fill="none" stroke="black" d="M710.5,-270.79C710.5,-295.225 710.5,-339.871 710.5,-378 710.5,-1151.5 710.5,-1151.5 710.5,-1151.5 710.5,-1182.06 710.5,-1217.06 710.5,-1240.96"/>
<polygon fill="black" stroke="black" points="707,-1241.1 710.5,-1251.1 714,-1241.1 707,-1241.1"/>
</g>
<!-- Node0x1d99bea0&#45;&gt;Node0x1d99dfd0 -->
<g id="edge33" class="edge"><title>Node0x1d99bea0&#45;&gt;Node0x1d99dfd0</title>
<path fill="none" stroke="black" d="M1079.04,-124.011C1149.24,-104.577 1274.64,-69.8663 1336.67,-52.6958"/>
<polygon fill="black" stroke="black" points="1337.71,-56.0379 1346.42,-49.9968 1335.85,-49.2915 1337.71,-56.0379"/>
</g>
</g>
</svg>
