<?xml version="1.0" encoding="UTF-8" standalone="no"?>
<!DOCTYPE svg PUBLIC "-//W3C//DTD SVG 1.1//EN"
 "http://www.w3.org/Graphics/SVG/1.1/DTD/svg11.dtd">
<!-- Generated by graphviz version 2.38.0 (20140413.2041)
 -->
<!-- Title: Control&#45;flow graph for function &#39;mbedtls_sha256_free(*a1)&#39;. Pages: 1 -->
<svg width="452pt" height="587pt"
 viewBox="0.00 0.00 452.00 587.00" xmlns="http://www.w3.org/2000/svg" xmlns:xlink="http://www.w3.org/1999/xlink">
<g id="graph0" class="graph" transform="scale(1 1) rotate(0) translate(4 583)">
<title>Control&#45;flow graph for function &#39;mbedtls_sha256_free(*a1)&#39;.</title>
<polygon fill="white" stroke="none" points="-4,4 -4,-583 448,-583 448,4 -4,4"/>
<text text-anchor="middle" x="222" y="-7.8" font-family="Times,serif" font-size="14.00">Control&#45;flow graph for function &#39;mbedtls_sha256_free(*a1)&#39;.</text>
<!-- Node0x17ea8fb0 -->
<g id="node1" class="node"><title>Node0x17ea8fb0</title>
<polygon fill="none" stroke="black" points="117,-540.5 117,-578.5 176,-578.5 176,-540.5 117,-540.5"/>
<text text-anchor="start" x="125" y="-563.3" font-family="Times,serif" font-size="14.00">entry:</text>
<text text-anchor="start" x="125" y="-548.3" font-family="Times,serif" font-size="14.00"> a1</text>
</g>
<!-- Node0x205b2250 -->
<g id="node2" class="node"><title>Node0x205b2250</title>
<polygon fill="none" stroke="black" points="10.5,-464.5 10.5,-502.5 282.5,-502.5 282.5,-464.5 10.5,-464.5"/>
<text text-anchor="start" x="18.5" y="-487.3" font-family="Times,serif" font-size="14.00">v1 = PtrToIntCastExpr&lt;int32&gt;(a1)</text>
<text text-anchor="start" x="18.5" y="-472.3" font-family="Times,serif" font-size="14.00"> g1 = v1</text>
</g>
<!-- Node0x17ea8fb0&#45;&gt;Node0x205b2250 -->
<g id="edge1" class="edge"><title>Node0x17ea8fb0&#45;&gt;Node0x205b2250</title>
<path fill="none" stroke="black" d="M146.5,-540.208C146.5,-531.964 146.5,-522.038 146.5,-512.862"/>
<polygon fill="black" stroke="black" points="150,-512.582 146.5,-502.582 143,-512.582 150,-512.582"/>
</g>
<!-- Node0x17ea8310 -->
<g id="node3" class="node"><title>Node0x17ea8310</title>
<polygon fill="none" stroke="black" points="76.5,-390.5 76.5,-426.5 216.5,-426.5 216.5,-390.5 76.5,-390.5"/>
<text text-anchor="start" x="84.5" y="-404.8" font-family="Times,serif" font-size="14.00">if (a1 == NULL):</text>
</g>
<!-- Node0x205b2250&#45;&gt;Node0x17ea8310 -->
<g id="edge2" class="edge"><title>Node0x205b2250&#45;&gt;Node0x17ea8310</title>
<path fill="none" stroke="black" d="M146.5,-464.455C146.5,-456.201 146.5,-446.238 146.5,-437.074"/>
<polygon fill="black" stroke="black" points="150,-436.835 146.5,-426.835 143,-436.835 150,-436.835"/>
</g>
<!-- Node0x205b27c0 -->
<g id="node4" class="node"><title>Node0x205b27c0</title>
<polygon fill="none" stroke="black" points="47,-198.5 47,-236.5 144,-236.5 144,-198.5 47,-198.5"/>
<text text-anchor="start" x="55" y="-221.3" font-family="Times,serif" font-size="14.00">0x8066f8a:</text>
<text text-anchor="start" x="55" y="-206.3" font-family="Times,serif" font-size="14.00"> return</text>
</g>
<!-- Node0x17ea8310&#45;&gt;Node0x205b27c0 -->
<g id="edge3" class="edge"><title>Node0x17ea8310&#45;&gt;Node0x205b27c0</title>
<path fill="none" stroke="black" d="M100.04,-390.35C92.6386,-385.549 85.9612,-379.52 81.5,-372 58.4608,-333.166 71.8759,-278.836 83.6982,-246.31"/>
<polygon fill="black" stroke="black" points="87.1232,-247.153 87.4325,-236.563 80.5865,-244.649 87.1232,-247.153"/>
<text text-anchor="middle" x="128.5" y="-360.8" font-family="Times,serif" font-size="14.00">a1 == NULL</text>
</g>
<!-- Node0x205b11e0 -->
<g id="node5" class="node"><title>Node0x205b11e0</title>
<polygon fill="none" stroke="black" points="104.5,-255.5 104.5,-338.5 374.5,-338.5 374.5,-255.5 104.5,-255.5"/>
<text text-anchor="start" x="112.5" y="-323.3" font-family="Times,serif" font-size="14.00">0x8066f7a:</text>
<text text-anchor="start" x="112.5" y="-308.3" font-family="Times,serif" font-size="14.00"> g6 = (v1 + 108)</text>
<text text-anchor="start" x="112.5" y="-293.3" font-family="Times,serif" font-size="14.00"> *(IntToPtrCastExpr&lt;ptr&gt;(v1)) = 0</text>
<text text-anchor="start" x="112.5" y="-278.3" font-family="Times,serif" font-size="14.00"> v2 = (g1 + 1)</text>
<text text-anchor="start" x="112.5" y="-263.3" font-family="Times,serif" font-size="14.00"> g1 = v2</text>
</g>
<!-- Node0x17ea8310&#45;&gt;Node0x205b11e0 -->
<g id="edge4" class="edge"><title>Node0x17ea8310&#45;&gt;Node0x205b11e0</title>
<path fill="none" stroke="black" d="M161.031,-390.391C171.129,-378.502 185.124,-362.023 198.504,-346.27"/>
<polygon fill="black" stroke="black" points="201.197,-348.506 205.002,-338.618 195.861,-343.974 201.197,-348.506"/>
<text text-anchor="middle" x="231.5" y="-360.8" font-family="Times,serif" font-size="14.00">a1 != NULL</text>
</g>
<!-- Node0x205b21d0 -->
<g id="node6" class="node"><title>Node0x205b21d0</title>
<polygon fill="none" stroke="black" points="85.5,-39.5 85.5,-75.5 139.5,-75.5 139.5,-39.5 85.5,-39.5"/>
<text text-anchor="start" x="93.5" y="-53.8" font-family="Times,serif" font-size="14.00">exit:</text>
</g>
<!-- Node0x205b27c0&#45;&gt;Node0x205b21d0 -->
<g id="edge5" class="edge"><title>Node0x205b27c0&#45;&gt;Node0x205b21d0</title>
<path fill="none" stroke="black" d="M97.4501,-198.375C100.412,-170.847 106.066,-118.298 109.538,-86.0312"/>
<polygon fill="black" stroke="black" points="113.034,-86.2489 110.624,-75.9318 106.075,-85.4999 113.034,-86.2489"/>
</g>
<!-- Node0x205b1240 -->
<g id="node7" class="node"><title>Node0x205b1240</title>
<polygon fill="none" stroke="black" points="161,-143.5 161,-179.5 298,-179.5 298,-143.5 161,-143.5"/>
<text text-anchor="start" x="169" y="-157.8" font-family="Times,serif" font-size="14.00">while (v2 != g6):</text>
</g>
<!-- Node0x205b11e0&#45;&gt;Node0x205b1240 -->
<g id="edge6" class="edge"><title>Node0x205b11e0&#45;&gt;Node0x205b1240</title>
<path fill="none" stroke="black" d="M236.445,-255.22C234.853,-233.969 232.95,-208.556 231.539,-189.714"/>
<polygon fill="black" stroke="black" points="235.028,-189.437 230.79,-179.726 228.047,-189.96 235.028,-189.437"/>
</g>
<!-- Node0x205b1240&#45;&gt;Node0x205b21d0 -->
<g id="edge8" class="edge"><title>Node0x205b1240&#45;&gt;Node0x205b21d0</title>
<path fill="none" stroke="black" d="M180.785,-143.405C170.736,-138.465 160.722,-132.368 152.5,-125 140.227,-114.003 130.551,-98.3339 123.791,-84.9676"/>
<polygon fill="black" stroke="black" points="126.855,-83.2599 119.39,-75.7416 120.537,-86.2742 126.855,-83.2599"/>
<text text-anchor="middle" x="187" y="-113.8" font-family="Times,serif" font-size="14.00">v2 == g6</text>
</g>
<!-- Node0x205b2860 -->
<g id="node8" class="node"><title>Node0x205b2860</title>
<polygon fill="none" stroke="black" points="163.5,-23.5 163.5,-91.5 433.5,-91.5 433.5,-23.5 163.5,-23.5"/>
<text text-anchor="start" x="171.5" y="-76.3" font-family="Times,serif" font-size="14.00">0x8066f80:</text>
<text text-anchor="start" x="171.5" y="-61.3" font-family="Times,serif" font-size="14.00"> *(IntToPtrCastExpr&lt;ptr&gt;(v2)) = 0</text>
<text text-anchor="start" x="171.5" y="-46.3" font-family="Times,serif" font-size="14.00"> v2 = (g1 + 1)</text>
<text text-anchor="start" x="171.5" y="-31.3" font-family="Times,serif" font-size="14.00"> g1 = v2</text>
</g>
<!-- Node0x205b1240&#45;&gt;Node0x205b2860 -->
<g id="edge7" class="edge"><title>Node0x205b1240&#45;&gt;Node0x205b2860</title>
<path fill="none" stroke="black" d="M225.273,-143.235C223.693,-133.036 223.355,-120.173 228.5,-110 230.415,-106.213 232.754,-102.637 235.401,-99.2709"/>
<polygon fill="black" stroke="black" points="238.027,-101.585 242.082,-91.7969 232.808,-96.9204 238.027,-101.585"/>
<text text-anchor="middle" x="260" y="-113.8" font-family="Times,serif" font-size="14.00">v2 != g6</text>
</g>
<!-- Node0x205b2860&#45;&gt;Node0x205b1240 -->
<g id="edge9" class="edge"><title>Node0x205b2860&#45;&gt;Node0x205b1240</title>
<path fill="none" stroke="black" d="M300.934,-91.6532C300.296,-103.002 297.841,-115.276 291.5,-125 288.451,-129.675 284.559,-133.804 280.213,-137.434"/>
<polygon fill="black" stroke="black" points="278,-134.716 271.986,-143.438 282.127,-140.37 278,-134.716"/>
</g>
</g>
</svg>
