<?xml version="1.0" encoding="UTF-8" standalone="no"?>
<!DOCTYPE svg PUBLIC "-//W3C//DTD SVG 1.1//EN"
 "http://www.w3.org/Graphics/SVG/1.1/DTD/svg11.dtd">
<!-- Generated by graphviz version 2.38.0 (20140413.2041)
 -->
<!-- Title: Control&#45;flow graph for function &#39;mbedtls_sha1_free(*a1)&#39;. Pages: 1 -->
<svg width="434pt" height="587pt"
 viewBox="0.00 0.00 434.00 587.00" xmlns="http://www.w3.org/2000/svg" xmlns:xlink="http://www.w3.org/1999/xlink">
<g id="graph0" class="graph" transform="scale(1 1) rotate(0) translate(4 583)">
<title>Control&#45;flow graph for function &#39;mbedtls_sha1_free(*a1)&#39;.</title>
<polygon fill="white" stroke="none" points="-4,4 -4,-583 430,-583 430,4 -4,4"/>
<text text-anchor="middle" x="213" y="-7.8" font-family="Times,serif" font-size="14.00">Control&#45;flow graph for function &#39;mbedtls_sha1_free(*a1)&#39;.</text>
<!-- Node0x1f245280 -->
<g id="node1" class="node"><title>Node0x1f245280</title>
<polygon fill="none" stroke="black" points="108,-540.5 108,-578.5 167,-578.5 167,-540.5 108,-540.5"/>
<text text-anchor="start" x="116" y="-563.3" font-family="Times,serif" font-size="14.00">entry:</text>
<text text-anchor="start" x="116" y="-548.3" font-family="Times,serif" font-size="14.00"> a1</text>
</g>
<!-- Node0x27e3c590 -->
<g id="node2" class="node"><title>Node0x27e3c590</title>
<polygon fill="none" stroke="black" points="1.5,-464.5 1.5,-502.5 273.5,-502.5 273.5,-464.5 1.5,-464.5"/>
<text text-anchor="start" x="9.5" y="-487.3" font-family="Times,serif" font-size="14.00">v1 = PtrToIntCastExpr&lt;int32&gt;(a1)</text>
<text text-anchor="start" x="9.5" y="-472.3" font-family="Times,serif" font-size="14.00"> g1 = v1</text>
</g>
<!-- Node0x1f245280&#45;&gt;Node0x27e3c590 -->
<g id="edge1" class="edge"><title>Node0x1f245280&#45;&gt;Node0x27e3c590</title>
<path fill="none" stroke="black" d="M137.5,-540.208C137.5,-531.964 137.5,-522.038 137.5,-512.862"/>
<polygon fill="black" stroke="black" points="141,-512.582 137.5,-502.582 134,-512.582 141,-512.582"/>
</g>
<!-- Node0x26c5dd00 -->
<g id="node3" class="node"><title>Node0x26c5dd00</title>
<polygon fill="none" stroke="black" points="67.5,-390.5 67.5,-426.5 207.5,-426.5 207.5,-390.5 67.5,-390.5"/>
<text text-anchor="start" x="75.5" y="-404.8" font-family="Times,serif" font-size="14.00">if (a1 == NULL):</text>
</g>
<!-- Node0x27e3c590&#45;&gt;Node0x26c5dd00 -->
<g id="edge2" class="edge"><title>Node0x27e3c590&#45;&gt;Node0x26c5dd00</title>
<path fill="none" stroke="black" d="M137.5,-464.455C137.5,-456.201 137.5,-446.238 137.5,-437.074"/>
<polygon fill="black" stroke="black" points="141,-436.835 137.5,-426.835 134,-436.835 141,-436.835"/>
</g>
<!-- Node0x26c5e0b0 -->
<g id="node4" class="node"><title>Node0x26c5e0b0</title>
<polygon fill="none" stroke="black" points="36,-198.5 36,-236.5 137,-236.5 137,-198.5 36,-198.5"/>
<text text-anchor="start" x="44" y="-221.3" font-family="Times,serif" font-size="14.00">0x805213a:</text>
<text text-anchor="start" x="44" y="-206.3" font-family="Times,serif" font-size="14.00"> return</text>
</g>
<!-- Node0x26c5dd00&#45;&gt;Node0x26c5e0b0 -->
<g id="edge3" class="edge"><title>Node0x26c5dd00&#45;&gt;Node0x26c5e0b0</title>
<path fill="none" stroke="black" d="M91.04,-390.35C83.6386,-385.549 76.9612,-379.52 72.5,-372 49.4608,-333.166 62.8759,-278.836 74.6982,-246.31"/>
<polygon fill="black" stroke="black" points="78.1232,-247.153 78.4325,-236.563 71.5865,-244.649 78.1232,-247.153"/>
<text text-anchor="middle" x="119.5" y="-360.8" font-family="Times,serif" font-size="14.00">a1 == NULL</text>
</g>
<!-- Node0x26c5de30 -->
<g id="node5" class="node"><title>Node0x26c5de30</title>
<polygon fill="none" stroke="black" points="95.5,-255.5 95.5,-338.5 365.5,-338.5 365.5,-255.5 95.5,-255.5"/>
<text text-anchor="start" x="103.5" y="-323.3" font-family="Times,serif" font-size="14.00">0x805212a:</text>
<text text-anchor="start" x="103.5" y="-308.3" font-family="Times,serif" font-size="14.00"> g6 = (v1 + 92)</text>
<text text-anchor="start" x="103.5" y="-293.3" font-family="Times,serif" font-size="14.00"> *(IntToPtrCastExpr&lt;ptr&gt;(v1)) = 0</text>
<text text-anchor="start" x="103.5" y="-278.3" font-family="Times,serif" font-size="14.00"> v2 = (g1 + 1)</text>
<text text-anchor="start" x="103.5" y="-263.3" font-family="Times,serif" font-size="14.00"> g1 = v2</text>
</g>
<!-- Node0x26c5dd00&#45;&gt;Node0x26c5de30 -->
<g id="edge4" class="edge"><title>Node0x26c5dd00&#45;&gt;Node0x26c5de30</title>
<path fill="none" stroke="black" d="M152.031,-390.391C162.129,-378.502 176.124,-362.023 189.504,-346.27"/>
<polygon fill="black" stroke="black" points="192.197,-348.506 196.002,-338.618 186.861,-343.974 192.197,-348.506"/>
<text text-anchor="middle" x="222.5" y="-360.8" font-family="Times,serif" font-size="14.00">a1 != NULL</text>
</g>
<!-- Node0x27e3c530 -->
<g id="node6" class="node"><title>Node0x27e3c530</title>
<polygon fill="none" stroke="black" points="76.5,-39.5 76.5,-75.5 130.5,-75.5 130.5,-39.5 76.5,-39.5"/>
<text text-anchor="start" x="84.5" y="-53.8" font-family="Times,serif" font-size="14.00">exit:</text>
</g>
<!-- Node0x26c5e0b0&#45;&gt;Node0x27e3c530 -->
<g id="edge5" class="edge"><title>Node0x26c5e0b0&#45;&gt;Node0x27e3c530</title>
<path fill="none" stroke="black" d="M88.4501,-198.375C91.412,-170.847 97.0661,-118.298 100.538,-86.0312"/>
<polygon fill="black" stroke="black" points="104.034,-86.2489 101.624,-75.9318 97.0747,-85.4999 104.034,-86.2489"/>
</g>
<!-- Node0x27e3c5f0 -->
<g id="node7" class="node"><title>Node0x27e3c5f0</title>
<polygon fill="none" stroke="black" points="152,-143.5 152,-179.5 289,-179.5 289,-143.5 152,-143.5"/>
<text text-anchor="start" x="160" y="-157.8" font-family="Times,serif" font-size="14.00">while (v2 != g6):</text>
</g>
<!-- Node0x26c5de30&#45;&gt;Node0x27e3c5f0 -->
<g id="edge6" class="edge"><title>Node0x26c5de30&#45;&gt;Node0x27e3c5f0</title>
<path fill="none" stroke="black" d="M227.445,-255.22C225.853,-233.969 223.95,-208.556 222.539,-189.714"/>
<polygon fill="black" stroke="black" points="226.028,-189.437 221.79,-179.726 219.047,-189.96 226.028,-189.437"/>
</g>
<!-- Node0x27e3c5f0&#45;&gt;Node0x27e3c530 -->
<g id="edge8" class="edge"><title>Node0x27e3c5f0&#45;&gt;Node0x27e3c530</title>
<path fill="none" stroke="black" d="M171.785,-143.405C161.736,-138.465 151.722,-132.368 143.5,-125 131.227,-114.003 121.551,-98.3339 114.791,-84.9676"/>
<polygon fill="black" stroke="black" points="117.855,-83.2599 110.39,-75.7416 111.537,-86.2742 117.855,-83.2599"/>
<text text-anchor="middle" x="178" y="-113.8" font-family="Times,serif" font-size="14.00">v2 == g6</text>
</g>
<!-- Node0x26c5fcc0 -->
<g id="node8" class="node"><title>Node0x26c5fcc0</title>
<polygon fill="none" stroke="black" points="154.5,-23.5 154.5,-91.5 424.5,-91.5 424.5,-23.5 154.5,-23.5"/>
<text text-anchor="start" x="162.5" y="-76.3" font-family="Times,serif" font-size="14.00">0x8052130:</text>
<text text-anchor="start" x="162.5" y="-61.3" font-family="Times,serif" font-size="14.00"> *(IntToPtrCastExpr&lt;ptr&gt;(v2)) = 0</text>
<text text-anchor="start" x="162.5" y="-46.3" font-family="Times,serif" font-size="14.00"> v2 = (g1 + 1)</text>
<text text-anchor="start" x="162.5" y="-31.3" font-family="Times,serif" font-size="14.00"> g1 = v2</text>
</g>
<!-- Node0x27e3c5f0&#45;&gt;Node0x26c5fcc0 -->
<g id="edge7" class="edge"><title>Node0x27e3c5f0&#45;&gt;Node0x26c5fcc0</title>
<path fill="none" stroke="black" d="M216.273,-143.235C214.693,-133.036 214.355,-120.173 219.5,-110 221.415,-106.213 223.754,-102.637 226.401,-99.2709"/>
<polygon fill="black" stroke="black" points="229.027,-101.585 233.082,-91.7969 223.808,-96.9204 229.027,-101.585"/>
<text text-anchor="middle" x="251" y="-113.8" font-family="Times,serif" font-size="14.00">v2 != g6</text>
</g>
<!-- Node0x26c5fcc0&#45;&gt;Node0x27e3c5f0 -->
<g id="edge9" class="edge"><title>Node0x26c5fcc0&#45;&gt;Node0x27e3c5f0</title>
<path fill="none" stroke="black" d="M291.934,-91.6532C291.296,-103.002 288.841,-115.276 282.5,-125 279.451,-129.675 275.559,-133.804 271.213,-137.434"/>
<polygon fill="black" stroke="black" points="269,-134.716 262.986,-143.438 273.127,-140.37 269,-134.716"/>
</g>
</g>
</svg>
