<?xml version="1.0" encoding="UTF-8" standalone="no"?>
<!DOCTYPE svg PUBLIC "-//W3C//DTD SVG 1.1//EN"
 "http://www.w3.org/Graphics/SVG/1.1/DTD/svg11.dtd">
<!-- Generated by graphviz version 2.38.0 (20140413.2041)
 -->
<!-- Title: Control&#45;flow graph for function &#39;mbedtls_mpi_free(*a1)&#39;. Pages: 1 -->
<svg width="843pt" height="1260pt"
 viewBox="0.00 0.00 842.50 1260.00" xmlns="http://www.w3.org/2000/svg" xmlns:xlink="http://www.w3.org/1999/xlink">
<g id="graph0" class="graph" transform="scale(1 1) rotate(0) translate(4 1256)">
<title>Control&#45;flow graph for function &#39;mbedtls_mpi_free(*a1)&#39;.</title>
<polygon fill="white" stroke="none" points="-4,4 -4,-1256 838.5,-1256 838.5,4 -4,4"/>
<text text-anchor="middle" x="417.25" y="-7.8" font-family="Times,serif" font-size="14.00">Control&#45;flow graph for function &#39;mbedtls_mpi_free(*a1)&#39;.</text>
<!-- Node0x26fe80f0 -->
<g id="node1" class="node"><title>Node0x26fe80f0</title>
<polygon fill="none" stroke="black" points="185,-1213.5 185,-1251.5 244,-1251.5 244,-1213.5 185,-1213.5"/>
<text text-anchor="start" x="193" y="-1236.3" font-family="Times,serif" font-size="14.00">entry:</text>
<text text-anchor="start" x="193" y="-1221.3" font-family="Times,serif" font-size="14.00"> a1</text>
</g>
<!-- Node0x26feb0e0 -->
<g id="node2" class="node"><title>Node0x26feb0e0</title>
<polygon fill="none" stroke="black" points="78.5,-1137.5 78.5,-1175.5 350.5,-1175.5 350.5,-1137.5 78.5,-1137.5"/>
<text text-anchor="start" x="86.5" y="-1160.3" font-family="Times,serif" font-size="14.00">v1 = PtrToIntCastExpr&lt;int32&gt;(a1)</text>
<text text-anchor="start" x="86.5" y="-1145.3" font-family="Times,serif" font-size="14.00"> v2</text>
</g>
<!-- Node0x26fe80f0&#45;&gt;Node0x26feb0e0 -->
<g id="edge1" class="edge"><title>Node0x26fe80f0&#45;&gt;Node0x26feb0e0</title>
<path fill="none" stroke="black" d="M214.5,-1213.21C214.5,-1204.96 214.5,-1195.04 214.5,-1185.86"/>
<polygon fill="black" stroke="black" points="218,-1185.58 214.5,-1175.58 211,-1185.58 218,-1185.58"/>
</g>
<!-- Node0x26feb190 -->
<g id="node3" class="node"><title>Node0x26feb190</title>
<polygon fill="none" stroke="black" points="144.5,-1063.5 144.5,-1099.5 284.5,-1099.5 284.5,-1063.5 144.5,-1063.5"/>
<text text-anchor="start" x="152.5" y="-1077.8" font-family="Times,serif" font-size="14.00">if (a1 == NULL):</text>
</g>
<!-- Node0x26feb0e0&#45;&gt;Node0x26feb190 -->
<g id="edge2" class="edge"><title>Node0x26feb0e0&#45;&gt;Node0x26feb190</title>
<path fill="none" stroke="black" d="M214.5,-1137.46C214.5,-1129.2 214.5,-1119.24 214.5,-1110.07"/>
<polygon fill="black" stroke="black" points="218,-1109.83 214.5,-1099.83 211,-1109.83 218,-1109.83"/>
</g>
<!-- Node0x15ae3040 -->
<g id="node4" class="node"><title>Node0x15ae3040</title>
<polygon fill="none" stroke="black" points="0,-901.5 0,-954.5 101,-954.5 101,-901.5 0,-901.5"/>
<text text-anchor="start" x="8" y="-939.3" font-family="Times,serif" font-size="14.00">0x80577ba:</text>
<text text-anchor="start" x="8" y="-924.3" font-family="Times,serif" font-size="14.00"> g2 = v2</text>
<text text-anchor="start" x="8" y="-909.3" font-family="Times,serif" font-size="14.00"> return g1</text>
</g>
<!-- Node0x26feb190&#45;&gt;Node0x15ae3040 -->
<g id="edge3" class="edge"><title>Node0x26feb190&#45;&gt;Node0x15ae3040</title>
<path fill="none" stroke="black" d="M196.006,-1063.42C169.293,-1038.74 119.413,-992.66 85.585,-961.411"/>
<polygon fill="black" stroke="black" points="87.9227,-958.805 78.2022,-954.591 83.1727,-963.947 87.9227,-958.805"/>
<text text-anchor="middle" x="220.5" y="-1033.8" font-family="Times,serif" font-size="14.00">a1 == NULL</text>
</g>
<!-- Node0x15ae2000 -->
<g id="node5" class="node"><title>Node0x15ae2000</title>
<polygon fill="none" stroke="black" points="346.5,-973.5 346.5,-1011.5 660.5,-1011.5 660.5,-973.5 346.5,-973.5"/>
<text text-anchor="start" x="354.5" y="-996.3" font-family="Times,serif" font-size="14.00">v3 = *(IntToPtrCastExpr&lt;ptr&gt;((v1 + 8)))</text>
<text text-anchor="start" x="354.5" y="-981.3" font-family="Times,serif" font-size="14.00"> g6 = v3</text>
</g>
<!-- Node0x26feb190&#45;&gt;Node0x15ae2000 -->
<g id="edge4" class="edge"><title>Node0x26feb190&#45;&gt;Node0x15ae2000</title>
<path fill="none" stroke="black" d="M271.252,-1063.42C317.87,-1049.38 384.099,-1029.44 433.911,-1014.45"/>
<polygon fill="black" stroke="black" points="435.077,-1017.75 443.644,-1011.52 433.06,-1011.05 435.077,-1017.75"/>
<text text-anchor="middle" x="420.5" y="-1033.8" font-family="Times,serif" font-size="14.00">a1 != NULL</text>
</g>
<!-- Node0x26feb080 -->
<g id="node6" class="node"><title>Node0x26feb080</title>
<polygon fill="none" stroke="black" points="146.5,-23.5 146.5,-59.5 200.5,-59.5 200.5,-23.5 146.5,-23.5"/>
<text text-anchor="start" x="154.5" y="-37.8" font-family="Times,serif" font-size="14.00">exit:</text>
</g>
<!-- Node0x15ae3040&#45;&gt;Node0x26feb080 -->
<g id="edge5" class="edge"><title>Node0x15ae3040&#45;&gt;Node0x26feb080</title>
<path fill="none" stroke="black" d="M42.0571,-901.298C35.853,-880.125 28.5,-849.191 28.5,-821.5 28.5,-821.5 28.5,-821.5 28.5,-145.5 28.5,-92.6147 93.4005,-64.3905 136.362,-51.5006"/>
<polygon fill="black" stroke="black" points="137.568,-54.7965 146.227,-48.6914 135.65,-48.0642 137.568,-54.7965"/>
</g>
<!-- Node0x15ae1d30 -->
<g id="node7" class="node"><title>Node0x15ae1d30</title>
<polygon fill="none" stroke="black" points="511,-846.5 511,-882.5 610,-882.5 610,-846.5 511,-846.5"/>
<text text-anchor="start" x="519" y="-860.8" font-family="Times,serif" font-size="14.00">if (v3 != 0):</text>
</g>
<!-- Node0x15ae2000&#45;&gt;Node0x15ae1d30 -->
<g id="edge6" class="edge"><title>Node0x15ae2000&#45;&gt;Node0x15ae1d30</title>
<path fill="none" stroke="black" d="M511.667,-973.447C521.298,-952.156 537.395,-916.573 548.458,-892.118"/>
<polygon fill="black" stroke="black" points="551.782,-893.264 552.714,-882.71 545.404,-890.379 551.782,-893.264"/>
</g>
<!-- Node0x15adf800 -->
<g id="node8" class="node"><title>Node0x15adf800</title>
<polygon fill="none" stroke="black" points="385.5,-756.5 385.5,-794.5 735.5,-794.5 735.5,-756.5 385.5,-756.5"/>
<text text-anchor="start" x="393.5" y="-779.3" font-family="Times,serif" font-size="14.00">v4 = (4 * *(IntToPtrCastExpr&lt;ptr&gt;((v1 + 4))))</text>
<text text-anchor="start" x="393.5" y="-764.3" font-family="Times,serif" font-size="14.00"> g1 = v4</text>
</g>
<!-- Node0x15ae1d30&#45;&gt;Node0x15adf800 -->
<g id="edge7" class="edge"><title>Node0x15ae1d30&#45;&gt;Node0x15adf800</title>
<path fill="none" stroke="black" d="M560.5,-846.312C560.5,-834.511 560.5,-818.572 560.5,-804.904"/>
<polygon fill="black" stroke="black" points="564,-804.551 560.5,-794.551 557,-804.551 564,-804.551"/>
<text text-anchor="middle" x="587.5" y="-816.8" font-family="Times,serif" font-size="14.00">v3 != 0</text>
</g>
<!-- Node0x15ae1eb0 -->
<g id="node9" class="node"><title>Node0x15ae1eb0</title>
<polygon fill="none" stroke="black" points="431,-97.5 431,-195.5 742,-195.5 742,-97.5 431,-97.5"/>
<text text-anchor="start" x="439" y="-180.3" font-family="Times,serif" font-size="14.00">0x80577a6:</text>
<text text-anchor="start" x="439" y="-165.3" font-family="Times,serif" font-size="14.00"> *(IntToPtrCastExpr&lt;ptr&gt;(v1)) = 1</text>
<text text-anchor="start" x="439" y="-150.3" font-family="Times,serif" font-size="14.00"> *(IntToPtrCastExpr&lt;ptr&gt;((v1 + 4))) = 0</text>
<text text-anchor="start" x="439" y="-135.3" font-family="Times,serif" font-size="14.00"> *(IntToPtrCastExpr&lt;ptr&gt;((v1 + 8))) = 0</text>
<text text-anchor="start" x="439" y="-120.3" font-family="Times,serif" font-size="14.00"> g2 = v2</text>
<text text-anchor="start" x="439" y="-105.3" font-family="Times,serif" font-size="14.00"> return g1</text>
</g>
<!-- Node0x15ae1d30&#45;&gt;Node0x15ae1eb0 -->
<g id="edge8" class="edge"><title>Node0x15ae1d30&#45;&gt;Node0x15ae1eb0</title>
<path fill="none" stroke="black" d="M610.134,-864.001C673.352,-861.737 774.5,-847.086 774.5,-776.5 774.5,-776.5 774.5,-776.5 774.5,-251.5 774.5,-229.863 764.847,-212.692 749.916,-199.073"/>
<polygon fill="black" stroke="black" points="752.116,-196.351 742.182,-192.669 747.652,-201.743 752.116,-196.351"/>
<text text-anchor="middle" x="804.5" y="-517.8" font-family="Times,serif" font-size="14.00">v3 == 0</text>
</g>
<!-- Node0x9e766f0 -->
<g id="node10" class="node"><title>Node0x9e766f0</title>
<polygon fill="none" stroke="black" points="511,-682.5 511,-718.5 610,-718.5 610,-682.5 511,-682.5"/>
<text text-anchor="start" x="519" y="-696.8" font-family="Times,serif" font-size="14.00">if (v4 != 0):</text>
</g>
<!-- Node0x15adf800&#45;&gt;Node0x9e766f0 -->
<g id="edge9" class="edge"><title>Node0x15adf800&#45;&gt;Node0x9e766f0</title>
<path fill="none" stroke="black" d="M560.5,-756.455C560.5,-748.201 560.5,-738.238 560.5,-729.074"/>
<polygon fill="black" stroke="black" points="564,-728.835 560.5,-718.835 557,-728.835 564,-728.835"/>
</g>
<!-- Node0x15ae1eb0&#45;&gt;Node0x26feb080 -->
<g id="edge10" class="edge"><title>Node0x15ae1eb0&#45;&gt;Node0x26feb080</title>
<path fill="none" stroke="black" d="M430.951,-106.707C350.898,-86.7422 259.949,-64.0599 210.435,-51.7113"/>
<polygon fill="black" stroke="black" points="211.066,-48.2617 200.517,-49.2378 209.372,-55.0537 211.066,-48.2617"/>
</g>
<!-- Node0xb7814e0 -->
<g id="node11" class="node"><title>Node0xb7814e0</title>
<polygon fill="none" stroke="black" points="219.5,-547.5 219.5,-630.5 485.5,-630.5 485.5,-547.5 219.5,-547.5"/>
<text text-anchor="start" x="227.5" y="-615.3" font-family="Times,serif" font-size="14.00">*(IntToPtrCastExpr&lt;ptr&gt;(v3)) = 0</text>
<text text-anchor="start" x="227.5" y="-600.3" font-family="Times,serif" font-size="14.00"> v5 = (g6 + 1)</text>
<text text-anchor="start" x="227.5" y="-585.3" font-family="Times,serif" font-size="14.00"> g6 = v5</text>
<text text-anchor="start" x="227.5" y="-570.3" font-family="Times,serif" font-size="14.00"> v6 = (g1 &#45; 1)</text>
<text text-anchor="start" x="227.5" y="-555.3" font-family="Times,serif" font-size="14.00"> g1 = v6</text>
</g>
<!-- Node0x9e766f0&#45;&gt;Node0xb7814e0 -->
<g id="edge11" class="edge"><title>Node0x9e766f0&#45;&gt;Node0xb7814e0</title>
<path fill="none" stroke="black" d="M528,-682.391C504.082,-669.799 470.384,-652.059 438.903,-635.486"/>
<polygon fill="black" stroke="black" points="440.135,-632.179 429.656,-630.618 436.874,-638.374 440.135,-632.179"/>
<text text-anchor="middle" x="513.5" y="-652.8" font-family="Times,serif" font-size="14.00">v4 != 0</text>
</g>
<!-- Node0x15adfc40 -->
<g id="node12" class="node"><title>Node0x15adfc40</title>
<polygon fill="none" stroke="black" points="456,-233.5 456,-271.5 717,-271.5 717,-233.5 456,-233.5"/>
<text text-anchor="start" x="464" y="-256.3" font-family="Times,serif" font-size="14.00">0x805779e:</text>
<text text-anchor="start" x="464" y="-241.3" font-family="Times,serif" font-size="14.00"> free(IntToPtrCastExpr&lt;ptr&gt;(v3))</text>
</g>
<!-- Node0x9e766f0&#45;&gt;Node0x15adfc40 -->
<g id="edge12" class="edge"><title>Node0x9e766f0&#45;&gt;Node0x15adfc40</title>
<path fill="none" stroke="black" d="M604.569,-682.458C640.903,-665.191 686.5,-634.631 686.5,-590 686.5,-590 686.5,-590 686.5,-357.5 686.5,-334.349 681.908,-327.121 667.5,-309 657.579,-296.522 644.097,-285.754 630.981,-277.112"/>
<polygon fill="black" stroke="black" points="632.782,-274.111 622.455,-271.744 629.052,-280.034 632.782,-274.111"/>
<text text-anchor="middle" x="716.5" y="-473.8" font-family="Times,serif" font-size="14.00">v4 == 0</text>
</g>
<!-- Node0x15ae3450 -->
<g id="node13" class="node"><title>Node0x15ae3450</title>
<polygon fill="none" stroke="black" points="259.5,-459.5 259.5,-495.5 387.5,-495.5 387.5,-459.5 259.5,-459.5"/>
<text text-anchor="start" x="267.5" y="-473.8" font-family="Times,serif" font-size="14.00">while (v6 != 0):</text>
</g>
<!-- Node0xb7814e0&#45;&gt;Node0x15ae3450 -->
<g id="edge13" class="edge"><title>Node0xb7814e0&#45;&gt;Node0x15ae3450</title>
<path fill="none" stroke="black" d="M341.701,-547.226C338.003,-533.26 333.959,-517.993 330.625,-505.404"/>
<polygon fill="black" stroke="black" points="333.958,-504.316 328.014,-495.546 327.191,-506.108 333.958,-504.316"/>
</g>
<!-- Node0x15adfc40&#45;&gt;Node0x15ae1eb0 -->
<g id="edge14" class="edge"><title>Node0x15adfc40&#45;&gt;Node0x15ae1eb0</title>
<path fill="none" stroke="black" d="M586.5,-233.385C586.5,-225.528 586.5,-215.844 586.5,-205.842"/>
<polygon fill="black" stroke="black" points="590,-205.789 586.5,-195.789 583,-205.789 590,-205.789"/>
</g>
<!-- Node0x15ae0670 -->
<g id="node14" class="node"><title>Node0x15ae0670</title>
<polygon fill="none" stroke="black" points="56.5,-309.5 56.5,-407.5 326.5,-407.5 326.5,-309.5 56.5,-309.5"/>
<text text-anchor="start" x="64.5" y="-392.3" font-family="Times,serif" font-size="14.00">0x8057790:</text>
<text text-anchor="start" x="64.5" y="-377.3" font-family="Times,serif" font-size="14.00"> *(IntToPtrCastExpr&lt;ptr&gt;(v5)) = 0</text>
<text text-anchor="start" x="64.5" y="-362.3" font-family="Times,serif" font-size="14.00"> v5 = (g6 + 1)</text>
<text text-anchor="start" x="64.5" y="-347.3" font-family="Times,serif" font-size="14.00"> g6 = v5</text>
<text text-anchor="start" x="64.5" y="-332.3" font-family="Times,serif" font-size="14.00"> v6 = (g1 &#45; 1)</text>
<text text-anchor="start" x="64.5" y="-317.3" font-family="Times,serif" font-size="14.00"> g1 = v6</text>
</g>
<!-- Node0x15ae3450&#45;&gt;Node0x15ae0670 -->
<g id="edge15" class="edge"><title>Node0x15ae3450&#45;&gt;Node0x15ae0670</title>
<path fill="none" stroke="black" d="M273.714,-459.357C263.392,-454.421 253.065,-448.336 244.5,-441 236.158,-433.855 228.632,-425.076 222.046,-415.955"/>
<polygon fill="black" stroke="black" points="224.806,-413.79 216.266,-407.52 219.032,-417.747 224.806,-413.79"/>
<text text-anchor="middle" x="271.5" y="-429.8" font-family="Times,serif" font-size="14.00">v6 != 0</text>
</g>
<!-- Node0x15ae04c0 -->
<g id="node15" class="node"><title>Node0x15ae04c0</title>
<polygon fill="none" stroke="black" points="344.5,-332 344.5,-385 658.5,-385 658.5,-332 344.5,-332"/>
<text text-anchor="start" x="352.5" y="-369.8" font-family="Times,serif" font-size="14.00">v7 = *(IntToPtrCastExpr&lt;ptr&gt;((v1 + 8)))</text>
<text text-anchor="start" x="352.5" y="-354.8" font-family="Times,serif" font-size="14.00"> g6 = v7</text>
<text text-anchor="start" x="352.5" y="-339.8" font-family="Times,serif" font-size="14.00"> v3 = v7</text>
</g>
<!-- Node0x15ae3450&#45;&gt;Node0x15ae04c0 -->
<g id="edge16" class="edge"><title>Node0x15ae3450&#45;&gt;Node0x15ae04c0</title>
<path fill="none" stroke="black" d="M349.383,-459.487C376.644,-441.568 420.184,-412.949 453.711,-390.912"/>
<polygon fill="black" stroke="black" points="456.007,-393.591 462.441,-385.174 452.162,-387.742 456.007,-393.591"/>
<text text-anchor="middle" x="427.5" y="-429.8" font-family="Times,serif" font-size="14.00">v6 == 0</text>
</g>
<!-- Node0x15ae0670&#45;&gt;Node0x15ae3450 -->
<g id="edge17" class="edge"><title>Node0x15ae0670&#45;&gt;Node0x15ae3450</title>
<path fill="none" stroke="black" d="M278.655,-407.592C285.797,-413.294 292.545,-419.442 298.5,-426 304.739,-432.872 309.788,-441.586 313.671,-449.833"/>
<polygon fill="black" stroke="black" points="310.52,-451.367 317.696,-459.162 316.948,-448.594 310.52,-451.367"/>
</g>
<!-- Node0x15ae04c0&#45;&gt;Node0x15adfc40 -->
<g id="edge18" class="edge"><title>Node0x15ae04c0&#45;&gt;Node0x15adfc40</title>
<path fill="none" stroke="black" d="M522.511,-331.792C535.489,-315.913 552.095,-295.595 565.138,-279.637"/>
<polygon fill="black" stroke="black" points="567.977,-281.694 571.595,-271.736 562.557,-277.264 567.977,-281.694"/>
</g>
</g>
</svg>
