<?xml version="1.0" encoding="UTF-8" standalone="no"?>
<!DOCTYPE svg PUBLIC "-//W3C//DTD SVG 1.1//EN"
 "http://www.w3.org/Graphics/SVG/1.1/DTD/svg11.dtd">
<!-- Generated by graphviz version 2.38.0 (20140413.2041)
 -->
<!-- Title: Control&#45;flow graph for function &#39;mbedtls_md_info_from_type(a1)&#39;. Pages: 1 -->
<svg width="744pt" height="552pt"
 viewBox="0.00 0.00 744.00 552.00" xmlns="http://www.w3.org/2000/svg" xmlns:xlink="http://www.w3.org/1999/xlink">
<g id="graph0" class="graph" transform="scale(1 1) rotate(0) translate(4 548)">
<title>Control&#45;flow graph for function &#39;mbedtls_md_info_from_type(a1)&#39;.</title>
<polygon fill="white" stroke="none" points="-4,4 -4,-548 740,-548 740,4 -4,4"/>
<text text-anchor="middle" x="368" y="-7.8" font-family="Times,serif" font-size="14.00">Control&#45;flow graph for function &#39;mbedtls_md_info_from_type(a1)&#39;.</text>
<!-- Node0x1b6a0000 -->
<g id="node1" class="node"><title>Node0x1b6a0000</title>
<polygon fill="none" stroke="black" points="473,-505.5 473,-543.5 532,-543.5 532,-505.5 473,-505.5"/>
<text text-anchor="start" x="481" y="-528.3" font-family="Times,serif" font-size="14.00">entry:</text>
<text text-anchor="start" x="481" y="-513.3" font-family="Times,serif" font-size="14.00"> a1</text>
</g>
<!-- Node0x18170f00 -->
<g id="node2" class="node"><title>Node0x18170f00</title>
<polygon fill="none" stroke="black" points="447.5,-384.5 447.5,-467.5 557.5,-467.5 557.5,-384.5 447.5,-384.5"/>
<text text-anchor="start" x="455.5" y="-452.3" font-family="Times,serif" font-size="14.00">0x80621c0:</text>
<text text-anchor="start" x="455.5" y="-437.3" font-family="Times,serif" font-size="14.00"> g1 = 0</text>
<text text-anchor="start" x="455.5" y="-422.3" font-family="Times,serif" font-size="14.00"> v1 = (a1 &#45; 3)</text>
<text text-anchor="start" x="455.5" y="-407.3" font-family="Times,serif" font-size="14.00"> g6 = v1</text>
<text text-anchor="start" x="455.5" y="-392.3" font-family="Times,serif" font-size="14.00"> result</text>
</g>
<!-- Node0x1b6a0000&#45;&gt;Node0x18170f00 -->
<g id="edge1" class="edge"><title>Node0x1b6a0000&#45;&gt;Node0x18170f00</title>
<path fill="none" stroke="black" d="M502.5,-505.349C502.5,-497.488 502.5,-487.852 502.5,-478.061"/>
<polygon fill="black" stroke="black" points="506,-477.87 502.5,-467.87 499,-477.87 506,-477.87"/>
</g>
<!-- Node0x1b69ff60 -->
<g id="node3" class="node"><title>Node0x1b69ff60</title>
<polygon fill="none" stroke="black" points="450,-308.5 450,-346.5 555,-346.5 555,-308.5 450,-308.5"/>
<text text-anchor="start" x="458" y="-331.3" font-family="Times,serif" font-size="14.00">if (v1 &lt;= 6):</text>
<text text-anchor="start" x="458" y="-316.3" font-family="Times,serif" font-size="14.00"> else:</text>
</g>
<!-- Node0x18170f00&#45;&gt;Node0x1b69ff60 -->
<g id="edge2" class="edge"><title>Node0x18170f00&#45;&gt;Node0x1b69ff60</title>
<path fill="none" stroke="black" d="M502.5,-384.355C502.5,-375.083 502.5,-365.427 502.5,-356.803"/>
<polygon fill="black" stroke="black" points="506,-356.538 502.5,-346.538 499,-356.538 506,-356.538"/>
</g>
<!-- Node0x1b69fa60 -->
<g id="node4" class="node"><title>Node0x1b69fa60</title>
<polygon fill="none" stroke="black" points="0,-203.5 0,-256.5 629,-256.5 629,-203.5 0,-203.5"/>
<text text-anchor="start" x="8" y="-241.3" font-family="Times,serif" font-size="14.00">0x80621d0:</text>
<text text-anchor="start" x="8" y="-226.3" font-family="Times,serif" font-size="14.00"> result = *(IntToPtrCastExpr&lt;ptr&gt;(((4 * v1) + PtrToIntCastExpr&lt;int32&gt;(&amp;(g103)))))</text>
<text text-anchor="start" x="8" y="-211.3" font-family="Times,serif" font-size="14.00"> g1 = result</text>
</g>
<!-- Node0x1b69ff60&#45;&gt;Node0x1b69fa60 -->
<g id="edge3" class="edge"><title>Node0x1b69ff60&#45;&gt;Node0x1b69fa60</title>
<path fill="none" stroke="black" d="M466.696,-308.312C440.532,-295.021 404.449,-276.692 373.984,-261.217"/>
<polygon fill="black" stroke="black" points="375.228,-257.923 364.727,-256.514 372.058,-264.164 375.228,-257.923"/>
<text text-anchor="middle" x="455.5" y="-278.8" font-family="Times,serif" font-size="14.00">v1 &lt;= 6</text>
</g>
<!-- Node0x18170d80 -->
<g id="node5" class="node"><title>Node0x18170d80</title>
<polygon fill="none" stroke="black" points="647,-212 647,-248 736,-248 736,-212 647,-212"/>
<text text-anchor="start" x="655" y="-226.3" font-family="Times,serif" font-size="14.00">result = 0</text>
</g>
<!-- Node0x1b69ff60&#45;&gt;Node0x18170d80 -->
<g id="edge4" class="edge"><title>Node0x1b69ff60&#45;&gt;Node0x18170d80</title>
<path fill="none" stroke="black" d="M538.494,-308.312C569.822,-292.483 615.292,-269.507 648.521,-252.717"/>
<polygon fill="black" stroke="black" points="650.2,-255.79 657.547,-248.156 647.043,-249.542 650.2,-255.79"/>
<text text-anchor="middle" x="626.5" y="-278.8" font-family="Times,serif" font-size="14.00">v1 &gt; 6</text>
</g>
<!-- Node0x1b69f880 -->
<g id="node6" class="node"><title>Node0x1b69f880</title>
<polygon fill="none" stroke="black" points="490,-97.5 490,-165.5 603,-165.5 603,-97.5 490,-97.5"/>
<text text-anchor="start" x="498" y="-150.3" font-family="Times,serif" font-size="14.00">0x80621d7:</text>
<text text-anchor="start" x="498" y="-135.3" font-family="Times,serif" font-size="14.00"> v2</text>
<text text-anchor="start" x="498" y="-120.3" font-family="Times,serif" font-size="14.00"> g2 = v2</text>
<text text-anchor="start" x="498" y="-105.3" font-family="Times,serif" font-size="14.00"> return result</text>
</g>
<!-- Node0x1b69fa60&#45;&gt;Node0x1b69f880 -->
<g id="edge5" class="edge"><title>Node0x1b69fa60&#45;&gt;Node0x1b69f880</title>
<path fill="none" stroke="black" d="M376.063,-203.393C408.196,-190.027 447.537,-173.664 480.322,-160.027"/>
<polygon fill="black" stroke="black" points="481.937,-163.145 489.826,-156.073 479.249,-156.682 481.937,-163.145"/>
</g>
<!-- Node0x18170d80&#45;&gt;Node0x1b69f880 -->
<g id="edge6" class="edge"><title>Node0x18170d80&#45;&gt;Node0x1b69f880</title>
<path fill="none" stroke="black" d="M665.911,-211.97C648.9,-200.649 625.852,-185.31 604.541,-171.127"/>
<polygon fill="black" stroke="black" points="606.428,-168.179 596.164,-165.552 602.55,-174.006 606.428,-168.179"/>
</g>
<!-- Node0x18170ea0 -->
<g id="node7" class="node"><title>Node0x18170ea0</title>
<polygon fill="none" stroke="black" points="519.5,-23.5 519.5,-59.5 573.5,-59.5 573.5,-23.5 519.5,-23.5"/>
<text text-anchor="start" x="527.5" y="-37.8" font-family="Times,serif" font-size="14.00">exit:</text>
</g>
<!-- Node0x1b69f880&#45;&gt;Node0x18170ea0 -->
<g id="edge7" class="edge"><title>Node0x1b69f880&#45;&gt;Node0x18170ea0</title>
<path fill="none" stroke="black" d="M546.5,-97.4817C546.5,-88.3281 546.5,-78.4972 546.5,-69.7155"/>
<polygon fill="black" stroke="black" points="550,-69.6402 546.5,-59.6402 543,-69.6403 550,-69.6402"/>
</g>
</g>
</svg>
