<?xml version="1.0" encoding="UTF-8" standalone="no"?>
<!DOCTYPE svg PUBLIC "-//W3C//DTD SVG 1.1//EN"
 "http://www.w3.org/Graphics/SVG/1.1/DTD/svg11.dtd">
<!-- Generated by graphviz version 2.38.0 (20140413.2041)
 -->
<!-- Title: Control&#45;flow graph for function &#39;mbedtls_ctr_drbg_free(*a1)&#39;. Pages: 1 -->
<svg width="560pt" height="619pt"
 viewBox="0.00 0.00 560.00 619.00" xmlns="http://www.w3.org/2000/svg" xmlns:xlink="http://www.w3.org/1999/xlink">
<g id="graph0" class="graph" transform="scale(1 1) rotate(0) translate(4 615)">
<title>Control&#45;flow graph for function &#39;mbedtls_ctr_drbg_free(*a1)&#39;.</title>
<polygon fill="white" stroke="none" points="-4,4 -4,-615 556,-615 556,4 -4,4"/>
<text text-anchor="middle" x="276" y="-7.8" font-family="Times,serif" font-size="14.00">Control&#45;flow graph for function &#39;mbedtls_ctr_drbg_free(*a1)&#39;.</text>
<!-- Node0x1fce5cf0 -->
<g id="node1" class="node"><title>Node0x1fce5cf0</title>
<polygon fill="none" stroke="black" points="169,-572.5 169,-610.5 228,-610.5 228,-572.5 169,-572.5"/>
<text text-anchor="start" x="177" y="-595.3" font-family="Times,serif" font-size="14.00">entry:</text>
<text text-anchor="start" x="177" y="-580.3" font-family="Times,serif" font-size="14.00"> a1</text>
</g>
<!-- Node0x1d0c7ac0 -->
<g id="node2" class="node"><title>Node0x1d0c7ac0</title>
<polygon fill="none" stroke="black" points="62.5,-496.5 62.5,-534.5 334.5,-534.5 334.5,-496.5 62.5,-496.5"/>
<text text-anchor="start" x="70.5" y="-519.3" font-family="Times,serif" font-size="14.00">v1 = PtrToIntCastExpr&lt;int32&gt;(a1)</text>
<text text-anchor="start" x="70.5" y="-504.3" font-family="Times,serif" font-size="14.00"> result</text>
</g>
<!-- Node0x1fce5cf0&#45;&gt;Node0x1d0c7ac0 -->
<g id="edge1" class="edge"><title>Node0x1fce5cf0&#45;&gt;Node0x1d0c7ac0</title>
<path fill="none" stroke="black" d="M198.5,-572.208C198.5,-563.964 198.5,-554.038 198.5,-544.862"/>
<polygon fill="black" stroke="black" points="202,-544.582 198.5,-534.582 195,-544.582 202,-544.582"/>
</g>
<!-- Node0x1d0c7720 -->
<g id="node3" class="node"><title>Node0x1d0c7720</title>
<polygon fill="none" stroke="black" points="128.5,-420.5 128.5,-458.5 268.5,-458.5 268.5,-420.5 128.5,-420.5"/>
<text text-anchor="start" x="136.5" y="-443.3" font-family="Times,serif" font-size="14.00">if (a1 == NULL):</text>
<text text-anchor="start" x="136.5" y="-428.3" font-family="Times,serif" font-size="14.00"> else:</text>
</g>
<!-- Node0x1d0c7ac0&#45;&gt;Node0x1d0c7720 -->
<g id="edge2" class="edge"><title>Node0x1d0c7ac0&#45;&gt;Node0x1d0c7720</title>
<path fill="none" stroke="black" d="M198.5,-496.208C198.5,-487.964 198.5,-478.038 198.5,-468.862"/>
<polygon fill="black" stroke="black" points="202,-468.582 198.5,-458.582 195,-468.582 202,-468.582"/>
</g>
<!-- Node0x1d0c7fe0 -->
<g id="node4" class="node"><title>Node0x1d0c7fe0</title>
<polygon fill="none" stroke="black" points="11.5,-315.5 11.5,-353.5 113.5,-353.5 113.5,-315.5 11.5,-315.5"/>
<text text-anchor="start" x="19.5" y="-338.3" font-family="Times,serif" font-size="14.00">0x804c090:</text>
<text text-anchor="start" x="19.5" y="-323.3" font-family="Times,serif" font-size="14.00"> result = g1</text>
</g>
<!-- Node0x1d0c7720&#45;&gt;Node0x1d0c7fe0 -->
<g id="edge3" class="edge"><title>Node0x1d0c7720&#45;&gt;Node0x1d0c7fe0</title>
<path fill="none" stroke="black" d="M174.499,-420.323C152.398,-403.584 119.43,-378.616 94.9798,-360.099"/>
<polygon fill="black" stroke="black" points="96.8035,-357.089 86.7185,-353.842 92.5772,-362.67 96.8035,-357.089"/>
<text text-anchor="middle" x="194.5" y="-390.8" font-family="Times,serif" font-size="14.00">a1 == NULL</text>
</g>
<!-- Node0x1d0c8040 -->
<g id="node5" class="node"><title>Node0x1d0c8040</title>
<polygon fill="none" stroke="black" points="145,-300.5 145,-368.5 552,-368.5 552,-300.5 145,-300.5"/>
<text text-anchor="start" x="153" y="-353.3" font-family="Times,serif" font-size="14.00">0x804c09e:</text>
<text text-anchor="start" x="153" y="-338.3" font-family="Times,serif" font-size="14.00"> mbedtls_aes_free(IntToPtrCastExpr&lt;ptr&gt;((v1 + 32)))</text>
<text text-anchor="start" x="153" y="-323.3" font-family="Times,serif" font-size="14.00"> *(IntToPtrCastExpr&lt;ptr&gt;(v1)) = 0</text>
<text text-anchor="start" x="153" y="-308.3" font-family="Times,serif" font-size="14.00"> v2 = (v1 + 1)</text>
</g>
<!-- Node0x1d0c7720&#45;&gt;Node0x1d0c8040 -->
<g id="edge4" class="edge"><title>Node0x1d0c7720&#45;&gt;Node0x1d0c8040</title>
<path fill="none" stroke="black" d="M224.972,-420.323C243.474,-407.618 268.881,-390.172 291.843,-374.404"/>
<polygon fill="black" stroke="black" points="293.913,-377.229 300.175,-368.683 289.951,-371.458 293.913,-377.229"/>
<text text-anchor="middle" x="317.5" y="-390.8" font-family="Times,serif" font-size="14.00">a1 != NULL</text>
</g>
<!-- Node0x1d0c7850 -->
<g id="node6" class="node"><title>Node0x1d0c7850</title>
<polygon fill="none" stroke="black" points="0,-169.5 0,-207.5 113,-207.5 113,-169.5 0,-169.5"/>
<text text-anchor="start" x="8" y="-192.3" font-family="Times,serif" font-size="14.00">0x804c0c2:</text>
<text text-anchor="start" x="8" y="-177.3" font-family="Times,serif" font-size="14.00"> return result</text>
</g>
<!-- Node0x1d0c7fe0&#45;&gt;Node0x1d0c7850 -->
<g id="edge5" class="edge"><title>Node0x1d0c7fe0&#45;&gt;Node0x1d0c7850</title>
<path fill="none" stroke="black" d="M61.7401,-315.262C60.7167,-290.701 58.8853,-246.747 57.6814,-217.854"/>
<polygon fill="black" stroke="black" points="61.1671,-217.435 57.2537,-207.59 54.1732,-217.727 61.1671,-217.435"/>
</g>
<!-- Node0x1d0c80a0 -->
<g id="node7" class="node"><title>Node0x1d0c80a0</title>
<polygon fill="none" stroke="black" points="256.5,-226.5 256.5,-262.5 450.5,-262.5 450.5,-226.5 256.5,-226.5"/>
<text text-anchor="start" x="264.5" y="-240.8" font-family="Times,serif" font-size="14.00">while (v2 != (v1 + 320)):</text>
</g>
<!-- Node0x1d0c8040&#45;&gt;Node0x1d0c80a0 -->
<g id="edge6" class="edge"><title>Node0x1d0c8040&#45;&gt;Node0x1d0c80a0</title>
<path fill="none" stroke="black" d="M350.376,-300.482C350.896,-291.328 351.455,-281.497 351.954,-272.715"/>
<polygon fill="black" stroke="black" points="355.453,-272.823 352.526,-262.64 348.464,-272.426 355.453,-272.823"/>
</g>
<!-- Node0x1d0c7a60 -->
<g id="node8" class="node"><title>Node0x1d0c7a60</title>
<polygon fill="none" stroke="black" points="127.5,-23.5 127.5,-59.5 181.5,-59.5 181.5,-23.5 127.5,-23.5"/>
<text text-anchor="start" x="135.5" y="-37.8" font-family="Times,serif" font-size="14.00">exit:</text>
</g>
<!-- Node0x1d0c7850&#45;&gt;Node0x1d0c7a60 -->
<g id="edge7" class="edge"><title>Node0x1d0c7850&#45;&gt;Node0x1d0c7a60</title>
<path fill="none" stroke="black" d="M56.4484,-169.331C57.2223,-149.898 60.919,-118.923 75.5,-97 86.0678,-81.1111 102.991,-68.5312 118.468,-59.4796"/>
<polygon fill="black" stroke="black" points="120.301,-62.4653 127.354,-54.5594 116.91,-56.3412 120.301,-62.4653"/>
</g>
<!-- Node0x1d0c7ef0 -->
<g id="node9" class="node"><title>Node0x1d0c7ef0</title>
<polygon fill="none" stroke="black" points="84.5,-97.5 84.5,-150.5 354.5,-150.5 354.5,-97.5 84.5,-97.5"/>
<text text-anchor="start" x="92.5" y="-135.3" font-family="Times,serif" font-size="14.00">0x804c0b8:</text>
<text text-anchor="start" x="92.5" y="-120.3" font-family="Times,serif" font-size="14.00"> *(IntToPtrCastExpr&lt;ptr&gt;(v2)) = 0</text>
<text text-anchor="start" x="92.5" y="-105.3" font-family="Times,serif" font-size="14.00"> v2 = (v2 + 1)</text>
</g>
<!-- Node0x1d0c80a0&#45;&gt;Node0x1d0c7ef0 -->
<g id="edge8" class="edge"><title>Node0x1d0c80a0&#45;&gt;Node0x1d0c7ef0</title>
<path fill="none" stroke="black" d="M256.864,-226.473C239.525,-221.48 225.151,-215.343 219.5,-208 209.407,-194.885 208.37,-176.834 210.294,-160.914"/>
<polygon fill="black" stroke="black" points="213.783,-161.263 211.921,-150.833 206.873,-160.148 213.783,-161.263"/>
<text text-anchor="middle" x="280" y="-184.8" font-family="Times,serif" font-size="14.00">v2 != (v1 + 320)</text>
</g>
<!-- Node0x1d0c8100 -->
<g id="node10" class="node"><title>Node0x1d0c8100</title>
<polygon fill="none" stroke="black" points="373,-105 373,-143 474,-143 474,-105 373,-105"/>
<text text-anchor="start" x="381" y="-127.8" font-family="Times,serif" font-size="14.00">0x804c0c2:</text>
<text text-anchor="start" x="381" y="-112.8" font-family="Times,serif" font-size="14.00"> result = v2</text>
</g>
<!-- Node0x1d0c80a0&#45;&gt;Node0x1d0c8100 -->
<g id="edge9" class="edge"><title>Node0x1d0c80a0&#45;&gt;Node0x1d0c8100</title>
<path fill="none" stroke="black" d="M363.679,-226.269C375.21,-206.749 394.147,-174.691 407.624,-151.876"/>
<polygon fill="black" stroke="black" points="410.777,-153.419 412.85,-143.029 404.75,-149.859 410.777,-153.419"/>
<text text-anchor="middle" x="461" y="-184.8" font-family="Times,serif" font-size="14.00">v2 == (v1 + 320)</text>
</g>
<!-- Node0x1d0c7ef0&#45;&gt;Node0x1d0c80a0 -->
<g id="edge10" class="edge"><title>Node0x1d0c7ef0&#45;&gt;Node0x1d0c80a0</title>
<path fill="none" stroke="black" d="M318.872,-150.57C326.989,-155.641 334.399,-161.718 340.5,-169 351.393,-182.001 354.603,-200.853 355.109,-216.339"/>
<polygon fill="black" stroke="black" points="351.609,-216.403 355.09,-226.41 358.609,-216.417 351.609,-216.403"/>
</g>
<!-- Node0x1d0c8100&#45;&gt;Node0x1d0c7a60 -->
<g id="edge11" class="edge"><title>Node0x1d0c8100&#45;&gt;Node0x1d0c7a60</title>
<path fill="none" stroke="black" d="M384.142,-104.924C377.329,-102.089 370.262,-99.3311 363.5,-97 304.386,-76.62 233.607,-59.6664 191.44,-50.3224"/>
<polygon fill="black" stroke="black" points="192.134,-46.8914 181.616,-48.1686 190.635,-53.729 192.134,-46.8914"/>
</g>
</g>
</svg>
