<?xml version="1.0" encoding="UTF-8" standalone="no"?>
<!DOCTYPE svg PUBLIC "-//W3C//DTD SVG 1.1//EN"
 "http://www.w3.org/Graphics/SVG/1.1/DTD/svg11.dtd">
<!-- Generated by graphviz version 2.38.0 (20140413.2041)
 -->
<!-- Title: Control&#45;flow graph for function &#39;__vsyscall6(*a1, a2)&#39;. Pages: 1 -->
<svg width="406pt" height="263pt"
 viewBox="0.00 0.00 406.00 263.00" xmlns="http://www.w3.org/2000/svg" xmlns:xlink="http://www.w3.org/1999/xlink">
<g id="graph0" class="graph" transform="scale(1 1) rotate(0) translate(4 259)">
<title>Control&#45;flow graph for function &#39;__vsyscall6(*a1, a2)&#39;.</title>
<polygon fill="white" stroke="none" points="-4,4 -4,-259 402,-259 402,4 -4,4"/>
<text text-anchor="middle" x="199" y="-7.8" font-family="Times,serif" font-size="14.00">Control&#45;flow graph for function &#39;__vsyscall6(*a1, a2)&#39;.</text>
<!-- Node0x17cb6b00 -->
<g id="node1" class="node"><title>Node0x17cb6b00</title>
<polygon fill="none" stroke="black" points="169.5,-201.5 169.5,-254.5 228.5,-254.5 228.5,-201.5 169.5,-201.5"/>
<text text-anchor="start" x="177.5" y="-239.3" font-family="Times,serif" font-size="14.00">entry:</text>
<text text-anchor="start" x="177.5" y="-224.3" font-family="Times,serif" font-size="14.00"> a1</text>
<text text-anchor="start" x="177.5" y="-209.3" font-family="Times,serif" font-size="14.00"> a2</text>
</g>
<!-- Node0x194c32e0 -->
<g id="node2" class="node"><title>Node0x194c32e0</title>
<polygon fill="none" stroke="black" points="78,-96.5 78,-164.5 320,-164.5 320,-96.5 78,-96.5"/>
<text text-anchor="start" x="86" y="-149.3" font-family="Times,serif" font-size="14.00">v1 = g1</text>
<text text-anchor="start" x="86" y="-134.3" font-family="Times,serif" font-size="14.00"> g1 = v1</text>
<text text-anchor="start" x="86" y="-119.3" font-family="Times,serif" font-size="14.00"> v2</text>
<text text-anchor="start" x="86" y="-104.3" font-family="Times,serif" font-size="14.00"> return __vsyscall(*(a1), v1, v2)</text>
</g>
<!-- Node0x17cb6b00&#45;&gt;Node0x194c32e0 -->
<g id="edge1" class="edge"><title>Node0x17cb6b00&#45;&gt;Node0x194c32e0</title>
<path fill="none" stroke="black" d="M199,-201.408C199,-193.219 199,-183.912 199,-174.822"/>
<polygon fill="black" stroke="black" points="202.5,-174.721 199,-164.721 195.5,-174.721 202.5,-174.721"/>
</g>
<!-- Node0x17cb6080 -->
<g id="node3" class="node"><title>Node0x17cb6080</title>
<polygon fill="none" stroke="black" points="172,-23.5 172,-59.5 226,-59.5 226,-23.5 172,-23.5"/>
<text text-anchor="start" x="180" y="-37.8" font-family="Times,serif" font-size="14.00">exit:</text>
</g>
<!-- Node0x194c32e0&#45;&gt;Node0x17cb6080 -->
<g id="edge2" class="edge"><title>Node0x194c32e0&#45;&gt;Node0x17cb6080</title>
<path fill="none" stroke="black" d="M199,-96.1123C199,-87.3522 199,-78.0128 199,-69.6246"/>
<polygon fill="black" stroke="black" points="202.5,-69.6235 199,-59.6235 195.5,-69.6235 202.5,-69.6235"/>
</g>
</g>
</svg>
