<?xml version="1.0" encoding="UTF-8" standalone="no"?>
<!DOCTYPE svg PUBLIC "-//W3C//DTD SVG 1.1//EN"
 "http://www.w3.org/Graphics/SVG/1.1/DTD/svg11.dtd">
<!-- Generated by graphviz version 2.38.0 (20140413.2041)
 -->
<!-- Title: Control&#45;flow graph for function &#39;__ofl_add(a1)&#39;. Pages: 1 -->
<svg width="496pt" height="595pt"
 viewBox="0.00 0.00 496.00 595.00" xmlns="http://www.w3.org/2000/svg" xmlns:xlink="http://www.w3.org/1999/xlink">
<g id="graph0" class="graph" transform="scale(1 1) rotate(0) translate(4 591)">
<title>Control&#45;flow graph for function &#39;__ofl_add(a1)&#39;.</title>
<polygon fill="white" stroke="none" points="-4,4 -4,-591 492,-591 492,4 -4,4"/>
<text text-anchor="middle" x="244" y="-7.8" font-family="Times,serif" font-size="14.00">Control&#45;flow graph for function &#39;__ofl_add(a1)&#39;.</text>
<!-- Node0x140f1830 -->
<g id="node1" class="node"><title>Node0x140f1830</title>
<polygon fill="none" stroke="black" points="285,-548.5 285,-586.5 344,-586.5 344,-548.5 285,-548.5"/>
<text text-anchor="start" x="293" y="-571.3" font-family="Times,serif" font-size="14.00">entry:</text>
<text text-anchor="start" x="293" y="-556.3" font-family="Times,serif" font-size="14.00"> a1</text>
</g>
<!-- Node0x140f21d0 -->
<g id="node2" class="node"><title>Node0x140f21d0</title>
<polygon fill="none" stroke="black" points="141,-427.5 141,-510.5 488,-510.5 488,-427.5 141,-427.5"/>
<text text-anchor="start" x="149" y="-495.3" font-family="Times,serif" font-size="14.00">0x8076da8:</text>
<text text-anchor="start" x="149" y="-480.3" font-family="Times,serif" font-size="14.00"> g3 = a1</text>
<text text-anchor="start" x="149" y="-465.3" font-family="Times,serif" font-size="14.00"> __ofl_lock()</text>
<text text-anchor="start" x="149" y="-450.3" font-family="Times,serif" font-size="14.00"> *(IntToPtrCastExpr&lt;ptr&gt;((g3 + 56))) = g220</text>
<text text-anchor="start" x="149" y="-435.3" font-family="Times,serif" font-size="14.00"> v1 = g220</text>
</g>
<!-- Node0x140f1830&#45;&gt;Node0x140f21d0 -->
<g id="edge1" class="edge"><title>Node0x140f1830&#45;&gt;Node0x140f21d0</title>
<path fill="none" stroke="black" d="M314.5,-548.349C314.5,-540.488 314.5,-530.852 314.5,-521.061"/>
<polygon fill="black" stroke="black" points="318,-520.87 314.5,-510.87 311,-520.87 318,-520.87"/>
</g>
<!-- Node0x140f22f0 -->
<g id="node3" class="node"><title>Node0x140f22f0</title>
<polygon fill="none" stroke="black" points="265,-353.5 265,-389.5 364,-389.5 364,-353.5 265,-353.5"/>
<text text-anchor="start" x="273" y="-367.8" font-family="Times,serif" font-size="14.00">if (v1 != 0):</text>
</g>
<!-- Node0x140f21d0&#45;&gt;Node0x140f22f0 -->
<g id="edge2" class="edge"><title>Node0x140f21d0&#45;&gt;Node0x140f22f0</title>
<path fill="none" stroke="black" d="M314.5,-427.499C314.5,-418.206 314.5,-408.537 314.5,-399.946"/>
<polygon fill="black" stroke="black" points="318,-399.749 314.5,-389.749 311,-399.749 318,-399.749"/>
</g>
<!-- Node0x140f1d60 -->
<g id="node4" class="node"><title>Node0x140f1d60</title>
<polygon fill="none" stroke="black" points="0,-263.5 0,-301.5 329,-301.5 329,-263.5 0,-263.5"/>
<text text-anchor="start" x="8" y="-286.3" font-family="Times,serif" font-size="14.00">0x8076dc0:</text>
<text text-anchor="start" x="8" y="-271.3" font-family="Times,serif" font-size="14.00"> *(IntToPtrCastExpr&lt;ptr&gt;((v1 + 52))) = g3</text>
</g>
<!-- Node0x140f22f0&#45;&gt;Node0x140f1d60 -->
<g id="edge3" class="edge"><title>Node0x140f22f0&#45;&gt;Node0x140f1d60</title>
<path fill="none" stroke="black" d="M284.865,-353.312C261.9,-339.992 229.846,-321.401 204.591,-306.753"/>
<polygon fill="black" stroke="black" points="206.029,-303.541 195.623,-301.551 202.517,-309.596 206.029,-303.541"/>
<text text-anchor="middle" x="280.5" y="-323.8" font-family="Times,serif" font-size="14.00">v1 != 0</text>
</g>
<!-- Node0x140f24e0 -->
<g id="node5" class="node"><title>Node0x140f24e0</title>
<polygon fill="none" stroke="black" points="249,-97.5 249,-225.5 368,-225.5 368,-97.5 249,-97.5"/>
<text text-anchor="start" x="257" y="-210.3" font-family="Times,serif" font-size="14.00">0x8076dc3:</text>
<text text-anchor="start" x="257" y="-195.3" font-family="Times,serif" font-size="14.00"> g220 = g3</text>
<text text-anchor="start" x="257" y="-180.3" font-family="Times,serif" font-size="14.00"> __ofl_unlock()</text>
<text text-anchor="start" x="257" y="-165.3" font-family="Times,serif" font-size="14.00"> result = g3</text>
<text text-anchor="start" x="257" y="-150.3" font-family="Times,serif" font-size="14.00"> g1 = result</text>
<text text-anchor="start" x="257" y="-135.3" font-family="Times,serif" font-size="14.00"> v2</text>
<text text-anchor="start" x="257" y="-120.3" font-family="Times,serif" font-size="14.00"> g3 = v2</text>
<text text-anchor="start" x="257" y="-105.3" font-family="Times,serif" font-size="14.00"> return result</text>
</g>
<!-- Node0x140f22f0&#45;&gt;Node0x140f24e0 -->
<g id="edge4" class="edge"><title>Node0x140f22f0&#45;&gt;Node0x140f24e0</title>
<path fill="none" stroke="black" d="M321.954,-353.439C327.481,-339.814 334.546,-320.076 337.5,-302 341.03,-280.398 338.655,-257.063 334.035,-235.774"/>
<polygon fill="black" stroke="black" points="337.391,-234.755 331.686,-225.828 330.578,-236.365 337.391,-234.755"/>
<text text-anchor="middle" x="368.5" y="-278.8" font-family="Times,serif" font-size="14.00">v1 == 0</text>
</g>
<!-- Node0x140f1d60&#45;&gt;Node0x140f24e0 -->
<g id="edge5" class="edge"><title>Node0x140f1d60&#45;&gt;Node0x140f24e0</title>
<path fill="none" stroke="black" d="M186.371,-263.426C201.026,-251.315 221.183,-234.658 240.899,-218.365"/>
<polygon fill="black" stroke="black" points="243.234,-220.976 248.713,-211.907 238.775,-215.58 243.234,-220.976"/>
</g>
<!-- Node0x140f17a0 -->
<g id="node6" class="node"><title>Node0x140f17a0</title>
<polygon fill="none" stroke="black" points="281.5,-23.5 281.5,-59.5 335.5,-59.5 335.5,-23.5 281.5,-23.5"/>
<text text-anchor="start" x="289.5" y="-37.8" font-family="Times,serif" font-size="14.00">exit:</text>
</g>
<!-- Node0x140f24e0&#45;&gt;Node0x140f17a0 -->
<g id="edge6" class="edge"><title>Node0x140f24e0&#45;&gt;Node0x140f17a0</title>
<path fill="none" stroke="black" d="M308.5,-97.3546C308.5,-87.7534 308.5,-78.2993 308.5,-70.016"/>
<polygon fill="black" stroke="black" points="312,-69.8875 308.5,-59.8875 305,-69.8876 312,-69.8875"/>
</g>
</g>
</svg>
