<?xml version="1.0" encoding="UTF-8" standalone="no"?>
<!DOCTYPE svg PUBLIC "-//W3C//DTD SVG 1.1//EN"
 "http://www.w3.org/Graphics/SVG/1.1/DTD/svg11.dtd">
<!-- Generated by graphviz version 2.38.0 (20140413.2041)
 -->
<!-- Title: Control&#45;flow graph for function &#39;mbedtls_rsa_pkcs1_verify(a1, a2, a3, a4, a5, a6, a7, a8)&#39;. Pages: 1 -->
<svg width="1310pt" height="895pt"
 viewBox="0.00 0.00 1309.50 895.00" xmlns="http://www.w3.org/2000/svg" xmlns:xlink="http://www.w3.org/1999/xlink">
<g id="graph0" class="graph" transform="scale(1 1) rotate(0) translate(4 891)">
<title>Control&#45;flow graph for function &#39;mbedtls_rsa_pkcs1_verify(a1, a2, a3, a4, a5, a6, a7, a8)&#39;.</title>
<polygon fill="white" stroke="none" points="-4,4 -4,-891 1305.5,-891 1305.5,4 -4,4"/>
<text text-anchor="middle" x="650.75" y="-7.8" font-family="Times,serif" font-size="14.00">Control&#45;flow graph for function &#39;mbedtls_rsa_pkcs1_verify(a1, a2, a3, a4, a5, a6, a7, a8)&#39;.</text>
<!-- Node0x285b7e40 -->
<g id="node1" class="node"><title>Node0x285b7e40</title>
<polygon fill="none" stroke="black" points="795.5,-743.5 795.5,-886.5 854.5,-886.5 854.5,-743.5 795.5,-743.5"/>
<text text-anchor="start" x="803.5" y="-871.3" font-family="Times,serif" font-size="14.00">entry:</text>
<text text-anchor="start" x="803.5" y="-856.3" font-family="Times,serif" font-size="14.00"> a1</text>
<text text-anchor="start" x="803.5" y="-841.3" font-family="Times,serif" font-size="14.00"> a2</text>
<text text-anchor="start" x="803.5" y="-826.3" font-family="Times,serif" font-size="14.00"> a3</text>
<text text-anchor="start" x="803.5" y="-811.3" font-family="Times,serif" font-size="14.00"> a4</text>
<text text-anchor="start" x="803.5" y="-796.3" font-family="Times,serif" font-size="14.00"> a5</text>
<text text-anchor="start" x="803.5" y="-781.3" font-family="Times,serif" font-size="14.00"> a6</text>
<text text-anchor="start" x="803.5" y="-766.3" font-family="Times,serif" font-size="14.00"> a7</text>
<text text-anchor="start" x="803.5" y="-751.3" font-family="Times,serif" font-size="14.00"> a8</text>
</g>
<!-- Node0x26a93fb0 -->
<g id="node2" class="node"><title>Node0x26a93fb0</title>
<polygon fill="none" stroke="black" points="656.5,-547.5 656.5,-705.5 993.5,-705.5 993.5,-547.5 656.5,-547.5"/>
<text text-anchor="start" x="664.5" y="-690.3" font-family="Times,serif" font-size="14.00">v1 = g3</text>
<text text-anchor="start" x="664.5" y="-675.3" font-family="Times,serif" font-size="14.00"> g4 = a5</text>
<text text-anchor="start" x="664.5" y="-660.3" font-family="Times,serif" font-size="14.00"> v2 = g7</text>
<text text-anchor="start" x="664.5" y="-645.3" font-family="Times,serif" font-size="14.00"> g3 = a6</text>
<text text-anchor="start" x="664.5" y="-630.3" font-family="Times,serif" font-size="14.00"> v3 = g5</text>
<text text-anchor="start" x="664.5" y="-615.3" font-family="Times,serif" font-size="14.00"> v4 = *(IntToPtrCastExpr&lt;ptr&gt;((a1 + 164)))</text>
<text text-anchor="start" x="664.5" y="-600.3" font-family="Times,serif" font-size="14.00"> v5 = a1</text>
<text text-anchor="start" x="664.5" y="-585.3" font-family="Times,serif" font-size="14.00"> v6 = v4</text>
<text text-anchor="start" x="664.5" y="-570.3" font-family="Times,serif" font-size="14.00"> v7</text>
<text text-anchor="start" x="664.5" y="-555.3" font-family="Times,serif" font-size="14.00"> v8</text>
</g>
<!-- Node0x285b7e40&#45;&gt;Node0x26a93fb0 -->
<g id="edge1" class="edge"><title>Node0x285b7e40&#45;&gt;Node0x26a93fb0</title>
<path fill="none" stroke="black" d="M825,-743.492C825,-734.402 825,-725.005 825,-715.675"/>
<polygon fill="black" stroke="black" points="828.5,-715.597 825,-705.597 821.5,-715.597 828.5,-715.597"/>
</g>
<!-- Node0x17a1c4a0 -->
<g id="node3" class="node"><title>Node0x17a1c4a0</title>
<polygon fill="none" stroke="black" points="772.5,-473.5 772.5,-509.5 877.5,-509.5 877.5,-473.5 772.5,-473.5"/>
<text text-anchor="start" x="780.5" y="-487.8" font-family="Times,serif" font-size="14.00">if (v4 == 0):</text>
</g>
<!-- Node0x26a93fb0&#45;&gt;Node0x17a1c4a0 -->
<g id="edge2" class="edge"><title>Node0x26a93fb0&#45;&gt;Node0x17a1c4a0</title>
<path fill="none" stroke="black" d="M825,-547.364C825,-537.457 825,-527.905 825,-519.625"/>
<polygon fill="black" stroke="black" points="828.5,-519.552 825,-509.552 821.5,-519.552 828.5,-519.552"/>
</g>
<!-- Node0x285b77c0 -->
<g id="node4" class="node"><title>Node0x285b77c0</title>
<polygon fill="none" stroke="black" points="0,-323.5 0,-421.5 912,-421.5 912,-323.5 0,-323.5"/>
<text text-anchor="start" x="8" y="-406.3" font-family="Times,serif" font-size="14.00">0x805031a:</text>
<text text-anchor="start" x="8" y="-391.3" font-family="Times,serif" font-size="14.00"> g5 = v3</text>
<text text-anchor="start" x="8" y="-376.3" font-family="Times,serif" font-size="14.00"> g7 = v2</text>
<text text-anchor="start" x="8" y="-361.3" font-family="Times,serif" font-size="14.00"> g3 = v1</text>
<text text-anchor="start" x="8" y="-346.3" font-family="Times,serif" font-size="14.00"> v5 = mbedtls_rsa_rsassa_pkcs1_v15_verify(IntToPtrCastExpr&lt;ptr&gt;(v8), IntToPtrCastExpr&lt;ptr&gt;(v7), a1, a2, a3, a4, a5, a6)</text>
<text text-anchor="start" x="8" y="-331.3" font-family="Times,serif" font-size="14.00"> v6 = g6</text>
</g>
<!-- Node0x17a1c4a0&#45;&gt;Node0x285b77c0 -->
<g id="edge3" class="edge"><title>Node0x17a1c4a0&#45;&gt;Node0x285b77c0</title>
<path fill="none" stroke="black" d="M772.131,-473.737C731.441,-460.835 672.926,-442.281 617.276,-424.636"/>
<polygon fill="black" stroke="black" points="618.241,-421.271 607.651,-421.584 616.125,-427.943 618.241,-421.271"/>
<text text-anchor="middle" x="736" y="-443.8" font-family="Times,serif" font-size="14.00">v4 == 0</text>
</g>
<!-- Node0x17a1bcd0 -->
<g id="node5" class="node"><title>Node0x17a1bcd0</title>
<polygon fill="none" stroke="black" points="767,-247.5 767,-285.5 871,-285.5 871,-247.5 767,-247.5"/>
<text text-anchor="start" x="775" y="-270.3" font-family="Times,serif" font-size="14.00">0x8050350:</text>
<text text-anchor="start" x="775" y="-255.3" font-family="Times,serif" font-size="14.00"> if (v6 != 1):</text>
</g>
<!-- Node0x17a1c4a0&#45;&gt;Node0x17a1bcd0 -->
<g id="edge4" class="edge"><title>Node0x17a1c4a0&#45;&gt;Node0x17a1bcd0</title>
<path fill="none" stroke="black" d="M864.494,-473.459C885.377,-462.157 909.096,-445.118 921,-422 941.143,-382.882 943.48,-360.824 921,-323 911.787,-307.499 896.56,-296.055 880.647,-287.724"/>
<polygon fill="black" stroke="black" points="881.764,-284.377 871.238,-283.173 878.715,-290.678 881.764,-284.377"/>
<text text-anchor="middle" x="964" y="-368.8" font-family="Times,serif" font-size="14.00">v4 != 0</text>
</g>
<!-- Node0x285b77c0&#45;&gt;Node0x17a1bcd0 -->
<g id="edge5" class="edge"><title>Node0x285b77c0&#45;&gt;Node0x17a1bcd0</title>
<path fill="none" stroke="black" d="M623.687,-323.458C671.062,-309.885 719.699,-295.95 756.587,-285.381"/>
<polygon fill="black" stroke="black" points="758.02,-288.612 766.669,-282.493 756.092,-281.882 758.02,-288.612"/>
</g>
<!-- Node0x211ffbe0 -->
<g id="node6" class="node"><title>Node0x211ffbe0</title>
<polygon fill="none" stroke="black" points="657.5,-105 657.5,-188 778.5,-188 778.5,-105 657.5,-105"/>
<text text-anchor="start" x="665.5" y="-172.8" font-family="Times,serif" font-size="14.00">0x8050355:</text>
<text text-anchor="start" x="665.5" y="-157.8" font-family="Times,serif" font-size="14.00"> g3 = v1</text>
<text text-anchor="start" x="665.5" y="-142.8" font-family="Times,serif" font-size="14.00"> g7 = v2</text>
<text text-anchor="start" x="665.5" y="-127.8" font-family="Times,serif" font-size="14.00"> g5 = v3</text>
<text text-anchor="start" x="665.5" y="-112.8" font-family="Times,serif" font-size="14.00"> return &#45;16640</text>
</g>
<!-- Node0x17a1bcd0&#45;&gt;Node0x211ffbe0 -->
<g id="edge6" class="edge"><title>Node0x17a1bcd0&#45;&gt;Node0x211ffbe0</title>
<path fill="none" stroke="black" d="M803.44,-247.321C791.723,-233.632 775.084,-214.192 759.598,-196.099"/>
<polygon fill="black" stroke="black" points="762.211,-193.77 753.049,-188.449 756.893,-198.322 762.211,-193.77"/>
<text text-anchor="middle" x="814" y="-217.8" font-family="Times,serif" font-size="14.00">v6 != 1</text>
</g>
<!-- Node0x19e79830 -->
<g id="node7" class="node"><title>Node0x19e79830</title>
<polygon fill="none" stroke="black" points="796.5,-97.5 796.5,-195.5 1301.5,-195.5 1301.5,-97.5 796.5,-97.5"/>
<text text-anchor="start" x="804.5" y="-180.3" font-family="Times,serif" font-size="14.00">0x8050368:</text>
<text text-anchor="start" x="804.5" y="-165.3" font-family="Times,serif" font-size="14.00"> g5 = v3</text>
<text text-anchor="start" x="804.5" y="-150.3" font-family="Times,serif" font-size="14.00"> g7 = v2</text>
<text text-anchor="start" x="804.5" y="-135.3" font-family="Times,serif" font-size="14.00"> v9 = g3</text>
<text text-anchor="start" x="804.5" y="-120.3" font-family="Times,serif" font-size="14.00"> g3 = v1</text>
<text text-anchor="start" x="804.5" y="-105.3" font-family="Times,serif" font-size="14.00"> return mbedtls_rsa_rsassa_pss_verify(v8, v7, v5, a2, a3, a4, g4, v9)</text>
</g>
<!-- Node0x17a1bcd0&#45;&gt;Node0x19e79830 -->
<g id="edge7" class="edge"><title>Node0x17a1bcd0&#45;&gt;Node0x19e79830</title>
<path fill="none" stroke="black" d="M854.182,-247.45C878.798,-234.821 913.041,-217.253 945.961,-200.363"/>
<polygon fill="black" stroke="black" points="947.903,-203.301 955.203,-195.622 944.708,-197.073 947.903,-203.301"/>
<text text-anchor="middle" x="944" y="-217.8" font-family="Times,serif" font-size="14.00">v6 == 1</text>
</g>
<!-- Node0x17a1ce80 -->
<g id="node8" class="node"><title>Node0x17a1ce80</title>
<polygon fill="none" stroke="black" points="894,-23.5 894,-59.5 948,-59.5 948,-23.5 894,-23.5"/>
<text text-anchor="start" x="902" y="-37.8" font-family="Times,serif" font-size="14.00">exit:</text>
</g>
<!-- Node0x211ffbe0&#45;&gt;Node0x17a1ce80 -->
<g id="edge8" class="edge"><title>Node0x211ffbe0&#45;&gt;Node0x17a1ce80</title>
<path fill="none" stroke="black" d="M774.265,-104.992C778.84,-102.17 783.452,-99.4691 788,-97 819.348,-79.98 857.155,-64.9748 884.435,-55.041"/>
<polygon fill="black" stroke="black" points="885.748,-58.2885 893.978,-51.6162 883.383,-51.7 885.748,-58.2885"/>
</g>
<!-- Node0x19e79830&#45;&gt;Node0x17a1ce80 -->
<g id="edge9" class="edge"><title>Node0x19e79830&#45;&gt;Node0x17a1ce80</title>
<path fill="none" stroke="black" d="M989.122,-97.3173C975.614,-86.4475 961.86,-75.3797 950.281,-66.0618"/>
<polygon fill="black" stroke="black" points="952.253,-63.1565 942.268,-59.614 947.865,-68.6101 952.253,-63.1565"/>
</g>
</g>
</svg>
