<?xml version="1.0" encoding="UTF-8" standalone="no"?>
<!DOCTYPE svg PUBLIC "-//W3C//DTD SVG 1.1//EN"
 "http://www.w3.org/Graphics/SVG/1.1/DTD/svg11.dtd">
<!-- Generated by graphviz version 2.38.0 (20140413.2041)
 -->
<!-- Title: Control&#45;flow graph for function &#39;sha1_starts_wrap(a1)&#39;. Pages: 1 -->
<svg width="418pt" height="248pt"
 viewBox="0.00 0.00 418.00 248.00" xmlns="http://www.w3.org/2000/svg" xmlns:xlink="http://www.w3.org/1999/xlink">
<g id="graph0" class="graph" transform="scale(1 1) rotate(0) translate(4 244)">
<title>Control&#45;flow graph for function &#39;sha1_starts_wrap(a1)&#39;.</title>
<polygon fill="white" stroke="none" points="-4,4 -4,-244 414,-244 414,4 -4,4"/>
<text text-anchor="middle" x="205" y="-7.8" font-family="Times,serif" font-size="14.00">Control&#45;flow graph for function &#39;sha1_starts_wrap(a1)&#39;.</text>
<!-- Node0x15ae5740 -->
<g id="node1" class="node"><title>Node0x15ae5740</title>
<polygon fill="none" stroke="black" points="175.5,-201.5 175.5,-239.5 234.5,-239.5 234.5,-201.5 175.5,-201.5"/>
<text text-anchor="start" x="183.5" y="-224.3" font-family="Times,serif" font-size="14.00">entry:</text>
<text text-anchor="start" x="183.5" y="-209.3" font-family="Times,serif" font-size="14.00"> a1</text>
</g>
<!-- Node0x15ae9a80 -->
<g id="node2" class="node"><title>Node0x15ae9a80</title>
<polygon fill="none" stroke="black" points="2,-96.5 2,-164.5 408,-164.5 408,-96.5 2,-96.5"/>
<text text-anchor="start" x="10" y="-149.3" font-family="Times,serif" font-size="14.00">0x8062d80:</text>
<text text-anchor="start" x="10" y="-134.3" font-family="Times,serif" font-size="14.00"> result</text>
<text text-anchor="start" x="10" y="-119.3" font-family="Times,serif" font-size="14.00"> mbedtls_sha1_starts(IntToPtrCastExpr&lt;ptr&gt;(result))</text>
<text text-anchor="start" x="10" y="-104.3" font-family="Times,serif" font-size="14.00"> return result</text>
</g>
<!-- Node0x15ae5740&#45;&gt;Node0x15ae9a80 -->
<g id="edge1" class="edge"><title>Node0x15ae5740&#45;&gt;Node0x15ae9a80</title>
<path fill="none" stroke="black" d="M205,-201.266C205,-193.502 205,-184.086 205,-174.717"/>
<polygon fill="black" stroke="black" points="208.5,-174.649 205,-164.65 201.5,-174.65 208.5,-174.649"/>
</g>
<!-- Node0x15ae9a00 -->
<g id="node3" class="node"><title>Node0x15ae9a00</title>
<polygon fill="none" stroke="black" points="178,-23.5 178,-59.5 232,-59.5 232,-23.5 178,-23.5"/>
<text text-anchor="start" x="186" y="-37.8" font-family="Times,serif" font-size="14.00">exit:</text>
</g>
<!-- Node0x15ae9a80&#45;&gt;Node0x15ae9a00 -->
<g id="edge2" class="edge"><title>Node0x15ae9a80&#45;&gt;Node0x15ae9a00</title>
<path fill="none" stroke="black" d="M205,-96.1123C205,-87.3522 205,-78.0128 205,-69.6246"/>
<polygon fill="black" stroke="black" points="208.5,-69.6235 205,-59.6235 201.5,-69.6235 208.5,-69.6235"/>
</g>
</g>
</svg>
