<?xml version="1.0" encoding="UTF-8" standalone="no"?>
<!DOCTYPE svg PUBLIC "-//W3C//DTD SVG 1.1//EN"
 "http://www.w3.org/Graphics/SVG/1.1/DTD/svg11.dtd">
<!-- Generated by graphviz version 2.38.0 (20140413.2041)
 -->
<!-- Title: Control&#45;flow graph for function &#39;__unlockfile(a1)&#39;. Pages: 1 -->
<svg width="446pt" height="917pt"
 viewBox="0.00 0.00 446.00 917.00" xmlns="http://www.w3.org/2000/svg" xmlns:xlink="http://www.w3.org/1999/xlink">
<g id="graph0" class="graph" transform="scale(1 1) rotate(0) translate(4 913)">
<title>Control&#45;flow graph for function &#39;__unlockfile(a1)&#39;.</title>
<polygon fill="white" stroke="none" points="-4,4 -4,-913 442,-913 442,4 -4,4"/>
<text text-anchor="middle" x="219" y="-7.8" font-family="Times,serif" font-size="14.00">Control&#45;flow graph for function &#39;__unlockfile(a1)&#39;.</text>
<!-- Node0x2737c7e0 -->
<g id="node1" class="node"><title>Node0x2737c7e0</title>
<polygon fill="none" stroke="black" points="134.5,-870.5 134.5,-908.5 193.5,-908.5 193.5,-870.5 134.5,-870.5"/>
<text text-anchor="start" x="142.5" y="-893.3" font-family="Times,serif" font-size="14.00">entry:</text>
<text text-anchor="start" x="142.5" y="-878.3" font-family="Times,serif" font-size="14.00"> a1</text>
</g>
<!-- Node0x273794c0 -->
<g id="node2" class="node"><title>Node0x273794c0</title>
<polygon fill="none" stroke="black" points="0,-734.5 0,-832.5 328,-832.5 328,-734.5 0,-734.5"/>
<text text-anchor="start" x="8" y="-817.3" font-family="Times,serif" font-size="14.00">v1 = g3</text>
<text text-anchor="start" x="8" y="-802.3" font-family="Times,serif" font-size="14.00"> *(IntToPtrCastExpr&lt;ptr&gt;((a1 + 76))) = 0</text>
<text text-anchor="start" x="8" y="-787.3" font-family="Times,serif" font-size="14.00"> g6 = (a1 + 76)</text>
<text text-anchor="start" x="8" y="-772.3" font-family="Times,serif" font-size="14.00"> v2 = *(IntToPtrCastExpr&lt;ptr&gt;((a1 + 80)))</text>
<text text-anchor="start" x="8" y="-757.3" font-family="Times,serif" font-size="14.00"> g1 = v2</text>
<text text-anchor="start" x="8" y="-742.3" font-family="Times,serif" font-size="14.00"> v3</text>
</g>
<!-- Node0x2737c7e0&#45;&gt;Node0x273794c0 -->
<g id="edge1" class="edge"><title>Node0x2737c7e0&#45;&gt;Node0x273794c0</title>
<path fill="none" stroke="black" d="M164,-870.385C164,-862.528 164,-852.844 164,-842.842"/>
<polygon fill="black" stroke="black" points="167.5,-842.789 164,-832.789 160.5,-842.789 167.5,-842.789"/>
</g>
<!-- Node0x2737fc00 -->
<g id="node3" class="node"><title>Node0x2737fc00</title>
<polygon fill="none" stroke="black" points="111.5,-660.5 111.5,-696.5 216.5,-696.5 216.5,-660.5 111.5,-660.5"/>
<text text-anchor="start" x="119.5" y="-674.8" font-family="Times,serif" font-size="14.00">if (v2 == 0):</text>
</g>
<!-- Node0x273794c0&#45;&gt;Node0x2737fc00 -->
<g id="edge2" class="edge"><title>Node0x273794c0&#45;&gt;Node0x2737fc00</title>
<path fill="none" stroke="black" d="M164,-734.317C164,-724.893 164,-715.32 164,-706.868"/>
<polygon fill="black" stroke="black" points="167.5,-706.856 164,-696.856 160.5,-706.856 167.5,-706.856"/>
</g>
<!-- Node0x2737d580 -->
<g id="node4" class="node"><title>Node0x2737d580</title>
<polygon fill="none" stroke="black" points="59.5,-393.5 59.5,-461.5 160.5,-461.5 160.5,-393.5 59.5,-393.5"/>
<text text-anchor="start" x="67.5" y="-446.3" font-family="Times,serif" font-size="14.00">0x807675b:</text>
<text text-anchor="start" x="67.5" y="-431.3" font-family="Times,serif" font-size="14.00"> g3 = v1</text>
<text text-anchor="start" x="67.5" y="-416.3" font-family="Times,serif" font-size="14.00"> g5 = v3</text>
<text text-anchor="start" x="67.5" y="-401.3" font-family="Times,serif" font-size="14.00"> return 0</text>
</g>
<!-- Node0x2737fc00&#45;&gt;Node0x2737d580 -->
<g id="edge3" class="edge"><title>Node0x2737fc00&#45;&gt;Node0x2737d580</title>
<path fill="none" stroke="black" d="M138.737,-660.445C132.914,-655.235 127.429,-649.005 124,-642 97.4862,-587.834 98.9713,-516.501 103.606,-471.562"/>
<polygon fill="black" stroke="black" points="107.091,-471.891 104.734,-461.561 100.135,-471.106 107.091,-471.891"/>
<text text-anchor="middle" x="154" y="-630.8" font-family="Times,serif" font-size="14.00">v2 == 0</text>
</g>
<!-- Node0x2737af70 -->
<g id="node5" class="node"><title>Node0x2737af70</title>
<polygon fill="none" stroke="black" points="138,-480.5 138,-608.5 350,-608.5 350,-480.5 138,-480.5"/>
<text text-anchor="start" x="146" y="-593.3" font-family="Times,serif" font-size="14.00">0x807673a:</text>
<text text-anchor="start" x="146" y="-578.3" font-family="Times,serif" font-size="14.00"> g3 = 240</text>
<text text-anchor="start" x="146" y="-563.3" font-family="Times,serif" font-size="14.00"> g5 = 1</text>
<text text-anchor="start" x="146" y="-548.3" font-family="Times,serif" font-size="14.00"> g1 = 240</text>
<text text-anchor="start" x="146" y="-533.3" font-family="Times,serif" font-size="14.00"> v4</text>
<text text-anchor="start" x="146" y="-518.3" font-family="Times,serif" font-size="14.00"> v5 = __vsyscall(v1, v3, v4)</text>
<text text-anchor="start" x="146" y="-503.3" font-family="Times,serif" font-size="14.00"> g1 = v5</text>
<text text-anchor="start" x="146" y="-488.3" font-family="Times,serif" font-size="14.00"> result = v5</text>
</g>
<!-- Node0x2737fc00&#45;&gt;Node0x2737af70 -->
<g id="edge4" class="edge"><title>Node0x2737fc00&#45;&gt;Node0x2737af70</title>
<path fill="none" stroke="black" d="M174.459,-660.243C181.284,-648.981 190.703,-633.441 200.405,-617.431"/>
<polygon fill="black" stroke="black" points="203.62,-618.879 205.81,-608.513 197.634,-615.251 203.62,-618.879"/>
<text text-anchor="middle" x="222" y="-630.8" font-family="Times,serif" font-size="14.00">v2 != 0</text>
</g>
<!-- Node0x2737df50 -->
<g id="node6" class="node"><title>Node0x2737df50</title>
<polygon fill="none" stroke="black" points="122,-23.5 122,-59.5 176,-59.5 176,-23.5 122,-23.5"/>
<text text-anchor="start" x="130" y="-37.8" font-family="Times,serif" font-size="14.00">exit:</text>
</g>
<!-- Node0x2737d580&#45;&gt;Node0x2737df50 -->
<g id="edge5" class="edge"><title>Node0x2737d580&#45;&gt;Node0x2737df50</title>
<path fill="none" stroke="black" d="M110,-393.372C110,-370.849 110,-340.377 110,-313.5 110,-313.5 110,-313.5 110,-130.5 110,-108.222 120.576,-85.2828 130.713,-68.4121"/>
<polygon fill="black" stroke="black" points="133.834,-70.0269 136.23,-59.7067 127.921,-66.28 133.834,-70.0269"/>
</g>
<!-- Node0x2737dca0 -->
<g id="node7" class="node"><title>Node0x2737dca0</title>
<polygon fill="none" stroke="black" points="184.5,-338.5 184.5,-374.5 303.5,-374.5 303.5,-338.5 184.5,-338.5"/>
<text text-anchor="start" x="192.5" y="-352.8" font-family="Times,serif" font-size="14.00">if (v5 == &#45;38):</text>
</g>
<!-- Node0x2737af70&#45;&gt;Node0x2737dca0 -->
<g id="edge6" class="edge"><title>Node0x2737af70&#45;&gt;Node0x2737dca0</title>
<path fill="none" stroke="black" d="M244,-480.269C244,-447.793 244,-409.903 244,-384.901"/>
<polygon fill="black" stroke="black" points="247.5,-384.707 244,-374.707 240.5,-384.707 247.5,-384.707"/>
</g>
<!-- Node0x2737d600 -->
<g id="node8" class="node"><title>Node0x2737d600</title>
<polygon fill="none" stroke="black" points="138,-203.5 138,-286.5 350,-286.5 350,-203.5 138,-203.5"/>
<text text-anchor="start" x="146" y="-271.3" font-family="Times,serif" font-size="14.00">0x8076752:</text>
<text text-anchor="start" x="146" y="-256.3" font-family="Times,serif" font-size="14.00"> g1 = g3</text>
<text text-anchor="start" x="146" y="-241.3" font-family="Times,serif" font-size="14.00"> v6 = __vsyscall(v1, v3, v4)</text>
<text text-anchor="start" x="146" y="-226.3" font-family="Times,serif" font-size="14.00"> g1 = v6</text>
<text text-anchor="start" x="146" y="-211.3" font-family="Times,serif" font-size="14.00"> result = v6</text>
</g>
<!-- Node0x2737dca0&#45;&gt;Node0x2737d600 -->
<g id="edge7" class="edge"><title>Node0x2737dca0&#45;&gt;Node0x2737d600</title>
<path fill="none" stroke="black" d="M244,-338.391C244,-327.15 244,-311.807 244,-296.853"/>
<polygon fill="black" stroke="black" points="247.5,-296.618 244,-286.618 240.5,-296.618 247.5,-296.618"/>
<text text-anchor="middle" x="280.5" y="-308.8" font-family="Times,serif" font-size="14.00">v5 == &#45;38</text>
</g>
<!-- Node0x2737d520 -->
<g id="node9" class="node"><title>Node0x2737d520</title>
<polygon fill="none" stroke="black" points="187.5,-97.5 187.5,-165.5 300.5,-165.5 300.5,-97.5 187.5,-97.5"/>
<text text-anchor="start" x="195.5" y="-150.3" font-family="Times,serif" font-size="14.00">0x807675b:</text>
<text text-anchor="start" x="195.5" y="-135.3" font-family="Times,serif" font-size="14.00"> g3 = v1</text>
<text text-anchor="start" x="195.5" y="-120.3" font-family="Times,serif" font-size="14.00"> g5 = v3</text>
<text text-anchor="start" x="195.5" y="-105.3" font-family="Times,serif" font-size="14.00"> return result</text>
</g>
<!-- Node0x2737dca0&#45;&gt;Node0x2737d520 -->
<g id="edge8" class="edge"><title>Node0x2737dca0&#45;&gt;Node0x2737d520</title>
<path fill="none" stroke="black" d="M299.527,-338.454C323.154,-327.891 347.815,-311.527 359,-287 374.49,-253.032 377.239,-235.575 359,-203 347.987,-183.331 328.997,-168.486 309.586,-157.618"/>
<polygon fill="black" stroke="black" points="311.142,-154.482 300.665,-152.902 307.87,-160.67 311.142,-154.482"/>
<text text-anchor="middle" x="404.5" y="-241.3" font-family="Times,serif" font-size="14.00">v5 != &#45;38</text>
</g>
<!-- Node0x2737d600&#45;&gt;Node0x2737d520 -->
<g id="edge9" class="edge"><title>Node0x2737d600&#45;&gt;Node0x2737d520</title>
<path fill="none" stroke="black" d="M244,-203.431C244,-194.382 244,-184.757 244,-175.61"/>
<polygon fill="black" stroke="black" points="247.5,-175.543 244,-165.543 240.5,-175.544 247.5,-175.543"/>
</g>
<!-- Node0x2737d520&#45;&gt;Node0x2737df50 -->
<g id="edge10" class="edge"><title>Node0x2737d520&#45;&gt;Node0x2737df50</title>
<path fill="none" stroke="black" d="M208.355,-97.4817C197.279,-87.2216 185.284,-76.1105 174.995,-66.58"/>
<polygon fill="black" stroke="black" points="177.218,-63.8682 167.504,-59.6402 172.461,-69.0035 177.218,-63.8682"/>
</g>
</g>
</svg>
