<?xml version="1.0" encoding="UTF-8" standalone="no"?>
<!DOCTYPE svg PUBLIC "-//W3C//DTD SVG 1.1//EN"
 "http://www.w3.org/Graphics/SVG/1.1/DTD/svg11.dtd">
<!-- Generated by graphviz version 2.38.0 (20140413.2041)
 -->
<!-- Title: Control&#45;flow graph for function &#39;mbedtls_sha256_update(*a1, *a2, a3)&#39;. Pages: 1 -->
<svg width="1328pt" height="1992pt"
 viewBox="0.00 0.00 1328.00 1992.00" xmlns="http://www.w3.org/2000/svg" xmlns:xlink="http://www.w3.org/1999/xlink">
<g id="graph0" class="graph" transform="scale(1 1) rotate(0) translate(4 1988)">
<title>Control&#45;flow graph for function &#39;mbedtls_sha256_update(*a1, *a2, a3)&#39;.</title>
<polygon fill="white" stroke="none" points="-4,4 -4,-1988 1324,-1988 1324,4 -4,4"/>
<text text-anchor="middle" x="660" y="-7.8" font-family="Times,serif" font-size="14.00">Control&#45;flow graph for function &#39;mbedtls_sha256_update(*a1, *a2, a3)&#39;.</text>
<!-- Node0x8ed6860 -->
<g id="node1" class="node"><title>Node0x8ed6860</title>
<polygon fill="none" stroke="black" points="109,-1915.5 109,-1983.5 168,-1983.5 168,-1915.5 109,-1915.5"/>
<text text-anchor="start" x="117" y="-1968.3" font-family="Times,serif" font-size="14.00">entry:</text>
<text text-anchor="start" x="117" y="-1953.3" font-family="Times,serif" font-size="14.00"> a1</text>
<text text-anchor="start" x="117" y="-1938.3" font-family="Times,serif" font-size="14.00"> a2</text>
<text text-anchor="start" x="117" y="-1923.3" font-family="Times,serif" font-size="14.00"> a3</text>
</g>
<!-- Node0x15bc5270 -->
<g id="node2" class="node"><title>Node0x15bc5270</title>
<polygon fill="none" stroke="black" points="0,-1779.5 0,-1877.5 277,-1877.5 277,-1779.5 0,-1779.5"/>
<text text-anchor="start" x="8" y="-1862.3" font-family="Times,serif" font-size="14.00">v1 = g5</text>
<text text-anchor="start" x="8" y="-1847.3" font-family="Times,serif" font-size="14.00"> v2 = g7</text>
<text text-anchor="start" x="8" y="-1832.3" font-family="Times,serif" font-size="14.00"> v3 = g3</text>
<text text-anchor="start" x="8" y="-1817.3" font-family="Times,serif" font-size="14.00"> g3 = a3</text>
<text text-anchor="start" x="8" y="-1802.3" font-family="Times,serif" font-size="14.00"> g7 = PtrToIntCastExpr&lt;int32&gt;(a1)</text>
<text text-anchor="start" x="8" y="-1787.3" font-family="Times,serif" font-size="14.00"> g5 = PtrToIntCastExpr&lt;int32&gt;(a2)</text>
</g>
<!-- Node0x8ed6860&#45;&gt;Node0x15bc5270 -->
<g id="edge1" class="edge"><title>Node0x8ed6860&#45;&gt;Node0x15bc5270</title>
<path fill="none" stroke="black" d="M138.5,-1915.35C138.5,-1906.77 138.5,-1897.26 138.5,-1887.8"/>
<polygon fill="black" stroke="black" points="142,-1887.59 138.5,-1877.59 135,-1887.59 142,-1887.59"/>
</g>
<!-- Node0x15bcb0f0 -->
<g id="node3" class="node"><title>Node0x15bcb0f0</title>
<polygon fill="none" stroke="black" points="86,-1705.5 86,-1741.5 191,-1741.5 191,-1705.5 86,-1705.5"/>
<text text-anchor="start" x="94" y="-1719.8" font-family="Times,serif" font-size="14.00">if (a3 == 0):</text>
</g>
<!-- Node0x15bc5270&#45;&gt;Node0x15bcb0f0 -->
<g id="edge2" class="edge"><title>Node0x15bc5270&#45;&gt;Node0x15bcb0f0</title>
<path fill="none" stroke="black" d="M138.5,-1779.32C138.5,-1769.89 138.5,-1760.32 138.5,-1751.87"/>
<polygon fill="black" stroke="black" points="142,-1751.86 138.5,-1741.86 135,-1751.86 142,-1751.86"/>
</g>
<!-- Node0x8ed45a0 -->
<g id="node4" class="node"><title>Node0x8ed45a0</title>
<polygon fill="none" stroke="black" points="32.5,-1453.5 32.5,-1536.5 130.5,-1536.5 130.5,-1453.5 32.5,-1453.5"/>
<text text-anchor="start" x="40.5" y="-1521.3" font-family="Times,serif" font-size="14.00">0x8067f34:</text>
<text text-anchor="start" x="40.5" y="-1506.3" font-family="Times,serif" font-size="14.00"> g3 = v3</text>
<text text-anchor="start" x="40.5" y="-1491.3" font-family="Times,serif" font-size="14.00"> g7 = v2</text>
<text text-anchor="start" x="40.5" y="-1476.3" font-family="Times,serif" font-size="14.00"> g5 = v1</text>
<text text-anchor="start" x="40.5" y="-1461.3" font-family="Times,serif" font-size="14.00"> return g1</text>
</g>
<!-- Node0x15bcb0f0&#45;&gt;Node0x8ed45a0 -->
<g id="edge3" class="edge"><title>Node0x15bcb0f0&#45;&gt;Node0x8ed45a0</title>
<path fill="none" stroke="black" d="M117.943,-1705.47C112.736,-1700.1 107.714,-1693.79 104.5,-1687 83.5937,-1642.85 79.0691,-1586.8 79.0313,-1546.86"/>
<polygon fill="black" stroke="black" points="82.5315,-1546.84 79.1156,-1536.81 75.5317,-1546.78 82.5315,-1546.84"/>
<text text-anchor="middle" x="134.5" y="-1675.8" font-family="Times,serif" font-size="14.00">a3 == 0</text>
</g>
<!-- Node0x15bca860 -->
<g id="node5" class="node"><title>Node0x15bca860</title>
<polygon fill="none" stroke="black" points="110,-1555.5 110,-1653.5 349,-1653.5 349,-1555.5 110,-1555.5"/>
<text text-anchor="start" x="118" y="-1638.3" font-family="Times,serif" font-size="14.00">v4 = *(BitCastExpr&lt;ptr&gt;(a1))</text>
<text text-anchor="start" x="118" y="-1623.3" font-family="Times,serif" font-size="14.00"> v5 = (v4 % 64)</text>
<text text-anchor="start" x="118" y="-1608.3" font-family="Times,serif" font-size="14.00"> v6 = (v4 + a3)</text>
<text text-anchor="start" x="118" y="-1593.3" font-family="Times,serif" font-size="14.00"> g1 = v6</text>
<text text-anchor="start" x="118" y="-1578.3" font-family="Times,serif" font-size="14.00"> v7 = (64 &#45; v5)</text>
<text text-anchor="start" x="118" y="-1563.3" font-family="Times,serif" font-size="14.00"> *(BitCastExpr&lt;ptr&gt;(a1)) = v6</text>
</g>
<!-- Node0x15bcb0f0&#45;&gt;Node0x15bca860 -->
<g id="edge4" class="edge"><title>Node0x15bcb0f0&#45;&gt;Node0x15bca860</title>
<path fill="none" stroke="black" d="M151.732,-1705.49C160.757,-1693.88 173.272,-1677.79 185.627,-1661.91"/>
<polygon fill="black" stroke="black" points="188.677,-1663.69 192.053,-1653.65 183.151,-1659.39 188.677,-1663.69"/>
<text text-anchor="middle" x="203.5" y="-1675.8" font-family="Times,serif" font-size="14.00">a3 != 0</text>
</g>
<!-- Node0x270249b0 -->
<g id="node6" class="node"><title>Node0x270249b0</title>
<polygon fill="none" stroke="black" points="155.5,-23.5 155.5,-59.5 209.5,-59.5 209.5,-23.5 155.5,-23.5"/>
<text text-anchor="start" x="163.5" y="-37.8" font-family="Times,serif" font-size="14.00">exit:</text>
</g>
<!-- Node0x8ed45a0&#45;&gt;Node0x270249b0 -->
<g id="edge5" class="edge"><title>Node0x8ed45a0&#45;&gt;Node0x270249b0</title>
<path fill="none" stroke="black" d="M81.5,-1453.28C81.5,-1429.93 81.5,-1400.07 81.5,-1373.5 81.5,-1373.5 81.5,-1373.5 81.5,-130.5 81.5,-95.0343 117.339,-70.5953 146.32,-56.6309"/>
<polygon fill="black" stroke="black" points="147.794,-59.8052 155.434,-52.4643 144.884,-53.4389 147.794,-59.8052"/>
</g>
<!-- Node0x15bc73d0 -->
<g id="node7" class="node"><title>Node0x15bc73d0</title>
<polygon fill="none" stroke="black" points="179,-1398.5 179,-1434.5 280,-1434.5 280,-1398.5 179,-1398.5"/>
<text text-anchor="start" x="187" y="-1412.8" font-family="Times,serif" font-size="14.00">if (v6 &lt; a3):</text>
</g>
<!-- Node0x15bca860&#45;&gt;Node0x15bc73d0 -->
<g id="edge6" class="edge"><title>Node0x15bca860&#45;&gt;Node0x15bc73d0</title>
<path fill="none" stroke="black" d="M229.5,-1555.12C229.5,-1519.99 229.5,-1473.74 229.5,-1444.81"/>
<polygon fill="black" stroke="black" points="233,-1444.63 229.5,-1434.63 226,-1444.63 233,-1444.63"/>
</g>
<!-- Node0x27021d00 -->
<g id="node8" class="node"><title>Node0x27021d00</title>
<polygon fill="none" stroke="black" points="282,-1308.5 282,-1346.5 579,-1346.5 579,-1308.5 282,-1308.5"/>
<text text-anchor="start" x="290" y="-1331.3" font-family="Times,serif" font-size="14.00">v8 = IntToPtrCastExpr&lt;ptr&gt;((g7 + 4))</text>
<text text-anchor="start" x="290" y="-1316.3" font-family="Times,serif" font-size="14.00"> *(v8) = (*(v8) + 1)</text>
</g>
<!-- Node0x15bc73d0&#45;&gt;Node0x27021d00 -->
<g id="edge7" class="edge"><title>Node0x15bc73d0&#45;&gt;Node0x27021d00</title>
<path fill="none" stroke="black" d="M269.211,-1398.31C300.793,-1384.64 345.205,-1365.42 379.431,-1350.6"/>
<polygon fill="black" stroke="black" points="381.009,-1353.74 388.795,-1346.55 378.228,-1347.31 381.009,-1353.74"/>
<text text-anchor="middle" x="370.5" y="-1368.8" font-family="Times,serif" font-size="14.00">v6 &lt; a3</text>
</g>
<!-- Node0x205b33c0 -->
<g id="node9" class="node"><title>Node0x205b33c0</title>
<polygon fill="none" stroke="black" points="277.5,-1217.5 277.5,-1270.5 363.5,-1270.5 363.5,-1217.5 277.5,-1217.5"/>
<text text-anchor="start" x="285.5" y="-1255.3" font-family="Times,serif" font-size="14.00">v9 = g3</text>
<text text-anchor="start" x="285.5" y="-1240.3" font-family="Times,serif" font-size="14.00"> v10 = v9</text>
<text text-anchor="start" x="285.5" y="-1225.3" font-family="Times,serif" font-size="14.00"> v11</text>
</g>
<!-- Node0x15bc73d0&#45;&gt;Node0x205b33c0 -->
<g id="edge8" class="edge"><title>Node0x15bc73d0&#45;&gt;Node0x205b33c0</title>
<path fill="none" stroke="black" d="M218.202,-1398.3C205.13,-1376.02 187.455,-1336.65 204.5,-1308 218.299,-1284.8 243.952,-1269.62 267.633,-1259.98"/>
<polygon fill="black" stroke="black" points="269.174,-1263.14 277.272,-1256.3 266.681,-1256.6 269.174,-1263.14"/>
<text text-anchor="middle" x="238.5" y="-1323.8" font-family="Times,serif" font-size="14.00">v6 &gt;= a3</text>
</g>
<!-- Node0x27021d00&#45;&gt;Node0x205b33c0 -->
<g id="edge9" class="edge"><title>Node0x27021d00&#45;&gt;Node0x205b33c0</title>
<path fill="none" stroke="black" d="M406.087,-1308.41C393.601,-1299.16 378.03,-1287.62 363.605,-1276.94"/>
<polygon fill="black" stroke="black" points="365.395,-1273.91 355.276,-1270.77 361.228,-1279.53 365.395,-1273.91"/>
</g>
<!-- Node0x270211e0 -->
<g id="node10" class="node"><title>Node0x270211e0</title>
<polygon fill="none" stroke="black" points="264,-1143.5 264,-1179.5 377,-1179.5 377,-1143.5 264,-1143.5"/>
<text text-anchor="start" x="272" y="-1157.8" font-family="Times,serif" font-size="14.00">if (v9 &gt;= v7):</text>
</g>
<!-- Node0x205b33c0&#45;&gt;Node0x270211e0 -->
<g id="edge10" class="edge"><title>Node0x205b33c0&#45;&gt;Node0x270211e0</title>
<path fill="none" stroke="black" d="M320.5,-1217.09C320.5,-1208.46 320.5,-1198.82 320.5,-1190.07"/>
<polygon fill="black" stroke="black" points="324,-1189.97 320.5,-1179.97 317,-1189.97 324,-1189.97"/>
</g>
<!-- Node0x15bca490 -->
<g id="node11" class="node"><title>Node0x15bca490</title>
<polygon fill="none" stroke="black" points="774.5,-1053.5 774.5,-1091.5 872.5,-1091.5 872.5,-1053.5 774.5,-1053.5"/>
<text text-anchor="start" x="782.5" y="-1076.3" font-family="Times,serif" font-size="14.00">0x8067f60:</text>
<text text-anchor="start" x="782.5" y="-1061.3" font-family="Times,serif" font-size="14.00"> g1 = v5</text>
</g>
<!-- Node0x270211e0&#45;&gt;Node0x15bca490 -->
<g id="edge11" class="edge"><title>Node0x270211e0&#45;&gt;Node0x15bca490</title>
<path fill="none" stroke="black" d="M377.223,-1150.69C473.255,-1134.08 666.913,-1100.58 764.479,-1083.71"/>
<polygon fill="black" stroke="black" points="765.21,-1087.13 774.467,-1081.98 764.017,-1080.24 765.21,-1087.13"/>
<text text-anchor="middle" x="636.5" y="-1113.8" font-family="Times,serif" font-size="14.00">v9 &gt;= v7</text>
</g>
<!-- Node0x8ed4450 -->
<g id="node12" class="node"><title>Node0x8ed4450</title>
<polygon fill="none" stroke="black" points="272.5,-706.5 272.5,-744.5 388.5,-744.5 388.5,-706.5 272.5,-706.5"/>
<text text-anchor="start" x="280.5" y="-729.3" font-family="Times,serif" font-size="14.00">0x8067ef9:</text>
<text text-anchor="start" x="280.5" y="-714.3" font-family="Times,serif" font-size="14.00"> if (v10 &lt; 64):</text>
</g>
<!-- Node0x270211e0&#45;&gt;Node0x8ed4450 -->
<g id="edge12" class="edge"><title>Node0x270211e0&#45;&gt;Node0x8ed4450</title>
<path fill="none" stroke="black" d="M295.565,-1143.21C276.158,-1127.51 252.5,-1102.45 252.5,-1073.5 252.5,-1073.5 252.5,-1073.5 252.5,-853 252.5,-820.334 254.741,-810.039 271.5,-782 278.331,-770.57 288.181,-760.003 297.881,-751.224"/>
<polygon fill="black" stroke="black" points="300.288,-753.769 305.568,-744.584 295.713,-748.472 300.288,-753.769"/>
<text text-anchor="middle" x="280.5" y="-992.8" font-family="Times,serif" font-size="14.00">v9 &lt; v7</text>
</g>
<!-- Node0x27020ec0 -->
<g id="node13" class="node"><title>Node0x27020ec0</title>
<polygon fill="none" stroke="black" points="771,-977.5 771,-1015.5 876,-1015.5 876,-977.5 771,-977.5"/>
<text text-anchor="start" x="779" y="-1000.3" font-family="Times,serif" font-size="14.00">if (v5 == 0):</text>
<text text-anchor="start" x="779" y="-985.3" font-family="Times,serif" font-size="14.00"> else:</text>
</g>
<!-- Node0x15bca490&#45;&gt;Node0x27020ec0 -->
<g id="edge13" class="edge"><title>Node0x15bca490&#45;&gt;Node0x27020ec0</title>
<path fill="none" stroke="black" d="M823.5,-1053.21C823.5,-1044.96 823.5,-1035.04 823.5,-1025.86"/>
<polygon fill="black" stroke="black" points="827,-1025.58 823.5,-1015.58 820,-1025.58 827,-1025.58"/>
</g>
<!-- Node0x27022170 -->
<g id="node14" class="node"><title>Node0x27022170</title>
<polygon fill="none" stroke="black" points="412.5,-616.5 412.5,-654.5 546.5,-654.5 546.5,-616.5 412.5,-616.5"/>
<text text-anchor="start" x="420.5" y="-639.3" font-family="Times,serif" font-size="14.00">v11 = v10</text>
<text text-anchor="start" x="420.5" y="-624.3" font-family="Times,serif" font-size="14.00"> goto 0x8067f30</text>
</g>
<!-- Node0x8ed4450&#45;&gt;Node0x27022170 -->
<g id="edge14" class="edge"><title>Node0x8ed4450&#45;&gt;Node0x27022170</title>
<path fill="none" stroke="black" d="M376.15,-706.47C388.256,-701.077 401.119,-694.777 412.5,-688 425.687,-680.148 439.284,-670.114 450.754,-660.992"/>
<polygon fill="black" stroke="black" points="453.13,-663.571 458.695,-654.555 448.722,-658.134 453.13,-663.571"/>
<text text-anchor="middle" x="467.5" y="-676.8" font-family="Times,serif" font-size="14.00">v10 &lt; 64</text>
</g>
<!-- Node0x8ed4540 -->
<g id="node15" class="node"><title>Node0x8ed4540</title>
<polygon fill="none" stroke="black" points="266.5,-617.5 266.5,-653.5 394.5,-653.5 394.5,-617.5 266.5,-617.5"/>
<text text-anchor="start" x="274.5" y="-631.8" font-family="Times,serif" font-size="14.00">goto 0x8067efe</text>
</g>
<!-- Node0x8ed4450&#45;&gt;Node0x8ed4540 -->
<g id="edge15" class="edge"><title>Node0x8ed4450&#45;&gt;Node0x8ed4540</title>
<path fill="none" stroke="black" d="M330.5,-706.266C330.5,-694.031 330.5,-677.692 330.5,-663.902"/>
<polygon fill="black" stroke="black" points="334,-663.516 330.5,-653.516 327,-663.516 334,-663.516"/>
<text text-anchor="middle" x="369.5" y="-676.8" font-family="Times,serif" font-size="14.00">v10 &gt;= 64</text>
</g>
<!-- Node0x27021b80 -->
<g id="node16" class="node"><title>Node0x27021b80</title>
<polygon fill="none" stroke="black" points="886.5,-827.5 886.5,-880.5 984.5,-880.5 984.5,-827.5 886.5,-827.5"/>
<text text-anchor="start" x="894.5" y="-865.3" font-family="Times,serif" font-size="14.00">0x8067f60:</text>
<text text-anchor="start" x="894.5" y="-850.3" font-family="Times,serif" font-size="14.00"> v10 = g3</text>
<text text-anchor="start" x="894.5" y="-835.3" font-family="Times,serif" font-size="14.00"> v5 = 0</text>
</g>
<!-- Node0x27020ec0&#45;&gt;Node0x27021b80 -->
<g id="edge16" class="edge"><title>Node0x27020ec0&#45;&gt;Node0x27021b80</title>
<path fill="none" stroke="black" d="M837.913,-977.42C855.765,-955.024 886.536,-916.423 908.759,-888.546"/>
<polygon fill="black" stroke="black" points="911.573,-890.631 915.069,-880.629 906.099,-886.267 911.573,-890.631"/>
<text text-anchor="middle" x="893.5" y="-947.8" font-family="Times,serif" font-size="14.00">v5 == 0</text>
</g>
<!-- Node0x27021be0 -->
<g id="node17" class="node"><title>Node0x27021be0</title>
<polygon fill="none" stroke="black" points="280.5,-782.5 280.5,-925.5 868.5,-925.5 868.5,-782.5 280.5,-782.5"/>
<text text-anchor="start" x="288.5" y="-910.3" font-family="Times,serif" font-size="14.00">v12 = (g7 + 40)</text>
<text text-anchor="start" x="288.5" y="-895.3" font-family="Times,serif" font-size="14.00"> memcpy(IntToPtrCastExpr&lt;ptr&gt;((v12 + v5)), IntToPtrCastExpr&lt;ptr&gt;(g5), v7)</text>
<text text-anchor="start" x="288.5" y="-880.3" font-family="Times,serif" font-size="14.00"> mbedtls_sha256_process(g7, v12)</text>
<text text-anchor="start" x="288.5" y="-865.3" font-family="Times,serif" font-size="14.00"> g1 = 8</text>
<text text-anchor="start" x="288.5" y="-850.3" font-family="Times,serif" font-size="14.00"> g5 = (g5 + v7)</text>
<text text-anchor="start" x="288.5" y="-835.3" font-family="Times,serif" font-size="14.00"> v13 = (g3 &#45; v7)</text>
<text text-anchor="start" x="288.5" y="-820.3" font-family="Times,serif" font-size="14.00"> g3 = v13</text>
<text text-anchor="start" x="288.5" y="-805.3" font-family="Times,serif" font-size="14.00"> v10 = v13</text>
<text text-anchor="start" x="288.5" y="-790.3" font-family="Times,serif" font-size="14.00"> v5 = 0</text>
</g>
<!-- Node0x27020ec0&#45;&gt;Node0x27021be0 -->
<g id="edge17" class="edge"><title>Node0x27020ec0&#45;&gt;Node0x27021be0</title>
<path fill="none" stroke="black" d="M791.457,-977.42C769.726,-965.158 739.385,-948.038 708.268,-930.48"/>
<polygon fill="black" stroke="black" points="709.907,-927.385 699.477,-925.519 706.467,-933.482 709.907,-927.385"/>
<text text-anchor="middle" x="784.5" y="-947.8" font-family="Times,serif" font-size="14.00">v5 != 0</text>
</g>
<!-- Node0x8ed0850 -->
<g id="node18" class="node"><title>Node0x8ed0850</title>
<polygon fill="none" stroke="black" points="570,-511.5 570,-549.5 683,-549.5 683,-511.5 570,-511.5"/>
<text text-anchor="start" x="578" y="-534.3" font-family="Times,serif" font-size="14.00">0x8067f30:</text>
<text text-anchor="start" x="578" y="-519.3" font-family="Times,serif" font-size="14.00"> if (v11 != 0):</text>
</g>
<!-- Node0x27022170&#45;&gt;Node0x8ed0850 -->
<g id="edge18" class="edge"><title>Node0x27022170&#45;&gt;Node0x8ed0850</title>
<path fill="none" stroke="black" d="M481.885,-616.208C484.19,-605.296 488.701,-591.881 497.5,-583 514.123,-566.222 525.508,-573.614 547.5,-565 556.56,-561.452 566.139,-557.533 575.383,-553.665"/>
<polygon fill="black" stroke="black" points="577.004,-556.779 584.858,-549.669 574.284,-550.329 577.004,-556.779"/>
</g>
<!-- Node0x107d5160 -->
<g id="node19" class="node"><title>Node0x107d5160</title>
<polygon fill="none" stroke="black" points="224.5,-496.5 224.5,-564.5 538.5,-564.5 538.5,-496.5 224.5,-496.5"/>
<text text-anchor="start" x="232.5" y="-549.3" font-family="Times,serif" font-size="14.00">0x8067efe:</text>
<text text-anchor="start" x="232.5" y="-534.3" font-family="Times,serif" font-size="14.00"> v14 = 0</text>
<text text-anchor="start" x="232.5" y="-519.3" font-family="Times,serif" font-size="14.00"> mbedtls_sha256_process(g7, (g5 + v14))</text>
<text text-anchor="start" x="232.5" y="-504.3" font-family="Times,serif" font-size="14.00"> v15 = g3</text>
</g>
<!-- Node0x8ed4540&#45;&gt;Node0x107d5160 -->
<g id="edge19" class="edge"><title>Node0x8ed4540&#45;&gt;Node0x107d5160</title>
<path fill="none" stroke="black" d="M338.922,-617.492C344.779,-605.662 352.861,-589.339 360.411,-574.091"/>
<polygon fill="black" stroke="black" points="363.718,-575.3 365.019,-564.786 357.445,-572.194 363.718,-575.3"/>
</g>
<!-- Node0x15bcb5b0 -->
<g id="node20" class="node"><title>Node0x15bcb5b0</title>
<polygon fill="none" stroke="black" points="578,-706.5 578,-744.5 675,-744.5 675,-706.5 578,-706.5"/>
<text text-anchor="start" x="586" y="-729.3" font-family="Times,serif" font-size="14.00">0x8067ef9:</text>
<text text-anchor="start" x="586" y="-714.3" font-family="Times,serif" font-size="14.00"> v11 = v10</text>
</g>
<!-- Node0x27021b80&#45;&gt;Node0x15bcb5b0 -->
<g id="edge20" class="edge"><title>Node0x27021b80&#45;&gt;Node0x15bcb5b0</title>
<path fill="none" stroke="black" d="M920.684,-827.263C910.479,-811.826 895.528,-793.096 877.5,-782 818.585,-745.739 738.991,-733.042 685.361,-728.668"/>
<polygon fill="black" stroke="black" points="685.559,-725.173 675.327,-727.922 685.04,-732.154 685.559,-725.173"/>
</g>
<!-- Node0x27021be0&#45;&gt;Node0x15bcb5b0 -->
<g id="edge21" class="edge"><title>Node0x27021be0&#45;&gt;Node0x15bcb5b0</title>
<path fill="none" stroke="black" d="M603.541,-782.353C607.688,-772.265 611.73,-762.432 615.238,-753.898"/>
<polygon fill="black" stroke="black" points="618.519,-755.12 619.084,-744.54 612.045,-752.459 618.519,-755.12"/>
</g>
<!-- Node0x27024ea0 -->
<g id="node21" class="node"><title>Node0x27024ea0</title>
<polygon fill="none" stroke="black" points="665,-286.5 665,-444.5 1320,-444.5 1320,-286.5 665,-286.5"/>
<text text-anchor="start" x="673" y="-429.3" font-family="Times,serif" font-size="14.00">0x8067f40:</text>
<text text-anchor="start" x="673" y="-414.3" font-family="Times,serif" font-size="14.00"> v7 = v5</text>
<text text-anchor="start" x="673" y="-399.3" font-family="Times,serif" font-size="14.00"> v17 = g7</text>
<text text-anchor="start" x="673" y="-384.3" font-family="Times,serif" font-size="14.00"> g3 = v3</text>
<text text-anchor="start" x="673" y="-369.3" font-family="Times,serif" font-size="14.00"> g7 = v2</text>
<text text-anchor="start" x="673" y="-354.3" font-family="Times,serif" font-size="14.00"> g5 = v1</text>
<text text-anchor="start" x="673" y="-339.3" font-family="Times,serif" font-size="14.00"> v18</text>
<text text-anchor="start" x="673" y="-324.3" font-family="Times,serif" font-size="14.00"> v19</text>
<text text-anchor="start" x="673" y="-309.3" font-family="Times,serif" font-size="14.00"> memcpy(IntToPtrCastExpr&lt;ptr&gt;(v19), IntToPtrCastExpr&lt;ptr&gt;(v18), ((v5 + 40) + v17))</text>
<text text-anchor="start" x="673" y="-294.3" font-family="Times,serif" font-size="14.00"> goto 0x8067f60</text>
</g>
<!-- Node0x8ed0850&#45;&gt;Node0x27024ea0 -->
<g id="edge22" class="edge"><title>Node0x8ed0850&#45;&gt;Node0x27024ea0</title>
<path fill="none" stroke="black" d="M667.067,-511.433C701.903,-495.919 754.76,-472.379 807.807,-448.754"/>
<polygon fill="black" stroke="black" points="809.301,-451.92 817.012,-444.654 806.453,-445.525 809.301,-451.92"/>
<text text-anchor="middle" x="798" y="-466.8" font-family="Times,serif" font-size="14.00">v11 != 0</text>
</g>
<!-- Node0x27022080 -->
<g id="node22" class="node"><title>Node0x27022080</title>
<polygon fill="none" stroke="black" points="577.5,-184.5 577.5,-267.5 675.5,-267.5 675.5,-184.5 577.5,-184.5"/>
<text text-anchor="start" x="585.5" y="-252.3" font-family="Times,serif" font-size="14.00">0x8067f34:</text>
<text text-anchor="start" x="585.5" y="-237.3" font-family="Times,serif" font-size="14.00"> g3 = v3</text>
<text text-anchor="start" x="585.5" y="-222.3" font-family="Times,serif" font-size="14.00"> g7 = v2</text>
<text text-anchor="start" x="585.5" y="-207.3" font-family="Times,serif" font-size="14.00"> g5 = v1</text>
<text text-anchor="start" x="585.5" y="-192.3" font-family="Times,serif" font-size="14.00"> return g1</text>
</g>
<!-- Node0x8ed0850&#45;&gt;Node0x27022080 -->
<g id="edge23" class="edge"><title>Node0x8ed0850&#45;&gt;Node0x27022080</title>
<path fill="none" stroke="black" d="M626.5,-511.483C626.5,-466.296 626.5,-346.85 626.5,-277.954"/>
<polygon fill="black" stroke="black" points="630,-277.76 626.5,-267.76 623,-277.76 630,-277.76"/>
<text text-anchor="middle" x="661" y="-466.8" font-family="Times,serif" font-size="14.00">v11 == 0</text>
</g>
<!-- Node0x27020fd0 -->
<g id="node23" class="node"><title>Node0x27020fd0</title>
<polygon fill="none" stroke="black" points="262,-347.5 262,-383.5 501,-383.5 501,-347.5 262,-347.5"/>
<text text-anchor="start" x="270" y="-361.8" font-family="Times,serif" font-size="14.00">while ((v15 &#45; (v14 + 64)) &gt; 63):</text>
</g>
<!-- Node0x107d5160&#45;&gt;Node0x27020fd0 -->
<g id="edge24" class="edge"><title>Node0x107d5160&#45;&gt;Node0x27020fd0</title>
<path fill="none" stroke="black" d="M381.5,-496.121C381.5,-466.027 381.5,-422.294 381.5,-394.121"/>
<polygon fill="black" stroke="black" points="385,-393.793 381.5,-383.793 378,-393.793 385,-393.793"/>
</g>
<!-- Node0x15bcad70 -->
<g id="node24" class="node"><title>Node0x15bcad70</title>
<polygon fill="none" stroke="black" points="565,-617.5 565,-653.5 688,-653.5 688,-617.5 565,-617.5"/>
<text text-anchor="start" x="573" y="-631.8" font-family="Times,serif" font-size="14.00">if (v10 &gt;= 64):</text>
</g>
<!-- Node0x15bcb5b0&#45;&gt;Node0x15bcad70 -->
<g id="edge25" class="edge"><title>Node0x15bcb5b0&#45;&gt;Node0x15bcad70</title>
<path fill="none" stroke="black" d="M626.5,-706.266C626.5,-694.031 626.5,-677.692 626.5,-663.902"/>
<polygon fill="black" stroke="black" points="630,-663.516 626.5,-653.516 623,-663.516 630,-663.516"/>
</g>
<!-- Node0x27024ea0&#45;&gt;Node0x15bca490 -->
<g id="edge26" class="edge"><title>Node0x27024ea0&#45;&gt;Node0x15bca490</title>
<path fill="none" stroke="black" d="M1006.01,-444.611C1009.6,-471.434 1012.5,-501.702 1012.5,-529.5 1012.5,-997.5 1012.5,-997.5 1012.5,-997.5 1012.5,-1025.78 938.201,-1047.69 882.772,-1060.1"/>
<polygon fill="black" stroke="black" points="881.688,-1056.75 872.664,-1062.3 883.18,-1063.59 881.688,-1056.75"/>
</g>
<!-- Node0x27022080&#45;&gt;Node0x270249b0 -->
<g id="edge27" class="edge"><title>Node0x27022080&#45;&gt;Node0x270249b0</title>
<path fill="none" stroke="black" d="M629.291,-184.486C628.893,-155.886 623.175,-118.898 599.5,-97 544.72,-46.3311 311.564,-41.8306 219.81,-42.0746"/>
<polygon fill="black" stroke="black" points="219.579,-38.5755 209.596,-42.1233 219.613,-45.5755 219.579,-38.5755"/>
</g>
<!-- Node0x15bc74b0 -->
<g id="node25" class="node"><title>Node0x15bc74b0</title>
<polygon fill="none" stroke="black" points="276.5,-97.5 276.5,-165.5 590.5,-165.5 590.5,-97.5 276.5,-97.5"/>
<text text-anchor="start" x="284.5" y="-150.3" font-family="Times,serif" font-size="14.00">0x8067f00:</text>
<text text-anchor="start" x="284.5" y="-135.3" font-family="Times,serif" font-size="14.00"> v14 = (v14 + 64)</text>
<text text-anchor="start" x="284.5" y="-120.3" font-family="Times,serif" font-size="14.00"> mbedtls_sha256_process(g7, (g5 + v14))</text>
<text text-anchor="start" x="284.5" y="-105.3" font-family="Times,serif" font-size="14.00"> v15 = g3</text>
</g>
<!-- Node0x27020fd0&#45;&gt;Node0x15bc74b0 -->
<g id="edge28" class="edge"><title>Node0x27020fd0&#45;&gt;Node0x15bc74b0</title>
<path fill="none" stroke="black" d="M377.497,-347.493C370.589,-314.475 359.276,-240.014 382.5,-184 383.934,-180.542 385.723,-177.192 387.766,-173.972"/>
<polygon fill="black" stroke="black" points="390.675,-175.921 393.695,-165.766 385.001,-171.822 390.675,-175.921"/>
<text text-anchor="middle" x="465.5" y="-222.3" font-family="Times,serif" font-size="14.00">(v15 &#45; (v14 + 64)) &gt; 63</text>
</g>
<!-- Node0x15bc7450 -->
<g id="node26" class="node"><title>Node0x15bc7450</title>
<polygon fill="none" stroke="black" points="109.5,-105 109.5,-158 255.5,-158 255.5,-105 109.5,-105"/>
<text text-anchor="start" x="117.5" y="-142.8" font-family="Times,serif" font-size="14.00">v16 = (v15 &#45; 64)</text>
<text text-anchor="start" x="117.5" y="-127.8" font-family="Times,serif" font-size="14.00"> g1 = (v16 &amp; &#45;64)</text>
<text text-anchor="start" x="117.5" y="-112.8" font-family="Times,serif" font-size="14.00"> v11 = (v16 % 64)</text>
</g>
<!-- Node0x27020fd0&#45;&gt;Node0x15bc7450 -->
<g id="edge29" class="edge"><title>Node0x27020fd0&#45;&gt;Node0x15bc7450</title>
<path fill="none" stroke="black" d="M306.532,-347.403C264.01,-333.519 214.117,-309.248 187.5,-268 168.46,-238.493 169.912,-197.362 174.44,-168.175"/>
<polygon fill="black" stroke="black" points="177.943,-168.459 176.215,-158.006 171.047,-167.255 177.943,-168.459"/>
<text text-anchor="middle" x="276.5" y="-222.3" font-family="Times,serif" font-size="14.00">(v15 &#45; (v14 + 64)) &lt;= 63</text>
</g>
<!-- Node0x15bcad70&#45;&gt;Node0x8ed0850 -->
<g id="edge31" class="edge"><title>Node0x15bcad70&#45;&gt;Node0x8ed0850</title>
<path fill="none" stroke="black" d="M626.5,-617.492C626.5,-601.825 626.5,-578.277 626.5,-559.782"/>
<polygon fill="black" stroke="black" points="630,-559.574 626.5,-549.574 623,-559.574 630,-559.574"/>
<text text-anchor="middle" x="659.5" y="-586.8" font-family="Times,serif" font-size="14.00">v10 &lt; 64</text>
</g>
<!-- Node0x15bcad70&#45;&gt;Node0x107d5160 -->
<g id="edge30" class="edge"><title>Node0x15bcad70&#45;&gt;Node0x107d5160</title>
<path fill="none" stroke="black" d="M586.043,-617.492C554.461,-604.214 509.414,-585.276 469.63,-568.551"/>
<polygon fill="black" stroke="black" points="470.748,-565.224 460.173,-564.575 468.035,-571.677 470.748,-565.224"/>
<text text-anchor="middle" x="572.5" y="-586.8" font-family="Times,serif" font-size="14.00">v10 &gt;= 64</text>
</g>
<!-- Node0x15bc74b0&#45;&gt;Node0x27020fd0 -->
<g id="edge32" class="edge"><title>Node0x15bc74b0&#45;&gt;Node0x27020fd0</title>
<path fill="none" stroke="black" d="M531.563,-165.549C538.118,-170.824 543.921,-176.932 548.5,-184 568.799,-215.332 567.161,-235.665 548.5,-268 527.297,-304.74 486.185,-328.749 450.06,-343.63"/>
<polygon fill="black" stroke="black" points="448.526,-340.473 440.513,-347.403 451.099,-346.983 448.526,-340.473"/>
</g>
<!-- Node0x15bc7450&#45;&gt;Node0x270249b0 -->
<g id="edge33" class="edge"><title>Node0x15bc7450&#45;&gt;Node0x270249b0</title>
<path fill="none" stroke="black" d="M182.5,-104.573C182.5,-93.5849 182.5,-80.7766 182.5,-69.6581"/>
<polygon fill="black" stroke="black" points="186,-69.6304 182.5,-59.6304 179,-69.6305 186,-69.6304"/>
</g>
</g>
</svg>
