<?xml version="1.0" encoding="UTF-8" standalone="no"?>
<!DOCTYPE svg PUBLIC "-//W3C//DTD SVG 1.1//EN"
 "http://www.w3.org/Graphics/SVG/1.1/DTD/svg11.dtd">
<!-- Generated by graphviz version 2.38.0 (20140413.2041)
 -->
<!-- Title: Control&#45;flow graph for function &#39;function_8056ff6(a1)&#39;. Pages: 1 -->
<svg width="414pt" height="218pt"
 viewBox="0.00 0.00 414.00 218.00" xmlns="http://www.w3.org/2000/svg" xmlns:xlink="http://www.w3.org/1999/xlink">
<g id="graph0" class="graph" transform="scale(1 1) rotate(0) translate(4 214)">
<title>Control&#45;flow graph for function &#39;function_8056ff6(a1)&#39;.</title>
<polygon fill="white" stroke="none" points="-4,4 -4,-214 410,-214 410,4 -4,4"/>
<text text-anchor="middle" x="203" y="-7.8" font-family="Times,serif" font-size="14.00">Control&#45;flow graph for function &#39;function_8056ff6(a1)&#39;.</text>
<!-- Node0x85a78e0 -->
<g id="node1" class="node"><title>Node0x85a78e0</title>
<polygon fill="none" stroke="black" points="173.5,-171.5 173.5,-209.5 232.5,-209.5 232.5,-171.5 173.5,-171.5"/>
<text text-anchor="start" x="181.5" y="-194.3" font-family="Times,serif" font-size="14.00">entry:</text>
<text text-anchor="start" x="181.5" y="-179.3" font-family="Times,serif" font-size="14.00"> a1</text>
</g>
<!-- Node0x151fde70 -->
<g id="node2" class="node"><title>Node0x151fde70</title>
<polygon fill="none" stroke="black" points="156,-96.5 156,-134.5 250,-134.5 250,-96.5 156,-96.5"/>
<text text-anchor="start" x="164" y="-119.3" font-family="Times,serif" font-size="14.00">0x8056ff6:</text>
<text text-anchor="start" x="164" y="-104.3" font-family="Times,serif" font-size="14.00"> return g7</text>
</g>
<!-- Node0x85a78e0&#45;&gt;Node0x151fde70 -->
<g id="edge1" class="edge"><title>Node0x85a78e0&#45;&gt;Node0x151fde70</title>
<path fill="none" stroke="black" d="M203,-171.455C203,-163.383 203,-153.676 203,-144.682"/>
<polygon fill="black" stroke="black" points="206.5,-144.59 203,-134.59 199.5,-144.59 206.5,-144.59"/>
</g>
<!-- Node0x151fddf0 -->
<g id="node3" class="node"><title>Node0x151fddf0</title>
<polygon fill="none" stroke="black" points="176,-23.5 176,-59.5 230,-59.5 230,-23.5 176,-23.5"/>
<text text-anchor="start" x="184" y="-37.8" font-family="Times,serif" font-size="14.00">exit:</text>
</g>
<!-- Node0x151fde70&#45;&gt;Node0x151fddf0 -->
<g id="edge2" class="edge"><title>Node0x151fde70&#45;&gt;Node0x151fddf0</title>
<path fill="none" stroke="black" d="M203,-96.3314C203,-88.394 203,-78.9095 203,-70.1285"/>
<polygon fill="black" stroke="black" points="206.5,-69.9177 203,-59.9177 199.5,-69.9177 206.5,-69.9177"/>
</g>
</g>
</svg>
