<?xml version="1.0" encoding="UTF-8" standalone="no"?>
<!DOCTYPE svg PUBLIC "-//W3C//DTD SVG 1.1//EN"
 "http://www.w3.org/Graphics/SVG/1.1/DTD/svg11.dtd">
<!-- Generated by graphviz version 2.38.0 (20140413.2041)
 -->
<!-- Title: Control&#45;flow graph for function &#39;entropy_update(a1, a2, a3, a4)&#39;. Pages: 1 -->
<svg width="666pt" height="882pt"
 viewBox="0.00 0.00 666.00 882.00" xmlns="http://www.w3.org/2000/svg" xmlns:xlink="http://www.w3.org/1999/xlink">
<g id="graph0" class="graph" transform="scale(1 1) rotate(0) translate(4 878)">
<title>Control&#45;flow graph for function &#39;entropy_update(a1, a2, a3, a4)&#39;.</title>
<polygon fill="white" stroke="none" points="-4,4 -4,-878 662,-878 662,4 -4,4"/>
<text text-anchor="middle" x="329" y="-7.8" font-family="Times,serif" font-size="14.00">Control&#45;flow graph for function &#39;entropy_update(a1, a2, a3, a4)&#39;.</text>
<!-- Node0x1954a670 -->
<g id="node1" class="node"><title>Node0x1954a670</title>
<polygon fill="none" stroke="black" points="279.5,-790.5 279.5,-873.5 338.5,-873.5 338.5,-790.5 279.5,-790.5"/>
<text text-anchor="start" x="287.5" y="-858.3" font-family="Times,serif" font-size="14.00">entry:</text>
<text text-anchor="start" x="287.5" y="-843.3" font-family="Times,serif" font-size="14.00"> a1</text>
<text text-anchor="start" x="287.5" y="-828.3" font-family="Times,serif" font-size="14.00"> a2</text>
<text text-anchor="start" x="287.5" y="-813.3" font-family="Times,serif" font-size="14.00"> a3</text>
<text text-anchor="start" x="287.5" y="-798.3" font-family="Times,serif" font-size="14.00"> a4</text>
</g>
<!-- Node0x1954aa30 -->
<g id="node2" class="node"><title>Node0x1954aa30</title>
<polygon fill="none" stroke="black" points="270.5,-579.5 270.5,-752.5 347.5,-752.5 347.5,-579.5 270.5,-579.5"/>
<text text-anchor="start" x="278.5" y="-737.3" font-family="Times,serif" font-size="14.00">v1 = g3</text>
<text text-anchor="start" x="278.5" y="-722.3" font-family="Times,serif" font-size="14.00"> v2 = g1</text>
<text text-anchor="start" x="278.5" y="-707.3" font-family="Times,serif" font-size="14.00"> g3 = v2</text>
<text text-anchor="start" x="278.5" y="-692.3" font-family="Times,serif" font-size="14.00"> g1 = a1</text>
<text text-anchor="start" x="278.5" y="-677.3" font-family="Times,serif" font-size="14.00"> v3 = g7</text>
<text text-anchor="start" x="278.5" y="-662.3" font-family="Times,serif" font-size="14.00"> v4 = g4</text>
<text text-anchor="start" x="278.5" y="-647.3" font-family="Times,serif" font-size="14.00"> g7 = v4</text>
<text text-anchor="start" x="278.5" y="-632.3" font-family="Times,serif" font-size="14.00"> v5 = g5</text>
<text text-anchor="start" x="278.5" y="-617.3" font-family="Times,serif" font-size="14.00"> g4 = a1</text>
<text text-anchor="start" x="278.5" y="-602.3" font-family="Times,serif" font-size="14.00"> g5 = a1</text>
<text text-anchor="start" x="278.5" y="-587.3" font-family="Times,serif" font-size="14.00"> v6</text>
</g>
<!-- Node0x1954a670&#45;&gt;Node0x1954aa30 -->
<g id="edge1" class="edge"><title>Node0x1954a670&#45;&gt;Node0x1954aa30</title>
<path fill="none" stroke="black" d="M309,-790.461C309,-781.872 309,-772.46 309,-762.784"/>
<polygon fill="black" stroke="black" points="312.5,-762.629 309,-752.629 305.5,-762.629 312.5,-762.629"/>
</g>
<!-- Node0x1954a230 -->
<g id="node3" class="node"><title>Node0x1954a230</title>
<polygon fill="none" stroke="black" points="258,-503.5 258,-541.5 360,-541.5 360,-503.5 258,-503.5"/>
<text text-anchor="start" x="266" y="-526.3" font-family="Times,serif" font-size="14.00">if (a1 &lt; 65):</text>
<text text-anchor="start" x="266" y="-511.3" font-family="Times,serif" font-size="14.00"> else:</text>
</g>
<!-- Node0x1954aa30&#45;&gt;Node0x1954a230 -->
<g id="edge2" class="edge"><title>Node0x1954aa30&#45;&gt;Node0x1954a230</title>
<path fill="none" stroke="black" d="M309,-579.425C309,-569.55 309,-560.079 309,-551.829"/>
<polygon fill="black" stroke="black" points="312.5,-551.754 309,-541.754 305.5,-551.754 312.5,-551.754"/>
</g>
<!-- Node0x1954abc0 -->
<g id="node4" class="node"><title>Node0x1954abc0</title>
<polygon fill="none" stroke="black" points="176.5,-362 176.5,-398 249.5,-398 249.5,-362 176.5,-362"/>
<text text-anchor="start" x="184.5" y="-376.3" font-family="Times,serif" font-size="14.00">v6 = g6</text>
</g>
<!-- Node0x1954a230&#45;&gt;Node0x1954abc0 -->
<g id="edge3" class="edge"><title>Node0x1954a230&#45;&gt;Node0x1954abc0</title>
<path fill="none" stroke="black" d="M295.233,-503.452C284.768,-489.565 270.151,-469.799 258,-452 247.972,-437.31 237.293,-420.516 228.856,-406.949"/>
<polygon fill="black" stroke="black" points="231.644,-404.804 223.408,-398.139 225.69,-408.485 231.644,-404.804"/>
<text text-anchor="middle" x="310.5" y="-473.8" font-family="Times,serif" font-size="14.00">a1 &lt; 65</text>
</g>
<!-- Node0x1954ac20 -->
<g id="node5" class="node"><title>Node0x1954ac20</title>
<polygon fill="none" stroke="black" points="267.5,-308.5 267.5,-451.5 542.5,-451.5 542.5,-308.5 267.5,-308.5"/>
<text text-anchor="start" x="275.5" y="-436.3" font-family="Times,serif" font-size="14.00">0x804c4a2:</text>
<text text-anchor="start" x="275.5" y="-421.3" font-family="Times,serif" font-size="14.00"> v7</text>
<text text-anchor="start" x="275.5" y="-406.3" font-family="Times,serif" font-size="14.00"> v8 = &amp;(v7)</text>
<text text-anchor="start" x="275.5" y="-391.3" font-family="Times,serif" font-size="14.00"> g7 = v8</text>
<text text-anchor="start" x="275.5" y="-376.3" font-family="Times,serif" font-size="14.00"> g5 = 64</text>
<text text-anchor="start" x="275.5" y="-361.3" font-family="Times,serif" font-size="14.00"> g1 = mbedtls_sha512(v4, a1, v8, 0)</text>
<text text-anchor="start" x="275.5" y="-346.3" font-family="Times,serif" font-size="14.00"> g4 = 64</text>
<text text-anchor="start" x="275.5" y="-331.3" font-family="Times,serif" font-size="14.00"> v2 = g3</text>
<text text-anchor="start" x="275.5" y="-316.3" font-family="Times,serif" font-size="14.00"> v6 = (g6 % 256)</text>
</g>
<!-- Node0x1954a230&#45;&gt;Node0x1954ac20 -->
<g id="edge4" class="edge"><title>Node0x1954a230&#45;&gt;Node0x1954ac20</title>
<path fill="none" stroke="black" d="M327.447,-503.226C332.731,-497.596 338.322,-491.234 343,-485 348.867,-477.182 354.648,-468.773 360.181,-460.245"/>
<polygon fill="black" stroke="black" points="363.206,-462.01 365.625,-451.695 357.302,-458.25 363.206,-462.01"/>
<text text-anchor="middle" x="386.5" y="-473.8" font-family="Times,serif" font-size="14.00">a1 &gt;= 65</text>
</g>
<!-- Node0x1954a5d0 -->
<g id="node6" class="node"><title>Node0x1954a5d0</title>
<polygon fill="none" stroke="black" points="-5.68434e-14,-97.5 -5.68434e-14,-270.5 658,-270.5 658,-97.5 -5.68434e-14,-97.5"/>
<text text-anchor="start" x="8" y="-255.3" font-family="Times,serif" font-size="14.00">v9 = ((16777216 * v6) / 16777216)</text>
<text text-anchor="start" x="8" y="-240.3" font-family="Times,serif" font-size="14.00"> g6 = &amp;(v9)</text>
<text text-anchor="start" x="8" y="-225.3" font-family="Times,serif" font-size="14.00"> g1 = mbedtls_sha512_update(IntToPtrCastExpr&lt;ptr&gt;(v2), BitCastExpr&lt;ptr&gt;(&amp;(v9)), 2)</text>
<text text-anchor="start" x="8" y="-210.3" font-family="Times,serif" font-size="14.00"> mbedtls_sha512_update(IntToPtrCastExpr&lt;ptr&gt;(g3), IntToPtrCastExpr&lt;ptr&gt;(g7), g5)</text>
<text text-anchor="start" x="8" y="-195.3" font-family="Times,serif" font-size="14.00"> g3 = v1</text>
<text text-anchor="start" x="8" y="-180.3" font-family="Times,serif" font-size="14.00"> g1 = 0</text>
<text text-anchor="start" x="8" y="-165.3" font-family="Times,serif" font-size="14.00"> g7 = v3</text>
<text text-anchor="start" x="8" y="-150.3" font-family="Times,serif" font-size="14.00"> g5 = v5</text>
<text text-anchor="start" x="8" y="-135.3" font-family="Times,serif" font-size="14.00"> v10</text>
<text text-anchor="start" x="8" y="-120.3" font-family="Times,serif" font-size="14.00"> g2 = v10</text>
<text text-anchor="start" x="8" y="-105.3" font-family="Times,serif" font-size="14.00"> return 0</text>
</g>
<!-- Node0x1954abc0&#45;&gt;Node0x1954a5d0 -->
<g id="edge5" class="edge"><title>Node0x1954abc0&#45;&gt;Node0x1954a5d0</title>
<path fill="none" stroke="black" d="M223.294,-361.784C234.597,-342.882 253.654,-311.01 272.5,-279.492"/>
<polygon fill="black" stroke="black" points="275.675,-281.002 277.803,-270.623 269.667,-277.409 275.675,-281.002"/>
</g>
<!-- Node0x1954ac20&#45;&gt;Node0x1954a5d0 -->
<g id="edge6" class="edge"><title>Node0x1954ac20&#45;&gt;Node0x1954a5d0</title>
<path fill="none" stroke="black" d="M377.347,-308.413C373.75,-299.231 370.019,-289.708 366.298,-280.207"/>
<polygon fill="black" stroke="black" points="369.491,-278.762 362.584,-270.728 362.973,-281.315 369.491,-278.762"/>
</g>
<!-- Node0x1954a9d0 -->
<g id="node7" class="node"><title>Node0x1954a9d0</title>
<polygon fill="none" stroke="black" points="302,-23.5 302,-59.5 356,-59.5 356,-23.5 302,-23.5"/>
<text text-anchor="start" x="310" y="-37.8" font-family="Times,serif" font-size="14.00">exit:</text>
</g>
<!-- Node0x1954a5d0&#45;&gt;Node0x1954a9d0 -->
<g id="edge7" class="edge"><title>Node0x1954a5d0&#45;&gt;Node0x1954a9d0</title>
<path fill="none" stroke="black" d="M329,-97.2233C329,-87.4821 329,-78.1602 329,-70.0586"/>
<polygon fill="black" stroke="black" points="332.5,-69.8425 329,-59.8425 325.5,-69.8426 332.5,-69.8425"/>
</g>
</g>
</svg>
