<?xml version="1.0" encoding="UTF-8" standalone="no"?>
<!DOCTYPE svg PUBLIC "-//W3C//DTD SVG 1.1//EN"
 "http://www.w3.org/Graphics/SVG/1.1/DTD/svg11.dtd">
<!-- Generated by graphviz version 2.38.0 (20140413.2041)
 -->
<!-- Title: Control&#45;flow graph for function &#39;des_setkey_enc_wrap(a1)&#39;. Pages: 1 -->
<svg width="448pt" height="263pt"
 viewBox="0.00 0.00 448.00 263.00" xmlns="http://www.w3.org/2000/svg" xmlns:xlink="http://www.w3.org/1999/xlink">
<g id="graph0" class="graph" transform="scale(1 1) rotate(0) translate(4 259)">
<title>Control&#45;flow graph for function &#39;des_setkey_enc_wrap(a1)&#39;.</title>
<polygon fill="white" stroke="none" points="-4,4 -4,-259 444,-259 444,4 -4,4"/>
<text text-anchor="middle" x="220" y="-7.8" font-family="Times,serif" font-size="14.00">Control&#45;flow graph for function &#39;des_setkey_enc_wrap(a1)&#39;.</text>
<!-- Node0x20ba0e00 -->
<g id="node1" class="node"><title>Node0x20ba0e00</title>
<polygon fill="none" stroke="black" points="190.5,-216.5 190.5,-254.5 249.5,-254.5 249.5,-216.5 190.5,-216.5"/>
<text text-anchor="start" x="198.5" y="-239.3" font-family="Times,serif" font-size="14.00">entry:</text>
<text text-anchor="start" x="198.5" y="-224.3" font-family="Times,serif" font-size="14.00"> a1</text>
</g>
<!-- Node0x2102af20 -->
<g id="node2" class="node"><title>Node0x2102af20</title>
<polygon fill="none" stroke="black" points="81,-96.5 81,-179.5 359,-179.5 359,-96.5 81,-96.5"/>
<text text-anchor="start" x="89" y="-164.3" font-family="Times,serif" font-size="14.00">0x806a630:</text>
<text text-anchor="start" x="89" y="-149.3" font-family="Times,serif" font-size="14.00"> v1</text>
<text text-anchor="start" x="89" y="-134.3" font-family="Times,serif" font-size="14.00"> result</text>
<text text-anchor="start" x="89" y="-119.3" font-family="Times,serif" font-size="14.00"> mbedtls_des_setkey_enc(result, v1)</text>
<text text-anchor="start" x="89" y="-104.3" font-family="Times,serif" font-size="14.00"> return result</text>
</g>
<!-- Node0x20ba0e00&#45;&gt;Node0x2102af20 -->
<g id="edge1" class="edge"><title>Node0x20ba0e00&#45;&gt;Node0x2102af20</title>
<path fill="none" stroke="black" d="M220,-216.087C220,-208.444 220,-199.165 220,-189.73"/>
<polygon fill="black" stroke="black" points="223.5,-189.501 220,-179.501 216.5,-189.501 223.5,-189.501"/>
</g>
<!-- Node0xb4c55e0 -->
<g id="node3" class="node"><title>Node0xb4c55e0</title>
<polygon fill="none" stroke="black" points="193,-23.5 193,-59.5 247,-59.5 247,-23.5 193,-23.5"/>
<text text-anchor="start" x="201" y="-37.8" font-family="Times,serif" font-size="14.00">exit:</text>
</g>
<!-- Node0x2102af20&#45;&gt;Node0xb4c55e0 -->
<g id="edge2" class="edge"><title>Node0x2102af20&#45;&gt;Node0xb4c55e0</title>
<path fill="none" stroke="black" d="M220,-96.3751C220,-87.4706 220,-78.246 220,-70"/>
<polygon fill="black" stroke="black" points="223.5,-69.8327 220,-59.8328 216.5,-69.8328 223.5,-69.8327"/>
</g>
</g>
</svg>
