<?xml version="1.0" encoding="UTF-8" standalone="no"?>
<!DOCTYPE svg PUBLIC "-//W3C//DTD SVG 1.1//EN"
 "http://www.w3.org/Graphics/SVG/1.1/DTD/svg11.dtd">
<!-- Generated by graphviz version 2.38.0 (20140413.2041)
 -->
<!-- Title: Control&#45;flow graph for function &#39;__lctrans_cur(a1)&#39;. Pages: 1 -->
<svg width="388pt" height="233pt"
 viewBox="0.00 0.00 388.00 233.00" xmlns="http://www.w3.org/2000/svg" xmlns:xlink="http://www.w3.org/1999/xlink">
<g id="graph0" class="graph" transform="scale(1 1) rotate(0) translate(4 229)">
<title>Control&#45;flow graph for function &#39;__lctrans_cur(a1)&#39;.</title>
<polygon fill="white" stroke="none" points="-4,4 -4,-229 384,-229 384,4 -4,4"/>
<text text-anchor="middle" x="190" y="-7.8" font-family="Times,serif" font-size="14.00">Control&#45;flow graph for function &#39;__lctrans_cur(a1)&#39;.</text>
<!-- Node0x140efcf0 -->
<g id="node1" class="node"><title>Node0x140efcf0</title>
<polygon fill="none" stroke="black" points="160.5,-186.5 160.5,-224.5 219.5,-224.5 219.5,-186.5 160.5,-186.5"/>
<text text-anchor="start" x="168.5" y="-209.3" font-family="Times,serif" font-size="14.00">entry:</text>
<text text-anchor="start" x="168.5" y="-194.3" font-family="Times,serif" font-size="14.00"> a1</text>
</g>
<!-- Node0x27379c00 -->
<g id="node2" class="node"><title>Node0x27379c00</title>
<polygon fill="none" stroke="black" points="111,-96.5 111,-149.5 269,-149.5 269,-96.5 111,-96.5"/>
<text text-anchor="start" x="119" y="-134.3" font-family="Times,serif" font-size="14.00">0x8075b94:</text>
<text text-anchor="start" x="119" y="-119.3" font-family="Times,serif" font-size="14.00"> abort()</text>
<text text-anchor="start" x="119" y="-104.3" font-family="Times,serif" font-size="14.00"> # UNREACHABLE</text>
</g>
<!-- Node0x140efcf0&#45;&gt;Node0x27379c00 -->
<g id="edge1" class="edge"><title>Node0x140efcf0&#45;&gt;Node0x27379c00</title>
<path fill="none" stroke="black" d="M190,-186.233C190,-178.347 190,-168.835 190,-159.648"/>
<polygon fill="black" stroke="black" points="193.5,-159.517 190,-149.517 186.5,-159.517 193.5,-159.517"/>
</g>
<!-- Node0x2737c750 -->
<g id="node3" class="node"><title>Node0x2737c750</title>
<polygon fill="none" stroke="black" points="163,-23.5 163,-59.5 217,-59.5 217,-23.5 163,-23.5"/>
<text text-anchor="start" x="171" y="-37.8" font-family="Times,serif" font-size="14.00">exit:</text>
</g>
<!-- Node0x27379c00&#45;&gt;Node0x2737c750 -->
<g id="edge2" class="edge"><title>Node0x27379c00&#45;&gt;Node0x2737c750</title>
<path fill="none" stroke="black" d="M190,-96.4081C190,-87.9823 190,-78.5803 190,-70.0174"/>
<polygon fill="black" stroke="black" points="193.5,-69.7564 190,-59.7564 186.5,-69.7565 193.5,-69.7564"/>
</g>
</g>
</svg>
