<?xml version="1.0" encoding="UTF-8" standalone="no"?>
<!DOCTYPE svg PUBLIC "-//W3C//DTD SVG 1.1//EN"
 "http://www.w3.org/Graphics/SVG/1.1/DTD/svg11.dtd">
<!-- Generated by graphviz version 2.38.0 (20140413.2041)
 -->
<!-- Title: Control&#45;flow graph for function &#39;mbedtls_md(a1, a2, a3, a4)&#39;. Pages: 1 -->
<svg width="714pt" height="657pt"
 viewBox="0.00 0.00 714.00 657.00" xmlns="http://www.w3.org/2000/svg" xmlns:xlink="http://www.w3.org/1999/xlink">
<g id="graph0" class="graph" transform="scale(1 1) rotate(0) translate(4 653)">
<title>Control&#45;flow graph for function &#39;mbedtls_md(a1, a2, a3, a4)&#39;.</title>
<polygon fill="white" stroke="none" points="-4,4 -4,-653 710,-653 710,4 -4,4"/>
<text text-anchor="middle" x="353" y="-7.8" font-family="Times,serif" font-size="14.00">Control&#45;flow graph for function &#39;mbedtls_md(a1, a2, a3, a4)&#39;.</text>
<!-- Node0x1b6a27a0 -->
<g id="node1" class="node"><title>Node0x1b6a27a0</title>
<polygon fill="none" stroke="black" points="427.5,-565.5 427.5,-648.5 486.5,-648.5 486.5,-565.5 427.5,-565.5"/>
<text text-anchor="start" x="435.5" y="-633.3" font-family="Times,serif" font-size="14.00">entry:</text>
<text text-anchor="start" x="435.5" y="-618.3" font-family="Times,serif" font-size="14.00"> a1</text>
<text text-anchor="start" x="435.5" y="-603.3" font-family="Times,serif" font-size="14.00"> a2</text>
<text text-anchor="start" x="435.5" y="-588.3" font-family="Times,serif" font-size="14.00"> a3</text>
<text text-anchor="start" x="435.5" y="-573.3" font-family="Times,serif" font-size="14.00"> a4</text>
</g>
<!-- Node0x1e93a700 -->
<g id="node2" class="node"><title>Node0x1e93a700</title>
<polygon fill="none" stroke="black" points="383,-399.5 383,-527.5 531,-527.5 531,-399.5 383,-399.5"/>
<text text-anchor="start" x="391" y="-512.3" font-family="Times,serif" font-size="14.00">0x80622e0:</text>
<text text-anchor="start" x="391" y="-497.3" font-family="Times,serif" font-size="14.00"> v1</text>
<text text-anchor="start" x="391" y="-482.3" font-family="Times,serif" font-size="14.00"> v2 = v1</text>
<text text-anchor="start" x="391" y="-467.3" font-family="Times,serif" font-size="14.00"> g1 = &#45;20736</text>
<text text-anchor="start" x="391" y="-452.3" font-family="Times,serif" font-size="14.00"> g2 = &amp;(v2)</text>
<text text-anchor="start" x="391" y="-437.3" font-family="Times,serif" font-size="14.00"> g6 = a1</text>
<text text-anchor="start" x="391" y="-422.3" font-family="Times,serif" font-size="14.00"> g237 = (a1 == 0)</text>
<text text-anchor="start" x="391" y="-407.3" font-family="Times,serif" font-size="14.00"> result</text>
</g>
<!-- Node0x1b6a27a0&#45;&gt;Node0x1e93a700 -->
<g id="edge1" class="edge"><title>Node0x1b6a27a0&#45;&gt;Node0x1e93a700</title>
<path fill="none" stroke="black" d="M457,-565.452C457,-556.816 457,-547.44 457,-538"/>
<polygon fill="black" stroke="black" points="460.5,-537.762 457,-527.762 453.5,-537.762 460.5,-537.762"/>
</g>
<!-- Node0x1b6a37f0 -->
<g id="node3" class="node"><title>Node0x1b6a37f0</title>
<polygon fill="none" stroke="black" points="407.5,-323.5 407.5,-361.5 506.5,-361.5 506.5,-323.5 407.5,-323.5"/>
<text text-anchor="start" x="415.5" y="-346.3" font-family="Times,serif" font-size="14.00">if (a1 != 0):</text>
<text text-anchor="start" x="415.5" y="-331.3" font-family="Times,serif" font-size="14.00"> else:</text>
</g>
<!-- Node0x1e93a700&#45;&gt;Node0x1b6a37f0 -->
<g id="edge2" class="edge"><title>Node0x1e93a700&#45;&gt;Node0x1b6a37f0</title>
<path fill="none" stroke="black" d="M457,-399.167C457,-389.596 457,-380.158 457,-371.848"/>
<polygon fill="black" stroke="black" points="460.5,-371.658 457,-361.659 453.5,-371.659 460.5,-371.658"/>
</g>
<!-- Node0x1b6a3f20 -->
<g id="node4" class="node"><title>Node0x1b6a3f20</title>
<polygon fill="none" stroke="black" points="0,-188.5 0,-271.5 554,-271.5 554,-188.5 0,-188.5"/>
<text text-anchor="start" x="8" y="-256.3" font-family="Times,serif" font-size="14.00">0x80622f2:</text>
<text text-anchor="start" x="8" y="-241.3" font-family="Times,serif" font-size="14.00"> g1 = a2</text>
<text text-anchor="start" x="8" y="-226.3" font-family="Times,serif" font-size="14.00"> IntToPtrCastExpr&lt;ptr&gt;(*(IntToPtrCastExpr&lt;ptr&gt;((a1 + 28))))(a2, a3, a4)</text>
<text text-anchor="start" x="8" y="-211.3" font-family="Times,serif" font-size="14.00"> g1 = 0</text>
<text text-anchor="start" x="8" y="-196.3" font-family="Times,serif" font-size="14.00"> result = 0</text>
</g>
<!-- Node0x1b6a37f0&#45;&gt;Node0x1b6a3f20 -->
<g id="edge3" class="edge"><title>Node0x1b6a37f0&#45;&gt;Node0x1b6a3f20</title>
<path fill="none" stroke="black" d="M427.277,-323.253C406.643,-310.587 378.187,-293.118 351.583,-276.786"/>
<polygon fill="black" stroke="black" points="353.377,-273.78 343.023,-271.531 349.714,-279.745 353.377,-273.78"/>
<text text-anchor="middle" x="421" y="-293.8" font-family="Times,serif" font-size="14.00">a1 != 0</text>
</g>
<!-- Node0x1b6a4090 -->
<g id="node5" class="node"><title>Node0x1b6a4090</title>
<polygon fill="none" stroke="black" points="572,-211 572,-249 706,-249 706,-211 572,-211"/>
<text text-anchor="start" x="580" y="-233.8" font-family="Times,serif" font-size="14.00">v2 = v1</text>
<text text-anchor="start" x="580" y="-218.8" font-family="Times,serif" font-size="14.00"> result = &#45;20736</text>
</g>
<!-- Node0x1b6a37f0&#45;&gt;Node0x1b6a4090 -->
<g id="edge4" class="edge"><title>Node0x1b6a37f0&#45;&gt;Node0x1b6a4090</title>
<path fill="none" stroke="black" d="M487.054,-323.253C518.102,-304.403 566.668,-274.916 600.508,-254.37"/>
<polygon fill="black" stroke="black" points="602.473,-257.272 609.204,-249.09 598.84,-251.288 602.473,-257.272"/>
<text text-anchor="middle" x="567" y="-293.8" font-family="Times,serif" font-size="14.00">a1 == 0</text>
</g>
<!-- Node0x1b6a3ec0 -->
<g id="node6" class="node"><title>Node0x1b6a3ec0</title>
<polygon fill="none" stroke="black" points="442.5,-97.5 442.5,-150.5 555.5,-150.5 555.5,-97.5 442.5,-97.5"/>
<text text-anchor="start" x="450.5" y="-135.3" font-family="Times,serif" font-size="14.00">0x806230b:</text>
<text text-anchor="start" x="450.5" y="-120.3" font-family="Times,serif" font-size="14.00"> g2 = v2</text>
<text text-anchor="start" x="450.5" y="-105.3" font-family="Times,serif" font-size="14.00"> return result</text>
</g>
<!-- Node0x1b6a3f20&#45;&gt;Node0x1b6a3ec0 -->
<g id="edge5" class="edge"><title>Node0x1b6a3f20&#45;&gt;Node0x1b6a3ec0</title>
<path fill="none" stroke="black" d="M363.467,-188.493C387.435,-177.264 413.011,-165.283 435.413,-154.788"/>
<polygon fill="black" stroke="black" points="436.909,-157.953 444.479,-150.541 433.939,-151.614 436.909,-157.953"/>
</g>
<!-- Node0x1b6a4090&#45;&gt;Node0x1b6a3ec0 -->
<g id="edge6" class="edge"><title>Node0x1b6a4090&#45;&gt;Node0x1b6a3ec0</title>
<path fill="none" stroke="black" d="M614.614,-210.885C594.501,-195.944 565.49,-174.393 541.561,-156.617"/>
<polygon fill="black" stroke="black" points="543.446,-153.657 533.332,-150.504 539.272,-159.277 543.446,-153.657"/>
</g>
<!-- Node0x851b9e0 -->
<g id="node7" class="node"><title>Node0x851b9e0</title>
<polygon fill="none" stroke="black" points="472,-23.5 472,-59.5 526,-59.5 526,-23.5 472,-23.5"/>
<text text-anchor="start" x="480" y="-37.8" font-family="Times,serif" font-size="14.00">exit:</text>
</g>
<!-- Node0x1b6a3ec0&#45;&gt;Node0x851b9e0 -->
<g id="edge7" class="edge"><title>Node0x1b6a3ec0&#45;&gt;Node0x851b9e0</title>
<path fill="none" stroke="black" d="M499,-97.0862C499,-88.4596 499,-78.8224 499,-70.0748"/>
<polygon fill="black" stroke="black" points="502.5,-69.9735 499,-59.9735 495.5,-69.9735 502.5,-69.9735"/>
</g>
</g>
</svg>
