<?xml version="1.0" encoding="UTF-8" standalone="no"?>
<!DOCTYPE svg PUBLIC "-//W3C//DTD SVG 1.1//EN"
 "http://www.w3.org/Graphics/SVG/1.1/DTD/svg11.dtd">
<!-- Generated by graphviz version 2.38.0 (20140413.2041)
 -->
<!-- Title: Control&#45;flow graph for function &#39;pk_get_pk_alg(*a1, a2, a3)&#39;. Pages: 1 -->
<svg width="1245pt" height="1535pt"
 viewBox="0.00 0.00 1244.50 1535.00" xmlns="http://www.w3.org/2000/svg" xmlns:xlink="http://www.w3.org/1999/xlink">
<g id="graph0" class="graph" transform="scale(1 1) rotate(0) translate(4 1531)">
<title>Control&#45;flow graph for function &#39;pk_get_pk_alg(*a1, a2, a3)&#39;.</title>
<polygon fill="white" stroke="none" points="-4,4 -4,-1531 1240.5,-1531 1240.5,4 -4,4"/>
<text text-anchor="middle" x="618.25" y="-7.8" font-family="Times,serif" font-size="14.00">Control&#45;flow graph for function &#39;pk_get_pk_alg(*a1, a2, a3)&#39;.</text>
<!-- Node0x18f28ff0 -->
<g id="node1" class="node"><title>Node0x18f28ff0</title>
<polygon fill="none" stroke="black" points="410,-1458.5 410,-1526.5 469,-1526.5 469,-1458.5 410,-1458.5"/>
<text text-anchor="start" x="418" y="-1511.3" font-family="Times,serif" font-size="14.00">entry:</text>
<text text-anchor="start" x="418" y="-1496.3" font-family="Times,serif" font-size="14.00"> a1</text>
<text text-anchor="start" x="418" y="-1481.3" font-family="Times,serif" font-size="14.00"> a2</text>
<text text-anchor="start" x="418" y="-1466.3" font-family="Times,serif" font-size="14.00"> a3</text>
</g>
<!-- Node0x18f2b3a0 -->
<g id="node2" class="node"><title>Node0x18f2b3a0</title>
<polygon fill="none" stroke="black" points="0,-1232.5 0,-1420.5 879,-1420.5 879,-1232.5 0,-1232.5"/>
<text text-anchor="start" x="8" y="-1405.3" font-family="Times,serif" font-size="14.00">v1 = g3</text>
<text text-anchor="start" x="8" y="-1390.3" font-family="Times,serif" font-size="14.00"> g3 = PtrToIntCastExpr&lt;int32&gt;(a1)</text>
<text text-anchor="start" x="8" y="-1375.3" font-family="Times,serif" font-size="14.00"> v2 = g7</text>
<text text-anchor="start" x="8" y="-1360.3" font-family="Times,serif" font-size="14.00"> v3</text>
<text text-anchor="start" x="8" y="-1345.3" font-family="Times,serif" font-size="14.00"> g7 = &amp;(v3)</text>
<text text-anchor="start" x="8" y="-1330.3" font-family="Times,serif" font-size="14.00"> v4 = g5</text>
<text text-anchor="start" x="8" y="-1315.3" font-family="Times,serif" font-size="14.00"> g5 = g4</text>
<text text-anchor="start" x="8" y="-1300.3" font-family="Times,serif" font-size="14.00"> *(a1) = 0</text>
<text text-anchor="start" x="8" y="-1285.3" font-family="Times,serif" font-size="14.00"> *(IntToPtrCastExpr&lt;ptr&gt;((g3 + 4))) = 0</text>
<text text-anchor="start" x="8" y="-1270.3" font-family="Times,serif" font-size="14.00"> *(IntToPtrCastExpr&lt;ptr&gt;((g3 + 8))) = 0</text>
<text text-anchor="start" x="8" y="-1255.3" font-family="Times,serif" font-size="14.00"> v5 = mbedtls_asn1_get_alg(IntToPtrCastExpr&lt;ptr&gt;(g1), g6, IntToPtrCastExpr&lt;ptr&gt;(g7), IntToPtrCastExpr&lt;ptr&gt;(g3))</text>
<text text-anchor="start" x="8" y="-1240.3" font-family="Times,serif" font-size="14.00"> result</text>
</g>
<!-- Node0x18f28ff0&#45;&gt;Node0x18f2b3a0 -->
<g id="edge1" class="edge"><title>Node0x18f28ff0&#45;&gt;Node0x18f2b3a0</title>
<path fill="none" stroke="black" d="M439.5,-1458.31C439.5,-1450.05 439.5,-1440.74 439.5,-1431"/>
<polygon fill="black" stroke="black" points="443,-1430.71 439.5,-1420.71 436,-1430.71 443,-1430.71"/>
</g>
<!-- Node0x18f2b340 -->
<g id="node3" class="node"><title>Node0x18f2b340</title>
<polygon fill="none" stroke="black" points="387,-1156.5 387,-1194.5 492,-1194.5 492,-1156.5 387,-1156.5"/>
<text text-anchor="start" x="395" y="-1179.3" font-family="Times,serif" font-size="14.00">if (v5 == 0):</text>
<text text-anchor="start" x="395" y="-1164.3" font-family="Times,serif" font-size="14.00"> else:</text>
</g>
<!-- Node0x18f2b3a0&#45;&gt;Node0x18f2b340 -->
<g id="edge2" class="edge"><title>Node0x18f2b3a0&#45;&gt;Node0x18f2b340</title>
<path fill="none" stroke="black" d="M439.5,-1232.41C439.5,-1222.43 439.5,-1212.92 439.5,-1204.67"/>
<polygon fill="black" stroke="black" points="443,-1204.62 439.5,-1194.62 436,-1204.62 443,-1204.62"/>
</g>
<!-- Node0x18f2b8c0 -->
<g id="node4" class="node"><title>Node0x18f2b8c0</title>
<polygon fill="none" stroke="black" points="384,-1066.5 384,-1104.5 851,-1104.5 851,-1066.5 384,-1066.5"/>
<text text-anchor="start" x="392" y="-1089.3" font-family="Times,serif" font-size="14.00">v6 = mbedtls_oid_get_pk_alg(g7, IntToPtrCastExpr&lt;ptr&gt;(g5))</text>
<text text-anchor="start" x="392" y="-1074.3" font-family="Times,serif" font-size="14.00"> g6 = v6</text>
</g>
<!-- Node0x18f2b340&#45;&gt;Node0x18f2b8c0 -->
<g id="edge3" class="edge"><title>Node0x18f2b340&#45;&gt;Node0x18f2b8c0</title>
<path fill="none" stroke="black" d="M475.95,-1156.48C503.576,-1142.82 541.725,-1123.96 571.459,-1109.26"/>
<polygon fill="black" stroke="black" points="573.38,-1112.22 580.793,-1104.65 570.277,-1105.94 573.38,-1112.22"/>
<text text-anchor="middle" x="569.5" y="-1126.8" font-family="Times,serif" font-size="14.00">v5 == 0</text>
</g>
<!-- Node0x18f2bce0 -->
<g id="node5" class="node"><title>Node0x18f2bce0</title>
<polygon fill="none" stroke="black" points="270.5,-1009.5 270.5,-1047.5 440.5,-1047.5 440.5,-1009.5 270.5,-1009.5"/>
<text text-anchor="start" x="278.5" y="-1032.3" font-family="Times,serif" font-size="14.00">0x804dbe3:</text>
<text text-anchor="start" x="278.5" y="-1017.3" font-family="Times,serif" font-size="14.00"> result = (v5 &#45; 14976)</text>
</g>
<!-- Node0x18f2b340&#45;&gt;Node0x18f2bce0 -->
<g id="edge4" class="edge"><title>Node0x18f2b340&#45;&gt;Node0x18f2bce0</title>
<path fill="none" stroke="black" d="M417.446,-1156.29C403.19,-1143.38 385.336,-1124.87 374.5,-1105 366.533,-1090.39 361.835,-1072.37 359.103,-1057.6"/>
<polygon fill="black" stroke="black" points="362.521,-1056.81 357.444,-1047.51 355.614,-1057.95 362.521,-1056.81"/>
<text text-anchor="middle" x="426.5" y="-1126.8" font-family="Times,serif" font-size="14.00">v5 != 0</text>
</g>
<!-- Node0x18f2b940 -->
<g id="node6" class="node"><title>Node0x18f2b940</title>
<polygon fill="none" stroke="black" points="565,-954.5 565,-990.5 670,-990.5 670,-954.5 565,-954.5"/>
<text text-anchor="start" x="573" y="-968.8" font-family="Times,serif" font-size="14.00">if (v6 == 0):</text>
</g>
<!-- Node0x18f2b8c0&#45;&gt;Node0x18f2b940 -->
<g id="edge5" class="edge"><title>Node0x18f2b8c0&#45;&gt;Node0x18f2b940</title>
<path fill="none" stroke="black" d="M617.5,-1066.17C617.5,-1048.42 617.5,-1021.29 617.5,-1000.97"/>
<polygon fill="black" stroke="black" points="621,-1000.76 617.5,-990.76 614,-1000.76 621,-1000.76"/>
</g>
<!-- Node0x18f2b7d0 -->
<g id="node7" class="node"><title>Node0x18f2b7d0</title>
<polygon fill="none" stroke="black" points="319,-729.5 319,-812.5 432,-812.5 432,-729.5 319,-729.5"/>
<text text-anchor="start" x="327" y="-797.3" font-family="Times,serif" font-size="14.00">0x804dbe8:</text>
<text text-anchor="start" x="327" y="-782.3" font-family="Times,serif" font-size="14.00"> g3 = v1</text>
<text text-anchor="start" x="327" y="-767.3" font-family="Times,serif" font-size="14.00"> g7 = v2</text>
<text text-anchor="start" x="327" y="-752.3" font-family="Times,serif" font-size="14.00"> g5 = v4</text>
<text text-anchor="start" x="327" y="-737.3" font-family="Times,serif" font-size="14.00"> return result</text>
</g>
<!-- Node0x18f2bce0&#45;&gt;Node0x18f2b7d0 -->
<g id="edge6" class="edge"><title>Node0x18f2bce0&#45;&gt;Node0x18f2b7d0</title>
<path fill="none" stroke="black" d="M356.938,-1009.13C359.949,-970.67 367.005,-880.528 371.498,-823.125"/>
<polygon fill="black" stroke="black" points="375.015,-823.05 372.306,-812.807 368.036,-822.503 375.015,-823.05"/>
</g>
<!-- Node0x18f2b830 -->
<g id="node8" class="node"><title>Node0x18f2b830</title>
<polygon fill="none" stroke="black" points="531.5,-864.5 531.5,-902.5 837.5,-902.5 837.5,-864.5 531.5,-864.5"/>
<text text-anchor="start" x="539.5" y="-887.3" font-family="Times,serif" font-size="14.00">0x804dc0f:</text>
<text text-anchor="start" x="539.5" y="-872.3" font-family="Times,serif" font-size="14.00"> if (*(IntToPtrCastExpr&lt;ptr&gt;(g5)) != 1):</text>
</g>
<!-- Node0x18f2b940&#45;&gt;Node0x18f2b830 -->
<g id="edge7" class="edge"><title>Node0x18f2b940&#45;&gt;Node0x18f2b830</title>
<path fill="none" stroke="black" d="M630.737,-954.312C640.365,-941.81 653.569,-924.664 664.482,-910.493"/>
<polygon fill="black" stroke="black" points="667.27,-912.61 670.598,-902.551 661.724,-908.339 667.27,-912.61"/>
<text text-anchor="middle" x="685.5" y="-924.8" font-family="Times,serif" font-size="14.00">v6 == 0</text>
</g>
<!-- Node0x18f2bc80 -->
<g id="node9" class="node"><title>Node0x18f2bc80</title>
<polygon fill="none" stroke="black" points="384,-865.5 384,-901.5 513,-901.5 513,-865.5 384,-865.5"/>
<text text-anchor="start" x="392" y="-879.8" font-family="Times,serif" font-size="14.00">result = &#45;15488</text>
</g>
<!-- Node0x18f2b940&#45;&gt;Node0x18f2bc80 -->
<g id="edge8" class="edge"><title>Node0x18f2b940&#45;&gt;Node0x18f2bc80</title>
<path fill="none" stroke="black" d="M584.111,-954.312C557.29,-940.504 519.463,-921.031 490.573,-906.159"/>
<polygon fill="black" stroke="black" points="492.025,-902.97 481.532,-901.504 488.821,-909.193 492.025,-902.97"/>
<text text-anchor="middle" x="575.5" y="-924.8" font-family="Times,serif" font-size="14.00">v6 != 0</text>
</g>
<!-- Node0x18f2a190 -->
<g id="node10" class="node"><title>Node0x18f2a190</title>
<polygon fill="none" stroke="black" points="460.5,-23.5 460.5,-59.5 514.5,-59.5 514.5,-23.5 460.5,-23.5"/>
<text text-anchor="start" x="468.5" y="-37.8" font-family="Times,serif" font-size="14.00">exit:</text>
</g>
<!-- Node0x18f2b7d0&#45;&gt;Node0x18f2a190 -->
<g id="edge9" class="edge"><title>Node0x18f2b7d0&#45;&gt;Node0x18f2a190</title>
<path fill="none" stroke="black" d="M379.082,-729.272C381.951,-693.116 385.5,-638.833 385.5,-591.5 385.5,-591.5 385.5,-591.5 385.5,-138 385.5,-100.897 421.909,-74.0402 451.221,-58.4299"/>
<polygon fill="black" stroke="black" points="453.098,-61.4025 460.434,-53.7581 449.932,-55.1594 453.098,-61.4025"/>
</g>
<!-- Node0x18f2ce60 -->
<g id="node11" class="node"><title>Node0x18f2ce60</title>
<polygon fill="none" stroke="black" points="410,-627.5 410,-710.5 511,-710.5 511,-627.5 410,-627.5"/>
<text text-anchor="start" x="418" y="-695.3" font-family="Times,serif" font-size="14.00">0x804dbe8:</text>
<text text-anchor="start" x="418" y="-680.3" font-family="Times,serif" font-size="14.00"> g3 = v1</text>
<text text-anchor="start" x="418" y="-665.3" font-family="Times,serif" font-size="14.00"> g7 = v2</text>
<text text-anchor="start" x="418" y="-650.3" font-family="Times,serif" font-size="14.00"> g5 = v4</text>
<text text-anchor="start" x="418" y="-635.3" font-family="Times,serif" font-size="14.00"> return 0</text>
</g>
<!-- Node0x18f2b830&#45;&gt;Node0x18f2ce60 -->
<g id="edge10" class="edge"><title>Node0x18f2b830&#45;&gt;Node0x18f2ce60</title>
<path fill="none" stroke="black" d="M531.407,-865.311C494.278,-859.631 463.438,-852.969 457.5,-846 441.976,-827.78 446.574,-765.956 452.481,-720.714"/>
<polygon fill="black" stroke="black" points="455.955,-721.14 453.836,-710.76 449.019,-720.196 455.955,-721.14"/>
<text text-anchor="middle" x="585.5" y="-834.8" font-family="Times,serif" font-size="14.00">*(IntToPtrCastExpr&lt;ptr&gt;(g5)) != 1</text>
</g>
<!-- Node0x18f2c180 -->
<g id="node12" class="node"><title>Node0x18f2c180</title>
<polygon fill="none" stroke="black" points="602,-753 602,-789 877,-789 877,-753 602,-753"/>
<text text-anchor="start" x="610" y="-767.3" font-family="Times,serif" font-size="14.00">v7 = *(IntToPtrCastExpr&lt;ptr&gt;(g3))</text>
</g>
<!-- Node0x18f2b830&#45;&gt;Node0x18f2c180 -->
<g id="edge11" class="edge"><title>Node0x18f2b830&#45;&gt;Node0x18f2c180</title>
<path fill="none" stroke="black" d="M703.724,-864.441C708.766,-858.914 713.817,-852.553 717.5,-846 725.69,-831.427 731.122,-813.488 734.539,-798.923"/>
<polygon fill="black" stroke="black" points="737.99,-799.523 736.682,-789.01 731.148,-798.045 737.99,-799.523"/>
<text text-anchor="middle" x="855.5" y="-834.8" font-family="Times,serif" font-size="14.00">*(IntToPtrCastExpr&lt;ptr&gt;(g5)) == 1</text>
</g>
<!-- Node0x18f2bc80&#45;&gt;Node0x18f2b7d0 -->
<g id="edge12" class="edge"><title>Node0x18f2bc80&#45;&gt;Node0x18f2b7d0</title>
<path fill="none" stroke="black" d="M437.094,-865.234C429.244,-853.352 418.393,-836.928 407.984,-821.171"/>
<polygon fill="black" stroke="black" points="410.7,-818.933 402.268,-812.519 404.86,-822.792 410.7,-818.933"/>
</g>
<!-- Node0x18f2ce60&#45;&gt;Node0x18f2a190 -->
<g id="edge13" class="edge"><title>Node0x18f2ce60&#45;&gt;Node0x18f2a190</title>
<path fill="none" stroke="black" d="M459.994,-627.284C459.746,-603.933 459.5,-574.069 459.5,-547.5 459.5,-547.5 459.5,-547.5 459.5,-138 459.5,-113.981 467.757,-87.887 475.303,-69.0542"/>
<polygon fill="black" stroke="black" points="478.604,-70.2331 479.251,-59.658 472.15,-67.5216 478.604,-70.2331"/>
</g>
<!-- Node0xa445070 -->
<g id="node13" class="node"><title>Node0xa445070</title>
<polygon fill="none" stroke="black" points="690,-572.5 690,-608.5 789,-608.5 789,-572.5 690,-572.5"/>
<text text-anchor="start" x="698" y="-586.8" font-family="Times,serif" font-size="14.00">if (v7 != 0):</text>
</g>
<!-- Node0x18f2c180&#45;&gt;Node0xa445070 -->
<g id="edge14" class="edge"><title>Node0x18f2c180&#45;&gt;Node0xa445070</title>
<path fill="none" stroke="black" d="M739.5,-752.885C739.5,-721.831 739.5,-655.979 739.5,-618.705"/>
<polygon fill="black" stroke="black" points="743,-618.563 739.5,-608.564 736,-618.564 743,-618.563"/>
</g>
<!-- Node0x18f2d000 -->
<g id="node14" class="node"><title>Node0x18f2d000</title>
<polygon fill="none" stroke="black" points="600.5,-482.5 600.5,-520.5 704.5,-520.5 704.5,-482.5 600.5,-482.5"/>
<text text-anchor="start" x="608.5" y="-505.3" font-family="Times,serif" font-size="14.00">0x804dc1e:</text>
<text text-anchor="start" x="608.5" y="-490.3" font-family="Times,serif" font-size="14.00"> if (v7 != 5):</text>
</g>
<!-- Node0xa445070&#45;&gt;Node0x18f2d000 -->
<g id="edge15" class="edge"><title>Node0xa445070&#45;&gt;Node0x18f2d000</title>
<path fill="none" stroke="black" d="M696.223,-572.418C687.529,-567.478 679.062,-561.377 672.5,-554 666.608,-547.377 662.364,-538.823 659.345,-530.597"/>
<polygon fill="black" stroke="black" points="662.618,-529.338 656.243,-520.876 655.949,-531.467 662.618,-529.338"/>
<text text-anchor="middle" x="699.5" y="-542.8" font-family="Times,serif" font-size="14.00">v7 != 0</text>
</g>
<!-- Node0x18f2c380 -->
<g id="node15" class="node"><title>Node0x18f2c380</title>
<polygon fill="none" stroke="black" points="564,-377.5 564,-430.5 917,-430.5 917,-377.5 564,-377.5"/>
<text text-anchor="start" x="572" y="-415.3" font-family="Times,serif" font-size="14.00">0x804dc2a:</text>
<text text-anchor="start" x="572" y="-400.3" font-family="Times,serif" font-size="14.00"> if (*(IntToPtrCastExpr&lt;ptr&gt;((g3 + 4))) == 0):</text>
<text text-anchor="start" x="572" y="-385.3" font-family="Times,serif" font-size="14.00"> else:</text>
</g>
<!-- Node0xa445070&#45;&gt;Node0x18f2c380 -->
<g id="edge16" class="edge"><title>Node0xa445070&#45;&gt;Node0x18f2c380</title>
<path fill="none" stroke="black" d="M739.592,-572.473C739.754,-542.665 740.091,-480.435 740.306,-440.797"/>
<polygon fill="black" stroke="black" points="743.806,-440.77 740.36,-430.751 736.806,-440.732 743.806,-440.77"/>
<text text-anchor="middle" x="770.5" y="-497.8" font-family="Times,serif" font-size="14.00">v7 == 0</text>
</g>
<!-- Node0x18f2d000&#45;&gt;Node0x18f2c380 -->
<g id="edge18" class="edge"><title>Node0x18f2d000&#45;&gt;Node0x18f2c380</title>
<path fill="none" stroke="black" d="M654.039,-482.323C655.715,-471.72 659.211,-458.59 666.5,-449 669.835,-444.612 673.745,-440.575 677.994,-436.879"/>
<polygon fill="black" stroke="black" points="680.278,-439.536 685.96,-430.593 675.942,-434.041 680.278,-439.536"/>
<text text-anchor="middle" x="696.5" y="-452.8" font-family="Times,serif" font-size="14.00">v7 == 5</text>
</g>
<!-- Node0x18f29950 -->
<g id="node16" class="node"><title>Node0x18f29950</title>
<polygon fill="none" stroke="black" points="475,-275.5 475,-358.5 596,-358.5 596,-275.5 475,-275.5"/>
<text text-anchor="start" x="483" y="-343.3" font-family="Times,serif" font-size="14.00">0x804dbe8:</text>
<text text-anchor="start" x="483" y="-328.3" font-family="Times,serif" font-size="14.00"> g3 = v1</text>
<text text-anchor="start" x="483" y="-313.3" font-family="Times,serif" font-size="14.00"> g7 = v2</text>
<text text-anchor="start" x="483" y="-298.3" font-family="Times,serif" font-size="14.00"> g5 = v4</text>
<text text-anchor="start" x="483" y="-283.3" font-family="Times,serif" font-size="14.00"> return &#45;14976</text>
</g>
<!-- Node0x18f2d000&#45;&gt;Node0x18f29950 -->
<g id="edge17" class="edge"><title>Node0x18f2d000&#45;&gt;Node0x18f29950</title>
<path fill="none" stroke="black" d="M613.649,-482.437C592.805,-470.72 568.577,-453.44 554.5,-431 542.969,-412.619 537.815,-389.388 535.697,-368.777"/>
<polygon fill="black" stroke="black" points="539.168,-368.273 534.868,-358.59 532.191,-368.841 539.168,-368.273"/>
<text text-anchor="middle" x="612.5" y="-452.8" font-family="Times,serif" font-size="14.00">v7 != 5</text>
</g>
<!-- Node0x9021f10 -->
<g id="node17" class="node"><title>Node0x9021f10</title>
<polygon fill="none" stroke="black" points="569,-218.5 569,-256.5 670,-256.5 670,-218.5 569,-218.5"/>
<text text-anchor="start" x="577" y="-241.3" font-family="Times,serif" font-size="14.00">0x804dc30:</text>
<text text-anchor="start" x="577" y="-226.3" font-family="Times,serif" font-size="14.00"> result = 0</text>
</g>
<!-- Node0x18f2c380&#45;&gt;Node0x9021f10 -->
<g id="edge19" class="edge"><title>Node0x18f2c380&#45;&gt;Node0x9021f10</title>
<path fill="none" stroke="black" d="M635.335,-377.438C628.091,-372.358 621.639,-366.277 616.5,-359 597.53,-332.139 602.979,-292.851 610.016,-266.514"/>
<polygon fill="black" stroke="black" points="613.419,-267.349 612.85,-256.769 606.697,-265.394 613.419,-267.349"/>
<text text-anchor="middle" x="768" y="-313.3" font-family="Times,serif" font-size="14.00">*(IntToPtrCastExpr&lt;ptr&gt;((g3 + 4))) == 0</text>
</g>
<!-- Node0xc42ff10 -->
<g id="node18" class="node"><title>Node0xc42ff10</title>
<polygon fill="none" stroke="black" points="783.5,-218.5 783.5,-256.5 917.5,-256.5 917.5,-218.5 783.5,-218.5"/>
<text text-anchor="start" x="791.5" y="-241.3" font-family="Times,serif" font-size="14.00">0x804dc23:</text>
<text text-anchor="start" x="791.5" y="-226.3" font-family="Times,serif" font-size="14.00"> result = &#45;14976</text>
</g>
<!-- Node0x18f2c380&#45;&gt;Node0xc42ff10 -->
<g id="edge20" class="edge"><title>Node0x18f2c380&#45;&gt;Node0xc42ff10</title>
<path fill="none" stroke="black" d="M891.098,-377.413C906.107,-372.224 917.887,-366.122 923.5,-359 946.608,-329.678 943.127,-306.758 923.5,-275 920.567,-270.254 916.809,-266.104 912.55,-262.48"/>
<polygon fill="black" stroke="black" points="914.544,-259.602 904.411,-256.508 910.403,-265.246 914.544,-259.602"/>
<text text-anchor="middle" x="1088" y="-313.3" font-family="Times,serif" font-size="14.00">*(IntToPtrCastExpr&lt;ptr&gt;((g3 + 4))) != 0</text>
</g>
<!-- Node0x18f29950&#45;&gt;Node0x18f2a190 -->
<g id="edge21" class="edge"><title>Node0x18f29950&#45;&gt;Node0x18f2a190</title>
<path fill="none" stroke="black" d="M528.366,-275.35C518.435,-218.767 500.716,-117.801 492.253,-69.5828"/>
<polygon fill="black" stroke="black" points="495.675,-68.8341 490.499,-59.5897 488.781,-70.0442 495.675,-68.8341"/>
</g>
<!-- Node0x18f2ce00 -->
<g id="node19" class="node"><title>Node0x18f2ce00</title>
<polygon fill="none" stroke="black" points="563,-97.5 563,-180.5 676,-180.5 676,-97.5 563,-97.5"/>
<text text-anchor="start" x="571" y="-165.3" font-family="Times,serif" font-size="14.00">0x804dbe8:</text>
<text text-anchor="start" x="571" y="-150.3" font-family="Times,serif" font-size="14.00"> g3 = v1</text>
<text text-anchor="start" x="571" y="-135.3" font-family="Times,serif" font-size="14.00"> g7 = v2</text>
<text text-anchor="start" x="571" y="-120.3" font-family="Times,serif" font-size="14.00"> g5 = v4</text>
<text text-anchor="start" x="571" y="-105.3" font-family="Times,serif" font-size="14.00"> return result</text>
</g>
<!-- Node0x9021f10&#45;&gt;Node0x18f2ce00 -->
<g id="edge22" class="edge"><title>Node0x9021f10&#45;&gt;Node0x18f2ce00</title>
<path fill="none" stroke="black" d="M619.5,-218.349C619.5,-210.488 619.5,-200.852 619.5,-191.061"/>
<polygon fill="black" stroke="black" points="623,-190.87 619.5,-180.87 616,-190.87 623,-190.87"/>
</g>
<!-- Node0xc42ff10&#45;&gt;Node0x18f2ce00 -->
<g id="edge23" class="edge"><title>Node0xc42ff10&#45;&gt;Node0x18f2ce00</title>
<path fill="none" stroke="black" d="M807.322,-218.462C773.133,-204.18 724.797,-183.988 685.722,-167.664"/>
<polygon fill="black" stroke="black" points="686.578,-164.229 676.002,-163.604 683.88,-170.688 686.578,-164.229"/>
</g>
<!-- Node0x18f2ce00&#45;&gt;Node0x18f2a190 -->
<g id="edge24" class="edge"><title>Node0x18f2ce00&#45;&gt;Node0x18f2a190</title>
<path fill="none" stroke="black" d="M563.52,-97.4994C548.418,-86.5734 532.6,-75.129 519.327,-65.5266"/>
<polygon fill="black" stroke="black" points="521.16,-62.5324 511.006,-59.5064 517.057,-68.2037 521.16,-62.5324"/>
</g>
</g>
</svg>
