<?xml version="1.0" encoding="UTF-8" standalone="no"?>
<!DOCTYPE svg PUBLIC "-//W3C//DTD SVG 1.1//EN"
 "http://www.w3.org/Graphics/SVG/1.1/DTD/svg11.dtd">
<!-- Generated by graphviz version 2.38.0 (20140413.2041)
 -->
<!-- Title: Control&#45;flow graph for function &#39;camellia_crypt_ecb_wrap(a1)&#39;. Pages: 1 -->
<svg width="681pt" height="278pt"
 viewBox="0.00 0.00 681.00 278.00" xmlns="http://www.w3.org/2000/svg" xmlns:xlink="http://www.w3.org/1999/xlink">
<g id="graph0" class="graph" transform="scale(1 1) rotate(0) translate(4 274)">
<title>Control&#45;flow graph for function &#39;camellia_crypt_ecb_wrap(a1)&#39;.</title>
<polygon fill="white" stroke="none" points="-4,4 -4,-274 677,-274 677,4 -4,4"/>
<text text-anchor="middle" x="336.5" y="-7.8" font-family="Times,serif" font-size="14.00">Control&#45;flow graph for function &#39;camellia_crypt_ecb_wrap(a1)&#39;.</text>
<!-- Node0x26310b20 -->
<g id="node1" class="node"><title>Node0x26310b20</title>
<polygon fill="none" stroke="black" points="307,-231.5 307,-269.5 366,-269.5 366,-231.5 307,-231.5"/>
<text text-anchor="start" x="315" y="-254.3" font-family="Times,serif" font-size="14.00">entry:</text>
<text text-anchor="start" x="315" y="-239.3" font-family="Times,serif" font-size="14.00"> a1</text>
</g>
<!-- Node0x257ad580 -->
<g id="node2" class="node"><title>Node0x257ad580</title>
<polygon fill="none" stroke="black" points="0,-96.5 0,-194.5 673,-194.5 673,-96.5 0,-96.5"/>
<text text-anchor="start" x="8" y="-179.3" font-family="Times,serif" font-size="14.00">0x806a7e0:</text>
<text text-anchor="start" x="8" y="-164.3" font-family="Times,serif" font-size="14.00"> v1</text>
<text text-anchor="start" x="8" y="-149.3" font-family="Times,serif" font-size="14.00"> v2</text>
<text text-anchor="start" x="8" y="-134.3" font-family="Times,serif" font-size="14.00"> mbedtls_camellia_crypt_ecb(IntToPtrCastExpr&lt;ptr&gt;(v2), v1, IntToPtrCastExpr&lt;ptr&gt;(a1))</text>
<text text-anchor="start" x="8" y="-119.3" font-family="Times,serif" font-size="14.00"> g1 = 0</text>
<text text-anchor="start" x="8" y="-104.3" font-family="Times,serif" font-size="14.00"> return 0</text>
</g>
<!-- Node0x26310b20&#45;&gt;Node0x257ad580 -->
<g id="edge1" class="edge"><title>Node0x26310b20&#45;&gt;Node0x257ad580</title>
<path fill="none" stroke="black" d="M336.5,-231.086C336.5,-223.607 336.5,-214.513 336.5,-205.097"/>
<polygon fill="black" stroke="black" points="340,-204.814 336.5,-194.814 333,-204.815 340,-204.814"/>
</g>
<!-- Node0x1d996e10 -->
<g id="node3" class="node"><title>Node0x1d996e10</title>
<polygon fill="none" stroke="black" points="309.5,-23.5 309.5,-59.5 363.5,-59.5 363.5,-23.5 309.5,-23.5"/>
<text text-anchor="start" x="317.5" y="-37.8" font-family="Times,serif" font-size="14.00">exit:</text>
</g>
<!-- Node0x257ad580&#45;&gt;Node0x1d996e10 -->
<g id="edge2" class="edge"><title>Node0x257ad580&#45;&gt;Node0x1d996e10</title>
<path fill="none" stroke="black" d="M336.5,-96.4868C336.5,-87.2893 336.5,-77.9618 336.5,-69.7064"/>
<polygon fill="black" stroke="black" points="340,-69.5725 336.5,-59.5725 333,-69.5725 340,-69.5725"/>
</g>
</g>
</svg>
