<?xml version="1.0" encoding="UTF-8" standalone="no"?>
<!DOCTYPE svg PUBLIC "-//W3C//DTD SVG 1.1//EN"
 "http://www.w3.org/Graphics/SVG/1.1/DTD/svg11.dtd">
<!-- Generated by graphviz version 2.38.0 (20140413.2041)
 -->
<!-- Title: Control&#45;flow graph for function &#39;function_804bce7(a1)&#39;. Pages: 1 -->
<svg width="420pt" height="218pt"
 viewBox="0.00 0.00 420.00 218.00" xmlns="http://www.w3.org/2000/svg" xmlns:xlink="http://www.w3.org/1999/xlink">
<g id="graph0" class="graph" transform="scale(1 1) rotate(0) translate(4 214)">
<title>Control&#45;flow graph for function &#39;function_804bce7(a1)&#39;.</title>
<polygon fill="white" stroke="none" points="-4,4 -4,-214 416,-214 416,4 -4,4"/>
<text text-anchor="middle" x="206" y="-7.8" font-family="Times,serif" font-size="14.00">Control&#45;flow graph for function &#39;function_804bce7(a1)&#39;.</text>
<!-- Node0x194ccac0 -->
<g id="node1" class="node"><title>Node0x194ccac0</title>
<polygon fill="none" stroke="black" points="176.5,-171.5 176.5,-209.5 235.5,-209.5 235.5,-171.5 176.5,-171.5"/>
<text text-anchor="start" x="184.5" y="-194.3" font-family="Times,serif" font-size="14.00">entry:</text>
<text text-anchor="start" x="184.5" y="-179.3" font-family="Times,serif" font-size="14.00"> a1</text>
</g>
<!-- Node0x20820a60 -->
<g id="node2" class="node"><title>Node0x20820a60</title>
<polygon fill="none" stroke="black" points="156,-96.5 156,-134.5 256,-134.5 256,-96.5 156,-96.5"/>
<text text-anchor="start" x="164" y="-119.3" font-family="Times,serif" font-size="14.00">0x804bce7:</text>
<text text-anchor="start" x="164" y="-104.3" font-family="Times,serif" font-size="14.00"> return g7</text>
</g>
<!-- Node0x194ccac0&#45;&gt;Node0x20820a60 -->
<g id="edge1" class="edge"><title>Node0x194ccac0&#45;&gt;Node0x20820a60</title>
<path fill="none" stroke="black" d="M206,-171.455C206,-163.383 206,-153.676 206,-144.682"/>
<polygon fill="black" stroke="black" points="209.5,-144.59 206,-134.59 202.5,-144.59 209.5,-144.59"/>
</g>
<!-- Node0xa87f1f0 -->
<g id="node3" class="node"><title>Node0xa87f1f0</title>
<polygon fill="none" stroke="black" points="179,-23.5 179,-59.5 233,-59.5 233,-23.5 179,-23.5"/>
<text text-anchor="start" x="187" y="-37.8" font-family="Times,serif" font-size="14.00">exit:</text>
</g>
<!-- Node0x20820a60&#45;&gt;Node0xa87f1f0 -->
<g id="edge2" class="edge"><title>Node0x20820a60&#45;&gt;Node0xa87f1f0</title>
<path fill="none" stroke="black" d="M206,-96.3314C206,-88.394 206,-78.9095 206,-70.1285"/>
<polygon fill="black" stroke="black" points="209.5,-69.9177 206,-59.9177 202.5,-69.9177 209.5,-69.9177"/>
</g>
</g>
</svg>
