<?xml version="1.0" encoding="UTF-8" standalone="no"?>
<!DOCTYPE svg PUBLIC "-//W3C//DTD SVG 1.1//EN"
 "http://www.w3.org/Graphics/SVG/1.1/DTD/svg11.dtd">
<!-- Generated by graphviz version 2.38.0 (20140413.2041)
 -->
<!-- Title: Control&#45;flow graph for function &#39;function_8070b8d()&#39;. Pages: 1 -->
<svg width="404pt" height="231pt"
 viewBox="0.00 0.00 404.00 231.00" xmlns="http://www.w3.org/2000/svg" xmlns:xlink="http://www.w3.org/1999/xlink">
<g id="graph0" class="graph" transform="scale(1 1) rotate(0) translate(4 227)">
<title>Control&#45;flow graph for function &#39;function_8070b8d()&#39;.</title>
<polygon fill="white" stroke="none" points="-4,4 -4,-227 400,-227 400,4 -4,4"/>
<text text-anchor="middle" x="198" y="-7.8" font-family="Times,serif" font-size="14.00">Control&#45;flow graph for function &#39;function_8070b8d()&#39;.</text>
<!-- Node0x194c69c0 -->
<g id="node1" class="node"><title>Node0x194c69c0</title>
<polygon fill="none" stroke="black" points="168.5,-186.5 168.5,-222.5 227.5,-222.5 227.5,-186.5 168.5,-186.5"/>
<text text-anchor="start" x="176.5" y="-200.8" font-family="Times,serif" font-size="14.00">entry:</text>
</g>
<!-- Node0x194c1ab0 -->
<g id="node2" class="node"><title>Node0x194c1ab0</title>
<polygon fill="none" stroke="black" points="119,-96.5 119,-149.5 277,-149.5 277,-96.5 119,-96.5"/>
<text text-anchor="start" x="127" y="-134.3" font-family="Times,serif" font-size="14.00">0x8070b8d:</text>
<text text-anchor="start" x="127" y="-119.3" font-family="Times,serif" font-size="14.00"> abort()</text>
<text text-anchor="start" x="127" y="-104.3" font-family="Times,serif" font-size="14.00"> # UNREACHABLE</text>
</g>
<!-- Node0x194c69c0&#45;&gt;Node0x194c1ab0 -->
<g id="edge1" class="edge"><title>Node0x194c69c0&#45;&gt;Node0x194c1ab0</title>
<path fill="none" stroke="black" d="M198,-186.25C198,-178.486 198,-169.014 198,-159.825"/>
<polygon fill="black" stroke="black" points="201.5,-159.676 198,-149.676 194.5,-159.676 201.5,-159.676"/>
</g>
<!-- Node0x194c1a50 -->
<g id="node3" class="node"><title>Node0x194c1a50</title>
<polygon fill="none" stroke="black" points="171,-23.5 171,-59.5 225,-59.5 225,-23.5 171,-23.5"/>
<text text-anchor="start" x="179" y="-37.8" font-family="Times,serif" font-size="14.00">exit:</text>
</g>
<!-- Node0x194c1ab0&#45;&gt;Node0x194c1a50 -->
<g id="edge2" class="edge"><title>Node0x194c1ab0&#45;&gt;Node0x194c1a50</title>
<path fill="none" stroke="black" d="M198,-96.4081C198,-87.9823 198,-78.5803 198,-70.0174"/>
<polygon fill="black" stroke="black" points="201.5,-69.7564 198,-59.7564 194.5,-69.7565 201.5,-69.7564"/>
</g>
</g>
</svg>
