<?xml version="1.0" encoding="UTF-8" standalone="no"?>
<!DOCTYPE svg PUBLIC "-//W3C//DTD SVG 1.1//EN"
 "http://www.w3.org/Graphics/SVG/1.1/DTD/svg11.dtd">
<!-- Generated by graphviz version 2.38.0 (20140413.2041)
 -->
<!-- Title: Control&#45;flow graph for function &#39;mpi_miller_rabin(a1, a2, a3)&#39;. Pages: 1 -->
<svg width="1877pt" height="3423pt"
 viewBox="0.00 0.00 1876.50 3423.00" xmlns="http://www.w3.org/2000/svg" xmlns:xlink="http://www.w3.org/1999/xlink">
<g id="graph0" class="graph" transform="scale(1 1) rotate(0) translate(4 3419)">
<title>Control&#45;flow graph for function &#39;mpi_miller_rabin(a1, a2, a3)&#39;.</title>
<polygon fill="white" stroke="none" points="-4,4 -4,-3419 1872.5,-3419 1872.5,4 -4,4"/>
<text text-anchor="middle" x="934.25" y="-7.8" font-family="Times,serif" font-size="14.00">Control&#45;flow graph for function &#39;mpi_miller_rabin(a1, a2, a3)&#39;.</text>
<!-- Node0x153e0df0 -->
<g id="node1" class="node"><title>Node0x153e0df0</title>
<polygon fill="none" stroke="black" points="386,-3346.5 386,-3414.5 445,-3414.5 445,-3346.5 386,-3346.5"/>
<text text-anchor="start" x="394" y="-3399.3" font-family="Times,serif" font-size="14.00">entry:</text>
<text text-anchor="start" x="394" y="-3384.3" font-family="Times,serif" font-size="14.00"> a1</text>
<text text-anchor="start" x="394" y="-3369.3" font-family="Times,serif" font-size="14.00"> a2</text>
<text text-anchor="start" x="394" y="-3354.3" font-family="Times,serif" font-size="14.00"> a3</text>
</g>
<!-- Node0x153e0f80 -->
<g id="node2" class="node"><title>Node0x153e0f80</title>
<polygon fill="none" stroke="black" points="269,-3015.5 269,-3308.5 562,-3308.5 562,-3015.5 269,-3015.5"/>
<text text-anchor="start" x="277" y="-3293.3" font-family="Times,serif" font-size="14.00">v1 = g5</text>
<text text-anchor="start" x="277" y="-3278.3" font-family="Times,serif" font-size="14.00"> v2 = g7</text>
<text text-anchor="start" x="277" y="-3263.3" font-family="Times,serif" font-size="14.00"> v3 = g3</text>
<text text-anchor="start" x="277" y="-3248.3" font-family="Times,serif" font-size="14.00"> v4</text>
<text text-anchor="start" x="277" y="-3233.3" font-family="Times,serif" font-size="14.00"> v5 = &amp;(v4)</text>
<text text-anchor="start" x="277" y="-3218.3" font-family="Times,serif" font-size="14.00"> g5 = v5</text>
<text text-anchor="start" x="277" y="-3203.3" font-family="Times,serif" font-size="14.00"> v6 = g1</text>
<text text-anchor="start" x="277" y="-3188.3" font-family="Times,serif" font-size="14.00"> v7 = g6</text>
<text text-anchor="start" x="277" y="-3173.3" font-family="Times,serif" font-size="14.00"> v8 = g4</text>
<text text-anchor="start" x="277" y="-3158.3" font-family="Times,serif" font-size="14.00"> v4 = 1</text>
<text text-anchor="start" x="277" y="-3143.3" font-family="Times,serif" font-size="14.00"> v9 = 1</text>
<text text-anchor="start" x="277" y="-3128.3" font-family="Times,serif" font-size="14.00"> v10 = 1</text>
<text text-anchor="start" x="277" y="-3113.3" font-family="Times,serif" font-size="14.00"> v11 = 1</text>
<text text-anchor="start" x="277" y="-3098.3" font-family="Times,serif" font-size="14.00"> v12 = 1</text>
<text text-anchor="start" x="277" y="-3083.3" font-family="Times,serif" font-size="14.00"> v13 = mbedtls_mpi_sub_int(v5, v6, 1)</text>
<text text-anchor="start" x="277" y="-3068.3" font-family="Times,serif" font-size="14.00"> g1 = v13</text>
<text text-anchor="start" x="277" y="-3053.3" font-family="Times,serif" font-size="14.00"> v14</text>
<text text-anchor="start" x="277" y="-3038.3" font-family="Times,serif" font-size="14.00"> result</text>
<text text-anchor="start" x="277" y="-3023.3" font-family="Times,serif" font-size="14.00"> v15</text>
</g>
<!-- Node0x153e0df0&#45;&gt;Node0x153e0f80 -->
<g id="edge1" class="edge"><title>Node0x153e0df0&#45;&gt;Node0x153e0f80</title>
<path fill="none" stroke="black" d="M415.5,-3346.15C415.5,-3337.96 415.5,-3328.66 415.5,-3318.68"/>
<polygon fill="black" stroke="black" points="419,-3318.5 415.5,-3308.5 412,-3318.5 419,-3318.5"/>
</g>
<!-- Node0x20af9d60 -->
<g id="node3" class="node"><title>Node0x20af9d60</title>
<polygon fill="none" stroke="black" points="361.5,-2941.5 361.5,-2977.5 469.5,-2977.5 469.5,-2941.5 361.5,-2941.5"/>
<text text-anchor="start" x="369.5" y="-2955.8" font-family="Times,serif" font-size="14.00">if (v13 != 0):</text>
</g>
<!-- Node0x153e0f80&#45;&gt;Node0x20af9d60 -->
<g id="edge2" class="edge"><title>Node0x153e0f80&#45;&gt;Node0x20af9d60</title>
<path fill="none" stroke="black" d="M415.5,-3015.29C415.5,-3005.1 415.5,-2995.71 415.5,-2987.68"/>
<polygon fill="black" stroke="black" points="419,-2987.64 415.5,-2977.64 412,-2987.64 419,-2987.64"/>
</g>
<!-- Node0x13ead9e0 -->
<g id="node4" class="node"><title>Node0x13ead9e0</title>
<polygon fill="none" stroke="black" points="0,-2524.5 0,-2772.5 623,-2772.5 623,-2524.5 0,-2524.5"/>
<text text-anchor="start" x="8" y="-2757.3" font-family="Times,serif" font-size="14.00">0x8059d10:</text>
<text text-anchor="start" x="8" y="-2742.3" font-family="Times,serif" font-size="14.00"> g7 = &amp;(v11)</text>
<text text-anchor="start" x="8" y="-2727.3" font-family="Times,serif" font-size="14.00"> result = v13</text>
<text text-anchor="start" x="8" y="-2712.3" font-family="Times,serif" font-size="14.00"> v14 = &amp;(v12)</text>
<text text-anchor="start" x="8" y="-2697.3" font-family="Times,serif" font-size="14.00"> g1 = mbedtls_mpi_free(IntToPtrCastExpr&lt;ptr&gt;(g5))</text>
<text text-anchor="start" x="8" y="-2682.3" font-family="Times,serif" font-size="14.00"> g1 = mbedtls_mpi_free(IntToPtrCastExpr&lt;ptr&gt;(PtrToIntCastExpr&lt;int32&gt;(&amp;(v9))))</text>
<text text-anchor="start" x="8" y="-2667.3" font-family="Times,serif" font-size="14.00"> g1 = mbedtls_mpi_free(&amp;(v10))</text>
<text text-anchor="start" x="8" y="-2652.3" font-family="Times,serif" font-size="14.00"> g1 = mbedtls_mpi_free(IntToPtrCastExpr&lt;ptr&gt;(g7))</text>
<text text-anchor="start" x="8" y="-2637.3" font-family="Times,serif" font-size="14.00"> g6 = v14</text>
<text text-anchor="start" x="8" y="-2622.3" font-family="Times,serif" font-size="14.00"> mbedtls_mpi_free(IntToPtrCastExpr&lt;ptr&gt;(v14))</text>
<text text-anchor="start" x="8" y="-2607.3" font-family="Times,serif" font-size="14.00"> g1 = result</text>
<text text-anchor="start" x="8" y="-2592.3" font-family="Times,serif" font-size="14.00"> g3 = v3</text>
<text text-anchor="start" x="8" y="-2577.3" font-family="Times,serif" font-size="14.00"> g7 = v2</text>
<text text-anchor="start" x="8" y="-2562.3" font-family="Times,serif" font-size="14.00"> g5 = v1</text>
<text text-anchor="start" x="8" y="-2547.3" font-family="Times,serif" font-size="14.00"> g2 = v15</text>
<text text-anchor="start" x="8" y="-2532.3" font-family="Times,serif" font-size="14.00"> return result</text>
</g>
<!-- Node0x20af9d60&#45;&gt;Node0x13ead9e0 -->
<g id="edge3" class="edge"><title>Node0x20af9d60&#45;&gt;Node0x13ead9e0</title>
<path fill="none" stroke="black" d="M383.211,-2941.43C364.412,-2929.65 342.178,-2912.12 330.5,-2890 313.389,-2857.58 305.757,-2819.22 303.123,-2782.77"/>
<polygon fill="black" stroke="black" points="306.602,-2782.31 302.508,-2772.54 299.614,-2782.73 306.602,-2782.31"/>
<text text-anchor="middle" x="389" y="-2911.8" font-family="Times,serif" font-size="14.00">v13 != 0</text>
</g>
<!-- Node0x153dc440 -->
<g id="node5" class="node"><title>Node0x153dc440</title>
<polygon fill="none" stroke="black" points="339.5,-2791.5 339.5,-2889.5 947.5,-2889.5 947.5,-2791.5 339.5,-2791.5"/>
<text text-anchor="start" x="347.5" y="-2874.3" font-family="Times,serif" font-size="14.00">0x8059c4d:</text>
<text text-anchor="start" x="347.5" y="-2859.3" font-family="Times,serif" font-size="14.00"> g1 = 0</text>
<text text-anchor="start" x="347.5" y="-2844.3" font-family="Times,serif" font-size="14.00"> g3 = 0</text>
<text text-anchor="start" x="347.5" y="-2829.3" font-family="Times,serif" font-size="14.00"> v16 = &amp;(v9)</text>
<text text-anchor="start" x="347.5" y="-2814.3" font-family="Times,serif" font-size="14.00"> v17 = mbedtls_mpi_copy(BitCastExpr&lt;ptr&gt;(&amp;(v9)), IntToPtrCastExpr&lt;ptr&gt;(g5))</text>
<text text-anchor="start" x="347.5" y="-2799.3" font-family="Times,serif" font-size="14.00"> g1 = v17</text>
</g>
<!-- Node0x20af9d60&#45;&gt;Node0x153dc440 -->
<g id="edge4" class="edge"><title>Node0x20af9d60&#45;&gt;Node0x153dc440</title>
<path fill="none" stroke="black" d="M448.653,-2941.49C472.981,-2929 507.431,-2911.33 540.612,-2894.3"/>
<polygon fill="black" stroke="black" points="542.629,-2897.2 549.928,-2889.52 539.433,-2890.97 542.629,-2897.2"/>
<text text-anchor="middle" x="544" y="-2911.8" font-family="Times,serif" font-size="14.00">v13 == 0</text>
</g>
<!-- Node0x153ded70 -->
<g id="node6" class="node"><title>Node0x153ded70</title>
<polygon fill="none" stroke="black" points="532.5,-23.5 532.5,-59.5 586.5,-59.5 586.5,-23.5 532.5,-23.5"/>
<text text-anchor="start" x="540.5" y="-37.8" font-family="Times,serif" font-size="14.00">exit:</text>
</g>
<!-- Node0x13ead9e0&#45;&gt;Node0x153ded70 -->
<g id="edge5" class="edge"><title>Node0x13ead9e0&#45;&gt;Node0x153ded70</title>
<path fill="none" stroke="black" d="M311.5,-2524.32C311.5,-2497.98 311.5,-2470.32 311.5,-2444.5 311.5,-2444.5 311.5,-2444.5 311.5,-198 311.5,-99.6325 453.281,-61.1187 522.44,-48.1835"/>
<polygon fill="black" stroke="black" points="523.259,-51.5927 532.488,-46.389 522.028,-44.7018 523.259,-51.5927"/>
</g>
<!-- Node0x8b2bdc0 -->
<g id="node7" class="node"><title>Node0x8b2bdc0</title>
<polygon fill="none" stroke="black" points="589.5,-2469.5 589.5,-2505.5 697.5,-2505.5 697.5,-2469.5 589.5,-2469.5"/>
<text text-anchor="start" x="597.5" y="-2483.8" font-family="Times,serif" font-size="14.00">if (v17 != 0):</text>
</g>
<!-- Node0x153dc440&#45;&gt;Node0x8b2bdc0 -->
<g id="edge6" class="edge"><title>Node0x153dc440&#45;&gt;Node0x8b2bdc0</title>
<path fill="none" stroke="black" d="M643.5,-2791.43C643.5,-2716.66 643.5,-2574.95 643.5,-2515.66"/>
<polygon fill="black" stroke="black" points="647,-2515.58 643.5,-2505.58 640,-2515.58 647,-2515.58"/>
</g>
<!-- Node0xa451940 -->
<g id="node8" class="node"><title>Node0xa451940</title>
<polygon fill="none" stroke="black" points="327,-2097.5 327,-2345.5 736,-2345.5 736,-2097.5 327,-2097.5"/>
<text text-anchor="start" x="335" y="-2330.3" font-family="Times,serif" font-size="14.00">0x8059c9a:</text>
<text text-anchor="start" x="335" y="-2315.3" font-family="Times,serif" font-size="14.00"> g7 = &amp;(v11)</text>
<text text-anchor="start" x="335" y="-2300.3" font-family="Times,serif" font-size="14.00"> result = v17</text>
<text text-anchor="start" x="335" y="-2285.3" font-family="Times,serif" font-size="14.00"> v14 = &amp;(v12)</text>
<text text-anchor="start" x="335" y="-2270.3" font-family="Times,serif" font-size="14.00"> g1 = mbedtls_mpi_free(IntToPtrCastExpr&lt;ptr&gt;(g5))</text>
<text text-anchor="start" x="335" y="-2255.3" font-family="Times,serif" font-size="14.00"> g1 = mbedtls_mpi_free(IntToPtrCastExpr&lt;ptr&gt;(v16))</text>
<text text-anchor="start" x="335" y="-2240.3" font-family="Times,serif" font-size="14.00"> g1 = mbedtls_mpi_free(&amp;(v10))</text>
<text text-anchor="start" x="335" y="-2225.3" font-family="Times,serif" font-size="14.00"> g1 = mbedtls_mpi_free(IntToPtrCastExpr&lt;ptr&gt;(g7))</text>
<text text-anchor="start" x="335" y="-2210.3" font-family="Times,serif" font-size="14.00"> g6 = v14</text>
<text text-anchor="start" x="335" y="-2195.3" font-family="Times,serif" font-size="14.00"> mbedtls_mpi_free(IntToPtrCastExpr&lt;ptr&gt;(v14))</text>
<text text-anchor="start" x="335" y="-2180.3" font-family="Times,serif" font-size="14.00"> g1 = result</text>
<text text-anchor="start" x="335" y="-2165.3" font-family="Times,serif" font-size="14.00"> g3 = v3</text>
<text text-anchor="start" x="335" y="-2150.3" font-family="Times,serif" font-size="14.00"> g7 = v2</text>
<text text-anchor="start" x="335" y="-2135.3" font-family="Times,serif" font-size="14.00"> g5 = v1</text>
<text text-anchor="start" x="335" y="-2120.3" font-family="Times,serif" font-size="14.00"> g2 = v15</text>
<text text-anchor="start" x="335" y="-2105.3" font-family="Times,serif" font-size="14.00"> return result</text>
</g>
<!-- Node0x8b2bdc0&#45;&gt;Node0xa451940 -->
<g id="edge7" class="edge"><title>Node0x8b2bdc0&#45;&gt;Node0xa451940</title>
<path fill="none" stroke="black" d="M625.692,-2469.44C613.073,-2456.43 596.645,-2437.49 586.5,-2418 576.324,-2398.45 567.839,-2376.8 560.825,-2355.23"/>
<polygon fill="black" stroke="black" points="564.154,-2354.15 557.807,-2345.67 557.479,-2356.26 564.154,-2354.15"/>
<text text-anchor="middle" x="641" y="-2439.8" font-family="Times,serif" font-size="14.00">v17 != 0</text>
</g>
<!-- Node0x14405230 -->
<g id="node9" class="node"><title>Node0x14405230</title>
<polygon fill="none" stroke="black" points="596,-2364.5 596,-2417.5 883,-2417.5 883,-2364.5 596,-2364.5"/>
<text text-anchor="start" x="604" y="-2402.3" font-family="Times,serif" font-size="14.00">v18 = g3</text>
<text text-anchor="start" x="604" y="-2387.3" font-family="Times,serif" font-size="14.00"> v19 = mbedtls_mpi_shift_r(v16, v18)</text>
<text text-anchor="start" x="604" y="-2372.3" font-family="Times,serif" font-size="14.00"> g1 = v19</text>
</g>
<!-- Node0x8b2bdc0&#45;&gt;Node0x14405230 -->
<g id="edge8" class="edge"><title>Node0x8b2bdc0&#45;&gt;Node0x14405230</title>
<path fill="none" stroke="black" d="M661.108,-2469.17C673.668,-2456.8 690.944,-2439.8 706.082,-2424.9"/>
<polygon fill="black" stroke="black" points="708.64,-2427.29 713.311,-2417.78 703.729,-2422.3 708.64,-2427.29"/>
<text text-anchor="middle" x="729" y="-2439.8" font-family="Times,serif" font-size="14.00">v17 == 0</text>
</g>
<!-- Node0xa451940&#45;&gt;Node0x153ded70 -->
<g id="edge9" class="edge"><title>Node0xa451940&#45;&gt;Node0x153ded70</title>
<path fill="none" stroke="black" d="M496.893,-2097.38C491.949,-2071.22 488.5,-2043.62 488.5,-2017.5 488.5,-2017.5 488.5,-2017.5 488.5,-198 488.5,-151.861 491.503,-138.084 512.5,-97 518.041,-86.1579 526.175,-75.6726 534.124,-66.8436"/>
<polygon fill="black" stroke="black" points="536.688,-69.2254 540.992,-59.5439 531.59,-64.4286 536.688,-69.2254"/>
</g>
<!-- Node0x2320c3e0 -->
<g id="node10" class="node"><title>Node0x2320c3e0</title>
<polygon fill="none" stroke="black" points="697.5,-2042.5 697.5,-2078.5 805.5,-2078.5 805.5,-2042.5 697.5,-2042.5"/>
<text text-anchor="start" x="705.5" y="-2056.8" font-family="Times,serif" font-size="14.00">if (v19 != 0):</text>
</g>
<!-- Node0x14405230&#45;&gt;Node0x2320c3e0 -->
<g id="edge10" class="edge"><title>Node0x14405230&#45;&gt;Node0x2320c3e0</title>
<path fill="none" stroke="black" d="M740.432,-2364.5C742.645,-2303.92 748.203,-2151.77 750.491,-2089.12"/>
<polygon fill="black" stroke="black" points="753.999,-2088.96 750.867,-2078.84 747.004,-2088.7 753.999,-2088.96"/>
</g>
<!-- Node0xfceb8d0 -->
<g id="node11" class="node"><title>Node0xfceb8d0</title>
<polygon fill="none" stroke="black" points="518,-1687.5 518,-1935.5 927,-1935.5 927,-1687.5 518,-1687.5"/>
<text text-anchor="start" x="526" y="-1920.3" font-family="Times,serif" font-size="14.00">0x8059d3b:</text>
<text text-anchor="start" x="526" y="-1905.3" font-family="Times,serif" font-size="14.00"> g7 = &amp;(v11)</text>
<text text-anchor="start" x="526" y="-1890.3" font-family="Times,serif" font-size="14.00"> result = v19</text>
<text text-anchor="start" x="526" y="-1875.3" font-family="Times,serif" font-size="14.00"> v14 = &amp;(v12)</text>
<text text-anchor="start" x="526" y="-1860.3" font-family="Times,serif" font-size="14.00"> g1 = mbedtls_mpi_free(IntToPtrCastExpr&lt;ptr&gt;(g5))</text>
<text text-anchor="start" x="526" y="-1845.3" font-family="Times,serif" font-size="14.00"> g1 = mbedtls_mpi_free(IntToPtrCastExpr&lt;ptr&gt;(v16))</text>
<text text-anchor="start" x="526" y="-1830.3" font-family="Times,serif" font-size="14.00"> g1 = mbedtls_mpi_free(&amp;(v10))</text>
<text text-anchor="start" x="526" y="-1815.3" font-family="Times,serif" font-size="14.00"> g1 = mbedtls_mpi_free(IntToPtrCastExpr&lt;ptr&gt;(g7))</text>
<text text-anchor="start" x="526" y="-1800.3" font-family="Times,serif" font-size="14.00"> g6 = v14</text>
<text text-anchor="start" x="526" y="-1785.3" font-family="Times,serif" font-size="14.00"> mbedtls_mpi_free(IntToPtrCastExpr&lt;ptr&gt;(v14))</text>
<text text-anchor="start" x="526" y="-1770.3" font-family="Times,serif" font-size="14.00"> g1 = result</text>
<text text-anchor="start" x="526" y="-1755.3" font-family="Times,serif" font-size="14.00"> g3 = v3</text>
<text text-anchor="start" x="526" y="-1740.3" font-family="Times,serif" font-size="14.00"> g7 = v2</text>
<text text-anchor="start" x="526" y="-1725.3" font-family="Times,serif" font-size="14.00"> g5 = v1</text>
<text text-anchor="start" x="526" y="-1710.3" font-family="Times,serif" font-size="14.00"> g2 = v15</text>
<text text-anchor="start" x="526" y="-1695.3" font-family="Times,serif" font-size="14.00"> return result</text>
</g>
<!-- Node0x2320c3e0&#45;&gt;Node0xfceb8d0 -->
<g id="edge11" class="edge"><title>Node0x2320c3e0&#45;&gt;Node0xfceb8d0</title>
<path fill="none" stroke="black" d="M749.461,-2042.13C747.011,-2021.27 742.666,-1984.26 738.17,-1945.97"/>
<polygon fill="black" stroke="black" points="741.605,-1945.2 736.962,-1935.68 734.652,-1946.02 741.605,-1945.2"/>
<text text-anchor="middle" x="779" y="-2012.8" font-family="Times,serif" font-size="14.00">v19 != 0</text>
</g>
<!-- Node0x23210920 -->
<g id="node12" class="node"><title>Node0x23210920</title>
<polygon fill="none" stroke="black" points="793.5,-1954.5 793.5,-1990.5 1061.5,-1990.5 1061.5,-1954.5 793.5,-1954.5"/>
<text text-anchor="start" x="801.5" y="-1968.8" font-family="Times,serif" font-size="14.00">v20 = mbedtls_mpi_bitlen(v6, v18)</text>
</g>
<!-- Node0x2320c3e0&#45;&gt;Node0x23210920 -->
<g id="edge12" class="edge"><title>Node0x2320c3e0&#45;&gt;Node0x23210920</title>
<path fill="none" stroke="black" d="M786.693,-2042.3C814.482,-2028.72 853.42,-2009.7 883.308,-1995.09"/>
<polygon fill="black" stroke="black" points="885.22,-1998.06 892.668,-1990.52 882.147,-1991.77 885.22,-1998.06"/>
<text text-anchor="middle" x="885" y="-2012.8" font-family="Times,serif" font-size="14.00">v19 == 0</text>
</g>
<!-- Node0xfceb8d0&#45;&gt;Node0x153ded70 -->
<g id="edge13" class="edge"><title>Node0xfceb8d0&#45;&gt;Node0x153ded70</title>
<path fill="none" stroke="black" d="M553.753,-1687.42C537.267,-1663.66 526.5,-1636.89 526.5,-1607.5 526.5,-1607.5 526.5,-1607.5 526.5,-198 526.5,-151.882 540.562,-99.7126 550.327,-69.0438"/>
<polygon fill="black" stroke="black" points="553.664,-70.0998 553.447,-59.5072 547.011,-67.9229 553.664,-70.0998"/>
</g>
<!-- Node0x13eacae0 -->
<g id="node13" class="node"><title>Node0x13eacae0</title>
<polygon fill="none" stroke="black" points="985,-1632.5 985,-1668.5 1126,-1668.5 1126,-1632.5 985,-1632.5"/>
<text text-anchor="start" x="993" y="-1646.8" font-family="Times,serif" font-size="14.00">if (v20 &lt;= 1299):</text>
</g>
<!-- Node0x23210920&#45;&gt;Node0x13eacae0 -->
<g id="edge14" class="edge"><title>Node0x23210920&#45;&gt;Node0x13eacae0</title>
<path fill="none" stroke="black" d="M934.382,-1954.3C955.478,-1901.55 1019.35,-1741.87 1044.84,-1678.16"/>
<polygon fill="black" stroke="black" points="1048.12,-1679.37 1048.58,-1668.79 1041.62,-1676.77 1048.12,-1679.37"/>
</g>
<!-- Node0x22124700 -->
<g id="node14" class="node"><title>Node0x22124700</title>
<polygon fill="none" stroke="black" points="987,-1542.5 987,-1580.5 1124,-1580.5 1124,-1542.5 987,-1542.5"/>
<text text-anchor="start" x="995" y="-1565.3" font-family="Times,serif" font-size="14.00">0x8059d65:</text>
<text text-anchor="start" x="995" y="-1550.3" font-family="Times,serif" font-size="14.00"> if (v20 &lt;= 849):</text>
</g>
<!-- Node0x13eacae0&#45;&gt;Node0x22124700 -->
<g id="edge15" class="edge"><title>Node0x13eacae0&#45;&gt;Node0x22124700</title>
<path fill="none" stroke="black" d="M1055.5,-1632.31C1055.5,-1620.51 1055.5,-1604.57 1055.5,-1590.9"/>
<polygon fill="black" stroke="black" points="1059,-1590.55 1055.5,-1580.55 1052,-1590.55 1059,-1590.55"/>
<text text-anchor="middle" x="1103.5" y="-1602.8" font-family="Times,serif" font-size="14.00">v20 &lt;= 1299</text>
</g>
<!-- Node0xe95aaf0 -->
<g id="node15" class="node"><title>Node0xe95aaf0</title>
<polygon fill="none" stroke="black" points="904,-1107.5 904,-1220.5 1497,-1220.5 1497,-1107.5 904,-1107.5"/>
<text text-anchor="start" x="912" y="-1205.3" font-family="Times,serif" font-size="14.00">v21 = &amp;(v11)</text>
<text text-anchor="start" x="912" y="-1190.3" font-family="Times,serif" font-size="14.00"> g7 = v21</text>
<text text-anchor="start" x="912" y="-1175.3" font-family="Times,serif" font-size="14.00"> g4 = v7</text>
<text text-anchor="start" x="912" y="-1160.3" font-family="Times,serif" font-size="14.00"> g6 = v6</text>
<text text-anchor="start" x="912" y="-1145.3" font-family="Times,serif" font-size="14.00"> v22 = *(IntToPtrCastExpr&lt;ptr&gt;((v6 + 4)))</text>
<text text-anchor="start" x="912" y="-1130.3" font-family="Times,serif" font-size="14.00"> v23 = mbedtls_mpi_fill_random(v21, (4 * v22), IntToPtrCastExpr&lt;ptr&gt;(v7), v8)</text>
<text text-anchor="start" x="912" y="-1115.3" font-family="Times,serif" font-size="14.00"> g1 = v23</text>
</g>
<!-- Node0x13eacae0&#45;&gt;Node0xe95aaf0 -->
<g id="edge16" class="edge"><title>Node0x13eacae0&#45;&gt;Node0xe95aaf0</title>
<path fill="none" stroke="black" d="M1126.16,-1641.69C1209.1,-1630.5 1335.5,-1606.28 1335.5,-1562.5 1335.5,-1562.5 1335.5,-1562.5 1335.5,-1290.5 1335.5,-1266.4 1333.37,-1257.97 1318.5,-1239 1315.44,-1235.1 1312.12,-1231.35 1308.6,-1227.76"/>
<polygon fill="black" stroke="black" points="1310.74,-1224.96 1301.09,-1220.58 1305.9,-1230.02 1310.74,-1224.96"/>
<text text-anchor="middle" x="1377.5" y="-1422.8" font-family="Times,serif" font-size="14.00">v20 &gt; 1299</text>
</g>
<!-- Node0x22124700&#45;&gt;Node0xe95aaf0 -->
<g id="edge18" class="edge"><title>Node0x22124700&#45;&gt;Node0xe95aaf0</title>
<path fill="none" stroke="black" d="M1035.64,-1542.29C1019.89,-1525.77 1000.5,-1499.88 1000.5,-1472.5 1000.5,-1472.5 1000.5,-1472.5 1000.5,-1290.5 1000.5,-1264.44 1012.83,-1243.59 1031.37,-1226.96"/>
<polygon fill="black" stroke="black" points="1033.61,-1229.65 1039.06,-1220.56 1029.14,-1224.26 1033.61,-1229.65"/>
<text text-anchor="middle" x="1038" y="-1377.8" font-family="Times,serif" font-size="14.00">v20 &gt; 849</text>
</g>
<!-- Node0xe26be80 -->
<g id="node16" class="node"><title>Node0xe26be80</title>
<polygon fill="none" stroke="black" points="1035,-1452.5 1035,-1490.5 1172,-1490.5 1172,-1452.5 1035,-1452.5"/>
<text text-anchor="start" x="1043" y="-1475.3" font-family="Times,serif" font-size="14.00">0x8059d73:</text>
<text text-anchor="start" x="1043" y="-1460.3" font-family="Times,serif" font-size="14.00"> if (v20 &lt;= 649):</text>
</g>
<!-- Node0x22124700&#45;&gt;Node0xe26be80 -->
<g id="edge17" class="edge"><title>Node0x22124700&#45;&gt;Node0xe26be80</title>
<path fill="none" stroke="black" d="M1065.45,-1542.27C1072.14,-1530 1081.08,-1513.6 1088.62,-1499.78"/>
<polygon fill="black" stroke="black" points="1091.85,-1501.17 1093.57,-1490.71 1085.71,-1497.81 1091.85,-1501.17"/>
<text text-anchor="middle" x="1126" y="-1512.8" font-family="Times,serif" font-size="14.00">v20 &lt;= 849</text>
</g>
<!-- Node0xfcede80 -->
<g id="node17" class="node"><title>Node0xfcede80</title>
<polygon fill="none" stroke="black" points="1153.5,-1031.5 1153.5,-1069.5 1267.5,-1069.5 1267.5,-1031.5 1153.5,-1031.5"/>
<text text-anchor="start" x="1161.5" y="-1054.3" font-family="Times,serif" font-size="14.00">if (v23 == 0):</text>
<text text-anchor="start" x="1161.5" y="-1039.3" font-family="Times,serif" font-size="14.00"> else:</text>
</g>
<!-- Node0xe95aaf0&#45;&gt;Node0xfcede80 -->
<g id="edge19" class="edge"><title>Node0xe95aaf0&#45;&gt;Node0xfcede80</title>
<path fill="none" stroke="black" d="M1205.5,-1107.25C1206.34,-1097.86 1207.18,-1088.47 1207.93,-1080.15"/>
<polygon fill="black" stroke="black" points="1211.44,-1080.18 1208.85,-1069.91 1204.47,-1079.56 1211.44,-1080.18"/>
</g>
<!-- Node0xe26be80&#45;&gt;Node0xe95aaf0 -->
<g id="edge21" class="edge"><title>Node0xe26be80&#45;&gt;Node0xe95aaf0</title>
<path fill="none" stroke="black" d="M1105.56,-1452.42C1110.57,-1412.55 1125.38,-1314.59 1157.5,-1239 1158.78,-1235.99 1160.15,-1232.95 1161.6,-1229.91"/>
<polygon fill="black" stroke="black" points="1164.81,-1231.33 1166.13,-1220.81 1158.54,-1228.2 1164.81,-1231.33"/>
</g>
<!-- Node0xf59e020 -->
<g id="node18" class="node"><title>Node0xf59e020</title>
<polygon fill="none" stroke="black" points="1132,-1362.5 1132,-1400.5 1269,-1400.5 1269,-1362.5 1132,-1362.5"/>
<text text-anchor="start" x="1140" y="-1385.3" font-family="Times,serif" font-size="14.00">0x8059d81:</text>
<text text-anchor="start" x="1140" y="-1370.3" font-family="Times,serif" font-size="14.00"> if (v20 &lt;= 349):</text>
</g>
<!-- Node0xe26be80&#45;&gt;Node0xf59e020 -->
<g id="edge20" class="edge"><title>Node0xe26be80&#45;&gt;Node0xf59e020</title>
<path fill="none" stroke="black" d="M1123.6,-1452.27C1137.77,-1439.41 1156.95,-1422.01 1172.61,-1407.81"/>
<polygon fill="black" stroke="black" points="1175.37,-1410.02 1180.43,-1400.71 1170.67,-1404.84 1175.37,-1410.02"/>
<text text-anchor="middle" x="1202" y="-1422.8" font-family="Times,serif" font-size="14.00">v20 &lt;= 649</text>
</g>
<!-- Node0xfcea3c0 -->
<g id="node19" class="node"><title>Node0xfcea3c0</title>
<polygon fill="none" stroke="black" points="1169.5,-943.5 1169.5,-979.5 1251.5,-979.5 1251.5,-943.5 1169.5,-943.5"/>
<text text-anchor="start" x="1177.5" y="-957.8" font-family="Times,serif" font-size="14.00">v24 = g5</text>
</g>
<!-- Node0xfcede80&#45;&gt;Node0xfcea3c0 -->
<g id="edge22" class="edge"><title>Node0xfcede80&#45;&gt;Node0xfcea3c0</title>
<path fill="none" stroke="black" d="M1210.5,-1031.47C1210.5,-1019.46 1210.5,-1003.43 1210.5,-989.857"/>
<polygon fill="black" stroke="black" points="1214,-989.615 1210.5,-979.615 1207,-989.615 1214,-989.615"/>
<text text-anchor="middle" x="1245" y="-1001.8" font-family="Times,serif" font-size="14.00">v23 == 0</text>
</g>
<!-- Node0xe268de0 -->
<g id="node20" class="node"><title>Node0xe268de0</title>
<polygon fill="none" stroke="black" points="1667.5,-871.5 1667.5,-924.5 1785.5,-924.5 1785.5,-871.5 1667.5,-871.5"/>
<text text-anchor="start" x="1675.5" y="-909.3" font-family="Times,serif" font-size="14.00">0x8059f2a:</text>
<text text-anchor="start" x="1675.5" y="-894.3" font-family="Times,serif" font-size="14.00"> result = v23</text>
<text text-anchor="start" x="1675.5" y="-879.3" font-family="Times,serif" font-size="14.00"> v14 = &amp;(v12)</text>
</g>
<!-- Node0xfcede80&#45;&gt;Node0xe268de0 -->
<g id="edge23" class="edge"><title>Node0xfcede80&#45;&gt;Node0xe268de0</title>
<path fill="none" stroke="black" d="M1267.69,-1032.82C1363.27,-1004.94 1555.07,-949 1657.81,-919.035"/>
<polygon fill="black" stroke="black" points="1658.85,-922.378 1667.47,-916.218 1656.89,-915.658 1658.85,-922.378"/>
<text text-anchor="middle" x="1413" y="-1001.8" font-family="Times,serif" font-size="14.00">v23 != 0</text>
</g>
<!-- Node0xf59e020&#45;&gt;Node0xe95aaf0 -->
<g id="edge25" class="edge"><title>Node0xf59e020&#45;&gt;Node0xe95aaf0</title>
<path fill="none" stroke="black" d="M1186.4,-1362.22C1177.02,-1348.85 1165.53,-1329.83 1160.5,-1311 1153.43,-1284.55 1158.74,-1255.44 1167.53,-1230.23"/>
<polygon fill="black" stroke="black" points="1170.84,-1231.36 1171.04,-1220.77 1164.28,-1228.92 1170.84,-1231.36"/>
</g>
<!-- Node0xfce98b0 -->
<g id="node21" class="node"><title>Node0xfce98b0</title>
<polygon fill="none" stroke="black" points="1170,-1272.5 1170,-1310.5 1307,-1310.5 1307,-1272.5 1170,-1272.5"/>
<text text-anchor="start" x="1178" y="-1295.3" font-family="Times,serif" font-size="14.00">0x8059d8f:</text>
<text text-anchor="start" x="1178" y="-1280.3" font-family="Times,serif" font-size="14.00"> if (v20 &lt;= 249):</text>
</g>
<!-- Node0xf59e020&#45;&gt;Node0xfce98b0 -->
<g id="edge24" class="edge"><title>Node0xf59e020&#45;&gt;Node0xfce98b0</title>
<path fill="none" stroke="black" d="M1208.37,-1362.27C1213.62,-1350.11 1220.62,-1333.91 1226.55,-1320.18"/>
<polygon fill="black" stroke="black" points="1229.89,-1321.28 1230.64,-1310.71 1223.46,-1318.5 1229.89,-1321.28"/>
<text text-anchor="middle" x="1266" y="-1332.8" font-family="Times,serif" font-size="14.00">v20 &lt;= 349</text>
</g>
<!-- Node0xfce9730 -->
<g id="node22" class="node"><title>Node0xfce9730</title>
<polygon fill="none" stroke="black" points="874.5,-816.5 874.5,-852.5 1546.5,-852.5 1546.5,-816.5 874.5,-816.5"/>
<text text-anchor="start" x="882.5" y="-830.8" font-family="Times,serif" font-size="14.00">if (mbedtls_mpi_cmp_mpi(IntToPtrCastExpr&lt;ptr&gt;(g7), IntToPtrCastExpr&lt;ptr&gt;(v24)) &lt; 0):</text>
</g>
<!-- Node0xfcea3c0&#45;&gt;Node0xfce9730 -->
<g id="edge26" class="edge"><title>Node0xfcea3c0&#45;&gt;Node0xfce9730</title>
<path fill="none" stroke="black" d="M1210.5,-943.381C1210.5,-922.646 1210.5,-887.453 1210.5,-862.922"/>
<polygon fill="black" stroke="black" points="1214,-862.813 1210.5,-852.813 1207,-862.813 1214,-862.813"/>
</g>
<!-- Node0x13eac5d0 -->
<g id="node23" class="node"><title>Node0x13eac5d0</title>
<polygon fill="none" stroke="black" points="721,-97.5 721,-300.5 1130,-300.5 1130,-97.5 721,-97.5"/>
<text text-anchor="start" x="729" y="-285.3" font-family="Times,serif" font-size="14.00">0x8059ca6:</text>
<text text-anchor="start" x="729" y="-270.3" font-family="Times,serif" font-size="14.00"> g1 = mbedtls_mpi_free(IntToPtrCastExpr&lt;ptr&gt;(g5))</text>
<text text-anchor="start" x="729" y="-255.3" font-family="Times,serif" font-size="14.00"> g1 = mbedtls_mpi_free(IntToPtrCastExpr&lt;ptr&gt;(v16))</text>
<text text-anchor="start" x="729" y="-240.3" font-family="Times,serif" font-size="14.00"> g1 = mbedtls_mpi_free(&amp;(v10))</text>
<text text-anchor="start" x="729" y="-225.3" font-family="Times,serif" font-size="14.00"> g1 = mbedtls_mpi_free(IntToPtrCastExpr&lt;ptr&gt;(g7))</text>
<text text-anchor="start" x="729" y="-210.3" font-family="Times,serif" font-size="14.00"> g6 = v14</text>
<text text-anchor="start" x="729" y="-195.3" font-family="Times,serif" font-size="14.00"> mbedtls_mpi_free(IntToPtrCastExpr&lt;ptr&gt;(v14))</text>
<text text-anchor="start" x="729" y="-180.3" font-family="Times,serif" font-size="14.00"> g1 = result</text>
<text text-anchor="start" x="729" y="-165.3" font-family="Times,serif" font-size="14.00"> g3 = v3</text>
<text text-anchor="start" x="729" y="-150.3" font-family="Times,serif" font-size="14.00"> g7 = v2</text>
<text text-anchor="start" x="729" y="-135.3" font-family="Times,serif" font-size="14.00"> g5 = v1</text>
<text text-anchor="start" x="729" y="-120.3" font-family="Times,serif" font-size="14.00"> g2 = v15</text>
<text text-anchor="start" x="729" y="-105.3" font-family="Times,serif" font-size="14.00"> return result</text>
</g>
<!-- Node0xe268de0&#45;&gt;Node0x13eac5d0 -->
<g id="edge27" class="edge"><title>Node0xe268de0&#45;&gt;Node0x13eac5d0</title>
<path fill="none" stroke="black" d="M1785.9,-878.815C1824.81,-862.801 1868.5,-835.111 1868.5,-791.5 1868.5,-791.5 1868.5,-791.5 1868.5,-438.5 1868.5,-289.206 1418.65,-232.367 1140.35,-211.488"/>
<polygon fill="black" stroke="black" points="1140.35,-207.978 1130.12,-210.731 1139.83,-214.959 1140.35,-207.978"/>
</g>
<!-- Node0xfce98b0&#45;&gt;Node0xe95aaf0 -->
<g id="edge28" class="edge"><title>Node0xfce98b0&#45;&gt;Node0xe95aaf0</title>
<path fill="none" stroke="black" d="M1224.42,-1272.39C1220.66,-1266.77 1216.96,-1260.37 1214.5,-1254 1211.61,-1246.53 1209.32,-1238.49 1207.5,-1230.41"/>
<polygon fill="black" stroke="black" points="1210.92,-1229.67 1205.51,-1220.56 1204.06,-1231.06 1210.92,-1229.67"/>
</g>
<!-- Node0xfce98b0&#45;&gt;Node0xe95aaf0 -->
<g id="edge29" class="edge"><title>Node0xfce98b0&#45;&gt;Node0xe95aaf0</title>
<path fill="none" stroke="black" d="M1232.97,-1272.25C1229.55,-1260.94 1224.92,-1245.64 1220.23,-1230.15"/>
<polygon fill="black" stroke="black" points="1223.56,-1229.07 1217.31,-1220.52 1216.86,-1231.1 1223.56,-1229.07"/>
<text text-anchor="middle" x="1271" y="-1242.8" font-family="Times,serif" font-size="14.00">v20 &lt;= 249</text>
</g>
<!-- Node0xfceb2e0 -->
<g id="node24" class="node"><title>Node0xfceb2e0</title>
<polygon fill="none" stroke="black" points="541.5,-564.5 541.5,-647.5 699.5,-647.5 699.5,-564.5 541.5,-564.5"/>
<text text-anchor="start" x="549.5" y="-632.3" font-family="Times,serif" font-size="14.00">0x8059e2c:</text>
<text text-anchor="start" x="549.5" y="-617.3" font-family="Times,serif" font-size="14.00"> g1 = 0</text>
<text text-anchor="start" x="549.5" y="-602.3" font-family="Times,serif" font-size="14.00"> g3 = 0</text>
<text text-anchor="start" x="549.5" y="-587.3" font-family="Times,serif" font-size="14.00"> abort()</text>
<text text-anchor="start" x="549.5" y="-572.3" font-family="Times,serif" font-size="14.00"> # UNREACHABLE</text>
</g>
<!-- Node0xfce9730&#45;&gt;Node0xfceb2e0 -->
<g id="edge30" class="edge"><title>Node0xfce9730&#45;&gt;Node0xfceb2e0</title>
<path fill="none" stroke="black" d="M874.131,-824.397C727.065,-818.714 584.976,-810.133 573.5,-798 537.497,-759.935 561.532,-698.889 586.572,-656.083"/>
<polygon fill="black" stroke="black" points="589.576,-657.88 591.742,-647.509 583.581,-654.265 589.576,-657.88"/>
<text text-anchor="middle" x="887" y="-786.8" font-family="Times,serif" font-size="14.00">mbedtls_mpi_cmp_mpi(IntToPtrCastExpr&lt;ptr&gt;(g7), IntToPtrCastExpr&lt;ptr&gt;(v24)) &lt; 0</text>
</g>
<!-- Node0x221242a0 -->
<g id="node25" class="node"><title>Node0x221242a0</title>
<polygon fill="none" stroke="black" points="1003,-666.5 1003,-764.5 1388,-764.5 1388,-666.5 1003,-666.5"/>
<text text-anchor="start" x="1011" y="-749.3" font-family="Times,serif" font-size="14.00">v25 = mbedtls_mpi_bitlen(g7, v24)</text>
<text text-anchor="start" x="1011" y="-734.3" font-family="Times,serif" font-size="14.00"> g3 = v25</text>
<text text-anchor="start" x="1011" y="-719.3" font-family="Times,serif" font-size="14.00"> v26 = mbedtls_mpi_bitlen(g5, v24)</text>
<text text-anchor="start" x="1011" y="-704.3" font-family="Times,serif" font-size="14.00"> g6 = v26</text>
<text text-anchor="start" x="1011" y="-689.3" font-family="Times,serif" font-size="14.00"> result = mbedtls_mpi_shift_r(g7, ((v25 + 1) &#45; v26))</text>
<text text-anchor="start" x="1011" y="-674.3" font-family="Times,serif" font-size="14.00"> g1 = result</text>
</g>
<!-- Node0xfce9730&#45;&gt;Node0x221242a0 -->
<g id="edge31" class="edge"><title>Node0xfce9730&#45;&gt;Node0x221242a0</title>
<path fill="none" stroke="black" d="M1208.32,-816.487C1206.89,-805.309 1204.92,-789.968 1202.96,-774.658"/>
<polygon fill="black" stroke="black" points="1206.42,-774.119 1201.67,-764.646 1199.47,-775.01 1206.42,-774.119"/>
<text text-anchor="middle" x="1526" y="-786.8" font-family="Times,serif" font-size="14.00">mbedtls_mpi_cmp_mpi(IntToPtrCastExpr&lt;ptr&gt;(g7), IntToPtrCastExpr&lt;ptr&gt;(v24)) &gt;= 0</text>
</g>
<!-- Node0x13eac5d0&#45;&gt;Node0x153ded70 -->
<g id="edge32" class="edge"><title>Node0x13eac5d0&#45;&gt;Node0x153ded70</title>
<path fill="none" stroke="black" d="M731.224,-97.4672C715.568,-90.5331 699.865,-83.948 684.5,-78 655.655,-66.8335 621.851,-57.445 596.675,-51.1331"/>
<polygon fill="black" stroke="black" points="597.342,-47.693 586.796,-48.7028 595.67,-54.4903 597.342,-47.693"/>
</g>
<!-- Node0xfceb2e0&#45;&gt;Node0x153ded70 -->
<g id="edge33" class="edge"><title>Node0xfceb2e0&#45;&gt;Node0x153ded70</title>
<path fill="none" stroke="black" d="M606.172,-564.273C599.283,-541.175 592.5,-511.562 592.5,-484.5 592.5,-484.5 592.5,-484.5 592.5,-198 592.5,-151.882 578.438,-99.7126 568.673,-69.0438"/>
<polygon fill="black" stroke="black" points="571.989,-67.9229 565.553,-59.5072 565.336,-70.0998 571.989,-67.9229"/>
</g>
<!-- Node0x210f2cf0 -->
<g id="node26" class="node"><title>Node0x210f2cf0</title>
<polygon fill="none" stroke="black" points="860.5,-509.5 860.5,-545.5 990.5,-545.5 990.5,-509.5 860.5,-509.5"/>
<text text-anchor="start" x="868.5" y="-523.8" font-family="Times,serif" font-size="14.00">if (result == 0):</text>
</g>
<!-- Node0x221242a0&#45;&gt;Node0x210f2cf0 -->
<g id="edge34" class="edge"><title>Node0x221242a0&#45;&gt;Node0x210f2cf0</title>
<path fill="none" stroke="black" d="M1125.62,-666.358C1071.94,-629.378 1000.19,-579.953 958.795,-551.436"/>
<polygon fill="black" stroke="black" points="960.66,-548.471 950.44,-545.681 956.689,-554.236 960.66,-548.471"/>
</g>
<!-- Node0xe95b860 -->
<g id="node27" class="node"><title>Node0xe95b860</title>
<polygon fill="none" stroke="black" points="644.5,-319.5 644.5,-402.5 802.5,-402.5 802.5,-319.5 644.5,-319.5"/>
<text text-anchor="start" x="652.5" y="-387.3" font-family="Times,serif" font-size="14.00">0x8059e2c:</text>
<text text-anchor="start" x="652.5" y="-372.3" font-family="Times,serif" font-size="14.00"> g1 = 0</text>
<text text-anchor="start" x="652.5" y="-357.3" font-family="Times,serif" font-size="14.00"> g3 = 0</text>
<text text-anchor="start" x="652.5" y="-342.3" font-family="Times,serif" font-size="14.00"> abort()</text>
<text text-anchor="start" x="652.5" y="-327.3" font-family="Times,serif" font-size="14.00"> # UNREACHABLE</text>
</g>
<!-- Node0x210f2cf0&#45;&gt;Node0xe95b860 -->
<g id="edge35" class="edge"><title>Node0x210f2cf0&#45;&gt;Node0xe95b860</title>
<path fill="none" stroke="black" d="M870.685,-509.355C858.86,-504.393 846.823,-498.299 836.5,-491 805.657,-469.191 777.63,-437.314 757.204,-410.705"/>
<polygon fill="black" stroke="black" points="759.931,-408.508 751.114,-402.633 754.343,-412.724 759.931,-408.508"/>
<text text-anchor="middle" x="879" y="-479.8" font-family="Times,serif" font-size="14.00">result == 0</text>
</g>
<!-- Node0xd8c34d0 -->
<g id="node28" class="node"><title>Node0xd8c34d0</title>
<polygon fill="none" stroke="black" points="869,-421.5 869,-457.5 982,-457.5 982,-421.5 869,-421.5"/>
<text text-anchor="start" x="877" y="-435.8" font-family="Times,serif" font-size="14.00">v14 = &amp;(v12)</text>
</g>
<!-- Node0x210f2cf0&#45;&gt;Node0xd8c34d0 -->
<g id="edge36" class="edge"><title>Node0x210f2cf0&#45;&gt;Node0xd8c34d0</title>
<path fill="none" stroke="black" d="M925.5,-509.097C925.5,-497.246 925.5,-481.317 925.5,-467.792"/>
<polygon fill="black" stroke="black" points="929,-467.584 925.5,-457.584 922,-467.584 929,-467.584"/>
<text text-anchor="middle" x="965" y="-479.8" font-family="Times,serif" font-size="14.00">result != 0</text>
</g>
<!-- Node0xe95b860&#45;&gt;Node0x153ded70 -->
<g id="edge37" class="edge"><title>Node0xe95b860&#45;&gt;Node0x153ded70</title>
<path fill="none" stroke="black" d="M713.872,-319.175C698.632,-261.01 664.566,-153.035 606.5,-78 603.058,-73.5521 598.926,-69.3768 594.558,-65.5623"/>
<polygon fill="black" stroke="black" points="596.525,-62.6523 586.542,-59.1048 592.134,-68.1037 596.525,-62.6523"/>
</g>
<!-- Node0xd8c34d0&#45;&gt;Node0x13eac5d0 -->
<g id="edge38" class="edge"><title>Node0xd8c34d0&#45;&gt;Node0x13eac5d0</title>
<path fill="none" stroke="black" d="M925.5,-421.348C925.5,-397.863 925.5,-353.729 925.5,-311.011"/>
<polygon fill="black" stroke="black" points="929,-310.775 925.5,-300.775 922,-310.776 929,-310.775"/>
</g>
</g>
</svg>
