<?xml version="1.0" encoding="UTF-8" standalone="no"?>
<!DOCTYPE svg PUBLIC "-//W3C//DTD SVG 1.1//EN"
 "http://www.w3.org/Graphics/SVG/1.1/DTD/svg11.dtd">
<!-- Generated by graphviz version 2.38.0 (20140413.2041)
 -->
<!-- Title: Control&#45;flow graph for function &#39;eckey_verify_wrap(a1, a2, a3, a4, a5, a6)&#39;. Pages: 1 -->
<svg width="557pt" height="745pt"
 viewBox="0.00 0.00 557.00 745.00" xmlns="http://www.w3.org/2000/svg" xmlns:xlink="http://www.w3.org/1999/xlink">
<g id="graph0" class="graph" transform="scale(1 1) rotate(0) translate(4 741)">
<title>Control&#45;flow graph for function &#39;eckey_verify_wrap(a1, a2, a3, a4, a5, a6)&#39;.</title>
<polygon fill="white" stroke="none" points="-4,4 -4,-741 553,-741 553,4 -4,4"/>
<text text-anchor="middle" x="274.5" y="-7.8" font-family="Times,serif" font-size="14.00">Control&#45;flow graph for function &#39;eckey_verify_wrap(a1, a2, a3, a4, a5, a6)&#39;.</text>
<!-- Node0x1053da20 -->
<g id="node1" class="node"><title>Node0x1053da20</title>
<polygon fill="none" stroke="black" points="318.25,-623.5 318.25,-736.5 377.25,-736.5 377.25,-623.5 318.25,-623.5"/>
<text text-anchor="start" x="326.25" y="-721.3" font-family="Times,serif" font-size="14.00">entry:</text>
<text text-anchor="start" x="326.25" y="-706.3" font-family="Times,serif" font-size="14.00"> a1</text>
<text text-anchor="start" x="326.25" y="-691.3" font-family="Times,serif" font-size="14.00"> a2</text>
<text text-anchor="start" x="326.25" y="-676.3" font-family="Times,serif" font-size="14.00"> a3</text>
<text text-anchor="start" x="326.25" y="-661.3" font-family="Times,serif" font-size="14.00"> a4</text>
<text text-anchor="start" x="326.25" y="-646.3" font-family="Times,serif" font-size="14.00"> a5</text>
<text text-anchor="start" x="326.25" y="-631.3" font-family="Times,serif" font-size="14.00"> a6</text>
</g>
<!-- Node0xe621020 -->
<g id="node2" class="node"><title>Node0xe621020</title>
<polygon fill="none" stroke="black" points="186.25,-457.5 186.25,-585.5 509.25,-585.5 509.25,-457.5 186.25,-457.5"/>
<text text-anchor="start" x="194.25" y="-570.3" font-family="Times,serif" font-size="14.00">v1 = g3</text>
<text text-anchor="start" x="194.25" y="-555.3" font-family="Times,serif" font-size="14.00"> v2</text>
<text text-anchor="start" x="194.25" y="-540.3" font-family="Times,serif" font-size="14.00"> g3 = &amp;(v2)</text>
<text text-anchor="start" x="194.25" y="-525.3" font-family="Times,serif" font-size="14.00"> v3 = g7</text>
<text text-anchor="start" x="194.25" y="-510.3" font-family="Times,serif" font-size="14.00"> mbedtls_ecdsa_init()</text>
<text text-anchor="start" x="194.25" y="-495.3" font-family="Times,serif" font-size="14.00"> v4 = mbedtls_ecdsa_from_keypair(g3, a1)</text>
<text text-anchor="start" x="194.25" y="-480.3" font-family="Times,serif" font-size="14.00"> g1 = v4</text>
<text text-anchor="start" x="194.25" y="-465.3" font-family="Times,serif" font-size="14.00"> g7 = v4</text>
</g>
<!-- Node0x1053da20&#45;&gt;Node0xe621020 -->
<g id="edge1" class="edge"><title>Node0x1053da20&#45;&gt;Node0xe621020</title>
<path fill="none" stroke="black" d="M347.75,-623.383C347.75,-614.415 347.75,-605.013 347.75,-595.706"/>
<polygon fill="black" stroke="black" points="351.25,-595.67 347.75,-585.67 344.25,-595.67 351.25,-595.67"/>
</g>
<!-- Node0x1053eec0 -->
<g id="node3" class="node"><title>Node0x1053eec0</title>
<polygon fill="none" stroke="black" points="295.25,-383.5 295.25,-419.5 400.25,-419.5 400.25,-383.5 295.25,-383.5"/>
<text text-anchor="start" x="303.25" y="-397.8" font-family="Times,serif" font-size="14.00">if (v4 == 0):</text>
</g>
<!-- Node0xe621020&#45;&gt;Node0x1053eec0 -->
<g id="edge2" class="edge"><title>Node0xe621020&#45;&gt;Node0x1053eec0</title>
<path fill="none" stroke="black" d="M347.75,-457.355C347.75,-447.753 347.75,-438.299 347.75,-430.016"/>
<polygon fill="black" stroke="black" points="351.25,-429.887 347.75,-419.888 344.25,-429.888 351.25,-429.887"/>
</g>
<!-- Node0xe6217f0 -->
<g id="node4" class="node"><title>Node0xe6217f0</title>
<polygon fill="none" stroke="black" points="39.75,-278.5 39.75,-331.5 361.75,-331.5 361.75,-278.5 39.75,-278.5"/>
<text text-anchor="start" x="47.75" y="-316.3" font-family="Times,serif" font-size="14.00">v5 = ecdsa_verify_wrap(g3, a2, a3, a4, a5)</text>
<text text-anchor="start" x="47.75" y="-301.3" font-family="Times,serif" font-size="14.00"> g1 = v5</text>
<text text-anchor="start" x="47.75" y="-286.3" font-family="Times,serif" font-size="14.00"> g7 = v5</text>
</g>
<!-- Node0x1053eec0&#45;&gt;Node0xe6217f0 -->
<g id="edge3" class="edge"><title>Node0x1053eec0&#45;&gt;Node0xe6217f0</title>
<path fill="none" stroke="black" d="M321.129,-383.387C301.086,-370.502 273.061,-352.486 249.094,-337.078"/>
<polygon fill="black" stroke="black" points="250.774,-333.998 240.47,-331.534 246.989,-339.886 250.774,-333.998"/>
<text text-anchor="middle" x="321.75" y="-353.8" font-family="Times,serif" font-size="14.00">v4 == 0</text>
</g>
<!-- Node0xe621610 -->
<g id="node5" class="node"><title>Node0xe621610</title>
<polygon fill="none" stroke="black" points="254.75,-97.5 254.75,-240.5 428.75,-240.5 428.75,-97.5 254.75,-97.5"/>
<text text-anchor="start" x="262.75" y="-225.3" font-family="Times,serif" font-size="14.00">0x804d80f:</text>
<text text-anchor="start" x="262.75" y="-210.3" font-family="Times,serif" font-size="14.00"> mbedtls_ecdsa_free()</text>
<text text-anchor="start" x="262.75" y="-195.3" font-family="Times,serif" font-size="14.00"> result = g7</text>
<text text-anchor="start" x="262.75" y="-180.3" font-family="Times,serif" font-size="14.00"> g1 = result</text>
<text text-anchor="start" x="262.75" y="-165.3" font-family="Times,serif" font-size="14.00"> g3 = v1</text>
<text text-anchor="start" x="262.75" y="-150.3" font-family="Times,serif" font-size="14.00"> g7 = v3</text>
<text text-anchor="start" x="262.75" y="-135.3" font-family="Times,serif" font-size="14.00"> v6</text>
<text text-anchor="start" x="262.75" y="-120.3" font-family="Times,serif" font-size="14.00"> g2 = v6</text>
<text text-anchor="start" x="262.75" y="-105.3" font-family="Times,serif" font-size="14.00"> return result</text>
</g>
<!-- Node0x1053eec0&#45;&gt;Node0xe621610 -->
<g id="edge4" class="edge"><title>Node0x1053eec0&#45;&gt;Node0xe621610</title>
<path fill="none" stroke="black" d="M355.204,-383.439C360.731,-369.814 367.796,-350.076 370.75,-332 375.081,-305.496 372.322,-276.616 367.096,-250.677"/>
<polygon fill="black" stroke="black" points="370.515,-249.927 364.982,-240.891 363.673,-251.405 370.515,-249.927"/>
<text text-anchor="middle" x="399.75" y="-301.3" font-family="Times,serif" font-size="14.00">v4 != 0</text>
</g>
<!-- Node0xe6217f0&#45;&gt;Node0xe621610 -->
<g id="edge5" class="edge"><title>Node0xe6217f0&#45;&gt;Node0xe621610</title>
<path fill="none" stroke="black" d="M227.603,-278.48C237.131,-269.425 248.413,-258.703 260.115,-247.582"/>
<polygon fill="black" stroke="black" points="262.606,-250.043 267.444,-240.618 257.784,-244.969 262.606,-250.043"/>
</g>
<!-- Node0xe620fa0 -->
<g id="node6" class="node"><title>Node0xe620fa0</title>
<polygon fill="none" stroke="black" points="314.75,-23.5 314.75,-59.5 368.75,-59.5 368.75,-23.5 314.75,-23.5"/>
<text text-anchor="start" x="322.75" y="-37.8" font-family="Times,serif" font-size="14.00">exit:</text>
</g>
<!-- Node0xe621610&#45;&gt;Node0xe620fa0 -->
<g id="edge6" class="edge"><title>Node0xe621610&#45;&gt;Node0xe620fa0</title>
<path fill="none" stroke="black" d="M341.75,-97.181C341.75,-87.439 341.75,-77.9608 341.75,-69.7068"/>
<polygon fill="black" stroke="black" points="345.25,-69.642 341.75,-59.642 338.25,-69.6421 345.25,-69.642"/>
</g>
</g>
</svg>
