<?xml version="1.0" encoding="UTF-8" standalone="no"?>
<!DOCTYPE svg PUBLIC "-//W3C//DTD SVG 1.1//EN"
 "http://www.w3.org/Graphics/SVG/1.1/DTD/svg11.dtd">
<!-- Generated by graphviz version 2.38.0 (20140413.2041)
 -->
<!-- Title: Control&#45;flow graph for function &#39;mbedtls_md_hmac_starts(*a1, a2, a3)&#39;. Pages: 1 -->
<svg width="1919pt" height="2549pt"
 viewBox="0.00 0.00 1918.50 2549.00" xmlns="http://www.w3.org/2000/svg" xmlns:xlink="http://www.w3.org/1999/xlink">
<g id="graph0" class="graph" transform="scale(1 1) rotate(0) translate(4 2545)">
<title>Control&#45;flow graph for function &#39;mbedtls_md_hmac_starts(*a1, a2, a3)&#39;.</title>
<polygon fill="white" stroke="none" points="-4,4 -4,-2545 1914.5,-2545 1914.5,4 -4,4"/>
<text text-anchor="middle" x="955.25" y="-7.8" font-family="Times,serif" font-size="14.00">Control&#45;flow graph for function &#39;mbedtls_md_hmac_starts(*a1, a2, a3)&#39;.</text>
<!-- Node0x902ccb0 -->
<g id="node1" class="node"><title>Node0x902ccb0</title>
<polygon fill="none" stroke="black" points="108.5,-2472.5 108.5,-2540.5 167.5,-2540.5 167.5,-2472.5 108.5,-2472.5"/>
<text text-anchor="start" x="116.5" y="-2525.3" font-family="Times,serif" font-size="14.00">entry:</text>
<text text-anchor="start" x="116.5" y="-2510.3" font-family="Times,serif" font-size="14.00"> a1</text>
<text text-anchor="start" x="116.5" y="-2495.3" font-family="Times,serif" font-size="14.00"> a2</text>
<text text-anchor="start" x="116.5" y="-2480.3" font-family="Times,serif" font-size="14.00"> a3</text>
</g>
<!-- Node0x8d66480 -->
<g id="node2" class="node"><title>Node0x8d66480</title>
<polygon fill="none" stroke="black" points="0,-2276.5 0,-2434.5 276,-2434.5 276,-2276.5 0,-2276.5"/>
<text text-anchor="start" x="8" y="-2419.3" font-family="Times,serif" font-size="14.00">v1</text>
<text text-anchor="start" x="8" y="-2404.3" font-family="Times,serif" font-size="14.00"> v2 = v1</text>
<text text-anchor="start" x="8" y="-2389.3" font-family="Times,serif" font-size="14.00"> v3 = PtrToIntCastExpr&lt;int32&gt;(a1)</text>
<text text-anchor="start" x="8" y="-2374.3" font-family="Times,serif" font-size="14.00"> g2 = &amp;(v2)</text>
<text text-anchor="start" x="8" y="-2359.3" font-family="Times,serif" font-size="14.00"> v4 = g3</text>
<text text-anchor="start" x="8" y="-2344.3" font-family="Times,serif" font-size="14.00"> g3 = v3</text>
<text text-anchor="start" x="8" y="-2329.3" font-family="Times,serif" font-size="14.00"> v5 = g7</text>
<text text-anchor="start" x="8" y="-2314.3" font-family="Times,serif" font-size="14.00"> g4 = a3</text>
<text text-anchor="start" x="8" y="-2299.3" font-family="Times,serif" font-size="14.00"> v6 = g5</text>
<text text-anchor="start" x="8" y="-2284.3" font-family="Times,serif" font-size="14.00"> g7 = a2</text>
</g>
<!-- Node0x902ccb0&#45;&gt;Node0x8d66480 -->
<g id="edge1" class="edge"><title>Node0x902ccb0&#45;&gt;Node0x8d66480</title>
<path fill="none" stroke="black" d="M138,-2472.43C138,-2464.03 138,-2454.6 138,-2444.84"/>
<polygon fill="black" stroke="black" points="141.5,-2444.59 138,-2434.59 134.5,-2444.59 141.5,-2444.59"/>
</g>
<!-- Node0x902cf00 -->
<g id="node3" class="node"><title>Node0x902cf00</title>
<polygon fill="none" stroke="black" points="68,-2202.5 68,-2238.5 208,-2238.5 208,-2202.5 68,-2202.5"/>
<text text-anchor="start" x="76" y="-2216.8" font-family="Times,serif" font-size="14.00">if (a1 == NULL):</text>
</g>
<!-- Node0x8d66480&#45;&gt;Node0x902cf00 -->
<g id="edge2" class="edge"><title>Node0x8d66480&#45;&gt;Node0x902cf00</title>
<path fill="none" stroke="black" d="M138,-2276.36C138,-2266.46 138,-2256.9 138,-2248.63"/>
<polygon fill="black" stroke="black" points="141.5,-2248.55 138,-2238.55 134.5,-2248.55 141.5,-2248.55"/>
</g>
<!-- Node0x8d67c50 -->
<g id="node4" class="node"><title>Node0x8d67c50</title>
<polygon fill="none" stroke="black" points="19.5,-1995.5 19.5,-2093.5 140.5,-2093.5 140.5,-1995.5 19.5,-1995.5"/>
<text text-anchor="start" x="27.5" y="-2078.3" font-family="Times,serif" font-size="14.00">0x8062501:</text>
<text text-anchor="start" x="27.5" y="-2063.3" font-family="Times,serif" font-size="14.00"> g3 = v4</text>
<text text-anchor="start" x="27.5" y="-2048.3" font-family="Times,serif" font-size="14.00"> g7 = v5</text>
<text text-anchor="start" x="27.5" y="-2033.3" font-family="Times,serif" font-size="14.00"> g5 = v6</text>
<text text-anchor="start" x="27.5" y="-2018.3" font-family="Times,serif" font-size="14.00"> g2 = v1</text>
<text text-anchor="start" x="27.5" y="-2003.3" font-family="Times,serif" font-size="14.00"> return &#45;20736</text>
</g>
<!-- Node0x902cf00&#45;&gt;Node0x8d67c50 -->
<g id="edge3" class="edge"><title>Node0x902cf00&#45;&gt;Node0x8d67c50</title>
<path fill="none" stroke="black" d="M95.2681,-2202.49C87.9602,-2197.63 81.3368,-2191.54 77,-2184 63.2932,-2160.16 62.4271,-2130 65.6664,-2103.91"/>
<polygon fill="black" stroke="black" points="69.1669,-2104.16 67.153,-2093.75 62.2407,-2103.14 69.1669,-2104.16"/>
<text text-anchor="middle" x="124" y="-2172.8" font-family="Times,serif" font-size="14.00">a1 == NULL</text>
</g>
<!-- Node0x8d66950 -->
<g id="node5" class="node"><title>Node0x8d66950</title>
<polygon fill="none" stroke="black" points="152,-2112.5 152,-2150.5 242,-2150.5 242,-2112.5 152,-2112.5"/>
<text text-anchor="start" x="160" y="-2135.3" font-family="Times,serif" font-size="14.00">v7 = *(a1)</text>
<text text-anchor="start" x="160" y="-2120.3" font-family="Times,serif" font-size="14.00"> g6 = v7</text>
</g>
<!-- Node0x902cf00&#45;&gt;Node0x8d66950 -->
<g id="edge4" class="edge"><title>Node0x902cf00&#45;&gt;Node0x8d66950</title>
<path fill="none" stroke="black" d="M158.749,-2202.39C164.518,-2196.93 170.444,-2190.59 175,-2184 180.031,-2176.72 184.266,-2168.11 187.634,-2160.03"/>
<polygon fill="black" stroke="black" points="190.951,-2161.16 191.308,-2150.57 184.425,-2158.63 190.951,-2161.16"/>
<text text-anchor="middle" x="228" y="-2172.8" font-family="Times,serif" font-size="14.00">a1 != NULL</text>
</g>
<!-- Node0x8d66400 -->
<g id="node6" class="node"><title>Node0x8d66400</title>
<polygon fill="none" stroke="black" points="148,-23.5 148,-59.5 202,-59.5 202,-23.5 148,-23.5"/>
<text text-anchor="start" x="156" y="-37.8" font-family="Times,serif" font-size="14.00">exit:</text>
</g>
<!-- Node0x8d67c50&#45;&gt;Node0x8d66400 -->
<g id="edge5" class="edge"><title>Node0x8d67c50&#45;&gt;Node0x8d66400</title>
<path fill="none" stroke="black" d="M80,-1995.48C80,-1971.46 80,-1941.94 80,-1915.5 80,-1915.5 80,-1915.5 80,-235.5 80,-171.046 90.334,-152.563 123,-97 129.473,-85.9905 138.574,-75.4498 147.357,-66.6223"/>
<polygon fill="black" stroke="black" points="149.829,-69.1002 154.594,-59.6375 144.968,-64.0632 149.829,-69.1002"/>
</g>
<!-- Node0x8d66ad0 -->
<g id="node7" class="node"><title>Node0x8d66ad0</title>
<polygon fill="none" stroke="black" points="144.5,-1940.5 144.5,-1976.5 249.5,-1976.5 249.5,-1940.5 144.5,-1940.5"/>
<text text-anchor="start" x="152.5" y="-1954.8" font-family="Times,serif" font-size="14.00">if (v7 == 0):</text>
</g>
<!-- Node0x8d66950&#45;&gt;Node0x8d66ad0 -->
<g id="edge6" class="edge"><title>Node0x8d66950&#45;&gt;Node0x8d66ad0</title>
<path fill="none" stroke="black" d="M197,-2112.2C197,-2082.06 197,-2021.82 197,-1986.69"/>
<polygon fill="black" stroke="black" points="200.5,-1986.65 197,-1976.65 193.5,-1986.65 200.5,-1986.65"/>
</g>
<!-- Node0x8d67460 -->
<g id="node8" class="node"><title>Node0x8d67460</title>
<polygon fill="none" stroke="black" points="95.5,-1733.5 95.5,-1831.5 216.5,-1831.5 216.5,-1733.5 95.5,-1733.5"/>
<text text-anchor="start" x="103.5" y="-1816.3" font-family="Times,serif" font-size="14.00">0x8062501:</text>
<text text-anchor="start" x="103.5" y="-1801.3" font-family="Times,serif" font-size="14.00"> g3 = v4</text>
<text text-anchor="start" x="103.5" y="-1786.3" font-family="Times,serif" font-size="14.00"> g7 = v5</text>
<text text-anchor="start" x="103.5" y="-1771.3" font-family="Times,serif" font-size="14.00"> g5 = v6</text>
<text text-anchor="start" x="103.5" y="-1756.3" font-family="Times,serif" font-size="14.00"> g2 = v1</text>
<text text-anchor="start" x="103.5" y="-1741.3" font-family="Times,serif" font-size="14.00"> return &#45;20736</text>
</g>
<!-- Node0x8d66ad0&#45;&gt;Node0x8d67460 -->
<g id="edge7" class="edge"><title>Node0x8d66ad0&#45;&gt;Node0x8d67460</title>
<path fill="none" stroke="black" d="M190.75,-1940.23C185.949,-1926.49 179.414,-1906.69 175,-1889 171.194,-1873.74 167.831,-1857.06 165.032,-1841.57"/>
<polygon fill="black" stroke="black" points="168.455,-1840.82 163.276,-1831.58 161.561,-1842.03 168.455,-1840.82"/>
<text text-anchor="middle" x="215" y="-1910.8" font-family="Times,serif" font-size="14.00">v7 == 0</text>
</g>
<!-- Node0x8d66df0 -->
<g id="node9" class="node"><title>Node0x8d66df0</title>
<polygon fill="none" stroke="black" points="184,-1850.5 184,-1888.5 498,-1888.5 498,-1850.5 184,-1850.5"/>
<text text-anchor="start" x="192" y="-1873.3" font-family="Times,serif" font-size="14.00">v8 = *(IntToPtrCastExpr&lt;ptr&gt;((v3 + 8)))</text>
<text text-anchor="start" x="192" y="-1858.3" font-family="Times,serif" font-size="14.00"> g5 = v8</text>
</g>
<!-- Node0x8d66ad0&#45;&gt;Node0x8d66df0 -->
<g id="edge8" class="edge"><title>Node0x8d66ad0&#45;&gt;Node0x8d66df0</title>
<path fill="none" stroke="black" d="M225.45,-1940.31C247.496,-1926.99 278.267,-1908.4 302.513,-1893.75"/>
<polygon fill="black" stroke="black" points="304.373,-1896.72 311.122,-1888.55 300.753,-1890.73 304.373,-1896.72"/>
<text text-anchor="middle" x="305" y="-1910.8" font-family="Times,serif" font-size="14.00">v7 != 0</text>
</g>
<!-- Node0x8d67460&#45;&gt;Node0x8d66400 -->
<g id="edge9" class="edge"><title>Node0x8d67460&#45;&gt;Node0x8d66400</title>
<path fill="none" stroke="black" d="M145.444,-1733.43C141.071,-1709.52 137,-1680.12 137,-1653.5 137,-1653.5 137,-1653.5 137,-235.5 137,-175.356 154.984,-106.622 166.209,-69.5817"/>
<polygon fill="black" stroke="black" points="169.692,-70.1659 169.311,-59.5779 163.006,-68.0924 169.692,-70.1659"/>
</g>
<!-- Node0x8d66e50 -->
<g id="node10" class="node"><title>Node0x8d66e50</title>
<polygon fill="none" stroke="black" points="288.5,-1678.5 288.5,-1714.5 393.5,-1714.5 393.5,-1678.5 288.5,-1678.5"/>
<text text-anchor="start" x="296.5" y="-1692.8" font-family="Times,serif" font-size="14.00">if (v8 == 0):</text>
</g>
<!-- Node0x8d66df0&#45;&gt;Node0x8d66e50 -->
<g id="edge10" class="edge"><title>Node0x8d66df0&#45;&gt;Node0x8d66e50</title>
<path fill="none" stroke="black" d="M341,-1850.2C341,-1820.06 341,-1759.82 341,-1724.69"/>
<polygon fill="black" stroke="black" points="344.5,-1724.65 341,-1714.65 337.5,-1724.65 344.5,-1724.65"/>
</g>
<!-- Node0x8d67130 -->
<g id="node11" class="node"><title>Node0x8d67130</title>
<polygon fill="none" stroke="black" points="175.5,-1426.5 175.5,-1524.5 296.5,-1524.5 296.5,-1426.5 175.5,-1426.5"/>
<text text-anchor="start" x="183.5" y="-1509.3" font-family="Times,serif" font-size="14.00">0x8062501:</text>
<text text-anchor="start" x="183.5" y="-1494.3" font-family="Times,serif" font-size="14.00"> g3 = v4</text>
<text text-anchor="start" x="183.5" y="-1479.3" font-family="Times,serif" font-size="14.00"> g7 = v5</text>
<text text-anchor="start" x="183.5" y="-1464.3" font-family="Times,serif" font-size="14.00"> g5 = v6</text>
<text text-anchor="start" x="183.5" y="-1449.3" font-family="Times,serif" font-size="14.00"> g2 = v1</text>
<text text-anchor="start" x="183.5" y="-1434.3" font-family="Times,serif" font-size="14.00"> return &#45;20736</text>
</g>
<!-- Node0x8d66e50&#45;&gt;Node0x8d67130 -->
<g id="edge11" class="edge"><title>Node0x8d66e50&#45;&gt;Node0x8d67130</title>
<path fill="none" stroke="black" d="M332.049,-1678.42C324.87,-1664.61 314.607,-1644.64 306,-1627 291.13,-1596.52 275.137,-1562.25 262.197,-1534.13"/>
<polygon fill="black" stroke="black" points="265.285,-1532.47 257.932,-1524.84 258.924,-1535.39 265.285,-1532.47"/>
<text text-anchor="middle" x="353" y="-1648.8" font-family="Times,serif" font-size="14.00">v8 == 0</text>
</g>
<!-- Node0x8d670d0 -->
<g id="node12" class="node"><title>Node0x8d670d0</title>
<polygon fill="none" stroke="black" points="315.5,-1543.5 315.5,-1626.5 638.5,-1626.5 638.5,-1543.5 315.5,-1543.5"/>
<text text-anchor="start" x="323.5" y="-1611.3" font-family="Times,serif" font-size="14.00">v9 = *(IntToPtrCastExpr&lt;ptr&gt;((v7 + 12)))</text>
<text text-anchor="start" x="323.5" y="-1596.3" font-family="Times,serif" font-size="14.00"> g237 = (v9 == a3)</text>
<text text-anchor="start" x="323.5" y="-1581.3" font-family="Times,serif" font-size="14.00"> v10 = a3</text>
<text text-anchor="start" x="323.5" y="-1566.3" font-family="Times,serif" font-size="14.00"> v11 = v9</text>
<text text-anchor="start" x="323.5" y="-1551.3" font-family="Times,serif" font-size="14.00"> v12</text>
</g>
<!-- Node0x8d66e50&#45;&gt;Node0x8d670d0 -->
<g id="edge12" class="edge"><title>Node0x8d66e50&#45;&gt;Node0x8d670d0</title>
<path fill="none" stroke="black" d="M362.25,-1678.39C377.419,-1666.18 398.604,-1649.12 418.647,-1632.98"/>
<polygon fill="black" stroke="black" points="420.958,-1635.62 426.552,-1626.62 416.568,-1630.16 420.958,-1635.62"/>
<text text-anchor="middle" x="428" y="-1648.8" font-family="Times,serif" font-size="14.00">v8 != 0</text>
</g>
<!-- Node0x8d67130&#45;&gt;Node0x8d66400 -->
<g id="edge13" class="edge"><title>Node0x8d67130&#45;&gt;Node0x8d66400</title>
<path fill="none" stroke="black" d="M200.693,-1426.25C187.203,-1403.26 175,-1374.69 175,-1346.5 175,-1346.5 175,-1346.5 175,-235.5 175,-176.337 175,-106.972 175,-69.6233"/>
<polygon fill="black" stroke="black" points="178.5,-69.5395 175,-59.5395 171.5,-69.5396 178.5,-69.5395"/>
</g>
<!-- Node0x8d66570 -->
<g id="node13" class="node"><title>Node0x8d66570</title>
<polygon fill="none" stroke="black" points="443.5,-1371.5 443.5,-1407.5 544.5,-1407.5 544.5,-1371.5 443.5,-1371.5"/>
<text text-anchor="start" x="451.5" y="-1385.8" font-family="Times,serif" font-size="14.00">if (v9 &lt; a3):</text>
</g>
<!-- Node0x8d670d0&#45;&gt;Node0x8d66570 -->
<g id="edge14" class="edge"><title>Node0x8d670d0&#45;&gt;Node0x8d66570</title>
<path fill="none" stroke="black" d="M480.564,-1543.44C483.87,-1505.8 488.702,-1450.81 491.581,-1418.04"/>
<polygon fill="black" stroke="black" points="495.088,-1418.1 492.477,-1407.84 488.115,-1417.49 495.088,-1418.1"/>
</g>
<!-- Node0x902a9e0 -->
<g id="node14" class="node"><title>Node0x902a9e0</title>
<polygon fill="none" stroke="black" points="203.5,-921.5 203.5,-1319.5 784.5,-1319.5 784.5,-921.5 203.5,-921.5"/>
<text text-anchor="start" x="211.5" y="-1304.3" font-family="Times,serif" font-size="14.00">v13 = *(IntToPtrCastExpr&lt;ptr&gt;((v3 + 4)))</text>
<text text-anchor="start" x="211.5" y="-1289.3" font-family="Times,serif" font-size="14.00"> g1 = v13</text>
<text text-anchor="start" x="211.5" y="-1274.3" font-family="Times,serif" font-size="14.00"> IntToPtrCastExpr&lt;ptr&gt;(*(IntToPtrCastExpr&lt;ptr&gt;((v7 + 16))))(v13)</text>
<text text-anchor="start" x="211.5" y="-1259.3" font-family="Times,serif" font-size="14.00"> g4 = a3</text>
<text text-anchor="start" x="211.5" y="-1244.3" font-family="Times,serif" font-size="14.00"> v14 = g3</text>
<text text-anchor="start" x="211.5" y="-1229.3" font-family="Times,serif" font-size="14.00"> v15 = *(IntToPtrCastExpr&lt;ptr&gt;(v14))</text>
<text text-anchor="start" x="211.5" y="-1214.3" font-family="Times,serif" font-size="14.00"> g1 = v15</text>
<text text-anchor="start" x="211.5" y="-1199.3" font-family="Times,serif" font-size="14.00"> v16 = g7</text>
<text text-anchor="start" x="211.5" y="-1184.3" font-family="Times,serif" font-size="14.00"> v17 = &amp;(v12)</text>
<text text-anchor="start" x="211.5" y="-1169.3" font-family="Times,serif" font-size="14.00"> g7 = v17</text>
<text text-anchor="start" x="211.5" y="-1154.3" font-family="Times,serif" font-size="14.00"> v18 = *(IntToPtrCastExpr&lt;ptr&gt;((v14 + 4)))</text>
<text text-anchor="start" x="211.5" y="-1139.3" font-family="Times,serif" font-size="14.00"> g6 = v18</text>
<text text-anchor="start" x="211.5" y="-1124.3" font-family="Times,serif" font-size="14.00"> IntToPtrCastExpr&lt;ptr&gt;(*(IntToPtrCastExpr&lt;ptr&gt;((v15 + 20))))(v18, v16, a3)</text>
<text text-anchor="start" x="211.5" y="-1109.3" font-family="Times,serif" font-size="14.00"> v19 = g3</text>
<text text-anchor="start" x="211.5" y="-1094.3" font-family="Times,serif" font-size="14.00"> v20 = *(IntToPtrCastExpr&lt;ptr&gt;(v19))</text>
<text text-anchor="start" x="211.5" y="-1079.3" font-family="Times,serif" font-size="14.00"> g1 = v20</text>
<text text-anchor="start" x="211.5" y="-1064.3" font-family="Times,serif" font-size="14.00"> v21 = *(IntToPtrCastExpr&lt;ptr&gt;((v19 + 4)))</text>
<text text-anchor="start" x="211.5" y="-1049.3" font-family="Times,serif" font-size="14.00"> g6 = v21</text>
<text text-anchor="start" x="211.5" y="-1034.3" font-family="Times,serif" font-size="14.00"> IntToPtrCastExpr&lt;ptr&gt;(*(IntToPtrCastExpr&lt;ptr&gt;((v20 + 24))))(v21, v17)</text>
<text text-anchor="start" x="211.5" y="-1019.3" font-family="Times,serif" font-size="14.00"> v22 = g3</text>
<text text-anchor="start" x="211.5" y="-1004.3" font-family="Times,serif" font-size="14.00"> v23 = *(IntToPtrCastExpr&lt;ptr&gt;(v22))</text>
<text text-anchor="start" x="211.5" y="-989.3" font-family="Times,serif" font-size="14.00"> v24 = *(IntToPtrCastExpr&lt;ptr&gt;((v22 + 8)))</text>
<text text-anchor="start" x="211.5" y="-974.3" font-family="Times,serif" font-size="14.00"> g5 = v24</text>
<text text-anchor="start" x="211.5" y="-959.3" font-family="Times,serif" font-size="14.00"> v10 = *(IntToPtrCastExpr&lt;ptr&gt;((v23 + 8)))</text>
<text text-anchor="start" x="211.5" y="-944.3" font-family="Times,serif" font-size="14.00"> v11 = *(IntToPtrCastExpr&lt;ptr&gt;((v23 + 12)))</text>
<text text-anchor="start" x="211.5" y="-929.3" font-family="Times,serif" font-size="14.00"> v8 = v24</text>
</g>
<!-- Node0x8d66570&#45;&gt;Node0x902a9e0 -->
<g id="edge15" class="edge"><title>Node0x8d66570&#45;&gt;Node0x902a9e0</title>
<path fill="none" stroke="black" d="M494,-1371.39C494,-1361 494,-1346.5 494,-1329.67"/>
<polygon fill="black" stroke="black" points="497.5,-1329.51 494,-1319.51 490.5,-1329.51 497.5,-1329.51"/>
<text text-anchor="middle" x="522" y="-1341.8" font-family="Times,serif" font-size="14.00">v9 &lt; a3</text>
</g>
<!-- Node0x8d67550 -->
<g id="node15" class="node"><title>Node0x8d67550</title>
<polygon fill="none" stroke="black" points="333,-815.5 333,-883.5 1139,-883.5 1139,-815.5 333,-815.5"/>
<text text-anchor="start" x="341" y="-868.3" font-family="Times,serif" font-size="14.00">v25 = (v8 + v11)</text>
<text text-anchor="start" x="341" y="-853.3" font-family="Times,serif" font-size="14.00"> memset(IntToPtrCastExpr&lt;ptr&gt;(v8), 54, v11)</text>
<text text-anchor="start" x="341" y="-838.3" font-family="Times,serif" font-size="14.00"> memset(IntToPtrCastExpr&lt;ptr&gt;(v25), 92, *(IntToPtrCastExpr&lt;ptr&gt;((*(IntToPtrCastExpr&lt;ptr&gt;(g3)) + 12))))</text>
<text text-anchor="start" x="341" y="-823.3" font-family="Times,serif" font-size="14.00"> g4 = v10</text>
</g>
<!-- Node0x8d66570&#45;&gt;Node0x8d67550 -->
<g id="edge16" class="edge"><title>Node0x8d66570&#45;&gt;Node0x8d67550</title>
<path fill="none" stroke="black" d="M544.571,-1384.41C621.783,-1377 763.357,-1358.43 794,-1320 904.56,-1181.35 853.842,-1087.93 794,-921 790.274,-910.605 784.28,-900.647 777.528,-891.657"/>
<polygon fill="black" stroke="black" points="780.136,-889.314 771.158,-883.688 774.668,-893.685 780.136,-889.314"/>
<text text-anchor="middle" x="893" y="-1116.8" font-family="Times,serif" font-size="14.00">v9 &gt;= a3</text>
</g>
<!-- Node0x902a9e0&#45;&gt;Node0x8d67550 -->
<g id="edge17" class="edge"><title>Node0x902a9e0&#45;&gt;Node0x8d67550</title>
<path fill="none" stroke="black" d="M672.417,-921.177C682.171,-910.335 691.276,-900.214 699.376,-891.21"/>
<polygon fill="black" stroke="black" points="702.141,-893.369 706.228,-883.594 696.937,-888.688 702.141,-893.369"/>
</g>
<!-- Node0x8d675b0 -->
<g id="node16" class="node"><title>Node0x8d675b0</title>
<polygon fill="none" stroke="black" points="682,-741.5 682,-777.5 790,-777.5 790,-741.5 682,-741.5"/>
<text text-anchor="start" x="690" y="-755.8" font-family="Times,serif" font-size="14.00">if (v10 != 0):</text>
</g>
<!-- Node0x8d67550&#45;&gt;Node0x8d675b0 -->
<g id="edge18" class="edge"><title>Node0x8d67550&#45;&gt;Node0x8d675b0</title>
<path fill="none" stroke="black" d="M736,-815.482C736,-806.328 736,-796.497 736,-787.715"/>
<polygon fill="black" stroke="black" points="739.5,-787.64 736,-777.64 732.5,-787.64 739.5,-787.64"/>
</g>
<!-- Node0x8d67950 -->
<g id="node17" class="node"><title>Node0x8d67950</title>
<polygon fill="none" stroke="black" points="294.5,-501.5 294.5,-689.5 983.5,-689.5 983.5,-501.5 294.5,-501.5"/>
<text text-anchor="start" x="302.5" y="-674.3" font-family="Times,serif" font-size="14.00">v26 = 0</text>
<text text-anchor="start" x="302.5" y="-659.3" font-family="Times,serif" font-size="14.00"> v27 = 0</text>
<text text-anchor="start" x="302.5" y="-644.3" font-family="Times,serif" font-size="14.00"> v28 = *(IntToPtrCastExpr&lt;ptr&gt;((g7 + v27)))</text>
<text text-anchor="start" x="302.5" y="-629.3" font-family="Times,serif" font-size="14.00"> v29 = IntToPtrCastExpr&lt;ptr&gt;((g5 + v27))</text>
<text text-anchor="start" x="302.5" y="-614.3" font-family="Times,serif" font-size="14.00"> *(v29) = TruncCastExpr&lt;int8&gt;((ExtCastExpr&lt;int32&gt;(*(v29)) ^ ExtCastExpr&lt;int32&gt;(v28)))</text>
<text text-anchor="start" x="302.5" y="-599.3" font-family="Times,serif" font-size="14.00"> v30 = v26</text>
<text text-anchor="start" x="302.5" y="-584.3" font-family="Times,serif" font-size="14.00"> v31 = *(IntToPtrCastExpr&lt;ptr&gt;((v30 + g7)))</text>
<text text-anchor="start" x="302.5" y="-569.3" font-family="Times,serif" font-size="14.00"> g4 = v31</text>
<text text-anchor="start" x="302.5" y="-554.3" font-family="Times,serif" font-size="14.00"> v32 = IntToPtrCastExpr&lt;ptr&gt;((v25 + v30))</text>
<text text-anchor="start" x="302.5" y="-539.3" font-family="Times,serif" font-size="14.00"> *(v32) = (*(v32) ^ v31)</text>
<text text-anchor="start" x="302.5" y="-524.3" font-family="Times,serif" font-size="14.00"> v33 = (v26 + 1)</text>
<text text-anchor="start" x="302.5" y="-509.3" font-family="Times,serif" font-size="14.00"> v26 = v33</text>
</g>
<!-- Node0x8d675b0&#45;&gt;Node0x8d67950 -->
<g id="edge19" class="edge"><title>Node0x8d675b0&#45;&gt;Node0x8d67950</title>
<path fill="none" stroke="black" d="M725.803,-741.469C719.217,-730.47 710.044,-715.15 700.112,-698.564"/>
<polygon fill="black" stroke="black" points="703,-696.573 694.859,-689.791 696.994,-700.169 703,-696.573"/>
<text text-anchor="middle" x="743.5" y="-711.8" font-family="Times,serif" font-size="14.00">v10 != 0</text>
</g>
<!-- Node0x8d67840 -->
<g id="node18" class="node"><title>Node0x8d67840</title>
<polygon fill="none" stroke="black" points="1045.5,-546.5 1045.5,-644.5 1324.5,-644.5 1324.5,-546.5 1045.5,-546.5"/>
<text text-anchor="start" x="1053.5" y="-629.3" font-family="Times,serif" font-size="14.00">v34 = &amp;(v12)</text>
<text text-anchor="start" x="1053.5" y="-614.3" font-family="Times,serif" font-size="14.00"> v35</text>
<text text-anchor="start" x="1053.5" y="-599.3" font-family="Times,serif" font-size="14.00"> v36 = &amp;(v35)</text>
<text text-anchor="start" x="1053.5" y="-584.3" font-family="Times,serif" font-size="14.00"> *(IntToPtrCastExpr&lt;ptr&gt;(v34)) = 0</text>
<text text-anchor="start" x="1053.5" y="-569.3" font-family="Times,serif" font-size="14.00"> v37 = (v34 + 1)</text>
<text text-anchor="start" x="1053.5" y="-554.3" font-family="Times,serif" font-size="14.00"> g237 = (v37 == v36)</text>
</g>
<!-- Node0x8d675b0&#45;&gt;Node0x8d67840 -->
<g id="edge20" class="edge"><title>Node0x8d675b0&#45;&gt;Node0x8d67840</title>
<path fill="none" stroke="black" d="M790.097,-747.274C842.764,-735.605 924.638,-715.484 993,-690 1024.01,-678.439 1056.74,-663.573 1086.22,-649.111"/>
<polygon fill="black" stroke="black" points="1087.85,-652.211 1095.26,-644.64 1084.74,-645.937 1087.85,-652.211"/>
<text text-anchor="middle" x="971.5" y="-711.8" font-family="Times,serif" font-size="14.00">v10 == 0</text>
</g>
<!-- Node0x8d66b80 -->
<g id="node19" class="node"><title>Node0x8d66b80</title>
<polygon fill="none" stroke="black" points="534,-427.5 534,-463.5 682,-463.5 682,-427.5 534,-427.5"/>
<text text-anchor="start" x="542" y="-441.8" font-family="Times,serif" font-size="14.00">while (v10 &gt; v33):</text>
</g>
<!-- Node0x8d67950&#45;&gt;Node0x8d66b80 -->
<g id="edge21" class="edge"><title>Node0x8d67950&#45;&gt;Node0x8d66b80</title>
<path fill="none" stroke="black" d="M619.455,-501.189C617.37,-491.236 615.39,-481.783 613.681,-473.624"/>
<polygon fill="black" stroke="black" points="617.08,-472.778 611.604,-463.708 610.229,-474.213 617.08,-472.778"/>
</g>
<!-- Node0x8d678a0 -->
<g id="node20" class="node"><title>Node0x8d678a0</title>
<polygon fill="none" stroke="black" points="1141,-427.5 1141,-463.5 1295,-463.5 1295,-427.5 1141,-427.5"/>
<text text-anchor="start" x="1149" y="-441.8" font-family="Times,serif" font-size="14.00">while (v37 != v36):</text>
</g>
<!-- Node0x8d67840&#45;&gt;Node0x8d678a0 -->
<g id="edge22" class="edge"><title>Node0x8d67840&#45;&gt;Node0x8d678a0</title>
<path fill="none" stroke="black" d="M1195.71,-546.449C1201.1,-522.298 1207.43,-493.926 1211.96,-473.593"/>
<polygon fill="black" stroke="black" points="1215.39,-474.28 1214.15,-463.758 1208.56,-472.757 1215.39,-474.28"/>
</g>
<!-- Node0x8d66b80&#45;&gt;Node0x8d66400 -->
<g id="edge24" class="edge"><title>Node0x8d66b80&#45;&gt;Node0x8d66400</title>
<path fill="none" stroke="black" d="M533.893,-441.131C435.905,-435.047 270.839,-418.615 230,-376 183.749,-327.738 205.938,-142.664 189,-78 188.219,-75.0198 187.26,-71.9511 186.214,-68.9242"/>
<polygon fill="black" stroke="black" points="189.485,-67.6795 182.682,-59.5575 182.935,-70.1493 189.485,-67.6795"/>
<text text-anchor="middle" x="273" y="-232.8" font-family="Times,serif" font-size="14.00">v10 &lt;= v33</text>
</g>
<!-- Node0x8d67e60 -->
<g id="node21" class="node"><title>Node0x8d67e60</title>
<polygon fill="none" stroke="black" points="325.5,-142.5 325.5,-330.5 1014.5,-330.5 1014.5,-142.5 325.5,-142.5"/>
<text text-anchor="start" x="333.5" y="-315.3" font-family="Times,serif" font-size="14.00">0x8062578:</text>
<text text-anchor="start" x="333.5" y="-300.3" font-family="Times,serif" font-size="14.00"> v27 = v33</text>
<text text-anchor="start" x="333.5" y="-285.3" font-family="Times,serif" font-size="14.00"> v28 = *(IntToPtrCastExpr&lt;ptr&gt;((g7 + v27)))</text>
<text text-anchor="start" x="333.5" y="-270.3" font-family="Times,serif" font-size="14.00"> v29 = IntToPtrCastExpr&lt;ptr&gt;((g5 + v27))</text>
<text text-anchor="start" x="333.5" y="-255.3" font-family="Times,serif" font-size="14.00"> *(v29) = TruncCastExpr&lt;int8&gt;((ExtCastExpr&lt;int32&gt;(*(v29)) ^ ExtCastExpr&lt;int32&gt;(v28)))</text>
<text text-anchor="start" x="333.5" y="-240.3" font-family="Times,serif" font-size="14.00"> v30 = v26</text>
<text text-anchor="start" x="333.5" y="-225.3" font-family="Times,serif" font-size="14.00"> v31 = *(IntToPtrCastExpr&lt;ptr&gt;((v30 + g7)))</text>
<text text-anchor="start" x="333.5" y="-210.3" font-family="Times,serif" font-size="14.00"> g4 = v31</text>
<text text-anchor="start" x="333.5" y="-195.3" font-family="Times,serif" font-size="14.00"> v32 = IntToPtrCastExpr&lt;ptr&gt;((v25 + v30))</text>
<text text-anchor="start" x="333.5" y="-180.3" font-family="Times,serif" font-size="14.00"> *(v32) = (*(v32) ^ v31)</text>
<text text-anchor="start" x="333.5" y="-165.3" font-family="Times,serif" font-size="14.00"> v33 = (v26 + 1)</text>
<text text-anchor="start" x="333.5" y="-150.3" font-family="Times,serif" font-size="14.00"> v26 = v33</text>
</g>
<!-- Node0x8d66b80&#45;&gt;Node0x8d67e60 -->
<g id="edge23" class="edge"><title>Node0x8d66b80&#45;&gt;Node0x8d67e60</title>
<path fill="none" stroke="black" d="M605.327,-427.05C604.319,-417.251 603.868,-404.848 606,-394 609.487,-376.259 615.001,-357.996 621.365,-340.488"/>
<polygon fill="black" stroke="black" points="624.746,-341.44 624.981,-330.847 618.192,-338.982 624.746,-341.44"/>
<text text-anchor="middle" x="643" y="-397.8" font-family="Times,serif" font-size="14.00">v10 &gt; v33</text>
</g>
<!-- Node0x8d684d0 -->
<g id="node22" class="node"><title>Node0x8d684d0</title>
<polygon fill="none" stroke="black" points="1032.5,-202.5 1032.5,-270.5 1311.5,-270.5 1311.5,-202.5 1032.5,-202.5"/>
<text text-anchor="start" x="1040.5" y="-255.3" font-family="Times,serif" font-size="14.00">0x8062598:</text>
<text text-anchor="start" x="1040.5" y="-240.3" font-family="Times,serif" font-size="14.00"> *(IntToPtrCastExpr&lt;ptr&gt;(v37)) = 0</text>
<text text-anchor="start" x="1040.5" y="-225.3" font-family="Times,serif" font-size="14.00"> v37 = (v37 + 1)</text>
<text text-anchor="start" x="1040.5" y="-210.3" font-family="Times,serif" font-size="14.00"> g237 = (v37 == v36)</text>
</g>
<!-- Node0x8d678a0&#45;&gt;Node0x8d684d0 -->
<g id="edge25" class="edge"><title>Node0x8d678a0&#45;&gt;Node0x8d684d0</title>
<path fill="none" stroke="black" d="M1145.56,-427.429C1137.49,-422.709 1130.29,-416.686 1125,-409 1098.09,-369.925 1120.43,-315.96 1142.58,-279.064"/>
<polygon fill="black" stroke="black" points="1145.57,-280.877 1147.88,-270.536 1139.63,-277.183 1145.57,-280.877"/>
<text text-anchor="middle" x="1165" y="-397.8" font-family="Times,serif" font-size="14.00">v37 != v36</text>
</g>
<!-- Node0x8d679e0 -->
<g id="node23" class="node"><title>Node0x8d679e0</title>
<polygon fill="none" stroke="black" points="1329.5,-97.5 1329.5,-375.5 1910.5,-375.5 1910.5,-97.5 1329.5,-97.5"/>
<text text-anchor="start" x="1337.5" y="-360.3" font-family="Times,serif" font-size="14.00">v38 = g3</text>
<text text-anchor="start" x="1337.5" y="-345.3" font-family="Times,serif" font-size="14.00"> v39 = *(IntToPtrCastExpr&lt;ptr&gt;(v38))</text>
<text text-anchor="start" x="1337.5" y="-330.3" font-family="Times,serif" font-size="14.00"> g1 = v39</text>
<text text-anchor="start" x="1337.5" y="-315.3" font-family="Times,serif" font-size="14.00"> v40 = *(IntToPtrCastExpr&lt;ptr&gt;((v38 + 4)))</text>
<text text-anchor="start" x="1337.5" y="-300.3" font-family="Times,serif" font-size="14.00"> g6 = v40</text>
<text text-anchor="start" x="1337.5" y="-285.3" font-family="Times,serif" font-size="14.00"> IntToPtrCastExpr&lt;ptr&gt;(*(IntToPtrCastExpr&lt;ptr&gt;((v39 + 16))))(v40)</text>
<text text-anchor="start" x="1337.5" y="-270.3" font-family="Times,serif" font-size="14.00"> v41 = g3</text>
<text text-anchor="start" x="1337.5" y="-255.3" font-family="Times,serif" font-size="14.00"> v42 = *(IntToPtrCastExpr&lt;ptr&gt;(v41))</text>
<text text-anchor="start" x="1337.5" y="-240.3" font-family="Times,serif" font-size="14.00"> g1 = v42</text>
<text text-anchor="start" x="1337.5" y="-225.3" font-family="Times,serif" font-size="14.00"> v43 = *(IntToPtrCastExpr&lt;ptr&gt;((v41 + 4)))</text>
<text text-anchor="start" x="1337.5" y="-210.3" font-family="Times,serif" font-size="14.00"> g6 = v43</text>
<text text-anchor="start" x="1337.5" y="-195.3" font-family="Times,serif" font-size="14.00"> v44 = *(IntToPtrCastExpr&lt;ptr&gt;((v42 + 20)))</text>
<text text-anchor="start" x="1337.5" y="-180.3" font-family="Times,serif" font-size="14.00"> IntToPtrCastExpr&lt;ptr&gt;(v44)(v43, g5, *(IntToPtrCastExpr&lt;ptr&gt;((v42 + 12))))</text>
<text text-anchor="start" x="1337.5" y="-165.3" font-family="Times,serif" font-size="14.00"> g3 = v4</text>
<text text-anchor="start" x="1337.5" y="-150.3" font-family="Times,serif" font-size="14.00"> g7 = v5</text>
<text text-anchor="start" x="1337.5" y="-135.3" font-family="Times,serif" font-size="14.00"> g5 = v6</text>
<text text-anchor="start" x="1337.5" y="-120.3" font-family="Times,serif" font-size="14.00"> g2 = v2</text>
<text text-anchor="start" x="1337.5" y="-105.3" font-family="Times,serif" font-size="14.00"> return 0</text>
</g>
<!-- Node0x8d678a0&#45;&gt;Node0x8d679e0 -->
<g id="edge26" class="edge"><title>Node0x8d678a0&#45;&gt;Node0x8d679e0</title>
<path fill="none" stroke="black" d="M1251.24,-427.384C1273.87,-415.731 1306.23,-399.07 1342.49,-380.399"/>
<polygon fill="black" stroke="black" points="1344.5,-383.3 1351.79,-375.61 1341.29,-377.077 1344.5,-383.3"/>
<text text-anchor="middle" x="1358" y="-397.8" font-family="Times,serif" font-size="14.00">v37 == v36</text>
</g>
<!-- Node0x8d67e60&#45;&gt;Node0x8d66b80 -->
<g id="edge27" class="edge"><title>Node0x8d67e60&#45;&gt;Node0x8d66b80</title>
<path fill="none" stroke="black" d="M694.97,-330.672C697.212,-357.62 694.333,-385.953 680,-409 677.056,-413.734 673.274,-417.855 668.988,-421.44"/>
<polygon fill="black" stroke="black" points="666.876,-418.648 660.801,-427.329 670.963,-424.331 666.876,-418.648"/>
</g>
<!-- Node0x8d684d0&#45;&gt;Node0x8d678a0 -->
<g id="edge28" class="edge"><title>Node0x8d684d0&#45;&gt;Node0x8d678a0</title>
<path fill="none" stroke="black" d="M1179.38,-270.72C1188.44,-311.459 1203.61,-379.729 1211.98,-417.432"/>
<polygon fill="black" stroke="black" points="1208.57,-418.205 1214.16,-427.207 1215.4,-416.686 1208.57,-418.205"/>
</g>
<!-- Node0x8d679e0&#45;&gt;Node0x8d66400 -->
<g id="edge29" class="edge"><title>Node0x8d679e0&#45;&gt;Node0x8d66400</title>
<path fill="none" stroke="black" d="M1329.35,-99.1226C1326.56,-98.3897 1323.78,-97.6817 1321,-97 1103.58,-43.6422 384.359,-41.9686 212.243,-42.3535"/>
<polygon fill="black" stroke="black" points="212.153,-38.8536 202.162,-42.3799 212.171,-45.8536 212.153,-38.8536"/>
</g>
</g>
</svg>
