<?xml version="1.0" encoding="UTF-8" standalone="no"?>
<!DOCTYPE svg PUBLIC "-//W3C//DTD SVG 1.1//EN"
 "http://www.w3.org/Graphics/SVG/1.1/DTD/svg11.dtd">
<!-- Generated by graphviz version 2.38.0 (20140413.2041)
 -->
<!-- Title: Control&#45;flow graph for function &#39;mbedtls_ecp_point_init(a1)&#39;. Pages: 1 -->
<svg width="505pt" height="520pt"
 viewBox="0.00 0.00 504.50 520.00" xmlns="http://www.w3.org/2000/svg" xmlns:xlink="http://www.w3.org/1999/xlink">
<g id="graph0" class="graph" transform="scale(1 1) rotate(0) translate(4 516)">
<title>Control&#45;flow graph for function &#39;mbedtls_ecp_point_init(a1)&#39;.</title>
<polygon fill="white" stroke="none" points="-4,4 -4,-516 500.5,-516 500.5,4 -4,4"/>
<text text-anchor="middle" x="248.25" y="-7.8" font-family="Times,serif" font-size="14.00">Control&#45;flow graph for function &#39;mbedtls_ecp_point_init(a1)&#39;.</text>
<!-- Node0xb688be0 -->
<g id="node1" class="node"><title>Node0xb688be0</title>
<polygon fill="none" stroke="black" points="363,-473.5 363,-511.5 422,-511.5 422,-473.5 363,-473.5"/>
<text text-anchor="start" x="371" y="-496.3" font-family="Times,serif" font-size="14.00">entry:</text>
<text text-anchor="start" x="371" y="-481.3" font-family="Times,serif" font-size="14.00"> a1</text>
</g>
<!-- Node0x1c781ec0 -->
<g id="node2" class="node"><title>Node0x1c781ec0</title>
<polygon fill="none" stroke="black" points="342,-397.5 342,-435.5 443,-435.5 443,-397.5 342,-397.5"/>
<text text-anchor="start" x="350" y="-420.3" font-family="Times,serif" font-size="14.00">0x805bc60:</text>
<text text-anchor="start" x="350" y="-405.3" font-family="Times,serif" font-size="14.00"> result</text>
</g>
<!-- Node0xb688be0&#45;&gt;Node0x1c781ec0 -->
<g id="edge1" class="edge"><title>Node0xb688be0&#45;&gt;Node0x1c781ec0</title>
<path fill="none" stroke="black" d="M392.5,-473.208C392.5,-464.964 392.5,-455.038 392.5,-445.862"/>
<polygon fill="black" stroke="black" points="396,-445.582 392.5,-435.582 389,-445.582 396,-445.582"/>
</g>
<!-- Node0x1c781f40 -->
<g id="node3" class="node"><title>Node0x1c781f40</title>
<polygon fill="none" stroke="black" points="343,-323.5 343,-359.5 442,-359.5 442,-323.5 343,-323.5"/>
<text text-anchor="start" x="351" y="-337.8" font-family="Times,serif" font-size="14.00">if (a1 != 0):</text>
</g>
<!-- Node0x1c781ec0&#45;&gt;Node0x1c781f40 -->
<g id="edge2" class="edge"><title>Node0x1c781ec0&#45;&gt;Node0x1c781f40</title>
<path fill="none" stroke="black" d="M392.5,-397.455C392.5,-389.201 392.5,-379.238 392.5,-370.074"/>
<polygon fill="black" stroke="black" points="396,-369.835 392.5,-359.835 389,-369.835 396,-369.835"/>
</g>
<!-- Node0xb689f70 -->
<g id="node4" class="node"><title>Node0xb689f70</title>
<polygon fill="none" stroke="black" points="0,-173.5 0,-271.5 419,-271.5 419,-173.5 0,-173.5"/>
<text text-anchor="start" x="8" y="-256.3" font-family="Times,serif" font-size="14.00">0x805bc6e:</text>
<text text-anchor="start" x="8" y="-241.3" font-family="Times,serif" font-size="14.00"> mbedtls_mpi_init(IntToPtrCastExpr&lt;ptr&gt;(a1))</text>
<text text-anchor="start" x="8" y="-226.3" font-family="Times,serif" font-size="14.00"> mbedtls_mpi_init(IntToPtrCastExpr&lt;ptr&gt;((a1 + 12)))</text>
<text text-anchor="start" x="8" y="-211.3" font-family="Times,serif" font-size="14.00"> v1</text>
<text text-anchor="start" x="8" y="-196.3" font-family="Times,serif" font-size="14.00"> result = mbedtls_mpi_init(IntToPtrCastExpr&lt;ptr&gt;(v1))</text>
<text text-anchor="start" x="8" y="-181.3" font-family="Times,serif" font-size="14.00"> g1 = result</text>
</g>
<!-- Node0x1c781f40&#45;&gt;Node0xb689f70 -->
<g id="edge3" class="edge"><title>Node0x1c781f40&#45;&gt;Node0xb689f70</title>
<path fill="none" stroke="black" d="M365.89,-323.487C346.659,-311.192 319.547,-293.858 293.289,-277.07"/>
<polygon fill="black" stroke="black" points="295.115,-274.084 284.805,-271.646 291.345,-279.981 295.115,-274.084"/>
<text text-anchor="middle" x="360.5" y="-293.8" font-family="Times,serif" font-size="14.00">a1 != 0</text>
</g>
<!-- Node0xb689ec0 -->
<g id="node5" class="node"><title>Node0xb689ec0</title>
<polygon fill="none" stroke="black" points="330,-97.5 330,-135.5 443,-135.5 443,-97.5 330,-97.5"/>
<text text-anchor="start" x="338" y="-120.3" font-family="Times,serif" font-size="14.00">0x805bc98:</text>
<text text-anchor="start" x="338" y="-105.3" font-family="Times,serif" font-size="14.00"> return result</text>
</g>
<!-- Node0x1c781f40&#45;&gt;Node0xb689ec0 -->
<g id="edge4" class="edge"><title>Node0x1c781f40&#45;&gt;Node0xb689ec0</title>
<path fill="none" stroke="black" d="M404.152,-323.375C412.488,-310.034 423,-290.697 427.5,-272 437.796,-229.222 441.263,-214.792 427.5,-173 424.036,-162.48 417.726,-152.32 411.078,-143.632"/>
<polygon fill="black" stroke="black" points="413.715,-141.327 404.683,-135.79 408.29,-145.751 413.715,-141.327"/>
<text text-anchor="middle" x="466.5" y="-218.8" font-family="Times,serif" font-size="14.00">a1 == 0</text>
</g>
<!-- Node0xb689f70&#45;&gt;Node0xb689ec0 -->
<g id="edge5" class="edge"><title>Node0xb689f70&#45;&gt;Node0xb689ec0</title>
<path fill="none" stroke="black" d="M291.265,-173.458C310.677,-162.051 330.524,-150.39 347.041,-140.685"/>
<polygon fill="black" stroke="black" points="349.002,-143.592 355.851,-135.509 345.456,-137.557 349.002,-143.592"/>
</g>
<!-- Node0xb6880d0 -->
<g id="node6" class="node"><title>Node0xb6880d0</title>
<polygon fill="none" stroke="black" points="359.5,-23.5 359.5,-59.5 413.5,-59.5 413.5,-23.5 359.5,-23.5"/>
<text text-anchor="start" x="367.5" y="-37.8" font-family="Times,serif" font-size="14.00">exit:</text>
</g>
<!-- Node0xb689ec0&#45;&gt;Node0xb6880d0 -->
<g id="edge6" class="edge"><title>Node0xb689ec0&#45;&gt;Node0xb6880d0</title>
<path fill="none" stroke="black" d="M386.5,-97.4551C386.5,-89.2008 386.5,-79.2377 386.5,-70.0742"/>
<polygon fill="black" stroke="black" points="390,-69.8347 386.5,-59.8347 383,-69.8347 390,-69.8347"/>
</g>
</g>
</svg>
