<?xml version="1.0" encoding="UTF-8" standalone="no"?>
<!DOCTYPE svg PUBLIC "-//W3C//DTD SVG 1.1//EN"
 "http://www.w3.org/Graphics/SVG/1.1/DTD/svg11.dtd">
<!-- Generated by graphviz version 2.38.0 (20140413.2041)
 -->
<!-- Title: Control&#45;flow graph for function &#39;ecp_mod_p192(a1)&#39;. Pages: 1 -->
<svg width="2409pt" height="1686pt"
 viewBox="0.00 0.00 2409.00 1686.00" xmlns="http://www.w3.org/2000/svg" xmlns:xlink="http://www.w3.org/1999/xlink">
<g id="graph0" class="graph" transform="scale(1 1) rotate(0) translate(4 1682)">
<title>Control&#45;flow graph for function &#39;ecp_mod_p192(a1)&#39;.</title>
<polygon fill="white" stroke="none" points="-4,4 -4,-1682 2405,-1682 2405,4 -4,4"/>
<text text-anchor="middle" x="1200.5" y="-7.8" font-family="Times,serif" font-size="14.00">Control&#45;flow graph for function &#39;ecp_mod_p192(a1)&#39;.</text>
<!-- Node0x21076ec0 -->
<g id="node1" class="node"><title>Node0x21076ec0</title>
<polygon fill="none" stroke="black" points="1973.5,-1639.5 1973.5,-1677.5 2032.5,-1677.5 2032.5,-1639.5 1973.5,-1639.5"/>
<text text-anchor="start" x="1981.5" y="-1662.3" font-family="Times,serif" font-size="14.00">entry:</text>
<text text-anchor="start" x="1981.5" y="-1647.3" font-family="Times,serif" font-size="14.00"> a1</text>
</g>
<!-- Node0x2ac9c080 -->
<g id="node2" class="node"><title>Node0x2ac9c080</title>
<polygon fill="none" stroke="black" points="1774,-1533.5 1774,-1601.5 2232,-1601.5 2232,-1533.5 1774,-1533.5"/>
<text text-anchor="start" x="1782" y="-1586.3" font-family="Times,serif" font-size="14.00">v1 = g3</text>
<text text-anchor="start" x="1782" y="-1571.3" font-family="Times,serif" font-size="14.00"> g3 = a1</text>
<text text-anchor="start" x="1782" y="-1556.3" font-family="Times,serif" font-size="14.00"> result = mbedtls_mpi_grow(a1, IntToPtrCastExpr&lt;ptr&gt;(12))</text>
<text text-anchor="start" x="1782" y="-1541.3" font-family="Times,serif" font-size="14.00"> g1 = result</text>
</g>
<!-- Node0x21076ec0&#45;&gt;Node0x2ac9c080 -->
<g id="edge1" class="edge"><title>Node0x21076ec0&#45;&gt;Node0x2ac9c080</title>
<path fill="none" stroke="black" d="M2003,-1639.49C2003,-1631.42 2003,-1621.53 2003,-1611.72"/>
<polygon fill="black" stroke="black" points="2006.5,-1611.6 2003,-1601.6 1999.5,-1611.6 2006.5,-1611.6"/>
</g>
<!-- Node0x2ac9c1c0 -->
<g id="node3" class="node"><title>Node0x2ac9c1c0</title>
<polygon fill="none" stroke="black" points="1938,-1459.5 1938,-1495.5 2068,-1495.5 2068,-1459.5 1938,-1459.5"/>
<text text-anchor="start" x="1946" y="-1473.8" font-family="Times,serif" font-size="14.00">if (result == 0):</text>
</g>
<!-- Node0x2ac9c080&#45;&gt;Node0x2ac9c1c0 -->
<g id="edge2" class="edge"><title>Node0x2ac9c080&#45;&gt;Node0x2ac9c1c0</title>
<path fill="none" stroke="black" d="M2003,-1533.48C2003,-1524.33 2003,-1514.5 2003,-1505.72"/>
<polygon fill="black" stroke="black" points="2006.5,-1505.64 2003,-1495.64 1999.5,-1505.64 2006.5,-1505.64"/>
</g>
<!-- Node0xef4b630 -->
<g id="node4" class="node"><title>Node0xef4b630</title>
<polygon fill="none" stroke="black" points="0,-454.5 0,-1407.5 2294,-1407.5 2294,-454.5 0,-454.5"/>
<text text-anchor="start" x="8" y="-1392.3" font-family="Times,serif" font-size="14.00">v2 = *(IntToPtrCastExpr&lt;ptr&gt;((g3 + 8)))</text>
<text text-anchor="start" x="8" y="-1377.3" font-family="Times,serif" font-size="14.00"> v3 = v2</text>
<text text-anchor="start" x="8" y="-1362.3" font-family="Times,serif" font-size="14.00"> v4 = IntToPtrCastExpr&lt;ptr&gt;(v2)</text>
<text text-anchor="start" x="8" y="-1347.3" font-family="Times,serif" font-size="14.00"> v5 = *(v4)</text>
<text text-anchor="start" x="8" y="-1332.3" font-family="Times,serif" font-size="14.00"> v6 = ((4 * *(IntToPtrCastExpr&lt;ptr&gt;((g3 + 4)))) + v2)</text>
<text text-anchor="start" x="8" y="-1317.3" font-family="Times,serif" font-size="14.00"> v7 = (*(IntToPtrCastExpr&lt;ptr&gt;((v2 + 24))) + v5)</text>
<text text-anchor="start" x="8" y="-1302.3" font-family="Times,serif" font-size="14.00"> v8 = ExtCastExpr&lt;int32&gt;((v7 &lt; v5))</text>
<text text-anchor="start" x="8" y="-1287.3" font-family="Times,serif" font-size="14.00"> v9 = (v8 + *(IntToPtrCastExpr&lt;ptr&gt;((v2 + 4))))</text>
<text text-anchor="start" x="8" y="-1272.3" font-family="Times,serif" font-size="14.00"> v10 = (v9 + *(IntToPtrCastExpr&lt;ptr&gt;((v2 + 28))))</text>
<text text-anchor="start" x="8" y="-1257.3" font-family="Times,serif" font-size="14.00"> v11 = IntToPtrCastExpr&lt;ptr&gt;((v2 + 40))</text>
<text text-anchor="start" x="8" y="-1242.3" font-family="Times,serif" font-size="14.00"> v12 = (*(v11) + v7)</text>
<text text-anchor="start" x="8" y="-1227.3" font-family="Times,serif" font-size="14.00"> *(v4) = v12</text>
<text text-anchor="start" x="8" y="-1212.3" font-family="Times,serif" font-size="14.00"> v13 = (ExtCastExpr&lt;int32&gt;((v12 &lt; *(v11))) + v10)</text>
<text text-anchor="start" x="8" y="-1197.3" font-family="Times,serif" font-size="14.00"> v14 = v3</text>
<text text-anchor="start" x="8" y="-1182.3" font-family="Times,serif" font-size="14.00"> v15 = IntToPtrCastExpr&lt;ptr&gt;((v14 + 44))</text>
<text text-anchor="start" x="8" y="-1167.3" font-family="Times,serif" font-size="14.00"> v16 = (v13 + *(v15))</text>
<text text-anchor="start" x="8" y="-1152.3" font-family="Times,serif" font-size="14.00"> v17 = *(v15)</text>
<text text-anchor="start" x="8" y="-1137.3" font-family="Times,serif" font-size="14.00"> *(IntToPtrCastExpr&lt;ptr&gt;((v14 + 4))) = v16</text>
<text text-anchor="start" x="8" y="-1122.3" font-family="Times,serif" font-size="14.00"> v18 = v3</text>
<text text-anchor="start" x="8" y="-1107.3" font-family="Times,serif" font-size="14.00"> v19 = *(IntToPtrCastExpr&lt;ptr&gt;((v18 + 12)))</text>
<text text-anchor="start" x="8" y="-1092.3" font-family="Times,serif" font-size="14.00"> v20 = ((ExtCastExpr&lt;int32&gt;((v16 &lt; v17)) + ExtCastExpr&lt;int32&gt;((v13 &lt; v10))) + (ExtCastExpr&lt;int32&gt;((v10 &lt; v9)) + ExtCastExpr&lt;int32&gt;((v9 &lt; v8))))</text>
<text text-anchor="start" x="8" y="-1077.3" font-family="Times,serif" font-size="14.00"> v21 = IntToPtrCastExpr&lt;ptr&gt;((v18 + 8))</text>
<text text-anchor="start" x="8" y="-1062.3" font-family="Times,serif" font-size="14.00"> v22 = (v20 + *(v21))</text>
<text text-anchor="start" x="8" y="-1047.3" font-family="Times,serif" font-size="14.00"> v23 = ExtCastExpr&lt;int32&gt;((v22 &lt; v20))</text>
<text text-anchor="start" x="8" y="-1032.3" font-family="Times,serif" font-size="14.00"> v24 = (v23 + v19)</text>
<text text-anchor="start" x="8" y="-1017.3" font-family="Times,serif" font-size="14.00"> v25 = (v22 + *(IntToPtrCastExpr&lt;ptr&gt;((v18 + 24))))</text>
<text text-anchor="start" x="8" y="-1002.3" font-family="Times,serif" font-size="14.00"> v26 = ExtCastExpr&lt;int32&gt;((v25 &lt; v22))</text>
<text text-anchor="start" x="8" y="-987.3" font-family="Times,serif" font-size="14.00"> v27 = (v26 + v24)</text>
<text text-anchor="start" x="8" y="-972.3" font-family="Times,serif" font-size="14.00"> v28 = (v27 + *(IntToPtrCastExpr&lt;ptr&gt;((v18 + 28))))</text>
<text text-anchor="start" x="8" y="-957.3" font-family="Times,serif" font-size="14.00"> v29 = (*(IntToPtrCastExpr&lt;ptr&gt;((v18 + 32))) + v25)</text>
<text text-anchor="start" x="8" y="-942.3" font-family="Times,serif" font-size="14.00"> v30 = ExtCastExpr&lt;int32&gt;((v29 &lt; v25))</text>
<text text-anchor="start" x="8" y="-927.3" font-family="Times,serif" font-size="14.00"> v31 = (v28 + v30)</text>
<text text-anchor="start" x="8" y="-912.3" font-family="Times,serif" font-size="14.00"> v32 = (v31 + *(IntToPtrCastExpr&lt;ptr&gt;((v18 + 36))))</text>
<text text-anchor="start" x="8" y="-897.3" font-family="Times,serif" font-size="14.00"> v33 = IntToPtrCastExpr&lt;ptr&gt;((v18 + 40))</text>
<text text-anchor="start" x="8" y="-882.3" font-family="Times,serif" font-size="14.00"> v34 = (*(v33) + v29)</text>
<text text-anchor="start" x="8" y="-867.3" font-family="Times,serif" font-size="14.00"> *(v21) = v34</text>
<text text-anchor="start" x="8" y="-852.3" font-family="Times,serif" font-size="14.00"> v35 = (ExtCastExpr&lt;int32&gt;((v34 &lt; *(v33))) + v32)</text>
<text text-anchor="start" x="8" y="-837.3" font-family="Times,serif" font-size="14.00"> v36 = v3</text>
<text text-anchor="start" x="8" y="-822.3" font-family="Times,serif" font-size="14.00"> v37 = (v35 + *(IntToPtrCastExpr&lt;ptr&gt;((v36 + 44))))</text>
<text text-anchor="start" x="8" y="-807.3" font-family="Times,serif" font-size="14.00"> *(IntToPtrCastExpr&lt;ptr&gt;((v36 + 12))) = v37</text>
<text text-anchor="start" x="8" y="-792.3" font-family="Times,serif" font-size="14.00"> v38 = v3</text>
<text text-anchor="start" x="8" y="-777.3" font-family="Times,serif" font-size="14.00"> v39 = *(IntToPtrCastExpr&lt;ptr&gt;((v38 + 44)))</text>
<text text-anchor="start" x="8" y="-762.3" font-family="Times,serif" font-size="14.00"> v40 = ((((((ExtCastExpr&lt;int32&gt;((v28 &lt; v27)) + ExtCastExpr&lt;int32&gt;((v27 &lt; v26))) + ExtCastExpr&lt;int32&gt;((v31 &lt; v30))) + ExtCastExpr&lt;int32&gt;((v32 &lt; v31))) + ExtCastExpr&lt;int32&gt;((v35 &lt; v32))) + ExtCastExpr&lt;int32&gt;((v37 &lt; v39))) + ((((v35 &amp; &#45;256) | ExtCastExpr&lt;int32&gt;(((v19 == 0) | (v23 &lt; v24)))) ^ 1) % 2))</text>
<text text-anchor="start" x="8" y="-747.3" font-family="Times,serif" font-size="14.00"> v41 = IntToPtrCastExpr&lt;ptr&gt;((v38 + 16))</text>
<text text-anchor="start" x="8" y="-732.3" font-family="Times,serif" font-size="14.00"> v42 = (v40 + *(v41))</text>
<text text-anchor="start" x="8" y="-717.3" font-family="Times,serif" font-size="14.00"> v43 = (v42 &lt; v40)</text>
<text text-anchor="start" x="8" y="-702.3" font-family="Times,serif" font-size="14.00"> v44 = (v43 + *(IntToPtrCastExpr&lt;ptr&gt;((v38 + 20))))</text>
<text text-anchor="start" x="8" y="-687.3" font-family="Times,serif" font-size="14.00"> v45 = (v42 + *(IntToPtrCastExpr&lt;ptr&gt;((v38 + 32))))</text>
<text text-anchor="start" x="8" y="-672.3" font-family="Times,serif" font-size="14.00"> v46 = ExtCastExpr&lt;int32&gt;((v45 &lt; v42))</text>
<text text-anchor="start" x="8" y="-657.3" font-family="Times,serif" font-size="14.00"> v47 = (v46 + v44)</text>
<text text-anchor="start" x="8" y="-642.3" font-family="Times,serif" font-size="14.00"> v48 = (v47 + *(IntToPtrCastExpr&lt;ptr&gt;((v38 + 36))))</text>
<text text-anchor="start" x="8" y="-627.3" font-family="Times,serif" font-size="14.00"> v49 = (v48 &lt; v47)</text>
<text text-anchor="start" x="8" y="-612.3" font-family="Times,serif" font-size="14.00"> v50 = IntToPtrCastExpr&lt;ptr&gt;((v38 + 40))</text>
<text text-anchor="start" x="8" y="-597.3" font-family="Times,serif" font-size="14.00"> v51 = (v45 + *(v50))</text>
<text text-anchor="start" x="8" y="-582.3" font-family="Times,serif" font-size="14.00"> *(v41) = v51</text>
<text text-anchor="start" x="8" y="-567.3" font-family="Times,serif" font-size="14.00"> v52 = (v48 + ExtCastExpr&lt;int32&gt;((v51 &lt; *(v50))))</text>
<text text-anchor="start" x="8" y="-552.3" font-family="Times,serif" font-size="14.00"> v53 = v3</text>
<text text-anchor="start" x="8" y="-537.3" font-family="Times,serif" font-size="14.00"> v54 = IntToPtrCastExpr&lt;ptr&gt;((v53 + 44))</text>
<text text-anchor="start" x="8" y="-522.3" font-family="Times,serif" font-size="14.00"> v55 = (v52 + *(v54))</text>
<text text-anchor="start" x="8" y="-507.3" font-family="Times,serif" font-size="14.00"> v56 = *(v54)</text>
<text text-anchor="start" x="8" y="-492.3" font-family="Times,serif" font-size="14.00"> *(IntToPtrCastExpr&lt;ptr&gt;((v53 + 20))) = v55</text>
<text text-anchor="start" x="8" y="-477.3" font-family="Times,serif" font-size="14.00"> *(IntToPtrCastExpr&lt;ptr&gt;((v3 + 24))) = ((((v49 + ExtCastExpr&lt;int32&gt;((v47 &lt; v46))) + ExtCastExpr&lt;int32&gt;((v52 &lt; v48))) + ExtCastExpr&lt;int32&gt;((v43 &gt; v44))) + ExtCastExpr&lt;int32&gt;((v55 &lt; v56)))</text>
<text text-anchor="start" x="8" y="-462.3" font-family="Times,serif" font-size="14.00"> v57 = (v3 + 28)</text>
</g>
<!-- Node0x2ac9c1c0&#45;&gt;Node0xef4b630 -->
<g id="edge3" class="edge"><title>Node0x2ac9c1c0&#45;&gt;Node0xef4b630</title>
<path fill="none" stroke="black" d="M1975.97,-1459.3C1958.69,-1448.32 1933.84,-1432.51 1903.44,-1413.17"/>
<polygon fill="black" stroke="black" points="1905.04,-1410.04 1894.72,-1407.63 1901.28,-1415.95 1905.04,-1410.04"/>
<text text-anchor="middle" x="1987.5" y="-1429.8" font-family="Times,serif" font-size="14.00">result == 0</text>
</g>
<!-- Node0xef4b4f0 -->
<g id="node5" class="node"><title>Node0xef4b4f0</title>
<polygon fill="none" stroke="black" points="1944.5,-97.5 1944.5,-150.5 2057.5,-150.5 2057.5,-97.5 1944.5,-97.5"/>
<text text-anchor="start" x="1952.5" y="-135.3" font-family="Times,serif" font-size="14.00">0x80604c5:</text>
<text text-anchor="start" x="1952.5" y="-120.3" font-family="Times,serif" font-size="14.00"> g3 = v1</text>
<text text-anchor="start" x="1952.5" y="-105.3" font-family="Times,serif" font-size="14.00"> return result</text>
</g>
<!-- Node0x2ac9c1c0&#45;&gt;Node0xef4b4f0 -->
<g id="edge4" class="edge"><title>Node0x2ac9c1c0&#45;&gt;Node0xef4b4f0</title>
<path fill="none" stroke="black" d="M2068.19,-1470.74C2147.22,-1462.28 2273.52,-1443.5 2303,-1408 2438.28,-1245.13 2322,-1143.72 2322,-932 2322,-932 2322,-932 2322,-219.5 2322,-166.952 2161.7,-141.48 2067.65,-131.059"/>
<polygon fill="black" stroke="black" points="2067.97,-127.572 2057.65,-129.979 2067.22,-134.532 2067.97,-127.572"/>
<text text-anchor="middle" x="2361.5" y="-350.8" font-family="Times,serif" font-size="14.00">result != 0</text>
</g>
<!-- Node0xef4bfc0 -->
<g id="node6" class="node"><title>Node0xef4bfc0</title>
<polygon fill="none" stroke="black" points="1780,-380.5 1780,-416.5 1890,-416.5 1890,-380.5 1780,-380.5"/>
<text text-anchor="start" x="1788" y="-394.8" font-family="Times,serif" font-size="14.00">if (v6 &gt; v57):</text>
</g>
<!-- Node0xef4b630&#45;&gt;Node0xef4bfc0 -->
<g id="edge5" class="edge"><title>Node0xef4b630&#45;&gt;Node0xef4bfc0</title>
<path fill="none" stroke="black" d="M1763.96,-454.275C1780.03,-441.889 1793.87,-431.212 1804.96,-422.66"/>
<polygon fill="black" stroke="black" points="1807.12,-425.419 1812.9,-416.541 1802.84,-419.875 1807.12,-425.419"/>
</g>
<!-- Node0x2ac9c000 -->
<g id="node7" class="node"><title>Node0x2ac9c000</title>
<polygon fill="none" stroke="black" points="1974,-23.5 1974,-59.5 2028,-59.5 2028,-23.5 1974,-23.5"/>
<text text-anchor="start" x="1982" y="-37.8" font-family="Times,serif" font-size="14.00">exit:</text>
</g>
<!-- Node0xef4b4f0&#45;&gt;Node0x2ac9c000 -->
<g id="edge6" class="edge"><title>Node0xef4b4f0&#45;&gt;Node0x2ac9c000</title>
<path fill="none" stroke="black" d="M2001,-97.0862C2001,-88.4596 2001,-78.8224 2001,-70.0748"/>
<polygon fill="black" stroke="black" points="2004.5,-69.9735 2001,-59.9735 1997.5,-69.9735 2004.5,-69.9735"/>
</g>
<!-- Node0xef4bfc0&#45;&gt;Node0xef4b4f0 -->
<g id="edge8" class="edge"><title>Node0xef4bfc0&#45;&gt;Node0xef4b4f0</title>
<path fill="none" stroke="black" d="M1890.3,-385.882C1922.11,-376.194 1959.84,-358.959 1981,-329 2016.26,-279.081 2013.21,-204.334 2007.39,-160.534"/>
<polygon fill="black" stroke="black" points="2010.85,-160.019 2005.95,-150.625 2003.92,-161.023 2010.85,-160.019"/>
<text text-anchor="middle" x="2046.5" y="-260.8" font-family="Times,serif" font-size="14.00">v6 &lt;= v57</text>
</g>
<!-- Node0xef4b690 -->
<g id="node8" class="node"><title>Node0xef4b690</title>
<polygon fill="none" stroke="black" points="1697.5,-290.5 1697.5,-328.5 1972.5,-328.5 1972.5,-290.5 1697.5,-290.5"/>
<text text-anchor="start" x="1705.5" y="-313.3" font-family="Times,serif" font-size="14.00">*(IntToPtrCastExpr&lt;ptr&gt;(v57)) = 0</text>
<text text-anchor="start" x="1705.5" y="-298.3" font-family="Times,serif" font-size="14.00"> v58 = (v57 + 4)</text>
</g>
<!-- Node0xef4bfc0&#45;&gt;Node0xef4b690 -->
<g id="edge7" class="edge"><title>Node0xef4bfc0&#45;&gt;Node0xef4b690</title>
<path fill="none" stroke="black" d="M1835,-380.312C1835,-368.511 1835,-352.572 1835,-338.904"/>
<polygon fill="black" stroke="black" points="1838.5,-338.551 1835,-328.551 1831.5,-338.551 1838.5,-338.551"/>
<text text-anchor="middle" x="1867.5" y="-350.8" font-family="Times,serif" font-size="14.00">v6 &gt; v57</text>
</g>
<!-- Node0xef4b790 -->
<g id="node9" class="node"><title>Node0xef4b790</title>
<polygon fill="none" stroke="black" points="1789.5,-202.5 1789.5,-238.5 1928.5,-238.5 1928.5,-202.5 1789.5,-202.5"/>
<text text-anchor="start" x="1797.5" y="-216.8" font-family="Times,serif" font-size="14.00">while (v6 &gt; v58):</text>
</g>
<!-- Node0xef4b690&#45;&gt;Node0xef4b790 -->
<g id="edge9" class="edge"><title>Node0xef4b690&#45;&gt;Node0xef4b790</title>
<path fill="none" stroke="black" d="M1839.97,-290.474C1843.32,-278.337 1847.8,-262.116 1851.56,-248.454"/>
<polygon fill="black" stroke="black" points="1854.99,-249.186 1854.28,-238.615 1848.25,-247.325 1854.99,-249.186"/>
</g>
<!-- Node0xef4b790&#45;&gt;Node0xef4b4f0 -->
<g id="edge11" class="edge"><title>Node0xef4b790&#45;&gt;Node0xef4b4f0</title>
<path fill="none" stroke="black" d="M1873.85,-202.117C1883.43,-191.625 1896.57,-178.495 1910,-169 1917.95,-163.377 1926.73,-158.125 1935.61,-153.346"/>
<polygon fill="black" stroke="black" points="1937.23,-156.447 1944.49,-148.729 1934.01,-150.236 1937.23,-156.447"/>
<text text-anchor="middle" x="1948.5" y="-172.8" font-family="Times,serif" font-size="14.00">v6 &lt;= v58</text>
</g>
<!-- Node0xef4c3a0 -->
<g id="node10" class="node"><title>Node0xef4c3a0</title>
<polygon fill="none" stroke="black" points="1645.5,-97.5 1645.5,-150.5 1924.5,-150.5 1924.5,-97.5 1645.5,-97.5"/>
<text text-anchor="start" x="1653.5" y="-135.3" font-family="Times,serif" font-size="14.00">0x80604b8:</text>
<text text-anchor="start" x="1653.5" y="-120.3" font-family="Times,serif" font-size="14.00"> *(IntToPtrCastExpr&lt;ptr&gt;(v58)) = 0</text>
<text text-anchor="start" x="1653.5" y="-105.3" font-family="Times,serif" font-size="14.00"> v58 = (v58 + 4)</text>
</g>
<!-- Node0xef4b790&#45;&gt;Node0xef4c3a0 -->
<g id="edge10" class="edge"><title>Node0xef4b790&#45;&gt;Node0xef4c3a0</title>
<path fill="none" stroke="black" d="M1801.84,-202.481C1793.97,-197.732 1786.92,-191.687 1782,-184 1777.61,-177.137 1776.23,-168.851 1776.42,-160.686"/>
<polygon fill="black" stroke="black" points="1779.92,-160.812 1777.39,-150.525 1772.95,-160.147 1779.92,-160.812"/>
<text text-anchor="middle" x="1814.5" y="-172.8" font-family="Times,serif" font-size="14.00">v6 &gt; v58</text>
</g>
<!-- Node0xef4c3a0&#45;&gt;Node0xef4b790 -->
<g id="edge12" class="edge"><title>Node0xef4c3a0&#45;&gt;Node0xef4b790</title>
<path fill="none" stroke="black" d="M1829.65,-150.563C1836.23,-155.941 1842.35,-162.106 1847,-169 1851.63,-175.857 1854.48,-184.288 1856.23,-192.283"/>
<polygon fill="black" stroke="black" points="1852.82,-193.11 1857.96,-202.374 1859.72,-191.926 1852.82,-193.11"/>
</g>
</g>
</svg>
