<?xml version="1.0" encoding="UTF-8" standalone="no"?>
<!DOCTYPE svg PUBLIC "-//W3C//DTD SVG 1.1//EN"
 "http://www.w3.org/Graphics/SVG/1.1/DTD/svg11.dtd">
<!-- Generated by graphviz version 2.38.0 (20140413.2041)
 -->
<!-- Title: Control&#45;flow graph for function &#39;des3_set2key(a1, a2)&#39;. Pages: 1 -->
<svg width="638pt" height="1103pt"
 viewBox="0.00 0.00 638.00 1103.00" xmlns="http://www.w3.org/2000/svg" xmlns:xlink="http://www.w3.org/1999/xlink">
<g id="graph0" class="graph" transform="scale(1 1) rotate(0) translate(4 1099)">
<title>Control&#45;flow graph for function &#39;des3_set2key(a1, a2)&#39;.</title>
<polygon fill="white" stroke="none" points="-4,4 -4,-1099 634,-1099 634,4 -4,4"/>
<text text-anchor="middle" x="315" y="-7.8" font-family="Times,serif" font-size="14.00">Control&#45;flow graph for function &#39;des3_set2key(a1, a2)&#39;.</text>
<!-- Node0x21027ae0 -->
<g id="node1" class="node"><title>Node0x21027ae0</title>
<polygon fill="none" stroke="black" points="369,-1041.5 369,-1094.5 428,-1094.5 428,-1041.5 369,-1041.5"/>
<text text-anchor="start" x="377" y="-1079.3" font-family="Times,serif" font-size="14.00">entry:</text>
<text text-anchor="start" x="377" y="-1064.3" font-family="Times,serif" font-size="14.00"> a1</text>
<text text-anchor="start" x="377" y="-1049.3" font-family="Times,serif" font-size="14.00"> a2</text>
</g>
<!-- Node0x21027e20 -->
<g id="node2" class="node"><title>Node0x21027e20</title>
<polygon fill="none" stroke="black" points="167,-800.5 167,-1003.5 630,-1003.5 630,-800.5 167,-800.5"/>
<text text-anchor="start" x="175" y="-988.3" font-family="Times,serif" font-size="14.00">v1 = g5</text>
<text text-anchor="start" x="175" y="-973.3" font-family="Times,serif" font-size="14.00"> v2 = g7</text>
<text text-anchor="start" x="175" y="-958.3" font-family="Times,serif" font-size="14.00"> g7 = g6</text>
<text text-anchor="start" x="175" y="-943.3" font-family="Times,serif" font-size="14.00"> v3 = g3</text>
<text text-anchor="start" x="175" y="-928.3" font-family="Times,serif" font-size="14.00"> v4 = (g4 + 8)</text>
<text text-anchor="start" x="175" y="-913.3" font-family="Times,serif" font-size="14.00"> g5 = v4</text>
<text text-anchor="start" x="175" y="-898.3" font-family="Times,serif" font-size="14.00"> g3 = g1</text>
<text text-anchor="start" x="175" y="-883.3" font-family="Times,serif" font-size="14.00"> mbedtls_des_setkey(g1, IntToPtrCastExpr&lt;ptr&gt;(g4))</text>
<text text-anchor="start" x="175" y="-868.3" font-family="Times,serif" font-size="14.00"> mbedtls_des_setkey((g7 + 128), IntToPtrCastExpr&lt;ptr&gt;(v4))</text>
<text text-anchor="start" x="175" y="-853.3" font-family="Times,serif" font-size="14.00"> v5 = 0</text>
<text text-anchor="start" x="175" y="-838.3" font-family="Times,serif" font-size="14.00"> v6 = 0</text>
<text text-anchor="start" x="175" y="-823.3" font-family="Times,serif" font-size="14.00"> v7 = 0</text>
<text text-anchor="start" x="175" y="-808.3" font-family="Times,serif" font-size="14.00"> v8 = 0</text>
</g>
<!-- Node0x21027ae0&#45;&gt;Node0x21027e20 -->
<g id="edge1" class="edge"><title>Node0x21027ae0&#45;&gt;Node0x21027e20</title>
<path fill="none" stroke="black" d="M398.5,-1041.38C398.5,-1033.4 398.5,-1024.05 398.5,-1014.04"/>
<polygon fill="black" stroke="black" points="402,-1013.83 398.5,-1003.83 395,-1013.83 402,-1013.83"/>
</g>
<!-- Node0x21027bb0 -->
<g id="node3" class="node"><title>Node0x21027bb0</title>
<polygon fill="none" stroke="black" points="350,-726.5 350,-762.5 447,-762.5 447,-726.5 350,-726.5"/>
<text text-anchor="start" x="358" y="-740.8" font-family="Times,serif" font-size="14.00">while True:</text>
</g>
<!-- Node0x21027e20&#45;&gt;Node0x21027bb0 -->
<g id="edge2" class="edge"><title>Node0x21027e20&#45;&gt;Node0x21027bb0</title>
<path fill="none" stroke="black" d="M398.5,-800.323C398.5,-790.368 398.5,-780.964 398.5,-772.847"/>
<polygon fill="black" stroke="black" points="402,-772.647 398.5,-762.647 395,-772.647 402,-772.647"/>
</g>
<!-- Node0x21027f60 -->
<g id="node4" class="node"><title>Node0x21027f60</title>
<polygon fill="none" stroke="black" points="0,-306.5 0,-674.5 431,-674.5 431,-306.5 0,-306.5"/>
<text text-anchor="start" x="8" y="-659.3" font-family="Times,serif" font-size="14.00">v9 = *(IntToPtrCastExpr&lt;ptr&gt;(((v8 + 120) + g3)))</text>
<text text-anchor="start" x="8" y="-644.3" font-family="Times,serif" font-size="14.00"> *(IntToPtrCastExpr&lt;ptr&gt;((g7 + (4 * v7)))) = v9</text>
<text text-anchor="start" x="8" y="-629.3" font-family="Times,serif" font-size="14.00"> v10 = *(IntToPtrCastExpr&lt;ptr&gt;(((g3 + 124) + v5)))</text>
<text text-anchor="start" x="8" y="-614.3" font-family="Times,serif" font-size="14.00"> *(IntToPtrCastExpr&lt;ptr&gt;(((g7 + 4) + (4 * v6)))) = v10</text>
<text text-anchor="start" x="8" y="-599.3" font-family="Times,serif" font-size="14.00"> v11 = *(IntToPtrCastExpr&lt;ptr&gt;(((g7 + 248) + v5)))</text>
<text text-anchor="start" x="8" y="-584.3" font-family="Times,serif" font-size="14.00"> *(IntToPtrCastExpr&lt;ptr&gt;(((g3 + 128) + (4 * v6)))) = v11</text>
<text text-anchor="start" x="8" y="-569.3" font-family="Times,serif" font-size="14.00"> v12 = v5</text>
<text text-anchor="start" x="8" y="-554.3" font-family="Times,serif" font-size="14.00"> v13 = *(IntToPtrCastExpr&lt;ptr&gt;(((g7 + 252) + v12)))</text>
<text text-anchor="start" x="8" y="-539.3" font-family="Times,serif" font-size="14.00"> v5 = (v12 &#45; 8)</text>
<text text-anchor="start" x="8" y="-524.3" font-family="Times,serif" font-size="14.00"> *(IntToPtrCastExpr&lt;ptr&gt;(((g3 + 132) + (4 * v6)))) = v13</text>
<text text-anchor="start" x="8" y="-509.3" font-family="Times,serif" font-size="14.00"> v14 = (4 * v6)</text>
<text text-anchor="start" x="8" y="-494.3" font-family="Times,serif" font-size="14.00"> v15 = *(IntToPtrCastExpr&lt;ptr&gt;((v14 + g3)))</text>
<text text-anchor="start" x="8" y="-479.3" font-family="Times,serif" font-size="14.00"> *(IntToPtrCastExpr&lt;ptr&gt;(((g3 + 256) + v14))) = v15</text>
<text text-anchor="start" x="8" y="-464.3" font-family="Times,serif" font-size="14.00"> v16 = (4 * v6)</text>
<text text-anchor="start" x="8" y="-449.3" font-family="Times,serif" font-size="14.00"> v17 = *(IntToPtrCastExpr&lt;ptr&gt;(((g3 + 4) + v16)))</text>
<text text-anchor="start" x="8" y="-434.3" font-family="Times,serif" font-size="14.00"> *(IntToPtrCastExpr&lt;ptr&gt;(((g3 + 260) + v16))) = v17</text>
<text text-anchor="start" x="8" y="-419.3" font-family="Times,serif" font-size="14.00"> v18 = (4 * v6)</text>
<text text-anchor="start" x="8" y="-404.3" font-family="Times,serif" font-size="14.00"> v19 = *(IntToPtrCastExpr&lt;ptr&gt;((v18 + g7)))</text>
<text text-anchor="start" x="8" y="-389.3" font-family="Times,serif" font-size="14.00"> *(IntToPtrCastExpr&lt;ptr&gt;(((g7 + 256) + v18))) = v19</text>
<text text-anchor="start" x="8" y="-374.3" font-family="Times,serif" font-size="14.00"> v20 = (4 * v6)</text>
<text text-anchor="start" x="8" y="-359.3" font-family="Times,serif" font-size="14.00"> v21 = *(IntToPtrCastExpr&lt;ptr&gt;(((g7 + 4) + v20)))</text>
<text text-anchor="start" x="8" y="-344.3" font-family="Times,serif" font-size="14.00"> *(IntToPtrCastExpr&lt;ptr&gt;(((g7 + 260) + v20))) = v21</text>
<text text-anchor="start" x="8" y="-329.3" font-family="Times,serif" font-size="14.00"> v22 = (v6 + 2)</text>
<text text-anchor="start" x="8" y="-314.3" font-family="Times,serif" font-size="14.00"> v6 = v22</text>
</g>
<!-- Node0x21027bb0&#45;&gt;Node0x21027f60 -->
<g id="edge3" class="edge"><title>Node0x21027bb0&#45;&gt;Node0x21027f60</title>
<path fill="none" stroke="black" d="M385.922,-726.179C378.079,-715.379 367.079,-700.231 354.402,-682.774"/>
<polygon fill="black" stroke="black" points="357.172,-680.633 348.464,-674.598 351.508,-684.746 357.172,-680.633"/>
<text text-anchor="middle" x="389.5" y="-696.8" font-family="Times,serif" font-size="14.00">True</text>
</g>
<!-- Node0x21027fc0 -->
<g id="node5" class="node"><title>Node0x21027fc0</title>
<polygon fill="none" stroke="black" points="192,-232.5 192,-268.5 315,-268.5 315,-232.5 192,-232.5"/>
<text text-anchor="start" x="200" y="-246.8" font-family="Times,serif" font-size="14.00">if (v22 == 32):</text>
</g>
<!-- Node0x21027f60&#45;&gt;Node0x21027fc0 -->
<g id="edge4" class="edge"><title>Node0x21027f60&#45;&gt;Node0x21027fc0</title>
<path fill="none" stroke="black" d="M244.734,-306.401C246.371,-296.152 247.863,-286.807 249.134,-278.847"/>
<polygon fill="black" stroke="black" points="252.602,-279.325 250.722,-268.898 245.689,-278.221 252.602,-279.325"/>
</g>
<!-- Node0x21028660 -->
<g id="node6" class="node"><title>Node0x21028660</title>
<polygon fill="none" stroke="black" points="203,-97.5 203,-180.5 304,-180.5 304,-97.5 203,-97.5"/>
<text text-anchor="start" x="211" y="-165.3" font-family="Times,serif" font-size="14.00">0x806b0c8:</text>
<text text-anchor="start" x="211" y="-150.3" font-family="Times,serif" font-size="14.00"> g3 = v3</text>
<text text-anchor="start" x="211" y="-135.3" font-family="Times,serif" font-size="14.00"> g7 = v2</text>
<text text-anchor="start" x="211" y="-120.3" font-family="Times,serif" font-size="14.00"> g5 = v1</text>
<text text-anchor="start" x="211" y="-105.3" font-family="Times,serif" font-size="14.00"> return 32</text>
</g>
<!-- Node0x21027fc0&#45;&gt;Node0x21028660 -->
<g id="edge5" class="edge"><title>Node0x21027fc0&#45;&gt;Node0x21028660</title>
<path fill="none" stroke="black" d="M253.5,-232.391C253.5,-221.15 253.5,-205.807 253.5,-190.853"/>
<polygon fill="black" stroke="black" points="257,-190.618 253.5,-180.618 250,-190.618 257,-190.618"/>
<text text-anchor="middle" x="292.5" y="-202.8" font-family="Times,serif" font-size="14.00">v22 == 32</text>
</g>
<!-- Node0x99cee70 -->
<g id="node7" class="node"><title>Node0x99cee70</title>
<polygon fill="none" stroke="black" points="365,-112.5 365,-165.5 466,-165.5 466,-112.5 365,-112.5"/>
<text text-anchor="start" x="373" y="-150.3" font-family="Times,serif" font-size="14.00">0x806b068:</text>
<text text-anchor="start" x="373" y="-135.3" font-family="Times,serif" font-size="14.00"> v7 = v22</text>
<text text-anchor="start" x="373" y="-120.3" font-family="Times,serif" font-size="14.00"> v8 = v5</text>
</g>
<!-- Node0x21027fc0&#45;&gt;Node0x99cee70 -->
<g id="edge6" class="edge"><title>Node0x21027fc0&#45;&gt;Node0x99cee70</title>
<path fill="none" stroke="black" d="M300.451,-232.406C312.3,-227.232 324.712,-221.029 335.5,-214 353.318,-202.39 370.912,-186.708 385.044,-172.769"/>
<polygon fill="black" stroke="black" points="387.534,-175.229 392.102,-165.67 382.569,-170.294 387.534,-175.229"/>
<text text-anchor="middle" x="391.5" y="-202.8" font-family="Times,serif" font-size="14.00">v22 != 32</text>
</g>
<!-- Node0x99cf070 -->
<g id="node8" class="node"><title>Node0x99cf070</title>
<polygon fill="none" stroke="black" points="226.5,-23.5 226.5,-59.5 280.5,-59.5 280.5,-23.5 226.5,-23.5"/>
<text text-anchor="start" x="234.5" y="-37.8" font-family="Times,serif" font-size="14.00">exit:</text>
</g>
<!-- Node0x21028660&#45;&gt;Node0x99cf070 -->
<g id="edge7" class="edge"><title>Node0x21028660&#45;&gt;Node0x99cf070</title>
<path fill="none" stroke="black" d="M253.5,-97.4994C253.5,-88.2058 253.5,-78.537 253.5,-69.9459"/>
<polygon fill="black" stroke="black" points="257,-69.7494 253.5,-59.7494 250,-69.7494 257,-69.7494"/>
</g>
<!-- Node0x99cee70&#45;&gt;Node0x21027bb0 -->
<g id="edge8" class="edge"><title>Node0x99cee70&#45;&gt;Node0x21027bb0</title>
<path fill="none" stroke="black" d="M423.585,-165.61C426.53,-175.891 429.6,-187.912 431.5,-199 439.555,-246.003 437.721,-258.345 439.5,-306 445.618,-469.886 483.192,-516.927 439.5,-675 435.251,-690.372 426.538,-705.765 418.233,-718.054"/>
<polygon fill="black" stroke="black" points="415.241,-716.223 412.327,-726.409 420.957,-720.264 415.241,-716.223"/>
</g>
</g>
</svg>
