<?xml version="1.0" encoding="UTF-8" standalone="no"?>
<!DOCTYPE svg PUBLIC "-//W3C//DTD SVG 1.1//EN"
 "http://www.w3.org/Graphics/SVG/1.1/DTD/svg11.dtd">
<!-- Generated by graphviz version 2.38.0 (20140413.2041)
 -->
<!-- Title: Control&#45;flow graph for function &#39;mbedtls_aes_setkey_dec(*a1, a2, a3)&#39;. Pages: 1 -->
<svg width="1421pt" height="2507pt"
 viewBox="0.00 0.00 1420.50 2507.00" xmlns="http://www.w3.org/2000/svg" xmlns:xlink="http://www.w3.org/1999/xlink">
<g id="graph0" class="graph" transform="scale(1 1) rotate(0) translate(4 2503)">
<title>Control&#45;flow graph for function &#39;mbedtls_aes_setkey_dec(*a1, a2, a3)&#39;.</title>
<polygon fill="white" stroke="none" points="-4,4 -4,-2503 1416.5,-2503 1416.5,4 -4,4"/>
<text text-anchor="middle" x="706.25" y="-7.8" font-family="Times,serif" font-size="14.00">Control&#45;flow graph for function &#39;mbedtls_aes_setkey_dec(*a1, a2, a3)&#39;.</text>
<!-- Node0x1d098f70 -->
<g id="node1" class="node"><title>Node0x1d098f70</title>
<polygon fill="none" stroke="black" points="955,-2430.5 955,-2498.5 1014,-2498.5 1014,-2430.5 955,-2430.5"/>
<text text-anchor="start" x="963" y="-2483.3" font-family="Times,serif" font-size="14.00">entry:</text>
<text text-anchor="start" x="963" y="-2468.3" font-family="Times,serif" font-size="14.00"> a1</text>
<text text-anchor="start" x="963" y="-2453.3" font-family="Times,serif" font-size="14.00"> a2</text>
<text text-anchor="start" x="963" y="-2438.3" font-family="Times,serif" font-size="14.00"> a3</text>
</g>
<!-- Node0x1d096310 -->
<g id="node2" class="node"><title>Node0x1d096310</title>
<polygon fill="none" stroke="black" points="815.5,-2264.5 815.5,-2392.5 1153.5,-2392.5 1153.5,-2264.5 815.5,-2264.5"/>
<text text-anchor="start" x="823.5" y="-2377.3" font-family="Times,serif" font-size="14.00">v1 = g7</text>
<text text-anchor="start" x="823.5" y="-2362.3" font-family="Times,serif" font-size="14.00"> v2 = g3</text>
<text text-anchor="start" x="823.5" y="-2347.3" font-family="Times,serif" font-size="14.00"> g7 = PtrToIntCastExpr&lt;int32&gt;(a1)</text>
<text text-anchor="start" x="823.5" y="-2332.3" font-family="Times,serif" font-size="14.00"> v3</text>
<text text-anchor="start" x="823.5" y="-2317.3" font-family="Times,serif" font-size="14.00"> v4 = &amp;(v3)</text>
<text text-anchor="start" x="823.5" y="-2302.3" font-family="Times,serif" font-size="14.00"> mbedtls_aes_init(BitCastExpr&lt;ptr&gt;(&amp;(v3)))</text>
<text text-anchor="start" x="823.5" y="-2287.3" font-family="Times,serif" font-size="14.00"> v5 = g190</text>
<text text-anchor="start" x="823.5" y="-2272.3" font-family="Times,serif" font-size="14.00"> v6 = v5</text>
</g>
<!-- Node0x1d098f70&#45;&gt;Node0x1d096310 -->
<g id="edge1" class="edge"><title>Node0x1d098f70&#45;&gt;Node0x1d096310</title>
<path fill="none" stroke="black" d="M984.5,-2430.38C984.5,-2421.86 984.5,-2412.36 984.5,-2402.68"/>
<polygon fill="black" stroke="black" points="988,-2402.57 984.5,-2392.57 981,-2402.57 988,-2402.57"/>
</g>
<!-- Node0x1fce45e0 -->
<g id="node3" class="node"><title>Node0x1fce45e0</title>
<polygon fill="none" stroke="black" points="929.5,-2190.5 929.5,-2226.5 1039.5,-2226.5 1039.5,-2190.5 929.5,-2190.5"/>
<text text-anchor="start" x="937.5" y="-2204.8" font-family="Times,serif" font-size="14.00">if (v5 == &#45;1):</text>
</g>
<!-- Node0x1d096310&#45;&gt;Node0x1fce45e0 -->
<g id="edge2" class="edge"><title>Node0x1d096310&#45;&gt;Node0x1fce45e0</title>
<path fill="none" stroke="black" d="M984.5,-2264.35C984.5,-2254.75 984.5,-2245.3 984.5,-2237.02"/>
<polygon fill="black" stroke="black" points="988,-2236.89 984.5,-2226.89 981,-2236.89 988,-2236.89"/>
</g>
<!-- Node0xf8554d0 -->
<g id="node4" class="node"><title>Node0xf8554d0</title>
<polygon fill="none" stroke="black" points="660.5,-2055.5 660.5,-2138.5 1000.5,-2138.5 1000.5,-2055.5 660.5,-2055.5"/>
<text text-anchor="start" x="668.5" y="-2123.3" font-family="Times,serif" font-size="14.00">0x804ad5e:</text>
<text text-anchor="start" x="668.5" y="-2108.3" font-family="Times,serif" font-size="14.00"> v7</text>
<text text-anchor="start" x="668.5" y="-2093.3" font-family="Times,serif" font-size="14.00"> v8 = mbedtls_padlock_has_support(192, v7)</text>
<text text-anchor="start" x="668.5" y="-2078.3" font-family="Times,serif" font-size="14.00"> g190 = v8</text>
<text text-anchor="start" x="668.5" y="-2063.3" font-family="Times,serif" font-size="14.00"> v6 = v8</text>
</g>
<!-- Node0x1fce45e0&#45;&gt;Node0xf8554d0 -->
<g id="edge3" class="edge"><title>Node0x1fce45e0&#45;&gt;Node0xf8554d0</title>
<path fill="none" stroke="black" d="M960.438,-2190.39C943.109,-2178.07 918.847,-2160.82 895.974,-2144.55"/>
<polygon fill="black" stroke="black" points="897.803,-2141.56 887.625,-2138.62 893.747,-2147.27 897.803,-2141.56"/>
<text text-anchor="middle" x="962.5" y="-2160.8" font-family="Times,serif" font-size="14.00">v5 == &#45;1</text>
</g>
<!-- Node0x1d889e20 -->
<g id="node5" class="node"><title>Node0x1d889e20</title>
<polygon fill="none" stroke="black" points="915.5,-1964.5 915.5,-2017.5 1041.5,-2017.5 1041.5,-1964.5 915.5,-1964.5"/>
<text text-anchor="start" x="923.5" y="-2002.3" font-family="Times,serif" font-size="14.00">v9 = g7</text>
<text text-anchor="start" x="923.5" y="-1987.3" font-family="Times,serif" font-size="14.00"> v10 = (v9 + 8)</text>
<text text-anchor="start" x="923.5" y="-1972.3" font-family="Times,serif" font-size="14.00"> g3 = v10</text>
</g>
<!-- Node0x1fce45e0&#45;&gt;Node0x1d889e20 -->
<g id="edge4" class="edge"><title>Node0x1fce45e0&#45;&gt;Node0x1d889e20</title>
<path fill="none" stroke="black" d="M991.524,-2190.24C993.815,-2184.46 996.327,-2177.98 998.5,-2172 1016.35,-2122.91 1021.34,-2105.87 1009.5,-2055 1007.26,-2045.4 1003.35,-2035.57 999.032,-2026.62"/>
<polygon fill="black" stroke="black" points="1002.12,-2024.97 994.447,-2017.66 995.887,-2028.16 1002.12,-2024.97"/>
<text text-anchor="middle" x="1045.5" y="-2093.3" font-family="Times,serif" font-size="14.00">v5 != &#45;1</text>
</g>
<!-- Node0xf8554d0&#45;&gt;Node0x1d889e20 -->
<g id="edge5" class="edge"><title>Node0xf8554d0&#45;&gt;Node0x1d889e20</title>
<path fill="none" stroke="black" d="M888.144,-2055.49C903.342,-2044.81 919.509,-2033.45 933.903,-2023.34"/>
<polygon fill="black" stroke="black" points="935.983,-2026.15 942.153,-2017.54 931.959,-2020.43 935.983,-2026.15"/>
</g>
<!-- Node0x1d098d10 -->
<g id="node6" class="node"><title>Node0x1d098d10</title>
<polygon fill="none" stroke="black" points="926,-1888.5 926,-1926.5 1031,-1926.5 1031,-1888.5 926,-1888.5"/>
<text text-anchor="start" x="934" y="-1911.3" font-family="Times,serif" font-size="14.00">if (v6 == 0):</text>
<text text-anchor="start" x="934" y="-1896.3" font-family="Times,serif" font-size="14.00"> else:</text>
</g>
<!-- Node0x1d889e20&#45;&gt;Node0x1d098d10 -->
<g id="edge6" class="edge"><title>Node0x1d889e20&#45;&gt;Node0x1d098d10</title>
<path fill="none" stroke="black" d="M978.5,-1964.21C978.5,-1955.53 978.5,-1945.79 978.5,-1936.91"/>
<polygon fill="black" stroke="black" points="982,-1936.64 978.5,-1926.64 975,-1936.64 982,-1936.64"/>
</g>
<!-- Node0xf855470 -->
<g id="node7" class="node"><title>Node0xf855470</title>
<polygon fill="none" stroke="black" points="707.5,-1791 707.5,-1829 1035.5,-1829 1035.5,-1791 707.5,-1791"/>
<text text-anchor="start" x="715.5" y="-1813.8" font-family="Times,serif" font-size="14.00">0x804ad53:</text>
<text text-anchor="start" x="715.5" y="-1798.8" font-family="Times,serif" font-size="14.00"> *(IntToPtrCastExpr&lt;ptr&gt;((v9 + 4))) = v10</text>
</g>
<!-- Node0x1d098d10&#45;&gt;Node0xf855470 -->
<g id="edge7" class="edge"><title>Node0x1d098d10&#45;&gt;Node0xf855470</title>
<path fill="none" stroke="black" d="M958.122,-1888.31C941.463,-1873.44 917.739,-1852.27 899.33,-1835.84"/>
<polygon fill="black" stroke="black" points="901.593,-1833.17 891.802,-1829.12 896.932,-1838.39 901.593,-1833.17"/>
<text text-anchor="middle" x="965.5" y="-1858.8" font-family="Times,serif" font-size="14.00">v6 == 0</text>
</g>
<!-- Node0xf8553b0 -->
<g id="node8" class="node"><title>Node0xf8553b0</title>
<polygon fill="none" stroke="black" points="1053.5,-1783.5 1053.5,-1836.5 1381.5,-1836.5 1381.5,-1783.5 1053.5,-1783.5"/>
<text text-anchor="start" x="1061.5" y="-1821.3" font-family="Times,serif" font-size="14.00">v11 = ((v9 + 24) &amp; &#45;16)</text>
<text text-anchor="start" x="1061.5" y="-1806.3" font-family="Times,serif" font-size="14.00"> g3 = v11</text>
<text text-anchor="start" x="1061.5" y="-1791.3" font-family="Times,serif" font-size="14.00"> *(IntToPtrCastExpr&lt;ptr&gt;((v9 + 4))) = v11</text>
</g>
<!-- Node0x1d098d10&#45;&gt;Node0xf8553b0 -->
<g id="edge8" class="edge"><title>Node0x1d098d10&#45;&gt;Node0xf8553b0</title>
<path fill="none" stroke="black" d="M1023.74,-1888.42C1057.69,-1874.86 1104.89,-1856 1144.21,-1840.29"/>
<polygon fill="black" stroke="black" points="1145.51,-1843.53 1153.5,-1836.57 1142.91,-1837.03 1145.51,-1843.53"/>
<text text-anchor="middle" x="1132.5" y="-1858.8" font-family="Times,serif" font-size="14.00">v6 != 0</text>
</g>
<!-- Node0x261501d0 -->
<g id="node9" class="node"><title>Node0x261501d0</title>
<polygon fill="none" stroke="black" points="903.5,-1709.5 903.5,-1745.5 1263.5,-1745.5 1263.5,-1709.5 903.5,-1709.5"/>
<text text-anchor="start" x="911.5" y="-1723.8" font-family="Times,serif" font-size="14.00">result = mbedtls_aes_setkey_enc(&amp;(v3), a2, a3)</text>
</g>
<!-- Node0xf855470&#45;&gt;Node0x261501d0 -->
<g id="edge9" class="edge"><title>Node0xf855470&#45;&gt;Node0x261501d0</title>
<path fill="none" stroke="black" d="M919.077,-1790.93C951.633,-1778.57 994.881,-1762.15 1028.85,-1749.25"/>
<polygon fill="black" stroke="black" points="1030.51,-1752.36 1038.62,-1745.54 1028.03,-1745.82 1030.51,-1752.36"/>
</g>
<!-- Node0xf8553b0&#45;&gt;Node0x261501d0 -->
<g id="edge10" class="edge"><title>Node0xf8553b0&#45;&gt;Node0x261501d0</title>
<path fill="none" stroke="black" d="M1174.73,-1783.31C1157.41,-1772.9 1137.6,-1761 1120.87,-1750.95"/>
<polygon fill="black" stroke="black" points="1122.3,-1747.73 1111.93,-1745.58 1118.7,-1753.73 1122.3,-1747.73"/>
</g>
<!-- Node0x244c8d90 -->
<g id="node10" class="node"><title>Node0x244c8d90</title>
<polygon fill="none" stroke="black" points="1018.5,-1635.5 1018.5,-1671.5 1148.5,-1671.5 1148.5,-1635.5 1018.5,-1635.5"/>
<text text-anchor="start" x="1026.5" y="-1649.8" font-family="Times,serif" font-size="14.00">if (result == 0):</text>
</g>
<!-- Node0x261501d0&#45;&gt;Node0x244c8d90 -->
<g id="edge11" class="edge"><title>Node0x261501d0&#45;&gt;Node0x244c8d90</title>
<path fill="none" stroke="black" d="M1083.5,-1709.44C1083.5,-1701.31 1083.5,-1691.38 1083.5,-1682.2"/>
<polygon fill="black" stroke="black" points="1087,-1681.94 1083.5,-1671.94 1080,-1681.94 1087,-1681.94"/>
</g>
<!-- Node0xf855050 -->
<g id="node11" class="node"><title>Node0xf855050</title>
<polygon fill="none" stroke="black" points="544,-1320.5 544,-1583.5 1133,-1583.5 1133,-1320.5 544,-1320.5"/>
<text text-anchor="start" x="552" y="-1568.3" font-family="Times,serif" font-size="14.00">*(IntToPtrCastExpr&lt;ptr&gt;(g7)) = v3</text>
<text text-anchor="start" x="552" y="-1553.3" font-family="Times,serif" font-size="14.00"> v12</text>
<text text-anchor="start" x="552" y="-1538.3" font-family="Times,serif" font-size="14.00"> v13 = ((16 * v3) + v12)</text>
<text text-anchor="start" x="552" y="-1523.3" font-family="Times,serif" font-size="14.00"> v14 = v13</text>
<text text-anchor="start" x="552" y="-1508.3" font-family="Times,serif" font-size="14.00"> *(IntToPtrCastExpr&lt;ptr&gt;(g3)) = *(IntToPtrCastExpr&lt;ptr&gt;(v13))</text>
<text text-anchor="start" x="552" y="-1493.3" font-family="Times,serif" font-size="14.00"> *(IntToPtrCastExpr&lt;ptr&gt;((g3 + 4))) = *(IntToPtrCastExpr&lt;ptr&gt;((v14 + 4)))</text>
<text text-anchor="start" x="552" y="-1478.3" font-family="Times,serif" font-size="14.00"> *(IntToPtrCastExpr&lt;ptr&gt;((g3 + 8))) = *(IntToPtrCastExpr&lt;ptr&gt;((v14 + 8)))</text>
<text text-anchor="start" x="552" y="-1463.3" font-family="Times,serif" font-size="14.00"> v15 = v14</text>
<text text-anchor="start" x="552" y="-1448.3" font-family="Times,serif" font-size="14.00"> v16 = (v15 &#45; 16)</text>
<text text-anchor="start" x="552" y="-1433.3" font-family="Times,serif" font-size="14.00"> v17 = v16</text>
<text text-anchor="start" x="552" y="-1418.3" font-family="Times,serif" font-size="14.00"> *(IntToPtrCastExpr&lt;ptr&gt;((g3 + 12))) = *(IntToPtrCastExpr&lt;ptr&gt;((v15 + 12)))</text>
<text text-anchor="start" x="552" y="-1403.3" font-family="Times,serif" font-size="14.00"> v18 = *(IntToPtrCastExpr&lt;ptr&gt;(g7))</text>
<text text-anchor="start" x="552" y="-1388.3" font-family="Times,serif" font-size="14.00"> v19 = (g3 + 16)</text>
<text text-anchor="start" x="552" y="-1373.3" font-family="Times,serif" font-size="14.00"> v20 = (v18 &#45; 1)</text>
<text text-anchor="start" x="552" y="-1358.3" font-family="Times,serif" font-size="14.00"> v21 = v19</text>
<text text-anchor="start" x="552" y="-1343.3" font-family="Times,serif" font-size="14.00"> v22 = v16</text>
<text text-anchor="start" x="552" y="-1328.3" font-family="Times,serif" font-size="14.00"> v23 = v19</text>
</g>
<!-- Node0x244c8d90&#45;&gt;Node0xf855050 -->
<g id="edge12" class="edge"><title>Node0x244c8d90&#45;&gt;Node0xf855050</title>
<path fill="none" stroke="black" d="M1062.61,-1635.49C1048.69,-1624.15 1028.93,-1608.07 1006.86,-1590.09"/>
<polygon fill="black" stroke="black" points="1008.92,-1587.26 998.957,-1583.66 1004.5,-1592.69 1008.92,-1587.26"/>
<text text-anchor="middle" x="1080" y="-1605.8" font-family="Times,serif" font-size="14.00">result == 0</text>
</g>
<!-- Node0x1d0967a0 -->
<g id="node12" class="node"><title>Node0x1d0967a0</title>
<polygon fill="none" stroke="black" points="950.5,-1005.5 950.5,-1073.5 1220.5,-1073.5 1220.5,-1005.5 950.5,-1005.5"/>
<text text-anchor="start" x="958.5" y="-1058.3" font-family="Times,serif" font-size="14.00">0x804ad2c:</text>
<text text-anchor="start" x="958.5" y="-1043.3" font-family="Times,serif" font-size="14.00"> *(IntToPtrCastExpr&lt;ptr&gt;(v4)) = 0</text>
<text text-anchor="start" x="958.5" y="-1028.3" font-family="Times,serif" font-size="14.00"> v40 = (v4 + 1)</text>
<text text-anchor="start" x="958.5" y="-1013.3" font-family="Times,serif" font-size="14.00"> v41</text>
</g>
<!-- Node0x244c8d90&#45;&gt;Node0x1d0967a0 -->
<g id="edge13" class="edge"><title>Node0x244c8d90&#45;&gt;Node0x1d0967a0</title>
<path fill="none" stroke="black" d="M1108.06,-1635.44C1114.62,-1630.07 1121.32,-1623.76 1126.5,-1617 1171.88,-1557.76 1162.5,-1527.62 1162.5,-1453 1162.5,-1453 1162.5,-1453 1162.5,-1152 1162.5,-1125.42 1147.5,-1100.58 1130.74,-1081.12"/>
<polygon fill="black" stroke="black" points="1133.3,-1078.74 1124,-1073.67 1128.11,-1083.43 1133.3,-1078.74"/>
<text text-anchor="middle" x="1202" y="-1260.8" font-family="Times,serif" font-size="14.00">result != 0</text>
</g>
<!-- Node0xf854f90 -->
<g id="node13" class="node"><title>Node0xf854f90</title>
<polygon fill="none" stroke="black" points="778.5,-1246.5 778.5,-1282.5 892.5,-1282.5 892.5,-1246.5 778.5,-1246.5"/>
<text text-anchor="start" x="786.5" y="-1260.8" font-family="Times,serif" font-size="14.00">if (v20 &gt;= 1):</text>
</g>
<!-- Node0xf855050&#45;&gt;Node0xf854f90 -->
<g id="edge14" class="edge"><title>Node0xf855050&#45;&gt;Node0xf854f90</title>
<path fill="none" stroke="black" d="M836.388,-1320.4C836.225,-1310.31 836.073,-1300.93 835.943,-1292.89"/>
<polygon fill="black" stroke="black" points="839.441,-1292.75 835.78,-1282.81 832.442,-1292.86 839.441,-1292.75"/>
</g>
<!-- Node0x9bdcac0 -->
<g id="node14" class="node"><title>Node0x9bdcac0</title>
<polygon fill="none" stroke="black" points="897,-819 897,-855 1274,-855 1274,-819 897,-819"/>
<text text-anchor="start" x="905" y="-833.3" font-family="Times,serif" font-size="14.00">while (v40 != PtrToIntCastExpr&lt;int32&gt;(&amp;(v41))):</text>
</g>
<!-- Node0x1d0967a0&#45;&gt;Node0x9bdcac0 -->
<g id="edge15" class="edge"><title>Node0x1d0967a0&#45;&gt;Node0x9bdcac0</title>
<path fill="none" stroke="black" d="M1085.5,-1005.39C1085.5,-966.282 1085.5,-901.94 1085.5,-865.47"/>
<polygon fill="black" stroke="black" points="1089,-865.105 1085.5,-855.105 1082,-865.105 1089,-865.105"/>
</g>
<!-- Node0x194cf5e0 -->
<g id="node15" class="node"><title>Node0x194cf5e0</title>
<polygon fill="none" stroke="black" points="424,-1134 424,-1172 519,-1172 519,-1134 424,-1134"/>
<text text-anchor="start" x="432" y="-1156.8" font-family="Times,serif" font-size="14.00">v24 = v19</text>
<text text-anchor="start" x="432" y="-1141.8" font-family="Times,serif" font-size="14.00"> v25 = v20</text>
</g>
<!-- Node0xf854f90&#45;&gt;Node0x194cf5e0 -->
<g id="edge16" class="edge"><title>Node0xf854f90&#45;&gt;Node0x194cf5e0</title>
<path fill="none" stroke="black" d="M778.488,-1257.93C714.928,-1250.14 610.203,-1232.47 527.5,-1195 517.951,-1190.67 508.425,-1184.55 500.009,-1178.36"/>
<polygon fill="black" stroke="black" points="502.063,-1175.52 492.003,-1172.2 497.796,-1181.07 502.063,-1175.52"/>
<text text-anchor="middle" x="652" y="-1216.8" font-family="Times,serif" font-size="14.00">v20 &gt;= 1</text>
</g>
<!-- Node0x1d8873c0 -->
<g id="node16" class="node"><title>Node0x1d8873c0</title>
<polygon fill="none" stroke="black" points="537,-1111.5 537,-1194.5 1134,-1194.5 1134,-1111.5 537,-1111.5"/>
<text text-anchor="start" x="545" y="-1179.3" font-family="Times,serif" font-size="14.00">0x804ace6:</text>
<text text-anchor="start" x="545" y="-1164.3" font-family="Times,serif" font-size="14.00"> *(IntToPtrCastExpr&lt;ptr&gt;(v23)) = *(IntToPtrCastExpr&lt;ptr&gt;(v22))</text>
<text text-anchor="start" x="545" y="-1149.3" font-family="Times,serif" font-size="14.00"> *(IntToPtrCastExpr&lt;ptr&gt;((v23 + 4))) = *(IntToPtrCastExpr&lt;ptr&gt;((v22 + 4)))</text>
<text text-anchor="start" x="545" y="-1134.3" font-family="Times,serif" font-size="14.00"> *(IntToPtrCastExpr&lt;ptr&gt;((v23 + 8))) = *(IntToPtrCastExpr&lt;ptr&gt;((v22 + 8)))</text>
<text text-anchor="start" x="545" y="-1119.3" font-family="Times,serif" font-size="14.00"> *(IntToPtrCastExpr&lt;ptr&gt;((v23 + 12))) = *(IntToPtrCastExpr&lt;ptr&gt;((v22 + 12)))</text>
</g>
<!-- Node0xf854f90&#45;&gt;Node0x1d8873c0 -->
<g id="edge17" class="edge"><title>Node0xf854f90&#45;&gt;Node0x1d8873c0</title>
<path fill="none" stroke="black" d="M835.5,-1246.39C835.5,-1235.15 835.5,-1219.81 835.5,-1204.85"/>
<polygon fill="black" stroke="black" points="839,-1204.62 835.5,-1194.62 832,-1204.62 839,-1204.62"/>
<text text-anchor="middle" x="864" y="-1216.8" font-family="Times,serif" font-size="14.00">v20 &lt; 1</text>
</g>
<!-- Node0x194cf170 -->
<g id="node17" class="node"><title>Node0x194cf170</title>
<polygon fill="none" stroke="black" points="720,-615.5 720,-668.5 999,-668.5 999,-615.5 720,-615.5"/>
<text text-anchor="start" x="728" y="-653.3" font-family="Times,serif" font-size="14.00">0x804ad38:</text>
<text text-anchor="start" x="728" y="-638.3" font-family="Times,serif" font-size="14.00"> *(IntToPtrCastExpr&lt;ptr&gt;(v40)) = 0</text>
<text text-anchor="start" x="728" y="-623.3" font-family="Times,serif" font-size="14.00"> v40 = (v40 + 1)</text>
</g>
<!-- Node0x9bdcac0&#45;&gt;Node0x194cf170 -->
<g id="edge18" class="edge"><title>Node0x9bdcac0&#45;&gt;Node0x194cf170</title>
<path fill="none" stroke="black" d="M1060.67,-818.823C1022.34,-793.153 945.608,-745.12 873.5,-720 828.788,-704.424 799.02,-738.198 768.5,-702 759.699,-691.562 763.185,-682.303 772.705,-674.393"/>
<polygon fill="black" stroke="black" points="774.827,-677.18 781.056,-668.61 770.842,-671.425 774.827,-677.18"/>
<text text-anchor="middle" x="920" y="-690.8" font-family="Times,serif" font-size="14.00">v40 != PtrToIntCastExpr&lt;int32&gt;(&amp;(v41))</text>
</g>
<!-- Node0x9ac2cd0 -->
<g id="node18" class="node"><title>Node0x9ac2cd0</title>
<polygon fill="none" stroke="black" points="1062,-528.5 1062,-596.5 1175,-596.5 1175,-528.5 1062,-528.5"/>
<text text-anchor="start" x="1070" y="-581.3" font-family="Times,serif" font-size="14.00">0x804ad42:</text>
<text text-anchor="start" x="1070" y="-566.3" font-family="Times,serif" font-size="14.00"> g3 = v2</text>
<text text-anchor="start" x="1070" y="-551.3" font-family="Times,serif" font-size="14.00"> g7 = v1</text>
<text text-anchor="start" x="1070" y="-536.3" font-family="Times,serif" font-size="14.00"> return result</text>
</g>
<!-- Node0x9bdcac0&#45;&gt;Node0x9ac2cd0 -->
<g id="edge19" class="edge"><title>Node0x9bdcac0&#45;&gt;Node0x9ac2cd0</title>
<path fill="none" stroke="black" d="M1087.56,-818.954C1092.63,-777.099 1105.82,-668.23 1113.23,-606.983"/>
<polygon fill="black" stroke="black" points="1116.73,-607.202 1114.46,-596.854 1109.78,-606.361 1116.73,-607.202"/>
<text text-anchor="middle" x="1258" y="-690.8" font-family="Times,serif" font-size="14.00">v40 == PtrToIntCastExpr&lt;int32&gt;(&amp;(v41))</text>
</g>
<!-- Node0x194cf580 -->
<g id="node19" class="node"><title>Node0x194cf580</title>
<polygon fill="none" stroke="black" points="423,-1021.5 423,-1057.5 520,-1057.5 520,-1021.5 423,-1021.5"/>
<text text-anchor="start" x="431" y="-1035.8" font-family="Times,serif" font-size="14.00">while True:</text>
</g>
<!-- Node0x194cf5e0&#45;&gt;Node0x194cf580 -->
<g id="edge20" class="edge"><title>Node0x194cf5e0&#45;&gt;Node0x194cf580</title>
<path fill="none" stroke="black" d="M471.5,-1133.59C471.5,-1115.76 471.5,-1088.51 471.5,-1068.09"/>
<polygon fill="black" stroke="black" points="475,-1067.84 471.5,-1057.84 468,-1067.84 475,-1067.84"/>
</g>
<!-- Node0x1d8873c0&#45;&gt;Node0x1d0967a0 -->
<g id="edge21" class="edge"><title>Node0x1d8873c0&#45;&gt;Node0x1d0967a0</title>
<path fill="none" stroke="black" d="M926.463,-1111.43C951.222,-1100.39 977.91,-1088.49 1002.22,-1077.64"/>
<polygon fill="black" stroke="black" points="1003.7,-1080.81 1011.41,-1073.54 1000.85,-1074.42 1003.7,-1080.81"/>
</g>
<!-- Node0x194cf170&#45;&gt;Node0x9bdcac0 -->
<g id="edge22" class="edge"><title>Node0x194cf170&#45;&gt;Node0x9bdcac0</title>
<path fill="none" stroke="black" d="M999.043,-658.996C1031.81,-665.572 1060.44,-674.639 1071.5,-687 1101.2,-720.196 1097.4,-775.757 1091.65,-808.838"/>
<polygon fill="black" stroke="black" points="1088.2,-808.251 1089.75,-818.731 1095.07,-809.569 1088.2,-808.251"/>
</g>
<!-- Node0x244c95c0 -->
<g id="node20" class="node"><title>Node0x244c95c0</title>
<polygon fill="none" stroke="black" points="999.5,-23.5 999.5,-59.5 1053.5,-59.5 1053.5,-23.5 999.5,-23.5"/>
<text text-anchor="start" x="1007.5" y="-37.8" font-family="Times,serif" font-size="14.00">exit:</text>
</g>
<!-- Node0x9ac2cd0&#45;&gt;Node0x244c95c0 -->
<g id="edge23" class="edge"><title>Node0x9ac2cd0&#45;&gt;Node0x244c95c0</title>
<path fill="none" stroke="black" d="M1118.5,-528.487C1118.5,-470.65 1118.5,-347.231 1118.5,-243 1118.5,-243 1118.5,-243 1118.5,-115.5 1118.5,-85.8492 1088.81,-66.3289 1063.17,-54.9976"/>
<polygon fill="black" stroke="black" points="1064.18,-51.6314 1053.61,-51.0517 1061.51,-58.102 1064.18,-51.6314"/>
</g>
<!-- Node0x194ce960 -->
<g id="node21" class="node"><title>Node0x194ce960</title>
<polygon fill="none" stroke="black" points="78,-720.5 78,-953.5 865,-953.5 865,-720.5 78,-720.5"/>
<text text-anchor="start" x="86" y="-938.3" font-family="Times,serif" font-size="14.00">v26 = 0</text>
<text text-anchor="start" x="86" y="-923.3" font-family="Times,serif" font-size="14.00"> v27 = *(IntToPtrCastExpr&lt;ptr&gt;((v26 + v17)))</text>
<text text-anchor="start" x="86" y="-908.3" font-family="Times,serif" font-size="14.00"> v28 = *(IntToPtrCastExpr&lt;ptr&gt;(((v27 % 256) + PtrToIntCastExpr&lt;int32&gt;(&amp;(g199)))))</text>
<text text-anchor="start" x="86" y="-893.3" font-family="Times,serif" font-size="14.00"> v29 = *(IntToPtrCastExpr&lt;ptr&gt;(((v27 / 16777216) + PtrToIntCastExpr&lt;int32&gt;(&amp;(g199)))))</text>
<text text-anchor="start" x="86" y="-878.3" font-family="Times,serif" font-size="14.00"> v30 = *(IntToPtrCastExpr&lt;ptr&gt;(((4 * ExtCastExpr&lt;int32&gt;(v29)) + PtrToIntCastExpr&lt;int32&gt;(&amp;(g209)))))</text>
<text text-anchor="start" x="86" y="-863.3" font-family="Times,serif" font-size="14.00"> v31 = *(IntToPtrCastExpr&lt;ptr&gt;(((4 * ExtCastExpr&lt;int32&gt;(v28)) + PtrToIntCastExpr&lt;int32&gt;(&amp;(g206)))))</text>
<text text-anchor="start" x="86" y="-848.3" font-family="Times,serif" font-size="14.00"> v32 = *(IntToPtrCastExpr&lt;ptr&gt;((((v27 / 256) % 256) + PtrToIntCastExpr&lt;int32&gt;(&amp;(g199)))))</text>
<text text-anchor="start" x="86" y="-833.3" font-family="Times,serif" font-size="14.00"> v33 = *(IntToPtrCastExpr&lt;ptr&gt;((((v27 / 65536) % 256) + PtrToIntCastExpr&lt;int32&gt;(&amp;(g199)))))</text>
<text text-anchor="start" x="86" y="-818.3" font-family="Times,serif" font-size="14.00"> v34 = v33</text>
<text text-anchor="start" x="86" y="-803.3" font-family="Times,serif" font-size="14.00"> g4 = v34</text>
<text text-anchor="start" x="86" y="-788.3" font-family="Times,serif" font-size="14.00"> v35 = *(IntToPtrCastExpr&lt;ptr&gt;(((4 * ExtCastExpr&lt;int32&gt;(v32)) + PtrToIntCastExpr&lt;int32&gt;(&amp;(g207)))))</text>
<text text-anchor="start" x="86" y="-773.3" font-family="Times,serif" font-size="14.00"> v36 = *(IntToPtrCastExpr&lt;ptr&gt;(((4 * v34) + PtrToIntCastExpr&lt;int32&gt;(&amp;(g208)))))</text>
<text text-anchor="start" x="86" y="-758.3" font-family="Times,serif" font-size="14.00"> *(IntToPtrCastExpr&lt;ptr&gt;((v26 + v24))) = (v36 ^ (v35 ^ (v31 ^ v30)))</text>
<text text-anchor="start" x="86" y="-743.3" font-family="Times,serif" font-size="14.00"> v37 = 1</text>
<text text-anchor="start" x="86" y="-728.3" font-family="Times,serif" font-size="14.00"> v38 = v21</text>
</g>
<!-- Node0x194cf580&#45;&gt;Node0x194ce960 -->
<g id="edge24" class="edge"><title>Node0x194cf580&#45;&gt;Node0x194ce960</title>
<path fill="none" stroke="black" d="M471.5,-1021.41C471.5,-1007.55 471.5,-986.627 471.5,-963.814"/>
<polygon fill="black" stroke="black" points="475,-963.579 471.5,-953.579 468,-963.579 475,-963.579"/>
<text text-anchor="middle" x="488.5" y="-975.8" font-family="Times,serif" font-size="14.00">True</text>
</g>
<!-- Node0x26150750 -->
<g id="node22" class="node"><title>Node0x26150750</title>
<polygon fill="none" stroke="black" points="403,-624 403,-660 540,-660 540,-624 403,-624"/>
<text text-anchor="start" x="411" y="-638.3" font-family="Times,serif" font-size="14.00">while (v37 != 4):</text>
</g>
<!-- Node0x194ce960&#45;&gt;Node0x26150750 -->
<g id="edge25" class="edge"><title>Node0x194ce960&#45;&gt;Node0x26150750</title>
<path fill="none" stroke="black" d="M471.5,-720.388C471.5,-701.638 471.5,-683.89 471.5,-670.132"/>
<polygon fill="black" stroke="black" points="475,-670.011 471.5,-660.011 468,-670.011 475,-670.011"/>
</g>
<!-- Node0x9bdb310 -->
<g id="node23" class="node"><title>Node0x9bdb310</title>
<polygon fill="none" stroke="black" points="0,-261.5 0,-509.5 787,-509.5 787,-261.5 0,-261.5"/>
<text text-anchor="start" x="8" y="-494.3" font-family="Times,serif" font-size="14.00">0x804ac5a:</text>
<text text-anchor="start" x="8" y="-479.3" font-family="Times,serif" font-size="14.00"> v26 = (4 * v37)</text>
<text text-anchor="start" x="8" y="-464.3" font-family="Times,serif" font-size="14.00"> v27 = *(IntToPtrCastExpr&lt;ptr&gt;((v26 + v17)))</text>
<text text-anchor="start" x="8" y="-449.3" font-family="Times,serif" font-size="14.00"> v28 = *(IntToPtrCastExpr&lt;ptr&gt;(((v27 % 256) + PtrToIntCastExpr&lt;int32&gt;(&amp;(g199)))))</text>
<text text-anchor="start" x="8" y="-434.3" font-family="Times,serif" font-size="14.00"> v29 = *(IntToPtrCastExpr&lt;ptr&gt;(((v27 / 16777216) + PtrToIntCastExpr&lt;int32&gt;(&amp;(g199)))))</text>
<text text-anchor="start" x="8" y="-419.3" font-family="Times,serif" font-size="14.00"> v30 = *(IntToPtrCastExpr&lt;ptr&gt;(((4 * ExtCastExpr&lt;int32&gt;(v29)) + PtrToIntCastExpr&lt;int32&gt;(&amp;(g209)))))</text>
<text text-anchor="start" x="8" y="-404.3" font-family="Times,serif" font-size="14.00"> v31 = *(IntToPtrCastExpr&lt;ptr&gt;(((4 * ExtCastExpr&lt;int32&gt;(v28)) + PtrToIntCastExpr&lt;int32&gt;(&amp;(g206)))))</text>
<text text-anchor="start" x="8" y="-389.3" font-family="Times,serif" font-size="14.00"> v32 = *(IntToPtrCastExpr&lt;ptr&gt;((((v27 / 256) % 256) + PtrToIntCastExpr&lt;int32&gt;(&amp;(g199)))))</text>
<text text-anchor="start" x="8" y="-374.3" font-family="Times,serif" font-size="14.00"> v33 = *(IntToPtrCastExpr&lt;ptr&gt;((((v27 / 65536) % 256) + PtrToIntCastExpr&lt;int32&gt;(&amp;(g199)))))</text>
<text text-anchor="start" x="8" y="-359.3" font-family="Times,serif" font-size="14.00"> v34 = v33</text>
<text text-anchor="start" x="8" y="-344.3" font-family="Times,serif" font-size="14.00"> g4 = v34</text>
<text text-anchor="start" x="8" y="-329.3" font-family="Times,serif" font-size="14.00"> v35 = *(IntToPtrCastExpr&lt;ptr&gt;(((4 * ExtCastExpr&lt;int32&gt;(v32)) + PtrToIntCastExpr&lt;int32&gt;(&amp;(g207)))))</text>
<text text-anchor="start" x="8" y="-314.3" font-family="Times,serif" font-size="14.00"> v36 = *(IntToPtrCastExpr&lt;ptr&gt;(((4 * v34) + PtrToIntCastExpr&lt;int32&gt;(&amp;(g208)))))</text>
<text text-anchor="start" x="8" y="-299.3" font-family="Times,serif" font-size="14.00"> *(IntToPtrCastExpr&lt;ptr&gt;((v26 + v38))) = (v36 ^ (v35 ^ (v31 ^ v30)))</text>
<text text-anchor="start" x="8" y="-284.3" font-family="Times,serif" font-size="14.00"> v37 = (v37 + 1)</text>
<text text-anchor="start" x="8" y="-269.3" font-family="Times,serif" font-size="14.00"> v38 = v21</text>
</g>
<!-- Node0x26150750&#45;&gt;Node0x9bdb310 -->
<g id="edge26" class="edge"><title>Node0x26150750&#45;&gt;Node0x9bdb310</title>
<path fill="none" stroke="black" d="M423.961,-623.917C412.306,-617.357 401.251,-608.57 394.5,-597 381.026,-573.909 375.171,-546.826 373.681,-519.918"/>
<polygon fill="black" stroke="black" points="377.168,-519.492 373.317,-509.622 370.173,-519.74 377.168,-519.492"/>
<text text-anchor="middle" x="426" y="-558.8" font-family="Times,serif" font-size="14.00">v37 != 4</text>
</g>
<!-- Node0x244cb490 -->
<g id="node24" class="node"><title>Node0x244cb490</title>
<polygon fill="none" stroke="black" points="805.5,-359 805.5,-412 945.5,-412 945.5,-359 805.5,-359"/>
<text text-anchor="start" x="813.5" y="-396.8" font-family="Times,serif" font-size="14.00">v39 = (v38 + 16)</text>
<text text-anchor="start" x="813.5" y="-381.8" font-family="Times,serif" font-size="14.00"> v21 = v39</text>
<text text-anchor="start" x="813.5" y="-366.8" font-family="Times,serif" font-size="14.00"> v17 = (v17 &#45; 16)</text>
</g>
<!-- Node0x26150750&#45;&gt;Node0x244cb490 -->
<g id="edge27" class="edge"><title>Node0x26150750&#45;&gt;Node0x244cb490</title>
<path fill="none" stroke="black" d="M540.137,-626.211C610.426,-608.302 719.817,-572.478 795.5,-510 824.578,-485.996 846.719,-448.618 860.256,-421.267"/>
<polygon fill="black" stroke="black" points="863.509,-422.579 864.683,-412.049 857.199,-419.548 863.509,-422.579"/>
<text text-anchor="middle" x="800" y="-558.8" font-family="Times,serif" font-size="14.00">v37 == 4</text>
</g>
<!-- Node0x9bdb310&#45;&gt;Node0x26150750 -->
<g id="edge28" class="edge"><title>Node0x9bdb310&#45;&gt;Node0x26150750</title>
<path fill="none" stroke="black" d="M451.739,-509.548C453.846,-515.728 455.785,-521.9 457.5,-528 465.535,-556.586 468.961,-590.53 470.42,-613.703"/>
<polygon fill="black" stroke="black" points="466.933,-614.045 470.976,-623.838 473.923,-613.661 466.933,-614.045"/>
</g>
<!-- Node0x2614f880 -->
<g id="node25" class="node"><title>Node0x2614f880</title>
<polygon fill="none" stroke="black" points="818.5,-187.5 818.5,-223.5 932.5,-223.5 932.5,-187.5 818.5,-187.5"/>
<text text-anchor="start" x="826.5" y="-201.8" font-family="Times,serif" font-size="14.00">if (v25 == 1):</text>
</g>
<!-- Node0x244cb490&#45;&gt;Node0x2614f880 -->
<g id="edge29" class="edge"><title>Node0x244cb490&#45;&gt;Node0x2614f880</title>
<path fill="none" stroke="black" d="M875.5,-358.997C875.5,-325.861 875.5,-268.224 875.5,-234.093"/>
<polygon fill="black" stroke="black" points="879,-233.899 875.5,-223.899 872,-233.899 879,-233.899"/>
</g>
<!-- Node0x7b69380 -->
<g id="node26" class="node"><title>Node0x7b69380</title>
<polygon fill="none" stroke="black" points="778.5,-97.5 778.5,-135.5 944.5,-135.5 944.5,-97.5 778.5,-97.5"/>
<text text-anchor="start" x="786.5" y="-120.3" font-family="Times,serif" font-size="14.00">break &#45;&gt; 0x804acc3:</text>
<text text-anchor="start" x="786.5" y="-105.3" font-family="Times,serif" font-size="14.00"> break</text>
</g>
<!-- Node0x2614f880&#45;&gt;Node0x7b69380 -->
<g id="edge30" class="edge"><title>Node0x2614f880&#45;&gt;Node0x7b69380</title>
<path fill="none" stroke="black" d="M872.734,-187.312C870.816,-175.394 868.219,-159.256 866.006,-145.499"/>
<polygon fill="black" stroke="black" points="869.449,-144.868 864.405,-135.551 862.538,-145.98 869.449,-144.868"/>
<text text-anchor="middle" x="905" y="-157.8" font-family="Times,serif" font-size="14.00">v25 == 1</text>
</g>
<!-- Node0x9ac24a0 -->
<g id="node27" class="node"><title>Node0x9ac24a0</title>
<polygon fill="none" stroke="black" points="962.5,-97.5 962.5,-135.5 1090.5,-135.5 1090.5,-97.5 962.5,-97.5"/>
<text text-anchor="start" x="970.5" y="-120.3" font-family="Times,serif" font-size="14.00">v24 = v39</text>
<text text-anchor="start" x="970.5" y="-105.3" font-family="Times,serif" font-size="14.00"> v25 = (v25 &#45; 1)</text>
</g>
<!-- Node0x2614f880&#45;&gt;Node0x9ac24a0 -->
<g id="edge31" class="edge"><title>Node0x2614f880&#45;&gt;Node0x9ac24a0</title>
<path fill="none" stroke="black" d="M909.316,-187.474C920.312,-181.771 932.51,-175.267 943.5,-169 958.871,-160.235 975.501,-150.059 989.81,-141.079"/>
<polygon fill="black" stroke="black" points="991.799,-143.962 998.387,-135.665 988.062,-138.043 991.799,-143.962"/>
<text text-anchor="middle" x="999" y="-157.8" font-family="Times,serif" font-size="14.00">v25 != 1</text>
</g>
<!-- Node0x7b69380&#45;&gt;Node0x244c95c0 -->
<g id="edge32" class="edge"><title>Node0x7b69380&#45;&gt;Node0x244c95c0</title>
<path fill="none" stroke="black" d="M902.287,-97.4551C929.027,-85.6245 963.701,-70.2836 989.617,-58.8179"/>
<polygon fill="black" stroke="black" points="991.357,-61.8755 999.086,-54.6287 988.525,-55.474 991.357,-61.8755"/>
</g>
<!-- Node0x9ac24a0&#45;&gt;Node0x244c95c0 -->
<g id="edge33" class="edge"><title>Node0x9ac24a0&#45;&gt;Node0x244c95c0</title>
<path fill="none" stroke="black" d="M1026.5,-97.4551C1026.5,-89.2008 1026.5,-79.2377 1026.5,-70.0742"/>
<polygon fill="black" stroke="black" points="1030,-69.8347 1026.5,-59.8347 1023,-69.8347 1030,-69.8347"/>
</g>
</g>
</svg>
