<?xml version="1.0" encoding="UTF-8" standalone="no"?>
<!DOCTYPE svg PUBLIC "-//W3C//DTD SVG 1.1//EN"
 "http://www.w3.org/Graphics/SVG/1.1/DTD/svg11.dtd">
<!-- Generated by graphviz version 2.38.0 (20140413.2041)
 -->
<!-- Title: Control&#45;flow graph for function &#39;mbedtls_cipher_list(a1)&#39;. Pages: 1 -->
<svg width="1214pt" height="617pt"
 viewBox="0.00 0.00 1214.11 617.00" xmlns="http://www.w3.org/2000/svg" xmlns:xlink="http://www.w3.org/1999/xlink">
<g id="graph0" class="graph" transform="scale(1 1) rotate(0) translate(4 613)">
<title>Control&#45;flow graph for function &#39;mbedtls_cipher_list(a1)&#39;.</title>
<polygon fill="white" stroke="none" points="-4,4 -4,-613 1210.11,-613 1210.11,4 -4,4"/>
<text text-anchor="middle" x="603.055" y="-7.8" font-family="Times,serif" font-size="14.00">Control&#45;flow graph for function &#39;mbedtls_cipher_list(a1)&#39;.</text>
<!-- Node0x157a4160 -->
<g id="node1" class="node"><title>Node0x157a4160</title>
<polygon fill="none" stroke="black" points="797,-570.5 797,-608.5 856,-608.5 856,-570.5 797,-570.5"/>
<text text-anchor="start" x="805" y="-593.3" font-family="Times,serif" font-size="14.00">entry:</text>
<text text-anchor="start" x="805" y="-578.3" font-family="Times,serif" font-size="14.00"> a1</text>
</g>
<!-- Node0xd6c32f0 -->
<g id="node2" class="node"><title>Node0xd6c32f0</title>
<polygon fill="none" stroke="black" points="762.5,-494.5 762.5,-532.5 890.5,-532.5 890.5,-494.5 762.5,-494.5"/>
<text text-anchor="start" x="770.5" y="-517.3" font-family="Times,serif" font-size="14.00">0x8069500:</text>
<text text-anchor="start" x="770.5" y="-502.3" font-family="Times,serif" font-size="14.00"> if (g219 == 0):</text>
</g>
<!-- Node0x157a4160&#45;&gt;Node0xd6c32f0 -->
<g id="edge1" class="edge"><title>Node0x157a4160&#45;&gt;Node0xd6c32f0</title>
<path fill="none" stroke="black" d="M826.5,-570.208C826.5,-561.964 826.5,-552.038 826.5,-542.862"/>
<polygon fill="black" stroke="black" points="830,-542.582 826.5,-532.582 823,-542.582 830,-542.582"/>
</g>
<!-- Node0x157a2920 -->
<g id="node3" class="node"><title>Node0x157a2920</title>
<polygon fill="none" stroke="black" points="277,-359.5 277,-442.5 882,-442.5 882,-359.5 277,-359.5"/>
<text text-anchor="start" x="285" y="-427.3" font-family="Times,serif" font-size="14.00">0x8069520:</text>
<text text-anchor="start" x="285" y="-412.3" font-family="Times,serif" font-size="14.00"> *(IntToPtrCastExpr&lt;ptr&gt;(PtrToIntCastExpr&lt;int32&gt;(&amp;(g226)))) = 2</text>
<text text-anchor="start" x="285" y="-397.3" font-family="Times,serif" font-size="14.00"> v1 = 0</text>
<text text-anchor="start" x="285" y="-382.3" font-family="Times,serif" font-size="14.00"> v2 = *(IntToPtrCastExpr&lt;ptr&gt;(((2 * v1) + PtrToIntCastExpr&lt;int32&gt;(&amp;(g137)))))</text>
<text text-anchor="start" x="285" y="-367.3" font-family="Times,serif" font-size="14.00"> v3 = (v1 + 4)</text>
</g>
<!-- Node0xd6c32f0&#45;&gt;Node0x157a2920 -->
<g id="edge2" class="edge"><title>Node0xd6c32f0&#45;&gt;Node0x157a2920</title>
<path fill="none" stroke="black" d="M785.99,-494.377C757.034,-481.423 716.749,-463.401 679.444,-446.712"/>
<polygon fill="black" stroke="black" points="680.589,-443.39 670.032,-442.501 677.731,-449.78 680.589,-443.39"/>
<text text-anchor="middle" x="780" y="-464.8" font-family="Times,serif" font-size="14.00">g219 == 0</text>
</g>
<!-- Node0x157a6af0 -->
<g id="node4" class="node"><title>Node0x157a6af0</title>
<polygon fill="none" stroke="black" points="850,-287.5 850,-340.5 981,-340.5 981,-287.5 850,-287.5"/>
<text text-anchor="start" x="858" y="-325.3" font-family="Times,serif" font-size="14.00">0x806954a:</text>
<text text-anchor="start" x="858" y="-310.3" font-family="Times,serif" font-size="14.00"> g1 = &amp;(g226)</text>
<text text-anchor="start" x="858" y="-295.3" font-family="Times,serif" font-size="14.00"> return &amp;(g226)</text>
</g>
<!-- Node0xd6c32f0&#45;&gt;Node0x157a6af0 -->
<g id="edge3" class="edge"><title>Node0xd6c32f0&#45;&gt;Node0x157a6af0</title>
<path fill="none" stroke="black" d="M848.552,-494.406C862.736,-481.544 880.352,-463.05 890.5,-443 905.123,-414.108 911.21,-377.549 913.735,-350.907"/>
<polygon fill="black" stroke="black" points="917.229,-351.116 914.563,-340.862 910.253,-350.541 917.229,-351.116"/>
<text text-anchor="middle" x="916" y="-464.8" font-family="Times,serif" font-size="14.00">g219 != 0</text>
</g>
<!-- Node0xe02a3f0 -->
<g id="node5" class="node"><title>Node0xe02a3f0</title>
<polygon fill="none" stroke="black" points="511.5,-232.5 511.5,-268.5 639.5,-268.5 639.5,-232.5 511.5,-232.5"/>
<text text-anchor="start" x="519.5" y="-246.8" font-family="Times,serif" font-size="14.00">while (v2 != 0):</text>
</g>
<!-- Node0x157a2920&#45;&gt;Node0xe02a3f0 -->
<g id="edge4" class="edge"><title>Node0x157a2920&#45;&gt;Node0xe02a3f0</title>
<path fill="none" stroke="black" d="M578.407,-359.422C577.719,-333.887 576.85,-301.612 576.242,-279.038"/>
<polygon fill="black" stroke="black" points="579.734,-278.709 575.966,-268.807 572.737,-278.898 579.734,-278.709"/>
</g>
<!-- Node0xd6c2960 -->
<g id="node6" class="node"><title>Node0xd6c2960</title>
<polygon fill="none" stroke="black" points="1101.5,-23.5 1101.5,-59.5 1155.5,-59.5 1155.5,-23.5 1101.5,-23.5"/>
<text text-anchor="start" x="1109.5" y="-37.8" font-family="Times,serif" font-size="14.00">exit:</text>
</g>
<!-- Node0x157a6af0&#45;&gt;Node0xd6c2960 -->
<g id="edge5" class="edge"><title>Node0x157a6af0&#45;&gt;Node0xd6c2960</title>
<path fill="none" stroke="black" d="M981.176,-302.265C1047.44,-287.556 1146.36,-254.09 1192.5,-181 1212.43,-149.43 1208.15,-130.893 1192.5,-97 1186.34,-83.6735 1175.15,-72.4055 1163.82,-63.6358"/>
<polygon fill="black" stroke="black" points="1165.77,-60.7272 1155.62,-57.6979 1161.66,-66.3973 1165.77,-60.7272"/>
</g>
<!-- Node0x157a26c0 -->
<g id="node7" class="node"><title>Node0x157a26c0</title>
<polygon fill="none" stroke="black" points="0,-97.5 0,-180.5 605,-180.5 605,-97.5 0,-97.5"/>
<text text-anchor="start" x="8" y="-165.3" font-family="Times,serif" font-size="14.00">0x8069520:</text>
<text text-anchor="start" x="8" y="-150.3" font-family="Times,serif" font-size="14.00"> *(IntToPtrCastExpr&lt;ptr&gt;((v3 + PtrToIntCastExpr&lt;int32&gt;(&amp;(g226))))) = v2</text>
<text text-anchor="start" x="8" y="-135.3" font-family="Times,serif" font-size="14.00"> v1 = v3</text>
<text text-anchor="start" x="8" y="-120.3" font-family="Times,serif" font-size="14.00"> v2 = *(IntToPtrCastExpr&lt;ptr&gt;(((2 * v1) + PtrToIntCastExpr&lt;int32&gt;(&amp;(g137)))))</text>
<text text-anchor="start" x="8" y="-105.3" font-family="Times,serif" font-size="14.00"> v3 = (v1 + 4)</text>
</g>
<!-- Node0xe02a3f0&#45;&gt;Node0x157a26c0 -->
<g id="edge6" class="edge"><title>Node0xe02a3f0&#45;&gt;Node0x157a26c0</title>
<path fill="none" stroke="black" d="M511.274,-238.275C485.061,-232.601 454.79,-224.623 428.5,-214 409.499,-206.323 389.944,-196.122 372.076,-185.755"/>
<polygon fill="black" stroke="black" points="373.84,-182.733 363.449,-180.663 370.282,-188.761 373.84,-182.733"/>
<text text-anchor="middle" x="455.5" y="-202.8" font-family="Times,serif" font-size="14.00">v2 != 0</text>
</g>
<!-- Node0x157a3020 -->
<g id="node8" class="node"><title>Node0x157a3020</title>
<polygon fill="none" stroke="black" points="623.5,-112.5 623.5,-165.5 1183.5,-165.5 1183.5,-112.5 623.5,-112.5"/>
<text text-anchor="start" x="631.5" y="-150.3" font-family="Times,serif" font-size="14.00">0x806953a:</text>
<text text-anchor="start" x="631.5" y="-135.3" font-family="Times,serif" font-size="14.00"> *(IntToPtrCastExpr&lt;ptr&gt;((v1 + PtrToIntCastExpr&lt;int32&gt;(&amp;(g227))))) = 0</text>
<text text-anchor="start" x="631.5" y="-120.3" font-family="Times,serif" font-size="14.00"> g219 = 1</text>
</g>
<!-- Node0xe02a3f0&#45;&gt;Node0x157a3020 -->
<g id="edge7" class="edge"><title>Node0xe02a3f0&#45;&gt;Node0x157a3020</title>
<path fill="none" stroke="black" d="M626.75,-232.391C677.716,-215.376 756.839,-188.962 817.451,-168.727"/>
<polygon fill="black" stroke="black" points="818.635,-172.021 827.013,-165.535 816.419,-165.381 818.635,-172.021"/>
<text text-anchor="middle" x="750.5" y="-202.8" font-family="Times,serif" font-size="14.00">v2 == 0</text>
</g>
<!-- Node0x157a26c0&#45;&gt;Node0xe02a3f0 -->
<g id="edge8" class="edge"><title>Node0x157a26c0&#45;&gt;Node0xe02a3f0</title>
<path fill="none" stroke="black" d="M435.734,-180.654C451.655,-186.396 467.552,-192.555 482.5,-199 501.433,-207.164 521.637,-217.874 538.361,-227.329"/>
<polygon fill="black" stroke="black" points="536.846,-230.496 547.263,-232.429 540.326,-224.422 536.846,-230.496"/>
</g>
<!-- Node0x157a3020&#45;&gt;Node0xd6c2960 -->
<g id="edge9" class="edge"><title>Node0x157a3020&#45;&gt;Node0xd6c2960</title>
<path fill="none" stroke="black" d="M963.796,-112.408C1004.73,-95.0349 1057.5,-72.634 1092.14,-57.9333"/>
<polygon fill="black" stroke="black" points="1093.56,-61.1307 1101.4,-54.0017 1090.83,-54.6871 1093.56,-61.1307"/>
</g>
</g>
</svg>
