<?xml version="1.0" encoding="UTF-8" standalone="no"?>
<!DOCTYPE svg PUBLIC "-//W3C//DTD SVG 1.1//EN"
 "http://www.w3.org/Graphics/SVG/1.1/DTD/svg11.dtd">
<!-- Generated by graphviz version 2.38.0 (20140413.2041)
 -->
<!-- Title: Control&#45;flow graph for function &#39;mbedtls_md_free(*a1)&#39;. Pages: 1 -->
<svg width="899pt" height="2025pt"
 viewBox="0.00 0.00 899.00 2025.00" xmlns="http://www.w3.org/2000/svg" xmlns:xlink="http://www.w3.org/1999/xlink">
<g id="graph0" class="graph" transform="scale(1 1) rotate(0) translate(4 2021)">
<title>Control&#45;flow graph for function &#39;mbedtls_md_free(*a1)&#39;.</title>
<polygon fill="white" stroke="none" points="-4,4 -4,-2021 895,-2021 895,4 -4,4"/>
<text text-anchor="middle" x="445.5" y="-7.8" font-family="Times,serif" font-size="14.00">Control&#45;flow graph for function &#39;mbedtls_md_free(*a1)&#39;.</text>
<!-- Node0x8d6c510 -->
<g id="node1" class="node"><title>Node0x8d6c510</title>
<polygon fill="none" stroke="black" points="142,-1978.5 142,-2016.5 201,-2016.5 201,-1978.5 142,-1978.5"/>
<text text-anchor="start" x="150" y="-2001.3" font-family="Times,serif" font-size="14.00">entry:</text>
<text text-anchor="start" x="150" y="-1986.3" font-family="Times,serif" font-size="14.00"> a1</text>
</g>
<!-- Node0x8d6b640 -->
<g id="node2" class="node"><title>Node0x8d6b640</title>
<polygon fill="none" stroke="black" points="33.5,-1827.5 33.5,-1940.5 309.5,-1940.5 309.5,-1827.5 33.5,-1827.5"/>
<text text-anchor="start" x="41.5" y="-1925.3" font-family="Times,serif" font-size="14.00">0x80626f0:</text>
<text text-anchor="start" x="41.5" y="-1910.3" font-family="Times,serif" font-size="14.00"> v1</text>
<text text-anchor="start" x="41.5" y="-1895.3" font-family="Times,serif" font-size="14.00"> v2 = v1</text>
<text text-anchor="start" x="41.5" y="-1880.3" font-family="Times,serif" font-size="14.00"> g2 = &amp;(v2)</text>
<text text-anchor="start" x="41.5" y="-1865.3" font-family="Times,serif" font-size="14.00"> v3 = g3</text>
<text text-anchor="start" x="41.5" y="-1850.3" font-family="Times,serif" font-size="14.00"> v4 = PtrToIntCastExpr&lt;int32&gt;(a1)</text>
<text text-anchor="start" x="41.5" y="-1835.3" font-family="Times,serif" font-size="14.00"> g3 = v4</text>
</g>
<!-- Node0x8d6c510&#45;&gt;Node0x8d6b640 -->
<g id="edge1" class="edge"><title>Node0x8d6c510&#45;&gt;Node0x8d6b640</title>
<path fill="none" stroke="black" d="M171.5,-1978.09C171.5,-1970.29 171.5,-1960.7 171.5,-1950.66"/>
<polygon fill="black" stroke="black" points="175,-1950.53 171.5,-1940.53 168,-1950.53 175,-1950.53"/>
</g>
<!-- Node0x8d66840 -->
<g id="node3" class="node"><title>Node0x8d66840</title>
<polygon fill="none" stroke="black" points="101.5,-1753.5 101.5,-1789.5 241.5,-1789.5 241.5,-1753.5 101.5,-1753.5"/>
<text text-anchor="start" x="109.5" y="-1767.8" font-family="Times,serif" font-size="14.00">if (a1 == NULL):</text>
</g>
<!-- Node0x8d6b640&#45;&gt;Node0x8d66840 -->
<g id="edge2" class="edge"><title>Node0x8d6b640&#45;&gt;Node0x8d66840</title>
<path fill="none" stroke="black" d="M171.5,-1827.43C171.5,-1817.86 171.5,-1808.31 171.5,-1799.91"/>
<polygon fill="black" stroke="black" points="175,-1799.64 171.5,-1789.64 168,-1799.64 175,-1799.64"/>
</g>
<!-- Node0x92f81a0 -->
<g id="node4" class="node"><title>Node0x92f81a0</title>
<polygon fill="none" stroke="black" points="0,-1561.5 0,-1629.5 101,-1629.5 101,-1561.5 0,-1561.5"/>
<text text-anchor="start" x="8" y="-1614.3" font-family="Times,serif" font-size="14.00">0x8062752:</text>
<text text-anchor="start" x="8" y="-1599.3" font-family="Times,serif" font-size="14.00"> g3 = v3</text>
<text text-anchor="start" x="8" y="-1584.3" font-family="Times,serif" font-size="14.00"> g2 = v1</text>
<text text-anchor="start" x="8" y="-1569.3" font-family="Times,serif" font-size="14.00"> return g1</text>
</g>
<!-- Node0x8d66840&#45;&gt;Node0x92f81a0 -->
<g id="edge3" class="edge"><title>Node0x8d66840&#45;&gt;Node0x92f81a0</title>
<path fill="none" stroke="black" d="M159.678,-1753.5C141.235,-1726.98 105.076,-1674.98 79.4306,-1638.1"/>
<polygon fill="black" stroke="black" points="82.0627,-1635.76 73.4799,-1629.55 76.3157,-1639.75 82.0627,-1635.76"/>
<text text-anchor="middle" x="192.5" y="-1723.8" font-family="Times,serif" font-size="14.00">a1 == NULL</text>
</g>
<!-- Node0x22fc72c0 -->
<g id="node5" class="node"><title>Node0x22fc72c0</title>
<polygon fill="none" stroke="black" points="246,-1648.5 246,-1701.5 481,-1701.5 481,-1648.5 246,-1648.5"/>
<text text-anchor="start" x="254" y="-1686.3" font-family="Times,serif" font-size="14.00">v5 = *(BitCastExpr&lt;ptr&gt;(a1))</text>
<text text-anchor="start" x="254" y="-1671.3" font-family="Times,serif" font-size="14.00"> g1 = v5</text>
<text text-anchor="start" x="254" y="-1656.3" font-family="Times,serif" font-size="14.00"> result</text>
</g>
<!-- Node0x8d66840&#45;&gt;Node0x22fc72c0 -->
<g id="edge4" class="edge"><title>Node0x8d66840&#45;&gt;Node0x22fc72c0</title>
<path fill="none" stroke="black" d="M206.27,-1753.39C233.023,-1740.22 270.663,-1721.69 302.409,-1706.07"/>
<polygon fill="black" stroke="black" points="304.195,-1709.09 311.621,-1701.53 301.103,-1702.81 304.195,-1709.09"/>
<text text-anchor="middle" x="317.5" y="-1723.8" font-family="Times,serif" font-size="14.00">a1 != NULL</text>
</g>
<!-- Node0x8d68f50 -->
<g id="node6" class="node"><title>Node0x8d68f50</title>
<polygon fill="none" stroke="black" points="737.5,-23.5 737.5,-59.5 791.5,-59.5 791.5,-23.5 737.5,-23.5"/>
<text text-anchor="start" x="745.5" y="-37.8" font-family="Times,serif" font-size="14.00">exit:</text>
</g>
<!-- Node0x92f81a0&#45;&gt;Node0x8d68f50 -->
<g id="edge5" class="edge"><title>Node0x92f81a0&#45;&gt;Node0x8d68f50</title>
<path fill="none" stroke="black" d="M44.3186,-1561.42C40.5682,-1538.5 36.5,-1507.26 36.5,-1479.5 36.5,-1479.5 36.5,-1479.5 36.5,-123 36.5,-52.8315 577.702,-43.8188 726.845,-42.6673"/>
<polygon fill="black" stroke="black" points="727.315,-46.1642 737.29,-42.5948 727.266,-39.1644 727.315,-46.1642"/>
</g>
<!-- Node0x902aa90 -->
<g id="node7" class="node"><title>Node0x902aa90</title>
<polygon fill="none" stroke="black" points="414,-1504.5 414,-1542.5 513,-1542.5 513,-1504.5 414,-1504.5"/>
<text text-anchor="start" x="422" y="-1527.3" font-family="Times,serif" font-size="14.00">if (v5 != 0):</text>
<text text-anchor="start" x="422" y="-1512.3" font-family="Times,serif" font-size="14.00"> else:</text>
</g>
<!-- Node0x22fc72c0&#45;&gt;Node0x902aa90 -->
<g id="edge6" class="edge"><title>Node0x22fc72c0&#45;&gt;Node0x902aa90</title>
<path fill="none" stroke="black" d="M380.691,-1648.3C398.831,-1621.18 427.287,-1578.64 445.666,-1551.16"/>
<polygon fill="black" stroke="black" points="448.603,-1553.07 451.254,-1542.81 442.785,-1549.17 448.603,-1553.07"/>
</g>
<!-- Node0x22fc76f0 -->
<g id="node8" class="node"><title>Node0x22fc76f0</title>
<polygon fill="none" stroke="black" points="306.5,-1399.5 306.5,-1452.5 620.5,-1452.5 620.5,-1399.5 306.5,-1399.5"/>
<text text-anchor="start" x="314.5" y="-1437.3" font-family="Times,serif" font-size="14.00">v6 = *(IntToPtrCastExpr&lt;ptr&gt;((v4 + 4)))</text>
<text text-anchor="start" x="314.5" y="-1422.3" font-family="Times,serif" font-size="14.00"> g6 = v6</text>
<text text-anchor="start" x="314.5" y="-1407.3" font-family="Times,serif" font-size="14.00"> g237 = (v6 == 0)</text>
</g>
<!-- Node0x902aa90&#45;&gt;Node0x22fc76f0 -->
<g id="edge7" class="edge"><title>Node0x902aa90&#45;&gt;Node0x22fc76f0</title>
<path fill="none" stroke="black" d="M463.5,-1504.09C463.5,-1492.42 463.5,-1476.95 463.5,-1462.93"/>
<polygon fill="black" stroke="black" points="467,-1462.58 463.5,-1452.58 460,-1462.58 467,-1462.58"/>
<text text-anchor="middle" x="490.5" y="-1474.8" font-family="Times,serif" font-size="14.00">v5 != 0</text>
</g>
<!-- Node0x22fc86e0 -->
<g id="node9" class="node"><title>Node0x22fc86e0</title>
<polygon fill="none" stroke="black" points="713,-1342.5 713,-1380.5 802,-1380.5 802,-1342.5 713,-1342.5"/>
<text text-anchor="start" x="721" y="-1365.3" font-family="Times,serif" font-size="14.00">result = 0</text>
<text text-anchor="start" x="721" y="-1350.3" font-family="Times,serif" font-size="14.00"> v2 = v1</text>
</g>
<!-- Node0x902aa90&#45;&gt;Node0x22fc86e0 -->
<g id="edge8" class="edge"><title>Node0x902aa90&#45;&gt;Node0x22fc86e0</title>
<path fill="none" stroke="black" d="M513.122,-1505C546.823,-1492.33 591.923,-1473.82 629.5,-1453 664.576,-1433.57 701.678,-1406.52 726.854,-1387.07"/>
<polygon fill="black" stroke="black" points="729.181,-1389.69 734.915,-1380.78 724.876,-1384.17 729.181,-1389.69"/>
<text text-anchor="middle" x="621.5" y="-1474.8" font-family="Times,serif" font-size="14.00">v5 == 0</text>
</g>
<!-- Node0x22fc7860 -->
<g id="node10" class="node"><title>Node0x22fc7860</title>
<polygon fill="none" stroke="black" points="414,-1287.5 414,-1323.5 513,-1323.5 513,-1287.5 414,-1287.5"/>
<text text-anchor="start" x="422" y="-1301.8" font-family="Times,serif" font-size="14.00">if (v6 != 0):</text>
</g>
<!-- Node0x22fc76f0&#45;&gt;Node0x22fc7860 -->
<g id="edge9" class="edge"><title>Node0x22fc76f0&#45;&gt;Node0x22fc7860</title>
<path fill="none" stroke="black" d="M463.5,-1399.29C463.5,-1379.99 463.5,-1353.61 463.5,-1333.92"/>
<polygon fill="black" stroke="black" points="467,-1333.75 463.5,-1323.75 460,-1333.75 467,-1333.75"/>
</g>
<!-- Node0x22fc7690 -->
<g id="node11" class="node"><title>Node0x22fc7690</title>
<polygon fill="none" stroke="black" points="778,-1200.5 778,-1268.5 891,-1268.5 891,-1200.5 778,-1200.5"/>
<text text-anchor="start" x="786" y="-1253.3" font-family="Times,serif" font-size="14.00">0x8062752:</text>
<text text-anchor="start" x="786" y="-1238.3" font-family="Times,serif" font-size="14.00"> g3 = v3</text>
<text text-anchor="start" x="786" y="-1223.3" font-family="Times,serif" font-size="14.00"> g2 = v2</text>
<text text-anchor="start" x="786" y="-1208.3" font-family="Times,serif" font-size="14.00"> return result</text>
</g>
<!-- Node0x22fc86e0&#45;&gt;Node0x22fc7690 -->
<g id="edge10" class="edge"><title>Node0x22fc86e0&#45;&gt;Node0x22fc7690</title>
<path fill="none" stroke="black" d="M768.696,-1342.32C779.154,-1325.35 795.149,-1299.38 808.75,-1277.3"/>
<polygon fill="black" stroke="black" points="811.757,-1279.09 814.022,-1268.74 805.797,-1275.42 811.757,-1279.09"/>
</g>
<!-- Node0x22fc87f0 -->
<g id="node12" class="node"><title>Node0x22fc87f0</title>
<polygon fill="none" stroke="black" points="169,-1128.5 169,-1181.5 670,-1181.5 670,-1128.5 169,-1128.5"/>
<text text-anchor="start" x="177" y="-1166.3" font-family="Times,serif" font-size="14.00">0x806270b:</text>
<text text-anchor="start" x="177" y="-1151.3" font-family="Times,serif" font-size="14.00"> IntToPtrCastExpr&lt;ptr&gt;(*(IntToPtrCastExpr&lt;ptr&gt;((v5 + 36))))(v6)</text>
<text text-anchor="start" x="177" y="-1136.3" font-family="Times,serif" font-size="14.00"> v4 = g3</text>
</g>
<!-- Node0x22fc7860&#45;&gt;Node0x22fc87f0 -->
<g id="edge11" class="edge"><title>Node0x22fc7860&#45;&gt;Node0x22fc87f0</title>
<path fill="none" stroke="black" d="M458.453,-1287.47C451.537,-1264.12 438.951,-1221.65 429.956,-1191.29"/>
<polygon fill="black" stroke="black" points="433.254,-1190.1 427.057,-1181.5 426.542,-1192.09 433.254,-1190.1"/>
<text text-anchor="middle" x="480.5" y="-1230.8" font-family="Times,serif" font-size="14.00">v6 != 0</text>
</g>
<!-- Node0x22fc7bf0 -->
<g id="node13" class="node"><title>Node0x22fc7bf0</title>
<polygon fill="none" stroke="black" points="506.5,-1037.5 506.5,-1090.5 820.5,-1090.5 820.5,-1037.5 506.5,-1037.5"/>
<text text-anchor="start" x="514.5" y="-1075.3" font-family="Times,serif" font-size="14.00">v7 = *(IntToPtrCastExpr&lt;ptr&gt;((v4 + 8)))</text>
<text text-anchor="start" x="514.5" y="-1060.3" font-family="Times,serif" font-size="14.00"> g4 = v7</text>
<text text-anchor="start" x="514.5" y="-1045.3" font-family="Times,serif" font-size="14.00"> v8 = v4</text>
</g>
<!-- Node0x22fc7860&#45;&gt;Node0x22fc7bf0 -->
<g id="edge12" class="edge"><title>Node0x22fc7860&#45;&gt;Node0x22fc7bf0</title>
<path fill="none" stroke="black" d="M513.351,-1292.08C565.276,-1276.18 643.914,-1243.09 679.5,-1182 693.92,-1157.24 687.829,-1124.65 679.323,-1100.15"/>
<polygon fill="black" stroke="black" points="682.504,-1098.67 675.717,-1090.53 675.949,-1101.12 682.504,-1098.67"/>
<text text-anchor="middle" x="717.5" y="-1151.3" font-family="Times,serif" font-size="14.00">v6 == 0</text>
</g>
<!-- Node0x22fc7690&#45;&gt;Node0x8d68f50 -->
<g id="edge13" class="edge"><title>Node0x22fc7690&#45;&gt;Node0x8d68f50</title>
<path fill="none" stroke="black" d="M852.861,-1200.25C864.548,-1175.98 877.5,-1141.9 877.5,-1110 877.5,-1110 877.5,-1110 877.5,-123 877.5,-84.9085 834.379,-63.1594 801.412,-52.0977"/>
<polygon fill="black" stroke="black" points="802.156,-48.6625 791.566,-49.0016 800.056,-55.3401 802.156,-48.6625"/>
</g>
<!-- Node0x22fc87f0&#45;&gt;Node0x22fc7bf0 -->
<g id="edge14" class="edge"><title>Node0x22fc87f0&#45;&gt;Node0x22fc7bf0</title>
<path fill="none" stroke="black" d="M489.421,-1128.5C518.901,-1117.74 553.376,-1105.17 583.833,-1094.06"/>
<polygon fill="black" stroke="black" points="585.374,-1097.22 593.569,-1090.51 582.975,-1090.65 585.374,-1097.22"/>
</g>
<!-- Node0xd8a8df0 -->
<g id="node14" class="node"><title>Node0xd8a8df0</title>
<polygon fill="none" stroke="black" points="614,-963.5 614,-999.5 713,-999.5 713,-963.5 614,-963.5"/>
<text text-anchor="start" x="622" y="-977.8" font-family="Times,serif" font-size="14.00">if (v7 != 0):</text>
</g>
<!-- Node0x22fc7bf0&#45;&gt;Node0xd8a8df0 -->
<g id="edge15" class="edge"><title>Node0x22fc7bf0&#45;&gt;Node0xd8a8df0</title>
<path fill="none" stroke="black" d="M663.5,-1037.09C663.5,-1028.46 663.5,-1018.82 663.5,-1010.07"/>
<polygon fill="black" stroke="black" points="667,-1009.97 663.5,-999.974 660,-1009.97 667,-1009.97"/>
</g>
<!-- Node0x22fc8850 -->
<g id="node15" class="node"><title>Node0x22fc8850</title>
<polygon fill="none" stroke="black" points="213,-875.5 213,-911.5 774,-911.5 774,-875.5 213,-875.5"/>
<text text-anchor="start" x="221" y="-889.8" font-family="Times,serif" font-size="14.00">v9 = (2 * *(IntToPtrCastExpr&lt;ptr&gt;((*(IntToPtrCastExpr&lt;ptr&gt;(v4)) + 12))))</text>
</g>
<!-- Node0xd8a8df0&#45;&gt;Node0x22fc8850 -->
<g id="edge16" class="edge"><title>Node0xd8a8df0&#45;&gt;Node0x22fc8850</title>
<path fill="none" stroke="black" d="M629.507,-963.303C602.665,-949.724 565.054,-930.698 536.185,-916.094"/>
<polygon fill="black" stroke="black" points="537.648,-912.911 527.144,-911.52 534.488,-919.157 537.648,-912.911"/>
<text text-anchor="middle" x="615.5" y="-933.8" font-family="Times,serif" font-size="14.00">v7 != 0</text>
</g>
<!-- Node0x22fc8290 -->
<g id="node16" class="node"><title>Node0x22fc8290</title>
<polygon fill="none" stroke="black" points="552.5,-276.5 552.5,-329.5 822.5,-329.5 822.5,-276.5 552.5,-276.5"/>
<text text-anchor="start" x="560.5" y="-314.3" font-family="Times,serif" font-size="14.00">0x806273e:</text>
<text text-anchor="start" x="560.5" y="-299.3" font-family="Times,serif" font-size="14.00"> *(IntToPtrCastExpr&lt;ptr&gt;(v8)) = 0</text>
<text text-anchor="start" x="560.5" y="-284.3" font-family="Times,serif" font-size="14.00"> v13 = (v8 + 1)</text>
</g>
<!-- Node0xd8a8df0&#45;&gt;Node0x22fc8290 -->
<g id="edge17" class="edge"><title>Node0xd8a8df0&#45;&gt;Node0x22fc8290</title>
<path fill="none" stroke="black" d="M713.29,-970.916C753.174,-960.01 802.5,-937.775 802.5,-894.5 802.5,-894.5 802.5,-894.5 802.5,-393 802.5,-367.815 785.037,-348.744 763.722,-334.845"/>
<polygon fill="black" stroke="black" points="765.424,-331.785 755.061,-329.582 761.789,-337.767 765.424,-331.785"/>
<text text-anchor="middle" x="832.5" y="-651.8" font-family="Times,serif" font-size="14.00">v7 == 0</text>
</g>
<!-- Node0x22fc7750 -->
<g id="node17" class="node"><title>Node0x22fc7750</title>
<polygon fill="none" stroke="black" points="444,-801.5 444,-837.5 543,-837.5 543,-801.5 444,-801.5"/>
<text text-anchor="start" x="452" y="-815.8" font-family="Times,serif" font-size="14.00">if (v9 != 0):</text>
</g>
<!-- Node0x22fc8850&#45;&gt;Node0x22fc7750 -->
<g id="edge18" class="edge"><title>Node0x22fc8850&#45;&gt;Node0x22fc7750</title>
<path fill="none" stroke="black" d="M493.5,-875.437C493.5,-867.307 493.5,-857.376 493.5,-848.205"/>
<polygon fill="black" stroke="black" points="497,-847.941 493.5,-837.941 490,-847.941 497,-847.941"/>
</g>
<!-- Node0x9017340 -->
<g id="node18" class="node"><title>Node0x9017340</title>
<polygon fill="none" stroke="black" points="590.5,-202.5 590.5,-238.5 784.5,-238.5 784.5,-202.5 590.5,-202.5"/>
<text text-anchor="start" x="598.5" y="-216.8" font-family="Times,serif" font-size="14.00">while (v13 != (v8 + 12)):</text>
</g>
<!-- Node0x22fc8290&#45;&gt;Node0x9017340 -->
<g id="edge19" class="edge"><title>Node0x22fc8290&#45;&gt;Node0x9017340</title>
<path fill="none" stroke="black" d="M687.5,-276.086C687.5,-267.46 687.5,-257.822 687.5,-249.075"/>
<polygon fill="black" stroke="black" points="691,-248.973 687.5,-238.974 684,-248.974 691,-248.973"/>
</g>
<!-- Node0x8d68ce0 -->
<g id="node19" class="node"><title>Node0x8d68ce0</title>
<polygon fill="none" stroke="black" points="251.5,-681.5 251.5,-749.5 517.5,-749.5 517.5,-681.5 251.5,-681.5"/>
<text text-anchor="start" x="259.5" y="-734.3" font-family="Times,serif" font-size="14.00">*(IntToPtrCastExpr&lt;ptr&gt;(v7)) = 0</text>
<text text-anchor="start" x="259.5" y="-719.3" font-family="Times,serif" font-size="14.00"> v10 = (g4 + 1)</text>
<text text-anchor="start" x="259.5" y="-704.3" font-family="Times,serif" font-size="14.00"> g4 = v10</text>
<text text-anchor="start" x="259.5" y="-689.3" font-family="Times,serif" font-size="14.00"> v11 = (v9 &#45; 1)</text>
</g>
<!-- Node0x22fc7750&#45;&gt;Node0x8d68ce0 -->
<g id="edge20" class="edge"><title>Node0x22fc7750&#45;&gt;Node0x8d68ce0</title>
<path fill="none" stroke="black" d="M475.01,-801.197C461.947,-788.973 443.889,-772.075 427.337,-756.586"/>
<polygon fill="black" stroke="black" points="429.554,-753.867 419.861,-749.59 424.771,-758.978 429.554,-753.867"/>
<text text-anchor="middle" x="482.5" y="-771.8" font-family="Times,serif" font-size="14.00">v9 != 0</text>
</g>
<!-- Node0x22fc8cc0 -->
<g id="node20" class="node"><title>Node0x22fc8cc0</title>
<polygon fill="none" stroke="black" points="513,-367.5 513,-420.5 774,-420.5 774,-367.5 513,-367.5"/>
<text text-anchor="start" x="521" y="-405.3" font-family="Times,serif" font-size="14.00">0x8062736:</text>
<text text-anchor="start" x="521" y="-390.3" font-family="Times,serif" font-size="14.00"> free(IntToPtrCastExpr&lt;ptr&gt;(v7))</text>
<text text-anchor="start" x="521" y="-375.3" font-family="Times,serif" font-size="14.00"> v8 = g3</text>
</g>
<!-- Node0x22fc7750&#45;&gt;Node0x22fc8cc0 -->
<g id="edge21" class="edge"><title>Node0x22fc7750&#45;&gt;Node0x22fc8cc0</title>
<path fill="none" stroke="black" d="M543.097,-816.768C608.255,-811.537 714.5,-791.507 714.5,-716.5 714.5,-716.5 714.5,-716.5 714.5,-499 714.5,-472.219 698.243,-447.255 681.287,-428.501"/>
<polygon fill="black" stroke="black" points="683.448,-425.694 674.022,-420.856 678.374,-430.516 683.448,-425.694"/>
<text text-anchor="middle" x="744.5" y="-607.8" font-family="Times,serif" font-size="14.00">v9 == 0</text>
</g>
<!-- Node0x920a480 -->
<g id="node21" class="node"><title>Node0x920a480</title>
<polygon fill="none" stroke="black" points="412,-97.5 412,-150.5 691,-150.5 691,-97.5 412,-97.5"/>
<text text-anchor="start" x="420" y="-135.3" font-family="Times,serif" font-size="14.00">0x8062748:</text>
<text text-anchor="start" x="420" y="-120.3" font-family="Times,serif" font-size="14.00"> *(IntToPtrCastExpr&lt;ptr&gt;(v13)) = 0</text>
<text text-anchor="start" x="420" y="-105.3" font-family="Times,serif" font-size="14.00"> v13 = (v13 + 1)</text>
</g>
<!-- Node0x9017340&#45;&gt;Node0x920a480 -->
<g id="edge22" class="edge"><title>Node0x9017340&#45;&gt;Node0x920a480</title>
<path fill="none" stroke="black" d="M590.241,-202.469C572.768,-197.477 558.26,-191.34 552.5,-184 547.33,-177.411 545.36,-169.012 545.074,-160.633"/>
<polygon fill="black" stroke="black" points="548.575,-160.669 545.457,-150.543 541.58,-160.403 548.575,-160.669"/>
<text text-anchor="middle" x="613" y="-172.8" font-family="Times,serif" font-size="14.00">v13 != (v8 + 12)</text>
</g>
<!-- Node0x22fc8680 -->
<g id="node22" class="node"><title>Node0x22fc8680</title>
<polygon fill="none" stroke="black" points="709.5,-105 709.5,-143 819.5,-143 819.5,-105 709.5,-105"/>
<text text-anchor="start" x="717.5" y="-127.8" font-family="Times,serif" font-size="14.00">0x8062752:</text>
<text text-anchor="start" x="717.5" y="-112.8" font-family="Times,serif" font-size="14.00"> result = v13</text>
</g>
<!-- Node0x9017340&#45;&gt;Node0x22fc8680 -->
<g id="edge23" class="edge"><title>Node0x9017340&#45;&gt;Node0x22fc8680</title>
<path fill="none" stroke="black" d="M701.623,-202.167C713.232,-187.92 729.865,-167.507 743.108,-151.254"/>
<polygon fill="black" stroke="black" points="746.076,-153.152 749.679,-143.189 740.649,-148.731 746.076,-153.152"/>
<text text-anchor="middle" x="791" y="-172.8" font-family="Times,serif" font-size="14.00">v13 == (v8 + 12)</text>
</g>
<!-- Node0x8d68e00 -->
<g id="node23" class="node"><title>Node0x8d68e00</title>
<polygon fill="none" stroke="black" points="256,-593.5 256,-629.5 393,-629.5 393,-593.5 256,-593.5"/>
<text text-anchor="start" x="264" y="-607.8" font-family="Times,serif" font-size="14.00">while (v11 != 0):</text>
</g>
<!-- Node0x8d68ce0&#45;&gt;Node0x8d68e00 -->
<g id="edge24" class="edge"><title>Node0x8d68ce0&#45;&gt;Node0x8d68e00</title>
<path fill="none" stroke="black" d="M365.02,-681.384C356.869,-667.528 347.533,-651.656 339.878,-638.643"/>
<polygon fill="black" stroke="black" points="342.729,-636.586 334.642,-629.742 336.696,-640.136 342.729,-636.586"/>
</g>
<!-- Node0x22fc8cc0&#45;&gt;Node0x22fc8290 -->
<g id="edge25" class="edge"><title>Node0x22fc8cc0&#45;&gt;Node0x22fc8290</title>
<path fill="none" stroke="black" d="M656.227,-367.258C660.605,-358.402 665.583,-348.333 670.259,-338.873"/>
<polygon fill="black" stroke="black" points="673.508,-340.2 674.802,-329.685 667.233,-337.098 673.508,-340.2"/>
</g>
<!-- Node0x920a480&#45;&gt;Node0x9017340 -->
<g id="edge26" class="edge"><title>Node0x920a480&#45;&gt;Node0x9017340</title>
<path fill="none" stroke="black" d="M650.07,-150.6C658.741,-155.667 666.765,-161.735 673.5,-169 679.328,-175.286 682.762,-183.786 684.775,-192.018"/>
<polygon fill="black" stroke="black" points="681.382,-192.917 686.639,-202.116 688.266,-191.647 681.382,-192.917"/>
</g>
<!-- Node0x22fc8680&#45;&gt;Node0x8d68f50 -->
<g id="edge27" class="edge"><title>Node0x22fc8680&#45;&gt;Node0x8d68f50</title>
<path fill="none" stroke="black" d="M764.5,-104.733C764.5,-94.3626 764.5,-81.1832 764.5,-69.6251"/>
<polygon fill="black" stroke="black" points="768,-69.5935 764.5,-59.5935 761,-69.5936 768,-69.5935"/>
</g>
<!-- Node0x22fc7ca0 -->
<g id="node24" class="node"><title>Node0x22fc7ca0</title>
<polygon fill="none" stroke="black" points="65,-458.5 65,-541.5 344,-541.5 344,-458.5 65,-458.5"/>
<text text-anchor="start" x="73" y="-526.3" font-family="Times,serif" font-size="14.00">0x8062728:</text>
<text text-anchor="start" x="73" y="-511.3" font-family="Times,serif" font-size="14.00"> *(IntToPtrCastExpr&lt;ptr&gt;(v10)) = 0</text>
<text text-anchor="start" x="73" y="-496.3" font-family="Times,serif" font-size="14.00"> v10 = (g4 + 1)</text>
<text text-anchor="start" x="73" y="-481.3" font-family="Times,serif" font-size="14.00"> g4 = v10</text>
<text text-anchor="start" x="73" y="-466.3" font-family="Times,serif" font-size="14.00"> v11 = (v11 &#45; 1)</text>
</g>
<!-- Node0x8d68e00&#45;&gt;Node0x22fc7ca0 -->
<g id="edge28" class="edge"><title>Node0x8d68e00&#45;&gt;Node0x22fc7ca0</title>
<path fill="none" stroke="black" d="M255.736,-597.647C242.905,-592.466 230.669,-585.197 221.5,-575 215.545,-568.377 211.549,-560.094 208.893,-551.49"/>
<polygon fill="black" stroke="black" points="212.266,-550.553 206.43,-541.71 205.478,-552.262 212.266,-550.553"/>
<text text-anchor="middle" x="253" y="-563.8" font-family="Times,serif" font-size="14.00">v11 != 0</text>
</g>
<!-- Node0x22fc8e50 -->
<g id="node25" class="node"><title>Node0x22fc8e50</title>
<polygon fill="none" stroke="black" points="362.5,-473.5 362.5,-526.5 686.5,-526.5 686.5,-473.5 362.5,-473.5"/>
<text text-anchor="start" x="370.5" y="-511.3" font-family="Times,serif" font-size="14.00">v12 = *(IntToPtrCastExpr&lt;ptr&gt;((g3 + 8)))</text>
<text text-anchor="start" x="370.5" y="-496.3" font-family="Times,serif" font-size="14.00"> g4 = v12</text>
<text text-anchor="start" x="370.5" y="-481.3" font-family="Times,serif" font-size="14.00"> v7 = v12</text>
</g>
<!-- Node0x8d68e00&#45;&gt;Node0x22fc8e50 -->
<g id="edge29" class="edge"><title>Node0x8d68e00&#45;&gt;Node0x22fc8e50</title>
<path fill="none" stroke="black" d="M355.75,-593.391C385.932,-576.866 432.307,-551.476 468.81,-531.49"/>
<polygon fill="black" stroke="black" points="470.771,-534.407 477.861,-526.535 467.409,-528.267 470.771,-534.407"/>
<text text-anchor="middle" x="448" y="-563.8" font-family="Times,serif" font-size="14.00">v11 == 0</text>
</g>
<!-- Node0x22fc7ca0&#45;&gt;Node0x8d68e00 -->
<g id="edge30" class="edge"><title>Node0x22fc7ca0&#45;&gt;Node0x8d68e00</title>
<path fill="none" stroke="black" d="M263.644,-541.808C270.913,-547.628 278.046,-553.765 284.5,-560 292.343,-567.577 300.013,-576.708 306.506,-585.109"/>
<polygon fill="black" stroke="black" points="303.765,-587.288 312.568,-593.184 309.363,-583.085 303.765,-587.288"/>
</g>
<!-- Node0x22fc8e50&#45;&gt;Node0x22fc8cc0 -->
<g id="edge31" class="edge"><title>Node0x22fc8e50&#45;&gt;Node0x22fc8cc0</title>
<path fill="none" stroke="black" d="M553.916,-473.292C569.792,-459.417 589.547,-442.153 606.462,-427.369"/>
<polygon fill="black" stroke="black" points="608.784,-429.989 614.01,-420.773 604.177,-424.718 608.784,-429.989"/>
</g>
</g>
</svg>
