<?xml version="1.0" encoding="UTF-8" standalone="no"?>
<!DOCTYPE svg PUBLIC "-//W3C//DTD SVG 1.1//EN"
 "http://www.w3.org/Graphics/SVG/1.1/DTD/svg11.dtd">
<!-- Generated by graphviz version 2.38.0 (20140413.2041)
 -->
<!-- Title: Control&#45;flow graph for function &#39;mbedtls_des_crypt_cbc(a1, a2, a3, *a4, a5, a6)&#39;. Pages: 1 -->
<svg width="1743pt" height="2081pt"
 viewBox="0.00 0.00 1743.00 2081.00" xmlns="http://www.w3.org/2000/svg" xmlns:xlink="http://www.w3.org/1999/xlink">
<g id="graph0" class="graph" transform="scale(1 1) rotate(0) translate(4 2077)">
<title>Control&#45;flow graph for function &#39;mbedtls_des_crypt_cbc(a1, a2, a3, *a4, a5, a6)&#39;.</title>
<polygon fill="white" stroke="none" points="-4,4 -4,-2077 1739,-2077 1739,4 -4,4"/>
<text text-anchor="middle" x="867.5" y="-7.8" font-family="Times,serif" font-size="14.00">Control&#45;flow graph for function &#39;mbedtls_des_crypt_cbc(a1, a2, a3, *a4, a5, a6)&#39;.</text>
<!-- Node0x1d99a240 -->
<g id="node1" class="node"><title>Node0x1d99a240</title>
<polygon fill="none" stroke="black" points="1464,-1959.5 1464,-2072.5 1523,-2072.5 1523,-1959.5 1464,-1959.5"/>
<text text-anchor="start" x="1472" y="-2057.3" font-family="Times,serif" font-size="14.00">entry:</text>
<text text-anchor="start" x="1472" y="-2042.3" font-family="Times,serif" font-size="14.00"> a1</text>
<text text-anchor="start" x="1472" y="-2027.3" font-family="Times,serif" font-size="14.00"> a2</text>
<text text-anchor="start" x="1472" y="-2012.3" font-family="Times,serif" font-size="14.00"> a3</text>
<text text-anchor="start" x="1472" y="-1997.3" font-family="Times,serif" font-size="14.00"> a4</text>
<text text-anchor="start" x="1472" y="-1982.3" font-family="Times,serif" font-size="14.00"> a5</text>
<text text-anchor="start" x="1472" y="-1967.3" font-family="Times,serif" font-size="14.00"> a6</text>
</g>
<!-- Node0x1d99a440 -->
<g id="node2" class="node"><title>Node0x1d99a440</title>
<polygon fill="none" stroke="black" points="1355,-1838.5 1355,-1921.5 1632,-1921.5 1632,-1838.5 1355,-1838.5"/>
<text text-anchor="start" x="1363" y="-1906.3" font-family="Times,serif" font-size="14.00">v1 = g5</text>
<text text-anchor="start" x="1363" y="-1891.3" font-family="Times,serif" font-size="14.00"> v2 = g7</text>
<text text-anchor="start" x="1363" y="-1876.3" font-family="Times,serif" font-size="14.00"> v3 = g3</text>
<text text-anchor="start" x="1363" y="-1861.3" font-family="Times,serif" font-size="14.00"> g7 = PtrToIntCastExpr&lt;int32&gt;(a4)</text>
<text text-anchor="start" x="1363" y="-1846.3" font-family="Times,serif" font-size="14.00"> v4 = a3</text>
</g>
<!-- Node0x1d99a240&#45;&gt;Node0x1d99a440 -->
<g id="edge1" class="edge"><title>Node0x1d99a240&#45;&gt;Node0x1d99a440</title>
<path fill="none" stroke="black" d="M1493.5,-1959.34C1493.5,-1950.14 1493.5,-1940.65 1493.5,-1931.59"/>
<polygon fill="black" stroke="black" points="1497,-1931.58 1493.5,-1921.58 1490,-1931.58 1497,-1931.58"/>
</g>
<!-- Node0x1d999dc0 -->
<g id="node3" class="node"><title>Node0x1d999dc0</title>
<polygon fill="none" stroke="black" points="1441,-1764.5 1441,-1800.5 1546,-1800.5 1546,-1764.5 1441,-1764.5"/>
<text text-anchor="start" x="1449" y="-1778.8" font-family="Times,serif" font-size="14.00">if (a3 == 7):</text>
</g>
<!-- Node0x1d99a440&#45;&gt;Node0x1d999dc0 -->
<g id="edge2" class="edge"><title>Node0x1d99a440&#45;&gt;Node0x1d999dc0</title>
<path fill="none" stroke="black" d="M1493.5,-1838.5C1493.5,-1829.21 1493.5,-1819.54 1493.5,-1810.95"/>
<polygon fill="black" stroke="black" points="1497,-1810.75 1493.5,-1800.75 1490,-1810.75 1497,-1810.75"/>
</g>
<!-- Node0xa072c90 -->
<g id="node4" class="node"><title>Node0xa072c90</title>
<polygon fill="none" stroke="black" points="1358,-1674.5 1358,-1712.5 1459,-1712.5 1459,-1674.5 1358,-1674.5"/>
<text text-anchor="start" x="1366" y="-1697.3" font-family="Times,serif" font-size="14.00">0x806bab7:</text>
<text text-anchor="start" x="1366" y="-1682.3" font-family="Times,serif" font-size="14.00"> v5</text>
</g>
<!-- Node0x1d999dc0&#45;&gt;Node0xa072c90 -->
<g id="edge3" class="edge"><title>Node0x1d999dc0&#45;&gt;Node0xa072c90</title>
<path fill="none" stroke="black" d="M1476.71,-1764.31C1464.38,-1751.69 1447.43,-1734.34 1433.51,-1720.1"/>
<polygon fill="black" stroke="black" points="1435.63,-1717.26 1426.14,-1712.55 1430.62,-1722.15 1435.63,-1717.26"/>
<text text-anchor="middle" x="1488.5" y="-1734.8" font-family="Times,serif" font-size="14.00">a3 == 7</text>
</g>
<!-- Node0xa073600 -->
<g id="node5" class="node"><title>Node0xa073600</title>
<polygon fill="none" stroke="black" points="1634,-1572.5 1634,-1655.5 1735,-1655.5 1735,-1572.5 1634,-1572.5"/>
<text text-anchor="start" x="1642" y="-1640.3" font-family="Times,serif" font-size="14.00">0x806bb28:</text>
<text text-anchor="start" x="1642" y="-1625.3" font-family="Times,serif" font-size="14.00"> g3 = v3</text>
<text text-anchor="start" x="1642" y="-1610.3" font-family="Times,serif" font-size="14.00"> g7 = v2</text>
<text text-anchor="start" x="1642" y="-1595.3" font-family="Times,serif" font-size="14.00"> g5 = v1</text>
<text text-anchor="start" x="1642" y="-1580.3" font-family="Times,serif" font-size="14.00"> return &#45;50</text>
</g>
<!-- Node0x1d999dc0&#45;&gt;Node0xa073600 -->
<g id="edge4" class="edge"><title>Node0x1d999dc0&#45;&gt;Node0xa073600</title>
<path fill="none" stroke="black" d="M1513.22,-1764.31C1540.56,-1740.47 1591.04,-1696.47 1630.14,-1662.39"/>
<polygon fill="black" stroke="black" points="1632.56,-1664.92 1637.8,-1655.71 1627.96,-1659.65 1632.56,-1664.92"/>
<text text-anchor="middle" x="1575.5" y="-1734.8" font-family="Times,serif" font-size="14.00">a3 != 7</text>
</g>
<!-- Node0x77d59d0 -->
<g id="node6" class="node"><title>Node0x77d59d0</title>
<polygon fill="none" stroke="black" points="1005,-1515.5 1005,-1553.5 1110,-1553.5 1110,-1515.5 1005,-1515.5"/>
<text text-anchor="start" x="1013" y="-1538.3" font-family="Times,serif" font-size="14.00">if (a2 == 1):</text>
<text text-anchor="start" x="1013" y="-1523.3" font-family="Times,serif" font-size="14.00"> else:</text>
</g>
<!-- Node0xa072c90&#45;&gt;Node0x77d59d0 -->
<g id="edge5" class="edge"><title>Node0xa072c90&#45;&gt;Node0x77d59d0</title>
<path fill="none" stroke="black" d="M1368.24,-1674.49C1303.74,-1645.64 1177.43,-1589.14 1107.34,-1557.79"/>
<polygon fill="black" stroke="black" points="1108.39,-1554.43 1097.83,-1553.54 1105.53,-1560.82 1108.39,-1554.43"/>
</g>
<!-- Node0x1d99a1c0 -->
<g id="node7" class="node"><title>Node0x1d99a1c0</title>
<polygon fill="none" stroke="black" points="1347.5,-23.5 1347.5,-59.5 1401.5,-59.5 1401.5,-23.5 1347.5,-23.5"/>
<text text-anchor="start" x="1355.5" y="-37.8" font-family="Times,serif" font-size="14.00">exit:</text>
</g>
<!-- Node0xa073600&#45;&gt;Node0x1d99a1c0 -->
<g id="edge6" class="edge"><title>Node0xa073600&#45;&gt;Node0x1d99a1c0</title>
<path fill="none" stroke="black" d="M1693.5,-1572.39C1698,-1548.64 1702.5,-1518.01 1702.5,-1490.5 1702.5,-1490.5 1702.5,-1490.5 1702.5,-138 1702.5,-78.0054 1497.65,-53.1921 1411.73,-45.4231"/>
<polygon fill="black" stroke="black" points="1411.89,-41.9238 1401.62,-44.5386 1411.28,-48.8971 1411.89,-41.9238"/>
</g>
<!-- Node0xa073730 -->
<g id="node8" class="node"><title>Node0xa073730</title>
<polygon fill="none" stroke="black" points="825,-1410.5 825,-1463.5 926,-1463.5 926,-1410.5 825,-1410.5"/>
<text text-anchor="start" x="833" y="-1448.3" font-family="Times,serif" font-size="14.00">0x806bb40:</text>
<text text-anchor="start" x="833" y="-1433.3" font-family="Times,serif" font-size="14.00"> g5 = 0</text>
<text text-anchor="start" x="833" y="-1418.3" font-family="Times,serif" font-size="14.00"> v6 = 0</text>
</g>
<!-- Node0x77d59d0&#45;&gt;Node0xa073730 -->
<g id="edge7" class="edge"><title>Node0x77d59d0&#45;&gt;Node0xa073730</title>
<path fill="none" stroke="black" d="M1014.5,-1515.47C1001.8,-1509.84 987.966,-1503.43 975.5,-1497 958.87,-1488.43 941.155,-1478.32 925.326,-1468.91"/>
<polygon fill="black" stroke="black" points="927.123,-1465.91 916.746,-1463.77 923.526,-1471.91 927.123,-1465.91"/>
<text text-anchor="middle" x="1005.5" y="-1485.8" font-family="Times,serif" font-size="14.00">a2 == 1</text>
</g>
<!-- Node0x1d999cb0 -->
<g id="node9" class="node"><title>Node0x1d999cb0</title>
<polygon fill="none" stroke="black" points="998.5,-1308.5 998.5,-1391.5 1116.5,-1391.5 1116.5,-1308.5 998.5,-1308.5"/>
<text text-anchor="start" x="1006.5" y="-1376.3" font-family="Times,serif" font-size="14.00">0x806bad0:</text>
<text text-anchor="start" x="1006.5" y="-1361.3" font-family="Times,serif" font-size="14.00"> g5 = 0</text>
<text text-anchor="start" x="1006.5" y="-1346.3" font-family="Times,serif" font-size="14.00"> v15</text>
<text text-anchor="start" x="1006.5" y="-1331.3" font-family="Times,serif" font-size="14.00"> v16 = &amp;(v15)</text>
<text text-anchor="start" x="1006.5" y="-1316.3" font-family="Times,serif" font-size="14.00"> v17 = 0</text>
</g>
<!-- Node0x77d59d0&#45;&gt;Node0x1d999cb0 -->
<g id="edge8" class="edge"><title>Node0x77d59d0&#45;&gt;Node0x1d999cb0</title>
<path fill="none" stroke="black" d="M1057.5,-1515.33C1057.5,-1489.13 1057.5,-1439.71 1057.5,-1401.88"/>
<polygon fill="black" stroke="black" points="1061,-1401.55 1057.5,-1391.55 1054,-1401.55 1061,-1401.55"/>
<text text-anchor="middle" x="1084.5" y="-1485.8" font-family="Times,serif" font-size="14.00">a2 != 1</text>
</g>
<!-- Node0xa0738c0 -->
<g id="node10" class="node"><title>Node0xa0738c0</title>
<polygon fill="none" stroke="black" points="660,-1251.5 660,-1289.5 761,-1289.5 761,-1251.5 660,-1251.5"/>
<text text-anchor="start" x="668" y="-1274.3" font-family="Times,serif" font-size="14.00">0x806bb40:</text>
<text text-anchor="start" x="668" y="-1259.3" font-family="Times,serif" font-size="14.00"> while True:</text>
</g>
<!-- Node0xa073730&#45;&gt;Node0xa0738c0 -->
<g id="edge9" class="edge"><title>Node0xa073730&#45;&gt;Node0xa0738c0</title>
<path fill="none" stroke="black" d="M849.719,-1410.3C818.803,-1379.47 767.291,-1328.12 736.346,-1297.27"/>
<polygon fill="black" stroke="black" points="738.5,-1294.47 728.947,-1289.89 733.558,-1299.43 738.5,-1294.47"/>
</g>
<!-- Node0xa073400 -->
<g id="node11" class="node"><title>Node0xa073400</title>
<polygon fill="none" stroke="black" points="1009,-916 1009,-952 1106,-952 1106,-916 1009,-916"/>
<text text-anchor="start" x="1017" y="-930.3" font-family="Times,serif" font-size="14.00">while True:</text>
</g>
<!-- Node0x1d999cb0&#45;&gt;Node0xa073400 -->
<g id="edge10" class="edge"><title>Node0x1d999cb0&#45;&gt;Node0xa073400</title>
<path fill="none" stroke="black" d="M1057.5,-1308.45C1057.5,-1284.59 1057.5,-1253.83 1057.5,-1226.5 1057.5,-1226.5 1057.5,-1226.5 1057.5,-1044.5 1057.5,-1016.4 1057.5,-984.244 1057.5,-962.084"/>
<polygon fill="black" stroke="black" points="1061,-962.07 1057.5,-952.07 1054,-962.07 1061,-962.07"/>
</g>
<!-- Node0xa073dc0 -->
<g id="node12" class="node"><title>Node0xa073dc0</title>
<polygon fill="none" stroke="black" points="557,-1101.5 557,-1199.5 682,-1199.5 682,-1101.5 557,-1101.5"/>
<text text-anchor="start" x="565" y="-1184.3" font-family="Times,serif" font-size="14.00">0x806bb40:</text>
<text text-anchor="start" x="565" y="-1169.3" font-family="Times,serif" font-size="14.00"> v5 = 0</text>
<text text-anchor="start" x="565" y="-1154.3" font-family="Times,serif" font-size="14.00"> v7 = (v6 + a5)</text>
<text text-anchor="start" x="565" y="-1139.3" font-family="Times,serif" font-size="14.00"> v8 = (v6 + a6)</text>
<text text-anchor="start" x="565" y="-1124.3" font-family="Times,serif" font-size="14.00"> g3 = v8</text>
<text text-anchor="start" x="565" y="-1109.3" font-family="Times,serif" font-size="14.00"> v9 = 0</text>
</g>
<!-- Node0xa0738c0&#45;&gt;Node0xa073dc0 -->
<g id="edge11" class="edge"><title>Node0xa0738c0&#45;&gt;Node0xa073dc0</title>
<path fill="none" stroke="black" d="M682.563,-1251.49C675.478,-1246.09 668.254,-1239.79 662.5,-1233 656.282,-1225.66 650.613,-1217.28 645.578,-1208.74"/>
<polygon fill="black" stroke="black" points="648.517,-1206.83 640.564,-1199.83 642.416,-1210.26 648.517,-1206.83"/>
<text text-anchor="middle" x="679.5" y="-1221.8" font-family="Times,serif" font-size="14.00">True</text>
</g>
<!-- Node0xa074010 -->
<g id="node13" class="node"><title>Node0xa074010</title>
<polygon fill="none" stroke="black" points="738.5,-652.5 738.5,-840.5 1376.5,-840.5 1376.5,-652.5 738.5,-652.5"/>
<text text-anchor="start" x="746.5" y="-825.3" font-family="Times,serif" font-size="14.00">v18 = (a5 &#45; v17)</text>
<text text-anchor="start" x="746.5" y="-810.3" font-family="Times,serif" font-size="14.00"> v5 = v18</text>
<text text-anchor="start" x="746.5" y="-795.3" font-family="Times,serif" font-size="14.00"> g3 = (a6 &#45; v17)</text>
<text text-anchor="start" x="746.5" y="-780.3" font-family="Times,serif" font-size="14.00"> *(IntToPtrCastExpr&lt;ptr&gt;(v16)) = *(IntToPtrCastExpr&lt;ptr&gt;(v18))</text>
<text text-anchor="start" x="746.5" y="-765.3" font-family="Times,serif" font-size="14.00"> *(IntToPtrCastExpr&lt;ptr&gt;((v16 + 4))) = *(IntToPtrCastExpr&lt;ptr&gt;((v5 + 4)))</text>
<text text-anchor="start" x="746.5" y="-750.3" font-family="Times,serif" font-size="14.00"> mbedtls_des_crypt_ecb(a1, IntToPtrCastExpr&lt;ptr&gt;(v5), IntToPtrCastExpr&lt;ptr&gt;(g3))</text>
<text text-anchor="start" x="746.5" y="-735.3" font-family="Times,serif" font-size="14.00"> v19 = 0</text>
<text text-anchor="start" x="746.5" y="-720.3" font-family="Times,serif" font-size="14.00"> v20 = *(IntToPtrCastExpr&lt;ptr&gt;((g7 + v19)))</text>
<text text-anchor="start" x="746.5" y="-705.3" font-family="Times,serif" font-size="14.00"> g4 = v20</text>
<text text-anchor="start" x="746.5" y="-690.3" font-family="Times,serif" font-size="14.00"> v21 = IntToPtrCastExpr&lt;ptr&gt;((g3 + v19))</text>
<text text-anchor="start" x="746.5" y="-675.3" font-family="Times,serif" font-size="14.00"> *(v21) = (*(v21) ^ v20)</text>
<text text-anchor="start" x="746.5" y="-660.3" font-family="Times,serif" font-size="14.00"> v22 = 1</text>
</g>
<!-- Node0xa073400&#45;&gt;Node0xa074010 -->
<g id="edge12" class="edge"><title>Node0xa073400&#45;&gt;Node0xa074010</title>
<path fill="none" stroke="black" d="M1057.5,-915.881C1057.5,-900.362 1057.5,-876.101 1057.5,-850.779"/>
<polygon fill="black" stroke="black" points="1061,-850.658 1057.5,-840.658 1054,-850.658 1061,-850.658"/>
<text text-anchor="middle" x="1074.5" y="-862.8" font-family="Times,serif" font-size="14.00">True</text>
</g>
<!-- Node0xa073ef0 -->
<g id="node14" class="node"><title>Node0xa073ef0</title>
<polygon fill="none" stroke="black" points="571,-1027.5 571,-1063.5 668,-1063.5 668,-1027.5 571,-1027.5"/>
<text text-anchor="start" x="579" y="-1041.8" font-family="Times,serif" font-size="14.00">while True:</text>
</g>
<!-- Node0xa073dc0&#45;&gt;Node0xa073ef0 -->
<g id="edge13" class="edge"><title>Node0xa073dc0&#45;&gt;Node0xa073ef0</title>
<path fill="none" stroke="black" d="M619.5,-1101.32C619.5,-1091.89 619.5,-1082.32 619.5,-1073.87"/>
<polygon fill="black" stroke="black" points="623,-1073.86 619.5,-1063.86 616,-1073.86 623,-1073.86"/>
</g>
<!-- Node0xa074090 -->
<g id="node15" class="node"><title>Node0xa074090</title>
<polygon fill="none" stroke="black" points="963,-526 963,-562 1100,-562 1100,-526 963,-526"/>
<text text-anchor="start" x="971" y="-540.3" font-family="Times,serif" font-size="14.00">while (v22 != 8):</text>
</g>
<!-- Node0xa074010&#45;&gt;Node0xa074090 -->
<g id="edge14" class="edge"><title>Node0xa074010&#45;&gt;Node0xa074090</title>
<path fill="none" stroke="black" d="M1045.41,-652.294C1041.62,-623.033 1037.72,-592.969 1035.02,-572.137"/>
<polygon fill="black" stroke="black" points="1038.48,-571.605 1033.72,-562.138 1031.54,-572.505 1038.48,-571.605"/>
</g>
<!-- Node0xa0719b0 -->
<g id="node16" class="node"><title>Node0xa0719b0</title>
<polygon fill="none" stroke="black" points="209.5,-892.5 209.5,-975.5 603.5,-975.5 603.5,-892.5 209.5,-892.5"/>
<text text-anchor="start" x="217.5" y="-960.3" font-family="Times,serif" font-size="14.00">v10 = *(IntToPtrCastExpr&lt;ptr&gt;((g7 + v9)))</text>
<text text-anchor="start" x="217.5" y="-945.3" font-family="Times,serif" font-size="14.00"> v11 = *(IntToPtrCastExpr&lt;ptr&gt;((v9 + v7)))</text>
<text text-anchor="start" x="217.5" y="-930.3" font-family="Times,serif" font-size="14.00"> *(IntToPtrCastExpr&lt;ptr&gt;((v9 + v8))) = (v11 ^ v10)</text>
<text text-anchor="start" x="217.5" y="-915.3" font-family="Times,serif" font-size="14.00"> v12 = (v5 + 1)</text>
<text text-anchor="start" x="217.5" y="-900.3" font-family="Times,serif" font-size="14.00"> v5 = v12</text>
</g>
<!-- Node0xa073ef0&#45;&gt;Node0xa0719b0 -->
<g id="edge15" class="edge"><title>Node0xa073ef0&#45;&gt;Node0xa0719b0</title>
<path fill="none" stroke="black" d="M586.219,-1027.39C561.62,-1014.74 526.922,-996.907 494.565,-980.273"/>
<polygon fill="black" stroke="black" points="496.005,-977.078 485.511,-975.618 492.804,-983.303 496.005,-977.078"/>
<text text-anchor="middle" x="562.5" y="-997.8" font-family="Times,serif" font-size="14.00">True</text>
</g>
<!-- Node0xa074ba0 -->
<g id="node17" class="node"><title>Node0xa074ba0</title>
<polygon fill="none" stroke="black" points="738.5,-322.5 738.5,-435.5 1084.5,-435.5 1084.5,-322.5 738.5,-322.5"/>
<text text-anchor="start" x="746.5" y="-420.3" font-family="Times,serif" font-size="14.00">0x806bb00:</text>
<text text-anchor="start" x="746.5" y="-405.3" font-family="Times,serif" font-size="14.00"> v19 = v22</text>
<text text-anchor="start" x="746.5" y="-390.3" font-family="Times,serif" font-size="14.00"> v20 = *(IntToPtrCastExpr&lt;ptr&gt;((g7 + v19)))</text>
<text text-anchor="start" x="746.5" y="-375.3" font-family="Times,serif" font-size="14.00"> g4 = v20</text>
<text text-anchor="start" x="746.5" y="-360.3" font-family="Times,serif" font-size="14.00"> v21 = IntToPtrCastExpr&lt;ptr&gt;((g3 + v19))</text>
<text text-anchor="start" x="746.5" y="-345.3" font-family="Times,serif" font-size="14.00"> *(v21) = (*(v21) ^ v20)</text>
<text text-anchor="start" x="746.5" y="-330.3" font-family="Times,serif" font-size="14.00"> v22 = (v22 + 1)</text>
</g>
<!-- Node0xa074090&#45;&gt;Node0xa074ba0 -->
<g id="edge16" class="edge"><title>Node0xa074090&#45;&gt;Node0xa074ba0</title>
<path fill="none" stroke="black" d="M999.392,-525.721C978.263,-512.768 951.626,-493.151 935.5,-469 930.657,-461.748 926.789,-453.55 923.699,-445.139"/>
<polygon fill="black" stroke="black" points="927.002,-443.979 920.532,-435.59 920.358,-446.183 927.002,-443.979"/>
<text text-anchor="middle" x="967" y="-457.8" font-family="Times,serif" font-size="14.00">v22 != 8</text>
</g>
<!-- Node0xa074540 -->
<g id="node18" class="node"><title>Node0xa074540</title>
<polygon fill="none" stroke="black" points="1103,-337.5 1103,-420.5 1674,-420.5 1674,-337.5 1103,-337.5"/>
<text text-anchor="start" x="1111" y="-405.3" font-family="Times,serif" font-size="14.00">0x806bb0f:</text>
<text text-anchor="start" x="1111" y="-390.3" font-family="Times,serif" font-size="14.00"> g5 = (g5 &#45; 8)</text>
<text text-anchor="start" x="1111" y="-375.3" font-family="Times,serif" font-size="14.00"> *(IntToPtrCastExpr&lt;ptr&gt;(g7)) = *(IntToPtrCastExpr&lt;ptr&gt;(v16))</text>
<text text-anchor="start" x="1111" y="-360.3" font-family="Times,serif" font-size="14.00"> *(IntToPtrCastExpr&lt;ptr&gt;((g7 + 4))) = *(IntToPtrCastExpr&lt;ptr&gt;((v16 + 4)))</text>
<text text-anchor="start" x="1111" y="-345.3" font-family="Times,serif" font-size="14.00"> v23 = g5</text>
</g>
<!-- Node0xa074090&#45;&gt;Node0xa074540 -->
<g id="edge17" class="edge"><title>Node0xa074090&#45;&gt;Node0xa074540</title>
<path fill="none" stroke="black" d="M1069.03,-525.864C1121.13,-502.074 1217.24,-458.196 1290.48,-424.756"/>
<polygon fill="black" stroke="black" points="1292.1,-427.862 1299.74,-420.525 1289.19,-421.495 1292.1,-427.862"/>
<text text-anchor="middle" x="1255" y="-457.8" font-family="Times,serif" font-size="14.00">v22 == 8</text>
</g>
<!-- Node0xa071ae0 -->
<g id="node19" class="node"><title>Node0xa071ae0</title>
<polygon fill="none" stroke="black" points="349.5,-727.5 349.5,-765.5 463.5,-765.5 463.5,-727.5 349.5,-727.5"/>
<text text-anchor="start" x="357.5" y="-750.3" font-family="Times,serif" font-size="14.00">if (v12 == 8):</text>
<text text-anchor="start" x="357.5" y="-735.3" font-family="Times,serif" font-size="14.00"> else:</text>
</g>
<!-- Node0xa0719b0&#45;&gt;Node0xa071ae0 -->
<g id="edge18" class="edge"><title>Node0xa0719b0&#45;&gt;Node0xa071ae0</title>
<path fill="none" stroke="black" d="M406.5,-892.291C406.5,-856.992 406.5,-806.825 406.5,-775.763"/>
<polygon fill="black" stroke="black" points="410,-775.628 406.5,-765.628 403,-775.628 410,-775.628"/>
</g>
<!-- Node0xa074ba0&#45;&gt;Node0xa074090 -->
<g id="edge19" class="edge"><title>Node0xa074ba0&#45;&gt;Node0xa074090</title>
<path fill="none" stroke="black" d="M983.501,-435.713C988.965,-441.541 994.067,-447.664 998.5,-454 1011.59,-472.711 1020.18,-497.243 1025.3,-515.812"/>
<polygon fill="black" stroke="black" points="1021.97,-516.899 1027.86,-525.703 1028.75,-515.145 1021.97,-516.899"/>
</g>
<!-- Node0xa073940 -->
<g id="node20" class="node"><title>Node0xa073940</title>
<polygon fill="none" stroke="black" points="1307,-233.5 1307,-269.5 1470,-269.5 1470,-233.5 1307,-233.5"/>
<text text-anchor="start" x="1315" y="-247.8" font-family="Times,serif" font-size="14.00">if ((v23 + v4) == 0):</text>
</g>
<!-- Node0xa074540&#45;&gt;Node0xa073940 -->
<g id="edge20" class="edge"><title>Node0xa074540&#45;&gt;Node0xa073940</title>
<path fill="none" stroke="black" d="M1388.5,-337.254C1388.5,-318.466 1388.5,-296.665 1388.5,-279.879"/>
<polygon fill="black" stroke="black" points="1392,-279.654 1388.5,-269.654 1385,-279.654 1392,-279.654"/>
</g>
<!-- Node0xa074e50 -->
<g id="node21" class="node"><title>Node0xa074e50</title>
<polygon fill="none" stroke="black" points="0,-487.5 0,-600.5 563,-600.5 563,-487.5 0,-487.5"/>
<text text-anchor="start" x="8" y="-585.3" font-family="Times,serif" font-size="14.00">0x806bb62:</text>
<text text-anchor="start" x="8" y="-570.3" font-family="Times,serif" font-size="14.00"> g5 = (g5 + 8)</text>
<text text-anchor="start" x="8" y="-555.3" font-family="Times,serif" font-size="14.00"> v13 = IntToPtrCastExpr&lt;ptr&gt;(g3)</text>
<text text-anchor="start" x="8" y="-540.3" font-family="Times,serif" font-size="14.00"> mbedtls_des_crypt_ecb(a1, v13, v13)</text>
<text text-anchor="start" x="8" y="-525.3" font-family="Times,serif" font-size="14.00"> *(IntToPtrCastExpr&lt;ptr&gt;(g7)) = *(IntToPtrCastExpr&lt;ptr&gt;(g3))</text>
<text text-anchor="start" x="8" y="-510.3" font-family="Times,serif" font-size="14.00"> *(IntToPtrCastExpr&lt;ptr&gt;((g7 + 4))) = *(IntToPtrCastExpr&lt;ptr&gt;((g3 + 4)))</text>
<text text-anchor="start" x="8" y="-495.3" font-family="Times,serif" font-size="14.00"> v14 = g5</text>
</g>
<!-- Node0xa071ae0&#45;&gt;Node0xa074e50 -->
<g id="edge21" class="edge"><title>Node0xa071ae0&#45;&gt;Node0xa074e50</title>
<path fill="none" stroke="black" d="M395.187,-727.353C378.691,-700.895 347.21,-650.398 321.55,-609.24"/>
<polygon fill="black" stroke="black" points="324.431,-607.245 316.17,-600.611 318.491,-610.949 324.431,-607.245"/>
<text text-anchor="middle" x="372" y="-622.8" font-family="Times,serif" font-size="14.00">v12 == 8</text>
</g>
<!-- Node0xa075180 -->
<g id="node22" class="node"><title>Node0xa075180</title>
<polygon fill="none" stroke="black" points="581,-510 581,-578 682,-578 682,-510 581,-510"/>
<text text-anchor="start" x="589" y="-562.8" font-family="Times,serif" font-size="14.00">0x806bb50:</text>
<text text-anchor="start" x="589" y="-547.8" font-family="Times,serif" font-size="14.00"> v8 = g3</text>
<text text-anchor="start" x="589" y="-532.8" font-family="Times,serif" font-size="14.00"> v9 = v12</text>
<text text-anchor="start" x="589" y="-517.8" font-family="Times,serif" font-size="14.00"> continue</text>
</g>
<!-- Node0xa071ae0&#45;&gt;Node0xa075180 -->
<g id="edge22" class="edge"><title>Node0xa071ae0&#45;&gt;Node0xa075180</title>
<path fill="none" stroke="black" d="M427.524,-727.461C459.062,-700.318 520.377,-647.222 571.5,-601 577.222,-595.826 583.208,-590.336 589.089,-584.895"/>
<polygon fill="black" stroke="black" points="591.508,-587.425 596.456,-578.056 586.746,-582.295 591.508,-587.425"/>
<text text-anchor="middle" x="581" y="-622.8" font-family="Times,serif" font-size="14.00">v12 != 8</text>
</g>
<!-- Node0xa074db0 -->
<g id="node23" class="node"><title>Node0xa074db0</title>
<polygon fill="none" stroke="black" points="1274,-97.5 1274,-180.5 1375,-180.5 1375,-97.5 1274,-97.5"/>
<text text-anchor="start" x="1282" y="-165.3" font-family="Times,serif" font-size="14.00">0x806bb28:</text>
<text text-anchor="start" x="1282" y="-150.3" font-family="Times,serif" font-size="14.00"> g3 = v3</text>
<text text-anchor="start" x="1282" y="-135.3" font-family="Times,serif" font-size="14.00"> g7 = v2</text>
<text text-anchor="start" x="1282" y="-120.3" font-family="Times,serif" font-size="14.00"> g5 = v1</text>
<text text-anchor="start" x="1282" y="-105.3" font-family="Times,serif" font-size="14.00"> return 0</text>
</g>
<!-- Node0xa073940&#45;&gt;Node0xa074db0 -->
<g id="edge23" class="edge"><title>Node0xa073940&#45;&gt;Node0xa074db0</title>
<path fill="none" stroke="black" d="M1336.04,-233.397C1327.87,-228.424 1320.49,-222.076 1315.5,-214 1311.24,-207.111 1309.6,-199.168 1309.56,-191.098"/>
<polygon fill="black" stroke="black" points="1313.07,-191.099 1310.28,-180.878 1306.08,-190.608 1313.07,-191.099"/>
<text text-anchor="middle" x="1374.5" y="-202.8" font-family="Times,serif" font-size="14.00">(v23 + v4) == 0</text>
</g>
<!-- Node0xa0749d0 -->
<g id="node24" class="node"><title>Node0xa0749d0</title>
<polygon fill="none" stroke="black" points="1399.5,-120 1399.5,-158 1497.5,-158 1497.5,-120 1399.5,-120"/>
<text text-anchor="start" x="1407.5" y="-142.8" font-family="Times,serif" font-size="14.00">0x806bb0f:</text>
<text text-anchor="start" x="1407.5" y="-127.8" font-family="Times,serif" font-size="14.00"> v17 = v23</text>
</g>
<!-- Node0xa073940&#45;&gt;Node0xa0749d0 -->
<g id="edge24" class="edge"><title>Node0xa073940&#45;&gt;Node0xa0749d0</title>
<path fill="none" stroke="black" d="M1419.2,-233.374C1426.24,-228.049 1432.98,-221.556 1437.5,-214 1445.71,-200.277 1448.57,-182.638 1449.32,-168.023"/>
<polygon fill="black" stroke="black" points="1452.82,-168.092 1449.54,-158.016 1445.82,-167.935 1452.82,-168.092"/>
<text text-anchor="middle" x="1499.5" y="-202.8" font-family="Times,serif" font-size="14.00">(v23 + v4) != 0</text>
</g>
<!-- Node0xa074ed0 -->
<g id="node25" class="node"><title>Node0xa074ed0</title>
<polygon fill="none" stroke="black" points="442.5,-361 442.5,-397 564.5,-397 564.5,-361 442.5,-361"/>
<text text-anchor="start" x="450.5" y="-375.3" font-family="Times,serif" font-size="14.00">if (v14 == v4):</text>
</g>
<!-- Node0xa074e50&#45;&gt;Node0xa074ed0 -->
<g id="edge25" class="edge"><title>Node0xa074e50&#45;&gt;Node0xa074ed0</title>
<path fill="none" stroke="black" d="M357.279,-487.361C396.492,-458.569 442.247,-424.974 471.988,-403.137"/>
<polygon fill="black" stroke="black" points="474.317,-405.769 480.306,-397.03 470.174,-400.127 474.317,-405.769"/>
</g>
<!-- Node0xa075180&#45;&gt;Node0xa073ef0 -->
<g id="edge26" class="edge"><title>Node0xa075180&#45;&gt;Node0xa073ef0</title>
<path fill="none" stroke="black" d="M630.705,-578.102C628.478,-670.809 622.208,-931.796 620.158,-1017.13"/>
<polygon fill="black" stroke="black" points="616.654,-1017.22 619.913,-1027.31 623.652,-1017.39 616.654,-1017.22"/>
</g>
<!-- Node0xa074db0&#45;&gt;Node0x1d99a1c0 -->
<g id="edge27" class="edge"><title>Node0xa074db0&#45;&gt;Node0x1d99a1c0</title>
<path fill="none" stroke="black" d="M1345.7,-97.4994C1350.79,-87.7927 1356.08,-77.6768 1360.73,-68.8069"/>
<polygon fill="black" stroke="black" points="1363.93,-70.2321 1365.47,-59.7494 1357.73,-66.9852 1363.93,-70.2321"/>
</g>
<!-- Node0xa0749d0&#45;&gt;Node0x1d99a1c0 -->
<g id="edge28" class="edge"><title>Node0xa0749d0&#45;&gt;Node0x1d99a1c0</title>
<path fill="none" stroke="black" d="M1434.23,-119.587C1422.79,-104.817 1406.6,-83.9327 1393.97,-67.6266"/>
<polygon fill="black" stroke="black" points="1396.62,-65.3344 1387.73,-59.5735 1391.09,-69.6219 1396.62,-65.3344"/>
</g>
<!-- Node0xa075200 -->
<g id="node26" class="node"><title>Node0xa075200</title>
<polygon fill="none" stroke="black" points="383.5,-232.5 383.5,-270.5 623.5,-270.5 623.5,-232.5 383.5,-232.5"/>
<text text-anchor="start" x="391.5" y="-255.3" font-family="Times,serif" font-size="14.00">break (via goto) &#45;&gt; 0x806bb87:</text>
<text text-anchor="start" x="391.5" y="-240.3" font-family="Times,serif" font-size="14.00"> goto 0x806bb87</text>
</g>
<!-- Node0xa074ed0&#45;&gt;Node0xa075200 -->
<g id="edge29" class="edge"><title>Node0xa074ed0&#45;&gt;Node0xa075200</title>
<path fill="none" stroke="black" d="M503.5,-360.813C503.5,-340.229 503.5,-305.453 503.5,-280.865"/>
<polygon fill="black" stroke="black" points="507,-280.698 503.5,-270.698 500,-280.699 507,-280.698"/>
<text text-anchor="middle" x="542" y="-292.8" font-family="Times,serif" font-size="14.00">v14 == v4</text>
</g>
<!-- Node0xa075120 -->
<g id="node27" class="node"><title>Node0xa075120</title>
<polygon fill="none" stroke="black" points="642,-232.5 642,-270.5 779,-270.5 779,-232.5 642,-232.5"/>
<text text-anchor="start" x="650" y="-255.3" font-family="Times,serif" font-size="14.00">v6 = v14</text>
<text text-anchor="start" x="650" y="-240.3" font-family="Times,serif" font-size="14.00"> goto 0x806bb40</text>
</g>
<!-- Node0xa074ed0&#45;&gt;Node0xa075120 -->
<g id="edge30" class="edge"><title>Node0xa074ed0&#45;&gt;Node0xa075120</title>
<path fill="none" stroke="black" d="M524.113,-360.723C547.615,-341.572 587.687,-310.547 625.5,-289 634.488,-283.878 644.335,-279.023 654.038,-274.625"/>
<polygon fill="black" stroke="black" points="655.529,-277.793 663.266,-270.554 652.704,-271.388 655.529,-277.793"/>
<text text-anchor="middle" x="661" y="-292.8" font-family="Times,serif" font-size="14.00">v14 != v4</text>
</g>
<!-- Node0xa073f70 -->
<g id="node28" class="node"><title>Node0xa073f70</title>
<polygon fill="none" stroke="black" points="978,-97.5 978,-180.5 1079,-180.5 1079,-97.5 978,-97.5"/>
<text text-anchor="start" x="986" y="-165.3" font-family="Times,serif" font-size="14.00">0x806bb28:</text>
<text text-anchor="start" x="986" y="-150.3" font-family="Times,serif" font-size="14.00"> g3 = v3</text>
<text text-anchor="start" x="986" y="-135.3" font-family="Times,serif" font-size="14.00"> g7 = v2</text>
<text text-anchor="start" x="986" y="-120.3" font-family="Times,serif" font-size="14.00"> g5 = v1</text>
<text text-anchor="start" x="986" y="-105.3" font-family="Times,serif" font-size="14.00"> return 0</text>
</g>
<!-- Node0xa075200&#45;&gt;Node0xa073f70 -->
<g id="edge31" class="edge"><title>Node0xa075200&#45;&gt;Node0xa073f70</title>
<path fill="none" stroke="black" d="M589.312,-232.439C695.765,-210.033 874.577,-172.397 967.809,-152.774"/>
<polygon fill="black" stroke="black" points="968.587,-156.187 977.651,-150.702 967.145,-149.337 968.587,-156.187"/>
</g>
<!-- Node0xa075120&#45;&gt;Node0xa0738c0 -->
<g id="edge32" class="edge"><title>Node0xa075120&#45;&gt;Node0xa0738c0</title>
<path fill="none" stroke="black" d="M710.5,-270.79C710.5,-295.225 710.5,-339.871 710.5,-378 710.5,-1151.5 710.5,-1151.5 710.5,-1151.5 710.5,-1182.06 710.5,-1217.06 710.5,-1240.96"/>
<polygon fill="black" stroke="black" points="707,-1241.1 710.5,-1251.1 714,-1241.1 707,-1241.1"/>
</g>
<!-- Node0xa073f70&#45;&gt;Node0x1d99a1c0 -->
<g id="edge33" class="edge"><title>Node0xa073f70&#45;&gt;Node0x1d99a1c0</title>
<path fill="none" stroke="black" d="M1079.18,-124.011C1149.59,-104.577 1275.35,-69.8663 1337.56,-52.6958"/>
<polygon fill="black" stroke="black" points="1338.63,-56.0314 1347.34,-49.9968 1336.77,-49.2837 1338.63,-56.0314"/>
</g>
</g>
</svg>
