<?xml version="1.0" encoding="UTF-8" standalone="no"?>
<!DOCTYPE svg PUBLIC "-//W3C//DTD SVG 1.1//EN"
 "http://www.w3.org/Graphics/SVG/1.1/DTD/svg11.dtd">
<!-- Generated by graphviz version 2.38.0 (20140413.2041)
 -->
<!-- Title: Control&#45;flow graph for function &#39;mbedtls_sha256_clone(*a1, *a2)&#39;. Pages: 1 -->
<svg width="496pt" height="248pt"
 viewBox="0.00 0.00 496.00 248.00" xmlns="http://www.w3.org/2000/svg" xmlns:xlink="http://www.w3.org/1999/xlink">
<g id="graph0" class="graph" transform="scale(1 1) rotate(0) translate(4 244)">
<title>Control&#45;flow graph for function &#39;mbedtls_sha256_clone(*a1, *a2)&#39;.</title>
<polygon fill="white" stroke="none" points="-4,4 -4,-244 492,-244 492,4 -4,4"/>
<text text-anchor="middle" x="244" y="-7.8" font-family="Times,serif" font-size="14.00">Control&#45;flow graph for function &#39;mbedtls_sha256_clone(*a1, *a2)&#39;.</text>
<!-- Node0x205b18a0 -->
<g id="node1" class="node"><title>Node0x205b18a0</title>
<polygon fill="none" stroke="black" points="214.5,-186.5 214.5,-239.5 273.5,-239.5 273.5,-186.5 214.5,-186.5"/>
<text text-anchor="start" x="222.5" y="-224.3" font-family="Times,serif" font-size="14.00">entry:</text>
<text text-anchor="start" x="222.5" y="-209.3" font-family="Times,serif" font-size="14.00"> a1</text>
<text text-anchor="start" x="222.5" y="-194.3" font-family="Times,serif" font-size="14.00"> a2</text>
</g>
<!-- Node0x205b1760 -->
<g id="node2" class="node"><title>Node0x205b1760</title>
<polygon fill="none" stroke="black" points="105.5,-96.5 105.5,-149.5 382.5,-149.5 382.5,-96.5 105.5,-96.5"/>
<text text-anchor="start" x="113.5" y="-134.3" font-family="Times,serif" font-size="14.00">0x8066f90:</text>
<text text-anchor="start" x="113.5" y="-119.3" font-family="Times,serif" font-size="14.00"> g1 = PtrToIntCastExpr&lt;int32&gt;(a1)</text>
<text text-anchor="start" x="113.5" y="-104.3" font-family="Times,serif" font-size="14.00"> memcpy(a1, a2, 27)</text>
</g>
<!-- Node0x205b18a0&#45;&gt;Node0x205b1760 -->
<g id="edge1" class="edge"><title>Node0x205b18a0&#45;&gt;Node0x205b1760</title>
<path fill="none" stroke="black" d="M244,-186.073C244,-177.838 244,-168.58 244,-159.777"/>
<polygon fill="black" stroke="black" points="247.5,-159.742 244,-149.742 240.5,-159.742 247.5,-159.742"/>
</g>
<!-- Node0x205b1810 -->
<g id="node3" class="node"><title>Node0x205b1810</title>
<polygon fill="none" stroke="black" points="217,-23.5 217,-59.5 271,-59.5 271,-23.5 217,-23.5"/>
<text text-anchor="start" x="225" y="-37.8" font-family="Times,serif" font-size="14.00">exit:</text>
</g>
<!-- Node0x205b1760&#45;&gt;Node0x205b1810 -->
<g id="edge2" class="edge"><title>Node0x205b1760&#45;&gt;Node0x205b1810</title>
<path fill="none" stroke="black" d="M244,-96.4081C244,-87.9823 244,-78.5803 244,-70.0174"/>
<polygon fill="black" stroke="black" points="247.5,-69.7564 244,-59.7564 240.5,-69.7565 247.5,-69.7564"/>
</g>
</g>
</svg>
