<?xml version="1.0" encoding="UTF-8" standalone="no"?>
<!DOCTYPE svg PUBLIC "-//W3C//DTD SVG 1.1//EN"
 "http://www.w3.org/Graphics/SVG/1.1/DTD/svg11.dtd">
<!-- Generated by graphviz version 2.38.0 (20140413.2041)
 -->
<!-- Title: Control&#45;flow graph for function &#39;mbedtls_ecp_copy(a1, a2)&#39;. Pages: 1 -->
<svg width="900pt" height="855pt"
 viewBox="0.00 0.00 899.50 855.00" xmlns="http://www.w3.org/2000/svg" xmlns:xlink="http://www.w3.org/1999/xlink">
<g id="graph0" class="graph" transform="scale(1 1) rotate(0) translate(4 851)">
<title>Control&#45;flow graph for function &#39;mbedtls_ecp_copy(a1, a2)&#39;.</title>
<polygon fill="white" stroke="none" points="-4,4 -4,-851 895.5,-851 895.5,4 -4,4"/>
<text text-anchor="middle" x="445.75" y="-7.8" font-family="Times,serif" font-size="14.00">Control&#45;flow graph for function &#39;mbedtls_ecp_copy(a1, a2)&#39;.</text>
<!-- Node0x1022b650 -->
<g id="node1" class="node"><title>Node0x1022b650</title>
<polygon fill="none" stroke="black" points="555,-793.5 555,-846.5 614,-846.5 614,-793.5 555,-793.5"/>
<text text-anchor="start" x="563" y="-831.3" font-family="Times,serif" font-size="14.00">entry:</text>
<text text-anchor="start" x="563" y="-816.3" font-family="Times,serif" font-size="14.00"> a1</text>
<text text-anchor="start" x="563" y="-801.3" font-family="Times,serif" font-size="14.00"> a2</text>
</g>
<!-- Node0x1022a0e0 -->
<g id="node2" class="node"><title>Node0x1022a0e0</title>
<polygon fill="none" stroke="black" points="277.5,-657.5 277.5,-755.5 891.5,-755.5 891.5,-657.5 277.5,-657.5"/>
<text text-anchor="start" x="285.5" y="-740.3" font-family="Times,serif" font-size="14.00">v1 = g3</text>
<text text-anchor="start" x="285.5" y="-725.3" font-family="Times,serif" font-size="14.00"> g3 = a1</text>
<text text-anchor="start" x="285.5" y="-710.3" font-family="Times,serif" font-size="14.00"> v2 = g7</text>
<text text-anchor="start" x="285.5" y="-695.3" font-family="Times,serif" font-size="14.00"> g7 = a2</text>
<text text-anchor="start" x="285.5" y="-680.3" font-family="Times,serif" font-size="14.00"> v3 = mbedtls_mpi_copy(IntToPtrCastExpr&lt;ptr&gt;(a1), IntToPtrCastExpr&lt;ptr&gt;(a2))</text>
<text text-anchor="start" x="285.5" y="-665.3" font-family="Times,serif" font-size="14.00"> result = v3</text>
</g>
<!-- Node0x1022b650&#45;&gt;Node0x1022a0e0 -->
<g id="edge1" class="edge"><title>Node0x1022b650&#45;&gt;Node0x1022a0e0</title>
<path fill="none" stroke="black" d="M584.5,-793.42C584.5,-785.117 584.5,-775.536 584.5,-765.851"/>
<polygon fill="black" stroke="black" points="588,-765.768 584.5,-755.768 581,-765.768 588,-765.768"/>
</g>
<!-- Node0x10227750 -->
<g id="node3" class="node"><title>Node0x10227750</title>
<polygon fill="none" stroke="black" points="532,-583.5 532,-619.5 637,-619.5 637,-583.5 532,-583.5"/>
<text text-anchor="start" x="540" y="-597.8" font-family="Times,serif" font-size="14.00">if (v3 == 0):</text>
</g>
<!-- Node0x1022a0e0&#45;&gt;Node0x10227750 -->
<g id="edge2" class="edge"><title>Node0x1022a0e0&#45;&gt;Node0x10227750</title>
<path fill="none" stroke="black" d="M584.5,-657.317C584.5,-647.893 584.5,-638.32 584.5,-629.868"/>
<polygon fill="black" stroke="black" points="588,-629.856 584.5,-619.856 581,-629.856 588,-629.856"/>
</g>
<!-- Node0xffabd50 -->
<g id="node4" class="node"><title>Node0xffabd50</title>
<polygon fill="none" stroke="black" points="0,-463.5 0,-531.5 665,-531.5 665,-463.5 0,-463.5"/>
<text text-anchor="start" x="8" y="-516.3" font-family="Times,serif" font-size="14.00">v4 = (g3 + 12)</text>
<text text-anchor="start" x="8" y="-501.3" font-family="Times,serif" font-size="14.00"> g1 = v4</text>
<text text-anchor="start" x="8" y="-486.3" font-family="Times,serif" font-size="14.00"> v5 = mbedtls_mpi_copy(IntToPtrCastExpr&lt;ptr&gt;(v4), IntToPtrCastExpr&lt;ptr&gt;((g7 + 12)))</text>
<text text-anchor="start" x="8" y="-471.3" font-family="Times,serif" font-size="14.00"> g1 = v5</text>
</g>
<!-- Node0x10227750&#45;&gt;Node0xffabd50 -->
<g id="edge3" class="edge"><title>Node0x10227750&#45;&gt;Node0xffabd50</title>
<path fill="none" stroke="black" d="M542.321,-583.427C509.954,-570.327 464.081,-551.759 423.479,-535.325"/>
<polygon fill="black" stroke="black" points="424.678,-532.034 414.096,-531.527 422.052,-538.523 424.678,-532.034"/>
<text text-anchor="middle" x="526.5" y="-553.8" font-family="Times,serif" font-size="14.00">v3 == 0</text>
</g>
<!-- Node0xffac2a0 -->
<g id="node5" class="node"><title>Node0xffac2a0</title>
<polygon fill="none" stroke="black" points="610,-97.5 610,-165.5 723,-165.5 723,-97.5 610,-97.5"/>
<text text-anchor="start" x="618" y="-150.3" font-family="Times,serif" font-size="14.00">0x805c492:</text>
<text text-anchor="start" x="618" y="-135.3" font-family="Times,serif" font-size="14.00"> g3 = v1</text>
<text text-anchor="start" x="618" y="-120.3" font-family="Times,serif" font-size="14.00"> g7 = v2</text>
<text text-anchor="start" x="618" y="-105.3" font-family="Times,serif" font-size="14.00"> return result</text>
</g>
<!-- Node0x10227750&#45;&gt;Node0xffac2a0 -->
<g id="edge4" class="edge"><title>Node0x10227750&#45;&gt;Node0xffac2a0</title>
<path fill="none" stroke="black" d="M623.544,-583.345C654.82,-566.654 693.5,-538.023 693.5,-498.5 693.5,-498.5 693.5,-498.5 693.5,-318.5 693.5,-269.138 684.072,-213.164 676.358,-175.63"/>
<polygon fill="black" stroke="black" points="679.722,-174.618 674.237,-165.553 672.872,-176.06 679.722,-174.618"/>
<text text-anchor="middle" x="720.5" y="-403.8" font-family="Times,serif" font-size="14.00">v3 != 0</text>
</g>
<!-- Node0xffac450 -->
<g id="node6" class="node"><title>Node0xffac450</title>
<polygon fill="none" stroke="black" points="286,-389.5 286,-425.5 391,-425.5 391,-389.5 286,-389.5"/>
<text text-anchor="start" x="294" y="-403.8" font-family="Times,serif" font-size="14.00">if (v5 == 0):</text>
</g>
<!-- Node0xffabd50&#45;&gt;Node0xffac450 -->
<g id="edge5" class="edge"><title>Node0xffabd50&#45;&gt;Node0xffac450</title>
<path fill="none" stroke="black" d="M334.751,-463.482C335.375,-454.328 336.046,-444.497 336.644,-435.715"/>
<polygon fill="black" stroke="black" points="340.143,-435.855 337.331,-425.64 333.159,-435.379 340.143,-435.855"/>
</g>
<!-- Node0x1022a260 -->
<g id="node7" class="node"><title>Node0x1022a260</title>
<polygon fill="none" stroke="black" points="490.5,-23.5 490.5,-59.5 544.5,-59.5 544.5,-23.5 490.5,-23.5"/>
<text text-anchor="start" x="498.5" y="-37.8" font-family="Times,serif" font-size="14.00">exit:</text>
</g>
<!-- Node0xffac2a0&#45;&gt;Node0x1022a260 -->
<g id="edge6" class="edge"><title>Node0xffac2a0&#45;&gt;Node0x1022a260</title>
<path fill="none" stroke="black" d="M610.594,-97.4817C591.643,-86.2889 570.976,-74.0833 553.94,-64.0217"/>
<polygon fill="black" stroke="black" points="555.273,-60.7443 544.883,-58.6726 551.714,-66.7716 555.273,-60.7443"/>
</g>
<!-- Node0x10227f60 -->
<g id="node8" class="node"><title>Node0x10227f60</title>
<polygon fill="none" stroke="black" points="25.5,-184.5 25.5,-282.5 651.5,-282.5 651.5,-184.5 25.5,-184.5"/>
<text text-anchor="start" x="33.5" y="-267.3" font-family="Times,serif" font-size="14.00">0x805c4b6:</text>
<text text-anchor="start" x="33.5" y="-252.3" font-family="Times,serif" font-size="14.00"> g7 = v2</text>
<text text-anchor="start" x="33.5" y="-237.3" font-family="Times,serif" font-size="14.00"> g3 = v1</text>
<text text-anchor="start" x="33.5" y="-222.3" font-family="Times,serif" font-size="14.00"> v6</text>
<text text-anchor="start" x="33.5" y="-207.3" font-family="Times,serif" font-size="14.00"> v7</text>
<text text-anchor="start" x="33.5" y="-192.3" font-family="Times,serif" font-size="14.00"> return mbedtls_mpi_copy(IntToPtrCastExpr&lt;ptr&gt;(v7), IntToPtrCastExpr&lt;ptr&gt;(v6))</text>
</g>
<!-- Node0xffac450&#45;&gt;Node0x10227f60 -->
<g id="edge7" class="edge"><title>Node0xffac450&#45;&gt;Node0x10227f60</title>
<path fill="none" stroke="black" d="M338.5,-389.379C338.5,-367.048 338.5,-326.834 338.5,-292.98"/>
<polygon fill="black" stroke="black" points="342,-292.705 338.5,-282.705 335,-292.705 342,-292.705"/>
<text text-anchor="middle" x="368.5" y="-359.8" font-family="Times,serif" font-size="14.00">v5 == 0</text>
</g>
<!-- Node0x10226f30 -->
<g id="node9" class="node"><title>Node0x10226f30</title>
<polygon fill="none" stroke="black" points="472,-301.5 472,-337.5 569,-337.5 569,-301.5 472,-301.5"/>
<text text-anchor="start" x="480" y="-315.8" font-family="Times,serif" font-size="14.00">result = v5</text>
</g>
<!-- Node0xffac450&#45;&gt;Node0x10226f30 -->
<g id="edge8" class="edge"><title>Node0xffac450&#45;&gt;Node0x10226f30</title>
<path fill="none" stroke="black" d="M374.893,-389.303C403.754,-375.666 444.244,-356.533 475.202,-341.904"/>
<polygon fill="black" stroke="black" points="476.935,-344.957 484.481,-337.52 473.944,-338.628 476.935,-344.957"/>
<text text-anchor="middle" x="467.5" y="-359.8" font-family="Times,serif" font-size="14.00">v5 != 0</text>
</g>
<!-- Node0x10227f60&#45;&gt;Node0x1022a260 -->
<g id="edge9" class="edge"><title>Node0x10227f60&#45;&gt;Node0x1022a260</title>
<path fill="none" stroke="black" d="M384.132,-184.063C419.313,-146.72 466.509,-96.6249 494.296,-67.1296"/>
<polygon fill="black" stroke="black" points="496.949,-69.4184 501.258,-59.7397 491.854,-64.6183 496.949,-69.4184"/>
</g>
<!-- Node0x10226f30&#45;&gt;Node0xffac2a0 -->
<g id="edge10" class="edge"><title>Node0x10226f30&#45;&gt;Node0xffac2a0</title>
<path fill="none" stroke="black" d="M569.254,-311.314C602.215,-305.396 641.64,-295.882 652.5,-283 677.148,-253.762 678.271,-209.042 674.665,-175.941"/>
<polygon fill="black" stroke="black" points="678.088,-175.114 673.352,-165.637 671.144,-175.999 678.088,-175.114"/>
</g>
</g>
</svg>
