<?xml version="1.0" encoding="UTF-8" standalone="no"?>
<!DOCTYPE svg PUBLIC "-//W3C//DTD SVG 1.1//EN"
 "http://www.w3.org/Graphics/SVG/1.1/DTD/svg11.dtd">
<!-- Generated by graphviz version 2.38.0 (20140413.2041)
 -->
<!-- Title: Control&#45;flow graph for function &#39;mbedtls_asn1_get_int(*a1, a2, *a3)&#39;. Pages: 1 -->
<svg width="1092pt" height="1420pt"
 viewBox="0.00 0.00 1091.50 1420.00" xmlns="http://www.w3.org/2000/svg" xmlns:xlink="http://www.w3.org/1999/xlink">
<g id="graph0" class="graph" transform="scale(1 1) rotate(0) translate(4 1416)">
<title>Control&#45;flow graph for function &#39;mbedtls_asn1_get_int(*a1, a2, *a3)&#39;.</title>
<polygon fill="white" stroke="none" points="-4,4 -4,-1416 1087.5,-1416 1087.5,4 -4,4"/>
<text text-anchor="middle" x="541.75" y="-7.8" font-family="Times,serif" font-size="14.00">Control&#45;flow graph for function &#39;mbedtls_asn1_get_int(*a1, a2, *a3)&#39;.</text>
<!-- Node0xe3ad490 -->
<g id="node1" class="node"><title>Node0xe3ad490</title>
<polygon fill="none" stroke="black" points="253.5,-1343.5 253.5,-1411.5 312.5,-1411.5 312.5,-1343.5 253.5,-1343.5"/>
<text text-anchor="start" x="261.5" y="-1396.3" font-family="Times,serif" font-size="14.00">entry:</text>
<text text-anchor="start" x="261.5" y="-1381.3" font-family="Times,serif" font-size="14.00"> a1</text>
<text text-anchor="start" x="261.5" y="-1366.3" font-family="Times,serif" font-size="14.00"> a2</text>
<text text-anchor="start" x="261.5" y="-1351.3" font-family="Times,serif" font-size="14.00"> a3</text>
</g>
<!-- Node0x29a31620 -->
<g id="node2" class="node"><title>Node0x29a31620</title>
<polygon fill="none" stroke="black" points="0,-1222.5 0,-1305.5 566,-1305.5 566,-1222.5 0,-1222.5"/>
<text text-anchor="start" x="8" y="-1290.3" font-family="Times,serif" font-size="14.00">v1 = g3</text>
<text text-anchor="start" x="8" y="-1275.3" font-family="Times,serif" font-size="14.00"> g3 = PtrToIntCastExpr&lt;int32&gt;(a1)</text>
<text text-anchor="start" x="8" y="-1260.3" font-family="Times,serif" font-size="14.00"> v2</text>
<text text-anchor="start" x="8" y="-1245.3" font-family="Times,serif" font-size="14.00"> result = mbedtls_asn1_get_tag(a1, a2, PtrToIntCastExpr&lt;int32&gt;(&amp;(v2)), 2)</text>
<text text-anchor="start" x="8" y="-1230.3" font-family="Times,serif" font-size="14.00"> result2 = result</text>
</g>
<!-- Node0xe3ad490&#45;&gt;Node0x29a31620 -->
<g id="edge1" class="edge"><title>Node0xe3ad490&#45;&gt;Node0x29a31620</title>
<path fill="none" stroke="black" d="M283,-1343.35C283,-1334.67 283,-1325.12 283,-1315.76"/>
<polygon fill="black" stroke="black" points="286.5,-1315.72 283,-1305.72 279.5,-1315.72 286.5,-1315.72"/>
</g>
<!-- Node0x15c2de90 -->
<g id="node3" class="node"><title>Node0x15c2de90</title>
<polygon fill="none" stroke="black" points="218,-1148.5 218,-1184.5 348,-1184.5 348,-1148.5 218,-1148.5"/>
<text text-anchor="start" x="226" y="-1162.8" font-family="Times,serif" font-size="14.00">if (result == 0):</text>
</g>
<!-- Node0x29a31620&#45;&gt;Node0x15c2de90 -->
<g id="edge2" class="edge"><title>Node0x29a31620&#45;&gt;Node0x15c2de90</title>
<path fill="none" stroke="black" d="M283,-1222.5C283,-1213.21 283,-1203.54 283,-1194.95"/>
<polygon fill="black" stroke="black" points="286.5,-1194.75 283,-1184.75 279.5,-1194.75 286.5,-1194.75"/>
</g>
<!-- Node0x15c2dc60 -->
<g id="node4" class="node"><title>Node0x15c2dc60</title>
<polygon fill="none" stroke="black" points="295,-1060.5 295,-1096.5 367,-1096.5 367,-1060.5 295,-1060.5"/>
<text text-anchor="start" x="303" y="-1074.8" font-family="Times,serif" font-size="14.00">v3 = v2</text>
</g>
<!-- Node0x15c2de90&#45;&gt;Node0x15c2dc60 -->
<g id="edge3" class="edge"><title>Node0x15c2de90&#45;&gt;Node0x15c2dc60</title>
<path fill="none" stroke="black" d="M292.714,-1148.1C299.524,-1135.89 308.749,-1119.37 316.436,-1105.59"/>
<polygon fill="black" stroke="black" points="319.647,-1107.02 321.465,-1096.58 313.535,-1103.61 319.647,-1107.02"/>
<text text-anchor="middle" x="352.5" y="-1118.8" font-family="Times,serif" font-size="14.00">result == 0</text>
</g>
<!-- Node0x15c2f7f0 -->
<g id="node5" class="node"><title>Node0x15c2f7f0</title>
<polygon fill="none" stroke="black" points="290,-614.5 290,-667.5 412,-667.5 412,-614.5 290,-614.5"/>
<text text-anchor="start" x="298" y="-652.3" font-family="Times,serif" font-size="14.00">0x8055e64:</text>
<text text-anchor="start" x="298" y="-637.3" font-family="Times,serif" font-size="14.00"> g3 = v1</text>
<text text-anchor="start" x="298" y="-622.3" font-family="Times,serif" font-size="14.00"> return result2</text>
</g>
<!-- Node0x15c2de90&#45;&gt;Node0x15c2f7f0 -->
<g id="edge4" class="edge"><title>Node0x15c2de90&#45;&gt;Node0x15c2f7f0</title>
<path fill="none" stroke="black" d="M274.159,-1148.21C266.285,-1131.19 256,-1104.23 256,-1079.5 256,-1079.5 256,-1079.5 256,-731 256,-707.171 272.115,-687.873 291.071,-673.417"/>
<polygon fill="black" stroke="black" points="293.226,-676.178 299.33,-667.518 289.158,-670.482 293.226,-676.178"/>
<text text-anchor="middle" x="295.5" y="-912.8" font-family="Times,serif" font-size="14.00">result != 0</text>
</g>
<!-- Node0x15c2f9e0 -->
<g id="node6" class="node"><title>Node0x15c2f9e0</title>
<polygon fill="none" stroke="black" points="316.5,-986.5 316.5,-1022.5 409.5,-1022.5 409.5,-986.5 316.5,-986.5"/>
<text text-anchor="start" x="324.5" y="-1000.8" font-family="Times,serif" font-size="14.00">if (v3 &lt; 5):</text>
</g>
<!-- Node0x15c2dc60&#45;&gt;Node0x15c2f9e0 -->
<g id="edge5" class="edge"><title>Node0x15c2dc60&#45;&gt;Node0x15c2f9e0</title>
<path fill="none" stroke="black" d="M338.584,-1060.44C342.315,-1052.04 346.899,-1041.73 351.084,-1032.31"/>
<polygon fill="black" stroke="black" points="354.385,-1033.5 355.249,-1022.94 347.989,-1030.66 354.385,-1033.5"/>
</g>
<!-- Node0xbe58df0 -->
<g id="node7" class="node"><title>Node0xbe58df0</title>
<polygon fill="none" stroke="black" points="362,-23.5 362,-59.5 416,-59.5 416,-23.5 362,-23.5"/>
<text text-anchor="start" x="370" y="-37.8" font-family="Times,serif" font-size="14.00">exit:</text>
</g>
<!-- Node0x15c2f7f0&#45;&gt;Node0xbe58df0 -->
<g id="edge6" class="edge"><title>Node0x15c2f7f0&#45;&gt;Node0xbe58df0</title>
<path fill="none" stroke="black" d="M351,-614.362C351,-586.197 351,-539.625 351,-499.5 351,-499.5 351,-499.5 351,-175.5 351,-137.384 365.608,-95.4057 376.709,-69.0067"/>
<polygon fill="black" stroke="black" points="379.981,-70.259 380.755,-59.6924 373.561,-67.4704 379.981,-70.259"/>
</g>
<!-- Node0x9e6e6f0 -->
<g id="node8" class="node"><title>Node0x9e6e6f0</title>
<polygon fill="none" stroke="black" points="398.5,-898.5 398.5,-934.5 673.5,-934.5 673.5,-898.5 398.5,-898.5"/>
<text text-anchor="start" x="406.5" y="-912.8" font-family="Times,serif" font-size="14.00">v4 = *(IntToPtrCastExpr&lt;ptr&gt;(g3))</text>
</g>
<!-- Node0x15c2f9e0&#45;&gt;Node0x9e6e6f0 -->
<g id="edge7" class="edge"><title>Node0x15c2f9e0&#45;&gt;Node0x9e6e6f0</title>
<path fill="none" stroke="black" d="M397.593,-986.303C424.909,-972.724 463.183,-953.698 492.561,-939.094"/>
<polygon fill="black" stroke="black" points="494.365,-942.106 501.762,-934.52 491.249,-935.837 494.365,-942.106"/>
<text text-anchor="middle" x="484" y="-956.8" font-family="Times,serif" font-size="14.00">v3 &lt; 5</text>
</g>
<!-- Node0x29a32370 -->
<g id="node9" class="node"><title>Node0x29a32370</title>
<polygon fill="none" stroke="black" points="300.5,-713 300.5,-751 425.5,-751 425.5,-713 300.5,-713"/>
<text text-anchor="start" x="308.5" y="-735.8" font-family="Times,serif" font-size="14.00">0x8055e7e:</text>
<text text-anchor="start" x="308.5" y="-720.8" font-family="Times,serif" font-size="14.00"> result2 = &#45;100</text>
</g>
<!-- Node0x15c2f9e0&#45;&gt;Node0x29a32370 -->
<g id="edge8" class="edge"><title>Node0x15c2f9e0&#45;&gt;Node0x29a32370</title>
<path fill="none" stroke="black" d="M363,-986.168C363,-940.691 363,-817.604 363,-761.527"/>
<polygon fill="black" stroke="black" points="366.5,-761.247 363,-751.248 359.5,-761.248 366.5,-761.247"/>
<text text-anchor="middle" x="393" y="-868.8" font-family="Times,serif" font-size="14.00">v3 &gt;= 5</text>
</g>
<!-- Node0x9e6e880 -->
<g id="node10" class="node"><title>Node0x9e6e880</title>
<polygon fill="none" stroke="black" points="390.5,-810.5 390.5,-846.5 697.5,-846.5 697.5,-810.5 390.5,-810.5"/>
<text text-anchor="start" x="398.5" y="-824.8" font-family="Times,serif" font-size="14.00">if (*(IntToPtrCastExpr&lt;ptr&gt;(v4)) &gt;= 0):</text>
</g>
<!-- Node0x9e6e6f0&#45;&gt;Node0x9e6e880 -->
<g id="edge9" class="edge"><title>Node0x9e6e6f0&#45;&gt;Node0x9e6e880</title>
<path fill="none" stroke="black" d="M537.619,-898.097C538.721,-886.246 540.203,-870.317 541.461,-856.792"/>
<polygon fill="black" stroke="black" points="544.969,-856.865 542.411,-846.584 538,-856.217 544.969,-856.865"/>
</g>
<!-- Node0x29a32370&#45;&gt;Node0x15c2f7f0 -->
<g id="edge10" class="edge"><title>Node0x29a32370&#45;&gt;Node0x15c2f7f0</title>
<path fill="none" stroke="black" d="M360.572,-712.99C359.216,-702.932 357.477,-690.037 355.854,-678.003"/>
<polygon fill="black" stroke="black" points="359.276,-677.185 354.471,-667.742 352.339,-678.121 359.276,-677.185"/>
</g>
<!-- Node0x9e6e880&#45;&gt;Node0x29a32370 -->
<g id="edge12" class="edge"><title>Node0x9e6e880&#45;&gt;Node0x29a32370</title>
<path fill="none" stroke="black" d="M425.543,-810.471C413.86,-805.698 402.743,-799.65 393,-792 382.934,-784.096 375.948,-771.902 371.268,-760.647"/>
<polygon fill="black" stroke="black" points="374.495,-759.283 367.729,-751.13 367.934,-761.722 374.495,-759.283"/>
<text text-anchor="middle" x="518" y="-780.8" font-family="Times,serif" font-size="14.00">*(IntToPtrCastExpr&lt;ptr&gt;(v4)) &lt; 0</text>
</g>
<!-- Node0x15c302c0 -->
<g id="node11" class="node"><title>Node0x15c302c0</title>
<polygon fill="none" stroke="black" points="619,-705.5 619,-758.5 719,-758.5 719,-705.5 619,-705.5"/>
<text text-anchor="start" x="627" y="-743.3" font-family="Times,serif" font-size="14.00">0x8055e8c:</text>
<text text-anchor="start" x="627" y="-728.3" font-family="Times,serif" font-size="14.00"> *(a3) = 0</text>
<text text-anchor="start" x="627" y="-713.3" font-family="Times,serif" font-size="14.00"> g6 = v3</text>
</g>
<!-- Node0x9e6e880&#45;&gt;Node0x15c302c0 -->
<g id="edge11" class="edge"><title>Node0x9e6e880&#45;&gt;Node0x15c302c0</title>
<path fill="none" stroke="black" d="M619.441,-810.387C629.565,-805.671 639.146,-799.66 647,-792 653.596,-785.567 658.233,-776.975 661.487,-768.343"/>
<polygon fill="black" stroke="black" points="664.861,-769.284 664.603,-758.692 658.199,-767.133 664.861,-769.284"/>
<text text-anchor="middle" x="787" y="-780.8" font-family="Times,serif" font-size="14.00">*(IntToPtrCastExpr&lt;ptr&gt;(v4)) &gt;= 0</text>
</g>
<!-- Node0x15c30320 -->
<g id="node12" class="node"><title>Node0x15c30320</title>
<polygon fill="none" stroke="black" points="616.5,-622 616.5,-660 721.5,-660 721.5,-622 616.5,-622"/>
<text text-anchor="start" x="624.5" y="-644.8" font-family="Times,serif" font-size="14.00">if (v3 == 0):</text>
<text text-anchor="start" x="624.5" y="-629.8" font-family="Times,serif" font-size="14.00"> else:</text>
</g>
<!-- Node0x15c302c0&#45;&gt;Node0x15c30320 -->
<g id="edge13" class="edge"><title>Node0x15c302c0&#45;&gt;Node0x15c30320</title>
<path fill="none" stroke="black" d="M669,-705.258C669,-694.286 669,-681.453 669,-670.224"/>
<polygon fill="black" stroke="black" points="672.5,-670.062 669,-660.062 665.5,-670.062 672.5,-670.062"/>
</g>
<!-- Node0x15c306b0 -->
<g id="node13" class="node"><title>Node0x15c306b0</title>
<polygon fill="none" stroke="black" points="514.5,-434.5 514.5,-562.5 957.5,-562.5 957.5,-434.5 514.5,-434.5"/>
<text text-anchor="start" x="522.5" y="-547.3" font-family="Times,serif" font-size="14.00">v2 = (v3 &#45; 1)</text>
<text text-anchor="start" x="522.5" y="-532.3" font-family="Times,serif" font-size="14.00"> v5 = (v4 + 1)</text>
<text text-anchor="start" x="522.5" y="-517.3" font-family="Times,serif" font-size="14.00"> g4 = v5</text>
<text text-anchor="start" x="522.5" y="-502.3" font-family="Times,serif" font-size="14.00"> *(IntToPtrCastExpr&lt;ptr&gt;(g3)) = v5</text>
<text text-anchor="start" x="522.5" y="-487.3" font-family="Times,serif" font-size="14.00"> v6 = ExtCastExpr&lt;int32&gt;(*(IntToPtrCastExpr&lt;ptr&gt;(v4)))</text>
<text text-anchor="start" x="522.5" y="-472.3" font-family="Times,serif" font-size="14.00"> g6 = v6</text>
<text text-anchor="start" x="522.5" y="-457.3" font-family="Times,serif" font-size="14.00"> *(a3) = v6</text>
<text text-anchor="start" x="522.5" y="-442.3" font-family="Times,serif" font-size="14.00"> g3 = v1</text>
</g>
<!-- Node0x15c30320&#45;&gt;Node0x15c306b0 -->
<g id="edge14" class="edge"><title>Node0x15c30320&#45;&gt;Node0x15c306b0</title>
<path fill="none" stroke="black" d="M677.622,-621.92C683.818,-608.926 692.615,-590.478 701.506,-571.834"/>
<polygon fill="black" stroke="black" points="704.722,-573.222 705.867,-562.689 698.404,-570.209 704.722,-573.222"/>
<text text-anchor="middle" x="723" y="-584.8" font-family="Times,serif" font-size="14.00">v3 != 0</text>
</g>
<!-- Node0x15c305d0 -->
<g id="node14" class="node"><title>Node0x15c305d0</title>
<polygon fill="none" stroke="black" points="375.5,-362.5 375.5,-415.5 488.5,-415.5 488.5,-362.5 375.5,-362.5"/>
<text text-anchor="start" x="383.5" y="-400.3" font-family="Times,serif" font-size="14.00">0x8055e64:</text>
<text text-anchor="start" x="383.5" y="-385.3" font-family="Times,serif" font-size="14.00"> g3 = v1</text>
<text text-anchor="start" x="383.5" y="-370.3" font-family="Times,serif" font-size="14.00"> return result</text>
</g>
<!-- Node0x15c30320&#45;&gt;Node0x15c305d0 -->
<g id="edge15" class="edge"><title>Node0x15c30320&#45;&gt;Node0x15c305d0</title>
<path fill="none" stroke="black" d="M616.146,-626.077C580.714,-614.371 535.188,-594.409 505,-563 467.833,-524.329 448.287,-463.906 439.064,-425.664"/>
<polygon fill="black" stroke="black" points="442.38,-424.466 436.73,-415.503 435.558,-426.033 442.38,-424.466"/>
<text text-anchor="middle" x="577" y="-584.8" font-family="Times,serif" font-size="14.00">v3 == 0</text>
</g>
<!-- Node0x15c30750 -->
<g id="node15" class="node"><title>Node0x15c30750</title>
<polygon fill="none" stroke="black" points="675,-307.5 675,-343.5 803,-343.5 803,-307.5 675,-307.5"/>
<text text-anchor="start" x="683" y="-321.8" font-family="Times,serif" font-size="14.00">while (v2 != 0):</text>
</g>
<!-- Node0x15c306b0&#45;&gt;Node0x15c30750 -->
<g id="edge16" class="edge"><title>Node0x15c306b0&#45;&gt;Node0x15c30750</title>
<path fill="none" stroke="black" d="M737.109,-434.312C737.597,-406.477 738.145,-375.249 738.525,-353.596"/>
<polygon fill="black" stroke="black" points="742.026,-353.563 738.702,-343.503 735.027,-353.44 742.026,-353.563"/>
</g>
<!-- Node0x15c305d0&#45;&gt;Node0xbe58df0 -->
<g id="edge17" class="edge"><title>Node0x15c305d0&#45;&gt;Node0xbe58df0</title>
<path fill="none" stroke="black" d="M426.612,-362.311C421.219,-335.791 413.021,-293.163 408,-256 399.008,-189.453 393.252,-110.639 390.638,-69.9181"/>
<polygon fill="black" stroke="black" points="394.117,-69.4785 389.998,-59.7172 387.131,-69.9168 394.117,-69.4785"/>
</g>
<!-- Node0x9e6e770 -->
<g id="node16" class="node"><title>Node0x9e6e770</title>
<polygon fill="none" stroke="black" points="544.5,-97.5 544.5,-255.5 1083.5,-255.5 1083.5,-97.5 544.5,-97.5"/>
<text text-anchor="start" x="552.5" y="-240.3" font-family="Times,serif" font-size="14.00">0x8055eb0:</text>
<text text-anchor="start" x="552.5" y="-225.3" font-family="Times,serif" font-size="14.00"> v2 = (v2 &#45; 1)</text>
<text text-anchor="start" x="552.5" y="-210.3" font-family="Times,serif" font-size="14.00"> v4 = g4</text>
<text text-anchor="start" x="552.5" y="-195.3" font-family="Times,serif" font-size="14.00"> v5 = (v4 + 1)</text>
<text text-anchor="start" x="552.5" y="-180.3" font-family="Times,serif" font-size="14.00"> g4 = v5</text>
<text text-anchor="start" x="552.5" y="-165.3" font-family="Times,serif" font-size="14.00"> *(IntToPtrCastExpr&lt;ptr&gt;(g3)) = v5</text>
<text text-anchor="start" x="552.5" y="-150.3" font-family="Times,serif" font-size="14.00"> v6 = (ExtCastExpr&lt;int32&gt;(*(IntToPtrCastExpr&lt;ptr&gt;(v4))) | (256 * g6))</text>
<text text-anchor="start" x="552.5" y="-135.3" font-family="Times,serif" font-size="14.00"> g6 = v6</text>
<text text-anchor="start" x="552.5" y="-120.3" font-family="Times,serif" font-size="14.00"> *(a3) = v6</text>
<text text-anchor="start" x="552.5" y="-105.3" font-family="Times,serif" font-size="14.00"> g3 = v1</text>
</g>
<!-- Node0x15c30750&#45;&gt;Node0x9e6e770 -->
<g id="edge18" class="edge"><title>Node0x15c30750&#45;&gt;Node0x9e6e770</title>
<path fill="none" stroke="black" d="M738.939,-307.154C739.419,-297.163 740.919,-284.538 745,-274 746.19,-270.927 747.501,-267.861 748.913,-264.814"/>
<polygon fill="black" stroke="black" points="752.108,-266.249 753.432,-255.737 745.842,-263.129 752.108,-266.249"/>
<text text-anchor="middle" x="772" y="-277.8" font-family="Times,serif" font-size="14.00">v2 != 0</text>
</g>
<!-- Node0xaa01d80 -->
<g id="node17" class="node"><title>Node0xaa01d80</title>
<polygon fill="none" stroke="black" points="417.5,-158.5 417.5,-194.5 526.5,-194.5 526.5,-158.5 417.5,-158.5"/>
<text text-anchor="start" x="425.5" y="-172.8" font-family="Times,serif" font-size="14.00">return result</text>
</g>
<!-- Node0x15c30750&#45;&gt;Node0xaa01d80 -->
<g id="edge19" class="edge"><title>Node0x15c30750&#45;&gt;Node0xaa01d80</title>
<path fill="none" stroke="black" d="M674.95,-312.843C632.447,-302.847 576.975,-285.289 535,-256 515.108,-242.12 498.266,-220.214 487.015,-203.065"/>
<polygon fill="black" stroke="black" points="489.961,-201.176 481.654,-194.599 484.047,-204.92 489.961,-201.176"/>
<text text-anchor="middle" x="627" y="-277.8" font-family="Times,serif" font-size="14.00">v2 == 0</text>
</g>
<!-- Node0x9e6e770&#45;&gt;Node0x15c30750 -->
<g id="edge20" class="edge"><title>Node0x9e6e770&#45;&gt;Node0x15c30750</title>
<path fill="none" stroke="black" d="M812.603,-255.736C809.877,-267.538 805.58,-279.068 799,-289 795.95,-293.604 792.081,-297.694 787.783,-301.307"/>
<polygon fill="black" stroke="black" points="785.628,-298.548 779.665,-307.305 789.788,-304.178 785.628,-298.548"/>
</g>
<!-- Node0xaa01d80&#45;&gt;Node0xbe58df0 -->
<g id="edge21" class="edge"><title>Node0xaa01d80&#45;&gt;Node0xbe58df0</title>
<path fill="none" stroke="black" d="M461.319,-158.385C447.063,-135.541 421.691,-94.8837 405.107,-68.3095"/>
<polygon fill="black" stroke="black" points="407.903,-66.18 399.64,-59.5495 401.965,-69.886 407.903,-66.18"/>
</g>
</g>
</svg>
