<?xml version="1.0" encoding="UTF-8" standalone="no"?>
<!DOCTYPE svg PUBLIC "-//W3C//DTD SVG 1.1//EN"
 "http://www.w3.org/Graphics/SVG/1.1/DTD/svg11.dtd">
<!-- Generated by graphviz version 2.38.0 (20140413.2041)
 -->
<!-- Title: Control&#45;flow graph for function &#39;mbedtls_padlock_xcryptcbc(*a1, a2, a3, *a4, *a5, *a6)&#39;. Pages: 1 -->
<svg width="1587pt" height="760pt"
 viewBox="0.00 0.00 1586.50 760.00" xmlns="http://www.w3.org/2000/svg" xmlns:xlink="http://www.w3.org/1999/xlink">
<g id="graph0" class="graph" transform="scale(1 1) rotate(0) translate(4 756)">
<title>Control&#45;flow graph for function &#39;mbedtls_padlock_xcryptcbc(*a1, a2, a3, *a4, *a5, *a6)&#39;.</title>
<polygon fill="white" stroke="none" points="-4,4 -4,-756 1582.5,-756 1582.5,4 -4,4"/>
<text text-anchor="middle" x="789.25" y="-7.8" font-family="Times,serif" font-size="14.00">Control&#45;flow graph for function &#39;mbedtls_padlock_xcryptcbc(*a1, a2, a3, *a4, *a5, *a6)&#39;.</text>
<!-- Node0x198ce5e0 -->
<g id="node1" class="node"><title>Node0x198ce5e0</title>
<polygon fill="none" stroke="black" points="900,-638.5 900,-751.5 959,-751.5 959,-638.5 900,-638.5"/>
<text text-anchor="start" x="908" y="-736.3" font-family="Times,serif" font-size="14.00">entry:</text>
<text text-anchor="start" x="908" y="-721.3" font-family="Times,serif" font-size="14.00"> a1</text>
<text text-anchor="start" x="908" y="-706.3" font-family="Times,serif" font-size="14.00"> a2</text>
<text text-anchor="start" x="908" y="-691.3" font-family="Times,serif" font-size="14.00"> a3</text>
<text text-anchor="start" x="908" y="-676.3" font-family="Times,serif" font-size="14.00"> a4</text>
<text text-anchor="start" x="908" y="-661.3" font-family="Times,serif" font-size="14.00"> a5</text>
<text text-anchor="start" x="908" y="-646.3" font-family="Times,serif" font-size="14.00"> a6</text>
</g>
<!-- Node0x1c0b3130 -->
<g id="node2" class="node"><title>Node0x1c0b3130</title>
<polygon fill="none" stroke="black" points="793.5,-562.5 793.5,-600.5 1065.5,-600.5 1065.5,-562.5 793.5,-562.5"/>
<text text-anchor="start" x="801.5" y="-585.3" font-family="Times,serif" font-size="14.00">v1 = PtrToIntCastExpr&lt;int32&gt;(a4)</text>
<text text-anchor="start" x="801.5" y="-570.3" font-family="Times,serif" font-size="14.00"> result = &#45;48</text>
</g>
<!-- Node0x198ce5e0&#45;&gt;Node0x1c0b3130 -->
<g id="edge1" class="edge"><title>Node0x198ce5e0&#45;&gt;Node0x1c0b3130</title>
<path fill="none" stroke="black" d="M929.5,-638.25C929.5,-628.862 929.5,-619.474 929.5,-611.151"/>
<polygon fill="black" stroke="black" points="933,-610.912 929.5,-600.912 926,-610.912 933,-610.912"/>
</g>
<!-- Node0x1c0b31d0 -->
<g id="node3" class="node"><title>Node0x1c0b31d0</title>
<polygon fill="none" stroke="black" points="686.5,-488.5 686.5,-524.5 1172.5,-524.5 1172.5,-488.5 686.5,-488.5"/>
<text text-anchor="start" x="694.5" y="-502.8" font-family="Times,serif" font-size="14.00">if (TruncCastExpr&lt;int8&gt;(PtrToIntCastExpr&lt;int32&gt;(a5)) == 15):</text>
</g>
<!-- Node0x1c0b3130&#45;&gt;Node0x1c0b31d0 -->
<g id="edge2" class="edge"><title>Node0x1c0b3130&#45;&gt;Node0x1c0b31d0</title>
<path fill="none" stroke="black" d="M929.5,-562.455C929.5,-554.201 929.5,-544.238 929.5,-535.074"/>
<polygon fill="black" stroke="black" points="933,-534.835 929.5,-524.835 926,-534.835 933,-534.835"/>
</g>
<!-- Node0xe696d10 -->
<g id="node4" class="node"><title>Node0xe696d10</title>
<polygon fill="none" stroke="black" points="455,-383.5 455,-436.5 946,-436.5 946,-383.5 455,-383.5"/>
<text text-anchor="start" x="463" y="-421.3" font-family="Times,serif" font-size="14.00">0x804cc10:</text>
<text text-anchor="start" x="463" y="-406.3" font-family="Times,serif" font-size="14.00"> if (TruncCastExpr&lt;int8&gt;(PtrToIntCastExpr&lt;int32&gt;(a6)) == 15):</text>
<text text-anchor="start" x="463" y="-391.3" font-family="Times,serif" font-size="14.00"> else:</text>
</g>
<!-- Node0x1c0b31d0&#45;&gt;Node0xe696d10 -->
<g id="edge3" class="edge"><title>Node0x1c0b31d0&#45;&gt;Node0xe696d10</title>
<path fill="none" stroke="black" d="M740.847,-488.42C723.835,-483.697 710.409,-477.675 703.5,-470 697.841,-463.714 695.517,-455.355 694.966,-446.911"/>
<polygon fill="black" stroke="black" points="698.468,-446.737 695.069,-436.703 691.468,-446.667 698.468,-446.737"/>
<text text-anchor="middle" x="924" y="-458.8" font-family="Times,serif" font-size="14.00">TruncCastExpr&lt;int8&gt;(PtrToIntCastExpr&lt;int32&gt;(a5)) == 15</text>
</g>
<!-- Node0xe696bb0 -->
<g id="node5" class="node"><title>Node0xe696bb0</title>
<polygon fill="none" stroke="black" points="644,-97.5 644,-135.5 757,-135.5 757,-97.5 644,-97.5"/>
<text text-anchor="start" x="652" y="-120.3" font-family="Times,serif" font-size="14.00">0x804cc03:</text>
<text text-anchor="start" x="652" y="-105.3" font-family="Times,serif" font-size="14.00"> return result</text>
</g>
<!-- Node0x1c0b31d0&#45;&gt;Node0xe696bb0 -->
<g id="edge4" class="edge"><title>Node0x1c0b31d0&#45;&gt;Node0xe696bb0</title>
<path fill="none" stroke="black" d="M1107.96,-488.489C1124.75,-483.759 1137.95,-477.717 1144.5,-470 1162.34,-448.972 1250.57,-524.697 1136.5,-350 1051.03,-219.101 866.293,-156.746 766.938,-131.681"/>
<polygon fill="black" stroke="black" points="767.559,-128.229 757.011,-129.229 765.88,-135.025 767.559,-128.229"/>
<text text-anchor="middle" x="1361" y="-353.8" font-family="Times,serif" font-size="14.00">TruncCastExpr&lt;int8&gt;(PtrToIntCastExpr&lt;int32&gt;(a5)) != 15</text>
</g>
<!-- Node0x1c0b1f80 -->
<g id="node6" class="node"><title>Node0x1c0b1f80</title>
<polygon fill="none" stroke="black" points="0,-173.5 0,-331.5 579,-331.5 579,-173.5 0,-173.5"/>
<text text-anchor="start" x="8" y="-316.3" font-family="Times,serif" font-size="14.00">v2 = *(IntToPtrCastExpr&lt;ptr&gt;((PtrToIntCastExpr&lt;int32&gt;(a1) + 4)))</text>
<text text-anchor="start" x="8" y="-301.3" font-family="Times,serif" font-size="14.00"> g4 = ((a3 + 15) / 16)</text>
<text text-anchor="start" x="8" y="-286.3" font-family="Times,serif" font-size="14.00"> v3 = IntToPtrCastExpr&lt;ptr&gt;((v2 + 1166798941))</text>
<text text-anchor="start" x="8" y="-271.3" font-family="Times,serif" font-size="14.00"> v4 = ExtCastExpr&lt;int32&gt;(*(v3))</text>
<text text-anchor="start" x="8" y="-256.3" font-family="Times,serif" font-size="14.00"> *(v3) = TruncCastExpr&lt;int8&gt;((((v4 / 2) % 128) | (128 * v4)))</text>
<text text-anchor="start" x="8" y="-241.3" font-family="Times,serif" font-size="14.00"> *(IntToPtrCastExpr&lt;ptr&gt;(v2)) = *(a4)</text>
<text text-anchor="start" x="8" y="-226.3" font-family="Times,serif" font-size="14.00"> *(IntToPtrCastExpr&lt;ptr&gt;((v2 + 4))) = *(IntToPtrCastExpr&lt;ptr&gt;((v1 + 4)))</text>
<text text-anchor="start" x="8" y="-211.3" font-family="Times,serif" font-size="14.00"> *(IntToPtrCastExpr&lt;ptr&gt;((v2 + 8))) = *(IntToPtrCastExpr&lt;ptr&gt;((v1 + 8)))</text>
<text text-anchor="start" x="8" y="-196.3" font-family="Times,serif" font-size="14.00"> *(IntToPtrCastExpr&lt;ptr&gt;((v2 + 12))) = *(IntToPtrCastExpr&lt;ptr&gt;((v1 + 12)))</text>
<text text-anchor="start" x="8" y="-181.3" font-family="Times,serif" font-size="14.00"> result = 0</text>
</g>
<!-- Node0xe696d10&#45;&gt;Node0x1c0b1f80 -->
<g id="edge5" class="edge"><title>Node0xe696d10&#45;&gt;Node0x1c0b1f80</title>
<path fill="none" stroke="black" d="M454.728,-398.496C359.831,-391.869 270.323,-381.361 255.5,-365 249.298,-358.155 246.389,-350.207 245.794,-341.766"/>
<polygon fill="black" stroke="black" points="249.296,-341.77 246.102,-331.668 242.299,-341.557 249.296,-341.77"/>
<text text-anchor="middle" x="476" y="-353.8" font-family="Times,serif" font-size="14.00">TruncCastExpr&lt;int8&gt;(PtrToIntCastExpr&lt;int32&gt;(a6)) == 15</text>
</g>
<!-- Node0xe6973c0 -->
<g id="node7" class="node"><title>Node0xe6973c0</title>
<polygon fill="none" stroke="black" points="649.5,-234.5 649.5,-270.5 751.5,-270.5 751.5,-234.5 649.5,-234.5"/>
<text text-anchor="start" x="657.5" y="-248.8" font-family="Times,serif" font-size="14.00">result = &#45;48</text>
</g>
<!-- Node0xe696d10&#45;&gt;Node0xe6973c0 -->
<g id="edge6" class="edge"><title>Node0xe696d10&#45;&gt;Node0xe6973c0</title>
<path fill="none" stroke="black" d="M700.5,-383.322C700.5,-355.021 700.5,-309.683 700.5,-280.764"/>
<polygon fill="black" stroke="black" points="704,-280.553 700.5,-270.553 697,-280.553 704,-280.553"/>
<text text-anchor="middle" x="918" y="-353.8" font-family="Times,serif" font-size="14.00">TruncCastExpr&lt;int8&gt;(PtrToIntCastExpr&lt;int32&gt;(a6)) != 15</text>
</g>
<!-- Node0xe695f60 -->
<g id="node8" class="node"><title>Node0xe695f60</title>
<polygon fill="none" stroke="black" points="673.5,-23.5 673.5,-59.5 727.5,-59.5 727.5,-23.5 673.5,-23.5"/>
<text text-anchor="start" x="681.5" y="-37.8" font-family="Times,serif" font-size="14.00">exit:</text>
</g>
<!-- Node0xe696bb0&#45;&gt;Node0xe695f60 -->
<g id="edge7" class="edge"><title>Node0xe696bb0&#45;&gt;Node0xe695f60</title>
<path fill="none" stroke="black" d="M700.5,-97.4551C700.5,-89.2008 700.5,-79.2377 700.5,-70.0742"/>
<polygon fill="black" stroke="black" points="704,-69.8347 700.5,-59.8347 697,-69.8347 704,-69.8347"/>
</g>
<!-- Node0x1c0b1f80&#45;&gt;Node0xe696bb0 -->
<g id="edge8" class="edge"><title>Node0x1c0b1f80&#45;&gt;Node0xe696bb0</title>
<path fill="none" stroke="black" d="M528.878,-173.455C568.015,-160.694 605.467,-148.484 635.342,-138.744"/>
<polygon fill="black" stroke="black" points="636.752,-141.965 645.175,-135.538 634.582,-135.31 636.752,-141.965"/>
</g>
<!-- Node0xe6973c0&#45;&gt;Node0xe696bb0 -->
<g id="edge9" class="edge"><title>Node0xe6973c0&#45;&gt;Node0xe696bb0</title>
<path fill="none" stroke="black" d="M700.5,-234.256C700.5,-211.891 700.5,-172.579 700.5,-145.807"/>
<polygon fill="black" stroke="black" points="704,-145.533 700.5,-135.533 697,-145.533 704,-145.533"/>
</g>
</g>
</svg>
