<?xml version="1.0" encoding="UTF-8" standalone="no"?>
<!DOCTYPE svg PUBLIC "-//W3C//DTD SVG 1.1//EN"
 "http://www.w3.org/Graphics/SVG/1.1/DTD/svg11.dtd">
<!-- Generated by graphviz version 2.38.0 (20140413.2041)
 -->
<!-- Title: Control&#45;flow graph for function &#39;mbedtls_mpi_fill_random(a1, a2, *a3, a4)&#39;. Pages: 1 -->
<svg width="665pt" height="902pt"
 viewBox="0.00 0.00 665.00 902.00" xmlns="http://www.w3.org/2000/svg" xmlns:xlink="http://www.w3.org/1999/xlink">
<g id="graph0" class="graph" transform="scale(1 1) rotate(0) translate(4 898)">
<title>Control&#45;flow graph for function &#39;mbedtls_mpi_fill_random(a1, a2, *a3, a4)&#39;.</title>
<polygon fill="white" stroke="none" points="-4,4 -4,-898 661,-898 661,4 -4,4"/>
<text text-anchor="middle" x="328.5" y="-7.8" font-family="Times,serif" font-size="14.00">Control&#45;flow graph for function &#39;mbedtls_mpi_fill_random(a1, a2, *a3, a4)&#39;.</text>
<!-- Node0xdfc3c80 -->
<g id="node1" class="node"><title>Node0xdfc3c80</title>
<polygon fill="none" stroke="black" points="495.5,-810.5 495.5,-893.5 554.5,-893.5 554.5,-810.5 495.5,-810.5"/>
<text text-anchor="start" x="503.5" y="-878.3" font-family="Times,serif" font-size="14.00">entry:</text>
<text text-anchor="start" x="503.5" y="-863.3" font-family="Times,serif" font-size="14.00"> a1</text>
<text text-anchor="start" x="503.5" y="-848.3" font-family="Times,serif" font-size="14.00"> a2</text>
<text text-anchor="start" x="503.5" y="-833.3" font-family="Times,serif" font-size="14.00"> a3</text>
<text text-anchor="start" x="503.5" y="-818.3" font-family="Times,serif" font-size="14.00"> a4</text>
</g>
<!-- Node0x15b949e0 -->
<g id="node2" class="node"><title>Node0x15b949e0</title>
<polygon fill="none" stroke="black" points="437.5,-659.5 437.5,-772.5 612.5,-772.5 612.5,-659.5 437.5,-659.5"/>
<text text-anchor="start" x="445.5" y="-757.3" font-family="Times,serif" font-size="14.00">v1</text>
<text text-anchor="start" x="445.5" y="-742.3" font-family="Times,serif" font-size="14.00"> g2 = &amp;(v1)</text>
<text text-anchor="start" x="445.5" y="-727.3" font-family="Times,serif" font-size="14.00"> v2 = g3</text>
<text text-anchor="start" x="445.5" y="-712.3" font-family="Times,serif" font-size="14.00"> g3 = a2</text>
<text text-anchor="start" x="445.5" y="-697.3" font-family="Times,serif" font-size="14.00"> v3 = g7</text>
<text text-anchor="start" x="445.5" y="-682.3" font-family="Times,serif" font-size="14.00"> g237 = (a2 == 1024)</text>
<text text-anchor="start" x="445.5" y="-667.3" font-family="Times,serif" font-size="14.00"> result2 = &#45;4</text>
</g>
<!-- Node0xdfc3c80&#45;&gt;Node0x15b949e0 -->
<g id="edge1" class="edge"><title>Node0xdfc3c80&#45;&gt;Node0x15b949e0</title>
<path fill="none" stroke="black" d="M525,-810.432C525,-801.72 525,-792.299 525,-782.906"/>
<polygon fill="black" stroke="black" points="528.5,-782.759 525,-772.759 521.5,-782.759 528.5,-782.759"/>
</g>
<!-- Node0x15b937b0 -->
<g id="node3" class="node"><title>Node0x15b937b0</title>
<polygon fill="none" stroke="black" points="465,-585.5 465,-621.5 585,-621.5 585,-585.5 465,-585.5"/>
<text text-anchor="start" x="473" y="-599.8" font-family="Times,serif" font-size="14.00">if (a2 &lt; 1025):</text>
</g>
<!-- Node0x15b949e0&#45;&gt;Node0x15b937b0 -->
<g id="edge2" class="edge"><title>Node0x15b949e0&#45;&gt;Node0x15b937b0</title>
<path fill="none" stroke="black" d="M525,-659.426C525,-649.86 525,-640.307 525,-631.913"/>
<polygon fill="black" stroke="black" points="528.5,-631.644 525,-621.644 521.5,-631.644 528.5,-631.644"/>
</g>
<!-- Node0x15b92bb0 -->
<g id="node4" class="node"><title>Node0x15b92bb0</title>
<polygon fill="none" stroke="black" points="420.5,-435.5 420.5,-533.5 539.5,-533.5 539.5,-435.5 420.5,-435.5"/>
<text text-anchor="start" x="428.5" y="-518.3" font-family="Times,serif" font-size="14.00">0x80574a0:</text>
<text text-anchor="start" x="428.5" y="-503.3" font-family="Times,serif" font-size="14.00"> g1 = a4</text>
<text text-anchor="start" x="428.5" y="-488.3" font-family="Times,serif" font-size="14.00"> v4</text>
<text text-anchor="start" x="428.5" y="-473.3" font-family="Times,serif" font-size="14.00"> v5 = &amp;(v4)</text>
<text text-anchor="start" x="428.5" y="-458.3" font-family="Times,serif" font-size="14.00"> g7 = v5</text>
<text text-anchor="start" x="428.5" y="-443.3" font-family="Times,serif" font-size="14.00"> a3(a4, v5, a2)</text>
</g>
<!-- Node0x15b937b0&#45;&gt;Node0x15b92bb0 -->
<g id="edge3" class="edge"><title>Node0x15b937b0&#45;&gt;Node0x15b92bb0</title>
<path fill="none" stroke="black" d="M496.069,-585.249C490.013,-580.179 484.43,-574.063 481,-567 477.523,-559.84 475.526,-551.892 474.525,-543.847"/>
<polygon fill="black" stroke="black" points="477.999,-543.366 473.756,-533.658 471.019,-543.893 477.999,-543.366"/>
<text text-anchor="middle" x="518.5" y="-555.8" font-family="Times,serif" font-size="14.00">a2 &lt; 1025</text>
</g>
<!-- Node0x15b92ac0 -->
<g id="node5" class="node"><title>Node0x15b92ac0</title>
<polygon fill="none" stroke="black" points="484,-97.5 484,-165.5 606,-165.5 606,-97.5 484,-97.5"/>
<text text-anchor="start" x="492" y="-150.3" font-family="Times,serif" font-size="14.00">0x805748f:</text>
<text text-anchor="start" x="492" y="-135.3" font-family="Times,serif" font-size="14.00"> g3 = v2</text>
<text text-anchor="start" x="492" y="-120.3" font-family="Times,serif" font-size="14.00"> g7 = v3</text>
<text text-anchor="start" x="492" y="-105.3" font-family="Times,serif" font-size="14.00"> return result2</text>
</g>
<!-- Node0x15b937b0&#45;&gt;Node0x15b92ac0 -->
<g id="edge4" class="edge"><title>Node0x15b937b0&#45;&gt;Node0x15b92ac0</title>
<path fill="none" stroke="black" d="M543.21,-585.467C548.066,-580.012 552.837,-573.65 556,-567 571.787,-533.81 570,-522.253 570,-485.5 570,-485.5 570,-485.5 570,-289.5 570,-250.692 562.458,-207.153 555.659,-175.786"/>
<polygon fill="black" stroke="black" points="558.989,-174.637 553.394,-165.64 552.157,-176.162 558.989,-174.637"/>
<text text-anchor="middle" x="613.5" y="-375.8" font-family="Times,serif" font-size="14.00">a2 &gt;= 1025</text>
</g>
<!-- Node0x15b92ca0 -->
<g id="node6" class="node"><title>Node0x15b92ca0</title>
<polygon fill="none" stroke="black" points="427,-361.5 427,-397.5 533,-397.5 533,-361.5 427,-361.5"/>
<text text-anchor="start" x="435" y="-375.8" font-family="Times,serif" font-size="14.00">if (g1 == 0):</text>
</g>
<!-- Node0x15b92bb0&#45;&gt;Node0x15b92ca0 -->
<g id="edge5" class="edge"><title>Node0x15b92bb0&#45;&gt;Node0x15b92ca0</title>
<path fill="none" stroke="black" d="M480,-435.317C480,-425.893 480,-416.32 480,-407.868"/>
<polygon fill="black" stroke="black" points="483.5,-407.856 480,-397.856 476.5,-407.856 483.5,-407.856"/>
</g>
<!-- Node0xdb9e500 -->
<g id="node7" class="node"><title>Node0xdb9e500</title>
<polygon fill="none" stroke="black" points="386,-23.5 386,-59.5 440,-59.5 440,-23.5 386,-23.5"/>
<text text-anchor="start" x="394" y="-37.8" font-family="Times,serif" font-size="14.00">exit:</text>
</g>
<!-- Node0x15b92ac0&#45;&gt;Node0xdb9e500 -->
<g id="edge6" class="edge"><title>Node0x15b92ac0&#45;&gt;Node0xdb9e500</title>
<path fill="none" stroke="black" d="M495.473,-97.4817C479.328,-86.7187 461.779,-75.0192 447.035,-65.1901"/>
<polygon fill="black" stroke="black" points="448.972,-62.2751 438.71,-59.6402 445.089,-68.0995 448.972,-62.2751"/>
</g>
<!-- Node0x15b92e20 -->
<g id="node8" class="node"><title>Node0x15b92e20</title>
<polygon fill="none" stroke="black" points="0,-184.5 0,-252.5 530,-252.5 530,-184.5 0,-184.5"/>
<text text-anchor="start" x="8" y="-237.3" font-family="Times,serif" font-size="14.00">result = mbedtls_mpi_read_binary(a1, IntToPtrCastExpr&lt;ptr&gt;(g7), g3)</text>
<text text-anchor="start" x="8" y="-222.3" font-family="Times,serif" font-size="14.00"> g3 = v2</text>
<text text-anchor="start" x="8" y="-207.3" font-family="Times,serif" font-size="14.00"> g7 = v3</text>
<text text-anchor="start" x="8" y="-192.3" font-family="Times,serif" font-size="14.00"> return result</text>
</g>
<!-- Node0x15b92ca0&#45;&gt;Node0x15b92e20 -->
<g id="edge7" class="edge"><title>Node0x15b92ca0&#45;&gt;Node0x15b92e20</title>
<path fill="none" stroke="black" d="M447.866,-361.387C438.078,-355.835 427.421,-349.439 418,-343 380.229,-317.184 340.072,-284.55 310.379,-259.312"/>
<polygon fill="black" stroke="black" points="312.556,-256.568 302.679,-252.733 308.009,-261.89 312.556,-256.568"/>
<text text-anchor="middle" x="448.5" y="-331.8" font-family="Times,serif" font-size="14.00">g1 == 0</text>
</g>
<!-- Node0xdfc4bf0 -->
<g id="node9" class="node"><title>Node0xdfc4bf0</title>
<polygon fill="none" stroke="black" points="429.5,-271.5 429.5,-309.5 540.5,-309.5 540.5,-271.5 429.5,-271.5"/>
<text text-anchor="start" x="437.5" y="-294.3" font-family="Times,serif" font-size="14.00">0x80574a0:</text>
<text text-anchor="start" x="437.5" y="-279.3" font-family="Times,serif" font-size="14.00"> result2 = g1</text>
</g>
<!-- Node0x15b92ca0&#45;&gt;Node0xdfc4bf0 -->
<g id="edge8" class="edge"><title>Node0x15b92ca0&#45;&gt;Node0xdfc4bf0</title>
<path fill="none" stroke="black" d="M480.988,-361.312C481.666,-349.511 482.582,-333.572 483.368,-319.904"/>
<polygon fill="black" stroke="black" points="486.883,-319.736 483.963,-309.551 479.894,-319.334 486.883,-319.736"/>
<text text-anchor="middle" x="510.5" y="-331.8" font-family="Times,serif" font-size="14.00">g1 != 0</text>
</g>
<!-- Node0x15b92e20&#45;&gt;Node0xdb9e500 -->
<g id="edge9" class="edge"><title>Node0x15b92e20&#45;&gt;Node0xdb9e500</title>
<path fill="none" stroke="black" d="M293.186,-184.172C321.98,-150.125 366.031,-98.0378 391.931,-67.4126"/>
<polygon fill="black" stroke="black" points="394.631,-69.6405 398.416,-59.7448 389.286,-65.1202 394.631,-69.6405"/>
</g>
<!-- Node0xdfc4bf0&#45;&gt;Node0x15b92ac0 -->
<g id="edge10" class="edge"><title>Node0xdfc4bf0&#45;&gt;Node0x15b92ac0</title>
<path fill="none" stroke="black" d="M515.182,-271.178C521.352,-266.051 527.133,-259.948 531,-253 543.981,-229.676 547.54,-199.91 547.825,-175.798"/>
<polygon fill="black" stroke="black" points="551.323,-175.481 547.756,-165.505 544.323,-175.528 551.323,-175.481"/>
</g>
</g>
</svg>
