<?xml version="1.0" encoding="UTF-8" standalone="no"?>
<!DOCTYPE svg PUBLIC "-//W3C//DTD SVG 1.1//EN"
 "http://www.w3.org/Graphics/SVG/1.1/DTD/svg11.dtd">
<!-- Generated by graphviz version 2.38.0 (20140413.2041)
 -->
<!-- Title: Control&#45;flow graph for function &#39;mbedtls_aes_crypt_ecb(a1, a2, a3, a4)&#39;. Pages: 1 -->
<svg width="951pt" height="1002pt"
 viewBox="0.00 0.00 951.00 1002.00" xmlns="http://www.w3.org/2000/svg" xmlns:xlink="http://www.w3.org/1999/xlink">
<g id="graph0" class="graph" transform="scale(1 1) rotate(0) translate(4 998)">
<title>Control&#45;flow graph for function &#39;mbedtls_aes_crypt_ecb(a1, a2, a3, a4)&#39;.</title>
<polygon fill="white" stroke="none" points="-4,4 -4,-998 947,-998 947,4 -4,4"/>
<text text-anchor="middle" x="471.5" y="-7.8" font-family="Times,serif" font-size="14.00">Control&#45;flow graph for function &#39;mbedtls_aes_crypt_ecb(a1, a2, a3, a4)&#39;.</text>
<!-- Node0xf024e30 -->
<g id="node1" class="node"><title>Node0xf024e30</title>
<polygon fill="none" stroke="black" points="314.5,-910.5 314.5,-993.5 373.5,-993.5 373.5,-910.5 314.5,-910.5"/>
<text text-anchor="start" x="322.5" y="-978.3" font-family="Times,serif" font-size="14.00">entry:</text>
<text text-anchor="start" x="322.5" y="-963.3" font-family="Times,serif" font-size="14.00"> a1</text>
<text text-anchor="start" x="322.5" y="-948.3" font-family="Times,serif" font-size="14.00"> a2</text>
<text text-anchor="start" x="322.5" y="-933.3" font-family="Times,serif" font-size="14.00"> a3</text>
<text text-anchor="start" x="322.5" y="-918.3" font-family="Times,serif" font-size="14.00"> a4</text>
</g>
<!-- Node0xf024230 -->
<g id="node2" class="node"><title>Node0xf024230</title>
<polygon fill="none" stroke="black" points="305.5,-759.5 305.5,-872.5 382.5,-872.5 382.5,-759.5 305.5,-759.5"/>
<text text-anchor="start" x="313.5" y="-857.3" font-family="Times,serif" font-size="14.00">v1 = g3</text>
<text text-anchor="start" x="313.5" y="-842.3" font-family="Times,serif" font-size="14.00"> v2 = g7</text>
<text text-anchor="start" x="313.5" y="-827.3" font-family="Times,serif" font-size="14.00"> g3 = a1</text>
<text text-anchor="start" x="313.5" y="-812.3" font-family="Times,serif" font-size="14.00"> v3 = g5</text>
<text text-anchor="start" x="313.5" y="-797.3" font-family="Times,serif" font-size="14.00"> g7 = a3</text>
<text text-anchor="start" x="313.5" y="-782.3" font-family="Times,serif" font-size="14.00"> g5 = a4</text>
<text text-anchor="start" x="313.5" y="-767.3" font-family="Times,serif" font-size="14.00"> v4</text>
</g>
<!-- Node0xf024e30&#45;&gt;Node0xf024230 -->
<g id="edge1" class="edge"><title>Node0xf024e30&#45;&gt;Node0xf024230</title>
<path fill="none" stroke="black" d="M344,-910.432C344,-901.72 344,-892.299 344,-882.906"/>
<polygon fill="black" stroke="black" points="347.5,-882.759 344,-872.759 340.5,-882.759 347.5,-882.759"/>
</g>
<!-- Node0x10592700 -->
<g id="node3" class="node"><title>Node0x10592700</title>
<polygon fill="none" stroke="black" points="282,-683.5 282,-721.5 406,-721.5 406,-683.5 282,-683.5"/>
<text text-anchor="start" x="290" y="-706.3" font-family="Times,serif" font-size="14.00">if (g190 == 0):</text>
<text text-anchor="start" x="290" y="-691.3" font-family="Times,serif" font-size="14.00"> else:</text>
</g>
<!-- Node0xf024230&#45;&gt;Node0x10592700 -->
<g id="edge2" class="edge"><title>Node0xf024230&#45;&gt;Node0x10592700</title>
<path fill="none" stroke="black" d="M344,-759.25C344,-749.862 344,-740.474 344,-732.151"/>
<polygon fill="black" stroke="black" points="347.5,-731.912 344,-721.912 340.5,-731.912 347.5,-731.912"/>
</g>
<!-- Node0x10590ed0 -->
<g id="node4" class="node"><title>Node0x10590ed0</title>
<polygon fill="none" stroke="black" points="66,-578.5 66,-631.5 326,-631.5 326,-578.5 66,-578.5"/>
<text text-anchor="start" x="74" y="-616.3" font-family="Times,serif" font-size="14.00">v5 = IntToPtrCastExpr&lt;ptr&gt;(a1)</text>
<text text-anchor="start" x="74" y="-601.3" font-family="Times,serif" font-size="14.00"> v6 = IntToPtrCastExpr&lt;ptr&gt;(a3)</text>
<text text-anchor="start" x="74" y="-586.3" font-family="Times,serif" font-size="14.00"> v7 = IntToPtrCastExpr&lt;ptr&gt;(a4)</text>
</g>
<!-- Node0x10592700&#45;&gt;Node0x10590ed0 -->
<g id="edge3" class="edge"><title>Node0x10592700&#45;&gt;Node0x10590ed0</title>
<path fill="none" stroke="black" d="M315.814,-683.312C295.571,-670.25 267.788,-652.323 244.072,-637.02"/>
<polygon fill="black" stroke="black" points="245.841,-633.995 235.541,-631.514 242.045,-639.877 245.841,-633.995"/>
<text text-anchor="middle" x="323.5" y="-653.8" font-family="Times,serif" font-size="14.00">g190 == 0</text>
</g>
<!-- Node0x10592640 -->
<g id="node5" class="node"><title>Node0x10592640</title>
<polygon fill="none" stroke="black" points="63,-521.5 63,-559.5 943,-559.5 943,-521.5 63,-521.5"/>
<text text-anchor="start" x="71" y="-544.3" font-family="Times,serif" font-size="14.00">0x804a428:</text>
<text text-anchor="start" x="71" y="-529.3" font-family="Times,serif" font-size="14.00"> mbedtls_padlock_xcryptecb(IntToPtrCastExpr&lt;ptr&gt;(a1), a2, IntToPtrCastExpr&lt;ptr&gt;(a3), IntToPtrCastExpr&lt;ptr&gt;(a4))</text>
</g>
<!-- Node0x10592700&#45;&gt;Node0x10592640 -->
<g id="edge4" class="edge"><title>Node0x10592700&#45;&gt;Node0x10592640</title>
<path fill="none" stroke="black" d="M361.93,-683.457C390.201,-655.008 445.237,-599.627 477.576,-567.083"/>
<polygon fill="black" stroke="black" points="480.325,-569.283 484.891,-559.723 475.36,-564.349 480.325,-569.283"/>
<text text-anchor="middle" x="429.5" y="-653.8" font-family="Times,serif" font-size="14.00">g190 != 0</text>
</g>
<!-- Node0xf0266f0 -->
<g id="node6" class="node"><title>Node0xf0266f0</title>
<polygon fill="none" stroke="black" points="67.5,-466.5 67.5,-502.5 172.5,-502.5 172.5,-466.5 67.5,-466.5"/>
<text text-anchor="start" x="75.5" y="-480.8" font-family="Times,serif" font-size="14.00">if (a2 == 1):</text>
</g>
<!-- Node0x10590ed0&#45;&gt;Node0xf0266f0 -->
<g id="edge5" class="edge"><title>Node0x10590ed0&#45;&gt;Node0xf0266f0</title>
<path fill="none" stroke="black" d="M80.9566,-578.393C73.7133,-573.308 67.242,-567.239 62,-560 51.8335,-545.961 53.5265,-536.121 62,-521 64.5322,-516.481 67.9,-512.469 71.7428,-508.922"/>
<polygon fill="black" stroke="black" points="73.969,-511.623 79.623,-502.663 69.6155,-506.142 73.969,-511.623"/>
</g>
<!-- Node0x10592760 -->
<g id="node7" class="node"><title>Node0x10592760</title>
<polygon fill="none" stroke="black" points="224.5,-97.5 224.5,-210.5 325.5,-210.5 325.5,-97.5 224.5,-97.5"/>
<text text-anchor="start" x="232.5" y="-195.3" font-family="Times,serif" font-size="14.00">0x804a419:</text>
<text text-anchor="start" x="232.5" y="-180.3" font-family="Times,serif" font-size="14.00"> g3 = v1</text>
<text text-anchor="start" x="232.5" y="-165.3" font-family="Times,serif" font-size="14.00"> g1 = 0</text>
<text text-anchor="start" x="232.5" y="-150.3" font-family="Times,serif" font-size="14.00"> g7 = v2</text>
<text text-anchor="start" x="232.5" y="-135.3" font-family="Times,serif" font-size="14.00"> g5 = v3</text>
<text text-anchor="start" x="232.5" y="-120.3" font-family="Times,serif" font-size="14.00"> g2 = v4</text>
<text text-anchor="start" x="232.5" y="-105.3" font-family="Times,serif" font-size="14.00"> return 0</text>
</g>
<!-- Node0x10592640&#45;&gt;Node0x10592760 -->
<g id="edge6" class="edge"><title>Node0x10592640&#45;&gt;Node0x10592760</title>
<path fill="none" stroke="black" d="M493.02,-521.222C476.375,-490.861 441.735,-428.206 411,-376 379.716,-322.862 343.006,-263.369 315.617,-219.507"/>
<polygon fill="black" stroke="black" points="318.536,-217.574 310.267,-210.95 312.6,-221.285 318.536,-217.574"/>
</g>
<!-- Node0x105926a0 -->
<g id="node8" class="node"><title>Node0x105926a0</title>
<polygon fill="none" stroke="black" points="0,-229.5 0,-357.5 254,-357.5 254,-229.5 0,-229.5"/>
<text text-anchor="start" x="8" y="-342.3" font-family="Times,serif" font-size="14.00">0x804a450:</text>
<text text-anchor="start" x="8" y="-327.3" font-family="Times,serif" font-size="14.00"> mbedtls_aes_encrypt(v5, v6, v7)</text>
<text text-anchor="start" x="8" y="-312.3" font-family="Times,serif" font-size="14.00"> g3 = v1</text>
<text text-anchor="start" x="8" y="-297.3" font-family="Times,serif" font-size="14.00"> g1 = 0</text>
<text text-anchor="start" x="8" y="-282.3" font-family="Times,serif" font-size="14.00"> g7 = v2</text>
<text text-anchor="start" x="8" y="-267.3" font-family="Times,serif" font-size="14.00"> g5 = v3</text>
<text text-anchor="start" x="8" y="-252.3" font-family="Times,serif" font-size="14.00"> g2 = v4</text>
<text text-anchor="start" x="8" y="-237.3" font-family="Times,serif" font-size="14.00"> return 0</text>
</g>
<!-- Node0xf0266f0&#45;&gt;Node0x105926a0 -->
<g id="edge7" class="edge"><title>Node0xf0266f0&#45;&gt;Node0x105926a0</title>
<path fill="none" stroke="black" d="M119.784,-466.202C119.717,-456.449 119.721,-444.043 120,-433 120.535,-411.799 121.531,-388.791 122.607,-367.728"/>
<polygon fill="black" stroke="black" points="126.112,-367.731 123.14,-357.561 119.121,-367.364 126.112,-367.731"/>
<text text-anchor="middle" x="150" y="-436.8" font-family="Times,serif" font-size="14.00">a2 == 1</text>
</g>
<!-- Node0xf026840 -->
<g id="node9" class="node"><title>Node0xf026840</title>
<polygon fill="none" stroke="black" points="148,-376.5 148,-414.5 402,-414.5 402,-376.5 148,-376.5"/>
<text text-anchor="start" x="156" y="-399.3" font-family="Times,serif" font-size="14.00">0x804a409:</text>
<text text-anchor="start" x="156" y="-384.3" font-family="Times,serif" font-size="14.00"> mbedtls_aes_decrypt(v5, v6, v7)</text>
</g>
<!-- Node0xf0266f0&#45;&gt;Node0xf026840 -->
<g id="edge8" class="edge"><title>Node0xf0266f0&#45;&gt;Node0xf026840</title>
<path fill="none" stroke="black" d="M150.955,-466.4C161.455,-460.58 173.248,-454.024 184,-448 200.416,-438.802 218.457,-428.61 234.117,-419.736"/>
<polygon fill="black" stroke="black" points="236.059,-422.658 243.031,-414.681 232.606,-416.569 236.059,-422.658"/>
<text text-anchor="middle" x="237" y="-436.8" font-family="Times,serif" font-size="14.00">a2 != 1</text>
</g>
<!-- Node0x13d79af0 -->
<g id="node10" class="node"><title>Node0x13d79af0</title>
<polygon fill="none" stroke="black" points="169,-23.5 169,-59.5 223,-59.5 223,-23.5 169,-23.5"/>
<text text-anchor="start" x="177" y="-37.8" font-family="Times,serif" font-size="14.00">exit:</text>
</g>
<!-- Node0x10592760&#45;&gt;Node0x13d79af0 -->
<g id="edge9" class="edge"><title>Node0x10592760&#45;&gt;Node0x13d79af0</title>
<path fill="none" stroke="black" d="M235.269,-97.4263C227.891,-87.1075 220.525,-76.8038 214.199,-67.955"/>
<polygon fill="black" stroke="black" points="216.92,-65.7437 208.257,-59.6444 211.226,-69.8148 216.92,-65.7437"/>
</g>
<!-- Node0x105926a0&#45;&gt;Node0x13d79af0 -->
<g id="edge10" class="edge"><title>Node0x105926a0&#45;&gt;Node0x13d79af0</title>
<path fill="none" stroke="black" d="M144.412,-229.414C158.644,-177.849 178.066,-107.478 188.552,-69.4858"/>
<polygon fill="black" stroke="black" points="191.974,-70.242 191.261,-59.6712 185.226,-68.3796 191.974,-70.242"/>
</g>
<!-- Node0xf026840&#45;&gt;Node0x10592760 -->
<g id="edge11" class="edge"><title>Node0xf026840&#45;&gt;Node0x10592760</title>
<path fill="none" stroke="black" d="M275,-376.499C275,-343.914 275,-273.647 275,-220.939"/>
<polygon fill="black" stroke="black" points="278.5,-220.648 275,-210.648 271.5,-220.648 278.5,-220.648"/>
</g>
</g>
</svg>
