<?xml version="1.0" encoding="UTF-8" standalone="no"?>
<!DOCTYPE svg PUBLIC "-//W3C//DTD SVG 1.1//EN"
 "http://www.w3.org/Graphics/SVG/1.1/DTD/svg11.dtd">
<!-- Generated by graphviz version 2.38.0 (20140413.2041)
 -->
<!-- Title: Control&#45;flow graph for function &#39;mbedtls_gcm_setkey(a1, a2, a3, a4)&#39;. Pages: 1 -->
<svg width="1085pt" height="999pt"
 viewBox="0.00 0.00 1085.00 999.00" xmlns="http://www.w3.org/2000/svg" xmlns:xlink="http://www.w3.org/1999/xlink">
<g id="graph0" class="graph" transform="scale(1 1) rotate(0) translate(4 995)">
<title>Control&#45;flow graph for function &#39;mbedtls_gcm_setkey(a1, a2, a3, a4)&#39;.</title>
<polygon fill="white" stroke="none" points="-4,4 -4,-995 1081,-995 1081,4 -4,4"/>
<text text-anchor="middle" x="538.5" y="-7.8" font-family="Times,serif" font-size="14.00">Control&#45;flow graph for function &#39;mbedtls_gcm_setkey(a1, a2, a3, a4)&#39;.</text>
<!-- Node0x18ce5ec0 -->
<g id="node1" class="node"><title>Node0x18ce5ec0</title>
<polygon fill="none" stroke="black" points="862,-907.5 862,-990.5 921,-990.5 921,-907.5 862,-907.5"/>
<text text-anchor="start" x="870" y="-975.3" font-family="Times,serif" font-size="14.00">entry:</text>
<text text-anchor="start" x="870" y="-960.3" font-family="Times,serif" font-size="14.00"> a1</text>
<text text-anchor="start" x="870" y="-945.3" font-family="Times,serif" font-size="14.00"> a2</text>
<text text-anchor="start" x="870" y="-930.3" font-family="Times,serif" font-size="14.00"> a3</text>
<text text-anchor="start" x="870" y="-915.3" font-family="Times,serif" font-size="14.00"> a4</text>
</g>
<!-- Node0x14ff6070 -->
<g id="node2" class="node"><title>Node0x14ff6070</title>
<polygon fill="none" stroke="black" points="706,-741.5 706,-869.5 1077,-869.5 1077,-741.5 706,-741.5"/>
<text text-anchor="start" x="714" y="-854.3" font-family="Times,serif" font-size="14.00">v1</text>
<text text-anchor="start" x="714" y="-839.3" font-family="Times,serif" font-size="14.00"> g2 = &amp;(v1)</text>
<text text-anchor="start" x="714" y="-824.3" font-family="Times,serif" font-size="14.00"> v2 = g7</text>
<text text-anchor="start" x="714" y="-809.3" font-family="Times,serif" font-size="14.00"> g7 = a4</text>
<text text-anchor="start" x="714" y="-794.3" font-family="Times,serif" font-size="14.00"> v3 = g3</text>
<text text-anchor="start" x="714" y="-779.3" font-family="Times,serif" font-size="14.00"> g3 = a1</text>
<text text-anchor="start" x="714" y="-764.3" font-family="Times,serif" font-size="14.00"> v4 = mbedtls_cipher_info_from_values(a2, a4, 1)</text>
<text text-anchor="start" x="714" y="-749.3" font-family="Times,serif" font-size="14.00"> g1 = v4</text>
</g>
<!-- Node0x18ce5ec0&#45;&gt;Node0x14ff6070 -->
<g id="edge1" class="edge"><title>Node0x18ce5ec0&#45;&gt;Node0x14ff6070</title>
<path fill="none" stroke="black" d="M891.5,-907.452C891.5,-898.816 891.5,-889.44 891.5,-880"/>
<polygon fill="black" stroke="black" points="895,-879.762 891.5,-869.762 888,-879.762 895,-879.762"/>
</g>
<!-- Node0x18ce56b0 -->
<g id="node3" class="node"><title>Node0x18ce56b0</title>
<polygon fill="none" stroke="black" points="842,-667.5 842,-703.5 941,-703.5 941,-667.5 842,-667.5"/>
<text text-anchor="start" x="850" y="-681.8" font-family="Times,serif" font-size="14.00">if (v4 != 0):</text>
</g>
<!-- Node0x14ff6070&#45;&gt;Node0x18ce56b0 -->
<g id="edge2" class="edge"><title>Node0x14ff6070&#45;&gt;Node0x18ce56b0</title>
<path fill="none" stroke="black" d="M891.5,-741.355C891.5,-731.753 891.5,-722.299 891.5,-714.016"/>
<polygon fill="black" stroke="black" points="895,-713.887 891.5,-703.888 888,-713.888 895,-713.887"/>
</g>
<!-- Node0x18ce12e0 -->
<g id="node4" class="node"><title>Node0x18ce12e0</title>
<polygon fill="none" stroke="black" points="460.5,-577.5 460.5,-615.5 830.5,-615.5 830.5,-577.5 460.5,-577.5"/>
<text text-anchor="start" x="468.5" y="-600.3" font-family="Times,serif" font-size="14.00">0x806cac8:</text>
<text text-anchor="start" x="468.5" y="-585.3" font-family="Times,serif" font-size="14.00"> if (*(IntToPtrCastExpr&lt;ptr&gt;((v4 + 24))) == 16):</text>
</g>
<!-- Node0x18ce56b0&#45;&gt;Node0x18ce12e0 -->
<g id="edge3" class="edge"><title>Node0x18ce56b0&#45;&gt;Node0x18ce12e0</title>
<path fill="none" stroke="black" d="M843.192,-667.415C803.988,-653.551 748.492,-633.924 706.274,-618.993"/>
<polygon fill="black" stroke="black" points="707.259,-615.629 696.664,-615.595 704.925,-622.229 707.259,-615.629"/>
<text text-anchor="middle" x="818.5" y="-637.8" font-family="Times,serif" font-size="14.00">v4 != 0</text>
</g>
<!-- Node0x14ff8a60 -->
<g id="node5" class="node"><title>Node0x14ff8a60</title>
<polygon fill="none" stroke="black" points="620.5,-427.5 620.5,-525.5 720.5,-525.5 720.5,-427.5 620.5,-427.5"/>
<text text-anchor="start" x="628.5" y="-510.3" font-family="Times,serif" font-size="14.00">0x806cab3:</text>
<text text-anchor="start" x="628.5" y="-495.3" font-family="Times,serif" font-size="14.00"> g1 = &#45;20</text>
<text text-anchor="start" x="628.5" y="-480.3" font-family="Times,serif" font-size="14.00"> g3 = v3</text>
<text text-anchor="start" x="628.5" y="-465.3" font-family="Times,serif" font-size="14.00"> g7 = v2</text>
<text text-anchor="start" x="628.5" y="-450.3" font-family="Times,serif" font-size="14.00"> g2 = v1</text>
<text text-anchor="start" x="628.5" y="-435.3" font-family="Times,serif" font-size="14.00"> return &#45;20</text>
</g>
<!-- Node0x18ce56b0&#45;&gt;Node0x14ff8a60 -->
<g id="edge4" class="edge"><title>Node0x18ce56b0&#45;&gt;Node0x14ff8a60</title>
<path fill="none" stroke="black" d="M911.707,-667.147C941.842,-639.185 991.825,-583.322 960.5,-544 932.316,-508.621 806.966,-490.526 730.589,-482.624"/>
<polygon fill="black" stroke="black" points="730.911,-479.139 720.611,-481.62 730.21,-486.103 730.911,-479.139"/>
<text text-anchor="middle" x="1000.5" y="-592.8" font-family="Times,serif" font-size="14.00">v4 == 0</text>
</g>
<!-- Node0x18ce12e0&#45;&gt;Node0x14ff8a60 -->
<g id="edge6" class="edge"><title>Node0x18ce12e0&#45;&gt;Node0x14ff8a60</title>
<path fill="none" stroke="black" d="M644.415,-577.24C644.186,-567.328 644.483,-554.904 646.5,-544 647.023,-541.171 647.652,-538.303 648.362,-535.426"/>
<polygon fill="black" stroke="black" points="651.771,-536.229 651.057,-525.658 645.023,-534.367 651.771,-536.229"/>
<text text-anchor="middle" x="803.5" y="-547.8" font-family="Times,serif" font-size="14.00">*(IntToPtrCastExpr&lt;ptr&gt;((v4 + 24))) != 16</text>
</g>
<!-- Node0x18ce1dd0 -->
<g id="node6" class="node"><title>Node0x18ce1dd0</title>
<polygon fill="none" stroke="black" points="74.5,-435 74.5,-518 530.5,-518 530.5,-435 74.5,-435"/>
<text text-anchor="start" x="82.5" y="-502.8" font-family="Times,serif" font-size="14.00">0x806cace:</text>
<text text-anchor="start" x="82.5" y="-487.8" font-family="Times,serif" font-size="14.00"> mbedtls_cipher_free(IntToPtrCastExpr&lt;ptr&gt;(g3), a4)</text>
<text text-anchor="start" x="82.5" y="-472.8" font-family="Times,serif" font-size="14.00"> v5 = mbedtls_cipher_setup(IntToPtrCastExpr&lt;ptr&gt;(g3), v4)</text>
<text text-anchor="start" x="82.5" y="-457.8" font-family="Times,serif" font-size="14.00"> g1 = v5</text>
<text text-anchor="start" x="82.5" y="-442.8" font-family="Times,serif" font-size="14.00"> result = v5</text>
</g>
<!-- Node0x18ce12e0&#45;&gt;Node0x18ce1dd0 -->
<g id="edge5" class="edge"><title>Node0x18ce12e0&#45;&gt;Node0x18ce1dd0</title>
<path fill="none" stroke="black" d="M460.451,-583.48C394.308,-577.502 333.105,-569.322 321.5,-559 312.51,-551.004 307.348,-539.652 304.478,-527.953"/>
<polygon fill="black" stroke="black" points="307.91,-527.263 302.573,-518.11 301.037,-528.593 307.91,-527.263"/>
<text text-anchor="middle" x="481.5" y="-547.8" font-family="Times,serif" font-size="14.00">*(IntToPtrCastExpr&lt;ptr&gt;((v4 + 24))) == 16</text>
</g>
<!-- Node0x18ce25b0 -->
<g id="node7" class="node"><title>Node0x18ce25b0</title>
<polygon fill="none" stroke="black" points="615.5,-23.5 615.5,-59.5 669.5,-59.5 669.5,-23.5 615.5,-23.5"/>
<text text-anchor="start" x="623.5" y="-37.8" font-family="Times,serif" font-size="14.00">exit:</text>
</g>
<!-- Node0x14ff8a60&#45;&gt;Node0x18ce25b0 -->
<g id="edge7" class="edge"><title>Node0x14ff8a60&#45;&gt;Node0x18ce25b0</title>
<path fill="none" stroke="black" d="M670.5,-427.292C670.5,-410.01 670.5,-390.382 670.5,-372.5 670.5,-372.5 670.5,-372.5 670.5,-138 670.5,-113.981 662.243,-87.887 654.697,-69.0542"/>
<polygon fill="black" stroke="black" points="657.85,-67.5216 650.749,-59.658 651.396,-70.2331 657.85,-67.5216"/>
</g>
<!-- Node0x18ce30f0 -->
<g id="node8" class="node"><title>Node0x18ce30f0</title>
<polygon fill="none" stroke="black" points="250,-353.5 250,-389.5 355,-389.5 355,-353.5 250,-353.5"/>
<text text-anchor="start" x="258" y="-367.8" font-family="Times,serif" font-size="14.00">if (v5 == 0):</text>
</g>
<!-- Node0x18ce1dd0&#45;&gt;Node0x18ce30f0 -->
<g id="edge8" class="edge"><title>Node0x18ce1dd0&#45;&gt;Node0x18ce30f0</title>
<path fill="none" stroke="black" d="M302.5,-434.792C302.5,-422.983 302.5,-410.382 302.5,-399.625"/>
<polygon fill="black" stroke="black" points="306,-399.581 302.5,-389.581 299,-399.581 306,-399.581"/>
</g>
<!-- Node0x1f20a100 -->
<g id="node9" class="node"><title>Node0x1f20a100</title>
<polygon fill="none" stroke="black" points="0,-218.5 0,-301.5 551,-301.5 551,-218.5 0,-218.5"/>
<text text-anchor="start" x="8" y="-286.3" font-family="Times,serif" font-size="14.00">0x806caec:</text>
<text text-anchor="start" x="8" y="-271.3" font-family="Times,serif" font-size="14.00"> v6</text>
<text text-anchor="start" x="8" y="-256.3" font-family="Times,serif" font-size="14.00"> mbedtls_cipher_setkey(IntToPtrCastExpr&lt;ptr&gt;(g3), a3, g7, 1, v6, 0, 0, 0)</text>
<text text-anchor="start" x="8" y="-241.3" font-family="Times,serif" font-size="14.00"> g1 = &#45;24832</text>
<text text-anchor="start" x="8" y="-226.3" font-family="Times,serif" font-size="14.00"> result = &#45;24832</text>
</g>
<!-- Node0x18ce30f0&#45;&gt;Node0x1f20a100 -->
<g id="edge9" class="edge"><title>Node0x18ce30f0&#45;&gt;Node0x1f20a100</title>
<path fill="none" stroke="black" d="M298.281,-353.391C295.483,-342.042 291.653,-326.511 287.933,-311.422"/>
<polygon fill="black" stroke="black" points="291.308,-310.489 285.515,-301.618 284.511,-312.165 291.308,-310.489"/>
<text text-anchor="middle" x="323.5" y="-323.8" font-family="Times,serif" font-size="14.00">v5 == 0</text>
</g>
<!-- Node0x27af4730 -->
<g id="node10" class="node"><title>Node0x27af4730</title>
<polygon fill="none" stroke="black" points="529,-97.5 529,-180.5 642,-180.5 642,-97.5 529,-97.5"/>
<text text-anchor="start" x="537" y="-165.3" font-family="Times,serif" font-size="14.00">0x806cab8:</text>
<text text-anchor="start" x="537" y="-150.3" font-family="Times,serif" font-size="14.00"> g3 = v3</text>
<text text-anchor="start" x="537" y="-135.3" font-family="Times,serif" font-size="14.00"> g7 = v2</text>
<text text-anchor="start" x="537" y="-120.3" font-family="Times,serif" font-size="14.00"> g2 = v1</text>
<text text-anchor="start" x="537" y="-105.3" font-family="Times,serif" font-size="14.00"> return result</text>
</g>
<!-- Node0x18ce30f0&#45;&gt;Node0x27af4730 -->
<g id="edge10" class="edge"><title>Node0x18ce30f0&#45;&gt;Node0x27af4730</title>
<path fill="none" stroke="black" d="M355.27,-363.271C422.263,-352.982 532.414,-331.98 559.5,-302 586.352,-272.278 591.55,-226.329 590.78,-190.948"/>
<polygon fill="black" stroke="black" points="594.272,-190.664 590.393,-180.805 587.277,-190.931 594.272,-190.664"/>
<text text-anchor="middle" x="617.5" y="-256.3" font-family="Times,serif" font-size="14.00">v5 != 0</text>
</g>
<!-- Node0x1f20a100&#45;&gt;Node0x27af4730 -->
<g id="edge11" class="edge"><title>Node0x1f20a100&#45;&gt;Node0x27af4730</title>
<path fill="none" stroke="black" d="M381.317,-218.38C427.109,-200.802 479.29,-180.771 519.438,-165.359"/>
<polygon fill="black" stroke="black" points="520.771,-168.597 528.853,-161.745 518.262,-162.062 520.771,-168.597"/>
</g>
<!-- Node0x27af4730&#45;&gt;Node0x18ce25b0 -->
<g id="edge12" class="edge"><title>Node0x27af4730&#45;&gt;Node0x18ce25b0</title>
<path fill="none" stroke="black" d="M609.673,-97.4994C615.528,-87.6895 621.633,-77.4616 626.967,-68.5242"/>
<polygon fill="black" stroke="black" points="630.085,-70.13 632.205,-59.7494 624.074,-66.5424 630.085,-70.13"/>
</g>
</g>
</svg>
