<?xml version="1.0" encoding="UTF-8" standalone="no"?>
<!DOCTYPE svg PUBLIC "-//W3C//DTD SVG 1.1//EN"
 "http://www.w3.org/Graphics/SVG/1.1/DTD/svg11.dtd">
<!-- Generated by graphviz version 2.38.0 (20140413.2041)
 -->
<!-- Title: Control&#45;flow graph for function &#39;mbedtls_oid_get_md_alg(a1, *a2)&#39;. Pages: 1 -->
<svg width="1257pt" height="1361pt"
 viewBox="0.00 0.00 1256.50 1361.00" xmlns="http://www.w3.org/2000/svg" xmlns:xlink="http://www.w3.org/1999/xlink">
<g id="graph0" class="graph" transform="scale(1 1) rotate(0) translate(4 1357)">
<title>Control&#45;flow graph for function &#39;mbedtls_oid_get_md_alg(a1, *a2)&#39;.</title>
<polygon fill="white" stroke="none" points="-4,4 -4,-1357 1252.5,-1357 1252.5,4 -4,4"/>
<text text-anchor="middle" x="624.25" y="-7.8" font-family="Times,serif" font-size="14.00">Control&#45;flow graph for function &#39;mbedtls_oid_get_md_alg(a1, *a2)&#39;.</text>
<!-- Node0x9c76da0 -->
<g id="node1" class="node"><title>Node0x9c76da0</title>
<polygon fill="none" stroke="black" points="271,-1299.5 271,-1352.5 330,-1352.5 330,-1299.5 271,-1299.5"/>
<text text-anchor="start" x="279" y="-1337.3" font-family="Times,serif" font-size="14.00">entry:</text>
<text text-anchor="start" x="279" y="-1322.3" font-family="Times,serif" font-size="14.00"> a1</text>
<text text-anchor="start" x="279" y="-1307.3" font-family="Times,serif" font-size="14.00"> a2</text>
</g>
<!-- Node0xd75ea90 -->
<g id="node2" class="node"><title>Node0xd75ea90</title>
<polygon fill="none" stroke="black" points="250,-1208.5 250,-1261.5 351,-1261.5 351,-1208.5 250,-1208.5"/>
<text text-anchor="start" x="258" y="-1246.3" font-family="Times,serif" font-size="14.00">0x80631d0:</text>
<text text-anchor="start" x="258" y="-1231.3" font-family="Times,serif" font-size="14.00"> g4 = a1</text>
<text text-anchor="start" x="258" y="-1216.3" font-family="Times,serif" font-size="14.00"> v1 = g3</text>
</g>
<!-- Node0x9c76da0&#45;&gt;Node0xd75ea90 -->
<g id="edge1" class="edge"><title>Node0x9c76da0&#45;&gt;Node0xd75ea90</title>
<path fill="none" stroke="black" d="M300.5,-1299.26C300.5,-1290.68 300.5,-1280.96 300.5,-1271.76"/>
<polygon fill="black" stroke="black" points="304,-1271.68 300.5,-1261.68 297,-1271.68 304,-1271.68"/>
</g>
<!-- Node0x9c79500 -->
<g id="node3" class="node"><title>Node0x9c79500</title>
<polygon fill="none" stroke="black" points="248,-1134.5 248,-1170.5 353,-1170.5 353,-1134.5 248,-1134.5"/>
<text text-anchor="start" x="256" y="-1148.8" font-family="Times,serif" font-size="14.00">if (a1 == 0):</text>
</g>
<!-- Node0xd75ea90&#45;&gt;Node0x9c79500 -->
<g id="edge2" class="edge"><title>Node0xd75ea90&#45;&gt;Node0x9c79500</title>
<path fill="none" stroke="black" d="M300.5,-1208.09C300.5,-1199.46 300.5,-1189.82 300.5,-1181.07"/>
<polygon fill="black" stroke="black" points="304,-1180.97 300.5,-1170.97 297,-1180.97 304,-1180.97"/>
</g>
<!-- Node0xaa2b960 -->
<g id="node4" class="node"><title>Node0xaa2b960</title>
<polygon fill="none" stroke="black" points="0,-927.5 0,-980.5 101,-980.5 101,-927.5 0,-927.5"/>
<text text-anchor="start" x="8" y="-965.3" font-family="Times,serif" font-size="14.00">0x8063230:</text>
<text text-anchor="start" x="8" y="-950.3" font-family="Times,serif" font-size="14.00"> g3 = v1</text>
<text text-anchor="start" x="8" y="-935.3" font-family="Times,serif" font-size="14.00"> return &#45;46</text>
</g>
<!-- Node0x9c79500&#45;&gt;Node0xaa2b960 -->
<g id="edge3" class="edge"><title>Node0x9c79500&#45;&gt;Node0xaa2b960</title>
<path fill="none" stroke="black" d="M278.751,-1134.41C236.943,-1101.54 144.767,-1029.09 91.2187,-987.005"/>
<polygon fill="black" stroke="black" points="93.3145,-984.2 83.2895,-980.773 88.9887,-989.704 93.3145,-984.2"/>
<text text-anchor="middle" x="285.5" y="-1104.8" font-family="Times,serif" font-size="14.00">a1 == 0</text>
</g>
<!-- Node0xaa2b9c0 -->
<g id="node5" class="node"><title>Node0xaa2b9c0</title>
<polygon fill="none" stroke="black" points="627.5,-999.5 627.5,-1082.5 945.5,-1082.5 945.5,-999.5 627.5,-999.5"/>
<text text-anchor="start" x="635.5" y="-1067.3" font-family="Times,serif" font-size="14.00">n = *(IntToPtrCastExpr&lt;ptr&gt;((a1 + 4)))</text>
<text text-anchor="start" x="635.5" y="-1052.3" font-family="Times,serif" font-size="14.00"> g6 = n</text>
<text text-anchor="start" x="635.5" y="-1037.3" font-family="Times,serif" font-size="14.00"> v2 = PtrToIntCastExpr&lt;int32&gt;(&amp;(g111))</text>
<text text-anchor="start" x="635.5" y="-1022.3" font-family="Times,serif" font-size="14.00"> str = &amp;(g105)</text>
<text text-anchor="start" x="635.5" y="-1007.3" font-family="Times,serif" font-size="14.00"> v3 = PtrToIntCastExpr&lt;int32&gt;(&amp;(g111))</text>
</g>
<!-- Node0x9c79500&#45;&gt;Node0xaa2b9c0 -->
<g id="edge4" class="edge"><title>Node0x9c79500&#45;&gt;Node0xaa2b9c0</title>
<path fill="none" stroke="black" d="M353.436,-1139.57C416.521,-1125.36 525.042,-1100.91 617.664,-1080.04"/>
<polygon fill="black" stroke="black" points="618.449,-1083.45 627.435,-1077.84 616.91,-1076.62 618.449,-1083.45"/>
<text text-anchor="middle" x="541.5" y="-1104.8" font-family="Times,serif" font-size="14.00">a1 != 0</text>
</g>
<!-- Node0x9c78c80 -->
<g id="node6" class="node"><title>Node0x9c78c80</title>
<polygon fill="none" stroke="black" points="469.5,-23.5 469.5,-59.5 523.5,-59.5 523.5,-23.5 469.5,-23.5"/>
<text text-anchor="start" x="477.5" y="-37.8" font-family="Times,serif" font-size="14.00">exit:</text>
</g>
<!-- Node0xaa2b960&#45;&gt;Node0x9c78c80 -->
<g id="edge5" class="edge"><title>Node0xaa2b960&#45;&gt;Node0x9c78c80</title>
<path fill="none" stroke="black" d="M32.3196,-927.462C19.4618,-906.885 4.5,-876.673 4.5,-847.5 4.5,-847.5 4.5,-847.5 4.5,-138 4.5,-45.3965 344.636,-40.7637 459.286,-41.8325"/>
<polygon fill="black" stroke="black" points="459.308,-45.3329 469.347,-41.9467 459.388,-38.3333 459.308,-45.3329"/>
</g>
<!-- Node0xaa2bbb0 -->
<g id="node7" class="node"><title>Node0xaa2bbb0</title>
<polygon fill="none" stroke="black" points="853,-872.5 853,-908.5 950,-908.5 950,-872.5 853,-872.5"/>
<text text-anchor="start" x="861" y="-886.8" font-family="Times,serif" font-size="14.00">while True:</text>
</g>
<!-- Node0xaa2b9c0&#45;&gt;Node0xaa2bbb0 -->
<g id="edge6" class="edge"><title>Node0xaa2b9c0&#45;&gt;Node0xaa2bbb0</title>
<path fill="none" stroke="black" d="M817.924,-999.422C838.328,-973.075 864.288,-939.552 881.82,-916.913"/>
<polygon fill="black" stroke="black" points="884.741,-918.857 888.097,-908.807 879.207,-914.571 884.741,-918.857"/>
</g>
<!-- Node0xaa2be60 -->
<g id="node8" class="node"><title>Node0xaa2be60</title>
<polygon fill="none" stroke="black" points="865.5,-784.5 865.5,-820.5 937.5,-820.5 937.5,-784.5 865.5,-784.5"/>
<text text-anchor="start" x="873.5" y="-798.8" font-family="Times,serif" font-size="14.00">v4 = v3</text>
</g>
<!-- Node0xaa2bbb0&#45;&gt;Node0xaa2be60 -->
<g id="edge7" class="edge"><title>Node0xaa2bbb0&#45;&gt;Node0xaa2be60</title>
<path fill="none" stroke="black" d="M901.5,-872.097C901.5,-860.246 901.5,-844.317 901.5,-830.792"/>
<polygon fill="black" stroke="black" points="905,-830.584 901.5,-820.584 898,-830.584 905,-830.584"/>
<text text-anchor="middle" x="918.5" y="-842.8" font-family="Times,serif" font-size="14.00">True</text>
</g>
<!-- Node0xaa2bee0 -->
<g id="node9" class="node"><title>Node0xaa2bee0</title>
<polygon fill="none" stroke="black" points="728,-710.5 728,-746.5 1075,-746.5 1075,-710.5 728,-710.5"/>
<text text-anchor="start" x="736" y="-724.8" font-family="Times,serif" font-size="14.00">if (n == *(IntToPtrCastExpr&lt;ptr&gt;((v3 + 4)))):</text>
</g>
<!-- Node0xaa2be60&#45;&gt;Node0xaa2bee0 -->
<g id="edge8" class="edge"><title>Node0xaa2be60&#45;&gt;Node0xaa2bee0</title>
<path fill="none" stroke="black" d="M901.5,-784.437C901.5,-776.307 901.5,-766.376 901.5,-757.205"/>
<polygon fill="black" stroke="black" points="905,-756.941 901.5,-746.941 898,-756.941 905,-756.941"/>
</g>
<!-- Node0xaa2bd40 -->
<g id="node10" class="node"><title>Node0xaa2bd40</title>
<polygon fill="none" stroke="black" points="32,-590.5 32,-658.5 897,-658.5 897,-590.5 32,-590.5"/>
<text text-anchor="start" x="40" y="-643.3" font-family="Times,serif" font-size="14.00">strncmp_rc = strncmp(IntToPtrCastExpr&lt;ptr&gt;(str), IntToPtrCastExpr&lt;ptr&gt;(*(IntToPtrCastExpr&lt;ptr&gt;((a1 + 8)))), n)</text>
<text text-anchor="start" x="40" y="-628.3" font-family="Times,serif" font-size="14.00"> g4 = strncmp_rc</text>
<text text-anchor="start" x="40" y="-613.3" font-family="Times,serif" font-size="14.00"> g237 = ((strncmp_rc % 2) == 0)</text>
<text text-anchor="start" x="40" y="-598.3" font-family="Times,serif" font-size="14.00"> v5 = v2</text>
</g>
<!-- Node0xaa2bee0&#45;&gt;Node0xaa2bd40 -->
<g id="edge9" class="edge"><title>Node0xaa2bee0&#45;&gt;Node0xaa2bd40</title>
<path fill="none" stroke="black" d="M727.746,-715.506C688.085,-710.279 646.455,-702.775 608.5,-692 583.36,-684.863 557.07,-673.879 533.937,-662.881"/>
<polygon fill="black" stroke="black" points="535.428,-659.714 524.902,-658.509 532.379,-666.015 535.428,-659.714"/>
<text text-anchor="middle" x="759.5" y="-680.8" font-family="Times,serif" font-size="14.00">n == *(IntToPtrCastExpr&lt;ptr&gt;((v3 + 4)))</text>
</g>
<!-- Node0xaa2c350 -->
<g id="node11" class="node"><title>Node0xaa2c350</title>
<polygon fill="none" stroke="black" points="763.5,-308.5 763.5,-376.5 1041.5,-376.5 1041.5,-308.5 763.5,-308.5"/>
<text text-anchor="start" x="771.5" y="-361.3" font-family="Times,serif" font-size="14.00">v7 = (v4 + 20)</text>
<text text-anchor="start" x="771.5" y="-346.3" font-family="Times,serif" font-size="14.00"> v2 = v7</text>
<text text-anchor="start" x="771.5" y="-331.3" font-family="Times,serif" font-size="14.00"> v8 = *(IntToPtrCastExpr&lt;ptr&gt;(v7))</text>
<text text-anchor="start" x="771.5" y="-316.3" font-family="Times,serif" font-size="14.00"> g4 = v7</text>
</g>
<!-- Node0xaa2bee0&#45;&gt;Node0xaa2c350 -->
<g id="edge10" class="edge"><title>Node0xaa2bee0&#45;&gt;Node0xaa2c350</title>
<path fill="none" stroke="black" d="M907.785,-710.439C914.595,-690.394 924.5,-655.997 924.5,-625.5 924.5,-625.5 924.5,-625.5 924.5,-445.5 924.5,-425.782 920.523,-404.393 915.951,-386.318"/>
<polygon fill="black" stroke="black" points="919.331,-385.408 913.371,-376.648 912.567,-387.213 919.331,-385.408"/>
<text text-anchor="middle" x="1072.5" y="-530.8" font-family="Times,serif" font-size="14.00">n != *(IntToPtrCastExpr&lt;ptr&gt;((v3 + 4)))</text>
</g>
<!-- Node0xaa2c7b0 -->
<g id="node12" class="node"><title>Node0xaa2c7b0</title>
<polygon fill="none" stroke="black" points="421.5,-516.5 421.5,-552.5 633.5,-552.5 633.5,-516.5 421.5,-516.5"/>
<text text-anchor="start" x="429.5" y="-530.8" font-family="Times,serif" font-size="14.00">if ((strncmp_rc % 2) == 0):</text>
</g>
<!-- Node0xaa2bd40&#45;&gt;Node0xaa2c7b0 -->
<g id="edge11" class="edge"><title>Node0xaa2bd40&#45;&gt;Node0xaa2c7b0</title>
<path fill="none" stroke="black" d="M488.138,-590.482C495.123,-580.725 502.66,-570.198 509.25,-560.993"/>
<polygon fill="black" stroke="black" points="512.254,-562.809 515.229,-552.64 506.562,-558.734 512.254,-562.809"/>
</g>
<!-- Node0xaa2c3b0 -->
<g id="node13" class="node"><title>Node0xaa2c3b0</title>
<polygon fill="none" stroke="black" points="850,-233.5 850,-269.5 955,-269.5 955,-233.5 850,-233.5"/>
<text text-anchor="start" x="858" y="-247.8" font-family="Times,serif" font-size="14.00">if (v8 == 0):</text>
</g>
<!-- Node0xaa2c350&#45;&gt;Node0xaa2c3b0 -->
<g id="edge12" class="edge"><title>Node0xaa2c350&#45;&gt;Node0xaa2c3b0</title>
<path fill="none" stroke="black" d="M902.5,-308.36C902.5,-299.084 902.5,-289.102 902.5,-280.179"/>
<polygon fill="black" stroke="black" points="906,-279.938 902.5,-269.938 899,-279.938 906,-279.938"/>
</g>
<!-- Node0xaa2cf90 -->
<g id="node14" class="node"><title>Node0xaa2cf90</title>
<polygon fill="none" stroke="black" points="472.5,-232.5 472.5,-270.5 582.5,-270.5 582.5,-232.5 472.5,-232.5"/>
<text text-anchor="start" x="480.5" y="-255.3" font-family="Times,serif" font-size="14.00">0x8063216:</text>
<text text-anchor="start" x="480.5" y="-240.3" font-family="Times,serif" font-size="14.00"> if (v5 == 0):</text>
</g>
<!-- Node0xaa2c7b0&#45;&gt;Node0xaa2cf90 -->
<g id="edge13" class="edge"><title>Node0xaa2c7b0&#45;&gt;Node0xaa2cf90</title>
<path fill="none" stroke="black" d="M527.5,-516.345C527.5,-469.441 527.5,-338.707 527.5,-280.765"/>
<polygon fill="black" stroke="black" points="531,-280.511 527.5,-270.511 524,-280.511 531,-280.511"/>
<text text-anchor="middle" x="611" y="-398.8" font-family="Times,serif" font-size="14.00">(strncmp_rc % 2) == 0</text>
</g>
<!-- Node0xaa2cd80 -->
<g id="node15" class="node"><title>Node0xaa2cd80</title>
<polygon fill="none" stroke="black" points="705.5,-428.5 705.5,-464.5 777.5,-464.5 777.5,-428.5 705.5,-428.5"/>
<text text-anchor="start" x="713.5" y="-442.8" font-family="Times,serif" font-size="14.00">v4 = v5</text>
</g>
<!-- Node0xaa2c7b0&#45;&gt;Node0xaa2cd80 -->
<g id="edge14" class="edge"><title>Node0xaa2c7b0&#45;&gt;Node0xaa2cd80</title>
<path fill="none" stroke="black" d="M570.035,-516.406C606.401,-501.792 658.604,-480.813 695.841,-465.849"/>
<polygon fill="black" stroke="black" points="697.469,-468.967 705.443,-461.99 694.859,-462.471 697.469,-468.967"/>
<text text-anchor="middle" x="728" y="-486.8" font-family="Times,serif" font-size="14.00">(strncmp_rc % 2) != 0</text>
</g>
<!-- Node0xaa2ce60 -->
<g id="node16" class="node"><title>Node0xaa2ce60</title>
<polygon fill="none" stroke="black" points="804,-112.5 804,-165.5 905,-165.5 905,-112.5 804,-112.5"/>
<text text-anchor="start" x="812" y="-150.3" font-family="Times,serif" font-size="14.00">0x8063230:</text>
<text text-anchor="start" x="812" y="-135.3" font-family="Times,serif" font-size="14.00"> g3 = v1</text>
<text text-anchor="start" x="812" y="-120.3" font-family="Times,serif" font-size="14.00"> return &#45;46</text>
</g>
<!-- Node0xaa2c3b0&#45;&gt;Node0xaa2ce60 -->
<g id="edge15" class="edge"><title>Node0xaa2c3b0&#45;&gt;Node0xaa2ce60</title>
<path fill="none" stroke="black" d="M890.397,-233.158C886.596,-227.249 882.589,-220.493 879.5,-214 873.662,-201.729 868.564,-187.725 864.521,-175.226"/>
<polygon fill="black" stroke="black" points="867.832,-174.089 861.511,-165.587 861.151,-176.176 867.832,-174.089"/>
<text text-anchor="middle" x="909.5" y="-202.8" font-family="Times,serif" font-size="14.00">v8 == 0</text>
</g>
<!-- Node0xaa2c630 -->
<g id="node17" class="node"><title>Node0xaa2c630</title>
<polygon fill="none" stroke="black" points="929.5,-105 929.5,-173 1027.5,-173 1027.5,-105 929.5,-105"/>
<text text-anchor="start" x="937.5" y="-157.8" font-family="Times,serif" font-size="14.00">0x80631f8:</text>
<text text-anchor="start" x="937.5" y="-142.8" font-family="Times,serif" font-size="14.00"> str = v8</text>
<text text-anchor="start" x="937.5" y="-127.8" font-family="Times,serif" font-size="14.00"> n = g6</text>
<text text-anchor="start" x="937.5" y="-112.8" font-family="Times,serif" font-size="14.00"> v3 = v7</text>
</g>
<!-- Node0xaa2c3b0&#45;&gt;Node0xaa2c630 -->
<g id="edge16" class="edge"><title>Node0xaa2c3b0&#45;&gt;Node0xaa2c630</title>
<path fill="none" stroke="black" d="M922.124,-233.331C928.113,-227.54 934.444,-220.81 939.5,-214 946.664,-204.35 953.272,-193.206 958.934,-182.542"/>
<polygon fill="black" stroke="black" points="962.203,-183.839 963.657,-173.344 955.976,-180.641 962.203,-183.839"/>
<text text-anchor="middle" x="974.5" y="-202.8" font-family="Times,serif" font-size="14.00">v8 != 0</text>
</g>
<!-- Node0xaa2d590 -->
<g id="node18" class="node"><title>Node0xaa2d590</title>
<polygon fill="none" stroke="black" points="332,-112.5 332,-165.5 433,-165.5 433,-112.5 332,-112.5"/>
<text text-anchor="start" x="340" y="-150.3" font-family="Times,serif" font-size="14.00">0x8063230:</text>
<text text-anchor="start" x="340" y="-135.3" font-family="Times,serif" font-size="14.00"> g3 = v1</text>
<text text-anchor="start" x="340" y="-120.3" font-family="Times,serif" font-size="14.00"> return &#45;46</text>
</g>
<!-- Node0xaa2cf90&#45;&gt;Node0xaa2d590 -->
<g id="edge17" class="edge"><title>Node0xaa2cf90&#45;&gt;Node0xaa2d590</title>
<path fill="none" stroke="black" d="M503.556,-232.253C481.999,-215.825 449.843,-191.32 424.089,-171.693"/>
<polygon fill="black" stroke="black" points="426.049,-168.787 415.974,-165.509 421.806,-174.354 426.049,-168.787"/>
<text text-anchor="middle" x="506.5" y="-202.8" font-family="Times,serif" font-size="14.00">v5 == 0</text>
</g>
<!-- Node0xaa2d3b0 -->
<g id="node19" class="node"><title>Node0xaa2d3b0</title>
<polygon fill="none" stroke="black" points="451,-97.5 451,-180.5 774,-180.5 774,-97.5 451,-97.5"/>
<text text-anchor="start" x="459" y="-165.3" font-family="Times,serif" font-size="14.00">v6 = *(IntToPtrCastExpr&lt;ptr&gt;((v5 + 16)))</text>
<text text-anchor="start" x="459" y="-150.3" font-family="Times,serif" font-size="14.00"> g6 = v6</text>
<text text-anchor="start" x="459" y="-135.3" font-family="Times,serif" font-size="14.00"> *(a2) = v6</text>
<text text-anchor="start" x="459" y="-120.3" font-family="Times,serif" font-size="14.00"> g3 = v1</text>
<text text-anchor="start" x="459" y="-105.3" font-family="Times,serif" font-size="14.00"> return 0</text>
</g>
<!-- Node0xaa2cf90&#45;&gt;Node0xaa2d3b0 -->
<g id="edge18" class="edge"><title>Node0xaa2cf90&#45;&gt;Node0xaa2d3b0</title>
<path fill="none" stroke="black" d="M541.536,-232.253C550.691,-220.352 563.107,-204.21 574.995,-188.756"/>
<polygon fill="black" stroke="black" points="577.82,-190.824 581.143,-180.764 572.272,-186.556 577.82,-190.824"/>
<text text-anchor="middle" x="592.5" y="-202.8" font-family="Times,serif" font-size="14.00">v5 != 0</text>
</g>
<!-- Node0xaa2cd80&#45;&gt;Node0xaa2c350 -->
<g id="edge19" class="edge"><title>Node0xaa2cd80&#45;&gt;Node0xaa2c350</title>
<path fill="none" stroke="black" d="M768.448,-428.427C788.474,-415.74 816.592,-397.926 841.907,-381.888"/>
<polygon fill="black" stroke="black" points="843.795,-384.835 850.37,-376.527 840.049,-378.922 843.795,-384.835"/>
</g>
<!-- Node0xaa2ce60&#45;&gt;Node0x9c78c80 -->
<g id="edge20" class="edge"><title>Node0xaa2ce60&#45;&gt;Node0x9c78c80</title>
<path fill="none" stroke="black" d="M815.478,-112.345C805.384,-106.594 794.308,-101.015 783.5,-97 697.522,-65.0616 589.795,-51.0499 533.953,-45.5756"/>
<polygon fill="black" stroke="black" points="534.106,-42.0746 523.822,-44.621 533.449,-49.0438 534.106,-42.0746"/>
</g>
<!-- Node0xaa2c630&#45;&gt;Node0xaa2bbb0 -->
<g id="edge21" class="edge"><title>Node0xaa2c630&#45;&gt;Node0xaa2bbb0</title>
<path fill="none" stroke="black" d="M1027.71,-139.13C1105.59,-140.607 1248.5,-156.167 1248.5,-250.5 1248.5,-803.5 1248.5,-803.5 1248.5,-803.5 1248.5,-862.17 1059.25,-881.088 960.271,-886.969"/>
<polygon fill="black" stroke="black" points="959.9,-883.485 950.114,-887.546 960.297,-890.473 959.9,-883.485"/>
</g>
<!-- Node0xaa2d590&#45;&gt;Node0x9c78c80 -->
<g id="edge22" class="edge"><title>Node0xaa2d590&#45;&gt;Node0x9c78c80</title>
<path fill="none" stroke="black" d="M413.05,-112.408C430.167,-98.0685 451.373,-80.3039 468.124,-66.2709"/>
<polygon fill="black" stroke="black" points="470.534,-68.8178 475.952,-59.7131 466.039,-63.4518 470.534,-68.8178"/>
</g>
<!-- Node0xaa2d3b0&#45;&gt;Node0x9c78c80 -->
<g id="edge23" class="edge"><title>Node0xaa2d3b0&#45;&gt;Node0x9c78c80</title>
<path fill="none" stroke="black" d="M563.306,-97.4994C550.287,-86.7815 536.662,-75.5648 525.138,-66.0773"/>
<polygon fill="black" stroke="black" points="527.102,-63.1602 517.157,-59.5064 522.653,-68.5644 527.102,-63.1602"/>
</g>
</g>
</svg>
