<?xml version="1.0" encoding="UTF-8" standalone="no"?>
<!DOCTYPE svg PUBLIC "-//W3C//DTD SVG 1.1//EN"
 "http://www.w3.org/Graphics/SVG/1.1/DTD/svg11.dtd">
<!-- Generated by graphviz version 2.38.0 (20140413.2041)
 -->
<!-- Title: Control&#45;flow graph for function &#39;mbedtls_des_setkey(a1, *a2)&#39;. Pages: 1 -->
<svg width="4659pt" height="2024pt"
 viewBox="0.00 0.00 4658.50 2024.00" xmlns="http://www.w3.org/2000/svg" xmlns:xlink="http://www.w3.org/1999/xlink">
<g id="graph0" class="graph" transform="scale(1 1) rotate(0) translate(4 2020)">
<title>Control&#45;flow graph for function &#39;mbedtls_des_setkey(a1, *a2)&#39;.</title>
<polygon fill="white" stroke="none" points="-4,4 -4,-2020 4654.5,-2020 4654.5,4 -4,4"/>
<text text-anchor="middle" x="2325.25" y="-7.8" font-family="Times,serif" font-size="14.00">Control&#45;flow graph for function &#39;mbedtls_des_setkey(a1, *a2)&#39;.</text>
<!-- Node0x99cdd40 -->
<g id="node1" class="node"><title>Node0x99cdd40</title>
<polygon fill="none" stroke="black" points="4071,-1962.5 4071,-2015.5 4130,-2015.5 4130,-1962.5 4071,-1962.5"/>
<text text-anchor="start" x="4079" y="-2000.3" font-family="Times,serif" font-size="14.00">entry:</text>
<text text-anchor="start" x="4079" y="-1985.3" font-family="Times,serif" font-size="14.00"> a1</text>
<text text-anchor="start" x="4079" y="-1970.3" font-family="Times,serif" font-size="14.00"> a2</text>
</g>
<!-- Node0x99cde90 -->
<g id="node2" class="node"><title>Node0x99cde90</title>
<polygon fill="none" stroke="black" points="3550.5,-1361.5 3550.5,-1924.5 4650.5,-1924.5 4650.5,-1361.5 3550.5,-1361.5"/>
<text text-anchor="start" x="3558.5" y="-1909.3" font-family="Times,serif" font-size="14.00">v1 = PtrToIntCastExpr&lt;int32&gt;(a2)</text>
<text text-anchor="start" x="3558.5" y="-1894.3" font-family="Times,serif" font-size="14.00"> v2 = *(a2)</text>
<text text-anchor="start" x="3558.5" y="-1879.3" font-family="Times,serif" font-size="14.00"> v3 = *(IntToPtrCastExpr&lt;ptr&gt;((v1 + 3)))</text>
<text text-anchor="start" x="3558.5" y="-1864.3" font-family="Times,serif" font-size="14.00"> v4 = *(IntToPtrCastExpr&lt;ptr&gt;((v1 + 5)))</text>
<text text-anchor="start" x="3558.5" y="-1849.3" font-family="Times,serif" font-size="14.00"> v5 = *(IntToPtrCastExpr&lt;ptr&gt;((v1 + 1)))</text>
<text text-anchor="start" x="3558.5" y="-1834.3" font-family="Times,serif" font-size="14.00"> v6 = *(IntToPtrCastExpr&lt;ptr&gt;((v1 + 2)))</text>
<text text-anchor="start" x="3558.5" y="-1819.3" font-family="Times,serif" font-size="14.00"> v7 = ((256 * ExtCastExpr&lt;int32&gt;(v6)) | ((65536 * ExtCastExpr&lt;int32&gt;(v5)) | ((16777216 * ExtCastExpr&lt;int32&gt;(v2)) | ExtCastExpr&lt;int32&gt;(v3))))</text>
<text text-anchor="start" x="3558.5" y="-1804.3" font-family="Times,serif" font-size="14.00"> v8 = *(IntToPtrCastExpr&lt;ptr&gt;((v1 + 4)))</text>
<text text-anchor="start" x="3558.5" y="-1789.3" font-family="Times,serif" font-size="14.00"> v9 = *(IntToPtrCastExpr&lt;ptr&gt;((v1 + 7)))</text>
<text text-anchor="start" x="3558.5" y="-1774.3" font-family="Times,serif" font-size="14.00"> v10 = *(IntToPtrCastExpr&lt;ptr&gt;((v1 + 6)))</text>
<text text-anchor="start" x="3558.5" y="-1759.3" font-family="Times,serif" font-size="14.00"> v11 = ((((16777216 * ExtCastExpr&lt;int32&gt;(v8)) | (65536 * ExtCastExpr&lt;int32&gt;(v4))) | ExtCastExpr&lt;int32&gt;(v9)) | (256 * ExtCastExpr&lt;int32&gt;(v10)))</text>
<text text-anchor="start" x="3558.5" y="-1744.3" font-family="Times,serif" font-size="14.00"> v12 = (((v11 / 16) ^ v7) &amp; 252645135)</text>
<text text-anchor="start" x="3558.5" y="-1729.3" font-family="Times,serif" font-size="14.00"> v13 = (v12 ^ v7)</text>
<text text-anchor="start" x="3558.5" y="-1714.3" font-family="Times,serif" font-size="14.00"> v14 = ((16 * v12) ^ v11)</text>
<text text-anchor="start" x="3558.5" y="-1699.3" font-family="Times,serif" font-size="14.00"> v15 = ((v14 ^ v7) &amp; 269488144)</text>
<text text-anchor="start" x="3558.5" y="-1684.3" font-family="Times,serif" font-size="14.00"> v16 = (v15 ^ v14)</text>
<text text-anchor="start" x="3558.5" y="-1669.3" font-family="Times,serif" font-size="14.00"> v17 = *(IntToPtrCastExpr&lt;ptr&gt;(((4 * ((v13 / 2097152) % 16)) + 134732448)))</text>
<text text-anchor="start" x="3558.5" y="-1654.3" font-family="Times,serif" font-size="14.00"> v18 = *(IntToPtrCastExpr&lt;ptr&gt;(((4 * (v13 % 16)) + 134732448)))</text>
<text text-anchor="start" x="3558.5" y="-1639.3" font-family="Times,serif" font-size="14.00"> v19 = *(IntToPtrCastExpr&lt;ptr&gt;(((4 * ((v13 / 16777216) % 16)) + 134732448)))</text>
<text text-anchor="start" x="3558.5" y="-1624.3" font-family="Times,serif" font-size="14.00"> v20 = *(IntToPtrCastExpr&lt;ptr&gt;(((4 * ExtCastExpr&lt;int32&gt;((v2 / 32))) + 134732448)))</text>
<text text-anchor="start" x="3558.5" y="-1609.3" font-family="Times,serif" font-size="14.00"> v21 = *(IntToPtrCastExpr&lt;ptr&gt;(((4 * ((v13 / 256) % 16)) + 134732448)))</text>
<text text-anchor="start" x="3558.5" y="-1594.3" font-family="Times,serif" font-size="14.00"> v22 = *(IntToPtrCastExpr&lt;ptr&gt;(((4 * ((v13 / 65536) % 16)) + 134732448)))</text>
<text text-anchor="start" x="3558.5" y="-1579.3" font-family="Times,serif" font-size="14.00"> v23 = *(IntToPtrCastExpr&lt;ptr&gt;(((4 * ((v13 / 32) % 16)) + 134732448)))</text>
<text text-anchor="start" x="3558.5" y="-1564.3" font-family="Times,serif" font-size="14.00"> v24 = *(IntToPtrCastExpr&lt;ptr&gt;(((4 * (((v15 ^ v13) / 8192) % 16)) + 134732448)))</text>
<text text-anchor="start" x="3558.5" y="-1549.3" font-family="Times,serif" font-size="14.00"> v25 = *(IntToPtrCastExpr&lt;ptr&gt;(((4 * ((v16 / 1048576) % 16)) + 134732512)))</text>
<text text-anchor="start" x="3558.5" y="-1534.3" font-family="Times,serif" font-size="14.00"> v26 = *(IntToPtrCastExpr&lt;ptr&gt;(((4 * (v16 / 268435456)) + 134732512)))</text>
<text text-anchor="start" x="3558.5" y="-1519.3" font-family="Times,serif" font-size="14.00"> v27 = *(IntToPtrCastExpr&lt;ptr&gt;(((4 * ((v16 / 33554432) % 16)) + 134732512)))</text>
<text text-anchor="start" x="3558.5" y="-1504.3" font-family="Times,serif" font-size="14.00"> v28 = *(IntToPtrCastExpr&lt;ptr&gt;(((4 * ((v16 / 2) % 16)) + 134732512)))</text>
<text text-anchor="start" x="3558.5" y="-1489.3" font-family="Times,serif" font-size="14.00"> v29 = *(IntToPtrCastExpr&lt;ptr&gt;(((4 * ((v16 / 512) % 16)) + 134732512)))</text>
<text text-anchor="start" x="3558.5" y="-1474.3" font-family="Times,serif" font-size="14.00"> v30 = ((((((2 * v22) | ((4 * v21) | ((16 * v20) | (v19 | (8 * v18))))) | (32 * v17)) | (128 * v23)) | (64 * v24)) % 268435456)</text>
<text text-anchor="start" x="3558.5" y="-1459.3" font-family="Times,serif" font-size="14.00"> v31 = *(IntToPtrCastExpr&lt;ptr&gt;(((4 * ((v16 / 131072) % 16)) + 134732512)))</text>
<text text-anchor="start" x="3558.5" y="-1444.3" font-family="Times,serif" font-size="14.00"> v32 = *(IntToPtrCastExpr&lt;ptr&gt;(((4 * ((v16 / 16) % 16)) + 134732512)))</text>
<text text-anchor="start" x="3558.5" y="-1429.3" font-family="Times,serif" font-size="14.00"> v33 = *(IntToPtrCastExpr&lt;ptr&gt;(((4 * ((v16 / 4096) % 16)) + 134732512)))</text>
<text text-anchor="start" x="3558.5" y="-1414.3" font-family="Times,serif" font-size="14.00"> v34 = 0</text>
<text text-anchor="start" x="3558.5" y="-1399.3" font-family="Times,serif" font-size="14.00"> v35 = ((((((2 * v31) | ((4 * v29) | ((8 * v28) | (v27 | (16 * v26))))) | (32 * v25)) | (128 * v32)) | (64 * v33)) % 268435456)</text>
<text text-anchor="start" x="3558.5" y="-1384.3" font-family="Times,serif" font-size="14.00"> v36 = 0</text>
<text text-anchor="start" x="3558.5" y="-1369.3" font-family="Times,serif" font-size="14.00"> result</text>
</g>
<!-- Node0x99cdd40&#45;&gt;Node0x99cde90 -->
<g id="edge1" class="edge"><title>Node0x99cdd40&#45;&gt;Node0x99cde90</title>
<path fill="none" stroke="black" d="M4100.5,-1962.43C4100.5,-1954.56 4100.5,-1945.14 4100.5,-1934.56"/>
<polygon fill="black" stroke="black" points="4104,-1934.52 4100.5,-1924.52 4097,-1934.52 4104,-1934.52"/>
</g>
<!-- Node0x99ced40 -->
<g id="node3" class="node"><title>Node0x99ced40</title>
<polygon fill="none" stroke="black" points="4052,-1287.5 4052,-1323.5 4149,-1323.5 4149,-1287.5 4052,-1287.5"/>
<text text-anchor="start" x="4060" y="-1301.8" font-family="Times,serif" font-size="14.00">while True:</text>
</g>
<!-- Node0x99cde90&#45;&gt;Node0x99ced40 -->
<g id="edge2" class="edge"><title>Node0x99cde90&#45;&gt;Node0x99ced40</title>
<path fill="none" stroke="black" d="M4100.5,-1361.15C4100.5,-1350.91 4100.5,-1341.72 4100.5,-1333.93"/>
<polygon fill="black" stroke="black" points="4104,-1333.89 4100.5,-1323.89 4097,-1333.89 4104,-1333.89"/>
</g>
<!-- Node0x20ba2930 -->
<g id="node4" class="node"><title>Node0x20ba2930</title>
<polygon fill="none" stroke="black" points="3809,-1137.5 3809,-1235.5 3906,-1235.5 3906,-1137.5 3809,-1137.5"/>
<text text-anchor="start" x="3817" y="-1220.3" font-family="Times,serif" font-size="14.00">0x806af81:</text>
<text text-anchor="start" x="3817" y="-1205.3" font-family="Times,serif" font-size="14.00"> v37</text>
<text text-anchor="start" x="3817" y="-1190.3" font-family="Times,serif" font-size="14.00"> v38</text>
<text text-anchor="start" x="3817" y="-1175.3" font-family="Times,serif" font-size="14.00"> v39</text>
<text text-anchor="start" x="3817" y="-1160.3" font-family="Times,serif" font-size="14.00"> v40</text>
<text text-anchor="start" x="3817" y="-1145.3" font-family="Times,serif" font-size="14.00"> v41</text>
</g>
<!-- Node0x99ced40&#45;&gt;Node0x20ba2930 -->
<g id="edge3" class="edge"><title>Node0x99ced40&#45;&gt;Node0x20ba2930</title>
<path fill="none" stroke="black" d="M4065.17,-1287.49C4025.92,-1268.59 3961.97,-1237.8 3915.39,-1215.37"/>
<polygon fill="black" stroke="black" points="3916.85,-1212.19 3906.32,-1211.01 3913.81,-1218.5 3916.85,-1212.19"/>
<text text-anchor="middle" x="4038.5" y="-1257.8" font-family="Times,serif" font-size="14.00">True</text>
</g>
<!-- Node0x20ba2a60 -->
<g id="node5" class="node"><title>Node0x20ba2a60</title>
<polygon fill="none" stroke="black" points="2740.5,-1063.5 2740.5,-1099.5 2848.5,-1099.5 2848.5,-1063.5 2740.5,-1063.5"/>
<text text-anchor="start" x="2748.5" y="-1077.8" font-family="Times,serif" font-size="14.00">if (v36 != 8):</text>
</g>
<!-- Node0x20ba2930&#45;&gt;Node0x20ba2a60 -->
<g id="edge4" class="edge"><title>Node0x20ba2930&#45;&gt;Node0x20ba2a60</title>
<path fill="none" stroke="black" d="M3808.71,-1180.77C3636.08,-1164.05 3054.05,-1107.65 2858.9,-1088.74"/>
<polygon fill="black" stroke="black" points="2859.09,-1085.24 2848.8,-1087.76 2858.41,-1092.21 2859.09,-1085.24"/>
</g>
<!-- Node0x99cf910 -->
<g id="node6" class="node"><title>Node0x99cf910</title>
<polygon fill="none" stroke="black" points="2515,-975.5 2515,-1011.5 2638,-1011.5 2638,-975.5 2515,-975.5"/>
<text text-anchor="start" x="2523" y="-989.8" font-family="Times,serif" font-size="14.00">v42 = (v36 &#45; 1)</text>
</g>
<!-- Node0x20ba2a60&#45;&gt;Node0x99cf910 -->
<g id="edge5" class="edge"><title>Node0x20ba2a60&#45;&gt;Node0x99cf910</title>
<path fill="none" stroke="black" d="M2751.17,-1063.41C2716.18,-1049.6 2666.79,-1030.12 2629.45,-1015.39"/>
<polygon fill="black" stroke="black" points="2630.34,-1011.98 2619.75,-1011.56 2627.77,-1018.49 2630.34,-1011.98"/>
<text text-anchor="middle" x="2730" y="-1033.8" font-family="Times,serif" font-size="14.00">v36 != 8</text>
</g>
<!-- Node0x20ba2ac0 -->
<g id="node7" class="node"><title>Node0x20ba2ac0</title>
<polygon fill="none" stroke="black" points="2595,-828.5 2595,-956.5 2994,-956.5 2994,-828.5 2595,-828.5"/>
<text text-anchor="start" x="2603" y="-941.3" font-family="Times,serif" font-size="14.00">0x806af8a:</text>
<text text-anchor="start" x="2603" y="-926.3" font-family="Times,serif" font-size="14.00"> v37 = v30</text>
<text text-anchor="start" x="2603" y="-911.3" font-family="Times,serif" font-size="14.00"> v38 = v35</text>
<text text-anchor="start" x="2603" y="-896.3" font-family="Times,serif" font-size="14.00"> v41 = (((2 * v37) &amp; 268435454) | (v37 / 134217728))</text>
<text text-anchor="start" x="2603" y="-881.3" font-family="Times,serif" font-size="14.00"> v30 = v41</text>
<text text-anchor="start" x="2603" y="-866.3" font-family="Times,serif" font-size="14.00"> v39 = v41</text>
<text text-anchor="start" x="2603" y="-851.3" font-family="Times,serif" font-size="14.00"> v40 = ((2 * v38) | (v38 / 134217728))</text>
<text text-anchor="start" x="2603" y="-836.3" font-family="Times,serif" font-size="14.00"> goto 0x806ad52_2</text>
</g>
<!-- Node0x20ba2a60&#45;&gt;Node0x20ba2ac0 -->
<g id="edge6" class="edge"><title>Node0x20ba2a60&#45;&gt;Node0x20ba2ac0</title>
<path fill="none" stroke="black" d="M2794.5,-1063.24C2794.5,-1041.35 2794.5,-1002.21 2794.5,-967.028"/>
<polygon fill="black" stroke="black" points="2798,-966.744 2794.5,-956.744 2791,-966.745 2798,-966.744"/>
<text text-anchor="middle" x="2829" y="-1033.8" font-family="Times,serif" font-size="14.00">v36 == 8</text>
</g>
<!-- Node0x99cf990 -->
<g id="node8" class="node"><title>Node0x99cf990</title>
<polygon fill="none" stroke="black" points="2036.5,-773.5 2036.5,-809.5 2594.5,-809.5 2594.5,-773.5 2036.5,-773.5"/>
<text text-anchor="start" x="2044.5" y="-787.8" font-family="Times,serif" font-size="14.00">if ((v36 != 15) and ((v42 != 0) and not (((v42 &lt; 0) ^ ((v36 &amp; &#45;(v36)) &lt; 0))))):</text>
</g>
<!-- Node0x99cf910&#45;&gt;Node0x99cf990 -->
<g id="edge7" class="edge"><title>Node0x99cf910&#45;&gt;Node0x99cf990</title>
<path fill="none" stroke="black" d="M2554.25,-975.448C2507.44,-939.581 2398.76,-856.301 2345.71,-815.653"/>
<polygon fill="black" stroke="black" points="2347.76,-812.813 2337.7,-809.509 2343.51,-818.369 2347.76,-812.813"/>
</g>
<!-- Node0xbd89bb0 -->
<g id="node9" class="node"><title>Node0xbd89bb0</title>
<polygon fill="none" stroke="black" points="0,-337.5 0,-555.5 4169,-555.5 4169,-337.5 0,-337.5"/>
<text text-anchor="start" x="8" y="-540.3" font-family="Times,serif" font-size="14.00">0x806ad52_2:</text>
<text text-anchor="start" x="8" y="-525.3" font-family="Times,serif" font-size="14.00"> v45 = (v40 % 268435456)</text>
<text text-anchor="start" x="8" y="-510.3" font-family="Times,serif" font-size="14.00"> v35 = v45</text>
<text text-anchor="start" x="8" y="-495.3" font-family="Times,serif" font-size="14.00"> v46 = (v45 / 16384)</text>
<text text-anchor="start" x="8" y="-480.3" font-family="Times,serif" font-size="14.00"> v47 = (v45 / 8)</text>
<text text-anchor="start" x="8" y="-465.3" font-family="Times,serif" font-size="14.00"> v48 = (1024 * v39)</text>
<text text-anchor="start" x="8" y="-450.3" font-family="Times,serif" font-size="14.00"> *(IntToPtrCastExpr&lt;ptr&gt;(((8 * v36) + a1))) = (((((((((((((((((((((((268435456 * v39) &amp; 268435456) | ((16 * v39) &amp; 603979776)) | (v40 &amp; 256)) | ((16384 * v39) &amp; 134217728)) | ((262144 * v39) &amp; 34078720)) | ((64 * v39) &amp; 16777216)) | ((512 * v39) &amp; 2097152)) | ((v39 / 2) &amp; 1048576)) | (v48 &amp; 262144)) | ((4 * v39) &amp; 131072)) | ((v39 / 1024) &amp; 65536)) | ((v40 / 8192) &amp; 8192)) | ((v40 / 16) &amp; 4096)) | ((64 * v40) &amp; 2048)) | ((v40 / 2) &amp; 1024)) | ((v40 / 32) &amp; 32)) | ((v40 / 1024) &amp; 16)) | (v46 &amp; 512)) | (v47 &amp; 8)) | ((v40 / 262144) &amp; 4)) | ((v40 / 67108864) &amp; 2)) | ((v40 / 16777216) % 2))</text>
<text text-anchor="start" x="8" y="-435.3" font-family="Times,serif" font-size="14.00"> v49 = v30</text>
<text text-anchor="start" x="8" y="-420.3" font-family="Times,serif" font-size="14.00"> v50 = (32768 * v49)</text>
<text text-anchor="start" x="8" y="-405.3" font-family="Times,serif" font-size="14.00"> v51 = v35</text>
<text text-anchor="start" x="8" y="-390.3" font-family="Times,serif" font-size="14.00"> result = ((((((((((((((((((((((v50 &amp; 536870912) | (v47 &amp; 17)) | ((131072 * v49) &amp; 268435456)) | (v51 &amp; 512)) | ((4194304 * v49) &amp; 67108864)) | ((v49 / 4) &amp; 33554432)) | ((2 * v49) &amp; 16777216)) | ((65536 * v49) &amp; 2097152)) | ((2048 * v49) &amp; 1048576)) | ((8 * v49) &amp; 524288)) | ((v49 / 64) &amp; 262144)) | (v50 &amp; 131072)) | ((v49 / 16) &amp; 65536)) | (v48 &amp; 134217728)) | ((v51 / 4) &amp; 8192)) | ((256 * v51) &amp; 4096)) | ((v51 / 512) &amp; 1024)) | ((128 * v51) &amp; 256)) | ((v51 / 128) &amp; 32)) | ((4 * v51) &amp; 4)) | ((v51 / 2097152) &amp; 2)) | (v46 &amp; 2056))</text>
<text text-anchor="start" x="8" y="-375.3" font-family="Times,serif" font-size="14.00"> *(IntToPtrCastExpr&lt;ptr&gt;(((a1 + 4) + (8 * v34)))) = result</text>
<text text-anchor="start" x="8" y="-360.3" font-family="Times,serif" font-size="14.00"> v52 = (v34 + 1)</text>
<text text-anchor="start" x="8" y="-345.3" font-family="Times,serif" font-size="14.00"> v34 = v52</text>
</g>
<!-- Node0x20ba2ac0&#45;&gt;Node0xbd89bb0 -->
<g id="edge8" class="edge"><title>Node0x20ba2ac0&#45;&gt;Node0xbd89bb0</title>
<path fill="none" stroke="black" d="M2796.5,-828.418C2794.43,-798.986 2787.4,-765.018 2768.5,-740 2708.41,-660.472 2622.38,-602.31 2531.51,-559.861"/>
<polygon fill="black" stroke="black" points="2532.97,-556.678 2522.42,-555.672 2530.04,-563.035 2532.97,-556.678"/>
</g>
<!-- Node0x21026010 -->
<g id="node10" class="node"><title>Node0x21026010</title>
<polygon fill="none" stroke="black" points="1615.5,-616 1615.5,-699 2005.5,-699 2005.5,-616 1615.5,-616"/>
<text text-anchor="start" x="1623.5" y="-683.8" font-family="Times,serif" font-size="14.00">v43 = v30</text>
<text text-anchor="start" x="1623.5" y="-668.8" font-family="Times,serif" font-size="14.00"> v44 = v35</text>
<text text-anchor="start" x="1623.5" y="-653.8" font-family="Times,serif" font-size="14.00"> v39 = (((4 * v43) &amp; 268435452) | (v43 / 67108864))</text>
<text text-anchor="start" x="1623.5" y="-638.8" font-family="Times,serif" font-size="14.00"> v30 = v39</text>
<text text-anchor="start" x="1623.5" y="-623.8" font-family="Times,serif" font-size="14.00"> v40 = ((4 * v44) | (v44 / 67108864))</text>
</g>
<!-- Node0x99cf990&#45;&gt;Node0x21026010 -->
<g id="edge9" class="edge"><title>Node0x99cf990&#45;&gt;Node0x21026010</title>
<path fill="none" stroke="black" d="M2036.29,-788.452C1914.87,-784.583 1795.69,-775.494 1776.5,-755 1764.41,-742.09 1766.87,-724.626 1774.39,-708.102"/>
<polygon fill="black" stroke="black" points="1777.58,-709.55 1779.02,-699.054 1771.35,-706.358 1777.58,-709.55"/>
<text text-anchor="middle" x="2033" y="-743.8" font-family="Times,serif" font-size="14.00">(v36 != 15) and ((v42 != 0) and not (((v42 &lt; 0) ^ ((v36 &amp; &#45;(v36)) &lt; 0))))</text>
</g>
<!-- Node0x99d0d80 -->
<g id="node11" class="node"><title>Node0x99d0d80</title>
<polygon fill="none" stroke="black" points="2054,-593.5 2054,-721.5 2453,-721.5 2453,-593.5 2054,-593.5"/>
<text text-anchor="start" x="2062" y="-706.3" font-family="Times,serif" font-size="14.00">0x806af8a:</text>
<text text-anchor="start" x="2062" y="-691.3" font-family="Times,serif" font-size="14.00"> v37 = v30</text>
<text text-anchor="start" x="2062" y="-676.3" font-family="Times,serif" font-size="14.00"> v38 = v35</text>
<text text-anchor="start" x="2062" y="-661.3" font-family="Times,serif" font-size="14.00"> v41 = (((2 * v37) &amp; 268435454) | (v37 / 134217728))</text>
<text text-anchor="start" x="2062" y="-646.3" font-family="Times,serif" font-size="14.00"> v30 = v41</text>
<text text-anchor="start" x="2062" y="-631.3" font-family="Times,serif" font-size="14.00"> v39 = v41</text>
<text text-anchor="start" x="2062" y="-616.3" font-family="Times,serif" font-size="14.00"> v40 = ((2 * v38) | (v38 / 134217728))</text>
<text text-anchor="start" x="2062" y="-601.3" font-family="Times,serif" font-size="14.00"> goto 0x806ad52_2</text>
</g>
<!-- Node0x99cf990&#45;&gt;Node0x99d0d80 -->
<g id="edge10" class="edge"><title>Node0x99cf990&#45;&gt;Node0x99d0d80</title>
<path fill="none" stroke="black" d="M2308.16,-773.118C2303.97,-763.339 2298.56,-750.935 2293.5,-740 2292.11,-736.996 2290.68,-733.937 2289.22,-730.851"/>
<polygon fill="black" stroke="black" points="2292.25,-729.071 2284.79,-721.545 2285.93,-732.079 2292.25,-729.071"/>
<text text-anchor="middle" x="2532.5" y="-743.8" font-family="Times,serif" font-size="14.00">(v36 == 15) or ((v42 == 0) or ((v42 &lt; 0) ^ ((v36 &amp; &#45;(v36)) &lt; 0)))</text>
</g>
<!-- Node0x99d0e90 -->
<g id="node12" class="node"><title>Node0x99d0e90</title>
<polygon fill="none" stroke="black" points="3456,-263.5 3456,-299.5 3579,-299.5 3579,-263.5 3456,-263.5"/>
<text text-anchor="start" x="3464" y="-277.8" font-family="Times,serif" font-size="14.00">if (v52 == 16):</text>
</g>
<!-- Node0xbd89bb0&#45;&gt;Node0x99d0e90 -->
<g id="edge11" class="edge"><title>Node0xbd89bb0&#45;&gt;Node0x99d0e90</title>
<path fill="none" stroke="black" d="M3034.35,-337.457C3207.56,-317.755 3360.35,-300.375 3445.68,-290.669"/>
<polygon fill="black" stroke="black" points="3446.21,-294.132 3455.75,-289.524 3445.42,-287.177 3446.21,-294.132"/>
</g>
<!-- Node0x21026010&#45;&gt;Node0xbd89bb0 -->
<g id="edge12" class="edge"><title>Node0x21026010&#45;&gt;Node0xbd89bb0</title>
<path fill="none" stroke="black" d="M1863.65,-615.955C1884.3,-600.209 1909.07,-581.315 1934.44,-561.962"/>
<polygon fill="black" stroke="black" points="1936.87,-564.513 1942.69,-555.665 1932.62,-558.947 1936.87,-564.513"/>
</g>
<!-- Node0x99d0d80&#45;&gt;Node0xbd89bb0 -->
<g id="edge13" class="edge"><title>Node0x99d0d80&#45;&gt;Node0xbd89bb0</title>
<path fill="none" stroke="black" d="M2202.34,-593.226C2194.67,-583.748 2186.57,-573.73 2178.35,-563.566"/>
<polygon fill="black" stroke="black" points="2181.06,-561.345 2172.05,-555.77 2175.61,-565.747 2181.06,-561.345"/>
</g>
<!-- Node0x21026180 -->
<g id="node13" class="node"><title>Node0x21026180</title>
<polygon fill="none" stroke="black" points="3435.5,-173.5 3435.5,-211.5 3599.5,-211.5 3599.5,-173.5 3435.5,-173.5"/>
<text text-anchor="start" x="3443.5" y="-196.3" font-family="Times,serif" font-size="14.00">break &#45;&gt; 0x806afb0:</text>
<text text-anchor="start" x="3443.5" y="-181.3" font-family="Times,serif" font-size="14.00"> break</text>
</g>
<!-- Node0x99d0e90&#45;&gt;Node0x21026180 -->
<g id="edge14" class="edge"><title>Node0x99d0e90&#45;&gt;Node0x21026180</title>
<path fill="none" stroke="black" d="M3517.5,-263.312C3517.5,-251.511 3517.5,-235.572 3517.5,-221.904"/>
<polygon fill="black" stroke="black" points="3521,-221.551 3517.5,-211.551 3514,-221.551 3521,-221.551"/>
<text text-anchor="middle" x="3556.5" y="-233.8" font-family="Times,serif" font-size="14.00">v52 == 16</text>
</g>
<!-- Node0x21025fb0 -->
<g id="node14" class="node"><title>Node0x21025fb0</title>
<polygon fill="none" stroke="black" points="3884.5,-173.5 3884.5,-211.5 3974.5,-211.5 3974.5,-173.5 3884.5,-173.5"/>
<text text-anchor="start" x="3892.5" y="-196.3" font-family="Times,serif" font-size="14.00">v36 = v52</text>
<text text-anchor="start" x="3892.5" y="-181.3" font-family="Times,serif" font-size="14.00"> continue</text>
</g>
<!-- Node0x99d0e90&#45;&gt;Node0x21025fb0 -->
<g id="edge15" class="edge"><title>Node0x99d0e90&#45;&gt;Node0x21025fb0</title>
<path fill="none" stroke="black" d="M3579.18,-267.475C3659.21,-250.577 3797.63,-221.347 3874.33,-205.15"/>
<polygon fill="black" stroke="black" points="3875.21,-208.54 3884.28,-203.05 3873.77,-201.691 3875.21,-208.54"/>
<text text-anchor="middle" x="3783.5" y="-233.8" font-family="Times,serif" font-size="14.00">v52 != 16</text>
</g>
<!-- Node0x99ce970 -->
<g id="node15" class="node"><title>Node0x99ce970</title>
<polygon fill="none" stroke="black" points="3461,-97.5 3461,-135.5 3574,-135.5 3574,-97.5 3461,-97.5"/>
<text text-anchor="start" x="3469" y="-120.3" font-family="Times,serif" font-size="14.00">0x806afb0:</text>
<text text-anchor="start" x="3469" y="-105.3" font-family="Times,serif" font-size="14.00"> return result</text>
</g>
<!-- Node0x21026180&#45;&gt;Node0x99ce970 -->
<g id="edge16" class="edge"><title>Node0x21026180&#45;&gt;Node0x99ce970</title>
<path fill="none" stroke="black" d="M3517.5,-173.208C3517.5,-164.964 3517.5,-155.038 3517.5,-145.862"/>
<polygon fill="black" stroke="black" points="3521,-145.582 3517.5,-135.582 3514,-145.582 3521,-145.582"/>
</g>
<!-- Node0x21025fb0&#45;&gt;Node0x99ced40 -->
<g id="edge17" class="edge"><title>Node0x21025fb0&#45;&gt;Node0x99ced40</title>
<path fill="none" stroke="black" d="M3974.66,-198.719C4051.04,-208.816 4197.5,-234.211 4197.5,-280.5 4197.5,-1187.5 4197.5,-1187.5 4197.5,-1187.5 4197.5,-1227.07 4164.2,-1260.44 4136.63,-1281.28"/>
<polygon fill="black" stroke="black" points="4134.32,-1278.63 4128.3,-1287.34 4138.44,-1284.29 4134.32,-1278.63"/>
</g>
<!-- Node0x99ce400 -->
<g id="node16" class="node"><title>Node0x99ce400</title>
<polygon fill="none" stroke="black" points="3490.5,-23.5 3490.5,-59.5 3544.5,-59.5 3544.5,-23.5 3490.5,-23.5"/>
<text text-anchor="start" x="3498.5" y="-37.8" font-family="Times,serif" font-size="14.00">exit:</text>
</g>
<!-- Node0x99ce970&#45;&gt;Node0x99ce400 -->
<g id="edge18" class="edge"><title>Node0x99ce970&#45;&gt;Node0x99ce400</title>
<path fill="none" stroke="black" d="M3517.5,-97.4551C3517.5,-89.2008 3517.5,-79.2377 3517.5,-70.0742"/>
<polygon fill="black" stroke="black" points="3521,-69.8347 3517.5,-59.8347 3514,-69.8347 3521,-69.8347"/>
</g>
</g>
</svg>
