<?xml version="1.0" encoding="UTF-8" standalone="no"?>
<!DOCTYPE svg PUBLIC "-//W3C//DTD SVG 1.1//EN"
 "http://www.w3.org/Graphics/SVG/1.1/DTD/svg11.dtd">
<!-- Generated by graphviz version 2.38.0 (20140413.2041)
 -->
<!-- Title: Control&#45;flow graph for function &#39;mbedtls_arc4_setup(*a1, a2, a3)&#39;. Pages: 1 -->
<svg width="722pt" height="1222pt"
 viewBox="0.00 0.00 721.50 1222.00" xmlns="http://www.w3.org/2000/svg" xmlns:xlink="http://www.w3.org/1999/xlink">
<g id="graph0" class="graph" transform="scale(1 1) rotate(0) translate(4 1218)">
<title>Control&#45;flow graph for function &#39;mbedtls_arc4_setup(*a1, a2, a3)&#39;.</title>
<polygon fill="white" stroke="none" points="-4,4 -4,-1218 717.5,-1218 717.5,4 -4,4"/>
<text text-anchor="middle" x="356.75" y="-7.8" font-family="Times,serif" font-size="14.00">Control&#45;flow graph for function &#39;mbedtls_arc4_setup(*a1, a2, a3)&#39;.</text>
<!-- Node0x8ed23b0 -->
<g id="node1" class="node"><title>Node0x8ed23b0</title>
<polygon fill="none" stroke="black" points="327.5,-1145.5 327.5,-1213.5 386.5,-1213.5 386.5,-1145.5 327.5,-1145.5"/>
<text text-anchor="start" x="335.5" y="-1198.3" font-family="Times,serif" font-size="14.00">entry:</text>
<text text-anchor="start" x="335.5" y="-1183.3" font-family="Times,serif" font-size="14.00"> a1</text>
<text text-anchor="start" x="335.5" y="-1168.3" font-family="Times,serif" font-size="14.00"> a2</text>
<text text-anchor="start" x="335.5" y="-1153.3" font-family="Times,serif" font-size="14.00"> a3</text>
</g>
<!-- Node0x8ed2ef0 -->
<g id="node2" class="node"><title>Node0x8ed2ef0</title>
<polygon fill="none" stroke="black" points="87,-994.5 87,-1107.5 627,-1107.5 627,-994.5 87,-994.5"/>
<text text-anchor="start" x="95" y="-1092.3" font-family="Times,serif" font-size="14.00">v1 = 0</text>
<text text-anchor="start" x="95" y="-1077.3" font-family="Times,serif" font-size="14.00"> v2 = PtrToIntCastExpr&lt;int32&gt;(a1)</text>
<text text-anchor="start" x="95" y="-1062.3" font-family="Times,serif" font-size="14.00"> *(a1) = 0</text>
<text text-anchor="start" x="95" y="-1047.3" font-family="Times,serif" font-size="14.00"> *(IntToPtrCastExpr&lt;ptr&gt;((v2 + 4))) = 0</text>
<text text-anchor="start" x="95" y="-1032.3" font-family="Times,serif" font-size="14.00"> v3 = v1</text>
<text text-anchor="start" x="95" y="-1017.3" font-family="Times,serif" font-size="14.00"> *(IntToPtrCastExpr&lt;ptr&gt;(((v3 + 8) + v2))) = TruncCastExpr&lt;int8&gt;(v3)</text>
<text text-anchor="start" x="95" y="-1002.3" font-family="Times,serif" font-size="14.00"> v4 = (v1 + 1)</text>
</g>
<!-- Node0x8ed23b0&#45;&gt;Node0x8ed2ef0 -->
<g id="edge1" class="edge"><title>Node0x8ed23b0&#45;&gt;Node0x8ed2ef0</title>
<path fill="none" stroke="black" d="M357,-1145.26C357,-1136.68 357,-1127.14 357,-1117.52"/>
<polygon fill="black" stroke="black" points="360.5,-1117.51 357,-1107.51 353.5,-1117.51 360.5,-1117.51"/>
</g>
<!-- Node0x8ed30c0 -->
<g id="node3" class="node"><title>Node0x8ed30c0</title>
<polygon fill="none" stroke="black" points="284,-920.5 284,-956.5 430,-956.5 430,-920.5 284,-920.5"/>
<text text-anchor="start" x="292" y="-934.8" font-family="Times,serif" font-size="14.00">while (v4 != 256):</text>
</g>
<!-- Node0x8ed2ef0&#45;&gt;Node0x8ed30c0 -->
<g id="edge2" class="edge"><title>Node0x8ed2ef0&#45;&gt;Node0x8ed30c0</title>
<path fill="none" stroke="black" d="M357,-994.426C357,-984.86 357,-975.307 357,-966.913"/>
<polygon fill="black" stroke="black" points="360.5,-966.644 357,-956.644 353.5,-966.644 360.5,-966.644"/>
</g>
<!-- Node0x8ed3480 -->
<g id="node4" class="node"><title>Node0x8ed3480</title>
<polygon fill="none" stroke="black" points="0,-800.5 0,-868.5 540,-868.5 540,-800.5 0,-800.5"/>
<text text-anchor="start" x="8" y="-853.3" font-family="Times,serif" font-size="14.00">0x8068420:</text>
<text text-anchor="start" x="8" y="-838.3" font-family="Times,serif" font-size="14.00"> v3 = v4</text>
<text text-anchor="start" x="8" y="-823.3" font-family="Times,serif" font-size="14.00"> *(IntToPtrCastExpr&lt;ptr&gt;(((v3 + 8) + v2))) = TruncCastExpr&lt;int8&gt;(v3)</text>
<text text-anchor="start" x="8" y="-808.3" font-family="Times,serif" font-size="14.00"> v4 = (v4 + 1)</text>
</g>
<!-- Node0x8ed30c0&#45;&gt;Node0x8ed3480 -->
<g id="edge3" class="edge"><title>Node0x8ed30c0&#45;&gt;Node0x8ed3480</title>
<path fill="none" stroke="black" d="M291.277,-920.298C283.312,-915.597 276.177,-909.614 271,-902 266.338,-895.144 264.213,-886.902 263.568,-878.592"/>
<polygon fill="black" stroke="black" points="267.066,-878.465 263.444,-868.509 260.067,-878.551 267.066,-878.465"/>
<text text-anchor="middle" x="307" y="-890.8" font-family="Times,serif" font-size="14.00">v4 != 256</text>
</g>
<!-- Node0xbce7e80 -->
<g id="node5" class="node"><title>Node0xbce7e80</title>
<polygon fill="none" stroke="black" points="558.5,-800.5 558.5,-868.5 713.5,-868.5 713.5,-800.5 558.5,-800.5"/>
<text text-anchor="start" x="566.5" y="-853.3" font-family="Times,serif" font-size="14.00">result = (v2 + 256)</text>
<text text-anchor="start" x="566.5" y="-838.3" font-family="Times,serif" font-size="14.00"> v1 = v2</text>
<text text-anchor="start" x="566.5" y="-823.3" font-family="Times,serif" font-size="14.00"> v5 = 0</text>
<text text-anchor="start" x="566.5" y="-808.3" font-family="Times,serif" font-size="14.00"> v6 = 0</text>
</g>
<!-- Node0x8ed30c0&#45;&gt;Node0xbce7e80 -->
<g id="edge4" class="edge"><title>Node0x8ed30c0&#45;&gt;Node0xbce7e80</title>
<path fill="none" stroke="black" d="M406.049,-920.379C442.791,-907.467 494.518,-889.109 548.803,-869.047"/>
<polygon fill="black" stroke="black" points="550.086,-872.304 558.248,-865.549 547.655,-865.74 550.086,-872.304"/>
<text text-anchor="middle" x="535" y="-890.8" font-family="Times,serif" font-size="14.00">v4 == 256</text>
</g>
<!-- Node0x8ed3480&#45;&gt;Node0x8ed30c0 -->
<g id="edge5" class="edge"><title>Node0x8ed3480&#45;&gt;Node0x8ed30c0</title>
<path fill="none" stroke="black" d="M325.982,-868.612C332.366,-874.133 338.268,-880.278 343,-887 347.861,-893.905 351.037,-902.441 353.112,-910.517"/>
<polygon fill="black" stroke="black" points="349.697,-911.288 355.194,-920.345 356.545,-909.837 349.697,-911.288"/>
</g>
<!-- Node0x8ed3400 -->
<g id="node6" class="node"><title>Node0x8ed3400</title>
<polygon fill="none" stroke="black" points="587.5,-726.5 587.5,-762.5 684.5,-762.5 684.5,-726.5 587.5,-726.5"/>
<text text-anchor="start" x="595.5" y="-740.8" font-family="Times,serif" font-size="14.00">while True:</text>
</g>
<!-- Node0xbce7e80&#45;&gt;Node0x8ed3400 -->
<g id="edge6" class="edge"><title>Node0xbce7e80&#45;&gt;Node0x8ed3400</title>
<path fill="none" stroke="black" d="M636,-800.482C636,-791.328 636,-781.497 636,-772.715"/>
<polygon fill="black" stroke="black" points="639.5,-772.64 636,-762.64 632.5,-772.64 639.5,-772.64"/>
</g>
<!-- Node0x8ed3640 -->
<g id="node7" class="node"><title>Node0x8ed3640</title>
<polygon fill="none" stroke="black" points="499.5,-636.5 499.5,-674.5 612.5,-674.5 612.5,-636.5 499.5,-636.5"/>
<text text-anchor="start" x="507.5" y="-659.3" font-family="Times,serif" font-size="14.00">v7 = (v6 + 1)</text>
<text text-anchor="start" x="507.5" y="-644.3" font-family="Times,serif" font-size="14.00"> v8 = v6</text>
</g>
<!-- Node0x8ed3400&#45;&gt;Node0x8ed3640 -->
<g id="edge7" class="edge"><title>Node0x8ed3400&#45;&gt;Node0x8ed3640</title>
<path fill="none" stroke="black" d="M620.195,-726.312C608.591,-713.693 592.638,-696.343 579.537,-682.097"/>
<polygon fill="black" stroke="black" points="581.944,-679.543 572.599,-674.551 576.791,-684.281 581.944,-679.543"/>
<text text-anchor="middle" x="620" y="-696.8" font-family="Times,serif" font-size="14.00">True</text>
</g>
<!-- Node0x8ed36c0 -->
<g id="node8" class="node"><title>Node0x8ed36c0</title>
<polygon fill="none" stroke="black" points="386.5,-562.5 386.5,-598.5 499.5,-598.5 499.5,-562.5 386.5,-562.5"/>
<text text-anchor="start" x="394.5" y="-576.8" font-family="Times,serif" font-size="14.00">if (v6 &gt;= a3):</text>
</g>
<!-- Node0x8ed3640&#45;&gt;Node0x8ed36c0 -->
<g id="edge8" class="edge"><title>Node0x8ed3640&#45;&gt;Node0x8ed36c0</title>
<path fill="none" stroke="black" d="M528.067,-636.455C512.958,-626.694 494.149,-614.543 478.063,-604.151"/>
<polygon fill="black" stroke="black" points="479.746,-601.072 469.447,-598.585 475.947,-606.951 479.746,-601.072"/>
</g>
<!-- Node0x8ed3bf0 -->
<g id="node9" class="node"><title>Node0x8ed3bf0</title>
<polygon fill="none" stroke="black" points="305.5,-457.5 305.5,-510.5 406.5,-510.5 406.5,-457.5 305.5,-457.5"/>
<text text-anchor="start" x="313.5" y="-495.3" font-family="Times,serif" font-size="14.00">0x8068452:</text>
<text text-anchor="start" x="313.5" y="-480.3" font-family="Times,serif" font-size="14.00"> v7 = 1</text>
<text text-anchor="start" x="313.5" y="-465.3" font-family="Times,serif" font-size="14.00"> v8 = 0</text>
</g>
<!-- Node0x8ed36c0&#45;&gt;Node0x8ed3bf0 -->
<g id="edge9" class="edge"><title>Node0x8ed36c0&#45;&gt;Node0x8ed3bf0</title>
<path fill="none" stroke="black" d="M386.497,-564.687C376.601,-559.655 367.43,-552.942 361,-544 356.19,-537.31 353.901,-529.025 353.028,-520.8"/>
<polygon fill="black" stroke="black" points="356.513,-520.381 352.594,-510.538 349.519,-520.677 356.513,-520.381"/>
<text text-anchor="middle" x="395" y="-532.8" font-family="Times,serif" font-size="14.00">v6 &gt;= a3</text>
</g>
<!-- Node0x8ed3830 -->
<g id="node10" class="node"><title>Node0x8ed3830</title>
<polygon fill="none" stroke="black" points="61,-291.5 61,-419.5 651,-419.5 651,-291.5 61,-291.5"/>
<text text-anchor="start" x="69" y="-404.3" font-family="Times,serif" font-size="14.00">v9 = IntToPtrCastExpr&lt;ptr&gt;((v2 + 8))</text>
<text text-anchor="start" x="69" y="-389.3" font-family="Times,serif" font-size="14.00"> v10 = *(v9)</text>
<text text-anchor="start" x="69" y="-374.3" font-family="Times,serif" font-size="14.00"> v11 = *(IntToPtrCastExpr&lt;ptr&gt;((v8 + a2)))</text>
<text text-anchor="start" x="69" y="-359.3" font-family="Times,serif" font-size="14.00"> v12 = (((ExtCastExpr&lt;int32&gt;(v11) + ExtCastExpr&lt;int32&gt;(v10)) + v5) % 256)</text>
<text text-anchor="start" x="69" y="-344.3" font-family="Times,serif" font-size="14.00"> v5 = v12</text>
<text text-anchor="start" x="69" y="-329.3" font-family="Times,serif" font-size="14.00"> *(v9) = *(IntToPtrCastExpr&lt;ptr&gt;(((v2 + 8) + v12)))</text>
<text text-anchor="start" x="69" y="-314.3" font-family="Times,serif" font-size="14.00"> v1 = (v1 + 1)</text>
<text text-anchor="start" x="69" y="-299.3" font-family="Times,serif" font-size="14.00"> *(IntToPtrCastExpr&lt;ptr&gt;(((v2 + 8) + v5))) = v10</text>
</g>
<!-- Node0x8ed36c0&#45;&gt;Node0x8ed3830 -->
<g id="edge10" class="edge"><title>Node0x8ed36c0&#45;&gt;Node0x8ed3830</title>
<path fill="none" stroke="black" d="M440.988,-562.349C437.762,-538.182 430.291,-493.034 416,-457 412.225,-447.481 407.61,-437.815 402.634,-428.429"/>
<polygon fill="black" stroke="black" points="405.637,-426.624 397.768,-419.53 399.495,-429.983 405.637,-426.624"/>
<text text-anchor="middle" x="459" y="-480.3" font-family="Times,serif" font-size="14.00">v6 &lt; a3</text>
</g>
<!-- Node0x8ed3bf0&#45;&gt;Node0x8ed3830 -->
<g id="edge11" class="edge"><title>Node0x8ed3bf0&#45;&gt;Node0x8ed3830</title>
<path fill="none" stroke="black" d="M356,-457.401C356,-449.256 356,-439.802 356,-430.011"/>
<polygon fill="black" stroke="black" points="359.5,-429.727 356,-419.727 352.5,-429.727 359.5,-429.727"/>
</g>
<!-- Node0x8ed3120 -->
<g id="node11" class="node"><title>Node0x8ed3120</title>
<polygon fill="none" stroke="black" points="364,-217.5 364,-253.5 502,-253.5 502,-217.5 364,-217.5"/>
<text text-anchor="start" x="372" y="-231.8" font-family="Times,serif" font-size="14.00">if (v1 == result):</text>
</g>
<!-- Node0x8ed3830&#45;&gt;Node0x8ed3120 -->
<g id="edge12" class="edge"><title>Node0x8ed3830&#45;&gt;Node0x8ed3120</title>
<path fill="none" stroke="black" d="M397.205,-291.355C403.893,-281.106 410.471,-271.025 416.127,-262.357"/>
<polygon fill="black" stroke="black" points="419.12,-264.175 421.654,-253.888 413.258,-260.35 419.12,-264.175"/>
</g>
<!-- Node0x8ed3c90 -->
<g id="node12" class="node"><title>Node0x8ed3c90</title>
<polygon fill="none" stroke="black" points="376.5,-97.5 376.5,-165.5 489.5,-165.5 489.5,-97.5 376.5,-97.5"/>
<text text-anchor="start" x="384.5" y="-150.3" font-family="Times,serif" font-size="14.00">0x8068488:</text>
<text text-anchor="start" x="384.5" y="-135.3" font-family="Times,serif" font-size="14.00"> v13</text>
<text text-anchor="start" x="384.5" y="-120.3" font-family="Times,serif" font-size="14.00"> g2 = v13</text>
<text text-anchor="start" x="384.5" y="-105.3" font-family="Times,serif" font-size="14.00"> return result</text>
</g>
<!-- Node0x8ed3120&#45;&gt;Node0x8ed3c90 -->
<g id="edge13" class="edge"><title>Node0x8ed3120&#45;&gt;Node0x8ed3c90</title>
<path fill="none" stroke="black" d="M433,-217.197C433,-205.854 433,-190.486 433,-175.954"/>
<polygon fill="black" stroke="black" points="436.5,-175.59 433,-165.59 429.5,-175.59 436.5,-175.59"/>
<text text-anchor="middle" x="479.5" y="-187.8" font-family="Times,serif" font-size="14.00">v1 == result</text>
</g>
<!-- Node0x8ed3b90 -->
<g id="node13" class="node"><title>Node0x8ed3b90</title>
<polygon fill="none" stroke="black" points="567.5,-105 567.5,-158 668.5,-158 668.5,-105 567.5,-105"/>
<text text-anchor="start" x="575.5" y="-142.8" font-family="Times,serif" font-size="14.00">0x8068448:</text>
<text text-anchor="start" x="575.5" y="-127.8" font-family="Times,serif" font-size="14.00"> v2 = v1</text>
<text text-anchor="start" x="575.5" y="-112.8" font-family="Times,serif" font-size="14.00"> v6 = v7</text>
</g>
<!-- Node0x8ed3120&#45;&gt;Node0x8ed3b90 -->
<g id="edge14" class="edge"><title>Node0x8ed3120&#45;&gt;Node0x8ed3b90</title>
<path fill="none" stroke="black" d="M488.371,-217.44C502.318,-212.283 517.009,-206.08 530,-199 547.592,-189.413 565.503,-176.554 580.534,-164.7"/>
<polygon fill="black" stroke="black" points="582.965,-167.237 588.568,-158.245 578.581,-161.78 582.965,-167.237"/>
<text text-anchor="middle" x="596.5" y="-187.8" font-family="Times,serif" font-size="14.00">v1 != result</text>
</g>
<!-- Node0x8ed2e70 -->
<g id="node14" class="node"><title>Node0x8ed2e70</title>
<polygon fill="none" stroke="black" points="406,-23.5 406,-59.5 460,-59.5 460,-23.5 406,-23.5"/>
<text text-anchor="start" x="414" y="-37.8" font-family="Times,serif" font-size="14.00">exit:</text>
</g>
<!-- Node0x8ed3c90&#45;&gt;Node0x8ed2e70 -->
<g id="edge15" class="edge"><title>Node0x8ed3c90&#45;&gt;Node0x8ed2e70</title>
<path fill="none" stroke="black" d="M433,-97.4817C433,-88.3281 433,-78.4972 433,-69.7155"/>
<polygon fill="black" stroke="black" points="436.5,-69.6402 433,-59.6402 429.5,-69.6403 436.5,-69.6402"/>
</g>
<!-- Node0x8ed3b90&#45;&gt;Node0x8ed3400 -->
<g id="edge16" class="edge"><title>Node0x8ed3b90&#45;&gt;Node0x8ed3400</title>
<path fill="none" stroke="black" d="M643.869,-158.144C660.495,-177.419 679,-205.407 679,-234.5 679,-656.5 679,-656.5 679,-656.5 679,-678.819 667.486,-701.335 656.375,-717.868"/>
<polygon fill="black" stroke="black" points="653.254,-716.218 650.318,-726.398 658.961,-720.27 653.254,-716.218"/>
</g>
</g>
</svg>
