<?xml version="1.0" encoding="UTF-8" standalone="no"?>
<!DOCTYPE svg PUBLIC "-//W3C//DTD SVG 1.1//EN"
 "http://www.w3.org/Graphics/SVG/1.1/DTD/svg11.dtd">
<!-- Generated by graphviz version 2.38.0 (20140413.2041)
 -->
<!-- Title: Control&#45;flow graph for function &#39;mbedtls_mpi_div_int(a1, a2, a3, a4)&#39;. Pages: 1 -->
<svg width="929pt" height="323pt"
 viewBox="0.00 0.00 929.00 323.00" xmlns="http://www.w3.org/2000/svg" xmlns:xlink="http://www.w3.org/1999/xlink">
<g id="graph0" class="graph" transform="scale(1 1) rotate(0) translate(4 319)">
<title>Control&#45;flow graph for function &#39;mbedtls_mpi_div_int(a1, a2, a3, a4)&#39;.</title>
<polygon fill="white" stroke="none" points="-4,4 -4,-319 925,-319 925,4 -4,4"/>
<text text-anchor="middle" x="460.5" y="-7.8" font-family="Times,serif" font-size="14.00">Control&#45;flow graph for function &#39;mbedtls_mpi_div_int(a1, a2, a3, a4)&#39;.</text>
<!-- Node0x17aef810 -->
<g id="node1" class="node"><title>Node0x17aef810</title>
<polygon fill="none" stroke="black" points="431,-231.5 431,-314.5 490,-314.5 490,-231.5 431,-231.5"/>
<text text-anchor="start" x="439" y="-299.3" font-family="Times,serif" font-size="14.00">entry:</text>
<text text-anchor="start" x="439" y="-284.3" font-family="Times,serif" font-size="14.00"> a1</text>
<text text-anchor="start" x="439" y="-269.3" font-family="Times,serif" font-size="14.00"> a2</text>
<text text-anchor="start" x="439" y="-254.3" font-family="Times,serif" font-size="14.00"> a3</text>
<text text-anchor="start" x="439" y="-239.3" font-family="Times,serif" font-size="14.00"> a4</text>
</g>
<!-- Node0x17af0110 -->
<g id="node2" class="node"><title>Node0x17af0110</title>
<polygon fill="none" stroke="black" points="0,-96.5 0,-194.5 921,-194.5 921,-96.5 0,-96.5"/>
<text text-anchor="start" x="8" y="-179.3" font-family="Times,serif" font-size="14.00">v1 = ((a4 &gt;&gt; 31) | 1)</text>
<text text-anchor="start" x="8" y="-164.3" font-family="Times,serif" font-size="14.00"> result = mbedtls_mpi_div_mpi(IntToPtrCastExpr&lt;ptr&gt;(a1), IntToPtrCastExpr&lt;ptr&gt;(a2), IntToPtrCastExpr&lt;ptr&gt;(a3), &amp;(v1))</text>
<text text-anchor="start" x="8" y="-149.3" font-family="Times,serif" font-size="14.00"> g1 = result</text>
<text text-anchor="start" x="8" y="-134.3" font-family="Times,serif" font-size="14.00"> v2</text>
<text text-anchor="start" x="8" y="-119.3" font-family="Times,serif" font-size="14.00"> g2 = v2</text>
<text text-anchor="start" x="8" y="-104.3" font-family="Times,serif" font-size="14.00"> return result</text>
</g>
<!-- Node0x17aef810&#45;&gt;Node0x17af0110 -->
<g id="edge1" class="edge"><title>Node0x17aef810&#45;&gt;Node0x17af0110</title>
<path fill="none" stroke="black" d="M460.5,-231.254C460.5,-222.92 460.5,-213.993 460.5,-205.175"/>
<polygon fill="black" stroke="black" points="464,-204.914 460.5,-194.914 457,-204.914 464,-204.914"/>
</g>
<!-- Node0x17af0850 -->
<g id="node3" class="node"><title>Node0x17af0850</title>
<polygon fill="none" stroke="black" points="433.5,-23.5 433.5,-59.5 487.5,-59.5 487.5,-23.5 433.5,-23.5"/>
<text text-anchor="start" x="441.5" y="-37.8" font-family="Times,serif" font-size="14.00">exit:</text>
</g>
<!-- Node0x17af0110&#45;&gt;Node0x17af0850 -->
<g id="edge2" class="edge"><title>Node0x17af0110&#45;&gt;Node0x17af0850</title>
<path fill="none" stroke="black" d="M460.5,-96.4868C460.5,-87.2893 460.5,-77.9618 460.5,-69.7064"/>
<polygon fill="black" stroke="black" points="464,-69.5725 460.5,-59.5725 457,-69.5725 464,-69.5725"/>
</g>
</g>
</svg>
