<?xml version="1.0" encoding="UTF-8" standalone="no"?>
<!DOCTYPE svg PUBLIC "-//W3C//DTD SVG 1.1//EN"
 "http://www.w3.org/Graphics/SVG/1.1/DTD/svg11.dtd">
<!-- Generated by graphviz version 2.38.0 (20140413.2041)
 -->
<!-- Title: Control&#45;flow graph for function &#39;mbedtls_oid_get_ec_grp(a1, *a2)&#39;. Pages: 1 -->
<svg width="1257pt" height="1242pt"
 viewBox="0.00 0.00 1256.50 1242.00" xmlns="http://www.w3.org/2000/svg" xmlns:xlink="http://www.w3.org/1999/xlink">
<g id="graph0" class="graph" transform="scale(1 1) rotate(0) translate(4 1238)">
<title>Control&#45;flow graph for function &#39;mbedtls_oid_get_ec_grp(a1, *a2)&#39;.</title>
<polygon fill="white" stroke="none" points="-4,4 -4,-1238 1252.5,-1238 1252.5,4 -4,4"/>
<text text-anchor="middle" x="624.25" y="-7.8" font-family="Times,serif" font-size="14.00">Control&#45;flow graph for function &#39;mbedtls_oid_get_ec_grp(a1, *a2)&#39;.</text>
<!-- Node0xaa2e540 -->
<g id="node1" class="node"><title>Node0xaa2e540</title>
<polygon fill="none" stroke="black" points="271,-1180.5 271,-1233.5 330,-1233.5 330,-1180.5 271,-1180.5"/>
<text text-anchor="start" x="279" y="-1218.3" font-family="Times,serif" font-size="14.00">entry:</text>
<text text-anchor="start" x="279" y="-1203.3" font-family="Times,serif" font-size="14.00"> a1</text>
<text text-anchor="start" x="279" y="-1188.3" font-family="Times,serif" font-size="14.00"> a2</text>
</g>
<!-- Node0xcd8dcf0 -->
<g id="node2" class="node"><title>Node0xcd8dcf0</title>
<polygon fill="none" stroke="black" points="245.5,-1104.5 245.5,-1142.5 355.5,-1142.5 355.5,-1104.5 245.5,-1104.5"/>
<text text-anchor="start" x="253.5" y="-1127.3" font-family="Times,serif" font-size="14.00">0x80632b0:</text>
<text text-anchor="start" x="253.5" y="-1112.3" font-family="Times,serif" font-size="14.00"> if (a1 == 0):</text>
</g>
<!-- Node0xaa2e540&#45;&gt;Node0xcd8dcf0 -->
<g id="edge1" class="edge"><title>Node0xaa2e540&#45;&gt;Node0xcd8dcf0</title>
<path fill="none" stroke="black" d="M300.5,-1180.21C300.5,-1171.53 300.5,-1161.79 300.5,-1152.91"/>
<polygon fill="black" stroke="black" points="304,-1152.64 300.5,-1142.64 297,-1152.64 304,-1152.64"/>
</g>
<!-- Node0xaa30ef0 -->
<g id="node3" class="node"><title>Node0xaa30ef0</title>
<polygon fill="none" stroke="black" points="0,-912.5 0,-950.5 101,-950.5 101,-912.5 0,-912.5"/>
<text text-anchor="start" x="8" y="-935.3" font-family="Times,serif" font-size="14.00">0x8063310:</text>
<text text-anchor="start" x="8" y="-920.3" font-family="Times,serif" font-size="14.00"> return &#45;46</text>
</g>
<!-- Node0xcd8dcf0&#45;&gt;Node0xaa30ef0 -->
<g id="edge2" class="edge"><title>Node0xcd8dcf0&#45;&gt;Node0xaa30ef0</title>
<path fill="none" stroke="black" d="M276.529,-1104.28C231.264,-1069.88 133.205,-995.356 82.4229,-956.761"/>
<polygon fill="black" stroke="black" points="84.4779,-953.927 74.3985,-950.663 80.2423,-959.5 84.4779,-953.927"/>
<text text-anchor="middle" x="281.5" y="-1074.8" font-family="Times,serif" font-size="14.00">a1 == 0</text>
</g>
<!-- Node0xaa30cf0 -->
<g id="node4" class="node"><title>Node0xaa30cf0</title>
<polygon fill="none" stroke="black" points="627.5,-969.5 627.5,-1052.5 945.5,-1052.5 945.5,-969.5 627.5,-969.5"/>
<text text-anchor="start" x="635.5" y="-1037.3" font-family="Times,serif" font-size="14.00">v1 = *(IntToPtrCastExpr&lt;ptr&gt;((a1 + 4)))</text>
<text text-anchor="start" x="635.5" y="-1022.3" font-family="Times,serif" font-size="14.00"> v2 = PtrToIntCastExpr&lt;int32&gt;(&amp;(g113))</text>
<text text-anchor="start" x="635.5" y="-1007.3" font-family="Times,serif" font-size="14.00"> str = &amp;(g107)</text>
<text text-anchor="start" x="635.5" y="-992.3" font-family="Times,serif" font-size="14.00"> n = v1</text>
<text text-anchor="start" x="635.5" y="-977.3" font-family="Times,serif" font-size="14.00"> v3 = PtrToIntCastExpr&lt;int32&gt;(&amp;(g113))</text>
</g>
<!-- Node0xcd8dcf0&#45;&gt;Node0xaa30cf0 -->
<g id="edge3" class="edge"><title>Node0xcd8dcf0&#45;&gt;Node0xaa30cf0</title>
<path fill="none" stroke="black" d="M355.777,-1109.93C419.149,-1095.52 526.071,-1071.21 617.527,-1050.42"/>
<polygon fill="black" stroke="black" points="618.485,-1053.79 627.46,-1048.16 616.933,-1046.96 618.485,-1053.79"/>
<text text-anchor="middle" x="541.5" y="-1074.8" font-family="Times,serif" font-size="14.00">a1 != 0</text>
</g>
<!-- Node0x9c79820 -->
<g id="node5" class="node"><title>Node0x9c79820</title>
<polygon fill="none" stroke="black" points="461.5,-23.5 461.5,-59.5 515.5,-59.5 515.5,-23.5 461.5,-23.5"/>
<text text-anchor="start" x="469.5" y="-37.8" font-family="Times,serif" font-size="14.00">exit:</text>
</g>
<!-- Node0xaa30ef0&#45;&gt;Node0x9c79820 -->
<g id="edge4" class="edge"><title>Node0xaa30ef0&#45;&gt;Node0x9c79820</title>
<path fill="none" stroke="black" d="M35.9453,-912.179C22.4688,-893.335 4.5,-862.572 4.5,-832.5 4.5,-832.5 4.5,-832.5 4.5,-130.5 4.5,-85.1501 337.672,-54.4755 451.162,-45.3421"/>
<polygon fill="black" stroke="black" points="451.75,-48.8066 461.441,-44.5257 451.195,-41.8285 451.75,-48.8066"/>
</g>
<!-- Node0xaa30de0 -->
<g id="node6" class="node"><title>Node0xaa30de0</title>
<polygon fill="none" stroke="black" points="853,-857.5 853,-893.5 950,-893.5 950,-857.5 853,-857.5"/>
<text text-anchor="start" x="861" y="-871.8" font-family="Times,serif" font-size="14.00">while True:</text>
</g>
<!-- Node0xaa30cf0&#45;&gt;Node0xaa30de0 -->
<g id="edge5" class="edge"><title>Node0xaa30cf0&#45;&gt;Node0xaa30de0</title>
<path fill="none" stroke="black" d="M821.629,-969.22C840.702,-947.079 863.665,-920.421 880.065,-901.383"/>
<polygon fill="black" stroke="black" points="882.786,-903.587 886.661,-893.726 877.482,-899.019 882.786,-903.587"/>
</g>
<!-- Node0xaa31040 -->
<g id="node7" class="node"><title>Node0xaa31040</title>
<polygon fill="none" stroke="black" points="865.5,-769.5 865.5,-805.5 937.5,-805.5 937.5,-769.5 865.5,-769.5"/>
<text text-anchor="start" x="873.5" y="-783.8" font-family="Times,serif" font-size="14.00">v4 = v3</text>
</g>
<!-- Node0xaa30de0&#45;&gt;Node0xaa31040 -->
<g id="edge6" class="edge"><title>Node0xaa30de0&#45;&gt;Node0xaa31040</title>
<path fill="none" stroke="black" d="M901.5,-857.097C901.5,-845.246 901.5,-829.317 901.5,-815.792"/>
<polygon fill="black" stroke="black" points="905,-815.584 901.5,-805.584 898,-815.584 905,-815.584"/>
<text text-anchor="middle" x="918.5" y="-827.8" font-family="Times,serif" font-size="14.00">True</text>
</g>
<!-- Node0xaa30c90 -->
<g id="node8" class="node"><title>Node0xaa30c90</title>
<polygon fill="none" stroke="black" points="728,-695.5 728,-731.5 1075,-731.5 1075,-695.5 728,-695.5"/>
<text text-anchor="start" x="736" y="-709.8" font-family="Times,serif" font-size="14.00">if (n == *(IntToPtrCastExpr&lt;ptr&gt;((v3 + 4)))):</text>
</g>
<!-- Node0xaa31040&#45;&gt;Node0xaa30c90 -->
<g id="edge7" class="edge"><title>Node0xaa31040&#45;&gt;Node0xaa30c90</title>
<path fill="none" stroke="black" d="M901.5,-769.437C901.5,-761.307 901.5,-751.376 901.5,-742.205"/>
<polygon fill="black" stroke="black" points="905,-741.941 901.5,-731.941 898,-741.941 905,-741.941"/>
</g>
<!-- Node0xaa31c00 -->
<g id="node9" class="node"><title>Node0xaa31c00</title>
<polygon fill="none" stroke="black" points="32,-575.5 32,-643.5 897,-643.5 897,-575.5 32,-575.5"/>
<text text-anchor="start" x="40" y="-628.3" font-family="Times,serif" font-size="14.00">strncmp_rc = strncmp(IntToPtrCastExpr&lt;ptr&gt;(str), IntToPtrCastExpr&lt;ptr&gt;(*(IntToPtrCastExpr&lt;ptr&gt;((a1 + 8)))), n)</text>
<text text-anchor="start" x="40" y="-613.3" font-family="Times,serif" font-size="14.00"> g4 = strncmp_rc</text>
<text text-anchor="start" x="40" y="-598.3" font-family="Times,serif" font-size="14.00"> g237 = ((strncmp_rc % 2) == 0)</text>
<text text-anchor="start" x="40" y="-583.3" font-family="Times,serif" font-size="14.00"> v5 = v2</text>
</g>
<!-- Node0xaa30c90&#45;&gt;Node0xaa31c00 -->
<g id="edge8" class="edge"><title>Node0xaa30c90&#45;&gt;Node0xaa31c00</title>
<path fill="none" stroke="black" d="M727.746,-700.506C688.085,-695.279 646.455,-687.775 608.5,-677 583.36,-669.863 557.07,-658.879 533.937,-647.881"/>
<polygon fill="black" stroke="black" points="535.428,-644.714 524.902,-643.509 532.379,-651.015 535.428,-644.714"/>
<text text-anchor="middle" x="759.5" y="-665.8" font-family="Times,serif" font-size="14.00">n == *(IntToPtrCastExpr&lt;ptr&gt;((v3 + 4)))</text>
</g>
<!-- Node0xaa315d0 -->
<g id="node10" class="node"><title>Node0xaa315d0</title>
<polygon fill="none" stroke="black" points="771.5,-293.5 771.5,-361.5 1049.5,-361.5 1049.5,-293.5 771.5,-293.5"/>
<text text-anchor="start" x="779.5" y="-346.3" font-family="Times,serif" font-size="14.00">v6 = (v4 + 20)</text>
<text text-anchor="start" x="779.5" y="-331.3" font-family="Times,serif" font-size="14.00"> v2 = v6</text>
<text text-anchor="start" x="779.5" y="-316.3" font-family="Times,serif" font-size="14.00"> v7 = *(IntToPtrCastExpr&lt;ptr&gt;(v6))</text>
<text text-anchor="start" x="779.5" y="-301.3" font-family="Times,serif" font-size="14.00"> g4 = v6</text>
</g>
<!-- Node0xaa30c90&#45;&gt;Node0xaa315d0 -->
<g id="edge9" class="edge"><title>Node0xaa30c90&#45;&gt;Node0xaa315d0</title>
<path fill="none" stroke="black" d="M907.785,-695.439C914.595,-675.394 924.5,-640.997 924.5,-610.5 924.5,-610.5 924.5,-610.5 924.5,-430.5 924.5,-411.135 921.993,-389.892 919.1,-371.83"/>
<polygon fill="black" stroke="black" points="922.536,-371.155 917.418,-361.878 915.634,-372.322 922.536,-371.155"/>
<text text-anchor="middle" x="1072.5" y="-515.8" font-family="Times,serif" font-size="14.00">n != *(IntToPtrCastExpr&lt;ptr&gt;((v3 + 4)))</text>
</g>
<!-- Node0xaa31c80 -->
<g id="node11" class="node"><title>Node0xaa31c80</title>
<polygon fill="none" stroke="black" points="474.5,-501.5 474.5,-537.5 686.5,-537.5 686.5,-501.5 474.5,-501.5"/>
<text text-anchor="start" x="482.5" y="-515.8" font-family="Times,serif" font-size="14.00">if ((strncmp_rc % 2) == 0):</text>
</g>
<!-- Node0xaa31c00&#45;&gt;Node0xaa31c80 -->
<g id="edge10" class="edge"><title>Node0xaa31c00&#45;&gt;Node0xaa31c80</title>
<path fill="none" stroke="black" d="M508.024,-575.482C521.947,-564.92 537.058,-553.456 549.861,-543.743"/>
<polygon fill="black" stroke="black" points="552.055,-546.473 557.906,-537.64 547.824,-540.896 552.055,-546.473"/>
</g>
<!-- Node0xaa30e40 -->
<g id="node12" class="node"><title>Node0xaa30e40</title>
<polygon fill="none" stroke="black" points="858,-218.5 858,-254.5 963,-254.5 963,-218.5 858,-218.5"/>
<text text-anchor="start" x="866" y="-232.8" font-family="Times,serif" font-size="14.00">if (v7 == 0):</text>
</g>
<!-- Node0xaa315d0&#45;&gt;Node0xaa30e40 -->
<g id="edge11" class="edge"><title>Node0xaa315d0&#45;&gt;Node0xaa30e40</title>
<path fill="none" stroke="black" d="M910.5,-293.36C910.5,-284.084 910.5,-274.102 910.5,-265.179"/>
<polygon fill="black" stroke="black" points="914,-264.938 910.5,-254.938 907,-264.938 914,-264.938"/>
</g>
<!-- Node0x14430d20 -->
<g id="node13" class="node"><title>Node0x14430d20</title>
<polygon fill="none" stroke="black" points="525.5,-217.5 525.5,-255.5 635.5,-255.5 635.5,-217.5 525.5,-217.5"/>
<text text-anchor="start" x="533.5" y="-240.3" font-family="Times,serif" font-size="14.00">0x80632f6:</text>
<text text-anchor="start" x="533.5" y="-225.3" font-family="Times,serif" font-size="14.00"> if (v5 == 0):</text>
</g>
<!-- Node0xaa31c80&#45;&gt;Node0x14430d20 -->
<g id="edge12" class="edge"><title>Node0xaa31c80&#45;&gt;Node0x14430d20</title>
<path fill="none" stroke="black" d="M580.5,-501.345C580.5,-454.441 580.5,-323.707 580.5,-265.765"/>
<polygon fill="black" stroke="black" points="584,-265.511 580.5,-255.511 577,-265.511 584,-265.511"/>
<text text-anchor="middle" x="664" y="-383.8" font-family="Times,serif" font-size="14.00">(strncmp_rc % 2) == 0</text>
</g>
<!-- Node0x14430bd0 -->
<g id="node14" class="node"><title>Node0x14430bd0</title>
<polygon fill="none" stroke="black" points="713.5,-413.5 713.5,-449.5 785.5,-449.5 785.5,-413.5 713.5,-413.5"/>
<text text-anchor="start" x="721.5" y="-427.8" font-family="Times,serif" font-size="14.00">v4 = v5</text>
</g>
<!-- Node0xaa31c80&#45;&gt;Node0x14430bd0 -->
<g id="edge13" class="edge"><title>Node0xaa31c80&#45;&gt;Node0x14430bd0</title>
<path fill="none" stroke="black" d="M614.293,-501.303C640.977,-487.724 678.367,-468.698 707.066,-454.094"/>
<polygon fill="black" stroke="black" points="708.728,-457.175 716.053,-449.52 705.554,-450.936 708.728,-457.175"/>
<text text-anchor="middle" x="755" y="-471.8" font-family="Times,serif" font-size="14.00">(strncmp_rc % 2) != 0</text>
</g>
<!-- Node0x14430c80 -->
<g id="node15" class="node"><title>Node0x14430c80</title>
<polygon fill="none" stroke="black" points="804,-112.5 804,-150.5 905,-150.5 905,-112.5 804,-112.5"/>
<text text-anchor="start" x="812" y="-135.3" font-family="Times,serif" font-size="14.00">0x8063310:</text>
<text text-anchor="start" x="812" y="-120.3" font-family="Times,serif" font-size="14.00"> return &#45;46</text>
</g>
<!-- Node0xaa30e40&#45;&gt;Node0x14430c80 -->
<g id="edge14" class="edge"><title>Node0xaa30e40&#45;&gt;Node0x14430c80</title>
<path fill="none" stroke="black" d="M901.253,-218.492C892.536,-202.459 879.332,-178.172 869.176,-159.494"/>
<polygon fill="black" stroke="black" points="872.178,-157.688 864.327,-150.574 866.028,-161.031 872.178,-157.688"/>
<text text-anchor="middle" x="918.5" y="-187.8" font-family="Times,serif" font-size="14.00">v7 == 0</text>
</g>
<!-- Node0xaa317e0 -->
<g id="node16" class="node"><title>Node0xaa317e0</title>
<polygon fill="none" stroke="black" points="1104,-97.5 1104,-165.5 1205,-165.5 1205,-97.5 1104,-97.5"/>
<text text-anchor="start" x="1112" y="-150.3" font-family="Times,serif" font-size="14.00">0x80632d8:</text>
<text text-anchor="start" x="1112" y="-135.3" font-family="Times,serif" font-size="14.00"> str = v7</text>
<text text-anchor="start" x="1112" y="-120.3" font-family="Times,serif" font-size="14.00"> n = v1</text>
<text text-anchor="start" x="1112" y="-105.3" font-family="Times,serif" font-size="14.00"> v3 = v6</text>
</g>
<!-- Node0xaa30e40&#45;&gt;Node0xaa317e0 -->
<g id="edge15" class="edge"><title>Node0xaa30e40&#45;&gt;Node0xaa317e0</title>
<path fill="none" stroke="black" d="M950.792,-218.492C989.966,-201.955 1049.94,-176.637 1094.69,-157.75"/>
<polygon fill="black" stroke="black" points="1096.14,-160.936 1103.99,-153.822 1093.42,-154.487 1096.14,-160.936"/>
<text text-anchor="middle" x="1059.5" y="-187.8" font-family="Times,serif" font-size="14.00">v7 != 0</text>
</g>
<!-- Node0xaa31630 -->
<g id="node17" class="node"><title>Node0xaa31630</title>
<polygon fill="none" stroke="black" points="318,-112.5 318,-150.5 419,-150.5 419,-112.5 318,-112.5"/>
<text text-anchor="start" x="326" y="-135.3" font-family="Times,serif" font-size="14.00">0x8063310:</text>
<text text-anchor="start" x="326" y="-120.3" font-family="Times,serif" font-size="14.00"> return &#45;46</text>
</g>
<!-- Node0x14430d20&#45;&gt;Node0xaa31630 -->
<g id="edge16" class="edge"><title>Node0x14430d20&#45;&gt;Node0xaa31630</title>
<path fill="none" stroke="black" d="M538.459,-217.365C507.7,-203.835 465.124,-184.56 428.5,-166 421.988,-162.7 415.162,-159.064 408.543,-155.441"/>
<polygon fill="black" stroke="black" points="410.139,-152.324 399.695,-150.541 406.748,-158.447 410.139,-152.324"/>
<text text-anchor="middle" x="525.5" y="-187.8" font-family="Times,serif" font-size="14.00">v5 == 0</text>
</g>
<!-- Node0x14431020 -->
<g id="node18" class="node"><title>Node0x14431020</title>
<polygon fill="none" stroke="black" points="437.5,-105 437.5,-158 783.5,-158 783.5,-105 437.5,-105"/>
<text text-anchor="start" x="445.5" y="-142.8" font-family="Times,serif" font-size="14.00">0x80632fa:</text>
<text text-anchor="start" x="445.5" y="-127.8" font-family="Times,serif" font-size="14.00"> *(a2) = *(IntToPtrCastExpr&lt;ptr&gt;((v5 + 16)))</text>
<text text-anchor="start" x="445.5" y="-112.8" font-family="Times,serif" font-size="14.00"> return 0</text>
</g>
<!-- Node0x14430d20&#45;&gt;Node0x14431020 -->
<g id="edge17" class="edge"><title>Node0x14430d20&#45;&gt;Node0x14431020</title>
<path fill="none" stroke="black" d="M585.863,-217.086C589.827,-203.477 595.348,-184.523 600.159,-168.005"/>
<polygon fill="black" stroke="black" points="603.606,-168.685 603.042,-158.105 596.885,-166.728 603.606,-168.685"/>
<text text-anchor="middle" x="622.5" y="-187.8" font-family="Times,serif" font-size="14.00">v5 != 0</text>
</g>
<!-- Node0x14430bd0&#45;&gt;Node0xaa315d0 -->
<g id="edge18" class="edge"><title>Node0x14430bd0&#45;&gt;Node0xaa315d0</title>
<path fill="none" stroke="black" d="M776.448,-413.427C796.474,-400.74 824.592,-382.926 849.907,-366.888"/>
<polygon fill="black" stroke="black" points="851.795,-369.835 858.37,-361.527 848.049,-363.922 851.795,-369.835"/>
</g>
<!-- Node0x14430c80&#45;&gt;Node0x9c79820 -->
<g id="edge19" class="edge"><title>Node0x14430c80&#45;&gt;Node0x9c79820</title>
<path fill="none" stroke="black" d="M825.735,-112.492C815.556,-106.794 803.818,-100.958 792.5,-97 699.824,-64.5933 584.2,-50.6631 525.867,-45.3575"/>
<polygon fill="black" stroke="black" points="525.927,-41.8495 515.66,-44.4647 525.317,-48.8229 525.927,-41.8495"/>
</g>
<!-- Node0xaa317e0&#45;&gt;Node0xaa30de0 -->
<g id="edge20" class="edge"><title>Node0xaa317e0&#45;&gt;Node0xaa30de0</title>
<path fill="none" stroke="black" d="M1205.08,-163.561C1227.33,-181.391 1248.5,-206.086 1248.5,-235.5 1248.5,-788.5 1248.5,-788.5 1248.5,-788.5 1248.5,-847.17 1059.25,-866.088 960.271,-871.969"/>
<polygon fill="black" stroke="black" points="959.9,-868.485 950.114,-872.546 960.297,-875.473 959.9,-868.485"/>
</g>
<!-- Node0xaa31630&#45;&gt;Node0x9c79820 -->
<g id="edge21" class="edge"><title>Node0xaa31630&#45;&gt;Node0x9c79820</title>
<path fill="none" stroke="black" d="M393.073,-112.48C411.553,-98.9279 437.017,-80.2539 456.994,-65.6046"/>
<polygon fill="black" stroke="black" points="459.188,-68.3355 465.183,-59.5994 455.049,-62.6906 459.188,-68.3355"/>
</g>
<!-- Node0x14431020&#45;&gt;Node0x9c79820 -->
<g id="edge22" class="edge"><title>Node0x14431020&#45;&gt;Node0x9c79820</title>
<path fill="none" stroke="black" d="M574.885,-104.81C557.755,-92.4548 537.376,-77.7549 520.714,-65.7366"/>
<polygon fill="black" stroke="black" points="522.535,-62.7343 512.377,-59.7228 518.44,-68.4115 522.535,-62.7343"/>
</g>
</g>
</svg>
