<?xml version="1.0" encoding="UTF-8" standalone="no"?>
<!DOCTYPE svg PUBLIC "-//W3C//DTD SVG 1.1//EN"
 "http://www.w3.org/Graphics/SVG/1.1/DTD/svg11.dtd">
<!-- Generated by graphviz version 2.38.0 (20140413.2041)
 -->
<!-- Title: Control&#45;flow graph for function &#39;mbedtls_rsa_pkcs1_sign(a1, a2, a3, a4, a5, a6, a7, a8)&#39;. Pages: 1 -->
<svg width="2036pt" height="910pt"
 viewBox="0.00 0.00 2036.00 910.00" xmlns="http://www.w3.org/2000/svg" xmlns:xlink="http://www.w3.org/1999/xlink">
<g id="graph0" class="graph" transform="scale(1 1) rotate(0) translate(4 906)">
<title>Control&#45;flow graph for function &#39;mbedtls_rsa_pkcs1_sign(a1, a2, a3, a4, a5, a6, a7, a8)&#39;.</title>
<polygon fill="white" stroke="none" points="-4,4 -4,-906 2032,-906 2032,4 -4,4"/>
<text text-anchor="middle" x="1014" y="-7.8" font-family="Times,serif" font-size="14.00">Control&#45;flow graph for function &#39;mbedtls_rsa_pkcs1_sign(a1, a2, a3, a4, a5, a6, a7, a8)&#39;.</text>
<!-- Node0xcc36100 -->
<g id="node1" class="node"><title>Node0xcc36100</title>
<polygon fill="none" stroke="black" points="1097,-758.5 1097,-901.5 1156,-901.5 1156,-758.5 1097,-758.5"/>
<text text-anchor="start" x="1105" y="-886.3" font-family="Times,serif" font-size="14.00">entry:</text>
<text text-anchor="start" x="1105" y="-871.3" font-family="Times,serif" font-size="14.00"> a1</text>
<text text-anchor="start" x="1105" y="-856.3" font-family="Times,serif" font-size="14.00"> a2</text>
<text text-anchor="start" x="1105" y="-841.3" font-family="Times,serif" font-size="14.00"> a3</text>
<text text-anchor="start" x="1105" y="-826.3" font-family="Times,serif" font-size="14.00"> a4</text>
<text text-anchor="start" x="1105" y="-811.3" font-family="Times,serif" font-size="14.00"> a5</text>
<text text-anchor="start" x="1105" y="-796.3" font-family="Times,serif" font-size="14.00"> a6</text>
<text text-anchor="start" x="1105" y="-781.3" font-family="Times,serif" font-size="14.00"> a7</text>
<text text-anchor="start" x="1105" y="-766.3" font-family="Times,serif" font-size="14.00"> a8</text>
</g>
<!-- Node0xbf400f0 -->
<g id="node2" class="node"><title>Node0xbf400f0</title>
<polygon fill="none" stroke="black" points="958,-562.5 958,-720.5 1295,-720.5 1295,-562.5 958,-562.5"/>
<text text-anchor="start" x="966" y="-705.3" font-family="Times,serif" font-size="14.00">v1 = g3</text>
<text text-anchor="start" x="966" y="-690.3" font-family="Times,serif" font-size="14.00"> g4 = a5</text>
<text text-anchor="start" x="966" y="-675.3" font-family="Times,serif" font-size="14.00"> v2 = g7</text>
<text text-anchor="start" x="966" y="-660.3" font-family="Times,serif" font-size="14.00"> g3 = a6</text>
<text text-anchor="start" x="966" y="-645.3" font-family="Times,serif" font-size="14.00"> v3 = g5</text>
<text text-anchor="start" x="966" y="-630.3" font-family="Times,serif" font-size="14.00"> v4 = *(IntToPtrCastExpr&lt;ptr&gt;((a1 + 164)))</text>
<text text-anchor="start" x="966" y="-615.3" font-family="Times,serif" font-size="14.00"> v5 = a1</text>
<text text-anchor="start" x="966" y="-600.3" font-family="Times,serif" font-size="14.00"> v6 = v4</text>
<text text-anchor="start" x="966" y="-585.3" font-family="Times,serif" font-size="14.00"> v7</text>
<text text-anchor="start" x="966" y="-570.3" font-family="Times,serif" font-size="14.00"> v8</text>
</g>
<!-- Node0xcc36100&#45;&gt;Node0xbf400f0 -->
<g id="edge1" class="edge"><title>Node0xcc36100&#45;&gt;Node0xbf400f0</title>
<path fill="none" stroke="black" d="M1126.5,-758.492C1126.5,-749.402 1126.5,-740.005 1126.5,-730.675"/>
<polygon fill="black" stroke="black" points="1130,-730.597 1126.5,-720.597 1123,-730.597 1130,-730.597"/>
</g>
<!-- Node0x17ca2cc0 -->
<g id="node3" class="node"><title>Node0x17ca2cc0</title>
<polygon fill="none" stroke="black" points="1074,-488.5 1074,-524.5 1179,-524.5 1179,-488.5 1074,-488.5"/>
<text text-anchor="start" x="1082" y="-502.8" font-family="Times,serif" font-size="14.00">if (v4 == 0):</text>
</g>
<!-- Node0xbf400f0&#45;&gt;Node0x17ca2cc0 -->
<g id="edge2" class="edge"><title>Node0xbf400f0&#45;&gt;Node0x17ca2cc0</title>
<path fill="none" stroke="black" d="M1126.5,-562.364C1126.5,-552.457 1126.5,-542.905 1126.5,-534.625"/>
<polygon fill="black" stroke="black" points="1130,-534.552 1126.5,-524.552 1123,-534.552 1130,-534.552"/>
</g>
<!-- Node0x99dd990 -->
<g id="node4" class="node"><title>Node0x99dd990</title>
<polygon fill="none" stroke="black" points="0,-323.5 0,-436.5 1257,-436.5 1257,-323.5 0,-323.5"/>
<text text-anchor="start" x="8" y="-421.3" font-family="Times,serif" font-size="14.00">0x805092a:</text>
<text text-anchor="start" x="8" y="-406.3" font-family="Times,serif" font-size="14.00"> g5 = v3</text>
<text text-anchor="start" x="8" y="-391.3" font-family="Times,serif" font-size="14.00"> g7 = v2</text>
<text text-anchor="start" x="8" y="-376.3" font-family="Times,serif" font-size="14.00"> g3 = v1</text>
<text text-anchor="start" x="8" y="-361.3" font-family="Times,serif" font-size="14.00"> g6 = a2</text>
<text text-anchor="start" x="8" y="-346.3" font-family="Times,serif" font-size="14.00"> v5 = mbedtls_rsa_rsassa_pkcs1_v15_sign(IntToPtrCastExpr&lt;ptr&gt;(v8), IntToPtrCastExpr&lt;ptr&gt;(v7), a1, a2, a3, TruncCastExpr&lt;int8&gt;(a4), a5, IntToPtrCastExpr&lt;ptr&gt;(a6))</text>
<text text-anchor="start" x="8" y="-331.3" font-family="Times,serif" font-size="14.00"> v6 = g6</text>
</g>
<!-- Node0x17ca2cc0&#45;&gt;Node0x99dd990 -->
<g id="edge3" class="edge"><title>Node0x17ca2cc0&#45;&gt;Node0x99dd990</title>
<path fill="none" stroke="black" d="M1073.68,-492.294C1022.14,-479.41 940.068,-458.892 860.351,-438.963"/>
<polygon fill="black" stroke="black" points="861.194,-435.566 850.643,-436.536 859.496,-442.357 861.194,-435.566"/>
<text text-anchor="middle" x="1009.5" y="-458.8" font-family="Times,serif" font-size="14.00">v4 == 0</text>
</g>
<!-- Node0x17ca1ab0 -->
<g id="node5" class="node"><title>Node0x17ca1ab0</title>
<polygon fill="none" stroke="black" points="1068.5,-247.5 1068.5,-285.5 1172.5,-285.5 1172.5,-247.5 1068.5,-247.5"/>
<text text-anchor="start" x="1076.5" y="-270.3" font-family="Times,serif" font-size="14.00">0x8050960:</text>
<text text-anchor="start" x="1076.5" y="-255.3" font-family="Times,serif" font-size="14.00"> if (v6 != 1):</text>
</g>
<!-- Node0x17ca2cc0&#45;&gt;Node0x17ca1ab0 -->
<g id="edge4" class="edge"><title>Node0x17ca2cc0&#45;&gt;Node0x17ca1ab0</title>
<path fill="none" stroke="black" d="M1179.19,-494.189C1210.1,-484.555 1246.67,-467.269 1265.5,-437 1292.26,-393.977 1294.22,-364.742 1265.5,-323 1246.83,-295.866 1212.95,-281.991 1182.63,-274.898"/>
<polygon fill="black" stroke="black" points="1183.03,-271.403 1172.52,-272.744 1181.57,-278.25 1183.03,-271.403"/>
<text text-anchor="middle" x="1313.5" y="-376.3" font-family="Times,serif" font-size="14.00">v4 != 0</text>
</g>
<!-- Node0x99dd990&#45;&gt;Node0x17ca1ab0 -->
<g id="edge5" class="edge"><title>Node0x99dd990&#45;&gt;Node0x17ca1ab0</title>
<path fill="none" stroke="black" d="M873.419,-323.495C942.25,-307.896 1011.19,-292.272 1058.69,-281.507"/>
<polygon fill="black" stroke="black" points="1059.52,-284.909 1068.5,-279.285 1057.97,-278.082 1059.52,-284.909"/>
</g>
<!-- Node0xbf3ec50 -->
<g id="node6" class="node"><title>Node0xbf3ec50</title>
<polygon fill="none" stroke="black" points="904.5,-105 904.5,-188 1014.5,-188 1014.5,-105 904.5,-105"/>
<text text-anchor="start" x="912.5" y="-172.8" font-family="Times,serif" font-size="14.00">0x8050965:</text>
<text text-anchor="start" x="912.5" y="-157.8" font-family="Times,serif" font-size="14.00"> g3 = v1</text>
<text text-anchor="start" x="912.5" y="-142.8" font-family="Times,serif" font-size="14.00"> g1 = &#45;16640</text>
<text text-anchor="start" x="912.5" y="-127.8" font-family="Times,serif" font-size="14.00"> g5 = v3</text>
<text text-anchor="start" x="912.5" y="-112.8" font-family="Times,serif" font-size="14.00"> return</text>
</g>
<!-- Node0x17ca1ab0&#45;&gt;Node0xbf3ec50 -->
<g id="edge6" class="edge"><title>Node0x17ca1ab0&#45;&gt;Node0xbf3ec50</title>
<path fill="none" stroke="black" d="M1095.16,-247.308C1075.76,-233.344 1048.37,-213.547 1024.5,-196 1023.62,-195.354 1022.74,-194.702 1021.84,-194.046"/>
<polygon fill="black" stroke="black" points="1023.84,-191.173 1013.72,-188.048 1019.69,-196.804 1023.84,-191.173"/>
<text text-anchor="middle" x="1096.5" y="-217.8" font-family="Times,serif" font-size="14.00">v6 != 1</text>
</g>
<!-- Node0x17ca1c20 -->
<g id="node7" class="node"><title>Node0x17ca1c20</title>
<polygon fill="none" stroke="black" points="1033,-97.5 1033,-195.5 2028,-195.5 2028,-97.5 1033,-97.5"/>
<text text-anchor="start" x="1041" y="-180.3" font-family="Times,serif" font-size="14.00">0x8050978:</text>
<text text-anchor="start" x="1041" y="-165.3" font-family="Times,serif" font-size="14.00"> g5 = v3</text>
<text text-anchor="start" x="1041" y="-150.3" font-family="Times,serif" font-size="14.00"> g7 = v2</text>
<text text-anchor="start" x="1041" y="-135.3" font-family="Times,serif" font-size="14.00"> v9 = g3</text>
<text text-anchor="start" x="1041" y="-120.3" font-family="Times,serif" font-size="14.00"> g3 = v1</text>
<text text-anchor="start" x="1041" y="-105.3" font-family="Times,serif" font-size="14.00"> mbedtls_rsa_rsassa_pss_sign(IntToPtrCastExpr&lt;ptr&gt;(v8), IntToPtrCastExpr&lt;ptr&gt;(v7), v5, a2, a3, a4, g4, IntToPtrCastExpr&lt;ptr&gt;(v9))</text>
</g>
<!-- Node0x17ca1ab0&#45;&gt;Node0x17ca1c20 -->
<g id="edge7" class="edge"><title>Node0x17ca1ab0&#45;&gt;Node0x17ca1c20</title>
<path fill="none" stroke="black" d="M1172.84,-250.435C1218.73,-237.23 1288.15,-217.249 1353.67,-198.394"/>
<polygon fill="black" stroke="black" points="1354.66,-201.75 1363.3,-195.621 1352.72,-195.023 1354.66,-201.75"/>
<text text-anchor="middle" x="1319.5" y="-217.8" font-family="Times,serif" font-size="14.00">v6 == 1</text>
</g>
<!-- Node0xbf40090 -->
<g id="node8" class="node"><title>Node0xbf40090</title>
<polygon fill="none" stroke="black" points="1285.5,-23.5 1285.5,-59.5 1339.5,-59.5 1339.5,-23.5 1285.5,-23.5"/>
<text text-anchor="start" x="1293.5" y="-37.8" font-family="Times,serif" font-size="14.00">exit:</text>
</g>
<!-- Node0xbf3ec50&#45;&gt;Node0xbf40090 -->
<g id="edge8" class="edge"><title>Node0xbf3ec50&#45;&gt;Node0xbf40090</title>
<path fill="none" stroke="black" d="M1009.6,-104.796C1014.47,-101.871 1019.47,-99.2091 1024.5,-97 1108.97,-59.8811 1218.26,-48.0029 1274.83,-44.2315"/>
<polygon fill="black" stroke="black" points="1275.33,-47.7077 1285.1,-43.5987 1274.9,-40.7209 1275.33,-47.7077"/>
</g>
<!-- Node0x17ca1c20&#45;&gt;Node0xbf40090 -->
<g id="edge9" class="edge"><title>Node0x17ca1c20&#45;&gt;Node0xbf40090</title>
<path fill="none" stroke="black" d="M1428.84,-97.4679C1400.22,-83.945 1370.92,-70.1017 1348.88,-59.6904"/>
<polygon fill="black" stroke="black" points="1350.14,-56.4134 1339.6,-55.306 1347.15,-62.7425 1350.14,-56.4134"/>
</g>
</g>
</svg>
