<?xml version="1.0" encoding="UTF-8" standalone="no"?>
<!DOCTYPE svg PUBLIC "-//W3C//DTD SVG 1.1//EN"
 "http://www.w3.org/Graphics/SVG/1.1/DTD/svg11.dtd">
<!-- Generated by graphviz version 2.38.0 (20140413.2041)
 -->
<!-- Title: Control&#45;flow graph for function &#39;mbedtls_mpi_mul_int(a1, a2, a3)&#39;. Pages: 1 -->
<svg width="724pt" height="308pt"
 viewBox="0.00 0.00 724.00 308.00" xmlns="http://www.w3.org/2000/svg" xmlns:xlink="http://www.w3.org/1999/xlink">
<g id="graph0" class="graph" transform="scale(1 1) rotate(0) translate(4 304)">
<title>Control&#45;flow graph for function &#39;mbedtls_mpi_mul_int(a1, a2, a3)&#39;.</title>
<polygon fill="white" stroke="none" points="-4,4 -4,-304 720,-304 720,4 -4,4"/>
<text text-anchor="middle" x="358" y="-7.8" font-family="Times,serif" font-size="14.00">Control&#45;flow graph for function &#39;mbedtls_mpi_mul_int(a1, a2, a3)&#39;.</text>
<!-- Node0xfde8440 -->
<g id="node1" class="node"><title>Node0xfde8440</title>
<polygon fill="none" stroke="black" points="328.5,-231.5 328.5,-299.5 387.5,-299.5 387.5,-231.5 328.5,-231.5"/>
<text text-anchor="start" x="336.5" y="-284.3" font-family="Times,serif" font-size="14.00">entry:</text>
<text text-anchor="start" x="336.5" y="-269.3" font-family="Times,serif" font-size="14.00"> a1</text>
<text text-anchor="start" x="336.5" y="-254.3" font-family="Times,serif" font-size="14.00"> a2</text>
<text text-anchor="start" x="336.5" y="-239.3" font-family="Times,serif" font-size="14.00"> a3</text>
</g>
<!-- Node0x15798570 -->
<g id="node2" class="node"><title>Node0x15798570</title>
<polygon fill="none" stroke="black" points="0,-96.5 0,-194.5 716,-194.5 716,-96.5 0,-96.5"/>
<text text-anchor="start" x="8" y="-179.3" font-family="Times,serif" font-size="14.00">v1 = 1</text>
<text text-anchor="start" x="8" y="-164.3" font-family="Times,serif" font-size="14.00"> result = mbedtls_mpi_mul_mpi(IntToPtrCastExpr&lt;ptr&gt;(a1), IntToPtrCastExpr&lt;ptr&gt;(a2), &amp;(v1))</text>
<text text-anchor="start" x="8" y="-149.3" font-family="Times,serif" font-size="14.00"> g1 = result</text>
<text text-anchor="start" x="8" y="-134.3" font-family="Times,serif" font-size="14.00"> v2</text>
<text text-anchor="start" x="8" y="-119.3" font-family="Times,serif" font-size="14.00"> g2 = v2</text>
<text text-anchor="start" x="8" y="-104.3" font-family="Times,serif" font-size="14.00"> return result</text>
</g>
<!-- Node0xfde8440&#45;&gt;Node0x15798570 -->
<g id="edge1" class="edge"><title>Node0xfde8440&#45;&gt;Node0x15798570</title>
<path fill="none" stroke="black" d="M358,-231.316C358,-223.095 358,-214.04 358,-205.001"/>
<polygon fill="black" stroke="black" points="361.5,-204.848 358,-194.848 354.5,-204.848 361.5,-204.848"/>
</g>
<!-- Node0xfdea710 -->
<g id="node3" class="node"><title>Node0xfdea710</title>
<polygon fill="none" stroke="black" points="331,-23.5 331,-59.5 385,-59.5 385,-23.5 331,-23.5"/>
<text text-anchor="start" x="339" y="-37.8" font-family="Times,serif" font-size="14.00">exit:</text>
</g>
<!-- Node0x15798570&#45;&gt;Node0xfdea710 -->
<g id="edge2" class="edge"><title>Node0x15798570&#45;&gt;Node0xfdea710</title>
<path fill="none" stroke="black" d="M358,-96.4868C358,-87.2893 358,-77.9618 358,-69.7064"/>
<polygon fill="black" stroke="black" points="361.5,-69.5725 358,-59.5725 354.5,-69.5725 361.5,-69.5725"/>
</g>
</g>
</svg>
