<?xml version="1.0" encoding="UTF-8" standalone="no"?>
<!DOCTYPE svg PUBLIC "-//W3C//DTD SVG 1.1//EN"
 "http://www.w3.org/Graphics/SVG/1.1/DTD/svg11.dtd">
<!-- Generated by graphviz version 2.38.0 (20140413.2041)
 -->
<!-- Title: Control&#45;flow graph for function &#39;mpi_check_small_factors(a1)&#39;. Pages: 1 -->
<svg width="1074pt" height="1824pt"
 viewBox="0.00 0.00 1073.50 1824.00" xmlns="http://www.w3.org/2000/svg" xmlns:xlink="http://www.w3.org/1999/xlink">
<g id="graph0" class="graph" transform="scale(1 1) rotate(0) translate(4 1820)">
<title>Control&#45;flow graph for function &#39;mpi_check_small_factors(a1)&#39;.</title>
<polygon fill="white" stroke="none" points="-4,4 -4,-1820 1069.5,-1820 1069.5,4 -4,4"/>
<text text-anchor="middle" x="532.75" y="-7.8" font-family="Times,serif" font-size="14.00">Control&#45;flow graph for function &#39;mpi_check_small_factors(a1)&#39;.</text>
<!-- Node0x85a5880 -->
<g id="node1" class="node"><title>Node0x85a5880</title>
<polygon fill="none" stroke="black" points="284,-1777.5 284,-1815.5 343,-1815.5 343,-1777.5 284,-1777.5"/>
<text text-anchor="start" x="292" y="-1800.3" font-family="Times,serif" font-size="14.00">entry:</text>
<text text-anchor="start" x="292" y="-1785.3" font-family="Times,serif" font-size="14.00"> a1</text>
</g>
<!-- Node0xd43fc20 -->
<g id="node2" class="node"><title>Node0xd43fc20</title>
<polygon fill="none" stroke="black" points="275,-1656.5 275,-1739.5 352,-1739.5 352,-1656.5 275,-1656.5"/>
<text text-anchor="start" x="283" y="-1724.3" font-family="Times,serif" font-size="14.00">v1 = g5</text>
<text text-anchor="start" x="283" y="-1709.3" font-family="Times,serif" font-size="14.00"> v2 = g1</text>
<text text-anchor="start" x="283" y="-1694.3" font-family="Times,serif" font-size="14.00"> g5 = v2</text>
<text text-anchor="start" x="283" y="-1679.3" font-family="Times,serif" font-size="14.00"> v3 = g7</text>
<text text-anchor="start" x="283" y="-1664.3" font-family="Times,serif" font-size="14.00"> v4 = g3</text>
</g>
<!-- Node0x85a5880&#45;&gt;Node0xd43fc20 -->
<g id="edge1" class="edge"><title>Node0x85a5880&#45;&gt;Node0xd43fc20</title>
<path fill="none" stroke="black" d="M313.5,-1777.35C313.5,-1769.49 313.5,-1759.85 313.5,-1750.06"/>
<polygon fill="black" stroke="black" points="317,-1749.87 313.5,-1739.87 310,-1749.87 317,-1749.87"/>
</g>
<!-- Node0x26421670 -->
<g id="node3" class="node"><title>Node0x26421670</title>
<polygon fill="none" stroke="black" points="39,-1582.5 39,-1618.5 588,-1618.5 588,-1582.5 39,-1582.5"/>
<text text-anchor="start" x="47" y="-1596.8" font-family="Times,serif" font-size="14.00">if (*(IntToPtrCastExpr&lt;ptr&gt;(*(IntToPtrCastExpr&lt;ptr&gt;((v2 + 8))))) == 1):</text>
</g>
<!-- Node0xd43fc20&#45;&gt;Node0x26421670 -->
<g id="edge2" class="edge"><title>Node0xd43fc20&#45;&gt;Node0x26421670</title>
<path fill="none" stroke="black" d="M313.5,-1656.5C313.5,-1647.21 313.5,-1637.54 313.5,-1628.95"/>
<polygon fill="black" stroke="black" points="317,-1628.75 313.5,-1618.75 310,-1628.75 317,-1628.75"/>
</g>
<!-- Node0x26422a00 -->
<g id="node4" class="node"><title>Node0x26422a00</title>
<polygon fill="none" stroke="black" points="0,-1360.5 0,-1458.5 101,-1458.5 101,-1360.5 0,-1360.5"/>
<text text-anchor="start" x="8" y="-1443.3" font-family="Times,serif" font-size="14.00">0x80567c0:</text>
<text text-anchor="start" x="8" y="-1428.3" font-family="Times,serif" font-size="14.00"> g1 = &#45;14</text>
<text text-anchor="start" x="8" y="-1413.3" font-family="Times,serif" font-size="14.00"> g3 = v4</text>
<text text-anchor="start" x="8" y="-1398.3" font-family="Times,serif" font-size="14.00"> g7 = v3</text>
<text text-anchor="start" x="8" y="-1383.3" font-family="Times,serif" font-size="14.00"> g5 = v1</text>
<text text-anchor="start" x="8" y="-1368.3" font-family="Times,serif" font-size="14.00"> return &#45;14</text>
</g>
<!-- Node0x26421670&#45;&gt;Node0x26422a00 -->
<g id="edge3" class="edge"><title>Node0x26421670&#45;&gt;Node0x26422a00</title>
<path fill="none" stroke="black" d="M81.7279,-1582.49C66.2612,-1577.68 54.1746,-1571.62 47.5,-1564 25.2418,-1538.57 25.7653,-1500.68 31.9649,-1468.91"/>
<polygon fill="black" stroke="black" points="35.4514,-1469.35 34.1556,-1458.84 28.6111,-1467.86 35.4514,-1469.35"/>
<text text-anchor="middle" x="299.5" y="-1552.8" font-family="Times,serif" font-size="14.00">*(IntToPtrCastExpr&lt;ptr&gt;(*(IntToPtrCastExpr&lt;ptr&gt;((v2 + 8))))) == 1</text>
</g>
<!-- Node0x1c2a7650 -->
<g id="node5" class="node"><title>Node0x1c2a7650</title>
<polygon fill="none" stroke="black" points="527,-1477.5 527,-1530.5 628,-1530.5 628,-1477.5 527,-1477.5"/>
<text text-anchor="start" x="535" y="-1515.3" font-family="Times,serif" font-size="14.00">0x8056763:</text>
<text text-anchor="start" x="535" y="-1500.3" font-family="Times,serif" font-size="14.00"> g3 = 3</text>
<text text-anchor="start" x="535" y="-1485.3" font-family="Times,serif" font-size="14.00"> g7 = 0</text>
</g>
<!-- Node0x26421670&#45;&gt;Node0x1c2a7650 -->
<g id="edge4" class="edge"><title>Node0x26421670&#45;&gt;Node0x1c2a7650</title>
<path fill="none" stroke="black" d="M506.954,-1582.47C528.415,-1577.74 545.964,-1571.71 555.5,-1564 562.93,-1557.99 567.851,-1549.21 571.11,-1540.25"/>
<polygon fill="black" stroke="black" points="574.49,-1541.17 574.034,-1530.58 567.79,-1539.14 574.49,-1541.17"/>
<text text-anchor="middle" x="816.5" y="-1552.8" font-family="Times,serif" font-size="14.00">*(IntToPtrCastExpr&lt;ptr&gt;(*(IntToPtrCastExpr&lt;ptr&gt;((v2 + 8))))) != 1</text>
</g>
<!-- Node0x92fc960 -->
<g id="node6" class="node"><title>Node0x92fc960</title>
<polygon fill="none" stroke="black" points="375.5,-23.5 375.5,-59.5 429.5,-59.5 429.5,-23.5 375.5,-23.5"/>
<text text-anchor="start" x="383.5" y="-37.8" font-family="Times,serif" font-size="14.00">exit:</text>
</g>
<!-- Node0x26422a00&#45;&gt;Node0x92fc960 -->
<g id="edge5" class="edge"><title>Node0x26422a00&#45;&gt;Node0x92fc960</title>
<path fill="none" stroke="black" d="M50.5,-1360.35C50.5,-1335.84 50.5,-1305.58 50.5,-1278.5 50.5,-1278.5 50.5,-1278.5 50.5,-138 50.5,-73.2845 274.916,-51.0295 365.371,-44.6876"/>
<polygon fill="black" stroke="black" points="365.722,-48.1721 375.464,-44.0075 365.251,-41.1879 365.722,-48.1721"/>
</g>
<!-- Node0x1ecfbf10 -->
<g id="node7" class="node"><title>Node0x1ecfbf10</title>
<polygon fill="none" stroke="black" points="438,-1303.5 438,-1341.5 717,-1341.5 717,-1303.5 438,-1303.5"/>
<text text-anchor="start" x="446" y="-1326.3" font-family="Times,serif" font-size="14.00">if (mbedtls_mpi_cmp_int(v2, 3) &lt; 1):</text>
<text text-anchor="start" x="446" y="-1311.3" font-family="Times,serif" font-size="14.00"> else:</text>
</g>
<!-- Node0x1c2a7650&#45;&gt;Node0x1ecfbf10 -->
<g id="edge6" class="edge"><title>Node0x1c2a7650&#45;&gt;Node0x1ecfbf10</title>
<path fill="none" stroke="black" d="M577.5,-1477.28C577.5,-1444.04 577.5,-1386.35 577.5,-1351.87"/>
<polygon fill="black" stroke="black" points="581,-1351.55 577.5,-1341.55 574,-1351.55 581,-1351.55"/>
</g>
<!-- Node0x7ebee20 -->
<g id="node8" class="node"><title>Node0x7ebee20</title>
<polygon fill="none" stroke="black" points="845.5,-1158.5 845.5,-1196.5 945.5,-1196.5 945.5,-1158.5 845.5,-1158.5"/>
<text text-anchor="start" x="853.5" y="-1181.3" font-family="Times,serif" font-size="14.00">0x80567ac:</text>
<text text-anchor="start" x="853.5" y="-1166.3" font-family="Times,serif" font-size="14.00"> g1 = 1</text>
</g>
<!-- Node0x1ecfbf10&#45;&gt;Node0x7ebee20 -->
<g id="edge7" class="edge"><title>Node0x1ecfbf10&#45;&gt;Node0x7ebee20</title>
<path fill="none" stroke="black" d="M717.222,-1310.68C742.877,-1305.12 768.721,-1296.95 791.5,-1285 827.735,-1265.99 858.931,-1229.76 877.46,-1204.88"/>
<polygon fill="black" stroke="black" points="880.429,-1206.74 883.473,-1196.6 874.765,-1202.63 880.429,-1206.74"/>
<text text-anchor="middle" x="930.5" y="-1273.8" font-family="Times,serif" font-size="14.00">mbedtls_mpi_cmp_int(v2, 3) &lt; 1</text>
</g>
<!-- Node0x85a9770 -->
<g id="node9" class="node"><title>Node0x85a9770</title>
<polygon fill="none" stroke="black" points="446,-1215.5 446,-1251.5 543,-1251.5 543,-1215.5 446,-1215.5"/>
<text text-anchor="start" x="454" y="-1229.8" font-family="Times,serif" font-size="14.00">while True:</text>
</g>
<!-- Node0x1ecfbf10&#45;&gt;Node0x85a9770 -->
<g id="edge8" class="edge"><title>Node0x1ecfbf10&#45;&gt;Node0x85a9770</title>
<path fill="none" stroke="black" d="M560.302,-1303.47C548.043,-1290.62 531.415,-1273.19 517.941,-1259.07"/>
<polygon fill="black" stroke="black" points="520.264,-1256.43 510.828,-1251.62 515.199,-1261.27 520.264,-1256.43"/>
<text text-anchor="middle" x="664.5" y="-1273.8" font-family="Times,serif" font-size="14.00">mbedtls_mpi_cmp_int(v2, 3) &gt;= 1</text>
</g>
<!-- Node0x7ebb800 -->
<g id="node10" class="node"><title>Node0x7ebb800</title>
<polygon fill="none" stroke="black" points="456,-97.5 456,-180.5 557,-180.5 557,-97.5 456,-97.5"/>
<text text-anchor="start" x="464" y="-165.3" font-family="Times,serif" font-size="14.00">0x80567b1:</text>
<text text-anchor="start" x="464" y="-150.3" font-family="Times,serif" font-size="14.00"> g3 = v4</text>
<text text-anchor="start" x="464" y="-135.3" font-family="Times,serif" font-size="14.00"> g7 = v3</text>
<text text-anchor="start" x="464" y="-120.3" font-family="Times,serif" font-size="14.00"> g5 = v1</text>
<text text-anchor="start" x="464" y="-105.3" font-family="Times,serif" font-size="14.00"> return 1</text>
</g>
<!-- Node0x7ebee20&#45;&gt;Node0x7ebb800 -->
<g id="edge9" class="edge"><title>Node0x7ebee20&#45;&gt;Node0x7ebb800</title>
<path fill="none" stroke="black" d="M897.679,-1158.12C900.342,-1134.02 904.5,-1090.41 904.5,-1053 904.5,-1053 904.5,-1053 904.5,-236.5 904.5,-167.984 678.912,-147.938 567.41,-142.214"/>
<polygon fill="black" stroke="black" points="567.471,-138.713 557.311,-141.719 567.128,-145.705 567.471,-138.713"/>
</g>
<!-- Node0x7ebe820 -->
<g id="node11" class="node"><title>Node0x7ebe820</title>
<polygon fill="none" stroke="black" points="116.5,-1071.5 116.5,-1139.5 786.5,-1139.5 786.5,-1071.5 116.5,-1071.5"/>
<text text-anchor="start" x="124.5" y="-1124.3" font-family="Times,serif" font-size="14.00">0x8056770:</text>
<text text-anchor="start" x="124.5" y="-1109.3" font-family="Times,serif" font-size="14.00"> v5</text>
<text text-anchor="start" x="124.5" y="-1094.3" font-family="Times,serif" font-size="14.00"> v6 = mbedtls_mpi_mod_int(&amp;(v5), IntToPtrCastExpr&lt;ptr&gt;(g5), ExtCastExpr&lt;int64&gt;(g3))</text>
<text text-anchor="start" x="124.5" y="-1079.3" font-family="Times,serif" font-size="14.00"> g1 = v6</text>
</g>
<!-- Node0x85a9770&#45;&gt;Node0x7ebe820 -->
<g id="edge10" class="edge"><title>Node0x85a9770&#45;&gt;Node0x7ebe820</title>
<path fill="none" stroke="black" d="M488.611,-1215.24C482.841,-1198.34 473.815,-1171.89 466.11,-1149.31"/>
<polygon fill="black" stroke="black" points="469.333,-1147.92 462.791,-1139.58 462.708,-1150.18 469.333,-1147.92"/>
<text text-anchor="middle" x="499.5" y="-1173.8" font-family="Times,serif" font-size="14.00">True</text>
</g>
<!-- Node0x7ebb800&#45;&gt;Node0x92fc960 -->
<g id="edge11" class="edge"><title>Node0x7ebb800&#45;&gt;Node0x92fc960</title>
<path fill="none" stroke="black" d="M462.395,-97.4994C450.836,-86.8856 438.745,-75.7825 428.477,-66.3541"/>
<polygon fill="black" stroke="black" points="430.753,-63.6921 421.02,-59.5064 426.018,-68.8481 430.753,-63.6921"/>
</g>
<!-- Node0x26423ed0 -->
<g id="node12" class="node"><title>Node0x26423ed0</title>
<polygon fill="none" stroke="black" points="541,-997.5 541,-1033.5 646,-1033.5 646,-997.5 541,-997.5"/>
<text text-anchor="start" x="549" y="-1011.8" font-family="Times,serif" font-size="14.00">if (v6 == 0):</text>
</g>
<!-- Node0x7ebe820&#45;&gt;Node0x26423ed0 -->
<g id="edge12" class="edge"><title>Node0x7ebe820&#45;&gt;Node0x26423ed0</title>
<path fill="none" stroke="black" d="M504.78,-1071.48C522.309,-1060.62 541.379,-1048.8 557.33,-1038.91"/>
<polygon fill="black" stroke="black" points="559.186,-1041.88 565.842,-1033.64 555.498,-1035.93 559.186,-1041.88"/>
</g>
<!-- Node0x26423ed0&#45;&gt;Node0x85a9770 -->
<g id="edge14" class="edge"><title>Node0x26423ed0&#45;&gt;Node0x85a9770</title>
<path fill="none" stroke="black" d="M646.488,-1023.47C700.055,-1031.73 777.444,-1047.43 795.5,-1071 814.148,-1095.35 813.723,-1115.34 795.5,-1140 766.625,-1179.08 632.709,-1208.49 553.558,-1222.81"/>
<polygon fill="black" stroke="black" points="552.474,-1219.45 543.243,-1224.65 553.702,-1226.34 552.474,-1219.45"/>
<text text-anchor="middle" x="836.5" y="-1101.8" font-family="Times,serif" font-size="14.00">v6 != 0</text>
</g>
<!-- Node0xd43e880 -->
<g id="node13" class="node"><title>Node0xd43e880</title>
<polygon fill="none" stroke="black" points="557,-909.5 557,-945.5 630,-945.5 630,-909.5 557,-909.5"/>
<text text-anchor="start" x="565" y="-923.8" font-family="Times,serif" font-size="14.00">g6 = v5</text>
</g>
<!-- Node0x26423ed0&#45;&gt;Node0xd43e880 -->
<g id="edge13" class="edge"><title>Node0x26423ed0&#45;&gt;Node0xd43e880</title>
<path fill="none" stroke="black" d="M593.5,-997.097C593.5,-985.246 593.5,-969.317 593.5,-955.792"/>
<polygon fill="black" stroke="black" points="597,-955.584 593.5,-945.584 590,-955.584 597,-955.584"/>
<text text-anchor="middle" x="623.5" y="-967.8" font-family="Times,serif" font-size="14.00">v6 == 0</text>
</g>
<!-- Node0x85a57a0 -->
<g id="node14" class="node"><title>Node0x85a57a0</title>
<polygon fill="none" stroke="black" points="541,-835.5 541,-871.5 646,-871.5 646,-835.5 541,-835.5"/>
<text text-anchor="start" x="549" y="-849.8" font-family="Times,serif" font-size="14.00">if (v5 == 0):</text>
</g>
<!-- Node0xd43e880&#45;&gt;Node0x85a57a0 -->
<g id="edge15" class="edge"><title>Node0xd43e880&#45;&gt;Node0x85a57a0</title>
<path fill="none" stroke="black" d="M593.5,-909.437C593.5,-901.307 593.5,-891.376 593.5,-882.205"/>
<polygon fill="black" stroke="black" points="597,-881.941 593.5,-871.941 590,-881.941 597,-881.941"/>
</g>
<!-- Node0xd43e700 -->
<g id="node15" class="node"><title>Node0xd43e700</title>
<polygon fill="none" stroke="black" points="702,-598.5 702,-696.5 803,-696.5 803,-598.5 702,-598.5"/>
<text text-anchor="start" x="710" y="-681.3" font-family="Times,serif" font-size="14.00">0x80567c0:</text>
<text text-anchor="start" x="710" y="-666.3" font-family="Times,serif" font-size="14.00"> g1 = &#45;14</text>
<text text-anchor="start" x="710" y="-651.3" font-family="Times,serif" font-size="14.00"> g3 = v4</text>
<text text-anchor="start" x="710" y="-636.3" font-family="Times,serif" font-size="14.00"> g7 = v3</text>
<text text-anchor="start" x="710" y="-621.3" font-family="Times,serif" font-size="14.00"> g5 = v1</text>
<text text-anchor="start" x="710" y="-606.3" font-family="Times,serif" font-size="14.00"> return &#45;14</text>
</g>
<!-- Node0x85a57a0&#45;&gt;Node0xd43e700 -->
<g id="edge16" class="edge"><title>Node0x85a57a0&#45;&gt;Node0xd43e700</title>
<path fill="none" stroke="black" d="M646.123,-837.164C673.492,-826.541 705.178,-809.609 724.5,-784 741.104,-761.993 748.449,-732.486 751.498,-706.625"/>
<polygon fill="black" stroke="black" points="754.994,-706.842 752.497,-696.546 748.028,-706.152 754.994,-706.842"/>
<text text-anchor="middle" x="737.5" y="-805.8" font-family="Times,serif" font-size="14.00">v5 == 0</text>
</g>
<!-- Node0x7ebdf70 -->
<g id="node16" class="node"><title>Node0x7ebdf70</title>
<polygon fill="none" stroke="black" points="119.5,-715.5 119.5,-783.5 715.5,-783.5 715.5,-715.5 119.5,-715.5"/>
<text text-anchor="start" x="127.5" y="-768.3" font-family="Times,serif" font-size="14.00">v7 = (g7 + 1)</text>
<text text-anchor="start" x="127.5" y="-753.3" font-family="Times,serif" font-size="14.00"> g7 = v7</text>
<text text-anchor="start" x="127.5" y="-738.3" font-family="Times,serif" font-size="14.00"> v8 = *(IntToPtrCastExpr&lt;ptr&gt;(((4 * v7) + PtrToIntCastExpr&lt;int32&gt;(&amp;(g42)))))</text>
<text text-anchor="start" x="127.5" y="-723.3" font-family="Times,serif" font-size="14.00"> g3 = v8</text>
</g>
<!-- Node0x85a57a0&#45;&gt;Node0x7ebdf70 -->
<g id="edge17" class="edge"><title>Node0x85a57a0&#45;&gt;Node0x7ebdf70</title>
<path fill="none" stroke="black" d="M564.042,-835.427C542.055,-822.685 511.145,-804.771 483.377,-788.679"/>
<polygon fill="black" stroke="black" points="484.894,-785.513 474.487,-783.527 481.384,-791.569 484.894,-785.513"/>
<text text-anchor="middle" x="559.5" y="-805.8" font-family="Times,serif" font-size="14.00">v5 != 0</text>
</g>
<!-- Node0xd43e700&#45;&gt;Node0x92fc960 -->
<g id="edge18" class="edge"><title>Node0xd43e700&#45;&gt;Node0x92fc960</title>
<path fill="none" stroke="black" d="M759.167,-598.278C761.929,-574.338 764.5,-544.949 764.5,-518.5 764.5,-518.5 764.5,-518.5 764.5,-138 764.5,-71.3465 532.15,-50.196 439.747,-44.42"/>
<polygon fill="black" stroke="black" points="439.9,-40.923 429.709,-43.819 439.482,-47.9105 439.9,-40.923"/>
</g>
<!-- Node0xf8185a0 -->
<g id="node17" class="node"><title>Node0xf8185a0</title>
<polygon fill="none" stroke="black" points="305,-543.5 305,-579.5 398,-579.5 398,-543.5 305,-543.5"/>
<text text-anchor="start" x="313" y="-557.8" font-family="Times,serif" font-size="14.00">if (v8 &lt; 1):</text>
</g>
<!-- Node0x7ebdf70&#45;&gt;Node0xf8185a0 -->
<g id="edge19" class="edge"><title>Node0x7ebdf70&#45;&gt;Node0xf8185a0</title>
<path fill="none" stroke="black" d="M405.701,-715.247C392.932,-679.262 372.819,-622.582 361.019,-589.325"/>
<polygon fill="black" stroke="black" points="364.283,-588.059 357.641,-579.805 357.686,-590.4 364.283,-588.059"/>
</g>
<!-- Node0x26423730 -->
<g id="node18" class="node"><title>Node0x26423730</title>
<polygon fill="none" stroke="black" points="104,-351.5 104,-434.5 205,-434.5 205,-351.5 104,-351.5"/>
<text text-anchor="start" x="112" y="-419.3" font-family="Times,serif" font-size="14.00">0x80567b1:</text>
<text text-anchor="start" x="112" y="-404.3" font-family="Times,serif" font-size="14.00"> g3 = v4</text>
<text text-anchor="start" x="112" y="-389.3" font-family="Times,serif" font-size="14.00"> g7 = v3</text>
<text text-anchor="start" x="112" y="-374.3" font-family="Times,serif" font-size="14.00"> g5 = v1</text>
<text text-anchor="start" x="112" y="-359.3" font-family="Times,serif" font-size="14.00"> return 0</text>
</g>
<!-- Node0xf8185a0&#45;&gt;Node0x26423730 -->
<g id="edge20" class="edge"><title>Node0xf8185a0&#45;&gt;Node0x26423730</title>
<path fill="none" stroke="black" d="M304.835,-549.981C270.665,-540.133 225.25,-522.276 195.5,-492 182.641,-478.914 173.585,-461.201 167.318,-444.432"/>
<polygon fill="black" stroke="black" points="170.529,-443.009 163.942,-434.71 163.916,-445.305 170.529,-443.009"/>
<text text-anchor="middle" x="265.5" y="-513.8" font-family="Times,serif" font-size="14.00">v8 &lt; 1</text>
</g>
<!-- Node0x7ebf0b0 -->
<g id="node19" class="node"><title>Node0x7ebf0b0</title>
<polygon fill="none" stroke="black" points="205,-453.5 205,-491.5 498,-491.5 498,-453.5 205,-453.5"/>
<text text-anchor="start" x="213" y="-476.3" font-family="Times,serif" font-size="14.00">0x805678e:</text>
<text text-anchor="start" x="213" y="-461.3" font-family="Times,serif" font-size="14.00"> if (mbedtls_mpi_cmp_int(g5, v8) &lt; 1):</text>
</g>
<!-- Node0xf8185a0&#45;&gt;Node0x7ebf0b0 -->
<g id="edge21" class="edge"><title>Node0xf8185a0&#45;&gt;Node0x7ebf0b0</title>
<path fill="none" stroke="black" d="M351.5,-543.312C351.5,-531.511 351.5,-515.572 351.5,-501.904"/>
<polygon fill="black" stroke="black" points="355,-501.551 351.5,-491.551 348,-501.551 355,-501.551"/>
<text text-anchor="middle" x="381.5" y="-513.8" font-family="Times,serif" font-size="14.00">v8 &gt;= 1</text>
</g>
<!-- Node0x26423730&#45;&gt;Node0x92fc960 -->
<g id="edge22" class="edge"><title>Node0x26423730&#45;&gt;Node0x92fc960</title>
<path fill="none" stroke="black" d="M205.28,-352.507C206.35,-351.982 207.424,-351.478 208.5,-351 247.768,-333.543 265.598,-353.253 303.5,-333 334.822,-316.263 359.5,-311.514 359.5,-276 359.5,-276 359.5,-276 359.5,-138 359.5,-112.686 372.217,-86.661 383.819,-68.185"/>
<polygon fill="black" stroke="black" points="386.792,-70.0351 389.365,-59.7575 380.944,-66.1872 386.792,-70.0351"/>
</g>
<!-- Node0x7ebd2d0 -->
<g id="node20" class="node"><title>Node0x7ebd2d0</title>
<polygon fill="none" stroke="black" points="423,-294.5 423,-332.5 590,-332.5 590,-294.5 423,-294.5"/>
<text text-anchor="start" x="431" y="-317.3" font-family="Times,serif" font-size="14.00">break &#45;&gt; 0x80567ac:</text>
<text text-anchor="start" x="431" y="-302.3" font-family="Times,serif" font-size="14.00"> break</text>
</g>
<!-- Node0x7ebf0b0&#45;&gt;Node0x7ebd2d0 -->
<g id="edge23" class="edge"><title>Node0x7ebf0b0&#45;&gt;Node0x7ebd2d0</title>
<path fill="none" stroke="black" d="M460.375,-453.339C469.367,-448.52 477.625,-442.503 484.5,-435 496.516,-421.886 502.222,-374.461 504.734,-343.163"/>
<polygon fill="black" stroke="black" points="508.25,-343.078 505.495,-332.848 501.269,-342.564 508.25,-343.078"/>
<text text-anchor="middle" x="626" y="-389.3" font-family="Times,serif" font-size="14.00">mbedtls_mpi_cmp_int(g5, v8) &lt; 1</text>
</g>
<!-- Node0xd43f010 -->
<g id="node21" class="node"><title>Node0xd43f010</title>
<polygon fill="none" stroke="black" points="106,-294.5 106,-332.5 295,-332.5 295,-294.5 106,-294.5"/>
<text text-anchor="start" x="114" y="-317.3" font-family="Times,serif" font-size="14.00">continue &#45;&gt; 0x8056770:</text>
<text text-anchor="start" x="114" y="-302.3" font-family="Times,serif" font-size="14.00"> continue</text>
</g>
<!-- Node0x7ebf0b0&#45;&gt;Node0xd43f010 -->
<g id="edge24" class="edge"><title>Node0x7ebf0b0&#45;&gt;Node0xd43f010</title>
<path fill="none" stroke="black" d="M254.91,-453.478C245.462,-448.677 236.72,-442.625 229.5,-435 223.142,-428.286 212.247,-376.258 205.775,-342.798"/>
<polygon fill="black" stroke="black" points="209.154,-341.833 203.84,-332.667 202.278,-343.146 209.154,-341.833"/>
<text text-anchor="middle" x="357" y="-389.3" font-family="Times,serif" font-size="14.00">mbedtls_mpi_cmp_int(g5, v8) &gt;= 1</text>
</g>
<!-- Node0x85a75f0 -->
<g id="node22" class="node"><title>Node0x85a75f0</title>
<polygon fill="none" stroke="black" points="456.5,-218.5 456.5,-256.5 556.5,-256.5 556.5,-218.5 456.5,-218.5"/>
<text text-anchor="start" x="464.5" y="-241.3" font-family="Times,serif" font-size="14.00">0x80567ac:</text>
<text text-anchor="start" x="464.5" y="-226.3" font-family="Times,serif" font-size="14.00"> g1 = 1</text>
</g>
<!-- Node0x7ebd2d0&#45;&gt;Node0x85a75f0 -->
<g id="edge25" class="edge"><title>Node0x7ebd2d0&#45;&gt;Node0x85a75f0</title>
<path fill="none" stroke="black" d="M506.5,-294.208C506.5,-285.964 506.5,-276.038 506.5,-266.862"/>
<polygon fill="black" stroke="black" points="510,-266.582 506.5,-256.582 503,-266.582 510,-266.582"/>
</g>
<!-- Node0xd43f010&#45;&gt;Node0x85a9770 -->
<g id="edge26" class="edge"><title>Node0xd43f010&#45;&gt;Node0x85a9770</title>
<path fill="none" stroke="black" d="M124.562,-332.67C116.117,-337.426 108.437,-343.428 102.5,-351 69.2323,-393.428 88.5,-417.584 88.5,-471.5 88.5,-1106.5 88.5,-1106.5 88.5,-1106.5 88.5,-1178.34 323.277,-1213.78 435.764,-1226.64"/>
<polygon fill="black" stroke="black" points="435.603,-1230.14 445.93,-1227.78 436.382,-1223.19 435.603,-1230.14"/>
</g>
<!-- Node0x85a75f0&#45;&gt;Node0x7ebb800 -->
<g id="edge27" class="edge"><title>Node0x85a75f0&#45;&gt;Node0x7ebb800</title>
<path fill="none" stroke="black" d="M506.5,-218.349C506.5,-210.488 506.5,-200.852 506.5,-191.061"/>
<polygon fill="black" stroke="black" points="510,-190.87 506.5,-180.87 503,-190.87 510,-190.87"/>
</g>
</g>
</svg>
