<?xml version="1.0" encoding="UTF-8" standalone="no"?>
<!DOCTYPE svg PUBLIC "-//W3C//DTD SVG 1.1//EN"
 "http://www.w3.org/Graphics/SVG/1.1/DTD/svg11.dtd">
<!-- Generated by graphviz version 2.38.0 (20140413.2041)
 -->
<!-- Title: Control&#45;flow graph for function &#39;mbedtls_des3_set2key_dec(a1, result)&#39;. Pages: 1 -->
<svg width="689pt" height="609pt"
 viewBox="0.00 0.00 689.00 609.00" xmlns="http://www.w3.org/2000/svg" xmlns:xlink="http://www.w3.org/1999/xlink">
<g id="graph0" class="graph" transform="scale(1 1) rotate(0) translate(4 605)">
<title>Control&#45;flow graph for function &#39;mbedtls_des3_set2key_dec(a1, result)&#39;.</title>
<polygon fill="white" stroke="none" points="-4,4 -4,-605 685,-605 685,4 -4,4"/>
<text text-anchor="middle" x="340.5" y="-7.8" font-family="Times,serif" font-size="14.00">Control&#45;flow graph for function &#39;mbedtls_des3_set2key_dec(a1, result)&#39;.</text>
<!-- Node0x182db960 -->
<g id="node1" class="node"><title>Node0x182db960</title>
<polygon fill="none" stroke="black" points="342.5,-547.5 342.5,-600.5 405.5,-600.5 405.5,-547.5 342.5,-547.5"/>
<text text-anchor="start" x="350.5" y="-585.3" font-family="Times,serif" font-size="14.00">entry:</text>
<text text-anchor="start" x="350.5" y="-570.3" font-family="Times,serif" font-size="14.00"> a1</text>
<text text-anchor="start" x="350.5" y="-555.3" font-family="Times,serif" font-size="14.00"> result</text>
</g>
<!-- Node0x182dbdc0 -->
<g id="node2" class="node"><title>Node0x182dbdc0</title>
<polygon fill="none" stroke="black" points="238.5,-306.5 238.5,-509.5 509.5,-509.5 509.5,-306.5 238.5,-306.5"/>
<text text-anchor="start" x="246.5" y="-494.3" font-family="Times,serif" font-size="14.00">0x806b110:</text>
<text text-anchor="start" x="246.5" y="-479.3" font-family="Times,serif" font-size="14.00"> v1</text>
<text text-anchor="start" x="246.5" y="-464.3" font-family="Times,serif" font-size="14.00"> v2 = v1</text>
<text text-anchor="start" x="246.5" y="-449.3" font-family="Times,serif" font-size="14.00"> v3 = g3</text>
<text text-anchor="start" x="246.5" y="-434.3" font-family="Times,serif" font-size="14.00"> v4 = &amp;(v2)</text>
<text text-anchor="start" x="246.5" y="-419.3" font-family="Times,serif" font-size="14.00"> g4 = result</text>
<text text-anchor="start" x="246.5" y="-404.3" font-family="Times,serif" font-size="14.00"> g6 = a1</text>
<text text-anchor="start" x="246.5" y="-389.3" font-family="Times,serif" font-size="14.00"> g3 = v4</text>
<text text-anchor="start" x="246.5" y="-374.3" font-family="Times,serif" font-size="14.00"> g1 = v4</text>
<text text-anchor="start" x="246.5" y="-359.3" font-family="Times,serif" font-size="14.00"> des3_set2key(v1, 0)</text>
<text text-anchor="start" x="246.5" y="-344.3" font-family="Times,serif" font-size="14.00"> *(IntToPtrCastExpr&lt;ptr&gt;(g3)) = 0</text>
<text text-anchor="start" x="246.5" y="-329.3" font-family="Times,serif" font-size="14.00"> v5 = (g3 + 1)</text>
<text text-anchor="start" x="246.5" y="-314.3" font-family="Times,serif" font-size="14.00"> g3 = v5</text>
</g>
<!-- Node0x182db960&#45;&gt;Node0x182dbdc0 -->
<g id="edge1" class="edge"><title>Node0x182db960&#45;&gt;Node0x182dbdc0</title>
<path fill="none" stroke="black" d="M374,-547.375C374,-539.402 374,-530.051 374,-520.037"/>
<polygon fill="black" stroke="black" points="377.5,-519.828 374,-509.828 370.5,-519.828 377.5,-519.828"/>
</g>
<!-- Node0x182dbb40 -->
<g id="node3" class="node"><title>Node0x182dbb40</title>
<polygon fill="none" stroke="black" points="194.5,-232.5 194.5,-268.5 553.5,-268.5 553.5,-232.5 194.5,-232.5"/>
<text text-anchor="start" x="202.5" y="-246.8" font-family="Times,serif" font-size="14.00">while (v5 != PtrToIntCastExpr&lt;int32&gt;(&amp;(v3))):</text>
</g>
<!-- Node0x182dbdc0&#45;&gt;Node0x182dbb40 -->
<g id="edge2" class="edge"><title>Node0x182dbdc0&#45;&gt;Node0x182dbb40</title>
<path fill="none" stroke="black" d="M374,-306.323C374,-296.368 374,-286.964 374,-278.847"/>
<polygon fill="black" stroke="black" points="377.5,-278.647 374,-268.647 370.5,-278.647 377.5,-278.647"/>
</g>
<!-- Node0x182dc180 -->
<g id="node4" class="node"><title>Node0x182dc180</title>
<polygon fill="none" stroke="black" points="0,-105 0,-173 270,-173 270,-105 0,-105"/>
<text text-anchor="start" x="8" y="-157.8" font-family="Times,serif" font-size="14.00">0x806b130:</text>
<text text-anchor="start" x="8" y="-142.8" font-family="Times,serif" font-size="14.00"> *(IntToPtrCastExpr&lt;ptr&gt;(v5)) = 0</text>
<text text-anchor="start" x="8" y="-127.8" font-family="Times,serif" font-size="14.00"> v5 = (g3 + 1)</text>
<text text-anchor="start" x="8" y="-112.8" font-family="Times,serif" font-size="14.00"> g3 = v5</text>
</g>
<!-- Node0x182dbb40&#45;&gt;Node0x182dc180 -->
<g id="edge3" class="edge"><title>Node0x182dbb40&#45;&gt;Node0x182dc180</title>
<path fill="none" stroke="black" d="M194.15,-237.725C136.051,-232.074 84.113,-224.259 75,-214 65.6291,-203.451 69.1674,-191.714 78.0515,-180.754"/>
<polygon fill="black" stroke="black" points="80.7213,-183.022 84.9631,-173.314 75.5927,-178.258 80.7213,-183.022"/>
<text text-anchor="middle" x="217.5" y="-202.8" font-family="Times,serif" font-size="14.00">v5 != PtrToIntCastExpr&lt;int32&gt;(&amp;(v3))</text>
</g>
<!-- Node0x21028c50 -->
<g id="node5" class="node"><title>Node0x21028c50</title>
<polygon fill="none" stroke="black" points="350.5,-97.5 350.5,-180.5 463.5,-180.5 463.5,-97.5 350.5,-97.5"/>
<text text-anchor="start" x="358.5" y="-165.3" font-family="Times,serif" font-size="14.00">0x806b13a:</text>
<text text-anchor="start" x="358.5" y="-150.3" font-family="Times,serif" font-size="14.00"> v6</text>
<text text-anchor="start" x="358.5" y="-135.3" font-family="Times,serif" font-size="14.00"> g1 = &amp;(v6)</text>
<text text-anchor="start" x="358.5" y="-120.3" font-family="Times,serif" font-size="14.00"> g3 = v3</text>
<text text-anchor="start" x="358.5" y="-105.3" font-family="Times,serif" font-size="14.00"> return result</text>
</g>
<!-- Node0x182dbb40&#45;&gt;Node0x21028c50 -->
<g id="edge4" class="edge"><title>Node0x182dbb40&#45;&gt;Node0x21028c50</title>
<path fill="none" stroke="black" d="M379.411,-232.178C381.204,-226.401 383.201,-219.927 385,-214 387.299,-206.425 389.709,-198.407 392.055,-190.552"/>
<polygon fill="black" stroke="black" points="395.478,-191.32 394.98,-180.737 388.77,-189.321 395.478,-191.32"/>
<text text-anchor="middle" x="535.5" y="-202.8" font-family="Times,serif" font-size="14.00">v5 == PtrToIntCastExpr&lt;int32&gt;(&amp;(v3))</text>
</g>
<!-- Node0x182dc180&#45;&gt;Node0x182dbb40 -->
<g id="edge5" class="edge"><title>Node0x182dc180&#45;&gt;Node0x182dbb40</title>
<path fill="none" stroke="black" d="M270.226,-163.804C309.635,-173.204 345.91,-185.106 360,-199 366.264,-205.177 369.793,-213.891 371.76,-222.346"/>
<polygon fill="black" stroke="black" points="368.333,-223.071 373.463,-232.341 375.233,-221.895 368.333,-223.071"/>
</g>
<!-- Node0x182dbd40 -->
<g id="node6" class="node"><title>Node0x182dbd40</title>
<polygon fill="none" stroke="black" points="380,-23.5 380,-59.5 434,-59.5 434,-23.5 380,-23.5"/>
<text text-anchor="start" x="388" y="-37.8" font-family="Times,serif" font-size="14.00">exit:</text>
</g>
<!-- Node0x21028c50&#45;&gt;Node0x182dbd40 -->
<g id="edge6" class="edge"><title>Node0x21028c50&#45;&gt;Node0x182dbd40</title>
<path fill="none" stroke="black" d="M407,-97.4994C407,-88.2058 407,-78.537 407,-69.9459"/>
<polygon fill="black" stroke="black" points="410.5,-69.7494 407,-59.7494 403.5,-69.7494 410.5,-69.7494"/>
</g>
</g>
</svg>
