<?xml version="1.0" encoding="UTF-8" standalone="no"?>
<!DOCTYPE svg PUBLIC "-//W3C//DTD SVG 1.1//EN"
 "http://www.w3.org/Graphics/SVG/1.1/DTD/svg11.dtd">
<!-- Generated by graphviz version 2.38.0 (20140413.2041)
 -->
<!-- Title: Control&#45;flow graph for function &#39;mbedtls_ccm_free(*a1)&#39;. Pages: 1 -->
<svg width="434pt" height="459pt"
 viewBox="0.00 0.00 434.00 459.00" xmlns="http://www.w3.org/2000/svg" xmlns:xlink="http://www.w3.org/1999/xlink">
<g id="graph0" class="graph" transform="scale(1 1) rotate(0) translate(4 455)">
<title>Control&#45;flow graph for function &#39;mbedtls_ccm_free(*a1)&#39;.</title>
<polygon fill="white" stroke="none" points="-4,4 -4,-455 430,-455 430,4 -4,4"/>
<text text-anchor="middle" x="213" y="-7.8" font-family="Times,serif" font-size="14.00">Control&#45;flow graph for function &#39;mbedtls_ccm_free(*a1)&#39;.</text>
<!-- Node0x194c0340 -->
<g id="node1" class="node"><title>Node0x194c0340</title>
<polygon fill="none" stroke="black" points="221,-412.5 221,-450.5 280,-450.5 280,-412.5 221,-412.5"/>
<text text-anchor="start" x="229" y="-435.3" font-family="Times,serif" font-size="14.00">entry:</text>
<text text-anchor="start" x="229" y="-420.3" font-family="Times,serif" font-size="14.00"> a1</text>
</g>
<!-- Node0x29e70240 -->
<g id="node2" class="node"><title>Node0x29e70240</title>
<polygon fill="none" stroke="black" points="112,-276.5 112,-374.5 389,-374.5 389,-276.5 112,-276.5"/>
<text text-anchor="start" x="120" y="-359.3" font-family="Times,serif" font-size="14.00">0x80704b0:</text>
<text text-anchor="start" x="120" y="-344.3" font-family="Times,serif" font-size="14.00"> g3 = PtrToIntCastExpr&lt;int32&gt;(a1)</text>
<text text-anchor="start" x="120" y="-329.3" font-family="Times,serif" font-size="14.00"> mbedtls_cipher_free(a1, 0)</text>
<text text-anchor="start" x="120" y="-314.3" font-family="Times,serif" font-size="14.00"> g6 = (g3 + 64)</text>
<text text-anchor="start" x="120" y="-299.3" font-family="Times,serif" font-size="14.00"> *(IntToPtrCastExpr&lt;ptr&gt;(g3)) = 0</text>
<text text-anchor="start" x="120" y="-284.3" font-family="Times,serif" font-size="14.00"> result = (g3 + 1)</text>
</g>
<!-- Node0x194c0340&#45;&gt;Node0x29e70240 -->
<g id="edge1" class="edge"><title>Node0x194c0340&#45;&gt;Node0x29e70240</title>
<path fill="none" stroke="black" d="M250.5,-412.385C250.5,-404.528 250.5,-394.844 250.5,-384.842"/>
<polygon fill="black" stroke="black" points="254,-384.789 250.5,-374.789 247,-384.789 254,-384.789"/>
</g>
<!-- Node0x194c15e0 -->
<g id="node3" class="node"><title>Node0x194c15e0</title>
<polygon fill="none" stroke="black" points="170,-202.5 170,-238.5 331,-238.5 331,-202.5 170,-202.5"/>
<text text-anchor="start" x="178" y="-216.8" font-family="Times,serif" font-size="14.00">while (result != g6):</text>
</g>
<!-- Node0x29e70240&#45;&gt;Node0x194c15e0 -->
<g id="edge2" class="edge"><title>Node0x29e70240&#45;&gt;Node0x194c15e0</title>
<path fill="none" stroke="black" d="M250.5,-276.317C250.5,-266.893 250.5,-257.32 250.5,-248.868"/>
<polygon fill="black" stroke="black" points="254,-248.856 250.5,-238.856 247,-248.856 254,-248.856"/>
</g>
<!-- Node0x29e74530 -->
<g id="node4" class="node"><title>Node0x29e74530</title>
<polygon fill="none" stroke="black" points="0,-97.5 0,-150.5 295,-150.5 295,-97.5 0,-97.5"/>
<text text-anchor="start" x="8" y="-135.3" font-family="Times,serif" font-size="14.00">0x80704c8:</text>
<text text-anchor="start" x="8" y="-120.3" font-family="Times,serif" font-size="14.00"> *(IntToPtrCastExpr&lt;ptr&gt;(result)) = 0</text>
<text text-anchor="start" x="8" y="-105.3" font-family="Times,serif" font-size="14.00"> result = (result + 1)</text>
</g>
<!-- Node0x194c15e0&#45;&gt;Node0x29e74530 -->
<g id="edge3" class="edge"><title>Node0x194c15e0&#45;&gt;Node0x29e74530</title>
<path fill="none" stroke="black" d="M169.816,-202.569C161.526,-197.816 154.106,-191.747 148.5,-184 143.686,-177.347 141.789,-169.077 141.453,-160.853"/>
<polygon fill="black" stroke="black" points="144.96,-160.688 141.762,-150.587 137.963,-160.478 144.96,-160.688"/>
<text text-anchor="middle" x="192.5" y="-172.8" font-family="Times,serif" font-size="14.00">result != g6</text>
</g>
<!-- Node0x194c4ef0 -->
<g id="node5" class="node"><title>Node0x194c4ef0</title>
<polygon fill="none" stroke="black" points="313,-105 313,-143 426,-143 426,-105 313,-105"/>
<text text-anchor="start" x="321" y="-127.8" font-family="Times,serif" font-size="14.00">0x80704d2:</text>
<text text-anchor="start" x="321" y="-112.8" font-family="Times,serif" font-size="14.00"> return result</text>
</g>
<!-- Node0x194c15e0&#45;&gt;Node0x194c4ef0 -->
<g id="edge4" class="edge"><title>Node0x194c15e0&#45;&gt;Node0x194c4ef0</title>
<path fill="none" stroke="black" d="M272.05,-202.387C290.616,-187.643 317.644,-166.18 338.528,-149.595"/>
<polygon fill="black" stroke="black" points="340.832,-152.235 346.486,-143.276 336.478,-146.754 340.832,-152.235"/>
<text text-anchor="middle" x="360.5" y="-172.8" font-family="Times,serif" font-size="14.00">result == g6</text>
</g>
<!-- Node0x29e74530&#45;&gt;Node0x194c15e0 -->
<g id="edge5" class="edge"><title>Node0x29e74530&#45;&gt;Node0x194c15e0</title>
<path fill="none" stroke="black" d="M215.21,-150.556C223.178,-155.723 230.568,-161.828 236.5,-169 241.963,-175.605 245.302,-184.189 247.339,-192.4"/>
<polygon fill="black" stroke="black" points="243.943,-193.276 249.286,-202.425 250.815,-191.941 243.943,-193.276"/>
</g>
<!-- Node0x194bfaf0 -->
<g id="node6" class="node"><title>Node0x194bfaf0</title>
<polygon fill="none" stroke="black" points="342.5,-23.5 342.5,-59.5 396.5,-59.5 396.5,-23.5 342.5,-23.5"/>
<text text-anchor="start" x="350.5" y="-37.8" font-family="Times,serif" font-size="14.00">exit:</text>
</g>
<!-- Node0x194c4ef0&#45;&gt;Node0x194bfaf0 -->
<g id="edge6" class="edge"><title>Node0x194c4ef0&#45;&gt;Node0x194bfaf0</title>
<path fill="none" stroke="black" d="M369.5,-104.733C369.5,-94.3626 369.5,-81.1832 369.5,-69.6251"/>
<polygon fill="black" stroke="black" points="373,-69.5935 369.5,-59.5935 366,-69.5936 373,-69.5935"/>
</g>
</g>
</svg>
