<?xml version="1.0" encoding="UTF-8" standalone="no"?>
<!DOCTYPE svg PUBLIC "-//W3C//DTD SVG 1.1//EN"
 "http://www.w3.org/Graphics/SVG/1.1/DTD/svg11.dtd">
<!-- Generated by graphviz version 2.38.0 (20140413.2041)
 -->
<!-- Title: Control&#45;flow graph for function &#39;mbedtls_des_setkey_dec(*a1, a2)&#39;. Pages: 1 -->
<svg width="506pt" height="834pt"
 viewBox="0.00 0.00 506.00 834.00" xmlns="http://www.w3.org/2000/svg" xmlns:xlink="http://www.w3.org/1999/xlink">
<g id="graph0" class="graph" transform="scale(1 1) rotate(0) translate(4 830)">
<title>Control&#45;flow graph for function &#39;mbedtls_des_setkey_dec(*a1, a2)&#39;.</title>
<polygon fill="white" stroke="none" points="-4,4 -4,-830 502,-830 502,4 -4,4"/>
<text text-anchor="middle" x="249" y="-7.8" font-family="Times,serif" font-size="14.00">Control&#45;flow graph for function &#39;mbedtls_des_setkey_dec(*a1, a2)&#39;.</text>
<!-- Node0x21026eb0 -->
<g id="node1" class="node"><title>Node0x21026eb0</title>
<polygon fill="none" stroke="black" points="254.5,-772.5 254.5,-825.5 313.5,-825.5 313.5,-772.5 254.5,-772.5"/>
<text text-anchor="start" x="262.5" y="-810.3" font-family="Times,serif" font-size="14.00">entry:</text>
<text text-anchor="start" x="262.5" y="-795.3" font-family="Times,serif" font-size="14.00"> a1</text>
<text text-anchor="start" x="262.5" y="-780.3" font-family="Times,serif" font-size="14.00"> a2</text>
</g>
<!-- Node0x100d6c60 -->
<g id="node2" class="node"><title>Node0x100d6c60</title>
<polygon fill="none" stroke="black" points="82,-441.5 82,-734.5 486,-734.5 486,-441.5 82,-441.5"/>
<text text-anchor="start" x="90" y="-719.3" font-family="Times,serif" font-size="14.00">v1 = PtrToIntCastExpr&lt;int32&gt;(a1)</text>
<text text-anchor="start" x="90" y="-704.3" font-family="Times,serif" font-size="14.00"> v2 = g3</text>
<text text-anchor="start" x="90" y="-689.3" font-family="Times,serif" font-size="14.00"> g3 = v1</text>
<text text-anchor="start" x="90" y="-674.3" font-family="Times,serif" font-size="14.00"> mbedtls_des_setkey(v1, IntToPtrCastExpr&lt;ptr&gt;(a2))</text>
<text text-anchor="start" x="90" y="-659.3" font-family="Times,serif" font-size="14.00"> v3 = g3</text>
<text text-anchor="start" x="90" y="-644.3" font-family="Times,serif" font-size="14.00"> v4 = 0</text>
<text text-anchor="start" x="90" y="-629.3" font-family="Times,serif" font-size="14.00"> v5 = IntToPtrCastExpr&lt;ptr&gt;(g3)</text>
<text text-anchor="start" x="90" y="-614.3" font-family="Times,serif" font-size="14.00"> *(v5) = *(IntToPtrCastExpr&lt;ptr&gt;((120 + g3)))</text>
<text text-anchor="start" x="90" y="-599.3" font-family="Times,serif" font-size="14.00"> v6 = v4</text>
<text text-anchor="start" x="90" y="-584.3" font-family="Times,serif" font-size="14.00"> *(IntToPtrCastExpr&lt;ptr&gt;(((g3 + 120) + v6))) = *(v5)</text>
<text text-anchor="start" x="90" y="-569.3" font-family="Times,serif" font-size="14.00"> v7 = IntToPtrCastExpr&lt;ptr&gt;((v3 + 4))</text>
<text text-anchor="start" x="90" y="-554.3" font-family="Times,serif" font-size="14.00"> v8 = *(v7)</text>
<text text-anchor="start" x="90" y="-539.3" font-family="Times,serif" font-size="14.00"> g4 = v8</text>
<text text-anchor="start" x="90" y="-524.3" font-family="Times,serif" font-size="14.00"> *(v7) = *(IntToPtrCastExpr&lt;ptr&gt;(((g3 + 124) + v6)))</text>
<text text-anchor="start" x="90" y="-509.3" font-family="Times,serif" font-size="14.00"> v3 = (v3 + 8)</text>
<text text-anchor="start" x="90" y="-494.3" font-family="Times,serif" font-size="14.00"> *(IntToPtrCastExpr&lt;ptr&gt;(((g3 + 124) + v4))) = v8</text>
<text text-anchor="start" x="90" y="-479.3" font-family="Times,serif" font-size="14.00"> v9 = (v4 &#45; 8)</text>
<text text-anchor="start" x="90" y="-464.3" font-family="Times,serif" font-size="14.00"> v4 = v9</text>
<text text-anchor="start" x="90" y="-449.3" font-family="Times,serif" font-size="14.00"> g3 = v2</text>
</g>
<!-- Node0x21026eb0&#45;&gt;Node0x100d6c60 -->
<g id="edge1" class="edge"><title>Node0x21026eb0&#45;&gt;Node0x100d6c60</title>
<path fill="none" stroke="black" d="M284,-772.372C284,-764.443 284,-755.064 284,-744.809"/>
<polygon fill="black" stroke="black" points="287.5,-744.726 284,-734.726 280.5,-744.726 287.5,-744.726"/>
</g>
<!-- Node0x99cf110 -->
<g id="node3" class="node"><title>Node0x99cf110</title>
<polygon fill="none" stroke="black" points="213.5,-367.5 213.5,-403.5 354.5,-403.5 354.5,-367.5 213.5,-367.5"/>
<text text-anchor="start" x="221.5" y="-381.8" font-family="Times,serif" font-size="14.00">while (v9 != &#45;64):</text>
</g>
<!-- Node0x100d6c60&#45;&gt;Node0x99cf110 -->
<g id="edge2" class="edge"><title>Node0x100d6c60&#45;&gt;Node0x99cf110</title>
<path fill="none" stroke="black" d="M284,-441.288C284,-431.099 284,-421.706 284,-413.68"/>
<polygon fill="black" stroke="black" points="287.5,-413.638 284,-403.638 280.5,-413.638 287.5,-413.638"/>
</g>
<!-- Node0x210271b0 -->
<g id="node4" class="node"><title>Node0x210271b0</title>
<polygon fill="none" stroke="black" points="0,-97.5 0,-315.5 404,-315.5 404,-97.5 0,-97.5"/>
<text text-anchor="start" x="8" y="-300.3" font-family="Times,serif" font-size="14.00">0x806b000:</text>
<text text-anchor="start" x="8" y="-285.3" font-family="Times,serif" font-size="14.00"> v5 = IntToPtrCastExpr&lt;ptr&gt;(v3)</text>
<text text-anchor="start" x="8" y="-270.3" font-family="Times,serif" font-size="14.00"> *(v5) = *(IntToPtrCastExpr&lt;ptr&gt;(((v9 + 120) + g3)))</text>
<text text-anchor="start" x="8" y="-255.3" font-family="Times,serif" font-size="14.00"> v6 = v4</text>
<text text-anchor="start" x="8" y="-240.3" font-family="Times,serif" font-size="14.00"> *(IntToPtrCastExpr&lt;ptr&gt;(((g3 + 120) + v6))) = *(v5)</text>
<text text-anchor="start" x="8" y="-225.3" font-family="Times,serif" font-size="14.00"> v7 = IntToPtrCastExpr&lt;ptr&gt;((v3 + 4))</text>
<text text-anchor="start" x="8" y="-210.3" font-family="Times,serif" font-size="14.00"> v8 = *(v7)</text>
<text text-anchor="start" x="8" y="-195.3" font-family="Times,serif" font-size="14.00"> g4 = v8</text>
<text text-anchor="start" x="8" y="-180.3" font-family="Times,serif" font-size="14.00"> *(v7) = *(IntToPtrCastExpr&lt;ptr&gt;(((g3 + 124) + v6)))</text>
<text text-anchor="start" x="8" y="-165.3" font-family="Times,serif" font-size="14.00"> v3 = (v3 + 8)</text>
<text text-anchor="start" x="8" y="-150.3" font-family="Times,serif" font-size="14.00"> *(IntToPtrCastExpr&lt;ptr&gt;(((g3 + 124) + v4))) = v8</text>
<text text-anchor="start" x="8" y="-135.3" font-family="Times,serif" font-size="14.00"> v9 = (v4 &#45; 8)</text>
<text text-anchor="start" x="8" y="-120.3" font-family="Times,serif" font-size="14.00"> v4 = v9</text>
<text text-anchor="start" x="8" y="-105.3" font-family="Times,serif" font-size="14.00"> g3 = v2</text>
</g>
<!-- Node0x99cf110&#45;&gt;Node0x210271b0 -->
<g id="edge3" class="edge"><title>Node0x99cf110&#45;&gt;Node0x210271b0</title>
<path fill="none" stroke="black" d="M223.173,-367.466C215.208,-362.731 208.067,-356.694 203,-349 198.241,-341.774 194.773,-333.859 192.33,-325.58"/>
<polygon fill="black" stroke="black" points="195.692,-324.596 189.917,-315.713 188.893,-326.259 195.692,-324.596"/>
<text text-anchor="middle" x="236.5" y="-337.8" font-family="Times,serif" font-size="14.00">v9 != &#45;64</text>
</g>
<!-- Node0x21027320 -->
<g id="node5" class="node"><title>Node0x21027320</title>
<polygon fill="none" stroke="black" points="422,-188.5 422,-224.5 498,-224.5 498,-188.5 422,-188.5"/>
<text text-anchor="start" x="430" y="-202.8" font-family="Times,serif" font-size="14.00">return 0</text>
</g>
<!-- Node0x99cf110&#45;&gt;Node0x21027320 -->
<g id="edge4" class="edge"><title>Node0x99cf110&#45;&gt;Node0x21027320</title>
<path fill="none" stroke="black" d="M333.556,-367.472C359.983,-356.297 391.408,-339.378 413,-316 434.354,-292.88 446.988,-258.538 453.687,-234.708"/>
<polygon fill="black" stroke="black" points="457.111,-235.451 456.281,-224.889 450.343,-233.664 457.111,-235.451"/>
<text text-anchor="middle" x="428.5" y="-337.8" font-family="Times,serif" font-size="14.00">v9 == &#45;64</text>
</g>
<!-- Node0x210271b0&#45;&gt;Node0x99cf110 -->
<g id="edge5" class="edge"><title>Node0x210271b0&#45;&gt;Node0x99cf110</title>
<path fill="none" stroke="black" d="M262.189,-315.783C264.958,-321.885 267.584,-327.984 270,-334 273.017,-341.514 275.629,-349.907 277.752,-357.66"/>
<polygon fill="black" stroke="black" points="274.366,-358.547 280.255,-367.355 281.144,-356.798 274.366,-358.547"/>
</g>
<!-- Node0x99cf2a0 -->
<g id="node6" class="node"><title>Node0x99cf2a0</title>
<polygon fill="none" stroke="black" points="433,-23.5 433,-59.5 487,-59.5 487,-23.5 433,-23.5"/>
<text text-anchor="start" x="441" y="-37.8" font-family="Times,serif" font-size="14.00">exit:</text>
</g>
<!-- Node0x21027320&#45;&gt;Node0x99cf2a0 -->
<g id="edge6" class="edge"><title>Node0x21027320&#45;&gt;Node0x99cf2a0</title>
<path fill="none" stroke="black" d="M460,-188.364C460,-160.19 460,-103.839 460,-70.0208"/>
<polygon fill="black" stroke="black" points="463.5,-69.8967 460,-59.8968 456.5,-69.8968 463.5,-69.8967"/>
</g>
</g>
</svg>
