<?xml version="1.0" encoding="UTF-8" standalone="no"?>
<!DOCTYPE svg PUBLIC "-//W3C//DTD SVG 1.1//EN"
 "http://www.w3.org/Graphics/SVG/1.1/DTD/svg11.dtd">
<!-- Generated by graphviz version 2.38.0 (20140413.2041)
 -->
<!-- Title: Control&#45;flow graph for function &#39;mbedtls_pk_free(*a1)&#39;. Pages: 1 -->
<svg width="648pt" height="992pt"
 viewBox="0.00 0.00 647.50 992.00" xmlns="http://www.w3.org/2000/svg" xmlns:xlink="http://www.w3.org/1999/xlink">
<g id="graph0" class="graph" transform="scale(1 1) rotate(0) translate(4 988)">
<title>Control&#45;flow graph for function &#39;mbedtls_pk_free(*a1)&#39;.</title>
<polygon fill="white" stroke="none" points="-4,4 -4,-988 643.5,-988 643.5,4 -4,4"/>
<text text-anchor="middle" x="319.75" y="-7.8" font-family="Times,serif" font-size="14.00">Control&#45;flow graph for function &#39;mbedtls_pk_free(*a1)&#39;.</text>
<!-- Node0x198ce640 -->
<g id="node1" class="node"><title>Node0x198ce640</title>
<polygon fill="none" stroke="black" points="118.5,-945.5 118.5,-983.5 177.5,-983.5 177.5,-945.5 118.5,-945.5"/>
<text text-anchor="start" x="126.5" y="-968.3" font-family="Times,serif" font-size="14.00">entry:</text>
<text text-anchor="start" x="126.5" y="-953.3" font-family="Times,serif" font-size="14.00"> a1</text>
</g>
<!-- Node0xe698ae0 -->
<g id="node2" class="node"><title>Node0xe698ae0</title>
<polygon fill="none" stroke="black" points="10,-824.5 10,-907.5 286,-907.5 286,-824.5 10,-824.5"/>
<text text-anchor="start" x="18" y="-892.3" font-family="Times,serif" font-size="14.00">v1</text>
<text text-anchor="start" x="18" y="-877.3" font-family="Times,serif" font-size="14.00"> g2 = &amp;(v1)</text>
<text text-anchor="start" x="18" y="-862.3" font-family="Times,serif" font-size="14.00"> v2 = g3</text>
<text text-anchor="start" x="18" y="-847.3" font-family="Times,serif" font-size="14.00"> v3 = PtrToIntCastExpr&lt;int32&gt;(a1)</text>
<text text-anchor="start" x="18" y="-832.3" font-family="Times,serif" font-size="14.00"> g3 = v3</text>
</g>
<!-- Node0x198ce640&#45;&gt;Node0xe698ae0 -->
<g id="edge1" class="edge"><title>Node0x198ce640&#45;&gt;Node0xe698ae0</title>
<path fill="none" stroke="black" d="M148,-945.349C148,-937.488 148,-927.852 148,-918.061"/>
<polygon fill="black" stroke="black" points="151.5,-917.87 148,-907.87 144.5,-917.87 151.5,-917.87"/>
</g>
<!-- Node0xe698bd0 -->
<g id="node3" class="node"><title>Node0xe698bd0</title>
<polygon fill="none" stroke="black" points="78,-750.5 78,-786.5 218,-786.5 218,-750.5 78,-750.5"/>
<text text-anchor="start" x="86" y="-764.8" font-family="Times,serif" font-size="14.00">if (a1 == NULL):</text>
</g>
<!-- Node0xe698ae0&#45;&gt;Node0xe698bd0 -->
<g id="edge2" class="edge"><title>Node0xe698ae0&#45;&gt;Node0xe698bd0</title>
<path fill="none" stroke="black" d="M148,-824.499C148,-815.206 148,-805.537 148,-796.946"/>
<polygon fill="black" stroke="black" points="151.5,-796.749 148,-786.749 144.5,-796.749 151.5,-796.749"/>
</g>
<!-- Node0x7f996a0 -->
<g id="node4" class="node"><title>Node0x7f996a0</title>
<polygon fill="none" stroke="black" points="0,-558.5 0,-611.5 100,-611.5 100,-558.5 0,-558.5"/>
<text text-anchor="start" x="8" y="-596.3" font-family="Times,serif" font-size="14.00">0x804cdc2:</text>
<text text-anchor="start" x="8" y="-581.3" font-family="Times,serif" font-size="14.00"> g3 = v2</text>
<text text-anchor="start" x="8" y="-566.3" font-family="Times,serif" font-size="14.00"> return g1</text>
</g>
<!-- Node0xe698bd0&#45;&gt;Node0x7f996a0 -->
<g id="edge3" class="edge"><title>Node0xe698bd0&#45;&gt;Node0x7f996a0</title>
<path fill="none" stroke="black" d="M120.348,-750.245C113.641,-745.037 106.977,-738.858 102,-732 77.7892,-698.643 63.9339,-652.931 56.71,-621.592"/>
<polygon fill="black" stroke="black" points="60.0696,-620.573 54.509,-611.554 53.232,-622.072 60.0696,-620.573"/>
<text text-anchor="middle" x="149" y="-720.8" font-family="Times,serif" font-size="14.00">a1 == NULL</text>
</g>
<!-- Node0xe698da0 -->
<g id="node5" class="node"><title>Node0xe698da0</title>
<polygon fill="none" stroke="black" points="177.5,-630.5 177.5,-698.5 412.5,-698.5 412.5,-630.5 177.5,-630.5"/>
<text text-anchor="start" x="185.5" y="-683.3" font-family="Times,serif" font-size="14.00">v4 = *(BitCastExpr&lt;ptr&gt;(a1))</text>
<text text-anchor="start" x="185.5" y="-668.3" font-family="Times,serif" font-size="14.00"> g1 = v4</text>
<text text-anchor="start" x="185.5" y="-653.3" font-family="Times,serif" font-size="14.00"> g237 = (v4 == 0)</text>
<text text-anchor="start" x="185.5" y="-638.3" font-family="Times,serif" font-size="14.00"> result</text>
</g>
<!-- Node0xe698bd0&#45;&gt;Node0xe698da0 -->
<g id="edge4" class="edge"><title>Node0xe698bd0&#45;&gt;Node0xe698da0</title>
<path fill="none" stroke="black" d="M172.604,-750.427C190.73,-737.851 216.116,-720.236 239.073,-704.307"/>
<polygon fill="black" stroke="black" points="241.182,-707.103 247.403,-698.527 237.191,-701.352 241.182,-707.103"/>
<text text-anchor="middle" x="262" y="-720.8" font-family="Times,serif" font-size="14.00">a1 != NULL</text>
</g>
<!-- Node0xe698a60 -->
<g id="node6" class="node"><title>Node0xe698a60</title>
<polygon fill="none" stroke="black" points="420,-23.5 420,-59.5 474,-59.5 474,-23.5 420,-23.5"/>
<text text-anchor="start" x="428" y="-37.8" font-family="Times,serif" font-size="14.00">exit:</text>
</g>
<!-- Node0x7f996a0&#45;&gt;Node0xe698a60 -->
<g id="edge5" class="edge"><title>Node0x7f996a0&#45;&gt;Node0xe698a60</title>
<path fill="none" stroke="black" d="M47.0211,-558.41C44.7466,-536.654 42,-504.572 42,-476.5 42,-476.5 42,-476.5 42,-123 42,-48.4718 309.167,-41.9039 409.514,-42.0655"/>
<polygon fill="black" stroke="black" points="409.784,-45.5665 419.798,-42.107 409.812,-38.5666 409.784,-45.5665"/>
</g>
<!-- Node0xe698900 -->
<g id="node7" class="node"><title>Node0xe698900</title>
<polygon fill="none" stroke="black" points="271.5,-501.5 271.5,-539.5 370.5,-539.5 370.5,-501.5 271.5,-501.5"/>
<text text-anchor="start" x="279.5" y="-524.3" font-family="Times,serif" font-size="14.00">if (v4 != 0):</text>
<text text-anchor="start" x="279.5" y="-509.3" font-family="Times,serif" font-size="14.00"> else:</text>
</g>
<!-- Node0xe698da0&#45;&gt;Node0xe698900 -->
<g id="edge6" class="edge"><title>Node0xe698da0&#45;&gt;Node0xe698900</title>
<path fill="none" stroke="black" d="M301.096,-630.207C305.573,-605.753 311.59,-572.892 315.833,-549.722"/>
<polygon fill="black" stroke="black" points="319.287,-550.29 317.645,-539.823 312.401,-549.029 319.287,-550.29"/>
</g>
<!-- Node0xe6990c0 -->
<g id="node8" class="node"><title>Node0xe6990c0</title>
<polygon fill="none" stroke="black" points="70.5,-351.5 70.5,-449.5 571.5,-449.5 571.5,-351.5 70.5,-351.5"/>
<text text-anchor="start" x="78.5" y="-434.3" font-family="Times,serif" font-size="14.00">v5 = *(IntToPtrCastExpr&lt;ptr&gt;((v3 + 4)))</text>
<text text-anchor="start" x="78.5" y="-419.3" font-family="Times,serif" font-size="14.00"> g6 = v5</text>
<text text-anchor="start" x="78.5" y="-404.3" font-family="Times,serif" font-size="14.00"> IntToPtrCastExpr&lt;ptr&gt;(*(IntToPtrCastExpr&lt;ptr&gt;((v4 + 40))))(v5)</text>
<text text-anchor="start" x="78.5" y="-389.3" font-family="Times,serif" font-size="14.00"> g6 = (g3 + 8)</text>
<text text-anchor="start" x="78.5" y="-374.3" font-family="Times,serif" font-size="14.00"> *(IntToPtrCastExpr&lt;ptr&gt;(g3)) = 0</text>
<text text-anchor="start" x="78.5" y="-359.3" font-family="Times,serif" font-size="14.00"> v6 = (g3 + 1)</text>
</g>
<!-- Node0xe698900&#45;&gt;Node0xe6990c0 -->
<g id="edge7" class="edge"><title>Node0xe698900&#45;&gt;Node0xe6990c0</title>
<path fill="none" stroke="black" d="M321,-501.321C321,-490.08 321,-474.962 321,-459.896"/>
<polygon fill="black" stroke="black" points="324.5,-459.523 321,-449.523 317.5,-459.523 324.5,-459.523"/>
<text text-anchor="middle" x="348" y="-471.8" font-family="Times,serif" font-size="14.00">v4 != 0</text>
</g>
<!-- Node0xe699650 -->
<g id="node9" class="node"><title>Node0xe699650</title>
<polygon fill="none" stroke="black" points="550.5,-296.5 550.5,-332.5 639.5,-332.5 639.5,-296.5 550.5,-296.5"/>
<text text-anchor="start" x="558.5" y="-310.8" font-family="Times,serif" font-size="14.00">result = 0</text>
</g>
<!-- Node0xe698900&#45;&gt;Node0xe699650 -->
<g id="edge8" class="edge"><title>Node0xe698900&#45;&gt;Node0xe699650</title>
<path fill="none" stroke="black" d="M370.614,-512.968C438.2,-502.992 553.924,-481.715 581,-450 606.252,-420.422 604.685,-372.804 600.435,-342.879"/>
<polygon fill="black" stroke="black" points="603.843,-342.033 598.792,-332.72 596.933,-343.151 603.843,-342.033"/>
<text text-anchor="middle" x="584" y="-471.8" font-family="Times,serif" font-size="14.00">v4 == 0</text>
</g>
<!-- Node0xe699250 -->
<g id="node10" class="node"><title>Node0xe699250</title>
<polygon fill="none" stroke="black" points="252.5,-241.5 252.5,-277.5 389.5,-277.5 389.5,-241.5 252.5,-241.5"/>
<text text-anchor="start" x="260.5" y="-255.8" font-family="Times,serif" font-size="14.00">while (v6 != g6):</text>
</g>
<!-- Node0xe6990c0&#45;&gt;Node0xe699250 -->
<g id="edge9" class="edge"><title>Node0xe6990c0&#45;&gt;Node0xe699250</title>
<path fill="none" stroke="black" d="M321,-351.275C321,-330.006 321,-305.796 321,-287.73"/>
<polygon fill="black" stroke="black" points="324.5,-287.615 321,-277.615 317.5,-287.615 324.5,-287.615"/>
</g>
<!-- Node0xe699060 -->
<g id="node11" class="node"><title>Node0xe699060</title>
<polygon fill="none" stroke="black" points="483.5,-169.5 483.5,-222.5 596.5,-222.5 596.5,-169.5 483.5,-169.5"/>
<text text-anchor="start" x="491.5" y="-207.3" font-family="Times,serif" font-size="14.00">0x804cdc2:</text>
<text text-anchor="start" x="491.5" y="-192.3" font-family="Times,serif" font-size="14.00"> g3 = v2</text>
<text text-anchor="start" x="491.5" y="-177.3" font-family="Times,serif" font-size="14.00"> return result</text>
</g>
<!-- Node0xe699650&#45;&gt;Node0xe699060 -->
<g id="edge10" class="edge"><title>Node0xe699650&#45;&gt;Node0xe699060</title>
<path fill="none" stroke="black" d="M586.885,-296.31C578.92,-279.439 566.54,-253.217 556.502,-231.954"/>
<polygon fill="black" stroke="black" points="559.655,-230.435 552.221,-222.887 553.325,-233.424 559.655,-230.435"/>
</g>
<!-- Node0xe6996f0 -->
<g id="node12" class="node"><title>Node0xe6996f0</title>
<polygon fill="none" stroke="black" points="108,-97.5 108,-150.5 378,-150.5 378,-97.5 108,-97.5"/>
<text text-anchor="start" x="116" y="-135.3" font-family="Times,serif" font-size="14.00">0x804cdb8:</text>
<text text-anchor="start" x="116" y="-120.3" font-family="Times,serif" font-size="14.00"> *(IntToPtrCastExpr&lt;ptr&gt;(v6)) = 0</text>
<text text-anchor="start" x="116" y="-105.3" font-family="Times,serif" font-size="14.00"> v6 = (v6 + 1)</text>
</g>
<!-- Node0xe699250&#45;&gt;Node0xe6996f0 -->
<g id="edge11" class="edge"><title>Node0xe699250&#45;&gt;Node0xe6996f0</title>
<path fill="none" stroke="black" d="M263.906,-241.438C256.033,-236.694 248.96,-230.661 244,-223 232.268,-204.877 231.92,-180.645 234.553,-160.811"/>
<polygon fill="black" stroke="black" points="238.016,-161.326 236.158,-150.896 231.105,-160.208 238.016,-161.326"/>
<text text-anchor="middle" x="275.5" y="-192.3" font-family="Times,serif" font-size="14.00">v6 != g6</text>
</g>
<!-- Node0xe6995f0 -->
<g id="node13" class="node"><title>Node0xe6995f0</title>
<polygon fill="none" stroke="black" points="396.5,-105 396.5,-143 497.5,-143 497.5,-105 396.5,-105"/>
<text text-anchor="start" x="404.5" y="-127.8" font-family="Times,serif" font-size="14.00">0x804cdc2:</text>
<text text-anchor="start" x="404.5" y="-112.8" font-family="Times,serif" font-size="14.00"> result = v6</text>
</g>
<!-- Node0xe699250&#45;&gt;Node0xe6995f0 -->
<g id="edge12" class="edge"><title>Node0xe699250&#45;&gt;Node0xe6995f0</title>
<path fill="none" stroke="black" d="M337.214,-241.321C358.871,-218.374 397.427,-177.524 422.601,-150.851"/>
<polygon fill="black" stroke="black" points="425.318,-153.072 429.636,-143.397 420.227,-148.267 425.318,-153.072"/>
<text text-anchor="middle" x="436.5" y="-192.3" font-family="Times,serif" font-size="14.00">v6 == g6</text>
</g>
<!-- Node0xe699060&#45;&gt;Node0xe698a60 -->
<g id="edge13" class="edge"><title>Node0xe699060&#45;&gt;Node0xe698a60</title>
<path fill="none" stroke="black" d="M535.1,-169.264C530.298,-148.517 521.541,-119.238 507,-97 499.525,-85.5689 489.094,-74.972 479.023,-66.2197"/>
<polygon fill="black" stroke="black" points="481.012,-63.3214 471.086,-59.6153 476.534,-68.7021 481.012,-63.3214"/>
</g>
<!-- Node0xe6996f0&#45;&gt;Node0xe699250 -->
<g id="edge14" class="edge"><title>Node0xe6996f0&#45;&gt;Node0xe699250</title>
<path fill="none" stroke="black" d="M290.203,-150.58C296.691,-155.898 302.618,-162.039 307,-169 318.681,-187.555 321.791,-212.444 322.202,-231.265"/>
<polygon fill="black" stroke="black" points="318.702,-231.278 322.183,-241.284 325.702,-231.291 318.702,-231.278"/>
</g>
<!-- Node0xe6995f0&#45;&gt;Node0xe698a60 -->
<g id="edge15" class="edge"><title>Node0xe6995f0&#45;&gt;Node0xe698a60</title>
<path fill="none" stroke="black" d="M447,-104.733C447,-94.3626 447,-81.1832 447,-69.6251"/>
<polygon fill="black" stroke="black" points="450.5,-69.5935 447,-59.5935 443.5,-69.5936 450.5,-69.5935"/>
</g>
</g>
</svg>
