<?xml version="1.0" encoding="UTF-8" standalone="no"?>
<!DOCTYPE svg PUBLIC "-//W3C//DTD SVG 1.1//EN"
 "http://www.w3.org/Graphics/SVG/1.1/DTD/svg11.dtd">
<!-- Generated by graphviz version 2.38.0 (20140413.2041)
 -->
<!-- Title: Control&#45;flow graph for function &#39;rsa_get_bitlen(a1)&#39;. Pages: 1 -->
<svg width="394pt" height="233pt"
 viewBox="0.00 0.00 394.00 233.00" xmlns="http://www.w3.org/2000/svg" xmlns:xlink="http://www.w3.org/1999/xlink">
<g id="graph0" class="graph" transform="scale(1 1) rotate(0) translate(4 229)">
<title>Control&#45;flow graph for function &#39;rsa_get_bitlen(a1)&#39;.</title>
<polygon fill="white" stroke="none" points="-4,4 -4,-229 390,-229 390,4 -4,4"/>
<text text-anchor="middle" x="193" y="-7.8" font-family="Times,serif" font-size="14.00">Control&#45;flow graph for function &#39;rsa_get_bitlen(a1)&#39;.</text>
<!-- Node0xf248870 -->
<g id="node1" class="node"><title>Node0xf248870</title>
<polygon fill="none" stroke="black" points="163.5,-186.5 163.5,-224.5 222.5,-224.5 222.5,-186.5 163.5,-186.5"/>
<text text-anchor="start" x="171.5" y="-209.3" font-family="Times,serif" font-size="14.00">entry:</text>
<text text-anchor="start" x="171.5" y="-194.3" font-family="Times,serif" font-size="14.00"> a1</text>
</g>
<!-- Node0xf2487d0 -->
<g id="node2" class="node"><title>Node0xf2487d0</title>
<polygon fill="none" stroke="black" points="5.5,-96.5 5.5,-149.5 380.5,-149.5 380.5,-96.5 5.5,-96.5"/>
<text text-anchor="start" x="13.5" y="-134.3" font-family="Times,serif" font-size="14.00">result = (8 * *(IntToPtrCastExpr&lt;ptr&gt;((a1 + 4))))</text>
<text text-anchor="start" x="13.5" y="-119.3" font-family="Times,serif" font-size="14.00"> g1 = result</text>
<text text-anchor="start" x="13.5" y="-104.3" font-family="Times,serif" font-size="14.00"> return result</text>
</g>
<!-- Node0xf248870&#45;&gt;Node0xf2487d0 -->
<g id="edge1" class="edge"><title>Node0xf248870&#45;&gt;Node0xf2487d0</title>
<path fill="none" stroke="black" d="M193,-186.233C193,-178.347 193,-168.835 193,-159.648"/>
<polygon fill="black" stroke="black" points="196.5,-159.517 193,-149.517 189.5,-159.517 196.5,-159.517"/>
</g>
<!-- Node0xdf07a40 -->
<g id="node3" class="node"><title>Node0xdf07a40</title>
<polygon fill="none" stroke="black" points="166,-23.5 166,-59.5 220,-59.5 220,-23.5 166,-23.5"/>
<text text-anchor="start" x="174" y="-37.8" font-family="Times,serif" font-size="14.00">exit:</text>
</g>
<!-- Node0xf2487d0&#45;&gt;Node0xdf07a40 -->
<g id="edge2" class="edge"><title>Node0xf2487d0&#45;&gt;Node0xdf07a40</title>
<path fill="none" stroke="black" d="M193,-96.4081C193,-87.9823 193,-78.5803 193,-70.0174"/>
<polygon fill="black" stroke="black" points="196.5,-69.7564 193,-59.7564 189.5,-69.7565 196.5,-69.7564"/>
</g>
</g>
</svg>
