<?xml version="1.0" encoding="UTF-8" standalone="no"?>
<!DOCTYPE svg PUBLIC "-//W3C//DTD SVG 1.1//EN"
 "http://www.w3.org/Graphics/SVG/1.1/DTD/svg11.dtd">
<!-- Generated by graphviz version 2.38.0 (20140413.2041)
 -->
<!-- Title: Control&#45;flow graph for function &#39;mbedtls_ecp_curve_info_from_grp_id(a1, a2)&#39;. Pages: 1 -->
<svg width="586pt" height="896pt"
 viewBox="0.00 0.00 586.00 896.00" xmlns="http://www.w3.org/2000/svg" xmlns:xlink="http://www.w3.org/1999/xlink">
<g id="graph0" class="graph" transform="scale(1 1) rotate(0) translate(4 892)">
<title>Control&#45;flow graph for function &#39;mbedtls_ecp_curve_info_from_grp_id(a1, a2)&#39;.</title>
<polygon fill="white" stroke="none" points="-4,4 -4,-892 582,-892 582,4 -4,4"/>
<text text-anchor="middle" x="289" y="-7.8" font-family="Times,serif" font-size="14.00">Control&#45;flow graph for function &#39;mbedtls_ecp_curve_info_from_grp_id(a1, a2)&#39;.</text>
<!-- Node0x1c782c70 -->
<g id="node1" class="node"><title>Node0x1c782c70</title>
<polygon fill="none" stroke="black" points="158.25,-834.5 158.25,-887.5 217.25,-887.5 217.25,-834.5 158.25,-834.5"/>
<text text-anchor="start" x="166.25" y="-872.3" font-family="Times,serif" font-size="14.00">entry:</text>
<text text-anchor="start" x="166.25" y="-857.3" font-family="Times,serif" font-size="14.00"> a1</text>
<text text-anchor="start" x="166.25" y="-842.3" font-family="Times,serif" font-size="14.00"> a2</text>
</g>
<!-- Node0x1c783050 -->
<g id="node2" class="node"><title>Node0x1c783050</title>
<polygon fill="none" stroke="black" points="132.75,-758.5 132.75,-796.5 242.75,-796.5 242.75,-758.5 132.75,-758.5"/>
<text text-anchor="start" x="140.75" y="-781.3" font-family="Times,serif" font-size="14.00">0x805bba0:</text>
<text text-anchor="start" x="140.75" y="-766.3" font-family="Times,serif" font-size="14.00"> if (a1 == 5):</text>
</g>
<!-- Node0x1c782c70&#45;&gt;Node0x1c783050 -->
<g id="edge1" class="edge"><title>Node0x1c782c70&#45;&gt;Node0x1c783050</title>
<path fill="none" stroke="black" d="M187.75,-834.213C187.75,-825.526 187.75,-815.787 187.75,-806.91"/>
<polygon fill="black" stroke="black" points="191.25,-806.638 187.75,-796.638 184.25,-806.638 191.25,-806.638"/>
</g>
<!-- Node0x1c7834c0 -->
<g id="node3" class="node"><title>Node0x1c7834c0</title>
<polygon fill="none" stroke="black" points="61.75,-611.5 61.75,-649.5 183.75,-649.5 183.75,-611.5 61.75,-611.5"/>
<text text-anchor="start" x="69.75" y="-634.3" font-family="Times,serif" font-size="14.00">0x805bbc7:</text>
<text text-anchor="start" x="69.75" y="-619.3" font-family="Times,serif" font-size="14.00"> return &amp;(g43)</text>
</g>
<!-- Node0x1c783050&#45;&gt;Node0x1c7834c0 -->
<g id="edge2" class="edge"><title>Node0x1c783050&#45;&gt;Node0x1c7834c0</title>
<path fill="none" stroke="black" d="M177.994,-758.447C174.935,-752.609 171.613,-746.074 168.75,-740 155.966,-712.877 142.743,-681.25 133.774,-659.165"/>
<polygon fill="black" stroke="black" points="136.958,-657.702 129.969,-649.739 130.467,-660.322 136.958,-657.702"/>
<text text-anchor="middle" x="198.75" y="-728.8" font-family="Times,serif" font-size="14.00">a1 == 5</text>
</g>
<!-- Node0x1c783260 -->
<g id="node4" class="node"><title>Node0x1c783260</title>
<polygon fill="none" stroke="black" points="237.25,-668.5 237.25,-706.5 342.25,-706.5 342.25,-668.5 237.25,-668.5"/>
<text text-anchor="start" x="245.25" y="-691.3" font-family="Times,serif" font-size="14.00">v1 = &amp;(g43)</text>
<text text-anchor="start" x="245.25" y="-676.3" font-family="Times,serif" font-size="14.00"> result</text>
</g>
<!-- Node0x1c783050&#45;&gt;Node0x1c783260 -->
<g id="edge3" class="edge"><title>Node0x1c783050&#45;&gt;Node0x1c783260</title>
<path fill="none" stroke="black" d="M208.884,-758.266C223.928,-745.287 244.326,-727.69 260.87,-713.416"/>
<polygon fill="black" stroke="black" points="263.357,-715.893 268.643,-706.71 258.785,-710.593 263.357,-715.893"/>
<text text-anchor="middle" x="272.75" y="-728.8" font-family="Times,serif" font-size="14.00">a1 != 5</text>
</g>
<!-- Node0x1c782ff0 -->
<g id="node5" class="node"><title>Node0x1c782ff0</title>
<polygon fill="none" stroke="black" points="168.75,-23.5 168.75,-59.5 222.75,-59.5 222.75,-23.5 168.75,-23.5"/>
<text text-anchor="start" x="176.75" y="-37.8" font-family="Times,serif" font-size="14.00">exit:</text>
</g>
<!-- Node0x1c7834c0&#45;&gt;Node0x1c782ff0 -->
<g id="edge4" class="edge"><title>Node0x1c7834c0&#45;&gt;Node0x1c782ff0</title>
<path fill="none" stroke="black" d="M121.866,-611.443C120.981,-591.784 119.75,-559.416 119.75,-531.5 119.75,-531.5 119.75,-531.5 119.75,-115.5 119.75,-91.1167 140.349,-72.3361 160.099,-59.9333"/>
<polygon fill="black" stroke="black" points="161.897,-62.9362 168.741,-54.8487 158.347,-56.9029 161.897,-62.9362"/>
</g>
<!-- Node0x1c783310 -->
<g id="node6" class="node"><title>Node0x1c783310</title>
<polygon fill="none" stroke="black" points="251.25,-556.5 251.25,-592.5 348.25,-592.5 348.25,-556.5 251.25,-556.5"/>
<text text-anchor="start" x="259.25" y="-570.8" font-family="Times,serif" font-size="14.00">while True:</text>
</g>
<!-- Node0x1c783260&#45;&gt;Node0x1c783310 -->
<g id="edge5" class="edge"><title>Node0x1c783260&#45;&gt;Node0x1c783310</title>
<path fill="none" stroke="black" d="M291.401,-668.171C293,-650.424 295.444,-623.294 297.276,-602.966"/>
<polygon fill="black" stroke="black" points="300.784,-603.034 298.195,-592.76 293.812,-602.406 300.784,-603.034"/>
</g>
<!-- Node0x1c783570 -->
<g id="node7" class="node"><title>Node0x1c783570</title>
<polygon fill="none" stroke="black" points="148.25,-451.5 148.25,-504.5 451.25,-504.5 451.25,-451.5 148.25,-451.5"/>
<text text-anchor="start" x="156.25" y="-489.3" font-family="Times,serif" font-size="14.00">0x805bbbc:</text>
<text text-anchor="start" x="156.25" y="-474.3" font-family="Times,serif" font-size="14.00"> result = (v1 + 12)</text>
<text text-anchor="start" x="156.25" y="-459.3" font-family="Times,serif" font-size="14.00"> v2 = *(IntToPtrCastExpr&lt;ptr&gt;(result))</text>
</g>
<!-- Node0x1c783310&#45;&gt;Node0x1c783570 -->
<g id="edge6" class="edge"><title>Node0x1c783310&#45;&gt;Node0x1c783570</title>
<path fill="none" stroke="black" d="M299.75,-556.167C299.75,-544.703 299.75,-529.247 299.75,-515.178"/>
<polygon fill="black" stroke="black" points="303.25,-514.78 299.75,-504.78 296.25,-514.78 303.25,-514.78"/>
<text text-anchor="middle" x="316.75" y="-526.8" font-family="Times,serif" font-size="14.00">True</text>
</g>
<!-- Node0x1c783610 -->
<g id="node8" class="node"><title>Node0x1c783610</title>
<polygon fill="none" stroke="black" points="247.25,-377.5 247.25,-413.5 352.25,-413.5 352.25,-377.5 247.25,-377.5"/>
<text text-anchor="start" x="255.25" y="-391.8" font-family="Times,serif" font-size="14.00">if (v2 == 0):</text>
</g>
<!-- Node0x1c783570&#45;&gt;Node0x1c783610 -->
<g id="edge7" class="edge"><title>Node0x1c783570&#45;&gt;Node0x1c783610</title>
<path fill="none" stroke="black" d="M299.75,-451.086C299.75,-442.46 299.75,-432.822 299.75,-424.075"/>
<polygon fill="black" stroke="black" points="303.25,-423.973 299.75,-413.974 296.25,-423.974 303.25,-423.973"/>
</g>
<!-- Node0xb687730 -->
<g id="node9" class="node"><title>Node0xb687730</title>
<polygon fill="none" stroke="black" points="151.25,-230.5 151.25,-268.5 252.25,-268.5 252.25,-230.5 151.25,-230.5"/>
<text text-anchor="start" x="159.25" y="-253.3" font-family="Times,serif" font-size="14.00">0x805bbc7:</text>
<text text-anchor="start" x="159.25" y="-238.3" font-family="Times,serif" font-size="14.00"> return 0</text>
</g>
<!-- Node0x1c783610&#45;&gt;Node0xb687730 -->
<g id="edge8" class="edge"><title>Node0x1c783610&#45;&gt;Node0xb687730</title>
<path fill="none" stroke="black" d="M260.754,-377.409C252.628,-372.419 244.728,-366.299 238.75,-359 219.723,-335.767 210.271,-302.227 205.718,-278.603"/>
<polygon fill="black" stroke="black" points="209.124,-277.766 203.953,-268.518 202.229,-278.972 209.124,-277.766"/>
<text text-anchor="middle" x="268.75" y="-347.8" font-family="Times,serif" font-size="14.00">v2 == 0</text>
</g>
<!-- Node0x1c7839d0 -->
<g id="node10" class="node"><title>Node0x1c7839d0</title>
<polygon fill="none" stroke="black" points="247.75,-287.5 247.75,-325.5 365.75,-325.5 365.75,-287.5 247.75,-287.5"/>
<text text-anchor="start" x="255.75" y="-310.3" font-family="Times,serif" font-size="14.00">0x805bbb8:</text>
<text text-anchor="start" x="255.75" y="-295.3" font-family="Times,serif" font-size="14.00"> if (v2 == a1):</text>
</g>
<!-- Node0x1c783610&#45;&gt;Node0x1c7839d0 -->
<g id="edge9" class="edge"><title>Node0x1c783610&#45;&gt;Node0x1c7839d0</title>
<path fill="none" stroke="black" d="M301.133,-377.312C302.082,-365.511 303.365,-349.572 304.465,-335.904"/>
<polygon fill="black" stroke="black" points="307.984,-335.8 305.298,-325.551 301.007,-335.238 307.984,-335.8"/>
<text text-anchor="middle" x="330.75" y="-347.8" font-family="Times,serif" font-size="14.00">v2 != 0</text>
</g>
<!-- Node0xb687730&#45;&gt;Node0x1c782ff0 -->
<g id="edge10" class="edge"><title>Node0xb687730&#45;&gt;Node0x1c782ff0</title>
<path fill="none" stroke="black" d="M201.218,-230.219C200.16,-193.895 197.788,-112.468 196.545,-69.7859"/>
<polygon fill="black" stroke="black" points="200.037,-69.4695 196.247,-59.5757 193.04,-69.6734 200.037,-69.4695"/>
</g>
<!-- Node0xb6877d0 -->
<g id="node11" class="node"><title>Node0xb6877d0</title>
<polygon fill="none" stroke="black" points="223.25,-173.5 223.25,-211.5 390.25,-211.5 390.25,-173.5 223.25,-173.5"/>
<text text-anchor="start" x="231.25" y="-196.3" font-family="Times,serif" font-size="14.00">break &#45;&gt; 0x805bbc7:</text>
<text text-anchor="start" x="231.25" y="-181.3" font-family="Times,serif" font-size="14.00"> break</text>
</g>
<!-- Node0x1c7839d0&#45;&gt;Node0xb6877d0 -->
<g id="edge11" class="edge"><title>Node0x1c7839d0&#45;&gt;Node0xb6877d0</title>
<path fill="none" stroke="black" d="M306.75,-287.005C306.75,-269.228 306.75,-242.118 306.75,-221.659"/>
<polygon fill="black" stroke="black" points="310.25,-221.65 306.75,-211.65 303.25,-221.65 310.25,-221.65"/>
<text text-anchor="middle" x="340.75" y="-245.8" font-family="Times,serif" font-size="14.00">v2 == a1</text>
</g>
<!-- Node0xb6876d0 -->
<g id="node12" class="node"><title>Node0xb6876d0</title>
<polygon fill="none" stroke="black" points="419.25,-174.5 419.25,-210.5 516.25,-210.5 516.25,-174.5 419.25,-174.5"/>
<text text-anchor="start" x="427.25" y="-188.8" font-family="Times,serif" font-size="14.00">v1 = result</text>
</g>
<!-- Node0x1c7839d0&#45;&gt;Node0xb6876d0 -->
<g id="edge12" class="edge"><title>Node0x1c7839d0&#45;&gt;Node0xb6876d0</title>
<path fill="none" stroke="black" d="M351.762,-287.334C361.293,-282.261 370.849,-276.142 378.75,-269 394.024,-255.194 388.82,-244.177 403.75,-230 409.17,-224.853 415.451,-220.154 421.917,-215.966"/>
<polygon fill="black" stroke="black" points="424.056,-218.762 430.785,-210.579 420.421,-212.78 424.056,-218.762"/>
<text text-anchor="middle" x="434.75" y="-245.8" font-family="Times,serif" font-size="14.00">v2 != a1</text>
</g>
<!-- Node0x1c783420 -->
<g id="node13" class="node"><title>Node0x1c783420</title>
<polygon fill="none" stroke="black" points="230.25,-97.5 230.25,-135.5 343.25,-135.5 343.25,-97.5 230.25,-97.5"/>
<text text-anchor="start" x="238.25" y="-120.3" font-family="Times,serif" font-size="14.00">0x805bbc7:</text>
<text text-anchor="start" x="238.25" y="-105.3" font-family="Times,serif" font-size="14.00"> return result</text>
</g>
<!-- Node0xb6877d0&#45;&gt;Node0x1c783420 -->
<g id="edge13" class="edge"><title>Node0xb6877d0&#45;&gt;Node0x1c783420</title>
<path fill="none" stroke="black" d="M301.806,-173.208C299.53,-164.784 296.778,-154.605 294.254,-145.265"/>
<polygon fill="black" stroke="black" points="297.625,-144.322 291.637,-135.582 290.867,-146.149 297.625,-144.322"/>
</g>
<!-- Node0xb6876d0&#45;&gt;Node0x1c783310 -->
<g id="edge14" class="edge"><title>Node0xb6876d0&#45;&gt;Node0x1c783310</title>
<path fill="none" stroke="black" d="M470.716,-210.517C474.27,-232.414 479.75,-271.669 479.75,-305.5 479.75,-479 479.75,-479 479.75,-479 479.75,-534.871 410.926,-557.779 358.392,-567.127"/>
<polygon fill="black" stroke="black" points="357.755,-563.685 348.461,-568.77 358.898,-570.591 357.755,-563.685"/>
</g>
<!-- Node0x1c783420&#45;&gt;Node0x1c782ff0 -->
<g id="edge15" class="edge"><title>Node0x1c783420&#45;&gt;Node0x1c782ff0</title>
<path fill="none" stroke="black" d="M264.256,-97.4551C252.426,-87.9651 237.78,-76.2165 225.071,-66.0211"/>
<polygon fill="black" stroke="black" points="227.038,-63.1123 217.048,-59.585 222.658,-68.5726 227.038,-63.1123"/>
</g>
</g>
</svg>
