<?xml version="1.0" encoding="UTF-8" standalone="no"?>
<!DOCTYPE svg PUBLIC "-//W3C//DTD SVG 1.1//EN"
 "http://www.w3.org/Graphics/SVG/1.1/DTD/svg11.dtd">
<!-- Generated by graphviz version 2.38.0 (20140413.2041)
 -->
<!-- Title: Control&#45;flow graph for function &#39;mbedtls_rsa_public(a1, a2, a3)&#39;. Pages: 1 -->
<svg width="1338pt" height="1788pt"
 viewBox="0.00 0.00 1338.00 1788.00" xmlns="http://www.w3.org/2000/svg" xmlns:xlink="http://www.w3.org/1999/xlink">
<g id="graph0" class="graph" transform="scale(1 1) rotate(0) translate(4 1784)">
<title>Control&#45;flow graph for function &#39;mbedtls_rsa_public(a1, a2, a3)&#39;.</title>
<polygon fill="white" stroke="none" points="-4,4 -4,-1784 1334,-1784 1334,4 -4,4"/>
<text text-anchor="middle" x="665" y="-7.8" font-family="Times,serif" font-size="14.00">Control&#45;flow graph for function &#39;mbedtls_rsa_public(a1, a2, a3)&#39;.</text>
<!-- Node0x92a4160 -->
<g id="node1" class="node"><title>Node0x92a4160</title>
<polygon fill="none" stroke="black" points="346.5,-1711.5 346.5,-1779.5 405.5,-1779.5 405.5,-1711.5 346.5,-1711.5"/>
<text text-anchor="start" x="354.5" y="-1764.3" font-family="Times,serif" font-size="14.00">entry:</text>
<text text-anchor="start" x="354.5" y="-1749.3" font-family="Times,serif" font-size="14.00"> a1</text>
<text text-anchor="start" x="354.5" y="-1734.3" font-family="Times,serif" font-size="14.00"> a2</text>
<text text-anchor="start" x="354.5" y="-1719.3" font-family="Times,serif" font-size="14.00"> a3</text>
</g>
<!-- Node0x7d9b0f0 -->
<g id="node2" class="node"><title>Node0x7d9b0f0</title>
<polygon fill="none" stroke="black" points="0,-1500.5 0,-1673.5 752,-1673.5 752,-1500.5 0,-1500.5"/>
<text text-anchor="start" x="8" y="-1658.3" font-family="Times,serif" font-size="14.00">v1 = g7</text>
<text text-anchor="start" x="8" y="-1643.3" font-family="Times,serif" font-size="14.00"> g7 = a1</text>
<text text-anchor="start" x="8" y="-1628.3" font-family="Times,serif" font-size="14.00"> v2 = g3</text>
<text text-anchor="start" x="8" y="-1613.3" font-family="Times,serif" font-size="14.00"> v3</text>
<text text-anchor="start" x="8" y="-1598.3" font-family="Times,serif" font-size="14.00"> g3 = &amp;(v3)</text>
<text text-anchor="start" x="8" y="-1583.3" font-family="Times,serif" font-size="14.00"> v4 = g5</text>
<text text-anchor="start" x="8" y="-1568.3" font-family="Times,serif" font-size="14.00"> mbedtls_mpi_init(&amp;(v3))</text>
<text text-anchor="start" x="8" y="-1553.3" font-family="Times,serif" font-size="14.00"> v5 = mbedtls_mpi_read_binary(g3, IntToPtrCastExpr&lt;ptr&gt;(a2), *(IntToPtrCastExpr&lt;ptr&gt;((g7 + 4))))</text>
<text text-anchor="start" x="8" y="-1538.3" font-family="Times,serif" font-size="14.00"> v6</text>
<text text-anchor="start" x="8" y="-1523.3" font-family="Times,serif" font-size="14.00"> result</text>
<text text-anchor="start" x="8" y="-1508.3" font-family="Times,serif" font-size="14.00"> v7</text>
</g>
<!-- Node0x92a4160&#45;&gt;Node0x7d9b0f0 -->
<g id="edge1" class="edge"><title>Node0x92a4160&#45;&gt;Node0x7d9b0f0</title>
<path fill="none" stroke="black" d="M376,-1711.31C376,-1702.99 376,-1693.63 376,-1683.89"/>
<polygon fill="black" stroke="black" points="379.5,-1683.63 376,-1673.63 372.5,-1683.63 379.5,-1683.63"/>
</g>
<!-- Node0x15be6410 -->
<g id="node3" class="node"><title>Node0x15be6410</title>
<polygon fill="none" stroke="black" points="326.5,-1426.5 326.5,-1462.5 425.5,-1462.5 425.5,-1426.5 326.5,-1426.5"/>
<text text-anchor="start" x="334.5" y="-1440.8" font-family="Times,serif" font-size="14.00">if (v5 != 0):</text>
</g>
<!-- Node0x7d9b0f0&#45;&gt;Node0x15be6410 -->
<g id="edge2" class="edge"><title>Node0x7d9b0f0&#45;&gt;Node0x15be6410</title>
<path fill="none" stroke="black" d="M376,-1500.22C376,-1490.48 376,-1481.16 376,-1473.06"/>
<polygon fill="black" stroke="black" points="379.5,-1472.84 376,-1462.84 372.5,-1472.84 379.5,-1472.84"/>
</g>
<!-- Node0x15be79e0 -->
<g id="node4" class="node"><title>Node0x15be79e0</title>
<polygon fill="none" stroke="black" points="88,-1099.5 88,-1272.5 450,-1272.5 450,-1099.5 88,-1099.5"/>
<text text-anchor="start" x="96" y="-1257.3" font-family="Times,serif" font-size="14.00">0x804f817:</text>
<text text-anchor="start" x="96" y="-1242.3" font-family="Times,serif" font-size="14.00"> v7 = (v5 &#45; 17024)</text>
<text text-anchor="start" x="96" y="-1227.3" font-family="Times,serif" font-size="14.00"> g1 = v7</text>
<text text-anchor="start" x="96" y="-1212.3" font-family="Times,serif" font-size="14.00"> result = v7</text>
<text text-anchor="start" x="96" y="-1197.3" font-family="Times,serif" font-size="14.00"> mbedtls_mpi_free(IntToPtrCastExpr&lt;ptr&gt;(g3))</text>
<text text-anchor="start" x="96" y="-1182.3" font-family="Times,serif" font-size="14.00"> g1 = result</text>
<text text-anchor="start" x="96" y="-1167.3" font-family="Times,serif" font-size="14.00"> g3 = v2</text>
<text text-anchor="start" x="96" y="-1152.3" font-family="Times,serif" font-size="14.00"> g7 = v1</text>
<text text-anchor="start" x="96" y="-1137.3" font-family="Times,serif" font-size="14.00"> g5 = v4</text>
<text text-anchor="start" x="96" y="-1122.3" font-family="Times,serif" font-size="14.00"> g2 = v6</text>
<text text-anchor="start" x="96" y="-1107.3" font-family="Times,serif" font-size="14.00"> return result</text>
</g>
<!-- Node0x15be6410&#45;&gt;Node0x15be79e0 -->
<g id="edge3" class="edge"><title>Node0x15be6410&#45;&gt;Node0x15be79e0</title>
<path fill="none" stroke="black" d="M342.324,-1426.33C323.027,-1414.61 300.272,-1397.2 288,-1375 272.741,-1347.4 266.263,-1314.02 264.123,-1283.09"/>
<polygon fill="black" stroke="black" points="267.596,-1282.5 263.557,-1272.71 260.606,-1282.88 267.596,-1282.5"/>
<text text-anchor="middle" x="343" y="-1396.8" font-family="Times,serif" font-size="14.00">v5 != 0</text>
</g>
<!-- Node0x15be6920 -->
<g id="node5" class="node"><title>Node0x15be6920</title>
<polygon fill="none" stroke="black" points="297.5,-1291.5 297.5,-1374.5 944.5,-1374.5 944.5,-1291.5 297.5,-1291.5"/>
<text text-anchor="start" x="305.5" y="-1359.3" font-family="Times,serif" font-size="14.00">v8 = (g7 + 8)</text>
<text text-anchor="start" x="305.5" y="-1344.3" font-family="Times,serif" font-size="14.00"> g5 = v8</text>
<text text-anchor="start" x="305.5" y="-1329.3" font-family="Times,serif" font-size="14.00"> v9 = mbedtls_mpi_cmp_mpi(IntToPtrCastExpr&lt;ptr&gt;(g3), IntToPtrCastExpr&lt;ptr&gt;(v8))</text>
<text text-anchor="start" x="305.5" y="-1314.3" font-family="Times,serif" font-size="14.00"> g6 = v9</text>
<text text-anchor="start" x="305.5" y="-1299.3" font-family="Times,serif" font-size="14.00"> g1 = &#45;17028</text>
</g>
<!-- Node0x15be6410&#45;&gt;Node0x15be6920 -->
<g id="edge4" class="edge"><title>Node0x15be6410&#45;&gt;Node0x15be6920</title>
<path fill="none" stroke="black" d="M414.281,-1426.39C442.879,-1413.61 483.345,-1395.52 520.903,-1378.74"/>
<polygon fill="black" stroke="black" points="522.679,-1381.78 530.38,-1374.5 519.822,-1375.39 522.679,-1381.78"/>
<text text-anchor="middle" x="514" y="-1396.8" font-family="Times,serif" font-size="14.00">v5 == 0</text>
</g>
<!-- Node0x9910790 -->
<g id="node6" class="node"><title>Node0x9910790</title>
<polygon fill="none" stroke="black" points="446,-23.5 446,-59.5 500,-59.5 500,-23.5 446,-23.5"/>
<text text-anchor="start" x="454" y="-37.8" font-family="Times,serif" font-size="14.00">exit:</text>
</g>
<!-- Node0x15be79e0&#45;&gt;Node0x9910790 -->
<g id="edge5" class="edge"><title>Node0x15be79e0&#45;&gt;Node0x9910790</title>
<path fill="none" stroke="black" d="M269,-1099.1C269,-1073.49 269,-1045.36 269,-1019.5 269,-1019.5 269,-1019.5 269,-145.5 269,-71.5802 377.053,-50.6997 435.881,-44.8093"/>
<polygon fill="black" stroke="black" points="436.266,-48.2888 445.91,-43.9022 435.636,-41.3172 436.266,-48.2888"/>
</g>
<!-- Node0x15be6a10 -->
<g id="node7" class="node"><title>Node0x15be6a10</title>
<polygon fill="none" stroke="black" points="574.5,-1044.5 574.5,-1080.5 667.5,-1080.5 667.5,-1044.5 574.5,-1044.5"/>
<text text-anchor="start" x="582.5" y="-1058.8" font-family="Times,serif" font-size="14.00">if (v9 &gt; 0):</text>
</g>
<!-- Node0x15be6920&#45;&gt;Node0x15be6a10 -->
<g id="edge6" class="edge"><title>Node0x15be6920&#45;&gt;Node0x15be6a10</title>
<path fill="none" stroke="black" d="M621,-1291.22C621,-1235.83 621,-1138.29 621,-1090.89"/>
<polygon fill="black" stroke="black" points="624.5,-1090.77 621,-1080.77 617.5,-1090.77 624.5,-1090.77"/>
</g>
<!-- Node0x15be7a60 -->
<g id="node8" class="node"><title>Node0x15be7a60</title>
<polygon fill="none" stroke="black" points="284,-762.5 284,-890.5 646,-890.5 646,-762.5 284,-762.5"/>
<text text-anchor="start" x="292" y="-875.3" font-family="Times,serif" font-size="14.00">result = &#45;17028</text>
<text text-anchor="start" x="292" y="-860.3" font-family="Times,serif" font-size="14.00"> mbedtls_mpi_free(IntToPtrCastExpr&lt;ptr&gt;(g3))</text>
<text text-anchor="start" x="292" y="-845.3" font-family="Times,serif" font-size="14.00"> g1 = result</text>
<text text-anchor="start" x="292" y="-830.3" font-family="Times,serif" font-size="14.00"> g3 = v2</text>
<text text-anchor="start" x="292" y="-815.3" font-family="Times,serif" font-size="14.00"> g7 = v1</text>
<text text-anchor="start" x="292" y="-800.3" font-family="Times,serif" font-size="14.00"> g5 = v4</text>
<text text-anchor="start" x="292" y="-785.3" font-family="Times,serif" font-size="14.00"> g2 = v6</text>
<text text-anchor="start" x="292" y="-770.3" font-family="Times,serif" font-size="14.00"> return result</text>
</g>
<!-- Node0x15be6a10&#45;&gt;Node0x15be7a60 -->
<g id="edge7" class="edge"><title>Node0x15be6a10&#45;&gt;Node0x15be7a60</title>
<path fill="none" stroke="black" d="M574.258,-1050.52C543.488,-1040.75 505.121,-1023.17 484,-993 465.523,-966.604 459.529,-931.84 458.653,-900.989"/>
<polygon fill="black" stroke="black" points="462.15,-900.656 458.542,-890.694 455.15,-900.732 462.15,-900.656"/>
<text text-anchor="middle" x="543" y="-1014.8" font-family="Times,serif" font-size="14.00">v9 &gt; 0</text>
</g>
<!-- Node0x15be6b30 -->
<g id="node9" class="node"><title>Node0x15be6b30</title>
<polygon fill="none" stroke="black" points="493,-909.5 493,-992.5 1137,-992.5 1137,-909.5 493,-909.5"/>
<text text-anchor="start" x="501" y="-977.3" font-family="Times,serif" font-size="14.00">v10 = g7</text>
<text text-anchor="start" x="501" y="-962.3" font-family="Times,serif" font-size="14.00"> v11 = (v10 + 20)</text>
<text text-anchor="start" x="501" y="-947.3" font-family="Times,serif" font-size="14.00"> g7 = v11</text>
<text text-anchor="start" x="501" y="-932.3" font-family="Times,serif" font-size="14.00"> v12 = IntToPtrCastExpr&lt;ptr&gt;(g3)</text>
<text text-anchor="start" x="501" y="-917.3" font-family="Times,serif" font-size="14.00"> v13 = mbedtls_mpi_exp_mod(v12, v12, v11, g5, IntToPtrCastExpr&lt;ptr&gt;((v10 + 104)))</text>
</g>
<!-- Node0x15be6a10&#45;&gt;Node0x15be6b30 -->
<g id="edge8" class="edge"><title>Node0x15be6a10&#45;&gt;Node0x15be6b30</title>
<path fill="none" stroke="black" d="M651.312,-1044.39C673.525,-1031.85 704.781,-1014.21 734.035,-997.699"/>
<polygon fill="black" stroke="black" points="736.049,-1000.58 743.037,-992.618 732.608,-994.486 736.049,-1000.58"/>
<text text-anchor="middle" x="737" y="-1014.8" font-family="Times,serif" font-size="14.00">v9 &lt;= 0</text>
</g>
<!-- Node0x15be7a60&#45;&gt;Node0x9910790 -->
<g id="edge9" class="edge"><title>Node0x15be7a60&#45;&gt;Node0x9910790</title>
<path fill="none" stroke="black" d="M432.769,-762.347C423.094,-738.029 415,-709.589 415,-682.5 415,-682.5 415,-682.5 415,-145.5 415,-116.051 433.224,-87.253 449.242,-67.6296"/>
<polygon fill="black" stroke="black" points="452.087,-69.6867 455.912,-59.8061 446.761,-65.1452 452.087,-69.6867"/>
</g>
<!-- Node0x15be71d0 -->
<g id="node10" class="node"><title>Node0x15be71d0</title>
<polygon fill="none" stroke="black" points="761,-707.5 761,-743.5 869,-743.5 869,-707.5 761,-707.5"/>
<text text-anchor="start" x="769" y="-721.8" font-family="Times,serif" font-size="14.00">if (v13 != 0):</text>
</g>
<!-- Node0x15be6b30&#45;&gt;Node0x15be71d0 -->
<g id="edge10" class="edge"><title>Node0x15be6b30&#45;&gt;Node0x15be71d0</title>
<path fill="none" stroke="black" d="M815,-909.267C815,-864.037 815,-792.306 815,-753.525"/>
<polygon fill="black" stroke="black" points="818.5,-753.511 815,-743.511 811.5,-753.511 818.5,-753.511"/>
</g>
<!-- Node0x15be7ae0 -->
<g id="node11" class="node"><title>Node0x15be7ae0</title>
<polygon fill="none" stroke="black" points="430,-395.5 430,-568.5 792,-568.5 792,-395.5 430,-395.5"/>
<text text-anchor="start" x="438" y="-553.3" font-family="Times,serif" font-size="14.00">0x804f817:</text>
<text text-anchor="start" x="438" y="-538.3" font-family="Times,serif" font-size="14.00"> v7 = (v13 &#45; 17024)</text>
<text text-anchor="start" x="438" y="-523.3" font-family="Times,serif" font-size="14.00"> g1 = v7</text>
<text text-anchor="start" x="438" y="-508.3" font-family="Times,serif" font-size="14.00"> result = v7</text>
<text text-anchor="start" x="438" y="-493.3" font-family="Times,serif" font-size="14.00"> mbedtls_mpi_free(IntToPtrCastExpr&lt;ptr&gt;(g3))</text>
<text text-anchor="start" x="438" y="-478.3" font-family="Times,serif" font-size="14.00"> g1 = result</text>
<text text-anchor="start" x="438" y="-463.3" font-family="Times,serif" font-size="14.00"> g3 = v2</text>
<text text-anchor="start" x="438" y="-448.3" font-family="Times,serif" font-size="14.00"> g7 = v1</text>
<text text-anchor="start" x="438" y="-433.3" font-family="Times,serif" font-size="14.00"> g5 = v4</text>
<text text-anchor="start" x="438" y="-418.3" font-family="Times,serif" font-size="14.00"> g2 = v6</text>
<text text-anchor="start" x="438" y="-403.3" font-family="Times,serif" font-size="14.00"> return result</text>
</g>
<!-- Node0x15be71d0&#45;&gt;Node0x15be7ae0 -->
<g id="edge11" class="edge"><title>Node0x15be71d0&#45;&gt;Node0x15be7ae0</title>
<path fill="none" stroke="black" d="M760.943,-718.228C691.39,-708.918 576.461,-688.911 551,-656 533.425,-633.283 535.729,-605.053 546.069,-578.031"/>
<polygon fill="black" stroke="black" points="549.411,-579.11 550.042,-568.534 542.953,-576.409 549.411,-579.11"/>
<text text-anchor="middle" x="642.5" y="-677.8" font-family="Times,serif" font-size="14.00">v13 != 0</text>
</g>
<!-- Node0x15be74e0 -->
<g id="node12" class="node"><title>Node0x15be74e0</title>
<polygon fill="none" stroke="black" points="560,-587.5 560,-655.5 1330,-655.5 1330,-587.5 560,-587.5"/>
<text text-anchor="start" x="568" y="-640.3" font-family="Times,serif" font-size="14.00">v14 = mbedtls_mpi_write_binary(IntToPtrCastExpr&lt;ptr&gt;(g3), a3, *(IntToPtrCastExpr&lt;ptr&gt;((v10 + 4))))</text>
<text text-anchor="start" x="568" y="-625.3" font-family="Times,serif" font-size="14.00"> g1 = v14</text>
<text text-anchor="start" x="568" y="-610.3" font-family="Times,serif" font-size="14.00"> mbedtls_mpi_free(IntToPtrCastExpr&lt;ptr&gt;(g3))</text>
<text text-anchor="start" x="568" y="-595.3" font-family="Times,serif" font-size="14.00"> result2</text>
</g>
<!-- Node0x15be71d0&#45;&gt;Node0x15be74e0 -->
<g id="edge12" class="edge"><title>Node0x15be71d0&#45;&gt;Node0x15be74e0</title>
<path fill="none" stroke="black" d="M836.759,-707.427C852.648,-694.961 874.845,-677.544 895.006,-661.726"/>
<polygon fill="black" stroke="black" points="897.2,-664.453 902.907,-655.527 892.879,-658.946 897.2,-664.453"/>
<text text-anchor="middle" x="910.5" y="-677.8" font-family="Times,serif" font-size="14.00">v13 == 0</text>
</g>
<!-- Node0x15be7ae0&#45;&gt;Node0x9910790 -->
<g id="edge13" class="edge"><title>Node0x15be7ae0&#45;&gt;Node0x9910790</title>
<path fill="none" stroke="black" d="M553.379,-395.392C541.229,-370.103 532,-341.633 532,-313.5 532,-313.5 532,-313.5 532,-145.5 532,-115.796 513.296,-86.8878 496.95,-67.2965"/>
<polygon fill="black" stroke="black" points="499.588,-64.9969 490.383,-59.7517 494.308,-69.5926 499.588,-64.9969"/>
</g>
<!-- Node0xdd7cfe0 -->
<g id="node13" class="node"><title>Node0xdd7cfe0</title>
<polygon fill="none" stroke="black" points="765,-338.5 765,-376.5 879,-376.5 879,-338.5 765,-338.5"/>
<text text-anchor="start" x="773" y="-361.3" font-family="Times,serif" font-size="14.00">if (v14 == 0):</text>
<text text-anchor="start" x="773" y="-346.3" font-family="Times,serif" font-size="14.00"> else:</text>
</g>
<!-- Node0x15be74e0&#45;&gt;Node0xdd7cfe0 -->
<g id="edge14" class="edge"><title>Node0x15be74e0&#45;&gt;Node0xdd7cfe0</title>
<path fill="none" stroke="black" d="M929.422,-587.318C904.868,-535.016 857.625,-434.384 834.87,-385.915"/>
<polygon fill="black" stroke="black" points="837.95,-384.238 830.532,-376.673 831.613,-387.213 837.95,-384.238"/>
</g>
<!-- Node0x92a2cf0 -->
<g id="node14" class="node"><title>Node0x92a2cf0</title>
<polygon fill="none" stroke="black" points="623,-233.5 623,-286.5 725,-286.5 725,-233.5 623,-233.5"/>
<text text-anchor="start" x="631" y="-271.3" font-family="Times,serif" font-size="14.00">0x804f89e:</text>
<text text-anchor="start" x="631" y="-256.3" font-family="Times,serif" font-size="14.00"> g1 = 0</text>
<text text-anchor="start" x="631" y="-241.3" font-family="Times,serif" font-size="14.00"> result2 = 0</text>
</g>
<!-- Node0xdd7cfe0&#45;&gt;Node0x92a2cf0 -->
<g id="edge15" class="edge"><title>Node0xdd7cfe0&#45;&gt;Node0x92a2cf0</title>
<path fill="none" stroke="black" d="M782.174,-338.412C771.177,-332.931 759.411,-326.601 749,-320 736.268,-311.927 723.111,-302.138 711.439,-292.873"/>
<polygon fill="black" stroke="black" points="713.602,-290.121 703.62,-286.571 709.209,-295.571 713.602,-290.121"/>
<text text-anchor="middle" x="783.5" y="-308.8" font-family="Times,serif" font-size="14.00">v14 == 0</text>
</g>
<!-- Node0x92a2d70 -->
<g id="node15" class="node"><title>Node0x92a2d70</title>
<polygon fill="none" stroke="black" points="742.5,-233.5 742.5,-286.5 901.5,-286.5 901.5,-233.5 742.5,-233.5"/>
<text text-anchor="start" x="750.5" y="-271.3" font-family="Times,serif" font-size="14.00">v15 = (v14 &#45; 17024)</text>
<text text-anchor="start" x="750.5" y="-256.3" font-family="Times,serif" font-size="14.00"> g1 = v15</text>
<text text-anchor="start" x="750.5" y="-241.3" font-family="Times,serif" font-size="14.00"> result2 = v15</text>
</g>
<!-- Node0xdd7cfe0&#45;&gt;Node0x92a2d70 -->
<g id="edge16" class="edge"><title>Node0xdd7cfe0&#45;&gt;Node0x92a2d70</title>
<path fill="none" stroke="black" d="M822,-338.087C822,-326.425 822,-310.951 822,-296.929"/>
<polygon fill="black" stroke="black" points="825.5,-296.577 822,-286.577 818.5,-296.577 825.5,-296.577"/>
<text text-anchor="middle" x="853.5" y="-308.8" font-family="Times,serif" font-size="14.00">v14 != 0</text>
</g>
<!-- Node0x15be78f0 -->
<g id="node16" class="node"><title>Node0x15be78f0</title>
<polygon fill="none" stroke="black" points="613,-97.5 613,-195.5 735,-195.5 735,-97.5 613,-97.5"/>
<text text-anchor="start" x="621" y="-180.3" font-family="Times,serif" font-size="14.00">0x804f82a:</text>
<text text-anchor="start" x="621" y="-165.3" font-family="Times,serif" font-size="14.00"> g3 = v2</text>
<text text-anchor="start" x="621" y="-150.3" font-family="Times,serif" font-size="14.00"> g7 = v1</text>
<text text-anchor="start" x="621" y="-135.3" font-family="Times,serif" font-size="14.00"> g5 = v4</text>
<text text-anchor="start" x="621" y="-120.3" font-family="Times,serif" font-size="14.00"> g2 = v6</text>
<text text-anchor="start" x="621" y="-105.3" font-family="Times,serif" font-size="14.00"> return result2</text>
</g>
<!-- Node0x92a2cf0&#45;&gt;Node0x15be78f0 -->
<g id="edge17" class="edge"><title>Node0x92a2cf0&#45;&gt;Node0x15be78f0</title>
<path fill="none" stroke="black" d="M674,-233.42C674,-225.117 674,-215.536 674,-205.851"/>
<polygon fill="black" stroke="black" points="677.5,-205.768 674,-195.768 670.5,-205.768 677.5,-205.768"/>
</g>
<!-- Node0x92a2d70&#45;&gt;Node0x15be78f0 -->
<g id="edge18" class="edge"><title>Node0x92a2d70&#45;&gt;Node0x15be78f0</title>
<path fill="none" stroke="black" d="M788.046,-233.42C774.674,-223.346 758.806,-211.391 743.221,-199.65"/>
<polygon fill="black" stroke="black" points="745.205,-196.762 735.112,-193.54 740.993,-202.353 745.205,-196.762"/>
</g>
<!-- Node0x15be78f0&#45;&gt;Node0x9910790 -->
<g id="edge19" class="edge"><title>Node0x15be78f0&#45;&gt;Node0x9910790</title>
<path fill="none" stroke="black" d="M612.686,-112.646C591.624,-101.5 567.85,-89.0705 546,-78 534.097,-71.9691 521.012,-65.5429 509.248,-59.8389"/>
<polygon fill="black" stroke="black" points="510.672,-56.6396 500.145,-55.4406 507.626,-62.9425 510.672,-56.6396"/>
</g>
</g>
</svg>
