<?xml version="1.0" encoding="UTF-8" standalone="no"?>
<!DOCTYPE svg PUBLIC "-//W3C//DTD SVG 1.1//EN"
 "http://www.w3.org/Graphics/SVG/1.1/DTD/svg11.dtd">
<!-- Generated by graphviz version 2.38.0 (20140413.2041)
 -->
<!-- Title: Control&#45;flow graph for function &#39;mbedtls_pk_setup(*a1, a2)&#39;. Pages: 1 -->
<svg width="753pt" height="1128pt"
 viewBox="0.00 0.00 752.50 1128.00" xmlns="http://www.w3.org/2000/svg" xmlns:xlink="http://www.w3.org/1999/xlink">
<g id="graph0" class="graph" transform="scale(1 1) rotate(0) translate(4 1124)">
<title>Control&#45;flow graph for function &#39;mbedtls_pk_setup(*a1, a2)&#39;.</title>
<polygon fill="white" stroke="none" points="-4,4 -4,-1124 748.5,-1124 748.5,4 -4,4"/>
<text text-anchor="middle" x="372.25" y="-7.8" font-family="Times,serif" font-size="14.00">Control&#45;flow graph for function &#39;mbedtls_pk_setup(*a1, a2)&#39;.</text>
<!-- Node0xe69a130 -->
<g id="node1" class="node"><title>Node0xe69a130</title>
<polygon fill="none" stroke="black" points="109,-1066.5 109,-1119.5 168,-1119.5 168,-1066.5 109,-1066.5"/>
<text text-anchor="start" x="117" y="-1104.3" font-family="Times,serif" font-size="14.00">entry:</text>
<text text-anchor="start" x="117" y="-1089.3" font-family="Times,serif" font-size="14.00"> a1</text>
<text text-anchor="start" x="117" y="-1074.3" font-family="Times,serif" font-size="14.00"> a2</text>
</g>
<!-- Node0x1d336320 -->
<g id="node2" class="node"><title>Node0x1d336320</title>
<polygon fill="none" stroke="black" points="0,-930.5 0,-1028.5 277,-1028.5 277,-930.5 0,-930.5"/>
<text text-anchor="start" x="8" y="-1013.3" font-family="Times,serif" font-size="14.00">v1</text>
<text text-anchor="start" x="8" y="-998.3" font-family="Times,serif" font-size="14.00"> g2 = &amp;(v1)</text>
<text text-anchor="start" x="8" y="-983.3" font-family="Times,serif" font-size="14.00"> v2 = g3</text>
<text text-anchor="start" x="8" y="-968.3" font-family="Times,serif" font-size="14.00"> g3 = a2</text>
<text text-anchor="start" x="8" y="-953.3" font-family="Times,serif" font-size="14.00"> v3 = g7</text>
<text text-anchor="start" x="8" y="-938.3" font-family="Times,serif" font-size="14.00"> g7 = PtrToIntCastExpr&lt;int32&gt;(a1)</text>
</g>
<!-- Node0xe69a130&#45;&gt;Node0x1d336320 -->
<g id="edge1" class="edge"><title>Node0xe69a130&#45;&gt;Node0x1d336320</title>
<path fill="none" stroke="black" d="M138.5,-1066.42C138.5,-1058.12 138.5,-1048.54 138.5,-1038.85"/>
<polygon fill="black" stroke="black" points="142,-1038.77 138.5,-1028.77 135,-1038.77 142,-1038.77"/>
</g>
<!-- Node0x1d336460 -->
<g id="node3" class="node"><title>Node0x1d336460</title>
<polygon fill="none" stroke="black" points="86,-856.5 86,-892.5 191,-892.5 191,-856.5 86,-856.5"/>
<text text-anchor="start" x="94" y="-870.8" font-family="Times,serif" font-size="14.00">if (a2 == 0):</text>
</g>
<!-- Node0x1d336320&#45;&gt;Node0x1d336460 -->
<g id="edge2" class="edge"><title>Node0x1d336320&#45;&gt;Node0x1d336460</title>
<path fill="none" stroke="black" d="M138.5,-930.317C138.5,-920.893 138.5,-911.32 138.5,-902.868"/>
<polygon fill="black" stroke="black" points="142,-902.856 138.5,-892.856 135,-902.856 142,-902.856"/>
</g>
<!-- Node0x1d335e90 -->
<g id="node4" class="node"><title>Node0x1d335e90</title>
<polygon fill="none" stroke="black" points="33,-679.5 33,-747.5 154,-747.5 154,-679.5 33,-679.5"/>
<text text-anchor="start" x="41" y="-732.3" font-family="Times,serif" font-size="14.00">0x804ce0c:</text>
<text text-anchor="start" x="41" y="-717.3" font-family="Times,serif" font-size="14.00"> g3 = v2</text>
<text text-anchor="start" x="41" y="-702.3" font-family="Times,serif" font-size="14.00"> g7 = v3</text>
<text text-anchor="start" x="41" y="-687.3" font-family="Times,serif" font-size="14.00"> return &#45;16000</text>
</g>
<!-- Node0x1d336460&#45;&gt;Node0x1d335e90 -->
<g id="edge3" class="edge"><title>Node0x1d336460&#45;&gt;Node0x1d335e90</title>
<path fill="none" stroke="black" d="M111.354,-856.379C105.406,-851.241 99.8819,-845.061 96.5,-838 84.6644,-813.289 83.8942,-782.487 86.093,-757.825"/>
<polygon fill="black" stroke="black" points="89.5959,-757.987 87.1935,-747.668 82.6366,-757.233 89.5959,-757.987"/>
<text text-anchor="middle" x="126.5" y="-826.8" font-family="Times,serif" font-size="14.00">a2 == 0</text>
</g>
<!-- Node0x1d3366b0 -->
<g id="node5" class="node"><title>Node0x1d3366b0</title>
<polygon fill="none" stroke="black" points="121.5,-766.5 121.5,-804.5 259.5,-804.5 259.5,-766.5 121.5,-766.5"/>
<text text-anchor="start" x="129.5" y="-789.3" font-family="Times,serif" font-size="14.00">0x804ce18:</text>
<text text-anchor="start" x="129.5" y="-774.3" font-family="Times,serif" font-size="14.00"> if (a1 != NULL):</text>
</g>
<!-- Node0x1d336460&#45;&gt;Node0x1d3366b0 -->
<g id="edge4" class="edge"><title>Node0x1d336460&#45;&gt;Node0x1d3366b0</title>
<path fill="none" stroke="black" d="M148.774,-856.312C156.106,-844.044 166.112,-827.304 174.487,-813.291"/>
<polygon fill="black" stroke="black" points="177.585,-814.931 179.711,-804.551 171.576,-811.339 177.585,-814.931"/>
<text text-anchor="middle" x="195.5" y="-826.8" font-family="Times,serif" font-size="14.00">a2 != 0</text>
</g>
<!-- Node0x1d3360d0 -->
<g id="node6" class="node"><title>Node0x1d3360d0</title>
<polygon fill="none" stroke="black" points="129.5,-23.5 129.5,-59.5 183.5,-59.5 183.5,-23.5 129.5,-23.5"/>
<text text-anchor="start" x="137.5" y="-37.8" font-family="Times,serif" font-size="14.00">exit:</text>
</g>
<!-- Node0x1d335e90&#45;&gt;Node0x1d3360d0 -->
<g id="edge5" class="edge"><title>Node0x1d335e90&#45;&gt;Node0x1d3360d0</title>
<path fill="none" stroke="black" d="M93.5,-679.372C93.5,-653.101 93.5,-615.451 93.5,-582.5 93.5,-582.5 93.5,-582.5 93.5,-130.5 93.5,-105.57 110.423,-82.8437 126.727,-66.733"/>
<polygon fill="black" stroke="black" points="129.208,-69.2043 134.111,-59.8122 124.421,-64.0968 129.208,-69.2043"/>
</g>
<!-- Node0x7c87420 -->
<g id="node7" class="node"><title>Node0x7c87420</title>
<polygon fill="none" stroke="black" points="213.5,-607.5 213.5,-660.5 361.5,-660.5 361.5,-607.5 213.5,-607.5"/>
<text text-anchor="start" x="221.5" y="-645.3" font-family="Times,serif" font-size="14.00">v4 = *(a1)</text>
<text text-anchor="start" x="221.5" y="-630.3" font-family="Times,serif" font-size="14.00"> g1 = v4</text>
<text text-anchor="start" x="221.5" y="-615.3" font-family="Times,serif" font-size="14.00"> g237 = (v4 == 0)</text>
</g>
<!-- Node0x1d3366b0&#45;&gt;Node0x7c87420 -->
<g id="edge6" class="edge"><title>Node0x1d3366b0&#45;&gt;Node0x7c87420</title>
<path fill="none" stroke="black" d="M202.2,-766.467C217.793,-742.434 245.698,-699.428 265.335,-669.162"/>
<polygon fill="black" stroke="black" points="268.382,-670.896 270.889,-660.602 262.51,-667.086 268.382,-670.896"/>
<text text-anchor="middle" x="302.5" y="-709.8" font-family="Times,serif" font-size="14.00">a1 != NULL</text>
</g>
<!-- Node0x1d336910 -->
<g id="node8" class="node"><title>Node0x1d336910</title>
<polygon fill="none" stroke="black" points="122,-392 122,-460 243,-460 243,-392 122,-392"/>
<text text-anchor="start" x="130" y="-444.8" font-family="Times,serif" font-size="14.00">0x804ce0c:</text>
<text text-anchor="start" x="130" y="-429.8" font-family="Times,serif" font-size="14.00"> g3 = v2</text>
<text text-anchor="start" x="130" y="-414.8" font-family="Times,serif" font-size="14.00"> g7 = v3</text>
<text text-anchor="start" x="130" y="-399.8" font-family="Times,serif" font-size="14.00"> return &#45;16000</text>
</g>
<!-- Node0x1d3366b0&#45;&gt;Node0x1d336910 -->
<g id="edge7" class="edge"><title>Node0x1d3366b0&#45;&gt;Node0x1d336910</title>
<path fill="none" stroke="black" d="M190.092,-766.28C188.872,-711.742 185.224,-548.719 183.467,-470.203"/>
<polygon fill="black" stroke="black" points="186.965,-470.075 183.242,-460.155 179.967,-470.231 186.965,-470.075"/>
<text text-anchor="middle" x="233.5" y="-577.8" font-family="Times,serif" font-size="14.00">a1 == NULL</text>
</g>
<!-- Node0xe69a090 -->
<g id="node9" class="node"><title>Node0xe69a090</title>
<polygon fill="none" stroke="black" points="239,-519.5 239,-555.5 344,-555.5 344,-519.5 239,-519.5"/>
<text text-anchor="start" x="247" y="-533.8" font-family="Times,serif" font-size="14.00">if (v4 == 0):</text>
</g>
<!-- Node0x7c87420&#45;&gt;Node0xe69a090 -->
<g id="edge8" class="edge"><title>Node0x7c87420&#45;&gt;Node0xe69a090</title>
<path fill="none" stroke="black" d="M288.593,-607.177C289.135,-594.369 289.79,-578.896 290.341,-565.882"/>
<polygon fill="black" stroke="black" points="293.848,-565.78 290.774,-555.641 286.855,-565.484 293.848,-565.78"/>
</g>
<!-- Node0x1d336910&#45;&gt;Node0x1d3360d0 -->
<g id="edge9" class="edge"><title>Node0x1d336910&#45;&gt;Node0x1d3360d0</title>
<path fill="none" stroke="black" d="M168.891,-391.65C162.6,-373.328 156.5,-350.015 156.5,-328.5 156.5,-328.5 156.5,-328.5 156.5,-130.5 156.5,-110.13 156.5,-87.1087 156.5,-69.7225"/>
<polygon fill="black" stroke="black" points="160,-69.6994 156.5,-59.6995 153,-69.6995 160,-69.6994"/>
</g>
<!-- Node0xe69a090&#45;&gt;Node0x1d336910 -->
<g id="edge11" class="edge"><title>Node0xe69a090&#45;&gt;Node0x1d336910</title>
<path fill="none" stroke="black" d="M274.469,-519.391C260.742,-505.601 240.87,-485.638 223.107,-467.793"/>
<polygon fill="black" stroke="black" points="225.183,-464.918 215.648,-460.3 220.222,-469.856 225.183,-464.918"/>
<text text-anchor="middle" x="279.5" y="-489.8" font-family="Times,serif" font-size="14.00">v4 != 0</text>
</g>
<!-- Node0xe698160 -->
<g id="node10" class="node"><title>Node0xe698160</title>
<polygon fill="none" stroke="black" points="260.5,-384.5 260.5,-467.5 744.5,-467.5 744.5,-384.5 260.5,-384.5"/>
<text text-anchor="start" x="268.5" y="-452.3" font-family="Times,serif" font-size="14.00">0x804ce22:</text>
<text text-anchor="start" x="268.5" y="-437.3" font-family="Times,serif" font-size="14.00"> IntToPtrCastExpr&lt;ptr&gt;(*(IntToPtrCastExpr&lt;ptr&gt;((a2 + 36))))()</text>
<text text-anchor="start" x="268.5" y="-422.3" font-family="Times,serif" font-size="14.00"> g6 = g1</text>
<text text-anchor="start" x="268.5" y="-407.3" font-family="Times,serif" font-size="14.00"> *(IntToPtrCastExpr&lt;ptr&gt;((g7 + 4))) = g1</text>
<text text-anchor="start" x="268.5" y="-392.3" font-family="Times,serif" font-size="14.00"> result</text>
</g>
<!-- Node0xe69a090&#45;&gt;Node0xe698160 -->
<g id="edge10" class="edge"><title>Node0xe69a090&#45;&gt;Node0xe698160</title>
<path fill="none" stroke="black" d="M324.469,-519.391C348.836,-506.745 383.209,-488.907 415.262,-472.273"/>
<polygon fill="black" stroke="black" points="416.967,-475.331 424.231,-467.618 413.743,-469.118 416.967,-475.331"/>
<text text-anchor="middle" x="413.5" y="-489.8" font-family="Times,serif" font-size="14.00">v4 == 0</text>
</g>
<!-- Node0x1d336ef0 -->
<g id="node11" class="node"><title>Node0x1d336ef0</title>
<polygon fill="none" stroke="black" points="452.5,-308.5 452.5,-346.5 552.5,-346.5 552.5,-308.5 452.5,-308.5"/>
<text text-anchor="start" x="460.5" y="-331.3" font-family="Times,serif" font-size="14.00">if (g1 != 0):</text>
<text text-anchor="start" x="460.5" y="-316.3" font-family="Times,serif" font-size="14.00"> else:</text>
</g>
<!-- Node0xe698160&#45;&gt;Node0x1d336ef0 -->
<g id="edge12" class="edge"><title>Node0xe698160&#45;&gt;Node0x1d336ef0</title>
<path fill="none" stroke="black" d="M502.5,-384.355C502.5,-375.083 502.5,-365.427 502.5,-356.803"/>
<polygon fill="black" stroke="black" points="506,-356.538 502.5,-346.538 499,-356.538 506,-356.538"/>
</g>
<!-- Node0x7ac86a0 -->
<g id="node12" class="node"><title>Node0x7ac86a0</title>
<polygon fill="none" stroke="black" points="184.5,-203.5 184.5,-256.5 464.5,-256.5 464.5,-203.5 184.5,-203.5"/>
<text text-anchor="start" x="192.5" y="-241.3" font-family="Times,serif" font-size="14.00">0x804ce33:</text>
<text text-anchor="start" x="192.5" y="-226.3" font-family="Times,serif" font-size="14.00"> *(IntToPtrCastExpr&lt;ptr&gt;(g7)) = g3</text>
<text text-anchor="start" x="192.5" y="-211.3" font-family="Times,serif" font-size="14.00"> result = 0</text>
</g>
<!-- Node0x1d336ef0&#45;&gt;Node0x7ac86a0 -->
<g id="edge13" class="edge"><title>Node0x1d336ef0&#45;&gt;Node0x7ac86a0</title>
<path fill="none" stroke="black" d="M468.601,-308.312C443.934,-295.079 409.959,-276.85 381.194,-261.417"/>
<polygon fill="black" stroke="black" points="382.522,-258.158 372.055,-256.514 379.213,-264.326 382.522,-258.158"/>
<text text-anchor="middle" x="456" y="-278.8" font-family="Times,serif" font-size="14.00">g1 != 0</text>
</g>
<!-- Node0x1d337190 -->
<g id="node13" class="node"><title>Node0x1d337190</title>
<polygon fill="none" stroke="black" points="483,-212 483,-248 612,-248 612,-212 483,-212"/>
<text text-anchor="start" x="491" y="-226.3" font-family="Times,serif" font-size="14.00">result = &#45;16256</text>
</g>
<!-- Node0x1d336ef0&#45;&gt;Node0x1d337190 -->
<g id="edge14" class="edge"><title>Node0x1d336ef0&#45;&gt;Node0x1d337190</title>
<path fill="none" stroke="black" d="M511.176,-308.087C517.945,-293.723 527.437,-273.578 535.021,-257.483"/>
<polygon fill="black" stroke="black" points="538.358,-258.611 539.455,-248.073 532.026,-255.628 538.358,-258.611"/>
<text text-anchor="middle" x="556" y="-278.8" font-family="Times,serif" font-size="14.00">g1 == 0</text>
</g>
<!-- Node0x1d337130 -->
<g id="node14" class="node"><title>Node0x1d337130</title>
<polygon fill="none" stroke="black" points="268,-97.5 268,-165.5 381,-165.5 381,-97.5 268,-97.5"/>
<text text-anchor="start" x="276" y="-150.3" font-family="Times,serif" font-size="14.00">0x804ce0c:</text>
<text text-anchor="start" x="276" y="-135.3" font-family="Times,serif" font-size="14.00"> g3 = v2</text>
<text text-anchor="start" x="276" y="-120.3" font-family="Times,serif" font-size="14.00"> g7 = v3</text>
<text text-anchor="start" x="276" y="-105.3" font-family="Times,serif" font-size="14.00"> return result</text>
</g>
<!-- Node0x7ac86a0&#45;&gt;Node0x1d337130 -->
<g id="edge15" class="edge"><title>Node0x7ac86a0&#45;&gt;Node0x1d337130</title>
<path fill="none" stroke="black" d="M324.5,-203.393C324.5,-194.864 324.5,-185.114 324.5,-175.631"/>
<polygon fill="black" stroke="black" points="328,-175.516 324.5,-165.516 321,-175.516 328,-175.516"/>
</g>
<!-- Node0x1d337190&#45;&gt;Node0x1d337130 -->
<g id="edge16" class="edge"><title>Node0x1d337190&#45;&gt;Node0x1d337130</title>
<path fill="none" stroke="black" d="M508.145,-211.97C475.64,-197.904 428.798,-177.633 390.558,-161.086"/>
<polygon fill="black" stroke="black" points="391.603,-157.724 381.036,-156.965 388.823,-164.149 391.603,-157.724"/>
</g>
<!-- Node0x1d337130&#45;&gt;Node0x1d3360d0 -->
<g id="edge17" class="edge"><title>Node0x1d337130&#45;&gt;Node0x1d3360d0</title>
<path fill="none" stroke="black" d="M267.623,-100.707C242.802,-87.7056 214.441,-72.85 192.584,-61.401"/>
<polygon fill="black" stroke="black" points="194.126,-58.2579 183.644,-56.7182 190.878,-64.4587 194.126,-58.2579"/>
</g>
</g>
</svg>
