<?xml version="1.0" encoding="UTF-8" standalone="no"?>
<!DOCTYPE svg PUBLIC "-//W3C//DTD SVG 1.1//EN"
 "http://www.w3.org/Graphics/SVG/1.1/DTD/svg11.dtd">
<!-- Generated by graphviz version 2.38.0 (20140413.2041)
 -->
<!-- Title: Control&#45;flow graph for function &#39;function_806d531()&#39;. Pages: 1 -->
<svg width="404pt" height="246pt"
 viewBox="0.00 0.00 404.00 246.00" xmlns="http://www.w3.org/2000/svg" xmlns:xlink="http://www.w3.org/1999/xlink">
<g id="graph0" class="graph" transform="scale(1 1) rotate(0) translate(4 242)">
<title>Control&#45;flow graph for function &#39;function_806d531()&#39;.</title>
<polygon fill="white" stroke="none" points="-4,4 -4,-242 400,-242 400,4 -4,4"/>
<text text-anchor="middle" x="198" y="-7.8" font-family="Times,serif" font-size="14.00">Control&#45;flow graph for function &#39;function_806d531()&#39;.</text>
<!-- Node0x22319820 -->
<g id="node1" class="node"><title>Node0x22319820</title>
<polygon fill="none" stroke="black" points="168.5,-201.5 168.5,-237.5 227.5,-237.5 227.5,-201.5 168.5,-201.5"/>
<text text-anchor="start" x="176.5" y="-215.8" font-family="Times,serif" font-size="14.00">entry:</text>
</g>
<!-- Node0x2185b6a0 -->
<g id="node2" class="node"><title>Node0x2185b6a0</title>
<polygon fill="none" stroke="black" points="71.5,-96.5 71.5,-164.5 324.5,-164.5 324.5,-96.5 71.5,-96.5"/>
<text text-anchor="start" x="79.5" y="-149.3" font-family="Times,serif" font-size="14.00">0x806d531:</text>
<text text-anchor="start" x="79.5" y="-134.3" font-family="Times,serif" font-size="14.00"> mbedtls_md5_process(0, NULL)</text>
<text text-anchor="start" x="79.5" y="-119.3" font-family="Times,serif" font-size="14.00"> g1 = 0</text>
<text text-anchor="start" x="79.5" y="-104.3" font-family="Times,serif" font-size="14.00"> return 0</text>
</g>
<!-- Node0x22319820&#45;&gt;Node0x2185b6a0 -->
<g id="edge1" class="edge"><title>Node0x22319820&#45;&gt;Node0x2185b6a0</title>
<path fill="none" stroke="black" d="M198,-201.312C198,-193.602 198,-184.126 198,-174.671"/>
<polygon fill="black" stroke="black" points="201.5,-174.503 198,-164.503 194.5,-174.503 201.5,-174.503"/>
</g>
<!-- Node0x2231dff0 -->
<g id="node3" class="node"><title>Node0x2231dff0</title>
<polygon fill="none" stroke="black" points="171,-23.5 171,-59.5 225,-59.5 225,-23.5 171,-23.5"/>
<text text-anchor="start" x="179" y="-37.8" font-family="Times,serif" font-size="14.00">exit:</text>
</g>
<!-- Node0x2185b6a0&#45;&gt;Node0x2231dff0 -->
<g id="edge2" class="edge"><title>Node0x2185b6a0&#45;&gt;Node0x2231dff0</title>
<path fill="none" stroke="black" d="M198,-96.1123C198,-87.3522 198,-78.0128 198,-69.6246"/>
<polygon fill="black" stroke="black" points="201.5,-69.6235 198,-59.6235 194.5,-69.6235 201.5,-69.6235"/>
</g>
</g>
</svg>
