<?xml version="1.0" encoding="UTF-8" standalone="no"?>
<!DOCTYPE svg PUBLIC "-//W3C//DTD SVG 1.1//EN"
 "http://www.w3.org/Graphics/SVG/1.1/DTD/svg11.dtd">
<!-- Generated by graphviz version 2.38.0 (20140413.2041)
 -->
<!-- Title: Control&#45;flow graph for function &#39;mbedtls_entropy_gather(a1, a2)&#39;. Pages: 1 -->
<svg width="493pt" height="263pt"
 viewBox="0.00 0.00 493.00 263.00" xmlns="http://www.w3.org/2000/svg" xmlns:xlink="http://www.w3.org/1999/xlink">
<g id="graph0" class="graph" transform="scale(1 1) rotate(0) translate(4 259)">
<title>Control&#45;flow graph for function &#39;mbedtls_entropy_gather(a1, a2)&#39;.</title>
<polygon fill="white" stroke="none" points="-4,4 -4,-259 489,-259 489,4 -4,4"/>
<text text-anchor="middle" x="242.5" y="-7.8" font-family="Times,serif" font-size="14.00">Control&#45;flow graph for function &#39;mbedtls_entropy_gather(a1, a2)&#39;.</text>
<!-- Node0x198cbd30 -->
<g id="node1" class="node"><title>Node0x198cbd30</title>
<polygon fill="none" stroke="black" points="213,-201.5 213,-254.5 272,-254.5 272,-201.5 213,-201.5"/>
<text text-anchor="start" x="221" y="-239.3" font-family="Times,serif" font-size="14.00">entry:</text>
<text text-anchor="start" x="221" y="-224.3" font-family="Times,serif" font-size="14.00"> a1</text>
<text text-anchor="start" x="221" y="-209.3" font-family="Times,serif" font-size="14.00"> a2</text>
</g>
<!-- Node0x1954c960 -->
<g id="node2" class="node"><title>Node0x1954c960</title>
<polygon fill="none" stroke="black" points="106,-96.5 106,-164.5 379,-164.5 379,-96.5 106,-96.5"/>
<text text-anchor="start" x="114" y="-149.3" font-family="Times,serif" font-size="14.00">0x804c600:</text>
<text text-anchor="start" x="114" y="-134.3" font-family="Times,serif" font-size="14.00"> g1 = a1</text>
<text text-anchor="start" x="114" y="-119.3" font-family="Times,serif" font-size="14.00"> v1</text>
<text text-anchor="start" x="114" y="-104.3" font-family="Times,serif" font-size="14.00"> return entropy_gather_internal(v1)</text>
</g>
<!-- Node0x198cbd30&#45;&gt;Node0x1954c960 -->
<g id="edge1" class="edge"><title>Node0x198cbd30&#45;&gt;Node0x1954c960</title>
<path fill="none" stroke="black" d="M242.5,-201.408C242.5,-193.219 242.5,-183.912 242.5,-174.822"/>
<polygon fill="black" stroke="black" points="246,-174.721 242.5,-164.721 239,-174.721 246,-174.721"/>
</g>
<!-- Node0xb033170 -->
<g id="node3" class="node"><title>Node0xb033170</title>
<polygon fill="none" stroke="black" points="215.5,-23.5 215.5,-59.5 269.5,-59.5 269.5,-23.5 215.5,-23.5"/>
<text text-anchor="start" x="223.5" y="-37.8" font-family="Times,serif" font-size="14.00">exit:</text>
</g>
<!-- Node0x1954c960&#45;&gt;Node0xb033170 -->
<g id="edge2" class="edge"><title>Node0x1954c960&#45;&gt;Node0xb033170</title>
<path fill="none" stroke="black" d="M242.5,-96.1123C242.5,-87.3522 242.5,-78.0128 242.5,-69.6246"/>
<polygon fill="black" stroke="black" points="246,-69.6235 242.5,-59.6235 239,-69.6235 246,-69.6235"/>
</g>
</g>
</svg>
