<?xml version="1.0" encoding="UTF-8" standalone="no"?>
<!DOCTYPE svg PUBLIC "-//W3C//DTD SVG 1.1//EN"
 "http://www.w3.org/Graphics/SVG/1.1/DTD/svg11.dtd">
<!-- Generated by graphviz version 2.38.0 (20140413.2041)
 -->
<!-- Title: Control&#45;flow graph for function &#39;__lock(*a1)&#39;. Pages: 1 -->
<svg width="599pt" height="833pt"
 viewBox="0.00 0.00 599.00 833.00" xmlns="http://www.w3.org/2000/svg" xmlns:xlink="http://www.w3.org/1999/xlink">
<g id="graph0" class="graph" transform="scale(1 1) rotate(0) translate(4 829)">
<title>Control&#45;flow graph for function &#39;__lock(*a1)&#39;.</title>
<polygon fill="white" stroke="none" points="-4,4 -4,-829 595,-829 595,4 -4,4"/>
<text text-anchor="middle" x="295.5" y="-7.8" font-family="Times,serif" font-size="14.00">Control&#45;flow graph for function &#39;__lock(*a1)&#39;.</text>
<!-- Node0x13d6cf80 -->
<g id="node1" class="node"><title>Node0x13d6cf80</title>
<polygon fill="none" stroke="black" points="128,-786.5 128,-824.5 187,-824.5 187,-786.5 128,-786.5"/>
<text text-anchor="start" x="136" y="-809.3" font-family="Times,serif" font-size="14.00">entry:</text>
<text text-anchor="start" x="136" y="-794.3" font-family="Times,serif" font-size="14.00"> a1</text>
</g>
<!-- Node0x13d71470 -->
<g id="node2" class="node"><title>Node0x13d71470</title>
<polygon fill="none" stroke="black" points="0,-710.5 0,-748.5 315,-748.5 315,-710.5 0,-710.5"/>
<text text-anchor="start" x="8" y="-733.3" font-family="Times,serif" font-size="14.00">v1 = g3</text>
<text text-anchor="start" x="8" y="-718.3" font-family="Times,serif" font-size="14.00"> stat_loc = PtrToIntCastExpr&lt;int32&gt;(a1)</text>
</g>
<!-- Node0x13d6cf80&#45;&gt;Node0x13d71470 -->
<g id="edge1" class="edge"><title>Node0x13d6cf80&#45;&gt;Node0x13d71470</title>
<path fill="none" stroke="black" d="M157.5,-786.208C157.5,-777.964 157.5,-768.038 157.5,-758.862"/>
<polygon fill="black" stroke="black" points="161,-758.582 157.5,-748.582 154,-758.582 161,-758.582"/>
</g>
<!-- Node0x13d72690 -->
<g id="node3" class="node"><title>Node0x13d72690</title>
<polygon fill="none" stroke="black" points="95.5,-636.5 95.5,-672.5 219.5,-672.5 219.5,-636.5 95.5,-636.5"/>
<text text-anchor="start" x="103.5" y="-650.8" font-family="Times,serif" font-size="14.00">if (g229 == 0):</text>
</g>
<!-- Node0x13d71470&#45;&gt;Node0x13d72690 -->
<g id="edge2" class="edge"><title>Node0x13d71470&#45;&gt;Node0x13d72690</title>
<path fill="none" stroke="black" d="M157.5,-710.455C157.5,-702.201 157.5,-692.238 157.5,-683.074"/>
<polygon fill="black" stroke="black" points="161,-682.835 157.5,-672.835 154,-682.835 161,-682.835"/>
</g>
<!-- Node0x13d700e0 -->
<g id="node4" class="node"><title>Node0x13d700e0</title>
<polygon fill="none" stroke="black" points="56,-489.5 56,-527.5 157,-527.5 157,-489.5 56,-489.5"/>
<text text-anchor="start" x="64" y="-512.3" font-family="Times,serif" font-size="14.00">0x80756b1:</text>
<text text-anchor="start" x="64" y="-497.3" font-family="Times,serif" font-size="14.00"> return 0</text>
</g>
<!-- Node0x13d72690&#45;&gt;Node0x13d700e0 -->
<g id="edge3" class="edge"><title>Node0x13d72690&#45;&gt;Node0x13d700e0</title>
<path fill="none" stroke="black" d="M120.679,-636.462C113.783,-631.52 107.494,-625.406 103.5,-618 90.1578,-593.262 93.3814,-560.518 98.3963,-537.495"/>
<polygon fill="black" stroke="black" points="101.825,-538.207 100.773,-527.665 95.021,-536.562 101.825,-538.207"/>
<text text-anchor="middle" x="143" y="-606.8" font-family="Times,serif" font-size="14.00">g229 == 0</text>
</g>
<!-- Node0x13d72f60 -->
<g id="node5" class="node"><title>Node0x13d72f60</title>
<polygon fill="none" stroke="black" points="158,-546.5 158,-584.5 259,-584.5 259,-546.5 158,-546.5"/>
<text text-anchor="start" x="166" y="-569.3" font-family="Times,serif" font-size="14.00">0x80756a1:</text>
<text text-anchor="start" x="166" y="-554.3" font-family="Times,serif" font-size="14.00"> *(a1) = 1</text>
</g>
<!-- Node0x13d72690&#45;&gt;Node0x13d72f60 -->
<g id="edge4" class="edge"><title>Node0x13d72690&#45;&gt;Node0x13d72f60</title>
<path fill="none" stroke="black" d="M173.288,-636.171C177.897,-630.61 182.708,-624.263 186.5,-618 191.01,-610.549 195.058,-602.007 198.414,-594.05"/>
<polygon fill="black" stroke="black" points="201.672,-595.33 202.15,-584.746 195.176,-592.722 201.672,-595.33"/>
<text text-anchor="middle" x="231" y="-606.8" font-family="Times,serif" font-size="14.00">g229 != 0</text>
</g>
<!-- Node0x13d70400 -->
<g id="node6" class="node"><title>Node0x13d70400</title>
<polygon fill="none" stroke="black" points="117.5,-23.5 117.5,-59.5 171.5,-59.5 171.5,-23.5 117.5,-23.5"/>
<text text-anchor="start" x="125.5" y="-37.8" font-family="Times,serif" font-size="14.00">exit:</text>
</g>
<!-- Node0x13d700e0&#45;&gt;Node0x13d70400 -->
<g id="edge5" class="edge"><title>Node0x13d700e0&#45;&gt;Node0x13d70400</title>
<path fill="none" stroke="black" d="M106.5,-489.438C106.5,-469.774 106.5,-437.403 106.5,-409.5 106.5,-409.5 106.5,-409.5 106.5,-130.5 106.5,-108.315 116.805,-85.3717 126.682,-68.4761"/>
<polygon fill="black" stroke="black" points="129.79,-70.1044 132.057,-59.755 123.831,-66.4315 129.79,-70.1044"/>
</g>
<!-- Node0x13d730c0 -->
<g id="node7" class="node"><title>Node0x13d730c0</title>
<polygon fill="none" stroke="black" points="147,-434.5 147,-470.5 270,-470.5 270,-434.5 147,-434.5"/>
<text text-anchor="start" x="155" y="-448.8" font-family="Times,serif" font-size="14.00">if (*(a1) == 0):</text>
</g>
<!-- Node0x13d72f60&#45;&gt;Node0x13d730c0 -->
<g id="edge6" class="edge"><title>Node0x13d72f60&#45;&gt;Node0x13d730c0</title>
<path fill="none" stroke="black" d="M208.5,-546.171C208.5,-528.424 208.5,-501.294 208.5,-480.966"/>
<polygon fill="black" stroke="black" points="212,-480.76 208.5,-470.76 205,-480.76 212,-480.76"/>
</g>
<!-- Node0x13d73010 -->
<g id="node8" class="node"><title>Node0x13d73010</title>
<polygon fill="none" stroke="black" points="129,-272.5 129,-310.5 230,-310.5 230,-272.5 129,-272.5"/>
<text text-anchor="start" x="137" y="-295.3" font-family="Times,serif" font-size="14.00">0x80756b1:</text>
<text text-anchor="start" x="137" y="-280.3" font-family="Times,serif" font-size="14.00"> return 0</text>
</g>
<!-- Node0x13d730c0&#45;&gt;Node0x13d73010 -->
<g id="edge7" class="edge"><title>Node0x13d730c0&#45;&gt;Node0x13d73010</title>
<path fill="none" stroke="black" d="M204.409,-434.205C203.094,-428.43 201.675,-421.95 200.5,-416 194.046,-383.329 187.799,-345.556 183.821,-320.474"/>
<polygon fill="black" stroke="black" points="187.272,-319.888 182.261,-310.554 180.357,-320.976 187.272,-319.888"/>
<text text-anchor="middle" x="239.5" y="-404.8" font-family="Times,serif" font-size="14.00">*(a1) == 0</text>
</g>
<!-- Node0x13d73470 -->
<g id="node9" class="node"><title>Node0x13d73470</title>
<polygon fill="none" stroke="black" points="252,-329.5 252,-382.5 551,-382.5 551,-329.5 252,-329.5"/>
<text text-anchor="start" x="260" y="-367.3" font-family="Times,serif" font-size="14.00">wait(stat_loc)</text>
<text text-anchor="start" x="260" y="-352.3" font-family="Times,serif" font-size="14.00"> v2 = IntToPtrCastExpr&lt;ptr&gt;(stat_loc)</text>
<text text-anchor="start" x="260" y="-337.3" font-family="Times,serif" font-size="14.00"> *(v2) = 1</text>
</g>
<!-- Node0x13d730c0&#45;&gt;Node0x13d73470 -->
<g id="edge8" class="edge"><title>Node0x13d730c0&#45;&gt;Node0x13d73470</title>
<path fill="none" stroke="black" d="M243.451,-434.387C270.343,-421.219 308.18,-402.693 340.09,-387.068"/>
<polygon fill="black" stroke="black" points="341.909,-390.075 349.351,-382.534 338.831,-383.788 341.909,-390.075"/>
<text text-anchor="middle" x="346.5" y="-404.8" font-family="Times,serif" font-size="14.00">*(a1) != 0</text>
</g>
<!-- Node0x13d73010&#45;&gt;Node0x13d70400 -->
<g id="edge9" class="edge"><title>Node0x13d73010&#45;&gt;Node0x13d70400</title>
<path fill="none" stroke="black" d="M176.926,-272.264C170.839,-229.133 155.531,-120.66 148.342,-69.7199"/>
<polygon fill="black" stroke="black" points="151.8,-69.1801 146.937,-59.7673 144.869,-70.1583 151.8,-69.1801"/>
</g>
<!-- Node0x13d734d0 -->
<g id="node10" class="node"><title>Node0x13d734d0</title>
<polygon fill="none" stroke="black" points="334.5,-217.5 334.5,-253.5 480.5,-253.5 480.5,-217.5 334.5,-217.5"/>
<text text-anchor="start" x="342.5" y="-231.8" font-family="Times,serif" font-size="14.00">while (*(v2) != 0):</text>
</g>
<!-- Node0x13d73470&#45;&gt;Node0x13d734d0 -->
<g id="edge10" class="edge"><title>Node0x13d73470&#45;&gt;Node0x13d734d0</title>
<path fill="none" stroke="black" d="M402.802,-329.287C403.779,-309.989 405.114,-283.614 406.112,-263.916"/>
<polygon fill="black" stroke="black" points="409.616,-263.911 406.627,-253.747 402.625,-263.557 409.616,-263.911"/>
</g>
<!-- Node0x13d73a70 -->
<g id="node11" class="node"><title>Node0x13d73a70</title>
<polygon fill="none" stroke="black" points="173,-97.5 173,-165.5 472,-165.5 472,-97.5 173,-97.5"/>
<text text-anchor="start" x="181" y="-150.3" font-family="Times,serif" font-size="14.00">0x8075691:</text>
<text text-anchor="start" x="181" y="-135.3" font-family="Times,serif" font-size="14.00"> wait(stat_loc)</text>
<text text-anchor="start" x="181" y="-120.3" font-family="Times,serif" font-size="14.00"> v2 = IntToPtrCastExpr&lt;ptr&gt;(stat_loc)</text>
<text text-anchor="start" x="181" y="-105.3" font-family="Times,serif" font-size="14.00"> *(v2) = 1</text>
</g>
<!-- Node0x13d734d0&#45;&gt;Node0x13d73a70 -->
<g id="edge11" class="edge"><title>Node0x13d734d0&#45;&gt;Node0x13d73a70</title>
<path fill="none" stroke="black" d="M342.84,-217.495C334.817,-212.764 327.642,-206.72 322.5,-199 318,-192.244 315.972,-184.182 315.397,-176.042"/>
<polygon fill="black" stroke="black" points="318.897,-175.772 315.37,-165.782 311.897,-175.791 318.897,-175.772"/>
<text text-anchor="middle" x="358.5" y="-187.8" font-family="Times,serif" font-size="14.00">*(v2) != 0</text>
</g>
<!-- Node0x13d73770 -->
<g id="node12" class="node"><title>Node0x13d73770</title>
<polygon fill="none" stroke="black" points="490,-105 490,-158 591,-158 591,-105 490,-105"/>
<text text-anchor="start" x="498" y="-142.8" font-family="Times,serif" font-size="14.00">0x80756b1:</text>
<text text-anchor="start" x="498" y="-127.8" font-family="Times,serif" font-size="14.00"> g3 = v1</text>
<text text-anchor="start" x="498" y="-112.8" font-family="Times,serif" font-size="14.00"> return 0</text>
</g>
<!-- Node0x13d734d0&#45;&gt;Node0x13d73770 -->
<g id="edge12" class="edge"><title>Node0x13d734d0&#45;&gt;Node0x13d73770</title>
<path fill="none" stroke="black" d="M429.761,-217.427C448.597,-202.982 476.1,-181.89 498.984,-164.339"/>
<polygon fill="black" stroke="black" points="501.376,-166.916 507.181,-158.053 497.116,-161.361 501.376,-166.916"/>
<text text-anchor="middle" x="508.5" y="-187.8" font-family="Times,serif" font-size="14.00">*(v2) == 0</text>
</g>
<!-- Node0x13d73a70&#45;&gt;Node0x13d734d0 -->
<g id="edge13" class="edge"><title>Node0x13d73a70&#45;&gt;Node0x13d734d0</title>
<path fill="none" stroke="black" d="M377.832,-165.618C384.11,-171.138 389.895,-177.282 394.5,-184 399.251,-190.931 402.266,-199.474 404.179,-207.549"/>
<polygon fill="black" stroke="black" points="400.741,-208.208 406.06,-217.371 407.616,-206.891 400.741,-208.208"/>
</g>
<!-- Node0x13d73770&#45;&gt;Node0x13d70400 -->
<g id="edge14" class="edge"><title>Node0x13d73770&#45;&gt;Node0x13d70400</title>
<path fill="none" stroke="black" d="M499.802,-104.952C493.82,-101.923 487.611,-99.1505 481.5,-97 376.859,-60.1765 245.084,-48.0654 181.79,-44.2149"/>
<polygon fill="black" stroke="black" points="181.695,-40.7038 171.511,-43.6264 181.294,-47.6924 181.695,-40.7038"/>
</g>
</g>
</svg>
