<?xml version="1.0" encoding="UTF-8" standalone="no"?>
<!DOCTYPE svg PUBLIC "-//W3C//DTD SVG 1.1//EN"
 "http://www.w3.org/Graphics/SVG/1.1/DTD/svg11.dtd">
<!-- Generated by graphviz version 2.38.0 (20140413.2041)
 -->
<!-- Title: Control&#45;flow graph for function &#39;mbedtls_md5_update(*a1, *a2, a3)&#39;. Pages: 1 -->
<svg width="1420pt" height="2007pt"
 viewBox="0.00 0.00 1420.00 2007.00" xmlns="http://www.w3.org/2000/svg" xmlns:xlink="http://www.w3.org/1999/xlink">
<g id="graph0" class="graph" transform="scale(1 1) rotate(0) translate(4 2003)">
<title>Control&#45;flow graph for function &#39;mbedtls_md5_update(*a1, *a2, a3)&#39;.</title>
<polygon fill="white" stroke="none" points="-4,4 -4,-2003 1416,-2003 1416,4 -4,4"/>
<text text-anchor="middle" x="706" y="-7.8" font-family="Times,serif" font-size="14.00">Control&#45;flow graph for function &#39;mbedtls_md5_update(*a1, *a2, a3)&#39;.</text>
<!-- Node0x2185b890 -->
<g id="node1" class="node"><title>Node0x2185b890</title>
<polygon fill="none" stroke="black" points="109,-1930.5 109,-1998.5 168,-1998.5 168,-1930.5 109,-1930.5"/>
<text text-anchor="start" x="117" y="-1983.3" font-family="Times,serif" font-size="14.00">entry:</text>
<text text-anchor="start" x="117" y="-1968.3" font-family="Times,serif" font-size="14.00"> a1</text>
<text text-anchor="start" x="117" y="-1953.3" font-family="Times,serif" font-size="14.00"> a2</text>
<text text-anchor="start" x="117" y="-1938.3" font-family="Times,serif" font-size="14.00"> a3</text>
</g>
<!-- Node0x2185dbf0 -->
<g id="node2" class="node"><title>Node0x2185dbf0</title>
<polygon fill="none" stroke="black" points="0,-1794.5 0,-1892.5 277,-1892.5 277,-1794.5 0,-1794.5"/>
<text text-anchor="start" x="8" y="-1877.3" font-family="Times,serif" font-size="14.00">v1 = g5</text>
<text text-anchor="start" x="8" y="-1862.3" font-family="Times,serif" font-size="14.00"> v2 = g7</text>
<text text-anchor="start" x="8" y="-1847.3" font-family="Times,serif" font-size="14.00"> v3 = g3</text>
<text text-anchor="start" x="8" y="-1832.3" font-family="Times,serif" font-size="14.00"> g3 = a3</text>
<text text-anchor="start" x="8" y="-1817.3" font-family="Times,serif" font-size="14.00"> g7 = PtrToIntCastExpr&lt;int32&gt;(a1)</text>
<text text-anchor="start" x="8" y="-1802.3" font-family="Times,serif" font-size="14.00"> g5 = PtrToIntCastExpr&lt;int32&gt;(a2)</text>
</g>
<!-- Node0x2185b890&#45;&gt;Node0x2185dbf0 -->
<g id="edge1" class="edge"><title>Node0x2185b890&#45;&gt;Node0x2185dbf0</title>
<path fill="none" stroke="black" d="M138.5,-1930.35C138.5,-1921.77 138.5,-1912.26 138.5,-1902.8"/>
<polygon fill="black" stroke="black" points="142,-1902.59 138.5,-1892.59 135,-1902.59 142,-1902.59"/>
</g>
<!-- Node0x2185dd10 -->
<g id="node3" class="node"><title>Node0x2185dd10</title>
<polygon fill="none" stroke="black" points="86,-1720.5 86,-1756.5 191,-1756.5 191,-1720.5 86,-1720.5"/>
<text text-anchor="start" x="94" y="-1734.8" font-family="Times,serif" font-size="14.00">if (a3 == 0):</text>
</g>
<!-- Node0x2185dbf0&#45;&gt;Node0x2185dd10 -->
<g id="edge2" class="edge"><title>Node0x2185dbf0&#45;&gt;Node0x2185dd10</title>
<path fill="none" stroke="black" d="M138.5,-1794.32C138.5,-1784.89 138.5,-1775.32 138.5,-1766.87"/>
<polygon fill="black" stroke="black" points="142,-1766.86 138.5,-1756.86 135,-1766.86 142,-1766.86"/>
</g>
<!-- Node0x27684db0 -->
<g id="node4" class="node"><title>Node0x27684db0</title>
<polygon fill="none" stroke="black" points="32.5,-1468.5 32.5,-1551.5 130.5,-1551.5 130.5,-1468.5 32.5,-1468.5"/>
<text text-anchor="start" x="40.5" y="-1536.3" font-family="Times,serif" font-size="14.00">0x806df14:</text>
<text text-anchor="start" x="40.5" y="-1521.3" font-family="Times,serif" font-size="14.00"> g3 = v3</text>
<text text-anchor="start" x="40.5" y="-1506.3" font-family="Times,serif" font-size="14.00"> g7 = v2</text>
<text text-anchor="start" x="40.5" y="-1491.3" font-family="Times,serif" font-size="14.00"> g5 = v1</text>
<text text-anchor="start" x="40.5" y="-1476.3" font-family="Times,serif" font-size="14.00"> return g1</text>
</g>
<!-- Node0x2185dd10&#45;&gt;Node0x27684db0 -->
<g id="edge3" class="edge"><title>Node0x2185dd10&#45;&gt;Node0x27684db0</title>
<path fill="none" stroke="black" d="M117.943,-1720.47C112.736,-1715.1 107.714,-1708.79 104.5,-1702 83.5937,-1657.85 79.0691,-1601.8 79.0313,-1561.86"/>
<polygon fill="black" stroke="black" points="82.5315,-1561.84 79.1156,-1551.81 75.5317,-1561.78 82.5315,-1561.84"/>
<text text-anchor="middle" x="134.5" y="-1690.8" font-family="Times,serif" font-size="14.00">a3 == 0</text>
</g>
<!-- Node0x2185df00 -->
<g id="node5" class="node"><title>Node0x2185df00</title>
<polygon fill="none" stroke="black" points="110,-1570.5 110,-1668.5 349,-1668.5 349,-1570.5 110,-1570.5"/>
<text text-anchor="start" x="118" y="-1653.3" font-family="Times,serif" font-size="14.00">v4 = *(BitCastExpr&lt;ptr&gt;(a1))</text>
<text text-anchor="start" x="118" y="-1638.3" font-family="Times,serif" font-size="14.00"> v5 = (v4 % 64)</text>
<text text-anchor="start" x="118" y="-1623.3" font-family="Times,serif" font-size="14.00"> v6 = (v4 + a3)</text>
<text text-anchor="start" x="118" y="-1608.3" font-family="Times,serif" font-size="14.00"> g1 = v6</text>
<text text-anchor="start" x="118" y="-1593.3" font-family="Times,serif" font-size="14.00"> v7 = (64 &#45; v5)</text>
<text text-anchor="start" x="118" y="-1578.3" font-family="Times,serif" font-size="14.00"> *(BitCastExpr&lt;ptr&gt;(a1)) = v6</text>
</g>
<!-- Node0x2185dd10&#45;&gt;Node0x2185df00 -->
<g id="edge4" class="edge"><title>Node0x2185dd10&#45;&gt;Node0x2185df00</title>
<path fill="none" stroke="black" d="M151.732,-1720.49C160.757,-1708.88 173.272,-1692.79 185.627,-1676.91"/>
<polygon fill="black" stroke="black" points="188.677,-1678.69 192.053,-1668.65 183.151,-1674.39 188.677,-1678.69"/>
<text text-anchor="middle" x="203.5" y="-1690.8" font-family="Times,serif" font-size="14.00">a3 != 0</text>
</g>
<!-- Node0x2185db70 -->
<g id="node6" class="node"><title>Node0x2185db70</title>
<polygon fill="none" stroke="black" points="155.5,-23.5 155.5,-59.5 209.5,-59.5 209.5,-23.5 155.5,-23.5"/>
<text text-anchor="start" x="163.5" y="-37.8" font-family="Times,serif" font-size="14.00">exit:</text>
</g>
<!-- Node0x27684db0&#45;&gt;Node0x2185db70 -->
<g id="edge5" class="edge"><title>Node0x27684db0&#45;&gt;Node0x2185db70</title>
<path fill="none" stroke="black" d="M81.5,-1468.28C81.5,-1444.93 81.5,-1415.07 81.5,-1388.5 81.5,-1388.5 81.5,-1388.5 81.5,-130.5 81.5,-95.0343 117.339,-70.5953 146.32,-56.6309"/>
<polygon fill="black" stroke="black" points="147.794,-59.8052 155.434,-52.4643 144.884,-53.4389 147.794,-59.8052"/>
</g>
<!-- Node0x21858d20 -->
<g id="node7" class="node"><title>Node0x21858d20</title>
<polygon fill="none" stroke="black" points="179,-1413.5 179,-1449.5 280,-1449.5 280,-1413.5 179,-1413.5"/>
<text text-anchor="start" x="187" y="-1427.8" font-family="Times,serif" font-size="14.00">if (v6 &lt; a3):</text>
</g>
<!-- Node0x2185df00&#45;&gt;Node0x21858d20 -->
<g id="edge6" class="edge"><title>Node0x2185df00&#45;&gt;Node0x21858d20</title>
<path fill="none" stroke="black" d="M229.5,-1570.12C229.5,-1534.99 229.5,-1488.74 229.5,-1459.81"/>
<polygon fill="black" stroke="black" points="233,-1459.63 229.5,-1449.63 226,-1459.63 233,-1459.63"/>
</g>
<!-- Node0x2185e010 -->
<g id="node8" class="node"><title>Node0x2185e010</title>
<polygon fill="none" stroke="black" points="291,-1323.5 291,-1361.5 588,-1361.5 588,-1323.5 291,-1323.5"/>
<text text-anchor="start" x="299" y="-1346.3" font-family="Times,serif" font-size="14.00">v8 = IntToPtrCastExpr&lt;ptr&gt;((g7 + 4))</text>
<text text-anchor="start" x="299" y="-1331.3" font-family="Times,serif" font-size="14.00"> *(v8) = (*(v8) + 1)</text>
</g>
<!-- Node0x21858d20&#45;&gt;Node0x2185e010 -->
<g id="edge7" class="edge"><title>Node0x21858d20&#45;&gt;Node0x2185e010</title>
<path fill="none" stroke="black" d="M270.739,-1413.42C303.853,-1399.7 350.584,-1380.34 386.478,-1365.47"/>
<polygon fill="black" stroke="black" points="387.925,-1368.66 395.823,-1361.59 385.245,-1362.19 387.925,-1368.66"/>
<text text-anchor="middle" x="375.5" y="-1383.8" font-family="Times,serif" font-size="14.00">v6 &lt; a3</text>
</g>
<!-- Node0x2185e330 -->
<g id="node9" class="node"><title>Node0x2185e330</title>
<polygon fill="none" stroke="black" points="361.5,-1232.5 361.5,-1285.5 447.5,-1285.5 447.5,-1232.5 361.5,-1232.5"/>
<text text-anchor="start" x="369.5" y="-1270.3" font-family="Times,serif" font-size="14.00">v9 = g3</text>
<text text-anchor="start" x="369.5" y="-1255.3" font-family="Times,serif" font-size="14.00"> v10 = v9</text>
<text text-anchor="start" x="369.5" y="-1240.3" font-family="Times,serif" font-size="14.00"> v11</text>
</g>
<!-- Node0x21858d20&#45;&gt;Node0x2185e330 -->
<g id="edge8" class="edge"><title>Node0x21858d20&#45;&gt;Node0x2185e330</title>
<path fill="none" stroke="black" d="M220.088,-1413.45C208.9,-1390.63 194.04,-1349.91 213.5,-1323 244.631,-1279.95 306.224,-1265.82 351.074,-1261.44"/>
<polygon fill="black" stroke="black" points="351.557,-1264.91 361.228,-1260.58 350.969,-1257.93 351.557,-1264.91"/>
<text text-anchor="middle" x="247.5" y="-1338.8" font-family="Times,serif" font-size="14.00">v6 &gt;= a3</text>
</g>
<!-- Node0x2185e010&#45;&gt;Node0x2185e330 -->
<g id="edge9" class="edge"><title>Node0x2185e010&#45;&gt;Node0x2185e330</title>
<path fill="none" stroke="black" d="M431.732,-1323.41C428.168,-1315.11 423.813,-1304.97 419.641,-1295.26"/>
<polygon fill="black" stroke="black" points="422.727,-1293.57 415.565,-1285.77 416.295,-1296.34 422.727,-1293.57"/>
</g>
<!-- Node0x2185e450 -->
<g id="node10" class="node"><title>Node0x2185e450</title>
<polygon fill="none" stroke="black" points="348,-1158.5 348,-1194.5 461,-1194.5 461,-1158.5 348,-1158.5"/>
<text text-anchor="start" x="356" y="-1172.8" font-family="Times,serif" font-size="14.00">if (v9 &gt;= v7):</text>
</g>
<!-- Node0x2185e330&#45;&gt;Node0x2185e450 -->
<g id="edge10" class="edge"><title>Node0x2185e330&#45;&gt;Node0x2185e450</title>
<path fill="none" stroke="black" d="M404.5,-1232.09C404.5,-1223.46 404.5,-1213.82 404.5,-1205.07"/>
<polygon fill="black" stroke="black" points="408,-1204.97 404.5,-1194.97 401,-1204.97 408,-1204.97"/>
</g>
<!-- Node0x27684f00 -->
<g id="node11" class="node"><title>Node0x27684f00</title>
<polygon fill="none" stroke="black" points="857.5,-1068.5 857.5,-1106.5 955.5,-1106.5 955.5,-1068.5 857.5,-1068.5"/>
<text text-anchor="start" x="865.5" y="-1091.3" font-family="Times,serif" font-size="14.00">0x806df40:</text>
<text text-anchor="start" x="865.5" y="-1076.3" font-family="Times,serif" font-size="14.00"> g1 = v5</text>
</g>
<!-- Node0x2185e450&#45;&gt;Node0x27684f00 -->
<g id="edge11" class="edge"><title>Node0x2185e450&#45;&gt;Node0x27684f00</title>
<path fill="none" stroke="black" d="M461.11,-1165.69C556.828,-1149.1 749.725,-1115.67 847.218,-1098.77"/>
<polygon fill="black" stroke="black" points="847.946,-1102.2 857.202,-1097.04 846.751,-1095.3 847.946,-1102.2"/>
<text text-anchor="middle" x="720.5" y="-1128.8" font-family="Times,serif" font-size="14.00">v9 &gt;= v7</text>
</g>
<!-- Node0x2185df60 -->
<g id="node12" class="node"><title>Node0x2185df60</title>
<polygon fill="none" stroke="black" points="329.5,-706.5 329.5,-744.5 445.5,-744.5 445.5,-706.5 329.5,-706.5"/>
<text text-anchor="start" x="337.5" y="-729.3" font-family="Times,serif" font-size="14.00">0x806ded9:</text>
<text text-anchor="start" x="337.5" y="-714.3" font-family="Times,serif" font-size="14.00"> if (v10 &lt; 64):</text>
</g>
<!-- Node0x2185e450&#45;&gt;Node0x2185df60 -->
<g id="edge12" class="edge"><title>Node0x2185e450&#45;&gt;Node0x2185df60</title>
<path fill="none" stroke="black" d="M379.199,-1158.29C359.506,-1142.65 335.5,-1117.61 335.5,-1088.5 335.5,-1088.5 335.5,-1088.5 335.5,-860.5 335.5,-824.604 340.954,-815.242 354.5,-782 358.487,-772.215 364.012,-762.111 369.402,-753.251"/>
<polygon fill="black" stroke="black" points="372.526,-754.858 374.899,-744.532 366.605,-751.124 372.526,-754.858"/>
<text text-anchor="middle" x="363.5" y="-1007.8" font-family="Times,serif" font-size="14.00">v9 &lt; v7</text>
</g>
<!-- Node0x27684f60 -->
<g id="node13" class="node"><title>Node0x27684f60</title>
<polygon fill="none" stroke="black" points="854,-992.5 854,-1030.5 959,-1030.5 959,-992.5 854,-992.5"/>
<text text-anchor="start" x="862" y="-1015.3" font-family="Times,serif" font-size="14.00">if (v5 == 0):</text>
<text text-anchor="start" x="862" y="-1000.3" font-family="Times,serif" font-size="14.00"> else:</text>
</g>
<!-- Node0x27684f00&#45;&gt;Node0x27684f60 -->
<g id="edge13" class="edge"><title>Node0x27684f00&#45;&gt;Node0x27684f60</title>
<path fill="none" stroke="black" d="M906.5,-1068.21C906.5,-1059.96 906.5,-1050.04 906.5,-1040.86"/>
<polygon fill="black" stroke="black" points="910,-1040.58 906.5,-1030.58 903,-1040.58 910,-1040.58"/>
</g>
<!-- Node0xafa0ba0 -->
<g id="node14" class="node"><title>Node0xafa0ba0</title>
<polygon fill="none" stroke="black" points="494.5,-616.5 494.5,-654.5 628.5,-654.5 628.5,-616.5 494.5,-616.5"/>
<text text-anchor="start" x="502.5" y="-639.3" font-family="Times,serif" font-size="14.00">v11 = v10</text>
<text text-anchor="start" x="502.5" y="-624.3" font-family="Times,serif" font-size="14.00"> goto 0x806df10</text>
</g>
<!-- Node0x2185df60&#45;&gt;Node0xafa0ba0 -->
<g id="edge14" class="edge"><title>Node0x2185df60&#45;&gt;Node0xafa0ba0</title>
<path fill="none" stroke="black" d="M429.983,-706.475C442.797,-700.802 456.823,-694.353 469.5,-688 486.873,-679.294 505.659,-668.951 521.698,-659.828"/>
<polygon fill="black" stroke="black" points="523.855,-662.626 530.793,-654.618 520.376,-656.551 523.855,-662.626"/>
<text text-anchor="middle" x="531.5" y="-676.8" font-family="Times,serif" font-size="14.00">v10 &lt; 64</text>
</g>
<!-- Node0x27684840 -->
<g id="node15" class="node"><title>Node0x27684840</title>
<polygon fill="none" stroke="black" points="322,-617.5 322,-653.5 453,-653.5 453,-617.5 322,-617.5"/>
<text text-anchor="start" x="330" y="-631.8" font-family="Times,serif" font-size="14.00">goto 0x806dede</text>
</g>
<!-- Node0x2185df60&#45;&gt;Node0x27684840 -->
<g id="edge15" class="edge"><title>Node0x2185df60&#45;&gt;Node0x27684840</title>
<path fill="none" stroke="black" d="M387.5,-706.266C387.5,-694.031 387.5,-677.692 387.5,-663.902"/>
<polygon fill="black" stroke="black" points="391,-663.516 387.5,-653.516 384,-663.516 391,-663.516"/>
<text text-anchor="middle" x="426.5" y="-676.8" font-family="Times,serif" font-size="14.00">v10 &gt;= 64</text>
</g>
<!-- Node0x27684c30 -->
<g id="node16" class="node"><title>Node0x27684c30</title>
<polygon fill="none" stroke="black" points="969.5,-835 969.5,-888 1067.5,-888 1067.5,-835 969.5,-835"/>
<text text-anchor="start" x="977.5" y="-872.8" font-family="Times,serif" font-size="14.00">0x806df40:</text>
<text text-anchor="start" x="977.5" y="-857.8" font-family="Times,serif" font-size="14.00"> v10 = g3</text>
<text text-anchor="start" x="977.5" y="-842.8" font-family="Times,serif" font-size="14.00"> v5 = 0</text>
</g>
<!-- Node0x27684f60&#45;&gt;Node0x27684c30 -->
<g id="edge16" class="edge"><title>Node0x27684f60&#45;&gt;Node0x27684c30</title>
<path fill="none" stroke="black" d="M920.833,-992.302C931.787,-978.335 947.211,-958.537 960.5,-941 971.517,-926.46 983.525,-910.267 993.743,-896.382"/>
<polygon fill="black" stroke="black" points="996.749,-898.202 999.848,-888.071 991.107,-894.058 996.749,-898.202"/>
<text text-anchor="middle" x="976.5" y="-962.8" font-family="Times,serif" font-size="14.00">v5 == 0</text>
</g>
<!-- Node0x27684cd0 -->
<g id="node17" class="node"><title>Node0x27684cd0</title>
<polygon fill="none" stroke="black" points="363.5,-782.5 363.5,-940.5 951.5,-940.5 951.5,-782.5 363.5,-782.5"/>
<text text-anchor="start" x="371.5" y="-925.3" font-family="Times,serif" font-size="14.00">v12 = (g7 + 24)</text>
<text text-anchor="start" x="371.5" y="-910.3" font-family="Times,serif" font-size="14.00"> memcpy(IntToPtrCastExpr&lt;ptr&gt;((v12 + v5)), IntToPtrCastExpr&lt;ptr&gt;(g5), v7)</text>
<text text-anchor="start" x="371.5" y="-895.3" font-family="Times,serif" font-size="14.00"> v13 = g7</text>
<text text-anchor="start" x="371.5" y="-880.3" font-family="Times,serif" font-size="14.00"> mbedtls_md5_process(v13, IntToPtrCastExpr&lt;ptr&gt;(v12))</text>
<text text-anchor="start" x="371.5" y="-865.3" font-family="Times,serif" font-size="14.00"> g1 = v13</text>
<text text-anchor="start" x="371.5" y="-850.3" font-family="Times,serif" font-size="14.00"> g5 = (g5 + v7)</text>
<text text-anchor="start" x="371.5" y="-835.3" font-family="Times,serif" font-size="14.00"> v14 = (g3 &#45; v7)</text>
<text text-anchor="start" x="371.5" y="-820.3" font-family="Times,serif" font-size="14.00"> g3 = v14</text>
<text text-anchor="start" x="371.5" y="-805.3" font-family="Times,serif" font-size="14.00"> v10 = v14</text>
<text text-anchor="start" x="371.5" y="-790.3" font-family="Times,serif" font-size="14.00"> v5 = 0</text>
</g>
<!-- Node0x27684f60&#45;&gt;Node0x27684cd0 -->
<g id="edge17" class="edge"><title>Node0x27684f60&#45;&gt;Node0x27684cd0</title>
<path fill="none" stroke="black" d="M875.968,-992.352C855.579,-980.234 827.152,-963.337 797.533,-945.732"/>
<polygon fill="black" stroke="black" points="799.118,-942.603 788.733,-940.502 795.541,-948.62 799.118,-942.603"/>
<text text-anchor="middle" x="867.5" y="-962.8" font-family="Times,serif" font-size="14.00">v5 != 0</text>
</g>
<!-- Node0x21859160 -->
<g id="node18" class="node"><title>Node0x21859160</title>
<polygon fill="none" stroke="black" points="666,-511.5 666,-549.5 779,-549.5 779,-511.5 666,-511.5"/>
<text text-anchor="start" x="674" y="-534.3" font-family="Times,serif" font-size="14.00">0x806df10:</text>
<text text-anchor="start" x="674" y="-519.3" font-family="Times,serif" font-size="14.00"> if (v11 != 0):</text>
</g>
<!-- Node0xafa0ba0&#45;&gt;Node0x21859160 -->
<g id="edge18" class="edge"><title>Node0xafa0ba0&#45;&gt;Node0x21859160</title>
<path fill="none" stroke="black" d="M565.376,-616.115C568.555,-605.168 574.111,-591.75 583.5,-583 601.392,-566.327 612.53,-573.395 635.5,-565 645.742,-561.257 656.619,-557.163 667.088,-553.163"/>
<polygon fill="black" stroke="black" points="668.475,-556.38 676.557,-549.529 665.967,-549.845 668.475,-556.38"/>
</g>
<!-- Node0x27685370 -->
<g id="node19" class="node"><title>Node0x27685370</title>
<polygon fill="none" stroke="black" points="148.5,-496.5 148.5,-564.5 626.5,-564.5 626.5,-496.5 148.5,-496.5"/>
<text text-anchor="start" x="156.5" y="-549.3" font-family="Times,serif" font-size="14.00">0x806dede:</text>
<text text-anchor="start" x="156.5" y="-534.3" font-family="Times,serif" font-size="14.00"> v15 = 0</text>
<text text-anchor="start" x="156.5" y="-519.3" font-family="Times,serif" font-size="14.00"> mbedtls_md5_process(g7, IntToPtrCastExpr&lt;ptr&gt;((g5 + v15)))</text>
<text text-anchor="start" x="156.5" y="-504.3" font-family="Times,serif" font-size="14.00"> v16 = g3</text>
</g>
<!-- Node0x27684840&#45;&gt;Node0x27685370 -->
<g id="edge19" class="edge"><title>Node0x27684840&#45;&gt;Node0x27685370</title>
<path fill="none" stroke="black" d="M387.5,-617.492C387.5,-605.885 387.5,-589.954 387.5,-574.955"/>
<polygon fill="black" stroke="black" points="391,-574.786 387.5,-564.786 384,-574.786 391,-574.786"/>
</g>
<!-- Node0x27685170 -->
<g id="node20" class="node"><title>Node0x27685170</title>
<polygon fill="none" stroke="black" points="662,-706.5 662,-744.5 763,-744.5 763,-706.5 662,-706.5"/>
<text text-anchor="start" x="670" y="-729.3" font-family="Times,serif" font-size="14.00">0x806ded9:</text>
<text text-anchor="start" x="670" y="-714.3" font-family="Times,serif" font-size="14.00"> v11 = v10</text>
</g>
<!-- Node0x27684c30&#45;&gt;Node0x27685170 -->
<g id="edge20" class="edge"><title>Node0x27684c30&#45;&gt;Node0x27685170</title>
<path fill="none" stroke="black" d="M1005.81,-834.729C995.861,-817.211 980.378,-794.947 960.5,-782 903.888,-745.126 826.267,-732.508 773.027,-728.321"/>
<polygon fill="black" stroke="black" points="773.273,-724.829 763.05,-727.612 772.776,-731.812 773.273,-724.829"/>
</g>
<!-- Node0x27684cd0&#45;&gt;Node0x27685170 -->
<g id="edge21" class="edge"><title>Node0x27684cd0&#45;&gt;Node0x27685170</title>
<path fill="none" stroke="black" d="M689.653,-782.164C693.731,-772.229 697.668,-762.636 701.092,-754.294"/>
<polygon fill="black" stroke="black" points="704.429,-755.381 704.988,-744.801 697.953,-752.723 704.429,-755.381"/>
</g>
<!-- Node0x2185fde0 -->
<g id="node21" class="node"><title>Node0x2185fde0</title>
<polygon fill="none" stroke="black" points="757,-286.5 757,-444.5 1412,-444.5 1412,-286.5 757,-286.5"/>
<text text-anchor="start" x="765" y="-429.3" font-family="Times,serif" font-size="14.00">0x806df20:</text>
<text text-anchor="start" x="765" y="-414.3" font-family="Times,serif" font-size="14.00"> v7 = v5</text>
<text text-anchor="start" x="765" y="-399.3" font-family="Times,serif" font-size="14.00"> v18 = g7</text>
<text text-anchor="start" x="765" y="-384.3" font-family="Times,serif" font-size="14.00"> g3 = v3</text>
<text text-anchor="start" x="765" y="-369.3" font-family="Times,serif" font-size="14.00"> g7 = v2</text>
<text text-anchor="start" x="765" y="-354.3" font-family="Times,serif" font-size="14.00"> g5 = v1</text>
<text text-anchor="start" x="765" y="-339.3" font-family="Times,serif" font-size="14.00"> v19</text>
<text text-anchor="start" x="765" y="-324.3" font-family="Times,serif" font-size="14.00"> v20</text>
<text text-anchor="start" x="765" y="-309.3" font-family="Times,serif" font-size="14.00"> memcpy(IntToPtrCastExpr&lt;ptr&gt;(v20), IntToPtrCastExpr&lt;ptr&gt;(v19), ((v5 + 24) + v18))</text>
<text text-anchor="start" x="765" y="-294.3" font-family="Times,serif" font-size="14.00"> goto 0x806df40</text>
</g>
<!-- Node0x21859160&#45;&gt;Node0x2185fde0 -->
<g id="edge22" class="edge"><title>Node0x21859160&#45;&gt;Node0x2185fde0</title>
<path fill="none" stroke="black" d="M762.623,-511.433C797.008,-495.951 849.143,-472.476 901.501,-448.9"/>
<polygon fill="black" stroke="black" points="903.249,-451.952 910.93,-444.654 900.375,-445.569 903.249,-451.952"/>
<text text-anchor="middle" x="892" y="-466.8" font-family="Times,serif" font-size="14.00">v11 != 0</text>
</g>
<!-- Node0x21858f20 -->
<g id="node22" class="node"><title>Node0x21858f20</title>
<polygon fill="none" stroke="black" points="708.5,-184.5 708.5,-267.5 806.5,-267.5 806.5,-184.5 708.5,-184.5"/>
<text text-anchor="start" x="716.5" y="-252.3" font-family="Times,serif" font-size="14.00">0x806df14:</text>
<text text-anchor="start" x="716.5" y="-237.3" font-family="Times,serif" font-size="14.00"> g3 = v3</text>
<text text-anchor="start" x="716.5" y="-222.3" font-family="Times,serif" font-size="14.00"> g7 = v2</text>
<text text-anchor="start" x="716.5" y="-207.3" font-family="Times,serif" font-size="14.00"> g5 = v1</text>
<text text-anchor="start" x="716.5" y="-192.3" font-family="Times,serif" font-size="14.00"> return g1</text>
</g>
<!-- Node0x21859160&#45;&gt;Node0x21858f20 -->
<g id="edge23" class="edge"><title>Node0x21859160&#45;&gt;Node0x21858f20</title>
<path fill="none" stroke="black" d="M723.947,-511.429C727.277,-470.96 736.081,-370.008 747.5,-286 747.868,-283.294 748.265,-280.523 748.683,-277.727"/>
<polygon fill="black" stroke="black" points="752.184,-277.991 750.264,-267.571 745.267,-276.914 752.184,-277.991"/>
<text text-anchor="middle" x="763" y="-466.8" font-family="Times,serif" font-size="14.00">v11 == 0</text>
</g>
<!-- Node0x22319dc0 -->
<g id="node23" class="node"><title>Node0x22319dc0</title>
<polygon fill="none" stroke="black" points="265,-347.5 265,-383.5 504,-383.5 504,-347.5 265,-347.5"/>
<text text-anchor="start" x="273" y="-361.8" font-family="Times,serif" font-size="14.00">while ((v16 &#45; (v15 + 64)) &gt; 63):</text>
</g>
<!-- Node0x27685370&#45;&gt;Node0x22319dc0 -->
<g id="edge24" class="edge"><title>Node0x27685370&#45;&gt;Node0x22319dc0</title>
<path fill="none" stroke="black" d="M386.886,-496.121C386.332,-466.027 385.527,-422.294 385.008,-394.121"/>
<polygon fill="black" stroke="black" points="388.502,-393.727 384.818,-383.793 381.503,-393.856 388.502,-393.727"/>
</g>
<!-- Node0x2185f680 -->
<g id="node24" class="node"><title>Node0x2185f680</title>
<polygon fill="none" stroke="black" points="651,-617.5 651,-653.5 774,-653.5 774,-617.5 651,-617.5"/>
<text text-anchor="start" x="659" y="-631.8" font-family="Times,serif" font-size="14.00">if (v10 &gt;= 64):</text>
</g>
<!-- Node0x27685170&#45;&gt;Node0x2185f680 -->
<g id="edge25" class="edge"><title>Node0x27685170&#45;&gt;Node0x2185f680</title>
<path fill="none" stroke="black" d="M712.5,-706.266C712.5,-694.031 712.5,-677.692 712.5,-663.902"/>
<polygon fill="black" stroke="black" points="716,-663.516 712.5,-653.516 709,-663.516 716,-663.516"/>
</g>
<!-- Node0x2185fde0&#45;&gt;Node0x27684f00 -->
<g id="edge26" class="edge"><title>Node0x2185fde0&#45;&gt;Node0x27684f00</title>
<path fill="none" stroke="black" d="M1091.93,-444.776C1093.9,-471.613 1095.5,-501.846 1095.5,-529.5 1095.5,-1012.5 1095.5,-1012.5 1095.5,-1012.5 1095.5,-1040.78 1021.2,-1062.69 965.772,-1075.1"/>
<polygon fill="black" stroke="black" points="964.688,-1071.75 955.664,-1077.3 966.18,-1078.59 964.688,-1071.75"/>
</g>
<!-- Node0x21858f20&#45;&gt;Node0x2185db70 -->
<g id="edge27" class="edge"><title>Node0x21858f20&#45;&gt;Node0x2185db70</title>
<path fill="none" stroke="black" d="M771.618,-184.45C778.565,-156.396 781.521,-120.097 760.5,-97 724.078,-56.9824 342.056,-45.7525 219.863,-43.1722"/>
<polygon fill="black" stroke="black" points="219.925,-39.6729 209.856,-42.9682 219.782,-46.6714 219.925,-39.6729"/>
</g>
<!-- Node0x27685d10 -->
<g id="node25" class="node"><title>Node0x27685d10</title>
<polygon fill="none" stroke="black" points="273.5,-97.5 273.5,-165.5 751.5,-165.5 751.5,-97.5 273.5,-97.5"/>
<text text-anchor="start" x="281.5" y="-150.3" font-family="Times,serif" font-size="14.00">0x806dee0:</text>
<text text-anchor="start" x="281.5" y="-135.3" font-family="Times,serif" font-size="14.00"> v15 = (v15 + 64)</text>
<text text-anchor="start" x="281.5" y="-120.3" font-family="Times,serif" font-size="14.00"> mbedtls_md5_process(g7, IntToPtrCastExpr&lt;ptr&gt;((g5 + v15)))</text>
<text text-anchor="start" x="281.5" y="-105.3" font-family="Times,serif" font-size="14.00"> v16 = g3</text>
</g>
<!-- Node0x22319dc0&#45;&gt;Node0x27685d10 -->
<g id="edge28" class="edge"><title>Node0x22319dc0&#45;&gt;Node0x27685d10</title>
<path fill="none" stroke="black" d="M378.673,-347.264C368.198,-312.86 350.293,-234.635 384.5,-184 387.326,-179.816 390.555,-175.972 394.101,-172.441"/>
<polygon fill="black" stroke="black" points="396.633,-174.873 401.796,-165.621 391.991,-169.634 396.633,-174.873"/>
<text text-anchor="middle" x="467.5" y="-222.3" font-family="Times,serif" font-size="14.00">(v16 &#45; (v15 + 64)) &gt; 63</text>
</g>
<!-- Node0x2185fb90 -->
<g id="node26" class="node"><title>Node0x2185fb90</title>
<polygon fill="none" stroke="black" points="109.5,-105 109.5,-158 255.5,-158 255.5,-105 109.5,-105"/>
<text text-anchor="start" x="117.5" y="-142.8" font-family="Times,serif" font-size="14.00">v17 = (v16 &#45; 64)</text>
<text text-anchor="start" x="117.5" y="-127.8" font-family="Times,serif" font-size="14.00"> g1 = (v17 &amp; &#45;64)</text>
<text text-anchor="start" x="117.5" y="-112.8" font-family="Times,serif" font-size="14.00"> v11 = (v17 % 64)</text>
</g>
<!-- Node0x22319dc0&#45;&gt;Node0x2185fb90 -->
<g id="edge29" class="edge"><title>Node0x22319dc0&#45;&gt;Node0x2185fb90</title>
<path fill="none" stroke="black" d="M303.394,-347.469C259.898,-333.776 209.937,-309.676 183.5,-268 164.757,-238.454 167.456,-197.501 173.008,-168.37"/>
<polygon fill="black" stroke="black" points="176.51,-168.722 175.148,-158.215 169.661,-167.278 176.51,-168.722"/>
<text text-anchor="middle" x="272.5" y="-222.3" font-family="Times,serif" font-size="14.00">(v16 &#45; (v15 + 64)) &lt;= 63</text>
</g>
<!-- Node0x2185f680&#45;&gt;Node0x21859160 -->
<g id="edge31" class="edge"><title>Node0x2185f680&#45;&gt;Node0x21859160</title>
<path fill="none" stroke="black" d="M714.151,-617.492C715.672,-601.825 717.959,-578.277 719.754,-559.782"/>
<polygon fill="black" stroke="black" points="723.262,-559.865 720.745,-549.574 716.295,-559.189 723.262,-559.865"/>
<text text-anchor="middle" x="750.5" y="-586.8" font-family="Times,serif" font-size="14.00">v10 &lt; 64</text>
</g>
<!-- Node0x2185f680&#45;&gt;Node0x27685370 -->
<g id="edge30" class="edge"><title>Node0x2185f680&#45;&gt;Node0x27685370</title>
<path fill="none" stroke="black" d="M658.833,-617.492C616.143,-603.962 554.907,-584.555 501.409,-567.6"/>
<polygon fill="black" stroke="black" points="502.452,-564.259 491.862,-564.575 500.337,-570.932 502.452,-564.259"/>
<text text-anchor="middle" x="628.5" y="-586.8" font-family="Times,serif" font-size="14.00">v10 &gt;= 64</text>
</g>
<!-- Node0x27685d10&#45;&gt;Node0x22319dc0 -->
<g id="edge32" class="edge"><title>Node0x27685d10&#45;&gt;Node0x22319dc0</title>
<path fill="none" stroke="black" d="M541.552,-165.702C545.222,-171.474 548.416,-177.667 550.5,-184 562.167,-219.463 569.119,-235.641 550.5,-268 529.364,-304.735 488.278,-328.784 452.271,-343.687"/>
<polygon fill="black" stroke="black" points="450.76,-340.521 442.758,-347.465 453.344,-347.027 450.76,-340.521"/>
</g>
<!-- Node0x2185fb90&#45;&gt;Node0x2185db70 -->
<g id="edge33" class="edge"><title>Node0x2185fb90&#45;&gt;Node0x2185db70</title>
<path fill="none" stroke="black" d="M182.5,-104.573C182.5,-93.5849 182.5,-80.7766 182.5,-69.6581"/>
<polygon fill="black" stroke="black" points="186,-69.6304 182.5,-59.6304 179,-69.6305 186,-69.6304"/>
</g>
</g>
</svg>
