<?xml version="1.0" encoding="UTF-8" standalone="no"?>
<!DOCTYPE svg PUBLIC "-//W3C//DTD SVG 1.1//EN"
 "http://www.w3.org/Graphics/SVG/1.1/DTD/svg11.dtd">
<!-- Generated by graphviz version 2.38.0 (20140413.2041)
 -->
<!-- Title: Control&#45;flow graph for function &#39;__stdio_close(a1)&#39;. Pages: 1 -->
<svg width="567pt" height="323pt"
 viewBox="0.00 0.00 567.00 323.00" xmlns="http://www.w3.org/2000/svg" xmlns:xlink="http://www.w3.org/1999/xlink">
<g id="graph0" class="graph" transform="scale(1 1) rotate(0) translate(4 319)">
<title>Control&#45;flow graph for function &#39;__stdio_close(a1)&#39;.</title>
<polygon fill="white" stroke="none" points="-4,4 -4,-319 563,-319 563,4 -4,4"/>
<text text-anchor="middle" x="279.5" y="-7.8" font-family="Times,serif" font-size="14.00">Control&#45;flow graph for function &#39;__stdio_close(a1)&#39;.</text>
<!-- Node0x140f01e0 -->
<g id="node1" class="node"><title>Node0x140f01e0</title>
<polygon fill="none" stroke="black" points="250,-276.5 250,-314.5 309,-314.5 309,-276.5 250,-276.5"/>
<text text-anchor="start" x="258" y="-299.3" font-family="Times,serif" font-size="14.00">entry:</text>
<text text-anchor="start" x="258" y="-284.3" font-family="Times,serif" font-size="14.00"> a1</text>
</g>
<!-- Node0x140f0140 -->
<g id="node2" class="node"><title>Node0x140f0140</title>
<polygon fill="none" stroke="black" points="0,-96.5 0,-239.5 559,-239.5 559,-96.5 0,-96.5"/>
<text text-anchor="start" x="8" y="-224.3" font-family="Times,serif" font-size="14.00">v1 = *(IntToPtrCastExpr&lt;ptr&gt;((a1 + 60)))</text>
<text text-anchor="start" x="8" y="-209.3" font-family="Times,serif" font-size="14.00"> __aio_close(v1)</text>
<text text-anchor="start" x="8" y="-194.3" font-family="Times,serif" font-size="14.00"> g6 = v1</text>
<text text-anchor="start" x="8" y="-179.3" font-family="Times,serif" font-size="14.00"> g1 = 6</text>
<text text-anchor="start" x="8" y="-164.3" font-family="Times,serif" font-size="14.00"> v2</text>
<text text-anchor="start" x="8" y="-149.3" font-family="Times,serif" font-size="14.00"> __vsyscall(v1, v2, 0)</text>
<text text-anchor="start" x="8" y="-134.3" font-family="Times,serif" font-size="14.00"> result = __syscall_ret(ExtCastExpr&lt;int64&gt;(v1), ExtCastExpr&lt;int64&gt;(v2))</text>
<text text-anchor="start" x="8" y="-119.3" font-family="Times,serif" font-size="14.00"> g1 = result</text>
<text text-anchor="start" x="8" y="-104.3" font-family="Times,serif" font-size="14.00"> return result</text>
</g>
<!-- Node0x140f01e0&#45;&gt;Node0x140f0140 -->
<g id="edge1" class="edge"><title>Node0x140f01e0&#45;&gt;Node0x140f0140</title>
<path fill="none" stroke="black" d="M279.5,-276.251C279.5,-268.756 279.5,-259.516 279.5,-249.63"/>
<polygon fill="black" stroke="black" points="283,-249.569 279.5,-239.569 276,-249.569 283,-249.569"/>
</g>
<!-- Node0x7bea260 -->
<g id="node3" class="node"><title>Node0x7bea260</title>
<polygon fill="none" stroke="black" points="252.5,-23.5 252.5,-59.5 306.5,-59.5 306.5,-23.5 252.5,-23.5"/>
<text text-anchor="start" x="260.5" y="-37.8" font-family="Times,serif" font-size="14.00">exit:</text>
</g>
<!-- Node0x140f0140&#45;&gt;Node0x7bea260 -->
<g id="edge2" class="edge"><title>Node0x140f0140&#45;&gt;Node0x7bea260</title>
<path fill="none" stroke="black" d="M279.5,-96.3834C279.5,-87.0259 279.5,-77.9253 279.5,-69.9482"/>
<polygon fill="black" stroke="black" points="283,-69.848 279.5,-59.848 276,-69.8481 283,-69.848"/>
</g>
</g>
</svg>
