<?xml version="1.0" encoding="UTF-8" standalone="no"?>
<!DOCTYPE svg PUBLIC "-//W3C//DTD SVG 1.1//EN"
 "http://www.w3.org/Graphics/SVG/1.1/DTD/svg11.dtd">
<!-- Generated by graphviz version 2.38.0 (20140413.2041)
 -->
<!-- Title: Control&#45;flow graph for function &#39;sha1_update_wrap(a1)&#39;. Pages: 1 -->
<svg width="696pt" height="278pt"
 viewBox="0.00 0.00 696.00 278.00" xmlns="http://www.w3.org/2000/svg" xmlns:xlink="http://www.w3.org/1999/xlink">
<g id="graph0" class="graph" transform="scale(1 1) rotate(0) translate(4 274)">
<title>Control&#45;flow graph for function &#39;sha1_update_wrap(a1)&#39;.</title>
<polygon fill="white" stroke="none" points="-4,4 -4,-274 692,-274 692,4 -4,4"/>
<text text-anchor="middle" x="344" y="-7.8" font-family="Times,serif" font-size="14.00">Control&#45;flow graph for function &#39;sha1_update_wrap(a1)&#39;.</text>
<!-- Node0x15ae84e0 -->
<g id="node1" class="node"><title>Node0x15ae84e0</title>
<polygon fill="none" stroke="black" points="314.5,-231.5 314.5,-269.5 373.5,-269.5 373.5,-231.5 314.5,-231.5"/>
<text text-anchor="start" x="322.5" y="-254.3" font-family="Times,serif" font-size="14.00">entry:</text>
<text text-anchor="start" x="322.5" y="-239.3" font-family="Times,serif" font-size="14.00"> a1</text>
</g>
<!-- Node0x15ae9590 -->
<g id="node2" class="node"><title>Node0x15ae9590</title>
<polygon fill="none" stroke="black" points="0,-96.5 0,-194.5 688,-194.5 688,-96.5 0,-96.5"/>
<text text-anchor="start" x="8" y="-179.3" font-family="Times,serif" font-size="14.00">0x8062d70:</text>
<text text-anchor="start" x="8" y="-164.3" font-family="Times,serif" font-size="14.00"> v1</text>
<text text-anchor="start" x="8" y="-149.3" font-family="Times,serif" font-size="14.00"> v2</text>
<text text-anchor="start" x="8" y="-134.3" font-family="Times,serif" font-size="14.00"> result = mbedtls_sha1_update(IntToPtrCastExpr&lt;ptr&gt;(v2), IntToPtrCastExpr&lt;ptr&gt;(v1), a1)</text>
<text text-anchor="start" x="8" y="-119.3" font-family="Times,serif" font-size="14.00"> g1 = result</text>
<text text-anchor="start" x="8" y="-104.3" font-family="Times,serif" font-size="14.00"> return result</text>
</g>
<!-- Node0x15ae84e0&#45;&gt;Node0x15ae9590 -->
<g id="edge1" class="edge"><title>Node0x15ae84e0&#45;&gt;Node0x15ae9590</title>
<path fill="none" stroke="black" d="M344,-231.086C344,-223.607 344,-214.513 344,-205.097"/>
<polygon fill="black" stroke="black" points="347.5,-204.814 344,-194.814 340.5,-204.815 347.5,-204.814"/>
</g>
<!-- Node0xc589270 -->
<g id="node3" class="node"><title>Node0xc589270</title>
<polygon fill="none" stroke="black" points="317,-23.5 317,-59.5 371,-59.5 371,-23.5 317,-23.5"/>
<text text-anchor="start" x="325" y="-37.8" font-family="Times,serif" font-size="14.00">exit:</text>
</g>
<!-- Node0x15ae9590&#45;&gt;Node0xc589270 -->
<g id="edge2" class="edge"><title>Node0x15ae9590&#45;&gt;Node0xc589270</title>
<path fill="none" stroke="black" d="M344,-96.4868C344,-87.2893 344,-77.9618 344,-69.7064"/>
<polygon fill="black" stroke="black" points="347.5,-69.5725 344,-59.5725 340.5,-69.5725 347.5,-69.5725"/>
</g>
</g>
</svg>
