<?xml version="1.0" encoding="UTF-8" standalone="no"?>
<!DOCTYPE svg PUBLIC "-//W3C//DTD SVG 1.1//EN"
 "http://www.w3.org/Graphics/SVG/1.1/DTD/svg11.dtd">
<!-- Generated by graphviz version 2.38.0 (20140413.2041)
 -->
<!-- Title: Control&#45;flow graph for function &#39;mbedtls_mpi_init(*a1)&#39;. Pages: 1 -->
<svg width="476pt" height="488pt"
 viewBox="0.00 0.00 475.50 488.00" xmlns="http://www.w3.org/2000/svg" xmlns:xlink="http://www.w3.org/1999/xlink">
<g id="graph0" class="graph" transform="scale(1 1) rotate(0) translate(4 484)">
<title>Control&#45;flow graph for function &#39;mbedtls_mpi_init(*a1)&#39;.</title>
<polygon fill="white" stroke="none" points="-4,4 -4,-484 471.5,-484 471.5,4 -4,4"/>
<text text-anchor="middle" x="233.75" y="-7.8" font-family="Times,serif" font-size="14.00">Control&#45;flow graph for function &#39;mbedtls_mpi_init(*a1)&#39;.</text>
<!-- Node0xc1d1cd0 -->
<g id="node1" class="node"><title>Node0xc1d1cd0</title>
<polygon fill="none" stroke="black" points="290,-441.5 290,-479.5 349,-479.5 349,-441.5 290,-441.5"/>
<text text-anchor="start" x="298" y="-464.3" font-family="Times,serif" font-size="14.00">entry:</text>
<text text-anchor="start" x="298" y="-449.3" font-family="Times,serif" font-size="14.00"> a1</text>
</g>
<!-- Node0xc1d2d50 -->
<g id="node2" class="node"><title>Node0xc1d2d50</title>
<polygon fill="none" stroke="black" points="171.5,-367.5 171.5,-403.5 467.5,-403.5 467.5,-367.5 171.5,-367.5"/>
<text text-anchor="start" x="179.5" y="-381.8" font-family="Times,serif" font-size="14.00">result = PtrToIntCastExpr&lt;int32&gt;(a1)</text>
</g>
<!-- Node0xc1d1cd0&#45;&gt;Node0xc1d2d50 -->
<g id="edge1" class="edge"><title>Node0xc1d1cd0&#45;&gt;Node0xc1d2d50</title>
<path fill="none" stroke="black" d="M319.5,-441.455C319.5,-433.201 319.5,-423.238 319.5,-414.074"/>
<polygon fill="black" stroke="black" points="323,-413.835 319.5,-403.835 316,-413.835 323,-413.835"/>
</g>
<!-- Node0xc1d2df0 -->
<g id="node3" class="node"><title>Node0xc1d2df0</title>
<polygon fill="none" stroke="black" points="252.5,-293.5 252.5,-329.5 386.5,-329.5 386.5,-293.5 252.5,-293.5"/>
<text text-anchor="start" x="260.5" y="-307.8" font-family="Times,serif" font-size="14.00">if (a1 != NULL):</text>
</g>
<!-- Node0xc1d2d50&#45;&gt;Node0xc1d2df0 -->
<g id="edge2" class="edge"><title>Node0xc1d2d50&#45;&gt;Node0xc1d2df0</title>
<path fill="none" stroke="black" d="M319.5,-367.437C319.5,-359.307 319.5,-349.376 319.5,-340.205"/>
<polygon fill="black" stroke="black" points="323,-339.941 319.5,-329.941 316,-339.941 323,-339.941"/>
</g>
<!-- Node0xc1d3280 -->
<g id="node4" class="node"><title>Node0xc1d3280</title>
<polygon fill="none" stroke="black" points="0,-173.5 0,-241.5 335,-241.5 335,-173.5 0,-173.5"/>
<text text-anchor="start" x="8" y="-226.3" font-family="Times,serif" font-size="14.00">0x805634a:</text>
<text text-anchor="start" x="8" y="-211.3" font-family="Times,serif" font-size="14.00"> *(a1) = 1</text>
<text text-anchor="start" x="8" y="-196.3" font-family="Times,serif" font-size="14.00"> *(IntToPtrCastExpr&lt;ptr&gt;((result + 4))) = 0</text>
<text text-anchor="start" x="8" y="-181.3" font-family="Times,serif" font-size="14.00"> *(IntToPtrCastExpr&lt;ptr&gt;((result + 8))) = 0</text>
</g>
<!-- Node0xc1d2df0&#45;&gt;Node0xc1d3280 -->
<g id="edge3" class="edge"><title>Node0xc1d2df0&#45;&gt;Node0xc1d3280</title>
<path fill="none" stroke="black" d="M294.059,-293.427C275.317,-280.851 249.067,-263.236 225.33,-247.307"/>
<polygon fill="black" stroke="black" points="226.97,-244.193 216.716,-241.527 223.07,-250.005 226.97,-244.193"/>
<text text-anchor="middle" x="310.5" y="-263.8" font-family="Times,serif" font-size="14.00">a1 != NULL</text>
</g>
<!-- Node0xc1d31d0 -->
<g id="node5" class="node"><title>Node0xc1d31d0</title>
<polygon fill="none" stroke="black" points="258,-97.5 258,-135.5 371,-135.5 371,-97.5 258,-97.5"/>
<text text-anchor="start" x="266" y="-120.3" font-family="Times,serif" font-size="14.00">0x805635e:</text>
<text text-anchor="start" x="266" y="-105.3" font-family="Times,serif" font-size="14.00"> return result</text>
</g>
<!-- Node0xc1d2df0&#45;&gt;Node0xc1d31d0 -->
<g id="edge4" class="edge"><title>Node0xc1d2df0&#45;&gt;Node0xc1d31d0</title>
<path fill="none" stroke="black" d="M343.82,-293.378C349.349,-288.169 354.479,-281.956 357.5,-275 360.156,-268.885 358.031,-266.645 357.5,-260 354.379,-220.96 355.839,-210.169 343.5,-173 340.305,-163.377 335.589,-153.399 330.885,-144.603"/>
<polygon fill="black" stroke="black" points="333.786,-142.62 325.856,-135.593 327.674,-146.031 333.786,-142.62"/>
<text text-anchor="middle" x="403.5" y="-203.8" font-family="Times,serif" font-size="14.00">a1 == NULL</text>
</g>
<!-- Node0xc1d3280&#45;&gt;Node0xc1d31d0 -->
<g id="edge5" class="edge"><title>Node0xc1d3280&#45;&gt;Node0xc1d31d0</title>
<path fill="none" stroke="black" d="M222.237,-173.36C240.007,-162.601 259.345,-150.893 275.705,-140.988"/>
<polygon fill="black" stroke="black" points="277.717,-143.861 284.459,-135.688 274.092,-137.873 277.717,-143.861"/>
</g>
<!-- Node0xc1d2b80 -->
<g id="node6" class="node"><title>Node0xc1d2b80</title>
<polygon fill="none" stroke="black" points="287.5,-23.5 287.5,-59.5 341.5,-59.5 341.5,-23.5 287.5,-23.5"/>
<text text-anchor="start" x="295.5" y="-37.8" font-family="Times,serif" font-size="14.00">exit:</text>
</g>
<!-- Node0xc1d31d0&#45;&gt;Node0xc1d2b80 -->
<g id="edge6" class="edge"><title>Node0xc1d31d0&#45;&gt;Node0xc1d2b80</title>
<path fill="none" stroke="black" d="M314.5,-97.4551C314.5,-89.2008 314.5,-79.2377 314.5,-70.0742"/>
<polygon fill="black" stroke="black" points="318,-69.8347 314.5,-59.8347 311,-69.8347 318,-69.8347"/>
</g>
</g>
</svg>
