<?xml version="1.0" encoding="UTF-8" standalone="no"?>
<!DOCTYPE svg PUBLIC "-//W3C//DTD SVG 1.1//EN"
 "http://www.w3.org/Graphics/SVG/1.1/DTD/svg11.dtd">
<!-- Generated by graphviz version 2.38.0 (20140413.2041)
 -->
<!-- Title: Control&#45;flow graph for function &#39;mbedtls_hmac_drbg_set_entropy_len(result, a2)&#39;. Pages: 1 -->
<svg width="610pt" height="248pt"
 viewBox="0.00 0.00 610.00 248.00" xmlns="http://www.w3.org/2000/svg" xmlns:xlink="http://www.w3.org/1999/xlink">
<g id="graph0" class="graph" transform="scale(1 1) rotate(0) translate(4 244)">
<title>Control&#45;flow graph for function &#39;mbedtls_hmac_drbg_set_entropy_len(result, a2)&#39;.</title>
<polygon fill="white" stroke="none" points="-4,4 -4,-244 606,-244 606,4 -4,4"/>
<text text-anchor="middle" x="301" y="-7.8" font-family="Times,serif" font-size="14.00">Control&#45;flow graph for function &#39;mbedtls_hmac_drbg_set_entropy_len(result, a2)&#39;.</text>
<!-- Node0x20677d50 -->
<g id="node1" class="node"><title>Node0x20677d50</title>
<polygon fill="none" stroke="black" points="269.5,-186.5 269.5,-239.5 332.5,-239.5 332.5,-186.5 269.5,-186.5"/>
<text text-anchor="start" x="277.5" y="-224.3" font-family="Times,serif" font-size="14.00">entry:</text>
<text text-anchor="start" x="277.5" y="-209.3" font-family="Times,serif" font-size="14.00"> result</text>
<text text-anchor="start" x="277.5" y="-194.3" font-family="Times,serif" font-size="14.00"> a2</text>
</g>
<!-- Node0x9e7f7d0 -->
<g id="node2" class="node"><title>Node0x9e7f7d0</title>
<polygon fill="none" stroke="black" points="124.5,-96.5 124.5,-149.5 477.5,-149.5 477.5,-96.5 124.5,-96.5"/>
<text text-anchor="start" x="132.5" y="-134.3" font-family="Times,serif" font-size="14.00">0x8061820:</text>
<text text-anchor="start" x="132.5" y="-119.3" font-family="Times,serif" font-size="14.00"> *(IntToPtrCastExpr&lt;ptr&gt;((result + 80))) = a2</text>
<text text-anchor="start" x="132.5" y="-104.3" font-family="Times,serif" font-size="14.00"> return result</text>
</g>
<!-- Node0x20677d50&#45;&gt;Node0x9e7f7d0 -->
<g id="edge1" class="edge"><title>Node0x20677d50&#45;&gt;Node0x9e7f7d0</title>
<path fill="none" stroke="black" d="M301,-186.073C301,-177.838 301,-168.58 301,-159.777"/>
<polygon fill="black" stroke="black" points="304.5,-159.742 301,-149.742 297.5,-159.742 304.5,-159.742"/>
</g>
<!-- Node0x8632ad0 -->
<g id="node3" class="node"><title>Node0x8632ad0</title>
<polygon fill="none" stroke="black" points="274,-23.5 274,-59.5 328,-59.5 328,-23.5 274,-23.5"/>
<text text-anchor="start" x="282" y="-37.8" font-family="Times,serif" font-size="14.00">exit:</text>
</g>
<!-- Node0x9e7f7d0&#45;&gt;Node0x8632ad0 -->
<g id="edge2" class="edge"><title>Node0x9e7f7d0&#45;&gt;Node0x8632ad0</title>
<path fill="none" stroke="black" d="M301,-96.4081C301,-87.9823 301,-78.5803 301,-70.0174"/>
<polygon fill="black" stroke="black" points="304.5,-69.7564 301,-59.7564 297.5,-69.7565 304.5,-69.7564"/>
</g>
</g>
</svg>
