<?xml version="1.0" encoding="UTF-8" standalone="no"?>
<!DOCTYPE svg PUBLIC "-//W3C//DTD SVG 1.1//EN"
 "http://www.w3.org/Graphics/SVG/1.1/DTD/svg11.dtd">
<!-- Generated by graphviz version 2.38.0 (20140413.2041)
 -->
<!-- Title: Control&#45;flow graph for function &#39;rsa_alt_check_pair(a1, a2)&#39;. Pages: 1 -->
<svg width="1199pt" height="1039pt"
 viewBox="0.00 0.00 1199.00 1039.00" xmlns="http://www.w3.org/2000/svg" xmlns:xlink="http://www.w3.org/1999/xlink">
<g id="graph0" class="graph" transform="scale(1 1) rotate(0) translate(4 1035)">
<title>Control&#45;flow graph for function &#39;rsa_alt_check_pair(a1, a2)&#39;.</title>
<polygon fill="white" stroke="none" points="-4,4 -4,-1035 1195,-1035 1195,4 -4,4"/>
<text text-anchor="middle" x="595.5" y="-7.8" font-family="Times,serif" font-size="14.00">Control&#45;flow graph for function &#39;rsa_alt_check_pair(a1, a2)&#39;.</text>
<!-- Node0xe623130 -->
<g id="node1" class="node"><title>Node0xe623130</title>
<polygon fill="none" stroke="black" points="628.5,-977.5 628.5,-1030.5 687.5,-1030.5 687.5,-977.5 628.5,-977.5"/>
<text text-anchor="start" x="636.5" y="-1015.3" font-family="Times,serif" font-size="14.00">entry:</text>
<text text-anchor="start" x="636.5" y="-1000.3" font-family="Times,serif" font-size="14.00"> a1</text>
<text text-anchor="start" x="636.5" y="-985.3" font-family="Times,serif" font-size="14.00"> a2</text>
</g>
<!-- Node0xb64b740 -->
<g id="node2" class="node"><title>Node0xb64b740</title>
<polygon fill="none" stroke="black" points="458.5,-826.5 458.5,-939.5 857.5,-939.5 857.5,-826.5 458.5,-826.5"/>
<text text-anchor="start" x="466.5" y="-924.3" font-family="Times,serif" font-size="14.00">v1 = g3</text>
<text text-anchor="start" x="466.5" y="-909.3" font-family="Times,serif" font-size="14.00"> g3 = a2</text>
<text text-anchor="start" x="466.5" y="-894.3" font-family="Times,serif" font-size="14.00"> v2 = g7</text>
<text text-anchor="start" x="466.5" y="-879.3" font-family="Times,serif" font-size="14.00"> g7 = a1</text>
<text text-anchor="start" x="466.5" y="-864.3" font-family="Times,serif" font-size="14.00"> v3 = 0</text>
<text text-anchor="start" x="466.5" y="-849.3" font-family="Times,serif" font-size="14.00"> v4 = rsa_alt_get_bitlen(IntToPtrCastExpr&lt;ptr&gt;(a2))</text>
<text text-anchor="start" x="466.5" y="-834.3" font-family="Times,serif" font-size="14.00"> result</text>
</g>
<!-- Node0xe623130&#45;&gt;Node0xb64b740 -->
<g id="edge1" class="edge"><title>Node0xe623130&#45;&gt;Node0xb64b740</title>
<path fill="none" stroke="black" d="M658,-977.472C658,-969.26 658,-959.751 658,-950.006"/>
<polygon fill="black" stroke="black" points="661.5,-949.81 658,-939.81 654.5,-949.81 661.5,-949.81"/>
</g>
<!-- Node0x18f29220 -->
<g id="node3" class="node"><title>Node0x18f29220</title>
<polygon fill="none" stroke="black" points="462,-750.5 462,-788.5 854,-788.5 854,-750.5 462,-750.5"/>
<text text-anchor="start" x="470" y="-773.3" font-family="Times,serif" font-size="14.00">if (v4 == (8 * *(IntToPtrCastExpr&lt;ptr&gt;((g7 + 4))))):</text>
<text text-anchor="start" x="470" y="-758.3" font-family="Times,serif" font-size="14.00"> else:</text>
</g>
<!-- Node0xb64b740&#45;&gt;Node0x18f29220 -->
<g id="edge2" class="edge"><title>Node0xb64b740&#45;&gt;Node0x18f29220</title>
<path fill="none" stroke="black" d="M658,-826.25C658,-816.862 658,-807.474 658,-799.151"/>
<polygon fill="black" stroke="black" points="661.5,-798.912 658,-788.912 654.5,-798.912 661.5,-798.912"/>
</g>
<!-- Node0x18f29090 -->
<g id="node4" class="node"><title>Node0x18f29090</title>
<polygon fill="none" stroke="black" points="0,-540.5 0,-698.5 834,-698.5 834,-540.5 0,-540.5"/>
<text text-anchor="start" x="8" y="-683.3" font-family="Times,serif" font-size="14.00">0x804dad8:</text>
<text text-anchor="start" x="8" y="-668.3" font-family="Times,serif" font-size="14.00"> v5</text>
<text text-anchor="start" x="8" y="-653.3" font-family="Times,serif" font-size="14.00"> v6 = &amp;(v5)</text>
<text text-anchor="start" x="8" y="-638.3" font-family="Times,serif" font-size="14.00"> v7 = &amp;(v3)</text>
<text text-anchor="start" x="8" y="-623.3" font-family="Times,serif" font-size="14.00"> v8</text>
<text text-anchor="start" x="8" y="-608.3" font-family="Times,serif" font-size="14.00"> v9 = &amp;(v8)</text>
<text text-anchor="start" x="8" y="-593.3" font-family="Times,serif" font-size="14.00"> g5 = v9</text>
<text text-anchor="start" x="8" y="-578.3" font-family="Times,serif" font-size="14.00"> v8 = 707406378</text>
<text text-anchor="start" x="8" y="-563.3" font-family="Times,serif" font-size="14.00"> v10 = rsa_alt_sign_wrap(IntToPtrCastExpr&lt;ptr&gt;(g3), 0, v9, IntToPtrCastExpr&lt;ptr&gt;(32), v6, v7, 0, 0, 0, 0, 0, v6)</text>
<text text-anchor="start" x="8" y="-548.3" font-family="Times,serif" font-size="14.00"> g3 = v7</text>
</g>
<!-- Node0x18f29220&#45;&gt;Node0x18f29090 -->
<g id="edge3" class="edge"><title>Node0x18f29220&#45;&gt;Node0x18f29090</title>
<path fill="none" stroke="black" d="M529.628,-750.385C516.662,-745.591 504.176,-739.566 493,-732 482.744,-725.057 473.483,-716.226 465.243,-706.584"/>
<polygon fill="black" stroke="black" points="467.869,-704.265 458.854,-698.697 462.429,-708.671 467.869,-704.265"/>
<text text-anchor="middle" x="666.5" y="-720.8" font-family="Times,serif" font-size="14.00">v4 == (8 * *(IntToPtrCastExpr&lt;ptr&gt;((g7 + 4))))</text>
</g>
<!-- Node0xe621400 -->
<g id="node5" class="node"><title>Node0xe621400</title>
<polygon fill="none" stroke="black" points="790,-483.5 790,-521.5 924,-521.5 924,-483.5 790,-483.5"/>
<text text-anchor="start" x="798" y="-506.3" font-family="Times,serif" font-size="14.00">0x804dac1:</text>
<text text-anchor="start" x="798" y="-491.3" font-family="Times,serif" font-size="14.00"> result = &#45;16896</text>
</g>
<!-- Node0x18f29220&#45;&gt;Node0xe621400 -->
<g id="edge4" class="edge"><title>Node0x18f29220&#45;&gt;Node0xe621400</title>
<path fill="none" stroke="black" d="M800.792,-750.422C818.75,-745.598 833.217,-739.553 840,-732 889.917,-676.42 875.746,-579.419 864.652,-531.679"/>
<polygon fill="black" stroke="black" points="867.994,-530.613 862.217,-521.732 861.195,-532.277 867.994,-530.613"/>
<text text-anchor="middle" x="1020.5" y="-720.8" font-family="Times,serif" font-size="14.00">v4 != (8 * *(IntToPtrCastExpr&lt;ptr&gt;((g7 + 4))))</text>
</g>
<!-- Node0x18f29d70 -->
<g id="node6" class="node"><title>Node0x18f29d70</title>
<polygon fill="none" stroke="black" points="384,-428.5 384,-464.5 498,-464.5 498,-428.5 384,-428.5"/>
<text text-anchor="start" x="392" y="-442.8" font-family="Times,serif" font-size="14.00">if (v10 == 0):</text>
</g>
<!-- Node0x18f29090&#45;&gt;Node0x18f29d70 -->
<g id="edge5" class="edge"><title>Node0x18f29090&#45;&gt;Node0x18f29d70</title>
<path fill="none" stroke="black" d="M428.017,-540.007C431.318,-516.484 434.719,-492.249 437.212,-474.489"/>
<polygon fill="black" stroke="black" points="440.678,-474.972 438.602,-464.583 433.746,-473.999 440.678,-474.972"/>
</g>
<!-- Node0x18f29b60 -->
<g id="node7" class="node"><title>Node0x18f29b60</title>
<polygon fill="none" stroke="black" points="740.5,-203.5 740.5,-271.5 853.5,-271.5 853.5,-203.5 740.5,-203.5"/>
<text text-anchor="start" x="748.5" y="-256.3" font-family="Times,serif" font-size="14.00">0x804dac6:</text>
<text text-anchor="start" x="748.5" y="-241.3" font-family="Times,serif" font-size="14.00"> g7 = v2</text>
<text text-anchor="start" x="748.5" y="-226.3" font-family="Times,serif" font-size="14.00"> g3 = v1</text>
<text text-anchor="start" x="748.5" y="-211.3" font-family="Times,serif" font-size="14.00"> return result</text>
</g>
<!-- Node0xe621400&#45;&gt;Node0x18f29b60 -->
<g id="edge6" class="edge"><title>Node0xe621400&#45;&gt;Node0x18f29b60</title>
<path fill="none" stroke="black" d="M855.393,-483.256C852.246,-450.663 844.213,-380.464 829,-323 825.317,-309.089 820.165,-294.297 815.069,-281.043"/>
<polygon fill="black" stroke="black" points="818.31,-279.72 811.39,-271.697 811.796,-282.284 818.31,-279.72"/>
</g>
<!-- Node0xe621590 -->
<g id="node8" class="node"><title>Node0xe621590</title>
<polygon fill="none" stroke="black" points="261,-323.5 261,-376.5 621,-376.5 621,-323.5 261,-323.5"/>
<text text-anchor="start" x="269" y="-361.3" font-family="Times,serif" font-size="14.00">0x804db66:</text>
<text text-anchor="start" x="269" y="-346.3" font-family="Times,serif" font-size="14.00"> if (rsa_verify_wrap(g7, 0, g5, 32, v6, v3) == 0):</text>
<text text-anchor="start" x="269" y="-331.3" font-family="Times,serif" font-size="14.00"> else:</text>
</g>
<!-- Node0x18f29d70&#45;&gt;Node0xe621590 -->
<g id="edge7" class="edge"><title>Node0x18f29d70&#45;&gt;Node0xe621590</title>
<path fill="none" stroke="black" d="M441,-428.167C441,-416.703 441,-401.247 441,-387.178"/>
<polygon fill="black" stroke="black" points="444.5,-386.78 441,-376.78 437.5,-386.78 444.5,-386.78"/>
<text text-anchor="middle" x="475.5" y="-398.8" font-family="Times,serif" font-size="14.00">v10 == 0</text>
</g>
<!-- Node0xb031930 -->
<g id="node9" class="node"><title>Node0xb031930</title>
<polygon fill="none" stroke="black" points="722.5,-332 722.5,-368 819.5,-368 819.5,-332 722.5,-332"/>
<text text-anchor="start" x="730.5" y="-346.3" font-family="Times,serif" font-size="14.00">result = v7</text>
</g>
<!-- Node0x18f29d70&#45;&gt;Node0xb031930 -->
<g id="edge8" class="edge"><title>Node0x18f29d70&#45;&gt;Node0xb031930</title>
<path fill="none" stroke="black" d="M498.105,-429.147C558.13,-411.958 652.079,-385.055 712.59,-367.726"/>
<polygon fill="black" stroke="black" points="713.724,-371.043 722.374,-364.925 711.796,-364.313 713.724,-371.043"/>
<text text-anchor="middle" x="647.5" y="-398.8" font-family="Times,serif" font-size="14.00">v10 != 0</text>
</g>
<!-- Node0xe624540 -->
<g id="node10" class="node"><title>Node0xe624540</title>
<polygon fill="none" stroke="black" points="596,-23.5 596,-59.5 650,-59.5 650,-23.5 596,-23.5"/>
<text text-anchor="start" x="604" y="-37.8" font-family="Times,serif" font-size="14.00">exit:</text>
</g>
<!-- Node0x18f29b60&#45;&gt;Node0xe624540 -->
<g id="edge9" class="edge"><title>Node0x18f29b60&#45;&gt;Node0xe624540</title>
<path fill="none" stroke="black" d="M767.088,-203.15C732.546,-164.637 676.506,-102.156 645.475,-67.5582"/>
<polygon fill="black" stroke="black" points="647.8,-64.909 638.518,-59.8015 642.589,-69.5828 647.8,-64.909"/>
</g>
<!-- Node0x18f2a800 -->
<g id="node11" class="node"><title>Node0x18f2a800</title>
<polygon fill="none" stroke="black" points="193,-218.5 193,-256.5 295,-256.5 295,-218.5 193,-218.5"/>
<text text-anchor="start" x="201" y="-241.3" font-family="Times,serif" font-size="14.00">0x804db66:</text>
<text text-anchor="start" x="201" y="-226.3" font-family="Times,serif" font-size="14.00"> result = g3</text>
</g>
<!-- Node0xe621590&#45;&gt;Node0x18f2a800 -->
<g id="edge10" class="edge"><title>Node0xe621590&#45;&gt;Node0x18f2a800</title>
<path fill="none" stroke="black" d="M260.717,-341.831C207.537,-335.69 158.976,-324.656 142,-305 123.656,-283.759 151.773,-266.664 183.094,-255.127"/>
<polygon fill="black" stroke="black" points="184.574,-258.318 192.87,-251.727 182.275,-251.707 184.574,-258.318"/>
<text text-anchor="middle" x="297" y="-293.8" font-family="Times,serif" font-size="14.00">rsa_verify_wrap(g7, 0, g5, 32, v6, v3) == 0</text>
</g>
<!-- Node0x18f2a8e0 -->
<g id="node12" class="node"><title>Node0x18f2a8e0</title>
<polygon fill="none" stroke="black" points="411,-218.5 411,-256.5 545,-256.5 545,-218.5 411,-218.5"/>
<text text-anchor="start" x="419" y="-241.3" font-family="Times,serif" font-size="14.00">0x804dac1:</text>
<text text-anchor="start" x="419" y="-226.3" font-family="Times,serif" font-size="14.00"> result = &#45;16896</text>
</g>
<!-- Node0xe621590&#45;&gt;Node0x18f2a8e0 -->
<g id="edge11" class="edge"><title>Node0xe621590&#45;&gt;Node0x18f2a8e0</title>
<path fill="none" stroke="black" d="M449.764,-323.42C451.82,-317.383 453.996,-310.967 456,-305 460.252,-292.339 464.905,-278.302 468.832,-266.4"/>
<polygon fill="black" stroke="black" points="472.263,-267.171 472.068,-256.578 465.615,-264.981 472.263,-267.171"/>
<text text-anchor="middle" x="613" y="-293.8" font-family="Times,serif" font-size="14.00">rsa_verify_wrap(g7, 0, g5, 32, v6, v3) != 0</text>
</g>
<!-- Node0xb031930&#45;&gt;Node0x18f29b60 -->
<g id="edge12" class="edge"><title>Node0xb031930&#45;&gt;Node0x18f29b60</title>
<path fill="none" stroke="black" d="M775.907,-331.926C778.179,-323.799 780.845,-313.928 783,-305 784.81,-297.504 786.608,-289.501 788.282,-281.738"/>
<polygon fill="black" stroke="black" points="791.753,-282.244 790.403,-271.735 784.905,-280.792 791.753,-282.244"/>
</g>
<!-- Node0x18f2a540 -->
<g id="node13" class="node"><title>Node0x18f2a540</title>
<polygon fill="none" stroke="black" points="421.5,-97.5 421.5,-165.5 534.5,-165.5 534.5,-97.5 421.5,-97.5"/>
<text text-anchor="start" x="429.5" y="-150.3" font-family="Times,serif" font-size="14.00">0x804dac6:</text>
<text text-anchor="start" x="429.5" y="-135.3" font-family="Times,serif" font-size="14.00"> g7 = v2</text>
<text text-anchor="start" x="429.5" y="-120.3" font-family="Times,serif" font-size="14.00"> g3 = v1</text>
<text text-anchor="start" x="429.5" y="-105.3" font-family="Times,serif" font-size="14.00"> return result</text>
</g>
<!-- Node0x18f2a800&#45;&gt;Node0x18f2a540 -->
<g id="edge13" class="edge"><title>Node0x18f2a800&#45;&gt;Node0x18f2a540</title>
<path fill="none" stroke="black" d="M284.76,-218.385C319.867,-202.781 371.197,-179.968 412.131,-161.775"/>
<polygon fill="black" stroke="black" points="413.778,-164.873 421.495,-157.613 410.935,-158.476 413.778,-164.873"/>
</g>
<!-- Node0x18f2a8e0&#45;&gt;Node0x18f2a540 -->
<g id="edge14" class="edge"><title>Node0x18f2a8e0&#45;&gt;Node0x18f2a540</title>
<path fill="none" stroke="black" d="M478,-218.385C478,-206.563 478,-190.604 478,-175.651"/>
<polygon fill="black" stroke="black" points="481.5,-175.522 478,-165.522 474.5,-175.522 481.5,-175.522"/>
</g>
<!-- Node0x18f2a540&#45;&gt;Node0xe624540 -->
<g id="edge15" class="edge"><title>Node0x18f2a540&#45;&gt;Node0xe624540</title>
<path fill="none" stroke="black" d="M532.405,-97.4817C550.712,-86.3712 570.664,-74.2627 587.172,-64.244"/>
<polygon fill="black" stroke="black" points="589.223,-67.093 595.956,-58.9127 585.592,-61.1089 589.223,-67.093"/>
</g>
</g>
</svg>
