<?xml version="1.0" encoding="UTF-8" standalone="no"?>
<!DOCTYPE svg PUBLIC "-//W3C//DTD SVG 1.1//EN"
 "http://www.w3.org/Graphics/SVG/1.1/DTD/svg11.dtd">
<!-- Generated by graphviz version 2.38.0 (20140413.2041)
 -->
<!-- Title: Control&#45;flow graph for function &#39;sha224_process_wrap(a1)&#39;. Pages: 1 -->
<svg width="450pt" height="278pt"
 viewBox="0.00 0.00 450.00 278.00" xmlns="http://www.w3.org/2000/svg" xmlns:xlink="http://www.w3.org/1999/xlink">
<g id="graph0" class="graph" transform="scale(1 1) rotate(0) translate(4 274)">
<title>Control&#45;flow graph for function &#39;sha224_process_wrap(a1)&#39;.</title>
<polygon fill="white" stroke="none" points="-4,4 -4,-274 446,-274 446,4 -4,4"/>
<text text-anchor="middle" x="221" y="-7.8" font-family="Times,serif" font-size="14.00">Control&#45;flow graph for function &#39;sha224_process_wrap(a1)&#39;.</text>
<!-- Node0x15ae6b30 -->
<g id="node1" class="node"><title>Node0x15ae6b30</title>
<polygon fill="none" stroke="black" points="191.5,-231.5 191.5,-269.5 250.5,-269.5 250.5,-231.5 191.5,-231.5"/>
<text text-anchor="start" x="199.5" y="-254.3" font-family="Times,serif" font-size="14.00">entry:</text>
<text text-anchor="start" x="199.5" y="-239.3" font-family="Times,serif" font-size="14.00"> a1</text>
</g>
<!-- Node0x15ae7150 -->
<g id="node2" class="node"><title>Node0x15ae7150</title>
<polygon fill="none" stroke="black" points="93.5,-96.5 93.5,-194.5 348.5,-194.5 348.5,-96.5 93.5,-96.5"/>
<text text-anchor="start" x="101.5" y="-179.3" font-family="Times,serif" font-size="14.00">0x8062c40:</text>
<text text-anchor="start" x="101.5" y="-164.3" font-family="Times,serif" font-size="14.00"> v1</text>
<text text-anchor="start" x="101.5" y="-149.3" font-family="Times,serif" font-size="14.00"> v2</text>
<text text-anchor="start" x="101.5" y="-134.3" font-family="Times,serif" font-size="14.00"> mbedtls_sha256_process(v2, v1)</text>
<text text-anchor="start" x="101.5" y="-119.3" font-family="Times,serif" font-size="14.00"> g1 = 8</text>
<text text-anchor="start" x="101.5" y="-104.3" font-family="Times,serif" font-size="14.00"> return 8</text>
</g>
<!-- Node0x15ae6b30&#45;&gt;Node0x15ae7150 -->
<g id="edge1" class="edge"><title>Node0x15ae6b30&#45;&gt;Node0x15ae7150</title>
<path fill="none" stroke="black" d="M221,-231.086C221,-223.607 221,-214.513 221,-205.097"/>
<polygon fill="black" stroke="black" points="224.5,-204.814 221,-194.814 217.5,-204.815 224.5,-204.814"/>
</g>
<!-- Node0x15ae70d0 -->
<g id="node3" class="node"><title>Node0x15ae70d0</title>
<polygon fill="none" stroke="black" points="194,-23.5 194,-59.5 248,-59.5 248,-23.5 194,-23.5"/>
<text text-anchor="start" x="202" y="-37.8" font-family="Times,serif" font-size="14.00">exit:</text>
</g>
<!-- Node0x15ae7150&#45;&gt;Node0x15ae70d0 -->
<g id="edge2" class="edge"><title>Node0x15ae7150&#45;&gt;Node0x15ae70d0</title>
<path fill="none" stroke="black" d="M221,-96.4868C221,-87.2893 221,-77.9618 221,-69.7064"/>
<polygon fill="black" stroke="black" points="224.5,-69.5725 221,-59.5725 217.5,-69.5725 224.5,-69.5725"/>
</g>
</g>
</svg>
