<?xml version="1.0" encoding="UTF-8" standalone="no"?>
<!DOCTYPE svg PUBLIC "-//W3C//DTD SVG 1.1//EN"
 "http://www.w3.org/Graphics/SVG/1.1/DTD/svg11.dtd">
<!-- Generated by graphviz version 2.38.0 (20140413.2041)
 -->
<!-- Title: Control&#45;flow graph for function &#39;mbedtls_ecdsa_write_signature(*a1, a2, a3, a4, a5, *a6)&#39;. Pages: 1 -->
<svg width="1289pt" height="1833pt"
 viewBox="0.00 0.00 1289.00 1833.00" xmlns="http://www.w3.org/2000/svg" xmlns:xlink="http://www.w3.org/1999/xlink">
<g id="graph0" class="graph" transform="scale(1 1) rotate(0) translate(4 1829)">
<title>Control&#45;flow graph for function &#39;mbedtls_ecdsa_write_signature(*a1, a2, a3, a4, a5, *a6)&#39;.</title>
<polygon fill="white" stroke="none" points="-4,4 -4,-1829 1285,-1829 1285,4 -4,4"/>
<text text-anchor="middle" x="640.5" y="-7.8" font-family="Times,serif" font-size="14.00">Control&#45;flow graph for function &#39;mbedtls_ecdsa_write_signature(*a1, a2, a3, a4, a5, *a6)&#39;.</text>
<!-- Node0x1c77e7e0 -->
<g id="node1" class="node"><title>Node0x1c77e7e0</title>
<polygon fill="none" stroke="black" points="274,-1711.5 274,-1824.5 333,-1824.5 333,-1711.5 274,-1711.5"/>
<text text-anchor="start" x="282" y="-1809.3" font-family="Times,serif" font-size="14.00">entry:</text>
<text text-anchor="start" x="282" y="-1794.3" font-family="Times,serif" font-size="14.00"> a1</text>
<text text-anchor="start" x="282" y="-1779.3" font-family="Times,serif" font-size="14.00"> a2</text>
<text text-anchor="start" x="282" y="-1764.3" font-family="Times,serif" font-size="14.00"> a3</text>
<text text-anchor="start" x="282" y="-1749.3" font-family="Times,serif" font-size="14.00"> a4</text>
<text text-anchor="start" x="282" y="-1734.3" font-family="Times,serif" font-size="14.00"> a5</text>
<text text-anchor="start" x="282" y="-1719.3" font-family="Times,serif" font-size="14.00"> a6</text>
</g>
<!-- Node0xb21cb50 -->
<g id="node2" class="node"><title>Node0xb21cb50</title>
<polygon fill="none" stroke="black" points="51.5,-1470.5 51.5,-1673.5 555.5,-1673.5 555.5,-1470.5 51.5,-1470.5"/>
<text text-anchor="start" x="59.5" y="-1658.3" font-family="Times,serif" font-size="14.00">v1 = g3</text>
<text text-anchor="start" x="59.5" y="-1643.3" font-family="Times,serif" font-size="14.00"> v2</text>
<text text-anchor="start" x="59.5" y="-1628.3" font-family="Times,serif" font-size="14.00"> g3 = &amp;(v2)</text>
<text text-anchor="start" x="59.5" y="-1613.3" font-family="Times,serif" font-size="14.00"> v3 = g7</text>
<text text-anchor="start" x="59.5" y="-1598.3" font-family="Times,serif" font-size="14.00"> v4</text>
<text text-anchor="start" x="59.5" y="-1583.3" font-family="Times,serif" font-size="14.00"> g7 = &amp;(v4)</text>
<text text-anchor="start" x="59.5" y="-1568.3" font-family="Times,serif" font-size="14.00"> v5 = g5</text>
<text text-anchor="start" x="59.5" y="-1553.3" font-family="Times,serif" font-size="14.00"> g5 = PtrToIntCastExpr&lt;int32&gt;(a1)</text>
<text text-anchor="start" x="59.5" y="-1538.3" font-family="Times,serif" font-size="14.00"> mbedtls_mpi_init(&amp;(v4))</text>
<text text-anchor="start" x="59.5" y="-1523.3" font-family="Times,serif" font-size="14.00"> mbedtls_mpi_init(IntToPtrCastExpr&lt;ptr&gt;(g3))</text>
<text text-anchor="start" x="59.5" y="-1508.3" font-family="Times,serif" font-size="14.00"> v6 = g5</text>
<text text-anchor="start" x="59.5" y="-1493.3" font-family="Times,serif" font-size="14.00"> result = mbedtls_ecdsa_sign_det(v6, g7, g3, (v6 + 124), a3, a4, a2)</text>
<text text-anchor="start" x="59.5" y="-1478.3" font-family="Times,serif" font-size="14.00"> g1 = result</text>
</g>
<!-- Node0x1c77e7e0&#45;&gt;Node0xb21cb50 -->
<g id="edge1" class="edge"><title>Node0x1c77e7e0&#45;&gt;Node0xb21cb50</title>
<path fill="none" stroke="black" d="M303.5,-1711.41C303.5,-1702.6 303.5,-1693.23 303.5,-1683.68"/>
<polygon fill="black" stroke="black" points="307,-1683.68 303.5,-1673.68 300,-1683.68 307,-1683.68"/>
</g>
<!-- Node0x14673a80 -->
<g id="node3" class="node"><title>Node0x14673a80</title>
<polygon fill="none" stroke="black" points="241.5,-1396.5 241.5,-1432.5 365.5,-1432.5 365.5,-1396.5 241.5,-1396.5"/>
<text text-anchor="start" x="249.5" y="-1410.8" font-family="Times,serif" font-size="14.00">if (result != 0):</text>
</g>
<!-- Node0xb21cb50&#45;&gt;Node0x14673a80 -->
<g id="edge2" class="edge"><title>Node0xb21cb50&#45;&gt;Node0x14673a80</title>
<path fill="none" stroke="black" d="M303.5,-1470.32C303.5,-1460.37 303.5,-1450.96 303.5,-1442.85"/>
<polygon fill="black" stroke="black" points="307,-1442.65 303.5,-1432.65 300,-1442.65 307,-1442.65"/>
</g>
<!-- Node0x1c780390 -->
<g id="node4" class="node"><title>Node0x1c780390</title>
<polygon fill="none" stroke="black" points="0,-1084.5 0,-1197.5 401,-1197.5 401,-1084.5 0,-1084.5"/>
<text text-anchor="start" x="8" y="-1182.3" font-family="Times,serif" font-size="14.00">0x805b9fb:</text>
<text text-anchor="start" x="8" y="-1167.3" font-family="Times,serif" font-size="14.00"> g1 = mbedtls_mpi_free(IntToPtrCastExpr&lt;ptr&gt;(g7))</text>
<text text-anchor="start" x="8" y="-1152.3" font-family="Times,serif" font-size="14.00"> mbedtls_mpi_free(IntToPtrCastExpr&lt;ptr&gt;(g3))</text>
<text text-anchor="start" x="8" y="-1137.3" font-family="Times,serif" font-size="14.00"> g3 = v1</text>
<text text-anchor="start" x="8" y="-1122.3" font-family="Times,serif" font-size="14.00"> g7 = v3</text>
<text text-anchor="start" x="8" y="-1107.3" font-family="Times,serif" font-size="14.00"> g5 = v5</text>
<text text-anchor="start" x="8" y="-1092.3" font-family="Times,serif" font-size="14.00"> return result</text>
</g>
<!-- Node0x14673a80&#45;&gt;Node0x1c780390 -->
<g id="edge3" class="edge"><title>Node0x14673a80&#45;&gt;Node0x1c780390</title>
<path fill="none" stroke="black" d="M271.696,-1396.28C253.158,-1384.44 231.19,-1366.92 219.5,-1345 197.184,-1303.16 193.02,-1249.53 194.122,-1207.9"/>
<polygon fill="black" stroke="black" points="197.621,-1207.98 194.495,-1197.86 190.626,-1207.72 197.621,-1207.98"/>
<text text-anchor="middle" x="286" y="-1366.8" font-family="Times,serif" font-size="14.00">result != 0</text>
</g>
<!-- Node0x1c77f4e0 -->
<g id="node5" class="node"><title>Node0x1c77f4e0</title>
<polygon fill="none" stroke="black" points="228.5,-1216.5 228.5,-1344.5 796.5,-1344.5 796.5,-1216.5 228.5,-1216.5"/>
<text text-anchor="start" x="236.5" y="-1329.3" font-family="Times,serif" font-size="14.00">0x805ba28:</text>
<text text-anchor="start" x="236.5" y="-1314.3" font-family="Times,serif" font-size="14.00"> v7</text>
<text text-anchor="start" x="236.5" y="-1299.3" font-family="Times,serif" font-size="14.00"> v8 = &amp;(v7)</text>
<text text-anchor="start" x="236.5" y="-1284.3" font-family="Times,serif" font-size="14.00"> v9 = g3</text>
<text text-anchor="start" x="236.5" y="-1269.3" font-family="Times,serif" font-size="14.00"> v10 = v9</text>
<text text-anchor="start" x="236.5" y="-1254.3" font-family="Times,serif" font-size="14.00"> result2 = mbedtls_asn1_write_mpi(&amp;(v10), v8, IntToPtrCastExpr&lt;ptr&gt;(v9))</text>
<text text-anchor="start" x="236.5" y="-1239.3" font-family="Times,serif" font-size="14.00"> g1 = result2</text>
<text text-anchor="start" x="236.5" y="-1224.3" font-family="Times,serif" font-size="14.00"> g5 = &amp;(v10)</text>
</g>
<!-- Node0x14673a80&#45;&gt;Node0x1c77f4e0 -->
<g id="edge4" class="edge"><title>Node0x14673a80&#45;&gt;Node0x1c77f4e0</title>
<path fill="none" stroke="black" d="M330.823,-1396.24C349.976,-1384.15 376.943,-1367.12 404.252,-1349.87"/>
<polygon fill="black" stroke="black" points="406.144,-1352.81 412.73,-1344.51 402.406,-1346.89 406.144,-1352.81"/>
<text text-anchor="middle" x="426" y="-1366.8" font-family="Times,serif" font-size="14.00">result == 0</text>
</g>
<!-- Node0xde7cda0 -->
<g id="node6" class="node"><title>Node0xde7cda0</title>
<polygon fill="none" stroke="black" points="318.5,-23.5 318.5,-59.5 372.5,-59.5 372.5,-23.5 318.5,-23.5"/>
<text text-anchor="start" x="326.5" y="-37.8" font-family="Times,serif" font-size="14.00">exit:</text>
</g>
<!-- Node0x1c780390&#45;&gt;Node0xde7cda0 -->
<g id="edge5" class="edge"><title>Node0x1c780390&#45;&gt;Node0xde7cda0</title>
<path fill="none" stroke="black" d="M200.5,-1084.29C200.5,-1059.82 200.5,-1030.73 200.5,-1004.5 200.5,-1004.5 200.5,-1004.5 200.5,-153 200.5,-98.6784 265.675,-67.5272 308.634,-52.8945"/>
<polygon fill="black" stroke="black" points="309.801,-56.1954 318.227,-49.7726 307.634,-49.539 309.801,-56.1954"/>
</g>
<!-- Node0x1c77f280 -->
<g id="node7" class="node"><title>Node0x1c77f280</title>
<polygon fill="none" stroke="black" points="432.5,-1029.5 432.5,-1065.5 592.5,-1065.5 592.5,-1029.5 432.5,-1029.5"/>
<text text-anchor="start" x="440.5" y="-1043.8" font-family="Times,serif" font-size="14.00">if (&amp;(v10) &lt; NULL):</text>
</g>
<!-- Node0x1c77f4e0&#45;&gt;Node0x1c77f280 -->
<g id="edge6" class="edge"><title>Node0x1c77f4e0&#45;&gt;Node0x1c77f280</title>
<path fill="none" stroke="black" d="M512.5,-1216.38C512.5,-1170.33 512.5,-1110.2 512.5,-1075.81"/>
<polygon fill="black" stroke="black" points="516,-1075.6 512.5,-1065.6 509,-1075.6 516,-1075.6"/>
</g>
<!-- Node0x1c7804a0 -->
<g id="node8" class="node"><title>Node0x1c7804a0</title>
<polygon fill="none" stroke="black" points="215,-807.5 215,-920.5 616,-920.5 616,-807.5 215,-807.5"/>
<text text-anchor="start" x="223" y="-905.3" font-family="Times,serif" font-size="14.00">0x805b9fb:</text>
<text text-anchor="start" x="223" y="-890.3" font-family="Times,serif" font-size="14.00"> g1 = mbedtls_mpi_free(IntToPtrCastExpr&lt;ptr&gt;(g7))</text>
<text text-anchor="start" x="223" y="-875.3" font-family="Times,serif" font-size="14.00"> mbedtls_mpi_free(IntToPtrCastExpr&lt;ptr&gt;(g3))</text>
<text text-anchor="start" x="223" y="-860.3" font-family="Times,serif" font-size="14.00"> g3 = v1</text>
<text text-anchor="start" x="223" y="-845.3" font-family="Times,serif" font-size="14.00"> g7 = v3</text>
<text text-anchor="start" x="223" y="-830.3" font-family="Times,serif" font-size="14.00"> g5 = v5</text>
<text text-anchor="start" x="223" y="-815.3" font-family="Times,serif" font-size="14.00"> return result2</text>
</g>
<!-- Node0x1c77f280&#45;&gt;Node0x1c7804a0 -->
<g id="edge7" class="edge"><title>Node0x1c77f280&#45;&gt;Node0x1c7804a0</title>
<path fill="none" stroke="black" d="M484.633,-1029.3C467.386,-1017.14 446.343,-999.253 434.5,-978 426.521,-963.681 421.71,-946.873 418.855,-930.662"/>
<polygon fill="black" stroke="black" points="422.298,-930.024 417.318,-920.672 415.379,-931.088 422.298,-930.024"/>
<text text-anchor="middle" x="519" y="-999.8" font-family="Times,serif" font-size="14.00">&amp;(v10) &lt; NULL</text>
</g>
<!-- Node0x1c77faf0 -->
<g id="node9" class="node"><title>Node0x1c77faf0</title>
<polygon fill="none" stroke="black" points="443.5,-939.5 443.5,-977.5 1007.5,-977.5 1007.5,-939.5 443.5,-939.5"/>
<text text-anchor="start" x="451.5" y="-962.3" font-family="Times,serif" font-size="14.00">result3 = mbedtls_asn1_write_mpi(&amp;(v10), v8, IntToPtrCastExpr&lt;ptr&gt;(g7))</text>
<text text-anchor="start" x="451.5" y="-947.3" font-family="Times,serif" font-size="14.00"> g1 = result3</text>
</g>
<!-- Node0x1c77f280&#45;&gt;Node0x1c77faf0 -->
<g id="edge8" class="edge"><title>Node0x1c77f280&#45;&gt;Node0x1c77faf0</title>
<path fill="none" stroke="black" d="M554.328,-1029.42C587.915,-1015.7 635.314,-996.337 671.721,-981.466"/>
<polygon fill="black" stroke="black" points="673.265,-984.616 681.2,-977.595 670.619,-978.136 673.265,-984.616"/>
<text text-anchor="middle" x="696" y="-999.8" font-family="Times,serif" font-size="14.00">&amp;(v10) &gt;= NULL</text>
</g>
<!-- Node0x1c7804a0&#45;&gt;Node0xde7cda0 -->
<g id="edge9" class="edge"><title>Node0x1c7804a0&#45;&gt;Node0xde7cda0</title>
<path fill="none" stroke="black" d="M358.631,-807.376C341.188,-784.622 326.5,-756.771 326.5,-727.5 326.5,-727.5 326.5,-727.5 326.5,-153 326.5,-124.097 332.892,-91.5478 338.261,-69.306"/>
<polygon fill="black" stroke="black" points="341.665,-70.1209 340.705,-59.5696 334.876,-68.4163 341.665,-70.1209"/>
</g>
<!-- Node0x1c77fb50 -->
<g id="node10" class="node"><title>Node0x1c77fb50</title>
<polygon fill="none" stroke="black" points="662,-752.5 662,-788.5 789,-788.5 789,-752.5 662,-752.5"/>
<text text-anchor="start" x="670" y="-766.8" font-family="Times,serif" font-size="14.00">if (result3 &lt; 0):</text>
</g>
<!-- Node0x1c77faf0&#45;&gt;Node0x1c77fb50 -->
<g id="edge10" class="edge"><title>Node0x1c77faf0&#45;&gt;Node0x1c77fb50</title>
<path fill="none" stroke="black" d="M725.5,-939.327C725.5,-906.63 725.5,-837.708 725.5,-799.134"/>
<polygon fill="black" stroke="black" points="729,-798.662 725.5,-788.662 722,-798.662 729,-798.662"/>
</g>
<!-- Node0x1c77f5d0 -->
<g id="node11" class="node"><title>Node0x1c77f5d0</title>
<polygon fill="none" stroke="black" points="341,-470.5 341,-583.5 742,-583.5 742,-470.5 341,-470.5"/>
<text text-anchor="start" x="349" y="-568.3" font-family="Times,serif" font-size="14.00">0x805b9fb:</text>
<text text-anchor="start" x="349" y="-553.3" font-family="Times,serif" font-size="14.00"> g1 = mbedtls_mpi_free(IntToPtrCastExpr&lt;ptr&gt;(g7))</text>
<text text-anchor="start" x="349" y="-538.3" font-family="Times,serif" font-size="14.00"> mbedtls_mpi_free(IntToPtrCastExpr&lt;ptr&gt;(g3))</text>
<text text-anchor="start" x="349" y="-523.3" font-family="Times,serif" font-size="14.00"> g3 = v1</text>
<text text-anchor="start" x="349" y="-508.3" font-family="Times,serif" font-size="14.00"> g7 = v3</text>
<text text-anchor="start" x="349" y="-493.3" font-family="Times,serif" font-size="14.00"> g5 = v5</text>
<text text-anchor="start" x="349" y="-478.3" font-family="Times,serif" font-size="14.00"> return result3</text>
</g>
<!-- Node0x1c77fb50&#45;&gt;Node0x1c77f5d0 -->
<g id="edge11" class="edge"><title>Node0x1c77fb50&#45;&gt;Node0x1c77f5d0</title>
<path fill="none" stroke="black" d="M661.688,-759.287C626.211,-750.156 584.502,-733.013 560.5,-701 537.817,-670.746 532.77,-628.728 533.538,-593.678"/>
<polygon fill="black" stroke="black" points="537.042,-593.646 533.924,-583.521 530.047,-593.38 537.042,-593.646"/>
<text text-anchor="middle" x="637.5" y="-722.8" font-family="Times,serif" font-size="14.00">result3 &lt; 0</text>
</g>
<!-- Node0x1c77fe00 -->
<g id="node12" class="node"><title>Node0x1c77fe00</title>
<polygon fill="none" stroke="black" points="570,-602.5 570,-700.5 1281,-700.5 1281,-602.5 570,-602.5"/>
<text text-anchor="start" x="578" y="-685.3" font-family="Times,serif" font-size="14.00">0x805ba92:</text>
<text text-anchor="start" x="578" y="-670.3" font-family="Times,serif" font-size="14.00"> v11</text>
<text text-anchor="start" x="578" y="-655.3" font-family="Times,serif" font-size="14.00"> mbedtls_asn1_write_len(&amp;(v10), v8, TruncCastExpr&lt;int8&gt;(PtrToIntCastExpr&lt;int32&gt;(&amp;(v11))))</text>
<text text-anchor="start" x="578" y="-640.3" font-family="Times,serif" font-size="14.00"> v12 = mbedtls_asn1_write_tag(&amp;(v10), v8, 48)</text>
<text text-anchor="start" x="578" y="-625.3" font-family="Times,serif" font-size="14.00"> g1 = v12</text>
<text text-anchor="start" x="578" y="-610.3" font-family="Times,serif" font-size="14.00"> result4</text>
</g>
<!-- Node0x1c77fb50&#45;&gt;Node0x1c77fe00 -->
<g id="edge12" class="edge"><title>Node0x1c77fb50&#45;&gt;Node0x1c77fe00</title>
<path fill="none" stroke="black" d="M754.582,-752.487C775.691,-740.138 805.486,-722.708 834.3,-705.852"/>
<polygon fill="black" stroke="black" points="836.335,-708.716 843.2,-700.646 832.801,-702.674 836.335,-708.716"/>
<text text-anchor="middle" x="854.5" y="-722.8" font-family="Times,serif" font-size="14.00">result3 &gt;= 0</text>
</g>
<!-- Node0x1c77f5d0&#45;&gt;Node0xde7cda0 -->
<g id="edge13" class="edge"><title>Node0x1c77f5d0&#45;&gt;Node0xde7cda0</title>
<path fill="none" stroke="black" d="M412.866,-470.313C385.415,-449.691 364.5,-422.742 364.5,-388.5 364.5,-388.5 364.5,-388.5 364.5,-153 364.5,-124.097 358.108,-91.5478 352.739,-69.306"/>
<polygon fill="black" stroke="black" points="356.124,-68.4163 350.295,-59.5696 349.335,-70.1209 356.124,-68.4163"/>
</g>
<!-- Node0x2657ac90 -->
<g id="node13" class="node"><title>Node0x2657ac90</title>
<polygon fill="none" stroke="black" points="868.5,-413.5 868.5,-451.5 982.5,-451.5 982.5,-413.5 868.5,-413.5"/>
<text text-anchor="start" x="876.5" y="-436.3" font-family="Times,serif" font-size="14.00">if (v12 &gt;= 0):</text>
<text text-anchor="start" x="876.5" y="-421.3" font-family="Times,serif" font-size="14.00"> else:</text>
</g>
<!-- Node0x1c77fe00&#45;&gt;Node0x2657ac90 -->
<g id="edge14" class="edge"><title>Node0x1c77fe00&#45;&gt;Node0x2657ac90</title>
<path fill="none" stroke="black" d="M925.5,-602.341C925.5,-559.228 925.5,-497.477 925.5,-461.834"/>
<polygon fill="black" stroke="black" points="929,-461.66 925.5,-451.66 922,-461.66 929,-461.66"/>
</g>
<!-- Node0x1c780950 -->
<g id="node14" class="node"><title>Node0x1c780950</title>
<polygon fill="none" stroke="black" points="393,-248.5 393,-361.5 916,-361.5 916,-248.5 393,-248.5"/>
<text text-anchor="start" x="401" y="-346.3" font-family="Times,serif" font-size="14.00">0x805bab7:</text>
<text text-anchor="start" x="401" y="-331.3" font-family="Times,serif" font-size="14.00"> v13</text>
<text text-anchor="start" x="401" y="-316.3" font-family="Times,serif" font-size="14.00"> v14 = &amp;(v13)</text>
<text text-anchor="start" x="401" y="-301.3" font-family="Times,serif" font-size="14.00"> memcpy(IntToPtrCastExpr&lt;ptr&gt;(a5), BitCastExpr&lt;ptr&gt;(&amp;(v2)), v14)</text>
<text text-anchor="start" x="401" y="-286.3" font-family="Times,serif" font-size="14.00"> *(a6) = v14</text>
<text text-anchor="start" x="401" y="-271.3" font-family="Times,serif" font-size="14.00"> g1 = 0</text>
<text text-anchor="start" x="401" y="-256.3" font-family="Times,serif" font-size="14.00"> result4 = 0</text>
</g>
<!-- Node0x2657ac90&#45;&gt;Node0x1c780950 -->
<g id="edge15" class="edge"><title>Node0x2657ac90&#45;&gt;Node0x1c780950</title>
<path fill="none" stroke="black" d="M886.384,-413.385C859.223,-400.807 821.35,-383.268 784.076,-366.007"/>
<polygon fill="black" stroke="black" points="785.165,-362.654 774.62,-361.627 782.223,-369.006 785.165,-362.654"/>
<text text-anchor="middle" x="879" y="-383.8" font-family="Times,serif" font-size="14.00">v12 &gt;= 0</text>
</g>
<!-- Node0x1c780a60 -->
<g id="node15" class="node"><title>Node0x1c780a60</title>
<polygon fill="none" stroke="black" points="934,-287 934,-323 1049,-323 1049,-287 934,-287"/>
<text text-anchor="start" x="942" y="-301.3" font-family="Times,serif" font-size="14.00">result4 = v12</text>
</g>
<!-- Node0x2657ac90&#45;&gt;Node0x1c780a60 -->
<g id="edge16" class="edge"><title>Node0x2657ac90&#45;&gt;Node0x1c780a60</title>
<path fill="none" stroke="black" d="M935.097,-413.251C946.333,-391.886 965.027,-356.339 977.79,-332.071"/>
<polygon fill="black" stroke="black" points="980.97,-333.542 982.527,-323.062 974.775,-330.284 980.97,-333.542"/>
<text text-anchor="middle" x="979" y="-383.8" font-family="Times,serif" font-size="14.00">v12 &lt; 0</text>
</g>
<!-- Node0x1c780010 -->
<g id="node16" class="node"><title>Node0x1c780010</title>
<polygon fill="none" stroke="black" points="454,-97.5 454,-210.5 855,-210.5 855,-97.5 454,-97.5"/>
<text text-anchor="start" x="462" y="-195.3" font-family="Times,serif" font-size="14.00">0x805b9fb:</text>
<text text-anchor="start" x="462" y="-180.3" font-family="Times,serif" font-size="14.00"> g1 = mbedtls_mpi_free(IntToPtrCastExpr&lt;ptr&gt;(g7))</text>
<text text-anchor="start" x="462" y="-165.3" font-family="Times,serif" font-size="14.00"> mbedtls_mpi_free(IntToPtrCastExpr&lt;ptr&gt;(g3))</text>
<text text-anchor="start" x="462" y="-150.3" font-family="Times,serif" font-size="14.00"> g3 = v1</text>
<text text-anchor="start" x="462" y="-135.3" font-family="Times,serif" font-size="14.00"> g7 = v3</text>
<text text-anchor="start" x="462" y="-120.3" font-family="Times,serif" font-size="14.00"> g5 = v5</text>
<text text-anchor="start" x="462" y="-105.3" font-family="Times,serif" font-size="14.00"> return result4</text>
</g>
<!-- Node0x1c780950&#45;&gt;Node0x1c780010 -->
<g id="edge17" class="edge"><title>Node0x1c780950&#45;&gt;Node0x1c780010</title>
<path fill="none" stroke="black" d="M654.5,-248.094C654.5,-239.214 654.5,-229.958 654.5,-220.876"/>
<polygon fill="black" stroke="black" points="658,-220.724 654.5,-210.724 651,-220.724 658,-220.724"/>
</g>
<!-- Node0x1c780a60&#45;&gt;Node0x1c780010 -->
<g id="edge18" class="edge"><title>Node0x1c780a60&#45;&gt;Node0x1c780010</title>
<path fill="none" stroke="black" d="M974.927,-286.851C962.327,-274.625 944.049,-258.549 925.5,-248 903.454,-235.462 879.44,-224.23 855.117,-214.28"/>
<polygon fill="black" stroke="black" points="856.366,-211.01 845.783,-210.529 853.756,-217.505 856.366,-211.01"/>
</g>
<!-- Node0x1c780010&#45;&gt;Node0xde7cda0 -->
<g id="edge19" class="edge"><title>Node0x1c780010&#45;&gt;Node0xde7cda0</title>
<path fill="none" stroke="black" d="M499.095,-97.4263C455.347,-81.7819 411.696,-66.1721 382.173,-55.6145"/>
<polygon fill="black" stroke="black" points="383.317,-52.3067 372.723,-52.235 380.96,-58.8979 383.317,-52.3067"/>
</g>
</g>
</svg>
