<?xml version="1.0" encoding="UTF-8" standalone="no"?>
<!DOCTYPE svg PUBLIC "-//W3C//DTD SVG 1.1//EN"
 "http://www.w3.org/Graphics/SVG/1.1/DTD/svg11.dtd">
<!-- Generated by graphviz version 2.38.0 (20140413.2041)
 -->
<!-- Title: Control&#45;flow graph for function &#39;mbedtls_timing_set_delay(result, a2, a3, a4)&#39;. Pages: 1 -->
<svg width="672pt" height="504pt"
 viewBox="0.00 0.00 671.50 504.00" xmlns="http://www.w3.org/2000/svg" xmlns:xlink="http://www.w3.org/1999/xlink">
<g id="graph0" class="graph" transform="scale(1 1) rotate(0) translate(4 500)">
<title>Control&#45;flow graph for function &#39;mbedtls_timing_set_delay(result, a2, a3, a4)&#39;.</title>
<polygon fill="white" stroke="none" points="-4,4 -4,-500 667.5,-500 667.5,4 -4,4"/>
<text text-anchor="middle" x="331.75" y="-7.8" font-family="Times,serif" font-size="14.00">Control&#45;flow graph for function &#39;mbedtls_timing_set_delay(result, a2, a3, a4)&#39;.</text>
<!-- Node0x27b8dff0 -->
<g id="node1" class="node"><title>Node0x27b8dff0</title>
<polygon fill="none" stroke="black" points="195,-412.5 195,-495.5 258,-495.5 258,-412.5 195,-412.5"/>
<text text-anchor="start" x="203" y="-480.3" font-family="Times,serif" font-size="14.00">entry:</text>
<text text-anchor="start" x="203" y="-465.3" font-family="Times,serif" font-size="14.00"> result</text>
<text text-anchor="start" x="203" y="-450.3" font-family="Times,serif" font-size="14.00"> a2</text>
<text text-anchor="start" x="203" y="-435.3" font-family="Times,serif" font-size="14.00"> a3</text>
<text text-anchor="start" x="203" y="-420.3" font-family="Times,serif" font-size="14.00"> a4</text>
</g>
<!-- Node0x27b8fd90 -->
<g id="node2" class="node"><title>Node0x27b8fd90</title>
<polygon fill="none" stroke="black" points="50,-276.5 50,-374.5 403,-374.5 403,-276.5 50,-276.5"/>
<text text-anchor="start" x="58" y="-359.3" font-family="Times,serif" font-size="14.00">0x8055930:</text>
<text text-anchor="start" x="58" y="-344.3" font-family="Times,serif" font-size="14.00"> g1 = result</text>
<text text-anchor="start" x="58" y="-329.3" font-family="Times,serif" font-size="14.00"> *(IntToPtrCastExpr&lt;ptr&gt;((result + 36))) = a3</text>
<text text-anchor="start" x="58" y="-314.3" font-family="Times,serif" font-size="14.00"> *(IntToPtrCastExpr&lt;ptr&gt;((result + 32))) = a2</text>
<text text-anchor="start" x="58" y="-299.3" font-family="Times,serif" font-size="14.00"> v1</text>
<text text-anchor="start" x="58" y="-284.3" font-family="Times,serif" font-size="14.00"> g2 = v1</text>
</g>
<!-- Node0x27b8dff0&#45;&gt;Node0x27b8fd90 -->
<g id="edge1" class="edge"><title>Node0x27b8dff0&#45;&gt;Node0x27b8fd90</title>
<path fill="none" stroke="black" d="M226.5,-412.278C226.5,-403.473 226.5,-393.999 226.5,-384.672"/>
<polygon fill="black" stroke="black" points="230,-384.648 226.5,-374.648 223,-384.648 230,-384.648"/>
</g>
<!-- Node0x27b8feb0 -->
<g id="node3" class="node"><title>Node0x27b8feb0</title>
<polygon fill="none" stroke="black" points="174,-202.5 174,-238.5 279,-238.5 279,-202.5 174,-202.5"/>
<text text-anchor="start" x="182" y="-216.8" font-family="Times,serif" font-size="14.00">if (a3 == 0):</text>
</g>
<!-- Node0x27b8fd90&#45;&gt;Node0x27b8feb0 -->
<g id="edge2" class="edge"><title>Node0x27b8fd90&#45;&gt;Node0x27b8feb0</title>
<path fill="none" stroke="black" d="M226.5,-276.317C226.5,-266.893 226.5,-257.32 226.5,-248.868"/>
<polygon fill="black" stroke="black" points="230,-248.856 226.5,-238.856 223,-248.856 230,-248.856"/>
</g>
<!-- Node0x27b8faf0 -->
<g id="node4" class="node"><title>Node0x27b8faf0</title>
<polygon fill="none" stroke="black" points="0,-105 0,-143 113,-143 113,-105 0,-105"/>
<text text-anchor="start" x="8" y="-127.8" font-family="Times,serif" font-size="14.00">0x8055949:</text>
<text text-anchor="start" x="8" y="-112.8" font-family="Times,serif" font-size="14.00"> return result</text>
</g>
<!-- Node0x27b8feb0&#45;&gt;Node0x27b8faf0 -->
<g id="edge3" class="edge"><title>Node0x27b8feb0&#45;&gt;Node0x27b8faf0</title>
<path fill="none" stroke="black" d="M195.714,-202.387C168.4,-187.203 128.267,-164.894 98.1004,-148.125"/>
<polygon fill="black" stroke="black" points="99.5245,-144.912 89.0836,-143.113 96.1235,-151.03 99.5245,-144.912"/>
<text text-anchor="middle" x="192.5" y="-172.8" font-family="Times,serif" font-size="14.00">a3 == 0</text>
</g>
<!-- Node0x27b900a0 -->
<g id="node5" class="node"><title>Node0x27b900a0</title>
<polygon fill="none" stroke="black" points="131.5,-97.5 131.5,-150.5 663.5,-150.5 663.5,-97.5 131.5,-97.5"/>
<text text-anchor="start" x="139.5" y="-135.3" font-family="Times,serif" font-size="14.00">result2 = mbedtls_timing_get_timer(IntToPtrCastExpr&lt;ptr&gt;(result), 1)</text>
<text text-anchor="start" x="139.5" y="-120.3" font-family="Times,serif" font-size="14.00"> g1 = result2</text>
<text text-anchor="start" x="139.5" y="-105.3" font-family="Times,serif" font-size="14.00"> return result2</text>
</g>
<!-- Node0x27b8feb0&#45;&gt;Node0x27b900a0 -->
<g id="edge4" class="edge"><title>Node0x27b8feb0&#45;&gt;Node0x27b900a0</title>
<path fill="none" stroke="black" d="M257.467,-202.387C281.089,-189.332 314.243,-171.011 342.361,-155.471"/>
<polygon fill="black" stroke="black" points="344.236,-158.434 351.295,-150.534 340.85,-152.308 344.236,-158.434"/>
<text text-anchor="middle" x="344.5" y="-172.8" font-family="Times,serif" font-size="14.00">a3 != 0</text>
</g>
<!-- Node0x27b8fd10 -->
<g id="node6" class="node"><title>Node0x27b8fd10</title>
<polygon fill="none" stroke="black" points="239.5,-23.5 239.5,-59.5 293.5,-59.5 293.5,-23.5 239.5,-23.5"/>
<text text-anchor="start" x="247.5" y="-37.8" font-family="Times,serif" font-size="14.00">exit:</text>
</g>
<!-- Node0x27b8faf0&#45;&gt;Node0x27b8fd10 -->
<g id="edge5" class="edge"><title>Node0x27b8faf0&#45;&gt;Node0x27b8fd10</title>
<path fill="none" stroke="black" d="M102.27,-104.877C109.047,-102.221 115.952,-99.5289 122.5,-97 159.017,-82.8976 200.878,-67.095 230.019,-56.1524"/>
<polygon fill="black" stroke="black" points="231.254,-59.4271 239.388,-52.6372 228.795,-52.8732 231.254,-59.4271"/>
</g>
<!-- Node0x27b900a0&#45;&gt;Node0x27b8fd10 -->
<g id="edge6" class="edge"><title>Node0x27b900a0&#45;&gt;Node0x27b8fd10</title>
<path fill="none" stroke="black" d="M355.691,-97.308C338.632,-86.8255 319.096,-74.8206 302.665,-64.7233"/>
<polygon fill="black" stroke="black" points="304.243,-61.5854 293.891,-59.3318 300.578,-67.5493 304.243,-61.5854"/>
</g>
</g>
</svg>
