<?xml version="1.0" encoding="UTF-8" standalone="no"?>
<!DOCTYPE svg PUBLIC "-//W3C//DTD SVG 1.1//EN"
 "http://www.w3.org/Graphics/SVG/1.1/DTD/svg11.dtd">
<!-- Generated by graphviz version 2.38.0 (20140413.2041)
 -->
<!-- Title: Control&#45;flow graph for function &#39;mbedtls_md_get_size(a1)&#39;. Pages: 1 -->
<svg width="624pt" height="537pt"
 viewBox="0.00 0.00 623.50 537.00" xmlns="http://www.w3.org/2000/svg" xmlns:xlink="http://www.w3.org/1999/xlink">
<g id="graph0" class="graph" transform="scale(1 1) rotate(0) translate(4 533)">
<title>Control&#45;flow graph for function &#39;mbedtls_md_get_size(a1)&#39;.</title>
<polygon fill="white" stroke="none" points="-4,4 -4,-533 619.5,-533 619.5,4 -4,4"/>
<text text-anchor="middle" x="307.75" y="-7.8" font-family="Times,serif" font-size="14.00">Control&#45;flow graph for function &#39;mbedtls_md_get_size(a1)&#39;.</text>
<!-- Node0x902a110 -->
<g id="node1" class="node"><title>Node0x902a110</title>
<polygon fill="none" stroke="black" points="382.5,-490.5 382.5,-528.5 441.5,-528.5 441.5,-490.5 382.5,-490.5"/>
<text text-anchor="start" x="390.5" y="-513.3" font-family="Times,serif" font-size="14.00">entry:</text>
<text text-anchor="start" x="390.5" y="-498.3" font-family="Times,serif" font-size="14.00"> a1</text>
</g>
<!-- Node0x902ac40 -->
<g id="node2" class="node"><title>Node0x902ac40</title>
<polygon fill="none" stroke="black" points="361.5,-384.5 361.5,-452.5 462.5,-452.5 462.5,-384.5 361.5,-384.5"/>
<text text-anchor="start" x="369.5" y="-437.3" font-family="Times,serif" font-size="14.00">0x8062490:</text>
<text text-anchor="start" x="369.5" y="-422.3" font-family="Times,serif" font-size="14.00"> g1 = 0</text>
<text text-anchor="start" x="369.5" y="-407.3" font-family="Times,serif" font-size="14.00"> g6 = a1</text>
<text text-anchor="start" x="369.5" y="-392.3" font-family="Times,serif" font-size="14.00"> result</text>
</g>
<!-- Node0x902a110&#45;&gt;Node0x902ac40 -->
<g id="edge1" class="edge"><title>Node0x902a110&#45;&gt;Node0x902ac40</title>
<path fill="none" stroke="black" d="M412,-490.49C412,-482.422 412,-472.529 412,-462.718"/>
<polygon fill="black" stroke="black" points="415.5,-462.605 412,-452.605 408.5,-462.605 415.5,-462.605"/>
</g>
<!-- Node0x902b010 -->
<g id="node3" class="node"><title>Node0x902b010</title>
<polygon fill="none" stroke="black" points="362.5,-308.5 362.5,-346.5 461.5,-346.5 461.5,-308.5 362.5,-308.5"/>
<text text-anchor="start" x="370.5" y="-331.3" font-family="Times,serif" font-size="14.00">if (a1 != 0):</text>
<text text-anchor="start" x="370.5" y="-316.3" font-family="Times,serif" font-size="14.00"> else:</text>
</g>
<!-- Node0x902ac40&#45;&gt;Node0x902b010 -->
<g id="edge2" class="edge"><title>Node0x902ac40&#45;&gt;Node0x902b010</title>
<path fill="none" stroke="black" d="M412,-384.36C412,-375.365 412,-365.707 412,-356.993"/>
<polygon fill="black" stroke="black" points="415.5,-356.941 412,-346.941 408.5,-356.941 415.5,-356.941"/>
</g>
<!-- Node0x902bc30 -->
<g id="node4" class="node"><title>Node0x902bc30</title>
<polygon fill="none" stroke="black" points="0,-203.5 0,-256.5 508,-256.5 508,-203.5 0,-203.5"/>
<text text-anchor="start" x="8" y="-241.3" font-family="Times,serif" font-size="14.00">0x806249c:</text>
<text text-anchor="start" x="8" y="-226.3" font-family="Times,serif" font-size="14.00"> result = ExtCastExpr&lt;int32&gt;(*(IntToPtrCastExpr&lt;ptr&gt;((a1 + 8))))</text>
<text text-anchor="start" x="8" y="-211.3" font-family="Times,serif" font-size="14.00"> g1 = result</text>
</g>
<!-- Node0x902b010&#45;&gt;Node0x902bc30 -->
<g id="edge3" class="edge"><title>Node0x902b010&#45;&gt;Node0x902bc30</title>
<path fill="none" stroke="black" d="M381.91,-308.312C360.204,-295.193 330.379,-277.166 304.988,-261.819"/>
<polygon fill="black" stroke="black" points="306.581,-258.692 296.212,-256.514 302.96,-264.683 306.581,-258.692"/>
<text text-anchor="middle" x="375" y="-278.8" font-family="Times,serif" font-size="14.00">a1 != 0</text>
</g>
<!-- Node0x902bcb0 -->
<g id="node5" class="node"><title>Node0x902bcb0</title>
<polygon fill="none" stroke="black" points="526.5,-212 526.5,-248 615.5,-248 615.5,-212 526.5,-212"/>
<text text-anchor="start" x="534.5" y="-226.3" font-family="Times,serif" font-size="14.00">result = 0</text>
</g>
<!-- Node0x902b010&#45;&gt;Node0x902bcb0 -->
<g id="edge4" class="edge"><title>Node0x902b010&#45;&gt;Node0x902bcb0</title>
<path fill="none" stroke="black" d="M442.281,-308.312C468.298,-292.686 505.91,-270.095 533.763,-253.366"/>
<polygon fill="black" stroke="black" points="535.666,-256.306 542.436,-248.156 532.062,-250.305 535.666,-256.306"/>
<text text-anchor="middle" x="527" y="-278.8" font-family="Times,serif" font-size="14.00">a1 == 0</text>
</g>
<!-- Node0x902bb80 -->
<g id="node6" class="node"><title>Node0x902bb80</title>
<polygon fill="none" stroke="black" points="392.5,-97.5 392.5,-165.5 505.5,-165.5 505.5,-97.5 392.5,-97.5"/>
<text text-anchor="start" x="400.5" y="-150.3" font-family="Times,serif" font-size="14.00">0x80624a0:</text>
<text text-anchor="start" x="400.5" y="-135.3" font-family="Times,serif" font-size="14.00"> v1</text>
<text text-anchor="start" x="400.5" y="-120.3" font-family="Times,serif" font-size="14.00"> g2 = v1</text>
<text text-anchor="start" x="400.5" y="-105.3" font-family="Times,serif" font-size="14.00"> return result</text>
</g>
<!-- Node0x902bc30&#45;&gt;Node0x902bb80 -->
<g id="edge5" class="edge"><title>Node0x902bc30&#45;&gt;Node0x902bb80</title>
<path fill="none" stroke="black" d="M305.744,-203.393C329.46,-191.657 357.847,-177.609 383.073,-165.126"/>
<polygon fill="black" stroke="black" points="384.799,-168.177 392.209,-160.604 381.694,-161.903 384.799,-168.177"/>
</g>
<!-- Node0x902bcb0&#45;&gt;Node0x902bb80 -->
<g id="edge6" class="edge"><title>Node0x902bcb0&#45;&gt;Node0x902bb80</title>
<path fill="none" stroke="black" d="M549.47,-211.97C535.47,-200.896 516.61,-185.978 499.011,-172.058"/>
<polygon fill="black" stroke="black" points="501.051,-169.209 491.036,-165.75 496.708,-174.699 501.051,-169.209"/>
</g>
<!-- Node0x902abc0 -->
<g id="node7" class="node"><title>Node0x902abc0</title>
<polygon fill="none" stroke="black" points="422,-23.5 422,-59.5 476,-59.5 476,-23.5 422,-23.5"/>
<text text-anchor="start" x="430" y="-37.8" font-family="Times,serif" font-size="14.00">exit:</text>
</g>
<!-- Node0x902bb80&#45;&gt;Node0x902abc0 -->
<g id="edge7" class="edge"><title>Node0x902bb80&#45;&gt;Node0x902abc0</title>
<path fill="none" stroke="black" d="M449,-97.4817C449,-88.3281 449,-78.4972 449,-69.7155"/>
<polygon fill="black" stroke="black" points="452.5,-69.6402 449,-59.6402 445.5,-69.6403 452.5,-69.6402"/>
</g>
</g>
</svg>
