<?xml version="1.0" encoding="UTF-8" standalone="no"?>
<!DOCTYPE svg PUBLIC "-//W3C//DTD SVG 1.1//EN"
 "http://www.w3.org/Graphics/SVG/1.1/DTD/svg11.dtd">
<!-- Generated by graphviz version 2.38.0 (20140413.2041)
 -->
<!-- Title: Control&#45;flow graph for function &#39;mbedtls_asn1_get_tag(*a1, a2, a3, a4)&#39;. Pages: 1 -->
<svg width="1149pt" height="856pt"
 viewBox="0.00 0.00 1149.00 856.00" xmlns="http://www.w3.org/2000/svg" xmlns:xlink="http://www.w3.org/1999/xlink">
<g id="graph0" class="graph" transform="scale(1 1) rotate(0) translate(4 852)">
<title>Control&#45;flow graph for function &#39;mbedtls_asn1_get_tag(*a1, a2, a3, a4)&#39;.</title>
<polygon fill="white" stroke="none" points="-4,4 -4,-852 1145,-852 1145,4 -4,4"/>
<text text-anchor="middle" x="570.5" y="-7.8" font-family="Times,serif" font-size="14.00">Control&#45;flow graph for function &#39;mbedtls_asn1_get_tag(*a1, a2, a3, a4)&#39;.</text>
<!-- Node0xe3aad40 -->
<g id="node1" class="node"><title>Node0xe3aad40</title>
<polygon fill="none" stroke="black" points="888.5,-764.5 888.5,-847.5 947.5,-847.5 947.5,-764.5 888.5,-764.5"/>
<text text-anchor="start" x="896.5" y="-832.3" font-family="Times,serif" font-size="14.00">entry:</text>
<text text-anchor="start" x="896.5" y="-817.3" font-family="Times,serif" font-size="14.00"> a1</text>
<text text-anchor="start" x="896.5" y="-802.3" font-family="Times,serif" font-size="14.00"> a2</text>
<text text-anchor="start" x="896.5" y="-787.3" font-family="Times,serif" font-size="14.00"> a3</text>
<text text-anchor="start" x="896.5" y="-772.3" font-family="Times,serif" font-size="14.00"> a4</text>
</g>
<!-- Node0xe3aaa10 -->
<g id="node2" class="node"><title>Node0xe3aaa10</title>
<polygon fill="none" stroke="black" points="779.5,-598.5 779.5,-726.5 1056.5,-726.5 1056.5,-598.5 779.5,-598.5"/>
<text text-anchor="start" x="787.5" y="-711.3" font-family="Times,serif" font-size="14.00">0x8055d60:</text>
<text text-anchor="start" x="787.5" y="-696.3" font-family="Times,serif" font-size="14.00"> g4 = PtrToIntCastExpr&lt;int32&gt;(a1)</text>
<text text-anchor="start" x="787.5" y="-681.3" font-family="Times,serif" font-size="14.00"> v1 = g3</text>
<text text-anchor="start" x="787.5" y="-666.3" font-family="Times,serif" font-size="14.00"> v2 = g7</text>
<text text-anchor="start" x="787.5" y="-651.3" font-family="Times,serif" font-size="14.00"> v3 = g5</text>
<text text-anchor="start" x="787.5" y="-636.3" font-family="Times,serif" font-size="14.00"> v4 = *(a1)</text>
<text text-anchor="start" x="787.5" y="-621.3" font-family="Times,serif" font-size="14.00"> g6 = v4</text>
<text text-anchor="start" x="787.5" y="-606.3" font-family="Times,serif" font-size="14.00"> result = &#45;96</text>
</g>
<!-- Node0xe3aad40&#45;&gt;Node0xe3aaa10 -->
<g id="edge1" class="edge"><title>Node0xe3aad40&#45;&gt;Node0xe3aaa10</title>
<path fill="none" stroke="black" d="M918,-764.452C918,-755.816 918,-746.44 918,-737"/>
<polygon fill="black" stroke="black" points="921.5,-736.762 918,-726.762 914.5,-736.762 921.5,-736.762"/>
</g>
<!-- Node0x29a32400 -->
<g id="node3" class="node"><title>Node0x29a32400</title>
<polygon fill="none" stroke="black" points="851,-524.5 851,-560.5 985,-560.5 985,-524.5 851,-524.5"/>
<text text-anchor="start" x="859" y="-538.8" font-family="Times,serif" font-size="14.00">if ((a2 &#45; v4) &gt; 0):</text>
</g>
<!-- Node0xe3aaa10&#45;&gt;Node0x29a32400 -->
<g id="edge2" class="edge"><title>Node0xe3aaa10&#45;&gt;Node0x29a32400</title>
<path fill="none" stroke="black" d="M918,-598.355C918,-588.753 918,-579.299 918,-571.016"/>
<polygon fill="black" stroke="black" points="921.5,-570.887 918,-560.888 914.5,-570.888 921.5,-570.887"/>
</g>
<!-- Node0x29a2f450 -->
<g id="node4" class="node"><title>Node0x29a2f450</title>
<polygon fill="none" stroke="black" points="364,-434.5 364,-472.5 848,-472.5 848,-434.5 364,-434.5"/>
<text text-anchor="start" x="372" y="-457.3" font-family="Times,serif" font-size="14.00">0x8055da0:</text>
<text text-anchor="start" x="372" y="-442.3" font-family="Times,serif" font-size="14.00"> if (ExtCastExpr&lt;int32&gt;(*(IntToPtrCastExpr&lt;ptr&gt;(v4))) == a4):</text>
</g>
<!-- Node0x29a32400&#45;&gt;Node0x29a2f450 -->
<g id="edge3" class="edge"><title>Node0x29a32400&#45;&gt;Node0x29a2f450</title>
<path fill="none" stroke="black" d="M856.731,-524.415C806.193,-510.323 734.307,-490.278 680.456,-475.262"/>
<polygon fill="black" stroke="black" points="681.192,-471.834 670.62,-472.519 679.312,-478.576 681.192,-471.834"/>
<text text-anchor="middle" x="834.5" y="-494.8" font-family="Times,serif" font-size="14.00">(a2 &#45; v4) &gt; 0</text>
</g>
<!-- Node0x29a326b0 -->
<g id="node5" class="node"><title>Node0x29a326b0</title>
<polygon fill="none" stroke="black" points="549.5,-97.5 549.5,-180.5 662.5,-180.5 662.5,-97.5 549.5,-97.5"/>
<text text-anchor="start" x="557.5" y="-165.3" font-family="Times,serif" font-size="14.00">0x8055d8d:</text>
<text text-anchor="start" x="557.5" y="-150.3" font-family="Times,serif" font-size="14.00"> g3 = v1</text>
<text text-anchor="start" x="557.5" y="-135.3" font-family="Times,serif" font-size="14.00"> g7 = v2</text>
<text text-anchor="start" x="557.5" y="-120.3" font-family="Times,serif" font-size="14.00"> g5 = v3</text>
<text text-anchor="start" x="557.5" y="-105.3" font-family="Times,serif" font-size="14.00"> return result</text>
</g>
<!-- Node0x29a32400&#45;&gt;Node0x29a326b0 -->
<g id="edge4" class="edge"><title>Node0x29a32400&#45;&gt;Node0x29a326b0</title>
<path fill="none" stroke="black" d="M950.944,-524.456C994.547,-499.487 1062.84,-450.53 1035,-401 956.964,-262.181 771.869,-188.582 672.229,-157.807"/>
<polygon fill="black" stroke="black" points="673.152,-154.43 662.567,-154.875 671.119,-161.128 673.152,-154.43"/>
<text text-anchor="middle" x="1090.5" y="-404.8" font-family="Times,serif" font-size="14.00">(a2 &#45; v4) &lt;= 0</text>
</g>
<!-- Node0x29a308d0 -->
<g id="node6" class="node"><title>Node0x29a308d0</title>
<polygon fill="none" stroke="black" points="0,-199.5 0,-327.5 494,-327.5 494,-199.5 0,-199.5"/>
<text text-anchor="start" x="8" y="-312.3" font-family="Times,serif" font-size="14.00">0x8055da9:</text>
<text text-anchor="start" x="8" y="-297.3" font-family="Times,serif" font-size="14.00"> *(a1) = (v4 + 1)</text>
<text text-anchor="start" x="8" y="-282.3" font-family="Times,serif" font-size="14.00"> g7 = v2</text>
<text text-anchor="start" x="8" y="-267.3" font-family="Times,serif" font-size="14.00"> g5 = v3</text>
<text text-anchor="start" x="8" y="-252.3" font-family="Times,serif" font-size="14.00"> g3 = v1</text>
<text text-anchor="start" x="8" y="-237.3" font-family="Times,serif" font-size="14.00"> v5</text>
<text text-anchor="start" x="8" y="-222.3" font-family="Times,serif" font-size="14.00"> v6</text>
<text text-anchor="start" x="8" y="-207.3" font-family="Times,serif" font-size="14.00"> return mbedtls_asn1_get_len(IntToPtrCastExpr&lt;ptr&gt;(v6), v5, a1)</text>
</g>
<!-- Node0x29a2f450&#45;&gt;Node0x29a308d0 -->
<g id="edge5" class="edge"><title>Node0x29a2f450&#45;&gt;Node0x29a308d0</title>
<path fill="none" stroke="black" d="M363.882,-445.989C270.611,-440.932 182.677,-431.951 168,-416 146.794,-392.954 156.517,-363.149 175.263,-336.08"/>
<polygon fill="black" stroke="black" points="178.259,-337.912 181.346,-327.777 172.613,-333.775 178.259,-337.912"/>
<text text-anchor="middle" x="385" y="-404.8" font-family="Times,serif" font-size="14.00">ExtCastExpr&lt;int32&gt;(*(IntToPtrCastExpr&lt;ptr&gt;(v4))) == a4</text>
</g>
<!-- Node0xe3ab240 -->
<g id="node7" class="node"><title>Node0xe3ab240</title>
<polygon fill="none" stroke="black" points="555,-346.5 555,-382.5 657,-382.5 657,-346.5 555,-346.5"/>
<text text-anchor="start" x="563" y="-360.8" font-family="Times,serif" font-size="14.00">result = &#45;98</text>
</g>
<!-- Node0x29a2f450&#45;&gt;Node0xe3ab240 -->
<g id="edge6" class="edge"><title>Node0x29a2f450&#45;&gt;Node0xe3ab240</title>
<path fill="none" stroke="black" d="M606,-434.474C606,-422.456 606,-406.434 606,-392.857"/>
<polygon fill="black" stroke="black" points="609.5,-392.615 606,-382.615 602.5,-392.615 609.5,-392.615"/>
<text text-anchor="middle" x="820" y="-404.8" font-family="Times,serif" font-size="14.00">ExtCastExpr&lt;int32&gt;(*(IntToPtrCastExpr&lt;ptr&gt;(v4))) != a4</text>
</g>
<!-- Node0xb911550 -->
<g id="node8" class="node"><title>Node0xb911550</title>
<polygon fill="none" stroke="black" points="418,-23.5 418,-59.5 472,-59.5 472,-23.5 418,-23.5"/>
<text text-anchor="start" x="426" y="-37.8" font-family="Times,serif" font-size="14.00">exit:</text>
</g>
<!-- Node0x29a326b0&#45;&gt;Node0xb911550 -->
<g id="edge7" class="edge"><title>Node0x29a326b0&#45;&gt;Node0xb911550</title>
<path fill="none" stroke="black" d="M549.237,-104.33C526.627,-90.9184 501.272,-75.8789 481.231,-63.991"/>
<polygon fill="black" stroke="black" points="482.812,-60.8594 472.425,-58.7679 479.241,-66.8799 482.812,-60.8594"/>
</g>
<!-- Node0x29a308d0&#45;&gt;Node0xb911550 -->
<g id="edge8" class="edge"><title>Node0x29a308d0&#45;&gt;Node0xb911550</title>
<path fill="none" stroke="black" d="M303.739,-199.457C343.349,-155.445 394.072,-99.0872 422.705,-67.2718"/>
<polygon fill="black" stroke="black" points="425.401,-69.5087 429.489,-59.7344 420.198,-64.826 425.401,-69.5087"/>
</g>
<!-- Node0xe3ab240&#45;&gt;Node0x29a326b0 -->
<g id="edge9" class="edge"><title>Node0xe3ab240&#45;&gt;Node0x29a326b0</title>
<path fill="none" stroke="black" d="M606,-346.333C606,-313.506 606,-240.678 606,-190.948"/>
<polygon fill="black" stroke="black" points="609.5,-190.709 606,-180.709 602.5,-190.709 609.5,-190.709"/>
</g>
</g>
</svg>
