<?xml version="1.0" encoding="UTF-8" standalone="no"?>
<!DOCTYPE svg PUBLIC "-//W3C//DTD SVG 1.1//EN"
 "http://www.w3.org/Graphics/SVG/1.1/DTD/svg11.dtd">
<!-- Generated by graphviz version 2.38.0 (20140413.2041)
 -->
<!-- Title: Control&#45;flow graph for function &#39;mbedtls_sha1_clone(*a1, *a2)&#39;. Pages: 1 -->
<svg width="478pt" height="248pt"
 viewBox="0.00 0.00 478.00 248.00" xmlns="http://www.w3.org/2000/svg" xmlns:xlink="http://www.w3.org/1999/xlink">
<g id="graph0" class="graph" transform="scale(1 1) rotate(0) translate(4 244)">
<title>Control&#45;flow graph for function &#39;mbedtls_sha1_clone(*a1, *a2)&#39;.</title>
<polygon fill="white" stroke="none" points="-4,4 -4,-244 474,-244 474,4 -4,4"/>
<text text-anchor="middle" x="235" y="-7.8" font-family="Times,serif" font-size="14.00">Control&#45;flow graph for function &#39;mbedtls_sha1_clone(*a1, *a2)&#39;.</text>
<!-- Node0x26c5dfe0 -->
<g id="node1" class="node"><title>Node0x26c5dfe0</title>
<polygon fill="none" stroke="black" points="205.5,-186.5 205.5,-239.5 264.5,-239.5 264.5,-186.5 205.5,-186.5"/>
<text text-anchor="start" x="213.5" y="-224.3" font-family="Times,serif" font-size="14.00">entry:</text>
<text text-anchor="start" x="213.5" y="-209.3" font-family="Times,serif" font-size="14.00"> a1</text>
<text text-anchor="start" x="213.5" y="-194.3" font-family="Times,serif" font-size="14.00"> a2</text>
</g>
<!-- Node0x16f5f1f0 -->
<g id="node2" class="node"><title>Node0x16f5f1f0</title>
<polygon fill="none" stroke="black" points="96.5,-96.5 96.5,-149.5 373.5,-149.5 373.5,-96.5 96.5,-96.5"/>
<text text-anchor="start" x="104.5" y="-134.3" font-family="Times,serif" font-size="14.00">0x8052140:</text>
<text text-anchor="start" x="104.5" y="-119.3" font-family="Times,serif" font-size="14.00"> g1 = PtrToIntCastExpr&lt;int32&gt;(a1)</text>
<text text-anchor="start" x="104.5" y="-104.3" font-family="Times,serif" font-size="14.00"> memcpy(a1, a2, 23)</text>
</g>
<!-- Node0x26c5dfe0&#45;&gt;Node0x16f5f1f0 -->
<g id="edge1" class="edge"><title>Node0x26c5dfe0&#45;&gt;Node0x16f5f1f0</title>
<path fill="none" stroke="black" d="M235,-186.073C235,-177.838 235,-168.58 235,-159.777"/>
<polygon fill="black" stroke="black" points="238.5,-159.742 235,-149.742 231.5,-159.742 238.5,-159.742"/>
</g>
<!-- Node0x16f5d560 -->
<g id="node3" class="node"><title>Node0x16f5d560</title>
<polygon fill="none" stroke="black" points="208,-23.5 208,-59.5 262,-59.5 262,-23.5 208,-23.5"/>
<text text-anchor="start" x="216" y="-37.8" font-family="Times,serif" font-size="14.00">exit:</text>
</g>
<!-- Node0x16f5f1f0&#45;&gt;Node0x16f5d560 -->
<g id="edge2" class="edge"><title>Node0x16f5f1f0&#45;&gt;Node0x16f5d560</title>
<path fill="none" stroke="black" d="M235,-96.4081C235,-87.9823 235,-78.5803 235,-70.0174"/>
<polygon fill="black" stroke="black" points="238.5,-69.7564 235,-59.7564 231.5,-69.7565 238.5,-69.7564"/>
</g>
</g>
</svg>
