<?xml version="1.0" encoding="UTF-8" standalone="no"?>
<!DOCTYPE svg PUBLIC "-//W3C//DTD SVG 1.1//EN"
 "http://www.w3.org/Graphics/SVG/1.1/DTD/svg11.dtd">
<!-- Generated by graphviz version 2.38.0 (20140413.2041)
 -->
<!-- Title: Control&#45;flow graph for function &#39;mbedtls_oid_get_pkcs12_pbe_alg(a1, *a2, *a3)&#39;. Pages: 1 -->
<svg width="1257pt" height="1374pt"
 viewBox="0.00 0.00 1256.50 1374.00" xmlns="http://www.w3.org/2000/svg" xmlns:xlink="http://www.w3.org/1999/xlink">
<g id="graph0" class="graph" transform="scale(1 1) rotate(0) translate(4 1370)">
<title>Control&#45;flow graph for function &#39;mbedtls_oid_get_pkcs12_pbe_alg(a1, *a2, *a3)&#39;.</title>
<polygon fill="white" stroke="none" points="-4,4 -4,-1370 1252.5,-1370 1252.5,4 -4,4"/>
<text text-anchor="middle" x="624.25" y="-7.8" font-family="Times,serif" font-size="14.00">Control&#45;flow graph for function &#39;mbedtls_oid_get_pkcs12_pbe_alg(a1, *a2, *a3)&#39;.</text>
<!-- Node0x9c777f0 -->
<g id="node1" class="node"><title>Node0x9c777f0</title>
<polygon fill="none" stroke="black" points="271,-1297.5 271,-1365.5 330,-1365.5 330,-1297.5 271,-1297.5"/>
<text text-anchor="start" x="279" y="-1350.3" font-family="Times,serif" font-size="14.00">entry:</text>
<text text-anchor="start" x="279" y="-1335.3" font-family="Times,serif" font-size="14.00"> a1</text>
<text text-anchor="start" x="279" y="-1320.3" font-family="Times,serif" font-size="14.00"> a2</text>
<text text-anchor="start" x="279" y="-1305.3" font-family="Times,serif" font-size="14.00"> a3</text>
</g>
<!-- Node0x9c76440 -->
<g id="node2" class="node"><title>Node0x9c76440</title>
<polygon fill="none" stroke="black" points="264,-1223.5 264,-1259.5 337,-1259.5 337,-1223.5 264,-1223.5"/>
<text text-anchor="start" x="272" y="-1237.8" font-family="Times,serif" font-size="14.00">v1 = g3</text>
</g>
<!-- Node0x9c777f0&#45;&gt;Node0x9c76440 -->
<g id="edge1" class="edge"><title>Node0x9c777f0&#45;&gt;Node0x9c76440</title>
<path fill="none" stroke="black" d="M300.5,-1297.48C300.5,-1288.33 300.5,-1278.5 300.5,-1269.72"/>
<polygon fill="black" stroke="black" points="304,-1269.64 300.5,-1259.64 297,-1269.64 304,-1269.64"/>
</g>
<!-- Node0xf732680 -->
<g id="node3" class="node"><title>Node0xf732680</title>
<polygon fill="none" stroke="black" points="248,-1149.5 248,-1185.5 353,-1185.5 353,-1149.5 248,-1149.5"/>
<text text-anchor="start" x="256" y="-1163.8" font-family="Times,serif" font-size="14.00">if (a1 == 0):</text>
</g>
<!-- Node0x9c76440&#45;&gt;Node0xf732680 -->
<g id="edge2" class="edge"><title>Node0x9c76440&#45;&gt;Node0xf732680</title>
<path fill="none" stroke="black" d="M300.5,-1223.44C300.5,-1215.31 300.5,-1205.38 300.5,-1196.2"/>
<polygon fill="black" stroke="black" points="304,-1195.94 300.5,-1185.94 297,-1195.94 304,-1195.94"/>
</g>
<!-- Node0x9c76550 -->
<g id="node4" class="node"><title>Node0x9c76550</title>
<polygon fill="none" stroke="black" points="0,-942.5 0,-995.5 101,-995.5 101,-942.5 0,-942.5"/>
<text text-anchor="start" x="8" y="-980.3" font-family="Times,serif" font-size="14.00">0x80631b8:</text>
<text text-anchor="start" x="8" y="-965.3" font-family="Times,serif" font-size="14.00"> g3 = v1</text>
<text text-anchor="start" x="8" y="-950.3" font-family="Times,serif" font-size="14.00"> return &#45;46</text>
</g>
<!-- Node0xf732680&#45;&gt;Node0x9c76550 -->
<g id="edge3" class="edge"><title>Node0xf732680&#45;&gt;Node0x9c76550</title>
<path fill="none" stroke="black" d="M278.751,-1149.41C236.943,-1116.54 144.767,-1044.09 91.2187,-1002"/>
<polygon fill="black" stroke="black" points="93.3145,-999.2 83.2895,-995.773 88.9887,-1004.7 93.3145,-999.2"/>
<text text-anchor="middle" x="285.5" y="-1119.8" font-family="Times,serif" font-size="14.00">a1 == 0</text>
</g>
<!-- Node0x9c77d00 -->
<g id="node5" class="node"><title>Node0x9c77d00</title>
<polygon fill="none" stroke="black" points="627.5,-1014.5 627.5,-1097.5 945.5,-1097.5 945.5,-1014.5 627.5,-1014.5"/>
<text text-anchor="start" x="635.5" y="-1082.3" font-family="Times,serif" font-size="14.00">v2 = *(IntToPtrCastExpr&lt;ptr&gt;((a1 + 4)))</text>
<text text-anchor="start" x="635.5" y="-1067.3" font-family="Times,serif" font-size="14.00"> v3 = PtrToIntCastExpr&lt;int32&gt;(&amp;(g110))</text>
<text text-anchor="start" x="635.5" y="-1052.3" font-family="Times,serif" font-size="14.00"> str = &amp;(g104)</text>
<text text-anchor="start" x="635.5" y="-1037.3" font-family="Times,serif" font-size="14.00"> n = v2</text>
<text text-anchor="start" x="635.5" y="-1022.3" font-family="Times,serif" font-size="14.00"> v4 = PtrToIntCastExpr&lt;int32&gt;(&amp;(g110))</text>
</g>
<!-- Node0xf732680&#45;&gt;Node0x9c77d00 -->
<g id="edge4" class="edge"><title>Node0xf732680&#45;&gt;Node0x9c77d00</title>
<path fill="none" stroke="black" d="M353.436,-1154.57C416.521,-1140.36 525.042,-1115.91 617.664,-1095.04"/>
<polygon fill="black" stroke="black" points="618.449,-1098.45 627.435,-1092.84 616.91,-1091.62 618.449,-1098.45"/>
<text text-anchor="middle" x="541.5" y="-1119.8" font-family="Times,serif" font-size="14.00">a1 != 0</text>
</g>
<!-- Node0x9c763c0 -->
<g id="node6" class="node"><title>Node0x9c763c0</title>
<polygon fill="none" stroke="black" points="461.5,-23.5 461.5,-59.5 515.5,-59.5 515.5,-23.5 461.5,-23.5"/>
<text text-anchor="start" x="469.5" y="-37.8" font-family="Times,serif" font-size="14.00">exit:</text>
</g>
<!-- Node0x9c76550&#45;&gt;Node0x9c763c0 -->
<g id="edge5" class="edge"><title>Node0x9c76550&#45;&gt;Node0x9c763c0</title>
<path fill="none" stroke="black" d="M32.3196,-942.462C19.4618,-921.885 4.5,-891.673 4.5,-862.5 4.5,-862.5 4.5,-862.5 4.5,-145.5 4.5,-54.2648 337.672,-43.5197 451.162,-42.5061"/>
<polygon fill="black" stroke="black" points="451.465,-46.0042 461.441,-42.436 451.417,-39.0043 451.465,-46.0042"/>
</g>
<!-- Node0x9c780a0 -->
<g id="node7" class="node"><title>Node0x9c780a0</title>
<polygon fill="none" stroke="black" points="853,-887.5 853,-923.5 950,-923.5 950,-887.5 853,-887.5"/>
<text text-anchor="start" x="861" y="-901.8" font-family="Times,serif" font-size="14.00">while True:</text>
</g>
<!-- Node0x9c77d00&#45;&gt;Node0x9c780a0 -->
<g id="edge6" class="edge"><title>Node0x9c77d00&#45;&gt;Node0x9c780a0</title>
<path fill="none" stroke="black" d="M817.924,-1014.42C838.328,-988.075 864.288,-954.552 881.82,-931.913"/>
<polygon fill="black" stroke="black" points="884.741,-933.857 888.097,-923.807 879.207,-929.571 884.741,-933.857"/>
</g>
<!-- Node0x9c782b0 -->
<g id="node8" class="node"><title>Node0x9c782b0</title>
<polygon fill="none" stroke="black" points="865.5,-799.5 865.5,-835.5 937.5,-835.5 937.5,-799.5 865.5,-799.5"/>
<text text-anchor="start" x="873.5" y="-813.8" font-family="Times,serif" font-size="14.00">v5 = v4</text>
</g>
<!-- Node0x9c780a0&#45;&gt;Node0x9c782b0 -->
<g id="edge7" class="edge"><title>Node0x9c780a0&#45;&gt;Node0x9c782b0</title>
<path fill="none" stroke="black" d="M901.5,-887.097C901.5,-875.246 901.5,-859.317 901.5,-845.792"/>
<polygon fill="black" stroke="black" points="905,-845.584 901.5,-835.584 898,-845.584 905,-845.584"/>
<text text-anchor="middle" x="918.5" y="-857.8" font-family="Times,serif" font-size="14.00">True</text>
</g>
<!-- Node0x9c78360 -->
<g id="node9" class="node"><title>Node0x9c78360</title>
<polygon fill="none" stroke="black" points="728,-725.5 728,-761.5 1075,-761.5 1075,-725.5 728,-725.5"/>
<text text-anchor="start" x="736" y="-739.8" font-family="Times,serif" font-size="14.00">if (n == *(IntToPtrCastExpr&lt;ptr&gt;((v4 + 4)))):</text>
</g>
<!-- Node0x9c782b0&#45;&gt;Node0x9c78360 -->
<g id="edge8" class="edge"><title>Node0x9c782b0&#45;&gt;Node0x9c78360</title>
<path fill="none" stroke="black" d="M901.5,-799.437C901.5,-791.307 901.5,-781.376 901.5,-772.205"/>
<polygon fill="black" stroke="black" points="905,-771.941 901.5,-761.941 898,-771.941 905,-771.941"/>
</g>
<!-- Node0x9c78d00 -->
<g id="node10" class="node"><title>Node0x9c78d00</title>
<polygon fill="none" stroke="black" points="32,-605.5 32,-673.5 897,-673.5 897,-605.5 32,-605.5"/>
<text text-anchor="start" x="40" y="-658.3" font-family="Times,serif" font-size="14.00">strncmp_rc = strncmp(IntToPtrCastExpr&lt;ptr&gt;(str), IntToPtrCastExpr&lt;ptr&gt;(*(IntToPtrCastExpr&lt;ptr&gt;((a1 + 8)))), n)</text>
<text text-anchor="start" x="40" y="-643.3" font-family="Times,serif" font-size="14.00"> g4 = strncmp_rc</text>
<text text-anchor="start" x="40" y="-628.3" font-family="Times,serif" font-size="14.00"> g237 = ((strncmp_rc % 2) == 0)</text>
<text text-anchor="start" x="40" y="-613.3" font-family="Times,serif" font-size="14.00"> v6 = v3</text>
</g>
<!-- Node0x9c78360&#45;&gt;Node0x9c78d00 -->
<g id="edge9" class="edge"><title>Node0x9c78360&#45;&gt;Node0x9c78d00</title>
<path fill="none" stroke="black" d="M727.746,-730.506C688.085,-725.279 646.455,-717.775 608.5,-707 583.36,-699.863 557.07,-688.879 533.937,-677.881"/>
<polygon fill="black" stroke="black" points="535.428,-674.714 524.902,-673.509 532.379,-681.015 535.428,-674.714"/>
<text text-anchor="middle" x="759.5" y="-695.8" font-family="Times,serif" font-size="14.00">n == *(IntToPtrCastExpr&lt;ptr&gt;((v4 + 4)))</text>
</g>
<!-- Node0x9c78840 -->
<g id="node11" class="node"><title>Node0x9c78840</title>
<polygon fill="none" stroke="black" points="771.5,-323.5 771.5,-391.5 1049.5,-391.5 1049.5,-323.5 771.5,-323.5"/>
<text text-anchor="start" x="779.5" y="-376.3" font-family="Times,serif" font-size="14.00">v8 = (v5 + 24)</text>
<text text-anchor="start" x="779.5" y="-361.3" font-family="Times,serif" font-size="14.00"> v3 = v8</text>
<text text-anchor="start" x="779.5" y="-346.3" font-family="Times,serif" font-size="14.00"> v9 = *(IntToPtrCastExpr&lt;ptr&gt;(v8))</text>
<text text-anchor="start" x="779.5" y="-331.3" font-family="Times,serif" font-size="14.00"> g4 = v8</text>
</g>
<!-- Node0x9c78360&#45;&gt;Node0x9c78840 -->
<g id="edge10" class="edge"><title>Node0x9c78360&#45;&gt;Node0x9c78840</title>
<path fill="none" stroke="black" d="M907.785,-725.439C914.595,-705.394 924.5,-670.997 924.5,-640.5 924.5,-640.5 924.5,-640.5 924.5,-460.5 924.5,-441.135 921.993,-419.892 919.1,-401.83"/>
<polygon fill="black" stroke="black" points="922.536,-401.155 917.418,-391.878 915.634,-402.322 922.536,-401.155"/>
<text text-anchor="middle" x="1072.5" y="-545.8" font-family="Times,serif" font-size="14.00">n != *(IntToPtrCastExpr&lt;ptr&gt;((v4 + 4)))</text>
</g>
<!-- Node0x9c78100 -->
<g id="node12" class="node"><title>Node0x9c78100</title>
<polygon fill="none" stroke="black" points="474.5,-531.5 474.5,-567.5 686.5,-567.5 686.5,-531.5 474.5,-531.5"/>
<text text-anchor="start" x="482.5" y="-545.8" font-family="Times,serif" font-size="14.00">if ((strncmp_rc % 2) == 0):</text>
</g>
<!-- Node0x9c78d00&#45;&gt;Node0x9c78100 -->
<g id="edge11" class="edge"><title>Node0x9c78d00&#45;&gt;Node0x9c78100</title>
<path fill="none" stroke="black" d="M508.024,-605.482C521.947,-594.92 537.058,-583.456 549.861,-573.743"/>
<polygon fill="black" stroke="black" points="552.055,-576.473 557.906,-567.64 547.824,-570.896 552.055,-576.473"/>
</g>
<!-- Node0x9c788a0 -->
<g id="node13" class="node"><title>Node0x9c788a0</title>
<polygon fill="none" stroke="black" points="858,-248.5 858,-284.5 963,-284.5 963,-248.5 858,-248.5"/>
<text text-anchor="start" x="866" y="-262.8" font-family="Times,serif" font-size="14.00">if (v9 == 0):</text>
</g>
<!-- Node0x9c78840&#45;&gt;Node0x9c788a0 -->
<g id="edge12" class="edge"><title>Node0x9c78840&#45;&gt;Node0x9c788a0</title>
<path fill="none" stroke="black" d="M910.5,-323.36C910.5,-314.084 910.5,-304.102 910.5,-295.179"/>
<polygon fill="black" stroke="black" points="914,-294.938 910.5,-284.938 907,-294.938 914,-294.938"/>
</g>
<!-- Node0x9c792d0 -->
<g id="node14" class="node"><title>Node0x9c792d0</title>
<polygon fill="none" stroke="black" points="525.5,-247.5 525.5,-285.5 635.5,-285.5 635.5,-247.5 525.5,-247.5"/>
<text text-anchor="start" x="533.5" y="-270.3" font-family="Times,serif" font-size="14.00">0x8063196:</text>
<text text-anchor="start" x="533.5" y="-255.3" font-family="Times,serif" font-size="14.00"> if (v6 == 0):</text>
</g>
<!-- Node0x9c78100&#45;&gt;Node0x9c792d0 -->
<g id="edge13" class="edge"><title>Node0x9c78100&#45;&gt;Node0x9c792d0</title>
<path fill="none" stroke="black" d="M580.5,-531.345C580.5,-484.441 580.5,-353.707 580.5,-295.765"/>
<polygon fill="black" stroke="black" points="584,-295.511 580.5,-285.511 577,-295.511 584,-295.511"/>
<text text-anchor="middle" x="664" y="-413.8" font-family="Times,serif" font-size="14.00">(strncmp_rc % 2) == 0</text>
</g>
<!-- Node0x9c79110 -->
<g id="node15" class="node"><title>Node0x9c79110</title>
<polygon fill="none" stroke="black" points="713.5,-443.5 713.5,-479.5 785.5,-479.5 785.5,-443.5 713.5,-443.5"/>
<text text-anchor="start" x="721.5" y="-457.8" font-family="Times,serif" font-size="14.00">v5 = v6</text>
</g>
<!-- Node0x9c78100&#45;&gt;Node0x9c79110 -->
<g id="edge14" class="edge"><title>Node0x9c78100&#45;&gt;Node0x9c79110</title>
<path fill="none" stroke="black" d="M614.293,-531.303C640.977,-517.724 678.367,-498.698 707.066,-484.094"/>
<polygon fill="black" stroke="black" points="708.728,-487.175 716.053,-479.52 705.554,-480.936 708.728,-487.175"/>
<text text-anchor="middle" x="755" y="-501.8" font-family="Times,serif" font-size="14.00">(strncmp_rc % 2) != 0</text>
</g>
<!-- Node0x9c791c0 -->
<g id="node16" class="node"><title>Node0x9c791c0</title>
<polygon fill="none" stroke="black" points="804,-120 804,-173 905,-173 905,-120 804,-120"/>
<text text-anchor="start" x="812" y="-157.8" font-family="Times,serif" font-size="14.00">0x80631b8:</text>
<text text-anchor="start" x="812" y="-142.8" font-family="Times,serif" font-size="14.00"> g3 = v1</text>
<text text-anchor="start" x="812" y="-127.8" font-family="Times,serif" font-size="14.00"> return &#45;46</text>
</g>
<!-- Node0x9c788a0&#45;&gt;Node0x9c791c0 -->
<g id="edge15" class="edge"><title>Node0x9c788a0&#45;&gt;Node0x9c791c0</title>
<path fill="none" stroke="black" d="M902.357,-248.342C894.218,-231.192 881.468,-204.325 871.174,-182.635"/>
<polygon fill="black" stroke="black" points="874.238,-180.927 866.788,-173.393 867.914,-183.928 874.238,-180.927"/>
<text text-anchor="middle" x="921.5" y="-217.8" font-family="Times,serif" font-size="14.00">v9 == 0</text>
</g>
<!-- Node0x9c78b20 -->
<g id="node17" class="node"><title>Node0x9c78b20</title>
<polygon fill="none" stroke="black" points="1104,-112.5 1104,-180.5 1205,-180.5 1205,-112.5 1104,-112.5"/>
<text text-anchor="start" x="1112" y="-165.3" font-family="Times,serif" font-size="14.00">0x8063178:</text>
<text text-anchor="start" x="1112" y="-150.3" font-family="Times,serif" font-size="14.00"> str = v9</text>
<text text-anchor="start" x="1112" y="-135.3" font-family="Times,serif" font-size="14.00"> n = v2</text>
<text text-anchor="start" x="1112" y="-120.3" font-family="Times,serif" font-size="14.00"> v4 = v8</text>
</g>
<!-- Node0x9c788a0&#45;&gt;Node0x9c78b20 -->
<g id="edge16" class="edge"><title>Node0x9c788a0&#45;&gt;Node0x9c78b20</title>
<path fill="none" stroke="black" d="M945.719,-248.468C984.569,-229.68 1047.76,-199.119 1094.46,-176.534"/>
<polygon fill="black" stroke="black" points="1096.09,-179.634 1103.57,-172.129 1093.04,-173.332 1096.09,-179.634"/>
<text text-anchor="middle" x="1037.5" y="-217.8" font-family="Times,serif" font-size="14.00">v9 != 0</text>
</g>
<!-- Node0x9c799f0 -->
<g id="node18" class="node"><title>Node0x9c799f0</title>
<polygon fill="none" stroke="black" points="318,-120 318,-173 419,-173 419,-120 318,-120"/>
<text text-anchor="start" x="326" y="-157.8" font-family="Times,serif" font-size="14.00">0x80631b8:</text>
<text text-anchor="start" x="326" y="-142.8" font-family="Times,serif" font-size="14.00"> g3 = v1</text>
<text text-anchor="start" x="326" y="-127.8" font-family="Times,serif" font-size="14.00"> return &#45;46</text>
</g>
<!-- Node0x9c792d0&#45;&gt;Node0x9c799f0 -->
<g id="edge17" class="edge"><title>Node0x9c792d0&#45;&gt;Node0x9c799f0</title>
<path fill="none" stroke="black" d="M533.051,-247.417C502.255,-234.819 461.806,-216.619 428.5,-196 420.638,-191.133 412.654,-185.364 405.184,-179.534"/>
<polygon fill="black" stroke="black" points="407.303,-176.747 397.311,-173.223 402.925,-182.209 407.303,-176.747"/>
<text text-anchor="middle" x="519.5" y="-217.8" font-family="Times,serif" font-size="14.00">v6 == 0</text>
</g>
<!-- Node0x9c798d0 -->
<g id="node19" class="node"><title>Node0x9c798d0</title>
<polygon fill="none" stroke="black" points="437.5,-97.5 437.5,-195.5 783.5,-195.5 783.5,-97.5 437.5,-97.5"/>
<text text-anchor="start" x="445.5" y="-180.3" font-family="Times,serif" font-size="14.00">v7 = *(IntToPtrCastExpr&lt;ptr&gt;((v6 + 16)))</text>
<text text-anchor="start" x="445.5" y="-165.3" font-family="Times,serif" font-size="14.00"> g4 = v7</text>
<text text-anchor="start" x="445.5" y="-150.3" font-family="Times,serif" font-size="14.00"> *(a2) = v7</text>
<text text-anchor="start" x="445.5" y="-135.3" font-family="Times,serif" font-size="14.00"> *(a3) = *(IntToPtrCastExpr&lt;ptr&gt;((v3 + 20)))</text>
<text text-anchor="start" x="445.5" y="-120.3" font-family="Times,serif" font-size="14.00"> g3 = v1</text>
<text text-anchor="start" x="445.5" y="-105.3" font-family="Times,serif" font-size="14.00"> return 0</text>
</g>
<!-- Node0x9c792d0&#45;&gt;Node0x9c798d0 -->
<g id="edge18" class="edge"><title>Node0x9c792d0&#45;&gt;Node0x9c798d0</title>
<path fill="none" stroke="black" d="M585.122,-247.321C588.007,-235.972 591.897,-220.671 595.764,-205.462"/>
<polygon fill="black" stroke="black" points="599.219,-206.077 598.291,-195.523 592.435,-204.352 599.219,-206.077"/>
<text text-anchor="middle" x="620.5" y="-217.8" font-family="Times,serif" font-size="14.00">v6 != 0</text>
</g>
<!-- Node0x9c79110&#45;&gt;Node0x9c78840 -->
<g id="edge19" class="edge"><title>Node0x9c79110&#45;&gt;Node0x9c78840</title>
<path fill="none" stroke="black" d="M776.448,-443.427C796.474,-430.74 824.592,-412.926 849.907,-396.888"/>
<polygon fill="black" stroke="black" points="851.795,-399.835 858.37,-391.527 848.049,-393.922 851.795,-399.835"/>
</g>
<!-- Node0x9c791c0&#45;&gt;Node0x9c763c0 -->
<g id="edge20" class="edge"><title>Node0x9c791c0&#45;&gt;Node0x9c763c0</title>
<path fill="none" stroke="black" d="M827.694,-119.889C817.408,-111.374 805.1,-102.636 792.5,-97 702.648,-56.8089 585.339,-46.2342 526.153,-43.4676"/>
<polygon fill="black" stroke="black" points="525.935,-39.9556 515.798,-43.0365 525.644,-46.9495 525.935,-39.9556"/>
</g>
<!-- Node0x9c78b20&#45;&gt;Node0x9c780a0 -->
<g id="edge21" class="edge"><title>Node0x9c78b20&#45;&gt;Node0x9c780a0</title>
<path fill="none" stroke="black" d="M1200.67,-180.617C1224.45,-201.784 1248.5,-231.582 1248.5,-265.5 1248.5,-818.5 1248.5,-818.5 1248.5,-818.5 1248.5,-877.17 1059.25,-896.088 960.271,-901.969"/>
<polygon fill="black" stroke="black" points="959.9,-898.485 950.114,-902.546 960.297,-905.473 959.9,-898.485"/>
</g>
<!-- Node0x9c799f0&#45;&gt;Node0x9c763c0 -->
<g id="edge22" class="edge"><title>Node0x9c799f0&#45;&gt;Node0x9c763c0</title>
<path fill="none" stroke="black" d="M398.472,-119.774C417.666,-103.299 442.385,-82.0818 461.064,-66.0493"/>
<polygon fill="black" stroke="black" points="463.357,-68.6936 468.666,-59.5246 458.798,-63.3819 463.357,-68.6936"/>
</g>
<!-- Node0x9c798d0&#45;&gt;Node0x9c763c0 -->
<g id="edge23" class="edge"><title>Node0x9c798d0&#45;&gt;Node0x9c763c0</title>
<path fill="none" stroke="black" d="M553.429,-97.3173C540.679,-86.553 527.699,-75.5946 516.73,-66.3337"/>
<polygon fill="black" stroke="black" points="518.67,-63.3907 508.771,-59.614 514.154,-68.7394 518.67,-63.3907"/>
</g>
</g>
</svg>
