<?xml version="1.0" encoding="UTF-8" standalone="no"?>
<!DOCTYPE svg PUBLIC "-//W3C//DTD SVG 1.1//EN"
 "http://www.w3.org/Graphics/SVG/1.1/DTD/svg11.dtd">
<!-- Generated by graphviz version 2.38.0 (20140413.2041)
 -->
<!-- Title: Control&#45;flow graph for function &#39;md5_ctx_free(a1, a2, a3)&#39;. Pages: 1 -->
<svg width="442pt" height="338pt"
 viewBox="0.00 0.00 442.00 338.00" xmlns="http://www.w3.org/2000/svg" xmlns:xlink="http://www.w3.org/1999/xlink">
<g id="graph0" class="graph" transform="scale(1 1) rotate(0) translate(4 334)">
<title>Control&#45;flow graph for function &#39;md5_ctx_free(a1, a2, a3)&#39;.</title>
<polygon fill="white" stroke="none" points="-4,4 -4,-334 438,-334 438,4 -4,4"/>
<text text-anchor="middle" x="217" y="-7.8" font-family="Times,serif" font-size="14.00">Control&#45;flow graph for function &#39;md5_ctx_free(a1, a2, a3)&#39;.</text>
<!-- Node0x9c74250 -->
<g id="node1" class="node"><title>Node0x9c74250</title>
<polygon fill="none" stroke="black" points="187.5,-261.5 187.5,-329.5 246.5,-329.5 246.5,-261.5 187.5,-261.5"/>
<text text-anchor="start" x="195.5" y="-314.3" font-family="Times,serif" font-size="14.00">entry:</text>
<text text-anchor="start" x="195.5" y="-299.3" font-family="Times,serif" font-size="14.00"> a1</text>
<text text-anchor="start" x="195.5" y="-284.3" font-family="Times,serif" font-size="14.00"> a2</text>
<text text-anchor="start" x="195.5" y="-269.3" font-family="Times,serif" font-size="14.00"> a3</text>
</g>
<!-- Node0x9c74a80 -->
<g id="node2" class="node"><title>Node0x9c74a80</title>
<polygon fill="none" stroke="black" points="3,-96.5 3,-224.5 431,-224.5 431,-96.5 3,-96.5"/>
<text text-anchor="start" x="11" y="-209.3" font-family="Times,serif" font-size="14.00">0x8062e60:</text>
<text text-anchor="start" x="11" y="-194.3" font-family="Times,serif" font-size="14.00"> v1</text>
<text text-anchor="start" x="11" y="-179.3" font-family="Times,serif" font-size="14.00"> v2 = IntToPtrCastExpr&lt;ptr&gt;(v1)</text>
<text text-anchor="start" x="11" y="-164.3" font-family="Times,serif" font-size="14.00"> result = mbedtls_md5_free(IntToPtrCastExpr&lt;ptr&gt;(a1))</text>
<text text-anchor="start" x="11" y="-149.3" font-family="Times,serif" font-size="14.00"> g1 = result</text>
<text text-anchor="start" x="11" y="-134.3" font-family="Times,serif" font-size="14.00"> g2 = PtrToIntCastExpr&lt;int32&gt;(v2)</text>
<text text-anchor="start" x="11" y="-119.3" font-family="Times,serif" font-size="14.00"> free(v2)</text>
<text text-anchor="start" x="11" y="-104.3" font-family="Times,serif" font-size="14.00"> return result</text>
</g>
<!-- Node0x9c74250&#45;&gt;Node0x9c74a80 -->
<g id="edge1" class="edge"><title>Node0x9c74250&#45;&gt;Node0x9c74a80</title>
<path fill="none" stroke="black" d="M217,-261.282C217,-253.089 217,-243.987 217,-234.71"/>
<polygon fill="black" stroke="black" points="220.5,-234.609 217,-224.609 213.5,-234.609 220.5,-234.609"/>
</g>
<!-- Node0x9c74a00 -->
<g id="node3" class="node"><title>Node0x9c74a00</title>
<polygon fill="none" stroke="black" points="190,-23.5 190,-59.5 244,-59.5 244,-23.5 190,-23.5"/>
<text text-anchor="start" x="198" y="-37.8" font-family="Times,serif" font-size="14.00">exit:</text>
</g>
<!-- Node0x9c74a80&#45;&gt;Node0x9c74a00 -->
<g id="edge2" class="edge"><title>Node0x9c74a80&#45;&gt;Node0x9c74a00</title>
<path fill="none" stroke="black" d="M217,-96.206C217,-87.0257 217,-78.004 217,-70.0532"/>
<polygon fill="black" stroke="black" points="220.5,-69.9607 217,-59.9608 213.5,-69.9608 220.5,-69.9607"/>
</g>
</g>
</svg>
