<?xml version="1.0" encoding="UTF-8" standalone="no"?>
<!DOCTYPE svg PUBLIC "-//W3C//DTD SVG 1.1//EN"
 "http://www.w3.org/Graphics/SVG/1.1/DTD/svg11.dtd">
<!-- Generated by graphviz version 2.38.0 (20140413.2041)
 -->
<!-- Title: Control&#45;flow graph for function &#39;mbedtls_md_starts(*a1)&#39;. Pages: 1 -->
<svg width="751pt" height="631pt"
 viewBox="0.00 0.00 750.50 631.00" xmlns="http://www.w3.org/2000/svg" xmlns:xlink="http://www.w3.org/1999/xlink">
<g id="graph0" class="graph" transform="scale(1 1) rotate(0) translate(4 627)">
<title>Control&#45;flow graph for function &#39;mbedtls_md_starts(*a1)&#39;.</title>
<polygon fill="white" stroke="none" points="-4,4 -4,-627 746.5,-627 746.5,4 -4,4"/>
<text text-anchor="middle" x="371.25" y="-7.8" font-family="Times,serif" font-size="14.00">Control&#45;flow graph for function &#39;mbedtls_md_starts(*a1)&#39;.</text>
<!-- Node0x1b6a03a0 -->
<g id="node1" class="node"><title>Node0x1b6a03a0</title>
<polygon fill="none" stroke="black" points="89,-584.5 89,-622.5 148,-622.5 148,-584.5 89,-584.5"/>
<text text-anchor="start" x="97" y="-607.3" font-family="Times,serif" font-size="14.00">entry:</text>
<text text-anchor="start" x="97" y="-592.3" font-family="Times,serif" font-size="14.00"> a1</text>
</g>
<!-- Node0x18170ce0 -->
<g id="node2" class="node"><title>Node0x18170ce0</title>
<polygon fill="none" stroke="black" points="68,-508.5 68,-546.5 169,-546.5 169,-508.5 68,-508.5"/>
<text text-anchor="start" x="76" y="-531.3" font-family="Times,serif" font-size="14.00">v1</text>
<text text-anchor="start" x="76" y="-516.3" font-family="Times,serif" font-size="14.00"> g2 = &amp;(v1)</text>
</g>
<!-- Node0x1b6a03a0&#45;&gt;Node0x18170ce0 -->
<g id="edge1" class="edge"><title>Node0x1b6a03a0&#45;&gt;Node0x18170ce0</title>
<path fill="none" stroke="black" d="M118.5,-584.208C118.5,-575.964 118.5,-566.038 118.5,-556.862"/>
<polygon fill="black" stroke="black" points="122,-556.582 118.5,-546.582 115,-556.582 122,-556.582"/>
</g>
<!-- Node0x1b6a0640 -->
<g id="node3" class="node"><title>Node0x1b6a0640</title>
<polygon fill="none" stroke="black" points="48.5,-434.5 48.5,-470.5 188.5,-470.5 188.5,-434.5 48.5,-434.5"/>
<text text-anchor="start" x="56.5" y="-448.8" font-family="Times,serif" font-size="14.00">if (a1 == NULL):</text>
</g>
<!-- Node0x18170ce0&#45;&gt;Node0x1b6a0640 -->
<g id="edge2" class="edge"><title>Node0x18170ce0&#45;&gt;Node0x1b6a0640</title>
<path fill="none" stroke="black" d="M118.5,-508.455C118.5,-500.201 118.5,-490.238 118.5,-481.074"/>
<polygon fill="black" stroke="black" points="122,-480.835 118.5,-470.835 115,-480.835 122,-480.835"/>
</g>
<!-- Node0x1b6a0210 -->
<g id="node4" class="node"><title>Node0x1b6a0210</title>
<polygon fill="none" stroke="black" points="0,-272.5 0,-310.5 121,-310.5 121,-272.5 0,-272.5"/>
<text text-anchor="start" x="8" y="-295.3" font-family="Times,serif" font-size="14.00">0x806223d:</text>
<text text-anchor="start" x="8" y="-280.3" font-family="Times,serif" font-size="14.00"> return &#45;20736</text>
</g>
<!-- Node0x1b6a0640&#45;&gt;Node0x1b6a0210 -->
<g id="edge3" class="edge"><title>Node0x1b6a0640&#45;&gt;Node0x1b6a0210</title>
<path fill="none" stroke="black" d="M75.7681,-434.493C68.4602,-429.631 61.8368,-423.542 57.5,-416 40.6992,-386.784 45.6545,-346.902 51.9871,-320.456"/>
<polygon fill="black" stroke="black" points="55.3967,-321.251 54.534,-310.692 48.6234,-319.485 55.3967,-321.251"/>
<text text-anchor="middle" x="104.5" y="-404.8" font-family="Times,serif" font-size="14.00">a1 == NULL</text>
</g>
<!-- Node0x1b6a0810 -->
<g id="node5" class="node"><title>Node0x1b6a0810</title>
<polygon fill="none" stroke="black" points="103.5,-329.5 103.5,-382.5 251.5,-382.5 251.5,-329.5 103.5,-329.5"/>
<text text-anchor="start" x="111.5" y="-367.3" font-family="Times,serif" font-size="14.00">v2 = *(a1)</text>
<text text-anchor="start" x="111.5" y="-352.3" font-family="Times,serif" font-size="14.00"> g6 = v2</text>
<text text-anchor="start" x="111.5" y="-337.3" font-family="Times,serif" font-size="14.00"> g237 = (v2 == 0)</text>
</g>
<!-- Node0x1b6a0640&#45;&gt;Node0x1b6a0810 -->
<g id="edge4" class="edge"><title>Node0x1b6a0640&#45;&gt;Node0x1b6a0810</title>
<path fill="none" stroke="black" d="M139.83,-434.158C145.48,-428.787 151.197,-422.546 155.5,-416 160.291,-408.712 164.232,-400.236 167.388,-392.021"/>
<polygon fill="black" stroke="black" points="170.691,-393.178 170.736,-382.583 164.094,-390.837 170.691,-393.178"/>
<text text-anchor="middle" x="207.5" y="-404.8" font-family="Times,serif" font-size="14.00">a1 != NULL</text>
</g>
<!-- Node0x1b69f9d0 -->
<g id="node6" class="node"><title>Node0x1b69f9d0</title>
<polygon fill="none" stroke="black" points="122.5,-23.5 122.5,-59.5 176.5,-59.5 176.5,-23.5 122.5,-23.5"/>
<text text-anchor="start" x="130.5" y="-37.8" font-family="Times,serif" font-size="14.00">exit:</text>
</g>
<!-- Node0x1b6a0210&#45;&gt;Node0x1b69f9d0 -->
<g id="edge5" class="edge"><title>Node0x1b6a0210&#45;&gt;Node0x1b69f9d0</title>
<path fill="none" stroke="black" d="M57.7775,-272.32C53.3103,-236.326 47.8184,-154.504 79.5,-97 87.4257,-82.6143 100.895,-70.7565 113.914,-61.8169"/>
<polygon fill="black" stroke="black" points="115.846,-64.7361 122.342,-56.3665 112.044,-58.8582 115.846,-64.7361"/>
</g>
<!-- Node0x1b6a0950 -->
<g id="node7" class="node"><title>Node0x1b6a0950</title>
<polygon fill="none" stroke="black" points="125,-217.5 125,-253.5 230,-253.5 230,-217.5 125,-217.5"/>
<text text-anchor="start" x="133" y="-231.8" font-family="Times,serif" font-size="14.00">if (v2 == 0):</text>
</g>
<!-- Node0x1b6a0810&#45;&gt;Node0x1b6a0950 -->
<g id="edge6" class="edge"><title>Node0x1b6a0810&#45;&gt;Node0x1b6a0950</title>
<path fill="none" stroke="black" d="M177.5,-329.287C177.5,-309.989 177.5,-283.614 177.5,-263.916"/>
<polygon fill="black" stroke="black" points="181,-263.747 177.5,-253.747 174,-263.747 181,-263.747"/>
</g>
<!-- Node0x1b6a0d60 -->
<g id="node8" class="node"><title>Node0x1b6a0d60</title>
<polygon fill="none" stroke="black" points="89,-112.5 89,-150.5 210,-150.5 210,-112.5 89,-112.5"/>
<text text-anchor="start" x="97" y="-135.3" font-family="Times,serif" font-size="14.00">0x806223d:</text>
<text text-anchor="start" x="97" y="-120.3" font-family="Times,serif" font-size="14.00"> return &#45;20736</text>
</g>
<!-- Node0x1b6a0950&#45;&gt;Node0x1b6a0d60 -->
<g id="edge7" class="edge"><title>Node0x1b6a0950&#45;&gt;Node0x1b6a0d60</title>
<path fill="none" stroke="black" d="M172.75,-217.197C168.478,-201.635 162.127,-178.498 157.141,-160.336"/>
<polygon fill="black" stroke="black" points="160.484,-159.293 154.462,-150.576 153.734,-161.146 160.484,-159.293"/>
<text text-anchor="middle" x="198.5" y="-187.8" font-family="Times,serif" font-size="14.00">v2 == 0</text>
</g>
<!-- Node0x1b6a0a70 -->
<g id="node9" class="node"><title>Node0x1b6a0a70</title>
<polygon fill="none" stroke="black" points="228.5,-97.5 228.5,-165.5 742.5,-165.5 742.5,-97.5 228.5,-97.5"/>
<text text-anchor="start" x="236.5" y="-150.3" font-family="Times,serif" font-size="14.00">v3 = *(IntToPtrCastExpr&lt;ptr&gt;((PtrToIntCastExpr&lt;int32&gt;(a1) + 4)))</text>
<text text-anchor="start" x="236.5" y="-135.3" font-family="Times,serif" font-size="14.00"> g1 = v3</text>
<text text-anchor="start" x="236.5" y="-120.3" font-family="Times,serif" font-size="14.00"> IntToPtrCastExpr&lt;ptr&gt;(*(IntToPtrCastExpr&lt;ptr&gt;((v2 + 16))))(v3)</text>
<text text-anchor="start" x="236.5" y="-105.3" font-family="Times,serif" font-size="14.00"> return 0</text>
</g>
<!-- Node0x1b6a0950&#45;&gt;Node0x1b6a0a70 -->
<g id="edge8" class="edge"><title>Node0x1b6a0950&#45;&gt;Node0x1b6a0a70</title>
<path fill="none" stroke="black" d="M229.052,-217.427C269.112,-204.161 326.098,-185.289 376.181,-168.703"/>
<polygon fill="black" stroke="black" points="377.379,-171.993 385.772,-165.527 375.179,-165.348 377.379,-171.993"/>
<text text-anchor="middle" x="348.5" y="-187.8" font-family="Times,serif" font-size="14.00">v2 != 0</text>
</g>
<!-- Node0x1b6a0d60&#45;&gt;Node0x1b69f9d0 -->
<g id="edge9" class="edge"><title>Node0x1b6a0d60&#45;&gt;Node0x1b69f9d0</title>
<path fill="none" stroke="black" d="M149.5,-112.266C149.5,-100.031 149.5,-83.6924 149.5,-69.9021"/>
<polygon fill="black" stroke="black" points="153,-69.5161 149.5,-59.5162 146,-69.5162 153,-69.5161"/>
</g>
<!-- Node0x1b6a0a70&#45;&gt;Node0x1b69f9d0 -->
<g id="edge10" class="edge"><title>Node0x1b6a0a70&#45;&gt;Node0x1b69f9d0</title>
<path fill="none" stroke="black" d="M359.43,-97.4817C297.672,-81.3068 227.837,-63.0168 186.303,-52.1388"/>
<polygon fill="black" stroke="black" points="187.187,-48.7524 176.626,-49.6045 185.413,-55.524 187.187,-48.7524"/>
</g>
</g>
</svg>
