<?xml version="1.0" encoding="UTF-8" standalone="no"?>
<!DOCTYPE svg PUBLIC "-//W3C//DTD SVG 1.1//EN"
 "http://www.w3.org/Graphics/SVG/1.1/DTD/svg11.dtd">
<!-- Generated by graphviz version 2.38.0 (20140413.2041)
 -->
<!-- Title: Control&#45;flow graph for function &#39;mbedtls_camellia_init(*a1)&#39;. Pages: 1 -->
<svg width="456pt" height="233pt"
 viewBox="0.00 0.00 456.00 233.00" xmlns="http://www.w3.org/2000/svg" xmlns:xlink="http://www.w3.org/1999/xlink">
<g id="graph0" class="graph" transform="scale(1 1) rotate(0) translate(4 229)">
<title>Control&#45;flow graph for function &#39;mbedtls_camellia_init(*a1)&#39;.</title>
<polygon fill="white" stroke="none" points="-4,4 -4,-229 452,-229 452,4 -4,4"/>
<text text-anchor="middle" x="224" y="-7.8" font-family="Times,serif" font-size="14.00">Control&#45;flow graph for function &#39;mbedtls_camellia_init(*a1)&#39;.</text>
<!-- Node0x10198890 -->
<g id="node1" class="node"><title>Node0x10198890</title>
<polygon fill="none" stroke="black" points="194.5,-186.5 194.5,-224.5 253.5,-224.5 253.5,-186.5 194.5,-186.5"/>
<text text-anchor="start" x="202.5" y="-209.3" font-family="Times,serif" font-size="14.00">entry:</text>
<text text-anchor="start" x="202.5" y="-194.3" font-family="Times,serif" font-size="14.00"> a1</text>
</g>
<!-- Node0x1b150980 -->
<g id="node2" class="node"><title>Node0x1b150980</title>
<polygon fill="none" stroke="black" points="148.5,-96.5 148.5,-149.5 299.5,-149.5 299.5,-96.5 148.5,-96.5"/>
<text text-anchor="start" x="156.5" y="-134.3" font-family="Times,serif" font-size="14.00">0x806f510:</text>
<text text-anchor="start" x="156.5" y="-119.3" font-family="Times,serif" font-size="14.00"> memset(a1, 0, 69)</text>
<text text-anchor="start" x="156.5" y="-104.3" font-family="Times,serif" font-size="14.00"> return 0</text>
</g>
<!-- Node0x10198890&#45;&gt;Node0x1b150980 -->
<g id="edge1" class="edge"><title>Node0x10198890&#45;&gt;Node0x1b150980</title>
<path fill="none" stroke="black" d="M224,-186.233C224,-178.347 224,-168.835 224,-159.648"/>
<polygon fill="black" stroke="black" points="227.5,-159.517 224,-149.517 220.5,-159.517 227.5,-159.517"/>
</g>
<!-- Node0xf70b4c0 -->
<g id="node3" class="node"><title>Node0xf70b4c0</title>
<polygon fill="none" stroke="black" points="197,-23.5 197,-59.5 251,-59.5 251,-23.5 197,-23.5"/>
<text text-anchor="start" x="205" y="-37.8" font-family="Times,serif" font-size="14.00">exit:</text>
</g>
<!-- Node0x1b150980&#45;&gt;Node0xf70b4c0 -->
<g id="edge2" class="edge"><title>Node0x1b150980&#45;&gt;Node0xf70b4c0</title>
<path fill="none" stroke="black" d="M224,-96.4081C224,-87.9823 224,-78.5803 224,-70.0174"/>
<polygon fill="black" stroke="black" points="227.5,-69.7564 224,-59.7564 220.5,-69.7565 227.5,-69.7564"/>
</g>
</g>
</svg>
