<?xml version="1.0" encoding="UTF-8" standalone="no"?>
<!DOCTYPE svg PUBLIC "-//W3C//DTD SVG 1.1//EN"
 "http://www.w3.org/Graphics/SVG/1.1/DTD/svg11.dtd">
<!-- Generated by graphviz version 2.38.0 (20140413.2041)
 -->
<!-- Title: Control&#45;flow graph for function &#39;function_804f3e1()&#39;. Pages: 1 -->
<svg width="400pt" height="231pt"
 viewBox="0.00 0.00 400.00 231.00" xmlns="http://www.w3.org/2000/svg" xmlns:xlink="http://www.w3.org/1999/xlink">
<g id="graph0" class="graph" transform="scale(1 1) rotate(0) translate(4 227)">
<title>Control&#45;flow graph for function &#39;function_804f3e1()&#39;.</title>
<polygon fill="white" stroke="none" points="-4,4 -4,-227 396,-227 396,4 -4,4"/>
<text text-anchor="middle" x="196" y="-7.8" font-family="Times,serif" font-size="14.00">Control&#45;flow graph for function &#39;function_804f3e1()&#39;.</text>
<!-- Node0xb4d0870 -->
<g id="node1" class="node"><title>Node0xb4d0870</title>
<polygon fill="none" stroke="black" points="166.5,-186.5 166.5,-222.5 225.5,-222.5 225.5,-186.5 166.5,-186.5"/>
<text text-anchor="start" x="174.5" y="-200.8" font-family="Times,serif" font-size="14.00">entry:</text>
</g>
<!-- Node0xb4d0970 -->
<g id="node2" class="node"><title>Node0xb4d0970</title>
<polygon fill="none" stroke="black" points="75.5,-96.5 75.5,-149.5 316.5,-149.5 316.5,-96.5 75.5,-96.5"/>
<text text-anchor="start" x="83.5" y="-134.3" font-family="Times,serif" font-size="14.00">result = mbedtls_rsa_free(0, 0)</text>
<text text-anchor="start" x="83.5" y="-119.3" font-family="Times,serif" font-size="14.00"> g1 = result</text>
<text text-anchor="start" x="83.5" y="-104.3" font-family="Times,serif" font-size="14.00"> return result</text>
</g>
<!-- Node0xb4d0870&#45;&gt;Node0xb4d0970 -->
<g id="edge1" class="edge"><title>Node0xb4d0870&#45;&gt;Node0xb4d0970</title>
<path fill="none" stroke="black" d="M196,-186.25C196,-178.486 196,-169.014 196,-159.825"/>
<polygon fill="black" stroke="black" points="199.5,-159.676 196,-149.676 192.5,-159.676 199.5,-159.676"/>
</g>
<!-- Node0xe622310 -->
<g id="node3" class="node"><title>Node0xe622310</title>
<polygon fill="none" stroke="black" points="169,-23.5 169,-59.5 223,-59.5 223,-23.5 169,-23.5"/>
<text text-anchor="start" x="177" y="-37.8" font-family="Times,serif" font-size="14.00">exit:</text>
</g>
<!-- Node0xb4d0970&#45;&gt;Node0xe622310 -->
<g id="edge2" class="edge"><title>Node0xb4d0970&#45;&gt;Node0xe622310</title>
<path fill="none" stroke="black" d="M196,-96.4081C196,-87.9823 196,-78.5803 196,-70.0174"/>
<polygon fill="black" stroke="black" points="199.5,-69.7564 196,-59.7564 192.5,-69.7565 199.5,-69.7564"/>
</g>
</g>
</svg>
