<?xml version="1.0" encoding="UTF-8" standalone="no"?>
<!DOCTYPE svg PUBLIC "-//W3C//DTD SVG 1.1//EN"
 "http://www.w3.org/Graphics/SVG/1.1/DTD/svg11.dtd">
<!-- Generated by graphviz version 2.38.0 (20140413.2041)
 -->
<!-- Title: Control&#45;flow graph for function &#39;mbedtls_asn1_get_alg_null(a1, a2, a3, a4)&#39;. Pages: 1 -->
<svg width="893pt" height="616pt"
 viewBox="0.00 0.00 893.00 616.00" xmlns="http://www.w3.org/2000/svg" xmlns:xlink="http://www.w3.org/1999/xlink">
<g id="graph0" class="graph" transform="scale(1 1) rotate(0) translate(4 612)">
<title>Control&#45;flow graph for function &#39;mbedtls_asn1_get_alg_null(a1, a2, a3, a4)&#39;.</title>
<polygon fill="white" stroke="none" points="-4,4 -4,-612 889,-612 889,4 -4,4"/>
<text text-anchor="middle" x="442.5" y="-7.8" font-family="Times,serif" font-size="14.00">Control&#45;flow graph for function &#39;mbedtls_asn1_get_alg_null(a1, a2, a3, a4)&#39;.</text>
<!-- Node0xdce2d60 -->
<g id="node1" class="node"><title>Node0xdce2d60</title>
<polygon fill="none" stroke="black" points="413,-524.5 413,-607.5 472,-607.5 472,-524.5 413,-524.5"/>
<text text-anchor="start" x="421" y="-592.3" font-family="Times,serif" font-size="14.00">entry:</text>
<text text-anchor="start" x="421" y="-577.3" font-family="Times,serif" font-size="14.00"> a1</text>
<text text-anchor="start" x="421" y="-562.3" font-family="Times,serif" font-size="14.00"> a2</text>
<text text-anchor="start" x="421" y="-547.3" font-family="Times,serif" font-size="14.00"> a3</text>
<text text-anchor="start" x="421" y="-532.3" font-family="Times,serif" font-size="14.00"> a4</text>
</g>
<!-- Node0xfb8bbe0 -->
<g id="node2" class="node"><title>Node0xfb8bbe0</title>
<polygon fill="none" stroke="black" points="0,-418.5 0,-486.5 885,-486.5 885,-418.5 0,-418.5"/>
<text text-anchor="start" x="8" y="-471.3" font-family="Times,serif" font-size="14.00">v1 = 0</text>
<text text-anchor="start" x="8" y="-456.3" font-family="Times,serif" font-size="14.00"> result = mbedtls_asn1_get_alg(IntToPtrCastExpr&lt;ptr&gt;(a1), a2, IntToPtrCastExpr&lt;ptr&gt;(a3), BitCastExpr&lt;ptr&gt;(&amp;(v1)))</text>
<text text-anchor="start" x="8" y="-441.3" font-family="Times,serif" font-size="14.00"> g1 = result</text>
<text text-anchor="start" x="8" y="-426.3" font-family="Times,serif" font-size="14.00"> v2</text>
</g>
<!-- Node0xdce2d60&#45;&gt;Node0xfb8bbe0 -->
<g id="edge1" class="edge"><title>Node0xdce2d60&#45;&gt;Node0xfb8bbe0</title>
<path fill="none" stroke="black" d="M442.5,-524.431C442.5,-515.382 442.5,-505.757 442.5,-496.61"/>
<polygon fill="black" stroke="black" points="446,-496.543 442.5,-486.543 439,-496.544 446,-496.543"/>
</g>
<!-- Node0xc1d0f40 -->
<g id="node3" class="node"><title>Node0xc1d0f40</title>
<polygon fill="none" stroke="black" points="380.5,-344.5 380.5,-380.5 504.5,-380.5 504.5,-344.5 380.5,-344.5"/>
<text text-anchor="start" x="388.5" y="-358.8" font-family="Times,serif" font-size="14.00">if (result != 0):</text>
</g>
<!-- Node0xfb8bbe0&#45;&gt;Node0xc1d0f40 -->
<g id="edge2" class="edge"><title>Node0xfb8bbe0&#45;&gt;Node0xc1d0f40</title>
<path fill="none" stroke="black" d="M442.5,-418.482C442.5,-409.328 442.5,-399.497 442.5,-390.715"/>
<polygon fill="black" stroke="black" points="446,-390.64 442.5,-380.64 439,-390.64 446,-390.64"/>
</g>
<!-- Node0xc1d0e90 -->
<g id="node4" class="node"><title>Node0xc1d0e90</title>
<polygon fill="none" stroke="black" points="328,-184.5 328,-237.5 441,-237.5 441,-184.5 328,-184.5"/>
<text text-anchor="start" x="336" y="-222.3" font-family="Times,serif" font-size="14.00">0x80561df:</text>
<text text-anchor="start" x="336" y="-207.3" font-family="Times,serif" font-size="14.00"> g2 = v2</text>
<text text-anchor="start" x="336" y="-192.3" font-family="Times,serif" font-size="14.00"> return result</text>
</g>
<!-- Node0xc1d0f40&#45;&gt;Node0xc1d0e90 -->
<g id="edge3" class="edge"><title>Node0xc1d0f40&#45;&gt;Node0xc1d0e90</title>
<path fill="none" stroke="black" d="M410.443,-344.435C403.782,-339.389 397.561,-333.238 393.5,-326 380.214,-302.321 378.555,-271.406 379.892,-247.745"/>
<polygon fill="black" stroke="black" points="383.382,-248.002 380.654,-237.764 376.403,-247.469 383.382,-248.002"/>
<text text-anchor="middle" x="433" y="-314.8" font-family="Times,serif" font-size="14.00">result != 0</text>
</g>
<!-- Node0xc1d1200 -->
<g id="node5" class="node"><title>Node0xc1d1200</title>
<polygon fill="none" stroke="black" points="413,-256.5 413,-292.5 622,-292.5 622,-256.5 413,-256.5"/>
<text text-anchor="start" x="421" y="-270.8" font-family="Times,serif" font-size="14.00">if ((v1 == 0) or (v1 == 5)):</text>
</g>
<!-- Node0xc1d0f40&#45;&gt;Node0xc1d1200 -->
<g id="edge4" class="edge"><title>Node0xc1d0f40&#45;&gt;Node0xc1d1200</title>
<path fill="none" stroke="black" d="M457.677,-344.097C468.626,-331.542 483.567,-314.41 495.778,-300.408"/>
<polygon fill="black" stroke="black" points="498.666,-302.421 502.601,-292.584 493.391,-297.82 498.666,-302.421"/>
<text text-anchor="middle" x="527" y="-314.8" font-family="Times,serif" font-size="14.00">result == 0</text>
</g>
<!-- Node0xdce5010 -->
<g id="node6" class="node"><title>Node0xdce5010</title>
<polygon fill="none" stroke="black" points="437.5,-23.5 437.5,-59.5 491.5,-59.5 491.5,-23.5 437.5,-23.5"/>
<text text-anchor="start" x="445.5" y="-37.8" font-family="Times,serif" font-size="14.00">exit:</text>
</g>
<!-- Node0xc1d0e90&#45;&gt;Node0xdce5010 -->
<g id="edge5" class="edge"><title>Node0xc1d0e90&#45;&gt;Node0xdce5010</title>
<path fill="none" stroke="black" d="M385.051,-184.238C386.559,-160.286 391.432,-124.296 406.5,-97 412.928,-85.3551 422.723,-74.7615 432.444,-66.0752"/>
<polygon fill="black" stroke="black" points="434.795,-68.671 440.159,-59.5342 430.268,-63.3318 434.795,-68.671"/>
</g>
<!-- Node0xc1d1960 -->
<g id="node7" class="node"><title>Node0xc1d1960</title>
<polygon fill="none" stroke="black" points="416,-105 416,-158 513,-158 513,-105 416,-105"/>
<text text-anchor="start" x="424" y="-142.8" font-family="Times,serif" font-size="14.00">0x80561fe:</text>
<text text-anchor="start" x="424" y="-127.8" font-family="Times,serif" font-size="14.00"> g2 = v2</text>
<text text-anchor="start" x="424" y="-112.8" font-family="Times,serif" font-size="14.00"> return 0</text>
</g>
<!-- Node0xc1d1200&#45;&gt;Node0xc1d1960 -->
<g id="edge6" class="edge"><title>Node0xc1d1200&#45;&gt;Node0xc1d1960</title>
<path fill="none" stroke="black" d="M482.333,-256.397C475.588,-251.433 469.414,-245.328 465.5,-238 454.226,-216.896 454.197,-189.861 456.873,-168.442"/>
<polygon fill="black" stroke="black" points="460.353,-168.836 458.366,-158.429 453.429,-167.804 460.353,-168.836"/>
<text text-anchor="middle" x="547.5" y="-207.3" font-family="Times,serif" font-size="14.00">(v1 == 0) or (v1 == 5)</text>
</g>
<!-- Node0xc1d1820 -->
<g id="node8" class="node"><title>Node0xc1d1820</title>
<polygon fill="none" stroke="black" points="565,-97.5 565,-165.5 668,-165.5 668,-97.5 565,-97.5"/>
<text text-anchor="start" x="573" y="-150.3" font-family="Times,serif" font-size="14.00">0x80561f7:</text>
<text text-anchor="start" x="573" y="-135.3" font-family="Times,serif" font-size="14.00"> g1 = &#45;104</text>
<text text-anchor="start" x="573" y="-120.3" font-family="Times,serif" font-size="14.00"> g2 = v2</text>
<text text-anchor="start" x="573" y="-105.3" font-family="Times,serif" font-size="14.00"> return &#45;104</text>
</g>
<!-- Node0xc1d1200&#45;&gt;Node0xc1d1820 -->
<g id="edge7" class="edge"><title>Node0xc1d1200&#45;&gt;Node0xc1d1820</title>
<path fill="none" stroke="black" d="M608.5,-256.465C616.635,-251.698 623.897,-245.653 629.5,-238 642.428,-220.34 640.588,-196.402 634.889,-175.791"/>
<polygon fill="black" stroke="black" points="638.148,-174.487 631.828,-165.983 631.466,-176.572 638.148,-174.487"/>
<text text-anchor="middle" x="720" y="-207.3" font-family="Times,serif" font-size="14.00">(v1 != 0) and (v1 != 5)</text>
</g>
<!-- Node0xc1d1960&#45;&gt;Node0xdce5010 -->
<g id="edge8" class="edge"><title>Node0xc1d1960&#45;&gt;Node0xdce5010</title>
<path fill="none" stroke="black" d="M464.5,-104.573C464.5,-93.5849 464.5,-80.7766 464.5,-69.6581"/>
<polygon fill="black" stroke="black" points="468,-69.6304 464.5,-59.6304 461,-69.6305 468,-69.6304"/>
</g>
<!-- Node0xc1d1820&#45;&gt;Node0xdce5010 -->
<g id="edge9" class="edge"><title>Node0xc1d1820&#45;&gt;Node0xdce5010</title>
<path fill="none" stroke="black" d="M564.615,-100.462C543.53,-88.2542 519.682,-74.4474 500.552,-63.372"/>
<polygon fill="black" stroke="black" points="502.255,-60.3141 491.847,-58.3327 498.748,-66.3721 502.255,-60.3141"/>
</g>
</g>
</svg>
