<?xml version="1.0" encoding="UTF-8" standalone="no"?>
<!DOCTYPE svg PUBLIC "-//W3C//DTD SVG 1.1//EN"
 "http://www.w3.org/Graphics/SVG/1.1/DTD/svg11.dtd">
<!-- Generated by graphviz version 2.38.0 (20140413.2041)
 -->
<!-- Title: Control&#45;flow graph for function &#39;ccm_camellia_setkey_wrap(a1, a2, a3)&#39;. Pages: 1 -->
<svg width="540pt" height="293pt"
 viewBox="0.00 0.00 540.00 293.00" xmlns="http://www.w3.org/2000/svg" xmlns:xlink="http://www.w3.org/1999/xlink">
<g id="graph0" class="graph" transform="scale(1 1) rotate(0) translate(4 289)">
<title>Control&#45;flow graph for function &#39;ccm_camellia_setkey_wrap(a1, a2, a3)&#39;.</title>
<polygon fill="white" stroke="none" points="-4,4 -4,-289 536,-289 536,4 -4,4"/>
<text text-anchor="middle" x="266" y="-7.8" font-family="Times,serif" font-size="14.00">Control&#45;flow graph for function &#39;ccm_camellia_setkey_wrap(a1, a2, a3)&#39;.</text>
<!-- Node0x26ff4690 -->
<g id="node1" class="node"><title>Node0x26ff4690</title>
<polygon fill="none" stroke="black" points="236.5,-216.5 236.5,-284.5 295.5,-284.5 295.5,-216.5 236.5,-216.5"/>
<text text-anchor="start" x="244.5" y="-269.3" font-family="Times,serif" font-size="14.00">entry:</text>
<text text-anchor="start" x="244.5" y="-254.3" font-family="Times,serif" font-size="14.00"> a1</text>
<text text-anchor="start" x="244.5" y="-239.3" font-family="Times,serif" font-size="14.00"> a2</text>
<text text-anchor="start" x="244.5" y="-224.3" font-family="Times,serif" font-size="14.00"> a3</text>
</g>
<!-- Node0xd9daeb0 -->
<g id="node2" class="node"><title>Node0xd9daeb0</title>
<polygon fill="none" stroke="black" points="102,-96.5 102,-179.5 430,-179.5 430,-96.5 102,-96.5"/>
<text text-anchor="start" x="110" y="-164.3" font-family="Times,serif" font-size="14.00">result = mbedtls_ccm_setkey(a1, 5, a2, a3)</text>
<text text-anchor="start" x="110" y="-149.3" font-family="Times,serif" font-size="14.00"> g1 = result</text>
<text text-anchor="start" x="110" y="-134.3" font-family="Times,serif" font-size="14.00"> v1</text>
<text text-anchor="start" x="110" y="-119.3" font-family="Times,serif" font-size="14.00"> g2 = v1</text>
<text text-anchor="start" x="110" y="-104.3" font-family="Times,serif" font-size="14.00"> return result</text>
</g>
<!-- Node0x26ff4690&#45;&gt;Node0xd9daeb0 -->
<g id="edge1" class="edge"><title>Node0x26ff4690&#45;&gt;Node0xd9daeb0</title>
<path fill="none" stroke="black" d="M266,-216.346C266,-207.94 266,-198.717 266,-189.659"/>
<polygon fill="black" stroke="black" points="269.5,-189.555 266,-179.555 262.5,-189.555 269.5,-189.555"/>
</g>
<!-- Node0xb4dcce0 -->
<g id="node3" class="node"><title>Node0xb4dcce0</title>
<polygon fill="none" stroke="black" points="239,-23.5 239,-59.5 293,-59.5 293,-23.5 239,-23.5"/>
<text text-anchor="start" x="247" y="-37.8" font-family="Times,serif" font-size="14.00">exit:</text>
</g>
<!-- Node0xd9daeb0&#45;&gt;Node0xb4dcce0 -->
<g id="edge2" class="edge"><title>Node0xd9daeb0&#45;&gt;Node0xb4dcce0</title>
<path fill="none" stroke="black" d="M266,-96.3751C266,-87.4706 266,-78.246 266,-70"/>
<polygon fill="black" stroke="black" points="269.5,-69.8327 266,-59.8328 262.5,-69.8328 269.5,-69.8327"/>
</g>
</g>
</svg>
