<?xml version="1.0" encoding="UTF-8" standalone="no"?>
<!DOCTYPE svg PUBLIC "-//W3C//DTD SVG 1.1//EN"
 "http://www.w3.org/Graphics/SVG/1.1/DTD/svg11.dtd">
<!-- Generated by graphviz version 2.38.0 (20140413.2041)
 -->
<!-- Title: Control&#45;flow graph for function &#39;loadRSA(a1, **a2, a3, a4, a5, a6)&#39;. Pages: 1 -->
<svg width="1834pt" height="1095pt"
 viewBox="0.00 0.00 1833.50 1095.00" xmlns="http://www.w3.org/2000/svg" xmlns:xlink="http://www.w3.org/1999/xlink">
<g id="graph0" class="graph" transform="scale(1 1) rotate(0) translate(4 1091)">
<title>Control&#45;flow graph for function &#39;loadRSA(a1, **a2, a3, a4, a5, a6)&#39;.</title>
<polygon fill="white" stroke="none" points="-4,4 -4,-1091 1829.5,-1091 1829.5,4 -4,4"/>
<text text-anchor="middle" x="912.75" y="-7.8" font-family="Times,serif" font-size="14.00">Control&#45;flow graph for function &#39;loadRSA(a1, **a2, a3, a4, a5, a6)&#39;.</text>
<!-- Node0xf1d9360 -->
<g id="node1" class="node"><title>Node0xf1d9360</title>
<polygon fill="none" stroke="black" points="1200.5,-973.5 1200.5,-1086.5 1259.5,-1086.5 1259.5,-973.5 1200.5,-973.5"/>
<text text-anchor="start" x="1208.5" y="-1071.3" font-family="Times,serif" font-size="14.00">entry:</text>
<text text-anchor="start" x="1208.5" y="-1056.3" font-family="Times,serif" font-size="14.00"> a1</text>
<text text-anchor="start" x="1208.5" y="-1041.3" font-family="Times,serif" font-size="14.00"> a2</text>
<text text-anchor="start" x="1208.5" y="-1026.3" font-family="Times,serif" font-size="14.00"> a3</text>
<text text-anchor="start" x="1208.5" y="-1011.3" font-family="Times,serif" font-size="14.00"> a4</text>
<text text-anchor="start" x="1208.5" y="-996.3" font-family="Times,serif" font-size="14.00"> a5</text>
<text text-anchor="start" x="1208.5" y="-981.3" font-family="Times,serif" font-size="14.00"> a6</text>
</g>
<!-- Node0xf1dc340 -->
<g id="node2" class="node"><title>Node0xf1dc340</title>
<polygon fill="none" stroke="black" points="634.5,-747.5 634.5,-935.5 1825.5,-935.5 1825.5,-747.5 634.5,-747.5"/>
<text text-anchor="start" x="642.5" y="-920.3" font-family="Times,serif" font-size="14.00">v1 = g5</text>
<text text-anchor="start" x="642.5" y="-905.3" font-family="Times,serif" font-size="14.00"> v2 = g7</text>
<text text-anchor="start" x="642.5" y="-890.3" font-family="Times,serif" font-size="14.00"> v3 = g3</text>
<text text-anchor="start" x="642.5" y="-875.3" font-family="Times,serif" font-size="14.00"> g3 = a1</text>
<text text-anchor="start" x="642.5" y="-860.3" font-family="Times,serif" font-size="14.00"> g7 = PtrToIntCastExpr&lt;int32&gt;(a2)</text>
<text text-anchor="start" x="642.5" y="-845.3" font-family="Times,serif" font-size="14.00"> mbedtls_ctr_drbg_init(BitCastExpr&lt;ptr&gt;(&amp;(g224)))</text>
<text text-anchor="start" x="642.5" y="-830.3" font-family="Times,serif" font-size="14.00"> mbedtls_entropy_init(BitCastExpr&lt;ptr&gt;(&amp;(g223)))</text>
<text text-anchor="start" x="642.5" y="-815.3" font-family="Times,serif" font-size="14.00"> str = *(BitCastExpr&lt;ptr&gt;(&amp;(g189)))</text>
<text text-anchor="start" x="642.5" y="-800.3" font-family="Times,serif" font-size="14.00"> g5 = str</text>
<text text-anchor="start" x="642.5" y="-785.3" font-family="Times,serif" font-size="14.00"> len = strlen(IntToPtrCastExpr&lt;ptr&gt;(str))</text>
<text text-anchor="start" x="642.5" y="-770.3" font-family="Times,serif" font-size="14.00"> v4 = mbedtls_ctr_drbg_seed(PtrToIntCastExpr&lt;int32&gt;(&amp;(g224)), PtrToIntCastExpr&lt;int32&gt;(mbedtls_entropy_func), PtrToIntCastExpr&lt;int32&gt;(&amp;(g223)), str, len)</text>
<text text-anchor="start" x="642.5" y="-755.3" font-family="Times,serif" font-size="14.00"> format</text>
</g>
<!-- Node0xf1d9360&#45;&gt;Node0xf1dc340 -->
<g id="edge1" class="edge"><title>Node0xf1d9360&#45;&gt;Node0xf1dc340</title>
<path fill="none" stroke="black" d="M1230,-973.296C1230,-964.547 1230,-955.268 1230,-945.85"/>
<polygon fill="black" stroke="black" points="1233.5,-945.595 1230,-935.595 1226.5,-945.595 1233.5,-945.595"/>
</g>
<!-- Node0xf1dba20 -->
<g id="node3" class="node"><title>Node0xf1dba20</title>
<polygon fill="none" stroke="black" points="1177.5,-671.5 1177.5,-709.5 1282.5,-709.5 1282.5,-671.5 1177.5,-671.5"/>
<text text-anchor="start" x="1185.5" y="-694.3" font-family="Times,serif" font-size="14.00">if (v4 == 0):</text>
<text text-anchor="start" x="1185.5" y="-679.3" font-family="Times,serif" font-size="14.00"> else:</text>
</g>
<!-- Node0xf1dc340&#45;&gt;Node0xf1dba20 -->
<g id="edge2" class="edge"><title>Node0xf1dc340&#45;&gt;Node0xf1dba20</title>
<path fill="none" stroke="black" d="M1230,-747.406C1230,-737.426 1230,-727.921 1230,-719.673"/>
<polygon fill="black" stroke="black" points="1233.5,-719.619 1230,-709.619 1226.5,-719.619 1233.5,-719.619"/>
</g>
<!-- Node0x163a9fe0 -->
<g id="node4" class="node"><title>Node0x163a9fe0</title>
<polygon fill="none" stroke="black" points="998.5,-581.5 998.5,-619.5 1237.5,-619.5 1237.5,-581.5 998.5,-581.5"/>
<text text-anchor="start" x="1006.5" y="-604.3" font-family="Times,serif" font-size="14.00">v5 = mbedtls_pk_init(&amp;(g225))</text>
<text text-anchor="start" x="1006.5" y="-589.3" font-family="Times,serif" font-size="14.00"> v6</text>
</g>
<!-- Node0xf1dba20&#45;&gt;Node0x163a9fe0 -->
<g id="edge3" class="edge"><title>Node0xf1dba20&#45;&gt;Node0x163a9fe0</title>
<path fill="none" stroke="black" d="M1207.06,-671.48C1190.42,-658.398 1167.69,-640.543 1149.36,-626.142"/>
<polygon fill="black" stroke="black" points="1151.31,-623.225 1141.29,-619.799 1146.99,-628.729 1151.31,-623.225"/>
<text text-anchor="middle" x="1211" y="-641.8" font-family="Times,serif" font-size="14.00">v4 == 0</text>
</g>
<!-- Node0x163aa780 -->
<g id="node5" class="node"><title>Node0x163aa780</title>
<polygon fill="none" stroke="black" points="1078.5,-524.5 1078.5,-562.5 1569.5,-562.5 1569.5,-524.5 1078.5,-524.5"/>
<text text-anchor="start" x="1086.5" y="-547.3" font-family="Times,serif" font-size="14.00">0x8048bc8:</text>
<text text-anchor="start" x="1086.5" y="-532.3" font-family="Times,serif" font-size="14.00"> format = &quot; failed\n ! mbedtls_ctr_drbg_seed returned &#45;0x%04x\n&quot;</text>
</g>
<!-- Node0xf1dba20&#45;&gt;Node0x163aa780 -->
<g id="edge4" class="edge"><title>Node0xf1dba20&#45;&gt;Node0x163aa780</title>
<path fill="none" stroke="black" d="M1241.72,-671.429C1258.04,-646.248 1287.75,-600.423 1306.65,-571.27"/>
<polygon fill="black" stroke="black" points="1309.63,-573.094 1312.14,-562.799 1303.76,-569.286 1309.63,-573.094"/>
<text text-anchor="middle" x="1290" y="-641.8" font-family="Times,serif" font-size="14.00">v4 != 0</text>
</g>
<!-- Node0xf1dc3f0 -->
<g id="node6" class="node"><title>Node0xf1dc3f0</title>
<polygon fill="none" stroke="black" points="1001,-467.5 1001,-505.5 1107,-505.5 1107,-467.5 1001,-467.5"/>
<text text-anchor="start" x="1009" y="-490.3" font-family="Times,serif" font-size="14.00">if (g7 == 0):</text>
<text text-anchor="start" x="1009" y="-475.3" font-family="Times,serif" font-size="14.00"> else:</text>
</g>
<!-- Node0x163a9fe0&#45;&gt;Node0xf1dc3f0 -->
<g id="edge5" class="edge"><title>Node0x163a9fe0&#45;&gt;Node0xf1dc3f0</title>
<path fill="none" stroke="black" d="M1090.72,-581.34C1084.47,-576.067 1078.38,-569.858 1074,-563 1064.95,-548.841 1059.98,-530.698 1057.25,-515.747"/>
<polygon fill="black" stroke="black" points="1060.66,-514.858 1055.64,-505.526 1053.74,-515.949 1060.66,-514.858"/>
</g>
<!-- Node0x92c5e90 -->
<g id="node7" class="node"><title>Node0x92c5e90</title>
<polygon fill="none" stroke="black" points="1281,-380.5 1281,-448.5 1439,-448.5 1439,-380.5 1281,-380.5"/>
<text text-anchor="start" x="1289" y="-433.3" font-family="Times,serif" font-size="14.00">0x8048c17:</text>
<text text-anchor="start" x="1289" y="-418.3" font-family="Times,serif" font-size="14.00"> printf(format)</text>
<text text-anchor="start" x="1289" y="-403.3" font-family="Times,serif" font-size="14.00"> exit(1)</text>
<text text-anchor="start" x="1289" y="-388.3" font-family="Times,serif" font-size="14.00"> # UNREACHABLE</text>
</g>
<!-- Node0x163aa780&#45;&gt;Node0x92c5e90 -->
<g id="edge6" class="edge"><title>Node0x163aa780&#45;&gt;Node0x92c5e90</title>
<path fill="none" stroke="black" d="M1329.16,-524.304C1334.02,-507.157 1341.49,-480.814 1347.86,-458.343"/>
<polygon fill="black" stroke="black" points="1351.24,-459.24 1350.6,-448.664 1344.5,-457.331 1351.24,-459.24"/>
</g>
<!-- Node0x163aa7e0 -->
<g id="node8" class="node"><title>Node0x163aa7e0</title>
<polygon fill="none" stroke="black" points="0,-323.5 0,-361.5 754,-361.5 754,-323.5 0,-323.5"/>
<text text-anchor="start" x="8" y="-346.3" font-family="Times,serif" font-size="14.00">0x8048bf7:</text>
<text text-anchor="start" x="8" y="-331.3" font-family="Times,serif" font-size="14.00"> v6 = mbedtls_pk_parse_keyfile(BitCastExpr&lt;ptr&gt;(&amp;(g225)), g3, PtrToIntCastExpr&lt;int32&gt;(&amp;(g109)))</text>
</g>
<!-- Node0xf1dc3f0&#45;&gt;Node0x163aa7e0 -->
<g id="edge7" class="edge"><title>Node0xf1dc3f0&#45;&gt;Node0x163aa7e0</title>
<path fill="none" stroke="black" d="M1000.88,-474.357C886.953,-450.462 617.778,-394.003 473.046,-363.646"/>
<polygon fill="black" stroke="black" points="473.35,-360.133 462.844,-361.506 471.913,-366.984 473.35,-360.133"/>
<text text-anchor="middle" x="903.5" y="-410.8" font-family="Times,serif" font-size="14.00">g7 == 0</text>
</g>
<!-- Node0x163aa840 -->
<g id="node9" class="node"><title>Node0x163aa840</title>
<polygon fill="none" stroke="black" points="772,-323.5 772,-361.5 1336,-361.5 1336,-323.5 772,-323.5"/>
<text text-anchor="start" x="780" y="-346.3" font-family="Times,serif" font-size="14.00">0x8048be8:</text>
<text text-anchor="start" x="780" y="-331.3" font-family="Times,serif" font-size="14.00"> v6 = mbedtls_pk_parse_public_keyfile(BitCastExpr&lt;ptr&gt;(&amp;(g225)), g3, v5)</text>
</g>
<!-- Node0xf1dc3f0&#45;&gt;Node0x163aa840 -->
<g id="edge8" class="edge"><title>Node0xf1dc3f0&#45;&gt;Node0x163aa840</title>
<path fill="none" stroke="black" d="M1054,-467.227C1054,-443.05 1054,-400.185 1054,-371.803"/>
<polygon fill="black" stroke="black" points="1057.5,-371.703 1054,-361.703 1050.5,-371.703 1057.5,-371.703"/>
<text text-anchor="middle" x="1081.5" y="-410.8" font-family="Times,serif" font-size="14.00">g7 != 0</text>
</g>
<!-- Node0xf1dc2e0 -->
<g id="node10" class="node"><title>Node0xf1dc2e0</title>
<polygon fill="none" stroke="black" points="1193,-23.5 1193,-59.5 1247,-59.5 1247,-23.5 1193,-23.5"/>
<text text-anchor="start" x="1201" y="-37.8" font-family="Times,serif" font-size="14.00">exit:</text>
</g>
<!-- Node0x92c5e90&#45;&gt;Node0xf1dc2e0 -->
<g id="edge9" class="edge"><title>Node0x92c5e90&#45;&gt;Node0xf1dc2e0</title>
<path fill="none" stroke="black" d="M1361.86,-380.271C1362.9,-358.802 1364,-330.258 1364,-305 1364,-305 1364,-305 1364,-145.5 1364,-122.349 1361.06,-113.676 1345,-97 1321.23,-72.3191 1284.39,-58.1257 1256.85,-50.45"/>
<polygon fill="black" stroke="black" points="1257.73,-47.0617 1247.16,-47.9097 1255.95,-53.8326 1257.73,-47.0617"/>
</g>
<!-- Node0x163aa2b0 -->
<g id="node11" class="node"><title>Node0x163aa2b0</title>
<polygon fill="none" stroke="black" points="921,-247.5 921,-285.5 1031,-285.5 1031,-247.5 921,-247.5"/>
<text text-anchor="start" x="929" y="-270.3" font-family="Times,serif" font-size="14.00">0x8048c08:</text>
<text text-anchor="start" x="929" y="-255.3" font-family="Times,serif" font-size="14.00"> if (v6 == 0):</text>
</g>
<!-- Node0x163aa7e0&#45;&gt;Node0x163aa2b0 -->
<g id="edge10" class="edge"><title>Node0x163aa7e0&#45;&gt;Node0x163aa2b0</title>
<path fill="none" stroke="black" d="M522.766,-323.492C646.434,-308.214 818.081,-287.009 910.615,-275.578"/>
<polygon fill="black" stroke="black" points="911.186,-279.034 920.681,-274.334 910.327,-272.087 911.186,-279.034"/>
</g>
<!-- Node0x163aa840&#45;&gt;Node0x163aa2b0 -->
<g id="edge11" class="edge"><title>Node0x163aa840&#45;&gt;Node0x163aa2b0</title>
<path fill="none" stroke="black" d="M1034.72,-323.208C1024.99,-313.978 1013.04,-302.64 1002.46,-292.607"/>
<polygon fill="black" stroke="black" points="1004.72,-289.925 995.059,-285.582 999.905,-295.003 1004.72,-289.925"/>
</g>
<!-- Node0x163aa8a0 -->
<g id="node12" class="node"><title>Node0x163aa8a0</title>
<polygon fill="none" stroke="black" points="743.5,-97.5 743.5,-195.5 1086.5,-195.5 1086.5,-97.5 743.5,-97.5"/>
<text text-anchor="start" x="751.5" y="-180.3" font-family="Times,serif" font-size="14.00">0x8048c28:</text>
<text text-anchor="start" x="751.5" y="-165.3" font-family="Times,serif" font-size="14.00"> g3 = v3</text>
<text text-anchor="start" x="751.5" y="-150.3" font-family="Times,serif" font-size="14.00"> g7 = v2</text>
<text text-anchor="start" x="751.5" y="-135.3" font-family="Times,serif" font-size="14.00"> g5 = v1</text>
<text text-anchor="start" x="751.5" y="-120.3" font-family="Times,serif" font-size="14.00"> path</text>
<text text-anchor="start" x="751.5" y="-105.3" font-family="Times,serif" font-size="14.00"> return unlink(IntToPtrCastExpr&lt;ptr&gt;(path))</text>
</g>
<!-- Node0x163aa2b0&#45;&gt;Node0x163aa8a0 -->
<g id="edge12" class="edge"><title>Node0x163aa2b0&#45;&gt;Node0x163aa8a0</title>
<path fill="none" stroke="black" d="M966.602,-247.321C960.624,-235.756 952.524,-220.087 944.514,-204.593"/>
<polygon fill="black" stroke="black" points="947.527,-202.799 939.825,-195.523 941.309,-206.014 947.527,-202.799"/>
<text text-anchor="middle" x="987" y="-217.8" font-family="Times,serif" font-size="14.00">v6 == 0</text>
</g>
<!-- Node0x163aa720 -->
<g id="node13" class="node"><title>Node0x163aa720</title>
<polygon fill="none" stroke="black" points="1104,-128.5 1104,-164.5 1336,-164.5 1336,-128.5 1104,-128.5"/>
<text text-anchor="start" x="1112" y="-142.8" font-family="Times,serif" font-size="14.00">format = &quot;error loading %s\n&quot;</text>
</g>
<!-- Node0x163aa2b0&#45;&gt;Node0x163aa720 -->
<g id="edge13" class="edge"><title>Node0x163aa2b0&#45;&gt;Node0x163aa720</title>
<path fill="none" stroke="black" d="M1013.32,-247.45C1056.91,-226.37 1128.96,-191.529 1175.44,-169.051"/>
<polygon fill="black" stroke="black" points="1177.18,-172.094 1184.66,-164.589 1174.14,-165.792 1177.18,-172.094"/>
<text text-anchor="middle" x="1104" y="-217.8" font-family="Times,serif" font-size="14.00">v6 != 0</text>
</g>
<!-- Node0x163aa8a0&#45;&gt;Node0xf1dc2e0 -->
<g id="edge14" class="edge"><title>Node0x163aa8a0&#45;&gt;Node0xf1dc2e0</title>
<path fill="none" stroke="black" d="M1057.23,-97.4679C1103.76,-81.7562 1151.56,-65.612 1183.22,-54.9205"/>
<polygon fill="black" stroke="black" points="1184.56,-58.164 1192.91,-51.6483 1182.32,-51.5319 1184.56,-58.164"/>
</g>
<!-- Node0x163aa720&#45;&gt;Node0xf1dc2e0 -->
<g id="edge15" class="edge"><title>Node0x163aa720&#45;&gt;Node0xf1dc2e0</title>
<path fill="none" stroke="black" d="M1220,-128.492C1220,-112.538 1220,-88.4128 1220,-69.772"/>
<polygon fill="black" stroke="black" points="1223.5,-69.5336 1220,-59.5336 1216.5,-69.5337 1223.5,-69.5336"/>
</g>
</g>
</svg>
