<?xml version="1.0" encoding="UTF-8" standalone="no"?>
<!DOCTYPE svg PUBLIC "-//W3C//DTD SVG 1.1//EN"
 "http://www.w3.org/Graphics/SVG/1.1/DTD/svg11.dtd">
<!-- Generated by graphviz version 2.38.0 (20140413.2041)
 -->
<!-- Title: Control&#45;flow graph for function &#39;sha1_process_wrap(a1)&#39;. Pages: 1 -->
<svg width="492pt" height="278pt"
 viewBox="0.00 0.00 492.00 278.00" xmlns="http://www.w3.org/2000/svg" xmlns:xlink="http://www.w3.org/1999/xlink">
<g id="graph0" class="graph" transform="scale(1 1) rotate(0) translate(4 274)">
<title>Control&#45;flow graph for function &#39;sha1_process_wrap(a1)&#39;.</title>
<polygon fill="white" stroke="none" points="-4,4 -4,-274 488,-274 488,4 -4,4"/>
<text text-anchor="middle" x="242" y="-7.8" font-family="Times,serif" font-size="14.00">Control&#45;flow graph for function &#39;sha1_process_wrap(a1)&#39;.</text>
<!-- Node0x22fcd030 -->
<g id="node1" class="node"><title>Node0x22fcd030</title>
<polygon fill="none" stroke="black" points="212.5,-231.5 212.5,-269.5 271.5,-269.5 271.5,-231.5 212.5,-231.5"/>
<text text-anchor="start" x="220.5" y="-254.3" font-family="Times,serif" font-size="14.00">entry:</text>
<text text-anchor="start" x="220.5" y="-239.3" font-family="Times,serif" font-size="14.00"> a1</text>
</g>
<!-- Node0x15ae86b0 -->
<g id="node2" class="node"><title>Node0x15ae86b0</title>
<polygon fill="none" stroke="black" points="-2.84217e-14,-96.5 -2.84217e-14,-194.5 484,-194.5 484,-96.5 -2.84217e-14,-96.5"/>
<text text-anchor="start" x="8" y="-179.3" font-family="Times,serif" font-size="14.00">0x8062ce0:</text>
<text text-anchor="start" x="8" y="-164.3" font-family="Times,serif" font-size="14.00"> v1</text>
<text text-anchor="start" x="8" y="-149.3" font-family="Times,serif" font-size="14.00"> v2</text>
<text text-anchor="start" x="8" y="-134.3" font-family="Times,serif" font-size="14.00"> result = mbedtls_sha1_process(v2, IntToPtrCastExpr&lt;ptr&gt;(v1))</text>
<text text-anchor="start" x="8" y="-119.3" font-family="Times,serif" font-size="14.00"> g1 = result</text>
<text text-anchor="start" x="8" y="-104.3" font-family="Times,serif" font-size="14.00"> return result</text>
</g>
<!-- Node0x22fcd030&#45;&gt;Node0x15ae86b0 -->
<g id="edge1" class="edge"><title>Node0x22fcd030&#45;&gt;Node0x15ae86b0</title>
<path fill="none" stroke="black" d="M242,-231.086C242,-223.607 242,-214.513 242,-205.097"/>
<polygon fill="black" stroke="black" points="245.5,-204.814 242,-194.814 238.5,-204.815 245.5,-204.814"/>
</g>
<!-- Node0x15ae8480 -->
<g id="node3" class="node"><title>Node0x15ae8480</title>
<polygon fill="none" stroke="black" points="215,-23.5 215,-59.5 269,-59.5 269,-23.5 215,-23.5"/>
<text text-anchor="start" x="223" y="-37.8" font-family="Times,serif" font-size="14.00">exit:</text>
</g>
<!-- Node0x15ae86b0&#45;&gt;Node0x15ae8480 -->
<g id="edge2" class="edge"><title>Node0x15ae86b0&#45;&gt;Node0x15ae8480</title>
<path fill="none" stroke="black" d="M242,-96.4868C242,-87.2893 242,-77.9618 242,-69.7064"/>
<polygon fill="black" stroke="black" points="245.5,-69.5725 242,-59.5725 238.5,-69.5725 245.5,-69.5725"/>
</g>
</g>
</svg>
