<?xml version="1.0" encoding="UTF-8" standalone="no"?>
<!DOCTYPE svg PUBLIC "-//W3C//DTD SVG 1.1//EN"
 "http://www.w3.org/Graphics/SVG/1.1/DTD/svg11.dtd">
<!-- Generated by graphviz version 2.38.0 (20140413.2041)
 -->
<!-- Title: Control&#45;flow graph for function &#39;mbedtls_mpi_lset(*a1, a2)&#39;. Pages: 1 -->
<svg width="1009pt" height="700pt"
 viewBox="0.00 0.00 1008.50 700.00" xmlns="http://www.w3.org/2000/svg" xmlns:xlink="http://www.w3.org/1999/xlink">
<g id="graph0" class="graph" transform="scale(1 1) rotate(0) translate(4 696)">
<title>Control&#45;flow graph for function &#39;mbedtls_mpi_lset(*a1, a2)&#39;.</title>
<polygon fill="white" stroke="none" points="-4,4 -4,-696 1004.5,-696 1004.5,4 -4,4"/>
<text text-anchor="middle" x="500.25" y="-7.8" font-family="Times,serif" font-size="14.00">Control&#45;flow graph for function &#39;mbedtls_mpi_lset(*a1, a2)&#39;.</text>
<!-- Node0x21cab3c0 -->
<g id="node1" class="node"><title>Node0x21cab3c0</title>
<polygon fill="none" stroke="black" points="746.5,-638.5 746.5,-691.5 805.5,-691.5 805.5,-638.5 746.5,-638.5"/>
<text text-anchor="start" x="754.5" y="-676.3" font-family="Times,serif" font-size="14.00">entry:</text>
<text text-anchor="start" x="754.5" y="-661.3" font-family="Times,serif" font-size="14.00"> a1</text>
<text text-anchor="start" x="754.5" y="-646.3" font-family="Times,serif" font-size="14.00"> a2</text>
</g>
<!-- Node0x140ece90 -->
<g id="node2" class="node"><title>Node0x140ece90</title>
<polygon fill="none" stroke="black" points="551.5,-502.5 551.5,-600.5 1000.5,-600.5 1000.5,-502.5 551.5,-502.5"/>
<text text-anchor="start" x="559.5" y="-585.3" font-family="Times,serif" font-size="14.00">v1 = g3</text>
<text text-anchor="start" x="559.5" y="-570.3" font-family="Times,serif" font-size="14.00"> v2 = PtrToIntCastExpr&lt;int32&gt;(a1)</text>
<text text-anchor="start" x="559.5" y="-555.3" font-family="Times,serif" font-size="14.00"> g3 = v2</text>
<text text-anchor="start" x="559.5" y="-540.3" font-family="Times,serif" font-size="14.00"> v3 = g5</text>
<text text-anchor="start" x="559.5" y="-525.3" font-family="Times,serif" font-size="14.00"> g5 = a2</text>
<text text-anchor="start" x="559.5" y="-510.3" font-family="Times,serif" font-size="14.00"> result = mbedtls_mpi_grow(v2, IntToPtrCastExpr&lt;ptr&gt;(1))</text>
</g>
<!-- Node0x21cab3c0&#45;&gt;Node0x140ece90 -->
<g id="edge1" class="edge"><title>Node0x21cab3c0&#45;&gt;Node0x140ece90</title>
<path fill="none" stroke="black" d="M776,-638.42C776,-630.117 776,-620.536 776,-610.851"/>
<polygon fill="black" stroke="black" points="779.5,-610.768 776,-600.768 772.5,-610.768 779.5,-610.768"/>
</g>
<!-- Node0x140ec8b0 -->
<g id="node3" class="node"><title>Node0x140ec8b0</title>
<polygon fill="none" stroke="black" points="711,-428.5 711,-464.5 841,-464.5 841,-428.5 711,-428.5"/>
<text text-anchor="start" x="719" y="-442.8" font-family="Times,serif" font-size="14.00">if (result == 0):</text>
</g>
<!-- Node0x140ece90&#45;&gt;Node0x140ec8b0 -->
<g id="edge2" class="edge"><title>Node0x140ece90&#45;&gt;Node0x140ec8b0</title>
<path fill="none" stroke="black" d="M776,-502.317C776,-492.893 776,-483.32 776,-474.868"/>
<polygon fill="black" stroke="black" points="779.5,-474.856 776,-464.856 772.5,-474.856 779.5,-474.856"/>
</g>
<!-- Node0x21cabe20 -->
<g id="node4" class="node"><title>Node0x21cabe20</title>
<polygon fill="none" stroke="black" points="0,-233.5 0,-376.5 856,-376.5 856,-233.5 0,-233.5"/>
<text text-anchor="start" x="8" y="-361.3" font-family="Times,serif" font-size="14.00">0x805727b:</text>
<text text-anchor="start" x="8" y="-346.3" font-family="Times,serif" font-size="14.00"> memset(IntToPtrCastExpr&lt;ptr&gt;(*(IntToPtrCastExpr&lt;ptr&gt;((g3 + 8)))), 0, (4 * *(IntToPtrCastExpr&lt;ptr&gt;((g3 + 4)))))</text>
<text text-anchor="start" x="8" y="-331.3" font-family="Times,serif" font-size="14.00"> v4 = *(IntToPtrCastExpr&lt;ptr&gt;((g3 + 8)))</text>
<text text-anchor="start" x="8" y="-316.3" font-family="Times,serif" font-size="14.00"> g6 = v4</text>
<text text-anchor="start" x="8" y="-301.3" font-family="Times,serif" font-size="14.00"> v5 = (g5 &gt;&gt; 31)</text>
<text text-anchor="start" x="8" y="-286.3" font-family="Times,serif" font-size="14.00"> *(IntToPtrCastExpr&lt;ptr&gt;(v4)) = (v5 ^ g5)</text>
<text text-anchor="start" x="8" y="-271.3" font-family="Times,serif" font-size="14.00"> v6 = IntToPtrCastExpr&lt;ptr&gt;(g6)</text>
<text text-anchor="start" x="8" y="-256.3" font-family="Times,serif" font-size="14.00"> *(v6) = (*(v6) &#45; v5)</text>
<text text-anchor="start" x="8" y="-241.3" font-family="Times,serif" font-size="14.00"> *(IntToPtrCastExpr&lt;ptr&gt;(g3)) = (v5 | 1)</text>
</g>
<!-- Node0x140ec8b0&#45;&gt;Node0x21cabe20 -->
<g id="edge3" class="edge"><title>Node0x140ec8b0&#45;&gt;Node0x21cabe20</title>
<path fill="none" stroke="black" d="M733.328,-428.395C702.51,-416.041 658.551,-398.419 613.556,-380.382"/>
<polygon fill="black" stroke="black" points="614.83,-377.123 604.246,-376.65 612.226,-383.62 614.83,-377.123"/>
<text text-anchor="middle" x="725.5" y="-398.8" font-family="Times,serif" font-size="14.00">result == 0</text>
</g>
<!-- Node0x140ed090 -->
<g id="node5" class="node"><title>Node0x140ed090</title>
<polygon fill="none" stroke="black" points="713.5,-97.5 713.5,-195.5 826.5,-195.5 826.5,-97.5 713.5,-97.5"/>
<text text-anchor="start" x="721.5" y="-180.3" font-family="Times,serif" font-size="14.00">0x80572ab:</text>
<text text-anchor="start" x="721.5" y="-165.3" font-family="Times,serif" font-size="14.00"> g3 = v1</text>
<text text-anchor="start" x="721.5" y="-150.3" font-family="Times,serif" font-size="14.00"> g5 = v3</text>
<text text-anchor="start" x="721.5" y="-135.3" font-family="Times,serif" font-size="14.00"> v7</text>
<text text-anchor="start" x="721.5" y="-120.3" font-family="Times,serif" font-size="14.00"> g2 = v7</text>
<text text-anchor="start" x="721.5" y="-105.3" font-family="Times,serif" font-size="14.00"> return result</text>
</g>
<!-- Node0x140ec8b0&#45;&gt;Node0x140ed090 -->
<g id="edge4" class="edge"><title>Node0x140ec8b0&#45;&gt;Node0x140ed090</title>
<path fill="none" stroke="black" d="M811.777,-428.313C831.38,-416.784 853.892,-399.567 865,-377 893.264,-319.579 891.038,-291.464 865,-233 858.057,-217.411 846.712,-203.472 834.237,-191.599"/>
<polygon fill="black" stroke="black" points="836.547,-188.969 826.785,-184.85 831.847,-194.157 836.547,-188.969"/>
<text text-anchor="middle" x="925.5" y="-301.3" font-family="Times,serif" font-size="14.00">result != 0</text>
</g>
<!-- Node0x21cabe20&#45;&gt;Node0x140ed090 -->
<g id="edge5" class="edge"><title>Node0x21cabe20&#45;&gt;Node0x140ed090</title>
<path fill="none" stroke="black" d="M582.491,-233.305C625.045,-213.832 668.976,-193.729 703.61,-177.88"/>
<polygon fill="black" stroke="black" points="705.486,-180.871 713.123,-173.527 702.573,-174.506 705.486,-180.871"/>
</g>
<!-- Node0x140ed200 -->
<g id="node6" class="node"><title>Node0x140ed200</title>
<polygon fill="none" stroke="black" points="743,-23.5 743,-59.5 797,-59.5 797,-23.5 743,-23.5"/>
<text text-anchor="start" x="751" y="-37.8" font-family="Times,serif" font-size="14.00">exit:</text>
</g>
<!-- Node0x140ed090&#45;&gt;Node0x140ed200 -->
<g id="edge6" class="edge"><title>Node0x140ed090&#45;&gt;Node0x140ed200</title>
<path fill="none" stroke="black" d="M770,-97.3173C770,-87.893 770,-78.32 770,-69.8676"/>
<polygon fill="black" stroke="black" points="773.5,-69.856 770,-59.8561 766.5,-69.8561 773.5,-69.856"/>
</g>
</g>
</svg>
