<?xml version="1.0" encoding="UTF-8" standalone="no"?>
<!DOCTYPE svg PUBLIC "-//W3C//DTD SVG 1.1//EN"
 "http://www.w3.org/Graphics/SVG/1.1/DTD/svg11.dtd">
<!-- Generated by graphviz version 2.38.0 (20140413.2041)
 -->
<!-- Title: Control&#45;flow graph for function &#39;ecp_normalize_jac(a1, a2)&#39;. Pages: 1 -->
<svg width="978pt" height="2977pt"
 viewBox="0.00 0.00 978.00 2977.00" xmlns="http://www.w3.org/2000/svg" xmlns:xlink="http://www.w3.org/1999/xlink">
<g id="graph0" class="graph" transform="scale(1 1) rotate(0) translate(4 2973)">
<title>Control&#45;flow graph for function &#39;ecp_normalize_jac(a1, a2)&#39;.</title>
<polygon fill="white" stroke="none" points="-4,4 -4,-2973 974,-2973 974,4 -4,4"/>
<text text-anchor="middle" x="485" y="-7.8" font-family="Times,serif" font-size="14.00">Control&#45;flow graph for function &#39;ecp_normalize_jac(a1, a2)&#39;.</text>
<!-- Node0xfb570d0 -->
<g id="node1" class="node"><title>Node0xfb570d0</title>
<polygon fill="none" stroke="black" points="255.5,-2915.5 255.5,-2968.5 314.5,-2968.5 314.5,-2915.5 255.5,-2915.5"/>
<text text-anchor="start" x="263.5" y="-2953.3" font-family="Times,serif" font-size="14.00">entry:</text>
<text text-anchor="start" x="263.5" y="-2938.3" font-family="Times,serif" font-size="14.00"> a1</text>
<text text-anchor="start" x="263.5" y="-2923.3" font-family="Times,serif" font-size="14.00"> a2</text>
</g>
<!-- Node0xfb55340 -->
<g id="node2" class="node"><title>Node0xfb55340</title>
<polygon fill="none" stroke="black" points="222,-2764.5 222,-2877.5 348,-2877.5 348,-2764.5 222,-2764.5"/>
<text text-anchor="start" x="230" y="-2862.3" font-family="Times,serif" font-size="14.00">v1 = g3</text>
<text text-anchor="start" x="230" y="-2847.3" font-family="Times,serif" font-size="14.00"> v2 = g6</text>
<text text-anchor="start" x="230" y="-2832.3" font-family="Times,serif" font-size="14.00"> v3 = (v2 + 24)</text>
<text text-anchor="start" x="230" y="-2817.3" font-family="Times,serif" font-size="14.00"> g3 = v3</text>
<text text-anchor="start" x="230" y="-2802.3" font-family="Times,serif" font-size="14.00"> v4 = g7</text>
<text text-anchor="start" x="230" y="-2787.3" font-family="Times,serif" font-size="14.00"> g7 = v2</text>
<text text-anchor="start" x="230" y="-2772.3" font-family="Times,serif" font-size="14.00"> v5 = g1</text>
</g>
<!-- Node0xfb570d0&#45;&gt;Node0xfb55340 -->
<g id="edge1" class="edge"><title>Node0xfb570d0&#45;&gt;Node0xfb55340</title>
<path fill="none" stroke="black" d="M285,-2915.47C285,-2907.26 285,-2897.75 285,-2888.01"/>
<polygon fill="black" stroke="black" points="288.5,-2887.81 285,-2877.81 281.5,-2887.81 288.5,-2887.81"/>
</g>
<!-- Node0x17301fa0 -->
<g id="node3" class="node"><title>Node0x17301fa0</title>
<polygon fill="none" stroke="black" points="139.5,-2690.5 139.5,-2726.5 430.5,-2726.5 430.5,-2690.5 139.5,-2690.5"/>
<text text-anchor="start" x="147.5" y="-2704.8" font-family="Times,serif" font-size="14.00">if (mbedtls_mpi_cmp_int(v3, 0) == 0):</text>
</g>
<!-- Node0xfb55340&#45;&gt;Node0x17301fa0 -->
<g id="edge2" class="edge"><title>Node0xfb55340&#45;&gt;Node0x17301fa0</title>
<path fill="none" stroke="black" d="M285,-2764.43C285,-2754.86 285,-2745.31 285,-2736.91"/>
<polygon fill="black" stroke="black" points="288.5,-2736.64 285,-2726.64 281.5,-2736.64 288.5,-2736.64"/>
</g>
<!-- Node0x1e8fc8c0 -->
<g id="node4" class="node"><title>Node0x1e8fc8c0</title>
<polygon fill="none" stroke="black" points="0,-2393.5 0,-2461.5 98,-2461.5 98,-2393.5 0,-2393.5"/>
<text text-anchor="start" x="8" y="-2446.3" font-family="Times,serif" font-size="14.00">0x805d39f:</text>
<text text-anchor="start" x="8" y="-2431.3" font-family="Times,serif" font-size="14.00"> g3 = v1</text>
<text text-anchor="start" x="8" y="-2416.3" font-family="Times,serif" font-size="14.00"> g7 = v4</text>
<text text-anchor="start" x="8" y="-2401.3" font-family="Times,serif" font-size="14.00"> return 0</text>
</g>
<!-- Node0x17301fa0&#45;&gt;Node0x1e8fc8c0 -->
<g id="edge3" class="edge"><title>Node0x17301fa0&#45;&gt;Node0x1e8fc8c0</title>
<path fill="none" stroke="black" d="M176.353,-2690.47C155.697,-2685.44 138.021,-2679.29 130,-2672 72.6846,-2619.94 55.8588,-2526.33 50.9627,-2471.59"/>
<polygon fill="black" stroke="black" points="54.4428,-2471.2 50.1571,-2461.51 47.4651,-2471.76 54.4428,-2471.2"/>
<text text-anchor="middle" x="253" y="-2660.8" font-family="Times,serif" font-size="14.00">mbedtls_mpi_cmp_int(v3, 0) == 0</text>
</g>
<!-- Node0x1e8fb3f0 -->
<g id="node5" class="node"><title>Node0x1e8fb3f0</title>
<polygon fill="none" stroke="black" points="503.5,-2480.5 503.5,-2638.5 844.5,-2638.5 844.5,-2480.5 503.5,-2480.5"/>
<text text-anchor="start" x="511.5" y="-2623.3" font-family="Times,serif" font-size="14.00">0x805d3b0:</text>
<text text-anchor="start" x="511.5" y="-2608.3" font-family="Times,serif" font-size="14.00"> v6</text>
<text text-anchor="start" x="511.5" y="-2593.3" font-family="Times,serif" font-size="14.00"> g5 = &amp;(v6)</text>
<text text-anchor="start" x="511.5" y="-2578.3" font-family="Times,serif" font-size="14.00"> mbedtls_mpi_init(&amp;(v6))</text>
<text text-anchor="start" x="511.5" y="-2563.3" font-family="Times,serif" font-size="14.00"> v7</text>
<text text-anchor="start" x="511.5" y="-2548.3" font-family="Times,serif" font-size="14.00"> v8 = &amp;(v7)</text>
<text text-anchor="start" x="511.5" y="-2533.3" font-family="Times,serif" font-size="14.00"> mbedtls_mpi_init(&amp;(v7))</text>
<text text-anchor="start" x="511.5" y="-2518.3" font-family="Times,serif" font-size="14.00"> v9 = mbedtls_mpi_inv_mod(g5, g3, (v5 + 4))</text>
<text text-anchor="start" x="511.5" y="-2503.3" font-family="Times,serif" font-size="14.00"> g1 = v9</text>
<text text-anchor="start" x="511.5" y="-2488.3" font-family="Times,serif" font-size="14.00"> result = v9</text>
</g>
<!-- Node0x17301fa0&#45;&gt;Node0x1e8fb3f0 -->
<g id="edge4" class="edge"><title>Node0x17301fa0&#45;&gt;Node0x1e8fb3f0</title>
<path fill="none" stroke="black" d="M330.003,-2690.49C370.534,-2675.18 432.873,-2651.62 493.407,-2628.74"/>
<polygon fill="black" stroke="black" points="494.986,-2631.89 503.103,-2625.08 492.511,-2625.34 494.986,-2631.89"/>
<text text-anchor="middle" x="531" y="-2660.8" font-family="Times,serif" font-size="14.00">mbedtls_mpi_cmp_int(v3, 0) != 0</text>
</g>
<!-- Node0xfb56a20 -->
<g id="node6" class="node"><title>Node0xfb56a20</title>
<polygon fill="none" stroke="black" points="185,-23.5 185,-59.5 239,-59.5 239,-23.5 185,-23.5"/>
<text text-anchor="start" x="193" y="-37.8" font-family="Times,serif" font-size="14.00">exit:</text>
</g>
<!-- Node0x1e8fc8c0&#45;&gt;Node0xfb56a20 -->
<g id="edge5" class="edge"><title>Node0x1e8fc8c0&#45;&gt;Node0xfb56a20</title>
<path fill="none" stroke="black" d="M43.1844,-2393.49C39.7231,-2371.01 36,-2340.55 36,-2313.5 36,-2313.5 36,-2313.5 36,-145.5 36,-81.7409 123.101,-56.7151 174.755,-47.4799"/>
<polygon fill="black" stroke="black" points="175.599,-50.8875 184.886,-45.7885 174.446,-43.9831 175.599,-50.8875"/>
</g>
<!-- Node0xbecab70 -->
<g id="node7" class="node"><title>Node0xbecab70</title>
<polygon fill="none" stroke="black" points="657.5,-2338.5 657.5,-2374.5 762.5,-2374.5 762.5,-2338.5 657.5,-2338.5"/>
<text text-anchor="start" x="665.5" y="-2352.8" font-family="Times,serif" font-size="14.00">if (v9 == 0):</text>
</g>
<!-- Node0x1e8fb3f0&#45;&gt;Node0xbecab70 -->
<g id="edge6" class="edge"><title>Node0x1e8fb3f0&#45;&gt;Node0xbecab70</title>
<path fill="none" stroke="black" d="M688.022,-2480.21C694.075,-2446.41 700.761,-2409.09 705.15,-2384.58"/>
<polygon fill="black" stroke="black" points="708.621,-2385.05 706.938,-2374.59 701.73,-2383.82 708.621,-2385.05"/>
</g>
<!-- Node0x1e8fbae0 -->
<g id="node8" class="node"><title>Node0x1e8fbae0</title>
<polygon fill="none" stroke="black" points="534.5,-2218.5 534.5,-2286.5 885.5,-2286.5 885.5,-2218.5 534.5,-2218.5"/>
<text text-anchor="start" x="542.5" y="-2271.3" font-family="Times,serif" font-size="14.00">v10 = g5</text>
<text text-anchor="start" x="542.5" y="-2256.3" font-family="Times,serif" font-size="14.00"> v11 = IntToPtrCastExpr&lt;ptr&gt;(v10)</text>
<text text-anchor="start" x="542.5" y="-2241.3" font-family="Times,serif" font-size="14.00"> v12 = mbedtls_mpi_mul_mpi(&amp;(v7), v11, v11)</text>
<text text-anchor="start" x="542.5" y="-2226.3" font-family="Times,serif" font-size="14.00"> g1 = v12</text>
</g>
<!-- Node0xbecab70&#45;&gt;Node0x1e8fbae0 -->
<g id="edge7" class="edge"><title>Node0xbecab70&#45;&gt;Node0x1e8fbae0</title>
<path fill="none" stroke="black" d="M710,-2338.2C710,-2326.85 710,-2311.49 710,-2296.95"/>
<polygon fill="black" stroke="black" points="713.5,-2296.59 710,-2286.59 706.5,-2296.59 713.5,-2296.59"/>
<text text-anchor="middle" x="740" y="-2308.8" font-family="Times,serif" font-size="14.00">v9 == 0</text>
</g>
<!-- Node0x1e8fde00 -->
<g id="node9" class="node"><title>Node0x1e8fde00</title>
<polygon fill="none" stroke="black" points="517.5,-97.5 517.5,-195.5 918.5,-195.5 918.5,-97.5 517.5,-97.5"/>
<text text-anchor="start" x="525.5" y="-180.3" font-family="Times,serif" font-size="14.00">0x805d3e0:</text>
<text text-anchor="start" x="525.5" y="-165.3" font-family="Times,serif" font-size="14.00"> g1 = mbedtls_mpi_free(IntToPtrCastExpr&lt;ptr&gt;(g5))</text>
<text text-anchor="start" x="525.5" y="-150.3" font-family="Times,serif" font-size="14.00"> mbedtls_mpi_free(&amp;(v7))</text>
<text text-anchor="start" x="525.5" y="-135.3" font-family="Times,serif" font-size="14.00"> g3 = v1</text>
<text text-anchor="start" x="525.5" y="-120.3" font-family="Times,serif" font-size="14.00"> g7 = v4</text>
<text text-anchor="start" x="525.5" y="-105.3" font-family="Times,serif" font-size="14.00"> return result</text>
</g>
<!-- Node0xbecab70&#45;&gt;Node0x1e8fde00 -->
<g id="edge8" class="edge"><title>Node0xbecab70&#45;&gt;Node0x1e8fde00</title>
<path fill="none" stroke="black" d="M762.516,-2351.87C823.548,-2344.46 916,-2321.94 916,-2253.5 916,-2253.5 916,-2253.5 916,-274 916,-243.123 898.69,-219.447 874.306,-201.411"/>
<polygon fill="black" stroke="black" points="875.994,-198.323 865.78,-195.509 872.01,-204.079 875.994,-198.323"/>
<text text-anchor="middle" x="943" y="-1281.8" font-family="Times,serif" font-size="14.00">v9 != 0</text>
</g>
<!-- Node0x1e8fb030 -->
<g id="node10" class="node"><title>Node0x1e8fb030</title>
<polygon fill="none" stroke="black" points="653,-2142.5 653,-2180.5 767,-2180.5 767,-2142.5 653,-2142.5"/>
<text text-anchor="start" x="661" y="-2165.3" font-family="Times,serif" font-size="14.00">if (v12 == 0):</text>
<text text-anchor="start" x="661" y="-2150.3" font-family="Times,serif" font-size="14.00"> else:</text>
</g>
<!-- Node0x1e8fbae0&#45;&gt;Node0x1e8fb030 -->
<g id="edge9" class="edge"><title>Node0x1e8fbae0&#45;&gt;Node0x1e8fb030</title>
<path fill="none" stroke="black" d="M710,-2218.36C710,-2209.36 710,-2199.71 710,-2190.99"/>
<polygon fill="black" stroke="black" points="713.5,-2190.94 710,-2180.94 706.5,-2190.94 713.5,-2190.94"/>
</g>
<!-- Node0x1e8fde00&#45;&gt;Node0xfb56a20 -->
<g id="edge10" class="edge"><title>Node0x1e8fde00&#45;&gt;Node0xfb56a20</title>
<path fill="none" stroke="black" d="M517.289,-104.644C417.023,-84.234 305.301,-61.4921 248.89,-50.0093"/>
<polygon fill="black" stroke="black" points="249.513,-46.5644 239.016,-47.9993 248.117,-53.4237 249.513,-46.5644"/>
</g>
<!-- Node0x1e8fa3f0 -->
<g id="node11" class="node"><title>Node0x1e8fa3f0</title>
<polygon fill="none" stroke="black" points="606,-2007.5 606,-2090.5 810,-2090.5 810,-2007.5 606,-2007.5"/>
<text text-anchor="start" x="614" y="-2075.3" font-family="Times,serif" font-size="14.00">0x805d41f:</text>
<text text-anchor="start" x="614" y="-2060.3" font-family="Times,serif" font-size="14.00"> g6 = v5</text>
<text text-anchor="start" x="614" y="-2045.3" font-family="Times,serif" font-size="14.00"> g1 = v8</text>
<text text-anchor="start" x="614" y="-2030.3" font-family="Times,serif" font-size="14.00"> v13 = ecp_modp(v8, v10)</text>
<text text-anchor="start" x="614" y="-2015.3" font-family="Times,serif" font-size="14.00"> g1 = v13</text>
</g>
<!-- Node0x1e8fb030&#45;&gt;Node0x1e8fa3f0 -->
<g id="edge11" class="edge"><title>Node0x1e8fb030&#45;&gt;Node0x1e8fa3f0</title>
<path fill="none" stroke="black" d="M709.67,-2142.25C709.464,-2130.9 709.189,-2115.68 708.921,-2100.89"/>
<polygon fill="black" stroke="black" points="712.418,-2100.7 708.738,-2090.76 705.419,-2100.83 712.418,-2100.7"/>
<text text-anchor="middle" x="743.5" y="-2112.8" font-family="Times,serif" font-size="14.00">v12 == 0</text>
</g>
<!-- Node0x1e8f87b0 -->
<g id="node12" class="node"><title>Node0x1e8f87b0</title>
<polygon fill="none" stroke="black" points="790,-1952.5 790,-1988.5 896,-1988.5 896,-1952.5 790,-1952.5"/>
<text text-anchor="start" x="798" y="-1966.8" font-family="Times,serif" font-size="14.00">result = v12</text>
</g>
<!-- Node0x1e8fb030&#45;&gt;Node0x1e8f87b0 -->
<g id="edge12" class="edge"><title>Node0x1e8fb030&#45;&gt;Node0x1e8f87b0</title>
<path fill="none" stroke="black" d="M757.984,-2142.42C780.616,-2131.24 805.554,-2114.46 819,-2091 835.478,-2062.24 840.777,-2023.94 842.407,-1998.54"/>
<polygon fill="black" stroke="black" points="845.905,-1998.67 842.903,-1988.51 838.914,-1998.32 845.905,-1998.67"/>
<text text-anchor="middle" x="834.5" y="-2112.8" font-family="Times,serif" font-size="14.00">v12 != 0</text>
</g>
<!-- Node0x1e8f8d40 -->
<g id="node13" class="node"><title>Node0x1e8f8d40</title>
<polygon fill="none" stroke="black" points="651,-1895.5 651,-1933.5 765,-1933.5 765,-1895.5 651,-1895.5"/>
<text text-anchor="start" x="659" y="-1918.3" font-family="Times,serif" font-size="14.00">if (v13 == 0):</text>
<text text-anchor="start" x="659" y="-1903.3" font-family="Times,serif" font-size="14.00"> else:</text>
</g>
<!-- Node0x1e8fa3f0&#45;&gt;Node0x1e8f8d40 -->
<g id="edge13" class="edge"><title>Node0x1e8fa3f0&#45;&gt;Node0x1e8f8d40</title>
<path fill="none" stroke="black" d="M708,-2007.16C708,-1986.57 708,-1962.11 708,-1943.64"/>
<polygon fill="black" stroke="black" points="711.5,-1943.54 708,-1933.54 704.5,-1943.54 711.5,-1943.54"/>
</g>
<!-- Node0x1e8f87b0&#45;&gt;Node0x1e8fde00 -->
<g id="edge14" class="edge"><title>Node0x1e8f87b0&#45;&gt;Node0x1e8fde00</title>
<path fill="none" stroke="black" d="M850.665,-1952.36C858.647,-1932.92 870,-1900.07 870,-1870.5 870,-1870.5 870,-1870.5 870,-274 870,-244.543 852.926,-220.621 830.222,-201.834"/>
<polygon fill="black" stroke="black" points="832.357,-199.06 822.323,-195.659 828.046,-204.575 832.357,-199.06"/>
</g>
<!-- Node0x28aea4f0 -->
<g id="node14" class="node"><title>Node0x28aea4f0</title>
<polygon fill="none" stroke="black" points="412.5,-1745.5 412.5,-1843.5 763.5,-1843.5 763.5,-1745.5 412.5,-1745.5"/>
<text text-anchor="start" x="420.5" y="-1828.3" font-family="Times,serif" font-size="14.00">0x805d42e:</text>
<text text-anchor="start" x="420.5" y="-1813.3" font-family="Times,serif" font-size="14.00"> g216 = (g216 + 1)</text>
<text text-anchor="start" x="420.5" y="-1798.3" font-family="Times,serif" font-size="14.00"> v14 = g7</text>
<text text-anchor="start" x="420.5" y="-1783.3" font-family="Times,serif" font-size="14.00"> v15 = IntToPtrCastExpr&lt;ptr&gt;(v14)</text>
<text text-anchor="start" x="420.5" y="-1768.3" font-family="Times,serif" font-size="14.00"> v16 = mbedtls_mpi_mul_mpi(v15, v15, &amp;(v7))</text>
<text text-anchor="start" x="420.5" y="-1753.3" font-family="Times,serif" font-size="14.00"> g1 = v16</text>
</g>
<!-- Node0x1e8f8d40&#45;&gt;Node0x28aea4f0 -->
<g id="edge15" class="edge"><title>Node0x1e8f8d40&#45;&gt;Node0x28aea4f0</title>
<path fill="none" stroke="black" d="M689.513,-1895.32C677.312,-1883.32 660.62,-1866.91 644.295,-1850.86"/>
<polygon fill="black" stroke="black" points="646.421,-1848.04 636.837,-1843.52 641.513,-1853.03 646.421,-1848.04"/>
<text text-anchor="middle" x="703.5" y="-1865.8" font-family="Times,serif" font-size="14.00">v13 == 0</text>
</g>
<!-- Node0x28ae8430 -->
<g id="node15" class="node"><title>Node0x28ae8430</title>
<polygon fill="none" stroke="black" points="744,-1690.5 744,-1726.5 850,-1726.5 850,-1690.5 744,-1690.5"/>
<text text-anchor="start" x="752" y="-1704.8" font-family="Times,serif" font-size="14.00">result = v13</text>
</g>
<!-- Node0x1e8f8d40&#45;&gt;Node0x28ae8430 -->
<g id="edge16" class="edge"><title>Node0x1e8f8d40&#45;&gt;Node0x28ae8430</title>
<path fill="none" stroke="black" d="M730.825,-1895.25C745.224,-1882.45 762.94,-1864.09 773,-1844 790.158,-1809.74 795.219,-1765.15 796.617,-1736.92"/>
<polygon fill="black" stroke="black" points="800.126,-1736.73 797,-1726.6 793.131,-1736.47 800.126,-1736.73"/>
<text text-anchor="middle" x="792.5" y="-1865.8" font-family="Times,serif" font-size="14.00">v13 != 0</text>
</g>
<!-- Node0x28ae9ad0 -->
<g id="node16" class="node"><title>Node0x28ae9ad0</title>
<polygon fill="none" stroke="black" points="550,-1633.5 550,-1671.5 664,-1671.5 664,-1633.5 550,-1633.5"/>
<text text-anchor="start" x="558" y="-1656.3" font-family="Times,serif" font-size="14.00">if (v16 == 0):</text>
<text text-anchor="start" x="558" y="-1641.3" font-family="Times,serif" font-size="14.00"> else:</text>
</g>
<!-- Node0x28aea4f0&#45;&gt;Node0x28ae9ad0 -->
<g id="edge17" class="edge"><title>Node0x28aea4f0&#45;&gt;Node0x28ae9ad0</title>
<path fill="none" stroke="black" d="M594.539,-1745.32C597.428,-1724.03 600.724,-1699.75 603.2,-1681.5"/>
<polygon fill="black" stroke="black" points="606.677,-1681.91 604.553,-1671.53 599.74,-1680.97 606.677,-1681.91"/>
</g>
<!-- Node0x28ae8430&#45;&gt;Node0x1e8fde00 -->
<g id="edge18" class="edge"><title>Node0x28ae8430&#45;&gt;Node0x1e8fde00</title>
<path fill="none" stroke="black" d="M807.123,-1690.27C817.46,-1671.01 832,-1638.58 832,-1608.5 832,-1608.5 832,-1608.5 832,-274 832,-246.485 816.932,-222.256 797.753,-202.561"/>
<polygon fill="black" stroke="black" points="800.125,-199.986 790.521,-195.513 795.239,-204.999 800.125,-199.986"/>
</g>
<!-- Node0x15b23bb0 -->
<g id="node17" class="node"><title>Node0x15b23bb0</title>
<polygon fill="none" stroke="black" points="500.5,-1498.5 500.5,-1581.5 713.5,-1581.5 713.5,-1498.5 500.5,-1498.5"/>
<text text-anchor="start" x="508.5" y="-1566.3" font-family="Times,serif" font-size="14.00">0x805d44c:</text>
<text text-anchor="start" x="508.5" y="-1551.3" font-family="Times,serif" font-size="14.00"> g6 = v5</text>
<text text-anchor="start" x="508.5" y="-1536.3" font-family="Times,serif" font-size="14.00"> g1 = g7</text>
<text text-anchor="start" x="508.5" y="-1521.3" font-family="Times,serif" font-size="14.00"> v17 = ecp_modp(v14, v14)</text>
<text text-anchor="start" x="508.5" y="-1506.3" font-family="Times,serif" font-size="14.00"> g1 = v17</text>
</g>
<!-- Node0x28ae9ad0&#45;&gt;Node0x15b23bb0 -->
<g id="edge19" class="edge"><title>Node0x28ae9ad0&#45;&gt;Node0x15b23bb0</title>
<path fill="none" stroke="black" d="M607,-1633.25C607,-1621.9 607,-1606.68 607,-1591.89"/>
<polygon fill="black" stroke="black" points="610.5,-1591.76 607,-1581.76 603.5,-1591.76 610.5,-1591.76"/>
<text text-anchor="middle" x="641.5" y="-1603.8" font-family="Times,serif" font-size="14.00">v16 == 0</text>
</g>
<!-- Node0xfc47b20 -->
<g id="node18" class="node"><title>Node0xfc47b20</title>
<polygon fill="none" stroke="black" points="702,-1443.5 702,-1479.5 808,-1479.5 808,-1443.5 702,-1443.5"/>
<text text-anchor="start" x="710" y="-1457.8" font-family="Times,serif" font-size="14.00">result = v16</text>
</g>
<!-- Node0x28ae9ad0&#45;&gt;Node0xfc47b20 -->
<g id="edge20" class="edge"><title>Node0x28ae9ad0&#45;&gt;Node0xfc47b20</title>
<path fill="none" stroke="black" d="M656.46,-1633.37C680.036,-1622.17 706.428,-1605.4 722,-1582 740.675,-1553.93 748.851,-1515.48 752.385,-1489.85"/>
<polygon fill="black" stroke="black" points="755.884,-1490.08 753.632,-1479.72 748.936,-1489.22 755.884,-1490.08"/>
<text text-anchor="middle" x="736.5" y="-1603.8" font-family="Times,serif" font-size="14.00">v16 != 0</text>
</g>
<!-- Node0x15b22440 -->
<g id="node19" class="node"><title>Node0x15b22440</title>
<polygon fill="none" stroke="black" points="550,-1386.5 550,-1424.5 664,-1424.5 664,-1386.5 550,-1386.5"/>
<text text-anchor="start" x="558" y="-1409.3" font-family="Times,serif" font-size="14.00">if (v17 == 0):</text>
<text text-anchor="start" x="558" y="-1394.3" font-family="Times,serif" font-size="14.00"> else:</text>
</g>
<!-- Node0x15b23bb0&#45;&gt;Node0x15b22440 -->
<g id="edge21" class="edge"><title>Node0x15b23bb0&#45;&gt;Node0x15b22440</title>
<path fill="none" stroke="black" d="M607,-1498.16C607,-1477.57 607,-1453.11 607,-1434.64"/>
<polygon fill="black" stroke="black" points="610.5,-1434.54 607,-1424.54 603.5,-1434.54 610.5,-1434.54"/>
</g>
<!-- Node0xfc47b20&#45;&gt;Node0x1e8fde00 -->
<g id="edge22" class="edge"><title>Node0xfc47b20&#45;&gt;Node0x1e8fde00</title>
<path fill="none" stroke="black" d="M766.28,-1443.42C777.799,-1424.3 794,-1391.98 794,-1361.5 794,-1361.5 794,-1361.5 794,-274 794,-248.892 782.863,-224.47 769.116,-203.888"/>
<polygon fill="black" stroke="black" points="771.915,-201.784 763.307,-195.607 766.184,-205.804 771.915,-201.784"/>
</g>
<!-- Node0xfc46ef0 -->
<g id="node20" class="node"><title>Node0xfc46ef0</title>
<polygon fill="none" stroke="black" points="336.5,-1236.5 336.5,-1334.5 687.5,-1334.5 687.5,-1236.5 336.5,-1236.5"/>
<text text-anchor="start" x="344.5" y="-1319.3" font-family="Times,serif" font-size="14.00">v18 = (g7 + 12)</text>
<text text-anchor="start" x="344.5" y="-1304.3" font-family="Times,serif" font-size="14.00"> g7 = v18</text>
<text text-anchor="start" x="344.5" y="-1289.3" font-family="Times,serif" font-size="14.00"> g216 = (g216 + 1)</text>
<text text-anchor="start" x="344.5" y="-1274.3" font-family="Times,serif" font-size="14.00"> v19 = IntToPtrCastExpr&lt;ptr&gt;(v18)</text>
<text text-anchor="start" x="344.5" y="-1259.3" font-family="Times,serif" font-size="14.00"> v20 = mbedtls_mpi_mul_mpi(v19, v19, &amp;(v7))</text>
<text text-anchor="start" x="344.5" y="-1244.3" font-family="Times,serif" font-size="14.00"> g1 = v20</text>
</g>
<!-- Node0x15b22440&#45;&gt;Node0xfc46ef0 -->
<g id="edge23" class="edge"><title>Node0x15b22440&#45;&gt;Node0xfc46ef0</title>
<path fill="none" stroke="black" d="M592.364,-1386.32C582.88,-1374.54 569.966,-1358.5 557.265,-1342.72"/>
<polygon fill="black" stroke="black" points="559.66,-1340.12 550.663,-1334.52 554.207,-1344.51 559.66,-1340.12"/>
<text text-anchor="middle" x="611.5" y="-1356.8" font-family="Times,serif" font-size="14.00">v17 == 0</text>
</g>
<!-- Node0xfc498b0 -->
<g id="node21" class="node"><title>Node0xfc498b0</title>
<polygon fill="none" stroke="black" points="668,-1181.5 668,-1217.5 774,-1217.5 774,-1181.5 668,-1181.5"/>
<text text-anchor="start" x="676" y="-1195.8" font-family="Times,serif" font-size="14.00">result = v17</text>
</g>
<!-- Node0x15b22440&#45;&gt;Node0xfc498b0 -->
<g id="edge24" class="edge"><title>Node0x15b22440&#45;&gt;Node0xfc498b0</title>
<path fill="none" stroke="black" d="M641.727,-1386.24C661.05,-1374.26 683.8,-1356.78 697,-1335 717.059,-1301.9 721.299,-1256.36 721.735,-1227.68"/>
<polygon fill="black" stroke="black" points="725.235,-1227.58 721.741,-1217.58 718.235,-1227.57 725.235,-1227.58"/>
<text text-anchor="middle" x="713.5" y="-1356.8" font-family="Times,serif" font-size="14.00">v17 != 0</text>
</g>
<!-- Node0xfd82900 -->
<g id="node22" class="node"><title>Node0xfd82900</title>
<polygon fill="none" stroke="black" points="474,-1124.5 474,-1162.5 588,-1162.5 588,-1124.5 474,-1124.5"/>
<text text-anchor="start" x="482" y="-1147.3" font-family="Times,serif" font-size="14.00">if (v20 == 0):</text>
<text text-anchor="start" x="482" y="-1132.3" font-family="Times,serif" font-size="14.00"> else:</text>
</g>
<!-- Node0xfc46ef0&#45;&gt;Node0xfd82900 -->
<g id="edge25" class="edge"><title>Node0xfc46ef0&#45;&gt;Node0xfd82900</title>
<path fill="none" stroke="black" d="M518.539,-1236.32C521.428,-1215.03 524.724,-1190.75 527.2,-1172.5"/>
<polygon fill="black" stroke="black" points="530.677,-1172.91 528.553,-1162.53 523.74,-1171.97 530.677,-1172.91"/>
</g>
<!-- Node0xfc498b0&#45;&gt;Node0x1e8fde00 -->
<g id="edge26" class="edge"><title>Node0xfc498b0&#45;&gt;Node0x1e8fde00</title>
<path fill="none" stroke="black" d="M731.123,-1181.27C741.46,-1162.01 756,-1129.58 756,-1099.5 756,-1099.5 756,-1099.5 756,-274 756,-250.933 750.133,-226.461 743.009,-205.251"/>
<polygon fill="black" stroke="black" points="746.287,-204.022 739.664,-195.752 739.684,-206.347 746.287,-204.022"/>
</g>
<!-- Node0xfc48500 -->
<g id="node23" class="node"><title>Node0xfc48500</title>
<polygon fill="none" stroke="black" points="424.5,-989.5 424.5,-1072.5 637.5,-1072.5 637.5,-989.5 424.5,-989.5"/>
<text text-anchor="start" x="432.5" y="-1057.3" font-family="Times,serif" font-size="14.00">0x805d47f:</text>
<text text-anchor="start" x="432.5" y="-1042.3" font-family="Times,serif" font-size="14.00"> g6 = v5</text>
<text text-anchor="start" x="432.5" y="-1027.3" font-family="Times,serif" font-size="14.00"> g1 = g7</text>
<text text-anchor="start" x="432.5" y="-1012.3" font-family="Times,serif" font-size="14.00"> v21 = ecp_modp(v18, v18)</text>
<text text-anchor="start" x="432.5" y="-997.3" font-family="Times,serif" font-size="14.00"> g1 = v21</text>
</g>
<!-- Node0xfd82900&#45;&gt;Node0xfc48500 -->
<g id="edge27" class="edge"><title>Node0xfd82900&#45;&gt;Node0xfc48500</title>
<path fill="none" stroke="black" d="M531,-1124.25C531,-1112.9 531,-1097.68 531,-1082.89"/>
<polygon fill="black" stroke="black" points="534.5,-1082.76 531,-1072.76 527.5,-1082.76 534.5,-1082.76"/>
<text text-anchor="middle" x="565.5" y="-1094.8" font-family="Times,serif" font-size="14.00">v20 == 0</text>
</g>
<!-- Node0x2ad06380 -->
<g id="node24" class="node"><title>Node0x2ad06380</title>
<polygon fill="none" stroke="black" points="626,-934.5 626,-970.5 732,-970.5 732,-934.5 626,-934.5"/>
<text text-anchor="start" x="634" y="-948.8" font-family="Times,serif" font-size="14.00">result = v20</text>
</g>
<!-- Node0xfd82900&#45;&gt;Node0x2ad06380 -->
<g id="edge28" class="edge"><title>Node0xfd82900&#45;&gt;Node0x2ad06380</title>
<path fill="none" stroke="black" d="M580.46,-1124.37C604.036,-1113.17 630.428,-1096.4 646,-1073 664.675,-1044.93 672.851,-1006.48 676.385,-980.854"/>
<polygon fill="black" stroke="black" points="679.884,-981.077 677.632,-970.724 672.936,-980.222 679.884,-981.077"/>
<text text-anchor="middle" x="661.5" y="-1094.8" font-family="Times,serif" font-size="14.00">v20 != 0</text>
</g>
<!-- Node0x2ad06440 -->
<g id="node25" class="node"><title>Node0x2ad06440</title>
<polygon fill="none" stroke="black" points="474,-877.5 474,-915.5 588,-915.5 588,-877.5 474,-877.5"/>
<text text-anchor="start" x="482" y="-900.3" font-family="Times,serif" font-size="14.00">if (v21 == 0):</text>
<text text-anchor="start" x="482" y="-885.3" font-family="Times,serif" font-size="14.00"> else:</text>
</g>
<!-- Node0xfc48500&#45;&gt;Node0x2ad06440 -->
<g id="edge29" class="edge"><title>Node0xfc48500&#45;&gt;Node0x2ad06440</title>
<path fill="none" stroke="black" d="M531,-989.164C531,-968.57 531,-944.113 531,-925.644"/>
<polygon fill="black" stroke="black" points="534.5,-925.535 531,-915.535 527.5,-925.536 534.5,-925.535"/>
</g>
<!-- Node0x2ad06380&#45;&gt;Node0x1e8fde00 -->
<g id="edge30" class="edge"><title>Node0x2ad06380&#45;&gt;Node0x1e8fde00</title>
<path fill="none" stroke="black" d="M690.28,-934.419C701.799,-915.296 718,-882.981 718,-852.5 718,-852.5 718,-852.5 718,-274 718,-251.729 718,-227.253 718,-205.813"/>
<polygon fill="black" stroke="black" points="721.5,-205.555 718,-195.555 714.5,-205.555 721.5,-205.555"/>
</g>
<!-- Node0x17af2640 -->
<g id="node26" class="node"><title>Node0x17af2640</title>
<polygon fill="none" stroke="black" points="100,-727.5 100,-825.5 612,-825.5 612,-727.5 100,-727.5"/>
<text text-anchor="start" x="108" y="-810.3" font-family="Times,serif" font-size="14.00">0x805d491:</text>
<text text-anchor="start" x="108" y="-795.3" font-family="Times,serif" font-size="14.00"> g216 = (g216 + 1)</text>
<text text-anchor="start" x="108" y="-780.3" font-family="Times,serif" font-size="14.00"> v22 = g7</text>
<text text-anchor="start" x="108" y="-765.3" font-family="Times,serif" font-size="14.00"> v23 = IntToPtrCastExpr&lt;ptr&gt;(v22)</text>
<text text-anchor="start" x="108" y="-750.3" font-family="Times,serif" font-size="14.00"> v24 = mbedtls_mpi_mul_mpi(v23, v23, IntToPtrCastExpr&lt;ptr&gt;(g5))</text>
<text text-anchor="start" x="108" y="-735.3" font-family="Times,serif" font-size="14.00"> g1 = v24</text>
</g>
<!-- Node0x2ad06440&#45;&gt;Node0x17af2640 -->
<g id="edge31" class="edge"><title>Node0x2ad06440&#45;&gt;Node0x17af2640</title>
<path fill="none" stroke="black" d="M504.04,-877.321C485.606,-864.891 460.141,-847.721 435.525,-831.122"/>
<polygon fill="black" stroke="black" points="437.469,-828.212 427.221,-825.523 433.555,-834.016 437.469,-828.212"/>
<text text-anchor="middle" x="509.5" y="-847.8" font-family="Times,serif" font-size="14.00">v21 == 0</text>
</g>
<!-- Node0x140c4ed0 -->
<g id="node27" class="node"><title>Node0x140c4ed0</title>
<polygon fill="none" stroke="black" points="592,-672.5 592,-708.5 698,-708.5 698,-672.5 592,-672.5"/>
<text text-anchor="start" x="600" y="-686.8" font-family="Times,serif" font-size="14.00">result = v21</text>
</g>
<!-- Node0x2ad06440&#45;&gt;Node0x140c4ed0 -->
<g id="edge32" class="edge"><title>Node0x2ad06440&#45;&gt;Node0x140c4ed0</title>
<path fill="none" stroke="black" d="M565.727,-877.237C585.05,-865.256 607.8,-847.778 621,-826 641.059,-792.905 645.299,-747.362 645.735,-718.681"/>
<polygon fill="black" stroke="black" points="649.235,-718.578 645.741,-708.576 642.235,-718.574 649.235,-718.578"/>
<text text-anchor="middle" x="638.5" y="-847.8" font-family="Times,serif" font-size="14.00">v21 != 0</text>
</g>
<!-- Node0x140c5360 -->
<g id="node28" class="node"><title>Node0x140c5360</title>
<polygon fill="none" stroke="black" points="368,-615.5 368,-653.5 482,-653.5 482,-615.5 368,-615.5"/>
<text text-anchor="start" x="376" y="-638.3" font-family="Times,serif" font-size="14.00">if (v24 == 0):</text>
<text text-anchor="start" x="376" y="-623.3" font-family="Times,serif" font-size="14.00"> else:</text>
</g>
<!-- Node0x17af2640&#45;&gt;Node0x140c5360 -->
<g id="edge33" class="edge"><title>Node0x17af2640&#45;&gt;Node0x140c5360</title>
<path fill="none" stroke="black" d="M379.746,-727.32C390.386,-705.731 402.543,-681.066 411.575,-662.739"/>
<polygon fill="black" stroke="black" points="414.834,-664.044 416.115,-653.527 408.555,-660.95 414.834,-664.044"/>
</g>
<!-- Node0x140c4ed0&#45;&gt;Node0x1e8fde00 -->
<g id="edge34" class="edge"><title>Node0x140c4ed0&#45;&gt;Node0x1e8fde00</title>
<path fill="none" stroke="black" d="M655.123,-672.267C665.46,-653.011 680,-620.579 680,-590.5 680,-590.5 680,-590.5 680,-274 680,-250.933 685.867,-226.461 692.991,-205.251"/>
<polygon fill="black" stroke="black" points="696.316,-206.347 696.336,-195.752 689.713,-204.022 696.316,-206.347"/>
</g>
<!-- Node0x140c4890 -->
<g id="node29" class="node"><title>Node0x140c4890</title>
<polygon fill="none" stroke="black" points="318.5,-480.5 318.5,-563.5 531.5,-563.5 531.5,-480.5 318.5,-480.5"/>
<text text-anchor="start" x="326.5" y="-548.3" font-family="Times,serif" font-size="14.00">0x805d4b0:</text>
<text text-anchor="start" x="326.5" y="-533.3" font-family="Times,serif" font-size="14.00"> g6 = v5</text>
<text text-anchor="start" x="326.5" y="-518.3" font-family="Times,serif" font-size="14.00"> g1 = g7</text>
<text text-anchor="start" x="326.5" y="-503.3" font-family="Times,serif" font-size="14.00"> v25 = ecp_modp(v22, v22)</text>
<text text-anchor="start" x="326.5" y="-488.3" font-family="Times,serif" font-size="14.00"> g1 = v25</text>
</g>
<!-- Node0x140c5360&#45;&gt;Node0x140c4890 -->
<g id="edge35" class="edge"><title>Node0x140c5360&#45;&gt;Node0x140c4890</title>
<path fill="none" stroke="black" d="M425,-615.253C425,-603.898 425,-588.682 425,-573.887"/>
<polygon fill="black" stroke="black" points="428.5,-573.764 425,-563.764 421.5,-573.764 428.5,-573.764"/>
<text text-anchor="middle" x="459.5" y="-585.8" font-family="Times,serif" font-size="14.00">v24 == 0</text>
</g>
<!-- Node0x28ae5ac0 -->
<g id="node30" class="node"><title>Node0x28ae5ac0</title>
<polygon fill="none" stroke="black" points="540,-425.5 540,-461.5 646,-461.5 646,-425.5 540,-425.5"/>
<text text-anchor="start" x="548" y="-439.8" font-family="Times,serif" font-size="14.00">result = v24</text>
</g>
<!-- Node0x140c5360&#45;&gt;Node0x28ae5ac0 -->
<g id="edge36" class="edge"><title>Node0x140c5360&#45;&gt;Node0x28ae5ac0</title>
<path fill="none" stroke="black" d="M470.742,-615.471C494.48,-603.988 522.167,-586.924 540,-564 561.924,-535.818 576.918,-497.143 585.219,-471.515"/>
<polygon fill="black" stroke="black" points="588.636,-472.316 588.27,-461.727 581.953,-470.233 588.636,-472.316"/>
<text text-anchor="middle" x="554.5" y="-585.8" font-family="Times,serif" font-size="14.00">v24 != 0</text>
</g>
<!-- Node0xbecb0c0 -->
<g id="node31" class="node"><title>Node0xbecb0c0</title>
<polygon fill="none" stroke="black" points="368,-368.5 368,-406.5 482,-406.5 482,-368.5 368,-368.5"/>
<text text-anchor="start" x="376" y="-391.3" font-family="Times,serif" font-size="14.00">if (v25 == 0):</text>
<text text-anchor="start" x="376" y="-376.3" font-family="Times,serif" font-size="14.00"> else:</text>
</g>
<!-- Node0x140c4890&#45;&gt;Node0xbecb0c0 -->
<g id="edge37" class="edge"><title>Node0x140c4890&#45;&gt;Node0xbecb0c0</title>
<path fill="none" stroke="black" d="M425,-480.164C425,-459.57 425,-435.113 425,-416.644"/>
<polygon fill="black" stroke="black" points="428.5,-416.535 425,-406.535 421.5,-416.536 428.5,-416.535"/>
</g>
<!-- Node0x28ae5ac0&#45;&gt;Node0x1e8fde00 -->
<g id="edge38" class="edge"><title>Node0x28ae5ac0&#45;&gt;Node0x1e8fde00</title>
<path fill="none" stroke="black" d="M596.302,-425.345C604.296,-386.169 626.966,-287.814 666,-214 667.747,-210.696 669.662,-207.391 671.694,-204.117"/>
<polygon fill="black" stroke="black" points="674.757,-205.829 677.312,-195.547 668.902,-201.992 674.757,-205.829"/>
</g>
<!-- Node0x28ae5b20 -->
<g id="node32" class="node"><title>Node0x28ae5b20</title>
<polygon fill="none" stroke="black" points="64.5,-233.5 64.5,-316.5 489.5,-316.5 489.5,-233.5 64.5,-233.5"/>
<text text-anchor="start" x="72.5" y="-301.3" font-family="Times,serif" font-size="14.00">0x805d4c2:</text>
<text text-anchor="start" x="72.5" y="-286.3" font-family="Times,serif" font-size="14.00"> g216 = (g216 + 1)</text>
<text text-anchor="start" x="72.5" y="-271.3" font-family="Times,serif" font-size="14.00"> v26 = mbedtls_mpi_lset(IntToPtrCastExpr&lt;ptr&gt;(g3), 1)</text>
<text text-anchor="start" x="72.5" y="-256.3" font-family="Times,serif" font-size="14.00"> g1 = v26</text>
<text text-anchor="start" x="72.5" y="-241.3" font-family="Times,serif" font-size="14.00"> result = v26</text>
</g>
<!-- Node0xbecb0c0&#45;&gt;Node0x28ae5b20 -->
<g id="edge39" class="edge"><title>Node0xbecb0c0&#45;&gt;Node0x28ae5b20</title>
<path fill="none" stroke="black" d="M400.561,-368.253C383.889,-355.806 361.007,-338.721 339.462,-322.635"/>
<polygon fill="black" stroke="black" points="341.393,-319.709 331.286,-316.531 337.205,-325.318 341.393,-319.709"/>
<text text-anchor="middle" x="407.5" y="-338.8" font-family="Times,serif" font-size="14.00">v25 == 0</text>
</g>
<!-- Node0x28ae5bc0 -->
<g id="node33" class="node"><title>Node0x28ae5bc0</title>
<polygon fill="none" stroke="black" points="508,-257 508,-293 614,-293 614,-257 508,-257"/>
<text text-anchor="start" x="516" y="-271.3" font-family="Times,serif" font-size="14.00">result = v25</text>
</g>
<!-- Node0xbecb0c0&#45;&gt;Node0x28ae5bc0 -->
<g id="edge40" class="edge"><title>Node0xbecb0c0&#45;&gt;Node0x28ae5bc0</title>
<path fill="none" stroke="black" d="M447.458,-368.253C470.604,-349.447 506.779,-320.054 532.058,-299.515"/>
<polygon fill="black" stroke="black" points="534.299,-302.205 539.853,-293.182 529.884,-296.772 534.299,-302.205"/>
<text text-anchor="middle" x="516.5" y="-338.8" font-family="Times,serif" font-size="14.00">v25 != 0</text>
</g>
<!-- Node0x28ae5b20&#45;&gt;Node0x1e8fde00 -->
<g id="edge41" class="edge"><title>Node0x28ae5b20&#45;&gt;Node0x1e8fde00</title>
<path fill="none" stroke="black" d="M418.355,-233.453C457.305,-222.28 500.055,-210.017 540.757,-198.342"/>
<polygon fill="black" stroke="black" points="541.857,-201.668 550.504,-195.546 539.927,-194.939 541.857,-201.668"/>
</g>
<!-- Node0x28ae5bc0&#45;&gt;Node0x1e8fde00 -->
<g id="edge42" class="edge"><title>Node0x28ae5bc0&#45;&gt;Node0x1e8fde00</title>
<path fill="none" stroke="black" d="M579.078,-256.97C592.336,-244.691 610.927,-227.901 628,-214 632.844,-210.056 637.892,-206.053 643.015,-202.069"/>
<polygon fill="black" stroke="black" points="645.323,-204.709 651.109,-195.834 641.051,-199.163 645.323,-204.709"/>
</g>
</g>
</svg>
