<?xml version="1.0" encoding="UTF-8" standalone="no"?>
<!DOCTYPE svg PUBLIC "-//W3C//DTD SVG 1.1//EN"
 "http://www.w3.org/Graphics/SVG/1.1/DTD/svg11.dtd">
<!-- Generated by graphviz version 2.38.0 (20140413.2041)
 -->
<!-- Title: Control&#45;flow graph for function &#39;__vsyscall(a1, a2, a3)&#39;. Pages: 1 -->
<svg width="416pt" height="308pt"
 viewBox="0.00 0.00 416.00 308.00" xmlns="http://www.w3.org/2000/svg" xmlns:xlink="http://www.w3.org/1999/xlink">
<g id="graph0" class="graph" transform="scale(1 1) rotate(0) translate(4 304)">
<title>Control&#45;flow graph for function &#39;__vsyscall(a1, a2, a3)&#39;.</title>
<polygon fill="white" stroke="none" points="-4,4 -4,-304 412,-304 412,4 -4,4"/>
<text text-anchor="middle" x="204" y="-7.8" font-family="Times,serif" font-size="14.00">Control&#45;flow graph for function &#39;__vsyscall(a1, a2, a3)&#39;.</text>
<!-- Node0x17cb6620 -->
<g id="node1" class="node"><title>Node0x17cb6620</title>
<polygon fill="none" stroke="black" points="174.5,-231.5 174.5,-299.5 233.5,-299.5 233.5,-231.5 174.5,-231.5"/>
<text text-anchor="start" x="182.5" y="-284.3" font-family="Times,serif" font-size="14.00">entry:</text>
<text text-anchor="start" x="182.5" y="-269.3" font-family="Times,serif" font-size="14.00"> a1</text>
<text text-anchor="start" x="182.5" y="-254.3" font-family="Times,serif" font-size="14.00"> a2</text>
<text text-anchor="start" x="182.5" y="-239.3" font-family="Times,serif" font-size="14.00"> a3</text>
</g>
<!-- Node0x159859e0 -->
<g id="node2" class="node"><title>Node0x159859e0</title>
<polygon fill="none" stroke="black" points="102.5,-96.5 102.5,-194.5 305.5,-194.5 305.5,-96.5 102.5,-96.5"/>
<text text-anchor="start" x="110.5" y="-179.3" font-family="Times,serif" font-size="14.00">result = g1</text>
<text text-anchor="start" x="110.5" y="-164.3" font-family="Times,serif" font-size="14.00"> function_8070c56(result)</text>
<text text-anchor="start" x="110.5" y="-149.3" font-family="Times,serif" font-size="14.00"> g1 = result</text>
<text text-anchor="start" x="110.5" y="-134.3" font-family="Times,serif" font-size="14.00"> v1</text>
<text text-anchor="start" x="110.5" y="-119.3" font-family="Times,serif" font-size="14.00"> g5 = v1</text>
<text text-anchor="start" x="110.5" y="-104.3" font-family="Times,serif" font-size="14.00"> return result</text>
</g>
<!-- Node0x17cb6620&#45;&gt;Node0x159859e0 -->
<g id="edge1" class="edge"><title>Node0x17cb6620&#45;&gt;Node0x159859e0</title>
<path fill="none" stroke="black" d="M204,-231.316C204,-223.095 204,-214.04 204,-205.001"/>
<polygon fill="black" stroke="black" points="207.5,-204.848 204,-194.848 200.5,-204.848 207.5,-204.848"/>
</g>
<!-- Node0x15985960 -->
<g id="node3" class="node"><title>Node0x15985960</title>
<polygon fill="none" stroke="black" points="177,-23.5 177,-59.5 231,-59.5 231,-23.5 177,-23.5"/>
<text text-anchor="start" x="185" y="-37.8" font-family="Times,serif" font-size="14.00">exit:</text>
</g>
<!-- Node0x159859e0&#45;&gt;Node0x15985960 -->
<g id="edge2" class="edge"><title>Node0x159859e0&#45;&gt;Node0x15985960</title>
<path fill="none" stroke="black" d="M204,-96.4868C204,-87.2893 204,-77.9618 204,-69.7064"/>
<polygon fill="black" stroke="black" points="207.5,-69.5725 204,-59.5725 200.5,-69.5725 207.5,-69.5725"/>
</g>
</g>
</svg>
