<?xml version="1.0" encoding="UTF-8" standalone="no"?>
<!DOCTYPE svg PUBLIC "-//W3C//DTD SVG 1.1//EN"
 "http://www.w3.org/Graphics/SVG/1.1/DTD/svg11.dtd">
<!-- Generated by graphviz version 2.38.0 (20140413.2041)
 -->
<!-- Title: Control&#45;flow graph for function &#39;is_symlink(*a1)&#39;. Pages: 1 -->
<svg width="730pt" height="477pt"
 viewBox="0.00 0.00 729.50 477.00" xmlns="http://www.w3.org/2000/svg" xmlns:xlink="http://www.w3.org/1999/xlink">
<g id="graph0" class="graph" transform="scale(1 1) rotate(0) translate(4 473)">
<title>Control&#45;flow graph for function &#39;is_symlink(*a1)&#39;.</title>
<polygon fill="white" stroke="none" points="-4,4 -4,-473 725.5,-473 725.5,4 -4,4"/>
<text text-anchor="middle" x="360.75" y="-7.8" font-family="Times,serif" font-size="14.00">Control&#45;flow graph for function &#39;is_symlink(*a1)&#39;.</text>
<!-- Node0xf1dc450 -->
<g id="node1" class="node"><title>Node0xf1dc450</title>
<polygon fill="none" stroke="black" points="238,-430.5 238,-468.5 297,-468.5 297,-430.5 238,-430.5"/>
<text text-anchor="start" x="246" y="-453.3" font-family="Times,serif" font-size="14.00">entry:</text>
<text text-anchor="start" x="246" y="-438.3" font-family="Times,serif" font-size="14.00"> a1</text>
</g>
<!-- Node0x163aab90 -->
<g id="node2" class="node"><title>Node0x163aab90</title>
<polygon fill="none" stroke="black" points="238,-354.5 238,-392.5 297,-392.5 297,-354.5 238,-354.5"/>
<text text-anchor="start" x="246" y="-377.3" font-family="Times,serif" font-size="14.00">result</text>
<text text-anchor="start" x="246" y="-362.3" font-family="Times,serif" font-size="14.00"> v1</text>
</g>
<!-- Node0xf1dc450&#45;&gt;Node0x163aab90 -->
<g id="edge1" class="edge"><title>Node0xf1dc450&#45;&gt;Node0x163aab90</title>
<path fill="none" stroke="black" d="M267.5,-430.208C267.5,-421.964 267.5,-412.038 267.5,-402.862"/>
<polygon fill="black" stroke="black" points="271,-402.582 267.5,-392.582 264,-402.582 271,-402.582"/>
</g>
<!-- Node0x163aa310 -->
<g id="node3" class="node"><title>Node0x163aa310</title>
<polygon fill="none" stroke="black" points="87.5,-278.5 87.5,-316.5 447.5,-316.5 447.5,-278.5 87.5,-278.5"/>
<text text-anchor="start" x="95.5" y="-301.3" font-family="Times,serif" font-size="14.00">if (lstat64(a1, BitCastExpr&lt;ptr&gt;(&amp;(v1))) &gt;= 0):</text>
<text text-anchor="start" x="95.5" y="-286.3" font-family="Times,serif" font-size="14.00"> else:</text>
</g>
<!-- Node0x163aab90&#45;&gt;Node0x163aa310 -->
<g id="edge2" class="edge"><title>Node0x163aab90&#45;&gt;Node0x163aa310</title>
<path fill="none" stroke="black" d="M267.5,-354.208C267.5,-345.964 267.5,-336.038 267.5,-326.862"/>
<polygon fill="black" stroke="black" points="271,-326.582 267.5,-316.582 264,-326.582 271,-326.582"/>
</g>
<!-- Node0x163ab1f0 -->
<g id="node4" class="node"><title>Node0x163ab1f0</title>
<polygon fill="none" stroke="black" points="0,-173.5 0,-226.5 267,-226.5 267,-173.5 0,-173.5"/>
<text text-anchor="start" x="8" y="-211.3" font-family="Times,serif" font-size="14.00">0x8048c57:</text>
<text text-anchor="start" x="8" y="-196.3" font-family="Times,serif" font-size="14.00"> v2</text>
<text text-anchor="start" x="8" y="-181.3" font-family="Times,serif" font-size="14.00"> result = ((v2 &amp; 61440) == 40960)</text>
</g>
<!-- Node0x163aa310&#45;&gt;Node0x163ab1f0 -->
<g id="edge3" class="edge"><title>Node0x163aa310&#45;&gt;Node0x163ab1f0</title>
<path fill="none" stroke="black" d="M132.347,-278.398C115.257,-273.572 101.601,-267.531 95.5,-260 89.1071,-252.108 90.9067,-243.1 96.2413,-234.539"/>
<polygon fill="black" stroke="black" points="99.062,-236.612 102.287,-226.52 93.4724,-232.398 99.062,-236.612"/>
<text text-anchor="middle" x="253" y="-248.8" font-family="Times,serif" font-size="14.00">lstat64(a1, BitCastExpr&lt;ptr&gt;(&amp;(v1))) &gt;= 0</text>
</g>
<!-- Node0x163ab250 -->
<g id="node5" class="node"><title>Node0x163ab250</title>
<polygon fill="none" stroke="black" points="356,-182 356,-218 445,-218 445,-182 356,-182"/>
<text text-anchor="start" x="364" y="-196.3" font-family="Times,serif" font-size="14.00">result = 1</text>
</g>
<!-- Node0x163aa310&#45;&gt;Node0x163ab250 -->
<g id="edge4" class="edge"><title>Node0x163aa310&#45;&gt;Node0x163ab250</title>
<path fill="none" stroke="black" d="M377.48,-278.49C394.685,-273.521 408.709,-267.405 414.5,-260 421.723,-250.764 420.011,-238.397 415.772,-227.372"/>
<polygon fill="black" stroke="black" points="418.894,-225.783 411.557,-218.141 412.527,-228.691 418.894,-225.783"/>
<text text-anchor="middle" x="570" y="-248.8" font-family="Times,serif" font-size="14.00">lstat64(a1, BitCastExpr&lt;ptr&gt;(&amp;(v1))) &lt; 0</text>
</g>
<!-- Node0x163ab100 -->
<g id="node6" class="node"><title>Node0x163ab100</title>
<polygon fill="none" stroke="black" points="240,-97.5 240,-135.5 353,-135.5 353,-97.5 240,-97.5"/>
<text text-anchor="start" x="248" y="-120.3" font-family="Times,serif" font-size="14.00">0x8048c6a:</text>
<text text-anchor="start" x="248" y="-105.3" font-family="Times,serif" font-size="14.00"> return result</text>
</g>
<!-- Node0x163ab1f0&#45;&gt;Node0x163ab100 -->
<g id="edge5" class="edge"><title>Node0x163ab1f0&#45;&gt;Node0x163ab100</title>
<path fill="none" stroke="black" d="M184.627,-173.437C205.921,-162.79 230.442,-150.529 251.091,-140.205"/>
<polygon fill="black" stroke="black" points="252.901,-143.213 260.28,-135.61 249.77,-136.952 252.901,-143.213"/>
</g>
<!-- Node0x163ab250&#45;&gt;Node0x163ab100 -->
<g id="edge6" class="edge"><title>Node0x163ab250&#45;&gt;Node0x163ab100</title>
<path fill="none" stroke="black" d="M378.698,-181.915C363.989,-170.388 344.346,-154.995 327.951,-142.147"/>
<polygon fill="black" stroke="black" points="329.747,-139.108 319.717,-135.694 325.429,-144.617 329.747,-139.108"/>
</g>
<!-- Node0x163aab30 -->
<g id="node7" class="node"><title>Node0x163aab30</title>
<polygon fill="none" stroke="black" points="269.5,-23.5 269.5,-59.5 323.5,-59.5 323.5,-23.5 269.5,-23.5"/>
<text text-anchor="start" x="277.5" y="-37.8" font-family="Times,serif" font-size="14.00">exit:</text>
</g>
<!-- Node0x163ab100&#45;&gt;Node0x163aab30 -->
<g id="edge7" class="edge"><title>Node0x163ab100&#45;&gt;Node0x163aab30</title>
<path fill="none" stroke="black" d="M296.5,-97.4551C296.5,-89.2008 296.5,-79.2377 296.5,-70.0742"/>
<polygon fill="black" stroke="black" points="300,-69.8347 296.5,-59.8347 293,-69.8347 300,-69.8347"/>
</g>
</g>
</svg>
