<?xml version="1.0" encoding="UTF-8" standalone="no"?>
<!DOCTYPE svg PUBLIC "-//W3C//DTD SVG 1.1//EN"
 "http://www.w3.org/Graphics/SVG/1.1/DTD/svg11.dtd">
<!-- Generated by graphviz version 2.38.0 (20140413.2041)
 -->
<!-- Title: Control&#45;flow graph for function &#39;mbedtls_pk_encrypt(*a1, a2, a3, a4)&#39;. Pages: 1 -->
<svg width="832pt" height="832pt"
 viewBox="0.00 0.00 832.00 832.00" xmlns="http://www.w3.org/2000/svg" xmlns:xlink="http://www.w3.org/1999/xlink">
<g id="graph0" class="graph" transform="scale(1 1) rotate(0) translate(4 828)">
<title>Control&#45;flow graph for function &#39;mbedtls_pk_encrypt(*a1, a2, a3, a4)&#39;.</title>
<polygon fill="white" stroke="none" points="-4,4 -4,-828 828,-828 828,4 -4,4"/>
<text text-anchor="middle" x="412" y="-7.8" font-family="Times,serif" font-size="14.00">Control&#45;flow graph for function &#39;mbedtls_pk_encrypt(*a1, a2, a3, a4)&#39;.</text>
<!-- Node0x1d336a40 -->
<g id="node1" class="node"><title>Node0x1d336a40</title>
<polygon fill="none" stroke="black" points="89,-740.5 89,-823.5 148,-823.5 148,-740.5 89,-740.5"/>
<text text-anchor="start" x="97" y="-808.3" font-family="Times,serif" font-size="14.00">entry:</text>
<text text-anchor="start" x="97" y="-793.3" font-family="Times,serif" font-size="14.00"> a1</text>
<text text-anchor="start" x="97" y="-778.3" font-family="Times,serif" font-size="14.00"> a2</text>
<text text-anchor="start" x="97" y="-763.3" font-family="Times,serif" font-size="14.00"> a3</text>
<text text-anchor="start" x="97" y="-748.3" font-family="Times,serif" font-size="14.00"> a4</text>
</g>
<!-- Node0x1d339910 -->
<g id="node2" class="node"><title>Node0x1d339910</title>
<polygon fill="none" stroke="black" points="46.5,-664.5 46.5,-702.5 190.5,-702.5 190.5,-664.5 46.5,-664.5"/>
<text text-anchor="start" x="54.5" y="-687.3" font-family="Times,serif" font-size="14.00">0x804cf40:</text>
<text text-anchor="start" x="54.5" y="-672.3" font-family="Times,serif" font-size="14.00"> if (a1 == NULL):</text>
</g>
<!-- Node0x1d336a40&#45;&gt;Node0x1d339910 -->
<g id="edge1" class="edge"><title>Node0x1d336a40&#45;&gt;Node0x1d339910</title>
<path fill="none" stroke="black" d="M118.5,-740.355C118.5,-731.083 118.5,-721.427 118.5,-712.803"/>
<polygon fill="black" stroke="black" points="122,-712.538 118.5,-702.538 115,-712.538 122,-712.538"/>
</g>
<!-- Node0x1d339750 -->
<g id="node3" class="node"><title>Node0x1d339750</title>
<polygon fill="none" stroke="black" points="0,-519.5 0,-557.5 121,-557.5 121,-519.5 0,-519.5"/>
<text text-anchor="start" x="8" y="-542.3" font-family="Times,serif" font-size="14.00">0x804cf6d:</text>
<text text-anchor="start" x="8" y="-527.3" font-family="Times,serif" font-size="14.00"> return &#45;16000</text>
</g>
<!-- Node0x1d339910&#45;&gt;Node0x1d339750 -->
<g id="edge2" class="edge"><title>Node0x1d339910&#45;&gt;Node0x1d339750</title>
<path fill="none" stroke="black" d="M75.1288,-664.383C68.0675,-659.474 61.7001,-653.408 57.5,-646 44.0324,-622.247 47.0944,-590.475 52.1008,-567.83"/>
<polygon fill="black" stroke="black" points="55.5716,-568.373 54.5678,-557.826 48.7752,-566.697 55.5716,-568.373"/>
<text text-anchor="middle" x="104.5" y="-634.8" font-family="Times,serif" font-size="14.00">a1 == NULL</text>
</g>
<!-- Node0x1d339b30 -->
<g id="node4" class="node"><title>Node0x1d339b30</title>
<polygon fill="none" stroke="black" points="132.5,-576.5 132.5,-612.5 222.5,-612.5 222.5,-576.5 132.5,-576.5"/>
<text text-anchor="start" x="140.5" y="-590.8" font-family="Times,serif" font-size="14.00">v1 = *(a1)</text>
</g>
<!-- Node0x1d339910&#45;&gt;Node0x1d339b30 -->
<g id="edge3" class="edge"><title>Node0x1d339910&#45;&gt;Node0x1d339b30</title>
<path fill="none" stroke="black" d="M139.584,-664.432C145.23,-658.905 151.007,-652.547 155.5,-646 160.502,-638.713 164.759,-630.105 168.158,-622.081"/>
<polygon fill="black" stroke="black" points="171.442,-623.295 171.871,-612.709 164.934,-620.717 171.442,-623.295"/>
<text text-anchor="middle" x="208.5" y="-634.8" font-family="Times,serif" font-size="14.00">a1 != NULL</text>
</g>
<!-- Node0x1d339890 -->
<g id="node5" class="node"><title>Node0x1d339890</title>
<polygon fill="none" stroke="black" points="118.5,-23.5 118.5,-59.5 172.5,-59.5 172.5,-23.5 118.5,-23.5"/>
<text text-anchor="start" x="126.5" y="-37.8" font-family="Times,serif" font-size="14.00">exit:</text>
</g>
<!-- Node0x1d339750&#45;&gt;Node0x1d339890 -->
<g id="edge4" class="edge"><title>Node0x1d339750&#45;&gt;Node0x1d339890</title>
<path fill="none" stroke="black" d="M60.5,-519.438C60.5,-499.774 60.5,-467.403 60.5,-439.5 60.5,-439.5 60.5,-439.5 60.5,-153 60.5,-117.338 88.658,-86.122 112.561,-66.0478"/>
<polygon fill="black" stroke="black" points="114.872,-68.6801 120.457,-59.6768 110.476,-63.2323 114.872,-68.6801"/>
</g>
<!-- Node0x1d339be0 -->
<g id="node6" class="node"><title>Node0x1d339be0</title>
<polygon fill="none" stroke="black" points="125,-464.5 125,-500.5 230,-500.5 230,-464.5 125,-464.5"/>
<text text-anchor="start" x="133" y="-478.8" font-family="Times,serif" font-size="14.00">if (v1 == 0):</text>
</g>
<!-- Node0x1d339b30&#45;&gt;Node0x1d339be0 -->
<g id="edge5" class="edge"><title>Node0x1d339b30&#45;&gt;Node0x1d339be0</title>
<path fill="none" stroke="black" d="M177.5,-576.312C177.5,-558.715 177.5,-531.107 177.5,-510.571"/>
<polygon fill="black" stroke="black" points="181,-510.567 177.5,-500.567 174,-510.567 181,-510.567"/>
</g>
<!-- Node0x1d339c40 -->
<g id="node7" class="node"><title>Node0x1d339c40</title>
<polygon fill="none" stroke="black" points="76,-317.5 76,-355.5 197,-355.5 197,-317.5 76,-317.5"/>
<text text-anchor="start" x="84" y="-340.3" font-family="Times,serif" font-size="14.00">0x804cf6d:</text>
<text text-anchor="start" x="84" y="-325.3" font-family="Times,serif" font-size="14.00"> return &#45;16000</text>
</g>
<!-- Node0x1d339be0&#45;&gt;Node0x1d339c40 -->
<g id="edge6" class="edge"><title>Node0x1d339be0&#45;&gt;Node0x1d339c40</title>
<path fill="none" stroke="black" d="M171.678,-464.421C167.055,-450.619 160.55,-430.653 155.5,-413 151.013,-397.315 146.533,-379.636 143.051,-365.331"/>
<polygon fill="black" stroke="black" points="146.449,-364.491 140.707,-355.588 139.643,-366.129 146.449,-364.491"/>
<text text-anchor="middle" x="195.5" y="-434.8" font-family="Times,serif" font-size="14.00">v1 == 0</text>
</g>
<!-- Node0x1d339d90 -->
<g id="node8" class="node"><title>Node0x1d339d90</title>
<polygon fill="none" stroke="black" points="165,-374.5 165,-412.5 488,-412.5 488,-374.5 165,-374.5"/>
<text text-anchor="start" x="173" y="-397.3" font-family="Times,serif" font-size="14.00">v2 = *(IntToPtrCastExpr&lt;ptr&gt;((v1 + 28)))</text>
<text text-anchor="start" x="173" y="-382.3" font-family="Times,serif" font-size="14.00"> g237 = (v2 == 0)</text>
</g>
<!-- Node0x1d339be0&#45;&gt;Node0x1d339d90 -->
<g id="edge7" class="edge"><title>Node0x1d339be0&#45;&gt;Node0x1d339d90</title>
<path fill="none" stroke="black" d="M206.938,-464.312C229.749,-450.992 261.589,-432.401 286.677,-417.753"/>
<polygon fill="black" stroke="black" points="288.714,-420.616 295.585,-412.551 285.184,-414.571 288.714,-420.616"/>
<text text-anchor="middle" x="287.5" y="-434.8" font-family="Times,serif" font-size="14.00">v1 != 0</text>
</g>
<!-- Node0x1d339c40&#45;&gt;Node0x1d339890 -->
<g id="edge8" class="edge"><title>Node0x1d339c40&#45;&gt;Node0x1d339890</title>
<path fill="none" stroke="black" d="M135.483,-317.206C133.482,-277.192 129.782,-178.916 136.5,-97 137.236,-88.0305 138.641,-78.3134 140.127,-69.6021"/>
<polygon fill="black" stroke="black" points="143.602,-70.0565 141.939,-59.5929 136.714,-68.8094 143.602,-70.0565"/>
</g>
<!-- Node0x1d33a010 -->
<g id="node9" class="node"><title>Node0x1d33a010</title>
<polygon fill="none" stroke="black" points="274,-262.5 274,-298.5 379,-298.5 379,-262.5 274,-262.5"/>
<text text-anchor="start" x="282" y="-276.8" font-family="Times,serif" font-size="14.00">if (v2 == 0):</text>
</g>
<!-- Node0x1d339d90&#45;&gt;Node0x1d33a010 -->
<g id="edge9" class="edge"><title>Node0x1d339d90&#45;&gt;Node0x1d33a010</title>
<path fill="none" stroke="black" d="M326.5,-374.171C326.5,-356.424 326.5,-329.294 326.5,-308.966"/>
<polygon fill="black" stroke="black" points="330,-308.76 326.5,-298.76 323,-308.76 330,-308.76"/>
</g>
<!-- Node0xf2466b0 -->
<g id="node10" class="node"><title>Node0xf2466b0</title>
<polygon fill="none" stroke="black" points="146,-135 146,-173 267,-173 267,-135 146,-135"/>
<text text-anchor="start" x="154" y="-157.8" font-family="Times,serif" font-size="14.00">0x804cf6d:</text>
<text text-anchor="start" x="154" y="-142.8" font-family="Times,serif" font-size="14.00"> return &#45;16128</text>
</g>
<!-- Node0x1d33a010&#45;&gt;Node0xf2466b0 -->
<g id="edge10" class="edge"><title>Node0x1d33a010&#45;&gt;Node0xf2466b0</title>
<path fill="none" stroke="black" d="M310.066,-262.45C289.678,-241.297 254.729,-205.037 231.131,-180.554"/>
<polygon fill="black" stroke="black" points="233.361,-177.825 223.901,-173.053 228.321,-182.682 233.361,-177.825"/>
<text text-anchor="middle" x="320.5" y="-232.8" font-family="Times,serif" font-size="14.00">v2 == 0</text>
</g>
<!-- Node0xf246500 -->
<g id="node11" class="node"><title>Node0xf246500</title>
<polygon fill="none" stroke="black" points="285,-97.5 285,-210.5 824,-210.5 824,-97.5 285,-97.5"/>
<text text-anchor="start" x="293" y="-195.3" font-family="Times,serif" font-size="14.00">result = *(IntToPtrCastExpr&lt;ptr&gt;((PtrToIntCastExpr&lt;int32&gt;(a1) + 4)))</text>
<text text-anchor="start" x="293" y="-180.3" font-family="Times,serif" font-size="14.00"> g1 = result</text>
<text text-anchor="start" x="293" y="-165.3" font-family="Times,serif" font-size="14.00"> g6 = v2</text>
<text text-anchor="start" x="293" y="-150.3" font-family="Times,serif" font-size="14.00"> v3</text>
<text text-anchor="start" x="293" y="-135.3" font-family="Times,serif" font-size="14.00"> g2 = v3</text>
<text text-anchor="start" x="293" y="-120.3" font-family="Times,serif" font-size="14.00"> IntToPtrCastExpr&lt;ptr&gt;(v2)(result)</text>
<text text-anchor="start" x="293" y="-105.3" font-family="Times,serif" font-size="14.00"> return result</text>
</g>
<!-- Node0x1d33a010&#45;&gt;Node0xf246500 -->
<g id="edge11" class="edge"><title>Node0x1d33a010&#45;&gt;Node0xf246500</title>
<path fill="none" stroke="black" d="M357.724,-262.45C380.299,-250.123 412.269,-232.666 443.891,-215.398"/>
<polygon fill="black" stroke="black" points="445.693,-218.402 452.792,-210.538 442.338,-212.258 445.693,-218.402"/>
<text text-anchor="middle" x="439.5" y="-232.8" font-family="Times,serif" font-size="14.00">v2 != 0</text>
</g>
<!-- Node0xf2466b0&#45;&gt;Node0x1d339890 -->
<g id="edge12" class="edge"><title>Node0xf2466b0&#45;&gt;Node0x1d339890</title>
<path fill="none" stroke="black" d="M196.427,-134.753C186.45,-116.68 171.075,-88.8287 159.828,-68.455"/>
<polygon fill="black" stroke="black" points="162.882,-66.7453 154.985,-59.6822 156.754,-70.1284 162.882,-66.7453"/>
</g>
<!-- Node0xf246500&#45;&gt;Node0x1d339890 -->
<g id="edge13" class="edge"><title>Node0xf246500&#45;&gt;Node0x1d339890</title>
<path fill="none" stroke="black" d="M348.802,-97.4263C284.89,-80.1591 221.134,-62.934 182.505,-52.4977"/>
<polygon fill="black" stroke="black" points="183.336,-49.0967 172.769,-49.8673 181.51,-55.8544 183.336,-49.0967"/>
</g>
</g>
</svg>
