<?xml version="1.0" encoding="UTF-8" standalone="no"?>
<!DOCTYPE svg PUBLIC "-//W3C//DTD SVG 1.1//EN"
 "http://www.w3.org/Graphics/SVG/1.1/DTD/svg11.dtd">
<!-- Generated by graphviz version 2.38.0 (20140413.2041)
 -->
<!-- Title: Control&#45;flow graph for function &#39;md5_clone_wrap(a1)&#39;. Pages: 1 -->
<svg width="618pt" height="263pt"
 viewBox="0.00 0.00 618.00 263.00" xmlns="http://www.w3.org/2000/svg" xmlns:xlink="http://www.w3.org/1999/xlink">
<g id="graph0" class="graph" transform="scale(1 1) rotate(0) translate(4 259)">
<title>Control&#45;flow graph for function &#39;md5_clone_wrap(a1)&#39;.</title>
<polygon fill="white" stroke="none" points="-4,4 -4,-259 614,-259 614,4 -4,4"/>
<text text-anchor="middle" x="305" y="-7.8" font-family="Times,serif" font-size="14.00">Control&#45;flow graph for function &#39;md5_clone_wrap(a1)&#39;.</text>
<!-- Node0x9c73d90 -->
<g id="node1" class="node"><title>Node0x9c73d90</title>
<polygon fill="none" stroke="black" points="275.5,-216.5 275.5,-254.5 334.5,-254.5 334.5,-216.5 275.5,-216.5"/>
<text text-anchor="start" x="283.5" y="-239.3" font-family="Times,serif" font-size="14.00">entry:</text>
<text text-anchor="start" x="283.5" y="-224.3" font-family="Times,serif" font-size="14.00"> a1</text>
</g>
<!-- Node0x9c74430 -->
<g id="node2" class="node"><title>Node0x9c74430</title>
<polygon fill="none" stroke="black" points="0,-96.5 0,-179.5 610,-179.5 610,-96.5 0,-96.5"/>
<text text-anchor="start" x="8" y="-164.3" font-family="Times,serif" font-size="14.00">0x8062e50:</text>
<text text-anchor="start" x="8" y="-149.3" font-family="Times,serif" font-size="14.00"> v1</text>
<text text-anchor="start" x="8" y="-134.3" font-family="Times,serif" font-size="14.00"> result</text>
<text text-anchor="start" x="8" y="-119.3" font-family="Times,serif" font-size="14.00"> mbedtls_md5_clone(IntToPtrCastExpr&lt;ptr&gt;(result), IntToPtrCastExpr&lt;ptr&gt;(v1))</text>
<text text-anchor="start" x="8" y="-104.3" font-family="Times,serif" font-size="14.00"> return result</text>
</g>
<!-- Node0x9c73d90&#45;&gt;Node0x9c74430 -->
<g id="edge1" class="edge"><title>Node0x9c73d90&#45;&gt;Node0x9c74430</title>
<path fill="none" stroke="black" d="M305,-216.087C305,-208.444 305,-199.165 305,-189.73"/>
<polygon fill="black" stroke="black" points="308.5,-189.501 305,-179.501 301.5,-189.501 308.5,-189.501"/>
</g>
<!-- Node0x9c743b0 -->
<g id="node3" class="node"><title>Node0x9c743b0</title>
<polygon fill="none" stroke="black" points="278,-23.5 278,-59.5 332,-59.5 332,-23.5 278,-23.5"/>
<text text-anchor="start" x="286" y="-37.8" font-family="Times,serif" font-size="14.00">exit:</text>
</g>
<!-- Node0x9c74430&#45;&gt;Node0x9c743b0 -->
<g id="edge2" class="edge"><title>Node0x9c74430&#45;&gt;Node0x9c743b0</title>
<path fill="none" stroke="black" d="M305,-96.3751C305,-87.4706 305,-78.246 305,-70"/>
<polygon fill="black" stroke="black" points="308.5,-69.8327 305,-59.8328 301.5,-69.8328 308.5,-69.8327"/>
</g>
</g>
</svg>
