<?xml version="1.0" encoding="UTF-8" standalone="no"?>
<!DOCTYPE svg PUBLIC "-//W3C//DTD SVG 1.1//EN"
 "http://www.w3.org/Graphics/SVG/1.1/DTD/svg11.dtd">
<!-- Generated by graphviz version 2.38.0 (20140413.2041)
 -->
<!-- Title: Control&#45;flow graph for function &#39;mbedtls_mpi_mod_int(*a1, *a2, a3)&#39;. Pages: 1 -->
<svg width="1139pt" height="1596pt"
 viewBox="0.00 0.00 1138.50 1596.00" xmlns="http://www.w3.org/2000/svg" xmlns:xlink="http://www.w3.org/1999/xlink">
<g id="graph0" class="graph" transform="scale(1 1) rotate(0) translate(4 1592)">
<title>Control&#45;flow graph for function &#39;mbedtls_mpi_mod_int(*a1, *a2, a3)&#39;.</title>
<polygon fill="white" stroke="none" points="-4,4 -4,-1592 1134.5,-1592 1134.5,4 -4,4"/>
<text text-anchor="middle" x="565.25" y="-7.8" font-family="Times,serif" font-size="14.00">Control&#45;flow graph for function &#39;mbedtls_mpi_mod_int(*a1, *a2, a3)&#39;.</text>
<!-- Node0x1c2a8710 -->
<g id="node1" class="node"><title>Node0x1c2a8710</title>
<polygon fill="none" stroke="black" points="314.5,-1519.5 314.5,-1587.5 373.5,-1587.5 373.5,-1519.5 314.5,-1519.5"/>
<text text-anchor="start" x="322.5" y="-1572.3" font-family="Times,serif" font-size="14.00">entry:</text>
<text text-anchor="start" x="322.5" y="-1557.3" font-family="Times,serif" font-size="14.00"> a1</text>
<text text-anchor="start" x="322.5" y="-1542.3" font-family="Times,serif" font-size="14.00"> a2</text>
<text text-anchor="start" x="322.5" y="-1527.3" font-family="Times,serif" font-size="14.00"> a3</text>
</g>
<!-- Node0x16532150 -->
<g id="node2" class="node"><title>Node0x16532150</title>
<polygon fill="none" stroke="black" points="206,-1428.5 206,-1481.5 482,-1481.5 482,-1428.5 206,-1428.5"/>
<text text-anchor="start" x="214" y="-1466.3" font-family="Times,serif" font-size="14.00">v1 = PtrToIntCastExpr&lt;int32&gt;(a1)</text>
<text text-anchor="start" x="214" y="-1451.3" font-family="Times,serif" font-size="14.00"> v2 = PtrToIntCastExpr&lt;int32&gt;(a2)</text>
<text text-anchor="start" x="214" y="-1436.3" font-family="Times,serif" font-size="14.00"> v3 = a3</text>
</g>
<!-- Node0x1c2a8710&#45;&gt;Node0x16532150 -->
<g id="edge1" class="edge"><title>Node0x1c2a8710&#45;&gt;Node0x16532150</title>
<path fill="none" stroke="black" d="M344,-1519.29C344,-1510.43 344,-1500.83 344,-1491.84"/>
<polygon fill="black" stroke="black" points="347.5,-1491.65 344,-1481.65 340.5,-1491.65 347.5,-1491.65"/>
</g>
<!-- Node0x7ec0420 -->
<g id="node3" class="node"><title>Node0x7ec0420</title>
<polygon fill="none" stroke="black" points="291.5,-1354.5 291.5,-1390.5 396.5,-1390.5 396.5,-1354.5 291.5,-1354.5"/>
<text text-anchor="start" x="299.5" y="-1368.8" font-family="Times,serif" font-size="14.00">if (v3 == 0):</text>
</g>
<!-- Node0x16532150&#45;&gt;Node0x7ec0420 -->
<g id="edge2" class="edge"><title>Node0x16532150&#45;&gt;Node0x7ec0420</title>
<path fill="none" stroke="black" d="M344,-1428.09C344,-1419.46 344,-1409.82 344,-1401.07"/>
<polygon fill="black" stroke="black" points="347.5,-1400.97 344,-1390.97 340.5,-1400.97 347.5,-1400.97"/>
</g>
<!-- Node0x85a7e20 -->
<g id="node4" class="node"><title>Node0x85a7e20</title>
<polygon fill="none" stroke="black" points="35.5,-1207.5 35.5,-1245.5 136.5,-1245.5 136.5,-1207.5 35.5,-1207.5"/>
<text text-anchor="start" x="43.5" y="-1230.3" font-family="Times,serif" font-size="14.00">0x805669e:</text>
<text text-anchor="start" x="43.5" y="-1215.3" font-family="Times,serif" font-size="14.00"> return &#45;12</text>
</g>
<!-- Node0x7ec0420&#45;&gt;Node0x85a7e20 -->
<g id="edge3" class="edge"><title>Node0x7ec0420&#45;&gt;Node0x85a7e20</title>
<path fill="none" stroke="black" d="M313.391,-1354.42C267.179,-1328.62 179.491,-1279.68 127.549,-1250.69"/>
<polygon fill="black" stroke="black" points="129.034,-1247.51 118.596,-1245.69 125.622,-1253.62 129.034,-1247.51"/>
<text text-anchor="middle" x="309" y="-1324.8" font-family="Times,serif" font-size="14.00">v3 == 0</text>
</g>
<!-- Node0x85a5e90 -->
<g id="node5" class="node"><title>Node0x85a5e90</title>
<polygon fill="none" stroke="black" points="765.5,-1264.5 765.5,-1302.5 866.5,-1302.5 866.5,-1264.5 765.5,-1264.5"/>
<text text-anchor="start" x="773.5" y="-1287.3" font-family="Times,serif" font-size="14.00">0x80566b0:</text>
<text text-anchor="start" x="773.5" y="-1272.3" font-family="Times,serif" font-size="14.00"> if (v3 &lt; 0):</text>
</g>
<!-- Node0x7ec0420&#45;&gt;Node0x85a5e90 -->
<g id="edge4" class="edge"><title>Node0x7ec0420&#45;&gt;Node0x85a5e90</title>
<path fill="none" stroke="black" d="M396.77,-1361.77C485.086,-1345.49 662.294,-1312.83 755.509,-1295.65"/>
<polygon fill="black" stroke="black" points="756.156,-1299.09 765.356,-1293.83 754.887,-1292.21 756.156,-1299.09"/>
<text text-anchor="middle" x="636" y="-1324.8" font-family="Times,serif" font-size="14.00">v3 != 0</text>
</g>
<!-- Node0x92fcb10 -->
<g id="node6" class="node"><title>Node0x92fcb10</title>
<polygon fill="none" stroke="black" points="852,-23.5 852,-59.5 906,-59.5 906,-23.5 852,-23.5"/>
<text text-anchor="start" x="860" y="-37.8" font-family="Times,serif" font-size="14.00">exit:</text>
</g>
<!-- Node0x85a7e20&#45;&gt;Node0x92fcb10 -->
<g id="edge5" class="edge"><title>Node0x85a7e20&#45;&gt;Node0x92fcb10</title>
<path fill="none" stroke="black" d="M59.7299,-1207.35C34.4388,-1187.52 0,-1153.22 0,-1113.5 0,-1113.5 0,-1113.5 0,-115.5 0,-72.587 674.138,-48.8497 841.662,-43.6134"/>
<polygon fill="black" stroke="black" points="841.842,-47.1096 851.729,-43.302 841.626,-40.1129 841.842,-47.1096"/>
</g>
<!-- Node0x18ecbef0 -->
<g id="node7" class="node"><title>Node0x18ecbef0</title>
<polygon fill="none" stroke="black" points="1029.5,-1093.5 1029.5,-1131.5 1130.5,-1131.5 1130.5,-1093.5 1029.5,-1093.5"/>
<text text-anchor="start" x="1037.5" y="-1116.3" font-family="Times,serif" font-size="14.00">0x805669e:</text>
<text text-anchor="start" x="1037.5" y="-1101.3" font-family="Times,serif" font-size="14.00"> return &#45;10</text>
</g>
<!-- Node0x85a5e90&#45;&gt;Node0x18ecbef0 -->
<g id="edge6" class="edge"><title>Node0x85a5e90&#45;&gt;Node0x18ecbef0</title>
<path fill="none" stroke="black" d="M848.805,-1264.35C858.894,-1258.62 869.978,-1252.17 880,-1246 939.029,-1209.67 1005.83,-1164.58 1045.35,-1137.47"/>
<polygon fill="black" stroke="black" points="1047.58,-1140.19 1053.84,-1131.64 1043.61,-1134.42 1047.58,-1140.19"/>
<text text-anchor="middle" x="963" y="-1222.8" font-family="Times,serif" font-size="14.00">v3 &lt; 0</text>
</g>
<!-- Node0xd1ac370 -->
<g id="node8" class="node"><title>Node0xd1ac370</title>
<polygon fill="none" stroke="black" points="761,-1150.5 761,-1188.5 871,-1188.5 871,-1150.5 761,-1150.5"/>
<text text-anchor="start" x="769" y="-1173.3" font-family="Times,serif" font-size="14.00">0x80566b2:</text>
<text text-anchor="start" x="769" y="-1158.3" font-family="Times,serif" font-size="14.00"> if (v3 == 1):</text>
</g>
<!-- Node0x85a5e90&#45;&gt;Node0xd1ac370 -->
<g id="edge7" class="edge"><title>Node0x85a5e90&#45;&gt;Node0xd1ac370</title>
<path fill="none" stroke="black" d="M816,-1264.01C816,-1246.23 816,-1219.12 816,-1198.66"/>
<polygon fill="black" stroke="black" points="819.5,-1198.65 816,-1188.65 812.5,-1198.65 819.5,-1198.65"/>
<text text-anchor="middle" x="846" y="-1222.8" font-family="Times,serif" font-size="14.00">v3 &gt;= 0</text>
</g>
<!-- Node0x18ecbef0&#45;&gt;Node0x92fcb10 -->
<g id="edge8" class="edge"><title>Node0x18ecbef0&#45;&gt;Node0x92fcb10</title>
<path fill="none" stroke="black" d="M1088.17,-1093.2C1098.79,-1067.7 1116,-1019.79 1116,-977 1116,-977 1116,-977 1116,-115.5 1116,-74.2242 983.045,-53.8267 916.3,-46.1874"/>
<polygon fill="black" stroke="black" points="916.511,-42.6894 906.187,-45.0696 915.742,-49.6471 916.511,-42.6894"/>
</g>
<!-- Node0xd442b60 -->
<g id="node9" class="node"><title>Node0xd442b60</title>
<polygon fill="none" stroke="black" points="938.5,-949.5 938.5,-1002.5 1039.5,-1002.5 1039.5,-949.5 938.5,-949.5"/>
<text text-anchor="start" x="946.5" y="-987.3" font-family="Times,serif" font-size="14.00">0x8056722:</text>
<text text-anchor="start" x="946.5" y="-972.3" font-family="Times,serif" font-size="14.00"> *(a1) = 0</text>
<text text-anchor="start" x="946.5" y="-957.3" font-family="Times,serif" font-size="14.00"> return 0</text>
</g>
<!-- Node0xd1ac370&#45;&gt;Node0xd442b60 -->
<g id="edge9" class="edge"><title>Node0xd1ac370&#45;&gt;Node0xd442b60</title>
<path fill="none" stroke="black" d="M839.535,-1150.32C846.364,-1144.7 853.679,-1138.31 860,-1132 899.005,-1093.06 938.822,-1043.39 963.702,-1010.92"/>
<polygon fill="black" stroke="black" points="966.728,-1012.72 970.002,-1002.65 961.159,-1008.48 966.728,-1012.72"/>
<text text-anchor="middle" x="925" y="-1108.8" font-family="Times,serif" font-size="14.00">v3 == 1</text>
</g>
<!-- Node0x28adf0c0 -->
<g id="node10" class="node"><title>Node0x28adf0c0</title>
<polygon fill="none" stroke="black" points="717,-1021.5 717,-1074.5 827,-1074.5 827,-1021.5 717,-1021.5"/>
<text text-anchor="start" x="725" y="-1059.3" font-family="Times,serif" font-size="14.00">0x80566b7:</text>
<text text-anchor="start" x="725" y="-1044.3" font-family="Times,serif" font-size="14.00"> if (v3 == 2):</text>
<text text-anchor="start" x="725" y="-1029.3" font-family="Times,serif" font-size="14.00"> else:</text>
</g>
<!-- Node0xd1ac370&#45;&gt;Node0x28adf0c0 -->
<g id="edge10" class="edge"><title>Node0xd1ac370&#45;&gt;Node0x28adf0c0</title>
<path fill="none" stroke="black" d="M809.317,-1150.35C802.896,-1132.91 793.019,-1106.09 785.039,-1084.41"/>
<polygon fill="black" stroke="black" points="788.265,-1083.04 781.525,-1074.87 781.696,-1085.46 788.265,-1083.04"/>
<text text-anchor="middle" x="829" y="-1108.8" font-family="Times,serif" font-size="14.00">v3 != 1</text>
</g>
<!-- Node0xd442b60&#45;&gt;Node0x92fcb10 -->
<g id="edge11" class="edge"><title>Node0xd442b60&#45;&gt;Node0x92fcb10</title>
<path fill="none" stroke="black" d="M1021.13,-949.412C1046.62,-926.023 1078,-888.924 1078,-848 1078,-848 1078,-848 1078,-115.5 1078,-91.1314 1059.54,-89.3912 1038,-78 999.532,-57.6589 949.875,-48.9452 916.37,-45.23"/>
<polygon fill="black" stroke="black" points="916.396,-41.7148 906.094,-44.191 915.692,-48.6793 916.396,-41.7148"/>
</g>
<!-- Node0x85a64b0 -->
<g id="node11" class="node"><title>Node0x85a64b0</title>
<polygon fill="none" stroke="black" points="481.5,-820.5 481.5,-873.5 1062.5,-873.5 1062.5,-820.5 481.5,-820.5"/>
<text text-anchor="start" x="489.5" y="-858.3" font-family="Times,serif" font-size="14.00">0x8056732:</text>
<text text-anchor="start" x="489.5" y="-843.3" font-family="Times,serif" font-size="14.00"> g6 = v1</text>
<text text-anchor="start" x="489.5" y="-828.3" font-family="Times,serif" font-size="14.00"> *(a1) = (*(IntToPtrCastExpr&lt;ptr&gt;(*(IntToPtrCastExpr&lt;ptr&gt;((v2 + 8))))) % 2)</text>
</g>
<!-- Node0x28adf0c0&#45;&gt;Node0x85a64b0 -->
<g id="edge12" class="edge"><title>Node0x28adf0c0&#45;&gt;Node0x85a64b0</title>
<path fill="none" stroke="black" d="M772,-1021.39C772,-986.316 772,-923.173 772,-883.536"/>
<polygon fill="black" stroke="black" points="775.5,-883.51 772,-873.51 768.5,-883.51 775.5,-883.51"/>
<text text-anchor="middle" x="802" y="-972.3" font-family="Times,serif" font-size="14.00">v3 == 2</text>
</g>
<!-- Node0x85a8580 -->
<g id="node12" class="node"><title>Node0x85a8580</title>
<polygon fill="none" stroke="black" points="370,-892.5 370,-930.5 684,-930.5 684,-892.5 370,-892.5"/>
<text text-anchor="start" x="378" y="-915.3" font-family="Times,serif" font-size="14.00">v4 = *(IntToPtrCastExpr&lt;ptr&gt;((v2 + 4)))</text>
<text text-anchor="start" x="378" y="-900.3" font-family="Times,serif" font-size="14.00"> v5 = 0</text>
</g>
<!-- Node0x28adf0c0&#45;&gt;Node0x85a8580 -->
<g id="edge13" class="edge"><title>Node0x28adf0c0&#45;&gt;Node0x85a8580</title>
<path fill="none" stroke="black" d="M725.341,-1021.38C680.234,-996.622 612.509,-959.443 569.034,-935.576"/>
<polygon fill="black" stroke="black" points="570.592,-932.438 560.141,-930.694 567.223,-938.574 570.592,-932.438"/>
<text text-anchor="middle" x="713" y="-972.3" font-family="Times,serif" font-size="14.00">v3 != 2</text>
</g>
<!-- Node0x18ecc660 -->
<g id="node13" class="node"><title>Node0x18ecc660</title>
<polygon fill="none" stroke="black" points="948.5,-509.5 948.5,-547.5 1049.5,-547.5 1049.5,-509.5 948.5,-509.5"/>
<text text-anchor="start" x="956.5" y="-532.3" font-family="Times,serif" font-size="14.00">0x805669e:</text>
<text text-anchor="start" x="956.5" y="-517.3" font-family="Times,serif" font-size="14.00"> return 0</text>
</g>
<!-- Node0x85a64b0&#45;&gt;Node0x18ecc660 -->
<g id="edge14" class="edge"><title>Node0x85a64b0&#45;&gt;Node0x18ecc660</title>
<path fill="none" stroke="black" d="M856.595,-820.447C907.278,-800.293 967.603,-766.626 998,-714 1026.34,-664.941 1016,-595.602 1006.89,-557.423"/>
<polygon fill="black" stroke="black" points="1010.24,-556.362 1004.39,-547.524 1003.45,-558.077 1010.24,-556.362"/>
</g>
<!-- Node0x85a8cb0 -->
<g id="node14" class="node"><title>Node0x85a8cb0</title>
<polygon fill="none" stroke="black" points="416.5,-765.5 416.5,-801.5 515.5,-801.5 515.5,-765.5 416.5,-765.5"/>
<text text-anchor="start" x="424.5" y="-779.8" font-family="Times,serif" font-size="14.00">if (v4 != 0):</text>
</g>
<!-- Node0x85a8580&#45;&gt;Node0x85a8cb0 -->
<g id="edge15" class="edge"><title>Node0x85a8580&#45;&gt;Node0x85a8cb0</title>
<path fill="none" stroke="black" d="M496.368,-892.168C490.056,-887.041 484.093,-880.941 480,-874 468.914,-855.201 465.733,-830.486 465.144,-811.791"/>
<polygon fill="black" stroke="black" points="468.642,-811.539 465.057,-801.569 461.643,-811.599 468.642,-811.539"/>
</g>
<!-- Node0x18ecc660&#45;&gt;Node0x92fcb10 -->
<g id="edge16" class="edge"><title>Node0x18ecc660&#45;&gt;Node0x92fcb10</title>
<path fill="none" stroke="black" d="M1007.9,-509.358C1019.95,-483.053 1040,-432.483 1040,-387 1040,-387 1040,-387 1040,-115.5 1040,-61.5736 964.152,-47.2836 916.576,-43.6244"/>
<polygon fill="black" stroke="black" points="916.516,-40.1134 906.311,-42.964 916.066,-47.0989 916.516,-40.1134"/>
</g>
<!-- Node0x7ebf960 -->
<g id="node15" class="node"><title>Node0x7ebf960</title>
<polygon fill="none" stroke="black" points="33,-585.5 33,-713.5 869,-713.5 869,-585.5 33,-585.5"/>
<text text-anchor="start" x="41" y="-698.3" font-family="Times,serif" font-size="14.00">v6 = (a3 &amp; 4294967295)</text>
<text text-anchor="start" x="41" y="-683.3" font-family="Times,serif" font-size="14.00"> v7 = ((*(IntToPtrCastExpr&lt;ptr&gt;((v2 + 8))) &#45; 4) + (4 * v4))</text>
<text text-anchor="start" x="41" y="-668.3" font-family="Times,serif" font-size="14.00"> v8 = (*(IntToPtrCastExpr&lt;ptr&gt;(v7)) / 65536)</text>
<text text-anchor="start" x="41" y="-653.3" font-family="Times,serif" font-size="14.00"> v9 = *(IntToPtrCastExpr&lt;ptr&gt;(v7))</text>
<text text-anchor="start" x="41" y="-638.3" font-family="Times,serif" font-size="14.00"> v10 = ((65536 * (v8 &#45; (TruncCastExpr&lt;int32&gt;((ExtCastExpr&lt;int64&gt;(v8) / v6)) * v3))) | ExtCastExpr&lt;int32&gt;(v9))</text>
<text text-anchor="start" x="41" y="-623.3" font-family="Times,serif" font-size="14.00"> v11 = (TruncCastExpr&lt;int32&gt;((ExtCastExpr&lt;int64&gt;(v10) / v6)) * v3)</text>
<text text-anchor="start" x="41" y="-608.3" font-family="Times,serif" font-size="14.00"> v12 = (v10 &#45; v11)</text>
<text text-anchor="start" x="41" y="-593.3" font-family="Times,serif" font-size="14.00"> v13 = (v4 &#45; 1)</text>
</g>
<!-- Node0x85a8cb0&#45;&gt;Node0x7ebf960 -->
<g id="edge17" class="edge"><title>Node0x85a8cb0&#45;&gt;Node0x7ebf960</title>
<path fill="none" stroke="black" d="M464.039,-765.243C462.795,-754.294 461.091,-739.301 459.325,-723.764"/>
<polygon fill="black" stroke="black" points="462.767,-723.054 458.161,-713.513 455.812,-723.844 462.767,-723.054"/>
<text text-anchor="middle" x="489" y="-735.8" font-family="Times,serif" font-size="14.00">v4 != 0</text>
</g>
<!-- Node0x7ebba40 -->
<g id="node16" class="node"><title>Node0x7ebba40</title>
<polygon fill="none" stroke="black" points="887.5,-623 887.5,-676 988.5,-676 988.5,-623 887.5,-623"/>
<text text-anchor="start" x="895.5" y="-660.8" font-family="Times,serif" font-size="14.00">0x8056712:</text>
<text text-anchor="start" x="895.5" y="-645.8" font-family="Times,serif" font-size="14.00"> g6 = v1</text>
<text text-anchor="start" x="895.5" y="-630.8" font-family="Times,serif" font-size="14.00"> *(a1) = v5</text>
</g>
<!-- Node0x85a8cb0&#45;&gt;Node0x7ebba40 -->
<g id="edge18" class="edge"><title>Node0x85a8cb0&#45;&gt;Node0x7ebba40</title>
<path fill="none" stroke="black" d="M515.868,-778.209C611.325,-769.349 815.917,-747.054 878,-714 891.706,-706.703 904.045,-695.087 913.919,-683.773"/>
<polygon fill="black" stroke="black" points="916.642,-685.972 920.347,-676.046 911.261,-681.495 916.642,-685.972"/>
<text text-anchor="middle" x="852" y="-735.8" font-family="Times,serif" font-size="14.00">v4 == 0</text>
</g>
<!-- Node0x264242b0 -->
<g id="node17" class="node"><title>Node0x264242b0</title>
<polygon fill="none" stroke="black" points="403.5,-510.5 403.5,-546.5 540.5,-546.5 540.5,-510.5 403.5,-510.5"/>
<text text-anchor="start" x="411.5" y="-524.8" font-family="Times,serif" font-size="14.00">while (v13 != 0):</text>
</g>
<!-- Node0x7ebf960&#45;&gt;Node0x264242b0 -->
<g id="edge19" class="edge"><title>Node0x7ebf960&#45;&gt;Node0x264242b0</title>
<path fill="none" stroke="black" d="M462.176,-585.167C463.939,-575.176 465.677,-565.33 467.189,-556.761"/>
<polygon fill="black" stroke="black" points="470.678,-557.133 468.969,-546.677 463.784,-555.916 470.678,-557.133"/>
</g>
<!-- Node0x7ebba40&#45;&gt;Node0x18ecc660 -->
<g id="edge20" class="edge"><title>Node0x7ebba40&#45;&gt;Node0x18ecc660</title>
<path fill="none" stroke="black" d="M951.086,-622.972C961.074,-603.487 974.809,-576.692 985.013,-556.785"/>
<polygon fill="black" stroke="black" points="988.26,-558.124 989.707,-547.628 982.031,-554.931 988.26,-558.124"/>
</g>
<!-- Node0x28ae2060 -->
<g id="node18" class="node"><title>Node0x28ae2060</title>
<polygon fill="none" stroke="black" points="176,-314.5 176,-457.5 1012,-457.5 1012,-314.5 176,-314.5"/>
<text text-anchor="start" x="184" y="-442.3" font-family="Times,serif" font-size="14.00">0x80566d0:</text>
<text text-anchor="start" x="184" y="-427.3" font-family="Times,serif" font-size="14.00"> v4 = v13</text>
<text text-anchor="start" x="184" y="-412.3" font-family="Times,serif" font-size="14.00"> v7 = ((*(IntToPtrCastExpr&lt;ptr&gt;((v2 + 8))) &#45; 4) + (4 * v4))</text>
<text text-anchor="start" x="184" y="-397.3" font-family="Times,serif" font-size="14.00"> v8 = ((*(IntToPtrCastExpr&lt;ptr&gt;(v7)) / 65536) | (65536 * v12))</text>
<text text-anchor="start" x="184" y="-382.3" font-family="Times,serif" font-size="14.00"> v9 = *(IntToPtrCastExpr&lt;ptr&gt;(v7))</text>
<text text-anchor="start" x="184" y="-367.3" font-family="Times,serif" font-size="14.00"> v10 = ((65536 * (v8 &#45; (TruncCastExpr&lt;int32&gt;((ExtCastExpr&lt;int64&gt;(v8) / v6)) * v3))) | ExtCastExpr&lt;int32&gt;(v9))</text>
<text text-anchor="start" x="184" y="-352.3" font-family="Times,serif" font-size="14.00"> v11 = (TruncCastExpr&lt;int32&gt;((ExtCastExpr&lt;int64&gt;(v10) / v6)) * v3)</text>
<text text-anchor="start" x="184" y="-337.3" font-family="Times,serif" font-size="14.00"> v12 = (v10 &#45; v11)</text>
<text text-anchor="start" x="184" y="-322.3" font-family="Times,serif" font-size="14.00"> v13 = (v4 &#45; 1)</text>
</g>
<!-- Node0x264242b0&#45;&gt;Node0x28ae2060 -->
<g id="edge21" class="edge"><title>Node0x264242b0&#45;&gt;Node0x28ae2060</title>
<path fill="none" stroke="black" d="M473.596,-510.185C475.214,-499.641 478.466,-486.27 485,-476 487.287,-472.406 489.768,-468.888 492.406,-465.454"/>
<polygon fill="black" stroke="black" points="495.212,-467.551 498.83,-457.593 489.792,-463.122 495.212,-467.551"/>
<text text-anchor="middle" x="516.5" y="-479.8" font-family="Times,serif" font-size="14.00">v13 != 0</text>
</g>
<!-- Node0x7ec0370 -->
<g id="node19" class="node"><title>Node0x7ec0370</title>
<polygon fill="none" stroke="black" points="28,-359.5 28,-412.5 158,-412.5 158,-359.5 28,-359.5"/>
<text text-anchor="start" x="36" y="-397.3" font-family="Times,serif" font-size="14.00">0x8056701:</text>
<text text-anchor="start" x="36" y="-382.3" font-family="Times,serif" font-size="14.00"> if (v10 != v11):</text>
<text text-anchor="start" x="36" y="-367.3" font-family="Times,serif" font-size="14.00"> else:</text>
</g>
<!-- Node0x264242b0&#45;&gt;Node0x7ec0370 -->
<g id="edge22" class="edge"><title>Node0x264242b0&#45;&gt;Node0x7ec0370</title>
<path fill="none" stroke="black" d="M403.498,-522.441C339.143,-515.322 241.816,-498.328 167,-458 149.413,-448.52 133.025,-433.708 120.164,-420.061"/>
<polygon fill="black" stroke="black" points="122.722,-417.671 113.397,-412.64 117.549,-422.387 122.722,-417.671"/>
<text text-anchor="middle" x="280.5" y="-479.8" font-family="Times,serif" font-size="14.00">v13 == 0</text>
</g>
<!-- Node0x28ae2060&#45;&gt;Node0x264242b0 -->
<g id="edge23" class="edge"><title>Node0x28ae2060&#45;&gt;Node0x264242b0</title>
<path fill="none" stroke="black" d="M570.993,-457.557C564.856,-469.677 557.275,-481.43 548,-491 542.747,-496.42 536.528,-501.137 529.943,-505.215"/>
<polygon fill="black" stroke="black" points="527.779,-502.418 520.795,-510.385 531.223,-508.512 527.779,-502.418"/>
</g>
<!-- Node0x15b8d8a0 -->
<g id="node20" class="node"><title>Node0x15b8d8a0</title>
<polygon fill="none" stroke="black" points="693,-209.5 693,-262.5 821,-262.5 821,-209.5 693,-209.5"/>
<text text-anchor="start" x="701" y="-247.3" font-family="Times,serif" font-size="14.00">0x8056705:</text>
<text text-anchor="start" x="701" y="-232.3" font-family="Times,serif" font-size="14.00"> if (*(a2) &lt;= 0):</text>
<text text-anchor="start" x="701" y="-217.3" font-family="Times,serif" font-size="14.00"> else:</text>
</g>
<!-- Node0x7ec0370&#45;&gt;Node0x15b8d8a0 -->
<g id="edge24" class="edge"><title>Node0x7ec0370&#45;&gt;Node0x15b8d8a0</title>
<path fill="none" stroke="black" d="M111.893,-359.177C125.29,-343.073 144.787,-323.638 167,-314 234.985,-284.504 426.615,-306.329 500,-296 562.367,-287.222 631.925,-270.839 682.933,-257.56"/>
<polygon fill="black" stroke="black" points="684.096,-260.873 692.88,-254.949 682.319,-254.103 684.096,-260.873"/>
<text text-anchor="middle" x="619" y="-284.8" font-family="Times,serif" font-size="14.00">v10 != v11</text>
</g>
<!-- Node0x92fe580 -->
<g id="node21" class="node"><title>Node0x92fe580</title>
<polygon fill="none" stroke="black" points="442,-154.5 442,-190.5 506,-190.5 506,-154.5 442,-154.5"/>
<text text-anchor="start" x="450" y="-168.8" font-family="Times,serif" font-size="14.00">v5 = 0</text>
</g>
<!-- Node0x7ec0370&#45;&gt;Node0x92fe580 -->
<g id="edge25" class="edge"><title>Node0x7ec0370&#45;&gt;Node0x92fe580</title>
<path fill="none" stroke="black" d="M115.542,-359.448C129.363,-344.838 148.005,-326.911 167,-314 254.25,-254.698 370.561,-209.334 431.945,-187.622"/>
<polygon fill="black" stroke="black" points="433.389,-190.825 441.672,-184.217 431.077,-184.218 433.389,-190.825"/>
<text text-anchor="middle" x="261" y="-284.8" font-family="Times,serif" font-size="14.00">v10 == v11</text>
</g>
<!-- Node0x18ecc000 -->
<g id="node22" class="node"><title>Node0x18ecc000</title>
<polygon fill="none" stroke="black" points="693.5,-97.5 693.5,-135.5 820.5,-135.5 820.5,-97.5 693.5,-97.5"/>
<text text-anchor="start" x="701.5" y="-120.3" font-family="Times,serif" font-size="14.00">0x805670e:</text>
<text text-anchor="start" x="701.5" y="-105.3" font-family="Times,serif" font-size="14.00"> v5 = (v3 &#45; v12)</text>
</g>
<!-- Node0x15b8d8a0&#45;&gt;Node0x18ecc000 -->
<g id="edge26" class="edge"><title>Node0x15b8d8a0&#45;&gt;Node0x18ecc000</title>
<path fill="none" stroke="black" d="M757,-209.214C757,-190.404 757,-164.929 757,-145.601"/>
<polygon fill="black" stroke="black" points="760.5,-145.577 757,-135.577 753.5,-145.577 760.5,-145.577"/>
<text text-anchor="middle" x="796" y="-168.8" font-family="Times,serif" font-size="14.00">*(a2) &lt;= 0</text>
</g>
<!-- Node0x7ebf5e0 -->
<g id="node23" class="node"><title>Node0x7ebf5e0</title>
<polygon fill="none" stroke="black" points="838.5,-98.5 838.5,-134.5 919.5,-134.5 919.5,-98.5 838.5,-98.5"/>
<text text-anchor="start" x="846.5" y="-112.8" font-family="Times,serif" font-size="14.00">v5 = v12</text>
</g>
<!-- Node0x15b8d8a0&#45;&gt;Node0x7ebf5e0 -->
<g id="edge27" class="edge"><title>Node0x15b8d8a0&#45;&gt;Node0x7ebf5e0</title>
<path fill="none" stroke="black" d="M815.086,-209.398C823.697,-204.083 832.011,-197.948 839,-191 852.269,-177.809 862.311,-159.288 869.014,-144.139"/>
<polygon fill="black" stroke="black" points="872.307,-145.336 872.938,-134.76 865.85,-142.634 872.307,-145.336"/>
<text text-anchor="middle" x="896" y="-168.8" font-family="Times,serif" font-size="14.00">*(a2) &gt; 0</text>
</g>
<!-- Node0x92fe580&#45;&gt;Node0x92fcb10 -->
<g id="edge28" class="edge"><title>Node0x92fe580&#45;&gt;Node0x92fcb10</title>
<path fill="none" stroke="black" d="M506.146,-159.323C547.151,-143.97 620.383,-117.148 684,-97 738.565,-79.7185 802.605,-62.3726 841.994,-52.0355"/>
<polygon fill="black" stroke="black" points="842.907,-55.4145 851.697,-49.5 841.137,-48.6419 842.907,-55.4145"/>
</g>
<!-- Node0x18ecc000&#45;&gt;Node0x92fcb10 -->
<g id="edge29" class="edge"><title>Node0x18ecc000&#45;&gt;Node0x92fcb10</title>
<path fill="none" stroke="black" d="M787.157,-97.4551C803.982,-87.3879 825.055,-74.7789 842.77,-64.1788"/>
<polygon fill="black" stroke="black" points="844.903,-66.9809 851.687,-58.8429 841.309,-60.9741 844.903,-66.9809"/>
</g>
<!-- Node0x7ebf5e0&#45;&gt;Node0x92fcb10 -->
<g id="edge30" class="edge"><title>Node0x7ebf5e0&#45;&gt;Node0x92fcb10</title>
<path fill="none" stroke="black" d="M879,-98.2C879,-89.7452 879,-79.3688 879,-69.8732"/>
<polygon fill="black" stroke="black" points="882.5,-69.6758 879,-59.6758 875.5,-69.6758 882.5,-69.6758"/>
</g>
</g>
</svg>
