<?xml version="1.0" encoding="UTF-8" standalone="no"?>
<!DOCTYPE svg PUBLIC "-//W3C//DTD SVG 1.1//EN"
 "http://www.w3.org/Graphics/SVG/1.1/DTD/svg11.dtd">
<!-- Generated by graphviz version 2.38.0 (20140413.2041)
 -->
<!-- Title: Control&#45;flow graph for function &#39;mbedtls_mpi_copy(*a1, *a2)&#39;. Pages: 1 -->
<svg width="2000pt" height="2436pt"
 viewBox="0.00 0.00 1999.50 2436.00" xmlns="http://www.w3.org/2000/svg" xmlns:xlink="http://www.w3.org/1999/xlink">
<g id="graph0" class="graph" transform="scale(1 1) rotate(0) translate(4 2432)">
<title>Control&#45;flow graph for function &#39;mbedtls_mpi_copy(*a1, *a2)&#39;.</title>
<polygon fill="white" stroke="none" points="-4,4 -4,-2432 1995.5,-2432 1995.5,4 -4,4"/>
<text text-anchor="middle" x="995.75" y="-7.8" font-family="Times,serif" font-size="14.00">Control&#45;flow graph for function &#39;mbedtls_mpi_copy(*a1, *a2)&#39;.</text>
<!-- Node0x15ae3570 -->
<g id="node1" class="node"><title>Node0x15ae3570</title>
<polygon fill="none" stroke="black" points="335,-2374.5 335,-2427.5 394,-2427.5 394,-2374.5 335,-2374.5"/>
<text text-anchor="start" x="343" y="-2412.3" font-family="Times,serif" font-size="14.00">entry:</text>
<text text-anchor="start" x="343" y="-2397.3" font-family="Times,serif" font-size="14.00"> a1</text>
<text text-anchor="start" x="343" y="-2382.3" font-family="Times,serif" font-size="14.00"> a2</text>
</g>
<!-- Node0x15ae2fa0 -->
<g id="node2" class="node"><title>Node0x15ae2fa0</title>
<polygon fill="none" stroke="black" points="226,-2208.5 226,-2336.5 503,-2336.5 503,-2208.5 226,-2208.5"/>
<text text-anchor="start" x="234" y="-2321.3" font-family="Times,serif" font-size="14.00">v1 = PtrToIntCastExpr&lt;int32&gt;(a2)</text>
<text text-anchor="start" x="234" y="-2306.3" font-family="Times,serif" font-size="14.00"> v2 = g5</text>
<text text-anchor="start" x="234" y="-2291.3" font-family="Times,serif" font-size="14.00"> g5 = 0</text>
<text text-anchor="start" x="234" y="-2276.3" font-family="Times,serif" font-size="14.00"> v3 = g7</text>
<text text-anchor="start" x="234" y="-2261.3" font-family="Times,serif" font-size="14.00"> v4 = g3</text>
<text text-anchor="start" x="234" y="-2246.3" font-family="Times,serif" font-size="14.00"> g7 = PtrToIntCastExpr&lt;int32&gt;(a1)</text>
<text text-anchor="start" x="234" y="-2231.3" font-family="Times,serif" font-size="14.00"> g3 = v1</text>
<text text-anchor="start" x="234" y="-2216.3" font-family="Times,serif" font-size="14.00"> v5</text>
</g>
<!-- Node0x15ae3570&#45;&gt;Node0x15ae2fa0 -->
<g id="edge1" class="edge"><title>Node0x15ae3570&#45;&gt;Node0x15ae2fa0</title>
<path fill="none" stroke="black" d="M364.5,-2374.4C364.5,-2366.26 364.5,-2356.8 364.5,-2347.01"/>
<polygon fill="black" stroke="black" points="368,-2346.73 364.5,-2336.73 361,-2346.73 368,-2346.73"/>
</g>
<!-- Node0x15ae3ef0 -->
<g id="node3" class="node"><title>Node0x15ae3ef0</title>
<polygon fill="none" stroke="black" points="235.5,-2134.5 235.5,-2170.5 493.5,-2170.5 493.5,-2134.5 235.5,-2134.5"/>
<text text-anchor="start" x="243.5" y="-2148.8" font-family="Times,serif" font-size="14.00">if (BitCastExpr&lt;ptr&gt;(a2) == a1):</text>
</g>
<!-- Node0x15ae2fa0&#45;&gt;Node0x15ae3ef0 -->
<g id="edge2" class="edge"><title>Node0x15ae2fa0&#45;&gt;Node0x15ae3ef0</title>
<path fill="none" stroke="black" d="M364.5,-2208.35C364.5,-2198.75 364.5,-2189.3 364.5,-2181.02"/>
<polygon fill="black" stroke="black" points="368,-2180.89 364.5,-2170.89 361,-2180.89 368,-2180.89"/>
</g>
<!-- Node0x15ae4860 -->
<g id="node4" class="node"><title>Node0x15ae4860</title>
<polygon fill="none" stroke="black" points="0,-1912.5 0,-2010.5 101,-2010.5 101,-1912.5 0,-1912.5"/>
<text text-anchor="start" x="8" y="-1995.3" font-family="Times,serif" font-size="14.00">0x8057822:</text>
<text text-anchor="start" x="8" y="-1980.3" font-family="Times,serif" font-size="14.00"> g3 = v4</text>
<text text-anchor="start" x="8" y="-1965.3" font-family="Times,serif" font-size="14.00"> g7 = v3</text>
<text text-anchor="start" x="8" y="-1950.3" font-family="Times,serif" font-size="14.00"> g5 = v2</text>
<text text-anchor="start" x="8" y="-1935.3" font-family="Times,serif" font-size="14.00"> g2 = v5</text>
<text text-anchor="start" x="8" y="-1920.3" font-family="Times,serif" font-size="14.00"> return 0</text>
</g>
<!-- Node0x15ae3ef0&#45;&gt;Node0x15ae4860 -->
<g id="edge3" class="edge"><title>Node0x15ae3ef0&#45;&gt;Node0x15ae4860</title>
<path fill="none" stroke="black" d="M336.081,-2134.39C285.225,-2103.78 177.66,-2039.04 110.027,-1998.33"/>
<polygon fill="black" stroke="black" points="111.54,-1995.16 101.168,-1993 107.93,-2001.15 111.54,-1995.16"/>
<text text-anchor="middle" x="409" y="-2104.8" font-family="Times,serif" font-size="14.00">BitCastExpr&lt;ptr&gt;(a2) == a1</text>
</g>
<!-- Node0x15ae0730 -->
<g id="node5" class="node"><title>Node0x15ae0730</title>
<polygon fill="none" stroke="black" points="818.5,-2029.5 818.5,-2082.5 1132.5,-2082.5 1132.5,-2029.5 818.5,-2029.5"/>
<text text-anchor="start" x="826.5" y="-2067.3" font-family="Times,serif" font-size="14.00">v6 = *(IntToPtrCastExpr&lt;ptr&gt;((v1 + 8)))</text>
<text text-anchor="start" x="826.5" y="-2052.3" font-family="Times,serif" font-size="14.00"> g4 = v6</text>
<text text-anchor="start" x="826.5" y="-2037.3" font-family="Times,serif" font-size="14.00"> result2</text>
</g>
<!-- Node0x15ae3ef0&#45;&gt;Node0x15ae0730 -->
<g id="edge4" class="edge"><title>Node0x15ae3ef0&#45;&gt;Node0x15ae0730</title>
<path fill="none" stroke="black" d="M474.44,-2134.5C567.385,-2120.12 701.994,-2099.3 808.291,-2082.86"/>
<polygon fill="black" stroke="black" points="809.139,-2086.27 818.487,-2081.28 808.069,-2079.35 809.139,-2086.27"/>
<text text-anchor="middle" x="792" y="-2104.8" font-family="Times,serif" font-size="14.00">BitCastExpr&lt;ptr&gt;(a2) != a1</text>
</g>
<!-- Node0x15ae31c0 -->
<g id="node6" class="node"><title>Node0x15ae31c0</title>
<polygon fill="none" stroke="black" points="859.5,-23.5 859.5,-59.5 913.5,-59.5 913.5,-23.5 859.5,-23.5"/>
<text text-anchor="start" x="867.5" y="-37.8" font-family="Times,serif" font-size="14.00">exit:</text>
</g>
<!-- Node0x15ae4860&#45;&gt;Node0x15ae31c0 -->
<g id="edge5" class="edge"><title>Node0x15ae4860&#45;&gt;Node0x15ae31c0</title>
<path fill="none" stroke="black" d="M36.7567,-1912.46C30.9475,-1888.12 25.5,-1857.96 25.5,-1830.5 25.5,-1830.5 25.5,-1830.5 25.5,-205.5 25.5,-156.544 8.50326,-130.18 44.5,-97 104.258,-41.9174 693.17,-41.3793 848.892,-42.212"/>
<polygon fill="black" stroke="black" points="849.321,-45.7145 859.342,-42.2735 849.363,-38.7146 849.321,-45.7145"/>
</g>
<!-- Node0x15ae4410 -->
<g id="node7" class="node"><title>Node0x15ae4410</title>
<polygon fill="none" stroke="black" points="1058,-1855.5 1058,-1893.5 1163,-1893.5 1163,-1855.5 1058,-1855.5"/>
<text text-anchor="start" x="1066" y="-1878.3" font-family="Times,serif" font-size="14.00">if (v6 == 0):</text>
<text text-anchor="start" x="1066" y="-1863.3" font-family="Times,serif" font-size="14.00"> else:</text>
</g>
<!-- Node0x15ae0730&#45;&gt;Node0x15ae4410 -->
<g id="edge6" class="edge"><title>Node0x15ae0730&#45;&gt;Node0x15ae4410</title>
<path fill="none" stroke="black" d="M994.842,-2029.28C1020.38,-1995.32 1065.12,-1935.84 1090.82,-1901.66"/>
<polygon fill="black" stroke="black" points="1093.71,-1903.64 1096.93,-1893.55 1088.12,-1899.44 1093.71,-1903.64"/>
</g>
<!-- Node0x26feb460 -->
<g id="node8" class="node"><title>Node0x26feb460</title>
<polygon fill="none" stroke="black" points="1669.5,-1588.5 1669.5,-1641.5 1991.5,-1641.5 1991.5,-1588.5 1669.5,-1588.5"/>
<text text-anchor="start" x="1677.5" y="-1626.3" font-family="Times,serif" font-size="14.00">0x805787d:</text>
<text text-anchor="start" x="1677.5" y="-1611.3" font-family="Times,serif" font-size="14.00"> mbedtls_mpi_free(BitCastExpr&lt;ptr&gt;(a1))</text>
<text text-anchor="start" x="1677.5" y="-1596.3" font-family="Times,serif" font-size="14.00"> result2 = g5</text>
</g>
<!-- Node0x15ae4410&#45;&gt;Node0x26feb460 -->
<g id="edge7" class="edge"><title>Node0x15ae4410&#45;&gt;Node0x26feb460</title>
<path fill="none" stroke="black" d="M1160.84,-1855.5C1283.71,-1811.55 1599.78,-1698.51 1749.52,-1644.96"/>
<polygon fill="black" stroke="black" points="1750.9,-1648.18 1759.14,-1641.52 1748.55,-1641.59 1750.9,-1648.18"/>
<text text-anchor="middle" x="1282.5" y="-1825.8" font-family="Times,serif" font-size="14.00">v6 == 0</text>
</g>
<!-- Node0x26feb5d0 -->
<g id="node9" class="node"><title>Node0x26feb5d0</title>
<polygon fill="none" stroke="black" points="953.5,-1660.5 953.5,-1803.5 1267.5,-1803.5 1267.5,-1660.5 953.5,-1660.5"/>
<text text-anchor="start" x="961.5" y="-1788.3" font-family="Times,serif" font-size="14.00">v7 = *(IntToPtrCastExpr&lt;ptr&gt;((v1 + 4)))</text>
<text text-anchor="start" x="961.5" y="-1773.3" font-family="Times,serif" font-size="14.00"> g6 = v7</text>
<text text-anchor="start" x="961.5" y="-1758.3" font-family="Times,serif" font-size="14.00"> v8 = (v7 &#45; 1)</text>
<text text-anchor="start" x="961.5" y="-1743.3" font-family="Times,serif" font-size="14.00"> result</text>
<text text-anchor="start" x="961.5" y="-1728.3" font-family="Times,serif" font-size="14.00"> v9</text>
<text text-anchor="start" x="961.5" y="-1713.3" font-family="Times,serif" font-size="14.00"> v10</text>
<text text-anchor="start" x="961.5" y="-1698.3" font-family="Times,serif" font-size="14.00"> v11</text>
<text text-anchor="start" x="961.5" y="-1683.3" font-family="Times,serif" font-size="14.00"> v12</text>
<text text-anchor="start" x="961.5" y="-1668.3" font-family="Times,serif" font-size="14.00"> v13</text>
</g>
<!-- Node0x15ae4410&#45;&gt;Node0x26feb5d0 -->
<g id="edge8" class="edge"><title>Node0x15ae4410&#45;&gt;Node0x26feb5d0</title>
<path fill="none" stroke="black" d="M1110.5,-1855.42C1110.5,-1844.42 1110.5,-1829.5 1110.5,-1813.86"/>
<polygon fill="black" stroke="black" points="1114,-1813.52 1110.5,-1803.52 1107,-1813.52 1114,-1813.52"/>
<text text-anchor="middle" x="1137.5" y="-1825.8" font-family="Times,serif" font-size="14.00">v6 != 0</text>
</g>
<!-- Node0x15ae4530 -->
<g id="node10" class="node"><title>Node0x15ae4530</title>
<polygon fill="none" stroke="black" points="1856.5,-1414.5 1856.5,-1512.5 1978.5,-1512.5 1978.5,-1414.5 1856.5,-1414.5"/>
<text text-anchor="start" x="1864.5" y="-1497.3" font-family="Times,serif" font-size="14.00">0x8057822:</text>
<text text-anchor="start" x="1864.5" y="-1482.3" font-family="Times,serif" font-size="14.00"> g3 = v4</text>
<text text-anchor="start" x="1864.5" y="-1467.3" font-family="Times,serif" font-size="14.00"> g7 = v3</text>
<text text-anchor="start" x="1864.5" y="-1452.3" font-family="Times,serif" font-size="14.00"> g5 = v2</text>
<text text-anchor="start" x="1864.5" y="-1437.3" font-family="Times,serif" font-size="14.00"> g2 = v5</text>
<text text-anchor="start" x="1864.5" y="-1422.3" font-family="Times,serif" font-size="14.00"> return result2</text>
</g>
<!-- Node0x26feb460&#45;&gt;Node0x15ae4530 -->
<g id="edge9" class="edge"><title>Node0x26feb460&#45;&gt;Node0x15ae4530</title>
<path fill="none" stroke="black" d="M1845.46,-1588.3C1856.14,-1569.94 1870.94,-1544.51 1884.34,-1521.48"/>
<polygon fill="black" stroke="black" points="1887.4,-1523.19 1889.4,-1512.79 1881.35,-1519.67 1887.4,-1523.19"/>
</g>
<!-- Node0x15ae4380 -->
<g id="node11" class="node"><title>Node0x15ae4380</title>
<polygon fill="none" stroke="black" points="1058,-1531.5 1058,-1569.5 1163,-1569.5 1163,-1531.5 1058,-1531.5"/>
<text text-anchor="start" x="1066" y="-1554.3" font-family="Times,serif" font-size="14.00">if (v7 == 1):</text>
<text text-anchor="start" x="1066" y="-1539.3" font-family="Times,serif" font-size="14.00"> else:</text>
</g>
<!-- Node0x26feb5d0&#45;&gt;Node0x15ae4380 -->
<g id="edge10" class="edge"><title>Node0x26feb5d0&#45;&gt;Node0x15ae4380</title>
<path fill="none" stroke="black" d="M1110.5,-1660.31C1110.5,-1632.11 1110.5,-1601.28 1110.5,-1579.66"/>
<polygon fill="black" stroke="black" points="1114,-1579.55 1110.5,-1569.55 1107,-1579.55 1114,-1579.55"/>
</g>
<!-- Node0x15ae4530&#45;&gt;Node0x15ae31c0 -->
<g id="edge11" class="edge"><title>Node0x15ae4530&#45;&gt;Node0x15ae31c0</title>
<path fill="none" stroke="black" d="M1939.74,-1414.44C1951.07,-1385.65 1962.5,-1347.97 1962.5,-1313 1962.5,-1313 1962.5,-1313 1962.5,-205.5 1962.5,-156.544 1979.53,-130.141 1943.5,-97 1905.21,-61.7835 1107.33,-46.2217 923.876,-43.1018"/>
<polygon fill="black" stroke="black" points="923.712,-39.5987 913.655,-42.9301 923.595,-46.5977 923.712,-39.5987"/>
</g>
<!-- Node0x1c1ce9c0 -->
<g id="node12" class="node"><title>Node0x1c1ce9c0</title>
<polygon fill="none" stroke="black" points="1120,-1285.5 1120,-1338.5 1221,-1338.5 1221,-1285.5 1120,-1285.5"/>
<text text-anchor="start" x="1128" y="-1323.3" font-family="Times,serif" font-size="14.00">0x8057804:</text>
<text text-anchor="start" x="1128" y="-1308.3" font-family="Times,serif" font-size="14.00"> g6 = 1</text>
<text text-anchor="start" x="1128" y="-1293.3" font-family="Times,serif" font-size="14.00"> v10 = 1</text>
</g>
<!-- Node0x15ae4380&#45;&gt;Node0x1c1ce9c0 -->
<g id="edge12" class="edge"><title>Node0x15ae4380&#45;&gt;Node0x1c1ce9c0</title>
<path fill="none" stroke="black" d="M1127.38,-1531.16C1131.81,-1525.63 1136.25,-1519.34 1139.5,-1513 1164.12,-1464.91 1165.1,-1449.52 1172.5,-1396 1174.63,-1380.6 1174.61,-1363.45 1173.87,-1348.76"/>
<polygon fill="black" stroke="black" points="1177.35,-1348.31 1173.23,-1338.55 1170.37,-1348.75 1177.35,-1348.31"/>
<text text-anchor="middle" x="1199.5" y="-1459.8" font-family="Times,serif" font-size="14.00">v7 == 1</text>
</g>
<!-- Node0x1c1cea60 -->
<g id="node13" class="node"><title>Node0x1c1cea60</title>
<polygon fill="none" stroke="black" points="795.5,-1357.5 795.5,-1395.5 1163.5,-1395.5 1163.5,-1357.5 795.5,-1357.5"/>
<text text-anchor="start" x="803.5" y="-1380.3" font-family="Times,serif" font-size="14.00">v14 = *(IntToPtrCastExpr&lt;ptr&gt;(((4 * v8) + v6)))</text>
<text text-anchor="start" x="803.5" y="-1365.3" font-family="Times,serif" font-size="14.00"> g5 = v14</text>
</g>
<!-- Node0x15ae4380&#45;&gt;Node0x1c1cea60 -->
<g id="edge13" class="edge"><title>Node0x15ae4380&#45;&gt;Node0x1c1cea60</title>
<path fill="none" stroke="black" d="M1096.73,-1531.42C1073.53,-1500.96 1026.58,-1439.32 999.668,-1403.98"/>
<polygon fill="black" stroke="black" points="1002.13,-1401.43 993.284,-1395.6 996.558,-1405.67 1002.13,-1401.43"/>
<text text-anchor="middle" x="1108.5" y="-1459.8" font-family="Times,serif" font-size="14.00">v7 != 1</text>
</g>
<!-- Node0x1c1ce660 -->
<g id="node14" class="node"><title>Node0x1c1ce660</title>
<polygon fill="none" stroke="black" points="906,-441.5 906,-494.5 1365,-494.5 1365,-441.5 906,-441.5"/>
<text text-anchor="start" x="914" y="-479.3" font-family="Times,serif" font-size="14.00">0x8057809:</text>
<text text-anchor="start" x="914" y="-464.3" font-family="Times,serif" font-size="14.00"> *(BitCastExpr&lt;ptr&gt;(a1)) = *(a2)</text>
<text text-anchor="start" x="914" y="-449.3" font-family="Times,serif" font-size="14.00"> result = mbedtls_mpi_grow(g7, IntToPtrCastExpr&lt;ptr&gt;(g6))</text>
</g>
<!-- Node0x1c1ce9c0&#45;&gt;Node0x1c1ce660 -->
<g id="edge14" class="edge"><title>Node0x1c1ce9c0&#45;&gt;Node0x1c1ce660</title>
<path fill="none" stroke="black" d="M1166.78,-1285.43C1163.93,-1263.69 1160.5,-1231.62 1160.5,-1203.5 1160.5,-1203.5 1160.5,-1203.5 1160.5,-558 1160.5,-539.791 1155.59,-520.242 1150.12,-504.116"/>
<polygon fill="black" stroke="black" points="1153.36,-502.786 1146.68,-494.561 1146.78,-505.156 1153.36,-502.786"/>
</g>
<!-- Node0x1c1ceae0 -->
<g id="node15" class="node"><title>Node0x1c1ceae0</title>
<polygon fill="none" stroke="black" points="929.5,-1228.5 929.5,-1266.5 1043.5,-1266.5 1043.5,-1228.5 929.5,-1228.5"/>
<text text-anchor="start" x="937.5" y="-1251.3" font-family="Times,serif" font-size="14.00">if (v14 == 0):</text>
<text text-anchor="start" x="937.5" y="-1236.3" font-family="Times,serif" font-size="14.00"> else:</text>
</g>
<!-- Node0x1c1cea60&#45;&gt;Node0x1c1ceae0 -->
<g id="edge15" class="edge"><title>Node0x1c1cea60&#45;&gt;Node0x1c1ceae0</title>
<path fill="none" stroke="black" d="M980.503,-1357.3C981.662,-1336.27 983.584,-1301.41 984.939,-1276.82"/>
<polygon fill="black" stroke="black" points="988.443,-1276.84 985.499,-1266.66 981.454,-1276.45 988.443,-1276.84"/>
</g>
<!-- Node0x1c1ce6c0 -->
<g id="node16" class="node"><title>Node0x1c1ce6c0</title>
<polygon fill="none" stroke="black" points="1324.5,-367.5 1324.5,-403.5 1454.5,-403.5 1454.5,-367.5 1324.5,-367.5"/>
<text text-anchor="start" x="1332.5" y="-381.8" font-family="Times,serif" font-size="14.00">if (result == 0):</text>
</g>
<!-- Node0x1c1ce660&#45;&gt;Node0x1c1ce6c0 -->
<g id="edge16" class="edge"><title>Node0x1c1ce660&#45;&gt;Node0x1c1ce6c0</title>
<path fill="none" stroke="black" d="M1216.22,-441.419C1251.78,-430.147 1292.96,-417.097 1326.24,-406.548"/>
<polygon fill="black" stroke="black" points="1327.38,-409.858 1335.86,-403.501 1325.27,-403.185 1327.38,-409.858"/>
</g>
<!-- Node0x1c1cefe0 -->
<g id="node17" class="node"><title>Node0x1c1cefe0</title>
<polygon fill="none" stroke="black" points="938,-1140.5 938,-1176.5 1035,-1176.5 1035,-1140.5 938,-1140.5"/>
<text text-anchor="start" x="946" y="-1154.8" font-family="Times,serif" font-size="14.00">while True:</text>
</g>
<!-- Node0x1c1ceae0&#45;&gt;Node0x1c1cefe0 -->
<g id="edge17" class="edge"><title>Node0x1c1ceae0&#45;&gt;Node0x1c1cefe0</title>
<path fill="none" stroke="black" d="M986.5,-1228.47C986.5,-1216.46 986.5,-1200.43 986.5,-1186.86"/>
<polygon fill="black" stroke="black" points="990,-1186.62 986.5,-1176.62 983,-1186.62 990,-1186.62"/>
<text text-anchor="middle" x="1021" y="-1198.8" font-family="Times,serif" font-size="14.00">v14 == 0</text>
</g>
<!-- Node0x1c1cf480 -->
<g id="node18" class="node"><title>Node0x1c1cf480</title>
<polygon fill="none" stroke="black" points="1055,-1085.5 1055,-1121.5 1136,-1121.5 1136,-1085.5 1055,-1085.5"/>
<text text-anchor="start" x="1063" y="-1099.8" font-family="Times,serif" font-size="14.00">v10 = v7</text>
</g>
<!-- Node0x1c1ceae0&#45;&gt;Node0x1c1cf480 -->
<g id="edge18" class="edge"><title>Node0x1c1ceae0&#45;&gt;Node0x1c1cf480</title>
<path fill="none" stroke="black" d="M1036.15,-1228.31C1044.8,-1223.41 1053.07,-1217.36 1059.5,-1210 1078.82,-1187.88 1087.89,-1154.91 1092.06,-1131.73"/>
<polygon fill="black" stroke="black" points="1095.52,-1132.27 1093.66,-1121.84 1088.61,-1131.16 1095.52,-1132.27"/>
<text text-anchor="middle" x="1101" y="-1198.8" font-family="Times,serif" font-size="14.00">v14 != 0</text>
</g>
<!-- Node0x1c1cee70 -->
<g id="node19" class="node"><title>Node0x1c1cee70</title>
<polygon fill="none" stroke="black" points="994,-97.5 994,-315.5 1785,-315.5 1785,-97.5 994,-97.5"/>
<text text-anchor="start" x="1002" y="-300.3" font-family="Times,serif" font-size="14.00">0x8057830:</text>
<text text-anchor="start" x="1002" y="-285.3" font-family="Times,serif" font-size="14.00"> v9 = g7</text>
<text text-anchor="start" x="1002" y="-270.3" font-family="Times,serif" font-size="14.00"> v11 = *(IntToPtrCastExpr&lt;ptr&gt;((v9 + 8)))</text>
<text text-anchor="start" x="1002" y="-255.3" font-family="Times,serif" font-size="14.00"> memset(IntToPtrCastExpr&lt;ptr&gt;(v11), 0, (4 * *(IntToPtrCastExpr&lt;ptr&gt;((v9 + 4)))))</text>
<text text-anchor="start" x="1002" y="-240.3" font-family="Times,serif" font-size="14.00"> v12 = *(IntToPtrCastExpr&lt;ptr&gt;((g3 + 8)))</text>
<text text-anchor="start" x="1002" y="-225.3" font-family="Times,serif" font-size="14.00"> g4 = v12</text>
<text text-anchor="start" x="1002" y="-210.3" font-family="Times,serif" font-size="14.00"> v13 = (4 * v10)</text>
<text text-anchor="start" x="1002" y="-195.3" font-family="Times,serif" font-size="14.00"> g6 = v13</text>
<text text-anchor="start" x="1002" y="-180.3" font-family="Times,serif" font-size="14.00"> memcpy(IntToPtrCastExpr&lt;ptr&gt;(*(IntToPtrCastExpr&lt;ptr&gt;((g7 + 8)))), IntToPtrCastExpr&lt;ptr&gt;(v12), v13)</text>
<text text-anchor="start" x="1002" y="-165.3" font-family="Times,serif" font-size="14.00"> g3 = v4</text>
<text text-anchor="start" x="1002" y="-150.3" font-family="Times,serif" font-size="14.00"> g7 = v3</text>
<text text-anchor="start" x="1002" y="-135.3" font-family="Times,serif" font-size="14.00"> g5 = v2</text>
<text text-anchor="start" x="1002" y="-120.3" font-family="Times,serif" font-size="14.00"> g2 = v5</text>
<text text-anchor="start" x="1002" y="-105.3" font-family="Times,serif" font-size="14.00"> return result</text>
</g>
<!-- Node0x1c1ce6c0&#45;&gt;Node0x1c1cee70 -->
<g id="edge19" class="edge"><title>Node0x1c1ce6c0&#45;&gt;Node0x1c1cee70</title>
<path fill="none" stroke="black" d="M1389.5,-367.206C1389.5,-356.617 1389.5,-342.035 1389.5,-325.957"/>
<polygon fill="black" stroke="black" points="1393,-325.775 1389.5,-315.775 1386,-325.775 1393,-325.775"/>
<text text-anchor="middle" x="1432" y="-337.8" font-family="Times,serif" font-size="14.00">result == 0</text>
</g>
<!-- Node0x1c1ce960 -->
<g id="node20" class="node"><title>Node0x1c1ce960</title>
<polygon fill="none" stroke="black" points="1803,-188.5 1803,-224.5 1934,-224.5 1934,-188.5 1803,-188.5"/>
<text text-anchor="start" x="1811" y="-202.8" font-family="Times,serif" font-size="14.00">result2 = result</text>
</g>
<!-- Node0x1c1ce6c0&#45;&gt;Node0x1c1ce960 -->
<g id="edge20" class="edge"><title>Node0x1c1ce6c0&#45;&gt;Node0x1c1ce960</title>
<path fill="none" stroke="black" d="M1454.89,-379.658C1554.71,-371.244 1739.34,-351.349 1794.5,-316 1825.01,-296.451 1846.15,-259.366 1857.8,-234.047"/>
<polygon fill="black" stroke="black" points="1861.11,-235.218 1861.94,-224.655 1854.71,-232.395 1861.11,-235.218"/>
<text text-anchor="middle" x="1788" y="-337.8" font-family="Times,serif" font-size="14.00">result != 0</text>
</g>
<!-- Node0x1c1cf530 -->
<g id="node21" class="node"><title>Node0x1c1cf530</title>
<polygon fill="none" stroke="black" points="811.5,-1030.5 811.5,-1066.5 925.5,-1066.5 925.5,-1030.5 811.5,-1030.5"/>
<text text-anchor="start" x="819.5" y="-1044.8" font-family="Times,serif" font-size="14.00">v15 = (v8 &#45; 1)</text>
</g>
<!-- Node0x1c1cefe0&#45;&gt;Node0x1c1cf530 -->
<g id="edge21" class="edge"><title>Node0x1c1cefe0&#45;&gt;Node0x1c1cf530</title>
<path fill="none" stroke="black" d="M967.803,-1140.39C948.038,-1122.3 916.714,-1093.63 894.538,-1073.33"/>
<polygon fill="black" stroke="black" points="896.85,-1070.7 887.11,-1066.53 892.124,-1075.87 896.85,-1070.7"/>
<text text-anchor="middle" x="961.5" y="-1099.8" font-family="Times,serif" font-size="14.00">True</text>
</g>
<!-- Node0x1c1cf480&#45;&gt;Node0x1c1ce660 -->
<g id="edge22" class="edge"><title>Node0x1c1cf480&#45;&gt;Node0x1c1ce660</title>
<path fill="none" stroke="black" d="M1099.78,-1085.27C1103.89,-1067.16 1109.5,-1037.76 1109.5,-1012 1109.5,-1012 1109.5,-1012 1109.5,-558 1109.5,-539.737 1114.61,-520.182 1120.29,-504.066"/>
<polygon fill="black" stroke="black" points="1123.64,-505.111 1123.87,-494.519 1117.08,-502.656 1123.64,-505.111"/>
</g>
<!-- Node0x1c1cee70&#45;&gt;Node0x15ae31c0 -->
<g id="edge23" class="edge"><title>Node0x1c1cee70&#45;&gt;Node0x15ae31c0</title>
<path fill="none" stroke="black" d="M1056.09,-97.4571C1002.6,-80.1227 954.657,-64.5866 923.508,-54.4925"/>
<polygon fill="black" stroke="black" points="924.196,-51.0365 913.604,-51.2832 922.038,-57.6956 924.196,-51.0365"/>
</g>
<!-- Node0x1c1ce960&#45;&gt;Node0x15ae31c0 -->
<g id="edge24" class="edge"><title>Node0x1c1ce960&#45;&gt;Node0x15ae31c0</title>
<path fill="none" stroke="black" d="M1862.41,-188.263C1852.52,-163.172 1830.39,-117.366 1794.5,-97 1717.97,-53.5762 1086.45,-44.4538 924.321,-42.8202"/>
<polygon fill="black" stroke="black" points="923.935,-39.3163 913.901,-42.7191 923.867,-46.316 923.935,-39.3163"/>
</g>
<!-- Node0x1c1cf600 -->
<g id="node22" class="node"><title>Node0x1c1cf600</title>
<polygon fill="none" stroke="black" points="748.5,-954.5 748.5,-992.5 862.5,-992.5 862.5,-954.5 748.5,-954.5"/>
<text text-anchor="start" x="756.5" y="-977.3" font-family="Times,serif" font-size="14.00">if (v15 == 0):</text>
<text text-anchor="start" x="756.5" y="-962.3" font-family="Times,serif" font-size="14.00"> else:</text>
</g>
<!-- Node0x1c1cf530&#45;&gt;Node0x1c1cf600 -->
<g id="edge25" class="edge"><title>Node0x1c1cf530&#45;&gt;Node0x1c1cf600</title>
<path fill="none" stroke="black" d="M853.57,-1030.2C845.875,-1021.28 836.337,-1010.23 827.79,-1000.33"/>
<polygon fill="black" stroke="black" points="830.385,-997.978 821.202,-992.694 825.086,-1002.55 830.385,-997.978"/>
</g>
<!-- Node0xf135550 -->
<g id="node23" class="node"><title>Node0xf135550</title>
<polygon fill="none" stroke="black" points="532,-807.5 532,-845.5 633,-845.5 633,-807.5 532,-807.5"/>
<text text-anchor="start" x="540" y="-830.3" font-family="Times,serif" font-size="14.00">0x8057804:</text>
<text text-anchor="start" x="540" y="-815.3" font-family="Times,serif" font-size="14.00"> g6 = 1</text>
</g>
<!-- Node0x1c1cf600&#45;&gt;Node0xf135550 -->
<g id="edge26" class="edge"><title>Node0x1c1cf600&#45;&gt;Node0xf135550</title>
<path fill="none" stroke="black" d="M748.342,-966.129C704.339,-958.332 644.902,-941.074 607.5,-903 595.157,-890.435 588.907,-871.646 585.743,-855.955"/>
<polygon fill="black" stroke="black" points="589.128,-854.978 584.009,-845.702 582.226,-856.146 589.128,-854.978"/>
<text text-anchor="middle" x="688" y="-924.8" font-family="Times,serif" font-size="14.00">v15 == 0</text>
</g>
<!-- Node0x1c1cfe90 -->
<g id="node24" class="node"><title>Node0x1c1cfe90</title>
<polygon fill="none" stroke="black" points="617,-864.5 617,-902.5 994,-902.5 994,-864.5 617,-864.5"/>
<text text-anchor="start" x="625" y="-887.3" font-family="Times,serif" font-size="14.00">v16 = *(IntToPtrCastExpr&lt;ptr&gt;(((4 * v15) + v6)))</text>
<text text-anchor="start" x="625" y="-872.3" font-family="Times,serif" font-size="14.00"> g5 = v16</text>
</g>
<!-- Node0x1c1cf600&#45;&gt;Node0x1c1cfe90 -->
<g id="edge27" class="edge"><title>Node0x1c1cf600&#45;&gt;Node0x1c1cfe90</title>
<path fill="none" stroke="black" d="M805.5,-954.266C805.5,-942.349 805.5,-926.538 805.5,-912.982"/>
<polygon fill="black" stroke="black" points="809,-912.71 805.5,-902.71 802,-912.71 809,-912.71"/>
<text text-anchor="middle" x="837" y="-924.8" font-family="Times,serif" font-size="14.00">v15 != 0</text>
</g>
<!-- Node0x1c1cf840 -->
<g id="node25" class="node"><title>Node0x1c1cf840</title>
<polygon fill="none" stroke="black" points="351,-680.5 351,-733.5 810,-733.5 810,-680.5 351,-680.5"/>
<text text-anchor="start" x="359" y="-718.3" font-family="Times,serif" font-size="14.00">0x8057809:</text>
<text text-anchor="start" x="359" y="-703.3" font-family="Times,serif" font-size="14.00"> *(BitCastExpr&lt;ptr&gt;(a1)) = *(a2)</text>
<text text-anchor="start" x="359" y="-688.3" font-family="Times,serif" font-size="14.00"> result = mbedtls_mpi_grow(g7, IntToPtrCastExpr&lt;ptr&gt;(g6))</text>
</g>
<!-- Node0xf135550&#45;&gt;Node0x1c1cf840 -->
<g id="edge28" class="edge"><title>Node0xf135550&#45;&gt;Node0x1c1cf840</title>
<path fill="none" stroke="black" d="M582.192,-807.398C581.905,-790.547 581.469,-764.944 581.112,-743.943"/>
<polygon fill="black" stroke="black" points="584.608,-743.696 580.938,-733.757 577.609,-743.816 584.608,-743.696"/>
</g>
<!-- Node0x1c1d0110 -->
<g id="node26" class="node"><title>Node0x1c1d0110</title>
<polygon fill="none" stroke="black" points="798.5,-752.5 798.5,-788.5 906.5,-788.5 906.5,-752.5 798.5,-752.5"/>
<text text-anchor="start" x="806.5" y="-766.8" font-family="Times,serif" font-size="14.00">if (v16 != 0):</text>
</g>
<!-- Node0x1c1cfe90&#45;&gt;Node0x1c1d0110 -->
<g id="edge29" class="edge"><title>Node0x1c1cfe90&#45;&gt;Node0x1c1d0110</title>
<path fill="none" stroke="black" d="M813.261,-864.171C820.879,-846.179 832.581,-818.542 841.225,-798.127"/>
<polygon fill="black" stroke="black" points="844.516,-799.333 845.192,-788.76 838.07,-796.604 844.516,-799.333"/>
</g>
<!-- Node0x1c1cfb20 -->
<g id="node27" class="node"><title>Node0x1c1cfb20</title>
<polygon fill="none" stroke="black" points="518.5,-367.5 518.5,-403.5 642.5,-403.5 642.5,-367.5 518.5,-367.5"/>
<text text-anchor="start" x="526.5" y="-381.8" font-family="Times,serif" font-size="14.00">if (result != 0):</text>
</g>
<!-- Node0x1c1cf840&#45;&gt;Node0x1c1cfb20 -->
<g id="edge30" class="edge"><title>Node0x1c1cf840&#45;&gt;Node0x1c1cfb20</title>
<path fill="none" stroke="black" d="M580.5,-680.262C580.5,-659.851 580.5,-630.601 580.5,-605 580.5,-605 580.5,-605 580.5,-467 580.5,-449.286 580.5,-429.379 580.5,-413.793"/>
<polygon fill="black" stroke="black" points="584,-413.773 580.5,-403.773 577,-413.773 584,-413.773"/>
</g>
<!-- Node0x15ae42c0 -->
<g id="node28" class="node"><title>Node0x15ae42c0</title>
<polygon fill="none" stroke="black" points="774.5,-623.5 774.5,-661.5 942.5,-661.5 942.5,-623.5 774.5,-623.5"/>
<text text-anchor="start" x="782.5" y="-646.3" font-family="Times,serif" font-size="14.00">break &#45;&gt; 0x8057878:</text>
<text text-anchor="start" x="782.5" y="-631.3" font-family="Times,serif" font-size="14.00"> break</text>
</g>
<!-- Node0x1c1d0110&#45;&gt;Node0x15ae42c0 -->
<g id="edge31" class="edge"><title>Node0x1c1d0110&#45;&gt;Node0x15ae42c0</title>
<path fill="none" stroke="black" d="M852.056,-752.315C851.739,-734.277 851.648,-705.105 853.5,-680 853.7,-677.283 853.973,-674.46 854.287,-671.641"/>
<polygon fill="black" stroke="black" points="857.768,-672.009 855.559,-661.647 850.824,-671.125 857.768,-672.009"/>
<text text-anchor="middle" x="885" y="-703.3" font-family="Times,serif" font-size="14.00">v16 != 0</text>
</g>
<!-- Node0x1c1d0330 -->
<g id="node29" class="node"><title>Node0x1c1d0330</title>
<polygon fill="none" stroke="black" points="968,-623.5 968,-661.5 1051,-661.5 1051,-623.5 968,-623.5"/>
<text text-anchor="start" x="976" y="-646.3" font-family="Times,serif" font-size="14.00">v8 = v15</text>
<text text-anchor="start" x="976" y="-631.3" font-family="Times,serif" font-size="14.00"> continue</text>
</g>
<!-- Node0x1c1d0110&#45;&gt;Node0x1c1d0330 -->
<g id="edge32" class="edge"><title>Node0x1c1d0110&#45;&gt;Node0x1c1d0330</title>
<path fill="none" stroke="black" d="M893.006,-752.362C901.55,-747.375 909.95,-741.268 916.5,-734 933.964,-714.622 921.787,-699.151 939.5,-680 944.996,-674.057 951.683,-668.914 958.717,-664.517"/>
<polygon fill="black" stroke="black" points="960.812,-667.351 967.75,-659.344 957.333,-661.276 960.812,-667.351"/>
<text text-anchor="middle" x="974" y="-703.3" font-family="Times,serif" font-size="14.00">v16 == 0</text>
</g>
<!-- Node0x9f2dfd0 -->
<g id="node30" class="node"><title>Node0x9f2dfd0</title>
<polygon fill="none" stroke="black" points="54,-157.5 54,-255.5 167,-255.5 167,-157.5 54,-157.5"/>
<text text-anchor="start" x="62" y="-240.3" font-family="Times,serif" font-size="14.00">0x8057822:</text>
<text text-anchor="start" x="62" y="-225.3" font-family="Times,serif" font-size="14.00"> g3 = v4</text>
<text text-anchor="start" x="62" y="-210.3" font-family="Times,serif" font-size="14.00"> g7 = v3</text>
<text text-anchor="start" x="62" y="-195.3" font-family="Times,serif" font-size="14.00"> g5 = v2</text>
<text text-anchor="start" x="62" y="-180.3" font-family="Times,serif" font-size="14.00"> g2 = v5</text>
<text text-anchor="start" x="62" y="-165.3" font-family="Times,serif" font-size="14.00"> return result</text>
</g>
<!-- Node0x1c1cfb20&#45;&gt;Node0x9f2dfd0 -->
<g id="edge33" class="edge"><title>Node0x1c1cfb20&#45;&gt;Node0x9f2dfd0</title>
<path fill="none" stroke="black" d="M518.099,-380.296C418.737,-372.567 230.188,-353.358 175.5,-316 157.108,-303.436 143.086,-283.794 132.859,-264.656"/>
<polygon fill="black" stroke="black" points="135.927,-262.967 128.283,-255.631 129.683,-266.133 135.927,-262.967"/>
<text text-anchor="middle" x="306" y="-337.8" font-family="Times,serif" font-size="14.00">result != 0</text>
</g>
<!-- Node0x1c1cfd20 -->
<g id="node31" class="node"><title>Node0x1c1cfd20</title>
<polygon fill="none" stroke="black" points="185,-97.5 185,-315.5 976,-315.5 976,-97.5 185,-97.5"/>
<text text-anchor="start" x="193" y="-300.3" font-family="Times,serif" font-size="14.00">0x8057830:</text>
<text text-anchor="start" x="193" y="-285.3" font-family="Times,serif" font-size="14.00"> v9 = g7</text>
<text text-anchor="start" x="193" y="-270.3" font-family="Times,serif" font-size="14.00"> v11 = *(IntToPtrCastExpr&lt;ptr&gt;((v9 + 8)))</text>
<text text-anchor="start" x="193" y="-255.3" font-family="Times,serif" font-size="14.00"> memset(IntToPtrCastExpr&lt;ptr&gt;(v11), 0, (4 * *(IntToPtrCastExpr&lt;ptr&gt;((v9 + 4)))))</text>
<text text-anchor="start" x="193" y="-240.3" font-family="Times,serif" font-size="14.00"> v12 = *(IntToPtrCastExpr&lt;ptr&gt;((g3 + 8)))</text>
<text text-anchor="start" x="193" y="-225.3" font-family="Times,serif" font-size="14.00"> g4 = v12</text>
<text text-anchor="start" x="193" y="-210.3" font-family="Times,serif" font-size="14.00"> v13 = 4</text>
<text text-anchor="start" x="193" y="-195.3" font-family="Times,serif" font-size="14.00"> g6 = v13</text>
<text text-anchor="start" x="193" y="-180.3" font-family="Times,serif" font-size="14.00"> memcpy(IntToPtrCastExpr&lt;ptr&gt;(*(IntToPtrCastExpr&lt;ptr&gt;((g7 + 8)))), IntToPtrCastExpr&lt;ptr&gt;(v12), v13)</text>
<text text-anchor="start" x="193" y="-165.3" font-family="Times,serif" font-size="14.00"> g3 = v4</text>
<text text-anchor="start" x="193" y="-150.3" font-family="Times,serif" font-size="14.00"> g7 = v3</text>
<text text-anchor="start" x="193" y="-135.3" font-family="Times,serif" font-size="14.00"> g5 = v2</text>
<text text-anchor="start" x="193" y="-120.3" font-family="Times,serif" font-size="14.00"> g2 = v5</text>
<text text-anchor="start" x="193" y="-105.3" font-family="Times,serif" font-size="14.00"> return result</text>
</g>
<!-- Node0x1c1cfb20&#45;&gt;Node0x1c1cfd20 -->
<g id="edge34" class="edge"><title>Node0x1c1cfb20&#45;&gt;Node0x1c1cfd20</title>
<path fill="none" stroke="black" d="M580.5,-367.206C580.5,-356.617 580.5,-342.035 580.5,-325.957"/>
<polygon fill="black" stroke="black" points="584,-325.775 580.5,-315.775 577,-325.775 584,-325.775"/>
<text text-anchor="middle" x="623" y="-337.8" font-family="Times,serif" font-size="14.00">result == 0</text>
</g>
<!-- Node0x1c1ce260 -->
<g id="node32" class="node"><title>Node0x1c1ce260</title>
<polygon fill="none" stroke="black" points="885,-532.5 885,-585.5 986,-585.5 986,-532.5 885,-532.5"/>
<text text-anchor="start" x="893" y="-570.3" font-family="Times,serif" font-size="14.00">0x8057878:</text>
<text text-anchor="start" x="893" y="-555.3" font-family="Times,serif" font-size="14.00"> g6 = v8</text>
<text text-anchor="start" x="893" y="-540.3" font-family="Times,serif" font-size="14.00"> v10 = v8</text>
</g>
<!-- Node0x15ae42c0&#45;&gt;Node0x1c1ce260 -->
<g id="edge35" class="edge"><title>Node0x15ae42c0&#45;&gt;Node0x1c1ce260</title>
<path fill="none" stroke="black" d="M875.589,-623.413C884.003,-614.507 894.417,-603.483 904.191,-593.139"/>
<polygon fill="black" stroke="black" points="906.833,-595.439 911.157,-585.766 901.745,-590.631 906.833,-595.439"/>
</g>
<!-- Node0x1c1d0330&#45;&gt;Node0x1c1cefe0 -->
<g id="edge36" class="edge"><title>Node0x1c1d0330&#45;&gt;Node0x1c1cefe0</title>
<path fill="none" stroke="black" d="M1012.58,-661.802C1016.43,-686.267 1022.5,-731.016 1022.5,-769.5 1022.5,-1049.5 1022.5,-1049.5 1022.5,-1049.5 1022.5,-1078.64 1010.56,-1110.03 1000.43,-1131.42"/>
<polygon fill="black" stroke="black" points="997.241,-1129.98 995.959,-1140.5 1003.52,-1133.08 997.241,-1129.98"/>
</g>
<!-- Node0x9f2dfd0&#45;&gt;Node0x15ae31c0 -->
<g id="edge37" class="edge"><title>Node0x9f2dfd0&#45;&gt;Node0x15ae31c0</title>
<path fill="none" stroke="black" d="M127.327,-157.345C137.667,-135.153 153.275,-110.742 175.5,-97 233.033,-61.4262 710.552,-46.8706 849.01,-43.3736"/>
<polygon fill="black" stroke="black" points="849.217,-46.8696 859.127,-43.1227 849.044,-39.8718 849.217,-46.8696"/>
</g>
<!-- Node0x1c1cfd20&#45;&gt;Node0x15ae31c0 -->
<g id="edge38" class="edge"><title>Node0x1c1cfd20&#45;&gt;Node0x15ae31c0</title>
<path fill="none" stroke="black" d="M783.329,-97.4571C808.797,-83.8911 832.196,-71.4264 850.25,-61.8098"/>
<polygon fill="black" stroke="black" points="852.005,-64.8402 859.186,-57.0497 848.714,-58.6621 852.005,-64.8402"/>
</g>
<!-- Node0x1c1ce260&#45;&gt;Node0x1c1ce660 -->
<g id="edge39" class="edge"><title>Node0x1c1ce260&#45;&gt;Node0x1c1ce660</title>
<path fill="none" stroke="black" d="M986.227,-535.426C1011.28,-524.278 1041.83,-510.682 1068.75,-498.702"/>
<polygon fill="black" stroke="black" points="1070.4,-501.801 1078.11,-494.538 1067.55,-495.406 1070.4,-501.801"/>
</g>
</g>
</svg>
