<?xml version="1.0" encoding="UTF-8" standalone="no"?>
<!DOCTYPE svg PUBLIC "-//W3C//DTD SVG 1.1//EN"
 "http://www.w3.org/Graphics/SVG/1.1/DTD/svg11.dtd">
<!-- Generated by graphviz version 2.38.0 (20140413.2041)
 -->
<!-- Title: Control&#45;flow graph for function &#39;mbedtls_camellia_crypt_ctr(a1, a2, *a3, a4, a5, a6, a7)&#39;. Pages: 1 -->
<svg width="861pt" height="1501pt"
 viewBox="0.00 0.00 860.50 1501.00" xmlns="http://www.w3.org/2000/svg" xmlns:xlink="http://www.w3.org/1999/xlink">
<g id="graph0" class="graph" transform="scale(1 1) rotate(0) translate(4 1497)">
<title>Control&#45;flow graph for function &#39;mbedtls_camellia_crypt_ctr(a1, a2, *a3, a4, a5, a6, a7)&#39;.</title>
<polygon fill="white" stroke="none" points="-4,4 -4,-1497 856.5,-1497 856.5,4 -4,4"/>
<text text-anchor="middle" x="426.25" y="-7.8" font-family="Times,serif" font-size="14.00">Control&#45;flow graph for function &#39;mbedtls_camellia_crypt_ctr(a1, a2, *a3, a4, a5, a6, a7)&#39;.</text>
<!-- Node0x245f5620 -->
<g id="node1" class="node"><title>Node0x245f5620</title>
<polygon fill="none" stroke="black" points="131,-1364.5 131,-1492.5 190,-1492.5 190,-1364.5 131,-1364.5"/>
<text text-anchor="start" x="139" y="-1477.3" font-family="Times,serif" font-size="14.00">entry:</text>
<text text-anchor="start" x="139" y="-1462.3" font-family="Times,serif" font-size="14.00"> a1</text>
<text text-anchor="start" x="139" y="-1447.3" font-family="Times,serif" font-size="14.00"> a2</text>
<text text-anchor="start" x="139" y="-1432.3" font-family="Times,serif" font-size="14.00"> a3</text>
<text text-anchor="start" x="139" y="-1417.3" font-family="Times,serif" font-size="14.00"> a4</text>
<text text-anchor="start" x="139" y="-1402.3" font-family="Times,serif" font-size="14.00"> a5</text>
<text text-anchor="start" x="139" y="-1387.3" font-family="Times,serif" font-size="14.00"> a6</text>
<text text-anchor="start" x="139" y="-1372.3" font-family="Times,serif" font-size="14.00"> a7</text>
</g>
<!-- Node0x245f4040 -->
<g id="node2" class="node"><title>Node0x245f4040</title>
<polygon fill="none" stroke="black" points="113,-1228.5 113,-1326.5 208,-1326.5 208,-1228.5 113,-1228.5"/>
<text text-anchor="start" x="121" y="-1311.3" font-family="Times,serif" font-size="14.00">v1 = g5</text>
<text text-anchor="start" x="121" y="-1296.3" font-family="Times,serif" font-size="14.00"> v2 = g7</text>
<text text-anchor="start" x="121" y="-1281.3" font-family="Times,serif" font-size="14.00"> v3 = g3</text>
<text text-anchor="start" x="121" y="-1266.3" font-family="Times,serif" font-size="14.00"> g7 = a4</text>
<text text-anchor="start" x="121" y="-1251.3" font-family="Times,serif" font-size="14.00"> v4 = *(a3)</text>
<text text-anchor="start" x="121" y="-1236.3" font-family="Times,serif" font-size="14.00"> g3 = v4</text>
</g>
<!-- Node0x245f5620&#45;&gt;Node0x245f4040 -->
<g id="edge1" class="edge"><title>Node0x245f5620&#45;&gt;Node0x245f4040</title>
<path fill="none" stroke="black" d="M160.5,-1364.31C160.5,-1355.3 160.5,-1346.07 160.5,-1337.15"/>
<polygon fill="black" stroke="black" points="164,-1336.87 160.5,-1326.87 157,-1336.87 164,-1336.87"/>
</g>
<!-- Node0x245f7840 -->
<g id="node3" class="node"><title>Node0x245f7840</title>
<polygon fill="none" stroke="black" points="108,-1154.5 108,-1190.5 213,-1190.5 213,-1154.5 108,-1154.5"/>
<text text-anchor="start" x="116" y="-1168.8" font-family="Times,serif" font-size="14.00">if (a2 == 0):</text>
</g>
<!-- Node0x245f4040&#45;&gt;Node0x245f7840 -->
<g id="edge2" class="edge"><title>Node0x245f4040&#45;&gt;Node0x245f7840</title>
<path fill="none" stroke="black" d="M160.5,-1228.32C160.5,-1218.89 160.5,-1209.32 160.5,-1200.87"/>
<polygon fill="black" stroke="black" points="164,-1200.86 160.5,-1190.86 157,-1200.86 164,-1200.86"/>
</g>
<!-- Node0x245f8b30 -->
<g id="node4" class="node"><title>Node0x245f8b30</title>
<polygon fill="none" stroke="black" points="0,-917.5 0,-1015.5 99,-1015.5 99,-917.5 0,-917.5"/>
<text text-anchor="start" x="8" y="-1000.3" font-family="Times,serif" font-size="14.00">0x806eca0:</text>
<text text-anchor="start" x="8" y="-985.3" font-family="Times,serif" font-size="14.00"> *(a3) = v4</text>
<text text-anchor="start" x="8" y="-970.3" font-family="Times,serif" font-size="14.00"> g3 = v3</text>
<text text-anchor="start" x="8" y="-955.3" font-family="Times,serif" font-size="14.00"> g7 = v2</text>
<text text-anchor="start" x="8" y="-940.3" font-family="Times,serif" font-size="14.00"> g5 = v1</text>
<text text-anchor="start" x="8" y="-925.3" font-family="Times,serif" font-size="14.00"> return 0</text>
</g>
<!-- Node0x245f7840&#45;&gt;Node0x245f8b30 -->
<g id="edge3" class="edge"><title>Node0x245f7840&#45;&gt;Node0x245f8b30</title>
<path fill="none" stroke="black" d="M151.227,-1154.46C135.872,-1126.24 104.492,-1068.57 80.6206,-1024.69"/>
<polygon fill="black" stroke="black" points="83.6555,-1022.95 75.8016,-1015.84 77.5068,-1026.29 83.6555,-1022.95"/>
<text text-anchor="middle" x="170.5" y="-1124.8" font-family="Times,serif" font-size="14.00">a2 == 0</text>
</g>
<!-- Node0x245f89d0 -->
<g id="node5" class="node"><title>Node0x245f89d0</title>
<polygon fill="none" stroke="black" points="325.5,-1034.5 325.5,-1102.5 425.5,-1102.5 425.5,-1034.5 325.5,-1034.5"/>
<text text-anchor="start" x="333.5" y="-1087.3" font-family="Times,serif" font-size="14.00">0x806ec3b:</text>
<text text-anchor="start" x="333.5" y="-1072.3" font-family="Times,serif" font-size="14.00"> g5 = 0</text>
<text text-anchor="start" x="333.5" y="-1057.3" font-family="Times,serif" font-size="14.00"> v5 = 0</text>
<text text-anchor="start" x="333.5" y="-1042.3" font-family="Times,serif" font-size="14.00"> v6</text>
</g>
<!-- Node0x245f7840&#45;&gt;Node0x245f89d0 -->
<g id="edge4" class="edge"><title>Node0x245f7840&#45;&gt;Node0x245f89d0</title>
<path fill="none" stroke="black" d="M196.486,-1154.43C228.996,-1139 277.475,-1116 315.787,-1097.83"/>
<polygon fill="black" stroke="black" points="317.758,-1100.77 325.292,-1093.32 314.757,-1094.44 317.758,-1100.77"/>
<text text-anchor="middle" x="289.5" y="-1124.8" font-family="Times,serif" font-size="14.00">a2 != 0</text>
</g>
<!-- Node0x245f6d80 -->
<g id="node6" class="node"><title>Node0x245f6d80</title>
<polygon fill="none" stroke="black" points="52.5,-23.5 52.5,-59.5 106.5,-59.5 106.5,-23.5 52.5,-23.5"/>
<text text-anchor="start" x="60.5" y="-37.8" font-family="Times,serif" font-size="14.00">exit:</text>
</g>
<!-- Node0x245f8b30&#45;&gt;Node0x245f6d80 -->
<g id="edge5" class="edge"><title>Node0x245f8b30&#45;&gt;Node0x245f6d80</title>
<path fill="none" stroke="black" d="M44.4999,-917.235C42.4284,-893.284 40.5,-863.898 40.5,-837.5 40.5,-837.5 40.5,-837.5 40.5,-145.5 40.5,-117.934 52.8686,-88.7498 63.675,-68.5127"/>
<polygon fill="black" stroke="black" points="66.8242,-70.0516 68.6363,-59.6129 60.71,-66.6432 66.8242,-70.0516"/>
</g>
<!-- Node0x245f8a30 -->
<g id="node7" class="node"><title>Node0x245f8a30</title>
<polygon fill="none" stroke="black" points="629,-862.5 629,-898.5 726,-898.5 726,-862.5 629,-862.5"/>
<text text-anchor="start" x="637" y="-876.8" font-family="Times,serif" font-size="14.00">while True:</text>
</g>
<!-- Node0x245f89d0&#45;&gt;Node0x245f8a30 -->
<g id="edge6" class="edge"><title>Node0x245f89d0&#45;&gt;Node0x245f8a30</title>
<path fill="none" stroke="black" d="M425.708,-1036.58C486.559,-999.099 587.6,-936.869 641.32,-903.783"/>
<polygon fill="black" stroke="black" points="643.157,-906.762 649.836,-898.538 639.486,-900.802 643.157,-906.762"/>
</g>
<!-- Node0x245f5410 -->
<g id="node8" class="node"><title>Node0x245f5410</title>
<polygon fill="none" stroke="black" points="639,-772.5 639,-810.5 716,-810.5 716,-772.5 639,-772.5"/>
<text text-anchor="start" x="647" y="-795.3" font-family="Times,serif" font-size="14.00">v7 = v4</text>
<text text-anchor="start" x="647" y="-780.3" font-family="Times,serif" font-size="14.00"> v8 = v5</text>
</g>
<!-- Node0x245f8a30&#45;&gt;Node0x245f5410 -->
<g id="edge7" class="edge"><title>Node0x245f8a30&#45;&gt;Node0x245f5410</title>
<path fill="none" stroke="black" d="M677.5,-862.312C677.5,-850.511 677.5,-834.572 677.5,-820.904"/>
<polygon fill="black" stroke="black" points="681,-820.551 677.5,-810.551 674,-820.551 681,-820.551"/>
<text text-anchor="middle" x="694.5" y="-832.8" font-family="Times,serif" font-size="14.00">True</text>
</g>
<!-- Node0x245f5580 -->
<g id="node9" class="node"><title>Node0x245f5580</title>
<polygon fill="none" stroke="black" points="625,-698.5 625,-734.5 730,-734.5 730,-698.5 625,-698.5"/>
<text text-anchor="start" x="633" y="-712.8" font-family="Times,serif" font-size="14.00">if (v4 == 0):</text>
</g>
<!-- Node0x245f5410&#45;&gt;Node0x245f5580 -->
<g id="edge8" class="edge"><title>Node0x245f5410&#45;&gt;Node0x245f5580</title>
<path fill="none" stroke="black" d="M677.5,-772.455C677.5,-764.201 677.5,-754.238 677.5,-745.074"/>
<polygon fill="black" stroke="black" points="681,-744.835 677.5,-734.835 674,-744.835 681,-744.835"/>
</g>
<!-- Node0x20fc0010 -->
<g id="node10" class="node"><title>Node0x20fc0010</title>
<polygon fill="none" stroke="black" points="69,-548.5 69,-646.5 734,-646.5 734,-548.5 69,-548.5"/>
<text text-anchor="start" x="77" y="-631.3" font-family="Times,serif" font-size="14.00">0x806ec62:</text>
<text text-anchor="start" x="77" y="-616.3" font-family="Times,serif" font-size="14.00"> mbedtls_camellia_crypt_ecb(IntToPtrCastExpr&lt;ptr&gt;(a1), 1, IntToPtrCastExpr&lt;ptr&gt;(g7))</text>
<text text-anchor="start" x="77" y="-601.3" font-family="Times,serif" font-size="14.00"> v9 = IntToPtrCastExpr&lt;ptr&gt;((g7 + 15))</text>
<text text-anchor="start" x="77" y="-586.3" font-family="Times,serif" font-size="14.00"> *(v9) = TruncCastExpr&lt;int8&gt;((ExtCastExpr&lt;int32&gt;(*(v9)) + 1))</text>
<text text-anchor="start" x="77" y="-571.3" font-family="Times,serif" font-size="14.00"> v7 = g3</text>
<text text-anchor="start" x="77" y="-556.3" font-family="Times,serif" font-size="14.00"> v8 = g5</text>
</g>
<!-- Node0x245f5580&#45;&gt;Node0x20fc0010 -->
<g id="edge9" class="edge"><title>Node0x245f5580&#45;&gt;Node0x20fc0010</title>
<path fill="none" stroke="black" d="M637.367,-698.487C607.414,-685.79 564.786,-667.719 523.99,-650.425"/>
<polygon fill="black" stroke="black" points="525.345,-647.198 514.772,-646.517 522.613,-653.643 525.345,-647.198"/>
<text text-anchor="middle" x="617.5" y="-668.8" font-family="Times,serif" font-size="14.00">v4 == 0</text>
</g>
<!-- Node0x245f8f00 -->
<g id="node11" class="node"><title>Node0x245f8f00</title>
<polygon fill="none" stroke="black" points="373.5,-397.5 373.5,-510.5 767.5,-510.5 767.5,-397.5 373.5,-397.5"/>
<text text-anchor="start" x="381.5" y="-495.3" font-family="Times,serif" font-size="14.00">v10 = *(IntToPtrCastExpr&lt;ptr&gt;((v8 + a6)))</text>
<text text-anchor="start" x="381.5" y="-480.3" font-family="Times,serif" font-size="14.00"> v11 = *(IntToPtrCastExpr&lt;ptr&gt;((a5 + v7)))</text>
<text text-anchor="start" x="381.5" y="-465.3" font-family="Times,serif" font-size="14.00"> g3 = ((v7 + 1) % 16)</text>
<text text-anchor="start" x="381.5" y="-450.3" font-family="Times,serif" font-size="14.00"> *(IntToPtrCastExpr&lt;ptr&gt;((v8 + a7))) = (v11 ^ v10)</text>
<text text-anchor="start" x="381.5" y="-435.3" font-family="Times,serif" font-size="14.00"> v12 = (g5 + 1)</text>
<text text-anchor="start" x="381.5" y="-420.3" font-family="Times,serif" font-size="14.00"> g5 = v12</text>
<text text-anchor="start" x="381.5" y="-405.3" font-family="Times,serif" font-size="14.00"> v6 = g3</text>
</g>
<!-- Node0x245f5580&#45;&gt;Node0x245f8f00 -->
<g id="edge10" class="edge"><title>Node0x245f5580&#45;&gt;Node0x245f8f00</title>
<path fill="none" stroke="black" d="M701.539,-698.458C716.73,-686.125 735.037,-667.982 743.5,-647 759.96,-606.195 766.076,-585.767 743.5,-548 736.599,-536.455 727.717,-526.259 717.629,-517.272"/>
<polygon fill="black" stroke="black" points="719.608,-514.364 709.692,-510.633 715.116,-519.734 719.608,-514.364"/>
<text text-anchor="middle" x="784.5" y="-593.8" font-family="Times,serif" font-size="14.00">v4 != 0</text>
</g>
<!-- Node0x20fc0010&#45;&gt;Node0x245f8f00 -->
<g id="edge11" class="edge"><title>Node0x20fc0010&#45;&gt;Node0x245f8f00</title>
<path fill="none" stroke="black" d="M459.188,-548.199C471.145,-538.188 483.901,-527.508 496.353,-517.082"/>
<polygon fill="black" stroke="black" points="498.636,-519.735 504.056,-510.632 494.142,-514.368 498.636,-519.735"/>
</g>
<!-- Node0x8e43840 -->
<g id="node12" class="node"><title>Node0x8e43840</title>
<polygon fill="none" stroke="black" points="509.5,-323.5 509.5,-359.5 631.5,-359.5 631.5,-323.5 509.5,-323.5"/>
<text text-anchor="start" x="517.5" y="-337.8" font-family="Times,serif" font-size="14.00">if (v12 == a2):</text>
</g>
<!-- Node0x245f8f00&#45;&gt;Node0x8e43840 -->
<g id="edge12" class="edge"><title>Node0x245f8f00&#45;&gt;Node0x8e43840</title>
<path fill="none" stroke="black" d="M570.5,-397.426C570.5,-387.86 570.5,-378.307 570.5,-369.913"/>
<polygon fill="black" stroke="black" points="574,-369.644 570.5,-359.644 567,-369.644 574,-369.644"/>
</g>
<!-- Node0x245f8ff0 -->
<g id="node13" class="node"><title>Node0x245f8ff0</title>
<polygon fill="none" stroke="black" points="247.5,-233.5 247.5,-271.5 413.5,-271.5 413.5,-233.5 247.5,-233.5"/>
<text text-anchor="start" x="255.5" y="-256.3" font-family="Times,serif" font-size="14.00">break &#45;&gt; 0x806eca0:</text>
<text text-anchor="start" x="255.5" y="-241.3" font-family="Times,serif" font-size="14.00"> break</text>
</g>
<!-- Node0x8e43840&#45;&gt;Node0x245f8ff0 -->
<g id="edge13" class="edge"><title>Node0x8e43840&#45;&gt;Node0x245f8ff0</title>
<path fill="none" stroke="black" d="M523.37,-323.415C485.203,-309.58 431.208,-290.007 390.052,-275.088"/>
<polygon fill="black" stroke="black" points="391.01,-271.712 380.416,-271.595 388.625,-278.293 391.01,-271.712"/>
<text text-anchor="middle" x="510" y="-293.8" font-family="Times,serif" font-size="14.00">v12 == a2</text>
</g>
<!-- Node0x245f6450 -->
<g id="node14" class="node"><title>Node0x245f6450</title>
<polygon fill="none" stroke="black" points="611,-233.5 611,-271.5 692,-271.5 692,-233.5 611,-233.5"/>
<text text-anchor="start" x="619" y="-256.3" font-family="Times,serif" font-size="14.00">v5 = v12</text>
<text text-anchor="start" x="619" y="-241.3" font-family="Times,serif" font-size="14.00"> v4 = v6</text>
</g>
<!-- Node0x8e43840&#45;&gt;Node0x245f6450 -->
<g id="edge14" class="edge"><title>Node0x8e43840&#45;&gt;Node0x245f6450</title>
<path fill="none" stroke="black" d="M586.503,-323.312C598.251,-310.693 614.405,-293.343 627.668,-279.097"/>
<polygon fill="black" stroke="black" points="630.441,-281.255 634.694,-271.551 625.318,-276.485 630.441,-281.255"/>
<text text-anchor="middle" x="651" y="-293.8" font-family="Times,serif" font-size="14.00">v12 != a2</text>
</g>
<!-- Node0x245f8a90 -->
<g id="node15" class="node"><title>Node0x245f8a90</title>
<polygon fill="none" stroke="black" points="122,-97.5 122,-195.5 221,-195.5 221,-97.5 122,-97.5"/>
<text text-anchor="start" x="130" y="-180.3" font-family="Times,serif" font-size="14.00">0x806eca0:</text>
<text text-anchor="start" x="130" y="-165.3" font-family="Times,serif" font-size="14.00"> *(a3) = v6</text>
<text text-anchor="start" x="130" y="-150.3" font-family="Times,serif" font-size="14.00"> g3 = v3</text>
<text text-anchor="start" x="130" y="-135.3" font-family="Times,serif" font-size="14.00"> g7 = v2</text>
<text text-anchor="start" x="130" y="-120.3" font-family="Times,serif" font-size="14.00"> g5 = v1</text>
<text text-anchor="start" x="130" y="-105.3" font-family="Times,serif" font-size="14.00"> return 0</text>
</g>
<!-- Node0x245f8ff0&#45;&gt;Node0x245f8a90 -->
<g id="edge15" class="edge"><title>Node0x245f8ff0&#45;&gt;Node0x245f8a90</title>
<path fill="none" stroke="black" d="M302.804,-233.385C282.668,-220.214 254.678,-201.906 229.712,-185.576"/>
<polygon fill="black" stroke="black" points="231.31,-182.439 221.025,-179.894 227.478,-188.297 231.31,-182.439"/>
</g>
<!-- Node0x245f6450&#45;&gt;Node0x245f8a30 -->
<g id="edge16" class="edge"><title>Node0x245f6450&#45;&gt;Node0x245f8a30</title>
<path fill="none" stroke="black" d="M692.175,-253.758C750.908,-256.519 852.5,-271.296 852.5,-340.5 852.5,-792.5 852.5,-792.5 852.5,-792.5 852.5,-845.621 787.046,-866.307 736.198,-874.362"/>
<polygon fill="black" stroke="black" points="735.639,-870.907 726.247,-875.811 736.647,-877.834 735.639,-870.907"/>
</g>
<!-- Node0x245f8a90&#45;&gt;Node0x245f6d80 -->
<g id="edge17" class="edge"><title>Node0x245f8a90&#45;&gt;Node0x245f6d80</title>
<path fill="none" stroke="black" d="M128.463,-97.3173C119.203,-86.9506 109.783,-76.4039 101.711,-67.3667"/>
<polygon fill="black" stroke="black" points="104.274,-64.9826 95.0025,-59.8561 99.0538,-69.6458 104.274,-64.9826"/>
</g>
</g>
</svg>
