<?xml version="1.0" encoding="UTF-8" standalone="no"?>
<!DOCTYPE svg PUBLIC "-//W3C//DTD SVG 1.1//EN"
 "http://www.w3.org/Graphics/SVG/1.1/DTD/svg11.dtd">
<!-- Generated by graphviz version 2.38.0 (20140413.2041)
 -->
<!-- Title: Control&#45;flow graph for function &#39;__lockfile(a1)&#39;. Pages: 1 -->
<svg width="358pt" height="248pt"
 viewBox="0.00 0.00 358.00 248.00" xmlns="http://www.w3.org/2000/svg" xmlns:xlink="http://www.w3.org/1999/xlink">
<g id="graph0" class="graph" transform="scale(1 1) rotate(0) translate(4 244)">
<title>Control&#45;flow graph for function &#39;__lockfile(a1)&#39;.</title>
<polygon fill="white" stroke="none" points="-4,4 -4,-244 354,-244 354,4 -4,4"/>
<text text-anchor="middle" x="175" y="-7.8" font-family="Times,serif" font-size="14.00">Control&#45;flow graph for function &#39;__lockfile(a1)&#39;.</text>
<!-- Node0x2737db60 -->
<g id="node1" class="node"><title>Node0x2737db60</title>
<polygon fill="none" stroke="black" points="145.5,-201.5 145.5,-239.5 204.5,-239.5 204.5,-201.5 145.5,-201.5"/>
<text text-anchor="start" x="153.5" y="-224.3" font-family="Times,serif" font-size="14.00">entry:</text>
<text text-anchor="start" x="153.5" y="-209.3" font-family="Times,serif" font-size="14.00"> a1</text>
</g>
<!-- Node0x140efc50 -->
<g id="node2" class="node"><title>Node0x140efc50</title>
<polygon fill="none" stroke="black" points="96,-96.5 96,-164.5 254,-164.5 254,-96.5 96,-96.5"/>
<text text-anchor="start" x="104" y="-149.3" font-family="Times,serif" font-size="14.00">0x807675e:</text>
<text text-anchor="start" x="104" y="-134.3" font-family="Times,serif" font-size="14.00"> g5 = a1</text>
<text text-anchor="start" x="104" y="-119.3" font-family="Times,serif" font-size="14.00"> abort()</text>
<text text-anchor="start" x="104" y="-104.3" font-family="Times,serif" font-size="14.00"> # UNREACHABLE</text>
</g>
<!-- Node0x2737db60&#45;&gt;Node0x140efc50 -->
<g id="edge1" class="edge"><title>Node0x2737db60&#45;&gt;Node0x140efc50</title>
<path fill="none" stroke="black" d="M175,-201.266C175,-193.502 175,-184.086 175,-174.717"/>
<polygon fill="black" stroke="black" points="178.5,-174.649 175,-164.65 171.5,-174.65 178.5,-174.649"/>
</g>
<!-- Node0x7bdefe0 -->
<g id="node3" class="node"><title>Node0x7bdefe0</title>
<polygon fill="none" stroke="black" points="148,-23.5 148,-59.5 202,-59.5 202,-23.5 148,-23.5"/>
<text text-anchor="start" x="156" y="-37.8" font-family="Times,serif" font-size="14.00">exit:</text>
</g>
<!-- Node0x140efc50&#45;&gt;Node0x7bdefe0 -->
<g id="edge2" class="edge"><title>Node0x140efc50&#45;&gt;Node0x7bdefe0</title>
<path fill="none" stroke="black" d="M175,-96.1123C175,-87.3522 175,-78.0128 175,-69.6246"/>
<polygon fill="black" stroke="black" points="178.5,-69.6235 175,-59.6235 171.5,-69.6235 178.5,-69.6235"/>
</g>
</g>
</svg>
