<?xml version="1.0" encoding="UTF-8" standalone="no"?>
<!DOCTYPE svg PUBLIC "-//W3C//DTD SVG 1.1//EN"
 "http://www.w3.org/Graphics/SVG/1.1/DTD/svg11.dtd">
<!-- Generated by graphviz version 2.38.0 (20140413.2041)
 -->
<!-- Title: Control&#45;flow graph for function &#39;mbedtls_cipher_crypt(*a1, a2, a3, a4, a5, a6, *a7, a8)&#39;. Pages: 1 -->
<svg width="1909pt" height="1198pt"
 viewBox="0.00 0.00 1908.50 1198.00" xmlns="http://www.w3.org/2000/svg" xmlns:xlink="http://www.w3.org/1999/xlink">
<g id="graph0" class="graph" transform="scale(1 1) rotate(0) translate(4 1194)">
<title>Control&#45;flow graph for function &#39;mbedtls_cipher_crypt(*a1, a2, a3, a4, a5, a6, *a7, a8)&#39;.</title>
<polygon fill="white" stroke="none" points="-4,4 -4,-1194 1904.5,-1194 1904.5,4 -4,4"/>
<text text-anchor="middle" x="950.25" y="-7.8" font-family="Times,serif" font-size="14.00">Control&#45;flow graph for function &#39;mbedtls_cipher_crypt(*a1, a2, a3, a4, a5, a6, *a7, a8)&#39;.</text>
<!-- Node0x1d0c4a00 -->
<g id="node1" class="node"><title>Node0x1d0c4a00</title>
<polygon fill="none" stroke="black" points="1156,-1046.5 1156,-1189.5 1215,-1189.5 1215,-1046.5 1156,-1046.5"/>
<text text-anchor="start" x="1164" y="-1174.3" font-family="Times,serif" font-size="14.00">entry:</text>
<text text-anchor="start" x="1164" y="-1159.3" font-family="Times,serif" font-size="14.00"> a1</text>
<text text-anchor="start" x="1164" y="-1144.3" font-family="Times,serif" font-size="14.00"> a2</text>
<text text-anchor="start" x="1164" y="-1129.3" font-family="Times,serif" font-size="14.00"> a3</text>
<text text-anchor="start" x="1164" y="-1114.3" font-family="Times,serif" font-size="14.00"> a4</text>
<text text-anchor="start" x="1164" y="-1099.3" font-family="Times,serif" font-size="14.00"> a5</text>
<text text-anchor="start" x="1164" y="-1084.3" font-family="Times,serif" font-size="14.00"> a6</text>
<text text-anchor="start" x="1164" y="-1069.3" font-family="Times,serif" font-size="14.00"> a7</text>
<text text-anchor="start" x="1164" y="-1054.3" font-family="Times,serif" font-size="14.00"> a8</text>
</g>
<!-- Node0x9905220 -->
<g id="node2" class="node"><title>Node0x9905220</title>
<polygon fill="none" stroke="black" points="1047,-940.5 1047,-1008.5 1324,-1008.5 1324,-940.5 1047,-940.5"/>
<text text-anchor="start" x="1055" y="-993.3" font-family="Times,serif" font-size="14.00">g3 = PtrToIntCastExpr&lt;int32&gt;(a1)</text>
<text text-anchor="start" x="1055" y="-978.3" font-family="Times,serif" font-size="14.00"> g7 = PtrToIntCastExpr&lt;int32&gt;(a7)</text>
<text text-anchor="start" x="1055" y="-963.3" font-family="Times,serif" font-size="14.00"> g5 = a6</text>
<text text-anchor="start" x="1055" y="-948.3" font-family="Times,serif" font-size="14.00"> result</text>
</g>
<!-- Node0x1d0c4a00&#45;&gt;Node0x9905220 -->
<g id="edge1" class="edge"><title>Node0x1d0c4a00&#45;&gt;Node0x9905220</title>
<path fill="none" stroke="black" d="M1185.5,-1046.25C1185.5,-1036.92 1185.5,-1027.58 1185.5,-1018.9"/>
<polygon fill="black" stroke="black" points="1189,-1018.68 1185.5,-1008.68 1182,-1018.68 1189,-1018.68"/>
</g>
<!-- Node0x2630dbe0 -->
<g id="node3" class="node"><title>Node0x2630dbe0</title>
<polygon fill="none" stroke="black" points="929.5,-866.5 929.5,-902.5 1441.5,-902.5 1441.5,-866.5 929.5,-866.5"/>
<text text-anchor="start" x="937.5" y="-880.8" font-family="Times,serif" font-size="14.00">if (mbedtls_cipher_set_iv(a1, IntToPtrCastExpr&lt;ptr&gt;(a2), a3) == 0):</text>
</g>
<!-- Node0x9905220&#45;&gt;Node0x2630dbe0 -->
<g id="edge2" class="edge"><title>Node0x9905220&#45;&gt;Node0x2630dbe0</title>
<path fill="none" stroke="black" d="M1185.5,-940.482C1185.5,-931.328 1185.5,-921.497 1185.5,-912.715"/>
<polygon fill="black" stroke="black" points="1189,-912.64 1185.5,-902.64 1182,-912.64 1189,-912.64"/>
</g>
<!-- Node0x257ad370 -->
<g id="node4" class="node"><title>Node0x257ad370</title>
<polygon fill="none" stroke="black" points="842,-778.5 842,-814.5 915,-814.5 915,-778.5 842,-778.5"/>
<text text-anchor="start" x="850" y="-792.8" font-family="Times,serif" font-size="14.00">v1 = g3</text>
</g>
<!-- Node0x2630dbe0&#45;&gt;Node0x257ad370 -->
<g id="edge3" class="edge"><title>Node0x2630dbe0&#45;&gt;Node0x257ad370</title>
<path fill="none" stroke="black" d="M1023.42,-866.471C1001.23,-861.746 979.039,-855.71 958.5,-848 940.927,-841.403 923.101,-830.633 908.75,-820.729"/>
<polygon fill="black" stroke="black" points="910.475,-817.661 900.297,-814.72 906.419,-823.366 910.475,-817.661"/>
<text text-anchor="middle" x="1192" y="-836.8" font-family="Times,serif" font-size="14.00">mbedtls_cipher_set_iv(a1, IntToPtrCastExpr&lt;ptr&gt;(a2), a3) == 0</text>
</g>
<!-- Node0x1d0c4d20 -->
<g id="node5" class="node"><title>Node0x1d0c4d20</title>
<polygon fill="none" stroke="black" points="997,-97.5 997,-135.5 1110,-135.5 1110,-97.5 997,-97.5"/>
<text text-anchor="start" x="1005" y="-120.3" font-family="Times,serif" font-size="14.00">0x806a355:</text>
<text text-anchor="start" x="1005" y="-105.3" font-family="Times,serif" font-size="14.00"> return result</text>
</g>
<!-- Node0x2630dbe0&#45;&gt;Node0x1d0c4d20 -->
<g id="edge4" class="edge"><title>Node0x2630dbe0&#45;&gt;Node0x1d0c4d20</title>
<path fill="none" stroke="black" d="M1380.7,-866.459C1400.65,-861.736 1416.78,-855.704 1425.5,-848 1442.95,-832.579 1439.5,-820.791 1439.5,-797.5 1439.5,-797.5 1439.5,-797.5 1439.5,-206.5 1439.5,-141.727 1230.51,-124.089 1120.09,-119.291"/>
<polygon fill="black" stroke="black" points="1120.18,-115.792 1110.04,-118.878 1119.89,-122.786 1120.18,-115.792"/>
<text text-anchor="middle" x="1670" y="-501.8" font-family="Times,serif" font-size="14.00">mbedtls_cipher_set_iv(a1, IntToPtrCastExpr&lt;ptr&gt;(a2), a3) != 0</text>
</g>
<!-- Node0x240fc2f0 -->
<g id="node6" class="node"><title>Node0x240fc2f0</title>
<polygon fill="none" stroke="black" points="337,-704.5 337,-740.5 748,-740.5 748,-704.5 337,-704.5"/>
<text text-anchor="start" x="345" y="-718.8" font-family="Times,serif" font-size="14.00">if ((v1 == 0) or (*(IntToPtrCastExpr&lt;ptr&gt;(v1)) == 0)):</text>
</g>
<!-- Node0x257ad370&#45;&gt;Node0x240fc2f0 -->
<g id="edge5" class="edge"><title>Node0x257ad370&#45;&gt;Node0x240fc2f0</title>
<path fill="none" stroke="black" d="M841.902,-787.658C791.891,-776.941 700.575,-757.373 631.891,-742.655"/>
<polygon fill="black" stroke="black" points="632.44,-739.193 621.929,-740.52 630.973,-746.038 632.44,-739.193"/>
</g>
<!-- Node0x257ae420 -->
<g id="node7" class="node"><title>Node0x257ae420</title>
<polygon fill="none" stroke="black" points="254.5,-23.5 254.5,-59.5 308.5,-59.5 308.5,-23.5 254.5,-23.5"/>
<text text-anchor="start" x="262.5" y="-37.8" font-family="Times,serif" font-size="14.00">exit:</text>
</g>
<!-- Node0x1d0c4d20&#45;&gt;Node0x257ae420 -->
<g id="edge6" class="edge"><title>Node0x1d0c4d20&#45;&gt;Node0x257ae420</title>
<path fill="none" stroke="black" d="M996.733,-110.132C846.844,-95.9587 443.441,-57.8131 318.744,-46.0217"/>
<polygon fill="black" stroke="black" points="318.849,-42.5162 308.564,-45.0591 318.19,-49.4851 318.849,-42.5162"/>
</g>
<!-- Node0x263107c0 -->
<g id="node8" class="node"><title>Node0x263107c0</title>
<polygon fill="none" stroke="black" points="0,-542.5 0,-580.5 101,-580.5 101,-542.5 0,-542.5"/>
<text text-anchor="start" x="8" y="-565.3" font-family="Times,serif" font-size="14.00">0x806a368:</text>
<text text-anchor="start" x="8" y="-550.3" font-family="Times,serif" font-size="14.00"> return g6</text>
</g>
<!-- Node0x240fc2f0&#45;&gt;Node0x263107c0 -->
<g id="edge7" class="edge"><title>Node0x240fc2f0&#45;&gt;Node0x263107c0</title>
<path fill="none" stroke="black" d="M336.65,-713.937C268.595,-708.837 202.59,-700.298 172.5,-686 127.108,-664.431 89.0875,-618.562 68.0944,-589.201"/>
<polygon fill="black" stroke="black" points="70.7299,-586.862 62.1367,-580.664 64.9895,-590.868 70.7299,-586.862"/>
<text text-anchor="middle" x="355.5" y="-674.8" font-family="Times,serif" font-size="14.00">(v1 == 0) or (*(IntToPtrCastExpr&lt;ptr&gt;(v1)) == 0)</text>
</g>
<!-- Node0x1d0c4700 -->
<g id="node9" class="node"><title>Node0x1d0c4700</title>
<polygon fill="none" stroke="black" points="382.5,-599.5 382.5,-652.5 702.5,-652.5 702.5,-599.5 382.5,-599.5"/>
<text text-anchor="start" x="390.5" y="-637.3" font-family="Times,serif" font-size="14.00">0x806a32c:</text>
<text text-anchor="start" x="390.5" y="-622.3" font-family="Times,serif" font-size="14.00"> *(IntToPtrCastExpr&lt;ptr&gt;((v1 + 36))) = 0</text>
<text text-anchor="start" x="390.5" y="-607.3" font-family="Times,serif" font-size="14.00"> v2 = g5</text>
</g>
<!-- Node0x240fc2f0&#45;&gt;Node0x1d0c4700 -->
<g id="edge8" class="edge"><title>Node0x240fc2f0&#45;&gt;Node0x1d0c4700</title>
<path fill="none" stroke="black" d="M542.5,-704.167C542.5,-692.703 542.5,-677.247 542.5,-663.178"/>
<polygon fill="black" stroke="black" points="546,-662.78 542.5,-652.78 539,-662.78 546,-662.78"/>
<text text-anchor="middle" x="725" y="-674.8" font-family="Times,serif" font-size="14.00">(v1 != 0) and (*(IntToPtrCastExpr&lt;ptr&gt;(v1)) != 0)</text>
</g>
<!-- Node0x263107c0&#45;&gt;Node0x257ae420 -->
<g id="edge9" class="edge"><title>Node0x263107c0&#45;&gt;Node0x257ae420</title>
<path fill="none" stroke="black" d="M40.1141,-542.365C30.1154,-523.169 16.5,-491.674 16.5,-462.5 16.5,-462.5 16.5,-462.5 16.5,-115.5 16.5,-68.8792 170.874,-50.8989 243.971,-44.9984"/>
<polygon fill="black" stroke="black" points="244.438,-48.4729 254.138,-44.2135 243.899,-41.4936 244.438,-48.4729"/>
</g>
<!-- Node0xde77c30 -->
<g id="node10" class="node"><title>Node0xde77c30</title>
<polygon fill="none" stroke="black" points="45,-487.5 45,-523.5 1040,-523.5 1040,-487.5 45,-487.5"/>
<text text-anchor="start" x="53" y="-501.8" font-family="Times,serif" font-size="14.00">if (mbedtls_cipher_update(IntToPtrCastExpr&lt;ptr&gt;(g3), IntToPtrCastExpr&lt;ptr&gt;(a4), a5, v2, IntToPtrCastExpr&lt;ptr&gt;(g7), 0, 0, 0) == 0):</text>
</g>
<!-- Node0x1d0c4700&#45;&gt;Node0xde77c30 -->
<g id="edge10" class="edge"><title>Node0x1d0c4700&#45;&gt;Node0xde77c30</title>
<path fill="none" stroke="black" d="M542.5,-599.287C542.5,-579.989 542.5,-553.614 542.5,-533.916"/>
<polygon fill="black" stroke="black" points="546,-533.747 542.5,-523.747 539,-533.747 546,-533.747"/>
</g>
<!-- Node0xde77c30&#45;&gt;Node0x1d0c4d20 -->
<g id="edge12" class="edge"><title>Node0xde77c30&#45;&gt;Node0x1d0c4d20</title>
<path fill="none" stroke="black" d="M393.435,-487.461C300.128,-472.486 197.5,-446.104 197.5,-402.5 197.5,-402.5 197.5,-402.5 197.5,-206.5 197.5,-127.288 784.885,-118.238 986.511,-117.465"/>
<polygon fill="black" stroke="black" points="986.684,-120.965 996.673,-117.432 986.661,-113.965 986.684,-120.965"/>
<text text-anchor="middle" x="669.5" y="-307.8" font-family="Times,serif" font-size="14.00">mbedtls_cipher_update(IntToPtrCastExpr&lt;ptr&gt;(g3), IntToPtrCastExpr&lt;ptr&gt;(a4), a5, v2, IntToPtrCastExpr&lt;ptr&gt;(g7), 0, 0, 0) != 0</text>
</g>
<!-- Node0xde724b0 -->
<g id="node11" class="node"><title>Node0xde724b0</title>
<polygon fill="none" stroke="black" points="606,-367.5 606,-435.5 1099,-435.5 1099,-367.5 606,-367.5"/>
<text text-anchor="start" x="614" y="-420.3" font-family="Times,serif" font-size="14.00">v3 = (*(IntToPtrCastExpr&lt;ptr&gt;(g7)) + g5)</text>
<text text-anchor="start" x="614" y="-405.3" font-family="Times,serif" font-size="14.00"> g5 = v3</text>
<text text-anchor="start" x="614" y="-390.3" font-family="Times,serif" font-size="14.00"> v4</text>
<text text-anchor="start" x="614" y="-375.3" font-family="Times,serif" font-size="14.00"> mbedtls_cipher_finish(IntToPtrCastExpr&lt;ptr&gt;(g3), v3, &amp;(v4), v2)</text>
</g>
<!-- Node0xde77c30&#45;&gt;Node0xde724b0 -->
<g id="edge11" class="edge"><title>Node0xde77c30&#45;&gt;Node0xde724b0</title>
<path fill="none" stroke="black" d="M494.782,-487.36C477.326,-478.492 464.294,-466.84 475.5,-454 493.785,-433.047 540.821,-420.306 595.719,-412.642"/>
<polygon fill="black" stroke="black" points="596.237,-416.104 605.688,-411.315 595.314,-409.165 596.237,-416.104"/>
<text text-anchor="middle" x="950.5" y="-457.8" font-family="Times,serif" font-size="14.00">mbedtls_cipher_update(IntToPtrCastExpr&lt;ptr&gt;(g3), IntToPtrCastExpr&lt;ptr&gt;(a4), a5, v2, IntToPtrCastExpr&lt;ptr&gt;(g7), 0, 0, 0) == 0</text>
</g>
<!-- Node0x26787b90 -->
<g id="node12" class="node"><title>Node0x26787b90</title>
<polygon fill="none" stroke="black" points="1159.5,-293.5 1159.5,-329.5 1265.5,-329.5 1265.5,-293.5 1159.5,-293.5"/>
<text text-anchor="start" x="1167.5" y="-307.8" font-family="Times,serif" font-size="14.00">if (g1 == 0):</text>
</g>
<!-- Node0xde724b0&#45;&gt;Node0x26787b90 -->
<g id="edge13" class="edge"><title>Node0xde724b0&#45;&gt;Node0x26787b90</title>
<path fill="none" stroke="black" d="M992.358,-367.431C1040.9,-355.8 1095.64,-342.509 1145.5,-330 1146.78,-329.679 1148.07,-329.354 1149.37,-329.024"/>
<polygon fill="black" stroke="black" points="1150.67,-332.307 1159.49,-326.446 1148.94,-325.523 1150.67,-332.307"/>
</g>
<!-- Node0x26787b90&#45;&gt;Node0x1d0c4d20 -->
<g id="edge15" class="edge"><title>Node0x26787b90&#45;&gt;Node0x1d0c4d20</title>
<path fill="none" stroke="black" d="M1159.28,-297.655C1129.1,-287.57 1093.33,-270.349 1072.5,-242 1051.93,-213.999 1049.58,-172.79 1050.75,-145.559"/>
<polygon fill="black" stroke="black" points="1054.25,-145.714 1051.37,-135.517 1047.26,-145.282 1054.25,-145.714"/>
</g>
<!-- Node0x1d0c3400 -->
<g id="node13" class="node"><title>Node0x1d0c3400</title>
<polygon fill="none" stroke="black" points="1082,-173.5 1082,-241.5 1343,-241.5 1343,-173.5 1082,-173.5"/>
<text text-anchor="start" x="1090" y="-226.3" font-family="Times,serif" font-size="14.00">0x806a399:</text>
<text text-anchor="start" x="1090" y="-211.3" font-family="Times,serif" font-size="14.00"> result = v4</text>
<text text-anchor="start" x="1090" y="-196.3" font-family="Times,serif" font-size="14.00"> v5 = IntToPtrCastExpr&lt;ptr&gt;(g7)</text>
<text text-anchor="start" x="1090" y="-181.3" font-family="Times,serif" font-size="14.00"> *(v5) = (*(v5) + result)</text>
</g>
<!-- Node0x26787b90&#45;&gt;Node0x1d0c3400 -->
<g id="edge14" class="edge"><title>Node0x26787b90&#45;&gt;Node0x1d0c3400</title>
<path fill="none" stroke="black" d="M1212.5,-293.197C1212.5,-281.854 1212.5,-266.486 1212.5,-251.954"/>
<polygon fill="black" stroke="black" points="1216,-251.59 1212.5,-241.59 1209,-251.59 1216,-251.59"/>
<text text-anchor="middle" x="1243" y="-263.8" font-family="Times,serif" font-size="14.00">g1 == 0</text>
</g>
<!-- Node0x1d0c3400&#45;&gt;Node0x1d0c4d20 -->
<g id="edge16" class="edge"><title>Node0x1d0c3400&#45;&gt;Node0x1d0c4d20</title>
<path fill="none" stroke="black" d="M1153.29,-173.36C1133.9,-162.502 1112.77,-150.676 1094.97,-140.713"/>
<polygon fill="black" stroke="black" points="1096.43,-137.519 1085.99,-135.688 1093.01,-143.627 1096.43,-137.519"/>
</g>
</g>
</svg>
