<?xml version="1.0" encoding="UTF-8" standalone="no"?>
<!DOCTYPE svg PUBLIC "-//W3C//DTD SVG 1.1//EN"
 "http://www.w3.org/Graphics/SVG/1.1/DTD/svg11.dtd">
<!-- Generated by graphviz version 2.38.0 (20140413.2041)
 -->
<!-- Title: Control&#45;flow graph for function &#39;__restore()&#39;. Pages: 1 -->
<svg width="341pt" height="231pt"
 viewBox="0.00 0.00 341.00 231.00" xmlns="http://www.w3.org/2000/svg" xmlns:xlink="http://www.w3.org/1999/xlink">
<g id="graph0" class="graph" transform="scale(1 1) rotate(0) translate(4 227)">
<title>Control&#45;flow graph for function &#39;__restore()&#39;.</title>
<polygon fill="white" stroke="none" points="-4,4 -4,-227 337,-227 337,4 -4,4"/>
<text text-anchor="middle" x="166.5" y="-7.8" font-family="Times,serif" font-size="14.00">Control&#45;flow graph for function &#39;__restore()&#39;.</text>
<!-- Node0x290ced30 -->
<g id="node1" class="node"><title>Node0x290ced30</title>
<polygon fill="none" stroke="black" points="137,-186.5 137,-222.5 196,-222.5 196,-186.5 137,-186.5"/>
<text text-anchor="start" x="145" y="-200.8" font-family="Times,serif" font-size="14.00">entry:</text>
</g>
<!-- Node0x290d0f50 -->
<g id="node2" class="node"><title>Node0x290d0f50</title>
<polygon fill="none" stroke="black" points="116,-96.5 116,-149.5 217,-149.5 217,-96.5 116,-96.5"/>
<text text-anchor="start" x="124" y="-134.3" font-family="Times,serif" font-size="14.00">0x8077584:</text>
<text text-anchor="start" x="124" y="-119.3" font-family="Times,serif" font-size="14.00"> g1 = 119</text>
<text text-anchor="start" x="124" y="-104.3" font-family="Times,serif" font-size="14.00"> return 119</text>
</g>
<!-- Node0x290ced30&#45;&gt;Node0x290d0f50 -->
<g id="edge1" class="edge"><title>Node0x290ced30&#45;&gt;Node0x290d0f50</title>
<path fill="none" stroke="black" d="M166.5,-186.25C166.5,-178.486 166.5,-169.014 166.5,-159.825"/>
<polygon fill="black" stroke="black" points="170,-159.676 166.5,-149.676 163,-159.676 170,-159.676"/>
</g>
<!-- Node0xb2248b0 -->
<g id="node3" class="node"><title>Node0xb2248b0</title>
<polygon fill="none" stroke="black" points="139.5,-23.5 139.5,-59.5 193.5,-59.5 193.5,-23.5 139.5,-23.5"/>
<text text-anchor="start" x="147.5" y="-37.8" font-family="Times,serif" font-size="14.00">exit:</text>
</g>
<!-- Node0x290d0f50&#45;&gt;Node0xb2248b0 -->
<g id="edge2" class="edge"><title>Node0x290d0f50&#45;&gt;Node0xb2248b0</title>
<path fill="none" stroke="black" d="M166.5,-96.4081C166.5,-87.9823 166.5,-78.5803 166.5,-70.0174"/>
<polygon fill="black" stroke="black" points="170,-69.7564 166.5,-59.7564 163,-69.7565 170,-69.7564"/>
</g>
</g>
</svg>
