<?xml version="1.0" encoding="UTF-8" standalone="no"?>
<!DOCTYPE svg PUBLIC "-//W3C//DTD SVG 1.1//EN"
 "http://www.w3.org/Graphics/SVG/1.1/DTD/svg11.dtd">
<!-- Generated by graphviz version 2.38.0 (20140413.2041)
 -->
<!-- Title: Control&#45;flow graph for function &#39;mbedtls_hmac_drbg_set_prediction_resistance(result, a2)&#39;. Pages: 1 -->
<svg width="680pt" height="248pt"
 viewBox="0.00 0.00 680.00 248.00" xmlns="http://www.w3.org/2000/svg" xmlns:xlink="http://www.w3.org/1999/xlink">
<g id="graph0" class="graph" transform="scale(1 1) rotate(0) translate(4 244)">
<title>Control&#45;flow graph for function &#39;mbedtls_hmac_drbg_set_prediction_resistance(result, a2)&#39;.</title>
<polygon fill="white" stroke="none" points="-4,4 -4,-244 676,-244 676,4 -4,4"/>
<text text-anchor="middle" x="336" y="-7.8" font-family="Times,serif" font-size="14.00">Control&#45;flow graph for function &#39;mbedtls_hmac_drbg_set_prediction_resistance(result, a2)&#39;.</text>
<!-- Node0x2ac9b600 -->
<g id="node1" class="node"><title>Node0x2ac9b600</title>
<polygon fill="none" stroke="black" points="304.5,-186.5 304.5,-239.5 367.5,-239.5 367.5,-186.5 304.5,-186.5"/>
<text text-anchor="start" x="312.5" y="-224.3" font-family="Times,serif" font-size="14.00">entry:</text>
<text text-anchor="start" x="312.5" y="-209.3" font-family="Times,serif" font-size="14.00"> result</text>
<text text-anchor="start" x="312.5" y="-194.3" font-family="Times,serif" font-size="14.00"> a2</text>
</g>
<!-- Node0xef4c760 -->
<g id="node2" class="node"><title>Node0xef4c760</title>
<polygon fill="none" stroke="black" points="159.5,-96.5 159.5,-149.5 512.5,-149.5 512.5,-96.5 159.5,-96.5"/>
<text text-anchor="start" x="167.5" y="-134.3" font-family="Times,serif" font-size="14.00">0x8061810:</text>
<text text-anchor="start" x="167.5" y="-119.3" font-family="Times,serif" font-size="14.00"> *(IntToPtrCastExpr&lt;ptr&gt;((result + 84))) = a2</text>
<text text-anchor="start" x="167.5" y="-104.3" font-family="Times,serif" font-size="14.00"> return result</text>
</g>
<!-- Node0x2ac9b600&#45;&gt;Node0xef4c760 -->
<g id="edge1" class="edge"><title>Node0x2ac9b600&#45;&gt;Node0xef4c760</title>
<path fill="none" stroke="black" d="M336,-186.073C336,-177.838 336,-168.58 336,-159.777"/>
<polygon fill="black" stroke="black" points="339.5,-159.742 336,-149.742 332.5,-159.742 339.5,-159.742"/>
</g>
<!-- Node0xe8a8860 -->
<g id="node3" class="node"><title>Node0xe8a8860</title>
<polygon fill="none" stroke="black" points="309,-23.5 309,-59.5 363,-59.5 363,-23.5 309,-23.5"/>
<text text-anchor="start" x="317" y="-37.8" font-family="Times,serif" font-size="14.00">exit:</text>
</g>
<!-- Node0xef4c760&#45;&gt;Node0xe8a8860 -->
<g id="edge2" class="edge"><title>Node0xef4c760&#45;&gt;Node0xe8a8860</title>
<path fill="none" stroke="black" d="M336,-96.4081C336,-87.9823 336,-78.5803 336,-70.0174"/>
<polygon fill="black" stroke="black" points="339.5,-69.7564 336,-59.7564 332.5,-69.7565 339.5,-69.7564"/>
</g>
</g>
</svg>
