<?xml version="1.0" encoding="UTF-8" standalone="no"?>
<!DOCTYPE svg PUBLIC "-//W3C//DTD SVG 1.1//EN"
 "http://www.w3.org/Graphics/SVG/1.1/DTD/svg11.dtd">
<!-- Generated by graphviz version 2.38.0 (20140413.2041)
 -->
<!-- Title: Control&#45;flow graph for function &#39;mbedtls_ecdsa_write_signature_det(a1, a2, a3, a4, a5, a6)&#39;. Pages: 1 -->
<svg width="841pt" height="338pt"
 viewBox="0.00 0.00 841.00 338.00" xmlns="http://www.w3.org/2000/svg" xmlns:xlink="http://www.w3.org/1999/xlink">
<g id="graph0" class="graph" transform="scale(1 1) rotate(0) translate(4 334)">
<title>Control&#45;flow graph for function &#39;mbedtls_ecdsa_write_signature_det(a1, a2, a3, a4, a5, a6)&#39;.</title>
<polygon fill="white" stroke="none" points="-4,4 -4,-334 837,-334 837,4 -4,4"/>
<text text-anchor="middle" x="416.5" y="-7.8" font-family="Times,serif" font-size="14.00">Control&#45;flow graph for function &#39;mbedtls_ecdsa_write_signature_det(a1, a2, a3, a4, a5, a6)&#39;.</text>
<!-- Node0x1c780f60 -->
<g id="node1" class="node"><title>Node0x1c780f60</title>
<polygon fill="none" stroke="black" points="387,-216.5 387,-329.5 446,-329.5 446,-216.5 387,-216.5"/>
<text text-anchor="start" x="395" y="-314.3" font-family="Times,serif" font-size="14.00">entry:</text>
<text text-anchor="start" x="395" y="-299.3" font-family="Times,serif" font-size="14.00"> a1</text>
<text text-anchor="start" x="395" y="-284.3" font-family="Times,serif" font-size="14.00"> a2</text>
<text text-anchor="start" x="395" y="-269.3" font-family="Times,serif" font-size="14.00"> a3</text>
<text text-anchor="start" x="395" y="-254.3" font-family="Times,serif" font-size="14.00"> a4</text>
<text text-anchor="start" x="395" y="-239.3" font-family="Times,serif" font-size="14.00"> a5</text>
<text text-anchor="start" x="395" y="-224.3" font-family="Times,serif" font-size="14.00"> a6</text>
</g>
<!-- Node0x9688380 -->
<g id="node2" class="node"><title>Node0x9688380</title>
<polygon fill="none" stroke="black" points="0,-96.5 0,-179.5 833,-179.5 833,-96.5 0,-96.5"/>
<text text-anchor="start" x="8" y="-164.3" font-family="Times,serif" font-size="14.00">result = mbedtls_ecdsa_write_signature(IntToPtrCastExpr&lt;ptr&gt;(a1), a6, a2, a3, a4, IntToPtrCastExpr&lt;ptr&gt;(a5))</text>
<text text-anchor="start" x="8" y="-149.3" font-family="Times,serif" font-size="14.00"> g1 = result</text>
<text text-anchor="start" x="8" y="-134.3" font-family="Times,serif" font-size="14.00"> v1</text>
<text text-anchor="start" x="8" y="-119.3" font-family="Times,serif" font-size="14.00"> g2 = v1</text>
<text text-anchor="start" x="8" y="-104.3" font-family="Times,serif" font-size="14.00"> return result</text>
</g>
<!-- Node0x1c780f60&#45;&gt;Node0x9688380 -->
<g id="edge1" class="edge"><title>Node0x1c780f60&#45;&gt;Node0x9688380</title>
<path fill="none" stroke="black" d="M416.5,-216.367C416.5,-207.662 416.5,-198.703 416.5,-190.106"/>
<polygon fill="black" stroke="black" points="420,-189.842 416.5,-179.842 413,-189.842 420,-189.842"/>
</g>
<!-- Node0x8276170 -->
<g id="node3" class="node"><title>Node0x8276170</title>
<polygon fill="none" stroke="black" points="389.5,-23.5 389.5,-59.5 443.5,-59.5 443.5,-23.5 389.5,-23.5"/>
<text text-anchor="start" x="397.5" y="-37.8" font-family="Times,serif" font-size="14.00">exit:</text>
</g>
<!-- Node0x9688380&#45;&gt;Node0x8276170 -->
<g id="edge2" class="edge"><title>Node0x9688380&#45;&gt;Node0x8276170</title>
<path fill="none" stroke="black" d="M416.5,-96.3751C416.5,-87.4706 416.5,-78.246 416.5,-70"/>
<polygon fill="black" stroke="black" points="420,-69.8327 416.5,-59.8328 413,-69.8328 420,-69.8327"/>
</g>
</g>
</svg>
