<?xml version="1.0" encoding="UTF-8" standalone="no"?>
<!DOCTYPE svg PUBLIC "-//W3C//DTD SVG 1.1//EN"
 "http://www.w3.org/Graphics/SVG/1.1/DTD/svg11.dtd">
<!-- Generated by graphviz version 2.38.0 (20140413.2041)
 -->
<!-- Title: Control&#45;flow graph for function &#39;ripemd160_clone_wrap(a1)&#39;. Pages: 1 -->
<svg width="664pt" height="263pt"
 viewBox="0.00 0.00 664.00 263.00" xmlns="http://www.w3.org/2000/svg" xmlns:xlink="http://www.w3.org/1999/xlink">
<g id="graph0" class="graph" transform="scale(1 1) rotate(0) translate(4 259)">
<title>Control&#45;flow graph for function &#39;ripemd160_clone_wrap(a1)&#39;.</title>
<polygon fill="white" stroke="none" points="-4,4 -4,-259 660,-259 660,4 -4,4"/>
<text text-anchor="middle" x="328" y="-7.8" font-family="Times,serif" font-size="14.00">Control&#45;flow graph for function &#39;ripemd160_clone_wrap(a1)&#39;.</text>
<!-- Node0x15ae9c50 -->
<g id="node1" class="node"><title>Node0x15ae9c50</title>
<polygon fill="none" stroke="black" points="298.5,-216.5 298.5,-254.5 357.5,-254.5 357.5,-216.5 298.5,-216.5"/>
<text text-anchor="start" x="306.5" y="-239.3" font-family="Times,serif" font-size="14.00">entry:</text>
<text text-anchor="start" x="306.5" y="-224.3" font-family="Times,serif" font-size="14.00"> a1</text>
</g>
<!-- Node0x15aea2e0 -->
<g id="node2" class="node"><title>Node0x15aea2e0</title>
<polygon fill="none" stroke="black" points="0,-96.5 0,-179.5 656,-179.5 656,-96.5 0,-96.5"/>
<text text-anchor="start" x="8" y="-164.3" font-family="Times,serif" font-size="14.00">0x8062da0:</text>
<text text-anchor="start" x="8" y="-149.3" font-family="Times,serif" font-size="14.00"> v1</text>
<text text-anchor="start" x="8" y="-134.3" font-family="Times,serif" font-size="14.00"> result</text>
<text text-anchor="start" x="8" y="-119.3" font-family="Times,serif" font-size="14.00"> mbedtls_ripemd160_clone(IntToPtrCastExpr&lt;ptr&gt;(result), IntToPtrCastExpr&lt;ptr&gt;(v1))</text>
<text text-anchor="start" x="8" y="-104.3" font-family="Times,serif" font-size="14.00"> return result</text>
</g>
<!-- Node0x15ae9c50&#45;&gt;Node0x15aea2e0 -->
<g id="edge1" class="edge"><title>Node0x15ae9c50&#45;&gt;Node0x15aea2e0</title>
<path fill="none" stroke="black" d="M328,-216.087C328,-208.444 328,-199.165 328,-189.73"/>
<polygon fill="black" stroke="black" points="331.5,-189.501 328,-179.501 324.5,-189.501 331.5,-189.501"/>
</g>
<!-- Node0x15aea260 -->
<g id="node3" class="node"><title>Node0x15aea260</title>
<polygon fill="none" stroke="black" points="301,-23.5 301,-59.5 355,-59.5 355,-23.5 301,-23.5"/>
<text text-anchor="start" x="309" y="-37.8" font-family="Times,serif" font-size="14.00">exit:</text>
</g>
<!-- Node0x15aea2e0&#45;&gt;Node0x15aea260 -->
<g id="edge2" class="edge"><title>Node0x15aea2e0&#45;&gt;Node0x15aea260</title>
<path fill="none" stroke="black" d="M328,-96.3751C328,-87.4706 328,-78.246 328,-70"/>
<polygon fill="black" stroke="black" points="331.5,-69.8327 328,-59.8328 324.5,-69.8328 331.5,-69.8327"/>
</g>
</g>
</svg>
