<?xml version="1.0" encoding="UTF-8" standalone="no"?>
<!DOCTYPE svg PUBLIC "-//W3C//DTD SVG 1.1//EN"
 "http://www.w3.org/Graphics/SVG/1.1/DTD/svg11.dtd">
<!-- Generated by graphviz version 2.38.0 (20140413.2041)
 -->
<!-- Title: Control&#45;flow graph for function &#39;mbedtls_hmac_drbg_init(*a1)&#39;. Pages: 1 -->
<svg width="476pt" height="248pt"
 viewBox="0.00 0.00 476.00 248.00" xmlns="http://www.w3.org/2000/svg" xmlns:xlink="http://www.w3.org/1999/xlink">
<g id="graph0" class="graph" transform="scale(1 1) rotate(0) translate(4 244)">
<title>Control&#45;flow graph for function &#39;mbedtls_hmac_drbg_init(*a1)&#39;.</title>
<polygon fill="white" stroke="none" points="-4,4 -4,-244 472,-244 472,4 -4,4"/>
<text text-anchor="middle" x="234" y="-7.8" font-family="Times,serif" font-size="14.00">Control&#45;flow graph for function &#39;mbedtls_hmac_drbg_init(*a1)&#39;.</text>
<!-- Node0x1816e1b0 -->
<g id="node1" class="node"><title>Node0x1816e1b0</title>
<polygon fill="none" stroke="black" points="204.5,-201.5 204.5,-239.5 263.5,-239.5 263.5,-201.5 204.5,-201.5"/>
<text text-anchor="start" x="212.5" y="-224.3" font-family="Times,serif" font-size="14.00">entry:</text>
<text text-anchor="start" x="212.5" y="-209.3" font-family="Times,serif" font-size="14.00"> a1</text>
</g>
<!-- Node0x1816e5d0 -->
<g id="node2" class="node"><title>Node0x1816e5d0</title>
<polygon fill="none" stroke="black" points="39.5,-96.5 39.5,-164.5 428.5,-164.5 428.5,-96.5 39.5,-96.5"/>
<text text-anchor="start" x="47.5" y="-149.3" font-family="Times,serif" font-size="14.00">0x8061f20:</text>
<text text-anchor="start" x="47.5" y="-134.3" font-family="Times,serif" font-size="14.00"> g6 = PtrToIntCastExpr&lt;int32&gt;(a1)</text>
<text text-anchor="start" x="47.5" y="-119.3" font-family="Times,serif" font-size="14.00"> g4 = PtrToIntCastExpr&lt;int32&gt;(memset(a1, 0, 25))</text>
<text text-anchor="start" x="47.5" y="-104.3" font-family="Times,serif" font-size="14.00"> return 0</text>
</g>
<!-- Node0x1816e1b0&#45;&gt;Node0x1816e5d0 -->
<g id="edge1" class="edge"><title>Node0x1816e1b0&#45;&gt;Node0x1816e5d0</title>
<path fill="none" stroke="black" d="M234,-201.266C234,-193.502 234,-184.086 234,-174.717"/>
<polygon fill="black" stroke="black" points="237.5,-174.649 234,-164.65 230.5,-174.65 237.5,-174.649"/>
</g>
<!-- Node0x1816e550 -->
<g id="node3" class="node"><title>Node0x1816e550</title>
<polygon fill="none" stroke="black" points="207,-23.5 207,-59.5 261,-59.5 261,-23.5 207,-23.5"/>
<text text-anchor="start" x="215" y="-37.8" font-family="Times,serif" font-size="14.00">exit:</text>
</g>
<!-- Node0x1816e5d0&#45;&gt;Node0x1816e550 -->
<g id="edge2" class="edge"><title>Node0x1816e5d0&#45;&gt;Node0x1816e550</title>
<path fill="none" stroke="black" d="M234,-96.1123C234,-87.3522 234,-78.0128 234,-69.6246"/>
<polygon fill="black" stroke="black" points="237.5,-69.6235 234,-59.6235 230.5,-69.6235 237.5,-69.6235"/>
</g>
</g>
</svg>
