<?xml version="1.0" encoding="UTF-8" standalone="no"?>
<!DOCTYPE svg PUBLIC "-//W3C//DTD SVG 1.1//EN"
 "http://www.w3.org/Graphics/SVG/1.1/DTD/svg11.dtd">
<!-- Generated by graphviz version 2.38.0 (20140413.2041)
 -->
<!-- Title: Control&#45;flow graph for function &#39;mbedtls_ripemd160_update(*a1, *a2, a3)&#39;. Pages: 1 -->
<svg width="1440pt" height="1977pt"
 viewBox="0.00 0.00 1440.00 1977.00" xmlns="http://www.w3.org/2000/svg" xmlns:xlink="http://www.w3.org/1999/xlink">
<g id="graph0" class="graph" transform="scale(1 1) rotate(0) translate(4 1973)">
<title>Control&#45;flow graph for function &#39;mbedtls_ripemd160_update(*a1, *a2, a3)&#39;.</title>
<polygon fill="white" stroke="none" points="-4,4 -4,-1973 1436,-1973 1436,4 -4,4"/>
<text text-anchor="middle" x="716" y="-7.8" font-family="Times,serif" font-size="14.00">Control&#45;flow graph for function &#39;mbedtls_ripemd160_update(*a1, *a2, a3)&#39;.</text>
<!-- Node0x2af022b0 -->
<g id="node1" class="node"><title>Node0x2af022b0</title>
<polygon fill="none" stroke="black" points="109,-1900.5 109,-1968.5 168,-1968.5 168,-1900.5 109,-1900.5"/>
<text text-anchor="start" x="117" y="-1953.3" font-family="Times,serif" font-size="14.00">entry:</text>
<text text-anchor="start" x="117" y="-1938.3" font-family="Times,serif" font-size="14.00"> a1</text>
<text text-anchor="start" x="117" y="-1923.3" font-family="Times,serif" font-size="14.00"> a2</text>
<text text-anchor="start" x="117" y="-1908.3" font-family="Times,serif" font-size="14.00"> a3</text>
</g>
<!-- Node0x2af00710 -->
<g id="node2" class="node"><title>Node0x2af00710</title>
<polygon fill="none" stroke="black" points="0,-1764.5 0,-1862.5 277,-1862.5 277,-1764.5 0,-1764.5"/>
<text text-anchor="start" x="8" y="-1847.3" font-family="Times,serif" font-size="14.00">v1 = g5</text>
<text text-anchor="start" x="8" y="-1832.3" font-family="Times,serif" font-size="14.00"> v2 = g7</text>
<text text-anchor="start" x="8" y="-1817.3" font-family="Times,serif" font-size="14.00"> v3 = g3</text>
<text text-anchor="start" x="8" y="-1802.3" font-family="Times,serif" font-size="14.00"> g3 = a3</text>
<text text-anchor="start" x="8" y="-1787.3" font-family="Times,serif" font-size="14.00"> g7 = PtrToIntCastExpr&lt;int32&gt;(a1)</text>
<text text-anchor="start" x="8" y="-1772.3" font-family="Times,serif" font-size="14.00"> g5 = PtrToIntCastExpr&lt;int32&gt;(a2)</text>
</g>
<!-- Node0x2af022b0&#45;&gt;Node0x2af00710 -->
<g id="edge1" class="edge"><title>Node0x2af022b0&#45;&gt;Node0x2af00710</title>
<path fill="none" stroke="black" d="M138.5,-1900.35C138.5,-1891.77 138.5,-1882.26 138.5,-1872.8"/>
<polygon fill="black" stroke="black" points="142,-1872.59 138.5,-1862.59 135,-1872.59 142,-1872.59"/>
</g>
<!-- Node0xde9fe80 -->
<g id="node3" class="node"><title>Node0xde9fe80</title>
<polygon fill="none" stroke="black" points="86,-1690.5 86,-1726.5 191,-1726.5 191,-1690.5 86,-1690.5"/>
<text text-anchor="start" x="94" y="-1704.8" font-family="Times,serif" font-size="14.00">if (a3 == 0):</text>
</g>
<!-- Node0x2af00710&#45;&gt;Node0xde9fe80 -->
<g id="edge2" class="edge"><title>Node0x2af00710&#45;&gt;Node0xde9fe80</title>
<path fill="none" stroke="black" d="M138.5,-1764.32C138.5,-1754.89 138.5,-1745.32 138.5,-1736.87"/>
<polygon fill="black" stroke="black" points="142,-1736.86 138.5,-1726.86 135,-1736.86 142,-1736.86"/>
</g>
<!-- Node0x176b72c0 -->
<g id="node4" class="node"><title>Node0x176b72c0</title>
<polygon fill="none" stroke="black" points="31,-1438.5 31,-1521.5 132,-1521.5 132,-1438.5 31,-1438.5"/>
<text text-anchor="start" x="39" y="-1506.3" font-family="Times,serif" font-size="14.00">0x8066c44:</text>
<text text-anchor="start" x="39" y="-1491.3" font-family="Times,serif" font-size="14.00"> g3 = v3</text>
<text text-anchor="start" x="39" y="-1476.3" font-family="Times,serif" font-size="14.00"> g7 = v2</text>
<text text-anchor="start" x="39" y="-1461.3" font-family="Times,serif" font-size="14.00"> g5 = v1</text>
<text text-anchor="start" x="39" y="-1446.3" font-family="Times,serif" font-size="14.00"> return g1</text>
</g>
<!-- Node0xde9fe80&#45;&gt;Node0x176b72c0 -->
<g id="edge3" class="edge"><title>Node0xde9fe80&#45;&gt;Node0x176b72c0</title>
<path fill="none" stroke="black" d="M117.943,-1690.47C112.736,-1685.1 107.714,-1678.79 104.5,-1672 83.5937,-1627.85 79.0691,-1571.8 79.0313,-1531.86"/>
<polygon fill="black" stroke="black" points="82.5315,-1531.84 79.1156,-1521.81 75.5317,-1531.78 82.5315,-1531.84"/>
<text text-anchor="middle" x="134.5" y="-1660.8" font-family="Times,serif" font-size="14.00">a3 == 0</text>
</g>
<!-- Node0x176b7200 -->
<g id="node5" class="node"><title>Node0x176b7200</title>
<polygon fill="none" stroke="black" points="110,-1540.5 110,-1638.5 349,-1638.5 349,-1540.5 110,-1540.5"/>
<text text-anchor="start" x="118" y="-1623.3" font-family="Times,serif" font-size="14.00">v4 = *(BitCastExpr&lt;ptr&gt;(a1))</text>
<text text-anchor="start" x="118" y="-1608.3" font-family="Times,serif" font-size="14.00"> v5 = (v4 % 64)</text>
<text text-anchor="start" x="118" y="-1593.3" font-family="Times,serif" font-size="14.00"> v6 = (v4 + a3)</text>
<text text-anchor="start" x="118" y="-1578.3" font-family="Times,serif" font-size="14.00"> g1 = v6</text>
<text text-anchor="start" x="118" y="-1563.3" font-family="Times,serif" font-size="14.00"> v7 = (64 &#45; v5)</text>
<text text-anchor="start" x="118" y="-1548.3" font-family="Times,serif" font-size="14.00"> *(BitCastExpr&lt;ptr&gt;(a1)) = v6</text>
</g>
<!-- Node0xde9fe80&#45;&gt;Node0x176b7200 -->
<g id="edge4" class="edge"><title>Node0xde9fe80&#45;&gt;Node0x176b7200</title>
<path fill="none" stroke="black" d="M151.732,-1690.49C160.757,-1678.88 173.272,-1662.79 185.627,-1646.91"/>
<polygon fill="black" stroke="black" points="188.677,-1648.69 192.053,-1638.65 183.151,-1644.39 188.677,-1648.69"/>
<text text-anchor="middle" x="203.5" y="-1660.8" font-family="Times,serif" font-size="14.00">a3 != 0</text>
</g>
<!-- Node0x2af004a0 -->
<g id="node6" class="node"><title>Node0x2af004a0</title>
<polygon fill="none" stroke="black" points="155.5,-23.5 155.5,-59.5 209.5,-59.5 209.5,-23.5 155.5,-23.5"/>
<text text-anchor="start" x="163.5" y="-37.8" font-family="Times,serif" font-size="14.00">exit:</text>
</g>
<!-- Node0x176b72c0&#45;&gt;Node0x2af004a0 -->
<g id="edge5" class="edge"><title>Node0x176b72c0&#45;&gt;Node0x2af004a0</title>
<path fill="none" stroke="black" d="M81.5,-1438.28C81.5,-1414.93 81.5,-1385.07 81.5,-1358.5 81.5,-1358.5 81.5,-1358.5 81.5,-130.5 81.5,-95.0343 117.339,-70.5953 146.32,-56.6309"/>
<polygon fill="black" stroke="black" points="147.794,-59.8052 155.434,-52.4643 144.884,-53.4389 147.794,-59.8052"/>
</g>
<!-- Node0x2aeff690 -->
<g id="node7" class="node"><title>Node0x2aeff690</title>
<polygon fill="none" stroke="black" points="179,-1383.5 179,-1419.5 280,-1419.5 280,-1383.5 179,-1383.5"/>
<text text-anchor="start" x="187" y="-1397.8" font-family="Times,serif" font-size="14.00">if (v6 &lt; a3):</text>
</g>
<!-- Node0x176b7200&#45;&gt;Node0x2aeff690 -->
<g id="edge6" class="edge"><title>Node0x176b7200&#45;&gt;Node0x2aeff690</title>
<path fill="none" stroke="black" d="M229.5,-1540.12C229.5,-1504.99 229.5,-1458.74 229.5,-1429.81"/>
<polygon fill="black" stroke="black" points="233,-1429.63 229.5,-1419.63 226,-1429.63 233,-1429.63"/>
</g>
<!-- Node0x176b7340 -->
<g id="node8" class="node"><title>Node0x176b7340</title>
<polygon fill="none" stroke="black" points="292,-1293.5 292,-1331.5 589,-1331.5 589,-1293.5 292,-1293.5"/>
<text text-anchor="start" x="300" y="-1316.3" font-family="Times,serif" font-size="14.00">v8 = IntToPtrCastExpr&lt;ptr&gt;((g7 + 4))</text>
<text text-anchor="start" x="300" y="-1301.3" font-family="Times,serif" font-size="14.00"> *(v8) = (*(v8) + 1)</text>
</g>
<!-- Node0x2aeff690&#45;&gt;Node0x176b7340 -->
<g id="edge7" class="edge"><title>Node0x2aeff690&#45;&gt;Node0x176b7340</title>
<path fill="none" stroke="black" d="M270.935,-1383.42C304.207,-1369.7 351.161,-1350.34 387.225,-1335.47"/>
<polygon fill="black" stroke="black" points="388.705,-1338.64 396.616,-1331.59 386.036,-1332.17 388.705,-1338.64"/>
<text text-anchor="middle" x="376.5" y="-1353.8" font-family="Times,serif" font-size="14.00">v6 &lt; a3</text>
</g>
<!-- Node0x176b75c0 -->
<g id="node9" class="node"><title>Node0x176b75c0</title>
<polygon fill="none" stroke="black" points="366.5,-1202.5 366.5,-1255.5 452.5,-1255.5 452.5,-1202.5 366.5,-1202.5"/>
<text text-anchor="start" x="374.5" y="-1240.3" font-family="Times,serif" font-size="14.00">v9 = g3</text>
<text text-anchor="start" x="374.5" y="-1225.3" font-family="Times,serif" font-size="14.00"> v10 = v9</text>
<text text-anchor="start" x="374.5" y="-1210.3" font-family="Times,serif" font-size="14.00"> v11</text>
</g>
<!-- Node0x2aeff690&#45;&gt;Node0x176b75c0 -->
<g id="edge8" class="edge"><title>Node0x2aeff690&#45;&gt;Node0x176b75c0</title>
<path fill="none" stroke="black" d="M220.303,-1383.42C209.392,-1360.57 194.983,-1319.82 214.5,-1293 246.615,-1248.87 310.259,-1235.01 356.115,-1230.98"/>
<polygon fill="black" stroke="black" points="356.481,-1234.47 366.193,-1230.23 355.959,-1227.49 356.481,-1234.47"/>
<text text-anchor="middle" x="248.5" y="-1308.8" font-family="Times,serif" font-size="14.00">v6 &gt;= a3</text>
</g>
<!-- Node0x176b7340&#45;&gt;Node0x176b75c0 -->
<g id="edge9" class="edge"><title>Node0x176b7340&#45;&gt;Node0x176b75c0</title>
<path fill="none" stroke="black" d="M433.62,-1293.41C430.463,-1285.11 426.606,-1274.97 422.91,-1265.26"/>
<polygon fill="black" stroke="black" points="426.127,-1263.87 419.301,-1255.77 419.585,-1266.36 426.127,-1263.87"/>
</g>
<!-- Node0x176b76c0 -->
<g id="node10" class="node"><title>Node0x176b76c0</title>
<polygon fill="none" stroke="black" points="353,-1128.5 353,-1164.5 466,-1164.5 466,-1128.5 353,-1128.5"/>
<text text-anchor="start" x="361" y="-1142.8" font-family="Times,serif" font-size="14.00">if (v9 &gt;= v7):</text>
</g>
<!-- Node0x176b75c0&#45;&gt;Node0x176b76c0 -->
<g id="edge10" class="edge"><title>Node0x176b75c0&#45;&gt;Node0x176b76c0</title>
<path fill="none" stroke="black" d="M409.5,-1202.09C409.5,-1193.46 409.5,-1183.82 409.5,-1175.07"/>
<polygon fill="black" stroke="black" points="413,-1174.97 409.5,-1164.97 406,-1174.97 413,-1174.97"/>
</g>
<!-- Node0xdea24a0 -->
<g id="node11" class="node"><title>Node0xdea24a0</title>
<polygon fill="none" stroke="black" points="874,-1038.5 874,-1076.5 975,-1076.5 975,-1038.5 874,-1038.5"/>
<text text-anchor="start" x="882" y="-1061.3" font-family="Times,serif" font-size="14.00">0x8066c70:</text>
<text text-anchor="start" x="882" y="-1046.3" font-family="Times,serif" font-size="14.00"> g1 = v5</text>
</g>
<!-- Node0x176b76c0&#45;&gt;Node0xdea24a0 -->
<g id="edge11" class="edge"><title>Node0x176b76c0&#45;&gt;Node0xdea24a0</title>
<path fill="none" stroke="black" d="M466.087,-1135.94C563.851,-1119.43 763.529,-1085.69 863.964,-1068.73"/>
<polygon fill="black" stroke="black" points="864.676,-1072.16 873.953,-1067.04 863.51,-1065.25 864.676,-1072.16"/>
<text text-anchor="middle" x="732.5" y="-1098.8" font-family="Times,serif" font-size="14.00">v9 &gt;= v7</text>
</g>
<!-- Node0x176b7260 -->
<g id="node12" class="node"><title>Node0x176b7260</title>
<polygon fill="none" stroke="black" points="328.5,-706.5 328.5,-744.5 444.5,-744.5 444.5,-706.5 328.5,-706.5"/>
<text text-anchor="start" x="336.5" y="-729.3" font-family="Times,serif" font-size="14.00">0x8066c09:</text>
<text text-anchor="start" x="336.5" y="-714.3" font-family="Times,serif" font-size="14.00"> if (v10 &lt; 64):</text>
</g>
<!-- Node0x176b76c0&#45;&gt;Node0x176b7260 -->
<g id="edge12" class="edge"><title>Node0x176b76c0&#45;&gt;Node0x176b7260</title>
<path fill="none" stroke="black" d="M388.865,-1128.46C371.851,-1112.38 350.5,-1086.6 350.5,-1058.5 350.5,-1058.5 350.5,-1058.5 350.5,-845.5 350.5,-813.015 362.942,-777.597 373.197,-753.922"/>
<polygon fill="black" stroke="black" points="376.508,-755.093 377.416,-744.537 370.123,-752.223 376.508,-755.093"/>
<text text-anchor="middle" x="378.5" y="-977.8" font-family="Times,serif" font-size="14.00">v9 &lt; v7</text>
</g>
<!-- Node0xdea2540 -->
<g id="node13" class="node"><title>Node0xdea2540</title>
<polygon fill="none" stroke="black" points="872,-962.5 872,-1000.5 977,-1000.5 977,-962.5 872,-962.5"/>
<text text-anchor="start" x="880" y="-985.3" font-family="Times,serif" font-size="14.00">if (v5 == 0):</text>
<text text-anchor="start" x="880" y="-970.3" font-family="Times,serif" font-size="14.00"> else:</text>
</g>
<!-- Node0xdea24a0&#45;&gt;Node0xdea2540 -->
<g id="edge13" class="edge"><title>Node0xdea24a0&#45;&gt;Node0xdea2540</title>
<path fill="none" stroke="black" d="M924.5,-1038.21C924.5,-1029.96 924.5,-1020.04 924.5,-1010.86"/>
<polygon fill="black" stroke="black" points="928,-1010.58 924.5,-1000.58 921,-1010.58 928,-1010.58"/>
</g>
<!-- Node0x205b06b0 -->
<g id="node14" class="node"><title>Node0x205b06b0</title>
<polygon fill="none" stroke="black" points="494,-616.5 494,-654.5 631,-654.5 631,-616.5 494,-616.5"/>
<text text-anchor="start" x="502" y="-639.3" font-family="Times,serif" font-size="14.00">v11 = v10</text>
<text text-anchor="start" x="502" y="-624.3" font-family="Times,serif" font-size="14.00"> goto 0x8066c40</text>
</g>
<!-- Node0x176b7260&#45;&gt;Node0x205b06b0 -->
<g id="edge14" class="edge"><title>Node0x176b7260&#45;&gt;Node0x205b06b0</title>
<path fill="none" stroke="black" d="M428.947,-706.403C441.759,-700.727 455.794,-694.295 468.5,-688 486.367,-679.148 505.746,-668.683 522.241,-659.507"/>
<polygon fill="black" stroke="black" points="524.063,-662.498 531.08,-654.56 520.645,-656.389 524.063,-662.498"/>
<text text-anchor="middle" x="530.5" y="-676.8" font-family="Times,serif" font-size="14.00">v10 &lt; 64</text>
</g>
<!-- Node0x176b6a30 -->
<g id="node15" class="node"><title>Node0x176b6a30</title>
<polygon fill="none" stroke="black" points="321,-617.5 321,-653.5 452,-653.5 452,-617.5 321,-617.5"/>
<text text-anchor="start" x="329" y="-631.8" font-family="Times,serif" font-size="14.00">goto 0x8066c0e</text>
</g>
<!-- Node0x176b7260&#45;&gt;Node0x176b6a30 -->
<g id="edge15" class="edge"><title>Node0x176b7260&#45;&gt;Node0x176b6a30</title>
<path fill="none" stroke="black" d="M386.5,-706.266C386.5,-694.031 386.5,-677.692 386.5,-663.902"/>
<polygon fill="black" stroke="black" points="390,-663.516 386.5,-653.516 383,-663.516 390,-663.516"/>
<text text-anchor="middle" x="425.5" y="-676.8" font-family="Times,serif" font-size="14.00">v10 &gt;= 64</text>
</g>
<!-- Node0x205b07d0 -->
<g id="node16" class="node"><title>Node0x205b07d0</title>
<polygon fill="none" stroke="black" points="985,-820 985,-873 1086,-873 1086,-820 985,-820"/>
<text text-anchor="start" x="993" y="-857.8" font-family="Times,serif" font-size="14.00">0x8066c70:</text>
<text text-anchor="start" x="993" y="-842.8" font-family="Times,serif" font-size="14.00"> v10 = g3</text>
<text text-anchor="start" x="993" y="-827.8" font-family="Times,serif" font-size="14.00"> v5 = 0</text>
</g>
<!-- Node0xdea2540&#45;&gt;Node0x205b07d0 -->
<g id="edge16" class="edge"><title>Node0xdea2540&#45;&gt;Node0x205b07d0</title>
<path fill="none" stroke="black" d="M939.701,-962.286C957.135,-941.396 986.08,-906.715 1007.6,-880.931"/>
<polygon fill="black" stroke="black" points="1010.3,-883.16 1014.02,-873.24 1004.92,-878.675 1010.3,-883.16"/>
<text text-anchor="middle" x="997.5" y="-932.8" font-family="Times,serif" font-size="14.00">v5 == 0</text>
</g>
<!-- Node0x205b0850 -->
<g id="node17" class="node"><title>Node0x205b0850</title>
<polygon fill="none" stroke="black" points="378.5,-782.5 378.5,-910.5 966.5,-910.5 966.5,-782.5 378.5,-782.5"/>
<text text-anchor="start" x="386.5" y="-895.3" font-family="Times,serif" font-size="14.00">v12 = (g7 + 28)</text>
<text text-anchor="start" x="386.5" y="-880.3" font-family="Times,serif" font-size="14.00"> memcpy(IntToPtrCastExpr&lt;ptr&gt;((v12 + v5)), IntToPtrCastExpr&lt;ptr&gt;(g5), v7)</text>
<text text-anchor="start" x="386.5" y="-865.3" font-family="Times,serif" font-size="14.00"> g1 = mbedtls_ripemd160_process(g7, IntToPtrCastExpr&lt;ptr&gt;(v12))</text>
<text text-anchor="start" x="386.5" y="-850.3" font-family="Times,serif" font-size="14.00"> g5 = (g5 + v7)</text>
<text text-anchor="start" x="386.5" y="-835.3" font-family="Times,serif" font-size="14.00"> v13 = (g3 &#45; v7)</text>
<text text-anchor="start" x="386.5" y="-820.3" font-family="Times,serif" font-size="14.00"> g3 = v13</text>
<text text-anchor="start" x="386.5" y="-805.3" font-family="Times,serif" font-size="14.00"> v10 = v13</text>
<text text-anchor="start" x="386.5" y="-790.3" font-family="Times,serif" font-size="14.00"> v5 = 0</text>
</g>
<!-- Node0xdea2540&#45;&gt;Node0x205b0850 -->
<g id="edge17" class="edge"><title>Node0xdea2540&#45;&gt;Node0x205b0850</title>
<path fill="none" stroke="black" d="M890.252,-962.425C866.719,-950.004 833.859,-932.662 800.789,-915.208"/>
<polygon fill="black" stroke="black" points="802.402,-912.102 791.925,-910.53 799.135,-918.293 802.402,-912.102"/>
<text text-anchor="middle" x="877.5" y="-932.8" font-family="Times,serif" font-size="14.00">v5 != 0</text>
</g>
<!-- Node0x176b6920 -->
<g id="node18" class="node"><title>Node0x176b6920</title>
<polygon fill="none" stroke="black" points="686,-511.5 686,-549.5 799,-549.5 799,-511.5 686,-511.5"/>
<text text-anchor="start" x="694" y="-534.3" font-family="Times,serif" font-size="14.00">0x8066c40:</text>
<text text-anchor="start" x="694" y="-519.3" font-family="Times,serif" font-size="14.00"> if (v11 != 0):</text>
</g>
<!-- Node0x205b06b0&#45;&gt;Node0x176b6920 -->
<g id="edge18" class="edge"><title>Node0x205b06b0&#45;&gt;Node0x176b6920</title>
<path fill="none" stroke="black" d="M568.22,-616.312C572.621,-605.158 579.791,-591.443 590.5,-583 614.713,-563.91 628.221,-574.668 657.5,-565 667.994,-561.535 679.072,-557.474 689.638,-553.4"/>
<polygon fill="black" stroke="black" points="691.131,-556.574 699.167,-549.67 688.579,-550.055 691.131,-556.574"/>
</g>
<!-- Node0x176b1790 -->
<g id="node19" class="node"><title>Node0x176b1790</title>
<polygon fill="none" stroke="black" points="124.5,-496.5 124.5,-564.5 648.5,-564.5 648.5,-496.5 124.5,-496.5"/>
<text text-anchor="start" x="132.5" y="-549.3" font-family="Times,serif" font-size="14.00">0x8066c0e:</text>
<text text-anchor="start" x="132.5" y="-534.3" font-family="Times,serif" font-size="14.00"> v14 = 0</text>
<text text-anchor="start" x="132.5" y="-519.3" font-family="Times,serif" font-size="14.00"> mbedtls_ripemd160_process(g7, IntToPtrCastExpr&lt;ptr&gt;((g5 + v14)))</text>
<text text-anchor="start" x="132.5" y="-504.3" font-family="Times,serif" font-size="14.00"> v15 = g3</text>
</g>
<!-- Node0x176b6a30&#45;&gt;Node0x176b1790 -->
<g id="edge19" class="edge"><title>Node0x176b6a30&#45;&gt;Node0x176b1790</title>
<path fill="none" stroke="black" d="M386.5,-617.492C386.5,-605.885 386.5,-589.954 386.5,-574.955"/>
<polygon fill="black" stroke="black" points="390,-574.786 386.5,-564.786 383,-574.786 390,-574.786"/>
</g>
<!-- Node0x176b6ce0 -->
<g id="node20" class="node"><title>Node0x176b6ce0</title>
<polygon fill="none" stroke="black" points="669,-706.5 669,-744.5 770,-744.5 770,-706.5 669,-706.5"/>
<text text-anchor="start" x="677" y="-729.3" font-family="Times,serif" font-size="14.00">0x8066c09:</text>
<text text-anchor="start" x="677" y="-714.3" font-family="Times,serif" font-size="14.00"> v11 = v10</text>
</g>
<!-- Node0x205b07d0&#45;&gt;Node0x176b6ce0 -->
<g id="edge20" class="edge"><title>Node0x205b07d0&#45;&gt;Node0x176b6ce0</title>
<path fill="none" stroke="black" d="M1017.42,-819.952C1006.7,-806.673 992.013,-791.315 975.5,-782 914.66,-747.679 834.668,-734.564 780.408,-729.562"/>
<polygon fill="black" stroke="black" points="780.512,-726.058 770.25,-728.693 779.915,-733.033 780.512,-726.058"/>
</g>
<!-- Node0x205b0850&#45;&gt;Node0x176b6ce0 -->
<g id="edge21" class="edge"><title>Node0x205b0850&#45;&gt;Node0x176b6ce0</title>
<path fill="none" stroke="black" d="M697.514,-782.167C701.421,-772.273 705.273,-762.521 708.634,-754.012"/>
<polygon fill="black" stroke="black" points="711.91,-755.245 712.328,-744.659 705.399,-752.674 711.91,-755.245"/>
</g>
<!-- Node0x176b6fd0 -->
<g id="node21" class="node"><title>Node0x176b6fd0</title>
<polygon fill="none" stroke="black" points="777,-286.5 777,-444.5 1432,-444.5 1432,-286.5 777,-286.5"/>
<text text-anchor="start" x="785" y="-429.3" font-family="Times,serif" font-size="14.00">0x8066c50:</text>
<text text-anchor="start" x="785" y="-414.3" font-family="Times,serif" font-size="14.00"> v7 = v5</text>
<text text-anchor="start" x="785" y="-399.3" font-family="Times,serif" font-size="14.00"> v17 = g7</text>
<text text-anchor="start" x="785" y="-384.3" font-family="Times,serif" font-size="14.00"> g3 = v3</text>
<text text-anchor="start" x="785" y="-369.3" font-family="Times,serif" font-size="14.00"> g7 = v2</text>
<text text-anchor="start" x="785" y="-354.3" font-family="Times,serif" font-size="14.00"> g5 = v1</text>
<text text-anchor="start" x="785" y="-339.3" font-family="Times,serif" font-size="14.00"> v18</text>
<text text-anchor="start" x="785" y="-324.3" font-family="Times,serif" font-size="14.00"> v19</text>
<text text-anchor="start" x="785" y="-309.3" font-family="Times,serif" font-size="14.00"> memcpy(IntToPtrCastExpr&lt;ptr&gt;(v19), IntToPtrCastExpr&lt;ptr&gt;(v18), ((v5 + 28) + v17))</text>
<text text-anchor="start" x="785" y="-294.3" font-family="Times,serif" font-size="14.00"> goto 0x8066c70</text>
</g>
<!-- Node0x176b6920&#45;&gt;Node0x176b6fd0 -->
<g id="edge22" class="edge"><title>Node0x176b6920&#45;&gt;Node0x176b6fd0</title>
<path fill="none" stroke="black" d="M782.623,-511.433C817.008,-495.951 869.143,-472.476 921.501,-448.9"/>
<polygon fill="black" stroke="black" points="923.249,-451.952 930.93,-444.654 920.375,-445.569 923.249,-451.952"/>
<text text-anchor="middle" x="912" y="-466.8" font-family="Times,serif" font-size="14.00">v11 != 0</text>
</g>
<!-- Node0xdf7a430 -->
<g id="node22" class="node"><title>Node0xdf7a430</title>
<polygon fill="none" stroke="black" points="740,-184.5 740,-267.5 841,-267.5 841,-184.5 740,-184.5"/>
<text text-anchor="start" x="748" y="-252.3" font-family="Times,serif" font-size="14.00">0x8066c44:</text>
<text text-anchor="start" x="748" y="-237.3" font-family="Times,serif" font-size="14.00"> g3 = v3</text>
<text text-anchor="start" x="748" y="-222.3" font-family="Times,serif" font-size="14.00"> g7 = v2</text>
<text text-anchor="start" x="748" y="-207.3" font-family="Times,serif" font-size="14.00"> g5 = v1</text>
<text text-anchor="start" x="748" y="-192.3" font-family="Times,serif" font-size="14.00"> return g1</text>
</g>
<!-- Node0x176b6920&#45;&gt;Node0xdf7a430 -->
<g id="edge23" class="edge"><title>Node0x176b6920&#45;&gt;Node0xdf7a430</title>
<path fill="none" stroke="black" d="M742.707,-511.196C743.531,-470.255 747.594,-368.41 767.5,-286 768.178,-283.195 768.958,-280.345 769.813,-277.488"/>
<polygon fill="black" stroke="black" points="773.197,-278.4 772.967,-267.808 766.541,-276.231 773.197,-278.4"/>
<text text-anchor="middle" x="779" y="-466.8" font-family="Times,serif" font-size="14.00">v11 == 0</text>
</g>
<!-- Node0x176b1810 -->
<g id="node23" class="node"><title>Node0x176b1810</title>
<polygon fill="none" stroke="black" points="265,-347.5 265,-383.5 504,-383.5 504,-347.5 265,-347.5"/>
<text text-anchor="start" x="273" y="-361.8" font-family="Times,serif" font-size="14.00">while ((v15 &#45; (v14 + 64)) &gt; 63):</text>
</g>
<!-- Node0x176b1790&#45;&gt;Node0x176b1810 -->
<g id="edge24" class="edge"><title>Node0x176b1790&#45;&gt;Node0x176b1810</title>
<path fill="none" stroke="black" d="M386.09,-496.121C385.721,-466.027 385.185,-422.294 384.839,-394.121"/>
<polygon fill="black" stroke="black" points="388.335,-393.749 384.712,-383.793 381.335,-393.835 388.335,-393.749"/>
</g>
<!-- Node0x21071fb0 -->
<g id="node24" class="node"><title>Node0x21071fb0</title>
<polygon fill="none" stroke="black" points="658,-617.5 658,-653.5 781,-653.5 781,-617.5 658,-617.5"/>
<text text-anchor="start" x="666" y="-631.8" font-family="Times,serif" font-size="14.00">if (v10 &gt;= 64):</text>
</g>
<!-- Node0x176b6ce0&#45;&gt;Node0x21071fb0 -->
<g id="edge25" class="edge"><title>Node0x176b6ce0&#45;&gt;Node0x21071fb0</title>
<path fill="none" stroke="black" d="M719.5,-706.266C719.5,-694.031 719.5,-677.692 719.5,-663.902"/>
<polygon fill="black" stroke="black" points="723,-663.516 719.5,-653.516 716,-663.516 723,-663.516"/>
</g>
<!-- Node0x176b6fd0&#45;&gt;Node0xdea24a0 -->
<g id="edge26" class="edge"><title>Node0x176b6fd0&#45;&gt;Node0xdea24a0</title>
<path fill="none" stroke="black" d="M1111.25,-444.789C1113.05,-471.626 1114.5,-501.857 1114.5,-529.5 1114.5,-982.5 1114.5,-982.5 1114.5,-982.5 1114.5,-1010.72 1040.81,-1032.49 985.215,-1044.9"/>
<polygon fill="black" stroke="black" points="984.443,-1041.49 975.417,-1047.03 985.932,-1048.33 984.443,-1041.49"/>
</g>
<!-- Node0xdf7a430&#45;&gt;Node0x2af004a0 -->
<g id="edge27" class="edge"><title>Node0xdf7a430&#45;&gt;Node0x2af004a0</title>
<path fill="none" stroke="black" d="M810.427,-184.211C820.913,-156.229 827.684,-120.114 806.5,-97 766.748,-53.6246 348.259,-44.6373 219.792,-42.895"/>
<polygon fill="black" stroke="black" points="219.705,-39.3936 209.66,-42.7646 219.614,-46.3931 219.705,-39.3936"/>
</g>
<!-- Node0x176b1c00 -->
<g id="node25" class="node"><title>Node0x176b1c00</title>
<polygon fill="none" stroke="black" points="273.5,-97.5 273.5,-165.5 797.5,-165.5 797.5,-97.5 273.5,-97.5"/>
<text text-anchor="start" x="281.5" y="-150.3" font-family="Times,serif" font-size="14.00">0x8066c10:</text>
<text text-anchor="start" x="281.5" y="-135.3" font-family="Times,serif" font-size="14.00"> v14 = (v14 + 64)</text>
<text text-anchor="start" x="281.5" y="-120.3" font-family="Times,serif" font-size="14.00"> mbedtls_ripemd160_process(g7, IntToPtrCastExpr&lt;ptr&gt;((g5 + v14)))</text>
<text text-anchor="start" x="281.5" y="-105.3" font-family="Times,serif" font-size="14.00"> v15 = g3</text>
</g>
<!-- Node0x176b1810&#45;&gt;Node0x176b1c00 -->
<g id="edge28" class="edge"><title>Node0x176b1810&#45;&gt;Node0x176b1c00</title>
<path fill="none" stroke="black" d="M378.527,-347.37C367.65,-312.816 348.851,-233.823 384.5,-184 387.467,-179.854 390.787,-176.038 394.396,-172.525"/>
<polygon fill="black" stroke="black" points="396.947,-174.944 402.185,-165.735 392.347,-169.668 396.947,-174.944"/>
<text text-anchor="middle" x="467.5" y="-222.3" font-family="Times,serif" font-size="14.00">(v15 &#45; (v14 + 64)) &gt; 63</text>
</g>
<!-- Node0x176b1ba0 -->
<g id="node26" class="node"><title>Node0x176b1ba0</title>
<polygon fill="none" stroke="black" points="109.5,-105 109.5,-158 255.5,-158 255.5,-105 109.5,-105"/>
<text text-anchor="start" x="117.5" y="-142.8" font-family="Times,serif" font-size="14.00">v16 = (v15 &#45; 64)</text>
<text text-anchor="start" x="117.5" y="-127.8" font-family="Times,serif" font-size="14.00"> g1 = (v16 &amp; &#45;64)</text>
<text text-anchor="start" x="117.5" y="-112.8" font-family="Times,serif" font-size="14.00"> v11 = (v16 % 64)</text>
</g>
<!-- Node0x176b1810&#45;&gt;Node0x176b1ba0 -->
<g id="edge29" class="edge"><title>Node0x176b1810&#45;&gt;Node0x176b1ba0</title>
<path fill="none" stroke="black" d="M302.371,-347.49C258.746,-333.828 208.826,-309.753 182.5,-268 163.757,-238.274 166.888,-197.1 172.748,-167.961"/>
<polygon fill="black" stroke="black" points="176.166,-168.714 174.902,-158.195 169.33,-167.206 176.166,-168.714"/>
<text text-anchor="middle" x="271.5" y="-222.3" font-family="Times,serif" font-size="14.00">(v15 &#45; (v14 + 64)) &lt;= 63</text>
</g>
<!-- Node0x21071fb0&#45;&gt;Node0x176b6920 -->
<g id="edge31" class="edge"><title>Node0x21071fb0&#45;&gt;Node0x176b6920</title>
<path fill="none" stroke="black" d="M723.298,-617.492C726.813,-601.752 732.104,-578.057 736.242,-559.523"/>
<polygon fill="black" stroke="black" points="739.701,-560.096 738.464,-549.574 732.869,-558.571 739.701,-560.096"/>
<text text-anchor="middle" x="764.5" y="-586.8" font-family="Times,serif" font-size="14.00">v10 &lt; 64</text>
</g>
<!-- Node0x21071fb0&#45;&gt;Node0x176b1790 -->
<g id="edge30" class="edge"><title>Node0x21071fb0&#45;&gt;Node0x176b1790</title>
<path fill="none" stroke="black" d="M664.512,-617.492C620.771,-603.962 558.028,-584.555 503.213,-567.6"/>
<polygon fill="black" stroke="black" points="504.019,-564.186 493.431,-564.575 501.95,-570.873 504.019,-564.186"/>
<text text-anchor="middle" x="632.5" y="-586.8" font-family="Times,serif" font-size="14.00">v10 &gt;= 64</text>
</g>
<!-- Node0x176b1c00&#45;&gt;Node0x176b1810 -->
<g id="edge32" class="edge"><title>Node0x176b1c00&#45;&gt;Node0x176b1810</title>
<path fill="none" stroke="black" d="M549.7,-165.695C559.732,-194.619 568.5,-236.715 550.5,-268 529.364,-304.735 488.278,-328.784 452.271,-343.687"/>
<polygon fill="black" stroke="black" points="450.76,-340.521 442.758,-347.465 453.344,-347.027 450.76,-340.521"/>
</g>
<!-- Node0x176b1ba0&#45;&gt;Node0x2af004a0 -->
<g id="edge33" class="edge"><title>Node0x176b1ba0&#45;&gt;Node0x2af004a0</title>
<path fill="none" stroke="black" d="M182.5,-104.573C182.5,-93.5849 182.5,-80.7766 182.5,-69.6581"/>
<polygon fill="black" stroke="black" points="186,-69.6304 182.5,-59.6304 179,-69.6305 186,-69.6304"/>
</g>
</g>
</svg>
