<?xml version="1.0" encoding="UTF-8" standalone="no"?>
<!DOCTYPE svg PUBLIC "-//W3C//DTD SVG 1.1//EN"
 "http://www.w3.org/Graphics/SVG/1.1/DTD/svg11.dtd">
<!-- Generated by graphviz version 2.38.0 (20140413.2041)
 -->
<!-- Title: Control&#45;flow graph for function &#39;mbedtls_asn1_write_len(*a1, a2, a3)&#39;. Pages: 1 -->
<svg width="1288pt" height="759pt"
 viewBox="0.00 0.00 1288.00 759.00" xmlns="http://www.w3.org/2000/svg" xmlns:xlink="http://www.w3.org/1999/xlink">
<g id="graph0" class="graph" transform="scale(1 1) rotate(0) translate(4 755)">
<title>Control&#45;flow graph for function &#39;mbedtls_asn1_write_len(*a1, a2, a3)&#39;.</title>
<polygon fill="white" stroke="none" points="-4,4 -4,-755 1284,-755 1284,4 -4,4"/>
<text text-anchor="middle" x="640" y="-7.8" font-family="Times,serif" font-size="14.00">Control&#45;flow graph for function &#39;mbedtls_asn1_write_len(*a1, a2, a3)&#39;.</text>
<!-- Node0xaf32550 -->
<g id="node1" class="node"><title>Node0xaf32550</title>
<polygon fill="none" stroke="black" points="489,-682.5 489,-750.5 548,-750.5 548,-682.5 489,-682.5"/>
<text text-anchor="start" x="497" y="-735.3" font-family="Times,serif" font-size="14.00">entry:</text>
<text text-anchor="start" x="497" y="-720.3" font-family="Times,serif" font-size="14.00"> a1</text>
<text text-anchor="start" x="497" y="-705.3" font-family="Times,serif" font-size="14.00"> a2</text>
<text text-anchor="start" x="497" y="-690.3" font-family="Times,serif" font-size="14.00"> a3</text>
</g>
<!-- Node0xaf32ab0 -->
<g id="node2" class="node"><title>Node0xaf32ab0</title>
<polygon fill="none" stroke="black" points="380.5,-546.5 380.5,-644.5 656.5,-644.5 656.5,-546.5 380.5,-546.5"/>
<text text-anchor="start" x="388.5" y="-629.3" font-family="Times,serif" font-size="14.00">v1 = a3</text>
<text text-anchor="start" x="388.5" y="-614.3" font-family="Times,serif" font-size="14.00"> v2 = PtrToIntCastExpr&lt;int32&gt;(a1)</text>
<text text-anchor="start" x="388.5" y="-599.3" font-family="Times,serif" font-size="14.00"> v3 = g3</text>
<text text-anchor="start" x="388.5" y="-584.3" font-family="Times,serif" font-size="14.00"> g4 = a2</text>
<text text-anchor="start" x="388.5" y="-569.3" font-family="Times,serif" font-size="14.00"> v4 = *(a1)</text>
<text text-anchor="start" x="388.5" y="-554.3" font-family="Times,serif" font-size="14.00"> v5 = (v4 &#45; a2)</text>
</g>
<!-- Node0xaf32550&#45;&gt;Node0xaf32ab0 -->
<g id="edge1" class="edge"><title>Node0xaf32550&#45;&gt;Node0xaf32ab0</title>
<path fill="none" stroke="black" d="M518.5,-682.352C518.5,-673.766 518.5,-664.263 518.5,-654.8"/>
<polygon fill="black" stroke="black" points="522,-654.594 518.5,-644.594 515,-654.594 522,-654.594"/>
</g>
<!-- Node0xaf34310 -->
<g id="node3" class="node"><title>Node0xaf34310</title>
<polygon fill="none" stroke="black" points="469.5,-472.5 469.5,-508.5 567.5,-508.5 567.5,-472.5 469.5,-472.5"/>
<text text-anchor="start" x="477.5" y="-486.8" font-family="Times,serif" font-size="14.00">if (a3 &gt; &#45;1):</text>
</g>
<!-- Node0xaf32ab0&#45;&gt;Node0xaf34310 -->
<g id="edge2" class="edge"><title>Node0xaf32ab0&#45;&gt;Node0xaf34310</title>
<path fill="none" stroke="black" d="M518.5,-546.317C518.5,-536.893 518.5,-527.32 518.5,-518.868"/>
<polygon fill="black" stroke="black" points="522,-518.856 518.5,-508.856 515,-518.856 522,-518.856"/>
</g>
<!-- Node0x19253a40 -->
<g id="node4" class="node"><title>Node0x19253a40</title>
<polygon fill="none" stroke="black" points="313,-382.5 313,-420.5 414,-420.5 414,-382.5 313,-382.5"/>
<text text-anchor="start" x="321" y="-405.3" font-family="Times,serif" font-size="14.00">0x8068798:</text>
<text text-anchor="start" x="321" y="-390.3" font-family="Times,serif" font-size="14.00"> if (v5 &lt; 1):</text>
</g>
<!-- Node0xaf34310&#45;&gt;Node0x19253a40 -->
<g id="edge3" class="edge"><title>Node0xaf34310&#45;&gt;Node0x19253a40</title>
<path fill="none" stroke="black" d="M487.877,-472.312C464.043,-458.934 430.734,-440.238 404.584,-425.56"/>
<polygon fill="black" stroke="black" points="406.094,-422.394 395.66,-420.551 402.667,-428.498 406.094,-422.394"/>
<text text-anchor="middle" x="481.5" y="-442.8" font-family="Times,serif" font-size="14.00">a3 &gt; &#45;1</text>
</g>
<!-- Node0xaf346c0 -->
<g id="node5" class="node"><title>Node0xaf346c0</title>
<polygon fill="none" stroke="black" points="625,-382.5 625,-420.5 726,-420.5 726,-382.5 625,-382.5"/>
<text text-anchor="start" x="633" y="-405.3" font-family="Times,serif" font-size="14.00">0x806872b:</text>
<text text-anchor="start" x="633" y="-390.3" font-family="Times,serif" font-size="14.00"> if (v5 &lt; 3):</text>
</g>
<!-- Node0xaf34310&#45;&gt;Node0xaf346c0 -->
<g id="edge4" class="edge"><title>Node0xaf34310&#45;&gt;Node0xaf346c0</title>
<path fill="none" stroke="black" d="M549.518,-472.312C573.66,-458.934 607.399,-440.238 633.886,-425.56"/>
<polygon fill="black" stroke="black" points="635.874,-428.46 642.925,-420.551 632.482,-422.337 635.874,-428.46"/>
<text text-anchor="middle" x="638.5" y="-442.8" font-family="Times,serif" font-size="14.00">a3 &lt;= &#45;1</text>
</g>
<!-- Node0x20f37730 -->
<g id="node6" class="node"><title>Node0x20f37730</title>
<polygon fill="none" stroke="black" points="0,-187.5 0,-240.5 103,-240.5 103,-187.5 0,-187.5"/>
<text text-anchor="start" x="8" y="-225.3" font-family="Times,serif" font-size="14.00">0x8068788:</text>
<text text-anchor="start" x="8" y="-210.3" font-family="Times,serif" font-size="14.00"> g3 = v3</text>
<text text-anchor="start" x="8" y="-195.3" font-family="Times,serif" font-size="14.00"> return &#45;108</text>
</g>
<!-- Node0x19253a40&#45;&gt;Node0x20f37730 -->
<g id="edge5" class="edge"><title>Node0x19253a40&#45;&gt;Node0x20f37730</title>
<path fill="none" stroke="black" d="M312.92,-398.146C258.067,-393.157 170.587,-377.819 112.5,-331 86.8949,-310.362 70.7581,-276.051 61.5601,-250.086"/>
<polygon fill="black" stroke="black" points="64.8719,-248.953 58.3693,-240.589 58.2364,-251.183 64.8719,-248.953"/>
<text text-anchor="middle" x="191.5" y="-352.8" font-family="Times,serif" font-size="14.00">v5 &lt; 1</text>
</g>
<!-- Node0xaf367c0 -->
<g id="node7" class="node"><title>Node0xaf367c0</title>
<polygon fill="none" stroke="black" points="121.5,-165 121.5,-263 605.5,-263 605.5,-165 121.5,-165"/>
<text text-anchor="start" x="129.5" y="-247.8" font-family="Times,serif" font-size="14.00">v6 = (v4 &#45; 1)</text>
<text text-anchor="start" x="129.5" y="-232.8" font-family="Times,serif" font-size="14.00"> g4 = v6</text>
<text text-anchor="start" x="129.5" y="-217.8" font-family="Times,serif" font-size="14.00"> *(a1) = v6</text>
<text text-anchor="start" x="129.5" y="-202.8" font-family="Times,serif" font-size="14.00"> *(IntToPtrCastExpr&lt;ptr&gt;((v4 &#45; 1))) = TruncCastExpr&lt;int8&gt;(v1)</text>
<text text-anchor="start" x="129.5" y="-187.8" font-family="Times,serif" font-size="14.00"> g3 = v3</text>
<text text-anchor="start" x="129.5" y="-172.8" font-family="Times,serif" font-size="14.00"> return 1</text>
</g>
<!-- Node0x19253a40&#45;&gt;Node0xaf367c0 -->
<g id="edge6" class="edge"><title>Node0x19253a40&#45;&gt;Node0xaf367c0</title>
<path fill="none" stroke="black" d="M363.5,-382.376C363.5,-357.377 363.5,-311.144 363.5,-273.594"/>
<polygon fill="black" stroke="black" points="367,-273.257 363.5,-263.257 360,-273.258 367,-273.257"/>
<text text-anchor="middle" x="393.5" y="-352.8" font-family="Times,serif" font-size="14.00">v5 &gt;= 1</text>
</g>
<!-- Node0xaf35b70 -->
<g id="node8" class="node"><title>Node0xaf35b70</title>
<polygon fill="none" stroke="black" points="624,-187.5 624,-240.5 727,-240.5 727,-187.5 624,-187.5"/>
<text text-anchor="start" x="632" y="-225.3" font-family="Times,serif" font-size="14.00">0x8068788:</text>
<text text-anchor="start" x="632" y="-210.3" font-family="Times,serif" font-size="14.00"> g3 = v3</text>
<text text-anchor="start" x="632" y="-195.3" font-family="Times,serif" font-size="14.00"> return &#45;108</text>
</g>
<!-- Node0xaf346c0&#45;&gt;Node0xaf35b70 -->
<g id="edge7" class="edge"><title>Node0xaf346c0&#45;&gt;Node0xaf35b70</title>
<path fill="none" stroke="black" d="M675.5,-382.376C675.5,-351.979 675.5,-290.188 675.5,-250.785"/>
<polygon fill="black" stroke="black" points="679,-250.553 675.5,-240.553 672,-250.553 679,-250.553"/>
<text text-anchor="middle" x="699.5" y="-352.8" font-family="Times,serif" font-size="14.00">v5 &lt; 3</text>
</g>
<!-- Node0xaf36220 -->
<g id="node9" class="node"><title>Node0xaf36220</title>
<polygon fill="none" stroke="black" points="745,-97.5 745,-330.5 1280,-330.5 1280,-97.5 745,-97.5"/>
<text text-anchor="start" x="753" y="-315.3" font-family="Times,serif" font-size="14.00">0x8068736:</text>
<text text-anchor="start" x="753" y="-300.3" font-family="Times,serif" font-size="14.00"> *(a1) = (v4 &#45; 1)</text>
<text text-anchor="start" x="753" y="-285.3" font-family="Times,serif" font-size="14.00"> *(IntToPtrCastExpr&lt;ptr&gt;((v4 &#45; 1))) = TruncCastExpr&lt;int8&gt;(v1)</text>
<text text-anchor="start" x="753" y="-270.3" font-family="Times,serif" font-size="14.00"> v7 = IntToPtrCastExpr&lt;ptr&gt;(v2)</text>
<text text-anchor="start" x="753" y="-255.3" font-family="Times,serif" font-size="14.00"> v8 = *(v7)</text>
<text text-anchor="start" x="753" y="-240.3" font-family="Times,serif" font-size="14.00"> *(v7) = (v8 &#45; 1)</text>
<text text-anchor="start" x="753" y="-225.3" font-family="Times,serif" font-size="14.00"> *(IntToPtrCastExpr&lt;ptr&gt;((v8 &#45; 1))) = TruncCastExpr&lt;int8&gt;((v1 / 256))</text>
<text text-anchor="start" x="753" y="-210.3" font-family="Times,serif" font-size="14.00"> v9 = IntToPtrCastExpr&lt;ptr&gt;(v2)</text>
<text text-anchor="start" x="753" y="-195.3" font-family="Times,serif" font-size="14.00"> v10 = *(v9)</text>
<text text-anchor="start" x="753" y="-180.3" font-family="Times,serif" font-size="14.00"> v11 = (v10 &#45; 1)</text>
<text text-anchor="start" x="753" y="-165.3" font-family="Times,serif" font-size="14.00"> g4 = v11</text>
<text text-anchor="start" x="753" y="-150.3" font-family="Times,serif" font-size="14.00"> *(v9) = v11</text>
<text text-anchor="start" x="753" y="-135.3" font-family="Times,serif" font-size="14.00"> *(IntToPtrCastExpr&lt;ptr&gt;((v10 &#45; 1))) = &#45;126</text>
<text text-anchor="start" x="753" y="-120.3" font-family="Times,serif" font-size="14.00"> g3 = v3</text>
<text text-anchor="start" x="753" y="-105.3" font-family="Times,serif" font-size="14.00"> return 3</text>
</g>
<!-- Node0xaf346c0&#45;&gt;Node0xaf36220 -->
<g id="edge8" class="edge"><title>Node0xaf346c0&#45;&gt;Node0xaf36220</title>
<path fill="none" stroke="black" d="M708.427,-382.376C730.016,-370.492 760.321,-353.811 793.505,-335.545"/>
<polygon fill="black" stroke="black" points="795.394,-338.5 802.466,-330.612 792.018,-332.368 795.394,-338.5"/>
<text text-anchor="middle" x="795.5" y="-352.8" font-family="Times,serif" font-size="14.00">v5 &gt;= 3</text>
</g>
<!-- Node0xaf34010 -->
<g id="node10" class="node"><title>Node0xaf34010</title>
<polygon fill="none" stroke="black" points="492.5,-23.5 492.5,-59.5 546.5,-59.5 546.5,-23.5 492.5,-23.5"/>
<text text-anchor="start" x="500.5" y="-37.8" font-family="Times,serif" font-size="14.00">exit:</text>
</g>
<!-- Node0x20f37730&#45;&gt;Node0xaf34010 -->
<g id="edge9" class="edge"><title>Node0x20f37730&#45;&gt;Node0xaf34010</title>
<path fill="none" stroke="black" d="M57.6206,-187.105C65.4803,-159.969 81.9118,-118.374 112.5,-97 171.884,-55.5051 393.5,-45.5457 482.329,-43.203"/>
<polygon fill="black" stroke="black" points="482.572,-46.6982 492.483,-42.9535 482.4,-39.7003 482.572,-46.6982"/>
</g>
<!-- Node0xaf367c0&#45;&gt;Node0xaf34010 -->
<g id="edge10" class="edge"><title>Node0xaf367c0&#45;&gt;Node0xaf34010</title>
<path fill="none" stroke="black" d="M407.786,-164.598C436.848,-132.835 473.641,-92.621 496.884,-67.2185"/>
<polygon fill="black" stroke="black" points="499.47,-69.5767 503.638,-59.8362 494.305,-64.8514 499.47,-69.5767"/>
</g>
<!-- Node0xaf35b70&#45;&gt;Node0xaf34010 -->
<g id="edge11" class="edge"><title>Node0xaf35b70&#45;&gt;Node0xaf34010</title>
<path fill="none" stroke="black" d="M666.858,-187.355C657.278,-161.971 639.766,-123.211 614.5,-97 598.056,-79.9412 575.112,-66.5766 555.892,-57.3516"/>
<polygon fill="black" stroke="black" points="557.347,-54.1685 546.801,-53.1575 554.415,-60.5247 557.347,-54.1685"/>
</g>
<!-- Node0xaf36220&#45;&gt;Node0xaf34010 -->
<g id="edge12" class="edge"><title>Node0xaf36220&#45;&gt;Node0xaf34010</title>
<path fill="none" stroke="black" d="M744.814,-100.147C741.697,-99.0804 738.591,-98.0308 735.5,-97 673.852,-76.4423 600.075,-59.3919 556.65,-50.1012"/>
<polygon fill="black" stroke="black" points="557.321,-46.6659 546.813,-48.0186 555.871,-53.514 557.321,-46.6659"/>
</g>
</g>
</svg>
