<?xml version="1.0" encoding="UTF-8" standalone="no"?>
<!DOCTYPE svg PUBLIC "-//W3C//DTD SVG 1.1//EN"
 "http://www.w3.org/Graphics/SVG/1.1/DTD/svg11.dtd">
<!-- Generated by graphviz version 2.38.0 (20140413.2041)
 -->
<!-- Title: Control&#45;flow graph for function &#39;extract(*str)&#39;. Pages: 1 -->
<svg width="379pt" height="293pt"
 viewBox="0.00 0.00 379.00 293.00" xmlns="http://www.w3.org/2000/svg" xmlns:xlink="http://www.w3.org/1999/xlink">
<g id="graph0" class="graph" transform="scale(1 1) rotate(0) translate(4 289)">
<title>Control&#45;flow graph for function &#39;extract(*str)&#39;.</title>
<polygon fill="white" stroke="none" points="-4,4 -4,-289 375,-289 375,4 -4,4"/>
<text text-anchor="middle" x="185.5" y="-7.8" font-family="Times,serif" font-size="14.00">Control&#45;flow graph for function &#39;extract(*str)&#39;.</text>
<!-- Node0xbba4bd0 -->
<g id="node1" class="node"><title>Node0xbba4bd0</title>
<polygon fill="none" stroke="black" points="156,-246.5 156,-284.5 215,-284.5 215,-246.5 156,-246.5"/>
<text text-anchor="start" x="164" y="-269.3" font-family="Times,serif" font-size="14.00">entry:</text>
<text text-anchor="start" x="164" y="-254.3" font-family="Times,serif" font-size="14.00"> str</text>
</g>
<!-- Node0xbba5570 -->
<g id="node2" class="node"><title>Node0xbba5570</title>
<polygon fill="none" stroke="black" points="0,-96.5 0,-209.5 371,-209.5 371,-96.5 0,-96.5"/>
<text text-anchor="start" x="8" y="-194.3" font-family="Times,serif" font-size="14.00">str2 = PtrToIntCastExpr&lt;int32&gt;(str)</text>
<text text-anchor="start" x="8" y="-179.3" font-family="Times,serif" font-size="14.00"> mem = malloc(strlen(str))</text>
<text text-anchor="start" x="8" y="-164.3" font-family="Times,serif" font-size="14.00"> str3 = PtrToIntCastExpr&lt;int32&gt;(mem)</text>
<text text-anchor="start" x="8" y="-149.3" font-family="Times,serif" font-size="14.00"> strcpy(mem, IntToPtrCastExpr&lt;ptr&gt;(str2))</text>
<text text-anchor="start" x="8" y="-134.3" font-family="Times,serif" font-size="14.00"> free(IntToPtrCastExpr&lt;ptr&gt;(str2))</text>
<text text-anchor="start" x="8" y="-119.3" font-family="Times,serif" font-size="14.00"> *(strrchr(IntToPtrCastExpr&lt;ptr&gt;(str3), 47)) = 0</text>
<text text-anchor="start" x="8" y="-104.3" font-family="Times,serif" font-size="14.00"> return str3</text>
</g>
<!-- Node0xbba4bd0&#45;&gt;Node0xbba5570 -->
<g id="edge1" class="edge"><title>Node0xbba4bd0&#45;&gt;Node0xbba5570</title>
<path fill="none" stroke="black" d="M185.5,-246.253C185.5,-238.701 185.5,-229.442 185.5,-219.734"/>
<polygon fill="black" stroke="black" points="189,-219.508 185.5,-209.508 182,-219.508 189,-219.508"/>
</g>
<!-- Node0xbba5510 -->
<g id="node3" class="node"><title>Node0xbba5510</title>
<polygon fill="none" stroke="black" points="158.5,-23.5 158.5,-59.5 212.5,-59.5 212.5,-23.5 158.5,-23.5"/>
<text text-anchor="start" x="166.5" y="-37.8" font-family="Times,serif" font-size="14.00">exit:</text>
</g>
<!-- Node0xbba5570&#45;&gt;Node0xbba5510 -->
<g id="edge2" class="edge"><title>Node0xbba5570&#45;&gt;Node0xbba5510</title>
<path fill="none" stroke="black" d="M185.5,-96.2876C185.5,-87.1343 185.5,-78.0169 185.5,-69.9591"/>
<polygon fill="black" stroke="black" points="189,-69.7241 185.5,-59.7242 182,-69.7242 189,-69.7241"/>
</g>
</g>
</svg>
