<?xml version="1.0" encoding="UTF-8" standalone="no"?>
<!DOCTYPE svg PUBLIC "-//W3C//DTD SVG 1.1//EN"
 "http://www.w3.org/Graphics/SVG/1.1/DTD/svg11.dtd">
<!-- Generated by graphviz version 2.38.0 (20140413.2041)
 -->
<!-- Title: Control&#45;flow graph for function &#39;mbedtls_pk_load_file(*a1, *a2, *a3)&#39;. Pages: 1 -->
<svg width="1544pt" height="1587pt"
 viewBox="0.00 0.00 1544.00 1587.00" xmlns="http://www.w3.org/2000/svg" xmlns:xlink="http://www.w3.org/1999/xlink">
<g id="graph0" class="graph" transform="scale(1 1) rotate(0) translate(4 1583)">
<title>Control&#45;flow graph for function &#39;mbedtls_pk_load_file(*a1, *a2, *a3)&#39;.</title>
<polygon fill="white" stroke="none" points="-4,4 -4,-1583 1540,-1583 1540,4 -4,4"/>
<text text-anchor="middle" x="768" y="-7.8" font-family="Times,serif" font-size="14.00">Control&#45;flow graph for function &#39;mbedtls_pk_load_file(*a1, *a2, *a3)&#39;.</text>
<!-- Node0x1afe13a0 -->
<g id="node1" class="node"><title>Node0x1afe13a0</title>
<polygon fill="none" stroke="black" points="151,-1510.5 151,-1578.5 210,-1578.5 210,-1510.5 151,-1510.5"/>
<text text-anchor="start" x="159" y="-1563.3" font-family="Times,serif" font-size="14.00">entry:</text>
<text text-anchor="start" x="159" y="-1548.3" font-family="Times,serif" font-size="14.00"> a1</text>
<text text-anchor="start" x="159" y="-1533.3" font-family="Times,serif" font-size="14.00"> a2</text>
<text text-anchor="start" x="159" y="-1518.3" font-family="Times,serif" font-size="14.00"> a3</text>
</g>
<!-- Node0xda09cb0 -->
<g id="node2" class="node"><title>Node0xda09cb0</title>
<polygon fill="none" stroke="black" points="0,-1389.5 0,-1472.5 361,-1472.5 361,-1389.5 0,-1389.5"/>
<text text-anchor="start" x="8" y="-1457.3" font-family="Times,serif" font-size="14.00">v1 = g3</text>
<text text-anchor="start" x="8" y="-1442.3" font-family="Times,serif" font-size="14.00"> str = PtrToIntCastExpr&lt;int32&gt;(a2)</text>
<text text-anchor="start" x="8" y="-1427.3" font-family="Times,serif" font-size="14.00"> v2 = PtrToIntCastExpr&lt;int32&gt;(a3)</text>
<text text-anchor="start" x="8" y="-1412.3" font-family="Times,serif" font-size="14.00"> stream = fopen64(BitCastExpr&lt;ptr&gt;(a1), &quot;rb&quot;)</text>
<text text-anchor="start" x="8" y="-1397.3" font-family="Times,serif" font-size="14.00"> stream2 = PtrToIntCastExpr&lt;int32&gt;(stream)</text>
</g>
<!-- Node0x1afe13a0&#45;&gt;Node0xda09cb0 -->
<g id="edge1" class="edge"><title>Node0x1afe13a0&#45;&gt;Node0xda09cb0</title>
<path fill="none" stroke="black" d="M180.5,-1510.35C180.5,-1501.67 180.5,-1492.12 180.5,-1482.76"/>
<polygon fill="black" stroke="black" points="184,-1482.72 180.5,-1472.72 177,-1482.72 184,-1482.72"/>
</g>
<!-- Node0xb94b840 -->
<g id="node3" class="node"><title>Node0xb94b840</title>
<polygon fill="none" stroke="black" points="94,-1315.5 94,-1351.5 267,-1351.5 267,-1315.5 94,-1315.5"/>
<text text-anchor="start" x="102" y="-1329.8" font-family="Times,serif" font-size="14.00">if (stream == NULL):</text>
</g>
<!-- Node0xda09cb0&#45;&gt;Node0xb94b840 -->
<g id="edge2" class="edge"><title>Node0xda09cb0&#45;&gt;Node0xb94b840</title>
<path fill="none" stroke="black" d="M180.5,-1389.5C180.5,-1380.21 180.5,-1370.54 180.5,-1361.95"/>
<polygon fill="black" stroke="black" points="184,-1361.75 180.5,-1351.75 177,-1361.75 184,-1361.75"/>
</g>
<!-- Node0x9f40090 -->
<g id="node4" class="node"><title>Node0x9f40090</title>
<polygon fill="none" stroke="black" points="22,-1123.5 22,-1176.5 143,-1176.5 143,-1123.5 22,-1123.5"/>
<text text-anchor="start" x="30" y="-1161.3" font-family="Times,serif" font-size="14.00">0x804f22e:</text>
<text text-anchor="start" x="30" y="-1146.3" font-family="Times,serif" font-size="14.00"> g3 = v1</text>
<text text-anchor="start" x="30" y="-1131.3" font-family="Times,serif" font-size="14.00"> return &#45;15872</text>
</g>
<!-- Node0xb94b840&#45;&gt;Node0x9f40090 -->
<g id="edge3" class="edge"><title>Node0xb94b840&#45;&gt;Node0x9f40090</title>
<path fill="none" stroke="black" d="M123.131,-1315.36C114.802,-1310.62 107.149,-1304.6 101.5,-1297 78.0131,-1265.38 75.9159,-1218.94 77.9687,-1186.96"/>
<polygon fill="black" stroke="black" points="81.4797,-1186.97 78.799,-1176.72 74.5026,-1186.4 81.4797,-1186.97"/>
<text text-anchor="middle" x="165" y="-1285.8" font-family="Times,serif" font-size="14.00">stream == NULL</text>
</g>
<!-- Node0x29179c90 -->
<g id="node5" class="node"><title>Node0x29179c90</title>
<polygon fill="none" stroke="black" points="110.5,-1195.5 110.5,-1263.5 542.5,-1263.5 542.5,-1195.5 110.5,-1195.5"/>
<text text-anchor="start" x="118.5" y="-1248.3" font-family="Times,serif" font-size="14.00">0x804f181:</text>
<text text-anchor="start" x="118.5" y="-1233.3" font-family="Times,serif" font-size="14.00"> fseek(stream, 0, (SEEK_END &#45;&gt; 2))</text>
<text text-anchor="start" x="118.5" y="-1218.3" font-family="Times,serif" font-size="14.00"> curr_file_offset = ftell(IntToPtrCastExpr&lt;ptr&gt;(stream2))</text>
<text text-anchor="start" x="118.5" y="-1203.3" font-family="Times,serif" font-size="14.00"> file = IntToPtrCastExpr&lt;ptr&gt;(stream2)</text>
</g>
<!-- Node0xb94b840&#45;&gt;Node0x29179c90 -->
<g id="edge4" class="edge"><title>Node0xb94b840&#45;&gt;Node0x29179c90</title>
<path fill="none" stroke="black" d="M204.937,-1315.43C222.939,-1302.85 248.153,-1285.24 270.953,-1269.31"/>
<polygon fill="black" stroke="black" points="273.033,-1272.12 279.226,-1263.53 269.024,-1266.38 273.033,-1272.12"/>
<text text-anchor="middle" x="310" y="-1285.8" font-family="Times,serif" font-size="14.00">stream != NULL</text>
</g>
<!-- Node0xa9d92c0 -->
<g id="node6" class="node"><title>Node0xa9d92c0</title>
<polygon fill="none" stroke="black" points="131.5,-23.5 131.5,-59.5 185.5,-59.5 185.5,-23.5 131.5,-23.5"/>
<text text-anchor="start" x="139.5" y="-37.8" font-family="Times,serif" font-size="14.00">exit:</text>
</g>
<!-- Node0x9f40090&#45;&gt;Node0xa9d92c0 -->
<g id="edge5" class="edge"><title>Node0x9f40090&#45;&gt;Node0xa9d92c0</title>
<path fill="none" stroke="black" d="M82.5,-1123.42C82.5,-1102.05 82.5,-1070.79 82.5,-1043.5 82.5,-1043.5 82.5,-1043.5 82.5,-123 82.5,-97.2691 103.284,-76.4353 123.114,-62.4135"/>
<polygon fill="black" stroke="black" points="125.114,-65.2871 131.491,-56.8268 121.23,-59.4634 125.114,-65.2871"/>
</g>
<!-- Node0xde4d7d0 -->
<g id="node7" class="node"><title>Node0xde4d7d0</title>
<polygon fill="none" stroke="black" points="226.5,-1068.5 226.5,-1104.5 426.5,-1104.5 426.5,-1068.5 226.5,-1068.5"/>
<text text-anchor="start" x="234.5" y="-1082.8" font-family="Times,serif" font-size="14.00">if (curr_file_offset == &#45;1):</text>
</g>
<!-- Node0x29179c90&#45;&gt;Node0xde4d7d0 -->
<g id="edge6" class="edge"><title>Node0x29179c90&#45;&gt;Node0xde4d7d0</title>
<path fill="none" stroke="black" d="M326.5,-1195.44C326.5,-1170.85 326.5,-1137.69 326.5,-1114.64"/>
<polygon fill="black" stroke="black" points="330,-1114.52 326.5,-1104.52 323,-1114.52 330,-1114.52"/>
</g>
<!-- Node0x9f40130 -->
<g id="node8" class="node"><title>Node0x9f40130</title>
<polygon fill="none" stroke="black" points="98,-831.5 98,-899.5 219,-899.5 219,-831.5 98,-831.5"/>
<text text-anchor="start" x="106" y="-884.3" font-family="Times,serif" font-size="14.00">0x804f268:</text>
<text text-anchor="start" x="106" y="-869.3" font-family="Times,serif" font-size="14.00"> fclose(file)</text>
<text text-anchor="start" x="106" y="-854.3" font-family="Times,serif" font-size="14.00"> g3 = v1</text>
<text text-anchor="start" x="106" y="-839.3" font-family="Times,serif" font-size="14.00"> return &#45;15872</text>
</g>
<!-- Node0xde4d7d0&#45;&gt;Node0x9f40130 -->
<g id="edge7" class="edge"><title>Node0xde4d7d0&#45;&gt;Node0x9f40130</title>
<path fill="none" stroke="black" d="M241.347,-1068.49C228.043,-1063.74 214.933,-1057.69 203.5,-1050 188.008,-1039.58 184.71,-1034.22 177.5,-1017 163.156,-982.733 158.85,-940.537 157.876,-909.553"/>
<polygon fill="black" stroke="black" points="161.374,-909.426 157.664,-899.502 154.376,-909.574 161.374,-909.426"/>
<text text-anchor="middle" x="281" y="-1038.8" font-family="Times,serif" font-size="14.00">curr_file_offset == &#45;1</text>
</g>
<!-- Node0x1d866cf0 -->
<g id="node9" class="node"><title>Node0x1d866cf0</title>
<polygon fill="none" stroke="black" points="187,-918.5 187,-1016.5 686,-1016.5 686,-918.5 187,-918.5"/>
<text text-anchor="start" x="195" y="-1001.3" font-family="Times,serif" font-size="14.00">0x804f1aa:</text>
<text text-anchor="start" x="195" y="-986.3" font-family="Times,serif" font-size="14.00"> fseek(file, 0, (SEEK_SET &#45;&gt; 0))</text>
<text text-anchor="start" x="195" y="-971.3" font-family="Times,serif" font-size="14.00"> *(IntToPtrCastExpr&lt;ptr&gt;(v2)) = curr_file_offset</text>
<text text-anchor="start" x="195" y="-956.3" font-family="Times,serif" font-size="14.00"> mem = calloc(1, (curr_file_offset + 1))</text>
<text text-anchor="start" x="195" y="-941.3" font-family="Times,serif" font-size="14.00"> *(IntToPtrCastExpr&lt;ptr&gt;(str)) = PtrToIntCastExpr&lt;int32&gt;(mem)</text>
<text text-anchor="start" x="195" y="-926.3" font-family="Times,serif" font-size="14.00"> file2 = IntToPtrCastExpr&lt;ptr&gt;(stream2)</text>
</g>
<!-- Node0xde4d7d0&#45;&gt;Node0x1d866cf0 -->
<g id="edge8" class="edge"><title>Node0xde4d7d0&#45;&gt;Node0x1d866cf0</title>
<path fill="none" stroke="black" d="M342.495,-1068.49C353.605,-1056.67 369.089,-1040.2 384.288,-1024.03"/>
<polygon fill="black" stroke="black" points="386.935,-1026.33 391.235,-1016.65 381.835,-1021.53 386.935,-1026.33"/>
<text text-anchor="middle" x="447" y="-1038.8" font-family="Times,serif" font-size="14.00">curr_file_offset != &#45;1</text>
</g>
<!-- Node0x9f40130&#45;&gt;Node0xa9d92c0 -->
<g id="edge9" class="edge"><title>Node0x9f40130&#45;&gt;Node0xa9d92c0</title>
<path fill="none" stroke="black" d="M149.889,-831.124C144.862,-808.756 139.5,-778.555 139.5,-751.5 139.5,-751.5 139.5,-751.5 139.5,-123 139.5,-104.916 144.098,-85.1427 148.77,-69.719"/>
<polygon fill="black" stroke="black" points="152.228,-70.4015 151.961,-59.8101 145.564,-68.2559 152.228,-70.4015"/>
</g>
<!-- Node0xda0a270 -->
<g id="node10" class="node"><title>Node0xda0a270</title>
<polygon fill="none" stroke="black" points="357.5,-776.5 357.5,-812.5 515.5,-812.5 515.5,-776.5 357.5,-776.5"/>
<text text-anchor="start" x="365.5" y="-790.8" font-family="Times,serif" font-size="14.00">if (mem == NULL):</text>
</g>
<!-- Node0x1d866cf0&#45;&gt;Node0xda0a270 -->
<g id="edge10" class="edge"><title>Node0x1d866cf0&#45;&gt;Node0xda0a270</title>
<path fill="none" stroke="black" d="M436.5,-918.412C436.5,-887.468 436.5,-848.38 436.5,-822.696"/>
<polygon fill="black" stroke="black" points="440,-822.572 436.5,-812.572 433,-822.572 440,-822.572"/>
</g>
<!-- Node0x1d8656e0 -->
<g id="node11" class="node"><title>Node0x1d8656e0</title>
<polygon fill="none" stroke="black" points="161,-569.5 161,-637.5 282,-637.5 282,-569.5 161,-569.5"/>
<text text-anchor="start" x="169" y="-622.3" font-family="Times,serif" font-size="14.00">0x804f258:</text>
<text text-anchor="start" x="169" y="-607.3" font-family="Times,serif" font-size="14.00"> fclose(file2)</text>
<text text-anchor="start" x="169" y="-592.3" font-family="Times,serif" font-size="14.00"> g3 = v1</text>
<text text-anchor="start" x="169" y="-577.3" font-family="Times,serif" font-size="14.00"> return &#45;16256</text>
</g>
<!-- Node0xda0a270&#45;&gt;Node0x1d8656e0 -->
<g id="edge11" class="edge"><title>Node0xda0a270&#45;&gt;Node0x1d8656e0</title>
<path fill="none" stroke="black" d="M403.275,-776.378C392.687,-770.724 381,-764.271 370.5,-758 347.641,-744.347 340.284,-742.819 320.5,-725 294.202,-701.313 268.947,-670.397 250.527,-645.81"/>
<polygon fill="black" stroke="black" points="253.313,-643.691 244.551,-637.735 247.686,-647.855 253.313,-643.691"/>
<text text-anchor="middle" x="426.5" y="-746.8" font-family="Times,serif" font-size="14.00">mem == NULL</text>
</g>
<!-- Node0xda0a440 -->
<g id="node12" class="node"><title>Node0xda0a440</title>
<polygon fill="none" stroke="black" points="330,-656.5 330,-724.5 827,-724.5 827,-656.5 330,-656.5"/>
<text text-anchor="start" x="338" y="-709.3" font-family="Times,serif" font-size="14.00">v3 = fread_unlocked(mem, 1, *(IntToPtrCastExpr&lt;ptr&gt;(v2)), file2)</text>
<text text-anchor="start" x="338" y="-694.3" font-family="Times,serif" font-size="14.00"> fclose(IntToPtrCastExpr&lt;ptr&gt;(stream2))</text>
<text text-anchor="start" x="338" y="-679.3" font-family="Times,serif" font-size="14.00"> v4 = *(IntToPtrCastExpr&lt;ptr&gt;(str))</text>
<text text-anchor="start" x="338" y="-664.3" font-family="Times,serif" font-size="14.00"> result</text>
</g>
<!-- Node0xda0a270&#45;&gt;Node0xda0a440 -->
<g id="edge12" class="edge"><title>Node0xda0a270&#45;&gt;Node0xda0a440</title>
<path fill="none" stroke="black" d="M460.268,-776.427C477.7,-763.906 502.084,-746.39 524.183,-730.516"/>
<polygon fill="black" stroke="black" points="526.442,-733.203 532.522,-724.527 522.358,-727.518 526.442,-733.203"/>
<text text-anchor="middle" x="556.5" y="-746.8" font-family="Times,serif" font-size="14.00">mem != NULL</text>
</g>
<!-- Node0x1d8656e0&#45;&gt;Node0xa9d92c0 -->
<g id="edge13" class="edge"><title>Node0x1d8656e0&#45;&gt;Node0xa9d92c0</title>
<path fill="none" stroke="black" d="M201.303,-569.053C189.736,-546.761 177.5,-516.359 177.5,-487.5 177.5,-487.5 177.5,-487.5 177.5,-123 177.5,-104.916 172.902,-85.1427 168.23,-69.719"/>
<polygon fill="black" stroke="black" points="171.436,-68.2559 165.039,-59.8101 164.772,-70.4015 171.436,-68.2559"/>
</g>
<!-- Node0xf5a09f0 -->
<g id="node13" class="node"><title>Node0xf5a09f0</title>
<polygon fill="none" stroke="black" points="449,-512.5 449,-550.5 764,-550.5 764,-512.5 449,-512.5"/>
<text text-anchor="start" x="457" y="-535.3" font-family="Times,serif" font-size="14.00">if (v3 == *(IntToPtrCastExpr&lt;ptr&gt;(v2))):</text>
<text text-anchor="start" x="457" y="-520.3" font-family="Times,serif" font-size="14.00"> else:</text>
</g>
<!-- Node0xda0a440&#45;&gt;Node0xf5a09f0 -->
<g id="edge14" class="edge"><title>Node0xda0a440&#45;&gt;Node0xf5a09f0</title>
<path fill="none" stroke="black" d="M584.438,-656.204C589.512,-627.756 596.728,-587.294 601.508,-560.489"/>
<polygon fill="black" stroke="black" points="604.962,-561.055 603.273,-550.596 598.071,-559.826 604.962,-561.055"/>
</g>
<!-- Node0x1d865760 -->
<g id="node14" class="node"><title>Node0x1d865760</title>
<polygon fill="none" stroke="black" points="346,-422.5 346,-460.5 867,-460.5 867,-422.5 346,-422.5"/>
<text text-anchor="start" x="354" y="-445.3" font-family="Times,serif" font-size="14.00">0x804f201:</text>
<text text-anchor="start" x="354" y="-430.3" font-family="Times,serif" font-size="14.00"> *(IntToPtrCastExpr&lt;ptr&gt;((*(IntToPtrCastExpr&lt;ptr&gt;(v2)) + v4))) = 0</text>
</g>
<!-- Node0xf5a09f0&#45;&gt;Node0x1d865760 -->
<g id="edge15" class="edge"><title>Node0xf5a09f0&#45;&gt;Node0x1d865760</title>
<path fill="none" stroke="black" d="M606.5,-512.266C606.5,-500.349 606.5,-484.538 606.5,-470.982"/>
<polygon fill="black" stroke="black" points="610,-470.71 606.5,-460.71 603,-470.71 610,-470.71"/>
<text text-anchor="middle" x="741.5" y="-482.8" font-family="Times,serif" font-size="14.00">v3 == *(IntToPtrCastExpr&lt;ptr&gt;(v2))</text>
</g>
<!-- Node0xda0b1a0 -->
<g id="node15" class="node"><title>Node0xda0b1a0</title>
<polygon fill="none" stroke="black" points="1275,-350.5 1275,-403.5 1536,-403.5 1536,-350.5 1275,-350.5"/>
<text text-anchor="start" x="1283" y="-388.3" font-family="Times,serif" font-size="14.00">0x804f238:</text>
<text text-anchor="start" x="1283" y="-373.3" font-family="Times,serif" font-size="14.00"> free(IntToPtrCastExpr&lt;ptr&gt;(v4))</text>
<text text-anchor="start" x="1283" y="-358.3" font-family="Times,serif" font-size="14.00"> result = &#45;15872</text>
</g>
<!-- Node0xf5a09f0&#45;&gt;Node0xda0b1a0 -->
<g id="edge16" class="edge"><title>Node0xf5a09f0&#45;&gt;Node0xda0b1a0</title>
<path fill="none" stroke="black" d="M759.39,-512.473C798.941,-507.169 841.395,-500.912 880.5,-494 1023.34,-468.752 1186.22,-431.413 1292.17,-405.965"/>
<polygon fill="black" stroke="black" points="1293.02,-409.36 1301.93,-403.617 1291.39,-402.555 1293.02,-409.36"/>
<text text-anchor="middle" x="1083.5" y="-482.8" font-family="Times,serif" font-size="14.00">v3 != *(IntToPtrCastExpr&lt;ptr&gt;(v2))</text>
</g>
<!-- Node0x1d8657e0 -->
<g id="node16" class="node"><title>Node0x1d8657e0</title>
<polygon fill="none" stroke="black" points="269.5,-293.5 269.5,-331.5 943.5,-331.5 943.5,-293.5 269.5,-293.5"/>
<text text-anchor="start" x="277.5" y="-316.3" font-family="Times,serif" font-size="14.00">if (strstr(IntToPtrCastExpr&lt;ptr&gt;(*(IntToPtrCastExpr&lt;ptr&gt;(str))), &quot;&#45;&#45;&#45;&#45;&#45;BEGIN &quot;) != NULL):</text>
<text text-anchor="start" x="277.5" y="-301.3" font-family="Times,serif" font-size="14.00"> else:</text>
</g>
<!-- Node0x1d865760&#45;&gt;Node0x1d8657e0 -->
<g id="edge17" class="edge"><title>Node0x1d865760&#45;&gt;Node0x1d8657e0</title>
<path fill="none" stroke="black" d="M606.5,-422.304C606.5,-401.273 606.5,-366.409 606.5,-341.824"/>
<polygon fill="black" stroke="black" points="610,-341.662 606.5,-331.662 603,-341.662 610,-341.662"/>
</g>
<!-- Node0xa4a1520 -->
<g id="node17" class="node"><title>Node0xa4a1520</title>
<polygon fill="none" stroke="black" points="474,-97.5 474,-150.5 587,-150.5 587,-97.5 474,-97.5"/>
<text text-anchor="start" x="482" y="-135.3" font-family="Times,serif" font-size="14.00">0x804f22e:</text>
<text text-anchor="start" x="482" y="-120.3" font-family="Times,serif" font-size="14.00"> g3 = v1</text>
<text text-anchor="start" x="482" y="-105.3" font-family="Times,serif" font-size="14.00"> return result</text>
</g>
<!-- Node0xda0b1a0&#45;&gt;Node0xa4a1520 -->
<g id="edge18" class="edge"><title>Node0xda0b1a0&#45;&gt;Node0xa4a1520</title>
<path fill="none" stroke="black" d="M1443.06,-350.332C1474.19,-325.968 1509.58,-288.883 1484.5,-260 1426.09,-192.738 804.281,-143.937 597.178,-129.449"/>
<polygon fill="black" stroke="black" points="597.267,-125.947 587.048,-128.744 596.781,-132.93 597.267,-125.947"/>
</g>
<!-- Node0x7d45ca0 -->
<g id="node18" class="node"><title>Node0x7d45ca0</title>
<polygon fill="none" stroke="black" points="290.5,-188.5 290.5,-241.5 546.5,-241.5 546.5,-188.5 290.5,-188.5"/>
<text text-anchor="start" x="298.5" y="-226.3" font-family="Times,serif" font-size="14.00">v5 = IntToPtrCastExpr&lt;ptr&gt;(v2)</text>
<text text-anchor="start" x="298.5" y="-211.3" font-family="Times,serif" font-size="14.00"> *(v5) = (*(v5) + 1)</text>
<text text-anchor="start" x="298.5" y="-196.3" font-family="Times,serif" font-size="14.00"> result = 0</text>
</g>
<!-- Node0x1d8657e0&#45;&gt;Node0x7d45ca0 -->
<g id="edge19" class="edge"><title>Node0x1d8657e0&#45;&gt;Node0x7d45ca0</title>
<path fill="none" stroke="black" d="M274.035,-293.446C239.55,-288.653 214.446,-282.61 207.5,-275 176.17,-240.673 222.81,-225.674 280.13,-219.371"/>
<polygon fill="black" stroke="black" points="280.572,-222.845 290.172,-218.363 279.872,-215.88 280.572,-222.845"/>
<text text-anchor="middle" x="521.5" y="-263.8" font-family="Times,serif" font-size="14.00">strstr(IntToPtrCastExpr&lt;ptr&gt;(*(IntToPtrCastExpr&lt;ptr&gt;(str))), &quot;&#45;&#45;&#45;&#45;&#45;BEGIN &quot;) != NULL</text>
</g>
<!-- Node0xda0a4a0 -->
<g id="node19" class="node"><title>Node0xda0a4a0</title>
<polygon fill="none" stroke="black" points="649,-197 649,-233 738,-233 738,-197 649,-197"/>
<text text-anchor="start" x="657" y="-211.3" font-family="Times,serif" font-size="14.00">result = 0</text>
</g>
<!-- Node0x1d8657e0&#45;&gt;Node0xda0a4a0 -->
<g id="edge20" class="edge"><title>Node0x1d8657e0&#45;&gt;Node0xda0a4a0</title>
<path fill="none" stroke="black" d="M804.368,-293.451C820.417,-288.664 832.979,-282.622 839.5,-275 868.552,-241.043 800.974,-226.395 748.325,-220.243"/>
<polygon fill="black" stroke="black" points="748.682,-216.761 738.361,-219.157 747.923,-223.72 748.682,-216.761"/>
<text text-anchor="middle" x="1163.5" y="-263.8" font-family="Times,serif" font-size="14.00">strstr(IntToPtrCastExpr&lt;ptr&gt;(*(IntToPtrCastExpr&lt;ptr&gt;(str))), &quot;&#45;&#45;&#45;&#45;&#45;BEGIN &quot;) == NULL</text>
</g>
<!-- Node0xa4a1520&#45;&gt;Node0xa9d92c0 -->
<g id="edge21" class="edge"><title>Node0xa4a1520&#45;&gt;Node0xa9d92c0</title>
<path fill="none" stroke="black" d="M473.596,-110.686C396.511,-94.0051 261.052,-64.6919 195.76,-50.5629"/>
<polygon fill="black" stroke="black" points="196.417,-47.1242 185.903,-48.4299 194.936,-53.9659 196.417,-47.1242"/>
</g>
<!-- Node0x7d45ca0&#45;&gt;Node0xa4a1520 -->
<g id="edge22" class="edge"><title>Node0x7d45ca0&#45;&gt;Node0xa4a1520</title>
<path fill="none" stroke="black" d="M450.595,-188.496C463.014,-178.628 477.364,-167.224 490.447,-156.828"/>
<polygon fill="black" stroke="black" points="492.749,-159.469 498.401,-150.508 488.394,-153.989 492.749,-159.469"/>
</g>
<!-- Node0xda0a4a0&#45;&gt;Node0xa4a1520 -->
<g id="edge23" class="edge"><title>Node0xda0a4a0&#45;&gt;Node0xa4a1520</title>
<path fill="none" stroke="black" d="M662.072,-196.84C640.556,-185.092 611.438,-169.193 586.064,-155.339"/>
<polygon fill="black" stroke="black" points="587.718,-152.254 577.264,-150.534 584.363,-158.398 587.718,-152.254"/>
</g>
</g>
</svg>
