<?xml version="1.0" encoding="UTF-8" standalone="no"?>
<!DOCTYPE svg PUBLIC "-//W3C//DTD SVG 1.1//EN"
 "http://www.w3.org/Graphics/SVG/1.1/DTD/svg11.dtd">
<!-- Generated by graphviz version 2.38.0 (20140413.2041)
 -->
<!-- Title: Control&#45;flow graph for function &#39;mbedtls_cipher_set_iv(*a1, *a2, a3)&#39;. Pages: 1 -->
<svg width="949pt" height="1251pt"
 viewBox="0.00 0.00 948.50 1251.00" xmlns="http://www.w3.org/2000/svg" xmlns:xlink="http://www.w3.org/1999/xlink">
<g id="graph0" class="graph" transform="scale(1 1) rotate(0) translate(4 1247)">
<title>Control&#45;flow graph for function &#39;mbedtls_cipher_set_iv(*a1, *a2, a3)&#39;.</title>
<polygon fill="white" stroke="none" points="-4,4 -4,-1247 944.5,-1247 944.5,4 -4,4"/>
<text text-anchor="middle" x="470.25" y="-7.8" font-family="Times,serif" font-size="14.00">Control&#45;flow graph for function &#39;mbedtls_cipher_set_iv(*a1, *a2, a3)&#39;.</text>
<!-- Node0x98bf640 -->
<g id="node1" class="node"><title>Node0x98bf640</title>
<polygon fill="none" stroke="black" points="109,-1174.5 109,-1242.5 168,-1242.5 168,-1174.5 109,-1174.5"/>
<text text-anchor="start" x="117" y="-1227.3" font-family="Times,serif" font-size="14.00">entry:</text>
<text text-anchor="start" x="117" y="-1212.3" font-family="Times,serif" font-size="14.00"> a1</text>
<text text-anchor="start" x="117" y="-1197.3" font-family="Times,serif" font-size="14.00"> a2</text>
<text text-anchor="start" x="117" y="-1182.3" font-family="Times,serif" font-size="14.00"> a3</text>
</g>
<!-- Node0x26783c60 -->
<g id="node2" class="node"><title>Node0x26783c60</title>
<polygon fill="none" stroke="black" points="0,-1083.5 0,-1136.5 277,-1136.5 277,-1083.5 0,-1083.5"/>
<text text-anchor="start" x="8" y="-1121.3" font-family="Times,serif" font-size="14.00">v1 = PtrToIntCastExpr&lt;int32&gt;(a1)</text>
<text text-anchor="start" x="8" y="-1106.3" font-family="Times,serif" font-size="14.00"> g6 = PtrToIntCastExpr&lt;int32&gt;(a2)</text>
<text text-anchor="start" x="8" y="-1091.3" font-family="Times,serif" font-size="14.00"> g4 = a3</text>
</g>
<!-- Node0x98bf640&#45;&gt;Node0x26783c60 -->
<g id="edge1" class="edge"><title>Node0x98bf640&#45;&gt;Node0x26783c60</title>
<path fill="none" stroke="black" d="M138.5,-1174.29C138.5,-1165.43 138.5,-1155.83 138.5,-1146.84"/>
<polygon fill="black" stroke="black" points="142,-1146.65 138.5,-1136.65 135,-1146.65 142,-1146.65"/>
</g>
<!-- Node0x98c19d0 -->
<g id="node3" class="node"><title>Node0x98c19d0</title>
<polygon fill="none" stroke="black" points="68.5,-1009.5 68.5,-1045.5 208.5,-1045.5 208.5,-1009.5 68.5,-1009.5"/>
<text text-anchor="start" x="76.5" y="-1023.8" font-family="Times,serif" font-size="14.00">if (a1 == NULL):</text>
</g>
<!-- Node0x26783c60&#45;&gt;Node0x98c19d0 -->
<g id="edge2" class="edge"><title>Node0x26783c60&#45;&gt;Node0x98c19d0</title>
<path fill="none" stroke="black" d="M138.5,-1083.09C138.5,-1074.46 138.5,-1064.82 138.5,-1056.07"/>
<polygon fill="black" stroke="black" points="142,-1055.97 138.5,-1045.97 135,-1055.97 142,-1055.97"/>
</g>
<!-- Node0x2630d8c0 -->
<g id="node4" class="node"><title>Node0x2630d8c0</title>
<polygon fill="none" stroke="black" points="16,-864.5 16,-902.5 137,-902.5 137,-864.5 16,-864.5"/>
<text text-anchor="start" x="24" y="-887.3" font-family="Times,serif" font-size="14.00">0x806a2a1:</text>
<text text-anchor="start" x="24" y="-872.3" font-family="Times,serif" font-size="14.00"> return &#45;24832</text>
</g>
<!-- Node0x98c19d0&#45;&gt;Node0x2630d8c0 -->
<g id="edge3" class="edge"><title>Node0x98c19d0&#45;&gt;Node0x2630d8c0</title>
<path fill="none" stroke="black" d="M96.5644,-1009.31C89.3688,-1004.46 82.8268,-998.425 78.5,-991 64.7546,-967.414 66.1966,-935.616 69.8811,-912.92"/>
<polygon fill="black" stroke="black" points="73.3589,-913.362 71.749,-902.89 66.4772,-912.08 73.3589,-913.362"/>
<text text-anchor="middle" x="125.5" y="-979.8" font-family="Times,serif" font-size="14.00">a1 == NULL</text>
</g>
<!-- Node0x26fee4b0 -->
<g id="node5" class="node"><title>Node0x26fee4b0</title>
<polygon fill="none" stroke="black" points="170.5,-921.5 170.5,-957.5 260.5,-957.5 260.5,-921.5 170.5,-921.5"/>
<text text-anchor="start" x="178.5" y="-935.8" font-family="Times,serif" font-size="14.00">v2 = *(a1)</text>
</g>
<!-- Node0x98c19d0&#45;&gt;Node0x26fee4b0 -->
<g id="edge4" class="edge"><title>Node0x98c19d0&#45;&gt;Node0x26fee4b0</title>
<path fill="none" stroke="black" d="M158.029,-1009.38C164.146,-1003.73 170.787,-997.276 176.5,-991 183.584,-983.218 190.781,-974.257 197.032,-966.064"/>
<polygon fill="black" stroke="black" points="199.964,-967.988 203.159,-957.886 194.362,-963.791 199.964,-967.988"/>
<text text-anchor="middle" x="233.5" y="-979.8" font-family="Times,serif" font-size="14.00">a1 != NULL</text>
</g>
<!-- Node0x98bcdd0 -->
<g id="node6" class="node"><title>Node0x98bcdd0</title>
<polygon fill="none" stroke="black" points="160.5,-23.5 160.5,-59.5 214.5,-59.5 214.5,-23.5 160.5,-23.5"/>
<text text-anchor="start" x="168.5" y="-37.8" font-family="Times,serif" font-size="14.00">exit:</text>
</g>
<!-- Node0x2630d8c0&#45;&gt;Node0x98bcdd0 -->
<g id="edge5" class="edge"><title>Node0x2630d8c0&#45;&gt;Node0x98bcdd0</title>
<path fill="none" stroke="black" d="M76.2054,-864.438C75.9104,-844.775 75.5,-812.404 75.5,-784.5 75.5,-784.5 75.5,-784.5 75.5,-130.5 75.5,-91.5063 117.994,-67.1617 150.633,-54.2143"/>
<polygon fill="black" stroke="black" points="152.252,-57.3453 160.388,-50.5585 149.796,-50.7905 152.252,-57.3453"/>
</g>
<!-- Node0x26ff0000 -->
<g id="node7" class="node"><title>Node0x26ff0000</title>
<polygon fill="none" stroke="black" points="103.5,-809.5 103.5,-845.5 347.5,-845.5 347.5,-809.5 103.5,-809.5"/>
<text text-anchor="start" x="111.5" y="-823.8" font-family="Times,serif" font-size="14.00">if ((a2 == NULL) or (v2 == 0)):</text>
</g>
<!-- Node0x26fee4b0&#45;&gt;Node0x26ff0000 -->
<g id="edge6" class="edge"><title>Node0x26fee4b0&#45;&gt;Node0x26ff0000</title>
<path fill="none" stroke="black" d="M217.062,-921.312C218.662,-903.715 221.172,-876.107 223.039,-855.571"/>
<polygon fill="black" stroke="black" points="226.529,-855.843 223.948,-845.567 219.557,-855.209 226.529,-855.843"/>
</g>
<!-- Node0xde74720 -->
<g id="node8" class="node"><title>Node0xde74720</title>
<polygon fill="none" stroke="black" points="91,-662.5 91,-700.5 212,-700.5 212,-662.5 91,-662.5"/>
<text text-anchor="start" x="99" y="-685.3" font-family="Times,serif" font-size="14.00">0x806a2a1:</text>
<text text-anchor="start" x="99" y="-670.3" font-family="Times,serif" font-size="14.00"> return &#45;24832</text>
</g>
<!-- Node0x26ff0000&#45;&gt;Node0xde74720 -->
<g id="edge7" class="edge"><title>Node0x26ff0000&#45;&gt;Node0xde74720</title>
<path fill="none" stroke="black" d="M168.339,-809.481C160.474,-804.732 153.42,-798.687 148.5,-791 133.19,-767.083 136.945,-733.726 142.624,-710.33"/>
<polygon fill="black" stroke="black" points="146.007,-711.227 145.216,-700.662 139.246,-709.414 146.007,-711.227"/>
<text text-anchor="middle" x="248" y="-779.8" font-family="Times,serif" font-size="14.00">(a2 == NULL) or (v2 == 0)</text>
</g>
<!-- Node0x26783bd0 -->
<g id="node9" class="node"><title>Node0x26783bd0</title>
<polygon fill="none" stroke="black" points="320,-719.5 320,-757.5 427,-757.5 427,-719.5 320,-719.5"/>
<text text-anchor="start" x="328" y="-742.3" font-family="Times,serif" font-size="14.00">0x806a2ba:</text>
<text text-anchor="start" x="328" y="-727.3" font-family="Times,serif" font-size="14.00"> if (a3 &gt; 16):</text>
</g>
<!-- Node0x26ff0000&#45;&gt;Node0x26783bd0 -->
<g id="edge8" class="edge"><title>Node0x26ff0000&#45;&gt;Node0x26783bd0</title>
<path fill="none" stroke="black" d="M321.74,-809.382C332.554,-804.661 342.793,-798.65 351.5,-791 358.611,-784.752 363.495,-775.808 366.818,-767.122"/>
<polygon fill="black" stroke="black" points="370.156,-768.175 369.941,-757.582 363.504,-765.997 370.156,-768.175"/>
<text text-anchor="middle" x="461.5" y="-779.8" font-family="Times,serif" font-size="14.00">(a2 != NULL) and (v2 != 0)</text>
</g>
<!-- Node0xde74720&#45;&gt;Node0x98bcdd0 -->
<g id="edge9" class="edge"><title>Node0xde74720&#45;&gt;Node0x98bcdd0</title>
<path fill="none" stroke="black" d="M150.975,-662.266C150.382,-640.102 149.5,-601.561 149.5,-568.5 149.5,-568.5 149.5,-568.5 149.5,-130.5 149.5,-108.315 159.805,-85.3717 169.682,-68.4761"/>
<polygon fill="black" stroke="black" points="172.79,-70.1044 175.057,-59.755 166.831,-66.4315 172.79,-70.1044"/>
</g>
<!-- Node0x257b1160 -->
<g id="node10" class="node"><title>Node0x257b1160</title>
<polygon fill="none" stroke="black" points="186,-548.5 186,-586.5 307,-586.5 307,-548.5 186,-548.5"/>
<text text-anchor="start" x="194" y="-571.3" font-family="Times,serif" font-size="14.00">0x806a2a1:</text>
<text text-anchor="start" x="194" y="-556.3" font-family="Times,serif" font-size="14.00"> return &#45;24704</text>
</g>
<!-- Node0x26783bd0&#45;&gt;Node0x257b1160 -->
<g id="edge10" class="edge"><title>Node0x26783bd0&#45;&gt;Node0x257b1160</title>
<path fill="none" stroke="black" d="M339.682,-719.359C331.796,-714.123 323.856,-707.926 317.5,-701 288.771,-669.696 267.867,-624.62 256.455,-595.949"/>
<polygon fill="black" stroke="black" points="259.689,-594.606 252.817,-586.541 253.16,-597.131 259.689,-594.606"/>
<text text-anchor="middle" x="346" y="-677.8" font-family="Times,serif" font-size="14.00">a3 &gt; 16</text>
</g>
<!-- Node0x267855a0 -->
<g id="node11" class="node"><title>Node0x267855a0</title>
<polygon fill="none" stroke="black" points="349,-605.5 349,-643.5 426,-643.5 426,-605.5 349,-605.5"/>
<text text-anchor="start" x="357" y="-628.3" font-family="Times,serif" font-size="14.00">v3 = a3</text>
<text text-anchor="start" x="357" y="-613.3" font-family="Times,serif" font-size="14.00"> v4 = a3</text>
</g>
<!-- Node0x26783bd0&#45;&gt;Node0x267855a0 -->
<g id="edge11" class="edge"><title>Node0x26783bd0&#45;&gt;Node0x267855a0</title>
<path fill="none" stroke="black" d="M375.812,-719.005C378.034,-701.228 381.423,-674.118 383.98,-653.659"/>
<polygon fill="black" stroke="black" points="387.464,-654.007 385.231,-643.65 380.518,-653.139 387.464,-654.007"/>
<text text-anchor="middle" x="418" y="-677.8" font-family="Times,serif" font-size="14.00">a3 &lt;= 16</text>
</g>
<!-- Node0x257b1160&#45;&gt;Node0x98bcdd0 -->
<g id="edge12" class="edge"><title>Node0x257b1160&#45;&gt;Node0x98bcdd0</title>
<path fill="none" stroke="black" d="M222.323,-548.241C216.492,-542.89 210.731,-536.668 206.5,-530 191.174,-505.844 187.5,-497.108 187.5,-468.5 187.5,-468.5 187.5,-468.5 187.5,-130.5 187.5,-110.13 187.5,-87.1087 187.5,-69.7225"/>
<polygon fill="black" stroke="black" points="191,-69.6994 187.5,-59.6995 184,-69.6995 191,-69.6994"/>
</g>
<!-- Node0x1d997510 -->
<g id="node12" class="node"><title>Node0x1d997510</title>
<polygon fill="none" stroke="black" points="215.5,-493.5 215.5,-529.5 571.5,-529.5 571.5,-493.5 215.5,-493.5"/>
<text text-anchor="start" x="223.5" y="-507.8" font-family="Times,serif" font-size="14.00">if (*(IntToPtrCastExpr&lt;ptr&gt;((v2 + 20))) == 1):</text>
</g>
<!-- Node0x267855a0&#45;&gt;Node0x1d997510 -->
<g id="edge13" class="edge"><title>Node0x267855a0&#45;&gt;Node0x1d997510</title>
<path fill="none" stroke="black" d="M388.491,-605.171C389.45,-587.424 390.917,-560.294 392.015,-539.966"/>
<polygon fill="black" stroke="black" points="395.522,-539.934 392.567,-529.76 388.532,-539.556 395.522,-539.934"/>
</g>
<!-- Node0x267870d0 -->
<g id="node13" class="node"><title>Node0x267870d0</title>
<polygon fill="none" stroke="black" points="216,-403.5 216,-441.5 539,-441.5 539,-403.5 216,-403.5"/>
<text text-anchor="start" x="224" y="-426.3" font-family="Times,serif" font-size="14.00">v5 = *(IntToPtrCastExpr&lt;ptr&gt;((v2 + 16)))</text>
<text text-anchor="start" x="224" y="-411.3" font-family="Times,serif" font-size="14.00"> v3 = v5</text>
</g>
<!-- Node0x1d997510&#45;&gt;Node0x267870d0 -->
<g id="edge14" class="edge"><title>Node0x1d997510&#45;&gt;Node0x267870d0</title>
<path fill="none" stroke="black" d="M330.742,-493.498C322.747,-488.764 315.593,-482.718 310.5,-475 303.347,-464.161 309.151,-454.661 319.806,-446.869"/>
<polygon fill="black" stroke="black" points="321.719,-449.8 328.307,-441.503 317.982,-443.881 321.719,-449.8"/>
<text text-anchor="middle" x="466" y="-463.8" font-family="Times,serif" font-size="14.00">*(IntToPtrCastExpr&lt;ptr&gt;((v2 + 20))) == 1</text>
</g>
<!-- Node0xde747b0 -->
<g id="node14" class="node"><title>Node0xde747b0</title>
<polygon fill="none" stroke="black" points="254,-97.5 254,-165.5 649,-165.5 649,-97.5 254,-97.5"/>
<text text-anchor="start" x="262" y="-150.3" font-family="Times,serif" font-size="14.00">0x806a2cc:</text>
<text text-anchor="start" x="262" y="-135.3" font-family="Times,serif" font-size="14.00"> memcpy(IntToPtrCastExpr&lt;ptr&gt;((v1 + 40)), a2, v4)</text>
<text text-anchor="start" x="262" y="-120.3" font-family="Times,serif" font-size="14.00"> *(IntToPtrCastExpr&lt;ptr&gt;((v1 + 56))) = v3</text>
<text text-anchor="start" x="262" y="-105.3" font-family="Times,serif" font-size="14.00"> return 0</text>
</g>
<!-- Node0x1d997510&#45;&gt;Node0xde747b0 -->
<g id="edge15" class="edge"><title>Node0x1d997510&#45;&gt;Node0xde747b0</title>
<path fill="none" stroke="black" d="M571.645,-494.564C593.953,-489.684 612.208,-483.314 621.5,-475 639.177,-459.184 635.5,-447.22 635.5,-423.5 635.5,-423.5 635.5,-423.5 635.5,-258.5 635.5,-218.168 605.032,-189.797 568.893,-170.33"/>
<polygon fill="black" stroke="black" points="570.094,-167.013 559.598,-165.57 566.904,-173.243 570.094,-167.013"/>
<text text-anchor="middle" x="788" y="-343.8" font-family="Times,serif" font-size="14.00">*(IntToPtrCastExpr&lt;ptr&gt;((v2 + 20))) != 1</text>
</g>
<!-- Node0x8938950 -->
<g id="node15" class="node"><title>Node0x8938950</title>
<polygon fill="none" stroke="black" points="327,-329.5 327,-365.5 428,-365.5 428,-329.5 327,-329.5"/>
<text text-anchor="start" x="335" y="-343.8" font-family="Times,serif" font-size="14.00">if (v5 &gt; a3):</text>
</g>
<!-- Node0x267870d0&#45;&gt;Node0x8938950 -->
<g id="edge16" class="edge"><title>Node0x267870d0&#45;&gt;Node0x8938950</title>
<path fill="none" stroke="black" d="M377.5,-403.455C377.5,-395.201 377.5,-385.238 377.5,-376.074"/>
<polygon fill="black" stroke="black" points="381,-375.835 377.5,-365.835 374,-375.835 381,-375.835"/>
</g>
<!-- Node0xde747b0&#45;&gt;Node0x98bcdd0 -->
<g id="edge17" class="edge"><title>Node0xde747b0&#45;&gt;Node0x98bcdd0</title>
<path fill="none" stroke="black" d="M352.445,-97.4817C307.628,-82.5427 257.399,-65.7995 224.274,-54.7579"/>
<polygon fill="black" stroke="black" points="225.161,-51.3645 214.568,-51.5226 222.948,-58.0053 225.161,-51.3645"/>
</g>
<!-- Node0xf9cb0d0 -->
<g id="node16" class="node"><title>Node0xf9cb0d0</title>
<polygon fill="none" stroke="black" points="216,-184.5 216,-222.5 337,-222.5 337,-184.5 216,-184.5"/>
<text text-anchor="start" x="224" y="-207.3" font-family="Times,serif" font-size="14.00">0x806a2a1:</text>
<text text-anchor="start" x="224" y="-192.3" font-family="Times,serif" font-size="14.00"> return &#45;24832</text>
</g>
<!-- Node0x8938950&#45;&gt;Node0xf9cb0d0 -->
<g id="edge18" class="edge"><title>Node0x8938950&#45;&gt;Node0xf9cb0d0</title>
<path fill="none" stroke="black" d="M350.937,-329.141C344.071,-323.855 337.056,-317.663 331.5,-311 311.647,-287.195 296.276,-255.035 286.893,-232.303"/>
<polygon fill="black" stroke="black" points="290.091,-230.872 283.126,-222.888 283.592,-233.473 290.091,-230.872"/>
<text text-anchor="middle" x="359.5" y="-299.8" font-family="Times,serif" font-size="14.00">v5 &gt; a3</text>
</g>
<!-- Node0x2102a060 -->
<g id="node17" class="node"><title>Node0x2102a060</title>
<polygon fill="none" stroke="black" points="371.5,-241.5 371.5,-277.5 443.5,-277.5 443.5,-241.5 371.5,-241.5"/>
<text text-anchor="start" x="379.5" y="-255.8" font-family="Times,serif" font-size="14.00">v4 = v5</text>
</g>
<!-- Node0x8938950&#45;&gt;Node0x2102a060 -->
<g id="edge19" class="edge"><title>Node0x8938950&#45;&gt;Node0x2102a060</title>
<path fill="none" stroke="black" d="M383.571,-329.097C387.746,-317.129 393.372,-301.001 398.12,-287.391"/>
<polygon fill="black" stroke="black" points="401.551,-288.179 401.54,-277.584 394.942,-285.873 401.551,-288.179"/>
<text text-anchor="middle" x="428.5" y="-299.8" font-family="Times,serif" font-size="14.00">v5 &lt;= a3</text>
</g>
<!-- Node0xf9cb0d0&#45;&gt;Node0x98bcdd0 -->
<g id="edge20" class="edge"><title>Node0xf9cb0d0&#45;&gt;Node0x98bcdd0</title>
<path fill="none" stroke="black" d="M258.796,-184.385C253.813,-178.76 248.632,-172.36 244.5,-166 233.53,-149.114 211.88,-99.9168 198.647,-68.953"/>
<polygon fill="black" stroke="black" points="201.806,-67.4369 194.671,-59.6046 195.364,-70.1767 201.806,-67.4369"/>
</g>
<!-- Node0x2102a060&#45;&gt;Node0xde747b0 -->
<g id="edge21" class="edge"><title>Node0x2102a060&#45;&gt;Node0xde747b0</title>
<path fill="none" stroke="black" d="M413.526,-241.244C419.43,-224.336 428.666,-197.889 436.55,-175.31"/>
<polygon fill="black" stroke="black" points="439.954,-176.179 439.947,-165.584 433.345,-173.871 439.954,-176.179"/>
</g>
</g>
</svg>
