<?xml version="1.0" encoding="UTF-8" standalone="no"?>
<!DOCTYPE svg PUBLIC "-//W3C//DTD SVG 1.1//EN"
 "http://www.w3.org/Graphics/SVG/1.1/DTD/svg11.dtd">
<!-- Generated by graphviz version 2.38.0 (20140413.2041)
 -->
<!-- Title: Control&#45;flow graph for function &#39;__aio_close(result)&#39;. Pages: 1 -->
<svg width="397pt" height="233pt"
 viewBox="0.00 0.00 397.00 233.00" xmlns="http://www.w3.org/2000/svg" xmlns:xlink="http://www.w3.org/1999/xlink">
<g id="graph0" class="graph" transform="scale(1 1) rotate(0) translate(4 229)">
<title>Control&#45;flow graph for function &#39;__aio_close(result)&#39;.</title>
<polygon fill="white" stroke="none" points="-4,4 -4,-229 393,-229 393,4 -4,4"/>
<text text-anchor="middle" x="194.5" y="-7.8" font-family="Times,serif" font-size="14.00">Control&#45;flow graph for function &#39;__aio_close(result)&#39;.</text>
<!-- Node0x273785e0 -->
<g id="node1" class="node"><title>Node0x273785e0</title>
<polygon fill="none" stroke="black" points="163,-186.5 163,-224.5 226,-224.5 226,-186.5 163,-186.5"/>
<text text-anchor="start" x="171" y="-209.3" font-family="Times,serif" font-size="14.00">entry:</text>
<text text-anchor="start" x="171" y="-194.3" font-family="Times,serif" font-size="14.00"> result</text>
</g>
<!-- Node0x273787e0 -->
<g id="node2" class="node"><title>Node0x273787e0</title>
<polygon fill="none" stroke="black" points="138,-96.5 138,-149.5 251,-149.5 251,-96.5 138,-96.5"/>
<text text-anchor="start" x="146" y="-134.3" font-family="Times,serif" font-size="14.00">0x8075868:</text>
<text text-anchor="start" x="146" y="-119.3" font-family="Times,serif" font-size="14.00"> g1 = result</text>
<text text-anchor="start" x="146" y="-104.3" font-family="Times,serif" font-size="14.00"> return result</text>
</g>
<!-- Node0x273785e0&#45;&gt;Node0x273787e0 -->
<g id="edge1" class="edge"><title>Node0x273785e0&#45;&gt;Node0x273787e0</title>
<path fill="none" stroke="black" d="M194.5,-186.233C194.5,-178.347 194.5,-168.835 194.5,-159.648"/>
<polygon fill="black" stroke="black" points="198,-159.517 194.5,-149.517 191,-159.517 198,-159.517"/>
</g>
<!-- Node0x27378760 -->
<g id="node3" class="node"><title>Node0x27378760</title>
<polygon fill="none" stroke="black" points="167.5,-23.5 167.5,-59.5 221.5,-59.5 221.5,-23.5 167.5,-23.5"/>
<text text-anchor="start" x="175.5" y="-37.8" font-family="Times,serif" font-size="14.00">exit:</text>
</g>
<!-- Node0x273787e0&#45;&gt;Node0x27378760 -->
<g id="edge2" class="edge"><title>Node0x273787e0&#45;&gt;Node0x27378760</title>
<path fill="none" stroke="black" d="M194.5,-96.4081C194.5,-87.9823 194.5,-78.5803 194.5,-70.0174"/>
<polygon fill="black" stroke="black" points="198,-69.7564 194.5,-59.7564 191,-69.7565 198,-69.7564"/>
</g>
</g>
</svg>
