<?xml version="1.0" encoding="UTF-8" standalone="no"?>
<!DOCTYPE svg PUBLIC "-//W3C//DTD SVG 1.1//EN"
 "http://www.w3.org/Graphics/SVG/1.1/DTD/svg11.dtd">
<!-- Generated by graphviz version 2.38.0 (20140413.2041)
 -->
<!-- Title: Control&#45;flow graph for function &#39;mbedtls_ecp_keypair_init(a1)&#39;. Pages: 1 -->
<svg width="501pt" height="550pt"
 viewBox="0.00 0.00 500.50 550.00" xmlns="http://www.w3.org/2000/svg" xmlns:xlink="http://www.w3.org/1999/xlink">
<g id="graph0" class="graph" transform="scale(1 1) rotate(0) translate(4 546)">
<title>Control&#45;flow graph for function &#39;mbedtls_ecp_keypair_init(a1)&#39;.</title>
<polygon fill="white" stroke="none" points="-4,4 -4,-546 496.5,-546 496.5,4 -4,4"/>
<text text-anchor="middle" x="246.25" y="-7.8" font-family="Times,serif" font-size="14.00">Control&#45;flow graph for function &#39;mbedtls_ecp_keypair_init(a1)&#39;.</text>
<!-- Node0x21079b00 -->
<g id="node1" class="node"><title>Node0x21079b00</title>
<polygon fill="none" stroke="black" points="360,-503.5 360,-541.5 419,-541.5 419,-503.5 360,-503.5"/>
<text text-anchor="start" x="368" y="-526.3" font-family="Times,serif" font-size="14.00">entry:</text>
<text text-anchor="start" x="368" y="-511.3" font-family="Times,serif" font-size="14.00"> a1</text>
</g>
<!-- Node0x82fe900 -->
<g id="node2" class="node"><title>Node0x82fe900</title>
<polygon fill="none" stroke="black" points="353,-427.5 353,-465.5 426,-465.5 426,-427.5 353,-427.5"/>
<text text-anchor="start" x="361" y="-450.3" font-family="Times,serif" font-size="14.00">v1 = g3</text>
<text text-anchor="start" x="361" y="-435.3" font-family="Times,serif" font-size="14.00"> result</text>
</g>
<!-- Node0x21079b00&#45;&gt;Node0x82fe900 -->
<g id="edge1" class="edge"><title>Node0x21079b00&#45;&gt;Node0x82fe900</title>
<path fill="none" stroke="black" d="M389.5,-503.208C389.5,-494.964 389.5,-485.038 389.5,-475.862"/>
<polygon fill="black" stroke="black" points="393,-475.582 389.5,-465.582 386,-475.582 393,-475.582"/>
</g>
<!-- Node0xa5adb30 -->
<g id="node3" class="node"><title>Node0xa5adb30</title>
<polygon fill="none" stroke="black" points="340,-353.5 340,-389.5 439,-389.5 439,-353.5 340,-353.5"/>
<text text-anchor="start" x="348" y="-367.8" font-family="Times,serif" font-size="14.00">if (a1 != 0):</text>
</g>
<!-- Node0x82fe900&#45;&gt;Node0xa5adb30 -->
<g id="edge2" class="edge"><title>Node0x82fe900&#45;&gt;Node0xa5adb30</title>
<path fill="none" stroke="black" d="M389.5,-427.455C389.5,-419.201 389.5,-409.238 389.5,-400.074"/>
<polygon fill="black" stroke="black" points="393,-399.835 389.5,-389.835 386,-399.835 393,-399.835"/>
</g>
<!-- Node0x21077080 -->
<g id="node4" class="node"><title>Node0x21077080</title>
<polygon fill="none" stroke="black" points="0,-188.5 0,-301.5 415,-301.5 415,-188.5 0,-188.5"/>
<text text-anchor="start" x="8" y="-286.3" font-family="Times,serif" font-size="14.00">0x805f82e:</text>
<text text-anchor="start" x="8" y="-271.3" font-family="Times,serif" font-size="14.00"> mbedtls_ecp_group_init(IntToPtrCastExpr&lt;ptr&gt;(a1))</text>
<text text-anchor="start" x="8" y="-256.3" font-family="Times,serif" font-size="14.00"> mbedtls_mpi_init(IntToPtrCastExpr&lt;ptr&gt;((a1 + 124)))</text>
<text text-anchor="start" x="8" y="-241.3" font-family="Times,serif" font-size="14.00"> g3 = v1</text>
<text text-anchor="start" x="8" y="-226.3" font-family="Times,serif" font-size="14.00"> v2</text>
<text text-anchor="start" x="8" y="-211.3" font-family="Times,serif" font-size="14.00"> result = mbedtls_ecp_point_init(v2)</text>
<text text-anchor="start" x="8" y="-196.3" font-family="Times,serif" font-size="14.00"> g1 = result</text>
</g>
<!-- Node0xa5adb30&#45;&gt;Node0x21077080 -->
<g id="edge3" class="edge"><title>Node0xa5adb30&#45;&gt;Node0x21077080</title>
<path fill="none" stroke="black" d="M364.575,-353.45C346.907,-341.364 322.029,-324.345 297.272,-307.41"/>
<polygon fill="black" stroke="black" points="299.121,-304.434 288.891,-301.677 295.169,-310.212 299.121,-304.434"/>
<text text-anchor="middle" x="363.5" y="-323.8" font-family="Times,serif" font-size="14.00">a1 != 0</text>
</g>
<!-- Node0x21076d00 -->
<g id="node5" class="node"><title>Node0x21076d00</title>
<polygon fill="none" stroke="black" points="327,-97.5 327,-150.5 440,-150.5 440,-97.5 327,-97.5"/>
<text text-anchor="start" x="335" y="-135.3" font-family="Times,serif" font-size="14.00">0x805f858:</text>
<text text-anchor="start" x="335" y="-120.3" font-family="Times,serif" font-size="14.00"> g3 = v1</text>
<text text-anchor="start" x="335" y="-105.3" font-family="Times,serif" font-size="14.00"> return result</text>
</g>
<!-- Node0xa5adb30&#45;&gt;Node0x21076d00 -->
<g id="edge4" class="edge"><title>Node0xa5adb30&#45;&gt;Node0x21076d00</title>
<path fill="none" stroke="black" d="M400.822,-353.327C408.923,-339.961 419.135,-320.613 423.5,-302 435.069,-252.672 437.641,-236.653 423.5,-188 420.598,-178.016 415.585,-168.101 410.069,-159.192"/>
<polygon fill="black" stroke="black" points="412.869,-157.08 404.446,-150.654 407.023,-160.93 412.869,-157.08"/>
<text text-anchor="middle" x="462.5" y="-241.3" font-family="Times,serif" font-size="14.00">a1 == 0</text>
</g>
<!-- Node0x21077080&#45;&gt;Node0x21076d00 -->
<g id="edge5" class="edge"><title>Node0x21077080&#45;&gt;Node0x21076d00</title>
<path fill="none" stroke="black" d="M289.832,-188.333C306.135,-177.309 322.699,-166.11 337.273,-156.256"/>
<polygon fill="black" stroke="black" points="339.283,-159.122 345.607,-150.621 335.362,-153.323 339.283,-159.122"/>
</g>
<!-- Node0xa5b0f20 -->
<g id="node6" class="node"><title>Node0xa5b0f20</title>
<polygon fill="none" stroke="black" points="356.5,-23.5 356.5,-59.5 410.5,-59.5 410.5,-23.5 356.5,-23.5"/>
<text text-anchor="start" x="364.5" y="-37.8" font-family="Times,serif" font-size="14.00">exit:</text>
</g>
<!-- Node0x21076d00&#45;&gt;Node0xa5b0f20 -->
<g id="edge6" class="edge"><title>Node0x21076d00&#45;&gt;Node0xa5b0f20</title>
<path fill="none" stroke="black" d="M383.5,-97.0862C383.5,-88.4596 383.5,-78.8224 383.5,-70.0748"/>
<polygon fill="black" stroke="black" points="387,-69.9735 383.5,-59.9735 380,-69.9735 387,-69.9735"/>
</g>
</g>
</svg>
