<?xml version="1.0" encoding="UTF-8" standalone="no"?>
<!DOCTYPE svg PUBLIC "-//W3C//DTD SVG 1.1//EN"
 "http://www.w3.org/Graphics/SVG/1.1/DTD/svg11.dtd">
<!-- Generated by graphviz version 2.38.0 (20140413.2041)
 -->
<!-- Title: Control&#45;flow graph for function &#39;decrypt_all(*name)&#39;. Pages: 1 -->
<svg width="3477pt" height="2146pt"
 viewBox="0.00 0.00 3477.00 2146.00" xmlns="http://www.w3.org/2000/svg" xmlns:xlink="http://www.w3.org/1999/xlink">
<g id="graph0" class="graph" transform="scale(1 1) rotate(0) translate(4 2142)">
<title>Control&#45;flow graph for function &#39;decrypt_all(*name)&#39;.</title>
<polygon fill="white" stroke="none" points="-4,4 -4,-2142 3473,-2142 3473,4 -4,4"/>
<text text-anchor="middle" x="1734.5" y="-7.8" font-family="Times,serif" font-size="14.00">Control&#45;flow graph for function &#39;decrypt_all(*name)&#39;.</text>
<!-- Node0x25022600 -->
<g id="node1" class="node"><title>Node0x25022600</title>
<polygon fill="none" stroke="black" points="170,-2099.5 170,-2137.5 230,-2137.5 230,-2099.5 170,-2099.5"/>
<text text-anchor="start" x="178" y="-2122.3" font-family="Times,serif" font-size="14.00">entry:</text>
<text text-anchor="start" x="178" y="-2107.3" font-family="Times,serif" font-size="14.00"> name</text>
</g>
<!-- Node0x2501f120 -->
<g id="node2" class="node"><title>Node0x2501f120</title>
<polygon fill="none" stroke="black" points="112,-2008.5 112,-2061.5 288,-2061.5 288,-2008.5 112,-2008.5"/>
<text text-anchor="start" x="120" y="-2046.3" font-family="Times,serif" font-size="14.00">v1 = g7</text>
<text text-anchor="start" x="120" y="-2031.3" font-family="Times,serif" font-size="14.00"> v2 = g3</text>
<text text-anchor="start" x="120" y="-2016.3" font-family="Times,serif" font-size="14.00"> dirp = opendir(name)</text>
</g>
<!-- Node0x25022600&#45;&gt;Node0x2501f120 -->
<g id="edge1" class="edge"><title>Node0x25022600&#45;&gt;Node0x2501f120</title>
<path fill="none" stroke="black" d="M200,-2099.41C200,-2091.28 200,-2081.39 200,-2071.86"/>
<polygon fill="black" stroke="black" points="203.5,-2071.77 200,-2061.77 196.5,-2071.77 203.5,-2071.77"/>
</g>
<!-- Node0x250229f0 -->
<g id="node3" class="node"><title>Node0x250229f0</title>
<polygon fill="none" stroke="black" points="124,-1934.5 124,-1970.5 276,-1970.5 276,-1934.5 124,-1934.5"/>
<text text-anchor="start" x="132" y="-1948.8" font-family="Times,serif" font-size="14.00">if (dirp == NULL):</text>
</g>
<!-- Node0x2501f120&#45;&gt;Node0x250229f0 -->
<g id="edge2" class="edge"><title>Node0x2501f120&#45;&gt;Node0x250229f0</title>
<path fill="none" stroke="black" d="M200,-2008.09C200,-1999.46 200,-1989.82 200,-1981.07"/>
<polygon fill="black" stroke="black" points="203.5,-1980.97 200,-1970.97 196.5,-1980.97 203.5,-1980.97"/>
</g>
<!-- Node0x16532f40 -->
<g id="node4" class="node"><title>Node0x16532f40</title>
<polygon fill="none" stroke="black" points="0,-1712.5 0,-1780.5 264,-1780.5 264,-1712.5 0,-1712.5"/>
<text text-anchor="start" x="8" y="-1765.3" font-family="Times,serif" font-size="14.00">0x8048a46:</text>
<text text-anchor="start" x="8" y="-1750.3" font-family="Times,serif" font-size="14.00"> g3 = v2</text>
<text text-anchor="start" x="8" y="-1735.3" font-family="Times,serif" font-size="14.00"> g7 = v1</text>
<text text-anchor="start" x="8" y="-1720.3" font-family="Times,serif" font-size="14.00"> return IntToPtrCastExpr&lt;ptr&gt;(0)</text>
</g>
<!-- Node0x250229f0&#45;&gt;Node0x16532f40 -->
<g id="edge3" class="edge"><title>Node0x250229f0&#45;&gt;Node0x16532f40</title>
<path fill="none" stroke="black" d="M152.912,-1934.43C145.389,-1929.62 138.583,-1923.57 134,-1916 111.239,-1878.42 114.494,-1826.95 121.075,-1790.81"/>
<polygon fill="black" stroke="black" points="124.59,-1791.08 123.099,-1780.59 117.723,-1789.72 124.59,-1791.08"/>
<text text-anchor="middle" x="187" y="-1904.8" font-family="Times,serif" font-size="14.00">dirp == NULL</text>
</g>
<!-- Node0x16532d40 -->
<g id="node5" class="node"><title>Node0x16532d40</title>
<polygon fill="none" stroke="black" points="191,-1799.5 191,-1882.5 361,-1882.5 361,-1799.5 191,-1799.5"/>
<text text-anchor="start" x="199" y="-1867.3" font-family="Times,serif" font-size="14.00">0x8048858:</text>
<text text-anchor="start" x="199" y="-1852.3" font-family="Times,serif" font-size="14.00"> v3</text>
<text text-anchor="start" x="199" y="-1837.3" font-family="Times,serif" font-size="14.00"> g7 = &amp;(v3)</text>
<text text-anchor="start" x="199" y="-1822.3" font-family="Times,serif" font-size="14.00"> v4 = readdir64(dirp)</text>
<text text-anchor="start" x="199" y="-1807.3" font-family="Times,serif" font-size="14.00"> v5</text>
</g>
<!-- Node0x250229f0&#45;&gt;Node0x16532d40 -->
<g id="edge4" class="edge"><title>Node0x250229f0&#45;&gt;Node0x16532d40</title>
<path fill="none" stroke="black" d="M225.681,-1934.22C232.25,-1928.93 238.891,-1922.72 244,-1916 249.537,-1908.72 254.332,-1900.33 258.404,-1891.88"/>
<polygon fill="black" stroke="black" points="261.61,-1893.28 262.539,-1882.73 255.231,-1890.4 261.61,-1893.28"/>
<text text-anchor="middle" x="304" y="-1904.8" font-family="Times,serif" font-size="14.00">dirp != NULL</text>
</g>
<!-- Node0x165321b0 -->
<g id="node6" class="node"><title>Node0x165321b0</title>
<polygon fill="none" stroke="black" points="261,-23.5 261,-59.5 315,-59.5 315,-23.5 261,-23.5"/>
<text text-anchor="start" x="269" y="-37.8" font-family="Times,serif" font-size="14.00">exit:</text>
</g>
<!-- Node0x16532f40&#45;&gt;Node0x165321b0 -->
<g id="edge5" class="edge"><title>Node0x16532f40&#45;&gt;Node0x165321b0</title>
<path fill="none" stroke="black" d="M131.553,-1712.37C131.286,-1689.85 131,-1659.38 131,-1632.5 131,-1632.5 131,-1632.5 131,-138 131,-82.2387 204.183,-58.1026 250.619,-48.4003"/>
<polygon fill="black" stroke="black" points="251.51,-51.7925 260.653,-46.4392 250.167,-44.9225 251.51,-51.7925"/>
</g>
<!-- Node0x165330b0 -->
<g id="node7" class="node"><title>Node0x165330b0</title>
<polygon fill="none" stroke="black" points="211,-1657.5 211,-1693.5 351,-1693.5 351,-1657.5 211,-1657.5"/>
<text text-anchor="start" x="219" y="-1671.8" font-family="Times,serif" font-size="14.00">if (v4 == NULL):</text>
</g>
<!-- Node0x16532d40&#45;&gt;Node0x165330b0 -->
<g id="edge6" class="edge"><title>Node0x16532d40&#45;&gt;Node0x165330b0</title>
<path fill="none" stroke="black" d="M277.249,-1799.16C278.16,-1769.37 279.37,-1729.81 280.166,-1703.77"/>
<polygon fill="black" stroke="black" points="283.672,-1703.61 280.48,-1693.51 276.676,-1703.4 283.672,-1703.61"/>
</g>
<!-- Node0x16533020 -->
<g id="node8" class="node"><title>Node0x16533020</title>
<polygon fill="none" stroke="black" points="146,-1467.5 146,-1550.5 418,-1550.5 418,-1467.5 146,-1467.5"/>
<text text-anchor="start" x="154" y="-1535.3" font-family="Times,serif" font-size="14.00">0x8048a35:</text>
<text text-anchor="start" x="154" y="-1520.3" font-family="Times,serif" font-size="14.00"> v5 = closedir(dirp)</text>
<text text-anchor="start" x="154" y="-1505.3" font-family="Times,serif" font-size="14.00"> g3 = v2</text>
<text text-anchor="start" x="154" y="-1490.3" font-family="Times,serif" font-size="14.00"> g7 = v1</text>
<text text-anchor="start" x="154" y="-1475.3" font-family="Times,serif" font-size="14.00"> return IntToPtrCastExpr&lt;ptr&gt;(v5)</text>
</g>
<!-- Node0x165330b0&#45;&gt;Node0x16533020 -->
<g id="edge7" class="edge"><title>Node0x165330b0&#45;&gt;Node0x16533020</title>
<path fill="none" stroke="black" d="M280.963,-1657.2C280.951,-1647.45 280.952,-1635.05 281,-1624 281.091,-1603.27 281.275,-1580.42 281.46,-1560.65"/>
<polygon fill="black" stroke="black" points="284.96,-1560.66 281.557,-1550.63 277.961,-1560.59 284.96,-1560.66"/>
<text text-anchor="middle" x="328" y="-1627.8" font-family="Times,serif" font-size="14.00">v4 == NULL</text>
</g>
<!-- Node0x16532e70 -->
<g id="node9" class="node"><title>Node0x16532e70</title>
<polygon fill="none" stroke="black" points="309,-1569.5 309,-1605.5 581,-1605.5 581,-1569.5 309,-1569.5"/>
<text text-anchor="start" x="317" y="-1583.8" font-family="Times,serif" font-size="14.00">v6 = PtrToIntCastExpr&lt;int32&gt;(v4)</text>
</g>
<!-- Node0x165330b0&#45;&gt;Node0x16532e70 -->
<g id="edge8" class="edge"><title>Node0x165330b0&#45;&gt;Node0x16532e70</title>
<path fill="none" stroke="black" d="M337.233,-1657.46C351.247,-1652.32 365.98,-1646.12 379,-1639 392.65,-1631.54 406.511,-1621.4 417.982,-1612.17"/>
<polygon fill="black" stroke="black" points="420.39,-1614.72 425.876,-1605.66 415.935,-1609.32 420.39,-1614.72"/>
<text text-anchor="middle" x="447" y="-1627.8" font-family="Times,serif" font-size="14.00">v4 != NULL</text>
</g>
<!-- Node0x16533020&#45;&gt;Node0x165321b0 -->
<g id="edge9" class="edge"><title>Node0x16533020&#45;&gt;Node0x165321b0</title>
<path fill="none" stroke="black" d="M252.524,-1467.47C239.033,-1445.04 226,-1415.99 226,-1387.5 226,-1387.5 226,-1387.5 226,-138 226,-110.498 244.311,-84.6833 261.031,-66.8439"/>
<polygon fill="black" stroke="black" points="263.532,-69.2925 268.042,-59.7051 258.538,-64.3879 263.532,-69.2925"/>
</g>
<!-- Node0x250228d0 -->
<g id="node10" class="node"><title>Node0x250228d0</title>
<polygon fill="none" stroke="black" points="396.5,-1412.5 396.5,-1448.5 493.5,-1448.5 493.5,-1412.5 396.5,-1412.5"/>
<text text-anchor="start" x="404.5" y="-1426.8" font-family="Times,serif" font-size="14.00">while True:</text>
</g>
<!-- Node0x16532e70&#45;&gt;Node0x250228d0 -->
<g id="edge10" class="edge"><title>Node0x16532e70&#45;&gt;Node0x250228d0</title>
<path fill="none" stroke="black" d="M445,-1569.32C445,-1542.67 445,-1491.11 445,-1459.16"/>
<polygon fill="black" stroke="black" points="448.5,-1458.76 445,-1448.76 441.5,-1458.76 448.5,-1458.76"/>
</g>
<!-- Node0x165342f0 -->
<g id="node11" class="node"><title>Node0x165342f0</title>
<polygon fill="none" stroke="black" points="754.5,-1322.5 754.5,-1360.5 879.5,-1360.5 879.5,-1322.5 754.5,-1322.5"/>
<text text-anchor="start" x="762.5" y="-1345.3" font-family="Times,serif" font-size="14.00">str = (v6 + 19)</text>
<text text-anchor="start" x="762.5" y="-1330.3" font-family="Times,serif" font-size="14.00"> g3 = str</text>
</g>
<!-- Node0x250228d0&#45;&gt;Node0x165342f0 -->
<g id="edge11" class="edge"><title>Node0x250228d0&#45;&gt;Node0x165342f0</title>
<path fill="none" stroke="black" d="M493.633,-1418.13C557.491,-1403.19 670.159,-1376.84 744.202,-1359.53"/>
<polygon fill="black" stroke="black" points="745.445,-1362.83 754.385,-1357.14 743.851,-1356.01 745.445,-1362.83"/>
<text text-anchor="middle" x="671" y="-1382.8" font-family="Times,serif" font-size="14.00">True</text>
</g>
<!-- Node0x16534350 -->
<g id="node12" class="node"><title>Node0x16534350</title>
<polygon fill="none" stroke="black" points="592,-1246.5 592,-1284.5 1228,-1284.5 1228,-1246.5 592,-1246.5"/>
<text text-anchor="start" x="600" y="-1269.3" font-family="Times,serif" font-size="14.00">if ((ExtCastExpr&lt;int32&gt;(*(IntToPtrCastExpr&lt;ptr&gt;((v6 + 18)))) or (v6 &amp; &#45;256)) == 4):</text>
<text text-anchor="start" x="600" y="-1254.3" font-family="Times,serif" font-size="14.00"> else:</text>
</g>
<!-- Node0x165342f0&#45;&gt;Node0x16534350 -->
<g id="edge12" class="edge"><title>Node0x165342f0&#45;&gt;Node0x16534350</title>
<path fill="none" stroke="black" d="M839.989,-1322.21C851.814,-1312.8 866.392,-1301.2 879.179,-1291.02"/>
<polygon fill="black" stroke="black" points="881.63,-1293.55 887.276,-1284.58 877.271,-1288.07 881.63,-1293.55"/>
</g>
<!-- Node0x16533f20 -->
<g id="node13" class="node"><title>Node0x16533f20</title>
<polygon fill="none" stroke="black" points="615.5,-644.5 615.5,-682.5 1204.5,-682.5 1204.5,-644.5 615.5,-644.5"/>
<text text-anchor="start" x="623.5" y="-667.3" font-family="Times,serif" font-size="14.00">0x80489e9:</text>
<text text-anchor="start" x="623.5" y="-652.3" font-family="Times,serif" font-size="14.00"> if (strcmp(&quot;README_FOR_DECRYPT.txt&quot;, IntToPtrCastExpr&lt;ptr&gt;(str)) == 0):</text>
</g>
<!-- Node0x16534350&#45;&gt;Node0x16533f20 -->
<g id="edge13" class="edge"><title>Node0x16534350&#45;&gt;Node0x16533f20</title>
<path fill="none" stroke="black" d="M910,-1246.3C910,-1228.5 910,-1200.64 910,-1176.5 910,-1176.5 910,-1176.5 910,-738.5 910,-723.497 910,-706.783 910,-693.041"/>
<polygon fill="black" stroke="black" points="913.5,-692.746 910,-682.747 906.5,-692.747 913.5,-692.746"/>
<text text-anchor="middle" x="1205.5" y="-946.8" font-family="Times,serif" font-size="14.00">(ExtCastExpr&lt;int32&gt;(*(IntToPtrCastExpr&lt;ptr&gt;((v6 + 18)))) or (v6 &amp; &#45;256)) == 4</text>
</g>
<!-- Node0x165308b0 -->
<g id="node14" class="node"><title>Node0x165308b0</title>
<polygon fill="none" stroke="black" points="1460.5,-1156.5 1460.5,-1194.5 1843.5,-1194.5 1843.5,-1156.5 1460.5,-1156.5"/>
<text text-anchor="start" x="1468.5" y="-1179.3" font-family="Times,serif" font-size="14.00">0x8048887:</text>
<text text-anchor="start" x="1468.5" y="-1164.3" font-family="Times,serif" font-size="14.00"> if (strcmp(IntToPtrCastExpr&lt;ptr&gt;(str), &quot;..&quot;) != 0):</text>
</g>
<!-- Node0x16534350&#45;&gt;Node0x165308b0 -->
<g id="edge14" class="edge"><title>Node0x16534350&#45;&gt;Node0x165308b0</title>
<path fill="none" stroke="black" d="M1061.95,-1246.48C1186.51,-1231.71 1362.4,-1210.85 1489.71,-1195.75"/>
<polygon fill="black" stroke="black" points="1490.42,-1199.19 1499.94,-1194.53 1489.6,-1192.24 1490.42,-1199.19"/>
<text text-anchor="middle" x="1618.5" y="-1216.8" font-family="Times,serif" font-size="14.00">(ExtCastExpr&lt;int32&gt;(*(IntToPtrCastExpr&lt;ptr&gt;((v6 + 18)))) or (v6 &amp; &#45;256)) != 4</text>
</g>
<!-- Node0x75653b0 -->
<g id="node15" class="node"><title>Node0x75653b0</title>
<polygon fill="none" stroke="black" points="291.5,-524.5 291.5,-592.5 950.5,-592.5 950.5,-524.5 291.5,-524.5"/>
<text text-anchor="start" x="299.5" y="-577.3" font-family="Times,serif" font-size="14.00">0x8048a01:</text>
<text text-anchor="start" x="299.5" y="-562.3" font-family="Times,serif" font-size="14.00"> str2</text>
<text text-anchor="start" x="299.5" y="-547.3" font-family="Times,serif" font-size="14.00"> snprintf(BitCastExpr&lt;ptr&gt;(&amp;(str2)), 4096, &quot;%s/%s&quot;, name, IntToPtrCastExpr&lt;ptr&gt;(g3))</text>
<text text-anchor="start" x="299.5" y="-532.3" font-family="Times,serif" font-size="14.00"> unlink(BitCastExpr&lt;ptr&gt;(&amp;(str2)))</text>
</g>
<!-- Node0x16533f20&#45;&gt;Node0x75653b0 -->
<g id="edge15" class="edge"><title>Node0x16533f20&#45;&gt;Node0x75653b0</title>
<path fill="none" stroke="black" d="M615.457,-655.633C526.042,-650.487 447.393,-641.537 433,-626 423.984,-616.268 421.88,-607.959 424.82,-600.866"/>
<polygon fill="black" stroke="black" points="427.887,-602.611 431.101,-592.515 422.293,-598.403 427.887,-602.611"/>
<text text-anchor="middle" x="702.5" y="-614.8" font-family="Times,serif" font-size="14.00">strcmp(&quot;README_FOR_DECRYPT.txt&quot;, IntToPtrCastExpr&lt;ptr&gt;(str)) == 0</text>
</g>
<!-- Node0x16533ba0 -->
<g id="node16" class="node"><title>Node0x16533ba0</title>
<polygon fill="none" stroke="black" points="1183.5,-382.5 1183.5,-418.5 1348.5,-418.5 1348.5,-382.5 1183.5,-382.5"/>
<text text-anchor="start" x="1191.5" y="-396.8" font-family="Times,serif" font-size="14.00">v8 = readdir64(dirp)</text>
</g>
<!-- Node0x16533f20&#45;&gt;Node0x16533ba0 -->
<g id="edge16" class="edge"><title>Node0x16533f20&#45;&gt;Node0x16533ba0</title>
<path fill="none" stroke="black" d="M951.255,-644.311C959.035,-639.32 966.458,-633.24 972,-626 1000.57,-588.67 969.587,-559.847 1000,-524 1045.49,-470.382 1119.46,-438.944 1177.87,-421.371"/>
<polygon fill="black" stroke="black" points="1178.85,-424.729 1187.47,-418.563 1176.89,-418.01 1178.85,-424.729"/>
<text text-anchor="middle" x="1266.5" y="-554.8" font-family="Times,serif" font-size="14.00">strcmp(&quot;README_FOR_DECRYPT.txt&quot;, IntToPtrCastExpr&lt;ptr&gt;(str)) != 0</text>
</g>
<!-- Node0x165308b0&#45;&gt;Node0x16533ba0 -->
<g id="edge18" class="edge"><title>Node0x165308b0&#45;&gt;Node0x16533ba0</title>
<path fill="none" stroke="black" d="M1843.58,-1172.8C2243.22,-1168 3129,-1150.16 3129,-1086.5 3129,-1086.5 3129,-1086.5 3129,-557.5 3129,-336.979 2363.8,-454.858 2144,-437 1858.51,-413.805 1519.52,-405.538 1359.06,-402.778"/>
<polygon fill="black" stroke="black" points="1358.81,-399.274 1348.75,-402.604 1358.69,-406.273 1358.81,-399.274"/>
<text text-anchor="middle" x="3299" y="-811.8" font-family="Times,serif" font-size="14.00">strcmp(IntToPtrCastExpr&lt;ptr&gt;(str), &quot;..&quot;) == 0</text>
</g>
<!-- Node0x16530cc0 -->
<g id="node17" class="node"><title>Node0x16530cc0</title>
<polygon fill="none" stroke="black" points="1463.5,-1066.5 1463.5,-1104.5 1840.5,-1104.5 1840.5,-1066.5 1463.5,-1066.5"/>
<text text-anchor="start" x="1471.5" y="-1089.3" font-family="Times,serif" font-size="14.00">0x804889b:</text>
<text text-anchor="start" x="1471.5" y="-1074.3" font-family="Times,serif" font-size="14.00"> if (strcmp(IntToPtrCastExpr&lt;ptr&gt;(g3), &quot;.&quot;) != 0):</text>
</g>
<!-- Node0x165308b0&#45;&gt;Node0x16530cc0 -->
<g id="edge17" class="edge"><title>Node0x165308b0&#45;&gt;Node0x16530cc0</title>
<path fill="none" stroke="black" d="M1652,-1156.27C1652,-1144.35 1652,-1128.54 1652,-1114.98"/>
<polygon fill="black" stroke="black" points="1655.5,-1114.71 1652,-1104.71 1648.5,-1114.71 1655.5,-1114.71"/>
<text text-anchor="middle" x="1819" y="-1126.8" font-family="Times,serif" font-size="14.00">strcmp(IntToPtrCastExpr&lt;ptr&gt;(str), &quot;..&quot;) != 0</text>
</g>
<!-- Node0x75653b0&#45;&gt;Node0x16533ba0 -->
<g id="edge19" class="edge"><title>Node0x75653b0&#45;&gt;Node0x16533ba0</title>
<path fill="none" stroke="black" d="M701.501,-524.426C771.747,-496.889 877.018,-458.782 972,-437 1038.42,-421.768 1114.87,-412.793 1173.16,-407.678"/>
<polygon fill="black" stroke="black" points="1173.79,-411.137 1183.46,-406.798 1173.2,-404.162 1173.79,-411.137"/>
</g>
<!-- Node0x16533c50 -->
<g id="node18" class="node"><title>Node0x16533c50</title>
<polygon fill="none" stroke="black" points="558,-308.5 558,-344.5 698,-344.5 698,-308.5 558,-308.5"/>
<text text-anchor="start" x="566" y="-322.8" font-family="Times,serif" font-size="14.00">if (v8 == NULL):</text>
</g>
<!-- Node0x16533ba0&#45;&gt;Node0x16533c50 -->
<g id="edge20" class="edge"><title>Node0x16533ba0&#45;&gt;Node0x16533c50</title>
<path fill="none" stroke="black" d="M1183.25,-390.161C1060.1,-376.264 830.105,-350.308 708.362,-336.569"/>
<polygon fill="black" stroke="black" points="708.686,-333.083 698.356,-335.44 707.901,-340.039 708.686,-333.083"/>
</g>
<!-- Node0x16530cc0&#45;&gt;Node0x16533ba0 -->
<g id="edge22" class="edge"><title>Node0x16530cc0&#45;&gt;Node0x16533ba0</title>
<path fill="none" stroke="black" d="M1605.33,-1066.41C1577.29,-1052.16 1547,-1029.2 1547,-996.5 1547,-996.5 1547,-996.5 1547,-557.5 1547,-469.565 1440.51,-430.777 1358.64,-413.951"/>
<polygon fill="black" stroke="black" points="1359.28,-410.509 1348.79,-412.006 1357.92,-417.376 1359.28,-410.509"/>
</g>
<!-- Node0x16530e10 -->
<g id="node19" class="node"><title>Node0x16530e10</title>
<polygon fill="none" stroke="black" points="1794.5,-976.5 1794.5,-1014.5 1915.5,-1014.5 1915.5,-976.5 1794.5,-976.5"/>
<text text-anchor="start" x="1802.5" y="-999.3" font-family="Times,serif" font-size="14.00">0x80488af:</text>
<text text-anchor="start" x="1802.5" y="-984.3" font-family="Times,serif" font-size="14.00"> chars_printed</text>
</g>
<!-- Node0x16530cc0&#45;&gt;Node0x16530e10 -->
<g id="edge21" class="edge"><title>Node0x16530cc0&#45;&gt;Node0x16530e10</title>
<path fill="none" stroke="black" d="M1693.57,-1066.48C1725.48,-1052.64 1769.71,-1033.47 1803.81,-1018.69"/>
<polygon fill="black" stroke="black" points="1805.35,-1021.84 1813.14,-1014.65 1802.57,-1015.41 1805.35,-1021.84"/>
<text text-anchor="middle" x="1929.5" y="-1036.8" font-family="Times,serif" font-size="14.00">strcmp(IntToPtrCastExpr&lt;ptr&gt;(g3), &quot;.&quot;) != 0</text>
</g>
<!-- Node0x16530c00 -->
<g id="node20" class="node"><title>Node0x16530c00</title>
<polygon fill="none" stroke="black" points="544.5,-218.5 544.5,-256.5 711.5,-256.5 711.5,-218.5 544.5,-218.5"/>
<text text-anchor="start" x="552.5" y="-241.3" font-family="Times,serif" font-size="14.00">break &#45;&gt; 0x8048a35:</text>
<text text-anchor="start" x="552.5" y="-226.3" font-family="Times,serif" font-size="14.00"> break</text>
</g>
<!-- Node0x16533c50&#45;&gt;Node0x16530c00 -->
<g id="edge23" class="edge"><title>Node0x16533c50&#45;&gt;Node0x16530c00</title>
<path fill="none" stroke="black" d="M628,-308.312C628,-296.511 628,-280.572 628,-266.904"/>
<polygon fill="black" stroke="black" points="631.5,-266.551 628,-256.551 624.5,-266.551 631.5,-266.551"/>
<text text-anchor="middle" x="675" y="-278.8" font-family="Times,serif" font-size="14.00">v8 == NULL</text>
</g>
<!-- Node0x16533d80 -->
<g id="node21" class="node"><title>Node0x16533d80</title>
<polygon fill="none" stroke="black" points="254,-219.5 254,-255.5 526,-255.5 526,-219.5 254,-219.5"/>
<text text-anchor="start" x="262" y="-233.8" font-family="Times,serif" font-size="14.00">v6 = PtrToIntCastExpr&lt;int32&gt;(v8)</text>
</g>
<!-- Node0x16533c50&#45;&gt;Node0x16533d80 -->
<g id="edge24" class="edge"><title>Node0x16533c50&#45;&gt;Node0x16533d80</title>
<path fill="none" stroke="black" d="M581.263,-308.415C542.537,-294.259 487.378,-274.096 446.239,-259.058"/>
<polygon fill="black" stroke="black" points="447.224,-255.692 436.63,-255.546 444.821,-262.266 447.224,-255.692"/>
<text text-anchor="middle" x="575" y="-278.8" font-family="Times,serif" font-size="14.00">v8 != NULL</text>
</g>
<!-- Node0xceaef00 -->
<g id="node22" class="node"><title>Node0xceaef00</title>
<polygon fill="none" stroke="black" points="1825.5,-886.5 1825.5,-924.5 2040.5,-924.5 2040.5,-886.5 1825.5,-886.5"/>
<text text-anchor="start" x="1833.5" y="-909.3" font-family="Times,serif" font-size="14.00">if (strcmp(&quot;/&quot;, name) == 0):</text>
<text text-anchor="start" x="1833.5" y="-894.3" font-family="Times,serif" font-size="14.00"> else:</text>
</g>
<!-- Node0x16530e10&#45;&gt;Node0xceaef00 -->
<g id="edge25" class="edge"><title>Node0x16530e10&#45;&gt;Node0xceaef00</title>
<path fill="none" stroke="black" d="M1871.16,-976.266C1882.46,-963.523 1897.7,-946.328 1910.22,-932.198"/>
<polygon fill="black" stroke="black" points="1912.85,-934.515 1916.86,-924.71 1907.61,-929.872 1912.85,-934.515"/>
</g>
<!-- Node0x165343b0 -->
<g id="node23" class="node"><title>Node0x165343b0</title>
<polygon fill="none" stroke="black" points="314,-97.5 314,-180.5 586,-180.5 586,-97.5 314,-97.5"/>
<text text-anchor="start" x="322" y="-165.3" font-family="Times,serif" font-size="14.00">0x8048a35:</text>
<text text-anchor="start" x="322" y="-150.3" font-family="Times,serif" font-size="14.00"> v5 = closedir(dirp)</text>
<text text-anchor="start" x="322" y="-135.3" font-family="Times,serif" font-size="14.00"> g3 = v2</text>
<text text-anchor="start" x="322" y="-120.3" font-family="Times,serif" font-size="14.00"> g7 = v1</text>
<text text-anchor="start" x="322" y="-105.3" font-family="Times,serif" font-size="14.00"> return IntToPtrCastExpr&lt;ptr&gt;(v5)</text>
</g>
<!-- Node0x16530c00&#45;&gt;Node0x165343b0 -->
<g id="edge26" class="edge"><title>Node0x16530c00&#45;&gt;Node0x165343b0</title>
<path fill="none" stroke="black" d="M594.52,-218.349C577.26,-208.992 555.361,-197.12 533.864,-185.466"/>
<polygon fill="black" stroke="black" points="535.474,-182.357 525.014,-180.668 532.138,-188.511 535.474,-182.357"/>
</g>
<!-- Node0x16533d80&#45;&gt;Node0x250228d0 -->
<g id="edge27" class="edge"><title>Node0x16533d80&#45;&gt;Node0x250228d0</title>
<path fill="none" stroke="black" d="M329.214,-255.563C296.994,-268.711 264,-290.676 264,-325.5 264,-1342.5 264,-1342.5 264,-1342.5 264,-1397.85 333.618,-1418.01 386.502,-1425.34"/>
<polygon fill="black" stroke="black" points="386.135,-1428.82 396.495,-1426.6 387.013,-1421.87 386.135,-1428.82"/>
</g>
<!-- Node0xf1d89b0 -->
<g id="node24" class="node"><title>Node0xf1d89b0</title>
<polygon fill="none" stroke="black" points="1575.5,-796.5 1575.5,-834.5 2290.5,-834.5 2290.5,-796.5 1575.5,-796.5"/>
<text text-anchor="start" x="1583.5" y="-819.3" font-family="Times,serif" font-size="14.00">0x80488c5:</text>
<text text-anchor="start" x="1583.5" y="-804.3" font-family="Times,serif" font-size="14.00"> chars_printed = snprintf(IntToPtrCastExpr&lt;ptr&gt;(g7), 4096, &quot;/%s&quot;, IntToPtrCastExpr&lt;ptr&gt;(g3))</text>
</g>
<!-- Node0xceaef00&#45;&gt;Node0xf1d89b0 -->
<g id="edge28" class="edge"><title>Node0xceaef00&#45;&gt;Node0xf1d89b0</title>
<path fill="none" stroke="black" d="M1933,-886.266C1933,-874.349 1933,-858.538 1933,-844.982"/>
<polygon fill="black" stroke="black" points="1936.5,-844.71 1933,-834.71 1929.5,-844.71 1936.5,-844.71"/>
<text text-anchor="middle" x="2018" y="-856.8" font-family="Times,serif" font-size="14.00">strcmp(&quot;/&quot;, name) == 0</text>
</g>
<!-- Node0xf1d8a10 -->
<g id="node25" class="node"><title>Node0xf1d8a10</title>
<polygon fill="none" stroke="black" points="2309,-796.5 2309,-834.5 3093,-834.5 3093,-796.5 2309,-796.5"/>
<text text-anchor="start" x="2317" y="-819.3" font-family="Times,serif" font-size="14.00">0x80488db:</text>
<text text-anchor="start" x="2317" y="-804.3" font-family="Times,serif" font-size="14.00"> chars_printed = snprintf(IntToPtrCastExpr&lt;ptr&gt;(g7), 4096, &quot;%s/%s&quot;, name, IntToPtrCastExpr&lt;ptr&gt;(g3))</text>
</g>
<!-- Node0xceaef00&#45;&gt;Node0xf1d8a10 -->
<g id="edge29" class="edge"><title>Node0xceaef00&#45;&gt;Node0xf1d8a10</title>
<path fill="none" stroke="black" d="M2040.6,-892.171C2168.62,-877.502 2383.85,-852.84 2533.67,-835.674"/>
<polygon fill="black" stroke="black" points="2534.35,-839.118 2543.89,-834.502 2533.55,-832.164 2534.35,-839.118"/>
<text text-anchor="middle" x="2444" y="-856.8" font-family="Times,serif" font-size="14.00">strcmp(&quot;/&quot;, name) != 0</text>
</g>
<!-- Node0x165343b0&#45;&gt;Node0x165321b0 -->
<g id="edge30" class="edge"><title>Node0x165343b0&#45;&gt;Node0x165321b0</title>
<path fill="none" stroke="black" d="M381.297,-97.4994C361.652,-85.9181 341.018,-73.7543 324.164,-63.8192"/>
<polygon fill="black" stroke="black" points="325.613,-60.6101 315.221,-58.5468 322.058,-66.6403 325.613,-60.6101"/>
</g>
<!-- Node0xf1d8140 -->
<g id="node26" class="node"><title>Node0xf1d8140</title>
<polygon fill="none" stroke="black" points="2022.5,-720.5 2022.5,-758.5 2237.5,-758.5 2237.5,-720.5 2022.5,-720.5"/>
<text text-anchor="start" x="2030.5" y="-743.3" font-family="Times,serif" font-size="14.00">v7 = (chars_printed &#45; 4095)</text>
<text text-anchor="start" x="2030.5" y="-728.3" font-family="Times,serif" font-size="14.00"> v5 = chars_printed</text>
</g>
<!-- Node0xf1d89b0&#45;&gt;Node0xf1d8140 -->
<g id="edge31" class="edge"><title>Node0xf1d89b0&#45;&gt;Node0xf1d8140</title>
<path fill="none" stroke="black" d="M1980.94,-796.492C2008.47,-786.153 2043.22,-773.099 2072.24,-762.196"/>
<polygon fill="black" stroke="black" points="2073.71,-765.382 2081.85,-758.589 2071.25,-758.829 2073.71,-765.382"/>
</g>
<!-- Node0xf1d8a10&#45;&gt;Node0xf1d8140 -->
<g id="edge32" class="edge"><title>Node0xf1d8a10&#45;&gt;Node0xf1d8140</title>
<path fill="none" stroke="black" d="M2562.05,-796.492C2465.8,-784.018 2339.06,-767.593 2247.77,-755.763"/>
<polygon fill="black" stroke="black" points="2248.02,-752.266 2237.66,-754.452 2247.12,-759.208 2248.02,-752.266"/>
</g>
<!-- Node0xf1d83c0 -->
<g id="node27" class="node"><title>Node0xf1d83c0</title>
<polygon fill="none" stroke="black" points="1849.5,-645.5 1849.5,-681.5 2410.5,-681.5 2410.5,-645.5 1849.5,-645.5"/>
<text text-anchor="start" x="1857.5" y="-659.8" font-family="Times,serif" font-size="14.00">if ((v7 == 0) or ((v7 &lt; 0) ^ (((4094 &#45; chars_printed) &amp; chars_printed) &lt; 0))):</text>
</g>
<!-- Node0xf1d8140&#45;&gt;Node0xf1d83c0 -->
<g id="edge33" class="edge"><title>Node0xf1d8140&#45;&gt;Node0xf1d83c0</title>
<path fill="none" stroke="black" d="M2130,-720.208C2130,-711.625 2130,-701.22 2130,-691.736"/>
<polygon fill="black" stroke="black" points="2133.5,-691.567 2130,-681.567 2126.5,-691.567 2133.5,-691.567"/>
</g>
<!-- Node0xf1d8a70 -->
<g id="node28" class="node"><title>Node0xf1d8a70</title>
<polygon fill="none" stroke="black" points="1575,-532 1575,-585 1889,-585 1889,-532 1575,-532"/>
<text text-anchor="start" x="1583" y="-569.8" font-family="Times,serif" font-size="14.00">0x8048900:</text>
<text text-anchor="start" x="1583" y="-554.8" font-family="Times,serif" font-size="14.00"> decrypt_all(IntToPtrCastExpr&lt;ptr&gt;(g7))</text>
<text text-anchor="start" x="1583" y="-539.8" font-family="Times,serif" font-size="14.00"> goto 0x8048a2d</text>
</g>
<!-- Node0xf1d83c0&#45;&gt;Node0xf1d8a70 -->
<g id="edge34" class="edge"><title>Node0xf1d83c0&#45;&gt;Node0xf1d8a70</title>
<path fill="none" stroke="black" d="M1849.39,-656.141C1756.06,-651.09 1671.88,-642.073 1657,-626 1645.73,-613.825 1653.26,-601.495 1667.14,-590.813"/>
<polygon fill="black" stroke="black" points="1669.21,-593.637 1675.43,-585.061 1665.22,-587.886 1669.21,-593.637"/>
<text text-anchor="middle" x="1915" y="-614.8" font-family="Times,serif" font-size="14.00">(v7 == 0) or ((v7 &lt; 0) ^ (((4094 &#45; chars_printed) &amp; chars_printed) &lt; 0))</text>
</g>
<!-- Node0xf1d8950 -->
<g id="node29" class="node"><title>Node0xf1d8950</title>
<polygon fill="none" stroke="black" points="1863,-437.5 1863,-505.5 2135,-505.5 2135,-437.5 1863,-437.5"/>
<text text-anchor="start" x="1871" y="-490.3" font-family="Times,serif" font-size="14.00">0x8048a46:</text>
<text text-anchor="start" x="1871" y="-475.3" font-family="Times,serif" font-size="14.00"> g3 = v2</text>
<text text-anchor="start" x="1871" y="-460.3" font-family="Times,serif" font-size="14.00"> g7 = v1</text>
<text text-anchor="start" x="1871" y="-445.3" font-family="Times,serif" font-size="14.00"> return IntToPtrCastExpr&lt;ptr&gt;(v5)</text>
</g>
<!-- Node0xf1d83c0&#45;&gt;Node0xf1d8950 -->
<g id="edge35" class="edge"><title>Node0xf1d83c0&#45;&gt;Node0xf1d8950</title>
<path fill="none" stroke="black" d="M2158.08,-645.462C2169.69,-636.097 2179.17,-623.8 2173,-611 2152.35,-568.178 2111.32,-534.508 2074.28,-511.093"/>
<polygon fill="black" stroke="black" points="2075.81,-507.926 2065.46,-505.66 2072.14,-513.886 2075.81,-507.926"/>
<text text-anchor="middle" x="2453.5" y="-614.8" font-family="Times,serif" font-size="14.00">(v7 != 0) and not (((v7 &lt; 0) ^ (((4094 &#45; chars_printed) &amp; chars_printed) &lt; 0)))</text>
</g>
<!-- Node0xf1d8a70&#45;&gt;Node0x16533ba0 -->
<g id="edge36" class="edge"><title>Node0xf1d8a70&#45;&gt;Node0x16533ba0</title>
<path fill="none" stroke="black" d="M1704.9,-531.821C1673.14,-503.403 1617.62,-458.752 1561,-437 1525.13,-423.218 1431.09,-413.453 1358.74,-407.698"/>
<polygon fill="black" stroke="black" points="1358.92,-404.202 1348.68,-406.913 1358.38,-411.181 1358.92,-404.202"/>
</g>
<!-- Node0xf1d8950&#45;&gt;Node0x165321b0 -->
<g id="edge37" class="edge"><title>Node0xf1d8950&#45;&gt;Node0x165321b0</title>
<path fill="none" stroke="black" d="M1862.59,-448.765C1779.03,-431.452 1688,-403.522 1688,-364 1688,-364 1688,-364 1688,-138 1688,-67.6271 547.194,-46.4857 325.186,-43.0377"/>
<polygon fill="black" stroke="black" points="325.079,-39.5358 315.026,-42.8824 324.972,-46.535 325.079,-39.5358"/>
</g>
</g>
</svg>
