<?xml version="1.0" encoding="UTF-8" standalone="no"?>
<!DOCTYPE svg PUBLIC "-//W3C//DTD SVG 1.1//EN"
 "http://www.w3.org/Graphics/SVG/1.1/DTD/svg11.dtd">
<!-- Generated by graphviz version 2.38.0 (20140413.2041)
 -->
<!-- Title: Control&#45;flow graph for function &#39;sighandler(sig_handler)&#39;. Pages: 1 -->
<svg width="737pt" height="263pt"
 viewBox="0.00 0.00 737.00 263.00" xmlns="http://www.w3.org/2000/svg" xmlns:xlink="http://www.w3.org/1999/xlink">
<g id="graph0" class="graph" transform="scale(1 1) rotate(0) translate(4 259)">
<title>Control&#45;flow graph for function &#39;sighandler(sig_handler)&#39;.</title>
<polygon fill="white" stroke="none" points="-4,4 -4,-259 733,-259 733,4 -4,4"/>
<text text-anchor="middle" x="364.5" y="-7.8" font-family="Times,serif" font-size="14.00">Control&#45;flow graph for function &#39;sighandler(sig_handler)&#39;.</text>
<!-- Node0x23e6f3f0 -->
<g id="node1" class="node"><title>Node0x23e6f3f0</title>
<polygon fill="none" stroke="black" points="312.5,-216.5 312.5,-254.5 416.5,-254.5 416.5,-216.5 312.5,-216.5"/>
<text text-anchor="start" x="320.5" y="-239.3" font-family="Times,serif" font-size="14.00">entry:</text>
<text text-anchor="start" x="320.5" y="-224.3" font-family="Times,serif" font-size="14.00"> sig_handler</text>
</g>
<!-- Node0x9e7b5e0 -->
<g id="node2" class="node"><title>Node0x9e7b5e0</title>
<polygon fill="none" stroke="black" points="0,-96.5 0,-179.5 729,-179.5 729,-96.5 0,-96.5"/>
<text text-anchor="start" x="8" y="-164.3" font-family="Times,serif" font-size="14.00">0x80557b0:</text>
<text text-anchor="start" x="8" y="-149.3" font-family="Times,serif" font-size="14.00"> g212 = 1</text>
<text text-anchor="start" x="8" y="-134.3" font-family="Times,serif" font-size="14.00"> prev_sig_handler = PtrToIntCastExpr&lt;int32&gt;(signal(sig_handler, BitCastExpr&lt;ptr&gt;(sighandler)))</text>
<text text-anchor="start" x="8" y="-119.3" font-family="Times,serif" font-size="14.00"> g1 = prev_sig_handler</text>
<text text-anchor="start" x="8" y="-104.3" font-family="Times,serif" font-size="14.00"> return prev_sig_handler</text>
</g>
<!-- Node0x23e6f3f0&#45;&gt;Node0x9e7b5e0 -->
<g id="edge1" class="edge"><title>Node0x23e6f3f0&#45;&gt;Node0x9e7b5e0</title>
<path fill="none" stroke="black" d="M364.5,-216.087C364.5,-208.444 364.5,-199.165 364.5,-189.73"/>
<polygon fill="black" stroke="black" points="368,-189.501 364.5,-179.501 361,-189.501 368,-189.501"/>
</g>
<!-- Node0x9e7ccb0 -->
<g id="node3" class="node"><title>Node0x9e7ccb0</title>
<polygon fill="none" stroke="black" points="337.5,-23.5 337.5,-59.5 391.5,-59.5 391.5,-23.5 337.5,-23.5"/>
<text text-anchor="start" x="345.5" y="-37.8" font-family="Times,serif" font-size="14.00">exit:</text>
</g>
<!-- Node0x9e7b5e0&#45;&gt;Node0x9e7ccb0 -->
<g id="edge2" class="edge"><title>Node0x9e7b5e0&#45;&gt;Node0x9e7ccb0</title>
<path fill="none" stroke="black" d="M364.5,-96.3751C364.5,-87.4706 364.5,-78.246 364.5,-70"/>
<polygon fill="black" stroke="black" points="368,-69.8327 364.5,-59.8328 361,-69.8328 368,-69.8327"/>
</g>
</g>
</svg>
