<?xml version="1.0" encoding="UTF-8" standalone="no"?>
<!DOCTYPE svg PUBLIC "-//W3C//DTD SVG 1.1//EN"
 "http://www.w3.org/Graphics/SVG/1.1/DTD/svg11.dtd">
<!-- Generated by graphviz version 2.38.0 (20140413.2041)
 -->
<!-- Title: Control&#45;flow graph for function &#39;mbedtls_ripemd160(a1, a2, a3, a4)&#39;. Pages: 1 -->
<svg width="748pt" height="654pt"
 viewBox="0.00 0.00 747.50 654.00" xmlns="http://www.w3.org/2000/svg" xmlns:xlink="http://www.w3.org/1999/xlink">
<g id="graph0" class="graph" transform="scale(1 1) rotate(0) translate(4 650)">
<title>Control&#45;flow graph for function &#39;mbedtls_ripemd160(a1, a2, a3, a4)&#39;.</title>
<polygon fill="white" stroke="none" points="-4,4 -4,-650 743.5,-650 743.5,4 -4,4"/>
<text text-anchor="middle" x="369.75" y="-7.8" font-family="Times,serif" font-size="14.00">Control&#45;flow graph for function &#39;mbedtls_ripemd160(a1, a2, a3, a4)&#39;.</text>
<!-- Node0x176b2200 -->
<g id="node1" class="node"><title>Node0x176b2200</title>
<polygon fill="none" stroke="black" points="375,-562.5 375,-645.5 434,-645.5 434,-562.5 375,-562.5"/>
<text text-anchor="start" x="383" y="-630.3" font-family="Times,serif" font-size="14.00">entry:</text>
<text text-anchor="start" x="383" y="-615.3" font-family="Times,serif" font-size="14.00"> a1</text>
<text text-anchor="start" x="383" y="-600.3" font-family="Times,serif" font-size="14.00"> a2</text>
<text text-anchor="start" x="383" y="-585.3" font-family="Times,serif" font-size="14.00"> a3</text>
<text text-anchor="start" x="383" y="-570.3" font-family="Times,serif" font-size="14.00"> a4</text>
</g>
<!-- Node0x176b1da0 -->
<g id="node2" class="node"><title>Node0x176b1da0</title>
<polygon fill="none" stroke="black" points="69.5,-306.5 69.5,-524.5 739.5,-524.5 739.5,-306.5 69.5,-306.5"/>
<text text-anchor="start" x="77.5" y="-509.3" font-family="Times,serif" font-size="14.00">v1 = g3</text>
<text text-anchor="start" x="77.5" y="-494.3" font-family="Times,serif" font-size="14.00"> v2</text>
<text text-anchor="start" x="77.5" y="-479.3" font-family="Times,serif" font-size="14.00"> v3 = &amp;(v2)</text>
<text text-anchor="start" x="77.5" y="-464.3" font-family="Times,serif" font-size="14.00"> g3 = v3</text>
<text text-anchor="start" x="77.5" y="-449.3" font-family="Times,serif" font-size="14.00"> mbedtls_ripemd160_init(BitCastExpr&lt;ptr&gt;(&amp;(v2)))</text>
<text text-anchor="start" x="77.5" y="-434.3" font-family="Times,serif" font-size="14.00"> v2 = 0</text>
<text text-anchor="start" x="77.5" y="-419.3" font-family="Times,serif" font-size="14.00"> g1 = a1</text>
<text text-anchor="start" x="77.5" y="-404.3" font-family="Times,serif" font-size="14.00"> mbedtls_ripemd160_update(IntToPtrCastExpr&lt;ptr&gt;(g3), IntToPtrCastExpr&lt;ptr&gt;(a1), a2)</text>
<text text-anchor="start" x="77.5" y="-389.3" font-family="Times,serif" font-size="14.00"> mbedtls_ripemd160_finish(IntToPtrCastExpr&lt;ptr&gt;(g3), IntToPtrCastExpr&lt;ptr&gt;(a3))</text>
<text text-anchor="start" x="77.5" y="-374.3" font-family="Times,serif" font-size="14.00"> g1 = v3</text>
<text text-anchor="start" x="77.5" y="-359.3" font-family="Times,serif" font-size="14.00"> *(IntToPtrCastExpr&lt;ptr&gt;(v3)) = 0</text>
<text text-anchor="start" x="77.5" y="-344.3" font-family="Times,serif" font-size="14.00"> result = (g1 + 1)</text>
<text text-anchor="start" x="77.5" y="-329.3" font-family="Times,serif" font-size="14.00"> g1 = result</text>
<text text-anchor="start" x="77.5" y="-314.3" font-family="Times,serif" font-size="14.00"> v4</text>
</g>
<!-- Node0x176b2200&#45;&gt;Node0x176b1da0 -->
<g id="edge1" class="edge"><title>Node0x176b2200&#45;&gt;Node0x176b1da0</title>
<path fill="none" stroke="black" d="M404.5,-562.072C404.5,-553.716 404.5,-544.531 404.5,-534.963"/>
<polygon fill="black" stroke="black" points="408,-534.873 404.5,-524.873 401,-534.873 408,-534.873"/>
</g>
<!-- Node0x176b6820 -->
<g id="node3" class="node"><title>Node0x176b6820</title>
<polygon fill="none" stroke="black" points="213,-232.5 213,-268.5 596,-268.5 596,-232.5 213,-232.5"/>
<text text-anchor="start" x="221" y="-246.8" font-family="Times,serif" font-size="14.00">while (result != PtrToIntCastExpr&lt;int32&gt;(&amp;(v4))):</text>
</g>
<!-- Node0x176b1da0&#45;&gt;Node0x176b6820 -->
<g id="edge2" class="edge"><title>Node0x176b1da0&#45;&gt;Node0x176b6820</title>
<path fill="none" stroke="black" d="M404.5,-306.23C404.5,-296.204 404.5,-286.787 404.5,-278.684"/>
<polygon fill="black" stroke="black" points="408,-278.516 404.5,-268.516 401,-278.516 408,-278.516"/>
</g>
<!-- Node0x17ea7b40 -->
<g id="node4" class="node"><title>Node0x17ea7b40</title>
<polygon fill="none" stroke="black" points="0,-105 0,-173 295,-173 295,-105 0,-105"/>
<text text-anchor="start" x="8" y="-157.8" font-family="Times,serif" font-size="14.00">0x8066e70:</text>
<text text-anchor="start" x="8" y="-142.8" font-family="Times,serif" font-size="14.00"> *(IntToPtrCastExpr&lt;ptr&gt;(result)) = 0</text>
<text text-anchor="start" x="8" y="-127.8" font-family="Times,serif" font-size="14.00"> result = (g1 + 1)</text>
<text text-anchor="start" x="8" y="-112.8" font-family="Times,serif" font-size="14.00"> g1 = result</text>
</g>
<!-- Node0x176b6820&#45;&gt;Node0x17ea7b40 -->
<g id="edge3" class="edge"><title>Node0x176b6820&#45;&gt;Node0x17ea7b40</title>
<path fill="none" stroke="black" d="M212.807,-238.837C148.592,-233.285 90.5801,-225.245 80.5,-214 70.631,-202.991 74.7805,-191.101 84.7012,-180.14"/>
<polygon fill="black" stroke="black" points="87.2266,-182.566 91.9646,-173.09 82.3512,-177.543 87.2266,-182.566"/>
<text text-anchor="middle" x="235.5" y="-202.8" font-family="Times,serif" font-size="14.00">result != PtrToIntCastExpr&lt;int32&gt;(&amp;(v4))</text>
</g>
<!-- Node0x8fac2a0 -->
<g id="node5" class="node"><title>Node0x8fac2a0</title>
<polygon fill="none" stroke="black" points="381,-97.5 381,-180.5 494,-180.5 494,-97.5 381,-97.5"/>
<text text-anchor="start" x="389" y="-165.3" font-family="Times,serif" font-size="14.00">0x8066e7a:</text>
<text text-anchor="start" x="389" y="-150.3" font-family="Times,serif" font-size="14.00"> g3 = v1</text>
<text text-anchor="start" x="389" y="-135.3" font-family="Times,serif" font-size="14.00"> v5</text>
<text text-anchor="start" x="389" y="-120.3" font-family="Times,serif" font-size="14.00"> g2 = v5</text>
<text text-anchor="start" x="389" y="-105.3" font-family="Times,serif" font-size="14.00"> return result</text>
</g>
<!-- Node0x176b6820&#45;&gt;Node0x8fac2a0 -->
<g id="edge4" class="edge"><title>Node0x176b6820&#45;&gt;Node0x8fac2a0</title>
<path fill="none" stroke="black" d="M409.911,-232.178C411.704,-226.401 413.701,-219.927 415.5,-214 417.799,-206.425 420.209,-198.407 422.555,-190.552"/>
<polygon fill="black" stroke="black" points="425.978,-191.32 425.48,-180.737 419.27,-189.321 425.978,-191.32"/>
<text text-anchor="middle" x="577.5" y="-202.8" font-family="Times,serif" font-size="14.00">result == PtrToIntCastExpr&lt;int32&gt;(&amp;(v4))</text>
</g>
<!-- Node0x17ea7b40&#45;&gt;Node0x176b6820 -->
<g id="edge5" class="edge"><title>Node0x17ea7b40&#45;&gt;Node0x176b6820</title>
<path fill="none" stroke="black" d="M295.095,-163.129C337.021,-172.398 375.412,-184.391 390.5,-199 396.82,-205.119 400.363,-213.82 402.325,-222.279"/>
<polygon fill="black" stroke="black" points="398.899,-223.01 404.015,-232.288 405.801,-221.845 398.899,-223.01"/>
</g>
<!-- Node0x17ea7670 -->
<g id="node6" class="node"><title>Node0x17ea7670</title>
<polygon fill="none" stroke="black" points="410.5,-23.5 410.5,-59.5 464.5,-59.5 464.5,-23.5 410.5,-23.5"/>
<text text-anchor="start" x="418.5" y="-37.8" font-family="Times,serif" font-size="14.00">exit:</text>
</g>
<!-- Node0x8fac2a0&#45;&gt;Node0x17ea7670 -->
<g id="edge6" class="edge"><title>Node0x8fac2a0&#45;&gt;Node0x17ea7670</title>
<path fill="none" stroke="black" d="M437.5,-97.4994C437.5,-88.2058 437.5,-78.537 437.5,-69.9459"/>
<polygon fill="black" stroke="black" points="441,-69.7494 437.5,-59.7494 434,-69.7494 441,-69.7494"/>
</g>
</g>
</svg>
