<?xml version="1.0" encoding="UTF-8" standalone="no"?>
<!DOCTYPE svg PUBLIC "-//W3C//DTD SVG 1.1//EN"
 "http://www.w3.org/Graphics/SVG/1.1/DTD/svg11.dtd">
<!-- Generated by graphviz version 2.38.0 (20140413.2041)
 -->
<!-- Title: Control&#45;flow graph for function &#39;rsa_verify_wrap(a1, a2, a3, a4, a5, a6)&#39;. Pages: 1 -->
<svg width="787pt" height="1037pt"
 viewBox="0.00 0.00 786.50 1037.00" xmlns="http://www.w3.org/2000/svg" xmlns:xlink="http://www.w3.org/1999/xlink">
<g id="graph0" class="graph" transform="scale(1 1) rotate(0) translate(4 1033)">
<title>Control&#45;flow graph for function &#39;rsa_verify_wrap(a1, a2, a3, a4, a5, a6)&#39;.</title>
<polygon fill="white" stroke="none" points="-4,4 -4,-1033 782.5,-1033 782.5,4 -4,4"/>
<text text-anchor="middle" x="389.25" y="-7.8" font-family="Times,serif" font-size="14.00">Control&#45;flow graph for function &#39;rsa_verify_wrap(a1, a2, a3, a4, a5, a6)&#39;.</text>
<!-- Node0xe6230a0 -->
<g id="node1" class="node"><title>Node0xe6230a0</title>
<polygon fill="none" stroke="black" points="200,-915.5 200,-1028.5 259,-1028.5 259,-915.5 200,-915.5"/>
<text text-anchor="start" x="208" y="-1013.3" font-family="Times,serif" font-size="14.00">entry:</text>
<text text-anchor="start" x="208" y="-998.3" font-family="Times,serif" font-size="14.00"> a1</text>
<text text-anchor="start" x="208" y="-983.3" font-family="Times,serif" font-size="14.00"> a2</text>
<text text-anchor="start" x="208" y="-968.3" font-family="Times,serif" font-size="14.00"> a3</text>
<text text-anchor="start" x="208" y="-953.3" font-family="Times,serif" font-size="14.00"> a4</text>
<text text-anchor="start" x="208" y="-938.3" font-family="Times,serif" font-size="14.00"> a5</text>
<text text-anchor="start" x="208" y="-923.3" font-family="Times,serif" font-size="14.00"> a6</text>
</g>
<!-- Node0xe623b30 -->
<g id="node2" class="node"><title>Node0xe623b30</title>
<polygon fill="none" stroke="black" points="174.5,-764.5 174.5,-877.5 284.5,-877.5 284.5,-764.5 174.5,-764.5"/>
<text text-anchor="start" x="182.5" y="-862.3" font-family="Times,serif" font-size="14.00">0x804da10:</text>
<text text-anchor="start" x="182.5" y="-847.3" font-family="Times,serif" font-size="14.00"> g1 = &#45;17280</text>
<text text-anchor="start" x="182.5" y="-832.3" font-family="Times,serif" font-size="14.00"> v1 = g3</text>
<text text-anchor="start" x="182.5" y="-817.3" font-family="Times,serif" font-size="14.00"> g3 = a1</text>
<text text-anchor="start" x="182.5" y="-802.3" font-family="Times,serif" font-size="14.00"> v2 = g7</text>
<text text-anchor="start" x="182.5" y="-787.3" font-family="Times,serif" font-size="14.00"> g7 = a6</text>
<text text-anchor="start" x="182.5" y="-772.3" font-family="Times,serif" font-size="14.00"> v3</text>
</g>
<!-- Node0xe6230a0&#45;&gt;Node0xe623b30 -->
<g id="edge1" class="edge"><title>Node0xe6230a0&#45;&gt;Node0xe623b30</title>
<path fill="none" stroke="black" d="M229.5,-915.094C229.5,-906.214 229.5,-896.958 229.5,-887.876"/>
<polygon fill="black" stroke="black" points="233,-887.724 229.5,-877.724 226,-887.724 233,-887.724"/>
</g>
<!-- Node0xe6231d0 -->
<g id="node3" class="node"><title>Node0xe6231d0</title>
<polygon fill="none" stroke="black" points="57.5,-690.5 57.5,-726.5 401.5,-726.5 401.5,-690.5 57.5,-690.5"/>
<text text-anchor="start" x="65.5" y="-704.8" font-family="Times,serif" font-size="14.00">if (*(IntToPtrCastExpr&lt;ptr&gt;((a1 + 4))) &gt; a6):</text>
</g>
<!-- Node0xe623b30&#45;&gt;Node0xe6231d0 -->
<g id="edge2" class="edge"><title>Node0xe623b30&#45;&gt;Node0xe6231d0</title>
<path fill="none" stroke="black" d="M229.5,-764.426C229.5,-754.86 229.5,-745.307 229.5,-736.913"/>
<polygon fill="black" stroke="black" points="233,-736.644 229.5,-726.644 226,-736.644 233,-736.644"/>
</g>
<!-- Node0xe624270 -->
<g id="node4" class="node"><title>Node0xe624270</title>
<polygon fill="none" stroke="black" points="0,-483.5 0,-566.5 121,-566.5 121,-483.5 0,-483.5"/>
<text text-anchor="start" x="8" y="-551.3" font-family="Times,serif" font-size="14.00">0x804da2c:</text>
<text text-anchor="start" x="8" y="-536.3" font-family="Times,serif" font-size="14.00"> g3 = v1</text>
<text text-anchor="start" x="8" y="-521.3" font-family="Times,serif" font-size="14.00"> g7 = v2</text>
<text text-anchor="start" x="8" y="-506.3" font-family="Times,serif" font-size="14.00"> g2 = v3</text>
<text text-anchor="start" x="8" y="-491.3" font-family="Times,serif" font-size="14.00"> return &#45;17280</text>
</g>
<!-- Node0xe6231d0&#45;&gt;Node0xe624270 -->
<g id="edge3" class="edge"><title>Node0xe6231d0&#45;&gt;Node0xe624270</title>
<path fill="none" stroke="black" d="M103.142,-690.476C85.2766,-685.671 70.8187,-679.607 64.5,-672 42.9568,-646.064 42.7139,-607.682 47.4563,-576.78"/>
<polygon fill="black" stroke="black" points="50.9587,-577.069 49.2321,-566.616 44.0632,-575.864 50.9587,-577.069"/>
<text text-anchor="middle" x="213.5" y="-660.8" font-family="Times,serif" font-size="14.00">*(IntToPtrCastExpr&lt;ptr&gt;((a1 + 4))) &gt; a6</text>
</g>
<!-- Node0xe624090 -->
<g id="node5" class="node"><title>Node0xe624090</title>
<polygon fill="none" stroke="black" points="197.5,-585.5 197.5,-638.5 625.5,-638.5 625.5,-585.5 197.5,-585.5"/>
<text text-anchor="start" x="205.5" y="-623.3" font-family="Times,serif" font-size="14.00">v4 = mbedtls_rsa_pkcs1_verify(a1, 0, 0, 0, a2, a4, a3, a5)</text>
<text text-anchor="start" x="205.5" y="-608.3" font-family="Times,serif" font-size="14.00"> g1 = v4</text>
<text text-anchor="start" x="205.5" y="-593.3" font-family="Times,serif" font-size="14.00"> result = v4</text>
</g>
<!-- Node0xe6231d0&#45;&gt;Node0xe624090 -->
<g id="edge4" class="edge"><title>Node0xe6231d0&#45;&gt;Node0xe624090</title>
<path fill="none" stroke="black" d="M328.359,-690.42C341.804,-685.702 354.937,-679.682 366.5,-672 376.194,-665.56 384.651,-656.317 391.535,-647.052"/>
<polygon fill="black" stroke="black" points="394.566,-648.824 397.407,-638.617 388.821,-644.825 394.566,-648.824"/>
<text text-anchor="middle" x="538.5" y="-660.8" font-family="Times,serif" font-size="14.00">*(IntToPtrCastExpr&lt;ptr&gt;((a1 + 4))) &lt;= a6</text>
</g>
<!-- Node0xe623ab0 -->
<g id="node6" class="node"><title>Node0xe623ab0</title>
<polygon fill="none" stroke="black" points="89.5,-23.5 89.5,-59.5 143.5,-59.5 143.5,-23.5 89.5,-23.5"/>
<text text-anchor="start" x="97.5" y="-37.8" font-family="Times,serif" font-size="14.00">exit:</text>
</g>
<!-- Node0xe624270&#45;&gt;Node0xe623ab0 -->
<g id="edge5" class="edge"><title>Node0xe624270&#45;&gt;Node0xe623ab0</title>
<path fill="none" stroke="black" d="M59.9941,-483.284C59.7461,-459.933 59.5,-430.069 59.5,-403.5 59.5,-403.5 59.5,-403.5 59.5,-138 59.5,-111.209 76.2441,-85.4058 91.5819,-67.3891"/>
<polygon fill="black" stroke="black" points="94.4133,-69.4731 98.4648,-59.6835 89.1928,-64.8099 94.4133,-69.4731"/>
</g>
<!-- Node0x7c23560 -->
<g id="node7" class="node"><title>Node0x7c23560</title>
<polygon fill="none" stroke="black" points="362,-428.5 362,-464.5 467,-464.5 467,-428.5 362,-428.5"/>
<text text-anchor="start" x="370" y="-442.8" font-family="Times,serif" font-size="14.00">if (v4 == 0):</text>
</g>
<!-- Node0xe624090&#45;&gt;Node0x7c23560 -->
<g id="edge6" class="edge"><title>Node0xe624090&#45;&gt;Node0x7c23560</title>
<path fill="none" stroke="black" d="M411.969,-585.453C412.52,-555.406 413.432,-505.724 413.997,-474.897"/>
<polygon fill="black" stroke="black" points="417.498,-474.905 414.182,-464.843 410.499,-474.777 417.498,-474.905"/>
</g>
<!-- Node0xe623c00 -->
<g id="node8" class="node"><title>Node0xe623c00</title>
<polygon fill="none" stroke="black" points="239.5,-323.5 239.5,-376.5 589.5,-376.5 589.5,-323.5 239.5,-323.5"/>
<text text-anchor="start" x="247.5" y="-361.3" font-family="Times,serif" font-size="14.00">0x804da78:</text>
<text text-anchor="start" x="247.5" y="-346.3" font-family="Times,serif" font-size="14.00"> if (g7 &gt; *(IntToPtrCastExpr&lt;ptr&gt;((g3 + 4)))):</text>
<text text-anchor="start" x="247.5" y="-331.3" font-family="Times,serif" font-size="14.00"> else:</text>
</g>
<!-- Node0x7c23560&#45;&gt;Node0xe623c00 -->
<g id="edge7" class="edge"><title>Node0x7c23560&#45;&gt;Node0xe623c00</title>
<path fill="none" stroke="black" d="M414.5,-428.167C414.5,-416.703 414.5,-401.247 414.5,-387.178"/>
<polygon fill="black" stroke="black" points="418,-386.78 414.5,-376.78 411,-386.78 418,-386.78"/>
<text text-anchor="middle" x="444.5" y="-398.8" font-family="Times,serif" font-size="14.00">v4 == 0</text>
</g>
<!-- Node0xe6241a0 -->
<g id="node9" class="node"><title>Node0xe6241a0</title>
<polygon fill="none" stroke="black" points="209,-97.5 209,-180.5 322,-180.5 322,-97.5 209,-97.5"/>
<text text-anchor="start" x="217" y="-165.3" font-family="Times,serif" font-size="14.00">0x804da2c:</text>
<text text-anchor="start" x="217" y="-150.3" font-family="Times,serif" font-size="14.00"> g3 = v1</text>
<text text-anchor="start" x="217" y="-135.3" font-family="Times,serif" font-size="14.00"> g7 = v2</text>
<text text-anchor="start" x="217" y="-120.3" font-family="Times,serif" font-size="14.00"> g2 = v3</text>
<text text-anchor="start" x="217" y="-105.3" font-family="Times,serif" font-size="14.00"> return result</text>
</g>
<!-- Node0x7c23560&#45;&gt;Node0xe6241a0 -->
<g id="edge8" class="edge"><title>Node0x7c23560&#45;&gt;Node0xe6241a0</title>
<path fill="none" stroke="black" d="M467.239,-439.382C570.624,-425.2 784.202,-383.866 716.5,-290 627.949,-167.228 434.713,-143.385 332.3,-139.732"/>
<polygon fill="black" stroke="black" points="332.178,-136.227 322.077,-139.424 331.967,-143.224 332.178,-136.227"/>
<text text-anchor="middle" x="751.5" y="-293.8" font-family="Times,serif" font-size="14.00">v4 != 0</text>
</g>
<!-- Node0xe624840 -->
<g id="node10" class="node"><title>Node0xe624840</title>
<polygon fill="none" stroke="black" points="116,-218.5 116,-271.5 271,-271.5 271,-218.5 116,-218.5"/>
<text text-anchor="start" x="124" y="-256.3" font-family="Times,serif" font-size="14.00">if_804da80_0_true:</text>
<text text-anchor="start" x="124" y="-241.3" font-family="Times,serif" font-size="14.00"> g1 = &#45;14592</text>
<text text-anchor="start" x="124" y="-226.3" font-family="Times,serif" font-size="14.00"> result = &#45;14592</text>
</g>
<!-- Node0xe623c00&#45;&gt;Node0xe624840 -->
<g id="edge9" class="edge"><title>Node0xe623c00&#45;&gt;Node0xe624840</title>
<path fill="none" stroke="black" d="M239.385,-345.51C173.867,-340.178 110.245,-328.743 89.5,-305 76.4711,-290.088 87.5917,-278.097 106.674,-268.921"/>
<polygon fill="black" stroke="black" points="108.16,-272.092 115.943,-264.903 105.376,-265.669 108.16,-272.092"/>
<text text-anchor="middle" x="239.5" y="-293.8" font-family="Times,serif" font-size="14.00">g7 &gt; *(IntToPtrCastExpr&lt;ptr&gt;((g3 + 4)))</text>
</g>
<!-- Node0xe624b50 -->
<g id="node11" class="node"><title>Node0xe624b50</title>
<polygon fill="none" stroke="black" points="316,-227 316,-263 405,-263 405,-227 316,-227"/>
<text text-anchor="start" x="324" y="-241.3" font-family="Times,serif" font-size="14.00">result = 0</text>
</g>
<!-- Node0xe623c00&#45;&gt;Node0xe624b50 -->
<g id="edge10" class="edge"><title>Node0xe623c00&#45;&gt;Node0xe624b50</title>
<path fill="none" stroke="black" d="M407.225,-323.308C403.745,-312.687 399.106,-300.441 393.5,-290 390.101,-283.669 385.849,-277.259 381.539,-271.362"/>
<polygon fill="black" stroke="black" points="384.127,-268.983 375.276,-263.16 378.563,-273.232 384.127,-268.983"/>
<text text-anchor="middle" x="556.5" y="-293.8" font-family="Times,serif" font-size="14.00">g7 &lt;= *(IntToPtrCastExpr&lt;ptr&gt;((g3 + 4)))</text>
</g>
<!-- Node0xe6241a0&#45;&gt;Node0xe623ab0 -->
<g id="edge11" class="edge"><title>Node0xe6241a0&#45;&gt;Node0xe623ab0</title>
<path fill="none" stroke="black" d="M208.744,-101.623C189.555,-89.3241 168.699,-75.9561 151.679,-65.0478"/>
<polygon fill="black" stroke="black" points="153.466,-62.0359 143.158,-59.5864 149.689,-67.9293 153.466,-62.0359"/>
</g>
<!-- Node0xe624840&#45;&gt;Node0xe6241a0 -->
<g id="edge12" class="edge"><title>Node0xe624840&#45;&gt;Node0xe6241a0</title>
<path fill="none" stroke="black" d="M211.298,-218.292C217.414,-209.457 224.482,-199.249 231.451,-189.181"/>
<polygon fill="black" stroke="black" points="234.446,-191.005 237.26,-180.791 228.69,-187.021 234.446,-191.005"/>
</g>
<!-- Node0xe624b50&#45;&gt;Node0xe6241a0 -->
<g id="edge13" class="edge"><title>Node0xe624b50&#45;&gt;Node0xe6241a0</title>
<path fill="none" stroke="black" d="M344.813,-226.827C335.119,-216.215 322.154,-202.021 309.519,-188.19"/>
<polygon fill="black" stroke="black" points="311.885,-185.59 302.557,-180.567 306.717,-190.311 311.885,-185.59"/>
</g>
</g>
</svg>
