<?xml version="1.0" encoding="UTF-8" standalone="no"?>
<!DOCTYPE svg PUBLIC "-//W3C//DTD SVG 1.1//EN"
 "http://www.w3.org/Graphics/SVG/1.1/DTD/svg11.dtd">
<!-- Generated by graphviz version 2.38.0 (20140413.2041)
 -->
<!-- Title: Control&#45;flow graph for function &#39;mbedtls_sha1(a1, a2, a3, a4)&#39;. Pages: 1 -->
<svg width="691pt" height="654pt"
 viewBox="0.00 0.00 691.00 654.00" xmlns="http://www.w3.org/2000/svg" xmlns:xlink="http://www.w3.org/1999/xlink">
<g id="graph0" class="graph" transform="scale(1 1) rotate(0) translate(4 650)">
<title>Control&#45;flow graph for function &#39;mbedtls_sha1(a1, a2, a3, a4)&#39;.</title>
<polygon fill="white" stroke="none" points="-4,4 -4,-650 687,-650 687,4 -4,4"/>
<text text-anchor="middle" x="341.5" y="-7.8" font-family="Times,serif" font-size="14.00">Control&#45;flow graph for function &#39;mbedtls_sha1(a1, a2, a3, a4)&#39;.</text>
<!-- Node0x210ec4f0 -->
<g id="node1" class="node"><title>Node0x210ec4f0</title>
<polygon fill="none" stroke="black" points="340.5,-562.5 340.5,-645.5 399.5,-645.5 399.5,-562.5 340.5,-562.5"/>
<text text-anchor="start" x="348.5" y="-630.3" font-family="Times,serif" font-size="14.00">entry:</text>
<text text-anchor="start" x="348.5" y="-615.3" font-family="Times,serif" font-size="14.00"> a1</text>
<text text-anchor="start" x="348.5" y="-600.3" font-family="Times,serif" font-size="14.00"> a2</text>
<text text-anchor="start" x="348.5" y="-585.3" font-family="Times,serif" font-size="14.00"> a3</text>
<text text-anchor="start" x="348.5" y="-570.3" font-family="Times,serif" font-size="14.00"> a4</text>
</g>
<!-- Node0x8490110 -->
<g id="node2" class="node"><title>Node0x8490110</title>
<polygon fill="none" stroke="black" points="57,-306.5 57,-524.5 683,-524.5 683,-306.5 57,-306.5"/>
<text text-anchor="start" x="65" y="-509.3" font-family="Times,serif" font-size="14.00">v1 = g3</text>
<text text-anchor="start" x="65" y="-494.3" font-family="Times,serif" font-size="14.00"> v2</text>
<text text-anchor="start" x="65" y="-479.3" font-family="Times,serif" font-size="14.00"> v3 = &amp;(v2)</text>
<text text-anchor="start" x="65" y="-464.3" font-family="Times,serif" font-size="14.00"> g3 = v3</text>
<text text-anchor="start" x="65" y="-449.3" font-family="Times,serif" font-size="14.00"> mbedtls_sha1_init(BitCastExpr&lt;ptr&gt;(&amp;(v2)))</text>
<text text-anchor="start" x="65" y="-434.3" font-family="Times,serif" font-size="14.00"> v2 = 0</text>
<text text-anchor="start" x="65" y="-419.3" font-family="Times,serif" font-size="14.00"> g1 = a1</text>
<text text-anchor="start" x="65" y="-404.3" font-family="Times,serif" font-size="14.00"> mbedtls_sha1_update(IntToPtrCastExpr&lt;ptr&gt;(g3), IntToPtrCastExpr&lt;ptr&gt;(a1), a2)</text>
<text text-anchor="start" x="65" y="-389.3" font-family="Times,serif" font-size="14.00"> mbedtls_sha1_finish(IntToPtrCastExpr&lt;ptr&gt;(g3), IntToPtrCastExpr&lt;ptr&gt;(a3))</text>
<text text-anchor="start" x="65" y="-374.3" font-family="Times,serif" font-size="14.00"> g1 = v3</text>
<text text-anchor="start" x="65" y="-359.3" font-family="Times,serif" font-size="14.00"> *(IntToPtrCastExpr&lt;ptr&gt;(v3)) = 0</text>
<text text-anchor="start" x="65" y="-344.3" font-family="Times,serif" font-size="14.00"> v4 = (g1 + 1)</text>
<text text-anchor="start" x="65" y="-329.3" font-family="Times,serif" font-size="14.00"> g1 = v4</text>
<text text-anchor="start" x="65" y="-314.3" font-family="Times,serif" font-size="14.00"> v5</text>
</g>
<!-- Node0x210ec4f0&#45;&gt;Node0x8490110 -->
<g id="edge1" class="edge"><title>Node0x210ec4f0&#45;&gt;Node0x8490110</title>
<path fill="none" stroke="black" d="M370,-562.072C370,-553.716 370,-544.531 370,-534.963"/>
<polygon fill="black" stroke="black" points="373.5,-534.873 370,-524.873 366.5,-534.873 373.5,-534.873"/>
</g>
<!-- Node0x210efb70 -->
<g id="node3" class="node"><title>Node0x210efb70</title>
<polygon fill="none" stroke="black" points="190.5,-232.5 190.5,-268.5 549.5,-268.5 549.5,-232.5 190.5,-232.5"/>
<text text-anchor="start" x="198.5" y="-246.8" font-family="Times,serif" font-size="14.00">while (v4 != PtrToIntCastExpr&lt;int32&gt;(&amp;(v5))):</text>
</g>
<!-- Node0x8490110&#45;&gt;Node0x210efb70 -->
<g id="edge2" class="edge"><title>Node0x8490110&#45;&gt;Node0x210efb70</title>
<path fill="none" stroke="black" d="M370,-306.23C370,-296.204 370,-286.787 370,-278.684"/>
<polygon fill="black" stroke="black" points="373.5,-278.516 370,-268.516 366.5,-278.516 373.5,-278.516"/>
</g>
<!-- Node0x210edb90 -->
<g id="node4" class="node"><title>Node0x210edb90</title>
<polygon fill="none" stroke="black" points="0,-105 0,-173 270,-173 270,-105 0,-105"/>
<text text-anchor="start" x="8" y="-157.8" font-family="Times,serif" font-size="14.00">0x80539f0:</text>
<text text-anchor="start" x="8" y="-142.8" font-family="Times,serif" font-size="14.00"> *(IntToPtrCastExpr&lt;ptr&gt;(v4)) = 0</text>
<text text-anchor="start" x="8" y="-127.8" font-family="Times,serif" font-size="14.00"> v4 = (g1 + 1)</text>
<text text-anchor="start" x="8" y="-112.8" font-family="Times,serif" font-size="14.00"> g1 = v4</text>
</g>
<!-- Node0x210efb70&#45;&gt;Node0x210edb90 -->
<g id="edge3" class="edge"><title>Node0x210efb70&#45;&gt;Node0x210edb90</title>
<path fill="none" stroke="black" d="M190.15,-237.725C132.051,-232.074 80.113,-224.259 71,-214 61.4681,-203.269 65.2017,-191.56 74.4819,-180.688"/>
<polygon fill="black" stroke="black" points="77.2035,-182.911 81.698,-173.317 72.2014,-178.014 77.2035,-182.911"/>
<text text-anchor="middle" x="213.5" y="-202.8" font-family="Times,serif" font-size="14.00">v4 != PtrToIntCastExpr&lt;int32&gt;(&amp;(v5))</text>
</g>
<!-- Node0x210ef290 -->
<g id="node5" class="node"><title>Node0x210ef290</title>
<polygon fill="none" stroke="black" points="354.5,-97.5 354.5,-180.5 451.5,-180.5 451.5,-97.5 354.5,-97.5"/>
<text text-anchor="start" x="362.5" y="-165.3" font-family="Times,serif" font-size="14.00">0x80539fa:</text>
<text text-anchor="start" x="362.5" y="-150.3" font-family="Times,serif" font-size="14.00"> g3 = v1</text>
<text text-anchor="start" x="362.5" y="-135.3" font-family="Times,serif" font-size="14.00"> v6</text>
<text text-anchor="start" x="362.5" y="-120.3" font-family="Times,serif" font-size="14.00"> g2 = v6</text>
<text text-anchor="start" x="362.5" y="-105.3" font-family="Times,serif" font-size="14.00"> return g7</text>
</g>
<!-- Node0x210efb70&#45;&gt;Node0x210ef290 -->
<g id="edge4" class="edge"><title>Node0x210efb70&#45;&gt;Node0x210ef290</title>
<path fill="none" stroke="black" d="M375.411,-232.178C377.204,-226.401 379.201,-219.927 381,-214 383.299,-206.425 385.709,-198.407 388.055,-190.552"/>
<polygon fill="black" stroke="black" points="391.478,-191.32 390.98,-180.737 384.77,-189.321 391.478,-191.32"/>
<text text-anchor="middle" x="531.5" y="-202.8" font-family="Times,serif" font-size="14.00">v4 == PtrToIntCastExpr&lt;int32&gt;(&amp;(v5))</text>
</g>
<!-- Node0x210edb90&#45;&gt;Node0x210efb70 -->
<g id="edge5" class="edge"><title>Node0x210edb90&#45;&gt;Node0x210efb70</title>
<path fill="none" stroke="black" d="M270.15,-152.878C301.686,-161.708 332.794,-176.014 356,-199 362.25,-205.19 365.776,-213.908 367.744,-222.362"/>
<polygon fill="black" stroke="black" points="364.317,-223.086 369.45,-232.354 371.217,-221.907 364.317,-223.086"/>
</g>
<!-- Node0x27e3fa50 -->
<g id="node6" class="node"><title>Node0x27e3fa50</title>
<polygon fill="none" stroke="black" points="376,-23.5 376,-59.5 430,-59.5 430,-23.5 376,-23.5"/>
<text text-anchor="start" x="384" y="-37.8" font-family="Times,serif" font-size="14.00">exit:</text>
</g>
<!-- Node0x210ef290&#45;&gt;Node0x27e3fa50 -->
<g id="edge6" class="edge"><title>Node0x210ef290&#45;&gt;Node0x27e3fa50</title>
<path fill="none" stroke="black" d="M403,-97.4994C403,-88.2058 403,-78.537 403,-69.9459"/>
<polygon fill="black" stroke="black" points="406.5,-69.7494 403,-59.7494 399.5,-69.7494 406.5,-69.7494"/>
</g>
</g>
</svg>
