<?xml version="1.0" encoding="UTF-8" standalone="no"?>
<!DOCTYPE svg PUBLIC "-//W3C//DTD SVG 1.1//EN"
 "http://www.w3.org/Graphics/SVG/1.1/DTD/svg11.dtd">
<!-- Generated by graphviz version 2.38.0 (20140413.2041)
 -->
<!-- Title: Control&#45;flow graph for function &#39;mbedtls_pk_parse_public_keyfile(*a1, a2, a3)&#39;. Pages: 1 -->
<svg width="1158pt" height="923pt"
 viewBox="0.00 0.00 1158.00 923.00" xmlns="http://www.w3.org/2000/svg" xmlns:xlink="http://www.w3.org/1999/xlink">
<g id="graph0" class="graph" transform="scale(1 1) rotate(0) translate(4 919)">
<title>Control&#45;flow graph for function &#39;mbedtls_pk_parse_public_keyfile(*a1, a2, a3)&#39;.</title>
<polygon fill="white" stroke="none" points="-4,4 -4,-919 1154,-919 1154,4 -4,4"/>
<text text-anchor="middle" x="575" y="-7.8" font-family="Times,serif" font-size="14.00">Control&#45;flow graph for function &#39;mbedtls_pk_parse_public_keyfile(*a1, a2, a3)&#39;.</text>
<!-- Node0x1d807130 -->
<g id="node1" class="node"><title>Node0x1d807130</title>
<polygon fill="none" stroke="black" points="315,-846.5 315,-914.5 374,-914.5 374,-846.5 315,-846.5"/>
<text text-anchor="start" x="323" y="-899.3" font-family="Times,serif" font-size="14.00">entry:</text>
<text text-anchor="start" x="323" y="-884.3" font-family="Times,serif" font-size="14.00"> a1</text>
<text text-anchor="start" x="323" y="-869.3" font-family="Times,serif" font-size="14.00"> a2</text>
<text text-anchor="start" x="323" y="-854.3" font-family="Times,serif" font-size="14.00"> a3</text>
</g>
<!-- Node0xda0a850 -->
<g id="node2" class="node"><title>Node0xda0a850</title>
<polygon fill="none" stroke="black" points="0,-725.5 0,-808.5 689,-808.5 689,-725.5 0,-725.5"/>
<text text-anchor="start" x="8" y="-793.3" font-family="Times,serif" font-size="14.00">0x804f280:</text>
<text text-anchor="start" x="8" y="-778.3" font-family="Times,serif" font-size="14.00"> v1</text>
<text text-anchor="start" x="8" y="-763.3" font-family="Times,serif" font-size="14.00"> v2 = IntToPtrCastExpr&lt;ptr&gt;(v1)</text>
<text text-anchor="start" x="8" y="-748.3" font-family="Times,serif" font-size="14.00"> v3</text>
<text text-anchor="start" x="8" y="-733.3" font-family="Times,serif" font-size="14.00"> result = mbedtls_pk_load_file(IntToPtrCastExpr&lt;ptr&gt;(a2), BitCastExpr&lt;ptr&gt;(&amp;(v2)), &amp;(v3))</text>
</g>
<!-- Node0x1d807130&#45;&gt;Node0xda0a850 -->
<g id="edge1" class="edge"><title>Node0x1d807130&#45;&gt;Node0xda0a850</title>
<path fill="none" stroke="black" d="M344.5,-846.348C344.5,-837.674 344.5,-828.121 344.5,-818.758"/>
<polygon fill="black" stroke="black" points="348,-818.722 344.5,-808.722 341,-818.722 348,-818.722"/>
</g>
<!-- Node0xdff3970 -->
<g id="node3" class="node"><title>Node0xdff3970</title>
<polygon fill="none" stroke="black" points="282.5,-651.5 282.5,-687.5 406.5,-687.5 406.5,-651.5 282.5,-651.5"/>
<text text-anchor="start" x="290.5" y="-665.8" font-family="Times,serif" font-size="14.00">if (result != 0):</text>
</g>
<!-- Node0xda0a850&#45;&gt;Node0xdff3970 -->
<g id="edge2" class="edge"><title>Node0xda0a850&#45;&gt;Node0xdff3970</title>
<path fill="none" stroke="black" d="M344.5,-725.499C344.5,-716.206 344.5,-706.537 344.5,-697.946"/>
<polygon fill="black" stroke="black" points="348,-697.749 344.5,-687.749 341,-697.749 348,-697.749"/>
</g>
<!-- Node0xe8b1110 -->
<g id="node4" class="node"><title>Node0xe8b1110</title>
<polygon fill="none" stroke="black" points="214,-504.5 214,-542.5 327,-542.5 327,-504.5 214,-504.5"/>
<text text-anchor="start" x="222" y="-527.3" font-family="Times,serif" font-size="14.00">0x804f2a3:</text>
<text text-anchor="start" x="222" y="-512.3" font-family="Times,serif" font-size="14.00"> return result</text>
</g>
<!-- Node0xdff3970&#45;&gt;Node0xe8b1110 -->
<g id="edge3" class="edge"><title>Node0xdff3970&#45;&gt;Node0xe8b1110</title>
<path fill="none" stroke="black" d="M295.59,-651.405C272.379,-640.539 246.851,-623.928 233.5,-600 225.054,-584.863 226.812,-576.991 233.5,-561 235.061,-557.267 237.211,-553.722 239.695,-550.413"/>
<polygon fill="black" stroke="black" points="242.482,-552.542 246.413,-542.704 237.204,-547.943 242.482,-552.542"/>
<text text-anchor="middle" x="304" y="-621.8" font-family="Times,serif" font-size="14.00">result != 0</text>
</g>
<!-- Node0x1d8636b0 -->
<g id="node5" class="node"><title>Node0x1d8636b0</title>
<polygon fill="none" stroke="black" points="243,-561.5 243,-599.5 1026,-599.5 1026,-561.5 243,-561.5"/>
<text text-anchor="start" x="251" y="-584.3" font-family="Times,serif" font-size="14.00">result2 = mbedtls_pk_parse_public_key(PtrToIntCastExpr&lt;int32&gt;(a1), PtrToIntCastExpr&lt;int32&gt;(v2), v3)</text>
<text text-anchor="start" x="251" y="-569.3" font-family="Times,serif" font-size="14.00"> v4 = PtrToIntCastExpr&lt;int32&gt;(v2)</text>
</g>
<!-- Node0xdff3970&#45;&gt;Node0x1d8636b0 -->
<g id="edge4" class="edge"><title>Node0xdff3970&#45;&gt;Node0x1d8636b0</title>
<path fill="none" stroke="black" d="M401.449,-651.415C448.228,-637.382 514.686,-617.444 564.67,-602.449"/>
<polygon fill="black" stroke="black" points="565.864,-605.745 574.437,-599.519 563.853,-599.04 565.864,-605.745"/>
<text text-anchor="middle" x="550" y="-621.8" font-family="Times,serif" font-size="14.00">result == 0</text>
</g>
<!-- Node0xda0b310 -->
<g id="node6" class="node"><title>Node0xda0b310</title>
<polygon fill="none" stroke="black" points="345.5,-23.5 345.5,-59.5 399.5,-59.5 399.5,-23.5 345.5,-23.5"/>
<text text-anchor="start" x="353.5" y="-37.8" font-family="Times,serif" font-size="14.00">exit:</text>
</g>
<!-- Node0xe8b1110&#45;&gt;Node0xda0b310 -->
<g id="edge5" class="edge"><title>Node0xe8b1110&#45;&gt;Node0xda0b310</title>
<path fill="none" stroke="black" d="M274.7,-504.188C278.824,-484.584 284.5,-452.514 284.5,-424.5 284.5,-424.5 284.5,-424.5 284.5,-130.5 284.5,-99.519 312.109,-75.6355 336.398,-60.6184"/>
<polygon fill="black" stroke="black" points="338.284,-63.5694 345.139,-55.4903 334.742,-57.5317 338.284,-63.5694"/>
</g>
<!-- Node0x1d863760 -->
<g id="node7" class="node"><title>Node0x1d863760</title>
<polygon fill="none" stroke="black" points="552,-449.5 552,-485.5 657,-485.5 657,-449.5 552,-449.5"/>
<text text-anchor="start" x="560" y="-463.8" font-family="Times,serif" font-size="14.00">if (v3 == 0):</text>
</g>
<!-- Node0x1d8636b0&#45;&gt;Node0x1d863760 -->
<g id="edge6" class="edge"><title>Node0x1d8636b0&#45;&gt;Node0x1d863760</title>
<path fill="none" stroke="black" d="M629.546,-561.171C624.728,-543.342 617.35,-516.043 611.848,-495.686"/>
<polygon fill="black" stroke="black" points="615.153,-494.5 609.165,-485.76 608.395,-496.327 615.153,-494.5"/>
</g>
<!-- Node0x1d864230 -->
<g id="node8" class="node"><title>Node0x1d864230</title>
<polygon fill="none" stroke="black" points="302,-272.5 302,-325.5 563,-325.5 563,-272.5 302,-272.5"/>
<text text-anchor="start" x="310" y="-310.3" font-family="Times,serif" font-size="14.00">0x804f2de:</text>
<text text-anchor="start" x="310" y="-295.3" font-family="Times,serif" font-size="14.00"> free(IntToPtrCastExpr&lt;ptr&gt;(v4))</text>
<text text-anchor="start" x="310" y="-280.3" font-family="Times,serif" font-size="14.00"> return result2</text>
</g>
<!-- Node0x1d863760&#45;&gt;Node0x1d864230 -->
<g id="edge7" class="edge"><title>Node0x1d863760&#45;&gt;Node0x1d864230</title>
<path fill="none" stroke="black" d="M551.657,-452.556C521.65,-442.113 485.583,-424.899 462.5,-398 447.6,-380.637 440.1,-355.992 436.324,-335.76"/>
<polygon fill="black" stroke="black" points="439.738,-334.949 434.67,-325.645 432.83,-336.079 439.738,-334.949"/>
<text text-anchor="middle" x="533.5" y="-419.8" font-family="Times,serif" font-size="14.00">v3 == 0</text>
</g>
<!-- Node0x266c9bb0 -->
<g id="node9" class="node"><title>Node0x266c9bb0</title>
<polygon fill="none" stroke="black" points="471.5,-344.5 471.5,-397.5 737.5,-397.5 737.5,-344.5 471.5,-344.5"/>
<text text-anchor="start" x="479.5" y="-382.3" font-family="Times,serif" font-size="14.00">*(IntToPtrCastExpr&lt;ptr&gt;(v4)) = 0</text>
<text text-anchor="start" x="479.5" y="-367.3" font-family="Times,serif" font-size="14.00"> v5 = (v4 + 1)</text>
<text text-anchor="start" x="479.5" y="-352.3" font-family="Times,serif" font-size="14.00"> v6 = (v3 &#45; 1)</text>
</g>
<!-- Node0x1d863760&#45;&gt;Node0x266c9bb0 -->
<g id="edge8" class="edge"><title>Node0x1d863760&#45;&gt;Node0x266c9bb0</title>
<path fill="none" stroke="black" d="M604.5,-449.167C604.5,-437.703 604.5,-422.247 604.5,-408.178"/>
<polygon fill="black" stroke="black" points="608,-407.78 604.5,-397.78 601,-407.78 608,-407.78"/>
<text text-anchor="middle" x="631.5" y="-419.8" font-family="Times,serif" font-size="14.00">v3 != 0</text>
</g>
<!-- Node0x1d864230&#45;&gt;Node0xda0b310 -->
<g id="edge9" class="edge"><title>Node0x1d864230&#45;&gt;Node0xda0b310</title>
<path fill="none" stroke="black" d="M423.171,-272.017C413.994,-245.62 400.137,-203.411 391.5,-166 383.976,-133.41 378.623,-95.2781 375.555,-70.1015"/>
<polygon fill="black" stroke="black" points="378.991,-69.3565 374.344,-59.8356 372.04,-70.1769 378.991,-69.3565"/>
</g>
<!-- Node0x1d863e20 -->
<g id="node10" class="node"><title>Node0x1d863e20</title>
<polygon fill="none" stroke="black" points="540.5,-217.5 540.5,-253.5 668.5,-253.5 668.5,-217.5 540.5,-217.5"/>
<text text-anchor="start" x="548.5" y="-231.8" font-family="Times,serif" font-size="14.00">while (v6 != 0):</text>
</g>
<!-- Node0x266c9bb0&#45;&gt;Node0x1d863e20 -->
<g id="edge10" class="edge"><title>Node0x266c9bb0&#45;&gt;Node0x1d863e20</title>
<path fill="none" stroke="black" d="M604.5,-344.26C604.5,-321.131 604.5,-287.278 604.5,-263.709"/>
<polygon fill="black" stroke="black" points="608,-263.679 604.5,-253.679 601,-263.68 608,-263.679"/>
</g>
<!-- Node0x1d8642d0 -->
<g id="node11" class="node"><title>Node0x1d8642d0</title>
<polygon fill="none" stroke="black" points="400.5,-97.5 400.5,-165.5 670.5,-165.5 670.5,-97.5 400.5,-97.5"/>
<text text-anchor="start" x="408.5" y="-150.3" font-family="Times,serif" font-size="14.00">0x804f2d0:</text>
<text text-anchor="start" x="408.5" y="-135.3" font-family="Times,serif" font-size="14.00"> *(IntToPtrCastExpr&lt;ptr&gt;(v5)) = 0</text>
<text text-anchor="start" x="408.5" y="-120.3" font-family="Times,serif" font-size="14.00"> v5 = (v5 + 1)</text>
<text text-anchor="start" x="408.5" y="-105.3" font-family="Times,serif" font-size="14.00"> v6 = (v6 &#45; 1)</text>
</g>
<!-- Node0x1d863e20&#45;&gt;Node0x1d8642d0 -->
<g id="edge11" class="edge"><title>Node0x1d863e20&#45;&gt;Node0x1d8642d0</title>
<path fill="none" stroke="black" d="M555.691,-217.443C548.071,-212.647 541.182,-206.596 536.5,-199 532.24,-192.089 530.245,-183.957 529.592,-175.797"/>
<polygon fill="black" stroke="black" points="533.087,-175.473 529.412,-165.536 526.088,-175.596 533.087,-175.473"/>
<text text-anchor="middle" x="563.5" y="-187.8" font-family="Times,serif" font-size="14.00">v6 != 0</text>
</g>
<!-- Node0x1d8640c0 -->
<g id="node12" class="node"><title>Node0x1d8640c0</title>
<polygon fill="none" stroke="black" points="689,-105 689,-158 1150,-158 1150,-105 689,-105"/>
<text text-anchor="start" x="697" y="-142.8" font-family="Times,serif" font-size="14.00">0x804f2de:</text>
<text text-anchor="start" x="697" y="-127.8" font-family="Times,serif" font-size="14.00"> free(IntToPtrCastExpr&lt;ptr&gt;(PtrToIntCastExpr&lt;int32&gt;(v2)))</text>
<text text-anchor="start" x="697" y="-112.8" font-family="Times,serif" font-size="14.00"> return result2</text>
</g>
<!-- Node0x1d863e20&#45;&gt;Node0x1d8640c0 -->
<g id="edge12" class="edge"><title>Node0x1d863e20&#45;&gt;Node0x1d8640c0</title>
<path fill="none" stroke="black" d="M657.224,-217.427C704.575,-202.095 775.05,-179.274 831.025,-161.149"/>
<polygon fill="black" stroke="black" points="832.152,-164.463 840.587,-158.053 829.995,-157.804 832.152,-164.463"/>
<text text-anchor="middle" x="782.5" y="-187.8" font-family="Times,serif" font-size="14.00">v6 == 0</text>
</g>
<!-- Node0x1d8642d0&#45;&gt;Node0x1d863e20 -->
<g id="edge13" class="edge"><title>Node0x1d8642d0&#45;&gt;Node0x1d863e20</title>
<path fill="none" stroke="black" d="M576.259,-165.619C581.599,-171.316 586.571,-177.51 590.5,-184 594.759,-191.035 597.755,-199.398 599.85,-207.274"/>
<polygon fill="black" stroke="black" points="596.477,-208.225 602.115,-217.195 603.302,-206.667 596.477,-208.225"/>
</g>
<!-- Node0x1d8640c0&#45;&gt;Node0xda0b310 -->
<g id="edge14" class="edge"><title>Node0x1d8640c0&#45;&gt;Node0xda0b310</title>
<path fill="none" stroke="black" d="M760.918,-104.988C639.386,-85.436 480.853,-59.9315 409.795,-48.5"/>
<polygon fill="black" stroke="black" points="409.99,-44.9863 399.561,-46.8534 408.878,-51.8974 409.99,-44.9863"/>
</g>
</g>
</svg>
