<?xml version="1.0" encoding="UTF-8" standalone="no"?>
<!DOCTYPE svg PUBLIC "-//W3C//DTD SVG 1.1//EN"
 "http://www.w3.org/Graphics/SVG/1.1/DTD/svg11.dtd">
<!-- Generated by graphviz version 2.38.0 (20140413.2041)
 -->
<!-- Title: Control&#45;flow graph for function &#39;block_cipher_df(a1, a2, a3)&#39;. Pages: 1 -->
<svg width="991pt" height="3194pt"
 viewBox="0.00 0.00 991.00 3194.00" xmlns="http://www.w3.org/2000/svg" xmlns:xlink="http://www.w3.org/1999/xlink">
<g id="graph0" class="graph" transform="scale(1 1) rotate(0) translate(4 3190)">
<title>Control&#45;flow graph for function &#39;block_cipher_df(a1, a2, a3)&#39;.</title>
<polygon fill="white" stroke="none" points="-4,4 -4,-3190 987,-3190 987,4 -4,4"/>
<text text-anchor="middle" x="491.5" y="-7.8" font-family="Times,serif" font-size="14.00">Control&#45;flow graph for function &#39;block_cipher_df(a1, a2, a3)&#39;.</text>
<!-- Node0x9ac2d90 -->
<g id="node1" class="node"><title>Node0x9ac2d90</title>
<polygon fill="none" stroke="black" points="145,-3117.5 145,-3185.5 204,-3185.5 204,-3117.5 145,-3117.5"/>
<text text-anchor="start" x="153" y="-3170.3" font-family="Times,serif" font-size="14.00">entry:</text>
<text text-anchor="start" x="153" y="-3155.3" font-family="Times,serif" font-size="14.00"> a1</text>
<text text-anchor="start" x="153" y="-3140.3" font-family="Times,serif" font-size="14.00"> a2</text>
<text text-anchor="start" x="153" y="-3125.3" font-family="Times,serif" font-size="14.00"> a3</text>
</g>
<!-- Node0x3a485d0 -->
<g id="node2" class="node"><title>Node0x3a485d0</title>
<polygon fill="none" stroke="black" points="133,-2966.5 133,-3079.5 216,-3079.5 216,-2966.5 133,-2966.5"/>
<text text-anchor="start" x="141" y="-3064.3" font-family="Times,serif" font-size="14.00">v1 = g5</text>
<text text-anchor="start" x="141" y="-3049.3" font-family="Times,serif" font-size="14.00"> v2 = g7</text>
<text text-anchor="start" x="141" y="-3034.3" font-family="Times,serif" font-size="14.00"> v3 = g3</text>
<text text-anchor="start" x="141" y="-3019.3" font-family="Times,serif" font-size="14.00"> v4 = g4</text>
<text text-anchor="start" x="141" y="-3004.3" font-family="Times,serif" font-size="14.00"> v5 = g1</text>
<text text-anchor="start" x="141" y="-2989.3" font-family="Times,serif" font-size="14.00"> g1 = &#45;56</text>
<text text-anchor="start" x="141" y="-2974.3" font-family="Times,serif" font-size="14.00"> v6</text>
</g>
<!-- Node0x9ac2d90&#45;&gt;Node0x3a485d0 -->
<g id="edge1" class="edge"><title>Node0x9ac2d90&#45;&gt;Node0x3a485d0</title>
<path fill="none" stroke="black" d="M174.5,-3117.26C174.5,-3108.68 174.5,-3099.14 174.5,-3089.52"/>
<polygon fill="black" stroke="black" points="178,-3089.51 174.5,-3079.51 171,-3089.51 178,-3089.51"/>
</g>
<!-- Node0x1d887680 -->
<g id="node3" class="node"><title>Node0x1d887680</title>
<polygon fill="none" stroke="black" points="113,-2892.5 113,-2928.5 236,-2928.5 236,-2892.5 113,-2892.5"/>
<text text-anchor="start" x="121" y="-2906.8" font-family="Times,serif" font-size="14.00">if (v4 &gt;= 385):</text>
</g>
<!-- Node0x3a485d0&#45;&gt;Node0x1d887680 -->
<g id="edge2" class="edge"><title>Node0x3a485d0&#45;&gt;Node0x1d887680</title>
<path fill="none" stroke="black" d="M174.5,-2966.43C174.5,-2956.86 174.5,-2947.31 174.5,-2938.91"/>
<polygon fill="black" stroke="black" points="178,-2938.64 174.5,-2928.64 171,-2938.64 178,-2938.64"/>
</g>
<!-- Node0x2614cb20 -->
<g id="node4" class="node"><title>Node0x2614cb20</title>
<polygon fill="none" stroke="black" points="0,-2445.5 0,-2543.5 101,-2543.5 101,-2445.5 0,-2445.5"/>
<text text-anchor="start" x="8" y="-2528.3" font-family="Times,serif" font-size="14.00">0x804b971:</text>
<text text-anchor="start" x="8" y="-2513.3" font-family="Times,serif" font-size="14.00"> g3 = v3</text>
<text text-anchor="start" x="8" y="-2498.3" font-family="Times,serif" font-size="14.00"> g7 = v2</text>
<text text-anchor="start" x="8" y="-2483.3" font-family="Times,serif" font-size="14.00"> g5 = v1</text>
<text text-anchor="start" x="8" y="-2468.3" font-family="Times,serif" font-size="14.00"> g2 = v6</text>
<text text-anchor="start" x="8" y="-2453.3" font-family="Times,serif" font-size="14.00"> return &#45;56</text>
</g>
<!-- Node0x1d887680&#45;&gt;Node0x2614cb20 -->
<g id="edge3" class="edge"><title>Node0x1d887680&#45;&gt;Node0x2614cb20</title>
<path fill="none" stroke="black" d="M154.431,-2892.22C149.231,-2886.85 144.091,-2880.6 140.5,-2874 83.9288,-2770.11 62.6387,-2631.22 54.8332,-2553.84"/>
<polygon fill="black" stroke="black" points="58.3085,-2553.41 53.8614,-2543.8 51.341,-2554.09 58.3085,-2553.41"/>
<text text-anchor="middle" x="179.5" y="-2862.8" font-family="Times,serif" font-size="14.00">v4 &gt;= 385</text>
</g>
<!-- Node0x3a48450 -->
<g id="node5" class="node"><title>Node0x3a48450</title>
<polygon fill="none" stroke="black" points="143.5,-2562.5 143.5,-2840.5 703.5,-2840.5 703.5,-2562.5 143.5,-2562.5"/>
<text text-anchor="start" x="151.5" y="-2825.3" font-family="Times,serif" font-size="14.00">0x804b97c:</text>
<text text-anchor="start" x="151.5" y="-2810.3" font-family="Times,serif" font-size="14.00"> v7</text>
<text text-anchor="start" x="151.5" y="-2795.3" font-family="Times,serif" font-size="14.00"> v8 = &amp;(v7)</text>
<text text-anchor="start" x="151.5" y="-2780.3" font-family="Times,serif" font-size="14.00"> g5 = v8</text>
<text text-anchor="start" x="151.5" y="-2765.3" font-family="Times,serif" font-size="14.00"> v9</text>
<text text-anchor="start" x="151.5" y="-2750.3" font-family="Times,serif" font-size="14.00"> memset(BitCastExpr&lt;ptr&gt;(&amp;(v7)), PtrToIntCastExpr&lt;int32&gt;(&amp;(v9)), 104)</text>
<text text-anchor="start" x="151.5" y="-2735.3" font-family="Times,serif" font-size="14.00"> v10</text>
<text text-anchor="start" x="151.5" y="-2720.3" font-family="Times,serif" font-size="14.00"> v11 = &amp;(v10)</text>
<text text-anchor="start" x="151.5" y="-2705.3" font-family="Times,serif" font-size="14.00"> mbedtls_aes_init(BitCastExpr&lt;ptr&gt;(&amp;(v10)))</text>
<text text-anchor="start" x="151.5" y="-2690.3" font-family="Times,serif" font-size="14.00"> v12</text>
<text text-anchor="start" x="151.5" y="-2675.3" font-family="Times,serif" font-size="14.00"> memcpy(BitCastExpr&lt;ptr&gt;(&amp;(v12)), IntToPtrCastExpr&lt;ptr&gt;(g6), v4)</text>
<text text-anchor="start" x="151.5" y="-2660.3" font-family="Times,serif" font-size="14.00"> v13</text>
<text text-anchor="start" x="151.5" y="-2645.3" font-family="Times,serif" font-size="14.00"> v14 = &amp;(v13)</text>
<text text-anchor="start" x="151.5" y="-2630.3" font-family="Times,serif" font-size="14.00"> v15 = 0</text>
<text text-anchor="start" x="151.5" y="-2615.3" font-family="Times,serif" font-size="14.00"> *(IntToPtrCastExpr&lt;ptr&gt;(((g2 &#45; 792) + v4))) = &#45;128</text>
<text text-anchor="start" x="151.5" y="-2600.3" font-family="Times,serif" font-size="14.00"> v16 = v15</text>
<text text-anchor="start" x="151.5" y="-2585.3" font-family="Times,serif" font-size="14.00"> *(IntToPtrCastExpr&lt;ptr&gt;(((v16 &#45; 72) + g2))) = TruncCastExpr&lt;int8&gt;(v16)</text>
<text text-anchor="start" x="151.5" y="-2570.3" font-family="Times,serif" font-size="14.00"> v17 = (v15 + 1)</text>
</g>
<!-- Node0x1d887680&#45;&gt;Node0x3a48450 -->
<g id="edge4" class="edge"><title>Node0x1d887680&#45;&gt;Node0x3a48450</title>
<path fill="none" stroke="black" d="M195.301,-2892.21C208.894,-2880.91 228.084,-2864.95 249.627,-2847.04"/>
<polygon fill="black" stroke="black" points="251.888,-2849.72 257.34,-2840.63 247.413,-2844.33 251.888,-2849.72"/>
<text text-anchor="middle" x="268.5" y="-2862.8" font-family="Times,serif" font-size="14.00">v4 &lt; 385</text>
</g>
<!-- Node0x3a48570 -->
<g id="node6" class="node"><title>Node0x3a48570</title>
<polygon fill="none" stroke="black" points="168.5,-23.5 168.5,-59.5 222.5,-59.5 222.5,-23.5 168.5,-23.5"/>
<text text-anchor="start" x="176.5" y="-37.8" font-family="Times,serif" font-size="14.00">exit:</text>
</g>
<!-- Node0x2614cb20&#45;&gt;Node0x3a48570 -->
<g id="edge5" class="edge"><title>Node0x2614cb20&#45;&gt;Node0x3a48570</title>
<path fill="none" stroke="black" d="M48.8421,-2445.49C48.1482,-2421.47 47.5,-2391.95 47.5,-2365.5 47.5,-2365.5 47.5,-2365.5 47.5,-190.5 47.5,-148.095 39.6463,-129.818 66.5,-97 89.3624,-69.0594 129.105,-55.1957 158.453,-48.4792"/>
<polygon fill="black" stroke="black" points="159.293,-51.879 168.355,-46.3902 157.848,-45.0298 159.293,-51.879"/>
</g>
<!-- Node0xc6fc690 -->
<g id="node7" class="node"><title>Node0xc6fc690</title>
<polygon fill="none" stroke="black" points="366.5,-2390.5 366.5,-2426.5 512.5,-2426.5 512.5,-2390.5 366.5,-2390.5"/>
<text text-anchor="start" x="374.5" y="-2404.8" font-family="Times,serif" font-size="14.00">while (v17 != 32):</text>
</g>
<!-- Node0x3a48450&#45;&gt;Node0xc6fc690 -->
<g id="edge6" class="edge"><title>Node0x3a48450&#45;&gt;Node0xc6fc690</title>
<path fill="none" stroke="black" d="M431.102,-2562.24C433.718,-2514.65 436.392,-2466.02 437.999,-2436.79"/>
<polygon fill="black" stroke="black" points="441.506,-2436.76 438.561,-2426.58 434.517,-2436.38 441.506,-2436.76"/>
</g>
<!-- Node0x2614cc90 -->
<g id="node8" class="node"><title>Node0x2614cc90</title>
<polygon fill="none" stroke="black" points="75.5,-2240.5 75.5,-2308.5 635.5,-2308.5 635.5,-2240.5 75.5,-2240.5"/>
<text text-anchor="start" x="83.5" y="-2293.3" font-family="Times,serif" font-size="14.00">0x804ba10:</text>
<text text-anchor="start" x="83.5" y="-2278.3" font-family="Times,serif" font-size="14.00"> v16 = v17</text>
<text text-anchor="start" x="83.5" y="-2263.3" font-family="Times,serif" font-size="14.00"> *(IntToPtrCastExpr&lt;ptr&gt;(((v16 &#45; 72) + g2))) = TruncCastExpr&lt;int8&gt;(v16)</text>
<text text-anchor="start" x="83.5" y="-2248.3" font-family="Times,serif" font-size="14.00"> v17 = (v17 + 1)</text>
</g>
<!-- Node0xc6fc690&#45;&gt;Node0x2614cc90 -->
<g id="edge7" class="edge"><title>Node0xc6fc690&#45;&gt;Node0x2614cc90</title>
<path fill="none" stroke="black" d="M374.84,-2390.5C366.817,-2385.76 359.642,-2379.72 354.5,-2372 344.204,-2356.54 343.012,-2336.37 344.971,-2318.48"/>
<polygon fill="black" stroke="black" points="348.442,-2318.93 346.394,-2308.53 341.513,-2317.94 348.442,-2318.93"/>
<text text-anchor="middle" x="390.5" y="-2360.8" font-family="Times,serif" font-size="14.00">v17 != 32</text>
</g>
<!-- Node0x1d887750 -->
<g id="node9" class="node"><title>Node0x1d887750</title>
<polygon fill="none" stroke="black" points="654,-2210.5 654,-2338.5 983,-2338.5 983,-2210.5 654,-2210.5"/>
<text text-anchor="start" x="662" y="-2323.3" font-family="Times,serif" font-size="14.00">0x804ba1c:</text>
<text text-anchor="start" x="662" y="-2308.3" font-family="Times,serif" font-size="14.00"> g5 = v14</text>
<text text-anchor="start" x="662" y="-2293.3" font-family="Times,serif" font-size="14.00"> v18</text>
<text text-anchor="start" x="662" y="-2278.3" font-family="Times,serif" font-size="14.00"> g3 = &amp;(v18)</text>
<text text-anchor="start" x="662" y="-2263.3" font-family="Times,serif" font-size="14.00"> mbedtls_aes_setkey_enc(&amp;(v10), v14, 256)</text>
<text text-anchor="start" x="662" y="-2248.3" font-family="Times,serif" font-size="14.00"> v19</text>
<text text-anchor="start" x="662" y="-2233.3" font-family="Times,serif" font-size="14.00"> v20 = &amp;(v19)</text>
<text text-anchor="start" x="662" y="-2218.3" font-family="Times,serif" font-size="14.00"> v21 = v20</text>
</g>
<!-- Node0xc6fc690&#45;&gt;Node0x1d887750 -->
<g id="edge8" class="edge"><title>Node0xc6fc690&#45;&gt;Node0x1d887750</title>
<path fill="none" stroke="black" d="M491.875,-2390.44C531.188,-2377.53 586.566,-2359.14 644.065,-2339.13"/>
<polygon fill="black" stroke="black" points="645.396,-2342.38 653.685,-2335.78 643.09,-2335.77 645.396,-2342.38"/>
<text text-anchor="middle" x="626.5" y="-2360.8" font-family="Times,serif" font-size="14.00">v17 == 32</text>
</g>
<!-- Node0x2614cc90&#45;&gt;Node0xc6fc690 -->
<g id="edge9" class="edge"><title>Node0x2614cc90&#45;&gt;Node0xc6fc690</title>
<path fill="none" stroke="black" d="M390.523,-2308.52C403.474,-2322.4 417.239,-2339.4 426.5,-2357 430.31,-2364.24 433.05,-2372.67 435.001,-2380.53"/>
<polygon fill="black" stroke="black" points="431.602,-2381.38 437.135,-2390.41 438.444,-2379.9 431.602,-2381.38"/>
</g>
<!-- Node0x17c893c0 -->
<g id="node10" class="node"><title>Node0x17c893c0</title>
<polygon fill="none" stroke="black" points="697,-2134.5 697,-2172.5 798,-2172.5 798,-2134.5 697,-2134.5"/>
<text text-anchor="start" x="705" y="-2157.3" font-family="Times,serif" font-size="14.00">0x804ba45:</text>
<text text-anchor="start" x="705" y="-2142.3" font-family="Times,serif" font-size="14.00"> while True:</text>
</g>
<!-- Node0x1d887750&#45;&gt;Node0x17c893c0 -->
<g id="edge10" class="edge"><title>Node0x1d887750&#45;&gt;Node0x17c893c0</title>
<path fill="none" stroke="black" d="M780.713,-2210.17C774.682,-2200.06 768.739,-2190.1 763.584,-2181.46"/>
<polygon fill="black" stroke="black" points="766.464,-2179.45 758.334,-2172.66 760.452,-2183.04 766.464,-2179.45"/>
</g>
<!-- Node0x2614ccf0 -->
<g id="node11" class="node"><title>Node0x2614ccf0</title>
<polygon fill="none" stroke="black" points="591,-2014.5 591,-2082.5 718,-2082.5 718,-2014.5 591,-2014.5"/>
<text text-anchor="start" x="599" y="-2067.3" font-family="Times,serif" font-size="14.00">0x804ba45:</text>
<text text-anchor="start" x="599" y="-2052.3" font-family="Times,serif" font-size="14.00"> g5 = (v4 + 25)</text>
<text text-anchor="start" x="599" y="-2037.3" font-family="Times,serif" font-size="14.00"> g7 = v8</text>
<text text-anchor="start" x="599" y="-2022.3" font-family="Times,serif" font-size="14.00"> v18 = 0</text>
</g>
<!-- Node0x17c893c0&#45;&gt;Node0x2614ccf0 -->
<g id="edge11" class="edge"><title>Node0x17c893c0&#45;&gt;Node0x2614ccf0</title>
<path fill="none" stroke="black" d="M720.548,-2134.43C713.309,-2128.95 705.76,-2122.62 699.5,-2116 692.386,-2108.48 685.613,-2099.73 679.582,-2091.09"/>
<polygon fill="black" stroke="black" points="682.308,-2088.88 673.813,-2082.55 676.506,-2092.79 682.308,-2088.88"/>
<text text-anchor="middle" x="716.5" y="-2104.8" font-family="Times,serif" font-size="14.00">True</text>
</g>
<!-- Node0x16531290 -->
<g id="node12" class="node"><title>Node0x16531290</title>
<polygon fill="none" stroke="black" points="606,-1940.5 606,-1976.5 703,-1976.5 703,-1940.5 606,-1940.5"/>
<text text-anchor="start" x="614" y="-1954.8" font-family="Times,serif" font-size="14.00">while True:</text>
</g>
<!-- Node0x2614ccf0&#45;&gt;Node0x16531290 -->
<g id="edge12" class="edge"><title>Node0x2614ccf0&#45;&gt;Node0x16531290</title>
<path fill="none" stroke="black" d="M654.5,-2014.48C654.5,-2005.33 654.5,-1995.5 654.5,-1986.72"/>
<polygon fill="black" stroke="black" points="658,-1986.64 654.5,-1976.64 651,-1986.64 658,-1986.64"/>
</g>
<!-- Node0x165312f0 -->
<g id="node13" class="node"><title>Node0x165312f0</title>
<polygon fill="none" stroke="black" points="525,-1820.5 525,-1888.5 626,-1888.5 626,-1820.5 525,-1820.5"/>
<text text-anchor="start" x="533" y="-1873.3" font-family="Times,serif" font-size="14.00">0x804ba70:</text>
<text text-anchor="start" x="533" y="-1858.3" font-family="Times,serif" font-size="14.00"> v15 = 0</text>
<text text-anchor="start" x="533" y="-1843.3" font-family="Times,serif" font-size="14.00"> v22 = 0</text>
<text text-anchor="start" x="533" y="-1828.3" font-family="Times,serif" font-size="14.00"> v23 = v8</text>
</g>
<!-- Node0x16531290&#45;&gt;Node0x165312f0 -->
<g id="edge13" class="edge"><title>Node0x16531290&#45;&gt;Node0x165312f0</title>
<path fill="none" stroke="black" d="M626.573,-1940.46C619.408,-1935.17 612.14,-1928.9 606.5,-1922 600.64,-1914.83 595.608,-1906.37 591.407,-1897.93"/>
<polygon fill="black" stroke="black" points="594.569,-1896.43 587.174,-1888.84 588.223,-1899.38 594.569,-1896.43"/>
<text text-anchor="middle" x="623.5" y="-1910.8" font-family="Times,serif" font-size="14.00">True</text>
</g>
<!-- Node0x16531350 -->
<g id="node14" class="node"><title>Node0x16531350</title>
<polygon fill="none" stroke="black" points="527,-1746.5 527,-1782.5 624,-1782.5 624,-1746.5 527,-1746.5"/>
<text text-anchor="start" x="535" y="-1760.8" font-family="Times,serif" font-size="14.00">while True:</text>
</g>
<!-- Node0x165312f0&#45;&gt;Node0x16531350 -->
<g id="edge14" class="edge"><title>Node0x165312f0&#45;&gt;Node0x16531350</title>
<path fill="none" stroke="black" d="M575.5,-1820.48C575.5,-1811.33 575.5,-1801.5 575.5,-1792.72"/>
<polygon fill="black" stroke="black" points="579,-1792.64 575.5,-1782.64 572,-1792.64 579,-1792.64"/>
</g>
<!-- Node0x165313b0 -->
<g id="node15" class="node"><title>Node0x165313b0</title>
<polygon fill="none" stroke="black" points="152.5,-1611.5 152.5,-1694.5 582.5,-1694.5 582.5,-1611.5 152.5,-1611.5"/>
<text text-anchor="start" x="160.5" y="-1679.3" font-family="Times,serif" font-size="14.00">v24 = IntToPtrCastExpr&lt;ptr&gt;((g3 + v22))</text>
<text text-anchor="start" x="160.5" y="-1664.3" font-family="Times,serif" font-size="14.00"> v25 = *(v24)</text>
<text text-anchor="start" x="160.5" y="-1649.3" font-family="Times,serif" font-size="14.00"> *(v24) = (v25 ^ *(IntToPtrCastExpr&lt;ptr&gt;((v23 + v22))))</text>
<text text-anchor="start" x="160.5" y="-1634.3" font-family="Times,serif" font-size="14.00"> v26 = (v15 + 1)</text>
<text text-anchor="start" x="160.5" y="-1619.3" font-family="Times,serif" font-size="14.00"> v15 = v26</text>
</g>
<!-- Node0x16531350&#45;&gt;Node0x165313b0 -->
<g id="edge15" class="edge"><title>Node0x16531350&#45;&gt;Node0x165313b0</title>
<path fill="none" stroke="black" d="M543,-1746.39C519.082,-1733.8 485.384,-1716.06 453.903,-1699.49"/>
<polygon fill="black" stroke="black" points="455.135,-1696.18 444.656,-1694.62 451.874,-1702.37 455.135,-1696.18"/>
<text text-anchor="middle" x="518.5" y="-1716.8" font-family="Times,serif" font-size="14.00">True</text>
</g>
<!-- Node0x244cb770 -->
<g id="node16" class="node"><title>Node0x244cb770</title>
<polygon fill="none" stroke="black" points="340,-1537.5 340,-1573.5 463,-1573.5 463,-1537.5 340,-1537.5"/>
<text text-anchor="start" x="348" y="-1551.8" font-family="Times,serif" font-size="14.00">if (v26 == 16):</text>
</g>
<!-- Node0x165313b0&#45;&gt;Node0x244cb770 -->
<g id="edge16" class="edge"><title>Node0x165313b0&#45;&gt;Node0x244cb770</title>
<path fill="none" stroke="black" d="M381.919,-1611.5C385.301,-1602 388.823,-1592.11 391.932,-1583.37"/>
<polygon fill="black" stroke="black" points="395.302,-1584.34 395.359,-1573.75 388.708,-1582 395.302,-1584.34"/>
</g>
<!-- Node0x244cb920 -->
<g id="node17" class="node"><title>Node0x244cb920</title>
<polygon fill="none" stroke="black" points="358.5,-1440 358.5,-1478 444.5,-1478 444.5,-1440 358.5,-1440"/>
<text text-anchor="start" x="366.5" y="-1462.8" font-family="Times,serif" font-size="14.00">v27 = g5</text>
<text text-anchor="start" x="366.5" y="-1447.8" font-family="Times,serif" font-size="14.00"> v28 = 16</text>
</g>
<!-- Node0x244cb770&#45;&gt;Node0x244cb920 -->
<g id="edge17" class="edge"><title>Node0x244cb770&#45;&gt;Node0x244cb920</title>
<path fill="none" stroke="black" d="M401.5,-1537.17C401.5,-1523.57 401.5,-1504.37 401.5,-1488.52"/>
<polygon fill="black" stroke="black" points="405,-1488.19 401.5,-1478.19 398,-1488.19 405,-1488.19"/>
<text text-anchor="middle" x="440.5" y="-1507.8" font-family="Times,serif" font-size="14.00">v26 == 16</text>
</g>
<!-- Node0x244cb850 -->
<g id="node18" class="node"><title>Node0x244cb850</title>
<polygon fill="none" stroke="black" points="496,-1432.5 496,-1485.5 597,-1485.5 597,-1432.5 496,-1432.5"/>
<text text-anchor="start" x="504" y="-1470.3" font-family="Times,serif" font-size="14.00">0x804ba78:</text>
<text text-anchor="start" x="504" y="-1455.3" font-family="Times,serif" font-size="14.00"> v22 = v26</text>
<text text-anchor="start" x="504" y="-1440.3" font-family="Times,serif" font-size="14.00"> v23 = g7</text>
</g>
<!-- Node0x244cb770&#45;&gt;Node0x244cb850 -->
<g id="edge18" class="edge"><title>Node0x244cb770&#45;&gt;Node0x244cb850</title>
<path fill="none" stroke="black" d="M448.481,-1537.45C460.33,-1532.28 472.734,-1526.06 483.5,-1519 494.882,-1511.53 506.12,-1501.94 515.882,-1492.66"/>
<polygon fill="black" stroke="black" points="518.329,-1495.16 523.037,-1485.67 513.438,-1490.16 518.329,-1495.16"/>
<text text-anchor="middle" x="537.5" y="-1507.8" font-family="Times,serif" font-size="14.00">v26 != 16</text>
</g>
<!-- Node0x1d8885b0 -->
<g id="node19" class="node"><title>Node0x1d8885b0</title>
<polygon fill="none" stroke="black" points="346,-1358.5 346,-1394.5 457,-1394.5 457,-1358.5 346,-1358.5"/>
<text text-anchor="start" x="354" y="-1372.8" font-family="Times,serif" font-size="14.00">if (v27 &lt; 17):</text>
</g>
<!-- Node0x244cb920&#45;&gt;Node0x1d8885b0 -->
<g id="edge19" class="edge"><title>Node0x244cb920&#45;&gt;Node0x1d8885b0</title>
<path fill="none" stroke="black" d="M401.5,-1439.73C401.5,-1429.36 401.5,-1416.18 401.5,-1404.63"/>
<polygon fill="black" stroke="black" points="405,-1404.59 401.5,-1394.59 398,-1404.59 405,-1404.59"/>
</g>
<!-- Node0x244cb850&#45;&gt;Node0x16531350 -->
<g id="edge20" class="edge"><title>Node0x244cb850&#45;&gt;Node0x16531350</title>
<path fill="none" stroke="black" d="M567.733,-1485.8C571.533,-1491.51 575.055,-1497.73 577.5,-1504 608.433,-1583.3 601.244,-1610.44 591.5,-1695 589.905,-1708.84 586.555,-1723.94 583.331,-1736.44"/>
<polygon fill="black" stroke="black" points="579.913,-1735.67 580.693,-1746.24 586.672,-1737.49 579.913,-1735.67"/>
</g>
<!-- Node0x2614ca60 -->
<g id="node20" class="node"><title>Node0x2614ca60</title>
<polygon fill="none" stroke="black" points="274.5,-1268.5 274.5,-1306.5 428.5,-1306.5 428.5,-1268.5 274.5,-1268.5"/>
<text text-anchor="start" x="282.5" y="-1291.3" font-family="Times,serif" font-size="14.00">if_804ba8a_0_true:</text>
<text text-anchor="start" x="282.5" y="-1276.3" font-family="Times,serif" font-size="14.00"> v28 = v27</text>
</g>
<!-- Node0x1d8885b0&#45;&gt;Node0x2614ca60 -->
<g id="edge21" class="edge"><title>Node0x1d8885b0&#45;&gt;Node0x2614ca60</title>
<path fill="none" stroke="black" d="M391.622,-1358.31C384.571,-1346.04 374.95,-1329.3 366.897,-1315.29"/>
<polygon fill="black" stroke="black" points="369.892,-1313.48 361.874,-1306.55 363.823,-1316.97 369.892,-1313.48"/>
<text text-anchor="middle" x="414.5" y="-1328.8" font-family="Times,serif" font-size="14.00">v27 &lt; 17</text>
</g>
<!-- Node0x2614cc00 -->
<g id="node21" class="node"><title>Node0x2614cc00</title>
<polygon fill="none" stroke="black" points="289.5,-1162.5 289.5,-1230.5 603.5,-1230.5 603.5,-1162.5 289.5,-1162.5"/>
<text text-anchor="start" x="297.5" y="-1215.3" font-family="Times,serif" font-size="14.00">after_if_804ba8a_0:</text>
<text text-anchor="start" x="297.5" y="-1200.3" font-family="Times,serif" font-size="14.00"> g5 = (v27 &#45; v28)</text>
<text text-anchor="start" x="297.5" y="-1185.3" font-family="Times,serif" font-size="14.00"> v29 = g3</text>
<text text-anchor="start" x="297.5" y="-1170.3" font-family="Times,serif" font-size="14.00"> mbedtls_aes_crypt_ecb(v11, 1, v29, v29)</text>
</g>
<!-- Node0x1d8885b0&#45;&gt;Node0x2614cc00 -->
<g id="edge22" class="edge"><title>Node0x1d8885b0&#45;&gt;Node0x2614cc00</title>
<path fill="none" stroke="black" d="M434.223,-1358.46C440.771,-1353.44 446.775,-1347.3 450.5,-1340 466.099,-1309.44 463.628,-1270.18 458.084,-1240.61"/>
<polygon fill="black" stroke="black" points="461.465,-1239.67 456.02,-1230.58 454.609,-1241.09 461.465,-1239.67"/>
<text text-anchor="middle" x="500.5" y="-1283.8" font-family="Times,serif" font-size="14.00">v27 &gt;= 17</text>
</g>
<!-- Node0x2614ca60&#45;&gt;Node0x2614cc00 -->
<g id="edge23" class="edge"><title>Node0x2614ca60&#45;&gt;Node0x2614cc00</title>
<path fill="none" stroke="black" d="M370.725,-1268.49C380.242,-1259.57 392.141,-1248.43 403.67,-1237.63"/>
<polygon fill="black" stroke="black" points="406.259,-1240 411.163,-1230.6 401.473,-1234.89 406.259,-1240"/>
</g>
<!-- Node0x1d885f10 -->
<g id="node22" class="node"><title>Node0x1d885f10</title>
<polygon fill="none" stroke="black" points="393.5,-1086.5 393.5,-1124.5 499.5,-1124.5 499.5,-1086.5 393.5,-1086.5"/>
<text text-anchor="start" x="401.5" y="-1109.3" font-family="Times,serif" font-size="14.00">if (g5 == 0):</text>
<text text-anchor="start" x="401.5" y="-1094.3" font-family="Times,serif" font-size="14.00"> else:</text>
</g>
<!-- Node0x2614cc00&#45;&gt;Node0x1d885f10 -->
<g id="edge24" class="edge"><title>Node0x2614cc00&#45;&gt;Node0x1d885f10</title>
<path fill="none" stroke="black" d="M446.5,-1162.36C446.5,-1153.36 446.5,-1143.71 446.5,-1134.99"/>
<polygon fill="black" stroke="black" points="450,-1134.94 446.5,-1124.94 443,-1134.94 450,-1134.94"/>
</g>
<!-- Node0x9ac1ff0 -->
<g id="node23" class="node"><title>Node0x9ac1ff0</title>
<polygon fill="none" stroke="black" points="241,-921.5 241,-1034.5 570,-1034.5 570,-921.5 241,-921.5"/>
<text text-anchor="start" x="249" y="-1019.3" font-family="Times,serif" font-size="14.00">v30 = v21</text>
<text text-anchor="start" x="249" y="-1004.3" font-family="Times,serif" font-size="14.00"> *(IntToPtrCastExpr&lt;ptr&gt;(v21)) = v18</text>
<text text-anchor="start" x="249" y="-989.3" font-family="Times,serif" font-size="14.00"> *(IntToPtrCastExpr&lt;ptr&gt;((v30 + 4))) = 0</text>
<text text-anchor="start" x="249" y="-974.3" font-family="Times,serif" font-size="14.00"> *(IntToPtrCastExpr&lt;ptr&gt;((v30 + 8))) = 0</text>
<text text-anchor="start" x="249" y="-959.3" font-family="Times,serif" font-size="14.00"> *(IntToPtrCastExpr&lt;ptr&gt;((v30 + 12))) = 0</text>
<text text-anchor="start" x="249" y="-944.3" font-family="Times,serif" font-size="14.00"> g5 = v14</text>
<text text-anchor="start" x="249" y="-929.3" font-family="Times,serif" font-size="14.00"> v31 = (v30 + 16)</text>
</g>
<!-- Node0x1d885f10&#45;&gt;Node0x9ac1ff0 -->
<g id="edge25" class="edge"><title>Node0x1d885f10&#45;&gt;Node0x9ac1ff0</title>
<path fill="none" stroke="black" d="M440.538,-1086.25C436.841,-1074.94 431.845,-1059.64 426.785,-1044.15"/>
<polygon fill="black" stroke="black" points="430.069,-1042.94 423.637,-1034.52 423.415,-1045.11 430.069,-1042.94"/>
<text text-anchor="middle" x="465" y="-1056.8" font-family="Times,serif" font-size="14.00">g5 == 0</text>
</g>
<!-- Node0x9ac26c0 -->
<g id="node24" class="node"><title>Node0x9ac26c0</title>
<polygon fill="none" stroke="black" points="588,-944 588,-1012 719,-1012 719,-944 588,-944"/>
<text text-anchor="start" x="596" y="-996.8" font-family="Times,serif" font-size="14.00">v32 = (g7 + 16)</text>
<text text-anchor="start" x="596" y="-981.8" font-family="Times,serif" font-size="14.00"> g7 = v32</text>
<text text-anchor="start" x="596" y="-966.8" font-family="Times,serif" font-size="14.00"> v8 = v32</text>
<text text-anchor="start" x="596" y="-951.8" font-family="Times,serif" font-size="14.00"> break</text>
</g>
<!-- Node0x1d885f10&#45;&gt;Node0x9ac26c0 -->
<g id="edge26" class="edge"><title>Node0x1d885f10&#45;&gt;Node0x9ac26c0</title>
<path fill="none" stroke="black" d="M484.647,-1086.4C511.496,-1073.19 547.947,-1054.28 578.5,-1035 586.659,-1029.85 595.068,-1024.08 603.172,-1018.25"/>
<polygon fill="black" stroke="black" points="605.474,-1020.9 611.484,-1012.17 601.344,-1015.25 605.474,-1020.9"/>
<text text-anchor="middle" x="574" y="-1056.8" font-family="Times,serif" font-size="14.00">g5 != 0</text>
</g>
<!-- Node0x3a914a0 -->
<g id="node25" class="node"><title>Node0x3a914a0</title>
<polygon fill="none" stroke="black" points="340,-847.5 340,-883.5 471,-883.5 471,-847.5 340,-847.5"/>
<text text-anchor="start" x="348" y="-861.8" font-family="Times,serif" font-size="14.00">if (v31 == v14):</text>
</g>
<!-- Node0x9ac1ff0&#45;&gt;Node0x3a914a0 -->
<g id="edge27" class="edge"><title>Node0x9ac1ff0&#45;&gt;Node0x3a914a0</title>
<path fill="none" stroke="black" d="M405.5,-921.426C405.5,-911.86 405.5,-902.307 405.5,-893.913"/>
<polygon fill="black" stroke="black" points="409,-893.644 405.5,-883.644 402,-893.644 409,-893.644"/>
</g>
<!-- Node0x9ac26c0&#45;&gt;Node0x16531290 -->
<g id="edge28" class="edge"><title>Node0x9ac26c0&#45;&gt;Node0x16531290</title>
<path fill="none" stroke="black" d="M653.907,-1012.03C654.184,-1037.34 654.5,-1073.12 654.5,-1104.5 654.5,-1855.5 654.5,-1855.5 654.5,-1855.5 654.5,-1880.72 654.5,-1909.44 654.5,-1929.97"/>
<polygon fill="black" stroke="black" points="651,-1930.17 654.5,-1940.17 658,-1930.17 651,-1930.17"/>
</g>
<!-- Node0x9ac2830 -->
<g id="node26" class="node"><title>Node0x9ac2830</title>
<polygon fill="none" stroke="black" points="257.5,-757.5 257.5,-795.5 493.5,-795.5 493.5,-757.5 257.5,-757.5"/>
<text text-anchor="start" x="265.5" y="-780.3" font-family="Times,serif" font-size="14.00">break (via goto) &#45;&gt; 0x804baf0:</text>
<text text-anchor="start" x="265.5" y="-765.3" font-family="Times,serif" font-size="14.00"> goto 0x804baf0</text>
</g>
<!-- Node0x3a914a0&#45;&gt;Node0x9ac2830 -->
<g id="edge29" class="edge"><title>Node0x3a914a0&#45;&gt;Node0x9ac2830</title>
<path fill="none" stroke="black" d="M399.573,-847.312C395.423,-835.277 389.79,-818.94 385.015,-805.095"/>
<polygon fill="black" stroke="black" points="388.293,-803.864 381.725,-795.551 381.676,-806.146 388.293,-803.864"/>
<text text-anchor="middle" x="436.5" y="-817.8" font-family="Times,serif" font-size="14.00">v31 == v14</text>
</g>
<!-- Node0x9ac2660 -->
<g id="node27" class="node"><title>Node0x9ac2660</title>
<polygon fill="none" stroke="black" points="592,-757.5 592,-795.5 729,-795.5 729,-757.5 592,-757.5"/>
<text text-anchor="start" x="600" y="-780.3" font-family="Times,serif" font-size="14.00">v21 = v31</text>
<text text-anchor="start" x="600" y="-765.3" font-family="Times,serif" font-size="14.00"> goto 0x804ba45</text>
</g>
<!-- Node0x3a914a0&#45;&gt;Node0x9ac2660 -->
<g id="edge30" class="edge"><title>Node0x3a914a0&#45;&gt;Node0x9ac2660</title>
<path fill="none" stroke="black" d="M455.576,-847.415C496.299,-833.522 553.982,-813.841 597.779,-798.899"/>
<polygon fill="black" stroke="black" points="599.13,-802.136 607.464,-795.595 596.87,-795.511 599.13,-802.136"/>
<text text-anchor="middle" x="587.5" y="-817.8" font-family="Times,serif" font-size="14.00">v31 != v14</text>
</g>
<!-- Node0x1d885d70 -->
<g id="node28" class="node"><title>Node0x1d885d70</title>
<polygon fill="none" stroke="black" points="167.5,-411.5 167.5,-719.5 513.5,-719.5 513.5,-411.5 167.5,-411.5"/>
<text text-anchor="start" x="175.5" y="-704.3" font-family="Times,serif" font-size="14.00">0x804baf0:</text>
<text text-anchor="start" x="175.5" y="-689.3" font-family="Times,serif" font-size="14.00"> g7 = 0</text>
<text text-anchor="start" x="175.5" y="-674.3" font-family="Times,serif" font-size="14.00"> v33</text>
<text text-anchor="start" x="175.5" y="-659.3" font-family="Times,serif" font-size="14.00"> g3 = &amp;(v33)</text>
<text text-anchor="start" x="175.5" y="-644.3" font-family="Times,serif" font-size="14.00"> mbedtls_aes_setkey_enc(&amp;(v10), v20, 256)</text>
<text text-anchor="start" x="175.5" y="-629.3" font-family="Times,serif" font-size="14.00"> g5 = v5</text>
<text text-anchor="start" x="175.5" y="-614.3" font-family="Times,serif" font-size="14.00"> v34 = g3</text>
<text text-anchor="start" x="175.5" y="-599.3" font-family="Times,serif" font-size="14.00"> mbedtls_aes_crypt_ecb(v11, 1, v34, v34)</text>
<text text-anchor="start" x="175.5" y="-584.3" font-family="Times,serif" font-size="14.00"> v35 = g7</text>
<text text-anchor="start" x="175.5" y="-569.3" font-family="Times,serif" font-size="14.00"> v36 = (v35 + g5)</text>
<text text-anchor="start" x="175.5" y="-554.3" font-family="Times,serif" font-size="14.00"> v15 = v36</text>
<text text-anchor="start" x="175.5" y="-539.3" font-family="Times,serif" font-size="14.00"> v37 = (v35 + 16)</text>
<text text-anchor="start" x="175.5" y="-524.3" font-family="Times,serif" font-size="14.00"> g7 = v37</text>
<text text-anchor="start" x="175.5" y="-509.3" font-family="Times,serif" font-size="14.00"> *(IntToPtrCastExpr&lt;ptr&gt;(v36)) = v33</text>
<text text-anchor="start" x="175.5" y="-494.3" font-family="Times,serif" font-size="14.00"> v38</text>
<text text-anchor="start" x="175.5" y="-479.3" font-family="Times,serif" font-size="14.00"> *(IntToPtrCastExpr&lt;ptr&gt;((v15 + 4))) = v38</text>
<text text-anchor="start" x="175.5" y="-464.3" font-family="Times,serif" font-size="14.00"> v39</text>
<text text-anchor="start" x="175.5" y="-449.3" font-family="Times,serif" font-size="14.00"> *(IntToPtrCastExpr&lt;ptr&gt;((v15 + 8))) = v39</text>
<text text-anchor="start" x="175.5" y="-434.3" font-family="Times,serif" font-size="14.00"> v40</text>
<text text-anchor="start" x="175.5" y="-419.3" font-family="Times,serif" font-size="14.00"> *(IntToPtrCastExpr&lt;ptr&gt;((v15 + 12))) = v40</text>
</g>
<!-- Node0x9ac2830&#45;&gt;Node0x1d885d70 -->
<g id="edge31" class="edge"><title>Node0x9ac2830&#45;&gt;Node0x1d885d70</title>
<path fill="none" stroke="black" d="M372.455,-757.318C371.207,-749.867 369.639,-740.501 367.871,-729.943"/>
<polygon fill="black" stroke="black" points="371.298,-729.216 366.194,-719.931 364.394,-730.372 371.298,-729.216"/>
</g>
<!-- Node0x9ac2660&#45;&gt;Node0x17c893c0 -->
<g id="edge32" class="edge"><title>Node0x9ac2660&#45;&gt;Node0x17c893c0</title>
<path fill="none" stroke="black" d="M696.389,-795.534C720.354,-810.388 747.5,-833.954 747.5,-864.5 747.5,-2049.5 747.5,-2049.5 747.5,-2049.5 747.5,-2074.78 747.5,-2103.55 747.5,-2124.24"/>
<polygon fill="black" stroke="black" points="744,-2124.27 747.5,-2134.27 751,-2124.27 744,-2124.27"/>
</g>
<!-- Node0x1d885dd0 -->
<g id="node29" class="node"><title>Node0x1d885dd0</title>
<polygon fill="none" stroke="black" points="264.5,-337.5 264.5,-373.5 410.5,-373.5 410.5,-337.5 264.5,-337.5"/>
<text text-anchor="start" x="272.5" y="-351.8" font-family="Times,serif" font-size="14.00">while (v37 != 48):</text>
</g>
<!-- Node0x1d885d70&#45;&gt;Node0x1d885dd0 -->
<g id="edge33" class="edge"><title>Node0x1d885d70&#45;&gt;Node0x1d885dd0</title>
<path fill="none" stroke="black" d="M338.292,-411.422C338.144,-401.163 338.008,-391.731 337.892,-383.685"/>
<polygon fill="black" stroke="black" points="341.391,-383.574 337.747,-373.625 334.392,-383.675 341.391,-383.574"/>
</g>
<!-- Node0x9ac2780 -->
<g id="node30" class="node"><title>Node0x9ac2780</title>
<polygon fill="none" stroke="black" points="75.5,-97.5 75.5,-285.5 421.5,-285.5 421.5,-97.5 75.5,-97.5"/>
<text text-anchor="start" x="83.5" y="-270.3" font-family="Times,serif" font-size="14.00">0x804bb18:</text>
<text text-anchor="start" x="83.5" y="-255.3" font-family="Times,serif" font-size="14.00"> v34 = g3</text>
<text text-anchor="start" x="83.5" y="-240.3" font-family="Times,serif" font-size="14.00"> mbedtls_aes_crypt_ecb(v11, 1, v34, v34)</text>
<text text-anchor="start" x="83.5" y="-225.3" font-family="Times,serif" font-size="14.00"> v35 = g7</text>
<text text-anchor="start" x="83.5" y="-210.3" font-family="Times,serif" font-size="14.00"> v36 = (v35 + g5)</text>
<text text-anchor="start" x="83.5" y="-195.3" font-family="Times,serif" font-size="14.00"> v15 = v36</text>
<text text-anchor="start" x="83.5" y="-180.3" font-family="Times,serif" font-size="14.00"> v37 = (v35 + 16)</text>
<text text-anchor="start" x="83.5" y="-165.3" font-family="Times,serif" font-size="14.00"> g7 = v37</text>
<text text-anchor="start" x="83.5" y="-150.3" font-family="Times,serif" font-size="14.00"> *(IntToPtrCastExpr&lt;ptr&gt;(v36)) = v33</text>
<text text-anchor="start" x="83.5" y="-135.3" font-family="Times,serif" font-size="14.00"> *(IntToPtrCastExpr&lt;ptr&gt;((v15 + 4))) = v38</text>
<text text-anchor="start" x="83.5" y="-120.3" font-family="Times,serif" font-size="14.00"> *(IntToPtrCastExpr&lt;ptr&gt;((v15 + 8))) = v39</text>
<text text-anchor="start" x="83.5" y="-105.3" font-family="Times,serif" font-size="14.00"> *(IntToPtrCastExpr&lt;ptr&gt;((v15 + 12))) = v40</text>
</g>
<!-- Node0x1d885dd0&#45;&gt;Node0x9ac2780 -->
<g id="edge34" class="edge"><title>Node0x1d885dd0&#45;&gt;Node0x9ac2780</title>
<path fill="none" stroke="black" d="M271.031,-337.412C262.971,-332.695 255.747,-326.677 250.5,-319 245.6,-311.832 242.166,-303.861 239.862,-295.506"/>
<polygon fill="black" stroke="black" points="243.235,-294.554 237.655,-285.547 236.401,-296.068 243.235,-294.554"/>
<text text-anchor="middle" x="286.5" y="-307.8" font-family="Times,serif" font-size="14.00">v37 != 48</text>
</g>
<!-- Node0x1d885e30 -->
<g id="node31" class="node"><title>Node0x1d885e30</title>
<polygon fill="none" stroke="black" points="440,-120 440,-263 791,-263 791,-120 440,-120"/>
<text text-anchor="start" x="448" y="-247.8" font-family="Times,serif" font-size="14.00">0x804bb57:</text>
<text text-anchor="start" x="448" y="-232.8" font-family="Times,serif" font-size="14.00"> g6 = v11</text>
<text text-anchor="start" x="448" y="-217.8" font-family="Times,serif" font-size="14.00"> mbedtls_aes_free(BitCastExpr&lt;ptr&gt;(&amp;(v10)))</text>
<text text-anchor="start" x="448" y="-202.8" font-family="Times,serif" font-size="14.00"> g1 = 0</text>
<text text-anchor="start" x="448" y="-187.8" font-family="Times,serif" font-size="14.00"> g3 = v3</text>
<text text-anchor="start" x="448" y="-172.8" font-family="Times,serif" font-size="14.00"> g7 = v2</text>
<text text-anchor="start" x="448" y="-157.8" font-family="Times,serif" font-size="14.00"> g5 = v1</text>
<text text-anchor="start" x="448" y="-142.8" font-family="Times,serif" font-size="14.00"> g2 = v6</text>
<text text-anchor="start" x="448" y="-127.8" font-family="Times,serif" font-size="14.00"> return 0</text>
</g>
<!-- Node0x1d885dd0&#45;&gt;Node0x1d885e30 -->
<g id="edge35" class="edge"><title>Node0x1d885dd0&#45;&gt;Node0x1d885e30</title>
<path fill="none" stroke="black" d="M366.725,-337.469C395.347,-320.791 441.017,-294.177 485.461,-268.278"/>
<polygon fill="black" stroke="black" points="487.45,-271.17 494.328,-263.111 483.926,-265.122 487.45,-271.17"/>
<text text-anchor="middle" x="459.5" y="-307.8" font-family="Times,serif" font-size="14.00">v37 == 48</text>
</g>
<!-- Node0x9ac2780&#45;&gt;Node0x1d885dd0 -->
<g id="edge36" class="edge"><title>Node0x9ac2780&#45;&gt;Node0x1d885dd0</title>
<path fill="none" stroke="black" d="M313.135,-285.635C316.49,-291.745 319.646,-297.897 322.5,-304 325.947,-311.374 328.811,-319.724 331.08,-327.481"/>
<polygon fill="black" stroke="black" points="327.721,-328.47 333.719,-337.204 334.477,-326.636 327.721,-328.47"/>
</g>
<!-- Node0x1d885e30&#45;&gt;Node0x3a48570 -->
<g id="edge37" class="edge"><title>Node0x1d885e30&#45;&gt;Node0x3a48570</title>
<path fill="none" stroke="black" d="M485.591,-119.984C467.388,-111.542 448.684,-103.595 430.5,-97 362.6,-72.3742 279.536,-56.1942 232.553,-48.2564"/>
<polygon fill="black" stroke="black" points="232.972,-44.7781 222.534,-46.5967 231.828,-51.684 232.972,-44.7781"/>
</g>
</g>
</svg>
