<?xml version="1.0" encoding="UTF-8" standalone="no"?>
<!DOCTYPE svg PUBLIC "-//W3C//DTD SVG 1.1//EN"
 "http://www.w3.org/Graphics/SVG/1.1/DTD/svg11.dtd">
<!-- Generated by graphviz version 2.38.0 (20140413.2041)
 -->
<!-- Title: Control&#45;flow graph for function &#39;mbedtls_hmac_drbg_seed_buf(*a1, a2, a3, a4)&#39;. Pages: 1 -->
<svg width="848pt" height="700pt"
 viewBox="0.00 0.00 847.50 700.00" xmlns="http://www.w3.org/2000/svg" xmlns:xlink="http://www.w3.org/1999/xlink">
<g id="graph0" class="graph" transform="scale(1 1) rotate(0) translate(4 696)">
<title>Control&#45;flow graph for function &#39;mbedtls_hmac_drbg_seed_buf(*a1, a2, a3, a4)&#39;.</title>
<polygon fill="white" stroke="none" points="-4,4 -4,-696 843.5,-696 843.5,4 -4,4"/>
<text text-anchor="middle" x="419.75" y="-7.8" font-family="Times,serif" font-size="14.00">Control&#45;flow graph for function &#39;mbedtls_hmac_drbg_seed_buf(*a1, a2, a3, a4)&#39;.</text>
<!-- Node0x17a72020 -->
<g id="node1" class="node"><title>Node0x17a72020</title>
<polygon fill="none" stroke="black" points="604.5,-608.5 604.5,-691.5 663.5,-691.5 663.5,-608.5 604.5,-608.5"/>
<text text-anchor="start" x="612.5" y="-676.3" font-family="Times,serif" font-size="14.00">entry:</text>
<text text-anchor="start" x="612.5" y="-661.3" font-family="Times,serif" font-size="14.00"> a1</text>
<text text-anchor="start" x="612.5" y="-646.3" font-family="Times,serif" font-size="14.00"> a2</text>
<text text-anchor="start" x="612.5" y="-631.3" font-family="Times,serif" font-size="14.00"> a3</text>
<text text-anchor="start" x="612.5" y="-616.3" font-family="Times,serif" font-size="14.00"> a4</text>
</g>
<!-- Node0x1816d720 -->
<g id="node2" class="node"><title>Node0x1816d720</title>
<polygon fill="none" stroke="black" points="428.5,-442.5 428.5,-570.5 839.5,-570.5 839.5,-442.5 428.5,-442.5"/>
<text text-anchor="start" x="436.5" y="-555.3" font-family="Times,serif" font-size="14.00">v1 = g3</text>
<text text-anchor="start" x="436.5" y="-540.3" font-family="Times,serif" font-size="14.00"> g3 = PtrToIntCastExpr&lt;int32&gt;(a1)</text>
<text text-anchor="start" x="436.5" y="-525.3" font-family="Times,serif" font-size="14.00"> v2 = g5</text>
<text text-anchor="start" x="436.5" y="-510.3" font-family="Times,serif" font-size="14.00"> g5 = a2</text>
<text text-anchor="start" x="436.5" y="-495.3" font-family="Times,serif" font-size="14.00"> v3 = g7</text>
<text text-anchor="start" x="436.5" y="-480.3" font-family="Times,serif" font-size="14.00"> v4 = mbedtls_md_setup(BitCastExpr&lt;ptr&gt;(a1), a2, 1)</text>
<text text-anchor="start" x="436.5" y="-465.3" font-family="Times,serif" font-size="14.00"> g7 = v4</text>
<text text-anchor="start" x="436.5" y="-450.3" font-family="Times,serif" font-size="14.00"> result = v4</text>
</g>
<!-- Node0x17a72020&#45;&gt;Node0x1816d720 -->
<g id="edge1" class="edge"><title>Node0x17a72020&#45;&gt;Node0x1816d720</title>
<path fill="none" stroke="black" d="M634,-608.452C634,-599.816 634,-590.44 634,-581"/>
<polygon fill="black" stroke="black" points="637.5,-580.762 634,-570.762 630.5,-580.762 637.5,-580.762"/>
</g>
<!-- Node0x1816d4a0 -->
<g id="node3" class="node"><title>Node0x1816d4a0</title>
<polygon fill="none" stroke="black" points="581.5,-368.5 581.5,-404.5 686.5,-404.5 686.5,-368.5 581.5,-368.5"/>
<text text-anchor="start" x="589.5" y="-382.8" font-family="Times,serif" font-size="14.00">if (v4 == 0):</text>
</g>
<!-- Node0x1816d720&#45;&gt;Node0x1816d4a0 -->
<g id="edge2" class="edge"><title>Node0x1816d720&#45;&gt;Node0x1816d4a0</title>
<path fill="none" stroke="black" d="M634,-442.355C634,-432.753 634,-423.299 634,-415.016"/>
<polygon fill="black" stroke="black" points="637.5,-414.887 634,-404.888 630.5,-414.888 637.5,-414.887"/>
</g>
<!-- Node0x1816dc10 -->
<g id="node4" class="node"><title>Node0x1816dc10</title>
<polygon fill="none" stroke="black" points="0,-218.5 0,-316.5 694,-316.5 694,-218.5 0,-218.5"/>
<text text-anchor="start" x="8" y="-301.3" font-family="Times,serif" font-size="14.00">v5 = g3</text>
<text text-anchor="start" x="8" y="-286.3" font-family="Times,serif" font-size="14.00"> v6 = (v5 + 12)</text>
<text text-anchor="start" x="8" y="-271.3" font-family="Times,serif" font-size="14.00"> mbedtls_md_hmac_starts(IntToPtrCastExpr&lt;ptr&gt;(v5), v6, (mbedtls_md_get_size(g5) % 256))</text>
<text text-anchor="start" x="8" y="-256.3" font-family="Times,serif" font-size="14.00"> memset(IntToPtrCastExpr&lt;ptr&gt;(v6), 1, (mbedtls_md_get_size(g5) % 256))</text>
<text text-anchor="start" x="8" y="-241.3" font-family="Times,serif" font-size="14.00"> mbedtls_hmac_drbg_update(IntToPtrCastExpr&lt;ptr&gt;(g3), a3, a4)</text>
<text text-anchor="start" x="8" y="-226.3" font-family="Times,serif" font-size="14.00"> result = g7</text>
</g>
<!-- Node0x1816d4a0&#45;&gt;Node0x1816dc10 -->
<g id="edge3" class="edge"><title>Node0x1816d4a0&#45;&gt;Node0x1816dc10</title>
<path fill="none" stroke="black" d="M592.268,-368.487C561.055,-355.763 516.608,-337.643 474.105,-320.316"/>
<polygon fill="black" stroke="black" points="475.367,-317.051 464.786,-316.517 472.725,-323.533 475.367,-317.051"/>
<text text-anchor="middle" x="572" y="-338.8" font-family="Times,serif" font-size="14.00">v4 == 0</text>
</g>
<!-- Node0x1816db20 -->
<g id="node5" class="node"><title>Node0x1816db20</title>
<polygon fill="none" stroke="black" points="571.5,-97.5 571.5,-180.5 684.5,-180.5 684.5,-97.5 571.5,-97.5"/>
<text text-anchor="start" x="579.5" y="-165.3" font-family="Times,serif" font-size="14.00">0x8061f08:</text>
<text text-anchor="start" x="579.5" y="-150.3" font-family="Times,serif" font-size="14.00"> g3 = v1</text>
<text text-anchor="start" x="579.5" y="-135.3" font-family="Times,serif" font-size="14.00"> g7 = v3</text>
<text text-anchor="start" x="579.5" y="-120.3" font-family="Times,serif" font-size="14.00"> g5 = v2</text>
<text text-anchor="start" x="579.5" y="-105.3" font-family="Times,serif" font-size="14.00"> return result</text>
</g>
<!-- Node0x1816d4a0&#45;&gt;Node0x1816db20 -->
<g id="edge4" class="edge"><title>Node0x1816d4a0&#45;&gt;Node0x1816db20</title>
<path fill="none" stroke="black" d="M659.453,-368.427C675.254,-356.201 694.176,-338.193 703,-317 719.912,-276.38 719.439,-258.814 703,-218 698.711,-207.353 692.198,-197.344 684.765,-188.277"/>
<polygon fill="black" stroke="black" points="687.241,-185.791 678.029,-180.558 681.967,-190.394 687.241,-185.791"/>
<text text-anchor="middle" x="743" y="-263.8" font-family="Times,serif" font-size="14.00">v4 != 0</text>
</g>
<!-- Node0x1816dc10&#45;&gt;Node0x1816db20 -->
<g id="edge5" class="edge"><title>Node0x1816dc10&#45;&gt;Node0x1816db20</title>
<path fill="none" stroke="black" d="M453.635,-218.495C490.093,-202.083 529.786,-184.214 562.078,-169.677"/>
<polygon fill="black" stroke="black" points="563.732,-172.77 571.414,-165.474 560.859,-166.387 563.732,-172.77"/>
</g>
<!-- Node0xd70ed00 -->
<g id="node6" class="node"><title>Node0xd70ed00</title>
<polygon fill="none" stroke="black" points="601,-23.5 601,-59.5 655,-59.5 655,-23.5 601,-23.5"/>
<text text-anchor="start" x="609" y="-37.8" font-family="Times,serif" font-size="14.00">exit:</text>
</g>
<!-- Node0x1816db20&#45;&gt;Node0xd70ed00 -->
<g id="edge6" class="edge"><title>Node0x1816db20&#45;&gt;Node0xd70ed00</title>
<path fill="none" stroke="black" d="M628,-97.4994C628,-88.2058 628,-78.537 628,-69.9459"/>
<polygon fill="black" stroke="black" points="631.5,-69.7494 628,-59.7494 624.5,-69.7494 631.5,-69.7494"/>
</g>
</g>
</svg>
