<?xml version="1.0" encoding="UTF-8" standalone="no"?>
<!DOCTYPE svg PUBLIC "-//W3C//DTD SVG 1.1//EN"
 "http://www.w3.org/Graphics/SVG/1.1/DTD/svg11.dtd">
<!-- Generated by graphviz version 2.38.0 (20140413.2041)
 -->
<!-- Title: Control&#45;flow graph for function &#39;mbedtls_gcm_crypt_and_tag(a1, a2, a3, a4, a5, a6, a7, a8, a9, a10, a11)&#39;. Pages: 1 -->
<svg width="778pt" height="988pt"
 viewBox="0.00 0.00 778.00 988.00" xmlns="http://www.w3.org/2000/svg" xmlns:xlink="http://www.w3.org/1999/xlink">
<g id="graph0" class="graph" transform="scale(1 1) rotate(0) translate(4 984)">
<title>Control&#45;flow graph for function &#39;mbedtls_gcm_crypt_and_tag(a1, a2, a3, a4, a5, a6, a7, a8, a9, a10, a11)&#39;.</title>
<polygon fill="white" stroke="none" points="-4,4 -4,-984 774,-984 774,4 -4,4"/>
<text text-anchor="middle" x="385" y="-7.8" font-family="Times,serif" font-size="14.00">Control&#45;flow graph for function &#39;mbedtls_gcm_crypt_and_tag(a1, a2, a3, a4, a5, a6, a7, a8, a9, a10, a11)&#39;.</text>
<!-- Node0x27af49a0 -->
<g id="node1" class="node"><title>Node0x27af49a0</title>
<polygon fill="none" stroke="black" points="438.5,-791.5 438.5,-979.5 497.5,-979.5 497.5,-791.5 438.5,-791.5"/>
<text text-anchor="start" x="446.5" y="-964.3" font-family="Times,serif" font-size="14.00">entry:</text>
<text text-anchor="start" x="446.5" y="-949.3" font-family="Times,serif" font-size="14.00"> a1</text>
<text text-anchor="start" x="446.5" y="-934.3" font-family="Times,serif" font-size="14.00"> a2</text>
<text text-anchor="start" x="446.5" y="-919.3" font-family="Times,serif" font-size="14.00"> a3</text>
<text text-anchor="start" x="446.5" y="-904.3" font-family="Times,serif" font-size="14.00"> a4</text>
<text text-anchor="start" x="446.5" y="-889.3" font-family="Times,serif" font-size="14.00"> a5</text>
<text text-anchor="start" x="446.5" y="-874.3" font-family="Times,serif" font-size="14.00"> a6</text>
<text text-anchor="start" x="446.5" y="-859.3" font-family="Times,serif" font-size="14.00"> a7</text>
<text text-anchor="start" x="446.5" y="-844.3" font-family="Times,serif" font-size="14.00"> a8</text>
<text text-anchor="start" x="446.5" y="-829.3" font-family="Times,serif" font-size="14.00"> a9</text>
<text text-anchor="start" x="446.5" y="-814.3" font-family="Times,serif" font-size="14.00"> a10</text>
<text text-anchor="start" x="446.5" y="-799.3" font-family="Times,serif" font-size="14.00"> a11</text>
</g>
<!-- Node0x18ce5760 -->
<g id="node2" class="node"><title>Node0x18ce5760</title>
<polygon fill="none" stroke="black" points="194,-625.5 194,-753.5 742,-753.5 742,-625.5 194,-625.5"/>
<text text-anchor="start" x="202" y="-738.3" font-family="Times,serif" font-size="14.00">v1 = g3</text>
<text text-anchor="start" x="202" y="-723.3" font-family="Times,serif" font-size="14.00"> g3 = a1</text>
<text text-anchor="start" x="202" y="-708.3" font-family="Times,serif" font-size="14.00"> v2 = g7</text>
<text text-anchor="start" x="202" y="-693.3" font-family="Times,serif" font-size="14.00"> g7 = a3</text>
<text text-anchor="start" x="202" y="-678.3" font-family="Times,serif" font-size="14.00"> v3 = g5</text>
<text text-anchor="start" x="202" y="-663.3" font-family="Times,serif" font-size="14.00"> g5 = a8</text>
<text text-anchor="start" x="202" y="-648.3" font-family="Times,serif" font-size="14.00"> v4 = mbedtls_gcm_starts(a1, a2, IntToPtrCastExpr&lt;ptr&gt;(a4), a5, a6, a7)</text>
<text text-anchor="start" x="202" y="-633.3" font-family="Times,serif" font-size="14.00"> result = v4</text>
</g>
<!-- Node0x27af49a0&#45;&gt;Node0x18ce5760 -->
<g id="edge1" class="edge"><title>Node0x27af49a0&#45;&gt;Node0x18ce5760</title>
<path fill="none" stroke="black" d="M468,-791.478C468,-782.151 468,-772.776 468,-763.697"/>
<polygon fill="black" stroke="black" points="471.5,-763.591 468,-753.591 464.5,-763.591 471.5,-763.591"/>
</g>
<!-- Node0x101c5620 -->
<g id="node3" class="node"><title>Node0x101c5620</title>
<polygon fill="none" stroke="black" points="415.5,-551.5 415.5,-587.5 520.5,-587.5 520.5,-551.5 415.5,-551.5"/>
<text text-anchor="start" x="423.5" y="-565.8" font-family="Times,serif" font-size="14.00">if (v4 == 0):</text>
</g>
<!-- Node0x18ce5760&#45;&gt;Node0x101c5620 -->
<g id="edge2" class="edge"><title>Node0x18ce5760&#45;&gt;Node0x101c5620</title>
<path fill="none" stroke="black" d="M468,-625.355C468,-615.753 468,-606.299 468,-598.016"/>
<polygon fill="black" stroke="black" points="471.5,-597.887 468,-587.888 464.5,-597.888 471.5,-597.887"/>
</g>
<!-- Node0xd077750 -->
<g id="node4" class="node"><title>Node0xd077750</title>
<polygon fill="none" stroke="black" points="28,-463.5 28,-499.5 528,-499.5 528,-463.5 28,-463.5"/>
<text text-anchor="start" x="36" y="-477.8" font-family="Times,serif" font-size="14.00">v5 = mbedtls_gcm_update(g3, g7, IntToPtrCastExpr&lt;ptr&gt;(g5), a9)</text>
</g>
<!-- Node0x101c5620&#45;&gt;Node0xd077750 -->
<g id="edge3" class="edge"><title>Node0x101c5620&#45;&gt;Node0xd077750</title>
<path fill="none" stroke="black" d="M430.007,-551.303C399.748,-537.607 357.244,-518.368 324.871,-503.716"/>
<polygon fill="black" stroke="black" points="326.156,-500.455 315.603,-499.52 323.27,-506.832 326.156,-500.455"/>
<text text-anchor="middle" x="415" y="-521.8" font-family="Times,serif" font-size="14.00">v4 == 0</text>
</g>
<!-- Node0x18ce6980 -->
<g id="node5" class="node"><title>Node0x18ce6980</title>
<polygon fill="none" stroke="black" points="474.5,-97.5 474.5,-150.5 587.5,-150.5 587.5,-97.5 474.5,-97.5"/>
<text text-anchor="start" x="482.5" y="-135.3" font-family="Times,serif" font-size="14.00">0x806c969:</text>
<text text-anchor="start" x="482.5" y="-120.3" font-family="Times,serif" font-size="14.00"> g3 = v1</text>
<text text-anchor="start" x="482.5" y="-105.3" font-family="Times,serif" font-size="14.00"> return result</text>
</g>
<!-- Node0x101c5620&#45;&gt;Node0x18ce6980 -->
<g id="edge4" class="edge"><title>Node0x101c5620&#45;&gt;Node0x18ce6980</title>
<path fill="none" stroke="black" d="M503.286,-551.486C527.768,-536.951 556,-513.475 556,-482.5 556,-482.5 556,-482.5 556,-318.5 556,-251.765 553.236,-234.782 542,-169 541.543,-166.327 541.011,-163.577 540.43,-160.819"/>
<polygon fill="black" stroke="black" points="543.809,-159.891 538.173,-150.92 536.984,-161.448 543.809,-159.891"/>
<text text-anchor="middle" x="583" y="-403.8" font-family="Times,serif" font-size="14.00">v4 != 0</text>
</g>
<!-- Node0x18ce7230 -->
<g id="node6" class="node"><title>Node0x18ce7230</title>
<polygon fill="none" stroke="black" points="225.5,-389.5 225.5,-425.5 330.5,-425.5 330.5,-389.5 225.5,-389.5"/>
<text text-anchor="start" x="233.5" y="-403.8" font-family="Times,serif" font-size="14.00">if (v5 == 0):</text>
</g>
<!-- Node0xd077750&#45;&gt;Node0x18ce7230 -->
<g id="edge5" class="edge"><title>Node0xd077750&#45;&gt;Node0x18ce7230</title>
<path fill="none" stroke="black" d="M278,-463.437C278,-455.307 278,-445.376 278,-436.205"/>
<polygon fill="black" stroke="black" points="281.5,-435.941 278,-425.941 274.5,-435.941 281.5,-435.941"/>
</g>
<!-- Node0xc9e25c0 -->
<g id="node7" class="node"><title>Node0xc9e25c0</title>
<polygon fill="none" stroke="black" points="383,-23.5 383,-59.5 437,-59.5 437,-23.5 383,-23.5"/>
<text text-anchor="start" x="391" y="-37.8" font-family="Times,serif" font-size="14.00">exit:</text>
</g>
<!-- Node0x18ce6980&#45;&gt;Node0xc9e25c0 -->
<g id="edge6" class="edge"><title>Node0x18ce6980&#45;&gt;Node0xc9e25c0</title>
<path fill="none" stroke="black" d="M492.382,-97.308C476.887,-86.9995 459.18,-75.2187 444.162,-65.2277"/>
<polygon fill="black" stroke="black" points="445.932,-62.2017 435.668,-59.5766 442.055,-68.0297 445.932,-62.2017"/>
</g>
<!-- Node0x18ce4ed0 -->
<g id="node8" class="node"><title>Node0x18ce4ed0</title>
<polygon fill="none" stroke="black" points="38,-169.5 38,-282.5 516,-282.5 516,-169.5 38,-169.5"/>
<text text-anchor="start" x="46" y="-267.3" font-family="Times,serif" font-size="14.00">v6 = g3</text>
<text text-anchor="start" x="46" y="-252.3" font-family="Times,serif" font-size="14.00"> g7 = v2</text>
<text text-anchor="start" x="46" y="-237.3" font-family="Times,serif" font-size="14.00"> g3 = v1</text>
<text text-anchor="start" x="46" y="-222.3" font-family="Times,serif" font-size="14.00"> g5 = v3</text>
<text text-anchor="start" x="46" y="-207.3" font-family="Times,serif" font-size="14.00"> v7</text>
<text text-anchor="start" x="46" y="-192.3" font-family="Times,serif" font-size="14.00"> v8</text>
<text text-anchor="start" x="46" y="-177.3" font-family="Times,serif" font-size="14.00"> return mbedtls_gcm_finish(v8, IntToPtrCastExpr&lt;ptr&gt;(v7), v6)</text>
</g>
<!-- Node0x18ce7230&#45;&gt;Node0x18ce4ed0 -->
<g id="edge7" class="edge"><title>Node0x18ce7230&#45;&gt;Node0x18ce4ed0</title>
<path fill="none" stroke="black" d="M277.414,-389.168C277.245,-383.39 277.083,-376.918 277,-371 276.641,-345.518 276.568,-317.497 276.61,-293"/>
<polygon fill="black" stroke="black" points="280.111,-292.743 276.635,-282.734 273.111,-292.726 280.111,-292.743"/>
<text text-anchor="middle" x="307" y="-359.8" font-family="Times,serif" font-size="14.00">v5 == 0</text>
</g>
<!-- Node0xd05df00 -->
<g id="node9" class="node"><title>Node0xd05df00</title>
<polygon fill="none" stroke="black" points="371.5,-301.5 371.5,-337.5 468.5,-337.5 468.5,-301.5 371.5,-301.5"/>
<text text-anchor="start" x="379.5" y="-315.8" font-family="Times,serif" font-size="14.00">result = v5</text>
</g>
<!-- Node0x18ce7230&#45;&gt;Node0xd05df00 -->
<g id="edge8" class="edge"><title>Node0x18ce7230&#45;&gt;Node0xd05df00</title>
<path fill="none" stroke="black" d="M309.281,-389.325C319.465,-383.614 330.776,-377.142 341,-371 355.652,-362.198 371.574,-352.121 385.261,-343.296"/>
<polygon fill="black" stroke="black" points="387.405,-346.077 393.896,-337.703 383.6,-340.201 387.405,-346.077"/>
<text text-anchor="middle" x="393" y="-359.8" font-family="Times,serif" font-size="14.00">v5 != 0</text>
</g>
<!-- Node0x18ce4ed0&#45;&gt;Node0xc9e25c0 -->
<g id="edge9" class="edge"><title>Node0x18ce4ed0&#45;&gt;Node0xc9e25c0</title>
<path fill="none" stroke="black" d="M317.627,-169.252C342.198,-135.537 372.352,-94.16 391.378,-68.0533"/>
<polygon fill="black" stroke="black" points="394.318,-69.9612 397.379,-59.8182 388.661,-65.8385 394.318,-69.9612"/>
</g>
<!-- Node0xd05df00&#45;&gt;Node0x18ce6980 -->
<g id="edge10" class="edge"><title>Node0xd05df00&#45;&gt;Node0x18ce6980</title>
<path fill="none" stroke="black" d="M468.715,-311.826C486.639,-306.845 505.379,-298.156 517,-283 543.651,-248.244 542.591,-195.688 537.965,-160.866"/>
<polygon fill="black" stroke="black" points="541.38,-160.04 536.441,-150.667 534.457,-161.075 541.38,-160.04"/>
</g>
</g>
</svg>
