<?xml version="1.0" encoding="UTF-8" standalone="no"?>
<!DOCTYPE svg PUBLIC "-//W3C//DTD SVG 1.1//EN"
 "http://www.w3.org/Graphics/SVG/1.1/DTD/svg11.dtd">
<!-- Generated by graphviz version 2.38.0 (20140413.2041)
 -->
<!-- Title: Control&#45;flow graph for function &#39;mbedtls_hmac_drbg_set_reseed_interval(result, a2)&#39;. Pages: 1 -->
<svg width="636pt" height="248pt"
 viewBox="0.00 0.00 636.00 248.00" xmlns="http://www.w3.org/2000/svg" xmlns:xlink="http://www.w3.org/1999/xlink">
<g id="graph0" class="graph" transform="scale(1 1) rotate(0) translate(4 244)">
<title>Control&#45;flow graph for function &#39;mbedtls_hmac_drbg_set_reseed_interval(result, a2)&#39;.</title>
<polygon fill="white" stroke="none" points="-4,4 -4,-244 632,-244 632,4 -4,4"/>
<text text-anchor="middle" x="314" y="-7.8" font-family="Times,serif" font-size="14.00">Control&#45;flow graph for function &#39;mbedtls_hmac_drbg_set_reseed_interval(result, a2)&#39;.</text>
<!-- Node0xef4cf00 -->
<g id="node1" class="node"><title>Node0xef4cf00</title>
<polygon fill="none" stroke="black" points="282.5,-186.5 282.5,-239.5 345.5,-239.5 345.5,-186.5 282.5,-186.5"/>
<text text-anchor="start" x="290.5" y="-224.3" font-family="Times,serif" font-size="14.00">entry:</text>
<text text-anchor="start" x="290.5" y="-209.3" font-family="Times,serif" font-size="14.00"> result</text>
<text text-anchor="start" x="290.5" y="-194.3" font-family="Times,serif" font-size="14.00"> a2</text>
</g>
<!-- Node0xef4ce60 -->
<g id="node2" class="node"><title>Node0xef4ce60</title>
<polygon fill="none" stroke="black" points="137.5,-96.5 137.5,-149.5 490.5,-149.5 490.5,-96.5 137.5,-96.5"/>
<text text-anchor="start" x="145.5" y="-134.3" font-family="Times,serif" font-size="14.00">0x8061830:</text>
<text text-anchor="start" x="145.5" y="-119.3" font-family="Times,serif" font-size="14.00"> *(IntToPtrCastExpr&lt;ptr&gt;((result + 88))) = a2</text>
<text text-anchor="start" x="145.5" y="-104.3" font-family="Times,serif" font-size="14.00"> return result</text>
</g>
<!-- Node0xef4cf00&#45;&gt;Node0xef4ce60 -->
<g id="edge1" class="edge"><title>Node0xef4cf00&#45;&gt;Node0xef4ce60</title>
<path fill="none" stroke="black" d="M314,-186.073C314,-177.838 314,-168.58 314,-159.777"/>
<polygon fill="black" stroke="black" points="317.5,-159.742 314,-149.742 310.5,-159.742 317.5,-159.742"/>
</g>
<!-- Node0x1b593530 -->
<g id="node3" class="node"><title>Node0x1b593530</title>
<polygon fill="none" stroke="black" points="287,-23.5 287,-59.5 341,-59.5 341,-23.5 287,-23.5"/>
<text text-anchor="start" x="295" y="-37.8" font-family="Times,serif" font-size="14.00">exit:</text>
</g>
<!-- Node0xef4ce60&#45;&gt;Node0x1b593530 -->
<g id="edge2" class="edge"><title>Node0xef4ce60&#45;&gt;Node0x1b593530</title>
<path fill="none" stroke="black" d="M314,-96.4081C314,-87.9823 314,-78.5803 314,-70.0174"/>
<polygon fill="black" stroke="black" points="317.5,-69.7564 314,-59.7564 310.5,-69.7565 317.5,-69.7564"/>
</g>
</g>
</svg>
