<?xml version="1.0" encoding="UTF-8" standalone="no"?>
<!DOCTYPE svg PUBLIC "-//W3C//DTD SVG 1.1//EN"
 "http://www.w3.org/Graphics/SVG/1.1/DTD/svg11.dtd">
<!-- Generated by graphviz version 2.38.0 (20140413.2041)
 -->
<!-- Title: Control&#45;flow graph for function &#39;mbedtls_camellia_setkey_dec(*a1, a2, a3)&#39;. Pages: 1 -->
<svg width="1053pt" height="1619pt"
 viewBox="0.00 0.00 1052.50 1619.00" xmlns="http://www.w3.org/2000/svg" xmlns:xlink="http://www.w3.org/1999/xlink">
<g id="graph0" class="graph" transform="scale(1 1) rotate(0) translate(4 1615)">
<title>Control&#45;flow graph for function &#39;mbedtls_camellia_setkey_dec(*a1, a2, a3)&#39;.</title>
<polygon fill="white" stroke="none" points="-4,4 -4,-1615 1048.5,-1615 1048.5,4 -4,4"/>
<text text-anchor="middle" x="522.25" y="-7.8" font-family="Times,serif" font-size="14.00">Control&#45;flow graph for function &#39;mbedtls_camellia_setkey_dec(*a1, a2, a3)&#39;.</text>
<!-- Node0x16aaead0 -->
<g id="node1" class="node"><title>Node0x16aaead0</title>
<polygon fill="none" stroke="black" points="672.5,-1542.5 672.5,-1610.5 731.5,-1610.5 731.5,-1542.5 672.5,-1542.5"/>
<text text-anchor="start" x="680.5" y="-1595.3" font-family="Times,serif" font-size="14.00">entry:</text>
<text text-anchor="start" x="680.5" y="-1580.3" font-family="Times,serif" font-size="14.00"> a1</text>
<text text-anchor="start" x="680.5" y="-1565.3" font-family="Times,serif" font-size="14.00"> a2</text>
<text text-anchor="start" x="680.5" y="-1550.3" font-family="Times,serif" font-size="14.00"> a3</text>
</g>
<!-- Node0x1e870050 -->
<g id="node2" class="node"><title>Node0x1e870050</title>
<polygon fill="none" stroke="black" points="359.5,-1301.5 359.5,-1504.5 1044.5,-1504.5 1044.5,-1301.5 359.5,-1301.5"/>
<text text-anchor="start" x="367.5" y="-1489.3" font-family="Times,serif" font-size="14.00">v1 = g7</text>
<text text-anchor="start" x="367.5" y="-1474.3" font-family="Times,serif" font-size="14.00"> v2 = g3</text>
<text text-anchor="start" x="367.5" y="-1459.3" font-family="Times,serif" font-size="14.00"> v3 = &amp;(v2)</text>
<text text-anchor="start" x="367.5" y="-1444.3" font-family="Times,serif" font-size="14.00"> g7 = PtrToIntCastExpr&lt;int32&gt;(a1)</text>
<text text-anchor="start" x="367.5" y="-1429.3" font-family="Times,serif" font-size="14.00"> v4</text>
<text text-anchor="start" x="367.5" y="-1414.3" font-family="Times,serif" font-size="14.00"> g3 = &amp;(v4)</text>
<text text-anchor="start" x="367.5" y="-1399.3" font-family="Times,serif" font-size="14.00"> mbedtls_camellia_init(BitCastExpr&lt;ptr&gt;(&amp;(v4)))</text>
<text text-anchor="start" x="367.5" y="-1384.3" font-family="Times,serif" font-size="14.00"> v5</text>
<text text-anchor="start" x="367.5" y="-1369.3" font-family="Times,serif" font-size="14.00"> v6</text>
<text text-anchor="start" x="367.5" y="-1354.3" font-family="Times,serif" font-size="14.00"> v7</text>
<text text-anchor="start" x="367.5" y="-1339.3" font-family="Times,serif" font-size="14.00"> v8</text>
<text text-anchor="start" x="367.5" y="-1324.3" font-family="Times,serif" font-size="14.00"> result = mbedtls_camellia_setkey_enc(IntToPtrCastExpr&lt;ptr&gt;(g3), a2, a3, v8, v7, v6, v5, 0)</text>
<text text-anchor="start" x="367.5" y="-1309.3" font-family="Times,serif" font-size="14.00"> v9</text>
</g>
<!-- Node0x16aaead0&#45;&gt;Node0x1e870050 -->
<g id="edge1" class="edge"><title>Node0x16aaead0&#45;&gt;Node0x1e870050</title>
<path fill="none" stroke="black" d="M702,-1542.43C702,-1534.11 702,-1524.71 702,-1514.82"/>
<polygon fill="black" stroke="black" points="705.5,-1514.79 702,-1504.79 698.5,-1514.79 705.5,-1514.79"/>
</g>
<!-- Node0x1b14f610 -->
<g id="node3" class="node"><title>Node0x1b14f610</title>
<polygon fill="none" stroke="black" points="637,-1227.5 637,-1263.5 767,-1263.5 767,-1227.5 637,-1227.5"/>
<text text-anchor="start" x="645" y="-1241.8" font-family="Times,serif" font-size="14.00">if (result == 0):</text>
</g>
<!-- Node0x1e870050&#45;&gt;Node0x1b14f610 -->
<g id="edge2" class="edge"><title>Node0x1e870050&#45;&gt;Node0x1b14f610</title>
<path fill="none" stroke="black" d="M702,-1301.32C702,-1291.37 702,-1281.96 702,-1273.85"/>
<polygon fill="black" stroke="black" points="705.5,-1273.65 702,-1263.65 698.5,-1273.65 705.5,-1273.65"/>
</g>
<!-- Node0x26396340 -->
<g id="node4" class="node"><title>Node0x26396340</title>
<polygon fill="none" stroke="black" points="141.5,-927.5 141.5,-1175.5 730.5,-1175.5 730.5,-927.5 141.5,-927.5"/>
<text text-anchor="start" x="149.5" y="-1160.3" font-family="Times,serif" font-size="14.00">*(IntToPtrCastExpr&lt;ptr&gt;(g7)) = v4</text>
<text text-anchor="start" x="149.5" y="-1145.3" font-family="Times,serif" font-size="14.00"> v10 = (v4 == 4)</text>
<text text-anchor="start" x="149.5" y="-1130.3" font-family="Times,serif" font-size="14.00"> v11 = (64 * v10)</text>
<text text-anchor="start" x="149.5" y="-1115.3" font-family="Times,serif" font-size="14.00"> v12 = ((v11 &#45; 92) + g2)</text>
<text text-anchor="start" x="149.5" y="-1100.3" font-family="Times,serif" font-size="14.00"> v13 = v12</text>
<text text-anchor="start" x="149.5" y="-1085.3" font-family="Times,serif" font-size="14.00"> v14 = ((8 * v10) + 22)</text>
<text text-anchor="start" x="149.5" y="-1070.3" font-family="Times,serif" font-size="14.00"> *(IntToPtrCastExpr&lt;ptr&gt;((g7 + 4))) = *(IntToPtrCastExpr&lt;ptr&gt;(v12))</text>
<text text-anchor="start" x="149.5" y="-1055.3" font-family="Times,serif" font-size="14.00"> *(IntToPtrCastExpr&lt;ptr&gt;((g7 + 8))) = *(IntToPtrCastExpr&lt;ptr&gt;((v13 + 4)))</text>
<text text-anchor="start" x="149.5" y="-1040.3" font-family="Times,serif" font-size="14.00"> *(IntToPtrCastExpr&lt;ptr&gt;((g7 + 12))) = *(IntToPtrCastExpr&lt;ptr&gt;((v13 + 8)))</text>
<text text-anchor="start" x="149.5" y="-1025.3" font-family="Times,serif" font-size="14.00"> v15 = v13</text>
<text text-anchor="start" x="149.5" y="-1010.3" font-family="Times,serif" font-size="14.00"> *(IntToPtrCastExpr&lt;ptr&gt;((g7 + 16))) = *(IntToPtrCastExpr&lt;ptr&gt;((v15 + 12)))</text>
<text text-anchor="start" x="149.5" y="-995.3" font-family="Times,serif" font-size="14.00"> v16 = (g7 + 20)</text>
<text text-anchor="start" x="149.5" y="-980.3" font-family="Times,serif" font-size="14.00"> v17 = (v15 &#45; 8)</text>
<text text-anchor="start" x="149.5" y="-965.3" font-family="Times,serif" font-size="14.00"> v13 = v16</text>
<text text-anchor="start" x="149.5" y="-950.3" font-family="Times,serif" font-size="14.00"> v18 = v14</text>
<text text-anchor="start" x="149.5" y="-935.3" font-family="Times,serif" font-size="14.00"> v19 = v16</text>
</g>
<!-- Node0x1b14f610&#45;&gt;Node0x26396340 -->
<g id="edge3" class="edge"><title>Node0x1b14f610&#45;&gt;Node0x26396340</title>
<path fill="none" stroke="black" d="M675.441,-1227.45C666.639,-1221.69 656.836,-1215.16 648,-1209 635.257,-1200.12 622.166,-1190.84 609.041,-1181.42"/>
<polygon fill="black" stroke="black" points="611.031,-1178.54 600.869,-1175.55 606.944,-1184.23 611.031,-1178.54"/>
<text text-anchor="middle" x="690.5" y="-1197.8" font-family="Times,serif" font-size="14.00">result == 0</text>
</g>
<!-- Node0x1e86e030 -->
<g id="node5" class="node"><title>Node0x1e86e030</title>
<polygon fill="none" stroke="black" points="748.5,-1017.5 748.5,-1085.5 1019.5,-1085.5 1019.5,-1017.5 748.5,-1017.5"/>
<text text-anchor="start" x="756.5" y="-1070.3" font-family="Times,serif" font-size="14.00">0x806f622:</text>
<text text-anchor="start" x="756.5" y="-1055.3" font-family="Times,serif" font-size="14.00"> *(IntToPtrCastExpr&lt;ptr&gt;(g3)) = 0</text>
<text text-anchor="start" x="756.5" y="-1040.3" font-family="Times,serif" font-size="14.00"> v9 = (g3 + 1)</text>
<text text-anchor="start" x="756.5" y="-1025.3" font-family="Times,serif" font-size="14.00"> g3 = v9</text>
</g>
<!-- Node0x1b14f610&#45;&gt;Node0x1e86e030 -->
<g id="edge4" class="edge"><title>Node0x1b14f610&#45;&gt;Node0x1e86e030</title>
<path fill="none" stroke="black" d="M718.151,-1227.46C746.547,-1197.51 806.141,-1134.64 845.615,-1092.99"/>
<polygon fill="black" stroke="black" points="848.157,-1095.4 852.496,-1085.73 843.076,-1090.58 848.157,-1095.4"/>
<text text-anchor="middle" x="785.5" y="-1197.8" font-family="Times,serif" font-size="14.00">result != 0</text>
</g>
<!-- Node0xcc3cba0 -->
<g id="node6" class="node"><title>Node0xcc3cba0</title>
<polygon fill="none" stroke="black" points="387.5,-853.5 387.5,-889.5 484.5,-889.5 484.5,-853.5 387.5,-853.5"/>
<text text-anchor="start" x="395.5" y="-867.8" font-family="Times,serif" font-size="14.00">while True:</text>
</g>
<!-- Node0x26396340&#45;&gt;Node0xcc3cba0 -->
<g id="edge5" class="edge"><title>Node0x26396340&#45;&gt;Node0xcc3cba0</title>
<path fill="none" stroke="black" d="M436,-927.358C436,-917.332 436,-907.986 436,-899.952"/>
<polygon fill="black" stroke="black" points="439.5,-899.869 436,-889.869 432.5,-899.869 439.5,-899.869"/>
</g>
<!-- Node0x263989e0 -->
<g id="node7" class="node"><title>Node0x263989e0</title>
<polygon fill="none" stroke="black" points="816,-853.5 816,-889.5 952,-889.5 952,-853.5 816,-853.5"/>
<text text-anchor="start" x="824" y="-867.8" font-family="Times,serif" font-size="14.00">while (v9 != v3):</text>
</g>
<!-- Node0x1e86e030&#45;&gt;Node0x263989e0 -->
<g id="edge6" class="edge"><title>Node0x1e86e030&#45;&gt;Node0x263989e0</title>
<path fill="none" stroke="black" d="M884,-1017.44C884,-983.621 884,-931.687 884,-900.032"/>
<polygon fill="black" stroke="black" points="887.5,-899.744 884,-889.744 880.5,-899.744 887.5,-899.744"/>
</g>
<!-- Node0xe6319c0 -->
<g id="node8" class="node"><title>Node0xe6319c0</title>
<polygon fill="none" stroke="black" points="36.5,-658.5 36.5,-801.5 615.5,-801.5 615.5,-658.5 36.5,-658.5"/>
<text text-anchor="start" x="44.5" y="-786.3" font-family="Times,serif" font-size="14.00">0x806f5d0:</text>
<text text-anchor="start" x="44.5" y="-771.3" font-family="Times,serif" font-size="14.00"> *(IntToPtrCastExpr&lt;ptr&gt;(v19)) = *(IntToPtrCastExpr&lt;ptr&gt;(v17))</text>
<text text-anchor="start" x="44.5" y="-756.3" font-family="Times,serif" font-size="14.00"> v20 = v17</text>
<text text-anchor="start" x="44.5" y="-741.3" font-family="Times,serif" font-size="14.00"> v17 = (v20 &#45; 8)</text>
<text text-anchor="start" x="44.5" y="-726.3" font-family="Times,serif" font-size="14.00"> *(IntToPtrCastExpr&lt;ptr&gt;((v13 + 4))) = *(IntToPtrCastExpr&lt;ptr&gt;((v20 + 4)))</text>
<text text-anchor="start" x="44.5" y="-711.3" font-family="Times,serif" font-size="14.00"> v21 = (v13 + 8)</text>
<text text-anchor="start" x="44.5" y="-696.3" font-family="Times,serif" font-size="14.00"> v13 = v21</text>
<text text-anchor="start" x="44.5" y="-681.3" font-family="Times,serif" font-size="14.00"> v22 = (v18 &#45; 1)</text>
<text text-anchor="start" x="44.5" y="-666.3" font-family="Times,serif" font-size="14.00"> v18 = v22</text>
</g>
<!-- Node0xcc3cba0&#45;&gt;Node0xe6319c0 -->
<g id="edge7" class="edge"><title>Node0xcc3cba0&#45;&gt;Node0xe6319c0</title>
<path fill="none" stroke="black" d="M422.512,-853.395C413.588,-842.078 401.179,-826.341 388.226,-809.913"/>
<polygon fill="black" stroke="black" points="390.776,-807.495 381.836,-801.81 385.279,-811.83 390.776,-807.495"/>
<text text-anchor="middle" x="424" y="-823.8" font-family="Times,serif" font-size="14.00">True</text>
</g>
<!-- Node0x26393900 -->
<g id="node9" class="node"><title>Node0x26393900</title>
<polygon fill="none" stroke="black" points="672,-696 672,-764 942,-764 942,-696 672,-696"/>
<text text-anchor="start" x="680" y="-748.8" font-family="Times,serif" font-size="14.00">0x806f628:</text>
<text text-anchor="start" x="680" y="-733.8" font-family="Times,serif" font-size="14.00"> *(IntToPtrCastExpr&lt;ptr&gt;(v9)) = 0</text>
<text text-anchor="start" x="680" y="-718.8" font-family="Times,serif" font-size="14.00"> v9 = (g3 + 1)</text>
<text text-anchor="start" x="680" y="-703.8" font-family="Times,serif" font-size="14.00"> g3 = v9</text>
</g>
<!-- Node0x263989e0&#45;&gt;Node0x26393900 -->
<g id="edge8" class="edge"><title>Node0x263989e0&#45;&gt;Node0x26393900</title>
<path fill="none" stroke="black" d="M827.631,-853.32C819.862,-848.591 812.885,-842.593 808,-835 796.602,-817.285 795.385,-794.117 797.437,-774.146"/>
<polygon fill="black" stroke="black" points="800.932,-774.411 798.771,-764.039 793.992,-773.495 800.932,-774.411"/>
<text text-anchor="middle" x="839" y="-823.8" font-family="Times,serif" font-size="14.00">v9 != v3</text>
</g>
<!-- Node0x26397cd0 -->
<g id="node10" class="node"><title>Node0x26397cd0</title>
<polygon fill="none" stroke="black" points="845.5,-571.5 845.5,-639.5 958.5,-639.5 958.5,-571.5 845.5,-571.5"/>
<text text-anchor="start" x="853.5" y="-624.3" font-family="Times,serif" font-size="14.00">0x806f632:</text>
<text text-anchor="start" x="853.5" y="-609.3" font-family="Times,serif" font-size="14.00"> g3 = v2</text>
<text text-anchor="start" x="853.5" y="-594.3" font-family="Times,serif" font-size="14.00"> g7 = v1</text>
<text text-anchor="start" x="853.5" y="-579.3" font-family="Times,serif" font-size="14.00"> return result</text>
</g>
<!-- Node0x263989e0&#45;&gt;Node0x26397cd0 -->
<g id="edge9" class="edge"><title>Node0x263989e0&#45;&gt;Node0x26397cd0</title>
<path fill="none" stroke="black" d="M908.733,-853.266C924.083,-840.973 942.458,-822.949 951,-802 975.164,-742.737 974.755,-717.428 951,-658 949.613,-654.53 947.868,-651.16 945.87,-647.915"/>
<polygon fill="black" stroke="black" points="948.67,-645.812 940.061,-639.636 942.94,-649.832 948.67,-645.812"/>
<text text-anchor="middle" x="974" y="-823.8" font-family="Times,serif" font-size="14.00">v9 == v3</text>
</g>
<!-- Node0xe62ebc0 -->
<g id="node11" class="node"><title>Node0xe62ebc0</title>
<polygon fill="none" stroke="black" points="269,-516.5 269,-552.5 383,-552.5 383,-516.5 269,-516.5"/>
<text text-anchor="start" x="277" y="-530.8" font-family="Times,serif" font-size="14.00">if (v22 == 0):</text>
</g>
<!-- Node0xe6319c0&#45;&gt;Node0xe62ebc0 -->
<g id="edge10" class="edge"><title>Node0xe6319c0&#45;&gt;Node0xe62ebc0</title>
<path fill="none" stroke="black" d="M326,-658.321C326,-625.217 326,-587.713 326,-562.953"/>
<polygon fill="black" stroke="black" points="329.5,-562.853 326,-552.853 322.5,-562.853 329.5,-562.853"/>
</g>
<!-- Node0x26393900&#45;&gt;Node0x263989e0 -->
<g id="edge11" class="edge"><title>Node0x26393900&#45;&gt;Node0x263989e0</title>
<path fill="none" stroke="black" d="M834.786,-764.358C847.003,-780.376 860.664,-800.333 870,-820 873.472,-827.315 876.223,-835.647 878.333,-843.406"/>
<polygon fill="black" stroke="black" points="874.943,-844.276 880.746,-853.14 881.737,-842.592 874.943,-844.276"/>
</g>
<!-- Node0x875da60 -->
<g id="node12" class="node"><title>Node0x875da60</title>
<polygon fill="none" stroke="black" points="738,-23.5 738,-59.5 792,-59.5 792,-23.5 738,-23.5"/>
<text text-anchor="start" x="746" y="-37.8" font-family="Times,serif" font-size="14.00">exit:</text>
</g>
<!-- Node0x26397cd0&#45;&gt;Node0x875da60 -->
<g id="edge12" class="edge"><title>Node0x26397cd0&#45;&gt;Node0x875da60</title>
<path fill="none" stroke="black" d="M847.785,-571.368C822.971,-551.734 799,-524.283 799,-491.5 799,-491.5 799,-491.5 799,-130.5 799,-108.527 789.663,-85.417 780.775,-68.3957"/>
<polygon fill="black" stroke="black" points="783.83,-66.6883 775.945,-59.6117 777.696,-70.0609 783.83,-66.6883"/>
</g>
<!-- Node0xe630dd0 -->
<g id="node13" class="node"><title>Node0xe630dd0</title>
<polygon fill="none" stroke="black" points="0,-291.5 0,-464.5 588,-464.5 588,-291.5 0,-291.5"/>
<text text-anchor="start" x="8" y="-449.3" font-family="Times,serif" font-size="14.00">v23 = (v16 + (8 * v14))</text>
<text text-anchor="start" x="8" y="-434.3" font-family="Times,serif" font-size="14.00"> v13 = v23</text>
<text text-anchor="start" x="8" y="-419.3" font-family="Times,serif" font-size="14.00"> v24 = (v15 + (&#45;184 &#45; v11))</text>
<text text-anchor="start" x="8" y="-404.3" font-family="Times,serif" font-size="14.00"> v17 = v24</text>
<text text-anchor="start" x="8" y="-389.3" font-family="Times,serif" font-size="14.00"> *(IntToPtrCastExpr&lt;ptr&gt;(v23)) = *(IntToPtrCastExpr&lt;ptr&gt;((v24 &#45; 8)))</text>
<text text-anchor="start" x="8" y="-374.3" font-family="Times,serif" font-size="14.00"> *(IntToPtrCastExpr&lt;ptr&gt;((v13 + 4))) = *(IntToPtrCastExpr&lt;ptr&gt;((v17 &#45; 4)))</text>
<text text-anchor="start" x="8" y="-359.3" font-family="Times,serif" font-size="14.00"> *(IntToPtrCastExpr&lt;ptr&gt;((v13 + 8))) = *(IntToPtrCastExpr&lt;ptr&gt;(v17))</text>
<text text-anchor="start" x="8" y="-344.3" font-family="Times,serif" font-size="14.00"> *(IntToPtrCastExpr&lt;ptr&gt;((v13 + 12))) = *(IntToPtrCastExpr&lt;ptr&gt;((v17 + 4)))</text>
<text text-anchor="start" x="8" y="-329.3" font-family="Times,serif" font-size="14.00"> *(IntToPtrCastExpr&lt;ptr&gt;(g3)) = 0</text>
<text text-anchor="start" x="8" y="-314.3" font-family="Times,serif" font-size="14.00"> v9 = (g3 + 1)</text>
<text text-anchor="start" x="8" y="-299.3" font-family="Times,serif" font-size="14.00"> g3 = v9</text>
</g>
<!-- Node0xe62ebc0&#45;&gt;Node0xe630dd0 -->
<g id="edge13" class="edge"><title>Node0xe62ebc0&#45;&gt;Node0xe630dd0</title>
<path fill="none" stroke="black" d="M322.453,-516.375C320.216,-505.575 317.129,-490.671 313.81,-474.646"/>
<polygon fill="black" stroke="black" points="317.174,-473.632 311.719,-464.549 310.32,-475.051 317.174,-473.632"/>
<text text-anchor="middle" x="353.5" y="-486.8" font-family="Times,serif" font-size="14.00">v22 == 0</text>
</g>
<!-- Node0xe630360 -->
<g id="node14" class="node"><title>Node0xe630360</title>
<polygon fill="none" stroke="black" points="606,-359 606,-397 704,-397 704,-359 606,-359"/>
<text text-anchor="start" x="614" y="-381.8" font-family="Times,serif" font-size="14.00">0x806f5d0:</text>
<text text-anchor="start" x="614" y="-366.8" font-family="Times,serif" font-size="14.00"> v19 = v21</text>
</g>
<!-- Node0xe62ebc0&#45;&gt;Node0xe630360 -->
<g id="edge14" class="edge"><title>Node0xe62ebc0&#45;&gt;Node0xe630360</title>
<path fill="none" stroke="black" d="M383.055,-524.018C451.935,-511.734 562.803,-489.029 597,-465 617.925,-450.297 633.482,-425.443 643.188,-406.224"/>
<polygon fill="black" stroke="black" points="646.424,-407.57 647.604,-397.041 640.116,-404.536 646.424,-407.57"/>
<text text-anchor="middle" x="587.5" y="-486.8" font-family="Times,serif" font-size="14.00">v22 != 0</text>
</g>
<!-- Node0xcc3de50 -->
<g id="node15" class="node"><title>Node0xcc3de50</title>
<polygon fill="none" stroke="black" points="358,-217.5 358,-253.5 494,-253.5 494,-217.5 358,-217.5"/>
<text text-anchor="start" x="366" y="-231.8" font-family="Times,serif" font-size="14.00">while (v9 != v3):</text>
</g>
<!-- Node0xe630dd0&#45;&gt;Node0xcc3de50 -->
<g id="edge15" class="edge"><title>Node0xe630dd0&#45;&gt;Node0xcc3de50</title>
<path fill="none" stroke="black" d="M374.587,-291.223C384.779,-280.375 394.483,-270.047 402.658,-261.345"/>
<polygon fill="black" stroke="black" points="405.41,-263.527 409.707,-253.843 400.309,-258.734 405.41,-263.527"/>
</g>
<!-- Node0xe630360&#45;&gt;Node0xcc3cba0 -->
<g id="edge16" class="edge"><title>Node0xe630360&#45;&gt;Node0xcc3cba0</title>
<path fill="none" stroke="black" d="M656.201,-397.411C660.575,-470.221 672.954,-737.238 624,-802 593.747,-842.022 537.795,-858.688 494.769,-865.613"/>
<polygon fill="black" stroke="black" points="494.073,-862.178 484.689,-867.098 495.093,-869.103 494.073,-862.178"/>
</g>
<!-- Node0x1b14c550 -->
<g id="node16" class="node"><title>Node0x1b14c550</title>
<polygon fill="none" stroke="black" points="291,-97.5 291,-165.5 561,-165.5 561,-97.5 291,-97.5"/>
<text text-anchor="start" x="299" y="-150.3" font-family="Times,serif" font-size="14.00">0x806f628:</text>
<text text-anchor="start" x="299" y="-135.3" font-family="Times,serif" font-size="14.00"> *(IntToPtrCastExpr&lt;ptr&gt;(v9)) = 0</text>
<text text-anchor="start" x="299" y="-120.3" font-family="Times,serif" font-size="14.00"> v9 = (g3 + 1)</text>
<text text-anchor="start" x="299" y="-105.3" font-family="Times,serif" font-size="14.00"> g3 = v9</text>
</g>
<!-- Node0xcc3de50&#45;&gt;Node0x1b14c550 -->
<g id="edge17" class="edge"><title>Node0xcc3de50&#45;&gt;Node0x1b14c550</title>
<path fill="none" stroke="black" d="M402.309,-217.273C396.925,-212.065 391.933,-205.879 389,-199 386.385,-192.868 386.957,-190.346 389,-184 390.012,-180.856 391.295,-177.742 392.772,-174.694"/>
<polygon fill="black" stroke="black" points="395.924,-176.226 397.705,-165.782 389.8,-172.836 395.924,-176.226"/>
<text text-anchor="middle" x="420" y="-187.8" font-family="Times,serif" font-size="14.00">v9 != v3</text>
</g>
<!-- Node0x245f6c90 -->
<g id="node17" class="node"><title>Node0x245f6c90</title>
<polygon fill="none" stroke="black" points="631.5,-97.5 631.5,-165.5 744.5,-165.5 744.5,-97.5 631.5,-97.5"/>
<text text-anchor="start" x="639.5" y="-150.3" font-family="Times,serif" font-size="14.00">0x806f632:</text>
<text text-anchor="start" x="639.5" y="-135.3" font-family="Times,serif" font-size="14.00"> g3 = v2</text>
<text text-anchor="start" x="639.5" y="-120.3" font-family="Times,serif" font-size="14.00"> g7 = v1</text>
<text text-anchor="start" x="639.5" y="-105.3" font-family="Times,serif" font-size="14.00"> return result</text>
</g>
<!-- Node0xcc3de50&#45;&gt;Node0x245f6c90 -->
<g id="edge18" class="edge"><title>Node0xcc3de50&#45;&gt;Node0x245f6c90</title>
<path fill="none" stroke="black" d="M469.853,-217.427C511.283,-201.298 573.998,-176.883 621.566,-158.364"/>
<polygon fill="black" stroke="black" points="623.121,-161.514 631.17,-154.625 620.582,-154.991 623.121,-161.514"/>
<text text-anchor="middle" x="584" y="-187.8" font-family="Times,serif" font-size="14.00">v9 == v3</text>
</g>
<!-- Node0x1b14c550&#45;&gt;Node0xcc3de50 -->
<g id="edge19" class="edge"><title>Node0x1b14c550&#45;&gt;Node0xcc3de50</title>
<path fill="none" stroke="black" d="M447.712,-165.748C452.112,-176.299 454.464,-188.065 451,-199 449.944,-202.335 448.449,-205.627 446.709,-208.783"/>
<polygon fill="black" stroke="black" points="443.744,-206.923 441.319,-217.236 449.646,-210.686 443.744,-206.923"/>
</g>
<!-- Node0x245f6c90&#45;&gt;Node0x875da60 -->
<g id="edge20" class="edge"><title>Node0x245f6c90&#45;&gt;Node0x875da60</title>
<path fill="none" stroke="black" d="M716.891,-97.4817C725.605,-87.5234 735.02,-76.7634 743.191,-67.4249"/>
<polygon fill="black" stroke="black" points="746.051,-69.4708 750.002,-59.6402 740.783,-64.8612 746.051,-69.4708"/>
</g>
</g>
</svg>
