<?xml version="1.0" encoding="UTF-8" standalone="no"?>
<!DOCTYPE svg PUBLIC "-//W3C//DTD SVG 1.1//EN"
 "http://www.w3.org/Graphics/SVG/1.1/DTD/svg11.dtd">
<!-- Generated by graphviz version 2.38.0 (20140413.2041)
 -->
<!-- Title: Control&#45;flow graph for function &#39;mbedtls_ccm_init(*a1)&#39;. Pages: 1 -->
<svg width="426pt" height="233pt"
 viewBox="0.00 0.00 426.00 233.00" xmlns="http://www.w3.org/2000/svg" xmlns:xlink="http://www.w3.org/1999/xlink">
<g id="graph0" class="graph" transform="scale(1 1) rotate(0) translate(4 229)">
<title>Control&#45;flow graph for function &#39;mbedtls_ccm_init(*a1)&#39;.</title>
<polygon fill="white" stroke="none" points="-4,4 -4,-229 422,-229 422,4 -4,4"/>
<text text-anchor="middle" x="209" y="-7.8" font-family="Times,serif" font-size="14.00">Control&#45;flow graph for function &#39;mbedtls_ccm_init(*a1)&#39;.</text>
<!-- Node0x1e86dd70 -->
<g id="node1" class="node"><title>Node0x1e86dd70</title>
<polygon fill="none" stroke="black" points="179.5,-186.5 179.5,-224.5 238.5,-224.5 238.5,-186.5 179.5,-186.5"/>
<text text-anchor="start" x="187.5" y="-209.3" font-family="Times,serif" font-size="14.00">entry:</text>
<text text-anchor="start" x="187.5" y="-194.3" font-family="Times,serif" font-size="14.00"> a1</text>
</g>
<!-- Node0x10197910 -->
<g id="node2" class="node"><title>Node0x10197910</title>
<polygon fill="none" stroke="black" points="133.5,-96.5 133.5,-149.5 284.5,-149.5 284.5,-96.5 133.5,-96.5"/>
<text text-anchor="start" x="141.5" y="-134.3" font-family="Times,serif" font-size="14.00">0x806fed0:</text>
<text text-anchor="start" x="141.5" y="-119.3" font-family="Times,serif" font-size="14.00"> memset(a1, 0, 16)</text>
<text text-anchor="start" x="141.5" y="-104.3" font-family="Times,serif" font-size="14.00"> return 0</text>
</g>
<!-- Node0x1e86dd70&#45;&gt;Node0x10197910 -->
<g id="edge1" class="edge"><title>Node0x1e86dd70&#45;&gt;Node0x10197910</title>
<path fill="none" stroke="black" d="M209,-186.233C209,-178.347 209,-168.835 209,-159.648"/>
<polygon fill="black" stroke="black" points="212.5,-159.517 209,-149.517 205.5,-159.517 212.5,-159.517"/>
</g>
<!-- Node0xb9bad50 -->
<g id="node3" class="node"><title>Node0xb9bad50</title>
<polygon fill="none" stroke="black" points="182,-23.5 182,-59.5 236,-59.5 236,-23.5 182,-23.5"/>
<text text-anchor="start" x="190" y="-37.8" font-family="Times,serif" font-size="14.00">exit:</text>
</g>
<!-- Node0x10197910&#45;&gt;Node0xb9bad50 -->
<g id="edge2" class="edge"><title>Node0x10197910&#45;&gt;Node0xb9bad50</title>
<path fill="none" stroke="black" d="M209,-96.4081C209,-87.9823 209,-78.5803 209,-70.0174"/>
<polygon fill="black" stroke="black" points="212.5,-69.7564 209,-59.7564 205.5,-69.7565 212.5,-69.7564"/>
</g>
</g>
</svg>
