<?xml version="1.0" encoding="UTF-8" standalone="no"?>
<!DOCTYPE svg PUBLIC "-//W3C//DTD SVG 1.1//EN"
 "http://www.w3.org/Graphics/SVG/1.1/DTD/svg11.dtd">
<!-- Generated by graphviz version 2.38.0 (20140413.2041)
 -->
<!-- Title: Control&#45;flow graph for function &#39;sha224_wrap(a1, a2, a3)&#39;. Pages: 1 -->
<svg width="439pt" height="293pt"
 viewBox="0.00 0.00 439.00 293.00" xmlns="http://www.w3.org/2000/svg" xmlns:xlink="http://www.w3.org/1999/xlink">
<g id="graph0" class="graph" transform="scale(1 1) rotate(0) translate(4 289)">
<title>Control&#45;flow graph for function &#39;sha224_wrap(a1, a2, a3)&#39;.</title>
<polygon fill="white" stroke="none" points="-4,4 -4,-289 435,-289 435,4 -4,4"/>
<text text-anchor="middle" x="215.5" y="-7.8" font-family="Times,serif" font-size="14.00">Control&#45;flow graph for function &#39;sha224_wrap(a1, a2, a3)&#39;.</text>
<!-- Node0x15ae5660 -->
<g id="node1" class="node"><title>Node0x15ae5660</title>
<polygon fill="none" stroke="black" points="186,-216.5 186,-284.5 245,-284.5 245,-216.5 186,-216.5"/>
<text text-anchor="start" x="194" y="-269.3" font-family="Times,serif" font-size="14.00">entry:</text>
<text text-anchor="start" x="194" y="-254.3" font-family="Times,serif" font-size="14.00"> a1</text>
<text text-anchor="start" x="194" y="-239.3" font-family="Times,serif" font-size="14.00"> a2</text>
<text text-anchor="start" x="194" y="-224.3" font-family="Times,serif" font-size="14.00"> a3</text>
</g>
<!-- Node0x20f8d290 -->
<g id="node2" class="node"><title>Node0x20f8d290</title>
<polygon fill="none" stroke="black" points="68,-96.5 68,-179.5 363,-179.5 363,-96.5 68,-96.5"/>
<text text-anchor="start" x="76" y="-164.3" font-family="Times,serif" font-size="14.00">result = mbedtls_sha256(a1, a2, a3, 1)</text>
<text text-anchor="start" x="76" y="-149.3" font-family="Times,serif" font-size="14.00"> g1 = result</text>
<text text-anchor="start" x="76" y="-134.3" font-family="Times,serif" font-size="14.00"> v1</text>
<text text-anchor="start" x="76" y="-119.3" font-family="Times,serif" font-size="14.00"> g2 = v1</text>
<text text-anchor="start" x="76" y="-104.3" font-family="Times,serif" font-size="14.00"> return result</text>
</g>
<!-- Node0x15ae5660&#45;&gt;Node0x20f8d290 -->
<g id="edge1" class="edge"><title>Node0x15ae5660&#45;&gt;Node0x20f8d290</title>
<path fill="none" stroke="black" d="M215.5,-216.346C215.5,-207.94 215.5,-198.717 215.5,-189.659"/>
<polygon fill="black" stroke="black" points="219,-189.555 215.5,-179.555 212,-189.555 219,-189.555"/>
</g>
<!-- Node0x20f8d0d0 -->
<g id="node3" class="node"><title>Node0x20f8d0d0</title>
<polygon fill="none" stroke="black" points="188.5,-23.5 188.5,-59.5 242.5,-59.5 242.5,-23.5 188.5,-23.5"/>
<text text-anchor="start" x="196.5" y="-37.8" font-family="Times,serif" font-size="14.00">exit:</text>
</g>
<!-- Node0x20f8d290&#45;&gt;Node0x20f8d0d0 -->
<g id="edge2" class="edge"><title>Node0x20f8d290&#45;&gt;Node0x20f8d0d0</title>
<path fill="none" stroke="black" d="M215.5,-96.3751C215.5,-87.4706 215.5,-78.246 215.5,-70"/>
<polygon fill="black" stroke="black" points="219,-69.8327 215.5,-59.8328 212,-69.8328 219,-69.8327"/>
</g>
</g>
</svg>
