<?xml version="1.0" encoding="UTF-8" standalone="no"?>
<!DOCTYPE svg PUBLIC "-//W3C//DTD SVG 1.1//EN"
 "http://www.w3.org/Graphics/SVG/1.1/DTD/svg11.dtd">
<!-- Generated by graphviz version 2.38.0 (20140413.2041)
 -->
<!-- Title: Control&#45;flow graph for function &#39;mbedtls_md5_starts(*a1)&#39;. Pages: 1 -->
<svg width="445pt" height="308pt"
 viewBox="0.00 0.00 445.00 308.00" xmlns="http://www.w3.org/2000/svg" xmlns:xlink="http://www.w3.org/1999/xlink">
<g id="graph0" class="graph" transform="scale(1 1) rotate(0) translate(4 304)">
<title>Control&#45;flow graph for function &#39;mbedtls_md5_starts(*a1)&#39;.</title>
<polygon fill="white" stroke="none" points="-4,4 -4,-304 441,-304 441,4 -4,4"/>
<text text-anchor="middle" x="218.5" y="-7.8" font-family="Times,serif" font-size="14.00">Control&#45;flow graph for function &#39;mbedtls_md5_starts(*a1)&#39;.</text>
<!-- Node0x2231e6b0 -->
<g id="node1" class="node"><title>Node0x2231e6b0</title>
<polygon fill="none" stroke="black" points="189,-261.5 189,-299.5 248,-299.5 248,-261.5 189,-261.5"/>
<text text-anchor="start" x="197" y="-284.3" font-family="Times,serif" font-size="14.00">entry:</text>
<text text-anchor="start" x="197" y="-269.3" font-family="Times,serif" font-size="14.00"> a1</text>
</g>
<!-- Node0x2231b850 -->
<g id="node2" class="node"><title>Node0x2231b850</title>
<polygon fill="none" stroke="black" points="3.5,-96.5 3.5,-224.5 433.5,-224.5 433.5,-96.5 3.5,-96.5"/>
<text text-anchor="start" x="11.5" y="-209.3" font-family="Times,serif" font-size="14.00">result = PtrToIntCastExpr&lt;int32&gt;(a1)</text>
<text text-anchor="start" x="11.5" y="-194.3" font-family="Times,serif" font-size="14.00"> *(a1) = 0</text>
<text text-anchor="start" x="11.5" y="-179.3" font-family="Times,serif" font-size="14.00"> *(IntToPtrCastExpr&lt;ptr&gt;((result + 4))) = 0</text>
<text text-anchor="start" x="11.5" y="-164.3" font-family="Times,serif" font-size="14.00"> *(IntToPtrCastExpr&lt;ptr&gt;((result + 8))) = 1732584193</text>
<text text-anchor="start" x="11.5" y="-149.3" font-family="Times,serif" font-size="14.00"> *(IntToPtrCastExpr&lt;ptr&gt;((result + 12))) = &#45;271733879</text>
<text text-anchor="start" x="11.5" y="-134.3" font-family="Times,serif" font-size="14.00"> *(IntToPtrCastExpr&lt;ptr&gt;((result + 16))) = &#45;1732584194</text>
<text text-anchor="start" x="11.5" y="-119.3" font-family="Times,serif" font-size="14.00"> *(IntToPtrCastExpr&lt;ptr&gt;((result + 20))) = 271733878</text>
<text text-anchor="start" x="11.5" y="-104.3" font-family="Times,serif" font-size="14.00"> return result</text>
</g>
<!-- Node0x2231e6b0&#45;&gt;Node0x2231b850 -->
<g id="edge1" class="edge"><title>Node0x2231e6b0&#45;&gt;Node0x2231b850</title>
<path fill="none" stroke="black" d="M218.5,-261.321C218.5,-253.757 218.5,-244.438 218.5,-234.56"/>
<polygon fill="black" stroke="black" points="222,-234.54 218.5,-224.54 215,-234.54 222,-234.54"/>
</g>
<!-- Node0x2231c670 -->
<g id="node3" class="node"><title>Node0x2231c670</title>
<polygon fill="none" stroke="black" points="191.5,-23.5 191.5,-59.5 245.5,-59.5 245.5,-23.5 191.5,-23.5"/>
<text text-anchor="start" x="199.5" y="-37.8" font-family="Times,serif" font-size="14.00">exit:</text>
</g>
<!-- Node0x2231b850&#45;&gt;Node0x2231c670 -->
<g id="edge2" class="edge"><title>Node0x2231b850&#45;&gt;Node0x2231c670</title>
<path fill="none" stroke="black" d="M218.5,-96.206C218.5,-87.0257 218.5,-78.004 218.5,-70.0532"/>
<polygon fill="black" stroke="black" points="222,-69.9607 218.5,-59.9608 215,-69.9608 222,-69.9607"/>
</g>
</g>
</svg>
