<?xml version="1.0" encoding="UTF-8" standalone="no"?>
<!DOCTYPE svg PUBLIC "-//W3C//DTD SVG 1.1//EN"
 "http://www.w3.org/Graphics/SVG/1.1/DTD/svg11.dtd">
<!-- Generated by graphviz version 2.38.0 (20140413.2041)
 -->
<!-- Title: Control&#45;flow graph for function &#39;busy_msleep(a1)&#39;. Pages: 1 -->
<svg width="1057pt" height="766pt"
 viewBox="0.00 0.00 1056.50 766.00" xmlns="http://www.w3.org/2000/svg" xmlns:xlink="http://www.w3.org/1999/xlink">
<g id="graph0" class="graph" transform="scale(1 1) rotate(0) translate(4 762)">
<title>Control&#45;flow graph for function &#39;busy_msleep(a1)&#39;.</title>
<polygon fill="white" stroke="none" points="-4,4 -4,-762 1052.5,-762 1052.5,4 -4,4"/>
<text text-anchor="middle" x="524.25" y="-7.8" font-family="Times,serif" font-size="14.00">Control&#45;flow graph for function &#39;busy_msleep(a1)&#39;.</text>
<!-- Node0x27b8cd10 -->
<g id="node1" class="node"><title>Node0x27b8cd10</title>
<polygon fill="none" stroke="black" points="276,-719.5 276,-757.5 335,-757.5 335,-719.5 276,-719.5"/>
<text text-anchor="start" x="284" y="-742.3" font-family="Times,serif" font-size="14.00">entry:</text>
<text text-anchor="start" x="284" y="-727.3" font-family="Times,serif" font-size="14.00"> a1</text>
</g>
<!-- Node0x27b8cf00 -->
<g id="node2" class="node"><title>Node0x27b8cf00</title>
<polygon fill="none" stroke="black" points="166,-568.5 166,-681.5 445,-681.5 445,-568.5 166,-568.5"/>
<text text-anchor="start" x="174" y="-666.3" font-family="Times,serif" font-size="14.00">v1 = g7</text>
<text text-anchor="start" x="174" y="-651.3" font-family="Times,serif" font-size="14.00"> v2 = g3</text>
<text text-anchor="start" x="174" y="-636.3" font-family="Times,serif" font-size="14.00"> g3 = 0</text>
<text text-anchor="start" x="174" y="-621.3" font-family="Times,serif" font-size="14.00"> v3</text>
<text text-anchor="start" x="174" y="-606.3" font-family="Times,serif" font-size="14.00"> g7 = &amp;(v3)</text>
<text text-anchor="start" x="174" y="-591.3" font-family="Times,serif" font-size="14.00"> mbedtls_timing_get_timer(&amp;(v3), 1)</text>
<text text-anchor="start" x="174" y="-576.3" font-family="Times,serif" font-size="14.00"> result = g3</text>
</g>
<!-- Node0x27b8cd10&#45;&gt;Node0x27b8cf00 -->
<g id="edge1" class="edge"><title>Node0x27b8cd10&#45;&gt;Node0x27b8cf00</title>
<path fill="none" stroke="black" d="M305.5,-719.088C305.5,-711.294 305.5,-701.699 305.5,-691.661"/>
<polygon fill="black" stroke="black" points="309,-691.525 305.5,-681.525 302,-691.525 309,-691.525"/>
</g>
<!-- Node0x27b8d080 -->
<g id="node3" class="node"><title>Node0x27b8d080</title>
<polygon fill="none" stroke="black" points="47.5,-494.5 47.5,-530.5 563.5,-530.5 563.5,-494.5 47.5,-494.5"/>
<text text-anchor="start" x="55.5" y="-508.8" font-family="Times,serif" font-size="14.00">if (mbedtls_timing_get_timer(IntToPtrCastExpr&lt;ptr&gt;(g7), 0) &gt;= g1):</text>
</g>
<!-- Node0x27b8cf00&#45;&gt;Node0x27b8d080 -->
<g id="edge2" class="edge"><title>Node0x27b8cf00&#45;&gt;Node0x27b8d080</title>
<path fill="none" stroke="black" d="M305.5,-568.426C305.5,-558.86 305.5,-549.307 305.5,-540.913"/>
<polygon fill="black" stroke="black" points="309,-540.644 305.5,-530.644 302,-540.644 309,-540.644"/>
</g>
<!-- Node0x27b8d5d0 -->
<g id="node4" class="node"><title>Node0x27b8d5d0</title>
<polygon fill="none" stroke="black" points="0,-287.5 0,-370.5 113,-370.5 113,-287.5 0,-287.5"/>
<text text-anchor="start" x="8" y="-355.3" font-family="Times,serif" font-size="14.00">0x80558cf:</text>
<text text-anchor="start" x="8" y="-340.3" font-family="Times,serif" font-size="14.00"> g1 = result</text>
<text text-anchor="start" x="8" y="-325.3" font-family="Times,serif" font-size="14.00"> g3 = v2</text>
<text text-anchor="start" x="8" y="-310.3" font-family="Times,serif" font-size="14.00"> g7 = v1</text>
<text text-anchor="start" x="8" y="-295.3" font-family="Times,serif" font-size="14.00"> return result</text>
</g>
<!-- Node0x27b8d080&#45;&gt;Node0x27b8d5d0 -->
<g id="edge3" class="edge"><title>Node0x27b8d080&#45;&gt;Node0x27b8d5d0</title>
<path fill="none" stroke="black" d="M91.5282,-494.496C75.6044,-489.723 63.153,-483.669 56.5,-476 34.2426,-450.344 35.2856,-411.546 41.3348,-380.392"/>
<polygon fill="black" stroke="black" points="44.7657,-381.085 43.4515,-370.572 37.9228,-379.61 44.7657,-381.085"/>
<text text-anchor="middle" x="292" y="-464.8" font-family="Times,serif" font-size="14.00">mbedtls_timing_get_timer(IntToPtrCastExpr&lt;ptr&gt;(g7), 0) &gt;= g1</text>
</g>
<!-- Node0x27b8d3f0 -->
<g id="node5" class="node"><title>Node0x27b8d3f0</title>
<polygon fill="none" stroke="black" points="490.5,-389.5 490.5,-442.5 628.5,-442.5 628.5,-389.5 490.5,-389.5"/>
<text text-anchor="start" x="498.5" y="-427.3" font-family="Times,serif" font-size="14.00">g3 = (result + 1)</text>
<text text-anchor="start" x="498.5" y="-412.3" font-family="Times,serif" font-size="14.00"> v4 = g3</text>
<text text-anchor="start" x="498.5" y="-397.3" font-family="Times,serif" font-size="14.00"> result = v4</text>
</g>
<!-- Node0x27b8d080&#45;&gt;Node0x27b8d3f0 -->
<g id="edge4" class="edge"><title>Node0x27b8d080&#45;&gt;Node0x27b8d3f0</title>
<path fill="none" stroke="black" d="M478.465,-494.496C501.803,-489.725 521.24,-483.667 531.5,-476 539.522,-470.006 545.341,-461.125 549.523,-452.063"/>
<polygon fill="black" stroke="black" points="552.818,-453.25 553.312,-442.667 546.326,-450.632 552.818,-453.25"/>
<text text-anchor="middle" x="774" y="-464.8" font-family="Times,serif" font-size="14.00">mbedtls_timing_get_timer(IntToPtrCastExpr&lt;ptr&gt;(g7), 0) &lt; g1</text>
</g>
<!-- Node0x9e7ec10 -->
<g id="node6" class="node"><title>Node0x9e7ec10</title>
<polygon fill="none" stroke="black" points="150.5,-23.5 150.5,-59.5 204.5,-59.5 204.5,-23.5 150.5,-23.5"/>
<text text-anchor="start" x="158.5" y="-37.8" font-family="Times,serif" font-size="14.00">exit:</text>
</g>
<!-- Node0x27b8d5d0&#45;&gt;Node0x9e7ec10 -->
<g id="edge5" class="edge"><title>Node0x27b8d5d0&#45;&gt;Node0x9e7ec10</title>
<path fill="none" stroke="black" d="M59.2945,-287.397C62.0748,-261.434 67.5911,-227.422 78.5,-199 97.7929,-148.734 134.21,-97.2602 157.091,-67.6698"/>
<polygon fill="black" stroke="black" points="160.027,-69.5983 163.442,-59.5689 154.518,-65.2795 160.027,-69.5983"/>
</g>
<!-- Node0x27b8ce80 -->
<g id="node7" class="node"><title>Node0x27b8ce80</title>
<polygon fill="none" stroke="black" points="296,-232.5 296,-268.5 829,-268.5 829,-232.5 296,-232.5"/>
<text text-anchor="start" x="304" y="-246.8" font-family="Times,serif" font-size="14.00">while (mbedtls_timing_get_timer(IntToPtrCastExpr&lt;ptr&gt;(g7), 0) &lt; g1):</text>
</g>
<!-- Node0x27b8d3f0&#45;&gt;Node0x27b8ce80 -->
<g id="edge6" class="edge"><title>Node0x27b8d3f0&#45;&gt;Node0x27b8ce80</title>
<path fill="none" stroke="black" d="M559.969,-389.453C560.52,-359.406 561.432,-309.724 561.997,-278.897"/>
<polygon fill="black" stroke="black" points="565.498,-278.905 562.182,-268.843 558.499,-278.777 565.498,-278.905"/>
</g>
<!-- Node0x27b8dd80 -->
<g id="node8" class="node"><title>Node0x27b8dd80</title>
<polygon fill="none" stroke="black" points="243.5,-105 243.5,-173 361.5,-173 361.5,-105 243.5,-105"/>
<text text-anchor="start" x="251.5" y="-157.8" font-family="Times,serif" font-size="14.00">0x80558b8:</text>
<text text-anchor="start" x="251.5" y="-142.8" font-family="Times,serif" font-size="14.00"> g3 = (v4 + 1)</text>
<text text-anchor="start" x="251.5" y="-127.8" font-family="Times,serif" font-size="14.00"> v4 = g3</text>
<text text-anchor="start" x="251.5" y="-112.8" font-family="Times,serif" font-size="14.00"> result = v4</text>
</g>
<!-- Node0x27b8ce80&#45;&gt;Node0x27b8dd80 -->
<g id="edge7" class="edge"><title>Node0x27b8ce80&#45;&gt;Node0x27b8dd80</title>
<path fill="none" stroke="black" d="M295.679,-244.373C197.42,-239.673 106.061,-230.775 90.5,-214 45.1469,-165.108 155.075,-148.515 233.006,-142.886"/>
<polygon fill="black" stroke="black" points="233.55,-146.358 243.292,-142.192 233.079,-139.373 233.55,-146.358"/>
<text text-anchor="middle" x="320" y="-202.8" font-family="Times,serif" font-size="14.00">mbedtls_timing_get_timer(IntToPtrCastExpr&lt;ptr&gt;(g7), 0) &lt; g1</text>
</g>
<!-- Node0x27b8dd20 -->
<g id="node9" class="node"><title>Node0x27b8dd20</title>
<polygon fill="none" stroke="black" points="460,-97.5 460,-180.5 573,-180.5 573,-97.5 460,-97.5"/>
<text text-anchor="start" x="468" y="-165.3" font-family="Times,serif" font-size="14.00">0x80558cf:</text>
<text text-anchor="start" x="468" y="-150.3" font-family="Times,serif" font-size="14.00"> g1 = result</text>
<text text-anchor="start" x="468" y="-135.3" font-family="Times,serif" font-size="14.00"> g3 = v2</text>
<text text-anchor="start" x="468" y="-120.3" font-family="Times,serif" font-size="14.00"> g7 = v1</text>
<text text-anchor="start" x="468" y="-105.3" font-family="Times,serif" font-size="14.00"> return result</text>
</g>
<!-- Node0x27b8ce80&#45;&gt;Node0x27b8dd20 -->
<g id="edge8" class="edge"><title>Node0x27b8ce80&#45;&gt;Node0x27b8dd20</title>
<path fill="none" stroke="black" d="M571.776,-232.257C575.869,-222.3 578.869,-209.675 574.5,-199 573.084,-195.54 571.356,-192.173 569.395,-188.916"/>
<polygon fill="black" stroke="black" points="572.231,-186.863 563.71,-180.566 566.444,-190.802 572.231,-186.863"/>
<text text-anchor="middle" x="813" y="-202.8" font-family="Times,serif" font-size="14.00">mbedtls_timing_get_timer(IntToPtrCastExpr&lt;ptr&gt;(g7), 0) &gt;= g1</text>
</g>
<!-- Node0x27b8dd80&#45;&gt;Node0x27b8ce80 -->
<g id="edge9" class="edge"><title>Node0x27b8dd80&#45;&gt;Node0x27b8ce80</title>
<path fill="none" stroke="black" d="M361.6,-157.691C388.568,-165.423 421.002,-174.247 450.5,-181 494.094,-190.98 516.758,-168.538 549.5,-199 555.909,-204.962 559.331,-213.625 561.108,-222.097"/>
<polygon fill="black" stroke="black" points="557.665,-222.741 562.551,-232.142 564.594,-221.746 557.665,-222.741"/>
</g>
<!-- Node0x27b8dd20&#45;&gt;Node0x9e7ec10 -->
<g id="edge10" class="edge"><title>Node0x27b8dd20&#45;&gt;Node0x9e7ec10</title>
<path fill="none" stroke="black" d="M459.759,-122.015C389.913,-102.339 273.317,-69.4926 214.228,-52.8467"/>
<polygon fill="black" stroke="black" points="215.145,-49.4689 204.571,-50.1261 213.247,-56.2066 215.145,-49.4689"/>
</g>
</g>
</svg>
