<?xml version="1.0" encoding="UTF-8" standalone="no"?>
<!DOCTYPE svg PUBLIC "-//W3C//DTD SVG 1.1//EN"
 "http://www.w3.org/Graphics/SVG/1.1/DTD/svg11.dtd">
<!-- Generated by graphviz version 2.38.0 (20140413.2041)
 -->
<!-- Title: Control&#45;flow graph for function &#39;mbedtls_mpi_size(a1)&#39;. Pages: 1 -->
<svg width="419pt" height="293pt"
 viewBox="0.00 0.00 419.00 293.00" xmlns="http://www.w3.org/2000/svg" xmlns:xlink="http://www.w3.org/1999/xlink">
<g id="graph0" class="graph" transform="scale(1 1) rotate(0) translate(4 289)">
<title>Control&#45;flow graph for function &#39;mbedtls_mpi_size(a1)&#39;.</title>
<polygon fill="white" stroke="none" points="-4,4 -4,-289 415,-289 415,4 -4,4"/>
<text text-anchor="middle" x="205.5" y="-7.8" font-family="Times,serif" font-size="14.00">Control&#45;flow graph for function &#39;mbedtls_mpi_size(a1)&#39;.</text>
<!-- Node0xb210860 -->
<g id="node1" class="node"><title>Node0xb210860</title>
<polygon fill="none" stroke="black" points="176,-246.5 176,-284.5 235,-284.5 235,-246.5 176,-246.5"/>
<text text-anchor="start" x="184" y="-269.3" font-family="Times,serif" font-size="14.00">entry:</text>
<text text-anchor="start" x="184" y="-254.3" font-family="Times,serif" font-size="14.00"> a1</text>
</g>
<!-- Node0xd35deb0 -->
<g id="node2" class="node"><title>Node0xd35deb0</title>
<polygon fill="none" stroke="black" points="78.5,-96.5 78.5,-209.5 332.5,-209.5 332.5,-96.5 78.5,-96.5"/>
<text text-anchor="start" x="86.5" y="-194.3" font-family="Times,serif" font-size="14.00">0x8056450:</text>
<text text-anchor="start" x="86.5" y="-179.3" font-family="Times,serif" font-size="14.00"> v1</text>
<text text-anchor="start" x="86.5" y="-164.3" font-family="Times,serif" font-size="14.00"> v2 = mbedtls_mpi_bitlen(a1, v1)</text>
<text text-anchor="start" x="86.5" y="-149.3" font-family="Times,serif" font-size="14.00"> g2 = v1</text>
<text text-anchor="start" x="86.5" y="-134.3" font-family="Times,serif" font-size="14.00"> result = ((v2 + 7) / 8)</text>
<text text-anchor="start" x="86.5" y="-119.3" font-family="Times,serif" font-size="14.00"> g1 = result</text>
<text text-anchor="start" x="86.5" y="-104.3" font-family="Times,serif" font-size="14.00"> return result</text>
</g>
<!-- Node0xb210860&#45;&gt;Node0xd35deb0 -->
<g id="edge1" class="edge"><title>Node0xb210860&#45;&gt;Node0xd35deb0</title>
<path fill="none" stroke="black" d="M205.5,-246.253C205.5,-238.701 205.5,-229.442 205.5,-219.734"/>
<polygon fill="black" stroke="black" points="209,-219.508 205.5,-209.508 202,-219.508 209,-219.508"/>
</g>
<!-- Node0xb212410 -->
<g id="node3" class="node"><title>Node0xb212410</title>
<polygon fill="none" stroke="black" points="178.5,-23.5 178.5,-59.5 232.5,-59.5 232.5,-23.5 178.5,-23.5"/>
<text text-anchor="start" x="186.5" y="-37.8" font-family="Times,serif" font-size="14.00">exit:</text>
</g>
<!-- Node0xd35deb0&#45;&gt;Node0xb212410 -->
<g id="edge2" class="edge"><title>Node0xd35deb0&#45;&gt;Node0xb212410</title>
<path fill="none" stroke="black" d="M205.5,-96.2876C205.5,-87.1343 205.5,-78.0169 205.5,-69.9591"/>
<polygon fill="black" stroke="black" points="209,-69.7241 205.5,-59.7242 202,-69.7242 209,-69.7241"/>
</g>
</g>
</svg>
