<?xml version="1.0" encoding="UTF-8" standalone="no"?>
<!DOCTYPE svg PUBLIC "-//W3C//DTD SVG 1.1//EN"
 "http://www.w3.org/Graphics/SVG/1.1/DTD/svg11.dtd">
<!-- Generated by graphviz version 2.38.0 (20140413.2041)
 -->
<!-- Title: Control&#45;flow graph for function &#39;mbedtls_mpi_lsb(a1)&#39;. Pages: 1 -->
<svg width="807pt" height="1167pt"
 viewBox="0.00 0.00 806.50 1167.00" xmlns="http://www.w3.org/2000/svg" xmlns:xlink="http://www.w3.org/1999/xlink">
<g id="graph0" class="graph" transform="scale(1 1) rotate(0) translate(4 1163)">
<title>Control&#45;flow graph for function &#39;mbedtls_mpi_lsb(a1)&#39;.</title>
<polygon fill="white" stroke="none" points="-4,4 -4,-1163 802.5,-1163 802.5,4 -4,4"/>
<text text-anchor="middle" x="399.25" y="-7.8" font-family="Times,serif" font-size="14.00">Control&#45;flow graph for function &#39;mbedtls_mpi_lsb(a1)&#39;.</text>
<!-- Node0xdce4800 -->
<g id="node1" class="node"><title>Node0xdce4800</title>
<polygon fill="none" stroke="black" points="127.5,-1120.5 127.5,-1158.5 186.5,-1158.5 186.5,-1120.5 127.5,-1120.5"/>
<text text-anchor="start" x="135.5" y="-1143.3" font-family="Times,serif" font-size="14.00">entry:</text>
<text text-anchor="start" x="135.5" y="-1128.3" font-family="Times,serif" font-size="14.00"> a1</text>
</g>
<!-- Node0xc1d4700 -->
<g id="node2" class="node"><title>Node0xc1d4700</title>
<polygon fill="none" stroke="black" points="0,-1046.5 0,-1082.5 314,-1082.5 314,-1046.5 0,-1046.5"/>
<text text-anchor="start" x="8" y="-1060.8" font-family="Times,serif" font-size="14.00">v1 = *(IntToPtrCastExpr&lt;ptr&gt;((a1 + 4)))</text>
</g>
<!-- Node0xdce4800&#45;&gt;Node0xc1d4700 -->
<g id="edge1" class="edge"><title>Node0xdce4800&#45;&gt;Node0xc1d4700</title>
<path fill="none" stroke="black" d="M157,-1120.46C157,-1112.2 157,-1102.24 157,-1093.07"/>
<polygon fill="black" stroke="black" points="160.5,-1092.83 157,-1082.83 153.5,-1092.83 160.5,-1092.83"/>
</g>
<!-- Node0xc1d40a0 -->
<g id="node3" class="node"><title>Node0xc1d40a0</title>
<polygon fill="none" stroke="black" points="104.5,-970.5 104.5,-1008.5 209.5,-1008.5 209.5,-970.5 104.5,-970.5"/>
<text text-anchor="start" x="112.5" y="-993.3" font-family="Times,serif" font-size="14.00">if (v1 == 0):</text>
<text text-anchor="start" x="112.5" y="-978.3" font-family="Times,serif" font-size="14.00"> else:</text>
</g>
<!-- Node0xc1d4700&#45;&gt;Node0xc1d40a0 -->
<g id="edge2" class="edge"><title>Node0xc1d4700&#45;&gt;Node0xc1d40a0</title>
<path fill="none" stroke="black" d="M157,-1046.2C157,-1037.99 157,-1027.97 157,-1018.7"/>
<polygon fill="black" stroke="black" points="160.5,-1018.69 157,-1008.69 153.5,-1018.69 160.5,-1018.69"/>
</g>
<!-- Node0xc1d4ba0 -->
<g id="node4" class="node"><title>Node0xc1d4ba0</title>
<polygon fill="none" stroke="black" points="67.5,-793.5 67.5,-831.5 164.5,-831.5 164.5,-793.5 67.5,-793.5"/>
<text text-anchor="start" x="75.5" y="-816.3" font-family="Times,serif" font-size="14.00">0x80563cf:</text>
<text text-anchor="start" x="75.5" y="-801.3" font-family="Times,serif" font-size="14.00"> g1 = 0</text>
</g>
<!-- Node0xc1d40a0&#45;&gt;Node0xc1d4ba0 -->
<g id="edge3" class="edge"><title>Node0xc1d40a0&#45;&gt;Node0xc1d4ba0</title>
<path fill="none" stroke="black" d="M127.539,-970.263C121.662,-965.133 116.291,-959.007 113,-952 96.4249,-916.714 102.043,-870.586 108.394,-841.493"/>
<polygon fill="black" stroke="black" points="111.839,-842.133 110.728,-831.596 105.026,-840.526 111.839,-842.133"/>
<text text-anchor="middle" x="143" y="-940.8" font-family="Times,serif" font-size="14.00">v1 == 0</text>
</g>
<!-- Node0xc1d4c40 -->
<g id="node5" class="node"><title>Node0xc1d4c40</title>
<polygon fill="none" stroke="black" points="148.5,-850.5 148.5,-918.5 249.5,-918.5 249.5,-850.5 148.5,-850.5"/>
<text text-anchor="start" x="156.5" y="-903.3" font-family="Times,serif" font-size="14.00">0x80563a0:</text>
<text text-anchor="start" x="156.5" y="-888.3" font-family="Times,serif" font-size="14.00"> g1 = 0</text>
<text text-anchor="start" x="156.5" y="-873.3" font-family="Times,serif" font-size="14.00"> v2 = 0</text>
<text text-anchor="start" x="156.5" y="-858.3" font-family="Times,serif" font-size="14.00"> v3 = 0</text>
</g>
<!-- Node0xc1d40a0&#45;&gt;Node0xc1d4c40 -->
<g id="edge4" class="edge"><title>Node0xc1d40a0&#45;&gt;Node0xc1d4c40</title>
<path fill="none" stroke="black" d="M167.842,-970.259C171.019,-964.524 174.348,-958.096 177,-952 180.277,-944.469 183.356,-936.283 186.113,-928.312"/>
<polygon fill="black" stroke="black" points="189.457,-929.348 189.309,-918.754 182.819,-927.128 189.457,-929.348"/>
<text text-anchor="middle" x="210" y="-940.8" font-family="Times,serif" font-size="14.00">v1 != 0</text>
</g>
<!-- Node0xc1d4a60 -->
<g id="node6" class="node"><title>Node0xc1d4a60</title>
<polygon fill="none" stroke="black" points="271.5,-97.5 271.5,-135.5 372.5,-135.5 372.5,-97.5 271.5,-97.5"/>
<text text-anchor="start" x="279.5" y="-120.3" font-family="Times,serif" font-size="14.00">0x80563c0:</text>
<text text-anchor="start" x="279.5" y="-105.3" font-family="Times,serif" font-size="14.00"> return 0</text>
</g>
<!-- Node0xc1d4ba0&#45;&gt;Node0xc1d4a60 -->
<g id="edge5" class="edge"><title>Node0xc1d4ba0&#45;&gt;Node0xc1d4a60</title>
<path fill="none" stroke="black" d="M116,-793.438C116,-773.774 116,-741.403 116,-713.5 116,-713.5 116,-713.5 116,-191.5 116,-160.317 200.66,-138.703 261.434,-127.205"/>
<polygon fill="black" stroke="black" points="262.143,-130.633 271.343,-125.379 260.874,-123.749 262.143,-130.633"/>
</g>
<!-- Node0xc1d4de0 -->
<g id="node7" class="node"><title>Node0xc1d4de0</title>
<polygon fill="none" stroke="black" points="150.5,-738.5 150.5,-774.5 247.5,-774.5 247.5,-738.5 150.5,-738.5"/>
<text text-anchor="start" x="158.5" y="-752.8" font-family="Times,serif" font-size="14.00">while True:</text>
</g>
<!-- Node0xc1d4c40&#45;&gt;Node0xc1d4de0 -->
<g id="edge6" class="edge"><title>Node0xc1d4c40&#45;&gt;Node0xc1d4de0</title>
<path fill="none" stroke="black" d="M199,-850.395C199,-829.942 199,-804.017 199,-784.755"/>
<polygon fill="black" stroke="black" points="202.5,-784.546 199,-774.546 195.5,-784.546 202.5,-784.546"/>
</g>
<!-- Node0xc1d4680 -->
<g id="node8" class="node"><title>Node0xc1d4680</title>
<polygon fill="none" stroke="black" points="376,-23.5 376,-59.5 430,-59.5 430,-23.5 376,-23.5"/>
<text text-anchor="start" x="384" y="-37.8" font-family="Times,serif" font-size="14.00">exit:</text>
</g>
<!-- Node0xc1d4a60&#45;&gt;Node0xc1d4680 -->
<g id="edge7" class="edge"><title>Node0xc1d4a60&#45;&gt;Node0xc1d4680</title>
<path fill="none" stroke="black" d="M342.022,-97.4551C352.452,-88.0555 365.34,-76.4401 376.578,-66.3129"/>
<polygon fill="black" stroke="black" points="378.957,-68.8797 384.043,-59.585 374.271,-63.6798 378.957,-68.8797"/>
</g>
<!-- Node0xc1d4b10 -->
<g id="node9" class="node"><title>Node0xc1d4b10</title>
<polygon fill="none" stroke="black" points="197.5,-633.5 197.5,-686.5 798.5,-686.5 798.5,-633.5 197.5,-633.5"/>
<text text-anchor="start" x="205.5" y="-671.3" font-family="Times,serif" font-size="14.00">v4 = *(IntToPtrCastExpr&lt;ptr&gt;(((4 * v3) + *(IntToPtrCastExpr&lt;ptr&gt;((a1 + 8))))))</text>
<text text-anchor="start" x="205.5" y="-656.3" font-family="Times,serif" font-size="14.00"> result = v2</text>
<text text-anchor="start" x="205.5" y="-641.3" font-family="Times,serif" font-size="14.00"> v5</text>
</g>
<!-- Node0xc1d4de0&#45;&gt;Node0xc1d4b10 -->
<g id="edge8" class="edge"><title>Node0xc1d4de0&#45;&gt;Node0xc1d4b10</title>
<path fill="none" stroke="black" d="M247.705,-740.107C290.857,-726.468 354.98,-706.202 407.519,-689.597"/>
<polygon fill="black" stroke="black" points="408.706,-692.892 417.186,-686.541 406.596,-686.218 408.706,-692.892"/>
<text text-anchor="middle" x="375" y="-708.8" font-family="Times,serif" font-size="14.00">True</text>
</g>
<!-- Node0xc1d48b0 -->
<g id="node10" class="node"><title>Node0xc1d48b0</title>
<polygon fill="none" stroke="black" points="335.5,-559.5 335.5,-595.5 496.5,-595.5 496.5,-559.5 335.5,-559.5"/>
<text text-anchor="start" x="343.5" y="-573.8" font-family="Times,serif" font-size="14.00">for i in range(0, 32):</text>
</g>
<!-- Node0xc1d4b10&#45;&gt;Node0xc1d48b0 -->
<g id="edge9" class="edge"><title>Node0xc1d4b10&#45;&gt;Node0xc1d48b0</title>
<path fill="none" stroke="black" d="M471.603,-633.086C461.85,-623.512 450.829,-612.692 441.186,-603.226"/>
<polygon fill="black" stroke="black" points="443.387,-600.481 433.799,-595.974 438.483,-605.477 443.387,-600.481"/>
</g>
<!-- Node0xb20e570 -->
<g id="node11" class="node"><title>Node0xb20e570</title>
<polygon fill="none" stroke="black" points="411.5,-483.5 411.5,-521.5 608.5,-521.5 608.5,-483.5 411.5,-483.5"/>
<text text-anchor="start" x="419.5" y="-506.3" font-family="Times,serif" font-size="14.00">0x80563bb:</text>
<text text-anchor="start" x="419.5" y="-491.3" font-family="Times,serif" font-size="14.00"> if ((1 &lt;&lt; (i % 32)) &lt; v4):</text>
</g>
<!-- Node0xc1d48b0&#45;&gt;Node0xb20e570 -->
<g id="edge10" class="edge"><title>Node0xc1d48b0&#45;&gt;Node0xb20e570</title>
<path fill="none" stroke="black" d="M438.277,-559.2C450.326,-549.843 465.406,-538.132 478.625,-527.866"/>
<polygon fill="black" stroke="black" points="480.82,-530.592 486.571,-521.694 476.527,-525.064 480.82,-530.592"/>
</g>
<!-- Node0xb20df20 -->
<g id="node12" class="node"><title>Node0xb20df20</title>
<polygon fill="none" stroke="black" points="234.5,-484.5 234.5,-520.5 347.5,-520.5 347.5,-484.5 234.5,-484.5"/>
<text text-anchor="start" x="242.5" y="-498.8" font-family="Times,serif" font-size="14.00">v6 = (v3 + 1)</text>
</g>
<!-- Node0xc1d48b0&#45;&gt;Node0xb20df20 -->
<g id="edge11" class="edge"><title>Node0xc1d48b0&#45;&gt;Node0xb20df20</title>
<path fill="none" stroke="black" d="M386.693,-559.385C369.453,-549.317 347.467,-536.477 328.918,-525.644"/>
<polygon fill="black" stroke="black" points="330.524,-522.529 320.123,-520.508 326.994,-528.573 330.524,-522.529"/>
</g>
<!-- Node0xb20ec70 -->
<g id="node13" class="node"><title>Node0xb20ec70</title>
<polygon fill="none" stroke="black" points="393.5,-306.5 393.5,-344.5 506.5,-344.5 506.5,-306.5 393.5,-306.5"/>
<text text-anchor="start" x="401.5" y="-329.3" font-family="Times,serif" font-size="14.00">0x80563c0:</text>
<text text-anchor="start" x="401.5" y="-314.3" font-family="Times,serif" font-size="14.00"> return result</text>
</g>
<!-- Node0xb20e570&#45;&gt;Node0xb20ec70 -->
<g id="edge12" class="edge"><title>Node0xb20e570&#45;&gt;Node0xb20ec70</title>
<path fill="none" stroke="black" d="M557.979,-483.487C571.628,-475.223 581.491,-464.083 576,-450 559.27,-407.089 518.724,-371.98 488.111,-350.312"/>
<polygon fill="black" stroke="black" points="489.988,-347.355 479.768,-344.561 486.016,-353.118 489.988,-347.355"/>
<text text-anchor="middle" x="650.5" y="-453.8" font-family="Times,serif" font-size="14.00">(1 &lt;&lt; (i % 32)) &lt; v4</text>
</g>
<!-- Node0xb20eaa0 -->
<g id="node14" class="node"><title>Node0xb20eaa0</title>
<polygon fill="none" stroke="black" points="345,-363.5 345,-431.5 487,-431.5 487,-363.5 345,-363.5"/>
<text text-anchor="start" x="353" y="-416.3" font-family="Times,serif" font-size="14.00">0x80563b0:</text>
<text text-anchor="start" x="353" y="-401.3" font-family="Times,serif" font-size="14.00"> v5 = (result + 1)</text>
<text text-anchor="start" x="353" y="-386.3" font-family="Times,serif" font-size="14.00"> g1 = v5</text>
<text text-anchor="start" x="353" y="-371.3" font-family="Times,serif" font-size="14.00"> result = v5</text>
</g>
<!-- Node0xb20e570&#45;&gt;Node0xb20eaa0 -->
<g id="edge13" class="edge"><title>Node0xb20e570&#45;&gt;Node0xb20eaa0</title>
<path fill="none" stroke="black" d="M437.184,-483.3C429.289,-478.548 422.235,-472.556 417,-465 412.278,-458.185 410.127,-449.961 409.475,-441.655"/>
<polygon fill="black" stroke="black" points="412.974,-441.529 409.352,-431.572 405.974,-441.614 412.974,-441.529"/>
<text text-anchor="middle" x="496.5" y="-453.8" font-family="Times,serif" font-size="14.00">(1 &lt;&lt; (i % 32)) &gt;= v4</text>
</g>
<!-- Node0xb20dff0 -->
<g id="node15" class="node"><title>Node0xb20dff0</title>
<polygon fill="none" stroke="black" points="213.5,-379.5 213.5,-415.5 326.5,-415.5 326.5,-379.5 213.5,-379.5"/>
<text text-anchor="start" x="221.5" y="-393.8" font-family="Times,serif" font-size="14.00">if (v1 &lt;= v6):</text>
</g>
<!-- Node0xb20df20&#45;&gt;Node0xb20dff0 -->
<g id="edge14" class="edge"><title>Node0xb20df20&#45;&gt;Node0xb20dff0</title>
<path fill="none" stroke="black" d="M287.532,-484.492C284.264,-468.464 279.315,-444.187 275.507,-425.511"/>
<polygon fill="black" stroke="black" points="278.9,-424.633 273.473,-415.534 272.041,-426.031 278.9,-424.633"/>
</g>
<!-- Node0xb20ec70&#45;&gt;Node0xc1d4680 -->
<g id="edge15" class="edge"><title>Node0xb20ec70&#45;&gt;Node0xc1d4680</title>
<path fill="none" stroke="black" d="M446.269,-306.314C442.746,-287.537 438,-257.349 438,-231 438,-231 438,-231 438,-115.5 438,-98.7131 430.381,-81.7001 422.253,-68.326"/>
<polygon fill="black" stroke="black" points="425.023,-66.165 416.632,-59.6959 419.157,-69.9855 425.023,-66.165"/>
</g>
<!-- Node0xb20eaa0&#45;&gt;Node0xc1d48b0 -->
<g id="edge16" class="edge"><title>Node0xb20eaa0&#45;&gt;Node0xc1d48b0</title>
<path fill="none" stroke="black" d="M407.963,-431.551C402.953,-456.439 398.131,-491.387 402,-522 403.132,-530.957 405.272,-540.551 407.543,-549.153"/>
<polygon fill="black" stroke="black" points="404.248,-550.364 410.321,-559.045 410.987,-548.471 404.248,-550.364"/>
</g>
<!-- Node0xb20ebc0 -->
<g id="node16" class="node"><title>Node0xb20ebc0</title>
<polygon fill="none" stroke="black" points="240,-249.5 240,-287.5 404,-287.5 404,-249.5 240,-249.5"/>
<text text-anchor="start" x="248" y="-272.3" font-family="Times,serif" font-size="14.00">break &#45;&gt; 0x80563cf:</text>
<text text-anchor="start" x="248" y="-257.3" font-family="Times,serif" font-size="14.00"> break</text>
</g>
<!-- Node0xb20dff0&#45;&gt;Node0xb20ebc0 -->
<g id="edge17" class="edge"><title>Node0xb20dff0&#45;&gt;Node0xb20ebc0</title>
<path fill="none" stroke="black" d="M277.013,-379.372C285.677,-358.213 300.525,-321.949 310.78,-296.904"/>
<polygon fill="black" stroke="black" points="314.045,-298.165 314.595,-287.584 307.567,-295.512 314.045,-298.165"/>
<text text-anchor="middle" x="341" y="-321.8" font-family="Times,serif" font-size="14.00">v1 &lt;= v6</text>
</g>
<!-- Node0xc1d4ce0 -->
<g id="node17" class="node"><title>Node0xc1d4ce0</title>
<polygon fill="none" stroke="black" points="144.5,-249.5 144.5,-287.5 221.5,-287.5 221.5,-249.5 144.5,-249.5"/>
<text text-anchor="start" x="152.5" y="-272.3" font-family="Times,serif" font-size="14.00">v2 = v5</text>
<text text-anchor="start" x="152.5" y="-257.3" font-family="Times,serif" font-size="14.00"> v3 = v6</text>
</g>
<!-- Node0xb20dff0&#45;&gt;Node0xc1d4ce0 -->
<g id="edge18" class="edge"><title>Node0xb20dff0&#45;&gt;Node0xc1d4ce0</title>
<path fill="none" stroke="black" d="M256.721,-379.051C249.301,-369.166 239.971,-356.51 232,-345 220.949,-329.042 209.086,-310.795 199.8,-296.236"/>
<polygon fill="black" stroke="black" points="202.697,-294.269 194.382,-287.702 196.787,-298.02 202.697,-294.269"/>
<text text-anchor="middle" x="260" y="-321.8" font-family="Times,serif" font-size="14.00">v1 &gt; v6</text>
</g>
<!-- Node0xc1d4e60 -->
<g id="node18" class="node"><title>Node0xc1d4e60</title>
<polygon fill="none" stroke="black" points="273.5,-173.5 273.5,-211.5 370.5,-211.5 370.5,-173.5 273.5,-173.5"/>
<text text-anchor="start" x="281.5" y="-196.3" font-family="Times,serif" font-size="14.00">0x80563cf:</text>
<text text-anchor="start" x="281.5" y="-181.3" font-family="Times,serif" font-size="14.00"> g1 = 0</text>
</g>
<!-- Node0xb20ebc0&#45;&gt;Node0xc1d4e60 -->
<g id="edge19" class="edge"><title>Node0xb20ebc0&#45;&gt;Node0xc1d4e60</title>
<path fill="none" stroke="black" d="M322,-249.208C322,-240.964 322,-231.038 322,-221.862"/>
<polygon fill="black" stroke="black" points="325.5,-221.582 322,-211.582 318.5,-221.582 325.5,-221.582"/>
</g>
<!-- Node0xc1d4ce0&#45;&gt;Node0xc1d4de0 -->
<g id="edge20" class="edge"><title>Node0xc1d4ce0&#45;&gt;Node0xc1d4de0</title>
<path fill="none" stroke="black" d="M179.753,-287.518C175.617,-312.072 169,-357.459 169,-396.5 169,-661 169,-661 169,-661 169,-684.783 177.739,-710.421 185.784,-728.984"/>
<polygon fill="black" stroke="black" points="182.674,-730.601 189.999,-738.255 189.046,-727.703 182.674,-730.601"/>
</g>
<!-- Node0xc1d4e60&#45;&gt;Node0xc1d4a60 -->
<g id="edge21" class="edge"><title>Node0xc1d4e60&#45;&gt;Node0xc1d4a60</title>
<path fill="none" stroke="black" d="M322,-173.208C322,-164.964 322,-155.038 322,-145.862"/>
<polygon fill="black" stroke="black" points="325.5,-145.582 322,-135.582 318.5,-145.582 325.5,-145.582"/>
</g>
</g>
</svg>
