<?xml version="1.0" encoding="UTF-8" standalone="no"?>
<!DOCTYPE svg PUBLIC "-//W3C//DTD SVG 1.1//EN"
 "http://www.w3.org/Graphics/SVG/1.1/DTD/svg11.dtd">
<!-- Generated by graphviz version 2.38.0 (20140413.2041)
 -->
<!-- Title: Control&#45;flow graph for function &#39;mbedtls_pkcs12_pbe_sha1_rc4_128(a1, a2, a3, a4, a5, a6)&#39;. Pages: 1 -->
<svg width="831pt" height="1021pt"
 viewBox="0.00 0.00 830.50 1021.00" xmlns="http://www.w3.org/2000/svg" xmlns:xlink="http://www.w3.org/1999/xlink">
<g id="graph0" class="graph" transform="scale(1 1) rotate(0) translate(4 1017)">
<title>Control&#45;flow graph for function &#39;mbedtls_pkcs12_pbe_sha1_rc4_128(a1, a2, a3, a4, a5, a6)&#39;.</title>
<polygon fill="white" stroke="none" points="-4,4 -4,-1017 826.5,-1017 826.5,4 -4,4"/>
<text text-anchor="middle" x="411.25" y="-7.8" font-family="Times,serif" font-size="14.00">Control&#45;flow graph for function &#39;mbedtls_pkcs12_pbe_sha1_rc4_128(a1, a2, a3, a4, a5, a6)&#39;.</text>
<!-- Node0xf6ed890 -->
<g id="node1" class="node"><title>Node0xf6ed890</title>
<polygon fill="none" stroke="black" points="194,-899.5 194,-1012.5 253,-1012.5 253,-899.5 194,-899.5"/>
<text text-anchor="start" x="202" y="-997.3" font-family="Times,serif" font-size="14.00">entry:</text>
<text text-anchor="start" x="202" y="-982.3" font-family="Times,serif" font-size="14.00"> a1</text>
<text text-anchor="start" x="202" y="-967.3" font-family="Times,serif" font-size="14.00"> a2</text>
<text text-anchor="start" x="202" y="-952.3" font-family="Times,serif" font-size="14.00"> a3</text>
<text text-anchor="start" x="202" y="-937.3" font-family="Times,serif" font-size="14.00"> a4</text>
<text text-anchor="start" x="202" y="-922.3" font-family="Times,serif" font-size="14.00"> a5</text>
<text text-anchor="start" x="202" y="-907.3" font-family="Times,serif" font-size="14.00"> a6</text>
</g>
<!-- Node0x91e39c0 -->
<g id="node2" class="node"><title>Node0x91e39c0</title>
<polygon fill="none" stroke="black" points="0,-658.5 0,-861.5 447,-861.5 447,-658.5 0,-658.5"/>
<text text-anchor="start" x="8" y="-846.3" font-family="Times,serif" font-size="14.00">v1 = g7</text>
<text text-anchor="start" x="8" y="-831.3" font-family="Times,serif" font-size="14.00"> v2 = g3</text>
<text text-anchor="start" x="8" y="-816.3" font-family="Times,serif" font-size="14.00"> v3</text>
<text text-anchor="start" x="8" y="-801.3" font-family="Times,serif" font-size="14.00"> g3 = &amp;(v3)</text>
<text text-anchor="start" x="8" y="-786.3" font-family="Times,serif" font-size="14.00"> v4</text>
<text text-anchor="start" x="8" y="-771.3" font-family="Times,serif" font-size="14.00"> g7 = &amp;(v4)</text>
<text text-anchor="start" x="8" y="-756.3" font-family="Times,serif" font-size="14.00"> mbedtls_arc4_init(BitCastExpr&lt;ptr&gt;(&amp;(v3)))</text>
<text text-anchor="start" x="8" y="-741.3" font-family="Times,serif" font-size="14.00"> g6 = 4</text>
<text text-anchor="start" x="8" y="-726.3" font-family="Times,serif" font-size="14.00"> g4 = a3</text>
<text text-anchor="start" x="8" y="-711.3" font-family="Times,serif" font-size="14.00"> g1 = a1</text>
<text text-anchor="start" x="8" y="-696.3" font-family="Times,serif" font-size="14.00"> result = pkcs12_pbe_derive_key_iv(a4, g7, 16, 0, 0, 0, 0, 0)</text>
<text text-anchor="start" x="8" y="-681.3" font-family="Times,serif" font-size="14.00"> g1 = result</text>
<text text-anchor="start" x="8" y="-666.3" font-family="Times,serif" font-size="14.00"> v5</text>
</g>
<!-- Node0xf6ed890&#45;&gt;Node0x91e39c0 -->
<g id="edge1" class="edge"><title>Node0xf6ed890&#45;&gt;Node0x91e39c0</title>
<path fill="none" stroke="black" d="M223.5,-899.407C223.5,-890.599 223.5,-881.229 223.5,-871.679"/>
<polygon fill="black" stroke="black" points="227,-871.678 223.5,-861.678 220,-871.678 227,-871.678"/>
</g>
<!-- Node0xf6efd20 -->
<g id="node3" class="node"><title>Node0xf6efd20</title>
<polygon fill="none" stroke="black" points="161.5,-584.5 161.5,-620.5 285.5,-620.5 285.5,-584.5 161.5,-584.5"/>
<text text-anchor="start" x="169.5" y="-598.8" font-family="Times,serif" font-size="14.00">if (result != 0):</text>
</g>
<!-- Node0x91e39c0&#45;&gt;Node0xf6efd20 -->
<g id="edge2" class="edge"><title>Node0x91e39c0&#45;&gt;Node0xf6efd20</title>
<path fill="none" stroke="black" d="M223.5,-658.323C223.5,-648.368 223.5,-638.964 223.5,-630.847"/>
<polygon fill="black" stroke="black" points="227,-630.647 223.5,-620.647 220,-630.647 227,-630.647"/>
</g>
<!-- Node0x16dcf8c0 -->
<g id="node4" class="node"><title>Node0x16dcf8c0</title>
<polygon fill="none" stroke="black" points="59,-317.5 59,-400.5 172,-400.5 172,-317.5 59,-317.5"/>
<text text-anchor="start" x="67" y="-385.3" font-family="Times,serif" font-size="14.00">0x8064922:</text>
<text text-anchor="start" x="67" y="-370.3" font-family="Times,serif" font-size="14.00"> g3 = v2</text>
<text text-anchor="start" x="67" y="-355.3" font-family="Times,serif" font-size="14.00"> g7 = v1</text>
<text text-anchor="start" x="67" y="-340.3" font-family="Times,serif" font-size="14.00"> g2 = v5</text>
<text text-anchor="start" x="67" y="-325.3" font-family="Times,serif" font-size="14.00"> return result</text>
</g>
<!-- Node0xf6efd20&#45;&gt;Node0x16dcf8c0 -->
<g id="edge3" class="edge"><title>Node0xf6efd20&#45;&gt;Node0x16dcf8c0</title>
<path fill="none" stroke="black" d="M212.192,-584.486C208.574,-578.729 204.684,-572.19 201.5,-566 174.937,-514.365 150.008,-452.608 133.9,-410.263"/>
<polygon fill="black" stroke="black" points="137.109,-408.853 130.3,-400.735 130.561,-411.327 137.109,-408.853"/>
<text text-anchor="middle" x="241" y="-554.8" font-family="Times,serif" font-size="14.00">result != 0</text>
</g>
<!-- Node0x1ff18c30 -->
<g id="node5" class="node"><title>Node0x1ff18c30</title>
<polygon fill="none" stroke="black" points="201,-419.5 201,-532.5 656,-532.5 656,-419.5 201,-419.5"/>
<text text-anchor="start" x="209" y="-517.3" font-family="Times,serif" font-size="14.00">0x8064930:</text>
<text text-anchor="start" x="209" y="-502.3" font-family="Times,serif" font-size="14.00"> mbedtls_arc4_setup(IntToPtrCastExpr&lt;ptr&gt;(g3), g7, 16)</text>
<text text-anchor="start" x="209" y="-487.3" font-family="Times,serif" font-size="14.00"> v6</text>
<text text-anchor="start" x="209" y="-472.3" font-family="Times,serif" font-size="14.00"> mbedtls_arc4_crypt(IntToPtrCastExpr&lt;ptr&gt;(g3), a6, a5, v6)</text>
<text text-anchor="start" x="209" y="-457.3" font-family="Times,serif" font-size="14.00"> *(IntToPtrCastExpr&lt;ptr&gt;(g7)) = 0</text>
<text text-anchor="start" x="209" y="-442.3" font-family="Times,serif" font-size="14.00"> v7 = (g7 + 1)</text>
<text text-anchor="start" x="209" y="-427.3" font-family="Times,serif" font-size="14.00"> g7 = v7</text>
</g>
<!-- Node0xf6efd20&#45;&gt;Node0x1ff18c30 -->
<g id="edge4" class="edge"><title>Node0xf6efd20&#45;&gt;Node0x1ff18c30</title>
<path fill="none" stroke="black" d="M251.575,-584.45C271.649,-572.259 299.986,-555.049 328.111,-537.968"/>
<polygon fill="black" stroke="black" points="330.093,-540.859 336.823,-532.677 326.459,-534.876 330.093,-540.859"/>
<text text-anchor="middle" x="345" y="-554.8" font-family="Times,serif" font-size="14.00">result == 0</text>
</g>
<!-- Node0x911b860 -->
<g id="node6" class="node"><title>Node0x911b860</title>
<polygon fill="none" stroke="black" points="217.5,-23.5 217.5,-59.5 271.5,-59.5 271.5,-23.5 217.5,-23.5"/>
<text text-anchor="start" x="225.5" y="-37.8" font-family="Times,serif" font-size="14.00">exit:</text>
</g>
<!-- Node0x16dcf8c0&#45;&gt;Node0x911b860 -->
<g id="edge5" class="edge"><title>Node0x16dcf8c0&#45;&gt;Node0x911b860</title>
<path fill="none" stroke="black" d="M106.471,-317.37C96.6632,-262.387 87.8113,-163.53 132.5,-97 149.531,-71.6446 181.865,-57.6775 207.43,-50.2506"/>
<polygon fill="black" stroke="black" points="208.451,-53.6006 217.201,-47.6274 206.636,-46.84 208.451,-53.6006"/>
</g>
<!-- Node0xef0d2b0 -->
<g id="node7" class="node"><title>Node0xef0d2b0</title>
<polygon fill="none" stroke="black" points="264,-262.5 264,-298.5 623,-298.5 623,-262.5 264,-262.5"/>
<text text-anchor="start" x="272" y="-276.8" font-family="Times,serif" font-size="14.00">while (v7 != PtrToIntCastExpr&lt;int32&gt;(&amp;(v2))):</text>
</g>
<!-- Node0x1ff18c30&#45;&gt;Node0xef0d2b0 -->
<g id="edge6" class="edge"><title>Node0x1ff18c30&#45;&gt;Node0xef0d2b0</title>
<path fill="none" stroke="black" d="M432.818,-419.291C435.627,-383.057 439.167,-337.396 441.382,-308.816"/>
<polygon fill="black" stroke="black" points="444.879,-308.996 442.162,-298.755 437.9,-308.454 444.879,-308.996"/>
</g>
<!-- Node0x16dcf960 -->
<g id="node8" class="node"><title>Node0x16dcf960</title>
<polygon fill="none" stroke="black" points="141.5,-120 141.5,-188 411.5,-188 411.5,-120 141.5,-120"/>
<text text-anchor="start" x="149.5" y="-172.8" font-family="Times,serif" font-size="14.00">0x8064968:</text>
<text text-anchor="start" x="149.5" y="-157.8" font-family="Times,serif" font-size="14.00"> *(IntToPtrCastExpr&lt;ptr&gt;(v7)) = 0</text>
<text text-anchor="start" x="149.5" y="-142.8" font-family="Times,serif" font-size="14.00"> v7 = (g7 + 1)</text>
<text text-anchor="start" x="149.5" y="-127.8" font-family="Times,serif" font-size="14.00"> g7 = v7</text>
</g>
<!-- Node0xef0d2b0&#45;&gt;Node0x16dcf960 -->
<g id="edge7" class="edge"><title>Node0xef0d2b0&#45;&gt;Node0x16dcf960</title>
<path fill="none" stroke="black" d="M263.954,-266.416C240.206,-261.222 221.087,-254.008 212.5,-244 199.388,-228.719 208.045,-210.868 222.716,-195.181"/>
<polygon fill="black" stroke="black" points="225.181,-197.666 229.824,-188.143 220.255,-192.692 225.181,-197.666"/>
<text text-anchor="middle" x="355" y="-232.8" font-family="Times,serif" font-size="14.00">v7 != PtrToIntCastExpr&lt;int32&gt;(&amp;(v2))</text>
</g>
<!-- Node0x28f92cd0 -->
<g id="node9" class="node"><title>Node0x28f92cd0</title>
<polygon fill="none" stroke="black" points="430,-97.5 430,-210.5 797,-210.5 797,-97.5 430,-97.5"/>
<text text-anchor="start" x="438" y="-195.3" font-family="Times,serif" font-size="14.00">0x8064972:</text>
<text text-anchor="start" x="438" y="-180.3" font-family="Times,serif" font-size="14.00"> mbedtls_arc4_free(IntToPtrCastExpr&lt;ptr&gt;(g3))</text>
<text text-anchor="start" x="438" y="-165.3" font-family="Times,serif" font-size="14.00"> g1 = 0</text>
<text text-anchor="start" x="438" y="-150.3" font-family="Times,serif" font-size="14.00"> g3 = v2</text>
<text text-anchor="start" x="438" y="-135.3" font-family="Times,serif" font-size="14.00"> g7 = v1</text>
<text text-anchor="start" x="438" y="-120.3" font-family="Times,serif" font-size="14.00"> g2 = v5</text>
<text text-anchor="start" x="438" y="-105.3" font-family="Times,serif" font-size="14.00"> return 0</text>
</g>
<!-- Node0xef0d2b0&#45;&gt;Node0x28f92cd0 -->
<g id="edge8" class="edge"><title>Node0xef0d2b0&#45;&gt;Node0x28f92cd0</title>
<path fill="none" stroke="black" d="M481.571,-262.427C492.224,-257.059 503.592,-250.754 513.5,-244 525.28,-235.97 537.157,-226.678 548.407,-217.19"/>
<polygon fill="black" stroke="black" points="550.775,-219.77 556.087,-210.603 546.218,-214.456 550.775,-219.77"/>
<text text-anchor="middle" x="677" y="-232.8" font-family="Times,serif" font-size="14.00">v7 == PtrToIntCastExpr&lt;int32&gt;(&amp;(v2))</text>
</g>
<!-- Node0x16dcf960&#45;&gt;Node0xef0d2b0 -->
<g id="edge9" class="edge"><title>Node0x16dcf960&#45;&gt;Node0xef0d2b0</title>
<path fill="none" stroke="black" d="M355.767,-188.135C376.618,-196.213 399.232,-204.415 420.5,-211 454.072,-221.395 475.66,-201.465 497.5,-229 505.191,-238.697 499.428,-248.253 489.255,-256.399"/>
<polygon fill="black" stroke="black" points="486.956,-253.735 480.765,-262.332 490.966,-259.473 486.956,-253.735"/>
</g>
<!-- Node0x28f92cd0&#45;&gt;Node0x911b860 -->
<g id="edge10" class="edge"><title>Node0x28f92cd0&#45;&gt;Node0x911b860</title>
<path fill="none" stroke="black" d="M429.811,-97.9928C373.563,-81.149 317.215,-64.275 281.678,-53.6333"/>
<polygon fill="black" stroke="black" points="282.366,-50.1859 271.783,-50.67 280.358,-56.8917 282.366,-50.1859"/>
</g>
</g>
</svg>
