<?xml version="1.0" encoding="UTF-8" standalone="no"?>
<!DOCTYPE svg PUBLIC "-//W3C//DTD SVG 1.1//EN"
 "http://www.w3.org/Graphics/SVG/1.1/DTD/svg11.dtd">
<!-- Generated by graphviz version 2.38.0 (20140413.2041)
 -->
<!-- Title: Control&#45;flow graph for function &#39;checkExclude(*str)&#39;. Pages: 1 -->
<svg width="821pt" height="462pt"
 viewBox="0.00 0.00 820.50 462.00" xmlns="http://www.w3.org/2000/svg" xmlns:xlink="http://www.w3.org/1999/xlink">
<g id="graph0" class="graph" transform="scale(1 1) rotate(0) translate(4 458)">
<title>Control&#45;flow graph for function &#39;checkExclude(*str)&#39;.</title>
<polygon fill="white" stroke="none" points="-4,4 -4,-458 816.5,-458 816.5,4 -4,4"/>
<text text-anchor="middle" x="406.25" y="-7.8" font-family="Times,serif" font-size="14.00">Control&#45;flow graph for function &#39;checkExclude(*str)&#39;.</text>
<!-- Node0x17c8a1d0 -->
<g id="node1" class="node"><title>Node0x17c8a1d0</title>
<polygon fill="none" stroke="black" points="519,-415.5 519,-453.5 578,-453.5 578,-415.5 519,-415.5"/>
<text text-anchor="start" x="527" y="-438.3" font-family="Times,serif" font-size="14.00">entry:</text>
<text text-anchor="start" x="527" y="-423.3" font-family="Times,serif" font-size="14.00"> str</text>
</g>
<!-- Node0x17c866f0 -->
<g id="node2" class="node"><title>Node0x17c866f0</title>
<polygon fill="none" stroke="black" points="498,-339.5 498,-377.5 599,-377.5 599,-339.5 498,-339.5"/>
<text text-anchor="start" x="506" y="-362.3" font-family="Times,serif" font-size="14.00">0x804827c:</text>
<text text-anchor="start" x="506" y="-347.3" font-family="Times,serif" font-size="14.00"> result</text>
</g>
<!-- Node0x17c8a1d0&#45;&gt;Node0x17c866f0 -->
<g id="edge1" class="edge"><title>Node0x17c8a1d0&#45;&gt;Node0x17c866f0</title>
<path fill="none" stroke="black" d="M548.5,-415.208C548.5,-406.964 548.5,-397.038 548.5,-387.862"/>
<polygon fill="black" stroke="black" points="552,-387.582 548.5,-377.582 545,-387.582 552,-387.582"/>
</g>
<!-- Node0x17c877c0 -->
<g id="node3" class="node"><title>Node0x17c877c0</title>
<polygon fill="none" stroke="black" points="454,-263.5 454,-301.5 643,-301.5 643,-263.5 454,-263.5"/>
<text text-anchor="start" x="462" y="-286.3" font-family="Times,serif" font-size="14.00">if (strcmp(str, &quot;/&quot;) != 0):</text>
<text text-anchor="start" x="462" y="-271.3" font-family="Times,serif" font-size="14.00"> else:</text>
</g>
<!-- Node0x17c866f0&#45;&gt;Node0x17c877c0 -->
<g id="edge2" class="edge"><title>Node0x17c866f0&#45;&gt;Node0x17c877c0</title>
<path fill="none" stroke="black" d="M548.5,-339.208C548.5,-330.964 548.5,-321.038 548.5,-311.862"/>
<polygon fill="black" stroke="black" points="552,-311.582 548.5,-301.582 545,-311.582 552,-311.582"/>
</g>
<!-- Node0x17c88190 -->
<g id="node4" class="node"><title>Node0x17c88190</title>
<polygon fill="none" stroke="black" points="0,-173.5 0,-211.5 691,-211.5 691,-173.5 0,-173.5"/>
<text text-anchor="start" x="8" y="-196.3" font-family="Times,serif" font-size="14.00">0x804829f:</text>
<text text-anchor="start" x="8" y="-181.3" font-family="Times,serif" font-size="14.00"> result = (strcmp(IntToPtrCastExpr&lt;ptr&gt;(PtrToIntCastExpr&lt;int32&gt;(str)), &quot;/root/.ssh&quot;) == 0)</text>
</g>
<!-- Node0x17c877c0&#45;&gt;Node0x17c88190 -->
<g id="edge3" class="edge"><title>Node0x17c877c0&#45;&gt;Node0x17c88190</title>
<path fill="none" stroke="black" d="M506.93,-263.48C475.016,-249.645 430.785,-230.471 396.691,-215.691"/>
<polygon fill="black" stroke="black" points="397.93,-212.414 387.363,-211.647 395.146,-218.836 397.93,-212.414"/>
<text text-anchor="middle" x="531.5" y="-233.8" font-family="Times,serif" font-size="14.00">strcmp(str, &quot;/&quot;) != 0</text>
</g>
<!-- Node0x17c881f0 -->
<g id="node5" class="node"><title>Node0x17c881f0</title>
<polygon fill="none" stroke="black" points="709,-174.5 709,-210.5 798,-210.5 798,-174.5 709,-174.5"/>
<text text-anchor="start" x="717" y="-188.8" font-family="Times,serif" font-size="14.00">result = 1</text>
</g>
<!-- Node0x17c877c0&#45;&gt;Node0x17c881f0 -->
<g id="edge4" class="edge"><title>Node0x17c877c0&#45;&gt;Node0x17c881f0</title>
<path fill="none" stroke="black" d="M590.479,-263.48C623.458,-249.323 669.459,-229.576 704.189,-214.667"/>
<polygon fill="black" stroke="black" points="705.858,-217.76 713.666,-210.599 703.096,-211.328 705.858,-217.76"/>
<text text-anchor="middle" x="737.5" y="-233.8" font-family="Times,serif" font-size="14.00">strcmp(str, &quot;/&quot;) == 0</text>
</g>
<!-- Node0x17c88130 -->
<g id="node6" class="node"><title>Node0x17c88130</title>
<polygon fill="none" stroke="black" points="540,-97.5 540,-135.5 653,-135.5 653,-97.5 540,-97.5"/>
<text text-anchor="start" x="548" y="-120.3" font-family="Times,serif" font-size="14.00">0x80482b7:</text>
<text text-anchor="start" x="548" y="-105.3" font-family="Times,serif" font-size="14.00"> return result</text>
</g>
<!-- Node0x17c88190&#45;&gt;Node0x17c88130 -->
<g id="edge5" class="edge"><title>Node0x17c88190&#45;&gt;Node0x17c88130</title>
<path fill="none" stroke="black" d="M406.581,-173.492C443.879,-162.496 491.591,-148.429 529.863,-137.146"/>
<polygon fill="black" stroke="black" points="531.28,-140.377 539.882,-134.192 529.301,-133.663 531.28,-140.377"/>
</g>
<!-- Node0x17c881f0&#45;&gt;Node0x17c88130 -->
<g id="edge6" class="edge"><title>Node0x17c881f0&#45;&gt;Node0x17c88130</title>
<path fill="none" stroke="black" d="M717.086,-174.337C695.335,-164.085 667.462,-150.947 643.995,-139.886"/>
<polygon fill="black" stroke="black" points="645.444,-136.7 634.907,-135.602 642.46,-143.032 645.444,-136.7"/>
</g>
<!-- Node0x17c87ee0 -->
<g id="node7" class="node"><title>Node0x17c87ee0</title>
<polygon fill="none" stroke="black" points="569.5,-23.5 569.5,-59.5 623.5,-59.5 623.5,-23.5 569.5,-23.5"/>
<text text-anchor="start" x="577.5" y="-37.8" font-family="Times,serif" font-size="14.00">exit:</text>
</g>
<!-- Node0x17c88130&#45;&gt;Node0x17c87ee0 -->
<g id="edge7" class="edge"><title>Node0x17c88130&#45;&gt;Node0x17c87ee0</title>
<path fill="none" stroke="black" d="M596.5,-97.4551C596.5,-89.2008 596.5,-79.2377 596.5,-70.0742"/>
<polygon fill="black" stroke="black" points="600,-69.8347 596.5,-59.8347 593,-69.8347 600,-69.8347"/>
</g>
</g>
</svg>
