<?xml version="1.0" encoding="UTF-8" standalone="no"?>
<!DOCTYPE svg PUBLIC "-//W3C//DTD SVG 1.1//EN"
 "http://www.w3.org/Graphics/SVG/1.1/DTD/svg11.dtd">
<!-- Generated by graphviz version 2.38.0 (20140413.2041)
 -->
<!-- Title: Control&#45;flow graph for function &#39;mbedtls_arc4_crypt(*a1, a2, a3, a4)&#39;. Pages: 1 -->
<svg width="898pt" height="1108pt"
 viewBox="0.00 0.00 897.57 1108.00" xmlns="http://www.w3.org/2000/svg" xmlns:xlink="http://www.w3.org/1999/xlink">
<g id="graph0" class="graph" transform="scale(1 1) rotate(0) translate(4 1104)">
<title>Control&#45;flow graph for function &#39;mbedtls_arc4_crypt(*a1, a2, a3, a4)&#39;.</title>
<polygon fill="white" stroke="none" points="-4,4 -4,-1104 893.567,-1104 893.567,4 -4,4"/>
<text text-anchor="middle" x="444.784" y="-7.8" font-family="Times,serif" font-size="14.00">Control&#45;flow graph for function &#39;mbedtls_arc4_crypt(*a1, a2, a3, a4)&#39;.</text>
<!-- Node0x8ed2db0 -->
<g id="node1" class="node"><title>Node0x8ed2db0</title>
<polygon fill="none" stroke="black" points="241.5,-1016.5 241.5,-1099.5 300.5,-1099.5 300.5,-1016.5 241.5,-1016.5"/>
<text text-anchor="start" x="249.5" y="-1084.3" font-family="Times,serif" font-size="14.00">entry:</text>
<text text-anchor="start" x="249.5" y="-1069.3" font-family="Times,serif" font-size="14.00"> a1</text>
<text text-anchor="start" x="249.5" y="-1054.3" font-family="Times,serif" font-size="14.00"> a2</text>
<text text-anchor="start" x="249.5" y="-1039.3" font-family="Times,serif" font-size="14.00"> a3</text>
<text text-anchor="start" x="249.5" y="-1024.3" font-family="Times,serif" font-size="14.00"> a4</text>
</g>
<!-- Node0xaf2fb70 -->
<g id="node2" class="node"><title>Node0xaf2fb70</title>
<polygon fill="none" stroke="black" points="111.5,-895.5 111.5,-978.5 430.5,-978.5 430.5,-895.5 111.5,-895.5"/>
<text text-anchor="start" x="119.5" y="-963.3" font-family="Times,serif" font-size="14.00">v1 = PtrToIntCastExpr&lt;int32&gt;(a1)</text>
<text text-anchor="start" x="119.5" y="-948.3" font-family="Times,serif" font-size="14.00"> v2 = v1</text>
<text text-anchor="start" x="119.5" y="-933.3" font-family="Times,serif" font-size="14.00"> v3 = *(a1)</text>
<text text-anchor="start" x="119.5" y="-918.3" font-family="Times,serif" font-size="14.00"> v4 = *(IntToPtrCastExpr&lt;ptr&gt;((v1 + 4)))</text>
<text text-anchor="start" x="119.5" y="-903.3" font-family="Times,serif" font-size="14.00"> g4 = v4</text>
</g>
<!-- Node0x8ed2db0&#45;&gt;Node0xaf2fb70 -->
<g id="edge1" class="edge"><title>Node0x8ed2db0&#45;&gt;Node0xaf2fb70</title>
<path fill="none" stroke="black" d="M271,-1016.38C271,-1007.57 271,-998.153 271,-989.006"/>
<polygon fill="black" stroke="black" points="274.5,-988.841 271,-978.841 267.5,-988.841 274.5,-988.841"/>
</g>
<!-- Node0xaf2fd20 -->
<g id="node3" class="node"><title>Node0xaf2fd20</title>
<polygon fill="none" stroke="black" points="218.5,-821.5 218.5,-857.5 323.5,-857.5 323.5,-821.5 218.5,-821.5"/>
<text text-anchor="start" x="226.5" y="-835.8" font-family="Times,serif" font-size="14.00">if (a2 == 0):</text>
</g>
<!-- Node0xaf2fb70&#45;&gt;Node0xaf2fd20 -->
<g id="edge2" class="edge"><title>Node0xaf2fb70&#45;&gt;Node0xaf2fd20</title>
<path fill="none" stroke="black" d="M271,-895.499C271,-886.206 271,-876.537 271,-867.946"/>
<polygon fill="black" stroke="black" points="274.5,-867.749 271,-857.749 267.5,-867.749 274.5,-867.749"/>
</g>
<!-- Node0xaf30280 -->
<g id="node4" class="node"><title>Node0xaf30280</title>
<polygon fill="none" stroke="black" points="0,-646.5 0,-714.5 320,-714.5 320,-646.5 0,-646.5"/>
<text text-anchor="start" x="8" y="-699.3" font-family="Times,serif" font-size="14.00">0x806850d:</text>
<text text-anchor="start" x="8" y="-684.3" font-family="Times,serif" font-size="14.00"> *(IntToPtrCastExpr&lt;ptr&gt;(v1)) = v3</text>
<text text-anchor="start" x="8" y="-669.3" font-family="Times,serif" font-size="14.00"> *(IntToPtrCastExpr&lt;ptr&gt;((v2 + 4))) = g4</text>
<text text-anchor="start" x="8" y="-654.3" font-family="Times,serif" font-size="14.00"> return 0</text>
</g>
<!-- Node0xaf2fd20&#45;&gt;Node0xaf30280 -->
<g id="edge3" class="edge"><title>Node0xaf2fd20&#45;&gt;Node0xaf30280</title>
<path fill="none" stroke="black" d="M258.91,-821.399C242.353,-797.981 212.092,-755.18 189.385,-723.063"/>
<polygon fill="black" stroke="black" points="192.125,-720.875 183.494,-714.73 186.409,-724.916 192.125,-720.875"/>
<text text-anchor="middle" x="275" y="-791.8" font-family="Times,serif" font-size="14.00">a2 == 0</text>
</g>
<!-- Node0xaf30090 -->
<g id="node5" class="node"><title>Node0xaf30090</title>
<polygon fill="none" stroke="black" points="455,-733.5 455,-769.5 519,-769.5 519,-733.5 455,-733.5"/>
<text text-anchor="start" x="463" y="-747.8" font-family="Times,serif" font-size="14.00">v5 = 0</text>
</g>
<!-- Node0xaf2fd20&#45;&gt;Node0xaf30090 -->
<g id="edge4" class="edge"><title>Node0xaf2fd20&#45;&gt;Node0xaf30090</title>
<path fill="none" stroke="black" d="M313.933,-821.406C351.993,-806.253 407.242,-784.255 445.014,-769.217"/>
<polygon fill="black" stroke="black" points="446.701,-772.312 454.697,-765.361 444.111,-765.809 446.701,-772.312"/>
<text text-anchor="middle" x="419" y="-791.8" font-family="Times,serif" font-size="14.00">a2 != 0</text>
</g>
<!-- Node0xaf2faf0 -->
<g id="node6" class="node"><title>Node0xaf2faf0</title>
<polygon fill="none" stroke="black" points="184,-23.5 184,-59.5 238,-59.5 238,-23.5 184,-23.5"/>
<text text-anchor="start" x="192" y="-37.8" font-family="Times,serif" font-size="14.00">exit:</text>
</g>
<!-- Node0xaf30280&#45;&gt;Node0xaf2faf0 -->
<g id="edge5" class="edge"><title>Node0xaf30280&#45;&gt;Node0xaf2faf0</title>
<path fill="none" stroke="black" d="M152.296,-646.075C147.798,-623.686 143,-593.481 143,-566.5 143,-566.5 143,-566.5 143,-130.5 143,-105.05 161.028,-82.4782 178.519,-66.5675"/>
<polygon fill="black" stroke="black" points="181.155,-68.9162 186.45,-59.7396 176.588,-63.611 181.155,-68.9162"/>
</g>
<!-- Node0xaf2f990 -->
<g id="node7" class="node"><title>Node0xaf2f990</title>
<polygon fill="none" stroke="black" points="456.5,-591.5 456.5,-627.5 553.5,-627.5 553.5,-591.5 456.5,-591.5"/>
<text text-anchor="start" x="464.5" y="-605.8" font-family="Times,serif" font-size="14.00">while True:</text>
</g>
<!-- Node0xaf30090&#45;&gt;Node0xaf2f990 -->
<g id="edge6" class="edge"><title>Node0xaf30090&#45;&gt;Node0xaf2f990</title>
<path fill="none" stroke="black" d="M489.207,-733.333C492.27,-709.507 497.844,-666.158 501.484,-637.849"/>
<polygon fill="black" stroke="black" points="504.971,-638.172 502.775,-627.807 498.028,-637.279 504.971,-638.172"/>
</g>
<!-- Node0x8ed1640 -->
<g id="node8" class="node"><title>Node0x8ed1640</title>
<polygon fill="none" stroke="black" points="171,-291.5 171,-539.5 839,-539.5 839,-291.5 171,-291.5"/>
<text text-anchor="start" x="179" y="-524.3" font-family="Times,serif" font-size="14.00">v6 = ((v3 + 1) % 256)</text>
<text text-anchor="start" x="179" y="-509.3" font-family="Times,serif" font-size="14.00"> v7 = (v1 + 8)</text>
<text text-anchor="start" x="179" y="-494.3" font-family="Times,serif" font-size="14.00"> v8 = IntToPtrCastExpr&lt;ptr&gt;((v6 + v7))</text>
<text text-anchor="start" x="179" y="-479.3" font-family="Times,serif" font-size="14.00"> v9 = ExtCastExpr&lt;int32&gt;(*(v8))</text>
<text text-anchor="start" x="179" y="-464.3" font-family="Times,serif" font-size="14.00"> v10 = v9</text>
<text text-anchor="start" x="179" y="-449.3" font-family="Times,serif" font-size="14.00"> v11 = ((v9 + v4) % 256)</text>
<text text-anchor="start" x="179" y="-434.3" font-family="Times,serif" font-size="14.00"> g4 = v11</text>
<text text-anchor="start" x="179" y="-419.3" font-family="Times,serif" font-size="14.00"> v12 = *(IntToPtrCastExpr&lt;ptr&gt;((v11 + v7)))</text>
<text text-anchor="start" x="179" y="-404.3" font-family="Times,serif" font-size="14.00"> *(v8) = v12</text>
<text text-anchor="start" x="179" y="-389.3" font-family="Times,serif" font-size="14.00"> *(IntToPtrCastExpr&lt;ptr&gt;(((v2 + 8) + g4))) = TruncCastExpr&lt;int8&gt;(v10)</text>
<text text-anchor="start" x="179" y="-374.3" font-family="Times,serif" font-size="14.00"> v13 = *(IntToPtrCastExpr&lt;ptr&gt;(((v2 + 8) + ((v10 + ExtCastExpr&lt;int32&gt;(v12)) % 256))))</text>
<text text-anchor="start" x="179" y="-359.3" font-family="Times,serif" font-size="14.00"> v14 = v5</text>
<text text-anchor="start" x="179" y="-344.3" font-family="Times,serif" font-size="14.00"> v15 = *(IntToPtrCastExpr&lt;ptr&gt;((v14 + a3)))</text>
<text text-anchor="start" x="179" y="-329.3" font-family="Times,serif" font-size="14.00"> *(IntToPtrCastExpr&lt;ptr&gt;((v14 + a4))) = (v15 ^ v13)</text>
<text text-anchor="start" x="179" y="-314.3" font-family="Times,serif" font-size="14.00"> v16 = (v5 + 1)</text>
<text text-anchor="start" x="179" y="-299.3" font-family="Times,serif" font-size="14.00"> v5 = v16</text>
</g>
<!-- Node0xaf2f990&#45;&gt;Node0x8ed1640 -->
<g id="edge7" class="edge"><title>Node0xaf2f990&#45;&gt;Node0x8ed1640</title>
<path fill="none" stroke="black" d="M505,-591.461C505,-580.973 505,-566.45 505,-550.216"/>
<polygon fill="black" stroke="black" points="508.5,-549.908 505,-539.908 501.5,-549.908 508.5,-549.908"/>
<text text-anchor="middle" x="522" y="-561.8" font-family="Times,serif" font-size="14.00">True</text>
</g>
<!-- Node0xaf30180 -->
<g id="node9" class="node"><title>Node0xaf30180</title>
<polygon fill="none" stroke="black" points="444,-217.5 444,-253.5 566,-253.5 566,-217.5 444,-217.5"/>
<text text-anchor="start" x="452" y="-231.8" font-family="Times,serif" font-size="14.00">if (v16 &gt;= a2):</text>
</g>
<!-- Node0x8ed1640&#45;&gt;Node0xaf30180 -->
<g id="edge8" class="edge"><title>Node0x8ed1640&#45;&gt;Node0xaf30180</title>
<path fill="none" stroke="black" d="M505,-291.358C505,-281.332 505,-271.986 505,-263.952"/>
<polygon fill="black" stroke="black" points="508.5,-263.869 505,-253.869 501.5,-263.869 508.5,-263.869"/>
</g>
<!-- Node0xaf30670 -->
<g id="node10" class="node"><title>Node0xaf30670</title>
<polygon fill="none" stroke="black" points="232,-97.5 232,-165.5 552,-165.5 552,-97.5 232,-97.5"/>
<text text-anchor="start" x="240" y="-150.3" font-family="Times,serif" font-size="14.00">0x806850d:</text>
<text text-anchor="start" x="240" y="-135.3" font-family="Times,serif" font-size="14.00"> *(IntToPtrCastExpr&lt;ptr&gt;(v2)) = v6</text>
<text text-anchor="start" x="240" y="-120.3" font-family="Times,serif" font-size="14.00"> *(IntToPtrCastExpr&lt;ptr&gt;((v2 + 4))) = g4</text>
<text text-anchor="start" x="240" y="-105.3" font-family="Times,serif" font-size="14.00"> return 0</text>
</g>
<!-- Node0xaf30180&#45;&gt;Node0xaf30670 -->
<g id="edge9" class="edge"><title>Node0xaf30180&#45;&gt;Node0xaf30670</title>
<path fill="none" stroke="black" d="M486.086,-217.427C472.574,-205.231 453.813,-188.296 436.597,-172.756"/>
<polygon fill="black" stroke="black" points="438.588,-169.838 428.82,-165.735 433.898,-175.034 438.588,-169.838"/>
<text text-anchor="middle" x="504.5" y="-187.8" font-family="Times,serif" font-size="14.00">v16 &gt;= a2</text>
</g>
<!-- Node0xaf301e0 -->
<g id="node11" class="node"><title>Node0xaf301e0</title>
<polygon fill="none" stroke="black" points="666.5,-97.5 666.5,-165.5 767.5,-165.5 767.5,-97.5 666.5,-97.5"/>
<text text-anchor="start" x="674.5" y="-150.3" font-family="Times,serif" font-size="14.00">0x80684b0:</text>
<text text-anchor="start" x="674.5" y="-135.3" font-family="Times,serif" font-size="14.00"> v4 = g4</text>
<text text-anchor="start" x="674.5" y="-120.3" font-family="Times,serif" font-size="14.00"> v1 = v2</text>
<text text-anchor="start" x="674.5" y="-105.3" font-family="Times,serif" font-size="14.00"> v3 = v6</text>
</g>
<!-- Node0xaf30180&#45;&gt;Node0xaf301e0 -->
<g id="edge10" class="edge"><title>Node0xaf30180&#45;&gt;Node0xaf301e0</title>
<path fill="none" stroke="black" d="M540.484,-217.427C572.214,-202.161 619.372,-179.472 656.965,-161.385"/>
<polygon fill="black" stroke="black" points="658.807,-164.383 666.301,-156.893 655.772,-158.075 658.807,-164.383"/>
<text text-anchor="middle" x="636.5" y="-187.8" font-family="Times,serif" font-size="14.00">v16 &lt; a2</text>
</g>
<!-- Node0xaf30670&#45;&gt;Node0xaf2faf0 -->
<g id="edge11" class="edge"><title>Node0xaf30670&#45;&gt;Node0xaf2faf0</title>
<path fill="none" stroke="black" d="M324.087,-97.4817C298.048,-84.8216 269.343,-70.8658 247.369,-60.1824"/>
<polygon fill="black" stroke="black" points="248.611,-56.8941 238.087,-55.6693 245.55,-63.1895 248.611,-56.8941"/>
</g>
<!-- Node0xaf301e0&#45;&gt;Node0xaf2f990 -->
<g id="edge12" class="edge"><title>Node0xaf301e0&#45;&gt;Node0xaf2f990</title>
<path fill="none" stroke="black" d="M756.456,-165.603C788.013,-194.856 829.872,-240.612 848,-291 885.463,-395.133 918.173,-454.427 848,-540 812.721,-583.022 652.205,-599.551 563.817,-605.471"/>
<polygon fill="black" stroke="black" points="563.423,-601.989 553.669,-606.125 563.874,-608.975 563.423,-601.989"/>
</g>
</g>
</svg>
