<?xml version="1.0" encoding="UTF-8" standalone="no"?>
<!DOCTYPE svg PUBLIC "-//W3C//DTD SVG 1.1//EN"
 "http://www.w3.org/Graphics/SVG/1.1/DTD/svg11.dtd">
<!-- Generated by graphviz version 2.38.0 (20140413.2041)
 -->
<!-- Title: Control&#45;flow graph for function &#39;mbedtls_rsa_pkcs1_encrypt(a1, a2, a3, a4, a5, a6, a7, a8, a9, a10, a11)&#39;. Pages: 1 -->
<svg width="2181pt" height="970pt"
 viewBox="0.00 0.00 2181.00 970.00" xmlns="http://www.w3.org/2000/svg" xmlns:xlink="http://www.w3.org/1999/xlink">
<g id="graph0" class="graph" transform="scale(1 1) rotate(0) translate(4 966)">
<title>Control&#45;flow graph for function &#39;mbedtls_rsa_pkcs1_encrypt(a1, a2, a3, a4, a5, a6, a7, a8, a9, a10, a11)&#39;.</title>
<polygon fill="white" stroke="none" points="-4,4 -4,-966 2177,-966 2177,4 -4,4"/>
<text text-anchor="middle" x="1086.5" y="-7.8" font-family="Times,serif" font-size="14.00">Control&#45;flow graph for function &#39;mbedtls_rsa_pkcs1_encrypt(a1, a2, a3, a4, a5, a6, a7, a8, a9, a10, a11)&#39;.</text>
<!-- Node0x14d7f730 -->
<g id="node1" class="node"><title>Node0x14d7f730</title>
<polygon fill="none" stroke="black" points="1066.5,-773.5 1066.5,-961.5 1125.5,-961.5 1125.5,-773.5 1066.5,-773.5"/>
<text text-anchor="start" x="1074.5" y="-946.3" font-family="Times,serif" font-size="14.00">entry:</text>
<text text-anchor="start" x="1074.5" y="-931.3" font-family="Times,serif" font-size="14.00"> a1</text>
<text text-anchor="start" x="1074.5" y="-916.3" font-family="Times,serif" font-size="14.00"> a2</text>
<text text-anchor="start" x="1074.5" y="-901.3" font-family="Times,serif" font-size="14.00"> a3</text>
<text text-anchor="start" x="1074.5" y="-886.3" font-family="Times,serif" font-size="14.00"> a4</text>
<text text-anchor="start" x="1074.5" y="-871.3" font-family="Times,serif" font-size="14.00"> a5</text>
<text text-anchor="start" x="1074.5" y="-856.3" font-family="Times,serif" font-size="14.00"> a6</text>
<text text-anchor="start" x="1074.5" y="-841.3" font-family="Times,serif" font-size="14.00"> a7</text>
<text text-anchor="start" x="1074.5" y="-826.3" font-family="Times,serif" font-size="14.00"> a8</text>
<text text-anchor="start" x="1074.5" y="-811.3" font-family="Times,serif" font-size="14.00"> a9</text>
<text text-anchor="start" x="1074.5" y="-796.3" font-family="Times,serif" font-size="14.00"> a10</text>
<text text-anchor="start" x="1074.5" y="-781.3" font-family="Times,serif" font-size="14.00"> a11</text>
</g>
<!-- Node0xae42a30 -->
<g id="node2" class="node"><title>Node0xae42a30</title>
<polygon fill="none" stroke="black" points="927.5,-547.5 927.5,-735.5 1264.5,-735.5 1264.5,-547.5 927.5,-547.5"/>
<text text-anchor="start" x="935.5" y="-720.3" font-family="Times,serif" font-size="14.00">0x8051330:</text>
<text text-anchor="start" x="935.5" y="-705.3" font-family="Times,serif" font-size="14.00"> v1</text>
<text text-anchor="start" x="935.5" y="-690.3" font-family="Times,serif" font-size="14.00"> v2 = v1</text>
<text text-anchor="start" x="935.5" y="-675.3" font-family="Times,serif" font-size="14.00"> v3 = g3</text>
<text text-anchor="start" x="935.5" y="-660.3" font-family="Times,serif" font-size="14.00"> g3 = a5</text>
<text text-anchor="start" x="935.5" y="-645.3" font-family="Times,serif" font-size="14.00"> v4 = g7</text>
<text text-anchor="start" x="935.5" y="-630.3" font-family="Times,serif" font-size="14.00"> g7 = a6</text>
<text text-anchor="start" x="935.5" y="-615.3" font-family="Times,serif" font-size="14.00"> v5 = g5</text>
<text text-anchor="start" x="935.5" y="-600.3" font-family="Times,serif" font-size="14.00"> v6 = *(IntToPtrCastExpr&lt;ptr&gt;((a1 + 164)))</text>
<text text-anchor="start" x="935.5" y="-585.3" font-family="Times,serif" font-size="14.00"> g5 = a7</text>
<text text-anchor="start" x="935.5" y="-570.3" font-family="Times,serif" font-size="14.00"> v7 = &amp;(v2)</text>
<text text-anchor="start" x="935.5" y="-555.3" font-family="Times,serif" font-size="14.00"> v8 = v6</text>
</g>
<!-- Node0x14d7f730&#45;&gt;Node0xae42a30 -->
<g id="edge1" class="edge"><title>Node0x14d7f730&#45;&gt;Node0xae42a30</title>
<path fill="none" stroke="black" d="M1096,-773.45C1096,-764.269 1096,-754.914 1096,-745.64"/>
<polygon fill="black" stroke="black" points="1099.5,-745.621 1096,-735.621 1092.5,-745.621 1099.5,-745.621"/>
</g>
<!-- Node0x1b41c0b0 -->
<g id="node3" class="node"><title>Node0x1b41c0b0</title>
<polygon fill="none" stroke="black" points="1043.5,-473.5 1043.5,-509.5 1148.5,-509.5 1148.5,-473.5 1043.5,-473.5"/>
<text text-anchor="start" x="1051.5" y="-487.8" font-family="Times,serif" font-size="14.00">if (v6 == 0):</text>
</g>
<!-- Node0xae42a30&#45;&gt;Node0x1b41c0b0 -->
<g id="edge2" class="edge"><title>Node0xae42a30&#45;&gt;Node0x1b41c0b0</title>
<path fill="none" stroke="black" d="M1096,-547.189C1096,-537.348 1096,-527.996 1096,-519.899"/>
<polygon fill="black" stroke="black" points="1099.5,-519.708 1096,-509.708 1092.5,-519.708 1099.5,-519.708"/>
</g>
<!-- Node0x14fca5e0 -->
<g id="node4" class="node"><title>Node0x14fca5e0</title>
<polygon fill="none" stroke="black" points="0,-293.5 0,-421.5 1222,-421.5 1222,-293.5 0,-293.5"/>
<text text-anchor="start" x="8" y="-406.3" font-family="Times,serif" font-size="14.00">0x8051367:</text>
<text text-anchor="start" x="8" y="-391.3" font-family="Times,serif" font-size="14.00"> g5 = v5</text>
<text text-anchor="start" x="8" y="-376.3" font-family="Times,serif" font-size="14.00"> g7 = v4</text>
<text text-anchor="start" x="8" y="-361.3" font-family="Times,serif" font-size="14.00"> g3 = v3</text>
<text text-anchor="start" x="8" y="-346.3" font-family="Times,serif" font-size="14.00"> v9</text>
<text text-anchor="start" x="8" y="-331.3" font-family="Times,serif" font-size="14.00"> mbedtls_rsa_rsaes_pkcs1_v15_encrypt(IntToPtrCastExpr&lt;ptr&gt;(v1), IntToPtrCastExpr&lt;ptr&gt;(v9), a1, a2, a3, IntToPtrCastExpr&lt;ptr&gt;(a4), IntToPtrCastExpr&lt;ptr&gt;(a5))</text>
<text text-anchor="start" x="8" y="-316.3" font-family="Times,serif" font-size="14.00"> v7 = g2</text>
<text text-anchor="start" x="8" y="-301.3" font-family="Times,serif" font-size="14.00"> v8 = g4</text>
</g>
<!-- Node0x1b41c0b0&#45;&gt;Node0x14fca5e0 -->
<g id="edge3" class="edge"><title>Node0x1b41c0b0&#45;&gt;Node0x14fca5e0</title>
<path fill="none" stroke="black" d="M1043.17,-476.122C996.298,-463.365 924.286,-443.765 852.402,-424.201"/>
<polygon fill="black" stroke="black" points="853.291,-420.816 842.723,-421.567 851.453,-427.57 853.291,-420.816"/>
<text text-anchor="middle" x="983" y="-443.8" font-family="Times,serif" font-size="14.00">v6 == 0</text>
</g>
<!-- Node0x1b41cb70 -->
<g id="node5" class="node"><title>Node0x1b41cb70</title>
<polygon fill="none" stroke="black" points="1038,-217.5 1038,-255.5 1142,-255.5 1142,-217.5 1038,-217.5"/>
<text text-anchor="start" x="1046" y="-240.3" font-family="Times,serif" font-size="14.00">0x8051398:</text>
<text text-anchor="start" x="1046" y="-225.3" font-family="Times,serif" font-size="14.00"> if (v8 != 1):</text>
</g>
<!-- Node0x1b41c0b0&#45;&gt;Node0x1b41cb70 -->
<g id="edge4" class="edge"><title>Node0x1b41c0b0&#45;&gt;Node0x1b41cb70</title>
<path fill="none" stroke="black" d="M1148.58,-478.327C1178.32,-468.458 1213.05,-451.229 1231,-422 1261,-373.141 1263.27,-340.387 1231,-293 1213.25,-266.937 1181.21,-253.113 1152.15,-245.781"/>
<polygon fill="black" stroke="black" points="1152.56,-242.283 1142.03,-243.449 1150.99,-249.104 1152.56,-242.283"/>
<text text-anchor="middle" x="1282" y="-353.8" font-family="Times,serif" font-size="14.00">v6 != 0</text>
</g>
<!-- Node0x14fca5e0&#45;&gt;Node0x1b41cb70 -->
<g id="edge5" class="edge"><title>Node0x14fca5e0&#45;&gt;Node0x1b41cb70</title>
<path fill="none" stroke="black" d="M864.876,-293.428C925.681,-278.322 985.246,-263.525 1027.82,-252.948"/>
<polygon fill="black" stroke="black" points="1028.86,-256.296 1037.72,-250.488 1027.17,-249.502 1028.86,-256.296"/>
</g>
<!-- Node0xae46df0 -->
<g id="node6" class="node"><title>Node0xae46df0</title>
<polygon fill="none" stroke="black" points="727.5,-97.5 727.5,-165.5 1048.5,-165.5 1048.5,-97.5 727.5,-97.5"/>
<text text-anchor="start" x="735.5" y="-150.3" font-family="Times,serif" font-size="14.00">0x80513a2:</text>
<text text-anchor="start" x="735.5" y="-135.3" font-family="Times,serif" font-size="14.00"> g3 = *(IntToPtrCastExpr&lt;ptr&gt;((v7 &#45; 12)))</text>
<text text-anchor="start" x="735.5" y="-120.3" font-family="Times,serif" font-size="14.00"> g7 = *(IntToPtrCastExpr&lt;ptr&gt;((v7 &#45; 8)))</text>
<text text-anchor="start" x="735.5" y="-105.3" font-family="Times,serif" font-size="14.00"> return &#45;16640</text>
</g>
<!-- Node0x1b41cb70&#45;&gt;Node0xae46df0 -->
<g id="edge6" class="edge"><title>Node0x1b41cb70&#45;&gt;Node0xae46df0</title>
<path fill="none" stroke="black" d="M1054.35,-217.323C1028.89,-204.34 993.716,-186.405 962.268,-170.369"/>
<polygon fill="black" stroke="black" points="963.576,-167.107 953.077,-165.683 960.396,-173.344 963.576,-167.107"/>
<text text-anchor="middle" x="1041" y="-187.8" font-family="Times,serif" font-size="14.00">v8 != 1</text>
</g>
<!-- Node0x1b41cd80 -->
<g id="node7" class="node"><title>Node0x1b41cd80</title>
<polygon fill="none" stroke="black" points="1067,-97.5 1067,-165.5 2173,-165.5 2173,-97.5 1067,-97.5"/>
<text text-anchor="start" x="1075" y="-150.3" font-family="Times,serif" font-size="14.00">result = mbedtls_rsa_rsaes_oaep_encrypt(IntToPtrCastExpr&lt;ptr&gt;(a1), IntToPtrCastExpr&lt;ptr&gt;(a2), a3, a4, a5, a6, a7, a8, IntToPtrCastExpr&lt;ptr&gt;(a9))</text>
<text text-anchor="start" x="1075" y="-135.3" font-family="Times,serif" font-size="14.00"> g3 = *(IntToPtrCastExpr&lt;ptr&gt;((g2 &#45; 12)))</text>
<text text-anchor="start" x="1075" y="-120.3" font-family="Times,serif" font-size="14.00"> g7 = *(IntToPtrCastExpr&lt;ptr&gt;((g2 &#45; 8)))</text>
<text text-anchor="start" x="1075" y="-105.3" font-family="Times,serif" font-size="14.00"> return result</text>
</g>
<!-- Node0x1b41cb70&#45;&gt;Node0x1b41cd80 -->
<g id="edge7" class="edge"><title>Node0x1b41cb70&#45;&gt;Node0x1b41cd80</title>
<path fill="none" stroke="black" d="M1142.27,-225.342C1211.02,-211.981 1335.37,-187.815 1439.97,-167.487"/>
<polygon fill="black" stroke="black" points="1440.88,-170.876 1450.03,-165.532 1439.54,-164.004 1440.88,-170.876"/>
<text text-anchor="middle" x="1385" y="-187.8" font-family="Times,serif" font-size="14.00">v8 == 1</text>
</g>
<!-- Node0x1b41c670 -->
<g id="node8" class="node"><title>Node0x1b41c670</title>
<polygon fill="none" stroke="black" points="1315,-23.5 1315,-59.5 1369,-59.5 1369,-23.5 1315,-23.5"/>
<text text-anchor="start" x="1323" y="-37.8" font-family="Times,serif" font-size="14.00">exit:</text>
</g>
<!-- Node0xae46df0&#45;&gt;Node0x1b41c670 -->
<g id="edge8" class="edge"><title>Node0xae46df0&#45;&gt;Node0x1b41c670</title>
<path fill="none" stroke="black" d="M1048.61,-98.828C1051.77,-98.2128 1054.9,-97.603 1058,-97 1146.66,-79.7574 1250.97,-59.8338 1305.14,-49.5129"/>
<polygon fill="black" stroke="black" points="1305.8,-52.9495 1314.97,-47.6403 1304.49,-46.0731 1305.8,-52.9495"/>
</g>
<!-- Node0x1b41cd80&#45;&gt;Node0x1b41c670 -->
<g id="edge9" class="edge"><title>Node0x1b41cd80&#45;&gt;Node0x1b41c670</title>
<path fill="none" stroke="black" d="M1515.69,-97.4817C1467.59,-82.2564 1413.58,-65.157 1378.74,-54.1294"/>
<polygon fill="black" stroke="black" points="1379.6,-50.7299 1369.01,-51.0488 1377.48,-57.4035 1379.6,-50.7299"/>
</g>
</g>
</svg>
