<?xml version="1.0" encoding="UTF-8" standalone="no"?>
<!DOCTYPE svg PUBLIC "-//W3C//DTD SVG 1.1//EN"
 "http://www.w3.org/Graphics/SVG/1.1/DTD/svg11.dtd">
<!-- Generated by graphviz version 2.38.0 (20140413.2041)
 -->
<!-- Title: Control&#45;flow graph for function &#39;mbedtls_camellia_crypt_cbc(a1, a2, a3, *a4, a5, a6)&#39;. Pages: 1 -->
<svg width="1316pt" height="1962pt"
 viewBox="0.00 0.00 1316.00 1962.00" xmlns="http://www.w3.org/2000/svg" xmlns:xlink="http://www.w3.org/1999/xlink">
<g id="graph0" class="graph" transform="scale(1 1) rotate(0) translate(4 1958)">
<title>Control&#45;flow graph for function &#39;mbedtls_camellia_crypt_cbc(a1, a2, a3, *a4, a5, a6)&#39;.</title>
<polygon fill="white" stroke="none" points="-4,4 -4,-1958 1312,-1958 1312,4 -4,4"/>
<text text-anchor="middle" x="654" y="-7.8" font-family="Times,serif" font-size="14.00">Control&#45;flow graph for function &#39;mbedtls_camellia_crypt_cbc(a1, a2, a3, *a4, a5, a6)&#39;.</text>
<!-- Node0xe62d770 -->
<g id="node1" class="node"><title>Node0xe62d770</title>
<polygon fill="none" stroke="black" points="1140,-1840.5 1140,-1953.5 1199,-1953.5 1199,-1840.5 1140,-1840.5"/>
<text text-anchor="start" x="1148" y="-1938.3" font-family="Times,serif" font-size="14.00">entry:</text>
<text text-anchor="start" x="1148" y="-1923.3" font-family="Times,serif" font-size="14.00"> a1</text>
<text text-anchor="start" x="1148" y="-1908.3" font-family="Times,serif" font-size="14.00"> a2</text>
<text text-anchor="start" x="1148" y="-1893.3" font-family="Times,serif" font-size="14.00"> a3</text>
<text text-anchor="start" x="1148" y="-1878.3" font-family="Times,serif" font-size="14.00"> a4</text>
<text text-anchor="start" x="1148" y="-1863.3" font-family="Times,serif" font-size="14.00"> a5</text>
<text text-anchor="start" x="1148" y="-1848.3" font-family="Times,serif" font-size="14.00"> a6</text>
</g>
<!-- Node0x81f1fb0 -->
<g id="node2" class="node"><title>Node0x81f1fb0</title>
<polygon fill="none" stroke="black" points="1031,-1719.5 1031,-1802.5 1308,-1802.5 1308,-1719.5 1031,-1719.5"/>
<text text-anchor="start" x="1039" y="-1787.3" font-family="Times,serif" font-size="14.00">v1 = g5</text>
<text text-anchor="start" x="1039" y="-1772.3" font-family="Times,serif" font-size="14.00"> v2 = g7</text>
<text text-anchor="start" x="1039" y="-1757.3" font-family="Times,serif" font-size="14.00"> v3 = g3</text>
<text text-anchor="start" x="1039" y="-1742.3" font-family="Times,serif" font-size="14.00"> g3 = PtrToIntCastExpr&lt;int32&gt;(a4)</text>
<text text-anchor="start" x="1039" y="-1727.3" font-family="Times,serif" font-size="14.00"> v4 = a3</text>
</g>
<!-- Node0xe62d770&#45;&gt;Node0x81f1fb0 -->
<g id="edge1" class="edge"><title>Node0xe62d770&#45;&gt;Node0x81f1fb0</title>
<path fill="none" stroke="black" d="M1169.5,-1840.34C1169.5,-1831.14 1169.5,-1821.65 1169.5,-1812.59"/>
<polygon fill="black" stroke="black" points="1173,-1812.58 1169.5,-1802.58 1166,-1812.58 1173,-1812.58"/>
</g>
<!-- Node0x844dd40 -->
<g id="node3" class="node"><title>Node0x844dd40</title>
<polygon fill="none" stroke="black" points="1112.5,-1645.5 1112.5,-1681.5 1226.5,-1681.5 1226.5,-1645.5 1112.5,-1645.5"/>
<text text-anchor="start" x="1120.5" y="-1659.8" font-family="Times,serif" font-size="14.00">if (a3 == 15):</text>
</g>
<!-- Node0x81f1fb0&#45;&gt;Node0x844dd40 -->
<g id="edge2" class="edge"><title>Node0x81f1fb0&#45;&gt;Node0x844dd40</title>
<path fill="none" stroke="black" d="M1169.5,-1719.5C1169.5,-1710.21 1169.5,-1700.54 1169.5,-1691.95"/>
<polygon fill="black" stroke="black" points="1173,-1691.75 1169.5,-1681.75 1166,-1691.75 1173,-1691.75"/>
</g>
<!-- Node0x1b152b00 -->
<g id="node4" class="node"><title>Node0x1b152b00</title>
<polygon fill="none" stroke="black" points="1055.5,-1540.5 1055.5,-1593.5 1165.5,-1593.5 1165.5,-1540.5 1055.5,-1540.5"/>
<text text-anchor="start" x="1063.5" y="-1578.3" font-family="Times,serif" font-size="14.00">0x806f65b:</text>
<text text-anchor="start" x="1063.5" y="-1563.3" font-family="Times,serif" font-size="14.00"> if (a2 == 0):</text>
<text text-anchor="start" x="1063.5" y="-1548.3" font-family="Times,serif" font-size="14.00"> else:</text>
</g>
<!-- Node0x844dd40&#45;&gt;Node0x1b152b00 -->
<g id="edge3" class="edge"><title>Node0x844dd40&#45;&gt;Node0x1b152b00</title>
<path fill="none" stroke="black" d="M1144.44,-1645.44C1138.17,-1640.16 1131.96,-1633.89 1127.5,-1627 1122.93,-1619.94 1119.56,-1611.63 1117.08,-1603.5"/>
<polygon fill="black" stroke="black" points="1120.45,-1602.54 1114.49,-1593.78 1113.69,-1604.35 1120.45,-1602.54"/>
<text text-anchor="middle" x="1162" y="-1615.8" font-family="Times,serif" font-size="14.00">a3 == 15</text>
</g>
<!-- Node0x1b150d80 -->
<g id="node5" class="node"><title>Node0x1b150d80</title>
<polygon fill="none" stroke="black" points="1177.5,-1438.5 1177.5,-1521.5 1271.5,-1521.5 1271.5,-1438.5 1177.5,-1438.5"/>
<text text-anchor="start" x="1185.5" y="-1506.3" font-family="Times,serif" font-size="14.00">0x806f6ef:</text>
<text text-anchor="start" x="1185.5" y="-1491.3" font-family="Times,serif" font-size="14.00"> g3 = v3</text>
<text text-anchor="start" x="1185.5" y="-1476.3" font-family="Times,serif" font-size="14.00"> g7 = v2</text>
<text text-anchor="start" x="1185.5" y="-1461.3" font-family="Times,serif" font-size="14.00"> g5 = v1</text>
<text text-anchor="start" x="1185.5" y="-1446.3" font-family="Times,serif" font-size="14.00"> return &#45;38</text>
</g>
<!-- Node0x844dd40&#45;&gt;Node0x1b150d80 -->
<g id="edge4" class="edge"><title>Node0x844dd40&#45;&gt;Node0x1b150d80</title>
<path fill="none" stroke="black" d="M1184.97,-1645.47C1189.29,-1639.92 1193.6,-1633.51 1196.5,-1627 1209.9,-1596.98 1216.9,-1560.7 1220.54,-1531.81"/>
<polygon fill="black" stroke="black" points="1224.06,-1531.87 1221.74,-1521.53 1217.11,-1531.06 1224.06,-1531.87"/>
<text text-anchor="middle" x="1234" y="-1615.8" font-family="Times,serif" font-size="14.00">a3 != 15</text>
</g>
<!-- Node0x1b14fe20 -->
<g id="node6" class="node"><title>Node0x1b14fe20</title>
<polygon fill="none" stroke="black" points="771,-1279.5 771,-1347.5 872,-1347.5 872,-1279.5 771,-1279.5"/>
<text text-anchor="start" x="779" y="-1332.3" font-family="Times,serif" font-size="14.00">0x806f671:</text>
<text text-anchor="start" x="779" y="-1317.3" font-family="Times,serif" font-size="14.00"> v5</text>
<text text-anchor="start" x="779" y="-1302.3" font-family="Times,serif" font-size="14.00"> g5 = &amp;(v5)</text>
<text text-anchor="start" x="779" y="-1287.3" font-family="Times,serif" font-size="14.00"> v6 = 0</text>
</g>
<!-- Node0x1b152b00&#45;&gt;Node0x1b14fe20 -->
<g id="edge5" class="edge"><title>Node0x1b152b00&#45;&gt;Node0x1b14fe20</title>
<path fill="none" stroke="black" d="M1071.28,-1540.34C1062.94,-1534.53 1054.3,-1528.22 1046.5,-1522 978.581,-1467.79 905.617,-1398.16 861.771,-1354.94"/>
<polygon fill="black" stroke="black" points="864.032,-1352.25 854.46,-1347.71 859.11,-1357.23 864.032,-1352.25"/>
<text text-anchor="middle" x="1076.5" y="-1476.3" font-family="Times,serif" font-size="14.00">a2 == 0</text>
</g>
<!-- Node0x1e86ceb0 -->
<g id="node7" class="node"><title>Node0x1e86ceb0</title>
<polygon fill="none" stroke="black" points="1061.5,-1366.5 1061.5,-1419.5 1159.5,-1419.5 1159.5,-1366.5 1061.5,-1366.5"/>
<text text-anchor="start" x="1069.5" y="-1404.3" font-family="Times,serif" font-size="14.00">0x806f700:</text>
<text text-anchor="start" x="1069.5" y="-1389.3" font-family="Times,serif" font-size="14.00"> g5 = 0</text>
<text text-anchor="start" x="1069.5" y="-1374.3" font-family="Times,serif" font-size="14.00"> v12 = 0</text>
</g>
<!-- Node0x1b152b00&#45;&gt;Node0x1e86ceb0 -->
<g id="edge6" class="edge"><title>Node0x1b152b00&#45;&gt;Node0x1e86ceb0</title>
<path fill="none" stroke="black" d="M1110.5,-1540.25C1110.5,-1510.91 1110.5,-1462.76 1110.5,-1429.78"/>
<polygon fill="black" stroke="black" points="1114,-1429.64 1110.5,-1419.64 1107,-1429.64 1114,-1429.64"/>
<text text-anchor="middle" x="1137.5" y="-1476.3" font-family="Times,serif" font-size="14.00">a2 != 0</text>
</g>
<!-- Node0x16aac010 -->
<g id="node8" class="node"><title>Node0x16aac010</title>
<polygon fill="none" stroke="black" points="849.5,-23.5 849.5,-59.5 903.5,-59.5 903.5,-23.5 849.5,-23.5"/>
<text text-anchor="start" x="857.5" y="-37.8" font-family="Times,serif" font-size="14.00">exit:</text>
</g>
<!-- Node0x1b150d80&#45;&gt;Node0x16aac010 -->
<g id="edge7" class="edge"><title>Node0x1b150d80&#45;&gt;Node0x16aac010</title>
<path fill="none" stroke="black" d="M1230.69,-1438.21C1235.19,-1404.99 1240.5,-1356.82 1240.5,-1314.5 1240.5,-1314.5 1240.5,-1314.5 1240.5,-138 1240.5,-70.9236 1006.32,-50.0099 913.627,-44.3593"/>
<polygon fill="black" stroke="black" points="913.749,-40.8605 903.562,-43.7722 913.341,-47.8486 913.749,-40.8605"/>
</g>
<!-- Node0x81edd00 -->
<g id="node9" class="node"><title>Node0x81edd00</title>
<polygon fill="none" stroke="black" points="683,-1167.5 683,-1203.5 780,-1203.5 780,-1167.5 683,-1167.5"/>
<text text-anchor="start" x="691" y="-1181.8" font-family="Times,serif" font-size="14.00">while True:</text>
</g>
<!-- Node0x1b14fe20&#45;&gt;Node0x81edd00 -->
<g id="edge8" class="edge"><title>Node0x1b14fe20&#45;&gt;Node0x81edd00</title>
<path fill="none" stroke="black" d="M797.854,-1279.39C782.769,-1258.28 763.517,-1231.32 749.639,-1211.9"/>
<polygon fill="black" stroke="black" points="752.336,-1209.65 743.676,-1203.55 746.64,-1213.72 752.336,-1209.65"/>
</g>
<!-- Node0x1b14e560 -->
<g id="node10" class="node"><title>Node0x1b14e560</title>
<polygon fill="none" stroke="black" points="1060,-1222.5 1060,-1260.5 1161,-1260.5 1161,-1222.5 1060,-1222.5"/>
<text text-anchor="start" x="1068" y="-1245.3" font-family="Times,serif" font-size="14.00">0x806f700:</text>
<text text-anchor="start" x="1068" y="-1230.3" font-family="Times,serif" font-size="14.00"> while True:</text>
</g>
<!-- Node0x1e86ceb0&#45;&gt;Node0x1b14e560 -->
<g id="edge9" class="edge"><title>Node0x1e86ceb0&#45;&gt;Node0x1b14e560</title>
<path fill="none" stroke="black" d="M1110.5,-1366.3C1110.5,-1339.77 1110.5,-1298.47 1110.5,-1270.97"/>
<polygon fill="black" stroke="black" points="1114,-1270.81 1110.5,-1260.81 1107,-1270.81 1114,-1270.81"/>
</g>
<!-- Node0x1e86f680 -->
<g id="node11" class="node"><title>Node0x1e86f680</title>
<polygon fill="none" stroke="black" points="374,-918.5 374,-1046.5 1039,-1046.5 1039,-918.5 374,-918.5"/>
<text text-anchor="start" x="382" y="-1031.3" font-family="Times,serif" font-size="14.00">v7 = (v6 + a5)</text>
<text text-anchor="start" x="382" y="-1016.3" font-family="Times,serif" font-size="14.00"> g7 = (v6 + a6)</text>
<text text-anchor="start" x="382" y="-1001.3" font-family="Times,serif" font-size="14.00"> v5 = *(IntToPtrCastExpr&lt;ptr&gt;(v7))</text>
<text text-anchor="start" x="382" y="-986.3" font-family="Times,serif" font-size="14.00"> mbedtls_camellia_crypt_ecb(IntToPtrCastExpr&lt;ptr&gt;(a1), 0, IntToPtrCastExpr&lt;ptr&gt;(v7))</text>
<text text-anchor="start" x="382" y="-971.3" font-family="Times,serif" font-size="14.00"> v8 = 0</text>
<text text-anchor="start" x="382" y="-956.3" font-family="Times,serif" font-size="14.00"> v9 = IntToPtrCastExpr&lt;ptr&gt;((g7 + v8))</text>
<text text-anchor="start" x="382" y="-941.3" font-family="Times,serif" font-size="14.00"> *(v9) = (*(v9) ^ *(IntToPtrCastExpr&lt;ptr&gt;((g3 + v8))))</text>
<text text-anchor="start" x="382" y="-926.3" font-family="Times,serif" font-size="14.00"> v10 = 1</text>
</g>
<!-- Node0x81edd00&#45;&gt;Node0x1e86f680 -->
<g id="edge10" class="edge"><title>Node0x81edd00&#45;&gt;Node0x1e86f680</title>
<path fill="none" stroke="black" d="M729.369,-1167.36C726.331,-1142.94 720.575,-1096.66 715.597,-1056.64"/>
<polygon fill="black" stroke="black" points="719.058,-1056.11 714.351,-1046.62 712.112,-1056.97 719.058,-1056.11"/>
<text text-anchor="middle" x="744.5" y="-1103.3" font-family="Times,serif" font-size="14.00">True</text>
</g>
<!-- Node0x13d2f730 -->
<g id="node12" class="node"><title>Node0x13d2f730</title>
<polygon fill="none" stroke="black" points="1031,-1065.5 1031,-1148.5 1174,-1148.5 1174,-1065.5 1031,-1065.5"/>
<text text-anchor="start" x="1039" y="-1133.3" font-family="Times,serif" font-size="14.00">v13 = 0</text>
<text text-anchor="start" x="1039" y="-1118.3" font-family="Times,serif" font-size="14.00"> v14 = (v12 + a5)</text>
<text text-anchor="start" x="1039" y="-1103.3" font-family="Times,serif" font-size="14.00"> v15 = (v12 + a6)</text>
<text text-anchor="start" x="1039" y="-1088.3" font-family="Times,serif" font-size="14.00"> g7 = v15</text>
<text text-anchor="start" x="1039" y="-1073.3" font-family="Times,serif" font-size="14.00"> v16 = 0</text>
</g>
<!-- Node0x1b14e560&#45;&gt;Node0x13d2f730 -->
<g id="edge11" class="edge"><title>Node0x1b14e560&#45;&gt;Node0x13d2f730</title>
<path fill="none" stroke="black" d="M1109.4,-1222.35C1108.42,-1206.01 1106.92,-1181.18 1105.57,-1158.83"/>
<polygon fill="black" stroke="black" points="1109.06,-1158.54 1104.96,-1148.77 1102.07,-1158.96 1109.06,-1158.54"/>
<text text-anchor="middle" x="1125.5" y="-1181.8" font-family="Times,serif" font-size="14.00">True</text>
</g>
<!-- Node0x16aacbd0 -->
<g id="node13" class="node"><title>Node0x16aacbd0</title>
<polygon fill="none" stroke="black" points="220.5,-518.5 220.5,-554.5 366.5,-554.5 366.5,-518.5 220.5,-518.5"/>
<text text-anchor="start" x="228.5" y="-532.8" font-family="Times,serif" font-size="14.00">while (v10 != 16):</text>
</g>
<!-- Node0x1e86f680&#45;&gt;Node0x16aacbd0 -->
<g id="edge12" class="edge"><title>Node0x1e86f680&#45;&gt;Node0x16aacbd0</title>
<path fill="none" stroke="black" d="M519.766,-918.494C493.646,-898.447 475.5,-872.342 475.5,-838.5 475.5,-838.5 475.5,-838.5 475.5,-670.5 475.5,-616.376 419.133,-633.024 375.5,-601 357.864,-588.056 338.497,-573.095 323.016,-560.947"/>
<polygon fill="black" stroke="black" points="324.872,-557.954 314.85,-554.519 320.542,-563.455 324.872,-557.954"/>
</g>
<!-- Node0x13d2faa0 -->
<g id="node14" class="node"><title>Node0x13d2faa0</title>
<polygon fill="none" stroke="black" points="1054,-863.5 1054,-899.5 1151,-899.5 1151,-863.5 1054,-863.5"/>
<text text-anchor="start" x="1062" y="-877.8" font-family="Times,serif" font-size="14.00">while True:</text>
</g>
<!-- Node0x13d2f730&#45;&gt;Node0x13d2faa0 -->
<g id="edge13" class="edge"><title>Node0x13d2f730&#45;&gt;Node0x13d2faa0</title>
<path fill="none" stroke="black" d="M1102.5,-1065.27C1102.5,-1020.04 1102.5,-948.306 1102.5,-909.525"/>
<polygon fill="black" stroke="black" points="1106,-909.511 1102.5,-899.511 1099,-909.511 1106,-909.511"/>
</g>
<!-- Node0x1e8712d0 -->
<g id="node15" class="node"><title>Node0x1e8712d0</title>
<polygon fill="none" stroke="black" points="0,-330 0,-413 413,-413 413,-330 0,-330"/>
<text text-anchor="start" x="8" y="-397.8" font-family="Times,serif" font-size="14.00">0x806f6c0:</text>
<text text-anchor="start" x="8" y="-382.8" font-family="Times,serif" font-size="14.00"> v8 = v10</text>
<text text-anchor="start" x="8" y="-367.8" font-family="Times,serif" font-size="14.00"> v9 = IntToPtrCastExpr&lt;ptr&gt;((g7 + v8))</text>
<text text-anchor="start" x="8" y="-352.8" font-family="Times,serif" font-size="14.00"> *(v9) = (*(v9) ^ *(IntToPtrCastExpr&lt;ptr&gt;((g3 + v8))))</text>
<text text-anchor="start" x="8" y="-337.8" font-family="Times,serif" font-size="14.00"> v10 = (v10 + 1)</text>
</g>
<!-- Node0x16aacbd0&#45;&gt;Node0x1e8712d0 -->
<g id="edge14" class="edge"><title>Node0x16aacbd0&#45;&gt;Node0x1e8712d0</title>
<path fill="none" stroke="black" d="M265.757,-518.233C245.454,-503.845 219.451,-481.328 207.5,-454 203.375,-444.568 201.514,-433.915 200.963,-423.497"/>
<polygon fill="black" stroke="black" points="204.459,-423.159 200.813,-413.211 197.459,-423.26 204.459,-423.159"/>
<text text-anchor="middle" x="243.5" y="-442.8" font-family="Times,serif" font-size="14.00">v10 != 16</text>
</g>
<!-- Node0xaa41ea0 -->
<g id="node16" class="node"><title>Node0xaa41ea0</title>
<polygon fill="none" stroke="black" points="431.5,-322.5 431.5,-420.5 1011.5,-420.5 1011.5,-322.5 431.5,-322.5"/>
<text text-anchor="start" x="439.5" y="-405.3" font-family="Times,serif" font-size="14.00">0x806f6cf:</text>
<text text-anchor="start" x="439.5" y="-390.3" font-family="Times,serif" font-size="14.00"> *(IntToPtrCastExpr&lt;ptr&gt;(g3)) = v5</text>
<text text-anchor="start" x="439.5" y="-375.3" font-family="Times,serif" font-size="14.00"> *(IntToPtrCastExpr&lt;ptr&gt;((g3 + 4))) = *(IntToPtrCastExpr&lt;ptr&gt;((v7 + 4)))</text>
<text text-anchor="start" x="439.5" y="-360.3" font-family="Times,serif" font-size="14.00"> *(IntToPtrCastExpr&lt;ptr&gt;((g3 + 8))) = *(IntToPtrCastExpr&lt;ptr&gt;((v7 + 8)))</text>
<text text-anchor="start" x="439.5" y="-345.3" font-family="Times,serif" font-size="14.00"> *(IntToPtrCastExpr&lt;ptr&gt;((g3 + 12))) = *(IntToPtrCastExpr&lt;ptr&gt;((v7 + 12)))</text>
<text text-anchor="start" x="439.5" y="-330.3" font-family="Times,serif" font-size="14.00"> v11 = (v6 + 16)</text>
</g>
<!-- Node0x16aacbd0&#45;&gt;Node0xaa41ea0 -->
<g id="edge15" class="edge"><title>Node0x16aacbd0&#45;&gt;Node0xaa41ea0</title>
<path fill="none" stroke="black" d="M311.331,-518.423C327.081,-504.183 351.253,-484.301 375.5,-472 413.38,-452.783 455.53,-436.758 497.015,-423.583"/>
<polygon fill="black" stroke="black" points="498.195,-426.881 506.695,-420.556 496.106,-420.2 498.195,-426.881"/>
<text text-anchor="middle" x="487.5" y="-442.8" font-family="Times,serif" font-size="14.00">v10 == 16</text>
</g>
<!-- Node0xcc40c40 -->
<g id="node17" class="node"><title>Node0xcc40c40</title>
<polygon fill="none" stroke="black" points="685.5,-728.5 685.5,-811.5 1097.5,-811.5 1097.5,-728.5 685.5,-728.5"/>
<text text-anchor="start" x="693.5" y="-796.3" font-family="Times,serif" font-size="14.00">v17 = *(IntToPtrCastExpr&lt;ptr&gt;((g3 + v16)))</text>
<text text-anchor="start" x="693.5" y="-781.3" font-family="Times,serif" font-size="14.00"> v18 = *(IntToPtrCastExpr&lt;ptr&gt;((v16 + v14)))</text>
<text text-anchor="start" x="693.5" y="-766.3" font-family="Times,serif" font-size="14.00"> *(IntToPtrCastExpr&lt;ptr&gt;((v16 + v15))) = (v18 ^ v17)</text>
<text text-anchor="start" x="693.5" y="-751.3" font-family="Times,serif" font-size="14.00"> v19 = (v13 + 1)</text>
<text text-anchor="start" x="693.5" y="-736.3" font-family="Times,serif" font-size="14.00"> v13 = v19</text>
</g>
<!-- Node0x13d2faa0&#45;&gt;Node0xcc40c40 -->
<g id="edge16" class="edge"><title>Node0x13d2faa0&#45;&gt;Node0xcc40c40</title>
<path fill="none" stroke="black" d="M1069.53,-863.391C1045.16,-850.745 1010.79,-832.907 978.738,-816.273"/>
<polygon fill="black" stroke="black" points="980.257,-813.118 969.769,-811.618 977.033,-819.331 980.257,-813.118"/>
<text text-anchor="middle" x="1045.5" y="-833.8" font-family="Times,serif" font-size="14.00">True</text>
</g>
<!-- Node0x1e8712d0&#45;&gt;Node0x16aacbd0 -->
<g id="edge17" class="edge"><title>Node0x1e8712d0&#45;&gt;Node0x16aacbd0</title>
<path fill="none" stroke="black" d="M260.142,-413.013C267.665,-420.87 274.516,-429.612 279.5,-439 290.871,-460.42 293.9,-488.085 294.362,-508.299"/>
<polygon fill="black" stroke="black" points="290.862,-508.407 294.396,-518.395 297.862,-508.384 290.862,-508.407"/>
</g>
<!-- Node0x16aad550 -->
<g id="node18" class="node"><title>Node0x16aad550</title>
<polygon fill="none" stroke="black" points="660.5,-233.5 660.5,-269.5 782.5,-269.5 782.5,-233.5 660.5,-233.5"/>
<text text-anchor="start" x="668.5" y="-247.8" font-family="Times,serif" font-size="14.00">if (v4 == v11):</text>
</g>
<!-- Node0xaa41ea0&#45;&gt;Node0x16aad550 -->
<g id="edge18" class="edge"><title>Node0xaa41ea0&#45;&gt;Node0x16aad550</title>
<path fill="none" stroke="black" d="M721.5,-322.164C721.5,-307.79 721.5,-292.542 721.5,-279.988"/>
<polygon fill="black" stroke="black" points="725,-279.739 721.5,-269.739 718,-279.739 725,-279.739"/>
</g>
<!-- Node0xeed1970 -->
<g id="node19" class="node"><title>Node0xeed1970</title>
<polygon fill="none" stroke="black" points="830,-652.5 830,-690.5 953,-690.5 953,-652.5 830,-652.5"/>
<text text-anchor="start" x="838" y="-675.3" font-family="Times,serif" font-size="14.00">if (v19 == 16):</text>
<text text-anchor="start" x="838" y="-660.3" font-family="Times,serif" font-size="14.00"> else:</text>
</g>
<!-- Node0xcc40c40&#45;&gt;Node0xeed1970 -->
<g id="edge19" class="edge"><title>Node0xcc40c40&#45;&gt;Node0xeed1970</title>
<path fill="none" stroke="black" d="M891.5,-728.355C891.5,-719.083 891.5,-709.427 891.5,-700.803"/>
<polygon fill="black" stroke="black" points="895,-700.538 891.5,-690.538 888,-700.538 895,-700.538"/>
</g>
<!-- Node0x10197490 -->
<g id="node20" class="node"><title>Node0x10197490</title>
<polygon fill="none" stroke="black" points="675,-97.5 675,-180.5 768,-180.5 768,-97.5 675,-97.5"/>
<text text-anchor="start" x="683" y="-165.3" font-family="Times,serif" font-size="14.00">0x806f6ef:</text>
<text text-anchor="start" x="683" y="-150.3" font-family="Times,serif" font-size="14.00"> g3 = v3</text>
<text text-anchor="start" x="683" y="-135.3" font-family="Times,serif" font-size="14.00"> g7 = v2</text>
<text text-anchor="start" x="683" y="-120.3" font-family="Times,serif" font-size="14.00"> g5 = v1</text>
<text text-anchor="start" x="683" y="-105.3" font-family="Times,serif" font-size="14.00"> return 0</text>
</g>
<!-- Node0x16aad550&#45;&gt;Node0x10197490 -->
<g id="edge20" class="edge"><title>Node0x16aad550&#45;&gt;Node0x10197490</title>
<path fill="none" stroke="black" d="M721.5,-233.234C721.5,-221.793 721.5,-206.138 721.5,-190.924"/>
<polygon fill="black" stroke="black" points="725,-190.519 721.5,-180.519 718,-190.519 725,-190.519"/>
<text text-anchor="middle" x="760" y="-202.8" font-family="Times,serif" font-size="14.00">v4 == v11</text>
</g>
<!-- Node0xf8c0140 -->
<g id="node21" class="node"><title>Node0xf8c0140</title>
<polygon fill="none" stroke="black" points="786,-120 786,-158 879,-158 879,-120 786,-120"/>
<text text-anchor="start" x="794" y="-142.8" font-family="Times,serif" font-size="14.00">0x806f6cf:</text>
<text text-anchor="start" x="794" y="-127.8" font-family="Times,serif" font-size="14.00"> v6 = v11</text>
</g>
<!-- Node0x16aad550&#45;&gt;Node0xf8c0140 -->
<g id="edge21" class="edge"><title>Node0x16aad550&#45;&gt;Node0xf8c0140</title>
<path fill="none" stroke="black" d="M774.947,-233.438C785.022,-228.389 794.799,-222.001 802.5,-214 814.607,-201.421 822.062,-183.31 826.513,-168.154"/>
<polygon fill="black" stroke="black" points="829.962,-168.8 829.134,-158.237 823.194,-167.011 829.962,-168.8"/>
<text text-anchor="middle" x="849" y="-202.8" font-family="Times,serif" font-size="14.00">v4 != v11</text>
</g>
<!-- Node0xc5d8080 -->
<g id="node22" class="node"><title>Node0xc5d8080</title>
<polygon fill="none" stroke="black" points="384.5,-472.5 384.5,-600.5 1058.5,-600.5 1058.5,-472.5 384.5,-472.5"/>
<text text-anchor="start" x="392.5" y="-585.3" font-family="Times,serif" font-size="14.00">0x806f722:</text>
<text text-anchor="start" x="392.5" y="-570.3" font-family="Times,serif" font-size="14.00"> g5 = (g5 + 16)</text>
<text text-anchor="start" x="392.5" y="-555.3" font-family="Times,serif" font-size="14.00"> mbedtls_camellia_crypt_ecb(IntToPtrCastExpr&lt;ptr&gt;(a1), a2, IntToPtrCastExpr&lt;ptr&gt;(g7))</text>
<text text-anchor="start" x="392.5" y="-540.3" font-family="Times,serif" font-size="14.00"> *(IntToPtrCastExpr&lt;ptr&gt;(g3)) = *(IntToPtrCastExpr&lt;ptr&gt;(g7))</text>
<text text-anchor="start" x="392.5" y="-525.3" font-family="Times,serif" font-size="14.00"> *(IntToPtrCastExpr&lt;ptr&gt;((g3 + 4))) = *(IntToPtrCastExpr&lt;ptr&gt;((g7 + 4)))</text>
<text text-anchor="start" x="392.5" y="-510.3" font-family="Times,serif" font-size="14.00"> *(IntToPtrCastExpr&lt;ptr&gt;((g3 + 8))) = *(IntToPtrCastExpr&lt;ptr&gt;((g7 + 8)))</text>
<text text-anchor="start" x="392.5" y="-495.3" font-family="Times,serif" font-size="14.00"> *(IntToPtrCastExpr&lt;ptr&gt;((g3 + 12))) = *(IntToPtrCastExpr&lt;ptr&gt;((g7 + 12)))</text>
<text text-anchor="start" x="392.5" y="-480.3" font-family="Times,serif" font-size="14.00"> v20 = g5</text>
</g>
<!-- Node0xeed1970&#45;&gt;Node0xc5d8080 -->
<g id="edge22" class="edge"><title>Node0xeed1970&#45;&gt;Node0xc5d8080</title>
<path fill="none" stroke="black" d="M868.219,-652.286C852.831,-640.247 831.588,-623.628 810.041,-606.77"/>
<polygon fill="black" stroke="black" points="812.132,-603.962 802.099,-600.557 807.818,-609.475 812.132,-603.962"/>
<text text-anchor="middle" x="880.5" y="-622.8" font-family="Times,serif" font-size="14.00">v19 == 16</text>
</g>
<!-- Node0x8d37340 -->
<g id="node23" class="node"><title>Node0x8d37340</title>
<polygon fill="none" stroke="black" points="1076.5,-502.5 1076.5,-570.5 1174.5,-570.5 1174.5,-502.5 1076.5,-502.5"/>
<text text-anchor="start" x="1084.5" y="-555.3" font-family="Times,serif" font-size="14.00">0x806f710:</text>
<text text-anchor="start" x="1084.5" y="-540.3" font-family="Times,serif" font-size="14.00"> v15 = g7</text>
<text text-anchor="start" x="1084.5" y="-525.3" font-family="Times,serif" font-size="14.00"> v16 = v19</text>
<text text-anchor="start" x="1084.5" y="-510.3" font-family="Times,serif" font-size="14.00"> continue</text>
</g>
<!-- Node0xeed1970&#45;&gt;Node0x8d37340 -->
<g id="edge23" class="edge"><title>Node0xeed1970&#45;&gt;Node0x8d37340</title>
<path fill="none" stroke="black" d="M953.117,-653.778C988.531,-642.37 1032.74,-624.953 1067.5,-601 1076.72,-594.643 1085.52,-586.558 1093.36,-578.304"/>
<polygon fill="black" stroke="black" points="1096.12,-580.471 1100.26,-570.72 1090.94,-575.758 1096.12,-580.471"/>
<text text-anchor="middle" x="1073.5" y="-622.8" font-family="Times,serif" font-size="14.00">v19 != 16</text>
</g>
<!-- Node0x10197490&#45;&gt;Node0x16aac010 -->
<g id="edge24" class="edge"><title>Node0x10197490&#45;&gt;Node0x16aac010</title>
<path fill="none" stroke="black" d="M768.294,-102.436C771.044,-100.56 773.792,-98.7347 776.5,-97 796.959,-83.8923 820.82,-70.8101 840.102,-60.7495"/>
<polygon fill="black" stroke="black" points="841.887,-63.7666 849.165,-56.0665 838.674,-57.5477 841.887,-63.7666"/>
</g>
<!-- Node0xf8c0140&#45;&gt;Node0x16aac010 -->
<g id="edge25" class="edge"><title>Node0xf8c0140&#45;&gt;Node0x16aac010</title>
<path fill="none" stroke="black" d="M840.984,-119.587C847.601,-105.223 856.883,-85.0777 864.298,-68.9832"/>
<polygon fill="black" stroke="black" points="867.628,-70.1205 868.634,-59.5735 861.27,-67.1913 867.628,-70.1205"/>
</g>
<!-- Node0xe62d430 -->
<g id="node24" class="node"><title>Node0xe62d430</title>
<polygon fill="none" stroke="black" points="1029.5,-353.5 1029.5,-389.5 1151.5,-389.5 1151.5,-353.5 1029.5,-353.5"/>
<text text-anchor="start" x="1037.5" y="-367.8" font-family="Times,serif" font-size="14.00">if (v4 == v20):</text>
</g>
<!-- Node0xc5d8080&#45;&gt;Node0xe62d430 -->
<g id="edge26" class="edge"><title>Node0xc5d8080&#45;&gt;Node0xe62d430</title>
<path fill="none" stroke="black" d="M907.21,-472.353C945.43,-457.159 984.863,-439.817 1020.5,-421 1034.18,-413.778 1048.36,-404.36 1060.36,-395.747"/>
<polygon fill="black" stroke="black" points="1062.67,-398.392 1068.67,-389.66 1058.54,-392.745 1062.67,-398.392"/>
</g>
<!-- Node0x8d37340&#45;&gt;Node0x13d2faa0 -->
<g id="edge27" class="edge"><title>Node0x8d37340&#45;&gt;Node0x13d2faa0</title>
<path fill="none" stroke="black" d="M1123.29,-570.515C1118.76,-638.072 1108.5,-790.956 1104.33,-853.282"/>
<polygon fill="black" stroke="black" points="1100.82,-853.279 1103.64,-863.491 1107.8,-853.747 1100.82,-853.279"/>
</g>
<!-- Node0xcc400b0 -->
<g id="node25" class="node"><title>Node0xcc400b0</title>
<polygon fill="none" stroke="black" points="824.5,-232.5 824.5,-270.5 1060.5,-270.5 1060.5,-232.5 824.5,-232.5"/>
<text text-anchor="start" x="832.5" y="-255.3" font-family="Times,serif" font-size="14.00">break (via goto) &#45;&gt; 0x806f75a:</text>
<text text-anchor="start" x="832.5" y="-240.3" font-family="Times,serif" font-size="14.00"> goto 0x806f75a</text>
</g>
<!-- Node0xe62d430&#45;&gt;Node0xcc400b0 -->
<g id="edge28" class="edge"><title>Node0xe62d430&#45;&gt;Node0xcc400b0</title>
<path fill="none" stroke="black" d="M1068.98,-353.342C1043.88,-333.329 1002.18,-300.083 973.57,-277.272"/>
<polygon fill="black" stroke="black" points="975.509,-274.342 965.508,-270.844 971.145,-279.815 975.509,-274.342"/>
<text text-anchor="middle" x="1042" y="-292.8" font-family="Times,serif" font-size="14.00">v4 == v20</text>
</g>
<!-- Node0x866d270 -->
<g id="node26" class="node"><title>Node0x866d270</title>
<polygon fill="none" stroke="black" points="1078.5,-232.5 1078.5,-270.5 1212.5,-270.5 1212.5,-232.5 1078.5,-232.5"/>
<text text-anchor="start" x="1086.5" y="-255.3" font-family="Times,serif" font-size="14.00">v12 = v20</text>
<text text-anchor="start" x="1086.5" y="-240.3" font-family="Times,serif" font-size="14.00"> goto 0x806f700</text>
</g>
<!-- Node0xe62d430&#45;&gt;Node0x866d270 -->
<g id="edge29" class="edge"><title>Node0xe62d430&#45;&gt;Node0x866d270</title>
<path fill="none" stroke="black" d="M1094.41,-353.285C1098.68,-336.31 1106.41,-309.943 1117.5,-289 1119.29,-285.626 1121.38,-282.238 1123.61,-278.961"/>
<polygon fill="black" stroke="black" points="1126.63,-280.767 1129.69,-270.626 1120.97,-276.641 1126.63,-280.767"/>
<text text-anchor="middle" x="1153" y="-292.8" font-family="Times,serif" font-size="14.00">v4 != v20</text>
</g>
<!-- Node0x13d30b10 -->
<g id="node27" class="node"><title>Node0x13d30b10</title>
<polygon fill="none" stroke="black" points="897,-97.5 897,-180.5 990,-180.5 990,-97.5 897,-97.5"/>
<text text-anchor="start" x="905" y="-165.3" font-family="Times,serif" font-size="14.00">0x806f6ef:</text>
<text text-anchor="start" x="905" y="-150.3" font-family="Times,serif" font-size="14.00"> g3 = v3</text>
<text text-anchor="start" x="905" y="-135.3" font-family="Times,serif" font-size="14.00"> g7 = v2</text>
<text text-anchor="start" x="905" y="-120.3" font-family="Times,serif" font-size="14.00"> g5 = v1</text>
<text text-anchor="start" x="905" y="-105.3" font-family="Times,serif" font-size="14.00"> return 0</text>
</g>
<!-- Node0xcc400b0&#45;&gt;Node0x13d30b10 -->
<g id="edge30" class="edge"><title>Node0xcc400b0&#45;&gt;Node0x13d30b10</title>
<path fill="none" stroke="black" d="M942.665,-232.253C942.768,-220.898 942.906,-205.682 943.039,-190.887"/>
<polygon fill="black" stroke="black" points="946.54,-190.795 943.131,-180.764 939.541,-190.731 946.54,-190.795"/>
</g>
<!-- Node0x866d270&#45;&gt;Node0x1b14e560 -->
<g id="edge31" class="edge"><title>Node0x866d270&#45;&gt;Node0x1b14e560</title>
<path fill="none" stroke="black" d="M1173.02,-270.887C1178.96,-276.08 1184.62,-282.196 1188.5,-289 1206.72,-320.921 1202.5,-333.747 1202.5,-370.5 1202.5,-1108 1202.5,-1108 1202.5,-1108 1202.5,-1151.59 1168.5,-1191.15 1141.83,-1215.47"/>
<polygon fill="black" stroke="black" points="1139.37,-1212.97 1134.19,-1222.22 1144.01,-1218.22 1139.37,-1212.97"/>
</g>
<!-- Node0x13d30b10&#45;&gt;Node0x16aac010 -->
<g id="edge32" class="edge"><title>Node0x13d30b10&#45;&gt;Node0x16aac010</title>
<path fill="none" stroke="black" d="M915.086,-97.4994C908.059,-87.4829 900.726,-77.0307 894.363,-67.9615"/>
<polygon fill="black" stroke="black" points="897.21,-65.9255 888.602,-59.7494 891.48,-69.9458 897.21,-65.9255"/>
</g>
</g>
</svg>
