<?xml version="1.0" encoding="UTF-8" standalone="no"?>
<!DOCTYPE svg PUBLIC "-//W3C//DTD SVG 1.1//EN"
 "http://www.w3.org/Graphics/SVG/1.1/DTD/svg11.dtd">
<!-- Generated by graphviz version 2.38.0 (20140413.2041)
 -->
<!-- Title: Control&#45;flow graph for function &#39;up_encrypt(*str)&#39;. Pages: 1 -->
<svg width="867pt" height="841pt"
 viewBox="0.00 0.00 867.00 841.00" xmlns="http://www.w3.org/2000/svg" xmlns:xlink="http://www.w3.org/1999/xlink">
<g id="graph0" class="graph" transform="scale(1 1) rotate(0) translate(4 837)">
<title>Control&#45;flow graph for function &#39;up_encrypt(*str)&#39;.</title>
<polygon fill="white" stroke="none" points="-4,4 -4,-837 863,-837 863,4 -4,4"/>
<text text-anchor="middle" x="429.5" y="-7.8" font-family="Times,serif" font-size="14.00">Control&#45;flow graph for function &#39;up_encrypt(*str)&#39;.</text>
<!-- Node0xd5db860 -->
<g id="node1" class="node"><title>Node0xd5db860</title>
<polygon fill="none" stroke="black" points="274.5,-794.5 274.5,-832.5 333.5,-832.5 333.5,-794.5 274.5,-794.5"/>
<text text-anchor="start" x="282.5" y="-817.3" font-family="Times,serif" font-size="14.00">entry:</text>
<text text-anchor="start" x="282.5" y="-802.3" font-family="Times,serif" font-size="14.00"> str</text>
</g>
<!-- Node0xf0df860 -->
<g id="node2" class="node"><title>Node0xf0df860</title>
<polygon fill="none" stroke="black" points="93.5,-643.5 93.5,-756.5 514.5,-756.5 514.5,-643.5 93.5,-643.5"/>
<text text-anchor="start" x="101.5" y="-741.3" font-family="Times,serif" font-size="14.00">v1 = g3</text>
<text text-anchor="start" x="101.5" y="-726.3" font-family="Times,serif" font-size="14.00"> mem = malloc(1024)</text>
<text text-anchor="start" x="101.5" y="-711.3" font-family="Times,serif" font-size="14.00"> g3 = PtrToIntCastExpr&lt;int32&gt;(mem)</text>
<text text-anchor="start" x="101.5" y="-696.3" font-family="Times,serif" font-size="14.00"> dest_str = PtrToIntCastExpr&lt;int32&gt;(strcpy(mem, str))</text>
<text text-anchor="start" x="101.5" y="-681.3" font-family="Times,serif" font-size="14.00"> v2</text>
<text text-anchor="start" x="101.5" y="-666.3" font-family="Times,serif" font-size="14.00"> v3 = &amp;(v2)</text>
<text text-anchor="start" x="101.5" y="-651.3" font-family="Times,serif" font-size="14.00"> v4 = g3</text>
</g>
<!-- Node0xd5db860&#45;&gt;Node0xf0df860 -->
<g id="edge1" class="edge"><title>Node0xd5db860&#45;&gt;Node0xf0df860</title>
<path fill="none" stroke="black" d="M304,-794.088C304,-786.294 304,-776.699 304,-766.661"/>
<polygon fill="black" stroke="black" points="307.5,-766.525 304,-756.525 300.5,-766.525 307.5,-766.525"/>
</g>
<!-- Node0x18044e50 -->
<g id="node3" class="node"><title>Node0x18044e50</title>
<polygon fill="none" stroke="black" points="150.5,-569.5 150.5,-605.5 457.5,-605.5 457.5,-569.5 150.5,-569.5"/>
<text text-anchor="start" x="158.5" y="-583.8" font-family="Times,serif" font-size="14.00">if (*(IntToPtrCastExpr&lt;ptr&gt;(v4)) == 0):</text>
</g>
<!-- Node0xf0df860&#45;&gt;Node0x18044e50 -->
<g id="edge2" class="edge"><title>Node0xf0df860&#45;&gt;Node0x18044e50</title>
<path fill="none" stroke="black" d="M304,-643.426C304,-633.86 304,-624.307 304,-615.913"/>
<polygon fill="black" stroke="black" points="307.5,-615.644 304,-605.644 300.5,-615.644 307.5,-615.644"/>
</g>
<!-- Node0xf0dd9a0 -->
<g id="node4" class="node"><title>Node0xf0dd9a0</title>
<polygon fill="none" stroke="black" points="0,-332.5 0,-385.5 314,-385.5 314,-332.5 0,-332.5"/>
<text text-anchor="start" x="8" y="-370.3" font-family="Times,serif" font-size="14.00">0x80492c8:</text>
<text text-anchor="start" x="8" y="-355.3" font-family="Times,serif" font-size="14.00"> g3 = v1</text>
<text text-anchor="start" x="8" y="-340.3" font-family="Times,serif" font-size="14.00"> return IntToPtrCastExpr&lt;ptr&gt;(dest_str)</text>
</g>
<!-- Node0x18044e50&#45;&gt;Node0xf0dd9a0 -->
<g id="edge3" class="edge"><title>Node0x18044e50&#45;&gt;Node0xf0dd9a0</title>
<path fill="none" stroke="black" d="M197.019,-569.476C179.392,-564.566 164.919,-558.462 159,-551 124.065,-506.957 134.521,-437.49 145.571,-395.583"/>
<polygon fill="black" stroke="black" points="148.982,-396.381 148.291,-385.809 142.238,-394.504 148.982,-396.381"/>
<text text-anchor="middle" x="290" y="-539.8" font-family="Times,serif" font-size="14.00">*(IntToPtrCastExpr&lt;ptr&gt;(v4)) == 0</text>
</g>
<!-- Node0xf0dedb0 -->
<g id="node5" class="node"><title>Node0xf0dedb0</title>
<polygon fill="none" stroke="black" points="266,-404.5 266,-517.5 650,-517.5 650,-404.5 266,-404.5"/>
<text text-anchor="start" x="274" y="-502.3" font-family="Times,serif" font-size="14.00">*(IntToPtrCastExpr&lt;ptr&gt;((v3 &#45; 16))) = v4</text>
<text text-anchor="start" x="274" y="-487.3" font-family="Times,serif" font-size="14.00"> *(IntToPtrCastExpr&lt;ptr&gt;((v3 &#45; 20))) = 134517430</text>
<text text-anchor="start" x="274" y="-472.3" font-family="Times,serif" font-size="14.00"> find_and_do(str, 0)</text>
<text text-anchor="start" x="274" y="-457.3" font-family="Times,serif" font-size="14.00"> *(IntToPtrCastExpr&lt;ptr&gt;(g8)) = g3</text>
<text text-anchor="start" x="274" y="-442.3" font-family="Times,serif" font-size="14.00"> *(IntToPtrCastExpr&lt;ptr&gt;((g8 &#45; 4))) = 134517438</text>
<text text-anchor="start" x="274" y="-427.3" font-family="Times,serif" font-size="14.00"> v5 = extract(str)</text>
<text text-anchor="start" x="274" y="-412.3" font-family="Times,serif" font-size="14.00"> g3 = v5</text>
</g>
<!-- Node0x18044e50&#45;&gt;Node0xf0dedb0 -->
<g id="edge4" class="edge"><title>Node0x18044e50&#45;&gt;Node0xf0dedb0</title>
<path fill="none" stroke="black" d="M396.495,-569.453C406.93,-564.722 416.755,-558.69 425,-551 432.231,-544.256 437.885,-535.785 442.304,-526.766"/>
<polygon fill="black" stroke="black" points="445.51,-528.171 446.325,-517.608 439.1,-525.358 445.51,-528.171"/>
<text text-anchor="middle" x="564" y="-539.8" font-family="Times,serif" font-size="14.00">*(IntToPtrCastExpr&lt;ptr&gt;(v4)) != 0</text>
</g>
<!-- Node0xf0dff80 -->
<g id="node6" class="node"><title>Node0xf0dff80</title>
<polygon fill="none" stroke="black" points="277,-23.5 277,-59.5 331,-59.5 331,-23.5 277,-23.5"/>
<text text-anchor="start" x="285" y="-37.8" font-family="Times,serif" font-size="14.00">exit:</text>
</g>
<!-- Node0xf0dd9a0&#45;&gt;Node0xf0dff80 -->
<g id="edge5" class="edge"><title>Node0xf0dd9a0&#45;&gt;Node0xf0dff80</title>
<path fill="none" stroke="black" d="M150.867,-332.496C140.347,-282.204 124.623,-168.895 176,-97 196.978,-67.6443 237.06,-53.9908 266.806,-47.7099"/>
<polygon fill="black" stroke="black" points="267.687,-51.1046 276.848,-45.7821 266.368,-44.2302 267.687,-51.1046"/>
</g>
<!-- Node0xf0e0f30 -->
<g id="node7" class="node"><title>Node0xf0e0f30</title>
<polygon fill="none" stroke="black" points="295.5,-277.5 295.5,-313.5 624.5,-313.5 624.5,-277.5 295.5,-277.5"/>
<text text-anchor="start" x="303.5" y="-291.8" font-family="Times,serif" font-size="14.00">while (*(IntToPtrCastExpr&lt;ptr&gt;(v5)) != 0):</text>
</g>
<!-- Node0xf0dedb0&#45;&gt;Node0xf0e0f30 -->
<g id="edge6" class="edge"><title>Node0xf0dedb0&#45;&gt;Node0xf0e0f30</title>
<path fill="none" stroke="black" d="M458.683,-404.19C459.014,-377.124 459.397,-345.827 459.664,-323.972"/>
<polygon fill="black" stroke="black" points="463.166,-323.811 459.789,-313.769 456.167,-323.725 463.166,-323.811"/>
</g>
<!-- Node0xf0dda00 -->
<g id="node8" class="node"><title>Node0xf0dda00</title>
<polygon fill="none" stroke="black" points="185,-97.5 185,-225.5 569,-225.5 569,-97.5 185,-97.5"/>
<text text-anchor="start" x="193" y="-210.3" font-family="Times,serif" font-size="14.00">0x80492ad:</text>
<text text-anchor="start" x="193" y="-195.3" font-family="Times,serif" font-size="14.00"> *(IntToPtrCastExpr&lt;ptr&gt;((v3 &#45; 16))) = v5</text>
<text text-anchor="start" x="193" y="-180.3" font-family="Times,serif" font-size="14.00"> *(IntToPtrCastExpr&lt;ptr&gt;((v3 &#45; 20))) = 134517430</text>
<text text-anchor="start" x="193" y="-165.3" font-family="Times,serif" font-size="14.00"> find_and_do(str, 0)</text>
<text text-anchor="start" x="193" y="-150.3" font-family="Times,serif" font-size="14.00"> *(IntToPtrCastExpr&lt;ptr&gt;(g8)) = g3</text>
<text text-anchor="start" x="193" y="-135.3" font-family="Times,serif" font-size="14.00"> *(IntToPtrCastExpr&lt;ptr&gt;((g8 &#45; 4))) = 134517438</text>
<text text-anchor="start" x="193" y="-120.3" font-family="Times,serif" font-size="14.00"> v5 = extract(str)</text>
<text text-anchor="start" x="193" y="-105.3" font-family="Times,serif" font-size="14.00"> g3 = v5</text>
</g>
<!-- Node0xf0e0f30&#45;&gt;Node0xf0dda00 -->
<g id="edge7" class="edge"><title>Node0xf0e0f30&#45;&gt;Node0xf0dda00</title>
<path fill="none" stroke="black" d="M321.747,-277.461C304.256,-272.702 290.268,-266.659 284,-259 277.433,-250.976 275.97,-242.822 278.034,-234.825"/>
<polygon fill="black" stroke="black" points="281.295,-236.101 281.982,-225.528 274.852,-233.365 281.295,-236.101"/>
<text text-anchor="middle" x="412" y="-247.8" font-family="Times,serif" font-size="14.00">*(IntToPtrCastExpr&lt;ptr&gt;(v5)) != 0</text>
</g>
<!-- Node0xf0e1f10 -->
<g id="node9" class="node"><title>Node0xf0e1f10</title>
<polygon fill="none" stroke="black" points="587,-135 587,-188 859,-188 859,-135 587,-135"/>
<text text-anchor="start" x="595" y="-172.8" font-family="Times,serif" font-size="14.00">0x80492c8:</text>
<text text-anchor="start" x="595" y="-157.8" font-family="Times,serif" font-size="14.00"> g3 = v1</text>
<text text-anchor="start" x="595" y="-142.8" font-family="Times,serif" font-size="14.00"> return IntToPtrCastExpr&lt;ptr&gt;(v5)</text>
</g>
<!-- Node0xf0e0f30&#45;&gt;Node0xf0e1f10 -->
<g id="edge8" class="edge"><title>Node0xf0e0f30&#45;&gt;Node0xf0e1f10</title>
<path fill="none" stroke="black" d="M510.433,-277.401C525.016,-271.99 540.819,-265.667 555,-259 596.494,-239.491 641.434,-213.396 674.384,-193.261"/>
<polygon fill="black" stroke="black" points="676.233,-196.233 682.919,-188.015 672.567,-190.27 676.233,-196.233"/>
<text text-anchor="middle" x="714" y="-247.8" font-family="Times,serif" font-size="14.00">*(IntToPtrCastExpr&lt;ptr&gt;(v5)) == 0</text>
</g>
<!-- Node0xf0dda00&#45;&gt;Node0xf0e0f30 -->
<g id="edge9" class="edge"><title>Node0xf0dda00&#45;&gt;Node0xf0e0f30</title>
<path fill="none" stroke="black" d="M525.809,-225.727C531.137,-231.328 535.925,-237.406 540,-244 547.157,-255.58 541.294,-264.955 530.091,-272.339"/>
<polygon fill="black" stroke="black" points="528.12,-269.432 521.1,-277.367 531.537,-275.541 528.12,-269.432"/>
</g>
<!-- Node0xf0e1f10&#45;&gt;Node0xf0dff80 -->
<g id="edge10" class="edge"><title>Node0xf0e1f10&#45;&gt;Node0xf0dff80</title>
<path fill="none" stroke="black" d="M672.031,-134.941C644.698,-122.069 610.116,-107.095 578,-97 495.366,-71.0251 394.675,-54.7674 341.339,-47.3106"/>
<polygon fill="black" stroke="black" points="341.705,-43.8282 331.322,-45.9363 340.753,-50.7632 341.705,-43.8282"/>
</g>
</g>
</svg>
