<?xml version="1.0" encoding="UTF-8" standalone="no"?>
<!DOCTYPE svg PUBLIC "-//W3C//DTD SVG 1.1//EN"
 "http://www.w3.org/Graphics/SVG/1.1/DTD/svg11.dtd">
<!-- Generated by graphviz version 2.38.0 (20140413.2041)
 -->
<!-- Title: Control&#45;flow graph for function &#39;mbedtls_mpi_safe_cond_swap(*a1, *a2, a3)&#39;. Pages: 1 -->
<svg width="892pt" height="1822pt"
 viewBox="0.00 0.00 891.50 1822.00" xmlns="http://www.w3.org/2000/svg" xmlns:xlink="http://www.w3.org/1999/xlink">
<g id="graph0" class="graph" transform="scale(1 1) rotate(0) translate(4 1818)">
<title>Control&#45;flow graph for function &#39;mbedtls_mpi_safe_cond_swap(*a1, *a2, a3)&#39;.</title>
<polygon fill="white" stroke="none" points="-4,4 -4,-1818 887.5,-1818 887.5,4 -4,4"/>
<text text-anchor="middle" x="441.75" y="-7.8" font-family="Times,serif" font-size="14.00">Control&#45;flow graph for function &#39;mbedtls_mpi_safe_cond_swap(*a1, *a2, a3)&#39;.</text>
<!-- Node0x15b92fe0 -->
<g id="node1" class="node"><title>Node0x15b92fe0</title>
<polygon fill="none" stroke="black" points="142,-1745.5 142,-1813.5 201,-1813.5 201,-1745.5 142,-1745.5"/>
<text text-anchor="start" x="150" y="-1798.3" font-family="Times,serif" font-size="14.00">entry:</text>
<text text-anchor="start" x="150" y="-1783.3" font-family="Times,serif" font-size="14.00"> a1</text>
<text text-anchor="start" x="150" y="-1768.3" font-family="Times,serif" font-size="14.00"> a2</text>
<text text-anchor="start" x="150" y="-1753.3" font-family="Times,serif" font-size="14.00"> a3</text>
</g>
<!-- Node0x15b95e60 -->
<g id="node2" class="node"><title>Node0x15b95e60</title>
<polygon fill="none" stroke="black" points="33.5,-1579.5 33.5,-1707.5 309.5,-1707.5 309.5,-1579.5 33.5,-1579.5"/>
<text text-anchor="start" x="41.5" y="-1692.3" font-family="Times,serif" font-size="14.00">v1 = PtrToIntCastExpr&lt;int32&gt;(a1)</text>
<text text-anchor="start" x="41.5" y="-1677.3" font-family="Times,serif" font-size="14.00"> v2 = PtrToIntCastExpr&lt;int32&gt;(a2)</text>
<text text-anchor="start" x="41.5" y="-1662.3" font-family="Times,serif" font-size="14.00"> v3 = g3</text>
<text text-anchor="start" x="41.5" y="-1647.3" font-family="Times,serif" font-size="14.00"> g3 = v1</text>
<text text-anchor="start" x="41.5" y="-1632.3" font-family="Times,serif" font-size="14.00"> v4 = g7</text>
<text text-anchor="start" x="41.5" y="-1617.3" font-family="Times,serif" font-size="14.00"> g7 = v2</text>
<text text-anchor="start" x="41.5" y="-1602.3" font-family="Times,serif" font-size="14.00"> v5 = g5</text>
<text text-anchor="start" x="41.5" y="-1587.3" font-family="Times,serif" font-size="14.00"> g5 = (a3 % 256)</text>
</g>
<!-- Node0x15b92fe0&#45;&gt;Node0x15b95e60 -->
<g id="edge1" class="edge"><title>Node0x15b92fe0&#45;&gt;Node0x15b95e60</title>
<path fill="none" stroke="black" d="M171.5,-1745.38C171.5,-1736.86 171.5,-1727.36 171.5,-1717.68"/>
<polygon fill="black" stroke="black" points="175,-1717.57 171.5,-1707.57 168,-1717.57 175,-1717.57"/>
</g>
<!-- Node0x8d7d290 -->
<g id="node3" class="node"><title>Node0x8d7d290</title>
<polygon fill="none" stroke="black" points="115,-1505.5 115,-1541.5 228,-1541.5 228,-1505.5 115,-1505.5"/>
<text text-anchor="start" x="123" y="-1519.8" font-family="Times,serif" font-size="14.00">if (a1 == a2):</text>
</g>
<!-- Node0x15b95e60&#45;&gt;Node0x8d7d290 -->
<g id="edge2" class="edge"><title>Node0x15b95e60&#45;&gt;Node0x8d7d290</title>
<path fill="none" stroke="black" d="M171.5,-1579.35C171.5,-1569.75 171.5,-1560.3 171.5,-1552.02"/>
<polygon fill="black" stroke="black" points="175,-1551.89 171.5,-1541.89 168,-1551.89 175,-1551.89"/>
</g>
<!-- Node0x15b965c0 -->
<g id="node4" class="node"><title>Node0x15b965c0</title>
<polygon fill="none" stroke="black" points="0,-1313.5 0,-1396.5 101,-1396.5 101,-1313.5 0,-1313.5"/>
<text text-anchor="start" x="8" y="-1381.3" font-family="Times,serif" font-size="14.00">0x8057512:</text>
<text text-anchor="start" x="8" y="-1366.3" font-family="Times,serif" font-size="14.00"> g3 = v3</text>
<text text-anchor="start" x="8" y="-1351.3" font-family="Times,serif" font-size="14.00"> g7 = v4</text>
<text text-anchor="start" x="8" y="-1336.3" font-family="Times,serif" font-size="14.00"> g5 = v5</text>
<text text-anchor="start" x="8" y="-1321.3" font-family="Times,serif" font-size="14.00"> return 0</text>
</g>
<!-- Node0x8d7d290&#45;&gt;Node0x15b965c0 -->
<g id="edge3" class="edge"><title>Node0x8d7d290&#45;&gt;Node0x15b965c0</title>
<path fill="none" stroke="black" d="M147.524,-1505.49C130.955,-1492.79 109.316,-1474.2 94.5,-1454 83.8957,-1439.54 75.051,-1422.12 68.1397,-1406.01"/>
<polygon fill="black" stroke="black" points="71.348,-1404.61 64.2952,-1396.7 64.8782,-1407.28 71.348,-1404.61"/>
<text text-anchor="middle" x="159.5" y="-1475.8" font-family="Times,serif" font-size="14.00">a1 == a2</text>
</g>
<!-- Node0x15b961a0 -->
<g id="node5" class="node"><title>Node0x15b961a0</title>
<polygon fill="none" stroke="black" points="104,-1415.5 104,-1453.5 775,-1453.5 775,-1415.5 104,-1415.5"/>
<text text-anchor="start" x="112" y="-1438.3" font-family="Times,serif" font-size="14.00">v6 = mbedtls_mpi_grow(v1, IntToPtrCastExpr&lt;ptr&gt;(*(IntToPtrCastExpr&lt;ptr&gt;((v2 + 4)))))</text>
<text text-anchor="start" x="112" y="-1423.3" font-family="Times,serif" font-size="14.00"> result2 = v6</text>
</g>
<!-- Node0x8d7d290&#45;&gt;Node0x15b961a0 -->
<g id="edge4" class="edge"><title>Node0x8d7d290&#45;&gt;Node0x15b961a0</title>
<path fill="none" stroke="black" d="M224.128,-1505.42C267.108,-1491.46 328.062,-1471.68 374.161,-1456.71"/>
<polygon fill="black" stroke="black" points="375.33,-1460.01 383.76,-1453.59 373.168,-1453.35 375.33,-1460.01"/>
<text text-anchor="middle" x="353.5" y="-1475.8" font-family="Times,serif" font-size="14.00">a1 != a2</text>
</g>
<!-- Node0x85a33c0 -->
<g id="node6" class="node"><title>Node0x85a33c0</title>
<polygon fill="none" stroke="black" points="86.5,-23.5 86.5,-59.5 140.5,-59.5 140.5,-23.5 86.5,-23.5"/>
<text text-anchor="start" x="94.5" y="-37.8" font-family="Times,serif" font-size="14.00">exit:</text>
</g>
<!-- Node0x15b965c0&#45;&gt;Node0x85a33c0 -->
<g id="edge5" class="edge"><title>Node0x15b965c0&#45;&gt;Node0x85a33c0</title>
<path fill="none" stroke="black" d="M49.4883,-1313.29C48.9922,-1289.94 48.5,-1260.07 48.5,-1233.5 48.5,-1233.5 48.5,-1233.5 48.5,-138 48.5,-110.097 67.6975,-84.3169 85.2264,-66.5931"/>
<polygon fill="black" stroke="black" points="87.8058,-68.968 92.5758,-59.5077 82.9474,-63.9285 87.8058,-68.968"/>
</g>
<!-- Node0x15b96290 -->
<g id="node7" class="node"><title>Node0x15b96290</title>
<polygon fill="none" stroke="black" points="392,-1258.5 392,-1294.5 497,-1294.5 497,-1258.5 392,-1258.5"/>
<text text-anchor="start" x="400" y="-1272.8" font-family="Times,serif" font-size="14.00">if (v6 == 0):</text>
</g>
<!-- Node0x15b961a0&#45;&gt;Node0x15b96290 -->
<g id="edge6" class="edge"><title>Node0x15b961a0&#45;&gt;Node0x15b96290</title>
<path fill="none" stroke="black" d="M440.083,-1415.3C440.954,-1388.12 442.601,-1336.74 443.619,-1304.98"/>
<polygon fill="black" stroke="black" points="447.129,-1304.74 443.951,-1294.63 440.132,-1304.52 447.129,-1304.74"/>
</g>
<!-- Node0x15b96010 -->
<g id="node8" class="node"><title>Node0x15b96010</title>
<polygon fill="none" stroke="black" points="96,-1170.5 96,-1206.5 793,-1206.5 793,-1170.5 96,-1170.5"/>
<text text-anchor="start" x="104" y="-1184.8" font-family="Times,serif" font-size="14.00">result = mbedtls_mpi_grow(g7, IntToPtrCastExpr&lt;ptr&gt;(*(IntToPtrCastExpr&lt;ptr&gt;((g3 + 4)))))</text>
</g>
<!-- Node0x15b96290&#45;&gt;Node0x15b96010 -->
<g id="edge7" class="edge"><title>Node0x15b96290&#45;&gt;Node0x15b96010</title>
<path fill="none" stroke="black" d="M444.5,-1258.1C444.5,-1246.25 444.5,-1230.32 444.5,-1216.79"/>
<polygon fill="black" stroke="black" points="448,-1216.58 444.5,-1206.58 441,-1216.58 448,-1216.58"/>
<text text-anchor="middle" x="474.5" y="-1228.8" font-family="Times,serif" font-size="14.00">v6 == 0</text>
</g>
<!-- Node0x15b963b0 -->
<g id="node9" class="node"><title>Node0x15b963b0</title>
<polygon fill="none" stroke="black" points="761.5,-763.5 761.5,-846.5 883.5,-846.5 883.5,-763.5 761.5,-763.5"/>
<text text-anchor="start" x="769.5" y="-831.3" font-family="Times,serif" font-size="14.00">0x8057512:</text>
<text text-anchor="start" x="769.5" y="-816.3" font-family="Times,serif" font-size="14.00"> g3 = v3</text>
<text text-anchor="start" x="769.5" y="-801.3" font-family="Times,serif" font-size="14.00"> g7 = v4</text>
<text text-anchor="start" x="769.5" y="-786.3" font-family="Times,serif" font-size="14.00"> g5 = v5</text>
<text text-anchor="start" x="769.5" y="-771.3" font-family="Times,serif" font-size="14.00"> return result2</text>
</g>
<!-- Node0x15b96290&#45;&gt;Node0x15b963b0 -->
<g id="edge8" class="edge"><title>Node0x15b96290&#45;&gt;Node0x15b963b0</title>
<path fill="none" stroke="black" d="M497.059,-1274.41C600.923,-1270.83 822.5,-1255.46 822.5,-1189.5 822.5,-1189.5 822.5,-1189.5 822.5,-962.5 822.5,-927.105 822.5,-887.206 822.5,-856.554"/>
<polygon fill="black" stroke="black" points="826,-856.533 822.5,-846.533 819,-856.533 826,-856.533"/>
<text text-anchor="middle" x="849.5" y="-1109.8" font-family="Times,serif" font-size="14.00">v6 != 0</text>
</g>
<!-- Node0x15b96070 -->
<g id="node10" class="node"><title>Node0x15b96070</title>
<polygon fill="none" stroke="black" points="379.5,-1094.5 379.5,-1132.5 509.5,-1132.5 509.5,-1094.5 379.5,-1094.5"/>
<text text-anchor="start" x="387.5" y="-1117.3" font-family="Times,serif" font-size="14.00">if (result == 0):</text>
<text text-anchor="start" x="387.5" y="-1102.3" font-family="Times,serif" font-size="14.00"> else:</text>
</g>
<!-- Node0x15b96010&#45;&gt;Node0x15b96070 -->
<g id="edge9" class="edge"><title>Node0x15b96010&#45;&gt;Node0x15b96070</title>
<path fill="none" stroke="black" d="M444.5,-1170.2C444.5,-1161.99 444.5,-1151.97 444.5,-1142.7"/>
<polygon fill="black" stroke="black" points="448,-1142.69 444.5,-1132.69 441,-1142.69 448,-1142.69"/>
</g>
<!-- Node0x15b963b0&#45;&gt;Node0x85a33c0 -->
<g id="edge10" class="edge"><title>Node0x15b963b0&#45;&gt;Node0x85a33c0</title>
<path fill="none" stroke="black" d="M822.988,-763.306C823.242,-738.746 823.5,-706.826 823.5,-678.5 823.5,-678.5 823.5,-678.5 823.5,-138 823.5,-69.5202 298.009,-48.1855 151.194,-43.5612"/>
<polygon fill="black" stroke="black" points="151.001,-40.0537 140.898,-43.2449 150.786,-47.0504 151.001,-40.0537"/>
</g>
<!-- Node0x15b96a40 -->
<g id="node11" class="node"><title>Node0x15b96a40</title>
<polygon fill="none" stroke="black" points="182,-884.5 182,-1042.5 645,-1042.5 645,-884.5 182,-884.5"/>
<text text-anchor="start" x="190" y="-1027.3" font-family="Times,serif" font-size="14.00">v7 = IntToPtrCastExpr&lt;ptr&gt;(g3)</text>
<text text-anchor="start" x="190" y="-1012.3" font-family="Times,serif" font-size="14.00"> v8 = *(v7)</text>
<text text-anchor="start" x="190" y="-997.3" font-family="Times,serif" font-size="14.00"> v9 = (((g5 | &#45;(g5)) / 128) % 2)</text>
<text text-anchor="start" x="190" y="-982.3" font-family="Times,serif" font-size="14.00"> v10 = &#45;(v9)</text>
<text text-anchor="start" x="190" y="-967.3" font-family="Times,serif" font-size="14.00"> v11 = &#45;((v9 ^ 1))</text>
<text text-anchor="start" x="190" y="-952.3" font-family="Times,serif" font-size="14.00"> *(v7) = ((v8 &amp; v11) + (*(IntToPtrCastExpr&lt;ptr&gt;(g7)) &amp; v10))</text>
<text text-anchor="start" x="190" y="-937.3" font-family="Times,serif" font-size="14.00"> v12 = IntToPtrCastExpr&lt;ptr&gt;(g7)</text>
<text text-anchor="start" x="190" y="-922.3" font-family="Times,serif" font-size="14.00"> v13 = ((*(v12) &amp; v11) + (v8 &amp; v10))</text>
<text text-anchor="start" x="190" y="-907.3" font-family="Times,serif" font-size="14.00"> g4 = v13</text>
<text text-anchor="start" x="190" y="-892.3" font-family="Times,serif" font-size="14.00"> *(v12) = v13</text>
</g>
<!-- Node0x15b96070&#45;&gt;Node0x15b96a40 -->
<g id="edge11" class="edge"><title>Node0x15b96070&#45;&gt;Node0x15b96a40</title>
<path fill="none" stroke="black" d="M440.699,-1094.35C438.396,-1083.36 435.269,-1068.43 431.956,-1052.61"/>
<polygon fill="black" stroke="black" points="435.35,-1051.74 429.874,-1042.67 428.498,-1053.18 435.35,-1051.74"/>
<text text-anchor="middle" x="479" y="-1064.8" font-family="Times,serif" font-size="14.00">result == 0</text>
</g>
<!-- Node0x15b97200 -->
<g id="node12" class="node"><title>Node0x15b97200</title>
<polygon fill="none" stroke="black" points="663,-945.5 663,-981.5 794,-981.5 794,-945.5 663,-945.5"/>
<text text-anchor="start" x="671" y="-959.8" font-family="Times,serif" font-size="14.00">result2 = result</text>
</g>
<!-- Node0x15b96070&#45;&gt;Node0x15b97200 -->
<g id="edge12" class="edge"><title>Node0x15b96070&#45;&gt;Node0x15b97200</title>
<path fill="none" stroke="black" d="M509.782,-1099.46C552.914,-1088.83 609.406,-1070.93 653.5,-1043 675.805,-1028.87 696.156,-1006.7 710.013,-989.52"/>
<polygon fill="black" stroke="black" points="712.853,-991.571 716.274,-981.544 707.346,-987.249 712.853,-991.571"/>
<text text-anchor="middle" x="657" y="-1064.8" font-family="Times,serif" font-size="14.00">result != 0</text>
</g>
<!-- Node0x15b96c40 -->
<g id="node13" class="node"><title>Node0x15b96c40</title>
<polygon fill="none" stroke="black" points="239.5,-787 239.5,-823 587.5,-823 587.5,-787 239.5,-787"/>
<text text-anchor="start" x="247.5" y="-801.3" font-family="Times,serif" font-size="14.00">if (*(IntToPtrCastExpr&lt;ptr&gt;((g3 + 4))) == 0):</text>
</g>
<!-- Node0x15b96a40&#45;&gt;Node0x15b96c40 -->
<g id="edge13" class="edge"><title>Node0x15b96a40&#45;&gt;Node0x15b96c40</title>
<path fill="none" stroke="black" d="M413.5,-884.25C413.5,-865.86 413.5,-847.47 413.5,-833.143"/>
<polygon fill="black" stroke="black" points="417,-833.046 413.5,-823.046 410,-833.046 417,-833.046"/>
</g>
<!-- Node0x15b97200&#45;&gt;Node0x15b963b0 -->
<g id="edge14" class="edge"><title>Node0x15b97200&#45;&gt;Node0x15b963b0</title>
<path fill="none" stroke="black" d="M738.739,-945.454C751.601,-924.039 774.23,-886.365 792.727,-855.569"/>
<polygon fill="black" stroke="black" points="795.922,-857.047 798.07,-846.673 789.921,-853.443 795.922,-857.047"/>
</g>
<!-- Node0x15b972a0 -->
<g id="node14" class="node"><title>Node0x15b972a0</title>
<polygon fill="none" stroke="black" points="68,-541.5 68,-624.5 181,-624.5 181,-541.5 68,-541.5"/>
<text text-anchor="start" x="76" y="-609.3" font-family="Times,serif" font-size="14.00">0x8057512:</text>
<text text-anchor="start" x="76" y="-594.3" font-family="Times,serif" font-size="14.00"> g3 = v3</text>
<text text-anchor="start" x="76" y="-579.3" font-family="Times,serif" font-size="14.00"> g7 = v4</text>
<text text-anchor="start" x="76" y="-564.3" font-family="Times,serif" font-size="14.00"> g5 = v5</text>
<text text-anchor="start" x="76" y="-549.3" font-family="Times,serif" font-size="14.00"> return result</text>
</g>
<!-- Node0x15b96c40&#45;&gt;Node0x15b972a0 -->
<g id="edge15" class="edge"><title>Node0x15b96c40&#45;&gt;Node0x15b972a0</title>
<path fill="none" stroke="black" d="M248.174,-786.998C195.769,-778.026 147.095,-764.652 130.5,-745 105.206,-715.046 105.811,-669.629 111.537,-634.661"/>
<polygon fill="black" stroke="black" points="115.015,-635.101 113.363,-624.636 108.128,-633.847 115.015,-635.101"/>
<text text-anchor="middle" x="282" y="-733.8" font-family="Times,serif" font-size="14.00">*(IntToPtrCastExpr&lt;ptr&gt;((g3 + 4))) == 0</text>
</g>
<!-- Node0x15b97120 -->
<g id="node15" class="node"><title>Node0x15b97120</title>
<polygon fill="none" stroke="black" points="295,-643.5 295,-711.5 624,-711.5 624,-643.5 295,-643.5"/>
<text text-anchor="start" x="303" y="-696.3" font-family="Times,serif" font-size="14.00">v14 = 0</text>
<text text-anchor="start" x="303" y="-681.3" font-family="Times,serif" font-size="14.00"> v15 = *(IntToPtrCastExpr&lt;ptr&gt;((g7 + 8)))</text>
<text text-anchor="start" x="303" y="-666.3" font-family="Times,serif" font-size="14.00"> g4 = v15</text>
<text text-anchor="start" x="303" y="-651.3" font-family="Times,serif" font-size="14.00"> v16 = 0</text>
</g>
<!-- Node0x15b96c40&#45;&gt;Node0x15b97120 -->
<g id="edge16" class="edge"><title>Node0x15b96c40&#45;&gt;Node0x15b97120</title>
<path fill="none" stroke="black" d="M420.842,-786.822C425.759,-775.113 432.264,-759.216 437.5,-745 440.278,-737.458 443.088,-729.378 445.728,-721.54"/>
<polygon fill="black" stroke="black" points="449.133,-722.394 448.967,-711.8 442.49,-720.185 449.133,-722.394"/>
<text text-anchor="middle" x="592" y="-733.8" font-family="Times,serif" font-size="14.00">*(IntToPtrCastExpr&lt;ptr&gt;((g3 + 4))) != 0</text>
</g>
<!-- Node0x15b972a0&#45;&gt;Node0x85a33c0 -->
<g id="edge17" class="edge"><title>Node0x15b972a0&#45;&gt;Node0x85a33c0</title>
<path fill="none" stroke="black" d="M104.943,-541.446C95.6325,-518.527 86.5,-489.029 86.5,-461.5 86.5,-461.5 86.5,-461.5 86.5,-138 86.5,-114.048 94.4618,-87.9481 101.738,-69.0961"/>
<polygon fill="black" stroke="black" points="105.039,-70.2712 105.545,-59.6885 98.5496,-67.6455 105.039,-70.2712"/>
</g>
<!-- Node0x15b97180 -->
<g id="node16" class="node"><title>Node0x15b97180</title>
<polygon fill="none" stroke="black" points="414,-486.5 414,-522.5 511,-522.5 511,-486.5 414,-486.5"/>
<text text-anchor="start" x="422" y="-500.8" font-family="Times,serif" font-size="14.00">while True:</text>
</g>
<!-- Node0x15b97120&#45;&gt;Node0x15b97180 -->
<g id="edge18" class="edge"><title>Node0x15b97120&#45;&gt;Node0x15b97180</title>
<path fill="none" stroke="black" d="M460.086,-643.124C460.651,-610.921 461.495,-562.768 462.021,-532.791"/>
<polygon fill="black" stroke="black" points="465.523,-532.692 462.199,-522.632 458.524,-532.569 465.523,-532.692"/>
</g>
<!-- Node0x15b97340 -->
<g id="node17" class="node"><title>Node0x15b97340</title>
<polygon fill="none" stroke="black" points="177.5,-306.5 177.5,-434.5 747.5,-434.5 747.5,-306.5 177.5,-306.5"/>
<text text-anchor="start" x="185.5" y="-419.3" font-family="Times,serif" font-size="14.00">v17 = (4 * v16)</text>
<text text-anchor="start" x="185.5" y="-404.3" font-family="Times,serif" font-size="14.00"> v18 = IntToPtrCastExpr&lt;ptr&gt;((v17 + *(IntToPtrCastExpr&lt;ptr&gt;((g3 + 8)))))</text>
<text text-anchor="start" x="185.5" y="-389.3" font-family="Times,serif" font-size="14.00"> v19 = *(v18)</text>
<text text-anchor="start" x="185.5" y="-374.3" font-family="Times,serif" font-size="14.00"> *(v18) = ((*(IntToPtrCastExpr&lt;ptr&gt;((v17 + v15))) &amp; v10) + (v19 &amp; v11))</text>
<text text-anchor="start" x="185.5" y="-359.3" font-family="Times,serif" font-size="14.00"> v20 = IntToPtrCastExpr&lt;ptr&gt;(((4 * v14) + g4))</text>
<text text-anchor="start" x="185.5" y="-344.3" font-family="Times,serif" font-size="14.00"> *(v20) = ((*(v20) &amp; v11) + (v19 &amp; v10))</text>
<text text-anchor="start" x="185.5" y="-329.3" font-family="Times,serif" font-size="14.00"> v21 = (v14 + 1)</text>
<text text-anchor="start" x="185.5" y="-314.3" font-family="Times,serif" font-size="14.00"> v14 = v21</text>
</g>
<!-- Node0x15b97180&#45;&gt;Node0x15b97340 -->
<g id="edge19" class="edge"><title>Node0x15b97180&#45;&gt;Node0x15b97340</title>
<path fill="none" stroke="black" d="M462.5,-486.243C462.5,-475.294 462.5,-460.301 462.5,-444.764"/>
<polygon fill="black" stroke="black" points="466,-444.513 462.5,-434.513 459,-444.513 466,-444.513"/>
<text text-anchor="middle" x="479.5" y="-456.8" font-family="Times,serif" font-size="14.00">True</text>
</g>
<!-- Node0x15b96640 -->
<g id="node18" class="node"><title>Node0x15b96640</title>
<polygon fill="none" stroke="black" points="280,-232.5 280,-268.5 645,-268.5 645,-232.5 280,-232.5"/>
<text text-anchor="start" x="288" y="-246.8" font-family="Times,serif" font-size="14.00">if (*(IntToPtrCastExpr&lt;ptr&gt;((g3 + 4))) &lt;= v21):</text>
</g>
<!-- Node0x15b97340&#45;&gt;Node0x15b96640 -->
<g id="edge20" class="edge"><title>Node0x15b97340&#45;&gt;Node0x15b96640</title>
<path fill="none" stroke="black" d="M462.5,-306.355C462.5,-296.753 462.5,-287.299 462.5,-279.016"/>
<polygon fill="black" stroke="black" points="466,-278.887 462.5,-268.888 459,-278.888 466,-278.887"/>
</g>
<!-- Node0xa273750 -->
<g id="node19" class="node"><title>Node0xa273750</title>
<polygon fill="none" stroke="black" points="115,-97.5 115,-180.5 228,-180.5 228,-97.5 115,-97.5"/>
<text text-anchor="start" x="123" y="-165.3" font-family="Times,serif" font-size="14.00">0x80575ba:</text>
<text text-anchor="start" x="123" y="-150.3" font-family="Times,serif" font-size="14.00"> g3 = v3</text>
<text text-anchor="start" x="123" y="-135.3" font-family="Times,serif" font-size="14.00"> g7 = v4</text>
<text text-anchor="start" x="123" y="-120.3" font-family="Times,serif" font-size="14.00"> g5 = v5</text>
<text text-anchor="start" x="123" y="-105.3" font-family="Times,serif" font-size="14.00"> return result</text>
</g>
<!-- Node0x15b96640&#45;&gt;Node0xa273750 -->
<g id="edge21" class="edge"><title>Node0x15b96640&#45;&gt;Node0xa273750</title>
<path fill="none" stroke="black" d="M279.921,-239.916C210.482,-234.369 145.308,-226.041 134.5,-214 128.159,-206.935 127.558,-198.586 130.156,-190.086"/>
<polygon fill="black" stroke="black" points="133.389,-191.428 134.111,-180.857 126.955,-188.67 133.389,-191.428"/>
<text text-anchor="middle" x="294.5" y="-202.8" font-family="Times,serif" font-size="14.00">*(IntToPtrCastExpr&lt;ptr&gt;((g3 + 4))) &lt;= v21</text>
</g>
<!-- Node0xf3ccd20 -->
<g id="node20" class="node"><title>Node0xf3ccd20</title>
<polygon fill="none" stroke="black" points="553,-112.5 553,-165.5 654,-165.5 654,-112.5 553,-112.5"/>
<text text-anchor="start" x="561" y="-150.3" font-family="Times,serif" font-size="14.00">0x8057588:</text>
<text text-anchor="start" x="561" y="-135.3" font-family="Times,serif" font-size="14.00"> v15 = g4</text>
<text text-anchor="start" x="561" y="-120.3" font-family="Times,serif" font-size="14.00"> v16 = v21</text>
</g>
<!-- Node0x15b96640&#45;&gt;Node0xf3ccd20 -->
<g id="edge22" class="edge"><title>Node0x15b96640&#45;&gt;Node0xf3ccd20</title>
<path fill="none" stroke="black" d="M458.404,-232.176C456.941,-221.707 457.004,-208.58 463.5,-199 481.521,-172.424 514.062,-157.782 543.238,-149.734"/>
<polygon fill="black" stroke="black" points="544.153,-153.112 552.978,-147.249 542.423,-146.329 544.153,-153.112"/>
<text text-anchor="middle" x="617.5" y="-202.8" font-family="Times,serif" font-size="14.00">*(IntToPtrCastExpr&lt;ptr&gt;((g3 + 4))) &gt; v21</text>
</g>
<!-- Node0xa273750&#45;&gt;Node0x85a33c0 -->
<g id="edge23" class="edge"><title>Node0xa273750&#45;&gt;Node0x85a33c0</title>
<path fill="none" stroke="black" d="M146.903,-97.4994C140.945,-87.6895 134.733,-77.4616 129.305,-68.5242"/>
<polygon fill="black" stroke="black" points="132.159,-66.4797 123.976,-59.7494 126.176,-70.1134 132.159,-66.4797"/>
</g>
<!-- Node0xf3ccd20&#45;&gt;Node0x15b97180 -->
<g id="edge24" class="edge"><title>Node0xf3ccd20&#45;&gt;Node0x15b97180</title>
<path fill="none" stroke="black" d="M654.246,-142.763C693.38,-147.879 745.136,-161.798 771.5,-199 801.885,-241.875 790.547,-394.971 756.5,-435 726.522,-470.245 598.032,-489.458 521.185,-497.988"/>
<polygon fill="black" stroke="black" points="520.726,-494.517 511.161,-499.073 521.479,-501.477 520.726,-494.517"/>
</g>
</g>
</svg>
