<?xml version="1.0" encoding="UTF-8" standalone="no"?>
<!DOCTYPE svg PUBLIC "-//W3C//DTD SVG 1.1//EN"
 "http://www.w3.org/Graphics/SVG/1.1/DTD/svg11.dtd">
<!-- Generated by graphviz version 2.38.0 (20140413.2041)
 -->
<!-- Title: Control&#45;flow graph for function &#39;mbedtls_blowfish_crypt_cbc(a1, a2, a3, *a4, a5, a6)&#39;. Pages: 1 -->
<svg width="1322pt" height="2082pt"
 viewBox="0.00 0.00 1321.50 2082.00" xmlns="http://www.w3.org/2000/svg" xmlns:xlink="http://www.w3.org/1999/xlink">
<g id="graph0" class="graph" transform="scale(1 1) rotate(0) translate(4 2078)">
<title>Control&#45;flow graph for function &#39;mbedtls_blowfish_crypt_cbc(a1, a2, a3, *a4, a5, a6)&#39;.</title>
<polygon fill="white" stroke="none" points="-4,4 -4,-2078 1317.5,-2078 1317.5,4 -4,4"/>
<text text-anchor="middle" x="656.75" y="-7.8" font-family="Times,serif" font-size="14.00">Control&#45;flow graph for function &#39;mbedtls_blowfish_crypt_cbc(a1, a2, a3, *a4, a5, a6)&#39;.</text>
<!-- Node0x95bee80 -->
<g id="node1" class="node"><title>Node0x95bee80</title>
<polygon fill="none" stroke="black" points="1145.5,-1960.5 1145.5,-2073.5 1204.5,-2073.5 1204.5,-1960.5 1145.5,-1960.5"/>
<text text-anchor="start" x="1153.5" y="-2058.3" font-family="Times,serif" font-size="14.00">entry:</text>
<text text-anchor="start" x="1153.5" y="-2043.3" font-family="Times,serif" font-size="14.00"> a1</text>
<text text-anchor="start" x="1153.5" y="-2028.3" font-family="Times,serif" font-size="14.00"> a2</text>
<text text-anchor="start" x="1153.5" y="-2013.3" font-family="Times,serif" font-size="14.00"> a3</text>
<text text-anchor="start" x="1153.5" y="-1998.3" font-family="Times,serif" font-size="14.00"> a4</text>
<text text-anchor="start" x="1153.5" y="-1983.3" font-family="Times,serif" font-size="14.00"> a5</text>
<text text-anchor="start" x="1153.5" y="-1968.3" font-family="Times,serif" font-size="14.00"> a6</text>
</g>
<!-- Node0x8e3df30 -->
<g id="node2" class="node"><title>Node0x8e3df30</title>
<polygon fill="none" stroke="black" points="1036.5,-1824.5 1036.5,-1922.5 1313.5,-1922.5 1313.5,-1824.5 1036.5,-1824.5"/>
<text text-anchor="start" x="1044.5" y="-1907.3" font-family="Times,serif" font-size="14.00">g1 = &#45;24</text>
<text text-anchor="start" x="1044.5" y="-1892.3" font-family="Times,serif" font-size="14.00"> v1 = g5</text>
<text text-anchor="start" x="1044.5" y="-1877.3" font-family="Times,serif" font-size="14.00"> v2 = g7</text>
<text text-anchor="start" x="1044.5" y="-1862.3" font-family="Times,serif" font-size="14.00"> v3 = g3</text>
<text text-anchor="start" x="1044.5" y="-1847.3" font-family="Times,serif" font-size="14.00"> g3 = PtrToIntCastExpr&lt;int32&gt;(a4)</text>
<text text-anchor="start" x="1044.5" y="-1832.3" font-family="Times,serif" font-size="14.00"> v4 = a3</text>
</g>
<!-- Node0x95bee80&#45;&gt;Node0x8e3df30 -->
<g id="edge1" class="edge"><title>Node0x95bee80&#45;&gt;Node0x8e3df30</title>
<path fill="none" stroke="black" d="M1175,-1960.48C1175,-1951.37 1175,-1941.9 1175,-1932.72"/>
<polygon fill="black" stroke="black" points="1178.5,-1932.52 1175,-1922.52 1171.5,-1932.52 1178.5,-1932.52"/>
</g>
<!-- Node0x8e3e150 -->
<g id="node3" class="node"><title>Node0x8e3e150</title>
<polygon fill="none" stroke="black" points="1122.5,-1750.5 1122.5,-1786.5 1227.5,-1786.5 1227.5,-1750.5 1122.5,-1750.5"/>
<text text-anchor="start" x="1130.5" y="-1764.8" font-family="Times,serif" font-size="14.00">if (a3 == 7):</text>
</g>
<!-- Node0x8e3df30&#45;&gt;Node0x8e3e150 -->
<g id="edge2" class="edge"><title>Node0x8e3df30&#45;&gt;Node0x8e3e150</title>
<path fill="none" stroke="black" d="M1175,-1824.32C1175,-1814.89 1175,-1805.32 1175,-1796.87"/>
<polygon fill="black" stroke="black" points="1178.5,-1796.86 1175,-1786.86 1171.5,-1796.86 1178.5,-1796.86"/>
</g>
<!-- Node0x8e3e3c0 -->
<g id="node4" class="node"><title>Node0x8e3e3c0</title>
<polygon fill="none" stroke="black" points="1080.5,-1660.5 1080.5,-1698.5 1181.5,-1698.5 1181.5,-1660.5 1080.5,-1660.5"/>
<text text-anchor="start" x="1088.5" y="-1683.3" font-family="Times,serif" font-size="14.00">0x806e737:</text>
<text text-anchor="start" x="1088.5" y="-1668.3" font-family="Times,serif" font-size="14.00"> v5</text>
</g>
<!-- Node0x8e3e150&#45;&gt;Node0x8e3e3c0 -->
<g id="edge3" class="edge"><title>Node0x8e3e150&#45;&gt;Node0x8e3e3c0</title>
<path fill="none" stroke="black" d="M1149.79,-1750.42C1143.97,-1745.21 1138.47,-1738.98 1135,-1732 1131.49,-1724.93 1129.92,-1716.64 1129.37,-1708.8"/>
<polygon fill="black" stroke="black" points="1132.86,-1708.47 1129.17,-1698.54 1125.86,-1708.61 1132.86,-1708.47"/>
<text text-anchor="middle" x="1165" y="-1720.8" font-family="Times,serif" font-size="14.00">a3 == 7</text>
</g>
<!-- Node0x8e3e2d0 -->
<g id="node5" class="node"><title>Node0x8e3e2d0</title>
<polygon fill="none" stroke="black" points="1176,-1573.5 1176,-1641.5 1276,-1641.5 1276,-1573.5 1176,-1573.5"/>
<text text-anchor="start" x="1184" y="-1626.3" font-family="Times,serif" font-size="14.00">0x806e7ab:</text>
<text text-anchor="start" x="1184" y="-1611.3" font-family="Times,serif" font-size="14.00"> g3 = v3</text>
<text text-anchor="start" x="1184" y="-1596.3" font-family="Times,serif" font-size="14.00"> g7 = v2</text>
<text text-anchor="start" x="1184" y="-1581.3" font-family="Times,serif" font-size="14.00"> g5 = v1</text>
</g>
<!-- Node0x8e3e150&#45;&gt;Node0x8e3e2d0 -->
<g id="edge4" class="edge"><title>Node0x8e3e150&#45;&gt;Node0x8e3e2d0</title>
<path fill="none" stroke="black" d="M1185.93,-1750.26C1189.19,-1744.6 1192.54,-1738.18 1195,-1732 1205.32,-1706.13 1212.99,-1675.81 1218.12,-1651.68"/>
<polygon fill="black" stroke="black" points="1221.57,-1652.25 1220.16,-1641.75 1214.72,-1650.84 1221.57,-1652.25"/>
<text text-anchor="middle" x="1228" y="-1720.8" font-family="Times,serif" font-size="14.00">a3 != 7</text>
</g>
<!-- Node0x8e3e440 -->
<g id="node6" class="node"><title>Node0x8e3e440</title>
<polygon fill="none" stroke="black" points="1040.5,-1516.5 1040.5,-1554.5 1145.5,-1554.5 1145.5,-1516.5 1040.5,-1516.5"/>
<text text-anchor="start" x="1048.5" y="-1539.3" font-family="Times,serif" font-size="14.00">if (a2 == 0):</text>
<text text-anchor="start" x="1048.5" y="-1524.3" font-family="Times,serif" font-size="14.00"> else:</text>
</g>
<!-- Node0x8e3e3c0&#45;&gt;Node0x8e3e440 -->
<g id="edge5" class="edge"><title>Node0x8e3e3c0&#45;&gt;Node0x8e3e440</title>
<path fill="none" stroke="black" d="M1126.11,-1660.23C1119.61,-1635.94 1108.07,-1592.81 1100.47,-1564.43"/>
<polygon fill="black" stroke="black" points="1103.84,-1563.46 1097.87,-1554.7 1097.08,-1565.27 1103.84,-1563.46"/>
</g>
<!-- Node0x8e3deb0 -->
<g id="node7" class="node"><title>Node0x8e3deb0</title>
<polygon fill="none" stroke="black" points="875,-23.5 875,-59.5 929,-59.5 929,-23.5 875,-23.5"/>
<text text-anchor="start" x="883" y="-37.8" font-family="Times,serif" font-size="14.00">exit:</text>
</g>
<!-- Node0x8e3e2d0&#45;&gt;Node0x8e3deb0 -->
<g id="edge6" class="edge"><title>Node0x8e3e2d0&#45;&gt;Node0x8e3deb0</title>
<path fill="none" stroke="black" d="M1233.51,-1573.48C1238.06,-1550.59 1243,-1519.35 1243,-1491.5 1243,-1491.5 1243,-1491.5 1243,-145.5 1243,-82.5813 1027.57,-54.6109 939.17,-45.7823"/>
<polygon fill="black" stroke="black" points="939.334,-42.2819 929.043,-44.7995 938.658,-49.2491 939.334,-42.2819"/>
</g>
<!-- Node0x8e3e4e0 -->
<g id="node8" class="node"><title>Node0x8e3e4e0</title>
<polygon fill="none" stroke="black" points="664.5,-1309.5 664.5,-1392.5 765.5,-1392.5 765.5,-1309.5 664.5,-1309.5"/>
<text text-anchor="start" x="672.5" y="-1377.3" font-family="Times,serif" font-size="14.00">0x806e745:</text>
<text text-anchor="start" x="672.5" y="-1362.3" font-family="Times,serif" font-size="14.00"> g5 = 0</text>
<text text-anchor="start" x="672.5" y="-1347.3" font-family="Times,serif" font-size="14.00"> v6</text>
<text text-anchor="start" x="672.5" y="-1332.3" font-family="Times,serif" font-size="14.00"> v7 = &amp;(v6)</text>
<text text-anchor="start" x="672.5" y="-1317.3" font-family="Times,serif" font-size="14.00"> v8 = 0</text>
</g>
<!-- Node0x8e3e440&#45;&gt;Node0x8e3e4e0 -->
<g id="edge7" class="edge"><title>Node0x8e3e440&#45;&gt;Node0x8e3e4e0</title>
<path fill="none" stroke="black" d="M1055.37,-1516.33C989.697,-1484.62 853.641,-1418.94 774.886,-1380.91"/>
<polygon fill="black" stroke="black" points="776.101,-1377.61 765.574,-1376.42 773.058,-1383.92 776.101,-1377.61"/>
<text text-anchor="middle" x="1042" y="-1486.8" font-family="Times,serif" font-size="14.00">a2 == 0</text>
</g>
<!-- Node0x8e3e330 -->
<g id="node9" class="node"><title>Node0x8e3e330</title>
<polygon fill="none" stroke="black" points="1043,-1411.5 1043,-1464.5 1143,-1464.5 1143,-1411.5 1043,-1411.5"/>
<text text-anchor="start" x="1051" y="-1449.3" font-family="Times,serif" font-size="14.00">0x806e7c8:</text>
<text text-anchor="start" x="1051" y="-1434.3" font-family="Times,serif" font-size="14.00"> g5 = 0</text>
<text text-anchor="start" x="1051" y="-1419.3" font-family="Times,serif" font-size="14.00"> v14 = 0</text>
</g>
<!-- Node0x8e3e440&#45;&gt;Node0x8e3e330 -->
<g id="edge8" class="edge"><title>Node0x8e3e440&#45;&gt;Node0x8e3e330</title>
<path fill="none" stroke="black" d="M1093,-1516.09C1093,-1504.42 1093,-1488.95 1093,-1474.93"/>
<polygon fill="black" stroke="black" points="1096.5,-1474.58 1093,-1464.58 1089.5,-1474.58 1096.5,-1474.58"/>
<text text-anchor="middle" x="1120" y="-1486.8" font-family="Times,serif" font-size="14.00">a2 != 0</text>
</g>
<!-- Node0x8e3e9f0 -->
<g id="node10" class="node"><title>Node0x8e3e9f0</title>
<polygon fill="none" stroke="black" points="493.5,-1197.5 493.5,-1233.5 590.5,-1233.5 590.5,-1197.5 493.5,-1197.5"/>
<text text-anchor="start" x="501.5" y="-1211.8" font-family="Times,serif" font-size="14.00">while True:</text>
</g>
<!-- Node0x8e3e4e0&#45;&gt;Node0x8e3e9f0 -->
<g id="edge9" class="edge"><title>Node0x8e3e4e0&#45;&gt;Node0x8e3e9f0</title>
<path fill="none" stroke="black" d="M664.496,-1311.03C634.568,-1287.93 597.644,-1259.44 572.204,-1239.81"/>
<polygon fill="black" stroke="black" points="574.099,-1236.85 564.044,-1233.51 569.822,-1242.39 574.099,-1236.85"/>
</g>
<!-- Node0x8e3e000 -->
<g id="node11" class="node"><title>Node0x8e3e000</title>
<polygon fill="none" stroke="black" points="1042.5,-1252.5 1042.5,-1290.5 1143.5,-1290.5 1143.5,-1252.5 1042.5,-1252.5"/>
<text text-anchor="start" x="1050.5" y="-1275.3" font-family="Times,serif" font-size="14.00">0x806e7c8:</text>
<text text-anchor="start" x="1050.5" y="-1260.3" font-family="Times,serif" font-size="14.00"> while True:</text>
</g>
<!-- Node0x8e3e330&#45;&gt;Node0x8e3e000 -->
<g id="edge10" class="edge"><title>Node0x8e3e330&#45;&gt;Node0x8e3e000</title>
<path fill="none" stroke="black" d="M1093,-1411.3C1093,-1381.39 1093,-1332.15 1093,-1301.07"/>
<polygon fill="black" stroke="black" points="1096.5,-1300.89 1093,-1290.89 1089.5,-1300.89 1096.5,-1300.89"/>
</g>
<!-- Node0x8e3e060 -->
<g id="node12" class="node"><title>Node0x8e3e060</title>
<polygon fill="none" stroke="black" points="76.5,-903.5 76.5,-1061.5 951.5,-1061.5 951.5,-903.5 76.5,-903.5"/>
<text text-anchor="start" x="84.5" y="-1046.3" font-family="Times,serif" font-size="14.00">v9 = (v8 + a5)</text>
<text text-anchor="start" x="84.5" y="-1031.3" font-family="Times,serif" font-size="14.00"> v5 = v9</text>
<text text-anchor="start" x="84.5" y="-1016.3" font-family="Times,serif" font-size="14.00"> g7 = (v8 + a6)</text>
<text text-anchor="start" x="84.5" y="-1001.3" font-family="Times,serif" font-size="14.00"> *(IntToPtrCastExpr&lt;ptr&gt;(v7)) = *(IntToPtrCastExpr&lt;ptr&gt;(v9))</text>
<text text-anchor="start" x="84.5" y="-986.3" font-family="Times,serif" font-size="14.00"> *(IntToPtrCastExpr&lt;ptr&gt;((v7 + 4))) = *(IntToPtrCastExpr&lt;ptr&gt;((v5 + 4)))</text>
<text text-anchor="start" x="84.5" y="-971.3" font-family="Times,serif" font-size="14.00"> mbedtls_blowfish_crypt_ecb(IntToPtrCastExpr&lt;ptr&gt;(a1), 0, IntToPtrCastExpr&lt;ptr&gt;(v5), IntToPtrCastExpr&lt;ptr&gt;(g7))</text>
<text text-anchor="start" x="84.5" y="-956.3" font-family="Times,serif" font-size="14.00"> v10 = 0</text>
<text text-anchor="start" x="84.5" y="-941.3" font-family="Times,serif" font-size="14.00"> v11 = IntToPtrCastExpr&lt;ptr&gt;((g7 + v10))</text>
<text text-anchor="start" x="84.5" y="-926.3" font-family="Times,serif" font-size="14.00"> *(v11) = (*(v11) ^ *(IntToPtrCastExpr&lt;ptr&gt;((g3 + v10))))</text>
<text text-anchor="start" x="84.5" y="-911.3" font-family="Times,serif" font-size="14.00"> v12 = 1</text>
</g>
<!-- Node0x8e3e9f0&#45;&gt;Node0x8e3e060 -->
<g id="edge11" class="edge"><title>Node0x8e3e9f0&#45;&gt;Node0x8e3e060</title>
<path fill="none" stroke="black" d="M539.895,-1197.14C536.673,-1170.55 530.297,-1117.95 524.678,-1071.59"/>
<polygon fill="black" stroke="black" points="528.133,-1071.01 523.455,-1061.5 521.184,-1071.85 528.133,-1071.01"/>
<text text-anchor="middle" x="555" y="-1125.8" font-family="Times,serif" font-size="14.00">True</text>
</g>
<!-- Node0x8e3f020 -->
<g id="node13" class="node"><title>Node0x8e3f020</title>
<polygon fill="none" stroke="black" points="1016.5,-1080.5 1016.5,-1178.5 1159.5,-1178.5 1159.5,-1080.5 1016.5,-1080.5"/>
<text text-anchor="start" x="1024.5" y="-1163.3" font-family="Times,serif" font-size="14.00">0x806e7c8:</text>
<text text-anchor="start" x="1024.5" y="-1148.3" font-family="Times,serif" font-size="14.00"> v5 = 0</text>
<text text-anchor="start" x="1024.5" y="-1133.3" font-family="Times,serif" font-size="14.00"> v15 = (v14 + a5)</text>
<text text-anchor="start" x="1024.5" y="-1118.3" font-family="Times,serif" font-size="14.00"> v16 = (v14 + a6)</text>
<text text-anchor="start" x="1024.5" y="-1103.3" font-family="Times,serif" font-size="14.00"> g7 = v16</text>
<text text-anchor="start" x="1024.5" y="-1088.3" font-family="Times,serif" font-size="14.00"> v17 = 0</text>
</g>
<!-- Node0x8e3e000&#45;&gt;Node0x8e3f020 -->
<g id="edge12" class="edge"><title>Node0x8e3e000&#45;&gt;Node0x8e3f020</title>
<path fill="none" stroke="black" d="M1092.36,-1252.48C1091.78,-1236.27 1090.89,-1211.54 1090.07,-1188.57"/>
<polygon fill="black" stroke="black" points="1093.57,-1188.39 1089.72,-1178.52 1086.57,-1188.64 1093.57,-1188.39"/>
<text text-anchor="middle" x="1109" y="-1211.8" font-family="Times,serif" font-size="14.00">True</text>
</g>
<!-- Node0x95bd960 -->
<g id="node14" class="node"><title>Node0x95bd960</title>
<polygon fill="none" stroke="black" points="276.5,-511 276.5,-547 413.5,-547 413.5,-511 276.5,-511"/>
<text text-anchor="start" x="284.5" y="-525.3" font-family="Times,serif" font-size="14.00">while (v12 != 8):</text>
</g>
<!-- Node0x8e3e060&#45;&gt;Node0x95bd960 -->
<g id="edge13" class="edge"><title>Node0x8e3e060&#45;&gt;Node0x95bd960</title>
<path fill="none" stroke="black" d="M470.972,-903.357C460.878,-878.566 453,-850.552 453,-823.5 453,-823.5 453,-823.5 453,-655.5 453,-611.358 414.139,-575.016 383.039,-552.999"/>
<polygon fill="black" stroke="black" points="384.743,-549.924 374.511,-547.174 380.795,-555.705 384.743,-549.924"/>
</g>
<!-- Node0x8e3eb10 -->
<g id="node15" class="node"><title>Node0x8e3eb10</title>
<polygon fill="none" stroke="black" points="1039.5,-848.5 1039.5,-884.5 1136.5,-884.5 1136.5,-848.5 1039.5,-848.5"/>
<text text-anchor="start" x="1047.5" y="-862.8" font-family="Times,serif" font-size="14.00">while True:</text>
</g>
<!-- Node0x8e3f020&#45;&gt;Node0x8e3eb10 -->
<g id="edge14" class="edge"><title>Node0x8e3f020&#45;&gt;Node0x8e3eb10</title>
<path fill="none" stroke="black" d="M1088,-1080.32C1088,-1025.74 1088,-938.672 1088,-894.743"/>
<polygon fill="black" stroke="black" points="1091.5,-894.55 1088,-884.55 1084.5,-894.55 1091.5,-894.55"/>
</g>
<!-- Node0x8e3f710 -->
<g id="node16" class="node"><title>Node0x8e3f710</title>
<polygon fill="none" stroke="black" points="0,-337.5 0,-420.5 440,-420.5 440,-337.5 0,-337.5"/>
<text text-anchor="start" x="8" y="-405.3" font-family="Times,serif" font-size="14.00">0x806e788:</text>
<text text-anchor="start" x="8" y="-390.3" font-family="Times,serif" font-size="14.00"> v10 = v12</text>
<text text-anchor="start" x="8" y="-375.3" font-family="Times,serif" font-size="14.00"> v11 = IntToPtrCastExpr&lt;ptr&gt;((g7 + v10))</text>
<text text-anchor="start" x="8" y="-360.3" font-family="Times,serif" font-size="14.00"> *(v11) = (*(v11) ^ *(IntToPtrCastExpr&lt;ptr&gt;((g3 + v10))))</text>
<text text-anchor="start" x="8" y="-345.3" font-family="Times,serif" font-size="14.00"> v12 = (v12 + 1)</text>
</g>
<!-- Node0x95bd960&#45;&gt;Node0x8e3f710 -->
<g id="edge15" class="edge"><title>Node0x95bd960&#45;&gt;Node0x8e3f710</title>
<path fill="none" stroke="black" d="M319.053,-510.977C299.783,-497.339 273.855,-476.771 256,-454 250.238,-446.652 245.072,-438.232 240.573,-429.767"/>
<polygon fill="black" stroke="black" points="243.584,-427.965 235.956,-420.613 237.334,-431.117 243.584,-427.965"/>
<text text-anchor="middle" x="287.5" y="-442.8" font-family="Times,serif" font-size="14.00">v12 != 8</text>
</g>
<!-- Node0x8e3ee30 -->
<g id="node17" class="node"><title>Node0x8e3ee30</title>
<polygon fill="none" stroke="black" points="458,-337.5 458,-420.5 1020,-420.5 1020,-337.5 458,-337.5"/>
<text text-anchor="start" x="466" y="-405.3" font-family="Times,serif" font-size="14.00">0x806e797:</text>
<text text-anchor="start" x="466" y="-390.3" font-family="Times,serif" font-size="14.00"> g5 = (g5 + 8)</text>
<text text-anchor="start" x="466" y="-375.3" font-family="Times,serif" font-size="14.00"> *(IntToPtrCastExpr&lt;ptr&gt;(g3)) = *(IntToPtrCastExpr&lt;ptr&gt;(v7))</text>
<text text-anchor="start" x="466" y="-360.3" font-family="Times,serif" font-size="14.00"> *(IntToPtrCastExpr&lt;ptr&gt;((g3 + 4))) = *(IntToPtrCastExpr&lt;ptr&gt;((v7 + 4)))</text>
<text text-anchor="start" x="466" y="-345.3" font-family="Times,serif" font-size="14.00"> v13 = g5</text>
</g>
<!-- Node0x95bd960&#45;&gt;Node0x8e3ee30 -->
<g id="edge16" class="edge"><title>Node0x95bd960&#45;&gt;Node0x8e3ee30</title>
<path fill="none" stroke="black" d="M380.121,-510.877C404.507,-499.269 437.898,-483.928 468,-472 510.837,-455.027 558.2,-438.278 601.19,-423.818"/>
<polygon fill="black" stroke="black" points="602.494,-427.072 610.865,-420.577 600.271,-420.435 602.494,-427.072"/>
<text text-anchor="middle" x="591.5" y="-442.8" font-family="Times,serif" font-size="14.00">v12 == 8</text>
</g>
<!-- Node0x8e3fab0 -->
<g id="node18" class="node"><title>Node0x8e3fab0</title>
<polygon fill="none" stroke="black" points="669,-713.5 669,-796.5 1081,-796.5 1081,-713.5 669,-713.5"/>
<text text-anchor="start" x="677" y="-781.3" font-family="Times,serif" font-size="14.00">v18 = *(IntToPtrCastExpr&lt;ptr&gt;((g3 + v17)))</text>
<text text-anchor="start" x="677" y="-766.3" font-family="Times,serif" font-size="14.00"> v19 = *(IntToPtrCastExpr&lt;ptr&gt;((v17 + v15)))</text>
<text text-anchor="start" x="677" y="-751.3" font-family="Times,serif" font-size="14.00"> *(IntToPtrCastExpr&lt;ptr&gt;((v17 + v16))) = (v19 ^ v18)</text>
<text text-anchor="start" x="677" y="-736.3" font-family="Times,serif" font-size="14.00"> v20 = (v5 + 1)</text>
<text text-anchor="start" x="677" y="-721.3" font-family="Times,serif" font-size="14.00"> v5 = v20</text>
</g>
<!-- Node0x8e3eb10&#45;&gt;Node0x8e3fab0 -->
<g id="edge17" class="edge"><title>Node0x8e3eb10&#45;&gt;Node0x8e3fab0</title>
<path fill="none" stroke="black" d="M1054.72,-848.391C1030.12,-835.745 995.422,-817.907 963.065,-801.273"/>
<polygon fill="black" stroke="black" points="964.505,-798.078 954.011,-796.618 961.304,-804.303 964.505,-798.078"/>
<text text-anchor="middle" x="1031" y="-818.8" font-family="Times,serif" font-size="14.00">True</text>
</g>
<!-- Node0x8e3f710&#45;&gt;Node0x95bd960 -->
<g id="edge18" class="edge"><title>Node0x8e3f710&#45;&gt;Node0x95bd960</title>
<path fill="none" stroke="black" d="M301.096,-420.827C307.735,-426.302 313.856,-432.355 319,-439 332.821,-456.852 339.302,-481.857 342.337,-500.819"/>
<polygon fill="black" stroke="black" points="338.896,-501.486 343.725,-510.916 345.83,-500.533 338.896,-501.486"/>
</g>
<!-- Node0x8e3ee90 -->
<g id="node19" class="node"><title>Node0x8e3ee90</title>
<polygon fill="none" stroke="black" points="678,-248.5 678,-284.5 800,-284.5 800,-248.5 678,-248.5"/>
<text text-anchor="start" x="686" y="-262.8" font-family="Times,serif" font-size="14.00">if (v4 == v13):</text>
</g>
<!-- Node0x8e3ee30&#45;&gt;Node0x8e3ee90 -->
<g id="edge19" class="edge"><title>Node0x8e3ee30&#45;&gt;Node0x8e3ee90</title>
<path fill="none" stroke="black" d="M739,-337.481C739,-323.237 739,-307.584 739,-294.701"/>
<polygon fill="black" stroke="black" points="742.5,-294.622 739,-284.622 735.5,-294.622 742.5,-294.622"/>
</g>
<!-- Node0x8e3fcb0 -->
<g id="node20" class="node"><title>Node0x8e3fcb0</title>
<polygon fill="none" stroke="black" points="818,-637.5 818,-675.5 932,-675.5 932,-637.5 818,-637.5"/>
<text text-anchor="start" x="826" y="-660.3" font-family="Times,serif" font-size="14.00">if (v20 == 8):</text>
<text text-anchor="start" x="826" y="-645.3" font-family="Times,serif" font-size="14.00"> else:</text>
</g>
<!-- Node0x8e3fab0&#45;&gt;Node0x8e3fcb0 -->
<g id="edge20" class="edge"><title>Node0x8e3fab0&#45;&gt;Node0x8e3fcb0</title>
<path fill="none" stroke="black" d="M875,-713.355C875,-704.083 875,-694.427 875,-685.803"/>
<polygon fill="black" stroke="black" points="878.5,-685.538 875,-675.538 871.5,-685.538 878.5,-685.538"/>
</g>
<!-- Node0x8e3f880 -->
<g id="node21" class="node"><title>Node0x8e3f880</title>
<polygon fill="none" stroke="black" points="686,-97.5 686,-195.5 786,-195.5 786,-97.5 686,-97.5"/>
<text text-anchor="start" x="694" y="-180.3" font-family="Times,serif" font-size="14.00">0x806e7a9:</text>
<text text-anchor="start" x="694" y="-165.3" font-family="Times,serif" font-size="14.00"> g1 = 0</text>
<text text-anchor="start" x="694" y="-150.3" font-family="Times,serif" font-size="14.00"> g3 = v3</text>
<text text-anchor="start" x="694" y="-135.3" font-family="Times,serif" font-size="14.00"> g7 = v2</text>
<text text-anchor="start" x="694" y="-120.3" font-family="Times,serif" font-size="14.00"> g5 = v1</text>
<text text-anchor="start" x="694" y="-105.3" font-family="Times,serif" font-size="14.00"> return</text>
</g>
<!-- Node0x8e3ee90&#45;&gt;Node0x8e3f880 -->
<g id="edge21" class="edge"><title>Node0x8e3ee90&#45;&gt;Node0x8e3f880</title>
<path fill="none" stroke="black" d="M738.564,-248.342C738.274,-236.964 737.876,-221.308 737.48,-205.724"/>
<polygon fill="black" stroke="black" points="740.974,-205.447 737.221,-195.54 733.977,-205.625 740.974,-205.447"/>
<text text-anchor="middle" x="777.5" y="-217.8" font-family="Times,serif" font-size="14.00">v4 == v13</text>
</g>
<!-- Node0x8e3ef50 -->
<g id="node22" class="node"><title>Node0x8e3ef50</title>
<polygon fill="none" stroke="black" points="804.5,-127.5 804.5,-165.5 905.5,-165.5 905.5,-127.5 804.5,-127.5"/>
<text text-anchor="start" x="812.5" y="-150.3" font-family="Times,serif" font-size="14.00">0x806e797:</text>
<text text-anchor="start" x="812.5" y="-135.3" font-family="Times,serif" font-size="14.00"> v8 = v13</text>
</g>
<!-- Node0x8e3ee90&#45;&gt;Node0x8e3ef50 -->
<g id="edge22" class="edge"><title>Node0x8e3ee90&#45;&gt;Node0x8e3ef50</title>
<path fill="none" stroke="black" d="M792.321,-248.315C802.405,-243.275 812.217,-236.922 820,-229 834.388,-214.354 843.283,-192.857 848.504,-175.618"/>
<polygon fill="black" stroke="black" points="852,-176.105 851.296,-165.534 845.254,-174.237 852,-176.105"/>
<text text-anchor="middle" x="866.5" y="-217.8" font-family="Times,serif" font-size="14.00">v4 != v13</text>
</g>
<!-- Node0x8e3fed0 -->
<g id="node23" class="node"><title>Node0x8e3fed0</title>
<polygon fill="none" stroke="black" points="477.5,-472.5 477.5,-585.5 1040.5,-585.5 1040.5,-472.5 477.5,-472.5"/>
<text text-anchor="start" x="485.5" y="-570.3" font-family="Times,serif" font-size="14.00">0x806e7ea:</text>
<text text-anchor="start" x="485.5" y="-555.3" font-family="Times,serif" font-size="14.00"> g5 = (g5 + 8)</text>
<text text-anchor="start" x="485.5" y="-540.3" font-family="Times,serif" font-size="14.00"> v21 = IntToPtrCastExpr&lt;ptr&gt;(g7)</text>
<text text-anchor="start" x="485.5" y="-525.3" font-family="Times,serif" font-size="14.00"> mbedtls_blowfish_crypt_ecb(IntToPtrCastExpr&lt;ptr&gt;(a1), a2, v21, v21)</text>
<text text-anchor="start" x="485.5" y="-510.3" font-family="Times,serif" font-size="14.00"> *(IntToPtrCastExpr&lt;ptr&gt;(g3)) = *(IntToPtrCastExpr&lt;ptr&gt;(g7))</text>
<text text-anchor="start" x="485.5" y="-495.3" font-family="Times,serif" font-size="14.00"> *(IntToPtrCastExpr&lt;ptr&gt;((g3 + 4))) = *(IntToPtrCastExpr&lt;ptr&gt;((g7 + 4)))</text>
<text text-anchor="start" x="485.5" y="-480.3" font-family="Times,serif" font-size="14.00"> v22 = g5</text>
</g>
<!-- Node0x8e3fcb0&#45;&gt;Node0x8e3fed0 -->
<g id="edge23" class="edge"><title>Node0x8e3fcb0&#45;&gt;Node0x8e3fed0</title>
<path fill="none" stroke="black" d="M858.133,-637.251C847.18,-625.402 832.195,-609.19 817.193,-592.959"/>
<polygon fill="black" stroke="black" points="819.672,-590.484 810.314,-585.516 814.531,-595.236 819.672,-590.484"/>
<text text-anchor="middle" x="875.5" y="-607.8" font-family="Times,serif" font-size="14.00">v20 == 8</text>
</g>
<!-- Node0x1ec11a10 -->
<g id="node24" class="node"><title>Node0x1ec11a10</title>
<polygon fill="none" stroke="black" points="1058.5,-495 1058.5,-563 1159.5,-563 1159.5,-495 1058.5,-495"/>
<text text-anchor="start" x="1066.5" y="-547.8" font-family="Times,serif" font-size="14.00">0x806e7d8:</text>
<text text-anchor="start" x="1066.5" y="-532.8" font-family="Times,serif" font-size="14.00"> v16 = g7</text>
<text text-anchor="start" x="1066.5" y="-517.8" font-family="Times,serif" font-size="14.00"> v17 = v20</text>
<text text-anchor="start" x="1066.5" y="-502.8" font-family="Times,serif" font-size="14.00"> continue</text>
</g>
<!-- Node0x8e3fcb0&#45;&gt;Node0x1ec11a10 -->
<g id="edge24" class="edge"><title>Node0x8e3fcb0&#45;&gt;Node0x1ec11a10</title>
<path fill="none" stroke="black" d="M932.006,-638.706C967.275,-626.9 1012.61,-609.094 1049,-586 1056.26,-581.391 1063.44,-575.841 1070.16,-570.05"/>
<polygon fill="black" stroke="black" points="1072.71,-572.463 1077.83,-563.184 1068.04,-567.25 1072.71,-572.463"/>
<text text-anchor="middle" x="1045.5" y="-607.8" font-family="Times,serif" font-size="14.00">v20 != 8</text>
</g>
<!-- Node0x8e3f880&#45;&gt;Node0x8e3deb0 -->
<g id="edge25" class="edge"><title>Node0x8e3f880&#45;&gt;Node0x8e3deb0</title>
<path fill="none" stroke="black" d="M786.313,-102.971C789.208,-100.893 792.115,-98.8881 795,-97 817.387,-82.3467 844.221,-68.6878 865.416,-58.7092"/>
<polygon fill="black" stroke="black" points="867.122,-61.776 874.721,-54.3931 864.176,-55.4259 867.122,-61.776"/>
</g>
<!-- Node0x8e3ef50&#45;&gt;Node0x8e3deb0 -->
<g id="edge26" class="edge"><title>Node0x8e3ef50&#45;&gt;Node0x8e3deb0</title>
<path fill="none" stroke="black" d="M863.403,-127.086C870.789,-110.9 881.625,-87.1518 889.937,-68.9364"/>
<polygon fill="black" stroke="black" points="893.172,-70.2778 894.139,-59.7272 886.803,-67.3718 893.172,-70.2778"/>
</g>
<!-- Node0x8e3fff0 -->
<g id="node25" class="node"><title>Node0x8e3fff0</title>
<polygon fill="none" stroke="black" points="1038,-361 1038,-397 1160,-397 1160,-361 1038,-361"/>
<text text-anchor="start" x="1046" y="-375.3" font-family="Times,serif" font-size="14.00">if (v4 == v22):</text>
</g>
<!-- Node0x8e3fed0&#45;&gt;Node0x8e3fff0 -->
<g id="edge27" class="edge"><title>Node0x8e3fed0&#45;&gt;Node0x8e3fff0</title>
<path fill="none" stroke="black" d="M911.073,-472.433C950.025,-456.926 991.495,-439.283 1029,-421 1040.37,-415.455 1052.39,-408.753 1063.19,-402.388"/>
<polygon fill="black" stroke="black" points="1065.15,-405.291 1071.94,-397.153 1061.56,-399.285 1065.15,-405.291"/>
</g>
<!-- Node0x1ec11a10&#45;&gt;Node0x8e3eb10 -->
<g id="edge28" class="edge"><title>Node0x1ec11a10&#45;&gt;Node0x8e3eb10</title>
<path fill="none" stroke="black" d="M1106.92,-563.216C1102.77,-629.579 1093.51,-777.41 1089.7,-838.393"/>
<polygon fill="black" stroke="black" points="1086.2,-838.202 1089.07,-848.401 1093.19,-838.639 1086.2,-838.202"/>
</g>
<!-- Node0x1ec11b80 -->
<g id="node26" class="node"><title>Node0x1ec11b80</title>
<polygon fill="none" stroke="black" points="821.5,-247.5 821.5,-285.5 1060.5,-285.5 1060.5,-247.5 821.5,-247.5"/>
<text text-anchor="start" x="829.5" y="-270.3" font-family="Times,serif" font-size="14.00">break (via goto) &#45;&gt; 0x806e816:</text>
<text text-anchor="start" x="829.5" y="-255.3" font-family="Times,serif" font-size="14.00"> goto 0x806e816</text>
</g>
<!-- Node0x8e3fff0&#45;&gt;Node0x1ec11b80 -->
<g id="edge29" class="edge"><title>Node0x8e3fff0&#45;&gt;Node0x1ec11b80</title>
<path fill="none" stroke="black" d="M1074.66,-360.977C1048.11,-342.408 1005.4,-312.54 975.424,-291.575"/>
<polygon fill="black" stroke="black" points="977.147,-288.509 966.946,-285.646 973.135,-294.245 977.147,-288.509"/>
<text text-anchor="middle" x="1049.5" y="-307.8" font-family="Times,serif" font-size="14.00">v4 == v22</text>
</g>
<!-- Node0x8e40200 -->
<g id="node27" class="node"><title>Node0x8e40200</title>
<polygon fill="none" stroke="black" points="1079,-247.5 1079,-285.5 1215,-285.5 1215,-247.5 1079,-247.5"/>
<text text-anchor="start" x="1087" y="-270.3" font-family="Times,serif" font-size="14.00">v14 = v22</text>
<text text-anchor="start" x="1087" y="-255.3" font-family="Times,serif" font-size="14.00"> goto 0x806e7c8</text>
</g>
<!-- Node0x8e3fff0&#45;&gt;Node0x8e40200 -->
<g id="edge30" class="edge"><title>Node0x8e3fff0&#45;&gt;Node0x8e40200</title>
<path fill="none" stroke="black" d="M1096.19,-360.852C1094.46,-345.185 1094.04,-321.815 1103,-304 1104.96,-300.11 1107.54,-296.481 1110.47,-293.138"/>
<polygon fill="black" stroke="black" points="1113.17,-295.391 1117.81,-285.869 1108.24,-290.415 1113.17,-295.391"/>
<text text-anchor="middle" x="1138.5" y="-307.8" font-family="Times,serif" font-size="14.00">v4 != v22</text>
</g>
<!-- Node0x8e3eba0 -->
<g id="node28" class="node"><title>Node0x8e3eba0</title>
<polygon fill="none" stroke="black" points="923.5,-97.5 923.5,-195.5 1024.5,-195.5 1024.5,-97.5 923.5,-97.5"/>
<text text-anchor="start" x="931.5" y="-180.3" font-family="Times,serif" font-size="14.00">0x806e816:</text>
<text text-anchor="start" x="931.5" y="-165.3" font-family="Times,serif" font-size="14.00"> g1 = 0</text>
<text text-anchor="start" x="931.5" y="-150.3" font-family="Times,serif" font-size="14.00"> g3 = v3</text>
<text text-anchor="start" x="931.5" y="-135.3" font-family="Times,serif" font-size="14.00"> g7 = v2</text>
<text text-anchor="start" x="931.5" y="-120.3" font-family="Times,serif" font-size="14.00"> g5 = v1</text>
<text text-anchor="start" x="931.5" y="-105.3" font-family="Times,serif" font-size="14.00"> return</text>
</g>
<!-- Node0x1ec11b80&#45;&gt;Node0x8e3eba0 -->
<g id="edge31" class="edge"><title>Node0x1ec11b80&#45;&gt;Node0x8e3eba0</title>
<path fill="none" stroke="black" d="M946.084,-247.321C949.258,-235.972 953.537,-220.671 957.79,-205.462"/>
<polygon fill="black" stroke="black" points="961.247,-206.096 960.57,-195.523 954.506,-204.211 961.247,-206.096"/>
</g>
<!-- Node0x8e40200&#45;&gt;Node0x8e3e000 -->
<g id="edge32" class="edge"><title>Node0x8e40200&#45;&gt;Node0x8e3e000</title>
<path fill="none" stroke="black" d="M1163.03,-285.814C1167.16,-291.345 1171.22,-297.644 1174,-304 1187.4,-334.672 1188,-344.528 1188,-378 1188,-1130.5 1188,-1130.5 1188,-1130.5 1188,-1177.22 1151.33,-1219.92 1123.56,-1245.57"/>
<polygon fill="black" stroke="black" points="1121.11,-1243.06 1116,-1252.34 1125.78,-1248.28 1121.11,-1243.06"/>
</g>
<!-- Node0x8e3eba0&#45;&gt;Node0x8e3deb0 -->
<g id="edge33" class="edge"><title>Node0x8e3eba0&#45;&gt;Node0x8e3deb0</title>
<path fill="none" stroke="black" d="M940.319,-97.3173C933.292,-87.2647 926.146,-77.0429 919.96,-68.1924"/>
<polygon fill="black" stroke="black" points="922.73,-66.0469 914.132,-59.8561 916.993,-70.0574 922.73,-66.0469"/>
</g>
</g>
</svg>
