<?xml version="1.0" encoding="UTF-8" standalone="no"?>
<!DOCTYPE svg PUBLIC "-//W3C//DTD SVG 1.1//EN"
 "http://www.w3.org/Graphics/SVG/1.1/DTD/svg11.dtd">
<!-- Generated by graphviz version 2.38.0 (20140413.2041)
 -->
<!-- Title: Control&#45;flow graph for function &#39;add_pkcs_padding(a1, a2, a3)&#39;. Pages: 1 -->
<svg width="801pt" height="979pt"
 viewBox="0.00 0.00 800.50 979.00" xmlns="http://www.w3.org/2000/svg" xmlns:xlink="http://www.w3.org/1999/xlink">
<g id="graph0" class="graph" transform="scale(1 1) rotate(0) translate(4 975)">
<title>Control&#45;flow graph for function &#39;add_pkcs_padding(a1, a2, a3)&#39;.</title>
<polygon fill="white" stroke="none" points="-4,4 -4,-975 796.5,-975 796.5,4 -4,4"/>
<text text-anchor="middle" x="396.25" y="-7.8" font-family="Times,serif" font-size="14.00">Control&#45;flow graph for function &#39;add_pkcs_padding(a1, a2, a3)&#39;.</text>
<!-- Node0x107ba2a0 -->
<g id="node1" class="node"><title>Node0x107ba2a0</title>
<polygon fill="none" stroke="black" points="118,-902.5 118,-970.5 177,-970.5 177,-902.5 118,-902.5"/>
<text text-anchor="start" x="126" y="-955.3" font-family="Times,serif" font-size="14.00">entry:</text>
<text text-anchor="start" x="126" y="-940.3" font-family="Times,serif" font-size="14.00"> a1</text>
<text text-anchor="start" x="126" y="-925.3" font-family="Times,serif" font-size="14.00"> a2</text>
<text text-anchor="start" x="126" y="-910.3" font-family="Times,serif" font-size="14.00"> a3</text>
</g>
<!-- Node0xc758b00 -->
<g id="node2" class="node"><title>Node0xc758b00</title>
<polygon fill="none" stroke="black" points="91,-811.5 91,-864.5 204,-864.5 204,-811.5 91,-811.5"/>
<text text-anchor="start" x="99" y="-849.3" font-family="Times,serif" font-size="14.00">v1 = (a2 &#45; a3)</text>
<text text-anchor="start" x="99" y="-834.3" font-family="Times,serif" font-size="14.00"> result2</text>
<text text-anchor="start" x="99" y="-819.3" font-family="Times,serif" font-size="14.00"> v2</text>
</g>
<!-- Node0x107ba2a0&#45;&gt;Node0xc758b00 -->
<g id="edge1" class="edge"><title>Node0x107ba2a0&#45;&gt;Node0xc758b00</title>
<path fill="none" stroke="black" d="M147.5,-902.29C147.5,-893.434 147.5,-883.827 147.5,-874.837"/>
<polygon fill="black" stroke="black" points="151,-874.648 147.5,-864.648 144,-874.648 151,-874.648"/>
</g>
<!-- Node0x20102fd0 -->
<g id="node3" class="node"><title>Node0x20102fd0</title>
<polygon fill="none" stroke="black" points="91,-735.5 91,-773.5 204,-773.5 204,-735.5 91,-735.5"/>
<text text-anchor="start" x="99" y="-758.3" font-family="Times,serif" font-size="14.00">if (a2 == a3):</text>
<text text-anchor="start" x="99" y="-743.3" font-family="Times,serif" font-size="14.00"> else:</text>
</g>
<!-- Node0xc758b00&#45;&gt;Node0x20102fd0 -->
<g id="edge2" class="edge"><title>Node0xc758b00&#45;&gt;Node0x20102fd0</title>
<path fill="none" stroke="black" d="M147.5,-811.213C147.5,-802.526 147.5,-792.787 147.5,-783.91"/>
<polygon fill="black" stroke="black" points="151,-783.638 147.5,-773.638 144,-783.638 151,-783.638"/>
</g>
<!-- Node0x20101cc0 -->
<g id="node4" class="node"><title>Node0x20101cc0</title>
<polygon fill="none" stroke="black" points="0,-528.5 0,-566.5 111,-566.5 111,-528.5 0,-528.5"/>
<text text-anchor="start" x="8" y="-551.3" font-family="Times,serif" font-size="14.00">0x80696e0:</text>
<text text-anchor="start" x="8" y="-536.3" font-family="Times,serif" font-size="14.00"> result2 = g1</text>
</g>
<!-- Node0x20102fd0&#45;&gt;Node0x20101cc0 -->
<g id="edge3" class="edge"><title>Node0x20102fd0&#45;&gt;Node0x20101cc0</title>
<path fill="none" stroke="black" d="M120.866,-735.402C104.715,-722.921 85.2162,-704.856 74.5,-684 57.0764,-650.089 54.0319,-605.44 54.1852,-576.846"/>
<polygon fill="black" stroke="black" points="57.6867,-576.793 54.3772,-566.728 50.688,-576.66 57.6867,-576.793"/>
<text text-anchor="middle" x="133.5" y="-705.8" font-family="Times,serif" font-size="14.00">a2 == a3</text>
</g>
<!-- Node0x107b9620 -->
<g id="node5" class="node"><title>Node0x107b9620</title>
<polygon fill="none" stroke="black" points="83.5,-585.5 83.5,-683.5 583.5,-683.5 583.5,-585.5 83.5,-585.5"/>
<text text-anchor="start" x="91.5" y="-668.3" font-family="Times,serif" font-size="14.00">0x80696f9:</text>
<text text-anchor="start" x="91.5" y="-653.3" font-family="Times,serif" font-size="14.00"> g1 = 1</text>
<text text-anchor="start" x="91.5" y="-638.3" font-family="Times,serif" font-size="14.00"> *(IntToPtrCastExpr&lt;ptr&gt;((a3 + a1))) = TruncCastExpr&lt;int8&gt;(v1)</text>
<text text-anchor="start" x="91.5" y="-623.3" font-family="Times,serif" font-size="14.00"> v3 = g1</text>
<text text-anchor="start" x="91.5" y="-608.3" font-family="Times,serif" font-size="14.00"> v4 = (v3 % 256)</text>
<text text-anchor="start" x="91.5" y="-593.3" font-family="Times,serif" font-size="14.00"> g6 = v4</text>
</g>
<!-- Node0x20102fd0&#45;&gt;Node0x107b9620 -->
<g id="edge4" class="edge"><title>Node0x20102fd0&#45;&gt;Node0x107b9620</title>
<path fill="none" stroke="black" d="M176.155,-735.321C195.833,-722.837 223.049,-705.571 249.318,-688.906"/>
<polygon fill="black" stroke="black" points="251.234,-691.836 257.803,-683.523 247.484,-685.925 251.234,-691.836"/>
<text text-anchor="middle" x="255.5" y="-705.8" font-family="Times,serif" font-size="14.00">a2 != a3</text>
</g>
<!-- Node0x201010e0 -->
<g id="node6" class="node"><title>Node0x201010e0</title>
<polygon fill="none" stroke="black" points="23.5,-247.5 23.5,-300.5 145.5,-300.5 145.5,-247.5 23.5,-247.5"/>
<text text-anchor="start" x="31.5" y="-285.3" font-family="Times,serif" font-size="14.00">0x8069713:</text>
<text text-anchor="start" x="31.5" y="-270.3" font-family="Times,serif" font-size="14.00"> g2 = v2</text>
<text text-anchor="start" x="31.5" y="-255.3" font-family="Times,serif" font-size="14.00"> return result2</text>
</g>
<!-- Node0x20101cc0&#45;&gt;Node0x201010e0 -->
<g id="edge5" class="edge"><title>Node0x20101cc0&#45;&gt;Node0x201010e0</title>
<path fill="none" stroke="black" d="M56.7471,-528.328C59.3262,-492.061 65.7458,-408.153 74.5,-338 75.6039,-329.154 77.0024,-319.641 78.401,-310.757"/>
<polygon fill="black" stroke="black" points="81.8872,-311.123 80.0253,-300.693 74.9766,-310.007 81.8872,-311.123"/>
</g>
<!-- Node0x20104830 -->
<g id="node7" class="node"><title>Node0x20104830</title>
<polygon fill="none" stroke="black" points="283,-473.5 283,-509.5 384,-509.5 384,-473.5 283,-473.5"/>
<text text-anchor="start" x="291" y="-487.8" font-family="Times,serif" font-size="14.00">if (v1 &gt; v4):</text>
</g>
<!-- Node0x107b9620&#45;&gt;Node0x20104830 -->
<g id="edge6" class="edge"><title>Node0x107b9620&#45;&gt;Node0x20104830</title>
<path fill="none" stroke="black" d="M333.5,-585.37C333.5,-563.496 333.5,-538.416 333.5,-519.838"/>
<polygon fill="black" stroke="black" points="337,-519.723 333.5,-509.723 330,-519.723 337,-519.723"/>
</g>
<!-- Node0x201053a0 -->
<g id="node8" class="node"><title>Node0x201053a0</title>
<polygon fill="none" stroke="black" points="84.5,-23.5 84.5,-59.5 138.5,-59.5 138.5,-23.5 84.5,-23.5"/>
<text text-anchor="start" x="92.5" y="-37.8" font-family="Times,serif" font-size="14.00">exit:</text>
</g>
<!-- Node0x201010e0&#45;&gt;Node0x201053a0 -->
<g id="edge7" class="edge"><title>Node0x201010e0&#45;&gt;Node0x201053a0</title>
<path fill="none" stroke="black" d="M86.9625,-247.314C90.3226,-213.007 96.707,-150.352 103.5,-97 104.634,-88.0974 106.011,-78.3981 107.301,-69.6826"/>
<polygon fill="black" stroke="black" points="110.783,-70.0687 108.81,-59.6591 103.86,-69.0269 110.783,-70.0687"/>
</g>
<!-- Node0x20104e30 -->
<g id="node9" class="node"><title>Node0x20104e30</title>
<polygon fill="none" stroke="black" points="211.5,-338.5 211.5,-421.5 759.5,-421.5 759.5,-338.5 211.5,-338.5"/>
<text text-anchor="start" x="219.5" y="-406.3" font-family="Times,serif" font-size="14.00">g1 = (v3 + 1)</text>
<text text-anchor="start" x="219.5" y="-391.3" font-family="Times,serif" font-size="14.00"> *(IntToPtrCastExpr&lt;ptr&gt;(((v4 + a3) + a1))) = TruncCastExpr&lt;int8&gt;(v1)</text>
<text text-anchor="start" x="219.5" y="-376.3" font-family="Times,serif" font-size="14.00"> result = g1</text>
<text text-anchor="start" x="219.5" y="-361.3" font-family="Times,serif" font-size="14.00"> v5 = (result % 256)</text>
<text text-anchor="start" x="219.5" y="-346.3" font-family="Times,serif" font-size="14.00"> g6 = v5</text>
</g>
<!-- Node0x20104830&#45;&gt;Node0x20104e30 -->
<g id="edge8" class="edge"><title>Node0x20104830&#45;&gt;Node0x20104e30</title>
<path fill="none" stroke="black" d="M357.25,-473.391C374.354,-461.069 398.3,-443.818 420.876,-427.554"/>
<polygon fill="black" stroke="black" points="423.049,-430.303 429.117,-421.618 418.957,-424.624 423.049,-430.303"/>
<text text-anchor="middle" x="427.5" y="-443.8" font-family="Times,serif" font-size="14.00">v1 &gt; v4</text>
</g>
<!-- Node0x20104dd0 -->
<g id="node10" class="node"><title>Node0x20104dd0</title>
<polygon fill="none" stroke="black" points="83.5,-361 83.5,-399 193.5,-399 193.5,-361 83.5,-361"/>
<text text-anchor="start" x="91.5" y="-383.8" font-family="Times,serif" font-size="14.00">0x8069713:</text>
<text text-anchor="start" x="91.5" y="-368.8" font-family="Times,serif" font-size="14.00"> result2 = v3</text>
</g>
<!-- Node0x20104830&#45;&gt;Node0x20104dd0 -->
<g id="edge9" class="edge"><title>Node0x20104830&#45;&gt;Node0x20104dd0</title>
<path fill="none" stroke="black" d="M298.85,-473.428C272.179,-460.038 234.576,-440.613 202.5,-422 193.159,-416.58 183.249,-410.435 174.089,-404.582"/>
<polygon fill="black" stroke="black" points="175.88,-401.573 165.579,-399.094 172.086,-407.455 175.88,-401.573"/>
<text text-anchor="middle" x="293.5" y="-443.8" font-family="Times,serif" font-size="14.00">v1 &lt;= v4</text>
</g>
<!-- Node0x107b9880 -->
<g id="node11" class="node"><title>Node0x107b9880</title>
<polygon fill="none" stroke="black" points="420.5,-256 420.5,-292 550.5,-292 550.5,-256 420.5,-256"/>
<text text-anchor="start" x="428.5" y="-270.3" font-family="Times,serif" font-size="14.00">while (v1 &gt; v5):</text>
</g>
<!-- Node0x20104e30&#45;&gt;Node0x107b9880 -->
<g id="edge10" class="edge"><title>Node0x20104e30&#45;&gt;Node0x107b9880</title>
<path fill="none" stroke="black" d="M485.5,-338.493C485.5,-326.43 485.5,-313.499 485.5,-302.475"/>
<polygon fill="black" stroke="black" points="489,-302.19 485.5,-292.19 482,-302.19 489,-302.19"/>
</g>
<!-- Node0x20104dd0&#45;&gt;Node0x201010e0 -->
<g id="edge11" class="edge"><title>Node0x20104dd0&#45;&gt;Node0x201010e0</title>
<path fill="none" stroke="black" d="M129.094,-360.885C121.802,-346.841 111.478,-326.957 102.599,-309.858"/>
<polygon fill="black" stroke="black" points="105.558,-307.962 97.844,-300.7 99.346,-311.187 105.558,-307.962"/>
</g>
<!-- Node0x20104550 -->
<g id="node12" class="node"><title>Node0x20104550</title>
<polygon fill="none" stroke="black" points="244.5,-97.5 244.5,-195.5 792.5,-195.5 792.5,-97.5 244.5,-97.5"/>
<text text-anchor="start" x="252.5" y="-180.3" font-family="Times,serif" font-size="14.00">0x8069700:</text>
<text text-anchor="start" x="252.5" y="-165.3" font-family="Times,serif" font-size="14.00"> g1 = (result + 1)</text>
<text text-anchor="start" x="252.5" y="-150.3" font-family="Times,serif" font-size="14.00"> *(IntToPtrCastExpr&lt;ptr&gt;(((v5 + a3) + a1))) = TruncCastExpr&lt;int8&gt;(v1)</text>
<text text-anchor="start" x="252.5" y="-135.3" font-family="Times,serif" font-size="14.00"> result = g1</text>
<text text-anchor="start" x="252.5" y="-120.3" font-family="Times,serif" font-size="14.00"> v5 = (result % 256)</text>
<text text-anchor="start" x="252.5" y="-105.3" font-family="Times,serif" font-size="14.00"> g6 = v5</text>
</g>
<!-- Node0x107b9880&#45;&gt;Node0x20104550 -->
<g id="edge12" class="edge"><title>Node0x107b9880&#45;&gt;Node0x20104550</title>
<path fill="none" stroke="black" d="M490.019,-255.813C493.476,-242.668 498.454,-223.736 503.285,-205.365"/>
<polygon fill="black" stroke="black" points="506.707,-206.113 505.865,-195.551 499.937,-204.332 506.707,-206.113"/>
<text text-anchor="middle" x="528.5" y="-217.8" font-family="Times,serif" font-size="14.00">v1 &gt; v5</text>
</g>
<!-- Node0x107b9900 -->
<g id="node13" class="node"><title>Node0x107b9900</title>
<polygon fill="none" stroke="black" points="113,-120 113,-173 226,-173 226,-120 113,-120"/>
<text text-anchor="start" x="121" y="-157.8" font-family="Times,serif" font-size="14.00">0x8069713:</text>
<text text-anchor="start" x="121" y="-142.8" font-family="Times,serif" font-size="14.00"> g2 = v2</text>
<text text-anchor="start" x="121" y="-127.8" font-family="Times,serif" font-size="14.00"> return result</text>
</g>
<!-- Node0x107b9880&#45;&gt;Node0x107b9900 -->
<g id="edge13" class="edge"><title>Node0x107b9880&#45;&gt;Node0x107b9900</title>
<path fill="none" stroke="black" d="M420.296,-259.268C368.463,-246.874 295.032,-225.961 235.5,-196 226.163,-191.301 216.747,-185.302 208.066,-179.137"/>
<polygon fill="black" stroke="black" points="210.128,-176.308 199.996,-173.212 205.985,-181.951 210.128,-176.308"/>
<text text-anchor="middle" x="348.5" y="-217.8" font-family="Times,serif" font-size="14.00">v1 &lt;= v5</text>
</g>
<!-- Node0x20104550&#45;&gt;Node0x107b9880 -->
<g id="edge14" class="edge"><title>Node0x20104550&#45;&gt;Node0x107b9880</title>
<path fill="none" stroke="black" d="M504.441,-195.736C502.734,-201.872 501.048,-208.075 499.5,-214 496.774,-224.432 493.988,-235.961 491.627,-246.039"/>
<polygon fill="black" stroke="black" points="488.187,-245.377 489.34,-255.909 495.007,-246.957 488.187,-245.377"/>
</g>
<!-- Node0x107b9900&#45;&gt;Node0x201053a0 -->
<g id="edge15" class="edge"><title>Node0x107b9900&#45;&gt;Node0x201053a0</title>
<path fill="none" stroke="black" d="M155.014,-119.774C146.233,-104.182 135.061,-84.3415 126.236,-68.6691"/>
<polygon fill="black" stroke="black" points="129.043,-66.5208 121.087,-59.5246 122.944,-69.9554 129.043,-66.5208"/>
</g>
</g>
</svg>
