<?xml version="1.0" encoding="UTF-8" standalone="no"?>
<!DOCTYPE svg PUBLIC "-//W3C//DTD SVG 1.1//EN"
 "http://www.w3.org/Graphics/SVG/1.1/DTD/svg11.dtd">
<!-- Generated by graphviz version 2.38.0 (20140413.2041)
 -->
<!-- Title: Control&#45;flow graph for function &#39;mbedtls_mpi_div_mpi(*a1, *a2, *a3, *a4)&#39;. Pages: 1 -->
<svg width="1560pt" height="2710pt"
 viewBox="0.00 0.00 1559.50 2710.00" xmlns="http://www.w3.org/2000/svg" xmlns:xlink="http://www.w3.org/1999/xlink">
<g id="graph0" class="graph" transform="scale(1 1) rotate(0) translate(4 2706)">
<title>Control&#45;flow graph for function &#39;mbedtls_mpi_div_mpi(*a1, *a2, *a3, *a4)&#39;.</title>
<polygon fill="white" stroke="none" points="-4,4 -4,-2706 1555.5,-2706 1555.5,4 -4,4"/>
<text text-anchor="middle" x="775.75" y="-7.8" font-family="Times,serif" font-size="14.00">Control&#45;flow graph for function &#39;mbedtls_mpi_div_mpi(*a1, *a2, *a3, *a4)&#39;.</text>
<!-- Node0xca82e50 -->
<g id="node1" class="node"><title>Node0xca82e50</title>
<polygon fill="none" stroke="black" points="174,-2618.5 174,-2701.5 233,-2701.5 233,-2618.5 174,-2618.5"/>
<text text-anchor="start" x="182" y="-2686.3" font-family="Times,serif" font-size="14.00">entry:</text>
<text text-anchor="start" x="182" y="-2671.3" font-family="Times,serif" font-size="14.00"> a1</text>
<text text-anchor="start" x="182" y="-2656.3" font-family="Times,serif" font-size="14.00"> a2</text>
<text text-anchor="start" x="182" y="-2641.3" font-family="Times,serif" font-size="14.00"> a3</text>
<text text-anchor="start" x="182" y="-2626.3" font-family="Times,serif" font-size="14.00"> a4</text>
</g>
<!-- Node0x8460130 -->
<g id="node2" class="node"><title>Node0x8460130</title>
<polygon fill="none" stroke="black" points="65,-2437.5 65,-2580.5 342,-2580.5 342,-2437.5 65,-2437.5"/>
<text text-anchor="start" x="73" y="-2565.3" font-family="Times,serif" font-size="14.00">v1 = PtrToIntCastExpr&lt;int32&gt;(a1)</text>
<text text-anchor="start" x="73" y="-2550.3" font-family="Times,serif" font-size="14.00"> v2 = PtrToIntCastExpr&lt;int32&gt;(a4)</text>
<text text-anchor="start" x="73" y="-2535.3" font-family="Times,serif" font-size="14.00"> v3 = g3</text>
<text text-anchor="start" x="73" y="-2520.3" font-family="Times,serif" font-size="14.00"> g3 = v2</text>
<text text-anchor="start" x="73" y="-2505.3" font-family="Times,serif" font-size="14.00"> v4 = g5</text>
<text text-anchor="start" x="73" y="-2490.3" font-family="Times,serif" font-size="14.00"> g5 = PtrToIntCastExpr&lt;int32&gt;(a3)</text>
<text text-anchor="start" x="73" y="-2475.3" font-family="Times,serif" font-size="14.00"> v5 = g7</text>
<text text-anchor="start" x="73" y="-2460.3" font-family="Times,serif" font-size="14.00"> v6 = mbedtls_mpi_cmp_int(v2, 0)</text>
<text text-anchor="start" x="73" y="-2445.3" font-family="Times,serif" font-size="14.00"> g6 = &#45;12</text>
</g>
<!-- Node0xca82e50&#45;&gt;Node0x8460130 -->
<g id="edge1" class="edge"><title>Node0xca82e50&#45;&gt;Node0x8460130</title>
<path fill="none" stroke="black" d="M203.5,-2618.29C203.5,-2609.74 203.5,-2600.45 203.5,-2591.01"/>
<polygon fill="black" stroke="black" points="207,-2590.75 203.5,-2580.75 200,-2590.75 207,-2590.75"/>
</g>
<!-- Node0xef37810 -->
<g id="node3" class="node"><title>Node0xef37810</title>
<polygon fill="none" stroke="black" points="151,-2363.5 151,-2399.5 256,-2399.5 256,-2363.5 151,-2363.5"/>
<text text-anchor="start" x="159" y="-2377.8" font-family="Times,serif" font-size="14.00">if (v6 == 0):</text>
</g>
<!-- Node0x8460130&#45;&gt;Node0xef37810 -->
<g id="edge2" class="edge"><title>Node0x8460130&#45;&gt;Node0xef37810</title>
<path fill="none" stroke="black" d="M203.5,-2437.18C203.5,-2427.44 203.5,-2417.96 203.5,-2409.71"/>
<polygon fill="black" stroke="black" points="207,-2409.64 203.5,-2399.64 200,-2409.64 207,-2409.64"/>
</g>
<!-- Node0xef36410 -->
<g id="node4" class="node"><title>Node0xef36410</title>
<polygon fill="none" stroke="black" points="0,-2006.5 0,-2089.5 101,-2089.5 101,-2006.5 0,-2006.5"/>
<text text-anchor="start" x="8" y="-2074.3" font-family="Times,serif" font-size="14.00">0x8058521:</text>
<text text-anchor="start" x="8" y="-2059.3" font-family="Times,serif" font-size="14.00"> g3 = v3</text>
<text text-anchor="start" x="8" y="-2044.3" font-family="Times,serif" font-size="14.00"> g7 = v5</text>
<text text-anchor="start" x="8" y="-2029.3" font-family="Times,serif" font-size="14.00"> g5 = v4</text>
<text text-anchor="start" x="8" y="-2014.3" font-family="Times,serif" font-size="14.00"> return &#45;12</text>
</g>
<!-- Node0xef37810&#45;&gt;Node0xef36410 -->
<g id="edge3" class="edge"><title>Node0xef37810&#45;&gt;Node0xef36410</title>
<path fill="none" stroke="black" d="M190.879,-2363.21C187,-2357.54 182.869,-2351.13 179.5,-2345 133.83,-2261.94 92.2131,-2159.47 69.2186,-2099.47"/>
<polygon fill="black" stroke="black" points="72.3858,-2097.95 65.554,-2089.85 65.8447,-2100.44 72.3858,-2097.95"/>
<text text-anchor="middle" x="209.5" y="-2333.8" font-family="Times,serif" font-size="14.00">v6 == 0</text>
</g>
<!-- Node0x848f0d0 -->
<g id="node5" class="node"><title>Node0x848f0d0</title>
<polygon fill="none" stroke="black" points="245,-2108.5 245,-2311.5 532,-2311.5 532,-2108.5 245,-2108.5"/>
<text text-anchor="start" x="253" y="-2296.3" font-family="Times,serif" font-size="14.00">v7 = 1</text>
<text text-anchor="start" x="253" y="-2281.3" font-family="Times,serif" font-size="14.00"> v8 = 1</text>
<text text-anchor="start" x="253" y="-2266.3" font-family="Times,serif" font-size="14.00"> v9 = 1</text>
<text text-anchor="start" x="253" y="-2251.3" font-family="Times,serif" font-size="14.00"> v10 = 1</text>
<text text-anchor="start" x="253" y="-2236.3" font-family="Times,serif" font-size="14.00"> v11 = 1</text>
<text text-anchor="start" x="253" y="-2221.3" font-family="Times,serif" font-size="14.00"> v12 = mbedtls_mpi_cmp_abs(g5, g3)</text>
<text text-anchor="start" x="253" y="-2206.3" font-family="Times,serif" font-size="14.00"> g1 = v12</text>
<text text-anchor="start" x="253" y="-2191.3" font-family="Times,serif" font-size="14.00"> v13</text>
<text text-anchor="start" x="253" y="-2176.3" font-family="Times,serif" font-size="14.00"> v14</text>
<text text-anchor="start" x="253" y="-2161.3" font-family="Times,serif" font-size="14.00"> v15</text>
<text text-anchor="start" x="253" y="-2146.3" font-family="Times,serif" font-size="14.00"> v16</text>
<text text-anchor="start" x="253" y="-2131.3" font-family="Times,serif" font-size="14.00"> result</text>
<text text-anchor="start" x="253" y="-2116.3" font-family="Times,serif" font-size="14.00"> v17</text>
</g>
<!-- Node0xef37810&#45;&gt;Node0x848f0d0 -->
<g id="edge4" class="edge"><title>Node0xef37810&#45;&gt;Node0x848f0d0</title>
<path fill="none" stroke="black" d="M222.257,-2363.31C234.664,-2351.95 252.095,-2335.98 271.036,-2318.62"/>
<polygon fill="black" stroke="black" points="273.641,-2320.98 278.65,-2311.65 268.912,-2315.82 273.641,-2320.98"/>
<text text-anchor="middle" x="285.5" y="-2333.8" font-family="Times,serif" font-size="14.00">v6 != 0</text>
</g>
<!-- Node0x845edf0 -->
<g id="node6" class="node"><title>Node0x845edf0</title>
<polygon fill="none" stroke="black" points="201.5,-23.5 201.5,-59.5 255.5,-59.5 255.5,-23.5 201.5,-23.5"/>
<text text-anchor="start" x="209.5" y="-37.8" font-family="Times,serif" font-size="14.00">exit:</text>
</g>
<!-- Node0xef36410&#45;&gt;Node0x845edf0 -->
<g id="edge5" class="edge"><title>Node0xef36410&#45;&gt;Node0x845edf0</title>
<path fill="none" stroke="black" d="M47.0205,-2006.48C45.2637,-1982.63 43.5,-1951.87 43.5,-1924.5 43.5,-1924.5 43.5,-1924.5 43.5,-250.5 43.5,-172.3 73.9986,-152.089 129.5,-97 147.171,-79.4602 171.65,-65.9175 191.845,-56.7191"/>
<polygon fill="black" stroke="black" points="193.318,-59.8951 201.073,-52.6771 190.509,-53.4832 193.318,-59.8951"/>
</g>
<!-- Node0xef36590 -->
<g id="node7" class="node"><title>Node0xef36590</title>
<polygon fill="none" stroke="black" points="379.5,-1949.5 379.5,-1987.5 481.5,-1987.5 481.5,-1949.5 379.5,-1949.5"/>
<text text-anchor="start" x="387.5" y="-1972.3" font-family="Times,serif" font-size="14.00">if (v12 &lt; 0):</text>
<text text-anchor="start" x="387.5" y="-1957.3" font-family="Times,serif" font-size="14.00"> else:</text>
</g>
<!-- Node0x848f0d0&#45;&gt;Node0xef36590 -->
<g id="edge6" class="edge"><title>Node0x848f0d0&#45;&gt;Node0xef36590</title>
<path fill="none" stroke="black" d="M406.129,-2108.47C413.184,-2068.24 420.761,-2025.04 425.56,-1997.67"/>
<polygon fill="black" stroke="black" points="429.037,-1998.1 427.317,-1987.65 422.142,-1996.9 429.037,-1998.1"/>
</g>
<!-- Node0xef36490 -->
<g id="node8" class="node"><title>Node0xef36490</title>
<polygon fill="none" stroke="black" points="380,-1859.5 380,-1897.5 481,-1897.5 481,-1859.5 380,-1859.5"/>
<text text-anchor="start" x="388" y="-1882.3" font-family="Times,serif" font-size="14.00">0x8058660:</text>
<text text-anchor="start" x="388" y="-1867.3" font-family="Times,serif" font-size="14.00"> g7 = v1</text>
</g>
<!-- Node0xef36590&#45;&gt;Node0xef36490 -->
<g id="edge7" class="edge"><title>Node0xef36590&#45;&gt;Node0xef36490</title>
<path fill="none" stroke="black" d="M430.5,-1949.27C430.5,-1937.35 430.5,-1921.54 430.5,-1907.98"/>
<polygon fill="black" stroke="black" points="434,-1907.71 430.5,-1897.71 427,-1907.71 434,-1907.71"/>
<text text-anchor="middle" x="459" y="-1919.8" font-family="Times,serif" font-size="14.00">v12 &lt; 0</text>
</g>
<!-- Node0x7fcf020 -->
<g id="node9" class="node"><title>Node0x7fcf020</title>
<polygon fill="none" stroke="black" points="493.5,-1772.5 493.5,-1840.5 1101.5,-1840.5 1101.5,-1772.5 493.5,-1772.5"/>
<text text-anchor="start" x="501.5" y="-1825.3" font-family="Times,serif" font-size="14.00">0x80585ad:</text>
<text text-anchor="start" x="501.5" y="-1810.3" font-family="Times,serif" font-size="14.00"> g7 = &amp;(v7)</text>
<text text-anchor="start" x="501.5" y="-1795.3" font-family="Times,serif" font-size="14.00"> v18 = mbedtls_mpi_copy(BitCastExpr&lt;ptr&gt;(&amp;(v7)), IntToPtrCastExpr&lt;ptr&gt;(g5))</text>
<text text-anchor="start" x="501.5" y="-1780.3" font-family="Times,serif" font-size="14.00"> g1 = v18</text>
</g>
<!-- Node0xef36590&#45;&gt;Node0x7fcf020 -->
<g id="edge8" class="edge"><title>Node0xef36590&#45;&gt;Node0x7fcf020</title>
<path fill="none" stroke="black" d="M471.886,-1949.46C529.863,-1924.18 636.606,-1877.64 712.047,-1844.75"/>
<polygon fill="black" stroke="black" points="713.781,-1847.82 721.549,-1840.61 710.983,-1841.4 713.781,-1847.82"/>
<text text-anchor="middle" x="580" y="-1919.8" font-family="Times,serif" font-size="14.00">v12 &gt;= 0</text>
</g>
<!-- Node0xef36670 -->
<g id="node10" class="node"><title>Node0xef36670</title>
<polygon fill="none" stroke="black" points="381,-1717.5 381,-1753.5 480,-1753.5 480,-1717.5 381,-1717.5"/>
<text text-anchor="start" x="389" y="-1731.8" font-family="Times,serif" font-size="14.00">if (v1 != 0):</text>
</g>
<!-- Node0xef36490&#45;&gt;Node0xef36670 -->
<g id="edge9" class="edge"><title>Node0xef36490&#45;&gt;Node0xef36670</title>
<path fill="none" stroke="black" d="M430.5,-1859.36C430.5,-1835.19 430.5,-1792.23 430.5,-1764.05"/>
<polygon fill="black" stroke="black" points="434,-1763.69 430.5,-1753.69 427,-1763.69 434,-1763.69"/>
</g>
<!-- Node0x7fcf0c0 -->
<g id="node11" class="node"><title>Node0x7fcf0c0</title>
<polygon fill="none" stroke="black" points="858.5,-1037.5 858.5,-1073.5 972.5,-1073.5 972.5,-1037.5 858.5,-1037.5"/>
<text text-anchor="start" x="866.5" y="-1051.8" font-family="Times,serif" font-size="14.00">if (v18 == 0):</text>
</g>
<!-- Node0x7fcf020&#45;&gt;Node0x7fcf0c0 -->
<g id="edge10" class="edge"><title>Node0x7fcf020&#45;&gt;Node0x7fcf0c0</title>
<path fill="none" stroke="black" d="M816.56,-1772.02C827.267,-1750.11 838.5,-1720.47 838.5,-1692.5 838.5,-1692.5 838.5,-1692.5 838.5,-1445 838.5,-1306.88 885.911,-1146.31 906.328,-1083.57"/>
<polygon fill="black" stroke="black" points="909.779,-1084.28 909.586,-1073.68 903.131,-1082.08 909.779,-1084.28"/>
</g>
<!-- Node0x7fcf4d0 -->
<g id="node12" class="node"><title>Node0x7fcf4d0</title>
<polygon fill="none" stroke="black" points="174.5,-1612.5 174.5,-1665.5 614.5,-1665.5 614.5,-1612.5 174.5,-1612.5"/>
<text text-anchor="start" x="182.5" y="-1650.3" font-family="Times,serif" font-size="14.00">0x8058667:</text>
<text text-anchor="start" x="182.5" y="-1635.3" font-family="Times,serif" font-size="14.00"> result = mbedtls_mpi_lset(IntToPtrCastExpr&lt;ptr&gt;(v1), 0)</text>
<text text-anchor="start" x="182.5" y="-1620.3" font-family="Times,serif" font-size="14.00"> g1 = result</text>
</g>
<!-- Node0xef36670&#45;&gt;Node0x7fcf4d0 -->
<g id="edge11" class="edge"><title>Node0xef36670&#45;&gt;Node0x7fcf4d0</title>
<path fill="none" stroke="black" d="M423.897,-1717.17C419.444,-1705.48 413.41,-1689.64 407.968,-1675.35"/>
<polygon fill="black" stroke="black" points="411.152,-1673.88 404.321,-1665.78 404.61,-1676.37 411.152,-1673.88"/>
<text text-anchor="middle" x="444.5" y="-1687.8" font-family="Times,serif" font-size="14.00">v1 != 0</text>
</g>
<!-- Node0x7fce870 -->
<g id="node13" class="node"><title>Node0x7fce870</title>
<polygon fill="none" stroke="black" points="504,-1419.5 504,-1472.5 781,-1472.5 781,-1419.5 504,-1419.5"/>
<text text-anchor="start" x="512" y="-1457.3" font-family="Times,serif" font-size="14.00">0x8058680:</text>
<text text-anchor="start" x="512" y="-1442.3" font-family="Times,serif" font-size="14.00"> g3 = PtrToIntCastExpr&lt;int32&gt;(a2)</text>
<text text-anchor="start" x="512" y="-1427.3" font-family="Times,serif" font-size="14.00"> g6 = 0</text>
</g>
<!-- Node0xef36670&#45;&gt;Node0x7fce870 -->
<g id="edge12" class="edge"><title>Node0xef36670&#45;&gt;Node0x7fce870</title>
<path fill="none" stroke="black" d="M480.311,-1731.4C525.328,-1725.72 589.575,-1709.88 623.5,-1666 664.407,-1613.09 658.212,-1529.99 650.232,-1482.83"/>
<polygon fill="black" stroke="black" points="653.638,-1481.99 648.411,-1472.78 646.75,-1483.24 653.638,-1481.99"/>
<text text-anchor="middle" x="684.5" y="-1582.8" font-family="Times,serif" font-size="14.00">v1 == 0</text>
</g>
<!-- Node0x9a4e340 -->
<g id="node14" class="node"><title>Node0x9a4e340</title>
<polygon fill="none" stroke="black" points="943.5,-940 943.5,-978 1551.5,-978 1551.5,-940 943.5,-940"/>
<text text-anchor="start" x="951.5" y="-962.8" font-family="Times,serif" font-size="14.00">v19 = &amp;(v8)</text>
<text text-anchor="start" x="951.5" y="-947.8" font-family="Times,serif" font-size="14.00"> v20 = mbedtls_mpi_copy(BitCastExpr&lt;ptr&gt;(&amp;(v8)), IntToPtrCastExpr&lt;ptr&gt;(g3))</text>
</g>
<!-- Node0x7fcf0c0&#45;&gt;Node0x9a4e340 -->
<g id="edge13" class="edge"><title>Node0x7fcf0c0&#45;&gt;Node0x9a4e340</title>
<path fill="none" stroke="black" d="M972.573,-1038.25C1028.33,-1022.38 1113.45,-998.156 1174.19,-980.866"/>
<polygon fill="black" stroke="black" points="1175.44,-984.149 1184.1,-978.045 1173.53,-977.417 1175.44,-984.149"/>
<text text-anchor="middle" x="1125" y="-1007.8" font-family="Times,serif" font-size="14.00">v18 == 0</text>
</g>
<!-- Node0x7fce0a0 -->
<g id="node15" class="node"><title>Node0x7fce0a0</title>
<polygon fill="none" stroke="black" points="735.5,-877.5 735.5,-913.5 825.5,-913.5 825.5,-877.5 735.5,-877.5"/>
<text text-anchor="start" x="743.5" y="-891.8" font-family="Times,serif" font-size="14.00">v17 = v18</text>
</g>
<!-- Node0x7fcf0c0&#45;&gt;Node0x7fce0a0 -->
<g id="edge14" class="edge"><title>Node0x7fcf0c0&#45;&gt;Node0x7fce0a0</title>
<path fill="none" stroke="black" d="M918.084,-1037.13C920.93,-1011.03 922.146,-961.606 896.5,-932 881.253,-914.399 857.539,-905.38 835.514,-900.812"/>
<polygon fill="black" stroke="black" points="836.013,-897.346 825.55,-899.012 834.769,-904.235 836.013,-897.346"/>
<text text-anchor="middle" x="951" y="-1007.8" font-family="Times,serif" font-size="14.00">v18 != 0</text>
</g>
<!-- Node0x7fcf570 -->
<g id="node16" class="node"><title>Node0x7fcf570</title>
<polygon fill="none" stroke="black" points="332.5,-1524.5 332.5,-1560.5 456.5,-1560.5 456.5,-1524.5 332.5,-1524.5"/>
<text text-anchor="start" x="340.5" y="-1538.8" font-family="Times,serif" font-size="14.00">if (result != 0):</text>
</g>
<!-- Node0x7fcf4d0&#45;&gt;Node0x7fcf570 -->
<g id="edge15" class="edge"><title>Node0x7fcf4d0&#45;&gt;Node0x7fcf570</title>
<path fill="none" stroke="black" d="M394.5,-1612.18C394.5,-1599.37 394.5,-1583.9 394.5,-1570.88"/>
<polygon fill="black" stroke="black" points="398,-1570.64 394.5,-1560.64 391,-1570.64 398,-1570.64"/>
</g>
<!-- Node0x8494c00 -->
<g id="node17" class="node"><title>Node0x8494c00</title>
<polygon fill="none" stroke="black" points="524.5,-1037.5 524.5,-1073.5 664.5,-1073.5 664.5,-1037.5 524.5,-1037.5"/>
<text text-anchor="start" x="532.5" y="-1051.8" font-family="Times,serif" font-size="14.00">if (a2 == NULL):</text>
</g>
<!-- Node0x7fce870&#45;&gt;Node0x8494c00 -->
<g id="edge16" class="edge"><title>Node0x7fce870&#45;&gt;Node0x8494c00</title>
<path fill="none" stroke="black" d="M650.127,-1419.22C666.619,-1358.3 699.776,-1202.26 643.5,-1092 641.288,-1087.67 638.273,-1083.74 634.818,-1080.21"/>
<polygon fill="black" stroke="black" points="637.044,-1077.51 627.223,-1073.54 632.422,-1082.77 637.044,-1077.51"/>
</g>
<!-- Node0x9a4e3e0 -->
<g id="node18" class="node"><title>Node0x9a4e3e0</title>
<polygon fill="none" stroke="black" points="1190.5,-820.5 1190.5,-858.5 1304.5,-858.5 1304.5,-820.5 1190.5,-820.5"/>
<text text-anchor="start" x="1198.5" y="-843.3" font-family="Times,serif" font-size="14.00">if (v20 == 0):</text>
<text text-anchor="start" x="1198.5" y="-828.3" font-family="Times,serif" font-size="14.00"> else:</text>
</g>
<!-- Node0x9a4e340&#45;&gt;Node0x9a4e3e0 -->
<g id="edge17" class="edge"><title>Node0x9a4e340&#45;&gt;Node0x9a4e3e0</title>
<path fill="none" stroke="black" d="M1247.5,-939.898C1247.5,-920.978 1247.5,-891.026 1247.5,-868.942"/>
<polygon fill="black" stroke="black" points="1251,-868.816 1247.5,-858.816 1244,-868.816 1251,-868.816"/>
</g>
<!-- Node0x7fce040 -->
<g id="node19" class="node"><title>Node0x7fce040</title>
<polygon fill="none" stroke="black" points="275.5,-97.5 275.5,-405.5 859.5,-405.5 859.5,-97.5 275.5,-97.5"/>
<text text-anchor="start" x="283.5" y="-390.3" font-family="Times,serif" font-size="14.00">0x80585c2:</text>
<text text-anchor="start" x="283.5" y="-375.3" font-family="Times,serif" font-size="14.00"> v13 = &amp;(v11)</text>
<text text-anchor="start" x="283.5" y="-360.3" font-family="Times,serif" font-size="14.00"> g1 = v13</text>
<text text-anchor="start" x="283.5" y="-345.3" font-family="Times,serif" font-size="14.00"> v14 = &amp;(v9)</text>
<text text-anchor="start" x="283.5" y="-330.3" font-family="Times,serif" font-size="14.00"> result = v17</text>
<text text-anchor="start" x="283.5" y="-315.3" font-family="Times,serif" font-size="14.00"> v16 = v13</text>
<text text-anchor="start" x="283.5" y="-300.3" font-family="Times,serif" font-size="14.00"> v15 = &amp;(v10)</text>
<text text-anchor="start" x="283.5" y="-285.3" font-family="Times,serif" font-size="14.00"> g1 = mbedtls_mpi_free(IntToPtrCastExpr&lt;ptr&gt;(g7))</text>
<text text-anchor="start" x="283.5" y="-270.3" font-family="Times,serif" font-size="14.00"> mbedtls_mpi_free(IntToPtrCastExpr&lt;ptr&gt;(PtrToIntCastExpr&lt;int32&gt;(&amp;(v8))))</text>
<text text-anchor="start" x="283.5" y="-255.3" font-family="Times,serif" font-size="14.00"> g1 = v14</text>
<text text-anchor="start" x="283.5" y="-240.3" font-family="Times,serif" font-size="14.00"> g1 = mbedtls_mpi_free(IntToPtrCastExpr&lt;ptr&gt;(v14))</text>
<text text-anchor="start" x="283.5" y="-225.3" font-family="Times,serif" font-size="14.00"> g4 = v15</text>
<text text-anchor="start" x="283.5" y="-210.3" font-family="Times,serif" font-size="14.00"> mbedtls_mpi_free(IntToPtrCastExpr&lt;ptr&gt;(v15))</text>
<text text-anchor="start" x="283.5" y="-195.3" font-family="Times,serif" font-size="14.00"> g1 = v16</text>
<text text-anchor="start" x="283.5" y="-180.3" font-family="Times,serif" font-size="14.00"> mbedtls_mpi_free(IntToPtrCastExpr&lt;ptr&gt;(v16))</text>
<text text-anchor="start" x="283.5" y="-165.3" font-family="Times,serif" font-size="14.00"> g6 = result</text>
<text text-anchor="start" x="283.5" y="-150.3" font-family="Times,serif" font-size="14.00"> g3 = v3</text>
<text text-anchor="start" x="283.5" y="-135.3" font-family="Times,serif" font-size="14.00"> g7 = v5</text>
<text text-anchor="start" x="283.5" y="-120.3" font-family="Times,serif" font-size="14.00"> g5 = v4</text>
<text text-anchor="start" x="283.5" y="-105.3" font-family="Times,serif" font-size="14.00"> return result</text>
</g>
<!-- Node0x7fce0a0&#45;&gt;Node0x7fce040 -->
<g id="edge18" class="edge"><title>Node0x7fce0a0&#45;&gt;Node0x7fce040</title>
<path fill="none" stroke="black" d="M772.859,-877.277C758.066,-843.605 724.911,-766.525 701.5,-700 668.676,-606.726 636.722,-500.791 612.255,-415.412"/>
<polygon fill="black" stroke="black" points="615.574,-414.287 609.46,-405.634 608.844,-416.211 615.574,-414.287"/>
</g>
<!-- Node0x7fcf570&#45;&gt;Node0x7fce870 -->
<g id="edge20" class="edge"><title>Node0x7fcf570&#45;&gt;Node0x7fce870</title>
<path fill="none" stroke="black" d="M439.124,-1524.5C474.314,-1511.09 524.219,-1492.07 565.786,-1476.23"/>
<polygon fill="black" stroke="black" points="567.238,-1479.42 575.337,-1472.59 564.746,-1472.88 567.238,-1479.42"/>
<text text-anchor="middle" x="569" y="-1494.8" font-family="Times,serif" font-size="14.00">result == 0</text>
</g>
<!-- Node0x7fd02a0 -->
<g id="node20" class="node"><title>Node0x7fd02a0</title>
<polygon fill="none" stroke="black" points="58.5,-1092.5 58.5,-1400.5 642.5,-1400.5 642.5,-1092.5 58.5,-1092.5"/>
<text text-anchor="start" x="66.5" y="-1385.3" font-family="Times,serif" font-size="14.00">0x80586a6:</text>
<text text-anchor="start" x="66.5" y="-1370.3" font-family="Times,serif" font-size="14.00"> g7 = &amp;(v7)</text>
<text text-anchor="start" x="66.5" y="-1355.3" font-family="Times,serif" font-size="14.00"> v13 = &amp;(v11)</text>
<text text-anchor="start" x="66.5" y="-1340.3" font-family="Times,serif" font-size="14.00"> g1 = v13</text>
<text text-anchor="start" x="66.5" y="-1325.3" font-family="Times,serif" font-size="14.00"> v14 = &amp;(v9)</text>
<text text-anchor="start" x="66.5" y="-1310.3" font-family="Times,serif" font-size="14.00"> v16 = v13</text>
<text text-anchor="start" x="66.5" y="-1295.3" font-family="Times,serif" font-size="14.00"> v15 = &amp;(v10)</text>
<text text-anchor="start" x="66.5" y="-1280.3" font-family="Times,serif" font-size="14.00"> g1 = mbedtls_mpi_free(IntToPtrCastExpr&lt;ptr&gt;(g7))</text>
<text text-anchor="start" x="66.5" y="-1265.3" font-family="Times,serif" font-size="14.00"> mbedtls_mpi_free(IntToPtrCastExpr&lt;ptr&gt;(PtrToIntCastExpr&lt;int32&gt;(&amp;(v8))))</text>
<text text-anchor="start" x="66.5" y="-1250.3" font-family="Times,serif" font-size="14.00"> g1 = v14</text>
<text text-anchor="start" x="66.5" y="-1235.3" font-family="Times,serif" font-size="14.00"> g1 = mbedtls_mpi_free(IntToPtrCastExpr&lt;ptr&gt;(v14))</text>
<text text-anchor="start" x="66.5" y="-1220.3" font-family="Times,serif" font-size="14.00"> g4 = v15</text>
<text text-anchor="start" x="66.5" y="-1205.3" font-family="Times,serif" font-size="14.00"> mbedtls_mpi_free(IntToPtrCastExpr&lt;ptr&gt;(v15))</text>
<text text-anchor="start" x="66.5" y="-1190.3" font-family="Times,serif" font-size="14.00"> g1 = v16</text>
<text text-anchor="start" x="66.5" y="-1175.3" font-family="Times,serif" font-size="14.00"> mbedtls_mpi_free(IntToPtrCastExpr&lt;ptr&gt;(v16))</text>
<text text-anchor="start" x="66.5" y="-1160.3" font-family="Times,serif" font-size="14.00"> g6 = result</text>
<text text-anchor="start" x="66.5" y="-1145.3" font-family="Times,serif" font-size="14.00"> g3 = v3</text>
<text text-anchor="start" x="66.5" y="-1130.3" font-family="Times,serif" font-size="14.00"> g7 = v5</text>
<text text-anchor="start" x="66.5" y="-1115.3" font-family="Times,serif" font-size="14.00"> g5 = v4</text>
<text text-anchor="start" x="66.5" y="-1100.3" font-family="Times,serif" font-size="14.00"> return result</text>
</g>
<!-- Node0x7fcf570&#45;&gt;Node0x7fd02a0 -->
<g id="edge19" class="edge"><title>Node0x7fcf570&#45;&gt;Node0x7fd02a0</title>
<path fill="none" stroke="black" d="M391.944,-1524.42C388.46,-1501.14 381.855,-1457.01 374.925,-1410.7"/>
<polygon fill="black" stroke="black" points="378.384,-1410.17 373.442,-1400.79 371.461,-1411.2 378.384,-1410.17"/>
<text text-anchor="middle" x="429" y="-1494.8" font-family="Times,serif" font-size="14.00">result != 0</text>
</g>
<!-- Node0x7fcf9f0 -->
<g id="node21" class="node"><title>Node0x7fcf9f0</title>
<polygon fill="none" stroke="black" points="159,-718.5 159,-801.5 260,-801.5 260,-718.5 159,-718.5"/>
<text text-anchor="start" x="167" y="-786.3" font-family="Times,serif" font-size="14.00">0x8058521:</text>
<text text-anchor="start" x="167" y="-771.3" font-family="Times,serif" font-size="14.00"> g3 = v3</text>
<text text-anchor="start" x="167" y="-756.3" font-family="Times,serif" font-size="14.00"> g7 = v5</text>
<text text-anchor="start" x="167" y="-741.3" font-family="Times,serif" font-size="14.00"> g5 = v4</text>
<text text-anchor="start" x="167" y="-726.3" font-family="Times,serif" font-size="14.00"> return 0</text>
</g>
<!-- Node0x8494c00&#45;&gt;Node0x7fcf9f0 -->
<g id="edge21" class="edge"><title>Node0x8494c00&#45;&gt;Node0x7fcf9f0</title>
<path fill="none" stroke="black" d="M524.191,-1052.8C421.789,-1048.66 239.334,-1034.5 198.5,-986 158.003,-937.897 172.714,-861.465 189.259,-811.263"/>
<polygon fill="black" stroke="black" points="192.644,-812.183 192.577,-801.588 186.022,-809.912 192.644,-812.183"/>
<text text-anchor="middle" x="245.5" y="-955.3" font-family="Times,serif" font-size="14.00">a2 == NULL</text>
</g>
<!-- Node0x7fcea20 -->
<g id="node22" class="node"><title>Node0x7fcea20</title>
<polygon fill="none" stroke="black" points="302,-932.5 302,-985.5 887,-985.5 887,-932.5 302,-932.5"/>
<text text-anchor="start" x="310" y="-970.3" font-family="Times,serif" font-size="14.00">0x805868d:</text>
<text text-anchor="start" x="310" y="-955.3" font-family="Times,serif" font-size="14.00"> v17 = mbedtls_mpi_copy(BitCastExpr&lt;ptr&gt;(a2), IntToPtrCastExpr&lt;ptr&gt;(g5))</text>
<text text-anchor="start" x="310" y="-940.3" font-family="Times,serif" font-size="14.00"> g6 = v17</text>
</g>
<!-- Node0x8494c00&#45;&gt;Node0x7fcea20 -->
<g id="edge22" class="edge"><title>Node0x8494c00&#45;&gt;Node0x7fcea20</title>
<path fill="none" stroke="black" d="M594.5,-1037.17C594.5,-1025.7 594.5,-1010.25 594.5,-996.178"/>
<polygon fill="black" stroke="black" points="598,-995.78 594.5,-985.78 591,-995.78 598,-995.78"/>
<text text-anchor="middle" x="638.5" y="-1007.8" font-family="Times,serif" font-size="14.00">a2 != NULL</text>
</g>
<!-- Node0x7fd0100 -->
<g id="node23" class="node"><title>Node0x7fd0100</title>
<polygon fill="none" stroke="black" points="710,-526.5 710,-699.5 1397,-699.5 1397,-526.5 710,-526.5"/>
<text text-anchor="start" x="718" y="-684.3" font-family="Times,serif" font-size="14.00">0x80586b0:</text>
<text text-anchor="start" x="718" y="-669.3" font-family="Times,serif" font-size="14.00"> v8 = 1</text>
<text text-anchor="start" x="718" y="-654.3" font-family="Times,serif" font-size="14.00"> v7 = 1</text>
<text text-anchor="start" x="718" y="-639.3" font-family="Times,serif" font-size="14.00"> v21 = &amp;(v9)</text>
<text text-anchor="start" x="718" y="-624.3" font-family="Times,serif" font-size="14.00"> mbedtls_mpi_grow(v21, IntToPtrCastExpr&lt;ptr&gt;((*(IntToPtrCastExpr&lt;ptr&gt;((g5 + 4))) + 2)))</text>
<text text-anchor="start" x="718" y="-609.3" font-family="Times,serif" font-size="14.00"> v22 = &amp;(v11)</text>
<text text-anchor="start" x="718" y="-594.3" font-family="Times,serif" font-size="14.00"> g1 = v22</text>
<text text-anchor="start" x="718" y="-579.3" font-family="Times,serif" font-size="14.00"> v14 = v21</text>
<text text-anchor="start" x="718" y="-564.3" font-family="Times,serif" font-size="14.00"> result = v21</text>
<text text-anchor="start" x="718" y="-549.3" font-family="Times,serif" font-size="14.00"> v16 = v22</text>
<text text-anchor="start" x="718" y="-534.3" font-family="Times,serif" font-size="14.00"> v15 = &amp;(v10)</text>
</g>
<!-- Node0x9a4e3e0&#45;&gt;Node0x7fd0100 -->
<g id="edge23" class="edge"><title>Node0x9a4e3e0&#45;&gt;Node0x7fd0100</title>
<path fill="none" stroke="black" d="M1231.62,-820.128C1210.24,-795.383 1170.66,-749.575 1134.22,-707.416"/>
<polygon fill="black" stroke="black" points="1136.65,-704.87 1127.46,-699.592 1131.35,-709.447 1136.65,-704.87"/>
<text text-anchor="middle" x="1249" y="-756.3" font-family="Times,serif" font-size="14.00">v20 == 0</text>
</g>
<!-- Node0xef372b0 -->
<g id="node24" class="node"><title>Node0xef372b0</title>
<polygon fill="none" stroke="black" points="1415.5,-564 1415.5,-662 1533.5,-662 1533.5,-564 1415.5,-564"/>
<text text-anchor="start" x="1423.5" y="-646.8" font-family="Times,serif" font-size="14.00">v23 = &amp;(v10)</text>
<text text-anchor="start" x="1423.5" y="-631.8" font-family="Times,serif" font-size="14.00"> g1 = v23</text>
<text text-anchor="start" x="1423.5" y="-616.8" font-family="Times,serif" font-size="14.00"> v14 = &amp;(v9)</text>
<text text-anchor="start" x="1423.5" y="-601.8" font-family="Times,serif" font-size="14.00"> result = v20</text>
<text text-anchor="start" x="1423.5" y="-586.8" font-family="Times,serif" font-size="14.00"> v16 = &amp;(v11)</text>
<text text-anchor="start" x="1423.5" y="-571.8" font-family="Times,serif" font-size="14.00"> v15 = v23</text>
</g>
<!-- Node0x9a4e3e0&#45;&gt;Node0xef372b0 -->
<g id="edge24" class="edge"><title>Node0x9a4e3e0&#45;&gt;Node0xef372b0</title>
<path fill="none" stroke="black" d="M1270.8,-820.469C1302.89,-795.152 1361.78,-746.894 1406.5,-700 1415.4,-690.669 1424.35,-680.256 1432.7,-669.985"/>
<polygon fill="black" stroke="black" points="1435.43,-672.171 1438.96,-662.18 1429.97,-667.792 1435.43,-672.171"/>
<text text-anchor="middle" x="1417" y="-756.3" font-family="Times,serif" font-size="14.00">v20 != 0</text>
</g>
<!-- Node0x7fce040&#45;&gt;Node0x845edf0 -->
<g id="edge25" class="edge"><title>Node0x7fce040&#45;&gt;Node0x845edf0</title>
<path fill="none" stroke="black" d="M318.012,-97.4216C297.542,-84.8619 279.091,-73.5413 264.334,-64.4866"/>
<polygon fill="black" stroke="black" points="265.991,-61.3973 255.638,-59.1508 262.331,-67.3638 265.991,-61.3973"/>
</g>
<!-- Node0x7fd02a0&#45;&gt;Node0x845edf0 -->
<g id="edge26" class="edge"><title>Node0x7fd02a0&#45;&gt;Node0x845edf0</title>
<path fill="none" stroke="black" d="M166.444,-1092.42C152.372,-1067.97 143.5,-1041.18 143.5,-1012.5 143.5,-1012.5 143.5,-1012.5 143.5,-250.5 143.5,-180.257 185.553,-105.923 210.5,-68.0048"/>
<polygon fill="black" stroke="black" points="213.47,-69.8611 216.14,-59.6083 207.659,-65.958 213.47,-69.8611"/>
</g>
<!-- Node0x7fcf9f0&#45;&gt;Node0x845edf0 -->
<g id="edge27" class="edge"><title>Node0x7fcf9f0&#45;&gt;Node0x845edf0</title>
<path fill="none" stroke="black" d="M209.594,-718.285C210.024,-612.567 212.407,-320.675 225.5,-78 225.64,-75.406 225.815,-72.7076 226.009,-70.0089"/>
<polygon fill="black" stroke="black" points="229.516,-70.0666 226.824,-59.8194 222.538,-69.5085 229.516,-70.0666"/>
</g>
<!-- Node0x7fcea80 -->
<g id="node25" class="node"><title>Node0x7fcea80</title>
<polygon fill="none" stroke="black" points="510.5,-821.5 510.5,-857.5 624.5,-857.5 624.5,-821.5 510.5,-821.5"/>
<text text-anchor="start" x="518.5" y="-835.8" font-family="Times,serif" font-size="14.00">if (v17 == 0):</text>
</g>
<!-- Node0x7fcea20&#45;&gt;Node0x7fcea80 -->
<g id="edge28" class="edge"><title>Node0x7fcea20&#45;&gt;Node0x7fcea80</title>
<path fill="none" stroke="black" d="M588.575,-932.214C584.154,-912.974 578.13,-886.759 573.654,-867.283"/>
<polygon fill="black" stroke="black" points="577.06,-866.477 571.41,-857.515 570.238,-868.045 577.06,-866.477"/>
</g>
<!-- Node0x7fcfbc0 -->
<g id="node26" class="node"><title>Node0x7fcfbc0</title>
<polygon fill="none" stroke="black" points="878,-142.5 878,-360.5 1287,-360.5 1287,-142.5 878,-142.5"/>
<text text-anchor="start" x="886" y="-345.3" font-family="Times,serif" font-size="14.00">0x80585da:</text>
<text text-anchor="start" x="886" y="-330.3" font-family="Times,serif" font-size="14.00"> g1 = mbedtls_mpi_free(IntToPtrCastExpr&lt;ptr&gt;(g7))</text>
<text text-anchor="start" x="886" y="-315.3" font-family="Times,serif" font-size="14.00"> mbedtls_mpi_free(IntToPtrCastExpr&lt;ptr&gt;(v19))</text>
<text text-anchor="start" x="886" y="-300.3" font-family="Times,serif" font-size="14.00"> g1 = v14</text>
<text text-anchor="start" x="886" y="-285.3" font-family="Times,serif" font-size="14.00"> g1 = mbedtls_mpi_free(IntToPtrCastExpr&lt;ptr&gt;(v14))</text>
<text text-anchor="start" x="886" y="-270.3" font-family="Times,serif" font-size="14.00"> g4 = v15</text>
<text text-anchor="start" x="886" y="-255.3" font-family="Times,serif" font-size="14.00"> mbedtls_mpi_free(IntToPtrCastExpr&lt;ptr&gt;(v15))</text>
<text text-anchor="start" x="886" y="-240.3" font-family="Times,serif" font-size="14.00"> g1 = v16</text>
<text text-anchor="start" x="886" y="-225.3" font-family="Times,serif" font-size="14.00"> mbedtls_mpi_free(IntToPtrCastExpr&lt;ptr&gt;(v16))</text>
<text text-anchor="start" x="886" y="-210.3" font-family="Times,serif" font-size="14.00"> g6 = result</text>
<text text-anchor="start" x="886" y="-195.3" font-family="Times,serif" font-size="14.00"> g3 = v3</text>
<text text-anchor="start" x="886" y="-180.3" font-family="Times,serif" font-size="14.00"> g7 = v5</text>
<text text-anchor="start" x="886" y="-165.3" font-family="Times,serif" font-size="14.00"> g5 = v4</text>
<text text-anchor="start" x="886" y="-150.3" font-family="Times,serif" font-size="14.00"> return result</text>
</g>
<!-- Node0x7fd0100&#45;&gt;Node0x7fcfbc0 -->
<g id="edge29" class="edge"><title>Node0x7fd0100&#45;&gt;Node0x7fcfbc0</title>
<path fill="none" stroke="black" d="M1060.41,-526.348C1064.16,-479.814 1068.86,-421.563 1072.96,-370.763"/>
<polygon fill="black" stroke="black" points="1076.46,-370.957 1073.77,-360.707 1069.48,-370.394 1076.46,-370.957"/>
</g>
<!-- Node0xef372b0&#45;&gt;Node0x7fcfbc0 -->
<g id="edge30" class="edge"><title>Node0xef372b0&#45;&gt;Node0x7fcfbc0</title>
<path fill="none" stroke="black" d="M1439.08,-563.704C1429.03,-551.007 1417.76,-537.622 1406.5,-526 1352.58,-470.321 1288.2,-414.174 1231.09,-367.364"/>
<polygon fill="black" stroke="black" points="1233.04,-364.438 1223.08,-360.822 1228.61,-369.859 1233.04,-364.438"/>
</g>
<!-- Node0x84af430 -->
<g id="node27" class="node"><title>Node0x84af430</title>
<polygon fill="none" stroke="black" points="277,-424.5 277,-507.5 378,-507.5 378,-424.5 277,-424.5"/>
<text text-anchor="start" x="285" y="-492.3" font-family="Times,serif" font-size="14.00">0x8058521:</text>
<text text-anchor="start" x="285" y="-477.3" font-family="Times,serif" font-size="14.00"> g3 = v3</text>
<text text-anchor="start" x="285" y="-462.3" font-family="Times,serif" font-size="14.00"> g7 = v5</text>
<text text-anchor="start" x="285" y="-447.3" font-family="Times,serif" font-size="14.00"> g5 = v4</text>
<text text-anchor="start" x="285" y="-432.3" font-family="Times,serif" font-size="14.00"> return 0</text>
</g>
<!-- Node0x7fcea80&#45;&gt;Node0x84af430 -->
<g id="edge31" class="edge"><title>Node0x7fcea80&#45;&gt;Node0x84af430</title>
<path fill="none" stroke="black" d="M522.029,-821.442C512.138,-816.263 502.31,-809.82 494.5,-802 412.26,-719.662 363.359,-588.593 341.397,-517.26"/>
<polygon fill="black" stroke="black" points="344.721,-516.161 338.476,-507.602 338.021,-518.188 344.721,-516.161"/>
<text text-anchor="middle" x="529" y="-756.3" font-family="Times,serif" font-size="14.00">v17 == 0</text>
</g>
<!-- Node0x7fceef0 -->
<g id="node28" class="node"><title>Node0x7fceef0</title>
<polygon fill="none" stroke="black" points="517,-594 517,-632 618,-632 618,-594 517,-594"/>
<text text-anchor="start" x="525" y="-616.8" font-family="Times,serif" font-size="14.00">0x80586a6:</text>
<text text-anchor="start" x="525" y="-601.8" font-family="Times,serif" font-size="14.00"> g7 = &amp;(v7)</text>
</g>
<!-- Node0x7fcea80&#45;&gt;Node0x7fceef0 -->
<g id="edge32" class="edge"><title>Node0x7fcea80&#45;&gt;Node0x7fceef0</title>
<path fill="none" stroke="black" d="M567.5,-821.257C567.5,-782.774 567.5,-689.568 567.5,-642.38"/>
<polygon fill="black" stroke="black" points="571,-642.238 567.5,-632.238 564,-642.238 571,-642.238"/>
<text text-anchor="middle" x="599" y="-756.3" font-family="Times,serif" font-size="14.00">v17 != 0</text>
</g>
<!-- Node0x7fcfbc0&#45;&gt;Node0x845edf0 -->
<g id="edge33" class="edge"><title>Node0x7fcfbc0&#45;&gt;Node0x845edf0</title>
<path fill="none" stroke="black" d="M954.719,-142.317C927.708,-124.346 898.311,-108.003 868.5,-97 756.669,-55.7223 385.248,-45.3784 265.827,-43.0897"/>
<polygon fill="black" stroke="black" points="265.78,-39.5883 255.717,-42.9038 265.651,-46.5871 265.78,-39.5883"/>
</g>
<!-- Node0x84af430&#45;&gt;Node0x845edf0 -->
<g id="edge34" class="edge"><title>Node0x84af430&#45;&gt;Node0x845edf0</title>
<path fill="none" stroke="black" d="M278.548,-424.389C273.846,-418.658 269.66,-412.491 266.5,-406 237.635,-346.718 230.593,-144.114 228.964,-69.9687"/>
<polygon fill="black" stroke="black" points="232.456,-69.5293 228.754,-59.6024 225.457,-69.6713 232.456,-69.5293"/>
</g>
<!-- Node0x7fceef0&#45;&gt;Node0x7fce040 -->
<g id="edge35" class="edge"><title>Node0x7fceef0&#45;&gt;Node0x7fce040</title>
<path fill="none" stroke="black" d="M567.5,-593.678C567.5,-560.334 567.5,-486.663 567.5,-416.283"/>
<polygon fill="black" stroke="black" points="571,-415.928 567.5,-405.928 564,-415.928 571,-415.928"/>
</g>
</g>
</svg>
