<?xml version="1.0" encoding="UTF-8" standalone="no"?>
<!DOCTYPE svg PUBLIC "-//W3C//DTD SVG 1.1//EN"
 "http://www.w3.org/Graphics/SVG/1.1/DTD/svg11.dtd">
<!-- Generated by graphviz version 2.38.0 (20140413.2041)
 -->
<!-- Title: Control&#45;flow graph for function &#39;mbedtls_pk_parse_keyfile(*a1, a2, a3)&#39;. Pages: 1 -->
<svg width="1073pt" height="1296pt"
 viewBox="0.00 0.00 1073.00 1296.00" xmlns="http://www.w3.org/2000/svg" xmlns:xlink="http://www.w3.org/1999/xlink">
<g id="graph0" class="graph" transform="scale(1 1) rotate(0) translate(4 1292)">
<title>Control&#45;flow graph for function &#39;mbedtls_pk_parse_keyfile(*a1, a2, a3)&#39;.</title>
<polygon fill="white" stroke="none" points="-4,4 -4,-1292 1069,-1292 1069,4 -4,4"/>
<text text-anchor="middle" x="532.5" y="-7.8" font-family="Times,serif" font-size="14.00">Control&#45;flow graph for function &#39;mbedtls_pk_parse_keyfile(*a1, a2, a3)&#39;.</text>
<!-- Node0xa351620 -->
<g id="node1" class="node"><title>Node0xa351620</title>
<polygon fill="none" stroke="black" points="703,-1219.5 703,-1287.5 762,-1287.5 762,-1219.5 703,-1219.5"/>
<text text-anchor="start" x="711" y="-1272.3" font-family="Times,serif" font-size="14.00">entry:</text>
<text text-anchor="start" x="711" y="-1257.3" font-family="Times,serif" font-size="14.00"> a1</text>
<text text-anchor="start" x="711" y="-1242.3" font-family="Times,serif" font-size="14.00"> a2</text>
<text text-anchor="start" x="711" y="-1227.3" font-family="Times,serif" font-size="14.00"> a3</text>
</g>
<!-- Node0xb5d1460 -->
<g id="node2" class="node"><title>Node0xb5d1460</title>
<polygon fill="none" stroke="black" points="400,-1023.5 400,-1181.5 1065,-1181.5 1065,-1023.5 400,-1023.5"/>
<text text-anchor="start" x="408" y="-1166.3" font-family="Times,serif" font-size="14.00">0x804f2f0:</text>
<text text-anchor="start" x="408" y="-1151.3" font-family="Times,serif" font-size="14.00"> v1</text>
<text text-anchor="start" x="408" y="-1136.3" font-family="Times,serif" font-size="14.00"> v2 = IntToPtrCastExpr&lt;ptr&gt;(v1)</text>
<text text-anchor="start" x="408" y="-1121.3" font-family="Times,serif" font-size="14.00"> v3 = g7</text>
<text text-anchor="start" x="408" y="-1106.3" font-family="Times,serif" font-size="14.00"> v4 = g3</text>
<text text-anchor="start" x="408" y="-1091.3" font-family="Times,serif" font-size="14.00"> g7 = PtrToIntCastExpr&lt;int32&gt;(a1)</text>
<text text-anchor="start" x="408" y="-1076.3" font-family="Times,serif" font-size="14.00"> g3 = a3</text>
<text text-anchor="start" x="408" y="-1061.3" font-family="Times,serif" font-size="14.00"> v5</text>
<text text-anchor="start" x="408" y="-1046.3" font-family="Times,serif" font-size="14.00"> v6 = mbedtls_pk_load_file(IntToPtrCastExpr&lt;ptr&gt;(a2), BitCastExpr&lt;ptr&gt;(&amp;(v2)), &amp;(v5))</text>
<text text-anchor="start" x="408" y="-1031.3" font-family="Times,serif" font-size="14.00"> result = v6</text>
</g>
<!-- Node0xa351620&#45;&gt;Node0xb5d1460 -->
<g id="edge1" class="edge"><title>Node0xa351620&#45;&gt;Node0xb5d1460</title>
<path fill="none" stroke="black" d="M732.5,-1219.43C732.5,-1211.03 732.5,-1201.6 732.5,-1191.84"/>
<polygon fill="black" stroke="black" points="736,-1191.59 732.5,-1181.59 729,-1191.59 736,-1191.59"/>
</g>
<!-- Node0x1d864a60 -->
<g id="node3" class="node"><title>Node0x1d864a60</title>
<polygon fill="none" stroke="black" points="680,-949.5 680,-985.5 785,-985.5 785,-949.5 680,-949.5"/>
<text text-anchor="start" x="688" y="-963.8" font-family="Times,serif" font-size="14.00">if (v6 == 0):</text>
</g>
<!-- Node0xb5d1460&#45;&gt;Node0x1d864a60 -->
<g id="edge2" class="edge"><title>Node0xb5d1460&#45;&gt;Node0x1d864a60</title>
<path fill="none" stroke="black" d="M732.5,-1023.36C732.5,-1013.46 732.5,-1003.9 732.5,-995.625"/>
<polygon fill="black" stroke="black" points="736,-995.552 732.5,-985.552 729,-995.552 736,-995.552"/>
</g>
<!-- Node0x1d8650c0 -->
<g id="node4" class="node"><title>Node0x1d8650c0</title>
<polygon fill="none" stroke="black" points="622.5,-844.5 622.5,-897.5 698.5,-897.5 698.5,-844.5 622.5,-844.5"/>
<text text-anchor="start" x="630.5" y="-882.3" font-family="Times,serif" font-size="14.00">str = g3</text>
<text text-anchor="start" x="630.5" y="-867.3" font-family="Times,serif" font-size="14.00"> len = 0</text>
<text text-anchor="start" x="630.5" y="-852.3" font-family="Times,serif" font-size="14.00"> v7 = 0</text>
</g>
<!-- Node0x1d864a60&#45;&gt;Node0x1d8650c0 -->
<g id="edge3" class="edge"><title>Node0x1d864a60&#45;&gt;Node0x1d8650c0</title>
<path fill="none" stroke="black" d="M718.146,-949.32C713.414,-943.552 708.168,-937.048 703.5,-931 697.349,-923.032 690.877,-914.33 684.874,-906.116"/>
<polygon fill="black" stroke="black" points="687.531,-903.818 678.822,-897.784 681.867,-907.932 687.531,-903.818"/>
<text text-anchor="middle" x="733.5" y="-919.8" font-family="Times,serif" font-size="14.00">v6 == 0</text>
</g>
<!-- Node0x1d864fb0 -->
<g id="node5" class="node"><title>Node0x1d864fb0</title>
<polygon fill="none" stroke="black" points="578,-97.5 578,-165.5 691,-165.5 691,-97.5 578,-97.5"/>
<text text-anchor="start" x="586" y="-150.3" font-family="Times,serif" font-size="14.00">0x804f36c:</text>
<text text-anchor="start" x="586" y="-135.3" font-family="Times,serif" font-size="14.00"> g3 = v4</text>
<text text-anchor="start" x="586" y="-120.3" font-family="Times,serif" font-size="14.00"> g7 = v3</text>
<text text-anchor="start" x="586" y="-105.3" font-family="Times,serif" font-size="14.00"> return result</text>
</g>
<!-- Node0x1d864a60&#45;&gt;Node0x1d864fb0 -->
<g id="edge4" class="edge"><title>Node0x1d864a60&#45;&gt;Node0x1d864fb0</title>
<path fill="none" stroke="black" d="M750.448,-949.337C755.297,-943.879 760.129,-937.547 763.5,-931 775.835,-907.038 777.5,-898.95 777.5,-872 777.5,-872 777.5,-872 777.5,-236.5 777.5,-195.183 737.972,-168.563 700.48,-152.608"/>
<polygon fill="black" stroke="black" points="701.6,-149.285 691.017,-148.779 698.974,-155.774 701.6,-149.285"/>
<text text-anchor="middle" x="804.5" y="-559.8" font-family="Times,serif" font-size="14.00">v6 != 0</text>
</g>
<!-- Node0x1d865140 -->
<g id="node6" class="node"><title>Node0x1d865140</title>
<polygon fill="none" stroke="black" points="538.5,-770.5 538.5,-806.5 640.5,-806.5 640.5,-770.5 538.5,-770.5"/>
<text text-anchor="start" x="546.5" y="-784.8" font-family="Times,serif" font-size="14.00">if (str != 0):</text>
</g>
<!-- Node0x1d8650c0&#45;&gt;Node0x1d865140 -->
<g id="edge5" class="edge"><title>Node0x1d8650c0&#45;&gt;Node0x1d865140</title>
<path fill="none" stroke="black" d="M637.644,-844.086C629.283,-834.606 619.846,-823.906 611.556,-814.507"/>
<polygon fill="black" stroke="black" points="614.151,-812.158 604.911,-806.974 608.901,-816.788 614.151,-812.158"/>
</g>
<!-- Node0x9c406e0 -->
<g id="node7" class="node"><title>Node0x9c406e0</title>
<polygon fill="none" stroke="black" points="607.5,-23.5 607.5,-59.5 661.5,-59.5 661.5,-23.5 607.5,-23.5"/>
<text text-anchor="start" x="615.5" y="-37.8" font-family="Times,serif" font-size="14.00">exit:</text>
</g>
<!-- Node0x1d864fb0&#45;&gt;Node0x9c406e0 -->
<g id="edge6" class="edge"><title>Node0x1d864fb0&#45;&gt;Node0x9c406e0</title>
<path fill="none" stroke="black" d="M634.5,-97.4817C634.5,-88.3281 634.5,-78.4972 634.5,-69.7155"/>
<polygon fill="black" stroke="black" points="638,-69.6402 634.5,-59.6402 631,-69.6403 638,-69.6402"/>
</g>
<!-- Node0xe80f260 -->
<g id="node8" class="node"><title>Node0xe80f260</title>
<polygon fill="none" stroke="black" points="429.5,-665.5 429.5,-718.5 749.5,-718.5 749.5,-665.5 429.5,-665.5"/>
<text text-anchor="start" x="437.5" y="-703.3" font-family="Times,serif" font-size="14.00">0x804f31f:</text>
<text text-anchor="start" x="437.5" y="-688.3" font-family="Times,serif" font-size="14.00"> len = strlen(IntToPtrCastExpr&lt;ptr&gt;(str))</text>
<text text-anchor="start" x="437.5" y="-673.3" font-family="Times,serif" font-size="14.00"> v7 = g3</text>
</g>
<!-- Node0x1d865140&#45;&gt;Node0xe80f260 -->
<g id="edge7" class="edge"><title>Node0x1d865140&#45;&gt;Node0xe80f260</title>
<path fill="none" stroke="black" d="M589.5,-770.167C589.5,-758.703 589.5,-743.247 589.5,-729.178"/>
<polygon fill="black" stroke="black" points="593,-728.78 589.5,-718.78 586,-728.78 593,-728.78"/>
<text text-anchor="middle" x="618" y="-740.8" font-family="Times,serif" font-size="14.00">str != 0</text>
</g>
<!-- Node0x1d8651c0 -->
<g id="node9" class="node"><title>Node0x1d8651c0</title>
<polygon fill="none" stroke="black" points="131.5,-589.5 131.5,-627.5 687.5,-627.5 687.5,-589.5 131.5,-589.5"/>
<text text-anchor="start" x="139.5" y="-612.3" font-family="Times,serif" font-size="14.00">v8 = mbedtls_pk_parse_key(g7, PtrToIntCastExpr&lt;int32&gt;(v2), v5, v7, len)</text>
<text text-anchor="start" x="139.5" y="-597.3" font-family="Times,serif" font-size="14.00"> v9 = PtrToIntCastExpr&lt;int32&gt;(v2)</text>
</g>
<!-- Node0x1d865140&#45;&gt;Node0x1d8651c0 -->
<g id="edge8" class="edge"><title>Node0x1d865140&#45;&gt;Node0x1d8651c0</title>
<path fill="none" stroke="black" d="M538.476,-779.651C476.985,-769.029 379.185,-748.014 357.5,-719 343.132,-699.776 348.678,-687.32 357.5,-665 361.967,-653.698 369.944,-643.349 378.329,-634.728"/>
<polygon fill="black" stroke="black" points="380.942,-637.071 385.725,-627.617 376.091,-632.025 380.942,-637.071"/>
<text text-anchor="middle" x="389" y="-688.3" font-family="Times,serif" font-size="14.00">str == 0</text>
</g>
<!-- Node0xe80f260&#45;&gt;Node0x1d8651c0 -->
<g id="edge9" class="edge"><title>Node0xe80f260&#45;&gt;Node0x1d8651c0</title>
<path fill="none" stroke="black" d="M533.041,-665.437C509.209,-654.646 481.715,-642.197 458.723,-631.787"/>
<polygon fill="black" stroke="black" points="460.051,-628.546 449.498,-627.61 457.164,-634.923 460.051,-628.546"/>
</g>
<!-- Node0xe7b96c0 -->
<g id="node10" class="node"><title>Node0xe7b96c0</title>
<polygon fill="none" stroke="black" points="360,-501.5 360,-537.5 459,-537.5 459,-501.5 360,-501.5"/>
<text text-anchor="start" x="368" y="-515.8" font-family="Times,serif" font-size="14.00">if (v5 != 0):</text>
</g>
<!-- Node0x1d8651c0&#45;&gt;Node0xe7b96c0 -->
<g id="edge10" class="edge"><title>Node0x1d8651c0&#45;&gt;Node0xe7b96c0</title>
<path fill="none" stroke="black" d="M409.5,-589.474C409.5,-577.456 409.5,-561.434 409.5,-547.857"/>
<polygon fill="black" stroke="black" points="413,-547.615 409.5,-537.615 406,-547.615 413,-547.615"/>
</g>
<!-- Node0xb4ce970 -->
<g id="node11" class="node"><title>Node0xb4ce970</title>
<polygon fill="none" stroke="black" points="322.5,-411.5 322.5,-449.5 588.5,-449.5 588.5,-411.5 322.5,-411.5"/>
<text text-anchor="start" x="330.5" y="-434.3" font-family="Times,serif" font-size="14.00">*(IntToPtrCastExpr&lt;ptr&gt;(v9)) = 0</text>
<text text-anchor="start" x="330.5" y="-419.3" font-family="Times,serif" font-size="14.00"> v10 = (v5 &#45; 1)</text>
</g>
<!-- Node0xe7b96c0&#45;&gt;Node0xb4ce970 -->
<g id="edge11" class="edge"><title>Node0xe7b96c0&#45;&gt;Node0xb4ce970</title>
<path fill="none" stroke="black" d="M418.588,-501.312C425.013,-489.161 433.757,-472.622 441.123,-458.692"/>
<polygon fill="black" stroke="black" points="444.376,-460.028 445.956,-449.551 438.187,-456.756 444.376,-460.028"/>
<text text-anchor="middle" x="462.5" y="-471.8" font-family="Times,serif" font-size="14.00">v5 != 0</text>
</g>
<!-- Node0x1d865500 -->
<g id="node12" class="node"><title>Node0x1d865500</title>
<polygon fill="none" stroke="black" points="0,-211 0,-264 461,-264 461,-211 0,-211"/>
<text text-anchor="start" x="8" y="-248.8" font-family="Times,serif" font-size="14.00">0x804f35e:</text>
<text text-anchor="start" x="8" y="-233.8" font-family="Times,serif" font-size="14.00"> free(IntToPtrCastExpr&lt;ptr&gt;(PtrToIntCastExpr&lt;int32&gt;(v2)))</text>
<text text-anchor="start" x="8" y="-218.8" font-family="Times,serif" font-size="14.00"> result = v8</text>
</g>
<!-- Node0xe7b96c0&#45;&gt;Node0x1d865500 -->
<g id="edge12" class="edge"><title>Node0xe7b96c0&#45;&gt;Node0x1d865500</title>
<path fill="none" stroke="black" d="M376.37,-501.395C355.887,-489.386 330.376,-471.632 313.5,-450 271.633,-396.333 248.496,-318.92 237.862,-274.157"/>
<polygon fill="black" stroke="black" points="241.251,-273.279 235.601,-264.317 234.429,-274.847 241.251,-273.279"/>
<text text-anchor="middle" x="308.5" y="-381.8" font-family="Times,serif" font-size="14.00">v5 == 0</text>
</g>
<!-- Node0xb4cea10 -->
<g id="node13" class="node"><title>Node0xb4cea10</title>
<polygon fill="none" stroke="black" points="411,-323.5 411,-359.5 548,-359.5 548,-323.5 411,-323.5"/>
<text text-anchor="start" x="419" y="-337.8" font-family="Times,serif" font-size="14.00">while (v10 != 0):</text>
</g>
<!-- Node0xb4ce970&#45;&gt;Node0xb4cea10 -->
<g id="edge13" class="edge"><title>Node0xb4ce970&#45;&gt;Node0xb4cea10</title>
<path fill="none" stroke="black" d="M460.473,-411.474C463.821,-399.337 468.296,-383.116 472.064,-369.454"/>
<polygon fill="black" stroke="black" points="475.493,-370.186 474.779,-359.615 468.745,-368.325 475.493,-370.186"/>
</g>
<!-- Node0x1d865500&#45;&gt;Node0x1d864fb0 -->
<g id="edge14" class="edge"><title>Node0x1d865500&#45;&gt;Node0x1d864fb0</title>
<path fill="none" stroke="black" d="M329.588,-210.992C403.806,-191.886 503.315,-166.27 568.154,-149.579"/>
<polygon fill="black" stroke="black" points="569.046,-152.964 577.858,-147.081 567.301,-146.185 569.046,-152.964"/>
</g>
<!-- Node0xb4cea10&#45;&gt;Node0x1d865500 -->
<g id="edge16" class="edge"><title>Node0xb4cea10&#45;&gt;Node0x1d865500</title>
<path fill="none" stroke="black" d="M437.823,-323.427C400.934,-308.316 346.292,-285.933 302.364,-267.938"/>
<polygon fill="black" stroke="black" points="303.459,-264.605 292.879,-264.053 300.806,-271.082 303.459,-264.605"/>
<text text-anchor="middle" x="427" y="-293.8" font-family="Times,serif" font-size="14.00">v10 == 0</text>
</g>
<!-- Node0xb4cef00 -->
<g id="node14" class="node"><title>Node0xb4cef00</title>
<polygon fill="none" stroke="black" points="479.5,-203.5 479.5,-271.5 749.5,-271.5 749.5,-203.5 479.5,-203.5"/>
<text text-anchor="start" x="487.5" y="-256.3" font-family="Times,serif" font-size="14.00">0x804f350:</text>
<text text-anchor="start" x="487.5" y="-241.3" font-family="Times,serif" font-size="14.00"> v9 = (v9 + 1)</text>
<text text-anchor="start" x="487.5" y="-226.3" font-family="Times,serif" font-size="14.00"> *(IntToPtrCastExpr&lt;ptr&gt;(v9)) = 0</text>
<text text-anchor="start" x="487.5" y="-211.3" font-family="Times,serif" font-size="14.00"> v10 = (v10 &#45; 1)</text>
</g>
<!-- Node0xb4cea10&#45;&gt;Node0xb4cef00 -->
<g id="edge15" class="edge"><title>Node0xb4cea10&#45;&gt;Node0xb4cef00</title>
<path fill="none" stroke="black" d="M502.096,-323.427C518.596,-310.961 541.647,-293.544 562.583,-277.726"/>
<polygon fill="black" stroke="black" points="564.919,-280.348 570.788,-271.527 560.699,-274.763 564.919,-280.348"/>
<text text-anchor="middle" x="575" y="-293.8" font-family="Times,serif" font-size="14.00">v10 != 0</text>
</g>
<!-- Node0xb4cef00&#45;&gt;Node0xb4cea10 -->
<g id="edge17" class="edge"><title>Node0xb4cef00&#45;&gt;Node0xb4cea10</title>
<path fill="none" stroke="black" d="M549.557,-271.617C540.474,-277.275 531.516,-283.457 523.5,-290 514.489,-297.355 505.801,-306.673 498.561,-315.296"/>
<polygon fill="black" stroke="black" points="495.679,-313.293 492.099,-323.265 501.116,-317.702 495.679,-313.293"/>
</g>
</g>
</svg>
