<?xml version="1.0" encoding="UTF-8" standalone="no"?>
<!DOCTYPE svg PUBLIC "-//W3C//DTD SVG 1.1//EN"
 "http://www.w3.org/Graphics/SVG/1.1/DTD/svg11.dtd">
<!-- Generated by graphviz version 2.38.0 (20140413.2041)
 -->
<!-- Title: Control&#45;flow graph for function &#39;aes_crypt_ecb_wrap(a1)&#39;. Pages: 1 -->
<svg width="438pt" height="278pt"
 viewBox="0.00 0.00 438.00 278.00" xmlns="http://www.w3.org/2000/svg" xmlns:xlink="http://www.w3.org/1999/xlink">
<g id="graph0" class="graph" transform="scale(1 1) rotate(0) translate(4 274)">
<title>Control&#45;flow graph for function &#39;aes_crypt_ecb_wrap(a1)&#39;.</title>
<polygon fill="white" stroke="none" points="-4,4 -4,-274 434,-274 434,4 -4,4"/>
<text text-anchor="middle" x="215" y="-7.8" font-family="Times,serif" font-size="14.00">Control&#45;flow graph for function &#39;aes_crypt_ecb_wrap(a1)&#39;.</text>
<!-- Node0x99ccad0 -->
<g id="node1" class="node"><title>Node0x99ccad0</title>
<polygon fill="none" stroke="black" points="185.5,-231.5 185.5,-269.5 244.5,-269.5 244.5,-231.5 185.5,-231.5"/>
<text text-anchor="start" x="193.5" y="-254.3" font-family="Times,serif" font-size="14.00">entry:</text>
<text text-anchor="start" x="193.5" y="-239.3" font-family="Times,serif" font-size="14.00"> a1</text>
</g>
<!-- Node0x99cca30 -->
<g id="node2" class="node"><title>Node0x99cca30</title>
<polygon fill="none" stroke="black" points="71.5,-96.5 71.5,-194.5 358.5,-194.5 358.5,-96.5 71.5,-96.5"/>
<text text-anchor="start" x="79.5" y="-179.3" font-family="Times,serif" font-size="14.00">0x806aac0:</text>
<text text-anchor="start" x="79.5" y="-164.3" font-family="Times,serif" font-size="14.00"> v1</text>
<text text-anchor="start" x="79.5" y="-149.3" font-family="Times,serif" font-size="14.00"> v2</text>
<text text-anchor="start" x="79.5" y="-134.3" font-family="Times,serif" font-size="14.00"> mbedtls_aes_crypt_ecb(v2, v1, a1, 0)</text>
<text text-anchor="start" x="79.5" y="-119.3" font-family="Times,serif" font-size="14.00"> g1 = 0</text>
<text text-anchor="start" x="79.5" y="-104.3" font-family="Times,serif" font-size="14.00"> return 0</text>
</g>
<!-- Node0x99ccad0&#45;&gt;Node0x99cca30 -->
<g id="edge1" class="edge"><title>Node0x99ccad0&#45;&gt;Node0x99cca30</title>
<path fill="none" stroke="black" d="M215,-231.086C215,-223.607 215,-214.513 215,-205.097"/>
<polygon fill="black" stroke="black" points="218.5,-204.814 215,-194.814 211.5,-204.815 218.5,-204.814"/>
</g>
<!-- Node0xb7fa580 -->
<g id="node3" class="node"><title>Node0xb7fa580</title>
<polygon fill="none" stroke="black" points="188,-23.5 188,-59.5 242,-59.5 242,-23.5 188,-23.5"/>
<text text-anchor="start" x="196" y="-37.8" font-family="Times,serif" font-size="14.00">exit:</text>
</g>
<!-- Node0x99cca30&#45;&gt;Node0xb7fa580 -->
<g id="edge2" class="edge"><title>Node0x99cca30&#45;&gt;Node0xb7fa580</title>
<path fill="none" stroke="black" d="M215,-96.4868C215,-87.2893 215,-77.9618 215,-69.7064"/>
<polygon fill="black" stroke="black" points="218.5,-69.5725 215,-59.5725 211.5,-69.5725 218.5,-69.5725"/>
</g>
</g>
</svg>
