<?xml version="1.0" encoding="UTF-8" standalone="no"?>
<!DOCTYPE svg PUBLIC "-//W3C//DTD SVG 1.1//EN"
 "http://www.w3.org/Graphics/SVG/1.1/DTD/svg11.dtd">
<!-- Generated by graphviz version 2.38.0 (20140413.2041)
 -->
<!-- Title: Control&#45;flow graph for function &#39;ecp_mul_comb(*a1, a2, a3, a4, a5, a6)&#39;. Pages: 1 -->
<svg width="537pt" height="368pt"
 viewBox="0.00 0.00 537.00 368.00" xmlns="http://www.w3.org/2000/svg" xmlns:xlink="http://www.w3.org/1999/xlink">
<g id="graph0" class="graph" transform="scale(1 1) rotate(0) translate(4 364)">
<title>Control&#45;flow graph for function &#39;ecp_mul_comb(*a1, a2, a3, a4, a5, a6)&#39;.</title>
<polygon fill="white" stroke="none" points="-4,4 -4,-364 533,-364 533,4 -4,4"/>
<text text-anchor="middle" x="264.5" y="-7.8" font-family="Times,serif" font-size="14.00">Control&#45;flow graph for function &#39;ecp_mul_comb(*a1, a2, a3, a4, a5, a6)&#39;.</text>
<!-- Node0x14336ed0 -->
<g id="node1" class="node"><title>Node0x14336ed0</title>
<polygon fill="none" stroke="black" points="235,-246.5 235,-359.5 294,-359.5 294,-246.5 235,-246.5"/>
<text text-anchor="start" x="243" y="-344.3" font-family="Times,serif" font-size="14.00">entry:</text>
<text text-anchor="start" x="243" y="-329.3" font-family="Times,serif" font-size="14.00"> a1</text>
<text text-anchor="start" x="243" y="-314.3" font-family="Times,serif" font-size="14.00"> a2</text>
<text text-anchor="start" x="243" y="-299.3" font-family="Times,serif" font-size="14.00"> a3</text>
<text text-anchor="start" x="243" y="-284.3" font-family="Times,serif" font-size="14.00"> a4</text>
<text text-anchor="start" x="243" y="-269.3" font-family="Times,serif" font-size="14.00"> a5</text>
<text text-anchor="start" x="243" y="-254.3" font-family="Times,serif" font-size="14.00"> a6</text>
</g>
<!-- Node0xbec62a0 -->
<g id="node2" class="node"><title>Node0xbec62a0</title>
<polygon fill="none" stroke="black" points="131,-96.5 131,-209.5 398,-209.5 398,-96.5 131,-96.5"/>
<text text-anchor="start" x="139" y="-194.3" font-family="Times,serif" font-size="14.00">g3 = g1</text>
<text text-anchor="start" x="139" y="-179.3" font-family="Times,serif" font-size="14.00"> v1</text>
<text text-anchor="start" x="139" y="-164.3" font-family="Times,serif" font-size="14.00"> mbedtls_mpi_init(&amp;(v1))</text>
<text text-anchor="start" x="139" y="-149.3" font-family="Times,serif" font-size="14.00"> v2</text>
<text text-anchor="start" x="139" y="-134.3" font-family="Times,serif" font-size="14.00"> mbedtls_mpi_init(&amp;(v2))</text>
<text text-anchor="start" x="139" y="-119.3" font-family="Times,serif" font-size="14.00"> mbedtls_mpi_get_bit((g1 + 76), 0)</text>
<text text-anchor="start" x="139" y="-104.3" font-family="Times,serif" font-size="14.00"> return &#45;20352</text>
</g>
<!-- Node0x14336ed0&#45;&gt;Node0xbec62a0 -->
<g id="edge1" class="edge"><title>Node0x14336ed0&#45;&gt;Node0xbec62a0</title>
<path fill="none" stroke="black" d="M264.5,-246.469C264.5,-237.862 264.5,-228.899 264.5,-220.087"/>
<polygon fill="black" stroke="black" points="268,-219.842 264.5,-209.842 261,-219.842 268,-219.842"/>
</g>
<!-- Node0xbec83d0 -->
<g id="node3" class="node"><title>Node0xbec83d0</title>
<polygon fill="none" stroke="black" points="237.5,-23.5 237.5,-59.5 291.5,-59.5 291.5,-23.5 237.5,-23.5"/>
<text text-anchor="start" x="245.5" y="-37.8" font-family="Times,serif" font-size="14.00">exit:</text>
</g>
<!-- Node0xbec62a0&#45;&gt;Node0xbec83d0 -->
<g id="edge2" class="edge"><title>Node0xbec62a0&#45;&gt;Node0xbec83d0</title>
<path fill="none" stroke="black" d="M264.5,-96.2876C264.5,-87.1343 264.5,-78.0169 264.5,-69.9591"/>
<polygon fill="black" stroke="black" points="268,-69.7241 264.5,-59.7242 261,-69.7242 268,-69.7241"/>
</g>
</g>
</svg>
