<?xml version="1.0" encoding="UTF-8" standalone="no"?>
<!DOCTYPE svg PUBLIC "-//W3C//DTD SVG 1.1//EN"
 "http://www.w3.org/Graphics/SVG/1.1/DTD/svg11.dtd">
<!-- Generated by graphviz version 2.38.0 (20140413.2041)
 -->
<!-- Title: Control&#45;flow graph for function &#39;mbedtls_sha512_init(*a1)&#39;. Pages: 1 -->
<svg width="448pt" height="233pt"
 viewBox="0.00 0.00 448.00 233.00" xmlns="http://www.w3.org/2000/svg" xmlns:xlink="http://www.w3.org/1999/xlink">
<g id="graph0" class="graph" transform="scale(1 1) rotate(0) translate(4 229)">
<title>Control&#45;flow graph for function &#39;mbedtls_sha512_init(*a1)&#39;.</title>
<polygon fill="white" stroke="none" points="-4,4 -4,-229 444,-229 444,4 -4,4"/>
<text text-anchor="middle" x="220" y="-7.8" font-family="Times,serif" font-size="14.00">Control&#45;flow graph for function &#39;mbedtls_sha512_init(*a1)&#39;.</text>
<!-- Node0x29dba430 -->
<g id="node1" class="node"><title>Node0x29dba430</title>
<polygon fill="none" stroke="black" points="190.5,-186.5 190.5,-224.5 249.5,-224.5 249.5,-186.5 190.5,-186.5"/>
<text text-anchor="start" x="198.5" y="-209.3" font-family="Times,serif" font-size="14.00">entry:</text>
<text text-anchor="start" x="198.5" y="-194.3" font-family="Times,serif" font-size="14.00"> a1</text>
</g>
<!-- Node0xc116310 -->
<g id="node2" class="node"><title>Node0xc116310</title>
<polygon fill="none" stroke="black" points="144.5,-96.5 144.5,-149.5 295.5,-149.5 295.5,-96.5 144.5,-96.5"/>
<text text-anchor="start" x="152.5" y="-134.3" font-family="Times,serif" font-size="14.00">0x8055030:</text>
<text text-anchor="start" x="152.5" y="-119.3" font-family="Times,serif" font-size="14.00"> memset(a1, 0, 53)</text>
<text text-anchor="start" x="152.5" y="-104.3" font-family="Times,serif" font-size="14.00"> return 0</text>
</g>
<!-- Node0x29dba430&#45;&gt;Node0xc116310 -->
<g id="edge1" class="edge"><title>Node0x29dba430&#45;&gt;Node0xc116310</title>
<path fill="none" stroke="black" d="M220,-186.233C220,-178.347 220,-168.835 220,-159.648"/>
<polygon fill="black" stroke="black" points="223.5,-159.517 220,-149.517 216.5,-159.517 223.5,-159.517"/>
</g>
<!-- Node0xbf17820 -->
<g id="node3" class="node"><title>Node0xbf17820</title>
<polygon fill="none" stroke="black" points="193,-23.5 193,-59.5 247,-59.5 247,-23.5 193,-23.5"/>
<text text-anchor="start" x="201" y="-37.8" font-family="Times,serif" font-size="14.00">exit:</text>
</g>
<!-- Node0xc116310&#45;&gt;Node0xbf17820 -->
<g id="edge2" class="edge"><title>Node0xc116310&#45;&gt;Node0xbf17820</title>
<path fill="none" stroke="black" d="M220,-96.4081C220,-87.9823 220,-78.5803 220,-70.0174"/>
<polygon fill="black" stroke="black" points="223.5,-69.7564 220,-59.7564 216.5,-69.7565 223.5,-69.7564"/>
</g>
</g>
</svg>
