<?xml version="1.0" encoding="UTF-8" standalone="no"?>
<!DOCTYPE svg PUBLIC "-//W3C//DTD SVG 1.1//EN"
 "http://www.w3.org/Graphics/SVG/1.1/DTD/svg11.dtd">
<!-- Generated by graphviz version 2.38.0 (20140413.2041)
 -->
<!-- Title: Control&#45;flow graph for function &#39;randstring(a1)&#39;. Pages: 1 -->
<svg width="2281pt" height="1268pt"
 viewBox="0.00 0.00 2281.00 1268.00" xmlns="http://www.w3.org/2000/svg" xmlns:xlink="http://www.w3.org/1999/xlink">
<g id="graph0" class="graph" transform="scale(1 1) rotate(0) translate(4 1264)">
<title>Control&#45;flow graph for function &#39;randstring(a1)&#39;.</title>
<polygon fill="white" stroke="none" points="-4,4 -4,-1264 2277,-1264 2277,4 -4,4"/>
<text text-anchor="middle" x="1136.5" y="-7.8" font-family="Times,serif" font-size="14.00">Control&#45;flow graph for function &#39;randstring(a1)&#39;.</text>
<!-- Node0x17c86630 -->
<g id="node1" class="node"><title>Node0x17c86630</title>
<polygon fill="none" stroke="black" points="91,-1221.5 91,-1259.5 150,-1259.5 150,-1221.5 91,-1221.5"/>
<text text-anchor="start" x="99" y="-1244.3" font-family="Times,serif" font-size="14.00">entry:</text>
<text text-anchor="start" x="99" y="-1229.3" font-family="Times,serif" font-size="14.00"> a1</text>
</g>
<!-- Node0x17c8a540 -->
<g id="node2" class="node"><title>Node0x17c8a540</title>
<polygon fill="none" stroke="black" points="70,-1130.5 70,-1183.5 171,-1183.5 171,-1130.5 70,-1130.5"/>
<text text-anchor="start" x="78" y="-1168.3" font-family="Times,serif" font-size="14.00">0x8048220:</text>
<text text-anchor="start" x="78" y="-1153.3" font-family="Times,serif" font-size="14.00"> v1</text>
<text text-anchor="start" x="78" y="-1138.3" font-family="Times,serif" font-size="14.00"> result</text>
</g>
<!-- Node0x17c86630&#45;&gt;Node0x17c8a540 -->
<g id="edge1" class="edge"><title>Node0x17c86630&#45;&gt;Node0x17c8a540</title>
<path fill="none" stroke="black" d="M120.5,-1221.41C120.5,-1213.28 120.5,-1203.39 120.5,-1193.86"/>
<polygon fill="black" stroke="black" points="124,-1193.77 120.5,-1183.77 117,-1193.77 124,-1193.77"/>
</g>
<!-- Node0x17c86790 -->
<g id="node3" class="node"><title>Node0x17c86790</title>
<polygon fill="none" stroke="black" points="68,-1056.5 68,-1092.5 173,-1092.5 173,-1056.5 68,-1056.5"/>
<text text-anchor="start" x="76" y="-1070.8" font-family="Times,serif" font-size="14.00">if (a1 == 0):</text>
</g>
<!-- Node0x17c8a540&#45;&gt;Node0x17c86790 -->
<g id="edge2" class="edge"><title>Node0x17c8a540&#45;&gt;Node0x17c86790</title>
<path fill="none" stroke="black" d="M120.5,-1130.09C120.5,-1121.46 120.5,-1111.82 120.5,-1103.07"/>
<polygon fill="black" stroke="black" points="124,-1102.97 120.5,-1092.97 117,-1102.97 124,-1102.97"/>
</g>
<!-- Node0x17c896f0 -->
<g id="node4" class="node"><title>Node0x17c896f0</title>
<polygon fill="none" stroke="black" points="0,-879.5 0,-947.5 113,-947.5 113,-879.5 0,-879.5"/>
<text text-anchor="start" x="8" y="-932.3" font-family="Times,serif" font-size="14.00">result = 0</text>
<text text-anchor="start" x="8" y="-917.3" font-family="Times,serif" font-size="14.00"> g1 = result</text>
<text text-anchor="start" x="8" y="-902.3" font-family="Times,serif" font-size="14.00"> g2 = v1</text>
<text text-anchor="start" x="8" y="-887.3" font-family="Times,serif" font-size="14.00"> return result</text>
</g>
<!-- Node0x17c86790&#45;&gt;Node0x17c896f0 -->
<g id="edge3" class="edge"><title>Node0x17c86790&#45;&gt;Node0x17c896f0</title>
<path fill="none" stroke="black" d="M106.504,-1056.22C96.4384,-1042.96 83.3127,-1023.79 75.5,-1005 69.3395,-990.186 65.0934,-973.146 62.2058,-957.876"/>
<polygon fill="black" stroke="black" points="65.5857,-956.884 60.4168,-947.636 58.6901,-958.089 65.5857,-956.884"/>
<text text-anchor="middle" x="123.5" y="-1026.8" font-family="Times,serif" font-size="14.00">a1 == 0</text>
</g>
<!-- Node0x17c868e0 -->
<g id="node5" class="node"><title>Node0x17c868e0</title>
<polygon fill="none" stroke="black" points="84.5,-966.5 84.5,-1004.5 378.5,-1004.5 378.5,-966.5 84.5,-966.5"/>
<text text-anchor="start" x="92.5" y="-989.3" font-family="Times,serif" font-size="14.00">mem = malloc((a1 + 1))</text>
<text text-anchor="start" x="92.5" y="-974.3" font-family="Times,serif" font-size="14.00"> v2 = PtrToIntCastExpr&lt;int32&gt;(mem)</text>
</g>
<!-- Node0x17c86790&#45;&gt;Node0x17c868e0 -->
<g id="edge4" class="edge"><title>Node0x17c86790&#45;&gt;Node0x17c868e0</title>
<path fill="none" stroke="black" d="M142.43,-1056.31C158.977,-1043.34 181.9,-1025.38 200.347,-1010.92"/>
<polygon fill="black" stroke="black" points="202.758,-1013.47 208.469,-1004.55 198.439,-1007.97 202.758,-1013.47"/>
<text text-anchor="middle" x="210.5" y="-1026.8" font-family="Times,serif" font-size="14.00">a1 != 0</text>
</g>
<!-- Node0x17c89f20 -->
<g id="node6" class="node"><title>Node0x17c89f20</title>
<polygon fill="none" stroke="black" points="67.5,-23.5 67.5,-59.5 121.5,-59.5 121.5,-23.5 67.5,-23.5"/>
<text text-anchor="start" x="75.5" y="-37.8" font-family="Times,serif" font-size="14.00">exit:</text>
</g>
<!-- Node0x17c896f0&#45;&gt;Node0x17c89f20 -->
<g id="edge5" class="edge"><title>Node0x17c896f0&#45;&gt;Node0x17c89f20</title>
<path fill="none" stroke="black" d="M56.5,-879.372C56.5,-856.849 56.5,-826.377 56.5,-799.5 56.5,-799.5 56.5,-799.5 56.5,-145.5 56.5,-118.021 68.5515,-88.8264 79.0808,-68.5629"/>
<polygon fill="black" stroke="black" points="82.2239,-70.1088 83.9149,-59.6497 76.0707,-66.7714 82.2239,-70.1088"/>
</g>
<!-- Node0x17c869d0 -->
<g id="node7" class="node"><title>Node0x17c869d0</title>
<polygon fill="none" stroke="black" points="152.5,-824.5 152.5,-860.5 310.5,-860.5 310.5,-824.5 152.5,-824.5"/>
<text text-anchor="start" x="160.5" y="-838.8" font-family="Times,serif" font-size="14.00">if (mem == NULL):</text>
</g>
<!-- Node0x17c868e0&#45;&gt;Node0x17c869d0 -->
<g id="edge6" class="edge"><title>Node0x17c868e0&#45;&gt;Node0x17c869d0</title>
<path fill="none" stroke="black" d="M231.5,-966.355C231.5,-942.192 231.5,-899.229 231.5,-871.053"/>
<polygon fill="black" stroke="black" points="235,-870.692 231.5,-860.692 228,-870.692 235,-870.692"/>
</g>
<!-- Node0x17c876a0 -->
<g id="node8" class="node"><title>Node0x17c876a0</title>
<polygon fill="none" stroke="black" points="98,-647.5 98,-715.5 211,-715.5 211,-647.5 98,-647.5"/>
<text text-anchor="start" x="106" y="-700.3" font-family="Times,serif" font-size="14.00">result = v2</text>
<text text-anchor="start" x="106" y="-685.3" font-family="Times,serif" font-size="14.00"> g1 = result</text>
<text text-anchor="start" x="106" y="-670.3" font-family="Times,serif" font-size="14.00"> g2 = v1</text>
<text text-anchor="start" x="106" y="-655.3" font-family="Times,serif" font-size="14.00"> return result</text>
</g>
<!-- Node0x17c869d0&#45;&gt;Node0x17c876a0 -->
<g id="edge7" class="edge"><title>Node0x17c869d0&#45;&gt;Node0x17c876a0</title>
<path fill="none" stroke="black" d="M223.26,-824.484C211.854,-800.933 190.877,-757.617 175.081,-724.998"/>
<polygon fill="black" stroke="black" points="178.077,-723.155 170.568,-715.68 171.777,-726.206 178.077,-723.155"/>
<text text-anchor="middle" x="269.5" y="-794.8" font-family="Times,serif" font-size="14.00">mem == NULL</text>
</g>
<!-- Node0x17c86bc0 -->
<g id="node9" class="node"><title>Node0x17c86bc0</title>
<polygon fill="none" stroke="black" points="974.5,-734.5 974.5,-772.5 1042.5,-772.5 1042.5,-734.5 974.5,-734.5"/>
<text text-anchor="start" x="982.5" y="-757.3" font-family="Times,serif" font-size="14.00">v3 = 0</text>
<text text-anchor="start" x="982.5" y="-742.3" font-family="Times,serif" font-size="14.00"> v4 = 0</text>
</g>
<!-- Node0x17c869d0&#45;&gt;Node0x17c86bc0 -->
<g id="edge8" class="edge"><title>Node0x17c869d0&#45;&gt;Node0x17c86bc0</title>
<path fill="none" stroke="black" d="M310.64,-832.639C472.581,-814.506 837.179,-773.683 964.006,-759.482"/>
<polygon fill="black" stroke="black" points="964.581,-762.94 974.129,-758.348 963.802,-755.983 964.581,-762.94"/>
<text text-anchor="middle" x="719.5" y="-794.8" font-family="Times,serif" font-size="14.00">mem != NULL</text>
</g>
<!-- Node0x17c876a0&#45;&gt;Node0x17c89f20 -->
<g id="edge9" class="edge"><title>Node0x17c876a0&#45;&gt;Node0x17c89f20</title>
<path fill="none" stroke="black" d="M125.906,-647.285C110.452,-625.947 94.5,-596.82 94.5,-567.5 94.5,-567.5 94.5,-567.5 94.5,-145.5 94.5,-119.765 94.5,-90.414 94.5,-69.6451"/>
<polygon fill="black" stroke="black" points="98.0001,-69.6312 94.5,-59.6313 91.0001,-69.6313 98.0001,-69.6312"/>
</g>
<!-- Node0x17c86c90 -->
<g id="node10" class="node"><title>Node0x17c86c90</title>
<polygon fill="none" stroke="black" points="1105,-592.5 1105,-628.5 1204,-628.5 1204,-592.5 1105,-592.5"/>
<text text-anchor="start" x="1113" y="-606.8" font-family="Times,serif" font-size="14.00">if (a1 != 0):</text>
</g>
<!-- Node0x17c86bc0&#45;&gt;Node0x17c86c90 -->
<g id="edge10" class="edge"><title>Node0x17c86bc0&#45;&gt;Node0x17c86c90</title>
<path fill="none" stroke="black" d="M1027.29,-734.355C1053.31,-709.229 1100.37,-663.777 1129.38,-635.759"/>
<polygon fill="black" stroke="black" points="1131.94,-638.157 1136.7,-628.692 1127.07,-633.122 1131.94,-638.157"/>
</g>
<!-- Node0x17c86940 -->
<g id="node11" class="node"><title>Node0x17c86940</title>
<polygon fill="none" stroke="black" points="193.5,-457.5 193.5,-540.5 2115.5,-540.5 2115.5,-457.5 193.5,-457.5"/>
<text text-anchor="start" x="201.5" y="-525.3" font-family="Times,serif" font-size="14.00">v5 = rand()</text>
<text text-anchor="start" x="201.5" y="-510.3" font-family="Times,serif" font-size="14.00"> v6 = *(IntToPtrCastExpr&lt;ptr&gt;((TruncCastExpr&lt;int32&gt;((((4294967296 * ExtCastExpr&lt;int64&gt;((v5 &gt;&gt; 31))) | ExtCastExpr&lt;int64&gt;(v5)) % 69)) + PtrToIntCastExpr&lt;int32&gt;(&quot;abcdefghijklmnopqrstuvwxyzABCDEFGHIJKLMNOPQRSTUVWXYZ0123456789,.&#45;#&#39;?!&quot;))))</text>
<text text-anchor="start" x="201.5" y="-495.3" font-family="Times,serif" font-size="14.00"> *(IntToPtrCastExpr&lt;ptr&gt;((v3 + v2))) = v6</text>
<text text-anchor="start" x="201.5" y="-480.3" font-family="Times,serif" font-size="14.00"> v7 = (v3 + 1)</text>
<text text-anchor="start" x="201.5" y="-465.3" font-family="Times,serif" font-size="14.00"> v3 = v7</text>
</g>
<!-- Node0x17c86c90&#45;&gt;Node0x17c86940 -->
<g id="edge11" class="edge"><title>Node0x17c86c90&#45;&gt;Node0x17c86940</title>
<path fill="none" stroke="black" d="M1154.5,-592.391C1154.5,-581.15 1154.5,-565.807 1154.5,-550.853"/>
<polygon fill="black" stroke="black" points="1158,-550.618 1154.5,-540.618 1151,-550.618 1158,-550.618"/>
<text text-anchor="middle" x="1181.5" y="-562.8" font-family="Times,serif" font-size="14.00">a1 != 0</text>
</g>
<!-- Node0xb10c310 -->
<g id="node12" class="node"><title>Node0xb10c310</title>
<polygon fill="none" stroke="black" points="1954,-97.5 1954,-195.5 2273,-195.5 2273,-97.5 1954,-97.5"/>
<text text-anchor="start" x="1962" y="-180.3" font-family="Times,serif" font-size="14.00">0x804826b:</text>
<text text-anchor="start" x="1962" y="-165.3" font-family="Times,serif" font-size="14.00"> *(IntToPtrCastExpr&lt;ptr&gt;((v2 + v4))) = 0</text>
<text text-anchor="start" x="1962" y="-150.3" font-family="Times,serif" font-size="14.00"> result = v2</text>
<text text-anchor="start" x="1962" y="-135.3" font-family="Times,serif" font-size="14.00"> g1 = result</text>
<text text-anchor="start" x="1962" y="-120.3" font-family="Times,serif" font-size="14.00"> g2 = v1</text>
<text text-anchor="start" x="1962" y="-105.3" font-family="Times,serif" font-size="14.00"> return result</text>
</g>
<!-- Node0x17c86c90&#45;&gt;Node0xb10c310 -->
<g id="edge12" class="edge"><title>Node0x17c86c90&#45;&gt;Node0xb10c310</title>
<path fill="none" stroke="black" d="M1204.22,-609.541C1411.03,-609.069 2192.5,-600.627 2192.5,-500 2192.5,-500 2192.5,-500 2192.5,-281.5 2192.5,-253.722 2179.75,-226.633 2164.49,-204.164"/>
<polygon fill="black" stroke="black" points="2167.18,-201.914 2158.54,-195.787 2161.48,-205.967 2167.18,-201.914"/>
<text text-anchor="middle" x="2222.5" y="-397.8" font-family="Times,serif" font-size="14.00">a1 == 0</text>
</g>
<!-- Node0x17c8a170 -->
<g id="node13" class="node"><title>Node0x17c8a170</title>
<polygon fill="none" stroke="black" points="1089.5,-383.5 1089.5,-419.5 1219.5,-419.5 1219.5,-383.5 1089.5,-383.5"/>
<text text-anchor="start" x="1097.5" y="-397.8" font-family="Times,serif" font-size="14.00">while (v7 &lt; a1):</text>
</g>
<!-- Node0x17c86940&#45;&gt;Node0x17c8a170 -->
<g id="edge13" class="edge"><title>Node0x17c86940&#45;&gt;Node0x17c8a170</title>
<path fill="none" stroke="black" d="M1154.5,-457.499C1154.5,-448.206 1154.5,-438.537 1154.5,-429.946"/>
<polygon fill="black" stroke="black" points="1158,-429.749 1154.5,-419.749 1151,-429.749 1158,-429.749"/>
</g>
<!-- Node0xb10c310&#45;&gt;Node0x17c89f20 -->
<g id="edge14" class="edge"><title>Node0xb10c310&#45;&gt;Node0x17c89f20</title>
<path fill="none" stroke="black" d="M1953.81,-137.353C1523.32,-115.392 356.152,-55.8483 132.009,-44.4135"/>
<polygon fill="black" stroke="black" points="131.928,-40.9049 121.762,-43.8908 131.571,-47.8958 131.928,-40.9049"/>
</g>
<!-- Node0x17c87c50 -->
<g id="node14" class="node"><title>Node0x17c87c50</title>
<polygon fill="none" stroke="black" points="122.5,-233.5 122.5,-331.5 2044.5,-331.5 2044.5,-233.5 122.5,-233.5"/>
<text text-anchor="start" x="130.5" y="-316.3" font-family="Times,serif" font-size="14.00">0x8048250:</text>
<text text-anchor="start" x="130.5" y="-301.3" font-family="Times,serif" font-size="14.00"> v5 = rand()</text>
<text text-anchor="start" x="130.5" y="-286.3" font-family="Times,serif" font-size="14.00"> v6 = *(IntToPtrCastExpr&lt;ptr&gt;((TruncCastExpr&lt;int32&gt;((((4294967296 * ExtCastExpr&lt;int64&gt;((v5 &gt;&gt; 31))) | ExtCastExpr&lt;int64&gt;(v5)) % 69)) + PtrToIntCastExpr&lt;int32&gt;(&quot;abcdefghijklmnopqrstuvwxyzABCDEFGHIJKLMNOPQRSTUVWXYZ0123456789,.&#45;#&#39;?!&quot;))))</text>
<text text-anchor="start" x="130.5" y="-271.3" font-family="Times,serif" font-size="14.00"> *(IntToPtrCastExpr&lt;ptr&gt;((v3 + v2))) = v6</text>
<text text-anchor="start" x="130.5" y="-256.3" font-family="Times,serif" font-size="14.00"> v7 = (v3 + 1)</text>
<text text-anchor="start" x="130.5" y="-241.3" font-family="Times,serif" font-size="14.00"> v3 = v7</text>
</g>
<!-- Node0x17c8a170&#45;&gt;Node0x17c87c50 -->
<g id="edge15" class="edge"><title>Node0x17c8a170&#45;&gt;Node0x17c87c50</title>
<path fill="none" stroke="black" d="M1103.91,-383.478C1096.21,-378.692 1089.25,-372.635 1084.5,-365 1080.14,-357.997 1077.71,-349.957 1076.57,-341.716"/>
<polygon fill="black" stroke="black" points="1080.05,-341.308 1075.76,-331.619 1073.07,-341.867 1080.05,-341.308"/>
<text text-anchor="middle" x="1112.5" y="-353.8" font-family="Times,serif" font-size="14.00">v7 &lt; a1</text>
</g>
<!-- Node0x17c8a250 -->
<g id="node15" class="node"><title>Node0x17c8a250</title>
<polygon fill="none" stroke="black" points="2063,-263.5 2063,-301.5 2164,-301.5 2164,-263.5 2063,-263.5"/>
<text text-anchor="start" x="2071" y="-286.3" font-family="Times,serif" font-size="14.00">0x8048267:</text>
<text text-anchor="start" x="2071" y="-271.3" font-family="Times,serif" font-size="14.00"> v4 = a1</text>
</g>
<!-- Node0x17c8a170&#45;&gt;Node0x17c8a250 -->
<g id="edge16" class="edge"><title>Node0x17c8a170&#45;&gt;Node0x17c8a250</title>
<path fill="none" stroke="black" d="M1219.55,-400.522C1399.68,-399.801 1901.65,-392.285 2053.5,-332 2066.66,-326.774 2079.19,-317.592 2089.36,-308.612"/>
<polygon fill="black" stroke="black" points="2092.03,-310.905 2096.97,-301.534 2087.27,-305.777 2092.03,-310.905"/>
<text text-anchor="middle" x="2016.5" y="-353.8" font-family="Times,serif" font-size="14.00">v7 &gt;= a1</text>
</g>
<!-- Node0x17c87c50&#45;&gt;Node0x17c8a170 -->
<g id="edge17" class="edge"><title>Node0x17c87c50&#45;&gt;Node0x17c8a170</title>
<path fill="none" stroke="black" d="M1129,-331.868C1133.26,-337.725 1137.21,-343.827 1140.5,-350 1144.37,-357.258 1147.25,-365.686 1149.36,-373.554"/>
<polygon fill="black" stroke="black" points="1145.99,-374.508 1151.71,-383.428 1152.8,-372.889 1145.99,-374.508"/>
</g>
<!-- Node0x17c8a250&#45;&gt;Node0xb10c310 -->
<g id="edge18" class="edge"><title>Node0x17c8a250&#45;&gt;Node0xb10c310</title>
<path fill="none" stroke="black" d="M2113.5,-263.428C2113.5,-248.51 2113.5,-226.476 2113.5,-205.612"/>
<polygon fill="black" stroke="black" points="2117,-205.5 2113.5,-195.5 2110,-205.5 2117,-205.5"/>
</g>
</g>
</svg>
