<?xml version="1.0" encoding="UTF-8" standalone="no"?>
<!DOCTYPE svg PUBLIC "-//W3C//DTD SVG 1.1//EN"
 "http://www.w3.org/Graphics/SVG/1.1/DTD/svg11.dtd">
<!-- Generated by graphviz version 2.38.0 (20140413.2041)
 -->
<!-- Title: Control&#45;flow graph for function &#39;__block_all_sigs(a1)&#39;. Pages: 1 -->
<svg width="406pt" height="338pt"
 viewBox="0.00 0.00 406.00 338.00" xmlns="http://www.w3.org/2000/svg" xmlns:xlink="http://www.w3.org/1999/xlink">
<g id="graph0" class="graph" transform="scale(1 1) rotate(0) translate(4 334)">
<title>Control&#45;flow graph for function &#39;__block_all_sigs(a1)&#39;.</title>
<polygon fill="white" stroke="none" points="-4,4 -4,-334 402,-334 402,4 -4,4"/>
<text text-anchor="middle" x="199" y="-7.8" font-family="Times,serif" font-size="14.00">Control&#45;flow graph for function &#39;__block_all_sigs(a1)&#39;.</text>
<!-- Node0x17cbaaf0 -->
<g id="node1" class="node"><title>Node0x17cbaaf0</title>
<polygon fill="none" stroke="black" points="169.5,-291.5 169.5,-329.5 228.5,-329.5 228.5,-291.5 169.5,-291.5"/>
<text text-anchor="start" x="177.5" y="-314.3" font-family="Times,serif" font-size="14.00">entry:</text>
<text text-anchor="start" x="177.5" y="-299.3" font-family="Times,serif" font-size="14.00"> a1</text>
</g>
<!-- Node0x17cbad40 -->
<g id="node2" class="node"><title>Node0x17cbad40</title>
<polygon fill="none" stroke="black" points="80.5,-96.5 80.5,-254.5 317.5,-254.5 317.5,-96.5 80.5,-96.5"/>
<text text-anchor="start" x="88.5" y="-239.3" font-family="Times,serif" font-size="14.00">0x80727c8:</text>
<text text-anchor="start" x="88.5" y="-224.3" font-family="Times,serif" font-size="14.00"> g6 = 0</text>
<text text-anchor="start" x="88.5" y="-209.3" font-family="Times,serif" font-size="14.00"> g5 = a1</text>
<text text-anchor="start" x="88.5" y="-194.3" font-family="Times,serif" font-size="14.00"> g1 = 175</text>
<text text-anchor="start" x="88.5" y="-179.3" font-family="Times,serif" font-size="14.00"> v1</text>
<text text-anchor="start" x="88.5" y="-164.3" font-family="Times,serif" font-size="14.00"> v2</text>
<text text-anchor="start" x="88.5" y="-149.3" font-family="Times,serif" font-size="14.00"> result = __vsyscall(g7, v2, v1)</text>
<text text-anchor="start" x="88.5" y="-134.3" font-family="Times,serif" font-size="14.00"> g1 = result</text>
<text text-anchor="start" x="88.5" y="-119.3" font-family="Times,serif" font-size="14.00"> g5 = v2</text>
<text text-anchor="start" x="88.5" y="-104.3" font-family="Times,serif" font-size="14.00"> return result</text>
</g>
<!-- Node0x17cbaaf0&#45;&gt;Node0x17cbad40 -->
<g id="edge1" class="edge"><title>Node0x17cbaaf0&#45;&gt;Node0x17cbad40</title>
<path fill="none" stroke="black" d="M199,-291.286C199,-283.869 199,-274.714 199,-264.836"/>
<polygon fill="black" stroke="black" points="202.5,-264.754 199,-254.754 195.5,-264.754 202.5,-264.754"/>
</g>
<!-- Node0x1699c470 -->
<g id="node3" class="node"><title>Node0x1699c470</title>
<polygon fill="none" stroke="black" points="172,-23.5 172,-59.5 226,-59.5 226,-23.5 172,-23.5"/>
<text text-anchor="start" x="180" y="-37.8" font-family="Times,serif" font-size="14.00">exit:</text>
</g>
<!-- Node0x17cbad40&#45;&gt;Node0x1699c470 -->
<g id="edge2" class="edge"><title>Node0x17cbad40&#45;&gt;Node0x1699c470</title>
<path fill="none" stroke="black" d="M199,-96.1895C199,-86.7241 199,-77.609 199,-69.6605"/>
<polygon fill="black" stroke="black" points="202.5,-69.6213 199,-59.6214 195.5,-69.6214 202.5,-69.6213"/>
</g>
</g>
</svg>
