<?xml version="1.0" encoding="UTF-8" standalone="no"?>
<!DOCTYPE svg PUBLIC "-//W3C//DTD SVG 1.1//EN"
 "http://www.w3.org/Graphics/SVG/1.1/DTD/svg11.dtd">
<!-- Generated by graphviz version 2.38.0 (20140413.2041)
 -->
<!-- Title: Control&#45;flow graph for function &#39;camellia_crypt_cfb128_wrap(a1)&#39;. Pages: 1 -->
<svg width="498pt" height="263pt"
 viewBox="0.00 0.00 498.00 263.00" xmlns="http://www.w3.org/2000/svg" xmlns:xlink="http://www.w3.org/1999/xlink">
<g id="graph0" class="graph" transform="scale(1 1) rotate(0) translate(4 259)">
<title>Control&#45;flow graph for function &#39;camellia_crypt_cfb128_wrap(a1)&#39;.</title>
<polygon fill="white" stroke="none" points="-4,4 -4,-259 494,-259 494,4 -4,4"/>
<text text-anchor="middle" x="245" y="-7.8" font-family="Times,serif" font-size="14.00">Control&#45;flow graph for function &#39;camellia_crypt_cfb128_wrap(a1)&#39;.</text>
<!-- Node0x257b0c70 -->
<g id="node1" class="node"><title>Node0x257b0c70</title>
<polygon fill="none" stroke="black" points="215.5,-216.5 215.5,-254.5 274.5,-254.5 274.5,-216.5 215.5,-216.5"/>
<text text-anchor="start" x="223.5" y="-239.3" font-family="Times,serif" font-size="14.00">entry:</text>
<text text-anchor="start" x="223.5" y="-224.3" font-family="Times,serif" font-size="14.00"> a1</text>
</g>
<!-- Node0x257ae840 -->
<g id="node2" class="node"><title>Node0x257ae840</title>
<polygon fill="none" stroke="black" points="14.5,-96.5 14.5,-179.5 475.5,-179.5 475.5,-96.5 14.5,-96.5"/>
<text text-anchor="start" x="22.5" y="-164.3" font-family="Times,serif" font-size="14.00">0x806a7c0:</text>
<text text-anchor="start" x="22.5" y="-149.3" font-family="Times,serif" font-size="14.00"> v1</text>
<text text-anchor="start" x="22.5" y="-134.3" font-family="Times,serif" font-size="14.00"> result</text>
<text text-anchor="start" x="22.5" y="-119.3" font-family="Times,serif" font-size="14.00"> mbedtls_camellia_crypt_cfb128(result, v1, a1, NULL, 0, 0, 0)</text>
<text text-anchor="start" x="22.5" y="-104.3" font-family="Times,serif" font-size="14.00"> return result</text>
</g>
<!-- Node0x257b0c70&#45;&gt;Node0x257ae840 -->
<g id="edge1" class="edge"><title>Node0x257b0c70&#45;&gt;Node0x257ae840</title>
<path fill="none" stroke="black" d="M245,-216.087C245,-208.444 245,-199.165 245,-189.73"/>
<polygon fill="black" stroke="black" points="248.5,-189.501 245,-179.501 241.5,-189.501 248.5,-189.501"/>
</g>
<!-- Node0x8e32bb0 -->
<g id="node3" class="node"><title>Node0x8e32bb0</title>
<polygon fill="none" stroke="black" points="218,-23.5 218,-59.5 272,-59.5 272,-23.5 218,-23.5"/>
<text text-anchor="start" x="226" y="-37.8" font-family="Times,serif" font-size="14.00">exit:</text>
</g>
<!-- Node0x257ae840&#45;&gt;Node0x8e32bb0 -->
<g id="edge2" class="edge"><title>Node0x257ae840&#45;&gt;Node0x8e32bb0</title>
<path fill="none" stroke="black" d="M245,-96.3751C245,-87.4706 245,-78.246 245,-70"/>
<polygon fill="black" stroke="black" points="248.5,-69.8327 245,-59.8328 241.5,-69.8328 248.5,-69.8327"/>
</g>
</g>
</svg>
