<?xml version="1.0" encoding="UTF-8" standalone="no"?>
<!DOCTYPE svg PUBLIC "-//W3C//DTD SVG 1.1//EN"
 "http://www.w3.org/Graphics/SVG/1.1/DTD/svg11.dtd">
<!-- Generated by graphviz version 2.38.0 (20140413.2041)
 -->
<!-- Title: Control&#45;flow graph for function &#39;mbedtls_rsa_init(*a1, a2, result)&#39;. Pages: 1 -->
<svg width="496pt" height="293pt"
 viewBox="0.00 0.00 496.00 293.00" xmlns="http://www.w3.org/2000/svg" xmlns:xlink="http://www.w3.org/1999/xlink">
<g id="graph0" class="graph" transform="scale(1 1) rotate(0) translate(4 289)">
<title>Control&#45;flow graph for function &#39;mbedtls_rsa_init(*a1, a2, result)&#39;.</title>
<polygon fill="white" stroke="none" points="-4,4 -4,-289 492,-289 492,4 -4,4"/>
<text text-anchor="middle" x="244" y="-7.8" font-family="Times,serif" font-size="14.00">Control&#45;flow graph for function &#39;mbedtls_rsa_init(*a1, a2, result)&#39;.</text>
<!-- Node0xb4d0ae0 -->
<g id="node1" class="node"><title>Node0xb4d0ae0</title>
<polygon fill="none" stroke="black" points="212.5,-216.5 212.5,-284.5 275.5,-284.5 275.5,-216.5 212.5,-216.5"/>
<text text-anchor="start" x="220.5" y="-269.3" font-family="Times,serif" font-size="14.00">entry:</text>
<text text-anchor="start" x="220.5" y="-254.3" font-family="Times,serif" font-size="14.00"> a1</text>
<text text-anchor="start" x="220.5" y="-239.3" font-family="Times,serif" font-size="14.00"> a2</text>
<text text-anchor="start" x="220.5" y="-224.3" font-family="Times,serif" font-size="14.00"> result</text>
</g>
<!-- Node0xb4d1740 -->
<g id="node2" class="node"><title>Node0xb4d1740</title>
<polygon fill="none" stroke="black" points="63,-96.5 63,-179.5 425,-179.5 425,-96.5 63,-96.5"/>
<text text-anchor="start" x="71" y="-164.3" font-family="Times,serif" font-size="14.00">v1 = PtrToIntCastExpr&lt;int32&gt;(a1)</text>
<text text-anchor="start" x="71" y="-149.3" font-family="Times,serif" font-size="14.00"> memset(a1, 0, 43)</text>
<text text-anchor="start" x="71" y="-134.3" font-family="Times,serif" font-size="14.00"> *(IntToPtrCastExpr&lt;ptr&gt;((v1 + 164))) = a2</text>
<text text-anchor="start" x="71" y="-119.3" font-family="Times,serif" font-size="14.00"> *(IntToPtrCastExpr&lt;ptr&gt;((v1 + 168))) = result</text>
<text text-anchor="start" x="71" y="-104.3" font-family="Times,serif" font-size="14.00"> return result</text>
</g>
<!-- Node0xb4d0ae0&#45;&gt;Node0xb4d1740 -->
<g id="edge1" class="edge"><title>Node0xb4d0ae0&#45;&gt;Node0xb4d1740</title>
<path fill="none" stroke="black" d="M244,-216.346C244,-207.94 244,-198.717 244,-189.659"/>
<polygon fill="black" stroke="black" points="247.5,-189.555 244,-179.555 240.5,-189.555 247.5,-189.555"/>
</g>
<!-- Node0xb4d16c0 -->
<g id="node3" class="node"><title>Node0xb4d16c0</title>
<polygon fill="none" stroke="black" points="217,-23.5 217,-59.5 271,-59.5 271,-23.5 217,-23.5"/>
<text text-anchor="start" x="225" y="-37.8" font-family="Times,serif" font-size="14.00">exit:</text>
</g>
<!-- Node0xb4d1740&#45;&gt;Node0xb4d16c0 -->
<g id="edge2" class="edge"><title>Node0xb4d1740&#45;&gt;Node0xb4d16c0</title>
<path fill="none" stroke="black" d="M244,-96.3751C244,-87.4706 244,-78.246 244,-70"/>
<polygon fill="black" stroke="black" points="247.5,-69.8327 244,-59.8328 240.5,-69.8328 247.5,-69.8327"/>
</g>
</g>
</svg>
