<?xml version="1.0" encoding="UTF-8" standalone="no"?>
<!DOCTYPE svg PUBLIC "-//W3C//DTD SVG 1.1//EN"
 "http://www.w3.org/Graphics/SVG/1.1/DTD/svg11.dtd">
<!-- Generated by graphviz version 2.38.0 (20140413.2041)
 -->
<!-- Title: Control&#45;flow graph for function &#39;derive_mpi(a1, a2, a3)&#39;. Pages: 1 -->
<svg width="965pt" height="1731pt"
 viewBox="0.00 0.00 964.50 1731.00" xmlns="http://www.w3.org/2000/svg" xmlns:xlink="http://www.w3.org/1999/xlink">
<g id="graph0" class="graph" transform="scale(1 1) rotate(0) translate(4 1727)">
<title>Control&#45;flow graph for function &#39;derive_mpi(a1, a2, a3)&#39;.</title>
<polygon fill="white" stroke="none" points="-4,4 -4,-1727 960.5,-1727 960.5,4 -4,4"/>
<text text-anchor="middle" x="478.25" y="-7.8" font-family="Times,serif" font-size="14.00">Control&#45;flow graph for function &#39;derive_mpi(a1, a2, a3)&#39;.</text>
<!-- Node0x7ff7210 -->
<g id="node1" class="node"><title>Node0x7ff7210</title>
<polygon fill="none" stroke="black" points="216,-1654.5 216,-1722.5 275,-1722.5 275,-1654.5 216,-1654.5"/>
<text text-anchor="start" x="224" y="-1707.3" font-family="Times,serif" font-size="14.00">entry:</text>
<text text-anchor="start" x="224" y="-1692.3" font-family="Times,serif" font-size="14.00"> a1</text>
<text text-anchor="start" x="224" y="-1677.3" font-family="Times,serif" font-size="14.00"> a2</text>
<text text-anchor="start" x="224" y="-1662.3" font-family="Times,serif" font-size="14.00"> a3</text>
</g>
<!-- Node0x7ff7a90 -->
<g id="node2" class="node"><title>Node0x7ff7a90</title>
<polygon fill="none" stroke="black" points="45,-1458.5 45,-1616.5 446,-1616.5 446,-1458.5 45,-1458.5"/>
<text text-anchor="start" x="53" y="-1601.3" font-family="Times,serif" font-size="14.00">v1 = g3</text>
<text text-anchor="start" x="53" y="-1586.3" font-family="Times,serif" font-size="14.00"> v2 = g1</text>
<text text-anchor="start" x="53" y="-1571.3" font-family="Times,serif" font-size="14.00"> g3 = v2</text>
<text text-anchor="start" x="53" y="-1556.3" font-family="Times,serif" font-size="14.00"> v3 = g7</text>
<text text-anchor="start" x="53" y="-1541.3" font-family="Times,serif" font-size="14.00"> v4 = g6</text>
<text text-anchor="start" x="53" y="-1526.3" font-family="Times,serif" font-size="14.00"> g7 = v4</text>
<text text-anchor="start" x="53" y="-1511.3" font-family="Times,serif" font-size="14.00"> v5 = g5</text>
<text text-anchor="start" x="53" y="-1496.3" font-family="Times,serif" font-size="14.00"> v6 = ((*(IntToPtrCastExpr&lt;ptr&gt;((v2 + 92))) + 7) / 8)</text>
<text text-anchor="start" x="53" y="-1481.3" font-family="Times,serif" font-size="14.00"> g5 = v6</text>
<text text-anchor="start" x="53" y="-1466.3" font-family="Times,serif" font-size="14.00"> v7 = v6</text>
</g>
<!-- Node0x7ff7210&#45;&gt;Node0x7ff7a90 -->
<g id="edge1" class="edge"><title>Node0x7ff7210&#45;&gt;Node0x7ff7a90</title>
<path fill="none" stroke="black" d="M245.5,-1654.43C245.5,-1646.03 245.5,-1636.6 245.5,-1626.84"/>
<polygon fill="black" stroke="black" points="249,-1626.59 245.5,-1616.59 242,-1626.59 249,-1626.59"/>
</g>
<!-- Node0x7ff77a0 -->
<g id="node3" class="node"><title>Node0x7ff77a0</title>
<polygon fill="none" stroke="black" points="189,-1384.5 189,-1420.5 302,-1420.5 302,-1384.5 189,-1384.5"/>
<text text-anchor="start" x="197" y="-1398.8" font-family="Times,serif" font-size="14.00">if (v6 &gt;= a1):</text>
</g>
<!-- Node0x7ff7a90&#45;&gt;Node0x7ff77a0 -->
<g id="edge2" class="edge"><title>Node0x7ff7a90&#45;&gt;Node0x7ff77a0</title>
<path fill="none" stroke="black" d="M245.5,-1458.36C245.5,-1448.46 245.5,-1438.9 245.5,-1430.63"/>
<polygon fill="black" stroke="black" points="249,-1430.55 245.5,-1420.55 242,-1430.55 249,-1430.55"/>
</g>
<!-- Node0x7ff8ce0 -->
<g id="node4" class="node"><title>Node0x7ff8ce0</title>
<polygon fill="none" stroke="black" points="96,-1279.5 96,-1332.5 251,-1332.5 251,-1279.5 96,-1279.5"/>
<text text-anchor="start" x="104" y="-1317.3" font-family="Times,serif" font-size="14.00">if_805b178_0_true:</text>
<text text-anchor="start" x="104" y="-1302.3" font-family="Times,serif" font-size="14.00"> g5 = a1</text>
<text text-anchor="start" x="104" y="-1287.3" font-family="Times,serif" font-size="14.00"> v7 = a1</text>
</g>
<!-- Node0x7ff77a0&#45;&gt;Node0x7ff8ce0 -->
<g id="edge3" class="edge"><title>Node0x7ff77a0&#45;&gt;Node0x7ff8ce0</title>
<path fill="none" stroke="black" d="M223.409,-1384.33C217.182,-1378.88 210.695,-1372.55 205.5,-1366 199.594,-1358.56 194.205,-1349.88 189.602,-1341.49"/>
<polygon fill="black" stroke="black" points="192.676,-1339.82 184.929,-1332.59 186.478,-1343.07 192.676,-1339.82"/>
<text text-anchor="middle" x="239.5" y="-1354.8" font-family="Times,serif" font-size="14.00">v6 &gt;= a1</text>
</g>
<!-- Node0x7ff6890 -->
<g id="node5" class="node"><title>Node0x7ff6890</title>
<polygon fill="none" stroke="black" points="0,-1173.5 0,-1241.5 505,-1241.5 505,-1173.5 0,-1173.5"/>
<text text-anchor="start" x="8" y="-1226.3" font-family="Times,serif" font-size="14.00">v8 = mbedtls_mpi_read_binary(v4, IntToPtrCastExpr&lt;ptr&gt;(g4), v7)</text>
<text text-anchor="start" x="8" y="-1211.3" font-family="Times,serif" font-size="14.00"> g6 = v8</text>
<text text-anchor="start" x="8" y="-1196.3" font-family="Times,serif" font-size="14.00"> result = v8</text>
<text text-anchor="start" x="8" y="-1181.3" font-family="Times,serif" font-size="14.00"> v9</text>
</g>
<!-- Node0x7ff77a0&#45;&gt;Node0x7ff6890 -->
<g id="edge4" class="edge"><title>Node0x7ff77a0&#45;&gt;Node0x7ff6890</title>
<path fill="none" stroke="black" d="M262.631,-1384.5C267.037,-1379.04 271.185,-1372.67 273.5,-1366 286.487,-1328.56 278.288,-1283.55 268.59,-1251.25"/>
<polygon fill="black" stroke="black" points="271.908,-1250.14 265.554,-1241.66 265.235,-1252.25 271.908,-1250.14"/>
<text text-anchor="middle" x="308.5" y="-1302.3" font-family="Times,serif" font-size="14.00">v6 &lt; a1</text>
</g>
<!-- Node0x7ff8ce0&#45;&gt;Node0x7ff6890 -->
<g id="edge5" class="edge"><title>Node0x7ff8ce0&#45;&gt;Node0x7ff6890</title>
<path fill="none" stroke="black" d="M194.463,-1279.39C201.965,-1270.23 210.622,-1259.66 218.921,-1249.52"/>
<polygon fill="black" stroke="black" points="221.845,-1251.47 225.472,-1241.52 216.429,-1247.04 221.845,-1251.47"/>
</g>
<!-- Node0x7ff7ee0 -->
<g id="node6" class="node"><title>Node0x7ff7ee0</title>
<polygon fill="none" stroke="black" points="203,-1099.5 203,-1135.5 302,-1135.5 302,-1099.5 203,-1099.5"/>
<text text-anchor="start" x="211" y="-1113.8" font-family="Times,serif" font-size="14.00">if (v8 != 0):</text>
</g>
<!-- Node0x7ff6890&#45;&gt;Node0x7ff7ee0 -->
<g id="edge6" class="edge"><title>Node0x7ff6890&#45;&gt;Node0x7ff7ee0</title>
<path fill="none" stroke="black" d="M252.5,-1173.48C252.5,-1164.33 252.5,-1154.5 252.5,-1145.72"/>
<polygon fill="black" stroke="black" points="256,-1145.64 252.5,-1135.64 249,-1145.64 256,-1145.64"/>
</g>
<!-- Node0x7ff8d80 -->
<g id="node7" class="node"><title>Node0x7ff8d80</title>
<polygon fill="none" stroke="black" points="124,-847.5 124,-960.5 237,-960.5 237,-847.5 124,-847.5"/>
<text text-anchor="start" x="132" y="-945.3" font-family="Times,serif" font-size="14.00">0x805b1d0:</text>
<text text-anchor="start" x="132" y="-930.3" font-family="Times,serif" font-size="14.00"> g3 = v1</text>
<text text-anchor="start" x="132" y="-915.3" font-family="Times,serif" font-size="14.00"> g1 = result</text>
<text text-anchor="start" x="132" y="-900.3" font-family="Times,serif" font-size="14.00"> g7 = v3</text>
<text text-anchor="start" x="132" y="-885.3" font-family="Times,serif" font-size="14.00"> g5 = v5</text>
<text text-anchor="start" x="132" y="-870.3" font-family="Times,serif" font-size="14.00"> g2 = v9</text>
<text text-anchor="start" x="132" y="-855.3" font-family="Times,serif" font-size="14.00"> return result</text>
</g>
<!-- Node0x7ff7ee0&#45;&gt;Node0x7ff8d80 -->
<g id="edge7" class="edge"><title>Node0x7ff7ee0&#45;&gt;Node0x7ff8d80</title>
<path fill="none" stroke="black" d="M246.608,-1099.19C237.127,-1071.34 218.005,-1015.17 202.755,-970.375"/>
<polygon fill="black" stroke="black" points="206.002,-969.052 199.466,-960.714 199.376,-971.308 206.002,-969.052"/>
<text text-anchor="middle" x="266.5" y="-1069.8" font-family="Times,serif" font-size="14.00">v8 != 0</text>
</g>
<!-- Node0x7ff8160 -->
<g id="node8" class="node"><title>Node0x7ff8160</title>
<polygon fill="none" stroke="black" points="310,-979.5 310,-1047.5 643,-1047.5 643,-979.5 310,-979.5"/>
<text text-anchor="start" x="318" y="-1032.3" font-family="Times,serif" font-size="14.00">v10 = *(IntToPtrCastExpr&lt;ptr&gt;((g3 + 92)))</text>
<text text-anchor="start" x="318" y="-1017.3" font-family="Times,serif" font-size="14.00"> v11 = (8 * g5)</text>
<text text-anchor="start" x="318" y="-1002.3" font-family="Times,serif" font-size="14.00"> g5 = v11</text>
<text text-anchor="start" x="318" y="-987.3" font-family="Times,serif" font-size="14.00"> v12 = (v11 &#45; v10)</text>
</g>
<!-- Node0x7ff7ee0&#45;&gt;Node0x7ff8160 -->
<g id="edge8" class="edge"><title>Node0x7ff7ee0&#45;&gt;Node0x7ff8160</title>
<path fill="none" stroke="black" d="M289.993,-1099.43C318.46,-1086.46 358.682,-1068.15 394.489,-1051.84"/>
<polygon fill="black" stroke="black" points="396.32,-1054.86 403.971,-1047.53 393.419,-1048.49 396.32,-1054.86"/>
<text text-anchor="middle" x="388.5" y="-1069.8" font-family="Times,serif" font-size="14.00">v8 == 0</text>
</g>
<!-- Node0x7ff7a10 -->
<g id="node9" class="node"><title>Node0x7ff7a10</title>
<polygon fill="none" stroke="black" points="361.5,-23.5 361.5,-59.5 415.5,-59.5 415.5,-23.5 361.5,-23.5"/>
<text text-anchor="start" x="369.5" y="-37.8" font-family="Times,serif" font-size="14.00">exit:</text>
</g>
<!-- Node0x7ff8d80&#45;&gt;Node0x7ff7a10 -->
<g id="edge9" class="edge"><title>Node0x7ff8d80&#45;&gt;Node0x7ff7a10</title>
<path fill="none" stroke="black" d="M175.731,-847.337C174.018,-822.867 172.5,-793.775 172.5,-767.5 172.5,-767.5 172.5,-767.5 172.5,-160.5 172.5,-131.042 170.454,-117.612 191.5,-97 234.569,-54.8191 307.228,-44.6208 351.24,-42.5328"/>
<polygon fill="black" stroke="black" points="351.374,-46.0303 361.242,-42.1746 351.124,-39.0348 351.374,-46.0303"/>
</g>
<!-- Node0x8671f90 -->
<g id="node10" class="node"><title>Node0x8671f90</title>
<polygon fill="none" stroke="black" points="456,-792.5 456,-828.5 575,-828.5 575,-792.5 456,-792.5"/>
<text text-anchor="start" x="464" y="-806.8" font-family="Times,serif" font-size="14.00">if (v11 &gt; v10):</text>
</g>
<!-- Node0x7ff8160&#45;&gt;Node0x8671f90 -->
<g id="edge10" class="edge"><title>Node0x7ff8160&#45;&gt;Node0x8671f90</title>
<path fill="none" stroke="black" d="M482.94,-979.309C490.58,-939.933 503.171,-875.043 510.248,-838.567"/>
<polygon fill="black" stroke="black" points="513.704,-839.132 512.173,-828.648 506.832,-837.798 513.704,-839.132"/>
</g>
<!-- Node0x7ff88d0 -->
<g id="node11" class="node"><title>Node0x7ff88d0</title>
<polygon fill="none" stroke="black" points="544,-657.5 544,-740.5 847,-740.5 847,-657.5 544,-657.5"/>
<text text-anchor="start" x="552" y="-725.3" font-family="Times,serif" font-size="14.00">0x805b1e0:</text>
<text text-anchor="start" x="552" y="-710.3" font-family="Times,serif" font-size="14.00"> g5 = v12</text>
<text text-anchor="start" x="552" y="-695.3" font-family="Times,serif" font-size="14.00"> result2 = mbedtls_mpi_shift_r(g7, v12)</text>
<text text-anchor="start" x="552" y="-680.3" font-family="Times,serif" font-size="14.00"> g1 = result2</text>
<text text-anchor="start" x="552" y="-665.3" font-family="Times,serif" font-size="14.00"> g6 = 0</text>
</g>
<!-- Node0x8671f90&#45;&gt;Node0x7ff88d0 -->
<g id="edge11" class="edge"><title>Node0x8671f90&#45;&gt;Node0x7ff88d0</title>
<path fill="none" stroke="black" d="M543.625,-792.391C564.146,-779.907 592.985,-762.363 620.027,-745.913"/>
<polygon fill="black" stroke="black" points="622.006,-748.806 628.73,-740.618 618.368,-742.825 622.006,-748.806"/>
<text text-anchor="middle" x="631.5" y="-762.8" font-family="Times,serif" font-size="14.00">v11 &gt; v10</text>
</g>
<!-- Node0x7ff7c60 -->
<g id="node12" class="node"><title>Node0x7ff7c60</title>
<polygon fill="none" stroke="black" points="202,-449.5 202,-517.5 867,-517.5 867,-449.5 202,-449.5"/>
<text text-anchor="start" x="210" y="-502.3" font-family="Times,serif" font-size="14.00">v13 = (g3 + 76)</text>
<text text-anchor="start" x="210" y="-487.3" font-family="Times,serif" font-size="14.00"> g3 = v13</text>
<text text-anchor="start" x="210" y="-472.3" font-family="Times,serif" font-size="14.00"> v14 = mbedtls_mpi_cmp_mpi(IntToPtrCastExpr&lt;ptr&gt;(g7), IntToPtrCastExpr&lt;ptr&gt;(v13))</text>
<text text-anchor="start" x="210" y="-457.3" font-family="Times,serif" font-size="14.00"> g6 = 0</text>
</g>
<!-- Node0x8671f90&#45;&gt;Node0x7ff7c60 -->
<g id="edge12" class="edge"><title>Node0x8671f90&#45;&gt;Node0x7ff7c60</title>
<path fill="none" stroke="black" d="M516.495,-792.484C519.366,-743.375 527.731,-600.291 531.972,-527.747"/>
<polygon fill="black" stroke="black" points="535.477,-527.763 532.566,-517.576 528.489,-527.354 535.477,-527.763"/>
<text text-anchor="middle" x="568.5" y="-627.8" font-family="Times,serif" font-size="14.00">v11 &lt;= v10</text>
</g>
<!-- Node0x7ff81c0 -->
<g id="node13" class="node"><title>Node0x7ff81c0</title>
<polygon fill="none" stroke="black" points="629,-569.5 629,-605.5 762,-605.5 762,-569.5 629,-569.5"/>
<text text-anchor="start" x="637" y="-583.8" font-family="Times,serif" font-size="14.00">if (result2 != 0):</text>
</g>
<!-- Node0x7ff88d0&#45;&gt;Node0x7ff81c0 -->
<g id="edge13" class="edge"><title>Node0x7ff88d0&#45;&gt;Node0x7ff81c0</title>
<path fill="none" stroke="black" d="M695.5,-657.226C695.5,-643.4 695.5,-628.299 695.5,-615.782"/>
<polygon fill="black" stroke="black" points="699,-615.545 695.5,-605.546 692,-615.546 699,-615.545"/>
</g>
<!-- Node0x7ff7cc0 -->
<g id="node14" class="node"><title>Node0x7ff7cc0</title>
<polygon fill="none" stroke="black" points="483.5,-277.5 483.5,-313.5 585.5,-313.5 585.5,-277.5 483.5,-277.5"/>
<text text-anchor="start" x="491.5" y="-291.8" font-family="Times,serif" font-size="14.00">if (v14 &lt; 0):</text>
</g>
<!-- Node0x7ff7c60&#45;&gt;Node0x7ff7cc0 -->
<g id="edge14" class="edge"><title>Node0x7ff7c60&#45;&gt;Node0x7ff7cc0</title>
<path fill="none" stroke="black" d="M534.5,-449.247C534.5,-413.573 534.5,-357.558 534.5,-324.191"/>
<polygon fill="black" stroke="black" points="538,-323.805 534.5,-313.805 531,-323.805 538,-323.805"/>
</g>
<!-- Node0x7ff81c0&#45;&gt;Node0x7ff7c60 -->
<g id="edge16" class="edge"><title>Node0x7ff81c0&#45;&gt;Node0x7ff7c60</title>
<path fill="none" stroke="black" d="M668.552,-569.427C648.526,-556.74 620.408,-538.926 595.093,-522.888"/>
<polygon fill="black" stroke="black" points="596.951,-519.922 586.63,-517.527 593.205,-525.835 596.951,-519.922"/>
<text text-anchor="middle" x="685.5" y="-539.8" font-family="Times,serif" font-size="14.00">result2 == 0</text>
</g>
<!-- Node0x7ff8600 -->
<g id="node15" class="node"><title>Node0x7ff8600</title>
<polygon fill="none" stroke="black" points="834.5,-332.5 834.5,-430.5 956.5,-430.5 956.5,-332.5 834.5,-332.5"/>
<text text-anchor="start" x="842.5" y="-415.3" font-family="Times,serif" font-size="14.00">0x805b1f8:</text>
<text text-anchor="start" x="842.5" y="-400.3" font-family="Times,serif" font-size="14.00"> g3 = v1</text>
<text text-anchor="start" x="842.5" y="-385.3" font-family="Times,serif" font-size="14.00"> g7 = v3</text>
<text text-anchor="start" x="842.5" y="-370.3" font-family="Times,serif" font-size="14.00"> g5 = v5</text>
<text text-anchor="start" x="842.5" y="-355.3" font-family="Times,serif" font-size="14.00"> g2 = v9</text>
<text text-anchor="start" x="842.5" y="-340.3" font-family="Times,serif" font-size="14.00"> return result2</text>
</g>
<!-- Node0x7ff81c0&#45;&gt;Node0x7ff8600 -->
<g id="edge15" class="edge"><title>Node0x7ff81c0&#45;&gt;Node0x7ff8600</title>
<path fill="none" stroke="black" d="M762.273,-578.242C801.558,-569.777 848.815,-552.648 876.5,-518 893.583,-496.62 899.139,-467.041 900.082,-440.973"/>
<polygon fill="black" stroke="black" points="903.584,-440.854 900.23,-430.805 896.585,-440.753 903.584,-440.854"/>
<text text-anchor="middle" x="901.5" y="-539.8" font-family="Times,serif" font-size="14.00">result2 != 0</text>
</g>
<!-- Node0xb6202d0 -->
<g id="node16" class="node"><title>Node0xb6202d0</title>
<polygon fill="none" stroke="black" points="201,-105 201,-218 314,-218 314,-105 201,-105"/>
<text text-anchor="start" x="209" y="-202.8" font-family="Times,serif" font-size="14.00">result = 0</text>
<text text-anchor="start" x="209" y="-187.8" font-family="Times,serif" font-size="14.00"> g3 = v1</text>
<text text-anchor="start" x="209" y="-172.8" font-family="Times,serif" font-size="14.00"> g1 = result</text>
<text text-anchor="start" x="209" y="-157.8" font-family="Times,serif" font-size="14.00"> g7 = v3</text>
<text text-anchor="start" x="209" y="-142.8" font-family="Times,serif" font-size="14.00"> g5 = v5</text>
<text text-anchor="start" x="209" y="-127.8" font-family="Times,serif" font-size="14.00"> g2 = v9</text>
<text text-anchor="start" x="209" y="-112.8" font-family="Times,serif" font-size="14.00"> return result</text>
</g>
<!-- Node0x7ff7cc0&#45;&gt;Node0xb6202d0 -->
<g id="edge17" class="edge"><title>Node0x7ff7cc0&#45;&gt;Node0xb6202d0</title>
<path fill="none" stroke="black" d="M483.185,-284.672C438.682,-274.604 373.711,-256.098 323.5,-226 322.388,-225.333 321.279,-224.644 320.175,-223.936"/>
<polygon fill="black" stroke="black" points="322.035,-220.966 311.822,-218.148 318.048,-226.72 322.035,-220.966"/>
<text text-anchor="middle" x="418" y="-247.8" font-family="Times,serif" font-size="14.00">v14 &lt; 0</text>
</g>
<!-- Node0x7ff8870 -->
<g id="node17" class="node"><title>Node0x7ff8870</title>
<polygon fill="none" stroke="black" points="332.5,-97.5 332.5,-225.5 868.5,-225.5 868.5,-97.5 332.5,-97.5"/>
<text text-anchor="start" x="340.5" y="-210.3" font-family="Times,serif" font-size="14.00">v15 = IntToPtrCastExpr&lt;ptr&gt;(g7)</text>
<text text-anchor="start" x="340.5" y="-195.3" font-family="Times,serif" font-size="14.00"> result3 = mbedtls_mpi_sub_mpi(v15, v15, IntToPtrCastExpr&lt;ptr&gt;(g3))</text>
<text text-anchor="start" x="340.5" y="-180.3" font-family="Times,serif" font-size="14.00"> g1 = result3</text>
<text text-anchor="start" x="340.5" y="-165.3" font-family="Times,serif" font-size="14.00"> g3 = v1</text>
<text text-anchor="start" x="340.5" y="-150.3" font-family="Times,serif" font-size="14.00"> g7 = v3</text>
<text text-anchor="start" x="340.5" y="-135.3" font-family="Times,serif" font-size="14.00"> g5 = v5</text>
<text text-anchor="start" x="340.5" y="-120.3" font-family="Times,serif" font-size="14.00"> g2 = v9</text>
<text text-anchor="start" x="340.5" y="-105.3" font-family="Times,serif" font-size="14.00"> return result3</text>
</g>
<!-- Node0x7ff7cc0&#45;&gt;Node0x7ff8870 -->
<g id="edge18" class="edge"><title>Node0x7ff7cc0&#45;&gt;Node0x7ff8870</title>
<path fill="none" stroke="black" d="M543.128,-277.243C548.707,-266.085 556.386,-250.728 564.312,-234.876"/>
<polygon fill="black" stroke="black" points="567.652,-236.022 568.994,-225.513 561.391,-232.892 567.652,-236.022"/>
<text text-anchor="middle" x="594" y="-247.8" font-family="Times,serif" font-size="14.00">v14 &gt;= 0</text>
</g>
<!-- Node0x7ff8600&#45;&gt;Node0x7ff7a10 -->
<g id="edge19" class="edge"><title>Node0x7ff8600&#45;&gt;Node0x7ff7a10</title>
<path fill="none" stroke="black" d="M909.06,-332.344C923.562,-269.32 937.144,-159.552 877.5,-97 846.409,-64.3928 534.448,-48.5151 425.674,-43.9387"/>
<polygon fill="black" stroke="black" points="425.637,-40.4343 415.501,-43.5189 425.348,-47.4283 425.637,-40.4343"/>
</g>
<!-- Node0xb6202d0&#45;&gt;Node0x7ff7a10 -->
<g id="edge20" class="edge"><title>Node0xb6202d0&#45;&gt;Node0x7ff7a10</title>
<path fill="none" stroke="black" d="M314.149,-105.522C317.293,-102.62 320.425,-99.7629 323.5,-97 335.048,-86.6254 348.107,-75.5538 359.474,-66.1185"/>
<polygon fill="black" stroke="black" points="361.923,-68.6357 367.407,-59.5706 357.467,-63.2372 361.923,-68.6357"/>
</g>
<!-- Node0x7ff8870&#45;&gt;Node0x7ff7a10 -->
<g id="edge21" class="edge"><title>Node0x7ff8870&#45;&gt;Node0x7ff7a10</title>
<path fill="none" stroke="black" d="M487.052,-97.3546C464.25,-84.6625 441.909,-72.2276 424.279,-62.4146"/>
<polygon fill="black" stroke="black" points="425.951,-59.3399 415.511,-57.5346 422.547,-65.4563 425.951,-59.3399"/>
</g>
</g>
</svg>
