<?xml version="1.0" encoding="UTF-8" standalone="no"?>
<!DOCTYPE svg PUBLIC "-//W3C//DTD SVG 1.1//EN"
 "http://www.w3.org/Graphics/SVG/1.1/DTD/svg11.dtd">
<!-- Generated by graphviz version 2.38.0 (20140413.2041)
 -->
<!-- Title: Control&#45;flow graph for function &#39;dummy_1()&#39;. Pages: 1 -->
<svg width="344pt" height="216pt"
 viewBox="0.00 0.00 344.00 216.00" xmlns="http://www.w3.org/2000/svg" xmlns:xlink="http://www.w3.org/1999/xlink">
<g id="graph0" class="graph" transform="scale(1 1) rotate(0) translate(4 212)">
<title>Control&#45;flow graph for function &#39;dummy_1()&#39;.</title>
<polygon fill="white" stroke="none" points="-4,4 -4,-212 340,-212 340,4 -4,4"/>
<text text-anchor="middle" x="168" y="-7.8" font-family="Times,serif" font-size="14.00">Control&#45;flow graph for function &#39;dummy_1()&#39;.</text>
<!-- Node0x194c3c10 -->
<g id="node1" class="node"><title>Node0x194c3c10</title>
<polygon fill="none" stroke="black" points="138.5,-171.5 138.5,-207.5 197.5,-207.5 197.5,-171.5 138.5,-171.5"/>
<text text-anchor="start" x="146.5" y="-185.8" font-family="Times,serif" font-size="14.00">entry:</text>
</g>
<!-- Node0x17cb96f0 -->
<g id="node2" class="node"><title>Node0x17cb96f0</title>
<polygon fill="none" stroke="black" points="117.5,-96.5 117.5,-134.5 218.5,-134.5 218.5,-96.5 117.5,-96.5"/>
<text text-anchor="start" x="125.5" y="-119.3" font-family="Times,serif" font-size="14.00">0x8072450:</text>
<text text-anchor="start" x="125.5" y="-104.3" font-family="Times,serif" font-size="14.00"> return g1</text>
</g>
<!-- Node0x194c3c10&#45;&gt;Node0x17cb96f0 -->
<g id="edge1" class="edge"><title>Node0x194c3c10&#45;&gt;Node0x17cb96f0</title>
<path fill="none" stroke="black" d="M168,-171.437C168,-163.487 168,-153.813 168,-144.813"/>
<polygon fill="black" stroke="black" points="171.5,-144.699 168,-134.699 164.5,-144.699 171.5,-144.699"/>
</g>
<!-- Node0x17cb9690 -->
<g id="node3" class="node"><title>Node0x17cb9690</title>
<polygon fill="none" stroke="black" points="141,-23.5 141,-59.5 195,-59.5 195,-23.5 141,-23.5"/>
<text text-anchor="start" x="149" y="-37.8" font-family="Times,serif" font-size="14.00">exit:</text>
</g>
<!-- Node0x17cb96f0&#45;&gt;Node0x17cb9690 -->
<g id="edge2" class="edge"><title>Node0x17cb96f0&#45;&gt;Node0x17cb9690</title>
<path fill="none" stroke="black" d="M168,-96.3314C168,-88.394 168,-78.9095 168,-70.1285"/>
<polygon fill="black" stroke="black" points="171.5,-69.9177 168,-59.9177 164.5,-69.9177 171.5,-69.9177"/>
</g>
</g>
</svg>
