<?xml version="1.0" encoding="UTF-8" standalone="no"?>
<!DOCTYPE svg PUBLIC "-//W3C//DTD SVG 1.1//EN"
 "http://www.w3.org/Graphics/SVG/1.1/DTD/svg11.dtd">
<!-- Generated by graphviz version 2.38.0 (20140413.2041)
 -->
<!-- Title: Control&#45;flow graph for function &#39;mbedtls_timing_get_timer(*a1, a2)&#39;. Pages: 1 -->
<svg width="686pt" height="489pt"
 viewBox="0.00 0.00 686.00 489.00" xmlns="http://www.w3.org/2000/svg" xmlns:xlink="http://www.w3.org/1999/xlink">
<g id="graph0" class="graph" transform="scale(1 1) rotate(0) translate(4 485)">
<title>Control&#45;flow graph for function &#39;mbedtls_timing_get_timer(*a1, a2)&#39;.</title>
<polygon fill="white" stroke="none" points="-4,4 -4,-485 682,-485 682,4 -4,4"/>
<text text-anchor="middle" x="339" y="-7.8" font-family="Times,serif" font-size="14.00">Control&#45;flow graph for function &#39;mbedtls_timing_get_timer(*a1, a2)&#39;.</text>
<!-- Node0x9e7ef60 -->
<g id="node1" class="node"><title>Node0x9e7ef60</title>
<polygon fill="none" stroke="black" points="314,-427.5 314,-480.5 373,-480.5 373,-427.5 314,-427.5"/>
<text text-anchor="start" x="322" y="-465.3" font-family="Times,serif" font-size="14.00">entry:</text>
<text text-anchor="start" x="322" y="-450.3" font-family="Times,serif" font-size="14.00"> a1</text>
<text text-anchor="start" x="322" y="-435.3" font-family="Times,serif" font-size="14.00"> a2</text>
</g>
<!-- Node0x9e7eec0 -->
<g id="node2" class="node"><title>Node0x9e7eec0</title>
<polygon fill="none" stroke="black" points="162.5,-306.5 162.5,-389.5 524.5,-389.5 524.5,-306.5 162.5,-306.5"/>
<text text-anchor="start" x="170.5" y="-374.3" font-family="Times,serif" font-size="14.00">v1 = PtrToIntCastExpr&lt;int32&gt;(a1)</text>
<text text-anchor="start" x="170.5" y="-359.3" font-family="Times,serif" font-size="14.00"> tp</text>
<text text-anchor="start" x="170.5" y="-344.3" font-family="Times,serif" font-size="14.00"> gettimeofday(BitCastExpr&lt;ptr&gt;(&amp;(tp)), NULL)</text>
<text text-anchor="start" x="170.5" y="-329.3" font-family="Times,serif" font-size="14.00"> v2</text>
<text text-anchor="start" x="170.5" y="-314.3" font-family="Times,serif" font-size="14.00"> v3</text>
</g>
<!-- Node0x9e7ef60&#45;&gt;Node0x9e7eec0 -->
<g id="edge1" class="edge"><title>Node0x9e7ef60&#45;&gt;Node0x9e7eec0</title>
<path fill="none" stroke="black" d="M343.5,-427.292C343.5,-418.988 343.5,-409.469 343.5,-399.995"/>
<polygon fill="black" stroke="black" points="347,-399.791 343.5,-389.791 340,-399.791 347,-399.791"/>
</g>
<!-- Node0x9e7f600 -->
<g id="node3" class="node"><title>Node0x9e7f600</title>
<polygon fill="none" stroke="black" points="291,-232.5 291,-268.5 396,-268.5 396,-232.5 291,-232.5"/>
<text text-anchor="start" x="299" y="-246.8" font-family="Times,serif" font-size="14.00">if (a2 == 0):</text>
</g>
<!-- Node0x9e7eec0&#45;&gt;Node0x9e7f600 -->
<g id="edge2" class="edge"><title>Node0x9e7eec0&#45;&gt;Node0x9e7f600</title>
<path fill="none" stroke="black" d="M343.5,-306.499C343.5,-297.206 343.5,-287.537 343.5,-278.946"/>
<polygon fill="black" stroke="black" points="347,-278.749 343.5,-268.749 340,-278.749 347,-278.749"/>
</g>
<!-- Node0x29db93d0 -->
<g id="node4" class="node"><title>Node0x29db93d0</title>
<polygon fill="none" stroke="black" points="0,-105 0,-173 341,-173 341,-105 0,-105"/>
<text text-anchor="start" x="8" y="-157.8" font-family="Times,serif" font-size="14.00">v4 = *(IntToPtrCastExpr&lt;ptr&gt;((v1 + 4)))</text>
<text text-anchor="start" x="8" y="-142.8" font-family="Times,serif" font-size="14.00"> v5 = *(IntToPtrCastExpr&lt;ptr&gt;(v1))</text>
<text text-anchor="start" x="8" y="-127.8" font-family="Times,serif" font-size="14.00"> g2 = v3</text>
<text text-anchor="start" x="8" y="-112.8" font-family="Times,serif" font-size="14.00"> return (((v2 &#45; v4) / 1000) + (1000 * (tp &#45; v5)))</text>
</g>
<!-- Node0x9e7f600&#45;&gt;Node0x29db93d0 -->
<g id="edge3" class="edge"><title>Node0x9e7f600&#45;&gt;Node0x29db93d0</title>
<path fill="none" stroke="black" d="M316.469,-232.391C293.721,-217.992 260.338,-196.863 231.236,-178.443"/>
<polygon fill="black" stroke="black" points="233.079,-175.467 222.758,-173.076 229.336,-181.382 233.079,-175.467"/>
<text text-anchor="middle" x="313.5" y="-202.8" font-family="Times,serif" font-size="14.00">a2 == 0</text>
</g>
<!-- Node0x27b8c820 -->
<g id="node5" class="node"><title>Node0x27b8c820</title>
<polygon fill="none" stroke="black" points="359,-97.5 359,-180.5 678,-180.5 678,-97.5 359,-97.5"/>
<text text-anchor="start" x="367" y="-165.3" font-family="Times,serif" font-size="14.00">0x8055878:</text>
<text text-anchor="start" x="367" y="-150.3" font-family="Times,serif" font-size="14.00"> *(IntToPtrCastExpr&lt;ptr&gt;(v1)) = tp</text>
<text text-anchor="start" x="367" y="-135.3" font-family="Times,serif" font-size="14.00"> *(IntToPtrCastExpr&lt;ptr&gt;((v1 + 4))) = v2</text>
<text text-anchor="start" x="367" y="-120.3" font-family="Times,serif" font-size="14.00"> g2 = v3</text>
<text text-anchor="start" x="367" y="-105.3" font-family="Times,serif" font-size="14.00"> return 0</text>
</g>
<!-- Node0x9e7f600&#45;&gt;Node0x27b8c820 -->
<g id="edge4" class="edge"><title>Node0x9e7f600&#45;&gt;Node0x27b8c820</title>
<path fill="none" stroke="black" d="M370.844,-232.391C390.708,-219.961 418.59,-202.515 444.782,-186.127"/>
<polygon fill="black" stroke="black" points="446.964,-188.89 453.585,-180.618 443.251,-182.955 446.964,-188.89"/>
<text text-anchor="middle" x="447.5" y="-202.8" font-family="Times,serif" font-size="14.00">a2 != 0</text>
</g>
<!-- Node0x9627a80 -->
<g id="node6" class="node"><title>Node0x9627a80</title>
<polygon fill="none" stroke="black" points="357.5,-23.5 357.5,-59.5 411.5,-59.5 411.5,-23.5 357.5,-23.5"/>
<text text-anchor="start" x="365.5" y="-37.8" font-family="Times,serif" font-size="14.00">exit:</text>
</g>
<!-- Node0x29db93d0&#45;&gt;Node0x9627a80 -->
<g id="edge5" class="edge"><title>Node0x29db93d0&#45;&gt;Node0x9627a80</title>
<path fill="none" stroke="black" d="M244.746,-104.867C279.626,-89.3012 319.645,-71.4423 347.895,-58.8354"/>
<polygon fill="black" stroke="black" points="349.663,-61.8791 357.369,-54.6076 346.81,-55.4867 349.663,-61.8791"/>
</g>
<!-- Node0x27b8c820&#45;&gt;Node0x9627a80 -->
<g id="edge6" class="edge"><title>Node0x27b8c820&#45;&gt;Node0x9627a80</title>
<path fill="none" stroke="black" d="M461.672,-97.4994C446.341,-86.5734 430.283,-75.129 416.81,-65.5266"/>
<polygon fill="black" stroke="black" points="418.537,-62.46 408.362,-59.5064 414.475,-68.1604 418.537,-62.46"/>
</g>
</g>
</svg>
