<?xml version="1.0" encoding="UTF-8" standalone="no"?>
<!DOCTYPE svg PUBLIC "-//W3C//DTD SVG 1.1//EN"
 "http://www.w3.org/Graphics/SVG/1.1/DTD/svg11.dtd">
<!-- Generated by graphviz version 2.38.0 (20140413.2041)
 -->
<!-- Title: Control&#45;flow graph for function &#39;encrypt_file(*path, a2)&#39;. Pages: 1 -->
<svg width="1738pt" height="2664pt"
 viewBox="0.00 0.00 1737.50 2664.00" xmlns="http://www.w3.org/2000/svg" xmlns:xlink="http://www.w3.org/1999/xlink">
<g id="graph0" class="graph" transform="scale(1 1) rotate(0) translate(4 2660)">
<title>Control&#45;flow graph for function &#39;encrypt_file(*path, a2)&#39;.</title>
<polygon fill="white" stroke="none" points="-4,4 -4,-2660 1733.5,-2660 1733.5,4 -4,4"/>
<text text-anchor="middle" x="864.75" y="-7.8" font-family="Times,serif" font-size="14.00">Control&#45;flow graph for function &#39;encrypt_file(*path, a2)&#39;.</text>
<!-- Node0x163aaf90 -->
<g id="node1" class="node"><title>Node0x163aaf90</title>
<polygon fill="none" stroke="black" points="209,-2602.5 209,-2655.5 268,-2655.5 268,-2602.5 209,-2602.5"/>
<text text-anchor="start" x="217" y="-2640.3" font-family="Times,serif" font-size="14.00">entry:</text>
<text text-anchor="start" x="217" y="-2625.3" font-family="Times,serif" font-size="14.00"> path</text>
<text text-anchor="start" x="217" y="-2610.3" font-family="Times,serif" font-size="14.00"> a2</text>
</g>
<!-- Node0x163ab7a0 -->
<g id="node2" class="node"><title>Node0x163ab7a0</title>
<polygon fill="none" stroke="black" points="211.5,-2496.5 211.5,-2564.5 265.5,-2564.5 265.5,-2496.5 211.5,-2496.5"/>
<text text-anchor="start" x="219.5" y="-2549.3" font-family="Times,serif" font-size="14.00">v1</text>
<text text-anchor="start" x="219.5" y="-2534.3" font-family="Times,serif" font-size="14.00"> v2</text>
<text text-anchor="start" x="219.5" y="-2519.3" font-family="Times,serif" font-size="14.00"> v3</text>
<text text-anchor="start" x="219.5" y="-2504.3" font-family="Times,serif" font-size="14.00"> v4</text>
</g>
<!-- Node0x163aaf90&#45;&gt;Node0x163ab7a0 -->
<g id="edge1" class="edge"><title>Node0x163aaf90&#45;&gt;Node0x163ab7a0</title>
<path fill="none" stroke="black" d="M238.5,-2602.39C238.5,-2593.86 238.5,-2584.11 238.5,-2574.63"/>
<polygon fill="black" stroke="black" points="242,-2574.52 238.5,-2564.52 235,-2574.52 242,-2574.52"/>
</g>
<!-- Node0x163ab8a0 -->
<g id="node3" class="node"><title>Node0x163ab8a0</title>
<polygon fill="none" stroke="black" points="0.5,-2422.5 0.5,-2458.5 476.5,-2458.5 476.5,-2422.5 0.5,-2422.5"/>
<text text-anchor="start" x="8.5" y="-2436.8" font-family="Times,serif" font-size="14.00">if (setChmod(BitCastExpr&lt;ptr&gt;(path), 6, v4, v3, v2, v1) == &#45;1):</text>
</g>
<!-- Node0x163ab7a0&#45;&gt;Node0x163ab8a0 -->
<g id="edge2" class="edge"><title>Node0x163ab7a0&#45;&gt;Node0x163ab8a0</title>
<path fill="none" stroke="black" d="M238.5,-2496.48C238.5,-2487.33 238.5,-2477.5 238.5,-2468.72"/>
<polygon fill="black" stroke="black" points="242,-2468.64 238.5,-2458.64 235,-2468.64 242,-2468.64"/>
</g>
<!-- Node0x25022840 -->
<g id="node4" class="node"><title>Node0x25022840</title>
<polygon fill="none" stroke="black" points="0,-2275.5 0,-2313.5 101,-2313.5 101,-2275.5 0,-2275.5"/>
<text text-anchor="start" x="8" y="-2298.3" font-family="Times,serif" font-size="14.00">0x8048e98:</text>
<text text-anchor="start" x="8" y="-2283.3" font-family="Times,serif" font-size="14.00"> return 0</text>
</g>
<!-- Node0x163ab8a0&#45;&gt;Node0x25022840 -->
<g id="edge3" class="edge"><title>Node0x163ab8a0&#45;&gt;Node0x25022840</title>
<path fill="none" stroke="black" d="M45.008,-2422.37C28.7685,-2417.65 16.0447,-2411.64 9.5,-2404 -10.8945,-2380.2 8.66708,-2345.23 27.1372,-2321.47"/>
<polygon fill="black" stroke="black" points="29.9662,-2323.54 33.5575,-2313.58 24.5342,-2319.13 29.9662,-2323.54"/>
<text text-anchor="middle" x="224.5" y="-2392.8" font-family="Times,serif" font-size="14.00">setChmod(BitCastExpr&lt;ptr&gt;(path), 6, v4, v3, v2, v1) == &#45;1</text>
</g>
<!-- Node0x163ab160 -->
<g id="node5" class="node"><title>Node0x163ab160</title>
<polygon fill="none" stroke="black" points="305.5,-2332.5 305.5,-2370.5 623.5,-2370.5 623.5,-2332.5 305.5,-2332.5"/>
<text text-anchor="start" x="313.5" y="-2355.3" font-family="Times,serif" font-size="14.00">v5 = is_symlink(BitCastExpr&lt;ptr&gt;(path))</text>
<text text-anchor="start" x="313.5" y="-2340.3" font-family="Times,serif" font-size="14.00"> result2 = v5</text>
</g>
<!-- Node0x163ab8a0&#45;&gt;Node0x163ab160 -->
<g id="edge4" class="edge"><title>Node0x163ab8a0&#45;&gt;Node0x163ab160</title>
<path fill="none" stroke="black" d="M393.309,-2422.43C415.538,-2417.63 434.073,-2411.59 443.5,-2404 450.879,-2398.06 455.686,-2389.12 458.809,-2380.34"/>
<polygon fill="black" stroke="black" points="462.19,-2381.25 461.667,-2370.66 455.477,-2379.26 462.19,-2381.25"/>
<text text-anchor="middle" x="667.5" y="-2392.8" font-family="Times,serif" font-size="14.00">setChmod(BitCastExpr&lt;ptr&gt;(path), 6, v4, v3, v2, v1) != &#45;1</text>
</g>
<!-- Node0x163ab740 -->
<g id="node6" class="node"><title>Node0x163ab740</title>
<polygon fill="none" stroke="black" points="120.5,-23.5 120.5,-59.5 174.5,-59.5 174.5,-23.5 120.5,-23.5"/>
<text text-anchor="start" x="128.5" y="-37.8" font-family="Times,serif" font-size="14.00">exit:</text>
</g>
<!-- Node0x25022840&#45;&gt;Node0x163ab740 -->
<g id="edge5" class="edge"><title>Node0x25022840&#45;&gt;Node0x163ab740</title>
<path fill="none" stroke="black" d="M53.4462,-2275.49C56.396,-2255.88 60.5,-2223.55 60.5,-2195.5 60.5,-2195.5 60.5,-2195.5 60.5,-123 60.5,-93.6224 87.556,-71.9759 111.492,-58.5738"/>
<polygon fill="black" stroke="black" points="113.242,-61.6076 120.45,-53.8421 109.973,-55.418 113.242,-61.6076"/>
</g>
<!-- Node0x1f23d540 -->
<g id="node7" class="node"><title>Node0x1f23d540</title>
<polygon fill="none" stroke="black" points="388,-2220.5 388,-2256.5 493,-2256.5 493,-2220.5 388,-2220.5"/>
<text text-anchor="start" x="396" y="-2234.8" font-family="Times,serif" font-size="14.00">if (v5 == 0):</text>
</g>
<!-- Node0x163ab160&#45;&gt;Node0x1f23d540 -->
<g id="edge6" class="edge"><title>Node0x163ab160&#45;&gt;Node0x1f23d540</title>
<path fill="none" stroke="black" d="M460.537,-2332.17C456.682,-2314.34 450.78,-2287.04 446.378,-2266.69"/>
<polygon fill="black" stroke="black" points="449.766,-2265.79 444.232,-2256.76 442.924,-2267.27 449.766,-2265.79"/>
</g>
<!-- Node0x163ac080 -->
<g id="node8" class="node"><title>Node0x163ac080</title>
<polygon fill="none" stroke="black" points="169,-1980.5 169,-2168.5 712,-2168.5 712,-1980.5 169,-1980.5"/>
<text text-anchor="start" x="177" y="-2153.3" font-family="Times,serif" font-size="14.00">0x8048ca8:</text>
<text text-anchor="start" x="177" y="-2138.3" font-family="Times,serif" font-size="14.00"> buf</text>
<text text-anchor="start" x="177" y="-2123.3" font-family="Times,serif" font-size="14.00"> stat(BitCastExpr&lt;ptr&gt;(path), BitCastExpr&lt;ptr&gt;(&amp;(buf)))</text>
<text text-anchor="start" x="177" y="-2108.3" font-family="Times,serif" font-size="14.00"> v6</text>
<text text-anchor="start" x="177" y="-2093.3" font-family="Times,serif" font-size="14.00"> data = v6</text>
<text text-anchor="start" x="177" y="-2078.3" font-family="Times,serif" font-size="14.00"> g7 = PtrToIntCastExpr&lt;int32&gt;(fopen64(BitCastExpr&lt;ptr&gt;(path), &quot;rb&quot;))</text>
<text text-anchor="start" x="177" y="-2063.3" font-family="Times,serif" font-size="14.00"> v7 = fopen64(IntToPtrCastExpr&lt;ptr&gt;(a2), &quot;wb&quot;)</text>
<text text-anchor="start" x="177" y="-2048.3" font-family="Times,serif" font-size="14.00"> v8 = PtrToIntCastExpr&lt;int32&gt;(v7)</text>
<text text-anchor="start" x="177" y="-2033.3" font-family="Times,serif" font-size="14.00"> g3 = v8</text>
<text text-anchor="start" x="177" y="-2018.3" font-family="Times,serif" font-size="14.00"> v9 = g7</text>
<text text-anchor="start" x="177" y="-2003.3" font-family="Times,serif" font-size="14.00"> result</text>
<text text-anchor="start" x="177" y="-1988.3" font-family="Times,serif" font-size="14.00"> file</text>
</g>
<!-- Node0x1f23d540&#45;&gt;Node0x163ac080 -->
<g id="edge7" class="edge"><title>Node0x1f23d540&#45;&gt;Node0x163ac080</title>
<path fill="none" stroke="black" d="M440.5,-2220.47C440.5,-2209.77 440.5,-2194.99 440.5,-2178.93"/>
<polygon fill="black" stroke="black" points="444,-2178.79 440.5,-2168.79 437,-2178.79 444,-2178.79"/>
<text text-anchor="middle" x="470.5" y="-2190.8" font-family="Times,serif" font-size="14.00">v5 == 0</text>
</g>
<!-- Node0x163aaef0 -->
<g id="node9" class="node"><title>Node0x163aaef0</title>
<polygon fill="none" stroke="black" points="76.5,-1923.5 76.5,-1961.5 198.5,-1961.5 198.5,-1923.5 76.5,-1923.5"/>
<text text-anchor="start" x="84.5" y="-1946.3" font-family="Times,serif" font-size="14.00">0x8048e98:</text>
<text text-anchor="start" x="84.5" y="-1931.3" font-family="Times,serif" font-size="14.00"> return result2</text>
</g>
<!-- Node0x1f23d540&#45;&gt;Node0x163aaef0 -->
<g id="edge8" class="edge"><title>Node0x1f23d540&#45;&gt;Node0x163aaef0</title>
<path fill="none" stroke="black" d="M387.824,-2231.89C314.948,-2222.97 188.987,-2203 159.5,-2169 111.32,-2113.45 121.774,-2018.78 130.92,-1971.75"/>
<polygon fill="black" stroke="black" points="134.408,-1972.17 133.006,-1961.67 127.553,-1970.75 134.408,-1972.17"/>
<text text-anchor="middle" x="251.5" y="-2190.8" font-family="Times,serif" font-size="14.00">v5 != 0</text>
</g>
<!-- Node0xe8a3c20 -->
<g id="node10" class="node"><title>Node0xe8a3c20</title>
<polygon fill="none" stroke="black" points="370.5,-1866.5 370.5,-1904.5 510.5,-1904.5 510.5,-1866.5 370.5,-1866.5"/>
<text text-anchor="start" x="378.5" y="-1889.3" font-family="Times,serif" font-size="14.00">if (v7 == NULL):</text>
<text text-anchor="start" x="378.5" y="-1874.3" font-family="Times,serif" font-size="14.00"> else:</text>
</g>
<!-- Node0x163ac080&#45;&gt;Node0xe8a3c20 -->
<g id="edge9" class="edge"><title>Node0x163ac080&#45;&gt;Node0xe8a3c20</title>
<path fill="none" stroke="black" d="M440.5,-1980.27C440.5,-1956.48 440.5,-1932.67 440.5,-1915"/>
<polygon fill="black" stroke="black" points="444,-1914.84 440.5,-1904.84 437,-1914.84 444,-1914.84"/>
</g>
<!-- Node0x163aaef0&#45;&gt;Node0x163ab740 -->
<g id="edge10" class="edge"><title>Node0x163aaef0&#45;&gt;Node0x163ab740</title>
<path fill="none" stroke="black" d="M129.251,-1923.49C120.991,-1903.79 109.5,-1871.07 109.5,-1841.5 109.5,-1841.5 109.5,-1841.5 109.5,-123 109.5,-103.419 118.808,-83.5009 128.211,-68.3765"/>
<polygon fill="black" stroke="black" points="131.402,-69.8971 133.996,-59.6247 125.562,-66.0374 131.402,-69.8971"/>
</g>
<!-- Node0x163ac630 -->
<g id="node11" class="node"><title>Node0x163ac630</title>
<polygon fill="none" stroke="black" points="274.5,-1776.5 274.5,-1814.5 384.5,-1814.5 384.5,-1776.5 274.5,-1776.5"/>
<text text-anchor="start" x="282.5" y="-1799.3" font-family="Times,serif" font-size="14.00">0x8048cfd:</text>
<text text-anchor="start" x="282.5" y="-1784.3" font-family="Times,serif" font-size="14.00"> if (v9 == 0):</text>
</g>
<!-- Node0xe8a3c20&#45;&gt;Node0x163ac630 -->
<g id="edge11" class="edge"><title>Node0xe8a3c20&#45;&gt;Node0x163ac630</title>
<path fill="none" stroke="black" d="M375.713,-1866.31C366.086,-1861.51 356.921,-1855.5 349.5,-1848 343.101,-1841.53 338.698,-1832.78 335.69,-1824.33"/>
<polygon fill="black" stroke="black" points="339.022,-1823.26 332.765,-1814.71 332.324,-1825.29 339.022,-1823.26"/>
<text text-anchor="middle" x="396.5" y="-1836.8" font-family="Times,serif" font-size="14.00">v7 == NULL</text>
</g>
<!-- Node0x8fa2c60 -->
<g id="node12" class="node"><title>Node0x8fa2c60</title>
<polygon fill="none" stroke="black" points="402.5,-1776.5 402.5,-1814.5 506.5,-1814.5 506.5,-1776.5 402.5,-1776.5"/>
<text text-anchor="start" x="410.5" y="-1799.3" font-family="Times,serif" font-size="14.00">0x8048cf7:</text>
<text text-anchor="start" x="410.5" y="-1784.3" font-family="Times,serif" font-size="14.00"> if (v9 != 0):</text>
</g>
<!-- Node0xe8a3c20&#45;&gt;Node0x8fa2c60 -->
<g id="edge12" class="edge"><title>Node0xe8a3c20&#45;&gt;Node0x8fa2c60</title>
<path fill="none" stroke="black" d="M443.401,-1866.27C445.297,-1854.35 447.812,-1838.54 449.969,-1824.98"/>
<polygon fill="black" stroke="black" points="453.488,-1825.14 451.603,-1814.71 446.575,-1824.04 453.488,-1825.14"/>
<text text-anchor="middle" x="492.5" y="-1836.8" font-family="Times,serif" font-size="14.00">v7 != NULL</text>
</g>
<!-- Node0x7e68960 -->
<g id="node13" class="node"><title>Node0x7e68960</title>
<polygon fill="none" stroke="black" points="146,-1539.5 146,-1577.5 247,-1577.5 247,-1539.5 146,-1539.5"/>
<text text-anchor="start" x="154" y="-1562.3" font-family="Times,serif" font-size="14.00">0x8048e98:</text>
<text text-anchor="start" x="154" y="-1547.3" font-family="Times,serif" font-size="14.00"> return 0</text>
</g>
<!-- Node0x163ac630&#45;&gt;Node0x7e68960 -->
<g id="edge13" class="edge"><title>Node0x163ac630&#45;&gt;Node0x7e68960</title>
<path fill="none" stroke="black" d="M289.301,-1776.39C281.265,-1771.34 273.471,-1765.22 267.5,-1758 225.33,-1707.02 207.313,-1629.07 200.366,-1587.65"/>
<polygon fill="black" stroke="black" points="203.813,-1587.03 198.794,-1577.7 196.898,-1588.13 203.813,-1587.03"/>
<text text-anchor="middle" x="297.5" y="-1746.8" font-family="Times,serif" font-size="14.00">v9 == 0</text>
</g>
<!-- Node0x163ac780 -->
<g id="node14" class="node"><title>Node0x163ac780</title>
<polygon fill="none" stroke="black" points="283,-1641.5 283,-1679.5 384,-1679.5 384,-1641.5 283,-1641.5"/>
<text text-anchor="start" x="291" y="-1664.3" font-family="Times,serif" font-size="14.00">0x8048d05:</text>
<text text-anchor="start" x="291" y="-1649.3" font-family="Times,serif" font-size="14.00"> file = v9</text>
</g>
<!-- Node0x163ac630&#45;&gt;Node0x163ac780 -->
<g id="edge14" class="edge"><title>Node0x163ac630&#45;&gt;Node0x163ac780</title>
<path fill="none" stroke="black" d="M330.048,-1776.29C330.717,-1754.03 331.858,-1716.1 332.644,-1689.98"/>
<polygon fill="black" stroke="black" points="336.144,-1690.02 332.946,-1679.92 329.147,-1689.81 336.144,-1690.02"/>
<text text-anchor="middle" x="358.5" y="-1746.8" font-family="Times,serif" font-size="14.00">v9 != 0</text>
</g>
<!-- Node0x163ace70 -->
<g id="node15" class="node"><title>Node0x163ace70</title>
<polygon fill="none" stroke="black" points="702.5,-1596.5 702.5,-1724.5 1118.5,-1724.5 1118.5,-1596.5 702.5,-1596.5"/>
<text text-anchor="start" x="710.5" y="-1709.3" font-family="Times,serif" font-size="14.00">v10 = randstring(16)</text>
<text text-anchor="start" x="710.5" y="-1694.3" font-family="Times,serif" font-size="14.00"> mem = malloc(2048)</text>
<text text-anchor="start" x="710.5" y="-1679.3" font-family="Times,serif" font-size="14.00"> g4 = PtrToIntCastExpr&lt;int32&gt;(memset(mem, 0, 512))</text>
<text text-anchor="start" x="710.5" y="-1664.3" font-family="Times,serif" font-size="14.00"> g5 = 0</text>
<text text-anchor="start" x="710.5" y="-1649.3" font-family="Times,serif" font-size="14.00"> v11 = rand()</text>
<text text-anchor="start" x="710.5" y="-1634.3" font-family="Times,serif" font-size="14.00"> *(IntToPtrCastExpr&lt;ptr&gt;(((g2 &#45; 48) + g5))) = v11</text>
<text text-anchor="start" x="710.5" y="-1619.3" font-family="Times,serif" font-size="14.00"> v12 = (g5 + 1)</text>
<text text-anchor="start" x="710.5" y="-1604.3" font-family="Times,serif" font-size="14.00"> g5 = v12</text>
</g>
<!-- Node0x8fa2c60&#45;&gt;Node0x163ace70 -->
<g id="edge15" class="edge"><title>Node0x8fa2c60&#45;&gt;Node0x163ace70</title>
<path fill="none" stroke="black" d="M506.809,-1779.24C552.947,-1765.79 623.44,-1745.23 692.679,-1725.03"/>
<polygon fill="black" stroke="black" points="693.818,-1728.34 702.438,-1722.18 691.858,-1721.62 693.818,-1728.34"/>
<text text-anchor="middle" x="655.5" y="-1746.8" font-family="Times,serif" font-size="14.00">v9 != 0</text>
</g>
<!-- Node0x8fa2de0 -->
<g id="node16" class="node"><title>Node0x8fa2de0</title>
<polygon fill="none" stroke="black" points="405,-1642.5 405,-1678.5 482,-1678.5 482,-1642.5 405,-1642.5"/>
<text text-anchor="start" x="413" y="-1656.8" font-family="Times,serif" font-size="14.00">file = v8</text>
</g>
<!-- Node0x8fa2c60&#45;&gt;Node0x8fa2de0 -->
<g id="edge16" class="edge"><title>Node0x8fa2c60&#45;&gt;Node0x8fa2de0</title>
<path fill="none" stroke="black" d="M452.994,-1776.29C451.121,-1753.65 447.91,-1714.82 445.747,-1688.67"/>
<polygon fill="black" stroke="black" points="449.231,-1688.33 444.919,-1678.65 442.255,-1688.91 449.231,-1688.33"/>
<text text-anchor="middle" x="481.5" y="-1746.8" font-family="Times,serif" font-size="14.00">v9 == 0</text>
</g>
<!-- Node0x7e68960&#45;&gt;Node0x163ab740 -->
<g id="edge17" class="edge"><title>Node0x7e68960&#45;&gt;Node0x163ab740</title>
<path fill="none" stroke="black" d="M178.861,-1539.32C174.274,-1533.79 169.722,-1527.46 166.5,-1521 150.477,-1488.88 147.5,-1478.4 147.5,-1442.5 147.5,-1442.5 147.5,-1442.5 147.5,-123 147.5,-105.286 147.5,-85.379 147.5,-69.7932"/>
<polygon fill="black" stroke="black" points="151,-69.7734 147.5,-59.7734 144,-69.7735 151,-69.7734"/>
</g>
<!-- Node0x163ac020 -->
<g id="node17" class="node"><title>Node0x163ac020</title>
<polygon fill="none" stroke="black" points="175.5,-1467.5 175.5,-1520.5 517.5,-1520.5 517.5,-1467.5 175.5,-1467.5"/>
<text text-anchor="start" x="183.5" y="-1505.3" font-family="Times,serif" font-size="14.00">0x8048d0f:</text>
<text text-anchor="start" x="183.5" y="-1490.3" font-family="Times,serif" font-size="14.00"> result = fclose(IntToPtrCastExpr&lt;ptr&gt;(file))</text>
<text text-anchor="start" x="183.5" y="-1475.3" font-family="Times,serif" font-size="14.00"> result2 = result</text>
</g>
<!-- Node0x163ac780&#45;&gt;Node0x163ac020 -->
<g id="edge18" class="edge"><title>Node0x163ac780&#45;&gt;Node0x163ac020</title>
<path fill="none" stroke="black" d="M334.941,-1641.27C337.044,-1614.66 340.995,-1564.66 343.687,-1530.6"/>
<polygon fill="black" stroke="black" points="347.179,-1530.83 344.478,-1520.58 340.201,-1530.28 347.179,-1530.83"/>
</g>
<!-- Node0x163aced0 -->
<g id="node18" class="node"><title>Node0x163aced0</title>
<polygon fill="none" stroke="black" points="892.5,-1476 892.5,-1512 1038.5,-1512 1038.5,-1476 892.5,-1476"/>
<text text-anchor="start" x="900.5" y="-1490.3" font-family="Times,serif" font-size="14.00">while (v12 != 16):</text>
</g>
<!-- Node0x163ace70&#45;&gt;Node0x163aced0 -->
<g id="edge19" class="edge"><title>Node0x163ace70&#45;&gt;Node0x163aced0</title>
<path fill="none" stroke="black" d="M931.607,-1596.37C940.223,-1570.6 949.726,-1542.18 956.471,-1522"/>
<polygon fill="black" stroke="black" points="959.876,-1522.86 959.728,-1512.26 953.237,-1520.64 959.876,-1522.86"/>
</g>
<!-- Node0x8fa2de0&#45;&gt;Node0x163ac020 -->
<g id="edge20" class="edge"><title>Node0x8fa2de0&#45;&gt;Node0x163ac020</title>
<path fill="none" stroke="black" d="M433.303,-1642.21C417.585,-1615.55 387.134,-1563.91 366.806,-1529.44"/>
<polygon fill="black" stroke="black" points="369.711,-1527.47 361.616,-1520.64 363.681,-1531.03 369.711,-1527.47"/>
</g>
<!-- Node0x163ac020&#45;&gt;Node0x163ab740 -->
<g id="edge21" class="edge"><title>Node0x163ac020&#45;&gt;Node0x163ab740</title>
<path fill="none" stroke="black" d="M272.597,-1467.46C230.273,-1447.63 185.5,-1415.34 185.5,-1367.5 185.5,-1367.5 185.5,-1367.5 185.5,-123 185.5,-103.419 176.192,-83.5009 166.789,-68.3765"/>
<polygon fill="black" stroke="black" points="169.438,-66.0374 161.004,-59.6247 163.598,-69.8971 169.438,-66.0374"/>
</g>
<!-- Node0x1cbfc510 -->
<g id="node19" class="node"><title>Node0x1cbfc510</title>
<polygon fill="none" stroke="black" points="1189.5,-1325 1189.5,-1408 1569.5,-1408 1569.5,-1325 1189.5,-1325"/>
<text text-anchor="start" x="1197.5" y="-1392.8" font-family="Times,serif" font-size="14.00">0x8048d4f:</text>
<text text-anchor="start" x="1197.5" y="-1377.8" font-family="Times,serif" font-size="14.00"> v11 = rand()</text>
<text text-anchor="start" x="1197.5" y="-1362.8" font-family="Times,serif" font-size="14.00"> *(IntToPtrCastExpr&lt;ptr&gt;(((g2 &#45; 48) + g5))) = v11</text>
<text text-anchor="start" x="1197.5" y="-1347.8" font-family="Times,serif" font-size="14.00"> v12 = (g5 + 1)</text>
<text text-anchor="start" x="1197.5" y="-1332.8" font-family="Times,serif" font-size="14.00"> g5 = v12</text>
</g>
<!-- Node0x163aced0&#45;&gt;Node0x1cbfc510 -->
<g id="edge22" class="edge"><title>Node0x163aced0&#45;&gt;Node0x1cbfc510</title>
<path fill="none" stroke="black" d="M1021.76,-1475.94C1076.57,-1459.33 1162.15,-1433.39 1235.87,-1411.04"/>
<polygon fill="black" stroke="black" points="1237.17,-1414.3 1245.72,-1408.05 1235.14,-1407.61 1237.17,-1414.3"/>
<text text-anchor="middle" x="1195.5" y="-1437.8" font-family="Times,serif" font-size="14.00">v12 != 16</text>
</g>
<!-- Node0xe291cf0 -->
<g id="node20" class="node"><title>Node0xe291cf0</title>
<polygon fill="none" stroke="black" points="214,-1317.5 214,-1415.5 1171,-1415.5 1171,-1317.5 214,-1317.5"/>
<text text-anchor="start" x="222" y="-1400.3" font-family="Times,serif" font-size="14.00">0x8048d5e:</text>
<text text-anchor="start" x="222" y="-1385.3" font-family="Times,serif" font-size="14.00"> v13</text>
<text text-anchor="start" x="222" y="-1370.3" font-family="Times,serif" font-size="14.00"> v14</text>
<text text-anchor="start" x="222" y="-1355.3" font-family="Times,serif" font-size="14.00"> v15 = public_encrypt(v10, 16, PtrToIntCastExpr&lt;int32&gt;(mem), (((ExtCastExpr&lt;int32&gt;(v11) &amp; &#45;256) | (v14 &amp; 240)) | (v13 % 16)))</text>
<text text-anchor="start" x="222" y="-1340.3" font-family="Times,serif" font-size="14.00"> data2 = v15</text>
<text text-anchor="start" x="222" y="-1325.3" font-family="Times,serif" font-size="14.00"> path2</text>
</g>
<!-- Node0x163aced0&#45;&gt;Node0xe291cf0 -->
<g id="edge23" class="edge"><title>Node0x163aced0&#45;&gt;Node0xe291cf0</title>
<path fill="none" stroke="black" d="M928.398,-1475.94C896.889,-1461.46 849.948,-1439.88 806.217,-1419.78"/>
<polygon fill="black" stroke="black" points="807.488,-1416.51 796.94,-1415.51 804.564,-1422.87 807.488,-1416.51"/>
<text text-anchor="middle" x="908.5" y="-1437.8" font-family="Times,serif" font-size="14.00">v12 == 16</text>
</g>
<!-- Node0x1cbfc510&#45;&gt;Node0x163aced0 -->
<g id="edge24" class="edge"><title>Node0x1cbfc510&#45;&gt;Node0x163aced0</title>
<path fill="none" stroke="black" d="M1319.06,-1408.03C1294.13,-1423.04 1264.36,-1438.85 1235.5,-1449 1175,-1470.29 1103.19,-1481.36 1048.84,-1487.07"/>
<polygon fill="black" stroke="black" points="1048.16,-1483.62 1038.56,-1488.11 1048.86,-1490.59 1048.16,-1483.62"/>
</g>
<!-- Node0xe291e50 -->
<g id="node21" class="node"><title>Node0xe291e50</title>
<polygon fill="none" stroke="black" points="623,-1241.5 623,-1279.5 742,-1279.5 742,-1241.5 623,-1241.5"/>
<text text-anchor="start" x="631" y="-1264.3" font-family="Times,serif" font-size="14.00">if (v15 == &#45;1):</text>
<text text-anchor="start" x="631" y="-1249.3" font-family="Times,serif" font-size="14.00"> else:</text>
</g>
<!-- Node0xe291cf0&#45;&gt;Node0xe291e50 -->
<g id="edge25" class="edge"><title>Node0xe291cf0&#45;&gt;Node0xe291e50</title>
<path fill="none" stroke="black" d="M687.881,-1317.46C686.967,-1307.95 686.036,-1298.27 685.211,-1289.69"/>
<polygon fill="black" stroke="black" points="688.673,-1289.13 684.232,-1279.51 681.705,-1289.8 688.673,-1289.13"/>
</g>
<!-- Node0x163ac510 -->
<g id="node22" class="node"><title>Node0x163ac510</title>
<polygon fill="none" stroke="black" points="236.5,-944.5 236.5,-1012.5 520.5,-1012.5 520.5,-944.5 236.5,-944.5"/>
<text text-anchor="start" x="244.5" y="-997.3" font-family="Times,serif" font-size="14.00">0x8048d8f:</text>
<text text-anchor="start" x="244.5" y="-982.3" font-family="Times,serif" font-size="14.00"> fclose(IntToPtrCastExpr&lt;ptr&gt;(g7))</text>
<text text-anchor="start" x="244.5" y="-967.3" font-family="Times,serif" font-size="14.00"> fclose(IntToPtrCastExpr&lt;ptr&gt;(g3))</text>
<text text-anchor="start" x="244.5" y="-952.3" font-family="Times,serif" font-size="14.00"> path2 = IntToPtrCastExpr&lt;ptr&gt;(a2)</text>
</g>
<!-- Node0xe291e50&#45;&gt;Node0x163ac510 -->
<g id="edge26" class="edge"><title>Node0xe291e50&#45;&gt;Node0x163ac510</title>
<path fill="none" stroke="black" d="M622.854,-1252.58C549.766,-1242.8 432.092,-1222.44 403.5,-1190 363.231,-1144.31 364.577,-1069.73 370.563,-1022.7"/>
<polygon fill="black" stroke="black" points="374.067,-1022.92 371.985,-1012.53 367.134,-1021.95 374.067,-1022.92"/>
<text text-anchor="middle" x="504" y="-1211.8" font-family="Times,serif" font-size="14.00">v15 == &#45;1</text>
</g>
<!-- Node0x163aa530 -->
<g id="node23" class="node"><title>Node0x163aa530</title>
<polygon fill="none" stroke="black" points="413,-1031.5 413,-1189.5 952,-1189.5 952,-1031.5 413,-1031.5"/>
<text text-anchor="start" x="421" y="-1174.3" font-family="Times,serif" font-size="14.00">0x8048da9:</text>
<text text-anchor="start" x="421" y="-1159.3" font-family="Times,serif" font-size="14.00"> fwrite(BitCastExpr&lt;ptr&gt;(&amp;(data)), 1, 4, IntToPtrCastExpr&lt;ptr&gt;(g3))</text>
<text text-anchor="start" x="421" y="-1144.3" font-family="Times,serif" font-size="14.00"> fwrite(BitCastExpr&lt;ptr&gt;(&amp;(data2)), 1, 4, IntToPtrCastExpr&lt;ptr&gt;(g3))</text>
<text text-anchor="start" x="421" y="-1129.3" font-family="Times,serif" font-size="14.00"> fwrite(mem, 1, data2, IntToPtrCastExpr&lt;ptr&gt;(g3))</text>
<text text-anchor="start" x="421" y="-1114.3" font-family="Times,serif" font-size="14.00"> data3</text>
<text text-anchor="start" x="421" y="-1099.3" font-family="Times,serif" font-size="14.00"> fwrite(BitCastExpr&lt;ptr&gt;(&amp;(data3)), 1, 16, IntToPtrCastExpr&lt;ptr&gt;(g3))</text>
<text text-anchor="start" x="421" y="-1084.3" font-family="Times,serif" font-size="14.00"> v16</text>
<text text-anchor="start" x="421" y="-1069.3" font-family="Times,serif" font-size="14.00"> v17 = &amp;(v16)</text>
<text text-anchor="start" x="421" y="-1054.3" font-family="Times,serif" font-size="14.00"> data4</text>
<text text-anchor="start" x="421" y="-1039.3" font-family="Times,serif" font-size="14.00"> v18 = &amp;(data4)</text>
</g>
<!-- Node0xe291e50&#45;&gt;Node0x163aa530 -->
<g id="edge27" class="edge"><title>Node0xe291e50&#45;&gt;Node0x163aa530</title>
<path fill="none" stroke="black" d="M682.5,-1241.35C682.5,-1230.46 682.5,-1215.71 682.5,-1200.06"/>
<polygon fill="black" stroke="black" points="686,-1199.67 682.5,-1189.67 679,-1199.67 686,-1199.67"/>
<text text-anchor="middle" x="716" y="-1211.8" font-family="Times,serif" font-size="14.00">v15 != &#45;1</text>
</g>
<!-- Node0x163ad8a0 -->
<g id="node24" class="node"><title>Node0x163ad8a0</title>
<polygon fill="none" stroke="black" points="214.5,-97.5 214.5,-150.5 540.5,-150.5 540.5,-97.5 214.5,-97.5"/>
<text text-anchor="start" x="222.5" y="-135.3" font-family="Times,serif" font-size="14.00">0x8048e90:</text>
<text text-anchor="start" x="222.5" y="-120.3" font-family="Times,serif" font-size="14.00"> result = unlink(BitCastExpr&lt;ptr&gt;(path2))</text>
<text text-anchor="start" x="222.5" y="-105.3" font-family="Times,serif" font-size="14.00"> return result</text>
</g>
<!-- Node0x163ac510&#45;&gt;Node0x163ad8a0 -->
<g id="edge28" class="edge"><title>Node0x163ac510&#45;&gt;Node0x163ad8a0</title>
<path fill="none" stroke="black" d="M378.053,-944.372C377.786,-921.85 377.5,-891.378 377.5,-864.5 377.5,-864.5 377.5,-864.5 377.5,-236.5 377.5,-211.214 377.5,-182.703 377.5,-160.841"/>
<polygon fill="black" stroke="black" points="381,-160.686 377.5,-150.686 374,-160.686 381,-160.686"/>
</g>
<!-- Node0x163ad900 -->
<g id="node25" class="node"><title>Node0x163ad900</title>
<polygon fill="none" stroke="black" points="631.5,-889.5 631.5,-925.5 733.5,-925.5 733.5,-889.5 631.5,-889.5"/>
<text text-anchor="start" x="639.5" y="-903.8" font-family="Times,serif" font-size="14.00">if (v13 &gt; 0):</text>
</g>
<!-- Node0x163aa530&#45;&gt;Node0x163ad900 -->
<g id="edge29" class="edge"><title>Node0x163aa530&#45;&gt;Node0x163ad900</title>
<path fill="none" stroke="black" d="M682.5,-1031.21C682.5,-997.565 682.5,-960.421 682.5,-935.909"/>
<polygon fill="black" stroke="black" points="686,-935.594 682.5,-925.594 679,-935.594 686,-935.594"/>
</g>
<!-- Node0x163ad8a0&#45;&gt;Node0x163ab740 -->
<g id="edge30" class="edge"><title>Node0x163ad8a0&#45;&gt;Node0x163ab740</title>
<path fill="none" stroke="black" d="M304.411,-97.4187C264.357,-83.4001 216.446,-66.6312 184.191,-55.3418"/>
<polygon fill="black" stroke="black" points="185.304,-52.0233 174.709,-52.0232 182.991,-58.6303 185.304,-52.0233"/>
</g>
<!-- Node0x163ae410 -->
<g id="node26" class="node"><title>Node0x163ae410</title>
<polygon fill="none" stroke="black" points="944.5,-799.5 944.5,-837.5 1034.5,-837.5 1034.5,-799.5 944.5,-799.5"/>
<text text-anchor="start" x="952.5" y="-822.3" font-family="Times,serif" font-size="14.00">v19 = v13</text>
<text text-anchor="start" x="952.5" y="-807.3" font-family="Times,serif" font-size="14.00"> v20 = 0</text>
</g>
<!-- Node0x163ad900&#45;&gt;Node0x163ae410 -->
<g id="edge31" class="edge"><title>Node0x163ad900&#45;&gt;Node0x163ae410</title>
<path fill="none" stroke="black" d="M733.539,-892.036C789.031,-876.311 877.4,-851.268 934.426,-835.107"/>
<polygon fill="black" stroke="black" points="935.678,-838.39 944.345,-832.296 933.769,-831.656 935.678,-838.39"/>
<text text-anchor="middle" x="883" y="-859.8" font-family="Times,serif" font-size="14.00">v13 &gt; 0</text>
</g>
<!-- Node0x163ae230 -->
<g id="node27" class="node"><title>Node0x163ae230</title>
<polygon fill="none" stroke="black" points="406,-188.5 406,-286.5 681,-286.5 681,-188.5 406,-188.5"/>
<text text-anchor="start" x="414" y="-271.3" font-family="Times,serif" font-size="14.00">0x8048e63:</text>
<text text-anchor="start" x="414" y="-256.3" font-family="Times,serif" font-size="14.00"> fclose(IntToPtrCastExpr&lt;ptr&gt;(g7))</text>
<text text-anchor="start" x="414" y="-241.3" font-family="Times,serif" font-size="14.00"> fclose(IntToPtrCastExpr&lt;ptr&gt;(g3))</text>
<text text-anchor="start" x="414" y="-226.3" font-family="Times,serif" font-size="14.00"> free(IntToPtrCastExpr&lt;ptr&gt;(v10))</text>
<text text-anchor="start" x="414" y="-211.3" font-family="Times,serif" font-size="14.00"> free(mem)</text>
<text text-anchor="start" x="414" y="-196.3" font-family="Times,serif" font-size="14.00"> path2 = path</text>
</g>
<!-- Node0x163ad900&#45;&gt;Node0x163ae230 -->
<g id="edge32" class="edge"><title>Node0x163ad900&#45;&gt;Node0x163ae230</title>
<path fill="none" stroke="black" d="M631.275,-905.848C571.137,-902.053 479.5,-885.45 479.5,-819.5 479.5,-819.5 479.5,-819.5 479.5,-355.5 479.5,-334.409 487.604,-313.514 498.044,-295.345"/>
<polygon fill="black" stroke="black" points="501.123,-297.018 503.331,-286.656 495.143,-293.379 501.123,-297.018"/>
<text text-anchor="middle" x="514" y="-590.8" font-family="Times,serif" font-size="14.00">v13 &lt;= 0</text>
</g>
<!-- Node0x28d54e10 -->
<g id="node28" class="node"><title>Node0x28d54e10</title>
<polygon fill="none" stroke="black" points="1018,-725.5 1018,-761.5 1115,-761.5 1115,-725.5 1018,-725.5"/>
<text text-anchor="start" x="1026" y="-739.8" font-family="Times,serif" font-size="14.00">while True:</text>
</g>
<!-- Node0x163ae410&#45;&gt;Node0x28d54e10 -->
<g id="edge33" class="edge"><title>Node0x163ae410&#45;&gt;Node0x28d54e10</title>
<path fill="none" stroke="black" d="M1008.53,-799.455C1018.35,-790.146 1030.46,-778.663 1041.07,-768.605"/>
<polygon fill="black" stroke="black" points="1043.63,-771.005 1048.48,-761.585 1038.81,-765.925 1043.63,-771.005"/>
</g>
<!-- Node0x163ae230&#45;&gt;Node0x163ad8a0 -->
<g id="edge34" class="edge"><title>Node0x163ae230&#45;&gt;Node0x163ad8a0</title>
<path fill="none" stroke="black" d="M471.655,-188.243C455.541,-177.419 438.855,-166.211 424.087,-156.292"/>
<polygon fill="black" stroke="black" points="425.885,-153.284 415.633,-150.613 421.982,-159.094 425.885,-153.284"/>
</g>
<!-- Node0x28d54ea0 -->
<g id="node29" class="node"><title>Node0x28d54ea0</title>
<polygon fill="none" stroke="black" points="507.5,-620.5 507.5,-673.5 1055.5,-673.5 1055.5,-620.5 507.5,-620.5"/>
<text text-anchor="start" x="515.5" y="-658.3" font-family="Times,serif" font-size="14.00">v21 = (v19 &#45; 16)</text>
<text text-anchor="start" x="515.5" y="-643.3" font-family="Times,serif" font-size="14.00"> v22 = (v19 if ((v21 == 0) | ((v21 &lt; 0) ^ (((15 &#45; v19) &amp; v19) &lt; 0))) else 16)</text>
<text text-anchor="start" x="515.5" y="-628.3" font-family="Times,serif" font-size="14.00"> g5 = v21</text>
</g>
<!-- Node0x28d54e10&#45;&gt;Node0x28d54ea0 -->
<g id="edge35" class="edge"><title>Node0x28d54e10&#45;&gt;Node0x28d54ea0</title>
<path fill="none" stroke="black" d="M1017.83,-726.362C976.843,-712.772 917.211,-692.999 868.103,-676.716"/>
<polygon fill="black" stroke="black" points="869.024,-673.334 858.431,-673.509 866.821,-679.978 869.024,-673.334"/>
<text text-anchor="middle" x="975.5" y="-695.8" font-family="Times,serif" font-size="14.00">True</text>
</g>
<!-- Node0x28d54fc0 -->
<g id="node30" class="node"><title>Node0x28d54fc0</title>
<polygon fill="none" stroke="black" points="674,-532.5 674,-568.5 1341,-568.5 1341,-532.5 674,-532.5"/>
<text text-anchor="start" x="682" y="-546.8" font-family="Times,serif" font-size="14.00">if (fread_unlocked(BitCastExpr&lt;ptr&gt;(&amp;(v16)), 1, v22, IntToPtrCastExpr&lt;ptr&gt;(g7)) &gt;= 1):</text>
</g>
<!-- Node0x28d54ea0&#45;&gt;Node0x28d54fc0 -->
<g id="edge36" class="edge"><title>Node0x28d54ea0&#45;&gt;Node0x28d54fc0</title>
<path fill="none" stroke="black" d="M842.659,-620.427C878.625,-605.388 923.538,-586.608 957.396,-572.451"/>
<polygon fill="black" stroke="black" points="958.76,-575.674 966.635,-568.587 956.059,-569.216 958.76,-575.674"/>
</g>
<!-- Node0x28d54fc0&#45;&gt;Node0x28d54e10 -->
<g id="edge38" class="edge"><title>Node0x28d54fc0&#45;&gt;Node0x28d54e10</title>
<path fill="none" stroke="black" d="M1027.65,-568.711C1040.86,-581.375 1057.02,-599.837 1064.5,-620 1076.02,-651.061 1074.26,-689.67 1071.12,-715.146"/>
<polygon fill="black" stroke="black" points="1067.63,-714.813 1069.72,-725.2 1074.57,-715.777 1067.63,-714.813"/>
<text text-anchor="middle" x="1377.5" y="-643.3" font-family="Times,serif" font-size="14.00">fread_unlocked(BitCastExpr&lt;ptr&gt;(&amp;(v16)), 1, v22, IntToPtrCastExpr&lt;ptr&gt;(g7)) &lt; 1</text>
</g>
<!-- Node0x28d55480 -->
<g id="node31" class="node"><title>Node0x28d55480</title>
<polygon fill="none" stroke="black" points="738,-412.5 738,-480.5 1277,-480.5 1277,-412.5 738,-412.5"/>
<text text-anchor="start" x="746" y="-465.3" font-family="Times,serif" font-size="14.00">0x8048e1e:</text>
<text text-anchor="start" x="746" y="-450.3" font-family="Times,serif" font-size="14.00"> aes_encrypt(v17, 16, v10, PtrToIntCastExpr&lt;int32&gt;(&amp;(data3)), v18)</text>
<text text-anchor="start" x="746" y="-435.3" font-family="Times,serif" font-size="14.00"> fwrite(BitCastExpr&lt;ptr&gt;(&amp;(data4)), 1, 16, IntToPtrCastExpr&lt;ptr&gt;(g3))</text>
<text text-anchor="start" x="746" y="-420.3" font-family="Times,serif" font-size="14.00"> v23 = (v20 + 16)</text>
</g>
<!-- Node0x28d54fc0&#45;&gt;Node0x28d55480 -->
<g id="edge37" class="edge"><title>Node0x28d54fc0&#45;&gt;Node0x28d55480</title>
<path fill="none" stroke="black" d="M1007.5,-532.197C1007.5,-520.854 1007.5,-505.486 1007.5,-490.954"/>
<polygon fill="black" stroke="black" points="1011,-490.59 1007.5,-480.59 1004,-490.59 1011,-490.59"/>
<text text-anchor="middle" x="1318.5" y="-502.8" font-family="Times,serif" font-size="14.00">fread_unlocked(BitCastExpr&lt;ptr&gt;(&amp;(v16)), 1, v22, IntToPtrCastExpr&lt;ptr&gt;(g7)) &gt;= 1</text>
</g>
<!-- Node0x28d55570 -->
<g id="node32" class="node"><title>Node0x28d55570</title>
<polygon fill="none" stroke="black" points="948,-338.5 948,-374.5 1067,-374.5 1067,-338.5 948,-338.5"/>
<text text-anchor="start" x="956" y="-352.8" font-family="Times,serif" font-size="14.00">if (v23 &lt; v13):</text>
</g>
<!-- Node0x28d55480&#45;&gt;Node0x28d55570 -->
<g id="edge39" class="edge"><title>Node0x28d55480&#45;&gt;Node0x28d55570</title>
<path fill="none" stroke="black" d="M1007.5,-412.482C1007.5,-403.328 1007.5,-393.497 1007.5,-384.715"/>
<polygon fill="black" stroke="black" points="1011,-384.64 1007.5,-374.64 1004,-384.64 1011,-384.64"/>
</g>
<!-- Node0x28d55570&#45;&gt;Node0x163ae230 -->
<g id="edge41" class="edge"><title>Node0x28d55570&#45;&gt;Node0x163ae230</title>
<path fill="none" stroke="black" d="M947.79,-340.444C883.266,-324.174 778.009,-297.633 691.069,-275.71"/>
<polygon fill="black" stroke="black" points="691.924,-272.316 681.372,-273.265 690.213,-279.104 691.924,-272.316"/>
</g>
<!-- Node0x28d55650 -->
<g id="node33" class="node"><title>Node0x28d55650</title>
<polygon fill="none" stroke="black" points="1442.5,-203.5 1442.5,-271.5 1542.5,-271.5 1542.5,-203.5 1442.5,-203.5"/>
<text text-anchor="start" x="1450.5" y="-256.3" font-family="Times,serif" font-size="14.00">0x8048e1e:</text>
<text text-anchor="start" x="1450.5" y="-241.3" font-family="Times,serif" font-size="14.00"> v19 = g5</text>
<text text-anchor="start" x="1450.5" y="-226.3" font-family="Times,serif" font-size="14.00"> v20 = v23</text>
<text text-anchor="start" x="1450.5" y="-211.3" font-family="Times,serif" font-size="14.00"> continue</text>
</g>
<!-- Node0x28d55570&#45;&gt;Node0x28d55650 -->
<g id="edge40" class="edge"><title>Node0x28d55570&#45;&gt;Node0x28d55650</title>
<path fill="none" stroke="black" d="M1067.46,-341.036C1160.62,-318.561 1339.11,-275.502 1432.38,-253.003"/>
<polygon fill="black" stroke="black" points="1433.33,-256.375 1442.23,-250.628 1431.69,-249.57 1433.33,-256.375"/>
<text text-anchor="middle" x="1243.5" y="-308.8" font-family="Times,serif" font-size="14.00">v23 &lt; v13</text>
</g>
<!-- Node0x28d55650&#45;&gt;Node0x28d54e10 -->
<g id="edge42" class="edge"><title>Node0x28d55650&#45;&gt;Node0x28d54e10</title>
<path fill="none" stroke="black" d="M1542.76,-241.474C1612.33,-248.616 1729.5,-272.904 1729.5,-355.5 1729.5,-648 1729.5,-648 1729.5,-648 1729.5,-708.725 1287.97,-733.272 1125.54,-740.248"/>
<polygon fill="black" stroke="black" points="1125.1,-736.764 1115.25,-740.682 1125.39,-743.757 1125.1,-736.764"/>
</g>
</g>
</svg>
