<?xml version="1.0" encoding="UTF-8" standalone="no"?>
<!DOCTYPE svg PUBLIC "-//W3C//DTD SVG 1.1//EN"
 "http://www.w3.org/Graphics/SVG/1.1/DTD/svg11.dtd">
<!-- Generated by graphviz version 2.38.0 (20140413.2041)
 -->
<!-- Title: Control&#45;flow graph for function &#39;mbedtls_md5_clone(*a1, *a2)&#39;. Pages: 1 -->
<svg width="475pt" height="248pt"
 viewBox="0.00 0.00 475.00 248.00" xmlns="http://www.w3.org/2000/svg" xmlns:xlink="http://www.w3.org/1999/xlink">
<g id="graph0" class="graph" transform="scale(1 1) rotate(0) translate(4 244)">
<title>Control&#45;flow graph for function &#39;mbedtls_md5_clone(*a1, *a2)&#39;.</title>
<polygon fill="white" stroke="none" points="-4,4 -4,-244 471,-244 471,4 -4,4"/>
<text text-anchor="middle" x="233.5" y="-7.8" font-family="Times,serif" font-size="14.00">Control&#45;flow graph for function &#39;mbedtls_md5_clone(*a1, *a2)&#39;.</text>
<!-- Node0x7ff9e40 -->
<g id="node1" class="node"><title>Node0x7ff9e40</title>
<polygon fill="none" stroke="black" points="204,-186.5 204,-239.5 263,-239.5 263,-186.5 204,-186.5"/>
<text text-anchor="start" x="212" y="-224.3" font-family="Times,serif" font-size="14.00">entry:</text>
<text text-anchor="start" x="212" y="-209.3" font-family="Times,serif" font-size="14.00"> a1</text>
<text text-anchor="start" x="212" y="-194.3" font-family="Times,serif" font-size="14.00"> a2</text>
</g>
<!-- Node0x1f20a2b0 -->
<g id="node2" class="node"><title>Node0x1f20a2b0</title>
<polygon fill="none" stroke="black" points="95,-96.5 95,-149.5 372,-149.5 372,-96.5 95,-96.5"/>
<text text-anchor="start" x="103" y="-134.3" font-family="Times,serif" font-size="14.00">0x806d4d0:</text>
<text text-anchor="start" x="103" y="-119.3" font-family="Times,serif" font-size="14.00"> g1 = PtrToIntCastExpr&lt;int32&gt;(a1)</text>
<text text-anchor="start" x="103" y="-104.3" font-family="Times,serif" font-size="14.00"> memcpy(a1, a2, 22)</text>
</g>
<!-- Node0x7ff9e40&#45;&gt;Node0x1f20a2b0 -->
<g id="edge1" class="edge"><title>Node0x7ff9e40&#45;&gt;Node0x1f20a2b0</title>
<path fill="none" stroke="black" d="M233.5,-186.073C233.5,-177.838 233.5,-168.58 233.5,-159.777"/>
<polygon fill="black" stroke="black" points="237,-159.742 233.5,-149.742 230,-159.742 237,-159.742"/>
</g>
<!-- Node0x18ce1640 -->
<g id="node3" class="node"><title>Node0x18ce1640</title>
<polygon fill="none" stroke="black" points="206.5,-23.5 206.5,-59.5 260.5,-59.5 260.5,-23.5 206.5,-23.5"/>
<text text-anchor="start" x="214.5" y="-37.8" font-family="Times,serif" font-size="14.00">exit:</text>
</g>
<!-- Node0x1f20a2b0&#45;&gt;Node0x18ce1640 -->
<g id="edge2" class="edge"><title>Node0x1f20a2b0&#45;&gt;Node0x18ce1640</title>
<path fill="none" stroke="black" d="M233.5,-96.4081C233.5,-87.9823 233.5,-78.5803 233.5,-70.0174"/>
<polygon fill="black" stroke="black" points="237,-69.7564 233.5,-59.7564 230,-69.7565 237,-69.7564"/>
</g>
</g>
</svg>
