<?xml version="1.0" encoding="UTF-8" standalone="no"?>
<!DOCTYPE svg PUBLIC "-//W3C//DTD SVG 1.1//EN"
 "http://www.w3.org/Graphics/SVG/1.1/DTD/svg11.dtd">
<!-- Generated by graphviz version 2.38.0 (20140413.2041)
 -->
<!-- Title: Control&#45;flow graph for function &#39;mbedtls_sha512(a1, a2, a3, a4)&#39;. Pages: 1 -->
<svg width="652pt" height="669pt"
 viewBox="0.00 0.00 652.00 669.00" xmlns="http://www.w3.org/2000/svg" xmlns:xlink="http://www.w3.org/1999/xlink">
<g id="graph0" class="graph" transform="scale(1 1) rotate(0) translate(4 665)">
<title>Control&#45;flow graph for function &#39;mbedtls_sha512(a1, a2, a3, a4)&#39;.</title>
<polygon fill="white" stroke="none" points="-4,4 -4,-665 648,-665 648,4 -4,4"/>
<text text-anchor="middle" x="322" y="-7.8" font-family="Times,serif" font-size="14.00">Control&#45;flow graph for function &#39;mbedtls_sha512(a1, a2, a3, a4)&#39;.</text>
<!-- Node0xc116800 -->
<g id="node1" class="node"><title>Node0xc116800</title>
<polygon fill="none" stroke="black" points="292.5,-577.5 292.5,-660.5 351.5,-660.5 351.5,-577.5 292.5,-577.5"/>
<text text-anchor="start" x="300.5" y="-645.3" font-family="Times,serif" font-size="14.00">entry:</text>
<text text-anchor="start" x="300.5" y="-630.3" font-family="Times,serif" font-size="14.00"> a1</text>
<text text-anchor="start" x="300.5" y="-615.3" font-family="Times,serif" font-size="14.00"> a2</text>
<text text-anchor="start" x="300.5" y="-600.3" font-family="Times,serif" font-size="14.00"> a3</text>
<text text-anchor="start" x="300.5" y="-585.3" font-family="Times,serif" font-size="14.00"> a4</text>
</g>
<!-- Node0x9b7f2b0 -->
<g id="node2" class="node"><title>Node0x9b7f2b0</title>
<polygon fill="none" stroke="black" points="0,-306.5 0,-539.5 644,-539.5 644,-306.5 0,-306.5"/>
<text text-anchor="start" x="8" y="-524.3" font-family="Times,serif" font-size="14.00">v1 = g3</text>
<text text-anchor="start" x="8" y="-509.3" font-family="Times,serif" font-size="14.00"> v2</text>
<text text-anchor="start" x="8" y="-494.3" font-family="Times,serif" font-size="14.00"> v3 = &amp;(v2)</text>
<text text-anchor="start" x="8" y="-479.3" font-family="Times,serif" font-size="14.00"> g3 = v3</text>
<text text-anchor="start" x="8" y="-464.3" font-family="Times,serif" font-size="14.00"> mbedtls_sha512_init(BitCastExpr&lt;ptr&gt;(&amp;(v2)))</text>
<text text-anchor="start" x="8" y="-449.3" font-family="Times,serif" font-size="14.00"> mbedtls_sha512_starts(IntToPtrCastExpr&lt;ptr&gt;(g3), a4)</text>
<text text-anchor="start" x="8" y="-434.3" font-family="Times,serif" font-size="14.00"> g1 = a1</text>
<text text-anchor="start" x="8" y="-419.3" font-family="Times,serif" font-size="14.00"> mbedtls_sha512_update(IntToPtrCastExpr&lt;ptr&gt;(g3), IntToPtrCastExpr&lt;ptr&gt;(a1), a2)</text>
<text text-anchor="start" x="8" y="-404.3" font-family="Times,serif" font-size="14.00"> mbedtls_sha512_finish(IntToPtrCastExpr&lt;ptr&gt;(g3), IntToPtrCastExpr&lt;ptr&gt;(a3), a2)</text>
<text text-anchor="start" x="8" y="-389.3" font-family="Times,serif" font-size="14.00"> g1 = v3</text>
<text text-anchor="start" x="8" y="-374.3" font-family="Times,serif" font-size="14.00"> v4</text>
<text text-anchor="start" x="8" y="-359.3" font-family="Times,serif" font-size="14.00"> g6 = &amp;(v4)</text>
<text text-anchor="start" x="8" y="-344.3" font-family="Times,serif" font-size="14.00"> *(IntToPtrCastExpr&lt;ptr&gt;(v3)) = 0</text>
<text text-anchor="start" x="8" y="-329.3" font-family="Times,serif" font-size="14.00"> result = (g1 + 1)</text>
<text text-anchor="start" x="8" y="-314.3" font-family="Times,serif" font-size="14.00"> g1 = result</text>
</g>
<!-- Node0xc116800&#45;&gt;Node0x9b7f2b0 -->
<g id="edge1" class="edge"><title>Node0xc116800&#45;&gt;Node0x9b7f2b0</title>
<path fill="none" stroke="black" d="M322,-577.331C322,-568.92 322,-559.644 322,-549.943"/>
<polygon fill="black" stroke="black" points="325.5,-549.698 322,-539.698 318.5,-549.698 325.5,-549.698"/>
</g>
<!-- Node0x9e7ea00 -->
<g id="node3" class="node"><title>Node0x9e7ea00</title>
<polygon fill="none" stroke="black" points="241.5,-232.5 241.5,-268.5 402.5,-268.5 402.5,-232.5 241.5,-232.5"/>
<text text-anchor="start" x="249.5" y="-246.8" font-family="Times,serif" font-size="14.00">while (result != g6):</text>
</g>
<!-- Node0x9b7f2b0&#45;&gt;Node0x9e7ea00 -->
<g id="edge2" class="edge"><title>Node0x9b7f2b0&#45;&gt;Node0x9e7ea00</title>
<path fill="none" stroke="black" d="M322,-306.386C322,-296.423 322,-287.097 322,-279.06"/>
<polygon fill="black" stroke="black" points="325.5,-278.96 322,-268.96 318.5,-278.96 325.5,-278.96"/>
</g>
<!-- Node0x9e7e100 -->
<g id="node4" class="node"><title>Node0x9e7e100</title>
<polygon fill="none" stroke="black" points="71.5,-105 71.5,-173 366.5,-173 366.5,-105 71.5,-105"/>
<text text-anchor="start" x="79.5" y="-157.8" font-family="Times,serif" font-size="14.00">0x8055788:</text>
<text text-anchor="start" x="79.5" y="-142.8" font-family="Times,serif" font-size="14.00"> *(IntToPtrCastExpr&lt;ptr&gt;(result)) = 0</text>
<text text-anchor="start" x="79.5" y="-127.8" font-family="Times,serif" font-size="14.00"> result = (g1 + 1)</text>
<text text-anchor="start" x="79.5" y="-112.8" font-family="Times,serif" font-size="14.00"> g1 = result</text>
</g>
<!-- Node0x9e7ea00&#45;&gt;Node0x9e7e100 -->
<g id="edge3" class="edge"><title>Node0x9e7ea00&#45;&gt;Node0x9e7e100</title>
<path fill="none" stroke="black" d="M241.29,-232.587C233.005,-227.832 225.593,-221.757 220,-214 213.679,-205.233 211.404,-194.238 211.199,-183.426"/>
<polygon fill="black" stroke="black" points="214.705,-183.315 211.571,-173.194 207.71,-183.06 214.705,-183.315"/>
<text text-anchor="middle" x="264" y="-202.8" font-family="Times,serif" font-size="14.00">result != g6</text>
</g>
<!-- Node0x9e7df20 -->
<g id="node5" class="node"><title>Node0x9e7df20</title>
<polygon fill="none" stroke="black" points="384.5,-97.5 384.5,-180.5 497.5,-180.5 497.5,-97.5 384.5,-97.5"/>
<text text-anchor="start" x="392.5" y="-165.3" font-family="Times,serif" font-size="14.00">0x8055792:</text>
<text text-anchor="start" x="392.5" y="-150.3" font-family="Times,serif" font-size="14.00"> g3 = v1</text>
<text text-anchor="start" x="392.5" y="-135.3" font-family="Times,serif" font-size="14.00"> v5</text>
<text text-anchor="start" x="392.5" y="-120.3" font-family="Times,serif" font-size="14.00"> g2 = v5</text>
<text text-anchor="start" x="392.5" y="-105.3" font-family="Times,serif" font-size="14.00"> return result</text>
</g>
<!-- Node0x9e7ea00&#45;&gt;Node0x9e7df20 -->
<g id="edge4" class="edge"><title>Node0x9e7ea00&#45;&gt;Node0x9e7df20</title>
<path fill="none" stroke="black" d="M340.594,-232.391C353.749,-220.285 372.076,-203.422 389.475,-187.411"/>
<polygon fill="black" stroke="black" points="391.869,-189.965 396.858,-180.618 387.129,-184.814 391.869,-189.965"/>
<text text-anchor="middle" x="421" y="-202.8" font-family="Times,serif" font-size="14.00">result == g6</text>
</g>
<!-- Node0x9e7e100&#45;&gt;Node0x9e7ea00 -->
<g id="edge5" class="edge"><title>Node0x9e7e100&#45;&gt;Node0x9e7ea00</title>
<path fill="none" stroke="black" d="M281.879,-173.236C291.699,-180.645 300.921,-189.249 308,-199 312.961,-205.833 316.164,-214.35 318.233,-222.431"/>
<polygon fill="black" stroke="black" points="314.819,-223.203 320.294,-232.274 321.671,-221.769 314.819,-223.203"/>
</g>
<!-- Node0x29dbc0e0 -->
<g id="node6" class="node"><title>Node0x29dbc0e0</title>
<polygon fill="none" stroke="black" points="414,-23.5 414,-59.5 468,-59.5 468,-23.5 414,-23.5"/>
<text text-anchor="start" x="422" y="-37.8" font-family="Times,serif" font-size="14.00">exit:</text>
</g>
<!-- Node0x9e7df20&#45;&gt;Node0x29dbc0e0 -->
<g id="edge6" class="edge"><title>Node0x9e7df20&#45;&gt;Node0x29dbc0e0</title>
<path fill="none" stroke="black" d="M441,-97.4994C441,-88.2058 441,-78.537 441,-69.9459"/>
<polygon fill="black" stroke="black" points="444.5,-69.7494 441,-59.7494 437.5,-69.7494 444.5,-69.7494"/>
</g>
</g>
</svg>
