<?xml version="1.0" encoding="UTF-8" standalone="no"?>
<!DOCTYPE svg PUBLIC "-//W3C//DTD SVG 1.1//EN"
 "http://www.w3.org/Graphics/SVG/1.1/DTD/svg11.dtd">
<!-- Generated by graphviz version 2.38.0 (20140413.2041)
 -->
<!-- Title: Control&#45;flow graph for function &#39;mbedtls_asn1_get_len(*a1, a2, *a3)&#39;. Pages: 1 -->
<svg width="1046pt" height="721pt"
 viewBox="0.00 0.00 1045.50 721.00" xmlns="http://www.w3.org/2000/svg" xmlns:xlink="http://www.w3.org/1999/xlink">
<g id="graph0" class="graph" transform="scale(1 1) rotate(0) translate(4 717)">
<title>Control&#45;flow graph for function &#39;mbedtls_asn1_get_len(*a1, a2, *a3)&#39;.</title>
<polygon fill="white" stroke="none" points="-4,4 -4,-717 1041.5,-717 1041.5,4 -4,4"/>
<text text-anchor="middle" x="518.75" y="-7.8" font-family="Times,serif" font-size="14.00">Control&#45;flow graph for function &#39;mbedtls_asn1_get_len(*a1, a2, *a3)&#39;.</text>
<!-- Node0x29a31f40 -->
<g id="node1" class="node"><title>Node0x29a31f40</title>
<polygon fill="none" stroke="black" points="120,-644.5 120,-712.5 179,-712.5 179,-644.5 120,-644.5"/>
<text text-anchor="start" x="128" y="-697.3" font-family="Times,serif" font-size="14.00">entry:</text>
<text text-anchor="start" x="128" y="-682.3" font-family="Times,serif" font-size="14.00"> a1</text>
<text text-anchor="start" x="128" y="-667.3" font-family="Times,serif" font-size="14.00"> a2</text>
<text text-anchor="start" x="128" y="-652.3" font-family="Times,serif" font-size="14.00"> a3</text>
</g>
<!-- Node0xe3ac5c0 -->
<g id="node2" class="node"><title>Node0xe3ac5c0</title>
<polygon fill="none" stroke="black" points="11,-523.5 11,-606.5 288,-606.5 288,-523.5 11,-523.5"/>
<text text-anchor="start" x="19" y="-591.3" font-family="Times,serif" font-size="14.00">0x8055c30:</text>
<text text-anchor="start" x="19" y="-576.3" font-family="Times,serif" font-size="14.00"> g4 = PtrToIntCastExpr&lt;int32&gt;(a1)</text>
<text text-anchor="start" x="19" y="-561.3" font-family="Times,serif" font-size="14.00"> g6 = a2</text>
<text text-anchor="start" x="19" y="-546.3" font-family="Times,serif" font-size="14.00"> v1 = g3</text>
<text text-anchor="start" x="19" y="-531.3" font-family="Times,serif" font-size="14.00"> v2 = *(a1)</text>
</g>
<!-- Node0x29a31f40&#45;&gt;Node0xe3ac5c0 -->
<g id="edge1" class="edge"><title>Node0x29a31f40&#45;&gt;Node0xe3ac5c0</title>
<path fill="none" stroke="black" d="M149.5,-644.348C149.5,-635.674 149.5,-626.121 149.5,-616.758"/>
<polygon fill="black" stroke="black" points="153,-616.722 149.5,-606.722 146,-616.722 153,-616.722"/>
</g>
<!-- Node0x29a318e0 -->
<g id="node3" class="node"><title>Node0x29a318e0</title>
<polygon fill="none" stroke="black" points="82.5,-449.5 82.5,-485.5 216.5,-485.5 216.5,-449.5 82.5,-449.5"/>
<text text-anchor="start" x="90.5" y="-463.8" font-family="Times,serif" font-size="14.00">if ((a2 &#45; v2) &lt; 1):</text>
</g>
<!-- Node0xe3ac5c0&#45;&gt;Node0x29a318e0 -->
<g id="edge2" class="edge"><title>Node0xe3ac5c0&#45;&gt;Node0x29a318e0</title>
<path fill="none" stroke="black" d="M149.5,-523.499C149.5,-514.206 149.5,-504.537 149.5,-495.946"/>
<polygon fill="black" stroke="black" points="153,-495.749 149.5,-485.749 146,-495.749 153,-495.749"/>
</g>
<!-- Node0xe3abd30 -->
<g id="node4" class="node"><title>Node0xe3abd30</title>
<polygon fill="none" stroke="black" points="0,-257.5 0,-295.5 101,-295.5 101,-257.5 0,-257.5"/>
<text text-anchor="start" x="8" y="-280.3" font-family="Times,serif" font-size="14.00">0x8055c80:</text>
<text text-anchor="start" x="8" y="-265.3" font-family="Times,serif" font-size="14.00"> return &#45;96</text>
</g>
<!-- Node0x29a318e0&#45;&gt;Node0xe3abd30 -->
<g id="edge3" class="edge"><title>Node0x29a318e0&#45;&gt;Node0xe3abd30</title>
<path fill="none" stroke="black" d="M130.994,-449.462C117.829,-436.465 100.58,-417.524 89.5,-398 72.7869,-368.55 62.0685,-330.925 56.1806,-305.619"/>
<polygon fill="black" stroke="black" points="59.5371,-304.589 53.9495,-295.587 52.704,-306.109 59.5371,-304.589"/>
<text text-anchor="middle" x="159" y="-419.8" font-family="Times,serif" font-size="14.00">(a2 &#45; v2) &lt; 1</text>
</g>
<!-- Node0x27b90b10 -->
<g id="node5" class="node"><title>Node0x27b90b10</title>
<polygon fill="none" stroke="black" points="99,-314.5 99,-397.5 560,-397.5 560,-314.5 99,-314.5"/>
<text text-anchor="start" x="107" y="-382.3" font-family="Times,serif" font-size="14.00">v3 = (v2 + 1)</text>
<text text-anchor="start" x="107" y="-367.3" font-family="Times,serif" font-size="14.00"> *(a3) = ExtCastExpr&lt;int32&gt;(*(IntToPtrCastExpr&lt;ptr&gt;(v2)))</text>
<text text-anchor="start" x="107" y="-352.3" font-family="Times,serif" font-size="14.00"> *(IntToPtrCastExpr&lt;ptr&gt;(g4)) = v3</text>
<text text-anchor="start" x="107" y="-337.3" font-family="Times,serif" font-size="14.00"> v4 = (g6 &#45; v3)</text>
<text text-anchor="start" x="107" y="-322.3" font-family="Times,serif" font-size="14.00"> g6 = v4</text>
</g>
<!-- Node0x29a318e0&#45;&gt;Node0x27b90b10 -->
<g id="edge4" class="edge"><title>Node0x29a318e0&#45;&gt;Node0x27b90b10</title>
<path fill="none" stroke="black" d="M177.625,-449.391C198.146,-436.907 226.985,-419.363 254.027,-402.913"/>
<polygon fill="black" stroke="black" points="256.006,-405.806 262.73,-397.618 252.368,-399.825 256.006,-405.806"/>
<text text-anchor="middle" x="280" y="-419.8" font-family="Times,serif" font-size="14.00">(a2 &#45; v2) &gt;= 1</text>
</g>
<!-- Node0xe3ace20 -->
<g id="node6" class="node"><title>Node0xe3ace20</title>
<polygon fill="none" stroke="black" points="100.5,-23.5 100.5,-59.5 154.5,-59.5 154.5,-23.5 100.5,-23.5"/>
<text text-anchor="start" x="108.5" y="-37.8" font-family="Times,serif" font-size="14.00">exit:</text>
</g>
<!-- Node0xe3abd30&#45;&gt;Node0xe3ace20 -->
<g id="edge5" class="edge"><title>Node0xe3abd30&#45;&gt;Node0xe3ace20</title>
<path fill="none" stroke="black" d="M48.1112,-257.368C44.539,-223.745 40.8119,-150.306 67.5,-97 73.4653,-85.0851 83.2262,-74.5282 93.1587,-65.9549"/>
<polygon fill="black" stroke="black" points="95.5329,-68.5357 101.092,-59.5164 91.1218,-63.1004 95.5329,-68.5357"/>
</g>
<!-- Node0x15c2f280 -->
<g id="node7" class="node"><title>Node0x15c2f280</title>
<polygon fill="none" stroke="black" points="77,-202.5 77,-238.5 592,-238.5 592,-202.5 77,-202.5"/>
<text text-anchor="start" x="85" y="-216.8" font-family="Times,serif" font-size="14.00">if (*(IntToPtrCastExpr&lt;ptr&gt;(PtrToIntCastExpr&lt;int32&gt;(a3))) &lt;= v4):</text>
</g>
<!-- Node0x27b90b10&#45;&gt;Node0x15c2f280 -->
<g id="edge6" class="edge"><title>Node0x27b90b10&#45;&gt;Node0x15c2f280</title>
<path fill="none" stroke="black" d="M331.027,-314.22C331.82,-293.067 332.766,-267.792 333.471,-248.978"/>
<polygon fill="black" stroke="black" points="336.978,-248.85 333.855,-238.726 329.983,-248.588 336.978,-248.85"/>
</g>
<!-- Node0xe3abdb0 -->
<g id="node8" class="node"><title>Node0xe3abdb0</title>
<polygon fill="none" stroke="black" points="77,-97.5 77,-150.5 178,-150.5 178,-97.5 77,-97.5"/>
<text text-anchor="start" x="85" y="-135.3" font-family="Times,serif" font-size="14.00">0x8055c6d:</text>
<text text-anchor="start" x="85" y="-120.3" font-family="Times,serif" font-size="14.00"> g3 = v1</text>
<text text-anchor="start" x="85" y="-105.3" font-family="Times,serif" font-size="14.00"> return 0</text>
</g>
<!-- Node0x15c2f280&#45;&gt;Node0xe3abdb0 -->
<g id="edge7" class="edge"><title>Node0x15c2f280&#45;&gt;Node0xe3abdb0</title>
<path fill="none" stroke="black" d="M137.148,-202.463C120.859,-197.72 108.1,-191.681 101.5,-184 95.3822,-176.879 96.0633,-168.092 99.7452,-159.494"/>
<polygon fill="black" stroke="black" points="102.833,-161.142 104.509,-150.681 96.675,-157.814 102.833,-161.142"/>
<text text-anchor="middle" x="336" y="-172.8" font-family="Times,serif" font-size="14.00">*(IntToPtrCastExpr&lt;ptr&gt;(PtrToIntCastExpr&lt;int32&gt;(a3))) &lt;= v4</text>
</g>
<!-- Node0xe3abcd0 -->
<g id="node9" class="node"><title>Node0xe3abcd0</title>
<polygon fill="none" stroke="black" points="371,-97.5 371,-150.5 472,-150.5 472,-97.5 371,-97.5"/>
<text text-anchor="start" x="379" y="-135.3" font-family="Times,serif" font-size="14.00">0x8055c80:</text>
<text text-anchor="start" x="379" y="-120.3" font-family="Times,serif" font-size="14.00"> g3 = v1</text>
<text text-anchor="start" x="379" y="-105.3" font-family="Times,serif" font-size="14.00"> return &#45;96</text>
</g>
<!-- Node0x15c2f280&#45;&gt;Node0xe3abcd0 -->
<g id="edge8" class="edge"><title>Node0x15c2f280&#45;&gt;Node0xe3abcd0</title>
<path fill="none" stroke="black" d="M539.272,-202.433C555.33,-197.684 567.896,-191.653 574.5,-184 604.267,-149.506 537.021,-135.082 482.425,-129.115"/>
<polygon fill="black" stroke="black" points="482.707,-125.626 472.404,-128.096 481.999,-132.59 482.707,-125.626"/>
<text text-anchor="middle" x="809" y="-172.8" font-family="Times,serif" font-size="14.00">*(IntToPtrCastExpr&lt;ptr&gt;(PtrToIntCastExpr&lt;int32&gt;(a3))) &gt; v4</text>
</g>
<!-- Node0xe3abdb0&#45;&gt;Node0xe3ace20 -->
<g id="edge9" class="edge"><title>Node0xe3abdb0&#45;&gt;Node0xe3ace20</title>
<path fill="none" stroke="black" d="M127.5,-97.0862C127.5,-88.4596 127.5,-78.8224 127.5,-70.0748"/>
<polygon fill="black" stroke="black" points="131,-69.9735 127.5,-59.9735 124,-69.9735 131,-69.9735"/>
</g>
<!-- Node0xe3abcd0&#45;&gt;Node0xe3ace20 -->
<g id="edge10" class="edge"><title>Node0xe3abcd0&#45;&gt;Node0xe3ace20</title>
<path fill="none" stroke="black" d="M370.96,-109.162C312.317,-93.1048 217.007,-67.0079 164.731,-52.6942"/>
<polygon fill="black" stroke="black" points="165.443,-49.2603 154.873,-49.995 163.594,-56.0117 165.443,-49.2603"/>
</g>
</g>
</svg>
