<?xml version="1.0" encoding="UTF-8" standalone="no"?>
<!DOCTYPE svg PUBLIC "-//W3C//DTD SVG 1.1//EN"
 "http://www.w3.org/Graphics/SVG/1.1/DTD/svg11.dtd">
<!-- Generated by graphviz version 2.38.0 (20140413.2041)
 -->
<!-- Title: Control&#45;flow graph for function &#39;camellia_setkey_dec_wrap(a1)&#39;. Pages: 1 -->
<svg width="569pt" height="278pt"
 viewBox="0.00 0.00 569.00 278.00" xmlns="http://www.w3.org/2000/svg" xmlns:xlink="http://www.w3.org/1999/xlink">
<g id="graph0" class="graph" transform="scale(1 1) rotate(0) translate(4 274)">
<title>Control&#45;flow graph for function &#39;camellia_setkey_dec_wrap(a1)&#39;.</title>
<polygon fill="white" stroke="none" points="-4,4 -4,-274 565,-274 565,4 -4,4"/>
<text text-anchor="middle" x="280.5" y="-7.8" font-family="Times,serif" font-size="14.00">Control&#45;flow graph for function &#39;camellia_setkey_dec_wrap(a1)&#39;.</text>
<!-- Node0x893a1d0 -->
<g id="node1" class="node"><title>Node0x893a1d0</title>
<polygon fill="none" stroke="black" points="251,-231.5 251,-269.5 310,-269.5 310,-231.5 251,-231.5"/>
<text text-anchor="start" x="259" y="-254.3" font-family="Times,serif" font-size="14.00">entry:</text>
<text text-anchor="start" x="259" y="-239.3" font-family="Times,serif" font-size="14.00"> a1</text>
</g>
<!-- Node0x26fee7b0 -->
<g id="node2" class="node"><title>Node0x26fee7b0</title>
<polygon fill="none" stroke="black" points="0,-96.5 0,-194.5 561,-194.5 561,-96.5 0,-96.5"/>
<text text-anchor="start" x="8" y="-179.3" font-family="Times,serif" font-size="14.00">0x806a790:</text>
<text text-anchor="start" x="8" y="-164.3" font-family="Times,serif" font-size="14.00"> v1</text>
<text text-anchor="start" x="8" y="-149.3" font-family="Times,serif" font-size="14.00"> v2</text>
<text text-anchor="start" x="8" y="-134.3" font-family="Times,serif" font-size="14.00"> result = mbedtls_camellia_setkey_dec(IntToPtrCastExpr&lt;ptr&gt;(v2), v1, a1)</text>
<text text-anchor="start" x="8" y="-119.3" font-family="Times,serif" font-size="14.00"> g1 = result</text>
<text text-anchor="start" x="8" y="-104.3" font-family="Times,serif" font-size="14.00"> return result</text>
</g>
<!-- Node0x893a1d0&#45;&gt;Node0x26fee7b0 -->
<g id="edge1" class="edge"><title>Node0x893a1d0&#45;&gt;Node0x26fee7b0</title>
<path fill="none" stroke="black" d="M280.5,-231.086C280.5,-223.607 280.5,-214.513 280.5,-205.097"/>
<polygon fill="black" stroke="black" points="284,-204.814 280.5,-194.814 277,-204.815 284,-204.814"/>
</g>
<!-- Node0xd70e160 -->
<g id="node3" class="node"><title>Node0xd70e160</title>
<polygon fill="none" stroke="black" points="253.5,-23.5 253.5,-59.5 307.5,-59.5 307.5,-23.5 253.5,-23.5"/>
<text text-anchor="start" x="261.5" y="-37.8" font-family="Times,serif" font-size="14.00">exit:</text>
</g>
<!-- Node0x26fee7b0&#45;&gt;Node0xd70e160 -->
<g id="edge2" class="edge"><title>Node0x26fee7b0&#45;&gt;Node0xd70e160</title>
<path fill="none" stroke="black" d="M280.5,-96.4868C280.5,-87.2893 280.5,-77.9618 280.5,-69.7064"/>
<polygon fill="black" stroke="black" points="284,-69.5725 280.5,-59.5725 277,-69.5725 284,-69.5725"/>
</g>
</g>
</svg>
