<?xml version="1.0" encoding="UTF-8" standalone="no"?>
<!DOCTYPE svg PUBLIC "-//W3C//DTD SVG 1.1//EN"
 "http://www.w3.org/Graphics/SVG/1.1/DTD/svg11.dtd">
<!-- Generated by graphviz version 2.38.0 (20140413.2041)
 -->
<!-- Title: Control&#45;flow graph for function &#39;loadTextFile()&#39;. Pages: 1 -->
<svg width="792pt" height="795pt"
 viewBox="0.00 0.00 791.50 795.00" xmlns="http://www.w3.org/2000/svg" xmlns:xlink="http://www.w3.org/1999/xlink">
<g id="graph0" class="graph" transform="scale(1 1) rotate(0) translate(4 791)">
<title>Control&#45;flow graph for function &#39;loadTextFile()&#39;.</title>
<polygon fill="white" stroke="none" points="-4,4 -4,-791 787.5,-791 787.5,4 -4,4"/>
<text text-anchor="middle" x="391.75" y="-7.8" font-family="Times,serif" font-size="14.00">Control&#45;flow graph for function &#39;loadTextFile()&#39;.</text>
<!-- Node0xbba36e0 -->
<g id="node1" class="node"><title>Node0xbba36e0</title>
<polygon fill="none" stroke="black" points="146,-750.5 146,-786.5 205,-786.5 205,-750.5 146,-750.5"/>
<text text-anchor="start" x="154" y="-764.8" font-family="Times,serif" font-size="14.00">entry:</text>
</g>
<!-- Node0xbba4a60 -->
<g id="node2" class="node"><title>Node0xbba4a60</title>
<polygon fill="none" stroke="black" points="0,-659.5 0,-712.5 351,-712.5 351,-659.5 0,-659.5"/>
<text text-anchor="start" x="8" y="-697.3" font-family="Times,serif" font-size="14.00">v1 = g3</text>
<text text-anchor="start" x="8" y="-682.3" font-family="Times,serif" font-size="14.00"> stream = fopen64(&quot;./readme.crypto&quot;, &quot;rb&quot;)</text>
<text text-anchor="start" x="8" y="-667.3" font-family="Times,serif" font-size="14.00"> stream2 = PtrToIntCastExpr&lt;int32&gt;(stream)</text>
</g>
<!-- Node0xbba36e0&#45;&gt;Node0xbba4a60 -->
<g id="edge1" class="edge"><title>Node0xbba36e0&#45;&gt;Node0xbba4a60</title>
<path fill="none" stroke="black" d="M175.5,-750.428C175.5,-742.361 175.5,-732.411 175.5,-722.802"/>
<polygon fill="black" stroke="black" points="179,-722.616 175.5,-712.616 172,-722.616 179,-722.616"/>
</g>
<!-- Node0xbba4690 -->
<g id="node3" class="node"><title>Node0xbba4690</title>
<polygon fill="none" stroke="black" points="89,-585.5 89,-621.5 262,-621.5 262,-585.5 89,-585.5"/>
<text text-anchor="start" x="97" y="-599.8" font-family="Times,serif" font-size="14.00">if (stream == NULL):</text>
</g>
<!-- Node0xbba4a60&#45;&gt;Node0xbba4690 -->
<g id="edge2" class="edge"><title>Node0xbba4a60&#45;&gt;Node0xbba4690</title>
<path fill="none" stroke="black" d="M175.5,-659.086C175.5,-650.46 175.5,-640.822 175.5,-632.075"/>
<polygon fill="black" stroke="black" points="179,-631.973 175.5,-621.974 172,-631.974 179,-631.973"/>
</g>
<!-- Node0xbba4c70 -->
<g id="node4" class="node"><title>Node0xbba4c70</title>
<polygon fill="none" stroke="black" points="3,-378.5 3,-431.5 118,-431.5 118,-378.5 3,-378.5"/>
<text text-anchor="start" x="11" y="-416.3" font-family="Times,serif" font-size="14.00">0x80484fd:</text>
<text text-anchor="start" x="11" y="-401.3" font-family="Times,serif" font-size="14.00"> g3 = v1</text>
<text text-anchor="start" x="11" y="-386.3" font-family="Times,serif" font-size="14.00"> return NULL</text>
</g>
<!-- Node0xbba4690&#45;&gt;Node0xbba4c70 -->
<g id="edge3" class="edge"><title>Node0xbba4690&#45;&gt;Node0xbba4c70</title>
<path fill="none" stroke="black" d="M132.108,-585.477C123.69,-580.556 115.602,-574.448 109.5,-567 79.9669,-530.951 68.2136,-477.325 63.5492,-442.017"/>
<polygon fill="black" stroke="black" points="66.977,-441.203 62.3174,-431.688 60.0263,-442.032 66.977,-441.203"/>
<text text-anchor="middle" x="173" y="-555.8" font-family="Times,serif" font-size="14.00">stream == NULL</text>
</g>
<!-- Node0xbba4280 -->
<g id="node5" class="node"><title>Node0xbba4280</title>
<polygon fill="none" stroke="black" points="127,-450.5 127,-533.5 588,-533.5 588,-450.5 127,-450.5"/>
<text text-anchor="start" x="135" y="-518.3" font-family="Times,serif" font-size="14.00">0x804849f:</text>
<text text-anchor="start" x="135" y="-503.3" font-family="Times,serif" font-size="14.00"> fseek(stream, 0, (SEEK_END &#45;&gt; 2))</text>
<text text-anchor="start" x="135" y="-488.3" font-family="Times,serif" font-size="14.00"> curr_file_offset = ftell(IntToPtrCastExpr&lt;ptr&gt;(stream2))</text>
<text text-anchor="start" x="135" y="-473.3" font-family="Times,serif" font-size="14.00"> fseek(IntToPtrCastExpr&lt;ptr&gt;(stream2), 0, (SEEK_SET &#45;&gt; 0))</text>
<text text-anchor="start" x="135" y="-458.3" font-family="Times,serif" font-size="14.00"> mem = malloc(curr_file_offset)</text>
</g>
<!-- Node0xbba4690&#45;&gt;Node0xbba4280 -->
<g id="edge4" class="edge"><title>Node0xbba4690&#45;&gt;Node0xbba4280</title>
<path fill="none" stroke="black" d="M203.938,-585.391C224.686,-572.907 253.846,-555.363 281.188,-538.913"/>
<polygon fill="black" stroke="black" points="283.224,-541.773 289.989,-533.618 279.615,-535.774 283.224,-541.773"/>
<text text-anchor="middle" x="317" y="-555.8" font-family="Times,serif" font-size="14.00">stream != NULL</text>
</g>
<!-- Node0xbba3740 -->
<g id="node6" class="node"><title>Node0xbba3740</title>
<polygon fill="none" stroke="black" points="113.5,-23.5 113.5,-59.5 167.5,-59.5 167.5,-23.5 113.5,-23.5"/>
<text text-anchor="start" x="121.5" y="-37.8" font-family="Times,serif" font-size="14.00">exit:</text>
</g>
<!-- Node0xbba4c70&#45;&gt;Node0xbba3740 -->
<g id="edge5" class="edge"><title>Node0xbba4c70&#45;&gt;Node0xbba3740</title>
<path fill="none" stroke="black" d="M59.3658,-378.424C58.5163,-357.062 57.5,-325.802 57.5,-298.5 57.5,-298.5 57.5,-298.5 57.5,-145.5 57.5,-112.631 83.4435,-84.3199 106.321,-65.7442"/>
<polygon fill="black" stroke="black" points="108.492,-68.4898 114.238,-59.5883 104.196,-62.9637 108.492,-68.4898"/>
</g>
<!-- Node0xbba4d60 -->
<g id="node7" class="node"><title>Node0xbba4d60</title>
<polygon fill="none" stroke="black" points="291.5,-323.5 291.5,-359.5 443.5,-359.5 443.5,-323.5 291.5,-323.5"/>
<text text-anchor="start" x="299.5" y="-337.8" font-family="Times,serif" font-size="14.00">if (mem != NULL):</text>
</g>
<!-- Node0xbba4280&#45;&gt;Node0xbba4d60 -->
<g id="edge6" class="edge"><title>Node0xbba4280&#45;&gt;Node0xbba4d60</title>
<path fill="none" stroke="black" d="M360.233,-450.422C361.952,-424.887 364.125,-392.612 365.646,-370.038"/>
<polygon fill="black" stroke="black" points="369.155,-370.02 366.335,-359.807 362.17,-369.549 369.155,-370.02"/>
</g>
<!-- Node0xbba5240 -->
<g id="node8" class="node"><title>Node0xbba5240</title>
<polygon fill="none" stroke="black" points="85.5,-233.5 85.5,-271.5 649.5,-271.5 649.5,-233.5 85.5,-233.5"/>
<text text-anchor="start" x="93.5" y="-256.3" font-family="Times,serif" font-size="14.00">0x80484d2:</text>
<text text-anchor="start" x="93.5" y="-241.3" font-family="Times,serif" font-size="14.00"> fread_unlocked(mem, 1, curr_file_offset, IntToPtrCastExpr&lt;ptr&gt;(stream2))</text>
</g>
<!-- Node0xbba4d60&#45;&gt;Node0xbba5240 -->
<g id="edge7" class="edge"><title>Node0xbba4d60&#45;&gt;Node0xbba5240</title>
<path fill="none" stroke="black" d="M367.5,-323.312C367.5,-311.511 367.5,-295.572 367.5,-281.904"/>
<polygon fill="black" stroke="black" points="371,-281.551 367.5,-271.551 364,-281.551 371,-281.551"/>
<text text-anchor="middle" x="420.5" y="-293.8" font-family="Times,serif" font-size="14.00">mem != NULL</text>
</g>
<!-- Node0xbba5120 -->
<g id="node9" class="node"><title>Node0xbba5120</title>
<polygon fill="none" stroke="black" points="119,-97.5 119,-195.5 616,-195.5 616,-97.5 119,-97.5"/>
<text text-anchor="start" x="127" y="-180.3" font-family="Times,serif" font-size="14.00">0x80484df:</text>
<text text-anchor="start" x="127" y="-165.3" font-family="Times,serif" font-size="14.00"> fclose(IntToPtrCastExpr&lt;ptr&gt;(stream2))</text>
<text text-anchor="start" x="127" y="-150.3" font-family="Times,serif" font-size="14.00"> g195 = IntToPtrCastExpr&lt;ptr&gt;(PtrToIntCastExpr&lt;int32&gt;(mem))</text>
<text text-anchor="start" x="127" y="-135.3" font-family="Times,serif" font-size="14.00"> result = IntToPtrCastExpr&lt;ptr&gt;(unlink(&quot;./readme.crypto&quot;))</text>
<text text-anchor="start" x="127" y="-120.3" font-family="Times,serif" font-size="14.00"> g3 = v1</text>
<text text-anchor="start" x="127" y="-105.3" font-family="Times,serif" font-size="14.00"> return result</text>
</g>
<!-- Node0xbba4d60&#45;&gt;Node0xbba5120 -->
<g id="edge8" class="edge"><title>Node0xbba4d60&#45;&gt;Node0xbba5120</title>
<path fill="none" stroke="black" d="M443.704,-333.161C520.765,-323.979 632.158,-305.262 658.5,-272 686.787,-236.281 666.223,-210.64 625.485,-192.295"/>
<polygon fill="black" stroke="black" points="626.776,-189.041 616.203,-188.374 624.052,-195.489 626.776,-189.041"/>
<text text-anchor="middle" x="727.5" y="-248.8" font-family="Times,serif" font-size="14.00">mem == NULL</text>
</g>
<!-- Node0xbba5240&#45;&gt;Node0xbba5120 -->
<g id="edge9" class="edge"><title>Node0xbba5240&#45;&gt;Node0xbba5120</title>
<path fill="none" stroke="black" d="M367.5,-233.385C367.5,-225.528 367.5,-215.844 367.5,-205.842"/>
<polygon fill="black" stroke="black" points="371,-205.789 367.5,-195.789 364,-205.789 371,-205.789"/>
</g>
<!-- Node0xbba5120&#45;&gt;Node0xbba3740 -->
<g id="edge10" class="edge"><title>Node0xbba5120&#45;&gt;Node0xbba3740</title>
<path fill="none" stroke="black" d="M261.643,-97.4679C231.302,-83.7008 200.229,-69.6017 177.15,-59.1298"/>
<polygon fill="black" stroke="black" points="178.327,-55.8202 167.774,-54.8754 175.434,-62.1947 178.327,-55.8202"/>
</g>
</g>
</svg>
