<?xml version="1.0" encoding="UTF-8" standalone="no"?>
<!DOCTYPE svg PUBLIC "-//W3C//DTD SVG 1.1//EN"
 "http://www.w3.org/Graphics/SVG/1.1/DTD/svg11.dtd">
<!-- Generated by graphviz version 2.38.0 (20140413.2041)
 -->
<!-- Title: Control&#45;flow graph for function &#39;rsa_can_do(a1, a2)&#39;. Pages: 1 -->
<svg width="892pt" height="233pt"
 viewBox="0.00 0.00 892.00 233.00" xmlns="http://www.w3.org/2000/svg" xmlns:xlink="http://www.w3.org/1999/xlink">
<g id="graph0" class="graph" transform="scale(1 1) rotate(0) translate(4 229)">
<title>Control&#45;flow graph for function &#39;rsa_can_do(a1, a2)&#39;.</title>
<polygon fill="white" stroke="none" points="-4,4 -4,-229 888,-229 888,4 -4,4"/>
<text text-anchor="middle" x="442" y="-7.8" font-family="Times,serif" font-size="14.00">Control&#45;flow graph for function &#39;rsa_can_do(a1, a2)&#39;.</text>
<!-- Node0xf246f60 -->
<g id="node1" class="node"><title>Node0xf246f60</title>
<polygon fill="none" stroke="black" points="412.5,-171.5 412.5,-224.5 471.5,-224.5 471.5,-171.5 412.5,-171.5"/>
<text text-anchor="start" x="420.5" y="-209.3" font-family="Times,serif" font-size="14.00">entry:</text>
<text text-anchor="start" x="420.5" y="-194.3" font-family="Times,serif" font-size="14.00"> a1</text>
<text text-anchor="start" x="420.5" y="-179.3" font-family="Times,serif" font-size="14.00"> a2</text>
</g>
<!-- Node0xf248270 -->
<g id="node2" class="node"><title>Node0xf248270</title>
<polygon fill="none" stroke="black" points="-5.68434e-14,-96.5 -5.68434e-14,-134.5 884,-134.5 884,-96.5 -5.68434e-14,-96.5"/>
<text text-anchor="start" x="8" y="-119.3" font-family="Times,serif" font-size="14.00">0x804d370:</text>
<text text-anchor="start" x="8" y="-104.3" font-family="Times,serif" font-size="14.00"> return (ExtCastExpr&lt;int32&gt;(BitCastExpr&lt;uint1&gt;((a1 == 1))) | ExtCastExpr&lt;int32&gt;(BitCastExpr&lt;uint1&gt;((a1 == 6))))</text>
</g>
<!-- Node0xf246f60&#45;&gt;Node0xf248270 -->
<g id="edge1" class="edge"><title>Node0xf246f60&#45;&gt;Node0xf248270</title>
<path fill="none" stroke="black" d="M442,-171.086C442,-162.813 442,-153.61 442,-145.154"/>
<polygon fill="black" stroke="black" points="445.5,-144.968 442,-134.968 438.5,-144.968 445.5,-144.968"/>
</g>
<!-- Node0xf248210 -->
<g id="node3" class="node"><title>Node0xf248210</title>
<polygon fill="none" stroke="black" points="415,-23.5 415,-59.5 469,-59.5 469,-23.5 415,-23.5"/>
<text text-anchor="start" x="423" y="-37.8" font-family="Times,serif" font-size="14.00">exit:</text>
</g>
<!-- Node0xf248270&#45;&gt;Node0xf248210 -->
<g id="edge2" class="edge"><title>Node0xf248270&#45;&gt;Node0xf248210</title>
<path fill="none" stroke="black" d="M442,-96.3314C442,-88.394 442,-78.9095 442,-70.1285"/>
<polygon fill="black" stroke="black" points="445.5,-69.9177 442,-59.9177 438.5,-69.9177 445.5,-69.9177"/>
</g>
</g>
</svg>
