<?xml version="1.0" encoding="UTF-8" standalone="no"?>
<!DOCTYPE svg PUBLIC "-//W3C//DTD SVG 1.1//EN"
 "http://www.w3.org/Graphics/SVG/1.1/DTD/svg11.dtd">
<!-- Generated by graphviz version 2.38.0 (20140413.2041)
 -->
<!-- Title: Control&#45;flow graph for function &#39;mbedtls_mpi_write_binary(*a1, a2, a3)&#39;. Pages: 1 -->
<svg width="812pt" height="1538pt"
 viewBox="0.00 0.00 812.00 1538.00" xmlns="http://www.w3.org/2000/svg" xmlns:xlink="http://www.w3.org/1999/xlink">
<g id="graph0" class="graph" transform="scale(1 1) rotate(0) translate(4 1534)">
<title>Control&#45;flow graph for function &#39;mbedtls_mpi_write_binary(*a1, a2, a3)&#39;.</title>
<polygon fill="white" stroke="none" points="-4,4 -4,-1534 808,-1534 808,4 -4,4"/>
<text text-anchor="middle" x="402" y="-7.8" font-family="Times,serif" font-size="14.00">Control&#45;flow graph for function &#39;mbedtls_mpi_write_binary(*a1, a2, a3)&#39;.</text>
<!-- Node0x1f24bbd0 -->
<g id="node1" class="node"><title>Node0x1f24bbd0</title>
<polygon fill="none" stroke="black" points="108.5,-1461.5 108.5,-1529.5 167.5,-1529.5 167.5,-1461.5 108.5,-1461.5"/>
<text text-anchor="start" x="116.5" y="-1514.3" font-family="Times,serif" font-size="14.00">entry:</text>
<text text-anchor="start" x="116.5" y="-1499.3" font-family="Times,serif" font-size="14.00"> a1</text>
<text text-anchor="start" x="116.5" y="-1484.3" font-family="Times,serif" font-size="14.00"> a2</text>
<text text-anchor="start" x="116.5" y="-1469.3" font-family="Times,serif" font-size="14.00"> a3</text>
</g>
<!-- Node0x85a86c0 -->
<g id="node2" class="node"><title>Node0x85a86c0</title>
<polygon fill="none" stroke="black" points="0,-1340.5 0,-1423.5 276,-1423.5 276,-1340.5 0,-1340.5"/>
<text text-anchor="start" x="8" y="-1408.3" font-family="Times,serif" font-size="14.00">v1 = g3</text>
<text text-anchor="start" x="8" y="-1393.3" font-family="Times,serif" font-size="14.00"> v2 = PtrToIntCastExpr&lt;int32&gt;(a1)</text>
<text text-anchor="start" x="8" y="-1378.3" font-family="Times,serif" font-size="14.00"> g3 = v2</text>
<text text-anchor="start" x="8" y="-1363.3" font-family="Times,serif" font-size="14.00"> v3 = mbedtls_mpi_size(v2)</text>
<text text-anchor="start" x="8" y="-1348.3" font-family="Times,serif" font-size="14.00"> v4 = a3</text>
</g>
<!-- Node0x1f24bbd0&#45;&gt;Node0x85a86c0 -->
<g id="edge1" class="edge"><title>Node0x1f24bbd0&#45;&gt;Node0x85a86c0</title>
<path fill="none" stroke="black" d="M138,-1461.35C138,-1452.67 138,-1443.12 138,-1433.76"/>
<polygon fill="black" stroke="black" points="141.5,-1433.72 138,-1423.72 134.5,-1433.72 141.5,-1433.72"/>
</g>
<!-- Node0x7ebf3d0 -->
<g id="node3" class="node"><title>Node0x7ebf3d0</title>
<polygon fill="none" stroke="black" points="87.5,-1266.5 87.5,-1302.5 188.5,-1302.5 188.5,-1266.5 87.5,-1266.5"/>
<text text-anchor="start" x="95.5" y="-1280.8" font-family="Times,serif" font-size="14.00">if (v3 &gt; v4):</text>
</g>
<!-- Node0x85a86c0&#45;&gt;Node0x7ebf3d0 -->
<g id="edge2" class="edge"><title>Node0x85a86c0&#45;&gt;Node0x7ebf3d0</title>
<path fill="none" stroke="black" d="M138,-1340.5C138,-1331.21 138,-1321.54 138,-1312.95"/>
<polygon fill="black" stroke="black" points="141.5,-1312.75 138,-1302.75 134.5,-1312.75 141.5,-1312.75"/>
</g>
<!-- Node0x1c8074f0 -->
<g id="node4" class="node"><title>Node0x1c8074f0</title>
<polygon fill="none" stroke="black" points="21,-1089.5 21,-1142.5 119,-1142.5 119,-1089.5 21,-1089.5"/>
<text text-anchor="start" x="29" y="-1127.3" font-family="Times,serif" font-size="14.00">0x80567f7:</text>
<text text-anchor="start" x="29" y="-1112.3" font-family="Times,serif" font-size="14.00"> g3 = v1</text>
<text text-anchor="start" x="29" y="-1097.3" font-family="Times,serif" font-size="14.00"> return &#45;8</text>
</g>
<!-- Node0x7ebf3d0&#45;&gt;Node0x1c8074f0 -->
<g id="edge3" class="edge"><title>Node0x7ebf3d0&#45;&gt;Node0x1c8074f0</title>
<path fill="none" stroke="black" d="M122.616,-1266.47C111.583,-1253.33 97.262,-1234.21 89,-1215 80.564,-1195.39 75.8473,-1171.96 73.2238,-1152.93"/>
<polygon fill="black" stroke="black" points="76.6791,-1152.35 71.9714,-1142.86 69.7326,-1153.21 76.6791,-1152.35"/>
<text text-anchor="middle" x="136" y="-1236.8" font-family="Times,serif" font-size="14.00">v3 &gt; v4</text>
</g>
<!-- Node0x7ebf530 -->
<g id="node5" class="node"><title>Node0x7ebf530</title>
<polygon fill="none" stroke="black" points="98,-1161.5 98,-1214.5 432,-1214.5 432,-1161.5 98,-1161.5"/>
<text text-anchor="start" x="106" y="-1199.3" font-family="Times,serif" font-size="14.00">0x8056800:</text>
<text text-anchor="start" x="106" y="-1184.3" font-family="Times,serif" font-size="14.00"> memset(IntToPtrCastExpr&lt;ptr&gt;(a2), 0, v4)</text>
<text text-anchor="start" x="106" y="-1169.3" font-family="Times,serif" font-size="14.00"> g4 = v3</text>
</g>
<!-- Node0x7ebf3d0&#45;&gt;Node0x7ebf530 -->
<g id="edge4" class="edge"><title>Node0x7ebf3d0&#45;&gt;Node0x7ebf530</title>
<path fill="none" stroke="black" d="M160.999,-1266.39C178.087,-1253.67 201.891,-1235.96 222.414,-1220.69"/>
<polygon fill="black" stroke="black" points="224.751,-1223.31 230.684,-1214.53 220.572,-1217.7 224.751,-1223.31"/>
<text text-anchor="middle" x="240" y="-1236.8" font-family="Times,serif" font-size="14.00">v3 &lt;= v4</text>
</g>
<!-- Node0x7ebc6a0 -->
<g id="node6" class="node"><title>Node0x7ebc6a0</title>
<polygon fill="none" stroke="black" points="81,-23.5 81,-59.5 135,-59.5 135,-23.5 81,-23.5"/>
<text text-anchor="start" x="89" y="-37.8" font-family="Times,serif" font-size="14.00">exit:</text>
</g>
<!-- Node0x1c8074f0&#45;&gt;Node0x7ebc6a0 -->
<g id="edge5" class="edge"><title>Node0x1c8074f0&#45;&gt;Node0x7ebc6a0</title>
<path fill="none" stroke="black" d="M70,-1089.42C70,-1068.05 70,-1036.79 70,-1009.5 70,-1009.5 70,-1009.5 70,-123 70,-103.419 79.3085,-83.5009 88.7113,-68.3765"/>
<polygon fill="black" stroke="black" points="91.9016,-69.8971 94.4956,-59.6247 86.0618,-66.0374 91.9016,-69.8971"/>
</g>
<!-- Node0x4b2e630 -->
<g id="node7" class="node"><title>Node0x4b2e630</title>
<polygon fill="none" stroke="black" points="212.5,-1034.5 212.5,-1070.5 317.5,-1070.5 317.5,-1034.5 212.5,-1034.5"/>
<text text-anchor="start" x="220.5" y="-1048.8" font-family="Times,serif" font-size="14.00">if (v3 == 0):</text>
</g>
<!-- Node0x7ebf530&#45;&gt;Node0x4b2e630 -->
<g id="edge6" class="edge"><title>Node0x7ebf530&#45;&gt;Node0x4b2e630</title>
<path fill="none" stroke="black" d="M265,-1161.26C265,-1138.13 265,-1104.28 265,-1080.71"/>
<polygon fill="black" stroke="black" points="268.5,-1080.68 265,-1070.68 261.5,-1080.68 268.5,-1080.68"/>
</g>
<!-- Node0x1da4c060 -->
<g id="node8" class="node"><title>Node0x1da4c060</title>
<polygon fill="none" stroke="black" points="117.5,-857.5 117.5,-910.5 218.5,-910.5 218.5,-857.5 117.5,-857.5"/>
<text text-anchor="start" x="125.5" y="-895.3" font-family="Times,serif" font-size="14.00">0x8056843:</text>
<text text-anchor="start" x="125.5" y="-880.3" font-family="Times,serif" font-size="14.00"> g3 = v1</text>
<text text-anchor="start" x="125.5" y="-865.3" font-family="Times,serif" font-size="14.00"> return 0</text>
</g>
<!-- Node0x4b2e630&#45;&gt;Node0x1da4c060 -->
<g id="edge7" class="edge"><title>Node0x4b2e630&#45;&gt;Node0x1da4c060</title>
<path fill="none" stroke="black" d="M254.985,-1034.31C239.299,-1007.38 208.626,-954.734 188.219,-919.706"/>
<polygon fill="black" stroke="black" points="191.071,-917.648 183.012,-910.769 185.022,-921.171 191.071,-917.648"/>
<text text-anchor="middle" x="275" y="-1004.8" font-family="Times,serif" font-size="14.00">v3 == 0</text>
</g>
<!-- Node0x94602b0 -->
<g id="node9" class="node"><title>Node0x94602b0</title>
<polygon fill="none" stroke="black" points="347.5,-929.5 347.5,-982.5 468.5,-982.5 468.5,-929.5 347.5,-929.5"/>
<text text-anchor="start" x="355.5" y="-967.3" font-family="Times,serif" font-size="14.00">v5 = (a3 + a2)</text>
<text text-anchor="start" x="355.5" y="-952.3" font-family="Times,serif" font-size="14.00"> a3 = v5</text>
<text text-anchor="start" x="355.5" y="-937.3" font-family="Times,serif" font-size="14.00"> v6 = 0</text>
</g>
<!-- Node0x4b2e630&#45;&gt;Node0x94602b0 -->
<g id="edge8" class="edge"><title>Node0x4b2e630&#45;&gt;Node0x94602b0</title>
<path fill="none" stroke="black" d="M290.896,-1034.39C310.394,-1021.5 337.657,-1003.49 360.972,-988.078"/>
<polygon fill="black" stroke="black" points="362.948,-990.967 369.361,-982.534 359.088,-985.127 362.948,-990.967"/>
<text text-anchor="middle" x="368" y="-1004.8" font-family="Times,serif" font-size="14.00">v3 != 0</text>
</g>
<!-- Node0x1da4c060&#45;&gt;Node0x7ebc6a0 -->
<g id="edge9" class="edge"><title>Node0x1da4c060&#45;&gt;Node0x7ebc6a0</title>
<path fill="none" stroke="black" d="M143.249,-857.092C126.722,-837.019 108,-807.631 108,-777.5 108,-777.5 108,-777.5 108,-123 108,-105.286 108,-85.379 108,-69.7932"/>
<polygon fill="black" stroke="black" points="111.5,-69.7734 108,-59.7734 104.5,-69.7735 111.5,-69.7734"/>
</g>
<!-- Node0x1da4bf40 -->
<g id="node10" class="node"><title>Node0x1da4bf40</title>
<polygon fill="none" stroke="black" points="407.5,-802.5 407.5,-838.5 504.5,-838.5 504.5,-802.5 407.5,-802.5"/>
<text text-anchor="start" x="415.5" y="-816.8" font-family="Times,serif" font-size="14.00">while True:</text>
</g>
<!-- Node0x94602b0&#45;&gt;Node0x1da4bf40 -->
<g id="edge10" class="edge"><title>Node0x94602b0&#45;&gt;Node0x1da4bf40</title>
<path fill="none" stroke="black" d="M417.255,-929.26C425.608,-906.027 437.852,-871.973 446.331,-848.391"/>
<polygon fill="black" stroke="black" points="449.733,-849.274 449.823,-838.679 443.146,-846.905 449.733,-849.274"/>
</g>
<!-- Node0x19d9cd50 -->
<g id="node11" class="node"><title>Node0x19d9cd50</title>
<polygon fill="none" stroke="black" points="136.5,-652.5 136.5,-750.5 775.5,-750.5 775.5,-652.5 136.5,-652.5"/>
<text text-anchor="start" x="144.5" y="-735.3" font-family="Times,serif" font-size="14.00">v7 = (v6 % 4)</text>
<text text-anchor="start" x="144.5" y="-720.3" font-family="Times,serif" font-size="14.00"> v8 = (8 * v7)</text>
<text text-anchor="start" x="144.5" y="-705.3" font-family="Times,serif" font-size="14.00"> g4 = v8</text>
<text text-anchor="start" x="144.5" y="-690.3" font-family="Times,serif" font-size="14.00"> v9 = *(IntToPtrCastExpr&lt;ptr&gt;(((4 * (v6 / 4)) + *(IntToPtrCastExpr&lt;ptr&gt;((g3 + 8))))))</text>
<text text-anchor="start" x="144.5" y="-675.3" font-family="Times,serif" font-size="14.00"> g6 = v9</text>
<text text-anchor="start" x="144.5" y="-660.3" font-family="Times,serif" font-size="14.00"> v10 = v9</text>
</g>
<!-- Node0x1da4bf40&#45;&gt;Node0x19d9cd50 -->
<g id="edge11" class="edge"><title>Node0x1da4bf40&#45;&gt;Node0x19d9cd50</title>
<path fill="none" stroke="black" d="M456,-802.487C456,-791.309 456,-775.968 456,-760.658"/>
<polygon fill="black" stroke="black" points="459.5,-760.646 456,-750.646 452.5,-760.646 459.5,-760.646"/>
<text text-anchor="middle" x="473" y="-772.8" font-family="Times,serif" font-size="14.00">True</text>
</g>
<!-- Node0x19d9cf30 -->
<g id="node12" class="node"><title>Node0x19d9cf30</title>
<polygon fill="none" stroke="black" points="406.5,-578.5 406.5,-614.5 505.5,-614.5 505.5,-578.5 406.5,-578.5"/>
<text text-anchor="start" x="414.5" y="-592.8" font-family="Times,serif" font-size="14.00">if (v7 != 0):</text>
</g>
<!-- Node0x19d9cd50&#45;&gt;Node0x19d9cf30 -->
<g id="edge12" class="edge"><title>Node0x19d9cd50&#45;&gt;Node0x19d9cf30</title>
<path fill="none" stroke="black" d="M456,-652.317C456,-642.893 456,-633.32 456,-624.868"/>
<polygon fill="black" stroke="black" points="459.5,-624.856 456,-614.856 452.5,-624.856 459.5,-624.856"/>
</g>
<!-- Node0x19d9d290 -->
<g id="node13" class="node"><title>Node0x19d9d290</title>
<polygon fill="none" stroke="black" points="344,-473.5 344,-526.5 486,-526.5 486,-473.5 344,-473.5"/>
<text text-anchor="start" x="352" y="-511.3" font-family="Times,serif" font-size="14.00">v11 = (v9 &gt;&gt; v8)</text>
<text text-anchor="start" x="352" y="-496.3" font-family="Times,serif" font-size="14.00"> g6 = v11</text>
<text text-anchor="start" x="352" y="-481.3" font-family="Times,serif" font-size="14.00"> v10 = v11</text>
</g>
<!-- Node0x19d9cf30&#45;&gt;Node0x19d9d290 -->
<g id="edge13" class="edge"><title>Node0x19d9cf30&#45;&gt;Node0x19d9d290</title>
<path fill="none" stroke="black" d="M448.48,-578.167C443.408,-566.478 436.537,-550.639 430.338,-536.352"/>
<polygon fill="black" stroke="black" points="433.376,-534.56 426.185,-526.78 426.954,-537.346 433.376,-534.56"/>
<text text-anchor="middle" x="467" y="-548.8" font-family="Times,serif" font-size="14.00">v7 != 0</text>
</g>
<!-- Node0x19d9d140 -->
<g id="node14" class="node"><title>Node0x19d9d140</title>
<polygon fill="none" stroke="black" points="261,-352.5 261,-435.5 581,-435.5 581,-352.5 261,-352.5"/>
<text text-anchor="start" x="269" y="-420.3" font-family="Times,serif" font-size="14.00">after_if_8056836_0:</text>
<text text-anchor="start" x="269" y="-405.3" font-family="Times,serif" font-size="14.00"> *(IntToPtrCastExpr&lt;ptr&gt;((v5 &#45; 1))) = v10</text>
<text text-anchor="start" x="269" y="-390.3" font-family="Times,serif" font-size="14.00"> v12 = (a3 &#45; 1)</text>
<text text-anchor="start" x="269" y="-375.3" font-family="Times,serif" font-size="14.00"> a3 = v12</text>
<text text-anchor="start" x="269" y="-360.3" font-family="Times,serif" font-size="14.00"> v13 = (v6 + 1)</text>
</g>
<!-- Node0x19d9cf30&#45;&gt;Node0x19d9d140 -->
<g id="edge14" class="edge"><title>Node0x19d9cf30&#45;&gt;Node0x19d9d140</title>
<path fill="none" stroke="black" d="M483.265,-578.435C489.21,-573.296 494.704,-567.101 498,-560 505.252,-544.374 525.565,-545.218 495,-473 490.555,-462.497 484.016,-452.564 476.636,-443.527"/>
<polygon fill="black" stroke="black" points="479.158,-441.093 469.966,-435.825 473.866,-445.676 479.158,-441.093"/>
<text text-anchor="middle" x="541" y="-496.3" font-family="Times,serif" font-size="14.00">v7 == 0</text>
</g>
<!-- Node0x19d9d290&#45;&gt;Node0x19d9d140 -->
<g id="edge15" class="edge"><title>Node0x19d9d290&#45;&gt;Node0x19d9d140</title>
<path fill="none" stroke="black" d="M416.483,-473.292C416.962,-464.988 417.511,-455.469 418.058,-445.995"/>
<polygon fill="black" stroke="black" points="421.565,-445.976 418.647,-435.791 414.576,-445.573 421.565,-445.976"/>
</g>
<!-- Node0xec18bf0 -->
<g id="node15" class="node"><title>Node0xec18bf0</title>
<polygon fill="none" stroke="black" points="360,-278.5 360,-314.5 482,-314.5 482,-278.5 360,-278.5"/>
<text text-anchor="start" x="368" y="-292.8" font-family="Times,serif" font-size="14.00">if (v3 == v13):</text>
</g>
<!-- Node0x19d9d140&#45;&gt;Node0xec18bf0 -->
<g id="edge16" class="edge"><title>Node0x19d9d140&#45;&gt;Node0xec18bf0</title>
<path fill="none" stroke="black" d="M421,-352.499C421,-343.206 421,-333.537 421,-324.946"/>
<polygon fill="black" stroke="black" points="424.5,-324.749 421,-314.749 417.5,-324.749 424.5,-324.749"/>
</g>
<!-- Node0x19d9d2f0 -->
<g id="node16" class="node"><title>Node0x19d9d2f0</title>
<polygon fill="none" stroke="black" points="179,-188.5 179,-226.5 347,-226.5 347,-188.5 179,-188.5"/>
<text text-anchor="start" x="187" y="-211.3" font-family="Times,serif" font-size="14.00">break &#45;&gt; 0x8056843:</text>
<text text-anchor="start" x="187" y="-196.3" font-family="Times,serif" font-size="14.00"> break</text>
</g>
<!-- Node0xec18bf0&#45;&gt;Node0x19d9d2f0 -->
<g id="edge17" class="edge"><title>Node0xec18bf0&#45;&gt;Node0x19d9d2f0</title>
<path fill="none" stroke="black" d="M380.372,-278.351C368.176,-272.846 354.885,-266.486 343,-260 327.776,-251.692 311.582,-241.535 297.775,-232.444"/>
<polygon fill="black" stroke="black" points="299.344,-229.284 289.08,-226.654 295.464,-235.11 299.344,-229.284"/>
<text text-anchor="middle" x="381.5" y="-248.8" font-family="Times,serif" font-size="14.00">v3 == v13</text>
</g>
<!-- Node0x19d9d1a0 -->
<g id="node17" class="node"><title>Node0x19d9d1a0</title>
<polygon fill="none" stroke="black" points="387,-188.5 387,-226.5 473,-226.5 473,-188.5 387,-188.5"/>
<text text-anchor="start" x="395" y="-211.3" font-family="Times,serif" font-size="14.00">v5 = v12</text>
<text text-anchor="start" x="395" y="-196.3" font-family="Times,serif" font-size="14.00"> v6 = v13</text>
</g>
<!-- Node0xec18bf0&#45;&gt;Node0x19d9d1a0 -->
<g id="edge18" class="edge"><title>Node0xec18bf0&#45;&gt;Node0x19d9d1a0</title>
<path fill="none" stroke="black" d="M422.778,-278.312C424.011,-266.394 425.68,-250.256 427.104,-236.499"/>
<polygon fill="black" stroke="black" points="430.585,-236.858 428.133,-226.551 423.622,-236.138 430.585,-236.858"/>
<text text-anchor="middle" x="461.5" y="-248.8" font-family="Times,serif" font-size="14.00">v3 != v13</text>
</g>
<!-- Node0x1da4bfe0 -->
<g id="node18" class="node"><title>Node0x1da4bfe0</title>
<polygon fill="none" stroke="black" points="155.5,-97.5 155.5,-150.5 256.5,-150.5 256.5,-97.5 155.5,-97.5"/>
<text text-anchor="start" x="163.5" y="-135.3" font-family="Times,serif" font-size="14.00">0x8056843:</text>
<text text-anchor="start" x="163.5" y="-120.3" font-family="Times,serif" font-size="14.00"> g3 = v1</text>
<text text-anchor="start" x="163.5" y="-105.3" font-family="Times,serif" font-size="14.00"> return 0</text>
</g>
<!-- Node0x19d9d2f0&#45;&gt;Node0x1da4bfe0 -->
<g id="edge19" class="edge"><title>Node0x19d9d2f0&#45;&gt;Node0x1da4bfe0</title>
<path fill="none" stroke="black" d="M250.35,-188.413C244.303,-179.766 236.86,-169.124 229.81,-159.044"/>
<polygon fill="black" stroke="black" points="232.62,-156.955 224.02,-150.766 226.884,-160.967 232.62,-156.955"/>
</g>
<!-- Node0x19d9d1a0&#45;&gt;Node0x1da4bf40 -->
<g id="edge20" class="edge"><title>Node0x19d9d1a0&#45;&gt;Node0x1da4bf40</title>
<path fill="none" stroke="black" d="M473.268,-209.505C571.716,-212.965 804,-228.253 804,-295.5 804,-702.5 804,-702.5 804,-702.5 804,-725.651 802.686,-736.062 785,-751 744.833,-784.925 598.15,-805.034 514.843,-813.966"/>
<polygon fill="black" stroke="black" points="514.341,-810.499 504.762,-815.025 515.073,-817.461 514.341,-810.499"/>
</g>
<!-- Node0x1da4bfe0&#45;&gt;Node0x7ebc6a0 -->
<g id="edge21" class="edge"><title>Node0x1da4bfe0&#45;&gt;Node0x7ebc6a0</title>
<path fill="none" stroke="black" d="M174.723,-97.308C162.525,-87.2885 148.634,-75.8782 136.697,-66.0722"/>
<polygon fill="black" stroke="black" points="138.738,-63.2195 128.789,-59.5766 134.295,-68.6286 138.738,-63.2195"/>
</g>
</g>
</svg>
