<?xml version="1.0" encoding="UTF-8" standalone="no"?>
<!DOCTYPE svg PUBLIC "-//W3C//DTD SVG 1.1//EN"
 "http://www.w3.org/Graphics/SVG/1.1/DTD/svg11.dtd">
<!-- Generated by graphviz version 2.38.0 (20140413.2041)
 -->
<!-- Title: Control&#45;flow graph for function &#39;mbedtls_sha1_init(*a1)&#39;. Pages: 1 -->
<svg width="430pt" height="233pt"
 viewBox="0.00 0.00 430.00 233.00" xmlns="http://www.w3.org/2000/svg" xmlns:xlink="http://www.w3.org/1999/xlink">
<g id="graph0" class="graph" transform="scale(1 1) rotate(0) translate(4 229)">
<title>Control&#45;flow graph for function &#39;mbedtls_sha1_init(*a1)&#39;.</title>
<polygon fill="white" stroke="none" points="-4,4 -4,-229 426,-229 426,4 -4,4"/>
<text text-anchor="middle" x="211" y="-7.8" font-family="Times,serif" font-size="14.00">Control&#45;flow graph for function &#39;mbedtls_sha1_init(*a1)&#39;.</text>
<!-- Node0x27e3c370 -->
<g id="node1" class="node"><title>Node0x27e3c370</title>
<polygon fill="none" stroke="black" points="181.5,-186.5 181.5,-224.5 240.5,-224.5 240.5,-186.5 181.5,-186.5"/>
<text text-anchor="start" x="189.5" y="-209.3" font-family="Times,serif" font-size="14.00">entry:</text>
<text text-anchor="start" x="189.5" y="-194.3" font-family="Times,serif" font-size="14.00"> a1</text>
</g>
<!-- Node0x1638d550 -->
<g id="node2" class="node"><title>Node0x1638d550</title>
<polygon fill="none" stroke="black" points="135.5,-96.5 135.5,-149.5 286.5,-149.5 286.5,-96.5 135.5,-96.5"/>
<text text-anchor="start" x="143.5" y="-134.3" font-family="Times,serif" font-size="14.00">0x8053530:</text>
<text text-anchor="start" x="143.5" y="-119.3" font-family="Times,serif" font-size="14.00"> memset(a1, 0, 23)</text>
<text text-anchor="start" x="143.5" y="-104.3" font-family="Times,serif" font-size="14.00"> return 0</text>
</g>
<!-- Node0x27e3c370&#45;&gt;Node0x1638d550 -->
<g id="edge1" class="edge"><title>Node0x27e3c370&#45;&gt;Node0x1638d550</title>
<path fill="none" stroke="black" d="M211,-186.233C211,-178.347 211,-168.835 211,-159.648"/>
<polygon fill="black" stroke="black" points="214.5,-159.517 211,-149.517 207.5,-159.517 214.5,-159.517"/>
</g>
<!-- Node0xd3a7c70 -->
<g id="node3" class="node"><title>Node0xd3a7c70</title>
<polygon fill="none" stroke="black" points="184,-23.5 184,-59.5 238,-59.5 238,-23.5 184,-23.5"/>
<text text-anchor="start" x="192" y="-37.8" font-family="Times,serif" font-size="14.00">exit:</text>
</g>
<!-- Node0x1638d550&#45;&gt;Node0xd3a7c70 -->
<g id="edge2" class="edge"><title>Node0x1638d550&#45;&gt;Node0xd3a7c70</title>
<path fill="none" stroke="black" d="M211,-96.4081C211,-87.9823 211,-78.5803 211,-70.0174"/>
<polygon fill="black" stroke="black" points="214.5,-69.7564 211,-59.7564 207.5,-69.7565 214.5,-69.7564"/>
</g>
</g>
</svg>
