<?xml version="1.0" encoding="UTF-8" standalone="no"?>
<!DOCTYPE svg PUBLIC "-//W3C//DTD SVG 1.1//EN"
 "http://www.w3.org/Graphics/SVG/1.1/DTD/svg11.dtd">
<!-- Generated by graphviz version 2.38.0 (20140413.2041)
 -->
<!-- Title: Control&#45;flow graph for function &#39;function_8070c56(result)&#39;. Pages: 1 -->
<svg width="700pt" height="399pt"
 viewBox="0.00 0.00 699.50 399.00" xmlns="http://www.w3.org/2000/svg" xmlns:xlink="http://www.w3.org/1999/xlink">
<g id="graph0" class="graph" transform="scale(1 1) rotate(0) translate(4 395)">
<title>Control&#45;flow graph for function &#39;function_8070c56(result)&#39;.</title>
<polygon fill="white" stroke="none" points="-4,4 -4,-395 695.5,-395 695.5,4 -4,4"/>
<text text-anchor="middle" x="345.75" y="-7.8" font-family="Times,serif" font-size="14.00">Control&#45;flow graph for function &#39;function_8070c56(result)&#39;.</text>
<!-- Node0x15989c50 -->
<g id="node1" class="node"><title>Node0x15989c50</title>
<polygon fill="none" stroke="black" points="160,-352.5 160,-390.5 223,-390.5 223,-352.5 160,-352.5"/>
<text text-anchor="start" x="168" y="-375.3" font-family="Times,serif" font-size="14.00">entry:</text>
<text text-anchor="start" x="168" y="-360.3" font-family="Times,serif" font-size="14.00"> result</text>
</g>
<!-- Node0x17cb6280 -->
<g id="node2" class="node"><title>Node0x17cb6280</title>
<polygon fill="none" stroke="black" points="140.5,-261.5 140.5,-314.5 242.5,-314.5 242.5,-261.5 140.5,-261.5"/>
<text text-anchor="start" x="148.5" y="-299.3" font-family="Times,serif" font-size="14.00">0x8070c56:</text>
<text text-anchor="start" x="148.5" y="-284.3" font-family="Times,serif" font-size="14.00"> g1 = result</text>
<text text-anchor="start" x="148.5" y="-269.3" font-family="Times,serif" font-size="14.00"> v1</text>
</g>
<!-- Node0x15989c50&#45;&gt;Node0x17cb6280 -->
<g id="edge1" class="edge"><title>Node0x15989c50&#45;&gt;Node0x17cb6280</title>
<path fill="none" stroke="black" d="M191.5,-352.413C191.5,-344.285 191.5,-334.394 191.5,-324.864"/>
<polygon fill="black" stroke="black" points="195,-324.766 191.5,-314.766 188,-324.766 195,-324.766"/>
</g>
<!-- Node0x17cb6320 -->
<g id="node3" class="node"><title>Node0x17cb6320</title>
<polygon fill="none" stroke="black" points="-2.84217e-14,-187.5 -2.84217e-14,-223.5 383,-223.5 383,-187.5 -2.84217e-14,-187.5"/>
<text text-anchor="start" x="8" y="-201.8" font-family="Times,serif" font-size="14.00">if (*(IntToPtrCastExpr&lt;ptr&gt;((v1 + 84196))) == 0):</text>
</g>
<!-- Node0x17cb6280&#45;&gt;Node0x17cb6320 -->
<g id="edge2" class="edge"><title>Node0x17cb6280&#45;&gt;Node0x17cb6320</title>
<path fill="none" stroke="black" d="M191.5,-261.086C191.5,-252.46 191.5,-242.822 191.5,-234.075"/>
<polygon fill="black" stroke="black" points="195,-233.973 191.5,-223.974 188,-233.974 195,-233.973"/>
</g>
<!-- Node0x17cb6a10 -->
<g id="node4" class="node"><title>Node0x17cb6a10</title>
<polygon fill="none" stroke="black" points="135,-97.5 135,-135.5 248,-135.5 248,-97.5 135,-97.5"/>
<text text-anchor="start" x="143" y="-120.3" font-family="Times,serif" font-size="14.00">0x8070c64:</text>
<text text-anchor="start" x="143" y="-105.3" font-family="Times,serif" font-size="14.00"> return result</text>
</g>
<!-- Node0x17cb6320&#45;&gt;Node0x17cb6a10 -->
<g id="edge3" class="edge"><title>Node0x17cb6320&#45;&gt;Node0x17cb6a10</title>
<path fill="none" stroke="black" d="M53.247,-187.461C35.7555,-182.702 21.7682,-176.659 15.5,-169 -17.1622,-129.092 61.9734,-119.068 124.505,-117.088"/>
<polygon fill="black" stroke="black" points="124.863,-120.581 134.772,-116.829 124.686,-113.583 124.863,-120.581"/>
<text text-anchor="middle" x="181.5" y="-157.8" font-family="Times,serif" font-size="14.00">*(IntToPtrCastExpr&lt;ptr&gt;((v1 + 84196))) != 0</text>
</g>
<!-- Node0x17cb6320&#45;&gt;Node0x17cb6a10 -->
<g id="edge4" class="edge"><title>Node0x17cb6320&#45;&gt;Node0x17cb6a10</title>
<path fill="none" stroke="black" d="M309.664,-187.441C327.23,-182.609 341.48,-176.544 347.5,-169 375.034,-134.496 312.252,-122.889 258.298,-119.104"/>
<polygon fill="black" stroke="black" points="258.2,-115.592 248.002,-118.466 257.767,-122.578 258.2,-115.592"/>
<text text-anchor="middle" x="522.5" y="-157.8" font-family="Times,serif" font-size="14.00">*(IntToPtrCastExpr&lt;ptr&gt;((v1 + 84196))) == 0</text>
</g>
<!-- Node0x17cb6200 -->
<g id="node5" class="node"><title>Node0x17cb6200</title>
<polygon fill="none" stroke="black" points="164.5,-23.5 164.5,-59.5 218.5,-59.5 218.5,-23.5 164.5,-23.5"/>
<text text-anchor="start" x="172.5" y="-37.8" font-family="Times,serif" font-size="14.00">exit:</text>
</g>
<!-- Node0x17cb6a10&#45;&gt;Node0x17cb6200 -->
<g id="edge5" class="edge"><title>Node0x17cb6a10&#45;&gt;Node0x17cb6200</title>
<path fill="none" stroke="black" d="M191.5,-97.4551C191.5,-89.2008 191.5,-79.2377 191.5,-70.0742"/>
<polygon fill="black" stroke="black" points="195,-69.8347 191.5,-59.8347 188,-69.8347 195,-69.8347"/>
</g>
</g>
</svg>
