<?xml version="1.0" encoding="UTF-8" standalone="no"?>
<!DOCTYPE svg PUBLIC "-//W3C//DTD SVG 1.1//EN"
 "http://www.w3.org/Graphics/SVG/1.1/DTD/svg11.dtd">
<!-- Generated by graphviz version 2.38.0 (20140413.2041)
 -->
<!-- Title: Control&#45;flow graph for function &#39;mbedtls_md_hmac(a1, a2, a3, a4, a5, a6)&#39;. Pages: 1 -->
<svg width="711pt" height="1021pt"
 viewBox="0.00 0.00 711.00 1021.00" xmlns="http://www.w3.org/2000/svg" xmlns:xlink="http://www.w3.org/1999/xlink">
<g id="graph0" class="graph" transform="scale(1 1) rotate(0) translate(4 1017)">
<title>Control&#45;flow graph for function &#39;mbedtls_md_hmac(a1, a2, a3, a4, a5, a6)&#39;.</title>
<polygon fill="white" stroke="none" points="-4,4 -4,-1017 707,-1017 707,4 -4,4"/>
<text text-anchor="middle" x="351.5" y="-7.8" font-family="Times,serif" font-size="14.00">Control&#45;flow graph for function &#39;mbedtls_md_hmac(a1, a2, a3, a4, a5, a6)&#39;.</text>
<!-- Node0x22fc8da0 -->
<g id="node1" class="node"><title>Node0x22fc8da0</title>
<polygon fill="none" stroke="black" points="119,-899.5 119,-1012.5 178,-1012.5 178,-899.5 119,-899.5"/>
<text text-anchor="start" x="127" y="-997.3" font-family="Times,serif" font-size="14.00">entry:</text>
<text text-anchor="start" x="127" y="-982.3" font-family="Times,serif" font-size="14.00"> a1</text>
<text text-anchor="start" x="127" y="-967.3" font-family="Times,serif" font-size="14.00"> a2</text>
<text text-anchor="start" x="127" y="-952.3" font-family="Times,serif" font-size="14.00"> a3</text>
<text text-anchor="start" x="127" y="-937.3" font-family="Times,serif" font-size="14.00"> a4</text>
<text text-anchor="start" x="127" y="-922.3" font-family="Times,serif" font-size="14.00"> a5</text>
<text text-anchor="start" x="127" y="-907.3" font-family="Times,serif" font-size="14.00"> a6</text>
</g>
<!-- Node0x8edf860 -->
<g id="node2" class="node"><title>Node0x8edf860</title>
<polygon fill="none" stroke="black" points="93.5,-748.5 93.5,-861.5 203.5,-861.5 203.5,-748.5 93.5,-748.5"/>
<text text-anchor="start" x="101.5" y="-846.3" font-family="Times,serif" font-size="14.00">v1 = g5</text>
<text text-anchor="start" x="101.5" y="-831.3" font-family="Times,serif" font-size="14.00"> g5 = a1</text>
<text text-anchor="start" x="101.5" y="-816.3" font-family="Times,serif" font-size="14.00"> v2 = g7</text>
<text text-anchor="start" x="101.5" y="-801.3" font-family="Times,serif" font-size="14.00"> g7 = &#45;20736</text>
<text text-anchor="start" x="101.5" y="-786.3" font-family="Times,serif" font-size="14.00"> v3 = g3</text>
<text text-anchor="start" x="101.5" y="-771.3" font-family="Times,serif" font-size="14.00"> v4</text>
<text text-anchor="start" x="101.5" y="-756.3" font-family="Times,serif" font-size="14.00"> result</text>
</g>
<!-- Node0x22fc8da0&#45;&gt;Node0x8edf860 -->
<g id="edge1" class="edge"><title>Node0x22fc8da0&#45;&gt;Node0x8edf860</title>
<path fill="none" stroke="black" d="M148.5,-899.094C148.5,-890.214 148.5,-880.958 148.5,-871.876"/>
<polygon fill="black" stroke="black" points="152,-871.724 148.5,-861.724 145,-871.724 152,-871.724"/>
</g>
<!-- Node0x22fca760 -->
<g id="node3" class="node"><title>Node0x22fca760</title>
<polygon fill="none" stroke="black" points="96,-674.5 96,-710.5 201,-710.5 201,-674.5 96,-674.5"/>
<text text-anchor="start" x="104" y="-688.8" font-family="Times,serif" font-size="14.00">if (a1 == 0):</text>
</g>
<!-- Node0x8edf860&#45;&gt;Node0x22fca760 -->
<g id="edge2" class="edge"><title>Node0x8edf860&#45;&gt;Node0x22fca760</title>
<path fill="none" stroke="black" d="M148.5,-748.426C148.5,-738.86 148.5,-729.307 148.5,-720.913"/>
<polygon fill="black" stroke="black" points="152,-720.644 148.5,-710.644 145,-720.644 152,-720.644"/>
</g>
<!-- Node0x22fcb360 -->
<g id="node4" class="node"><title>Node0x22fcb360</title>
<polygon fill="none" stroke="black" points="0,-392.5 0,-505.5 129,-505.5 129,-392.5 0,-392.5"/>
<text text-anchor="start" x="8" y="-490.3" font-family="Times,serif" font-size="14.00">result = &#45;20736</text>
<text text-anchor="start" x="8" y="-475.3" font-family="Times,serif" font-size="14.00"> g1 = result</text>
<text text-anchor="start" x="8" y="-460.3" font-family="Times,serif" font-size="14.00"> g3 = v3</text>
<text text-anchor="start" x="8" y="-445.3" font-family="Times,serif" font-size="14.00"> g7 = v2</text>
<text text-anchor="start" x="8" y="-430.3" font-family="Times,serif" font-size="14.00"> g5 = v1</text>
<text text-anchor="start" x="8" y="-415.3" font-family="Times,serif" font-size="14.00"> g2 = v4</text>
<text text-anchor="start" x="8" y="-400.3" font-family="Times,serif" font-size="14.00"> return result</text>
</g>
<!-- Node0x22fca760&#45;&gt;Node0x22fcb360 -->
<g id="edge3" class="edge"><title>Node0x22fca760&#45;&gt;Node0x22fcb360</title>
<path fill="none" stroke="black" d="M125.868,-674.337C111.164,-661.826 93.0194,-643.524 83.5,-623 68.1186,-589.838 63.032,-549.381 61.945,-515.932"/>
<polygon fill="black" stroke="black" points="65.4413,-515.715 61.7291,-505.791 58.4429,-515.864 65.4413,-515.715"/>
<text text-anchor="middle" x="137.5" y="-644.8" font-family="Times,serif" font-size="14.00">a1 == 0</text>
</g>
<!-- Node0x22fcae10 -->
<g id="node5" class="node"><title>Node0x22fcae10</title>
<polygon fill="none" stroke="black" points="92.5,-524.5 92.5,-622.5 544.5,-622.5 544.5,-524.5 92.5,-524.5"/>
<text text-anchor="start" x="100.5" y="-607.3" font-family="Times,serif" font-size="14.00">0x806277b:</text>
<text text-anchor="start" x="100.5" y="-592.3" font-family="Times,serif" font-size="14.00"> v5</text>
<text text-anchor="start" x="100.5" y="-577.3" font-family="Times,serif" font-size="14.00"> g3 = &amp;(v5)</text>
<text text-anchor="start" x="100.5" y="-562.3" font-family="Times,serif" font-size="14.00"> g1 = mbedtls_md_init(&amp;(v5))</text>
<text text-anchor="start" x="100.5" y="-547.3" font-family="Times,serif" font-size="14.00"> v6 = mbedtls_md_setup(IntToPtrCastExpr&lt;ptr&gt;(g3), g5, 1)</text>
<text text-anchor="start" x="100.5" y="-532.3" font-family="Times,serif" font-size="14.00"> g7 = v6</text>
</g>
<!-- Node0x22fca760&#45;&gt;Node0x22fcae10 -->
<g id="edge4" class="edge"><title>Node0x22fca760&#45;&gt;Node0x22fcae10</title>
<path fill="none" stroke="black" d="M173.219,-674.487C190.93,-662.298 215.835,-645.158 240.029,-628.506"/>
<polygon fill="black" stroke="black" points="242.291,-631.198 248.545,-622.646 238.323,-625.432 242.291,-631.198"/>
<text text-anchor="middle" x="245.5" y="-644.8" font-family="Times,serif" font-size="14.00">a1 != 0</text>
</g>
<!-- Node0xf0e8fb0 -->
<g id="node6" class="node"><title>Node0xf0e8fb0</title>
<polygon fill="none" stroke="black" points="122.5,-23.5 122.5,-59.5 176.5,-59.5 176.5,-23.5 122.5,-23.5"/>
<text text-anchor="start" x="130.5" y="-37.8" font-family="Times,serif" font-size="14.00">exit:</text>
</g>
<!-- Node0x22fcb360&#45;&gt;Node0xf0e8fb0 -->
<g id="edge5" class="edge"><title>Node0x22fcb360&#45;&gt;Node0xf0e8fb0</title>
<path fill="none" stroke="black" d="M54.3755,-392.213C44.0777,-319.885 35.6643,-191.801 83.5,-97 90.2873,-83.5488 102.051,-72.2035 113.785,-63.406"/>
<polygon fill="black" stroke="black" points="116.082,-66.0696 122.252,-57.4567 112.058,-60.3421 116.082,-66.0696"/>
</g>
<!-- Node0x22fcaf90 -->
<g id="node7" class="node"><title>Node0x22fcaf90</title>
<polygon fill="none" stroke="black" points="269,-337.5 269,-373.5 368,-373.5 368,-337.5 269,-337.5"/>
<text text-anchor="start" x="277" y="-351.8" font-family="Times,serif" font-size="14.00">if (v6 != 0):</text>
</g>
<!-- Node0x22fcae10&#45;&gt;Node0x22fcaf90 -->
<g id="edge6" class="edge"><title>Node0x22fcae10&#45;&gt;Node0x22fcaf90</title>
<path fill="none" stroke="black" d="M318.5,-524.294C318.5,-481.025 318.5,-419.058 318.5,-383.8"/>
<polygon fill="black" stroke="black" points="322,-383.766 318.5,-373.766 315,-383.766 322,-383.766"/>
</g>
<!-- Node0x22fcaba0 -->
<g id="node8" class="node"><title>Node0x22fcaba0</title>
<polygon fill="none" stroke="black" points="93,-127.5 93,-255.5 206,-255.5 206,-127.5 93,-127.5"/>
<text text-anchor="start" x="101" y="-240.3" font-family="Times,serif" font-size="14.00">0x806277b:</text>
<text text-anchor="start" x="101" y="-225.3" font-family="Times,serif" font-size="14.00"> result = v6</text>
<text text-anchor="start" x="101" y="-210.3" font-family="Times,serif" font-size="14.00"> g1 = result</text>
<text text-anchor="start" x="101" y="-195.3" font-family="Times,serif" font-size="14.00"> g3 = v3</text>
<text text-anchor="start" x="101" y="-180.3" font-family="Times,serif" font-size="14.00"> g7 = v2</text>
<text text-anchor="start" x="101" y="-165.3" font-family="Times,serif" font-size="14.00"> g5 = v1</text>
<text text-anchor="start" x="101" y="-150.3" font-family="Times,serif" font-size="14.00"> g2 = v4</text>
<text text-anchor="start" x="101" y="-135.3" font-family="Times,serif" font-size="14.00"> return result</text>
</g>
<!-- Node0x22fcaf90&#45;&gt;Node0x22fcaba0 -->
<g id="edge7" class="edge"><title>Node0x22fcaf90&#45;&gt;Node0x22fcaba0</title>
<path fill="none" stroke="black" d="M285.721,-337.262C263.999,-324.844 235.705,-306.68 214.5,-286 207.494,-279.167 200.767,-271.481 194.474,-263.527"/>
<polygon fill="black" stroke="black" points="197.189,-261.317 188.33,-255.506 191.632,-265.573 197.189,-261.317"/>
<text text-anchor="middle" x="281.5" y="-307.8" font-family="Times,serif" font-size="14.00">v6 != 0</text>
</g>
<!-- Node0x22fcb180 -->
<g id="node9" class="node"><title>Node0x22fcb180</title>
<polygon fill="none" stroke="black" points="224,-97.5 224,-285.5 703,-285.5 703,-97.5 224,-97.5"/>
<text text-anchor="start" x="232" y="-270.3" font-family="Times,serif" font-size="14.00">0x80627b0:</text>
<text text-anchor="start" x="232" y="-255.3" font-family="Times,serif" font-size="14.00"> mbedtls_md_hmac_starts(IntToPtrCastExpr&lt;ptr&gt;(g3), a2, a3)</text>
<text text-anchor="start" x="232" y="-240.3" font-family="Times,serif" font-size="14.00"> mbedtls_md_hmac_update(IntToPtrCastExpr&lt;ptr&gt;(g3), a4, a5)</text>
<text text-anchor="start" x="232" y="-225.3" font-family="Times,serif" font-size="14.00"> g1 = mbedtls_md_hmac_finish(IntToPtrCastExpr&lt;ptr&gt;(g3), a6)</text>
<text text-anchor="start" x="232" y="-210.3" font-family="Times,serif" font-size="14.00"> mbedtls_md_free(IntToPtrCastExpr&lt;ptr&gt;(g3))</text>
<text text-anchor="start" x="232" y="-195.3" font-family="Times,serif" font-size="14.00"> result2 = g7</text>
<text text-anchor="start" x="232" y="-180.3" font-family="Times,serif" font-size="14.00"> g1 = result2</text>
<text text-anchor="start" x="232" y="-165.3" font-family="Times,serif" font-size="14.00"> g3 = v3</text>
<text text-anchor="start" x="232" y="-150.3" font-family="Times,serif" font-size="14.00"> g7 = v2</text>
<text text-anchor="start" x="232" y="-135.3" font-family="Times,serif" font-size="14.00"> g5 = v1</text>
<text text-anchor="start" x="232" y="-120.3" font-family="Times,serif" font-size="14.00"> g2 = v4</text>
<text text-anchor="start" x="232" y="-105.3" font-family="Times,serif" font-size="14.00"> return result2</text>
</g>
<!-- Node0x22fcaf90&#45;&gt;Node0x22fcb180 -->
<g id="edge8" class="edge"><title>Node0x22fcaf90&#45;&gt;Node0x22fcb180</title>
<path fill="none" stroke="black" d="M333.743,-337.469C343.769,-326.268 357.805,-310.586 372.965,-293.65"/>
<polygon fill="black" stroke="black" points="375.937,-295.576 379.999,-285.791 370.722,-290.908 375.937,-295.576"/>
<text text-anchor="middle" x="390.5" y="-307.8" font-family="Times,serif" font-size="14.00">v6 == 0</text>
</g>
<!-- Node0x22fcaba0&#45;&gt;Node0xf0e8fb0 -->
<g id="edge9" class="edge"><title>Node0x22fcaba0&#45;&gt;Node0xf0e8fb0</title>
<path fill="none" stroke="black" d="M149.5,-127.305C149.5,-107.261 149.5,-86.136 149.5,-69.984"/>
<polygon fill="black" stroke="black" points="153,-69.6707 149.5,-59.6707 146,-69.6708 153,-69.6707"/>
</g>
<!-- Node0x22fcb180&#45;&gt;Node0xf0e8fb0 -->
<g id="edge10" class="edge"><title>Node0x22fcb180&#45;&gt;Node0xf0e8fb0</title>
<path fill="none" stroke="black" d="M265.976,-97.3994C235.296,-82.9389 206.833,-69.523 185.723,-59.5734"/>
<polygon fill="black" stroke="black" points="187.098,-56.3521 176.56,-55.2545 184.114,-62.684 187.098,-56.3521"/>
</g>
</g>
</svg>
