<?xml version="1.0" encoding="UTF-8" standalone="no"?>
<!DOCTYPE svg PUBLIC "-//W3C//DTD SVG 1.1//EN"
 "http://www.w3.org/Graphics/SVG/1.1/DTD/svg11.dtd">
<!-- Generated by graphviz version 2.38.0 (20140413.2041)
 -->
<!-- Title: Control&#45;flow graph for function &#39;des3_ctx_free(a1, a2, a3)&#39;. Pages: 1 -->
<svg width="444pt" height="338pt"
 viewBox="0.00 0.00 444.00 338.00" xmlns="http://www.w3.org/2000/svg" xmlns:xlink="http://www.w3.org/1999/xlink">
<g id="graph0" class="graph" transform="scale(1 1) rotate(0) translate(4 334)">
<title>Control&#45;flow graph for function &#39;des3_ctx_free(a1, a2, a3)&#39;.</title>
<polygon fill="white" stroke="none" points="-4,4 -4,-334 440,-334 440,4 -4,4"/>
<text text-anchor="middle" x="218" y="-7.8" font-family="Times,serif" font-size="14.00">Control&#45;flow graph for function &#39;des3_ctx_free(a1, a2, a3)&#39;.</text>
<!-- Node0x2ac65da0 -->
<g id="node1" class="node"><title>Node0x2ac65da0</title>
<polygon fill="none" stroke="black" points="188.5,-261.5 188.5,-329.5 247.5,-329.5 247.5,-261.5 188.5,-261.5"/>
<text text-anchor="start" x="196.5" y="-314.3" font-family="Times,serif" font-size="14.00">entry:</text>
<text text-anchor="start" x="196.5" y="-299.3" font-family="Times,serif" font-size="14.00"> a1</text>
<text text-anchor="start" x="196.5" y="-284.3" font-family="Times,serif" font-size="14.00"> a2</text>
<text text-anchor="start" x="196.5" y="-269.3" font-family="Times,serif" font-size="14.00"> a3</text>
</g>
<!-- Node0x26785f00 -->
<g id="node2" class="node"><title>Node0x26785f00</title>
<polygon fill="none" stroke="black" points="2.5,-96.5 2.5,-224.5 433.5,-224.5 433.5,-96.5 2.5,-96.5"/>
<text text-anchor="start" x="10.5" y="-209.3" font-family="Times,serif" font-size="14.00">0x806a510:</text>
<text text-anchor="start" x="10.5" y="-194.3" font-family="Times,serif" font-size="14.00"> v1</text>
<text text-anchor="start" x="10.5" y="-179.3" font-family="Times,serif" font-size="14.00"> v2 = IntToPtrCastExpr&lt;ptr&gt;(v1)</text>
<text text-anchor="start" x="10.5" y="-164.3" font-family="Times,serif" font-size="14.00"> result = mbedtls_des3_free(IntToPtrCastExpr&lt;ptr&gt;(a1))</text>
<text text-anchor="start" x="10.5" y="-149.3" font-family="Times,serif" font-size="14.00"> g1 = result</text>
<text text-anchor="start" x="10.5" y="-134.3" font-family="Times,serif" font-size="14.00"> g2 = PtrToIntCastExpr&lt;int32&gt;(v2)</text>
<text text-anchor="start" x="10.5" y="-119.3" font-family="Times,serif" font-size="14.00"> free(v2)</text>
<text text-anchor="start" x="10.5" y="-104.3" font-family="Times,serif" font-size="14.00"> return result</text>
</g>
<!-- Node0x2ac65da0&#45;&gt;Node0x26785f00 -->
<g id="edge1" class="edge"><title>Node0x2ac65da0&#45;&gt;Node0x26785f00</title>
<path fill="none" stroke="black" d="M218,-261.282C218,-253.089 218,-243.987 218,-234.71"/>
<polygon fill="black" stroke="black" points="221.5,-234.609 218,-224.609 214.5,-234.609 221.5,-234.609"/>
</g>
<!-- Node0xde74090 -->
<g id="node3" class="node"><title>Node0xde74090</title>
<polygon fill="none" stroke="black" points="191,-23.5 191,-59.5 245,-59.5 245,-23.5 191,-23.5"/>
<text text-anchor="start" x="199" y="-37.8" font-family="Times,serif" font-size="14.00">exit:</text>
</g>
<!-- Node0x26785f00&#45;&gt;Node0xde74090 -->
<g id="edge2" class="edge"><title>Node0x26785f00&#45;&gt;Node0xde74090</title>
<path fill="none" stroke="black" d="M218,-96.206C218,-87.0257 218,-78.004 218,-70.0532"/>
<polygon fill="black" stroke="black" points="221.5,-69.9607 218,-59.9608 214.5,-69.9608 221.5,-69.9607"/>
</g>
</g>
</svg>
