<?xml version="1.0" encoding="UTF-8" standalone="no"?>
<!DOCTYPE svg PUBLIC "-//W3C//DTD SVG 1.1//EN"
 "http://www.w3.org/Graphics/SVG/1.1/DTD/svg11.dtd">
<!-- Generated by graphviz version 2.38.0 (20140413.2041)
 -->
<!-- Title: Control&#45;flow graph for function &#39;mbedtls_ctr_drbg_reseed(a1, *a2, a3)&#39;. Pages: 1 -->
<svg width="1192pt" height="1662pt"
 viewBox="0.00 0.00 1191.50 1662.00" xmlns="http://www.w3.org/2000/svg" xmlns:xlink="http://www.w3.org/1999/xlink">
<g id="graph0" class="graph" transform="scale(1 1) rotate(0) translate(4 1658)">
<title>Control&#45;flow graph for function &#39;mbedtls_ctr_drbg_reseed(a1, *a2, a3)&#39;.</title>
<polygon fill="white" stroke="none" points="-4,4 -4,-1658 1187.5,-1658 1187.5,4 -4,4"/>
<text text-anchor="middle" x="591.75" y="-7.8" font-family="Times,serif" font-size="14.00">Control&#45;flow graph for function &#39;mbedtls_ctr_drbg_reseed(a1, *a2, a3)&#39;.</text>
<!-- Node0x9ac2720 -->
<g id="node1" class="node"><title>Node0x9ac2720</title>
<polygon fill="none" stroke="black" points="596,-1585.5 596,-1653.5 655,-1653.5 655,-1585.5 596,-1585.5"/>
<text text-anchor="start" x="604" y="-1638.3" font-family="Times,serif" font-size="14.00">entry:</text>
<text text-anchor="start" x="604" y="-1623.3" font-family="Times,serif" font-size="14.00"> a1</text>
<text text-anchor="start" x="604" y="-1608.3" font-family="Times,serif" font-size="14.00"> a2</text>
<text text-anchor="start" x="604" y="-1593.3" font-family="Times,serif" font-size="14.00"> a3</text>
</g>
<!-- Node0xac8b4f0 -->
<g id="node2" class="node"><title>Node0xac8b4f0</title>
<polygon fill="none" stroke="black" points="575,-1419.5 575,-1547.5 676,-1547.5 676,-1419.5 575,-1419.5"/>
<text text-anchor="start" x="583" y="-1532.3" font-family="Times,serif" font-size="14.00">v1</text>
<text text-anchor="start" x="583" y="-1517.3" font-family="Times,serif" font-size="14.00"> g2 = &amp;(v1)</text>
<text text-anchor="start" x="583" y="-1502.3" font-family="Times,serif" font-size="14.00"> v2 = g7</text>
<text text-anchor="start" x="583" y="-1487.3" font-family="Times,serif" font-size="14.00"> g7 = a1</text>
<text text-anchor="start" x="583" y="-1472.3" font-family="Times,serif" font-size="14.00"> v3 = g3</text>
<text text-anchor="start" x="583" y="-1457.3" font-family="Times,serif" font-size="14.00"> g3 = a3</text>
<text text-anchor="start" x="583" y="-1442.3" font-family="Times,serif" font-size="14.00"> v4 = g5</text>
<text text-anchor="start" x="583" y="-1427.3" font-family="Times,serif" font-size="14.00"> result</text>
</g>
<!-- Node0x9ac2720&#45;&gt;Node0xac8b4f0 -->
<g id="edge1" class="edge"><title>Node0x9ac2720&#45;&gt;Node0xac8b4f0</title>
<path fill="none" stroke="black" d="M625.5,-1585.38C625.5,-1576.86 625.5,-1567.36 625.5,-1557.68"/>
<polygon fill="black" stroke="black" points="629,-1557.57 625.5,-1547.57 622,-1557.57 629,-1557.57"/>
</g>
<!-- Node0x1fce65f0 -->
<g id="node3" class="node"><title>Node0x1fce65f0</title>
<polygon fill="none" stroke="black" points="420,-1343.5 420,-1381.5 831,-1381.5 831,-1343.5 420,-1343.5"/>
<text text-anchor="start" x="428" y="-1366.3" font-family="Times,serif" font-size="14.00">if ((*(IntToPtrCastExpr&lt;ptr&gt;((a1 + 24))) + a3) &lt; 385):</text>
<text text-anchor="start" x="428" y="-1351.3" font-family="Times,serif" font-size="14.00"> else:</text>
</g>
<!-- Node0xac8b4f0&#45;&gt;Node0x1fce65f0 -->
<g id="edge2" class="edge"><title>Node0xac8b4f0&#45;&gt;Node0x1fce65f0</title>
<path fill="none" stroke="black" d="M625.5,-1419.17C625.5,-1409.6 625.5,-1400.16 625.5,-1391.85"/>
<polygon fill="black" stroke="black" points="629,-1391.66 625.5,-1381.66 622,-1391.66 629,-1391.66"/>
</g>
<!-- Node0x1fce5900 -->
<g id="node4" class="node"><title>Node0x1fce5900</title>
<polygon fill="none" stroke="black" points="119,-1028.5 119,-1291.5 754,-1291.5 754,-1028.5 119,-1028.5"/>
<text text-anchor="start" x="127" y="-1276.3" font-family="Times,serif" font-size="14.00">0x804bbb8:</text>
<text text-anchor="start" x="127" y="-1261.3" font-family="Times,serif" font-size="14.00"> v5</text>
<text text-anchor="start" x="127" y="-1246.3" font-family="Times,serif" font-size="14.00"> v6 = &amp;(v5)</text>
<text text-anchor="start" x="127" y="-1231.3" font-family="Times,serif" font-size="14.00"> g5 = v6</text>
<text text-anchor="start" x="127" y="-1216.3" font-family="Times,serif" font-size="14.00"> g237 = True</text>
<text text-anchor="start" x="127" y="-1201.3" font-family="Times,serif" font-size="14.00"> g6 = v6</text>
<text text-anchor="start" x="127" y="-1186.3" font-family="Times,serif" font-size="14.00"> v7</text>
<text text-anchor="start" x="127" y="-1171.3" font-family="Times,serif" font-size="14.00"> set_mem = memset(BitCastExpr&lt;ptr&gt;(&amp;(v5)), PtrToIntCastExpr&lt;int32&gt;(&amp;(v7)), 96)</text>
<text text-anchor="start" x="127" y="-1156.3" font-family="Times,serif" font-size="14.00"> g4 = PtrToIntCastExpr&lt;int32&gt;(set_mem)</text>
<text text-anchor="start" x="127" y="-1141.3" font-family="Times,serif" font-size="14.00"> v8 = g7</text>
<text text-anchor="start" x="127" y="-1126.3" font-family="Times,serif" font-size="14.00"> v9 = *(IntToPtrCastExpr&lt;ptr&gt;((v8 + 24)))</text>
<text text-anchor="start" x="127" y="-1111.3" font-family="Times,serif" font-size="14.00"> v10 = *(IntToPtrCastExpr&lt;ptr&gt;((v8 + 316)))</text>
<text text-anchor="start" x="127" y="-1096.3" font-family="Times,serif" font-size="14.00"> g1 = v10</text>
<text text-anchor="start" x="127" y="-1081.3" font-family="Times,serif" font-size="14.00"> v11 = IntToPtrCastExpr&lt;ptr&gt;(v10)</text>
<text text-anchor="start" x="127" y="-1066.3" font-family="Times,serif" font-size="14.00"> IntToPtrCastExpr&lt;ptr&gt;(*(IntToPtrCastExpr&lt;ptr&gt;((v8 + 312))))(v10, v6, v9)</text>
<text text-anchor="start" x="127" y="-1051.3" font-family="Times,serif" font-size="14.00"> v12 = g1</text>
<text text-anchor="start" x="127" y="-1036.3" font-family="Times,serif" font-size="14.00"> g6 = v12</text>
</g>
<!-- Node0x1fce65f0&#45;&gt;Node0x1fce5900 -->
<g id="edge3" class="edge"><title>Node0x1fce65f0&#45;&gt;Node0x1fce5900</title>
<path fill="none" stroke="black" d="M469.055,-1343.44C452.167,-1338.65 438.81,-1332.61 432.5,-1325 426.625,-1317.91 422.297,-1309.99 419.221,-1301.58"/>
<polygon fill="black" stroke="black" points="422.527,-1300.42 416.262,-1291.87 415.831,-1302.46 422.527,-1300.42"/>
<text text-anchor="middle" x="615.5" y="-1313.8" font-family="Times,serif" font-size="14.00">(*(IntToPtrCastExpr&lt;ptr&gt;((a1 + 24))) + a3) &lt; 385</text>
</g>
<!-- Node0x1fce5ee0 -->
<g id="node5" class="node"><title>Node0x1fce5ee0</title>
<polygon fill="none" stroke="black" points="761,-971.5 761,-1009.5 868,-1009.5 868,-971.5 761,-971.5"/>
<text text-anchor="start" x="769" y="-994.3" font-family="Times,serif" font-size="14.00">0x804bba4:</text>
<text text-anchor="start" x="769" y="-979.3" font-family="Times,serif" font-size="14.00"> result = &#45;56</text>
</g>
<!-- Node0x1fce65f0&#45;&gt;Node0x1fce5ee0 -->
<g id="edge4" class="edge"><title>Node0x1fce65f0&#45;&gt;Node0x1fce5ee0</title>
<path fill="none" stroke="black" d="M760.313,-1343.44C777.916,-1338.59 792.082,-1332.54 798.5,-1325 873.793,-1236.58 841.036,-1082.3 823.236,-1019.4"/>
<polygon fill="black" stroke="black" points="826.587,-1018.38 820.423,-1009.77 819.867,-1020.35 826.587,-1018.38"/>
<text text-anchor="middle" x="994.5" y="-1313.8" font-family="Times,serif" font-size="14.00">(*(IntToPtrCastExpr&lt;ptr&gt;((a1 + 24))) + a3) &gt;= 385</text>
</g>
<!-- Node0x1fce5960 -->
<g id="node6" class="node"><title>Node0x1fce5960</title>
<polygon fill="none" stroke="black" points="434.5,-914.5 434.5,-952.5 548.5,-952.5 548.5,-914.5 434.5,-914.5"/>
<text text-anchor="start" x="442.5" y="-937.3" font-family="Times,serif" font-size="14.00">if (v12 == 0):</text>
<text text-anchor="start" x="442.5" y="-922.3" font-family="Times,serif" font-size="14.00"> else:</text>
</g>
<!-- Node0x1fce5900&#45;&gt;Node0x1fce5960 -->
<g id="edge5" class="edge"><title>Node0x1fce5900&#45;&gt;Node0x1fce5960</title>
<path fill="none" stroke="black" d="M468.494,-1028.41C474.6,-1003.48 480.402,-979.801 484.652,-962.453"/>
<polygon fill="black" stroke="black" points="488.106,-963.062 487.086,-952.516 481.307,-961.396 488.106,-963.062"/>
</g>
<!-- Node0x1d886d80 -->
<g id="node7" class="node"><title>Node0x1d886d80</title>
<polygon fill="none" stroke="black" points="678,-97.5 678,-180.5 791,-180.5 791,-97.5 678,-97.5"/>
<text text-anchor="start" x="686" y="-165.3" font-family="Times,serif" font-size="14.00">0x804bba9:</text>
<text text-anchor="start" x="686" y="-150.3" font-family="Times,serif" font-size="14.00"> g3 = v3</text>
<text text-anchor="start" x="686" y="-135.3" font-family="Times,serif" font-size="14.00"> g7 = v2</text>
<text text-anchor="start" x="686" y="-120.3" font-family="Times,serif" font-size="14.00"> g5 = v4</text>
<text text-anchor="start" x="686" y="-105.3" font-family="Times,serif" font-size="14.00"> return result</text>
</g>
<!-- Node0x1fce5ee0&#45;&gt;Node0x1d886d80 -->
<g id="edge6" class="edge"><title>Node0x1fce5ee0&#45;&gt;Node0x1d886d80</title>
<path fill="none" stroke="black" d="M808.018,-971.333C801.529,-951.494 792.5,-918.653 792.5,-889.5 792.5,-889.5 792.5,-889.5 792.5,-296.5 792.5,-259.08 777.74,-219.588 763.112,-189.637"/>
<polygon fill="black" stroke="black" points="766.216,-188.019 758.593,-180.661 759.964,-191.167 766.216,-188.019"/>
</g>
<!-- Node0x1fce5f40 -->
<g id="node8" class="node"><title>Node0x1fce5f40</title>
<polygon fill="none" stroke="black" points="322.5,-779.5 322.5,-862.5 660.5,-862.5 660.5,-779.5 322.5,-779.5"/>
<text text-anchor="start" x="330.5" y="-847.3" font-family="Times,serif" font-size="14.00">v13 = g3</text>
<text text-anchor="start" x="330.5" y="-832.3" font-family="Times,serif" font-size="14.00"> v14 = *(IntToPtrCastExpr&lt;ptr&gt;((g7 + 24)))</text>
<text text-anchor="start" x="330.5" y="-817.3" font-family="Times,serif" font-size="14.00"> g4 = v14</text>
<text text-anchor="start" x="330.5" y="-802.3" font-family="Times,serif" font-size="14.00"> v15 = v9</text>
<text text-anchor="start" x="330.5" y="-787.3" font-family="Times,serif" font-size="14.00"> v16 = BitCastExpr&lt;ptr&gt;(&amp;(v5))</text>
</g>
<!-- Node0x1fce5960&#45;&gt;Node0x1fce5f40 -->
<g id="edge7" class="edge"><title>Node0x1fce5960&#45;&gt;Node0x1fce5f40</title>
<path fill="none" stroke="black" d="M491.5,-914.253C491.5,-902.898 491.5,-887.682 491.5,-872.887"/>
<polygon fill="black" stroke="black" points="495,-872.764 491.5,-862.764 488,-872.764 495,-872.764"/>
<text text-anchor="middle" x="526" y="-884.8" font-family="Times,serif" font-size="14.00">v12 == 0</text>
</g>
<!-- Node0xddc1110 -->
<g id="node9" class="node"><title>Node0xddc1110</title>
<polygon fill="none" stroke="black" points="660.5,-724.5 660.5,-760.5 762.5,-760.5 762.5,-724.5 660.5,-724.5"/>
<text text-anchor="start" x="668.5" y="-738.8" font-family="Times,serif" font-size="14.00">result = &#45;52</text>
</g>
<!-- Node0x1fce5960&#45;&gt;Node0xddc1110 -->
<g id="edge8" class="edge"><title>Node0x1fce5960&#45;&gt;Node0xddc1110</title>
<path fill="none" stroke="black" d="M548.558,-923.097C587.375,-913.927 637.341,-896.28 669.5,-863 693.809,-837.843 704.125,-797.806 708.451,-771.097"/>
<polygon fill="black" stroke="black" points="711.96,-771.287 709.919,-760.89 705.031,-770.29 711.96,-771.287"/>
<text text-anchor="middle" x="679" y="-884.8" font-family="Times,serif" font-size="14.00">v12 != 0</text>
</g>
<!-- Node0xac8b550 -->
<g id="node10" class="node"><title>Node0xac8b550</title>
<polygon fill="none" stroke="black" points="707.5,-23.5 707.5,-59.5 761.5,-59.5 761.5,-23.5 707.5,-23.5"/>
<text text-anchor="start" x="715.5" y="-37.8" font-family="Times,serif" font-size="14.00">exit:</text>
</g>
<!-- Node0x1d886d80&#45;&gt;Node0xac8b550 -->
<g id="edge9" class="edge"><title>Node0x1d886d80&#45;&gt;Node0xac8b550</title>
<path fill="none" stroke="black" d="M734.5,-97.4994C734.5,-88.2058 734.5,-78.537 734.5,-69.9459"/>
<polygon fill="black" stroke="black" points="738,-69.7494 734.5,-59.7494 731,-69.7494 738,-69.7494"/>
</g>
<!-- Node0x1fce60b0 -->
<g id="node11" class="node"><title>Node0x1fce60b0</title>
<polygon fill="none" stroke="black" points="437.5,-669.5 437.5,-705.5 545.5,-705.5 545.5,-669.5 437.5,-669.5"/>
<text text-anchor="start" x="445.5" y="-683.8" font-family="Times,serif" font-size="14.00">if (v13 != 0):</text>
</g>
<!-- Node0x1fce5f40&#45;&gt;Node0x1fce60b0 -->
<g id="edge10" class="edge"><title>Node0x1fce5f40&#45;&gt;Node0x1fce60b0</title>
<path fill="none" stroke="black" d="M491.5,-779.473C491.5,-758.781 491.5,-734.162 491.5,-715.755"/>
<polygon fill="black" stroke="black" points="495,-715.712 491.5,-705.712 488,-715.712 495,-715.712"/>
</g>
<!-- Node0xddc1110&#45;&gt;Node0x1d886d80 -->
<g id="edge11" class="edge"><title>Node0xddc1110&#45;&gt;Node0x1d886d80</title>
<path fill="none" stroke="black" d="M718.153,-724.269C724.945,-705.098 734.5,-673.057 734.5,-644.5 734.5,-644.5 734.5,-644.5 734.5,-296.5 734.5,-261.105 734.5,-221.206 734.5,-190.554"/>
<polygon fill="black" stroke="black" points="738,-190.533 734.5,-180.533 731,-190.533 738,-190.533"/>
</g>
<!-- Node0x1fce5ad0 -->
<g id="node12" class="node"><title>Node0x1fce5ad0</title>
<polygon fill="none" stroke="black" points="399.5,-564.5 399.5,-617.5 537.5,-617.5 537.5,-564.5 399.5,-564.5"/>
<text text-anchor="start" x="407.5" y="-602.3" font-family="Times,serif" font-size="14.00">0x804bc2d:</text>
<text text-anchor="start" x="407.5" y="-587.3" font-family="Times,serif" font-size="14.00"> if (a2 != NULL):</text>
<text text-anchor="start" x="407.5" y="-572.3" font-family="Times,serif" font-size="14.00"> else:</text>
</g>
<!-- Node0x1fce60b0&#45;&gt;Node0x1fce5ad0 -->
<g id="edge12" class="edge"><title>Node0x1fce60b0&#45;&gt;Node0x1fce5ad0</title>
<path fill="none" stroke="black" d="M487.281,-669.167C484.464,-657.59 480.656,-641.943 477.205,-627.765"/>
<polygon fill="black" stroke="black" points="480.54,-626.668 474.774,-617.78 473.739,-628.324 480.54,-626.668"/>
<text text-anchor="middle" x="515" y="-639.8" font-family="Times,serif" font-size="14.00">v13 != 0</text>
</g>
<!-- Node0x1fce62b0 -->
<g id="node13" class="node"><title>Node0x1fce62b0</title>
<polygon fill="none" stroke="black" points="230.5,-218.5 230.5,-376.5 706.5,-376.5 706.5,-218.5 230.5,-218.5"/>
<text text-anchor="start" x="238.5" y="-361.3" font-family="Times,serif" font-size="14.00">0x804bc05:</text>
<text text-anchor="start" x="238.5" y="-346.3" font-family="Times,serif" font-size="14.00"> g6 = v6</text>
<text text-anchor="start" x="238.5" y="-331.3" font-family="Times,serif" font-size="14.00"> g1 = v6</text>
<text text-anchor="start" x="238.5" y="-316.3" font-family="Times,serif" font-size="14.00"> v18 = PtrToIntCastExpr&lt;int32&gt;(v16)</text>
<text text-anchor="start" x="238.5" y="-301.3" font-family="Times,serif" font-size="14.00"> block_cipher_df(PtrToIntCastExpr&lt;int32&gt;(v11), v18, v15)</text>
<text text-anchor="start" x="238.5" y="-286.3" font-family="Times,serif" font-size="14.00"> g6 = v6</text>
<text text-anchor="start" x="238.5" y="-271.3" font-family="Times,serif" font-size="14.00"> g1 = g7</text>
<text text-anchor="start" x="238.5" y="-256.3" font-family="Times,serif" font-size="14.00"> ctr_drbg_update_internal(PtrToIntCastExpr&lt;int32&gt;(v11), v18)</text>
<text text-anchor="start" x="238.5" y="-241.3" font-family="Times,serif" font-size="14.00"> *(IntToPtrCastExpr&lt;ptr&gt;((g7 + 16))) = 1</text>
<text text-anchor="start" x="238.5" y="-226.3" font-family="Times,serif" font-size="14.00"> result = 0</text>
</g>
<!-- Node0x1fce60b0&#45;&gt;Node0x1fce62b0 -->
<g id="edge13" class="edge"><title>Node0x1fce60b0&#45;&gt;Node0x1fce62b0</title>
<path fill="none" stroke="black" d="M528.376,-669.405C536.458,-664.36 544.408,-658.217 550.5,-651 620.184,-568.446 649.866,-512.046 604.5,-414 599.671,-403.563 593.382,-393.724 586.159,-384.529"/>
<polygon fill="black" stroke="black" points="588.666,-382.07 579.583,-376.616 583.282,-386.544 588.666,-382.07"/>
<text text-anchor="middle" x="657" y="-534.8" font-family="Times,serif" font-size="14.00">v13 == 0</text>
</g>
<!-- Node0x1d886b90 -->
<g id="node14" class="node"><title>Node0x1d886b90</title>
<polygon fill="none" stroke="black" points="0,-414.5 0,-512.5 323,-512.5 323,-414.5 0,-414.5"/>
<text text-anchor="start" x="8" y="-497.3" font-family="Times,serif" font-size="14.00">v17 = IntToPtrCastExpr&lt;ptr&gt;((v14 + v6))</text>
<text text-anchor="start" x="8" y="-482.3" font-family="Times,serif" font-size="14.00"> v11 = v17</text>
<text text-anchor="start" x="8" y="-467.3" font-family="Times,serif" font-size="14.00"> memcpy(v17, a2, v13)</text>
<text text-anchor="start" x="8" y="-452.3" font-family="Times,serif" font-size="14.00"> g4 = (g3 + v14)</text>
<text text-anchor="start" x="8" y="-437.3" font-family="Times,serif" font-size="14.00"> v15 = v13</text>
<text text-anchor="start" x="8" y="-422.3" font-family="Times,serif" font-size="14.00"> v16 = a2</text>
</g>
<!-- Node0x1fce5ad0&#45;&gt;Node0x1d886b90 -->
<g id="edge14" class="edge"><title>Node0x1fce5ad0&#45;&gt;Node0x1d886b90</title>
<path fill="none" stroke="black" d="M406.004,-564.452C372.173,-550.622 329.112,-533.019 288.584,-516.451"/>
<polygon fill="black" stroke="black" points="289.746,-513.145 279.165,-512.601 287.097,-519.625 289.746,-513.145"/>
<text text-anchor="middle" x="404.5" y="-534.8" font-family="Times,serif" font-size="14.00">a2 != NULL</text>
</g>
<!-- Node0x194cadc0 -->
<g id="node15" class="node"><title>Node0x194cadc0</title>
<polygon fill="none" stroke="black" points="341.5,-444.5 341.5,-482.5 595.5,-482.5 595.5,-444.5 341.5,-444.5"/>
<text text-anchor="start" x="349.5" y="-467.3" font-family="Times,serif" font-size="14.00">v15 = v9</text>
<text text-anchor="start" x="349.5" y="-452.3" font-family="Times,serif" font-size="14.00"> v16 = BitCastExpr&lt;ptr&gt;(&amp;(v5))</text>
</g>
<!-- Node0x1fce5ad0&#45;&gt;Node0x194cadc0 -->
<g id="edge15" class="edge"><title>Node0x1fce5ad0&#45;&gt;Node0x194cadc0</title>
<path fill="none" stroke="black" d="M468.5,-564.3C468.5,-543.565 468.5,-514.42 468.5,-492.977"/>
<polygon fill="black" stroke="black" points="472,-492.846 468.5,-482.846 465,-492.846 472,-492.846"/>
<text text-anchor="middle" x="515.5" y="-534.8" font-family="Times,serif" font-size="14.00">a2 == NULL</text>
</g>
<!-- Node0x1fce62b0&#45;&gt;Node0x1d886d80 -->
<g id="edge16" class="edge"><title>Node0x1fce62b0&#45;&gt;Node0x1d886d80</title>
<path fill="none" stroke="black" d="M601.11,-218.479C624.795,-204.544 648.496,-190.6 669.21,-178.413"/>
<polygon fill="black" stroke="black" points="671.051,-181.391 677.895,-173.303 667.501,-175.358 671.051,-181.391"/>
</g>
<!-- Node0x1d886b90&#45;&gt;Node0x1fce62b0 -->
<g id="edge17" class="edge"><title>Node0x1d886b90&#45;&gt;Node0x1fce62b0</title>
<path fill="none" stroke="black" d="M251.536,-414.403C270.965,-404.024 292.04,-392.765 313.162,-381.482"/>
<polygon fill="black" stroke="black" points="315.041,-384.446 322.212,-376.647 311.742,-378.272 315.041,-384.446"/>
</g>
<!-- Node0x194cadc0&#45;&gt;Node0x1fce62b0 -->
<g id="edge18" class="edge"><title>Node0x194cadc0&#45;&gt;Node0x1fce62b0</title>
<path fill="none" stroke="black" d="M468.5,-444.323C468.5,-429.931 468.5,-408.674 468.5,-386.816"/>
<polygon fill="black" stroke="black" points="472,-386.753 468.5,-376.753 465,-386.753 472,-386.753"/>
</g>
</g>
</svg>
