<?xml version="1.0" encoding="UTF-8" standalone="no"?>
<!DOCTYPE svg PUBLIC "-//W3C//DTD SVG 1.1//EN"
 "http://www.w3.org/Graphics/SVG/1.1/DTD/svg11.dtd">
<!-- Generated by graphviz version 2.38.0 (20140413.2041)
 -->
<!-- Title: Control&#45;flow graph for function &#39;__syscall_ret(a1, a2)&#39;. Pages: 1 -->
<svg width="410pt" height="520pt"
 viewBox="0.00 0.00 410.00 520.00" xmlns="http://www.w3.org/2000/svg" xmlns:xlink="http://www.w3.org/1999/xlink">
<g id="graph0" class="graph" transform="scale(1 1) rotate(0) translate(4 516)">
<title>Control&#45;flow graph for function &#39;__syscall_ret(a1, a2)&#39;.</title>
<polygon fill="white" stroke="none" points="-4,4 -4,-516 406,-516 406,4 -4,4"/>
<text text-anchor="middle" x="201" y="-7.8" font-family="Times,serif" font-size="14.00">Control&#45;flow graph for function &#39;__syscall_ret(a1, a2)&#39;.</text>
<!-- Node0x194c2ea0 -->
<g id="node1" class="node"><title>Node0x194c2ea0</title>
<polygon fill="none" stroke="black" points="158.25,-458.5 158.25,-511.5 217.25,-511.5 217.25,-458.5 158.25,-458.5"/>
<text text-anchor="start" x="166.25" y="-496.3" font-family="Times,serif" font-size="14.00">entry:</text>
<text text-anchor="start" x="166.25" y="-481.3" font-family="Times,serif" font-size="14.00"> a1</text>
<text text-anchor="start" x="166.25" y="-466.3" font-family="Times,serif" font-size="14.00"> a2</text>
</g>
<!-- Node0x194c3540 -->
<g id="node2" class="node"><title>Node0x194c3540</title>
<polygon fill="none" stroke="black" points="137.25,-382.5 137.25,-420.5 238.25,-420.5 238.25,-382.5 137.25,-382.5"/>
<text text-anchor="start" x="145.25" y="-405.3" font-family="Times,serif" font-size="14.00">v1 = a1</text>
<text text-anchor="start" x="145.25" y="-390.3" font-family="Times,serif" font-size="14.00"> result = v1</text>
</g>
<!-- Node0x194c2ea0&#45;&gt;Node0x194c3540 -->
<g id="edge1" class="edge"><title>Node0x194c2ea0&#45;&gt;Node0x194c3540</title>
<path fill="none" stroke="black" d="M187.75,-458.213C187.75,-449.526 187.75,-439.787 187.75,-430.91"/>
<polygon fill="black" stroke="black" points="191.25,-430.638 187.75,-420.638 184.25,-430.638 191.25,-430.638"/>
</g>
<!-- Node0x194c35e0 -->
<g id="node3" class="node"><title>Node0x194c35e0</title>
<polygon fill="none" stroke="black" points="100.75,-308.5 100.75,-344.5 274.75,-344.5 274.75,-308.5 100.75,-308.5"/>
<text text-anchor="start" x="108.75" y="-322.8" font-family="Times,serif" font-size="14.00">if (v1 &gt; 4294963200):</text>
</g>
<!-- Node0x194c3540&#45;&gt;Node0x194c35e0 -->
<g id="edge2" class="edge"><title>Node0x194c3540&#45;&gt;Node0x194c35e0</title>
<path fill="none" stroke="black" d="M187.75,-382.455C187.75,-374.201 187.75,-364.238 187.75,-355.074"/>
<polygon fill="black" stroke="black" points="191.25,-354.835 187.75,-344.835 184.25,-354.835 191.25,-354.835"/>
</g>
<!-- Node0x194c3920 -->
<g id="node4" class="node"><title>Node0x194c3920</title>
<polygon fill="none" stroke="black" points="3.25,-203.5 3.25,-256.5 224.25,-256.5 224.25,-203.5 3.25,-203.5"/>
<text text-anchor="start" x="11.25" y="-241.3" font-family="Times,serif" font-size="14.00">0x8070cc8:</text>
<text text-anchor="start" x="11.25" y="-226.3" font-family="Times,serif" font-size="14.00"> *(__errno_location()) = &#45;(v1)</text>
<text text-anchor="start" x="11.25" y="-211.3" font-family="Times,serif" font-size="14.00"> result = &#45;1</text>
</g>
<!-- Node0x194c35e0&#45;&gt;Node0x194c3920 -->
<g id="edge3" class="edge"><title>Node0x194c35e0&#45;&gt;Node0x194c3920</title>
<path fill="none" stroke="black" d="M137.863,-308.472C129.984,-303.674 122.788,-297.614 117.75,-290 113.249,-283.197 111.156,-274.934 110.411,-266.772"/>
<polygon fill="black" stroke="black" points="113.904,-266.496 110.107,-256.605 106.907,-266.705 113.904,-266.496"/>
<text text-anchor="middle" x="182.25" y="-278.8" font-family="Times,serif" font-size="14.00">v1 &gt; 4294963200</text>
</g>
<!-- Node0x194c37e0 -->
<g id="node5" class="node"><title>Node0x194c37e0</title>
<polygon fill="none" stroke="black" points="161.25,-97.5 161.25,-165.5 274.25,-165.5 274.25,-97.5 161.25,-97.5"/>
<text text-anchor="start" x="169.25" y="-150.3" font-family="Times,serif" font-size="14.00">0x8070cc2:</text>
<text text-anchor="start" x="169.25" y="-135.3" font-family="Times,serif" font-size="14.00"> v2</text>
<text text-anchor="start" x="169.25" y="-120.3" font-family="Times,serif" font-size="14.00"> g3 = v2</text>
<text text-anchor="start" x="169.25" y="-105.3" font-family="Times,serif" font-size="14.00"> return result</text>
</g>
<!-- Node0x194c35e0&#45;&gt;Node0x194c37e0 -->
<g id="edge4" class="edge"><title>Node0x194c35e0&#45;&gt;Node0x194c37e0</title>
<path fill="none" stroke="black" d="M228.809,-308.457C235.994,-303.579 242.514,-297.493 246.75,-290 266.739,-254.644 254.473,-208.354 240.254,-175.121"/>
<polygon fill="black" stroke="black" points="243.305,-173.372 236.015,-165.684 236.92,-176.24 243.305,-173.372"/>
<text text-anchor="middle" x="328.25" y="-226.3" font-family="Times,serif" font-size="14.00">v1 &lt;= 4294963200</text>
</g>
<!-- Node0x194c3920&#45;&gt;Node0x194c37e0 -->
<g id="edge5" class="edge"><title>Node0x194c3920&#45;&gt;Node0x194c37e0</title>
<path fill="none" stroke="black" d="M141.347,-203.393C151.517,-193.957 163.297,-183.026 174.517,-172.615"/>
<polygon fill="black" stroke="black" points="177.218,-174.883 182.168,-165.516 172.457,-169.752 177.218,-174.883"/>
</g>
<!-- Node0x194c34e0 -->
<g id="node6" class="node"><title>Node0x194c34e0</title>
<polygon fill="none" stroke="black" points="190.75,-23.5 190.75,-59.5 244.75,-59.5 244.75,-23.5 190.75,-23.5"/>
<text text-anchor="start" x="198.75" y="-37.8" font-family="Times,serif" font-size="14.00">exit:</text>
</g>
<!-- Node0x194c37e0&#45;&gt;Node0x194c34e0 -->
<g id="edge6" class="edge"><title>Node0x194c37e0&#45;&gt;Node0x194c34e0</title>
<path fill="none" stroke="black" d="M217.75,-97.4817C217.75,-88.3281 217.75,-78.4972 217.75,-69.7155"/>
<polygon fill="black" stroke="black" points="221.25,-69.6402 217.75,-59.6402 214.25,-69.6403 221.25,-69.6402"/>
</g>
</g>
</svg>
