<?xml version="1.0" encoding="UTF-8" standalone="no"?>
<!DOCTYPE svg PUBLIC "-//W3C//DTD SVG 1.1//EN"
 "http://www.w3.org/Graphics/SVG/1.1/DTD/svg11.dtd">
<!-- Generated by graphviz version 2.38.0 (20140413.2041)
 -->
<!-- Title: Control&#45;flow graph for function &#39;mbedtls_rsa_rsassa_pss_verify(a1, a2, a3, a4, a5, a6, a7, a8)&#39;. Pages: 1 -->
<svg width="971pt" height="640pt"
 viewBox="0.00 0.00 971.00 640.00" xmlns="http://www.w3.org/2000/svg" xmlns:xlink="http://www.w3.org/1999/xlink">
<g id="graph0" class="graph" transform="scale(1 1) rotate(0) translate(4 636)">
<title>Control&#45;flow graph for function &#39;mbedtls_rsa_rsassa_pss_verify(a1, a2, a3, a4, a5, a6, a7, a8)&#39;.</title>
<polygon fill="white" stroke="none" points="-4,4 -4,-636 967,-636 967,4 -4,4"/>
<text text-anchor="middle" x="481.5" y="-7.8" font-family="Times,serif" font-size="14.00">Control&#45;flow graph for function &#39;mbedtls_rsa_rsassa_pss_verify(a1, a2, a3, a4, a5, a6, a7, a8)&#39;.</text>
<!-- Node0xfdacf00 -->
<g id="node1" class="node"><title>Node0xfdacf00</title>
<polygon fill="none" stroke="black" points="449,-488.5 449,-631.5 508,-631.5 508,-488.5 449,-488.5"/>
<text text-anchor="start" x="457" y="-616.3" font-family="Times,serif" font-size="14.00">entry:</text>
<text text-anchor="start" x="457" y="-601.3" font-family="Times,serif" font-size="14.00"> a1</text>
<text text-anchor="start" x="457" y="-586.3" font-family="Times,serif" font-size="14.00"> a2</text>
<text text-anchor="start" x="457" y="-571.3" font-family="Times,serif" font-size="14.00"> a3</text>
<text text-anchor="start" x="457" y="-556.3" font-family="Times,serif" font-size="14.00"> a4</text>
<text text-anchor="start" x="457" y="-541.3" font-family="Times,serif" font-size="14.00"> a5</text>
<text text-anchor="start" x="457" y="-526.3" font-family="Times,serif" font-size="14.00"> a6</text>
<text text-anchor="start" x="457" y="-511.3" font-family="Times,serif" font-size="14.00"> a7</text>
<text text-anchor="start" x="457" y="-496.3" font-family="Times,serif" font-size="14.00"> a8</text>
</g>
<!-- Node0x176f11c0 -->
<g id="node2" class="node"><title>Node0x176f11c0</title>
<polygon fill="none" stroke="black" points="310,-382.5 310,-450.5 647,-450.5 647,-382.5 310,-382.5"/>
<text text-anchor="start" x="318" y="-435.3" font-family="Times,serif" font-size="14.00">v1 = g3</text>
<text text-anchor="start" x="318" y="-420.3" font-family="Times,serif" font-size="14.00"> g3 = a8</text>
<text text-anchor="start" x="318" y="-405.3" font-family="Times,serif" font-size="14.00"> v2 = *(IntToPtrCastExpr&lt;ptr&gt;((a1 + 168)))</text>
<text text-anchor="start" x="318" y="-390.3" font-family="Times,serif" font-size="14.00"> v3 = v2</text>
</g>
<!-- Node0xfdacf00&#45;&gt;Node0x176f11c0 -->
<g id="edge1" class="edge"><title>Node0xfdacf00&#45;&gt;Node0x176f11c0</title>
<path fill="none" stroke="black" d="M478.5,-488.25C478.5,-478.917 478.5,-469.584 478.5,-460.901"/>
<polygon fill="black" stroke="black" points="482,-460.675 478.5,-450.675 475,-460.675 482,-460.675"/>
</g>
<!-- Node0xffa6550 -->
<g id="node3" class="node"><title>Node0xffa6550</title>
<polygon fill="none" stroke="black" points="426,-308.5 426,-344.5 531,-344.5 531,-308.5 426,-308.5"/>
<text text-anchor="start" x="434" y="-322.8" font-family="Times,serif" font-size="14.00">if (v2 == 0):</text>
</g>
<!-- Node0x176f11c0&#45;&gt;Node0xffa6550 -->
<g id="edge2" class="edge"><title>Node0x176f11c0&#45;&gt;Node0xffa6550</title>
<path fill="none" stroke="black" d="M478.5,-382.482C478.5,-373.328 478.5,-363.497 478.5,-354.715"/>
<polygon fill="black" stroke="black" points="482,-354.64 478.5,-344.64 475,-354.64 482,-354.64"/>
</g>
<!-- Node0xb029bd0 -->
<g id="node4" class="node"><title>Node0xb029bd0</title>
<polygon fill="none" stroke="black" points="325,-218.5 325,-256.5 480,-256.5 480,-218.5 325,-218.5"/>
<text text-anchor="start" x="333" y="-241.3" font-family="Times,serif" font-size="14.00">if_80502a8_0_true:</text>
<text text-anchor="start" x="333" y="-226.3" font-family="Times,serif" font-size="14.00"> v3 = a5</text>
</g>
<!-- Node0xffa6550&#45;&gt;Node0xb029bd0 -->
<g id="edge3" class="edge"><title>Node0xffa6550&#45;&gt;Node0xb029bd0</title>
<path fill="none" stroke="black" d="M460.08,-308.254C454.289,-302.593 447.98,-296.168 442.5,-290 435.394,-282.002 428.084,-272.891 421.689,-264.579"/>
<polygon fill="black" stroke="black" points="424.471,-262.456 415.639,-256.604 418.894,-266.686 424.471,-262.456"/>
<text text-anchor="middle" x="472.5" y="-278.8" font-family="Times,serif" font-size="14.00">v2 == 0</text>
</g>
<!-- Node0x2ac36cb0 -->
<g id="node5" class="node"><title>Node0x2ac36cb0</title>
<polygon fill="none" stroke="black" points="0,-97.5 0,-180.5 963,-180.5 963,-97.5 0,-97.5"/>
<text text-anchor="start" x="8" y="-165.3" font-family="Times,serif" font-size="14.00">after_if_80502a8_0:</text>
<text text-anchor="start" x="8" y="-150.3" font-family="Times,serif" font-size="14.00"> g4 = a6</text>
<text text-anchor="start" x="8" y="-135.3" font-family="Times,serif" font-size="14.00"> result = mbedtls_rsa_rsassa_pss_verify_ext(IntToPtrCastExpr&lt;ptr&gt;(a1), IntToPtrCastExpr&lt;ptr&gt;(a2), a3, a4, a5, a6, a7, v3, &#45;1, a8)</text>
<text text-anchor="start" x="8" y="-120.3" font-family="Times,serif" font-size="14.00"> g3 = v1</text>
<text text-anchor="start" x="8" y="-105.3" font-family="Times,serif" font-size="14.00"> return result</text>
</g>
<!-- Node0xffa6550&#45;&gt;Node0x2ac36cb0 -->
<g id="edge4" class="edge"><title>Node0xffa6550&#45;&gt;Node0x2ac36cb0</title>
<path fill="none" stroke="black" d="M493.213,-308.153C496.991,-302.69 500.539,-296.402 502.5,-290 512.429,-257.585 507.031,-219.775 499.226,-190.225"/>
<polygon fill="black" stroke="black" points="502.579,-189.221 496.505,-180.541 495.84,-191.115 502.579,-189.221"/>
<text text-anchor="middle" x="535.5" y="-233.8" font-family="Times,serif" font-size="14.00">v2 != 0</text>
</g>
<!-- Node0xb029bd0&#45;&gt;Node0x2ac36cb0 -->
<g id="edge5" class="edge"><title>Node0xb029bd0&#45;&gt;Node0x2ac36cb0</title>
<path fill="none" stroke="black" d="M417.359,-218.349C424.269,-209.909 432.854,-199.422 441.472,-188.895"/>
<polygon fill="black" stroke="black" points="444.415,-190.825 448.042,-180.87 438.999,-186.391 444.415,-190.825"/>
</g>
<!-- Node0x182e3dc0 -->
<g id="node6" class="node"><title>Node0x182e3dc0</title>
<polygon fill="none" stroke="black" points="454.5,-23.5 454.5,-59.5 508.5,-59.5 508.5,-23.5 454.5,-23.5"/>
<text text-anchor="start" x="462.5" y="-37.8" font-family="Times,serif" font-size="14.00">exit:</text>
</g>
<!-- Node0x2ac36cb0&#45;&gt;Node0x182e3dc0 -->
<g id="edge6" class="edge"><title>Node0x2ac36cb0&#45;&gt;Node0x182e3dc0</title>
<path fill="none" stroke="black" d="M481.5,-97.4994C481.5,-88.2058 481.5,-78.537 481.5,-69.9459"/>
<polygon fill="black" stroke="black" points="485,-69.7494 481.5,-59.7494 478,-69.7494 485,-69.7494"/>
</g>
</g>
</svg>
