<?xml version="1.0" encoding="UTF-8" standalone="no"?>
<!DOCTYPE svg PUBLIC "-//W3C//DTD SVG 1.1//EN"
 "http://www.w3.org/Graphics/SVG/1.1/DTD/svg11.dtd">
<!-- Generated by graphviz version 2.38.0 (20140413.2041)
 -->
<!-- Title: Control&#45;flow graph for function &#39;blowfish_crypt_ctr_wrap(a1)&#39;. Pages: 1 -->
<svg width="589pt" height="263pt"
 viewBox="0.00 0.00 589.00 263.00" xmlns="http://www.w3.org/2000/svg" xmlns:xlink="http://www.w3.org/1999/xlink">
<g id="graph0" class="graph" transform="scale(1 1) rotate(0) translate(4 259)">
<title>Control&#45;flow graph for function &#39;blowfish_crypt_ctr_wrap(a1)&#39;.</title>
<polygon fill="white" stroke="none" points="-4,4 -4,-259 585,-259 585,4 -4,4"/>
<text text-anchor="middle" x="290.5" y="-7.8" font-family="Times,serif" font-size="14.00">Control&#45;flow graph for function &#39;blowfish_crypt_ctr_wrap(a1)&#39;.</text>
<!-- Node0x1d996ef0 -->
<g id="node1" class="node"><title>Node0x1d996ef0</title>
<polygon fill="none" stroke="black" points="261,-216.5 261,-254.5 320,-254.5 320,-216.5 261,-216.5"/>
<text text-anchor="start" x="269" y="-239.3" font-family="Times,serif" font-size="14.00">entry:</text>
<text text-anchor="start" x="269" y="-224.3" font-family="Times,serif" font-size="14.00"> a1</text>
</g>
<!-- Node0x26ff2090 -->
<g id="node2" class="node"><title>Node0x26ff2090</title>
<polygon fill="none" stroke="black" points="0,-96.5 0,-179.5 581,-179.5 581,-96.5 0,-96.5"/>
<text text-anchor="start" x="8" y="-164.3" font-family="Times,serif" font-size="14.00">0x806a860:</text>
<text text-anchor="start" x="8" y="-149.3" font-family="Times,serif" font-size="14.00"> v1</text>
<text text-anchor="start" x="8" y="-134.3" font-family="Times,serif" font-size="14.00"> result</text>
<text text-anchor="start" x="8" y="-119.3" font-family="Times,serif" font-size="14.00"> mbedtls_blowfish_crypt_ctr(result, v1, IntToPtrCastExpr&lt;ptr&gt;(a1), 0, 0, 0, 0)</text>
<text text-anchor="start" x="8" y="-104.3" font-family="Times,serif" font-size="14.00"> return result</text>
</g>
<!-- Node0x1d996ef0&#45;&gt;Node0x26ff2090 -->
<g id="edge1" class="edge"><title>Node0x1d996ef0&#45;&gt;Node0x26ff2090</title>
<path fill="none" stroke="black" d="M290.5,-216.087C290.5,-208.444 290.5,-199.165 290.5,-189.73"/>
<polygon fill="black" stroke="black" points="294,-189.501 290.5,-179.501 287,-189.501 294,-189.501"/>
</g>
<!-- Node0xb1c01b0 -->
<g id="node3" class="node"><title>Node0xb1c01b0</title>
<polygon fill="none" stroke="black" points="263.5,-23.5 263.5,-59.5 317.5,-59.5 317.5,-23.5 263.5,-23.5"/>
<text text-anchor="start" x="271.5" y="-37.8" font-family="Times,serif" font-size="14.00">exit:</text>
</g>
<!-- Node0x26ff2090&#45;&gt;Node0xb1c01b0 -->
<g id="edge2" class="edge"><title>Node0x26ff2090&#45;&gt;Node0xb1c01b0</title>
<path fill="none" stroke="black" d="M290.5,-96.3751C290.5,-87.4706 290.5,-78.246 290.5,-70"/>
<polygon fill="black" stroke="black" points="294,-69.8327 290.5,-59.8328 287,-69.8328 294,-69.8327"/>
</g>
</g>
</svg>
