<?xml version="1.0" encoding="UTF-8" standalone="no"?>
<!DOCTYPE svg PUBLIC "-//W3C//DTD SVG 1.1//EN"
 "http://www.w3.org/Graphics/SVG/1.1/DTD/svg11.dtd">
<!-- Generated by graphviz version 2.38.0 (20140413.2041)
 -->
<!-- Title: Control&#45;flow graph for function &#39;mbedtls_pk_decrypt(*a1, a2, a3, a4)&#39;. Pages: 1 -->
<svg width="832pt" height="847pt"
 viewBox="0.00 0.00 832.00 847.00" xmlns="http://www.w3.org/2000/svg" xmlns:xlink="http://www.w3.org/1999/xlink">
<g id="graph0" class="graph" transform="scale(1 1) rotate(0) translate(4 843)">
<title>Control&#45;flow graph for function &#39;mbedtls_pk_decrypt(*a1, a2, a3, a4)&#39;.</title>
<polygon fill="white" stroke="none" points="-4,4 -4,-843 828,-843 828,4 -4,4"/>
<text text-anchor="middle" x="412" y="-7.8" font-family="Times,serif" font-size="14.00">Control&#45;flow graph for function &#39;mbedtls_pk_decrypt(*a1, a2, a3, a4)&#39;.</text>
<!-- Node0x1d3379d0 -->
<g id="node1" class="node"><title>Node0x1d3379d0</title>
<polygon fill="none" stroke="black" points="89,-755.5 89,-838.5 148,-838.5 148,-755.5 89,-755.5"/>
<text text-anchor="start" x="97" y="-823.3" font-family="Times,serif" font-size="14.00">entry:</text>
<text text-anchor="start" x="97" y="-808.3" font-family="Times,serif" font-size="14.00"> a1</text>
<text text-anchor="start" x="97" y="-793.3" font-family="Times,serif" font-size="14.00"> a2</text>
<text text-anchor="start" x="97" y="-778.3" font-family="Times,serif" font-size="14.00"> a3</text>
<text text-anchor="start" x="97" y="-763.3" font-family="Times,serif" font-size="14.00"> a4</text>
</g>
<!-- Node0x1d338220 -->
<g id="node2" class="node"><title>Node0x1d338220</title>
<polygon fill="none" stroke="black" points="46.5,-679.5 46.5,-717.5 190.5,-717.5 190.5,-679.5 46.5,-679.5"/>
<text text-anchor="start" x="54.5" y="-702.3" font-family="Times,serif" font-size="14.00">0x804ced0:</text>
<text text-anchor="start" x="54.5" y="-687.3" font-family="Times,serif" font-size="14.00"> if (a1 == NULL):</text>
</g>
<!-- Node0x1d3379d0&#45;&gt;Node0x1d338220 -->
<g id="edge1" class="edge"><title>Node0x1d3379d0&#45;&gt;Node0x1d338220</title>
<path fill="none" stroke="black" d="M118.5,-755.355C118.5,-746.083 118.5,-736.427 118.5,-727.803"/>
<polygon fill="black" stroke="black" points="122,-727.538 118.5,-717.538 115,-727.538 122,-727.538"/>
</g>
<!-- Node0x1d338f20 -->
<g id="node3" class="node"><title>Node0x1d338f20</title>
<polygon fill="none" stroke="black" points="0,-534.5 0,-572.5 121,-572.5 121,-534.5 0,-534.5"/>
<text text-anchor="start" x="8" y="-557.3" font-family="Times,serif" font-size="14.00">0x804cefd:</text>
<text text-anchor="start" x="8" y="-542.3" font-family="Times,serif" font-size="14.00"> return &#45;16000</text>
</g>
<!-- Node0x1d338220&#45;&gt;Node0x1d338f20 -->
<g id="edge2" class="edge"><title>Node0x1d338220&#45;&gt;Node0x1d338f20</title>
<path fill="none" stroke="black" d="M75.1288,-679.383C68.0675,-674.474 61.7001,-668.408 57.5,-661 44.0324,-637.247 47.0944,-605.475 52.1008,-582.83"/>
<polygon fill="black" stroke="black" points="55.5716,-583.373 54.5678,-572.826 48.7752,-581.697 55.5716,-583.373"/>
<text text-anchor="middle" x="104.5" y="-649.8" font-family="Times,serif" font-size="14.00">a1 == NULL</text>
</g>
<!-- Node0x1d338460 -->
<g id="node4" class="node"><title>Node0x1d338460</title>
<polygon fill="none" stroke="black" points="132.5,-591.5 132.5,-627.5 222.5,-627.5 222.5,-591.5 132.5,-591.5"/>
<text text-anchor="start" x="140.5" y="-605.8" font-family="Times,serif" font-size="14.00">v1 = *(a1)</text>
</g>
<!-- Node0x1d338220&#45;&gt;Node0x1d338460 -->
<g id="edge3" class="edge"><title>Node0x1d338220&#45;&gt;Node0x1d338460</title>
<path fill="none" stroke="black" d="M139.584,-679.432C145.23,-673.905 151.007,-667.547 155.5,-661 160.502,-653.713 164.759,-645.105 168.158,-637.081"/>
<polygon fill="black" stroke="black" points="171.442,-638.295 171.871,-627.709 164.934,-635.717 171.442,-638.295"/>
<text text-anchor="middle" x="208.5" y="-649.8" font-family="Times,serif" font-size="14.00">a1 != NULL</text>
</g>
<!-- Node0x1d3381a0 -->
<g id="node5" class="node"><title>Node0x1d3381a0</title>
<polygon fill="none" stroke="black" points="118.5,-23.5 118.5,-59.5 172.5,-59.5 172.5,-23.5 118.5,-23.5"/>
<text text-anchor="start" x="126.5" y="-37.8" font-family="Times,serif" font-size="14.00">exit:</text>
</g>
<!-- Node0x1d338f20&#45;&gt;Node0x1d3381a0 -->
<g id="edge4" class="edge"><title>Node0x1d338f20&#45;&gt;Node0x1d3381a0</title>
<path fill="none" stroke="black" d="M60.5,-534.438C60.5,-514.774 60.5,-482.403 60.5,-454.5 60.5,-454.5 60.5,-454.5 60.5,-153 60.5,-117.338 88.658,-86.122 112.561,-66.0478"/>
<polygon fill="black" stroke="black" points="114.872,-68.6801 120.457,-59.6768 110.476,-63.2323 114.872,-68.6801"/>
</g>
<!-- Node0x1d338510 -->
<g id="node6" class="node"><title>Node0x1d338510</title>
<polygon fill="none" stroke="black" points="125,-479.5 125,-515.5 230,-515.5 230,-479.5 125,-479.5"/>
<text text-anchor="start" x="133" y="-493.8" font-family="Times,serif" font-size="14.00">if (v1 == 0):</text>
</g>
<!-- Node0x1d338460&#45;&gt;Node0x1d338510 -->
<g id="edge5" class="edge"><title>Node0x1d338460&#45;&gt;Node0x1d338510</title>
<path fill="none" stroke="black" d="M177.5,-591.312C177.5,-573.715 177.5,-546.107 177.5,-525.571"/>
<polygon fill="black" stroke="black" points="181,-525.567 177.5,-515.567 174,-525.567 181,-525.567"/>
</g>
<!-- Node0x1d338590 -->
<g id="node7" class="node"><title>Node0x1d338590</title>
<polygon fill="none" stroke="black" points="76,-317.5 76,-355.5 197,-355.5 197,-317.5 76,-317.5"/>
<text text-anchor="start" x="84" y="-340.3" font-family="Times,serif" font-size="14.00">0x804cefd:</text>
<text text-anchor="start" x="84" y="-325.3" font-family="Times,serif" font-size="14.00"> return &#45;16000</text>
</g>
<!-- Node0x1d338510&#45;&gt;Node0x1d338590 -->
<g id="edge6" class="edge"><title>Node0x1d338510&#45;&gt;Node0x1d338590</title>
<path fill="none" stroke="black" d="M171.487,-479.473C166.756,-465.701 160.2,-445.75 155.5,-428 150.004,-407.243 145.064,-383.472 141.6,-365.502"/>
<polygon fill="black" stroke="black" points="145.036,-364.834 139.738,-355.659 138.158,-366.135 145.036,-364.834"/>
<text text-anchor="middle" x="195.5" y="-449.8" font-family="Times,serif" font-size="14.00">v1 == 0</text>
</g>
<!-- Node0x1d3388d0 -->
<g id="node8" class="node"><title>Node0x1d3388d0</title>
<polygon fill="none" stroke="black" points="165,-374.5 165,-427.5 488,-427.5 488,-374.5 165,-374.5"/>
<text text-anchor="start" x="173" y="-412.3" font-family="Times,serif" font-size="14.00">v2 = *(IntToPtrCastExpr&lt;ptr&gt;((v1 + 24)))</text>
<text text-anchor="start" x="173" y="-397.3" font-family="Times,serif" font-size="14.00"> g4 = v2</text>
<text text-anchor="start" x="173" y="-382.3" font-family="Times,serif" font-size="14.00"> g237 = (v2 == 0)</text>
</g>
<!-- Node0x1d338510&#45;&gt;Node0x1d3388d0 -->
<g id="edge7" class="edge"><title>Node0x1d338510&#45;&gt;Node0x1d3388d0</title>
<path fill="none" stroke="black" d="M204.483,-479.387C224.799,-466.502 253.205,-448.486 277.498,-433.078"/>
<polygon fill="black" stroke="black" points="279.67,-435.846 286.24,-427.534 275.92,-429.934 279.67,-435.846"/>
<text text-anchor="middle" x="282.5" y="-449.8" font-family="Times,serif" font-size="14.00">v1 != 0</text>
</g>
<!-- Node0x1d338590&#45;&gt;Node0x1d3381a0 -->
<g id="edge8" class="edge"><title>Node0x1d338590&#45;&gt;Node0x1d3381a0</title>
<path fill="none" stroke="black" d="M135.483,-317.206C133.482,-277.192 129.782,-178.916 136.5,-97 137.236,-88.0305 138.641,-78.3134 140.127,-69.6021"/>
<polygon fill="black" stroke="black" points="143.602,-70.0565 141.939,-59.5929 136.714,-68.8094 143.602,-70.0565"/>
</g>
<!-- Node0x1d338930 -->
<g id="node9" class="node"><title>Node0x1d338930</title>
<polygon fill="none" stroke="black" points="274,-262.5 274,-298.5 379,-298.5 379,-262.5 274,-262.5"/>
<text text-anchor="start" x="282" y="-276.8" font-family="Times,serif" font-size="14.00">if (v2 == 0):</text>
</g>
<!-- Node0x1d3388d0&#45;&gt;Node0x1d338930 -->
<g id="edge9" class="edge"><title>Node0x1d3388d0&#45;&gt;Node0x1d338930</title>
<path fill="none" stroke="black" d="M326.5,-374.287C326.5,-354.989 326.5,-328.614 326.5,-308.916"/>
<polygon fill="black" stroke="black" points="330,-308.747 326.5,-298.747 323,-308.747 330,-308.747"/>
</g>
<!-- Node0x1d339130 -->
<g id="node10" class="node"><title>Node0x1d339130</title>
<polygon fill="none" stroke="black" points="146,-135 146,-173 267,-173 267,-135 146,-135"/>
<text text-anchor="start" x="154" y="-157.8" font-family="Times,serif" font-size="14.00">0x804cefd:</text>
<text text-anchor="start" x="154" y="-142.8" font-family="Times,serif" font-size="14.00"> return &#45;16128</text>
</g>
<!-- Node0x1d338930&#45;&gt;Node0x1d339130 -->
<g id="edge10" class="edge"><title>Node0x1d338930&#45;&gt;Node0x1d339130</title>
<path fill="none" stroke="black" d="M310.066,-262.45C289.678,-241.297 254.729,-205.037 231.131,-180.554"/>
<polygon fill="black" stroke="black" points="233.361,-177.825 223.901,-173.053 228.321,-182.682 233.361,-177.825"/>
<text text-anchor="middle" x="320.5" y="-232.8" font-family="Times,serif" font-size="14.00">v2 == 0</text>
</g>
<!-- Node0x1d336ae0 -->
<g id="node11" class="node"><title>Node0x1d336ae0</title>
<polygon fill="none" stroke="black" points="285,-97.5 285,-210.5 824,-210.5 824,-97.5 285,-97.5"/>
<text text-anchor="start" x="293" y="-195.3" font-family="Times,serif" font-size="14.00">result = *(IntToPtrCastExpr&lt;ptr&gt;((PtrToIntCastExpr&lt;int32&gt;(a1) + 4)))</text>
<text text-anchor="start" x="293" y="-180.3" font-family="Times,serif" font-size="14.00"> g1 = result</text>
<text text-anchor="start" x="293" y="-165.3" font-family="Times,serif" font-size="14.00"> g6 = v2</text>
<text text-anchor="start" x="293" y="-150.3" font-family="Times,serif" font-size="14.00"> v3</text>
<text text-anchor="start" x="293" y="-135.3" font-family="Times,serif" font-size="14.00"> g2 = v3</text>
<text text-anchor="start" x="293" y="-120.3" font-family="Times,serif" font-size="14.00"> IntToPtrCastExpr&lt;ptr&gt;(v2)(result)</text>
<text text-anchor="start" x="293" y="-105.3" font-family="Times,serif" font-size="14.00"> return result</text>
</g>
<!-- Node0x1d338930&#45;&gt;Node0x1d336ae0 -->
<g id="edge11" class="edge"><title>Node0x1d338930&#45;&gt;Node0x1d336ae0</title>
<path fill="none" stroke="black" d="M357.724,-262.45C380.299,-250.123 412.269,-232.666 443.891,-215.398"/>
<polygon fill="black" stroke="black" points="445.693,-218.402 452.792,-210.538 442.338,-212.258 445.693,-218.402"/>
<text text-anchor="middle" x="439.5" y="-232.8" font-family="Times,serif" font-size="14.00">v2 != 0</text>
</g>
<!-- Node0x1d339130&#45;&gt;Node0x1d3381a0 -->
<g id="edge12" class="edge"><title>Node0x1d339130&#45;&gt;Node0x1d3381a0</title>
<path fill="none" stroke="black" d="M196.427,-134.753C186.45,-116.68 171.075,-88.8287 159.828,-68.455"/>
<polygon fill="black" stroke="black" points="162.882,-66.7453 154.985,-59.6822 156.754,-70.1284 162.882,-66.7453"/>
</g>
<!-- Node0x1d336ae0&#45;&gt;Node0x1d3381a0 -->
<g id="edge13" class="edge"><title>Node0x1d336ae0&#45;&gt;Node0x1d3381a0</title>
<path fill="none" stroke="black" d="M348.802,-97.4263C284.89,-80.1591 221.134,-62.934 182.505,-52.4977"/>
<polygon fill="black" stroke="black" points="183.336,-49.0967 172.769,-49.8673 181.51,-55.8544 183.336,-49.0967"/>
</g>
</g>
</svg>
