<?xml version="1.0" encoding="UTF-8" standalone="no"?>
<!DOCTYPE svg PUBLIC "-//W3C//DTD SVG 1.1//EN"
 "http://www.w3.org/Graphics/SVG/1.1/DTD/svg11.dtd">
<!-- Generated by graphviz version 2.38.0 (20140413.2041)
 -->
<!-- Title: Control&#45;flow graph for function &#39;mbedtls_md_update(*a1, a2, a3)&#39;. Pages: 1 -->
<svg width="791pt" height="691pt"
 viewBox="0.00 0.00 790.50 691.00" xmlns="http://www.w3.org/2000/svg" xmlns:xlink="http://www.w3.org/1999/xlink">
<g id="graph0" class="graph" transform="scale(1 1) rotate(0) translate(4 687)">
<title>Control&#45;flow graph for function &#39;mbedtls_md_update(*a1, a2, a3)&#39;.</title>
<polygon fill="white" stroke="none" points="-4,4 -4,-687 786.5,-687 786.5,4 -4,4"/>
<text text-anchor="middle" x="391.25" y="-7.8" font-family="Times,serif" font-size="14.00">Control&#45;flow graph for function &#39;mbedtls_md_update(*a1, a2, a3)&#39;.</text>
<!-- Node0x1b6a0530 -->
<g id="node1" class="node"><title>Node0x1b6a0530</title>
<polygon fill="none" stroke="black" points="89,-614.5 89,-682.5 148,-682.5 148,-614.5 89,-614.5"/>
<text text-anchor="start" x="97" y="-667.3" font-family="Times,serif" font-size="14.00">entry:</text>
<text text-anchor="start" x="97" y="-652.3" font-family="Times,serif" font-size="14.00"> a1</text>
<text text-anchor="start" x="97" y="-637.3" font-family="Times,serif" font-size="14.00"> a2</text>
<text text-anchor="start" x="97" y="-622.3" font-family="Times,serif" font-size="14.00"> a3</text>
</g>
<!-- Node0x1b6a1750 -->
<g id="node2" class="node"><title>Node0x1b6a1750</title>
<polygon fill="none" stroke="black" points="68,-538.5 68,-576.5 169,-576.5 169,-538.5 68,-538.5"/>
<text text-anchor="start" x="76" y="-561.3" font-family="Times,serif" font-size="14.00">v1</text>
<text text-anchor="start" x="76" y="-546.3" font-family="Times,serif" font-size="14.00"> g2 = &amp;(v1)</text>
</g>
<!-- Node0x1b6a0530&#45;&gt;Node0x1b6a1750 -->
<g id="edge1" class="edge"><title>Node0x1b6a0530&#45;&gt;Node0x1b6a1750</title>
<path fill="none" stroke="black" d="M118.5,-614.36C118.5,-605.365 118.5,-595.707 118.5,-586.993"/>
<polygon fill="black" stroke="black" points="122,-586.941 118.5,-576.941 115,-586.941 122,-586.941"/>
</g>
<!-- Node0x1b6a1840 -->
<g id="node3" class="node"><title>Node0x1b6a1840</title>
<polygon fill="none" stroke="black" points="48.5,-464.5 48.5,-500.5 188.5,-500.5 188.5,-464.5 48.5,-464.5"/>
<text text-anchor="start" x="56.5" y="-478.8" font-family="Times,serif" font-size="14.00">if (a1 == NULL):</text>
</g>
<!-- Node0x1b6a1750&#45;&gt;Node0x1b6a1840 -->
<g id="edge2" class="edge"><title>Node0x1b6a1750&#45;&gt;Node0x1b6a1840</title>
<path fill="none" stroke="black" d="M118.5,-538.455C118.5,-530.201 118.5,-520.238 118.5,-511.074"/>
<polygon fill="black" stroke="black" points="122,-510.835 118.5,-500.835 115,-510.835 122,-510.835"/>
</g>
<!-- Node0x1b6a0e30 -->
<g id="node4" class="node"><title>Node0x1b6a0e30</title>
<polygon fill="none" stroke="black" points="0,-302.5 0,-340.5 121,-340.5 121,-302.5 0,-302.5"/>
<text text-anchor="start" x="8" y="-325.3" font-family="Times,serif" font-size="14.00">0x806226d:</text>
<text text-anchor="start" x="8" y="-310.3" font-family="Times,serif" font-size="14.00"> return &#45;20736</text>
</g>
<!-- Node0x1b6a1840&#45;&gt;Node0x1b6a0e30 -->
<g id="edge3" class="edge"><title>Node0x1b6a1840&#45;&gt;Node0x1b6a0e30</title>
<path fill="none" stroke="black" d="M75.7681,-464.493C68.4602,-459.631 61.8368,-453.542 57.5,-446 40.6992,-416.784 45.6545,-376.902 51.9871,-350.456"/>
<polygon fill="black" stroke="black" points="55.3967,-351.251 54.534,-340.692 48.6234,-349.485 55.3967,-351.251"/>
<text text-anchor="middle" x="104.5" y="-434.8" font-family="Times,serif" font-size="14.00">a1 == NULL</text>
</g>
<!-- Node0x1b6a1a10 -->
<g id="node5" class="node"><title>Node0x1b6a1a10</title>
<polygon fill="none" stroke="black" points="103.5,-359.5 103.5,-412.5 251.5,-412.5 251.5,-359.5 103.5,-359.5"/>
<text text-anchor="start" x="111.5" y="-397.3" font-family="Times,serif" font-size="14.00">v2 = *(a1)</text>
<text text-anchor="start" x="111.5" y="-382.3" font-family="Times,serif" font-size="14.00"> g6 = v2</text>
<text text-anchor="start" x="111.5" y="-367.3" font-family="Times,serif" font-size="14.00"> g237 = (v2 == 0)</text>
</g>
<!-- Node0x1b6a1840&#45;&gt;Node0x1b6a1a10 -->
<g id="edge4" class="edge"><title>Node0x1b6a1840&#45;&gt;Node0x1b6a1a10</title>
<path fill="none" stroke="black" d="M139.83,-464.158C145.48,-458.787 151.197,-452.546 155.5,-446 160.291,-438.712 164.232,-430.236 167.388,-422.021"/>
<polygon fill="black" stroke="black" points="170.691,-423.178 170.736,-412.583 164.094,-420.837 170.691,-423.178"/>
<text text-anchor="middle" x="207.5" y="-434.8" font-family="Times,serif" font-size="14.00">a1 != NULL</text>
</g>
<!-- Node0x1b6a16d0 -->
<g id="node6" class="node"><title>Node0x1b6a16d0</title>
<polygon fill="none" stroke="black" points="122.5,-23.5 122.5,-59.5 176.5,-59.5 176.5,-23.5 122.5,-23.5"/>
<text text-anchor="start" x="130.5" y="-37.8" font-family="Times,serif" font-size="14.00">exit:</text>
</g>
<!-- Node0x1b6a0e30&#45;&gt;Node0x1b6a16d0 -->
<g id="edge5" class="edge"><title>Node0x1b6a0e30&#45;&gt;Node0x1b6a16d0</title>
<path fill="none" stroke="black" d="M57.4107,-302.325C51.5643,-262.387 42.549,-165.118 79.5,-97 87.3316,-82.5628 100.785,-70.6964 113.818,-61.7644"/>
<polygon fill="black" stroke="black" points="115.752,-64.6822 122.259,-56.3209 111.958,-58.7995 115.752,-64.6822"/>
</g>
<!-- Node0x1b6a1b50 -->
<g id="node7" class="node"><title>Node0x1b6a1b50</title>
<polygon fill="none" stroke="black" points="125,-247.5 125,-283.5 230,-283.5 230,-247.5 125,-247.5"/>
<text text-anchor="start" x="133" y="-261.8" font-family="Times,serif" font-size="14.00">if (v2 == 0):</text>
</g>
<!-- Node0x1b6a1a10&#45;&gt;Node0x1b6a1b50 -->
<g id="edge6" class="edge"><title>Node0x1b6a1a10&#45;&gt;Node0x1b6a1b50</title>
<path fill="none" stroke="black" d="M177.5,-359.287C177.5,-339.989 177.5,-313.614 177.5,-293.916"/>
<polygon fill="black" stroke="black" points="181,-293.747 177.5,-283.747 174,-293.747 181,-293.747"/>
</g>
<!-- Node0x1b6a21e0 -->
<g id="node8" class="node"><title>Node0x1b6a21e0</title>
<polygon fill="none" stroke="black" points="89,-127.5 89,-165.5 210,-165.5 210,-127.5 89,-127.5"/>
<text text-anchor="start" x="97" y="-150.3" font-family="Times,serif" font-size="14.00">0x806226d:</text>
<text text-anchor="start" x="97" y="-135.3" font-family="Times,serif" font-size="14.00"> return &#45;20736</text>
</g>
<!-- Node0x1b6a1b50&#45;&gt;Node0x1b6a21e0 -->
<g id="edge7" class="edge"><title>Node0x1b6a1b50&#45;&gt;Node0x1b6a21e0</title>
<path fill="none" stroke="black" d="M173.429,-247.487C168.924,-228.666 161.595,-198.04 156.233,-175.636"/>
<polygon fill="black" stroke="black" points="159.584,-174.6 153.853,-165.689 152.777,-176.229 159.584,-174.6"/>
<text text-anchor="middle" x="198.5" y="-217.8" font-family="Times,serif" font-size="14.00">v2 == 0</text>
</g>
<!-- Node0x1b6a1c70 -->
<g id="node9" class="node"><title>Node0x1b6a1c70</title>
<polygon fill="none" stroke="black" points="228.5,-97.5 228.5,-195.5 782.5,-195.5 782.5,-97.5 228.5,-97.5"/>
<text text-anchor="start" x="236.5" y="-180.3" font-family="Times,serif" font-size="14.00">0x806227e:</text>
<text text-anchor="start" x="236.5" y="-165.3" font-family="Times,serif" font-size="14.00"> g4 = a2</text>
<text text-anchor="start" x="236.5" y="-150.3" font-family="Times,serif" font-size="14.00"> v3 = *(IntToPtrCastExpr&lt;ptr&gt;((PtrToIntCastExpr&lt;int32&gt;(a1) + 4)))</text>
<text text-anchor="start" x="236.5" y="-135.3" font-family="Times,serif" font-size="14.00"> g1 = v3</text>
<text text-anchor="start" x="236.5" y="-120.3" font-family="Times,serif" font-size="14.00"> IntToPtrCastExpr&lt;ptr&gt;(*(IntToPtrCastExpr&lt;ptr&gt;((v2 + 20))))(v3, a2, a3)</text>
<text text-anchor="start" x="236.5" y="-105.3" font-family="Times,serif" font-size="14.00"> return 0</text>
</g>
<!-- Node0x1b6a1b50&#45;&gt;Node0x1b6a1c70 -->
<g id="edge8" class="edge"><title>Node0x1b6a1b50&#45;&gt;Node0x1b6a1c70</title>
<path fill="none" stroke="black" d="M225.194,-247.487C261.165,-234.656 312.515,-216.339 361.459,-198.88"/>
<polygon fill="black" stroke="black" points="362.644,-202.174 370.887,-195.517 360.293,-195.581 362.644,-202.174"/>
<text text-anchor="middle" x="338.5" y="-217.8" font-family="Times,serif" font-size="14.00">v2 != 0</text>
</g>
<!-- Node0x1b6a21e0&#45;&gt;Node0x1b6a16d0 -->
<g id="edge9" class="edge"><title>Node0x1b6a21e0&#45;&gt;Node0x1b6a16d0</title>
<path fill="none" stroke="black" d="M149.5,-127.086C149.5,-111.198 149.5,-88.0248 149.5,-69.9492"/>
<polygon fill="black" stroke="black" points="153,-69.7272 149.5,-59.7272 146,-69.7272 153,-69.7272"/>
</g>
<!-- Node0x1b6a1c70&#45;&gt;Node0x1b6a16d0 -->
<g id="edge10" class="edge"><title>Node0x1b6a1c70&#45;&gt;Node0x1b6a16d0</title>
<path fill="none" stroke="black" d="M339.486,-97.4679C282.157,-80.881 223.161,-63.8121 186.433,-53.1857"/>
<polygon fill="black" stroke="black" points="187.263,-49.7823 176.684,-50.365 185.317,-56.5065 187.263,-49.7823"/>
</g>
</g>
</svg>
