<?xml version="1.0" encoding="UTF-8" standalone="no"?>
<!DOCTYPE svg PUBLIC "-//W3C//DTD SVG 1.1//EN"
 "http://www.w3.org/Graphics/SVG/1.1/DTD/svg11.dtd">
<!-- Generated by graphviz version 2.38.0 (20140413.2041)
 -->
<!-- Title: Control&#45;flow graph for function &#39;gcm_camellia_setkey_wrap(a1, a2, a3)&#39;. Pages: 1 -->
<svg width="541pt" height="293pt"
 viewBox="0.00 0.00 541.00 293.00" xmlns="http://www.w3.org/2000/svg" xmlns:xlink="http://www.w3.org/1999/xlink">
<g id="graph0" class="graph" transform="scale(1 1) rotate(0) translate(4 289)">
<title>Control&#45;flow graph for function &#39;gcm_camellia_setkey_wrap(a1, a2, a3)&#39;.</title>
<polygon fill="white" stroke="none" points="-4,4 -4,-289 537,-289 537,4 -4,4"/>
<text text-anchor="middle" x="266.5" y="-7.8" font-family="Times,serif" font-size="14.00">Control&#45;flow graph for function &#39;gcm_camellia_setkey_wrap(a1, a2, a3)&#39;.</text>
<!-- Node0x1d0c09c0 -->
<g id="node1" class="node"><title>Node0x1d0c09c0</title>
<polygon fill="none" stroke="black" points="237,-216.5 237,-284.5 296,-284.5 296,-216.5 237,-216.5"/>
<text text-anchor="start" x="245" y="-269.3" font-family="Times,serif" font-size="14.00">entry:</text>
<text text-anchor="start" x="245" y="-254.3" font-family="Times,serif" font-size="14.00"> a1</text>
<text text-anchor="start" x="245" y="-239.3" font-family="Times,serif" font-size="14.00"> a2</text>
<text text-anchor="start" x="245" y="-224.3" font-family="Times,serif" font-size="14.00"> a3</text>
</g>
<!-- Node0xd9fec10 -->
<g id="node2" class="node"><title>Node0xd9fec10</title>
<polygon fill="none" stroke="black" points="102,-96.5 102,-179.5 431,-179.5 431,-96.5 102,-96.5"/>
<text text-anchor="start" x="110" y="-164.3" font-family="Times,serif" font-size="14.00">result = mbedtls_gcm_setkey(a1, 5, a2, a3)</text>
<text text-anchor="start" x="110" y="-149.3" font-family="Times,serif" font-size="14.00"> g1 = result</text>
<text text-anchor="start" x="110" y="-134.3" font-family="Times,serif" font-size="14.00"> v1</text>
<text text-anchor="start" x="110" y="-119.3" font-family="Times,serif" font-size="14.00"> g2 = v1</text>
<text text-anchor="start" x="110" y="-104.3" font-family="Times,serif" font-size="14.00"> return result</text>
</g>
<!-- Node0x1d0c09c0&#45;&gt;Node0xd9fec10 -->
<g id="edge1" class="edge"><title>Node0x1d0c09c0&#45;&gt;Node0xd9fec10</title>
<path fill="none" stroke="black" d="M266.5,-216.346C266.5,-207.94 266.5,-198.717 266.5,-189.659"/>
<polygon fill="black" stroke="black" points="270,-189.555 266.5,-179.555 263,-189.555 270,-189.555"/>
</g>
<!-- Node0x893b9c0 -->
<g id="node3" class="node"><title>Node0x893b9c0</title>
<polygon fill="none" stroke="black" points="239.5,-23.5 239.5,-59.5 293.5,-59.5 293.5,-23.5 239.5,-23.5"/>
<text text-anchor="start" x="247.5" y="-37.8" font-family="Times,serif" font-size="14.00">exit:</text>
</g>
<!-- Node0xd9fec10&#45;&gt;Node0x893b9c0 -->
<g id="edge2" class="edge"><title>Node0xd9fec10&#45;&gt;Node0x893b9c0</title>
<path fill="none" stroke="black" d="M266.5,-96.3751C266.5,-87.4706 266.5,-78.246 266.5,-70"/>
<polygon fill="black" stroke="black" points="270,-69.8327 266.5,-59.8328 263,-69.8328 270,-69.8327"/>
</g>
</g>
</svg>
