<?xml version="1.0" encoding="UTF-8" standalone="no"?>
<!DOCTYPE svg PUBLIC "-//W3C//DTD SVG 1.1//EN"
 "http://www.w3.org/Graphics/SVG/1.1/DTD/svg11.dtd">
<!-- Generated by graphviz version 2.38.0 (20140413.2041)
 -->
<!-- Title: Control&#45;flow graph for function &#39;ripemd160_update_wrap(a1)&#39;. Pages: 1 -->
<svg width="740pt" height="278pt"
 viewBox="0.00 0.00 740.00 278.00" xmlns="http://www.w3.org/2000/svg" xmlns:xlink="http://www.w3.org/1999/xlink">
<g id="graph0" class="graph" transform="scale(1 1) rotate(0) translate(4 274)">
<title>Control&#45;flow graph for function &#39;ripemd160_update_wrap(a1)&#39;.</title>
<polygon fill="white" stroke="none" points="-4,4 -4,-274 736,-274 736,4 -4,4"/>
<text text-anchor="middle" x="366" y="-7.8" font-family="Times,serif" font-size="14.00">Control&#45;flow graph for function &#39;ripemd160_update_wrap(a1)&#39;.</text>
<!-- Node0x15ae93c0 -->
<g id="node1" class="node"><title>Node0x15ae93c0</title>
<polygon fill="none" stroke="black" points="336.5,-231.5 336.5,-269.5 395.5,-269.5 395.5,-231.5 336.5,-231.5"/>
<text text-anchor="start" x="344.5" y="-254.3" font-family="Times,serif" font-size="14.00">entry:</text>
<text text-anchor="start" x="344.5" y="-239.3" font-family="Times,serif" font-size="14.00"> a1</text>
</g>
<!-- Node0xf7b2990 -->
<g id="node2" class="node"><title>Node0xf7b2990</title>
<polygon fill="none" stroke="black" points="0,-96.5 0,-194.5 732,-194.5 732,-96.5 0,-96.5"/>
<text text-anchor="start" x="8" y="-179.3" font-family="Times,serif" font-size="14.00">0x8062e20:</text>
<text text-anchor="start" x="8" y="-164.3" font-family="Times,serif" font-size="14.00"> v1</text>
<text text-anchor="start" x="8" y="-149.3" font-family="Times,serif" font-size="14.00"> v2</text>
<text text-anchor="start" x="8" y="-134.3" font-family="Times,serif" font-size="14.00"> result = mbedtls_ripemd160_update(IntToPtrCastExpr&lt;ptr&gt;(v2), IntToPtrCastExpr&lt;ptr&gt;(v1), a1)</text>
<text text-anchor="start" x="8" y="-119.3" font-family="Times,serif" font-size="14.00"> g1 = result</text>
<text text-anchor="start" x="8" y="-104.3" font-family="Times,serif" font-size="14.00"> return result</text>
</g>
<!-- Node0x15ae93c0&#45;&gt;Node0xf7b2990 -->
<g id="edge1" class="edge"><title>Node0x15ae93c0&#45;&gt;Node0xf7b2990</title>
<path fill="none" stroke="black" d="M366,-231.086C366,-223.607 366,-214.513 366,-205.097"/>
<polygon fill="black" stroke="black" points="369.5,-204.814 366,-194.814 362.5,-204.815 369.5,-204.814"/>
</g>
<!-- Node0x15ae7790 -->
<g id="node3" class="node"><title>Node0x15ae7790</title>
<polygon fill="none" stroke="black" points="339,-23.5 339,-59.5 393,-59.5 393,-23.5 339,-23.5"/>
<text text-anchor="start" x="347" y="-37.8" font-family="Times,serif" font-size="14.00">exit:</text>
</g>
<!-- Node0xf7b2990&#45;&gt;Node0x15ae7790 -->
<g id="edge2" class="edge"><title>Node0xf7b2990&#45;&gt;Node0x15ae7790</title>
<path fill="none" stroke="black" d="M366,-96.4868C366,-87.2893 366,-77.9618 366,-69.7064"/>
<polygon fill="black" stroke="black" points="369.5,-69.5725 366,-59.5725 362.5,-69.5725 369.5,-69.5725"/>
</g>
</g>
</svg>
