<?xml version="1.0" encoding="UTF-8" standalone="no"?>
<!DOCTYPE svg PUBLIC "-//W3C//DTD SVG 1.1//EN"
 "http://www.w3.org/Graphics/SVG/1.1/DTD/svg11.dtd">
<!-- Generated by graphviz version 2.38.0 (20140413.2041)
 -->
<!-- Title: Control&#45;flow graph for function &#39;des_crypt_ecb_wrap(a1, a2, a3, a4)&#39;. Pages: 1 -->
<svg width="646pt" height="323pt"
 viewBox="0.00 0.00 646.00 323.00" xmlns="http://www.w3.org/2000/svg" xmlns:xlink="http://www.w3.org/1999/xlink">
<g id="graph0" class="graph" transform="scale(1 1) rotate(0) translate(4 319)">
<title>Control&#45;flow graph for function &#39;des_crypt_ecb_wrap(a1, a2, a3, a4)&#39;.</title>
<polygon fill="white" stroke="none" points="-4,4 -4,-319 642,-319 642,4 -4,4"/>
<text text-anchor="middle" x="319" y="-7.8" font-family="Times,serif" font-size="14.00">Control&#45;flow graph for function &#39;des_crypt_ecb_wrap(a1, a2, a3, a4)&#39;.</text>
<!-- Node0xde75960 -->
<g id="node1" class="node"><title>Node0xde75960</title>
<polygon fill="none" stroke="black" points="289.5,-231.5 289.5,-314.5 348.5,-314.5 348.5,-231.5 289.5,-231.5"/>
<text text-anchor="start" x="297.5" y="-299.3" font-family="Times,serif" font-size="14.00">entry:</text>
<text text-anchor="start" x="297.5" y="-284.3" font-family="Times,serif" font-size="14.00"> a1</text>
<text text-anchor="start" x="297.5" y="-269.3" font-family="Times,serif" font-size="14.00"> a2</text>
<text text-anchor="start" x="297.5" y="-254.3" font-family="Times,serif" font-size="14.00"> a3</text>
<text text-anchor="start" x="297.5" y="-239.3" font-family="Times,serif" font-size="14.00"> a4</text>
</g>
<!-- Node0xb4cdfd0 -->
<g id="node2" class="node"><title>Node0xb4cdfd0</title>
<polygon fill="none" stroke="black" points="0,-96.5 0,-194.5 638,-194.5 638,-96.5 0,-96.5"/>
<text text-anchor="start" x="8" y="-179.3" font-family="Times,serif" font-size="14.00">0x806a650:</text>
<text text-anchor="start" x="8" y="-164.3" font-family="Times,serif" font-size="14.00"> v1</text>
<text text-anchor="start" x="8" y="-149.3" font-family="Times,serif" font-size="14.00"> v2</text>
<text text-anchor="start" x="8" y="-134.3" font-family="Times,serif" font-size="14.00"> mbedtls_des_crypt_ecb(v2, IntToPtrCastExpr&lt;ptr&gt;(v1), IntToPtrCastExpr&lt;ptr&gt;(a1))</text>
<text text-anchor="start" x="8" y="-119.3" font-family="Times,serif" font-size="14.00"> g1 = 0</text>
<text text-anchor="start" x="8" y="-104.3" font-family="Times,serif" font-size="14.00"> return 0</text>
</g>
<!-- Node0xde75960&#45;&gt;Node0xb4cdfd0 -->
<g id="edge1" class="edge"><title>Node0xde75960&#45;&gt;Node0xb4cdfd0</title>
<path fill="none" stroke="black" d="M319,-231.254C319,-222.92 319,-213.993 319,-205.175"/>
<polygon fill="black" stroke="black" points="322.5,-204.914 319,-194.914 315.5,-204.914 322.5,-204.914"/>
</g>
<!-- Node0x26ff46f0 -->
<g id="node3" class="node"><title>Node0x26ff46f0</title>
<polygon fill="none" stroke="black" points="292,-23.5 292,-59.5 346,-59.5 346,-23.5 292,-23.5"/>
<text text-anchor="start" x="300" y="-37.8" font-family="Times,serif" font-size="14.00">exit:</text>
</g>
<!-- Node0xb4cdfd0&#45;&gt;Node0x26ff46f0 -->
<g id="edge2" class="edge"><title>Node0xb4cdfd0&#45;&gt;Node0x26ff46f0</title>
<path fill="none" stroke="black" d="M319,-96.4868C319,-87.2893 319,-77.9618 319,-69.7064"/>
<polygon fill="black" stroke="black" points="322.5,-69.5725 319,-59.5725 315.5,-69.5725 322.5,-69.5725"/>
</g>
</g>
</svg>
