<?xml version="1.0" encoding="UTF-8" standalone="no"?>
<!DOCTYPE svg PUBLIC "-//W3C//DTD SVG 1.1//EN"
 "http://www.w3.org/Graphics/SVG/1.1/DTD/svg11.dtd">
<!-- Generated by graphviz version 2.38.0 (20140413.2041)
 -->
<!-- Title: Control&#45;flow graph for function &#39;mbedtls_sha1_starts(*a1)&#39;. Pages: 1 -->
<svg width="448pt" height="323pt"
 viewBox="0.00 0.00 448.00 323.00" xmlns="http://www.w3.org/2000/svg" xmlns:xlink="http://www.w3.org/1999/xlink">
<g id="graph0" class="graph" transform="scale(1 1) rotate(0) translate(4 319)">
<title>Control&#45;flow graph for function &#39;mbedtls_sha1_starts(*a1)&#39;.</title>
<polygon fill="white" stroke="none" points="-4,4 -4,-319 444,-319 444,4 -4,4"/>
<text text-anchor="middle" x="220" y="-7.8" font-family="Times,serif" font-size="14.00">Control&#45;flow graph for function &#39;mbedtls_sha1_starts(*a1)&#39;.</text>
<!-- Node0x16f5f440 -->
<g id="node1" class="node"><title>Node0x16f5f440</title>
<polygon fill="none" stroke="black" points="190.5,-276.5 190.5,-314.5 249.5,-314.5 249.5,-276.5 190.5,-276.5"/>
<text text-anchor="start" x="198.5" y="-299.3" font-family="Times,serif" font-size="14.00">entry:</text>
<text text-anchor="start" x="198.5" y="-284.3" font-family="Times,serif" font-size="14.00"> a1</text>
</g>
<!-- Node0x27e3d850 -->
<g id="node2" class="node"><title>Node0x27e3d850</title>
<polygon fill="none" stroke="black" points="17,-96.5 17,-239.5 423,-239.5 423,-96.5 17,-96.5"/>
<text text-anchor="start" x="25" y="-224.3" font-family="Times,serif" font-size="14.00">0x8052170:</text>
<text text-anchor="start" x="25" y="-209.3" font-family="Times,serif" font-size="14.00"> g1 = PtrToIntCastExpr&lt;int32&gt;(a1)</text>
<text text-anchor="start" x="25" y="-194.3" font-family="Times,serif" font-size="14.00"> *(a1) = 0</text>
<text text-anchor="start" x="25" y="-179.3" font-family="Times,serif" font-size="14.00"> *(IntToPtrCastExpr&lt;ptr&gt;((g1 + 4))) = 0</text>
<text text-anchor="start" x="25" y="-164.3" font-family="Times,serif" font-size="14.00"> *(IntToPtrCastExpr&lt;ptr&gt;((g1 + 8))) = 1732584193</text>
<text text-anchor="start" x="25" y="-149.3" font-family="Times,serif" font-size="14.00"> *(IntToPtrCastExpr&lt;ptr&gt;((g1 + 12))) = &#45;271733879</text>
<text text-anchor="start" x="25" y="-134.3" font-family="Times,serif" font-size="14.00"> *(IntToPtrCastExpr&lt;ptr&gt;((g1 + 16))) = &#45;1732584194</text>
<text text-anchor="start" x="25" y="-119.3" font-family="Times,serif" font-size="14.00"> *(IntToPtrCastExpr&lt;ptr&gt;((g1 + 20))) = 271733878</text>
<text text-anchor="start" x="25" y="-104.3" font-family="Times,serif" font-size="14.00"> *(IntToPtrCastExpr&lt;ptr&gt;((g1 + 24))) = &#45;1009589776</text>
</g>
<!-- Node0x16f5f440&#45;&gt;Node0x27e3d850 -->
<g id="edge1" class="edge"><title>Node0x16f5f440&#45;&gt;Node0x27e3d850</title>
<path fill="none" stroke="black" d="M220,-276.251C220,-268.756 220,-259.516 220,-249.63"/>
<polygon fill="black" stroke="black" points="223.5,-249.569 220,-239.569 216.5,-249.569 223.5,-249.569"/>
</g>
<!-- Node0x27e3d7d0 -->
<g id="node3" class="node"><title>Node0x27e3d7d0</title>
<polygon fill="none" stroke="black" points="193,-23.5 193,-59.5 247,-59.5 247,-23.5 193,-23.5"/>
<text text-anchor="start" x="201" y="-37.8" font-family="Times,serif" font-size="14.00">exit:</text>
</g>
<!-- Node0x27e3d850&#45;&gt;Node0x27e3d7d0 -->
<g id="edge2" class="edge"><title>Node0x27e3d850&#45;&gt;Node0x27e3d7d0</title>
<path fill="none" stroke="black" d="M220,-96.3834C220,-87.0259 220,-77.9253 220,-69.9482"/>
<polygon fill="black" stroke="black" points="223.5,-69.848 220,-59.848 216.5,-69.8481 223.5,-69.848"/>
</g>
</g>
</svg>
