<?xml version="1.0" encoding="UTF-8" standalone="no"?>
<!DOCTYPE svg PUBLIC "-//W3C//DTD SVG 1.1//EN"
 "http://www.w3.org/Graphics/SVG/1.1/DTD/svg11.dtd">
<!-- Generated by graphviz version 2.38.0 (20140413.2041)
 -->
<!-- Title: Control&#45;flow graph for function &#39;mbedtls_ecdsa_genkey(a1, a2, a3, a4)&#39;. Pages: 1 -->
<svg width="983pt" height="685pt"
 viewBox="0.00 0.00 982.50 685.00" xmlns="http://www.w3.org/2000/svg" xmlns:xlink="http://www.w3.org/1999/xlink">
<g id="graph0" class="graph" transform="scale(1 1) rotate(0) translate(4 681)">
<title>Control&#45;flow graph for function &#39;mbedtls_ecdsa_genkey(a1, a2, a3, a4)&#39;.</title>
<polygon fill="white" stroke="none" points="-4,4 -4,-681 978.5,-681 978.5,4 -4,4"/>
<text text-anchor="middle" x="487.25" y="-7.8" font-family="Times,serif" font-size="14.00">Control&#45;flow graph for function &#39;mbedtls_ecdsa_genkey(a1, a2, a3, a4)&#39;.</text>
<!-- Node0xdad6f10 -->
<g id="node1" class="node"><title>Node0xdad6f10</title>
<polygon fill="none" stroke="black" points="632,-593.5 632,-676.5 691,-676.5 691,-593.5 632,-593.5"/>
<text text-anchor="start" x="640" y="-661.3" font-family="Times,serif" font-size="14.00">entry:</text>
<text text-anchor="start" x="640" y="-646.3" font-family="Times,serif" font-size="14.00"> a1</text>
<text text-anchor="start" x="640" y="-631.3" font-family="Times,serif" font-size="14.00"> a2</text>
<text text-anchor="start" x="640" y="-616.3" font-family="Times,serif" font-size="14.00"> a3</text>
<text text-anchor="start" x="640" y="-601.3" font-family="Times,serif" font-size="14.00"> a4</text>
</g>
<!-- Node0xeb4b270 -->
<g id="node2" class="node"><title>Node0xeb4b270</title>
<polygon fill="none" stroke="black" points="348.5,-412.5 348.5,-555.5 974.5,-555.5 974.5,-412.5 348.5,-412.5"/>
<text text-anchor="start" x="356.5" y="-540.3" font-family="Times,serif" font-size="14.00">v1 = g3</text>
<text text-anchor="start" x="356.5" y="-525.3" font-family="Times,serif" font-size="14.00"> g3 = a1</text>
<text text-anchor="start" x="356.5" y="-510.3" font-family="Times,serif" font-size="14.00"> g1 = a2</text>
<text text-anchor="start" x="356.5" y="-495.3" font-family="Times,serif" font-size="14.00"> v2</text>
<text text-anchor="start" x="356.5" y="-480.3" font-family="Times,serif" font-size="14.00"> v3</text>
<text text-anchor="start" x="356.5" y="-465.3" font-family="Times,serif" font-size="14.00"> v4</text>
<text text-anchor="start" x="356.5" y="-450.3" font-family="Times,serif" font-size="14.00"> v5 = mbedtls_ecp_group_load(IntToPtrCastExpr&lt;ptr&gt;(a1), a2, v4, v3, v2, 0, 0, 0, 0)</text>
<text text-anchor="start" x="356.5" y="-435.3" font-family="Times,serif" font-size="14.00"> g1 = 1</text>
<text text-anchor="start" x="356.5" y="-420.3" font-family="Times,serif" font-size="14.00"> result = 1</text>
</g>
<!-- Node0xdad6f10&#45;&gt;Node0xeb4b270 -->
<g id="edge1" class="edge"><title>Node0xdad6f10&#45;&gt;Node0xeb4b270</title>
<path fill="none" stroke="black" d="M661.5,-593.285C661.5,-584.743 661.5,-575.448 661.5,-566.014"/>
<polygon fill="black" stroke="black" points="665,-565.75 661.5,-555.75 658,-565.75 665,-565.75"/>
</g>
<!-- Node0x7ff63f0 -->
<g id="node3" class="node"><title>Node0x7ff63f0</title>
<polygon fill="none" stroke="black" points="609,-338.5 609,-374.5 714,-374.5 714,-338.5 609,-338.5"/>
<text text-anchor="start" x="617" y="-352.8" font-family="Times,serif" font-size="14.00">if (v5 == 0):</text>
</g>
<!-- Node0xeb4b270&#45;&gt;Node0x7ff63f0 -->
<g id="edge2" class="edge"><title>Node0xeb4b270&#45;&gt;Node0x7ff63f0</title>
<path fill="none" stroke="black" d="M661.5,-412.181C661.5,-402.439 661.5,-392.961 661.5,-384.707"/>
<polygon fill="black" stroke="black" points="665,-384.642 661.5,-374.642 658,-384.642 665,-384.642"/>
</g>
<!-- Node0x7ff72c0 -->
<g id="node4" class="node"><title>Node0x7ff72c0</title>
<polygon fill="none" stroke="black" points="0,-218.5 0,-286.5 725,-286.5 725,-218.5 0,-218.5"/>
<text text-anchor="start" x="8" y="-271.3" font-family="Times,serif" font-size="14.00">v6 = g3</text>
<text text-anchor="start" x="8" y="-256.3" font-family="Times,serif" font-size="14.00"> v7 = (mbedtls_ecp_gen_keypair(v6, (v6 + 124), (v6 + 136), IntToPtrCastExpr&lt;ptr&gt;(a3), a4) != 0)</text>
<text text-anchor="start" x="8" y="-241.3" font-family="Times,serif" font-size="14.00"> g1 = v7</text>
<text text-anchor="start" x="8" y="-226.3" font-family="Times,serif" font-size="14.00"> result = v7</text>
</g>
<!-- Node0x7ff63f0&#45;&gt;Node0x7ff72c0 -->
<g id="edge3" class="edge"><title>Node0x7ff63f0&#45;&gt;Node0x7ff72c0</title>
<path fill="none" stroke="black" d="M611.454,-338.427C572.646,-325.189 517.474,-306.368 468.928,-289.807"/>
<polygon fill="black" stroke="black" points="469.908,-286.443 459.314,-286.527 467.648,-293.068 469.908,-286.443"/>
<text text-anchor="middle" x="586.5" y="-308.8" font-family="Times,serif" font-size="14.00">v5 == 0</text>
</g>
<!-- Node0xecb9710 -->
<g id="node5" class="node"><title>Node0xecb9710</title>
<polygon fill="none" stroke="black" points="599,-97.5 599,-180.5 712,-180.5 712,-97.5 599,-97.5"/>
<text text-anchor="start" x="607" y="-165.3" font-family="Times,serif" font-size="14.00">0x805b143:</text>
<text text-anchor="start" x="607" y="-150.3" font-family="Times,serif" font-size="14.00"> g3 = v1</text>
<text text-anchor="start" x="607" y="-135.3" font-family="Times,serif" font-size="14.00"> v8</text>
<text text-anchor="start" x="607" y="-120.3" font-family="Times,serif" font-size="14.00"> g2 = v8</text>
<text text-anchor="start" x="607" y="-105.3" font-family="Times,serif" font-size="14.00"> return result</text>
</g>
<!-- Node0x7ff63f0&#45;&gt;Node0xecb9710 -->
<g id="edge4" class="edge"><title>Node0x7ff63f0&#45;&gt;Node0xecb9710</title>
<path fill="none" stroke="black" d="M688.397,-338.404C704.799,-326.285 724.319,-308.406 733.5,-287 745.588,-258.816 745.236,-246.332 733.5,-218 729.079,-207.326 722.41,-197.351 714.798,-188.339"/>
<polygon fill="black" stroke="black" points="717.19,-185.765 707.898,-180.673 711.987,-190.448 717.19,-185.765"/>
<text text-anchor="middle" x="769.5" y="-248.8" font-family="Times,serif" font-size="14.00">v5 != 0</text>
</g>
<!-- Node0x7ff72c0&#45;&gt;Node0xecb9710 -->
<g id="edge5" class="edge"><title>Node0x7ff72c0&#45;&gt;Node0xecb9710</title>
<path fill="none" stroke="black" d="M449.22,-218.499C493.994,-201.46 547.761,-181 589.174,-165.24"/>
<polygon fill="black" stroke="black" points="590.516,-168.474 598.617,-161.647 588.026,-161.932 590.516,-168.474"/>
</g>
<!-- Node0x7ff5ac0 -->
<g id="node6" class="node"><title>Node0x7ff5ac0</title>
<polygon fill="none" stroke="black" points="628.5,-23.5 628.5,-59.5 682.5,-59.5 682.5,-23.5 628.5,-23.5"/>
<text text-anchor="start" x="636.5" y="-37.8" font-family="Times,serif" font-size="14.00">exit:</text>
</g>
<!-- Node0xecb9710&#45;&gt;Node0x7ff5ac0 -->
<g id="edge6" class="edge"><title>Node0xecb9710&#45;&gt;Node0x7ff5ac0</title>
<path fill="none" stroke="black" d="M655.5,-97.4994C655.5,-88.2058 655.5,-78.537 655.5,-69.9459"/>
<polygon fill="black" stroke="black" points="659,-69.7494 655.5,-59.7494 652,-69.7494 659,-69.7494"/>
</g>
</g>
</svg>
