<?xml version="1.0" encoding="UTF-8" standalone="no"?>
<!DOCTYPE svg PUBLIC "-//W3C//DTD SVG 1.1//EN"
 "http://www.w3.org/Graphics/SVG/1.1/DTD/svg11.dtd">
<!-- Generated by graphviz version 2.38.0 (20140413.2041)
 -->
<!-- Title: Control&#45;flow graph for function &#39;checkFileExt(*str)&#39;. Pages: 1 -->
<svg width="1448pt" height="867pt"
 viewBox="0.00 0.00 1447.50 867.00" xmlns="http://www.w3.org/2000/svg" xmlns:xlink="http://www.w3.org/1999/xlink">
<g id="graph0" class="graph" transform="scale(1 1) rotate(0) translate(4 863)">
<title>Control&#45;flow graph for function &#39;checkFileExt(*str)&#39;.</title>
<polygon fill="white" stroke="none" points="-4,4 -4,-863 1443.5,-863 1443.5,4 -4,4"/>
<text text-anchor="middle" x="719.75" y="-7.8" font-family="Times,serif" font-size="14.00">Control&#45;flow graph for function &#39;checkFileExt(*str)&#39;.</text>
<!-- Node0xbba1870 -->
<g id="node1" class="node"><title>Node0xbba1870</title>
<polygon fill="none" stroke="black" points="1179.5,-820.5 1179.5,-858.5 1238.5,-858.5 1238.5,-820.5 1179.5,-820.5"/>
<text text-anchor="start" x="1187.5" y="-843.3" font-family="Times,serif" font-size="14.00">entry:</text>
<text text-anchor="start" x="1187.5" y="-828.3" font-family="Times,serif" font-size="14.00"> str</text>
</g>
<!-- Node0x17c87ce0 -->
<g id="node2" class="node"><title>Node0x17c87ce0</title>
<polygon fill="none" stroke="black" points="978.5,-729.5 978.5,-782.5 1439.5,-782.5 1439.5,-729.5 978.5,-729.5"/>
<text text-anchor="start" x="986.5" y="-767.3" font-family="Times,serif" font-size="14.00">v1 = 0</text>
<text text-anchor="start" x="986.5" y="-752.3" font-family="Times,serif" font-size="14.00"> found_char_pos = PtrToIntCastExpr&lt;int32&gt;(strrchr(str, 46))</text>
<text text-anchor="start" x="986.5" y="-737.3" font-family="Times,serif" font-size="14.00"> str2 = found_char_pos</text>
</g>
<!-- Node0xbba1870&#45;&gt;Node0x17c87ce0 -->
<g id="edge1" class="edge"><title>Node0xbba1870&#45;&gt;Node0x17c87ce0</title>
<path fill="none" stroke="black" d="M1209,-820.413C1209,-812.285 1209,-802.394 1209,-792.864"/>
<polygon fill="black" stroke="black" points="1212.5,-792.766 1209,-782.766 1205.5,-792.766 1212.5,-792.766"/>
</g>
<!-- Node0x17c87d40 -->
<g id="node3" class="node"><title>Node0x17c87d40</title>
<polygon fill="none" stroke="black" points="1160.5,-655.5 1160.5,-691.5 1257.5,-691.5 1257.5,-655.5 1160.5,-655.5"/>
<text text-anchor="start" x="1168.5" y="-669.8" font-family="Times,serif" font-size="14.00">while True:</text>
</g>
<!-- Node0x17c87ce0&#45;&gt;Node0x17c87d40 -->
<g id="edge2" class="edge"><title>Node0x17c87ce0&#45;&gt;Node0x17c87d40</title>
<path fill="none" stroke="black" d="M1209,-729.086C1209,-720.46 1209,-710.822 1209,-702.075"/>
<polygon fill="black" stroke="black" points="1212.5,-701.973 1209,-691.974 1205.5,-701.974 1212.5,-701.973"/>
</g>
<!-- Node0x17c8abd0 -->
<g id="node4" class="node"><title>Node0x17c8abd0</title>
<polygon fill="none" stroke="black" points="1098,-565.5 1098,-603.5 1214,-603.5 1214,-565.5 1098,-565.5"/>
<text text-anchor="start" x="1106" y="-588.3" font-family="Times,serif" font-size="14.00">0x8048340:</text>
<text text-anchor="start" x="1106" y="-573.3" font-family="Times,serif" font-size="14.00"> if (str2 != 0):</text>
</g>
<!-- Node0x17c87d40&#45;&gt;Node0x17c8abd0 -->
<g id="edge3" class="edge"><title>Node0x17c87d40&#45;&gt;Node0x17c8abd0</title>
<path fill="none" stroke="black" d="M1198.53,-655.312C1191.06,-643.044 1180.86,-626.304 1172.32,-612.291"/>
<polygon fill="black" stroke="black" points="1175.19,-610.27 1167,-603.551 1169.21,-613.912 1175.19,-610.27"/>
<text text-anchor="middle" x="1205" y="-625.8" font-family="Times,serif" font-size="14.00">True</text>
</g>
<!-- Node0xbba2070 -->
<g id="node5" class="node"><title>Node0xbba2070</title>
<polygon fill="none" stroke="black" points="478,-477.5 478,-513.5 1072,-513.5 1072,-477.5 478,-477.5"/>
<text text-anchor="start" x="486" y="-491.8" font-family="Times,serif" font-size="14.00">str3 = *(IntToPtrCastExpr&lt;ptr&gt;(((4 * v1) + PtrToIntCastExpr&lt;int32&gt;(&amp;(g9)))))</text>
</g>
<!-- Node0x17c8abd0&#45;&gt;Node0xbba2070 -->
<g id="edge4" class="edge"><title>Node0x17c8abd0&#45;&gt;Node0xbba2070</title>
<path fill="none" stroke="black" d="M1097.72,-570.192C1034.21,-555.69 932.01,-532.353 859.656,-515.831"/>
<polygon fill="black" stroke="black" points="860.179,-512.36 849.651,-513.546 858.621,-519.185 860.179,-512.36"/>
<text text-anchor="middle" x="1022" y="-535.8" font-family="Times,serif" font-size="14.00">str2 != 0</text>
</g>
<!-- Node0xbba1c80 -->
<g id="node6" class="node"><title>Node0xbba1c80</title>
<polygon fill="none" stroke="black" points="925.5,-299.5 925.5,-337.5 1038.5,-337.5 1038.5,-299.5 925.5,-299.5"/>
<text text-anchor="start" x="933.5" y="-322.3" font-family="Times,serif" font-size="14.00">v2 = (v1 + 1)</text>
<text text-anchor="start" x="933.5" y="-307.3" font-family="Times,serif" font-size="14.00"> v1 = v2</text>
</g>
<!-- Node0x17c8abd0&#45;&gt;Node0xbba1c80 -->
<g id="edge5" class="edge"><title>Node0x17c8abd0&#45;&gt;Node0xbba1c80</title>
<path fill="none" stroke="black" d="M1156.11,-565.273C1156.25,-514.099 1155.41,-371.798 1142,-356 1129.73,-341.546 1086.96,-332.255 1048.73,-326.666"/>
<polygon fill="black" stroke="black" points="1049,-323.17 1038.62,-325.255 1048.04,-330.103 1049,-323.17"/>
<text text-anchor="middle" x="1191" y="-447.8" font-family="Times,serif" font-size="14.00">str2 == 0</text>
</g>
<!-- Node0xbba1b30 -->
<g id="node7" class="node"><title>Node0xbba1b30</title>
<polygon fill="none" stroke="black" points="316,-389.5 316,-425.5 900,-425.5 900,-389.5 316,-389.5"/>
<text text-anchor="start" x="324" y="-403.8" font-family="Times,serif" font-size="14.00">if (strcmp(IntToPtrCastExpr&lt;ptr&gt;(str2), IntToPtrCastExpr&lt;ptr&gt;(str3)) == 0):</text>
</g>
<!-- Node0xbba2070&#45;&gt;Node0xbba1b30 -->
<g id="edge6" class="edge"><title>Node0xbba2070&#45;&gt;Node0xbba1b30</title>
<path fill="none" stroke="black" d="M741.606,-477.303C715.352,-463.783 678.611,-444.863 650.301,-430.284"/>
<polygon fill="black" stroke="black" points="651.544,-426.987 641.051,-425.52 648.339,-433.21 651.544,-426.987"/>
</g>
<!-- Node0xca14090 -->
<g id="node8" class="node"><title>Node0xca14090</title>
<polygon fill="none" stroke="black" points="925,-187.5 925,-223.5 1039,-223.5 1039,-187.5 925,-187.5"/>
<text text-anchor="start" x="933" y="-201.8" font-family="Times,serif" font-size="14.00">if (v2 == 24):</text>
</g>
<!-- Node0xbba1c80&#45;&gt;Node0xca14090 -->
<g id="edge7" class="edge"><title>Node0xbba1c80&#45;&gt;Node0xca14090</title>
<path fill="none" stroke="black" d="M982,-299.171C982,-281.424 982,-254.294 982,-233.966"/>
<polygon fill="black" stroke="black" points="985.5,-233.76 982,-223.76 978.5,-233.76 985.5,-233.76"/>
</g>
<!-- Node0xbba1b30&#45;&gt;Node0xbba1c80 -->
<g id="edge9" class="edge"><title>Node0xbba1b30&#45;&gt;Node0xbba1c80</title>
<path fill="none" stroke="black" d="M603.115,-389.385C601.125,-378.46 600.901,-364.754 609,-356 629.345,-334.009 813.475,-324.768 915.195,-321.314"/>
<polygon fill="black" stroke="black" points="915.495,-324.806 925.374,-320.978 915.264,-317.81 915.495,-324.806"/>
<text text-anchor="middle" x="875.5" y="-359.8" font-family="Times,serif" font-size="14.00">strcmp(IntToPtrCastExpr&lt;ptr&gt;(str2), IntToPtrCastExpr&lt;ptr&gt;(str3)) != 0</text>
</g>
<!-- Node0xbba2520 -->
<g id="node9" class="node"><title>Node0xbba2520</title>
<polygon fill="none" stroke="black" points="0,-242.5 0,-280.5 264,-280.5 264,-242.5 0,-242.5"/>
<text text-anchor="start" x="8" y="-265.3" font-family="Times,serif" font-size="14.00">0x8048366:</text>
<text text-anchor="start" x="8" y="-250.3" font-family="Times,serif" font-size="14.00"> return IntToPtrCastExpr&lt;ptr&gt;(1)</text>
</g>
<!-- Node0xbba1b30&#45;&gt;Node0xbba2520 -->
<g id="edge8" class="edge"><title>Node0xbba1b30&#45;&gt;Node0xbba2520</title>
<path fill="none" stroke="black" d="M315.634,-404.463C195.174,-400.51 79.0707,-391.346 60,-371 35.623,-344.993 68.5884,-309.862 97.5071,-286.712"/>
<polygon fill="black" stroke="black" points="99.742,-289.408 105.505,-280.518 95.456,-283.874 99.742,-289.408"/>
<text text-anchor="middle" x="329.5" y="-359.8" font-family="Times,serif" font-size="14.00">strcmp(IntToPtrCastExpr&lt;ptr&gt;(str2), IntToPtrCastExpr&lt;ptr&gt;(str3)) == 0</text>
</g>
<!-- Node0xbba24c0 -->
<g id="node10" class="node"><title>Node0xbba24c0</title>
<polygon fill="none" stroke="black" points="727,-97.5 727,-135.5 991,-135.5 991,-97.5 727,-97.5"/>
<text text-anchor="start" x="735" y="-120.3" font-family="Times,serif" font-size="14.00">0x8048366:</text>
<text text-anchor="start" x="735" y="-105.3" font-family="Times,serif" font-size="14.00"> return IntToPtrCastExpr&lt;ptr&gt;(0)</text>
</g>
<!-- Node0xca14090&#45;&gt;Node0xbba24c0 -->
<g id="edge10" class="edge"><title>Node0xca14090&#45;&gt;Node0xbba24c0</title>
<path fill="none" stroke="black" d="M957.699,-187.312C939.116,-174.167 913.274,-155.889 892.695,-141.333"/>
<polygon fill="black" stroke="black" points="894.706,-138.468 884.521,-135.551 890.664,-144.183 894.706,-138.468"/>
<text text-anchor="middle" x="966.5" y="-157.8" font-family="Times,serif" font-size="14.00">v2 == 24</text>
</g>
<!-- Node0xbba1dd0 -->
<g id="node11" class="node"><title>Node0xbba1dd0</title>
<polygon fill="none" stroke="black" points="1094,-97.5 1094,-135.5 1278,-135.5 1278,-97.5 1094,-97.5"/>
<text text-anchor="start" x="1102" y="-120.3" font-family="Times,serif" font-size="14.00">0x8048340:</text>
<text text-anchor="start" x="1102" y="-105.3" font-family="Times,serif" font-size="14.00"> str2 = found_char_pos</text>
</g>
<!-- Node0xca14090&#45;&gt;Node0xbba1dd0 -->
<g id="edge11" class="edge"><title>Node0xca14090&#45;&gt;Node0xbba1dd0</title>
<path fill="none" stroke="black" d="M1022.3,-187.312C1054.36,-173.642 1099.43,-154.419 1134.17,-139.604"/>
<polygon fill="black" stroke="black" points="1135.85,-142.694 1143.67,-135.551 1133.1,-136.255 1135.85,-142.694"/>
<text text-anchor="middle" x="1128.5" y="-157.8" font-family="Times,serif" font-size="14.00">v2 != 24</text>
</g>
<!-- Node0xdbeb590 -->
<g id="node12" class="node"><title>Node0xdbeb590</title>
<polygon fill="none" stroke="black" points="590,-23.5 590,-59.5 644,-59.5 644,-23.5 590,-23.5"/>
<text text-anchor="start" x="598" y="-37.8" font-family="Times,serif" font-size="14.00">exit:</text>
</g>
<!-- Node0xbba2520&#45;&gt;Node0xdbeb590 -->
<g id="edge12" class="edge"><title>Node0xbba2520&#45;&gt;Node0xdbeb590</title>
<path fill="none" stroke="black" d="M172.102,-242.475C264.619,-200.89 491.84,-98.7575 580.619,-58.8527"/>
<polygon fill="black" stroke="black" points="582.073,-62.0365 589.759,-54.7444 579.203,-55.6519 582.073,-62.0365"/>
</g>
<!-- Node0xbba24c0&#45;&gt;Node0xdbeb590 -->
<g id="edge13" class="edge"><title>Node0xbba24c0&#45;&gt;Node0xdbeb590</title>
<path fill="none" stroke="black" d="M799.18,-97.4551C753.696,-83.7347 692.561,-65.2931 653.964,-53.6503"/>
<polygon fill="black" stroke="black" points="654.769,-50.2373 644.184,-50.7001 652.747,-56.939 654.769,-50.2373"/>
</g>
<!-- Node0xbba1dd0&#45;&gt;Node0x17c87d40 -->
<g id="edge14" class="edge"><title>Node0xbba1dd0&#45;&gt;Node0x17c87d40</title>
<path fill="none" stroke="black" d="M1206.9,-135.641C1223.17,-151.864 1243,-177.234 1243,-204.5 1243,-585.5 1243,-585.5 1243,-585.5 1243,-606.919 1233.95,-629.394 1225.19,-646.135"/>
<polygon fill="black" stroke="black" points="1221.91,-644.832 1220.13,-655.277 1228.03,-648.22 1221.91,-644.832"/>
</g>
</g>
</svg>
