<?xml version="1.0" encoding="UTF-8" standalone="no"?>
<!DOCTYPE svg PUBLIC "-//W3C//DTD SVG 1.1//EN"
 "http://www.w3.org/Graphics/SVG/1.1/DTD/svg11.dtd">
<!-- Generated by graphviz version 2.38.0 (20140413.2041)
 -->
<!-- Title: Control&#45;flow graph for function &#39;camellia_crypt_ctr_wrap(a1)&#39;. Pages: 1 -->
<svg width="565pt" height="278pt"
 viewBox="0.00 0.00 565.00 278.00" xmlns="http://www.w3.org/2000/svg" xmlns:xlink="http://www.w3.org/1999/xlink">
<g id="graph0" class="graph" transform="scale(1 1) rotate(0) translate(4 274)">
<title>Control&#45;flow graph for function &#39;camellia_crypt_ctr_wrap(a1)&#39;.</title>
<polygon fill="white" stroke="none" points="-4,4 -4,-274 561,-274 561,4 -4,4"/>
<text text-anchor="middle" x="278.5" y="-7.8" font-family="Times,serif" font-size="14.00">Control&#45;flow graph for function &#39;camellia_crypt_ctr_wrap(a1)&#39;.</text>
<!-- Node0x1d0c3320 -->
<g id="node1" class="node"><title>Node0x1d0c3320</title>
<polygon fill="none" stroke="black" points="249,-231.5 249,-269.5 308,-269.5 308,-231.5 249,-231.5"/>
<text text-anchor="start" x="257" y="-254.3" font-family="Times,serif" font-size="14.00">entry:</text>
<text text-anchor="start" x="257" y="-239.3" font-family="Times,serif" font-size="14.00"> a1</text>
</g>
<!-- Node0x893aea0 -->
<g id="node2" class="node"><title>Node0x893aea0</title>
<polygon fill="none" stroke="black" points="0,-96.5 0,-194.5 557,-194.5 557,-96.5 0,-96.5"/>
<text text-anchor="start" x="8" y="-179.3" font-family="Times,serif" font-size="14.00">0x806a7b0:</text>
<text text-anchor="start" x="8" y="-164.3" font-family="Times,serif" font-size="14.00"> v1</text>
<text text-anchor="start" x="8" y="-149.3" font-family="Times,serif" font-size="14.00"> v2</text>
<text text-anchor="start" x="8" y="-134.3" font-family="Times,serif" font-size="14.00"> mbedtls_camellia_crypt_ctr(v2, v1, IntToPtrCastExpr&lt;ptr&gt;(a1), 0, 0, 0, 0)</text>
<text text-anchor="start" x="8" y="-119.3" font-family="Times,serif" font-size="14.00"> g1 = 0</text>
<text text-anchor="start" x="8" y="-104.3" font-family="Times,serif" font-size="14.00"> return 0</text>
</g>
<!-- Node0x1d0c3320&#45;&gt;Node0x893aea0 -->
<g id="edge1" class="edge"><title>Node0x1d0c3320&#45;&gt;Node0x893aea0</title>
<path fill="none" stroke="black" d="M278.5,-231.086C278.5,-223.607 278.5,-214.513 278.5,-205.097"/>
<polygon fill="black" stroke="black" points="282,-204.814 278.5,-194.814 275,-204.815 282,-204.814"/>
</g>
<!-- Node0x8e696f0 -->
<g id="node3" class="node"><title>Node0x8e696f0</title>
<polygon fill="none" stroke="black" points="251.5,-23.5 251.5,-59.5 305.5,-59.5 305.5,-23.5 251.5,-23.5"/>
<text text-anchor="start" x="259.5" y="-37.8" font-family="Times,serif" font-size="14.00">exit:</text>
</g>
<!-- Node0x893aea0&#45;&gt;Node0x8e696f0 -->
<g id="edge2" class="edge"><title>Node0x893aea0&#45;&gt;Node0x8e696f0</title>
<path fill="none" stroke="black" d="M278.5,-96.4868C278.5,-87.2893 278.5,-77.9618 278.5,-69.7064"/>
<polygon fill="black" stroke="black" points="282,-69.5725 278.5,-59.5725 275,-69.5725 282,-69.5725"/>
</g>
</g>
</svg>
