<?xml version="1.0" encoding="UTF-8" standalone="no"?>
<!DOCTYPE svg PUBLIC "-//W3C//DTD SVG 1.1//EN"
 "http://www.w3.org/Graphics/SVG/1.1/DTD/svg11.dtd">
<!-- Generated by graphviz version 2.38.0 (20140413.2041)
 -->
<!-- Title: Control&#45;flow graph for function &#39;mbedtls_md_get_name(a1)&#39;. Pages: 1 -->
<svg width="460pt" height="492pt"
 viewBox="0.00 0.00 459.50 492.00" xmlns="http://www.w3.org/2000/svg" xmlns:xlink="http://www.w3.org/1999/xlink">
<g id="graph0" class="graph" transform="scale(1 1) rotate(0) translate(4 488)">
<title>Control&#45;flow graph for function &#39;mbedtls_md_get_name(a1)&#39;.</title>
<polygon fill="white" stroke="none" points="-4,4 -4,-488 455.5,-488 455.5,4 -4,4"/>
<text text-anchor="middle" x="225.75" y="-7.8" font-family="Times,serif" font-size="14.00">Control&#45;flow graph for function &#39;mbedtls_md_get_name(a1)&#39;.</text>
<!-- Node0x9028d80 -->
<g id="node1" class="node"><title>Node0x9028d80</title>
<polygon fill="none" stroke="black" points="259.5,-445.5 259.5,-483.5 318.5,-483.5 318.5,-445.5 259.5,-445.5"/>
<text text-anchor="start" x="267.5" y="-468.3" font-family="Times,serif" font-size="14.00">entry:</text>
<text text-anchor="start" x="267.5" y="-453.3" font-family="Times,serif" font-size="14.00"> a1</text>
</g>
<!-- Node0x25060f10 -->
<g id="node2" class="node"><title>Node0x25060f10</title>
<polygon fill="none" stroke="black" points="238.5,-354.5 238.5,-407.5 339.5,-407.5 339.5,-354.5 238.5,-354.5"/>
<text text-anchor="start" x="246.5" y="-392.3" font-family="Times,serif" font-size="14.00">0x80624c0:</text>
<text text-anchor="start" x="246.5" y="-377.3" font-family="Times,serif" font-size="14.00"> g1 = 0</text>
<text text-anchor="start" x="246.5" y="-362.3" font-family="Times,serif" font-size="14.00"> result</text>
</g>
<!-- Node0x9028d80&#45;&gt;Node0x25060f10 -->
<g id="edge1" class="edge"><title>Node0x9028d80&#45;&gt;Node0x25060f10</title>
<path fill="none" stroke="black" d="M289,-445.413C289,-437.285 289,-427.394 289,-417.864"/>
<polygon fill="black" stroke="black" points="292.5,-417.766 289,-407.766 285.5,-417.766 292.5,-417.766"/>
</g>
<!-- Node0x902b980 -->
<g id="node3" class="node"><title>Node0x902b980</title>
<polygon fill="none" stroke="black" points="239.5,-278.5 239.5,-316.5 338.5,-316.5 338.5,-278.5 239.5,-278.5"/>
<text text-anchor="start" x="247.5" y="-301.3" font-family="Times,serif" font-size="14.00">if (a1 != 0):</text>
<text text-anchor="start" x="247.5" y="-286.3" font-family="Times,serif" font-size="14.00"> else:</text>
</g>
<!-- Node0x25060f10&#45;&gt;Node0x902b980 -->
<g id="edge2" class="edge"><title>Node0x25060f10&#45;&gt;Node0x902b980</title>
<path fill="none" stroke="black" d="M289,-354.213C289,-345.526 289,-335.787 289,-326.91"/>
<polygon fill="black" stroke="black" points="292.5,-326.638 289,-316.638 285.5,-326.638 292.5,-326.638"/>
</g>
<!-- Node0x902c5f0 -->
<g id="node4" class="node"><title>Node0x902c5f0</title>
<polygon fill="none" stroke="black" points="0,-173.5 0,-226.5 344,-226.5 344,-173.5 0,-173.5"/>
<text text-anchor="start" x="8" y="-211.3" font-family="Times,serif" font-size="14.00">0x80624cc:</text>
<text text-anchor="start" x="8" y="-196.3" font-family="Times,serif" font-size="14.00"> result = *(IntToPtrCastExpr&lt;ptr&gt;((a1 + 4)))</text>
<text text-anchor="start" x="8" y="-181.3" font-family="Times,serif" font-size="14.00"> g1 = result</text>
</g>
<!-- Node0x902b980&#45;&gt;Node0x902c5f0 -->
<g id="edge3" class="edge"><title>Node0x902b980&#45;&gt;Node0x902c5f0</title>
<path fill="none" stroke="black" d="M266.718,-278.312C251.194,-265.641 230.06,-248.391 211.694,-233.4"/>
<polygon fill="black" stroke="black" points="213.44,-230.307 203.48,-226.695 209.014,-235.73 213.44,-230.307"/>
<text text-anchor="middle" x="268" y="-248.8" font-family="Times,serif" font-size="14.00">a1 != 0</text>
</g>
<!-- Node0x902c690 -->
<g id="node5" class="node"><title>Node0x902c690</title>
<polygon fill="none" stroke="black" points="362.5,-182 362.5,-218 451.5,-218 451.5,-182 362.5,-182"/>
<text text-anchor="start" x="370.5" y="-196.3" font-family="Times,serif" font-size="14.00">result = 0</text>
</g>
<!-- Node0x902b980&#45;&gt;Node0x902c690 -->
<g id="edge4" class="edge"><title>Node0x902b980&#45;&gt;Node0x902c690</title>
<path fill="none" stroke="black" d="M311.473,-278.312C330.363,-263.024 357.49,-241.07 378.013,-224.46"/>
<polygon fill="black" stroke="black" points="380.23,-227.168 385.802,-218.156 375.827,-221.727 380.23,-227.168"/>
<text text-anchor="middle" x="382" y="-248.8" font-family="Times,serif" font-size="14.00">a1 == 0</text>
</g>
<!-- Node0x902c540 -->
<g id="node6" class="node"><title>Node0x902c540</title>
<polygon fill="none" stroke="black" points="258.5,-97.5 258.5,-135.5 371.5,-135.5 371.5,-97.5 258.5,-97.5"/>
<text text-anchor="start" x="266.5" y="-120.3" font-family="Times,serif" font-size="14.00">0x80624cf:</text>
<text text-anchor="start" x="266.5" y="-105.3" font-family="Times,serif" font-size="14.00"> return result</text>
</g>
<!-- Node0x902c5f0&#45;&gt;Node0x902c540 -->
<g id="edge5" class="edge"><title>Node0x902c5f0&#45;&gt;Node0x902c540</title>
<path fill="none" stroke="black" d="M216.854,-173.437C235.128,-163.021 256.113,-151.062 273.976,-140.881"/>
<polygon fill="black" stroke="black" points="276.046,-143.73 283.001,-135.737 272.58,-137.648 276.046,-143.73"/>
</g>
<!-- Node0x902c690&#45;&gt;Node0x902c540 -->
<g id="edge6" class="edge"><title>Node0x902c690&#45;&gt;Node0x902c540</title>
<path fill="none" stroke="black" d="M387.489,-181.716C374.583,-170.283 357.457,-155.111 343.091,-142.385"/>
<polygon fill="black" stroke="black" points="345.245,-139.618 335.439,-135.606 340.604,-144.857 345.245,-139.618"/>
</g>
<!-- Node0x902c1f0 -->
<g id="node7" class="node"><title>Node0x902c1f0</title>
<polygon fill="none" stroke="black" points="288,-23.5 288,-59.5 342,-59.5 342,-23.5 288,-23.5"/>
<text text-anchor="start" x="296" y="-37.8" font-family="Times,serif" font-size="14.00">exit:</text>
</g>
<!-- Node0x902c540&#45;&gt;Node0x902c1f0 -->
<g id="edge7" class="edge"><title>Node0x902c540&#45;&gt;Node0x902c1f0</title>
<path fill="none" stroke="black" d="M315,-97.4551C315,-89.2008 315,-79.2377 315,-70.0742"/>
<polygon fill="black" stroke="black" points="318.5,-69.8347 315,-59.8347 311.5,-69.8347 318.5,-69.8347"/>
</g>
</g>
</svg>
