<?xml version="1.0" encoding="UTF-8" standalone="no"?>
<!DOCTYPE svg PUBLIC "-//W3C//DTD SVG 1.1//EN"
 "http://www.w3.org/Graphics/SVG/1.1/DTD/svg11.dtd">
<!-- Generated by graphviz version 2.38.0 (20140413.2041)
 -->
<!-- Title: Control&#45;flow graph for function &#39;_start()&#39;. Pages: 1 -->
<svg width="316pt" height="261pt"
 viewBox="0.00 0.00 316.00 261.00" xmlns="http://www.w3.org/2000/svg" xmlns:xlink="http://www.w3.org/1999/xlink">
<g id="graph0" class="graph" transform="scale(1 1) rotate(0) translate(4 257)">
<title>Control&#45;flow graph for function &#39;_start()&#39;.</title>
<polygon fill="white" stroke="none" points="-4,4 -4,-257 312,-257 312,4 -4,4"/>
<text text-anchor="middle" x="154" y="-7.8" font-family="Times,serif" font-size="14.00">Control&#45;flow graph for function &#39;_start()&#39;.</text>
<!-- Node0x6f1eb60 -->
<g id="node1" class="node"><title>Node0x6f1eb60</title>
<polygon fill="none" stroke="black" points="124.5,-216.5 124.5,-252.5 183.5,-252.5 183.5,-216.5 124.5,-216.5"/>
<text text-anchor="start" x="132.5" y="-230.8" font-family="Times,serif" font-size="14.00">entry:</text>
</g>
<!-- Node0x6f24350 -->
<g id="node2" class="node"><title>Node0x6f24350</title>
<polygon fill="none" stroke="black" points="73.5,-96.5 73.5,-179.5 234.5,-179.5 234.5,-96.5 73.5,-96.5"/>
<text text-anchor="start" x="81.5" y="-164.3" font-family="Times,serif" font-size="14.00">g2 = 0</text>
<text text-anchor="start" x="81.5" y="-149.3" font-family="Times,serif" font-size="14.00"> v1</text>
<text text-anchor="start" x="81.5" y="-134.3" font-family="Times,serif" font-size="14.00"> g1 = &amp;(v1)</text>
<text text-anchor="start" x="81.5" y="-119.3" font-family="Times,serif" font-size="14.00"> function_80480be()</text>
<text text-anchor="start" x="81.5" y="-104.3" font-family="Times,serif" font-size="14.00"> return 0</text>
</g>
<!-- Node0x6f1eb60&#45;&gt;Node0x6f24350 -->
<g id="edge1" class="edge"><title>Node0x6f1eb60&#45;&gt;Node0x6f24350</title>
<path fill="none" stroke="black" d="M154,-216.167C154,-208.654 154,-199.427 154,-189.999"/>
<polygon fill="black" stroke="black" points="157.5,-189.762 154,-179.762 150.5,-189.762 157.5,-189.762"/>
</g>
<!-- Node0x6f145d0 -->
<g id="node3" class="node"><title>Node0x6f145d0</title>
<polygon fill="none" stroke="black" points="127,-23.5 127,-59.5 181,-59.5 181,-23.5 127,-23.5"/>
<text text-anchor="start" x="135" y="-37.8" font-family="Times,serif" font-size="14.00">exit:</text>
</g>
<!-- Node0x6f24350&#45;&gt;Node0x6f145d0 -->
<g id="edge2" class="edge"><title>Node0x6f24350&#45;&gt;Node0x6f145d0</title>
<path fill="none" stroke="black" d="M154,-96.3751C154,-87.4706 154,-78.246 154,-70"/>
<polygon fill="black" stroke="black" points="157.5,-69.8327 154,-59.8328 150.5,-69.8328 157.5,-69.8327"/>
</g>
</g>
</svg>
