<?xml version="1.0" encoding="UTF-8" standalone="no"?>
<!DOCTYPE svg PUBLIC "-//W3C//DTD SVG 1.1//EN"
 "http://www.w3.org/Graphics/SVG/1.1/DTD/svg11.dtd">
<!-- Generated by graphviz version 2.38.0 (20140413.2041)
 -->
<!-- Title: Control&#45;flow graph for function &#39;mbedtls_des3_set3key_enc(a1, a2)&#39;. Pages: 1 -->
<svg width="687pt" height="594pt"
 viewBox="0.00 0.00 687.00 594.00" xmlns="http://www.w3.org/2000/svg" xmlns:xlink="http://www.w3.org/1999/xlink">
<g id="graph0" class="graph" transform="scale(1 1) rotate(0) translate(4 590)">
<title>Control&#45;flow graph for function &#39;mbedtls_des3_set3key_enc(a1, a2)&#39;.</title>
<polygon fill="white" stroke="none" points="-4,4 -4,-590 683,-590 683,4 -4,4"/>
<text text-anchor="middle" x="339.5" y="-7.8" font-family="Times,serif" font-size="14.00">Control&#45;flow graph for function &#39;mbedtls_des3_set3key_enc(a1, a2)&#39;.</text>
<!-- Node0x182dd3d0 -->
<g id="node1" class="node"><title>Node0x182dd3d0</title>
<polygon fill="none" stroke="black" points="343.5,-532.5 343.5,-585.5 402.5,-585.5 402.5,-532.5 343.5,-532.5"/>
<text text-anchor="start" x="351.5" y="-570.3" font-family="Times,serif" font-size="14.00">entry:</text>
<text text-anchor="start" x="351.5" y="-555.3" font-family="Times,serif" font-size="14.00"> a1</text>
<text text-anchor="start" x="351.5" y="-540.3" font-family="Times,serif" font-size="14.00"> a2</text>
</g>
<!-- Node0x182ddb00 -->
<g id="node2" class="node"><title>Node0x182ddb00</title>
<polygon fill="none" stroke="black" points="237.5,-291.5 237.5,-494.5 508.5,-494.5 508.5,-291.5 237.5,-291.5"/>
<text text-anchor="start" x="245.5" y="-479.3" font-family="Times,serif" font-size="14.00">0x806b200:</text>
<text text-anchor="start" x="245.5" y="-464.3" font-family="Times,serif" font-size="14.00"> v1</text>
<text text-anchor="start" x="245.5" y="-449.3" font-family="Times,serif" font-size="14.00"> v2 = v1</text>
<text text-anchor="start" x="245.5" y="-434.3" font-family="Times,serif" font-size="14.00"> v3 = g3</text>
<text text-anchor="start" x="245.5" y="-419.3" font-family="Times,serif" font-size="14.00"> v4 = &amp;(v2)</text>
<text text-anchor="start" x="245.5" y="-404.3" font-family="Times,serif" font-size="14.00"> g1 = a1</text>
<text text-anchor="start" x="245.5" y="-389.3" font-family="Times,serif" font-size="14.00"> g4 = a2</text>
<text text-anchor="start" x="245.5" y="-374.3" font-family="Times,serif" font-size="14.00"> g3 = v4</text>
<text text-anchor="start" x="245.5" y="-359.3" font-family="Times,serif" font-size="14.00"> g6 = v4</text>
<text text-anchor="start" x="245.5" y="-344.3" font-family="Times,serif" font-size="14.00"> des3_set3key(v1, 0)</text>
<text text-anchor="start" x="245.5" y="-329.3" font-family="Times,serif" font-size="14.00"> *(IntToPtrCastExpr&lt;ptr&gt;(g3)) = 0</text>
<text text-anchor="start" x="245.5" y="-314.3" font-family="Times,serif" font-size="14.00"> v5 = (g3 + 1)</text>
<text text-anchor="start" x="245.5" y="-299.3" font-family="Times,serif" font-size="14.00"> g3 = v5</text>
</g>
<!-- Node0x182dd3d0&#45;&gt;Node0x182ddb00 -->
<g id="edge1" class="edge"><title>Node0x182dd3d0&#45;&gt;Node0x182ddb00</title>
<path fill="none" stroke="black" d="M373,-532.375C373,-524.402 373,-515.051 373,-505.037"/>
<polygon fill="black" stroke="black" points="376.5,-504.828 373,-494.828 369.5,-504.828 376.5,-504.828"/>
</g>
<!-- Node0x182dd670 -->
<g id="node3" class="node"><title>Node0x182dd670</title>
<polygon fill="none" stroke="black" points="193.5,-217.5 193.5,-253.5 552.5,-253.5 552.5,-217.5 193.5,-217.5"/>
<text text-anchor="start" x="201.5" y="-231.8" font-family="Times,serif" font-size="14.00">while (v5 != PtrToIntCastExpr&lt;int32&gt;(&amp;(v3))):</text>
</g>
<!-- Node0x182ddb00&#45;&gt;Node0x182dd670 -->
<g id="edge2" class="edge"><title>Node0x182ddb00&#45;&gt;Node0x182dd670</title>
<path fill="none" stroke="black" d="M373,-291.323C373,-281.368 373,-271.964 373,-263.847"/>
<polygon fill="black" stroke="black" points="376.5,-263.647 373,-253.647 369.5,-263.647 376.5,-263.647"/>
</g>
<!-- Node0x182ddee0 -->
<g id="node4" class="node"><title>Node0x182ddee0</title>
<polygon fill="none" stroke="black" points="0,-97.5 0,-165.5 270,-165.5 270,-97.5 0,-97.5"/>
<text text-anchor="start" x="8" y="-150.3" font-family="Times,serif" font-size="14.00">0x806b220:</text>
<text text-anchor="start" x="8" y="-135.3" font-family="Times,serif" font-size="14.00"> *(IntToPtrCastExpr&lt;ptr&gt;(v5)) = 0</text>
<text text-anchor="start" x="8" y="-120.3" font-family="Times,serif" font-size="14.00"> v5 = (g3 + 1)</text>
<text text-anchor="start" x="8" y="-105.3" font-family="Times,serif" font-size="14.00"> g3 = v5</text>
</g>
<!-- Node0x182dd670&#45;&gt;Node0x182ddee0 -->
<g id="edge3" class="edge"><title>Node0x182dd670&#45;&gt;Node0x182ddee0</title>
<path fill="none" stroke="black" d="M193.15,-222.725C135.051,-217.074 83.113,-209.259 74,-199 66.5917,-190.66 68.0234,-181.815 73.9508,-173.391"/>
<polygon fill="black" stroke="black" points="76.6265,-175.648 80.5336,-165.799 71.3379,-171.062 76.6265,-175.648"/>
<text text-anchor="middle" x="216.5" y="-187.8" font-family="Times,serif" font-size="14.00">v5 != PtrToIntCastExpr&lt;int32&gt;(&amp;(v3))</text>
</g>
<!-- Node0x182dddf0 -->
<g id="node5" class="node"><title>Node0x182dddf0</title>
<polygon fill="none" stroke="black" points="350,-97.5 350,-165.5 462,-165.5 462,-97.5 350,-97.5"/>
<text text-anchor="start" x="358" y="-150.3" font-family="Times,serif" font-size="14.00">0x806b22a:</text>
<text text-anchor="start" x="358" y="-135.3" font-family="Times,serif" font-size="14.00"> g3 = v3</text>
<text text-anchor="start" x="358" y="-120.3" font-family="Times,serif" font-size="14.00"> v6</text>
<text text-anchor="start" x="358" y="-105.3" font-family="Times,serif" font-size="14.00"> return &amp;(v6)</text>
</g>
<!-- Node0x182dd670&#45;&gt;Node0x182dddf0 -->
<g id="edge4" class="edge"><title>Node0x182dd670&#45;&gt;Node0x182dddf0</title>
<path fill="none" stroke="black" d="M378.598,-217.197C382.339,-205.634 387.433,-189.888 392.215,-175.109"/>
<polygon fill="black" stroke="black" points="395.546,-176.182 395.294,-165.59 388.886,-174.027 395.546,-176.182"/>
<text text-anchor="middle" x="533.5" y="-187.8" font-family="Times,serif" font-size="14.00">v5 == PtrToIntCastExpr&lt;int32&gt;(&amp;(v3))</text>
</g>
<!-- Node0x182ddee0&#45;&gt;Node0x182dd670 -->
<g id="edge5" class="edge"><title>Node0x182ddee0&#45;&gt;Node0x182dd670</title>
<path fill="none" stroke="black" d="M270.107,-151.816C309.101,-159.88 344.942,-170.554 359,-184 365.357,-190.08 368.909,-198.771 370.868,-207.234"/>
<polygon fill="black" stroke="black" points="367.443,-207.969 372.549,-217.252 374.346,-206.81 367.443,-207.969"/>
</g>
<!-- Node0x182dcb70 -->
<g id="node6" class="node"><title>Node0x182dcb70</title>
<polygon fill="none" stroke="black" points="379,-23.5 379,-59.5 433,-59.5 433,-23.5 379,-23.5"/>
<text text-anchor="start" x="387" y="-37.8" font-family="Times,serif" font-size="14.00">exit:</text>
</g>
<!-- Node0x182dddf0&#45;&gt;Node0x182dcb70 -->
<g id="edge6" class="edge"><title>Node0x182dddf0&#45;&gt;Node0x182dcb70</title>
<path fill="none" stroke="black" d="M406,-97.4817C406,-88.3281 406,-78.4972 406,-69.7155"/>
<polygon fill="black" stroke="black" points="409.5,-69.6402 406,-59.6402 402.5,-69.6403 409.5,-69.6402"/>
</g>
</g>
</svg>
