<?xml version="1.0" encoding="UTF-8" standalone="no"?>
<!DOCTYPE svg PUBLIC "-//W3C//DTD SVG 1.1//EN"
 "http://www.w3.org/Graphics/SVG/1.1/DTD/svg11.dtd">
<!-- Generated by graphviz version 2.38.0 (20140413.2041)
 -->
<!-- Title: Control&#45;flow graph for function &#39;mbedtls_ctr_drbg_seed_entropy_len(a1, a2, a3, a4, a5, a6)&#39;. Pages: 1 -->
<svg width="683pt" height="983pt"
 viewBox="0.00 0.00 683.00 983.00" xmlns="http://www.w3.org/2000/svg" xmlns:xlink="http://www.w3.org/1999/xlink">
<g id="graph0" class="graph" transform="scale(1 1) rotate(0) translate(4 979)">
<title>Control&#45;flow graph for function &#39;mbedtls_ctr_drbg_seed_entropy_len(a1, a2, a3, a4, a5, a6)&#39;.</title>
<polygon fill="white" stroke="none" points="-4,4 -4,-979 679,-979 679,4 -4,4"/>
<text text-anchor="middle" x="337.5" y="-7.8" font-family="Times,serif" font-size="14.00">Control&#45;flow graph for function &#39;mbedtls_ctr_drbg_seed_entropy_len(a1, a2, a3, a4, a5, a6)&#39;.</text>
<!-- Node0x194cb530 -->
<g id="node1" class="node"><title>Node0x194cb530</title>
<polygon fill="none" stroke="black" points="536.25,-861.5 536.25,-974.5 595.25,-974.5 595.25,-861.5 536.25,-861.5"/>
<text text-anchor="start" x="544.25" y="-959.3" font-family="Times,serif" font-size="14.00">entry:</text>
<text text-anchor="start" x="544.25" y="-944.3" font-family="Times,serif" font-size="14.00"> a1</text>
<text text-anchor="start" x="544.25" y="-929.3" font-family="Times,serif" font-size="14.00"> a2</text>
<text text-anchor="start" x="544.25" y="-914.3" font-family="Times,serif" font-size="14.00"> a3</text>
<text text-anchor="start" x="544.25" y="-899.3" font-family="Times,serif" font-size="14.00"> a4</text>
<text text-anchor="start" x="544.25" y="-884.3" font-family="Times,serif" font-size="14.00"> a5</text>
<text text-anchor="start" x="544.25" y="-869.3" font-family="Times,serif" font-size="14.00"> a6</text>
</g>
<!-- Node0x852f980 -->
<g id="node2" class="node"><title>Node0x852f980</title>
<polygon fill="none" stroke="black" points="515.75,-665.5 515.75,-823.5 615.75,-823.5 615.75,-665.5 515.75,-665.5"/>
<text text-anchor="start" x="523.75" y="-808.3" font-family="Times,serif" font-size="14.00">v1 = g3</text>
<text text-anchor="start" x="523.75" y="-793.3" font-family="Times,serif" font-size="14.00"> g3 = a1</text>
<text text-anchor="start" x="523.75" y="-778.3" font-family="Times,serif" font-size="14.00"> v2 = g7</text>
<text text-anchor="start" x="523.75" y="-763.3" font-family="Times,serif" font-size="14.00"> v3</text>
<text text-anchor="start" x="523.75" y="-748.3" font-family="Times,serif" font-size="14.00"> v4 = &amp;(v3)</text>
<text text-anchor="start" x="523.75" y="-733.3" font-family="Times,serif" font-size="14.00"> g7 = v4</text>
<text text-anchor="start" x="523.75" y="-718.3" font-family="Times,serif" font-size="14.00"> v5 = g5</text>
<text text-anchor="start" x="523.75" y="-703.3" font-family="Times,serif" font-size="14.00"> v3 = 0</text>
<text text-anchor="start" x="523.75" y="-688.3" font-family="Times,serif" font-size="14.00"> v6 = 4</text>
<text text-anchor="start" x="523.75" y="-673.3" font-family="Times,serif" font-size="14.00"> v7 = 4</text>
</g>
<!-- Node0x194cb530&#45;&gt;Node0x852f980 -->
<g id="edge1" class="edge"><title>Node0x194cb530&#45;&gt;Node0x852f980</title>
<path fill="none" stroke="black" d="M565.75,-861.319C565.75,-852.484 565.75,-843.162 565.75,-833.799"/>
<polygon fill="black" stroke="black" points="569.25,-833.645 565.75,-823.645 562.25,-833.645 569.25,-833.645"/>
</g>
<!-- Node0x194cbad0 -->
<g id="node3" class="node"><title>Node0x194cbad0</title>
<polygon fill="none" stroke="black" points="517.25,-591.5 517.25,-627.5 614.25,-627.5 614.25,-591.5 517.25,-591.5"/>
<text text-anchor="start" x="525.25" y="-605.8" font-family="Times,serif" font-size="14.00">while True:</text>
</g>
<!-- Node0x852f980&#45;&gt;Node0x194cbad0 -->
<g id="edge2" class="edge"><title>Node0x852f980&#45;&gt;Node0x194cbad0</title>
<path fill="none" stroke="black" d="M565.75,-665.364C565.75,-655.457 565.75,-645.905 565.75,-637.625"/>
<polygon fill="black" stroke="black" points="569.25,-637.552 565.75,-627.552 562.25,-637.552 569.25,-637.552"/>
</g>
<!-- Node0x86fd770 -->
<g id="node4" class="node"><title>Node0x86fd770</title>
<polygon fill="none" stroke="black" points="265.25,-471.5 265.25,-539.5 584.25,-539.5 584.25,-471.5 265.25,-471.5"/>
<text text-anchor="start" x="273.25" y="-524.3" font-family="Times,serif" font-size="14.00">0x804bc77:</text>
<text text-anchor="start" x="273.25" y="-509.3" font-family="Times,serif" font-size="14.00"> *(IntToPtrCastExpr&lt;ptr&gt;((v4 + v7))) = 0</text>
<text text-anchor="start" x="273.25" y="-494.3" font-family="Times,serif" font-size="14.00"> v8 = (v6 + 4)</text>
<text text-anchor="start" x="273.25" y="-479.3" font-family="Times,serif" font-size="14.00"> v6 = v8</text>
</g>
<!-- Node0x194cbad0&#45;&gt;Node0x86fd770 -->
<g id="edge3" class="edge"><title>Node0x194cbad0&#45;&gt;Node0x86fd770</title>
<path fill="none" stroke="black" d="M542.15,-591.427C524.84,-578.906 500.628,-561.39 478.684,-545.516"/>
<polygon fill="black" stroke="black" points="480.558,-542.552 470.405,-539.527 476.455,-548.224 480.558,-542.552"/>
<text text-anchor="middle" x="533.75" y="-561.8" font-family="Times,serif" font-size="14.00">True</text>
</g>
<!-- Node0x1fce6550 -->
<g id="node5" class="node"><title>Node0x1fce6550</title>
<polygon fill="none" stroke="black" points="367.75,-397.5 367.75,-433.5 481.75,-433.5 481.75,-397.5 367.75,-397.5"/>
<text text-anchor="start" x="375.75" y="-411.8" font-family="Times,serif" font-size="14.00">if (v8 &gt;= 32):</text>
</g>
<!-- Node0x86fd770&#45;&gt;Node0x1fce6550 -->
<g id="edge4" class="edge"><title>Node0x86fd770&#45;&gt;Node0x1fce6550</title>
<path fill="none" stroke="black" d="M424.75,-471.482C424.75,-462.328 424.75,-452.497 424.75,-443.715"/>
<polygon fill="black" stroke="black" points="428.25,-443.64 424.75,-433.64 421.25,-443.64 428.25,-443.64"/>
</g>
<!-- Node0x20820be0 -->
<g id="node6" class="node"><title>Node0x20820be0</title>
<polygon fill="none" stroke="black" points="11.75,-97.5 11.75,-345.5 543.75,-345.5 543.75,-97.5 11.75,-97.5"/>
<text text-anchor="start" x="19.75" y="-330.3" font-family="Times,serif" font-size="14.00">v9 = (g3 + 32)</text>
<text text-anchor="start" x="19.75" y="-315.3" font-family="Times,serif" font-size="14.00"> g5 = v9</text>
<text text-anchor="start" x="19.75" y="-300.3" font-family="Times,serif" font-size="14.00"> mbedtls_aes_init(IntToPtrCastExpr&lt;ptr&gt;(v9))</text>
<text text-anchor="start" x="19.75" y="-285.3" font-family="Times,serif" font-size="14.00"> *(IntToPtrCastExpr&lt;ptr&gt;((g3 + 312))) = a2</text>
<text text-anchor="start" x="19.75" y="-270.3" font-family="Times,serif" font-size="14.00"> *(IntToPtrCastExpr&lt;ptr&gt;((g3 + 316))) = a3</text>
<text text-anchor="start" x="19.75" y="-255.3" font-family="Times,serif" font-size="14.00"> *(IntToPtrCastExpr&lt;ptr&gt;((g3 + 28))) = 10000</text>
<text text-anchor="start" x="19.75" y="-240.3" font-family="Times,serif" font-size="14.00"> *(IntToPtrCastExpr&lt;ptr&gt;((g3 + 24))) = a6</text>
<text text-anchor="start" x="19.75" y="-225.3" font-family="Times,serif" font-size="14.00"> mbedtls_aes_setkey_enc(IntToPtrCastExpr&lt;ptr&gt;(g5), g7, 256)</text>
<text text-anchor="start" x="19.75" y="-210.3" font-family="Times,serif" font-size="14.00"> result = mbedtls_ctr_drbg_reseed(g3, IntToPtrCastExpr&lt;ptr&gt;(a4), a5)</text>
<text text-anchor="start" x="19.75" y="-195.3" font-family="Times,serif" font-size="14.00"> g1 = result</text>
<text text-anchor="start" x="19.75" y="-180.3" font-family="Times,serif" font-size="14.00"> g3 = v1</text>
<text text-anchor="start" x="19.75" y="-165.3" font-family="Times,serif" font-size="14.00"> g7 = v2</text>
<text text-anchor="start" x="19.75" y="-150.3" font-family="Times,serif" font-size="14.00"> g5 = v5</text>
<text text-anchor="start" x="19.75" y="-135.3" font-family="Times,serif" font-size="14.00"> v10</text>
<text text-anchor="start" x="19.75" y="-120.3" font-family="Times,serif" font-size="14.00"> g2 = v10</text>
<text text-anchor="start" x="19.75" y="-105.3" font-family="Times,serif" font-size="14.00"> return result</text>
</g>
<!-- Node0x1fce6550&#45;&gt;Node0x20820be0 -->
<g id="edge5" class="edge"><title>Node0x1fce6550&#45;&gt;Node0x20820be0</title>
<path fill="none" stroke="black" d="M407.874,-397.178C402.566,-391.512 396.78,-385.104 391.75,-379 385.04,-370.857 378.261,-362.358 371.531,-353.712"/>
<polygon fill="black" stroke="black" points="374.253,-351.51 365.368,-345.737 368.714,-355.79 374.253,-351.51"/>
<text text-anchor="middle" x="426.25" y="-367.8" font-family="Times,serif" font-size="14.00">v8 &gt;= 32</text>
</g>
<!-- Node0x194cc370 -->
<g id="node7" class="node"><title>Node0x194cc370</title>
<polygon fill="none" stroke="black" points="562.25,-195 562.25,-248 663.25,-248 663.25,-195 562.25,-195"/>
<text text-anchor="start" x="570.25" y="-232.8" font-family="Times,serif" font-size="14.00">0x804bc77:</text>
<text text-anchor="start" x="570.25" y="-217.8" font-family="Times,serif" font-size="14.00"> v4 = g7</text>
<text text-anchor="start" x="570.25" y="-202.8" font-family="Times,serif" font-size="14.00"> v7 = v8</text>
</g>
<!-- Node0x1fce6550&#45;&gt;Node0x194cc370 -->
<g id="edge6" class="edge"><title>Node0x1fce6550&#45;&gt;Node0x194cc370</title>
<path fill="none" stroke="black" d="M472.599,-397.424C498.888,-386.111 530.563,-369.073 552.75,-346 576.704,-321.09 592.77,-284.785 602.2,-257.981"/>
<polygon fill="black" stroke="black" points="605.613,-258.811 605.491,-248.216 598.98,-256.574 605.613,-258.811"/>
<text text-anchor="middle" x="561.25" y="-367.8" font-family="Times,serif" font-size="14.00">v8 &lt; 32</text>
</g>
<!-- Node0x89607e0 -->
<g id="node8" class="node"><title>Node0x89607e0</title>
<polygon fill="none" stroke="black" points="250.75,-23.5 250.75,-59.5 304.75,-59.5 304.75,-23.5 250.75,-23.5"/>
<text text-anchor="start" x="258.75" y="-37.8" font-family="Times,serif" font-size="14.00">exit:</text>
</g>
<!-- Node0x20820be0&#45;&gt;Node0x89607e0 -->
<g id="edge7" class="edge"><title>Node0x20820be0&#45;&gt;Node0x89607e0</title>
<path fill="none" stroke="black" d="M277.75,-97.3583C277.75,-87.3316 277.75,-77.9863 277.75,-69.9522"/>
<polygon fill="black" stroke="black" points="281.25,-69.8686 277.75,-59.8686 274.25,-69.8686 281.25,-69.8686"/>
</g>
<!-- Node0x194cc370&#45;&gt;Node0x194cbad0 -->
<g id="edge8" class="edge"><title>Node0x194cc370&#45;&gt;Node0x194cbad0</title>
<path fill="none" stroke="black" d="M613.823,-248.397C615.498,-303.031 616.408,-433.799 592.75,-540 589.57,-554.275 583.839,-569.473 578.473,-581.918"/>
<polygon fill="black" stroke="black" points="575.193,-580.68 574.303,-591.237 581.582,-583.538 575.193,-580.68"/>
</g>
</g>
</svg>
