<?xml version="1.0" encoding="UTF-8" standalone="no"?>
<!DOCTYPE svg PUBLIC "-//W3C//DTD SVG 1.1//EN"
 "http://www.w3.org/Graphics/SVG/1.1/DTD/svg11.dtd">
<!-- Generated by graphviz version 2.38.0 (20140413.2041)
 -->
<!-- Title: Control&#45;flow graph for function &#39;mbedtls_ripemd160_starts(*a1)&#39;. Pages: 1 -->
<svg width="492pt" height="323pt"
 viewBox="0.00 0.00 492.00 323.00" xmlns="http://www.w3.org/2000/svg" xmlns:xlink="http://www.w3.org/1999/xlink">
<g id="graph0" class="graph" transform="scale(1 1) rotate(0) translate(4 319)">
<title>Control&#45;flow graph for function &#39;mbedtls_ripemd160_starts(*a1)&#39;.</title>
<polygon fill="white" stroke="none" points="-4,4 -4,-319 488,-319 488,4 -4,4"/>
<text text-anchor="middle" x="242" y="-7.8" font-family="Times,serif" font-size="14.00">Control&#45;flow graph for function &#39;mbedtls_ripemd160_starts(*a1)&#39;.</text>
<!-- Node0xdea4c70 -->
<g id="node1" class="node"><title>Node0xdea4c70</title>
<polygon fill="none" stroke="black" points="212.5,-276.5 212.5,-314.5 271.5,-314.5 271.5,-276.5 212.5,-276.5"/>
<text text-anchor="start" x="220.5" y="-299.3" font-family="Times,serif" font-size="14.00">entry:</text>
<text text-anchor="start" x="220.5" y="-284.3" font-family="Times,serif" font-size="14.00"> a1</text>
</g>
<!-- Node0x2af03840 -->
<g id="node2" class="node"><title>Node0x2af03840</title>
<polygon fill="none" stroke="black" points="39,-96.5 39,-239.5 445,-239.5 445,-96.5 39,-96.5"/>
<text text-anchor="start" x="47" y="-224.3" font-family="Times,serif" font-size="14.00">0x80650c0:</text>
<text text-anchor="start" x="47" y="-209.3" font-family="Times,serif" font-size="14.00"> g1 = PtrToIntCastExpr&lt;int32&gt;(a1)</text>
<text text-anchor="start" x="47" y="-194.3" font-family="Times,serif" font-size="14.00"> *(a1) = 0</text>
<text text-anchor="start" x="47" y="-179.3" font-family="Times,serif" font-size="14.00"> *(IntToPtrCastExpr&lt;ptr&gt;((g1 + 4))) = 0</text>
<text text-anchor="start" x="47" y="-164.3" font-family="Times,serif" font-size="14.00"> *(IntToPtrCastExpr&lt;ptr&gt;((g1 + 8))) = 1732584193</text>
<text text-anchor="start" x="47" y="-149.3" font-family="Times,serif" font-size="14.00"> *(IntToPtrCastExpr&lt;ptr&gt;((g1 + 12))) = &#45;271733879</text>
<text text-anchor="start" x="47" y="-134.3" font-family="Times,serif" font-size="14.00"> *(IntToPtrCastExpr&lt;ptr&gt;((g1 + 16))) = &#45;1732584194</text>
<text text-anchor="start" x="47" y="-119.3" font-family="Times,serif" font-size="14.00"> *(IntToPtrCastExpr&lt;ptr&gt;((g1 + 20))) = 271733878</text>
<text text-anchor="start" x="47" y="-104.3" font-family="Times,serif" font-size="14.00"> *(IntToPtrCastExpr&lt;ptr&gt;((g1 + 24))) = &#45;1009589776</text>
</g>
<!-- Node0xdea4c70&#45;&gt;Node0x2af03840 -->
<g id="edge1" class="edge"><title>Node0xdea4c70&#45;&gt;Node0x2af03840</title>
<path fill="none" stroke="black" d="M242,-276.251C242,-268.756 242,-259.516 242,-249.63"/>
<polygon fill="black" stroke="black" points="245.5,-249.569 242,-239.569 238.5,-249.569 245.5,-249.569"/>
</g>
<!-- Node0x2aefe5c0 -->
<g id="node3" class="node"><title>Node0x2aefe5c0</title>
<polygon fill="none" stroke="black" points="215,-23.5 215,-59.5 269,-59.5 269,-23.5 215,-23.5"/>
<text text-anchor="start" x="223" y="-37.8" font-family="Times,serif" font-size="14.00">exit:</text>
</g>
<!-- Node0x2af03840&#45;&gt;Node0x2aefe5c0 -->
<g id="edge2" class="edge"><title>Node0x2af03840&#45;&gt;Node0x2aefe5c0</title>
<path fill="none" stroke="black" d="M242,-96.3834C242,-87.0259 242,-77.9253 242,-69.9482"/>
<polygon fill="black" stroke="black" points="245.5,-69.848 242,-59.848 238.5,-69.8481 245.5,-69.848"/>
</g>
</g>
</svg>
