<?xml version="1.0" encoding="UTF-8" standalone="no"?>
<!DOCTYPE svg PUBLIC "-//W3C//DTD SVG 1.1//EN"
 "http://www.w3.org/Graphics/SVG/1.1/DTD/svg11.dtd">
<!-- Generated by graphviz version 2.38.0 (20140413.2041)
 -->
<!-- Title: Control&#45;flow graph for function &#39;mbedtls_ccm_auth_decrypt(a1, a2, a3, a4, a5, a6, a7, *a8, a9, a10)&#39;. Pages: 1 -->
<svg width="1191pt" height="1616pt"
 viewBox="0.00 0.00 1191.00 1616.00" xmlns="http://www.w3.org/2000/svg" xmlns:xlink="http://www.w3.org/1999/xlink">
<g id="graph0" class="graph" transform="scale(1 1) rotate(0) translate(4 1612)">
<title>Control&#45;flow graph for function &#39;mbedtls_ccm_auth_decrypt(a1, a2, a3, a4, a5, a6, a7, *a8, a9, a10)&#39;.</title>
<polygon fill="white" stroke="none" points="-4,4 -4,-1612 1187,-1612 1187,4 -4,4"/>
<text text-anchor="middle" x="591.5" y="-7.8" font-family="Times,serif" font-size="14.00">Control&#45;flow graph for function &#39;mbedtls_ccm_auth_decrypt(a1, a2, a3, a4, a5, a6, a7, *a8, a9, a10)&#39;.</text>
<!-- Node0x29e6e8c0 -->
<g id="node1" class="node"><title>Node0x29e6e8c0</title>
<polygon fill="none" stroke="black" points="562,-1434.5 562,-1607.5 621,-1607.5 621,-1434.5 562,-1434.5"/>
<text text-anchor="start" x="570" y="-1592.3" font-family="Times,serif" font-size="14.00">entry:</text>
<text text-anchor="start" x="570" y="-1577.3" font-family="Times,serif" font-size="14.00"> a1</text>
<text text-anchor="start" x="570" y="-1562.3" font-family="Times,serif" font-size="14.00"> a2</text>
<text text-anchor="start" x="570" y="-1547.3" font-family="Times,serif" font-size="14.00"> a3</text>
<text text-anchor="start" x="570" y="-1532.3" font-family="Times,serif" font-size="14.00"> a4</text>
<text text-anchor="start" x="570" y="-1517.3" font-family="Times,serif" font-size="14.00"> a5</text>
<text text-anchor="start" x="570" y="-1502.3" font-family="Times,serif" font-size="14.00"> a6</text>
<text text-anchor="start" x="570" y="-1487.3" font-family="Times,serif" font-size="14.00"> a7</text>
<text text-anchor="start" x="570" y="-1472.3" font-family="Times,serif" font-size="14.00"> a8</text>
<text text-anchor="start" x="570" y="-1457.3" font-family="Times,serif" font-size="14.00"> a9</text>
<text text-anchor="start" x="570" y="-1442.3" font-family="Times,serif" font-size="14.00"> a10</text>
</g>
<!-- Node0x29e71ea0 -->
<g id="node2" class="node"><title>Node0x29e71ea0</title>
<polygon fill="none" stroke="black" points="-1.13687e-13,-1253.5 -1.13687e-13,-1396.5 1183,-1396.5 1183,-1253.5 -1.13687e-13,-1253.5"/>
<text text-anchor="start" x="8" y="-1381.3" font-family="Times,serif" font-size="14.00">g6 = 1</text>
<text text-anchor="start" x="8" y="-1366.3" font-family="Times,serif" font-size="14.00"> v1 = g7</text>
<text text-anchor="start" x="8" y="-1351.3" font-family="Times,serif" font-size="14.00"> v2 = g3</text>
<text text-anchor="start" x="8" y="-1336.3" font-family="Times,serif" font-size="14.00"> g3 = a10</text>
<text text-anchor="start" x="8" y="-1321.3" font-family="Times,serif" font-size="14.00"> g4 = a2</text>
<text text-anchor="start" x="8" y="-1306.3" font-family="Times,serif" font-size="14.00"> v3 = PtrToIntCastExpr&lt;int32&gt;(a8)</text>
<text text-anchor="start" x="8" y="-1291.3" font-family="Times,serif" font-size="14.00"> g7 = a9</text>
<text text-anchor="start" x="8" y="-1276.3" font-family="Times,serif" font-size="14.00"> v4</text>
<text text-anchor="start" x="8" y="-1261.3" font-family="Times,serif" font-size="14.00"> result = ccm_auth_crypt(IntToPtrCastExpr&lt;ptr&gt;(a3), IntToPtrCastExpr&lt;ptr&gt;(a4), a5, a6, a7, v3, PtrToIntCastExpr&lt;int32&gt;(&amp;(v4)), TruncCastExpr&lt;int8&gt;(a10))</text>
</g>
<!-- Node0x29e6e8c0&#45;&gt;Node0x29e71ea0 -->
<g id="edge1" class="edge"><title>Node0x29e6e8c0&#45;&gt;Node0x29e71ea0</title>
<path fill="none" stroke="black" d="M591.5,-1434.34C591.5,-1425.2 591.5,-1415.92 591.5,-1406.83"/>
<polygon fill="black" stroke="black" points="595,-1406.67 591.5,-1396.67 588,-1406.67 595,-1406.67"/>
</g>
<!-- Node0x194c5880 -->
<g id="node3" class="node"><title>Node0x194c5880</title>
<polygon fill="none" stroke="black" points="529.5,-1179.5 529.5,-1215.5 653.5,-1215.5 653.5,-1179.5 529.5,-1179.5"/>
<text text-anchor="start" x="537.5" y="-1193.8" font-family="Times,serif" font-size="14.00">if (result != 0):</text>
</g>
<!-- Node0x29e71ea0&#45;&gt;Node0x194c5880 -->
<g id="edge2" class="edge"><title>Node0x29e71ea0&#45;&gt;Node0x194c5880</title>
<path fill="none" stroke="black" d="M591.5,-1253.18C591.5,-1243.44 591.5,-1233.96 591.5,-1225.71"/>
<polygon fill="black" stroke="black" points="595,-1225.64 591.5,-1215.64 588,-1225.64 595,-1225.64"/>
</g>
<!-- Node0x194c6590 -->
<g id="node4" class="node"><title>Node0x194c6590</title>
<polygon fill="none" stroke="black" points="484,-1002.5 484,-1070.5 597,-1070.5 597,-1002.5 484,-1002.5"/>
<text text-anchor="start" x="492" y="-1055.3" font-family="Times,serif" font-size="14.00">0x8070416:</text>
<text text-anchor="start" x="492" y="-1040.3" font-family="Times,serif" font-size="14.00"> g3 = v2</text>
<text text-anchor="start" x="492" y="-1025.3" font-family="Times,serif" font-size="14.00"> g7 = v1</text>
<text text-anchor="start" x="492" y="-1010.3" font-family="Times,serif" font-size="14.00"> return result</text>
</g>
<!-- Node0x194c5880&#45;&gt;Node0x194c6590 -->
<g id="edge3" class="edge"><title>Node0x194c5880&#45;&gt;Node0x194c6590</title>
<path fill="none" stroke="black" d="M554.679,-1179.46C547.783,-1174.52 541.494,-1168.41 537.5,-1161 524.346,-1136.61 525.234,-1105.38 529.34,-1080.43"/>
<polygon fill="black" stroke="black" points="532.797,-1080.98 531.192,-1070.51 525.916,-1079.7 532.797,-1080.98"/>
<text text-anchor="middle" x="577" y="-1149.8" font-family="Times,serif" font-size="14.00">result != 0</text>
</g>
<!-- Node0x194c0030 -->
<g id="node5" class="node"><title>Node0x194c0030</title>
<polygon fill="none" stroke="black" points="587.5,-1089.5 587.5,-1127.5 697.5,-1127.5 697.5,-1089.5 587.5,-1089.5"/>
<text text-anchor="start" x="595.5" y="-1112.3" font-family="Times,serif" font-size="14.00">0x80703ea:</text>
<text text-anchor="start" x="595.5" y="-1097.3" font-family="Times,serif" font-size="14.00"> if (g3 == 0):</text>
</g>
<!-- Node0x194c5880&#45;&gt;Node0x194c0030 -->
<g id="edge4" class="edge"><title>Node0x194c5880&#45;&gt;Node0x194c0030</title>
<path fill="none" stroke="black" d="M607.288,-1179.17C611.897,-1173.61 616.708,-1167.26 620.5,-1161 625.01,-1153.55 629.058,-1145.01 632.414,-1137.05"/>
<polygon fill="black" stroke="black" points="635.672,-1138.33 636.15,-1127.75 629.176,-1135.72 635.672,-1138.33"/>
<text text-anchor="middle" x="671" y="-1149.8" font-family="Times,serif" font-size="14.00">result == 0</text>
</g>
<!-- Node0x29e71e40 -->
<g id="node6" class="node"><title>Node0x29e71e40</title>
<polygon fill="none" stroke="black" points="643.5,-23.5 643.5,-59.5 697.5,-59.5 697.5,-23.5 643.5,-23.5"/>
<text text-anchor="start" x="651.5" y="-37.8" font-family="Times,serif" font-size="14.00">exit:</text>
</g>
<!-- Node0x194c6590&#45;&gt;Node0x29e71e40 -->
<g id="edge5" class="edge"><title>Node0x194c6590&#45;&gt;Node0x29e71e40</title>
<path fill="none" stroke="black" d="M540.784,-1002.4C541.08,-965.022 541.5,-902.393 541.5,-848.5 541.5,-848.5 541.5,-848.5 541.5,-130.5 541.5,-85.5796 595.541,-61.9428 633.667,-50.8565"/>
<polygon fill="black" stroke="black" points="634.735,-54.1931 643.457,-48.1788 632.888,-47.4411 634.735,-54.1931"/>
</g>
<!-- Node0x15988bd0 -->
<g id="node7" class="node"><title>Node0x15988bd0</title>
<polygon fill="none" stroke="black" points="563,-813.5 563,-881.5 664,-881.5 664,-813.5 563,-813.5"/>
<text text-anchor="start" x="571" y="-866.3" font-family="Times,serif" font-size="14.00">0x8070416:</text>
<text text-anchor="start" x="571" y="-851.3" font-family="Times,serif" font-size="14.00"> g3 = v2</text>
<text text-anchor="start" x="571" y="-836.3" font-family="Times,serif" font-size="14.00"> g7 = v1</text>
<text text-anchor="start" x="571" y="-821.3" font-family="Times,serif" font-size="14.00"> return 0</text>
</g>
<!-- Node0x194c0030&#45;&gt;Node0x15988bd0 -->
<g id="edge6" class="edge"><title>Node0x194c0030&#45;&gt;Node0x15988bd0</title>
<path fill="none" stroke="black" d="M640.461,-1089.29C635.909,-1048.64 624.817,-949.57 618.367,-891.969"/>
<polygon fill="black" stroke="black" points="621.811,-891.268 617.22,-881.719 614.854,-892.046 621.811,-891.268"/>
<text text-anchor="middle" x="669" y="-1032.8" font-family="Times,serif" font-size="14.00">g3 == 0</text>
</g>
<!-- Node0x194c03a0 -->
<g id="node8" class="node"><title>Node0x194c03a0</title>
<polygon fill="none" stroke="black" points="648.5,-900.5 648.5,-983.5 1140.5,-983.5 1140.5,-900.5 648.5,-900.5"/>
<text text-anchor="start" x="656.5" y="-968.3" font-family="Times,serif" font-size="14.00">v5 = 0</text>
<text text-anchor="start" x="656.5" y="-953.3" font-family="Times,serif" font-size="14.00"> v6 = (v5 + 1)</text>
<text text-anchor="start" x="656.5" y="-938.3" font-family="Times,serif" font-size="14.00"> v7 = *(IntToPtrCastExpr&lt;ptr&gt;(((g2 &#45; 40) + (v5 % 256))))</text>
<text text-anchor="start" x="656.5" y="-923.3" font-family="Times,serif" font-size="14.00"> v8 = (v6 % 256)</text>
<text text-anchor="start" x="656.5" y="-908.3" font-family="Times,serif" font-size="14.00"> v9 = ExtCastExpr&lt;int32&gt;((*(IntToPtrCastExpr&lt;ptr&gt;(g7)) ^ v7))</text>
</g>
<!-- Node0x194c0030&#45;&gt;Node0x194c03a0 -->
<g id="edge7" class="edge"><title>Node0x194c0030&#45;&gt;Node0x194c03a0</title>
<path fill="none" stroke="black" d="M670.431,-1089.27C707.136,-1065.31 772.899,-1022.38 823.72,-989.203"/>
<polygon fill="black" stroke="black" points="825.922,-991.946 832.382,-983.549 822.095,-986.085 825.922,-991.946"/>
<text text-anchor="middle" x="826" y="-1032.8" font-family="Times,serif" font-size="14.00">g3 != 0</text>
</g>
<!-- Node0x15988bd0&#45;&gt;Node0x29e71e40 -->
<g id="edge8" class="edge"><title>Node0x15988bd0&#45;&gt;Node0x29e71e40</title>
<path fill="none" stroke="black" d="M597.893,-813.166C588.955,-791.069 579.5,-761.157 579.5,-733.5 579.5,-733.5 579.5,-733.5 579.5,-130.5 579.5,-98.455 609.021,-74.3659 634.434,-59.5654"/>
<polygon fill="black" stroke="black" points="636.14,-62.6219 643.197,-54.7198 632.752,-56.4961 636.14,-62.6219"/>
</g>
<!-- Node0x194c0660 -->
<g id="node9" class="node"><title>Node0x194c0660</title>
<polygon fill="none" stroke="black" points="829,-758.5 829,-794.5 960,-794.5 960,-758.5 829,-758.5"/>
<text text-anchor="start" x="837" y="-772.8" font-family="Times,serif" font-size="14.00">while (g3 &gt; v8):</text>
</g>
<!-- Node0x194c03a0&#45;&gt;Node0x194c0660 -->
<g id="edge9" class="edge"><title>Node0x194c03a0&#45;&gt;Node0x194c0660</title>
<path fill="none" stroke="black" d="M894.5,-900.164C894.5,-870.37 894.5,-830.806 894.5,-804.772"/>
<polygon fill="black" stroke="black" points="898,-804.511 894.5,-794.511 891,-804.511 898,-804.511"/>
</g>
<!-- Node0x15989940 -->
<g id="node10" class="node"><title>Node0x15989940</title>
<polygon fill="none" stroke="black" points="607.5,-593.5 607.5,-706.5 1037.5,-706.5 1037.5,-593.5 607.5,-593.5"/>
<text text-anchor="start" x="615.5" y="-691.3" font-family="Times,serif" font-size="14.00">0x80703f8:</text>
<text text-anchor="start" x="615.5" y="-676.3" font-family="Times,serif" font-size="14.00"> v5 = v6</text>
<text text-anchor="start" x="615.5" y="-661.3" font-family="Times,serif" font-size="14.00"> v6 = (v5 + 1)</text>
<text text-anchor="start" x="615.5" y="-646.3" font-family="Times,serif" font-size="14.00"> v7 = *(IntToPtrCastExpr&lt;ptr&gt;(((g2 &#45; 40) + (v5 % 256))))</text>
<text text-anchor="start" x="615.5" y="-631.3" font-family="Times,serif" font-size="14.00"> v10 = *(IntToPtrCastExpr&lt;ptr&gt;((v8 + g7)))</text>
<text text-anchor="start" x="615.5" y="-616.3" font-family="Times,serif" font-size="14.00"> v8 = (v6 % 256)</text>
<text text-anchor="start" x="615.5" y="-601.3" font-family="Times,serif" font-size="14.00"> v9 = (ExtCastExpr&lt;int32&gt;((v10 ^ v7)) | v9)</text>
</g>
<!-- Node0x194c0660&#45;&gt;Node0x15989940 -->
<g id="edge10" class="edge"><title>Node0x194c0660&#45;&gt;Node0x15989940</title>
<path fill="none" stroke="black" d="M842.843,-758.384C835.168,-753.619 828.252,-747.593 823.5,-740 819.129,-733.016 816.536,-725.08 815.169,-716.892"/>
<polygon fill="black" stroke="black" points="818.635,-716.389 814.073,-706.826 811.676,-717.146 818.635,-716.389"/>
<text text-anchor="middle" x="852" y="-728.8" font-family="Times,serif" font-size="14.00">g3 &gt; v8</text>
</g>
<!-- Node0x194c1dd0 -->
<g id="node11" class="node"><title>Node0x194c1dd0</title>
<polygon fill="none" stroke="black" points="1055.5,-631 1055.5,-669 1165.5,-669 1165.5,-631 1055.5,-631"/>
<text text-anchor="start" x="1063.5" y="-653.8" font-family="Times,serif" font-size="14.00">0x8070412:</text>
<text text-anchor="start" x="1063.5" y="-638.8" font-family="Times,serif" font-size="14.00"> if (v9 == 0):</text>
</g>
<!-- Node0x194c0660&#45;&gt;Node0x194c1dd0 -->
<g id="edge11" class="edge"><title>Node0x194c0660&#45;&gt;Node0x194c1dd0</title>
<path fill="none" stroke="black" d="M941.554,-758.484C972.554,-746.282 1013.38,-728.28 1046.5,-707 1060.23,-698.181 1074.03,-686.542 1085.28,-676.16"/>
<polygon fill="black" stroke="black" points="1087.76,-678.632 1092.63,-669.224 1082.96,-673.54 1087.76,-678.632"/>
<text text-anchor="middle" x="1049" y="-728.8" font-family="Times,serif" font-size="14.00">g3 &lt;= v8</text>
</g>
<!-- Node0x15989940&#45;&gt;Node0x194c0660 -->
<g id="edge12" class="edge"><title>Node0x15989940&#45;&gt;Node0x194c0660</title>
<path fill="none" stroke="black" d="M869.851,-706.849C873.772,-712.777 877.41,-718.88 880.5,-725 884.15,-732.228 886.954,-740.534 889.059,-748.295"/>
<polygon fill="black" stroke="black" points="885.668,-749.16 891.437,-758.047 892.469,-747.502 885.668,-749.16"/>
</g>
<!-- Node0x15989ba0 -->
<g id="node12" class="node"><title>Node0x15989ba0</title>
<polygon fill="none" stroke="black" points="652,-416.5 652,-484.5 753,-484.5 753,-416.5 652,-416.5"/>
<text text-anchor="start" x="660" y="-469.3" font-family="Times,serif" font-size="14.00">0x8070416:</text>
<text text-anchor="start" x="660" y="-454.3" font-family="Times,serif" font-size="14.00"> g3 = v2</text>
<text text-anchor="start" x="660" y="-439.3" font-family="Times,serif" font-size="14.00"> g7 = v1</text>
<text text-anchor="start" x="660" y="-424.3" font-family="Times,serif" font-size="14.00"> return 0</text>
</g>
<!-- Node0x194c1dd0&#45;&gt;Node0x15989ba0 -->
<g id="edge13" class="edge"><title>Node0x194c1dd0&#45;&gt;Node0x15989ba0</title>
<path fill="none" stroke="black" d="M1094.99,-630.928C1083.06,-618.242 1065.44,-601.997 1046.5,-593 1003.34,-572.494 985.808,-590.187 940.5,-575 876.644,-553.595 808.95,-516.94 762.15,-489.108"/>
<polygon fill="black" stroke="black" points="763.745,-485.983 753.369,-483.843 760.146,-491.987 763.745,-485.983"/>
<text text-anchor="middle" x="970.5" y="-563.8" font-family="Times,serif" font-size="14.00">v9 == 0</text>
</g>
<!-- Node0x194c2340 -->
<g id="node13" class="node"><title>Node0x194c2340</title>
<polygon fill="none" stroke="black" points="894.5,-503.5 894.5,-541.5 1004.5,-541.5 1004.5,-503.5 894.5,-503.5"/>
<text text-anchor="start" x="902.5" y="-526.3" font-family="Times,serif" font-size="14.00">0x8070421:</text>
<text text-anchor="start" x="902.5" y="-511.3" font-family="Times,serif" font-size="14.00"> if (a2 == 0):</text>
</g>
<!-- Node0x194c1dd0&#45;&gt;Node0x194c2340 -->
<g id="edge14" class="edge"><title>Node0x194c1dd0&#45;&gt;Node0x194c2340</title>
<path fill="none" stroke="black" d="M1090.75,-630.833C1078.31,-619.617 1061.77,-605.106 1046.5,-593 1026.51,-577.153 1003.31,-560.47 984.607,-547.423"/>
<polygon fill="black" stroke="black" points="986.571,-544.526 976.36,-541.7 982.58,-550.277 986.571,-544.526"/>
<text text-anchor="middle" x="1046.5" y="-563.8" font-family="Times,serif" font-size="14.00">v9 != 0</text>
</g>
<!-- Node0x15989ba0&#45;&gt;Node0x29e71e40 -->
<g id="edge15" class="edge"><title>Node0x15989ba0&#45;&gt;Node0x29e71e40</title>
<path fill="none" stroke="black" d="M690.675,-416.406C681.56,-387.925 670.5,-345.533 670.5,-307.5 670.5,-307.5 670.5,-307.5 670.5,-130.5 670.5,-110.13 670.5,-87.1087 670.5,-69.7225"/>
<polygon fill="black" stroke="black" points="674,-69.6994 670.5,-59.6995 667,-69.6995 674,-69.6994"/>
</g>
<!-- Node0x15988d70 -->
<g id="node14" class="node"><title>Node0x15988d70</title>
<polygon fill="none" stroke="black" points="710,-272.5 710,-340.5 811,-340.5 811,-272.5 710,-272.5"/>
<text text-anchor="start" x="718" y="-325.3" font-family="Times,serif" font-size="14.00">0x8070416:</text>
<text text-anchor="start" x="718" y="-310.3" font-family="Times,serif" font-size="14.00"> g3 = v2</text>
<text text-anchor="start" x="718" y="-295.3" font-family="Times,serif" font-size="14.00"> g7 = v1</text>
<text text-anchor="start" x="718" y="-280.3" font-family="Times,serif" font-size="14.00"> return &#45;15</text>
</g>
<!-- Node0x194c2340&#45;&gt;Node0x15988d70 -->
<g id="edge16" class="edge"><title>Node0x194c2340&#45;&gt;Node0x15988d70</title>
<path fill="none" stroke="black" d="M912.972,-503.35C903.625,-497.998 893.861,-491.749 885.5,-485 845.09,-452.382 837.035,-440.715 807.5,-398 797.244,-383.167 787.709,-365.81 779.944,-350.286"/>
<polygon fill="black" stroke="black" points="782.888,-348.339 775.348,-340.896 776.601,-351.417 782.888,-348.339"/>
<text text-anchor="middle" x="915.5" y="-446.8" font-family="Times,serif" font-size="14.00">a2 == 0</text>
</g>
<!-- Node0x194c27a0 -->
<g id="node15" class="node"><title>Node0x194c27a0</title>
<polygon fill="none" stroke="black" points="816.5,-359.5 816.5,-397.5 1082.5,-397.5 1082.5,-359.5 816.5,-359.5"/>
<text text-anchor="start" x="824.5" y="-382.3" font-family="Times,serif" font-size="14.00">*(IntToPtrCastExpr&lt;ptr&gt;(v3)) = 0</text>
<text text-anchor="start" x="824.5" y="-367.3" font-family="Times,serif" font-size="14.00"> v11 = (a2 &#45; 1)</text>
</g>
<!-- Node0x194c2340&#45;&gt;Node0x194c27a0 -->
<g id="edge17" class="edge"><title>Node0x194c2340&#45;&gt;Node0x194c27a0</title>
<path fill="none" stroke="black" d="M949.5,-503.227C949.5,-479.05 949.5,-436.185 949.5,-407.803"/>
<polygon fill="black" stroke="black" points="953,-407.703 949.5,-397.703 946,-407.703 953,-407.703"/>
<text text-anchor="middle" x="976.5" y="-446.8" font-family="Times,serif" font-size="14.00">a2 != 0</text>
</g>
<!-- Node0x15988d70&#45;&gt;Node0x29e71e40 -->
<g id="edge18" class="edge"><title>Node0x15988d70&#45;&gt;Node0x29e71e40</title>
<path fill="none" stroke="black" d="M749.974,-272.153C735.785,-227.646 709.421,-146.48 684.5,-78 683.446,-75.1051 682.314,-72.0905 681.165,-69.0954"/>
<polygon fill="black" stroke="black" points="684.419,-67.8055 677.521,-59.7637 677.899,-70.3518 684.419,-67.8055"/>
</g>
<!-- Node0x194c5550 -->
<g id="node16" class="node"><title>Node0x194c5550</title>
<polygon fill="none" stroke="black" points="881,-217.5 881,-253.5 1018,-253.5 1018,-217.5 881,-217.5"/>
<text text-anchor="start" x="889" y="-231.8" font-family="Times,serif" font-size="14.00">while (v11 != 0):</text>
</g>
<!-- Node0x194c27a0&#45;&gt;Node0x194c5550 -->
<g id="edge19" class="edge"><title>Node0x194c27a0&#45;&gt;Node0x194c5550</title>
<path fill="none" stroke="black" d="M949.5,-359.355C949.5,-335.192 949.5,-292.229 949.5,-264.053"/>
<polygon fill="black" stroke="black" points="953,-263.692 949.5,-253.692 946,-263.692 953,-263.692"/>
</g>
<!-- Node0x159889b0 -->
<g id="node17" class="node"><title>Node0x159889b0</title>
<polygon fill="none" stroke="black" points="736.5,-97.5 736.5,-165.5 1006.5,-165.5 1006.5,-97.5 736.5,-97.5"/>
<text text-anchor="start" x="744.5" y="-150.3" font-family="Times,serif" font-size="14.00">0x8070430:</text>
<text text-anchor="start" x="744.5" y="-135.3" font-family="Times,serif" font-size="14.00"> v3 = (v3 + 1)</text>
<text text-anchor="start" x="744.5" y="-120.3" font-family="Times,serif" font-size="14.00"> *(IntToPtrCastExpr&lt;ptr&gt;(v3)) = 0</text>
<text text-anchor="start" x="744.5" y="-105.3" font-family="Times,serif" font-size="14.00"> v11 = (v11 &#45; 1)</text>
</g>
<!-- Node0x194c5550&#45;&gt;Node0x159889b0 -->
<g id="edge20" class="edge"><title>Node0x194c5550&#45;&gt;Node0x159889b0</title>
<path fill="none" stroke="black" d="M892.438,-217.417C884.561,-212.676 877.478,-206.649 872.5,-199 868.072,-192.195 866.001,-184.112 865.326,-175.966"/>
<polygon fill="black" stroke="black" points="868.821,-175.642 865.145,-165.705 861.822,-175.765 868.821,-175.642"/>
<text text-anchor="middle" x="904" y="-187.8" font-family="Times,serif" font-size="14.00">v11 != 0</text>
</g>
<!-- Node0x194c60b0 -->
<g id="node18" class="node"><title>Node0x194c60b0</title>
<polygon fill="none" stroke="black" points="1025,-97.5 1025,-165.5 1126,-165.5 1126,-97.5 1025,-97.5"/>
<text text-anchor="start" x="1033" y="-150.3" font-family="Times,serif" font-size="14.00">0x8070416:</text>
<text text-anchor="start" x="1033" y="-135.3" font-family="Times,serif" font-size="14.00"> g3 = v2</text>
<text text-anchor="start" x="1033" y="-120.3" font-family="Times,serif" font-size="14.00"> g7 = v1</text>
<text text-anchor="start" x="1033" y="-105.3" font-family="Times,serif" font-size="14.00"> return &#45;15</text>
</g>
<!-- Node0x194c5550&#45;&gt;Node0x194c60b0 -->
<g id="edge21" class="edge"><title>Node0x194c5550&#45;&gt;Node0x194c60b0</title>
<path fill="none" stroke="black" d="M970.59,-217.427C985.921,-205.016 1007.31,-187.698 1026.78,-171.936"/>
<polygon fill="black" stroke="black" points="1029.13,-174.539 1034.7,-165.527 1024.73,-169.098 1029.13,-174.539"/>
<text text-anchor="middle" x="1043" y="-187.8" font-family="Times,serif" font-size="14.00">v11 == 0</text>
</g>
<!-- Node0x159889b0&#45;&gt;Node0x194c5550 -->
<g id="edge22" class="edge"><title>Node0x159889b0&#45;&gt;Node0x194c5550</title>
<path fill="none" stroke="black" d="M919.935,-165.77C925.777,-171.332 931.189,-177.447 935.5,-184 940.14,-191.055 943.256,-199.632 945.343,-207.7"/>
<polygon fill="black" stroke="black" points="941.928,-208.468 947.473,-217.495 948.768,-206.98 941.928,-208.468"/>
</g>
<!-- Node0x194c60b0&#45;&gt;Node0x29e71e40 -->
<g id="edge23" class="edge"><title>Node0x194c60b0&#45;&gt;Node0x29e71e40</title>
<path fill="none" stroke="black" d="M1024.67,-100.567C1021.61,-99.2561 1018.54,-98.0528 1015.5,-97 907.742,-59.7348 772.156,-47.81 707.756,-44.1047"/>
<polygon fill="black" stroke="black" points="707.854,-40.605 697.679,-43.5594 707.476,-47.5948 707.854,-40.605"/>
</g>
</g>
</svg>
