<?xml version="1.0" encoding="UTF-8" standalone="no"?>
<!DOCTYPE svg PUBLIC "-//W3C//DTD SVG 1.1//EN"
 "http://www.w3.org/Graphics/SVG/1.1/DTD/svg11.dtd">
<!-- Generated by graphviz version 2.38.0 (20140413.2041)
 -->
<!-- Title: Control&#45;flow graph for function &#39;loadHtmlFile(a1, **a2, a3, a4, a5)&#39;. Pages: 1 -->
<svg width="889pt" height="992pt"
 viewBox="0.00 0.00 888.50 992.00" xmlns="http://www.w3.org/2000/svg" xmlns:xlink="http://www.w3.org/1999/xlink">
<g id="graph0" class="graph" transform="scale(1 1) rotate(0) translate(4 988)">
<title>Control&#45;flow graph for function &#39;loadHtmlFile(a1, **a2, a3, a4, a5)&#39;.</title>
<polygon fill="white" stroke="none" points="-4,4 -4,-988 884.5,-988 884.5,4 -4,4"/>
<text text-anchor="middle" x="440.25" y="-7.8" font-family="Times,serif" font-size="14.00">Control&#45;flow graph for function &#39;loadHtmlFile(a1, **a2, a3, a4, a5)&#39;.</text>
<!-- Node0xbba3220 -->
<g id="node1" class="node"><title>Node0xbba3220</title>
<polygon fill="none" stroke="black" points="271,-885.5 271,-983.5 330,-983.5 330,-885.5 271,-885.5"/>
<text text-anchor="start" x="279" y="-968.3" font-family="Times,serif" font-size="14.00">entry:</text>
<text text-anchor="start" x="279" y="-953.3" font-family="Times,serif" font-size="14.00"> a1</text>
<text text-anchor="start" x="279" y="-938.3" font-family="Times,serif" font-size="14.00"> a2</text>
<text text-anchor="start" x="279" y="-923.3" font-family="Times,serif" font-size="14.00"> a3</text>
<text text-anchor="start" x="279" y="-908.3" font-family="Times,serif" font-size="14.00"> a4</text>
<text text-anchor="start" x="279" y="-893.3" font-family="Times,serif" font-size="14.00"> a5</text>
</g>
<!-- Node0xbba3c70 -->
<g id="node2" class="node"><title>Node0xbba3c70</title>
<polygon fill="none" stroke="black" points="125,-749.5 125,-847.5 476,-847.5 476,-749.5 125,-749.5"/>
<text text-anchor="start" x="133" y="-832.3" font-family="Times,serif" font-size="14.00">0x80483f0:</text>
<text text-anchor="start" x="133" y="-817.3" font-family="Times,serif" font-size="14.00"> v1</text>
<text text-anchor="start" x="133" y="-802.3" font-family="Times,serif" font-size="14.00"> path = IntToPtrCastExpr&lt;ptr&gt;(v1)</text>
<text text-anchor="start" x="133" y="-787.3" font-family="Times,serif" font-size="14.00"> stream = fopen64(&quot;./index.crypto&quot;, &quot;rb&quot;)</text>
<text text-anchor="start" x="133" y="-772.3" font-family="Times,serif" font-size="14.00"> stream2 = PtrToIntCastExpr&lt;int32&gt;(stream)</text>
<text text-anchor="start" x="133" y="-757.3" font-family="Times,serif" font-size="14.00"> v2</text>
</g>
<!-- Node0xbba3220&#45;&gt;Node0xbba3c70 -->
<g id="edge1" class="edge"><title>Node0xbba3220&#45;&gt;Node0xbba3c70</title>
<path fill="none" stroke="black" d="M300.5,-885.123C300.5,-876.299 300.5,-867.007 300.5,-857.929"/>
<polygon fill="black" stroke="black" points="304,-857.806 300.5,-847.806 297,-857.806 304,-857.806"/>
</g>
<!-- Node0xbba3cd0 -->
<g id="node3" class="node"><title>Node0xbba3cd0</title>
<polygon fill="none" stroke="black" points="214,-675.5 214,-711.5 387,-711.5 387,-675.5 214,-675.5"/>
<text text-anchor="start" x="222" y="-689.8" font-family="Times,serif" font-size="14.00">if (stream == NULL):</text>
</g>
<!-- Node0xbba3c70&#45;&gt;Node0xbba3cd0 -->
<g id="edge2" class="edge"><title>Node0xbba3c70&#45;&gt;Node0xbba3cd0</title>
<path fill="none" stroke="black" d="M300.5,-749.317C300.5,-739.893 300.5,-730.32 300.5,-721.868"/>
<polygon fill="black" stroke="black" points="304,-721.856 300.5,-711.856 297,-721.856 304,-721.856"/>
</g>
<!-- Node0xbba4390 -->
<g id="node4" class="node"><title>Node0xbba4390</title>
<polygon fill="none" stroke="black" points="0,-423.5 0,-521.5 321,-521.5 321,-423.5 0,-423.5"/>
<text text-anchor="start" x="8" y="-506.3" font-family="Times,serif" font-size="14.00">0x8048476:</text>
<text text-anchor="start" x="8" y="-491.3" font-family="Times,serif" font-size="14.00"> v2 = PtrToIntCastExpr&lt;int32&gt;(&amp;(path))</text>
<text text-anchor="start" x="8" y="-476.3" font-family="Times,serif" font-size="14.00"> g3 = *(IntToPtrCastExpr&lt;ptr&gt;((v2 &#45; 12)))</text>
<text text-anchor="start" x="8" y="-461.3" font-family="Times,serif" font-size="14.00"> g7 = *(IntToPtrCastExpr&lt;ptr&gt;((v2 &#45; 8)))</text>
<text text-anchor="start" x="8" y="-446.3" font-family="Times,serif" font-size="14.00"> g5 = *(IntToPtrCastExpr&lt;ptr&gt;((v2 &#45; 4)))</text>
<text text-anchor="start" x="8" y="-431.3" font-family="Times,serif" font-size="14.00"> return NULL</text>
</g>
<!-- Node0xbba3cd0&#45;&gt;Node0xbba4390 -->
<g id="edge3" class="edge"><title>Node0xbba3cd0&#45;&gt;Node0xbba4390</title>
<path fill="none" stroke="black" d="M248.317,-675.324C238.894,-670.493 229.768,-664.459 222.5,-657 189.615,-623.253 174.155,-571.472 166.896,-531.51"/>
<polygon fill="black" stroke="black" points="170.342,-530.898 165.222,-521.623 163.441,-532.067 170.342,-530.898"/>
<text text-anchor="middle" x="286" y="-645.8" font-family="Times,serif" font-size="14.00">stream == NULL</text>
</g>
<!-- Node0xbba3e60 -->
<g id="node5" class="node"><title>Node0xbba3e60</title>
<polygon fill="none" stroke="black" points="218,-540.5 218,-623.5 679,-623.5 679,-540.5 218,-540.5"/>
<text text-anchor="start" x="226" y="-608.3" font-family="Times,serif" font-size="14.00">0x8048411:</text>
<text text-anchor="start" x="226" y="-593.3" font-family="Times,serif" font-size="14.00"> fseek(stream, 0, (SEEK_END &#45;&gt; 2))</text>
<text text-anchor="start" x="226" y="-578.3" font-family="Times,serif" font-size="14.00"> curr_file_offset = ftell(IntToPtrCastExpr&lt;ptr&gt;(stream2))</text>
<text text-anchor="start" x="226" y="-563.3" font-family="Times,serif" font-size="14.00"> fseek(IntToPtrCastExpr&lt;ptr&gt;(stream2), 0, (SEEK_SET &#45;&gt; 0))</text>
<text text-anchor="start" x="226" y="-548.3" font-family="Times,serif" font-size="14.00"> mem = malloc(curr_file_offset)</text>
</g>
<!-- Node0xbba3cd0&#45;&gt;Node0xbba3e60 -->
<g id="edge4" class="edge"><title>Node0xbba3cd0&#45;&gt;Node0xbba3e60</title>
<path fill="none" stroke="black" d="M323.625,-675.391C340.206,-663.123 363.391,-645.969 385.288,-629.769"/>
<polygon fill="black" stroke="black" points="387.643,-632.38 393.601,-623.618 383.48,-626.752 387.643,-632.38"/>
<text text-anchor="middle" x="427" y="-645.8" font-family="Times,serif" font-size="14.00">stream != NULL</text>
</g>
<!-- Node0xbba3c10 -->
<g id="node6" class="node"><title>Node0xbba3c10</title>
<polygon fill="none" stroke="black" points="210.5,-23.5 210.5,-59.5 264.5,-59.5 264.5,-23.5 210.5,-23.5"/>
<text text-anchor="start" x="218.5" y="-37.8" font-family="Times,serif" font-size="14.00">exit:</text>
</g>
<!-- Node0xbba4390&#45;&gt;Node0xbba3c10 -->
<g id="edge5" class="edge"><title>Node0xbba4390&#45;&gt;Node0xbba3c10</title>
<path fill="none" stroke="black" d="M157.167,-423.204C155.786,-399.245 154.5,-369.862 154.5,-343.5 154.5,-343.5 154.5,-343.5 154.5,-168 154.5,-127.458 185.007,-89.9459 209.03,-66.6915"/>
<polygon fill="black" stroke="black" points="211.641,-69.0425 216.556,-59.6566 206.86,-63.929 211.641,-69.0425"/>
</g>
<!-- Node0xbba3fb0 -->
<g id="node7" class="node"><title>Node0xbba3fb0</title>
<polygon fill="none" stroke="black" points="388.5,-368.5 388.5,-404.5 540.5,-404.5 540.5,-368.5 388.5,-368.5"/>
<text text-anchor="start" x="396.5" y="-382.8" font-family="Times,serif" font-size="14.00">if (mem != NULL):</text>
</g>
<!-- Node0xbba3e60&#45;&gt;Node0xbba3fb0 -->
<g id="edge6" class="edge"><title>Node0xbba3e60&#45;&gt;Node0xbba3fb0</title>
<path fill="none" stroke="black" d="M451.854,-540.436C454.966,-502.8 459.514,-447.805 462.223,-415.038"/>
<polygon fill="black" stroke="black" points="465.731,-415.09 463.067,-404.835 458.754,-414.513 465.731,-415.09"/>
</g>
<!-- Node0xbba4630 -->
<g id="node8" class="node"><title>Node0xbba4630</title>
<polygon fill="none" stroke="black" points="182.5,-278.5 182.5,-316.5 746.5,-316.5 746.5,-278.5 182.5,-278.5"/>
<text text-anchor="start" x="190.5" y="-301.3" font-family="Times,serif" font-size="14.00">0x8048444:</text>
<text text-anchor="start" x="190.5" y="-286.3" font-family="Times,serif" font-size="14.00"> fread_unlocked(mem, 1, curr_file_offset, IntToPtrCastExpr&lt;ptr&gt;(stream2))</text>
</g>
<!-- Node0xbba3fb0&#45;&gt;Node0xbba4630 -->
<g id="edge7" class="edge"><title>Node0xbba3fb0&#45;&gt;Node0xbba4630</title>
<path fill="none" stroke="black" d="M464.5,-368.312C464.5,-356.511 464.5,-340.572 464.5,-326.904"/>
<polygon fill="black" stroke="black" points="468,-326.551 464.5,-316.551 461,-326.551 468,-326.551"/>
<text text-anchor="middle" x="517.5" y="-338.8" font-family="Times,serif" font-size="14.00">mem != NULL</text>
</g>
<!-- Node0xbba41b0 -->
<g id="node9" class="node"><title>Node0xbba41b0</title>
<polygon fill="none" stroke="black" points="286.5,-97.5 286.5,-240.5 642.5,-240.5 642.5,-97.5 286.5,-97.5"/>
<text text-anchor="start" x="294.5" y="-225.3" font-family="Times,serif" font-size="14.00">0x8048451:</text>
<text text-anchor="start" x="294.5" y="-210.3" font-family="Times,serif" font-size="14.00"> fclose(IntToPtrCastExpr&lt;ptr&gt;(stream2))</text>
<text text-anchor="start" x="294.5" y="-195.3" font-family="Times,serif" font-size="14.00"> g197 = PtrToIntCastExpr&lt;int32&gt;(mem)</text>
<text text-anchor="start" x="294.5" y="-180.3" font-family="Times,serif" font-size="14.00"> result = IntToPtrCastExpr&lt;ptr&gt;(unlink(path))</text>
<text text-anchor="start" x="294.5" y="-165.3" font-family="Times,serif" font-size="14.00"> v2 = PtrToIntCastExpr&lt;int32&gt;(path)</text>
<text text-anchor="start" x="294.5" y="-150.3" font-family="Times,serif" font-size="14.00"> g3 = *(IntToPtrCastExpr&lt;ptr&gt;((v2 &#45; 12)))</text>
<text text-anchor="start" x="294.5" y="-135.3" font-family="Times,serif" font-size="14.00"> g7 = *(IntToPtrCastExpr&lt;ptr&gt;((v2 &#45; 8)))</text>
<text text-anchor="start" x="294.5" y="-120.3" font-family="Times,serif" font-size="14.00"> g5 = *(IntToPtrCastExpr&lt;ptr&gt;((v2 &#45; 4)))</text>
<text text-anchor="start" x="294.5" y="-105.3" font-family="Times,serif" font-size="14.00"> return result</text>
</g>
<!-- Node0xbba3fb0&#45;&gt;Node0xbba41b0 -->
<g id="edge8" class="edge"><title>Node0xbba3fb0&#45;&gt;Node0xbba41b0</title>
<path fill="none" stroke="black" d="M540.704,-378.161C617.765,-368.979 729.158,-350.262 755.5,-317 798.891,-262.209 732.72,-226.074 652.585,-203.345"/>
<polygon fill="black" stroke="black" points="653.32,-199.917 642.749,-200.639 651.463,-206.667 653.32,-199.917"/>
<text text-anchor="middle" x="824.5" y="-293.8" font-family="Times,serif" font-size="14.00">mem == NULL</text>
</g>
<!-- Node0xbba4630&#45;&gt;Node0xbba41b0 -->
<g id="edge9" class="edge"><title>Node0xbba4630&#45;&gt;Node0xbba41b0</title>
<path fill="none" stroke="black" d="M464.5,-278.376C464.5,-270.61 464.5,-260.95 464.5,-250.621"/>
<polygon fill="black" stroke="black" points="468,-250.552 464.5,-240.552 461,-250.552 468,-250.552"/>
</g>
<!-- Node0xbba41b0&#45;&gt;Node0xbba3c10 -->
<g id="edge10" class="edge"><title>Node0xbba41b0&#45;&gt;Node0xbba3c10</title>
<path fill="none" stroke="black" d="M336.735,-97.3636C313.556,-84.5484 291.183,-72.1792 273.566,-62.4396"/>
<polygon fill="black" stroke="black" points="275.253,-59.3732 264.808,-57.5978 271.866,-65.4993 275.253,-59.3732"/>
</g>
</g>
</svg>
