<?xml version="1.0" encoding="UTF-8" standalone="no"?>
<!DOCTYPE svg PUBLIC "-//W3C//DTD SVG 1.1//EN"
 "http://www.w3.org/Graphics/SVG/1.1/DTD/svg11.dtd">
<!-- Generated by graphviz version 2.38.0 (20140413.2041)
 -->
<!-- Title: Control&#45;flow graph for function &#39;mbedtls_ecp_curve_info_from_tls_id(a1)&#39;. Pages: 1 -->
<svg width="1206pt" height="985pt"
 viewBox="0.00 0.00 1205.83 985.00" xmlns="http://www.w3.org/2000/svg" xmlns:xlink="http://www.w3.org/1999/xlink">
<g id="graph0" class="graph" transform="scale(1 1) rotate(0) translate(4 981)">
<title>Control&#45;flow graph for function &#39;mbedtls_ecp_curve_info_from_tls_id(a1)&#39;.</title>
<polygon fill="white" stroke="none" points="-4,4 -4,-981 1201.83,-981 1201.83,4 -4,4"/>
<text text-anchor="middle" x="598.915" y="-7.8" font-family="Times,serif" font-size="14.00">Control&#45;flow graph for function &#39;mbedtls_ecp_curve_info_from_tls_id(a1)&#39;.</text>
<!-- Node0x1c782d90 -->
<g id="node1" class="node"><title>Node0x1c782d90</title>
<polygon fill="none" stroke="black" points="147.5,-938.5 147.5,-976.5 206.5,-976.5 206.5,-938.5 147.5,-938.5"/>
<text text-anchor="start" x="155.5" y="-961.3" font-family="Times,serif" font-size="14.00">entry:</text>
<text text-anchor="start" x="155.5" y="-946.3" font-family="Times,serif" font-size="14.00"> a1</text>
</g>
<!-- Node0x1c782cf0 -->
<g id="node2" class="node"><title>Node0x1c782cf0</title>
<polygon fill="none" stroke="black" points="99.5,-847.5 99.5,-900.5 254.5,-900.5 254.5,-847.5 99.5,-847.5"/>
<text text-anchor="start" x="107.5" y="-885.3" font-family="Times,serif" font-size="14.00">0x805bbd0:</text>
<text text-anchor="start" x="107.5" y="-870.3" font-family="Times,serif" font-size="14.00"> g1 = &amp;(g43)</text>
<text text-anchor="start" x="107.5" y="-855.3" font-family="Times,serif" font-size="14.00"> v1 = (a1 % 65536)</text>
</g>
<!-- Node0x1c782d90&#45;&gt;Node0x1c782cf0 -->
<g id="edge1" class="edge"><title>Node0x1c782d90&#45;&gt;Node0x1c782cf0</title>
<path fill="none" stroke="black" d="M177,-938.413C177,-930.285 177,-920.394 177,-910.864"/>
<polygon fill="black" stroke="black" points="180.5,-910.766 177,-900.766 173.5,-910.766 180.5,-910.766"/>
</g>
<!-- Node0x1c783780 -->
<g id="node3" class="node"><title>Node0x1c783780</title>
<polygon fill="none" stroke="black" points="120,-773.5 120,-809.5 234,-809.5 234,-773.5 120,-773.5"/>
<text text-anchor="start" x="128" y="-787.8" font-family="Times,serif" font-size="14.00">if (v1 == 25):</text>
</g>
<!-- Node0x1c782cf0&#45;&gt;Node0x1c783780 -->
<g id="edge2" class="edge"><title>Node0x1c782cf0&#45;&gt;Node0x1c783780</title>
<path fill="none" stroke="black" d="M177,-847.086C177,-838.46 177,-828.822 177,-820.075"/>
<polygon fill="black" stroke="black" points="180.5,-819.973 177,-809.974 173.5,-819.974 180.5,-819.973"/>
</g>
<!-- Node0xb688740 -->
<g id="node4" class="node"><title>Node0xb688740</title>
<polygon fill="none" stroke="black" points="0,-626.5 0,-664.5 122,-664.5 122,-626.5 0,-626.5"/>
<text text-anchor="start" x="8" y="-649.3" font-family="Times,serif" font-size="14.00">0x805bbf9:</text>
<text text-anchor="start" x="8" y="-634.3" font-family="Times,serif" font-size="14.00"> return &amp;(g43)</text>
</g>
<!-- Node0x1c783780&#45;&gt;Node0xb688740 -->
<g id="edge3" class="edge"><title>Node0x1c783780&#45;&gt;Node0xb688740</title>
<path fill="none" stroke="black" d="M163.238,-773.416C143.246,-748.599 105.99,-702.35 82.3981,-673.063"/>
<polygon fill="black" stroke="black" points="84.8396,-670.515 75.8407,-664.923 79.3883,-674.906 84.8396,-670.515"/>
<text text-anchor="middle" x="182.5" y="-743.8" font-family="Times,serif" font-size="14.00">v1 == 25</text>
</g>
<!-- Node0xb688530 -->
<g id="node5" class="node"><title>Node0xb688530</title>
<polygon fill="none" stroke="black" points="345.5,-683.5 345.5,-721.5 450.5,-721.5 450.5,-683.5 345.5,-683.5"/>
<text text-anchor="start" x="353.5" y="-706.3" font-family="Times,serif" font-size="14.00">v2 = &amp;(g43)</text>
<text text-anchor="start" x="353.5" y="-691.3" font-family="Times,serif" font-size="14.00"> result</text>
</g>
<!-- Node0x1c783780&#45;&gt;Node0xb688530 -->
<g id="edge4" class="edge"><title>Node0x1c783780&#45;&gt;Node0xb688530</title>
<path fill="none" stroke="black" d="M220.399,-773.415C255.396,-759.638 304.845,-740.172 342.682,-725.277"/>
<polygon fill="black" stroke="black" points="344.013,-728.514 352.036,-721.595 341.449,-722.001 344.013,-728.514"/>
<text text-anchor="middle" x="332.5" y="-743.8" font-family="Times,serif" font-size="14.00">v1 != 25</text>
</g>
<!-- Node0xc477040 -->
<g id="node6" class="node"><title>Node0xc477040</title>
<polygon fill="none" stroke="black" points="63,-23.5 63,-59.5 117,-59.5 117,-23.5 63,-23.5"/>
<text text-anchor="start" x="71" y="-37.8" font-family="Times,serif" font-size="14.00">exit:</text>
</g>
<!-- Node0xb688740&#45;&gt;Node0xc477040 -->
<g id="edge5" class="edge"><title>Node0xb688740&#45;&gt;Node0xc477040</title>
<path fill="none" stroke="black" d="M58.3484,-626.483C55.6936,-606.859 52,-574.52 52,-546.5 52,-546.5 52,-546.5 52,-115.5 52,-98.2708 60.4313,-81.0758 69.3511,-67.7055"/>
<polygon fill="black" stroke="black" points="72.2398,-69.6828 75.1994,-59.5097 66.5418,-65.6168 72.2398,-69.6828"/>
</g>
<!-- Node0xb688620 -->
<g id="node7" class="node"><title>Node0xb688620</title>
<polygon fill="none" stroke="black" points="372.5,-571.5 372.5,-607.5 469.5,-607.5 469.5,-571.5 372.5,-571.5"/>
<text text-anchor="start" x="380.5" y="-585.8" font-family="Times,serif" font-size="14.00">while True:</text>
</g>
<!-- Node0xb688530&#45;&gt;Node0xb688620 -->
<g id="edge6" class="edge"><title>Node0xb688530&#45;&gt;Node0xb688620</title>
<path fill="none" stroke="black" d="M401.798,-683.171C405.492,-665.342 411.149,-638.043 415.367,-617.686"/>
<polygon fill="black" stroke="black" points="418.822,-618.262 417.424,-607.76 411.967,-616.842 418.822,-618.262"/>
</g>
<!-- Node0x1c781e40 -->
<g id="node8" class="node"><title>Node0x1c781e40</title>
<polygon fill="none" stroke="black" points="345.5,-466.5 345.5,-519.5 496.5,-519.5 496.5,-466.5 345.5,-466.5"/>
<text text-anchor="start" x="353.5" y="-504.3" font-family="Times,serif" font-size="14.00">0x805bbee:</text>
<text text-anchor="start" x="353.5" y="-489.3" font-family="Times,serif" font-size="14.00"> result = (v2 + 12)</text>
<text text-anchor="start" x="353.5" y="-474.3" font-family="Times,serif" font-size="14.00"> g1 = result</text>
</g>
<!-- Node0xb688620&#45;&gt;Node0x1c781e40 -->
<g id="edge7" class="edge"><title>Node0xb688620&#45;&gt;Node0x1c781e40</title>
<path fill="none" stroke="black" d="M421,-571.167C421,-559.703 421,-544.247 421,-530.178"/>
<polygon fill="black" stroke="black" points="424.5,-529.78 421,-519.78 417.5,-529.78 424.5,-529.78"/>
<text text-anchor="middle" x="438" y="-541.8" font-family="Times,serif" font-size="14.00">True</text>
</g>
<!-- Node0xb688170 -->
<g id="node9" class="node"><title>Node0xb688170</title>
<polygon fill="none" stroke="black" points="255,-392.5 255,-428.5 587,-428.5 587,-392.5 255,-392.5"/>
<text text-anchor="start" x="263" y="-406.8" font-family="Times,serif" font-size="14.00">if (*(IntToPtrCastExpr&lt;ptr&gt;(result)) == 0):</text>
</g>
<!-- Node0x1c781e40&#45;&gt;Node0xb688170 -->
<g id="edge8" class="edge"><title>Node0x1c781e40&#45;&gt;Node0xb688170</title>
<path fill="none" stroke="black" d="M421,-466.086C421,-457.46 421,-447.822 421,-439.075"/>
<polygon fill="black" stroke="black" points="424.5,-438.973 421,-428.974 417.5,-438.974 424.5,-438.973"/>
</g>
<!-- Node0xb689150 -->
<g id="node10" class="node"><title>Node0xb689150</title>
<polygon fill="none" stroke="black" points="67,-230.5 67,-283.5 165,-283.5 165,-230.5 67,-230.5"/>
<text text-anchor="start" x="75" y="-268.3" font-family="Times,serif" font-size="14.00">0x805bbf7:</text>
<text text-anchor="start" x="75" y="-253.3" font-family="Times,serif" font-size="14.00"> g1 = 0</text>
<text text-anchor="start" x="75" y="-238.3" font-family="Times,serif" font-size="14.00"> return 0</text>
</g>
<!-- Node0xb688170&#45;&gt;Node0xb689150 -->
<g id="edge9" class="edge"><title>Node0xb688170&#45;&gt;Node0xb689150</title>
<path fill="none" stroke="black" d="M254.842,-406.015C201.556,-401.378 151.509,-392.091 133,-374 112.147,-353.618 109.309,-319.721 110.854,-293.818"/>
<polygon fill="black" stroke="black" points="114.361,-293.879 111.707,-283.622 107.386,-293.296 114.361,-293.879"/>
<text text-anchor="middle" x="276" y="-362.8" font-family="Times,serif" font-size="14.00">*(IntToPtrCastExpr&lt;ptr&gt;(result)) == 0</text>
</g>
<!-- Node0xb688c40 -->
<g id="node11" class="node"><title>Node0xb688c40</title>
<polygon fill="none" stroke="black" points="158.5,-302.5 158.5,-340.5 691.5,-340.5 691.5,-302.5 158.5,-302.5"/>
<text text-anchor="start" x="166.5" y="-325.3" font-family="Times,serif" font-size="14.00">0x805bbe8:</text>
<text text-anchor="start" x="166.5" y="-310.3" font-family="Times,serif" font-size="14.00"> if (ExtCastExpr&lt;int32&gt;(*(IntToPtrCastExpr&lt;ptr&gt;((v2 + 16)))) == v1):</text>
</g>
<!-- Node0xb688170&#45;&gt;Node0xb688c40 -->
<g id="edge10" class="edge"><title>Node0xb688170&#45;&gt;Node0xb688c40</title>
<path fill="none" stroke="black" d="M421.79,-392.312C422.333,-380.511 423.066,-364.572 423.694,-350.904"/>
<polygon fill="black" stroke="black" points="427.207,-350.701 424.17,-340.551 420.214,-350.38 427.207,-350.701"/>
<text text-anchor="middle" x="564" y="-362.8" font-family="Times,serif" font-size="14.00">*(IntToPtrCastExpr&lt;ptr&gt;(result)) != 0</text>
</g>
<!-- Node0xb689150&#45;&gt;Node0xc477040 -->
<g id="edge11" class="edge"><title>Node0xb689150&#45;&gt;Node0xc477040</title>
<path fill="none" stroke="black" d="M111.729,-230.436C110.777,-224.399 109.81,-217.979 109,-212 102.218,-161.957 96.0401,-103.366 92.671,-69.8244"/>
<polygon fill="black" stroke="black" points="96.1523,-69.4612 91.6787,-59.8572 89.1867,-70.1548 96.1523,-69.4612"/>
</g>
<!-- Node0xb6891f0 -->
<g id="node12" class="node"><title>Node0xb6891f0</title>
<polygon fill="none" stroke="black" points="118,-173.5 118,-211.5 282,-211.5 282,-173.5 118,-173.5"/>
<text text-anchor="start" x="126" y="-196.3" font-family="Times,serif" font-size="14.00">break &#45;&gt; 0x805bbf9:</text>
<text text-anchor="start" x="126" y="-181.3" font-family="Times,serif" font-size="14.00"> break</text>
</g>
<!-- Node0xb688c40&#45;&gt;Node0xb6891f0 -->
<g id="edge12" class="edge"><title>Node0xb688c40&#45;&gt;Node0xb6891f0</title>
<path fill="none" stroke="black" d="M230.155,-302.421C214.082,-297.642 201.498,-291.61 195,-284 180.556,-267.083 183.588,-241.255 189.2,-221.514"/>
<polygon fill="black" stroke="black" points="192.586,-222.416 192.291,-211.826 185.918,-220.289 192.586,-222.416"/>
<text text-anchor="middle" x="437" y="-253.3" font-family="Times,serif" font-size="14.00">ExtCastExpr&lt;int32&gt;(*(IntToPtrCastExpr&lt;ptr&gt;((v2 + 16)))) == v1</text>
</g>
<!-- Node0xb6890f0 -->
<g id="node13" class="node"><title>Node0xb6890f0</title>
<polygon fill="none" stroke="black" points="898.5,-174.5 898.5,-210.5 995.5,-210.5 995.5,-174.5 898.5,-174.5"/>
<text text-anchor="start" x="906.5" y="-188.8" font-family="Times,serif" font-size="14.00">v2 = result</text>
</g>
<!-- Node0xb688c40&#45;&gt;Node0xb6890f0 -->
<g id="edge13" class="edge"><title>Node0xb688c40&#45;&gt;Node0xb6890f0</title>
<path fill="none" stroke="black" d="M629.457,-302.461C651.235,-297.68 669.067,-291.637 679,-284 699.681,-268.1 681.36,-245.953 702,-230 730.283,-208.139 825.152,-199.279 888.199,-195.752"/>
<polygon fill="black" stroke="black" points="888.614,-199.235 898.415,-195.212 888.244,-192.245 888.614,-199.235"/>
<text text-anchor="middle" x="941" y="-253.3" font-family="Times,serif" font-size="14.00">ExtCastExpr&lt;int32&gt;(*(IntToPtrCastExpr&lt;ptr&gt;((v2 + 16)))) != v1</text>
</g>
<!-- Node0xb6886a0 -->
<g id="node14" class="node"><title>Node0xb6886a0</title>
<polygon fill="none" stroke="black" points="124.5,-97.5 124.5,-135.5 237.5,-135.5 237.5,-97.5 124.5,-97.5"/>
<text text-anchor="start" x="132.5" y="-120.3" font-family="Times,serif" font-size="14.00">0x805bbf9:</text>
<text text-anchor="start" x="132.5" y="-105.3" font-family="Times,serif" font-size="14.00"> return result</text>
</g>
<!-- Node0xb6891f0&#45;&gt;Node0xb6886a0 -->
<g id="edge14" class="edge"><title>Node0xb6891f0&#45;&gt;Node0xb6886a0</title>
<path fill="none" stroke="black" d="M195.303,-173.208C193.164,-164.874 190.583,-154.822 188.205,-145.563"/>
<polygon fill="black" stroke="black" points="191.52,-144.397 185.643,-135.582 184.74,-146.138 191.52,-144.397"/>
</g>
<!-- Node0xb6890f0&#45;&gt;Node0xb688620 -->
<g id="edge15" class="edge"><title>Node0xb6890f0&#45;&gt;Node0xb688620</title>
<path fill="none" stroke="black" d="M995.657,-194.575C1056.24,-196.986 1154.84,-204.787 1180,-230 1208.75,-258.807 1194,-279.799 1194,-320.5 1194,-494 1194,-494 1194,-494 1194,-565.908 660.151,-583.563 479.748,-587.477"/>
<polygon fill="black" stroke="black" points="479.572,-583.98 469.647,-587.689 479.719,-590.978 479.572,-583.98"/>
</g>
<!-- Node0xb6886a0&#45;&gt;Node0xc477040 -->
<g id="edge16" class="edge"><title>Node0xb6886a0&#45;&gt;Node0xc477040</title>
<path fill="none" stroke="black" d="M158.506,-97.4551C146.676,-87.9651 132.03,-76.2165 119.321,-66.0211"/>
<polygon fill="black" stroke="black" points="121.288,-63.1123 111.298,-59.585 116.908,-68.5726 121.288,-63.1123"/>
</g>
</g>
</svg>
