<?xml version="1.0" encoding="UTF-8" standalone="no"?>
<!DOCTYPE svg PUBLIC "-//W3C//DTD SVG 1.1//EN"
 "http://www.w3.org/Graphics/SVG/1.1/DTD/svg11.dtd">
<!-- Generated by graphviz version 2.38.0 (20140413.2041)
 -->
<!-- Title: Control&#45;flow graph for function &#39;mbedtls_cipher_set_padding_mode(*a1, a2)&#39;. Pages: 1 -->
<svg width="2255pt" height="699pt"
 viewBox="0.00 0.00 2255.00 699.00" xmlns="http://www.w3.org/2000/svg" xmlns:xlink="http://www.w3.org/1999/xlink">
<g id="graph0" class="graph" transform="scale(1 1) rotate(0) translate(4 695)">
<title>Control&#45;flow graph for function &#39;mbedtls_cipher_set_padding_mode(*a1, a2)&#39;.</title>
<polygon fill="white" stroke="none" points="-4,4 -4,-695 2251,-695 2251,4 -4,4"/>
<text text-anchor="middle" x="1123.5" y="-7.8" font-family="Times,serif" font-size="14.00">Control&#45;flow graph for function &#39;mbedtls_cipher_set_padding_mode(*a1, a2)&#39;.</text>
<!-- Node0x2ac63460 -->
<g id="node1" class="node"><title>Node0x2ac63460</title>
<polygon fill="none" stroke="black" points="2060.5,-637.5 2060.5,-690.5 2119.5,-690.5 2119.5,-637.5 2060.5,-637.5"/>
<text text-anchor="start" x="2068.5" y="-675.3" font-family="Times,serif" font-size="14.00">entry:</text>
<text text-anchor="start" x="2068.5" y="-660.3" font-family="Times,serif" font-size="14.00"> a1</text>
<text text-anchor="start" x="2068.5" y="-645.3" font-family="Times,serif" font-size="14.00"> a2</text>
</g>
<!-- Node0x2ac66760 -->
<g id="node2" class="node"><title>Node0x2ac66760</title>
<polygon fill="none" stroke="black" points="1954,-546.5 1954,-599.5 2226,-599.5 2226,-546.5 1954,-546.5"/>
<text text-anchor="start" x="1962" y="-584.3" font-family="Times,serif" font-size="14.00">v1 = PtrToIntCastExpr&lt;int32&gt;(a1)</text>
<text text-anchor="start" x="1962" y="-569.3" font-family="Times,serif" font-size="14.00"> g6 = v1</text>
<text text-anchor="start" x="1962" y="-554.3" font-family="Times,serif" font-size="14.00"> g4 = a2</text>
</g>
<!-- Node0x2ac63460&#45;&gt;Node0x2ac66760 -->
<g id="edge1" class="edge"><title>Node0x2ac63460&#45;&gt;Node0x2ac66760</title>
<path fill="none" stroke="black" d="M2090,-637.258C2090,-628.678 2090,-618.961 2090,-609.762"/>
<polygon fill="black" stroke="black" points="2093.5,-609.685 2090,-599.685 2086.5,-609.685 2093.5,-609.685"/>
</g>
<!-- Node0x2ac66810 -->
<g id="node3" class="node"><title>Node0x2ac66810</title>
<polygon fill="none" stroke="black" points="2023,-472.5 2023,-508.5 2157,-508.5 2157,-472.5 2023,-472.5"/>
<text text-anchor="start" x="2031" y="-486.8" font-family="Times,serif" font-size="14.00">if (a1 != NULL):</text>
</g>
<!-- Node0x2ac66760&#45;&gt;Node0x2ac66810 -->
<g id="edge2" class="edge"><title>Node0x2ac66760&#45;&gt;Node0x2ac66810</title>
<path fill="none" stroke="black" d="M2090,-546.086C2090,-537.46 2090,-527.822 2090,-519.075"/>
<polygon fill="black" stroke="black" points="2093.5,-518.973 2090,-508.974 2086.5,-518.974 2093.5,-518.973"/>
</g>
<!-- Node0x2ac66b00 -->
<g id="node4" class="node"><title>Node0x2ac66b00</title>
<polygon fill="none" stroke="black" points="1659,-382.5 1659,-420.5 2029,-420.5 2029,-382.5 1659,-382.5"/>
<text text-anchor="start" x="1667" y="-405.3" font-family="Times,serif" font-size="14.00">0x8069b68:</text>
<text text-anchor="start" x="1667" y="-390.3" font-family="Times,serif" font-size="14.00"> if (*(IntToPtrCastExpr&lt;ptr&gt;((*(a1) + 4))) == 2):</text>
</g>
<!-- Node0x2ac66810&#45;&gt;Node0x2ac66b00 -->
<g id="edge3" class="edge"><title>Node0x2ac66810&#45;&gt;Node0x2ac66b00</title>
<path fill="none" stroke="black" d="M2041.69,-472.415C2002.49,-458.551 1946.99,-438.924 1904.77,-423.993"/>
<polygon fill="black" stroke="black" points="1905.76,-420.629 1895.16,-420.595 1903.42,-427.229 1905.76,-420.629"/>
<text text-anchor="middle" x="2034" y="-442.8" font-family="Times,serif" font-size="14.00">a1 != NULL</text>
</g>
<!-- Node0x2ac66940 -->
<g id="node5" class="node"><title>Node0x2ac66940</title>
<polygon fill="none" stroke="black" points="2112.5,-255 2112.5,-293 2233.5,-293 2233.5,-255 2112.5,-255"/>
<text text-anchor="start" x="2120.5" y="-277.8" font-family="Times,serif" font-size="14.00">0x8069b62:</text>
<text text-anchor="start" x="2120.5" y="-262.8" font-family="Times,serif" font-size="14.00"> return &#45;24832</text>
</g>
<!-- Node0x2ac66810&#45;&gt;Node0x2ac66940 -->
<g id="edge4" class="edge"><title>Node0x2ac66810&#45;&gt;Node0x2ac66940</title>
<path fill="none" stroke="black" d="M2102.13,-472.124C2117.85,-448.701 2144.93,-405.173 2159,-364 2165.73,-344.297 2169.25,-321.018 2171.07,-303.211"/>
<polygon fill="black" stroke="black" points="2174.57,-303.445 2171.99,-293.17 2167.6,-302.813 2174.57,-303.445"/>
<text text-anchor="middle" x="2200" y="-397.8" font-family="Times,serif" font-size="14.00">a1 == NULL</text>
</g>
<!-- Node0x2ac66b00&#45;&gt;Node0x2ac66940 -->
<g id="edge6" class="edge"><title>Node0x2ac66b00&#45;&gt;Node0x2ac66940</title>
<path fill="none" stroke="black" d="M1839.23,-382.395C1837.51,-371.554 1837.54,-358.148 1845,-349 1876.94,-309.836 2015.72,-289.798 2102.2,-280.93"/>
<polygon fill="black" stroke="black" points="2102.62,-284.406 2112.22,-279.928 2101.92,-277.441 2102.62,-284.406"/>
<text text-anchor="middle" x="2002" y="-352.8" font-family="Times,serif" font-size="14.00">*(IntToPtrCastExpr&lt;ptr&gt;((*(a1) + 4))) != 2</text>
</g>
<!-- Node0x244fe3c0 -->
<g id="node6" class="node"><title>Node0x244fe3c0</title>
<polygon fill="none" stroke="black" points="1375.5,-217.5 1375.5,-330.5 1476.5,-330.5 1476.5,-217.5 1375.5,-217.5"/>
<text text-anchor="start" x="1383.5" y="-315.3" font-family="Times,serif" font-size="14.00">0x8069b70:</text>
<text text-anchor="start" x="1383.5" y="-300.3" font-family="Times,serif" font-size="14.00"> switch a2:</text>
<text text-anchor="start" x="1383.5" y="-285.3" font-family="Times,serif" font-size="14.00"> case 0:</text>
<text text-anchor="start" x="1383.5" y="-270.3" font-family="Times,serif" font-size="14.00"> case 1:</text>
<text text-anchor="start" x="1383.5" y="-255.3" font-family="Times,serif" font-size="14.00"> case 2:</text>
<text text-anchor="start" x="1383.5" y="-240.3" font-family="Times,serif" font-size="14.00"> case 3:</text>
<text text-anchor="start" x="1383.5" y="-225.3" font-family="Times,serif" font-size="14.00"> case 4:</text>
</g>
<!-- Node0x2ac66b00&#45;&gt;Node0x244fe3c0 -->
<g id="edge5" class="edge"><title>Node0x2ac66b00&#45;&gt;Node0x244fe3c0</title>
<path fill="none" stroke="black" d="M1658.75,-390.547C1599.01,-385.067 1541.42,-376.694 1515,-364 1501.43,-357.479 1488.71,-348.02 1477.38,-337.677"/>
<polygon fill="black" stroke="black" points="1479.79,-335.139 1470.14,-330.775 1474.96,-340.207 1479.79,-335.139"/>
<text text-anchor="middle" x="1675" y="-352.8" font-family="Times,serif" font-size="14.00">*(IntToPtrCastExpr&lt;ptr&gt;((*(a1) + 4))) == 2</text>
</g>
<!-- Node0x2ac66700 -->
<g id="node7" class="node"><title>Node0x2ac66700</title>
<polygon fill="none" stroke="black" points="1399,-23.5 1399,-59.5 1453,-59.5 1453,-23.5 1399,-23.5"/>
<text text-anchor="start" x="1407" y="-37.8" font-family="Times,serif" font-size="14.00">exit:</text>
</g>
<!-- Node0x2ac66940&#45;&gt;Node0x2ac66700 -->
<g id="edge7" class="edge"><title>Node0x2ac66940&#45;&gt;Node0x2ac66700</title>
<path fill="none" stroke="black" d="M2180.85,-254.981C2194.89,-219.609 2219.29,-140.738 2179,-97 2130.16,-43.9784 1609.18,-41.8378 1463.6,-42.2845"/>
<polygon fill="black" stroke="black" points="1463.37,-38.7852 1453.39,-42.3221 1463.4,-45.7851 1463.37,-38.7852"/>
</g>
<!-- Node0x244fa380 -->
<g id="node8" class="node"><title>Node0x244fa380</title>
<polygon fill="none" stroke="black" points="0,-97.5 0,-165.5 392,-165.5 392,-97.5 0,-97.5"/>
<text text-anchor="start" x="8" y="-150.3" font-family="Times,serif" font-size="14.00">0x8069bb7:</text>
<text text-anchor="start" x="8" y="-135.3" font-family="Times,serif" font-size="14.00"> *(IntToPtrCastExpr&lt;ptr&gt;((v1 + 12))) = 134649568</text>
<text text-anchor="start" x="8" y="-120.3" font-family="Times,serif" font-size="14.00"> *(IntToPtrCastExpr&lt;ptr&gt;((g6 + 16))) = 134649632</text>
<text text-anchor="start" x="8" y="-105.3" font-family="Times,serif" font-size="14.00"> return 0</text>
</g>
<!-- Node0x244fe3c0&#45;&gt;Node0x244fa380 -->
<g id="edge8" class="edge"><title>Node0x244fe3c0&#45;&gt;Node0x244fa380</title>
<path fill="none" stroke="black" d="M1375.48,-268.772C1227.49,-256.162 781.999,-216.616 402.177,-166.135"/>
<polygon fill="black" stroke="black" points="402.464,-162.642 392.089,-164.789 401.539,-169.581 402.464,-162.642"/>
<text text-anchor="middle" x="684" y="-187.8" font-family="Times,serif" font-size="14.00">a2 == 0</text>
</g>
<!-- Node0x244fdee0 -->
<g id="node9" class="node"><title>Node0x244fdee0</title>
<polygon fill="none" stroke="black" points="410,-97.5 410,-165.5 802,-165.5 802,-97.5 410,-97.5"/>
<text text-anchor="start" x="418" y="-150.3" font-family="Times,serif" font-size="14.00">0x8069ba5:</text>
<text text-anchor="start" x="418" y="-135.3" font-family="Times,serif" font-size="14.00"> *(IntToPtrCastExpr&lt;ptr&gt;((v1 + 12))) = 134649776</text>
<text text-anchor="start" x="418" y="-120.3" font-family="Times,serif" font-size="14.00"> *(IntToPtrCastExpr&lt;ptr&gt;((g6 + 16))) = 134649840</text>
<text text-anchor="start" x="418" y="-105.3" font-family="Times,serif" font-size="14.00"> return 0</text>
</g>
<!-- Node0x244fe3c0&#45;&gt;Node0x244fdee0 -->
<g id="edge9" class="edge"><title>Node0x244fe3c0&#45;&gt;Node0x244fdee0</title>
<path fill="none" stroke="black" d="M1375.32,-264.317C1264.87,-245.391 997.219,-199.532 808.789,-167.246"/>
<polygon fill="black" stroke="black" points="809.199,-163.765 798.751,-165.526 808.017,-170.665 809.199,-163.765"/>
<text text-anchor="middle" x="1022" y="-187.8" font-family="Times,serif" font-size="14.00">a2 == 1</text>
</g>
<!-- Node0xdb43df0 -->
<g id="node10" class="node"><title>Node0xdb43df0</title>
<polygon fill="none" stroke="black" points="820,-97.5 820,-165.5 1212,-165.5 1212,-97.5 820,-97.5"/>
<text text-anchor="start" x="828" y="-150.3" font-family="Times,serif" font-size="14.00">0x8069b93:</text>
<text text-anchor="start" x="828" y="-135.3" font-family="Times,serif" font-size="14.00"> *(IntToPtrCastExpr&lt;ptr&gt;((v1 + 12))) = 134650016</text>
<text text-anchor="start" x="828" y="-120.3" font-family="Times,serif" font-size="14.00"> *(IntToPtrCastExpr&lt;ptr&gt;((g6 + 16))) = 134650080</text>
<text text-anchor="start" x="828" y="-105.3" font-family="Times,serif" font-size="14.00"> return 0</text>
</g>
<!-- Node0x244fe3c0&#45;&gt;Node0xdb43df0 -->
<g id="edge10" class="edge"><title>Node0x244fe3c0&#45;&gt;Node0xdb43df0</title>
<path fill="none" stroke="black" d="M1375.31,-255.631C1312.52,-234.113 1203.88,-196.882 1122.45,-168.979"/>
<polygon fill="black" stroke="black" points="1123.26,-165.555 1112.66,-165.625 1120.99,-172.177 1123.26,-165.555"/>
<text text-anchor="middle" x="1239" y="-187.8" font-family="Times,serif" font-size="14.00">a2 == 2</text>
</g>
<!-- Node0x244fa610 -->
<g id="node11" class="node"><title>Node0x244fa610</title>
<polygon fill="none" stroke="black" points="1230,-97.5 1230,-165.5 1622,-165.5 1622,-97.5 1230,-97.5"/>
<text text-anchor="start" x="1238" y="-150.3" font-family="Times,serif" font-size="14.00">0x8069b81:</text>
<text text-anchor="start" x="1238" y="-135.3" font-family="Times,serif" font-size="14.00"> *(IntToPtrCastExpr&lt;ptr&gt;((v1 + 12))) = 134650192</text>
<text text-anchor="start" x="1238" y="-120.3" font-family="Times,serif" font-size="14.00"> *(IntToPtrCastExpr&lt;ptr&gt;((g6 + 16))) = 134650224</text>
<text text-anchor="start" x="1238" y="-105.3" font-family="Times,serif" font-size="14.00"> return 0</text>
</g>
<!-- Node0x244fe3c0&#45;&gt;Node0x244fa610 -->
<g id="edge11" class="edge"><title>Node0x244fe3c0&#45;&gt;Node0x244fa610</title>
<path fill="none" stroke="black" d="M1426,-217.471C1426,-203.671 1426,-189.078 1426,-175.953"/>
<polygon fill="black" stroke="black" points="1429.5,-175.785 1426,-165.785 1422.5,-175.785 1429.5,-175.785"/>
<text text-anchor="middle" x="1456" y="-187.8" font-family="Times,serif" font-size="14.00">a2 == 3</text>
</g>
<!-- Node0x244f8470 -->
<g id="node12" class="node"><title>Node0x244f8470</title>
<polygon fill="none" stroke="black" points="1640,-97.5 1640,-165.5 2032,-165.5 2032,-97.5 1640,-97.5"/>
<text text-anchor="start" x="1648" y="-150.3" font-family="Times,serif" font-size="14.00">0x8069bc9:</text>
<text text-anchor="start" x="1648" y="-135.3" font-family="Times,serif" font-size="14.00"> *(IntToPtrCastExpr&lt;ptr&gt;((v1 + 12))) = 0</text>
<text text-anchor="start" x="1648" y="-120.3" font-family="Times,serif" font-size="14.00"> *(IntToPtrCastExpr&lt;ptr&gt;((g6 + 16))) = 134650320</text>
<text text-anchor="start" x="1648" y="-105.3" font-family="Times,serif" font-size="14.00"> return 0</text>
</g>
<!-- Node0x244fe3c0&#45;&gt;Node0x244f8470 -->
<g id="edge12" class="edge"><title>Node0x244fe3c0&#45;&gt;Node0x244f8470</title>
<path fill="none" stroke="black" d="M1476.69,-255.631C1539.48,-234.113 1648.12,-196.882 1729.55,-168.979"/>
<polygon fill="black" stroke="black" points="1731.01,-172.177 1739.34,-165.625 1728.74,-165.555 1731.01,-172.177"/>
<text text-anchor="middle" x="1710" y="-187.8" font-family="Times,serif" font-size="14.00">a2 == 4</text>
</g>
<!-- Node0x244fe560 -->
<g id="node13" class="node"><title>Node0x244fe560</title>
<polygon fill="none" stroke="black" points="2049.5,-112.5 2049.5,-150.5 2170.5,-150.5 2170.5,-112.5 2049.5,-112.5"/>
<text text-anchor="start" x="2057.5" y="-135.3" font-family="Times,serif" font-size="14.00">0x8069b62:</text>
<text text-anchor="start" x="2057.5" y="-120.3" font-family="Times,serif" font-size="14.00"> return &#45;24704</text>
</g>
<!-- Node0x244fe3c0&#45;&gt;Node0x244fe560 -->
<g id="edge13" class="edge"><title>Node0x244fe3c0&#45;&gt;Node0x244fe560</title>
<path fill="none" stroke="black" d="M1476.56,-269.016C1583.16,-259.583 1837.82,-231.561 2041,-166 2050.03,-163.087 2059.37,-159.201 2068.16,-155.11"/>
<polygon fill="black" stroke="black" points="2069.96,-158.129 2077.44,-150.626 2066.91,-151.827 2069.96,-158.129"/>
</g>
<!-- Node0x244fa380&#45;&gt;Node0x2ac66700 -->
<g id="edge14" class="edge"><title>Node0x244fa380&#45;&gt;Node0x2ac66700</title>
<path fill="none" stroke="black" d="M392.064,-97.9995C395.062,-97.6529 398.042,-97.3194 401,-97 785.678,-55.4669 1255.15,-45.1816 1388.87,-43.0154"/>
<polygon fill="black" stroke="black" points="1389.05,-46.5132 1398.99,-42.8569 1388.94,-39.5141 1389.05,-46.5132"/>
</g>
<!-- Node0x244fdee0&#45;&gt;Node0x2ac66700 -->
<g id="edge15" class="edge"><title>Node0x244fdee0&#45;&gt;Node0x2ac66700</title>
<path fill="none" stroke="black" d="M802.081,-98.1459C805.074,-97.7538 808.048,-97.3715 811,-97 1029.34,-69.5233 1293.02,-51.0656 1388.89,-44.8328"/>
<polygon fill="black" stroke="black" points="1389.19,-48.3202 1398.95,-44.1835 1388.74,-41.3347 1389.19,-48.3202"/>
</g>
<!-- Node0xdb43df0&#45;&gt;Node0x2ac66700 -->
<g id="edge16" class="edge"><title>Node0xdb43df0&#45;&gt;Node0x2ac66700</title>
<path fill="none" stroke="black" d="M1169.84,-97.4817C1249.17,-80.4529 1339.44,-61.0797 1388.82,-50.4792"/>
<polygon fill="black" stroke="black" points="1389.68,-53.875 1398.72,-48.3544 1388.21,-47.0309 1389.68,-53.875"/>
</g>
<!-- Node0x244fa610&#45;&gt;Node0x2ac66700 -->
<g id="edge17" class="edge"><title>Node0x244fa610&#45;&gt;Node0x2ac66700</title>
<path fill="none" stroke="black" d="M1426,-97.4817C1426,-88.3281 1426,-78.4972 1426,-69.7155"/>
<polygon fill="black" stroke="black" points="1429.5,-69.6402 1426,-59.6402 1422.5,-69.6403 1429.5,-69.6402"/>
</g>
<!-- Node0x244f8470&#45;&gt;Node0x2ac66700 -->
<g id="edge18" class="edge"><title>Node0x244f8470&#45;&gt;Node0x2ac66700</title>
<path fill="none" stroke="black" d="M1682.16,-97.4817C1602.83,-80.4529 1512.56,-61.0797 1463.18,-50.4792"/>
<polygon fill="black" stroke="black" points="1463.79,-47.0309 1453.28,-48.3544 1462.32,-53.875 1463.79,-47.0309"/>
</g>
<!-- Node0x244fe560&#45;&gt;Node0x2ac66700 -->
<g id="edge19" class="edge"><title>Node0x244fe560&#45;&gt;Node0x2ac66700</title>
<path fill="none" stroke="black" d="M2079,-112.477C2067.44,-106.562 2053.96,-100.59 2041,-97 1931.06,-66.5511 1578.77,-49.0589 1463.15,-44.0277"/>
<polygon fill="black" stroke="black" points="1463.17,-40.5253 1453.03,-43.5929 1462.87,-47.5189 1463.17,-40.5253"/>
</g>
</g>
</svg>
