<?xml version="1.0" encoding="UTF-8" standalone="no"?>
<!DOCTYPE svg PUBLIC "-//W3C//DTD SVG 1.1//EN"
 "http://www.w3.org/Graphics/SVG/1.1/DTD/svg11.dtd">
<!-- Generated by graphviz version 2.38.0 (20140413.2041)
 -->
<!-- Title: Control&#45;flow graph for function &#39;mbedtls_rsa_rsaes_oaep_encrypt(*a1, *a2, a3, a4, a5, a6, a7, a8, *a9)&#39;. Pages: 1 -->
<svg width="2575pt" height="2488pt"
 viewBox="0.00 0.00 2574.50 2488.00" xmlns="http://www.w3.org/2000/svg" xmlns:xlink="http://www.w3.org/1999/xlink">
<g id="graph0" class="graph" transform="scale(1 1) rotate(0) translate(4 2484)">
<title>Control&#45;flow graph for function &#39;mbedtls_rsa_rsaes_oaep_encrypt(*a1, *a2, a3, a4, a5, a6, a7, a8, *a9)&#39;.</title>
<polygon fill="white" stroke="none" points="-4,4 -4,-2484 2570.5,-2484 2570.5,4 -4,4"/>
<text text-anchor="middle" x="1283.25" y="-7.8" font-family="Times,serif" font-size="14.00">Control&#45;flow graph for function &#39;mbedtls_rsa_rsaes_oaep_encrypt(*a1, *a2, a3, a4, a5, a6, a7, a8, *a9)&#39;.</text>
<!-- Node0xae44d90 -->
<g id="node1" class="node"><title>Node0xae44d90</title>
<polygon fill="none" stroke="black" points="1114,-2321.5 1114,-2479.5 1173,-2479.5 1173,-2321.5 1114,-2321.5"/>
<text text-anchor="start" x="1122" y="-2464.3" font-family="Times,serif" font-size="14.00">entry:</text>
<text text-anchor="start" x="1122" y="-2449.3" font-family="Times,serif" font-size="14.00"> a1</text>
<text text-anchor="start" x="1122" y="-2434.3" font-family="Times,serif" font-size="14.00"> a2</text>
<text text-anchor="start" x="1122" y="-2419.3" font-family="Times,serif" font-size="14.00"> a3</text>
<text text-anchor="start" x="1122" y="-2404.3" font-family="Times,serif" font-size="14.00"> a4</text>
<text text-anchor="start" x="1122" y="-2389.3" font-family="Times,serif" font-size="14.00"> a5</text>
<text text-anchor="start" x="1122" y="-2374.3" font-family="Times,serif" font-size="14.00"> a6</text>
<text text-anchor="start" x="1122" y="-2359.3" font-family="Times,serif" font-size="14.00"> a7</text>
<text text-anchor="start" x="1122" y="-2344.3" font-family="Times,serif" font-size="14.00"> a8</text>
<text text-anchor="start" x="1122" y="-2329.3" font-family="Times,serif" font-size="14.00"> a9</text>
</g>
<!-- Node0xe500f60 -->
<g id="node2" class="node"><title>Node0xe500f60</title>
<polygon fill="none" stroke="black" points="1005,-2005.5 1005,-2283.5 1282,-2283.5 1282,-2005.5 1005,-2005.5"/>
<text text-anchor="start" x="1013" y="-2268.3" font-family="Times,serif" font-size="14.00">g7 = a4</text>
<text text-anchor="start" x="1013" y="-2253.3" font-family="Times,serif" font-size="14.00"> g5 = PtrToIntCastExpr&lt;int32&gt;(a2)</text>
<text text-anchor="start" x="1013" y="-2238.3" font-family="Times,serif" font-size="14.00"> v1</text>
<text text-anchor="start" x="1013" y="-2223.3" font-family="Times,serif" font-size="14.00"> v2</text>
<text text-anchor="start" x="1013" y="-2208.3" font-family="Times,serif" font-size="14.00"> v3</text>
<text text-anchor="start" x="1013" y="-2193.3" font-family="Times,serif" font-size="14.00"> v4</text>
<text text-anchor="start" x="1013" y="-2178.3" font-family="Times,serif" font-size="14.00"> v5</text>
<text text-anchor="start" x="1013" y="-2163.3" font-family="Times,serif" font-size="14.00"> v6</text>
<text text-anchor="start" x="1013" y="-2148.3" font-family="Times,serif" font-size="14.00"> result</text>
<text text-anchor="start" x="1013" y="-2133.3" font-family="Times,serif" font-size="14.00"> v7</text>
<text text-anchor="start" x="1013" y="-2118.3" font-family="Times,serif" font-size="14.00"> v8</text>
<text text-anchor="start" x="1013" y="-2103.3" font-family="Times,serif" font-size="14.00"> v9</text>
<text text-anchor="start" x="1013" y="-2088.3" font-family="Times,serif" font-size="14.00"> v10</text>
<text text-anchor="start" x="1013" y="-2073.3" font-family="Times,serif" font-size="14.00"> v11</text>
<text text-anchor="start" x="1013" y="-2058.3" font-family="Times,serif" font-size="14.00"> v12</text>
<text text-anchor="start" x="1013" y="-2043.3" font-family="Times,serif" font-size="14.00"> v13</text>
<text text-anchor="start" x="1013" y="-2028.3" font-family="Times,serif" font-size="14.00"> v14</text>
<text text-anchor="start" x="1013" y="-2013.3" font-family="Times,serif" font-size="14.00"> v15</text>
</g>
<!-- Node0xae44d90&#45;&gt;Node0xe500f60 -->
<g id="edge1" class="edge"><title>Node0xae44d90&#45;&gt;Node0xe500f60</title>
<path fill="none" stroke="black" d="M1143.5,-2321.22C1143.5,-2312.44 1143.5,-2303.3 1143.5,-2294"/>
<polygon fill="black" stroke="black" points="1147,-2293.85 1143.5,-2283.85 1140,-2293.85 1147,-2293.85"/>
</g>
<!-- Node0xe503170 -->
<g id="node3" class="node"><title>Node0xe503170</title>
<polygon fill="none" stroke="black" points="1091,-1931.5 1091,-1967.5 1196,-1967.5 1196,-1931.5 1091,-1931.5"/>
<text text-anchor="start" x="1099" y="-1945.8" font-family="Times,serif" font-size="14.00">if (a4 == 1):</text>
</g>
<!-- Node0xe500f60&#45;&gt;Node0xe503170 -->
<g id="edge2" class="edge"><title>Node0xe500f60&#45;&gt;Node0xe503170</title>
<path fill="none" stroke="black" d="M1143.5,-2005.29C1143.5,-1995.15 1143.5,-1985.78 1143.5,-1977.75"/>
<polygon fill="black" stroke="black" points="1147,-1977.7 1143.5,-1967.7 1140,-1977.7 1147,-1977.7"/>
</g>
<!-- Node0x14d7f110 -->
<g id="node4" class="node"><title>Node0x14d7f110</title>
<polygon fill="none" stroke="black" points="316,-1841.5 316,-1879.5 879,-1879.5 879,-1841.5 316,-1841.5"/>
<text text-anchor="start" x="324" y="-1864.3" font-family="Times,serif" font-size="14.00">0x8051180:</text>
<text text-anchor="start" x="324" y="-1849.3" font-family="Times,serif" font-size="14.00"> if (*(IntToPtrCastExpr&lt;ptr&gt;((PtrToIntCastExpr&lt;int32&gt;(a1) + 164))) != 1):</text>
</g>
<!-- Node0xe503170&#45;&gt;Node0x14d7f110 -->
<g id="edge3" class="edge"><title>Node0xe503170&#45;&gt;Node0x14d7f110</title>
<path fill="none" stroke="black" d="M1090.65,-1940.08C1005.81,-1926.56 836.975,-1899.66 720.682,-1881.13"/>
<polygon fill="black" stroke="black" points="721.077,-1877.65 710.651,-1879.53 719.976,-1884.56 721.077,-1877.65"/>
<text text-anchor="middle" x="949.5" y="-1901.8" font-family="Times,serif" font-size="14.00">a4 == 1</text>
</g>
<!-- Node0xe5002d0 -->
<g id="node5" class="node"><title>Node0xe5002d0</title>
<polygon fill="none" stroke="black" points="1353.5,-1751.5 1353.5,-1789.5 1497.5,-1789.5 1497.5,-1751.5 1353.5,-1751.5"/>
<text text-anchor="start" x="1361.5" y="-1774.3" font-family="Times,serif" font-size="14.00">0x805116a:</text>
<text text-anchor="start" x="1361.5" y="-1759.3" font-family="Times,serif" font-size="14.00"> if (a2 == NULL):</text>
</g>
<!-- Node0xe503170&#45;&gt;Node0xe5002d0 -->
<g id="edge4" class="edge"><title>Node0xe503170&#45;&gt;Node0xe5002d0</title>
<path fill="none" stroke="black" d="M1170.8,-1931.37C1221.44,-1899.58 1330.04,-1831.42 1387.71,-1795.22"/>
<polygon fill="black" stroke="black" points="1389.9,-1797.98 1396.51,-1789.7 1386.18,-1792.05 1389.9,-1797.98"/>
<text text-anchor="middle" x="1339.5" y="-1856.8" font-family="Times,serif" font-size="14.00">a4 != 1</text>
</g>
<!-- Node0xe500d70 -->
<g id="node6" class="node"><title>Node0xe500d70</title>
<polygon fill="none" stroke="black" points="0,-1679.5 0,-1732.5 121,-1732.5 121,-1679.5 0,-1679.5"/>
<text text-anchor="start" x="8" y="-1717.3" font-family="Times,serif" font-size="14.00">0x8051173:</text>
<text text-anchor="start" x="8" y="-1702.3" font-family="Times,serif" font-size="14.00"> g2 = v8</text>
<text text-anchor="start" x="8" y="-1687.3" font-family="Times,serif" font-size="14.00"> return &#45;16512</text>
</g>
<!-- Node0x14d7f110&#45;&gt;Node0xe500d70 -->
<g id="edge5" class="edge"><title>Node0x14d7f110&#45;&gt;Node0xe500d70</title>
<path fill="none" stroke="black" d="M315.887,-1856.12C198.357,-1851.78 84.5039,-1842.49 65.5,-1823 45.376,-1802.36 46.1762,-1768.58 50.8025,-1742.78"/>
<polygon fill="black" stroke="black" points="54.2324,-1743.47 52.8071,-1732.98 47.3744,-1742.07 54.2324,-1743.47"/>
<text text-anchor="middle" x="322.5" y="-1811.8" font-family="Times,serif" font-size="14.00">*(IntToPtrCastExpr&lt;ptr&gt;((PtrToIntCastExpr&lt;int32&gt;(a1) + 164))) != 1</text>
</g>
<!-- Node0x88953b0 -->
<g id="node7" class="node"><title>Node0x88953b0</title>
<polygon fill="none" stroke="black" points="502.5,-1751.5 502.5,-1789.5 640.5,-1789.5 640.5,-1751.5 502.5,-1751.5"/>
<text text-anchor="start" x="510.5" y="-1774.3" font-family="Times,serif" font-size="14.00">0x805116a:</text>
<text text-anchor="start" x="510.5" y="-1759.3" font-family="Times,serif" font-size="14.00"> if (a2 != NULL):</text>
</g>
<!-- Node0x14d7f110&#45;&gt;Node0x88953b0 -->
<g id="edge6" class="edge"><title>Node0x14d7f110&#45;&gt;Node0x88953b0</title>
<path fill="none" stroke="black" d="M592.113,-1841.27C588.557,-1829.23 583.828,-1813.22 579.796,-1799.58"/>
<polygon fill="black" stroke="black" points="583.07,-1798.31 576.88,-1789.71 576.357,-1800.29 583.07,-1798.31"/>
<text text-anchor="middle" x="846.5" y="-1811.8" font-family="Times,serif" font-size="14.00">*(IntToPtrCastExpr&lt;ptr&gt;((PtrToIntCastExpr&lt;int32&gt;(a1) + 164))) == 1</text>
</g>
<!-- Node0xec2df80 -->
<g id="node8" class="node"><title>Node0xec2df80</title>
<polygon fill="none" stroke="black" points="2213,-1535.5 2213,-1588.5 2334,-1588.5 2334,-1535.5 2213,-1535.5"/>
<text text-anchor="start" x="2221" y="-1573.3" font-family="Times,serif" font-size="14.00">0x8051173:</text>
<text text-anchor="start" x="2221" y="-1558.3" font-family="Times,serif" font-size="14.00"> g2 = v8</text>
<text text-anchor="start" x="2221" y="-1543.3" font-family="Times,serif" font-size="14.00"> return &#45;16512</text>
</g>
<!-- Node0xe5002d0&#45;&gt;Node0xec2df80 -->
<g id="edge7" class="edge"><title>Node0xe5002d0&#45;&gt;Node0xec2df80</title>
<path fill="none" stroke="black" d="M1497.8,-1751.89C1658.49,-1712.76 2043.63,-1618.98 2202.81,-1580.21"/>
<polygon fill="black" stroke="black" points="2204.07,-1583.51 2212.96,-1577.74 2202.42,-1576.71 2204.07,-1583.51"/>
<text text-anchor="middle" x="1841.5" y="-1702.3" font-family="Times,serif" font-size="14.00">a2 == NULL</text>
</g>
<!-- Node0xae440b0 -->
<g id="node9" class="node"><title>Node0xae440b0</title>
<polygon fill="none" stroke="black" points="1051,-1607.5 1051,-1660.5 1800,-1660.5 1800,-1607.5 1051,-1607.5"/>
<text text-anchor="start" x="1059" y="-1645.3" font-family="Times,serif" font-size="14.00">0x8051190:</text>
<text text-anchor="start" x="1059" y="-1630.3" font-family="Times,serif" font-size="14.00"> v5 = mbedtls_md_info_from_type(*(IntToPtrCastExpr&lt;ptr&gt;((PtrToIntCastExpr&lt;int32&gt;(a1) + 168))))</text>
<text text-anchor="start" x="1059" y="-1615.3" font-family="Times,serif" font-size="14.00"> g3 = v5</text>
</g>
<!-- Node0xe5002d0&#45;&gt;Node0xae440b0 -->
<g id="edge8" class="edge"><title>Node0xe5002d0&#45;&gt;Node0xae440b0</title>
<path fill="none" stroke="black" d="M1425.5,-1751.36C1425.5,-1730.82 1425.5,-1696.82 1425.5,-1670.87"/>
<polygon fill="black" stroke="black" points="1429,-1670.66 1425.5,-1660.66 1422,-1670.66 1429,-1670.66"/>
<text text-anchor="middle" x="1469.5" y="-1702.3" font-family="Times,serif" font-size="14.00">a2 != NULL</text>
</g>
<!-- Node0xe5025c0 -->
<g id="node10" class="node"><title>Node0xe5025c0</title>
<polygon fill="none" stroke="black" points="1286.5,-23.5 1286.5,-59.5 1340.5,-59.5 1340.5,-23.5 1286.5,-23.5"/>
<text text-anchor="start" x="1294.5" y="-37.8" font-family="Times,serif" font-size="14.00">exit:</text>
</g>
<!-- Node0xe500d70&#45;&gt;Node0xe5025c0 -->
<g id="edge9" class="edge"><title>Node0xe500d70&#45;&gt;Node0xe5025c0</title>
<path fill="none" stroke="black" d="M60.5,-1679.35C60.5,-1650.91 60.5,-1603.68 60.5,-1563 60.5,-1563 60.5,-1563 60.5,-123 60.5,-15.7935 -59.4108,-100.082 327.5,-78 697.184,-56.9016 1145.6,-46.1218 1276.17,-43.2784"/>
<polygon fill="black" stroke="black" points="1276.5,-46.7722 1286.42,-43.0573 1276.35,-39.7738 1276.5,-46.7722"/>
</g>
<!-- Node0xe500e10 -->
<g id="node11" class="node"><title>Node0xe500e10</title>
<polygon fill="none" stroke="black" points="197,-1607.5 197,-1660.5 946,-1660.5 946,-1607.5 197,-1607.5"/>
<text text-anchor="start" x="205" y="-1645.3" font-family="Times,serif" font-size="14.00">0x8051190:</text>
<text text-anchor="start" x="205" y="-1630.3" font-family="Times,serif" font-size="14.00"> v5 = mbedtls_md_info_from_type(*(IntToPtrCastExpr&lt;ptr&gt;((PtrToIntCastExpr&lt;int32&gt;(a1) + 168))))</text>
<text text-anchor="start" x="205" y="-1615.3" font-family="Times,serif" font-size="14.00"> g3 = v5</text>
</g>
<!-- Node0x88953b0&#45;&gt;Node0xe500e10 -->
<g id="edge10" class="edge"><title>Node0x88953b0&#45;&gt;Node0xe500e10</title>
<path fill="none" stroke="black" d="M571.5,-1751.36C571.5,-1730.82 571.5,-1696.82 571.5,-1670.87"/>
<polygon fill="black" stroke="black" points="575,-1670.66 571.5,-1660.66 568,-1670.66 575,-1670.66"/>
<text text-anchor="middle" x="615.5" y="-1702.3" font-family="Times,serif" font-size="14.00">a2 != NULL</text>
</g>
<!-- Node0x14d7fb40 -->
<g id="node12" class="node"><title>Node0x14d7fb40</title>
<polygon fill="none" stroke="black" points="115,-1061 115,-1114 236,-1114 236,-1061 115,-1061"/>
<text text-anchor="start" x="123" y="-1098.8" font-family="Times,serif" font-size="14.00">0x8051173:</text>
<text text-anchor="start" x="123" y="-1083.8" font-family="Times,serif" font-size="14.00"> g2 = v8</text>
<text text-anchor="start" x="123" y="-1068.8" font-family="Times,serif" font-size="14.00"> return &#45;16512</text>
</g>
<!-- Node0x88953b0&#45;&gt;Node0x14d7fb40 -->
<g id="edge11" class="edge"><title>Node0x88953b0&#45;&gt;Node0x14d7fb40</title>
<path fill="none" stroke="black" d="M502.394,-1760.85C387.456,-1744.5 169.5,-1704.36 169.5,-1635 169.5,-1635 169.5,-1635 169.5,-1235.5 169.5,-1197.62 171.513,-1154.3 173.207,-1124.56"/>
<polygon fill="black" stroke="black" points="176.72,-1124.43 173.813,-1114.24 169.732,-1124.02 176.72,-1124.43"/>
<text text-anchor="middle" x="216.5" y="-1450.8" font-family="Times,serif" font-size="14.00">a2 == NULL</text>
</g>
<!-- Node0xec2df80&#45;&gt;Node0xe5025c0 -->
<g id="edge12" class="edge"><title>Node0xec2df80&#45;&gt;Node0xe5025c0</title>
<path fill="none" stroke="black" d="M2334.21,-1551.74C2420.03,-1536.91 2566.5,-1504.43 2566.5,-1455.5 2566.5,-1455.5 2566.5,-1455.5 2566.5,-123 2566.5,-60.43 1558.32,-45.3395 1350.64,-42.8947"/>
<polygon fill="black" stroke="black" points="1350.58,-39.3939 1340.54,-42.7785 1350.5,-46.3935 1350.58,-39.3939"/>
</g>
<!-- Node0x151b8de0 -->
<g id="node13" class="node"><title>Node0x151b8de0</title>
<polygon fill="none" stroke="black" points="1373,-1480.5 1373,-1516.5 1478,-1516.5 1478,-1480.5 1373,-1480.5"/>
<text text-anchor="start" x="1381" y="-1494.8" font-family="Times,serif" font-size="14.00">if (v5 == 0):</text>
</g>
<!-- Node0xae440b0&#45;&gt;Node0x151b8de0 -->
<g id="edge13" class="edge"><title>Node0xae440b0&#45;&gt;Node0x151b8de0</title>
<path fill="none" stroke="black" d="M1425.5,-1607.26C1425.5,-1584.13 1425.5,-1550.28 1425.5,-1526.71"/>
<polygon fill="black" stroke="black" points="1429,-1526.68 1425.5,-1516.68 1422,-1526.68 1429,-1526.68"/>
</g>
<!-- Node0x14d7ff50 -->
<g id="node14" class="node"><title>Node0x14d7ff50</title>
<polygon fill="none" stroke="black" points="521,-1480.5 521,-1516.5 620,-1516.5 620,-1480.5 521,-1480.5"/>
<text text-anchor="start" x="529" y="-1494.8" font-family="Times,serif" font-size="14.00">if (v5 != 0):</text>
</g>
<!-- Node0xe500e10&#45;&gt;Node0x14d7ff50 -->
<g id="edge14" class="edge"><title>Node0xe500e10&#45;&gt;Node0x14d7ff50</title>
<path fill="none" stroke="black" d="M571.307,-1607.26C571.134,-1584.13 570.88,-1550.28 570.704,-1526.71"/>
<polygon fill="black" stroke="black" points="574.204,-1526.65 570.629,-1516.68 567.204,-1526.71 574.204,-1526.65"/>
</g>
<!-- Node0x14d7fb40&#45;&gt;Node0xe5025c0 -->
<g id="edge15" class="edge"><title>Node0x14d7fb40&#45;&gt;Node0xe5025c0</title>
<path fill="none" stroke="black" d="M157.252,-1060.79C134.482,-1026.12 98.5,-961.661 98.5,-900.5 98.5,-900.5 98.5,-900.5 98.5,-123 98.5,-62.4471 1072,-45.7987 1276.21,-42.9725"/>
<polygon fill="black" stroke="black" points="1276.47,-46.4694 1286.42,-42.8339 1276.37,-39.47 1276.47,-46.4694"/>
</g>
<!-- Node0x14d7fbc0 -->
<g id="node15" class="node"><title>Node0x14d7fbc0</title>
<polygon fill="none" stroke="black" points="1235,-1273.5 1235,-1326.5 1356,-1326.5 1356,-1273.5 1235,-1273.5"/>
<text text-anchor="start" x="1243" y="-1311.3" font-family="Times,serif" font-size="14.00">0x8051173:</text>
<text text-anchor="start" x="1243" y="-1296.3" font-family="Times,serif" font-size="14.00"> g2 = v8</text>
<text text-anchor="start" x="1243" y="-1281.3" font-family="Times,serif" font-size="14.00"> return &#45;16512</text>
</g>
<!-- Node0x151b8de0&#45;&gt;Node0x14d7fbc0 -->
<g id="edge16" class="edge"><title>Node0x151b8de0&#45;&gt;Node0x14d7fbc0</title>
<path fill="none" stroke="black" d="M1380,-1480.48C1356.69,-1469.39 1330.01,-1452.54 1314.5,-1429 1296.6,-1401.84 1292.87,-1364.46 1293.01,-1337.11"/>
<polygon fill="black" stroke="black" points="1296.52,-1336.87 1293.24,-1326.79 1289.52,-1336.71 1296.52,-1336.87"/>
<text text-anchor="middle" x="1375.5" y="-1450.8" font-family="Times,serif" font-size="14.00">v5 == 0</text>
</g>
<!-- Node0x14d7de80 -->
<g id="node16" class="node"><title>Node0x14d7de80</title>
<polygon fill="none" stroke="black" points="1323,-1345.5 1323,-1428.5 1850,-1428.5 1850,-1345.5 1323,-1345.5"/>
<text text-anchor="start" x="1331" y="-1413.3" font-family="Times,serif" font-size="14.00">0x80511a7:</text>
<text text-anchor="start" x="1331" y="-1398.3" font-family="Times,serif" font-size="14.00"> v14 = *(IntToPtrCastExpr&lt;ptr&gt;((PtrToIntCastExpr&lt;int32&gt;(a1) + 4)))</text>
<text text-anchor="start" x="1331" y="-1383.3" font-family="Times,serif" font-size="14.00"> v6 = (mbedtls_md_get_size(v5) % 256)</text>
<text text-anchor="start" x="1331" y="-1368.3" font-family="Times,serif" font-size="14.00"> v2 = (2 * v6)</text>
<text text-anchor="start" x="1331" y="-1353.3" font-family="Times,serif" font-size="14.00"> g6 = v2</text>
</g>
<!-- Node0x151b8de0&#45;&gt;Node0x14d7de80 -->
<g id="edge17" class="edge"><title>Node0x151b8de0&#45;&gt;Node0x14d7de80</title>
<path fill="none" stroke="black" d="M1450.66,-1480.39C1468.85,-1468.02 1494.36,-1450.67 1518.36,-1434.34"/>
<polygon fill="black" stroke="black" points="1520.48,-1437.14 1526.78,-1428.62 1516.54,-1431.35 1520.48,-1437.14"/>
<text text-anchor="middle" x="1522.5" y="-1450.8" font-family="Times,serif" font-size="14.00">v5 != 0</text>
</g>
<!-- Node0x14d7ff50&#45;&gt;Node0x14d7fb40 -->
<g id="edge19" class="edge"><title>Node0x14d7ff50&#45;&gt;Node0x14d7fb40</title>
<path fill="none" stroke="black" d="M520.93,-1490.74C451.477,-1480.34 330.041,-1458.49 297.5,-1429 207.217,-1347.17 183.706,-1193.77 177.614,-1124.3"/>
<polygon fill="black" stroke="black" points="181.1,-1123.98 176.807,-1114.29 174.122,-1124.54 181.1,-1123.98"/>
<text text-anchor="middle" x="256.5" y="-1296.3" font-family="Times,serif" font-size="14.00">v5 == 0</text>
</g>
<!-- Node0x14d80160 -->
<g id="node17" class="node"><title>Node0x14d80160</title>
<polygon fill="none" stroke="black" points="307,-1345.5 307,-1428.5 834,-1428.5 834,-1345.5 307,-1345.5"/>
<text text-anchor="start" x="315" y="-1413.3" font-family="Times,serif" font-size="14.00">0x80511a7:</text>
<text text-anchor="start" x="315" y="-1398.3" font-family="Times,serif" font-size="14.00"> v14 = *(IntToPtrCastExpr&lt;ptr&gt;((PtrToIntCastExpr&lt;int32&gt;(a1) + 4)))</text>
<text text-anchor="start" x="315" y="-1383.3" font-family="Times,serif" font-size="14.00"> v6 = (mbedtls_md_get_size(v5) % 256)</text>
<text text-anchor="start" x="315" y="-1368.3" font-family="Times,serif" font-size="14.00"> v2 = (2 * v6)</text>
<text text-anchor="start" x="315" y="-1353.3" font-family="Times,serif" font-size="14.00"> g6 = v2</text>
</g>
<!-- Node0x14d7ff50&#45;&gt;Node0x14d80160 -->
<g id="edge18" class="edge"><title>Node0x14d7ff50&#45;&gt;Node0x14d80160</title>
<path fill="none" stroke="black" d="M570.5,-1480.39C570.5,-1469.15 570.5,-1453.81 570.5,-1438.85"/>
<polygon fill="black" stroke="black" points="574,-1438.62 570.5,-1428.62 567,-1438.62 574,-1438.62"/>
<text text-anchor="middle" x="597.5" y="-1450.8" font-family="Times,serif" font-size="14.00">v5 != 0</text>
</g>
<!-- Node0x14d7fbc0&#45;&gt;Node0xe5025c0 -->
<g id="edge20" class="edge"><title>Node0x14d7fbc0&#45;&gt;Node0xe5025c0</title>
<path fill="none" stroke="black" d="M1302.41,-1273.2C1307.48,-1251.96 1313.5,-1221 1313.5,-1193.5 1313.5,-1193.5 1313.5,-1193.5 1313.5,-123 1313.5,-105.286 1313.5,-85.379 1313.5,-69.7932"/>
<polygon fill="black" stroke="black" points="1317,-69.7734 1313.5,-59.7734 1310,-69.7735 1317,-69.7734"/>
</g>
<!-- Node0x14d7d870 -->
<g id="node18" class="node"><title>Node0x14d7d870</title>
<polygon fill="none" stroke="black" points="1476.5,-1218.5 1476.5,-1254.5 1676.5,-1254.5 1676.5,-1218.5 1476.5,-1218.5"/>
<text text-anchor="start" x="1484.5" y="-1232.8" font-family="Times,serif" font-size="14.00">if (v14 &lt; ((a7 + 2) + v2)):</text>
</g>
<!-- Node0x14d7de80&#45;&gt;Node0x14d7d870 -->
<g id="edge21" class="edge"><title>Node0x14d7de80&#45;&gt;Node0x14d7d870</title>
<path fill="none" stroke="black" d="M1583.77,-1345.42C1582.05,-1319.89 1579.87,-1287.61 1578.35,-1265.04"/>
<polygon fill="black" stroke="black" points="1581.83,-1264.55 1577.67,-1254.81 1574.85,-1265.02 1581.83,-1264.55"/>
</g>
<!-- Node0xae42970 -->
<g id="node19" class="node"><title>Node0xae42970</title>
<polygon fill="none" stroke="black" points="346.5,-1218.5 346.5,-1254.5 558.5,-1254.5 558.5,-1218.5 346.5,-1218.5"/>
<text text-anchor="start" x="354.5" y="-1232.8" font-family="Times,serif" font-size="14.00">if (v14 &gt;= ((a7 + 2) + v2)):</text>
</g>
<!-- Node0x14d80160&#45;&gt;Node0xae42970 -->
<g id="edge22" class="edge"><title>Node0x14d80160&#45;&gt;Node0xae42970</title>
<path fill="none" stroke="black" d="M538.256,-1345.42C517.32,-1319.07 490.682,-1285.55 472.694,-1262.91"/>
<polygon fill="black" stroke="black" points="475.214,-1260.46 466.253,-1254.81 469.734,-1264.81 475.214,-1260.46"/>
</g>
<!-- Node0x14d7fc40 -->
<g id="node20" class="node"><title>Node0x14d7fc40</title>
<polygon fill="none" stroke="black" points="1330,-936.5 1330,-989.5 1451,-989.5 1451,-936.5 1330,-936.5"/>
<text text-anchor="start" x="1338" y="-974.3" font-family="Times,serif" font-size="14.00">0x8051173:</text>
<text text-anchor="start" x="1338" y="-959.3" font-family="Times,serif" font-size="14.00"> g2 = v8</text>
<text text-anchor="start" x="1338" y="-944.3" font-family="Times,serif" font-size="14.00"> return &#45;16512</text>
</g>
<!-- Node0x14d7d870&#45;&gt;Node0x14d7fc40 -->
<g id="edge23" class="edge"><title>Node0x14d7d870&#45;&gt;Node0x14d7fc40</title>
<path fill="none" stroke="black" d="M1476.14,-1222.37C1450.25,-1216.97 1427.21,-1209.66 1418.5,-1200 1368.86,-1144.97 1375.1,-1050.97 1383.23,-999.789"/>
<polygon fill="black" stroke="black" points="1386.7,-1000.29 1384.93,-989.846 1379.8,-999.117 1386.7,-1000.29"/>
<text text-anchor="middle" x="1495.5" y="-1188.8" font-family="Times,serif" font-size="14.00">v14 &lt; ((a7 + 2) + v2)</text>
</g>
<!-- Node0xae46740 -->
<g id="node21" class="node"><title>Node0xae46740</title>
<polygon fill="none" stroke="black" points="1425,-1008.5 1425,-1166.5 1728,-1166.5 1728,-1008.5 1425,-1008.5"/>
<text text-anchor="start" x="1433" y="-1151.3" font-family="Times,serif" font-size="14.00">0x80511ce:</text>
<text text-anchor="start" x="1433" y="-1136.3" font-family="Times,serif" font-size="14.00"> v11 = PtrToIntCastExpr&lt;int32&gt;(a9)</text>
<text text-anchor="start" x="1433" y="-1121.3" font-family="Times,serif" font-size="14.00"> memset(a9, 0, v14)</text>
<text text-anchor="start" x="1433" y="-1106.3" font-family="Times,serif" font-size="14.00"> *(a9) = 0</text>
<text text-anchor="start" x="1433" y="-1091.3" font-family="Times,serif" font-size="14.00"> v1 = (v11 + 1)</text>
<text text-anchor="start" x="1433" y="-1076.3" font-family="Times,serif" font-size="14.00"> g237 = (v1 == 0)</text>
<text text-anchor="start" x="1433" y="-1061.3" font-family="Times,serif" font-size="14.00"> g4 = v6</text>
<text text-anchor="start" x="1433" y="-1046.3" font-family="Times,serif" font-size="14.00"> g1 = a3</text>
<text text-anchor="start" x="1433" y="-1031.3" font-family="Times,serif" font-size="14.00"> IntToPtrCastExpr&lt;ptr&gt;(g5)(a3, v1, v6)</text>
<text text-anchor="start" x="1433" y="-1016.3" font-family="Times,serif" font-size="14.00"> v12 = g1</text>
</g>
<!-- Node0x14d7d870&#45;&gt;Node0xae46740 -->
<g id="edge24" class="edge"><title>Node0x14d7d870&#45;&gt;Node0xae46740</title>
<path fill="none" stroke="black" d="M1576.5,-1218.35C1576.5,-1207.6 1576.5,-1192.84 1576.5,-1177.11"/>
<polygon fill="black" stroke="black" points="1580,-1176.66 1576.5,-1166.66 1573,-1176.66 1580,-1176.66"/>
<text text-anchor="middle" x="1659.5" y="-1188.8" font-family="Times,serif" font-size="14.00">v14 &gt;= ((a7 + 2) + v2)</text>
</g>
<!-- Node0xae42970&#45;&gt;Node0x14d7fb40 -->
<g id="edge26" class="edge"><title>Node0xae42970&#45;&gt;Node0x14d7fb40</title>
<path fill="none" stroke="black" d="M405.941,-1218.44C373.179,-1205.78 328.716,-1187.26 291.5,-1167 266.048,-1153.14 239.153,-1135.17 217.675,-1119.92"/>
<polygon fill="black" stroke="black" points="219.591,-1116.99 209.424,-1114.01 215.514,-1122.68 219.591,-1116.99"/>
</g>
<!-- Node0x7c46620 -->
<g id="node22" class="node"><title>Node0x7c46620</title>
<polygon fill="none" stroke="black" points="301,-1008.5 301,-1166.5 604,-1166.5 604,-1008.5 301,-1008.5"/>
<text text-anchor="start" x="309" y="-1151.3" font-family="Times,serif" font-size="14.00">0x80511ce:</text>
<text text-anchor="start" x="309" y="-1136.3" font-family="Times,serif" font-size="14.00"> v11 = PtrToIntCastExpr&lt;int32&gt;(a9)</text>
<text text-anchor="start" x="309" y="-1121.3" font-family="Times,serif" font-size="14.00"> memset(a9, 0, v14)</text>
<text text-anchor="start" x="309" y="-1106.3" font-family="Times,serif" font-size="14.00"> *(a9) = 0</text>
<text text-anchor="start" x="309" y="-1091.3" font-family="Times,serif" font-size="14.00"> v1 = (v11 + 1)</text>
<text text-anchor="start" x="309" y="-1076.3" font-family="Times,serif" font-size="14.00"> g237 = (v1 == 0)</text>
<text text-anchor="start" x="309" y="-1061.3" font-family="Times,serif" font-size="14.00"> g4 = v6</text>
<text text-anchor="start" x="309" y="-1046.3" font-family="Times,serif" font-size="14.00"> g1 = a3</text>
<text text-anchor="start" x="309" y="-1031.3" font-family="Times,serif" font-size="14.00"> IntToPtrCastExpr&lt;ptr&gt;(g5)(a3, v1, v6)</text>
<text text-anchor="start" x="309" y="-1016.3" font-family="Times,serif" font-size="14.00"> v12 = g1</text>
</g>
<!-- Node0xae42970&#45;&gt;Node0x7c46620 -->
<g id="edge25" class="edge"><title>Node0xae42970&#45;&gt;Node0x7c46620</title>
<path fill="none" stroke="black" d="M452.5,-1218.35C452.5,-1207.6 452.5,-1192.84 452.5,-1177.11"/>
<polygon fill="black" stroke="black" points="456,-1176.66 452.5,-1166.66 449,-1176.66 456,-1176.66"/>
<text text-anchor="middle" x="535.5" y="-1188.8" font-family="Times,serif" font-size="14.00">v14 &gt;= ((a7 + 2) + v2)</text>
</g>
<!-- Node0x14d7fc40&#45;&gt;Node0xe5025c0 -->
<g id="edge27" class="edge"><title>Node0x14d7fc40&#45;&gt;Node0xe5025c0</title>
<path fill="none" stroke="black" d="M1375.09,-936.095C1364.18,-915.315 1351.5,-885.01 1351.5,-856.5 1351.5,-856.5 1351.5,-856.5 1351.5,-123 1351.5,-103.419 1342.19,-83.5009 1332.79,-68.3765"/>
<polygon fill="black" stroke="black" points="1335.44,-66.0374 1327,-59.6247 1329.6,-69.8971 1335.44,-66.0374"/>
</g>
<!-- Node0xae46940 -->
<g id="node23" class="node"><title>Node0xae46940</title>
<polygon fill="none" stroke="black" points="1522.5,-881.5 1522.5,-917.5 1630.5,-917.5 1630.5,-881.5 1522.5,-881.5"/>
<text text-anchor="start" x="1530.5" y="-895.8" font-family="Times,serif" font-size="14.00">if (v12 != 0):</text>
</g>
<!-- Node0xae46740&#45;&gt;Node0xae46940 -->
<g id="edge28" class="edge"><title>Node0xae46740&#45;&gt;Node0xae46940</title>
<path fill="none" stroke="black" d="M1576.5,-1008.43C1576.5,-979.813 1576.5,-949.262 1576.5,-927.996"/>
<polygon fill="black" stroke="black" points="1580,-927.78 1576.5,-917.78 1573,-927.78 1580,-927.78"/>
</g>
<!-- Node0xe501ab0 -->
<g id="node24" class="node"><title>Node0xe501ab0</title>
<polygon fill="none" stroke="black" points="398.5,-881.5 398.5,-917.5 506.5,-917.5 506.5,-881.5 398.5,-881.5"/>
<text text-anchor="start" x="406.5" y="-895.8" font-family="Times,serif" font-size="14.00">if (v12 != 0):</text>
</g>
<!-- Node0x7c46620&#45;&gt;Node0xe501ab0 -->
<g id="edge29" class="edge"><title>Node0x7c46620&#45;&gt;Node0xe501ab0</title>
<path fill="none" stroke="black" d="M452.5,-1008.43C452.5,-979.813 452.5,-949.262 452.5,-927.996"/>
<polygon fill="black" stroke="black" points="456,-927.78 452.5,-917.78 449,-927.78 456,-927.78"/>
</g>
<!-- Node0x14d7fcc0 -->
<g id="node25" class="node"><title>Node0x14d7fcc0</title>
<polygon fill="none" stroke="black" points="1366,-374.5 1366,-427.5 1533,-427.5 1533,-374.5 1366,-374.5"/>
<text text-anchor="start" x="1374" y="-412.3" font-family="Times,serif" font-size="14.00">0x8051173:</text>
<text text-anchor="start" x="1374" y="-397.3" font-family="Times,serif" font-size="14.00"> g2 = v8</text>
<text text-anchor="start" x="1374" y="-382.3" font-family="Times,serif" font-size="14.00"> return (v12 &#45; 17536)</text>
</g>
<!-- Node0xae46940&#45;&gt;Node0x14d7fcc0 -->
<g id="edge30" class="edge"><title>Node0xae46940&#45;&gt;Node0x14d7fcc0</title>
<path fill="none" stroke="black" d="M1531.13,-881.399C1508.51,-870.356 1483.13,-853.585 1469.5,-830 1395.65,-702.209 1424.26,-515.399 1440.87,-437.825"/>
<polygon fill="black" stroke="black" points="1444.39,-438.141 1443.12,-427.622 1437.55,-436.632 1444.39,-438.141"/>
<text text-anchor="middle" x="1530" y="-851.8" font-family="Times,serif" font-size="14.00">v12 != 0</text>
</g>
<!-- Node0x14d7da50 -->
<g id="node26" class="node"><title>Node0x14d7da50</title>
<polygon fill="none" stroke="black" points="1478,-446.5 1478,-829.5 2057,-829.5 2057,-446.5 1478,-446.5"/>
<text text-anchor="start" x="1486" y="-814.3" font-family="Times,serif" font-size="14.00">0x805121b:</text>
<text text-anchor="start" x="1486" y="-799.3" font-family="Times,serif" font-size="14.00"> v3 = (v1 + v6)</text>
<text text-anchor="start" x="1486" y="-784.3" font-family="Times,serif" font-size="14.00"> g4 = v3</text>
<text text-anchor="start" x="1486" y="-769.3" font-family="Times,serif" font-size="14.00"> mbedtls_md(g3, a5, a6, v3)</text>
<text text-anchor="start" x="1486" y="-754.3" font-family="Times,serif" font-size="14.00"> v13 = ((((&#45;2 &#45; a7) + v14) &#45; v2) + (v3 + v6))</text>
<text text-anchor="start" x="1486" y="-739.3" font-family="Times,serif" font-size="14.00"> *(IntToPtrCastExpr&lt;ptr&gt;(v13)) = 1</text>
<text text-anchor="start" x="1486" y="-724.3" font-family="Times,serif" font-size="14.00"> g6 = a8</text>
<text text-anchor="start" x="1486" y="-709.3" font-family="Times,serif" font-size="14.00"> memcpy(IntToPtrCastExpr&lt;ptr&gt;((v13 + 1)), IntToPtrCastExpr&lt;ptr&gt;(a8), a7)</text>
<text text-anchor="start" x="1486" y="-694.3" font-family="Times,serif" font-size="14.00"> v4 = &amp;(v7)</text>
<text text-anchor="start" x="1486" y="-679.3" font-family="Times,serif" font-size="14.00"> g4 = v4</text>
<text text-anchor="start" x="1486" y="-664.3" font-family="Times,serif" font-size="14.00"> mbedtls_md_init(&amp;(v7))</text>
<text text-anchor="start" x="1486" y="-649.3" font-family="Times,serif" font-size="14.00"> g1 = v4</text>
<text text-anchor="start" x="1486" y="-634.3" font-family="Times,serif" font-size="14.00"> mbedtls_md_setup(&amp;(v7), g3, 0)</text>
<text text-anchor="start" x="1486" y="-619.3" font-family="Times,serif" font-size="14.00"> v10 = ((v14 &#45; 1) &#45; v6)</text>
<text text-anchor="start" x="1486" y="-604.3" font-family="Times,serif" font-size="14.00"> v15 = ((v11 + 1) + v6)</text>
<text text-anchor="start" x="1486" y="-589.3" font-family="Times,serif" font-size="14.00"> g3 = v15</text>
<text text-anchor="start" x="1486" y="-574.3" font-family="Times,serif" font-size="14.00"> g6 = v10</text>
<text text-anchor="start" x="1486" y="-559.3" font-family="Times,serif" font-size="14.00"> g1 = v15</text>
<text text-anchor="start" x="1486" y="-544.3" font-family="Times,serif" font-size="14.00"> g4 = v1</text>
<text text-anchor="start" x="1486" y="-529.3" font-family="Times,serif" font-size="14.00"> mgf_mask(v6, &amp;(v7), 0, v3, v9)</text>
<text text-anchor="start" x="1486" y="-514.3" font-family="Times,serif" font-size="14.00"> g6 = v6</text>
<text text-anchor="start" x="1486" y="-499.3" font-family="Times,serif" font-size="14.00"> g4 = g3</text>
<text text-anchor="start" x="1486" y="-484.3" font-family="Times,serif" font-size="14.00"> g1 = v1</text>
<text text-anchor="start" x="1486" y="-469.3" font-family="Times,serif" font-size="14.00"> g1 = mgf_mask(v10, &amp;(v7), 0, v3, v9)</text>
<text text-anchor="start" x="1486" y="-454.3" font-family="Times,serif" font-size="14.00"> mbedtls_md_free(BitCastExpr&lt;ptr&gt;(&amp;(v7)))</text>
</g>
<!-- Node0xae46940&#45;&gt;Node0x14d7da50 -->
<g id="edge31" class="edge"><title>Node0xae46940&#45;&gt;Node0x14d7da50</title>
<path fill="none" stroke="black" d="M1589.03,-881.473C1596.95,-870.717 1608.11,-855.553 1621.03,-837.996"/>
<polygon fill="black" stroke="black" points="1623.98,-839.896 1627.09,-829.768 1618.34,-835.747 1623.98,-839.896"/>
<text text-anchor="middle" x="1647" y="-851.8" font-family="Times,serif" font-size="14.00">v12 == 0</text>
</g>
<!-- Node0x14d81180 -->
<g id="node27" class="node"><title>Node0x14d81180</title>
<polygon fill="none" stroke="black" points="113,-245.5 113,-298.5 280,-298.5 280,-245.5 113,-245.5"/>
<text text-anchor="start" x="121" y="-283.3" font-family="Times,serif" font-size="14.00">0x8051173:</text>
<text text-anchor="start" x="121" y="-268.3" font-family="Times,serif" font-size="14.00"> g2 = v8</text>
<text text-anchor="start" x="121" y="-253.3" font-family="Times,serif" font-size="14.00"> return (v12 &#45; 17536)</text>
</g>
<!-- Node0xe501ab0&#45;&gt;Node0x14d81180 -->
<g id="edge32" class="edge"><title>Node0xe501ab0&#45;&gt;Node0x14d81180</title>
<path fill="none" stroke="black" d="M398.302,-891.082C332.965,-880.909 228.978,-860.363 205.5,-830 82.7771,-671.288 153.034,-404.056 184.102,-308.388"/>
<polygon fill="black" stroke="black" points="187.513,-309.22 187.331,-298.627 180.867,-307.022 187.513,-309.22"/>
<text text-anchor="middle" x="237" y="-634.3" font-family="Times,serif" font-size="14.00">v12 != 0</text>
</g>
<!-- Node0xe502360 -->
<g id="node28" class="node"><title>Node0xe502360</title>
<polygon fill="none" stroke="black" points="278,-446.5 278,-829.5 857,-829.5 857,-446.5 278,-446.5"/>
<text text-anchor="start" x="286" y="-814.3" font-family="Times,serif" font-size="14.00">0x805121b:</text>
<text text-anchor="start" x="286" y="-799.3" font-family="Times,serif" font-size="14.00"> v3 = (v1 + v6)</text>
<text text-anchor="start" x="286" y="-784.3" font-family="Times,serif" font-size="14.00"> g4 = v3</text>
<text text-anchor="start" x="286" y="-769.3" font-family="Times,serif" font-size="14.00"> mbedtls_md(g3, a5, a6, v3)</text>
<text text-anchor="start" x="286" y="-754.3" font-family="Times,serif" font-size="14.00"> v13 = ((((&#45;2 &#45; a7) + v14) &#45; v2) + (v3 + v6))</text>
<text text-anchor="start" x="286" y="-739.3" font-family="Times,serif" font-size="14.00"> *(IntToPtrCastExpr&lt;ptr&gt;(v13)) = 1</text>
<text text-anchor="start" x="286" y="-724.3" font-family="Times,serif" font-size="14.00"> g6 = a8</text>
<text text-anchor="start" x="286" y="-709.3" font-family="Times,serif" font-size="14.00"> memcpy(IntToPtrCastExpr&lt;ptr&gt;((v13 + 1)), IntToPtrCastExpr&lt;ptr&gt;(a8), a7)</text>
<text text-anchor="start" x="286" y="-694.3" font-family="Times,serif" font-size="14.00"> v4 = &amp;(v7)</text>
<text text-anchor="start" x="286" y="-679.3" font-family="Times,serif" font-size="14.00"> g4 = v4</text>
<text text-anchor="start" x="286" y="-664.3" font-family="Times,serif" font-size="14.00"> mbedtls_md_init(&amp;(v7))</text>
<text text-anchor="start" x="286" y="-649.3" font-family="Times,serif" font-size="14.00"> g1 = v4</text>
<text text-anchor="start" x="286" y="-634.3" font-family="Times,serif" font-size="14.00"> mbedtls_md_setup(&amp;(v7), g3, 0)</text>
<text text-anchor="start" x="286" y="-619.3" font-family="Times,serif" font-size="14.00"> v10 = ((v14 &#45; 1) &#45; v6)</text>
<text text-anchor="start" x="286" y="-604.3" font-family="Times,serif" font-size="14.00"> v15 = ((v11 + 1) + v6)</text>
<text text-anchor="start" x="286" y="-589.3" font-family="Times,serif" font-size="14.00"> g3 = v15</text>
<text text-anchor="start" x="286" y="-574.3" font-family="Times,serif" font-size="14.00"> g6 = v10</text>
<text text-anchor="start" x="286" y="-559.3" font-family="Times,serif" font-size="14.00"> g1 = v15</text>
<text text-anchor="start" x="286" y="-544.3" font-family="Times,serif" font-size="14.00"> g4 = v1</text>
<text text-anchor="start" x="286" y="-529.3" font-family="Times,serif" font-size="14.00"> mgf_mask(v6, &amp;(v7), 0, v3, v9)</text>
<text text-anchor="start" x="286" y="-514.3" font-family="Times,serif" font-size="14.00"> g6 = v6</text>
<text text-anchor="start" x="286" y="-499.3" font-family="Times,serif" font-size="14.00"> g4 = g3</text>
<text text-anchor="start" x="286" y="-484.3" font-family="Times,serif" font-size="14.00"> g1 = v1</text>
<text text-anchor="start" x="286" y="-469.3" font-family="Times,serif" font-size="14.00"> g1 = mgf_mask(v10, &amp;(v7), 0, v3, v9)</text>
<text text-anchor="start" x="286" y="-454.3" font-family="Times,serif" font-size="14.00"> mbedtls_md_free(BitCastExpr&lt;ptr&gt;(&amp;(v7)))</text>
</g>
<!-- Node0xe501ab0&#45;&gt;Node0xe502360 -->
<g id="edge33" class="edge"><title>Node0xe501ab0&#45;&gt;Node0xe502360</title>
<path fill="none" stroke="black" d="M460.045,-881.473C464.726,-870.911 471.291,-856.098 478.894,-838.942"/>
<polygon fill="black" stroke="black" points="482.108,-840.328 482.959,-829.768 475.708,-837.492 482.108,-840.328"/>
<text text-anchor="middle" x="509" y="-851.8" font-family="Times,serif" font-size="14.00">v12 == 0</text>
</g>
<!-- Node0x14d7fcc0&#45;&gt;Node0xe5025c0 -->
<g id="edge34" class="edge"><title>Node0x14d7fcc0&#45;&gt;Node0xe5025c0</title>
<path fill="none" stroke="black" d="M1429.19,-374.417C1411.78,-349.88 1389.5,-311.041 1389.5,-273 1389.5,-273 1389.5,-273 1389.5,-123 1389.5,-97.2691 1368.72,-76.4353 1348.89,-62.4135"/>
<polygon fill="black" stroke="black" points="1350.77,-59.4634 1340.51,-56.8268 1346.89,-65.2871 1350.77,-59.4634"/>
</g>
<!-- Node0x10181f30 -->
<g id="node29" class="node"><title>Node0x10181f30</title>
<polygon fill="none" stroke="black" points="1714.5,-317.5 1714.5,-355.5 1820.5,-355.5 1820.5,-317.5 1714.5,-317.5"/>
<text text-anchor="start" x="1722.5" y="-340.3" font-family="Times,serif" font-size="14.00">if (g7 == 0):</text>
<text text-anchor="start" x="1722.5" y="-325.3" font-family="Times,serif" font-size="14.00"> else:</text>
</g>
<!-- Node0x14d7da50&#45;&gt;Node0x10181f30 -->
<g id="edge35" class="edge"><title>Node0x14d7da50&#45;&gt;Node0x10181f30</title>
<path fill="none" stroke="black" d="M1767.5,-446.474C1767.5,-414.935 1767.5,-386.009 1767.5,-365.896"/>
<polygon fill="black" stroke="black" points="1771,-365.669 1767.5,-355.669 1764,-365.669 1771,-365.669"/>
</g>
<!-- Node0x14d81180&#45;&gt;Node0xe5025c0 -->
<g id="edge36" class="edge"><title>Node0x14d81180&#45;&gt;Node0xe5025c0</title>
<path fill="none" stroke="black" d="M166.85,-245.353C162.213,-239.808 158.101,-233.606 155.5,-227 149.15,-210.872 144.033,-200.998 155.5,-188 231.723,-101.601 1086.62,-53.8726 1276.35,-44.3016"/>
<polygon fill="black" stroke="black" points="1276.57,-47.7948 1286.39,-43.7996 1276.22,-40.8035 1276.57,-47.7948"/>
</g>
<!-- Node0xed709d0 -->
<g id="node30" class="node"><title>Node0xed709d0</title>
<polygon fill="none" stroke="black" points="514.5,-317.5 514.5,-355.5 620.5,-355.5 620.5,-317.5 514.5,-317.5"/>
<text text-anchor="start" x="522.5" y="-340.3" font-family="Times,serif" font-size="14.00">if (g7 == 0):</text>
<text text-anchor="start" x="522.5" y="-325.3" font-family="Times,serif" font-size="14.00"> else:</text>
</g>
<!-- Node0xe502360&#45;&gt;Node0xed709d0 -->
<g id="edge37" class="edge"><title>Node0xe502360&#45;&gt;Node0xed709d0</title>
<path fill="none" stroke="black" d="M567.5,-446.474C567.5,-414.935 567.5,-386.009 567.5,-365.896"/>
<polygon fill="black" stroke="black" points="571,-365.669 567.5,-355.669 564,-365.669 571,-365.669"/>
</g>
<!-- Node0x14d7fd40 -->
<g id="node31" class="node"><title>Node0x14d7fd40</title>
<polygon fill="none" stroke="black" points="1418,-188.5 1418,-226.5 1939,-226.5 1939,-188.5 1418,-188.5"/>
<text text-anchor="start" x="1426" y="-211.3" font-family="Times,serif" font-size="14.00">0x80512eb:</text>
<text text-anchor="start" x="1426" y="-196.3" font-family="Times,serif" font-size="14.00"> result = mbedtls_rsa_public(PtrToIntCastExpr&lt;int32&gt;(a1), v11, v11)</text>
</g>
<!-- Node0x10181f30&#45;&gt;Node0x14d7fd40 -->
<g id="edge38" class="edge"><title>Node0x10181f30&#45;&gt;Node0x14d7fd40</title>
<path fill="none" stroke="black" d="M1754.75,-317.304C1739.61,-295.708 1714.26,-259.523 1696.97,-234.862"/>
<polygon fill="black" stroke="black" points="1699.83,-232.843 1691.23,-226.662 1694.1,-236.86 1699.83,-232.843"/>
<text text-anchor="middle" x="1771" y="-268.3" font-family="Times,serif" font-size="14.00">g7 == 0</text>
</g>
<!-- Node0xe500cd0 -->
<g id="node32" class="node"><title>Node0xe500cd0</title>
<polygon fill="none" stroke="black" points="1957,-188.5 1957,-226.5 2538,-226.5 2538,-188.5 1957,-188.5"/>
<text text-anchor="start" x="1965" y="-211.3" font-family="Times,serif" font-size="14.00">0x8051306:</text>
<text text-anchor="start" x="1965" y="-196.3" font-family="Times,serif" font-size="14.00"> result = mbedtls_rsa_private(PtrToIntCastExpr&lt;int32&gt;(a1), g5, a3, v11, v11)</text>
</g>
<!-- Node0x10181f30&#45;&gt;Node0xe500cd0 -->
<g id="edge39" class="edge"><title>Node0x10181f30&#45;&gt;Node0xe500cd0</title>
<path fill="none" stroke="black" d="M1820.7,-321.424C1905.42,-299.008 2071.41,-255.091 2169.55,-229.124"/>
<polygon fill="black" stroke="black" points="2170.64,-232.455 2179.42,-226.514 2168.85,-225.688 2170.64,-232.455"/>
<text text-anchor="middle" x="2133" y="-268.3" font-family="Times,serif" font-size="14.00">g7 != 0</text>
</g>
<!-- Node0x14d81200 -->
<g id="node33" class="node"><title>Node0x14d81200</title>
<polygon fill="none" stroke="black" points="764,-188.5 764,-226.5 1285,-226.5 1285,-188.5 764,-188.5"/>
<text text-anchor="start" x="772" y="-211.3" font-family="Times,serif" font-size="14.00">0x80512eb:</text>
<text text-anchor="start" x="772" y="-196.3" font-family="Times,serif" font-size="14.00"> result = mbedtls_rsa_public(PtrToIntCastExpr&lt;int32&gt;(a1), v11, v11)</text>
</g>
<!-- Node0xed709d0&#45;&gt;Node0x14d81200 -->
<g id="edge40" class="edge"><title>Node0xed709d0&#45;&gt;Node0x14d81200</title>
<path fill="none" stroke="black" d="M620.818,-320.683C702.033,-298.113 857.037,-255.038 949.546,-229.33"/>
<polygon fill="black" stroke="black" points="950.706,-232.64 959.403,-226.59 948.831,-225.896 950.706,-232.64"/>
<text text-anchor="middle" x="920" y="-268.3" font-family="Times,serif" font-size="14.00">g7 == 0</text>
</g>
<!-- Node0x14d81280 -->
<g id="node34" class="node"><title>Node0x14d81280</title>
<polygon fill="none" stroke="black" points="165,-188.5 165,-226.5 746,-226.5 746,-188.5 165,-188.5"/>
<text text-anchor="start" x="173" y="-211.3" font-family="Times,serif" font-size="14.00">0x8051306:</text>
<text text-anchor="start" x="173" y="-196.3" font-family="Times,serif" font-size="14.00"> result = mbedtls_rsa_private(PtrToIntCastExpr&lt;int32&gt;(a1), g5, a3, v11, v11)</text>
</g>
<!-- Node0xed709d0&#45;&gt;Node0x14d81280 -->
<g id="edge41" class="edge"><title>Node0xed709d0&#45;&gt;Node0x14d81280</title>
<path fill="none" stroke="black" d="M551.453,-317.304C532.241,-295.519 499.939,-258.89 478.181,-234.218"/>
<polygon fill="black" stroke="black" points="480.756,-231.847 471.517,-226.662 475.506,-236.477 480.756,-231.847"/>
<text text-anchor="middle" x="562" y="-268.3" font-family="Times,serif" font-size="14.00">g7 != 0</text>
</g>
<!-- Node0x14d7ecc0 -->
<g id="node35" class="node"><title>Node0x14d7ecc0</title>
<polygon fill="none" stroke="black" points="1622,-97.5 1622,-150.5 1735,-150.5 1735,-97.5 1622,-97.5"/>
<text text-anchor="start" x="1630" y="-135.3" font-family="Times,serif" font-size="14.00">0x8051173:</text>
<text text-anchor="start" x="1630" y="-120.3" font-family="Times,serif" font-size="14.00"> g2 = v8</text>
<text text-anchor="start" x="1630" y="-105.3" font-family="Times,serif" font-size="14.00"> return result</text>
</g>
<!-- Node0x14d7fd40&#45;&gt;Node0x14d7ecc0 -->
<g id="edge42" class="edge"><title>Node0x14d7fd40&#45;&gt;Node0x14d7ecc0</title>
<path fill="none" stroke="black" d="M1678.5,-188.413C1678.5,-180.285 1678.5,-170.394 1678.5,-160.864"/>
<polygon fill="black" stroke="black" points="1682,-160.766 1678.5,-150.766 1675,-160.766 1682,-160.766"/>
</g>
<!-- Node0xe500cd0&#45;&gt;Node0x14d7ecc0 -->
<g id="edge43" class="edge"><title>Node0xe500cd0&#45;&gt;Node0x14d7ecc0</title>
<path fill="none" stroke="black" d="M2121.57,-188.463C2005.46,-171.832 1837.58,-147.786 1745.39,-134.58"/>
<polygon fill="black" stroke="black" points="1745.74,-131.095 1735.34,-133.142 1744.75,-138.024 1745.74,-131.095"/>
</g>
<!-- Node0x14d80330 -->
<g id="node36" class="node"><title>Node0x14d80330</title>
<polygon fill="none" stroke="black" points="968,-97.5 968,-150.5 1081,-150.5 1081,-97.5 968,-97.5"/>
<text text-anchor="start" x="976" y="-135.3" font-family="Times,serif" font-size="14.00">0x8051173:</text>
<text text-anchor="start" x="976" y="-120.3" font-family="Times,serif" font-size="14.00"> g2 = v8</text>
<text text-anchor="start" x="976" y="-105.3" font-family="Times,serif" font-size="14.00"> return result</text>
</g>
<!-- Node0x14d81200&#45;&gt;Node0x14d80330 -->
<g id="edge44" class="edge"><title>Node0x14d81200&#45;&gt;Node0x14d80330</title>
<path fill="none" stroke="black" d="M1024.5,-188.413C1024.5,-180.285 1024.5,-170.394 1024.5,-160.864"/>
<polygon fill="black" stroke="black" points="1028,-160.766 1024.5,-150.766 1021,-160.766 1028,-160.766"/>
</g>
<!-- Node0x14d81280&#45;&gt;Node0x14d80330 -->
<g id="edge45" class="edge"><title>Node0x14d81280&#45;&gt;Node0x14d80330</title>
<path fill="none" stroke="black" d="M581.427,-188.463C697.535,-171.832 865.419,-147.786 957.614,-134.58"/>
<polygon fill="black" stroke="black" points="958.254,-138.024 967.657,-133.142 957.262,-131.095 958.254,-138.024"/>
</g>
<!-- Node0x14d7ecc0&#45;&gt;Node0xe5025c0 -->
<g id="edge46" class="edge"><title>Node0x14d7ecc0&#45;&gt;Node0xe5025c0</title>
<path fill="none" stroke="black" d="M1621.87,-110.51C1546.38,-93.8606 1414.86,-64.8549 1350.76,-50.7176"/>
<polygon fill="black" stroke="black" points="1351.22,-47.2354 1340.7,-48.4994 1349.71,-54.0711 1351.22,-47.2354"/>
</g>
<!-- Node0x14d80330&#45;&gt;Node0xe5025c0 -->
<g id="edge47" class="edge"><title>Node0x14d80330&#45;&gt;Node0xe5025c0</title>
<path fill="none" stroke="black" d="M1081.25,-107.192C1139.08,-91.085 1227.07,-66.574 1276.49,-52.8098"/>
<polygon fill="black" stroke="black" points="1277.43,-56.1793 1286.13,-50.1242 1275.56,-49.436 1277.43,-56.1793"/>
</g>
</g>
</svg>
