<?xml version="1.0" encoding="UTF-8" standalone="no"?>
<!DOCTYPE svg PUBLIC "-//W3C//DTD SVG 1.1//EN"
 "http://www.w3.org/Graphics/SVG/1.1/DTD/svg11.dtd">
<!-- Generated by graphviz version 2.38.0 (20140413.2041)
 -->
<!-- Title: Control&#45;flow graph for function &#39;mbedtls_ctr_drbg_init(*a1)&#39;. Pages: 1 -->
<svg width="458pt" height="233pt"
 viewBox="0.00 0.00 458.00 233.00" xmlns="http://www.w3.org/2000/svg" xmlns:xlink="http://www.w3.org/1999/xlink">
<g id="graph0" class="graph" transform="scale(1 1) rotate(0) translate(4 229)">
<title>Control&#45;flow graph for function &#39;mbedtls_ctr_drbg_init(*a1)&#39;.</title>
<polygon fill="white" stroke="none" points="-4,4 -4,-229 454,-229 454,4 -4,4"/>
<text text-anchor="middle" x="225" y="-7.8" font-family="Times,serif" font-size="14.00">Control&#45;flow graph for function &#39;mbedtls_ctr_drbg_init(*a1)&#39;.</text>
<!-- Node0x2614e680 -->
<g id="node1" class="node"><title>Node0x2614e680</title>
<polygon fill="none" stroke="black" points="195.5,-186.5 195.5,-224.5 254.5,-224.5 254.5,-186.5 195.5,-186.5"/>
<text text-anchor="start" x="203.5" y="-209.3" font-family="Times,serif" font-size="14.00">entry:</text>
<text text-anchor="start" x="203.5" y="-194.3" font-family="Times,serif" font-size="14.00"> a1</text>
</g>
<!-- Node0x194ce8b0 -->
<g id="node2" class="node"><title>Node0x194ce8b0</title>
<polygon fill="none" stroke="black" points="149.5,-96.5 149.5,-149.5 300.5,-149.5 300.5,-96.5 149.5,-96.5"/>
<text text-anchor="start" x="157.5" y="-134.3" font-family="Times,serif" font-size="14.00">0x804b860:</text>
<text text-anchor="start" x="157.5" y="-119.3" font-family="Times,serif" font-size="14.00"> memset(a1, 0, 80)</text>
<text text-anchor="start" x="157.5" y="-104.3" font-family="Times,serif" font-size="14.00"> return 0</text>
</g>
<!-- Node0x2614e680&#45;&gt;Node0x194ce8b0 -->
<g id="edge1" class="edge"><title>Node0x2614e680&#45;&gt;Node0x194ce8b0</title>
<path fill="none" stroke="black" d="M225,-186.233C225,-178.347 225,-168.835 225,-159.648"/>
<polygon fill="black" stroke="black" points="228.5,-159.517 225,-149.517 221.5,-159.517 228.5,-159.517"/>
</g>
<!-- Node0x9ac40b0 -->
<g id="node3" class="node"><title>Node0x9ac40b0</title>
<polygon fill="none" stroke="black" points="198,-23.5 198,-59.5 252,-59.5 252,-23.5 198,-23.5"/>
<text text-anchor="start" x="206" y="-37.8" font-family="Times,serif" font-size="14.00">exit:</text>
</g>
<!-- Node0x194ce8b0&#45;&gt;Node0x9ac40b0 -->
<g id="edge2" class="edge"><title>Node0x194ce8b0&#45;&gt;Node0x9ac40b0</title>
<path fill="none" stroke="black" d="M225,-96.4081C225,-87.9823 225,-78.5803 225,-70.0174"/>
<polygon fill="black" stroke="black" points="228.5,-69.7564 225,-59.7564 221.5,-69.7565 228.5,-69.7564"/>
</g>
</g>
</svg>
