<?xml version="1.0" encoding="UTF-8" standalone="no"?>
<!DOCTYPE svg PUBLIC "-//W3C//DTD SVG 1.1//EN"
 "http://www.w3.org/Graphics/SVG/1.1/DTD/svg11.dtd">
<!-- Generated by graphviz version 2.38.0 (20140413.2041)
 -->
<!-- Title: Control&#45;flow graph for function &#39;mbedtls_ecp_is_zero(a1)&#39;. Pages: 1 -->
<svg width="440pt" height="233pt"
 viewBox="0.00 0.00 440.00 233.00" xmlns="http://www.w3.org/2000/svg" xmlns:xlink="http://www.w3.org/1999/xlink">
<g id="graph0" class="graph" transform="scale(1 1) rotate(0) translate(4 229)">
<title>Control&#45;flow graph for function &#39;mbedtls_ecp_is_zero(a1)&#39;.</title>
<polygon fill="white" stroke="none" points="-4,4 -4,-229 436,-229 436,4 -4,4"/>
<text text-anchor="middle" x="216" y="-7.8" font-family="Times,serif" font-size="14.00">Control&#45;flow graph for function &#39;mbedtls_ecp_is_zero(a1)&#39;.</text>
<!-- Node0xceb1190 -->
<g id="node1" class="node"><title>Node0xceb1190</title>
<polygon fill="none" stroke="black" points="186.5,-186.5 186.5,-224.5 245.5,-224.5 245.5,-186.5 186.5,-186.5"/>
<text text-anchor="start" x="194.5" y="-209.3" font-family="Times,serif" font-size="14.00">entry:</text>
<text text-anchor="start" x="194.5" y="-194.3" font-family="Times,serif" font-size="14.00"> a1</text>
</g>
<!-- Node0x96ab880 -->
<g id="node2" class="node"><title>Node0x96ab880</title>
<polygon fill="none" stroke="black" points="23.5,-96.5 23.5,-149.5 408.5,-149.5 408.5,-96.5 23.5,-96.5"/>
<text text-anchor="start" x="31.5" y="-134.3" font-family="Times,serif" font-size="14.00">result = (mbedtls_mpi_cmp_int((a1 + 24), 0) == 0)</text>
<text text-anchor="start" x="31.5" y="-119.3" font-family="Times,serif" font-size="14.00"> g1 = result</text>
<text text-anchor="start" x="31.5" y="-104.3" font-family="Times,serif" font-size="14.00"> return result</text>
</g>
<!-- Node0xceb1190&#45;&gt;Node0x96ab880 -->
<g id="edge1" class="edge"><title>Node0xceb1190&#45;&gt;Node0x96ab880</title>
<path fill="none" stroke="black" d="M216,-186.233C216,-178.347 216,-168.835 216,-159.648"/>
<polygon fill="black" stroke="black" points="219.5,-159.517 216,-149.517 212.5,-159.517 219.5,-159.517"/>
</g>
<!-- Node0xb021be0 -->
<g id="node3" class="node"><title>Node0xb021be0</title>
<polygon fill="none" stroke="black" points="189,-23.5 189,-59.5 243,-59.5 243,-23.5 189,-23.5"/>
<text text-anchor="start" x="197" y="-37.8" font-family="Times,serif" font-size="14.00">exit:</text>
</g>
<!-- Node0x96ab880&#45;&gt;Node0xb021be0 -->
<g id="edge2" class="edge"><title>Node0x96ab880&#45;&gt;Node0xb021be0</title>
<path fill="none" stroke="black" d="M216,-96.4081C216,-87.9823 216,-78.5803 216,-70.0174"/>
<polygon fill="black" stroke="black" points="219.5,-69.7564 216,-59.7564 212.5,-69.7565 219.5,-69.7564"/>
</g>
</g>
</svg>
