<?xml version="1.0" encoding="UTF-8" standalone="no"?>
<!DOCTYPE svg PUBLIC "-//W3C//DTD SVG 1.1//EN"
 "http://www.w3.org/Graphics/SVG/1.1/DTD/svg11.dtd">
<!-- Generated by graphviz version 2.38.0 (20140413.2041)
 -->
<!-- Title: Control&#45;flow graph for function &#39;camellia_ctx_free(a1, a2, a3)&#39;. Pages: 1 -->
<svg width="470pt" height="353pt"
 viewBox="0.00 0.00 470.00 353.00" xmlns="http://www.w3.org/2000/svg" xmlns:xlink="http://www.w3.org/1999/xlink">
<g id="graph0" class="graph" transform="scale(1 1) rotate(0) translate(4 349)">
<title>Control&#45;flow graph for function &#39;camellia_ctx_free(a1, a2, a3)&#39;.</title>
<polygon fill="white" stroke="none" points="-4,4 -4,-349 466,-349 466,4 -4,4"/>
<text text-anchor="middle" x="231" y="-7.8" font-family="Times,serif" font-size="14.00">Control&#45;flow graph for function &#39;camellia_ctx_free(a1, a2, a3)&#39;.</text>
<!-- Node0xde71c60 -->
<g id="node1" class="node"><title>Node0xde71c60</title>
<polygon fill="none" stroke="black" points="201.5,-276.5 201.5,-344.5 260.5,-344.5 260.5,-276.5 201.5,-276.5"/>
<text text-anchor="start" x="209.5" y="-329.3" font-family="Times,serif" font-size="14.00">entry:</text>
<text text-anchor="start" x="209.5" y="-314.3" font-family="Times,serif" font-size="14.00"> a1</text>
<text text-anchor="start" x="209.5" y="-299.3" font-family="Times,serif" font-size="14.00"> a2</text>
<text text-anchor="start" x="209.5" y="-284.3" font-family="Times,serif" font-size="14.00"> a3</text>
</g>
<!-- Node0xd62eac0 -->
<g id="node2" class="node"><title>Node0xd62eac0</title>
<polygon fill="none" stroke="black" points="34,-96.5 34,-239.5 428,-239.5 428,-96.5 34,-96.5"/>
<text text-anchor="start" x="42" y="-224.3" font-family="Times,serif" font-size="14.00">0x806a730:</text>
<text text-anchor="start" x="42" y="-209.3" font-family="Times,serif" font-size="14.00"> v1</text>
<text text-anchor="start" x="42" y="-194.3" font-family="Times,serif" font-size="14.00"> v2 = IntToPtrCastExpr&lt;ptr&gt;(v1)</text>
<text text-anchor="start" x="42" y="-179.3" font-family="Times,serif" font-size="14.00"> result = g3</text>
<text text-anchor="start" x="42" y="-164.3" font-family="Times,serif" font-size="14.00"> mbedtls_camellia_free(IntToPtrCastExpr&lt;ptr&gt;(a1))</text>
<text text-anchor="start" x="42" y="-149.3" font-family="Times,serif" font-size="14.00"> g3 = result</text>
<text text-anchor="start" x="42" y="-134.3" font-family="Times,serif" font-size="14.00"> g2 = PtrToIntCastExpr&lt;int32&gt;(v2)</text>
<text text-anchor="start" x="42" y="-119.3" font-family="Times,serif" font-size="14.00"> free(v2)</text>
<text text-anchor="start" x="42" y="-104.3" font-family="Times,serif" font-size="14.00"> return result</text>
</g>
<!-- Node0xde71c60&#45;&gt;Node0xd62eac0 -->
<g id="edge1" class="edge"><title>Node0xde71c60&#45;&gt;Node0xd62eac0</title>
<path fill="none" stroke="black" d="M231,-276.203C231,-268.099 231,-259.077 231,-249.804"/>
<polygon fill="black" stroke="black" points="234.5,-249.674 231,-239.674 227.5,-249.675 234.5,-249.674"/>
</g>
<!-- Node0x1d0c25e0 -->
<g id="node3" class="node"><title>Node0x1d0c25e0</title>
<polygon fill="none" stroke="black" points="204,-23.5 204,-59.5 258,-59.5 258,-23.5 204,-23.5"/>
<text text-anchor="start" x="212" y="-37.8" font-family="Times,serif" font-size="14.00">exit:</text>
</g>
<!-- Node0xd62eac0&#45;&gt;Node0x1d0c25e0 -->
<g id="edge2" class="edge"><title>Node0xd62eac0&#45;&gt;Node0x1d0c25e0</title>
<path fill="none" stroke="black" d="M231,-96.3834C231,-87.0259 231,-77.9253 231,-69.9482"/>
<polygon fill="black" stroke="black" points="234.5,-69.848 231,-59.848 227.5,-69.8481 234.5,-69.848"/>
</g>
</g>
</svg>
