<?xml version="1.0" encoding="UTF-8" standalone="no"?>
<!DOCTYPE svg PUBLIC "-//W3C//DTD SVG 1.1//EN"
 "http://www.w3.org/Graphics/SVG/1.1/DTD/svg11.dtd">
<!-- Generated by graphviz version 2.38.0 (20140413.2041)
 -->
<!-- Title: Control&#45;flow graph for function &#39;aes_gen_tables()&#39;. Pages: 1 -->
<svg width="1491pt" height="2765pt"
 viewBox="0.00 0.00 1491.48 2765.00" xmlns="http://www.w3.org/2000/svg" xmlns:xlink="http://www.w3.org/1999/xlink">
<g id="graph0" class="graph" transform="scale(1 1) rotate(0) translate(4 2761)">
<title>Control&#45;flow graph for function &#39;aes_gen_tables()&#39;.</title>
<polygon fill="white" stroke="none" points="-4,4 -4,-2761 1487.48,-2761 1487.48,4 -4,4"/>
<text text-anchor="middle" x="741.74" y="-7.8" font-family="Times,serif" font-size="14.00">Control&#45;flow graph for function &#39;aes_gen_tables()&#39;.</text>
<!-- Node0xf0e1280 -->
<g id="node1" class="node"><title>Node0xf0e1280</title>
<polygon fill="none" stroke="black" points="756,-2720.5 756,-2756.5 815,-2756.5 815,-2720.5 756,-2720.5"/>
<text text-anchor="start" x="764" y="-2734.8" font-family="Times,serif" font-size="14.00">entry:</text>
</g>
<!-- Node0x13d791c0 -->
<g id="node2" class="node"><title>Node0x13d791c0</title>
<polygon fill="none" stroke="black" points="735.5,-2524.5 735.5,-2682.5 835.5,-2682.5 835.5,-2524.5 735.5,-2524.5"/>
<text text-anchor="start" x="743.5" y="-2667.3" font-family="Times,serif" font-size="14.00">v1</text>
<text text-anchor="start" x="743.5" y="-2652.3" font-family="Times,serif" font-size="14.00"> v2 = &amp;(v1)</text>
<text text-anchor="start" x="743.5" y="-2637.3" font-family="Times,serif" font-size="14.00"> v3</text>
<text text-anchor="start" x="743.5" y="-2622.3" font-family="Times,serif" font-size="14.00"> v4 = &amp;(v3)</text>
<text text-anchor="start" x="743.5" y="-2607.3" font-family="Times,serif" font-size="14.00"> v3 = 1</text>
<text text-anchor="start" x="743.5" y="-2592.3" font-family="Times,serif" font-size="14.00"> v5 = 1</text>
<text text-anchor="start" x="743.5" y="-2577.3" font-family="Times,serif" font-size="14.00"> v6 = 2</text>
<text text-anchor="start" x="743.5" y="-2562.3" font-family="Times,serif" font-size="14.00"> v7 = 0</text>
<text text-anchor="start" x="743.5" y="-2547.3" font-family="Times,serif" font-size="14.00"> v8 = 1</text>
<text text-anchor="start" x="743.5" y="-2532.3" font-family="Times,serif" font-size="14.00"> v9 = 1</text>
</g>
<!-- Node0xf0e1280&#45;&gt;Node0x13d791c0 -->
<g id="edge1" class="edge"><title>Node0xf0e1280&#45;&gt;Node0x13d791c0</title>
<path fill="none" stroke="black" d="M785.5,-2720.38C785.5,-2712.78 785.5,-2703.21 785.5,-2692.83"/>
<polygon fill="black" stroke="black" points="789,-2692.68 785.5,-2682.68 782,-2692.68 789,-2692.68"/>
</g>
<!-- Node0x13d792c0 -->
<g id="node3" class="node"><title>Node0x13d792c0</title>
<polygon fill="none" stroke="black" points="737,-2450.5 737,-2486.5 834,-2486.5 834,-2450.5 737,-2450.5"/>
<text text-anchor="start" x="745" y="-2464.8" font-family="Times,serif" font-size="14.00">while True:</text>
</g>
<!-- Node0x13d791c0&#45;&gt;Node0x13d792c0 -->
<g id="edge2" class="edge"><title>Node0x13d791c0&#45;&gt;Node0x13d792c0</title>
<path fill="none" stroke="black" d="M785.5,-2524.36C785.5,-2514.46 785.5,-2504.9 785.5,-2496.63"/>
<polygon fill="black" stroke="black" points="789,-2496.55 785.5,-2486.55 782,-2496.55 789,-2496.55"/>
</g>
<!-- Node0xf024110 -->
<g id="node4" class="node"><title>Node0xf024110</title>
<polygon fill="none" stroke="black" points="386.5,-2270.5 386.5,-2398.5 818.5,-2398.5 818.5,-2270.5 386.5,-2270.5"/>
<text text-anchor="start" x="394.5" y="-2383.3" font-family="Times,serif" font-size="14.00">v10 = ((v7 ^ v8) ^ v6)</text>
<text text-anchor="start" x="394.5" y="-2368.3" font-family="Times,serif" font-size="14.00"> v11 = (v10 % 256)</text>
<text text-anchor="start" x="394.5" y="-2353.3" font-family="Times,serif" font-size="14.00"> v12 = v11</text>
<text text-anchor="start" x="394.5" y="-2338.3" font-family="Times,serif" font-size="14.00"> *(IntToPtrCastExpr&lt;ptr&gt;((v4 + (4 * v9)))) = v11</text>
<text text-anchor="start" x="394.5" y="-2323.3" font-family="Times,serif" font-size="14.00"> v13 = v12</text>
<text text-anchor="start" x="394.5" y="-2308.3" font-family="Times,serif" font-size="14.00"> *(IntToPtrCastExpr&lt;ptr&gt;(((v2 &#45; 2060) + (4 * v13)))) = v5</text>
<text text-anchor="start" x="394.5" y="-2293.3" font-family="Times,serif" font-size="14.00"> v14 = (v5 + 1)</text>
<text text-anchor="start" x="394.5" y="-2278.3" font-family="Times,serif" font-size="14.00"> v5 = v14</text>
</g>
<!-- Node0x13d792c0&#45;&gt;Node0xf024110 -->
<g id="edge3" class="edge"><title>Node0x13d792c0&#45;&gt;Node0xf024110</title>
<path fill="none" stroke="black" d="M761.576,-2450.24C745.023,-2438.3 721.803,-2421.55 698.209,-2404.54"/>
<polygon fill="black" stroke="black" points="700.017,-2401.52 689.859,-2398.51 695.922,-2407.2 700.017,-2401.52"/>
<text text-anchor="middle" x="748.5" y="-2420.8" font-family="Times,serif" font-size="14.00">True</text>
</g>
<!-- Node0xf0232a0 -->
<g id="node5" class="node"><title>Node0xf0232a0</title>
<polygon fill="none" stroke="black" points="536.5,-2196.5 536.5,-2232.5 668.5,-2232.5 668.5,-2196.5 536.5,-2196.5"/>
<text text-anchor="start" x="544.5" y="-2210.8" font-family="Times,serif" font-size="14.00">if (v14 == 256):</text>
</g>
<!-- Node0xf024110&#45;&gt;Node0xf0232a0 -->
<g id="edge4" class="edge"><title>Node0xf024110&#45;&gt;Node0xf0232a0</title>
<path fill="none" stroke="black" d="M602.5,-2270.35C602.5,-2260.75 602.5,-2251.3 602.5,-2243.02"/>
<polygon fill="black" stroke="black" points="606,-2242.89 602.5,-2232.89 599,-2242.89 606,-2242.89"/>
</g>
<!-- Node0x13d79460 -->
<g id="node6" class="node"><title>Node0x13d79460</title>
<polygon fill="none" stroke="black" points="114,-2061.5 114,-2144.5 683,-2144.5 683,-2061.5 114,-2061.5"/>
<text text-anchor="start" x="122" y="-2129.3" font-family="Times,serif" font-size="14.00">0x80495b8:</text>
<text text-anchor="start" x="122" y="-2114.3" font-family="Times,serif" font-size="14.00"> g210 = 1</text>
<text text-anchor="start" x="122" y="-2099.3" font-family="Times,serif" font-size="14.00"> v15 = 2</text>
<text text-anchor="start" x="122" y="-2084.3" font-family="Times,serif" font-size="14.00"> *(IntToPtrCastExpr&lt;ptr&gt;((4 + PtrToIntCastExpr&lt;int32&gt;(&amp;(g210))))) = v15</text>
<text text-anchor="start" x="122" y="-2069.3" font-family="Times,serif" font-size="14.00"> v16 = 2</text>
</g>
<!-- Node0xf0232a0&#45;&gt;Node0x13d79460 -->
<g id="edge5" class="edge"><title>Node0xf0232a0&#45;&gt;Node0x13d79460</title>
<path fill="none" stroke="black" d="M570.625,-2196.39C547.167,-2183.8 514.117,-2166.06 483.241,-2149.49"/>
<polygon fill="black" stroke="black" points="484.638,-2146.26 474.172,-2144.62 481.328,-2152.43 484.638,-2146.26"/>
<text text-anchor="middle" x="575" y="-2166.8" font-family="Times,serif" font-size="14.00">v14 == 256</text>
</g>
<!-- Node0xf0233f0 -->
<g id="node7" class="node"><title>Node0xf0233f0</title>
<polygon fill="none" stroke="black" points="701,-2061.5 701,-2144.5 992,-2144.5 992,-2061.5 701,-2061.5"/>
<text text-anchor="start" x="709" y="-2129.3" font-family="Times,serif" font-size="14.00">0x8049588:</text>
<text text-anchor="start" x="709" y="-2114.3" font-family="Times,serif" font-size="14.00"> v6 = (2 * v13)</text>
<text text-anchor="start" x="709" y="-2099.3" font-family="Times,serif" font-size="14.00"> v7 = (0 if ((v10 &amp; 128) == 0) else 27)</text>
<text text-anchor="start" x="709" y="-2084.3" font-family="Times,serif" font-size="14.00"> v8 = v12</text>
<text text-anchor="start" x="709" y="-2069.3" font-family="Times,serif" font-size="14.00"> v9 = v14</text>
</g>
<!-- Node0xf0232a0&#45;&gt;Node0xf0233f0 -->
<g id="edge6" class="edge"><title>Node0xf0232a0&#45;&gt;Node0xf0233f0</title>
<path fill="none" stroke="black" d="M640.625,-2196.39C669.106,-2183.61 709.407,-2165.52 746.812,-2148.74"/>
<polygon fill="black" stroke="black" points="748.56,-2151.79 756.25,-2144.5 745.694,-2145.4 748.56,-2151.79"/>
<text text-anchor="middle" x="751" y="-2166.8" font-family="Times,serif" font-size="14.00">v14 != 256</text>
</g>
<!-- Node0x13d794c0 -->
<g id="node8" class="node"><title>Node0x13d794c0</title>
<polygon fill="none" stroke="black" points="325.5,-1987.5 325.5,-2023.5 471.5,-2023.5 471.5,-1987.5 325.5,-1987.5"/>
<text text-anchor="start" x="333.5" y="-2001.8" font-family="Times,serif" font-size="14.00">while (v16 != 10):</text>
</g>
<!-- Node0x13d79460&#45;&gt;Node0x13d794c0 -->
<g id="edge7" class="edge"><title>Node0x13d79460&#45;&gt;Node0x13d794c0</title>
<path fill="none" stroke="black" d="M398.5,-2061.5C398.5,-2052.21 398.5,-2042.54 398.5,-2033.95"/>
<polygon fill="black" stroke="black" points="402,-2033.75 398.5,-2023.75 395,-2033.75 402,-2033.75"/>
</g>
<!-- Node0xf0233f0&#45;&gt;Node0x13d792c0 -->
<g id="edge8" class="edge"><title>Node0xf0233f0&#45;&gt;Node0x13d792c0</title>
<path fill="none" stroke="black" d="M849.946,-2144.73C853.508,-2202.71 855.199,-2311.68 827.5,-2399 822.646,-2414.3 813.67,-2429.69 805.258,-2441.99"/>
<polygon fill="black" stroke="black" points="802.249,-2440.18 799.3,-2450.36 807.951,-2444.24 802.249,-2440.18"/>
</g>
<!-- Node0x13d7a3e0 -->
<g id="node9" class="node"><title>Node0x13d7a3e0</title>
<polygon fill="none" stroke="black" points="0,-1770 0,-1838 623,-1838 623,-1770 0,-1770"/>
<text text-anchor="start" x="8" y="-1822.8" font-family="Times,serif" font-size="14.00">v17 = (2 * v15)</text>
<text text-anchor="start" x="8" y="-1807.8" font-family="Times,serif" font-size="14.00"> v15 = ((v17 &amp; 254) ^ (0 if ((v17 &amp; 128) == 0) else 27))</text>
<text text-anchor="start" x="8" y="-1792.8" font-family="Times,serif" font-size="14.00"> *(IntToPtrCastExpr&lt;ptr&gt;(((4 * v16) + PtrToIntCastExpr&lt;int32&gt;(&amp;(g210))))) = v15</text>
<text text-anchor="start" x="8" y="-1777.8" font-family="Times,serif" font-size="14.00"> v16 = (v16 + 1)</text>
</g>
<!-- Node0x13d794c0&#45;&gt;Node0x13d7a3e0 -->
<g id="edge9" class="edge"><title>Node0x13d794c0&#45;&gt;Node0x13d7a3e0</title>
<path fill="none" stroke="black" d="M332.715,-1987.34C324.759,-1982.63 317.643,-1976.64 312.5,-1969 288.759,-1933.75 292.363,-1883.85 299.496,-1848.37"/>
<polygon fill="black" stroke="black" points="302.978,-1848.83 301.688,-1838.31 296.139,-1847.34 302.978,-1848.83"/>
<text text-anchor="middle" x="348.5" y="-1957.8" font-family="Times,serif" font-size="14.00">v16 != 10</text>
</g>
<!-- Node0x13d7a510 -->
<g id="node10" class="node"><title>Node0x13d7a510</title>
<polygon fill="none" stroke="black" points="641,-1672.5 641,-1935.5 1400,-1935.5 1400,-1672.5 641,-1672.5"/>
<text text-anchor="start" x="649" y="-1920.3" font-family="Times,serif" font-size="14.00">0x80495f7:</text>
<text text-anchor="start" x="649" y="-1905.3" font-family="Times,serif" font-size="14.00"> *(BitCastExpr&lt;ptr&gt;(&amp;(g199))) = 99</text>
<text text-anchor="start" x="649" y="-1890.3" font-family="Times,serif" font-size="14.00"> v18 = 1</text>
<text text-anchor="start" x="649" y="-1875.3" font-family="Times,serif" font-size="14.00"> *(BitCastExpr&lt;ptr&gt;(&amp;(g205))) = 0</text>
<text text-anchor="start" x="649" y="-1860.3" font-family="Times,serif" font-size="14.00"> v19 = 1</text>
<text text-anchor="start" x="649" y="-1845.3" font-family="Times,serif" font-size="14.00"> v20 = *(IntToPtrCastExpr&lt;ptr&gt;(((v2 &#45; 2060) + (4 * v19))))</text>
<text text-anchor="start" x="649" y="-1830.3" font-family="Times,serif" font-size="14.00"> v21 = *(IntToPtrCastExpr&lt;ptr&gt;(((v2 &#45; 1036) + (4 * (255 &#45; v20)))))</text>
<text text-anchor="start" x="649" y="-1815.3" font-family="Times,serif" font-size="14.00"> v22 = (((2 * v21) | (v21 / 128)) % 256)</text>
<text text-anchor="start" x="649" y="-1800.3" font-family="Times,serif" font-size="14.00"> v23 = ((2 * v22) &amp; 254)</text>
<text text-anchor="start" x="649" y="-1785.3" font-family="Times,serif" font-size="14.00"> v24 = (v23 | (v22 / 128))</text>
<text text-anchor="start" x="649" y="-1770.3" font-family="Times,serif" font-size="14.00"> v25 = ((2 * v24) &amp; 254)</text>
<text text-anchor="start" x="649" y="-1755.3" font-family="Times,serif" font-size="14.00"> v26 = (v25 | (v23 / 128))</text>
<text text-anchor="start" x="649" y="-1740.3" font-family="Times,serif" font-size="14.00"> v27 = (((((v21 ^ 99) ^ v22) ^ v24) ^ v26) ^ (((2 * v26) &amp; 254) | (v25 / 128)))</text>
<text text-anchor="start" x="649" y="-1725.3" font-family="Times,serif" font-size="14.00"> *(IntToPtrCastExpr&lt;ptr&gt;((v19 + PtrToIntCastExpr&lt;int32&gt;(&amp;(g199))))) = TruncCastExpr&lt;int8&gt;(v27)</text>
<text text-anchor="start" x="649" y="-1710.3" font-family="Times,serif" font-size="14.00"> *(IntToPtrCastExpr&lt;ptr&gt;((v27 + 134755584))) = TruncCastExpr&lt;int8&gt;(v18)</text>
<text text-anchor="start" x="649" y="-1695.3" font-family="Times,serif" font-size="14.00"> v28 = (v18 + 1)</text>
<text text-anchor="start" x="649" y="-1680.3" font-family="Times,serif" font-size="14.00"> v18 = v28</text>
</g>
<!-- Node0x13d794c0&#45;&gt;Node0x13d7a510 -->
<g id="edge10" class="edge"><title>Node0x13d794c0&#45;&gt;Node0x13d7a510</title>
<path fill="none" stroke="black" d="M459.041,-1987.4C503.884,-1974.57 566.696,-1956.27 631.048,-1936.12"/>
<polygon fill="black" stroke="black" points="632.478,-1939.34 640.969,-1933.01 630.379,-1932.67 632.478,-1939.34"/>
<text text-anchor="middle" x="607.5" y="-1957.8" font-family="Times,serif" font-size="14.00">v16 == 10</text>
</g>
<!-- Node0x13d7a3e0&#45;&gt;Node0x13d794c0 -->
<g id="edge11" class="edge"><title>Node0x13d7a3e0&#45;&gt;Node0x13d794c0</title>
<path fill="none" stroke="black" d="M330,-1838.23C345.982,-1867.92 368.902,-1912.93 384.5,-1954 387.375,-1961.57 389.943,-1969.98 392.07,-1977.73"/>
<polygon fill="black" stroke="black" points="388.686,-1978.62 394.601,-1987.41 395.459,-1976.85 388.686,-1978.62"/>
</g>
<!-- Node0x13d7a680 -->
<g id="node11" class="node"><title>Node0x13d7a680</title>
<polygon fill="none" stroke="black" points="943,-1598.5 943,-1634.5 1098,-1634.5 1098,-1598.5 943,-1598.5"/>
<text text-anchor="start" x="951" y="-1612.8" font-family="Times,serif" font-size="14.00">while (v28 != 256):</text>
</g>
<!-- Node0x13d7a510&#45;&gt;Node0x13d7a680 -->
<g id="edge12" class="edge"><title>Node0x13d7a510&#45;&gt;Node0x13d7a680</title>
<path fill="none" stroke="black" d="M1020.5,-1672.4C1020.5,-1662.31 1020.5,-1652.93 1020.5,-1644.89"/>
<polygon fill="black" stroke="black" points="1024,-1644.81 1020.5,-1634.81 1017,-1644.81 1024,-1644.81"/>
</g>
<!-- Node0x13d7a440 -->
<g id="node12" class="node"><title>Node0x13d7a440</title>
<polygon fill="none" stroke="black" points="545,-1328.5 545,-1546.5 1304,-1546.5 1304,-1328.5 545,-1328.5"/>
<text text-anchor="start" x="553" y="-1531.3" font-family="Times,serif" font-size="14.00">0x8049610:</text>
<text text-anchor="start" x="553" y="-1516.3" font-family="Times,serif" font-size="14.00"> v19 = v28</text>
<text text-anchor="start" x="553" y="-1501.3" font-family="Times,serif" font-size="14.00"> v20 = *(IntToPtrCastExpr&lt;ptr&gt;(((v2 &#45; 2060) + (4 * v19))))</text>
<text text-anchor="start" x="553" y="-1486.3" font-family="Times,serif" font-size="14.00"> v21 = *(IntToPtrCastExpr&lt;ptr&gt;(((v2 &#45; 1036) + (4 * (255 &#45; v20)))))</text>
<text text-anchor="start" x="553" y="-1471.3" font-family="Times,serif" font-size="14.00"> v22 = (((2 * v21) | (v21 / 128)) % 256)</text>
<text text-anchor="start" x="553" y="-1456.3" font-family="Times,serif" font-size="14.00"> v23 = ((2 * v22) &amp; 254)</text>
<text text-anchor="start" x="553" y="-1441.3" font-family="Times,serif" font-size="14.00"> v24 = (v23 | (v22 / 128))</text>
<text text-anchor="start" x="553" y="-1426.3" font-family="Times,serif" font-size="14.00"> v25 = ((2 * v24) &amp; 254)</text>
<text text-anchor="start" x="553" y="-1411.3" font-family="Times,serif" font-size="14.00"> v26 = (v25 | (v23 / 128))</text>
<text text-anchor="start" x="553" y="-1396.3" font-family="Times,serif" font-size="14.00"> v27 = (((((v21 ^ 99) ^ v22) ^ v24) ^ v26) ^ (((2 * v26) &amp; 254) | (v25 / 128)))</text>
<text text-anchor="start" x="553" y="-1381.3" font-family="Times,serif" font-size="14.00"> *(IntToPtrCastExpr&lt;ptr&gt;((v19 + PtrToIntCastExpr&lt;int32&gt;(&amp;(g199))))) = TruncCastExpr&lt;int8&gt;(v27)</text>
<text text-anchor="start" x="553" y="-1366.3" font-family="Times,serif" font-size="14.00"> *(IntToPtrCastExpr&lt;ptr&gt;((v27 + 134755584))) = TruncCastExpr&lt;int8&gt;(v18)</text>
<text text-anchor="start" x="553" y="-1351.3" font-family="Times,serif" font-size="14.00"> v28 = (v18 + 1)</text>
<text text-anchor="start" x="553" y="-1336.3" font-family="Times,serif" font-size="14.00"> v18 = v28</text>
</g>
<!-- Node0x13d7a680&#45;&gt;Node0x13d7a440 -->
<g id="edge13" class="edge"><title>Node0x13d7a680&#45;&gt;Node0x13d7a440</title>
<path fill="none" stroke="black" d="M946.116,-1598.36C938.052,-1593.65 930.847,-1587.65 925.5,-1580 920.492,-1572.84 916.857,-1564.93 914.309,-1556.63"/>
<polygon fill="black" stroke="black" points="917.648,-1555.56 911.802,-1546.72 910.862,-1557.27 917.648,-1555.56"/>
<text text-anchor="middle" x="966" y="-1568.8" font-family="Times,serif" font-size="14.00">v28 != 256</text>
</g>
<!-- Node0x13d7a840 -->
<g id="node13" class="node"><title>Node0x13d7a840</title>
<polygon fill="none" stroke="black" points="1322,-1411 1322,-1464 1423,-1464 1423,-1411 1322,-1411"/>
<text text-anchor="start" x="1330" y="-1448.8" font-family="Times,serif" font-size="14.00">0x8049695:</text>
<text text-anchor="start" x="1330" y="-1433.8" font-family="Times,serif" font-size="14.00"> g4 = 0</text>
<text text-anchor="start" x="1330" y="-1418.8" font-family="Times,serif" font-size="14.00"> v29 = 0</text>
</g>
<!-- Node0x13d7a680&#45;&gt;Node0x13d7a840 -->
<g id="edge14" class="edge"><title>Node0x13d7a680&#45;&gt;Node0x13d7a840</title>
<path fill="none" stroke="black" d="M1098.18,-1614.38C1161.89,-1609.75 1251.38,-1594.34 1313.5,-1547 1337.48,-1528.72 1352.92,-1497.79 1361.96,-1473.61"/>
<polygon fill="black" stroke="black" points="1365.31,-1474.65 1365.34,-1464.06 1358.71,-1472.32 1365.31,-1474.65"/>
<text text-anchor="middle" x="1322" y="-1568.8" font-family="Times,serif" font-size="14.00">v28 == 256</text>
</g>
<!-- Node0x13d7a440&#45;&gt;Node0x13d7a680 -->
<g id="edge15" class="edge"><title>Node0x13d7a440&#45;&gt;Node0x13d7a680</title>
<path fill="none" stroke="black" d="M997.561,-1546.68C1000.76,-1552.78 1003.76,-1558.91 1006.5,-1565 1009.82,-1572.38 1012.53,-1580.74 1014.64,-1588.49"/>
<polygon fill="black" stroke="black" points="1011.25,-1589.37 1017.08,-1598.22 1018.04,-1587.66 1011.25,-1589.37"/>
</g>
<!-- Node0x13d7a320 -->
<g id="node14" class="node"><title>Node0x13d7a320</title>
<polygon fill="none" stroke="black" points="1324,-1254.5 1324,-1290.5 1421,-1290.5 1421,-1254.5 1324,-1254.5"/>
<text text-anchor="start" x="1332" y="-1268.8" font-family="Times,serif" font-size="14.00">while True:</text>
</g>
<!-- Node0x13d7a840&#45;&gt;Node0x13d7a320 -->
<g id="edge16" class="edge"><title>Node0x13d7a840&#45;&gt;Node0x13d7a320</title>
<path fill="none" stroke="black" d="M1372.5,-1410.67C1372.5,-1380.77 1372.5,-1331.72 1372.5,-1301.09"/>
<polygon fill="black" stroke="black" points="1376,-1300.71 1372.5,-1290.71 1369,-1300.71 1376,-1300.71"/>
</g>
<!-- Node0xf024480 -->
<g id="node15" class="node"><title>Node0xf024480</title>
<polygon fill="none" stroke="black" points="638,-969.5 638,-1202.5 1453,-1202.5 1453,-969.5 638,-969.5"/>
<text text-anchor="start" x="646" y="-1187.3" font-family="Times,serif" font-size="14.00">v30 = *(IntToPtrCastExpr&lt;ptr&gt;((v29 + PtrToIntCastExpr&lt;int32&gt;(&amp;(g199)))))</text>
<text text-anchor="start" x="646" y="-1172.3" font-family="Times,serif" font-size="14.00"> v31 = v30</text>
<text text-anchor="start" x="646" y="-1157.3" font-family="Times,serif" font-size="14.00"> v32 = (((2 * v31) &amp; 254) ^ (0 if (v30 &gt; &#45;1) else 27))</text>
<text text-anchor="start" x="646" y="-1142.3" font-family="Times,serif" font-size="14.00"> v33 = ((16777216 * (v32 ^ v31)) | (((65536 * v31) | (256 * v31)) | v32))</text>
<text text-anchor="start" x="646" y="-1127.3" font-family="Times,serif" font-size="14.00"> *(IntToPtrCastExpr&lt;ptr&gt;(((4 * v29) + PtrToIntCastExpr&lt;int32&gt;(&amp;(g200))))) = v33</text>
<text text-anchor="start" x="646" y="-1112.3" font-family="Times,serif" font-size="14.00"> v34 = ((256 * v33) | (v33 / 16777216))</text>
<text text-anchor="start" x="646" y="-1097.3" font-family="Times,serif" font-size="14.00"> *(IntToPtrCastExpr&lt;ptr&gt;(((4 * g4) + PtrToIntCastExpr&lt;int32&gt;(&amp;(g201))))) = v34</text>
<text text-anchor="start" x="646" y="-1082.3" font-family="Times,serif" font-size="14.00"> v35 = ((256 * v34) | (v34 / 16777216))</text>
<text text-anchor="start" x="646" y="-1067.3" font-family="Times,serif" font-size="14.00"> *(IntToPtrCastExpr&lt;ptr&gt;(((4 * g4) + PtrToIntCastExpr&lt;int32&gt;(&amp;(g202))))) = v35</text>
<text text-anchor="start" x="646" y="-1052.3" font-family="Times,serif" font-size="14.00"> *(IntToPtrCastExpr&lt;ptr&gt;(((4 * g4) + PtrToIntCastExpr&lt;int32&gt;(&amp;(g203))))) = ((256 * v35) | (v35 / 16777216))</text>
<text text-anchor="start" x="646" y="-1037.3" font-family="Times,serif" font-size="14.00"> v36 = *(IntToPtrCastExpr&lt;ptr&gt;((g4 + PtrToIntCastExpr&lt;int32&gt;(&amp;(g204)))))</text>
<text text-anchor="start" x="646" y="-1022.3" font-family="Times,serif" font-size="14.00"> v37 = v36</text>
<text text-anchor="start" x="646" y="-1007.3" font-family="Times,serif" font-size="14.00"> g1 = v37</text>
<text text-anchor="start" x="646" y="-992.3" font-family="Times,serif" font-size="14.00"> v38</text>
<text text-anchor="start" x="646" y="-977.3" font-family="Times,serif" font-size="14.00"> v39</text>
</g>
<!-- Node0x13d7a320&#45;&gt;Node0xf024480 -->
<g id="edge17" class="edge"><title>Node0x13d7a320&#45;&gt;Node0xf024480</title>
<path fill="none" stroke="black" d="M1342.32,-1254.47C1321.57,-1242.76 1291.94,-1226.05 1259.36,-1207.67"/>
<polygon fill="black" stroke="black" points="1260.99,-1204.57 1250.56,-1202.7 1257.55,-1210.66 1260.99,-1204.57"/>
<text text-anchor="middle" x="1318.5" y="-1224.8" font-family="Times,serif" font-size="14.00">True</text>
</g>
<!-- Node0xf0234c0 -->
<g id="node16" class="node"><title>Node0xf0234c0</title>
<polygon fill="none" stroke="black" points="988.5,-893.5 988.5,-931.5 1102.5,-931.5 1102.5,-893.5 988.5,-893.5"/>
<text text-anchor="start" x="996.5" y="-916.3" font-family="Times,serif" font-size="14.00">if (v36 == 0):</text>
<text text-anchor="start" x="996.5" y="-901.3" font-family="Times,serif" font-size="14.00"> else:</text>
</g>
<!-- Node0xf024480&#45;&gt;Node0xf0234c0 -->
<g id="edge18" class="edge"><title>Node0xf024480&#45;&gt;Node0xf0234c0</title>
<path fill="none" stroke="black" d="M1045.5,-969.181C1045.5,-959.254 1045.5,-949.942 1045.5,-941.881"/>
<polygon fill="black" stroke="black" points="1049,-941.722 1045.5,-931.722 1042,-941.722 1049,-941.722"/>
</g>
<!-- Node0xf024dd0 -->
<g id="node17" class="node"><title>Node0xf024dd0</title>
<polygon fill="none" stroke="black" points="782,-638.5 782,-706.5 883,-706.5 883,-638.5 782,-638.5"/>
<text text-anchor="start" x="790" y="-691.3" font-family="Times,serif" font-size="14.00">0x80496d0:</text>
<text text-anchor="start" x="790" y="-676.3" font-family="Times,serif" font-size="14.00"> v38 = 0</text>
<text text-anchor="start" x="790" y="-661.3" font-family="Times,serif" font-size="14.00"> g6 = 0</text>
<text text-anchor="start" x="790" y="-646.3" font-family="Times,serif" font-size="14.00"> v39 = 0</text>
</g>
<!-- Node0xf0234c0&#45;&gt;Node0xf024dd0 -->
<g id="edge19" class="edge"><title>Node0xf0234c0&#45;&gt;Node0xf024dd0</title>
<path fill="none" stroke="black" d="M988.326,-897.494C956.319,-887.006 917.868,-869.602 892.5,-842 860.424,-807.1 845.268,-753.909 838.258,-716.65"/>
<polygon fill="black" stroke="black" points="841.668,-715.835 836.489,-706.592 834.774,-717.047 841.668,-715.835"/>
<text text-anchor="middle" x="971" y="-863.8" font-family="Times,serif" font-size="14.00">v36 == 0</text>
</g>
<!-- Node0xf024ef0 -->
<g id="node18" class="node"><title>Node0xf024ef0</title>
<polygon fill="none" stroke="black" points="901.5,-503.5 901.5,-841.5 1449.5,-841.5 1449.5,-503.5 901.5,-503.5"/>
<text text-anchor="start" x="909.5" y="-826.3" font-family="Times,serif" font-size="14.00">v40 = *(IntToPtrCastExpr&lt;ptr&gt;((((4 * v37) &#45; 2060) + v2)))</text>
<text text-anchor="start" x="909.5" y="-811.3" font-family="Times,serif" font-size="14.00"> v41</text>
<text text-anchor="start" x="909.5" y="-796.3" font-family="Times,serif" font-size="14.00"> v42 = (v40 + v41)</text>
<text text-anchor="start" x="909.5" y="-781.3" font-family="Times,serif" font-size="14.00"> v43</text>
<text text-anchor="start" x="909.5" y="-766.3" font-family="Times,serif" font-size="14.00"> v44 = (v40 + v43)</text>
<text text-anchor="start" x="909.5" y="-751.3" font-family="Times,serif" font-size="14.00"> v45 = (v2 &#45; 1036)</text>
<text text-anchor="start" x="909.5" y="-736.3" font-family="Times,serif" font-size="14.00"> v46 = *(IntToPtrCastExpr&lt;ptr&gt;((v45 + (4 * (v42 + (&#45;255 * (v42 / 51)))))))</text>
<text text-anchor="start" x="909.5" y="-721.3" font-family="Times,serif" font-size="14.00"> v47 = *(IntToPtrCastExpr&lt;ptr&gt;((v45 + (4 * (v44 &#45; (255 * (v44 / 51)))))))</text>
<text text-anchor="start" x="909.5" y="-706.3" font-family="Times,serif" font-size="14.00"> v48</text>
<text text-anchor="start" x="909.5" y="-691.3" font-family="Times,serif" font-size="14.00"> v49 = (v40 + v48)</text>
<text text-anchor="start" x="909.5" y="-676.3" font-family="Times,serif" font-size="14.00"> v50 = *(IntToPtrCastExpr&lt;ptr&gt;((v45 + (4 * (v49 + (&#45;255 * (v49 / 51)))))))</text>
<text text-anchor="start" x="909.5" y="-661.3" font-family="Times,serif" font-size="14.00"> v51 = (v50 ^ ((65536 * v47) ^ (256 * v46)))</text>
<text text-anchor="start" x="909.5" y="-646.3" font-family="Times,serif" font-size="14.00"> v52</text>
<text text-anchor="start" x="909.5" y="-631.3" font-family="Times,serif" font-size="14.00"> v53 = (v40 + v52)</text>
<text text-anchor="start" x="909.5" y="-616.3" font-family="Times,serif" font-size="14.00"> v54 = *(IntToPtrCastExpr&lt;ptr&gt;((v45 + (4 * (v53 &#45; (255 * (v53 / 51)))))))</text>
<text text-anchor="start" x="909.5" y="-601.3" font-family="Times,serif" font-size="14.00"> v55 = ((16777216 * v54) ^ v51)</text>
<text text-anchor="start" x="909.5" y="-586.3" font-family="Times,serif" font-size="14.00"> v56 = ((v55 / 16777216) | (256 * v51))</text>
<text text-anchor="start" x="909.5" y="-571.3" font-family="Times,serif" font-size="14.00"> g6 = v56</text>
<text text-anchor="start" x="909.5" y="-556.3" font-family="Times,serif" font-size="14.00"> v57 = ((256 * v56) | ((v51 / 65536) % 256))</text>
<text text-anchor="start" x="909.5" y="-541.3" font-family="Times,serif" font-size="14.00"> g1 = v57</text>
<text text-anchor="start" x="909.5" y="-526.3" font-family="Times,serif" font-size="14.00"> v38 = ((256 * v57) | ((v51 / 256) % 256))</text>
<text text-anchor="start" x="909.5" y="-511.3" font-family="Times,serif" font-size="14.00"> v39 = v55</text>
</g>
<!-- Node0xf0234c0&#45;&gt;Node0xf024ef0 -->
<g id="edge20" class="edge"><title>Node0xf0234c0&#45;&gt;Node0xf024ef0</title>
<path fill="none" stroke="black" d="M1055.49,-893.22C1061.38,-882.421 1069.5,-867.558 1078.76,-850.611"/>
<polygon fill="black" stroke="black" points="1081.98,-852.023 1083.7,-841.569 1075.83,-848.668 1081.98,-852.023"/>
<text text-anchor="middle" x="1105" y="-863.8" font-family="Times,serif" font-size="14.00">v36 != 0</text>
</g>
<!-- Node0xf024940 -->
<g id="node19" class="node"><title>Node0xf024940</title>
<polygon fill="none" stroke="black" points="839.5,-352.5 839.5,-465.5 1453.5,-465.5 1453.5,-352.5 839.5,-352.5"/>
<text text-anchor="start" x="847.5" y="-450.3" font-family="Times,serif" font-size="14.00">0x80496d6:</text>
<text text-anchor="start" x="847.5" y="-435.3" font-family="Times,serif" font-size="14.00"> *(IntToPtrCastExpr&lt;ptr&gt;(((4 * g4) + PtrToIntCastExpr&lt;int32&gt;(&amp;(g206))))) = v39</text>
<text text-anchor="start" x="847.5" y="-420.3" font-family="Times,serif" font-size="14.00"> *(IntToPtrCastExpr&lt;ptr&gt;(((4 * g4) + PtrToIntCastExpr&lt;int32&gt;(&amp;(g207))))) = g6</text>
<text text-anchor="start" x="847.5" y="-405.3" font-family="Times,serif" font-size="14.00"> *(IntToPtrCastExpr&lt;ptr&gt;(((4 * g4) + PtrToIntCastExpr&lt;int32&gt;(&amp;(g208))))) = g1</text>
<text text-anchor="start" x="847.5" y="-390.3" font-family="Times,serif" font-size="14.00"> *(IntToPtrCastExpr&lt;ptr&gt;(((4 * g4) + PtrToIntCastExpr&lt;int32&gt;(&amp;(g209))))) = v38</text>
<text text-anchor="start" x="847.5" y="-375.3" font-family="Times,serif" font-size="14.00"> v58 = (g4 + 1)</text>
<text text-anchor="start" x="847.5" y="-360.3" font-family="Times,serif" font-size="14.00"> g4 = v58</text>
</g>
<!-- Node0xf024dd0&#45;&gt;Node0xf024940 -->
<g id="edge21" class="edge"><title>Node0xf024dd0&#45;&gt;Node0xf024940</title>
<path fill="none" stroke="black" d="M835.926,-638.256C841.498,-600.678 855.885,-539.942 892.5,-503 904.659,-490.732 918.567,-480.07 933.472,-470.805"/>
<polygon fill="black" stroke="black" points="935.558,-473.636 942.356,-465.51 931.974,-467.623 935.558,-473.636"/>
</g>
<!-- Node0xf024ef0&#45;&gt;Node0xf024940 -->
<g id="edge22" class="edge"><title>Node0xf024ef0&#45;&gt;Node0xf024940</title>
<path fill="none" stroke="black" d="M1156.85,-503.3C1155.79,-493.751 1154.76,-484.493 1153.79,-475.755"/>
<polygon fill="black" stroke="black" points="1157.26,-475.302 1152.68,-465.749 1150.31,-476.074 1157.26,-475.302"/>
</g>
<!-- Node0xf024b20 -->
<g id="node20" class="node"><title>Node0xf024b20</title>
<polygon fill="none" stroke="black" points="1168.5,-278.5 1168.5,-314.5 1300.5,-314.5 1300.5,-278.5 1168.5,-278.5"/>
<text text-anchor="start" x="1176.5" y="-292.8" font-family="Times,serif" font-size="14.00">if (v58 == 256):</text>
</g>
<!-- Node0xf024940&#45;&gt;Node0xf024b20 -->
<g id="edge23" class="edge"><title>Node0xf024940&#45;&gt;Node0xf024b20</title>
<path fill="none" stroke="black" d="M1190.76,-352.426C1199.06,-342 1207.35,-331.589 1214.45,-322.679"/>
<polygon fill="black" stroke="black" points="1217.35,-324.647 1220.85,-314.644 1211.88,-320.286 1217.35,-324.647"/>
</g>
<!-- Node0xf024170 -->
<g id="node21" class="node"><title>Node0xf024170</title>
<polygon fill="none" stroke="black" points="1150.5,-188.5 1150.5,-226.5 1318.5,-226.5 1318.5,-188.5 1150.5,-188.5"/>
<text text-anchor="start" x="1158.5" y="-211.3" font-family="Times,serif" font-size="14.00">break &#45;&gt; 0x8049848:</text>
<text text-anchor="start" x="1158.5" y="-196.3" font-family="Times,serif" font-size="14.00"> break</text>
</g>
<!-- Node0xf024b20&#45;&gt;Node0xf024170 -->
<g id="edge24" class="edge"><title>Node0xf024b20&#45;&gt;Node0xf024170</title>
<path fill="none" stroke="black" d="M1234.5,-278.312C1234.5,-266.511 1234.5,-250.572 1234.5,-236.904"/>
<polygon fill="black" stroke="black" points="1238,-236.551 1234.5,-226.551 1231,-236.551 1238,-236.551"/>
<text text-anchor="middle" x="1278" y="-248.8" font-family="Times,serif" font-size="14.00">v58 == 256</text>
</g>
<!-- Node0xf024d10 -->
<g id="node22" class="node"><title>Node0xf024d10</title>
<polygon fill="none" stroke="black" points="1386.5,-189.5 1386.5,-225.5 1476.5,-225.5 1476.5,-189.5 1386.5,-189.5"/>
<text text-anchor="start" x="1394.5" y="-203.8" font-family="Times,serif" font-size="14.00">v29 = v58</text>
</g>
<!-- Node0xf024b20&#45;&gt;Node0xf024d10 -->
<g id="edge25" class="edge"><title>Node0xf024b20&#45;&gt;Node0xf024d10</title>
<path fill="none" stroke="black" d="M1280.62,-278.334C1295.09,-272.729 1311.05,-266.317 1325.5,-260 1346.6,-250.774 1369.65,-239.703 1388.84,-230.194"/>
<polygon fill="black" stroke="black" points="1390.54,-233.258 1397.93,-225.666 1387.42,-226.993 1390.54,-233.258"/>
<text text-anchor="middle" x="1398" y="-248.8" font-family="Times,serif" font-size="14.00">v58 != 256</text>
</g>
<!-- Node0x13d7a380 -->
<g id="node23" class="node"><title>Node0x13d7a380</title>
<polygon fill="none" stroke="black" points="1184,-97.5 1184,-150.5 1285,-150.5 1285,-97.5 1184,-97.5"/>
<text text-anchor="start" x="1192" y="-135.3" font-family="Times,serif" font-size="14.00">0x8049848:</text>
<text text-anchor="start" x="1192" y="-120.3" font-family="Times,serif" font-size="14.00"> g2 = v1</text>
<text text-anchor="start" x="1192" y="-105.3" font-family="Times,serif" font-size="14.00"> return g1</text>
</g>
<!-- Node0xf024170&#45;&gt;Node0x13d7a380 -->
<g id="edge26" class="edge"><title>Node0xf024170&#45;&gt;Node0x13d7a380</title>
<path fill="none" stroke="black" d="M1234.5,-188.413C1234.5,-180.285 1234.5,-170.394 1234.5,-160.864"/>
<polygon fill="black" stroke="black" points="1238,-160.766 1234.5,-150.766 1231,-160.766 1238,-160.766"/>
</g>
<!-- Node0xf024d10&#45;&gt;Node0x13d7a320 -->
<g id="edge27" class="edge"><title>Node0xf024d10&#45;&gt;Node0x13d7a320</title>
<path fill="none" stroke="black" d="M1448.43,-225.514C1462.93,-241.962 1481.5,-268.323 1481.5,-295.5 1481.5,-1087 1481.5,-1087 1481.5,-1087 1481.5,-1139.24 1489.42,-1158.23 1462.5,-1203 1451.13,-1221.92 1432.39,-1237.43 1414.95,-1248.88"/>
<polygon fill="black" stroke="black" points="1412.61,-1246.21 1405.99,-1254.49 1416.32,-1252.15 1412.61,-1246.21"/>
</g>
<!-- Node0xf0e12e0 -->
<g id="node24" class="node"><title>Node0xf0e12e0</title>
<polygon fill="none" stroke="black" points="1207.5,-23.5 1207.5,-59.5 1261.5,-59.5 1261.5,-23.5 1207.5,-23.5"/>
<text text-anchor="start" x="1215.5" y="-37.8" font-family="Times,serif" font-size="14.00">exit:</text>
</g>
<!-- Node0x13d7a380&#45;&gt;Node0xf0e12e0 -->
<g id="edge28" class="edge"><title>Node0x13d7a380&#45;&gt;Node0xf0e12e0</title>
<path fill="none" stroke="black" d="M1234.5,-97.0862C1234.5,-88.4596 1234.5,-78.8224 1234.5,-70.0748"/>
<polygon fill="black" stroke="black" points="1238,-69.9735 1234.5,-59.9735 1231,-69.9735 1238,-69.9735"/>
</g>
</g>
</svg>
