<?xml version="1.0" encoding="UTF-8" standalone="no"?>
<!DOCTYPE svg PUBLIC "-//W3C//DTD SVG 1.1//EN"
 "http://www.w3.org/Graphics/SVG/1.1/DTD/svg11.dtd">
<!-- Generated by graphviz version 2.38.0 (20140413.2041)
 -->
<!-- Title: Control&#45;flow graph for function &#39;entropy_gather_internal(a1)&#39;. Pages: 1 -->
<svg width="946pt" height="2243pt"
 viewBox="0.00 0.00 945.50 2243.00" xmlns="http://www.w3.org/2000/svg" xmlns:xlink="http://www.w3.org/1999/xlink">
<g id="graph0" class="graph" transform="scale(1 1) rotate(0) translate(4 2239)">
<title>Control&#45;flow graph for function &#39;entropy_gather_internal(a1)&#39;.</title>
<polygon fill="white" stroke="none" points="-4,4 -4,-2239 941.5,-2239 941.5,4 -4,4"/>
<text text-anchor="middle" x="468.75" y="-7.8" font-family="Times,serif" font-size="14.00">Control&#45;flow graph for function &#39;entropy_gather_internal(a1)&#39;.</text>
<!-- Node0x1954b300 -->
<g id="node1" class="node"><title>Node0x1954b300</title>
<polygon fill="none" stroke="black" points="130,-2196.5 130,-2234.5 189,-2234.5 189,-2196.5 130,-2196.5"/>
<text text-anchor="start" x="138" y="-2219.3" font-family="Times,serif" font-size="14.00">entry:</text>
<text text-anchor="start" x="138" y="-2204.3" font-family="Times,serif" font-size="14.00"> a1</text>
</g>
<!-- Node0x1954b190 -->
<g id="node2" class="node"><title>Node0x1954b190</title>
<polygon fill="none" stroke="black" points="0,-2000.5 0,-2158.5 319,-2158.5 319,-2000.5 0,-2000.5"/>
<text text-anchor="start" x="8" y="-2143.3" font-family="Times,serif" font-size="14.00">v1</text>
<text text-anchor="start" x="8" y="-2128.3" font-family="Times,serif" font-size="14.00"> g2 = &amp;(v1)</text>
<text text-anchor="start" x="8" y="-2113.3" font-family="Times,serif" font-size="14.00"> v2 = g5</text>
<text text-anchor="start" x="8" y="-2098.3" font-family="Times,serif" font-size="14.00"> g5 = &#45;64</text>
<text text-anchor="start" x="8" y="-2083.3" font-family="Times,serif" font-size="14.00"> v3 = g7</text>
<text text-anchor="start" x="8" y="-2068.3" font-family="Times,serif" font-size="14.00"> v4 = g3</text>
<text text-anchor="start" x="8" y="-2053.3" font-family="Times,serif" font-size="14.00"> v5 = g1</text>
<text text-anchor="start" x="8" y="-2038.3" font-family="Times,serif" font-size="14.00"> v6 = IntToPtrCastExpr&lt;ptr&gt;((v5 + 212))</text>
<text text-anchor="start" x="8" y="-2023.3" font-family="Times,serif" font-size="14.00"> v7 = *(v6)</text>
<text text-anchor="start" x="8" y="-2008.3" font-family="Times,serif" font-size="14.00"> result</text>
</g>
<!-- Node0x1954b300&#45;&gt;Node0x1954b190 -->
<g id="edge1" class="edge"><title>Node0x1954b300&#45;&gt;Node0x1954b190</title>
<path fill="none" stroke="black" d="M159.5,-2196.43C159.5,-2188.74 159.5,-2179.16 159.5,-2168.83"/>
<polygon fill="black" stroke="black" points="163,-2168.73 159.5,-2158.73 156,-2168.73 163,-2168.73"/>
</g>
<!-- Node0x1954b3e0 -->
<g id="node3" class="node"><title>Node0x1954b3e0</title>
<polygon fill="none" stroke="black" points="107,-1926.5 107,-1962.5 212,-1962.5 212,-1926.5 107,-1926.5"/>
<text text-anchor="start" x="115" y="-1940.8" font-family="Times,serif" font-size="14.00">if (v7 == 0):</text>
</g>
<!-- Node0x1954b190&#45;&gt;Node0x1954b3e0 -->
<g id="edge2" class="edge"><title>Node0x1954b190&#45;&gt;Node0x1954b3e0</title>
<path fill="none" stroke="black" d="M159.5,-2000.36C159.5,-1990.46 159.5,-1980.9 159.5,-1972.63"/>
<polygon fill="black" stroke="black" points="163,-1972.55 159.5,-1962.55 156,-1972.55 163,-1972.55"/>
</g>
<!-- Node0x1954c580 -->
<g id="node4" class="node"><title>Node0x1954c580</title>
<polygon fill="none" stroke="black" points="62,-1704.5 62,-1817.5 175,-1817.5 175,-1704.5 62,-1704.5"/>
<text text-anchor="start" x="70" y="-1802.3" font-family="Times,serif" font-size="14.00">result = &#45;64</text>
<text text-anchor="start" x="70" y="-1787.3" font-family="Times,serif" font-size="14.00"> g1 = result</text>
<text text-anchor="start" x="70" y="-1772.3" font-family="Times,serif" font-size="14.00"> g3 = v4</text>
<text text-anchor="start" x="70" y="-1757.3" font-family="Times,serif" font-size="14.00"> g7 = v3</text>
<text text-anchor="start" x="70" y="-1742.3" font-family="Times,serif" font-size="14.00"> g5 = v2</text>
<text text-anchor="start" x="70" y="-1727.3" font-family="Times,serif" font-size="14.00"> g2 = v1</text>
<text text-anchor="start" x="70" y="-1712.3" font-family="Times,serif" font-size="14.00"> return result</text>
</g>
<!-- Node0x1954b3e0&#45;&gt;Node0x1954c580 -->
<g id="edge3" class="edge"><title>Node0x1954b3e0&#45;&gt;Node0x1954c580</title>
<path fill="none" stroke="black" d="M130.507,-1926.28C124.454,-1921.21 118.887,-1915.08 115.5,-1908 103.771,-1883.47 102.397,-1853.86 104.76,-1827.74"/>
<polygon fill="black" stroke="black" points="108.268,-1827.87 105.884,-1817.54 101.31,-1827.1 108.268,-1827.87"/>
<text text-anchor="middle" x="145.5" y="-1896.8" font-family="Times,serif" font-size="14.00">v7 == 0</text>
</g>
<!-- Node0xafbc530 -->
<g id="node5" class="node"><title>Node0xafbc530</title>
<polygon fill="none" stroke="black" points="151,-1836.5 151,-1874.5 252,-1874.5 252,-1836.5 151,-1836.5"/>
<text text-anchor="start" x="159" y="-1859.3" font-family="Times,serif" font-size="14.00">0x804c534:</text>
<text text-anchor="start" x="159" y="-1844.3" font-family="Times,serif" font-size="14.00"> if (v7 &lt; 1):</text>
</g>
<!-- Node0x1954b3e0&#45;&gt;Node0xafbc530 -->
<g id="edge4" class="edge"><title>Node0x1954b3e0&#45;&gt;Node0xafbc530</title>
<path fill="none" stroke="black" d="M169.65,-1926.37C172.931,-1920.6 176.495,-1914.09 179.5,-1908 183.251,-1900.4 186.999,-1892 190.311,-1884.23"/>
<polygon fill="black" stroke="black" points="193.612,-1885.41 194.24,-1874.83 187.153,-1882.71 193.612,-1885.41"/>
<text text-anchor="middle" x="213.5" y="-1896.8" font-family="Times,serif" font-size="14.00">v7 != 0</text>
</g>
<!-- Node0x1954b130 -->
<g id="node6" class="node"><title>Node0x1954b130</title>
<polygon fill="none" stroke="black" points="129.5,-23.5 129.5,-59.5 183.5,-59.5 183.5,-23.5 129.5,-23.5"/>
<text text-anchor="start" x="137.5" y="-37.8" font-family="Times,serif" font-size="14.00">exit:</text>
</g>
<!-- Node0x1954c580&#45;&gt;Node0x1954b130 -->
<g id="edge5" class="edge"><title>Node0x1954c580&#45;&gt;Node0x1954b130</title>
<path fill="none" stroke="black" d="M118.5,-1704.33C118.5,-1641.47 118.5,-1536.14 118.5,-1445.5 118.5,-1445.5 118.5,-1445.5 118.5,-153 118.5,-122.958 131.215,-90.6973 141.936,-68.837"/>
<polygon fill="black" stroke="black" points="145.09,-70.3549 146.516,-59.8565 138.855,-67.1745 145.09,-70.3549"/>
</g>
<!-- Node0x1954c670 -->
<g id="node7" class="node"><title>Node0x1954c670</title>
<polygon fill="none" stroke="black" points="138,-1380.5 138,-1508.5 251,-1508.5 251,-1380.5 138,-1380.5"/>
<text text-anchor="start" x="146" y="-1493.3" font-family="Times,serif" font-size="14.00">0x804c5ea:</text>
<text text-anchor="start" x="146" y="-1478.3" font-family="Times,serif" font-size="14.00"> result = &#45;61</text>
<text text-anchor="start" x="146" y="-1463.3" font-family="Times,serif" font-size="14.00"> g1 = result</text>
<text text-anchor="start" x="146" y="-1448.3" font-family="Times,serif" font-size="14.00"> g3 = v4</text>
<text text-anchor="start" x="146" y="-1433.3" font-family="Times,serif" font-size="14.00"> g7 = v3</text>
<text text-anchor="start" x="146" y="-1418.3" font-family="Times,serif" font-size="14.00"> g5 = v2</text>
<text text-anchor="start" x="146" y="-1403.3" font-family="Times,serif" font-size="14.00"> g2 = v1</text>
<text text-anchor="start" x="146" y="-1388.3" font-family="Times,serif" font-size="14.00"> return result</text>
</g>
<!-- Node0xafbc530&#45;&gt;Node0x1954c670 -->
<g id="edge6" class="edge"><title>Node0xafbc530&#45;&gt;Node0x1954c670</title>
<path fill="none" stroke="black" d="M201.19,-1836.4C200.254,-1781.67 197.414,-1615.78 195.751,-1518.59"/>
<polygon fill="black" stroke="black" points="199.25,-1518.47 195.579,-1508.54 192.251,-1518.59 199.25,-1518.47"/>
<text text-anchor="middle" x="225.5" y="-1757.3" font-family="Times,serif" font-size="14.00">v7 &lt; 1</text>
</g>
<!-- Node0xafbc690 -->
<g id="node8" class="node"><title>Node0xafbc690</title>
<polygon fill="none" stroke="black" points="507.5,-1527.5 507.5,-1685.5 625.5,-1685.5 625.5,-1527.5 507.5,-1527.5"/>
<text text-anchor="start" x="515.5" y="-1670.3" font-family="Times,serif" font-size="14.00">0x804c53a:</text>
<text text-anchor="start" x="515.5" y="-1655.3" font-family="Times,serif" font-size="14.00"> g3 = v5</text>
<text text-anchor="start" x="515.5" y="-1640.3" font-family="Times,serif" font-size="14.00"> g7 = 0</text>
<text text-anchor="start" x="515.5" y="-1625.3" font-family="Times,serif" font-size="14.00"> v8</text>
<text text-anchor="start" x="515.5" y="-1610.3" font-family="Times,serif" font-size="14.00"> v9 = &amp;(v8)</text>
<text text-anchor="start" x="515.5" y="-1595.3" font-family="Times,serif" font-size="14.00"> v10</text>
<text text-anchor="start" x="515.5" y="-1580.3" font-family="Times,serif" font-size="14.00"> v11 = &amp;(v10)</text>
<text text-anchor="start" x="515.5" y="-1565.3" font-family="Times,serif" font-size="14.00"> v12 = v5</text>
<text text-anchor="start" x="515.5" y="-1550.3" font-family="Times,serif" font-size="14.00"> v13 = 0</text>
<text text-anchor="start" x="515.5" y="-1535.3" font-family="Times,serif" font-size="14.00"> v14</text>
</g>
<!-- Node0xafbc530&#45;&gt;Node0xafbc690 -->
<g id="edge7" class="edge"><title>Node0xafbc530&#45;&gt;Node0xafbc690</title>
<path fill="none" stroke="black" d="M228.339,-1836.34C284.809,-1798.12 417.384,-1708.41 498.751,-1653.35"/>
<polygon fill="black" stroke="black" points="501.115,-1655.97 507.436,-1647.47 497.192,-1650.18 501.115,-1655.97"/>
<text text-anchor="middle" x="446.5" y="-1757.3" font-family="Times,serif" font-size="14.00">v7 &gt;= 1</text>
</g>
<!-- Node0x1954c670&#45;&gt;Node0x1954b130 -->
<g id="edge8" class="edge"><title>Node0x1954c670&#45;&gt;Node0x1954b130</title>
<path fill="none" stroke="black" d="M170.219,-1380.38C162.771,-1355.83 156.5,-1327.22 156.5,-1300.5 156.5,-1300.5 156.5,-1300.5 156.5,-153 156.5,-124.644 156.5,-92.194 156.5,-69.8315"/>
<polygon fill="black" stroke="black" points="160,-69.726 156.5,-59.726 153,-69.726 160,-69.726"/>
</g>
<!-- Node0x1954bc90 -->
<g id="node9" class="node"><title>Node0x1954bc90</title>
<polygon fill="none" stroke="black" points="728,-1325.5 728,-1361.5 825,-1361.5 825,-1325.5 728,-1325.5"/>
<text text-anchor="start" x="736" y="-1339.8" font-family="Times,serif" font-size="14.00">while True:</text>
</g>
<!-- Node0xafbc690&#45;&gt;Node0x1954bc90 -->
<g id="edge9" class="edge"><title>Node0xafbc690&#45;&gt;Node0x1954bc90</title>
<path fill="none" stroke="black" d="M625.556,-1532.1C669.429,-1477.57 726.632,-1406.48 756.445,-1369.43"/>
<polygon fill="black" stroke="black" points="759.18,-1371.61 762.722,-1361.62 753.726,-1367.22 759.18,-1371.61"/>
</g>
<!-- Node0x1d0cb250 -->
<g id="node10" class="node"><title>Node0x1d0cb250</title>
<polygon fill="none" stroke="black" points="184.5,-1115.5 184.5,-1273.5 810.5,-1273.5 810.5,-1115.5 184.5,-1115.5"/>
<text text-anchor="start" x="192.5" y="-1258.3" font-family="Times,serif" font-size="14.00">v15 = *(IntToPtrCastExpr&lt;ptr&gt;((v12 + 232)))</text>
<text text-anchor="start" x="192.5" y="-1243.3" font-family="Times,serif" font-size="14.00"> g237 = (v15 == 1)</text>
<text text-anchor="start" x="192.5" y="-1228.3" font-family="Times,serif" font-size="14.00"> v14 = (1 if (v15 == 1) else v13)</text>
<text text-anchor="start" x="192.5" y="-1213.3" font-family="Times,serif" font-size="14.00"> g4 = v9</text>
<text text-anchor="start" x="192.5" y="-1198.3" font-family="Times,serif" font-size="14.00"> v16 = *(IntToPtrCastExpr&lt;ptr&gt;((v12 + 220)))</text>
<text text-anchor="start" x="192.5" y="-1183.3" font-family="Times,serif" font-size="14.00"> g1 = v16</text>
<text text-anchor="start" x="192.5" y="-1168.3" font-family="Times,serif" font-size="14.00"> v8 = 0</text>
<text text-anchor="start" x="192.5" y="-1153.3" font-family="Times,serif" font-size="14.00"> IntToPtrCastExpr&lt;ptr&gt;(*(IntToPtrCastExpr&lt;ptr&gt;((v12 + 216))))(v16, v11, 128, v9)</text>
<text text-anchor="start" x="192.5" y="-1138.3" font-family="Times,serif" font-size="14.00"> v17 = g1</text>
<text text-anchor="start" x="192.5" y="-1123.3" font-family="Times,serif" font-size="14.00"> g5 = v17</text>
</g>
<!-- Node0x1954bc90&#45;&gt;Node0x1d0cb250 -->
<g id="edge10" class="edge"><title>Node0x1954bc90&#45;&gt;Node0x1d0cb250</title>
<path fill="none" stroke="black" d="M744.223,-1325.49C721.377,-1313.46 688.871,-1296.33 654.925,-1278.44"/>
<polygon fill="black" stroke="black" points="656.274,-1275.2 645.796,-1273.63 653.011,-1281.39 656.274,-1275.2"/>
<text text-anchor="middle" x="725.5" y="-1295.8" font-family="Times,serif" font-size="14.00">True</text>
</g>
<!-- Node0x1954c2a0 -->
<g id="node11" class="node"><title>Node0x1954c2a0</title>
<polygon fill="none" stroke="black" points="612.5,-1041.5 612.5,-1077.5 726.5,-1077.5 726.5,-1041.5 612.5,-1041.5"/>
<text text-anchor="start" x="620.5" y="-1055.8" font-family="Times,serif" font-size="14.00">if (v17 == 0):</text>
</g>
<!-- Node0x1d0cb250&#45;&gt;Node0x1954c2a0 -->
<g id="edge11" class="edge"><title>Node0x1d0cb250&#45;&gt;Node0x1954c2a0</title>
<path fill="none" stroke="black" d="M598.548,-1115.36C613.376,-1103.9 627.588,-1092.91 639.347,-1083.82"/>
<polygon fill="black" stroke="black" points="641.678,-1086.44 647.448,-1077.55 637.396,-1080.9 641.678,-1086.44"/>
</g>
<!-- Node0x1954c2a0&#45;&gt;Node0x1954bc90 -->
<g id="edge13" class="edge"><title>Node0x1954c2a0&#45;&gt;Node0x1954bc90</title>
<path fill="none" stroke="black" d="M726.59,-1065.46C759.586,-1071.6 798.593,-1085.16 819.5,-1115 860.049,-1172.88 839.048,-1206.09 819.5,-1274 815.062,-1289.42 806.019,-1304.72 797.366,-1316.94"/>
<polygon fill="black" stroke="black" points="794.35,-1315.13 791.205,-1325.25 799.973,-1319.3 794.35,-1315.13"/>
<text text-anchor="middle" x="874" y="-1190.8" font-family="Times,serif" font-size="14.00">v17 != 0</text>
</g>
<!-- Node0x1954c310 -->
<g id="node12" class="node"><title>Node0x1954c310</title>
<polygon fill="none" stroke="black" points="629,-953.5 629,-989.5 710,-989.5 710,-953.5 629,-953.5"/>
<text text-anchor="start" x="637" y="-967.8" font-family="Times,serif" font-size="14.00">v18 = v8</text>
</g>
<!-- Node0x1954c2a0&#45;&gt;Node0x1954c310 -->
<g id="edge12" class="edge"><title>Node0x1954c2a0&#45;&gt;Node0x1954c310</title>
<path fill="none" stroke="black" d="M669.5,-1041.1C669.5,-1029.25 669.5,-1013.32 669.5,-999.792"/>
<polygon fill="black" stroke="black" points="673,-999.584 669.5,-989.584 666,-999.584 673,-999.584"/>
<text text-anchor="middle" x="704" y="-1011.8" font-family="Times,serif" font-size="14.00">v17 == 0</text>
</g>
<!-- Node0x1954c370 -->
<g id="node13" class="node"><title>Node0x1954c370</title>
<polygon fill="none" stroke="black" points="615.5,-879.5 615.5,-915.5 723.5,-915.5 723.5,-879.5 615.5,-879.5"/>
<text text-anchor="start" x="623.5" y="-893.8" font-family="Times,serif" font-size="14.00">if (v18 != 0):</text>
</g>
<!-- Node0x1954c310&#45;&gt;Node0x1954c370 -->
<g id="edge14" class="edge"><title>Node0x1954c310&#45;&gt;Node0x1954c370</title>
<path fill="none" stroke="black" d="M669.5,-953.437C669.5,-945.307 669.5,-935.376 669.5,-926.205"/>
<polygon fill="black" stroke="black" points="673,-925.941 669.5,-915.941 666,-925.941 673,-925.941"/>
</g>
<!-- Node0x1954d300 -->
<g id="node14" class="node"><title>Node0x1954d300</title>
<polygon fill="none" stroke="black" points="375,-714.5 375,-827.5 704,-827.5 704,-714.5 375,-714.5"/>
<text text-anchor="start" x="383" y="-812.3" font-family="Times,serif" font-size="14.00">0x804c5b9:</text>
<text text-anchor="start" x="383" y="-797.3" font-family="Times,serif" font-size="14.00"> g1 = v5</text>
<text text-anchor="start" x="383" y="-782.3" font-family="Times,serif" font-size="14.00"> g6 = (g7 % 256)</text>
<text text-anchor="start" x="383" y="-767.3" font-family="Times,serif" font-size="14.00"> g4 = v11</text>
<text text-anchor="start" x="383" y="-752.3" font-family="Times,serif" font-size="14.00"> entropy_update(v18, v11, 128, v9)</text>
<text text-anchor="start" x="383" y="-737.3" font-family="Times,serif" font-size="14.00"> v19 = IntToPtrCastExpr&lt;ptr&gt;((g3 + 224))</text>
<text text-anchor="start" x="383" y="-722.3" font-family="Times,serif" font-size="14.00"> *(v19) = (*(v19) + v8)</text>
</g>
<!-- Node0x1954c370&#45;&gt;Node0x1954d300 -->
<g id="edge15" class="edge"><title>Node0x1954c370&#45;&gt;Node0x1954d300</title>
<path fill="none" stroke="black" d="M651.697,-879.45C639.406,-867.679 622.23,-851.23 605.007,-834.735"/>
<polygon fill="black" stroke="black" points="607.28,-832.066 597.637,-827.677 602.438,-837.121 607.28,-832.066"/>
<text text-anchor="middle" x="662" y="-849.8" font-family="Times,serif" font-size="14.00">v18 != 0</text>
</g>
<!-- Node0x1954cc30 -->
<g id="node15" class="node"><title>Node0x1954cc30</title>
<polygon fill="none" stroke="black" points="671.5,-608.5 671.5,-676.5 807.5,-676.5 807.5,-608.5 671.5,-608.5"/>
<text text-anchor="start" x="679.5" y="-661.3" font-family="Times,serif" font-size="14.00">v20 = (g7 + 1)</text>
<text text-anchor="start" x="679.5" y="-646.3" font-family="Times,serif" font-size="14.00"> g7 = v20</text>
<text text-anchor="start" x="679.5" y="-631.3" font-family="Times,serif" font-size="14.00"> v21 = (g3 + 20)</text>
<text text-anchor="start" x="679.5" y="-616.3" font-family="Times,serif" font-size="14.00"> g3 = v21</text>
</g>
<!-- Node0x1954c370&#45;&gt;Node0x1954cc30 -->
<g id="edge16" class="edge"><title>Node0x1954c370&#45;&gt;Node0x1954cc30</title>
<path fill="none" stroke="black" d="M684.425,-879.269C694.753,-866.176 707.651,-847.2 713.5,-828 727.804,-781.048 734.286,-724.938 737.193,-687.02"/>
<polygon fill="black" stroke="black" points="740.699,-687.055 737.922,-676.831 733.717,-686.556 740.699,-687.055"/>
<text text-anchor="middle" x="769" y="-767.3" font-family="Times,serif" font-size="14.00">v18 == 0</text>
</g>
<!-- Node0x1954d300&#45;&gt;Node0x1954cc30 -->
<g id="edge17" class="edge"><title>Node0x1954d300&#45;&gt;Node0x1954cc30</title>
<path fill="none" stroke="black" d="M627.514,-714.331C644.668,-703.481 662.3,-692.329 678.351,-682.177"/>
<polygon fill="black" stroke="black" points="680.512,-684.951 687.092,-676.648 676.77,-679.035 680.512,-684.951"/>
</g>
<!-- Node0x1954cc90 -->
<g id="node16" class="node"><title>Node0x1954cc90</title>
<polygon fill="none" stroke="black" points="669.5,-534.5 669.5,-570.5 809.5,-570.5 809.5,-534.5 669.5,-534.5"/>
<text text-anchor="start" x="677.5" y="-548.8" font-family="Times,serif" font-size="14.00">if (*(v6) &lt;= v20):</text>
</g>
<!-- Node0x1954cc30&#45;&gt;Node0x1954cc90 -->
<g id="edge18" class="edge"><title>Node0x1954cc30&#45;&gt;Node0x1954cc90</title>
<path fill="none" stroke="black" d="M739.5,-608.482C739.5,-599.328 739.5,-589.497 739.5,-580.715"/>
<polygon fill="black" stroke="black" points="743,-580.64 739.5,-570.64 736,-580.64 743,-580.64"/>
</g>
<!-- Node0x1954d540 -->
<g id="node17" class="node"><title>Node0x1954d540</title>
<polygon fill="none" stroke="black" points="426,-437 426,-475 593,-475 593,-437 426,-437"/>
<text text-anchor="start" x="434" y="-459.8" font-family="Times,serif" font-size="14.00">break &#45;&gt; 0x804c5e0:</text>
<text text-anchor="start" x="434" y="-444.8" font-family="Times,serif" font-size="14.00"> break</text>
</g>
<!-- Node0x1954cc90&#45;&gt;Node0x1954d540 -->
<g id="edge19" class="edge"><title>Node0x1954cc90&#45;&gt;Node0x1954d540</title>
<path fill="none" stroke="black" d="M698.115,-534.496C660.319,-518.967 604.222,-495.918 563.028,-478.993"/>
<polygon fill="black" stroke="black" points="564.268,-475.719 553.688,-475.156 561.608,-482.194 564.268,-475.719"/>
<text text-anchor="middle" x="699" y="-504.8" font-family="Times,serif" font-size="14.00">*(v6) &lt;= v20</text>
</g>
<!-- Node0x1954d080 -->
<g id="node18" class="node"><title>Node0x1954d080</title>
<polygon fill="none" stroke="black" points="757,-429.5 757,-482.5 852,-482.5 852,-429.5 757,-429.5"/>
<text text-anchor="start" x="765" y="-467.3" font-family="Times,serif" font-size="14.00">v12 = v21</text>
<text text-anchor="start" x="765" y="-452.3" font-family="Times,serif" font-size="14.00"> v13 = v14</text>
<text text-anchor="start" x="765" y="-437.3" font-family="Times,serif" font-size="14.00"> continue</text>
</g>
<!-- Node0x1954cc90&#45;&gt;Node0x1954d080 -->
<g id="edge20" class="edge"><title>Node0x1954cc90&#45;&gt;Node0x1954d080</title>
<path fill="none" stroke="black" d="M751.422,-534.167C759.694,-522.141 770.988,-505.722 781.031,-491.12"/>
<polygon fill="black" stroke="black" points="783.985,-493.002 786.768,-482.78 778.217,-489.035 783.985,-493.002"/>
<text text-anchor="middle" x="815" y="-504.8" font-family="Times,serif" font-size="14.00">*(v6) &gt; v20</text>
</g>
<!-- Node0x1954a190 -->
<g id="node19" class="node"><title>Node0x1954a190</title>
<polygon fill="none" stroke="black" points="340,-338.5 340,-391.5 459,-391.5 459,-338.5 340,-338.5"/>
<text text-anchor="start" x="348" y="-376.3" font-family="Times,serif" font-size="14.00">0x804c5e0:</text>
<text text-anchor="start" x="348" y="-361.3" font-family="Times,serif" font-size="14.00"> if (v14 == 0):</text>
<text text-anchor="start" x="348" y="-346.3" font-family="Times,serif" font-size="14.00"> else:</text>
</g>
<!-- Node0x1954d540&#45;&gt;Node0x1954a190 -->
<g id="edge21" class="edge"><title>Node0x1954d540&#45;&gt;Node0x1954a190</title>
<path fill="none" stroke="black" d="M487.24,-436.99C473.554,-425.917 455.616,-411.403 439.529,-398.387"/>
<polygon fill="black" stroke="black" points="441.292,-395.312 431.317,-391.742 436.889,-400.753 441.292,-395.312"/>
</g>
<!-- Node0x1954d080&#45;&gt;Node0x1954bc90 -->
<g id="edge22" class="edge"><title>Node0x1954d080&#45;&gt;Node0x1954bc90</title>
<path fill="none" stroke="black" d="M852.14,-469.668C890.303,-483.037 937.5,-508.304 937.5,-551.5 937.5,-1195.5 937.5,-1195.5 937.5,-1195.5 937.5,-1232.54 933.894,-1246.13 909.5,-1274 889.696,-1296.63 860.6,-1312.8 834.669,-1323.73"/>
<polygon fill="black" stroke="black" points="833.244,-1320.53 825.282,-1327.52 835.865,-1327.02 833.244,-1320.53"/>
</g>
<!-- Node0x1954ca80 -->
<g id="node20" class="node"><title>Node0x1954ca80</title>
<polygon fill="none" stroke="black" points="224,-248.5 224,-286.5 331,-286.5 331,-248.5 224,-248.5"/>
<text text-anchor="start" x="232" y="-271.3" font-family="Times,serif" font-size="14.00">0x804c5ea:</text>
<text text-anchor="start" x="232" y="-256.3" font-family="Times,serif" font-size="14.00"> result = &#45;61</text>
</g>
<!-- Node0x1954a190&#45;&gt;Node0x1954ca80 -->
<g id="edge23" class="edge"><title>Node0x1954a190&#45;&gt;Node0x1954ca80</title>
<path fill="none" stroke="black" d="M352.683,-338.339C343.697,-332.712 334.578,-326.484 326.5,-320 317.068,-312.429 307.677,-303.108 299.677,-294.486"/>
<polygon fill="black" stroke="black" points="302.063,-291.905 292.76,-286.834 296.87,-296.599 302.063,-291.905"/>
<text text-anchor="middle" x="361" y="-308.8" font-family="Times,serif" font-size="14.00">v14 == 0</text>
</g>
<!-- Node0x1954cae0 -->
<g id="node21" class="node"><title>Node0x1954cae0</title>
<polygon fill="none" stroke="black" points="348.5,-248.5 348.5,-286.5 450.5,-286.5 450.5,-248.5 348.5,-248.5"/>
<text text-anchor="start" x="356.5" y="-271.3" font-family="Times,serif" font-size="14.00">0x804c5e0:</text>
<text text-anchor="start" x="356.5" y="-256.3" font-family="Times,serif" font-size="14.00"> result = g5</text>
</g>
<!-- Node0x1954a190&#45;&gt;Node0x1954cae0 -->
<g id="edge24" class="edge"><title>Node0x1954a190&#45;&gt;Node0x1954cae0</title>
<path fill="none" stroke="black" d="M399.5,-338.408C399.5,-325.631 399.5,-310.135 399.5,-296.982"/>
<polygon fill="black" stroke="black" points="403,-296.596 399.5,-286.596 396,-296.596 403,-296.596"/>
<text text-anchor="middle" x="431" y="-308.8" font-family="Times,serif" font-size="14.00">v14 != 0</text>
</g>
<!-- Node0x1954c490 -->
<g id="node22" class="node"><title>Node0x1954c490</title>
<polygon fill="none" stroke="black" points="221,-97.5 221,-210.5 334,-210.5 334,-97.5 221,-97.5"/>
<text text-anchor="start" x="229" y="-195.3" font-family="Times,serif" font-size="14.00">0x804c5f0:</text>
<text text-anchor="start" x="229" y="-180.3" font-family="Times,serif" font-size="14.00"> g1 = result</text>
<text text-anchor="start" x="229" y="-165.3" font-family="Times,serif" font-size="14.00"> g3 = v4</text>
<text text-anchor="start" x="229" y="-150.3" font-family="Times,serif" font-size="14.00"> g7 = v3</text>
<text text-anchor="start" x="229" y="-135.3" font-family="Times,serif" font-size="14.00"> g5 = v2</text>
<text text-anchor="start" x="229" y="-120.3" font-family="Times,serif" font-size="14.00"> g2 = v1</text>
<text text-anchor="start" x="229" y="-105.3" font-family="Times,serif" font-size="14.00"> return result</text>
</g>
<!-- Node0x1954ca80&#45;&gt;Node0x1954c490 -->
<g id="edge25" class="edge"><title>Node0x1954ca80&#45;&gt;Node0x1954c490</title>
<path fill="none" stroke="black" d="M277.5,-248.088C277.5,-240.294 277.5,-230.699 277.5,-220.661"/>
<polygon fill="black" stroke="black" points="281,-220.525 277.5,-210.525 274,-220.525 281,-220.525"/>
</g>
<!-- Node0x1954cae0&#45;&gt;Node0x1954c490 -->
<g id="edge26" class="edge"><title>Node0x1954cae0&#45;&gt;Node0x1954c490</title>
<path fill="none" stroke="black" d="M379.627,-248.337C369.145,-238.757 355.629,-226.405 341.884,-213.843"/>
<polygon fill="black" stroke="black" points="343.985,-211.021 334.242,-206.858 339.262,-216.188 343.985,-211.021"/>
</g>
<!-- Node0x1954c490&#45;&gt;Node0x1954b130 -->
<g id="edge27" class="edge"><title>Node0x1954c490&#45;&gt;Node0x1954b130</title>
<path fill="none" stroke="black" d="M220.897,-101.309C207.504,-89.0779 193.855,-76.6135 182.59,-66.3263"/>
<polygon fill="black" stroke="black" points="184.95,-63.741 175.205,-59.582 180.229,-68.9099 184.95,-63.741"/>
</g>
</g>
</svg>
