<?xml version="1.0" encoding="UTF-8" standalone="no"?>
<!DOCTYPE svg PUBLIC "-//W3C//DTD SVG 1.1//EN"
 "http://www.w3.org/Graphics/SVG/1.1/DTD/svg11.dtd">
<!-- Generated by graphviz version 2.38.0 (20140413.2041)
 -->
<!-- Title: Control&#45;flow graph for function &#39;mbedtls_md_hmac_reset(*a1)&#39;. Pages: 1 -->
<svg width="872pt" height="1181pt"
 viewBox="0.00 0.00 871.50 1181.00" xmlns="http://www.w3.org/2000/svg" xmlns:xlink="http://www.w3.org/1999/xlink">
<g id="graph0" class="graph" transform="scale(1 1) rotate(0) translate(4 1177)">
<title>Control&#45;flow graph for function &#39;mbedtls_md_hmac_reset(*a1)&#39;.</title>
<polygon fill="white" stroke="none" points="-4,4 -4,-1177 867.5,-1177 867.5,4 -4,4"/>
<text text-anchor="middle" x="431.75" y="-7.8" font-family="Times,serif" font-size="14.00">Control&#45;flow graph for function &#39;mbedtls_md_hmac_reset(*a1)&#39;.</text>
<!-- Node0x9028050 -->
<g id="node1" class="node"><title>Node0x9028050</title>
<polygon fill="none" stroke="black" points="106.5,-1134.5 106.5,-1172.5 165.5,-1172.5 165.5,-1134.5 106.5,-1134.5"/>
<text text-anchor="start" x="114.5" y="-1157.3" font-family="Times,serif" font-size="14.00">entry:</text>
<text text-anchor="start" x="114.5" y="-1142.3" font-family="Times,serif" font-size="14.00"> a1</text>
</g>
<!-- Node0x9028c60 -->
<g id="node2" class="node"><title>Node0x9028c60</title>
<polygon fill="none" stroke="black" points="0,-998.5 0,-1096.5 272,-1096.5 272,-998.5 0,-998.5"/>
<text text-anchor="start" x="8" y="-1081.3" font-family="Times,serif" font-size="14.00">v1 = PtrToIntCastExpr&lt;int32&gt;(a1)</text>
<text text-anchor="start" x="8" y="-1066.3" font-family="Times,serif" font-size="14.00"> v2</text>
<text text-anchor="start" x="8" y="-1051.3" font-family="Times,serif" font-size="14.00"> g2 = &amp;(v2)</text>
<text text-anchor="start" x="8" y="-1036.3" font-family="Times,serif" font-size="14.00"> v3 = g3</text>
<text text-anchor="start" x="8" y="-1021.3" font-family="Times,serif" font-size="14.00"> g3 = v1</text>
<text text-anchor="start" x="8" y="-1006.3" font-family="Times,serif" font-size="14.00"> v4 = g7</text>
</g>
<!-- Node0x9028050&#45;&gt;Node0x9028c60 -->
<g id="edge1" class="edge"><title>Node0x9028050&#45;&gt;Node0x9028c60</title>
<path fill="none" stroke="black" d="M136,-1134.38C136,-1126.53 136,-1116.84 136,-1106.84"/>
<polygon fill="black" stroke="black" points="139.5,-1106.79 136,-1096.79 132.5,-1106.79 139.5,-1106.79"/>
</g>
<!-- Node0x9029780 -->
<g id="node3" class="node"><title>Node0x9029780</title>
<polygon fill="none" stroke="black" points="66,-924.5 66,-960.5 206,-960.5 206,-924.5 66,-924.5"/>
<text text-anchor="start" x="74" y="-938.8" font-family="Times,serif" font-size="14.00">if (a1 == NULL):</text>
</g>
<!-- Node0x9028c60&#45;&gt;Node0x9029780 -->
<g id="edge2" class="edge"><title>Node0x9028c60&#45;&gt;Node0x9029780</title>
<path fill="none" stroke="black" d="M136,-998.317C136,-988.893 136,-979.32 136,-970.868"/>
<polygon fill="black" stroke="black" points="139.5,-970.856 136,-960.856 132.5,-970.856 139.5,-970.856"/>
</g>
<!-- Node0x26f43d90 -->
<g id="node4" class="node"><title>Node0x26f43d90</title>
<polygon fill="none" stroke="black" points="17.5,-747.5 17.5,-815.5 138.5,-815.5 138.5,-747.5 17.5,-747.5"/>
<text text-anchor="start" x="25.5" y="-800.3" font-family="Times,serif" font-size="14.00">0x8062408:</text>
<text text-anchor="start" x="25.5" y="-785.3" font-family="Times,serif" font-size="14.00"> g3 = v3</text>
<text text-anchor="start" x="25.5" y="-770.3" font-family="Times,serif" font-size="14.00"> g7 = v4</text>
<text text-anchor="start" x="25.5" y="-755.3" font-family="Times,serif" font-size="14.00"> return &#45;20736</text>
</g>
<!-- Node0x9029780&#45;&gt;Node0x26f43d90 -->
<g id="edge3" class="edge"><title>Node0x9029780&#45;&gt;Node0x26f43d90</title>
<path fill="none" stroke="black" d="M93.2681,-924.493C85.9602,-919.631 79.3368,-913.542 75,-906 61.1866,-881.979 62.0802,-850.748 66.3543,-825.702"/>
<polygon fill="black" stroke="black" points="69.8188,-826.221 68.2838,-815.738 62.9465,-824.89 69.8188,-826.221"/>
<text text-anchor="middle" x="122" y="-894.8" font-family="Times,serif" font-size="14.00">a1 == NULL</text>
</g>
<!-- Node0x902a210 -->
<g id="node5" class="node"><title>Node0x902a210</title>
<polygon fill="none" stroke="black" points="150,-834.5 150,-872.5 240,-872.5 240,-834.5 150,-834.5"/>
<text text-anchor="start" x="158" y="-857.3" font-family="Times,serif" font-size="14.00">v5 = *(a1)</text>
<text text-anchor="start" x="158" y="-842.3" font-family="Times,serif" font-size="14.00"> g1 = v5</text>
</g>
<!-- Node0x9029780&#45;&gt;Node0x902a210 -->
<g id="edge4" class="edge"><title>Node0x9029780&#45;&gt;Node0x902a210</title>
<path fill="none" stroke="black" d="M156.749,-924.391C162.518,-918.934 168.444,-912.59 173,-906 178.031,-898.722 182.266,-890.111 185.634,-882.034"/>
<polygon fill="black" stroke="black" points="188.951,-883.161 189.308,-872.572 182.425,-880.627 188.951,-883.161"/>
<text text-anchor="middle" x="226" y="-894.8" font-family="Times,serif" font-size="14.00">a1 != NULL</text>
</g>
<!-- Node0x9028be0 -->
<g id="node6" class="node"><title>Node0x9028be0</title>
<polygon fill="none" stroke="black" points="89,-23.5 89,-59.5 143,-59.5 143,-23.5 89,-23.5"/>
<text text-anchor="start" x="97" y="-37.8" font-family="Times,serif" font-size="14.00">exit:</text>
</g>
<!-- Node0x26f43d90&#45;&gt;Node0x9028be0 -->
<g id="edge5" class="edge"><title>Node0x26f43d90&#45;&gt;Node0x9028be0</title>
<path fill="none" stroke="black" d="M78,-747.372C78,-724.849 78,-694.377 78,-667.5 78,-667.5 78,-667.5 78,-130.5 78,-108.315 88.3049,-85.3717 98.1822,-68.4761"/>
<polygon fill="black" stroke="black" points="101.29,-70.1044 103.557,-59.755 95.3309,-66.4315 101.29,-70.1044"/>
</g>
<!-- Node0x902a300 -->
<g id="node7" class="node"><title>Node0x902a300</title>
<polygon fill="none" stroke="black" points="142.5,-692.5 142.5,-728.5 247.5,-728.5 247.5,-692.5 142.5,-692.5"/>
<text text-anchor="start" x="150.5" y="-706.8" font-family="Times,serif" font-size="14.00">if (v5 == 0):</text>
</g>
<!-- Node0x902a210&#45;&gt;Node0x902a300 -->
<g id="edge6" class="edge"><title>Node0x902a210&#45;&gt;Node0x902a300</title>
<path fill="none" stroke="black" d="M195,-834.355C195,-810.192 195,-767.229 195,-739.053"/>
<polygon fill="black" stroke="black" points="198.5,-738.692 195,-728.692 191.5,-738.692 198.5,-738.692"/>
</g>
<!-- Node0x902a270 -->
<g id="node8" class="node"><title>Node0x902a270</title>
<polygon fill="none" stroke="black" points="103.5,-485.5 103.5,-553.5 224.5,-553.5 224.5,-485.5 103.5,-485.5"/>
<text text-anchor="start" x="111.5" y="-538.3" font-family="Times,serif" font-size="14.00">0x8062408:</text>
<text text-anchor="start" x="111.5" y="-523.3" font-family="Times,serif" font-size="14.00"> g3 = v3</text>
<text text-anchor="start" x="111.5" y="-508.3" font-family="Times,serif" font-size="14.00"> g7 = v4</text>
<text text-anchor="start" x="111.5" y="-493.3" font-family="Times,serif" font-size="14.00"> return &#45;20736</text>
</g>
<!-- Node0x902a300&#45;&gt;Node0x902a270 -->
<g id="edge7" class="edge"><title>Node0x902a300&#45;&gt;Node0x902a270</title>
<path fill="none" stroke="black" d="M192.194,-692.394C187.468,-663.578 177.78,-604.513 171.09,-563.726"/>
<polygon fill="black" stroke="black" points="174.531,-563.081 169.459,-553.78 167.623,-564.214 174.531,-563.081"/>
<text text-anchor="middle" x="219" y="-662.8" font-family="Times,serif" font-size="14.00">v5 == 0</text>
</g>
<!-- Node0x902a1b0 -->
<g id="node9" class="node"><title>Node0x902a1b0</title>
<polygon fill="none" stroke="black" points="228,-572.5 228,-640.5 542,-640.5 542,-572.5 228,-572.5"/>
<text text-anchor="start" x="236" y="-625.3" font-family="Times,serif" font-size="14.00">v6 = *(IntToPtrCastExpr&lt;ptr&gt;((v1 + 8)))</text>
<text text-anchor="start" x="236" y="-610.3" font-family="Times,serif" font-size="14.00"> g7 = v6</text>
<text text-anchor="start" x="236" y="-595.3" font-family="Times,serif" font-size="14.00"> g237 = (v6 == 0)</text>
<text text-anchor="start" x="236" y="-580.3" font-family="Times,serif" font-size="14.00"> result</text>
</g>
<!-- Node0x902a300&#45;&gt;Node0x902a1b0 -->
<g id="edge8" class="edge"><title>Node0x902a300&#45;&gt;Node0x902a1b0</title>
<path fill="none" stroke="black" d="M226.802,-692.427C250.743,-679.575 284.485,-661.461 314.661,-645.261"/>
<polygon fill="black" stroke="black" points="316.324,-648.34 323.48,-640.527 313.013,-642.173 316.324,-648.34"/>
<text text-anchor="middle" x="311" y="-662.8" font-family="Times,serif" font-size="14.00">v5 != 0</text>
</g>
<!-- Node0x902a270&#45;&gt;Node0x9028be0 -->
<g id="edge9" class="edge"><title>Node0x902a270&#45;&gt;Node0x9028be0</title>
<path fill="none" stroke="black" d="M141.967,-485.287C129.348,-463.09 116,-432.707 116,-403.5 116,-403.5 116,-403.5 116,-130.5 116,-110.13 116,-87.1087 116,-69.7225"/>
<polygon fill="black" stroke="black" points="119.5,-69.6994 116,-59.6995 112.5,-69.6995 119.5,-69.6994"/>
</g>
<!-- Node0x902a6d0 -->
<g id="node10" class="node"><title>Node0x902a6d0</title>
<polygon fill="none" stroke="black" points="380.5,-428.5 380.5,-466.5 479.5,-466.5 479.5,-428.5 380.5,-428.5"/>
<text text-anchor="start" x="388.5" y="-451.3" font-family="Times,serif" font-size="14.00">if (v6 != 0):</text>
<text text-anchor="start" x="388.5" y="-436.3" font-family="Times,serif" font-size="14.00"> else:</text>
</g>
<!-- Node0x902a1b0&#45;&gt;Node0x902a6d0 -->
<g id="edge10" class="edge"><title>Node0x902a1b0&#45;&gt;Node0x902a6d0</title>
<path fill="none" stroke="black" d="M394.543,-572.204C402.697,-543.756 414.295,-503.294 421.978,-476.489"/>
<polygon fill="black" stroke="black" points="425.422,-477.173 424.813,-466.596 418.693,-475.245 425.422,-477.173"/>
</g>
<!-- Node0x902a3b0 -->
<g id="node11" class="node"><title>Node0x902a3b0</title>
<polygon fill="none" stroke="black" points="144,-203.5 144,-376.5 716,-376.5 716,-203.5 144,-203.5"/>
<text text-anchor="start" x="152" y="-361.3" font-family="Times,serif" font-size="14.00">v7 = *(IntToPtrCastExpr&lt;ptr&gt;((v1 + 4)))</text>
<text text-anchor="start" x="152" y="-346.3" font-family="Times,serif" font-size="14.00"> g6 = v7</text>
<text text-anchor="start" x="152" y="-331.3" font-family="Times,serif" font-size="14.00"> IntToPtrCastExpr&lt;ptr&gt;(*(IntToPtrCastExpr&lt;ptr&gt;((v5 + 16))))(v7)</text>
<text text-anchor="start" x="152" y="-316.3" font-family="Times,serif" font-size="14.00"> v8 = g3</text>
<text text-anchor="start" x="152" y="-301.3" font-family="Times,serif" font-size="14.00"> v9 = *(IntToPtrCastExpr&lt;ptr&gt;(v8))</text>
<text text-anchor="start" x="152" y="-286.3" font-family="Times,serif" font-size="14.00"> g1 = v9</text>
<text text-anchor="start" x="152" y="-271.3" font-family="Times,serif" font-size="14.00"> v10 = *(IntToPtrCastExpr&lt;ptr&gt;((v8 + 4)))</text>
<text text-anchor="start" x="152" y="-256.3" font-family="Times,serif" font-size="14.00"> g6 = v10</text>
<text text-anchor="start" x="152" y="-241.3" font-family="Times,serif" font-size="14.00"> v11 = *(IntToPtrCastExpr&lt;ptr&gt;((v9 + 20)))</text>
<text text-anchor="start" x="152" y="-226.3" font-family="Times,serif" font-size="14.00"> IntToPtrCastExpr&lt;ptr&gt;(v11)(v10, g7, *(IntToPtrCastExpr&lt;ptr&gt;((v9 + 12))))</text>
<text text-anchor="start" x="152" y="-211.3" font-family="Times,serif" font-size="14.00"> result = 0</text>
</g>
<!-- Node0x902a6d0&#45;&gt;Node0x902a3b0 -->
<g id="edge11" class="edge"><title>Node0x902a6d0&#45;&gt;Node0x902a3b0</title>
<path fill="none" stroke="black" d="M430,-428.358C430,-417.411 430,-402.524 430,-386.579"/>
<polygon fill="black" stroke="black" points="433.5,-386.541 430,-376.541 426.5,-386.541 433.5,-386.541"/>
<text text-anchor="middle" x="457" y="-398.8" font-family="Times,serif" font-size="14.00">v6 != 0</text>
</g>
<!-- Node0x902b0d0 -->
<g id="node12" class="node"><title>Node0x902b0d0</title>
<polygon fill="none" stroke="black" points="734.5,-272 734.5,-308 863.5,-308 863.5,-272 734.5,-272"/>
<text text-anchor="start" x="742.5" y="-286.3" font-family="Times,serif" font-size="14.00">result = &#45;20736</text>
</g>
<!-- Node0x902a6d0&#45;&gt;Node0x902b0d0 -->
<g id="edge12" class="edge"><title>Node0x902a6d0&#45;&gt;Node0x902b0d0</title>
<path fill="none" stroke="black" d="M479.725,-444.115C541.38,-439.16 647.76,-423.913 725,-377 749.673,-362.015 770.348,-336.002 783.517,-316.499"/>
<polygon fill="black" stroke="black" points="786.491,-318.346 789.027,-308.059 780.63,-314.519 786.491,-318.346"/>
<text text-anchor="middle" x="718" y="-398.8" font-family="Times,serif" font-size="14.00">v6 == 0</text>
</g>
<!-- Node0x902ab60 -->
<g id="node13" class="node"><title>Node0x902ab60</title>
<polygon fill="none" stroke="black" points="373.5,-97.5 373.5,-165.5 486.5,-165.5 486.5,-97.5 373.5,-97.5"/>
<text text-anchor="start" x="381.5" y="-150.3" font-family="Times,serif" font-size="14.00">0x8062408:</text>
<text text-anchor="start" x="381.5" y="-135.3" font-family="Times,serif" font-size="14.00"> g3 = v3</text>
<text text-anchor="start" x="381.5" y="-120.3" font-family="Times,serif" font-size="14.00"> g7 = v4</text>
<text text-anchor="start" x="381.5" y="-105.3" font-family="Times,serif" font-size="14.00"> return result</text>
</g>
<!-- Node0x902a3b0&#45;&gt;Node0x902ab60 -->
<g id="edge13" class="edge"><title>Node0x902a3b0&#45;&gt;Node0x902ab60</title>
<path fill="none" stroke="black" d="M430,-203.424C430,-193.886 430,-184.495 430,-175.823"/>
<polygon fill="black" stroke="black" points="433.5,-175.642 430,-165.642 426.5,-175.642 433.5,-175.642"/>
</g>
<!-- Node0x902b0d0&#45;&gt;Node0x902ab60 -->
<g id="edge14" class="edge"><title>Node0x902b0d0&#45;&gt;Node0x902ab60</title>
<path fill="none" stroke="black" d="M789.018,-271.957C776.569,-252.256 753.424,-220.326 725,-203 654.511,-160.033 559.724,-143.252 496.833,-136.698"/>
<polygon fill="black" stroke="black" points="496.931,-133.191 486.636,-135.696 496.246,-140.158 496.931,-133.191"/>
</g>
<!-- Node0x902ab60&#45;&gt;Node0x9028be0 -->
<g id="edge15" class="edge"><title>Node0x902ab60&#45;&gt;Node0x9028be0</title>
<path fill="none" stroke="black" d="M373.137,-114.564C309.215,-96.6495 207.285,-68.083 152.945,-52.8541"/>
<polygon fill="black" stroke="black" points="153.628,-49.4108 143.055,-50.0823 151.739,-56.1511 153.628,-49.4108"/>
</g>
</g>
</svg>
