<?xml version="1.0" encoding="UTF-8" standalone="no"?>
<!DOCTYPE svg PUBLIC "-//W3C//DTD SVG 1.1//EN"
 "http://www.w3.org/Graphics/SVG/1.1/DTD/svg11.dtd">
<!-- Generated by graphviz version 2.38.0 (20140413.2041)
 -->
<!-- Title: Control&#45;flow graph for function &#39;mbedtls_asn1_write_tag(*a1, a2, a3)&#39;. Pages: 1 -->
<svg width="786pt" height="552pt"
 viewBox="0.00 0.00 785.50 552.00" xmlns="http://www.w3.org/2000/svg" xmlns:xlink="http://www.w3.org/1999/xlink">
<g id="graph0" class="graph" transform="scale(1 1) rotate(0) translate(4 548)">
<title>Control&#45;flow graph for function &#39;mbedtls_asn1_write_tag(*a1, a2, a3)&#39;.</title>
<polygon fill="white" stroke="none" points="-4,4 -4,-548 781.5,-548 781.5,4 -4,4"/>
<text text-anchor="middle" x="388.75" y="-7.8" font-family="Times,serif" font-size="14.00">Control&#45;flow graph for function &#39;mbedtls_asn1_write_tag(*a1, a2, a3)&#39;.</text>
<!-- Node0xaf34660 -->
<g id="node1" class="node"><title>Node0xaf34660</title>
<polygon fill="none" stroke="black" points="492.5,-475.5 492.5,-543.5 551.5,-543.5 551.5,-475.5 492.5,-475.5"/>
<text text-anchor="start" x="500.5" y="-528.3" font-family="Times,serif" font-size="14.00">entry:</text>
<text text-anchor="start" x="500.5" y="-513.3" font-family="Times,serif" font-size="14.00"> a1</text>
<text text-anchor="start" x="500.5" y="-498.3" font-family="Times,serif" font-size="14.00"> a2</text>
<text text-anchor="start" x="500.5" y="-483.3" font-family="Times,serif" font-size="14.00"> a3</text>
</g>
<!-- Node0xaf36180 -->
<g id="node2" class="node"><title>Node0xaf36180</title>
<polygon fill="none" stroke="black" points="383.5,-369.5 383.5,-437.5 660.5,-437.5 660.5,-369.5 383.5,-369.5"/>
<text text-anchor="start" x="391.5" y="-422.3" font-family="Times,serif" font-size="14.00">0x80687c0:</text>
<text text-anchor="start" x="391.5" y="-407.3" font-family="Times,serif" font-size="14.00"> g4 = PtrToIntCastExpr&lt;int32&gt;(a1)</text>
<text text-anchor="start" x="391.5" y="-392.3" font-family="Times,serif" font-size="14.00"> v1 = *(a1)</text>
<text text-anchor="start" x="391.5" y="-377.3" font-family="Times,serif" font-size="14.00"> result</text>
</g>
<!-- Node0xaf34660&#45;&gt;Node0xaf36180 -->
<g id="edge1" class="edge"><title>Node0xaf34660&#45;&gt;Node0xaf36180</title>
<path fill="none" stroke="black" d="M522,-475.308C522,-466.583 522,-457.042 522,-447.87"/>
<polygon fill="black" stroke="black" points="525.5,-447.734 522,-437.734 518.5,-447.734 525.5,-447.734"/>
</g>
<!-- Node0xaf36750 -->
<g id="node3" class="node"><title>Node0xaf36750</title>
<polygon fill="none" stroke="black" points="449,-293.5 449,-331.5 595,-331.5 595,-293.5 449,-293.5"/>
<text text-anchor="start" x="457" y="-316.3" font-family="Times,serif" font-size="14.00">if ((v1 &#45; a2) &gt;= 1):</text>
<text text-anchor="start" x="457" y="-301.3" font-family="Times,serif" font-size="14.00"> else:</text>
</g>
<!-- Node0xaf36180&#45;&gt;Node0xaf36750 -->
<g id="edge2" class="edge"><title>Node0xaf36180&#45;&gt;Node0xaf36750</title>
<path fill="none" stroke="black" d="M522,-369.36C522,-360.365 522,-350.707 522,-341.993"/>
<polygon fill="black" stroke="black" points="525.5,-341.941 522,-331.941 518.5,-341.941 525.5,-341.941"/>
</g>
<!-- Node0x20f38250 -->
<g id="node4" class="node"><title>Node0x20f38250</title>
<polygon fill="none" stroke="black" points="0,-173.5 0,-241.5 648,-241.5 648,-173.5 0,-173.5"/>
<text text-anchor="start" x="8" y="-226.3" font-family="Times,serif" font-size="14.00">0x80687e3:</text>
<text text-anchor="start" x="8" y="-211.3" font-family="Times,serif" font-size="14.00"> *(a1) = (v1 &#45; 1)</text>
<text text-anchor="start" x="8" y="-196.3" font-family="Times,serif" font-size="14.00"> *(IntToPtrCastExpr&lt;ptr&gt;((v1 &#45; 1))) = TruncCastExpr&lt;int8&gt;(ExtCastExpr&lt;int32&gt;(a3))</text>
<text text-anchor="start" x="8" y="-181.3" font-family="Times,serif" font-size="14.00"> result = 1</text>
</g>
<!-- Node0xaf36750&#45;&gt;Node0x20f38250 -->
<g id="edge3" class="edge"><title>Node0xaf36750&#45;&gt;Node0x20f38250</title>
<path fill="none" stroke="black" d="M487.057,-293.323C462.099,-280.34 427.622,-262.405 396.797,-246.369"/>
<polygon fill="black" stroke="black" points="398.275,-243.193 387.788,-241.683 395.045,-249.403 398.275,-243.193"/>
<text text-anchor="middle" x="497.5" y="-263.8" font-family="Times,serif" font-size="14.00">(v1 &#45; a2) &gt;= 1</text>
</g>
<!-- Node0x20f37e00 -->
<g id="node5" class="node"><title>Node0x20f37e00</title>
<polygon fill="none" stroke="black" points="666.5,-189.5 666.5,-225.5 777.5,-225.5 777.5,-189.5 666.5,-189.5"/>
<text text-anchor="start" x="674.5" y="-203.8" font-family="Times,serif" font-size="14.00">result = &#45;108</text>
</g>
<!-- Node0xaf36750&#45;&gt;Node0x20f37e00 -->
<g id="edge4" class="edge"><title>Node0xaf36750&#45;&gt;Node0x20f37e00</title>
<path fill="none" stroke="black" d="M557.249,-293.359C584.49,-279.338 623.137,-259.443 657,-242 664.382,-238.198 672.235,-234.151 679.836,-230.234"/>
<polygon fill="black" stroke="black" points="681.649,-233.237 688.934,-225.545 678.442,-227.015 681.649,-233.237"/>
<text text-anchor="middle" x="664.5" y="-263.8" font-family="Times,serif" font-size="14.00">(v1 &#45; a2) &lt; 1</text>
</g>
<!-- Node0x20f381a0 -->
<g id="node6" class="node"><title>Node0x20f381a0</title>
<polygon fill="none" stroke="black" points="512.5,-97.5 512.5,-135.5 625.5,-135.5 625.5,-97.5 512.5,-97.5"/>
<text text-anchor="start" x="520.5" y="-120.3" font-family="Times,serif" font-size="14.00">0x80687f2:</text>
<text text-anchor="start" x="520.5" y="-105.3" font-family="Times,serif" font-size="14.00"> return result</text>
</g>
<!-- Node0x20f38250&#45;&gt;Node0x20f381a0 -->
<g id="edge5" class="edge"><title>Node0x20f38250&#45;&gt;Node0x20f381a0</title>
<path fill="none" stroke="black" d="M414.881,-173.486C446.432,-162.025 480.986,-149.472 509.366,-139.163"/>
<polygon fill="black" stroke="black" points="510.928,-142.32 519.132,-135.615 508.538,-135.74 510.928,-142.32"/>
</g>
<!-- Node0x20f37e00&#45;&gt;Node0x20f381a0 -->
<g id="edge6" class="edge"><title>Node0x20f37e00&#45;&gt;Node0x20f381a0</title>
<path fill="none" stroke="black" d="M692.5,-189.34C668.731,-175.513 635.078,-155.937 608.903,-140.711"/>
<polygon fill="black" stroke="black" points="610.389,-137.527 599.985,-135.524 606.869,-143.577 610.389,-137.527"/>
</g>
<!-- Node0x7aeede0 -->
<g id="node7" class="node"><title>Node0x7aeede0</title>
<polygon fill="none" stroke="black" points="542,-23.5 542,-59.5 596,-59.5 596,-23.5 542,-23.5"/>
<text text-anchor="start" x="550" y="-37.8" font-family="Times,serif" font-size="14.00">exit:</text>
</g>
<!-- Node0x20f381a0&#45;&gt;Node0x7aeede0 -->
<g id="edge7" class="edge"><title>Node0x20f381a0&#45;&gt;Node0x7aeede0</title>
<path fill="none" stroke="black" d="M569,-97.4551C569,-89.2008 569,-79.2377 569,-70.0742"/>
<polygon fill="black" stroke="black" points="572.5,-69.8347 569,-59.8347 565.5,-69.8347 572.5,-69.8347"/>
</g>
</g>
</svg>
