<?xml version="1.0" encoding="UTF-8" standalone="no"?>
<!DOCTYPE svg PUBLIC "-//W3C//DTD SVG 1.1//EN"
 "http://www.w3.org/Graphics/SVG/1.1/DTD/svg11.dtd">
<!-- Generated by graphviz version 2.38.0 (20140413.2041)
 -->
<!-- Title: Control&#45;flow graph for function &#39;pop_arg(a1, a2, a3)&#39;. Pages: 1 -->
<svg width="4080pt" height="1039pt"
 viewBox="0.00 0.00 4079.62 1039.00" xmlns="http://www.w3.org/2000/svg" xmlns:xlink="http://www.w3.org/1999/xlink">
<g id="graph0" class="graph" transform="scale(1 1) rotate(0) translate(4 1035)">
<title>Control&#45;flow graph for function &#39;pop_arg(a1, a2, a3)&#39;.</title>
<polygon fill="white" stroke="none" points="-4,4 -4,-1035 4075.62,-1035 4075.62,4 -4,4"/>
<text text-anchor="middle" x="2035.81" y="-7.8" font-family="Times,serif" font-size="14.00">Control&#45;flow graph for function &#39;pop_arg(a1, a2, a3)&#39;.</text>
<!-- Node0x17cbba80 -->
<g id="node1" class="node"><title>Node0x17cbba80</title>
<polygon fill="none" stroke="black" points="466.5,-962.5 466.5,-1030.5 525.5,-1030.5 525.5,-962.5 466.5,-962.5"/>
<text text-anchor="start" x="474.5" y="-1015.3" font-family="Times,serif" font-size="14.00">entry:</text>
<text text-anchor="start" x="474.5" y="-1000.3" font-family="Times,serif" font-size="14.00"> a1</text>
<text text-anchor="start" x="474.5" y="-985.3" font-family="Times,serif" font-size="14.00"> a2</text>
<text text-anchor="start" x="474.5" y="-970.3" font-family="Times,serif" font-size="14.00"> a3</text>
</g>
<!-- Node0x17cbc130 -->
<g id="node2" class="node"><title>Node0x17cbc130</title>
<polygon fill="none" stroke="black" points="459.5,-886.5 459.5,-924.5 532.5,-924.5 532.5,-886.5 459.5,-886.5"/>
<text text-anchor="start" x="467.5" y="-909.3" font-family="Times,serif" font-size="14.00">v1 = g6</text>
<text text-anchor="start" x="467.5" y="-894.3" font-family="Times,serif" font-size="14.00"> v2</text>
</g>
<!-- Node0x17cbba80&#45;&gt;Node0x17cbc130 -->
<g id="edge1" class="edge"><title>Node0x17cbba80&#45;&gt;Node0x17cbc130</title>
<path fill="none" stroke="black" d="M496,-962.36C496,-953.365 496,-943.707 496,-934.993"/>
<polygon fill="black" stroke="black" points="499.5,-934.941 496,-924.941 492.5,-934.941 499.5,-934.941"/>
</g>
<!-- Node0x17cbc220 -->
<g id="node3" class="node"><title>Node0x17cbc220</title>
<polygon fill="none" stroke="black" points="445,-812.5 445,-848.5 547,-848.5 547,-812.5 445,-812.5"/>
<text text-anchor="start" x="453" y="-826.8" font-family="Times,serif" font-size="14.00">if (v1 &gt; 20):</text>
</g>
<!-- Node0x17cbc130&#45;&gt;Node0x17cbc220 -->
<g id="edge2" class="edge"><title>Node0x17cbc130&#45;&gt;Node0x17cbc220</title>
<path fill="none" stroke="black" d="M496,-886.455C496,-878.201 496,-868.238 496,-859.074"/>
<polygon fill="black" stroke="black" points="499.5,-858.835 496,-848.835 492.5,-858.835 499.5,-858.835"/>
</g>
<!-- Node0x13d6c520 -->
<g id="node4" class="node"><title>Node0x13d6c520</title>
<polygon fill="none" stroke="black" points="38,-590.5 38,-643.5 136,-643.5 136,-590.5 38,-590.5"/>
<text text-anchor="start" x="46" y="-628.3" font-family="Times,serif" font-size="14.00">0x80732f7:</text>
<text text-anchor="start" x="46" y="-613.3" font-family="Times,serif" font-size="14.00"> g3 = v2</text>
<text text-anchor="start" x="46" y="-598.3" font-family="Times,serif" font-size="14.00"> return g4</text>
</g>
<!-- Node0x17cbc220&#45;&gt;Node0x13d6c520 -->
<g id="edge3" class="edge"><title>Node0x17cbc220&#45;&gt;Node0x13d6c520</title>
<path fill="none" stroke="black" d="M462.876,-812.371C393.54,-776.516 232.349,-693.162 145.284,-648.139"/>
<polygon fill="black" stroke="black" points="146.816,-644.992 136.326,-643.507 143.601,-651.209 146.816,-644.992"/>
<text text-anchor="middle" x="450.5" y="-782.8" font-family="Times,serif" font-size="14.00">v1 &gt; 20</text>
</g>
<!-- Node0x17cbc420 -->
<g id="node5" class="node"><title>Node0x17cbc420</title>
<polygon fill="none" stroke="black" points="1164.5,-662.5 1164.5,-760.5 1425.5,-760.5 1425.5,-662.5 1164.5,-662.5"/>
<text text-anchor="start" x="1172.5" y="-745.3" font-family="Times,serif" font-size="14.00">0x8073251:</text>
<text text-anchor="start" x="1172.5" y="-730.3" font-family="Times,serif" font-size="14.00"> g6 = (v1 &#45; 9)</text>
<text text-anchor="start" x="1172.5" y="-715.3" font-family="Times,serif" font-size="14.00"> v3 = IntToPtrCastExpr&lt;ptr&gt;(g4)</text>
<text text-anchor="start" x="1172.5" y="-700.3" font-family="Times,serif" font-size="14.00"> v4 = *(v3)</text>
<text text-anchor="start" x="1172.5" y="-685.3" font-family="Times,serif" font-size="14.00"> v5</text>
<text text-anchor="start" x="1172.5" y="-670.3" font-family="Times,serif" font-size="14.00"> v6</text>
</g>
<!-- Node0x17cbc220&#45;&gt;Node0x17cbc420 -->
<g id="edge4" class="edge"><title>Node0x17cbc220&#45;&gt;Node0x17cbc420</title>
<path fill="none" stroke="black" d="M547.197,-822.003C667.792,-804.344 973.159,-759.628 1154.19,-733.119"/>
<polygon fill="black" stroke="black" points="1154.93,-736.548 1164.32,-731.636 1153.92,-729.622 1154.93,-736.548"/>
<text text-anchor="middle" x="858.5" y="-782.8" font-family="Times,serif" font-size="14.00">v1 &lt;= 20</text>
</g>
<!-- Node0x17cbc0b0 -->
<g id="node6" class="node"><title>Node0x17cbc0b0</title>
<polygon fill="none" stroke="black" points="413,-23.5 413,-59.5 467,-59.5 467,-23.5 413,-23.5"/>
<text text-anchor="start" x="421" y="-37.8" font-family="Times,serif" font-size="14.00">exit:</text>
</g>
<!-- Node0x13d6c520&#45;&gt;Node0x17cbc0b0 -->
<g id="edge5" class="edge"><title>Node0x13d6c520&#45;&gt;Node0x17cbc0b0</title>
<path fill="none" stroke="black" d="M71.0429,-590.183C45.9267,-547.011 0,-456.694 0,-373.5 0,-373.5 0,-373.5 0,-123 0,-82.2231 296.185,-54.1691 402.541,-45.4097"/>
<polygon fill="black" stroke="black" points="403.124,-48.874 412.808,-44.5758 402.558,-41.897 403.124,-48.874"/>
</g>
<!-- Node0x17cbbd90 -->
<g id="node7" class="node"><title>Node0x17cbbd90</title>
<polygon fill="none" stroke="black" points="1807,-398.5 1807,-571.5 1897,-571.5 1897,-398.5 1807,-398.5"/>
<text text-anchor="start" x="1815" y="-556.3" font-family="Times,serif" font-size="14.00">switch v1:</text>
<text text-anchor="start" x="1815" y="-541.3" font-family="Times,serif" font-size="14.00"> case 9:</text>
<text text-anchor="start" x="1815" y="-526.3" font-family="Times,serif" font-size="14.00"> case 10:</text>
<text text-anchor="start" x="1815" y="-511.3" font-family="Times,serif" font-size="14.00"> case 11:</text>
<text text-anchor="start" x="1815" y="-496.3" font-family="Times,serif" font-size="14.00"> case 12:</text>
<text text-anchor="start" x="1815" y="-481.3" font-family="Times,serif" font-size="14.00"> case 13:</text>
<text text-anchor="start" x="1815" y="-466.3" font-family="Times,serif" font-size="14.00"> case 14:</text>
<text text-anchor="start" x="1815" y="-451.3" font-family="Times,serif" font-size="14.00"> case 15:</text>
<text text-anchor="start" x="1815" y="-436.3" font-family="Times,serif" font-size="14.00"> case 16:</text>
<text text-anchor="start" x="1815" y="-421.3" font-family="Times,serif" font-size="14.00"> case 17:</text>
<text text-anchor="start" x="1815" y="-406.3" font-family="Times,serif" font-size="14.00"> case 18:</text>
</g>
<!-- Node0x17cbc420&#45;&gt;Node0x17cbbd90 -->
<g id="edge6" class="edge"><title>Node0x17cbc420&#45;&gt;Node0x17cbbd90</title>
<path fill="none" stroke="black" d="M1414.15,-662.477C1532.71,-614.692 1709.33,-543.502 1797.63,-507.913"/>
<polygon fill="black" stroke="black" points="1798.96,-511.152 1806.93,-504.167 1796.34,-504.659 1798.96,-511.152"/>
</g>
<!-- Node0x13d6c5a0 -->
<g id="node8" class="node"><title>Node0x13d6c5a0</title>
<polygon fill="none" stroke="black" points="28.5,-218.5 28.5,-316.5 307.5,-316.5 307.5,-218.5 28.5,-218.5"/>
<text text-anchor="start" x="36.5" y="-301.3" font-family="Times,serif" font-size="14.00">0x8073266:</text>
<text text-anchor="start" x="36.5" y="-286.3" font-family="Times,serif" font-size="14.00"> *(v3) = (v4 + 4)</text>
<text text-anchor="start" x="36.5" y="-271.3" font-family="Times,serif" font-size="14.00"> v7 = *(IntToPtrCastExpr&lt;ptr&gt;(v4))</text>
<text text-anchor="start" x="36.5" y="-256.3" font-family="Times,serif" font-size="14.00"> g6 = v7</text>
<text text-anchor="start" x="36.5" y="-241.3" font-family="Times,serif" font-size="14.00"> *(IntToPtrCastExpr&lt;ptr&gt;(g1)) = v7</text>
<text text-anchor="start" x="36.5" y="-226.3" font-family="Times,serif" font-size="14.00"> break</text>
</g>
<!-- Node0x17cbbd90&#45;&gt;Node0x13d6c5a0 -->
<g id="edge7" class="edge"><title>Node0x17cbbd90&#45;&gt;Node0x13d6c5a0</title>
<path fill="none" stroke="black" d="M1806.98,-479.988C1651.51,-466.133 1122.74,-419.006 686,-380 521.998,-365.353 474.918,-393.617 317,-347 295.843,-340.755 274.216,-331.372 254.232,-321.245"/>
<polygon fill="black" stroke="black" points="255.663,-318.044 245.174,-316.548 252.44,-324.258 255.663,-318.044"/>
<text text-anchor="middle" x="716" y="-368.8" font-family="Times,serif" font-size="14.00">v1 == 9</text>
</g>
<!-- Node0x13d6c710 -->
<g id="node9" class="node"><title>Node0x13d6c710</title>
<polygon fill="none" stroke="black" points="326,-196 326,-339 646,-339 646,-196 326,-196"/>
<text text-anchor="start" x="334" y="-323.8" font-family="Times,serif" font-size="14.00">0x8073274:</text>
<text text-anchor="start" x="334" y="-308.8" font-family="Times,serif" font-size="14.00"> *(v3) = (v4 + 4)</text>
<text text-anchor="start" x="334" y="-293.8" font-family="Times,serif" font-size="14.00"> v5 = *(IntToPtrCastExpr&lt;ptr&gt;(v4))</text>
<text text-anchor="start" x="334" y="-278.8" font-family="Times,serif" font-size="14.00"> g6 = v5</text>
<text text-anchor="start" x="334" y="-263.8" font-family="Times,serif" font-size="14.00"> *(IntToPtrCastExpr&lt;ptr&gt;(g1)) = v5</text>
<text text-anchor="start" x="334" y="-248.8" font-family="Times,serif" font-size="14.00"> v6 = (v5 &gt;&gt; 31)</text>
<text text-anchor="start" x="334" y="-233.8" font-family="Times,serif" font-size="14.00"> g4 = v6</text>
<text text-anchor="start" x="334" y="-218.8" font-family="Times,serif" font-size="14.00"> *(IntToPtrCastExpr&lt;ptr&gt;((g1 + 4))) = v6</text>
<text text-anchor="start" x="334" y="-203.8" font-family="Times,serif" font-size="14.00"> break</text>
</g>
<!-- Node0x17cbbd90&#45;&gt;Node0x13d6c710 -->
<g id="edge8" class="edge"><title>Node0x17cbbd90&#45;&gt;Node0x13d6c710</title>
<path fill="none" stroke="black" d="M1806.99,-483.99C1646.91,-482.882 1091.41,-469.851 655,-347 649.971,-345.584 644.904,-344.035 639.824,-342.374"/>
<polygon fill="black" stroke="black" points="640.64,-338.955 630.045,-339.05 638.387,-345.582 640.64,-338.955"/>
<text text-anchor="middle" x="816.5" y="-368.8" font-family="Times,serif" font-size="14.00">v1 == 10</text>
</g>
<!-- Node0x13d6c930 -->
<g id="node10" class="node"><title>Node0x13d6c930</title>
<polygon fill="none" stroke="black" points="664.5,-211 664.5,-324 975.5,-324 975.5,-211 664.5,-211"/>
<text text-anchor="start" x="672.5" y="-308.8" font-family="Times,serif" font-size="14.00">0x807327d:</text>
<text text-anchor="start" x="672.5" y="-293.8" font-family="Times,serif" font-size="14.00"> *(v3) = (v4 + 4)</text>
<text text-anchor="start" x="672.5" y="-278.8" font-family="Times,serif" font-size="14.00"> v8 = *(IntToPtrCastExpr&lt;ptr&gt;(v4))</text>
<text text-anchor="start" x="672.5" y="-263.8" font-family="Times,serif" font-size="14.00"> g6 = v8</text>
<text text-anchor="start" x="672.5" y="-248.8" font-family="Times,serif" font-size="14.00"> *(IntToPtrCastExpr&lt;ptr&gt;(g1)) = v8</text>
<text text-anchor="start" x="672.5" y="-233.8" font-family="Times,serif" font-size="14.00"> *(IntToPtrCastExpr&lt;ptr&gt;((g1 + 4))) = 0</text>
<text text-anchor="start" x="672.5" y="-218.8" font-family="Times,serif" font-size="14.00"> break</text>
</g>
<!-- Node0x17cbbd90&#45;&gt;Node0x13d6c930 -->
<g id="edge9" class="edge"><title>Node0x17cbbd90&#45;&gt;Node0x13d6c930</title>
<path fill="none" stroke="black" d="M1806.76,-481.432C1676.43,-473.068 1289.96,-441.466 985,-347 968.535,-341.9 951.626,-335.428 935.204,-328.397"/>
<polygon fill="black" stroke="black" points="936.162,-324.996 925.598,-324.199 933.359,-331.411 936.162,-324.996"/>
<text text-anchor="middle" x="1134.5" y="-368.8" font-family="Times,serif" font-size="14.00">v1 == 11</text>
</g>
<!-- Node0x13d6ca40 -->
<g id="node11" class="node"><title>Node0x13d6ca40</title>
<polygon fill="none" stroke="black" points="994,-203.5 994,-331.5 1314,-331.5 1314,-203.5 994,-203.5"/>
<text text-anchor="start" x="1002" y="-316.3" font-family="Times,serif" font-size="14.00">0x8073286:</text>
<text text-anchor="start" x="1002" y="-301.3" font-family="Times,serif" font-size="14.00"> *(v3) = (v4 + 8)</text>
<text text-anchor="start" x="1002" y="-286.3" font-family="Times,serif" font-size="14.00"> v9 = *(IntToPtrCastExpr&lt;ptr&gt;(v4))</text>
<text text-anchor="start" x="1002" y="-271.3" font-family="Times,serif" font-size="14.00"> g6 = v9</text>
<text text-anchor="start" x="1002" y="-256.3" font-family="Times,serif" font-size="14.00"> g4 = *(IntToPtrCastExpr&lt;ptr&gt;((v4 + 4)))</text>
<text text-anchor="start" x="1002" y="-241.3" font-family="Times,serif" font-size="14.00"> *(IntToPtrCastExpr&lt;ptr&gt;(g1)) = v9</text>
<text text-anchor="start" x="1002" y="-226.3" font-family="Times,serif" font-size="14.00"> *(IntToPtrCastExpr&lt;ptr&gt;((g1 + 4))) = g4</text>
<text text-anchor="start" x="1002" y="-211.3" font-family="Times,serif" font-size="14.00"> break</text>
</g>
<!-- Node0x17cbbd90&#45;&gt;Node0x13d6ca40 -->
<g id="edge10" class="edge"><title>Node0x17cbbd90&#45;&gt;Node0x13d6ca40</title>
<path fill="none" stroke="black" d="M1806.94,-475.218C1714.59,-456.593 1497.82,-409.654 1323,-347 1313.09,-343.449 1302.97,-339.532 1292.85,-335.4"/>
<polygon fill="black" stroke="black" points="1294.14,-332.147 1283.57,-331.549 1291.46,-338.613 1294.14,-332.147"/>
<text text-anchor="middle" x="1456.5" y="-368.8" font-family="Times,serif" font-size="14.00">v1 == 12</text>
</g>
<!-- Node0x17cbab50 -->
<g id="node12" class="node"><title>Node0x17cbab50</title>
<polygon fill="none" stroke="black" points="1332,-188.5 1332,-346.5 1784,-346.5 1784,-188.5 1332,-188.5"/>
<text text-anchor="start" x="1340" y="-331.3" font-family="Times,serif" font-size="14.00">0x8073297:</text>
<text text-anchor="start" x="1340" y="-316.3" font-family="Times,serif" font-size="14.00"> *(v3) = (v4 + 4)</text>
<text text-anchor="start" x="1340" y="-301.3" font-family="Times,serif" font-size="14.00"> v10 = ExtCastExpr&lt;int32&gt;(*(IntToPtrCastExpr&lt;ptr&gt;(v4)))</text>
<text text-anchor="start" x="1340" y="-286.3" font-family="Times,serif" font-size="14.00"> g6 = v10</text>
<text text-anchor="start" x="1340" y="-271.3" font-family="Times,serif" font-size="14.00"> v5 = v10</text>
<text text-anchor="start" x="1340" y="-256.3" font-family="Times,serif" font-size="14.00"> *(IntToPtrCastExpr&lt;ptr&gt;(g1)) = v5</text>
<text text-anchor="start" x="1340" y="-241.3" font-family="Times,serif" font-size="14.00"> v6 = (v5 &gt;&gt; 31)</text>
<text text-anchor="start" x="1340" y="-226.3" font-family="Times,serif" font-size="14.00"> g4 = v6</text>
<text text-anchor="start" x="1340" y="-211.3" font-family="Times,serif" font-size="14.00"> *(IntToPtrCastExpr&lt;ptr&gt;((g1 + 4))) = v6</text>
<text text-anchor="start" x="1340" y="-196.3" font-family="Times,serif" font-size="14.00"> break</text>
</g>
<!-- Node0x17cbbd90&#45;&gt;Node0x17cbab50 -->
<g id="edge11" class="edge"><title>Node0x17cbbd90&#45;&gt;Node0x17cbab50</title>
<path fill="none" stroke="black" d="M1806.71,-450.8C1771,-424.628 1719.59,-386.946 1672.77,-352.627"/>
<polygon fill="black" stroke="black" points="1674.83,-349.796 1664.7,-346.707 1670.69,-355.442 1674.83,-349.796"/>
<text text-anchor="middle" x="1739.5" y="-368.8" font-family="Times,serif" font-size="14.00">v1 == 13</text>
</g>
<!-- Node0x13d6c8c0 -->
<g id="node13" class="node"><title>Node0x13d6c8c0</title>
<polygon fill="none" stroke="black" points="1802,-211 1802,-324 2254,-324 2254,-211 1802,-211"/>
<text text-anchor="start" x="1810" y="-308.8" font-family="Times,serif" font-size="14.00">0x80732a1:</text>
<text text-anchor="start" x="1810" y="-293.8" font-family="Times,serif" font-size="14.00"> *(v3) = (v4 + 4)</text>
<text text-anchor="start" x="1810" y="-278.8" font-family="Times,serif" font-size="14.00"> v11 = ExtCastExpr&lt;int32&gt;(*(IntToPtrCastExpr&lt;ptr&gt;(v4)))</text>
<text text-anchor="start" x="1810" y="-263.8" font-family="Times,serif" font-size="14.00"> g6 = v11</text>
<text text-anchor="start" x="1810" y="-248.8" font-family="Times,serif" font-size="14.00"> *(IntToPtrCastExpr&lt;ptr&gt;(g1)) = v11</text>
<text text-anchor="start" x="1810" y="-233.8" font-family="Times,serif" font-size="14.00"> *(IntToPtrCastExpr&lt;ptr&gt;((g1 + 4))) = 0</text>
<text text-anchor="start" x="1810" y="-218.8" font-family="Times,serif" font-size="14.00"> break</text>
</g>
<!-- Node0x17cbbd90&#45;&gt;Node0x13d6c8c0 -->
<g id="edge12" class="edge"><title>Node0x17cbbd90&#45;&gt;Node0x13d6c8c0</title>
<path fill="none" stroke="black" d="M1897.1,-428.783C1921.12,-399.363 1950.8,-363.024 1975.82,-332.389"/>
<polygon fill="black" stroke="black" points="1978.79,-334.281 1982.41,-324.322 1973.37,-329.854 1978.79,-334.281"/>
<text text-anchor="middle" x="1979.5" y="-368.8" font-family="Times,serif" font-size="14.00">v1 == 14</text>
</g>
<!-- Node0x17cbac90 -->
<g id="node14" class="node"><title>Node0x17cbac90</title>
<polygon fill="none" stroke="black" points="2272,-188.5 2272,-346.5 2724,-346.5 2724,-188.5 2272,-188.5"/>
<text text-anchor="start" x="2280" y="-331.3" font-family="Times,serif" font-size="14.00">0x80732ab:</text>
<text text-anchor="start" x="2280" y="-316.3" font-family="Times,serif" font-size="14.00"> *(v3) = (v4 + 4)</text>
<text text-anchor="start" x="2280" y="-301.3" font-family="Times,serif" font-size="14.00"> v12 = ExtCastExpr&lt;int32&gt;(*(IntToPtrCastExpr&lt;ptr&gt;(v4)))</text>
<text text-anchor="start" x="2280" y="-286.3" font-family="Times,serif" font-size="14.00"> g6 = v12</text>
<text text-anchor="start" x="2280" y="-271.3" font-family="Times,serif" font-size="14.00"> v5 = v12</text>
<text text-anchor="start" x="2280" y="-256.3" font-family="Times,serif" font-size="14.00"> *(IntToPtrCastExpr&lt;ptr&gt;(g1)) = v5</text>
<text text-anchor="start" x="2280" y="-241.3" font-family="Times,serif" font-size="14.00"> v6 = (v5 &gt;&gt; 31)</text>
<text text-anchor="start" x="2280" y="-226.3" font-family="Times,serif" font-size="14.00"> g4 = v6</text>
<text text-anchor="start" x="2280" y="-211.3" font-family="Times,serif" font-size="14.00"> *(IntToPtrCastExpr&lt;ptr&gt;((g1 + 4))) = v6</text>
<text text-anchor="start" x="2280" y="-196.3" font-family="Times,serif" font-size="14.00"> break</text>
</g>
<!-- Node0x17cbbd90&#45;&gt;Node0x17cbac90 -->
<g id="edge13" class="edge"><title>Node0x17cbbd90&#45;&gt;Node0x17cbac90</title>
<path fill="none" stroke="black" d="M1897.01,-469.008C1970.92,-444.385 2122.91,-393.742 2262.34,-347.219"/>
<polygon fill="black" stroke="black" points="2263.56,-350.504 2271.93,-344.019 2261.34,-343.864 2263.56,-350.504"/>
<text text-anchor="middle" x="2241.5" y="-368.8" font-family="Times,serif" font-size="14.00">v1 == 15</text>
</g>
<!-- Node0x13d6ce60 -->
<g id="node15" class="node"><title>Node0x13d6ce60</title>
<polygon fill="none" stroke="black" points="2742,-211 2742,-324 3194,-324 3194,-211 2742,-211"/>
<text text-anchor="start" x="2750" y="-308.8" font-family="Times,serif" font-size="14.00">0x80732bc:</text>
<text text-anchor="start" x="2750" y="-293.8" font-family="Times,serif" font-size="14.00"> *(v3) = (v4 + 4)</text>
<text text-anchor="start" x="2750" y="-278.8" font-family="Times,serif" font-size="14.00"> v13 = ExtCastExpr&lt;int32&gt;(*(IntToPtrCastExpr&lt;ptr&gt;(v4)))</text>
<text text-anchor="start" x="2750" y="-263.8" font-family="Times,serif" font-size="14.00"> g6 = v13</text>
<text text-anchor="start" x="2750" y="-248.8" font-family="Times,serif" font-size="14.00"> *(IntToPtrCastExpr&lt;ptr&gt;(g1)) = v13</text>
<text text-anchor="start" x="2750" y="-233.8" font-family="Times,serif" font-size="14.00"> *(IntToPtrCastExpr&lt;ptr&gt;((g1 + 4))) = 0</text>
<text text-anchor="start" x="2750" y="-218.8" font-family="Times,serif" font-size="14.00"> break</text>
</g>
<!-- Node0x17cbbd90&#45;&gt;Node0x13d6ce60 -->
<g id="edge14" class="edge"><title>Node0x17cbbd90&#45;&gt;Node0x13d6ce60</title>
<path fill="none" stroke="black" d="M1897.45,-479.659C2028.51,-466.562 2417.88,-423.557 2733,-347 2756.24,-341.355 2780.46,-334.46 2804.15,-327.124"/>
<polygon fill="black" stroke="black" points="2805.41,-330.397 2813.91,-324.069 2803.32,-323.717 2805.41,-330.397"/>
<text text-anchor="middle" x="2672.5" y="-368.8" font-family="Times,serif" font-size="14.00">v1 == 16</text>
</g>
<!-- Node0x13d6d210 -->
<g id="node16" class="node"><title>Node0x13d6d210</title>
<polygon fill="none" stroke="black" points="3212,-226 3212,-309 3526,-309 3526,-226 3212,-226"/>
<text text-anchor="start" x="3220" y="-293.8" font-family="Times,serif" font-size="14.00">v14 = (v4 + 8)</text>
<text text-anchor="start" x="3220" y="-278.8" font-family="Times,serif" font-size="14.00"> g6 = v14</text>
<text text-anchor="start" x="3220" y="-263.8" font-family="Times,serif" font-size="14.00"> *(v3) = v14</text>
<text text-anchor="start" x="3220" y="-248.8" font-family="Times,serif" font-size="14.00"> *(IntToPtrCastExpr&lt;ptr&gt;(g1)) = 0.0e+0</text>
<text text-anchor="start" x="3220" y="-233.8" font-family="Times,serif" font-size="14.00"> break</text>
</g>
<!-- Node0x17cbbd90&#45;&gt;Node0x13d6d210 -->
<g id="edge15" class="edge"><title>Node0x17cbbd90&#45;&gt;Node0x13d6d210</title>
<path fill="none" stroke="black" d="M1897.09,-481.49C2102.22,-469.76 2948.2,-417.901 3203,-347 3231.71,-339.011 3261.59,-326.39 3287.95,-313.584"/>
<polygon fill="black" stroke="black" points="3289.7,-316.621 3297.12,-309.054 3286.6,-310.345 3289.7,-316.621"/>
<text text-anchor="middle" x="3153.5" y="-368.8" font-family="Times,serif" font-size="14.00">v1 == 17</text>
</g>
<!-- Node0x13d6c690 -->
<g id="node17" class="node"><title>Node0x13d6c690</title>
<polygon fill="none" stroke="black" points="3544.5,-226 3544.5,-309 4025.5,-309 4025.5,-226 3544.5,-226"/>
<text text-anchor="start" x="3552.5" y="-293.8" font-family="Times,serif" font-size="14.00">v15 = (v4 + 12)</text>
<text text-anchor="start" x="3552.5" y="-278.8" font-family="Times,serif" font-size="14.00"> g6 = v15</text>
<text text-anchor="start" x="3552.5" y="-263.8" font-family="Times,serif" font-size="14.00"> *(v3) = v15</text>
<text text-anchor="start" x="3552.5" y="-248.8" font-family="Times,serif" font-size="14.00"> *(IntToPtrCastExpr&lt;ptr&gt;(g1)) = *(IntToPtrCastExpr&lt;ptr&gt;(v4))</text>
<text text-anchor="start" x="3552.5" y="-233.8" font-family="Times,serif" font-size="14.00"> break</text>
</g>
<!-- Node0x17cbbd90&#45;&gt;Node0x13d6c690 -->
<g id="edge16" class="edge"><title>Node0x17cbbd90&#45;&gt;Node0x13d6c690</title>
<path fill="none" stroke="black" d="M1897.08,-484.235C2093.65,-484.445 2894.67,-476.857 3535,-347 3577.62,-338.357 3623.26,-325.225 3663.73,-312.16"/>
<polygon fill="black" stroke="black" points="3664.94,-315.448 3673.36,-309.021 3662.77,-308.792 3664.94,-315.448"/>
<text text-anchor="middle" x="3434.5" y="-368.8" font-family="Times,serif" font-size="14.00">v1 == 18</text>
</g>
<!-- Node0x13d6c480 -->
<g id="node18" class="node"><title>Node0x13d6c480</title>
<polygon fill="none" stroke="black" points="1688,-97.5 1688,-150.5 1786,-150.5 1786,-97.5 1688,-97.5"/>
<text text-anchor="start" x="1696" y="-135.3" font-family="Times,serif" font-size="14.00">0x80732f7:</text>
<text text-anchor="start" x="1696" y="-120.3" font-family="Times,serif" font-size="14.00"> g3 = v2</text>
<text text-anchor="start" x="1696" y="-105.3" font-family="Times,serif" font-size="14.00"> return g4</text>
</g>
<!-- Node0x17cbbd90&#45;&gt;Node0x13d6c480 -->
<g id="edge17" class="edge"><title>Node0x17cbbd90&#45;&gt;Node0x13d6c480</title>
<path fill="none" stroke="black" d="M1897.37,-482.896C2203.65,-475.228 3959.08,-427.833 4035,-347 4083.38,-295.49 4084.21,-238.713 4035,-188 3994.83,-146.61 2152.58,-128.593 1796.3,-125.493"/>
<polygon fill="black" stroke="black" points="1796.22,-121.992 1786.19,-125.406 1796.16,-128.992 1796.22,-121.992"/>
</g>
<!-- Node0x13d6c5a0&#45;&gt;Node0x13d6c480 -->
<g id="edge18" class="edge"><title>Node0x13d6c5a0&#45;&gt;Node0x13d6c480</title>
<path fill="none" stroke="black" d="M243.814,-218.35C266.51,-206.238 292.025,-194.768 317,-188 449.586,-152.073 1425.78,-130.983 1677.78,-126.099"/>
<polygon fill="black" stroke="black" points="1677.9,-129.597 1687.84,-125.905 1677.77,-122.599 1677.9,-129.597"/>
</g>
<!-- Node0x13d6c710&#45;&gt;Node0x13d6c480 -->
<g id="edge19" class="edge"><title>Node0x13d6c710&#45;&gt;Node0x13d6c480</title>
<path fill="none" stroke="black" d="M628.473,-195.872C637.331,-192.876 646.216,-190.21 655,-188 851.188,-138.635 1481.17,-127.751 1677.8,-125.531"/>
<polygon fill="black" stroke="black" points="1677.97,-129.03 1687.93,-125.42 1677.9,-122.03 1677.97,-129.03"/>
</g>
<!-- Node0x13d6c930&#45;&gt;Node0x13d6c480 -->
<g id="edge20" class="edge"><title>Node0x13d6c930&#45;&gt;Node0x13d6c480</title>
<path fill="none" stroke="black" d="M922.121,-210.973C942.457,-201.921 964.022,-193.667 985,-188 1115.44,-152.766 1523.86,-133.411 1677.64,-127.22"/>
<polygon fill="black" stroke="black" points="1677.98,-130.71 1687.83,-126.814 1677.7,-123.715 1677.98,-130.71"/>
</g>
<!-- Node0x13d6ca40&#45;&gt;Node0x13d6c480 -->
<g id="edge21" class="edge"><title>Node0x13d6ca40&#45;&gt;Node0x13d6c480</title>
<path fill="none" stroke="black" d="M1279.83,-203.368C1294.17,-197.585 1308.75,-192.297 1323,-188 1445.99,-150.906 1596.43,-135.005 1677.83,-128.713"/>
<polygon fill="black" stroke="black" points="1678.18,-132.196 1687.89,-127.957 1677.66,-125.216 1678.18,-132.196"/>
</g>
<!-- Node0x17cbab50&#45;&gt;Node0x13d6c480 -->
<g id="edge22" class="edge"><title>Node0x17cbab50&#45;&gt;Node0x13d6c480</title>
<path fill="none" stroke="black" d="M1656.92,-188.3C1670.85,-177.291 1684.47,-166.525 1696.41,-157.084"/>
<polygon fill="black" stroke="black" points="1698.72,-159.721 1704.4,-150.773 1694.38,-154.229 1698.72,-159.721"/>
</g>
<!-- Node0x13d6c8c0&#45;&gt;Node0x13d6c480 -->
<g id="edge23" class="edge"><title>Node0x13d6c8c0&#45;&gt;Node0x13d6c480</title>
<path fill="none" stroke="black" d="M1913.82,-210.982C1873.36,-191.307 1829.51,-169.983 1795.6,-153.492"/>
<polygon fill="black" stroke="black" points="1796.83,-150.2 1786.3,-148.975 1793.77,-156.495 1796.83,-150.2"/>
</g>
<!-- Node0x17cbac90&#45;&gt;Node0x13d6c480 -->
<g id="edge24" class="edge"><title>Node0x17cbac90&#45;&gt;Node0x13d6c480</title>
<path fill="none" stroke="black" d="M2271.86,-190.044C2268.89,-189.342 2265.94,-188.659 2263,-188 2096.16,-150.551 1894.22,-134.268 1796.16,-128.159"/>
<polygon fill="black" stroke="black" points="1796.34,-124.664 1786.15,-127.549 1795.92,-131.651 1796.34,-124.664"/>
</g>
<!-- Node0x13d6ce60&#45;&gt;Node0x13d6c480 -->
<g id="edge25" class="edge"><title>Node0x13d6ce60&#45;&gt;Node0x13d6c480</title>
<path fill="none" stroke="black" d="M2821.01,-210.938C2792.19,-201.89 2761.92,-193.645 2733,-188 2551.81,-152.632 1982.14,-132.492 1796.28,-126.735"/>
<polygon fill="black" stroke="black" points="1796.26,-123.233 1786.16,-126.424 1796.04,-130.23 1796.26,-123.233"/>
</g>
<!-- Node0x13d6d210&#45;&gt;Node0x13d6c480 -->
<g id="edge26" class="edge"><title>Node0x13d6d210&#45;&gt;Node0x13d6c480</title>
<path fill="none" stroke="black" d="M3299.41,-225.996C3270.55,-211.242 3236.11,-196.186 3203,-188 3065.03,-153.895 2053.63,-131.377 1796.38,-126.161"/>
<polygon fill="black" stroke="black" points="1796.19,-122.656 1786.13,-125.954 1796.05,-129.655 1796.19,-122.656"/>
</g>
<!-- Node0x13d6c690&#45;&gt;Node0x13d6c480 -->
<g id="edge27" class="edge"><title>Node0x13d6c690&#45;&gt;Node0x13d6c480</title>
<path fill="none" stroke="black" d="M3677.64,-225.919C3634.02,-211.25 3582.74,-196.274 3535,-188 3189.56,-128.126 2067.36,-124.815 1796.32,-124.907"/>
<polygon fill="black" stroke="black" points="1796.29,-121.407 1786.29,-124.912 1796.29,-128.407 1796.29,-121.407"/>
</g>
<!-- Node0x13d6c480&#45;&gt;Node0x17cbc0b0 -->
<g id="edge28" class="edge"><title>Node0x13d6c480&#45;&gt;Node0x17cbc0b0</title>
<path fill="none" stroke="black" d="M1687.74,-119.943C1478.03,-106.927 661.959,-56.2762 477.29,-44.8144"/>
<polygon fill="black" stroke="black" points="477.455,-41.3181 467.258,-44.1918 477.022,-48.3046 477.455,-41.3181"/>
</g>
</g>
</svg>
