<?xml version="1.0" encoding="UTF-8" standalone="no"?>
<!DOCTYPE svg PUBLIC "-//W3C//DTD SVG 1.1//EN"
 "http://www.w3.org/Graphics/SVG/1.1/DTD/svg11.dtd">
<!-- Generated by graphviz version 2.38.0 (20140413.2041)
 -->
<!-- Title: Control&#45;flow graph for function &#39;mbedtls_hmac_drbg_seed(*a1, a2, a3, a4, a5, a6)&#39;. Pages: 1 -->
<svg width="875pt" height="1349pt"
 viewBox="0.00 0.00 874.50 1349.00" xmlns="http://www.w3.org/2000/svg" xmlns:xlink="http://www.w3.org/1999/xlink">
<g id="graph0" class="graph" transform="scale(1 1) rotate(0) translate(4 1345)">
<title>Control&#45;flow graph for function &#39;mbedtls_hmac_drbg_seed(*a1, a2, a3, a4, a5, a6)&#39;.</title>
<polygon fill="white" stroke="none" points="-4,4 -4,-1345 870.5,-1345 870.5,4 -4,4"/>
<text text-anchor="middle" x="433.25" y="-7.8" font-family="Times,serif" font-size="14.00">Control&#45;flow graph for function &#39;mbedtls_hmac_drbg_seed(*a1, a2, a3, a4, a5, a6)&#39;.</text>
<!-- Node0x1763b950 -->
<g id="node1" class="node"><title>Node0x1763b950</title>
<polygon fill="none" stroke="black" points="631.5,-1227.5 631.5,-1340.5 690.5,-1340.5 690.5,-1227.5 631.5,-1227.5"/>
<text text-anchor="start" x="639.5" y="-1325.3" font-family="Times,serif" font-size="14.00">entry:</text>
<text text-anchor="start" x="639.5" y="-1310.3" font-family="Times,serif" font-size="14.00"> a1</text>
<text text-anchor="start" x="639.5" y="-1295.3" font-family="Times,serif" font-size="14.00"> a2</text>
<text text-anchor="start" x="639.5" y="-1280.3" font-family="Times,serif" font-size="14.00"> a3</text>
<text text-anchor="start" x="639.5" y="-1265.3" font-family="Times,serif" font-size="14.00"> a4</text>
<text text-anchor="start" x="639.5" y="-1250.3" font-family="Times,serif" font-size="14.00"> a5</text>
<text text-anchor="start" x="639.5" y="-1235.3" font-family="Times,serif" font-size="14.00"> a6</text>
</g>
<!-- Node0x8eeb560 -->
<g id="node2" class="node"><title>Node0x8eeb560</title>
<polygon fill="none" stroke="black" points="455.5,-1076.5 455.5,-1189.5 866.5,-1189.5 866.5,-1076.5 455.5,-1076.5"/>
<text text-anchor="start" x="463.5" y="-1174.3" font-family="Times,serif" font-size="14.00">v1 = g3</text>
<text text-anchor="start" x="463.5" y="-1159.3" font-family="Times,serif" font-size="14.00"> g3 = PtrToIntCastExpr&lt;int32&gt;(a1)</text>
<text text-anchor="start" x="463.5" y="-1144.3" font-family="Times,serif" font-size="14.00"> v2 = g7</text>
<text text-anchor="start" x="463.5" y="-1129.3" font-family="Times,serif" font-size="14.00"> g7 = a2</text>
<text text-anchor="start" x="463.5" y="-1114.3" font-family="Times,serif" font-size="14.00"> v3 = g5</text>
<text text-anchor="start" x="463.5" y="-1099.3" font-family="Times,serif" font-size="14.00"> v4 = mbedtls_md_setup(BitCastExpr&lt;ptr&gt;(a1), a2, 1)</text>
<text text-anchor="start" x="463.5" y="-1084.3" font-family="Times,serif" font-size="14.00"> v5 = v4</text>
</g>
<!-- Node0x1763b950&#45;&gt;Node0x8eeb560 -->
<g id="edge1" class="edge"><title>Node0x1763b950&#45;&gt;Node0x8eeb560</title>
<path fill="none" stroke="black" d="M661,-1227.09C661,-1218.21 661,-1208.96 661,-1199.88"/>
<polygon fill="black" stroke="black" points="664.5,-1199.72 661,-1189.72 657.5,-1199.72 664.5,-1199.72"/>
</g>
<!-- Node0x1cd07380 -->
<g id="node3" class="node"><title>Node0x1cd07380</title>
<polygon fill="none" stroke="black" points="608.5,-1002.5 608.5,-1038.5 713.5,-1038.5 713.5,-1002.5 608.5,-1002.5"/>
<text text-anchor="start" x="616.5" y="-1016.8" font-family="Times,serif" font-size="14.00">if (v4 == 0):</text>
</g>
<!-- Node0x8eeb560&#45;&gt;Node0x1cd07380 -->
<g id="edge2" class="edge"><title>Node0x8eeb560&#45;&gt;Node0x1cd07380</title>
<path fill="none" stroke="black" d="M661,-1076.43C661,-1066.86 661,-1057.31 661,-1048.91"/>
<polygon fill="black" stroke="black" points="664.5,-1048.64 661,-1038.64 657.5,-1048.64 664.5,-1048.64"/>
</g>
<!-- Node0x8eeb170 -->
<g id="node4" class="node"><title>Node0x8eeb170</title>
<polygon fill="none" stroke="black" points="248,-762.5 248,-950.5 718,-950.5 718,-762.5 248,-762.5"/>
<text text-anchor="start" x="256" y="-935.3" font-family="Times,serif" font-size="14.00">0x8061de0:</text>
<text text-anchor="start" x="256" y="-920.3" font-family="Times,serif" font-size="14.00"> g5 = (g3 + 12)</text>
<text text-anchor="start" x="256" y="-905.3" font-family="Times,serif" font-size="14.00"> v6 = (mbedtls_md_get_size(g7) % 256)</text>
<text text-anchor="start" x="256" y="-890.3" font-family="Times,serif" font-size="14.00"> g7 = v6</text>
<text text-anchor="start" x="256" y="-875.3" font-family="Times,serif" font-size="14.00"> mbedtls_md_hmac_starts(IntToPtrCastExpr&lt;ptr&gt;(g3), g5, v6)</text>
<text text-anchor="start" x="256" y="-860.3" font-family="Times,serif" font-size="14.00"> v7 = g5</text>
<text text-anchor="start" x="256" y="-845.3" font-family="Times,serif" font-size="14.00"> g5 = 16</text>
<text text-anchor="start" x="256" y="-830.3" font-family="Times,serif" font-size="14.00"> memset(IntToPtrCastExpr&lt;ptr&gt;(v7), 1, g7)</text>
<text text-anchor="start" x="256" y="-815.3" font-family="Times,serif" font-size="14.00"> *(IntToPtrCastExpr&lt;ptr&gt;((g3 + 88))) = 10000</text>
<text text-anchor="start" x="256" y="-800.3" font-family="Times,serif" font-size="14.00"> *(IntToPtrCastExpr&lt;ptr&gt;((g3 + 92))) = a3</text>
<text text-anchor="start" x="256" y="-785.3" font-family="Times,serif" font-size="14.00"> *(IntToPtrCastExpr&lt;ptr&gt;((g3 + 96))) = a4</text>
<text text-anchor="start" x="256" y="-770.3" font-family="Times,serif" font-size="14.00"> v8 = 24</text>
</g>
<!-- Node0x1cd07380&#45;&gt;Node0x8eeb170 -->
<g id="edge3" class="edge"><title>Node0x1cd07380&#45;&gt;Node0x8eeb170</title>
<path fill="none" stroke="black" d="M642.287,-1002.47C629.758,-991.066 612.127,-975.02 593.132,-957.733"/>
<polygon fill="black" stroke="black" points="595.256,-954.933 585.505,-950.791 590.545,-960.11 595.256,-954.933"/>
<text text-anchor="middle" x="647" y="-972.8" font-family="Times,serif" font-size="14.00">v4 == 0</text>
</g>
<!-- Node0x1816c400 -->
<g id="node5" class="node"><title>Node0x1816c400</title>
<polygon fill="none" stroke="black" points="557,-97.5 557,-180.5 829,-180.5 829,-97.5 557,-97.5"/>
<text text-anchor="start" x="565" y="-165.3" font-family="Times,serif" font-size="14.00">0x8061dcd:</text>
<text text-anchor="start" x="565" y="-150.3" font-family="Times,serif" font-size="14.00"> g3 = v1</text>
<text text-anchor="start" x="565" y="-135.3" font-family="Times,serif" font-size="14.00"> g7 = v2</text>
<text text-anchor="start" x="565" y="-120.3" font-family="Times,serif" font-size="14.00"> g5 = v3</text>
<text text-anchor="start" x="565" y="-105.3" font-family="Times,serif" font-size="14.00"> return IntToPtrCastExpr&lt;ptr&gt;(v5)</text>
</g>
<!-- Node0x1cd07380&#45;&gt;Node0x1816c400 -->
<g id="edge4" class="edge"><title>Node0x1cd07380&#45;&gt;Node0x1816c400</title>
<path fill="none" stroke="black" d="M683.068,-1002.39C697.785,-989.77 716.326,-971.322 727,-951 746.719,-913.459 746,-899.905 746,-857.5 746,-857.5 746,-857.5 746,-333.5 746,-283.409 729.274,-228.531 714.614,-190.053"/>
<polygon fill="black" stroke="black" points="717.837,-188.683 710.943,-180.637 711.315,-191.225 717.837,-188.683"/>
<text text-anchor="middle" x="773" y="-553.8" font-family="Times,serif" font-size="14.00">v4 != 0</text>
</g>
<!-- Node0x1816c5e0 -->
<g id="node6" class="node"><title>Node0x1816c5e0</title>
<polygon fill="none" stroke="black" points="431.5,-688.5 431.5,-724.5 534.5,-724.5 534.5,-688.5 431.5,-688.5"/>
<text text-anchor="start" x="439.5" y="-702.8" font-family="Times,serif" font-size="14.00">if (g7 &gt; 20):</text>
</g>
<!-- Node0x8eeb170&#45;&gt;Node0x1816c5e0 -->
<g id="edge5" class="edge"><title>Node0x8eeb170&#45;&gt;Node0x1816c5e0</title>
<path fill="none" stroke="black" d="M483,-762.189C483,-752.348 483,-742.996 483,-734.899"/>
<polygon fill="black" stroke="black" points="486.5,-734.708 483,-724.708 479.5,-734.708 486.5,-734.708"/>
</g>
<!-- Node0x1763a010 -->
<g id="node7" class="node"><title>Node0x1763a010</title>
<polygon fill="none" stroke="black" points="544,-23.5 544,-59.5 598,-59.5 598,-23.5 544,-23.5"/>
<text text-anchor="start" x="552" y="-37.8" font-family="Times,serif" font-size="14.00">exit:</text>
</g>
<!-- Node0x1816c400&#45;&gt;Node0x1763a010 -->
<g id="edge6" class="edge"><title>Node0x1816c400&#45;&gt;Node0x1763a010</title>
<path fill="none" stroke="black" d="M641.261,-97.4994C627.436,-86.6775 612.962,-75.3469 600.767,-65.8014"/>
<polygon fill="black" stroke="black" points="602.757,-62.9144 592.725,-59.5064 598.442,-68.4264 602.757,-62.9144"/>
</g>
<!-- Node0x17638fa0 -->
<g id="node8" class="node"><title>Node0x17638fa0</title>
<polygon fill="none" stroke="black" points="224,-583.5 224,-636.5 454,-636.5 454,-583.5 224,-583.5"/>
<text text-anchor="start" x="232" y="-621.3" font-family="Times,serif" font-size="14.00">v9 = g7</text>
<text text-anchor="start" x="232" y="-606.3" font-family="Times,serif" font-size="14.00"> g5 = (24 if (v9 &lt; 29) else 32)</text>
<text text-anchor="start" x="232" y="-591.3" font-family="Times,serif" font-size="14.00"> v8 = (36 if (v9 &lt; 29) else 48)</text>
</g>
<!-- Node0x1816c5e0&#45;&gt;Node0x17638fa0 -->
<g id="edge7" class="edge"><title>Node0x1816c5e0&#45;&gt;Node0x17638fa0</title>
<path fill="none" stroke="black" d="M449.407,-688.327C439.149,-682.772 427.955,-676.39 418,-670 405.125,-661.735 391.611,-652.05 379.473,-642.944"/>
<polygon fill="black" stroke="black" points="381.398,-640.01 371.315,-636.756 377.168,-645.588 381.398,-640.01"/>
<text text-anchor="middle" x="447" y="-658.8" font-family="Times,serif" font-size="14.00">g7 &gt; 20</text>
</g>
<!-- Node0x1816c8b0 -->
<g id="node9" class="node"><title>Node0x1816c8b0</title>
<polygon fill="none" stroke="black" points="0,-478.5 0,-531.5 718,-531.5 718,-478.5 0,-478.5"/>
<text text-anchor="start" x="8" y="-516.3" font-family="Times,serif" font-size="14.00">0x8061e34:</text>
<text text-anchor="start" x="8" y="-501.3" font-family="Times,serif" font-size="14.00"> *(IntToPtrCastExpr&lt;ptr&gt;((g3 + 80))) = v8</text>
<text text-anchor="start" x="8" y="-486.3" font-family="Times,serif" font-size="14.00"> v10 = mbedtls_hmac_drbg_reseed(IntToPtrCastExpr&lt;ptr&gt;(g3), IntToPtrCastExpr&lt;ptr&gt;(a5), a6)</text>
</g>
<!-- Node0x1816c5e0&#45;&gt;Node0x1816c8b0 -->
<g id="edge8" class="edge"><title>Node0x1816c5e0&#45;&gt;Node0x1816c8b0</title>
<path fill="none" stroke="black" d="M484.172,-688.232C485.044,-663.123 483.474,-615.944 463,-583 451.637,-564.716 434.21,-549.332 416.851,-537.238"/>
<polygon fill="black" stroke="black" points="418.621,-534.212 408.361,-531.568 414.733,-540.033 418.621,-534.212"/>
<text text-anchor="middle" x="517" y="-606.3" font-family="Times,serif" font-size="14.00">g7 &lt;= 20</text>
</g>
<!-- Node0x17638fa0&#45;&gt;Node0x1816c8b0 -->
<g id="edge9" class="edge"><title>Node0x17638fa0&#45;&gt;Node0x1816c8b0</title>
<path fill="none" stroke="black" d="M343.995,-583.274C346.429,-570.739 349.396,-555.459 352.047,-541.806"/>
<polygon fill="black" stroke="black" points="355.529,-542.238 353.999,-531.755 348.657,-540.904 355.529,-542.238"/>
</g>
<!-- Node0x1816c910 -->
<g id="node10" class="node"><title>Node0x1816c910</title>
<polygon fill="none" stroke="black" points="457,-404.5 457,-440.5 571,-440.5 571,-404.5 457,-404.5"/>
<text text-anchor="start" x="465" y="-418.8" font-family="Times,serif" font-size="14.00">if (v10 == 0):</text>
</g>
<!-- Node0x1816c8b0&#45;&gt;Node0x1816c910 -->
<g id="edge10" class="edge"><title>Node0x1816c8b0&#45;&gt;Node0x1816c910</title>
<path fill="none" stroke="black" d="M408.469,-478.308C428.967,-467.662 452.488,-455.446 472.115,-445.253"/>
<polygon fill="black" stroke="black" points="473.858,-448.292 481.12,-440.577 470.632,-442.08 473.858,-448.292"/>
</g>
<!-- Node0x17639040 -->
<g id="node11" class="node"><title>Node0x17639040</title>
<polygon fill="none" stroke="black" points="349.5,-199.5 349.5,-297.5 678.5,-297.5 678.5,-199.5 349.5,-199.5"/>
<text text-anchor="start" x="357.5" y="-282.3" font-family="Times,serif" font-size="14.00">0x8061e55:</text>
<text text-anchor="start" x="357.5" y="-267.3" font-family="Times,serif" font-size="14.00"> *(IntToPtrCastExpr&lt;ptr&gt;((g3 + 80))) = g5</text>
<text text-anchor="start" x="357.5" y="-252.3" font-family="Times,serif" font-size="14.00"> g3 = v1</text>
<text text-anchor="start" x="357.5" y="-237.3" font-family="Times,serif" font-size="14.00"> g7 = v2</text>
<text text-anchor="start" x="357.5" y="-222.3" font-family="Times,serif" font-size="14.00"> g5 = v3</text>
<text text-anchor="start" x="357.5" y="-207.3" font-family="Times,serif" font-size="14.00"> return IntToPtrCastExpr&lt;ptr&gt;(v10)</text>
</g>
<!-- Node0x1816c910&#45;&gt;Node0x17639040 -->
<g id="edge11" class="edge"><title>Node0x1816c910&#45;&gt;Node0x17639040</title>
<path fill="none" stroke="black" d="M514,-404.379C514,-382.048 514,-341.834 514,-307.98"/>
<polygon fill="black" stroke="black" points="517.5,-307.705 514,-297.705 510.5,-307.705 517.5,-307.705"/>
<text text-anchor="middle" x="548.5" y="-374.8" font-family="Times,serif" font-size="14.00">v10 == 0</text>
</g>
<!-- Node0x1816cbc0 -->
<g id="node12" class="node"><title>Node0x1816cbc0</title>
<polygon fill="none" stroke="black" points="623.5,-316.5 623.5,-352.5 704.5,-352.5 704.5,-316.5 623.5,-316.5"/>
<text text-anchor="start" x="631.5" y="-330.8" font-family="Times,serif" font-size="14.00">v5 = v10</text>
</g>
<!-- Node0x1816c910&#45;&gt;Node0x1816cbc0 -->
<g id="edge12" class="edge"><title>Node0x1816c910&#45;&gt;Node0x1816cbc0</title>
<path fill="none" stroke="black" d="M551.612,-404.343C563.128,-398.789 575.726,-392.403 587,-386 601.824,-377.58 617.659,-367.412 631.091,-358.413"/>
<polygon fill="black" stroke="black" points="633.215,-361.202 639.535,-352.699 629.292,-355.405 633.215,-361.202"/>
<text text-anchor="middle" x="641.5" y="-374.8" font-family="Times,serif" font-size="14.00">v10 != 0</text>
</g>
<!-- Node0x17639040&#45;&gt;Node0x1763a010 -->
<g id="edge13" class="edge"><title>Node0x17639040&#45;&gt;Node0x1763a010</title>
<path fill="none" stroke="black" d="M522.593,-199.472C528.486,-169.626 537.188,-130.665 548,-97 550.966,-87.7644 554.875,-77.9248 558.626,-69.1842"/>
<polygon fill="black" stroke="black" points="561.9,-70.4352 562.736,-59.8735 555.496,-67.6082 561.9,-70.4352"/>
</g>
<!-- Node0x1816cbc0&#45;&gt;Node0x1816c400 -->
<g id="edge14" class="edge"><title>Node0x1816cbc0&#45;&gt;Node0x1816c400</title>
<path fill="none" stroke="black" d="M672.592,-316.176C675.054,-310.51 677.48,-304.103 679,-298 687.759,-262.828 691.212,-222.057 692.5,-190.741"/>
<polygon fill="black" stroke="black" points="696.006,-190.622 692.858,-180.505 689.01,-190.377 696.006,-190.622"/>
</g>
</g>
</svg>
