<?xml version="1.0" encoding="UTF-8" standalone="no"?>
<!DOCTYPE svg PUBLIC "-//W3C//DTD SVG 1.1//EN"
 "http://www.w3.org/Graphics/SVG/1.1/DTD/svg11.dtd">
<!-- Generated by graphviz version 2.38.0 (20140413.2041)
 -->
<!-- Title: Control&#45;flow graph for function &#39;arc4_crypt_stream_wrap(a1)&#39;. Pages: 1 -->
<svg width="471pt" height="278pt"
 viewBox="0.00 0.00 471.00 278.00" xmlns="http://www.w3.org/2000/svg" xmlns:xlink="http://www.w3.org/1999/xlink">
<g id="graph0" class="graph" transform="scale(1 1) rotate(0) translate(4 274)">
<title>Control&#45;flow graph for function &#39;arc4_crypt_stream_wrap(a1)&#39;.</title>
<polygon fill="white" stroke="none" points="-4,4 -4,-274 467,-274 467,4 -4,4"/>
<text text-anchor="middle" x="231.5" y="-7.8" font-family="Times,serif" font-size="14.00">Control&#45;flow graph for function &#39;arc4_crypt_stream_wrap(a1)&#39;.</text>
<!-- Node0x26feedf0 -->
<g id="node1" class="node"><title>Node0x26feedf0</title>
<polygon fill="none" stroke="black" points="202,-231.5 202,-269.5 261,-269.5 261,-231.5 202,-231.5"/>
<text text-anchor="start" x="210" y="-254.3" font-family="Times,serif" font-size="14.00">entry:</text>
<text text-anchor="start" x="210" y="-239.3" font-family="Times,serif" font-size="14.00"> a1</text>
</g>
<!-- Node0xadfe850 -->
<g id="node2" class="node"><title>Node0xadfe850</title>
<polygon fill="none" stroke="black" points="8.5,-96.5 8.5,-194.5 454.5,-194.5 454.5,-96.5 8.5,-96.5"/>
<text text-anchor="start" x="16.5" y="-179.3" font-family="Times,serif" font-size="14.00">0x806a940:</text>
<text text-anchor="start" x="16.5" y="-164.3" font-family="Times,serif" font-size="14.00"> v1</text>
<text text-anchor="start" x="16.5" y="-149.3" font-family="Times,serif" font-size="14.00"> v2</text>
<text text-anchor="start" x="16.5" y="-134.3" font-family="Times,serif" font-size="14.00"> mbedtls_arc4_crypt(IntToPtrCastExpr&lt;ptr&gt;(v2), v1, a1, 0)</text>
<text text-anchor="start" x="16.5" y="-119.3" font-family="Times,serif" font-size="14.00"> g1 = 0</text>
<text text-anchor="start" x="16.5" y="-104.3" font-family="Times,serif" font-size="14.00"> return 0</text>
</g>
<!-- Node0x26feedf0&#45;&gt;Node0xadfe850 -->
<g id="edge1" class="edge"><title>Node0x26feedf0&#45;&gt;Node0xadfe850</title>
<path fill="none" stroke="black" d="M231.5,-231.086C231.5,-223.607 231.5,-214.513 231.5,-205.097"/>
<polygon fill="black" stroke="black" points="235,-204.814 231.5,-194.814 228,-204.815 235,-204.814"/>
</g>
<!-- Node0x1a04fe50 -->
<g id="node3" class="node"><title>Node0x1a04fe50</title>
<polygon fill="none" stroke="black" points="204.5,-23.5 204.5,-59.5 258.5,-59.5 258.5,-23.5 204.5,-23.5"/>
<text text-anchor="start" x="212.5" y="-37.8" font-family="Times,serif" font-size="14.00">exit:</text>
</g>
<!-- Node0xadfe850&#45;&gt;Node0x1a04fe50 -->
<g id="edge2" class="edge"><title>Node0xadfe850&#45;&gt;Node0x1a04fe50</title>
<path fill="none" stroke="black" d="M231.5,-96.4868C231.5,-87.2893 231.5,-77.9618 231.5,-69.7064"/>
<polygon fill="black" stroke="black" points="235,-69.5725 231.5,-59.5725 228,-69.5725 235,-69.5725"/>
</g>
</g>
</svg>
