<?xml version="1.0" encoding="UTF-8" standalone="no"?>
<!DOCTYPE svg PUBLIC "-//W3C//DTD SVG 1.1//EN"
 "http://www.w3.org/Graphics/SVG/1.1/DTD/svg11.dtd">
<!-- Generated by graphviz version 2.38.0 (20140413.2041)
 -->
<!-- Title: Control&#45;flow graph for function &#39;public_encrypt(a1, a2, a3, a4)&#39;. Pages: 1 -->
<svg width="830pt" height="565pt"
 viewBox="0.00 0.00 829.50 565.00" xmlns="http://www.w3.org/2000/svg" xmlns:xlink="http://www.w3.org/1999/xlink">
<g id="graph0" class="graph" transform="scale(1 1) rotate(0) translate(4 561)">
<title>Control&#45;flow graph for function &#39;public_encrypt(a1, a2, a3, a4)&#39;.</title>
<polygon fill="white" stroke="none" points="-4,4 -4,-561 825.5,-561 825.5,4 -4,4"/>
<text text-anchor="middle" x="410.75" y="-7.8" font-family="Times,serif" font-size="14.00">Control&#45;flow graph for function &#39;public_encrypt(a1, a2, a3, a4)&#39;.</text>
<!-- Node0x6f11f10 -->
<g id="node1" class="node"><title>Node0x6f11f10</title>
<polygon fill="none" stroke="black" points="231.5,-473.5 231.5,-556.5 290.5,-556.5 290.5,-473.5 231.5,-473.5"/>
<text text-anchor="start" x="239.5" y="-541.3" font-family="Times,serif" font-size="14.00">entry:</text>
<text text-anchor="start" x="239.5" y="-526.3" font-family="Times,serif" font-size="14.00"> a1</text>
<text text-anchor="start" x="239.5" y="-511.3" font-family="Times,serif" font-size="14.00"> a2</text>
<text text-anchor="start" x="239.5" y="-496.3" font-family="Times,serif" font-size="14.00"> a3</text>
<text text-anchor="start" x="239.5" y="-481.3" font-family="Times,serif" font-size="14.00"> a4</text>
</g>
<!-- Node0x17c8a880 -->
<g id="node2" class="node"><title>Node0x17c8a880</title>
<polygon fill="none" stroke="black" points="216.5,-399.5 216.5,-435.5 305.5,-435.5 305.5,-399.5 216.5,-399.5"/>
<text text-anchor="start" x="224.5" y="-413.8" font-family="Times,serif" font-size="14.00">result = 0</text>
</g>
<!-- Node0x6f11f10&#45;&gt;Node0x17c8a880 -->
<g id="edge1" class="edge"><title>Node0x6f11f10&#45;&gt;Node0x17c8a880</title>
<path fill="none" stroke="black" d="M261,-473.499C261,-464.206 261,-454.537 261,-445.946"/>
<polygon fill="black" stroke="black" points="264.5,-445.749 261,-435.749 257.5,-445.749 264.5,-445.749"/>
</g>
<!-- Node0x17c8a8e0 -->
<g id="node3" class="node"><title>Node0x17c8a8e0</title>
<polygon fill="none" stroke="black" points="69.5,-323.5 69.5,-361.5 452.5,-361.5 452.5,-323.5 69.5,-323.5"/>
<text text-anchor="start" x="77.5" y="-346.3" font-family="Times,serif" font-size="14.00">if (mbedtls_pk_encrypt(&amp;(g225), a1, a2, a3) == 0):</text>
<text text-anchor="start" x="77.5" y="-331.3" font-family="Times,serif" font-size="14.00"> else:</text>
</g>
<!-- Node0x17c8a880&#45;&gt;Node0x17c8a8e0 -->
<g id="edge2" class="edge"><title>Node0x17c8a880&#45;&gt;Node0x17c8a8e0</title>
<path fill="none" stroke="black" d="M261,-399.2C261,-390.99 261,-380.969 261,-371.701"/>
<polygon fill="black" stroke="black" points="264.5,-371.694 261,-361.694 257.5,-371.695 264.5,-371.694"/>
</g>
<!-- Node0xbba5e00 -->
<g id="node4" class="node"><title>Node0xbba5e00</title>
<polygon fill="none" stroke="black" points="0,-218.5 0,-256.5 102,-256.5 102,-218.5 0,-218.5"/>
<text text-anchor="start" x="8" y="-241.3" font-family="Times,serif" font-size="14.00">0x804821b:</text>
<text text-anchor="start" x="8" y="-226.3" font-family="Times,serif" font-size="14.00"> g1 = result</text>
</g>
<!-- Node0x17c8a8e0&#45;&gt;Node0xbba5e00 -->
<g id="edge3" class="edge"><title>Node0x17c8a8e0&#45;&gt;Node0xbba5e00</title>
<path fill="none" stroke="black" d="M133.876,-323.389C120.829,-318.598 108.253,-312.572 97,-305 82.6163,-295.321 71.405,-279.504 63.6528,-265.724"/>
<polygon fill="black" stroke="black" points="66.6053,-263.82 58.842,-256.61 60.4148,-267.087 66.6053,-263.82"/>
<text text-anchor="middle" x="265.5" y="-293.8" font-family="Times,serif" font-size="14.00">mbedtls_pk_encrypt(&amp;(g225), a1, a2, a3) == 0</text>
</g>
<!-- Node0xbba5c10 -->
<g id="node5" class="node"><title>Node0xbba5c10</title>
<polygon fill="none" stroke="black" points="120.5,-203.5 120.5,-271.5 821.5,-271.5 821.5,-203.5 120.5,-203.5"/>
<text text-anchor="start" x="128.5" y="-256.3" font-family="Times,serif" font-size="14.00">0x8048204:</text>
<text text-anchor="start" x="128.5" y="-241.3" font-family="Times,serif" font-size="14.00"> printf(&quot; failed\n ! mbedtls_pk_encrypt returned &#45;0x%04x\n&quot;, PtrToIntCastExpr&lt;int32&gt;(&amp;(a4)))</text>
<text text-anchor="start" x="128.5" y="-226.3" font-family="Times,serif" font-size="14.00"> g1 = &#45;1</text>
<text text-anchor="start" x="128.5" y="-211.3" font-family="Times,serif" font-size="14.00"> result = &#45;1</text>
</g>
<!-- Node0x17c8a8e0&#45;&gt;Node0xbba5c10 -->
<g id="edge4" class="edge"><title>Node0x17c8a8e0&#45;&gt;Node0xbba5c10</title>
<path fill="none" stroke="black" d="M400.243,-323.492C412.274,-318.631 423.748,-312.561 434,-305 442.541,-298.7 449.365,-289.807 454.708,-280.567"/>
<polygon fill="black" stroke="black" points="457.828,-282.156 459.386,-271.676 451.632,-278.897 457.828,-282.156"/>
<text text-anchor="middle" x="614.5" y="-293.8" font-family="Times,serif" font-size="14.00">mbedtls_pk_encrypt(&amp;(g225), a1, a2, a3) != 0</text>
</g>
<!-- Node0x17c8ad00 -->
<g id="node6" class="node"><title>Node0x17c8ad00</title>
<polygon fill="none" stroke="black" points="253.5,-97.5 253.5,-165.5 366.5,-165.5 366.5,-97.5 253.5,-97.5"/>
<text text-anchor="start" x="261.5" y="-150.3" font-family="Times,serif" font-size="14.00">0x804821e:</text>
<text text-anchor="start" x="261.5" y="-135.3" font-family="Times,serif" font-size="14.00"> v1</text>
<text text-anchor="start" x="261.5" y="-120.3" font-family="Times,serif" font-size="14.00"> g2 = v1</text>
<text text-anchor="start" x="261.5" y="-105.3" font-family="Times,serif" font-size="14.00"> return result</text>
</g>
<!-- Node0xbba5e00&#45;&gt;Node0x17c8ad00 -->
<g id="edge5" class="edge"><title>Node0xbba5e00&#45;&gt;Node0x17c8ad00</title>
<path fill="none" stroke="black" d="M81.0103,-218.44C90.4383,-213.123 101,-207.524 111,-203 154.099,-183.502 204.321,-165.745 243.529,-152.929"/>
<polygon fill="black" stroke="black" points="244.815,-156.192 253.249,-149.779 242.657,-149.533 244.815,-156.192"/>
</g>
<!-- Node0xbba5c10&#45;&gt;Node0x17c8ad00 -->
<g id="edge6" class="edge"><title>Node0xbba5c10&#45;&gt;Node0x17c8ad00</title>
<path fill="none" stroke="black" d="M419.616,-203.308C403.708,-193.032 386.046,-181.623 369.628,-171.018"/>
<polygon fill="black" stroke="black" points="371.471,-168.041 361.172,-165.555 367.673,-173.921 371.471,-168.041"/>
</g>
<!-- Node0x17c8a820 -->
<g id="node7" class="node"><title>Node0x17c8a820</title>
<polygon fill="none" stroke="black" points="283,-23.5 283,-59.5 337,-59.5 337,-23.5 283,-23.5"/>
<text text-anchor="start" x="291" y="-37.8" font-family="Times,serif" font-size="14.00">exit:</text>
</g>
<!-- Node0x17c8ad00&#45;&gt;Node0x17c8a820 -->
<g id="edge7" class="edge"><title>Node0x17c8ad00&#45;&gt;Node0x17c8a820</title>
<path fill="none" stroke="black" d="M310,-97.4817C310,-88.3281 310,-78.4972 310,-69.7155"/>
<polygon fill="black" stroke="black" points="313.5,-69.6402 310,-59.6402 306.5,-69.6403 313.5,-69.6402"/>
</g>
</g>
</svg>
