<?xml version="1.0" encoding="UTF-8" standalone="no"?>
<!DOCTYPE svg PUBLIC "-//W3C//DTD SVG 1.1//EN"
 "http://www.w3.org/Graphics/SVG/1.1/DTD/svg11.dtd">
<!-- Generated by graphviz version 2.38.0 (20140413.2041)
 -->
<!-- Title: Control&#45;flow graph for function &#39;aes_crypt_cbc_wrap(a1)&#39;. Pages: 1 -->
<svg width="601pt" height="278pt"
 viewBox="0.00 0.00 601.00 278.00" xmlns="http://www.w3.org/2000/svg" xmlns:xlink="http://www.w3.org/1999/xlink">
<g id="graph0" class="graph" transform="scale(1 1) rotate(0) translate(4 274)">
<title>Control&#45;flow graph for function &#39;aes_crypt_cbc_wrap(a1)&#39;.</title>
<polygon fill="white" stroke="none" points="-4,4 -4,-274 597,-274 597,4 -4,4"/>
<text text-anchor="middle" x="296.5" y="-7.8" font-family="Times,serif" font-size="14.00">Control&#45;flow graph for function &#39;aes_crypt_cbc_wrap(a1)&#39;.</text>
<!-- Node0x99cc610 -->
<g id="node1" class="node"><title>Node0x99cc610</title>
<polygon fill="none" stroke="black" points="267,-231.5 267,-269.5 326,-269.5 326,-231.5 267,-231.5"/>
<text text-anchor="start" x="275" y="-254.3" font-family="Times,serif" font-size="14.00">entry:</text>
<text text-anchor="start" x="275" y="-239.3" font-family="Times,serif" font-size="14.00"> a1</text>
</g>
<!-- Node0x99cc570 -->
<g id="node2" class="node"><title>Node0x99cc570</title>
<polygon fill="none" stroke="black" points="0,-96.5 0,-194.5 593,-194.5 593,-96.5 0,-96.5"/>
<text text-anchor="start" x="8" y="-179.3" font-family="Times,serif" font-size="14.00">0x806aab0:</text>
<text text-anchor="start" x="8" y="-164.3" font-family="Times,serif" font-size="14.00"> v1</text>
<text text-anchor="start" x="8" y="-149.3" font-family="Times,serif" font-size="14.00"> v2</text>
<text text-anchor="start" x="8" y="-134.3" font-family="Times,serif" font-size="14.00"> result = mbedtls_aes_crypt_cbc(v2, v1, TruncCastExpr&lt;int8&gt;(a1), NULL, 0, 0)</text>
<text text-anchor="start" x="8" y="-119.3" font-family="Times,serif" font-size="14.00"> g1 = result</text>
<text text-anchor="start" x="8" y="-104.3" font-family="Times,serif" font-size="14.00"> return result</text>
</g>
<!-- Node0x99cc610&#45;&gt;Node0x99cc570 -->
<g id="edge1" class="edge"><title>Node0x99cc610&#45;&gt;Node0x99cc570</title>
<path fill="none" stroke="black" d="M296.5,-231.086C296.5,-223.607 296.5,-214.513 296.5,-205.097"/>
<polygon fill="black" stroke="black" points="300,-204.814 296.5,-194.814 293,-204.815 300,-204.814"/>
</g>
<!-- Node0xf27aaf0 -->
<g id="node3" class="node"><title>Node0xf27aaf0</title>
<polygon fill="none" stroke="black" points="269.5,-23.5 269.5,-59.5 323.5,-59.5 323.5,-23.5 269.5,-23.5"/>
<text text-anchor="start" x="277.5" y="-37.8" font-family="Times,serif" font-size="14.00">exit:</text>
</g>
<!-- Node0x99cc570&#45;&gt;Node0xf27aaf0 -->
<g id="edge2" class="edge"><title>Node0x99cc570&#45;&gt;Node0xf27aaf0</title>
<path fill="none" stroke="black" d="M296.5,-96.4868C296.5,-87.2893 296.5,-77.9618 296.5,-69.7064"/>
<polygon fill="black" stroke="black" points="300,-69.5725 296.5,-59.5725 293,-69.5725 300,-69.5725"/>
</g>
</g>
</svg>
