<?xml version="1.0" encoding="UTF-8" standalone="no"?>
<!DOCTYPE svg PUBLIC "-//W3C//DTD SVG 1.1//EN"
 "http://www.w3.org/Graphics/SVG/1.1/DTD/svg11.dtd">
<!-- Generated by graphviz version 2.38.0 (20140413.2041)
 -->
<!-- Title: Control&#45;flow graph for function &#39;function_804c5fd(a1)&#39;. Pages: 1 -->
<svg width="417pt" height="218pt"
 viewBox="0.00 0.00 417.00 218.00" xmlns="http://www.w3.org/2000/svg" xmlns:xlink="http://www.w3.org/1999/xlink">
<g id="graph0" class="graph" transform="scale(1 1) rotate(0) translate(4 214)">
<title>Control&#45;flow graph for function &#39;function_804c5fd(a1)&#39;.</title>
<polygon fill="white" stroke="none" points="-4,4 -4,-214 413,-214 413,4 -4,4"/>
<text text-anchor="middle" x="204.5" y="-7.8" font-family="Times,serif" font-size="14.00">Control&#45;flow graph for function &#39;function_804c5fd(a1)&#39;.</text>
<!-- Node0x1954baf0 -->
<g id="node1" class="node"><title>Node0x1954baf0</title>
<polygon fill="none" stroke="black" points="175,-171.5 175,-209.5 234,-209.5 234,-171.5 175,-171.5"/>
<text text-anchor="start" x="183" y="-194.3" font-family="Times,serif" font-size="14.00">entry:</text>
<text text-anchor="start" x="183" y="-179.3" font-family="Times,serif" font-size="14.00"> a1</text>
</g>
<!-- Node0x198cb680 -->
<g id="node2" class="node"><title>Node0x198cb680</title>
<polygon fill="none" stroke="black" points="156,-96.5 156,-134.5 253,-134.5 253,-96.5 156,-96.5"/>
<text text-anchor="start" x="164" y="-119.3" font-family="Times,serif" font-size="14.00">0x804c5fd:</text>
<text text-anchor="start" x="164" y="-104.3" font-family="Times,serif" font-size="14.00"> return g7</text>
</g>
<!-- Node0x1954baf0&#45;&gt;Node0x198cb680 -->
<g id="edge1" class="edge"><title>Node0x1954baf0&#45;&gt;Node0x198cb680</title>
<path fill="none" stroke="black" d="M204.5,-171.455C204.5,-163.383 204.5,-153.676 204.5,-144.682"/>
<polygon fill="black" stroke="black" points="208,-144.59 204.5,-134.59 201,-144.59 208,-144.59"/>
</g>
<!-- Node0x1954ba90 -->
<g id="node3" class="node"><title>Node0x1954ba90</title>
<polygon fill="none" stroke="black" points="177.5,-23.5 177.5,-59.5 231.5,-59.5 231.5,-23.5 177.5,-23.5"/>
<text text-anchor="start" x="185.5" y="-37.8" font-family="Times,serif" font-size="14.00">exit:</text>
</g>
<!-- Node0x198cb680&#45;&gt;Node0x1954ba90 -->
<g id="edge2" class="edge"><title>Node0x198cb680&#45;&gt;Node0x1954ba90</title>
<path fill="none" stroke="black" d="M204.5,-96.3314C204.5,-88.394 204.5,-78.9095 204.5,-70.1285"/>
<polygon fill="black" stroke="black" points="208,-69.9177 204.5,-59.9177 201,-69.9177 208,-69.9177"/>
</g>
</g>
</svg>
