<?xml version="1.0" encoding="UTF-8" standalone="no"?>
<!DOCTYPE svg PUBLIC "-//W3C//DTD SVG 1.1//EN"
 "http://www.w3.org/Graphics/SVG/1.1/DTD/svg11.dtd">
<!-- Generated by graphviz version 2.38.0 (20140413.2041)
 -->
<!-- Title: Control&#45;flow graph for function &#39;mbedtls_sha512_update(*a1, *a2, a3)&#39;. Pages: 1 -->
<svg width="1553pt" height="2475pt"
 viewBox="0.00 0.00 1553.00 2475.00" xmlns="http://www.w3.org/2000/svg" xmlns:xlink="http://www.w3.org/1999/xlink">
<g id="graph0" class="graph" transform="scale(1 1) rotate(0) translate(4 2471)">
<title>Control&#45;flow graph for function &#39;mbedtls_sha512_update(*a1, *a2, a3)&#39;.</title>
<polygon fill="white" stroke="none" points="-4,4 -4,-2471 1549,-2471 1549,4 -4,4"/>
<text text-anchor="middle" x="772.5" y="-7.8" font-family="Times,serif" font-size="14.00">Control&#45;flow graph for function &#39;mbedtls_sha512_update(*a1, *a2, a3)&#39;.</text>
<!-- Node0xc116290 -->
<g id="node1" class="node"><title>Node0xc116290</title>
<polygon fill="none" stroke="black" points="366,-2398.5 366,-2466.5 425,-2466.5 425,-2398.5 366,-2398.5"/>
<text text-anchor="start" x="374" y="-2451.3" font-family="Times,serif" font-size="14.00">entry:</text>
<text text-anchor="start" x="374" y="-2436.3" font-family="Times,serif" font-size="14.00"> a1</text>
<text text-anchor="start" x="374" y="-2421.3" font-family="Times,serif" font-size="14.00"> a2</text>
<text text-anchor="start" x="374" y="-2406.3" font-family="Times,serif" font-size="14.00"> a3</text>
</g>
<!-- Node0x29dbce50 -->
<g id="node2" class="node"><title>Node0x29dbce50</title>
<polygon fill="none" stroke="black" points="257,-2247.5 257,-2360.5 534,-2360.5 534,-2247.5 257,-2247.5"/>
<text text-anchor="start" x="265" y="-2345.3" font-family="Times,serif" font-size="14.00">v1 = g5</text>
<text text-anchor="start" x="265" y="-2330.3" font-family="Times,serif" font-size="14.00"> v2 = g7</text>
<text text-anchor="start" x="265" y="-2315.3" font-family="Times,serif" font-size="14.00"> v3 = g3</text>
<text text-anchor="start" x="265" y="-2300.3" font-family="Times,serif" font-size="14.00"> g3 = a3</text>
<text text-anchor="start" x="265" y="-2285.3" font-family="Times,serif" font-size="14.00"> v4 = PtrToIntCastExpr&lt;int32&gt;(a1)</text>
<text text-anchor="start" x="265" y="-2270.3" font-family="Times,serif" font-size="14.00"> g7 = v4</text>
<text text-anchor="start" x="265" y="-2255.3" font-family="Times,serif" font-size="14.00"> g5 = PtrToIntCastExpr&lt;int32&gt;(a2)</text>
</g>
<!-- Node0xc116290&#45;&gt;Node0x29dbce50 -->
<g id="edge1" class="edge"><title>Node0xc116290&#45;&gt;Node0x29dbce50</title>
<path fill="none" stroke="black" d="M395.5,-2398.26C395.5,-2389.68 395.5,-2380.14 395.5,-2370.52"/>
<polygon fill="black" stroke="black" points="399,-2370.51 395.5,-2360.51 392,-2370.51 399,-2370.51"/>
</g>
<!-- Node0xc1148d0 -->
<g id="node3" class="node"><title>Node0xc1148d0</title>
<polygon fill="none" stroke="black" points="343,-2173.5 343,-2209.5 448,-2209.5 448,-2173.5 343,-2173.5"/>
<text text-anchor="start" x="351" y="-2187.8" font-family="Times,serif" font-size="14.00">if (a3 == 0):</text>
</g>
<!-- Node0x29dbce50&#45;&gt;Node0xc1148d0 -->
<g id="edge2" class="edge"><title>Node0x29dbce50&#45;&gt;Node0xc1148d0</title>
<path fill="none" stroke="black" d="M395.5,-2247.43C395.5,-2237.86 395.5,-2228.31 395.5,-2219.91"/>
<polygon fill="black" stroke="black" points="399,-2219.64 395.5,-2209.64 392,-2219.64 399,-2219.64"/>
</g>
<!-- Node0x29dbb0f0 -->
<g id="node4" class="node"><title>Node0x29dbb0f0</title>
<polygon fill="none" stroke="black" points="0,-1831.5 0,-1914.5 101,-1914.5 101,-1831.5 0,-1831.5"/>
<text text-anchor="start" x="8" y="-1899.3" font-family="Times,serif" font-size="14.00">0x80550ed:</text>
<text text-anchor="start" x="8" y="-1884.3" font-family="Times,serif" font-size="14.00"> g3 = v3</text>
<text text-anchor="start" x="8" y="-1869.3" font-family="Times,serif" font-size="14.00"> g7 = v2</text>
<text text-anchor="start" x="8" y="-1854.3" font-family="Times,serif" font-size="14.00"> g5 = v1</text>
<text text-anchor="start" x="8" y="-1839.3" font-family="Times,serif" font-size="14.00"> return g1</text>
</g>
<!-- Node0xc1148d0&#45;&gt;Node0x29dbb0f0 -->
<g id="edge3" class="edge"><title>Node0xc1148d0&#45;&gt;Node0x29dbb0f0</title>
<path fill="none" stroke="black" d="M366.381,-2173.43C345.098,-2160.41 315.975,-2141.46 292.5,-2122 216.516,-2059 138.522,-1974.88 92.3078,-1922.59"/>
<polygon fill="black" stroke="black" points="94.6814,-1919.99 85.4464,-1914.8 89.4275,-1924.62 94.6814,-1919.99"/>
<text text-anchor="middle" x="367.5" y="-2143.8" font-family="Times,serif" font-size="14.00">a3 == 0</text>
</g>
<!-- Node0x29dbace0 -->
<g id="node5" class="node"><title>Node0x29dbace0</title>
<polygon fill="none" stroke="black" points="302,-1933.5 302,-2121.5 883,-2121.5 883,-1933.5 302,-1933.5"/>
<text text-anchor="start" x="310" y="-2106.3" font-family="Times,serif" font-size="14.00">v5 = (*(BitCastExpr&lt;ptr&gt;(a1)) % 128)</text>
<text text-anchor="start" x="310" y="-2091.3" font-family="Times,serif" font-size="14.00"> v6 = (128 &#45; v5)</text>
<text text-anchor="start" x="310" y="-2076.3" font-family="Times,serif" font-size="14.00"> v7 = (*(BitCastExpr&lt;ptr&gt;(a1)) + a3)</text>
<text text-anchor="start" x="310" y="-2061.3" font-family="Times,serif" font-size="14.00"> g1 = v7</text>
<text text-anchor="start" x="310" y="-2046.3" font-family="Times,serif" font-size="14.00"> v8 = (ExtCastExpr&lt;int32&gt;((v7 &lt; a3)) + *(IntToPtrCastExpr&lt;ptr&gt;((v4 + 4))))</text>
<text text-anchor="start" x="310" y="-2031.3" font-family="Times,serif" font-size="14.00"> g6 = v8</text>
<text text-anchor="start" x="310" y="-2016.3" font-family="Times,serif" font-size="14.00"> *(BitCastExpr&lt;ptr&gt;(a1)) = v7</text>
<text text-anchor="start" x="310" y="-2001.3" font-family="Times,serif" font-size="14.00"> *(IntToPtrCastExpr&lt;ptr&gt;((g7 + 4))) = g6</text>
<text text-anchor="start" x="310" y="-1986.3" font-family="Times,serif" font-size="14.00"> v9</text>
<text text-anchor="start" x="310" y="-1971.3" font-family="Times,serif" font-size="14.00"> v10</text>
<text text-anchor="start" x="310" y="-1956.3" font-family="Times,serif" font-size="14.00"> v11</text>
<text text-anchor="start" x="310" y="-1941.3" font-family="Times,serif" font-size="14.00"> v12</text>
</g>
<!-- Node0xc1148d0&#45;&gt;Node0x29dbace0 -->
<g id="edge4" class="edge"><title>Node0xc1148d0&#45;&gt;Node0x29dbace0</title>
<path fill="none" stroke="black" d="M416.21,-2173.47C430.199,-2161.97 449.936,-2145.74 471.17,-2128.27"/>
<polygon fill="black" stroke="black" points="473.553,-2130.85 479.054,-2121.79 469.107,-2125.44 473.553,-2130.85"/>
<text text-anchor="middle" x="481.5" y="-2143.8" font-family="Times,serif" font-size="14.00">a3 != 0</text>
</g>
<!-- Node0x29dbb830 -->
<g id="node6" class="node"><title>Node0x29dbb830</title>
<polygon fill="none" stroke="black" points="110.5,-189.5 110.5,-225.5 164.5,-225.5 164.5,-189.5 110.5,-189.5"/>
<text text-anchor="start" x="118.5" y="-203.8" font-family="Times,serif" font-size="14.00">exit:</text>
</g>
<!-- Node0x29dbb0f0&#45;&gt;Node0x29dbb830 -->
<g id="edge5" class="edge"><title>Node0x29dbb0f0&#45;&gt;Node0x29dbb830</title>
<path fill="none" stroke="black" d="M40.833,-1831.26C36.1393,-1808.03 31.5,-1778.29 31.5,-1751.5 31.5,-1751.5 31.5,-1751.5 31.5,-297.5 31.5,-260.153 70.5706,-235.35 101.271,-221.624"/>
<polygon fill="black" stroke="black" points="102.638,-224.846 110.477,-217.719 99.9047,-218.402 102.638,-224.846"/>
</g>
<!-- Node0x16079ae0 -->
<g id="node7" class="node"><title>Node0x16079ae0</title>
<polygon fill="none" stroke="black" points="654,-1776.5 654,-1812.5 759,-1812.5 759,-1776.5 654,-1776.5"/>
<text text-anchor="start" x="662" y="-1790.8" font-family="Times,serif" font-size="14.00">if (v8 == 0):</text>
</g>
<!-- Node0x29dbace0&#45;&gt;Node0x16079ae0 -->
<g id="edge6" class="edge"><title>Node0x29dbace0&#45;&gt;Node0x16079ae0</title>
<path fill="none" stroke="black" d="M638.54,-1933.21C658.353,-1893.06 680.002,-1849.19 693.418,-1822.01"/>
<polygon fill="black" stroke="black" points="696.682,-1823.3 697.969,-1812.79 690.405,-1820.2 696.682,-1823.3"/>
</g>
<!-- Node0x29dbb1f0 -->
<g id="node8" class="node"><title>Node0x29dbb1f0</title>
<polygon fill="none" stroke="black" points="779,-1686.5 779,-1724.5 886,-1724.5 886,-1686.5 779,-1686.5"/>
<text text-anchor="start" x="787" y="-1709.3" font-family="Times,serif" font-size="14.00">0x8055180:</text>
<text text-anchor="start" x="787" y="-1694.3" font-family="Times,serif" font-size="14.00"> if (g1 &lt; a3):</text>
</g>
<!-- Node0x16079ae0&#45;&gt;Node0x29dbb1f0 -->
<g id="edge7" class="edge"><title>Node0x16079ae0&#45;&gt;Node0x29dbb1f0</title>
<path fill="none" stroke="black" d="M731.394,-1776.31C750.43,-1763.17 776.902,-1744.89 797.984,-1730.33"/>
<polygon fill="black" stroke="black" points="800.117,-1733.11 806.357,-1724.55 796.139,-1727.35 800.117,-1733.11"/>
<text text-anchor="middle" x="807.5" y="-1746.8" font-family="Times,serif" font-size="14.00">v8 == 0</text>
</g>
<!-- Node0x210f0020 -->
<g id="node9" class="node"><title>Node0x210f0020</title>
<polygon fill="none" stroke="black" points="681,-1581.5 681,-1634.5 776,-1634.5 776,-1581.5 681,-1581.5"/>
<text text-anchor="start" x="689" y="-1619.3" font-family="Times,serif" font-size="14.00">v23 = g3</text>
<text text-anchor="start" x="689" y="-1604.3" font-family="Times,serif" font-size="14.00"> v12 = v23</text>
<text text-anchor="start" x="689" y="-1589.3" font-family="Times,serif" font-size="14.00"> v9 = v5</text>
</g>
<!-- Node0x16079ae0&#45;&gt;Node0x210f0020 -->
<g id="edge8" class="edge"><title>Node0x16079ae0&#45;&gt;Node0x210f0020</title>
<path fill="none" stroke="black" d="M707.493,-1776.32C708.825,-1755.06 711.495,-1717.77 715.5,-1686 717.212,-1672.41 719.597,-1657.56 721.857,-1644.56"/>
<polygon fill="black" stroke="black" points="725.326,-1645.05 723.628,-1634.59 718.433,-1643.82 725.326,-1645.05"/>
<text text-anchor="middle" x="742.5" y="-1701.8" font-family="Times,serif" font-size="14.00">v8 != 0</text>
</g>
<!-- Node0x29dbb1f0&#45;&gt;Node0x210f0020 -->
<g id="edge10" class="edge"><title>Node0x29dbb1f0&#45;&gt;Node0x210f0020</title>
<path fill="none" stroke="black" d="M778.644,-1687.92C768.306,-1682.82 758.291,-1676.29 750.5,-1668 744.244,-1661.34 739.728,-1652.75 736.483,-1644.19"/>
<polygon fill="black" stroke="black" points="739.791,-1643.04 733.334,-1634.64 733.143,-1645.24 739.791,-1643.04"/>
<text text-anchor="middle" x="785" y="-1656.8" font-family="Times,serif" font-size="14.00">g1 &gt;= a3</text>
</g>
<!-- Node0x29dbdb60 -->
<g id="node10" class="node"><title>Node0x29dbdb60</title>
<polygon fill="none" stroke="black" points="758.5,-1434.5 758.5,-1562.5 1168.5,-1562.5 1168.5,-1434.5 758.5,-1434.5"/>
<text text-anchor="start" x="766.5" y="-1547.3" font-family="Times,serif" font-size="14.00">v13 = IntToPtrCastExpr&lt;ptr&gt;((g7 + 8))</text>
<text text-anchor="start" x="766.5" y="-1532.3" font-family="Times,serif" font-size="14.00"> v14 = *(v13)</text>
<text text-anchor="start" x="766.5" y="-1517.3" font-family="Times,serif" font-size="14.00"> *(v13) = (v14 + 1)</text>
<text text-anchor="start" x="766.5" y="-1502.3" font-family="Times,serif" font-size="14.00"> v15 = IntToPtrCastExpr&lt;ptr&gt;((g7 + 12))</text>
<text text-anchor="start" x="766.5" y="-1487.3" font-family="Times,serif" font-size="14.00"> *(v15) = (ExtCastExpr&lt;int32&gt;((v14 == &#45;1)) + *(v15))</text>
<text text-anchor="start" x="766.5" y="-1472.3" font-family="Times,serif" font-size="14.00"> v16 = g3</text>
<text text-anchor="start" x="766.5" y="-1457.3" font-family="Times,serif" font-size="14.00"> v12 = v16</text>
<text text-anchor="start" x="766.5" y="-1442.3" font-family="Times,serif" font-size="14.00"> v9 = v5</text>
</g>
<!-- Node0x29dbb1f0&#45;&gt;Node0x29dbdb60 -->
<g id="edge9" class="edge"><title>Node0x29dbb1f0&#45;&gt;Node0x29dbdb60</title>
<path fill="none" stroke="black" d="M844.125,-1686.31C860.494,-1660.69 891.266,-1612.54 917.467,-1571.54"/>
<polygon fill="black" stroke="black" points="920.546,-1573.22 922.981,-1562.91 914.647,-1569.45 920.546,-1573.22"/>
<text text-anchor="middle" x="892" y="-1656.8" font-family="Times,serif" font-size="14.00">g1 &lt; a3</text>
</g>
<!-- Node0x29dbcf20 -->
<g id="node11" class="node"><title>Node0x29dbcf20</title>
<polygon fill="none" stroke="black" points="667.5,-1379.5 667.5,-1415.5 789.5,-1415.5 789.5,-1379.5 667.5,-1379.5"/>
<text text-anchor="start" x="675.5" y="-1393.8" font-family="Times,serif" font-size="14.00">if (v23 &gt;= v6):</text>
</g>
<!-- Node0x210f0020&#45;&gt;Node0x29dbcf20 -->
<g id="edge11" class="edge"><title>Node0x210f0020&#45;&gt;Node0x29dbcf20</title>
<path fill="none" stroke="black" d="M728.5,-1581.43C728.5,-1541.89 728.5,-1466.23 728.5,-1425.71"/>
<polygon fill="black" stroke="black" points="732,-1425.51 728.5,-1415.51 725,-1425.51 732,-1425.51"/>
</g>
<!-- Node0x29dbd880 -->
<g id="node12" class="node"><title>Node0x29dbd880</title>
<polygon fill="none" stroke="black" points="915.5,-1009 915.5,-1045 1037.5,-1045 1037.5,-1009 915.5,-1009"/>
<text text-anchor="start" x="923.5" y="-1023.3" font-family="Times,serif" font-size="14.00">if (v16 &gt;= v6):</text>
</g>
<!-- Node0x29dbdb60&#45;&gt;Node0x29dbd880 -->
<g id="edge12" class="edge"><title>Node0x29dbdb60&#45;&gt;Node0x29dbd880</title>
<path fill="none" stroke="black" d="M968.567,-1434.19C970.154,-1409.36 971.5,-1380.61 971.5,-1354.5 971.5,-1354.5 971.5,-1354.5 971.5,-1144.5 971.5,-1113.95 973.237,-1078.94 974.663,-1055.34"/>
<polygon fill="black" stroke="black" points="978.157,-1055.56 975.29,-1045.36 971.17,-1055.12 978.157,-1055.56"/>
</g>
<!-- Node0x29dbb2a0 -->
<g id="node13" class="node"><title>Node0x29dbb2a0</title>
<polygon fill="none" stroke="black" points="794.5,-1289.5 794.5,-1327.5 880.5,-1327.5 880.5,-1289.5 794.5,-1289.5"/>
<text text-anchor="start" x="802.5" y="-1312.3" font-family="Times,serif" font-size="14.00">v10 = v5</text>
<text text-anchor="start" x="802.5" y="-1297.3" font-family="Times,serif" font-size="14.00"> g1 = v10</text>
</g>
<!-- Node0x29dbcf20&#45;&gt;Node0x29dbb2a0 -->
<g id="edge13" class="edge"><title>Node0x29dbcf20&#45;&gt;Node0x29dbb2a0</title>
<path fill="none" stroke="black" d="M750.035,-1379.31C766.283,-1366.34 788.794,-1348.38 806.909,-1333.92"/>
<polygon fill="black" stroke="black" points="809.252,-1336.52 814.884,-1327.55 804.885,-1331.05 809.252,-1336.52"/>
<text text-anchor="middle" x="829" y="-1349.8" font-family="Times,serif" font-size="14.00">v23 &gt;= v6</text>
</g>
<!-- Node0x210eff90 -->
<g id="node14" class="node"><title>Node0x210eff90</title>
<polygon fill="none" stroke="black" points="461,-910.5 461,-948.5 586,-948.5 586,-910.5 461,-910.5"/>
<text text-anchor="start" x="469" y="-933.3" font-family="Times,serif" font-size="14.00">0x80550aa:</text>
<text text-anchor="start" x="469" y="-918.3" font-family="Times,serif" font-size="14.00"> if (v12 &lt; 128):</text>
</g>
<!-- Node0x29dbcf20&#45;&gt;Node0x210eff90 -->
<g id="edge14" class="edge"><title>Node0x29dbcf20&#45;&gt;Node0x210eff90</title>
<path fill="none" stroke="black" d="M712.926,-1379.25C699.582,-1362.63 682.5,-1336.15 682.5,-1309.5 682.5,-1309.5 682.5,-1309.5 682.5,-1026 682.5,-982.384 637.989,-958.188 596.068,-945.071"/>
<polygon fill="black" stroke="black" points="596.923,-941.674 586.341,-942.204 594.943,-948.389 596.923,-941.674"/>
<text text-anchor="middle" x="715" y="-1185.8" font-family="Times,serif" font-size="14.00">v23 &lt; v6</text>
</g>
<!-- Node0x29dbc330 -->
<g id="node15" class="node"><title>Node0x29dbc330</title>
<polygon fill="none" stroke="black" points="1155,-855.5 1155,-891.5 1236,-891.5 1236,-855.5 1155,-855.5"/>
<text text-anchor="start" x="1163" y="-869.8" font-family="Times,serif" font-size="14.00">v10 = v5</text>
</g>
<!-- Node0x29dbd880&#45;&gt;Node0x29dbc330 -->
<g id="edge15" class="edge"><title>Node0x29dbd880&#45;&gt;Node0x29dbc330</title>
<path fill="none" stroke="black" d="M1022.77,-1008.97C1079,-988.114 1167.11,-954.812 1172.5,-949 1184.39,-936.18 1190.14,-917.327 1192.92,-901.794"/>
<polygon fill="black" stroke="black" points="1196.41,-902.089 1194.4,-891.687 1189.48,-901.071 1196.41,-902.089"/>
<text text-anchor="middle" x="1168" y="-970.8" font-family="Times,serif" font-size="14.00">v16 &gt;= v6</text>
</g>
<!-- Node0xc115250 -->
<g id="node16" class="node"><title>Node0xc115250</title>
<polygon fill="none" stroke="black" points="914,-910.5 914,-948.5 1039,-948.5 1039,-910.5 914,-910.5"/>
<text text-anchor="start" x="922" y="-933.3" font-family="Times,serif" font-size="14.00">0x80550aa:</text>
<text text-anchor="start" x="922" y="-918.3" font-family="Times,serif" font-size="14.00"> if (v12 &lt; 128):</text>
</g>
<!-- Node0x29dbd880&#45;&gt;Node0xc115250 -->
<g id="edge16" class="edge"><title>Node0x29dbd880&#45;&gt;Node0xc115250</title>
<path fill="none" stroke="black" d="M976.5,-1008.93C976.5,-995.019 976.5,-975.091 976.5,-958.804"/>
<polygon fill="black" stroke="black" points="980,-958.726 976.5,-948.726 973,-958.726 980,-958.726"/>
<text text-anchor="middle" x="1009" y="-970.8" font-family="Times,serif" font-size="14.00">v16 &lt; v6</text>
</g>
<!-- Node0x29dbc640 -->
<g id="node17" class="node"><title>Node0x29dbc640</title>
<polygon fill="none" stroke="black" points="1061.5,-1215.5 1061.5,-1251.5 1175.5,-1251.5 1175.5,-1215.5 1061.5,-1215.5"/>
<text text-anchor="start" x="1069.5" y="-1229.8" font-family="Times,serif" font-size="14.00">if (v10 == 0):</text>
</g>
<!-- Node0x29dbb2a0&#45;&gt;Node0x29dbc640 -->
<g id="edge17" class="edge"><title>Node0x29dbb2a0&#45;&gt;Node0x29dbc640</title>
<path fill="none" stroke="black" d="M880.79,-1296.25C926.276,-1284.44 998.424,-1265.69 1051.32,-1251.95"/>
<polygon fill="black" stroke="black" points="1052.49,-1255.26 1061.29,-1249.36 1050.73,-1248.49 1052.49,-1255.26"/>
</g>
<!-- Node0xc115bc0 -->
<g id="node18" class="node"><title>Node0xc115bc0</title>
<polygon fill="none" stroke="black" points="447,-798.5 447,-836.5 600,-836.5 600,-798.5 447,-798.5"/>
<text text-anchor="start" x="455" y="-821.3" font-family="Times,serif" font-size="14.00">v11 = v12</text>
<text text-anchor="start" x="455" y="-806.3" font-family="Times,serif" font-size="14.00"> goto 0x80550e9_2</text>
</g>
<!-- Node0x210eff90&#45;&gt;Node0xc115bc0 -->
<g id="edge18" class="edge"><title>Node0x210eff90&#45;&gt;Node0xc115bc0</title>
<path fill="none" stroke="black" d="M523.5,-910.336C523.5,-893.059 523.5,-866.809 523.5,-846.792"/>
<polygon fill="black" stroke="black" points="527,-846.691 523.5,-836.691 520,-846.691 527,-846.691"/>
<text text-anchor="middle" x="561" y="-869.8" font-family="Times,serif" font-size="14.00">v12 &lt; 128</text>
</g>
<!-- Node0x29dbb3a0 -->
<g id="node19" class="node"><title>Node0x29dbb3a0</title>
<polygon fill="none" stroke="black" points="284,-799.5 284,-835.5 429,-835.5 429,-799.5 284,-799.5"/>
<text text-anchor="start" x="292" y="-813.8" font-family="Times,serif" font-size="14.00">goto 0x80550af_2</text>
</g>
<!-- Node0x210eff90&#45;&gt;Node0x29dbb3a0 -->
<g id="edge19" class="edge"><title>Node0x210eff90&#45;&gt;Node0x29dbb3a0</title>
<path fill="none" stroke="black" d="M468.378,-910.376C456.114,-905.271 443.499,-899.129 432.5,-892 411.776,-878.568 391.842,-858.952 377.593,-843.363"/>
<polygon fill="black" stroke="black" points="379.959,-840.757 370.686,-835.632 374.739,-845.421 379.959,-840.757"/>
<text text-anchor="middle" x="476" y="-869.8" font-family="Times,serif" font-size="14.00">v12 &gt;= 128</text>
</g>
<!-- Node0x29dbc3e0 -->
<g id="node20" class="node"><title>Node0x29dbc3e0</title>
<polygon fill="none" stroke="black" points="1154,-279.5 1154,-317.5 1255,-317.5 1255,-279.5 1154,-279.5"/>
<text text-anchor="start" x="1162" y="-302.3" font-family="Times,serif" font-size="14.00">0x8055130:</text>
<text text-anchor="start" x="1162" y="-287.3" font-family="Times,serif" font-size="14.00"> g1 = v10</text>
</g>
<!-- Node0x29dbc330&#45;&gt;Node0x29dbc3e0 -->
<g id="edge20" class="edge"><title>Node0x29dbc330&#45;&gt;Node0x29dbc3e0</title>
<path fill="none" stroke="black" d="M1197.17,-855.35C1198.95,-835.624 1201.5,-802.256 1201.5,-773.5 1201.5,-773.5 1201.5,-773.5 1201.5,-539 1201.5,-462.553 1203.05,-372.391 1203.92,-327.637"/>
<polygon fill="black" stroke="black" points="1207.42,-327.593 1204.12,-317.526 1200.42,-327.454 1207.42,-327.593"/>
</g>
<!-- Node0xc1142f0 -->
<g id="node21" class="node"><title>Node0xc1142f0</title>
<polygon fill="none" stroke="black" points="932,-798.5 932,-836.5 1085,-836.5 1085,-798.5 932,-798.5"/>
<text text-anchor="start" x="940" y="-821.3" font-family="Times,serif" font-size="14.00">v11 = v12</text>
<text text-anchor="start" x="940" y="-806.3" font-family="Times,serif" font-size="14.00"> goto 0x80550e9_2</text>
</g>
<!-- Node0xc115250&#45;&gt;Node0xc1142f0 -->
<g id="edge21" class="edge"><title>Node0xc115250&#45;&gt;Node0xc1142f0</title>
<path fill="none" stroke="black" d="M981.784,-910.336C986.833,-892.98 994.517,-866.567 1000.35,-846.515"/>
<polygon fill="black" stroke="black" points="1003.78,-847.271 1003.21,-836.691 997.054,-845.316 1003.78,-847.271"/>
<text text-anchor="middle" x="1035" y="-869.8" font-family="Times,serif" font-size="14.00">v12 &lt; 128</text>
</g>
<!-- Node0xc115540 -->
<g id="node22" class="node"><title>Node0xc115540</title>
<polygon fill="none" stroke="black" points="618,-799.5 618,-835.5 763,-835.5 763,-799.5 618,-799.5"/>
<text text-anchor="start" x="626" y="-813.8" font-family="Times,serif" font-size="14.00">goto 0x80550af_2</text>
</g>
<!-- Node0xc115250&#45;&gt;Node0xc115540 -->
<g id="edge22" class="edge"><title>Node0xc115250&#45;&gt;Node0xc115540</title>
<path fill="none" stroke="black" d="M913.821,-917.9C885.116,-911.998 850.998,-903.485 821.5,-892 786.936,-878.543 750.342,-857.351 724.643,-841.173"/>
<polygon fill="black" stroke="black" points="726.342,-838.106 716.028,-835.681 722.579,-844.008 726.342,-838.106"/>
<text text-anchor="middle" x="865" y="-869.8" font-family="Times,serif" font-size="14.00">v12 &gt;= 128</text>
</g>
<!-- Node0xc1155a0 -->
<g id="node23" class="node"><title>Node0xc1155a0</title>
<polygon fill="none" stroke="black" points="1044,-1127.5 1044,-1163.5 1193,-1163.5 1193,-1127.5 1044,-1127.5"/>
<text text-anchor="start" x="1052" y="-1141.8" font-family="Times,serif" font-size="14.00">goto 0x8055130_2</text>
</g>
<!-- Node0x29dbc640&#45;&gt;Node0xc1155a0 -->
<g id="edge23" class="edge"><title>Node0x29dbc640&#45;&gt;Node0xc1155a0</title>
<path fill="none" stroke="black" d="M1118.5,-1215.1C1118.5,-1203.25 1118.5,-1187.32 1118.5,-1173.79"/>
<polygon fill="black" stroke="black" points="1122,-1173.58 1118.5,-1163.58 1115,-1173.58 1122,-1173.58"/>
<text text-anchor="middle" x="1153" y="-1185.8" font-family="Times,serif" font-size="14.00">v10 == 0</text>
</g>
<!-- Node0xc115af0 -->
<g id="node24" class="node"><title>Node0xc115af0</title>
<polygon fill="none" stroke="black" points="1277,-1072.5 1277,-1108.5 1410,-1108.5 1410,-1072.5 1277,-1072.5"/>
<text text-anchor="start" x="1285" y="-1086.8" font-family="Times,serif" font-size="14.00">goto 0x805513b</text>
</g>
<!-- Node0x29dbc640&#45;&gt;Node0xc115af0 -->
<g id="edge24" class="edge"><title>Node0x29dbc640&#45;&gt;Node0xc115af0</title>
<path fill="none" stroke="black" d="M1156.59,-1215.34C1168.01,-1209.84 1180.43,-1203.48 1191.5,-1197 1235.27,-1171.37 1282.88,-1137.22 1312.93,-1114.81"/>
<polygon fill="black" stroke="black" points="1315.4,-1117.33 1321.3,-1108.53 1311.2,-1111.73 1315.4,-1117.33"/>
<text text-anchor="middle" x="1247" y="-1185.8" font-family="Times,serif" font-size="14.00">v10 != 0</text>
</g>
<!-- Node0x29dbbd00 -->
<g id="node25" class="node"><title>Node0x29dbbd00</title>
<polygon fill="none" stroke="black" points="711,-693.5 711,-731.5 828,-731.5 828,-693.5 711,-693.5"/>
<text text-anchor="start" x="719" y="-716.3" font-family="Times,serif" font-size="14.00">0x80550e9_2:</text>
<text text-anchor="start" x="719" y="-701.3" font-family="Times,serif" font-size="14.00"> if (v11 != 0):</text>
</g>
<!-- Node0xc115bc0&#45;&gt;Node0x29dbbd00 -->
<g id="edge25" class="edge"><title>Node0xc115bc0&#45;&gt;Node0x29dbbd00</title>
<path fill="none" stroke="black" d="M566.631,-798.441C608.57,-780.881 672.334,-754.184 717.156,-735.417"/>
<polygon fill="black" stroke="black" points="718.546,-738.629 726.418,-731.538 715.842,-732.172 718.546,-738.629"/>
</g>
<!-- Node0x29dbc7d0 -->
<g id="node26" class="node"><title>Node0x29dbc7d0</title>
<polygon fill="none" stroke="black" points="329.5,-678.5 329.5,-746.5 643.5,-746.5 643.5,-678.5 329.5,-678.5"/>
<text text-anchor="start" x="337.5" y="-731.3" font-family="Times,serif" font-size="14.00">0x80550af_2:</text>
<text text-anchor="start" x="337.5" y="-716.3" font-family="Times,serif" font-size="14.00"> v18 = 0</text>
<text text-anchor="start" x="337.5" y="-701.3" font-family="Times,serif" font-size="14.00"> g3 = (v18 + 128)</text>
<text text-anchor="start" x="337.5" y="-686.3" font-family="Times,serif" font-size="14.00"> mbedtls_sha512_process(g7, (g5 + v18))</text>
</g>
<!-- Node0x29dbb3a0&#45;&gt;Node0x29dbc7d0 -->
<g id="edge26" class="edge"><title>Node0x29dbb3a0&#45;&gt;Node0x29dbc7d0</title>
<path fill="none" stroke="black" d="M377.967,-799.492C393.947,-786.831 416.424,-769.022 436.781,-752.893"/>
<polygon fill="black" stroke="black" points="439.091,-755.528 444.755,-746.575 434.744,-750.042 439.091,-755.528"/>
</g>
<!-- Node0x29dbc460 -->
<g id="node27" class="node"><title>Node0x29dbc460</title>
<polygon fill="none" stroke="black" points="1189.5,-188.5 1189.5,-226.5 1303.5,-226.5 1303.5,-188.5 1189.5,-188.5"/>
<text text-anchor="start" x="1197.5" y="-211.3" font-family="Times,serif" font-size="14.00">if (v10 == 0):</text>
<text text-anchor="start" x="1197.5" y="-196.3" font-family="Times,serif" font-size="14.00"> else:</text>
</g>
<!-- Node0x29dbc3e0&#45;&gt;Node0x29dbc460 -->
<g id="edge27" class="edge"><title>Node0x29dbc3e0&#45;&gt;Node0x29dbc460</title>
<path fill="none" stroke="black" d="M1213,-279.49C1218.88,-267.026 1226.82,-250.204 1233.49,-236.064"/>
<polygon fill="black" stroke="black" points="1236.77,-237.326 1237.87,-226.789 1230.44,-234.339 1236.77,-237.326"/>
</g>
<!-- Node0xc1142f0&#45;&gt;Node0x29dbbd00 -->
<g id="edge28" class="edge"><title>Node0xc1142f0&#45;&gt;Node0x29dbbd00</title>
<path fill="none" stroke="black" d="M970.958,-798.492C949.555,-788.374 922.163,-775.674 897.5,-765 874.033,-754.843 847.881,-744.202 825.362,-735.247"/>
<polygon fill="black" stroke="black" points="826.539,-731.948 815.952,-731.518 823.96,-738.456 826.539,-731.948"/>
</g>
<!-- Node0xc115540&#45;&gt;Node0x29dbc7d0 -->
<g id="edge29" class="edge"><title>Node0xc115540&#45;&gt;Node0x29dbc7d0</title>
<path fill="none" stroke="black" d="M656.814,-799.492C630.85,-786.382 593.956,-767.755 561.142,-751.187"/>
<polygon fill="black" stroke="black" points="562.511,-747.958 552.007,-746.575 559.356,-754.206 562.511,-747.958"/>
</g>
<!-- Node0xc1138b0 -->
<g id="node28" class="node"><title>Node0xc1138b0</title>
<polygon fill="none" stroke="black" points="1059.5,-1000.5 1059.5,-1053.5 1177.5,-1053.5 1177.5,-1000.5 1059.5,-1000.5"/>
<text text-anchor="start" x="1067.5" y="-1038.3" font-family="Times,serif" font-size="14.00">0x8055130_2:</text>
<text text-anchor="start" x="1067.5" y="-1023.3" font-family="Times,serif" font-size="14.00"> v12 = g3</text>
<text text-anchor="start" x="1067.5" y="-1008.3" font-family="Times,serif" font-size="14.00"> v9 = 0</text>
</g>
<!-- Node0xc1155a0&#45;&gt;Node0xc1138b0 -->
<g id="edge30" class="edge"><title>Node0xc1155a0&#45;&gt;Node0xc1138b0</title>
<path fill="none" stroke="black" d="M1118.5,-1127.31C1118.5,-1110.74 1118.5,-1085.16 1118.5,-1064.1"/>
<polygon fill="black" stroke="black" points="1122,-1063.89 1118.5,-1053.89 1115,-1063.89 1122,-1063.89"/>
</g>
<!-- Node0xc115670 -->
<g id="node29" class="node"><title>Node0xc115670</title>
<polygon fill="none" stroke="black" points="948,-23.5 948,-136.5 1545,-136.5 1545,-23.5 948,-23.5"/>
<text text-anchor="start" x="956" y="-121.3" font-family="Times,serif" font-size="14.00">0x805513b:</text>
<text text-anchor="start" x="956" y="-106.3" font-family="Times,serif" font-size="14.00"> v17 = (g7 + 80)</text>
<text text-anchor="start" x="956" y="-91.3" font-family="Times,serif" font-size="14.00"> memcpy(IntToPtrCastExpr&lt;ptr&gt;((v17 + v10)), IntToPtrCastExpr&lt;ptr&gt;(g5), v6)</text>
<text text-anchor="start" x="956" y="-76.3" font-family="Times,serif" font-size="14.00"> g1 = mbedtls_sha512_process(g7, v17)</text>
<text text-anchor="start" x="956" y="-61.3" font-family="Times,serif" font-size="14.00"> g5 = (g5 + v6)</text>
<text text-anchor="start" x="956" y="-46.3" font-family="Times,serif" font-size="14.00"> v12 = (g3 &#45; v6)</text>
<text text-anchor="start" x="956" y="-31.3" font-family="Times,serif" font-size="14.00"> v9 = 0</text>
</g>
<!-- Node0xc115af0&#45;&gt;Node0xc115670 -->
<g id="edge31" class="edge"><title>Node0xc115af0&#45;&gt;Node0xc115670</title>
<path fill="none" stroke="black" d="M1352.84,-1072.29C1363.8,-1050.45 1380.5,-1011.29 1380.5,-975.5 1380.5,-975.5 1380.5,-975.5 1380.5,-206.5 1380.5,-182.236 1368.65,-161.305 1352,-143.871"/>
<polygon fill="black" stroke="black" points="1354.18,-141.11 1344.59,-136.613 1349.29,-146.111 1354.18,-141.11"/>
</g>
<!-- Node0xc1139e0 -->
<g id="node30" class="node"><title>Node0xc1139e0</title>
<polygon fill="none" stroke="black" points="442,-453.5 442,-626.5 1097,-626.5 1097,-453.5 442,-453.5"/>
<text text-anchor="start" x="450" y="-611.3" font-family="Times,serif" font-size="14.00">0x8055110:</text>
<text text-anchor="start" x="450" y="-596.3" font-family="Times,serif" font-size="14.00"> g6 = v9</text>
<text text-anchor="start" x="450" y="-581.3" font-family="Times,serif" font-size="14.00"> v20 = g7</text>
<text text-anchor="start" x="450" y="-566.3" font-family="Times,serif" font-size="14.00"> g3 = v3</text>
<text text-anchor="start" x="450" y="-551.3" font-family="Times,serif" font-size="14.00"> g7 = v2</text>
<text text-anchor="start" x="450" y="-536.3" font-family="Times,serif" font-size="14.00"> g5 = v1</text>
<text text-anchor="start" x="450" y="-521.3" font-family="Times,serif" font-size="14.00"> v21</text>
<text text-anchor="start" x="450" y="-506.3" font-family="Times,serif" font-size="14.00"> v22</text>
<text text-anchor="start" x="450" y="-491.3" font-family="Times,serif" font-size="14.00"> memcpy(IntToPtrCastExpr&lt;ptr&gt;(v22), IntToPtrCastExpr&lt;ptr&gt;(v21), ((v9 + 80) + v20))</text>
<text text-anchor="start" x="450" y="-476.3" font-family="Times,serif" font-size="14.00"> v10 = v9</text>
<text text-anchor="start" x="450" y="-461.3" font-family="Times,serif" font-size="14.00"> goto 0x8055130</text>
</g>
<!-- Node0x29dbbd00&#45;&gt;Node0xc1139e0 -->
<g id="edge32" class="edge"><title>Node0x29dbbd00&#45;&gt;Node0xc1139e0</title>
<path fill="none" stroke="black" d="M769.5,-693.254C769.5,-679.099 769.5,-658.287 769.5,-636.569"/>
<polygon fill="black" stroke="black" points="773,-636.547 769.5,-626.547 766,-636.547 773,-636.547"/>
<text text-anchor="middle" x="801" y="-648.8" font-family="Times,serif" font-size="14.00">v11 != 0</text>
</g>
<!-- Node0x29dbbf40 -->
<g id="node31" class="node"><title>Node0x29dbbf40</title>
<polygon fill="none" stroke="black" points="481,-351.5 481,-434.5 582,-434.5 582,-351.5 481,-351.5"/>
<text text-anchor="start" x="489" y="-419.3" font-family="Times,serif" font-size="14.00">0x80550ed:</text>
<text text-anchor="start" x="489" y="-404.3" font-family="Times,serif" font-size="14.00"> g3 = v3</text>
<text text-anchor="start" x="489" y="-389.3" font-family="Times,serif" font-size="14.00"> g7 = v2</text>
<text text-anchor="start" x="489" y="-374.3" font-family="Times,serif" font-size="14.00"> g5 = v1</text>
<text text-anchor="start" x="489" y="-359.3" font-family="Times,serif" font-size="14.00"> return g1</text>
</g>
<!-- Node0x29dbbd00&#45;&gt;Node0x29dbbf40 -->
<g id="edge33" class="edge"><title>Node0x29dbbd00&#45;&gt;Node0x29dbbf40</title>
<path fill="none" stroke="black" d="M710.74,-694.041C692.165,-688.692 671.523,-682.925 652.5,-678 555.333,-652.844 494.947,-705.579 432.5,-627 384.386,-566.457 394.298,-520.239 432.5,-453 441.382,-437.367 456.227,-425.439 471.755,-416.542"/>
<polygon fill="black" stroke="black" points="473.758,-419.44 480.936,-411.648 470.465,-413.263 473.758,-419.44"/>
<text text-anchor="middle" x="502" y="-648.8" font-family="Times,serif" font-size="14.00">v11 == 0</text>
</g>
<!-- Node0x29dbb940 -->
<g id="node32" class="node"><title>Node0x29dbb940</title>
<polygon fill="none" stroke="black" points="194,-522 194,-558 385,-558 385,-522 194,-522"/>
<text text-anchor="start" x="202" y="-536.3" font-family="Times,serif" font-size="14.00">while ((v12 &#45; g3) &gt; 127):</text>
</g>
<!-- Node0x29dbc7d0&#45;&gt;Node0x29dbb940 -->
<g id="edge34" class="edge"><title>Node0x29dbc7d0&#45;&gt;Node0x29dbb940</title>
<path fill="none" stroke="black" d="M418.113,-678.403C408.816,-672.78 399.673,-666.602 391.5,-660 357.269,-632.349 325.582,-592.144 306.885,-566.281"/>
<polygon fill="black" stroke="black" points="309.71,-564.214 301.057,-558.099 304.008,-568.275 309.71,-564.214"/>
</g>
<!-- Node0x29dbc460&#45;&gt;Node0xc1138b0 -->
<g id="edge35" class="edge"><title>Node0x29dbc460&#45;&gt;Node0xc1138b0</title>
<path fill="none" stroke="black" d="M1259.03,-226.682C1269.76,-244.057 1283.5,-271.396 1283.5,-297.5 1283.5,-930.5 1283.5,-930.5 1283.5,-930.5 1283.5,-977.524 1232.68,-1001.77 1187.45,-1014.03"/>
<polygon fill="black" stroke="black" points="1186.43,-1010.68 1177.6,-1016.54 1188.16,-1017.46 1186.43,-1010.68"/>
<text text-anchor="middle" x="1318" y="-708.8" font-family="Times,serif" font-size="14.00">v10 == 0</text>
</g>
<!-- Node0x29dbc460&#45;&gt;Node0xc115670 -->
<g id="edge36" class="edge"><title>Node0x29dbc460&#45;&gt;Node0xc115670</title>
<path fill="none" stroke="black" d="M1246.5,-188.251C1246.5,-177.042 1246.5,-161.93 1246.5,-146.59"/>
<polygon fill="black" stroke="black" points="1250,-146.516 1246.5,-136.516 1243,-146.516 1250,-146.516"/>
<text text-anchor="middle" x="1278" y="-158.8" font-family="Times,serif" font-size="14.00">v10 != 0</text>
</g>
<!-- Node0x29dbd540 -->
<g id="node33" class="node"><title>Node0x29dbd540</title>
<polygon fill="none" stroke="black" points="1063.5,-910.5 1063.5,-948.5 1163.5,-948.5 1163.5,-910.5 1063.5,-910.5"/>
<text text-anchor="start" x="1071.5" y="-933.3" font-family="Times,serif" font-size="14.00">0x80550aa:</text>
<text text-anchor="start" x="1071.5" y="-918.3" font-family="Times,serif" font-size="14.00"> v11 = v12</text>
</g>
<!-- Node0xc1138b0&#45;&gt;Node0x29dbd540 -->
<g id="edge37" class="edge"><title>Node0xc1138b0&#45;&gt;Node0x29dbd540</title>
<path fill="none" stroke="black" d="M1117.16,-1000.41C1116.48,-987.503 1115.66,-971.825 1114.97,-958.588"/>
<polygon fill="black" stroke="black" points="1118.47,-958.399 1114.45,-948.596 1111.48,-958.766 1118.47,-958.399"/>
</g>
<!-- Node0xc115670&#45;&gt;Node0x29dbd540 -->
<g id="edge38" class="edge"><title>Node0xc115670&#45;&gt;Node0x29dbd540</title>
<path fill="none" stroke="black" d="M1159.85,-136.513C1140.46,-155.663 1125.5,-179.261 1125.5,-206.5 1125.5,-818.5 1125.5,-818.5 1125.5,-818.5 1125.5,-846.4 1121.64,-878.048 1118.3,-900.211"/>
<polygon fill="black" stroke="black" points="1114.81,-899.849 1116.72,-910.271 1121.72,-900.935 1114.81,-899.849"/>
</g>
<!-- Node0xc1139e0&#45;&gt;Node0x29dbc3e0 -->
<g id="edge39" class="edge"><title>Node0xc1139e0&#45;&gt;Node0x29dbc3e0</title>
<path fill="none" stroke="black" d="M925.009,-453.38C1009.62,-406.795 1107.89,-352.689 1162.46,-322.644"/>
<polygon fill="black" stroke="black" points="1164.41,-325.567 1171.48,-317.677 1161.04,-319.435 1164.41,-325.567"/>
</g>
<!-- Node0x29dbbf40&#45;&gt;Node0x29dbb830 -->
<g id="edge40" class="edge"><title>Node0x29dbbf40&#45;&gt;Node0x29dbb830</title>
<path fill="none" stroke="black" d="M555.253,-351.361C568.023,-323.63 577.317,-287.756 556.5,-264 531.45,-235.413 272.467,-216.744 174.641,-210.665"/>
<polygon fill="black" stroke="black" points="174.804,-207.168 164.608,-210.051 174.376,-214.155 174.804,-207.168"/>
</g>
<!-- Node0x29dbc030 -->
<g id="node34" class="node"><title>Node0x29dbc030</title>
<polygon fill="none" stroke="black" points="233.5,-264.5 233.5,-332.5 547.5,-332.5 547.5,-264.5 233.5,-264.5"/>
<text text-anchor="start" x="241.5" y="-317.3" font-family="Times,serif" font-size="14.00">0x80550b8:</text>
<text text-anchor="start" x="241.5" y="-302.3" font-family="Times,serif" font-size="14.00"> v18 = g3</text>
<text text-anchor="start" x="241.5" y="-287.3" font-family="Times,serif" font-size="14.00"> g3 = (v18 + 128)</text>
<text text-anchor="start" x="241.5" y="-272.3" font-family="Times,serif" font-size="14.00"> mbedtls_sha512_process(g7, (g5 + v18))</text>
</g>
<!-- Node0x29dbb940&#45;&gt;Node0x29dbc030 -->
<g id="edge41" class="edge"><title>Node0x29dbb940&#45;&gt;Node0x29dbc030</title>
<path fill="none" stroke="black" d="M284.126,-521.846C274.233,-486.763 257.047,-405.53 290.5,-351 293.047,-346.849 296.046,-343.018 299.386,-339.484"/>
<polygon fill="black" stroke="black" points="301.783,-342.034 306.683,-332.64 296.994,-336.928 301.783,-342.034"/>
<text text-anchor="middle" x="349" y="-389.3" font-family="Times,serif" font-size="14.00">(v12 &#45; g3) &gt; 127</text>
</g>
<!-- Node0x29dbb9f0 -->
<g id="node35" class="node"><title>Node0x29dbb9f0</title>
<polygon fill="none" stroke="black" points="60,-272 60,-325 215,-325 215,-272 60,-272"/>
<text text-anchor="start" x="68" y="-309.8" font-family="Times,serif" font-size="14.00">v19 = (v12 &#45; 128)</text>
<text text-anchor="start" x="68" y="-294.8" font-family="Times,serif" font-size="14.00"> g1 = (v19 &amp; &#45;128)</text>
<text text-anchor="start" x="68" y="-279.8" font-family="Times,serif" font-size="14.00"> v11 = (v19 % 128)</text>
</g>
<!-- Node0x29dbb940&#45;&gt;Node0x29dbb9f0 -->
<g id="edge42" class="edge"><title>Node0x29dbb940&#45;&gt;Node0x29dbb9f0</title>
<path fill="none" stroke="black" d="M244.777,-521.972C208.864,-505.64 160.867,-477.184 138.5,-435 122.208,-404.272 124.4,-363.843 129.16,-335.167"/>
<polygon fill="black" stroke="black" points="132.632,-335.642 131.001,-325.174 125.747,-334.374 132.632,-335.642"/>
<text text-anchor="middle" x="203" y="-389.3" font-family="Times,serif" font-size="14.00">(v12 &#45; g3) &lt;= 127</text>
</g>
<!-- Node0xc116b10 -->
<g id="node36" class="node"><title>Node0xc116b10</title>
<polygon fill="none" stroke="black" points="781.5,-799.5 781.5,-835.5 913.5,-835.5 913.5,-799.5 781.5,-799.5"/>
<text text-anchor="start" x="789.5" y="-813.8" font-family="Times,serif" font-size="14.00">if (v12 &gt;= 128):</text>
</g>
<!-- Node0x29dbd540&#45;&gt;Node0xc116b10 -->
<g id="edge43" class="edge"><title>Node0x29dbd540&#45;&gt;Node0xc116b10</title>
<path fill="none" stroke="black" d="M1063.24,-914.413C1027.87,-904.475 986.462,-892.793 984.5,-892 948.976,-877.643 910.725,-856.609 883.693,-840.717"/>
<polygon fill="black" stroke="black" points="885.361,-837.637 874.976,-835.541 881.788,-843.656 885.361,-837.637"/>
</g>
<!-- Node0x29dbc030&#45;&gt;Node0x29dbb940 -->
<g id="edge44" class="edge"><title>Node0x29dbc030&#45;&gt;Node0x29dbb940</title>
<path fill="none" stroke="black" d="M404.17,-332.719C413.672,-361.093 422.235,-402.373 407.5,-435 391.578,-470.257 357.141,-498.341 329.558,-516.394"/>
<polygon fill="black" stroke="black" points="327.447,-513.589 320.876,-521.9 331.195,-519.501 327.447,-513.589"/>
</g>
<!-- Node0x29dbb9f0&#45;&gt;Node0x29dbb830 -->
<g id="edge45" class="edge"><title>Node0x29dbb9f0&#45;&gt;Node0x29dbb830</title>
<path fill="none" stroke="black" d="M137.5,-271.758C137.5,-260.553 137.5,-247.406 137.5,-236.01"/>
<polygon fill="black" stroke="black" points="141,-235.739 137.5,-225.739 134,-235.739 141,-235.739"/>
</g>
<!-- Node0xc116b10&#45;&gt;Node0x29dbbd00 -->
<g id="edge47" class="edge"><title>Node0xc116b10&#45;&gt;Node0x29dbbd00</title>
<path fill="none" stroke="black" d="M834.62,-799.492C822.312,-783.239 803.582,-758.505 789.363,-739.729"/>
<polygon fill="black" stroke="black" points="792.014,-737.433 783.187,-731.574 786.434,-741.659 792.014,-737.433"/>
<text text-anchor="middle" x="856" y="-768.8" font-family="Times,serif" font-size="14.00">v12 &lt; 128</text>
</g>
<!-- Node0xc116b10&#45;&gt;Node0x29dbc7d0 -->
<g id="edge46" class="edge"><title>Node0xc116b10&#45;&gt;Node0x29dbc7d0</title>
<path fill="none" stroke="black" d="M786.631,-799.499C764.817,-793.383 740.048,-786.411 717.5,-780 682.734,-770.115 645.053,-759.308 610.408,-749.333"/>
<polygon fill="black" stroke="black" points="611.299,-745.947 600.721,-746.543 609.362,-752.674 611.299,-745.947"/>
<text text-anchor="middle" x="761" y="-768.8" font-family="Times,serif" font-size="14.00">v12 &gt;= 128</text>
</g>
</g>
</svg>
