<?xml version="1.0" encoding="UTF-8" standalone="no"?>
<!DOCTYPE svg PUBLIC "-//W3C//DTD SVG 1.1//EN"
 "http://www.w3.org/Graphics/SVG/1.1/DTD/svg11.dtd">
<!-- Generated by graphviz version 2.38.0 (20140413.2041)
 -->
<!-- Title: Control&#45;flow graph for function &#39;ecdsa_can_do(a1)&#39;. Pages: 1 -->
<svg width="391pt" height="233pt"
 viewBox="0.00 0.00 391.00 233.00" xmlns="http://www.w3.org/2000/svg" xmlns:xlink="http://www.w3.org/1999/xlink">
<g id="graph0" class="graph" transform="scale(1 1) rotate(0) translate(4 229)">
<title>Control&#45;flow graph for function &#39;ecdsa_can_do(a1)&#39;.</title>
<polygon fill="white" stroke="none" points="-4,4 -4,-229 387,-229 387,4 -4,4"/>
<text text-anchor="middle" x="191.5" y="-7.8" font-family="Times,serif" font-size="14.00">Control&#45;flow graph for function &#39;ecdsa_can_do(a1)&#39;.</text>
<!-- Node0xf249b50 -->
<g id="node1" class="node"><title>Node0xf249b50</title>
<polygon fill="none" stroke="black" points="162,-186.5 162,-224.5 221,-224.5 221,-186.5 162,-186.5"/>
<text text-anchor="start" x="170" y="-209.3" font-family="Times,serif" font-size="14.00">entry:</text>
<text text-anchor="start" x="170" y="-194.3" font-family="Times,serif" font-size="14.00"> a1</text>
</g>
<!-- Node0xf249ab0 -->
<g id="node2" class="node"><title>Node0xf249ab0</title>
<polygon fill="none" stroke="black" points="36.5,-96.5 36.5,-149.5 346.5,-149.5 346.5,-96.5 36.5,-96.5"/>
<text text-anchor="start" x="44.5" y="-134.3" font-family="Times,serif" font-size="14.00">result = BitCastExpr&lt;uint1&gt;((a1 == 4))</text>
<text text-anchor="start" x="44.5" y="-119.3" font-family="Times,serif" font-size="14.00"> g1 = result</text>
<text text-anchor="start" x="44.5" y="-104.3" font-family="Times,serif" font-size="14.00"> return result</text>
</g>
<!-- Node0xf249b50&#45;&gt;Node0xf249ab0 -->
<g id="edge1" class="edge"><title>Node0xf249b50&#45;&gt;Node0xf249ab0</title>
<path fill="none" stroke="black" d="M191.5,-186.233C191.5,-178.347 191.5,-168.835 191.5,-159.648"/>
<polygon fill="black" stroke="black" points="195,-159.517 191.5,-149.517 188,-159.517 195,-159.517"/>
</g>
<!-- Node0x7d380a0 -->
<g id="node3" class="node"><title>Node0x7d380a0</title>
<polygon fill="none" stroke="black" points="164.5,-23.5 164.5,-59.5 218.5,-59.5 218.5,-23.5 164.5,-23.5"/>
<text text-anchor="start" x="172.5" y="-37.8" font-family="Times,serif" font-size="14.00">exit:</text>
</g>
<!-- Node0xf249ab0&#45;&gt;Node0x7d380a0 -->
<g id="edge2" class="edge"><title>Node0xf249ab0&#45;&gt;Node0x7d380a0</title>
<path fill="none" stroke="black" d="M191.5,-96.4081C191.5,-87.9823 191.5,-78.5803 191.5,-70.0174"/>
<polygon fill="black" stroke="black" points="195,-69.7564 191.5,-59.7564 188,-69.7565 195,-69.7564"/>
</g>
</g>
</svg>
