<?xml version="1.0" encoding="UTF-8" standalone="no"?>
<!DOCTYPE svg PUBLIC "-//W3C//DTD SVG 1.1//EN"
 "http://www.w3.org/Graphics/SVG/1.1/DTD/svg11.dtd">
<!-- Generated by graphviz version 2.38.0 (20140413.2041)
 -->
<!-- Title: Control&#45;flow graph for function &#39;mbedtls_mpi_get_bit(a1, a2)&#39;. Pages: 1 -->
<svg width="721pt" height="784pt"
 viewBox="0.00 0.00 720.50 784.00" xmlns="http://www.w3.org/2000/svg" xmlns:xlink="http://www.w3.org/1999/xlink">
<g id="graph0" class="graph" transform="scale(1 1) rotate(0) translate(4 780)">
<title>Control&#45;flow graph for function &#39;mbedtls_mpi_get_bit(a1, a2)&#39;.</title>
<polygon fill="white" stroke="none" points="-4,4 -4,-780 716.5,-780 716.5,4 -4,4"/>
<text text-anchor="middle" x="356.25" y="-7.8" font-family="Times,serif" font-size="14.00">Control&#45;flow graph for function &#39;mbedtls_mpi_get_bit(a1, a2)&#39;.</text>
<!-- Node0xc1d2cf0 -->
<g id="node1" class="node"><title>Node0xc1d2cf0</title>
<polygon fill="none" stroke="black" points="501,-722.5 501,-775.5 560,-775.5 560,-722.5 501,-722.5"/>
<text text-anchor="start" x="509" y="-760.3" font-family="Times,serif" font-size="14.00">entry:</text>
<text text-anchor="start" x="509" y="-745.3" font-family="Times,serif" font-size="14.00"> a1</text>
<text text-anchor="start" x="509" y="-730.3" font-family="Times,serif" font-size="14.00"> a2</text>
</g>
<!-- Node0xc1d3940 -->
<g id="node2" class="node"><title>Node0xc1d3940</title>
<polygon fill="none" stroke="black" points="348.5,-601.5 348.5,-684.5 712.5,-684.5 712.5,-601.5 348.5,-601.5"/>
<text text-anchor="start" x="356.5" y="-669.3" font-family="Times,serif" font-size="14.00">0x8056360:</text>
<text text-anchor="start" x="356.5" y="-654.3" font-family="Times,serif" font-size="14.00"> g4 = a2</text>
<text text-anchor="start" x="356.5" y="-639.3" font-family="Times,serif" font-size="14.00"> v1 = (32 * *(IntToPtrCastExpr&lt;ptr&gt;((a1 + 4))))</text>
<text text-anchor="start" x="356.5" y="-624.3" font-family="Times,serif" font-size="14.00"> g6 = v1</text>
<text text-anchor="start" x="356.5" y="-609.3" font-family="Times,serif" font-size="14.00"> result = 0</text>
</g>
<!-- Node0xc1d2cf0&#45;&gt;Node0xc1d3940 -->
<g id="edge1" class="edge"><title>Node0xc1d2cf0&#45;&gt;Node0xc1d3940</title>
<path fill="none" stroke="black" d="M530.5,-722.292C530.5,-713.988 530.5,-704.469 530.5,-694.995"/>
<polygon fill="black" stroke="black" points="534,-694.791 530.5,-684.791 527,-694.791 534,-694.791"/>
</g>
<!-- Node0xc1d3a30 -->
<g id="node3" class="node"><title>Node0xc1d3a30</title>
<polygon fill="none" stroke="black" points="480,-527.5 480,-563.5 581,-563.5 581,-527.5 480,-527.5"/>
<text text-anchor="start" x="488" y="-541.8" font-family="Times,serif" font-size="14.00">if (v1 &gt; a2):</text>
</g>
<!-- Node0xc1d3940&#45;&gt;Node0xc1d3a30 -->
<g id="edge2" class="edge"><title>Node0xc1d3940&#45;&gt;Node0xc1d3a30</title>
<path fill="none" stroke="black" d="M530.5,-601.499C530.5,-592.206 530.5,-582.537 530.5,-573.946"/>
<polygon fill="black" stroke="black" points="534,-573.749 530.5,-563.749 527,-573.749 534,-573.749"/>
</g>
<!-- Node0xc1d2c50 -->
<g id="node4" class="node"><title>Node0xc1d2c50</title>
<polygon fill="none" stroke="black" points="0,-377.5 0,-475.5 605,-475.5 605,-377.5 0,-377.5"/>
<text text-anchor="start" x="8" y="-460.3" font-family="Times,serif" font-size="14.00">v2 = (a2 % 32)</text>
<text text-anchor="start" x="8" y="-445.3" font-family="Times,serif" font-size="14.00"> g4 = v2</text>
<text text-anchor="start" x="8" y="-430.3" font-family="Times,serif" font-size="14.00"> v3 = (a2 / 32)</text>
<text text-anchor="start" x="8" y="-415.3" font-family="Times,serif" font-size="14.00"> g6 = v3</text>
<text text-anchor="start" x="8" y="-400.3" font-family="Times,serif" font-size="14.00"> v4 = *(IntToPtrCastExpr&lt;ptr&gt;((*(IntToPtrCastExpr&lt;ptr&gt;((a1 + 8))) + (4 * v3))))</text>
<text text-anchor="start" x="8" y="-385.3" font-family="Times,serif" font-size="14.00"> v5</text>
</g>
<!-- Node0xc1d3a30&#45;&gt;Node0xc1d2c50 -->
<g id="edge3" class="edge"><title>Node0xc1d3a30&#45;&gt;Node0xc1d2c50</title>
<path fill="none" stroke="black" d="M497.347,-527.487C473.019,-515.003 438.569,-497.325 405.388,-480.298"/>
<polygon fill="black" stroke="black" points="406.567,-476.969 396.072,-475.517 403.371,-483.197 406.567,-476.969"/>
<text text-anchor="middle" x="485.5" y="-497.8" font-family="Times,serif" font-size="14.00">v1 &gt; a2</text>
</g>
<!-- Node0xc1d3b70 -->
<g id="node5" class="node"><title>Node0xc1d3b70</title>
<polygon fill="none" stroke="black" points="570,-320.5 570,-358.5 683,-358.5 683,-320.5 570,-320.5"/>
<text text-anchor="start" x="578" y="-343.3" font-family="Times,serif" font-size="14.00">0x8056389:</text>
<text text-anchor="start" x="578" y="-328.3" font-family="Times,serif" font-size="14.00"> return result</text>
</g>
<!-- Node0xc1d3a30&#45;&gt;Node0xc1d3b70 -->
<g id="edge4" class="edge"><title>Node0xc1d3a30&#45;&gt;Node0xc1d3b70</title>
<path fill="none" stroke="black" d="M561.497,-527.454C579.897,-515.577 601.844,-497.946 613.5,-476 631.291,-442.503 631.884,-397.748 629.85,-369.018"/>
<polygon fill="black" stroke="black" points="633.32,-368.51 628.973,-358.848 626.346,-369.112 633.32,-368.51"/>
<text text-anchor="middle" x="633.5" y="-497.8" font-family="Times,serif" font-size="14.00">v1 &lt;= a2</text>
</g>
<!-- Node0xc1d3680 -->
<g id="node6" class="node"><title>Node0xc1d3680</title>
<polygon fill="none" stroke="black" points="309,-263.5 309,-301.5 408,-301.5 408,-263.5 309,-263.5"/>
<text text-anchor="start" x="317" y="-286.3" font-family="Times,serif" font-size="14.00">if (v2 != 0):</text>
<text text-anchor="start" x="317" y="-271.3" font-family="Times,serif" font-size="14.00"> else:</text>
</g>
<!-- Node0xc1d2c50&#45;&gt;Node0xc1d3680 -->
<g id="edge5" class="edge"><title>Node0xc1d2c50&#45;&gt;Node0xc1d3680</title>
<path fill="none" stroke="black" d="M321.459,-377.425C330.174,-355.328 340.197,-329.911 347.618,-311.095"/>
<polygon fill="black" stroke="black" points="350.931,-312.233 351.344,-301.647 344.419,-309.665 350.931,-312.233"/>
</g>
<!-- Node0xc1d38e0 -->
<g id="node7" class="node"><title>Node0xc1d38e0</title>
<polygon fill="none" stroke="black" points="542.5,-23.5 542.5,-59.5 596.5,-59.5 596.5,-23.5 542.5,-23.5"/>
<text text-anchor="start" x="550.5" y="-37.8" font-family="Times,serif" font-size="14.00">exit:</text>
</g>
<!-- Node0xc1d3b70&#45;&gt;Node0xc1d38e0 -->
<g id="edge6" class="edge"><title>Node0xc1d3b70&#45;&gt;Node0xc1d38e0</title>
<path fill="none" stroke="black" d="M620.018,-320.333C613.529,-300.494 604.5,-267.653 604.5,-238.5 604.5,-238.5 604.5,-238.5 604.5,-115.5 604.5,-98.7131 596.881,-81.7001 588.753,-68.326"/>
<polygon fill="black" stroke="black" points="591.523,-66.165 583.132,-59.6959 585.657,-69.9855 591.523,-66.165"/>
</g>
<!-- Node0xf52e0d0 -->
<g id="node8" class="node"><title>Node0xf52e0d0</title>
<polygon fill="none" stroke="black" points="281,-173.5 281,-211.5 436,-211.5 436,-173.5 281,-173.5"/>
<text text-anchor="start" x="289" y="-196.3" font-family="Times,serif" font-size="14.00">if_8056384_0_true:</text>
<text text-anchor="start" x="289" y="-181.3" font-family="Times,serif" font-size="14.00"> v5 = (v4 &gt;&gt; v2)</text>
</g>
<!-- Node0xc1d3680&#45;&gt;Node0xf52e0d0 -->
<g id="edge7" class="edge"><title>Node0xc1d3680&#45;&gt;Node0xf52e0d0</title>
<path fill="none" stroke="black" d="M358.5,-263.266C358.5,-251.349 358.5,-235.538 358.5,-221.982"/>
<polygon fill="black" stroke="black" points="362,-221.71 358.5,-211.71 355,-221.71 362,-221.71"/>
<text text-anchor="middle" x="385.5" y="-233.8" font-family="Times,serif" font-size="14.00">v2 != 0</text>
</g>
<!-- Node0xfc9b030 -->
<g id="node9" class="node"><title>Node0xfc9b030</title>
<polygon fill="none" stroke="black" points="454.5,-174.5 454.5,-210.5 526.5,-210.5 526.5,-174.5 454.5,-174.5"/>
<text text-anchor="start" x="462.5" y="-188.8" font-family="Times,serif" font-size="14.00">v5 = v4</text>
</g>
<!-- Node0xc1d3680&#45;&gt;Node0xfc9b030 -->
<g id="edge8" class="edge"><title>Node0xc1d3680&#45;&gt;Node0xfc9b030</title>
<path fill="none" stroke="black" d="M387.878,-263.381C397.097,-257.596 407.274,-251.108 416.5,-245 430.179,-235.943 445.061,-225.669 457.869,-216.694"/>
<polygon fill="black" stroke="black" points="460.198,-219.334 466.364,-210.718 456.171,-213.609 460.198,-219.334"/>
<text text-anchor="middle" x="467.5" y="-233.8" font-family="Times,serif" font-size="14.00">v2 == 0</text>
</g>
<!-- Node0xc1d3fd0 -->
<g id="node10" class="node"><title>Node0xc1d3fd0</title>
<polygon fill="none" stroke="black" points="410.5,-97.5 410.5,-135.5 570.5,-135.5 570.5,-97.5 410.5,-97.5"/>
<text text-anchor="start" x="418.5" y="-120.3" font-family="Times,serif" font-size="14.00">after_if_8056384_0:</text>
<text text-anchor="start" x="418.5" y="-105.3" font-family="Times,serif" font-size="14.00"> result = (v5 % 2)</text>
</g>
<!-- Node0xf52e0d0&#45;&gt;Node0xc1d3fd0 -->
<g id="edge9" class="edge"><title>Node0xf52e0d0&#45;&gt;Node0xc1d3fd0</title>
<path fill="none" stroke="black" d="M390.791,-173.398C408.369,-163.543 430.309,-151.243 449.129,-140.693"/>
<polygon fill="black" stroke="black" points="451.074,-143.615 458.085,-135.672 447.651,-137.509 451.074,-143.615"/>
</g>
<!-- Node0xfc9b030&#45;&gt;Node0xc1d3fd0 -->
<g id="edge10" class="edge"><title>Node0xfc9b030&#45;&gt;Node0xc1d3fd0</title>
<path fill="none" stroke="black" d="M490.5,-174.337C490.5,-165.808 490.5,-155.283 490.5,-145.618"/>
<polygon fill="black" stroke="black" points="494,-145.602 490.5,-135.602 487,-145.602 494,-145.602"/>
</g>
<!-- Node0xc1d3fd0&#45;&gt;Node0xc1d38e0 -->
<g id="edge11" class="edge"><title>Node0xc1d3fd0&#45;&gt;Node0xc1d38e0</title>
<path fill="none" stroke="black" d="M510.028,-97.4551C520.102,-88.1459 532.529,-76.6632 543.413,-66.6054"/>
<polygon fill="black" stroke="black" points="546.042,-68.9423 551.011,-59.585 541.291,-63.8011 546.042,-68.9423"/>
</g>
</g>
</svg>
