<?xml version="1.0" encoding="UTF-8" standalone="no"?>
<!DOCTYPE svg PUBLIC "-//W3C//DTD SVG 1.1//EN"
 "http://www.w3.org/Graphics/SVG/1.1/DTD/svg11.dtd">
<!-- Generated by graphviz version 2.38.0 (20140413.2041)
 -->
<!-- Title: Control&#45;flow graph for function &#39;find_and_do(*name, a2)&#39;. Pages: 1 -->
<svg width="1968pt" height="2614pt"
 viewBox="0.00 0.00 1968.00 2614.00" xmlns="http://www.w3.org/2000/svg" xmlns:xlink="http://www.w3.org/1999/xlink">
<g id="graph0" class="graph" transform="scale(1 1) rotate(0) translate(4 2610)">
<title>Control&#45;flow graph for function &#39;find_and_do(*name, a2)&#39;.</title>
<polygon fill="white" stroke="none" points="-4,4 -4,-2610 1964,-2610 1964,4 -4,4"/>
<text text-anchor="middle" x="980" y="-7.8" font-family="Times,serif" font-size="14.00">Control&#45;flow graph for function &#39;find_and_do(*name, a2)&#39;.</text>
<!-- Node0x180420a0 -->
<g id="node1" class="node"><title>Node0x180420a0</title>
<polygon fill="none" stroke="black" points="170,-2552.5 170,-2605.5 230,-2605.5 230,-2552.5 170,-2552.5"/>
<text text-anchor="start" x="178" y="-2590.3" font-family="Times,serif" font-size="14.00">entry:</text>
<text text-anchor="start" x="178" y="-2575.3" font-family="Times,serif" font-size="14.00"> name</text>
<text text-anchor="start" x="178" y="-2560.3" font-family="Times,serif" font-size="14.00"> a2</text>
</g>
<!-- Node0x18043230 -->
<g id="node2" class="node"><title>Node0x18043230</title>
<polygon fill="none" stroke="black" points="50.5,-2431.5 50.5,-2514.5 349.5,-2514.5 349.5,-2431.5 50.5,-2431.5"/>
<text text-anchor="start" x="58.5" y="-2499.3" font-family="Times,serif" font-size="14.00">v1 = g5</text>
<text text-anchor="start" x="58.5" y="-2484.3" font-family="Times,serif" font-size="14.00"> v2 = g7</text>
<text text-anchor="start" x="58.5" y="-2469.3" font-family="Times,serif" font-size="14.00"> v3 = g3</text>
<text text-anchor="start" x="58.5" y="-2454.3" font-family="Times,serif" font-size="14.00"> g3 = PtrToIntCastExpr&lt;int32&gt;(name)</text>
<text text-anchor="start" x="58.5" y="-2439.3" font-family="Times,serif" font-size="14.00"> dirp = opendir(name)</text>
</g>
<!-- Node0x180420a0&#45;&gt;Node0x18043230 -->
<g id="edge1" class="edge"><title>Node0x180420a0&#45;&gt;Node0x18043230</title>
<path fill="none" stroke="black" d="M200,-2552.29C200,-2543.99 200,-2534.47 200,-2524.99"/>
<polygon fill="black" stroke="black" points="203.5,-2524.79 200,-2514.79 196.5,-2524.79 203.5,-2524.79"/>
</g>
<!-- Node0x18043320 -->
<g id="node3" class="node"><title>Node0x18043320</title>
<polygon fill="none" stroke="black" points="124,-2357.5 124,-2393.5 276,-2393.5 276,-2357.5 124,-2357.5"/>
<text text-anchor="start" x="132" y="-2371.8" font-family="Times,serif" font-size="14.00">if (dirp == NULL):</text>
</g>
<!-- Node0x18043230&#45;&gt;Node0x18043320 -->
<g id="edge2" class="edge"><title>Node0x18043230&#45;&gt;Node0x18043320</title>
<path fill="none" stroke="black" d="M200,-2431.5C200,-2422.21 200,-2412.54 200,-2403.95"/>
<polygon fill="black" stroke="black" points="203.5,-2403.75 200,-2393.75 196.5,-2403.75 203.5,-2403.75"/>
</g>
<!-- Node0x18043fe0 -->
<g id="node4" class="node"><title>Node0x18043fe0</title>
<polygon fill="none" stroke="black" points="0,-2135.5 0,-2218.5 264,-2218.5 264,-2135.5 0,-2135.5"/>
<text text-anchor="start" x="8" y="-2203.3" font-family="Times,serif" font-size="14.00">0x8049285:</text>
<text text-anchor="start" x="8" y="-2188.3" font-family="Times,serif" font-size="14.00"> g3 = v3</text>
<text text-anchor="start" x="8" y="-2173.3" font-family="Times,serif" font-size="14.00"> g7 = v2</text>
<text text-anchor="start" x="8" y="-2158.3" font-family="Times,serif" font-size="14.00"> g5 = v1</text>
<text text-anchor="start" x="8" y="-2143.3" font-family="Times,serif" font-size="14.00"> return IntToPtrCastExpr&lt;ptr&gt;(0)</text>
</g>
<!-- Node0x18043320&#45;&gt;Node0x18043fe0 -->
<g id="edge3" class="edge"><title>Node0x18043320&#45;&gt;Node0x18043fe0</title>
<path fill="none" stroke="black" d="M152.915,-2357.43C145.392,-2352.62 138.586,-2346.57 134,-2339 114.174,-2306.29 114.972,-2262.54 120.01,-2228.91"/>
<polygon fill="black" stroke="black" points="123.5,-2229.26 121.692,-2218.82 116.596,-2228.11 123.5,-2229.26"/>
<text text-anchor="middle" x="187" y="-2327.8" font-family="Times,serif" font-size="14.00">dirp == NULL</text>
</g>
<!-- Node0x180439e0 -->
<g id="node5" class="node"><title>Node0x180439e0</title>
<polygon fill="none" stroke="black" points="225.5,-2237.5 225.5,-2305.5 326.5,-2305.5 326.5,-2237.5 225.5,-2237.5"/>
<text text-anchor="start" x="233.5" y="-2290.3" font-family="Times,serif" font-size="14.00">0x804913f:</text>
<text text-anchor="start" x="233.5" y="-2275.3" font-family="Times,serif" font-size="14.00"> v4</text>
<text text-anchor="start" x="233.5" y="-2260.3" font-family="Times,serif" font-size="14.00"> g5 = &amp;(v4)</text>
<text text-anchor="start" x="233.5" y="-2245.3" font-family="Times,serif" font-size="14.00"> v5</text>
</g>
<!-- Node0x18043320&#45;&gt;Node0x180439e0 -->
<g id="edge4" class="edge"><title>Node0x18043320&#45;&gt;Node0x180439e0</title>
<path fill="none" stroke="black" d="M225.045,-2357.45C231.759,-2352.08 238.635,-2345.77 244,-2339 249.786,-2331.7 254.866,-2323.18 259.176,-2314.73"/>
<polygon fill="black" stroke="black" points="262.366,-2316.17 263.545,-2305.64 256.058,-2313.14 262.366,-2316.17"/>
<text text-anchor="middle" x="304" y="-2327.8" font-family="Times,serif" font-size="14.00">dirp != NULL</text>
</g>
<!-- Node0x18043130 -->
<g id="node6" class="node"><title>Node0x18043130</title>
<polygon fill="none" stroke="black" points="1681,-23.5 1681,-59.5 1735,-59.5 1735,-23.5 1681,-23.5"/>
<text text-anchor="start" x="1689" y="-37.8" font-family="Times,serif" font-size="14.00">exit:</text>
</g>
<!-- Node0x18043fe0&#45;&gt;Node0x18043130 -->
<g id="edge5" class="edge"><title>Node0x18043fe0&#45;&gt;Node0x18043130</title>
<path fill="none" stroke="black" d="M120.807,-2135.34C115.372,-2112.14 110,-2082.4 110,-2055.5 110,-2055.5 110,-2055.5 110,-145.5 110,-64.644 1430.06,-45.6803 1670.62,-42.8957"/>
<polygon fill="black" stroke="black" points="1670.97,-46.392 1680.93,-42.7786 1670.9,-39.3924 1670.97,-46.392"/>
</g>
<!-- Node0x180438b0 -->
<g id="node7" class="node"><title>Node0x180438b0</title>
<polygon fill="none" stroke="black" points="176.5,-2080.5 176.5,-2116.5 563.5,-2116.5 563.5,-2080.5 176.5,-2080.5"/>
<text text-anchor="start" x="184.5" y="-2094.8" font-family="Times,serif" font-size="14.00">if (is_ignore_dir(IntToPtrCastExpr&lt;ptr&gt;(g3)) != 0):</text>
</g>
<!-- Node0x180439e0&#45;&gt;Node0x180438b0 -->
<g id="edge6" class="edge"><title>Node0x180439e0&#45;&gt;Node0x180438b0</title>
<path fill="none" stroke="black" d="M294.347,-2237.12C312.282,-2204.5 339.218,-2155.5 355.643,-2125.62"/>
<polygon fill="black" stroke="black" points="358.832,-2127.08 360.582,-2116.63 352.698,-2123.71 358.832,-2127.08"/>
</g>
<!-- Node0x18044040 -->
<g id="node8" class="node"><title>Node0x18044040</title>
<polygon fill="none" stroke="black" points="734,-1875.5 734,-1973.5 1006,-1973.5 1006,-1875.5 734,-1875.5"/>
<text text-anchor="start" x="742" y="-1958.3" font-family="Times,serif" font-size="14.00">0x8049274:</text>
<text text-anchor="start" x="742" y="-1943.3" font-family="Times,serif" font-size="14.00"> v5 = closedir(dirp)</text>
<text text-anchor="start" x="742" y="-1928.3" font-family="Times,serif" font-size="14.00"> g3 = v3</text>
<text text-anchor="start" x="742" y="-1913.3" font-family="Times,serif" font-size="14.00"> g7 = v2</text>
<text text-anchor="start" x="742" y="-1898.3" font-family="Times,serif" font-size="14.00"> g5 = v1</text>
<text text-anchor="start" x="742" y="-1883.3" font-family="Times,serif" font-size="14.00"> return IntToPtrCastExpr&lt;ptr&gt;(v5)</text>
</g>
<!-- Node0x180438b0&#45;&gt;Node0x18044040 -->
<g id="edge7" class="edge"><title>Node0x180438b0&#45;&gt;Node0x18044040</title>
<path fill="none" stroke="black" d="M563.644,-2088.71C629.012,-2083.46 692.803,-2075.14 722,-2062 762.089,-2043.96 798.507,-2010.71 825.187,-1981.54"/>
<polygon fill="black" stroke="black" points="828.029,-1983.61 832.101,-1973.83 822.819,-1978.93 828.029,-1983.61"/>
<text text-anchor="middle" x="921" y="-2050.8" font-family="Times,serif" font-size="14.00">is_ignore_dir(IntToPtrCastExpr&lt;ptr&gt;(g3)) != 0</text>
</g>
<!-- Node0x9a77570 -->
<g id="node9" class="node"><title>Node0x9a77570</title>
<polygon fill="none" stroke="black" points="321.5,-1992.5 321.5,-2028.5 418.5,-2028.5 418.5,-1992.5 321.5,-1992.5"/>
<text text-anchor="start" x="329.5" y="-2006.8" font-family="Times,serif" font-size="14.00">while True:</text>
</g>
<!-- Node0x180438b0&#45;&gt;Node0x9a77570 -->
<g id="edge8" class="edge"><title>Node0x180438b0&#45;&gt;Node0x9a77570</title>
<path fill="none" stroke="black" d="M370,-2080.1C370,-2068.25 370,-2052.32 370,-2038.79"/>
<polygon fill="black" stroke="black" points="373.5,-2038.58 370,-2028.58 366.5,-2038.58 373.5,-2038.58"/>
<text text-anchor="middle" x="544" y="-2050.8" font-family="Times,serif" font-size="14.00">is_ignore_dir(IntToPtrCastExpr&lt;ptr&gt;(g3)) == 0</text>
</g>
<!-- Node0x18044040&#45;&gt;Node0x18043130 -->
<g id="edge9" class="edge"><title>Node0x18044040&#45;&gt;Node0x18043130</title>
<path fill="none" stroke="black" d="M1006.12,-1921.98C1298.45,-1916.92 1960,-1894.96 1960,-1800 1960,-1800 1960,-1800 1960,-145.5 1960,-54.0154 1815.93,-41.9902 1745.66,-41.5664"/>
<polygon fill="black" stroke="black" points="1745.44,-38.0666 1735.45,-41.5836 1745.45,-45.0666 1745.44,-38.0666"/>
</g>
<!-- Node0x180444f0 -->
<g id="node10" class="node"><title>Node0x180444f0</title>
<polygon fill="none" stroke="black" points="559,-1818.5 559,-1856.5 835,-1856.5 835,-1818.5 559,-1818.5"/>
<text text-anchor="start" x="567" y="-1841.3" font-family="Times,serif" font-size="14.00">v6 = readdir64(dirp)</text>
<text text-anchor="start" x="567" y="-1826.3" font-family="Times,serif" font-size="14.00"> v7 = PtrToIntCastExpr&lt;int32&gt;(v6)</text>
</g>
<!-- Node0x9a77570&#45;&gt;Node0x180444f0 -->
<g id="edge10" class="edge"><title>Node0x9a77570&#45;&gt;Node0x180444f0</title>
<path fill="none" stroke="black" d="M402.55,-1992.48C461.642,-1961.58 586.594,-1896.24 653.137,-1861.44"/>
<polygon fill="black" stroke="black" points="654.887,-1864.47 662.126,-1856.74 651.643,-1858.27 654.887,-1864.47"/>
<text text-anchor="middle" x="644" y="-1920.8" font-family="Times,serif" font-size="14.00">True</text>
</g>
<!-- Node0x18044550 -->
<g id="node11" class="node"><title>Node0x18044550</title>
<polygon fill="none" stroke="black" points="772,-1744.5 772,-1780.5 906,-1780.5 906,-1744.5 772,-1744.5"/>
<text text-anchor="start" x="780" y="-1758.8" font-family="Times,serif" font-size="14.00">if (v6 != NULL):</text>
</g>
<!-- Node0x180444f0&#45;&gt;Node0x18044550 -->
<g id="edge11" class="edge"><title>Node0x180444f0&#45;&gt;Node0x18044550</title>
<path fill="none" stroke="black" d="M732.101,-1818.46C751.616,-1808.42 776.041,-1795.87 796.615,-1785.29"/>
<polygon fill="black" stroke="black" points="798.473,-1788.27 805.766,-1780.59 795.272,-1782.04 798.473,-1788.27"/>
</g>
<!-- Node0x180446e0 -->
<g id="node12" class="node"><title>Node0x180446e0</title>
<polygon fill="none" stroke="black" points="776.5,-1654.5 776.5,-1692.5 901.5,-1692.5 901.5,-1654.5 776.5,-1654.5"/>
<text text-anchor="start" x="784.5" y="-1677.3" font-family="Times,serif" font-size="14.00">str = (v7 + 19)</text>
<text text-anchor="start" x="784.5" y="-1662.3" font-family="Times,serif" font-size="14.00"> g7 = str</text>
</g>
<!-- Node0x18044550&#45;&gt;Node0x180446e0 -->
<g id="edge12" class="edge"><title>Node0x18044550&#45;&gt;Node0x180446e0</title>
<path fill="none" stroke="black" d="M839,-1744.31C839,-1732.51 839,-1716.57 839,-1702.9"/>
<polygon fill="black" stroke="black" points="842.5,-1702.55 839,-1692.55 835.5,-1702.55 842.5,-1702.55"/>
<text text-anchor="middle" x="883" y="-1714.8" font-family="Times,serif" font-size="14.00">v6 != NULL</text>
</g>
<!-- Node0x18044680 -->
<g id="node13" class="node"><title>Node0x18044680</title>
<polygon fill="none" stroke="black" points="1428,-1537.5 1428,-1635.5 1700,-1635.5 1700,-1537.5 1428,-1537.5"/>
<text text-anchor="start" x="1436" y="-1620.3" font-family="Times,serif" font-size="14.00">0x8049274:</text>
<text text-anchor="start" x="1436" y="-1605.3" font-family="Times,serif" font-size="14.00"> v5 = closedir(dirp)</text>
<text text-anchor="start" x="1436" y="-1590.3" font-family="Times,serif" font-size="14.00"> g3 = v3</text>
<text text-anchor="start" x="1436" y="-1575.3" font-family="Times,serif" font-size="14.00"> g7 = v2</text>
<text text-anchor="start" x="1436" y="-1560.3" font-family="Times,serif" font-size="14.00"> g5 = v1</text>
<text text-anchor="start" x="1436" y="-1545.3" font-family="Times,serif" font-size="14.00"> return IntToPtrCastExpr&lt;ptr&gt;(v5)</text>
</g>
<!-- Node0x18044550&#45;&gt;Node0x18044680 -->
<g id="edge13" class="edge"><title>Node0x18044550&#45;&gt;Node0x18044680</title>
<path fill="none" stroke="black" d="M906.231,-1745.36C1022.07,-1717.56 1261.84,-1660.02 1417.66,-1622.62"/>
<polygon fill="black" stroke="black" points="1418.9,-1625.92 1427.8,-1620.19 1417.26,-1619.12 1418.9,-1625.92"/>
<text text-anchor="middle" x="1084" y="-1714.8" font-family="Times,serif" font-size="14.00">v6 == NULL</text>
</g>
<!-- Node0x18044740 -->
<g id="node14" class="node"><title>Node0x18044740</title>
<polygon fill="none" stroke="black" points="521,-1480.5 521,-1518.5 1157,-1518.5 1157,-1480.5 521,-1480.5"/>
<text text-anchor="start" x="529" y="-1503.3" font-family="Times,serif" font-size="14.00">if ((ExtCastExpr&lt;int32&gt;(*(IntToPtrCastExpr&lt;ptr&gt;((v7 + 18)))) or (v7 &amp; &#45;256)) == 4):</text>
<text text-anchor="start" x="529" y="-1488.3" font-family="Times,serif" font-size="14.00"> else:</text>
</g>
<!-- Node0x180446e0&#45;&gt;Node0x18044740 -->
<g id="edge14" class="edge"><title>Node0x180446e0&#45;&gt;Node0x18044740</title>
<path fill="none" stroke="black" d="M839,-1654.42C839,-1624.48 839,-1564.4 839,-1528.8"/>
<polygon fill="black" stroke="black" points="842.5,-1528.6 839,-1518.6 835.5,-1528.6 842.5,-1528.6"/>
</g>
<!-- Node0x18044680&#45;&gt;Node0x18043130 -->
<g id="edge15" class="edge"><title>Node0x18044680&#45;&gt;Node0x18043130</title>
<path fill="none" stroke="black" d="M1700.11,-1562.01C1801.33,-1540.54 1922,-1504.64 1922,-1455.5 1922,-1455.5 1922,-1455.5 1922,-145.5 1922,-67.9352 1806.44,-48.7468 1745.16,-44.0245"/>
<polygon fill="black" stroke="black" points="1745.32,-40.5271 1735.1,-43.3416 1744.84,-47.511 1745.32,-40.5271"/>
</g>
<!-- Node0xf0ddbf0 -->
<g id="node15" class="node"><title>Node0xf0ddbf0</title>
<polygon fill="none" stroke="black" points="524.5,-1390.5 524.5,-1428.5 907.5,-1428.5 907.5,-1390.5 524.5,-1390.5"/>
<text text-anchor="start" x="532.5" y="-1413.3" font-family="Times,serif" font-size="14.00">0x8049180:</text>
<text text-anchor="start" x="532.5" y="-1398.3" font-family="Times,serif" font-size="14.00"> if (strcmp(IntToPtrCastExpr&lt;ptr&gt;(str), &quot;..&quot;) != 0):</text>
</g>
<!-- Node0x18044740&#45;&gt;Node0xf0ddbf0 -->
<g id="edge16" class="edge"><title>Node0x18044740&#45;&gt;Node0xf0ddbf0</title>
<path fill="none" stroke="black" d="M738.114,-1480.46C730.013,-1475.63 722.751,-1469.57 717,-1462 712.055,-1455.49 710.513,-1447.07 710.576,-1438.92"/>
<polygon fill="black" stroke="black" points="714.067,-1439.17 711.377,-1428.92 707.089,-1438.61 714.067,-1439.17"/>
<text text-anchor="middle" x="1009.5" y="-1450.8" font-family="Times,serif" font-size="14.00">(ExtCastExpr&lt;int32&gt;(*(IntToPtrCastExpr&lt;ptr&gt;((v7 + 18)))) or (v7 &amp; &#45;256)) != 4</text>
</g>
<!-- Node0x18043ed0 -->
<g id="node16" class="node"><title>Node0x18043ed0</title>
<polygon fill="none" stroke="black" points="752,-1210.5 752,-1248.5 1144,-1248.5 1144,-1210.5 752,-1210.5"/>
<text text-anchor="start" x="760" y="-1233.3" font-family="Times,serif" font-size="14.00">0x8049145:</text>
<text text-anchor="start" x="760" y="-1218.3" font-family="Times,serif" font-size="14.00"> if (is_ignore_dir(IntToPtrCastExpr&lt;ptr&gt;(g3)) != 0):</text>
</g>
<!-- Node0x18044740&#45;&gt;Node0x18043ed0 -->
<g id="edge17" class="edge"><title>Node0x18044740&#45;&gt;Node0x18043ed0</title>
<path fill="none" stroke="black" d="M1157.18,-1489.01C1229.98,-1483.62 1289.81,-1475.19 1302,-1462 1314.22,-1448.78 1313.44,-1313.9 1302,-1300 1281.51,-1275.1 1220.24,-1258.99 1154.3,-1248.62"/>
<polygon fill="black" stroke="black" points="1154.53,-1245.12 1144.12,-1247.07 1153.48,-1252.04 1154.53,-1245.12"/>
<text text-anchor="middle" x="1605.5" y="-1360.8" font-family="Times,serif" font-size="14.00">(ExtCastExpr&lt;int32&gt;(*(IntToPtrCastExpr&lt;ptr&gt;((v7 + 18)))) or (v7 &amp; &#45;256)) == 4</text>
</g>
<!-- Node0xf0ddbf0&#45;&gt;Node0x18043ed0 -->
<g id="edge19" class="edge"><title>Node0xf0ddbf0&#45;&gt;Node0x18043ed0</title>
<path fill="none" stroke="black" d="M895.293,-1390.46C912.878,-1385.68 926.859,-1379.64 934,-1372 962.172,-1341.87 959.53,-1290.78 954.298,-1258.93"/>
<polygon fill="black" stroke="black" points="957.711,-1258.14 952.466,-1248.93 950.825,-1259.4 957.711,-1258.14"/>
<text text-anchor="middle" x="1128" y="-1315.8" font-family="Times,serif" font-size="14.00">strcmp(IntToPtrCastExpr&lt;ptr&gt;(str), &quot;..&quot;) == 0</text>
</g>
<!-- Node0x54b67c0 -->
<g id="node17" class="node"><title>Node0x54b67c0</title>
<polygon fill="none" stroke="black" points="410.5,-1300.5 410.5,-1338.5 787.5,-1338.5 787.5,-1300.5 410.5,-1300.5"/>
<text text-anchor="start" x="418.5" y="-1323.3" font-family="Times,serif" font-size="14.00">0x8049194:</text>
<text text-anchor="start" x="418.5" y="-1308.3" font-family="Times,serif" font-size="14.00"> if (strcmp(IntToPtrCastExpr&lt;ptr&gt;(g7), &quot;.&quot;) != 0):</text>
</g>
<!-- Node0xf0ddbf0&#45;&gt;Node0x54b67c0 -->
<g id="edge18" class="edge"><title>Node0xf0ddbf0&#45;&gt;Node0x54b67c0</title>
<path fill="none" stroke="black" d="M621.097,-1390.49C612.971,-1385.66 605.694,-1379.61 600,-1372 595.101,-1365.46 593.573,-1357.02 593.633,-1348.88"/>
<polygon fill="black" stroke="black" points="597.124,-1349.13 594.425,-1338.88 590.146,-1348.58 597.124,-1349.13"/>
<text text-anchor="middle" x="767" y="-1360.8" font-family="Times,serif" font-size="14.00">strcmp(IntToPtrCastExpr&lt;ptr&gt;(str), &quot;..&quot;) != 0</text>
</g>
<!-- Node0xf0de0a0 -->
<g id="node18" class="node"><title>Node0xf0de0a0</title>
<polygon fill="none" stroke="black" points="1639,-1063.5 1639,-1101.5 1807,-1101.5 1807,-1063.5 1639,-1063.5"/>
<text text-anchor="start" x="1647" y="-1086.3" font-family="Times,serif" font-size="14.00">break &#45;&gt; 0x8049274:</text>
<text text-anchor="start" x="1647" y="-1071.3" font-family="Times,serif" font-size="14.00"> break</text>
</g>
<!-- Node0x18043ed0&#45;&gt;Node0xf0de0a0 -->
<g id="edge20" class="edge"><title>Node0x18043ed0&#45;&gt;Node0xf0de0a0</title>
<path fill="none" stroke="black" d="M1044.59,-1210.43C1194.32,-1182.41 1480.63,-1128.85 1628.86,-1101.11"/>
<polygon fill="black" stroke="black" points="1629.67,-1104.52 1638.86,-1099.24 1628.39,-1097.64 1629.67,-1104.52"/>
<text text-anchor="middle" x="1391" y="-1180.8" font-family="Times,serif" font-size="14.00">is_ignore_dir(IntToPtrCastExpr&lt;ptr&gt;(g3)) != 0</text>
</g>
<!-- Node0xf0ddb90 -->
<g id="node19" class="node"><title>Node0xf0ddb90</title>
<polygon fill="none" stroke="black" points="275.5,-1120.5 275.5,-1158.5 464.5,-1158.5 464.5,-1120.5 275.5,-1120.5"/>
<text text-anchor="start" x="283.5" y="-1143.3" font-family="Times,serif" font-size="14.00">continue &#45;&gt; 0x8049159:</text>
<text text-anchor="start" x="283.5" y="-1128.3" font-family="Times,serif" font-size="14.00"> continue</text>
</g>
<!-- Node0x18043ed0&#45;&gt;Node0xf0ddb90 -->
<g id="edge21" class="edge"><title>Node0x18043ed0&#45;&gt;Node0xf0ddb90</title>
<path fill="none" stroke="black" d="M817.567,-1210.47C724.776,-1197.38 596.915,-1178.82 474.565,-1159.07"/>
<polygon fill="black" stroke="black" points="475.069,-1155.6 464.638,-1157.46 473.95,-1162.51 475.069,-1155.6"/>
<text text-anchor="middle" x="856" y="-1180.8" font-family="Times,serif" font-size="14.00">is_ignore_dir(IntToPtrCastExpr&lt;ptr&gt;(g3)) == 0</text>
</g>
<!-- Node0x54b67c0&#45;&gt;Node0x18043ed0 -->
<g id="edge23" class="edge"><title>Node0x54b67c0&#45;&gt;Node0x18043ed0</title>
<path fill="none" stroke="black" d="M787.75,-1308.35C839.228,-1302.94 886.896,-1294.65 909,-1282 919.105,-1276.22 927.428,-1266.65 933.753,-1257.33"/>
<polygon fill="black" stroke="black" points="936.879,-1258.93 939.197,-1248.59 930.938,-1255.23 936.879,-1258.93"/>
</g>
<!-- Node0xf0de220 -->
<g id="node20" class="node"><title>Node0xf0de220</title>
<polygon fill="none" stroke="black" points="552.5,-1210.5 552.5,-1248.5 673.5,-1248.5 673.5,-1210.5 552.5,-1210.5"/>
<text text-anchor="start" x="560.5" y="-1233.3" font-family="Times,serif" font-size="14.00">0x80491a8:</text>
<text text-anchor="start" x="560.5" y="-1218.3" font-family="Times,serif" font-size="14.00"> chars_printed</text>
</g>
<!-- Node0x54b67c0&#45;&gt;Node0xf0de220 -->
<g id="edge22" class="edge"><title>Node0x54b67c0&#45;&gt;Node0xf0de220</title>
<path fill="none" stroke="black" d="M586.891,-1300.28C581.837,-1290.38 577.974,-1277.96 582,-1267 583.31,-1263.43 585.139,-1259.98 587.262,-1256.71"/>
<polygon fill="black" stroke="black" points="590.197,-1258.63 593.407,-1248.53 584.601,-1254.42 590.197,-1258.63"/>
<text text-anchor="middle" x="745.5" y="-1270.8" font-family="Times,serif" font-size="14.00">strcmp(IntToPtrCastExpr&lt;ptr&gt;(g7), &quot;.&quot;) != 0</text>
</g>
<!-- Node0x9a77710 -->
<g id="node21" class="node"><title>Node0x9a77710</title>
<polygon fill="none" stroke="black" points="1572,-97.5 1572,-195.5 1844,-195.5 1844,-97.5 1572,-97.5"/>
<text text-anchor="start" x="1580" y="-180.3" font-family="Times,serif" font-size="14.00">0x8049274:</text>
<text text-anchor="start" x="1580" y="-165.3" font-family="Times,serif" font-size="14.00"> v5 = closedir(dirp)</text>
<text text-anchor="start" x="1580" y="-150.3" font-family="Times,serif" font-size="14.00"> g3 = v3</text>
<text text-anchor="start" x="1580" y="-135.3" font-family="Times,serif" font-size="14.00"> g7 = v2</text>
<text text-anchor="start" x="1580" y="-120.3" font-family="Times,serif" font-size="14.00"> g5 = v1</text>
<text text-anchor="start" x="1580" y="-105.3" font-family="Times,serif" font-size="14.00"> return IntToPtrCastExpr&lt;ptr&gt;(v5)</text>
</g>
<!-- Node0xf0de0a0&#45;&gt;Node0x9a77710 -->
<g id="edge24" class="edge"><title>Node0xf0de0a0&#45;&gt;Node0x9a77710</title>
<path fill="none" stroke="black" d="M1807.25,-1074.15C1828.2,-1068.73 1849.17,-1059.75 1865,-1045 1884.53,-1026.79 1884,-1014.7 1884,-988 1884,-988 1884,-988 1884,-251.5 1884,-226.967 1871.17,-208.099 1852.43,-193.627"/>
<polygon fill="black" stroke="black" points="1854.24,-190.621 1844.06,-187.69 1850.19,-196.331 1854.24,-190.621"/>
</g>
<!-- Node0xf0ddb90&#45;&gt;Node0x9a77570 -->
<g id="edge25" class="edge"><title>Node0xf0ddb90&#45;&gt;Node0x9a77570</title>
<path fill="none" stroke="black" d="M370,-1158.7C370,-1176.5 370,-1204.36 370,-1228.5 370,-1838.5 370,-1838.5 370,-1838.5 370,-1889.13 370,-1948.19 370,-1981.98"/>
<polygon fill="black" stroke="black" points="366.5,-1982.02 370,-1992.02 373.5,-1982.02 366.5,-1982.02"/>
</g>
<!-- Node0x7cf5830 -->
<g id="node22" class="node"><title>Node0x7cf5830</title>
<polygon fill="none" stroke="black" points="483,-1120.5 483,-1158.5 861,-1158.5 861,-1120.5 483,-1120.5"/>
<text text-anchor="start" x="491" y="-1143.3" font-family="Times,serif" font-size="14.00">if (strcmp(&quot;/&quot;, IntToPtrCastExpr&lt;ptr&gt;(g3)) == 0):</text>
<text text-anchor="start" x="491" y="-1128.3" font-family="Times,serif" font-size="14.00"> else:</text>
</g>
<!-- Node0xf0de220&#45;&gt;Node0x7cf5830 -->
<g id="edge26" class="edge"><title>Node0xf0de220&#45;&gt;Node0x7cf5830</title>
<path fill="none" stroke="black" d="M625.225,-1210.27C633.531,-1197.88 644.659,-1181.28 653.977,-1167.38"/>
<polygon fill="black" stroke="black" points="657.129,-1168.97 659.791,-1158.71 651.315,-1165.07 657.129,-1168.97"/>
</g>
<!-- Node0x9a77710&#45;&gt;Node0x18043130 -->
<g id="edge27" class="edge"><title>Node0x9a77710&#45;&gt;Node0x18043130</title>
<path fill="none" stroke="black" d="M1708,-97.3173C1708,-87.893 1708,-78.32 1708,-69.8676"/>
<polygon fill="black" stroke="black" points="1711.5,-69.856 1708,-59.8561 1704.5,-69.8561 1711.5,-69.856"/>
</g>
<!-- Node0xf0df0c0 -->
<g id="node23" class="node"><title>Node0xf0df0c0</title>
<polygon fill="none" stroke="black" points="1140.5,-1006.5 1140.5,-1044.5 1855.5,-1044.5 1855.5,-1006.5 1140.5,-1006.5"/>
<text text-anchor="start" x="1148.5" y="-1029.3" font-family="Times,serif" font-size="14.00">0x80491bc:</text>
<text text-anchor="start" x="1148.5" y="-1014.3" font-family="Times,serif" font-size="14.00"> chars_printed = snprintf(IntToPtrCastExpr&lt;ptr&gt;(g5), 4096, &quot;/%s&quot;, IntToPtrCastExpr&lt;ptr&gt;(g7))</text>
</g>
<!-- Node0x7cf5830&#45;&gt;Node0xf0df0c0 -->
<g id="edge28" class="edge"><title>Node0x7cf5830&#45;&gt;Node0xf0df0c0</title>
<path fill="none" stroke="black" d="M841.871,-1120.48C891.296,-1114.92 945.343,-1108.53 995,-1102 1125.27,-1084.87 1274.04,-1062.15 1375.79,-1046.12"/>
<polygon fill="black" stroke="black" points="1376.46,-1049.56 1385.79,-1044.54 1375.37,-1042.64 1376.46,-1049.56"/>
<text text-anchor="middle" x="1421.5" y="-1078.8" font-family="Times,serif" font-size="14.00">strcmp(&quot;/&quot;, IntToPtrCastExpr&lt;ptr&gt;(g3)) == 0</text>
</g>
<!-- Node0xf0df180 -->
<g id="node24" class="node"><title>Node0xf0df180</title>
<polygon fill="none" stroke="black" points="175.5,-1006.5 175.5,-1044.5 1122.5,-1044.5 1122.5,-1006.5 175.5,-1006.5"/>
<text text-anchor="start" x="183.5" y="-1029.3" font-family="Times,serif" font-size="14.00">0x80491d2:</text>
<text text-anchor="start" x="183.5" y="-1014.3" font-family="Times,serif" font-size="14.00"> chars_printed = snprintf(IntToPtrCastExpr&lt;ptr&gt;(g5), 4096, &quot;%s/%s&quot;, IntToPtrCastExpr&lt;ptr&gt;(g3), IntToPtrCastExpr&lt;ptr&gt;(g7))</text>
</g>
<!-- Node0x7cf5830&#45;&gt;Node0xf0df180 -->
<g id="edge29" class="edge"><title>Node0x7cf5830&#45;&gt;Node0xf0df180</title>
<path fill="none" stroke="black" d="M668.202,-1120.01C664.551,-1102.23 658.984,-1075.12 654.783,-1054.66"/>
<polygon fill="black" stroke="black" points="658.167,-1053.74 652.727,-1044.65 651.311,-1055.15 658.167,-1053.74"/>
<text text-anchor="middle" x="827.5" y="-1078.8" font-family="Times,serif" font-size="14.00">strcmp(&quot;/&quot;, IntToPtrCastExpr&lt;ptr&gt;(g3)) != 0</text>
</g>
<!-- Node0xf0de820 -->
<g id="node25" class="node"><title>Node0xf0de820</title>
<polygon fill="none" stroke="black" points="1063.5,-930.5 1063.5,-968.5 1278.5,-968.5 1278.5,-930.5 1063.5,-930.5"/>
<text text-anchor="start" x="1071.5" y="-953.3" font-family="Times,serif" font-size="14.00">v8 = (chars_printed &#45; 4095)</text>
<text text-anchor="start" x="1071.5" y="-938.3" font-family="Times,serif" font-size="14.00"> v5 = chars_printed</text>
</g>
<!-- Node0xf0df0c0&#45;&gt;Node0xf0de820 -->
<g id="edge30" class="edge"><title>Node0xf0df0c0&#45;&gt;Node0xf0de820</title>
<path fill="none" stroke="black" d="M1418.42,-1006.49C1370.76,-995.706 1310.04,-981.965 1260.68,-970.795"/>
<polygon fill="black" stroke="black" points="1261.17,-967.318 1250.65,-968.524 1259.63,-974.145 1261.17,-967.318"/>
</g>
<!-- Node0xf0df180&#45;&gt;Node0xf0de820 -->
<g id="edge31" class="edge"><title>Node0xf0df180&#45;&gt;Node0xf0de820</title>
<path fill="none" stroke="black" d="M776.028,-1006.49C860.562,-994.508 970.82,-978.878 1053.35,-967.178"/>
<polygon fill="black" stroke="black" points="1053.87,-970.64 1063.28,-965.771 1052.88,-963.709 1053.87,-970.64"/>
</g>
<!-- Node0x18044370 -->
<g id="node26" class="node"><title>Node0x18044370</title>
<polygon fill="none" stroke="black" points="890.5,-856.5 890.5,-892.5 1451.5,-892.5 1451.5,-856.5 890.5,-856.5"/>
<text text-anchor="start" x="898.5" y="-870.8" font-family="Times,serif" font-size="14.00">if ((v8 == 0) or ((v8 &lt; 0) ^ (((4094 &#45; chars_printed) &amp; chars_printed) &lt; 0))):</text>
</g>
<!-- Node0xf0de820&#45;&gt;Node0x18044370 -->
<g id="edge32" class="edge"><title>Node0xf0de820&#45;&gt;Node0x18044370</title>
<path fill="none" stroke="black" d="M1171,-930.455C1171,-922.201 1171,-912.238 1171,-903.074"/>
<polygon fill="black" stroke="black" points="1174.5,-902.835 1171,-892.835 1167.5,-902.835 1174.5,-902.835"/>
</g>
<!-- Node0xf0df240 -->
<g id="node27" class="node"><title>Node0xf0df240</title>
<polygon fill="none" stroke="black" points="1049,-751.5 1049,-804.5 1635,-804.5 1635,-751.5 1049,-751.5"/>
<text text-anchor="start" x="1057" y="-789.3" font-family="Times,serif" font-size="14.00">0x80491f5:</text>
<text text-anchor="start" x="1057" y="-774.3" font-family="Times,serif" font-size="14.00"> v9</text>
<text text-anchor="start" x="1057" y="-759.3" font-family="Times,serif" font-size="14.00"> setChmod(IntToPtrCastExpr&lt;ptr&gt;(g5), 6, chars_printed, chars_printed, v9, 0)</text>
</g>
<!-- Node0x18044370&#45;&gt;Node0xf0df240 -->
<g id="edge33" class="edge"><title>Node0x18044370&#45;&gt;Node0xf0df240</title>
<path fill="none" stroke="black" d="M1291.01,-856.396C1301.54,-851.604 1311.43,-845.573 1320,-838 1327.1,-831.726 1331.91,-822.939 1335.17,-814.059"/>
<polygon fill="black" stroke="black" points="1338.52,-815.09 1338.14,-804.502 1331.83,-813.015 1338.52,-815.09"/>
<text text-anchor="middle" x="1589" y="-826.8" font-family="Times,serif" font-size="14.00">(v8 == 0) or ((v8 &lt; 0) ^ (((4094 &#45; chars_printed) &amp; chars_printed) &lt; 0))</text>
</g>
<!-- Node0xf0df060 -->
<g id="node28" class="node"><title>Node0xf0df060</title>
<polygon fill="none" stroke="black" points="624,-649.5 624,-732.5 896,-732.5 896,-649.5 624,-649.5"/>
<text text-anchor="start" x="632" y="-717.3" font-family="Times,serif" font-size="14.00">0x8049285:</text>
<text text-anchor="start" x="632" y="-702.3" font-family="Times,serif" font-size="14.00"> g3 = v3</text>
<text text-anchor="start" x="632" y="-687.3" font-family="Times,serif" font-size="14.00"> g7 = v2</text>
<text text-anchor="start" x="632" y="-672.3" font-family="Times,serif" font-size="14.00"> g5 = v1</text>
<text text-anchor="start" x="632" y="-657.3" font-family="Times,serif" font-size="14.00"> return IntToPtrCastExpr&lt;ptr&gt;(v5)</text>
</g>
<!-- Node0x18044370&#45;&gt;Node0xf0df060 -->
<g id="edge34" class="edge"><title>Node0x18044370&#45;&gt;Node0xf0df060</title>
<path fill="none" stroke="black" d="M890.301,-863.314C823.466,-858.049 768.083,-850.074 757,-838 733.95,-812.889 735.939,-773.883 743.024,-742.504"/>
<polygon fill="black" stroke="black" points="746.467,-743.16 745.478,-732.611 739.673,-741.474 746.467,-743.16"/>
<text text-anchor="middle" x="1036.5" y="-826.8" font-family="Times,serif" font-size="14.00">(v8 != 0) and not (((v8 &lt; 0) ^ (((4094 &#45; chars_printed) &amp; chars_printed) &lt; 0)))</text>
</g>
<!-- Node0xf0df4a0 -->
<g id="node29" class="node"><title>Node0xf0df4a0</title>
<polygon fill="none" stroke="black" points="1236,-594.5 1236,-630.5 1448,-630.5 1448,-594.5 1236,-594.5"/>
<text text-anchor="start" x="1244" y="-608.8" font-family="Times,serif" font-size="14.00">if (checkDirStart(g7) != 0):</text>
</g>
<!-- Node0xf0df240&#45;&gt;Node0xf0df4a0 -->
<g id="edge35" class="edge"><title>Node0xf0df240&#45;&gt;Node0xf0df4a0</title>
<path fill="none" stroke="black" d="M1342,-751.453C1342,-721.406 1342,-671.724 1342,-640.897"/>
<polygon fill="black" stroke="black" points="1345.5,-640.843 1342,-630.843 1338.5,-640.843 1345.5,-640.843"/>
</g>
<!-- Node0xf0df060&#45;&gt;Node0x18043130 -->
<g id="edge36" class="edge"><title>Node0xf0df060&#45;&gt;Node0x18043130</title>
<path fill="none" stroke="black" d="M760,-649.283C760,-625.932 760,-596.069 760,-569.5 760,-569.5 760,-569.5 760,-145.5 760,-52.1627 1495.68,-43.3408 1670.88,-42.5632"/>
<polygon fill="black" stroke="black" points="1670.92,-46.0632 1680.9,-42.525 1670.89,-39.0633 1670.92,-46.0632"/>
</g>
<!-- Node0xcb043a0 -->
<g id="node30" class="node"><title>Node0xcb043a0</title>
<polygon fill="none" stroke="black" points="1128,-504.5 1128,-542.5 1526,-542.5 1526,-504.5 1128,-504.5"/>
<text text-anchor="start" x="1136" y="-527.3" font-family="Times,serif" font-size="14.00">0x804920e:</text>
<text text-anchor="start" x="1136" y="-512.3" font-family="Times,serif" font-size="14.00"> if (is_ignore_dir(IntToPtrCastExpr&lt;ptr&gt;(g3)) == 0):</text>
</g>
<!-- Node0xf0df4a0&#45;&gt;Node0xcb043a0 -->
<g id="edge37" class="edge"><title>Node0xf0df4a0&#45;&gt;Node0xcb043a0</title>
<path fill="none" stroke="black" d="M1339.04,-594.312C1336.98,-582.394 1334.2,-566.256 1331.83,-552.499"/>
<polygon fill="black" stroke="black" points="1335.26,-551.811 1330.11,-542.551 1328.36,-553.001 1335.26,-551.811"/>
<text text-anchor="middle" x="1418" y="-564.8" font-family="Times,serif" font-size="14.00">checkDirStart(g7) != 0</text>
</g>
<!-- Node0xf0df6a0 -->
<g id="node31" class="node"><title>Node0xf0df6a0</title>
<polygon fill="none" stroke="black" points="1168.5,-399.5 1168.5,-452.5 1505.5,-452.5 1505.5,-399.5 1168.5,-399.5"/>
<text text-anchor="start" x="1176.5" y="-437.3" font-family="Times,serif" font-size="14.00">0x8049224:</text>
<text text-anchor="start" x="1176.5" y="-422.3" font-family="Times,serif" font-size="14.00"> find_and_do(IntToPtrCastExpr&lt;ptr&gt;(g5), 6)</text>
<text text-anchor="start" x="1176.5" y="-407.3" font-family="Times,serif" font-size="14.00"> goto 0x804926c</text>
</g>
<!-- Node0xf0df4a0&#45;&gt;Node0xf0df6a0 -->
<g id="edge38" class="edge"><title>Node0xf0df4a0&#45;&gt;Node0xf0df6a0</title>
<path fill="none" stroke="black" d="M1448.24,-601.829C1568.78,-586.85 1740.08,-550.952 1670,-471 1658.8,-458.226 1588.81,-447.965 1515.87,-440.576"/>
<polygon fill="black" stroke="black" points="1515.86,-437.057 1505.56,-439.552 1515.17,-444.023 1515.86,-437.057"/>
<text text-anchor="middle" x="1772" y="-519.8" font-family="Times,serif" font-size="14.00">checkDirStart(g7) == 0</text>
</g>
<!-- Node0xcb043a0&#45;&gt;Node0xf0df6a0 -->
<g id="edge40" class="edge"><title>Node0xcb043a0&#45;&gt;Node0xf0df6a0</title>
<path fill="none" stroke="black" d="M1326.55,-504.334C1326.5,-494.448 1326.78,-482.021 1328,-471 1328.3,-468.331 1328.68,-465.584 1329.11,-462.829"/>
<polygon fill="black" stroke="black" points="1332.57,-463.393 1330.88,-452.934 1325.67,-462.162 1332.57,-463.393"/>
<text text-anchor="middle" x="1499" y="-474.8" font-family="Times,serif" font-size="14.00">is_ignore_dir(IntToPtrCastExpr&lt;ptr&gt;(g3)) != 0</text>
</g>
<!-- Node0xb5ec950 -->
<g id="node32" class="node"><title>Node0xb5ec950</title>
<polygon fill="none" stroke="black" points="788,-407 788,-445 1150,-445 1150,-407 788,-407"/>
<text text-anchor="start" x="796" y="-429.8" font-family="Times,serif" font-size="14.00">0x8049267:</text>
<text text-anchor="start" x="796" y="-414.8" font-family="Times,serif" font-size="14.00"> encrypt_directory(IntToPtrCastExpr&lt;ptr&gt;(g5))</text>
</g>
<!-- Node0xcb043a0&#45;&gt;Node0xb5ec950 -->
<g id="edge39" class="edge"><title>Node0xcb043a0&#45;&gt;Node0xb5ec950</title>
<path fill="none" stroke="black" d="M1127.57,-512.417C1054.24,-506.722 986.004,-498.228 974,-486 966.196,-478.05 964.103,-466.259 964.285,-455.302"/>
<polygon fill="black" stroke="black" points="967.784,-455.441 965.043,-445.206 960.804,-454.916 967.784,-455.441"/>
<text text-anchor="middle" x="1148" y="-474.8" font-family="Times,serif" font-size="14.00">is_ignore_dir(IntToPtrCastExpr&lt;ptr&gt;(g3)) == 0</text>
</g>
<!-- Node0x18044eb0 -->
<g id="node33" class="node"><title>Node0x18044eb0</title>
<polygon fill="none" stroke="black" points="1084,-323.5 1084,-361.5 1476,-361.5 1476,-323.5 1084,-323.5"/>
<text text-anchor="start" x="1092" y="-346.3" font-family="Times,serif" font-size="14.00">0x8049145:</text>
<text text-anchor="start" x="1092" y="-331.3" font-family="Times,serif" font-size="14.00"> if (is_ignore_dir(IntToPtrCastExpr&lt;ptr&gt;(g3)) != 0):</text>
</g>
<!-- Node0xf0df6a0&#45;&gt;Node0x18044eb0 -->
<g id="edge41" class="edge"><title>Node0xf0df6a0&#45;&gt;Node0x18044eb0</title>
<path fill="none" stroke="black" d="M1318.96,-399.213C1312.42,-389.858 1305.03,-379.282 1298.45,-369.877"/>
<polygon fill="black" stroke="black" points="1301.28,-367.827 1292.69,-361.638 1295.55,-371.839 1301.28,-367.827"/>
</g>
<!-- Node0xb5ec950&#45;&gt;Node0x18044eb0 -->
<g id="edge42" class="edge"><title>Node0xb5ec950&#45;&gt;Node0x18044eb0</title>
<path fill="none" stroke="black" d="M1038.02,-406.913C1086.34,-394.251 1150.99,-377.309 1201.31,-364.122"/>
<polygon fill="black" stroke="black" points="1202.39,-367.458 1211.17,-361.537 1200.61,-360.686 1202.39,-367.458"/>
</g>
<!-- Node0xf0dffe0 -->
<g id="node34" class="node"><title>Node0xf0dffe0</title>
<polygon fill="none" stroke="black" points="1477,-233.5 1477,-271.5 1645,-271.5 1645,-233.5 1477,-233.5"/>
<text text-anchor="start" x="1485" y="-256.3" font-family="Times,serif" font-size="14.00">break &#45;&gt; 0x8049274:</text>
<text text-anchor="start" x="1485" y="-241.3" font-family="Times,serif" font-size="14.00"> break</text>
</g>
<!-- Node0x18044eb0&#45;&gt;Node0xf0dffe0 -->
<g id="edge43" class="edge"><title>Node0x18044eb0&#45;&gt;Node0xf0dffe0</title>
<path fill="none" stroke="black" d="M1337.54,-323.48C1382.76,-309.319 1445.83,-289.567 1493.44,-274.657"/>
<polygon fill="black" stroke="black" points="1494.56,-277.976 1503.05,-271.647 1492.46,-271.296 1494.56,-277.976"/>
<text text-anchor="middle" x="1608" y="-293.8" font-family="Times,serif" font-size="14.00">is_ignore_dir(IntToPtrCastExpr&lt;ptr&gt;(g3)) != 0</text>
</g>
<!-- Node0x180450b0 -->
<g id="node35" class="node"><title>Node0x180450b0</title>
<polygon fill="none" stroke="black" points="804.5,-233.5 804.5,-271.5 993.5,-271.5 993.5,-233.5 804.5,-233.5"/>
<text text-anchor="start" x="812.5" y="-256.3" font-family="Times,serif" font-size="14.00">continue &#45;&gt; 0x8049159:</text>
<text text-anchor="start" x="812.5" y="-241.3" font-family="Times,serif" font-size="14.00"> continue</text>
</g>
<!-- Node0x18044eb0&#45;&gt;Node0x180450b0 -->
<g id="edge44" class="edge"><title>Node0x18044eb0&#45;&gt;Node0x180450b0</title>
<path fill="none" stroke="black" d="M1142.71,-323.481C1112.32,-318.421 1080.41,-312.271 1051,-305 1018.82,-297.044 983.722,-285.36 955.367,-275.131"/>
<polygon fill="black" stroke="black" points="956.229,-271.72 945.635,-271.583 953.831,-278.297 956.229,-271.72"/>
<text text-anchor="middle" x="1225" y="-293.8" font-family="Times,serif" font-size="14.00">is_ignore_dir(IntToPtrCastExpr&lt;ptr&gt;(g3)) == 0</text>
</g>
<!-- Node0xf0dffe0&#45;&gt;Node0x9a77710 -->
<g id="edge45" class="edge"><title>Node0xf0dffe0&#45;&gt;Node0x9a77710</title>
<path fill="none" stroke="black" d="M1586.61,-233.385C1599.28,-224.415 1615.33,-213.062 1631.57,-201.574"/>
<polygon fill="black" stroke="black" points="1633.92,-204.199 1640.06,-195.566 1629.88,-198.485 1633.92,-204.199"/>
</g>
<!-- Node0x180450b0&#45;&gt;Node0x9a77570 -->
<g id="edge46" class="edge"><title>Node0x180450b0&#45;&gt;Node0x9a77570</title>
<path fill="none" stroke="black" d="M804.266,-254.924C602.372,-259.221 148,-276.15 148,-341.5 148,-1838.5 148,-1838.5 148,-1838.5 148,-1921.1 245.649,-1969.35 311.421,-1992.48"/>
<polygon fill="black" stroke="black" points="310.687,-1995.93 321.281,-1995.85 312.948,-1989.31 310.687,-1995.93"/>
</g>
</g>
</svg>
