<?xml version="1.0" encoding="UTF-8" standalone="no"?>
<!DOCTYPE svg PUBLIC "-//W3C//DTD SVG 1.1//EN"
 "http://www.w3.org/Graphics/SVG/1.1/DTD/svg11.dtd">
<!-- Generated by graphviz version 2.38.0 (20140413.2041)
 -->
<!-- Title: Control&#45;flow graph for function &#39;md5_update_wrap(a1)&#39;. Pages: 1 -->
<svg width="694pt" height="278pt"
 viewBox="0.00 0.00 694.00 278.00" xmlns="http://www.w3.org/2000/svg" xmlns:xlink="http://www.w3.org/1999/xlink">
<g id="graph0" class="graph" transform="scale(1 1) rotate(0) translate(4 274)">
<title>Control&#45;flow graph for function &#39;md5_update_wrap(a1)&#39;.</title>
<polygon fill="white" stroke="none" points="-4,4 -4,-274 690,-274 690,4 -4,4"/>
<text text-anchor="middle" x="343" y="-7.8" font-family="Times,serif" font-size="14.00">Control&#45;flow graph for function &#39;md5_update_wrap(a1)&#39;.</text>
<!-- Node0x9c74630 -->
<g id="node1" class="node"><title>Node0x9c74630</title>
<polygon fill="none" stroke="black" points="313.5,-231.5 313.5,-269.5 372.5,-269.5 372.5,-231.5 313.5,-231.5"/>
<text text-anchor="start" x="321.5" y="-254.3" font-family="Times,serif" font-size="14.00">entry:</text>
<text text-anchor="start" x="321.5" y="-239.3" font-family="Times,serif" font-size="14.00"> a1</text>
</g>
<!-- Node0x9c73cf0 -->
<g id="node2" class="node"><title>Node0x9c73cf0</title>
<polygon fill="none" stroke="black" points="-5.68434e-14,-96.5 -5.68434e-14,-194.5 686,-194.5 686,-96.5 -5.68434e-14,-96.5"/>
<text text-anchor="start" x="8" y="-179.3" font-family="Times,serif" font-size="14.00">0x8062ed0:</text>
<text text-anchor="start" x="8" y="-164.3" font-family="Times,serif" font-size="14.00"> v1</text>
<text text-anchor="start" x="8" y="-149.3" font-family="Times,serif" font-size="14.00"> v2</text>
<text text-anchor="start" x="8" y="-134.3" font-family="Times,serif" font-size="14.00"> result = mbedtls_md5_update(IntToPtrCastExpr&lt;ptr&gt;(v2), IntToPtrCastExpr&lt;ptr&gt;(v1), a1)</text>
<text text-anchor="start" x="8" y="-119.3" font-family="Times,serif" font-size="14.00"> g1 = result</text>
<text text-anchor="start" x="8" y="-104.3" font-family="Times,serif" font-size="14.00"> return result</text>
</g>
<!-- Node0x9c74630&#45;&gt;Node0x9c73cf0 -->
<g id="edge1" class="edge"><title>Node0x9c74630&#45;&gt;Node0x9c73cf0</title>
<path fill="none" stroke="black" d="M343,-231.086C343,-223.607 343,-214.513 343,-205.097"/>
<polygon fill="black" stroke="black" points="346.5,-204.814 343,-194.814 339.5,-204.815 346.5,-204.814"/>
</g>
<!-- Node0xccf1ca0 -->
<g id="node3" class="node"><title>Node0xccf1ca0</title>
<polygon fill="none" stroke="black" points="316,-23.5 316,-59.5 370,-59.5 370,-23.5 316,-23.5"/>
<text text-anchor="start" x="324" y="-37.8" font-family="Times,serif" font-size="14.00">exit:</text>
</g>
<!-- Node0x9c73cf0&#45;&gt;Node0xccf1ca0 -->
<g id="edge2" class="edge"><title>Node0x9c73cf0&#45;&gt;Node0xccf1ca0</title>
<path fill="none" stroke="black" d="M343,-96.4868C343,-87.2893 343,-77.9618 343,-69.7064"/>
<polygon fill="black" stroke="black" points="346.5,-69.5725 343,-59.5725 339.5,-69.5725 346.5,-69.5725"/>
</g>
</g>
</svg>
