<?xml version="1.0" encoding="UTF-8" standalone="no"?>
<!DOCTYPE svg PUBLIC "-//W3C//DTD SVG 1.1//EN"
 "http://www.w3.org/Graphics/SVG/1.1/DTD/svg11.dtd">
<!-- Generated by graphviz version 2.38.0 (20140413.2041)
 -->
<!-- Title: Control&#45;flow graph for function &#39;mbedtls_mpi_mod_mpi(a1, a2, a3)&#39;. Pages: 1 -->
<svg width="1625pt" height="1957pt"
 viewBox="0.00 0.00 1625.00 1957.00" xmlns="http://www.w3.org/2000/svg" xmlns:xlink="http://www.w3.org/1999/xlink">
<g id="graph0" class="graph" transform="scale(1 1) rotate(0) translate(4 1953)">
<title>Control&#45;flow graph for function &#39;mbedtls_mpi_mod_mpi(a1, a2, a3)&#39;.</title>
<polygon fill="white" stroke="none" points="-4,4 -4,-1953 1621,-1953 1621,4 -4,4"/>
<text text-anchor="middle" x="808.5" y="-7.8" font-family="Times,serif" font-size="14.00">Control&#45;flow graph for function &#39;mbedtls_mpi_mod_mpi(a1, a2, a3)&#39;.</text>
<!-- Node0x7fd13b0 -->
<g id="node1" class="node"><title>Node0x7fd13b0</title>
<polygon fill="none" stroke="black" points="157,-1880.5 157,-1948.5 216,-1948.5 216,-1880.5 157,-1880.5"/>
<text text-anchor="start" x="165" y="-1933.3" font-family="Times,serif" font-size="14.00">entry:</text>
<text text-anchor="start" x="165" y="-1918.3" font-family="Times,serif" font-size="14.00"> a1</text>
<text text-anchor="start" x="165" y="-1903.3" font-family="Times,serif" font-size="14.00"> a2</text>
<text text-anchor="start" x="165" y="-1888.3" font-family="Times,serif" font-size="14.00"> a3</text>
</g>
<!-- Node0x7fd0790 -->
<g id="node2" class="node"><title>Node0x7fd0790</title>
<polygon fill="none" stroke="black" points="55,-1699.5 55,-1842.5 318,-1842.5 318,-1699.5 55,-1699.5"/>
<text text-anchor="start" x="63" y="-1827.3" font-family="Times,serif" font-size="14.00">v1 = g5</text>
<text text-anchor="start" x="63" y="-1812.3" font-family="Times,serif" font-size="14.00"> v2 = g7</text>
<text text-anchor="start" x="63" y="-1797.3" font-family="Times,serif" font-size="14.00"> v3 = g3</text>
<text text-anchor="start" x="63" y="-1782.3" font-family="Times,serif" font-size="14.00"> g7 = a3</text>
<text text-anchor="start" x="63" y="-1767.3" font-family="Times,serif" font-size="14.00"> g3 = a1</text>
<text text-anchor="start" x="63" y="-1752.3" font-family="Times,serif" font-size="14.00"> v4 = mbedtls_mpi_cmp_int(a3, 0)</text>
<text text-anchor="start" x="63" y="-1737.3" font-family="Times,serif" font-size="14.00"> g6 = v4</text>
<text text-anchor="start" x="63" y="-1722.3" font-family="Times,serif" font-size="14.00"> g1 = &#45;10</text>
<text text-anchor="start" x="63" y="-1707.3" font-family="Times,serif" font-size="14.00"> v5</text>
</g>
<!-- Node0x7fd13b0&#45;&gt;Node0x7fd0790 -->
<g id="edge1" class="edge"><title>Node0x7fd13b0&#45;&gt;Node0x7fd0790</title>
<path fill="none" stroke="black" d="M186.5,-1880.32C186.5,-1871.9 186.5,-1862.47 186.5,-1852.78"/>
<polygon fill="black" stroke="black" points="190,-1852.63 186.5,-1842.63 183,-1852.63 190,-1852.63"/>
</g>
<!-- Node0x7fd1350 -->
<g id="node3" class="node"><title>Node0x7fd1350</title>
<polygon fill="none" stroke="black" points="140,-1625.5 140,-1661.5 233,-1661.5 233,-1625.5 140,-1625.5"/>
<text text-anchor="start" x="148" y="-1639.8" font-family="Times,serif" font-size="14.00">if (v4 &lt; 0):</text>
</g>
<!-- Node0x7fd0790&#45;&gt;Node0x7fd1350 -->
<g id="edge2" class="edge"><title>Node0x7fd0790&#45;&gt;Node0x7fd1350</title>
<path fill="none" stroke="black" d="M186.5,-1699.18C186.5,-1689.44 186.5,-1679.96 186.5,-1671.71"/>
<polygon fill="black" stroke="black" points="190,-1671.64 186.5,-1661.64 183,-1671.64 190,-1671.64"/>
</g>
<!-- Node0x17aeecb0 -->
<g id="node4" class="node"><title>Node0x17aeecb0</title>
<polygon fill="none" stroke="black" points="0,-1403.5 0,-1501.5 101,-1501.5 101,-1403.5 0,-1403.5"/>
<text text-anchor="start" x="8" y="-1486.3" font-family="Times,serif" font-size="14.00">0x8058c18:</text>
<text text-anchor="start" x="8" y="-1471.3" font-family="Times,serif" font-size="14.00"> g3 = v3</text>
<text text-anchor="start" x="8" y="-1456.3" font-family="Times,serif" font-size="14.00"> g7 = v2</text>
<text text-anchor="start" x="8" y="-1441.3" font-family="Times,serif" font-size="14.00"> g5 = v1</text>
<text text-anchor="start" x="8" y="-1426.3" font-family="Times,serif" font-size="14.00"> g2 = v5</text>
<text text-anchor="start" x="8" y="-1411.3" font-family="Times,serif" font-size="14.00"> return &#45;10</text>
</g>
<!-- Node0x7fd1350&#45;&gt;Node0x17aeecb0 -->
<g id="edge3" class="edge"><title>Node0x7fd1350&#45;&gt;Node0x17aeecb0</title>
<path fill="none" stroke="black" d="M139.855,-1626.53C115.047,-1615.61 86.2819,-1598.6 69.5,-1574 57.1903,-1555.96 51.7149,-1532.9 49.5652,-1511.79"/>
<polygon fill="black" stroke="black" points="53.0382,-1511.31 48.7617,-1501.62 46.0599,-1511.86 53.0382,-1511.31"/>
<text text-anchor="middle" x="127.5" y="-1595.8" font-family="Times,serif" font-size="14.00">v4 &lt; 0</text>
</g>
<!-- Node0x7fcde90 -->
<g id="node5" class="node"><title>Node0x7fcde90</title>
<polygon fill="none" stroke="black" points="78.5,-1520.5 78.5,-1573.5 974.5,-1573.5 974.5,-1520.5 78.5,-1520.5"/>
<text text-anchor="start" x="86.5" y="-1558.3" font-family="Times,serif" font-size="14.00">v6 = mbedtls_mpi_div_mpi(NULL, IntToPtrCastExpr&lt;ptr&gt;(g3), IntToPtrCastExpr&lt;ptr&gt;(a2), IntToPtrCastExpr&lt;ptr&gt;(g7))</text>
<text text-anchor="start" x="86.5" y="-1543.3" font-family="Times,serif" font-size="14.00"> g5 = v6</text>
<text text-anchor="start" x="86.5" y="-1528.3" font-family="Times,serif" font-size="14.00"> result = v6</text>
</g>
<!-- Node0x7fd1350&#45;&gt;Node0x7fcde90 -->
<g id="edge4" class="edge"><title>Node0x7fd1350&#45;&gt;Node0x7fcde90</title>
<path fill="none" stroke="black" d="M233.063,-1629.56C282.192,-1615.9 361.162,-1593.95 424.809,-1576.26"/>
<polygon fill="black" stroke="black" points="425.787,-1579.63 434.484,-1573.58 423.912,-1572.88 425.787,-1579.63"/>
<text text-anchor="middle" x="397.5" y="-1595.8" font-family="Times,serif" font-size="14.00">v4 &gt;= 0</text>
</g>
<!-- Node0x7fd0710 -->
<g id="node6" class="node"><title>Node0x7fd0710</title>
<polygon fill="none" stroke="black" points="133.5,-23.5 133.5,-59.5 187.5,-59.5 187.5,-23.5 133.5,-23.5"/>
<text text-anchor="start" x="141.5" y="-37.8" font-family="Times,serif" font-size="14.00">exit:</text>
</g>
<!-- Node0x17aeecb0&#45;&gt;Node0x7fd0710 -->
<g id="edge5" class="edge"><title>Node0x17aeecb0&#45;&gt;Node0x7fd0710</title>
<path fill="none" stroke="black" d="M50.5,-1403.48C50.5,-1379.46 50.5,-1349.94 50.5,-1323.5 50.5,-1323.5 50.5,-1323.5 50.5,-145.5 50.5,-104.306 92.1138,-74.8202 124.151,-58.2243"/>
<polygon fill="black" stroke="black" points="125.902,-61.2628 133.309,-53.6875 122.795,-54.9903 125.902,-61.2628"/>
</g>
<!-- Node0x17aee840 -->
<g id="node7" class="node"><title>Node0x17aee840</title>
<polygon fill="none" stroke="black" points="477,-1348.5 477,-1384.5 576,-1384.5 576,-1348.5 477,-1348.5"/>
<text text-anchor="start" x="485" y="-1362.8" font-family="Times,serif" font-size="14.00">if (v6 != 0):</text>
</g>
<!-- Node0x7fcde90&#45;&gt;Node0x17aee840 -->
<g id="edge6" class="edge"><title>Node0x7fcde90&#45;&gt;Node0x17aee840</title>
<path fill="none" stroke="black" d="M526.5,-1520.43C526.5,-1487.11 526.5,-1429.09 526.5,-1394.9"/>
<polygon fill="black" stroke="black" points="530,-1394.7 526.5,-1384.7 523,-1394.7 530,-1394.7"/>
</g>
<!-- Node0x17aef050 -->
<g id="node8" class="node"><title>Node0x17aef050</title>
<polygon fill="none" stroke="black" points="167,-1128.5 167,-1241.5 280,-1241.5 280,-1128.5 167,-1128.5"/>
<text text-anchor="start" x="175" y="-1226.3" font-family="Times,serif" font-size="14.00">0x8058c48:</text>
<text text-anchor="start" x="175" y="-1211.3" font-family="Times,serif" font-size="14.00"> g1 = result</text>
<text text-anchor="start" x="175" y="-1196.3" font-family="Times,serif" font-size="14.00"> g3 = v3</text>
<text text-anchor="start" x="175" y="-1181.3" font-family="Times,serif" font-size="14.00"> g7 = v2</text>
<text text-anchor="start" x="175" y="-1166.3" font-family="Times,serif" font-size="14.00"> g5 = v1</text>
<text text-anchor="start" x="175" y="-1151.3" font-family="Times,serif" font-size="14.00"> g2 = v5</text>
<text text-anchor="start" x="175" y="-1136.3" font-family="Times,serif" font-size="14.00"> return result</text>
</g>
<!-- Node0x17aee840&#45;&gt;Node0x17aef050 -->
<g id="edge7" class="edge"><title>Node0x17aee840&#45;&gt;Node0x17aef050</title>
<path fill="none" stroke="black" d="M497.721,-1348.45C450.175,-1320.28 354.04,-1263.33 289.195,-1224.92"/>
<polygon fill="black" stroke="black" points="290.648,-1221.71 280.261,-1219.63 287.08,-1227.73 290.648,-1221.71"/>
<text text-anchor="middle" x="493.5" y="-1318.8" font-family="Times,serif" font-size="14.00">v6 != 0</text>
</g>
<!-- Node0x17aeeac0 -->
<g id="node9" class="node"><title>Node0x17aeeac0</title>
<polygon fill="none" stroke="black" points="973.5,-1260.5 973.5,-1296.5 1041.5,-1296.5 1041.5,-1260.5 973.5,-1260.5"/>
<text text-anchor="start" x="981.5" y="-1274.8" font-family="Times,serif" font-size="14.00">result3</text>
</g>
<!-- Node0x17aee840&#45;&gt;Node0x17aeeac0 -->
<g id="edge8" class="edge"><title>Node0x17aee840&#45;&gt;Node0x17aeeac0</title>
<path fill="none" stroke="black" d="M576.164,-1356.62C670.366,-1339.78 873.588,-1303.44 963.347,-1287.39"/>
<polygon fill="black" stroke="black" points="964.234,-1290.79 973.461,-1285.59 963.001,-1283.9 964.234,-1290.79"/>
<text text-anchor="middle" x="826.5" y="-1318.8" font-family="Times,serif" font-size="14.00">v6 == 0</text>
</g>
<!-- Node0x17aef050&#45;&gt;Node0x7fd0710 -->
<g id="edge9" class="edge"><title>Node0x17aef050&#45;&gt;Node0x7fd0710</title>
<path fill="none" stroke="black" d="M166.639,-1155.13C129.745,-1131.93 88.5,-1095.49 88.5,-1048.5 88.5,-1048.5 88.5,-1048.5 88.5,-145.5 88.5,-114.159 111.17,-85.5598 131.069,-66.4933"/>
<polygon fill="black" stroke="black" points="133.506,-69.0073 138.506,-59.6668 128.772,-63.8502 133.506,-69.0073"/>
</g>
<!-- Node0xd51b090 -->
<g id="node10" class="node"><title>Node0xd51b090</title>
<polygon fill="none" stroke="black" points="1069,-1073.5 1069,-1109.5 1166,-1109.5 1166,-1073.5 1069,-1073.5"/>
<text text-anchor="start" x="1077" y="-1087.8" font-family="Times,serif" font-size="14.00">while True:</text>
</g>
<!-- Node0x17aeeac0&#45;&gt;Node0xd51b090 -->
<g id="edge10" class="edge"><title>Node0x17aeeac0&#45;&gt;Node0xd51b090</title>
<path fill="none" stroke="black" d="M1017.65,-1260.43C1036.97,-1227.94 1079.13,-1157.03 1102,-1118.57"/>
<polygon fill="black" stroke="black" points="1105.27,-1119.92 1107.37,-1109.53 1099.25,-1116.34 1105.27,-1119.92"/>
</g>
<!-- Node0x17aef180 -->
<g id="node11" class="node"><title>Node0x17aef180</title>
<polygon fill="none" stroke="black" points="975.5,-983.5 975.5,-1021.5 1259.5,-1021.5 1259.5,-983.5 975.5,-983.5"/>
<text text-anchor="start" x="983.5" y="-1006.3" font-family="Times,serif" font-size="14.00">0x8058bf0:</text>
<text text-anchor="start" x="983.5" y="-991.3" font-family="Times,serif" font-size="14.00"> if (mbedtls_mpi_cmp_int(g3, 0) &gt; 0):</text>
</g>
<!-- Node0xd51b090&#45;&gt;Node0x17aef180 -->
<g id="edge11" class="edge"><title>Node0xd51b090&#45;&gt;Node0x17aef180</title>
<path fill="none" stroke="black" d="M1117.5,-1073.31C1117.5,-1061.51 1117.5,-1045.57 1117.5,-1031.9"/>
<polygon fill="black" stroke="black" points="1121,-1031.55 1117.5,-1021.55 1114,-1031.55 1121,-1031.55"/>
<text text-anchor="middle" x="1134.5" y="-1043.8" font-family="Times,serif" font-size="14.00">True</text>
</g>
<!-- Node0xdd7a430 -->
<g id="node12" class="node"><title>Node0xdd7a430</title>
<polygon fill="none" stroke="black" points="832.5,-887 832.5,-923 900.5,-923 900.5,-887 832.5,-887"/>
<text text-anchor="start" x="840.5" y="-901.3" font-family="Times,serif" font-size="14.00">result2</text>
</g>
<!-- Node0x17aef180&#45;&gt;Node0xdd7a430 -->
<g id="edge12" class="edge"><title>Node0x17aef180&#45;&gt;Node0xdd7a430</title>
<path fill="none" stroke="black" d="M975.418,-986.434C943.832,-981.041 915.781,-974 902.5,-965 890.937,-957.165 882.446,-944.256 876.624,-932.508"/>
<polygon fill="black" stroke="black" points="879.658,-930.722 872.353,-923.049 873.279,-933.603 879.658,-930.722"/>
<text text-anchor="middle" x="1020" y="-953.8" font-family="Times,serif" font-size="14.00">mbedtls_mpi_cmp_int(g3, 0) &gt; 0</text>
</g>
<!-- Node0x17aef500 -->
<g id="node13" class="node"><title>Node0x17aef500</title>
<polygon fill="none" stroke="black" points="918.5,-878.5 918.5,-931.5 1436.5,-931.5 1436.5,-878.5 918.5,-878.5"/>
<text text-anchor="start" x="926.5" y="-916.3" font-family="Times,serif" font-size="14.00">v8 = IntToPtrCastExpr&lt;ptr&gt;(g3)</text>
<text text-anchor="start" x="926.5" y="-901.3" font-family="Times,serif" font-size="14.00"> result3 = mbedtls_mpi_add_mpi(v8, v8, IntToPtrCastExpr&lt;ptr&gt;(g7))</text>
<text text-anchor="start" x="926.5" y="-886.3" font-family="Times,serif" font-size="14.00"> g1 = result3</text>
</g>
<!-- Node0x17aef180&#45;&gt;Node0x17aef500 -->
<g id="edge13" class="edge"><title>Node0x17aef180&#45;&gt;Node0x17aef500</title>
<path fill="none" stroke="black" d="M1129.07,-983.087C1136.68,-970.968 1146.88,-954.732 1155.96,-940.287"/>
<polygon fill="black" stroke="black" points="1159.07,-941.906 1161.43,-931.577 1153.15,-938.182 1159.07,-941.906"/>
<text text-anchor="middle" x="1272" y="-953.8" font-family="Times,serif" font-size="14.00">mbedtls_mpi_cmp_int(g3, 0) &lt;= 0</text>
</g>
<!-- Node0x17aef870 -->
<g id="node14" class="node"><title>Node0x17aef870</title>
<polygon fill="none" stroke="black" points="818,-804.5 818,-840.5 915,-840.5 915,-804.5 818,-804.5"/>
<text text-anchor="start" x="826" y="-818.8" font-family="Times,serif" font-size="14.00">while True:</text>
</g>
<!-- Node0xdd7a430&#45;&gt;Node0x17aef870 -->
<g id="edge14" class="edge"><title>Node0xdd7a430&#45;&gt;Node0x17aef870</title>
<path fill="none" stroke="black" d="M866.5,-886.928C866.5,-876.469 866.5,-862.842 866.5,-850.901"/>
<polygon fill="black" stroke="black" points="870,-850.547 866.5,-840.547 863,-850.547 870,-850.547"/>
</g>
<!-- Node0x17aef560 -->
<g id="node15" class="node"><title>Node0x17aef560</title>
<polygon fill="none" stroke="black" points="1398,-804.5 1398,-840.5 1531,-840.5 1531,-804.5 1398,-804.5"/>
<text text-anchor="start" x="1406" y="-818.8" font-family="Times,serif" font-size="14.00">if (result3 != 0):</text>
</g>
<!-- Node0x17aef500&#45;&gt;Node0x17aef560 -->
<g id="edge15" class="edge"><title>Node0x17aef500&#45;&gt;Node0x17aef560</title>
<path fill="none" stroke="black" d="M1268.7,-878.419C1309.23,-867.05 1356.21,-853.873 1393.99,-843.277"/>
<polygon fill="black" stroke="black" points="1395.21,-846.571 1403.89,-840.501 1393.32,-839.831 1395.21,-846.571"/>
</g>
<!-- Node0x17aeec40 -->
<g id="node16" class="node"><title>Node0x17aeec40</title>
<polygon fill="none" stroke="black" points="434.5,-714.5 434.5,-752.5 1102.5,-752.5 1102.5,-714.5 434.5,-714.5"/>
<text text-anchor="start" x="442.5" y="-737.3" font-family="Times,serif" font-size="14.00">0x8058c20:</text>
<text text-anchor="start" x="442.5" y="-722.3" font-family="Times,serif" font-size="14.00"> if (mbedtls_mpi_cmp_mpi(IntToPtrCastExpr&lt;ptr&gt;(g3), IntToPtrCastExpr&lt;ptr&gt;(g7)) &lt; 0):</text>
</g>
<!-- Node0x17aef870&#45;&gt;Node0x17aeec40 -->
<g id="edge16" class="edge"><title>Node0x17aef870&#45;&gt;Node0x17aeec40</title>
<path fill="none" stroke="black" d="M847.138,-804.312C832.661,-791.459 812.655,-773.699 796.445,-759.309"/>
<polygon fill="black" stroke="black" points="798.636,-756.573 788.834,-752.551 793.988,-761.808 798.636,-756.573"/>
<text text-anchor="middle" x="843.5" y="-774.8" font-family="Times,serif" font-size="14.00">True</text>
</g>
<!-- Node0x17aef560&#45;&gt;Node0xd51b090 -->
<g id="edge18" class="edge"><title>Node0x17aef560&#45;&gt;Node0xd51b090</title>
<path fill="none" stroke="black" d="M1465.34,-840.702C1465.64,-863.365 1463.3,-903.662 1445.5,-932 1386.25,-1026.3 1253.32,-1065.87 1176.1,-1081.38"/>
<polygon fill="black" stroke="black" points="1175.2,-1077.99 1166.05,-1083.32 1176.53,-1084.86 1175.2,-1077.99"/>
<text text-anchor="middle" x="1479.5" y="-953.8" font-family="Times,serif" font-size="14.00">result3 == 0</text>
</g>
<!-- Node0x17aeef60 -->
<g id="node17" class="node"><title>Node0x17aeef60</title>
<polygon fill="none" stroke="black" points="1450,-714.5 1450,-752.5 1617,-752.5 1617,-714.5 1450,-714.5"/>
<text text-anchor="start" x="1458" y="-737.3" font-family="Times,serif" font-size="14.00">break &#45;&gt; 0x8058c18:</text>
<text text-anchor="start" x="1458" y="-722.3" font-family="Times,serif" font-size="14.00"> break</text>
</g>
<!-- Node0x17aef560&#45;&gt;Node0x17aeef60 -->
<g id="edge17" class="edge"><title>Node0x17aef560&#45;&gt;Node0x17aeef60</title>
<path fill="none" stroke="black" d="M1478.13,-804.312C1488.05,-791.81 1501.65,-774.664 1512.88,-760.493"/>
<polygon fill="black" stroke="black" points="1515.71,-762.561 1519.18,-752.551 1510.23,-758.211 1515.71,-762.561"/>
<text text-anchor="middle" x="1546.5" y="-774.8" font-family="Times,serif" font-size="14.00">result3 != 0</text>
</g>
<!-- Node0xdd951e0 -->
<g id="node18" class="node"><title>Node0xdd951e0</title>
<polygon fill="none" stroke="black" points="104,-462.5 104,-590.5 217,-590.5 217,-462.5 104,-462.5"/>
<text text-anchor="start" x="112" y="-575.3" font-family="Times,serif" font-size="14.00">0x8058c48:</text>
<text text-anchor="start" x="112" y="-560.3" font-family="Times,serif" font-size="14.00"> result = g5</text>
<text text-anchor="start" x="112" y="-545.3" font-family="Times,serif" font-size="14.00"> g1 = result</text>
<text text-anchor="start" x="112" y="-530.3" font-family="Times,serif" font-size="14.00"> g3 = v3</text>
<text text-anchor="start" x="112" y="-515.3" font-family="Times,serif" font-size="14.00"> g7 = v2</text>
<text text-anchor="start" x="112" y="-500.3" font-family="Times,serif" font-size="14.00"> g5 = v1</text>
<text text-anchor="start" x="112" y="-485.3" font-family="Times,serif" font-size="14.00"> g2 = v5</text>
<text text-anchor="start" x="112" y="-470.3" font-family="Times,serif" font-size="14.00"> return result</text>
</g>
<!-- Node0x17aeec40&#45;&gt;Node0xdd951e0 -->
<g id="edge19" class="edge"><title>Node0x17aeec40&#45;&gt;Node0xdd951e0</title>
<path fill="none" stroke="black" d="M434.148,-722.421C292.237,-716.454 156.569,-707.737 145.5,-696 121.933,-671.012 123.03,-633.687 131.174,-600.512"/>
<polygon fill="black" stroke="black" points="134.562,-601.391 133.775,-590.826 127.802,-599.576 134.562,-601.391"/>
<text text-anchor="middle" x="455" y="-684.8" font-family="Times,serif" font-size="14.00">mbedtls_mpi_cmp_mpi(IntToPtrCastExpr&lt;ptr&gt;(g3), IntToPtrCastExpr&lt;ptr&gt;(g7)) &lt; 0</text>
</g>
<!-- Node0x17af0540 -->
<g id="node19" class="node"><title>Node0x17af0540</title>
<polygon fill="none" stroke="black" points="509.5,-609.5 509.5,-662.5 1027.5,-662.5 1027.5,-609.5 509.5,-609.5"/>
<text text-anchor="start" x="517.5" y="-647.3" font-family="Times,serif" font-size="14.00">v7 = IntToPtrCastExpr&lt;ptr&gt;(g3)</text>
<text text-anchor="start" x="517.5" y="-632.3" font-family="Times,serif" font-size="14.00"> result2 = mbedtls_mpi_sub_mpi(v7, v7, IntToPtrCastExpr&lt;ptr&gt;(g7))</text>
<text text-anchor="start" x="517.5" y="-617.3" font-family="Times,serif" font-size="14.00"> g1 = result2</text>
</g>
<!-- Node0x17aeec40&#45;&gt;Node0x17af0540 -->
<g id="edge20" class="edge"><title>Node0x17aeec40&#45;&gt;Node0x17af0540</title>
<path fill="none" stroke="black" d="M768.5,-714.087C768.5,-702.425 768.5,-686.951 768.5,-672.929"/>
<polygon fill="black" stroke="black" points="772,-672.577 768.5,-662.577 765,-672.577 772,-672.577"/>
<text text-anchor="middle" x="1084" y="-684.8" font-family="Times,serif" font-size="14.00">mbedtls_mpi_cmp_mpi(IntToPtrCastExpr&lt;ptr&gt;(g3), IntToPtrCastExpr&lt;ptr&gt;(g7)) &gt;= 0</text>
</g>
<!-- Node0x17aeeb20 -->
<g id="node20" class="node"><title>Node0x17aeeb20</title>
<polygon fill="none" stroke="black" points="1289.5,-290.5 1289.5,-388.5 1411.5,-388.5 1411.5,-290.5 1289.5,-290.5"/>
<text text-anchor="start" x="1297.5" y="-373.3" font-family="Times,serif" font-size="14.00">0x8058c18:</text>
<text text-anchor="start" x="1297.5" y="-358.3" font-family="Times,serif" font-size="14.00"> g3 = v3</text>
<text text-anchor="start" x="1297.5" y="-343.3" font-family="Times,serif" font-size="14.00"> g7 = v2</text>
<text text-anchor="start" x="1297.5" y="-328.3" font-family="Times,serif" font-size="14.00"> g5 = v1</text>
<text text-anchor="start" x="1297.5" y="-313.3" font-family="Times,serif" font-size="14.00"> g2 = v5</text>
<text text-anchor="start" x="1297.5" y="-298.3" font-family="Times,serif" font-size="14.00"> return result3</text>
</g>
<!-- Node0x17aeef60&#45;&gt;Node0x17aeeb20 -->
<g id="edge21" class="edge"><title>Node0x17aeef60&#45;&gt;Node0x17aeeb20</title>
<path fill="none" stroke="black" d="M1528.93,-714.357C1517.29,-669.727 1484.02,-551.717 1436.5,-462 1424.7,-439.719 1409.4,-416.775 1394.99,-396.908"/>
<polygon fill="black" stroke="black" points="1397.62,-394.578 1388.88,-388.593 1391.98,-398.724 1397.62,-394.578"/>
</g>
<!-- Node0xdd951e0&#45;&gt;Node0x7fd0710 -->
<g id="edge22" class="edge"><title>Node0xdd951e0&#45;&gt;Node0x7fd0710</title>
<path fill="none" stroke="black" d="M160.5,-462.14C160.5,-426.417 160.5,-380.969 160.5,-340.5 160.5,-340.5 160.5,-340.5 160.5,-145.5 160.5,-119.765 160.5,-90.414 160.5,-69.6451"/>
<polygon fill="black" stroke="black" points="164,-69.6312 160.5,-59.6313 157,-69.6313 164,-69.6312"/>
</g>
<!-- Node0x17af05a0 -->
<g id="node21" class="node"><title>Node0x17af05a0</title>
<polygon fill="none" stroke="black" points="702,-407.5 702,-443.5 835,-443.5 835,-407.5 702,-407.5"/>
<text text-anchor="start" x="710" y="-421.8" font-family="Times,serif" font-size="14.00">if (result2 != 0):</text>
</g>
<!-- Node0x17af0540&#45;&gt;Node0x17af05a0 -->
<g id="edge23" class="edge"><title>Node0x17af0540&#45;&gt;Node0x17af05a0</title>
<path fill="none" stroke="black" d="M768.5,-609.434C768.5,-569.889 768.5,-494.232 768.5,-453.712"/>
<polygon fill="black" stroke="black" points="772,-453.507 768.5,-443.507 765,-453.507 772,-453.507"/>
</g>
<!-- Node0x17aeeb20&#45;&gt;Node0x7fd0710 -->
<g id="edge24" class="edge"><title>Node0x17aeeb20&#45;&gt;Node0x7fd0710</title>
<path fill="none" stroke="black" d="M1289.44,-323.312C1076.11,-270.248 367.758,-94.0534 197.523,-51.7091"/>
<polygon fill="black" stroke="black" points="198.322,-48.3012 187.773,-49.2838 196.632,-55.0942 198.322,-48.3012"/>
</g>
<!-- Node0x17af05a0&#45;&gt;Node0x17aef870 -->
<g id="edge26" class="edge"><title>Node0x17af05a0&#45;&gt;Node0x17aef870</title>
<path fill="none" stroke="black" d="M835.251,-430.248C969.596,-441.817 1270.83,-488.995 1400.5,-681 1455.81,-762.897 1075.66,-804.011 925.592,-816.912"/>
<polygon fill="black" stroke="black" points="924.863,-813.461 915.194,-817.793 925.454,-820.436 924.863,-813.461"/>
<text text-anchor="middle" x="1452.5" y="-684.8" font-family="Times,serif" font-size="14.00">result2 == 0</text>
</g>
<!-- Node0x17af0940 -->
<g id="node22" class="node"><title>Node0x17af0940</title>
<polygon fill="none" stroke="black" points="312,-233.5 312,-271.5 479,-271.5 479,-233.5 312,-233.5"/>
<text text-anchor="start" x="320" y="-256.3" font-family="Times,serif" font-size="14.00">break &#45;&gt; 0x8058c18:</text>
<text text-anchor="start" x="320" y="-241.3" font-family="Times,serif" font-size="14.00"> break</text>
</g>
<!-- Node0x17af05a0&#45;&gt;Node0x17af0940 -->
<g id="edge25" class="edge"><title>Node0x17af05a0&#45;&gt;Node0x17af0940</title>
<path fill="none" stroke="black" d="M731.372,-407.479C663.603,-376.41 519.895,-310.528 444.309,-275.876"/>
<polygon fill="black" stroke="black" points="445.544,-272.592 434.996,-271.607 442.627,-278.956 445.544,-272.592"/>
<text text-anchor="middle" x="732.5" y="-335.8" font-family="Times,serif" font-size="14.00">result2 != 0</text>
</g>
<!-- Node0x17aeeba0 -->
<g id="node23" class="node"><title>Node0x17aeeba0</title>
<polygon fill="none" stroke="black" points="225.5,-97.5 225.5,-195.5 347.5,-195.5 347.5,-97.5 225.5,-97.5"/>
<text text-anchor="start" x="233.5" y="-180.3" font-family="Times,serif" font-size="14.00">0x8058c18:</text>
<text text-anchor="start" x="233.5" y="-165.3" font-family="Times,serif" font-size="14.00"> g3 = v3</text>
<text text-anchor="start" x="233.5" y="-150.3" font-family="Times,serif" font-size="14.00"> g7 = v2</text>
<text text-anchor="start" x="233.5" y="-135.3" font-family="Times,serif" font-size="14.00"> g5 = v1</text>
<text text-anchor="start" x="233.5" y="-120.3" font-family="Times,serif" font-size="14.00"> g2 = v5</text>
<text text-anchor="start" x="233.5" y="-105.3" font-family="Times,serif" font-size="14.00"> return result2</text>
</g>
<!-- Node0x17af0940&#45;&gt;Node0x17aeeba0 -->
<g id="edge27" class="edge"><title>Node0x17af0940&#45;&gt;Node0x17aeeba0</title>
<path fill="none" stroke="black" d="M376.514,-233.385C367.422,-224.71 355.994,-213.806 344.361,-202.707"/>
<polygon fill="black" stroke="black" points="346.762,-200.16 337.111,-195.789 341.93,-205.225 346.762,-200.16"/>
</g>
<!-- Node0x17aeeba0&#45;&gt;Node0x7fd0710 -->
<g id="edge28" class="edge"><title>Node0x17aeeba0&#45;&gt;Node0x7fd0710</title>
<path fill="none" stroke="black" d="M227.558,-97.3173C214.261,-86.4475 200.722,-75.3797 189.323,-66.0618"/>
<polygon fill="black" stroke="black" points="191.393,-63.2333 181.436,-59.614 186.963,-68.6529 191.393,-63.2333"/>
</g>
</g>
</svg>
