<?xml version="1.0" encoding="UTF-8" standalone="no"?>
<!DOCTYPE svg PUBLIC "-//W3C//DTD SVG 1.1//EN"
 "http://www.w3.org/Graphics/SVG/1.1/DTD/svg11.dtd">
<!-- Generated by graphviz version 2.38.0 (20140413.2041)
 -->
<!-- Title: Control&#45;flow graph for function &#39;mbedtls_md_hmac_finish(*a1, a2)&#39;. Pages: 1 -->
<svg width="890pt" height="1631pt"
 viewBox="0.00 0.00 889.50 1631.00" xmlns="http://www.w3.org/2000/svg" xmlns:xlink="http://www.w3.org/1999/xlink">
<g id="graph0" class="graph" transform="scale(1 1) rotate(0) translate(4 1627)">
<title>Control&#45;flow graph for function &#39;mbedtls_md_hmac_finish(*a1, a2)&#39;.</title>
<polygon fill="white" stroke="none" points="-4,4 -4,-1627 885.5,-1627 885.5,4 -4,4"/>
<text text-anchor="middle" x="440.75" y="-7.8" font-family="Times,serif" font-size="14.00">Control&#45;flow graph for function &#39;mbedtls_md_hmac_finish(*a1, a2)&#39;.</text>
<!-- Node0x1b6a48d0 -->
<g id="node1" class="node"><title>Node0x1b6a48d0</title>
<polygon fill="none" stroke="black" points="106.5,-1569.5 106.5,-1622.5 165.5,-1622.5 165.5,-1569.5 106.5,-1569.5"/>
<text text-anchor="start" x="114.5" y="-1607.3" font-family="Times,serif" font-size="14.00">entry:</text>
<text text-anchor="start" x="114.5" y="-1592.3" font-family="Times,serif" font-size="14.00"> a1</text>
<text text-anchor="start" x="114.5" y="-1577.3" font-family="Times,serif" font-size="14.00"> a2</text>
</g>
<!-- Node0x9028170 -->
<g id="node2" class="node"><title>Node0x9028170</title>
<polygon fill="none" stroke="black" points="0,-1418.5 0,-1531.5 272,-1531.5 272,-1418.5 0,-1418.5"/>
<text text-anchor="start" x="8" y="-1516.3" font-family="Times,serif" font-size="14.00">v1 = PtrToIntCastExpr&lt;int32&gt;(a1)</text>
<text text-anchor="start" x="8" y="-1501.3" font-family="Times,serif" font-size="14.00"> v2</text>
<text text-anchor="start" x="8" y="-1486.3" font-family="Times,serif" font-size="14.00"> g2 = &amp;(v2)</text>
<text text-anchor="start" x="8" y="-1471.3" font-family="Times,serif" font-size="14.00"> v3 = g3</text>
<text text-anchor="start" x="8" y="-1456.3" font-family="Times,serif" font-size="14.00"> g3 = v1</text>
<text text-anchor="start" x="8" y="-1441.3" font-family="Times,serif" font-size="14.00"> v4 = g7</text>
<text text-anchor="start" x="8" y="-1426.3" font-family="Times,serif" font-size="14.00"> v5 = g5</text>
</g>
<!-- Node0x1b6a48d0&#45;&gt;Node0x9028170 -->
<g id="edge1" class="edge"><title>Node0x1b6a48d0&#45;&gt;Node0x9028170</title>
<path fill="none" stroke="black" d="M136,-1569.47C136,-1561.26 136,-1551.75 136,-1542.01"/>
<polygon fill="black" stroke="black" points="139.5,-1541.81 136,-1531.81 132.5,-1541.81 139.5,-1541.81"/>
</g>
<!-- Node0x90282d0 -->
<g id="node3" class="node"><title>Node0x90282d0</title>
<polygon fill="none" stroke="black" points="66,-1344.5 66,-1380.5 206,-1380.5 206,-1344.5 66,-1344.5"/>
<text text-anchor="start" x="74" y="-1358.8" font-family="Times,serif" font-size="14.00">if (a1 == NULL):</text>
</g>
<!-- Node0x9028170&#45;&gt;Node0x90282d0 -->
<g id="edge2" class="edge"><title>Node0x9028170&#45;&gt;Node0x90282d0</title>
<path fill="none" stroke="black" d="M136,-1418.43C136,-1408.86 136,-1399.31 136,-1390.91"/>
<polygon fill="black" stroke="black" points="139.5,-1390.64 136,-1380.64 132.5,-1390.64 139.5,-1390.64"/>
</g>
<!-- Node0xa5819c0 -->
<g id="node4" class="node"><title>Node0xa5819c0</title>
<polygon fill="none" stroke="black" points="17.5,-1152.5 17.5,-1235.5 138.5,-1235.5 138.5,-1152.5 17.5,-1152.5"/>
<text text-anchor="start" x="25.5" y="-1220.3" font-family="Times,serif" font-size="14.00">0x806236b:</text>
<text text-anchor="start" x="25.5" y="-1205.3" font-family="Times,serif" font-size="14.00"> g3 = v3</text>
<text text-anchor="start" x="25.5" y="-1190.3" font-family="Times,serif" font-size="14.00"> g7 = v4</text>
<text text-anchor="start" x="25.5" y="-1175.3" font-family="Times,serif" font-size="14.00"> g5 = v5</text>
<text text-anchor="start" x="25.5" y="-1160.3" font-family="Times,serif" font-size="14.00"> return &#45;20736</text>
</g>
<!-- Node0x90282d0&#45;&gt;Node0xa5819c0 -->
<g id="edge3" class="edge"><title>Node0x90282d0&#45;&gt;Node0xa5819c0</title>
<path fill="none" stroke="black" d="M93.2681,-1344.49C85.9602,-1339.63 79.3368,-1333.54 75,-1326 61.2342,-1302.06 61.1975,-1271.37 64.9651,-1245.71"/>
<polygon fill="black" stroke="black" points="68.4268,-1246.23 66.6434,-1235.79 61.5248,-1245.07 68.4268,-1246.23"/>
<text text-anchor="middle" x="122" y="-1314.8" font-family="Times,serif" font-size="14.00">a1 == NULL</text>
</g>
<!-- Node0x90284a0 -->
<g id="node5" class="node"><title>Node0x90284a0</title>
<polygon fill="none" stroke="black" points="150,-1254.5 150,-1292.5 240,-1292.5 240,-1254.5 150,-1254.5"/>
<text text-anchor="start" x="158" y="-1277.3" font-family="Times,serif" font-size="14.00">v6 = *(a1)</text>
<text text-anchor="start" x="158" y="-1262.3" font-family="Times,serif" font-size="14.00"> g1 = v6</text>
</g>
<!-- Node0x90282d0&#45;&gt;Node0x90284a0 -->
<g id="edge4" class="edge"><title>Node0x90282d0&#45;&gt;Node0x90284a0</title>
<path fill="none" stroke="black" d="M156.749,-1344.39C162.518,-1338.93 168.444,-1332.59 173,-1326 178.031,-1318.72 182.266,-1310.11 185.634,-1302.03"/>
<polygon fill="black" stroke="black" points="188.951,-1303.16 189.308,-1292.57 182.425,-1300.63 188.951,-1303.16"/>
<text text-anchor="middle" x="226" y="-1314.8" font-family="Times,serif" font-size="14.00">a1 != NULL</text>
</g>
<!-- Node0xc5b0ec0 -->
<g id="node6" class="node"><title>Node0xc5b0ec0</title>
<polygon fill="none" stroke="black" points="89,-23.5 89,-59.5 143,-59.5 143,-23.5 89,-23.5"/>
<text text-anchor="start" x="97" y="-37.8" font-family="Times,serif" font-size="14.00">exit:</text>
</g>
<!-- Node0xa5819c0&#45;&gt;Node0xc5b0ec0 -->
<g id="edge5" class="edge"><title>Node0xa5819c0&#45;&gt;Node0xc5b0ec0</title>
<path fill="none" stroke="black" d="M78,-1152.28C78,-1128.93 78,-1099.07 78,-1072.5 78,-1072.5 78,-1072.5 78,-138 78,-113.118 89.2742,-87.008 99.5407,-68.3902"/>
<polygon fill="black" stroke="black" points="102.626,-70.0469 104.599,-59.6374 96.5649,-66.5445 102.626,-70.0469"/>
</g>
<!-- Node0x90280f0 -->
<g id="node7" class="node"><title>Node0x90280f0</title>
<polygon fill="none" stroke="black" points="142.5,-1097.5 142.5,-1133.5 247.5,-1133.5 247.5,-1097.5 142.5,-1097.5"/>
<text text-anchor="start" x="150.5" y="-1111.8" font-family="Times,serif" font-size="14.00">if (v6 == 0):</text>
</g>
<!-- Node0x90284a0&#45;&gt;Node0x90280f0 -->
<g id="edge6" class="edge"><title>Node0x90284a0&#45;&gt;Node0x90280f0</title>
<path fill="none" stroke="black" d="M195,-1254.3C195,-1227.12 195,-1175.74 195,-1143.98"/>
<polygon fill="black" stroke="black" points="198.5,-1143.63 195,-1133.63 191.5,-1143.63 198.5,-1143.63"/>
</g>
<!-- Node0x9028cf0 -->
<g id="node8" class="node"><title>Node0x9028cf0</title>
<polygon fill="none" stroke="black" points="103.5,-890.5 103.5,-973.5 224.5,-973.5 224.5,-890.5 103.5,-890.5"/>
<text text-anchor="start" x="111.5" y="-958.3" font-family="Times,serif" font-size="14.00">0x806236b:</text>
<text text-anchor="start" x="111.5" y="-943.3" font-family="Times,serif" font-size="14.00"> g3 = v3</text>
<text text-anchor="start" x="111.5" y="-928.3" font-family="Times,serif" font-size="14.00"> g7 = v4</text>
<text text-anchor="start" x="111.5" y="-913.3" font-family="Times,serif" font-size="14.00"> g5 = v5</text>
<text text-anchor="start" x="111.5" y="-898.3" font-family="Times,serif" font-size="14.00"> return &#45;20736</text>
</g>
<!-- Node0x90280f0&#45;&gt;Node0x9028cf0 -->
<g id="edge7" class="edge"><title>Node0x90280f0&#45;&gt;Node0x9028cf0</title>
<path fill="none" stroke="black" d="M192.084,-1097.42C187.684,-1071.66 179.172,-1021.83 172.667,-983.746"/>
<polygon fill="black" stroke="black" points="176.11,-983.111 170.976,-973.843 169.21,-984.29 176.11,-983.111"/>
<text text-anchor="middle" x="219" y="-1067.8" font-family="Times,serif" font-size="14.00">v6 == 0</text>
</g>
<!-- Node0x90288a0 -->
<g id="node9" class="node"><title>Node0x90288a0</title>
<polygon fill="none" stroke="black" points="230,-992.5 230,-1045.5 544,-1045.5 544,-992.5 230,-992.5"/>
<text text-anchor="start" x="238" y="-1030.3" font-family="Times,serif" font-size="14.00">v7 = *(IntToPtrCastExpr&lt;ptr&gt;((v1 + 8)))</text>
<text text-anchor="start" x="238" y="-1015.3" font-family="Times,serif" font-size="14.00"> g6 = v7</text>
<text text-anchor="start" x="238" y="-1000.3" font-family="Times,serif" font-size="14.00"> result</text>
</g>
<!-- Node0x90280f0&#45;&gt;Node0x90288a0 -->
<g id="edge8" class="edge"><title>Node0x90280f0&#45;&gt;Node0x90288a0</title>
<path fill="none" stroke="black" d="M229.77,-1097.39C256.523,-1084.22 294.163,-1065.69 325.909,-1050.07"/>
<polygon fill="black" stroke="black" points="327.695,-1053.09 335.121,-1045.53 324.603,-1046.81 327.695,-1053.09"/>
<text text-anchor="middle" x="323" y="-1067.8" font-family="Times,serif" font-size="14.00">v6 != 0</text>
</g>
<!-- Node0x9028cf0&#45;&gt;Node0xc5b0ec0 -->
<g id="edge9" class="edge"><title>Node0x9028cf0&#45;&gt;Node0xc5b0ec0</title>
<path fill="none" stroke="black" d="M139.297,-890.304C127.536,-867.167 116,-837.166 116,-808.5 116,-808.5 116,-808.5 116,-138 116,-115.025 116,-88.94 116,-69.8443"/>
<polygon fill="black" stroke="black" points="119.5,-69.7523 116,-59.7523 112.5,-69.7523 119.5,-69.7523"/>
</g>
<!-- Node0x9028900 -->
<g id="node10" class="node"><title>Node0x9028900</title>
<polygon fill="none" stroke="black" points="389.5,-833.5 389.5,-871.5 488.5,-871.5 488.5,-833.5 389.5,-833.5"/>
<text text-anchor="start" x="397.5" y="-856.3" font-family="Times,serif" font-size="14.00">if (v7 != 0):</text>
<text text-anchor="start" x="397.5" y="-841.3" font-family="Times,serif" font-size="14.00"> else:</text>
</g>
<!-- Node0x90288a0&#45;&gt;Node0x9028900 -->
<g id="edge10" class="edge"><title>Node0x90288a0&#45;&gt;Node0x9028900</title>
<path fill="none" stroke="black" d="M395.125,-992.297C404.62,-962.258 420.281,-912.717 430.098,-881.66"/>
<polygon fill="black" stroke="black" points="433.509,-882.481 433.186,-871.891 426.835,-880.371 433.509,-882.481"/>
</g>
<!-- Node0x9028580 -->
<g id="node11" class="node"><title>Node0x9028580</title>
<polygon fill="none" stroke="black" points="144,-218.5 144,-781.5 734,-781.5 734,-218.5 144,-218.5"/>
<text text-anchor="start" x="152" y="-766.3" font-family="Times,serif" font-size="14.00">0x8062385:</text>
<text text-anchor="start" x="152" y="-751.3" font-family="Times,serif" font-size="14.00"> v8</text>
<text text-anchor="start" x="152" y="-736.3" font-family="Times,serif" font-size="14.00"> v9 = &amp;(v8)</text>
<text text-anchor="start" x="152" y="-721.3" font-family="Times,serif" font-size="14.00"> g7 = v9</text>
<text text-anchor="start" x="152" y="-706.3" font-family="Times,serif" font-size="14.00"> v10 = (*(IntToPtrCastExpr&lt;ptr&gt;((v6 + 12))) + v7)</text>
<text text-anchor="start" x="152" y="-691.3" font-family="Times,serif" font-size="14.00"> g237 = (v10 == 0)</text>
<text text-anchor="start" x="152" y="-676.3" font-family="Times,serif" font-size="14.00"> g5 = v10</text>
<text text-anchor="start" x="152" y="-661.3" font-family="Times,serif" font-size="14.00"> v11 = *(IntToPtrCastExpr&lt;ptr&gt;((v1 + 4)))</text>
<text text-anchor="start" x="152" y="-646.3" font-family="Times,serif" font-size="14.00"> g6 = v11</text>
<text text-anchor="start" x="152" y="-631.3" font-family="Times,serif" font-size="14.00"> IntToPtrCastExpr&lt;ptr&gt;(*(IntToPtrCastExpr&lt;ptr&gt;((v6 + 24))))(v11, v9)</text>
<text text-anchor="start" x="152" y="-616.3" font-family="Times,serif" font-size="14.00"> v12 = g3</text>
<text text-anchor="start" x="152" y="-601.3" font-family="Times,serif" font-size="14.00"> v13 = *(IntToPtrCastExpr&lt;ptr&gt;(v12))</text>
<text text-anchor="start" x="152" y="-586.3" font-family="Times,serif" font-size="14.00"> g1 = v13</text>
<text text-anchor="start" x="152" y="-571.3" font-family="Times,serif" font-size="14.00"> v14 = *(IntToPtrCastExpr&lt;ptr&gt;((v12 + 4)))</text>
<text text-anchor="start" x="152" y="-556.3" font-family="Times,serif" font-size="14.00"> g6 = v14</text>
<text text-anchor="start" x="152" y="-541.3" font-family="Times,serif" font-size="14.00"> IntToPtrCastExpr&lt;ptr&gt;(*(IntToPtrCastExpr&lt;ptr&gt;((v13 + 16))))(v14)</text>
<text text-anchor="start" x="152" y="-526.3" font-family="Times,serif" font-size="14.00"> v15 = g3</text>
<text text-anchor="start" x="152" y="-511.3" font-family="Times,serif" font-size="14.00"> v16 = *(IntToPtrCastExpr&lt;ptr&gt;(v15))</text>
<text text-anchor="start" x="152" y="-496.3" font-family="Times,serif" font-size="14.00"> g1 = v16</text>
<text text-anchor="start" x="152" y="-481.3" font-family="Times,serif" font-size="14.00"> v17 = *(IntToPtrCastExpr&lt;ptr&gt;((v15 + 4)))</text>
<text text-anchor="start" x="152" y="-466.3" font-family="Times,serif" font-size="14.00"> g6 = v17</text>
<text text-anchor="start" x="152" y="-451.3" font-family="Times,serif" font-size="14.00"> v18 = *(IntToPtrCastExpr&lt;ptr&gt;((v16 + 20)))</text>
<text text-anchor="start" x="152" y="-436.3" font-family="Times,serif" font-size="14.00"> IntToPtrCastExpr&lt;ptr&gt;(v18)(v17, v10, *(IntToPtrCastExpr&lt;ptr&gt;((v16 + 12))))</text>
<text text-anchor="start" x="152" y="-421.3" font-family="Times,serif" font-size="14.00"> v19 = g3</text>
<text text-anchor="start" x="152" y="-406.3" font-family="Times,serif" font-size="14.00"> v20 = *(IntToPtrCastExpr&lt;ptr&gt;(v19))</text>
<text text-anchor="start" x="152" y="-391.3" font-family="Times,serif" font-size="14.00"> g1 = v20</text>
<text text-anchor="start" x="152" y="-376.3" font-family="Times,serif" font-size="14.00"> v21 = *(IntToPtrCastExpr&lt;ptr&gt;((v19 + 4)))</text>
<text text-anchor="start" x="152" y="-361.3" font-family="Times,serif" font-size="14.00"> g6 = v21</text>
<text text-anchor="start" x="152" y="-346.3" font-family="Times,serif" font-size="14.00"> v22 = *(IntToPtrCastExpr&lt;ptr&gt;((v20 + 20)))</text>
<text text-anchor="start" x="152" y="-331.3" font-family="Times,serif" font-size="14.00"> IntToPtrCastExpr&lt;ptr&gt;(v22)(v21, g7, *(IntToPtrCastExpr&lt;ptr&gt;((v20 + 8))))</text>
<text text-anchor="start" x="152" y="-316.3" font-family="Times,serif" font-size="14.00"> v23 = g3</text>
<text text-anchor="start" x="152" y="-301.3" font-family="Times,serif" font-size="14.00"> v24 = *(IntToPtrCastExpr&lt;ptr&gt;(v23))</text>
<text text-anchor="start" x="152" y="-286.3" font-family="Times,serif" font-size="14.00"> g1 = v24</text>
<text text-anchor="start" x="152" y="-271.3" font-family="Times,serif" font-size="14.00"> v25 = *(IntToPtrCastExpr&lt;ptr&gt;((v23 + 4)))</text>
<text text-anchor="start" x="152" y="-256.3" font-family="Times,serif" font-size="14.00"> g6 = v25</text>
<text text-anchor="start" x="152" y="-241.3" font-family="Times,serif" font-size="14.00"> IntToPtrCastExpr&lt;ptr&gt;(*(IntToPtrCastExpr&lt;ptr&gt;((v24 + 24))))(v25, a2)</text>
<text text-anchor="start" x="152" y="-226.3" font-family="Times,serif" font-size="14.00"> result = 0</text>
</g>
<!-- Node0x9028900&#45;&gt;Node0x9028580 -->
<g id="edge11" class="edge"><title>Node0x9028900&#45;&gt;Node0x9028580</title>
<path fill="none" stroke="black" d="M439,-833.149C439,-822.787 439,-808.547 439,-791.755"/>
<polygon fill="black" stroke="black" points="442.5,-791.584 439,-781.584 435.5,-791.584 442.5,-791.584"/>
<text text-anchor="middle" x="466" y="-803.8" font-family="Times,serif" font-size="14.00">v7 != 0</text>
</g>
<!-- Node0x90291c0 -->
<g id="node12" class="node"><title>Node0x90291c0</title>
<polygon fill="none" stroke="black" points="752.5,-482 752.5,-518 881.5,-518 881.5,-482 752.5,-482"/>
<text text-anchor="start" x="760.5" y="-496.3" font-family="Times,serif" font-size="14.00">result = &#45;20736</text>
</g>
<!-- Node0x9028900&#45;&gt;Node0x90291c0 -->
<g id="edge12" class="edge"><title>Node0x9028900&#45;&gt;Node0x90291c0</title>
<path fill="none" stroke="black" d="M488.808,-846.356C565.436,-837.444 707.16,-816.686 743,-782 814.2,-713.094 819.706,-584.518 818.412,-528.391"/>
<polygon fill="black" stroke="black" points="821.903,-528.051 818.08,-518.17 814.906,-528.279 821.903,-528.051"/>
<text text-anchor="middle" x="741" y="-803.8" font-family="Times,serif" font-size="14.00">v7 == 0</text>
</g>
<!-- Node0x9028b80 -->
<g id="node13" class="node"><title>Node0x9028b80</title>
<polygon fill="none" stroke="black" points="382.5,-97.5 382.5,-180.5 495.5,-180.5 495.5,-97.5 382.5,-97.5"/>
<text text-anchor="start" x="390.5" y="-165.3" font-family="Times,serif" font-size="14.00">0x806236b:</text>
<text text-anchor="start" x="390.5" y="-150.3" font-family="Times,serif" font-size="14.00"> g3 = v3</text>
<text text-anchor="start" x="390.5" y="-135.3" font-family="Times,serif" font-size="14.00"> g7 = v4</text>
<text text-anchor="start" x="390.5" y="-120.3" font-family="Times,serif" font-size="14.00"> g5 = v5</text>
<text text-anchor="start" x="390.5" y="-105.3" font-family="Times,serif" font-size="14.00"> return result</text>
</g>
<!-- Node0x9028580&#45;&gt;Node0x9028b80 -->
<g id="edge13" class="edge"><title>Node0x9028580&#45;&gt;Node0x9028b80</title>
<path fill="none" stroke="black" d="M439,-218.34C439,-208.561 439,-199.375 439,-190.979"/>
<polygon fill="black" stroke="black" points="442.5,-190.781 439,-180.781 435.5,-190.781 442.5,-190.781"/>
</g>
<!-- Node0x90291c0&#45;&gt;Node0x9028b80 -->
<g id="edge14" class="edge"><title>Node0x90291c0&#45;&gt;Node0x9028b80</title>
<path fill="none" stroke="black" d="M817.983,-481.928C819.794,-433.252 817.97,-292.496 743,-218 709.894,-185.104 584.966,-161.306 505.931,-149.161"/>
<polygon fill="black" stroke="black" points="505.986,-145.629 495.575,-147.596 504.94,-152.551 505.986,-145.629"/>
</g>
<!-- Node0x9028b80&#45;&gt;Node0xc5b0ec0 -->
<g id="edge15" class="edge"><title>Node0x9028b80&#45;&gt;Node0xc5b0ec0</title>
<path fill="none" stroke="black" d="M382.368,-121.256C316.452,-101.767 209.473,-70.1367 153.245,-53.512"/>
<polygon fill="black" stroke="black" points="153.94,-50.0677 143.358,-50.5887 151.955,-56.7805 153.94,-50.0677"/>
</g>
</g>
</svg>
