<?xml version="1.0" encoding="UTF-8" standalone="no"?>
<!DOCTYPE svg PUBLIC "-//W3C//DTD SVG 1.1//EN"
 "http://www.w3.org/Graphics/SVG/1.1/DTD/svg11.dtd">
<!-- Generated by graphviz version 2.38.0 (20140413.2041)
 -->
<!-- Title: Control&#45;flow graph for function &#39;des3_set3key_enc_wrap(a1)&#39;. Pages: 1 -->
<svg width="466pt" height="278pt"
 viewBox="0.00 0.00 466.00 278.00" xmlns="http://www.w3.org/2000/svg" xmlns:xlink="http://www.w3.org/1999/xlink">
<g id="graph0" class="graph" transform="scale(1 1) rotate(0) translate(4 274)">
<title>Control&#45;flow graph for function &#39;des3_set3key_enc_wrap(a1)&#39;.</title>
<polygon fill="white" stroke="none" points="-4,4 -4,-274 462,-274 462,4 -4,4"/>
<text text-anchor="middle" x="229" y="-7.8" font-family="Times,serif" font-size="14.00">Control&#45;flow graph for function &#39;des3_set3key_enc_wrap(a1)&#39;.</text>
<!-- Node0x2918eda0 -->
<g id="node1" class="node"><title>Node0x2918eda0</title>
<polygon fill="none" stroke="black" points="199.5,-231.5 199.5,-269.5 258.5,-269.5 258.5,-231.5 199.5,-231.5"/>
<text text-anchor="start" x="207.5" y="-254.3" font-family="Times,serif" font-size="14.00">entry:</text>
<text text-anchor="start" x="207.5" y="-239.3" font-family="Times,serif" font-size="14.00"> a1</text>
</g>
<!-- Node0x20c3eb50 -->
<g id="node2" class="node"><title>Node0x20c3eb50</title>
<polygon fill="none" stroke="black" points="62,-96.5 62,-194.5 396,-194.5 396,-96.5 62,-96.5"/>
<text text-anchor="start" x="70" y="-179.3" font-family="Times,serif" font-size="14.00">0x806a500:</text>
<text text-anchor="start" x="70" y="-164.3" font-family="Times,serif" font-size="14.00"> v1</text>
<text text-anchor="start" x="70" y="-149.3" font-family="Times,serif" font-size="14.00"> v2</text>
<text text-anchor="start" x="70" y="-134.3" font-family="Times,serif" font-size="14.00"> result = mbedtls_des3_set3key_enc(v2, v1)</text>
<text text-anchor="start" x="70" y="-119.3" font-family="Times,serif" font-size="14.00"> g1 = result</text>
<text text-anchor="start" x="70" y="-104.3" font-family="Times,serif" font-size="14.00"> return result</text>
</g>
<!-- Node0x2918eda0&#45;&gt;Node0x20c3eb50 -->
<g id="edge1" class="edge"><title>Node0x2918eda0&#45;&gt;Node0x20c3eb50</title>
<path fill="none" stroke="black" d="M229,-231.086C229,-223.607 229,-214.513 229,-205.097"/>
<polygon fill="black" stroke="black" points="232.5,-204.814 229,-194.814 225.5,-204.815 232.5,-204.814"/>
</g>
<!-- Node0x26e26d40 -->
<g id="node3" class="node"><title>Node0x26e26d40</title>
<polygon fill="none" stroke="black" points="202,-23.5 202,-59.5 256,-59.5 256,-23.5 202,-23.5"/>
<text text-anchor="start" x="210" y="-37.8" font-family="Times,serif" font-size="14.00">exit:</text>
</g>
<!-- Node0x20c3eb50&#45;&gt;Node0x26e26d40 -->
<g id="edge2" class="edge"><title>Node0x20c3eb50&#45;&gt;Node0x26e26d40</title>
<path fill="none" stroke="black" d="M229,-96.4868C229,-87.2893 229,-77.9618 229,-69.7064"/>
<polygon fill="black" stroke="black" points="232.5,-69.5725 229,-59.5725 225.5,-69.5725 232.5,-69.5725"/>
</g>
</g>
</svg>
