<?xml version="1.0" encoding="UTF-8" standalone="no"?>
<!DOCTYPE svg PUBLIC "-//W3C//DTD SVG 1.1//EN"
 "http://www.w3.org/Graphics/SVG/1.1/DTD/svg11.dtd">
<!-- Generated by graphviz version 2.38.0 (20140413.2041)
 -->
<!-- Title: Control&#45;flow graph for function &#39;mbedtls_aes_crypt_cbc(a1, a2, a3, *a4, a5, a6)&#39;. Pages: 1 -->
<svg width="2013pt" height="2477pt"
 viewBox="0.00 0.00 2013.00 2477.00" xmlns="http://www.w3.org/2000/svg" xmlns:xlink="http://www.w3.org/1999/xlink">
<g id="graph0" class="graph" transform="scale(1 1) rotate(0) translate(4 2473)">
<title>Control&#45;flow graph for function &#39;mbedtls_aes_crypt_cbc(a1, a2, a3, *a4, a5, a6)&#39;.</title>
<polygon fill="white" stroke="none" points="-4,4 -4,-2473 2009,-2473 2009,4 -4,4"/>
<text text-anchor="middle" x="1002.5" y="-7.8" font-family="Times,serif" font-size="14.00">Control&#45;flow graph for function &#39;mbedtls_aes_crypt_cbc(a1, a2, a3, *a4, a5, a6)&#39;.</text>
<!-- Node0x29176b30 -->
<g id="node1" class="node"><title>Node0x29176b30</title>
<polygon fill="none" stroke="black" points="452.5,-2355.5 452.5,-2468.5 511.5,-2468.5 511.5,-2355.5 452.5,-2355.5"/>
<text text-anchor="start" x="460.5" y="-2453.3" font-family="Times,serif" font-size="14.00">entry:</text>
<text text-anchor="start" x="460.5" y="-2438.3" font-family="Times,serif" font-size="14.00"> a1</text>
<text text-anchor="start" x="460.5" y="-2423.3" font-family="Times,serif" font-size="14.00"> a2</text>
<text text-anchor="start" x="460.5" y="-2408.3" font-family="Times,serif" font-size="14.00"> a3</text>
<text text-anchor="start" x="460.5" y="-2393.3" font-family="Times,serif" font-size="14.00"> a4</text>
<text text-anchor="start" x="460.5" y="-2378.3" font-family="Times,serif" font-size="14.00"> a5</text>
<text text-anchor="start" x="460.5" y="-2363.3" font-family="Times,serif" font-size="14.00"> a6</text>
</g>
<!-- Node0x177c9af0 -->
<g id="node2" class="node"><title>Node0x177c9af0</title>
<polygon fill="none" stroke="black" points="343.5,-2234.5 343.5,-2317.5 620.5,-2317.5 620.5,-2234.5 343.5,-2234.5"/>
<text text-anchor="start" x="351.5" y="-2302.3" font-family="Times,serif" font-size="14.00">v1 = g5</text>
<text text-anchor="start" x="351.5" y="-2287.3" font-family="Times,serif" font-size="14.00"> v2 = g7</text>
<text text-anchor="start" x="351.5" y="-2272.3" font-family="Times,serif" font-size="14.00"> v3 = g3</text>
<text text-anchor="start" x="351.5" y="-2257.3" font-family="Times,serif" font-size="14.00"> g3 = PtrToIntCastExpr&lt;int32&gt;(a4)</text>
<text text-anchor="start" x="351.5" y="-2242.3" font-family="Times,serif" font-size="14.00"> v4 = a3</text>
</g>
<!-- Node0x29176b30&#45;&gt;Node0x177c9af0 -->
<g id="edge1" class="edge"><title>Node0x29176b30&#45;&gt;Node0x177c9af0</title>
<path fill="none" stroke="black" d="M482,-2355.34C482,-2346.14 482,-2336.65 482,-2327.59"/>
<polygon fill="black" stroke="black" points="485.5,-2327.58 482,-2317.58 478.5,-2327.58 485.5,-2327.58"/>
</g>
<!-- Node0x177c92a0 -->
<g id="node3" class="node"><title>Node0x177c92a0</title>
<polygon fill="none" stroke="black" points="425,-2160.5 425,-2196.5 539,-2196.5 539,-2160.5 425,-2160.5"/>
<text text-anchor="start" x="433" y="-2174.8" font-family="Times,serif" font-size="14.00">if (a3 == 15):</text>
</g>
<!-- Node0x177c9af0&#45;&gt;Node0x177c92a0 -->
<g id="edge2" class="edge"><title>Node0x177c9af0&#45;&gt;Node0x177c92a0</title>
<path fill="none" stroke="black" d="M482,-2234.5C482,-2225.21 482,-2215.54 482,-2206.95"/>
<polygon fill="black" stroke="black" points="485.5,-2206.75 482,-2196.75 478.5,-2206.75 485.5,-2206.75"/>
</g>
<!-- Node0x177c9e80 -->
<g id="node4" class="node"><title>Node0x177c9e80</title>
<polygon fill="none" stroke="black" points="529,-1935.5 529,-2108.5 629,-2108.5 629,-1935.5 529,-1935.5"/>
<text text-anchor="start" x="537" y="-2093.3" font-family="Times,serif" font-size="14.00">0x804a6eb:</text>
<text text-anchor="start" x="537" y="-2078.3" font-family="Times,serif" font-size="14.00"> v5</text>
<text text-anchor="start" x="537" y="-2063.3" font-family="Times,serif" font-size="14.00"> v6</text>
<text text-anchor="start" x="537" y="-2048.3" font-family="Times,serif" font-size="14.00"> v7</text>
<text text-anchor="start" x="537" y="-2033.3" font-family="Times,serif" font-size="14.00"> v8</text>
<text text-anchor="start" x="537" y="-2018.3" font-family="Times,serif" font-size="14.00"> v9</text>
<text text-anchor="start" x="537" y="-2003.3" font-family="Times,serif" font-size="14.00"> v10</text>
<text text-anchor="start" x="537" y="-1988.3" font-family="Times,serif" font-size="14.00"> v11</text>
<text text-anchor="start" x="537" y="-1973.3" font-family="Times,serif" font-size="14.00"> v12</text>
<text text-anchor="start" x="537" y="-1958.3" font-family="Times,serif" font-size="14.00"> v13</text>
<text text-anchor="start" x="537" y="-1943.3" font-family="Times,serif" font-size="14.00"> v14</text>
</g>
<!-- Node0x177c92a0&#45;&gt;Node0x177c9e80 -->
<g id="edge3" class="edge"><title>Node0x177c92a0&#45;&gt;Node0x177c9e80</title>
<path fill="none" stroke="black" d="M492.751,-2160.38C500.536,-2147.98 511.717,-2130.17 523.461,-2111.46"/>
<polygon fill="black" stroke="black" points="526.533,-2113.15 528.886,-2102.82 520.605,-2109.43 526.533,-2113.15"/>
<text text-anchor="middle" x="548.5" y="-2130.8" font-family="Times,serif" font-size="14.00">a3 == 15</text>
</g>
<!-- Node0x177c9d90 -->
<g id="node5" class="node"><title>Node0x177c9d90</title>
<polygon fill="none" stroke="black" points="292.5,-1833.5 292.5,-1916.5 393.5,-1916.5 393.5,-1833.5 292.5,-1833.5"/>
<text text-anchor="start" x="300.5" y="-1901.3" font-family="Times,serif" font-size="14.00">0x804a794:</text>
<text text-anchor="start" x="300.5" y="-1886.3" font-family="Times,serif" font-size="14.00"> g3 = v3</text>
<text text-anchor="start" x="300.5" y="-1871.3" font-family="Times,serif" font-size="14.00"> g7 = v2</text>
<text text-anchor="start" x="300.5" y="-1856.3" font-family="Times,serif" font-size="14.00"> g5 = v1</text>
<text text-anchor="start" x="300.5" y="-1841.3" font-family="Times,serif" font-size="14.00"> return &#45;34</text>
</g>
<!-- Node0x177c92a0&#45;&gt;Node0x177c9d90 -->
<g id="edge4" class="edge"><title>Node0x177c92a0&#45;&gt;Node0x177c9d90</title>
<path fill="none" stroke="black" d="M456.639,-2160.33C450.219,-2155.05 443.793,-2148.81 439,-2142 392.033,-2075.3 365.592,-1983.13 352.818,-1926.64"/>
<polygon fill="black" stroke="black" points="356.159,-1925.54 350.59,-1916.53 349.323,-1927.05 356.159,-1925.54"/>
<text text-anchor="middle" x="470.5" y="-2130.8" font-family="Times,serif" font-size="14.00">a3 != 15</text>
</g>
<!-- Node0x177c9b50 -->
<g id="node6" class="node"><title>Node0x177c9b50</title>
<polygon fill="none" stroke="black" points="714,-1778.5 714,-1814.5 832,-1814.5 832,-1778.5 714,-1778.5"/>
<text text-anchor="start" x="722" y="-1792.8" font-family="Times,serif" font-size="14.00">if (g190 != 0):</text>
</g>
<!-- Node0x177c9e80&#45;&gt;Node0x177c9b50 -->
<g id="edge5" class="edge"><title>Node0x177c9e80&#45;&gt;Node0x177c9b50</title>
<path fill="none" stroke="black" d="M629.212,-1963.15C668.748,-1917.6 721.921,-1856.35 751.268,-1822.54"/>
<polygon fill="black" stroke="black" points="754.281,-1824.41 758.192,-1814.56 748.994,-1819.82 754.281,-1824.41"/>
</g>
<!-- Node0x177c9a90 -->
<g id="node7" class="node"><title>Node0x177c9a90</title>
<polygon fill="none" stroke="black" points="166,-23.5 166,-59.5 220,-59.5 220,-23.5 166,-23.5"/>
<text text-anchor="start" x="174" y="-37.8" font-family="Times,serif" font-size="14.00">exit:</text>
</g>
<!-- Node0x177c9d90&#45;&gt;Node0x177c9a90 -->
<g id="edge6" class="edge"><title>Node0x177c9d90&#45;&gt;Node0x177c9a90</title>
<path fill="none" stroke="black" d="M292.389,-1866.99C196.978,-1852.36 0,-1814.72 0,-1753.5 0,-1753.5 0,-1753.5 0,-138 0,-69.3383 99.3393,-50.0421 155.479,-44.6194"/>
<polygon fill="black" stroke="black" points="156.094,-48.0795 165.757,-43.7343 155.494,-41.1053 156.094,-48.0795"/>
</g>
<!-- Node0x177ca6e0 -->
<g id="node8" class="node"><title>Node0x177ca6e0</title>
<polygon fill="none" stroke="black" points="271,-1688.5 271,-1726.5 1275,-1726.5 1275,-1688.5 271,-1688.5"/>
<text text-anchor="start" x="279" y="-1711.3" font-family="Times,serif" font-size="14.00">0x804a806:</text>
<text text-anchor="start" x="279" y="-1696.3" font-family="Times,serif" font-size="14.00"> if (mbedtls_padlock_xcryptcbc(IntToPtrCastExpr&lt;ptr&gt;(a1), a2, v4, a4, IntToPtrCastExpr&lt;ptr&gt;(a5), IntToPtrCastExpr&lt;ptr&gt;(a6)) == 0):</text>
</g>
<!-- Node0x177c9b50&#45;&gt;Node0x177ca6e0 -->
<g id="edge7" class="edge"><title>Node0x177c9b50&#45;&gt;Node0x177ca6e0</title>
<path fill="none" stroke="black" d="M773,-1778.31C773,-1766.51 773,-1750.57 773,-1736.9"/>
<polygon fill="black" stroke="black" points="776.5,-1736.55 773,-1726.55 769.5,-1736.55 776.5,-1736.55"/>
<text text-anchor="middle" x="809.5" y="-1748.8" font-family="Times,serif" font-size="14.00">g190 != 0</text>
</g>
<!-- Node0x8d36850 -->
<g id="node9" class="node"><title>Node0x8d36850</title>
<polygon fill="none" stroke="black" points="1712,-1591 1712,-1629 1816,-1629 1816,-1591 1712,-1591"/>
<text text-anchor="start" x="1720" y="-1613.8" font-family="Times,serif" font-size="14.00">0x804a6f8:</text>
<text text-anchor="start" x="1720" y="-1598.8" font-family="Times,serif" font-size="14.00"> if (a2 != 0):</text>
</g>
<!-- Node0x177c9b50&#45;&gt;Node0x8d36850 -->
<g id="edge8" class="edge"><title>Node0x177c9b50&#45;&gt;Node0x8d36850</title>
<path fill="none" stroke="black" d="M832.337,-1793.74C1061.16,-1786.34 1877.28,-1754.2 1953,-1670 1992.13,-1626.48 1895.61,-1614.75 1826.57,-1611.78"/>
<polygon fill="black" stroke="black" points="1826.3,-1608.26 1816.18,-1611.38 1826.04,-1615.26 1826.3,-1608.26"/>
<text text-anchor="middle" x="1962.5" y="-1703.8" font-family="Times,serif" font-size="14.00">g190 == 0</text>
</g>
<!-- Node0x177ca0c0 -->
<g id="node10" class="node"><title>Node0x177ca0c0</title>
<polygon fill="none" stroke="black" points="78.5,-1481.5 78.5,-1564.5 179.5,-1564.5 179.5,-1481.5 78.5,-1481.5"/>
<text text-anchor="start" x="86.5" y="-1549.3" font-family="Times,serif" font-size="14.00">0x804a794:</text>
<text text-anchor="start" x="86.5" y="-1534.3" font-family="Times,serif" font-size="14.00"> g3 = v3</text>
<text text-anchor="start" x="86.5" y="-1519.3" font-family="Times,serif" font-size="14.00"> g7 = v2</text>
<text text-anchor="start" x="86.5" y="-1504.3" font-family="Times,serif" font-size="14.00"> g5 = v1</text>
<text text-anchor="start" x="86.5" y="-1489.3" font-family="Times,serif" font-size="14.00"> return 0</text>
</g>
<!-- Node0x177ca6e0&#45;&gt;Node0x177ca0c0 -->
<g id="edge9" class="edge"><title>Node0x177ca6e0&#45;&gt;Node0x177ca0c0</title>
<path fill="none" stroke="black" d="M270.922,-1694.18C146.569,-1688.66 45.3364,-1680.86 35,-1670 5.92006,-1639.45 36.7075,-1598.68 70.6076,-1567.99"/>
<polygon fill="black" stroke="black" points="73.1248,-1570.43 78.3281,-1561.21 68.5051,-1565.18 73.1248,-1570.43"/>
<text text-anchor="middle" x="512" y="-1658.8" font-family="Times,serif" font-size="14.00">mbedtls_padlock_xcryptcbc(IntToPtrCastExpr&lt;ptr&gt;(a1), a2, v4, a4, IntToPtrCastExpr&lt;ptr&gt;(a5), IntToPtrCastExpr&lt;ptr&gt;(a6)) == 0</text>
</g>
<!-- Node0x8d3eb30 -->
<g id="node11" class="node"><title>Node0x8d3eb30</title>
<polygon fill="none" stroke="black" points="944,-1583.5 944,-1636.5 1054,-1636.5 1054,-1583.5 944,-1583.5"/>
<text text-anchor="start" x="952" y="-1621.3" font-family="Times,serif" font-size="14.00">0x804a839:</text>
<text text-anchor="start" x="952" y="-1606.3" font-family="Times,serif" font-size="14.00"> if (a2 == 0):</text>
<text text-anchor="start" x="952" y="-1591.3" font-family="Times,serif" font-size="14.00"> else:</text>
</g>
<!-- Node0x177ca6e0&#45;&gt;Node0x8d3eb30 -->
<g id="edge10" class="edge"><title>Node0x177ca6e0&#45;&gt;Node0x8d3eb30</title>
<path fill="none" stroke="black" d="M954.399,-1688.42C971.92,-1683.65 985.845,-1677.62 993,-1670 998.926,-1663.69 1001.61,-1655.16 1002.53,-1646.54"/>
<polygon fill="black" stroke="black" points="1006.03,-1646.65 1002.91,-1636.53 999.037,-1646.39 1006.03,-1646.65"/>
<text text-anchor="middle" x="1475" y="-1658.8" font-family="Times,serif" font-size="14.00">mbedtls_padlock_xcryptcbc(IntToPtrCastExpr&lt;ptr&gt;(a1), a2, v4, a4, IntToPtrCastExpr&lt;ptr&gt;(a5), IntToPtrCastExpr&lt;ptr&gt;(a6)) != 0</text>
</g>
<!-- Node0x177cb2b0 -->
<g id="node12" class="node"><title>Node0x177cb2b0</title>
<polygon fill="none" stroke="black" points="1362,-1409.5 1362,-1462.5 1462,-1462.5 1462,-1409.5 1362,-1409.5"/>
<text text-anchor="start" x="1370" y="-1447.3" font-family="Times,serif" font-size="14.00">0x804a7a8:</text>
<text text-anchor="start" x="1370" y="-1432.3" font-family="Times,serif" font-size="14.00"> g5 = 0</text>
<text text-anchor="start" x="1370" y="-1417.3" font-family="Times,serif" font-size="14.00"> v10 = 0</text>
</g>
<!-- Node0x8d36850&#45;&gt;Node0x177cb2b0 -->
<g id="edge11" class="edge"><title>Node0x8d36850&#45;&gt;Node0x177cb2b0</title>
<path fill="none" stroke="black" d="M1727,-1590.92C1666.06,-1561.14 1544.08,-1501.54 1471.09,-1465.87"/>
<polygon fill="black" stroke="black" points="1472.52,-1462.68 1462,-1461.43 1469.45,-1468.97 1472.52,-1462.68"/>
<text text-anchor="middle" x="1697" y="-1519.3" font-family="Times,serif" font-size="14.00">a2 != 0</text>
</g>
<!-- Node0x177ca4d0 -->
<g id="node13" class="node"><title>Node0x177ca4d0</title>
<polygon fill="none" stroke="black" points="1713.5,-1409.5 1713.5,-1462.5 1814.5,-1462.5 1814.5,-1409.5 1713.5,-1409.5"/>
<text text-anchor="start" x="1721.5" y="-1447.3" font-family="Times,serif" font-size="14.00">0x804a70e:</text>
<text text-anchor="start" x="1721.5" y="-1432.3" font-family="Times,serif" font-size="14.00"> g5 = &amp;(v7)</text>
<text text-anchor="start" x="1721.5" y="-1417.3" font-family="Times,serif" font-size="14.00"> v14 = 0</text>
</g>
<!-- Node0x8d36850&#45;&gt;Node0x177ca4d0 -->
<g id="edge12" class="edge"><title>Node0x8d36850&#45;&gt;Node0x177ca4d0</title>
<path fill="none" stroke="black" d="M1764,-1590.92C1764,-1562.97 1764,-1508.75 1764,-1472.71"/>
<polygon fill="black" stroke="black" points="1767.5,-1472.61 1764,-1462.61 1760.5,-1472.61 1767.5,-1472.61"/>
<text text-anchor="middle" x="1794" y="-1519.3" font-family="Times,serif" font-size="14.00">a2 == 0</text>
</g>
<!-- Node0x177ca0c0&#45;&gt;Node0x177c9a90 -->
<g id="edge13" class="edge"><title>Node0x177ca0c0&#45;&gt;Node0x177c9a90</title>
<path fill="none" stroke="black" d="M144.25,-1481.32C152.492,-1455.77 161,-1421.9 161,-1391 161,-1391 161,-1391 161,-138 161,-113.58 170.523,-87.3824 179.18,-68.6143"/>
<polygon fill="black" stroke="black" points="182.372,-70.0524 183.572,-59.5257 176.069,-67.0063 182.372,-70.0524"/>
</g>
<!-- Node0x177ca120 -->
<g id="node14" class="node"><title>Node0x177ca120</title>
<polygon fill="none" stroke="black" points="948.5,-1409.5 948.5,-1462.5 1049.5,-1462.5 1049.5,-1409.5 948.5,-1409.5"/>
<text text-anchor="start" x="956.5" y="-1447.3" font-family="Times,serif" font-size="14.00">0x804a70e:</text>
<text text-anchor="start" x="956.5" y="-1432.3" font-family="Times,serif" font-size="14.00"> g5 = &amp;(v7)</text>
<text text-anchor="start" x="956.5" y="-1417.3" font-family="Times,serif" font-size="14.00"> v14 = 0</text>
</g>
<!-- Node0x8d3eb30&#45;&gt;Node0x177ca120 -->
<g id="edge14" class="edge"><title>Node0x8d3eb30&#45;&gt;Node0x177ca120</title>
<path fill="none" stroke="black" d="M999,-1583.25C999,-1553.91 999,-1505.76 999,-1472.78"/>
<polygon fill="black" stroke="black" points="1002.5,-1472.64 999,-1462.64 995.5,-1472.64 1002.5,-1472.64"/>
<text text-anchor="middle" x="1029" y="-1519.3" font-family="Times,serif" font-size="14.00">a2 == 0</text>
</g>
<!-- Node0x177c78a0 -->
<g id="node15" class="node"><title>Node0x177c78a0</title>
<polygon fill="none" stroke="black" points="654,-1409.5 654,-1462.5 754,-1462.5 754,-1409.5 654,-1409.5"/>
<text text-anchor="start" x="662" y="-1447.3" font-family="Times,serif" font-size="14.00">0x804a7a8:</text>
<text text-anchor="start" x="662" y="-1432.3" font-family="Times,serif" font-size="14.00"> g5 = 0</text>
<text text-anchor="start" x="662" y="-1417.3" font-family="Times,serif" font-size="14.00"> v10 = 0</text>
</g>
<!-- Node0x8d3eb30&#45;&gt;Node0x177c78a0 -->
<g id="edge15" class="edge"><title>Node0x8d3eb30&#45;&gt;Node0x177c78a0</title>
<path fill="none" stroke="black" d="M955.154,-1583.44C902.288,-1552.61 813.499,-1500.84 756.886,-1467.84"/>
<polygon fill="black" stroke="black" points="758.488,-1464.72 748.087,-1462.7 754.963,-1470.77 758.488,-1464.72"/>
<text text-anchor="middle" x="947" y="-1519.3" font-family="Times,serif" font-size="14.00">a2 != 0</text>
</g>
<!-- Node0x177caea0 -->
<g id="node16" class="node"><title>Node0x177caea0</title>
<polygon fill="none" stroke="black" points="819.5,-1334.5 819.5,-1370.5 916.5,-1370.5 916.5,-1334.5 819.5,-1334.5"/>
<text text-anchor="start" x="827.5" y="-1348.8" font-family="Times,serif" font-size="14.00">while True:</text>
</g>
<!-- Node0x177cb2b0&#45;&gt;Node0x177caea0 -->
<g id="edge16" class="edge"><title>Node0x177cb2b0&#45;&gt;Node0x177caea0</title>
<path fill="none" stroke="black" d="M1361.85,-1430.21C1275.43,-1421.53 1093.09,-1401.34 941,-1372 936.274,-1371.09 931.398,-1370.06 926.512,-1368.96"/>
<polygon fill="black" stroke="black" points="927.05,-1365.49 916.516,-1366.62 925.459,-1372.31 927.05,-1365.49"/>
</g>
<!-- Node0xc89fdf0 -->
<g id="node17" class="node"><title>Node0xc89fdf0</title>
<polygon fill="none" stroke="black" points="1715.5,-1334.5 1715.5,-1370.5 1812.5,-1370.5 1812.5,-1334.5 1715.5,-1334.5"/>
<text text-anchor="start" x="1723.5" y="-1348.8" font-family="Times,serif" font-size="14.00">while True:</text>
</g>
<!-- Node0x177ca4d0&#45;&gt;Node0xc89fdf0 -->
<g id="edge17" class="edge"><title>Node0x177ca4d0&#45;&gt;Node0xc89fdf0</title>
<path fill="none" stroke="black" d="M1764,-1409.21C1764,-1400.16 1764,-1389.97 1764,-1380.8"/>
<polygon fill="black" stroke="black" points="1767.5,-1380.63 1764,-1370.63 1760.5,-1380.63 1767.5,-1380.63"/>
</g>
<!-- Node0x177ca180 -->
<g id="node18" class="node"><title>Node0x177ca180</title>
<polygon fill="none" stroke="black" points="950.5,-1334.5 950.5,-1370.5 1047.5,-1370.5 1047.5,-1334.5 950.5,-1334.5"/>
<text text-anchor="start" x="958.5" y="-1348.8" font-family="Times,serif" font-size="14.00">while True:</text>
</g>
<!-- Node0x177ca120&#45;&gt;Node0x177ca180 -->
<g id="edge18" class="edge"><title>Node0x177ca120&#45;&gt;Node0x177ca180</title>
<path fill="none" stroke="black" d="M999,-1409.21C999,-1400.16 999,-1389.97 999,-1380.8"/>
<polygon fill="black" stroke="black" points="1002.5,-1380.63 999,-1370.63 995.5,-1380.63 1002.5,-1380.63"/>
</g>
<!-- Node0x177c7900 -->
<g id="node19" class="node"><title>Node0x177c7900</title>
<polygon fill="none" stroke="black" points="532.5,-1333.5 532.5,-1371.5 633.5,-1371.5 633.5,-1333.5 532.5,-1333.5"/>
<text text-anchor="start" x="540.5" y="-1356.3" font-family="Times,serif" font-size="14.00">0x804a7a8:</text>
<text text-anchor="start" x="540.5" y="-1341.3" font-family="Times,serif" font-size="14.00"> while True:</text>
</g>
<!-- Node0x177c78a0&#45;&gt;Node0x177c7900 -->
<g id="edge19" class="edge"><title>Node0x177c78a0&#45;&gt;Node0x177c7900</title>
<path fill="none" stroke="black" d="M666.047,-1409.44C650.867,-1399.21 633.478,-1387.5 618.548,-1377.44"/>
<polygon fill="black" stroke="black" points="620.325,-1374.42 610.076,-1371.74 616.415,-1380.23 620.325,-1374.42"/>
</g>
<!-- Node0x177c7960 -->
<g id="node20" class="node"><title>Node0x177c7960</title>
<polygon fill="none" stroke="black" points="702,-1161 702,-1259 836,-1259 836,-1161 702,-1161"/>
<text text-anchor="start" x="710" y="-1243.8" font-family="Times,serif" font-size="14.00">0x804a7a8:</text>
<text text-anchor="start" x="710" y="-1228.8" font-family="Times,serif" font-size="14.00"> v6 = 0</text>
<text text-anchor="start" x="710" y="-1213.8" font-family="Times,serif" font-size="14.00"> v5 = (v10 + a6)</text>
<text text-anchor="start" x="710" y="-1198.8" font-family="Times,serif" font-size="14.00"> g7 = v5</text>
<text text-anchor="start" x="710" y="-1183.8" font-family="Times,serif" font-size="14.00"> v11 = v5</text>
<text text-anchor="start" x="710" y="-1168.8" font-family="Times,serif" font-size="14.00"> v13 = 0</text>
</g>
<!-- Node0x177caea0&#45;&gt;Node0x177c7960 -->
<g id="edge20" class="edge"><title>Node0x177caea0&#45;&gt;Node0x177c7960</title>
<path fill="none" stroke="black" d="M855.861,-1334.27C844.129,-1317.62 825.704,-1291.47 808.837,-1267.54"/>
<polygon fill="black" stroke="black" points="811.57,-1265.34 802.949,-1259.18 805.848,-1269.37 811.57,-1265.34"/>
<text text-anchor="middle" x="859" y="-1303.8" font-family="Times,serif" font-size="14.00">True</text>
</g>
<!-- Node0x177ca350 -->
<g id="node21" class="node"><title>Node0x177ca350</title>
<polygon fill="none" stroke="black" points="1523,-1138.5 1523,-1281.5 2005,-1281.5 2005,-1138.5 1523,-1138.5"/>
<text text-anchor="start" x="1531" y="-1266.3" font-family="Times,serif" font-size="14.00">0x804a718:</text>
<text text-anchor="start" x="1531" y="-1251.3" font-family="Times,serif" font-size="14.00"> v8 = (a5 &#45; v14)</text>
<text text-anchor="start" x="1531" y="-1236.3" font-family="Times,serif" font-size="14.00"> v9 = (a6 &#45; v14)</text>
<text text-anchor="start" x="1531" y="-1221.3" font-family="Times,serif" font-size="14.00"> g7 = v9</text>
<text text-anchor="start" x="1531" y="-1206.3" font-family="Times,serif" font-size="14.00"> v7 = *(IntToPtrCastExpr&lt;ptr&gt;(v8))</text>
<text text-anchor="start" x="1531" y="-1191.3" font-family="Times,serif" font-size="14.00"> mbedtls_aes_crypt_ecb(a1, 0, ((16777216 * v8) / 16777216), v9)</text>
<text text-anchor="start" x="1531" y="-1176.3" font-family="Times,serif" font-size="14.00"> v6 = 0</text>
<text text-anchor="start" x="1531" y="-1161.3" font-family="Times,serif" font-size="14.00"> v12 = 0</text>
<text text-anchor="start" x="1531" y="-1146.3" font-family="Times,serif" font-size="14.00"> goto 0x804a760</text>
</g>
<!-- Node0xc89fdf0&#45;&gt;Node0x177ca350 -->
<g id="edge21" class="edge"><title>Node0xc89fdf0&#45;&gt;Node0x177ca350</title>
<path fill="none" stroke="black" d="M1764,-1334.27C1764,-1323.17 1764,-1307.84 1764,-1291.75"/>
<polygon fill="black" stroke="black" points="1767.5,-1291.67 1764,-1281.67 1760.5,-1291.67 1767.5,-1291.67"/>
<text text-anchor="middle" x="1781" y="-1303.8" font-family="Times,serif" font-size="14.00">True</text>
</g>
<!-- Node0x9bdb220 -->
<g id="node22" class="node"><title>Node0x9bdb220</title>
<polygon fill="none" stroke="black" points="1023,-1146 1023,-1274 1505,-1274 1505,-1146 1023,-1146"/>
<text text-anchor="start" x="1031" y="-1258.8" font-family="Times,serif" font-size="14.00">0x804a718:</text>
<text text-anchor="start" x="1031" y="-1243.8" font-family="Times,serif" font-size="14.00"> v8 = (a5 &#45; v14)</text>
<text text-anchor="start" x="1031" y="-1228.8" font-family="Times,serif" font-size="14.00"> v9 = (a6 &#45; v14)</text>
<text text-anchor="start" x="1031" y="-1213.8" font-family="Times,serif" font-size="14.00"> g7 = v9</text>
<text text-anchor="start" x="1031" y="-1198.8" font-family="Times,serif" font-size="14.00"> v7 = *(IntToPtrCastExpr&lt;ptr&gt;(v8))</text>
<text text-anchor="start" x="1031" y="-1183.8" font-family="Times,serif" font-size="14.00"> mbedtls_aes_crypt_ecb(a1, 0, ((16777216 * v8) / 16777216), v9)</text>
<text text-anchor="start" x="1031" y="-1168.8" font-family="Times,serif" font-size="14.00"> v6 = 0</text>
<text text-anchor="start" x="1031" y="-1153.8" font-family="Times,serif" font-size="14.00"> v12 = 0</text>
</g>
<!-- Node0x177ca180&#45;&gt;Node0x9bdb220 -->
<g id="edge22" class="edge"><title>Node0x177ca180&#45;&gt;Node0x9bdb220</title>
<path fill="none" stroke="black" d="M1031.23,-1334.41C1057.66,-1320.4 1096.92,-1299.58 1135.69,-1279.03"/>
<polygon fill="black" stroke="black" points="1137.81,-1281.87 1145,-1274.09 1134.53,-1275.68 1137.81,-1281.87"/>
<text text-anchor="middle" x="1110" y="-1303.8" font-family="Times,serif" font-size="14.00">True</text>
</g>
<!-- Node0x9bdaaf0 -->
<g id="node23" class="node"><title>Node0x9bdaaf0</title>
<polygon fill="none" stroke="black" points="514.5,-1153.5 514.5,-1266.5 651.5,-1266.5 651.5,-1153.5 514.5,-1153.5"/>
<text text-anchor="start" x="522.5" y="-1251.3" font-family="Times,serif" font-size="14.00">0x804a7a8:</text>
<text text-anchor="start" x="522.5" y="-1236.3" font-family="Times,serif" font-size="14.00"> v6 = 0</text>
<text text-anchor="start" x="522.5" y="-1221.3" font-family="Times,serif" font-size="14.00"> v5 = (v10 + a6)</text>
<text text-anchor="start" x="522.5" y="-1206.3" font-family="Times,serif" font-size="14.00"> g7 = v5</text>
<text text-anchor="start" x="522.5" y="-1191.3" font-family="Times,serif" font-size="14.00"> v11 = v5</text>
<text text-anchor="start" x="522.5" y="-1176.3" font-family="Times,serif" font-size="14.00"> v13 = 0</text>
<text text-anchor="start" x="522.5" y="-1161.3" font-family="Times,serif" font-size="14.00"> goto 0x804a7b8</text>
</g>
<!-- Node0x177c7900&#45;&gt;Node0x9bdaaf0 -->
<g id="edge23" class="edge"><title>Node0x177c7900&#45;&gt;Node0x9bdaaf0</title>
<path fill="none" stroke="black" d="M583,-1333.42C583,-1318.9 583,-1297.56 583,-1276.75"/>
<polygon fill="black" stroke="black" points="586.5,-1276.61 583,-1266.61 579.5,-1276.61 586.5,-1276.61"/>
<text text-anchor="middle" x="600" y="-1303.8" font-family="Times,serif" font-size="14.00">True</text>
</g>
<!-- Node0x9bdb010 -->
<g id="node24" class="node"><title>Node0x9bdb010</title>
<polygon fill="none" stroke="black" points="532.5,-1062.5 532.5,-1100.5 633.5,-1100.5 633.5,-1062.5 532.5,-1062.5"/>
<text text-anchor="start" x="540.5" y="-1085.3" font-family="Times,serif" font-size="14.00">0x804a7b8:</text>
<text text-anchor="start" x="540.5" y="-1070.3" font-family="Times,serif" font-size="14.00"> while True:</text>
</g>
<!-- Node0x177c7960&#45;&gt;Node0x9bdb010 -->
<g id="edge24" class="edge"><title>Node0x177c7960&#45;&gt;Node0x9bdb010</title>
<path fill="none" stroke="black" d="M701.85,-1163.33C673.491,-1144.04 641.648,-1122.39 618.066,-1106.35"/>
<polygon fill="black" stroke="black" points="620.01,-1103.44 609.773,-1100.71 616.074,-1109.23 620.01,-1103.44"/>
</g>
<!-- Node0x9bdb490 -->
<g id="node25" class="node"><title>Node0x9bdb490</title>
<polygon fill="none" stroke="black" points="1370.5,-1062.5 1370.5,-1100.5 1471.5,-1100.5 1471.5,-1062.5 1370.5,-1062.5"/>
<text text-anchor="start" x="1378.5" y="-1085.3" font-family="Times,serif" font-size="14.00">0x804a760:</text>
<text text-anchor="start" x="1378.5" y="-1070.3" font-family="Times,serif" font-size="14.00"> while True:</text>
</g>
<!-- Node0x177ca350&#45;&gt;Node0x9bdb490 -->
<g id="edge25" class="edge"><title>Node0x177ca350&#45;&gt;Node0x9bdb490</title>
<path fill="none" stroke="black" d="M1572.44,-1138.35C1538.55,-1125.85 1505.71,-1113.74 1479.33,-1104.01"/>
<polygon fill="black" stroke="black" points="1480.51,-1100.72 1469.92,-1100.54 1478.09,-1107.28 1480.51,-1100.72"/>
</g>
<!-- Node0x9bdb220&#45;&gt;Node0x9bdb490 -->
<g id="edge26" class="edge"><title>Node0x9bdb220&#45;&gt;Node0x9bdb490</title>
<path fill="none" stroke="black" d="M1342.5,-1145.75C1359.51,-1132.04 1376.53,-1118.33 1390.34,-1107.2"/>
<polygon fill="black" stroke="black" points="1392.91,-1109.62 1398.51,-1100.62 1388.52,-1104.17 1392.91,-1109.62"/>
</g>
<!-- Node0x9bdaaf0&#45;&gt;Node0x9bdb010 -->
<g id="edge27" class="edge"><title>Node0x9bdaaf0&#45;&gt;Node0x9bdb010</title>
<path fill="none" stroke="black" d="M583,-1153.15C583,-1138.51 583,-1123.33 583,-1110.81"/>
<polygon fill="black" stroke="black" points="586.5,-1110.58 583,-1100.58 579.5,-1110.58 586.5,-1110.58"/>
</g>
<!-- Node0x9bdb950 -->
<g id="node26" class="node"><title>Node0x9bdb950</title>
<polygon fill="none" stroke="black" points="377,-920 377,-1003 789,-1003 789,-920 377,-920"/>
<text text-anchor="start" x="385" y="-987.8" font-family="Times,serif" font-size="14.00">v19 = *(IntToPtrCastExpr&lt;ptr&gt;((g3 + v13)))</text>
<text text-anchor="start" x="385" y="-972.8" font-family="Times,serif" font-size="14.00"> v20 = *(IntToPtrCastExpr&lt;ptr&gt;((v13 + (v10 + a5))))</text>
<text text-anchor="start" x="385" y="-957.8" font-family="Times,serif" font-size="14.00"> *(IntToPtrCastExpr&lt;ptr&gt;((v13 + v11))) = (v20 ^ v19)</text>
<text text-anchor="start" x="385" y="-942.8" font-family="Times,serif" font-size="14.00"> v21 = (v6 + 1)</text>
<text text-anchor="start" x="385" y="-927.8" font-family="Times,serif" font-size="14.00"> v6 = v21</text>
</g>
<!-- Node0x9bdb010&#45;&gt;Node0x9bdb950 -->
<g id="edge28" class="edge"><title>Node0x9bdb010&#45;&gt;Node0x9bdb950</title>
<path fill="none" stroke="black" d="M583,-1062.32C583,-1049.24 583,-1030.92 583,-1013.53"/>
<polygon fill="black" stroke="black" points="586.5,-1013.45 583,-1003.45 579.5,-1013.45 586.5,-1013.45"/>
<text text-anchor="middle" x="600" y="-1032.8" font-family="Times,serif" font-size="14.00">True</text>
</g>
<!-- Node0x9bdc310 -->
<g id="node27" class="node"><title>Node0x9bdc310</title>
<polygon fill="none" stroke="black" points="1137.5,-912.5 1137.5,-1010.5 1478.5,-1010.5 1478.5,-912.5 1137.5,-912.5"/>
<text text-anchor="start" x="1145.5" y="-995.3" font-family="Times,serif" font-size="14.00">v15 = *(IntToPtrCastExpr&lt;ptr&gt;((g3 + v12)))</text>
<text text-anchor="start" x="1145.5" y="-980.3" font-family="Times,serif" font-size="14.00"> g4 = v15</text>
<text text-anchor="start" x="1145.5" y="-965.3" font-family="Times,serif" font-size="14.00"> v16 = IntToPtrCastExpr&lt;ptr&gt;((g7 + v12))</text>
<text text-anchor="start" x="1145.5" y="-950.3" font-family="Times,serif" font-size="14.00"> *(v16) = (*(v16) ^ v15)</text>
<text text-anchor="start" x="1145.5" y="-935.3" font-family="Times,serif" font-size="14.00"> v17 = (v6 + 1)</text>
<text text-anchor="start" x="1145.5" y="-920.3" font-family="Times,serif" font-size="14.00"> v6 = v17</text>
</g>
<!-- Node0x9bdb490&#45;&gt;Node0x9bdc310 -->
<g id="edge29" class="edge"><title>Node0x9bdb490&#45;&gt;Node0x9bdc310</title>
<path fill="none" stroke="black" d="M1403.59,-1062.32C1392.1,-1050.32 1376.38,-1033.91 1361.01,-1017.86"/>
<polygon fill="black" stroke="black" points="1363.43,-1015.32 1353.99,-1010.52 1358.38,-1020.17 1363.43,-1015.32"/>
<text text-anchor="middle" x="1402" y="-1032.8" font-family="Times,serif" font-size="14.00">True</text>
</g>
<!-- Node0x9bdbb30 -->
<g id="node28" class="node"><title>Node0x9bdbb30</title>
<polygon fill="none" stroke="black" points="521.5,-836.5 521.5,-874.5 644.5,-874.5 644.5,-836.5 521.5,-836.5"/>
<text text-anchor="start" x="529.5" y="-859.3" font-family="Times,serif" font-size="14.00">if (v21 == 16):</text>
<text text-anchor="start" x="529.5" y="-844.3" font-family="Times,serif" font-size="14.00"> else:</text>
</g>
<!-- Node0x9bdb950&#45;&gt;Node0x9bdbb30 -->
<g id="edge30" class="edge"><title>Node0x9bdb950&#45;&gt;Node0x9bdbb30</title>
<path fill="none" stroke="black" d="M583,-919.993C583,-908.187 583,-895.549 583,-884.681"/>
<polygon fill="black" stroke="black" points="586.5,-884.5 583,-874.5 579.5,-884.5 586.5,-884.5"/>
</g>
<!-- Node0x9bdc430 -->
<g id="node29" class="node"><title>Node0x9bdc430</title>
<polygon fill="none" stroke="black" points="1251.5,-837.5 1251.5,-873.5 1374.5,-873.5 1374.5,-837.5 1251.5,-837.5"/>
<text text-anchor="start" x="1259.5" y="-851.8" font-family="Times,serif" font-size="14.00">if (v17 == 16):</text>
</g>
<!-- Node0x9bdc310&#45;&gt;Node0x9bdc430 -->
<g id="edge31" class="edge"><title>Node0x9bdc310&#45;&gt;Node0x9bdc430</title>
<path fill="none" stroke="black" d="M1310.31,-912.458C1310.78,-902.62 1311.26,-892.592 1311.69,-883.793"/>
<polygon fill="black" stroke="black" points="1315.19,-883.923 1312.17,-873.766 1308.19,-883.587 1315.19,-883.923"/>
</g>
<!-- Node0x9bdae50 -->
<g id="node30" class="node"><title>Node0x9bdae50</title>
<polygon fill="none" stroke="black" points="385.5,-641.5 385.5,-784.5 966.5,-784.5 966.5,-641.5 385.5,-641.5"/>
<text text-anchor="start" x="393.5" y="-769.3" font-family="Times,serif" font-size="14.00">0x804a7ca:</text>
<text text-anchor="start" x="393.5" y="-754.3" font-family="Times,serif" font-size="14.00"> g5 = (g5 + 16)</text>
<text text-anchor="start" x="393.5" y="-739.3" font-family="Times,serif" font-size="14.00"> v22 = g7</text>
<text text-anchor="start" x="393.5" y="-724.3" font-family="Times,serif" font-size="14.00"> mbedtls_aes_crypt_ecb(a1, a2, ((16777216 * v22) / 16777216), v22)</text>
<text text-anchor="start" x="393.5" y="-709.3" font-family="Times,serif" font-size="14.00"> *(IntToPtrCastExpr&lt;ptr&gt;(g3)) = *(IntToPtrCastExpr&lt;ptr&gt;(g7))</text>
<text text-anchor="start" x="393.5" y="-694.3" font-family="Times,serif" font-size="14.00"> *(IntToPtrCastExpr&lt;ptr&gt;((g3 + 4))) = *(IntToPtrCastExpr&lt;ptr&gt;((g7 + 4)))</text>
<text text-anchor="start" x="393.5" y="-679.3" font-family="Times,serif" font-size="14.00"> *(IntToPtrCastExpr&lt;ptr&gt;((g3 + 8))) = *(IntToPtrCastExpr&lt;ptr&gt;((g7 + 8)))</text>
<text text-anchor="start" x="393.5" y="-664.3" font-family="Times,serif" font-size="14.00"> *(IntToPtrCastExpr&lt;ptr&gt;((g3 + 12))) = *(IntToPtrCastExpr&lt;ptr&gt;((g7 + 12)))</text>
<text text-anchor="start" x="393.5" y="-649.3" font-family="Times,serif" font-size="14.00"> v23 = g5</text>
</g>
<!-- Node0x9bdbb30&#45;&gt;Node0x9bdae50 -->
<g id="edge32" class="edge"><title>Node0x9bdbb30&#45;&gt;Node0x9bdae50</title>
<path fill="none" stroke="black" d="M594.968,-836.42C602.529,-824.996 612.882,-809.356 623.659,-793.074"/>
<polygon fill="black" stroke="black" points="626.721,-794.79 629.322,-784.519 620.884,-790.926 626.721,-794.79"/>
<text text-anchor="middle" x="655" y="-806.8" font-family="Times,serif" font-size="14.00">v21 == 16</text>
</g>
<!-- Node0x177cb060 -->
<g id="node31" class="node"><title>Node0x177cb060</title>
<polygon fill="none" stroke="black" points="266.5,-679 266.5,-747 367.5,-747 367.5,-679 266.5,-679"/>
<text text-anchor="start" x="274.5" y="-731.8" font-family="Times,serif" font-size="14.00">0x804a7b8:</text>
<text text-anchor="start" x="274.5" y="-716.8" font-family="Times,serif" font-size="14.00"> v11 = g7</text>
<text text-anchor="start" x="274.5" y="-701.8" font-family="Times,serif" font-size="14.00"> v13 = v21</text>
<text text-anchor="start" x="274.5" y="-686.8" font-family="Times,serif" font-size="14.00"> continue</text>
</g>
<!-- Node0x9bdbb30&#45;&gt;Node0x177cb060 -->
<g id="edge33" class="edge"><title>Node0x9bdbb30&#45;&gt;Node0x177cb060</title>
<path fill="none" stroke="black" d="M521.445,-843.208C477.999,-833.099 419.939,-815.104 376,-785 364.297,-776.982 353.633,-766.02 344.689,-755.109"/>
<polygon fill="black" stroke="black" points="347.42,-752.919 338.491,-747.216 341.914,-757.242 347.42,-752.919"/>
<text text-anchor="middle" x="476" y="-806.8" font-family="Times,serif" font-size="14.00">v21 != 16</text>
</g>
<!-- Node0x177cb1b0 -->
<g id="node32" class="node"><title>Node0x177cb1b0</title>
<polygon fill="none" stroke="black" points="1231,-694 1231,-732 1395,-732 1395,-694 1231,-694"/>
<text text-anchor="start" x="1239" y="-716.8" font-family="Times,serif" font-size="14.00">break &#45;&gt; 0x804a76f:</text>
<text text-anchor="start" x="1239" y="-701.8" font-family="Times,serif" font-size="14.00"> break</text>
</g>
<!-- Node0x9bdc430&#45;&gt;Node0x177cb1b0 -->
<g id="edge34" class="edge"><title>Node0x9bdc430&#45;&gt;Node0x177cb1b0</title>
<path fill="none" stroke="black" d="M1313,-837.272C1313,-813.621 1313,-770.8 1313,-742.378"/>
<polygon fill="black" stroke="black" points="1316.5,-742.26 1313,-732.26 1309.5,-742.26 1316.5,-742.26"/>
<text text-anchor="middle" x="1352" y="-806.8" font-family="Times,serif" font-size="14.00">v17 == 16</text>
</g>
<!-- Node0x9bdad00 -->
<g id="node33" class="node"><title>Node0x9bdad00</title>
<polygon fill="none" stroke="black" points="1437,-695 1437,-731 1527,-731 1527,-695 1437,-695"/>
<text text-anchor="start" x="1445" y="-709.3" font-family="Times,serif" font-size="14.00">v12 = v17</text>
</g>
<!-- Node0x9bdc430&#45;&gt;Node0x9bdad00 -->
<g id="edge35" class="edge"><title>Node0x9bdc430&#45;&gt;Node0x9bdad00</title>
<path fill="none" stroke="black" d="M1361.44,-837.309C1373.02,-832.049 1384.92,-825.603 1395,-818 1424.03,-796.093 1449.71,-762.751 1465.5,-739.754"/>
<polygon fill="black" stroke="black" points="1468.58,-741.445 1471.26,-731.194 1462.77,-737.54 1468.58,-741.445"/>
<text text-anchor="middle" x="1448" y="-806.8" font-family="Times,serif" font-size="14.00">v17 != 16</text>
</g>
<!-- Node0x9bdce10 -->
<g id="node34" class="node"><title>Node0x9bdce10</title>
<polygon fill="none" stroke="black" points="304,-536.5 304,-572.5 426,-572.5 426,-536.5 304,-536.5"/>
<text text-anchor="start" x="312" y="-550.8" font-family="Times,serif" font-size="14.00">if (v4 == v23):</text>
</g>
<!-- Node0x9bdae50&#45;&gt;Node0x9bdce10 -->
<g id="edge36" class="edge"><title>Node0x9bdae50&#45;&gt;Node0x9bdce10</title>
<path fill="none" stroke="black" d="M535.513,-641.305C489.164,-617.981 441.02,-593.755 407.758,-577.016"/>
<polygon fill="black" stroke="black" points="409.291,-573.87 398.785,-572.501 406.144,-580.123 409.291,-573.87"/>
</g>
<!-- Node0x177cb060&#45;&gt;Node0x9bdb010 -->
<g id="edge37" class="edge"><title>Node0x177cb060&#45;&gt;Node0x9bdb010</title>
<path fill="none" stroke="black" d="M312.537,-747.114C306.377,-807.327 302.555,-935.488 368,-1011 406.377,-1055.28 473.169,-1071.55 522.15,-1077.42"/>
<polygon fill="black" stroke="black" points="521.996,-1080.92 532.315,-1078.52 522.75,-1073.96 521.996,-1080.92"/>
</g>
<!-- Node0x9bdb520 -->
<g id="node35" class="node"><title>Node0x9bdb520</title>
<polygon fill="none" stroke="black" points="1023,-505.5 1023,-603.5 1603,-603.5 1603,-505.5 1023,-505.5"/>
<text text-anchor="start" x="1031" y="-588.3" font-family="Times,serif" font-size="14.00">0x804a76f:</text>
<text text-anchor="start" x="1031" y="-573.3" font-family="Times,serif" font-size="14.00"> *(IntToPtrCastExpr&lt;ptr&gt;(g3)) = v7</text>
<text text-anchor="start" x="1031" y="-558.3" font-family="Times,serif" font-size="14.00"> *(IntToPtrCastExpr&lt;ptr&gt;((g3 + 4))) = *(IntToPtrCastExpr&lt;ptr&gt;((v8 + 4)))</text>
<text text-anchor="start" x="1031" y="-543.3" font-family="Times,serif" font-size="14.00"> *(IntToPtrCastExpr&lt;ptr&gt;((g3 + 8))) = *(IntToPtrCastExpr&lt;ptr&gt;((v8 + 8)))</text>
<text text-anchor="start" x="1031" y="-528.3" font-family="Times,serif" font-size="14.00"> *(IntToPtrCastExpr&lt;ptr&gt;((g3 + 12))) = *(IntToPtrCastExpr&lt;ptr&gt;((v8 + 12)))</text>
<text text-anchor="start" x="1031" y="-513.3" font-family="Times,serif" font-size="14.00"> v18 = (v14 &#45; 16)</text>
</g>
<!-- Node0x177cb1b0&#45;&gt;Node0x9bdb520 -->
<g id="edge38" class="edge"><title>Node0x177cb1b0&#45;&gt;Node0x9bdb520</title>
<path fill="none" stroke="black" d="M1313,-693.741C1313,-674.208 1313,-642.212 1313,-613.918"/>
<polygon fill="black" stroke="black" points="1316.5,-613.692 1313,-603.692 1309.5,-613.692 1316.5,-613.692"/>
</g>
<!-- Node0x9bdad00&#45;&gt;Node0x9bdb490 -->
<g id="edge39" class="edge"><title>Node0x9bdad00&#45;&gt;Node0x9bdb490</title>
<path fill="none" stroke="black" d="M1486.77,-731.251C1498.84,-778.258 1526.93,-911.721 1487,-1011 1480.05,-1028.29 1466.54,-1043.76 1453.55,-1055.69"/>
<polygon fill="black" stroke="black" points="1451.23,-1053.06 1446.01,-1062.29 1455.84,-1058.33 1451.23,-1053.06"/>
</g>
<!-- Node0x9bdcf70 -->
<g id="node36" class="node"><title>Node0x9bdcf70</title>
<polygon fill="none" stroke="black" points="211.5,-358.5 211.5,-396.5 450.5,-396.5 450.5,-358.5 211.5,-358.5"/>
<text text-anchor="start" x="219.5" y="-381.3" font-family="Times,serif" font-size="14.00">break (via goto) &#45;&gt; 0x804a802:</text>
<text text-anchor="start" x="219.5" y="-366.3" font-family="Times,serif" font-size="14.00"> goto 0x804a802</text>
</g>
<!-- Node0x9bdce10&#45;&gt;Node0x9bdcf70 -->
<g id="edge40" class="edge"><title>Node0x9bdce10&#45;&gt;Node0x9bdcf70</title>
<path fill="none" stroke="black" d="M362.866,-536.303C359.438,-509.981 352.055,-458.207 342,-415 341.339,-412.16 340.58,-409.216 339.776,-406.288"/>
<polygon fill="black" stroke="black" points="343.102,-405.194 336.946,-396.571 336.381,-407.151 343.102,-405.194"/>
<text text-anchor="middle" x="394.5" y="-475.8" font-family="Times,serif" font-size="14.00">v4 == v23</text>
</g>
<!-- Node0x9bdcf10 -->
<g id="node37" class="node"><title>Node0x9bdcf10</title>
<polygon fill="none" stroke="black" points="197,-415.5 197,-453.5 333,-453.5 333,-415.5 197,-415.5"/>
<text text-anchor="start" x="205" y="-438.3" font-family="Times,serif" font-size="14.00">v10 = v23</text>
<text text-anchor="start" x="205" y="-423.3" font-family="Times,serif" font-size="14.00"> goto 0x804a7a8</text>
</g>
<!-- Node0x9bdce10&#45;&gt;Node0x9bdcf10 -->
<g id="edge41" class="edge"><title>Node0x9bdce10&#45;&gt;Node0x9bdcf10</title>
<path fill="none" stroke="black" d="M327.87,-536.305C308.006,-525.123 285.016,-508.588 272,-487 267.853,-480.123 265.744,-471.803 264.756,-463.874"/>
<polygon fill="black" stroke="black" points="268.242,-463.552 264.027,-453.832 261.261,-464.059 268.242,-463.552"/>
<text text-anchor="middle" x="307.5" y="-475.8" font-family="Times,serif" font-size="14.00">v4 != v23</text>
</g>
<!-- Node0x9bdb700 -->
<g id="node38" class="node"><title>Node0x9bdb700</title>
<polygon fill="none" stroke="black" points="1081.5,-416.5 1081.5,-452.5 1244.5,-452.5 1244.5,-416.5 1081.5,-416.5"/>
<text text-anchor="start" x="1089.5" y="-430.8" font-family="Times,serif" font-size="14.00">if ((v18 + v4) == 0):</text>
</g>
<!-- Node0x9bdb520&#45;&gt;Node0x9bdb700 -->
<g id="edge42" class="edge"><title>Node0x9bdb520&#45;&gt;Node0x9bdb700</title>
<path fill="none" stroke="black" d="M1251.56,-505.164C1231.44,-489.338 1209.97,-472.453 1193.22,-459.27"/>
<polygon fill="black" stroke="black" points="1194.94,-456.171 1184.91,-452.739 1190.61,-461.673 1194.94,-456.171"/>
</g>
<!-- Node0x9bdb070 -->
<g id="node39" class="node"><title>Node0x9bdb070</title>
<polygon fill="none" stroke="black" points="202.5,-199.5 202.5,-282.5 303.5,-282.5 303.5,-199.5 202.5,-199.5"/>
<text text-anchor="start" x="210.5" y="-267.3" font-family="Times,serif" font-size="14.00">0x804a794:</text>
<text text-anchor="start" x="210.5" y="-252.3" font-family="Times,serif" font-size="14.00"> g3 = v3</text>
<text text-anchor="start" x="210.5" y="-237.3" font-family="Times,serif" font-size="14.00"> g7 = v2</text>
<text text-anchor="start" x="210.5" y="-222.3" font-family="Times,serif" font-size="14.00"> g5 = v1</text>
<text text-anchor="start" x="210.5" y="-207.3" font-family="Times,serif" font-size="14.00"> return 0</text>
</g>
<!-- Node0x9bdcf70&#45;&gt;Node0x9bdb070 -->
<g id="edge43" class="edge"><title>Node0x9bdcf70&#45;&gt;Node0x9bdb070</title>
<path fill="none" stroke="black" d="M320.481,-358.361C310.562,-341.257 295.239,-314.835 281.7,-291.489"/>
<polygon fill="black" stroke="black" points="284.658,-289.613 276.613,-282.718 278.602,-293.124 284.658,-289.613"/>
</g>
<!-- Node0x9bdcf10&#45;&gt;Node0x177c7900 -->
<g id="edge44" class="edge"><title>Node0x9bdcf10&#45;&gt;Node0x177c7900</title>
<path fill="none" stroke="black" d="M258.187,-453.601C250.188,-476.512 238,-517.353 238,-553.5 238,-1211 238,-1211 238,-1211 238,-1271.73 423.666,-1318.97 522.59,-1339.83"/>
<polygon fill="black" stroke="black" points="521.961,-1343.27 532.465,-1341.88 523.388,-1336.42 521.961,-1343.27"/>
</g>
<!-- Node0x9bdad60 -->
<g id="node40" class="node"><title>Node0x9bdad60</title>
<polygon fill="none" stroke="black" points="1073.5,-301.5 1073.5,-339.5 1240.5,-339.5 1240.5,-301.5 1073.5,-301.5"/>
<text text-anchor="start" x="1081.5" y="-324.3" font-family="Times,serif" font-size="14.00">break &#45;&gt; 0x804a792:</text>
<text text-anchor="start" x="1081.5" y="-309.3" font-family="Times,serif" font-size="14.00"> break</text>
</g>
<!-- Node0x9bdb700&#45;&gt;Node0x9bdad60 -->
<g id="edge45" class="edge"><title>Node0x9bdb700&#45;&gt;Node0x9bdad60</title>
<path fill="none" stroke="black" d="M1162.09,-416.49C1161.15,-398.876 1159.65,-371.046 1158.53,-350.053"/>
<polygon fill="black" stroke="black" points="1162.01,-349.587 1157.98,-339.789 1155.02,-349.962 1162.01,-349.587"/>
<text text-anchor="middle" x="1220" y="-373.8" font-family="Times,serif" font-size="14.00">(v18 + v4) == 0</text>
</g>
<!-- Node0x9bdb8f0 -->
<g id="node41" class="node"><title>Node0x9bdb8f0</title>
<polygon fill="none" stroke="black" points="955,-302.5 955,-338.5 1045,-338.5 1045,-302.5 955,-302.5"/>
<text text-anchor="start" x="963" y="-316.8" font-family="Times,serif" font-size="14.00">v14 = v18</text>
</g>
<!-- Node0x9bdb700&#45;&gt;Node0x9bdb8f0 -->
<g id="edge46" class="edge"><title>Node0x9bdb700&#45;&gt;Node0x9bdb8f0</title>
<path fill="none" stroke="black" d="M1081.5,-417.438C1068.1,-412.375 1055.01,-405.727 1044,-397 1028.15,-384.433 1016.87,-364.477 1009.71,-348.237"/>
<polygon fill="black" stroke="black" points="1012.82,-346.613 1005.77,-338.706 1006.35,-349.284 1012.82,-346.613"/>
<text text-anchor="middle" x="1100" y="-373.8" font-family="Times,serif" font-size="14.00">(v18 + v4) != 0</text>
</g>
<!-- Node0x9bdb070&#45;&gt;Node0x177c9a90 -->
<g id="edge47" class="edge"><title>Node0x9bdb070&#45;&gt;Node0x177c9a90</title>
<path fill="none" stroke="black" d="M240.568,-199.078C228.798,-160.336 211.458,-103.259 201.288,-69.7813"/>
<polygon fill="black" stroke="black" points="204.51,-68.3452 198.254,-59.7944 197.812,-70.38 204.51,-68.3452"/>
</g>
<!-- Node0x177cb250 -->
<g id="node42" class="node"><title>Node0x177cb250</title>
<polygon fill="none" stroke="black" points="470.5,-97.5 470.5,-180.5 571.5,-180.5 571.5,-97.5 470.5,-97.5"/>
<text text-anchor="start" x="478.5" y="-165.3" font-family="Times,serif" font-size="14.00">0x804a794:</text>
<text text-anchor="start" x="478.5" y="-150.3" font-family="Times,serif" font-size="14.00"> g3 = v3</text>
<text text-anchor="start" x="478.5" y="-135.3" font-family="Times,serif" font-size="14.00"> g7 = v2</text>
<text text-anchor="start" x="478.5" y="-120.3" font-family="Times,serif" font-size="14.00"> g5 = v1</text>
<text text-anchor="start" x="478.5" y="-105.3" font-family="Times,serif" font-size="14.00"> return 0</text>
</g>
<!-- Node0x9bdad60&#45;&gt;Node0x177cb250 -->
<g id="edge48" class="edge"><title>Node0x9bdad60&#45;&gt;Node0x177cb250</title>
<path fill="none" stroke="black" d="M1093.11,-301.467C970.091,-266.748 701.899,-191.056 581.56,-157.092"/>
<polygon fill="black" stroke="black" points="582.343,-153.676 571.768,-154.328 580.442,-160.413 582.343,-153.676"/>
</g>
<!-- Node0x9bdb8f0&#45;&gt;Node0x177ca180 -->
<g id="edge49" class="edge"><title>Node0x9bdb8f0&#45;&gt;Node0x177ca180</title>
<path fill="none" stroke="black" d="M998.764,-338.567C997.283,-360.517 995,-399.828 995,-433.5 995,-1211 995,-1211 995,-1211 995,-1250.21 996.576,-1295.54 997.749,-1323.87"/>
<polygon fill="black" stroke="black" points="994.267,-1324.36 998.191,-1334.2 1001.26,-1324.06 994.267,-1324.36"/>
</g>
<!-- Node0x177cb250&#45;&gt;Node0x177c9a90 -->
<g id="edge50" class="edge"><title>Node0x177cb250&#45;&gt;Node0x177c9a90</title>
<path fill="none" stroke="black" d="M470.469,-123.287C404.048,-103.949 288.924,-70.429 230.03,-53.2815"/>
<polygon fill="black" stroke="black" points="230.973,-49.9109 220.393,-50.4758 229.016,-56.6318 230.973,-49.9109"/>
</g>
</g>
</svg>
