<?xml version="1.0" encoding="UTF-8" standalone="no"?>
<!DOCTYPE svg PUBLIC "-//W3C//DTD SVG 1.1//EN"
 "http://www.w3.org/Graphics/SVG/1.1/DTD/svg11.dtd">
<!-- Generated by graphviz version 2.38.0 (20140413.2041)
 -->
<!-- Title: Control&#45;flow graph for function &#39;mbedtls_ecdsa_free()&#39;. Pages: 1 -->
<svg width="417pt" height="261pt"
 viewBox="0.00 0.00 417.00 261.00" xmlns="http://www.w3.org/2000/svg" xmlns:xlink="http://www.w3.org/1999/xlink">
<g id="graph0" class="graph" transform="scale(1 1) rotate(0) translate(4 257)">
<title>Control&#45;flow graph for function &#39;mbedtls_ecdsa_free()&#39;.</title>
<polygon fill="white" stroke="none" points="-4,4 -4,-257 413,-257 413,4 -4,4"/>
<text text-anchor="middle" x="204.5" y="-7.8" font-family="Times,serif" font-size="14.00">Control&#45;flow graph for function &#39;mbedtls_ecdsa_free()&#39;.</text>
<!-- Node0xdad6c40 -->
<g id="node1" class="node"><title>Node0xdad6c40</title>
<polygon fill="none" stroke="black" points="175,-216.5 175,-252.5 234,-252.5 234,-216.5 175,-216.5"/>
<text text-anchor="start" x="183" y="-230.8" font-family="Times,serif" font-size="14.00">entry:</text>
</g>
<!-- Node0x7ff47d0 -->
<g id="node2" class="node"><title>Node0x7ff47d0</title>
<polygon fill="none" stroke="black" points="54.5,-96.5 54.5,-179.5 354.5,-179.5 354.5,-96.5 54.5,-96.5"/>
<text text-anchor="start" x="62.5" y="-164.3" font-family="Times,serif" font-size="14.00">0x805b060:</text>
<text text-anchor="start" x="62.5" y="-149.3" font-family="Times,serif" font-size="14.00"> v1</text>
<text text-anchor="start" x="62.5" y="-134.3" font-family="Times,serif" font-size="14.00"> result = mbedtls_ecp_keypair_free(v1)</text>
<text text-anchor="start" x="62.5" y="-119.3" font-family="Times,serif" font-size="14.00"> g1 = result</text>
<text text-anchor="start" x="62.5" y="-104.3" font-family="Times,serif" font-size="14.00"> return result</text>
</g>
<!-- Node0xdad6c40&#45;&gt;Node0x7ff47d0 -->
<g id="edge1" class="edge"><title>Node0xdad6c40&#45;&gt;Node0x7ff47d0</title>
<path fill="none" stroke="black" d="M204.5,-216.167C204.5,-208.654 204.5,-199.427 204.5,-189.999"/>
<polygon fill="black" stroke="black" points="208,-189.762 204.5,-179.762 201,-189.762 208,-189.762"/>
</g>
<!-- Node0xdad4410 -->
<g id="node3" class="node"><title>Node0xdad4410</title>
<polygon fill="none" stroke="black" points="177.5,-23.5 177.5,-59.5 231.5,-59.5 231.5,-23.5 177.5,-23.5"/>
<text text-anchor="start" x="185.5" y="-37.8" font-family="Times,serif" font-size="14.00">exit:</text>
</g>
<!-- Node0x7ff47d0&#45;&gt;Node0xdad4410 -->
<g id="edge2" class="edge"><title>Node0x7ff47d0&#45;&gt;Node0xdad4410</title>
<path fill="none" stroke="black" d="M204.5,-96.3751C204.5,-87.4706 204.5,-78.246 204.5,-70"/>
<polygon fill="black" stroke="black" points="208,-69.8327 204.5,-59.8328 201,-69.8328 208,-69.8327"/>
</g>
</g>
</svg>
