<?xml version="1.0" encoding="UTF-8" standalone="no"?>
<!DOCTYPE svg PUBLIC "-//W3C//DTD SVG 1.1//EN"
 "http://www.w3.org/Graphics/SVG/1.1/DTD/svg11.dtd">
<!-- Generated by graphviz version 2.38.0 (20140413.2041)
 -->
<!-- Title: Control&#45;flow graph for function &#39;mbedtls_ecdsa_sign_det(a1, a2, a3, a4, a5, a6, a7)&#39;. Pages: 1 -->
<svg width="1174pt" height="1690pt"
 viewBox="0.00 0.00 1173.50 1690.00" xmlns="http://www.w3.org/2000/svg" xmlns:xlink="http://www.w3.org/1999/xlink">
<g id="graph0" class="graph" transform="scale(1 1) rotate(0) translate(4 1686)">
<title>Control&#45;flow graph for function &#39;mbedtls_ecdsa_sign_det(a1, a2, a3, a4, a5, a6, a7)&#39;.</title>
<polygon fill="white" stroke="none" points="-4,4 -4,-1686 1169.5,-1686 1169.5,4 -4,4"/>
<text text-anchor="middle" x="582.75" y="-7.8" font-family="Times,serif" font-size="14.00">Control&#45;flow graph for function &#39;mbedtls_ecdsa_sign_det(a1, a2, a3, a4, a5, a6, a7)&#39;.</text>
<!-- Node0x86077c0 -->
<g id="node1" class="node"><title>Node0x86077c0</title>
<polygon fill="none" stroke="black" points="273,-1553.5 273,-1681.5 332,-1681.5 332,-1553.5 273,-1553.5"/>
<text text-anchor="start" x="281" y="-1666.3" font-family="Times,serif" font-size="14.00">entry:</text>
<text text-anchor="start" x="281" y="-1651.3" font-family="Times,serif" font-size="14.00"> a1</text>
<text text-anchor="start" x="281" y="-1636.3" font-family="Times,serif" font-size="14.00"> a2</text>
<text text-anchor="start" x="281" y="-1621.3" font-family="Times,serif" font-size="14.00"> a3</text>
<text text-anchor="start" x="281" y="-1606.3" font-family="Times,serif" font-size="14.00"> a4</text>
<text text-anchor="start" x="281" y="-1591.3" font-family="Times,serif" font-size="14.00"> a5</text>
<text text-anchor="start" x="281" y="-1576.3" font-family="Times,serif" font-size="14.00"> a6</text>
<text text-anchor="start" x="281" y="-1561.3" font-family="Times,serif" font-size="14.00"> a7</text>
</g>
<!-- Node0xc65c8c0 -->
<g id="node2" class="node"><title>Node0xc65c8c0</title>
<polygon fill="none" stroke="black" points="157.5,-1402.5 157.5,-1515.5 447.5,-1515.5 447.5,-1402.5 157.5,-1402.5"/>
<text text-anchor="start" x="165.5" y="-1500.3" font-family="Times,serif" font-size="14.00">v1 = g3</text>
<text text-anchor="start" x="165.5" y="-1485.3" font-family="Times,serif" font-size="14.00"> v2 = g7</text>
<text text-anchor="start" x="165.5" y="-1470.3" font-family="Times,serif" font-size="14.00"> v3 = g5</text>
<text text-anchor="start" x="165.5" y="-1455.3" font-family="Times,serif" font-size="14.00"> v4 = mbedtls_md_info_from_type(a7)</text>
<text text-anchor="start" x="165.5" y="-1440.3" font-family="Times,serif" font-size="14.00"> g4 = v4</text>
<text text-anchor="start" x="165.5" y="-1425.3" font-family="Times,serif" font-size="14.00"> g1 = &#45;20352</text>
<text text-anchor="start" x="165.5" y="-1410.3" font-family="Times,serif" font-size="14.00"> v5</text>
</g>
<!-- Node0x86077c0&#45;&gt;Node0xc65c8c0 -->
<g id="edge1" class="edge"><title>Node0x86077c0&#45;&gt;Node0xc65c8c0</title>
<path fill="none" stroke="black" d="M302.5,-1553.3C302.5,-1544.3 302.5,-1535.02 302.5,-1525.97"/>
<polygon fill="black" stroke="black" points="306,-1525.88 302.5,-1515.88 299,-1525.88 306,-1525.88"/>
</g>
<!-- Node0x2147e7c0 -->
<g id="node3" class="node"><title>Node0x2147e7c0</title>
<polygon fill="none" stroke="black" points="250,-1328.5 250,-1364.5 355,-1364.5 355,-1328.5 250,-1328.5"/>
<text text-anchor="start" x="258" y="-1342.8" font-family="Times,serif" font-size="14.00">if (v4 == 0):</text>
</g>
<!-- Node0xc65c8c0&#45;&gt;Node0x2147e7c0 -->
<g id="edge2" class="edge"><title>Node0xc65c8c0&#45;&gt;Node0x2147e7c0</title>
<path fill="none" stroke="black" d="M302.5,-1402.43C302.5,-1392.86 302.5,-1383.31 302.5,-1374.91"/>
<polygon fill="black" stroke="black" points="306,-1374.64 302.5,-1364.64 299,-1374.64 306,-1374.64"/>
</g>
<!-- Node0x14677530 -->
<g id="node4" class="node"><title>Node0x14677530</title>
<polygon fill="none" stroke="black" points="0,-941.5 0,-1039.5 121,-1039.5 121,-941.5 0,-941.5"/>
<text text-anchor="start" x="8" y="-1024.3" font-family="Times,serif" font-size="14.00">0x805b8f0:</text>
<text text-anchor="start" x="8" y="-1009.3" font-family="Times,serif" font-size="14.00"> g3 = v1</text>
<text text-anchor="start" x="8" y="-994.3" font-family="Times,serif" font-size="14.00"> g7 = v2</text>
<text text-anchor="start" x="8" y="-979.3" font-family="Times,serif" font-size="14.00"> g5 = v3</text>
<text text-anchor="start" x="8" y="-964.3" font-family="Times,serif" font-size="14.00"> g2 = v5</text>
<text text-anchor="start" x="8" y="-949.3" font-family="Times,serif" font-size="14.00"> return &#45;20352</text>
</g>
<!-- Node0x2147e7c0&#45;&gt;Node0x14677530 -->
<g id="edge3" class="edge"><title>Node0x2147e7c0&#45;&gt;Node0x14677530</title>
<path fill="none" stroke="black" d="M290.828,-1328.43C256.621,-1278.39 155.495,-1130.46 99.2843,-1048.23"/>
<polygon fill="black" stroke="black" points="101.857,-1045.8 93.324,-1039.52 96.0782,-1049.75 101.857,-1045.8"/>
<text text-anchor="middle" x="307.5" y="-1298.8" font-family="Times,serif" font-size="14.00">v4 == 0</text>
</g>
<!-- Node0x21480b70 -->
<g id="node5" class="node"><title>Node0x21480b70</title>
<polygon fill="none" stroke="black" points="532.5,-1058.5 532.5,-1276.5 1064.5,-1276.5 1064.5,-1058.5 532.5,-1058.5"/>
<text text-anchor="start" x="540.5" y="-1261.3" font-family="Times,serif" font-size="14.00">0x805b898:</text>
<text text-anchor="start" x="540.5" y="-1246.3" font-family="Times,serif" font-size="14.00"> v6</text>
<text text-anchor="start" x="540.5" y="-1231.3" font-family="Times,serif" font-size="14.00"> g7 = &amp;(v6)</text>
<text text-anchor="start" x="540.5" y="-1216.3" font-family="Times,serif" font-size="14.00"> v7</text>
<text text-anchor="start" x="540.5" y="-1201.3" font-family="Times,serif" font-size="14.00"> g5 = &amp;(v7)</text>
<text text-anchor="start" x="540.5" y="-1186.3" font-family="Times,serif" font-size="14.00"> g3 = ((*(IntToPtrCastExpr&lt;ptr&gt;((a1 + 92))) + 7) / 8)</text>
<text text-anchor="start" x="540.5" y="-1171.3" font-family="Times,serif" font-size="14.00"> mbedtls_mpi_init(&amp;(v6))</text>
<text text-anchor="start" x="540.5" y="-1156.3" font-family="Times,serif" font-size="14.00"> mbedtls_hmac_drbg_init(IntToPtrCastExpr&lt;ptr&gt;(g5))</text>
<text text-anchor="start" x="540.5" y="-1141.3" font-family="Times,serif" font-size="14.00"> v8</text>
<text text-anchor="start" x="540.5" y="-1126.3" font-family="Times,serif" font-size="14.00"> v9 = &amp;(v8)</text>
<text text-anchor="start" x="540.5" y="-1111.3" font-family="Times,serif" font-size="14.00"> v10 = g3</text>
<text text-anchor="start" x="540.5" y="-1096.3" font-family="Times,serif" font-size="14.00"> v11 = mbedtls_mpi_write_binary(IntToPtrCastExpr&lt;ptr&gt;(a4), v9, v10)</text>
<text text-anchor="start" x="540.5" y="-1081.3" font-family="Times,serif" font-size="14.00"> g1 = v11</text>
<text text-anchor="start" x="540.5" y="-1066.3" font-family="Times,serif" font-size="14.00"> result = v11</text>
</g>
<!-- Node0x2147e7c0&#45;&gt;Node0x21480b70 -->
<g id="edge4" class="edge"><title>Node0x2147e7c0&#45;&gt;Node0x21480b70</title>
<path fill="none" stroke="black" d="M350.509,-1328.37C392.189,-1313.49 456.183,-1290.66 522.876,-1266.86"/>
<polygon fill="black" stroke="black" points="524.061,-1270.15 532.303,-1263.49 521.708,-1263.56 524.061,-1270.15"/>
<text text-anchor="middle" x="463.5" y="-1298.8" font-family="Times,serif" font-size="14.00">v4 != 0</text>
</g>
<!-- Node0xc65d120 -->
<g id="node6" class="node"><title>Node0xc65d120</title>
<polygon fill="none" stroke="black" points="231.5,-23.5 231.5,-59.5 285.5,-59.5 285.5,-23.5 231.5,-23.5"/>
<text text-anchor="start" x="239.5" y="-37.8" font-family="Times,serif" font-size="14.00">exit:</text>
</g>
<!-- Node0x14677530&#45;&gt;Node0xc65d120 -->
<g id="edge5" class="edge"><title>Node0x14677530&#45;&gt;Node0xc65d120</title>
<path fill="none" stroke="black" d="M39.6211,-941.207C31.2285,-917.627 23.5,-888.564 23.5,-861.5 23.5,-861.5 23.5,-861.5 23.5,-168 23.5,-79.5348 154.681,-53.205 221.022,-45.5458"/>
<polygon fill="black" stroke="black" points="221.511,-49.0135 231.083,-44.4702 220.767,-42.0532 221.511,-49.0135"/>
</g>
<!-- Node0x214807a0 -->
<g id="node7" class="node"><title>Node0x214807a0</title>
<polygon fill="none" stroke="black" points="834.5,-886.5 834.5,-922.5 948.5,-922.5 948.5,-886.5 834.5,-886.5"/>
<text text-anchor="start" x="842.5" y="-900.8" font-family="Times,serif" font-size="14.00">if (v11 == 0):</text>
</g>
<!-- Node0x21480b70&#45;&gt;Node0x214807a0 -->
<g id="edge6" class="edge"><title>Node0x21480b70&#45;&gt;Node0x214807a0</title>
<path fill="none" stroke="black" d="M836.998,-1058.46C853.448,-1012.29 871.275,-962.261 881.908,-932.419"/>
<polygon fill="black" stroke="black" points="885.296,-933.34 885.355,-922.745 878.702,-930.99 885.296,-933.34"/>
</g>
<!-- Node0xc65df50 -->
<g id="node8" class="node"><title>Node0xc65df50</title>
<polygon fill="none" stroke="black" points="773,-736.5 773,-834.5 1010,-834.5 1010,-736.5 773,-736.5"/>
<text text-anchor="start" x="781" y="-819.3" font-family="Times,serif" font-size="14.00">0x805b900:</text>
<text text-anchor="start" x="781" y="-804.3" font-family="Times,serif" font-size="14.00"> g6 = g7</text>
<text text-anchor="start" x="781" y="-789.3" font-family="Times,serif" font-size="14.00"> g4 = a5</text>
<text text-anchor="start" x="781" y="-774.3" font-family="Times,serif" font-size="14.00"> g1 = a1</text>
<text text-anchor="start" x="781" y="-759.3" font-family="Times,serif" font-size="14.00"> v12 = derive_mpi(a6, v9, v10)</text>
<text text-anchor="start" x="781" y="-744.3" font-family="Times,serif" font-size="14.00"> g1 = v12</text>
</g>
<!-- Node0x214807a0&#45;&gt;Node0xc65df50 -->
<g id="edge7" class="edge"><title>Node0x214807a0&#45;&gt;Node0xc65df50</title>
<path fill="none" stroke="black" d="M891.5,-886.487C891.5,-875.309 891.5,-859.968 891.5,-844.658"/>
<polygon fill="black" stroke="black" points="895,-844.646 891.5,-834.646 888,-844.646 895,-844.646"/>
<text text-anchor="middle" x="926" y="-856.8" font-family="Times,serif" font-size="14.00">v11 == 0</text>
</g>
<!-- Node0x2147fa90 -->
<g id="node9" class="node"><title>Node0x2147fa90</title>
<polygon fill="none" stroke="black" points="711.5,-97.5 711.5,-240.5 1165.5,-240.5 1165.5,-97.5 711.5,-97.5"/>
<text text-anchor="start" x="719.5" y="-225.3" font-family="Times,serif" font-size="14.00">0x805b8d4:</text>
<text text-anchor="start" x="719.5" y="-210.3" font-family="Times,serif" font-size="14.00"> g1 = mbedtls_hmac_drbg_free(IntToPtrCastExpr&lt;ptr&gt;(g5))</text>
<text text-anchor="start" x="719.5" y="-195.3" font-family="Times,serif" font-size="14.00"> mbedtls_mpi_free(IntToPtrCastExpr&lt;ptr&gt;(g7))</text>
<text text-anchor="start" x="719.5" y="-180.3" font-family="Times,serif" font-size="14.00"> g1 = result</text>
<text text-anchor="start" x="719.5" y="-165.3" font-family="Times,serif" font-size="14.00"> g3 = v1</text>
<text text-anchor="start" x="719.5" y="-150.3" font-family="Times,serif" font-size="14.00"> g7 = v2</text>
<text text-anchor="start" x="719.5" y="-135.3" font-family="Times,serif" font-size="14.00"> g5 = v3</text>
<text text-anchor="start" x="719.5" y="-120.3" font-family="Times,serif" font-size="14.00"> g2 = v5</text>
<text text-anchor="start" x="719.5" y="-105.3" font-family="Times,serif" font-size="14.00"> return result</text>
</g>
<!-- Node0x214807a0&#45;&gt;Node0x2147fa90 -->
<g id="edge8" class="edge"><title>Node0x214807a0&#45;&gt;Node0x2147fa90</title>
<path fill="none" stroke="black" d="M948.628,-888.755C996.646,-872.514 1057.5,-841.151 1057.5,-786.5 1057.5,-786.5 1057.5,-786.5 1057.5,-334 1057.5,-302.892 1043.3,-273.707 1024.71,-248.828"/>
<polygon fill="black" stroke="black" points="1027.44,-246.639 1018.53,-240.904 1021.92,-250.943 1027.44,-246.639"/>
<text text-anchor="middle" x="1089" y="-578.3" font-family="Times,serif" font-size="14.00">v11 != 0</text>
</g>
<!-- Node0x146739c0 -->
<g id="node10" class="node"><title>Node0x146739c0</title>
<polygon fill="none" stroke="black" points="834.5,-660.5 834.5,-698.5 948.5,-698.5 948.5,-660.5 834.5,-660.5"/>
<text text-anchor="start" x="842.5" y="-683.3" font-family="Times,serif" font-size="14.00">if (v12 == 0):</text>
<text text-anchor="start" x="842.5" y="-668.3" font-family="Times,serif" font-size="14.00"> else:</text>
</g>
<!-- Node0xc65df50&#45;&gt;Node0x146739c0 -->
<g id="edge9" class="edge"><title>Node0xc65df50&#45;&gt;Node0x146739c0</title>
<path fill="none" stroke="black" d="M891.5,-736.458C891.5,-726.952 891.5,-717.27 891.5,-708.69"/>
<polygon fill="black" stroke="black" points="895,-708.509 891.5,-698.509 888,-708.509 895,-708.509"/>
</g>
<!-- Node0x2147fa90&#45;&gt;Node0xc65d120 -->
<g id="edge10" class="edge"><title>Node0x2147fa90&#45;&gt;Node0xc65d120</title>
<path fill="none" stroke="black" d="M711.124,-126.036C559.383,-98.0307 373.902,-63.7984 295.887,-49.4002"/>
<polygon fill="black" stroke="black" points="296.076,-45.876 285.607,-47.5029 294.806,-52.7598 296.076,-45.876"/>
</g>
<!-- Node0xc65dc60 -->
<g id="node11" class="node"><title>Node0xc65dc60</title>
<polygon fill="none" stroke="black" points="361.5,-555.5 361.5,-608.5 951.5,-608.5 951.5,-555.5 361.5,-555.5"/>
<text text-anchor="start" x="369.5" y="-593.3" font-family="Times,serif" font-size="14.00">v13 = g3</text>
<text text-anchor="start" x="369.5" y="-578.3" font-family="Times,serif" font-size="14.00"> v14 = mbedtls_mpi_write_binary(IntToPtrCastExpr&lt;ptr&gt;(g7), (v13 + v9), v13)</text>
<text text-anchor="start" x="369.5" y="-563.3" font-family="Times,serif" font-size="14.00"> g1 = v14</text>
</g>
<!-- Node0x146739c0&#45;&gt;Node0xc65dc60 -->
<g id="edge11" class="edge"><title>Node0x146739c0&#45;&gt;Node0xc65dc60</title>
<path fill="none" stroke="black" d="M847.022,-660.425C813.779,-646.915 767.616,-628.156 729.056,-612.486"/>
<polygon fill="black" stroke="black" points="730.011,-609.096 719.429,-608.573 727.376,-615.581 730.011,-609.096"/>
<text text-anchor="middle" x="829" y="-630.8" font-family="Times,serif" font-size="14.00">v12 == 0</text>
</g>
<!-- Node0xc65e980 -->
<g id="node12" class="node"><title>Node0xc65e980</title>
<polygon fill="none" stroke="black" points="931.5,-500.5 931.5,-536.5 1037.5,-536.5 1037.5,-500.5 931.5,-500.5"/>
<text text-anchor="start" x="939.5" y="-514.8" font-family="Times,serif" font-size="14.00">result = v12</text>
</g>
<!-- Node0x146739c0&#45;&gt;Node0xc65e980 -->
<g id="edge12" class="edge"><title>Node0x146739c0&#45;&gt;Node0xc65e980</title>
<path fill="none" stroke="black" d="M914.84,-660.499C929.943,-647.677 948.888,-629.193 960.5,-609 971.562,-589.765 977.671,-565.276 980.953,-546.778"/>
<polygon fill="black" stroke="black" points="984.447,-547.093 982.574,-536.665 977.535,-545.984 984.447,-547.093"/>
<text text-anchor="middle" x="978" y="-630.8" font-family="Times,serif" font-size="14.00">v12 != 0</text>
</g>
<!-- Node0xc65dcc0 -->
<g id="node13" class="node"><title>Node0xc65dcc0</title>
<polygon fill="none" stroke="black" points="599.5,-443.5 599.5,-481.5 713.5,-481.5 713.5,-443.5 599.5,-443.5"/>
<text text-anchor="start" x="607.5" y="-466.3" font-family="Times,serif" font-size="14.00">if (v14 == 0):</text>
<text text-anchor="start" x="607.5" y="-451.3" font-family="Times,serif" font-size="14.00"> else:</text>
</g>
<!-- Node0xc65dc60&#45;&gt;Node0xc65dcc0 -->
<g id="edge13" class="edge"><title>Node0xc65dc60&#45;&gt;Node0xc65dcc0</title>
<path fill="none" stroke="black" d="M656.5,-555.214C656.5,-536.404 656.5,-510.929 656.5,-491.601"/>
<polygon fill="black" stroke="black" points="660,-491.577 656.5,-481.577 653,-491.577 660,-491.577"/>
</g>
<!-- Node0xc65e980&#45;&gt;Node0x2147fa90 -->
<g id="edge14" class="edge"><title>Node0xc65e980&#45;&gt;Node0x2147fa90</title>
<path fill="none" stroke="black" d="M989.386,-500.293C999.909,-460.421 1022.08,-358.934 1000.5,-278 997.973,-268.521 994.393,-259.009 990.215,-249.774"/>
<polygon fill="black" stroke="black" points="993.321,-248.158 985.853,-240.643 987.005,-251.175 993.321,-248.158"/>
</g>
<!-- Node0xc65e9e0 -->
<g id="node14" class="node"><title>Node0xc65e9e0</title>
<polygon fill="none" stroke="black" points="52,-278.5 52,-391.5 867,-391.5 867,-278.5 52,-278.5"/>
<text text-anchor="start" x="60" y="-376.3" font-family="Times,serif" font-size="14.00">v15 = (2 * g3)</text>
<text text-anchor="start" x="60" y="-361.3" font-family="Times,serif" font-size="14.00"> g3 = v15</text>
<text text-anchor="start" x="60" y="-346.3" font-family="Times,serif" font-size="14.00"> g1 = v4</text>
<text text-anchor="start" x="60" y="-331.3" font-family="Times,serif" font-size="14.00"> mbedtls_hmac_drbg_seed_buf(IntToPtrCastExpr&lt;ptr&gt;(g5), v4, v9, v15)</text>
<text text-anchor="start" x="60" y="-316.3" font-family="Times,serif" font-size="14.00"> v16 = mbedtls_ecdsa_sign(a1, a2, a3, a4, a5, a6, PtrToIntCastExpr&lt;int32&gt;(mbedtls_hmac_drbg_random), g5)</text>
<text text-anchor="start" x="60" y="-301.3" font-family="Times,serif" font-size="14.00"> g1 = v16</text>
<text text-anchor="start" x="60" y="-286.3" font-family="Times,serif" font-size="14.00"> result = v16</text>
</g>
<!-- Node0xc65dcc0&#45;&gt;Node0xc65e9e0 -->
<g id="edge15" class="edge"><title>Node0xc65dcc0&#45;&gt;Node0xc65e9e0</title>
<path fill="none" stroke="black" d="M627.855,-443.251C608.5,-430.921 581.731,-413.868 555.23,-396.986"/>
<polygon fill="black" stroke="black" points="556.96,-393.937 546.645,-391.516 553.199,-399.841 556.96,-393.937"/>
<text text-anchor="middle" x="632" y="-413.8" font-family="Times,serif" font-size="14.00">v14 == 0</text>
</g>
<!-- Node0xc65c6b0 -->
<g id="node15" class="node"><title>Node0xc65c6b0</title>
<polygon fill="none" stroke="black" points="885.5,-317 885.5,-353 991.5,-353 991.5,-317 885.5,-317"/>
<text text-anchor="start" x="893.5" y="-331.3" font-family="Times,serif" font-size="14.00">result = v14</text>
</g>
<!-- Node0xc65dcc0&#45;&gt;Node0xc65c6b0 -->
<g id="edge16" class="edge"><title>Node0xc65dcc0&#45;&gt;Node0xc65c6b0</title>
<path fill="none" stroke="black" d="M713.932,-450.457C760.012,-439.969 825.237,-421.371 876.5,-392 891.122,-383.622 905.243,-371.314 916.305,-360.368"/>
<polygon fill="black" stroke="black" points="918.951,-362.669 923.444,-353.074 913.948,-357.773 918.951,-362.669"/>
<text text-anchor="middle" x="868" y="-413.8" font-family="Times,serif" font-size="14.00">v14 != 0</text>
</g>
<!-- Node0xc65e9e0&#45;&gt;Node0x2147fa90 -->
<g id="edge17" class="edge"><title>Node0xc65e9e0&#45;&gt;Node0x2147fa90</title>
<path fill="none" stroke="black" d="M621.668,-278.477C654.167,-267.35 688.794,-255.494 722.777,-243.859"/>
<polygon fill="black" stroke="black" points="724.015,-247.135 732.342,-240.584 721.747,-240.512 724.015,-247.135"/>
</g>
<!-- Node0xc65c6b0&#45;&gt;Node0x2147fa90 -->
<g id="edge18" class="edge"><title>Node0xc65c6b0&#45;&gt;Node0x2147fa90</title>
<path fill="none" stroke="black" d="M938.5,-316.759C938.5,-300.785 938.5,-275.809 938.5,-250.961"/>
<polygon fill="black" stroke="black" points="942,-250.721 938.5,-240.721 935,-250.721 942,-250.721"/>
</g>
</g>
</svg>
