<?xml version="1.0" encoding="UTF-8" standalone="no"?>
<!DOCTYPE svg PUBLIC "-//W3C//DTD SVG 1.1//EN"
 "http://www.w3.org/Graphics/SVG/1.1/DTD/svg11.dtd">
<!-- Generated by graphviz version 2.38.0 (20140413.2041)
 -->
<!-- Title: Control&#45;flow graph for function &#39;arc4_ctx_free(a1, a2, a3)&#39;. Pages: 1 -->
<svg width="442pt" height="353pt"
 viewBox="0.00 0.00 442.00 353.00" xmlns="http://www.w3.org/2000/svg" xmlns:xlink="http://www.w3.org/1999/xlink">
<g id="graph0" class="graph" transform="scale(1 1) rotate(0) translate(4 349)">
<title>Control&#45;flow graph for function &#39;arc4_ctx_free(a1, a2, a3)&#39;.</title>
<polygon fill="white" stroke="none" points="-4,4 -4,-349 438,-349 438,4 -4,4"/>
<text text-anchor="middle" x="217" y="-7.8" font-family="Times,serif" font-size="14.00">Control&#45;flow graph for function &#39;arc4_ctx_free(a1, a2, a3)&#39;.</text>
<!-- Node0x2102b1a0 -->
<g id="node1" class="node"><title>Node0x2102b1a0</title>
<polygon fill="none" stroke="black" points="187.5,-276.5 187.5,-344.5 246.5,-344.5 246.5,-276.5 187.5,-276.5"/>
<text text-anchor="start" x="195.5" y="-329.3" font-family="Times,serif" font-size="14.00">entry:</text>
<text text-anchor="start" x="195.5" y="-314.3" font-family="Times,serif" font-size="14.00"> a1</text>
<text text-anchor="start" x="195.5" y="-299.3" font-family="Times,serif" font-size="14.00"> a2</text>
<text text-anchor="start" x="195.5" y="-284.3" font-family="Times,serif" font-size="14.00"> a3</text>
</g>
<!-- Node0xb29ad00 -->
<g id="node2" class="node"><title>Node0xb29ad00</title>
<polygon fill="none" stroke="black" points="14.5,-96.5 14.5,-239.5 419.5,-239.5 419.5,-96.5 14.5,-96.5"/>
<text text-anchor="start" x="22.5" y="-224.3" font-family="Times,serif" font-size="14.00">0x806a8a0:</text>
<text text-anchor="start" x="22.5" y="-209.3" font-family="Times,serif" font-size="14.00"> v1</text>
<text text-anchor="start" x="22.5" y="-194.3" font-family="Times,serif" font-size="14.00"> v2 = IntToPtrCastExpr&lt;ptr&gt;(v1)</text>
<text text-anchor="start" x="22.5" y="-179.3" font-family="Times,serif" font-size="14.00"> result = g3</text>
<text text-anchor="start" x="22.5" y="-164.3" font-family="Times,serif" font-size="14.00"> g1 = mbedtls_arc4_free(IntToPtrCastExpr&lt;ptr&gt;(a1))</text>
<text text-anchor="start" x="22.5" y="-149.3" font-family="Times,serif" font-size="14.00"> g3 = result</text>
<text text-anchor="start" x="22.5" y="-134.3" font-family="Times,serif" font-size="14.00"> g2 = PtrToIntCastExpr&lt;int32&gt;(v2)</text>
<text text-anchor="start" x="22.5" y="-119.3" font-family="Times,serif" font-size="14.00"> free(v2)</text>
<text text-anchor="start" x="22.5" y="-104.3" font-family="Times,serif" font-size="14.00"> return result</text>
</g>
<!-- Node0x2102b1a0&#45;&gt;Node0xb29ad00 -->
<g id="edge1" class="edge"><title>Node0x2102b1a0&#45;&gt;Node0xb29ad00</title>
<path fill="none" stroke="black" d="M217,-276.203C217,-268.099 217,-259.077 217,-249.804"/>
<polygon fill="black" stroke="black" points="220.5,-249.674 217,-239.674 213.5,-249.675 220.5,-249.674"/>
</g>
<!-- Node0x20ba1e10 -->
<g id="node3" class="node"><title>Node0x20ba1e10</title>
<polygon fill="none" stroke="black" points="190,-23.5 190,-59.5 244,-59.5 244,-23.5 190,-23.5"/>
<text text-anchor="start" x="198" y="-37.8" font-family="Times,serif" font-size="14.00">exit:</text>
</g>
<!-- Node0xb29ad00&#45;&gt;Node0x20ba1e10 -->
<g id="edge2" class="edge"><title>Node0xb29ad00&#45;&gt;Node0x20ba1e10</title>
<path fill="none" stroke="black" d="M217,-96.3834C217,-87.0259 217,-77.9253 217,-69.9482"/>
<polygon fill="black" stroke="black" points="220.5,-69.848 217,-59.848 213.5,-69.8481 220.5,-69.848"/>
</g>
</g>
</svg>
