<?xml version="1.0" encoding="UTF-8" standalone="no"?>
<!DOCTYPE svg PUBLIC "-//W3C//DTD SVG 1.1//EN"
 "http://www.w3.org/Graphics/SVG/1.1/DTD/svg11.dtd">
<!-- Generated by graphviz version 2.38.0 (20140413.2041)
 -->
<!-- Title: Control&#45;flow graph for function &#39;mbedtls_blowfish_crypt_cfb64(a1, a2, a3, *a4, a5, a6, a7)&#39;. Pages: 1 -->
<svg width="1416pt" height="1690pt"
 viewBox="0.00 0.00 1416.00 1690.00" xmlns="http://www.w3.org/2000/svg" xmlns:xlink="http://www.w3.org/1999/xlink">
<g id="graph0" class="graph" transform="scale(1 1) rotate(0) translate(4 1686)">
<title>Control&#45;flow graph for function &#39;mbedtls_blowfish_crypt_cfb64(a1, a2, a3, *a4, a5, a6, a7)&#39;.</title>
<polygon fill="white" stroke="none" points="-4,4 -4,-1686 1412,-1686 1412,4 -4,4"/>
<text text-anchor="middle" x="704" y="-7.8" font-family="Times,serif" font-size="14.00">Control&#45;flow graph for function &#39;mbedtls_blowfish_crypt_cfb64(a1, a2, a3, *a4, a5, a6, a7)&#39;.</text>
<!-- Node0x95b96c0 -->
<g id="node1" class="node"><title>Node0x95b96c0</title>
<polygon fill="none" stroke="black" points="784.5,-1553.5 784.5,-1681.5 843.5,-1681.5 843.5,-1553.5 784.5,-1553.5"/>
<text text-anchor="start" x="792.5" y="-1666.3" font-family="Times,serif" font-size="14.00">entry:</text>
<text text-anchor="start" x="792.5" y="-1651.3" font-family="Times,serif" font-size="14.00"> a1</text>
<text text-anchor="start" x="792.5" y="-1636.3" font-family="Times,serif" font-size="14.00"> a2</text>
<text text-anchor="start" x="792.5" y="-1621.3" font-family="Times,serif" font-size="14.00"> a3</text>
<text text-anchor="start" x="792.5" y="-1606.3" font-family="Times,serif" font-size="14.00"> a4</text>
<text text-anchor="start" x="792.5" y="-1591.3" font-family="Times,serif" font-size="14.00"> a5</text>
<text text-anchor="start" x="792.5" y="-1576.3" font-family="Times,serif" font-size="14.00"> a6</text>
<text text-anchor="start" x="792.5" y="-1561.3" font-family="Times,serif" font-size="14.00"> a7</text>
</g>
<!-- Node0x95bb7a0 -->
<g id="node2" class="node"><title>Node0x95bb7a0</title>
<polygon fill="none" stroke="black" points="766.5,-1417.5 766.5,-1515.5 861.5,-1515.5 861.5,-1417.5 766.5,-1417.5"/>
<text text-anchor="start" x="774.5" y="-1500.3" font-family="Times,serif" font-size="14.00">v1 = g5</text>
<text text-anchor="start" x="774.5" y="-1485.3" font-family="Times,serif" font-size="14.00"> v2 = g7</text>
<text text-anchor="start" x="774.5" y="-1470.3" font-family="Times,serif" font-size="14.00"> v3 = g3</text>
<text text-anchor="start" x="774.5" y="-1455.3" font-family="Times,serif" font-size="14.00"> g5 = a5</text>
<text text-anchor="start" x="774.5" y="-1440.3" font-family="Times,serif" font-size="14.00"> v4 = *(a4)</text>
<text text-anchor="start" x="774.5" y="-1425.3" font-family="Times,serif" font-size="14.00"> g3 = v4</text>
</g>
<!-- Node0x95b96c0&#45;&gt;Node0x95bb7a0 -->
<g id="edge1" class="edge"><title>Node0x95b96c0&#45;&gt;Node0x95bb7a0</title>
<path fill="none" stroke="black" d="M814,-1553.31C814,-1544.3 814,-1535.07 814,-1526.15"/>
<polygon fill="black" stroke="black" points="817.5,-1525.87 814,-1515.87 810.5,-1525.87 817.5,-1525.87"/>
</g>
<!-- Node0x7b92430 -->
<g id="node3" class="node"><title>Node0x7b92430</title>
<polygon fill="none" stroke="black" points="764.5,-1343.5 764.5,-1379.5 863.5,-1379.5 863.5,-1343.5 764.5,-1343.5"/>
<text text-anchor="start" x="772.5" y="-1357.8" font-family="Times,serif" font-size="14.00">if (a2 != 0):</text>
</g>
<!-- Node0x95bb7a0&#45;&gt;Node0x7b92430 -->
<g id="edge2" class="edge"><title>Node0x95bb7a0&#45;&gt;Node0x7b92430</title>
<path fill="none" stroke="black" d="M814,-1417.32C814,-1407.89 814,-1398.32 814,-1389.87"/>
<polygon fill="black" stroke="black" points="817.5,-1389.86 814,-1379.86 810.5,-1389.86 817.5,-1389.86"/>
</g>
<!-- Node0x95bbd60 -->
<g id="node4" class="node"><title>Node0x95bbd60</title>
<polygon fill="none" stroke="black" points="702.5,-1253.5 702.5,-1291.5 803.5,-1291.5 803.5,-1253.5 702.5,-1253.5"/>
<text text-anchor="start" x="710.5" y="-1276.3" font-family="Times,serif" font-size="14.00">0x806e5b8:</text>
<text text-anchor="start" x="710.5" y="-1261.3" font-family="Times,serif" font-size="14.00"> g7 = 0</text>
</g>
<!-- Node0x7b92430&#45;&gt;Node0x95bbd60 -->
<g id="edge3" class="edge"><title>Node0x7b92430&#45;&gt;Node0x95bbd60</title>
<path fill="none" stroke="black" d="M801.781,-1343.17C797.711,-1337.4 793.156,-1330.92 789,-1325 783.294,-1316.87 777.093,-1308 771.47,-1299.96"/>
<polygon fill="black" stroke="black" points="774.243,-1297.82 765.647,-1291.62 768.505,-1301.83 774.243,-1297.82"/>
<text text-anchor="middle" x="816" y="-1313.8" font-family="Times,serif" font-size="14.00">a2 != 0</text>
</g>
<!-- Node0x95bbbb0 -->
<g id="node5" class="node"><title>Node0x95bbbb0</title>
<polygon fill="none" stroke="black" points="822,-1177.5 822,-1215.5 926,-1215.5 926,-1177.5 822,-1177.5"/>
<text text-anchor="start" x="830" y="-1200.3" font-family="Times,serif" font-size="14.00">0x806e618:</text>
<text text-anchor="start" x="830" y="-1185.3" font-family="Times,serif" font-size="14.00"> if (a3 != 0):</text>
</g>
<!-- Node0x7b92430&#45;&gt;Node0x95bbbb0 -->
<g id="edge4" class="edge"><title>Node0x7b92430&#45;&gt;Node0x95bbbb0</title>
<path fill="none" stroke="black" d="M830.742,-1343.17C835.278,-1337.7 839.809,-1331.41 843,-1325 858.877,-1293.09 866.926,-1252.57 870.785,-1225.87"/>
<polygon fill="black" stroke="black" points="874.291,-1226.06 872.151,-1215.69 867.353,-1225.13 874.291,-1226.06"/>
<text text-anchor="middle" x="897" y="-1268.8" font-family="Times,serif" font-size="14.00">a2 == 0</text>
</g>
<!-- Node0x958ee70 -->
<g id="node6" class="node"><title>Node0x958ee70</title>
<polygon fill="none" stroke="black" points="602.5,-1178.5 602.5,-1214.5 701.5,-1214.5 701.5,-1178.5 602.5,-1178.5"/>
<text text-anchor="start" x="610.5" y="-1192.8" font-family="Times,serif" font-size="14.00">if (a3 != 0):</text>
</g>
<!-- Node0x95bbd60&#45;&gt;Node0x958ee70 -->
<g id="edge5" class="edge"><title>Node0x95bbd60&#45;&gt;Node0x958ee70</title>
<path fill="none" stroke="black" d="M728.293,-1253.4C714.819,-1243.53 697.996,-1231.2 683.579,-1220.64"/>
<polygon fill="black" stroke="black" points="685.547,-1217.74 675.411,-1214.65 681.409,-1223.39 685.547,-1217.74"/>
</g>
<!-- Node0x95bc910 -->
<g id="node7" class="node"><title>Node0x95bc910</title>
<polygon fill="none" stroke="black" points="739.5,-1057.5 739.5,-1125.5 1008.5,-1125.5 1008.5,-1057.5 739.5,-1057.5"/>
<text text-anchor="start" x="747.5" y="-1110.3" font-family="Times,serif" font-size="14.00">0x806e630:</text>
<text text-anchor="start" x="747.5" y="-1095.3" font-family="Times,serif" font-size="14.00"> g7 = 0</text>
<text text-anchor="start" x="747.5" y="-1080.3" font-family="Times,serif" font-size="14.00"> v12 = IntToPtrCastExpr&lt;ptr&gt;(a5)</text>
<text text-anchor="start" x="747.5" y="-1065.3" font-family="Times,serif" font-size="14.00"> v13 = 0</text>
</g>
<!-- Node0x95bbbb0&#45;&gt;Node0x95bc910 -->
<g id="edge6" class="edge"><title>Node0x95bbbb0&#45;&gt;Node0x95bc910</title>
<path fill="none" stroke="black" d="M874,-1177.09C874,-1165.63 874,-1150.39 874,-1136"/>
<polygon fill="black" stroke="black" points="877.5,-1135.74 874,-1125.74 870.5,-1135.74 877.5,-1135.74"/>
<text text-anchor="middle" x="901" y="-1147.8" font-family="Times,serif" font-size="14.00">a3 != 0</text>
</g>
<!-- Node0x7b92370 -->
<g id="node8" class="node"><title>Node0x7b92370</title>
<polygon fill="none" stroke="black" points="1266.5,-940.5 1266.5,-1038.5 1367.5,-1038.5 1367.5,-940.5 1266.5,-940.5"/>
<text text-anchor="start" x="1274.5" y="-1023.3" font-family="Times,serif" font-size="14.00">0x806e620:</text>
<text text-anchor="start" x="1274.5" y="-1008.3" font-family="Times,serif" font-size="14.00"> g1 = 0</text>
<text text-anchor="start" x="1274.5" y="-993.3" font-family="Times,serif" font-size="14.00"> *(a4) = g3</text>
<text text-anchor="start" x="1274.5" y="-978.3" font-family="Times,serif" font-size="14.00"> g3 = v3</text>
<text text-anchor="start" x="1274.5" y="-963.3" font-family="Times,serif" font-size="14.00"> g7 = v2</text>
<text text-anchor="start" x="1274.5" y="-948.3" font-family="Times,serif" font-size="14.00"> g5 = v1</text>
</g>
<!-- Node0x95bbbb0&#45;&gt;Node0x7b92370 -->
<g id="edge7" class="edge"><title>Node0x95bbbb0&#45;&gt;Node0x7b92370</title>
<path fill="none" stroke="black" d="M912.925,-1177.49C990.492,-1141.59 1164.79,-1060.94 1257.06,-1018.24"/>
<polygon fill="black" stroke="black" points="1258.67,-1021.35 1266.27,-1013.97 1255.73,-1015 1258.67,-1021.35"/>
<text text-anchor="middle" x="1007" y="-1147.8" font-family="Times,serif" font-size="14.00">a3 == 0</text>
</g>
<!-- Node0x95bcb40 -->
<g id="node9" class="node"><title>Node0x95bcb40</title>
<polygon fill="none" stroke="black" points="513,-1073.5 513,-1109.5 577,-1109.5 577,-1073.5 513,-1073.5"/>
<text text-anchor="start" x="521" y="-1087.8" font-family="Times,serif" font-size="14.00">v5 = 0</text>
</g>
<!-- Node0x958ee70&#45;&gt;Node0x95bcb40 -->
<g id="edge8" class="edge"><title>Node0x958ee70&#45;&gt;Node0x95bcb40</title>
<path fill="none" stroke="black" d="M611.43,-1178.4C601.735,-1173.1 591.914,-1166.62 584,-1159 572.208,-1147.65 562.781,-1131.96 556.151,-1118.67"/>
<polygon fill="black" stroke="black" points="559.262,-1117.07 551.824,-1109.52 552.934,-1120.06 559.262,-1117.07"/>
<text text-anchor="middle" x="611" y="-1147.8" font-family="Times,serif" font-size="14.00">a3 != 0</text>
</g>
<!-- Node0x95bc730 -->
<g id="node10" class="node"><title>Node0x95bc730</title>
<polygon fill="none" stroke="black" points="601.5,-753.5 601.5,-866.5 702.5,-866.5 702.5,-753.5 601.5,-753.5"/>
<text text-anchor="start" x="609.5" y="-851.3" font-family="Times,serif" font-size="14.00">0x806e620:</text>
<text text-anchor="start" x="609.5" y="-836.3" font-family="Times,serif" font-size="14.00"> g1 = 0</text>
<text text-anchor="start" x="609.5" y="-821.3" font-family="Times,serif" font-size="14.00"> *(a4) = g3</text>
<text text-anchor="start" x="609.5" y="-806.3" font-family="Times,serif" font-size="14.00"> g3 = v3</text>
<text text-anchor="start" x="609.5" y="-791.3" font-family="Times,serif" font-size="14.00"> g7 = v2</text>
<text text-anchor="start" x="609.5" y="-776.3" font-family="Times,serif" font-size="14.00"> g5 = v1</text>
<text text-anchor="start" x="609.5" y="-761.3" font-family="Times,serif" font-size="14.00"> return</text>
</g>
<!-- Node0x958ee70&#45;&gt;Node0x95bc730 -->
<g id="edge9" class="edge"><title>Node0x958ee70&#45;&gt;Node0x95bc730</title>
<path fill="none" stroke="black" d="M652,-1178.48C652,-1126.49 652,-967.772 652,-876.835"/>
<polygon fill="black" stroke="black" points="655.5,-876.633 652,-866.633 648.5,-876.633 655.5,-876.633"/>
<text text-anchor="middle" x="682" y="-1087.8" font-family="Times,serif" font-size="14.00">a3 == 0</text>
</g>
<!-- Node0x95bb870 -->
<g id="node11" class="node"><title>Node0x95bb870</title>
<polygon fill="none" stroke="black" points="825.5,-885.5 825.5,-921.5 922.5,-921.5 922.5,-885.5 825.5,-885.5"/>
<text text-anchor="start" x="833.5" y="-899.8" font-family="Times,serif" font-size="14.00">while True:</text>
</g>
<!-- Node0x95bc910&#45;&gt;Node0x95bb870 -->
<g id="edge10" class="edge"><title>Node0x95bc910&#45;&gt;Node0x95bb870</title>
<path fill="none" stroke="black" d="M874,-1057.25C874,-1021.57 874,-965.558 874,-932.191"/>
<polygon fill="black" stroke="black" points="877.5,-931.805 874,-921.805 870.5,-931.805 877.5,-931.805"/>
</g>
<!-- Node0x95bb720 -->
<g id="node12" class="node"><title>Node0x95bb720</title>
<polygon fill="none" stroke="black" points="709,-23.5 709,-59.5 763,-59.5 763,-23.5 709,-23.5"/>
<text text-anchor="start" x="717" y="-37.8" font-family="Times,serif" font-size="14.00">exit:</text>
</g>
<!-- Node0x7b92370&#45;&gt;Node0x95bb720 -->
<g id="edge11" class="edge"><title>Node0x7b92370&#45;&gt;Node0x95bb720</title>
<path fill="none" stroke="black" d="M1357.44,-940.22C1381.75,-906.288 1408,-858.616 1408,-811 1408,-811 1408,-811 1408,-153 1408,-88.1823 914.922,-53.33 773.498,-44.6667"/>
<polygon fill="black" stroke="black" points="773.368,-41.1526 763.175,-44.0429 772.946,-48.1399 773.368,-41.1526"/>
</g>
<!-- Node0x95bcbe0 -->
<g id="node13" class="node"><title>Node0x95bcbe0</title>
<polygon fill="none" stroke="black" points="433.5,-885.5 433.5,-921.5 530.5,-921.5 530.5,-885.5 433.5,-885.5"/>
<text text-anchor="start" x="441.5" y="-899.8" font-family="Times,serif" font-size="14.00">while True:</text>
</g>
<!-- Node0x95bcb40&#45;&gt;Node0x95bcbe0 -->
<g id="edge12" class="edge"><title>Node0x95bcb40&#45;&gt;Node0x95bcbe0</title>
<path fill="none" stroke="black" d="M539.186,-1073.33C528.169,-1040.81 504.18,-969.985 491.044,-931.203"/>
<polygon fill="black" stroke="black" points="494.323,-929.972 487.8,-921.624 487.693,-932.218 494.323,-929.972"/>
</g>
<!-- Node0x95bc730&#45;&gt;Node0x95bb720 -->
<g id="edge13" class="edge"><title>Node0x95bc730&#45;&gt;Node0x95bb720</title>
<path fill="none" stroke="black" d="M669.255,-753.458C675.017,-730.357 680,-703.117 680,-678 680,-678 680,-678 680,-153 680,-121.055 698.852,-88.9798 714.68,-67.6802"/>
<polygon fill="black" stroke="black" points="717.643,-69.5699 720.993,-59.5185 712.106,-65.2872 717.643,-69.5699"/>
</g>
<!-- Node0x95bcc80 -->
<g id="node14" class="node"><title>Node0x95bcc80</title>
<polygon fill="none" stroke="black" points="871.5,-696.5 871.5,-734.5 966.5,-734.5 966.5,-696.5 871.5,-696.5"/>
<text text-anchor="start" x="879.5" y="-719.3" font-family="Times,serif" font-size="14.00">v14 = v4</text>
<text text-anchor="start" x="879.5" y="-704.3" font-family="Times,serif" font-size="14.00"> v15 = v13</text>
</g>
<!-- Node0x95bb870&#45;&gt;Node0x95bcc80 -->
<g id="edge14" class="edge"><title>Node0x95bb870&#45;&gt;Node0x95bcc80</title>
<path fill="none" stroke="black" d="M878.153,-885.335C885.909,-853.275 902.666,-784.012 912.131,-744.894"/>
<polygon fill="black" stroke="black" points="915.643,-745.258 914.593,-734.716 908.84,-743.612 915.643,-745.258"/>
<text text-anchor="middle" x="927" y="-806.3" font-family="Times,serif" font-size="14.00">True</text>
</g>
<!-- Node0x95bc850 -->
<g id="node15" class="node"><title>Node0x95bc850</title>
<polygon fill="none" stroke="black" points="443.5,-696.5 443.5,-734.5 520.5,-734.5 520.5,-696.5 443.5,-696.5"/>
<text text-anchor="start" x="451.5" y="-719.3" font-family="Times,serif" font-size="14.00">v6 = v5</text>
<text text-anchor="start" x="451.5" y="-704.3" font-family="Times,serif" font-size="14.00"> v7 = v4</text>
</g>
<!-- Node0x95bcbe0&#45;&gt;Node0x95bc850 -->
<g id="edge15" class="edge"><title>Node0x95bcbe0&#45;&gt;Node0x95bc850</title>
<path fill="none" stroke="black" d="M482,-885.335C482,-853.275 482,-784.012 482,-744.894"/>
<polygon fill="black" stroke="black" points="485.5,-744.716 482,-734.716 478.5,-744.716 485.5,-744.716"/>
<text text-anchor="middle" x="499" y="-806.3" font-family="Times,serif" font-size="14.00">True</text>
</g>
<!-- Node0x95bcd20 -->
<g id="node16" class="node"><title>Node0x95bcd20</title>
<polygon fill="none" stroke="black" points="955.5,-622.5 955.5,-658.5 1060.5,-658.5 1060.5,-622.5 955.5,-622.5"/>
<text text-anchor="start" x="963.5" y="-636.8" font-family="Times,serif" font-size="14.00">if (v4 == 0):</text>
</g>
<!-- Node0x95bcc80&#45;&gt;Node0x95bcd20 -->
<g id="edge16" class="edge"><title>Node0x95bcc80&#45;&gt;Node0x95bcd20</title>
<path fill="none" stroke="black" d="M941,-696.455C952.57,-686.965 966.894,-675.216 979.324,-665.021"/>
<polygon fill="black" stroke="black" points="981.658,-667.633 987.17,-658.585 977.219,-662.221 981.658,-667.633"/>
</g>
<!-- Node0x95bd3d0 -->
<g id="node17" class="node"><title>Node0x95bd3d0</title>
<polygon fill="none" stroke="black" points="429.5,-622.5 429.5,-658.5 534.5,-658.5 534.5,-622.5 429.5,-622.5"/>
<text text-anchor="start" x="437.5" y="-636.8" font-family="Times,serif" font-size="14.00">if (v4 == 0):</text>
</g>
<!-- Node0x95bc850&#45;&gt;Node0x95bd3d0 -->
<g id="edge17" class="edge"><title>Node0x95bc850&#45;&gt;Node0x95bd3d0</title>
<path fill="none" stroke="black" d="M482,-696.455C482,-688.201 482,-678.238 482,-669.074"/>
<polygon fill="black" stroke="black" points="485.5,-668.835 482,-658.835 478.5,-668.835 485.5,-668.835"/>
</g>
<!-- Node0x95bdf50 -->
<g id="node18" class="node"><title>Node0x95bdf50</title>
<polygon fill="none" stroke="black" points="746,-487.5 746,-570.5 1270,-570.5 1270,-487.5 746,-487.5"/>
<text text-anchor="start" x="754" y="-555.3" font-family="Times,serif" font-size="14.00">0x806e662:</text>
<text text-anchor="start" x="754" y="-540.3" font-family="Times,serif" font-size="14.00"> g5 = a1</text>
<text text-anchor="start" x="754" y="-525.3" font-family="Times,serif" font-size="14.00"> mbedtls_blowfish_crypt_ecb(IntToPtrCastExpr&lt;ptr&gt;(a1), 1, v12, v12)</text>
<text text-anchor="start" x="754" y="-510.3" font-family="Times,serif" font-size="14.00"> v14 = g3</text>
<text text-anchor="start" x="754" y="-495.3" font-family="Times,serif" font-size="14.00"> v15 = g7</text>
</g>
<!-- Node0x95bcd20&#45;&gt;Node0x95bdf50 -->
<g id="edge18" class="edge"><title>Node0x95bcd20&#45;&gt;Node0x95bdf50</title>
<path fill="none" stroke="black" d="M1008,-622.391C1008,-611.15 1008,-595.807 1008,-580.853"/>
<polygon fill="black" stroke="black" points="1011.5,-580.618 1008,-570.618 1004.5,-580.618 1011.5,-580.618"/>
<text text-anchor="middle" x="1038" y="-592.8" font-family="Times,serif" font-size="14.00">v4 == 0</text>
</g>
<!-- Node0x95bcf10 -->
<g id="node19" class="node"><title>Node0x95bcf10</title>
<polygon fill="none" stroke="black" points="746.5,-336.5 746.5,-449.5 1379.5,-449.5 1379.5,-336.5 746.5,-336.5"/>
<text text-anchor="start" x="754.5" y="-434.3" font-family="Times,serif" font-size="14.00">v16 = *(IntToPtrCastExpr&lt;ptr&gt;((v15 + a6)))</text>
<text text-anchor="start" x="754.5" y="-419.3" font-family="Times,serif" font-size="14.00"> v17 = (v14 + a5)</text>
<text text-anchor="start" x="754.5" y="-404.3" font-family="Times,serif" font-size="14.00"> g3 = ((v14 + 1) % 8)</text>
<text text-anchor="start" x="754.5" y="-389.3" font-family="Times,serif" font-size="14.00"> *(IntToPtrCastExpr&lt;ptr&gt;((v15 + a7))) = (*(IntToPtrCastExpr&lt;ptr&gt;(v17)) ^ v16)</text>
<text text-anchor="start" x="754.5" y="-374.3" font-family="Times,serif" font-size="14.00"> g7 = (g7 + 1)</text>
<text text-anchor="start" x="754.5" y="-359.3" font-family="Times,serif" font-size="14.00"> *(IntToPtrCastExpr&lt;ptr&gt;(v17)) = TruncCastExpr&lt;int8&gt;(ExtCastExpr&lt;int32&gt;(v16))</text>
<text text-anchor="start" x="754.5" y="-344.3" font-family="Times,serif" font-size="14.00"> v18 = g7</text>
</g>
<!-- Node0x95bcd20&#45;&gt;Node0x95bcf10 -->
<g id="edge19" class="edge"><title>Node0x95bcd20&#45;&gt;Node0x95bcf10</title>
<path fill="none" stroke="black" d="M1060.75,-633.788C1131.81,-624.883 1252.46,-605.077 1279,-571 1301.94,-541.544 1299.53,-518.185 1279,-487 1271.23,-475.2 1261.62,-464.89 1250.8,-455.884"/>
<polygon fill="black" stroke="black" points="1252.75,-452.965 1242.72,-449.554 1248.43,-458.476 1252.75,-452.965"/>
<text text-anchor="middle" x="1322" y="-525.3" font-family="Times,serif" font-size="14.00">v4 != 0</text>
</g>
<!-- Node0x95be260 -->
<g id="node20" class="node"><title>Node0x95be260</title>
<polygon fill="none" stroke="black" points="42,-495 42,-563 548,-563 548,-495 42,-495"/>
<text text-anchor="start" x="50" y="-547.8" font-family="Times,serif" font-size="14.00">v8 = IntToPtrCastExpr&lt;ptr&gt;(g5)</text>
<text text-anchor="start" x="50" y="-532.8" font-family="Times,serif" font-size="14.00"> mbedtls_blowfish_crypt_ecb(IntToPtrCastExpr&lt;ptr&gt;(a1), 1, v8, v8)</text>
<text text-anchor="start" x="50" y="-517.8" font-family="Times,serif" font-size="14.00"> v6 = g7</text>
<text text-anchor="start" x="50" y="-502.8" font-family="Times,serif" font-size="14.00"> v7 = g3</text>
</g>
<!-- Node0x95bd3d0&#45;&gt;Node0x95be260 -->
<g id="edge20" class="edge"><title>Node0x95bd3d0&#45;&gt;Node0x95be260</title>
<path fill="none" stroke="black" d="M452.781,-622.391C428.087,-607.931 391.798,-586.681 360.247,-568.206"/>
<polygon fill="black" stroke="black" points="361.885,-565.109 351.487,-563.076 358.347,-571.15 361.885,-565.109"/>
<text text-anchor="middle" x="447" y="-592.8" font-family="Times,serif" font-size="14.00">v4 == 0</text>
</g>
<!-- Node0x95bdb50 -->
<g id="node21" class="node"><title>Node0x95bdb50</title>
<polygon fill="none" stroke="black" points="28,-336.5 28,-449.5 652,-449.5 652,-336.5 28,-336.5"/>
<text text-anchor="start" x="36" y="-434.3" font-family="Times,serif" font-size="14.00">v9 = (g5 + v7)</text>
<text text-anchor="start" x="36" y="-419.3" font-family="Times,serif" font-size="14.00"> g3 = ((v7 + 1) % 8)</text>
<text text-anchor="start" x="36" y="-404.3" font-family="Times,serif" font-size="14.00"> v10 = (*(IntToPtrCastExpr&lt;ptr&gt;((v6 + a6))) ^ *(IntToPtrCastExpr&lt;ptr&gt;(v9)))</text>
<text text-anchor="start" x="36" y="-389.3" font-family="Times,serif" font-size="14.00"> *(IntToPtrCastExpr&lt;ptr&gt;((v6 + a7))) = v10</text>
<text text-anchor="start" x="36" y="-374.3" font-family="Times,serif" font-size="14.00"> g7 = (g7 + 1)</text>
<text text-anchor="start" x="36" y="-359.3" font-family="Times,serif" font-size="14.00"> *(IntToPtrCastExpr&lt;ptr&gt;(v9)) = TruncCastExpr&lt;int8&gt;(ExtCastExpr&lt;int32&gt;(v10))</text>
<text text-anchor="start" x="36" y="-344.3" font-family="Times,serif" font-size="14.00"> v11 = g7</text>
</g>
<!-- Node0x95bd3d0&#45;&gt;Node0x95bdb50 -->
<g id="edge21" class="edge"><title>Node0x95bd3d0&#45;&gt;Node0x95bdb50</title>
<path fill="none" stroke="black" d="M510.369,-622.388C527.363,-610.376 547.465,-592.621 557,-571 572.064,-536.841 577.552,-518.167 557,-487 549.284,-475.298 539.756,-465.062 529.039,-456.111"/>
<polygon fill="black" stroke="black" points="531.059,-453.246 521.034,-449.817 526.732,-458.749 531.059,-453.246"/>
<text text-anchor="middle" x="598" y="-525.3" font-family="Times,serif" font-size="14.00">v4 != 0</text>
</g>
<!-- Node0x95bdf50&#45;&gt;Node0x95bcf10 -->
<g id="edge22" class="edge"><title>Node0x95bdf50&#45;&gt;Node0x95bcf10</title>
<path fill="none" stroke="black" d="M1024.65,-487.432C1028.3,-478.535 1032.26,-468.897 1036.2,-459.306"/>
<polygon fill="black" stroke="black" points="1039.55,-460.339 1040.11,-449.759 1033.08,-457.681 1039.55,-460.339"/>
</g>
<!-- Node0x95bd210 -->
<g id="node22" class="node"><title>Node0x95bd210</title>
<polygon fill="none" stroke="black" points="820,-262.5 820,-298.5 936,-298.5 936,-262.5 820,-262.5"/>
<text text-anchor="start" x="828" y="-276.8" font-family="Times,serif" font-size="14.00">if (v18 != a3):</text>
</g>
<!-- Node0x95bcf10&#45;&gt;Node0x95bd210 -->
<g id="edge23" class="edge"><title>Node0x95bcf10&#45;&gt;Node0x95bd210</title>
<path fill="none" stroke="black" d="M969.958,-336.426C950.703,-324.925 931.479,-313.443 915.624,-303.973"/>
<polygon fill="black" stroke="black" points="917.083,-300.768 906.703,-298.644 913.494,-306.777 917.083,-300.768"/>
</g>
<!-- Node0x95be260&#45;&gt;Node0x95bdb50 -->
<g id="edge24" class="edge"><title>Node0x95be260&#45;&gt;Node0x95bdb50</title>
<path fill="none" stroke="black" d="M306.124,-494.876C309.738,-484.113 313.884,-471.767 318.007,-459.489"/>
<polygon fill="black" stroke="black" points="321.433,-460.282 321.299,-449.688 314.797,-458.054 321.433,-460.282"/>
</g>
<!-- Node0x95bdca0 -->
<g id="node23" class="node"><title>Node0x95bdca0</title>
<polygon fill="none" stroke="black" points="282,-262.5 282,-298.5 398,-298.5 398,-262.5 282,-262.5"/>
<text text-anchor="start" x="290" y="-276.8" font-family="Times,serif" font-size="14.00">if (v11 != a3):</text>
</g>
<!-- Node0x95bdb50&#45;&gt;Node0x95bdca0 -->
<g id="edge25" class="edge"><title>Node0x95bdb50&#45;&gt;Node0x95bdca0</title>
<path fill="none" stroke="black" d="M340,-336.426C340,-326.86 340,-317.307 340,-308.913"/>
<polygon fill="black" stroke="black" points="343.5,-308.644 340,-298.644 336.5,-308.644 343.5,-308.644"/>
</g>
<!-- Node0x95be110 -->
<g id="node24" class="node"><title>Node0x95be110</title>
<polygon fill="none" stroke="black" points="708.5,-120 708.5,-188 809.5,-188 809.5,-120 708.5,-120"/>
<text text-anchor="start" x="716.5" y="-172.8" font-family="Times,serif" font-size="14.00">0x806e638:</text>
<text text-anchor="start" x="716.5" y="-157.8" font-family="Times,serif" font-size="14.00"> v13 = v18</text>
<text text-anchor="start" x="716.5" y="-142.8" font-family="Times,serif" font-size="14.00"> v4 = g3</text>
<text text-anchor="start" x="716.5" y="-127.8" font-family="Times,serif" font-size="14.00"> continue</text>
</g>
<!-- Node0x95bd210&#45;&gt;Node0x95be110 -->
<g id="edge26" class="edge"><title>Node0x95bd210&#45;&gt;Node0x95be110</title>
<path fill="none" stroke="black" d="M829.314,-262.316C819.82,-257.427 810.499,-251.372 803,-244 789.951,-231.171 780.158,-213.677 773.164,-197.593"/>
<polygon fill="black" stroke="black" points="776.399,-196.256 769.366,-188.331 769.922,-198.911 776.399,-196.256"/>
<text text-anchor="middle" x="838.5" y="-232.8" font-family="Times,serif" font-size="14.00">v18 != a3</text>
</g>
<!-- Node0x95bd370 -->
<g id="node25" class="node"><title>Node0x95bd370</title>
<polygon fill="none" stroke="black" points="827.5,-97.5 827.5,-210.5 928.5,-210.5 928.5,-97.5 827.5,-97.5"/>
<text text-anchor="start" x="835.5" y="-195.3" font-family="Times,serif" font-size="14.00">0x806e620:</text>
<text text-anchor="start" x="835.5" y="-180.3" font-family="Times,serif" font-size="14.00"> g1 = 0</text>
<text text-anchor="start" x="835.5" y="-165.3" font-family="Times,serif" font-size="14.00"> *(a4) = g3</text>
<text text-anchor="start" x="835.5" y="-150.3" font-family="Times,serif" font-size="14.00"> g3 = v3</text>
<text text-anchor="start" x="835.5" y="-135.3" font-family="Times,serif" font-size="14.00"> g7 = v2</text>
<text text-anchor="start" x="835.5" y="-120.3" font-family="Times,serif" font-size="14.00"> g5 = v1</text>
<text text-anchor="start" x="835.5" y="-105.3" font-family="Times,serif" font-size="14.00"> return</text>
</g>
<!-- Node0x95bd210&#45;&gt;Node0x95bd370 -->
<g id="edge27" class="edge"><title>Node0x95bd210&#45;&gt;Node0x95bd370</title>
<path fill="none" stroke="black" d="M878,-262.45C878,-251.415 878,-236.268 878,-220.826"/>
<polygon fill="black" stroke="black" points="881.5,-220.677 878,-210.677 874.5,-220.677 881.5,-220.677"/>
<text text-anchor="middle" x="916.5" y="-232.8" font-family="Times,serif" font-size="14.00">v18 == a3</text>
</g>
<!-- Node0x95b9d00 -->
<g id="node26" class="node"><title>Node0x95b9d00</title>
<polygon fill="none" stroke="black" points="69.5,-120 69.5,-188 170.5,-188 170.5,-120 69.5,-120"/>
<text text-anchor="start" x="77.5" y="-172.8" font-family="Times,serif" font-size="14.00">0x806e5d0:</text>
<text text-anchor="start" x="77.5" y="-157.8" font-family="Times,serif" font-size="14.00"> v5 = v11</text>
<text text-anchor="start" x="77.5" y="-142.8" font-family="Times,serif" font-size="14.00"> v4 = g3</text>
<text text-anchor="start" x="77.5" y="-127.8" font-family="Times,serif" font-size="14.00"> continue</text>
</g>
<!-- Node0x95bdca0&#45;&gt;Node0x95b9d00 -->
<g id="edge28" class="edge"><title>Node0x95bdca0&#45;&gt;Node0x95b9d00</title>
<path fill="none" stroke="black" d="M309.871,-262.45C276.472,-243.549 221.758,-212.586 179.623,-188.741"/>
<polygon fill="black" stroke="black" points="181.262,-185.647 170.835,-183.768 177.814,-191.739 181.262,-185.647"/>
<text text-anchor="middle" x="310.5" y="-232.8" font-family="Times,serif" font-size="14.00">v11 != a3</text>
</g>
<!-- Node0x95bde30 -->
<g id="node27" class="node"><title>Node0x95bde30</title>
<polygon fill="none" stroke="black" points="470.5,-97.5 470.5,-210.5 571.5,-210.5 571.5,-97.5 470.5,-97.5"/>
<text text-anchor="start" x="478.5" y="-195.3" font-family="Times,serif" font-size="14.00">0x806e620:</text>
<text text-anchor="start" x="478.5" y="-180.3" font-family="Times,serif" font-size="14.00"> g1 = 0</text>
<text text-anchor="start" x="478.5" y="-165.3" font-family="Times,serif" font-size="14.00"> *(a4) = g3</text>
<text text-anchor="start" x="478.5" y="-150.3" font-family="Times,serif" font-size="14.00"> g3 = v3</text>
<text text-anchor="start" x="478.5" y="-135.3" font-family="Times,serif" font-size="14.00"> g7 = v2</text>
<text text-anchor="start" x="478.5" y="-120.3" font-family="Times,serif" font-size="14.00"> g5 = v1</text>
<text text-anchor="start" x="478.5" y="-105.3" font-family="Times,serif" font-size="14.00"> return</text>
</g>
<!-- Node0x95bdca0&#45;&gt;Node0x95bde30 -->
<g id="edge29" class="edge"><title>Node0x95bdca0&#45;&gt;Node0x95bde30</title>
<path fill="none" stroke="black" d="M364.788,-262.45C389.584,-245.394 428.661,-218.515 461.527,-195.908"/>
<polygon fill="black" stroke="black" points="463.919,-198.511 470.174,-189.96 459.951,-192.744 463.919,-198.511"/>
<text text-anchor="middle" x="447.5" y="-232.8" font-family="Times,serif" font-size="14.00">v11 == a3</text>
</g>
<!-- Node0x95be110&#45;&gt;Node0x95bb870 -->
<g id="edge30" class="edge"><title>Node0x95be110&#45;&gt;Node0x95bb870</title>
<path fill="none" stroke="black" d="M741.731,-188.114C730.526,-212.659 718,-247.3 718,-279.5 718,-716.5 718,-716.5 718,-716.5 718,-789.551 789.513,-848.947 835.702,-879.691"/>
<polygon fill="black" stroke="black" points="833.999,-882.758 844.29,-885.274 837.814,-876.889 833.999,-882.758"/>
</g>
<!-- Node0x95bd370&#45;&gt;Node0x95bb720 -->
<g id="edge31" class="edge"><title>Node0x95bd370&#45;&gt;Node0x95bb720</title>
<path fill="none" stroke="black" d="M827.445,-104.75C824.294,-102.076 821.13,-99.4737 818,-97 803.562,-85.5903 786.765,-74.1387 772.148,-64.6982"/>
<polygon fill="black" stroke="black" points="773.682,-61.5251 763.368,-59.0984 769.917,-67.4269 773.682,-61.5251"/>
</g>
<!-- Node0x95b9d00&#45;&gt;Node0x95bcbe0 -->
<g id="edge32" class="edge"><title>Node0x95b9d00&#45;&gt;Node0x95bcbe0</title>
<path fill="none" stroke="black" d="M69.457,-181.945C36.6618,-203.465 0,-237.021 0,-279.5 0,-716.5 0,-716.5 0,-716.5 0,-806.232 294.429,-869.318 423.055,-892.597"/>
<polygon fill="black" stroke="black" points="422.671,-896.084 433.131,-894.401 423.904,-889.194 422.671,-896.084"/>
</g>
<!-- Node0x95bde30&#45;&gt;Node0x95bb720 -->
<g id="edge33" class="edge"><title>Node0x95bde30&#45;&gt;Node0x95bb720</title>
<path fill="none" stroke="black" d="M571.613,-126.695C599.441,-112.264 634.594,-94.0854 666,-78 676.881,-72.4269 688.733,-66.3998 699.539,-60.9216"/>
<polygon fill="black" stroke="black" points="701.376,-63.9147 708.715,-56.2738 698.213,-57.67 701.376,-63.9147"/>
</g>
</g>
</svg>
