<?xml version="1.0" encoding="UTF-8" standalone="no"?>
<!DOCTYPE svg PUBLIC "-//W3C//DTD SVG 1.1//EN"
 "http://www.w3.org/Graphics/SVG/1.1/DTD/svg11.dtd">
<!-- Generated by graphviz version 2.38.0 (20140413.2041)
 -->
<!-- Title: Control&#45;flow graph for function &#39;rsa_free_wrap(a1, a2, a3)&#39;. Pages: 1 -->
<svg width="446pt" height="383pt"
 viewBox="0.00 0.00 446.00 383.00" xmlns="http://www.w3.org/2000/svg" xmlns:xlink="http://www.w3.org/1999/xlink">
<g id="graph0" class="graph" transform="scale(1 1) rotate(0) translate(4 379)">
<title>Control&#45;flow graph for function &#39;rsa_free_wrap(a1, a2, a3)&#39;.</title>
<polygon fill="white" stroke="none" points="-4,4 -4,-379 442,-379 442,4 -4,4"/>
<text text-anchor="middle" x="219" y="-7.8" font-family="Times,serif" font-size="14.00">Control&#45;flow graph for function &#39;rsa_free_wrap(a1, a2, a3)&#39;.</text>
<!-- Node0x50fc480 -->
<g id="node1" class="node"><title>Node0x50fc480</title>
<polygon fill="none" stroke="black" points="189.5,-306.5 189.5,-374.5 248.5,-374.5 248.5,-306.5 189.5,-306.5"/>
<text text-anchor="start" x="197.5" y="-359.3" font-family="Times,serif" font-size="14.00">entry:</text>
<text text-anchor="start" x="197.5" y="-344.3" font-family="Times,serif" font-size="14.00"> a1</text>
<text text-anchor="start" x="197.5" y="-329.3" font-family="Times,serif" font-size="14.00"> a2</text>
<text text-anchor="start" x="197.5" y="-314.3" font-family="Times,serif" font-size="14.00"> a3</text>
</g>
<!-- Node0xe621ba0 -->
<g id="node2" class="node"><title>Node0xe621ba0</title>
<polygon fill="none" stroke="black" points="80.5,-96.5 80.5,-269.5 357.5,-269.5 357.5,-96.5 80.5,-96.5"/>
<text text-anchor="start" x="88.5" y="-254.3" font-family="Times,serif" font-size="14.00">0x804d830:</text>
<text text-anchor="start" x="88.5" y="-239.3" font-family="Times,serif" font-size="14.00"> v1</text>
<text text-anchor="start" x="88.5" y="-224.3" font-family="Times,serif" font-size="14.00"> v2 = IntToPtrCastExpr&lt;ptr&gt;(v1)</text>
<text text-anchor="start" x="88.5" y="-209.3" font-family="Times,serif" font-size="14.00"> v3 = g3</text>
<text text-anchor="start" x="88.5" y="-194.3" font-family="Times,serif" font-size="14.00"> g3 = a1</text>
<text text-anchor="start" x="88.5" y="-179.3" font-family="Times,serif" font-size="14.00"> result = mbedtls_rsa_free(a1, 0)</text>
<text text-anchor="start" x="88.5" y="-164.3" font-family="Times,serif" font-size="14.00"> g1 = result</text>
<text text-anchor="start" x="88.5" y="-149.3" font-family="Times,serif" font-size="14.00"> g3 = v3</text>
<text text-anchor="start" x="88.5" y="-134.3" font-family="Times,serif" font-size="14.00"> g2 = PtrToIntCastExpr&lt;int32&gt;(v2)</text>
<text text-anchor="start" x="88.5" y="-119.3" font-family="Times,serif" font-size="14.00"> free(v2)</text>
<text text-anchor="start" x="88.5" y="-104.3" font-family="Times,serif" font-size="14.00"> return result</text>
</g>
<!-- Node0x50fc480&#45;&gt;Node0xe621ba0 -->
<g id="edge1" class="edge"><title>Node0x50fc480&#45;&gt;Node0xe621ba0</title>
<path fill="none" stroke="black" d="M219,-306.141C219,-298.146 219,-289.209 219,-279.904"/>
<polygon fill="black" stroke="black" points="222.5,-279.69 219,-269.691 215.5,-279.691 222.5,-279.69"/>
</g>
<!-- Node0xe621b20 -->
<g id="node3" class="node"><title>Node0xe621b20</title>
<polygon fill="none" stroke="black" points="192,-23.5 192,-59.5 246,-59.5 246,-23.5 192,-23.5"/>
<text text-anchor="start" x="200" y="-37.8" font-family="Times,serif" font-size="14.00">exit:</text>
</g>
<!-- Node0xe621ba0&#45;&gt;Node0xe621b20 -->
<g id="edge2" class="edge"><title>Node0xe621ba0&#45;&gt;Node0xe621b20</title>
<path fill="none" stroke="black" d="M219,-96.4343C219,-86.8184 219,-77.6259 219,-69.641"/>
<polygon fill="black" stroke="black" points="222.5,-69.5749 219,-59.5749 215.5,-69.5749 222.5,-69.5749"/>
</g>
</g>
</svg>
