<?xml version="1.0" encoding="UTF-8" standalone="no"?>
<!DOCTYPE svg PUBLIC "-//W3C//DTD SVG 1.1//EN"
 "http://www.w3.org/Graphics/SVG/1.1/DTD/svg11.dtd">
<!-- Generated by graphviz version 2.38.0 (20140413.2041)
 -->
<!-- Title: Control&#45;flow graph for function &#39;__copy_tls(*a1)&#39;. Pages: 1 -->
<svg width="529pt" height="567pt"
 viewBox="0.00 0.00 528.50 567.00" xmlns="http://www.w3.org/2000/svg" xmlns:xlink="http://www.w3.org/1999/xlink">
<g id="graph0" class="graph" transform="scale(1 1) rotate(0) translate(4 563)">
<title>Control&#45;flow graph for function &#39;__copy_tls(*a1)&#39;.</title>
<polygon fill="white" stroke="none" points="-4,4 -4,-563 524.5,-563 524.5,4 -4,4"/>
<text text-anchor="middle" x="260.25" y="-7.8" font-family="Times,serif" font-size="14.00">Control&#45;flow graph for function &#39;__copy_tls(*a1)&#39;.</text>
<!-- Node0x13d6d1b0 -->
<g id="node1" class="node"><title>Node0x13d6d1b0</title>
<polygon fill="none" stroke="black" points="291,-520.5 291,-558.5 350,-558.5 350,-520.5 291,-520.5"/>
<text text-anchor="start" x="299" y="-543.3" font-family="Times,serif" font-size="14.00">entry:</text>
<text text-anchor="start" x="299" y="-528.3" font-family="Times,serif" font-size="14.00"> a1</text>
</g>
<!-- Node0x27378b00 -->
<g id="node2" class="node"><title>Node0x27378b00</title>
<polygon fill="none" stroke="black" points="184.5,-444.5 184.5,-482.5 456.5,-482.5 456.5,-444.5 184.5,-444.5"/>
<text text-anchor="start" x="192.5" y="-467.3" font-family="Times,serif" font-size="14.00">v1 = PtrToIntCastExpr&lt;int32&gt;(a1)</text>
<text text-anchor="start" x="192.5" y="-452.3" font-family="Times,serif" font-size="14.00"> result</text>
</g>
<!-- Node0x13d6d1b0&#45;&gt;Node0x27378b00 -->
<g id="edge1" class="edge"><title>Node0x13d6d1b0&#45;&gt;Node0x27378b00</title>
<path fill="none" stroke="black" d="M320.5,-520.208C320.5,-511.964 320.5,-502.038 320.5,-492.862"/>
<polygon fill="black" stroke="black" points="324,-492.582 320.5,-482.582 317,-492.582 324,-492.582"/>
</g>
<!-- Node0x27378ba0 -->
<g id="node3" class="node"><title>Node0x27378ba0</title>
<polygon fill="none" stroke="black" points="244.5,-368.5 244.5,-406.5 396.5,-406.5 396.5,-368.5 244.5,-368.5"/>
<text text-anchor="start" x="252.5" y="-391.3" font-family="Times,serif" font-size="14.00">if (g233 != NULL):</text>
<text text-anchor="start" x="252.5" y="-376.3" font-family="Times,serif" font-size="14.00"> else:</text>
</g>
<!-- Node0x27378b00&#45;&gt;Node0x27378ba0 -->
<g id="edge2" class="edge"><title>Node0x27378b00&#45;&gt;Node0x27378ba0</title>
<path fill="none" stroke="black" d="M320.5,-444.208C320.5,-435.964 320.5,-426.038 320.5,-416.862"/>
<polygon fill="black" stroke="black" points="324,-416.582 320.5,-406.582 317,-416.582 324,-416.582"/>
</g>
<!-- Node0x27379010 -->
<g id="node4" class="node"><title>Node0x27379010</title>
<polygon fill="none" stroke="black" points="0,-173.5 0,-316.5 383,-316.5 383,-173.5 0,-173.5"/>
<text text-anchor="start" x="8" y="-301.3" font-family="Times,serif" font-size="14.00">0x807596f:</text>
<text text-anchor="start" x="8" y="-286.3" font-family="Times,serif" font-size="14.00"> *(a1) = 1</text>
<text text-anchor="start" x="8" y="-271.3" font-family="Times,serif" font-size="14.00"> v2 = (((g231 &#45; 212) + v1) &amp; &#45;(g236))</text>
<text text-anchor="start" x="8" y="-256.3" font-family="Times,serif" font-size="14.00"> result = v2</text>
<text text-anchor="start" x="8" y="-241.3" font-family="Times,serif" font-size="14.00"> v3 = (v2 &#45; g235)</text>
<text text-anchor="start" x="8" y="-226.3" font-family="Times,serif" font-size="14.00"> *(IntToPtrCastExpr&lt;ptr&gt;((v2 + 208))) = v1</text>
<text text-anchor="start" x="8" y="-211.3" font-family="Times,serif" font-size="14.00"> *(IntToPtrCastExpr&lt;ptr&gt;((result + 4))) = v1</text>
<text text-anchor="start" x="8" y="-196.3" font-family="Times,serif" font-size="14.00"> *(IntToPtrCastExpr&lt;ptr&gt;((v1 + 4))) = v3</text>
<text text-anchor="start" x="8" y="-181.3" font-family="Times,serif" font-size="14.00"> memcpy(IntToPtrCastExpr&lt;ptr&gt;(v3), g233, g234)</text>
</g>
<!-- Node0x27378ba0&#45;&gt;Node0x27379010 -->
<g id="edge3" class="edge"><title>Node0x27378ba0&#45;&gt;Node0x27379010</title>
<path fill="none" stroke="black" d="M303.9,-368.42C293.219,-356.787 278.523,-340.781 263.278,-324.177"/>
<polygon fill="black" stroke="black" points="265.589,-321.518 256.247,-316.519 260.432,-326.253 265.589,-321.518"/>
<text text-anchor="middle" x="340" y="-338.8" font-family="Times,serif" font-size="14.00">g233 != NULL</text>
</g>
<!-- Node0x13d70890 -->
<g id="node5" class="node"><title>Node0x13d70890</title>
<polygon fill="none" stroke="black" points="401,-227 401,-263 498,-263 498,-227 401,-227"/>
<text text-anchor="start" x="409" y="-241.3" font-family="Times,serif" font-size="14.00">result = v1</text>
</g>
<!-- Node0x27378ba0&#45;&gt;Node0x13d70890 -->
<g id="edge4" class="edge"><title>Node0x27378ba0&#45;&gt;Node0x13d70890</title>
<path fill="none" stroke="black" d="M369.466,-368.314C378.833,-363.347 388.032,-357.276 395.5,-350 417.713,-328.357 432.619,-295.612 441.044,-272.662"/>
<polygon fill="black" stroke="black" points="444.361,-273.779 444.361,-263.184 437.754,-271.467 444.361,-273.779"/>
<text text-anchor="middle" x="464" y="-338.8" font-family="Times,serif" font-size="14.00">g233 == NULL</text>
</g>
<!-- Node0x27378f60 -->
<g id="node6" class="node"><title>Node0x27378f60</title>
<polygon fill="none" stroke="black" points="292,-97.5 292,-135.5 405,-135.5 405,-97.5 292,-97.5"/>
<text text-anchor="start" x="300" y="-120.3" font-family="Times,serif" font-size="14.00">0x80759b7:</text>
<text text-anchor="start" x="300" y="-105.3" font-family="Times,serif" font-size="14.00"> return result</text>
</g>
<!-- Node0x27379010&#45;&gt;Node0x27378f60 -->
<g id="edge5" class="edge"><title>Node0x27379010&#45;&gt;Node0x27378f60</title>
<path fill="none" stroke="black" d="M279.181,-173.353C293.198,-162.059 306.819,-151.084 318.224,-141.895"/>
<polygon fill="black" stroke="black" points="320.519,-144.54 326.11,-135.54 316.127,-139.089 320.519,-144.54"/>
</g>
<!-- Node0x13d70890&#45;&gt;Node0x27378f60 -->
<g id="edge6" class="edge"><title>Node0x13d70890&#45;&gt;Node0x27378f60</title>
<path fill="none" stroke="black" d="M435.879,-226.94C418.753,-205.491 389.187,-168.46 369.244,-143.482"/>
<polygon fill="black" stroke="black" points="371.857,-141.144 362.882,-135.513 366.386,-145.512 371.857,-141.144"/>
</g>
<!-- Node0x27378a80 -->
<g id="node7" class="node"><title>Node0x27378a80</title>
<polygon fill="none" stroke="black" points="321.5,-23.5 321.5,-59.5 375.5,-59.5 375.5,-23.5 321.5,-23.5"/>
<text text-anchor="start" x="329.5" y="-37.8" font-family="Times,serif" font-size="14.00">exit:</text>
</g>
<!-- Node0x27378f60&#45;&gt;Node0x27378a80 -->
<g id="edge7" class="edge"><title>Node0x27378f60&#45;&gt;Node0x27378a80</title>
<path fill="none" stroke="black" d="M348.5,-97.4551C348.5,-89.2008 348.5,-79.2377 348.5,-70.0742"/>
<polygon fill="black" stroke="black" points="352,-69.8347 348.5,-59.8347 345,-69.8347 352,-69.8347"/>
</g>
</g>
</svg>
