<?xml version="1.0" encoding="UTF-8" standalone="no"?>
<!DOCTYPE svg PUBLIC "-//W3C//DTD SVG 1.1//EN"
 "http://www.w3.org/Graphics/SVG/1.1/DTD/svg11.dtd">
<!-- Generated by graphviz version 2.38.0 (20140413.2041)
 -->
<!-- Title: Control&#45;flow graph for function &#39;mbedtls_rsa_pkcs1_decrypt(a1, a2, a3, a4, a5, a6, a7, a8, a9, a10, a11, a12)&#39;. Pages: 1 -->
<svg width="2075pt" height="1015pt"
 viewBox="0.00 0.00 2075.00 1015.00" xmlns="http://www.w3.org/2000/svg" xmlns:xlink="http://www.w3.org/1999/xlink">
<g id="graph0" class="graph" transform="scale(1 1) rotate(0) translate(4 1011)">
<title>Control&#45;flow graph for function &#39;mbedtls_rsa_pkcs1_decrypt(a1, a2, a3, a4, a5, a6, a7, a8, a9, a10, a11, a12)&#39;.</title>
<polygon fill="white" stroke="none" points="-4,4 -4,-1011 2071,-1011 2071,4 -4,4"/>
<text text-anchor="middle" x="1033.5" y="-7.8" font-family="Times,serif" font-size="14.00">Control&#45;flow graph for function &#39;mbedtls_rsa_pkcs1_decrypt(a1, a2, a3, a4, a5, a6, a7, a8, a9, a10, a11, a12)&#39;.</text>
<!-- Node0xf4b3310 -->
<g id="node1" class="node"><title>Node0xf4b3310</title>
<polygon fill="none" stroke="black" points="928.5,-803.5 928.5,-1006.5 987.5,-1006.5 987.5,-803.5 928.5,-803.5"/>
<text text-anchor="start" x="936.5" y="-991.3" font-family="Times,serif" font-size="14.00">entry:</text>
<text text-anchor="start" x="936.5" y="-976.3" font-family="Times,serif" font-size="14.00"> a1</text>
<text text-anchor="start" x="936.5" y="-961.3" font-family="Times,serif" font-size="14.00"> a2</text>
<text text-anchor="start" x="936.5" y="-946.3" font-family="Times,serif" font-size="14.00"> a3</text>
<text text-anchor="start" x="936.5" y="-931.3" font-family="Times,serif" font-size="14.00"> a4</text>
<text text-anchor="start" x="936.5" y="-916.3" font-family="Times,serif" font-size="14.00"> a5</text>
<text text-anchor="start" x="936.5" y="-901.3" font-family="Times,serif" font-size="14.00"> a6</text>
<text text-anchor="start" x="936.5" y="-886.3" font-family="Times,serif" font-size="14.00"> a7</text>
<text text-anchor="start" x="936.5" y="-871.3" font-family="Times,serif" font-size="14.00"> a8</text>
<text text-anchor="start" x="936.5" y="-856.3" font-family="Times,serif" font-size="14.00"> a9</text>
<text text-anchor="start" x="936.5" y="-841.3" font-family="Times,serif" font-size="14.00"> a10</text>
<text text-anchor="start" x="936.5" y="-826.3" font-family="Times,serif" font-size="14.00"> a11</text>
<text text-anchor="start" x="936.5" y="-811.3" font-family="Times,serif" font-size="14.00"> a12</text>
</g>
<!-- Node0x151b7950 -->
<g id="node2" class="node"><title>Node0x151b7950</title>
<polygon fill="none" stroke="black" points="789.5,-562.5 789.5,-765.5 1126.5,-765.5 1126.5,-562.5 789.5,-562.5"/>
<text text-anchor="start" x="797.5" y="-750.3" font-family="Times,serif" font-size="14.00">0x8050ee0:</text>
<text text-anchor="start" x="797.5" y="-735.3" font-family="Times,serif" font-size="14.00"> v1</text>
<text text-anchor="start" x="797.5" y="-720.3" font-family="Times,serif" font-size="14.00"> v2 = v1</text>
<text text-anchor="start" x="797.5" y="-705.3" font-family="Times,serif" font-size="14.00"> v3 = g3</text>
<text text-anchor="start" x="797.5" y="-690.3" font-family="Times,serif" font-size="14.00"> g3 = a6</text>
<text text-anchor="start" x="797.5" y="-675.3" font-family="Times,serif" font-size="14.00"> v4 = g7</text>
<text text-anchor="start" x="797.5" y="-660.3" font-family="Times,serif" font-size="14.00"> g7 = a7</text>
<text text-anchor="start" x="797.5" y="-645.3" font-family="Times,serif" font-size="14.00"> v5 = g5</text>
<text text-anchor="start" x="797.5" y="-630.3" font-family="Times,serif" font-size="14.00"> v6 = *(IntToPtrCastExpr&lt;ptr&gt;((a1 + 164)))</text>
<text text-anchor="start" x="797.5" y="-615.3" font-family="Times,serif" font-size="14.00"> g4 = v6</text>
<text text-anchor="start" x="797.5" y="-600.3" font-family="Times,serif" font-size="14.00"> g5 = a8</text>
<text text-anchor="start" x="797.5" y="-585.3" font-family="Times,serif" font-size="14.00"> v7 = &amp;(v2)</text>
<text text-anchor="start" x="797.5" y="-570.3" font-family="Times,serif" font-size="14.00"> v8 = v6</text>
</g>
<!-- Node0xf4b3310&#45;&gt;Node0x151b7950 -->
<g id="edge1" class="edge"><title>Node0xf4b3310&#45;&gt;Node0x151b7950</title>
<path fill="none" stroke="black" d="M958,-803.335C958,-794.154 958,-784.821 958,-775.559"/>
<polygon fill="black" stroke="black" points="961.5,-775.548 958,-765.549 954.5,-775.549 961.5,-775.548"/>
</g>
<!-- Node0x15ce3fb0 -->
<g id="node3" class="node"><title>Node0x15ce3fb0</title>
<polygon fill="none" stroke="black" points="905.5,-488.5 905.5,-524.5 1010.5,-524.5 1010.5,-488.5 905.5,-488.5"/>
<text text-anchor="start" x="913.5" y="-502.8" font-family="Times,serif" font-size="14.00">if (v6 == 0):</text>
</g>
<!-- Node0x151b7950&#45;&gt;Node0x15ce3fb0 -->
<g id="edge2" class="edge"><title>Node0x151b7950&#45;&gt;Node0x15ce3fb0</title>
<path fill="none" stroke="black" d="M958,-562.323C958,-552.368 958,-542.964 958,-534.847"/>
<polygon fill="black" stroke="black" points="961.5,-534.647 958,-524.647 954.5,-534.647 961.5,-534.647"/>
</g>
<!-- Node0x15ce2d60 -->
<g id="node4" class="node"><title>Node0x15ce2d60</title>
<polygon fill="none" stroke="black" points="0,-308.5 0,-436.5 1064,-436.5 1064,-308.5 0,-308.5"/>
<text text-anchor="start" x="8" y="-421.3" font-family="Times,serif" font-size="14.00">0x8050f1d:</text>
<text text-anchor="start" x="8" y="-406.3" font-family="Times,serif" font-size="14.00"> g5 = v5</text>
<text text-anchor="start" x="8" y="-391.3" font-family="Times,serif" font-size="14.00"> g7 = v4</text>
<text text-anchor="start" x="8" y="-376.3" font-family="Times,serif" font-size="14.00"> g3 = v3</text>
<text text-anchor="start" x="8" y="-361.3" font-family="Times,serif" font-size="14.00"> v9</text>
<text text-anchor="start" x="8" y="-346.3" font-family="Times,serif" font-size="14.00"> mbedtls_rsa_rsaes_pkcs1_v15_decrypt(IntToPtrCastExpr&lt;ptr&gt;(v1), IntToPtrCastExpr&lt;ptr&gt;(v9), a1, a2, IntToPtrCastExpr&lt;ptr&gt;(a3), a4, a5, a6)</text>
<text text-anchor="start" x="8" y="-331.3" font-family="Times,serif" font-size="14.00"> v7 = g2</text>
<text text-anchor="start" x="8" y="-316.3" font-family="Times,serif" font-size="14.00"> v8 = g4</text>
</g>
<!-- Node0x15ce3fb0&#45;&gt;Node0x15ce2d60 -->
<g id="edge3" class="edge"><title>Node0x15ce3fb0&#45;&gt;Node0x15ce2d60</title>
<path fill="none" stroke="black" d="M905.337,-489.182C864.449,-476.512 804.851,-458.046 745.23,-439.571"/>
<polygon fill="black" stroke="black" points="746.252,-436.224 735.664,-436.607 744.18,-442.91 746.252,-436.224"/>
<text text-anchor="middle" x="863" y="-458.8" font-family="Times,serif" font-size="14.00">v6 == 0</text>
</g>
<!-- Node0x15ce2890 -->
<g id="node5" class="node"><title>Node0x15ce2890</title>
<polygon fill="none" stroke="black" points="900,-232.5 900,-270.5 1004,-270.5 1004,-232.5 900,-232.5"/>
<text text-anchor="start" x="908" y="-255.3" font-family="Times,serif" font-size="14.00">0x8050f58:</text>
<text text-anchor="start" x="908" y="-240.3" font-family="Times,serif" font-size="14.00"> if (v8 != 1):</text>
</g>
<!-- Node0x15ce3fb0&#45;&gt;Node0x15ce2890 -->
<g id="edge4" class="edge"><title>Node0x15ce3fb0&#45;&gt;Node0x15ce2890</title>
<path fill="none" stroke="black" d="M1009.52,-488.436C1033.31,-477.673 1059.28,-461.144 1073,-437 1101.33,-387.154 1103.96,-356.257 1073,-308 1059.68,-287.234 1036.43,-274.136 1013.84,-265.922"/>
<polygon fill="black" stroke="black" points="1014.83,-262.562 1004.24,-262.693 1012.6,-269.197 1014.83,-262.562"/>
<text text-anchor="middle" x="1123" y="-368.8" font-family="Times,serif" font-size="14.00">v6 != 0</text>
</g>
<!-- Node0x15ce2d60&#45;&gt;Node0x15ce2890 -->
<g id="edge5" class="edge"><title>Node0x15ce2d60&#45;&gt;Node0x15ce2890</title>
<path fill="none" stroke="black" d="M754.606,-308.428C804.371,-294.328 853.19,-280.496 889.828,-270.116"/>
<polygon fill="black" stroke="black" points="891.162,-273.375 899.829,-267.282 889.254,-266.64 891.162,-273.375"/>
</g>
<!-- Node0x15ce2e70 -->
<g id="node6" class="node"><title>Node0x15ce2e70</title>
<polygon fill="none" stroke="black" points="585.5,-97.5 585.5,-180.5 906.5,-180.5 906.5,-97.5 585.5,-97.5"/>
<text text-anchor="start" x="593.5" y="-165.3" font-family="Times,serif" font-size="14.00">0x8050f62:</text>
<text text-anchor="start" x="593.5" y="-150.3" font-family="Times,serif" font-size="14.00"> g3 = *(IntToPtrCastExpr&lt;ptr&gt;((v7 &#45; 12)))</text>
<text text-anchor="start" x="593.5" y="-135.3" font-family="Times,serif" font-size="14.00"> g7 = *(IntToPtrCastExpr&lt;ptr&gt;((v7 &#45; 8)))</text>
<text text-anchor="start" x="593.5" y="-120.3" font-family="Times,serif" font-size="14.00"> g5 = *(IntToPtrCastExpr&lt;ptr&gt;((v7 &#45; 4)))</text>
<text text-anchor="start" x="593.5" y="-105.3" font-family="Times,serif" font-size="14.00"> return &#45;16640</text>
</g>
<!-- Node0x15ce2890&#45;&gt;Node0x15ce2e70 -->
<g id="edge6" class="edge"><title>Node0x15ce2890&#45;&gt;Node0x15ce2e70</title>
<path fill="none" stroke="black" d="M917.983,-232.253C894.165,-219.477 861.238,-201.815 830.566,-185.362"/>
<polygon fill="black" stroke="black" points="832.027,-182.174 821.56,-180.531 828.718,-188.342 832.027,-182.174"/>
<text text-anchor="middle" x="907" y="-202.8" font-family="Times,serif" font-size="14.00">v8 != 1</text>
</g>
<!-- Node0x15ce2d00 -->
<g id="node7" class="node"><title>Node0x15ce2d00</title>
<polygon fill="none" stroke="black" points="925,-97.5 925,-180.5 2067,-180.5 2067,-97.5 925,-97.5"/>
<text text-anchor="start" x="933" y="-165.3" font-family="Times,serif" font-size="14.00">result = mbedtls_rsa_rsaes_oaep_decrypt(IntToPtrCastExpr&lt;ptr&gt;(a1), IntToPtrCastExpr&lt;ptr&gt;(a2), a3, a4, a5, a6, IntToPtrCastExpr&lt;ptr&gt;(a7), a8, a9, a10)</text>
<text text-anchor="start" x="933" y="-150.3" font-family="Times,serif" font-size="14.00"> g3 = *(IntToPtrCastExpr&lt;ptr&gt;((g2 &#45; 12)))</text>
<text text-anchor="start" x="933" y="-135.3" font-family="Times,serif" font-size="14.00"> g7 = *(IntToPtrCastExpr&lt;ptr&gt;((g2 &#45; 8)))</text>
<text text-anchor="start" x="933" y="-120.3" font-family="Times,serif" font-size="14.00"> g5 = *(IntToPtrCastExpr&lt;ptr&gt;((g2 &#45; 4)))</text>
<text text-anchor="start" x="933" y="-105.3" font-family="Times,serif" font-size="14.00"> return result</text>
</g>
<!-- Node0x15ce2890&#45;&gt;Node0x15ce2d00 -->
<g id="edge7" class="edge"><title>Node0x15ce2890&#45;&gt;Node0x15ce2d00</title>
<path fill="none" stroke="black" d="M1004.16,-239.905C1069.15,-226.705 1184.14,-203.347 1286.6,-182.534"/>
<polygon fill="black" stroke="black" points="1287.37,-185.949 1296.47,-180.529 1285.98,-179.089 1287.37,-185.949"/>
<text text-anchor="middle" x="1221" y="-202.8" font-family="Times,serif" font-size="14.00">v8 == 1</text>
</g>
<!-- Node0x151b6420 -->
<g id="node8" class="node"><title>Node0x151b6420</title>
<polygon fill="none" stroke="black" points="1184,-23.5 1184,-59.5 1238,-59.5 1238,-23.5 1184,-23.5"/>
<text text-anchor="start" x="1192" y="-37.8" font-family="Times,serif" font-size="14.00">exit:</text>
</g>
<!-- Node0x15ce2e70&#45;&gt;Node0x151b6420 -->
<g id="edge8" class="edge"><title>Node0x15ce2e70&#45;&gt;Node0x151b6420</title>
<path fill="none" stroke="black" d="M906.563,-99.0318C909.734,-98.3416 912.882,-97.6635 916,-97 1008.12,-77.3959 1117.31,-58.292 1173.47,-48.7647"/>
<polygon fill="black" stroke="black" points="1174.38,-52.1618 1183.65,-47.0444 1173.21,-45.2597 1174.38,-52.1618"/>
</g>
<!-- Node0x15ce2d00&#45;&gt;Node0x151b6420 -->
<g id="edge9" class="edge"><title>Node0x15ce2d00&#45;&gt;Node0x151b6420</title>
<path fill="none" stroke="black" d="M1375.13,-97.4994C1329.08,-82.0656 1279.93,-65.5973 1247.55,-54.7478"/>
<polygon fill="black" stroke="black" points="1248.66,-51.4272 1238.06,-51.5685 1246.43,-58.0644 1248.66,-51.4272"/>
</g>
</g>
</svg>
