<?xml version="1.0" encoding="UTF-8" standalone="no"?>
<!DOCTYPE svg PUBLIC "-//W3C//DTD SVG 1.1//EN"
 "http://www.w3.org/Graphics/SVG/1.1/DTD/svg11.dtd">
<!-- Generated by graphviz version 2.38.0 (20140413.2041)
 -->
<!-- Title: Control&#45;flow graph for function &#39;mbedtls_sha1_update(*a1, *a2, a3)&#39;. Pages: 1 -->
<svg width="1421pt" height="1977pt"
 viewBox="0.00 0.00 1421.00 1977.00" xmlns="http://www.w3.org/2000/svg" xmlns:xlink="http://www.w3.org/1999/xlink">
<g id="graph0" class="graph" transform="scale(1 1) rotate(0) translate(4 1973)">
<title>Control&#45;flow graph for function &#39;mbedtls_sha1_update(*a1, *a2, a3)&#39;.</title>
<polygon fill="white" stroke="none" points="-4,4 -4,-1973 1417,-1973 1417,4 -4,4"/>
<text text-anchor="middle" x="706.5" y="-7.8" font-family="Times,serif" font-size="14.00">Control&#45;flow graph for function &#39;mbedtls_sha1_update(*a1, *a2, a3)&#39;.</text>
<!-- Node0x16390470 -->
<g id="node1" class="node"><title>Node0x16390470</title>
<polygon fill="none" stroke="black" points="109,-1900.5 109,-1968.5 168,-1968.5 168,-1900.5 109,-1900.5"/>
<text text-anchor="start" x="117" y="-1953.3" font-family="Times,serif" font-size="14.00">entry:</text>
<text text-anchor="start" x="117" y="-1938.3" font-family="Times,serif" font-size="14.00"> a1</text>
<text text-anchor="start" x="117" y="-1923.3" font-family="Times,serif" font-size="14.00"> a2</text>
<text text-anchor="start" x="117" y="-1908.3" font-family="Times,serif" font-size="14.00"> a3</text>
</g>
<!-- Node0x27e3dfb0 -->
<g id="node2" class="node"><title>Node0x27e3dfb0</title>
<polygon fill="none" stroke="black" points="0,-1764.5 0,-1862.5 277,-1862.5 277,-1764.5 0,-1764.5"/>
<text text-anchor="start" x="8" y="-1847.3" font-family="Times,serif" font-size="14.00">v1 = g5</text>
<text text-anchor="start" x="8" y="-1832.3" font-family="Times,serif" font-size="14.00"> v2 = g7</text>
<text text-anchor="start" x="8" y="-1817.3" font-family="Times,serif" font-size="14.00"> v3 = g3</text>
<text text-anchor="start" x="8" y="-1802.3" font-family="Times,serif" font-size="14.00"> g3 = a3</text>
<text text-anchor="start" x="8" y="-1787.3" font-family="Times,serif" font-size="14.00"> g7 = PtrToIntCastExpr&lt;int32&gt;(a1)</text>
<text text-anchor="start" x="8" y="-1772.3" font-family="Times,serif" font-size="14.00"> g5 = PtrToIntCastExpr&lt;int32&gt;(a2)</text>
</g>
<!-- Node0x16390470&#45;&gt;Node0x27e3dfb0 -->
<g id="edge1" class="edge"><title>Node0x16390470&#45;&gt;Node0x27e3dfb0</title>
<path fill="none" stroke="black" d="M138.5,-1900.35C138.5,-1891.77 138.5,-1882.26 138.5,-1872.8"/>
<polygon fill="black" stroke="black" points="142,-1872.59 138.5,-1862.59 135,-1872.59 142,-1872.59"/>
</g>
<!-- Node0x27e3e0a0 -->
<g id="node3" class="node"><title>Node0x27e3e0a0</title>
<polygon fill="none" stroke="black" points="86,-1690.5 86,-1726.5 191,-1726.5 191,-1690.5 86,-1690.5"/>
<text text-anchor="start" x="94" y="-1704.8" font-family="Times,serif" font-size="14.00">if (a3 == 0):</text>
</g>
<!-- Node0x27e3dfb0&#45;&gt;Node0x27e3e0a0 -->
<g id="edge2" class="edge"><title>Node0x27e3dfb0&#45;&gt;Node0x27e3e0a0</title>
<path fill="none" stroke="black" d="M138.5,-1764.32C138.5,-1754.89 138.5,-1745.32 138.5,-1736.87"/>
<polygon fill="black" stroke="black" points="142,-1736.86 138.5,-1726.86 135,-1736.86 142,-1736.86"/>
</g>
<!-- Node0x27e3e380 -->
<g id="node4" class="node"><title>Node0x27e3e380</title>
<polygon fill="none" stroke="black" points="31,-1438.5 31,-1521.5 132,-1521.5 132,-1438.5 31,-1438.5"/>
<text text-anchor="start" x="39" y="-1506.3" font-family="Times,serif" font-size="14.00">0x80535c4:</text>
<text text-anchor="start" x="39" y="-1491.3" font-family="Times,serif" font-size="14.00"> g3 = v3</text>
<text text-anchor="start" x="39" y="-1476.3" font-family="Times,serif" font-size="14.00"> g7 = v2</text>
<text text-anchor="start" x="39" y="-1461.3" font-family="Times,serif" font-size="14.00"> g5 = v1</text>
<text text-anchor="start" x="39" y="-1446.3" font-family="Times,serif" font-size="14.00"> return g1</text>
</g>
<!-- Node0x27e3e0a0&#45;&gt;Node0x27e3e380 -->
<g id="edge3" class="edge"><title>Node0x27e3e0a0&#45;&gt;Node0x27e3e380</title>
<path fill="none" stroke="black" d="M117.943,-1690.47C112.736,-1685.1 107.714,-1678.79 104.5,-1672 83.5937,-1627.85 79.0691,-1571.8 79.0313,-1531.86"/>
<polygon fill="black" stroke="black" points="82.5315,-1531.84 79.1156,-1521.81 75.5317,-1531.78 82.5315,-1531.84"/>
<text text-anchor="middle" x="134.5" y="-1660.8" font-family="Times,serif" font-size="14.00">a3 == 0</text>
</g>
<!-- Node0x27e3e290 -->
<g id="node5" class="node"><title>Node0x27e3e290</title>
<polygon fill="none" stroke="black" points="110,-1540.5 110,-1638.5 349,-1638.5 349,-1540.5 110,-1540.5"/>
<text text-anchor="start" x="118" y="-1623.3" font-family="Times,serif" font-size="14.00">v4 = *(BitCastExpr&lt;ptr&gt;(a1))</text>
<text text-anchor="start" x="118" y="-1608.3" font-family="Times,serif" font-size="14.00"> v5 = (v4 % 64)</text>
<text text-anchor="start" x="118" y="-1593.3" font-family="Times,serif" font-size="14.00"> v6 = (v4 + a3)</text>
<text text-anchor="start" x="118" y="-1578.3" font-family="Times,serif" font-size="14.00"> g1 = v6</text>
<text text-anchor="start" x="118" y="-1563.3" font-family="Times,serif" font-size="14.00"> v7 = (64 &#45; v5)</text>
<text text-anchor="start" x="118" y="-1548.3" font-family="Times,serif" font-size="14.00"> *(BitCastExpr&lt;ptr&gt;(a1)) = v6</text>
</g>
<!-- Node0x27e3e0a0&#45;&gt;Node0x27e3e290 -->
<g id="edge4" class="edge"><title>Node0x27e3e0a0&#45;&gt;Node0x27e3e290</title>
<path fill="none" stroke="black" d="M151.732,-1690.49C160.757,-1678.88 173.272,-1662.79 185.627,-1646.91"/>
<polygon fill="black" stroke="black" points="188.677,-1648.69 192.053,-1638.65 183.151,-1644.39 188.677,-1648.69"/>
<text text-anchor="middle" x="203.5" y="-1660.8" font-family="Times,serif" font-size="14.00">a3 != 0</text>
</g>
<!-- Node0x27e3e5b0 -->
<g id="node6" class="node"><title>Node0x27e3e5b0</title>
<polygon fill="none" stroke="black" points="155.5,-23.5 155.5,-59.5 209.5,-59.5 209.5,-23.5 155.5,-23.5"/>
<text text-anchor="start" x="163.5" y="-37.8" font-family="Times,serif" font-size="14.00">exit:</text>
</g>
<!-- Node0x27e3e380&#45;&gt;Node0x27e3e5b0 -->
<g id="edge5" class="edge"><title>Node0x27e3e380&#45;&gt;Node0x27e3e5b0</title>
<path fill="none" stroke="black" d="M81.5,-1438.28C81.5,-1414.93 81.5,-1385.07 81.5,-1358.5 81.5,-1358.5 81.5,-1358.5 81.5,-130.5 81.5,-95.0343 117.339,-70.5953 146.32,-56.6309"/>
<polygon fill="black" stroke="black" points="147.794,-59.8052 155.434,-52.4643 144.884,-53.4389 147.794,-59.8052"/>
</g>
<!-- Node0x27e3da80 -->
<g id="node7" class="node"><title>Node0x27e3da80</title>
<polygon fill="none" stroke="black" points="179,-1383.5 179,-1419.5 280,-1419.5 280,-1383.5 179,-1383.5"/>
<text text-anchor="start" x="187" y="-1397.8" font-family="Times,serif" font-size="14.00">if (v6 &lt; a3):</text>
</g>
<!-- Node0x27e3e290&#45;&gt;Node0x27e3da80 -->
<g id="edge6" class="edge"><title>Node0x27e3e290&#45;&gt;Node0x27e3da80</title>
<path fill="none" stroke="black" d="M229.5,-1540.12C229.5,-1504.99 229.5,-1458.74 229.5,-1429.81"/>
<polygon fill="black" stroke="black" points="233,-1429.63 229.5,-1419.63 226,-1429.63 233,-1429.63"/>
</g>
<!-- Node0x26c5f990 -->
<g id="node8" class="node"><title>Node0x26c5f990</title>
<polygon fill="none" stroke="black" points="291,-1293.5 291,-1331.5 588,-1331.5 588,-1293.5 291,-1293.5"/>
<text text-anchor="start" x="299" y="-1316.3" font-family="Times,serif" font-size="14.00">v8 = IntToPtrCastExpr&lt;ptr&gt;((g7 + 4))</text>
<text text-anchor="start" x="299" y="-1301.3" font-family="Times,serif" font-size="14.00"> *(v8) = (*(v8) + 1)</text>
</g>
<!-- Node0x27e3da80&#45;&gt;Node0x26c5f990 -->
<g id="edge7" class="edge"><title>Node0x27e3da80&#45;&gt;Node0x26c5f990</title>
<path fill="none" stroke="black" d="M270.739,-1383.42C303.853,-1369.7 350.584,-1350.34 386.478,-1335.47"/>
<polygon fill="black" stroke="black" points="387.925,-1338.66 395.823,-1331.59 385.245,-1332.19 387.925,-1338.66"/>
<text text-anchor="middle" x="375.5" y="-1353.8" font-family="Times,serif" font-size="14.00">v6 &lt; a3</text>
</g>
<!-- Node0x27e40810 -->
<g id="node9" class="node"><title>Node0x27e40810</title>
<polygon fill="none" stroke="black" points="361.5,-1202.5 361.5,-1255.5 447.5,-1255.5 447.5,-1202.5 361.5,-1202.5"/>
<text text-anchor="start" x="369.5" y="-1240.3" font-family="Times,serif" font-size="14.00">v9 = g3</text>
<text text-anchor="start" x="369.5" y="-1225.3" font-family="Times,serif" font-size="14.00"> v10 = v9</text>
<text text-anchor="start" x="369.5" y="-1210.3" font-family="Times,serif" font-size="14.00"> v11</text>
</g>
<!-- Node0x27e3da80&#45;&gt;Node0x27e40810 -->
<g id="edge8" class="edge"><title>Node0x27e3da80&#45;&gt;Node0x27e40810</title>
<path fill="none" stroke="black" d="M220.088,-1383.45C208.9,-1360.63 194.04,-1319.91 213.5,-1293 244.631,-1249.95 306.224,-1235.82 351.074,-1231.44"/>
<polygon fill="black" stroke="black" points="351.557,-1234.91 361.228,-1230.58 350.969,-1227.93 351.557,-1234.91"/>
<text text-anchor="middle" x="247.5" y="-1308.8" font-family="Times,serif" font-size="14.00">v6 &gt;= a3</text>
</g>
<!-- Node0x26c5f990&#45;&gt;Node0x27e40810 -->
<g id="edge9" class="edge"><title>Node0x26c5f990&#45;&gt;Node0x27e40810</title>
<path fill="none" stroke="black" d="M431.732,-1293.41C428.168,-1285.11 423.813,-1274.97 419.641,-1265.26"/>
<polygon fill="black" stroke="black" points="422.727,-1263.57 415.565,-1255.77 416.295,-1266.34 422.727,-1263.57"/>
</g>
<!-- Node0x27e40870 -->
<g id="node10" class="node"><title>Node0x27e40870</title>
<polygon fill="none" stroke="black" points="348,-1128.5 348,-1164.5 461,-1164.5 461,-1128.5 348,-1128.5"/>
<text text-anchor="start" x="356" y="-1142.8" font-family="Times,serif" font-size="14.00">if (v9 &gt;= v7):</text>
</g>
<!-- Node0x27e40810&#45;&gt;Node0x27e40870 -->
<g id="edge10" class="edge"><title>Node0x27e40810&#45;&gt;Node0x27e40870</title>
<path fill="none" stroke="black" d="M404.5,-1202.09C404.5,-1193.46 404.5,-1183.82 404.5,-1175.07"/>
<polygon fill="black" stroke="black" points="408,-1174.97 404.5,-1164.97 401,-1174.97 408,-1174.97"/>
</g>
<!-- Node0x26c5fa30 -->
<g id="node11" class="node"><title>Node0x26c5fa30</title>
<polygon fill="none" stroke="black" points="858.5,-1038.5 858.5,-1076.5 956.5,-1076.5 956.5,-1038.5 858.5,-1038.5"/>
<text text-anchor="start" x="866.5" y="-1061.3" font-family="Times,serif" font-size="14.00">0x80535f0:</text>
<text text-anchor="start" x="866.5" y="-1046.3" font-family="Times,serif" font-size="14.00"> g1 = v5</text>
</g>
<!-- Node0x27e40870&#45;&gt;Node0x26c5fa30 -->
<g id="edge11" class="edge"><title>Node0x27e40870&#45;&gt;Node0x26c5fa30</title>
<path fill="none" stroke="black" d="M461.223,-1135.69C557.255,-1119.08 750.913,-1085.58 848.479,-1068.71"/>
<polygon fill="black" stroke="black" points="849.21,-1072.13 858.467,-1066.98 848.017,-1065.24 849.21,-1072.13"/>
<text text-anchor="middle" x="720.5" y="-1098.8" font-family="Times,serif" font-size="14.00">v9 &gt;= v7</text>
</g>
<!-- Node0x27e40a10 -->
<g id="node12" class="node"><title>Node0x27e40a10</title>
<polygon fill="none" stroke="black" points="329.5,-706.5 329.5,-744.5 445.5,-744.5 445.5,-706.5 329.5,-706.5"/>
<text text-anchor="start" x="337.5" y="-729.3" font-family="Times,serif" font-size="14.00">0x8053589:</text>
<text text-anchor="start" x="337.5" y="-714.3" font-family="Times,serif" font-size="14.00"> if (v10 &lt; 64):</text>
</g>
<!-- Node0x27e40870&#45;&gt;Node0x27e40a10 -->
<g id="edge12" class="edge"><title>Node0x27e40870&#45;&gt;Node0x27e40a10</title>
<path fill="none" stroke="black" d="M379.565,-1128.21C360.158,-1112.51 336.5,-1087.45 336.5,-1058.5 336.5,-1058.5 336.5,-1058.5 336.5,-845.5 336.5,-811.767 354.028,-776.687 368.532,-753.433"/>
<polygon fill="black" stroke="black" points="371.606,-755.126 374.1,-744.829 365.729,-751.323 371.606,-755.126"/>
<text text-anchor="middle" x="364.5" y="-977.8" font-family="Times,serif" font-size="14.00">v9 &lt; v7</text>
</g>
<!-- Node0x26c5fab0 -->
<g id="node13" class="node"><title>Node0x26c5fab0</title>
<polygon fill="none" stroke="black" points="855,-962.5 855,-1000.5 960,-1000.5 960,-962.5 855,-962.5"/>
<text text-anchor="start" x="863" y="-985.3" font-family="Times,serif" font-size="14.00">if (v5 == 0):</text>
<text text-anchor="start" x="863" y="-970.3" font-family="Times,serif" font-size="14.00"> else:</text>
</g>
<!-- Node0x26c5fa30&#45;&gt;Node0x26c5fab0 -->
<g id="edge13" class="edge"><title>Node0x26c5fa30&#45;&gt;Node0x26c5fab0</title>
<path fill="none" stroke="black" d="M907.5,-1038.21C907.5,-1029.96 907.5,-1020.04 907.5,-1010.86"/>
<polygon fill="black" stroke="black" points="911,-1010.58 907.5,-1000.58 904,-1010.58 911,-1010.58"/>
</g>
<!-- Node0x7794de0 -->
<g id="node14" class="node"><title>Node0x7794de0</title>
<polygon fill="none" stroke="black" points="495,-616.5 495,-654.5 632,-654.5 632,-616.5 495,-616.5"/>
<text text-anchor="start" x="503" y="-639.3" font-family="Times,serif" font-size="14.00">v11 = v10</text>
<text text-anchor="start" x="503" y="-624.3" font-family="Times,serif" font-size="14.00"> goto 0x80535c0</text>
</g>
<!-- Node0x27e40a10&#45;&gt;Node0x7794de0 -->
<g id="edge14" class="edge"><title>Node0x27e40a10&#45;&gt;Node0x7794de0</title>
<path fill="none" stroke="black" d="M429.947,-706.403C442.759,-700.727 456.794,-694.295 469.5,-688 487.367,-679.148 506.746,-668.683 523.241,-659.507"/>
<polygon fill="black" stroke="black" points="525.063,-662.498 532.08,-654.56 521.645,-656.389 525.063,-662.498"/>
<text text-anchor="middle" x="531.5" y="-676.8" font-family="Times,serif" font-size="14.00">v10 &lt; 64</text>
</g>
<!-- Node0x27e40c00 -->
<g id="node15" class="node"><title>Node0x27e40c00</title>
<polygon fill="none" stroke="black" points="321.5,-617.5 321.5,-653.5 453.5,-653.5 453.5,-617.5 321.5,-617.5"/>
<text text-anchor="start" x="329.5" y="-631.8" font-family="Times,serif" font-size="14.00">goto 0x805358e</text>
</g>
<!-- Node0x27e40a10&#45;&gt;Node0x27e40c00 -->
<g id="edge15" class="edge"><title>Node0x27e40a10&#45;&gt;Node0x27e40c00</title>
<path fill="none" stroke="black" d="M387.5,-706.266C387.5,-694.031 387.5,-677.692 387.5,-663.902"/>
<polygon fill="black" stroke="black" points="391,-663.516 387.5,-653.516 384,-663.516 391,-663.516"/>
<text text-anchor="middle" x="426.5" y="-676.8" font-family="Times,serif" font-size="14.00">v10 &gt;= 64</text>
</g>
<!-- Node0x1638d6d0 -->
<g id="node16" class="node"><title>Node0x1638d6d0</title>
<polygon fill="none" stroke="black" points="970.5,-820 970.5,-873 1068.5,-873 1068.5,-820 970.5,-820"/>
<text text-anchor="start" x="978.5" y="-857.8" font-family="Times,serif" font-size="14.00">0x80535f0:</text>
<text text-anchor="start" x="978.5" y="-842.8" font-family="Times,serif" font-size="14.00"> v10 = g3</text>
<text text-anchor="start" x="978.5" y="-827.8" font-family="Times,serif" font-size="14.00"> v5 = 0</text>
</g>
<!-- Node0x26c5fab0&#45;&gt;Node0x1638d6d0 -->
<g id="edge16" class="edge"><title>Node0x26c5fab0&#45;&gt;Node0x1638d6d0</title>
<path fill="none" stroke="black" d="M922.838,-962.286C940.429,-941.396 969.635,-906.715 991.348,-880.931"/>
<polygon fill="black" stroke="black" points="994.06,-883.143 997.824,-873.24 988.706,-878.634 994.06,-883.143"/>
<text text-anchor="middle" x="980.5" y="-932.8" font-family="Times,serif" font-size="14.00">v5 == 0</text>
</g>
<!-- Node0x1638d750 -->
<g id="node17" class="node"><title>Node0x1638d750</title>
<polygon fill="none" stroke="black" points="364.5,-782.5 364.5,-910.5 952.5,-910.5 952.5,-782.5 364.5,-782.5"/>
<text text-anchor="start" x="372.5" y="-895.3" font-family="Times,serif" font-size="14.00">v12 = (g7 + 28)</text>
<text text-anchor="start" x="372.5" y="-880.3" font-family="Times,serif" font-size="14.00"> memcpy(IntToPtrCastExpr&lt;ptr&gt;((v12 + v5)), IntToPtrCastExpr&lt;ptr&gt;(g5), v7)</text>
<text text-anchor="start" x="372.5" y="-865.3" font-family="Times,serif" font-size="14.00"> g1 = mbedtls_sha1_process(g7, IntToPtrCastExpr&lt;ptr&gt;(v12))</text>
<text text-anchor="start" x="372.5" y="-850.3" font-family="Times,serif" font-size="14.00"> g5 = (g5 + v7)</text>
<text text-anchor="start" x="372.5" y="-835.3" font-family="Times,serif" font-size="14.00"> v13 = (g3 &#45; v7)</text>
<text text-anchor="start" x="372.5" y="-820.3" font-family="Times,serif" font-size="14.00"> g3 = v13</text>
<text text-anchor="start" x="372.5" y="-805.3" font-family="Times,serif" font-size="14.00"> v10 = v13</text>
<text text-anchor="start" x="372.5" y="-790.3" font-family="Times,serif" font-size="14.00"> v5 = 0</text>
</g>
<!-- Node0x26c5fab0&#45;&gt;Node0x1638d750 -->
<g id="edge17" class="edge"><title>Node0x26c5fab0&#45;&gt;Node0x1638d750</title>
<path fill="none" stroke="black" d="M873.66,-962.425C850.505,-950.057 818.214,-932.809 785.679,-915.431"/>
<polygon fill="black" stroke="black" points="786.973,-912.154 776.503,-910.53 783.675,-918.328 786.973,-912.154"/>
<text text-anchor="middle" x="861.5" y="-932.8" font-family="Times,serif" font-size="14.00">v5 != 0</text>
</g>
<!-- Node0x27e40e70 -->
<g id="node18" class="node"><title>Node0x27e40e70</title>
<polygon fill="none" stroke="black" points="667,-511.5 667,-549.5 780,-549.5 780,-511.5 667,-511.5"/>
<text text-anchor="start" x="675" y="-534.3" font-family="Times,serif" font-size="14.00">0x80535c0:</text>
<text text-anchor="start" x="675" y="-519.3" font-family="Times,serif" font-size="14.00"> if (v11 != 0):</text>
</g>
<!-- Node0x7794de0&#45;&gt;Node0x27e40e70 -->
<g id="edge18" class="edge"><title>Node0x7794de0&#45;&gt;Node0x27e40e70</title>
<path fill="none" stroke="black" d="M567.395,-616.135C570.581,-605.196 576.138,-591.778 585.5,-583 603.035,-566.56 613.949,-573.32 636.5,-565 646.615,-561.269 657.356,-557.211 667.712,-553.25"/>
<polygon fill="black" stroke="black" points="669.005,-556.502 677.086,-549.651 666.496,-549.967 669.005,-556.502"/>
</g>
<!-- Node0x16390c20 -->
<g id="node19" class="node"><title>Node0x16390c20</title>
<polygon fill="none" stroke="black" points="147.5,-496.5 147.5,-564.5 627.5,-564.5 627.5,-496.5 147.5,-496.5"/>
<text text-anchor="start" x="155.5" y="-549.3" font-family="Times,serif" font-size="14.00">0x805358e:</text>
<text text-anchor="start" x="155.5" y="-534.3" font-family="Times,serif" font-size="14.00"> v14 = 0</text>
<text text-anchor="start" x="155.5" y="-519.3" font-family="Times,serif" font-size="14.00"> mbedtls_sha1_process(g7, IntToPtrCastExpr&lt;ptr&gt;((g5 + v14)))</text>
<text text-anchor="start" x="155.5" y="-504.3" font-family="Times,serif" font-size="14.00"> v15 = g3</text>
</g>
<!-- Node0x27e40c00&#45;&gt;Node0x16390c20 -->
<g id="edge19" class="edge"><title>Node0x27e40c00&#45;&gt;Node0x16390c20</title>
<path fill="none" stroke="black" d="M387.5,-617.492C387.5,-605.885 387.5,-589.954 387.5,-574.955"/>
<polygon fill="black" stroke="black" points="391,-574.786 387.5,-564.786 384,-574.786 391,-574.786"/>
</g>
<!-- Node0x1638d9c0 -->
<g id="node20" class="node"><title>Node0x1638d9c0</title>
<polygon fill="none" stroke="black" points="664,-706.5 664,-744.5 765,-744.5 765,-706.5 664,-706.5"/>
<text text-anchor="start" x="672" y="-729.3" font-family="Times,serif" font-size="14.00">0x8053589:</text>
<text text-anchor="start" x="672" y="-714.3" font-family="Times,serif" font-size="14.00"> v11 = v10</text>
</g>
<!-- Node0x1638d6d0&#45;&gt;Node0x1638d9c0 -->
<g id="edge20" class="edge"><title>Node0x1638d6d0&#45;&gt;Node0x1638d9c0</title>
<path fill="none" stroke="black" d="M1002.16,-819.993C991.849,-806.727 977.642,-791.368 961.5,-782 903.767,-748.496 827.601,-735.211 775.194,-729.948"/>
<polygon fill="black" stroke="black" points="775.324,-726.445 765.042,-728.998 774.672,-733.414 775.324,-726.445"/>
</g>
<!-- Node0x1638d750&#45;&gt;Node0x1638d9c0 -->
<g id="edge21" class="edge"><title>Node0x1638d750&#45;&gt;Node0x1638d9c0</title>
<path fill="none" stroke="black" d="M688.304,-782.167C693.01,-772.166 697.649,-762.309 701.684,-753.735"/>
<polygon fill="black" stroke="black" points="704.864,-755.197 705.955,-744.659 698.53,-752.216 704.864,-755.197"/>
</g>
<!-- Node0x163912b0 -->
<g id="node21" class="node"><title>Node0x163912b0</title>
<polygon fill="none" stroke="black" points="758,-286.5 758,-444.5 1413,-444.5 1413,-286.5 758,-286.5"/>
<text text-anchor="start" x="766" y="-429.3" font-family="Times,serif" font-size="14.00">0x80535d0:</text>
<text text-anchor="start" x="766" y="-414.3" font-family="Times,serif" font-size="14.00"> v7 = v5</text>
<text text-anchor="start" x="766" y="-399.3" font-family="Times,serif" font-size="14.00"> v17 = g7</text>
<text text-anchor="start" x="766" y="-384.3" font-family="Times,serif" font-size="14.00"> g3 = v3</text>
<text text-anchor="start" x="766" y="-369.3" font-family="Times,serif" font-size="14.00"> g7 = v2</text>
<text text-anchor="start" x="766" y="-354.3" font-family="Times,serif" font-size="14.00"> g5 = v1</text>
<text text-anchor="start" x="766" y="-339.3" font-family="Times,serif" font-size="14.00"> v18</text>
<text text-anchor="start" x="766" y="-324.3" font-family="Times,serif" font-size="14.00"> v19</text>
<text text-anchor="start" x="766" y="-309.3" font-family="Times,serif" font-size="14.00"> memcpy(IntToPtrCastExpr&lt;ptr&gt;(v19), IntToPtrCastExpr&lt;ptr&gt;(v18), ((v5 + 28) + v17))</text>
<text text-anchor="start" x="766" y="-294.3" font-family="Times,serif" font-size="14.00"> goto 0x80535f0</text>
</g>
<!-- Node0x27e40e70&#45;&gt;Node0x163912b0 -->
<g id="edge22" class="edge"><title>Node0x27e40e70&#45;&gt;Node0x163912b0</title>
<path fill="none" stroke="black" d="M763.623,-511.433C798.008,-495.951 850.143,-472.476 902.501,-448.9"/>
<polygon fill="black" stroke="black" points="904.249,-451.952 911.93,-444.654 901.375,-445.569 904.249,-451.952"/>
<text text-anchor="middle" x="893" y="-466.8" font-family="Times,serif" font-size="14.00">v11 != 0</text>
</g>
<!-- Node0x1638de10 -->
<g id="node22" class="node"><title>Node0x1638de10</title>
<polygon fill="none" stroke="black" points="709,-184.5 709,-267.5 810,-267.5 810,-184.5 709,-184.5"/>
<text text-anchor="start" x="717" y="-252.3" font-family="Times,serif" font-size="14.00">0x80535c4:</text>
<text text-anchor="start" x="717" y="-237.3" font-family="Times,serif" font-size="14.00"> g3 = v3</text>
<text text-anchor="start" x="717" y="-222.3" font-family="Times,serif" font-size="14.00"> g7 = v2</text>
<text text-anchor="start" x="717" y="-207.3" font-family="Times,serif" font-size="14.00"> g5 = v1</text>
<text text-anchor="start" x="717" y="-192.3" font-family="Times,serif" font-size="14.00"> return g1</text>
</g>
<!-- Node0x27e40e70&#45;&gt;Node0x1638de10 -->
<g id="edge23" class="edge"><title>Node0x27e40e70&#45;&gt;Node0x1638de10</title>
<path fill="none" stroke="black" d="M724.846,-511.415C727.972,-470.917 736.391,-369.911 748.5,-286 748.905,-283.196 749.347,-280.323 749.816,-277.425"/>
<polygon fill="black" stroke="black" points="753.269,-277.996 751.487,-267.552 746.367,-276.828 753.269,-277.996"/>
<text text-anchor="middle" x="764" y="-466.8" font-family="Times,serif" font-size="14.00">v11 == 0</text>
</g>
<!-- Node0x16390ca0 -->
<g id="node23" class="node"><title>Node0x16390ca0</title>
<polygon fill="none" stroke="black" points="265,-347.5 265,-383.5 504,-383.5 504,-347.5 265,-347.5"/>
<text text-anchor="start" x="273" y="-361.8" font-family="Times,serif" font-size="14.00">while ((v15 &#45; (v14 + 64)) &gt; 63):</text>
</g>
<!-- Node0x16390c20&#45;&gt;Node0x16390ca0 -->
<g id="edge24" class="edge"><title>Node0x16390c20&#45;&gt;Node0x16390ca0</title>
<path fill="none" stroke="black" d="M386.886,-496.121C386.332,-466.027 385.527,-422.294 385.008,-394.121"/>
<polygon fill="black" stroke="black" points="388.502,-393.727 384.818,-383.793 381.503,-393.856 388.502,-393.727"/>
</g>
<!-- Node0xfbfb6d0 -->
<g id="node24" class="node"><title>Node0xfbfb6d0</title>
<polygon fill="none" stroke="black" points="653,-617.5 653,-653.5 776,-653.5 776,-617.5 653,-617.5"/>
<text text-anchor="start" x="661" y="-631.8" font-family="Times,serif" font-size="14.00">if (v10 &gt;= 64):</text>
</g>
<!-- Node0x1638d9c0&#45;&gt;Node0xfbfb6d0 -->
<g id="edge25" class="edge"><title>Node0x1638d9c0&#45;&gt;Node0xfbfb6d0</title>
<path fill="none" stroke="black" d="M714.5,-706.266C714.5,-694.031 714.5,-677.692 714.5,-663.902"/>
<polygon fill="black" stroke="black" points="718,-663.516 714.5,-653.516 711,-663.516 718,-663.516"/>
</g>
<!-- Node0x163912b0&#45;&gt;Node0x26c5fa30 -->
<g id="edge26" class="edge"><title>Node0x163912b0&#45;&gt;Node0x26c5fa30</title>
<path fill="none" stroke="black" d="M1092.93,-444.776C1094.9,-471.613 1096.5,-501.846 1096.5,-529.5 1096.5,-982.5 1096.5,-982.5 1096.5,-982.5 1096.5,-1010.78 1022.2,-1032.69 966.772,-1045.1"/>
<polygon fill="black" stroke="black" points="965.688,-1041.75 956.664,-1047.3 967.18,-1048.59 965.688,-1041.75"/>
</g>
<!-- Node0x1638de10&#45;&gt;Node0x27e3e5b0 -->
<g id="edge27" class="edge"><title>Node0x1638de10&#45;&gt;Node0x27e3e5b0</title>
<path fill="none" stroke="black" d="M773.62,-184.448C780.568,-156.393 783.525,-120.093 762.5,-97 725.905,-56.8056 341.738,-45.685 219.577,-43.1534"/>
<polygon fill="black" stroke="black" points="219.646,-39.6542 209.578,-42.9534 219.506,-46.6528 219.646,-39.6542"/>
</g>
<!-- Node0x16391710 -->
<g id="node25" class="node"><title>Node0x16391710</title>
<polygon fill="none" stroke="black" points="273.5,-97.5 273.5,-165.5 753.5,-165.5 753.5,-97.5 273.5,-97.5"/>
<text text-anchor="start" x="281.5" y="-150.3" font-family="Times,serif" font-size="14.00">0x8053590:</text>
<text text-anchor="start" x="281.5" y="-135.3" font-family="Times,serif" font-size="14.00"> v14 = (v14 + 64)</text>
<text text-anchor="start" x="281.5" y="-120.3" font-family="Times,serif" font-size="14.00"> mbedtls_sha1_process(g7, IntToPtrCastExpr&lt;ptr&gt;((g5 + v14)))</text>
<text text-anchor="start" x="281.5" y="-105.3" font-family="Times,serif" font-size="14.00"> v15 = g3</text>
</g>
<!-- Node0x16390ca0&#45;&gt;Node0x16391710 -->
<g id="edge28" class="edge"><title>Node0x16390ca0&#45;&gt;Node0x16391710</title>
<path fill="none" stroke="black" d="M378.662,-347.256C368.166,-312.838 350.225,-234.589 384.5,-184 387.351,-179.792 390.607,-175.928 394.182,-172.379"/>
<polygon fill="black" stroke="black" points="396.761,-174.772 401.941,-165.53 392.128,-169.524 396.761,-174.772"/>
<text text-anchor="middle" x="467.5" y="-222.3" font-family="Times,serif" font-size="14.00">(v15 &#45; (v14 + 64)) &gt; 63</text>
</g>
<!-- Node0x163910a0 -->
<g id="node26" class="node"><title>Node0x163910a0</title>
<polygon fill="none" stroke="black" points="109.5,-105 109.5,-158 255.5,-158 255.5,-105 109.5,-105"/>
<text text-anchor="start" x="117.5" y="-142.8" font-family="Times,serif" font-size="14.00">v16 = (v15 &#45; 64)</text>
<text text-anchor="start" x="117.5" y="-127.8" font-family="Times,serif" font-size="14.00"> g1 = (v16 &amp; &#45;64)</text>
<text text-anchor="start" x="117.5" y="-112.8" font-family="Times,serif" font-size="14.00"> v11 = (v16 % 64)</text>
</g>
<!-- Node0x16390ca0&#45;&gt;Node0x163910a0 -->
<g id="edge29" class="edge"><title>Node0x16390ca0&#45;&gt;Node0x163910a0</title>
<path fill="none" stroke="black" d="M303.394,-347.469C259.898,-333.776 209.937,-309.676 183.5,-268 164.757,-238.454 167.456,-197.501 173.008,-168.37"/>
<polygon fill="black" stroke="black" points="176.51,-168.722 175.148,-158.215 169.661,-167.278 176.51,-168.722"/>
<text text-anchor="middle" x="272.5" y="-222.3" font-family="Times,serif" font-size="14.00">(v15 &#45; (v14 + 64)) &lt;= 63</text>
</g>
<!-- Node0xfbfb6d0&#45;&gt;Node0x27e40e70 -->
<g id="edge31" class="edge"><title>Node0xfbfb6d0&#45;&gt;Node0x27e40e70</title>
<path fill="none" stroke="black" d="M715.986,-617.492C717.355,-601.825 719.413,-578.277 721.029,-559.782"/>
<polygon fill="black" stroke="black" points="724.537,-559.841 721.921,-549.574 717.563,-559.231 724.537,-559.841"/>
<text text-anchor="middle" x="752.5" y="-586.8" font-family="Times,serif" font-size="14.00">v10 &lt; 64</text>
</g>
<!-- Node0xfbfb6d0&#45;&gt;Node0x16390c20 -->
<g id="edge30" class="edge"><title>Node0xfbfb6d0&#45;&gt;Node0x16390c20</title>
<path fill="none" stroke="black" d="M660.503,-617.492C617.55,-603.962 555.937,-584.555 502.11,-567.6"/>
<polygon fill="black" stroke="black" points="503.094,-564.241 492.504,-564.575 500.991,-570.917 503.094,-564.241"/>
<text text-anchor="middle" x="629.5" y="-586.8" font-family="Times,serif" font-size="14.00">v10 &gt;= 64</text>
</g>
<!-- Node0x16391710&#45;&gt;Node0x16390ca0 -->
<g id="edge32" class="edge"><title>Node0x16391710&#45;&gt;Node0x16390ca0</title>
<path fill="none" stroke="black" d="M541.795,-165.782C545.367,-171.543 548.475,-177.712 550.5,-184 561.942,-219.537 569.119,-235.641 550.5,-268 529.364,-304.735 488.278,-328.784 452.271,-343.687"/>
<polygon fill="black" stroke="black" points="450.76,-340.521 442.758,-347.465 453.344,-347.027 450.76,-340.521"/>
</g>
<!-- Node0x163910a0&#45;&gt;Node0x27e3e5b0 -->
<g id="edge33" class="edge"><title>Node0x163910a0&#45;&gt;Node0x27e3e5b0</title>
<path fill="none" stroke="black" d="M182.5,-104.573C182.5,-93.5849 182.5,-80.7766 182.5,-69.6581"/>
<polygon fill="black" stroke="black" points="186,-69.6304 182.5,-59.6304 179,-69.6305 186,-69.6304"/>
</g>
</g>
</svg>
