<?xml version="1.0" encoding="UTF-8" standalone="no"?>
<!DOCTYPE svg PUBLIC "-//W3C//DTD SVG 1.1//EN"
 "http://www.w3.org/Graphics/SVG/1.1/DTD/svg11.dtd">
<!-- Generated by graphviz version 2.38.0 (20140413.2041)
 -->
<!-- Title: Control&#45;flow graph for function &#39;des3_set2key_dec_wrap(a1)&#39;. Pages: 1 -->
<svg width="466pt" height="263pt"
 viewBox="0.00 0.00 466.00 263.00" xmlns="http://www.w3.org/2000/svg" xmlns:xlink="http://www.w3.org/1999/xlink">
<g id="graph0" class="graph" transform="scale(1 1) rotate(0) translate(4 259)">
<title>Control&#45;flow graph for function &#39;des3_set2key_dec_wrap(a1)&#39;.</title>
<polygon fill="white" stroke="none" points="-4,4 -4,-259 462,-259 462,4 -4,4"/>
<text text-anchor="middle" x="229" y="-7.8" font-family="Times,serif" font-size="14.00">Control&#45;flow graph for function &#39;des3_set2key_dec_wrap(a1)&#39;.</text>
<!-- Node0xdb34f80 -->
<g id="node1" class="node"><title>Node0xdb34f80</title>
<polygon fill="none" stroke="black" points="199.5,-216.5 199.5,-254.5 258.5,-254.5 258.5,-216.5 199.5,-216.5"/>
<text text-anchor="start" x="207.5" y="-239.3" font-family="Times,serif" font-size="14.00">entry:</text>
<text text-anchor="start" x="207.5" y="-224.3" font-family="Times,serif" font-size="14.00"> a1</text>
</g>
<!-- Node0x98c05d0 -->
<g id="node2" class="node"><title>Node0x98c05d0</title>
<polygon fill="none" stroke="black" points="81,-96.5 81,-179.5 377,-179.5 377,-96.5 81,-96.5"/>
<text text-anchor="start" x="89" y="-164.3" font-family="Times,serif" font-size="14.00">0x806a570:</text>
<text text-anchor="start" x="89" y="-149.3" font-family="Times,serif" font-size="14.00"> result</text>
<text text-anchor="start" x="89" y="-134.3" font-family="Times,serif" font-size="14.00"> v1</text>
<text text-anchor="start" x="89" y="-119.3" font-family="Times,serif" font-size="14.00"> mbedtls_des3_set2key_dec(v1, result)</text>
<text text-anchor="start" x="89" y="-104.3" font-family="Times,serif" font-size="14.00"> return result</text>
</g>
<!-- Node0xdb34f80&#45;&gt;Node0x98c05d0 -->
<g id="edge1" class="edge"><title>Node0xdb34f80&#45;&gt;Node0x98c05d0</title>
<path fill="none" stroke="black" d="M229,-216.087C229,-208.444 229,-199.165 229,-189.73"/>
<polygon fill="black" stroke="black" points="232.5,-189.501 229,-179.501 225.5,-189.501 232.5,-189.501"/>
</g>
<!-- Node0x20170370 -->
<g id="node3" class="node"><title>Node0x20170370</title>
<polygon fill="none" stroke="black" points="202,-23.5 202,-59.5 256,-59.5 256,-23.5 202,-23.5"/>
<text text-anchor="start" x="210" y="-37.8" font-family="Times,serif" font-size="14.00">exit:</text>
</g>
<!-- Node0x98c05d0&#45;&gt;Node0x20170370 -->
<g id="edge2" class="edge"><title>Node0x98c05d0&#45;&gt;Node0x20170370</title>
<path fill="none" stroke="black" d="M229,-96.3751C229,-87.4706 229,-78.246 229,-70"/>
<polygon fill="black" stroke="black" points="232.5,-69.8327 229,-59.8328 225.5,-69.8328 232.5,-69.8327"/>
</g>
</g>
</svg>
