<?xml version="1.0" encoding="UTF-8" standalone="no"?>
<!DOCTYPE svg PUBLIC "-//W3C//DTD SVG 1.1//EN"
 "http://www.w3.org/Graphics/SVG/1.1/DTD/svg11.dtd">
<!-- Generated by graphviz version 2.38.0 (20140413.2041)
 -->
<!-- Title: Control&#45;flow graph for function &#39;mbedtls_mpi_sub_int(a1, a2, a3)&#39;. Pages: 1 -->
<svg width="723pt" height="338pt"
 viewBox="0.00 0.00 723.00 338.00" xmlns="http://www.w3.org/2000/svg" xmlns:xlink="http://www.w3.org/1999/xlink">
<g id="graph0" class="graph" transform="scale(1 1) rotate(0) translate(4 334)">
<title>Control&#45;flow graph for function &#39;mbedtls_mpi_sub_int(a1, a2, a3)&#39;.</title>
<polygon fill="white" stroke="none" points="-4,4 -4,-334 719,-334 719,4 -4,4"/>
<text text-anchor="middle" x="357.5" y="-7.8" font-family="Times,serif" font-size="14.00">Control&#45;flow graph for function &#39;mbedtls_mpi_sub_int(a1, a2, a3)&#39;.</text>
<!-- Node0xde85ef0 -->
<g id="node1" class="node"><title>Node0xde85ef0</title>
<polygon fill="none" stroke="black" points="328,-261.5 328,-329.5 387,-329.5 387,-261.5 328,-261.5"/>
<text text-anchor="start" x="336" y="-314.3" font-family="Times,serif" font-size="14.00">entry:</text>
<text text-anchor="start" x="336" y="-299.3" font-family="Times,serif" font-size="14.00"> a1</text>
<text text-anchor="start" x="336" y="-284.3" font-family="Times,serif" font-size="14.00"> a2</text>
<text text-anchor="start" x="336" y="-269.3" font-family="Times,serif" font-size="14.00"> a3</text>
</g>
<!-- Node0x24b6bf40 -->
<g id="node2" class="node"><title>Node0x24b6bf40</title>
<polygon fill="none" stroke="black" points="0,-96.5 0,-224.5 715,-224.5 715,-96.5 0,-96.5"/>
<text text-anchor="start" x="8" y="-209.3" font-family="Times,serif" font-size="14.00">v1 = (a3 &gt;&gt; 31)</text>
<text text-anchor="start" x="8" y="-194.3" font-family="Times,serif" font-size="14.00"> v2 = (v1 | 1)</text>
<text text-anchor="start" x="8" y="-179.3" font-family="Times,serif" font-size="14.00"> g6 = v1</text>
<text text-anchor="start" x="8" y="-164.3" font-family="Times,serif" font-size="14.00"> result = mbedtls_mpi_sub_mpi(IntToPtrCastExpr&lt;ptr&gt;(a1), IntToPtrCastExpr&lt;ptr&gt;(a2), &amp;(v2))</text>
<text text-anchor="start" x="8" y="-149.3" font-family="Times,serif" font-size="14.00"> g1 = result</text>
<text text-anchor="start" x="8" y="-134.3" font-family="Times,serif" font-size="14.00"> v3</text>
<text text-anchor="start" x="8" y="-119.3" font-family="Times,serif" font-size="14.00"> g2 = v3</text>
<text text-anchor="start" x="8" y="-104.3" font-family="Times,serif" font-size="14.00"> return result</text>
</g>
<!-- Node0xde85ef0&#45;&gt;Node0x24b6bf40 -->
<g id="edge1" class="edge"><title>Node0xde85ef0&#45;&gt;Node0x24b6bf40</title>
<path fill="none" stroke="black" d="M357.5,-261.282C357.5,-253.089 357.5,-243.987 357.5,-234.71"/>
<polygon fill="black" stroke="black" points="361,-234.609 357.5,-224.609 354,-234.609 361,-234.609"/>
</g>
<!-- Node0x24b6c060 -->
<g id="node3" class="node"><title>Node0x24b6c060</title>
<polygon fill="none" stroke="black" points="330.5,-23.5 330.5,-59.5 384.5,-59.5 384.5,-23.5 330.5,-23.5"/>
<text text-anchor="start" x="338.5" y="-37.8" font-family="Times,serif" font-size="14.00">exit:</text>
</g>
<!-- Node0x24b6bf40&#45;&gt;Node0x24b6c060 -->
<g id="edge2" class="edge"><title>Node0x24b6bf40&#45;&gt;Node0x24b6c060</title>
<path fill="none" stroke="black" d="M357.5,-96.206C357.5,-87.0257 357.5,-78.004 357.5,-70.0532"/>
<polygon fill="black" stroke="black" points="361,-69.9607 357.5,-59.9608 354,-69.9608 361,-69.9607"/>
</g>
</g>
</svg>
