<?xml version="1.0" encoding="UTF-8" standalone="no"?>
<!DOCTYPE svg PUBLIC "-//W3C//DTD SVG 1.1//EN"
 "http://www.w3.org/Graphics/SVG/1.1/DTD/svg11.dtd">
<!-- Generated by graphviz version 2.38.0 (20140413.2041)
 -->
<!-- Title: Control&#45;flow graph for function &#39;ecp_safe_invert_jac(a1, a2, a3)&#39;. Pages: 1 -->
<svg width="1500pt" height="790pt"
 viewBox="0.00 0.00 1499.50 790.00" xmlns="http://www.w3.org/2000/svg" xmlns:xlink="http://www.w3.org/1999/xlink">
<g id="graph0" class="graph" transform="scale(1 1) rotate(0) translate(4 786)">
<title>Control&#45;flow graph for function &#39;ecp_safe_invert_jac(a1, a2, a3)&#39;.</title>
<polygon fill="white" stroke="none" points="-4,4 -4,-786 1495.5,-786 1495.5,4 -4,4"/>
<text text-anchor="middle" x="745.75" y="-7.8" font-family="Times,serif" font-size="14.00">Control&#45;flow graph for function &#39;ecp_safe_invert_jac(a1, a2, a3)&#39;.</text>
<!-- Node0x1e8fa070 -->
<g id="node1" class="node"><title>Node0x1e8fa070</title>
<polygon fill="none" stroke="black" points="1036,-713.5 1036,-781.5 1095,-781.5 1095,-713.5 1036,-713.5"/>
<text text-anchor="start" x="1044" y="-766.3" font-family="Times,serif" font-size="14.00">entry:</text>
<text text-anchor="start" x="1044" y="-751.3" font-family="Times,serif" font-size="14.00"> a1</text>
<text text-anchor="start" x="1044" y="-736.3" font-family="Times,serif" font-size="14.00"> a2</text>
<text text-anchor="start" x="1044" y="-721.3" font-family="Times,serif" font-size="14.00"> a3</text>
</g>
<!-- Node0xfb57850 -->
<g id="node2" class="node"><title>Node0xfb57850</title>
<polygon fill="none" stroke="black" points="639.5,-487.5 639.5,-675.5 1491.5,-675.5 1491.5,-487.5 639.5,-487.5"/>
<text text-anchor="start" x="647.5" y="-660.3" font-family="Times,serif" font-size="14.00">v1 = g3</text>
<text text-anchor="start" x="647.5" y="-645.3" font-family="Times,serif" font-size="14.00"> v2 = g5</text>
<text text-anchor="start" x="647.5" y="-630.3" font-family="Times,serif" font-size="14.00"> v3 = (g1 + 4)</text>
<text text-anchor="start" x="647.5" y="-615.3" font-family="Times,serif" font-size="14.00"> g3 = v3</text>
<text text-anchor="start" x="647.5" y="-600.3" font-family="Times,serif" font-size="14.00"> v4 = g7</text>
<text text-anchor="start" x="647.5" y="-585.3" font-family="Times,serif" font-size="14.00"> g5 = (g6 + 12)</text>
<text text-anchor="start" x="647.5" y="-570.3" font-family="Times,serif" font-size="14.00"> v5</text>
<text text-anchor="start" x="647.5" y="-555.3" font-family="Times,serif" font-size="14.00"> g7 = &amp;(v5)</text>
<text text-anchor="start" x="647.5" y="-540.3" font-family="Times,serif" font-size="14.00"> mbedtls_mpi_init(&amp;(v5))</text>
<text text-anchor="start" x="647.5" y="-525.3" font-family="Times,serif" font-size="14.00"> v6 = mbedtls_mpi_sub_mpi(IntToPtrCastExpr&lt;ptr&gt;(g7), IntToPtrCastExpr&lt;ptr&gt;(v3), IntToPtrCastExpr&lt;ptr&gt;(g5))</text>
<text text-anchor="start" x="647.5" y="-510.3" font-family="Times,serif" font-size="14.00"> g1 = v6</text>
<text text-anchor="start" x="647.5" y="-495.3" font-family="Times,serif" font-size="14.00"> g3 = v6</text>
</g>
<!-- Node0x1e8fa070&#45;&gt;Node0xfb57850 -->
<g id="edge1" class="edge"><title>Node0x1e8fa070&#45;&gt;Node0xfb57850</title>
<path fill="none" stroke="black" d="M1065.5,-713.312C1065.5,-705.046 1065.5,-695.739 1065.5,-685.996"/>
<polygon fill="black" stroke="black" points="1069,-685.711 1065.5,-675.711 1062,-685.711 1069,-685.711"/>
</g>
<!-- Node0x1e8f8720 -->
<g id="node3" class="node"><title>Node0x1e8f8720</title>
<polygon fill="none" stroke="black" points="1013,-413.5 1013,-449.5 1118,-449.5 1118,-413.5 1013,-413.5"/>
<text text-anchor="start" x="1021" y="-427.8" font-family="Times,serif" font-size="14.00">if (v6 == 0):</text>
</g>
<!-- Node0xfb57850&#45;&gt;Node0x1e8f8720 -->
<g id="edge2" class="edge"><title>Node0xfb57850&#45;&gt;Node0x1e8f8720</title>
<path fill="none" stroke="black" d="M1065.5,-487.189C1065.5,-477.348 1065.5,-467.996 1065.5,-459.899"/>
<polygon fill="black" stroke="black" points="1069,-459.708 1065.5,-449.708 1062,-459.708 1069,-459.708"/>
</g>
<!-- Node0x172fcfd0 -->
<g id="node4" class="node"><title>Node0x172fcfd0</title>
<polygon fill="none" stroke="black" points="0,-293.5 0,-361.5 1187,-361.5 1187,-293.5 0,-293.5"/>
<text text-anchor="start" x="8" y="-346.3" font-family="Times,serif" font-size="14.00">v7 = mbedtls_mpi_cmp_int(g5, 0)</text>
<text text-anchor="start" x="8" y="-331.3" font-family="Times,serif" font-size="14.00"> v8 = mbedtls_mpi_safe_cond_assign(IntToPtrCastExpr&lt;ptr&gt;(g5), IntToPtrCastExpr&lt;ptr&gt;(g7), ((g4 % 2) &amp; ((ExtCastExpr&lt;int32&gt;((v7 == 0)) | (v7 &amp; &#45;256)) ^ 1)))</text>
<text text-anchor="start" x="8" y="-316.3" font-family="Times,serif" font-size="14.00"> g1 = v8</text>
<text text-anchor="start" x="8" y="-301.3" font-family="Times,serif" font-size="14.00"> g3 = v8</text>
</g>
<!-- Node0x1e8f8720&#45;&gt;Node0x172fcfd0 -->
<g id="edge3" class="edge"><title>Node0x1e8f8720&#45;&gt;Node0x172fcfd0</title>
<path fill="none" stroke="black" d="M1012.73,-419.096C950.995,-405.755 845.823,-383.027 756.268,-363.674"/>
<polygon fill="black" stroke="black" points="756.779,-360.204 746.265,-361.513 755.3,-367.046 756.779,-360.204"/>
<text text-anchor="middle" x="929.5" y="-383.8" font-family="Times,serif" font-size="14.00">v6 == 0</text>
</g>
<!-- Node0xfb54510 -->
<g id="node5" class="node"><title>Node0xfb54510</title>
<polygon fill="none" stroke="black" points="878.5,-97.5 878.5,-255.5 1240.5,-255.5 1240.5,-97.5 878.5,-97.5"/>
<text text-anchor="start" x="886.5" y="-240.3" font-family="Times,serif" font-size="14.00">0x805d54a:</text>
<text text-anchor="start" x="886.5" y="-225.3" font-family="Times,serif" font-size="14.00"> mbedtls_mpi_free(IntToPtrCastExpr&lt;ptr&gt;(g7))</text>
<text text-anchor="start" x="886.5" y="-210.3" font-family="Times,serif" font-size="14.00"> result = g3</text>
<text text-anchor="start" x="886.5" y="-195.3" font-family="Times,serif" font-size="14.00"> g1 = result</text>
<text text-anchor="start" x="886.5" y="-180.3" font-family="Times,serif" font-size="14.00"> g7 = v4</text>
<text text-anchor="start" x="886.5" y="-165.3" font-family="Times,serif" font-size="14.00"> g3 = v1</text>
<text text-anchor="start" x="886.5" y="-150.3" font-family="Times,serif" font-size="14.00"> g5 = v2</text>
<text text-anchor="start" x="886.5" y="-135.3" font-family="Times,serif" font-size="14.00"> v9</text>
<text text-anchor="start" x="886.5" y="-120.3" font-family="Times,serif" font-size="14.00"> g2 = v9</text>
<text text-anchor="start" x="886.5" y="-105.3" font-family="Times,serif" font-size="14.00"> return result</text>
</g>
<!-- Node0x1e8f8720&#45;&gt;Node0xfb54510 -->
<g id="edge4" class="edge"><title>Node0x1e8f8720&#45;&gt;Node0xfb54510</title>
<path fill="none" stroke="black" d="M1118.18,-417.1C1146.38,-406.95 1178.7,-389.849 1195.5,-362 1211.34,-335.743 1208.38,-320.832 1195.5,-293 1190.67,-282.563 1184.38,-272.724 1177.16,-263.529"/>
<polygon fill="black" stroke="black" points="1179.67,-261.07 1170.58,-255.616 1174.28,-265.544 1179.67,-261.07"/>
<text text-anchor="middle" x="1233.5" y="-323.8" font-family="Times,serif" font-size="14.00">v6 != 0</text>
</g>
<!-- Node0x172fcfd0&#45;&gt;Node0xfb54510 -->
<g id="edge5" class="edge"><title>Node0x172fcfd0&#45;&gt;Node0xfb54510</title>
<path fill="none" stroke="black" d="M696.921,-293.432C747.466,-277.27 809.942,-257.294 868.71,-238.504"/>
<polygon fill="black" stroke="black" points="870.029,-241.757 878.488,-235.377 867.897,-235.089 870.029,-241.757"/>
</g>
<!-- Node0xea67790 -->
<g id="node6" class="node"><title>Node0xea67790</title>
<polygon fill="none" stroke="black" points="1032.5,-23.5 1032.5,-59.5 1086.5,-59.5 1086.5,-23.5 1032.5,-23.5"/>
<text text-anchor="start" x="1040.5" y="-37.8" font-family="Times,serif" font-size="14.00">exit:</text>
</g>
<!-- Node0xfb54510&#45;&gt;Node0xea67790 -->
<g id="edge6" class="edge"><title>Node0xfb54510&#45;&gt;Node0xea67790</title>
<path fill="none" stroke="black" d="M1059.5,-97.3641C1059.5,-87.4565 1059.5,-77.9047 1059.5,-69.6254"/>
<polygon fill="black" stroke="black" points="1063,-69.5515 1059.5,-59.5516 1056,-69.5516 1063,-69.5515"/>
</g>
</g>
</svg>
