<?xml version="1.0" encoding="UTF-8" standalone="no"?>
<!DOCTYPE svg PUBLIC "-//W3C//DTD SVG 1.1//EN"
 "http://www.w3.org/Graphics/SVG/1.1/DTD/svg11.dtd">
<!-- Generated by graphviz version 2.38.0 (20140413.2041)
 -->
<!-- Title: Control&#45;flow graph for function &#39;aes_crypt_cfb128_wrap(a1)&#39;. Pages: 1 -->
<svg width="462pt" height="278pt"
 viewBox="0.00 0.00 462.00 278.00" xmlns="http://www.w3.org/2000/svg" xmlns:xlink="http://www.w3.org/1999/xlink">
<g id="graph0" class="graph" transform="scale(1 1) rotate(0) translate(4 274)">
<title>Control&#45;flow graph for function &#39;aes_crypt_cfb128_wrap(a1)&#39;.</title>
<polygon fill="white" stroke="none" points="-4,4 -4,-274 458,-274 458,4 -4,4"/>
<text text-anchor="middle" x="227" y="-7.8" font-family="Times,serif" font-size="14.00">Control&#45;flow graph for function &#39;aes_crypt_cfb128_wrap(a1)&#39;.</text>
<!-- Node0x99cc150 -->
<g id="node1" class="node"><title>Node0x99cc150</title>
<polygon fill="none" stroke="black" points="197.5,-231.5 197.5,-269.5 256.5,-269.5 256.5,-231.5 197.5,-231.5"/>
<text text-anchor="start" x="205.5" y="-254.3" font-family="Times,serif" font-size="14.00">entry:</text>
<text text-anchor="start" x="205.5" y="-239.3" font-family="Times,serif" font-size="14.00"> a1</text>
</g>
<!-- Node0x99cc0b0 -->
<g id="node2" class="node"><title>Node0x99cc0b0</title>
<polygon fill="none" stroke="black" points="27,-96.5 27,-194.5 427,-194.5 427,-96.5 27,-96.5"/>
<text text-anchor="start" x="35" y="-179.3" font-family="Times,serif" font-size="14.00">0x806aaa0:</text>
<text text-anchor="start" x="35" y="-164.3" font-family="Times,serif" font-size="14.00"> v1</text>
<text text-anchor="start" x="35" y="-149.3" font-family="Times,serif" font-size="14.00"> v2</text>
<text text-anchor="start" x="35" y="-134.3" font-family="Times,serif" font-size="14.00"> mbedtls_aes_crypt_cfb128(v2, v1, a1, NULL, 0, 0, 0)</text>
<text text-anchor="start" x="35" y="-119.3" font-family="Times,serif" font-size="14.00"> g1 = 0</text>
<text text-anchor="start" x="35" y="-104.3" font-family="Times,serif" font-size="14.00"> return 0</text>
</g>
<!-- Node0x99cc150&#45;&gt;Node0x99cc0b0 -->
<g id="edge1" class="edge"><title>Node0x99cc150&#45;&gt;Node0x99cc0b0</title>
<path fill="none" stroke="black" d="M227,-231.086C227,-223.607 227,-214.513 227,-205.097"/>
<polygon fill="black" stroke="black" points="230.5,-204.814 227,-194.814 223.5,-204.815 230.5,-204.814"/>
</g>
<!-- Node0xf2790d0 -->
<g id="node3" class="node"><title>Node0xf2790d0</title>
<polygon fill="none" stroke="black" points="200,-23.5 200,-59.5 254,-59.5 254,-23.5 200,-23.5"/>
<text text-anchor="start" x="208" y="-37.8" font-family="Times,serif" font-size="14.00">exit:</text>
</g>
<!-- Node0x99cc0b0&#45;&gt;Node0xf2790d0 -->
<g id="edge2" class="edge"><title>Node0x99cc0b0&#45;&gt;Node0xf2790d0</title>
<path fill="none" stroke="black" d="M227,-96.4868C227,-87.2893 227,-77.9618 227,-69.7064"/>
<polygon fill="black" stroke="black" points="230.5,-69.5725 227,-59.5725 223.5,-69.5725 230.5,-69.5725"/>
</g>
</g>
</svg>
