<?xml version="1.0" encoding="UTF-8" standalone="no"?>
<!DOCTYPE svg PUBLIC "-//W3C//DTD SVG 1.1//EN"
 "http://www.w3.org/Graphics/SVG/1.1/DTD/svg11.dtd">
<!-- Generated by graphviz version 2.38.0 (20140413.2041)
 -->
<!-- Title: Control&#45;flow graph for function &#39;__lctrans_impl(result)&#39;. Pages: 1 -->
<svg width="421pt" height="233pt"
 viewBox="0.00 0.00 421.00 233.00" xmlns="http://www.w3.org/2000/svg" xmlns:xlink="http://www.w3.org/1999/xlink">
<g id="graph0" class="graph" transform="scale(1 1) rotate(0) translate(4 229)">
<title>Control&#45;flow graph for function &#39;__lctrans_impl(result)&#39;.</title>
<polygon fill="white" stroke="none" points="-4,4 -4,-229 417,-229 417,4 -4,4"/>
<text text-anchor="middle" x="206.5" y="-7.8" font-family="Times,serif" font-size="14.00">Control&#45;flow graph for function &#39;__lctrans_impl(result)&#39;.</text>
<!-- Node0x2737e480 -->
<g id="node1" class="node"><title>Node0x2737e480</title>
<polygon fill="none" stroke="black" points="175,-186.5 175,-224.5 238,-224.5 238,-186.5 175,-186.5"/>
<text text-anchor="start" x="183" y="-209.3" font-family="Times,serif" font-size="14.00">entry:</text>
<text text-anchor="start" x="183" y="-194.3" font-family="Times,serif" font-size="14.00"> result</text>
</g>
<!-- Node0x2737ab40 -->
<g id="node2" class="node"><title>Node0x2737ab40</title>
<polygon fill="none" stroke="black" points="150,-96.5 150,-149.5 263,-149.5 263,-96.5 150,-96.5"/>
<text text-anchor="start" x="158" y="-134.3" font-family="Times,serif" font-size="14.00">0x8075b84:</text>
<text text-anchor="start" x="158" y="-119.3" font-family="Times,serif" font-size="14.00"> g1 = result</text>
<text text-anchor="start" x="158" y="-104.3" font-family="Times,serif" font-size="14.00"> return result</text>
</g>
<!-- Node0x2737e480&#45;&gt;Node0x2737ab40 -->
<g id="edge1" class="edge"><title>Node0x2737e480&#45;&gt;Node0x2737ab40</title>
<path fill="none" stroke="black" d="M206.5,-186.233C206.5,-178.347 206.5,-168.835 206.5,-159.648"/>
<polygon fill="black" stroke="black" points="210,-159.517 206.5,-149.517 203,-159.517 210,-159.517"/>
</g>
<!-- Node0xcb305d0 -->
<g id="node3" class="node"><title>Node0xcb305d0</title>
<polygon fill="none" stroke="black" points="179.5,-23.5 179.5,-59.5 233.5,-59.5 233.5,-23.5 179.5,-23.5"/>
<text text-anchor="start" x="187.5" y="-37.8" font-family="Times,serif" font-size="14.00">exit:</text>
</g>
<!-- Node0x2737ab40&#45;&gt;Node0xcb305d0 -->
<g id="edge2" class="edge"><title>Node0x2737ab40&#45;&gt;Node0xcb305d0</title>
<path fill="none" stroke="black" d="M206.5,-96.4081C206.5,-87.9823 206.5,-78.5803 206.5,-70.0174"/>
<polygon fill="black" stroke="black" points="210,-69.7564 206.5,-59.7564 203,-69.7565 210,-69.7564"/>
</g>
</g>
</svg>
