<?xml version="1.0" encoding="UTF-8" standalone="no"?>
<!DOCTYPE svg PUBLIC "-//W3C//DTD SVG 1.1//EN"
 "http://www.w3.org/Graphics/SVG/1.1/DTD/svg11.dtd">
<!-- Generated by graphviz version 2.38.0 (20140413.2041)
 -->
<!-- Title: Control&#45;flow graph for function &#39;mbedtls_asn1_get_mpi(*a1, a2, a3)&#39;. Pages: 1 -->
<svg width="751pt" height="625pt"
 viewBox="0.00 0.00 751.00 625.00" xmlns="http://www.w3.org/2000/svg" xmlns:xlink="http://www.w3.org/1999/xlink">
<g id="graph0" class="graph" transform="scale(1 1) rotate(0) translate(4 621)">
<title>Control&#45;flow graph for function &#39;mbedtls_asn1_get_mpi(*a1, a2, a3)&#39;.</title>
<polygon fill="white" stroke="none" points="-4,4 -4,-621 747,-621 747,4 -4,4"/>
<text text-anchor="middle" x="371.5" y="-7.8" font-family="Times,serif" font-size="14.00">Control&#45;flow graph for function &#39;mbedtls_asn1_get_mpi(*a1, a2, a3)&#39;.</text>
<!-- Node0x15c30a50 -->
<g id="node1" class="node"><title>Node0x15c30a50</title>
<polygon fill="none" stroke="black" points="443,-548.5 443,-616.5 502,-616.5 502,-548.5 443,-548.5"/>
<text text-anchor="start" x="451" y="-601.3" font-family="Times,serif" font-size="14.00">entry:</text>
<text text-anchor="start" x="451" y="-586.3" font-family="Times,serif" font-size="14.00"> a1</text>
<text text-anchor="start" x="451" y="-571.3" font-family="Times,serif" font-size="14.00"> a2</text>
<text text-anchor="start" x="451" y="-556.3" font-family="Times,serif" font-size="14.00"> a3</text>
</g>
<!-- Node0xadb5eb0 -->
<g id="node2" class="node"><title>Node0xadb5eb0</title>
<polygon fill="none" stroke="black" points="202,-427.5 202,-510.5 743,-510.5 743,-427.5 202,-427.5"/>
<text text-anchor="start" x="210" y="-495.3" font-family="Times,serif" font-size="14.00">v1 = g3</text>
<text text-anchor="start" x="210" y="-480.3" font-family="Times,serif" font-size="14.00"> g3 = PtrToIntCastExpr&lt;int32&gt;(a1)</text>
<text text-anchor="start" x="210" y="-465.3" font-family="Times,serif" font-size="14.00"> v2</text>
<text text-anchor="start" x="210" y="-450.3" font-family="Times,serif" font-size="14.00"> v3 = mbedtls_asn1_get_tag(a1, a2, PtrToIntCastExpr&lt;int32&gt;(&amp;(v2)), 2)</text>
<text text-anchor="start" x="210" y="-435.3" font-family="Times,serif" font-size="14.00"> result = v3</text>
</g>
<!-- Node0x15c30a50&#45;&gt;Node0xadb5eb0 -->
<g id="edge1" class="edge"><title>Node0x15c30a50&#45;&gt;Node0xadb5eb0</title>
<path fill="none" stroke="black" d="M472.5,-548.348C472.5,-539.674 472.5,-530.121 472.5,-520.758"/>
<polygon fill="black" stroke="black" points="476,-520.722 472.5,-510.722 469,-520.722 476,-520.722"/>
</g>
<!-- Node0xdce50e0 -->
<g id="node3" class="node"><title>Node0xdce50e0</title>
<polygon fill="none" stroke="black" points="420,-353.5 420,-389.5 525,-389.5 525,-353.5 420,-353.5"/>
<text text-anchor="start" x="428" y="-367.8" font-family="Times,serif" font-size="14.00">if (v3 == 0):</text>
</g>
<!-- Node0xadb5eb0&#45;&gt;Node0xdce50e0 -->
<g id="edge2" class="edge"><title>Node0xadb5eb0&#45;&gt;Node0xdce50e0</title>
<path fill="none" stroke="black" d="M472.5,-427.499C472.5,-418.206 472.5,-408.537 472.5,-399.946"/>
<polygon fill="black" stroke="black" points="476,-399.749 472.5,-389.749 469,-399.749 476,-399.749"/>
</g>
<!-- Node0xdce4410 -->
<g id="node4" class="node"><title>Node0xdce4410</title>
<polygon fill="none" stroke="black" points="0,-188.5 0,-301.5 509,-301.5 509,-188.5 0,-188.5"/>
<text text-anchor="start" x="8" y="-286.3" font-family="Times,serif" font-size="14.00">v4 = *(IntToPtrCastExpr&lt;ptr&gt;(g3))</text>
<text text-anchor="start" x="8" y="-271.3" font-family="Times,serif" font-size="14.00"> v5 = mbedtls_mpi_read_binary(a3, IntToPtrCastExpr&lt;ptr&gt;(v4), v2)</text>
<text text-anchor="start" x="8" y="-256.3" font-family="Times,serif" font-size="14.00"> v6 = v2</text>
<text text-anchor="start" x="8" y="-241.3" font-family="Times,serif" font-size="14.00"> g6 = v6</text>
<text text-anchor="start" x="8" y="-226.3" font-family="Times,serif" font-size="14.00"> v7 = IntToPtrCastExpr&lt;ptr&gt;(g3)</text>
<text text-anchor="start" x="8" y="-211.3" font-family="Times,serif" font-size="14.00"> *(v7) = (*(v7) + v6)</text>
<text text-anchor="start" x="8" y="-196.3" font-family="Times,serif" font-size="14.00"> result = v5</text>
</g>
<!-- Node0xdce50e0&#45;&gt;Node0xdce4410 -->
<g id="edge3" class="edge"><title>Node0xdce50e0&#45;&gt;Node0xdce4410</title>
<path fill="none" stroke="black" d="M442.645,-353.45C421.206,-341.206 390.904,-323.9 360.869,-306.747"/>
<polygon fill="black" stroke="black" points="362.41,-303.597 351.991,-301.677 358.938,-309.676 362.41,-303.597"/>
<text text-anchor="middle" x="438.5" y="-323.8" font-family="Times,serif" font-size="14.00">v3 == 0</text>
</g>
<!-- Node0xc1d26c0 -->
<g id="node5" class="node"><title>Node0xc1d26c0</title>
<polygon fill="none" stroke="black" points="410,-97.5 410,-150.5 523,-150.5 523,-97.5 410,-97.5"/>
<text text-anchor="start" x="418" y="-135.3" font-family="Times,serif" font-size="14.00">0x8056339:</text>
<text text-anchor="start" x="418" y="-120.3" font-family="Times,serif" font-size="14.00"> g3 = v1</text>
<text text-anchor="start" x="418" y="-105.3" font-family="Times,serif" font-size="14.00"> return result</text>
</g>
<!-- Node0xdce50e0&#45;&gt;Node0xc1d26c0 -->
<g id="edge4" class="edge"><title>Node0xdce50e0&#45;&gt;Node0xc1d26c0</title>
<path fill="none" stroke="black" d="M487.879,-353.363C498.498,-340.317 511.71,-321.358 517.5,-302 532.018,-253.458 534.409,-235.762 517.5,-188 513.761,-177.437 507.413,-167.351 500.443,-158.466"/>
<polygon fill="black" stroke="black" points="503.021,-156.093 493.922,-150.665 497.65,-160.582 503.021,-156.093"/>
<text text-anchor="middle" x="556.5" y="-241.3" font-family="Times,serif" font-size="14.00">v3 != 0</text>
</g>
<!-- Node0xdce4410&#45;&gt;Node0xc1d26c0 -->
<g id="edge5" class="edge"><title>Node0xdce4410&#45;&gt;Node0xc1d26c0</title>
<path fill="none" stroke="black" d="M353.672,-188.333C373.678,-177.103 394.009,-165.691 411.799,-155.705"/>
<polygon fill="black" stroke="black" points="413.849,-158.568 420.856,-150.621 410.423,-152.464 413.849,-158.568"/>
</g>
<!-- Node0x15c30ab0 -->
<g id="node6" class="node"><title>Node0x15c30ab0</title>
<polygon fill="none" stroke="black" points="439.5,-23.5 439.5,-59.5 493.5,-59.5 493.5,-23.5 439.5,-23.5"/>
<text text-anchor="start" x="447.5" y="-37.8" font-family="Times,serif" font-size="14.00">exit:</text>
</g>
<!-- Node0xc1d26c0&#45;&gt;Node0x15c30ab0 -->
<g id="edge6" class="edge"><title>Node0xc1d26c0&#45;&gt;Node0x15c30ab0</title>
<path fill="none" stroke="black" d="M466.5,-97.0862C466.5,-88.4596 466.5,-78.8224 466.5,-70.0748"/>
<polygon fill="black" stroke="black" points="470,-69.9735 466.5,-59.9735 463,-69.9735 470,-69.9735"/>
</g>
</g>
</svg>
