<?xml version="1.0" encoding="UTF-8" standalone="no"?>
<!DOCTYPE svg PUBLIC "-//W3C//DTD SVG 1.1//EN"
 "http://www.w3.org/Graphics/SVG/1.1/DTD/svg11.dtd">
<!-- Generated by graphviz version 2.38.0 (20140413.2041)
 -->
<!-- Title: Control&#45;flow graph for function &#39;rsa_alt_can_do(a1)&#39;. Pages: 1 -->
<svg width="398pt" height="233pt"
 viewBox="0.00 0.00 398.00 233.00" xmlns="http://www.w3.org/2000/svg" xmlns:xlink="http://www.w3.org/1999/xlink">
<g id="graph0" class="graph" transform="scale(1 1) rotate(0) translate(4 229)">
<title>Control&#45;flow graph for function &#39;rsa_alt_can_do(a1)&#39;.</title>
<polygon fill="white" stroke="none" points="-4,4 -4,-229 394,-229 394,4 -4,4"/>
<text text-anchor="middle" x="195" y="-7.8" font-family="Times,serif" font-size="14.00">Control&#45;flow graph for function &#39;rsa_alt_can_do(a1)&#39;.</text>
<!-- Node0xf249f30 -->
<g id="node1" class="node"><title>Node0xf249f30</title>
<polygon fill="none" stroke="black" points="165.5,-186.5 165.5,-224.5 224.5,-224.5 224.5,-186.5 165.5,-186.5"/>
<text text-anchor="start" x="173.5" y="-209.3" font-family="Times,serif" font-size="14.00">entry:</text>
<text text-anchor="start" x="173.5" y="-194.3" font-family="Times,serif" font-size="14.00"> a1</text>
</g>
<!-- Node0xf248e70 -->
<g id="node2" class="node"><title>Node0xf248e70</title>
<polygon fill="none" stroke="black" points="40,-96.5 40,-149.5 350,-149.5 350,-96.5 40,-96.5"/>
<text text-anchor="start" x="48" y="-134.3" font-family="Times,serif" font-size="14.00">result = BitCastExpr&lt;uint1&gt;((a1 == 1))</text>
<text text-anchor="start" x="48" y="-119.3" font-family="Times,serif" font-size="14.00"> g1 = result</text>
<text text-anchor="start" x="48" y="-104.3" font-family="Times,serif" font-size="14.00"> return result</text>
</g>
<!-- Node0xf249f30&#45;&gt;Node0xf248e70 -->
<g id="edge1" class="edge"><title>Node0xf249f30&#45;&gt;Node0xf248e70</title>
<path fill="none" stroke="black" d="M195,-186.233C195,-178.347 195,-168.835 195,-159.648"/>
<polygon fill="black" stroke="black" points="198.5,-159.517 195,-149.517 191.5,-159.517 198.5,-159.517"/>
</g>
<!-- Node0xd91b2c0 -->
<g id="node3" class="node"><title>Node0xd91b2c0</title>
<polygon fill="none" stroke="black" points="168,-23.5 168,-59.5 222,-59.5 222,-23.5 168,-23.5"/>
<text text-anchor="start" x="176" y="-37.8" font-family="Times,serif" font-size="14.00">exit:</text>
</g>
<!-- Node0xf248e70&#45;&gt;Node0xd91b2c0 -->
<g id="edge2" class="edge"><title>Node0xf248e70&#45;&gt;Node0xd91b2c0</title>
<path fill="none" stroke="black" d="M195,-96.4081C195,-87.9823 195,-78.5803 195,-70.0174"/>
<polygon fill="black" stroke="black" points="198.5,-69.7564 195,-59.7564 191.5,-69.7565 198.5,-69.7564"/>
</g>
</g>
</svg>
