<?xml version="1.0" encoding="UTF-8" standalone="no"?>
<!DOCTYPE svg PUBLIC "-//W3C//DTD SVG 1.1//EN"
 "http://www.w3.org/Graphics/SVG/1.1/DTD/svg11.dtd">
<!-- Generated by graphviz version 2.38.0 (20140413.2041)
 -->
<!-- Title: Control&#45;flow graph for function &#39;add_zeros_and_len_padding(a1, a2, a3)&#39;. Pages: 1 -->
<svg width="1249pt" height="1019pt"
 viewBox="0.00 0.00 1249.00 1019.00" xmlns="http://www.w3.org/2000/svg" xmlns:xlink="http://www.w3.org/1999/xlink">
<g id="graph0" class="graph" transform="scale(1 1) rotate(0) translate(4 1015)">
<title>Control&#45;flow graph for function &#39;add_zeros_and_len_padding(a1, a2, a3)&#39;.</title>
<polygon fill="white" stroke="none" points="-4,4 -4,-1015 1245,-1015 1245,4 -4,4"/>
<text text-anchor="middle" x="620.5" y="-7.8" font-family="Times,serif" font-size="14.00">Control&#45;flow graph for function &#39;add_zeros_and_len_padding(a1, a2, a3)&#39;.</text>
<!-- Node0x201045f0 -->
<g id="node1" class="node"><title>Node0x201045f0</title>
<polygon fill="none" stroke="black" points="328,-942.5 328,-1010.5 387,-1010.5 387,-942.5 328,-942.5"/>
<text text-anchor="start" x="336" y="-995.3" font-family="Times,serif" font-size="14.00">entry:</text>
<text text-anchor="start" x="336" y="-980.3" font-family="Times,serif" font-size="14.00"> a1</text>
<text text-anchor="start" x="336" y="-965.3" font-family="Times,serif" font-size="14.00"> a2</text>
<text text-anchor="start" x="336" y="-950.3" font-family="Times,serif" font-size="14.00"> a3</text>
</g>
<!-- Node0x107bbc70 -->
<g id="node2" class="node"><title>Node0x107bbc70</title>
<polygon fill="none" stroke="black" points="298.5,-851.5 298.5,-904.5 416.5,-904.5 416.5,-851.5 298.5,-851.5"/>
<text text-anchor="start" x="306.5" y="-889.3" font-family="Times,serif" font-size="14.00">v1 = g3</text>
<text text-anchor="start" x="306.5" y="-874.3" font-family="Times,serif" font-size="14.00"> v2 = (a2 &#45; a3)</text>
<text text-anchor="start" x="306.5" y="-859.3" font-family="Times,serif" font-size="14.00"> v3</text>
</g>
<!-- Node0x201045f0&#45;&gt;Node0x107bbc70 -->
<g id="edge1" class="edge"><title>Node0x201045f0&#45;&gt;Node0x107bbc70</title>
<path fill="none" stroke="black" d="M357.5,-942.29C357.5,-933.434 357.5,-923.827 357.5,-914.837"/>
<polygon fill="black" stroke="black" points="361,-914.648 357.5,-904.648 354,-914.648 361,-914.648"/>
</g>
<!-- Node0x107bbdb0 -->
<g id="node3" class="node"><title>Node0x107bbdb0</title>
<polygon fill="none" stroke="black" points="311,-777.5 311,-813.5 404,-813.5 404,-777.5 311,-777.5"/>
<text text-anchor="start" x="319" y="-791.8" font-family="Times,serif" font-size="14.00">if (v2 &lt; 2):</text>
</g>
<!-- Node0x107bbc70&#45;&gt;Node0x107bbdb0 -->
<g id="edge2" class="edge"><title>Node0x107bbc70&#45;&gt;Node0x107bbdb0</title>
<path fill="none" stroke="black" d="M357.5,-851.086C357.5,-842.46 357.5,-832.822 357.5,-824.075"/>
<polygon fill="black" stroke="black" points="361,-823.973 357.5,-813.974 354,-823.974 361,-823.973"/>
</g>
<!-- Node0x107bc3e0 -->
<g id="node4" class="node"><title>Node0x107bc3e0</title>
<polygon fill="none" stroke="black" points="0,-525.5 0,-608.5 533,-608.5 533,-525.5 0,-525.5"/>
<text text-anchor="start" x="8" y="-593.3" font-family="Times,serif" font-size="14.00">0x80698d6:</text>
<text text-anchor="start" x="8" y="-578.3" font-family="Times,serif" font-size="14.00"> *(IntToPtrCastExpr&lt;ptr&gt;(((a2 &#45; 1) + a1))) = TruncCastExpr&lt;int8&gt;(v2)</text>
<text text-anchor="start" x="8" y="-563.3" font-family="Times,serif" font-size="14.00"> g3 = v1</text>
<text text-anchor="start" x="8" y="-548.3" font-family="Times,serif" font-size="14.00"> g2 = v3</text>
<text text-anchor="start" x="8" y="-533.3" font-family="Times,serif" font-size="14.00"> return g1</text>
</g>
<!-- Node0x107bbdb0&#45;&gt;Node0x107bc3e0 -->
<g id="edge3" class="edge"><title>Node0x107bbdb0&#45;&gt;Node0x107bc3e0</title>
<path fill="none" stroke="black" d="M350.66,-777.476C337.225,-744.034 306.927,-668.624 286.594,-618.014"/>
<polygon fill="black" stroke="black" points="289.769,-616.529 282.794,-608.555 283.274,-619.139 289.769,-616.529"/>
<text text-anchor="middle" x="367.5" y="-747.8" font-family="Times,serif" font-size="14.00">v2 &lt; 2</text>
</g>
<!-- Node0x107bbfb0 -->
<g id="node5" class="node"><title>Node0x107bbfb0</title>
<polygon fill="none" stroke="black" points="375,-627.5 375,-725.5 694,-725.5 694,-627.5 375,-627.5"/>
<text text-anchor="start" x="383" y="-710.3" font-family="Times,serif" font-size="14.00">0x80698b8:</text>
<text text-anchor="start" x="383" y="-695.3" font-family="Times,serif" font-size="14.00"> g1 = 2</text>
<text text-anchor="start" x="383" y="-680.3" font-family="Times,serif" font-size="14.00"> *(IntToPtrCastExpr&lt;ptr&gt;((a1 + a3))) = 0</text>
<text text-anchor="start" x="383" y="-665.3" font-family="Times,serif" font-size="14.00"> v4 = g1</text>
<text text-anchor="start" x="383" y="-650.3" font-family="Times,serif" font-size="14.00"> v5 = (v4 % 256)</text>
<text text-anchor="start" x="383" y="-635.3" font-family="Times,serif" font-size="14.00"> g6 = v5</text>
</g>
<!-- Node0x107bbdb0&#45;&gt;Node0x107bbfb0 -->
<g id="edge4" class="edge"><title>Node0x107bbdb0&#45;&gt;Node0x107bbfb0</title>
<path fill="none" stroke="black" d="M383.237,-777.487C401.758,-765.245 427.834,-748.008 453.128,-731.288"/>
<polygon fill="black" stroke="black" points="455.252,-734.08 461.664,-725.646 451.392,-728.24 455.252,-734.08"/>
<text text-anchor="middle" x="460.5" y="-747.8" font-family="Times,serif" font-size="14.00">v2 &gt;= 2</text>
</g>
<!-- Node0x107bbbf0 -->
<g id="node6" class="node"><title>Node0x107bbbf0</title>
<polygon fill="none" stroke="black" points="313.5,-23.5 313.5,-59.5 367.5,-59.5 367.5,-23.5 313.5,-23.5"/>
<text text-anchor="start" x="321.5" y="-37.8" font-family="Times,serif" font-size="14.00">exit:</text>
</g>
<!-- Node0x107bc3e0&#45;&gt;Node0x107bbbf0 -->
<g id="edge5" class="edge"><title>Node0x107bc3e0&#45;&gt;Node0x107bbbf0</title>
<path fill="none" stroke="black" d="M263.465,-525.308C261.977,-501.965 260.5,-472.101 260.5,-445.5 260.5,-445.5 260.5,-445.5 260.5,-145.5 260.5,-113.235 285.288,-84.9756 307.268,-66.2597"/>
<polygon fill="black" stroke="black" points="309.646,-68.8366 315.188,-59.8064 305.224,-63.41 309.646,-68.8366"/>
</g>
<!-- Node0x107bb8d0 -->
<g id="node7" class="node"><title>Node0x107bb8d0</title>
<polygon fill="none" stroke="black" points="505,-470.5 505,-506.5 606,-506.5 606,-470.5 505,-470.5"/>
<text text-anchor="start" x="513" y="-484.8" font-family="Times,serif" font-size="14.00">if (v2 &gt; v5):</text>
</g>
<!-- Node0x107bbfb0&#45;&gt;Node0x107bb8d0 -->
<g id="edge6" class="edge"><title>Node0x107bbfb0&#45;&gt;Node0x107bb8d0</title>
<path fill="none" stroke="black" d="M539.963,-627.116C543.928,-591.992 549.15,-545.741 552.416,-516.813"/>
<polygon fill="black" stroke="black" points="555.921,-516.963 553.566,-506.634 548.966,-516.178 555.921,-516.963"/>
</g>
<!-- Node0x107bc460 -->
<g id="node8" class="node"><title>Node0x107bc460</title>
<polygon fill="none" stroke="black" points="695,-335.5 695,-418.5 1096,-418.5 1096,-335.5 695,-335.5"/>
<text text-anchor="start" x="703" y="-403.3" font-family="Times,serif" font-size="14.00">g1 = (v4 + 1)</text>
<text text-anchor="start" x="703" y="-388.3" font-family="Times,serif" font-size="14.00"> *(IntToPtrCastExpr&lt;ptr&gt;((((a1 &#45; 1) + a3) + v5))) = 0</text>
<text text-anchor="start" x="703" y="-373.3" font-family="Times,serif" font-size="14.00"> v6 = g1</text>
<text text-anchor="start" x="703" y="-358.3" font-family="Times,serif" font-size="14.00"> v7 = (v6 % 256)</text>
<text text-anchor="start" x="703" y="-343.3" font-family="Times,serif" font-size="14.00"> g6 = v7</text>
</g>
<!-- Node0x107bb8d0&#45;&gt;Node0x107bc460 -->
<g id="edge7" class="edge"><title>Node0x107bb8d0&#45;&gt;Node0x107bc460</title>
<path fill="none" stroke="black" d="M606.034,-471.225C646.695,-458.13 705.793,-439.097 760.004,-421.638"/>
<polygon fill="black" stroke="black" points="761.265,-424.909 769.711,-418.512 759.119,-418.246 761.265,-424.909"/>
<text text-anchor="middle" x="732.5" y="-440.8" font-family="Times,serif" font-size="14.00">v2 &gt; v5</text>
</g>
<!-- Node0x107bc380 -->
<g id="node9" class="node"><title>Node0x107bc380</title>
<polygon fill="none" stroke="black" points="289,-105 289,-188 822,-188 822,-105 289,-105"/>
<text text-anchor="start" x="297" y="-172.8" font-family="Times,serif" font-size="14.00">0x80698d6:</text>
<text text-anchor="start" x="297" y="-157.8" font-family="Times,serif" font-size="14.00"> *(IntToPtrCastExpr&lt;ptr&gt;(((a2 &#45; 1) + a1))) = TruncCastExpr&lt;int8&gt;(v2)</text>
<text text-anchor="start" x="297" y="-142.8" font-family="Times,serif" font-size="14.00"> g3 = v1</text>
<text text-anchor="start" x="297" y="-127.8" font-family="Times,serif" font-size="14.00"> g2 = v3</text>
<text text-anchor="start" x="297" y="-112.8" font-family="Times,serif" font-size="14.00"> return g1</text>
</g>
<!-- Node0x107bb8d0&#45;&gt;Node0x107bc380 -->
<g id="edge8" class="edge"><title>Node0x107bb8d0&#45;&gt;Node0x107bc380</title>
<path fill="none" stroke="black" d="M555.5,-470.172C555.5,-420.441 555.5,-275.861 555.5,-198.213"/>
<polygon fill="black" stroke="black" points="559,-198.174 555.5,-188.174 552,-198.174 559,-198.174"/>
<text text-anchor="middle" x="589.5" y="-305.8" font-family="Times,serif" font-size="14.00">v2 &lt;= v5</text>
</g>
<!-- Node0x107bc0f0 -->
<g id="node10" class="node"><title>Node0x107bc0f0</title>
<polygon fill="none" stroke="black" points="914.5,-247.5 914.5,-283.5 1044.5,-283.5 1044.5,-247.5 914.5,-247.5"/>
<text text-anchor="start" x="922.5" y="-261.8" font-family="Times,serif" font-size="14.00">while (v2 &gt; v7):</text>
</g>
<!-- Node0x107bc460&#45;&gt;Node0x107bc0f0 -->
<g id="edge9" class="edge"><title>Node0x107bc460&#45;&gt;Node0x107bc0f0</title>
<path fill="none" stroke="black" d="M926.778,-335.226C938.028,-320.562 950.377,-304.463 960.294,-291.536"/>
<polygon fill="black" stroke="black" points="963.114,-293.61 966.424,-283.546 957.56,-289.35 963.114,-293.61"/>
</g>
<!-- Node0x107bc380&#45;&gt;Node0x107bbbf0 -->
<g id="edge10" class="edge"><title>Node0x107bc380&#45;&gt;Node0x107bbbf0</title>
<path fill="none" stroke="black" d="M470.835,-104.94C438.325,-89.365 402.894,-72.3911 377.191,-60.0774"/>
<polygon fill="black" stroke="black" points="378.373,-56.763 367.842,-55.5989 375.349,-63.0759 378.373,-56.763"/>
</g>
<!-- Node0x107bc0f0&#45;&gt;Node0x107bc380 -->
<g id="edge12" class="edge"><title>Node0x107bc0f0&#45;&gt;Node0x107bc380</title>
<path fill="none" stroke="black" d="M917.847,-247.487C864.103,-232.657 783.801,-210.498 712.441,-190.807"/>
<polygon fill="black" stroke="black" points="713.006,-187.332 702.435,-188.046 711.144,-194.08 713.006,-187.332"/>
<text text-anchor="middle" x="875.5" y="-217.8" font-family="Times,serif" font-size="14.00">v2 &lt;= v7</text>
</g>
<!-- Node0x107bc910 -->
<g id="node11" class="node"><title>Node0x107bc910</title>
<polygon fill="none" stroke="black" points="840,-97.5 840,-195.5 1241,-195.5 1241,-97.5 840,-97.5"/>
<text text-anchor="start" x="848" y="-180.3" font-family="Times,serif" font-size="14.00">0x80698c8:</text>
<text text-anchor="start" x="848" y="-165.3" font-family="Times,serif" font-size="14.00"> g1 = (v6 + 1)</text>
<text text-anchor="start" x="848" y="-150.3" font-family="Times,serif" font-size="14.00"> *(IntToPtrCastExpr&lt;ptr&gt;((((a1 &#45; 1) + a3) + v7))) = 0</text>
<text text-anchor="start" x="848" y="-135.3" font-family="Times,serif" font-size="14.00"> v6 = g1</text>
<text text-anchor="start" x="848" y="-120.3" font-family="Times,serif" font-size="14.00"> v7 = (v6 % 256)</text>
<text text-anchor="start" x="848" y="-105.3" font-family="Times,serif" font-size="14.00"> g6 = v7</text>
</g>
<!-- Node0x107bc0f0&#45;&gt;Node0x107bc910 -->
<g id="edge11" class="edge"><title>Node0x107bc0f0&#45;&gt;Node0x107bc910</title>
<path fill="none" stroke="black" d="M994.784,-247.147C999.236,-241.585 1003.87,-235.244 1007.5,-229 1011.9,-221.424 1015.99,-213.148 1019.68,-204.867"/>
<polygon fill="black" stroke="black" points="1022.95,-206.122 1023.68,-195.552 1016.52,-203.362 1022.95,-206.122"/>
<text text-anchor="middle" x="1042.5" y="-217.8" font-family="Times,serif" font-size="14.00">v2 &gt; v7</text>
</g>
<!-- Node0x107bc910&#45;&gt;Node0x107bc0f0 -->
<g id="edge13" class="edge"><title>Node0x107bc910&#45;&gt;Node0x107bc0f0</title>
<path fill="none" stroke="black" d="M1015.4,-195.646C1007.75,-210.31 999.64,-225.87 993.065,-238.481"/>
<polygon fill="black" stroke="black" points="989.89,-237.002 988.37,-247.487 996.097,-240.238 989.89,-237.002"/>
</g>
</g>
</svg>
