<?xml version="1.0" encoding="UTF-8" standalone="no"?>
<!DOCTYPE svg PUBLIC "-//W3C//DTD SVG 1.1//EN"
 "http://www.w3.org/Graphics/SVG/1.1/DTD/svg11.dtd">
<!-- Generated by graphviz version 2.38.0 (20140413.2041)
 -->
<!-- Title: Control&#45;flow graph for function &#39;add_one_and_zeros_padding(a1, a2, a3)&#39;. Pages: 1 -->
<svg width="634pt" height="781pt"
 viewBox="0.00 0.00 634.00 781.00" xmlns="http://www.w3.org/2000/svg" xmlns:xlink="http://www.w3.org/1999/xlink">
<g id="graph0" class="graph" transform="scale(1 1) rotate(0) translate(4 777)">
<title>Control&#45;flow graph for function &#39;add_one_and_zeros_padding(a1, a2, a3)&#39;.</title>
<polygon fill="white" stroke="none" points="-4,4 -4,-777 630,-777 630,4 -4,4"/>
<text text-anchor="middle" x="313" y="-7.8" font-family="Times,serif" font-size="14.00">Control&#45;flow graph for function &#39;add_one_and_zeros_padding(a1, a2, a3)&#39;.</text>
<!-- Node0xaa14130 -->
<g id="node1" class="node"><title>Node0xaa14130</title>
<polygon fill="none" stroke="black" points="141,-704.5 141,-772.5 200,-772.5 200,-704.5 141,-704.5"/>
<text text-anchor="start" x="149" y="-757.3" font-family="Times,serif" font-size="14.00">entry:</text>
<text text-anchor="start" x="149" y="-742.3" font-family="Times,serif" font-size="14.00"> a1</text>
<text text-anchor="start" x="149" y="-727.3" font-family="Times,serif" font-size="14.00"> a2</text>
<text text-anchor="start" x="149" y="-712.3" font-family="Times,serif" font-size="14.00"> a3</text>
</g>
<!-- Node0x107ba9f0 -->
<g id="node2" class="node"><title>Node0x107ba9f0</title>
<polygon fill="none" stroke="black" points="0,-598.5 0,-666.5 341,-666.5 341,-598.5 0,-598.5"/>
<text text-anchor="start" x="8" y="-651.3" font-family="Times,serif" font-size="14.00">v1 = g3</text>
<text text-anchor="start" x="8" y="-636.3" font-family="Times,serif" font-size="14.00"> v2 = (a2 &#45; a3)</text>
<text text-anchor="start" x="8" y="-621.3" font-family="Times,serif" font-size="14.00"> *(IntToPtrCastExpr&lt;ptr&gt;((a3 + a1))) = &#45;128</text>
<text text-anchor="start" x="8" y="-606.3" font-family="Times,serif" font-size="14.00"> v3</text>
</g>
<!-- Node0xaa14130&#45;&gt;Node0x107ba9f0 -->
<g id="edge1" class="edge"><title>Node0xaa14130&#45;&gt;Node0x107ba9f0</title>
<path fill="none" stroke="black" d="M170.5,-704.308C170.5,-695.583 170.5,-686.042 170.5,-676.87"/>
<polygon fill="black" stroke="black" points="174,-676.734 170.5,-666.734 167,-676.734 174,-676.734"/>
</g>
<!-- Node0x107bab10 -->
<g id="node3" class="node"><title>Node0x107bab10</title>
<polygon fill="none" stroke="black" points="124,-524.5 124,-560.5 217,-560.5 217,-524.5 124,-524.5"/>
<text text-anchor="start" x="132" y="-538.8" font-family="Times,serif" font-size="14.00">if (v2 &lt; 2):</text>
</g>
<!-- Node0x107ba9f0&#45;&gt;Node0x107bab10 -->
<g id="edge2" class="edge"><title>Node0x107ba9f0&#45;&gt;Node0x107bab10</title>
<path fill="none" stroke="black" d="M170.5,-598.482C170.5,-589.328 170.5,-579.497 170.5,-570.715"/>
<polygon fill="black" stroke="black" points="174,-570.64 170.5,-560.64 167,-570.64 174,-570.64"/>
</g>
<!-- Node0x20105510 -->
<g id="node4" class="node"><title>Node0x20105510</title>
<polygon fill="none" stroke="black" points="48,-302.5 48,-370.5 149,-370.5 149,-302.5 48,-302.5"/>
<text text-anchor="start" x="56" y="-355.3" font-family="Times,serif" font-size="14.00">0x80697e9:</text>
<text text-anchor="start" x="56" y="-340.3" font-family="Times,serif" font-size="14.00"> g3 = v1</text>
<text text-anchor="start" x="56" y="-325.3" font-family="Times,serif" font-size="14.00"> g2 = v3</text>
<text text-anchor="start" x="56" y="-310.3" font-family="Times,serif" font-size="14.00"> return g1</text>
</g>
<!-- Node0x107bab10&#45;&gt;Node0x20105510 -->
<g id="edge3" class="edge"><title>Node0x107bab10&#45;&gt;Node0x20105510</title>
<path fill="none" stroke="black" d="M164.485,-524.458C153.37,-492.965 129.31,-424.795 113.52,-380.058"/>
<polygon fill="black" stroke="black" points="116.815,-378.877 110.187,-370.612 110.214,-381.207 116.815,-378.877"/>
<text text-anchor="middle" x="181.5" y="-494.8" font-family="Times,serif" font-size="14.00">v2 &lt; 2</text>
</g>
<!-- Node0x107bad10 -->
<g id="node5" class="node"><title>Node0x107bad10</title>
<polygon fill="none" stroke="black" points="165,-389.5 165,-472.5 524,-472.5 524,-389.5 165,-389.5"/>
<text text-anchor="start" x="173" y="-457.3" font-family="Times,serif" font-size="14.00">0x80697c9:</text>
<text text-anchor="start" x="173" y="-442.3" font-family="Times,serif" font-size="14.00"> g1 = 2</text>
<text text-anchor="start" x="173" y="-427.3" font-family="Times,serif" font-size="14.00"> *(IntToPtrCastExpr&lt;ptr&gt;(((a1 + 1) + a3))) = 0</text>
<text text-anchor="start" x="173" y="-412.3" font-family="Times,serif" font-size="14.00"> result = g1</text>
<text text-anchor="start" x="173" y="-397.3" font-family="Times,serif" font-size="14.00"> v4 = (result % 256)</text>
</g>
<!-- Node0x107bab10&#45;&gt;Node0x107bad10 -->
<g id="edge4" class="edge"><title>Node0x107bab10&#45;&gt;Node0x107bad10</title>
<path fill="none" stroke="black" d="M197.688,-524.391C217.438,-511.961 245.161,-494.515 271.203,-478.127"/>
<polygon fill="black" stroke="black" points="273.357,-480.907 279.956,-472.618 269.628,-474.982 273.357,-480.907"/>
<text text-anchor="middle" x="277.5" y="-494.8" font-family="Times,serif" font-size="14.00">v2 &gt;= 2</text>
</g>
<!-- Node0x107ba970 -->
<g id="node6" class="node"><title>Node0x107ba970</title>
<polygon fill="none" stroke="black" points="195.5,-23.5 195.5,-59.5 249.5,-59.5 249.5,-23.5 195.5,-23.5"/>
<text text-anchor="start" x="203.5" y="-37.8" font-family="Times,serif" font-size="14.00">exit:</text>
</g>
<!-- Node0x20105510&#45;&gt;Node0x107ba970 -->
<g id="edge5" class="edge"><title>Node0x20105510&#45;&gt;Node0x107ba970</title>
<path fill="none" stroke="black" d="M91.7345,-302.214C83.6484,-252.933 75.9364,-159.649 117.5,-97 132.999,-73.6387 161.822,-59.6954 185.353,-51.7684"/>
<polygon fill="black" stroke="black" points="186.563,-55.0574 195.06,-48.7295 184.471,-48.3771 186.563,-55.0574"/>
</g>
<!-- Node0x107ba7e0 -->
<g id="node7" class="node"><title>Node0x107ba7e0</title>
<polygon fill="none" stroke="black" points="280.5,-247.5 280.5,-283.5 410.5,-283.5 410.5,-247.5 280.5,-247.5"/>
<text text-anchor="start" x="288.5" y="-261.8" font-family="Times,serif" font-size="14.00">while (v2 &gt; v4):</text>
</g>
<!-- Node0x107bad10&#45;&gt;Node0x107ba7e0 -->
<g id="edge6" class="edge"><title>Node0x107bad10&#45;&gt;Node0x107ba7e0</title>
<path fill="none" stroke="black" d="M344.75,-389.164C344.932,-359.37 345.174,-319.806 345.333,-293.772"/>
<polygon fill="black" stroke="black" points="348.835,-293.532 345.396,-283.511 341.835,-293.489 348.835,-293.532"/>
</g>
<!-- Node0x107bb020 -->
<g id="node8" class="node"><title>Node0x107bb020</title>
<polygon fill="none" stroke="black" points="126.5,-97.5 126.5,-195.5 494.5,-195.5 494.5,-97.5 126.5,-97.5"/>
<text text-anchor="start" x="134.5" y="-180.3" font-family="Times,serif" font-size="14.00">0x80697d8:</text>
<text text-anchor="start" x="134.5" y="-165.3" font-family="Times,serif" font-size="14.00"> g6 = v4</text>
<text text-anchor="start" x="134.5" y="-150.3" font-family="Times,serif" font-size="14.00"> g1 = (result + 1)</text>
<text text-anchor="start" x="134.5" y="-135.3" font-family="Times,serif" font-size="14.00"> *(IntToPtrCastExpr&lt;ptr&gt;(((a1 + v4) + a3))) = 0</text>
<text text-anchor="start" x="134.5" y="-120.3" font-family="Times,serif" font-size="14.00"> result = g1</text>
<text text-anchor="start" x="134.5" y="-105.3" font-family="Times,serif" font-size="14.00"> v4 = (result % 256)</text>
</g>
<!-- Node0x107ba7e0&#45;&gt;Node0x107bb020 -->
<g id="edge7" class="edge"><title>Node0x107ba7e0&#45;&gt;Node0x107bb020</title>
<path fill="none" stroke="black" d="M294.487,-247.308C286.929,-242.551 280.135,-236.548 275.5,-229 270.974,-221.63 270.119,-213.571 271.541,-205.48"/>
<polygon fill="black" stroke="black" points="274.971,-206.214 274.312,-195.64 268.233,-204.317 274.971,-206.214"/>
<text text-anchor="middle" x="303.5" y="-217.8" font-family="Times,serif" font-size="14.00">v2 &gt; v4</text>
</g>
<!-- Node0x107baf20 -->
<g id="node9" class="node"><title>Node0x107baf20</title>
<polygon fill="none" stroke="black" points="513,-112.5 513,-180.5 626,-180.5 626,-112.5 513,-112.5"/>
<text text-anchor="start" x="521" y="-165.3" font-family="Times,serif" font-size="14.00">0x80697e9:</text>
<text text-anchor="start" x="521" y="-150.3" font-family="Times,serif" font-size="14.00"> g3 = v1</text>
<text text-anchor="start" x="521" y="-135.3" font-family="Times,serif" font-size="14.00"> g2 = v3</text>
<text text-anchor="start" x="521" y="-120.3" font-family="Times,serif" font-size="14.00"> return result</text>
</g>
<!-- Node0x107ba7e0&#45;&gt;Node0x107baf20 -->
<g id="edge8" class="edge"><title>Node0x107ba7e0&#45;&gt;Node0x107baf20</title>
<path fill="none" stroke="black" d="M392.109,-247.49C424.293,-234.983 467.594,-216.625 503.5,-196 508.634,-193.051 513.844,-189.778 518.97,-186.364"/>
<polygon fill="black" stroke="black" points="521.223,-189.063 527.488,-180.519 517.262,-183.291 521.223,-189.063"/>
<text text-anchor="middle" x="499.5" y="-217.8" font-family="Times,serif" font-size="14.00">v2 &lt;= v4</text>
</g>
<!-- Node0x107bb020&#45;&gt;Node0x107ba7e0 -->
<g id="edge9" class="edge"><title>Node0x107bb020&#45;&gt;Node0x107ba7e0</title>
<path fill="none" stroke="black" d="M325.956,-195.745C327.856,-201.879 329.745,-208.08 331.5,-214 333.74,-221.556 336.067,-229.781 338.165,-237.357"/>
<polygon fill="black" stroke="black" points="334.834,-238.444 340.856,-247.161 341.585,-236.591 334.834,-238.444"/>
</g>
<!-- Node0x107baf20&#45;&gt;Node0x107ba970 -->
<g id="edge10" class="edge"><title>Node0x107baf20&#45;&gt;Node0x107ba970</title>
<path fill="none" stroke="black" d="M530.403,-112.466C521.943,-106.582 512.748,-101.049 503.5,-97 421.175,-60.959 314.934,-48.6411 259.649,-44.5148"/>
<polygon fill="black" stroke="black" points="259.835,-41.0193 249.615,-43.8149 259.348,-48.0024 259.835,-41.0193"/>
</g>
</g>
</svg>
