<?xml version="1.0" encoding="UTF-8" standalone="no"?>
<!DOCTYPE svg PUBLIC "-//W3C//DTD SVG 1.1//EN"
 "http://www.w3.org/Graphics/SVG/1.1/DTD/svg11.dtd">
<!-- Generated by graphviz version 2.38.0 (20140413.2041)
 -->
<!-- Title: Control&#45;flow graph for function &#39;mbedtls_cipher_reset(*a1)&#39;. Pages: 1 -->
<svg width="666pt" height="325pt"
 viewBox="0.00 0.00 666.00 325.00" xmlns="http://www.w3.org/2000/svg" xmlns:xlink="http://www.w3.org/1999/xlink">
<g id="graph0" class="graph" transform="scale(1 1) rotate(0) translate(4 321)">
<title>Control&#45;flow graph for function &#39;mbedtls_cipher_reset(*a1)&#39;.</title>
<polygon fill="white" stroke="none" points="-4,4 -4,-321 662,-321 662,4 -4,4"/>
<text text-anchor="middle" x="329" y="-7.8" font-family="Times,serif" font-size="14.00">Control&#45;flow graph for function &#39;mbedtls_cipher_reset(*a1)&#39;.</text>
<!-- Node0x20101a00 -->
<g id="node1" class="node"><title>Node0x20101a00</title>
<polygon fill="none" stroke="black" points="199,-278.5 199,-316.5 258,-316.5 258,-278.5 199,-278.5"/>
<text text-anchor="start" x="207" y="-301.3" font-family="Times,serif" font-size="14.00">entry:</text>
<text text-anchor="start" x="207" y="-286.3" font-family="Times,serif" font-size="14.00"> a1</text>
</g>
<!-- Node0x20101900 -->
<g id="node2" class="node"><title>Node0x20101900</title>
<polygon fill="none" stroke="black" points="95.5,-202.5 95.5,-240.5 361.5,-240.5 361.5,-202.5 95.5,-202.5"/>
<text text-anchor="start" x="103.5" y="-225.3" font-family="Times,serif" font-size="14.00">0x80696b0:</text>
<text text-anchor="start" x="103.5" y="-210.3" font-family="Times,serif" font-size="14.00"> if ((a1 == NULL) or (*(a1) == 0)):</text>
</g>
<!-- Node0x20101a00&#45;&gt;Node0x20101900 -->
<g id="edge1" class="edge"><title>Node0x20101a00&#45;&gt;Node0x20101900</title>
<path fill="none" stroke="black" d="M228.5,-278.208C228.5,-269.964 228.5,-260.038 228.5,-250.862"/>
<polygon fill="black" stroke="black" points="232,-250.582 228.5,-240.582 225,-250.582 232,-250.582"/>
</g>
<!-- Node0x107b95c0 -->
<g id="node3" class="node"><title>Node0x107b95c0</title>
<polygon fill="none" stroke="black" points="0,-105 0,-143 121,-143 121,-105 0,-105"/>
<text text-anchor="start" x="8" y="-127.8" font-family="Times,serif" font-size="14.00">0x80696ba:</text>
<text text-anchor="start" x="8" y="-112.8" font-family="Times,serif" font-size="14.00"> return &#45;24832</text>
</g>
<!-- Node0x20101900&#45;&gt;Node0x107b95c0 -->
<g id="edge2" class="edge"><title>Node0x20101900&#45;&gt;Node0x107b95c0</title>
<path fill="none" stroke="black" d="M173.519,-202.363C160.375,-197.162 146.642,-190.98 134.5,-184 117.867,-174.438 101.012,-161.325 87.598,-149.888"/>
<polygon fill="black" stroke="black" points="89.5633,-146.959 79.7233,-143.031 84.9664,-152.238 89.5633,-146.959"/>
<text text-anchor="middle" x="243" y="-172.8" font-family="Times,serif" font-size="14.00">(a1 == NULL) or (*(a1) == 0)</text>
</g>
<!-- Node0x20105d00 -->
<g id="node4" class="node"><title>Node0x20105d00</title>
<polygon fill="none" stroke="black" points="139,-97.5 139,-150.5 658,-150.5 658,-97.5 139,-97.5"/>
<text text-anchor="start" x="147" y="-135.3" font-family="Times,serif" font-size="14.00">0x80696ce:</text>
<text text-anchor="start" x="147" y="-120.3" font-family="Times,serif" font-size="14.00"> *(IntToPtrCastExpr&lt;ptr&gt;((PtrToIntCastExpr&lt;int32&gt;(a1) + 36))) = 0</text>
<text text-anchor="start" x="147" y="-105.3" font-family="Times,serif" font-size="14.00"> return 0</text>
</g>
<!-- Node0x20101900&#45;&gt;Node0x20105d00 -->
<g id="edge3" class="edge"><title>Node0x20101900&#45;&gt;Node0x20105d00</title>
<path fill="none" stroke="black" d="M314.268,-202.453C327.354,-197.646 340.235,-191.597 351.5,-184 361.325,-177.374 370.077,-168.061 377.287,-158.787"/>
<polygon fill="black" stroke="black" points="380.116,-160.848 383.214,-150.717 374.474,-156.705 380.116,-160.848"/>
<text text-anchor="middle" x="475.5" y="-172.8" font-family="Times,serif" font-size="14.00">(a1 != NULL) and (*(a1) != 0)</text>
</g>
<!-- Node0x20101980 -->
<g id="node5" class="node"><title>Node0x20101980</title>
<polygon fill="none" stroke="black" points="240.5,-23.5 240.5,-59.5 294.5,-59.5 294.5,-23.5 240.5,-23.5"/>
<text text-anchor="start" x="248.5" y="-37.8" font-family="Times,serif" font-size="14.00">exit:</text>
</g>
<!-- Node0x107b95c0&#45;&gt;Node0x20101980 -->
<g id="edge4" class="edge"><title>Node0x107b95c0&#45;&gt;Node0x20101980</title>
<path fill="none" stroke="black" d="M106.955,-104.934C144.276,-90.4206 195.988,-70.3104 230.534,-56.8757"/>
<polygon fill="black" stroke="black" points="232.181,-59.9907 240.232,-53.1042 229.644,-53.4667 232.181,-59.9907"/>
</g>
<!-- Node0x20105d00&#45;&gt;Node0x20101980 -->
<g id="edge5" class="edge"><title>Node0x20105d00&#45;&gt;Node0x20101980</title>
<path fill="none" stroke="black" d="M356.691,-97.308C339.632,-86.8255 320.096,-74.8206 303.665,-64.7233"/>
<polygon fill="black" stroke="black" points="305.243,-61.5854 294.891,-59.3318 301.578,-67.5493 305.243,-61.5854"/>
</g>
</g>
</svg>
