<?xml version="1.0" encoding="UTF-8" standalone="no"?>
<!DOCTYPE svg PUBLIC "-//W3C//DTD SVG 1.1//EN"
 "http://www.w3.org/Graphics/SVG/1.1/DTD/svg11.dtd">
<!-- Generated by graphviz version 2.38.0 (20140413.2041)
 -->
<!-- Title: Control&#45;flow graph for function &#39;aes_crypt_ctr_wrap(a1)&#39;. Pages: 1 -->
<svg width="529pt" height="278pt"
 viewBox="0.00 0.00 529.00 278.00" xmlns="http://www.w3.org/2000/svg" xmlns:xlink="http://www.w3.org/1999/xlink">
<g id="graph0" class="graph" transform="scale(1 1) rotate(0) translate(4 274)">
<title>Control&#45;flow graph for function &#39;aes_crypt_ctr_wrap(a1)&#39;.</title>
<polygon fill="white" stroke="none" points="-4,4 -4,-274 525,-274 525,4 -4,4"/>
<text text-anchor="middle" x="260.5" y="-7.8" font-family="Times,serif" font-size="14.00">Control&#45;flow graph for function &#39;aes_crypt_ctr_wrap(a1)&#39;.</text>
<!-- Node0x99cbc90 -->
<g id="node1" class="node"><title>Node0x99cbc90</title>
<polygon fill="none" stroke="black" points="231,-231.5 231,-269.5 290,-269.5 290,-231.5 231,-231.5"/>
<text text-anchor="start" x="239" y="-254.3" font-family="Times,serif" font-size="14.00">entry:</text>
<text text-anchor="start" x="239" y="-239.3" font-family="Times,serif" font-size="14.00"> a1</text>
</g>
<!-- Node0x99cbbf0 -->
<g id="node2" class="node"><title>Node0x99cbbf0</title>
<polygon fill="none" stroke="black" points="0,-96.5 0,-194.5 521,-194.5 521,-96.5 0,-96.5"/>
<text text-anchor="start" x="8" y="-179.3" font-family="Times,serif" font-size="14.00">0x806aa90:</text>
<text text-anchor="start" x="8" y="-164.3" font-family="Times,serif" font-size="14.00"> v1</text>
<text text-anchor="start" x="8" y="-149.3" font-family="Times,serif" font-size="14.00"> v2</text>
<text text-anchor="start" x="8" y="-134.3" font-family="Times,serif" font-size="14.00"> mbedtls_aes_crypt_ctr(v2, v1, IntToPtrCastExpr&lt;ptr&gt;(a1), 0, 0, 0, 0)</text>
<text text-anchor="start" x="8" y="-119.3" font-family="Times,serif" font-size="14.00"> g1 = 0</text>
<text text-anchor="start" x="8" y="-104.3" font-family="Times,serif" font-size="14.00"> return 0</text>
</g>
<!-- Node0x99cbc90&#45;&gt;Node0x99cbbf0 -->
<g id="edge1" class="edge"><title>Node0x99cbc90&#45;&gt;Node0x99cbbf0</title>
<path fill="none" stroke="black" d="M260.5,-231.086C260.5,-223.607 260.5,-214.513 260.5,-205.097"/>
<polygon fill="black" stroke="black" points="264,-204.814 260.5,-194.814 257,-204.815 264,-204.814"/>
</g>
<!-- Node0x2b0f79a0 -->
<g id="node3" class="node"><title>Node0x2b0f79a0</title>
<polygon fill="none" stroke="black" points="233.5,-23.5 233.5,-59.5 287.5,-59.5 287.5,-23.5 233.5,-23.5"/>
<text text-anchor="start" x="241.5" y="-37.8" font-family="Times,serif" font-size="14.00">exit:</text>
</g>
<!-- Node0x99cbbf0&#45;&gt;Node0x2b0f79a0 -->
<g id="edge2" class="edge"><title>Node0x99cbbf0&#45;&gt;Node0x2b0f79a0</title>
<path fill="none" stroke="black" d="M260.5,-96.4868C260.5,-87.2893 260.5,-77.9618 260.5,-69.7064"/>
<polygon fill="black" stroke="black" points="264,-69.5725 260.5,-59.5725 257,-69.5725 264,-69.5725"/>
</g>
</g>
</svg>
