<?xml version="1.0" encoding="UTF-8" standalone="no"?>
<!DOCTYPE svg PUBLIC "-//W3C//DTD SVG 1.1//EN"
 "http://www.w3.org/Graphics/SVG/1.1/DTD/svg11.dtd">
<!-- Generated by graphviz version 2.38.0 (20140413.2041)
 -->
<!-- Title: Control&#45;flow graph for function &#39;mbedtls_ripemd160_free(*a1)&#39;. Pages: 1 -->
<svg width="478pt" height="587pt"
 viewBox="0.00 0.00 478.00 587.00" xmlns="http://www.w3.org/2000/svg" xmlns:xlink="http://www.w3.org/1999/xlink">
<g id="graph0" class="graph" transform="scale(1 1) rotate(0) translate(4 583)">
<title>Control&#45;flow graph for function &#39;mbedtls_ripemd160_free(*a1)&#39;.</title>
<polygon fill="white" stroke="none" points="-4,4 -4,-583 474,-583 474,4 -4,4"/>
<text text-anchor="middle" x="235" y="-7.8" font-family="Times,serif" font-size="14.00">Control&#45;flow graph for function &#39;mbedtls_ripemd160_free(*a1)&#39;.</text>
<!-- Node0xdea4f50 -->
<g id="node1" class="node"><title>Node0xdea4f50</title>
<polygon fill="none" stroke="black" points="130,-540.5 130,-578.5 189,-578.5 189,-540.5 130,-540.5"/>
<text text-anchor="start" x="138" y="-563.3" font-family="Times,serif" font-size="14.00">entry:</text>
<text text-anchor="start" x="138" y="-548.3" font-family="Times,serif" font-size="14.00"> a1</text>
</g>
<!-- Node0x22f975f0 -->
<g id="node2" class="node"><title>Node0x22f975f0</title>
<polygon fill="none" stroke="black" points="23.5,-464.5 23.5,-502.5 295.5,-502.5 295.5,-464.5 23.5,-464.5"/>
<text text-anchor="start" x="31.5" y="-487.3" font-family="Times,serif" font-size="14.00">v1 = PtrToIntCastExpr&lt;int32&gt;(a1)</text>
<text text-anchor="start" x="31.5" y="-472.3" font-family="Times,serif" font-size="14.00"> g1 = v1</text>
</g>
<!-- Node0xdea4f50&#45;&gt;Node0x22f975f0 -->
<g id="edge1" class="edge"><title>Node0xdea4f50&#45;&gt;Node0x22f975f0</title>
<path fill="none" stroke="black" d="M159.5,-540.208C159.5,-531.964 159.5,-522.038 159.5,-512.862"/>
<polygon fill="black" stroke="black" points="163,-512.582 159.5,-502.582 156,-512.582 163,-512.582"/>
</g>
<!-- Node0x22f99060 -->
<g id="node3" class="node"><title>Node0x22f99060</title>
<polygon fill="none" stroke="black" points="89.5,-390.5 89.5,-426.5 229.5,-426.5 229.5,-390.5 89.5,-390.5"/>
<text text-anchor="start" x="97.5" y="-404.8" font-family="Times,serif" font-size="14.00">if (a1 == NULL):</text>
</g>
<!-- Node0x22f975f0&#45;&gt;Node0x22f99060 -->
<g id="edge2" class="edge"><title>Node0x22f975f0&#45;&gt;Node0x22f99060</title>
<path fill="none" stroke="black" d="M159.5,-464.455C159.5,-456.201 159.5,-446.238 159.5,-437.074"/>
<polygon fill="black" stroke="black" points="163,-436.835 159.5,-426.835 156,-436.835 163,-436.835"/>
</g>
<!-- Node0x2aeffb90 -->
<g id="node4" class="node"><title>Node0x2aeffb90</title>
<polygon fill="none" stroke="black" points="58,-198.5 58,-236.5 159,-236.5 159,-198.5 58,-198.5"/>
<text text-anchor="start" x="66" y="-221.3" font-family="Times,serif" font-size="14.00">0x806508a:</text>
<text text-anchor="start" x="66" y="-206.3" font-family="Times,serif" font-size="14.00"> return</text>
</g>
<!-- Node0x22f99060&#45;&gt;Node0x2aeffb90 -->
<g id="edge3" class="edge"><title>Node0x22f99060&#45;&gt;Node0x2aeffb90</title>
<path fill="none" stroke="black" d="M113.04,-390.35C105.639,-385.549 98.9612,-379.52 94.5,-372 71.4608,-333.166 84.8759,-278.836 96.6982,-246.31"/>
<polygon fill="black" stroke="black" points="100.123,-247.153 100.432,-236.563 93.5865,-244.649 100.123,-247.153"/>
<text text-anchor="middle" x="141.5" y="-360.8" font-family="Times,serif" font-size="14.00">a1 == NULL</text>
</g>
<!-- Node0x2aeff970 -->
<g id="node5" class="node"><title>Node0x2aeff970</title>
<polygon fill="none" stroke="black" points="117.5,-255.5 117.5,-338.5 387.5,-338.5 387.5,-255.5 117.5,-255.5"/>
<text text-anchor="start" x="125.5" y="-323.3" font-family="Times,serif" font-size="14.00">0x806507a:</text>
<text text-anchor="start" x="125.5" y="-308.3" font-family="Times,serif" font-size="14.00"> g6 = (v1 + 92)</text>
<text text-anchor="start" x="125.5" y="-293.3" font-family="Times,serif" font-size="14.00"> *(IntToPtrCastExpr&lt;ptr&gt;(v1)) = 0</text>
<text text-anchor="start" x="125.5" y="-278.3" font-family="Times,serif" font-size="14.00"> v2 = (g1 + 1)</text>
<text text-anchor="start" x="125.5" y="-263.3" font-family="Times,serif" font-size="14.00"> g1 = v2</text>
</g>
<!-- Node0x22f99060&#45;&gt;Node0x2aeff970 -->
<g id="edge4" class="edge"><title>Node0x22f99060&#45;&gt;Node0x2aeff970</title>
<path fill="none" stroke="black" d="M174.031,-390.391C184.129,-378.502 198.124,-362.023 211.504,-346.27"/>
<polygon fill="black" stroke="black" points="214.197,-348.506 218.002,-338.618 208.861,-343.974 214.197,-348.506"/>
<text text-anchor="middle" x="244.5" y="-360.8" font-family="Times,serif" font-size="14.00">a1 != NULL</text>
</g>
<!-- Node0xdea3200 -->
<g id="node6" class="node"><title>Node0xdea3200</title>
<polygon fill="none" stroke="black" points="98.5,-39.5 98.5,-75.5 152.5,-75.5 152.5,-39.5 98.5,-39.5"/>
<text text-anchor="start" x="106.5" y="-53.8" font-family="Times,serif" font-size="14.00">exit:</text>
</g>
<!-- Node0x2aeffb90&#45;&gt;Node0xdea3200 -->
<g id="edge5" class="edge"><title>Node0x2aeffb90&#45;&gt;Node0xdea3200</title>
<path fill="none" stroke="black" d="M110.45,-198.375C113.412,-170.847 119.066,-118.298 122.538,-86.0312"/>
<polygon fill="black" stroke="black" points="126.034,-86.2489 123.624,-75.9318 119.075,-85.4999 126.034,-86.2489"/>
</g>
<!-- Node0x2aeffa60 -->
<g id="node7" class="node"><title>Node0x2aeffa60</title>
<polygon fill="none" stroke="black" points="174,-143.5 174,-179.5 311,-179.5 311,-143.5 174,-143.5"/>
<text text-anchor="start" x="182" y="-157.8" font-family="Times,serif" font-size="14.00">while (v2 != g6):</text>
</g>
<!-- Node0x2aeff970&#45;&gt;Node0x2aeffa60 -->
<g id="edge6" class="edge"><title>Node0x2aeff970&#45;&gt;Node0x2aeffa60</title>
<path fill="none" stroke="black" d="M249.445,-255.22C247.853,-233.969 245.95,-208.556 244.539,-189.714"/>
<polygon fill="black" stroke="black" points="248.028,-189.437 243.79,-179.726 241.047,-189.96 248.028,-189.437"/>
</g>
<!-- Node0x2aeffa60&#45;&gt;Node0xdea3200 -->
<g id="edge8" class="edge"><title>Node0x2aeffa60&#45;&gt;Node0xdea3200</title>
<path fill="none" stroke="black" d="M193.785,-143.405C183.736,-138.465 173.722,-132.368 165.5,-125 153.227,-114.003 143.551,-98.3339 136.791,-84.9676"/>
<polygon fill="black" stroke="black" points="139.855,-83.2599 132.39,-75.7416 133.537,-86.2742 139.855,-83.2599"/>
<text text-anchor="middle" x="200" y="-113.8" font-family="Times,serif" font-size="14.00">v2 == g6</text>
</g>
<!-- Node0x2aeffbf0 -->
<g id="node8" class="node"><title>Node0x2aeffbf0</title>
<polygon fill="none" stroke="black" points="176.5,-23.5 176.5,-91.5 446.5,-91.5 446.5,-23.5 176.5,-23.5"/>
<text text-anchor="start" x="184.5" y="-76.3" font-family="Times,serif" font-size="14.00">0x8065080:</text>
<text text-anchor="start" x="184.5" y="-61.3" font-family="Times,serif" font-size="14.00"> *(IntToPtrCastExpr&lt;ptr&gt;(v2)) = 0</text>
<text text-anchor="start" x="184.5" y="-46.3" font-family="Times,serif" font-size="14.00"> v2 = (g1 + 1)</text>
<text text-anchor="start" x="184.5" y="-31.3" font-family="Times,serif" font-size="14.00"> g1 = v2</text>
</g>
<!-- Node0x2aeffa60&#45;&gt;Node0x2aeffbf0 -->
<g id="edge7" class="edge"><title>Node0x2aeffa60&#45;&gt;Node0x2aeffbf0</title>
<path fill="none" stroke="black" d="M238.273,-143.235C236.693,-133.036 236.355,-120.173 241.5,-110 243.415,-106.213 245.754,-102.637 248.401,-99.2709"/>
<polygon fill="black" stroke="black" points="251.027,-101.585 255.082,-91.7969 245.808,-96.9204 251.027,-101.585"/>
<text text-anchor="middle" x="273" y="-113.8" font-family="Times,serif" font-size="14.00">v2 != g6</text>
</g>
<!-- Node0x2aeffbf0&#45;&gt;Node0x2aeffa60 -->
<g id="edge9" class="edge"><title>Node0x2aeffbf0&#45;&gt;Node0x2aeffa60</title>
<path fill="none" stroke="black" d="M313.934,-91.6532C313.296,-103.002 310.841,-115.276 304.5,-125 301.451,-129.675 297.559,-133.804 293.213,-137.434"/>
<polygon fill="black" stroke="black" points="291,-134.716 284.986,-143.438 295.127,-140.37 291,-134.716"/>
</g>
</g>
</svg>
