<?xml version="1.0" encoding="UTF-8" standalone="no"?>
<!DOCTYPE svg PUBLIC "-//W3C//DTD SVG 1.1//EN"
 "http://www.w3.org/Graphics/SVG/1.1/DTD/svg11.dtd">
<!-- Generated by graphviz version 2.38.0 (20140413.2041)
 -->
<!-- Title: Control&#45;flow graph for function &#39;des_setkey_dec_wrap(a1)&#39;. Pages: 1 -->
<svg width="448pt" height="278pt"
 viewBox="0.00 0.00 448.00 278.00" xmlns="http://www.w3.org/2000/svg" xmlns:xlink="http://www.w3.org/1999/xlink">
<g id="graph0" class="graph" transform="scale(1 1) rotate(0) translate(4 274)">
<title>Control&#45;flow graph for function &#39;des_setkey_dec_wrap(a1)&#39;.</title>
<polygon fill="white" stroke="none" points="-4,4 -4,-274 444,-274 444,4 -4,4"/>
<text text-anchor="middle" x="220" y="-7.8" font-family="Times,serif" font-size="14.00">Control&#45;flow graph for function &#39;des_setkey_dec_wrap(a1)&#39;.</text>
<!-- Node0xb4563f0 -->
<g id="node1" class="node"><title>Node0xb4563f0</title>
<polygon fill="none" stroke="black" points="190.5,-231.5 190.5,-269.5 249.5,-269.5 249.5,-231.5 190.5,-231.5"/>
<text text-anchor="start" x="198.5" y="-254.3" font-family="Times,serif" font-size="14.00">entry:</text>
<text text-anchor="start" x="198.5" y="-239.3" font-family="Times,serif" font-size="14.00"> a1</text>
</g>
<!-- Node0x210296f0 -->
<g id="node2" class="node"><title>Node0x210296f0</title>
<polygon fill="none" stroke="black" points="1.5,-96.5 1.5,-194.5 438.5,-194.5 438.5,-96.5 1.5,-96.5"/>
<text text-anchor="start" x="9.5" y="-179.3" font-family="Times,serif" font-size="14.00">0x806a620:</text>
<text text-anchor="start" x="9.5" y="-164.3" font-family="Times,serif" font-size="14.00"> v1</text>
<text text-anchor="start" x="9.5" y="-149.3" font-family="Times,serif" font-size="14.00"> v2</text>
<text text-anchor="start" x="9.5" y="-134.3" font-family="Times,serif" font-size="14.00"> mbedtls_des_setkey_dec(IntToPtrCastExpr&lt;ptr&gt;(v2), v1)</text>
<text text-anchor="start" x="9.5" y="-119.3" font-family="Times,serif" font-size="14.00"> g1 = 0</text>
<text text-anchor="start" x="9.5" y="-104.3" font-family="Times,serif" font-size="14.00"> return 0</text>
</g>
<!-- Node0xb4563f0&#45;&gt;Node0x210296f0 -->
<g id="edge1" class="edge"><title>Node0xb4563f0&#45;&gt;Node0x210296f0</title>
<path fill="none" stroke="black" d="M220,-231.086C220,-223.607 220,-214.513 220,-205.097"/>
<polygon fill="black" stroke="black" points="223.5,-204.814 220,-194.814 216.5,-204.815 223.5,-204.814"/>
</g>
<!-- Node0x9f6aa00 -->
<g id="node3" class="node"><title>Node0x9f6aa00</title>
<polygon fill="none" stroke="black" points="193,-23.5 193,-59.5 247,-59.5 247,-23.5 193,-23.5"/>
<text text-anchor="start" x="201" y="-37.8" font-family="Times,serif" font-size="14.00">exit:</text>
</g>
<!-- Node0x210296f0&#45;&gt;Node0x9f6aa00 -->
<g id="edge2" class="edge"><title>Node0x210296f0&#45;&gt;Node0x9f6aa00</title>
<path fill="none" stroke="black" d="M220,-96.4868C220,-87.2893 220,-77.9618 220,-69.7064"/>
<polygon fill="black" stroke="black" points="223.5,-69.5725 220,-59.5725 216.5,-69.5725 223.5,-69.5725"/>
</g>
</g>
</svg>
