<?xml version="1.0" encoding="UTF-8" standalone="no"?>
<!DOCTYPE svg PUBLIC "-//W3C//DTD SVG 1.1//EN"
 "http://www.w3.org/Graphics/SVG/1.1/DTD/svg11.dtd">
<!-- Generated by graphviz version 2.38.0 (20140413.2041)
 -->
<!-- Title: Control&#45;flow graph for function &#39;mbedtls_des_key_check_key_parity(a1)&#39;. Pages: 1 -->
<svg width="1283pt" height="526pt"
 viewBox="0.00 0.00 1282.50 526.00" xmlns="http://www.w3.org/2000/svg" xmlns:xlink="http://www.w3.org/1999/xlink">
<g id="graph0" class="graph" transform="scale(1 1) rotate(0) translate(4 522)">
<title>Control&#45;flow graph for function &#39;mbedtls_des_key_check_key_parity(a1)&#39;.</title>
<polygon fill="white" stroke="none" points="-4,4 -4,-522 1278.5,-522 1278.5,4 -4,4"/>
<text text-anchor="middle" x="637.25" y="-7.8" font-family="Times,serif" font-size="14.00">Control&#45;flow graph for function &#39;mbedtls_des_key_check_key_parity(a1)&#39;.</text>
<!-- Node0x99cd6b0 -->
<g id="node1" class="node"><title>Node0x99cd6b0</title>
<polygon fill="none" stroke="black" points="772.5,-479.5 772.5,-517.5 831.5,-517.5 831.5,-479.5 772.5,-479.5"/>
<text text-anchor="start" x="780.5" y="-502.3" font-family="Times,serif" font-size="14.00">entry:</text>
<text text-anchor="start" x="780.5" y="-487.3" font-family="Times,serif" font-size="14.00"> a1</text>
</g>
<!-- Node0xe1874f0 -->
<g id="node2" class="node"><title>Node0xe1874f0</title>
<polygon fill="none" stroke="black" points="726,-405.5 726,-441.5 878,-441.5 878,-405.5 726,-405.5"/>
<text text-anchor="start" x="734" y="-419.8" font-family="Times,serif" font-size="14.00">for i in range(0, 8):</text>
</g>
<!-- Node0x99cd6b0&#45;&gt;Node0xe1874f0 -->
<g id="edge1" class="edge"><title>Node0x99cd6b0&#45;&gt;Node0xe1874f0</title>
<path fill="none" stroke="black" d="M802,-479.455C802,-471.201 802,-461.238 802,-452.074"/>
<polygon fill="black" stroke="black" points="805.5,-451.835 802,-441.835 798.5,-451.835 805.5,-451.835"/>
</g>
<!-- Node0x99ce0d0 -->
<g id="node3" class="node"><title>Node0x99ce0d0</title>
<polygon fill="none" stroke="black" points="0,-329.5 0,-367.5 766,-367.5 766,-329.5 0,-329.5"/>
<text text-anchor="start" x="8" y="-352.3" font-family="Times,serif" font-size="14.00">v1 = *(IntToPtrCastExpr&lt;ptr&gt;((i + a1)))</text>
<text text-anchor="start" x="8" y="-337.3" font-family="Times,serif" font-size="14.00"> v2 = *(IntToPtrCastExpr&lt;ptr&gt;((ExtCastExpr&lt;int32&gt;((v1 / 2)) + PtrToIntCastExpr&lt;int32&gt;(&amp;(g142)))))</text>
</g>
<!-- Node0xe1874f0&#45;&gt;Node0x99ce0d0 -->
<g id="edge2" class="edge"><title>Node0xe1874f0&#45;&gt;Node0x99ce0d0</title>
<path fill="none" stroke="black" d="M725.636,-409.196C661.611,-398.041 569.26,-381.951 496.565,-369.286"/>
<polygon fill="black" stroke="black" points="496.895,-365.791 486.443,-367.522 495.694,-372.687 496.895,-365.791"/>
</g>
<!-- Node0x20ba2480 -->
<g id="node4" class="node"><title>Node0x20ba2480</title>
<polygon fill="none" stroke="black" points="1173.5,-257.5 1173.5,-310.5 1274.5,-310.5 1274.5,-257.5 1173.5,-257.5"/>
<text text-anchor="start" x="1181.5" y="-295.3" font-family="Times,serif" font-size="14.00">0x806ab6b:</text>
<text text-anchor="start" x="1181.5" y="-280.3" font-family="Times,serif" font-size="14.00"> g1 = 0</text>
<text text-anchor="start" x="1181.5" y="-265.3" font-family="Times,serif" font-size="14.00"> return 0</text>
</g>
<!-- Node0xe1874f0&#45;&gt;Node0x20ba2480 -->
<g id="edge3" class="edge"><title>Node0xe1874f0&#45;&gt;Node0x20ba2480</title>
<path fill="none" stroke="black" d="M878.007,-422.005C980.714,-419.732 1156.36,-409.654 1203,-368 1216.22,-356.192 1221.68,-337.375 1223.74,-320.641"/>
<polygon fill="black" stroke="black" points="1227.24,-320.84 1224.62,-310.572 1220.26,-320.228 1227.24,-320.84"/>
</g>
<!-- Node0x99ce150 -->
<g id="node5" class="node"><title>Node0x99ce150</title>
<polygon fill="none" stroke="black" points="584,-202.5 584,-238.5 1020,-238.5 1020,-202.5 584,-202.5"/>
<text text-anchor="start" x="592" y="-216.8" font-family="Times,serif" font-size="14.00">if (ExtCastExpr&lt;int32&gt;(v1) != ExtCastExpr&lt;int32&gt;(v2)):</text>
</g>
<!-- Node0x99ce0d0&#45;&gt;Node0x99ce150 -->
<g id="edge4" class="edge"><title>Node0x99ce0d0&#45;&gt;Node0x99ce150</title>
<path fill="none" stroke="black" d="M443.032,-329.447C520.502,-306.151 654.869,-265.745 735.405,-241.526"/>
<polygon fill="black" stroke="black" points="736.866,-244.742 745.434,-238.51 734.85,-238.038 736.866,-244.742"/>
</g>
<!-- Node0x20ba3900 -->
<g id="node6" class="node"><title>Node0x20ba3900</title>
<polygon fill="none" stroke="black" points="1121,-23.5 1121,-59.5 1175,-59.5 1175,-23.5 1121,-23.5"/>
<text text-anchor="start" x="1129" y="-37.8" font-family="Times,serif" font-size="14.00">exit:</text>
</g>
<!-- Node0x20ba2480&#45;&gt;Node0x20ba3900 -->
<g id="edge5" class="edge"><title>Node0x20ba2480&#45;&gt;Node0x20ba3900</title>
<path fill="none" stroke="black" d="M1220.3,-257.284C1216.6,-233.94 1210.13,-198.724 1201,-169 1190.08,-133.432 1172.74,-94.1543 1160.89,-68.9472"/>
<polygon fill="black" stroke="black" points="1163.95,-67.2214 1156.49,-59.6944 1157.63,-70.2283 1163.95,-67.2214"/>
</g>
<!-- Node0x99ce150&#45;&gt;Node0xe1874f0 -->
<g id="edge7" class="edge"><title>Node0x99ce150&#45;&gt;Node0xe1874f0</title>
<path fill="none" stroke="black" d="M802,-238.594C802,-273.49 802,-353.176 802,-395.277"/>
<polygon fill="black" stroke="black" points="798.5,-395.363 802,-405.363 805.5,-395.363 798.5,-395.363"/>
<text text-anchor="middle" x="1000.5" y="-344.8" font-family="Times,serif" font-size="14.00">ExtCastExpr&lt;int32&gt;(v1) == ExtCastExpr&lt;int32&gt;(v2)</text>
</g>
<!-- Node0xe1d5a60 -->
<g id="node7" class="node"><title>Node0xe1d5a60</title>
<polygon fill="none" stroke="black" points="921.5,-97.5 921.5,-150.5 1022.5,-150.5 1022.5,-97.5 921.5,-97.5"/>
<text text-anchor="start" x="929.5" y="-135.3" font-family="Times,serif" font-size="14.00">0x806ab70:</text>
<text text-anchor="start" x="929.5" y="-120.3" font-family="Times,serif" font-size="14.00"> g1 = 1</text>
<text text-anchor="start" x="929.5" y="-105.3" font-family="Times,serif" font-size="14.00"> return 1</text>
</g>
<!-- Node0x99ce150&#45;&gt;Node0xe1d5a60 -->
<g id="edge6" class="edge"><title>Node0x99ce150&#45;&gt;Node0xe1d5a60</title>
<path fill="none" stroke="black" d="M800.306,-202.056C800.236,-191.274 802.056,-177.853 810,-169 835.333,-140.769 876.781,-129.87 911.409,-125.978"/>
<polygon fill="black" stroke="black" points="911.821,-129.454 921.443,-125.02 911.155,-122.486 911.821,-129.454"/>
<text text-anchor="middle" x="1005.5" y="-172.8" font-family="Times,serif" font-size="14.00">ExtCastExpr&lt;int32&gt;(v1) != ExtCastExpr&lt;int32&gt;(v2)</text>
</g>
<!-- Node0xe1d5a60&#45;&gt;Node0x20ba3900 -->
<g id="edge8" class="edge"><title>Node0xe1d5a60&#45;&gt;Node0x20ba3900</title>
<path fill="none" stroke="black" d="M1022.91,-99.7161C1051.17,-86.7872 1085.69,-70.9996 1111.3,-59.2859"/>
<polygon fill="black" stroke="black" points="1113.01,-62.3528 1120.65,-55.0105 1110.1,-55.9871 1113.01,-62.3528"/>
</g>
</g>
</svg>
