<?xml version="1.0" encoding="UTF-8" standalone="no"?>
<!DOCTYPE svg PUBLIC "-//W3C//DTD SVG 1.1//EN"
 "http://www.w3.org/Graphics/SVG/1.1/DTD/svg11.dtd">
<!-- Generated by graphviz version 2.38.0 (20140413.2041)
 -->
<!-- Title: Control&#45;flow graph for function &#39;rsa_decrypt_wrap(a1, a2, a3, a4, a5, a6, a7, a8)&#39;. Pages: 1 -->
<svg width="722pt" height="445pt"
 viewBox="0.00 0.00 721.50 445.00" xmlns="http://www.w3.org/2000/svg" xmlns:xlink="http://www.w3.org/1999/xlink">
<g id="graph0" class="graph" transform="scale(1 1) rotate(0) translate(4 441)">
<title>Control&#45;flow graph for function &#39;rsa_decrypt_wrap(a1, a2, a3, a4, a5, a6, a7, a8)&#39;.</title>
<polygon fill="white" stroke="none" points="-4,4 -4,-441 717.5,-441 717.5,4 -4,4"/>
<text text-anchor="middle" x="356.75" y="-7.8" font-family="Times,serif" font-size="14.00">Control&#45;flow graph for function &#39;rsa_decrypt_wrap(a1, a2, a3, a4, a5, a6, a7, a8)&#39;.</text>
<!-- Node0x1053af60 -->
<g id="node1" class="node"><title>Node0x1053af60</title>
<polygon fill="none" stroke="black" points="211,-293.5 211,-436.5 270,-436.5 270,-293.5 211,-293.5"/>
<text text-anchor="start" x="219" y="-421.3" font-family="Times,serif" font-size="14.00">entry:</text>
<text text-anchor="start" x="219" y="-406.3" font-family="Times,serif" font-size="14.00"> a1</text>
<text text-anchor="start" x="219" y="-391.3" font-family="Times,serif" font-size="14.00"> a2</text>
<text text-anchor="start" x="219" y="-376.3" font-family="Times,serif" font-size="14.00"> a3</text>
<text text-anchor="start" x="219" y="-361.3" font-family="Times,serif" font-size="14.00"> a4</text>
<text text-anchor="start" x="219" y="-346.3" font-family="Times,serif" font-size="14.00"> a5</text>
<text text-anchor="start" x="219" y="-331.3" font-family="Times,serif" font-size="14.00"> a6</text>
<text text-anchor="start" x="219" y="-316.3" font-family="Times,serif" font-size="14.00"> a7</text>
<text text-anchor="start" x="219" y="-301.3" font-family="Times,serif" font-size="14.00"> a8</text>
</g>
<!-- Node0xe621da0 -->
<g id="node2" class="node"><title>Node0xe621da0</title>
<polygon fill="none" stroke="black" points="63.5,-217.5 63.5,-255.5 417.5,-255.5 417.5,-217.5 63.5,-217.5"/>
<text text-anchor="start" x="71.5" y="-240.3" font-family="Times,serif" font-size="14.00">0x804d930:</text>
<text text-anchor="start" x="71.5" y="-225.3" font-family="Times,serif" font-size="14.00"> if (*(IntToPtrCastExpr&lt;ptr&gt;((a1 + 4))) != a3):</text>
</g>
<!-- Node0x1053af60&#45;&gt;Node0xe621da0 -->
<g id="edge1" class="edge"><title>Node0x1053af60&#45;&gt;Node0xe621da0</title>
<path fill="none" stroke="black" d="M240.5,-293.353C240.5,-283.594 240.5,-274.073 240.5,-265.737"/>
<polygon fill="black" stroke="black" points="244,-265.54 240.5,-255.54 237,-265.54 244,-265.54"/>
</g>
<!-- Node0xe6218d0 -->
<g id="node3" class="node"><title>Node0xe6218d0</title>
<polygon fill="none" stroke="black" points="0,-112.5 0,-150.5 121,-150.5 121,-112.5 0,-112.5"/>
<text text-anchor="start" x="8" y="-135.3" font-family="Times,serif" font-size="14.00">0x804d962:</text>
<text text-anchor="start" x="8" y="-120.3" font-family="Times,serif" font-size="14.00"> return &#45;16512</text>
</g>
<!-- Node0xe621da0&#45;&gt;Node0xe6218d0 -->
<g id="edge2" class="edge"><title>Node0xe621da0&#45;&gt;Node0xe6218d0</title>
<path fill="none" stroke="black" d="M115.837,-217.494C105.209,-212.638 95.2109,-206.57 86.5,-199 75.2409,-189.216 68.8219,-173.938 65.1805,-160.492"/>
<polygon fill="black" stroke="black" points="68.5751,-159.637 62.9031,-150.688 61.7567,-161.221 68.5751,-159.637"/>
<text text-anchor="middle" x="238.5" y="-187.8" font-family="Times,serif" font-size="14.00">*(IntToPtrCastExpr&lt;ptr&gt;((a1 + 4))) != a3</text>
</g>
<!-- Node0xf24a8e0 -->
<g id="node4" class="node"><title>Node0xf24a8e0</title>
<polygon fill="none" stroke="black" points="139.5,-97.5 139.5,-165.5 703.5,-165.5 703.5,-97.5 139.5,-97.5"/>
<text text-anchor="start" x="147.5" y="-150.3" font-family="Times,serif" font-size="14.00">0x804d978:</text>
<text text-anchor="start" x="147.5" y="-135.3" font-family="Times,serif" font-size="14.00"> v1</text>
<text text-anchor="start" x="147.5" y="-120.3" font-family="Times,serif" font-size="14.00"> v2</text>
<text text-anchor="start" x="147.5" y="-105.3" font-family="Times,serif" font-size="14.00"> return mbedtls_rsa_pkcs1_decrypt(v2, v1, a1, a7, a8, 1, a5, a2, a4, a6, 0, 0)</text>
</g>
<!-- Node0xe621da0&#45;&gt;Node0xf24a8e0 -->
<g id="edge3" class="edge"><title>Node0xe621da0&#45;&gt;Node0xf24a8e0</title>
<path fill="none" stroke="black" d="M359.591,-217.407C370.727,-212.596 381.276,-206.561 390.5,-199 398.177,-192.707 404.053,-184.083 408.513,-175.13"/>
<polygon fill="black" stroke="black" points="411.811,-176.326 412.664,-165.766 405.411,-173.489 411.811,-176.326"/>
<text text-anchor="middle" x="558.5" y="-187.8" font-family="Times,serif" font-size="14.00">*(IntToPtrCastExpr&lt;ptr&gt;((a1 + 4))) == a3</text>
</g>
<!-- Node0xe6222b0 -->
<g id="node5" class="node"><title>Node0xe6222b0</title>
<polygon fill="none" stroke="black" points="255.5,-23.5 255.5,-59.5 309.5,-59.5 309.5,-23.5 255.5,-23.5"/>
<text text-anchor="start" x="263.5" y="-37.8" font-family="Times,serif" font-size="14.00">exit:</text>
</g>
<!-- Node0xe6218d0&#45;&gt;Node0xe6222b0 -->
<g id="edge4" class="edge"><title>Node0xe6218d0&#45;&gt;Node0xe6222b0</title>
<path fill="none" stroke="black" d="M96.5124,-112.4C107.336,-107.196 119.31,-101.67 130.5,-97 169.253,-80.829 214.695,-64.9232 245.73,-54.5086"/>
<polygon fill="black" stroke="black" points="246.894,-57.81 255.274,-51.3268 244.68,-51.1694 246.894,-57.81"/>
</g>
<!-- Node0xf24a8e0&#45;&gt;Node0xe6222b0 -->
<g id="edge5" class="edge"><title>Node0xf24a8e0&#45;&gt;Node0xe6222b0</title>
<path fill="none" stroke="black" d="M369.346,-97.4817C352.345,-86.7187 333.866,-75.0192 318.34,-65.1901"/>
<polygon fill="black" stroke="black" points="319.895,-62.0321 309.574,-59.6402 316.151,-67.9465 319.895,-62.0321"/>
</g>
</g>
</svg>
