<?xml version="1.0" encoding="UTF-8" standalone="no"?>
<!DOCTYPE svg PUBLIC "-//W3C//DTD SVG 1.1//EN"
 "http://www.w3.org/Graphics/SVG/1.1/DTD/svg11.dtd">
<!-- Generated by graphviz version 2.38.0 (20140413.2041)
 -->
<!-- Title: Control&#45;flow graph for function &#39;ecp_select_comb(a1, a2, a3, a4, a5, a6, a7, a8, a9, a10)&#39;. Pages: 1 -->
<svg width="1062pt" height="654pt"
 viewBox="0.00 0.00 1062.00 654.00" xmlns="http://www.w3.org/2000/svg" xmlns:xlink="http://www.w3.org/1999/xlink">
<g id="graph0" class="graph" transform="scale(1 1) rotate(0) translate(4 650)">
<title>Control&#45;flow graph for function &#39;ecp_select_comb(a1, a2, a3, a4, a5, a6, a7, a8, a9, a10)&#39;.</title>
<polygon fill="white" stroke="none" points="-4,4 -4,-650 1058,-650 1058,4 -4,4"/>
<text text-anchor="middle" x="527" y="-7.8" font-family="Times,serif" font-size="14.00">Control&#45;flow graph for function &#39;ecp_select_comb(a1, a2, a3, a4, a5, a6, a7, a8, a9, a10)&#39;.</text>
<!-- Node0xfd82a80 -->
<g id="node1" class="node"><title>Node0xfd82a80</title>
<polygon fill="none" stroke="black" points="610,-472.5 610,-645.5 669,-645.5 669,-472.5 610,-472.5"/>
<text text-anchor="start" x="618" y="-630.3" font-family="Times,serif" font-size="14.00">entry:</text>
<text text-anchor="start" x="618" y="-615.3" font-family="Times,serif" font-size="14.00"> a1</text>
<text text-anchor="start" x="618" y="-600.3" font-family="Times,serif" font-size="14.00"> a2</text>
<text text-anchor="start" x="618" y="-585.3" font-family="Times,serif" font-size="14.00"> a3</text>
<text text-anchor="start" x="618" y="-570.3" font-family="Times,serif" font-size="14.00"> a4</text>
<text text-anchor="start" x="618" y="-555.3" font-family="Times,serif" font-size="14.00"> a5</text>
<text text-anchor="start" x="618" y="-540.3" font-family="Times,serif" font-size="14.00"> a6</text>
<text text-anchor="start" x="618" y="-525.3" font-family="Times,serif" font-size="14.00"> a7</text>
<text text-anchor="start" x="618" y="-510.3" font-family="Times,serif" font-size="14.00"> a8</text>
<text text-anchor="start" x="618" y="-495.3" font-family="Times,serif" font-size="14.00"> a9</text>
<text text-anchor="start" x="618" y="-480.3" font-family="Times,serif" font-size="14.00"> a10</text>
</g>
<!-- Node0x17af3200 -->
<g id="node2" class="node"><title>Node0x17af3200</title>
<polygon fill="none" stroke="black" points="601,-366.5 601,-434.5 678,-434.5 678,-366.5 601,-366.5"/>
<text text-anchor="start" x="609" y="-419.3" font-family="Times,serif" font-size="14.00">v1 = g5</text>
<text text-anchor="start" x="609" y="-404.3" font-family="Times,serif" font-size="14.00"> v2 = g7</text>
<text text-anchor="start" x="609" y="-389.3" font-family="Times,serif" font-size="14.00"> v3 = g3</text>
<text text-anchor="start" x="609" y="-374.3" font-family="Times,serif" font-size="14.00"> v4 = g6</text>
</g>
<!-- Node0xfd82a80&#45;&gt;Node0x17af3200 -->
<g id="edge1" class="edge"><title>Node0xfd82a80&#45;&gt;Node0x17af3200</title>
<path fill="none" stroke="black" d="M639.5,-472.424C639.5,-462.886 639.5,-453.495 639.5,-444.823"/>
<polygon fill="black" stroke="black" points="643,-444.642 639.5,-434.642 636,-444.642 643,-444.642"/>
</g>
<!-- Node0x2ad04450 -->
<g id="node3" class="node"><title>Node0x2ad04450</title>
<polygon fill="none" stroke="black" points="560,-292.5 560,-328.5 719,-328.5 719,-292.5 560,-292.5"/>
<text text-anchor="start" x="568" y="-306.8" font-family="Times,serif" font-size="14.00">if ((a1 % 256) != 0):</text>
</g>
<!-- Node0x17af3200&#45;&gt;Node0x2ad04450 -->
<g id="edge2" class="edge"><title>Node0x17af3200&#45;&gt;Node0x2ad04450</title>
<path fill="none" stroke="black" d="M639.5,-366.482C639.5,-357.328 639.5,-347.497 639.5,-338.715"/>
<polygon fill="black" stroke="black" points="643,-338.64 639.5,-328.64 636,-338.64 643,-338.64"/>
</g>
<!-- Node0x172fdf00 -->
<g id="node4" class="node"><title>Node0x172fdf00</title>
<polygon fill="none" stroke="black" points="0,-120 0,-218 743,-218 743,-120 0,-120"/>
<text text-anchor="start" x="8" y="-202.8" font-family="Times,serif" font-size="14.00">v5 = g4</text>
<text text-anchor="start" x="8" y="-187.8" font-family="Times,serif" font-size="14.00"> g3 = v5</text>
<text text-anchor="start" x="8" y="-172.8" font-family="Times,serif" font-size="14.00"> g7 = 0</text>
<text text-anchor="start" x="8" y="-157.8" font-family="Times,serif" font-size="14.00"> v6 = (((a2 / 2) % 64) == 0)</text>
<text text-anchor="start" x="8" y="-142.8" font-family="Times,serif" font-size="14.00"> g5 = v6</text>
<text text-anchor="start" x="8" y="-127.8" font-family="Times,serif" font-size="14.00"> return mbedtls_mpi_safe_cond_assign(IntToPtrCastExpr&lt;ptr&gt;(v4), IntToPtrCastExpr&lt;ptr&gt;(v5), v6)</text>
</g>
<!-- Node0x2ad04450&#45;&gt;Node0x172fdf00 -->
<g id="edge3" class="edge"><title>Node0x2ad04450&#45;&gt;Node0x172fdf00</title>
<path fill="none" stroke="black" d="M606.638,-292.395C573.416,-275.102 520.367,-247.488 473.057,-222.863"/>
<polygon fill="black" stroke="black" points="474.475,-219.655 463.988,-218.142 471.243,-225.864 474.475,-219.655"/>
<text text-anchor="middle" x="625.5" y="-262.8" font-family="Times,serif" font-size="14.00">(a1 % 256) != 0</text>
</g>
<!-- Node0x1e8fca10 -->
<g id="node5" class="node"><title>Node0x1e8fca10</title>
<polygon fill="none" stroke="black" points="761,-97.5 761,-240.5 1054,-240.5 1054,-97.5 761,-97.5"/>
<text text-anchor="start" x="769" y="-225.3" font-family="Times,serif" font-size="14.00">0x805d608:</text>
<text text-anchor="start" x="769" y="-210.3" font-family="Times,serif" font-size="14.00"> g6 = v4</text>
<text text-anchor="start" x="769" y="-195.3" font-family="Times,serif" font-size="14.00"> g3 = v3</text>
<text text-anchor="start" x="769" y="-180.3" font-family="Times,serif" font-size="14.00"> g7 = v2</text>
<text text-anchor="start" x="769" y="-165.3" font-family="Times,serif" font-size="14.00"> g5 = v1</text>
<text text-anchor="start" x="769" y="-150.3" font-family="Times,serif" font-size="14.00"> g4 = ((a2 / 128) % 2)</text>
<text text-anchor="start" x="769" y="-135.3" font-family="Times,serif" font-size="14.00"> v7</text>
<text text-anchor="start" x="769" y="-120.3" font-family="Times,serif" font-size="14.00"> v8</text>
<text text-anchor="start" x="769" y="-105.3" font-family="Times,serif" font-size="14.00"> return ecp_safe_invert_jac(v8, v7, a1)</text>
</g>
<!-- Node0x2ad04450&#45;&gt;Node0x1e8fca10 -->
<g id="edge4" class="edge"><title>Node0x2ad04450&#45;&gt;Node0x1e8fca10</title>
<path fill="none" stroke="black" d="M672.362,-292.395C695.65,-280.273 728.681,-263.079 762.648,-245.399"/>
<polygon fill="black" stroke="black" points="764.516,-248.372 771.77,-240.65 761.284,-242.163 764.516,-248.372"/>
<text text-anchor="middle" x="793.5" y="-262.8" font-family="Times,serif" font-size="14.00">(a1 % 256) == 0</text>
</g>
<!-- Node0x172fd110 -->
<g id="node6" class="node"><title>Node0x172fd110</title>
<polygon fill="none" stroke="black" points="675.5,-23.5 675.5,-59.5 729.5,-59.5 729.5,-23.5 675.5,-23.5"/>
<text text-anchor="start" x="683.5" y="-37.8" font-family="Times,serif" font-size="14.00">exit:</text>
</g>
<!-- Node0x172fdf00&#45;&gt;Node0x172fd110 -->
<g id="edge5" class="edge"><title>Node0x172fdf00&#45;&gt;Node0x172fd110</title>
<path fill="none" stroke="black" d="M498.527,-119.837C558.486,-97.1035 625.578,-71.6655 665.899,-56.3775"/>
<polygon fill="black" stroke="black" points="667.198,-59.6282 675.307,-52.8102 664.716,-53.0828 667.198,-59.6282"/>
</g>
<!-- Node0x1e8fca10&#45;&gt;Node0x172fd110 -->
<g id="edge6" class="edge"><title>Node0x1e8fca10&#45;&gt;Node0x172fd110</title>
<path fill="none" stroke="black" d="M792.118,-97.3636C772.634,-85.4359 753.782,-73.8944 738.436,-64.5001"/>
<polygon fill="black" stroke="black" points="740.185,-61.4665 729.828,-59.2303 736.53,-67.4366 740.185,-61.4665"/>
</g>
</g>
</svg>
