<?xml version="1.0" encoding="UTF-8" standalone="no"?>
<!DOCTYPE svg PUBLIC "-//W3C//DTD SVG 1.1//EN"
 "http://www.w3.org/Graphics/SVG/1.1/DTD/svg11.dtd">
<!-- Generated by graphviz version 2.38.0 (20140413.2041)
 -->
<!-- Title: Control&#45;flow graph for function &#39;mbedtls_mpi_add_int(a1, a2, a3)&#39;. Pages: 1 -->
<svg width="724pt" height="338pt"
 viewBox="0.00 0.00 724.00 338.00" xmlns="http://www.w3.org/2000/svg" xmlns:xlink="http://www.w3.org/1999/xlink">
<g id="graph0" class="graph" transform="scale(1 1) rotate(0) translate(4 334)">
<title>Control&#45;flow graph for function &#39;mbedtls_mpi_add_int(a1, a2, a3)&#39;.</title>
<polygon fill="white" stroke="none" points="-4,4 -4,-334 720,-334 720,4 -4,4"/>
<text text-anchor="middle" x="358" y="-7.8" font-family="Times,serif" font-size="14.00">Control&#45;flow graph for function &#39;mbedtls_mpi_add_int(a1, a2, a3)&#39;.</text>
<!-- Node0xe8fd690 -->
<g id="node1" class="node"><title>Node0xe8fd690</title>
<polygon fill="none" stroke="black" points="328.5,-261.5 328.5,-329.5 387.5,-329.5 387.5,-261.5 328.5,-261.5"/>
<text text-anchor="start" x="336.5" y="-314.3" font-family="Times,serif" font-size="14.00">entry:</text>
<text text-anchor="start" x="336.5" y="-299.3" font-family="Times,serif" font-size="14.00"> a1</text>
<text text-anchor="start" x="336.5" y="-284.3" font-family="Times,serif" font-size="14.00"> a2</text>
<text text-anchor="start" x="336.5" y="-269.3" font-family="Times,serif" font-size="14.00"> a3</text>
</g>
<!-- Node0xa6790e0 -->
<g id="node2" class="node"><title>Node0xa6790e0</title>
<polygon fill="none" stroke="black" points="0,-96.5 0,-224.5 716,-224.5 716,-96.5 0,-96.5"/>
<text text-anchor="start" x="8" y="-209.3" font-family="Times,serif" font-size="14.00">v1 = (a3 &gt;&gt; 31)</text>
<text text-anchor="start" x="8" y="-194.3" font-family="Times,serif" font-size="14.00"> v2 = (v1 | 1)</text>
<text text-anchor="start" x="8" y="-179.3" font-family="Times,serif" font-size="14.00"> g6 = v1</text>
<text text-anchor="start" x="8" y="-164.3" font-family="Times,serif" font-size="14.00"> result = mbedtls_mpi_add_mpi(IntToPtrCastExpr&lt;ptr&gt;(a1), IntToPtrCastExpr&lt;ptr&gt;(a2), &amp;(v2))</text>
<text text-anchor="start" x="8" y="-149.3" font-family="Times,serif" font-size="14.00"> g1 = result</text>
<text text-anchor="start" x="8" y="-134.3" font-family="Times,serif" font-size="14.00"> v3</text>
<text text-anchor="start" x="8" y="-119.3" font-family="Times,serif" font-size="14.00"> g2 = v3</text>
<text text-anchor="start" x="8" y="-104.3" font-family="Times,serif" font-size="14.00"> return result</text>
</g>
<!-- Node0xe8fd690&#45;&gt;Node0xa6790e0 -->
<g id="edge1" class="edge"><title>Node0xe8fd690&#45;&gt;Node0xa6790e0</title>
<path fill="none" stroke="black" d="M358,-261.282C358,-253.089 358,-243.987 358,-234.71"/>
<polygon fill="black" stroke="black" points="361.5,-234.609 358,-224.609 354.5,-234.609 361.5,-234.609"/>
</g>
<!-- Node0xa674120 -->
<g id="node3" class="node"><title>Node0xa674120</title>
<polygon fill="none" stroke="black" points="331,-23.5 331,-59.5 385,-59.5 385,-23.5 331,-23.5"/>
<text text-anchor="start" x="339" y="-37.8" font-family="Times,serif" font-size="14.00">exit:</text>
</g>
<!-- Node0xa6790e0&#45;&gt;Node0xa674120 -->
<g id="edge2" class="edge"><title>Node0xa6790e0&#45;&gt;Node0xa674120</title>
<path fill="none" stroke="black" d="M358,-96.206C358,-87.0257 358,-78.004 358,-70.0532"/>
<polygon fill="black" stroke="black" points="361.5,-69.9607 358,-59.9608 354.5,-69.9608 361.5,-69.9607"/>
</g>
</g>
</svg>
