<?xml version="1.0" encoding="UTF-8" standalone="no"?>
<!DOCTYPE svg PUBLIC "-//W3C//DTD SVG 1.1//EN"
 "http://www.w3.org/Graphics/SVG/1.1/DTD/svg11.dtd">
<!-- Generated by graphviz version 2.38.0 (20140413.2041)
 -->
<!-- Title: Control&#45;flow graph for function &#39;mbedtls_mpi_sub_mpi(*a1, *a2, *a3)&#39;. Pages: 1 -->
<svg width="1191pt" height="1239pt"
 viewBox="0.00 0.00 1190.50 1239.00" xmlns="http://www.w3.org/2000/svg" xmlns:xlink="http://www.w3.org/1999/xlink">
<g id="graph0" class="graph" transform="scale(1 1) rotate(0) translate(4 1235)">
<title>Control&#45;flow graph for function &#39;mbedtls_mpi_sub_mpi(*a1, *a2, *a3)&#39;.</title>
<polygon fill="white" stroke="none" points="-4,4 -4,-1235 1186.5,-1235 1186.5,4 -4,4"/>
<text text-anchor="middle" x="591.25" y="-7.8" font-family="Times,serif" font-size="14.00">Control&#45;flow graph for function &#39;mbedtls_mpi_sub_mpi(*a1, *a2, *a3)&#39;.</text>
<!-- Node0xef34d10 -->
<g id="node1" class="node"><title>Node0xef34d10</title>
<polygon fill="none" stroke="black" points="220,-1162.5 220,-1230.5 279,-1230.5 279,-1162.5 220,-1162.5"/>
<text text-anchor="start" x="228" y="-1215.3" font-family="Times,serif" font-size="14.00">entry:</text>
<text text-anchor="start" x="228" y="-1200.3" font-family="Times,serif" font-size="14.00"> a1</text>
<text text-anchor="start" x="228" y="-1185.3" font-family="Times,serif" font-size="14.00"> a2</text>
<text text-anchor="start" x="228" y="-1170.3" font-family="Times,serif" font-size="14.00"> a3</text>
</g>
<!-- Node0xe8fdf20 -->
<g id="node2" class="node"><title>Node0xe8fdf20</title>
<polygon fill="none" stroke="black" points="111.5,-951.5 111.5,-1124.5 387.5,-1124.5 387.5,-951.5 111.5,-951.5"/>
<text text-anchor="start" x="119.5" y="-1109.3" font-family="Times,serif" font-size="14.00">v1 = PtrToIntCastExpr&lt;int32&gt;(a1)</text>
<text text-anchor="start" x="119.5" y="-1094.3" font-family="Times,serif" font-size="14.00"> v2 = PtrToIntCastExpr&lt;int32&gt;(a2)</text>
<text text-anchor="start" x="119.5" y="-1079.3" font-family="Times,serif" font-size="14.00"> v3 = PtrToIntCastExpr&lt;int32&gt;(a3)</text>
<text text-anchor="start" x="119.5" y="-1064.3" font-family="Times,serif" font-size="14.00"> v4 = g3</text>
<text text-anchor="start" x="119.5" y="-1049.3" font-family="Times,serif" font-size="14.00"> g3 = v2</text>
<text text-anchor="start" x="119.5" y="-1034.3" font-family="Times,serif" font-size="14.00"> v5 = g7</text>
<text text-anchor="start" x="119.5" y="-1019.3" font-family="Times,serif" font-size="14.00"> g7 = v3</text>
<text text-anchor="start" x="119.5" y="-1004.3" font-family="Times,serif" font-size="14.00"> v6 = g5</text>
<text text-anchor="start" x="119.5" y="-989.3" font-family="Times,serif" font-size="14.00"> v7 = *(a2)</text>
<text text-anchor="start" x="119.5" y="-974.3" font-family="Times,serif" font-size="14.00"> g5 = v7</text>
<text text-anchor="start" x="119.5" y="-959.3" font-family="Times,serif" font-size="14.00"> v8</text>
</g>
<!-- Node0xef34d10&#45;&gt;Node0xe8fdf20 -->
<g id="edge1" class="edge"><title>Node0xef34d10&#45;&gt;Node0xe8fdf20</title>
<path fill="none" stroke="black" d="M249.5,-1162.31C249.5,-1153.99 249.5,-1144.63 249.5,-1134.89"/>
<polygon fill="black" stroke="black" points="253,-1134.63 249.5,-1124.63 246,-1134.63 253,-1134.63"/>
</g>
<!-- Node0x7fcd030 -->
<g id="node3" class="node"><title>Node0x7fcd030</title>
<polygon fill="none" stroke="black" points="172,-877.5 172,-913.5 327,-913.5 327,-877.5 172,-877.5"/>
<text text-anchor="start" x="180" y="-891.8" font-family="Times,serif" font-size="14.00">if ((*(a3) * v7) &lt; 1):</text>
</g>
<!-- Node0xe8fdf20&#45;&gt;Node0x7fcd030 -->
<g id="edge2" class="edge"><title>Node0xe8fdf20&#45;&gt;Node0x7fcd030</title>
<path fill="none" stroke="black" d="M249.5,-951.223C249.5,-941.482 249.5,-932.16 249.5,-924.059"/>
<polygon fill="black" stroke="black" points="253,-923.842 249.5,-913.843 246,-923.843 253,-923.842"/>
</g>
<!-- Node0xfdecf70 -->
<g id="node4" class="node"><title>Node0xfdecf70</title>
<polygon fill="none" stroke="black" points="14.5,-732.5 14.5,-768.5 332.5,-768.5 332.5,-732.5 14.5,-732.5"/>
<text text-anchor="start" x="22.5" y="-746.8" font-family="Times,serif" font-size="14.00">result = mbedtls_mpi_add_abs(a1, v2, v3)</text>
</g>
<!-- Node0x7fcd030&#45;&gt;Node0xfdecf70 -->
<g id="edge3" class="edge"><title>Node0x7fcd030&#45;&gt;Node0xfdecf70</title>
<path fill="none" stroke="black" d="M198.421,-877.461C190.582,-872.677 183.46,-866.624 178.5,-859 163.037,-835.234 164.15,-801.868 167.62,-778.635"/>
<polygon fill="black" stroke="black" points="171.076,-779.195 169.33,-768.745 164.178,-778.003 171.076,-779.195"/>
<text text-anchor="middle" x="233.5" y="-847.8" font-family="Times,serif" font-size="14.00">(*(a3) * v7) &lt; 1</text>
</g>
<!-- Node0x24b6de40 -->
<g id="node5" class="node"><title>Node0x24b6de40</title>
<polygon fill="none" stroke="black" points="294.5,-787.5 294.5,-825.5 388.5,-825.5 388.5,-787.5 294.5,-787.5"/>
<text text-anchor="start" x="302.5" y="-810.3" font-family="Times,serif" font-size="14.00">0x8057ff0:</text>
<text text-anchor="start" x="302.5" y="-795.3" font-family="Times,serif" font-size="14.00"> result3</text>
</g>
<!-- Node0x7fcd030&#45;&gt;Node0x24b6de40 -->
<g id="edge4" class="edge"><title>Node0x7fcd030&#45;&gt;Node0x24b6de40</title>
<path fill="none" stroke="black" d="M271.368,-877.297C278.277,-871.639 285.843,-865.204 292.5,-859 301.209,-850.883 310.313,-841.57 318.277,-833.116"/>
<polygon fill="black" stroke="black" points="320.974,-835.356 325.226,-825.652 315.85,-830.586 320.974,-835.356"/>
<text text-anchor="middle" x="367.5" y="-847.8" font-family="Times,serif" font-size="14.00">(*(a3) * v7) &gt;= 1</text>
</g>
<!-- Node0x8adc530 -->
<g id="node6" class="node"><title>Node0x8adc530</title>
<polygon fill="none" stroke="black" points="81.5,-407.5 81.5,-443.5 211.5,-443.5 211.5,-407.5 81.5,-407.5"/>
<text text-anchor="start" x="89.5" y="-421.8" font-family="Times,serif" font-size="14.00">if (result == 0):</text>
</g>
<!-- Node0xfdecf70&#45;&gt;Node0x8adc530 -->
<g id="edge5" class="edge"><title>Node0xfdecf70&#45;&gt;Node0x8adc530</title>
<path fill="none" stroke="black" d="M165.835,-732.361C157.853,-712.92 146.5,-680.073 146.5,-650.5 146.5,-650.5 146.5,-650.5 146.5,-529.5 146.5,-503.765 146.5,-474.414 146.5,-453.645"/>
<polygon fill="black" stroke="black" points="150,-453.631 146.5,-443.631 143,-453.631 150,-453.631"/>
</g>
<!-- Node0x24b6cab0 -->
<g id="node7" class="node"><title>Node0x24b6cab0</title>
<polygon fill="none" stroke="black" points="284,-675.5 284,-713.5 577,-713.5 577,-675.5 284,-675.5"/>
<text text-anchor="start" x="292" y="-698.3" font-family="Times,serif" font-size="14.00">if (mbedtls_mpi_cmp_abs(v2, v3) &lt; 0):</text>
<text text-anchor="start" x="292" y="-683.3" font-family="Times,serif" font-size="14.00"> else:</text>
</g>
<!-- Node0x24b6de40&#45;&gt;Node0x24b6cab0 -->
<g id="edge6" class="edge"><title>Node0x24b6de40&#45;&gt;Node0x24b6cab0</title>
<path fill="none" stroke="black" d="M356.197,-787.336C370.69,-769.423 392.989,-741.861 409.38,-721.604"/>
<polygon fill="black" stroke="black" points="412.213,-723.667 415.782,-713.691 406.771,-719.264 412.213,-723.667"/>
</g>
<!-- Node0xe8fb2f0 -->
<g id="node8" class="node"><title>Node0xe8fb2f0</title>
<polygon fill="none" stroke="black" points="0,-97.5 0,-225.5 279,-225.5 279,-97.5 0,-97.5"/>
<text text-anchor="start" x="8" y="-210.3" font-family="Times,serif" font-size="14.00">0x805803f:</text>
<text text-anchor="start" x="8" y="-195.3" font-family="Times,serif" font-size="14.00"> v8 = v1</text>
<text text-anchor="start" x="8" y="-180.3" font-family="Times,serif" font-size="14.00"> g6 = v8</text>
<text text-anchor="start" x="8" y="-165.3" font-family="Times,serif" font-size="14.00"> *(IntToPtrCastExpr&lt;ptr&gt;(v8)) = g5</text>
<text text-anchor="start" x="8" y="-150.3" font-family="Times,serif" font-size="14.00"> g3 = v4</text>
<text text-anchor="start" x="8" y="-135.3" font-family="Times,serif" font-size="14.00"> g7 = v5</text>
<text text-anchor="start" x="8" y="-120.3" font-family="Times,serif" font-size="14.00"> g5 = v6</text>
<text text-anchor="start" x="8" y="-105.3" font-family="Times,serif" font-size="14.00"> return result</text>
</g>
<!-- Node0x8adc530&#45;&gt;Node0xe8fb2f0 -->
<g id="edge7" class="edge"><title>Node0x8adc530&#45;&gt;Node0xe8fb2f0</title>
<path fill="none" stroke="black" d="M141.922,-407.478C139.479,-397.513 136.729,-384.638 135.5,-373 130.705,-327.594 131.542,-276.381 133.656,-235.839"/>
<polygon fill="black" stroke="black" points="137.155,-235.952 134.218,-225.772 130.166,-235.561 137.155,-235.952"/>
<text text-anchor="middle" x="178" y="-304.8" font-family="Times,serif" font-size="14.00">result == 0</text>
</g>
<!-- Node0xb01dc50 -->
<g id="node9" class="node"><title>Node0xb01dc50</title>
<polygon fill="none" stroke="black" points="305,-120 305,-203 418,-203 418,-120 305,-120"/>
<text text-anchor="start" x="313" y="-187.8" font-family="Times,serif" font-size="14.00">0x8058017:</text>
<text text-anchor="start" x="313" y="-172.8" font-family="Times,serif" font-size="14.00"> g3 = v4</text>
<text text-anchor="start" x="313" y="-157.8" font-family="Times,serif" font-size="14.00"> g7 = v5</text>
<text text-anchor="start" x="313" y="-142.8" font-family="Times,serif" font-size="14.00"> g5 = v6</text>
<text text-anchor="start" x="313" y="-127.8" font-family="Times,serif" font-size="14.00"> return result</text>
</g>
<!-- Node0x8adc530&#45;&gt;Node0xb01dc50 -->
<g id="edge8" class="edge"><title>Node0x8adc530&#45;&gt;Node0xb01dc50</title>
<path fill="none" stroke="black" d="M182.846,-407.44C196.831,-399.033 211.572,-387.538 220.5,-373 250.793,-323.67 202.159,-289.06 238.5,-244 253.065,-225.941 267.489,-237.741 287.5,-226 295.542,-221.281 303.549,-215.654 311.164,-209.727"/>
<polygon fill="black" stroke="black" points="313.665,-212.207 319.256,-203.207 309.273,-206.756 313.665,-212.207"/>
<text text-anchor="middle" x="278" y="-304.8" font-family="Times,serif" font-size="14.00">result != 0</text>
</g>
<!-- Node0xfdec290 -->
<g id="node10" class="node"><title>Node0xfdec290</title>
<polygon fill="none" stroke="black" points="704.5,-587.5 704.5,-623.5 1182.5,-623.5 1182.5,-587.5 704.5,-587.5"/>
<text text-anchor="start" x="712.5" y="-601.8" font-family="Times,serif" font-size="14.00">v9 = mbedtls_mpi_sub_abs(IntToPtrCastExpr&lt;ptr&gt;(v1), g7, g3)</text>
</g>
<!-- Node0x24b6cab0&#45;&gt;Node0xfdec290 -->
<g id="edge9" class="edge"><title>Node0x24b6cab0&#45;&gt;Node0xfdec290</title>
<path fill="none" stroke="black" d="M572.014,-675.486C611.42,-670.028 654.191,-663.691 693.5,-657 747.497,-647.808 807.683,-635.708 855.469,-625.657"/>
<polygon fill="black" stroke="black" points="856.41,-629.035 865.471,-623.545 854.964,-622.186 856.41,-629.035"/>
<text text-anchor="middle" x="893" y="-645.8" font-family="Times,serif" font-size="14.00">mbedtls_mpi_cmp_abs(v2, v3) &lt; 0</text>
</g>
<!-- Node0xca81e80 -->
<g id="node11" class="node"><title>Node0xca81e80</title>
<polygon fill="none" stroke="black" points="174.5,-587.5 174.5,-623.5 686.5,-623.5 686.5,-587.5 174.5,-587.5"/>
<text text-anchor="start" x="182.5" y="-601.8" font-family="Times,serif" font-size="14.00">result2 = mbedtls_mpi_sub_abs(IntToPtrCastExpr&lt;ptr&gt;(v1), g3, g7)</text>
</g>
<!-- Node0x24b6cab0&#45;&gt;Node0xca81e80 -->
<g id="edge10" class="edge"><title>Node0x24b6cab0&#45;&gt;Node0xca81e80</title>
<path fill="none" stroke="black" d="M430.5,-675.474C430.5,-663.456 430.5,-647.434 430.5,-633.857"/>
<polygon fill="black" stroke="black" points="434,-633.615 430.5,-623.615 427,-633.615 434,-633.615"/>
<text text-anchor="middle" x="560" y="-645.8" font-family="Times,serif" font-size="14.00">mbedtls_mpi_cmp_abs(v2, v3) &gt;= 0</text>
</g>
<!-- Node0xef34660 -->
<g id="node12" class="node"><title>Node0xef34660</title>
<polygon fill="none" stroke="black" points="394.5,-23.5 394.5,-59.5 448.5,-59.5 448.5,-23.5 394.5,-23.5"/>
<text text-anchor="start" x="402.5" y="-37.8" font-family="Times,serif" font-size="14.00">exit:</text>
</g>
<!-- Node0xe8fb2f0&#45;&gt;Node0xef34660 -->
<g id="edge11" class="edge"><title>Node0xe8fb2f0&#45;&gt;Node0xef34660</title>
<path fill="none" stroke="black" d="M279.261,-102.019C318.362,-85.6568 357.591,-69.242 384.917,-57.8076"/>
<polygon fill="black" stroke="black" points="386.55,-60.9185 394.424,-53.8296 383.848,-54.461 386.55,-60.9185"/>
</g>
<!-- Node0xb01dc50&#45;&gt;Node0xef34660 -->
<g id="edge12" class="edge"><title>Node0xb01dc50&#45;&gt;Node0xef34660</title>
<path fill="none" stroke="black" d="M382.149,-119.891C390.713,-103.047 400.408,-83.9818 408.031,-68.9887"/>
<polygon fill="black" stroke="black" points="411.297,-70.2888 412.709,-59.7885 405.057,-67.116 411.297,-70.2888"/>
</g>
<!-- Node0x283ffd30 -->
<g id="node13" class="node"><title>Node0x283ffd30</title>
<polygon fill="none" stroke="black" points="877,-511.5 877,-549.5 982,-549.5 982,-511.5 877,-511.5"/>
<text text-anchor="start" x="885" y="-534.3" font-family="Times,serif" font-size="14.00">if (v9 == 0):</text>
<text text-anchor="start" x="885" y="-519.3" font-family="Times,serif" font-size="14.00"> else:</text>
</g>
<!-- Node0xfdec290&#45;&gt;Node0x283ffd30 -->
<g id="edge13" class="edge"><title>Node0xfdec290&#45;&gt;Node0x283ffd30</title>
<path fill="none" stroke="black" d="M940.182,-587.2C938.608,-578.99 936.686,-568.969 934.908,-559.701"/>
<polygon fill="black" stroke="black" points="938.31,-558.856 932.989,-549.694 931.436,-560.175 938.31,-558.856"/>
</g>
<!-- Node0xe8fa670 -->
<g id="node14" class="node"><title>Node0xe8fa670</title>
<polygon fill="none" stroke="black" points="384,-512.5 384,-548.5 523,-548.5 523,-512.5 384,-512.5"/>
<text text-anchor="start" x="392" y="-526.8" font-family="Times,serif" font-size="14.00">if (result2 == 0):</text>
</g>
<!-- Node0xca81e80&#45;&gt;Node0xe8fa670 -->
<g id="edge14" class="edge"><title>Node0xca81e80&#45;&gt;Node0xe8fa670</title>
<path fill="none" stroke="black" d="M435.951,-587.2C438.672,-578.563 442.025,-567.922 445.068,-558.262"/>
<polygon fill="black" stroke="black" points="448.422,-559.265 448.088,-548.676 441.745,-557.162 448.422,-559.265"/>
</g>
<!-- Node0xe8faa20 -->
<g id="node15" class="node"><title>Node0xe8faa20</title>
<polygon fill="none" stroke="black" points="782.5,-391.5 782.5,-459.5 1076.5,-459.5 1076.5,-391.5 782.5,-391.5"/>
<text text-anchor="start" x="790.5" y="-444.3" font-family="Times,serif" font-size="14.00">0x805806f:</text>
<text text-anchor="start" x="790.5" y="-429.3" font-family="Times,serif" font-size="14.00"> g6 = v1</text>
<text text-anchor="start" x="790.5" y="-414.3" font-family="Times,serif" font-size="14.00"> *(IntToPtrCastExpr&lt;ptr&gt;(v1)) = &#45;(g5)</text>
<text text-anchor="start" x="790.5" y="-399.3" font-family="Times,serif" font-size="14.00"> result3 = v9</text>
</g>
<!-- Node0x283ffd30&#45;&gt;Node0xe8faa20 -->
<g id="edge15" class="edge"><title>Node0x283ffd30&#45;&gt;Node0xe8faa20</title>
<path fill="none" stroke="black" d="M929.5,-511.086C929.5,-499.631 929.5,-484.39 929.5,-470.003"/>
<polygon fill="black" stroke="black" points="933,-469.743 929.5,-459.743 926,-469.743 933,-469.743"/>
<text text-anchor="middle" x="959.5" y="-481.8" font-family="Times,serif" font-size="14.00">v9 == 0</text>
</g>
<!-- Node0xe8faaa0 -->
<g id="node16" class="node"><title>Node0xe8faaa0</title>
<polygon fill="none" stroke="black" points="658.5,-407.5 658.5,-443.5 764.5,-443.5 764.5,-407.5 658.5,-407.5"/>
<text text-anchor="start" x="666.5" y="-421.8" font-family="Times,serif" font-size="14.00">result3 = v9</text>
</g>
<!-- Node0x283ffd30&#45;&gt;Node0xe8faaa0 -->
<g id="edge16" class="edge"><title>Node0x283ffd30&#45;&gt;Node0xe8faaa0</title>
<path fill="none" stroke="black" d="M886.72,-511.486C855.143,-497.938 811.277,-478.587 773.5,-460 766.244,-456.43 758.603,-452.47 751.258,-448.56"/>
<polygon fill="black" stroke="black" points="752.629,-445.324 742.164,-443.667 749.312,-451.488 752.629,-445.324"/>
<text text-anchor="middle" x="867.5" y="-481.8" font-family="Times,serif" font-size="14.00">v9 != 0</text>
</g>
<!-- Node0xe8fab20 -->
<g id="node17" class="node"><title>Node0xe8fab20</title>
<polygon fill="none" stroke="black" points="327,-244.5 327,-372.5 606,-372.5 606,-244.5 327,-244.5"/>
<text text-anchor="start" x="335" y="-357.3" font-family="Times,serif" font-size="14.00">0x805803f:</text>
<text text-anchor="start" x="335" y="-342.3" font-family="Times,serif" font-size="14.00"> v8 = v1</text>
<text text-anchor="start" x="335" y="-327.3" font-family="Times,serif" font-size="14.00"> g6 = v8</text>
<text text-anchor="start" x="335" y="-312.3" font-family="Times,serif" font-size="14.00"> *(IntToPtrCastExpr&lt;ptr&gt;(v8)) = g5</text>
<text text-anchor="start" x="335" y="-297.3" font-family="Times,serif" font-size="14.00"> g3 = v4</text>
<text text-anchor="start" x="335" y="-282.3" font-family="Times,serif" font-size="14.00"> g7 = v5</text>
<text text-anchor="start" x="335" y="-267.3" font-family="Times,serif" font-size="14.00"> g5 = v6</text>
<text text-anchor="start" x="335" y="-252.3" font-family="Times,serif" font-size="14.00"> return result2</text>
</g>
<!-- Node0xe8fa670&#45;&gt;Node0xe8fab20 -->
<g id="edge17" class="edge"><title>Node0xe8fa670&#45;&gt;Node0xe8fab20</title>
<path fill="none" stroke="black" d="M451.593,-512.338C450.708,-502.326 449.958,-489.451 450.5,-478 451.98,-446.755 454.996,-412.36 458.014,-382.837"/>
<polygon fill="black" stroke="black" points="461.524,-382.92 459.079,-372.611 454.562,-382.194 461.524,-382.92"/>
<text text-anchor="middle" x="497.5" y="-481.8" font-family="Times,serif" font-size="14.00">result2 == 0</text>
</g>
<!-- Node0xe8fa710 -->
<g id="node18" class="node"><title>Node0xe8fa710</title>
<polygon fill="none" stroke="black" points="500.5,-407.5 500.5,-443.5 640.5,-443.5 640.5,-407.5 500.5,-407.5"/>
<text text-anchor="start" x="508.5" y="-421.8" font-family="Times,serif" font-size="14.00">result3 = result2</text>
</g>
<!-- Node0xe8fa670&#45;&gt;Node0xe8fa710 -->
<g id="edge18" class="edge"><title>Node0xe8fa670&#45;&gt;Node0xe8fa710</title>
<path fill="none" stroke="black" d="M520.972,-512.278C531.163,-507.356 540.818,-501.055 548.5,-493 558.632,-482.376 564.101,-466.983 567.051,-453.682"/>
<polygon fill="black" stroke="black" points="570.54,-454.064 568.918,-443.594 563.656,-452.79 570.54,-454.064"/>
<text text-anchor="middle" x="602.5" y="-481.8" font-family="Times,serif" font-size="14.00">result2 != 0</text>
</g>
<!-- Node0xca83260 -->
<g id="node19" class="node"><title>Node0xca83260</title>
<polygon fill="none" stroke="black" points="612.5,-120 612.5,-203 734.5,-203 734.5,-120 612.5,-120"/>
<text text-anchor="start" x="620.5" y="-187.8" font-family="Times,serif" font-size="14.00">0x8058017:</text>
<text text-anchor="start" x="620.5" y="-172.8" font-family="Times,serif" font-size="14.00"> g3 = v4</text>
<text text-anchor="start" x="620.5" y="-157.8" font-family="Times,serif" font-size="14.00"> g7 = v5</text>
<text text-anchor="start" x="620.5" y="-142.8" font-family="Times,serif" font-size="14.00"> g5 = v6</text>
<text text-anchor="start" x="620.5" y="-127.8" font-family="Times,serif" font-size="14.00"> return result3</text>
</g>
<!-- Node0xe8faa20&#45;&gt;Node0xca83260 -->
<g id="edge19" class="edge"><title>Node0xe8faa20&#45;&gt;Node0xca83260</title>
<path fill="none" stroke="black" d="M897.077,-391.318C852.36,-345.552 771.484,-262.78 720.238,-210.333"/>
<polygon fill="black" stroke="black" points="722.702,-207.848 713.21,-203.141 717.696,-212.74 722.702,-207.848"/>
</g>
<!-- Node0xe8faaa0&#45;&gt;Node0xca83260 -->
<g id="edge20" class="edge"><title>Node0xe8faaa0&#45;&gt;Node0xca83260</title>
<path fill="none" stroke="black" d="M709.007,-407.309C703.372,-368.459 689.475,-272.642 680.833,-213.056"/>
<polygon fill="black" stroke="black" points="684.287,-212.49 679.388,-203.096 677.36,-213.495 684.287,-212.49"/>
</g>
<!-- Node0xe8fab20&#45;&gt;Node0xef34660 -->
<g id="edge21" class="edge"><title>Node0xe8fab20&#45;&gt;Node0xef34660</title>
<path fill="none" stroke="black" d="M455.779,-244.363C446.329,-188.712 433.018,-110.328 426.092,-69.5442"/>
<polygon fill="black" stroke="black" points="429.521,-68.8274 424.396,-59.5545 422.62,-69.9994 429.521,-68.8274"/>
</g>
<!-- Node0xe8fa710&#45;&gt;Node0xca83260 -->
<g id="edge22" class="edge"><title>Node0xe8fa710&#45;&gt;Node0xca83260</title>
<path fill="none" stroke="black" d="M588.494,-407.345C597.437,-397.947 607.746,-385.658 614.5,-373 641.684,-322.053 657.396,-257.31 665.67,-213.166"/>
<polygon fill="black" stroke="black" points="669.129,-213.706 667.47,-203.241 662.242,-212.456 669.129,-213.706"/>
</g>
<!-- Node0xca83260&#45;&gt;Node0xef34660 -->
<g id="edge23" class="edge"><title>Node0xca83260&#45;&gt;Node0xef34660</title>
<path fill="none" stroke="black" d="M612.498,-131.935C564.22,-109.329 498.412,-78.5142 457.998,-59.5905"/>
<polygon fill="black" stroke="black" points="459.331,-56.3498 448.79,-55.2788 456.362,-62.6892 459.331,-56.3498"/>
</g>
</g>
</svg>
