<?xml version="1.0" encoding="UTF-8" standalone="no"?>
<!DOCTYPE svg PUBLIC "-//W3C//DTD SVG 1.1//EN"
 "http://www.w3.org/Graphics/SVG/1.1/DTD/svg11.dtd">
<!-- Generated by graphviz version 2.38.0 (20140413.2041)
 -->
<!-- Title: Control&#45;flow graph for function &#39;mbedtls_ctr_drbg_seed(a1, a2, a3, a4, a5)&#39;. Pages: 1 -->
<svg width="565pt" height="278pt"
 viewBox="0.00 0.00 565.00 278.00" xmlns="http://www.w3.org/2000/svg" xmlns:xlink="http://www.w3.org/1999/xlink">
<g id="graph0" class="graph" transform="scale(1 1) rotate(0) translate(4 274)">
<title>Control&#45;flow graph for function &#39;mbedtls_ctr_drbg_seed(a1, a2, a3, a4, a5)&#39;.</title>
<polygon fill="white" stroke="none" points="-4,4 -4,-274 561,-274 561,4 -4,4"/>
<text text-anchor="middle" x="278.5" y="-7.8" font-family="Times,serif" font-size="14.00">Control&#45;flow graph for function &#39;mbedtls_ctr_drbg_seed(a1, a2, a3, a4, a5)&#39;.</text>
<!-- Node0x194cc5d0 -->
<g id="node1" class="node"><title>Node0x194cc5d0</title>
<polygon fill="none" stroke="black" points="249,-171.5 249,-269.5 308,-269.5 308,-171.5 249,-171.5"/>
<text text-anchor="start" x="257" y="-254.3" font-family="Times,serif" font-size="14.00">entry:</text>
<text text-anchor="start" x="257" y="-239.3" font-family="Times,serif" font-size="14.00"> a1</text>
<text text-anchor="start" x="257" y="-224.3" font-family="Times,serif" font-size="14.00"> a2</text>
<text text-anchor="start" x="257" y="-209.3" font-family="Times,serif" font-size="14.00"> a3</text>
<text text-anchor="start" x="257" y="-194.3" font-family="Times,serif" font-size="14.00"> a4</text>
<text text-anchor="start" x="257" y="-179.3" font-family="Times,serif" font-size="14.00"> a5</text>
</g>
<!-- Node0x94882b0 -->
<g id="node2" class="node"><title>Node0x94882b0</title>
<polygon fill="none" stroke="black" points="33,-96.5 33,-134.5 524,-134.5 524,-96.5 33,-96.5"/>
<text text-anchor="start" x="41" y="-119.3" font-family="Times,serif" font-size="14.00">0x804bcf0:</text>
<text text-anchor="start" x="41" y="-104.3" font-family="Times,serif" font-size="14.00"> return mbedtls_ctr_drbg_seed_entropy_len(a1, a2, a3, a4, a5, 48)</text>
</g>
<!-- Node0x194cc5d0&#45;&gt;Node0x94882b0 -->
<g id="edge1" class="edge"><title>Node0x194cc5d0&#45;&gt;Node0x94882b0</title>
<path fill="none" stroke="black" d="M278.5,-171.317C278.5,-162.289 278.5,-153.124 278.5,-144.939"/>
<polygon fill="black" stroke="black" points="282,-144.836 278.5,-134.836 275,-144.836 282,-144.836"/>
</g>
<!-- Node0xf6a95b0 -->
<g id="node3" class="node"><title>Node0xf6a95b0</title>
<polygon fill="none" stroke="black" points="251.5,-23.5 251.5,-59.5 305.5,-59.5 305.5,-23.5 251.5,-23.5"/>
<text text-anchor="start" x="259.5" y="-37.8" font-family="Times,serif" font-size="14.00">exit:</text>
</g>
<!-- Node0x94882b0&#45;&gt;Node0xf6a95b0 -->
<g id="edge2" class="edge"><title>Node0x94882b0&#45;&gt;Node0xf6a95b0</title>
<path fill="none" stroke="black" d="M278.5,-96.3314C278.5,-88.394 278.5,-78.9095 278.5,-70.1285"/>
<polygon fill="black" stroke="black" points="282,-69.9177 278.5,-59.9177 275,-69.9177 282,-69.9177"/>
</g>
</g>
</svg>
