<?xml version="1.0" encoding="UTF-8" standalone="no"?>
<!DOCTYPE svg PUBLIC "-//W3C//DTD SVG 1.1//EN"
 "http://www.w3.org/Graphics/SVG/1.1/DTD/svg11.dtd">
<!-- Generated by graphviz version 2.38.0 (20140413.2041)
 -->
<!-- Title: Control&#45;flow graph for function &#39;__restore_sigs(a1)&#39;. Pages: 1 -->
<svg width="394pt" height="338pt"
 viewBox="0.00 0.00 394.00 338.00" xmlns="http://www.w3.org/2000/svg" xmlns:xlink="http://www.w3.org/1999/xlink">
<g id="graph0" class="graph" transform="scale(1 1) rotate(0) translate(4 334)">
<title>Control&#45;flow graph for function &#39;__restore_sigs(a1)&#39;.</title>
<polygon fill="white" stroke="none" points="-4,4 -4,-334 390,-334 390,4 -4,4"/>
<text text-anchor="middle" x="193" y="-7.8" font-family="Times,serif" font-size="14.00">Control&#45;flow graph for function &#39;__restore_sigs(a1)&#39;.</text>
<!-- Node0x194c3190 -->
<g id="node1" class="node"><title>Node0x194c3190</title>
<polygon fill="none" stroke="black" points="163.5,-291.5 163.5,-329.5 222.5,-329.5 222.5,-291.5 163.5,-291.5"/>
<text text-anchor="start" x="171.5" y="-314.3" font-family="Times,serif" font-size="14.00">entry:</text>
<text text-anchor="start" x="171.5" y="-299.3" font-family="Times,serif" font-size="14.00"> a1</text>
</g>
<!-- Node0x17cbb4e0 -->
<g id="node2" class="node"><title>Node0x17cbb4e0</title>
<polygon fill="none" stroke="black" points="74.5,-96.5 74.5,-254.5 311.5,-254.5 311.5,-96.5 74.5,-96.5"/>
<text text-anchor="start" x="82.5" y="-239.3" font-family="Times,serif" font-size="14.00">0x8072806:</text>
<text text-anchor="start" x="82.5" y="-224.3" font-family="Times,serif" font-size="14.00"> g6 = 2</text>
<text text-anchor="start" x="82.5" y="-209.3" font-family="Times,serif" font-size="14.00"> g5 = 0</text>
<text text-anchor="start" x="82.5" y="-194.3" font-family="Times,serif" font-size="14.00"> g1 = 175</text>
<text text-anchor="start" x="82.5" y="-179.3" font-family="Times,serif" font-size="14.00"> v1</text>
<text text-anchor="start" x="82.5" y="-164.3" font-family="Times,serif" font-size="14.00"> v2</text>
<text text-anchor="start" x="82.5" y="-149.3" font-family="Times,serif" font-size="14.00"> result = __vsyscall(g7, v2, v1)</text>
<text text-anchor="start" x="82.5" y="-134.3" font-family="Times,serif" font-size="14.00"> g1 = result</text>
<text text-anchor="start" x="82.5" y="-119.3" font-family="Times,serif" font-size="14.00"> g5 = v2</text>
<text text-anchor="start" x="82.5" y="-104.3" font-family="Times,serif" font-size="14.00"> return result</text>
</g>
<!-- Node0x194c3190&#45;&gt;Node0x17cbb4e0 -->
<g id="edge1" class="edge"><title>Node0x194c3190&#45;&gt;Node0x17cbb4e0</title>
<path fill="none" stroke="black" d="M193,-291.286C193,-283.869 193,-274.714 193,-264.836"/>
<polygon fill="black" stroke="black" points="196.5,-264.754 193,-254.754 189.5,-264.754 196.5,-264.754"/>
</g>
<!-- Node0x17cbb460 -->
<g id="node3" class="node"><title>Node0x17cbb460</title>
<polygon fill="none" stroke="black" points="166,-23.5 166,-59.5 220,-59.5 220,-23.5 166,-23.5"/>
<text text-anchor="start" x="174" y="-37.8" font-family="Times,serif" font-size="14.00">exit:</text>
</g>
<!-- Node0x17cbb4e0&#45;&gt;Node0x17cbb460 -->
<g id="edge2" class="edge"><title>Node0x17cbb4e0&#45;&gt;Node0x17cbb460</title>
<path fill="none" stroke="black" d="M193,-96.1895C193,-86.7241 193,-77.609 193,-69.6605"/>
<polygon fill="black" stroke="black" points="196.5,-69.6213 193,-59.6214 189.5,-69.6214 196.5,-69.6213"/>
</g>
</g>
</svg>
