<?xml version="1.0" encoding="UTF-8" standalone="no"?>
<!DOCTYPE svg PUBLIC "-//W3C//DTD SVG 1.1//EN"
 "http://www.w3.org/Graphics/SVG/1.1/DTD/svg11.dtd">
<!-- Generated by graphviz version 2.38.0 (20140413.2041)
 -->
<!-- Title: Control&#45;flow graph for function &#39;mbedtls_aes_free(*a1)&#39;. Pages: 1 -->
<svg width="552pt" height="629pt"
 viewBox="0.00 0.00 552.00 629.00" xmlns="http://www.w3.org/2000/svg" xmlns:xlink="http://www.w3.org/1999/xlink">
<g id="graph0" class="graph" transform="scale(1 1) rotate(0) translate(4 625)">
<title>Control&#45;flow graph for function &#39;mbedtls_aes_free(*a1)&#39;.</title>
<polygon fill="white" stroke="none" points="-4,4 -4,-625 548,-625 548,4 -4,4"/>
<text text-anchor="middle" x="272" y="-7.8" font-family="Times,serif" font-size="14.00">Control&#45;flow graph for function &#39;mbedtls_aes_free(*a1)&#39;.</text>
<!-- Node0xf024070 -->
<g id="node1" class="node"><title>Node0xf024070</title>
<polygon fill="none" stroke="black" points="118.5,-582.5 118.5,-620.5 177.5,-620.5 177.5,-582.5 118.5,-582.5"/>
<text text-anchor="start" x="126.5" y="-605.3" font-family="Times,serif" font-size="14.00">entry:</text>
<text text-anchor="start" x="126.5" y="-590.3" font-family="Times,serif" font-size="14.00"> a1</text>
</g>
<!-- Node0xf025eb0 -->
<g id="node2" class="node"><title>Node0xf025eb0</title>
<polygon fill="none" stroke="black" points="0,-508.5 0,-544.5 296,-544.5 296,-508.5 0,-508.5"/>
<text text-anchor="start" x="8" y="-522.8" font-family="Times,serif" font-size="14.00">result = PtrToIntCastExpr&lt;int32&gt;(a1)</text>
</g>
<!-- Node0xf024070&#45;&gt;Node0xf025eb0 -->
<g id="edge1" class="edge"><title>Node0xf024070&#45;&gt;Node0xf025eb0</title>
<path fill="none" stroke="black" d="M148,-582.455C148,-574.201 148,-564.238 148,-555.074"/>
<polygon fill="black" stroke="black" points="151.5,-554.835 148,-544.835 144.5,-554.835 151.5,-554.835"/>
</g>
<!-- Node0xf025020 -->
<g id="node3" class="node"><title>Node0xf025020</title>
<polygon fill="none" stroke="black" points="78,-434.5 78,-470.5 218,-470.5 218,-434.5 78,-434.5"/>
<text text-anchor="start" x="86" y="-448.8" font-family="Times,serif" font-size="14.00">if (a1 == NULL):</text>
</g>
<!-- Node0xf025eb0&#45;&gt;Node0xf025020 -->
<g id="edge2" class="edge"><title>Node0xf025eb0&#45;&gt;Node0xf025020</title>
<path fill="none" stroke="black" d="M148,-508.437C148,-500.307 148,-490.376 148,-481.205"/>
<polygon fill="black" stroke="black" points="151.5,-480.941 148,-470.941 144.5,-480.941 151.5,-480.941"/>
</g>
<!-- Node0xf0252d0 -->
<g id="node4" class="node"><title>Node0xf0252d0</title>
<polygon fill="none" stroke="black" points="15.5,-257.5 15.5,-295.5 128.5,-295.5 128.5,-257.5 15.5,-257.5"/>
<text text-anchor="start" x="23.5" y="-280.3" font-family="Times,serif" font-size="14.00">0x804987a:</text>
<text text-anchor="start" x="23.5" y="-265.3" font-family="Times,serif" font-size="14.00"> return result</text>
</g>
<!-- Node0xf025020&#45;&gt;Node0xf0252d0 -->
<g id="edge3" class="edge"><title>Node0xf025020&#45;&gt;Node0xf0252d0</title>
<path fill="none" stroke="black" d="M121.029,-434.421C114.617,-429.212 108.376,-422.988 104,-416 82.652,-381.911 75.5161,-335.089 73.1488,-305.565"/>
<polygon fill="black" stroke="black" points="76.6369,-305.269 72.4749,-295.526 69.6526,-305.738 76.6369,-305.269"/>
<text text-anchor="middle" x="151" y="-404.8" font-family="Times,serif" font-size="14.00">a1 == NULL</text>
</g>
<!-- Node0xf025150 -->
<g id="node5" class="node"><title>Node0xf025150</title>
<polygon fill="none" stroke="black" points="152.5,-314.5 152.5,-382.5 447.5,-382.5 447.5,-314.5 152.5,-314.5"/>
<text text-anchor="start" x="160.5" y="-367.3" font-family="Times,serif" font-size="14.00">0x804986a:</text>
<text text-anchor="start" x="160.5" y="-352.3" font-family="Times,serif" font-size="14.00"> g6 = (result + 280)</text>
<text text-anchor="start" x="160.5" y="-337.3" font-family="Times,serif" font-size="14.00"> *(IntToPtrCastExpr&lt;ptr&gt;(result)) = 0</text>
<text text-anchor="start" x="160.5" y="-322.3" font-family="Times,serif" font-size="14.00"> result2 = (result + 1)</text>
</g>
<!-- Node0xf025020&#45;&gt;Node0xf025150 -->
<g id="edge4" class="edge"><title>Node0xf025020&#45;&gt;Node0xf025150</title>
<path fill="none" stroke="black" d="M173.441,-434.427C192.183,-421.851 218.433,-404.236 242.17,-388.307"/>
<polygon fill="black" stroke="black" points="244.43,-391.005 250.784,-382.527 240.53,-385.193 244.43,-391.005"/>
<text text-anchor="middle" x="264" y="-404.8" font-family="Times,serif" font-size="14.00">a1 != NULL</text>
</g>
<!-- Node0xf025e50 -->
<g id="node6" class="node"><title>Node0xf025e50</title>
<polygon fill="none" stroke="black" points="154,-23.5 154,-59.5 208,-59.5 208,-23.5 154,-23.5"/>
<text text-anchor="start" x="162" y="-37.8" font-family="Times,serif" font-size="14.00">exit:</text>
</g>
<!-- Node0xf0252d0&#45;&gt;Node0xf025e50 -->
<g id="edge5" class="edge"><title>Node0xf0252d0&#45;&gt;Node0xf025e50</title>
<path fill="none" stroke="black" d="M68.9873,-257.346C64.2925,-223.048 58.82,-147.631 91,-97 103.322,-77.6135 125.255,-64.1223 144.384,-55.4125"/>
<polygon fill="black" stroke="black" points="145.956,-58.547 153.78,-51.4021 143.208,-52.109 145.956,-58.547"/>
</g>
<!-- Node0xf025560 -->
<g id="node7" class="node"><title>Node0xf025560</title>
<polygon fill="none" stroke="black" points="216,-202.5 216,-238.5 386,-238.5 386,-202.5 216,-202.5"/>
<text text-anchor="start" x="224" y="-216.8" font-family="Times,serif" font-size="14.00">while (result2 != g6):</text>
</g>
<!-- Node0xf025150&#45;&gt;Node0xf025560 -->
<g id="edge6" class="edge"><title>Node0xf025150&#45;&gt;Node0xf025560</title>
<path fill="none" stroke="black" d="M300.263,-314.395C300.425,-293.942 300.631,-268.017 300.784,-248.755"/>
<polygon fill="black" stroke="black" points="304.285,-248.574 300.865,-238.546 297.285,-248.518 304.285,-248.574"/>
</g>
<!-- Node0xf025330 -->
<g id="node8" class="node"><title>Node0xf025330</title>
<polygon fill="none" stroke="black" points="100,-97.5 100,-150.5 404,-150.5 404,-97.5 100,-97.5"/>
<text text-anchor="start" x="108" y="-135.3" font-family="Times,serif" font-size="14.00">0x8049870:</text>
<text text-anchor="start" x="108" y="-120.3" font-family="Times,serif" font-size="14.00"> *(IntToPtrCastExpr&lt;ptr&gt;(result2)) = 0</text>
<text text-anchor="start" x="108" y="-105.3" font-family="Times,serif" font-size="14.00"> result2 = (result2 + 1)</text>
</g>
<!-- Node0xf025560&#45;&gt;Node0xf025330 -->
<g id="edge7" class="edge"><title>Node0xf025560&#45;&gt;Node0xf025330</title>
<path fill="none" stroke="black" d="M215.844,-205.109C205.75,-199.997 196.681,-193.151 190,-184 183.292,-174.812 186.142,-165.842 193.433,-157.783"/>
<polygon fill="black" stroke="black" points="196.21,-159.986 201.23,-150.656 191.487,-154.819 196.21,-159.986"/>
<text text-anchor="middle" x="238.5" y="-172.8" font-family="Times,serif" font-size="14.00">result2 != g6</text>
</g>
<!-- Node0xf025200 -->
<g id="node9" class="node"><title>Node0xf025200</title>
<polygon fill="none" stroke="black" points="422,-105 422,-143 544,-143 544,-105 422,-105"/>
<text text-anchor="start" x="430" y="-127.8" font-family="Times,serif" font-size="14.00">0x804987a:</text>
<text text-anchor="start" x="430" y="-112.8" font-family="Times,serif" font-size="14.00"> return result2</text>
</g>
<!-- Node0xf025560&#45;&gt;Node0xf025200 -->
<g id="edge8" class="edge"><title>Node0xf025560&#45;&gt;Node0xf025200</title>
<path fill="none" stroke="black" d="M333.959,-202.387C363.327,-187.138 406.538,-164.701 438.88,-147.908"/>
<polygon fill="black" stroke="black" points="440.854,-150.827 448.116,-143.113 437.629,-144.615 440.854,-150.827"/>
<text text-anchor="middle" x="448.5" y="-172.8" font-family="Times,serif" font-size="14.00">result2 == g6</text>
</g>
<!-- Node0xf025330&#45;&gt;Node0xf025560 -->
<g id="edge9" class="edge"><title>Node0xf025330&#45;&gt;Node0xf025560</title>
<path fill="none" stroke="black" d="M275.307,-150.812C279.645,-156.518 283.81,-162.738 287,-169 290.676,-176.215 293.488,-184.517 295.593,-192.278"/>
<polygon fill="black" stroke="black" points="292.201,-193.143 297.965,-202.032 299.002,-191.488 292.201,-193.143"/>
</g>
<!-- Node0xf025200&#45;&gt;Node0xf025e50 -->
<g id="edge10" class="edge"><title>Node0xf025200&#45;&gt;Node0xf025e50</title>
<path fill="none" stroke="black" d="M436.964,-104.974C429.029,-102.134 420.819,-99.3604 413,-97 345.06,-76.4902 264.01,-58.9975 217.919,-49.6865"/>
<polygon fill="black" stroke="black" points="218.574,-46.2484 208.082,-47.7166 217.2,-53.1121 218.574,-46.2484"/>
</g>
</g>
</svg>
