<?xml version="1.0" encoding="UTF-8" standalone="no"?>
<!DOCTYPE svg PUBLIC "-//W3C//DTD SVG 1.1//EN"
 "http://www.w3.org/Graphics/SVG/1.1/DTD/svg11.dtd">
<!-- Generated by graphviz version 2.38.0 (20140413.2041)
 -->
<!-- Title: Control&#45;flow graph for function &#39;mbedtls_pk_info_from_type(a1)&#39;. Pages: 1 -->
<svg width="736pt" height="522pt"
 viewBox="0.00 0.00 735.50 522.00" xmlns="http://www.w3.org/2000/svg" xmlns:xlink="http://www.w3.org/1999/xlink">
<g id="graph0" class="graph" transform="scale(1 1) rotate(0) translate(4 518)">
<title>Control&#45;flow graph for function &#39;mbedtls_pk_info_from_type(a1)&#39;.</title>
<polygon fill="white" stroke="none" points="-4,4 -4,-518 731.5,-518 731.5,4 -4,4"/>
<text text-anchor="middle" x="363.75" y="-7.8" font-family="Times,serif" font-size="14.00">Control&#45;flow graph for function &#39;mbedtls_pk_info_from_type(a1)&#39;.</text>
<!-- Node0xe698e00 -->
<g id="node1" class="node"><title>Node0xe698e00</title>
<polygon fill="none" stroke="black" points="466.5,-475.5 466.5,-513.5 525.5,-513.5 525.5,-475.5 466.5,-475.5"/>
<text text-anchor="start" x="474.5" y="-498.3" font-family="Times,serif" font-size="14.00">entry:</text>
<text text-anchor="start" x="474.5" y="-483.3" font-family="Times,serif" font-size="14.00"> a1</text>
</g>
<!-- Node0xe699140 -->
<g id="node2" class="node"><title>Node0xe699140</title>
<polygon fill="none" stroke="black" points="441,-354.5 441,-437.5 551,-437.5 551,-354.5 441,-354.5"/>
<text text-anchor="start" x="449" y="-422.3" font-family="Times,serif" font-size="14.00">0x804cdd0:</text>
<text text-anchor="start" x="449" y="-407.3" font-family="Times,serif" font-size="14.00"> g1 = 0</text>
<text text-anchor="start" x="449" y="-392.3" font-family="Times,serif" font-size="14.00"> v1 = (a1 &#45; 1)</text>
<text text-anchor="start" x="449" y="-377.3" font-family="Times,serif" font-size="14.00"> g6 = v1</text>
<text text-anchor="start" x="449" y="-362.3" font-family="Times,serif" font-size="14.00"> result</text>
</g>
<!-- Node0xe698e00&#45;&gt;Node0xe699140 -->
<g id="edge1" class="edge"><title>Node0xe698e00&#45;&gt;Node0xe699140</title>
<path fill="none" stroke="black" d="M496,-475.349C496,-467.488 496,-457.852 496,-448.061"/>
<polygon fill="black" stroke="black" points="499.5,-447.87 496,-437.87 492.5,-447.87 499.5,-447.87"/>
</g>
<!-- Node0xe69a200 -->
<g id="node3" class="node"><title>Node0xe69a200</title>
<polygon fill="none" stroke="black" points="443.5,-278.5 443.5,-316.5 548.5,-316.5 548.5,-278.5 443.5,-278.5"/>
<text text-anchor="start" x="451.5" y="-301.3" font-family="Times,serif" font-size="14.00">if (v1 &lt;= 3):</text>
<text text-anchor="start" x="451.5" y="-286.3" font-family="Times,serif" font-size="14.00"> else:</text>
</g>
<!-- Node0xe699140&#45;&gt;Node0xe69a200 -->
<g id="edge2" class="edge"><title>Node0xe699140&#45;&gt;Node0xe69a200</title>
<path fill="none" stroke="black" d="M496,-354.355C496,-345.083 496,-335.427 496,-326.803"/>
<polygon fill="black" stroke="black" points="499.5,-326.538 496,-316.538 492.5,-326.538 499.5,-326.538"/>
</g>
<!-- Node0x1d335910 -->
<g id="node4" class="node"><title>Node0x1d335910</title>
<polygon fill="none" stroke="black" points="0,-173.5 0,-226.5 620,-226.5 620,-173.5 0,-173.5"/>
<text text-anchor="start" x="8" y="-211.3" font-family="Times,serif" font-size="14.00">0x804cde0:</text>
<text text-anchor="start" x="8" y="-196.3" font-family="Times,serif" font-size="14.00"> result = *(IntToPtrCastExpr&lt;ptr&gt;(((4 * v1) + PtrToIntCastExpr&lt;int32&gt;(&amp;(g19)))))</text>
<text text-anchor="start" x="8" y="-181.3" font-family="Times,serif" font-size="14.00"> g1 = result</text>
</g>
<!-- Node0xe69a200&#45;&gt;Node0x1d335910 -->
<g id="edge3" class="edge"><title>Node0xe69a200&#45;&gt;Node0x1d335910</title>
<path fill="none" stroke="black" d="M460.577,-278.312C434.691,-265.021 398.992,-246.692 368.851,-231.217"/>
<polygon fill="black" stroke="black" points="370.187,-227.968 359.693,-226.514 366.99,-234.195 370.187,-227.968"/>
<text text-anchor="middle" x="450" y="-248.8" font-family="Times,serif" font-size="14.00">v1 &lt;= 3</text>
</g>
<!-- Node0x1d3359b0 -->
<g id="node5" class="node"><title>Node0x1d3359b0</title>
<polygon fill="none" stroke="black" points="638.5,-182 638.5,-218 727.5,-218 727.5,-182 638.5,-182"/>
<text text-anchor="start" x="646.5" y="-196.3" font-family="Times,serif" font-size="14.00">result = 0</text>
</g>
<!-- Node0xe69a200&#45;&gt;Node0x1d3359b0 -->
<g id="edge4" class="edge"><title>Node0xe69a200&#45;&gt;Node0x1d3359b0</title>
<path fill="none" stroke="black" d="M531.613,-278.312C562.609,-262.483 607.598,-239.507 640.476,-222.717"/>
<polygon fill="black" stroke="black" points="642.092,-225.821 649.406,-218.156 638.908,-219.587 642.092,-225.821"/>
<text text-anchor="middle" x="620" y="-248.8" font-family="Times,serif" font-size="14.00">v1 &gt; 3</text>
</g>
<!-- Node0xe69a280 -->
<g id="node6" class="node"><title>Node0xe69a280</title>
<polygon fill="none" stroke="black" points="483.5,-97.5 483.5,-135.5 596.5,-135.5 596.5,-97.5 483.5,-97.5"/>
<text text-anchor="start" x="491.5" y="-120.3" font-family="Times,serif" font-size="14.00">0x804cde7:</text>
<text text-anchor="start" x="491.5" y="-105.3" font-family="Times,serif" font-size="14.00"> return result</text>
</g>
<!-- Node0x1d335910&#45;&gt;Node0xe69a280 -->
<g id="edge5" class="edge"><title>Node0x1d335910&#45;&gt;Node0xe69a280</title>
<path fill="none" stroke="black" d="M382.142,-173.437C413.407,-162.358 449.603,-149.532 479.442,-138.959"/>
<polygon fill="black" stroke="black" points="480.635,-142.249 488.892,-135.61 478.297,-135.651 480.635,-142.249"/>
</g>
<!-- Node0x1d3359b0&#45;&gt;Node0xe69a280 -->
<g id="edge6" class="edge"><title>Node0x1d3359b0&#45;&gt;Node0xe69a280</title>
<path fill="none" stroke="black" d="M653.023,-181.915C631.983,-169.924 603.602,-153.749 580.545,-140.608"/>
<polygon fill="black" stroke="black" points="582.094,-137.462 571.673,-135.552 578.628,-143.544 582.094,-137.462"/>
</g>
<!-- Node0xe698620 -->
<g id="node7" class="node"><title>Node0xe698620</title>
<polygon fill="none" stroke="black" points="513,-23.5 513,-59.5 567,-59.5 567,-23.5 513,-23.5"/>
<text text-anchor="start" x="521" y="-37.8" font-family="Times,serif" font-size="14.00">exit:</text>
</g>
<!-- Node0xe69a280&#45;&gt;Node0xe698620 -->
<g id="edge7" class="edge"><title>Node0xe69a280&#45;&gt;Node0xe698620</title>
<path fill="none" stroke="black" d="M540,-97.4551C540,-89.2008 540,-79.2377 540,-70.0742"/>
<polygon fill="black" stroke="black" points="543.5,-69.8347 540,-59.8347 536.5,-69.8347 543.5,-69.8347"/>
</g>
</g>
</svg>
