<?xml version="1.0" encoding="UTF-8" standalone="no"?>
<!DOCTYPE svg PUBLIC "-//W3C//DTD SVG 1.1//EN"
 "http://www.w3.org/Graphics/SVG/1.1/DTD/svg11.dtd">
<!-- Generated by graphviz version 2.38.0 (20140413.2041)
 -->
<!-- Title: Control&#45;flow graph for function &#39;mbedtls_arc4_init(*a1)&#39;. Pages: 1 -->
<svg width="428pt" height="233pt"
 viewBox="0.00 0.00 428.00 233.00" xmlns="http://www.w3.org/2000/svg" xmlns:xlink="http://www.w3.org/1999/xlink">
<g id="graph0" class="graph" transform="scale(1 1) rotate(0) translate(4 229)">
<title>Control&#45;flow graph for function &#39;mbedtls_arc4_init(*a1)&#39;.</title>
<polygon fill="white" stroke="none" points="-4,4 -4,-229 424,-229 424,4 -4,4"/>
<text text-anchor="middle" x="210" y="-7.8" font-family="Times,serif" font-size="14.00">Control&#45;flow graph for function &#39;mbedtls_arc4_init(*a1)&#39;.</text>
<!-- Node0xaf2f8f0 -->
<g id="node1" class="node"><title>Node0xaf2f8f0</title>
<polygon fill="none" stroke="black" points="180.5,-186.5 180.5,-224.5 239.5,-224.5 239.5,-186.5 180.5,-186.5"/>
<text text-anchor="start" x="188.5" y="-209.3" font-family="Times,serif" font-size="14.00">entry:</text>
<text text-anchor="start" x="188.5" y="-194.3" font-family="Times,serif" font-size="14.00"> a1</text>
</g>
<!-- Node0xaf303e0 -->
<g id="node2" class="node"><title>Node0xaf303e0</title>
<polygon fill="none" stroke="black" points="134.5,-96.5 134.5,-149.5 285.5,-149.5 285.5,-96.5 134.5,-96.5"/>
<text text-anchor="start" x="142.5" y="-134.3" font-family="Times,serif" font-size="14.00">0x8068520:</text>
<text text-anchor="start" x="142.5" y="-119.3" font-family="Times,serif" font-size="14.00"> memset(a1, 0, 66)</text>
<text text-anchor="start" x="142.5" y="-104.3" font-family="Times,serif" font-size="14.00"> return 0</text>
</g>
<!-- Node0xaf2f8f0&#45;&gt;Node0xaf303e0 -->
<g id="edge1" class="edge"><title>Node0xaf2f8f0&#45;&gt;Node0xaf303e0</title>
<path fill="none" stroke="black" d="M210,-186.233C210,-178.347 210,-168.835 210,-159.648"/>
<polygon fill="black" stroke="black" points="213.5,-159.517 210,-149.517 206.5,-159.517 213.5,-159.517"/>
</g>
<!-- Node0xa8fa380 -->
<g id="node3" class="node"><title>Node0xa8fa380</title>
<polygon fill="none" stroke="black" points="183,-23.5 183,-59.5 237,-59.5 237,-23.5 183,-23.5"/>
<text text-anchor="start" x="191" y="-37.8" font-family="Times,serif" font-size="14.00">exit:</text>
</g>
<!-- Node0xaf303e0&#45;&gt;Node0xa8fa380 -->
<g id="edge2" class="edge"><title>Node0xaf303e0&#45;&gt;Node0xa8fa380</title>
<path fill="none" stroke="black" d="M210,-96.4081C210,-87.9823 210,-78.5803 210,-70.0174"/>
<polygon fill="black" stroke="black" points="213.5,-69.7564 210,-59.7564 206.5,-69.7565 213.5,-69.7564"/>
</g>
</g>
</svg>
