<?xml version="1.0" encoding="UTF-8" standalone="no"?>
<!DOCTYPE svg PUBLIC "-//W3C//DTD SVG 1.1//EN"
 "http://www.w3.org/Graphics/SVG/1.1/DTD/svg11.dtd">
<!-- Generated by graphviz version 2.38.0 (20140413.2041)
 -->
<!-- Title: Control&#45;flow graph for function &#39;__block_app_sigs(a1)&#39;. Pages: 1 -->
<svg width="415pt" height="338pt"
 viewBox="0.00 0.00 415.00 338.00" xmlns="http://www.w3.org/2000/svg" xmlns:xlink="http://www.w3.org/1999/xlink">
<g id="graph0" class="graph" transform="scale(1 1) rotate(0) translate(4 334)">
<title>Control&#45;flow graph for function &#39;__block_app_sigs(a1)&#39;.</title>
<polygon fill="white" stroke="none" points="-4,4 -4,-334 411,-334 411,4 -4,4"/>
<text text-anchor="middle" x="203.5" y="-7.8" font-family="Times,serif" font-size="14.00">Control&#45;flow graph for function &#39;__block_app_sigs(a1)&#39;.</text>
<!-- Node0x17cba0d0 -->
<g id="node1" class="node"><title>Node0x17cba0d0</title>
<polygon fill="none" stroke="black" points="174,-291.5 174,-329.5 233,-329.5 233,-291.5 174,-291.5"/>
<text text-anchor="start" x="182" y="-314.3" font-family="Times,serif" font-size="14.00">entry:</text>
<text text-anchor="start" x="182" y="-299.3" font-family="Times,serif" font-size="14.00"> a1</text>
</g>
<!-- Node0x17cba030 -->
<g id="node2" class="node"><title>Node0x17cba030</title>
<polygon fill="none" stroke="black" points="85,-96.5 85,-254.5 322,-254.5 322,-96.5 85,-96.5"/>
<text text-anchor="start" x="93" y="-239.3" font-family="Times,serif" font-size="14.00">0x80727e7:</text>
<text text-anchor="start" x="93" y="-224.3" font-family="Times,serif" font-size="14.00"> g6 = 0</text>
<text text-anchor="start" x="93" y="-209.3" font-family="Times,serif" font-size="14.00"> g5 = a1</text>
<text text-anchor="start" x="93" y="-194.3" font-family="Times,serif" font-size="14.00"> g1 = 175</text>
<text text-anchor="start" x="93" y="-179.3" font-family="Times,serif" font-size="14.00"> v1</text>
<text text-anchor="start" x="93" y="-164.3" font-family="Times,serif" font-size="14.00"> v2</text>
<text text-anchor="start" x="93" y="-149.3" font-family="Times,serif" font-size="14.00"> result = __vsyscall(g7, v2, v1)</text>
<text text-anchor="start" x="93" y="-134.3" font-family="Times,serif" font-size="14.00"> g1 = result</text>
<text text-anchor="start" x="93" y="-119.3" font-family="Times,serif" font-size="14.00"> g5 = v2</text>
<text text-anchor="start" x="93" y="-104.3" font-family="Times,serif" font-size="14.00"> return result</text>
</g>
<!-- Node0x17cba0d0&#45;&gt;Node0x17cba030 -->
<g id="edge1" class="edge"><title>Node0x17cba0d0&#45;&gt;Node0x17cba030</title>
<path fill="none" stroke="black" d="M203.5,-291.286C203.5,-283.869 203.5,-274.714 203.5,-264.836"/>
<polygon fill="black" stroke="black" points="207,-264.754 203.5,-254.754 200,-264.754 207,-264.754"/>
</g>
<!-- Node0xeb43bd0 -->
<g id="node3" class="node"><title>Node0xeb43bd0</title>
<polygon fill="none" stroke="black" points="176.5,-23.5 176.5,-59.5 230.5,-59.5 230.5,-23.5 176.5,-23.5"/>
<text text-anchor="start" x="184.5" y="-37.8" font-family="Times,serif" font-size="14.00">exit:</text>
</g>
<!-- Node0x17cba030&#45;&gt;Node0xeb43bd0 -->
<g id="edge2" class="edge"><title>Node0x17cba030&#45;&gt;Node0xeb43bd0</title>
<path fill="none" stroke="black" d="M203.5,-96.1895C203.5,-86.7241 203.5,-77.609 203.5,-69.6605"/>
<polygon fill="black" stroke="black" points="207,-69.6213 203.5,-59.6214 200,-69.6214 207,-69.6213"/>
</g>
</g>
</svg>
