<?xml version="1.0" encoding="UTF-8" standalone="no"?>
<!DOCTYPE svg PUBLIC "-//W3C//DTD SVG 1.1//EN"
 "http://www.w3.org/Graphics/SVG/1.1/DTD/svg11.dtd">
<!-- Generated by graphviz version 2.38.0 (20140413.2041)
 -->
<!-- Title: Control&#45;flow graph for function &#39;__restore_rt()&#39;. Pages: 1 -->
<svg width="361pt" height="231pt"
 viewBox="0.00 0.00 361.00 231.00" xmlns="http://www.w3.org/2000/svg" xmlns:xlink="http://www.w3.org/1999/xlink">
<g id="graph0" class="graph" transform="scale(1 1) rotate(0) translate(4 227)">
<title>Control&#45;flow graph for function &#39;__restore_rt()&#39;.</title>
<polygon fill="white" stroke="none" points="-4,4 -4,-227 357,-227 357,4 -4,4"/>
<text text-anchor="middle" x="176.5" y="-7.8" font-family="Times,serif" font-size="14.00">Control&#45;flow graph for function &#39;__restore_rt()&#39;.</text>
<!-- Node0x290ceca0 -->
<g id="node1" class="node"><title>Node0x290ceca0</title>
<polygon fill="none" stroke="black" points="147,-186.5 147,-222.5 206,-222.5 206,-186.5 147,-186.5"/>
<text text-anchor="start" x="155" y="-200.8" font-family="Times,serif" font-size="14.00">entry:</text>
</g>
<!-- Node0x290d3d60 -->
<g id="node2" class="node"><title>Node0x290d3d60</title>
<polygon fill="none" stroke="black" points="126,-96.5 126,-149.5 227,-149.5 227,-96.5 126,-96.5"/>
<text text-anchor="start" x="134" y="-134.3" font-family="Times,serif" font-size="14.00">0x807758c:</text>
<text text-anchor="start" x="134" y="-119.3" font-family="Times,serif" font-size="14.00"> g1 = 173</text>
<text text-anchor="start" x="134" y="-104.3" font-family="Times,serif" font-size="14.00"> return 173</text>
</g>
<!-- Node0x290ceca0&#45;&gt;Node0x290d3d60 -->
<g id="edge1" class="edge"><title>Node0x290ceca0&#45;&gt;Node0x290d3d60</title>
<path fill="none" stroke="black" d="M176.5,-186.25C176.5,-178.486 176.5,-169.014 176.5,-159.825"/>
<polygon fill="black" stroke="black" points="180,-159.676 176.5,-149.676 173,-159.676 180,-159.676"/>
</g>
<!-- Node0xb226920 -->
<g id="node3" class="node"><title>Node0xb226920</title>
<polygon fill="none" stroke="black" points="149.5,-23.5 149.5,-59.5 203.5,-59.5 203.5,-23.5 149.5,-23.5"/>
<text text-anchor="start" x="157.5" y="-37.8" font-family="Times,serif" font-size="14.00">exit:</text>
</g>
<!-- Node0x290d3d60&#45;&gt;Node0xb226920 -->
<g id="edge2" class="edge"><title>Node0x290d3d60&#45;&gt;Node0xb226920</title>
<path fill="none" stroke="black" d="M176.5,-96.4081C176.5,-87.9823 176.5,-78.5803 176.5,-70.0174"/>
<polygon fill="black" stroke="black" points="180,-69.7564 176.5,-59.7564 173,-69.7565 180,-69.7564"/>
</g>
</g>
</svg>
