<?xml version="1.0" encoding="UTF-8" standalone="no"?>
<!DOCTYPE svg PUBLIC "-//W3C//DTD SVG 1.1//EN"
 "http://www.w3.org/Graphics/SVG/1.1/DTD/svg11.dtd">
<!-- Generated by graphviz version 2.38.0 (20140413.2041)
 -->
<!-- Title: Control&#45;flow graph for function &#39;mbedtls_ctr_drbg_random_with_add(*a1, a2, a3, *a4, a5)&#39;. Pages: 1 -->
<svg width="1951pt" height="3152pt"
 viewBox="0.00 0.00 1951.00 3152.00" xmlns="http://www.w3.org/2000/svg" xmlns:xlink="http://www.w3.org/1999/xlink">
<g id="graph0" class="graph" transform="scale(1 1) rotate(0) translate(4 3148)">
<title>Control&#45;flow graph for function &#39;mbedtls_ctr_drbg_random_with_add(*a1, a2, a3, *a4, a5)&#39;.</title>
<polygon fill="white" stroke="none" points="-4,4 -4,-3148 1947,-3148 1947,4 -4,4"/>
<text text-anchor="middle" x="971.5" y="-7.8" font-family="Times,serif" font-size="14.00">Control&#45;flow graph for function &#39;mbedtls_ctr_drbg_random_with_add(*a1, a2, a3, *a4, a5)&#39;.</text>
<!-- Node0x194cd6a0 -->
<g id="node1" class="node"><title>Node0x194cd6a0</title>
<polygon fill="none" stroke="black" points="109,-3045.5 109,-3143.5 168,-3143.5 168,-3045.5 109,-3045.5"/>
<text text-anchor="start" x="117" y="-3128.3" font-family="Times,serif" font-size="14.00">entry:</text>
<text text-anchor="start" x="117" y="-3113.3" font-family="Times,serif" font-size="14.00"> a1</text>
<text text-anchor="start" x="117" y="-3098.3" font-family="Times,serif" font-size="14.00"> a2</text>
<text text-anchor="start" x="117" y="-3083.3" font-family="Times,serif" font-size="14.00"> a3</text>
<text text-anchor="start" x="117" y="-3068.3" font-family="Times,serif" font-size="14.00"> a4</text>
<text text-anchor="start" x="117" y="-3053.3" font-family="Times,serif" font-size="14.00"> a5</text>
</g>
<!-- Node0x194cdee0 -->
<g id="node2" class="node"><title>Node0x194cdee0</title>
<polygon fill="none" stroke="black" points="0,-2864.5 0,-3007.5 277,-3007.5 277,-2864.5 0,-2864.5"/>
<text text-anchor="start" x="8" y="-2992.3" font-family="Times,serif" font-size="14.00">0x804bd30:</text>
<text text-anchor="start" x="8" y="-2977.3" font-family="Times,serif" font-size="14.00"> v1</text>
<text text-anchor="start" x="8" y="-2962.3" font-family="Times,serif" font-size="14.00"> v2 = IntToPtrCastExpr&lt;ptr&gt;(v1)</text>
<text text-anchor="start" x="8" y="-2947.3" font-family="Times,serif" font-size="14.00"> v3 = g7</text>
<text text-anchor="start" x="8" y="-2932.3" font-family="Times,serif" font-size="14.00"> g7 = a3</text>
<text text-anchor="start" x="8" y="-2917.3" font-family="Times,serif" font-size="14.00"> v4 = g3</text>
<text text-anchor="start" x="8" y="-2902.3" font-family="Times,serif" font-size="14.00"> g6 = a5</text>
<text text-anchor="start" x="8" y="-2887.3" font-family="Times,serif" font-size="14.00"> v5 = g5</text>
<text text-anchor="start" x="8" y="-2872.3" font-family="Times,serif" font-size="14.00"> g3 = PtrToIntCastExpr&lt;int32&gt;(a1)</text>
</g>
<!-- Node0x194cd6a0&#45;&gt;Node0x194cdee0 -->
<g id="edge1" class="edge"><title>Node0x194cd6a0&#45;&gt;Node0x194cdee0</title>
<path fill="none" stroke="black" d="M138.5,-3045.27C138.5,-3036.5 138.5,-3027.13 138.5,-3017.72"/>
<polygon fill="black" stroke="black" points="142,-3017.51 138.5,-3007.51 135,-3017.51 142,-3017.51"/>
</g>
<!-- Node0x1fce5d90 -->
<g id="node3" class="node"><title>Node0x1fce5d90</title>
<polygon fill="none" stroke="black" points="72.5,-2790.5 72.5,-2826.5 204.5,-2826.5 204.5,-2790.5 72.5,-2790.5"/>
<text text-anchor="start" x="80.5" y="-2804.8" font-family="Times,serif" font-size="14.00">if (a3 &gt;= 1025):</text>
</g>
<!-- Node0x194cdee0&#45;&gt;Node0x1fce5d90 -->
<g id="edge2" class="edge"><title>Node0x194cdee0&#45;&gt;Node0x1fce5d90</title>
<path fill="none" stroke="black" d="M138.5,-2864.18C138.5,-2854.44 138.5,-2844.96 138.5,-2836.71"/>
<polygon fill="black" stroke="black" points="142,-2836.64 138.5,-2826.64 135,-2836.64 142,-2836.64"/>
</g>
<!-- Node0x18b3be20 -->
<g id="node4" class="node"><title>Node0x18b3be20</title>
<polygon fill="none" stroke="black" points="33,-2598.5 33,-2681.5 134,-2681.5 134,-2598.5 33,-2598.5"/>
<text text-anchor="start" x="41" y="-2666.3" font-family="Times,serif" font-size="14.00">0x804bd58:</text>
<text text-anchor="start" x="41" y="-2651.3" font-family="Times,serif" font-size="14.00"> g3 = v4</text>
<text text-anchor="start" x="41" y="-2636.3" font-family="Times,serif" font-size="14.00"> g7 = v3</text>
<text text-anchor="start" x="41" y="-2621.3" font-family="Times,serif" font-size="14.00"> g5 = v5</text>
<text text-anchor="start" x="41" y="-2606.3" font-family="Times,serif" font-size="14.00"> return &#45;54</text>
</g>
<!-- Node0x1fce5d90&#45;&gt;Node0x18b3be20 -->
<g id="edge3" class="edge"><title>Node0x1fce5d90&#45;&gt;Node0x18b3be20</title>
<path fill="none" stroke="black" d="M98.123,-2790.34C91.0612,-2785.47 84.6554,-2779.42 80.5,-2772 67.0007,-2747.91 66.9777,-2717.21 70.6861,-2691.59"/>
<polygon fill="black" stroke="black" points="74.1458,-2692.12 72.3374,-2681.68 67.2411,-2690.97 74.1458,-2692.12"/>
<text text-anchor="middle" x="124" y="-2760.8" font-family="Times,serif" font-size="14.00">a3 &gt;= 1025</text>
</g>
<!-- Node0x194ce1e0 -->
<g id="node5" class="node"><title>Node0x194ce1e0</title>
<polygon fill="none" stroke="black" points="143,-2700.5 143,-2738.5 244,-2738.5 244,-2700.5 143,-2700.5"/>
<text text-anchor="start" x="151" y="-2723.3" font-family="Times,serif" font-size="14.00">0x804bd68:</text>
<text text-anchor="start" x="151" y="-2708.3" font-family="Times,serif" font-size="14.00"> result</text>
</g>
<!-- Node0x1fce5d90&#45;&gt;Node0x194ce1e0 -->
<g id="edge4" class="edge"><title>Node0x1fce5d90&#45;&gt;Node0x194ce1e0</title>
<path fill="none" stroke="black" d="M156.583,-2790.45C161.833,-2784.9 167.281,-2778.49 171.5,-2772 176.246,-2764.7 180.364,-2756.2 183.713,-2748.24"/>
<polygon fill="black" stroke="black" points="186.98,-2749.49 187.407,-2738.91 180.472,-2746.92 186.98,-2749.49"/>
<text text-anchor="middle" x="218" y="-2760.8" font-family="Times,serif" font-size="14.00">a3 &lt; 1025</text>
</g>
<!-- Node0x194cde80 -->
<g id="node6" class="node"><title>Node0x194cde80</title>
<polygon fill="none" stroke="black" points="132.5,-228 132.5,-264 186.5,-264 186.5,-228 132.5,-228"/>
<text text-anchor="start" x="140.5" y="-242.3" font-family="Times,serif" font-size="14.00">exit:</text>
</g>
<!-- Node0x18b3be20&#45;&gt;Node0x194cde80 -->
<g id="edge5" class="edge"><title>Node0x18b3be20&#45;&gt;Node0x194cde80</title>
<path fill="none" stroke="black" d="M83.5,-2598.45C83.5,-2574.59 83.5,-2543.83 83.5,-2516.5 83.5,-2516.5 83.5,-2516.5 83.5,-432.5 83.5,-371.799 118.777,-307.705 141.263,-273.017"/>
<polygon fill="black" stroke="black" points="144.338,-274.714 146.95,-264.446 138.505,-270.843 144.338,-274.714"/>
</g>
<!-- Node0x194ce240 -->
<g id="node7" class="node"><title>Node0x194ce240</title>
<polygon fill="none" stroke="black" points="132,-2541.5 132,-2579.5 255,-2579.5 255,-2541.5 132,-2541.5"/>
<text text-anchor="start" x="140" y="-2564.3" font-family="Times,serif" font-size="14.00">if (a5 &lt;= 256):</text>
<text text-anchor="start" x="140" y="-2549.3" font-family="Times,serif" font-size="14.00"> else:</text>
</g>
<!-- Node0x194ce1e0&#45;&gt;Node0x194ce240 -->
<g id="edge6" class="edge"><title>Node0x194ce1e0&#45;&gt;Node0x194ce240</title>
<path fill="none" stroke="black" d="M193.5,-2700.49C193.5,-2673.43 193.5,-2622.02 193.5,-2589.88"/>
<polygon fill="black" stroke="black" points="197,-2589.78 193.5,-2579.78 190,-2589.78 197,-2589.78"/>
</g>
<!-- Node0x194ce020 -->
<g id="node8" class="node"><title>Node0x194ce020</title>
<polygon fill="none" stroke="black" points="222.5,-2286.5 222.5,-2489.5 772.5,-2489.5 772.5,-2286.5 222.5,-2286.5"/>
<text text-anchor="start" x="230.5" y="-2474.3" font-family="Times,serif" font-size="14.00">0x804bd72:</text>
<text text-anchor="start" x="230.5" y="-2459.3" font-family="Times,serif" font-size="14.00"> v6</text>
<text text-anchor="start" x="230.5" y="-2444.3" font-family="Times,serif" font-size="14.00"> v7 = &amp;(v6)</text>
<text text-anchor="start" x="230.5" y="-2429.3" font-family="Times,serif" font-size="14.00"> g5 = v7</text>
<text text-anchor="start" x="230.5" y="-2414.3" font-family="Times,serif" font-size="14.00"> v8</text>
<text text-anchor="start" x="230.5" y="-2399.3" font-family="Times,serif" font-size="14.00"> memset(BitCastExpr&lt;ptr&gt;(&amp;(v6)), PtrToIntCastExpr&lt;int32&gt;(&amp;(v8)), 12)</text>
<text text-anchor="start" x="230.5" y="-2384.3" font-family="Times,serif" font-size="14.00"> v9 = g3</text>
<text text-anchor="start" x="230.5" y="-2369.3" font-family="Times,serif" font-size="14.00"> v10</text>
<text text-anchor="start" x="230.5" y="-2354.3" font-family="Times,serif" font-size="14.00"> v11</text>
<text text-anchor="start" x="230.5" y="-2339.3" font-family="Times,serif" font-size="14.00"> v12</text>
<text text-anchor="start" x="230.5" y="-2324.3" font-family="Times,serif" font-size="14.00"> v13</text>
<text text-anchor="start" x="230.5" y="-2309.3" font-family="Times,serif" font-size="14.00"> v14</text>
<text text-anchor="start" x="230.5" y="-2294.3" font-family="Times,serif" font-size="14.00"> v15</text>
</g>
<!-- Node0x194ce240&#45;&gt;Node0x194ce020 -->
<g id="edge7" class="edge"><title>Node0x194ce240&#45;&gt;Node0x194ce020</title>
<path fill="none" stroke="black" d="M225.746,-2541.41C247.046,-2529.47 276.892,-2512.73 309.05,-2494.69"/>
<polygon fill="black" stroke="black" points="311.167,-2497.52 318.177,-2489.57 307.743,-2491.41 311.167,-2497.52"/>
<text text-anchor="middle" x="322.5" y="-2511.8" font-family="Times,serif" font-size="14.00">a5 &lt;= 256</text>
</g>
<!-- Node0x18b3c750 -->
<g id="node9" class="node"><title>Node0x18b3c750</title>
<polygon fill="none" stroke="black" points="119.5,-2231.5 119.5,-2267.5 221.5,-2267.5 221.5,-2231.5 119.5,-2231.5"/>
<text text-anchor="start" x="127.5" y="-2245.8" font-family="Times,serif" font-size="14.00">result = &#45;56</text>
</g>
<!-- Node0x194ce240&#45;&gt;Node0x18b3c750 -->
<g id="edge8" class="edge"><title>Node0x194ce240&#45;&gt;Node0x18b3c750</title>
<path fill="none" stroke="black" d="M191.364,-2541.32C190.716,-2535.47 190.035,-2528.97 189.5,-2523 181.471,-2433.42 174.911,-2327.01 172.049,-2277.87"/>
<polygon fill="black" stroke="black" points="175.535,-2277.52 171.464,-2267.74 168.546,-2277.92 175.535,-2277.52"/>
<text text-anchor="middle" x="222.5" y="-2511.8" font-family="Times,serif" font-size="14.00">a5 &gt; 256</text>
</g>
<!-- Node0x194ce080 -->
<g id="node10" class="node"><title>Node0x194ce080</title>
<polygon fill="none" stroke="black" points="214.5,-2176.5 214.5,-2212.5 830.5,-2212.5 830.5,-2176.5 214.5,-2176.5"/>
<text text-anchor="start" x="222.5" y="-2190.8" font-family="Times,serif" font-size="14.00">if (*(IntToPtrCastExpr&lt;ptr&gt;((v9 + 16))) &lt;= *(IntToPtrCastExpr&lt;ptr&gt;((v9 + 28)))):</text>
</g>
<!-- Node0x194ce020&#45;&gt;Node0x194ce080 -->
<g id="edge9" class="edge"><title>Node0x194ce020&#45;&gt;Node0x194ce080</title>
<path fill="none" stroke="black" d="M510.622,-2286.48C513.678,-2263.08 516.684,-2240.05 518.908,-2223.02"/>
<polygon fill="black" stroke="black" points="522.425,-2223.12 520.249,-2212.75 515.483,-2222.21 522.425,-2223.12"/>
</g>
<!-- Node0x194ce3a0 -->
<g id="node11" class="node"><title>Node0x194ce3a0</title>
<polygon fill="none" stroke="black" points="103,-2074.5 103,-2157.5 216,-2157.5 216,-2074.5 103,-2074.5"/>
<text text-anchor="start" x="111" y="-2142.3" font-family="Times,serif" font-size="14.00">0x804bd58:</text>
<text text-anchor="start" x="111" y="-2127.3" font-family="Times,serif" font-size="14.00"> g3 = v4</text>
<text text-anchor="start" x="111" y="-2112.3" font-family="Times,serif" font-size="14.00"> g7 = v3</text>
<text text-anchor="start" x="111" y="-2097.3" font-family="Times,serif" font-size="14.00"> g5 = v5</text>
<text text-anchor="start" x="111" y="-2082.3" font-family="Times,serif" font-size="14.00"> return result</text>
</g>
<!-- Node0x18b3c750&#45;&gt;Node0x194ce3a0 -->
<g id="edge10" class="edge"><title>Node0x18b3c750&#45;&gt;Node0x194ce3a0</title>
<path fill="none" stroke="black" d="M169.062,-2231.31C167.714,-2215.19 165.629,-2190.27 163.75,-2167.81"/>
<polygon fill="black" stroke="black" points="167.226,-2167.38 162.905,-2157.7 160.251,-2167.96 167.226,-2167.38"/>
</g>
<!-- Node0x18b3c7b0 -->
<g id="node12" class="node"><title>Node0x18b3c7b0</title>
<polygon fill="none" stroke="black" points="342,-2017.5 342,-2055.5 703,-2055.5 703,-2017.5 342,-2017.5"/>
<text text-anchor="start" x="350" y="-2040.3" font-family="Times,serif" font-size="14.00">0x804bd90:</text>
<text text-anchor="start" x="350" y="-2025.3" font-family="Times,serif" font-size="14.00"> if (*(IntToPtrCastExpr&lt;ptr&gt;((v9 + 20))) == 0):</text>
</g>
<!-- Node0x194ce080&#45;&gt;Node0x18b3c7b0 -->
<g id="edge11" class="edge"><title>Node0x194ce080&#45;&gt;Node0x18b3c7b0</title>
<path fill="none" stroke="black" d="M522.5,-2176.21C522.5,-2149.55 522.5,-2098.14 522.5,-2065.95"/>
<polygon fill="black" stroke="black" points="526,-2065.83 522.5,-2055.83 519,-2065.83 526,-2065.83"/>
<text text-anchor="middle" x="808" y="-2112.3" font-family="Times,serif" font-size="14.00">*(IntToPtrCastExpr&lt;ptr&gt;((v9 + 16))) &lt;= *(IntToPtrCastExpr&lt;ptr&gt;((v9 + 28)))</text>
</g>
<!-- Node0x18b3c5a0 -->
<g id="node13" class="node"><title>Node0x18b3c5a0</title>
<polygon fill="none" stroke="black" points="360.5,-1929.5 360.5,-1965.5 688.5,-1965.5 688.5,-1929.5 360.5,-1929.5"/>
<text text-anchor="start" x="368.5" y="-1943.8" font-family="Times,serif" font-size="14.00">v25 = mbedtls_ctr_drbg_reseed(v9, a4, g6)</text>
</g>
<!-- Node0x194ce080&#45;&gt;Node0x18b3c5a0 -->
<g id="edge12" class="edge"><title>Node0x194ce080&#45;&gt;Node0x18b3c5a0</title>
<path fill="none" stroke="black" d="M830.568,-2183.2C961.32,-2177.27 1086.32,-2168.83 1096.5,-2158 1149.47,-2101.65 1149.46,-2040.35 1096.5,-1984 1082.85,-1969.48 862.1,-1959.22 698.912,-1953.59"/>
<polygon fill="black" stroke="black" points="698.853,-1950.08 688.74,-1953.24 698.614,-1957.08 698.853,-1950.08"/>
<text text-anchor="middle" x="1414" y="-2032.8" font-family="Times,serif" font-size="14.00">*(IntToPtrCastExpr&lt;ptr&gt;((v9 + 16))) &gt; *(IntToPtrCastExpr&lt;ptr&gt;((v9 + 28)))</text>
</g>
<!-- Node0x194ce3a0&#45;&gt;Node0x194cde80 -->
<g id="edge13" class="edge"><title>Node0x194ce3a0&#45;&gt;Node0x194cde80</title>
<path fill="none" stroke="black" d="M140.166,-2074.3C130.779,-2050.91 121.5,-2020.67 121.5,-1992.5 121.5,-1992.5 121.5,-1992.5 121.5,-432.5 121.5,-375.053 139.207,-309.598 150.446,-273.836"/>
<polygon fill="black" stroke="black" points="153.832,-274.741 153.562,-264.15 147.168,-272.597 153.832,-274.741"/>
</g>
<!-- Node0x18b3c7b0&#45;&gt;Node0x18b3c5a0 -->
<g id="edge15" class="edge"><title>Node0x18b3c7b0&#45;&gt;Node0x18b3c5a0</title>
<path fill="none" stroke="black" d="M474.812,-2017.36C459.99,-2008.78 449.408,-1997.45 457.5,-1984 460.271,-1979.4 463.863,-1975.36 467.943,-1971.82"/>
<polygon fill="black" stroke="black" points="470.354,-1974.39 476.302,-1965.62 466.185,-1968.77 470.354,-1974.39"/>
<text text-anchor="middle" x="610" y="-1987.8" font-family="Times,serif" font-size="14.00">*(IntToPtrCastExpr&lt;ptr&gt;((v9 + 20))) != 0</text>
</g>
<!-- Node0x18b3bee0 -->
<g id="node14" class="node"><title>Node0x18b3bee0</title>
<polygon fill="none" stroke="black" points="1045.5,-1872.5 1045.5,-1910.5 1127.5,-1910.5 1127.5,-1872.5 1045.5,-1872.5"/>
<text text-anchor="start" x="1053.5" y="-1895.3" font-family="Times,serif" font-size="14.00">v16 = g6</text>
<text text-anchor="start" x="1053.5" y="-1880.3" font-family="Times,serif" font-size="14.00"> v17</text>
</g>
<!-- Node0x18b3c7b0&#45;&gt;Node0x18b3bee0 -->
<g id="edge14" class="edge"><title>Node0x18b3c7b0&#45;&gt;Node0x18b3bee0</title>
<path fill="none" stroke="black" d="M667.298,-2017.46C698.868,-2012.43 731.959,-2006.29 762.5,-1999 861.041,-1975.48 972.589,-1935.83 1035.74,-1912.11"/>
<polygon fill="black" stroke="black" points="1037.33,-1915.25 1045.45,-1908.45 1034.86,-1908.7 1037.33,-1915.25"/>
<text text-anchor="middle" x="969" y="-1987.8" font-family="Times,serif" font-size="14.00">*(IntToPtrCastExpr&lt;ptr&gt;((v9 + 20))) == 0</text>
</g>
<!-- Node0x18b3c600 -->
<g id="node15" class="node"><title>Node0x18b3c600</title>
<polygon fill="none" stroke="black" points="467.5,-1815.5 467.5,-1853.5 581.5,-1853.5 581.5,-1815.5 467.5,-1815.5"/>
<text text-anchor="start" x="475.5" y="-1838.3" font-family="Times,serif" font-size="14.00">if (v25 == 0):</text>
<text text-anchor="start" x="475.5" y="-1823.3" font-family="Times,serif" font-size="14.00"> else:</text>
</g>
<!-- Node0x18b3c5a0&#45;&gt;Node0x18b3c600 -->
<g id="edge16" class="edge"><title>Node0x18b3c5a0&#45;&gt;Node0x18b3c600</title>
<path fill="none" stroke="black" d="M524.5,-1929.16C524.5,-1911.71 524.5,-1884.51 524.5,-1863.91"/>
<polygon fill="black" stroke="black" points="528,-1863.83 524.5,-1853.83 521,-1863.83 528,-1863.83"/>
</g>
<!-- Node0x18b3bf40 -->
<g id="node16" class="node"><title>Node0x18b3bf40</title>
<polygon fill="none" stroke="black" points="1334.5,-1099.5 1334.5,-1135.5 1442.5,-1135.5 1442.5,-1099.5 1334.5,-1099.5"/>
<text text-anchor="start" x="1342.5" y="-1113.8" font-family="Times,serif" font-size="14.00">if (v16 != 0):</text>
</g>
<!-- Node0x18b3bee0&#45;&gt;Node0x18b3bf40 -->
<g id="edge17" class="edge"><title>Node0x18b3bee0&#45;&gt;Node0x18b3bf40</title>
<path fill="none" stroke="black" d="M1127.54,-1883.44C1200.57,-1869.71 1345.5,-1836.65 1345.5,-1790.5 1345.5,-1790.5 1345.5,-1790.5 1345.5,-1204.5 1345.5,-1182.53 1356.87,-1160.42 1367.91,-1144.12"/>
<polygon fill="black" stroke="black" points="1370.97,-1145.86 1373.94,-1135.7 1365.27,-1141.79 1370.97,-1145.86"/>
</g>
<!-- Node0x18b3cbe0 -->
<g id="node17" class="node"><title>Node0x18b3cbe0</title>
<polygon fill="none" stroke="black" points="543.5,-1725.5 543.5,-1763.5 647.5,-1763.5 647.5,-1725.5 543.5,-1725.5"/>
<text text-anchor="start" x="551.5" y="-1748.3" font-family="Times,serif" font-size="14.00">0x804bdb6:</text>
<text text-anchor="start" x="551.5" y="-1733.3" font-family="Times,serif" font-size="14.00"> if (g7 != 0):</text>
</g>
<!-- Node0x18b3c600&#45;&gt;Node0x18b3cbe0 -->
<g id="edge18" class="edge"><title>Node0x18b3c600&#45;&gt;Node0x18b3cbe0</title>
<path fill="none" stroke="black" d="M539.211,-1815.27C549.397,-1802.64 563.109,-1785.65 574.449,-1771.59"/>
<polygon fill="black" stroke="black" points="577.252,-1773.69 580.808,-1763.71 571.804,-1769.3 577.252,-1773.69"/>
<text text-anchor="middle" x="599" y="-1785.8" font-family="Times,serif" font-size="14.00">v25 == 0</text>
</g>
<!-- Node0x18b3be80 -->
<g id="node18" class="node"><title>Node0x18b3be80</title>
<polygon fill="none" stroke="black" points="207.5,-1670.5 207.5,-1706.5 313.5,-1706.5 313.5,-1670.5 207.5,-1670.5"/>
<text text-anchor="start" x="215.5" y="-1684.8" font-family="Times,serif" font-size="14.00">result = v25</text>
</g>
<!-- Node0x18b3c600&#45;&gt;Node0x18b3be80 -->
<g id="edge19" class="edge"><title>Node0x18b3c600&#45;&gt;Node0x18b3be80</title>
<path fill="none" stroke="black" d="M491.332,-1815.41C442.863,-1788.97 352.798,-1739.84 300.652,-1711.4"/>
<polygon fill="black" stroke="black" points="302.142,-1708.23 291.687,-1706.51 298.79,-1714.37 302.142,-1708.23"/>
<text text-anchor="middle" x="485" y="-1785.8" font-family="Times,serif" font-size="14.00">v25 != 0</text>
</g>
<!-- Node0x18b3dbd0 -->
<g id="node19" class="node"><title>Node0x18b3dbd0</title>
<polygon fill="none" stroke="black" points="1476,-882.5 1476,-1025.5 1943,-1025.5 1943,-882.5 1476,-882.5"/>
<text text-anchor="start" x="1484" y="-1010.3" font-family="Times,serif" font-size="14.00">0x804bd9f:</text>
<text text-anchor="start" x="1484" y="-995.3" font-family="Times,serif" font-size="14.00"> g4 = v16</text>
<text text-anchor="start" x="1484" y="-980.3" font-family="Times,serif" font-size="14.00"> g6 = PtrToIntCastExpr&lt;int32&gt;(a4)</text>
<text text-anchor="start" x="1484" y="-965.3" font-family="Times,serif" font-size="14.00"> g1 = v7</text>
<text text-anchor="start" x="1484" y="-950.3" font-family="Times,serif" font-size="14.00"> v18</text>
<text text-anchor="start" x="1484" y="-935.3" font-family="Times,serif" font-size="14.00"> block_cipher_df(PtrToIntCastExpr&lt;int32&gt;(v2), v17, v18)</text>
<text text-anchor="start" x="1484" y="-920.3" font-family="Times,serif" font-size="14.00"> g6 = v7</text>
<text text-anchor="start" x="1484" y="-905.3" font-family="Times,serif" font-size="14.00"> g1 = g3</text>
<text text-anchor="start" x="1484" y="-890.3" font-family="Times,serif" font-size="14.00"> ctr_drbg_update_internal(PtrToIntCastExpr&lt;int32&gt;(v2), v17)</text>
</g>
<!-- Node0x18b3bf40&#45;&gt;Node0x18b3dbd0 -->
<g id="edge20" class="edge"><title>Node0x18b3bf40&#45;&gt;Node0x18b3dbd0</title>
<path fill="none" stroke="black" d="M1422.55,-1099.37C1455.73,-1082.67 1508.55,-1056.1 1559.88,-1030.27"/>
<polygon fill="black" stroke="black" points="1561.75,-1033.25 1569.11,-1025.63 1558.6,-1027 1561.75,-1033.25"/>
<text text-anchor="middle" x="1561" y="-1058.8" font-family="Times,serif" font-size="14.00">v16 != 0</text>
</g>
<!-- Node0x18b3d6e0 -->
<g id="node20" class="node"><title>Node0x18b3d6e0</title>
<polygon fill="none" stroke="black" points="1391.5,-777.5 1391.5,-813.5 1665.5,-813.5 1665.5,-777.5 1391.5,-777.5"/>
<text text-anchor="start" x="1399.5" y="-791.8" font-family="Times,serif" font-size="14.00">v19 = IntToPtrCastExpr&lt;ptr&gt;(v17)</text>
</g>
<!-- Node0x18b3bf40&#45;&gt;Node0x18b3d6e0 -->
<g id="edge21" class="edge"><title>Node0x18b3bf40&#45;&gt;Node0x18b3d6e0</title>
<path fill="none" stroke="black" d="M1384.29,-1099.46C1375.23,-1058.73 1357.8,-953.78 1398.5,-882 1415.02,-852.866 1446.03,-831.897 1473.62,-818.018"/>
<polygon fill="black" stroke="black" points="1475.33,-821.078 1482.82,-813.581 1472.29,-814.772 1475.33,-821.078"/>
<text text-anchor="middle" x="1433" y="-950.3" font-family="Times,serif" font-size="14.00">v16 == 0</text>
</g>
<!-- Node0x7d46000 -->
<g id="node21" class="node"><title>Node0x7d46000</title>
<polygon fill="none" stroke="black" points="893,-1598.5 893,-1651.5 994,-1651.5 994,-1598.5 893,-1598.5"/>
<text text-anchor="start" x="901" y="-1636.3" font-family="Times,serif" font-size="14.00">0x804bdba:</text>
<text text-anchor="start" x="901" y="-1621.3" font-family="Times,serif" font-size="14.00"> v14 = g3</text>
<text text-anchor="start" x="901" y="-1606.3" font-family="Times,serif" font-size="14.00"> v13 = a2</text>
</g>
<!-- Node0x18b3cbe0&#45;&gt;Node0x7d46000 -->
<g id="edge22" class="edge"><title>Node0x18b3cbe0&#45;&gt;Node0x7d46000</title>
<path fill="none" stroke="black" d="M647.599,-1725.91C710.671,-1704.61 816.687,-1668.82 883.224,-1646.35"/>
<polygon fill="black" stroke="black" points="884.39,-1649.65 892.745,-1643.14 882.151,-1643.02 884.39,-1649.65"/>
<text text-anchor="middle" x="838" y="-1684.8" font-family="Times,serif" font-size="14.00">g7 != 0</text>
</g>
<!-- Node0x18b3cd30 -->
<g id="node22" class="node"><title>Node0x18b3cd30</title>
<polygon fill="none" stroke="black" points="175,-1466.5 175,-1579.5 1016,-1579.5 1016,-1466.5 175,-1466.5"/>
<text text-anchor="start" x="183" y="-1564.3" font-family="Times,serif" font-size="14.00">0x804be30:</text>
<text text-anchor="start" x="183" y="-1549.3" font-family="Times,serif" font-size="14.00"> g6 = v7</text>
<text text-anchor="start" x="183" y="-1534.3" font-family="Times,serif" font-size="14.00"> g1 = g3</text>
<text text-anchor="start" x="183" y="-1519.3" font-family="Times,serif" font-size="14.00"> ctr_drbg_update_internal(PtrToIntCastExpr&lt;int32&gt;(IntToPtrCastExpr&lt;ptr&gt;(v9)), PtrToIntCastExpr&lt;int32&gt;(a4))</text>
<text text-anchor="start" x="183" y="-1504.3" font-family="Times,serif" font-size="14.00"> v11 = IntToPtrCastExpr&lt;ptr&gt;((g3 + 16))</text>
<text text-anchor="start" x="183" y="-1489.3" font-family="Times,serif" font-size="14.00"> *(v11) = (*(v11) + 1)</text>
<text text-anchor="start" x="183" y="-1474.3" font-family="Times,serif" font-size="14.00"> result = 0</text>
</g>
<!-- Node0x18b3cbe0&#45;&gt;Node0x18b3cd30 -->
<g id="edge23" class="edge"><title>Node0x18b3cbe0&#45;&gt;Node0x18b3cd30</title>
<path fill="none" stroke="black" d="M595.5,-1725.16C595.5,-1695.69 595.5,-1636.37 595.5,-1589.75"/>
<polygon fill="black" stroke="black" points="599,-1589.71 595.5,-1579.71 592,-1589.71 599,-1589.71"/>
<text text-anchor="middle" x="626" y="-1684.8" font-family="Times,serif" font-size="14.00">g7 == 0</text>
</g>
<!-- Node0x18b3be80&#45;&gt;Node0x194cde80 -->
<g id="edge24" class="edge"><title>Node0x18b3be80&#45;&gt;Node0x194cde80</title>
<path fill="none" stroke="black" d="M240.546,-1670.09C211.111,-1642.37 159.5,-1585.06 159.5,-1524 159.5,-1524 159.5,-1524 159.5,-432.5 159.5,-376.318 159.5,-310.564 159.5,-274.374"/>
<polygon fill="black" stroke="black" points="163,-274.135 159.5,-264.135 156,-274.135 163,-274.135"/>
</g>
<!-- Node0x18b3dbd0&#45;&gt;Node0x18b3d6e0 -->
<g id="edge25" class="edge"><title>Node0x18b3dbd0&#45;&gt;Node0x18b3d6e0</title>
<path fill="none" stroke="black" d="M1627.74,-882.305C1602,-860.049 1575.31,-836.971 1556.1,-820.361"/>
<polygon fill="black" stroke="black" points="1558.2,-817.553 1548.35,-813.66 1553.62,-822.848 1558.2,-817.553"/>
</g>
<!-- Node0xceaafb0 -->
<g id="node23" class="node"><title>Node0xceaafb0</title>
<polygon fill="none" stroke="black" points="998.5,-671.5 998.5,-707.5 1098.5,-707.5 1098.5,-671.5 998.5,-671.5"/>
<text text-anchor="start" x="1006.5" y="-685.8" font-family="Times,serif" font-size="14.00">if (g7 != 0):</text>
</g>
<!-- Node0x18b3d6e0&#45;&gt;Node0xceaafb0 -->
<g id="edge26" class="edge"><title>Node0x18b3d6e0&#45;&gt;Node0xceaafb0</title>
<path fill="none" stroke="black" d="M1449.78,-777.443C1354.09,-756.712 1194.76,-722.189 1108.46,-703.491"/>
<polygon fill="black" stroke="black" points="1109.08,-700.044 1098.56,-701.347 1107.59,-706.885 1109.08,-700.044"/>
</g>
<!-- Node0x18b3db70 -->
<g id="node24" class="node"><title>Node0x18b3db70</title>
<polygon fill="none" stroke="black" points="979,-1411.5 979,-1447.5 1076,-1447.5 1076,-1411.5 979,-1411.5"/>
<text text-anchor="start" x="987" y="-1425.8" font-family="Times,serif" font-size="14.00">while True:</text>
</g>
<!-- Node0x7d46000&#45;&gt;Node0x18b3db70 -->
<g id="edge27" class="edge"><title>Node0x7d46000&#45;&gt;Node0x18b3db70</title>
<path fill="none" stroke="black" d="M994.129,-1602.95C1003.32,-1596.87 1011.79,-1589.3 1017.5,-1580 1040.49,-1542.56 1037.49,-1489.44 1032.8,-1457.64"/>
<polygon fill="black" stroke="black" points="1036.24,-1457.02 1031.17,-1447.72 1029.34,-1458.15 1036.24,-1457.02"/>
</g>
<!-- Node0x18b3cd30&#45;&gt;Node0x194cde80 -->
<g id="edge28" class="edge"><title>Node0x18b3cd30&#45;&gt;Node0x194cde80</title>
<path fill="none" stroke="black" d="M310.752,-1466.48C246.828,-1445.92 197.5,-1419.39 197.5,-1386.5 197.5,-1386.5 197.5,-1386.5 197.5,-432.5 197.5,-375.053 179.793,-309.598 168.554,-273.836"/>
<polygon fill="black" stroke="black" points="171.832,-272.597 165.438,-264.15 165.168,-274.741 171.832,-272.597"/>
</g>
<!-- Node0x194cd820 -->
<g id="node25" class="node"><title>Node0x194cd820</title>
<polygon fill="none" stroke="black" points="998,-550.5 998,-618.5 1099,-618.5 1099,-550.5 998,-550.5"/>
<text text-anchor="start" x="1006" y="-603.3" font-family="Times,serif" font-size="14.00">0x804bdba:</text>
<text text-anchor="start" x="1006" y="-588.3" font-family="Times,serif" font-size="14.00"> v14 = g3</text>
<text text-anchor="start" x="1006" y="-573.3" font-family="Times,serif" font-size="14.00"> v20 = v14</text>
<text text-anchor="start" x="1006" y="-558.3" font-family="Times,serif" font-size="14.00"> v13 = a2</text>
</g>
<!-- Node0xceaafb0&#45;&gt;Node0x194cd820 -->
<g id="edge29" class="edge"><title>Node0xceaafb0&#45;&gt;Node0x194cd820</title>
<path fill="none" stroke="black" d="M1048.5,-671.492C1048.5,-659.885 1048.5,-643.954 1048.5,-628.955"/>
<polygon fill="black" stroke="black" points="1052,-628.786 1048.5,-618.786 1045,-628.786 1052,-628.786"/>
<text text-anchor="middle" x="1076" y="-640.8" font-family="Times,serif" font-size="14.00">g7 != 0</text>
</g>
<!-- Node0x18b3d830 -->
<g id="node26" class="node"><title>Node0x18b3d830</title>
<polygon fill="none" stroke="black" points="275.5,-354.5 275.5,-512.5 941.5,-512.5 941.5,-354.5 275.5,-354.5"/>
<text text-anchor="start" x="283.5" y="-497.3" font-family="Times,serif" font-size="14.00">0x804be30:</text>
<text text-anchor="start" x="283.5" y="-482.3" font-family="Times,serif" font-size="14.00"> g6 = v7</text>
<text text-anchor="start" x="283.5" y="-467.3" font-family="Times,serif" font-size="14.00"> g1 = g3</text>
<text text-anchor="start" x="283.5" y="-452.3" font-family="Times,serif" font-size="14.00"> ctr_drbg_update_internal(PtrToIntCastExpr&lt;int32&gt;(v2), PtrToIntCastExpr&lt;int32&gt;(v19))</text>
<text text-anchor="start" x="283.5" y="-437.3" font-family="Times,serif" font-size="14.00"> v11 = IntToPtrCastExpr&lt;ptr&gt;((g3 + 16))</text>
<text text-anchor="start" x="283.5" y="-422.3" font-family="Times,serif" font-size="14.00"> *(v11) = (*(v11) + 1)</text>
<text text-anchor="start" x="283.5" y="-407.3" font-family="Times,serif" font-size="14.00"> g3 = v4</text>
<text text-anchor="start" x="283.5" y="-392.3" font-family="Times,serif" font-size="14.00"> g7 = v3</text>
<text text-anchor="start" x="283.5" y="-377.3" font-family="Times,serif" font-size="14.00"> g5 = v5</text>
<text text-anchor="start" x="283.5" y="-362.3" font-family="Times,serif" font-size="14.00"> return 0</text>
</g>
<!-- Node0xceaafb0&#45;&gt;Node0x18b3d830 -->
<g id="edge30" class="edge"><title>Node0xceaafb0&#45;&gt;Node0x18b3d830</title>
<path fill="none" stroke="black" d="M1014.69,-671.482C989.945,-658.429 956.036,-639.261 928.5,-619 892.018,-592.156 891.083,-575.28 853.5,-550 836.49,-538.558 818.168,-527.663 799.474,-517.461"/>
<polygon fill="black" stroke="black" points="801.033,-514.325 790.569,-512.667 797.715,-520.489 801.033,-514.325"/>
<text text-anchor="middle" x="959" y="-580.8" font-family="Times,serif" font-size="14.00">g7 == 0</text>
</g>
<!-- Node0x194cd8e0 -->
<g id="node27" class="node"><title>Node0x194cd8e0</title>
<polygon fill="none" stroke="black" points="692.5,-1261.5 692.5,-1359.5 1270.5,-1359.5 1270.5,-1261.5 692.5,-1261.5"/>
<text text-anchor="start" x="700.5" y="-1344.3" font-family="Times,serif" font-size="14.00">0x804bdc8:</text>
<text text-anchor="start" x="700.5" y="-1329.3" font-family="Times,serif" font-size="14.00"> v10 = IntToPtrCastExpr&lt;ptr&gt;((v14 + 15))</text>
<text text-anchor="start" x="700.5" y="-1314.3" font-family="Times,serif" font-size="14.00"> *(v10) = TruncCastExpr&lt;int8&gt;((ExtCastExpr&lt;int32&gt;(*(v10)) + 1))</text>
<text text-anchor="start" x="700.5" y="-1299.3" font-family="Times,serif" font-size="14.00"> g5 = 16</text>
<text text-anchor="start" x="700.5" y="-1284.3" font-family="Times,serif" font-size="14.00"> mbedtls_aes_crypt_ecb((v14 + 32), 1, g3, PtrToIntCastExpr&lt;int32&gt;(&amp;(v12)))</text>
<text text-anchor="start" x="700.5" y="-1269.3" font-family="Times,serif" font-size="14.00"> v15 = g7</text>
</g>
<!-- Node0x18b3db70&#45;&gt;Node0x194cd8e0 -->
<g id="edge31" class="edge"><title>Node0x18b3db70&#45;&gt;Node0x194cd8e0</title>
<path fill="none" stroke="black" d="M1020.81,-1411.49C1016.37,-1400.2 1010.27,-1384.68 1004.19,-1369.22"/>
<polygon fill="black" stroke="black" points="1007.35,-1367.67 1000.43,-1359.65 1000.83,-1370.23 1007.35,-1367.67"/>
<text text-anchor="middle" x="1029.5" y="-1381.8" font-family="Times,serif" font-size="14.00">True</text>
</g>
<!-- Node0x194cd880 -->
<g id="node28" class="node"><title>Node0x194cd880</title>
<polygon fill="none" stroke="black" points="998,-415.5 998,-451.5 1095,-451.5 1095,-415.5 998,-415.5"/>
<text text-anchor="start" x="1006" y="-429.8" font-family="Times,serif" font-size="14.00">while True:</text>
</g>
<!-- Node0x194cd820&#45;&gt;Node0x194cd880 -->
<g id="edge32" class="edge"><title>Node0x194cd820&#45;&gt;Node0x194cd880</title>
<path fill="none" stroke="black" d="M1048.06,-550.432C1047.7,-523.845 1047.2,-486.934 1046.87,-461.96"/>
<polygon fill="black" stroke="black" points="1050.37,-461.681 1046.73,-451.729 1043.37,-461.775 1050.37,-461.681"/>
</g>
<!-- Node0x18b3d830&#45;&gt;Node0x194cde80 -->
<g id="edge33" class="edge"><title>Node0x18b3d830&#45;&gt;Node0x194cde80</title>
<path fill="none" stroke="black" d="M419.385,-354.369C335.752,-319.817 245.398,-282.488 196.334,-262.218"/>
<polygon fill="black" stroke="black" points="197.376,-258.861 186.797,-258.277 194.703,-265.331 197.376,-258.861"/>
</g>
<!-- Node0x18b3de10 -->
<g id="node29" class="node"><title>Node0x18b3de10</title>
<polygon fill="none" stroke="black" points="917,-1187.5 917,-1223.5 1028,-1223.5 1028,-1187.5 917,-1187.5"/>
<text text-anchor="start" x="925" y="-1201.8" font-family="Times,serif" font-size="14.00">if (v15 &lt; 17):</text>
</g>
<!-- Node0x194cd8e0&#45;&gt;Node0x18b3de10 -->
<g id="edge34" class="edge"><title>Node0x194cd8e0&#45;&gt;Node0x18b3de10</title>
<path fill="none" stroke="black" d="M977.29,-1261.32C976.466,-1251.89 975.63,-1242.32 974.891,-1233.87"/>
<polygon fill="black" stroke="black" points="978.374,-1233.51 974.017,-1223.86 971.4,-1234.12 978.374,-1233.51"/>
</g>
<!-- Node0x18b3dfd0 -->
<g id="node30" class="node"><title>Node0x18b3dfd0</title>
<polygon fill="none" stroke="black" points="757.5,-189.5 757.5,-302.5 1335.5,-302.5 1335.5,-189.5 757.5,-189.5"/>
<text text-anchor="start" x="765.5" y="-287.3" font-family="Times,serif" font-size="14.00">0x804bdc8:</text>
<text text-anchor="start" x="765.5" y="-272.3" font-family="Times,serif" font-size="14.00"> v10 = IntToPtrCastExpr&lt;ptr&gt;((v20 + 15))</text>
<text text-anchor="start" x="765.5" y="-257.3" font-family="Times,serif" font-size="14.00"> *(v10) = TruncCastExpr&lt;int8&gt;((ExtCastExpr&lt;int32&gt;(*(v10)) + 1))</text>
<text text-anchor="start" x="765.5" y="-242.3" font-family="Times,serif" font-size="14.00"> g5 = 16</text>
<text text-anchor="start" x="765.5" y="-227.3" font-family="Times,serif" font-size="14.00"> mbedtls_aes_crypt_ecb((v14 + 32), 1, g3, PtrToIntCastExpr&lt;int32&gt;(&amp;(v12)))</text>
<text text-anchor="start" x="765.5" y="-212.3" font-family="Times,serif" font-size="14.00"> v15 = g7</text>
<text text-anchor="start" x="765.5" y="-197.3" font-family="Times,serif" font-size="14.00"> v21</text>
</g>
<!-- Node0x194cd880&#45;&gt;Node0x18b3dfd0 -->
<g id="edge35" class="edge"><title>Node0x194cd880&#45;&gt;Node0x18b3dfd0</title>
<path fill="none" stroke="black" d="M1046.5,-415.381C1046.5,-392.18 1046.5,-349.441 1046.5,-312.83"/>
<polygon fill="black" stroke="black" points="1050,-312.688 1046.5,-302.688 1043,-312.688 1050,-312.688"/>
<text text-anchor="middle" x="1063.5" y="-324.8" font-family="Times,serif" font-size="14.00">True</text>
</g>
<!-- Node0x18b3e4a0 -->
<g id="node31" class="node"><title>Node0x18b3e4a0</title>
<polygon fill="none" stroke="black" points="879.5,-1099.5 879.5,-1135.5 1065.5,-1135.5 1065.5,-1099.5 879.5,-1099.5"/>
<text text-anchor="start" x="887.5" y="-1113.8" font-family="Times,serif" font-size="14.00">goto if_804be15_0_true</text>
</g>
<!-- Node0x18b3de10&#45;&gt;Node0x18b3e4a0 -->
<g id="edge36" class="edge"><title>Node0x18b3de10&#45;&gt;Node0x18b3e4a0</title>
<path fill="none" stroke="black" d="M972.5,-1187.1C972.5,-1175.25 972.5,-1159.32 972.5,-1145.79"/>
<polygon fill="black" stroke="black" points="976,-1145.58 972.5,-1135.58 969,-1145.58 976,-1145.58"/>
<text text-anchor="middle" x="1005.5" y="-1157.8" font-family="Times,serif" font-size="14.00">v15 &lt; 17</text>
</g>
<!-- Node0x18b3df70 -->
<g id="node32" class="node"><title>Node0x18b3df70</title>
<polygon fill="none" stroke="black" points="356.5,-1044.5 356.5,-1080.5 488.5,-1080.5 488.5,-1044.5 356.5,-1044.5"/>
<text text-anchor="start" x="364.5" y="-1058.8" font-family="Times,serif" font-size="14.00">goto 0x804bdc8</text>
</g>
<!-- Node0x18b3de10&#45;&gt;Node0x18b3df70 -->
<g id="edge37" class="edge"><title>Node0x18b3de10&#45;&gt;Node0x18b3df70</title>
<path fill="none" stroke="black" d="M916.991,-1190.27C817.97,-1164.88 610.755,-1111.76 498.566,-1083"/>
<polygon fill="black" stroke="black" points="499.229,-1079.56 488.673,-1080.46 497.491,-1086.34 499.229,-1079.56"/>
<text text-anchor="middle" x="871.5" y="-1157.8" font-family="Times,serif" font-size="14.00">v15 &gt;= 17</text>
</g>
<!-- Node0x18b3e0c0 -->
<g id="node33" class="node"><title>Node0x18b3e0c0</title>
<polygon fill="none" stroke="black" points="991,-113.5 991,-151.5 1102,-151.5 1102,-113.5 991,-113.5"/>
<text text-anchor="start" x="999" y="-136.3" font-family="Times,serif" font-size="14.00">if (v15 &lt; 17):</text>
<text text-anchor="start" x="999" y="-121.3" font-family="Times,serif" font-size="14.00"> else:</text>
</g>
<!-- Node0x18b3dfd0&#45;&gt;Node0x18b3e0c0 -->
<g id="edge38" class="edge"><title>Node0x18b3dfd0&#45;&gt;Node0x18b3e0c0</title>
<path fill="none" stroke="black" d="M1046.5,-189.25C1046.5,-179.862 1046.5,-170.474 1046.5,-162.151"/>
<polygon fill="black" stroke="black" points="1050,-161.912 1046.5,-151.912 1043,-161.912 1050,-161.912"/>
</g>
<!-- Node0x18b3d2b0 -->
<g id="node34" class="node"><title>Node0x18b3d2b0</title>
<polygon fill="none" stroke="black" points="895,-927.5 895,-980.5 1050,-980.5 1050,-927.5 895,-927.5"/>
<text text-anchor="start" x="903" y="-965.3" font-family="Times,serif" font-size="14.00">if_804be15_0_true:</text>
<text text-anchor="start" x="903" y="-950.3" font-family="Times,serif" font-size="14.00"> g5 = v15</text>
<text text-anchor="start" x="903" y="-935.3" font-family="Times,serif" font-size="14.00"> v21 = v15</text>
</g>
<!-- Node0x18b3e4a0&#45;&gt;Node0x18b3d2b0 -->
<g id="edge39" class="edge"><title>Node0x18b3e4a0&#45;&gt;Node0x18b3d2b0</title>
<path fill="none" stroke="black" d="M972.5,-1099.22C972.5,-1073.52 972.5,-1024.65 972.5,-990.975"/>
<polygon fill="black" stroke="black" points="976,-990.624 972.5,-980.624 969,-990.624 976,-990.624"/>
</g>
<!-- Node0x18b3d250 -->
<g id="node35" class="node"><title>Node0x18b3d250</title>
<polygon fill="none" stroke="black" points="679,-23.5 679,-61.5 780,-61.5 780,-23.5 679,-23.5"/>
<text text-anchor="start" x="687" y="-46.3" font-family="Times,serif" font-size="14.00">0x804bdc8:</text>
<text text-anchor="start" x="687" y="-31.3" font-family="Times,serif" font-size="14.00"> v21 = g5</text>
</g>
<!-- Node0x18b3df70&#45;&gt;Node0x18b3d250 -->
<g id="edge40" class="edge"><title>Node0x18b3df70&#45;&gt;Node0x18b3d250</title>
<path fill="none" stroke="black" d="M390.402,-1044.39C339.881,-1014.86 247.5,-949.21 247.5,-864 247.5,-864 247.5,-864 247.5,-131.5 247.5,-89.1578 539.071,-59.4473 668.665,-48.3331"/>
<polygon fill="black" stroke="black" points="669.16,-51.8038 678.829,-47.4712 668.569,-44.8289 669.16,-51.8038"/>
</g>
<!-- Node0x18b3e0c0&#45;&gt;Node0x18b3d2b0 -->
<g id="edge41" class="edge"><title>Node0x18b3e0c0&#45;&gt;Node0x18b3d2b0</title>
<path fill="none" stroke="black" d="M1102.14,-137.224C1178.13,-143.396 1309,-158.245 1344.5,-189 1364.36,-206.21 1363.5,-218.718 1363.5,-245 1363.5,-796.5 1363.5,-796.5 1363.5,-796.5 1363.5,-861.419 1175.37,-911.576 1060.1,-936.214"/>
<polygon fill="black" stroke="black" points="1059.28,-932.812 1050.22,-938.303 1060.72,-939.66 1059.28,-932.812"/>
<text text-anchor="middle" x="1396.5" y="-580.8" font-family="Times,serif" font-size="14.00">v15 &lt; 17</text>
</g>
<!-- Node0x18b3e0c0&#45;&gt;Node0x18b3d250 -->
<g id="edge42" class="edge"><title>Node0x18b3e0c0&#45;&gt;Node0x18b3d250</title>
<path fill="none" stroke="black" d="M990.92,-116.071C934.604,-100.437 847.749,-76.3262 789.797,-60.2387"/>
<polygon fill="black" stroke="black" points="790.613,-56.8329 780.041,-57.5304 788.741,-63.5778 790.613,-56.8329"/>
<text text-anchor="middle" x="945.5" y="-83.8" font-family="Times,serif" font-size="14.00">v15 &gt;= 17</text>
</g>
<!-- Node0x18b3e2e0 -->
<g id="node36" class="node"><title>Node0x18b3e2e0</title>
<polygon fill="none" stroke="black" points="791,-746.5 791,-844.5 1148,-844.5 1148,-746.5 791,-746.5"/>
<text text-anchor="start" x="799" y="-829.3" font-family="Times,serif" font-size="14.00">v22 = IntToPtrCastExpr&lt;ptr&gt;(v13)</text>
<text text-anchor="start" x="799" y="-814.3" font-family="Times,serif" font-size="14.00"> v2 = v22</text>
<text text-anchor="start" x="799" y="-799.3" font-family="Times,serif" font-size="14.00"> memcpy(v22, BitCastExpr&lt;ptr&gt;(&amp;(v12)), v21)</text>
<text text-anchor="start" x="799" y="-784.3" font-family="Times,serif" font-size="14.00"> v23 = g7</text>
<text text-anchor="start" x="799" y="-769.3" font-family="Times,serif" font-size="14.00"> v24 = g5</text>
<text text-anchor="start" x="799" y="-754.3" font-family="Times,serif" font-size="14.00"> g7 = (v23 &#45; v24)</text>
</g>
<!-- Node0x18b3d2b0&#45;&gt;Node0x18b3e2e0 -->
<g id="edge43" class="edge"><title>Node0x18b3d2b0&#45;&gt;Node0x18b3e2e0</title>
<path fill="none" stroke="black" d="M972.005,-927.157C971.627,-907.471 971.093,-879.594 970.615,-854.643"/>
<polygon fill="black" stroke="black" points="974.112,-854.456 970.421,-844.525 967.113,-854.591 974.112,-854.456"/>
</g>
<!-- Node0x18b3d250&#45;&gt;Node0x18b3e2e0 -->
<g id="edge44" class="edge"><title>Node0x18b3d250&#45;&gt;Node0x18b3e2e0</title>
<path fill="none" stroke="black" d="M724.459,-61.5097C712.711,-107.731 688.819,-231.898 748.5,-303 808.03,-373.923 889.778,-284.095 950.5,-354 1002.38,-413.731 969.5,-451.881 969.5,-531 969.5,-690.5 969.5,-690.5 969.5,-690.5 969.5,-705.317 969.5,-721.321 969.5,-736.229"/>
<polygon fill="black" stroke="black" points="966,-736.347 969.5,-746.347 973,-736.347 966,-736.347"/>
</g>
<!-- Node0x18b3e3d0 -->
<g id="node37" class="node"><title>Node0x18b3e3d0</title>
<polygon fill="none" stroke="black" points="706,-670.5 706,-708.5 831,-708.5 831,-670.5 706,-670.5"/>
<text text-anchor="start" x="714" y="-693.3" font-family="Times,serif" font-size="14.00">if (v23 != v24):</text>
<text text-anchor="start" x="714" y="-678.3" font-family="Times,serif" font-size="14.00"> else:</text>
</g>
<!-- Node0x18b3e2e0&#45;&gt;Node0x18b3e3d0 -->
<g id="edge45" class="edge"><title>Node0x18b3e2e0&#45;&gt;Node0x18b3e3d0</title>
<path fill="none" stroke="black" d="M876.649,-746.458C854.196,-734.84 831.231,-722.958 812.271,-713.148"/>
<polygon fill="black" stroke="black" points="813.795,-709.996 803.305,-708.509 810.578,-716.213 813.795,-709.996"/>
</g>
<!-- Node0x18b3d370 -->
<g id="node38" class="node"><title>Node0x18b3d370</title>
<polygon fill="none" stroke="black" points="692.5,-550.5 692.5,-618.5 844.5,-618.5 844.5,-550.5 692.5,-550.5"/>
<text text-anchor="start" x="700.5" y="-603.3" font-family="Times,serif" font-size="14.00">0x804be28:</text>
<text text-anchor="start" x="700.5" y="-588.3" font-family="Times,serif" font-size="14.00"> v20 = g3</text>
<text text-anchor="start" x="700.5" y="-573.3" font-family="Times,serif" font-size="14.00"> v13 = (v24 + v13)</text>
<text text-anchor="start" x="700.5" y="-558.3" font-family="Times,serif" font-size="14.00"> continue</text>
</g>
<!-- Node0x18b3e3d0&#45;&gt;Node0x18b3d370 -->
<g id="edge46" class="edge"><title>Node0x18b3e3d0&#45;&gt;Node0x18b3d370</title>
<path fill="none" stroke="black" d="M768.5,-670.086C768.5,-658.631 768.5,-643.39 768.5,-629.003"/>
<polygon fill="black" stroke="black" points="772,-628.743 768.5,-618.743 765,-628.743 772,-628.743"/>
<text text-anchor="middle" x="808.5" y="-640.8" font-family="Times,serif" font-size="14.00">v23 != v24</text>
</g>
<!-- Node0x18b3d3d0 -->
<g id="node39" class="node"><title>Node0x18b3d3d0</title>
<polygon fill="none" stroke="black" points="416.5,-566.5 416.5,-602.5 674.5,-602.5 674.5,-566.5 416.5,-566.5"/>
<text text-anchor="start" x="424.5" y="-580.8" font-family="Times,serif" font-size="14.00">v19 = BitCastExpr&lt;ptr&gt;(&amp;(v12))</text>
</g>
<!-- Node0x18b3e3d0&#45;&gt;Node0x18b3d3d0 -->
<g id="edge47" class="edge"><title>Node0x18b3e3d0&#45;&gt;Node0x18b3d3d0</title>
<path fill="none" stroke="black" d="M721.957,-670.432C707.896,-664.758 692.482,-658.319 678.5,-652 647.491,-637.986 613.155,-620.773 587.138,-607.371"/>
<polygon fill="black" stroke="black" points="588.441,-604.105 577.951,-602.619 585.225,-610.322 588.441,-604.105"/>
<text text-anchor="middle" x="721.5" y="-640.8" font-family="Times,serif" font-size="14.00">v23 == v24</text>
</g>
<!-- Node0x18b3d370&#45;&gt;Node0x194cd880 -->
<g id="edge48" class="edge"><title>Node0x18b3d370&#45;&gt;Node0x194cd880</title>
<path fill="none" stroke="black" d="M844.611,-554.64C892.194,-536.493 945.413,-515.964 950.5,-513 976.707,-497.733 1003.14,-475.497 1021.62,-458.585"/>
<polygon fill="black" stroke="black" points="1024.08,-461.071 1029.02,-451.699 1019.32,-455.945 1024.08,-461.071"/>
</g>
<!-- Node0x18b3d3d0&#45;&gt;Node0x18b3d830 -->
<g id="edge49" class="edge"><title>Node0x18b3d3d0&#45;&gt;Node0x18b3d830</title>
<path fill="none" stroke="black" d="M552.727,-566.408C557.554,-554.992 564.31,-539.013 571.459,-522.104"/>
<polygon fill="black" stroke="black" points="574.791,-523.211 575.462,-512.638 568.344,-520.485 574.791,-523.211"/>
</g>
</g>
</svg>
