<?xml version="1.0" encoding="UTF-8" standalone="no"?>
<!DOCTYPE svg PUBLIC "-//W3C//DTD SVG 1.1//EN"
 "http://www.w3.org/Graphics/SVG/1.1/DTD/svg11.dtd">
<!-- Generated by graphviz version 2.38.0 (20140413.2041)
 -->
<!-- Title: Control&#45;flow graph for function &#39;sha1_clone_wrap(a1)&#39;. Pages: 1 -->
<svg width="620pt" height="263pt"
 viewBox="0.00 0.00 620.00 263.00" xmlns="http://www.w3.org/2000/svg" xmlns:xlink="http://www.w3.org/1999/xlink">
<g id="graph0" class="graph" transform="scale(1 1) rotate(0) translate(4 259)">
<title>Control&#45;flow graph for function &#39;sha1_clone_wrap(a1)&#39;.</title>
<polygon fill="white" stroke="none" points="-4,4 -4,-259 616,-259 616,4 -4,4"/>
<text text-anchor="middle" x="306" y="-7.8" font-family="Times,serif" font-size="14.00">Control&#45;flow graph for function &#39;sha1_clone_wrap(a1)&#39;.</text>
<!-- Node0x15ae8400 -->
<g id="node1" class="node"><title>Node0x15ae8400</title>
<polygon fill="none" stroke="black" points="276.5,-216.5 276.5,-254.5 335.5,-254.5 335.5,-216.5 276.5,-216.5"/>
<text text-anchor="start" x="284.5" y="-239.3" font-family="Times,serif" font-size="14.00">entry:</text>
<text text-anchor="start" x="284.5" y="-224.3" font-family="Times,serif" font-size="14.00"> a1</text>
</g>
<!-- Node0x15ae8ae0 -->
<g id="node2" class="node"><title>Node0x15ae8ae0</title>
<polygon fill="none" stroke="black" points="0,-96.5 0,-179.5 612,-179.5 612,-96.5 0,-96.5"/>
<text text-anchor="start" x="8" y="-164.3" font-family="Times,serif" font-size="14.00">0x8062cf0:</text>
<text text-anchor="start" x="8" y="-149.3" font-family="Times,serif" font-size="14.00"> v1</text>
<text text-anchor="start" x="8" y="-134.3" font-family="Times,serif" font-size="14.00"> result</text>
<text text-anchor="start" x="8" y="-119.3" font-family="Times,serif" font-size="14.00"> mbedtls_sha1_clone(IntToPtrCastExpr&lt;ptr&gt;(result), IntToPtrCastExpr&lt;ptr&gt;(v1))</text>
<text text-anchor="start" x="8" y="-104.3" font-family="Times,serif" font-size="14.00"> return result</text>
</g>
<!-- Node0x15ae8400&#45;&gt;Node0x15ae8ae0 -->
<g id="edge1" class="edge"><title>Node0x15ae8400&#45;&gt;Node0x15ae8ae0</title>
<path fill="none" stroke="black" d="M306,-216.087C306,-208.444 306,-199.165 306,-189.73"/>
<polygon fill="black" stroke="black" points="309.5,-189.501 306,-179.501 302.5,-189.501 309.5,-189.501"/>
</g>
<!-- Node0x15ae8a60 -->
<g id="node3" class="node"><title>Node0x15ae8a60</title>
<polygon fill="none" stroke="black" points="279,-23.5 279,-59.5 333,-59.5 333,-23.5 279,-23.5"/>
<text text-anchor="start" x="287" y="-37.8" font-family="Times,serif" font-size="14.00">exit:</text>
</g>
<!-- Node0x15ae8ae0&#45;&gt;Node0x15ae8a60 -->
<g id="edge2" class="edge"><title>Node0x15ae8ae0&#45;&gt;Node0x15ae8a60</title>
<path fill="none" stroke="black" d="M306,-96.3751C306,-87.4706 306,-78.246 306,-70"/>
<polygon fill="black" stroke="black" points="309.5,-69.8327 306,-59.8328 302.5,-69.8328 309.5,-69.8327"/>
</g>
</g>
</svg>
