<?xml version="1.0" encoding="UTF-8" standalone="no"?>
<!DOCTYPE svg PUBLIC "-//W3C//DTD SVG 1.1//EN"
 "http://www.w3.org/Graphics/SVG/1.1/DTD/svg11.dtd">
<!-- Generated by graphviz version 2.38.0 (20140413.2041)
 -->
<!-- Title: Control&#45;flow graph for function &#39;mbedtls_pem_init(*a1)&#39;. Pages: 1 -->
<svg width="427pt" height="263pt"
 viewBox="0.00 0.00 427.00 263.00" xmlns="http://www.w3.org/2000/svg" xmlns:xlink="http://www.w3.org/1999/xlink">
<g id="graph0" class="graph" transform="scale(1 1) rotate(0) translate(4 259)">
<title>Control&#45;flow graph for function &#39;mbedtls_pem_init(*a1)&#39;.</title>
<polygon fill="white" stroke="none" points="-4,4 -4,-259 423,-259 423,4 -4,4"/>
<text text-anchor="middle" x="209.5" y="-7.8" font-family="Times,serif" font-size="14.00">Control&#45;flow graph for function &#39;mbedtls_pem_init(*a1)&#39;.</text>
<!-- Node0x14435640 -->
<g id="node1" class="node"><title>Node0x14435640</title>
<polygon fill="none" stroke="black" points="180,-216.5 180,-254.5 239,-254.5 239,-216.5 180,-216.5"/>
<text text-anchor="start" x="188" y="-239.3" font-family="Times,serif" font-size="14.00">entry:</text>
<text text-anchor="start" x="188" y="-224.3" font-family="Times,serif" font-size="14.00"> a1</text>
</g>
<!-- Node0x14436480 -->
<g id="node2" class="node"><title>Node0x14436480</title>
<polygon fill="none" stroke="black" points="42,-96.5 42,-179.5 377,-179.5 377,-96.5 42,-96.5"/>
<text text-anchor="start" x="50" y="-164.3" font-family="Times,serif" font-size="14.00">result = PtrToIntCastExpr&lt;int32&gt;(a1)</text>
<text text-anchor="start" x="50" y="-149.3" font-family="Times,serif" font-size="14.00"> *(a1) = 0</text>
<text text-anchor="start" x="50" y="-134.3" font-family="Times,serif" font-size="14.00"> *(IntToPtrCastExpr&lt;ptr&gt;((result + 4))) = 0</text>
<text text-anchor="start" x="50" y="-119.3" font-family="Times,serif" font-size="14.00"> *(IntToPtrCastExpr&lt;ptr&gt;((result + 8))) = 0</text>
<text text-anchor="start" x="50" y="-104.3" font-family="Times,serif" font-size="14.00"> return result</text>
</g>
<!-- Node0x14435640&#45;&gt;Node0x14436480 -->
<g id="edge1" class="edge"><title>Node0x14435640&#45;&gt;Node0x14436480</title>
<path fill="none" stroke="black" d="M209.5,-216.087C209.5,-208.444 209.5,-199.165 209.5,-189.73"/>
<polygon fill="black" stroke="black" points="213,-189.501 209.5,-179.501 206,-189.501 213,-189.501"/>
</g>
<!-- Node0x14435a20 -->
<g id="node3" class="node"><title>Node0x14435a20</title>
<polygon fill="none" stroke="black" points="182.5,-23.5 182.5,-59.5 236.5,-59.5 236.5,-23.5 182.5,-23.5"/>
<text text-anchor="start" x="190.5" y="-37.8" font-family="Times,serif" font-size="14.00">exit:</text>
</g>
<!-- Node0x14436480&#45;&gt;Node0x14435a20 -->
<g id="edge2" class="edge"><title>Node0x14436480&#45;&gt;Node0x14435a20</title>
<path fill="none" stroke="black" d="M209.5,-96.3751C209.5,-87.4706 209.5,-78.246 209.5,-70"/>
<polygon fill="black" stroke="black" points="213,-69.8327 209.5,-59.8328 206,-69.8328 213,-69.8327"/>
</g>
</g>
</svg>
