<?xml version="1.0" encoding="UTF-8" standalone="no"?>
<!DOCTYPE svg PUBLIC "-//W3C//DTD SVG 1.1//EN"
 "http://www.w3.org/Graphics/SVG/1.1/DTD/svg11.dtd">
<!-- Generated by graphviz version 2.38.0 (20140413.2041)
 -->
<!-- Title: Control&#45;flow graph for function &#39;mbedtls_des_key_set_parity(a1)&#39;. Pages: 1 -->
<svg width="893pt" height="549pt"
 viewBox="0.00 0.00 892.50 549.00" xmlns="http://www.w3.org/2000/svg" xmlns:xlink="http://www.w3.org/1999/xlink">
<g id="graph0" class="graph" transform="scale(1 1) rotate(0) translate(4 545)">
<title>Control&#45;flow graph for function &#39;mbedtls_des_key_set_parity(a1)&#39;.</title>
<polygon fill="white" stroke="none" points="-4,4 -4,-545 888.5,-545 888.5,4 -4,4"/>
<text text-anchor="middle" x="442.25" y="-7.8" font-family="Times,serif" font-size="14.00">Control&#45;flow graph for function &#39;mbedtls_des_key_set_parity(a1)&#39;.</text>
<!-- Node0x20ba3870 -->
<g id="node1" class="node"><title>Node0x20ba3870</title>
<polygon fill="none" stroke="black" points="422.5,-502.5 422.5,-540.5 481.5,-540.5 481.5,-502.5 422.5,-502.5"/>
<text text-anchor="start" x="430.5" y="-525.3" font-family="Times,serif" font-size="14.00">entry:</text>
<text text-anchor="start" x="430.5" y="-510.3" font-family="Times,serif" font-size="14.00"> a1</text>
</g>
<!-- Node0x20ba3d70 -->
<g id="node2" class="node"><title>Node0x20ba3d70</title>
<polygon fill="none" stroke="black" points="69,-336.5 69,-464.5 835,-464.5 835,-336.5 69,-336.5"/>
<text text-anchor="start" x="77" y="-449.3" font-family="Times,serif" font-size="14.00">0x806ab10:</text>
<text text-anchor="start" x="77" y="-434.3" font-family="Times,serif" font-size="14.00"> g1 = 0</text>
<text text-anchor="start" x="77" y="-419.3" font-family="Times,serif" font-size="14.00"> v1 = IntToPtrCastExpr&lt;ptr&gt;(a1)</text>
<text text-anchor="start" x="77" y="-404.3" font-family="Times,serif" font-size="14.00"> v2 = *(v1)</text>
<text text-anchor="start" x="77" y="-389.3" font-family="Times,serif" font-size="14.00"> v3 = *(IntToPtrCastExpr&lt;ptr&gt;((ExtCastExpr&lt;int32&gt;((v2 / 2)) + PtrToIntCastExpr&lt;int32&gt;(&amp;(g142)))))</text>
<text text-anchor="start" x="77" y="-374.3" font-family="Times,serif" font-size="14.00"> *(v1) = v3</text>
<text text-anchor="start" x="77" y="-359.3" font-family="Times,serif" font-size="14.00"> v4 = (g1 + 1)</text>
<text text-anchor="start" x="77" y="-344.3" font-family="Times,serif" font-size="14.00"> g1 = v4</text>
</g>
<!-- Node0x20ba3870&#45;&gt;Node0x20ba3d70 -->
<g id="edge1" class="edge"><title>Node0x20ba3870&#45;&gt;Node0x20ba3d70</title>
<path fill="none" stroke="black" d="M452,-502.426C452,-494.592 452,-484.856 452,-474.546"/>
<polygon fill="black" stroke="black" points="455.5,-474.529 452,-464.529 448.5,-474.529 455.5,-474.529"/>
</g>
<!-- Node0x20ba3e60 -->
<g id="node3" class="node"><title>Node0x20ba3e60</title>
<polygon fill="none" stroke="black" points="388,-262.5 388,-298.5 516,-298.5 516,-262.5 388,-262.5"/>
<text text-anchor="start" x="396" y="-276.8" font-family="Times,serif" font-size="14.00">while (v4 != 8):</text>
</g>
<!-- Node0x20ba3d70&#45;&gt;Node0x20ba3e60 -->
<g id="edge2" class="edge"><title>Node0x20ba3d70&#45;&gt;Node0x20ba3e60</title>
<path fill="none" stroke="black" d="M452,-336.355C452,-326.753 452,-317.299 452,-309.016"/>
<polygon fill="black" stroke="black" points="455.5,-308.887 452,-298.888 448.5,-308.888 455.5,-308.887"/>
</g>
<!-- Node0x99cd8c0 -->
<g id="node4" class="node"><title>Node0x99cd8c0</title>
<polygon fill="none" stroke="black" points="-5.68434e-14,-97.5 -5.68434e-14,-210.5 766,-210.5 766,-97.5 -5.68434e-14,-97.5"/>
<text text-anchor="start" x="8" y="-195.3" font-family="Times,serif" font-size="14.00">0x806ab18:</text>
<text text-anchor="start" x="8" y="-180.3" font-family="Times,serif" font-size="14.00"> v1 = IntToPtrCastExpr&lt;ptr&gt;((a1 + v4))</text>
<text text-anchor="start" x="8" y="-165.3" font-family="Times,serif" font-size="14.00"> v2 = *(v1)</text>
<text text-anchor="start" x="8" y="-150.3" font-family="Times,serif" font-size="14.00"> v3 = *(IntToPtrCastExpr&lt;ptr&gt;((ExtCastExpr&lt;int32&gt;((v2 / 2)) + PtrToIntCastExpr&lt;int32&gt;(&amp;(g142)))))</text>
<text text-anchor="start" x="8" y="-135.3" font-family="Times,serif" font-size="14.00"> *(v1) = v3</text>
<text text-anchor="start" x="8" y="-120.3" font-family="Times,serif" font-size="14.00"> v4 = (g1 + 1)</text>
<text text-anchor="start" x="8" y="-105.3" font-family="Times,serif" font-size="14.00"> g1 = v4</text>
</g>
<!-- Node0x20ba3e60&#45;&gt;Node0x99cd8c0 -->
<g id="edge3" class="edge"><title>Node0x20ba3e60&#45;&gt;Node0x99cd8c0</title>
<path fill="none" stroke="black" d="M403.167,-262.457C395.549,-257.661 388.667,-251.605 384,-244 379.69,-236.978 377.133,-229.02 375.784,-220.82"/>
<polygon fill="black" stroke="black" points="379.25,-220.315 374.702,-210.746 372.29,-221.063 379.25,-220.315"/>
<text text-anchor="middle" x="411" y="-232.8" font-family="Times,serif" font-size="14.00">v4 != 8</text>
</g>
<!-- Node0x99cd760 -->
<g id="node5" class="node"><title>Node0x99cd760</title>
<polygon fill="none" stroke="black" points="783.5,-135 783.5,-173 884.5,-173 884.5,-135 783.5,-135"/>
<text text-anchor="start" x="791.5" y="-157.8" font-family="Times,serif" font-size="14.00">0x806ab33:</text>
<text text-anchor="start" x="791.5" y="-142.8" font-family="Times,serif" font-size="14.00"> return 8</text>
</g>
<!-- Node0x20ba3e60&#45;&gt;Node0x99cd760 -->
<g id="edge4" class="edge"><title>Node0x20ba3e60&#45;&gt;Node0x99cd760</title>
<path fill="none" stroke="black" d="M516.169,-276.167C583.966,-270.369 692.301,-254.491 775,-211 789.182,-203.542 802.382,-191.694 812.685,-180.814"/>
<polygon fill="black" stroke="black" points="815.522,-182.896 819.648,-173.138 810.337,-178.193 815.522,-182.896"/>
<text text-anchor="middle" x="764" y="-232.8" font-family="Times,serif" font-size="14.00">v4 == 8</text>
</g>
<!-- Node0x99cd8c0&#45;&gt;Node0x20ba3e60 -->
<g id="edge5" class="edge"><title>Node0x99cd8c0&#45;&gt;Node0x20ba3e60</title>
<path fill="none" stroke="black" d="M427.587,-210.596C431.417,-216.623 434.976,-222.817 438,-229 441.557,-236.274 444.333,-244.594 446.441,-252.354"/>
<polygon fill="black" stroke="black" points="443.05,-253.221 448.837,-262.096 449.847,-251.55 443.05,-253.221"/>
</g>
<!-- Node0x20ba3cf0 -->
<g id="node6" class="node"><title>Node0x20ba3cf0</title>
<polygon fill="none" stroke="black" points="807,-23.5 807,-59.5 861,-59.5 861,-23.5 807,-23.5"/>
<text text-anchor="start" x="815" y="-37.8" font-family="Times,serif" font-size="14.00">exit:</text>
</g>
<!-- Node0x99cd760&#45;&gt;Node0x20ba3cf0 -->
<g id="edge6" class="edge"><title>Node0x99cd760&#45;&gt;Node0x20ba3cf0</title>
<path fill="none" stroke="black" d="M834,-134.753C834,-117.087 834,-90.0783 834,-69.8428"/>
<polygon fill="black" stroke="black" points="837.5,-69.6822 834,-59.6822 830.5,-69.6823 837.5,-69.6822"/>
</g>
</g>
</svg>
