<?xml version="1.0" encoding="UTF-8" standalone="no"?>
<!DOCTYPE svg PUBLIC "-//W3C//DTD SVG 1.1//EN"
 "http://www.w3.org/Graphics/SVG/1.1/DTD/svg11.dtd">
<!-- Generated by graphviz version 2.38.0 (20140413.2041)
 -->
<!-- Title: Control&#45;flow graph for function &#39;des_ctx_free(a1, a2, a3)&#39;. Pages: 1 -->
<svg width="435pt" height="338pt"
 viewBox="0.00 0.00 435.00 338.00" xmlns="http://www.w3.org/2000/svg" xmlns:xlink="http://www.w3.org/1999/xlink">
<g id="graph0" class="graph" transform="scale(1 1) rotate(0) translate(4 334)">
<title>Control&#45;flow graph for function &#39;des_ctx_free(a1, a2, a3)&#39;.</title>
<polygon fill="white" stroke="none" points="-4,4 -4,-334 431,-334 431,4 -4,4"/>
<text text-anchor="middle" x="213.5" y="-7.8" font-family="Times,serif" font-size="14.00">Control&#45;flow graph for function &#39;des_ctx_free(a1, a2, a3)&#39;.</text>
<!-- Node0x2630df40 -->
<g id="node1" class="node"><title>Node0x2630df40</title>
<polygon fill="none" stroke="black" points="184,-261.5 184,-329.5 243,-329.5 243,-261.5 184,-261.5"/>
<text text-anchor="start" x="192" y="-314.3" font-family="Times,serif" font-size="14.00">entry:</text>
<text text-anchor="start" x="192" y="-299.3" font-family="Times,serif" font-size="14.00"> a1</text>
<text text-anchor="start" x="192" y="-284.3" font-family="Times,serif" font-size="14.00"> a2</text>
<text text-anchor="start" x="192" y="-269.3" font-family="Times,serif" font-size="14.00"> a3</text>
</g>
<!-- Node0xf9cb740 -->
<g id="node2" class="node"><title>Node0xf9cb740</title>
<polygon fill="none" stroke="black" points="2.5,-96.5 2.5,-224.5 424.5,-224.5 424.5,-96.5 2.5,-96.5"/>
<text text-anchor="start" x="10.5" y="-209.3" font-family="Times,serif" font-size="14.00">0x806a5c0:</text>
<text text-anchor="start" x="10.5" y="-194.3" font-family="Times,serif" font-size="14.00"> v1</text>
<text text-anchor="start" x="10.5" y="-179.3" font-family="Times,serif" font-size="14.00"> v2 = IntToPtrCastExpr&lt;ptr&gt;(v1)</text>
<text text-anchor="start" x="10.5" y="-164.3" font-family="Times,serif" font-size="14.00"> result = mbedtls_des_free(IntToPtrCastExpr&lt;ptr&gt;(a1))</text>
<text text-anchor="start" x="10.5" y="-149.3" font-family="Times,serif" font-size="14.00"> g1 = result</text>
<text text-anchor="start" x="10.5" y="-134.3" font-family="Times,serif" font-size="14.00"> g2 = PtrToIntCastExpr&lt;int32&gt;(v2)</text>
<text text-anchor="start" x="10.5" y="-119.3" font-family="Times,serif" font-size="14.00"> free(v2)</text>
<text text-anchor="start" x="10.5" y="-104.3" font-family="Times,serif" font-size="14.00"> return result</text>
</g>
<!-- Node0x2630df40&#45;&gt;Node0xf9cb740 -->
<g id="edge1" class="edge"><title>Node0x2630df40&#45;&gt;Node0xf9cb740</title>
<path fill="none" stroke="black" d="M213.5,-261.282C213.5,-253.089 213.5,-243.987 213.5,-234.71"/>
<polygon fill="black" stroke="black" points="217,-234.609 213.5,-224.609 210,-234.609 217,-234.609"/>
</g>
<!-- Node0x2630ebd0 -->
<g id="node3" class="node"><title>Node0x2630ebd0</title>
<polygon fill="none" stroke="black" points="186.5,-23.5 186.5,-59.5 240.5,-59.5 240.5,-23.5 186.5,-23.5"/>
<text text-anchor="start" x="194.5" y="-37.8" font-family="Times,serif" font-size="14.00">exit:</text>
</g>
<!-- Node0xf9cb740&#45;&gt;Node0x2630ebd0 -->
<g id="edge2" class="edge"><title>Node0xf9cb740&#45;&gt;Node0x2630ebd0</title>
<path fill="none" stroke="black" d="M213.5,-96.206C213.5,-87.0257 213.5,-78.004 213.5,-70.0532"/>
<polygon fill="black" stroke="black" points="217,-69.9607 213.5,-59.9608 210,-69.9608 217,-69.9607"/>
</g>
</g>
</svg>
