<?xml version="1.0" encoding="UTF-8" standalone="no"?>
<!DOCTYPE svg PUBLIC "-//W3C//DTD SVG 1.1//EN"
 "http://www.w3.org/Graphics/SVG/1.1/DTD/svg11.dtd">
<!-- Generated by graphviz version 2.38.0 (20140413.2041)
 -->
<!-- Title: Control&#45;flow graph for function &#39;ecdsa_free_wrap(a1, a2, a3)&#39;. Pages: 1 -->
<svg width="465pt" height="368pt"
 viewBox="0.00 0.00 465.00 368.00" xmlns="http://www.w3.org/2000/svg" xmlns:xlink="http://www.w3.org/1999/xlink">
<g id="graph0" class="graph" transform="scale(1 1) rotate(0) translate(4 364)">
<title>Control&#45;flow graph for function &#39;ecdsa_free_wrap(a1, a2, a3)&#39;.</title>
<polygon fill="white" stroke="none" points="-4,4 -4,-364 461,-364 461,4 -4,4"/>
<text text-anchor="middle" x="228.5" y="-7.8" font-family="Times,serif" font-size="14.00">Control&#45;flow graph for function &#39;ecdsa_free_wrap(a1, a2, a3)&#39;.</text>
<!-- Node0x776fb00 -->
<g id="node1" class="node"><title>Node0x776fb00</title>
<polygon fill="none" stroke="black" points="199,-291.5 199,-359.5 258,-359.5 258,-291.5 199,-291.5"/>
<text text-anchor="start" x="207" y="-344.3" font-family="Times,serif" font-size="14.00">entry:</text>
<text text-anchor="start" x="207" y="-329.3" font-family="Times,serif" font-size="14.00"> a1</text>
<text text-anchor="start" x="207" y="-314.3" font-family="Times,serif" font-size="14.00"> a2</text>
<text text-anchor="start" x="207" y="-299.3" font-family="Times,serif" font-size="14.00"> a3</text>
</g>
<!-- Node0x1053ca30 -->
<g id="node2" class="node"><title>Node0x1053ca30</title>
<polygon fill="none" stroke="black" points="90,-96.5 90,-254.5 367,-254.5 367,-96.5 90,-96.5"/>
<text text-anchor="start" x="98" y="-239.3" font-family="Times,serif" font-size="14.00">0x804d610:</text>
<text text-anchor="start" x="98" y="-224.3" font-family="Times,serif" font-size="14.00"> v1</text>
<text text-anchor="start" x="98" y="-209.3" font-family="Times,serif" font-size="14.00"> v2 = IntToPtrCastExpr&lt;ptr&gt;(v1)</text>
<text text-anchor="start" x="98" y="-194.3" font-family="Times,serif" font-size="14.00"> result = g3</text>
<text text-anchor="start" x="98" y="-179.3" font-family="Times,serif" font-size="14.00"> g3 = a1</text>
<text text-anchor="start" x="98" y="-164.3" font-family="Times,serif" font-size="14.00"> g1 = mbedtls_ecdsa_free()</text>
<text text-anchor="start" x="98" y="-149.3" font-family="Times,serif" font-size="14.00"> g3 = result</text>
<text text-anchor="start" x="98" y="-134.3" font-family="Times,serif" font-size="14.00"> g2 = PtrToIntCastExpr&lt;int32&gt;(v2)</text>
<text text-anchor="start" x="98" y="-119.3" font-family="Times,serif" font-size="14.00"> free(v2)</text>
<text text-anchor="start" x="98" y="-104.3" font-family="Times,serif" font-size="14.00"> return result</text>
</g>
<!-- Node0x776fb00&#45;&gt;Node0x1053ca30 -->
<g id="edge1" class="edge"><title>Node0x776fb00&#45;&gt;Node0x1053ca30</title>
<path fill="none" stroke="black" d="M228.5,-291.286C228.5,-283.212 228.5,-274.196 228.5,-264.864"/>
<polygon fill="black" stroke="black" points="232,-264.642 228.5,-254.642 225,-264.642 232,-264.642"/>
</g>
<!-- Node0x1053c9b0 -->
<g id="node3" class="node"><title>Node0x1053c9b0</title>
<polygon fill="none" stroke="black" points="201.5,-23.5 201.5,-59.5 255.5,-59.5 255.5,-23.5 201.5,-23.5"/>
<text text-anchor="start" x="209.5" y="-37.8" font-family="Times,serif" font-size="14.00">exit:</text>
</g>
<!-- Node0x1053ca30&#45;&gt;Node0x1053c9b0 -->
<g id="edge2" class="edge"><title>Node0x1053ca30&#45;&gt;Node0x1053c9b0</title>
<path fill="none" stroke="black" d="M228.5,-96.1895C228.5,-86.7241 228.5,-77.609 228.5,-69.6605"/>
<polygon fill="black" stroke="black" points="232,-69.6213 228.5,-59.6214 225,-69.6214 232,-69.6213"/>
</g>
</g>
</svg>
