<?xml version="1.0" encoding="UTF-8" standalone="no"?>
<!DOCTYPE svg PUBLIC "-//W3C//DTD SVG 1.1//EN"
 "http://www.w3.org/Graphics/SVG/1.1/DTD/svg11.dtd">
<!-- Generated by graphviz version 2.38.0 (20140413.2041)
 -->
<!-- Title: Control&#45;flow graph for function &#39;_start_c(*a1)&#39;. Pages: 1 -->
<svg width="1042pt" height="248pt"
 viewBox="0.00 0.00 1042.00 248.00" xmlns="http://www.w3.org/2000/svg" xmlns:xlink="http://www.w3.org/1999/xlink">
<g id="graph0" class="graph" transform="scale(1 1) rotate(0) translate(4 244)">
<title>Control&#45;flow graph for function &#39;_start_c(*a1)&#39;.</title>
<polygon fill="white" stroke="none" points="-4,4 -4,-244 1038,-244 1038,4 -4,4"/>
<text text-anchor="middle" x="517" y="-7.8" font-family="Times,serif" font-size="14.00">Control&#45;flow graph for function &#39;_start_c(*a1)&#39;.</text>
<!-- Node0x17c89070 -->
<g id="node1" class="node"><title>Node0x17c89070</title>
<polygon fill="none" stroke="black" points="487.5,-201.5 487.5,-239.5 546.5,-239.5 546.5,-201.5 487.5,-201.5"/>
<text text-anchor="start" x="495.5" y="-224.3" font-family="Times,serif" font-size="14.00">entry:</text>
<text text-anchor="start" x="495.5" y="-209.3" font-family="Times,serif" font-size="14.00"> a1</text>
</g>
<!-- Node0x6f37f20 -->
<g id="node2" class="node"><title>Node0x6f37f20</title>
<polygon fill="none" stroke="black" points="0,-96.5 0,-164.5 1034,-164.5 1034,-96.5 0,-96.5"/>
<text text-anchor="start" x="8" y="-149.3" font-family="Times,serif" font-size="14.00">v1 = (PtrToIntCastExpr&lt;int32&gt;(a1) + 4)</text>
<text text-anchor="start" x="8" y="-134.3" font-family="Times,serif" font-size="14.00"> g6 = v1</text>
<text text-anchor="start" x="8" y="-119.3" font-family="Times,serif" font-size="14.00"> v2 = *(a1)</text>
<text text-anchor="start" x="8" y="-104.3" font-family="Times,serif" font-size="14.00"> g1 = __libc_start_main(BitCastExpr&lt;ptr&gt;(main), v2, IntToPtrCastExpr&lt;ptr&gt;(v1), BitCastExpr&lt;ptr&gt;(_init), BitCastExpr&lt;ptr&gt;(_fini), NULL)</text>
</g>
<!-- Node0x17c89070&#45;&gt;Node0x6f37f20 -->
<g id="edge1" class="edge"><title>Node0x17c89070&#45;&gt;Node0x6f37f20</title>
<path fill="none" stroke="black" d="M517,-201.266C517,-193.502 517,-184.086 517,-174.717"/>
<polygon fill="black" stroke="black" points="520.5,-174.649 517,-164.65 513.5,-174.65 520.5,-174.649"/>
</g>
<!-- Node0xbba5f00 -->
<g id="node3" class="node"><title>Node0xbba5f00</title>
<polygon fill="none" stroke="black" points="490,-23.5 490,-59.5 544,-59.5 544,-23.5 490,-23.5"/>
<text text-anchor="start" x="498" y="-37.8" font-family="Times,serif" font-size="14.00">exit:</text>
</g>
<!-- Node0x6f37f20&#45;&gt;Node0xbba5f00 -->
<g id="edge2" class="edge"><title>Node0x6f37f20&#45;&gt;Node0xbba5f00</title>
<path fill="none" stroke="black" d="M517,-96.1123C517,-87.3522 517,-78.0128 517,-69.6246"/>
<polygon fill="black" stroke="black" points="520.5,-69.6235 517,-59.6235 513.5,-69.6235 520.5,-69.6235"/>
</g>
</g>
</svg>
