<?xml version="1.0" encoding="UTF-8" standalone="no"?>
<!DOCTYPE svg PUBLIC "-//W3C//DTD SVG 1.1//EN"
 "http://www.w3.org/Graphics/SVG/1.1/DTD/svg11.dtd">
<!-- Generated by graphviz version 2.38.0 (20140413.2041)
 -->
<!-- Title: Control&#45;flow graph for function &#39;mbedtls_ecdsa_init()&#39;. Pages: 1 -->
<svg width="412pt" height="231pt"
 viewBox="0.00 0.00 412.00 231.00" xmlns="http://www.w3.org/2000/svg" xmlns:xlink="http://www.w3.org/1999/xlink">
<g id="graph0" class="graph" transform="scale(1 1) rotate(0) translate(4 227)">
<title>Control&#45;flow graph for function &#39;mbedtls_ecdsa_init()&#39;.</title>
<polygon fill="white" stroke="none" points="-4,4 -4,-227 408,-227 408,4 -4,4"/>
<text text-anchor="middle" x="202" y="-7.8" font-family="Times,serif" font-size="14.00">Control&#45;flow graph for function &#39;mbedtls_ecdsa_init()&#39;.</text>
<!-- Node0x7ff4770 -->
<g id="node1" class="node"><title>Node0x7ff4770</title>
<polygon fill="none" stroke="black" points="172.5,-186.5 172.5,-222.5 231.5,-222.5 231.5,-186.5 172.5,-186.5"/>
<text text-anchor="start" x="180.5" y="-200.8" font-family="Times,serif" font-size="14.00">entry:</text>
</g>
<!-- Node0x7ff46d0 -->
<g id="node2" class="node"><title>Node0x7ff46d0</title>
<polygon fill="none" stroke="black" points="85.5,-96.5 85.5,-149.5 318.5,-149.5 318.5,-96.5 85.5,-96.5"/>
<text text-anchor="start" x="93.5" y="-134.3" font-family="Times,serif" font-size="14.00">0x805b070:</text>
<text text-anchor="start" x="93.5" y="-119.3" font-family="Times,serif" font-size="14.00"> v1</text>
<text text-anchor="start" x="93.5" y="-104.3" font-family="Times,serif" font-size="14.00"> mbedtls_ecp_keypair_init(v1)</text>
</g>
<!-- Node0x7ff4770&#45;&gt;Node0x7ff46d0 -->
<g id="edge1" class="edge"><title>Node0x7ff4770&#45;&gt;Node0x7ff46d0</title>
<path fill="none" stroke="black" d="M202,-186.25C202,-178.486 202,-169.014 202,-159.825"/>
<polygon fill="black" stroke="black" points="205.5,-159.676 202,-149.676 198.5,-159.676 205.5,-159.676"/>
</g>
<!-- Node0x7ff4920 -->
<g id="node3" class="node"><title>Node0x7ff4920</title>
<polygon fill="none" stroke="black" points="175,-23.5 175,-59.5 229,-59.5 229,-23.5 175,-23.5"/>
<text text-anchor="start" x="183" y="-37.8" font-family="Times,serif" font-size="14.00">exit:</text>
</g>
<!-- Node0x7ff46d0&#45;&gt;Node0x7ff4920 -->
<g id="edge2" class="edge"><title>Node0x7ff46d0&#45;&gt;Node0x7ff4920</title>
<path fill="none" stroke="black" d="M202,-96.4081C202,-87.9823 202,-78.5803 202,-70.0174"/>
<polygon fill="black" stroke="black" points="205.5,-69.7564 202,-59.7564 198.5,-69.7565 205.5,-69.7564"/>
</g>
</g>
</svg>
