<?xml version="1.0" encoding="UTF-8" standalone="no"?>
<!DOCTYPE svg PUBLIC "-//W3C//DTD SVG 1.1//EN"
 "http://www.w3.org/Graphics/SVG/1.1/DTD/svg11.dtd">
<!-- Generated by graphviz version 2.38.0 (20140413.2041)
 -->
<!-- Title: Control&#45;flow graph for function &#39;pk_hashlen_helper()&#39;. Pages: 1 -->
<svg width="452pt" height="827pt"
 viewBox="0.00 0.00 451.50 827.00" xmlns="http://www.w3.org/2000/svg" xmlns:xlink="http://www.w3.org/1999/xlink">
<g id="graph0" class="graph" transform="scale(1 1) rotate(0) translate(4 823)">
<title>Control&#45;flow graph for function &#39;pk_hashlen_helper()&#39;.</title>
<polygon fill="white" stroke="none" points="-4,4 -4,-823 447.5,-823 447.5,4 -4,4"/>
<text text-anchor="middle" x="221.75" y="-7.8" font-family="Times,serif" font-size="14.00">Control&#45;flow graph for function &#39;pk_hashlen_helper()&#39;.</text>
<!-- Node0xf247100 -->
<g id="node1" class="node"><title>Node0xf247100</title>
<polygon fill="none" stroke="black" points="100.5,-782.5 100.5,-818.5 159.5,-818.5 159.5,-782.5 100.5,-782.5"/>
<text text-anchor="start" x="108.5" y="-796.8" font-family="Times,serif" font-size="14.00">entry:</text>
</g>
<!-- Node0xf247540 -->
<g id="node2" class="node"><title>Node0xf247540</title>
<polygon fill="none" stroke="black" points="0,-661.5 0,-744.5 260,-744.5 260,-661.5 0,-661.5"/>
<text text-anchor="start" x="8" y="-729.3" font-family="Times,serif" font-size="14.00">v1 = g6</text>
<text text-anchor="start" x="8" y="-714.3" font-family="Times,serif" font-size="14.00"> v2 = IntToPtrCastExpr&lt;ptr&gt;(v1)</text>
<text text-anchor="start" x="8" y="-699.3" font-family="Times,serif" font-size="14.00"> v3 = *(v2)</text>
<text text-anchor="start" x="8" y="-684.3" font-family="Times,serif" font-size="14.00"> g4 = v3</text>
<text text-anchor="start" x="8" y="-669.3" font-family="Times,serif" font-size="14.00"> v4</text>
</g>
<!-- Node0xf247100&#45;&gt;Node0xf247540 -->
<g id="edge1" class="edge"><title>Node0xf247100&#45;&gt;Node0xf247540</title>
<path fill="none" stroke="black" d="M130,-782.427C130,-774.622 130,-764.921 130,-755.032"/>
<polygon fill="black" stroke="black" points="133.5,-754.73 130,-744.73 126.5,-754.73 133.5,-754.73"/>
</g>
<!-- Node0xf2476c0 -->
<g id="node3" class="node"><title>Node0xf2476c0</title>
<polygon fill="none" stroke="black" points="80.5,-587.5 80.5,-623.5 179.5,-623.5 179.5,-587.5 80.5,-587.5"/>
<text text-anchor="start" x="88.5" y="-601.8" font-family="Times,serif" font-size="14.00">if (v3 != 0):</text>
</g>
<!-- Node0xf247540&#45;&gt;Node0xf2476c0 -->
<g id="edge2" class="edge"><title>Node0xf247540&#45;&gt;Node0xf2476c0</title>
<path fill="none" stroke="black" d="M130,-661.499C130,-652.206 130,-642.537 130,-633.946"/>
<polygon fill="black" stroke="black" points="133.5,-633.749 130,-623.749 126.5,-633.749 133.5,-633.749"/>
</g>
<!-- Node0x76f3330 -->
<g id="node4" class="node"><title>Node0x76f3330</title>
<polygon fill="none" stroke="black" points="17.5,-380.5 17.5,-448.5 118.5,-448.5 118.5,-380.5 17.5,-380.5"/>
<text text-anchor="start" x="25.5" y="-433.3" font-family="Times,serif" font-size="14.00">0x804d0dc:</text>
<text text-anchor="start" x="25.5" y="-418.3" font-family="Times,serif" font-size="14.00"> g1 = 0</text>
<text text-anchor="start" x="25.5" y="-403.3" font-family="Times,serif" font-size="14.00"> g2 = v4</text>
<text text-anchor="start" x="25.5" y="-388.3" font-family="Times,serif" font-size="14.00"> return 0</text>
</g>
<!-- Node0xf2476c0&#45;&gt;Node0x76f3330 -->
<g id="edge3" class="edge"><title>Node0xf2476c0&#45;&gt;Node0x76f3330</title>
<path fill="none" stroke="black" d="M116.38,-587.233C106.636,-573.973 94.0447,-554.803 87,-536 77.7441,-511.296 72.9972,-482.102 70.5628,-458.638"/>
<polygon fill="black" stroke="black" points="74.0429,-458.261 69.6269,-448.631 67.0734,-458.913 74.0429,-458.261"/>
<text text-anchor="middle" x="131" y="-557.8" font-family="Times,serif" font-size="14.00">v3 != 0</text>
</g>
<!-- Node0xf2478b0 -->
<g id="node5" class="node"><title>Node0xf2478b0</title>
<polygon fill="none" stroke="black" points="96,-467.5 96,-535.5 382,-535.5 382,-467.5 96,-467.5"/>
<text text-anchor="start" x="104" y="-520.3" font-family="Times,serif" font-size="14.00">v5 = mbedtls_md_info_from_type(g1)</text>
<text text-anchor="start" x="104" y="-505.3" font-family="Times,serif" font-size="14.00"> g4 = v5</text>
<text text-anchor="start" x="104" y="-490.3" font-family="Times,serif" font-size="14.00"> g1 = &#45;1</text>
<text text-anchor="start" x="104" y="-475.3" font-family="Times,serif" font-size="14.00"> result</text>
</g>
<!-- Node0xf2476c0&#45;&gt;Node0xf2478b0 -->
<g id="edge4" class="edge"><title>Node0xf2476c0&#45;&gt;Node0xf2478b0</title>
<path fill="none" stroke="black" d="M148.49,-587.197C161.553,-574.973 179.611,-558.075 196.163,-542.586"/>
<polygon fill="black" stroke="black" points="198.729,-544.978 203.639,-535.59 193.946,-539.867 198.729,-544.978"/>
<text text-anchor="middle" x="212" y="-557.8" font-family="Times,serif" font-size="14.00">v3 == 0</text>
</g>
<!-- Node0xf247060 -->
<g id="node6" class="node"><title>Node0xf247060</title>
<polygon fill="none" stroke="black" points="83,-23.5 83,-59.5 137,-59.5 137,-23.5 83,-23.5"/>
<text text-anchor="start" x="91" y="-37.8" font-family="Times,serif" font-size="14.00">exit:</text>
</g>
<!-- Node0x76f3330&#45;&gt;Node0xf247060 -->
<g id="edge5" class="edge"><title>Node0x76f3330&#45;&gt;Node0xf247060</title>
<path fill="none" stroke="black" d="M68,-380.286C68,-357.317 68,-326.052 68,-298.5 68,-298.5 68,-298.5 68,-123 68,-102.97 78.3468,-82.9925 88.7693,-67.9492"/>
<polygon fill="black" stroke="black" points="91.7317,-69.8286 94.837,-59.6991 86.0926,-65.6812 91.7317,-69.8286"/>
</g>
<!-- Node0xf247910 -->
<g id="node7" class="node"><title>Node0xf247910</title>
<polygon fill="none" stroke="black" points="189.5,-323.5 189.5,-361.5 288.5,-361.5 288.5,-323.5 189.5,-323.5"/>
<text text-anchor="start" x="197.5" y="-346.3" font-family="Times,serif" font-size="14.00">if (v5 != 0):</text>
<text text-anchor="start" x="197.5" y="-331.3" font-family="Times,serif" font-size="14.00"> else:</text>
</g>
<!-- Node0xf2478b0&#45;&gt;Node0xf247910 -->
<g id="edge6" class="edge"><title>Node0xf2478b0&#45;&gt;Node0xf247910</title>
<path fill="none" stroke="black" d="M239,-467.204C239,-438.882 239,-398.651 239,-371.845"/>
<polygon fill="black" stroke="black" points="242.5,-371.596 239,-361.596 235.5,-371.596 242.5,-371.596"/>
</g>
<!-- Node0xf248190 -->
<g id="node8" class="node"><title>Node0xf248190</title>
<polygon fill="none" stroke="black" points="96,-188.5 96,-271.5 332,-271.5 332,-188.5 96,-188.5"/>
<text text-anchor="start" x="104" y="-256.3" font-family="Times,serif" font-size="14.00">v6 = mbedtls_md_get_size(v5)</text>
<text text-anchor="start" x="104" y="-241.3" font-family="Times,serif" font-size="14.00"> g6 = v1</text>
<text text-anchor="start" x="104" y="-226.3" font-family="Times,serif" font-size="14.00"> *(v2) = (v6 % 256)</text>
<text text-anchor="start" x="104" y="-211.3" font-family="Times,serif" font-size="14.00"> g1 = 0</text>
<text text-anchor="start" x="104" y="-196.3" font-family="Times,serif" font-size="14.00"> result = 0</text>
</g>
<!-- Node0xf247910&#45;&gt;Node0xf248190 -->
<g id="edge7" class="edge"><title>Node0xf247910&#45;&gt;Node0xf248190</title>
<path fill="none" stroke="black" d="M234.872,-323.253C232.303,-311.898 228.86,-296.682 225.513,-281.887"/>
<polygon fill="black" stroke="black" points="228.843,-280.745 223.223,-271.764 222.016,-282.289 228.843,-280.745"/>
<text text-anchor="middle" x="257" y="-293.8" font-family="Times,serif" font-size="14.00">v5 != 0</text>
</g>
<!-- Node0xf248320 -->
<g id="node9" class="node"><title>Node0xf248320</title>
<polygon fill="none" stroke="black" points="350.5,-212 350.5,-248 443.5,-248 443.5,-212 350.5,-212"/>
<text text-anchor="start" x="358.5" y="-226.3" font-family="Times,serif" font-size="14.00">result = &#45;1</text>
</g>
<!-- Node0xf247910&#45;&gt;Node0xf248320 -->
<g id="edge8" class="edge"><title>Node0xf247910&#45;&gt;Node0xf248320</title>
<path fill="none" stroke="black" d="M266.016,-323.455C286.675,-309.569 315.798,-289.804 341,-272 349.108,-266.272 357.796,-259.985 365.853,-254.092"/>
<polygon fill="black" stroke="black" points="367.979,-256.872 373.968,-248.133 363.836,-251.23 367.979,-256.872"/>
<text text-anchor="middle" x="343" y="-293.8" font-family="Times,serif" font-size="14.00">v5 == 0</text>
</g>
<!-- Node0xf2474c0 -->
<g id="node10" class="node"><title>Node0xf2474c0</title>
<polygon fill="none" stroke="black" points="157.5,-97.5 157.5,-150.5 270.5,-150.5 270.5,-97.5 157.5,-97.5"/>
<text text-anchor="start" x="165.5" y="-135.3" font-family="Times,serif" font-size="14.00">0x804d0de:</text>
<text text-anchor="start" x="165.5" y="-120.3" font-family="Times,serif" font-size="14.00"> g2 = v4</text>
<text text-anchor="start" x="165.5" y="-105.3" font-family="Times,serif" font-size="14.00"> return result</text>
</g>
<!-- Node0xf248190&#45;&gt;Node0xf2474c0 -->
<g id="edge9" class="edge"><title>Node0xf248190&#45;&gt;Node0xf2474c0</title>
<path fill="none" stroke="black" d="M214,-188.493C214,-179.311 214,-169.625 214,-160.66"/>
<polygon fill="black" stroke="black" points="217.5,-160.541 214,-150.541 210.5,-160.541 217.5,-160.541"/>
</g>
<!-- Node0xf248320&#45;&gt;Node0xf2474c0 -->
<g id="edge10" class="edge"><title>Node0xf248320&#45;&gt;Node0xf2474c0</title>
<path fill="none" stroke="black" d="M375.525,-211.939C365.344,-204.203 352.84,-195.198 341,-188 321.668,-176.247 299.845,-164.812 279.812,-154.982"/>
<polygon fill="black" stroke="black" points="281.274,-151.801 270.749,-150.582 278.217,-158.098 281.274,-151.801"/>
</g>
<!-- Node0xf2474c0&#45;&gt;Node0xf247060 -->
<g id="edge11" class="edge"><title>Node0xf2474c0&#45;&gt;Node0xf247060</title>
<path fill="none" stroke="black" d="M180.808,-97.308C167.739,-87.1922 152.838,-75.6586 140.089,-65.7898"/>
<polygon fill="black" stroke="black" points="142.112,-62.9299 132.062,-59.5766 137.827,-68.4653 142.112,-62.9299"/>
</g>
</g>
</svg>
