<?xml version="1.0" encoding="UTF-8" standalone="no"?>
<!DOCTYPE svg PUBLIC "-//W3C//DTD SVG 1.1//EN"
 "http://www.w3.org/Graphics/SVG/1.1/DTD/svg11.dtd">
<!-- Generated by graphviz version 2.38.0 (20140413.2041)
 -->
<!-- Title: Control&#45;flow graph for function &#39;mbedtls_cipher_info_from_values(a1, a2, a3)&#39;. Pages: 1 -->
<svg width="1190pt" height="1156pt"
 viewBox="0.00 0.00 1190.00 1156.00" xmlns="http://www.w3.org/2000/svg" xmlns:xlink="http://www.w3.org/1999/xlink">
<g id="graph0" class="graph" transform="scale(1 1) rotate(0) translate(4 1152)">
<title>Control&#45;flow graph for function &#39;mbedtls_cipher_info_from_values(a1, a2, a3)&#39;.</title>
<polygon fill="white" stroke="none" points="-4,4 -4,-1152 1186,-1152 1186,4 -4,4"/>
<text text-anchor="middle" x="591" y="-7.8" font-family="Times,serif" font-size="14.00">Control&#45;flow graph for function &#39;mbedtls_cipher_info_from_values(a1, a2, a3)&#39;.</text>
<!-- Node0xd6c34c0 -->
<g id="node1" class="node"><title>Node0xd6c34c0</title>
<polygon fill="none" stroke="black" points="1081,-1079.5 1081,-1147.5 1140,-1147.5 1140,-1079.5 1081,-1079.5"/>
<text text-anchor="start" x="1089" y="-1132.3" font-family="Times,serif" font-size="14.00">entry:</text>
<text text-anchor="start" x="1089" y="-1117.3" font-family="Times,serif" font-size="14.00"> a1</text>
<text text-anchor="start" x="1089" y="-1102.3" font-family="Times,serif" font-size="14.00"> a2</text>
<text text-anchor="start" x="1089" y="-1087.3" font-family="Times,serif" font-size="14.00"> a3</text>
</g>
<!-- Node0xe028ce0 -->
<g id="node2" class="node"><title>Node0xe028ce0</title>
<polygon fill="none" stroke="black" points="1039,-943.5 1039,-1041.5 1182,-1041.5 1182,-943.5 1039,-943.5"/>
<text text-anchor="start" x="1047" y="-1026.3" font-family="Times,serif" font-size="14.00">0x80695a8:</text>
<text text-anchor="start" x="1047" y="-1011.3" font-family="Times,serif" font-size="14.00"> g1 = &amp;(g138)</text>
<text text-anchor="start" x="1047" y="-996.3" font-family="Times,serif" font-size="14.00"> v1 = g2</text>
<text text-anchor="start" x="1047" y="-981.3" font-family="Times,serif" font-size="14.00"> g6 = &amp;(g136)</text>
<text text-anchor="start" x="1047" y="-966.3" font-family="Times,serif" font-size="14.00"> v2 = &amp;(g136)</text>
<text text-anchor="start" x="1047" y="-951.3" font-family="Times,serif" font-size="14.00"> result = &amp;(g138)</text>
</g>
<!-- Node0xd6c34c0&#45;&gt;Node0xe028ce0 -->
<g id="edge1" class="edge"><title>Node0xd6c34c0&#45;&gt;Node0xe028ce0</title>
<path fill="none" stroke="black" d="M1110.5,-1079.35C1110.5,-1070.77 1110.5,-1061.26 1110.5,-1051.8"/>
<polygon fill="black" stroke="black" points="1114,-1051.59 1110.5,-1041.59 1107,-1051.59 1114,-1051.59"/>
</g>
<!-- Node0xe028e90 -->
<g id="node3" class="node"><title>Node0xe028e90</title>
<polygon fill="none" stroke="black" points="1062,-869.5 1062,-905.5 1159,-905.5 1159,-869.5 1062,-869.5"/>
<text text-anchor="start" x="1070" y="-883.8" font-family="Times,serif" font-size="14.00">while True:</text>
</g>
<!-- Node0xe028ce0&#45;&gt;Node0xe028e90 -->
<g id="edge2" class="edge"><title>Node0xe028ce0&#45;&gt;Node0xe028e90</title>
<path fill="none" stroke="black" d="M1110.5,-943.317C1110.5,-933.893 1110.5,-924.32 1110.5,-915.868"/>
<polygon fill="black" stroke="black" points="1114,-915.856 1110.5,-905.856 1107,-915.856 1114,-915.856"/>
</g>
<!-- Node0xe028c60 -->
<g id="node4" class="node"><title>Node0xe028c60</title>
<polygon fill="none" stroke="black" points="783.5,-779.5 783.5,-817.5 1131.5,-817.5 1131.5,-779.5 783.5,-779.5"/>
<text text-anchor="start" x="791.5" y="-802.3" font-family="Times,serif" font-size="14.00">v3 = *(IntToPtrCastExpr&lt;ptr&gt;((result + 28)))</text>
<text text-anchor="start" x="791.5" y="-787.3" font-family="Times,serif" font-size="14.00"> g4 = v3</text>
</g>
<!-- Node0xe028e90&#45;&gt;Node0xe028c60 -->
<g id="edge3" class="edge"><title>Node0xe028e90&#45;&gt;Node0xe028c60</title>
<path fill="none" stroke="black" d="M1080.27,-869.312C1056.75,-855.934 1023.87,-837.238 998.054,-822.56"/>
<polygon fill="black" stroke="black" points="999.668,-819.452 989.245,-817.551 996.208,-825.537 999.668,-819.452"/>
<text text-anchor="middle" x="1065.5" y="-839.8" font-family="Times,serif" font-size="14.00">True</text>
</g>
<!-- Node0xe029120 -->
<g id="node5" class="node"><title>Node0xe029120</title>
<polygon fill="none" stroke="black" points="742,-705.5 742,-741.5 1057,-741.5 1057,-705.5 742,-705.5"/>
<text text-anchor="start" x="750" y="-719.8" font-family="Times,serif" font-size="14.00">if (*(IntToPtrCastExpr&lt;ptr&gt;(v3)) == a1):</text>
</g>
<!-- Node0xe028c60&#45;&gt;Node0xe029120 -->
<g id="edge4" class="edge"><title>Node0xe028c60&#45;&gt;Node0xe029120</title>
<path fill="none" stroke="black" d="M943.163,-779.455C936.034,-770.483 927.302,-759.492 919.525,-749.704"/>
<polygon fill="black" stroke="black" points="922.234,-747.487 913.273,-741.835 916.753,-751.842 922.234,-747.487"/>
</g>
<!-- Node0xd6c3e60 -->
<g id="node6" class="node"><title>Node0xd6c3e60</title>
<polygon fill="none" stroke="black" points="350,-615.5 350,-653.5 735,-653.5 735,-615.5 350,-615.5"/>
<text text-anchor="start" x="358" y="-638.3" font-family="Times,serif" font-size="14.00">0x80695b7:</text>
<text text-anchor="start" x="358" y="-623.3" font-family="Times,serif" font-size="14.00"> if (*(IntToPtrCastExpr&lt;ptr&gt;((result + 8))) == a2):</text>
</g>
<!-- Node0xe029120&#45;&gt;Node0xd6c3e60 -->
<g id="edge5" class="edge"><title>Node0xe029120&#45;&gt;Node0xd6c3e60</title>
<path fill="none" stroke="black" d="M742,-709.516C689.999,-703.79 639.364,-696.239 615.5,-687 599.245,-680.707 583.193,-670.014 570.299,-659.997"/>
<polygon fill="black" stroke="black" points="572.295,-657.111 562.311,-653.566 567.905,-662.563 572.295,-657.111"/>
<text text-anchor="middle" x="750.5" y="-675.8" font-family="Times,serif" font-size="14.00">*(IntToPtrCastExpr&lt;ptr&gt;(v3)) == a1</text>
</g>
<!-- Node0xd6c3b20 -->
<g id="node7" class="node"><title>Node0xd6c3b20</title>
<polygon fill="none" stroke="black" points="378.5,-405.5 378.5,-473.5 706.5,-473.5 706.5,-405.5 378.5,-405.5"/>
<text text-anchor="start" x="386.5" y="-458.3" font-family="Times,serif" font-size="14.00">v4 = (v2 + 8)</text>
<text text-anchor="start" x="386.5" y="-443.3" font-family="Times,serif" font-size="14.00"> g6 = v4</text>
<text text-anchor="start" x="386.5" y="-428.3" font-family="Times,serif" font-size="14.00"> v5 = *(IntToPtrCastExpr&lt;ptr&gt;((v2 + 12)))</text>
<text text-anchor="start" x="386.5" y="-413.3" font-family="Times,serif" font-size="14.00"> g1 = v5</text>
</g>
<!-- Node0xe029120&#45;&gt;Node0xd6c3b20 -->
<g id="edge6" class="edge"><title>Node0xe029120&#45;&gt;Node0xd6c3b20</title>
<path fill="none" stroke="black" d="M899.807,-705.273C900.208,-662.237 898.888,-551.579 875.5,-525 853.202,-499.659 785.529,-480.209 716.961,-466.393"/>
<polygon fill="black" stroke="black" points="717.332,-462.899 706.844,-464.396 715.976,-469.766 717.332,-462.899"/>
<text text-anchor="middle" x="1027.5" y="-585.8" font-family="Times,serif" font-size="14.00">*(IntToPtrCastExpr&lt;ptr&gt;(v3)) != a1</text>
</g>
<!-- Node0xd6c3e60&#45;&gt;Node0xd6c3b20 -->
<g id="edge8" class="edge"><title>Node0xd6c3e60&#45;&gt;Node0xd6c3b20</title>
<path fill="none" stroke="black" d="M542.5,-615.343C542.5,-585.498 542.5,-525.265 542.5,-483.913"/>
<polygon fill="black" stroke="black" points="546,-483.837 542.5,-473.837 539,-483.837 546,-483.837"/>
<text text-anchor="middle" x="707" y="-540.8" font-family="Times,serif" font-size="14.00">*(IntToPtrCastExpr&lt;ptr&gt;((result + 8))) != a2</text>
</g>
<!-- Node0xd6c4550 -->
<g id="node8" class="node"><title>Node0xd6c4550</title>
<polygon fill="none" stroke="black" points="0,-525.5 0,-563.5 385,-563.5 385,-525.5 0,-525.5"/>
<text text-anchor="start" x="8" y="-548.3" font-family="Times,serif" font-size="14.00">0x80695bc:</text>
<text text-anchor="start" x="8" y="-533.3" font-family="Times,serif" font-size="14.00"> if (*(IntToPtrCastExpr&lt;ptr&gt;((result + 4))) == a3):</text>
</g>
<!-- Node0xd6c3e60&#45;&gt;Node0xd6c4550 -->
<g id="edge7" class="edge"><title>Node0xd6c3e60&#45;&gt;Node0xd6c4550</title>
<path fill="none" stroke="black" d="M349.836,-624.033C275.429,-618.385 205.22,-609.758 193.5,-597 187.885,-590.888 186.21,-582.438 186.356,-574.149"/>
<polygon fill="black" stroke="black" points="189.866,-574.218 187.356,-563.925 182.899,-573.537 189.866,-574.218"/>
<text text-anchor="middle" x="361" y="-585.8" font-family="Times,serif" font-size="14.00">*(IntToPtrCastExpr&lt;ptr&gt;((result + 8))) == a2</text>
</g>
<!-- Node0xd6c3b80 -->
<g id="node9" class="node"><title>Node0xd6c3b80</title>
<polygon fill="none" stroke="black" points="490,-278.5 490,-314.5 595,-314.5 595,-278.5 490,-278.5"/>
<text text-anchor="start" x="498" y="-292.8" font-family="Times,serif" font-size="14.00">if (v5 == 0):</text>
</g>
<!-- Node0xd6c3b20&#45;&gt;Node0xd6c3b80 -->
<g id="edge9" class="edge"><title>Node0xd6c3b20&#45;&gt;Node0xd6c3b80</title>
<path fill="none" stroke="black" d="M542.5,-405.442C542.5,-380.848 542.5,-347.69 542.5,-324.64"/>
<polygon fill="black" stroke="black" points="546,-324.524 542.5,-314.524 539,-324.524 546,-324.524"/>
</g>
<!-- Node0xd6c4550&#45;&gt;Node0xd6c3b20 -->
<g id="edge11" class="edge"><title>Node0xd6c4550&#45;&gt;Node0xd6c3b20</title>
<path fill="none" stroke="black" d="M385.272,-534.678C436.008,-529.329 482.45,-520.75 503.5,-507 512.766,-500.948 520.114,-491.868 525.818,-482.347"/>
<polygon fill="black" stroke="black" points="528.897,-484.01 530.601,-473.554 522.748,-480.665 528.897,-484.01"/>
</g>
<!-- Node0xd6c4920 -->
<g id="node10" class="node"><title>Node0xd6c4920</title>
<polygon fill="none" stroke="black" points="139,-333.5 139,-386.5 252,-386.5 252,-333.5 139,-333.5"/>
<text text-anchor="start" x="147" y="-371.3" font-family="Times,serif" font-size="14.00">0x80695cb:</text>
<text text-anchor="start" x="147" y="-356.3" font-family="Times,serif" font-size="14.00"> g2 = v1</text>
<text text-anchor="start" x="147" y="-341.3" font-family="Times,serif" font-size="14.00"> return result</text>
</g>
<!-- Node0xd6c4550&#45;&gt;Node0xd6c4920 -->
<g id="edge10" class="edge"><title>Node0xd6c4550&#45;&gt;Node0xd6c4920</title>
<path fill="none" stroke="black" d="M174.777,-525.194C170.592,-519.757 166.707,-513.504 164.5,-507 151.913,-469.913 164.995,-425.727 177.823,-395.752"/>
<polygon fill="black" stroke="black" points="181.053,-397.103 181.946,-386.546 174.664,-394.242 181.053,-397.103"/>
<text text-anchor="middle" x="332" y="-495.8" font-family="Times,serif" font-size="14.00">*(IntToPtrCastExpr&lt;ptr&gt;((result + 4))) == a3</text>
</g>
<!-- Node0xd6c4370 -->
<g id="node11" class="node"><title>Node0xd6c4370</title>
<polygon fill="none" stroke="black" points="383,-188.5 383,-226.5 550,-226.5 550,-188.5 383,-188.5"/>
<text text-anchor="start" x="391" y="-211.3" font-family="Times,serif" font-size="14.00">break &#45;&gt; 0x80695cb:</text>
<text text-anchor="start" x="391" y="-196.3" font-family="Times,serif" font-size="14.00"> break</text>
</g>
<!-- Node0xd6c3b80&#45;&gt;Node0xd6c4370 -->
<g id="edge12" class="edge"><title>Node0xd6c3b80&#45;&gt;Node0xd6c4370</title>
<path fill="none" stroke="black" d="M527.485,-278.312C516.462,-265.693 501.306,-248.343 488.86,-234.097"/>
<polygon fill="black" stroke="black" points="491.484,-231.78 482.269,-226.551 486.212,-236.385 491.484,-231.78"/>
<text text-anchor="middle" x="541.5" y="-248.8" font-family="Times,serif" font-size="14.00">v5 == 0</text>
</g>
<!-- Node0xd6c3e00 -->
<g id="node12" class="node"><title>Node0xd6c3e00</title>
<polygon fill="none" stroke="black" points="830,-188.5 830,-226.5 931,-226.5 931,-188.5 830,-188.5"/>
<text text-anchor="start" x="838" y="-211.3" font-family="Times,serif" font-size="14.00">v2 = v4</text>
<text text-anchor="start" x="838" y="-196.3" font-family="Times,serif" font-size="14.00"> result = v5</text>
</g>
<!-- Node0xd6c3b80&#45;&gt;Node0xd6c3e00 -->
<g id="edge13" class="edge"><title>Node0xd6c3b80&#45;&gt;Node0xd6c3e00</title>
<path fill="none" stroke="black" d="M595.312,-281.906C656.204,-266.233 756.098,-240.521 820.046,-224.061"/>
<polygon fill="black" stroke="black" points="821.177,-227.384 829.989,-221.501 819.433,-220.605 821.177,-227.384"/>
<text text-anchor="middle" x="759.5" y="-248.8" font-family="Times,serif" font-size="14.00">v5 != 0</text>
</g>
<!-- Node0xe028490 -->
<g id="node13" class="node"><title>Node0xe028490</title>
<polygon fill="none" stroke="black" points="329.5,-23.5 329.5,-59.5 383.5,-59.5 383.5,-23.5 329.5,-23.5"/>
<text text-anchor="start" x="337.5" y="-37.8" font-family="Times,serif" font-size="14.00">exit:</text>
</g>
<!-- Node0xd6c4920&#45;&gt;Node0xe028490 -->
<g id="edge14" class="edge"><title>Node0xd6c4920&#45;&gt;Node0xe028490</title>
<path fill="none" stroke="black" d="M252.246,-338.945C288.022,-322.273 327.5,-294.572 327.5,-253.5 327.5,-253.5 327.5,-253.5 327.5,-123 327.5,-104.234 334.562,-84.3862 341.716,-69.094"/>
<polygon fill="black" stroke="black" points="345.039,-70.2724 346.357,-59.7599 338.771,-67.1557 345.039,-70.2724"/>
</g>
<!-- Node0xe028f10 -->
<g id="node14" class="node"><title>Node0xe028f10</title>
<polygon fill="none" stroke="black" points="371,-97.5 371,-150.5 472,-150.5 472,-97.5 371,-97.5"/>
<text text-anchor="start" x="379" y="-135.3" font-family="Times,serif" font-size="14.00">0x80695cb:</text>
<text text-anchor="start" x="379" y="-120.3" font-family="Times,serif" font-size="14.00"> g2 = v1</text>
<text text-anchor="start" x="379" y="-105.3" font-family="Times,serif" font-size="14.00"> return 0</text>
</g>
<!-- Node0xd6c4370&#45;&gt;Node0xe028f10 -->
<g id="edge15" class="edge"><title>Node0xd6c4370&#45;&gt;Node0xe028f10</title>
<path fill="none" stroke="black" d="M456.513,-188.413C451.834,-179.939 446.097,-169.549 440.632,-159.65"/>
<polygon fill="black" stroke="black" points="443.624,-157.829 435.727,-150.766 437.496,-161.212 443.624,-157.829"/>
</g>
<!-- Node0xd6c3e00&#45;&gt;Node0xe028e90 -->
<g id="edge16" class="edge"><title>Node0xd6c3e00&#45;&gt;Node0xe028e90</title>
<path fill="none" stroke="black" d="M931.052,-212.792C1016.07,-221.42 1178.5,-244.568 1178.5,-295.5 1178.5,-799.5 1178.5,-799.5 1178.5,-799.5 1178.5,-824.603 1160.71,-846.788 1143.33,-862.472"/>
<polygon fill="black" stroke="black" points="1140.77,-860.054 1135.43,-869.208 1145.31,-865.378 1140.77,-860.054"/>
</g>
<!-- Node0xe028f10&#45;&gt;Node0xe028490 -->
<g id="edge17" class="edge"><title>Node0xe028f10&#45;&gt;Node0xe028490</title>
<path fill="none" stroke="black" d="M400.576,-97.0862C392.998,-87.7013 384.454,-77.1202 376.92,-67.7896"/>
<polygon fill="black" stroke="black" points="379.614,-65.555 370.609,-59.9735 374.168,-69.9526 379.614,-65.555"/>
</g>
</g>
</svg>
