<?xml version="1.0" encoding="UTF-8" standalone="no"?>
<!DOCTYPE svg PUBLIC "-//W3C//DTD SVG 1.1//EN"
 "http://www.w3.org/Graphics/SVG/1.1/DTD/svg11.dtd">
<!-- Generated by graphviz version 2.38.0 (20140413.2041)
 -->
<!-- Title: Control&#45;flow graph for function &#39;mbedtls_pk_init(*a1)&#39;. Pages: 1 -->
<svg width="476pt" height="473pt"
 viewBox="0.00 0.00 475.50 473.00" xmlns="http://www.w3.org/2000/svg" xmlns:xlink="http://www.w3.org/1999/xlink">
<g id="graph0" class="graph" transform="scale(1 1) rotate(0) translate(4 469)">
<title>Control&#45;flow graph for function &#39;mbedtls_pk_init(*a1)&#39;.</title>
<polygon fill="white" stroke="none" points="-4,4 -4,-469 471.5,-469 471.5,4 -4,4"/>
<text text-anchor="middle" x="233.75" y="-7.8" font-family="Times,serif" font-size="14.00">Control&#45;flow graph for function &#39;mbedtls_pk_init(*a1)&#39;.</text>
<!-- Node0xe6978a0 -->
<g id="node1" class="node"><title>Node0xe6978a0</title>
<polygon fill="none" stroke="black" points="290,-426.5 290,-464.5 349,-464.5 349,-426.5 290,-426.5"/>
<text text-anchor="start" x="298" y="-449.3" font-family="Times,serif" font-size="14.00">entry:</text>
<text text-anchor="start" x="298" y="-434.3" font-family="Times,serif" font-size="14.00"> a1</text>
</g>
<!-- Node0xe6981e0 -->
<g id="node2" class="node"><title>Node0xe6981e0</title>
<polygon fill="none" stroke="black" points="171.5,-352.5 171.5,-388.5 467.5,-388.5 467.5,-352.5 171.5,-352.5"/>
<text text-anchor="start" x="179.5" y="-366.8" font-family="Times,serif" font-size="14.00">result = PtrToIntCastExpr&lt;int32&gt;(a1)</text>
</g>
<!-- Node0xe6978a0&#45;&gt;Node0xe6981e0 -->
<g id="edge1" class="edge"><title>Node0xe6978a0&#45;&gt;Node0xe6981e0</title>
<path fill="none" stroke="black" d="M319.5,-426.455C319.5,-418.201 319.5,-408.238 319.5,-399.074"/>
<polygon fill="black" stroke="black" points="323,-398.835 319.5,-388.835 316,-398.835 323,-398.835"/>
</g>
<!-- Node0xe698280 -->
<g id="node3" class="node"><title>Node0xe698280</title>
<polygon fill="none" stroke="black" points="252.5,-278.5 252.5,-314.5 386.5,-314.5 386.5,-278.5 252.5,-278.5"/>
<text text-anchor="start" x="260.5" y="-292.8" font-family="Times,serif" font-size="14.00">if (a1 != NULL):</text>
</g>
<!-- Node0xe6981e0&#45;&gt;Node0xe698280 -->
<g id="edge2" class="edge"><title>Node0xe6981e0&#45;&gt;Node0xe698280</title>
<path fill="none" stroke="black" d="M319.5,-352.437C319.5,-344.307 319.5,-334.376 319.5,-325.205"/>
<polygon fill="black" stroke="black" points="323,-324.941 319.5,-314.941 316,-324.941 323,-324.941"/>
</g>
<!-- Node0x1c0b24f0 -->
<g id="node4" class="node"><title>Node0x1c0b24f0</title>
<polygon fill="none" stroke="black" points="0,-173.5 0,-226.5 335,-226.5 335,-173.5 0,-173.5"/>
<text text-anchor="start" x="8" y="-211.3" font-family="Times,serif" font-size="14.00">0x804cd7a:</text>
<text text-anchor="start" x="8" y="-196.3" font-family="Times,serif" font-size="14.00"> *(a1) = 0</text>
<text text-anchor="start" x="8" y="-181.3" font-family="Times,serif" font-size="14.00"> *(IntToPtrCastExpr&lt;ptr&gt;((result + 4))) = 0</text>
</g>
<!-- Node0xe698280&#45;&gt;Node0x1c0b24f0 -->
<g id="edge3" class="edge"><title>Node0xe698280&#45;&gt;Node0x1c0b24f0</title>
<path fill="none" stroke="black" d="M291.974,-278.387C271.158,-265.445 242.016,-247.328 217.162,-231.876"/>
<polygon fill="black" stroke="black" points="218.911,-228.842 208.571,-226.534 215.215,-234.786 218.911,-228.842"/>
<text text-anchor="middle" x="306.5" y="-248.8" font-family="Times,serif" font-size="14.00">a1 != NULL</text>
</g>
<!-- Node0xe6983a0 -->
<g id="node5" class="node"><title>Node0xe6983a0</title>
<polygon fill="none" stroke="black" points="258,-97.5 258,-135.5 371,-135.5 371,-97.5 258,-97.5"/>
<text text-anchor="start" x="266" y="-120.3" font-family="Times,serif" font-size="14.00">0x804cd87:</text>
<text text-anchor="start" x="266" y="-105.3" font-family="Times,serif" font-size="14.00"> return result</text>
</g>
<!-- Node0xe698280&#45;&gt;Node0xe6983a0 -->
<g id="edge4" class="edge"><title>Node0xe698280&#45;&gt;Node0xe6983a0</title>
<path fill="none" stroke="black" d="M341.568,-278.438C346.799,-273.153 351.676,-266.887 354.5,-260 357.029,-253.832 355.005,-251.648 354.5,-245 352.049,-212.722 353.577,-203.763 343.5,-173 340.31,-163.262 335.538,-153.171 330.781,-144.307"/>
<polygon fill="black" stroke="black" points="333.834,-142.597 325.896,-135.58 327.726,-146.016 333.834,-142.597"/>
<text text-anchor="middle" x="400.5" y="-196.3" font-family="Times,serif" font-size="14.00">a1 == NULL</text>
</g>
<!-- Node0x1c0b24f0&#45;&gt;Node0xe6983a0 -->
<g id="edge5" class="edge"><title>Node0x1c0b24f0&#45;&gt;Node0xe6983a0</title>
<path fill="none" stroke="black" d="M213.608,-173.437C232.566,-162.926 254.362,-150.842 272.833,-140.601"/>
<polygon fill="black" stroke="black" points="274.557,-143.647 281.606,-135.737 271.163,-137.525 274.557,-143.647"/>
</g>
<!-- Node0xe697e70 -->
<g id="node6" class="node"><title>Node0xe697e70</title>
<polygon fill="none" stroke="black" points="287.5,-23.5 287.5,-59.5 341.5,-59.5 341.5,-23.5 287.5,-23.5"/>
<text text-anchor="start" x="295.5" y="-37.8" font-family="Times,serif" font-size="14.00">exit:</text>
</g>
<!-- Node0xe6983a0&#45;&gt;Node0xe697e70 -->
<g id="edge6" class="edge"><title>Node0xe6983a0&#45;&gt;Node0xe697e70</title>
<path fill="none" stroke="black" d="M314.5,-97.4551C314.5,-89.2008 314.5,-79.2377 314.5,-70.0742"/>
<polygon fill="black" stroke="black" points="318,-69.8347 314.5,-59.8347 311,-69.8347 318,-69.8347"/>
</g>
</g>
</svg>
