<?xml version="1.0" encoding="UTF-8" standalone="no"?>
<!DOCTYPE svg PUBLIC "-//W3C//DTD SVG 1.1//EN"
 "http://www.w3.org/Graphics/SVG/1.1/DTD/svg11.dtd">
<!-- Generated by graphviz version 2.38.0 (20140413.2041)
 -->
<!-- Title: Control&#45;flow graph for function &#39;__set_thread_area(a1, a2)&#39;. Pages: 1 -->
<svg width="448pt" height="248pt"
 viewBox="0.00 0.00 448.00 248.00" xmlns="http://www.w3.org/2000/svg" xmlns:xlink="http://www.w3.org/1999/xlink">
<g id="graph0" class="graph" transform="scale(1 1) rotate(0) translate(4 244)">
<title>Control&#45;flow graph for function &#39;__set_thread_area(a1, a2)&#39;.</title>
<polygon fill="white" stroke="none" points="-4,4 -4,-244 444,-244 444,4 -4,4"/>
<text text-anchor="middle" x="220" y="-7.8" font-family="Times,serif" font-size="14.00">Control&#45;flow graph for function &#39;__set_thread_area(a1, a2)&#39;.</text>
<!-- Node0x2737fb80 -->
<g id="node1" class="node"><title>Node0x2737fb80</title>
<polygon fill="none" stroke="black" points="190.5,-186.5 190.5,-239.5 249.5,-239.5 249.5,-186.5 190.5,-186.5"/>
<text text-anchor="start" x="198.5" y="-224.3" font-family="Times,serif" font-size="14.00">entry:</text>
<text text-anchor="start" x="198.5" y="-209.3" font-family="Times,serif" font-size="14.00"> a1</text>
<text text-anchor="start" x="198.5" y="-194.3" font-family="Times,serif" font-size="14.00"> a2</text>
</g>
<!-- Node0x140f2b50 -->
<g id="node2" class="node"><title>Node0x140f2b50</title>
<polygon fill="none" stroke="black" points="70,-96.5 70,-149.5 370,-149.5 370,-96.5 70,-96.5"/>
<text text-anchor="start" x="78" y="-134.3" font-family="Times,serif" font-size="14.00">0x8076f80:</text>
<text text-anchor="start" x="78" y="-119.3" font-family="Times,serif" font-size="14.00"> v1</text>
<text text-anchor="start" x="78" y="-104.3" font-family="Times,serif" font-size="14.00"> function_8076f91(a1, 1048575, 81, v1)</text>
</g>
<!-- Node0x2737fb80&#45;&gt;Node0x140f2b50 -->
<g id="edge1" class="edge"><title>Node0x2737fb80&#45;&gt;Node0x140f2b50</title>
<path fill="none" stroke="black" d="M220,-186.073C220,-177.838 220,-168.58 220,-159.777"/>
<polygon fill="black" stroke="black" points="223.5,-159.742 220,-149.742 216.5,-159.742 223.5,-159.742"/>
</g>
<!-- Node0x140f2af0 -->
<g id="node3" class="node"><title>Node0x140f2af0</title>
<polygon fill="none" stroke="black" points="193,-23.5 193,-59.5 247,-59.5 247,-23.5 193,-23.5"/>
<text text-anchor="start" x="201" y="-37.8" font-family="Times,serif" font-size="14.00">exit:</text>
</g>
<!-- Node0x140f2b50&#45;&gt;Node0x140f2af0 -->
<g id="edge2" class="edge"><title>Node0x140f2b50&#45;&gt;Node0x140f2af0</title>
<path fill="none" stroke="black" d="M220,-96.4081C220,-87.9823 220,-78.5803 220,-70.0174"/>
<polygon fill="black" stroke="black" points="223.5,-69.7564 220,-59.7564 216.5,-69.7565 223.5,-69.7564"/>
</g>
</g>
</svg>
