<?xml version="1.0" encoding="UTF-8" standalone="no"?>
<!DOCTYPE svg PUBLIC "-//W3C//DTD SVG 1.1//EN"
 "http://www.w3.org/Graphics/SVG/1.1/DTD/svg11.dtd">
<!-- Generated by graphviz version 2.38.0 (20140413.2041)
 -->
<!-- Title: Control&#45;flow graph for function &#39;mbedtls_gcm_finish(a1, *a2, a3)&#39;. Pages: 1 -->
<svg width="1712pt" height="1784pt"
 viewBox="0.00 0.00 1712.00 1784.00" xmlns="http://www.w3.org/2000/svg" xmlns:xlink="http://www.w3.org/1999/xlink">
<g id="graph0" class="graph" transform="scale(1 1) rotate(0) translate(4 1780)">
<title>Control&#45;flow graph for function &#39;mbedtls_gcm_finish(a1, *a2, a3)&#39;.</title>
<polygon fill="white" stroke="none" points="-4,4 -4,-1780 1708,-1780 1708,4 -4,4"/>
<text text-anchor="middle" x="852" y="-7.8" font-family="Times,serif" font-size="14.00">Control&#45;flow graph for function &#39;mbedtls_gcm_finish(a1, *a2, a3)&#39;.</text>
<!-- Node0xc4ce630 -->
<g id="node1" class="node"><title>Node0xc4ce630</title>
<polygon fill="none" stroke="black" points="367.5,-1707.5 367.5,-1775.5 426.5,-1775.5 426.5,-1707.5 367.5,-1707.5"/>
<text text-anchor="start" x="375.5" y="-1760.3" font-family="Times,serif" font-size="14.00">entry:</text>
<text text-anchor="start" x="375.5" y="-1745.3" font-family="Times,serif" font-size="14.00"> a1</text>
<text text-anchor="start" x="375.5" y="-1730.3" font-family="Times,serif" font-size="14.00"> a2</text>
<text text-anchor="start" x="375.5" y="-1715.3" font-family="Times,serif" font-size="14.00"> a3</text>
</g>
<!-- Node0x1cf20840 -->
<g id="node2" class="node"><title>Node0x1cf20840</title>
<polygon fill="none" stroke="black" points="228.5,-1586.5 228.5,-1669.5 565.5,-1669.5 565.5,-1586.5 228.5,-1586.5"/>
<text text-anchor="start" x="236.5" y="-1654.3" font-family="Times,serif" font-size="14.00">v1 = g3</text>
<text text-anchor="start" x="236.5" y="-1639.3" font-family="Times,serif" font-size="14.00"> g3 = a1</text>
<text text-anchor="start" x="236.5" y="-1624.3" font-family="Times,serif" font-size="14.00"> v2 = *(IntToPtrCastExpr&lt;ptr&gt;((a1 + 320)))</text>
<text text-anchor="start" x="236.5" y="-1609.3" font-family="Times,serif" font-size="14.00"> v3 = *(IntToPtrCastExpr&lt;ptr&gt;((a1 + 332)))</text>
<text text-anchor="start" x="236.5" y="-1594.3" font-family="Times,serif" font-size="14.00"> v4 = *(IntToPtrCastExpr&lt;ptr&gt;((a1 + 328)))</text>
</g>
<!-- Node0xc4ce630&#45;&gt;Node0x1cf20840 -->
<g id="edge1" class="edge"><title>Node0xc4ce630&#45;&gt;Node0x1cf20840</title>
<path fill="none" stroke="black" d="M397,-1707.35C397,-1698.67 397,-1689.12 397,-1679.76"/>
<polygon fill="black" stroke="black" points="400.5,-1679.72 397,-1669.72 393.5,-1679.72 400.5,-1679.72"/>
</g>
<!-- Node0x26a8bba0 -->
<g id="node3" class="node"><title>Node0x26a8bba0</title>
<polygon fill="none" stroke="black" points="346,-1512.5 346,-1548.5 448,-1548.5 448,-1512.5 346,-1512.5"/>
<text text-anchor="start" x="354" y="-1526.8" font-family="Times,serif" font-size="14.00">if (a3 &gt; 16):</text>
</g>
<!-- Node0x1cf20840&#45;&gt;Node0x26a8bba0 -->
<g id="edge2" class="edge"><title>Node0x1cf20840&#45;&gt;Node0x26a8bba0</title>
<path fill="none" stroke="black" d="M397,-1586.5C397,-1577.21 397,-1567.54 397,-1558.95"/>
<polygon fill="black" stroke="black" points="400.5,-1558.75 397,-1548.75 393.5,-1558.75 400.5,-1558.75"/>
</g>
<!-- Node0x1cf1c7f0 -->
<g id="node4" class="node"><title>Node0x1cf1c7f0</title>
<polygon fill="none" stroke="black" points="10.5,-1290.5 10.5,-1343.5 111.5,-1343.5 111.5,-1290.5 10.5,-1290.5"/>
<text text-anchor="start" x="18.5" y="-1328.3" font-family="Times,serif" font-size="14.00">0x806c471:</text>
<text text-anchor="start" x="18.5" y="-1313.3" font-family="Times,serif" font-size="14.00"> g3 = v1</text>
<text text-anchor="start" x="18.5" y="-1298.3" font-family="Times,serif" font-size="14.00"> return &#45;20</text>
</g>
<!-- Node0x26a8bba0&#45;&gt;Node0x1cf1c7f0 -->
<g id="edge3" class="edge"><title>Node0x26a8bba0&#45;&gt;Node0x1cf1c7f0</title>
<path fill="none" stroke="black" d="M369.788,-1512.37C313.23,-1476.77 182.277,-1394.34 110.409,-1349.1"/>
<polygon fill="black" stroke="black" points="111.849,-1345.87 101.522,-1343.51 108.12,-1351.8 111.849,-1345.87"/>
<text text-anchor="middle" x="365.5" y="-1482.8" font-family="Times,serif" font-size="14.00">a3 &gt; 16</text>
</g>
<!-- Node0x1cf1ab70 -->
<g id="node5" class="node"><title>Node0x1cf1ab70</title>
<polygon fill="none" stroke="black" points="824.5,-1362.5 824.5,-1460.5 1339.5,-1460.5 1339.5,-1362.5 824.5,-1362.5"/>
<text text-anchor="start" x="832.5" y="-1445.3" font-family="Times,serif" font-size="14.00">v5 = ((v2 / 536870912) | (8 * *(IntToPtrCastExpr&lt;ptr&gt;((a1 + 324)))))</text>
<text text-anchor="start" x="832.5" y="-1430.3" font-family="Times,serif" font-size="14.00"> v6 = (8 * v2)</text>
<text text-anchor="start" x="832.5" y="-1415.3" font-family="Times,serif" font-size="14.00"> v7 = ((v4 / 536870912) | (8 * v3))</text>
<text text-anchor="start" x="832.5" y="-1400.3" font-family="Times,serif" font-size="14.00"> v8 = (8 * v4)</text>
<text text-anchor="start" x="832.5" y="-1385.3" font-family="Times,serif" font-size="14.00"> v9 = (a1 + 336)</text>
<text text-anchor="start" x="832.5" y="-1370.3" font-family="Times,serif" font-size="14.00"> memcpy(a2, IntToPtrCastExpr&lt;ptr&gt;(v9), a3)</text>
</g>
<!-- Node0x26a8bba0&#45;&gt;Node0x1cf1ab70 -->
<g id="edge4" class="edge"><title>Node0x26a8bba0&#45;&gt;Node0x1cf1ab70</title>
<path fill="none" stroke="black" d="M448.206,-1520.75C525.703,-1507.52 678.181,-1481.47 814.157,-1458.25"/>
<polygon fill="black" stroke="black" points="815.065,-1461.64 824.333,-1456.51 813.886,-1454.74 815.065,-1461.64"/>
<text text-anchor="middle" x="713.5" y="-1482.8" font-family="Times,serif" font-size="14.00">a3 &lt;= 16</text>
</g>
<!-- Node0x26a8d940 -->
<g id="node6" class="node"><title>Node0x26a8d940</title>
<polygon fill="none" stroke="black" points="420,-23.5 420,-59.5 474,-59.5 474,-23.5 420,-23.5"/>
<text text-anchor="start" x="428" y="-37.8" font-family="Times,serif" font-size="14.00">exit:</text>
</g>
<!-- Node0x1cf1c7f0&#45;&gt;Node0x26a8d940 -->
<g id="edge5" class="edge"><title>Node0x1cf1c7f0&#45;&gt;Node0x26a8d940</title>
<path fill="none" stroke="black" d="M35.8368,-1290.16C19.0336,-1270.13 0,-1240.75 0,-1210.5 0,-1210.5 0,-1210.5 0,-138 0,-54.482 302.199,-43.7421 409.644,-42.5629"/>
<polygon fill="black" stroke="black" points="409.742,-46.0623 419.711,-42.4746 409.681,-39.0626 409.742,-46.0623"/>
</g>
<!-- Node0x26a8a360 -->
<g id="node7" class="node"><title>Node0x26a8a360</title>
<polygon fill="none" stroke="black" points="1149.5,-1235.5 1149.5,-1271.5 1262.5,-1271.5 1262.5,-1235.5 1149.5,-1235.5"/>
<text text-anchor="start" x="1157.5" y="-1249.8" font-family="Times,serif" font-size="14.00">if (v8 == v7):</text>
</g>
<!-- Node0x1cf1ab70&#45;&gt;Node0x26a8a360 -->
<g id="edge6" class="edge"><title>Node0x1cf1ab70&#45;&gt;Node0x26a8a360</title>
<path fill="none" stroke="black" d="M1120.22,-1362.42C1141.92,-1335.11 1168.21,-1302.04 1185.92,-1279.76"/>
<polygon fill="black" stroke="black" points="1188.78,-1281.79 1192.26,-1271.79 1183.3,-1277.44 1188.78,-1281.79"/>
</g>
<!-- Node0x8f93bf0 -->
<g id="node8" class="node"><title>Node0x8f93bf0</title>
<polygon fill="none" stroke="black" points="1286,-1145.5 1286,-1183.5 1404,-1183.5 1404,-1145.5 1286,-1145.5"/>
<text text-anchor="start" x="1294" y="-1168.3" font-family="Times,serif" font-size="14.00">0x806c467:</text>
<text text-anchor="start" x="1294" y="-1153.3" font-family="Times,serif" font-size="14.00"> if (v6 == v5):</text>
</g>
<!-- Node0x26a8a360&#45;&gt;Node0x8f93bf0 -->
<g id="edge7" class="edge"><title>Node0x26a8a360&#45;&gt;Node0x8f93bf0</title>
<path fill="none" stroke="black" d="M1233.46,-1235.31C1254.65,-1222.05 1284.19,-1203.56 1307.54,-1188.95"/>
<polygon fill="black" stroke="black" points="1309.54,-1191.82 1316.16,-1183.55 1305.83,-1185.89 1309.54,-1191.82"/>
<text text-anchor="middle" x="1317" y="-1205.8" font-family="Times,serif" font-size="14.00">v8 == v7</text>
</g>
<!-- Node0xc4cfc50 -->
<g id="node9" class="node"><title>Node0xc4cfc50</title>
<polygon fill="none" stroke="black" points="975.5,-950.5 975.5,-1093.5 1500.5,-1093.5 1500.5,-950.5 975.5,-950.5"/>
<text text-anchor="start" x="983.5" y="-1078.3" font-family="Times,serif" font-size="14.00">v10 = (v3 / 2097152)</text>
<text text-anchor="start" x="983.5" y="-1063.3" font-family="Times,serif" font-size="14.00"> v11 = ((16777216 * (v10 % 256)) / 16777216)</text>
<text text-anchor="start" x="983.5" y="-1048.3" font-family="Times,serif" font-size="14.00"> v12 = IntToPtrCastExpr&lt;ptr&gt;((g3 + 368))</text>
<text text-anchor="start" x="983.5" y="-1033.3" font-family="Times,serif" font-size="14.00"> *(v12) = TruncCastExpr&lt;int8&gt;((ExtCastExpr&lt;int32&gt;(*(v12)) ^ v10))</text>
<text text-anchor="start" x="983.5" y="-1018.3" font-family="Times,serif" font-size="14.00"> v13 = 1</text>
<text text-anchor="start" x="983.5" y="-1003.3" font-family="Times,serif" font-size="14.00"> v14</text>
<text text-anchor="start" x="983.5" y="-988.3" font-family="Times,serif" font-size="14.00"> v15</text>
<text text-anchor="start" x="983.5" y="-973.3" font-family="Times,serif" font-size="14.00"> v16</text>
<text text-anchor="start" x="983.5" y="-958.3" font-family="Times,serif" font-size="14.00"> v17</text>
</g>
<!-- Node0x26a8a360&#45;&gt;Node0xc4cfc50 -->
<g id="edge8" class="edge"><title>Node0x26a8a360&#45;&gt;Node0xc4cfc50</title>
<path fill="none" stroke="black" d="M1206.89,-1235.31C1208.12,-1214.04 1210.69,-1176.73 1215,-1145 1216.82,-1131.59 1219.13,-1117.43 1221.58,-1103.68"/>
<polygon fill="black" stroke="black" points="1225.04,-1104.23 1223.38,-1093.76 1218.15,-1102.97 1225.04,-1104.23"/>
<text text-anchor="middle" x="1246" y="-1160.8" font-family="Times,serif" font-size="14.00">v8 != v7</text>
</g>
<!-- Node0x8f93bf0&#45;&gt;Node0xc4cfc50 -->
<g id="edge10" class="edge"><title>Node0x8f93bf0&#45;&gt;Node0xc4cfc50</title>
<path fill="none" stroke="black" d="M1331.23,-1145.42C1322.45,-1133.89 1310.4,-1118.07 1297.88,-1101.63"/>
<polygon fill="black" stroke="black" points="1300.55,-1099.35 1291.71,-1093.52 1294.98,-1103.6 1300.55,-1099.35"/>
<text text-anchor="middle" x="1347" y="-1115.8" font-family="Times,serif" font-size="14.00">v6 != v5</text>
</g>
<!-- Node0x26a891c0 -->
<g id="node10" class="node"><title>Node0x26a891c0</title>
<polygon fill="none" stroke="black" points="1586.5,-878.5 1586.5,-931.5 1687.5,-931.5 1687.5,-878.5 1586.5,-878.5"/>
<text text-anchor="start" x="1594.5" y="-916.3" font-family="Times,serif" font-size="14.00">0x806c471:</text>
<text text-anchor="start" x="1594.5" y="-901.3" font-family="Times,serif" font-size="14.00"> g3 = v1</text>
<text text-anchor="start" x="1594.5" y="-886.3" font-family="Times,serif" font-size="14.00"> return 0</text>
</g>
<!-- Node0x8f93bf0&#45;&gt;Node0x26a891c0 -->
<g id="edge9" class="edge"><title>Node0x8f93bf0&#45;&gt;Node0x26a891c0</title>
<path fill="none" stroke="black" d="M1404.05,-1147.82C1437.68,-1136.76 1479.14,-1119.35 1510,-1094 1561.81,-1051.44 1600.88,-982.346 1621.24,-940.83"/>
<polygon fill="black" stroke="black" points="1624.47,-942.185 1625.65,-931.656 1618.16,-939.15 1624.47,-942.185"/>
<text text-anchor="middle" x="1515" y="-1115.8" font-family="Times,serif" font-size="14.00">v6 == v5</text>
</g>
<!-- Node0xa078740 -->
<g id="node11" class="node"><title>Node0xa078740</title>
<polygon fill="none" stroke="black" points="1176.5,-823.5 1176.5,-859.5 1299.5,-859.5 1299.5,-823.5 1176.5,-823.5"/>
<text text-anchor="start" x="1184.5" y="-837.8" font-family="Times,serif" font-size="14.00">if (v13 == 16):</text>
</g>
<!-- Node0xc4cfc50&#45;&gt;Node0xa078740 -->
<g id="edge11" class="edge"><title>Node0xc4cfc50&#45;&gt;Node0xa078740</title>
<path fill="none" stroke="black" d="M1238,-950.452C1238,-922.108 1238,-891.129 1238,-869.657"/>
<polygon fill="black" stroke="black" points="1241.5,-869.646 1238,-859.646 1234.5,-869.646 1241.5,-869.646"/>
</g>
<!-- Node0x26a891c0&#45;&gt;Node0x26a8d940 -->
<g id="edge12" class="edge"><title>Node0x26a891c0&#45;&gt;Node0x26a8d940</title>
<path fill="none" stroke="black" d="M1665.03,-878.199C1683.39,-858.4 1704,-829.31 1704,-798.5 1704,-798.5 1704,-798.5 1704,-138 1704,-75.1789 692.603,-48.2186 484.258,-43.3313"/>
<polygon fill="black" stroke="black" points="484.207,-39.8293 474.129,-43.0964 484.045,-46.8274 484.207,-39.8293"/>
</g>
<!-- Node0x1cf1d8f0 -->
<g id="node12" class="node"><title>Node0x1cf1d8f0</title>
<polygon fill="none" stroke="black" points="392,-628.5 392,-771.5 890,-771.5 890,-628.5 392,-628.5"/>
<text text-anchor="start" x="400" y="-756.3" font-family="Times,serif" font-size="14.00">0x806c53b:</text>
<text text-anchor="start" x="400" y="-741.3" font-family="Times,serif" font-size="14.00"> v16 = g3</text>
<text text-anchor="start" x="400" y="-726.3" font-family="Times,serif" font-size="14.00"> g6 = (v16 + 368)</text>
<text text-anchor="start" x="400" y="-711.3" font-family="Times,serif" font-size="14.00"> g1 = v16</text>
<text text-anchor="start" x="400" y="-696.3" font-family="Times,serif" font-size="14.00"> gcm_mult(PtrToIntCastExpr&lt;int32&gt;(a2), v9, a3, 0, v6, v5, v8, v7)</text>
<text text-anchor="start" x="400" y="-681.3" font-family="Times,serif" font-size="14.00"> v17 = 0</text>
<text text-anchor="start" x="400" y="-666.3" font-family="Times,serif" font-size="14.00"> v15 = IntToPtrCastExpr&lt;ptr&gt;((g7 + v17))</text>
<text text-anchor="start" x="400" y="-651.3" font-family="Times,serif" font-size="14.00"> *(v15) = (*(v15) ^ *(IntToPtrCastExpr&lt;ptr&gt;(((v17 + 368) + g3))))</text>
<text text-anchor="start" x="400" y="-636.3" font-family="Times,serif" font-size="14.00"> v14 = 1</text>
</g>
<!-- Node0xa078740&#45;&gt;Node0x1cf1d8f0 -->
<g id="edge13" class="edge"><title>Node0xa078740&#45;&gt;Node0x1cf1d8f0</title>
<path fill="none" stroke="black" d="M1176.36,-826.096C1110.63,-810.737 1002.13,-785.386 899.938,-761.506"/>
<polygon fill="black" stroke="black" points="900.604,-758.067 890.07,-759.2 899.011,-764.883 900.604,-758.067"/>
<text text-anchor="middle" x="1116" y="-793.8" font-family="Times,serif" font-size="14.00">v13 == 16</text>
</g>
<!-- Node0x1cf1a0d0 -->
<g id="node13" class="node"><title>Node0x1cf1a0d0</title>
<polygon fill="none" stroke="black" points="999,-666 999,-734 1571,-734 1571,-666 999,-666"/>
<text text-anchor="start" x="1007" y="-718.8" font-family="Times,serif" font-size="14.00">v18 = *(IntToPtrCastExpr&lt;ptr&gt;((PtrToIntCastExpr&lt;int32&gt;(&amp;(v11)) + v13)))</text>
<text text-anchor="start" x="1007" y="-703.8" font-family="Times,serif" font-size="14.00"> v19 = IntToPtrCastExpr&lt;ptr&gt;(((v13 + 368) + g3))</text>
<text text-anchor="start" x="1007" y="-688.8" font-family="Times,serif" font-size="14.00"> *(v19) = (*(v19) ^ v18)</text>
<text text-anchor="start" x="1007" y="-673.8" font-family="Times,serif" font-size="14.00"> v20 = (v13 + 1)</text>
</g>
<!-- Node0xa078740&#45;&gt;Node0x1cf1a0d0 -->
<g id="edge14" class="edge"><title>Node0xa078740&#45;&gt;Node0x1cf1a0d0</title>
<path fill="none" stroke="black" d="M1243.76,-823.395C1250.4,-803.696 1261.55,-770.605 1270.58,-743.794"/>
<polygon fill="black" stroke="black" points="1273.93,-744.831 1273.8,-734.236 1267.29,-742.596 1273.93,-744.831"/>
<text text-anchor="middle" x="1290" y="-793.8" font-family="Times,serif" font-size="14.00">v13 != 16</text>
</g>
<!-- Node0xa078150 -->
<g id="node14" class="node"><title>Node0xa078150</title>
<polygon fill="none" stroke="black" points="266,-554.5 266,-590.5 412,-590.5 412,-554.5 266,-554.5"/>
<text text-anchor="start" x="274" y="-568.8" font-family="Times,serif" font-size="14.00">while (v14 != g5):</text>
</g>
<!-- Node0x1cf1d8f0&#45;&gt;Node0xa078150 -->
<g id="edge15" class="edge"><title>Node0x1cf1d8f0&#45;&gt;Node0xa078150</title>
<path fill="none" stroke="black" d="M471.022,-628.364C441.331,-616.025 412.634,-604.099 389.622,-594.537"/>
<polygon fill="black" stroke="black" points="390.699,-591.194 380.121,-590.589 388.013,-597.658 390.699,-591.194"/>
</g>
<!-- Node0x14ff3710 -->
<g id="node15" class="node"><title>Node0x14ff3710</title>
<polygon fill="none" stroke="black" points="1216,-554.5 1216,-590.5 1362,-590.5 1362,-554.5 1216,-554.5"/>
<text text-anchor="start" x="1224" y="-568.8" font-family="Times,serif" font-size="14.00">while (v20 != 16):</text>
</g>
<!-- Node0x1cf1a0d0&#45;&gt;Node0x14ff3710 -->
<g id="edge16" class="edge"><title>Node0x1cf1a0d0&#45;&gt;Node0x14ff3710</title>
<path fill="none" stroke="black" d="M1286.06,-665.698C1286.71,-645.45 1287.52,-619.912 1288.13,-600.851"/>
<polygon fill="black" stroke="black" points="1291.63,-600.841 1288.45,-590.734 1284.63,-600.618 1291.63,-600.841"/>
</g>
<!-- Node0x26a8cf80 -->
<g id="node16" class="node"><title>Node0x26a8cf80</title>
<polygon fill="none" stroke="black" points="66,-389.5 66,-472.5 564,-472.5 564,-389.5 66,-389.5"/>
<text text-anchor="start" x="74" y="-457.3" font-family="Times,serif" font-size="14.00">0x806c550:</text>
<text text-anchor="start" x="74" y="-442.3" font-family="Times,serif" font-size="14.00"> v17 = v14</text>
<text text-anchor="start" x="74" y="-427.3" font-family="Times,serif" font-size="14.00"> v15 = IntToPtrCastExpr&lt;ptr&gt;((g7 + v17))</text>
<text text-anchor="start" x="74" y="-412.3" font-family="Times,serif" font-size="14.00"> *(v15) = (*(v15) ^ *(IntToPtrCastExpr&lt;ptr&gt;(((v17 + 368) + g3))))</text>
<text text-anchor="start" x="74" y="-397.3" font-family="Times,serif" font-size="14.00"> v14 = (v14 + 1)</text>
</g>
<!-- Node0xa078150&#45;&gt;Node0x26a8cf80 -->
<g id="edge17" class="edge"><title>Node0xa078150&#45;&gt;Node0x26a8cf80</title>
<path fill="none" stroke="black" d="M311.735,-554.435C305.79,-549.296 300.296,-543.101 297,-536 289.358,-519.535 290.326,-500.241 294.384,-482.772"/>
<polygon fill="black" stroke="black" points="297.867,-483.299 297.088,-472.732 291.108,-481.478 297.867,-483.299"/>
<text text-anchor="middle" x="333" y="-524.8" font-family="Times,serif" font-size="14.00">v14 != g5</text>
</g>
<!-- Node0x26a8c280 -->
<g id="node17" class="node"><title>Node0x26a8c280</title>
<polygon fill="none" stroke="black" points="215.5,-287.5 215.5,-340.5 316.5,-340.5 316.5,-287.5 215.5,-287.5"/>
<text text-anchor="start" x="223.5" y="-325.3" font-family="Times,serif" font-size="14.00">0x806c471:</text>
<text text-anchor="start" x="223.5" y="-310.3" font-family="Times,serif" font-size="14.00"> g3 = v1</text>
<text text-anchor="start" x="223.5" y="-295.3" font-family="Times,serif" font-size="14.00"> return 0</text>
</g>
<!-- Node0xa078150&#45;&gt;Node0x26a8c280 -->
<g id="edge18" class="edge"><title>Node0xa078150&#45;&gt;Node0x26a8c280</title>
<path fill="none" stroke="black" d="M265.809,-563.902C191.085,-554.456 82.5334,-535.478 57,-503 17.4452,-452.687 16.6752,-408.698 57,-359 75.4202,-336.298 150.444,-324.869 205.352,-319.439"/>
<polygon fill="black" stroke="black" points="205.726,-322.919 215.352,-318.494 205.067,-315.951 205.726,-322.919"/>
<text text-anchor="middle" x="160" y="-524.8" font-family="Times,serif" font-size="14.00">v14 == g5</text>
</g>
<!-- Node0x1cf1c510 -->
<g id="node18" class="node"><title>Node0x1cf1c510</title>
<polygon fill="none" stroke="black" points="1098.5,-382 1098.5,-480 1675.5,-480 1675.5,-382 1098.5,-382"/>
<text text-anchor="start" x="1106.5" y="-464.8" font-family="Times,serif" font-size="14.00">0x806c528:</text>
<text text-anchor="start" x="1106.5" y="-449.8" font-family="Times,serif" font-size="14.00"> v13 = v20</text>
<text text-anchor="start" x="1106.5" y="-434.8" font-family="Times,serif" font-size="14.00"> v18 = *(IntToPtrCastExpr&lt;ptr&gt;((PtrToIntCastExpr&lt;int32&gt;(&amp;(v11)) + v13)))</text>
<text text-anchor="start" x="1106.5" y="-419.8" font-family="Times,serif" font-size="14.00"> v19 = IntToPtrCastExpr&lt;ptr&gt;(((v13 + 368) + g3))</text>
<text text-anchor="start" x="1106.5" y="-404.8" font-family="Times,serif" font-size="14.00"> *(v19) = (*(v19) ^ v18)</text>
<text text-anchor="start" x="1106.5" y="-389.8" font-family="Times,serif" font-size="14.00"> v20 = (v20 + 1)</text>
</g>
<!-- Node0x14ff3710&#45;&gt;Node0x1cf1c510 -->
<g id="edge19" class="edge"><title>Node0x14ff3710&#45;&gt;Node0x1cf1c510</title>
<path fill="none" stroke="black" d="M1287.37,-554.338C1287.11,-544.177 1288.07,-531.315 1293,-521 1298.72,-509.043 1306.78,-497.872 1315.82,-487.76"/>
<polygon fill="black" stroke="black" points="1318.59,-489.92 1322.9,-480.238 1313.5,-485.124 1318.59,-489.92"/>
<text text-anchor="middle" x="1329" y="-524.8" font-family="Times,serif" font-size="14.00">v20 != 16</text>
</g>
<!-- Node0x14ff6e10 -->
<g id="node19" class="node"><title>Node0x14ff6e10</title>
<polygon fill="none" stroke="black" points="582,-359.5 582,-502.5 1080,-502.5 1080,-359.5 582,-359.5"/>
<text text-anchor="start" x="590" y="-487.3" font-family="Times,serif" font-size="14.00">0x806c53b:</text>
<text text-anchor="start" x="590" y="-472.3" font-family="Times,serif" font-size="14.00"> v16 = g3</text>
<text text-anchor="start" x="590" y="-457.3" font-family="Times,serif" font-size="14.00"> g6 = (v16 + 368)</text>
<text text-anchor="start" x="590" y="-442.3" font-family="Times,serif" font-size="14.00"> g1 = v16</text>
<text text-anchor="start" x="590" y="-427.3" font-family="Times,serif" font-size="14.00"> gcm_mult(PtrToIntCastExpr&lt;int32&gt;(a2), v9, a3, 0, v6, v5, v8, v7)</text>
<text text-anchor="start" x="590" y="-412.3" font-family="Times,serif" font-size="14.00"> v17 = 0</text>
<text text-anchor="start" x="590" y="-397.3" font-family="Times,serif" font-size="14.00"> v15 = IntToPtrCastExpr&lt;ptr&gt;((g7 + v17))</text>
<text text-anchor="start" x="590" y="-382.3" font-family="Times,serif" font-size="14.00"> *(v15) = (*(v15) ^ *(IntToPtrCastExpr&lt;ptr&gt;(((v17 + 368) + g3))))</text>
<text text-anchor="start" x="590" y="-367.3" font-family="Times,serif" font-size="14.00"> v14 = 1</text>
</g>
<!-- Node0x14ff3710&#45;&gt;Node0x14ff6e10 -->
<g id="edge20" class="edge"><title>Node0x14ff3710&#45;&gt;Node0x14ff6e10</title>
<path fill="none" stroke="black" d="M1232.84,-554.395C1191.63,-541.843 1132.57,-523.853 1072.36,-505.516"/>
<polygon fill="black" stroke="black" points="1073.28,-502.136 1062.69,-502.571 1071.24,-508.832 1073.28,-502.136"/>
<text text-anchor="middle" x="1205" y="-524.8" font-family="Times,serif" font-size="14.00">v20 == 16</text>
</g>
<!-- Node0x26a8cf80&#45;&gt;Node0xa078150 -->
<g id="edge21" class="edge"><title>Node0x26a8cf80&#45;&gt;Node0xa078150</title>
<path fill="none" stroke="black" d="M346.153,-472.812C355.382,-487.25 364.279,-504.117 369,-521 370.795,-527.42 371.291,-529.739 369,-536 367.704,-539.543 365.88,-542.975 363.766,-546.22"/>
<polygon fill="black" stroke="black" points="360.884,-544.227 357.65,-554.316 366.47,-548.447 360.884,-544.227"/>
</g>
<!-- Node0x26a8c280&#45;&gt;Node0x26a8d940 -->
<g id="edge22" class="edge"><title>Node0x26a8c280&#45;&gt;Node0x26a8d940</title>
<path fill="none" stroke="black" d="M264.519,-287.417C263.367,-243.31 267.335,-152.371 314,-97 338.095,-68.41 379.546,-54.6171 409.782,-48.0941"/>
<polygon fill="black" stroke="black" points="410.833,-51.454 419.962,-46.0776 409.473,-44.5874 410.833,-51.454"/>
</g>
<!-- Node0x1cf1c510&#45;&gt;Node0x14ff3710 -->
<g id="edge23" class="edge"><title>Node0x1cf1c510&#45;&gt;Node0x14ff3710</title>
<path fill="none" stroke="black" d="M1385.91,-480.174C1383.3,-499.249 1377.45,-520.319 1365,-536 1361.08,-540.94 1356.31,-545.224 1351.09,-548.933"/>
<polygon fill="black" stroke="black" points="1349.17,-546.007 1342.57,-554.301 1352.9,-551.929 1349.17,-546.007"/>
</g>
<!-- Node0x14ff71c0 -->
<g id="node20" class="node"><title>Node0x14ff71c0</title>
<polygon fill="none" stroke="black" points="655,-232.5 655,-268.5 801,-268.5 801,-232.5 655,-232.5"/>
<text text-anchor="start" x="663" y="-246.8" font-family="Times,serif" font-size="14.00">while (v14 != g5):</text>
</g>
<!-- Node0x14ff6e10&#45;&gt;Node0x14ff71c0 -->
<g id="edge24" class="edge"><title>Node0x14ff6e10&#45;&gt;Node0x14ff71c0</title>
<path fill="none" stroke="black" d="M790.292,-359.452C773.638,-330.59 755.407,-298.997 742.997,-277.49"/>
<polygon fill="black" stroke="black" points="745.923,-275.558 737.894,-268.646 739.86,-279.056 745.923,-275.558"/>
</g>
<!-- Node0xa077890 -->
<g id="node21" class="node"><title>Node0xa077890</title>
<polygon fill="none" stroke="black" points="323,-97.5 323,-180.5 821,-180.5 821,-97.5 323,-97.5"/>
<text text-anchor="start" x="331" y="-165.3" font-family="Times,serif" font-size="14.00">0x806c550:</text>
<text text-anchor="start" x="331" y="-150.3" font-family="Times,serif" font-size="14.00"> v17 = v14</text>
<text text-anchor="start" x="331" y="-135.3" font-family="Times,serif" font-size="14.00"> v15 = IntToPtrCastExpr&lt;ptr&gt;((g7 + v17))</text>
<text text-anchor="start" x="331" y="-120.3" font-family="Times,serif" font-size="14.00"> *(v15) = (*(v15) ^ *(IntToPtrCastExpr&lt;ptr&gt;(((v17 + 368) + g3))))</text>
<text text-anchor="start" x="331" y="-105.3" font-family="Times,serif" font-size="14.00"> v14 = (v14 + 1)</text>
</g>
<!-- Node0x14ff71c0&#45;&gt;Node0xa077890 -->
<g id="edge25" class="edge"><title>Node0x14ff71c0&#45;&gt;Node0xa077890</title>
<path fill="none" stroke="black" d="M654.88,-244.637C632.163,-239.703 608.723,-230.579 592,-214 585.545,-207.601 581.111,-199.349 578.079,-190.689"/>
<polygon fill="black" stroke="black" points="581.363,-189.446 575.218,-180.815 574.639,-191.394 581.363,-189.446"/>
<text text-anchor="middle" x="628" y="-202.8" font-family="Times,serif" font-size="14.00">v14 != g5</text>
</g>
<!-- Node0x1cf1f180 -->
<g id="node22" class="node"><title>Node0x1cf1f180</title>
<polygon fill="none" stroke="black" points="839.5,-112.5 839.5,-165.5 940.5,-165.5 940.5,-112.5 839.5,-112.5"/>
<text text-anchor="start" x="847.5" y="-150.3" font-family="Times,serif" font-size="14.00">0x806c471:</text>
<text text-anchor="start" x="847.5" y="-135.3" font-family="Times,serif" font-size="14.00"> g3 = v1</text>
<text text-anchor="start" x="847.5" y="-120.3" font-family="Times,serif" font-size="14.00"> return 0</text>
</g>
<!-- Node0x14ff71c0&#45;&gt;Node0x1cf1f180 -->
<g id="edge26" class="edge"><title>Node0x14ff71c0&#45;&gt;Node0x1cf1f180</title>
<path fill="none" stroke="black" d="M753.609,-232.385C774.261,-218.562 804.039,-198.587 830,-181 834.57,-177.904 839.33,-174.669 844.082,-171.433"/>
<polygon fill="black" stroke="black" points="846.294,-174.161 852.584,-165.636 842.35,-168.377 846.294,-174.161"/>
<text text-anchor="middle" x="842" y="-202.8" font-family="Times,serif" font-size="14.00">v14 == g5</text>
</g>
<!-- Node0xa077890&#45;&gt;Node0x14ff71c0 -->
<g id="edge27" class="edge"><title>Node0xa077890&#45;&gt;Node0x14ff71c0</title>
<path fill="none" stroke="black" d="M637.367,-180.8C646.408,-186.766 655.501,-192.944 664,-199 675.849,-207.444 688.501,-217.249 699.402,-225.961"/>
<polygon fill="black" stroke="black" points="697.371,-228.819 707.353,-232.369 701.763,-223.369 697.371,-228.819"/>
</g>
<!-- Node0x1cf1f180&#45;&gt;Node0x26a8d940 -->
<g id="edge28" class="edge"><title>Node0x1cf1f180&#45;&gt;Node0x26a8d940</title>
<path fill="none" stroke="black" d="M858.205,-112.328C849.5,-106.433 839.761,-100.791 830,-97 709.707,-50.2873 554.238,-42.9936 484.155,-42.2617"/>
<polygon fill="black" stroke="black" points="484.076,-38.7612 474.053,-42.1964 484.031,-45.761 484.076,-38.7612"/>
</g>
</g>
</svg>
