<?xml version="1.0" encoding="UTF-8" standalone="no"?>
<!DOCTYPE svg PUBLIC "-//W3C//DTD SVG 1.1//EN"
 "http://www.w3.org/Graphics/SVG/1.1/DTD/svg11.dtd">
<!-- Generated by graphviz version 2.38.0 (20140413.2041)
 -->
<!-- Title: Control&#45;flow graph for function &#39;eckey_free_wrap(a1, a2, a3)&#39;. Pages: 1 -->
<svg width="466pt" height="383pt"
 viewBox="0.00 0.00 466.00 383.00" xmlns="http://www.w3.org/2000/svg" xmlns:xlink="http://www.w3.org/1999/xlink">
<g id="graph0" class="graph" transform="scale(1 1) rotate(0) translate(4 379)">
<title>Control&#45;flow graph for function &#39;eckey_free_wrap(a1, a2, a3)&#39;.</title>
<polygon fill="white" stroke="none" points="-4,4 -4,-379 462,-379 462,4 -4,4"/>
<text text-anchor="middle" x="229" y="-7.8" font-family="Times,serif" font-size="14.00">Control&#45;flow graph for function &#39;eckey_free_wrap(a1, a2, a3)&#39;.</text>
<!-- Node0x1053d5b0 -->
<g id="node1" class="node"><title>Node0x1053d5b0</title>
<polygon fill="none" stroke="black" points="199.5,-306.5 199.5,-374.5 258.5,-374.5 258.5,-306.5 199.5,-306.5"/>
<text text-anchor="start" x="207.5" y="-359.3" font-family="Times,serif" font-size="14.00">entry:</text>
<text text-anchor="start" x="207.5" y="-344.3" font-family="Times,serif" font-size="14.00"> a1</text>
<text text-anchor="start" x="207.5" y="-329.3" font-family="Times,serif" font-size="14.00"> a2</text>
<text text-anchor="start" x="207.5" y="-314.3" font-family="Times,serif" font-size="14.00"> a3</text>
</g>
<!-- Node0x1053ddb0 -->
<g id="node2" class="node"><title>Node0x1053ddb0</title>
<polygon fill="none" stroke="black" points="79,-96.5 79,-269.5 379,-269.5 379,-96.5 79,-96.5"/>
<text text-anchor="start" x="87" y="-254.3" font-family="Times,serif" font-size="14.00">0x804d6c0:</text>
<text text-anchor="start" x="87" y="-239.3" font-family="Times,serif" font-size="14.00"> v1</text>
<text text-anchor="start" x="87" y="-224.3" font-family="Times,serif" font-size="14.00"> v2 = IntToPtrCastExpr&lt;ptr&gt;(v1)</text>
<text text-anchor="start" x="87" y="-209.3" font-family="Times,serif" font-size="14.00"> v3 = g3</text>
<text text-anchor="start" x="87" y="-194.3" font-family="Times,serif" font-size="14.00"> g3 = a1</text>
<text text-anchor="start" x="87" y="-179.3" font-family="Times,serif" font-size="14.00"> result = mbedtls_ecp_keypair_free(a1)</text>
<text text-anchor="start" x="87" y="-164.3" font-family="Times,serif" font-size="14.00"> g1 = result</text>
<text text-anchor="start" x="87" y="-149.3" font-family="Times,serif" font-size="14.00"> g3 = v3</text>
<text text-anchor="start" x="87" y="-134.3" font-family="Times,serif" font-size="14.00"> g2 = PtrToIntCastExpr&lt;int32&gt;(v2)</text>
<text text-anchor="start" x="87" y="-119.3" font-family="Times,serif" font-size="14.00"> free(v2)</text>
<text text-anchor="start" x="87" y="-104.3" font-family="Times,serif" font-size="14.00"> return result</text>
</g>
<!-- Node0x1053d5b0&#45;&gt;Node0x1053ddb0 -->
<g id="edge1" class="edge"><title>Node0x1053d5b0&#45;&gt;Node0x1053ddb0</title>
<path fill="none" stroke="black" d="M229,-306.141C229,-298.146 229,-289.209 229,-279.904"/>
<polygon fill="black" stroke="black" points="232.5,-279.69 229,-269.691 225.5,-279.691 232.5,-279.69"/>
</g>
<!-- Node0x1053dd30 -->
<g id="node3" class="node"><title>Node0x1053dd30</title>
<polygon fill="none" stroke="black" points="202,-23.5 202,-59.5 256,-59.5 256,-23.5 202,-23.5"/>
<text text-anchor="start" x="210" y="-37.8" font-family="Times,serif" font-size="14.00">exit:</text>
</g>
<!-- Node0x1053ddb0&#45;&gt;Node0x1053dd30 -->
<g id="edge2" class="edge"><title>Node0x1053ddb0&#45;&gt;Node0x1053dd30</title>
<path fill="none" stroke="black" d="M229,-96.4343C229,-86.8184 229,-77.6259 229,-69.641"/>
<polygon fill="black" stroke="black" points="232.5,-69.5749 229,-59.5749 225.5,-69.5749 232.5,-69.5749"/>
</g>
</g>
</svg>
