<?xml version="1.0" encoding="UTF-8" standalone="no"?>
<!DOCTYPE svg PUBLIC "-//W3C//DTD SVG 1.1//EN"
 "http://www.w3.org/Graphics/SVG/1.1/DTD/svg11.dtd">
<!-- Generated by graphviz version 2.38.0 (20140413.2041)
 -->
<!-- Title: Control&#45;flow graph for function &#39;ripemd160_starts_wrap(a1)&#39;. Pages: 1 -->
<svg width="463pt" height="248pt"
 viewBox="0.00 0.00 463.00 248.00" xmlns="http://www.w3.org/2000/svg" xmlns:xlink="http://www.w3.org/1999/xlink">
<g id="graph0" class="graph" transform="scale(1 1) rotate(0) translate(4 244)">
<title>Control&#45;flow graph for function &#39;ripemd160_starts_wrap(a1)&#39;.</title>
<polygon fill="white" stroke="none" points="-4,4 -4,-244 459,-244 459,4 -4,4"/>
<text text-anchor="middle" x="227.5" y="-7.8" font-family="Times,serif" font-size="14.00">Control&#45;flow graph for function &#39;ripemd160_starts_wrap(a1)&#39;.</text>
<!-- Node0x15aea4e0 -->
<g id="node1" class="node"><title>Node0x15aea4e0</title>
<polygon fill="none" stroke="black" points="198,-201.5 198,-239.5 257,-239.5 257,-201.5 198,-201.5"/>
<text text-anchor="start" x="206" y="-224.3" font-family="Times,serif" font-size="14.00">entry:</text>
<text text-anchor="start" x="206" y="-209.3" font-family="Times,serif" font-size="14.00"> a1</text>
</g>
<!-- Node0x9c73b00 -->
<g id="node2" class="node"><title>Node0x9c73b00</title>
<polygon fill="none" stroke="black" points="2.5,-96.5 2.5,-164.5 452.5,-164.5 452.5,-96.5 2.5,-96.5"/>
<text text-anchor="start" x="10.5" y="-149.3" font-family="Times,serif" font-size="14.00">0x8062e30:</text>
<text text-anchor="start" x="10.5" y="-134.3" font-family="Times,serif" font-size="14.00"> result</text>
<text text-anchor="start" x="10.5" y="-119.3" font-family="Times,serif" font-size="14.00"> mbedtls_ripemd160_starts(IntToPtrCastExpr&lt;ptr&gt;(result))</text>
<text text-anchor="start" x="10.5" y="-104.3" font-family="Times,serif" font-size="14.00"> return result</text>
</g>
<!-- Node0x15aea4e0&#45;&gt;Node0x9c73b00 -->
<g id="edge1" class="edge"><title>Node0x15aea4e0&#45;&gt;Node0x9c73b00</title>
<path fill="none" stroke="black" d="M227.5,-201.266C227.5,-193.502 227.5,-184.086 227.5,-174.717"/>
<polygon fill="black" stroke="black" points="231,-174.649 227.5,-164.65 224,-174.65 231,-174.649"/>
</g>
<!-- Node0x15ae7630 -->
<g id="node3" class="node"><title>Node0x15ae7630</title>
<polygon fill="none" stroke="black" points="200.5,-23.5 200.5,-59.5 254.5,-59.5 254.5,-23.5 200.5,-23.5"/>
<text text-anchor="start" x="208.5" y="-37.8" font-family="Times,serif" font-size="14.00">exit:</text>
</g>
<!-- Node0x9c73b00&#45;&gt;Node0x15ae7630 -->
<g id="edge2" class="edge"><title>Node0x9c73b00&#45;&gt;Node0x15ae7630</title>
<path fill="none" stroke="black" d="M227.5,-96.1123C227.5,-87.3522 227.5,-78.0128 227.5,-69.6246"/>
<polygon fill="black" stroke="black" points="231,-69.6235 227.5,-59.6235 224,-69.6235 231,-69.6235"/>
</g>
</g>
</svg>
