<?xml version="1.0" encoding="UTF-8" standalone="no"?>
<!DOCTYPE svg PUBLIC "-//W3C//DTD SVG 1.1//EN"
 "http://www.w3.org/Graphics/SVG/1.1/DTD/svg11.dtd">
<!-- Generated by graphviz version 2.38.0 (20140413.2041)
 -->
<!-- Title: Control&#45;flow graph for function &#39;mbedtls_hmac_drbg_random(a1, a2, a3)&#39;. Pages: 1 -->
<svg width="703pt" height="293pt"
 viewBox="0.00 0.00 703.00 293.00" xmlns="http://www.w3.org/2000/svg" xmlns:xlink="http://www.w3.org/1999/xlink">
<g id="graph0" class="graph" transform="scale(1 1) rotate(0) translate(4 289)">
<title>Control&#45;flow graph for function &#39;mbedtls_hmac_drbg_random(a1, a2, a3)&#39;.</title>
<polygon fill="white" stroke="none" points="-4,4 -4,-289 699,-289 699,4 -4,4"/>
<text text-anchor="middle" x="347.5" y="-7.8" font-family="Times,serif" font-size="14.00">Control&#45;flow graph for function &#39;mbedtls_hmac_drbg_random(a1, a2, a3)&#39;.</text>
<!-- Node0x1b648910 -->
<g id="node1" class="node"><title>Node0x1b648910</title>
<polygon fill="none" stroke="black" points="318,-216.5 318,-284.5 377,-284.5 377,-216.5 318,-216.5"/>
<text text-anchor="start" x="326" y="-269.3" font-family="Times,serif" font-size="14.00">entry:</text>
<text text-anchor="start" x="326" y="-254.3" font-family="Times,serif" font-size="14.00"> a1</text>
<text text-anchor="start" x="326" y="-239.3" font-family="Times,serif" font-size="14.00"> a2</text>
<text text-anchor="start" x="326" y="-224.3" font-family="Times,serif" font-size="14.00"> a3</text>
</g>
<!-- Node0x17639690 -->
<g id="node2" class="node"><title>Node0x17639690</title>
<polygon fill="none" stroke="black" points="-5.68434e-14,-96.5 -5.68434e-14,-179.5 695,-179.5 695,-96.5 -5.68434e-14,-96.5"/>
<text text-anchor="start" x="8" y="-164.3" font-family="Times,serif" font-size="14.00">result = mbedtls_hmac_drbg_random_with_add(IntToPtrCastExpr&lt;ptr&gt;(a1), a2, a3, NULL, 0)</text>
<text text-anchor="start" x="8" y="-149.3" font-family="Times,serif" font-size="14.00"> g1 = result</text>
<text text-anchor="start" x="8" y="-134.3" font-family="Times,serif" font-size="14.00"> v1</text>
<text text-anchor="start" x="8" y="-119.3" font-family="Times,serif" font-size="14.00"> g2 = v1</text>
<text text-anchor="start" x="8" y="-104.3" font-family="Times,serif" font-size="14.00"> return result</text>
</g>
<!-- Node0x1b648910&#45;&gt;Node0x17639690 -->
<g id="edge1" class="edge"><title>Node0x1b648910&#45;&gt;Node0x17639690</title>
<path fill="none" stroke="black" d="M347.5,-216.346C347.5,-207.94 347.5,-198.717 347.5,-189.659"/>
<polygon fill="black" stroke="black" points="351,-189.555 347.5,-179.555 344,-189.555 351,-189.555"/>
</g>
<!-- Node0x1763a220 -->
<g id="node3" class="node"><title>Node0x1763a220</title>
<polygon fill="none" stroke="black" points="320.5,-23.5 320.5,-59.5 374.5,-59.5 374.5,-23.5 320.5,-23.5"/>
<text text-anchor="start" x="328.5" y="-37.8" font-family="Times,serif" font-size="14.00">exit:</text>
</g>
<!-- Node0x17639690&#45;&gt;Node0x1763a220 -->
<g id="edge2" class="edge"><title>Node0x17639690&#45;&gt;Node0x1763a220</title>
<path fill="none" stroke="black" d="M347.5,-96.3751C347.5,-87.4706 347.5,-78.246 347.5,-70"/>
<polygon fill="black" stroke="black" points="351,-69.8327 347.5,-59.8328 344,-69.8328 351,-69.8327"/>
</g>
</g>
</svg>
