<?xml version="1.0" encoding="UTF-8" standalone="no"?>
<!DOCTYPE svg PUBLIC "-//W3C//DTD SVG 1.1//EN"
 "http://www.w3.org/Graphics/SVG/1.1/DTD/svg11.dtd">
<!-- Generated by graphviz version 2.38.0 (20140413.2041)
 -->
<!-- Title: Control&#45;flow graph for function &#39;mbedtls_md5(a1, a2, a3)&#39;. Pages: 1 -->
<svg width="631pt" height="654pt"
 viewBox="0.00 0.00 631.00 654.00" xmlns="http://www.w3.org/2000/svg" xmlns:xlink="http://www.w3.org/1999/xlink">
<g id="graph0" class="graph" transform="scale(1 1) rotate(0) translate(4 650)">
<title>Control&#45;flow graph for function &#39;mbedtls_md5(a1, a2, a3)&#39;.</title>
<polygon fill="white" stroke="none" points="-4,4 -4,-650 627,-650 627,4 -4,4"/>
<text text-anchor="middle" x="311.5" y="-7.8" font-family="Times,serif" font-size="14.00">Control&#45;flow graph for function &#39;mbedtls_md5(a1, a2, a3)&#39;.</text>
<!-- Node0x27684630 -->
<g id="node1" class="node"><title>Node0x27684630</title>
<polygon fill="none" stroke="black" points="282,-577.5 282,-645.5 341,-645.5 341,-577.5 282,-577.5"/>
<text text-anchor="start" x="290" y="-630.3" font-family="Times,serif" font-size="14.00">entry:</text>
<text text-anchor="start" x="290" y="-615.3" font-family="Times,serif" font-size="14.00"> a1</text>
<text text-anchor="start" x="290" y="-600.3" font-family="Times,serif" font-size="14.00"> a2</text>
<text text-anchor="start" x="290" y="-585.3" font-family="Times,serif" font-size="14.00"> a3</text>
</g>
<!-- Node0x218591c0 -->
<g id="node2" class="node"><title>Node0x218591c0</title>
<polygon fill="none" stroke="black" points="-5.68434e-14,-306.5 -5.68434e-14,-539.5 623,-539.5 623,-306.5 -5.68434e-14,-306.5"/>
<text text-anchor="start" x="8" y="-524.3" font-family="Times,serif" font-size="14.00">v1 = g3</text>
<text text-anchor="start" x="8" y="-509.3" font-family="Times,serif" font-size="14.00"> v2</text>
<text text-anchor="start" x="8" y="-494.3" font-family="Times,serif" font-size="14.00"> v3 = &amp;(v2)</text>
<text text-anchor="start" x="8" y="-479.3" font-family="Times,serif" font-size="14.00"> g3 = v3</text>
<text text-anchor="start" x="8" y="-464.3" font-family="Times,serif" font-size="14.00"> mbedtls_md5_init(BitCastExpr&lt;ptr&gt;(&amp;(v2)))</text>
<text text-anchor="start" x="8" y="-449.3" font-family="Times,serif" font-size="14.00"> v2 = 0</text>
<text text-anchor="start" x="8" y="-434.3" font-family="Times,serif" font-size="14.00"> g1 = a1</text>
<text text-anchor="start" x="8" y="-419.3" font-family="Times,serif" font-size="14.00"> mbedtls_md5_update(IntToPtrCastExpr&lt;ptr&gt;(g3), IntToPtrCastExpr&lt;ptr&gt;(a1), a2)</text>
<text text-anchor="start" x="8" y="-404.3" font-family="Times,serif" font-size="14.00"> mbedtls_md5_finish(IntToPtrCastExpr&lt;ptr&gt;(g3), IntToPtrCastExpr&lt;ptr&gt;(a3))</text>
<text text-anchor="start" x="8" y="-389.3" font-family="Times,serif" font-size="14.00"> g1 = v3</text>
<text text-anchor="start" x="8" y="-374.3" font-family="Times,serif" font-size="14.00"> v4</text>
<text text-anchor="start" x="8" y="-359.3" font-family="Times,serif" font-size="14.00"> g6 = &amp;(v4)</text>
<text text-anchor="start" x="8" y="-344.3" font-family="Times,serif" font-size="14.00"> *(IntToPtrCastExpr&lt;ptr&gt;(v3)) = 0</text>
<text text-anchor="start" x="8" y="-329.3" font-family="Times,serif" font-size="14.00"> result = (g1 + 1)</text>
<text text-anchor="start" x="8" y="-314.3" font-family="Times,serif" font-size="14.00"> g1 = result</text>
</g>
<!-- Node0x27684630&#45;&gt;Node0x218591c0 -->
<g id="edge1" class="edge"><title>Node0x27684630&#45;&gt;Node0x218591c0</title>
<path fill="none" stroke="black" d="M311.5,-577.158C311.5,-568.907 311.5,-559.571 311.5,-549.678"/>
<polygon fill="black" stroke="black" points="315,-549.62 311.5,-539.62 308,-549.62 315,-549.62"/>
</g>
<!-- Node0x21858e90 -->
<g id="node3" class="node"><title>Node0x21858e90</title>
<polygon fill="none" stroke="black" points="231,-232.5 231,-268.5 392,-268.5 392,-232.5 231,-232.5"/>
<text text-anchor="start" x="239" y="-246.8" font-family="Times,serif" font-size="14.00">while (result != g6):</text>
</g>
<!-- Node0x218591c0&#45;&gt;Node0x21858e90 -->
<g id="edge2" class="edge"><title>Node0x218591c0&#45;&gt;Node0x21858e90</title>
<path fill="none" stroke="black" d="M311.5,-306.386C311.5,-296.423 311.5,-287.097 311.5,-279.06"/>
<polygon fill="black" stroke="black" points="315,-278.96 311.5,-268.96 308,-278.96 315,-278.96"/>
</g>
<!-- Node0xf679d80 -->
<g id="node4" class="node"><title>Node0xf679d80</title>
<polygon fill="none" stroke="black" points="61,-105 61,-173 356,-173 356,-105 61,-105"/>
<text text-anchor="start" x="69" y="-157.8" font-family="Times,serif" font-size="14.00">0x806e148:</text>
<text text-anchor="start" x="69" y="-142.8" font-family="Times,serif" font-size="14.00"> *(IntToPtrCastExpr&lt;ptr&gt;(result)) = 0</text>
<text text-anchor="start" x="69" y="-127.8" font-family="Times,serif" font-size="14.00"> result = (g1 + 1)</text>
<text text-anchor="start" x="69" y="-112.8" font-family="Times,serif" font-size="14.00"> g1 = result</text>
</g>
<!-- Node0x21858e90&#45;&gt;Node0xf679d80 -->
<g id="edge3" class="edge"><title>Node0x21858e90&#45;&gt;Node0xf679d80</title>
<path fill="none" stroke="black" d="M230.79,-232.587C222.505,-227.832 215.093,-221.757 209.5,-214 203.179,-205.233 200.904,-194.238 200.699,-183.426"/>
<polygon fill="black" stroke="black" points="204.205,-183.315 201.071,-173.194 197.21,-183.06 204.205,-183.315"/>
<text text-anchor="middle" x="253.5" y="-202.8" font-family="Times,serif" font-size="14.00">result != g6</text>
</g>
<!-- Node0x218590d0 -->
<g id="node5" class="node"><title>Node0x218590d0</title>
<polygon fill="none" stroke="black" points="374,-97.5 374,-180.5 487,-180.5 487,-97.5 374,-97.5"/>
<text text-anchor="start" x="382" y="-165.3" font-family="Times,serif" font-size="14.00">0x806e152:</text>
<text text-anchor="start" x="382" y="-150.3" font-family="Times,serif" font-size="14.00"> g3 = v1</text>
<text text-anchor="start" x="382" y="-135.3" font-family="Times,serif" font-size="14.00"> v5</text>
<text text-anchor="start" x="382" y="-120.3" font-family="Times,serif" font-size="14.00"> g2 = v5</text>
<text text-anchor="start" x="382" y="-105.3" font-family="Times,serif" font-size="14.00"> return result</text>
</g>
<!-- Node0x21858e90&#45;&gt;Node0x218590d0 -->
<g id="edge4" class="edge"><title>Node0x21858e90&#45;&gt;Node0x218590d0</title>
<path fill="none" stroke="black" d="M330.094,-232.391C343.249,-220.285 361.576,-203.422 378.975,-187.411"/>
<polygon fill="black" stroke="black" points="381.369,-189.965 386.358,-180.618 376.629,-184.814 381.369,-189.965"/>
<text text-anchor="middle" x="410.5" y="-202.8" font-family="Times,serif" font-size="14.00">result == g6</text>
</g>
<!-- Node0xf679d80&#45;&gt;Node0x21858e90 -->
<g id="edge5" class="edge"><title>Node0xf679d80&#45;&gt;Node0x21858e90</title>
<path fill="none" stroke="black" d="M271.379,-173.236C281.199,-180.645 290.421,-189.249 297.5,-199 302.461,-205.833 305.664,-214.35 307.733,-222.431"/>
<polygon fill="black" stroke="black" points="304.319,-223.203 309.794,-232.274 311.171,-221.769 304.319,-223.203"/>
</g>
<!-- Node0x27686510 -->
<g id="node6" class="node"><title>Node0x27686510</title>
<polygon fill="none" stroke="black" points="403.5,-23.5 403.5,-59.5 457.5,-59.5 457.5,-23.5 403.5,-23.5"/>
<text text-anchor="start" x="411.5" y="-37.8" font-family="Times,serif" font-size="14.00">exit:</text>
</g>
<!-- Node0x218590d0&#45;&gt;Node0x27686510 -->
<g id="edge6" class="edge"><title>Node0x218590d0&#45;&gt;Node0x27686510</title>
<path fill="none" stroke="black" d="M430.5,-97.4994C430.5,-88.2058 430.5,-78.537 430.5,-69.9459"/>
<polygon fill="black" stroke="black" points="434,-69.7494 430.5,-59.7494 427,-69.7494 434,-69.7494"/>
</g>
</g>
</svg>
