<?xml version="1.0" encoding="UTF-8" standalone="no"?>
<!DOCTYPE svg PUBLIC "-//W3C//DTD SVG 1.1//EN"
 "http://www.w3.org/Graphics/SVG/1.1/DTD/svg11.dtd">
<!-- Generated by graphviz version 2.38.0 (20140413.2041)
 -->
<!-- Title: Control&#45;flow graph for function &#39;mbedtls_mpi_cmp_int(a1, a2)&#39;. Pages: 1 -->
<svg width="518pt" height="278pt"
 viewBox="0.00 0.00 518.00 278.00" xmlns="http://www.w3.org/2000/svg" xmlns:xlink="http://www.w3.org/1999/xlink">
<g id="graph0" class="graph" transform="scale(1 1) rotate(0) translate(4 274)">
<title>Control&#45;flow graph for function &#39;mbedtls_mpi_cmp_int(a1, a2)&#39;.</title>
<polygon fill="white" stroke="none" points="-4,4 -4,-274 514,-274 514,4 -4,4"/>
<text text-anchor="middle" x="255" y="-7.8" font-family="Times,serif" font-size="14.00">Control&#45;flow graph for function &#39;mbedtls_mpi_cmp_int(a1, a2)&#39;.</text>
<!-- Node0x85a7d70 -->
<g id="node1" class="node"><title>Node0x85a7d70</title>
<polygon fill="none" stroke="black" points="225.5,-216.5 225.5,-269.5 284.5,-269.5 284.5,-216.5 225.5,-216.5"/>
<text text-anchor="start" x="233.5" y="-254.3" font-family="Times,serif" font-size="14.00">entry:</text>
<text text-anchor="start" x="233.5" y="-239.3" font-family="Times,serif" font-size="14.00"> a1</text>
<text text-anchor="start" x="233.5" y="-224.3" font-family="Times,serif" font-size="14.00"> a2</text>
</g>
<!-- Node0x26423510 -->
<g id="node2" class="node"><title>Node0x26423510</title>
<polygon fill="none" stroke="black" points="0,-96.5 0,-179.5 510,-179.5 510,-96.5 0,-96.5"/>
<text text-anchor="start" x="8" y="-164.3" font-family="Times,serif" font-size="14.00">v1 = ((a2 &gt;&gt; 31) | 1)</text>
<text text-anchor="start" x="8" y="-149.3" font-family="Times,serif" font-size="14.00"> result = mbedtls_mpi_cmp_mpi(IntToPtrCastExpr&lt;ptr&gt;(a1), &amp;(v1))</text>
<text text-anchor="start" x="8" y="-134.3" font-family="Times,serif" font-size="14.00"> v2</text>
<text text-anchor="start" x="8" y="-119.3" font-family="Times,serif" font-size="14.00"> g2 = v2</text>
<text text-anchor="start" x="8" y="-104.3" font-family="Times,serif" font-size="14.00"> return result</text>
</g>
<!-- Node0x85a7d70&#45;&gt;Node0x26423510 -->
<g id="edge1" class="edge"><title>Node0x85a7d70&#45;&gt;Node0x26423510</title>
<path fill="none" stroke="black" d="M255,-216.274C255,-208.222 255,-199.037 255,-189.878"/>
<polygon fill="black" stroke="black" points="258.5,-189.61 255,-179.61 251.5,-189.61 258.5,-189.61"/>
</g>
<!-- Node0x85a8210 -->
<g id="node3" class="node"><title>Node0x85a8210</title>
<polygon fill="none" stroke="black" points="228,-23.5 228,-59.5 282,-59.5 282,-23.5 228,-23.5"/>
<text text-anchor="start" x="236" y="-37.8" font-family="Times,serif" font-size="14.00">exit:</text>
</g>
<!-- Node0x26423510&#45;&gt;Node0x85a8210 -->
<g id="edge2" class="edge"><title>Node0x26423510&#45;&gt;Node0x85a8210</title>
<path fill="none" stroke="black" d="M255,-96.3751C255,-87.4706 255,-78.246 255,-70"/>
<polygon fill="black" stroke="black" points="258.5,-69.8327 255,-59.8328 251.5,-69.8328 258.5,-69.8327"/>
</g>
</g>
</svg>
