<?xml version="1.0" encoding="UTF-8" standalone="no"?>
<!DOCTYPE svg PUBLIC "-//W3C//DTD SVG 1.1//EN"
 "http://www.w3.org/Graphics/SVG/1.1/DTD/svg11.dtd">
<!-- Generated by graphviz version 2.38.0 (20140413.2041)
 -->
<!-- Title: Control&#45;flow graph for function &#39;mbedtls_rsa_set_padding(result, a2, a3)&#39;. Pages: 1 -->
<svg width="551pt" height="338pt"
 viewBox="0.00 0.00 551.00 338.00" xmlns="http://www.w3.org/2000/svg" xmlns:xlink="http://www.w3.org/1999/xlink">
<g id="graph0" class="graph" transform="scale(1 1) rotate(0) translate(4 334)">
<title>Control&#45;flow graph for function &#39;mbedtls_rsa_set_padding(result, a2, a3)&#39;.</title>
<polygon fill="white" stroke="none" points="-4,4 -4,-334 547,-334 547,4 -4,4"/>
<text text-anchor="middle" x="271.5" y="-7.8" font-family="Times,serif" font-size="14.00">Control&#45;flow graph for function &#39;mbedtls_rsa_set_padding(result, a2, a3)&#39;.</text>
<!-- Node0xb4ceea0 -->
<g id="node1" class="node"><title>Node0xb4ceea0</title>
<polygon fill="none" stroke="black" points="240,-261.5 240,-329.5 303,-329.5 303,-261.5 240,-261.5"/>
<text text-anchor="start" x="248" y="-314.3" font-family="Times,serif" font-size="14.00">entry:</text>
<text text-anchor="start" x="248" y="-299.3" font-family="Times,serif" font-size="14.00"> result</text>
<text text-anchor="start" x="248" y="-284.3" font-family="Times,serif" font-size="14.00"> a2</text>
<text text-anchor="start" x="248" y="-269.3" font-family="Times,serif" font-size="14.00"> a3</text>
</g>
<!-- Node0xb4cedf0 -->
<g id="node2" class="node"><title>Node0xb4cedf0</title>
<polygon fill="none" stroke="black" points="90.5,-96.5 90.5,-224.5 452.5,-224.5 452.5,-96.5 90.5,-96.5"/>
<text text-anchor="start" x="98.5" y="-209.3" font-family="Times,serif" font-size="14.00">0x804f390:</text>
<text text-anchor="start" x="98.5" y="-194.3" font-family="Times,serif" font-size="14.00"> g1 = result</text>
<text text-anchor="start" x="98.5" y="-179.3" font-family="Times,serif" font-size="14.00"> *(IntToPtrCastExpr&lt;ptr&gt;((result + 164))) = a2</text>
<text text-anchor="start" x="98.5" y="-164.3" font-family="Times,serif" font-size="14.00"> g6 = a3</text>
<text text-anchor="start" x="98.5" y="-149.3" font-family="Times,serif" font-size="14.00"> *(IntToPtrCastExpr&lt;ptr&gt;((result + 168))) = a3</text>
<text text-anchor="start" x="98.5" y="-134.3" font-family="Times,serif" font-size="14.00"> v1</text>
<text text-anchor="start" x="98.5" y="-119.3" font-family="Times,serif" font-size="14.00"> g2 = v1</text>
<text text-anchor="start" x="98.5" y="-104.3" font-family="Times,serif" font-size="14.00"> return result</text>
</g>
<!-- Node0xb4ceea0&#45;&gt;Node0xb4cedf0 -->
<g id="edge1" class="edge"><title>Node0xb4ceea0&#45;&gt;Node0xb4cedf0</title>
<path fill="none" stroke="black" d="M271.5,-261.282C271.5,-253.089 271.5,-243.987 271.5,-234.71"/>
<polygon fill="black" stroke="black" points="275,-234.609 271.5,-224.609 268,-234.609 275,-234.609"/>
</g>
<!-- Node0xb4cf680 -->
<g id="node3" class="node"><title>Node0xb4cf680</title>
<polygon fill="none" stroke="black" points="244.5,-23.5 244.5,-59.5 298.5,-59.5 298.5,-23.5 244.5,-23.5"/>
<text text-anchor="start" x="252.5" y="-37.8" font-family="Times,serif" font-size="14.00">exit:</text>
</g>
<!-- Node0xb4cedf0&#45;&gt;Node0xb4cf680 -->
<g id="edge2" class="edge"><title>Node0xb4cedf0&#45;&gt;Node0xb4cf680</title>
<path fill="none" stroke="black" d="M271.5,-96.206C271.5,-87.0257 271.5,-78.004 271.5,-70.0532"/>
<polygon fill="black" stroke="black" points="275,-69.9607 271.5,-59.9608 268,-69.9608 275,-69.9607"/>
</g>
</g>
</svg>
