<?xml version="1.0" encoding="UTF-8" standalone="no"?>
<!DOCTYPE svg PUBLIC "-//W3C//DTD SVG 1.1//EN"
 "http://www.w3.org/Graphics/SVG/1.1/DTD/svg11.dtd">
<!-- Generated by graphviz version 2.38.0 (20140413.2041)
 -->
<!-- Title: Control&#45;flow graph for function &#39;mbedtls_md_list()&#39;. Pages: 1 -->
<svg width="392pt" height="261pt"
 viewBox="0.00 0.00 392.00 261.00" xmlns="http://www.w3.org/2000/svg" xmlns:xlink="http://www.w3.org/1999/xlink">
<g id="graph0" class="graph" transform="scale(1 1) rotate(0) translate(4 257)">
<title>Control&#45;flow graph for function &#39;mbedtls_md_list()&#39;.</title>
<polygon fill="white" stroke="none" points="-4,4 -4,-257 388,-257 388,4 -4,4"/>
<text text-anchor="middle" x="192" y="-7.8" font-family="Times,serif" font-size="14.00">Control&#45;flow graph for function &#39;mbedtls_md_list()&#39;.</text>
<!-- Node0x1816e110 -->
<g id="node1" class="node"><title>Node0x1816e110</title>
<polygon fill="none" stroke="black" points="162.5,-216.5 162.5,-252.5 221.5,-252.5 221.5,-216.5 162.5,-216.5"/>
<text text-anchor="start" x="170.5" y="-230.8" font-family="Times,serif" font-size="14.00">entry:</text>
</g>
<!-- Node0x18170440 -->
<g id="node2" class="node"><title>Node0x18170440</title>
<polygon fill="none" stroke="black" points="126.5,-96.5 126.5,-179.5 257.5,-179.5 257.5,-96.5 126.5,-96.5"/>
<text text-anchor="start" x="134.5" y="-164.3" font-family="Times,serif" font-size="14.00">0x80621b0:</text>
<text text-anchor="start" x="134.5" y="-149.3" font-family="Times,serif" font-size="14.00"> g1 = &amp;(g102)</text>
<text text-anchor="start" x="134.5" y="-134.3" font-family="Times,serif" font-size="14.00"> v1</text>
<text text-anchor="start" x="134.5" y="-119.3" font-family="Times,serif" font-size="14.00"> g2 = v1</text>
<text text-anchor="start" x="134.5" y="-104.3" font-family="Times,serif" font-size="14.00"> return &amp;(g102)</text>
</g>
<!-- Node0x1816e110&#45;&gt;Node0x18170440 -->
<g id="edge1" class="edge"><title>Node0x1816e110&#45;&gt;Node0x18170440</title>
<path fill="none" stroke="black" d="M192,-216.167C192,-208.654 192,-199.427 192,-189.999"/>
<polygon fill="black" stroke="black" points="195.5,-189.762 192,-179.762 188.5,-189.762 195.5,-189.762"/>
</g>
<!-- Node0x181703e0 -->
<g id="node3" class="node"><title>Node0x181703e0</title>
<polygon fill="none" stroke="black" points="165,-23.5 165,-59.5 219,-59.5 219,-23.5 165,-23.5"/>
<text text-anchor="start" x="173" y="-37.8" font-family="Times,serif" font-size="14.00">exit:</text>
</g>
<!-- Node0x18170440&#45;&gt;Node0x181703e0 -->
<g id="edge2" class="edge"><title>Node0x18170440&#45;&gt;Node0x181703e0</title>
<path fill="none" stroke="black" d="M192,-96.3751C192,-87.4706 192,-78.246 192,-70"/>
<polygon fill="black" stroke="black" points="195.5,-69.8327 192,-59.8328 188.5,-69.8328 195.5,-69.8327"/>
</g>
</g>
</svg>
