<?xml version="1.0" encoding="UTF-8" standalone="no"?>
<!DOCTYPE svg PUBLIC "-//W3C//DTD SVG 1.1//EN"
 "http://www.w3.org/Graphics/SVG/1.1/DTD/svg11.dtd">
<!-- Generated by graphviz version 2.38.0 (20140413.2041)
 -->
<!-- Title: Control&#45;flow graph for function &#39;mbedtls_mpi_read_binary(a1, *a2, a3)&#39;. Pages: 1 -->
<svg width="1797pt" height="3312pt"
 viewBox="0.00 0.00 1796.50 3312.00" xmlns="http://www.w3.org/2000/svg" xmlns:xlink="http://www.w3.org/1999/xlink">
<g id="graph0" class="graph" transform="scale(1 1) rotate(0) translate(4 3308)">
<title>Control&#45;flow graph for function &#39;mbedtls_mpi_read_binary(a1, *a2, a3)&#39;.</title>
<polygon fill="white" stroke="none" points="-4,4 -4,-3308 1792.5,-3308 1792.5,4 -4,4"/>
<text text-anchor="middle" x="894.25" y="-7.8" font-family="Times,serif" font-size="14.00">Control&#45;flow graph for function &#39;mbedtls_mpi_read_binary(a1, *a2, a3)&#39;.</text>
<!-- Node0x8d7d140 -->
<g id="node1" class="node"><title>Node0x8d7d140</title>
<polygon fill="none" stroke="black" points="1282.5,-3235.5 1282.5,-3303.5 1341.5,-3303.5 1341.5,-3235.5 1282.5,-3235.5"/>
<text text-anchor="start" x="1290.5" y="-3288.3" font-family="Times,serif" font-size="14.00">entry:</text>
<text text-anchor="start" x="1290.5" y="-3273.3" font-family="Times,serif" font-size="14.00"> a1</text>
<text text-anchor="start" x="1290.5" y="-3258.3" font-family="Times,serif" font-size="14.00"> a2</text>
<text text-anchor="start" x="1290.5" y="-3243.3" font-family="Times,serif" font-size="14.00"> a3</text>
</g>
<!-- Node0x8d7d350 -->
<g id="node2" class="node"><title>Node0x8d7d350</title>
<polygon fill="none" stroke="black" points="1174,-2889.5 1174,-3197.5 1450,-3197.5 1450,-2889.5 1174,-2889.5"/>
<text text-anchor="start" x="1182" y="-3182.3" font-family="Times,serif" font-size="14.00">v1 = g5</text>
<text text-anchor="start" x="1182" y="-3167.3" font-family="Times,serif" font-size="14.00"> v2 = g7</text>
<text text-anchor="start" x="1182" y="-3152.3" font-family="Times,serif" font-size="14.00"> v3 = g3</text>
<text text-anchor="start" x="1182" y="-3137.3" font-family="Times,serif" font-size="14.00"> g5 = a3</text>
<text text-anchor="start" x="1182" y="-3122.3" font-family="Times,serif" font-size="14.00"> v4 = PtrToIntCastExpr&lt;int32&gt;(a2)</text>
<text text-anchor="start" x="1182" y="-3107.3" font-family="Times,serif" font-size="14.00"> g7 = v4</text>
<text text-anchor="start" x="1182" y="-3092.3" font-family="Times,serif" font-size="14.00"> v5</text>
<text text-anchor="start" x="1182" y="-3077.3" font-family="Times,serif" font-size="14.00"> v6</text>
<text text-anchor="start" x="1182" y="-3062.3" font-family="Times,serif" font-size="14.00"> v7</text>
<text text-anchor="start" x="1182" y="-3047.3" font-family="Times,serif" font-size="14.00"> v8</text>
<text text-anchor="start" x="1182" y="-3032.3" font-family="Times,serif" font-size="14.00"> v9</text>
<text text-anchor="start" x="1182" y="-3017.3" font-family="Times,serif" font-size="14.00"> v10</text>
<text text-anchor="start" x="1182" y="-3002.3" font-family="Times,serif" font-size="14.00"> v11</text>
<text text-anchor="start" x="1182" y="-2987.3" font-family="Times,serif" font-size="14.00"> v12</text>
<text text-anchor="start" x="1182" y="-2972.3" font-family="Times,serif" font-size="14.00"> v13</text>
<text text-anchor="start" x="1182" y="-2957.3" font-family="Times,serif" font-size="14.00"> v14</text>
<text text-anchor="start" x="1182" y="-2942.3" font-family="Times,serif" font-size="14.00"> result</text>
<text text-anchor="start" x="1182" y="-2927.3" font-family="Times,serif" font-size="14.00"> v15</text>
<text text-anchor="start" x="1182" y="-2912.3" font-family="Times,serif" font-size="14.00"> v16</text>
<text text-anchor="start" x="1182" y="-2897.3" font-family="Times,serif" font-size="14.00"> v17</text>
</g>
<!-- Node0x8d7d140&#45;&gt;Node0x8d7d350 -->
<g id="edge1" class="edge"><title>Node0x8d7d140&#45;&gt;Node0x8d7d350</title>
<path fill="none" stroke="black" d="M1312,-3235.45C1312,-3227.23 1312,-3217.87 1312,-3207.79"/>
<polygon fill="black" stroke="black" points="1315.5,-3207.5 1312,-3197.5 1308.5,-3207.5 1315.5,-3207.5"/>
</g>
<!-- Node0xdfc1480 -->
<g id="node3" class="node"><title>Node0xdfc1480</title>
<polygon fill="none" stroke="black" points="1262.5,-2815.5 1262.5,-2851.5 1361.5,-2851.5 1361.5,-2815.5 1262.5,-2815.5"/>
<text text-anchor="start" x="1270.5" y="-2829.8" font-family="Times,serif" font-size="14.00">if (a3 != 0):</text>
</g>
<!-- Node0x8d7d350&#45;&gt;Node0xdfc1480 -->
<g id="edge2" class="edge"><title>Node0x8d7d350&#45;&gt;Node0xdfc1480</title>
<path fill="none" stroke="black" d="M1312,-2889.42C1312,-2879.16 1312,-2869.73 1312,-2861.68"/>
<polygon fill="black" stroke="black" points="1315.5,-2861.63 1312,-2851.63 1308.5,-2861.63 1315.5,-2861.63"/>
</g>
<!-- Node0x8d7fc30 -->
<g id="node4" class="node"><title>Node0x8d7fc30</title>
<polygon fill="none" stroke="black" points="1191,-2725.5 1191,-2763.5 1319,-2763.5 1319,-2725.5 1191,-2725.5"/>
<text text-anchor="start" x="1199" y="-2748.3" font-family="Times,serif" font-size="14.00">0x80573b7:</text>
<text text-anchor="start" x="1199" y="-2733.3" font-family="Times,serif" font-size="14.00"> if (*(a2) == 0):</text>
</g>
<!-- Node0xdfc1480&#45;&gt;Node0x8d7fc30 -->
<g id="edge3" class="edge"><title>Node0xdfc1480&#45;&gt;Node0x8d7fc30</title>
<path fill="none" stroke="black" d="M1294.05,-2815.37C1288.8,-2809.81 1283.32,-2803.42 1279,-2797 1274.07,-2789.67 1269.65,-2781.16 1265.98,-2773.2"/>
<polygon fill="black" stroke="black" points="1269.12,-2771.64 1261.91,-2763.88 1262.71,-2774.44 1269.12,-2771.64"/>
<text text-anchor="middle" x="1306" y="-2785.8" font-family="Times,serif" font-size="14.00">a3 != 0</text>
</g>
<!-- Node0xdfc1e30 -->
<g id="node5" class="node"><title>Node0xdfc1e30</title>
<polygon fill="none" stroke="black" points="998,-1955.5 998,-2068.5 1522,-2068.5 1522,-1955.5 998,-1955.5"/>
<text text-anchor="start" x="1006" y="-2053.3" font-family="Times,serif" font-size="14.00">0x8057468:</text>
<text text-anchor="start" x="1006" y="-2038.3" font-family="Times,serif" font-size="14.00"> g3 = 0</text>
<text text-anchor="start" x="1006" y="-2023.3" font-family="Times,serif" font-size="14.00"> v8 = a3</text>
<text text-anchor="start" x="1006" y="-2008.3" font-family="Times,serif" font-size="14.00"> v13 = ((v8 % 4) != 0)</text>
<text text-anchor="start" x="1006" y="-1993.3" font-family="Times,serif" font-size="14.00"> g6 = v13</text>
<text text-anchor="start" x="1006" y="-1978.3" font-family="Times,serif" font-size="14.00"> v5 = mbedtls_mpi_grow(a1, IntToPtrCastExpr&lt;ptr&gt;((v13 + (v8 / 4))))</text>
<text text-anchor="start" x="1006" y="-1963.3" font-family="Times,serif" font-size="14.00"> result = v5</text>
</g>
<!-- Node0xdfc1480&#45;&gt;Node0xdfc1e30 -->
<g id="edge4" class="edge"><title>Node0xdfc1480&#45;&gt;Node0xdfc1e30</title>
<path fill="none" stroke="black" d="M1323.46,-2815.32C1333.67,-2798.33 1347,-2771.22 1347,-2745.5 1347,-2745.5 1347,-2745.5 1347,-2124.5 1347,-2107.36 1340.53,-2091.28 1331.12,-2076.95"/>
<polygon fill="black" stroke="black" points="1333.92,-2074.85 1325.27,-2068.73 1328.22,-2078.9 1333.92,-2074.85"/>
<text text-anchor="middle" x="1377" y="-2481.3" font-family="Times,serif" font-size="14.00">a3 == 0</text>
</g>
<!-- Node0x8d7fc30&#45;&gt;Node0xdfc1e30 -->
<g id="edge6" class="edge"><title>Node0x8d7fc30&#45;&gt;Node0xdfc1e30</title>
<path fill="none" stroke="black" d="M1256.66,-2725.19C1258.12,-2707.59 1260,-2680.25 1260,-2656.5 1260,-2656.5 1260,-2656.5 1260,-2124.5 1260,-2109.72 1260,-2093.83 1260,-2078.81"/>
<polygon fill="black" stroke="black" points="1263.5,-2078.58 1260,-2068.58 1256.5,-2078.58 1263.5,-2078.58"/>
<text text-anchor="middle" x="1296" y="-2428.8" font-family="Times,serif" font-size="14.00">*(a2) != 0</text>
</g>
<!-- Node0xdfc33b0 -->
<g id="node6" class="node"><title>Node0xdfc33b0</title>
<polygon fill="none" stroke="black" points="868.5,-2637.5 868.5,-2673.5 941.5,-2673.5 941.5,-2637.5 868.5,-2637.5"/>
<text text-anchor="start" x="876.5" y="-2651.8" font-family="Times,serif" font-size="14.00">v18 = 0</text>
</g>
<!-- Node0x8d7fc30&#45;&gt;Node0xdfc33b0 -->
<g id="edge5" class="edge"><title>Node0x8d7fc30&#45;&gt;Node0xdfc33b0</title>
<path fill="none" stroke="black" d="M1190.8,-2727.54C1121.64,-2710.35 1013.24,-2683.4 951.729,-2668.12"/>
<polygon fill="black" stroke="black" points="952.457,-2664.69 941.908,-2665.67 950.768,-2671.48 952.457,-2664.69"/>
<text text-anchor="middle" x="1140" y="-2695.8" font-family="Times,serif" font-size="14.00">*(a2) == 0</text>
</g>
<!-- Node0x8d7f890 -->
<g id="node7" class="node"><title>Node0x8d7f890</title>
<polygon fill="none" stroke="black" points="1207.5,-1881.5 1207.5,-1917.5 1312.5,-1917.5 1312.5,-1881.5 1207.5,-1881.5"/>
<text text-anchor="start" x="1215.5" y="-1895.8" font-family="Times,serif" font-size="14.00">if (v5 == 0):</text>
</g>
<!-- Node0xdfc1e30&#45;&gt;Node0x8d7f890 -->
<g id="edge7" class="edge"><title>Node0xdfc1e30&#45;&gt;Node0x8d7f890</title>
<path fill="none" stroke="black" d="M1260,-1955.43C1260,-1945.86 1260,-1936.31 1260,-1927.91"/>
<polygon fill="black" stroke="black" points="1263.5,-1927.64 1260,-1917.64 1256.5,-1927.64 1263.5,-1927.64"/>
</g>
<!-- Node0xdfc3550 -->
<g id="node8" class="node"><title>Node0xdfc3550</title>
<polygon fill="none" stroke="black" points="699.5,-2563.5 699.5,-2599.5 796.5,-2599.5 796.5,-2563.5 699.5,-2563.5"/>
<text text-anchor="start" x="707.5" y="-2577.8" font-family="Times,serif" font-size="14.00">while True:</text>
</g>
<!-- Node0xdfc33b0&#45;&gt;Node0xdfc3550 -->
<g id="edge8" class="edge"><title>Node0xdfc33b0&#45;&gt;Node0xdfc3550</title>
<path fill="none" stroke="black" d="M868.19,-2637.62C846.107,-2627.49 817.822,-2614.52 794.24,-2603.71"/>
<polygon fill="black" stroke="black" points="795.672,-2600.51 785.123,-2599.52 792.754,-2606.87 795.672,-2600.51"/>
</g>
<!-- Node0xdfc31a0 -->
<g id="node9" class="node"><title>Node0xdfc31a0</title>
<polygon fill="none" stroke="black" points="1072.5,-1776.5 1072.5,-1829.5 1487.5,-1829.5 1487.5,-1776.5 1072.5,-1776.5"/>
<text text-anchor="start" x="1080.5" y="-1814.3" font-family="Times,serif" font-size="14.00">0x8057408:</text>
<text text-anchor="start" x="1080.5" y="-1799.3" font-family="Times,serif" font-size="14.00"> g4 = a1</text>
<text text-anchor="start" x="1080.5" y="-1784.3" font-family="Times,serif" font-size="14.00"> v6 = mbedtls_mpi_lset(IntToPtrCastExpr&lt;ptr&gt;(a1), 0)</text>
</g>
<!-- Node0x8d7f890&#45;&gt;Node0xdfc31a0 -->
<g id="edge9" class="edge"><title>Node0x8d7f890&#45;&gt;Node0xdfc31a0</title>
<path fill="none" stroke="black" d="M1263.67,-1881.17C1266.12,-1869.59 1269.43,-1853.94 1272.43,-1839.76"/>
<polygon fill="black" stroke="black" points="1275.9,-1840.29 1274.54,-1829.78 1269.05,-1838.84 1275.9,-1840.29"/>
<text text-anchor="middle" x="1301" y="-1851.8" font-family="Times,serif" font-size="14.00">v5 == 0</text>
</g>
<!-- Node0x8d7f9b0 -->
<g id="node10" class="node"><title>Node0x8d7f9b0</title>
<polygon fill="none" stroke="black" points="1020.5,-1242.5 1020.5,-1340.5 1133.5,-1340.5 1133.5,-1242.5 1020.5,-1242.5"/>
<text text-anchor="start" x="1028.5" y="-1325.3" font-family="Times,serif" font-size="14.00">0x80573fc:</text>
<text text-anchor="start" x="1028.5" y="-1310.3" font-family="Times,serif" font-size="14.00"> g3 = v3</text>
<text text-anchor="start" x="1028.5" y="-1295.3" font-family="Times,serif" font-size="14.00"> g7 = v2</text>
<text text-anchor="start" x="1028.5" y="-1280.3" font-family="Times,serif" font-size="14.00"> g5 = v1</text>
<text text-anchor="start" x="1028.5" y="-1265.3" font-family="Times,serif" font-size="14.00"> g2 = v7</text>
<text text-anchor="start" x="1028.5" y="-1250.3" font-family="Times,serif" font-size="14.00"> return result</text>
</g>
<!-- Node0x8d7f890&#45;&gt;Node0x8d7f9b0 -->
<g id="edge10" class="edge"><title>Node0x8d7f890&#45;&gt;Node0x8d7f9b0</title>
<path fill="none" stroke="black" d="M1207.41,-1897.42C1143.75,-1893 1045,-1874.74 1045,-1804 1045,-1804 1045,-1804 1045,-1404 1045,-1386.24 1048.8,-1367.48 1053.78,-1350.52"/>
<polygon fill="black" stroke="black" points="1057.18,-1351.36 1056.82,-1340.77 1050.5,-1349.27 1057.18,-1351.36"/>
<text text-anchor="middle" x="1072" y="-1618.3" font-family="Times,serif" font-size="14.00">v5 != 0</text>
</g>
<!-- Node0xdfc37d0 -->
<g id="node11" class="node"><title>Node0xdfc37d0</title>
<polygon fill="none" stroke="black" points="682.5,-2458.5 682.5,-2511.5 813.5,-2511.5 813.5,-2458.5 682.5,-2458.5"/>
<text text-anchor="start" x="690.5" y="-2496.3" font-family="Times,serif" font-size="14.00">v19 = (v18 + 1)</text>
<text text-anchor="start" x="690.5" y="-2481.3" font-family="Times,serif" font-size="14.00"> g3 = v19</text>
<text text-anchor="start" x="690.5" y="-2466.3" font-family="Times,serif" font-size="14.00"> v20 = v19</text>
</g>
<!-- Node0xdfc3550&#45;&gt;Node0xdfc37d0 -->
<g id="edge11" class="edge"><title>Node0xdfc3550&#45;&gt;Node0xdfc37d0</title>
<path fill="none" stroke="black" d="M748,-2563.17C748,-2551.7 748,-2536.25 748,-2522.18"/>
<polygon fill="black" stroke="black" points="751.5,-2521.78 748,-2511.78 744.5,-2521.78 751.5,-2521.78"/>
<text text-anchor="middle" x="765" y="-2533.8" font-family="Times,serif" font-size="14.00">True</text>
</g>
<!-- Node0xf1cb520 -->
<g id="node12" class="node"><title>Node0xf1cb520</title>
<polygon fill="none" stroke="black" points="1164.5,-1700.5 1164.5,-1738.5 1269.5,-1738.5 1269.5,-1700.5 1164.5,-1700.5"/>
<text text-anchor="start" x="1172.5" y="-1723.3" font-family="Times,serif" font-size="14.00">if (v6 == 0):</text>
<text text-anchor="start" x="1172.5" y="-1708.3" font-family="Times,serif" font-size="14.00"> else:</text>
</g>
<!-- Node0xdfc31a0&#45;&gt;Node0xf1cb520 -->
<g id="edge12" class="edge"><title>Node0xdfc31a0&#45;&gt;Node0xf1cb520</title>
<path fill="none" stroke="black" d="M1260.07,-1776.21C1252.76,-1766.76 1244.49,-1756.07 1237.17,-1746.59"/>
<polygon fill="black" stroke="black" points="1239.91,-1744.41 1231.02,-1738.64 1234.37,-1748.69 1239.91,-1744.41"/>
</g>
<!-- Node0x8d7d910 -->
<g id="node13" class="node"><title>Node0x8d7d910</title>
<polygon fill="none" stroke="black" points="916,-382.5 916,-418.5 970,-418.5 970,-382.5 916,-382.5"/>
<text text-anchor="start" x="924" y="-396.8" font-family="Times,serif" font-size="14.00">exit:</text>
</g>
<!-- Node0x8d7f9b0&#45;&gt;Node0x8d7d910 -->
<g id="edge13" class="edge"><title>Node0x8d7f9b0&#45;&gt;Node0x8d7d910</title>
<path fill="none" stroke="black" d="M1020.4,-1263.81C977.185,-1239.06 925,-1197.75 925,-1142.5 925,-1142.5 925,-1142.5 925,-518.5 925,-487.49 931.253,-452.388 936.389,-428.792"/>
<polygon fill="black" stroke="black" points="939.853,-429.341 938.643,-418.816 933.025,-427.798 939.853,-429.341"/>
</g>
<!-- Node0x8d7f680 -->
<g id="node14" class="node"><title>Node0x8d7f680</title>
<polygon fill="none" stroke="black" points="693,-2370.5 693,-2406.5 803,-2406.5 803,-2370.5 693,-2370.5"/>
<text text-anchor="start" x="701" y="-2384.8" font-family="Times,serif" font-size="14.00">if (v19 &lt; a3):</text>
</g>
<!-- Node0xdfc37d0&#45;&gt;Node0x8d7f680 -->
<g id="edge14" class="edge"><title>Node0xdfc37d0&#45;&gt;Node0x8d7f680</title>
<path fill="none" stroke="black" d="M748,-2458.18C748,-2445.37 748,-2429.9 748,-2416.88"/>
<polygon fill="black" stroke="black" points="751.5,-2416.64 748,-2406.64 744.5,-2416.64 751.5,-2416.64"/>
</g>
<!-- Node0xdfc35f0 -->
<g id="node15" class="node"><title>Node0xdfc35f0</title>
<polygon fill="none" stroke="black" points="1166.5,-1595.5 1166.5,-1648.5 1267.5,-1648.5 1267.5,-1595.5 1166.5,-1595.5"/>
<text text-anchor="start" x="1174.5" y="-1633.3" font-family="Times,serif" font-size="14.00">0x8057422:</text>
<text text-anchor="start" x="1174.5" y="-1618.3" font-family="Times,serif" font-size="14.00"> v9 = g5</text>
<text text-anchor="start" x="1174.5" y="-1603.3" font-family="Times,serif" font-size="14.00"> v10 = g3</text>
</g>
<!-- Node0xf1cb520&#45;&gt;Node0xdfc35f0 -->
<g id="edge15" class="edge"><title>Node0xf1cb520&#45;&gt;Node0xdfc35f0</title>
<path fill="none" stroke="black" d="M1217,-1700.09C1217,-1688.42 1217,-1672.95 1217,-1658.93"/>
<polygon fill="black" stroke="black" points="1220.5,-1658.58 1217,-1648.58 1213.5,-1658.58 1220.5,-1658.58"/>
<text text-anchor="middle" x="1247" y="-1670.8" font-family="Times,serif" font-size="14.00">v6 == 0</text>
</g>
<!-- Node0x8d7ee40 -->
<g id="node16" class="node"><title>Node0x8d7ee40</title>
<polygon fill="none" stroke="black" points="1074.5,-1540.5 1074.5,-1576.5 1171.5,-1576.5 1171.5,-1540.5 1074.5,-1540.5"/>
<text text-anchor="start" x="1082.5" y="-1554.8" font-family="Times,serif" font-size="14.00">result = v6</text>
</g>
<!-- Node0xf1cb520&#45;&gt;Node0x8d7ee40 -->
<g id="edge16" class="edge"><title>Node0xf1cb520&#45;&gt;Node0x8d7ee40</title>
<path fill="none" stroke="black" d="M1179.39,-1700.44C1171.78,-1695.36 1164.45,-1689.21 1159,-1682 1137.73,-1653.87 1128.99,-1613.4 1125.43,-1586.78"/>
<polygon fill="black" stroke="black" points="1128.88,-1586.16 1124.23,-1576.64 1121.93,-1586.98 1128.88,-1586.16"/>
<text text-anchor="middle" x="1186" y="-1670.8" font-family="Times,serif" font-size="14.00">v6 != 0</text>
</g>
<!-- Node0xdfc42d0 -->
<g id="node17" class="node"><title>Node0xdfc42d0</title>
<polygon fill="none" stroke="black" points="674.5,-2280.5 674.5,-2318.5 1037.5,-2318.5 1037.5,-2280.5 674.5,-2280.5"/>
<text text-anchor="start" x="682.5" y="-2303.3" font-family="Times,serif" font-size="14.00">0x80573c8:</text>
<text text-anchor="start" x="682.5" y="-2288.3" font-family="Times,serif" font-size="14.00"> if (*(IntToPtrCastExpr&lt;ptr&gt;((v19 + v4))) != 0):</text>
</g>
<!-- Node0x8d7f680&#45;&gt;Node0xdfc42d0 -->
<g id="edge17" class="edge"><title>Node0x8d7f680&#45;&gt;Node0xdfc42d0</title>
<path fill="none" stroke="black" d="M769.337,-2370.31C785.437,-2357.34 807.74,-2339.38 825.689,-2324.92"/>
<polygon fill="black" stroke="black" points="828,-2327.55 833.592,-2318.55 823.608,-2322.1 828,-2327.55"/>
<text text-anchor="middle" x="841.5" y="-2340.8" font-family="Times,serif" font-size="14.00">v19 &lt; a3</text>
</g>
<!-- Node0x8d7f6e0 -->
<g id="node18" class="node"><title>Node0x8d7f6e0</title>
<polygon fill="none" stroke="black" points="385,-2163.5 385,-2261.5 909,-2261.5 909,-2163.5 385,-2163.5"/>
<text text-anchor="start" x="393" y="-2246.3" font-family="Times,serif" font-size="14.00">0x80573d5:</text>
<text text-anchor="start" x="393" y="-2231.3" font-family="Times,serif" font-size="14.00"> v8 = (a3 &#45; v20)</text>
<text text-anchor="start" x="393" y="-2216.3" font-family="Times,serif" font-size="14.00"> v13 = ((v8 % 4) != 0)</text>
<text text-anchor="start" x="393" y="-2201.3" font-family="Times,serif" font-size="14.00"> g6 = v13</text>
<text text-anchor="start" x="393" y="-2186.3" font-family="Times,serif" font-size="14.00"> v5 = mbedtls_mpi_grow(a1, IntToPtrCastExpr&lt;ptr&gt;((v13 + (v8 / 4))))</text>
<text text-anchor="start" x="393" y="-2171.3" font-family="Times,serif" font-size="14.00"> result = v5</text>
</g>
<!-- Node0x8d7f680&#45;&gt;Node0x8d7f6e0 -->
<g id="edge18" class="edge"><title>Node0x8d7f680&#45;&gt;Node0x8d7f6e0</title>
<path fill="none" stroke="black" d="M717.964,-2370.42C699.699,-2358.42 677.546,-2340.67 665,-2319 656.749,-2304.75 652.054,-2287.73 649.441,-2271.56"/>
<polygon fill="black" stroke="black" points="652.905,-2271.06 648.07,-2261.63 645.971,-2272.01 652.905,-2271.06"/>
<text text-anchor="middle" x="730.5" y="-2340.8" font-family="Times,serif" font-size="14.00">v19 &gt;= a3</text>
</g>
<!-- Node0xdfc3690 -->
<g id="node19" class="node"><title>Node0xdfc3690</title>
<polygon fill="none" stroke="black" points="1162,-1483.5 1162,-1521.5 1272,-1521.5 1272,-1483.5 1162,-1483.5"/>
<text text-anchor="start" x="1170" y="-1506.3" font-family="Times,serif" font-size="14.00">if (v9 &gt; v10):</text>
<text text-anchor="start" x="1170" y="-1491.3" font-family="Times,serif" font-size="14.00"> else:</text>
</g>
<!-- Node0xdfc35f0&#45;&gt;Node0xdfc3690 -->
<g id="edge19" class="edge"><title>Node0xdfc35f0&#45;&gt;Node0xdfc3690</title>
<path fill="none" stroke="black" d="M1217,-1595.21C1217,-1576.4 1217,-1550.93 1217,-1531.6"/>
<polygon fill="black" stroke="black" points="1220.5,-1531.58 1217,-1521.58 1213.5,-1531.58 1220.5,-1531.58"/>
</g>
<!-- Node0x8d7ee40&#45;&gt;Node0x8d7f9b0 -->
<g id="edge20" class="edge"><title>Node0x8d7ee40&#45;&gt;Node0x8d7f9b0</title>
<path fill="none" stroke="black" d="M1119.98,-1540.11C1113.43,-1502.34 1097.63,-1411.33 1087.12,-1350.81"/>
<polygon fill="black" stroke="black" points="1090.51,-1349.88 1085.35,-1340.62 1083.62,-1351.08 1090.51,-1349.88"/>
</g>
<!-- Node0x1b8fc6d0 -->
<g id="node20" class="node"><title>Node0x1b8fc6d0</title>
<polygon fill="none" stroke="black" points="924,-2106.5 924,-2144.5 1092,-2144.5 1092,-2106.5 924,-2106.5"/>
<text text-anchor="start" x="932" y="-2129.3" font-family="Times,serif" font-size="14.00">break &#45;&gt; 0x80573d5:</text>
<text text-anchor="start" x="932" y="-2114.3" font-family="Times,serif" font-size="14.00"> break</text>
</g>
<!-- Node0xdfc42d0&#45;&gt;Node0x1b8fc6d0 -->
<g id="edge21" class="edge"><title>Node0xdfc42d0&#45;&gt;Node0x1b8fc6d0</title>
<path fill="none" stroke="black" d="M891.042,-2280.45C898.211,-2275.34 905.063,-2269.18 910,-2262 935.593,-2224.78 904.84,-2198.32 933,-2163 936.91,-2158.1 941.644,-2153.81 946.811,-2150.06"/>
<polygon fill="black" stroke="black" points="948.731,-2152.99 955.23,-2144.62 944.932,-2147.11 948.731,-2152.99"/>
<text text-anchor="middle" x="1089.5" y="-2208.8" font-family="Times,serif" font-size="14.00">*(IntToPtrCastExpr&lt;ptr&gt;((v19 + v4))) != 0</text>
</g>
<!-- Node0xdfc4700 -->
<g id="node21" class="node"><title>Node0xdfc4700</title>
<polygon fill="none" stroke="black" points="0,-2106.5 0,-2144.5 90,-2144.5 90,-2106.5 0,-2106.5"/>
<text text-anchor="start" x="8" y="-2129.3" font-family="Times,serif" font-size="14.00">v18 = v19</text>
<text text-anchor="start" x="8" y="-2114.3" font-family="Times,serif" font-size="14.00"> continue</text>
</g>
<!-- Node0xdfc42d0&#45;&gt;Node0xdfc4700 -->
<g id="edge22" class="edge"><title>Node0xdfc42d0&#45;&gt;Node0xdfc4700</title>
<path fill="none" stroke="black" d="M674.216,-2296.18C445.296,-2292.38 78.9636,-2283.05 57,-2262 42.1649,-2247.78 41.9526,-2190.3 43.3386,-2154.93"/>
<polygon fill="black" stroke="black" points="46.8443,-2154.88 43.8057,-2144.73 39.8516,-2154.56 46.8443,-2154.88"/>
<text text-anchor="middle" x="216.5" y="-2208.8" font-family="Times,serif" font-size="14.00">*(IntToPtrCastExpr&lt;ptr&gt;((v19 + v4))) == 0</text>
</g>
<!-- Node0xdfc3e00 -->
<g id="node22" class="node"><title>Node0xdfc3e00</title>
<polygon fill="none" stroke="black" points="594.5,-1273.5 594.5,-1309.5 699.5,-1309.5 699.5,-1273.5 594.5,-1273.5"/>
<text text-anchor="start" x="602.5" y="-1287.8" font-family="Times,serif" font-size="14.00">if (v5 == 0):</text>
</g>
<!-- Node0x8d7f6e0&#45;&gt;Node0xdfc3e00 -->
<g id="edge23" class="edge"><title>Node0x8d7f6e0&#45;&gt;Node0xdfc3e00</title>
<path fill="none" stroke="black" d="M647,-2163.41C647,-2140.56 647,-2112.87 647,-2088 647,-2088 647,-2088 647,-1404 647,-1375.22 647,-1342.26 647,-1319.69"/>
<polygon fill="black" stroke="black" points="650.5,-1319.5 647,-1309.5 643.5,-1319.5 650.5,-1319.5"/>
</g>
<!-- Node0xdfc40e0 -->
<g id="node23" class="node"><title>Node0xdfc40e0</title>
<polygon fill="none" stroke="black" points="1268.5,-1378.5 1268.5,-1431.5 1369.5,-1431.5 1369.5,-1378.5 1268.5,-1378.5"/>
<text text-anchor="start" x="1276.5" y="-1416.3" font-family="Times,serif" font-size="14.00">0x8057426:</text>
<text text-anchor="start" x="1276.5" y="-1401.3" font-family="Times,serif" font-size="14.00"> v11 = v9</text>
<text text-anchor="start" x="1276.5" y="-1386.3" font-family="Times,serif" font-size="14.00"> v12 = 0</text>
</g>
<!-- Node0xdfc3690&#45;&gt;Node0xdfc40e0 -->
<g id="edge24" class="edge"><title>Node0xdfc3690&#45;&gt;Node0xdfc40e0</title>
<path fill="none" stroke="black" d="M1259.38,-1483.46C1268.49,-1478.35 1277.6,-1472.18 1285,-1465 1292.18,-1458.03 1298.33,-1449.23 1303.34,-1440.56"/>
<polygon fill="black" stroke="black" points="1306.48,-1442.12 1308.15,-1431.66 1300.32,-1438.79 1306.48,-1442.12"/>
<text text-anchor="middle" x="1329.5" y="-1453.8" font-family="Times,serif" font-size="14.00">v9 &gt; v10</text>
</g>
<!-- Node0xdfc41e0 -->
<g id="node24" class="node"><title>Node0xdfc41e0</title>
<polygon fill="none" stroke="black" points="1153.5,-1387 1153.5,-1423 1242.5,-1423 1242.5,-1387 1153.5,-1387"/>
<text text-anchor="start" x="1161.5" y="-1401.3" font-family="Times,serif" font-size="14.00">result = 0</text>
</g>
<!-- Node0xdfc3690&#45;&gt;Node0xdfc41e0 -->
<g id="edge25" class="edge"><title>Node0xdfc3690&#45;&gt;Node0xdfc41e0</title>
<path fill="none" stroke="black" d="M1212.25,-1483.37C1210.79,-1477.52 1209.25,-1471.01 1208,-1465 1205.86,-1454.69 1203.85,-1443.3 1202.19,-1433.29"/>
<polygon fill="black" stroke="black" points="1205.6,-1432.42 1200.56,-1423.1 1198.69,-1433.53 1205.6,-1432.42"/>
<text text-anchor="middle" x="1246.5" y="-1453.8" font-family="Times,serif" font-size="14.00">v9 &lt;= v10</text>
</g>
<!-- Node0x1b8fc6d0&#45;&gt;Node0xdfc1e30 -->
<g id="edge26" class="edge"><title>Node0x1b8fc6d0&#45;&gt;Node0xdfc1e30</title>
<path fill="none" stroke="black" d="M1048.77,-2106.46C1069.92,-2097.1 1097.1,-2085.08 1124.88,-2072.79"/>
<polygon fill="black" stroke="black" points="1126.58,-2075.86 1134.31,-2068.61 1123.75,-2069.46 1126.58,-2075.86"/>
</g>
<!-- Node0xdfc4700&#45;&gt;Node0xdfc3550 -->
<g id="edge27" class="edge"><title>Node0xdfc4700&#45;&gt;Node0xdfc3550</title>
<path fill="none" stroke="black" d="M42.0388,-2144.52C37.1682,-2175.77 28,-2242.09 28,-2298.5 28,-2486 28,-2486 28,-2486 28,-2552.52 517.416,-2573.59 689.234,-2578.94"/>
<polygon fill="black" stroke="black" points="689.258,-2582.44 699.36,-2579.24 689.471,-2575.44 689.258,-2582.44"/>
</g>
<!-- Node0xd8a0a40 -->
<g id="node25" class="node"><title>Node0xd8a0a40</title>
<polygon fill="none" stroke="black" points="400.5,-1115 400.5,-1168 815.5,-1168 815.5,-1115 400.5,-1115"/>
<text text-anchor="start" x="408.5" y="-1152.8" font-family="Times,serif" font-size="14.00">0x8057408:</text>
<text text-anchor="start" x="408.5" y="-1137.8" font-family="Times,serif" font-size="14.00"> g4 = a1</text>
<text text-anchor="start" x="408.5" y="-1122.8" font-family="Times,serif" font-size="14.00"> v6 = mbedtls_mpi_lset(IntToPtrCastExpr&lt;ptr&gt;(a1), 0)</text>
</g>
<!-- Node0xdfc3e00&#45;&gt;Node0xd8a0a40 -->
<g id="edge28" class="edge"><title>Node0xdfc3e00&#45;&gt;Node0xd8a0a40</title>
<path fill="none" stroke="black" d="M642.45,-1273.23C636.312,-1249.94 625.236,-1207.91 617.298,-1177.79"/>
<polygon fill="black" stroke="black" points="620.671,-1176.85 614.738,-1168.07 613.902,-1178.63 620.671,-1176.85"/>
<text text-anchor="middle" x="659" y="-1212.8" font-family="Times,serif" font-size="14.00">v5 == 0</text>
</g>
<!-- Node0xdfc3ff0 -->
<g id="node26" class="node"><title>Node0xdfc3ff0</title>
<polygon fill="none" stroke="black" points="759.5,-470.5 759.5,-568.5 872.5,-568.5 872.5,-470.5 759.5,-470.5"/>
<text text-anchor="start" x="767.5" y="-553.3" font-family="Times,serif" font-size="14.00">0x80573fc:</text>
<text text-anchor="start" x="767.5" y="-538.3" font-family="Times,serif" font-size="14.00"> g3 = v3</text>
<text text-anchor="start" x="767.5" y="-523.3" font-family="Times,serif" font-size="14.00"> g7 = v2</text>
<text text-anchor="start" x="767.5" y="-508.3" font-family="Times,serif" font-size="14.00"> g5 = v1</text>
<text text-anchor="start" x="767.5" y="-493.3" font-family="Times,serif" font-size="14.00"> g2 = v7</text>
<text text-anchor="start" x="767.5" y="-478.3" font-family="Times,serif" font-size="14.00"> return result</text>
</g>
<!-- Node0xdfc3e00&#45;&gt;Node0xdfc3ff0 -->
<g id="edge29" class="edge"><title>Node0xdfc3e00&#45;&gt;Node0xdfc3ff0</title>
<path fill="none" stroke="black" d="M699.524,-1275.81C757.582,-1255.98 843,-1214.56 843,-1142.5 843,-1142.5 843,-1142.5 843,-676.5 843,-643.799 837.169,-607.8 830.926,-578.631"/>
<polygon fill="black" stroke="black" points="834.287,-577.622 828.709,-568.615 827.453,-579.135 834.287,-577.622"/>
<text text-anchor="middle" x="870" y="-934.3" font-family="Times,serif" font-size="14.00">v5 != 0</text>
</g>
<!-- Node0xdfc4160 -->
<g id="node27" class="node"><title>Node0xdfc4160</title>
<polygon fill="none" stroke="black" points="1276.5,-1273.5 1276.5,-1309.5 1373.5,-1309.5 1373.5,-1273.5 1276.5,-1273.5"/>
<text text-anchor="start" x="1284.5" y="-1287.8" font-family="Times,serif" font-size="14.00">while True:</text>
</g>
<!-- Node0xdfc40e0&#45;&gt;Node0xdfc4160 -->
<g id="edge30" class="edge"><title>Node0xdfc40e0&#45;&gt;Node0xdfc4160</title>
<path fill="none" stroke="black" d="M1320.38,-1378.42C1321.32,-1360.87 1322.57,-1337.62 1323.53,-1319.73"/>
<polygon fill="black" stroke="black" points="1327.04,-1319.82 1324.08,-1309.64 1320.05,-1319.44 1327.04,-1319.82"/>
</g>
<!-- Node0xdfc41e0&#45;&gt;Node0x8d7f9b0 -->
<g id="edge31" class="edge"><title>Node0xdfc41e0&#45;&gt;Node0x8d7f9b0</title>
<path fill="none" stroke="black" d="M1179.36,-1386.82C1167.79,-1376.17 1152.23,-1361.82 1136.73,-1347.54"/>
<polygon fill="black" stroke="black" points="1138.87,-1344.75 1129.14,-1340.55 1134.12,-1349.9 1138.87,-1344.75"/>
</g>
<!-- Node0xdfc4760 -->
<g id="node28" class="node"><title>Node0xdfc4760</title>
<polygon fill="none" stroke="black" points="585.5,-1016.5 585.5,-1054.5 690.5,-1054.5 690.5,-1016.5 585.5,-1016.5"/>
<text text-anchor="start" x="593.5" y="-1039.3" font-family="Times,serif" font-size="14.00">if (v6 == 0):</text>
<text text-anchor="start" x="593.5" y="-1024.3" font-family="Times,serif" font-size="14.00"> else:</text>
</g>
<!-- Node0xd8a0a40&#45;&gt;Node0xdfc4760 -->
<g id="edge32" class="edge"><title>Node0xd8a0a40&#45;&gt;Node0xdfc4760</title>
<path fill="none" stroke="black" d="M615.416,-1114.79C619.828,-1099.5 625.429,-1080.08 629.949,-1064.41"/>
<polygon fill="black" stroke="black" points="633.331,-1065.31 632.74,-1054.74 626.605,-1063.37 633.331,-1065.31"/>
</g>
<!-- Node0xdfc3ff0&#45;&gt;Node0x8d7d910 -->
<g id="edge33" class="edge"><title>Node0xdfc3ff0&#45;&gt;Node0x8d7d910</title>
<path fill="none" stroke="black" d="M868.389,-470.236C885.108,-454.834 902.887,-438.454 916.895,-425.549"/>
<polygon fill="black" stroke="black" points="919.275,-428.115 924.259,-418.766 914.532,-422.967 919.275,-428.115"/>
</g>
<!-- Node0xdfc4ce0 -->
<g id="node29" class="node"><title>Node0xdfc4ce0</title>
<polygon fill="none" stroke="black" points="1130.5,-1092.5 1130.5,-1190.5 1673.5,-1190.5 1673.5,-1092.5 1130.5,-1092.5"/>
<text text-anchor="start" x="1138.5" y="-1175.3" font-family="Times,serif" font-size="14.00">0x8057438:</text>
<text text-anchor="start" x="1138.5" y="-1160.3" font-family="Times,serif" font-size="14.00"> v17 = ExtCastExpr&lt;int32&gt;(*(IntToPtrCastExpr&lt;ptr&gt;(((g7 &#45; 1) + v11))))</text>
<text text-anchor="start" x="1138.5" y="-1145.3" font-family="Times,serif" font-size="14.00"> g6 = v17</text>
<text text-anchor="start" x="1138.5" y="-1130.3" font-family="Times,serif" font-size="14.00"> v14 = (v12 % 4)</text>
<text text-anchor="start" x="1138.5" y="-1115.3" font-family="Times,serif" font-size="14.00"> v15 = (8 * v14)</text>
<text text-anchor="start" x="1138.5" y="-1100.3" font-family="Times,serif" font-size="14.00"> g4 = v15</text>
</g>
<!-- Node0xdfc4160&#45;&gt;Node0xdfc4ce0 -->
<g id="edge34" class="edge"><title>Node0xdfc4160&#45;&gt;Node0xdfc4ce0</title>
<path fill="none" stroke="black" d="M1333.98,-1273.23C1343.35,-1255.23 1358.55,-1226.02 1372.2,-1199.77"/>
<polygon fill="black" stroke="black" points="1375.45,-1201.12 1376.96,-1190.63 1369.24,-1197.89 1375.45,-1201.12"/>
<text text-anchor="middle" x="1383" y="-1212.8" font-family="Times,serif" font-size="14.00">True</text>
</g>
<!-- Node0xdfbffc0 -->
<g id="node30" class="node"><title>Node0xdfbffc0</title>
<polygon fill="none" stroke="black" points="587.5,-911.5 587.5,-964.5 688.5,-964.5 688.5,-911.5 587.5,-911.5"/>
<text text-anchor="start" x="595.5" y="-949.3" font-family="Times,serif" font-size="14.00">0x8057422:</text>
<text text-anchor="start" x="595.5" y="-934.3" font-family="Times,serif" font-size="14.00"> v9 = g5</text>
<text text-anchor="start" x="595.5" y="-919.3" font-family="Times,serif" font-size="14.00"> v10 = g3</text>
</g>
<!-- Node0xdfc4760&#45;&gt;Node0xdfbffc0 -->
<g id="edge35" class="edge"><title>Node0xdfc4760&#45;&gt;Node0xdfbffc0</title>
<path fill="none" stroke="black" d="M638,-1016.09C638,-1004.42 638,-988.951 638,-974.929"/>
<polygon fill="black" stroke="black" points="641.5,-974.577 638,-964.577 634.5,-974.577 641.5,-974.577"/>
<text text-anchor="middle" x="668" y="-986.8" font-family="Times,serif" font-size="14.00">v6 == 0</text>
</g>
<!-- Node0xdfc00e0 -->
<g id="node31" class="node"><title>Node0xdfc00e0</title>
<polygon fill="none" stroke="black" points="731.5,-714.5 731.5,-750.5 828.5,-750.5 828.5,-714.5 731.5,-714.5"/>
<text text-anchor="start" x="739.5" y="-728.8" font-family="Times,serif" font-size="14.00">result = v6</text>
</g>
<!-- Node0xdfc4760&#45;&gt;Node0xdfc00e0 -->
<g id="edge36" class="edge"><title>Node0xdfc4760&#45;&gt;Node0xdfc00e0</title>
<path fill="none" stroke="black" d="M680.471,-1016.43C688.51,-1011.43 696.204,-1005.32 702,-998 759.289,-925.634 774.527,-812.258 778.56,-760.68"/>
<polygon fill="black" stroke="black" points="782.055,-760.869 779.262,-750.649 775.073,-760.38 782.055,-760.869"/>
<text text-anchor="middle" x="776" y="-934.3" font-family="Times,serif" font-size="14.00">v6 != 0</text>
</g>
<!-- Node0xdfc4dd0 -->
<g id="node32" class="node"><title>Node0xdfc4dd0</title>
<polygon fill="none" stroke="black" points="1345,-1017.5 1345,-1053.5 1459,-1053.5 1459,-1017.5 1345,-1017.5"/>
<text text-anchor="start" x="1353" y="-1031.8" font-family="Times,serif" font-size="14.00">if (v14 == 0):</text>
</g>
<!-- Node0xdfc4ce0&#45;&gt;Node0xdfc4dd0 -->
<g id="edge37" class="edge"><title>Node0xdfc4ce0&#45;&gt;Node0xdfc4dd0</title>
<path fill="none" stroke="black" d="M1402,-1092.46C1402,-1082.62 1402,-1072.59 1402,-1063.79"/>
<polygon fill="black" stroke="black" points="1405.5,-1063.77 1402,-1053.77 1398.5,-1063.77 1405.5,-1063.77"/>
</g>
<!-- Node0xdfc0600 -->
<g id="node33" class="node"><title>Node0xdfc0600</title>
<polygon fill="none" stroke="black" points="583,-784.5 583,-822.5 693,-822.5 693,-784.5 583,-784.5"/>
<text text-anchor="start" x="591" y="-807.3" font-family="Times,serif" font-size="14.00">if (v9 &gt; v10):</text>
<text text-anchor="start" x="591" y="-792.3" font-family="Times,serif" font-size="14.00"> else:</text>
</g>
<!-- Node0xdfbffc0&#45;&gt;Node0xdfc0600 -->
<g id="edge38" class="edge"><title>Node0xdfbffc0&#45;&gt;Node0xdfc0600</title>
<path fill="none" stroke="black" d="M638,-911.453C638,-888.99 638,-856.336 638,-833.026"/>
<polygon fill="black" stroke="black" points="641.5,-832.732 638,-822.732 634.5,-832.732 641.5,-832.732"/>
</g>
<!-- Node0xdfc00e0&#45;&gt;Node0xdfc3ff0 -->
<g id="edge39" class="edge"><title>Node0xdfc00e0&#45;&gt;Node0xdfc3ff0</title>
<path fill="none" stroke="black" d="M782.946,-714.233C787.942,-684.952 798.292,-624.29 806.087,-578.601"/>
<polygon fill="black" stroke="black" points="809.577,-578.957 807.809,-568.511 802.676,-577.78 809.577,-578.957"/>
</g>
<!-- Node0xdfc2f90 -->
<g id="node34" class="node"><title>Node0xdfc2f90</title>
<polygon fill="none" stroke="black" points="1296,-919 1296,-957 1508,-957 1508,-919 1296,-919"/>
<text text-anchor="start" x="1304" y="-941.8" font-family="Times,serif" font-size="14.00">v16 = v17</text>
<text text-anchor="start" x="1304" y="-926.8" font-family="Times,serif" font-size="14.00"> goto after_if_8057453_0_2</text>
</g>
<!-- Node0xdfc4dd0&#45;&gt;Node0xdfc2f90 -->
<g id="edge40" class="edge"><title>Node0xdfc4dd0&#45;&gt;Node0xdfc2f90</title>
<path fill="none" stroke="black" d="M1402,-1017.43C1402,-1003.52 1402,-983.591 1402,-967.304"/>
<polygon fill="black" stroke="black" points="1405.5,-967.226 1402,-957.226 1398.5,-967.226 1405.5,-967.226"/>
<text text-anchor="middle" x="1436.5" y="-986.8" font-family="Times,serif" font-size="14.00">v14 == 0</text>
</g>
<!-- Node0xdfc4ef0 -->
<g id="node35" class="node"><title>Node0xdfc4ef0</title>
<polygon fill="none" stroke="black" points="1585.5,-856.5 1585.5,-892.5 1788.5,-892.5 1788.5,-856.5 1585.5,-856.5"/>
<text text-anchor="start" x="1593.5" y="-870.8" font-family="Times,serif" font-size="14.00">goto if_8057453_0_true_2</text>
</g>
<!-- Node0xdfc4dd0&#45;&gt;Node0xdfc4ef0 -->
<g id="edge41" class="edge"><title>Node0xdfc4dd0&#45;&gt;Node0xdfc4ef0</title>
<path fill="none" stroke="black" d="M1437.12,-1017.47C1449.21,-1011.47 1462.77,-1004.58 1475,-998 1537.07,-964.588 1607.68,-923.06 1649.73,-897.951"/>
<polygon fill="black" stroke="black" points="1651.72,-900.836 1658.51,-892.699 1648.13,-894.83 1651.72,-900.836"/>
<text text-anchor="middle" x="1532.5" y="-986.8" font-family="Times,serif" font-size="14.00">v14 != 0</text>
</g>
<!-- Node0xdfc30b0 -->
<g id="node36" class="node"><title>Node0xdfc30b0</title>
<polygon fill="none" stroke="black" points="560.5,-587.5 560.5,-640.5 661.5,-640.5 661.5,-587.5 560.5,-587.5"/>
<text text-anchor="start" x="568.5" y="-625.3" font-family="Times,serif" font-size="14.00">0x8057426:</text>
<text text-anchor="start" x="568.5" y="-610.3" font-family="Times,serif" font-size="14.00"> v11 = v9</text>
<text text-anchor="start" x="568.5" y="-595.3" font-family="Times,serif" font-size="14.00"> v12 = 0</text>
</g>
<!-- Node0xdfc0600&#45;&gt;Node0xdfc30b0 -->
<g id="edge42" class="edge"><title>Node0xdfc0600&#45;&gt;Node0xdfc30b0</title>
<path fill="none" stroke="black" d="M599.868,-784.274C587.011,-776.038 574.126,-764.972 567,-751 550.213,-718.086 567.835,-677.455 585.521,-649.217"/>
<polygon fill="black" stroke="black" points="588.672,-650.793 591.221,-640.51 582.815,-646.959 588.672,-650.793"/>
<text text-anchor="middle" x="599.5" y="-728.8" font-family="Times,serif" font-size="14.00">v9 &gt; v10</text>
</g>
<!-- Node0xdfc3be0 -->
<g id="node37" class="node"><title>Node0xdfc3be0</title>
<polygon fill="none" stroke="black" points="639.5,-659.5 639.5,-695.5 728.5,-695.5 728.5,-659.5 639.5,-659.5"/>
<text text-anchor="start" x="647.5" y="-673.8" font-family="Times,serif" font-size="14.00">result = 0</text>
</g>
<!-- Node0xdfc0600&#45;&gt;Node0xdfc3be0 -->
<g id="edge43" class="edge"><title>Node0xdfc0600&#45;&gt;Node0xdfc3be0</title>
<path fill="none" stroke="black" d="M635.665,-784.189C634.127,-765.542 634.081,-736.283 645,-714 646.904,-710.115 649.433,-706.455 652.293,-703.069"/>
<polygon fill="black" stroke="black" points="654.992,-705.312 659.424,-695.689 649.959,-700.448 654.992,-705.312"/>
<text text-anchor="middle" x="683.5" y="-728.8" font-family="Times,serif" font-size="14.00">v9 &lt;= v10</text>
</g>
<!-- Node0x8a1ffd0 -->
<g id="node38" class="node"><title>Node0x8a1ffd0</title>
<polygon fill="none" stroke="black" points="1094.5,-769.5 1094.5,-837.5 1709.5,-837.5 1709.5,-769.5 1094.5,-769.5"/>
<text text-anchor="start" x="1102.5" y="-822.3" font-family="Times,serif" font-size="14.00">after_if_8057453_0_2:</text>
<text text-anchor="start" x="1102.5" y="-807.3" font-family="Times,serif" font-size="14.00"> v22 = IntToPtrCastExpr&lt;ptr&gt;((*(IntToPtrCastExpr&lt;ptr&gt;((a1 + 8))) + (v12 &amp; &#45;4)))</text>
<text text-anchor="start" x="1102.5" y="-792.3" font-family="Times,serif" font-size="14.00"> *(v22) = (*(v22) | v16)</text>
<text text-anchor="start" x="1102.5" y="-777.3" font-family="Times,serif" font-size="14.00"> v23 = (v11 &#45; 1)</text>
</g>
<!-- Node0xdfc2f90&#45;&gt;Node0x8a1ffd0 -->
<g id="edge44" class="edge"><title>Node0xdfc2f90&#45;&gt;Node0x8a1ffd0</title>
<path fill="none" stroke="black" d="M1402,-918.854C1402,-900.621 1402,-871.842 1402,-847.717"/>
<polygon fill="black" stroke="black" points="1405.5,-847.707 1402,-837.707 1398.5,-847.707 1405.5,-847.707"/>
</g>
<!-- Node0xdfc3030 -->
<g id="node39" class="node"><title>Node0xdfc3030</title>
<polygon fill="none" stroke="black" points="1501,-23.5 1501,-91.5 1673,-91.5 1673,-23.5 1501,-23.5"/>
<text text-anchor="start" x="1509" y="-76.3" font-family="Times,serif" font-size="14.00">if_8057453_0_true_2:</text>
<text text-anchor="start" x="1509" y="-61.3" font-family="Times,serif" font-size="14.00"> v21 = (v17 &lt;&lt; v15)</text>
<text text-anchor="start" x="1509" y="-46.3" font-family="Times,serif" font-size="14.00"> g6 = v21</text>
<text text-anchor="start" x="1509" y="-31.3" font-family="Times,serif" font-size="14.00"> v16 = v21</text>
</g>
<!-- Node0xdfc4ef0&#45;&gt;Node0xdfc3030 -->
<g id="edge45" class="edge"><title>Node0xdfc4ef0&#45;&gt;Node0xdfc3030</title>
<path fill="none" stroke="black" d="M1705.13,-856.428C1709.98,-850.973 1714.77,-844.62 1718,-838 1738.72,-795.492 1738,-780.787 1738,-733.5 1738,-733.5 1738,-733.5 1738,-160.5 1738,-127.099 1712.32,-103.9 1682.14,-88.1683"/>
<polygon fill="black" stroke="black" points="1683.61,-84.9909 1673.09,-83.7252 1680.52,-91.2743 1683.61,-84.9909"/>
</g>
<!-- Node0xdfc3b60 -->
<g id="node40" class="node"><title>Node0xdfc3b60</title>
<polygon fill="none" stroke="black" points="800.5,-382.5 800.5,-418.5 897.5,-418.5 897.5,-382.5 800.5,-382.5"/>
<text text-anchor="start" x="808.5" y="-396.8" font-family="Times,serif" font-size="14.00">while True:</text>
</g>
<!-- Node0xdfc30b0&#45;&gt;Node0xdfc3b60 -->
<g id="edge46" class="edge"><title>Node0xdfc30b0&#45;&gt;Node0xdfc3b60</title>
<path fill="none" stroke="black" d="M633.244,-587.246C659.615,-557.421 705.604,-507.579 750,-470 769.645,-453.372 793.297,-436.891 812.556,-424.263"/>
<polygon fill="black" stroke="black" points="814.579,-427.123 821.065,-418.746 810.771,-421.25 814.579,-427.123"/>
</g>
<!-- Node0xdfc3be0&#45;&gt;Node0xdfc3ff0 -->
<g id="edge47" class="edge"><title>Node0xdfc3be0&#45;&gt;Node0xdfc3ff0</title>
<path fill="none" stroke="black" d="M698.631,-659.209C715.452,-639.329 743.926,-605.679 768.614,-576.501"/>
<polygon fill="black" stroke="black" points="771.344,-578.694 775.131,-568.799 766,-574.172 771.344,-578.694"/>
</g>
<!-- Node0x15b93040 -->
<g id="node41" class="node"><title>Node0x15b93040</title>
<polygon fill="none" stroke="black" points="1336.5,-659.5 1336.5,-695.5 1467.5,-695.5 1467.5,-659.5 1336.5,-659.5"/>
<text text-anchor="start" x="1344.5" y="-673.8" font-family="Times,serif" font-size="14.00">if (v23 &lt;= v10):</text>
</g>
<!-- Node0x8a1ffd0&#45;&gt;Node0x15b93040 -->
<g id="edge48" class="edge"><title>Node0x8a1ffd0&#45;&gt;Node0x15b93040</title>
<path fill="none" stroke="black" d="M1402,-769.27C1402,-749.48 1402,-724.666 1402,-705.986"/>
<polygon fill="black" stroke="black" points="1405.5,-705.78 1402,-695.78 1398.5,-705.78 1405.5,-705.78"/>
</g>
<!-- Node0xdfc3030&#45;&gt;Node0x8a1ffd0 -->
<g id="edge49" class="edge"><title>Node0xdfc3030&#45;&gt;Node0x8a1ffd0</title>
<path fill="none" stroke="black" d="M1587,-91.5745C1587,-111.536 1587,-137.479 1587,-160.5 1587,-678.5 1587,-678.5 1587,-678.5 1587,-717.976 1557.57,-745.688 1522.19,-764.74"/>
<polygon fill="black" stroke="black" points="1520.39,-761.729 1513.09,-769.399 1523.58,-767.961 1520.39,-761.729"/>
</g>
<!-- Node0xdfc3d00 -->
<g id="node42" class="node"><title>Node0xdfc3d00</title>
<polygon fill="none" stroke="black" points="843.5,-217.5 843.5,-330.5 1386.5,-330.5 1386.5,-217.5 843.5,-217.5"/>
<text text-anchor="start" x="851.5" y="-315.3" font-family="Times,serif" font-size="14.00">0x8057438:</text>
<text text-anchor="start" x="851.5" y="-300.3" font-family="Times,serif" font-size="14.00"> v17 = ExtCastExpr&lt;int32&gt;(*(IntToPtrCastExpr&lt;ptr&gt;(((g7 &#45; 1) + v11))))</text>
<text text-anchor="start" x="851.5" y="-285.3" font-family="Times,serif" font-size="14.00"> g6 = v17</text>
<text text-anchor="start" x="851.5" y="-270.3" font-family="Times,serif" font-size="14.00"> v14 = (v12 % 4)</text>
<text text-anchor="start" x="851.5" y="-255.3" font-family="Times,serif" font-size="14.00"> v15 = (8 * v14)</text>
<text text-anchor="start" x="851.5" y="-240.3" font-family="Times,serif" font-size="14.00"> g4 = v15</text>
<text text-anchor="start" x="851.5" y="-225.3" font-family="Times,serif" font-size="14.00"> v16 = v17</text>
</g>
<!-- Node0xdfc3b60&#45;&gt;Node0xdfc3d00 -->
<g id="edge50" class="edge"><title>Node0xdfc3b60&#45;&gt;Node0xdfc3d00</title>
<path fill="none" stroke="black" d="M885.428,-382.45C911.99,-370.018 949.702,-352.367 986.902,-334.956"/>
<polygon fill="black" stroke="black" points="988.768,-337.947 996.341,-330.538 985.8,-331.607 988.768,-337.947"/>
<text text-anchor="middle" x="968" y="-352.8" font-family="Times,serif" font-size="14.00">True</text>
</g>
<!-- Node0x15b933f0 -->
<g id="node43" class="node"><title>Node0x15b933f0</title>
<polygon fill="none" stroke="black" points="1373.5,-470.5 1373.5,-568.5 1474.5,-568.5 1474.5,-470.5 1373.5,-470.5"/>
<text text-anchor="start" x="1381.5" y="-553.3" font-family="Times,serif" font-size="14.00">0x805745d:</text>
<text text-anchor="start" x="1381.5" y="-538.3" font-family="Times,serif" font-size="14.00"> g3 = v3</text>
<text text-anchor="start" x="1381.5" y="-523.3" font-family="Times,serif" font-size="14.00"> g7 = v2</text>
<text text-anchor="start" x="1381.5" y="-508.3" font-family="Times,serif" font-size="14.00"> g5 = v1</text>
<text text-anchor="start" x="1381.5" y="-493.3" font-family="Times,serif" font-size="14.00"> g2 = v7</text>
<text text-anchor="start" x="1381.5" y="-478.3" font-family="Times,serif" font-size="14.00"> return 0</text>
</g>
<!-- Node0x15b93040&#45;&gt;Node0x15b933f0 -->
<g id="edge51" class="edge"><title>Node0x15b93040&#45;&gt;Node0x15b933f0</title>
<path fill="none" stroke="black" d="M1400.7,-659.215C1399.68,-641.095 1399.03,-611.858 1403,-587 1403.45,-584.198 1403.99,-581.352 1404.6,-578.493"/>
<polygon fill="black" stroke="black" points="1408.01,-579.31 1406.95,-568.769 1401.2,-577.671 1408.01,-579.31"/>
<text text-anchor="middle" x="1446" y="-610.3" font-family="Times,serif" font-size="14.00">v23 &lt;= v10</text>
</g>
<!-- Node0x15b93180 -->
<g id="node44" class="node"><title>Node0x15b93180</title>
<polygon fill="none" stroke="black" points="953,-493 953,-546 1355,-546 1355,-493 953,-493"/>
<text text-anchor="start" x="961" y="-530.8" font-family="Times,serif" font-size="14.00">after_if_8057453_0.dec_label_pc_8057438_crit_edge:</text>
<text text-anchor="start" x="961" y="-515.8" font-family="Times,serif" font-size="14.00"> v11 = v23</text>
<text text-anchor="start" x="961" y="-500.8" font-family="Times,serif" font-size="14.00"> v12 = (v12 + 1)</text>
</g>
<!-- Node0x15b93040&#45;&gt;Node0x15b93180 -->
<g id="edge52" class="edge"><title>Node0x15b93040&#45;&gt;Node0x15b93180</title>
<path fill="none" stroke="black" d="M1359.27,-659.466C1346.98,-654.057 1333.74,-647.719 1322,-641 1275.77,-614.532 1226.67,-578.251 1193.57,-552.432"/>
<polygon fill="black" stroke="black" points="1195.54,-549.527 1185.52,-546.105 1191.22,-555.033 1195.54,-549.527"/>
<text text-anchor="middle" x="1359" y="-610.3" font-family="Times,serif" font-size="14.00">v23 &gt; v10</text>
</g>
<!-- Node0xdfc38e0 -->
<g id="node45" class="node"><title>Node0xdfc38e0</title>
<polygon fill="none" stroke="black" points="1449,-143.5 1449,-179.5 1557,-179.5 1557,-143.5 1449,-143.5"/>
<text text-anchor="start" x="1457" y="-157.8" font-family="Times,serif" font-size="14.00">if (v14 != 0):</text>
</g>
<!-- Node0xdfc3d00&#45;&gt;Node0xdfc38e0 -->
<g id="edge53" class="edge"><title>Node0xdfc3d00&#45;&gt;Node0xdfc38e0</title>
<path fill="none" stroke="black" d="M1310.14,-217.426C1356.71,-204.163 1403.2,-190.924 1438.86,-180.768"/>
<polygon fill="black" stroke="black" points="1439.96,-184.093 1448.62,-177.987 1438.04,-177.36 1439.96,-184.093"/>
</g>
<!-- Node0x15b933f0&#45;&gt;Node0x8d7d910 -->
<g id="edge54" class="edge"><title>Node0x15b933f0&#45;&gt;Node0x8d7d910</title>
<path fill="none" stroke="black" d="M1373.43,-474.842C1370.33,-473.055 1367.18,-471.422 1364,-470 1231.81,-410.88 1055.92,-402.111 980.222,-401.265"/>
<polygon fill="black" stroke="black" points="980.246,-397.766 970.221,-401.194 980.196,-404.765 980.246,-397.766"/>
</g>
<!-- Node0x15b93180&#45;&gt;Node0xdfc3b60 -->
<g id="edge55" class="edge"><title>Node0x15b93180&#45;&gt;Node0xdfc3b60</title>
<path fill="none" stroke="black" d="M1087.44,-492.968C1032.28,-471.807 954.841,-442.101 903.353,-422.35"/>
<polygon fill="black" stroke="black" points="904.325,-418.974 893.734,-418.66 901.817,-425.51 904.325,-418.974"/>
</g>
<!-- Node0xdfc38e0&#45;&gt;Node0x8a1ffd0 -->
<g id="edge57" class="edge"><title>Node0xdfc38e0&#45;&gt;Node0x8a1ffd0</title>
<path fill="none" stroke="black" d="M1503,-179.726C1503,-201.465 1503,-240.003 1503,-273 1503,-678.5 1503,-678.5 1503,-678.5 1503,-711.696 1480.97,-740.932 1457.49,-762.666"/>
<polygon fill="black" stroke="black" points="1454.99,-760.199 1449.84,-769.454 1459.64,-765.434 1454.99,-760.199"/>
<text text-anchor="middle" x="1537.5" y="-440.8" font-family="Times,serif" font-size="14.00">v14 == 0</text>
</g>
<!-- Node0xdfc38e0&#45;&gt;Node0xdfc3030 -->
<g id="edge56" class="edge"><title>Node0xdfc38e0&#45;&gt;Node0xdfc3030</title>
<path fill="none" stroke="black" d="M1501.97,-143.403C1502.13,-133.019 1503.8,-119.902 1510,-110 1512.47,-106.06 1515.36,-102.353 1518.55,-98.8772"/>
<polygon fill="black" stroke="black" points="1521.25,-101.129 1525.96,-91.635 1516.36,-96.1236 1521.25,-101.129"/>
<text text-anchor="middle" x="1541.5" y="-113.8" font-family="Times,serif" font-size="14.00">v14 != 0</text>
</g>
</g>
</svg>
