<?xml version="1.0" encoding="UTF-8" standalone="no"?>
<!DOCTYPE svg PUBLIC "-//W3C//DTD SVG 1.1//EN"
 "http://www.w3.org/Graphics/SVG/1.1/DTD/svg11.dtd">
<!-- Generated by graphviz version 2.38.0 (20140413.2041)
 -->
<!-- Title: Control&#45;flow graph for function &#39;dummy_2(result)&#39;. Pages: 1 -->
<svg width="386pt" height="233pt"
 viewBox="0.00 0.00 386.00 233.00" xmlns="http://www.w3.org/2000/svg" xmlns:xlink="http://www.w3.org/1999/xlink">
<g id="graph0" class="graph" transform="scale(1 1) rotate(0) translate(4 229)">
<title>Control&#45;flow graph for function &#39;dummy_2(result)&#39;.</title>
<polygon fill="white" stroke="none" points="-4,4 -4,-229 382,-229 382,4 -4,4"/>
<text text-anchor="middle" x="189" y="-7.8" font-family="Times,serif" font-size="14.00">Control&#45;flow graph for function &#39;dummy_2(result)&#39;.</text>
<!-- Node0x140f0070 -->
<g id="node1" class="node"><title>Node0x140f0070</title>
<polygon fill="none" stroke="black" points="157.5,-186.5 157.5,-224.5 220.5,-224.5 220.5,-186.5 157.5,-186.5"/>
<text text-anchor="start" x="165.5" y="-209.3" font-family="Times,serif" font-size="14.00">entry:</text>
<text text-anchor="start" x="165.5" y="-194.3" font-family="Times,serif" font-size="14.00"> result</text>
</g>
<!-- Node0x140f02e0 -->
<g id="node2" class="node"><title>Node0x140f02e0</title>
<polygon fill="none" stroke="black" points="132.5,-96.5 132.5,-149.5 245.5,-149.5 245.5,-96.5 132.5,-96.5"/>
<text text-anchor="start" x="140.5" y="-134.3" font-family="Times,serif" font-size="14.00">0x8076808:</text>
<text text-anchor="start" x="140.5" y="-119.3" font-family="Times,serif" font-size="14.00"> g1 = result</text>
<text text-anchor="start" x="140.5" y="-104.3" font-family="Times,serif" font-size="14.00"> return result</text>
</g>
<!-- Node0x140f0070&#45;&gt;Node0x140f02e0 -->
<g id="edge1" class="edge"><title>Node0x140f0070&#45;&gt;Node0x140f02e0</title>
<path fill="none" stroke="black" d="M189,-186.233C189,-178.347 189,-168.835 189,-159.648"/>
<polygon fill="black" stroke="black" points="192.5,-159.517 189,-149.517 185.5,-159.517 192.5,-159.517"/>
</g>
<!-- Node0x140f0260 -->
<g id="node3" class="node"><title>Node0x140f0260</title>
<polygon fill="none" stroke="black" points="162,-23.5 162,-59.5 216,-59.5 216,-23.5 162,-23.5"/>
<text text-anchor="start" x="170" y="-37.8" font-family="Times,serif" font-size="14.00">exit:</text>
</g>
<!-- Node0x140f02e0&#45;&gt;Node0x140f0260 -->
<g id="edge2" class="edge"><title>Node0x140f02e0&#45;&gt;Node0x140f0260</title>
<path fill="none" stroke="black" d="M189,-96.4081C189,-87.9823 189,-78.5803 189,-70.0174"/>
<polygon fill="black" stroke="black" points="192.5,-69.7564 189,-59.7564 185.5,-69.7565 192.5,-69.7564"/>
</g>
</g>
</svg>
