<?xml version="1.0" encoding="UTF-8" standalone="no"?>
<!DOCTYPE svg PUBLIC "-//W3C//DTD SVG 1.1//EN"
 "http://www.w3.org/Graphics/SVG/1.1/DTD/svg11.dtd">
<!-- Generated by graphviz version 2.38.0 (20140413.2041)
 -->
<!-- Title: Control&#45;flow graph for function &#39;mbedtls_mpi_add_mpi(*a1, *a2, *a3)&#39;. Pages: 1 -->
<svg width="1413pt" height="1152pt"
 viewBox="0.00 0.00 1413.00 1152.00" xmlns="http://www.w3.org/2000/svg" xmlns:xlink="http://www.w3.org/1999/xlink">
<g id="graph0" class="graph" transform="scale(1 1) rotate(0) translate(4 1148)">
<title>Control&#45;flow graph for function &#39;mbedtls_mpi_add_mpi(*a1, *a2, *a3)&#39;.</title>
<polygon fill="white" stroke="none" points="-4,4 -4,-1148 1409,-1148 1409,4 -4,4"/>
<text text-anchor="middle" x="702.5" y="-7.8" font-family="Times,serif" font-size="14.00">Control&#45;flow graph for function &#39;mbedtls_mpi_add_mpi(*a1, *a2, *a3)&#39;.</text>
<!-- Node0xef34480 -->
<g id="node1" class="node"><title>Node0xef34480</title>
<polygon fill="none" stroke="black" points="484,-1075.5 484,-1143.5 543,-1143.5 543,-1075.5 484,-1075.5"/>
<text text-anchor="start" x="492" y="-1128.3" font-family="Times,serif" font-size="14.00">entry:</text>
<text text-anchor="start" x="492" y="-1113.3" font-family="Times,serif" font-size="14.00"> a1</text>
<text text-anchor="start" x="492" y="-1098.3" font-family="Times,serif" font-size="14.00"> a2</text>
<text text-anchor="start" x="492" y="-1083.3" font-family="Times,serif" font-size="14.00"> a3</text>
</g>
<!-- Node0x4f16780 -->
<g id="node2" class="node"><title>Node0x4f16780</title>
<polygon fill="none" stroke="black" points="375.5,-849.5 375.5,-1037.5 651.5,-1037.5 651.5,-849.5 375.5,-849.5"/>
<text text-anchor="start" x="383.5" y="-1022.3" font-family="Times,serif" font-size="14.00">v1 = PtrToIntCastExpr&lt;int32&gt;(a1)</text>
<text text-anchor="start" x="383.5" y="-1007.3" font-family="Times,serif" font-size="14.00"> v2 = PtrToIntCastExpr&lt;int32&gt;(a2)</text>
<text text-anchor="start" x="383.5" y="-992.3" font-family="Times,serif" font-size="14.00"> v3 = PtrToIntCastExpr&lt;int32&gt;(a3)</text>
<text text-anchor="start" x="383.5" y="-977.3" font-family="Times,serif" font-size="14.00"> v4 = g3</text>
<text text-anchor="start" x="383.5" y="-962.3" font-family="Times,serif" font-size="14.00"> g3 = v2</text>
<text text-anchor="start" x="383.5" y="-947.3" font-family="Times,serif" font-size="14.00"> v5 = g7</text>
<text text-anchor="start" x="383.5" y="-932.3" font-family="Times,serif" font-size="14.00"> g7 = v3</text>
<text text-anchor="start" x="383.5" y="-917.3" font-family="Times,serif" font-size="14.00"> v6 = g5</text>
<text text-anchor="start" x="383.5" y="-902.3" font-family="Times,serif" font-size="14.00"> v7 = *(a2)</text>
<text text-anchor="start" x="383.5" y="-887.3" font-family="Times,serif" font-size="14.00"> g5 = v7</text>
<text text-anchor="start" x="383.5" y="-872.3" font-family="Times,serif" font-size="14.00"> v8</text>
<text text-anchor="start" x="383.5" y="-857.3" font-family="Times,serif" font-size="14.00"> v9</text>
</g>
<!-- Node0xef34480&#45;&gt;Node0x4f16780 -->
<g id="edge1" class="edge"><title>Node0xef34480&#45;&gt;Node0x4f16780</title>
<path fill="none" stroke="black" d="M513.5,-1075.31C513.5,-1067.05 513.5,-1057.74 513.5,-1048"/>
<polygon fill="black" stroke="black" points="517,-1047.71 513.5,-1037.71 510,-1047.71 517,-1047.71"/>
</g>
<!-- Node0xa597b30 -->
<g id="node3" class="node"><title>Node0xa597b30</title>
<polygon fill="none" stroke="black" points="430,-775.5 430,-811.5 597,-811.5 597,-775.5 430,-775.5"/>
<text text-anchor="start" x="438" y="-789.8" font-family="Times,serif" font-size="14.00">if ((*(a3) * v7) &gt;= 0):</text>
</g>
<!-- Node0x4f16780&#45;&gt;Node0xa597b30 -->
<g id="edge2" class="edge"><title>Node0x4f16780&#45;&gt;Node0xa597b30</title>
<path fill="none" stroke="black" d="M513.5,-849.189C513.5,-839.348 513.5,-829.996 513.5,-821.899"/>
<polygon fill="black" stroke="black" points="517,-821.708 513.5,-811.708 510,-821.708 517,-821.708"/>
</g>
<!-- Node0xe8fb510 -->
<g id="node4" class="node"><title>Node0xe8fb510</title>
<polygon fill="none" stroke="black" points="227.5,-686.5 227.5,-722.5 545.5,-722.5 545.5,-686.5 227.5,-686.5"/>
<text text-anchor="start" x="235.5" y="-700.8" font-family="Times,serif" font-size="14.00">result = mbedtls_mpi_add_abs(a1, v2, v3)</text>
</g>
<!-- Node0xa597b30&#45;&gt;Node0xe8fb510 -->
<g id="edge3" class="edge"><title>Node0xa597b30&#45;&gt;Node0xe8fb510</title>
<path fill="none" stroke="black" d="M464.302,-775.419C452.996,-770.373 441.398,-764.226 431.5,-757 421.515,-749.71 412.208,-739.831 404.679,-730.674"/>
<polygon fill="black" stroke="black" points="407.231,-728.257 398.296,-722.563 401.73,-732.586 407.231,-728.257"/>
<text text-anchor="middle" x="492.5" y="-745.8" font-family="Times,serif" font-size="14.00">(*(a3) * v7) &gt;= 0</text>
</g>
<!-- Node0xe8fe200 -->
<g id="node5" class="node"><title>Node0xe8fe200</title>
<polygon fill="none" stroke="black" points="570,-685.5 570,-723.5 671,-723.5 671,-685.5 570,-685.5"/>
<text text-anchor="start" x="578" y="-708.3" font-family="Times,serif" font-size="14.00">0x8058120:</text>
<text text-anchor="start" x="578" y="-693.3" font-family="Times,serif" font-size="14.00"> result2</text>
</g>
<!-- Node0xa597b30&#45;&gt;Node0xe8fe200 -->
<g id="edge4" class="edge"><title>Node0xa597b30&#45;&gt;Node0xe8fe200</title>
<path fill="none" stroke="black" d="M534.64,-775.312C550.59,-762.343 572.687,-744.376 590.47,-729.917"/>
<polygon fill="black" stroke="black" points="592.748,-732.576 598.299,-723.551 588.332,-727.144 592.748,-732.576"/>
<text text-anchor="middle" x="628.5" y="-745.8" font-family="Times,serif" font-size="14.00">(*(a3) * v7) &lt; 0</text>
</g>
<!-- Node0xef34b10 -->
<g id="node6" class="node"><title>Node0xef34b10</title>
<polygon fill="none" stroke="black" points="250.5,-610.5 250.5,-646.5 380.5,-646.5 380.5,-610.5 250.5,-610.5"/>
<text text-anchor="start" x="258.5" y="-624.8" font-family="Times,serif" font-size="14.00">if (result == 0):</text>
</g>
<!-- Node0xe8fb510&#45;&gt;Node0xef34b10 -->
<g id="edge5" class="edge"><title>Node0xe8fb510&#45;&gt;Node0xef34b10</title>
<path fill="none" stroke="black" d="M370.033,-686.337C360.803,-676.717 349.136,-664.557 338.964,-653.956"/>
<polygon fill="black" stroke="black" points="341.327,-651.363 331.878,-646.57 336.276,-656.209 341.327,-651.363"/>
</g>
<!-- Node0xb01bd40 -->
<g id="node7" class="node"><title>Node0xb01bd40</title>
<polygon fill="none" stroke="black" points="510,-609.5 510,-647.5 803,-647.5 803,-609.5 510,-609.5"/>
<text text-anchor="start" x="518" y="-632.3" font-family="Times,serif" font-size="14.00">if (mbedtls_mpi_cmp_abs(v2, v3) &lt; 0):</text>
<text text-anchor="start" x="518" y="-617.3" font-family="Times,serif" font-size="14.00"> else:</text>
</g>
<!-- Node0xe8fe200&#45;&gt;Node0xb01bd40 -->
<g id="edge6" class="edge"><title>Node0xe8fe200&#45;&gt;Node0xb01bd40</title>
<path fill="none" stroke="black" d="M629.399,-685.208C633.584,-676.605 638.66,-666.171 643.282,-656.67"/>
<polygon fill="black" stroke="black" points="646.476,-658.105 647.703,-647.582 640.181,-655.043 646.476,-658.105"/>
</g>
<!-- Node0x24b6f280 -->
<g id="node8" class="node"><title>Node0x24b6f280</title>
<polygon fill="none" stroke="black" points="0,-489.5 0,-557.5 279,-557.5 279,-489.5 0,-489.5"/>
<text text-anchor="start" x="8" y="-542.3" font-family="Times,serif" font-size="14.00">0x8058107:</text>
<text text-anchor="start" x="8" y="-527.3" font-family="Times,serif" font-size="14.00"> v9 = v1</text>
<text text-anchor="start" x="8" y="-512.3" font-family="Times,serif" font-size="14.00"> g6 = v9</text>
<text text-anchor="start" x="8" y="-497.3" font-family="Times,serif" font-size="14.00"> *(IntToPtrCastExpr&lt;ptr&gt;(v9)) = g5</text>
</g>
<!-- Node0xef34b10&#45;&gt;Node0x24b6f280 -->
<g id="edge7" class="edge"><title>Node0xef34b10&#45;&gt;Node0x24b6f280</title>
<path fill="none" stroke="black" d="M258.398,-610.41C244.246,-605.117 229.439,-598.63 216.5,-591 204.012,-583.636 191.616,-574.158 180.537,-564.679"/>
<polygon fill="black" stroke="black" points="182.542,-561.781 172.721,-557.807 177.92,-567.038 182.542,-561.781"/>
<text text-anchor="middle" x="259" y="-579.8" font-family="Times,serif" font-size="14.00">result == 0</text>
</g>
<!-- Node0xca60420 -->
<g id="node9" class="node"><title>Node0xca60420</title>
<polygon fill="none" stroke="black" points="259,-353.5 259,-451.5 372,-451.5 372,-353.5 259,-353.5"/>
<text text-anchor="start" x="267" y="-436.3" font-family="Times,serif" font-size="14.00">0x805810c:</text>
<text text-anchor="start" x="267" y="-421.3" font-family="Times,serif" font-size="14.00"> g3 = v4</text>
<text text-anchor="start" x="267" y="-406.3" font-family="Times,serif" font-size="14.00"> g7 = v5</text>
<text text-anchor="start" x="267" y="-391.3" font-family="Times,serif" font-size="14.00"> g5 = v6</text>
<text text-anchor="start" x="267" y="-376.3" font-family="Times,serif" font-size="14.00"> g2 = v8</text>
<text text-anchor="start" x="267" y="-361.3" font-family="Times,serif" font-size="14.00"> return result</text>
</g>
<!-- Node0xef34b10&#45;&gt;Node0xca60420 -->
<g id="edge8" class="edge"><title>Node0xef34b10&#45;&gt;Node0xca60420</title>
<path fill="none" stroke="black" d="M315.5,-610.295C315.5,-579.02 315.5,-511.52 315.5,-462.113"/>
<polygon fill="black" stroke="black" points="319,-461.864 315.5,-451.864 312,-461.864 319,-461.864"/>
<text text-anchor="middle" x="355" y="-519.8" font-family="Times,serif" font-size="14.00">result != 0</text>
</g>
<!-- Node0xca62360 -->
<g id="node10" class="node"><title>Node0xca62360</title>
<polygon fill="none" stroke="black" points="413,-504.5 413,-542.5 900,-542.5 900,-504.5 413,-504.5"/>
<text text-anchor="start" x="421" y="-527.3" font-family="Times,serif" font-size="14.00">v10 = mbedtls_mpi_sub_abs(IntToPtrCastExpr&lt;ptr&gt;(v1), g7, g3)</text>
<text text-anchor="start" x="421" y="-512.3" font-family="Times,serif" font-size="14.00"> result2 = v10</text>
</g>
<!-- Node0xb01bd40&#45;&gt;Node0xca62360 -->
<g id="edge9" class="edge"><title>Node0xb01bd40&#45;&gt;Node0xca62360</title>
<path fill="none" stroke="black" d="M656.5,-609.086C656.5,-593.487 656.5,-570.865 656.5,-552.94"/>
<polygon fill="black" stroke="black" points="660,-552.755 656.5,-542.755 653,-552.755 660,-552.755"/>
<text text-anchor="middle" x="780" y="-579.8" font-family="Times,serif" font-size="14.00">mbedtls_mpi_cmp_abs(v2, v3) &lt; 0</text>
</g>
<!-- Node0xa5975e0 -->
<g id="node11" class="node"><title>Node0xa5975e0</title>
<polygon fill="none" stroke="black" points="918,-504.5 918,-542.5 1405,-542.5 1405,-504.5 918,-504.5"/>
<text text-anchor="start" x="926" y="-527.3" font-family="Times,serif" font-size="14.00">v11 = mbedtls_mpi_sub_abs(IntToPtrCastExpr&lt;ptr&gt;(v1), g3, g7)</text>
<text text-anchor="start" x="926" y="-512.3" font-family="Times,serif" font-size="14.00"> result2 = v11</text>
</g>
<!-- Node0xb01bd40&#45;&gt;Node0xa5975e0 -->
<g id="edge10" class="edge"><title>Node0xb01bd40&#45;&gt;Node0xa5975e0</title>
<path fill="none" stroke="black" d="M799.671,-609.498C835.05,-604.276 872.76,-598.051 907.5,-591 969.902,-578.335 1039.83,-559.692 1090.49,-545.365"/>
<polygon fill="black" stroke="black" points="1091.7,-548.662 1100.36,-542.561 1089.78,-541.928 1091.7,-548.662"/>
<text text-anchor="middle" x="1100" y="-579.8" font-family="Times,serif" font-size="14.00">mbedtls_mpi_cmp_abs(v2, v3) &gt;= 0</text>
</g>
<!-- Node0x24b6f280&#45;&gt;Node0xca60420 -->
<g id="edge11" class="edge"><title>Node0x24b6f280&#45;&gt;Node0xca60420</title>
<path fill="none" stroke="black" d="M188.526,-489.352C207.746,-476.356 230.075,-461.259 250.599,-447.382"/>
<polygon fill="black" stroke="black" points="252.643,-450.225 258.967,-441.724 248.722,-444.426 252.643,-450.225"/>
</g>
<!-- Node0xb01d3e0 -->
<g id="node12" class="node"><title>Node0xb01d3e0</title>
<polygon fill="none" stroke="black" points="431.5,-23.5 431.5,-59.5 485.5,-59.5 485.5,-23.5 431.5,-23.5"/>
<text text-anchor="start" x="439.5" y="-37.8" font-family="Times,serif" font-size="14.00">exit:</text>
</g>
<!-- Node0xca60420&#45;&gt;Node0xb01d3e0 -->
<g id="edge12" class="edge"><title>Node0xca60420&#45;&gt;Node0xb01d3e0</title>
<path fill="none" stroke="black" d="M334.637,-353.456C365.141,-276.876 423.793,-129.631 447.829,-69.2901"/>
<polygon fill="black" stroke="black" points="451.191,-70.3061 451.64,-59.7208 444.688,-67.7157 451.191,-70.3061"/>
</g>
<!-- Node0xa2a1d00 -->
<g id="node13" class="node"><title>Node0xa2a1d00</title>
<polygon fill="none" stroke="black" points="599.5,-384.5 599.5,-420.5 713.5,-420.5 713.5,-384.5 599.5,-384.5"/>
<text text-anchor="start" x="607.5" y="-398.8" font-family="Times,serif" font-size="14.00">if (v10 == 0):</text>
</g>
<!-- Node0xca62360&#45;&gt;Node0xa2a1d00 -->
<g id="edge13" class="edge"><title>Node0xca62360&#45;&gt;Node0xa2a1d00</title>
<path fill="none" stroke="black" d="M656.5,-504.426C656.5,-484.87 656.5,-453.46 656.5,-430.872"/>
<polygon fill="black" stroke="black" points="660,-430.583 656.5,-420.583 653,-430.583 660,-430.583"/>
</g>
<!-- Node0x24b6b060 -->
<g id="node14" class="node"><title>Node0x24b6b060</title>
<polygon fill="none" stroke="black" points="999.5,-384.5 999.5,-420.5 1113.5,-420.5 1113.5,-384.5 999.5,-384.5"/>
<text text-anchor="start" x="1007.5" y="-398.8" font-family="Times,serif" font-size="14.00">if (v11 == 0):</text>
</g>
<!-- Node0xa5975e0&#45;&gt;Node0x24b6b060 -->
<g id="edge14" class="edge"><title>Node0xa5975e0&#45;&gt;Node0x24b6b060</title>
<path fill="none" stroke="black" d="M1145.55,-504.426C1127.59,-484.07 1098.3,-450.87 1078.25,-428.146"/>
<polygon fill="black" stroke="black" points="1080.81,-425.766 1071.57,-420.583 1075.57,-430.398 1080.81,-425.766"/>
</g>
<!-- Node0xe8fe460 -->
<g id="node15" class="node"><title>Node0xe8fe460</title>
<polygon fill="none" stroke="black" points="406.5,-241 406.5,-294 700.5,-294 700.5,-241 406.5,-241"/>
<text text-anchor="start" x="414.5" y="-278.8" font-family="Times,serif" font-size="14.00">0x8058167:</text>
<text text-anchor="start" x="414.5" y="-263.8" font-family="Times,serif" font-size="14.00"> g6 = v1</text>
<text text-anchor="start" x="414.5" y="-248.8" font-family="Times,serif" font-size="14.00"> *(IntToPtrCastExpr&lt;ptr&gt;(v1)) = &#45;(g5)</text>
</g>
<!-- Node0xa2a1d00&#45;&gt;Node0xe8fe460 -->
<g id="edge15" class="edge"><title>Node0xa2a1d00&#45;&gt;Node0xe8fe460</title>
<path fill="none" stroke="black" d="M643.245,-384.385C627.263,-363.747 600.021,-328.57 579.733,-302.374"/>
<polygon fill="black" stroke="black" points="582.304,-299.977 573.414,-294.214 576.77,-304.263 582.304,-299.977"/>
<text text-anchor="middle" x="640" y="-323.8" font-family="Times,serif" font-size="14.00">v10 == 0</text>
</g>
<!-- Node0xfdecb10 -->
<g id="node16" class="node"><title>Node0xfdecb10</title>
<polygon fill="none" stroke="black" points="675.5,-97.5 675.5,-195.5 797.5,-195.5 797.5,-97.5 675.5,-97.5"/>
<text text-anchor="start" x="683.5" y="-180.3" font-family="Times,serif" font-size="14.00">0x805810c:</text>
<text text-anchor="start" x="683.5" y="-165.3" font-family="Times,serif" font-size="14.00"> g3 = v4</text>
<text text-anchor="start" x="683.5" y="-150.3" font-family="Times,serif" font-size="14.00"> g7 = v5</text>
<text text-anchor="start" x="683.5" y="-135.3" font-family="Times,serif" font-size="14.00"> g5 = v6</text>
<text text-anchor="start" x="683.5" y="-120.3" font-family="Times,serif" font-size="14.00"> g2 = v8</text>
<text text-anchor="start" x="683.5" y="-105.3" font-family="Times,serif" font-size="14.00"> return result2</text>
</g>
<!-- Node0xa2a1d00&#45;&gt;Node0xfdecb10 -->
<g id="edge16" class="edge"><title>Node0xa2a1d00&#45;&gt;Node0xfdecb10</title>
<path fill="none" stroke="black" d="M667.849,-384.297C680.016,-365.045 698.998,-332.539 709.5,-302 720.114,-271.135 726.708,-235.301 730.72,-205.919"/>
<polygon fill="black" stroke="black" points="734.215,-206.181 732.033,-195.813 727.273,-205.279 734.215,-206.181"/>
<text text-anchor="middle" x="757" y="-263.8" font-family="Times,serif" font-size="14.00">v10 != 0</text>
</g>
<!-- Node0x24b6b060&#45;&gt;Node0xfdecb10 -->
<g id="edge18" class="edge"><title>Node0x24b6b060&#45;&gt;Node0xfdecb10</title>
<path fill="none" stroke="black" d="M1001.41,-384.383C956.039,-368.33 891.868,-340.938 845.5,-302 836.299,-294.273 801.968,-244.848 774.263,-203.948"/>
<polygon fill="black" stroke="black" points="777.142,-201.957 768.641,-195.633 771.342,-205.878 777.142,-201.957"/>
<text text-anchor="middle" x="877" y="-263.8" font-family="Times,serif" font-size="14.00">v11 != 0</text>
</g>
<!-- Node0xe8fb8f0 -->
<g id="node17" class="node"><title>Node0xe8fb8f0</title>
<polygon fill="none" stroke="black" points="917,-233.5 917,-301.5 1196,-301.5 1196,-233.5 917,-233.5"/>
<text text-anchor="start" x="925" y="-286.3" font-family="Times,serif" font-size="14.00">0x8058107:</text>
<text text-anchor="start" x="925" y="-271.3" font-family="Times,serif" font-size="14.00"> v9 = v1</text>
<text text-anchor="start" x="925" y="-256.3" font-family="Times,serif" font-size="14.00"> g6 = v9</text>
<text text-anchor="start" x="925" y="-241.3" font-family="Times,serif" font-size="14.00"> *(IntToPtrCastExpr&lt;ptr&gt;(v9)) = g5</text>
</g>
<!-- Node0x24b6b060&#45;&gt;Node0xe8fb8f0 -->
<g id="edge17" class="edge"><title>Node0x24b6b060&#45;&gt;Node0xe8fb8f0</title>
<path fill="none" stroke="black" d="M1056.5,-384.385C1056.5,-366.152 1056.5,-336.573 1056.5,-311.863"/>
<polygon fill="black" stroke="black" points="1060,-311.619 1056.5,-301.619 1053,-311.619 1060,-311.619"/>
<text text-anchor="middle" x="1091" y="-323.8" font-family="Times,serif" font-size="14.00">v11 == 0</text>
</g>
<!-- Node0xe8fe460&#45;&gt;Node0xfdecb10 -->
<g id="edge19" class="edge"><title>Node0xe8fe460&#45;&gt;Node0xfdecb10</title>
<path fill="none" stroke="black" d="M592.758,-240.972C614.366,-226.921 641.818,-209.069 666.93,-192.74"/>
<polygon fill="black" stroke="black" points="668.869,-195.654 675.344,-187.268 665.053,-189.785 668.869,-195.654"/>
</g>
<!-- Node0xfdecb10&#45;&gt;Node0xb01d3e0 -->
<g id="edge20" class="edge"><title>Node0xfdecb10&#45;&gt;Node0xb01d3e0</title>
<path fill="none" stroke="black" d="M675.492,-122.896C620.397,-102.483 541.131,-73.1151 495.214,-56.1027"/>
<polygon fill="black" stroke="black" points="496.261,-52.7581 485.668,-52.5658 493.829,-59.3221 496.261,-52.7581"/>
</g>
<!-- Node0xe8fb8f0&#45;&gt;Node0xfdecb10 -->
<g id="edge21" class="edge"><title>Node0xe8fb8f0&#45;&gt;Node0xfdecb10</title>
<path fill="none" stroke="black" d="M967.362,-233.352C916.842,-214.565 854.511,-191.385 807.354,-173.849"/>
<polygon fill="black" stroke="black" points="808.425,-170.513 797.832,-170.308 805.985,-177.074 808.425,-170.513"/>
</g>
</g>
</svg>
