<?xml version="1.0" encoding="UTF-8" standalone="no"?>
<!DOCTYPE svg PUBLIC "-//W3C//DTD SVG 1.1//EN"
 "http://www.w3.org/Graphics/SVG/1.1/DTD/svg11.dtd">
<!-- Generated by graphviz version 2.38.0 (20140413.2041)
 -->
<!-- Title: Control&#45;flow graph for function &#39;mbedtls_entropy_update_manual(a1, a2, a3, a4, a5)&#39;. Pages: 1 -->
<svg width="634pt" height="368pt"
 viewBox="0.00 0.00 634.00 368.00" xmlns="http://www.w3.org/2000/svg" xmlns:xlink="http://www.w3.org/1999/xlink">
<g id="graph0" class="graph" transform="scale(1 1) rotate(0) translate(4 364)">
<title>Control&#45;flow graph for function &#39;mbedtls_entropy_update_manual(a1, a2, a3, a4, a5)&#39;.</title>
<polygon fill="white" stroke="none" points="-4,4 -4,-364 630,-364 630,4 -4,4"/>
<text text-anchor="middle" x="313" y="-7.8" font-family="Times,serif" font-size="14.00">Control&#45;flow graph for function &#39;mbedtls_entropy_update_manual(a1, a2, a3, a4, a5)&#39;.</text>
<!-- Node0x244c9f30 -->
<g id="node1" class="node"><title>Node0x244c9f30</title>
<polygon fill="none" stroke="black" points="283.5,-261.5 283.5,-359.5 342.5,-359.5 342.5,-261.5 283.5,-261.5"/>
<text text-anchor="start" x="291.5" y="-344.3" font-family="Times,serif" font-size="14.00">entry:</text>
<text text-anchor="start" x="291.5" y="-329.3" font-family="Times,serif" font-size="14.00"> a1</text>
<text text-anchor="start" x="291.5" y="-314.3" font-family="Times,serif" font-size="14.00"> a2</text>
<text text-anchor="start" x="291.5" y="-299.3" font-family="Times,serif" font-size="14.00"> a3</text>
<text text-anchor="start" x="291.5" y="-284.3" font-family="Times,serif" font-size="14.00"> a4</text>
<text text-anchor="start" x="291.5" y="-269.3" font-family="Times,serif" font-size="14.00"> a5</text>
</g>
<!-- Node0x198cc250 -->
<g id="node2" class="node"><title>Node0x198cc250</title>
<polygon fill="none" stroke="black" points="193,-96.5 193,-224.5 433,-224.5 433,-96.5 193,-96.5"/>
<text text-anchor="start" x="201" y="-209.3" font-family="Times,serif" font-size="14.00">0x804c610:</text>
<text text-anchor="start" x="201" y="-194.3" font-family="Times,serif" font-size="14.00"> g1 = a1</text>
<text text-anchor="start" x="201" y="-179.3" font-family="Times,serif" font-size="14.00"> g4 = a2</text>
<text text-anchor="start" x="201" y="-164.3" font-family="Times,serif" font-size="14.00"> g6 = 20</text>
<text text-anchor="start" x="201" y="-149.3" font-family="Times,serif" font-size="14.00"> v1</text>
<text text-anchor="start" x="201" y="-134.3" font-family="Times,serif" font-size="14.00"> v2</text>
<text text-anchor="start" x="201" y="-119.3" font-family="Times,serif" font-size="14.00"> entropy_update(v2, v1, a3, a2)</text>
<text text-anchor="start" x="201" y="-104.3" font-family="Times,serif" font-size="14.00"> return 0</text>
</g>
<!-- Node0x244c9f30&#45;&gt;Node0x198cc250 -->
<g id="edge1" class="edge"><title>Node0x244c9f30&#45;&gt;Node0x198cc250</title>
<path fill="none" stroke="black" d="M313,-261.449C313,-252.924 313,-243.874 313,-234.837"/>
<polygon fill="black" stroke="black" points="316.5,-234.669 313,-224.669 309.5,-234.669 316.5,-234.669"/>
</g>
<!-- Node0x198cc1f0 -->
<g id="node3" class="node"><title>Node0x198cc1f0</title>
<polygon fill="none" stroke="black" points="286,-23.5 286,-59.5 340,-59.5 340,-23.5 286,-23.5"/>
<text text-anchor="start" x="294" y="-37.8" font-family="Times,serif" font-size="14.00">exit:</text>
</g>
<!-- Node0x198cc250&#45;&gt;Node0x198cc1f0 -->
<g id="edge2" class="edge"><title>Node0x198cc250&#45;&gt;Node0x198cc1f0</title>
<path fill="none" stroke="black" d="M313,-96.206C313,-87.0257 313,-78.004 313,-70.0532"/>
<polygon fill="black" stroke="black" points="316.5,-69.9607 313,-59.9608 309.5,-69.9608 316.5,-69.9607"/>
</g>
</g>
</svg>
