<?xml version="1.0" encoding="UTF-8" standalone="no"?>
<!DOCTYPE svg PUBLIC "-//W3C//DTD SVG 1.1//EN"
 "http://www.w3.org/Graphics/SVG/1.1/DTD/svg11.dtd">
<!-- Generated by graphviz version 2.38.0 (20140413.2041)
 -->
<!-- Title: Control&#45;flow graph for function &#39;mbedtls_ecdsa_read_signature(a1, a2, a3, a4, a5)&#39;. Pages: 1 -->
<svg width="1730pt" height="1589pt"
 viewBox="0.00 0.00 1730.00 1589.00" xmlns="http://www.w3.org/2000/svg" xmlns:xlink="http://www.w3.org/1999/xlink">
<g id="graph0" class="graph" transform="scale(1 1) rotate(0) translate(4 1585)">
<title>Control&#45;flow graph for function &#39;mbedtls_ecdsa_read_signature(a1, a2, a3, a4, a5)&#39;.</title>
<polygon fill="white" stroke="none" points="-4,4 -4,-1585 1726,-1585 1726,4 -4,4"/>
<text text-anchor="middle" x="861" y="-7.8" font-family="Times,serif" font-size="14.00">Control&#45;flow graph for function &#39;mbedtls_ecdsa_read_signature(a1, a2, a3, a4, a5)&#39;.</text>
<!-- Node0x85e2020 -->
<g id="node1" class="node"><title>Node0x85e2020</title>
<polygon fill="none" stroke="black" points="862.5,-1482.5 862.5,-1580.5 921.5,-1580.5 921.5,-1482.5 862.5,-1482.5"/>
<text text-anchor="start" x="870.5" y="-1565.3" font-family="Times,serif" font-size="14.00">entry:</text>
<text text-anchor="start" x="870.5" y="-1550.3" font-family="Times,serif" font-size="14.00"> a1</text>
<text text-anchor="start" x="870.5" y="-1535.3" font-family="Times,serif" font-size="14.00"> a2</text>
<text text-anchor="start" x="870.5" y="-1520.3" font-family="Times,serif" font-size="14.00"> a3</text>
<text text-anchor="start" x="870.5" y="-1505.3" font-family="Times,serif" font-size="14.00"> a4</text>
<text text-anchor="start" x="870.5" y="-1490.3" font-family="Times,serif" font-size="14.00"> a5</text>
</g>
<!-- Node0x85e4590 -->
<g id="node2" class="node"><title>Node0x85e4590</title>
<polygon fill="none" stroke="black" points="713.5,-1226.5 713.5,-1444.5 1070.5,-1444.5 1070.5,-1226.5 713.5,-1226.5"/>
<text text-anchor="start" x="721.5" y="-1429.3" font-family="Times,serif" font-size="14.00">v1 = g5</text>
<text text-anchor="start" x="721.5" y="-1414.3" font-family="Times,serif" font-size="14.00"> v2 = g3</text>
<text text-anchor="start" x="721.5" y="-1399.3" font-family="Times,serif" font-size="14.00"> v3</text>
<text text-anchor="start" x="721.5" y="-1384.3" font-family="Times,serif" font-size="14.00"> g3 = &amp;(v3)</text>
<text text-anchor="start" x="721.5" y="-1369.3" font-family="Times,serif" font-size="14.00"> v4</text>
<text text-anchor="start" x="721.5" y="-1354.3" font-family="Times,serif" font-size="14.00"> g7 = &amp;(v4)</text>
<text text-anchor="start" x="721.5" y="-1339.3" font-family="Times,serif" font-size="14.00"> v5 = a4</text>
<text text-anchor="start" x="721.5" y="-1324.3" font-family="Times,serif" font-size="14.00"> g5 = (a5 + a4)</text>
<text text-anchor="start" x="721.5" y="-1309.3" font-family="Times,serif" font-size="14.00"> mbedtls_mpi_init(&amp;(v3))</text>
<text text-anchor="start" x="721.5" y="-1294.3" font-family="Times,serif" font-size="14.00"> mbedtls_mpi_init(IntToPtrCastExpr&lt;ptr&gt;(g7))</text>
<text text-anchor="start" x="721.5" y="-1279.3" font-family="Times,serif" font-size="14.00"> v6</text>
<text text-anchor="start" x="721.5" y="-1264.3" font-family="Times,serif" font-size="14.00"> v7</text>
<text text-anchor="start" x="721.5" y="-1249.3" font-family="Times,serif" font-size="14.00"> v8</text>
<text text-anchor="start" x="721.5" y="-1234.3" font-family="Times,serif" font-size="14.00"> result</text>
</g>
<!-- Node0x85e2020&#45;&gt;Node0x85e4590 -->
<g id="edge1" class="edge"><title>Node0x85e2020&#45;&gt;Node0x85e4590</title>
<path fill="none" stroke="black" d="M892,-1482.05C892,-1473.47 892,-1464.2 892,-1454.65"/>
<polygon fill="black" stroke="black" points="895.5,-1454.62 892,-1444.62 888.5,-1454.62 895.5,-1454.62"/>
</g>
<!-- Node0x146756f0 -->
<g id="node3" class="node"><title>Node0x146756f0</title>
<polygon fill="none" stroke="black" points="591,-1150.5 591,-1188.5 1193,-1188.5 1193,-1150.5 591,-1150.5"/>
<text text-anchor="start" x="599" y="-1173.3" font-family="Times,serif" font-size="14.00">if (mbedtls_asn1_get_tag(&amp;(v5), g5, PtrToIntCastExpr&lt;int32&gt;(&amp;(v8)), 48) == 0):</text>
<text text-anchor="start" x="599" y="-1158.3" font-family="Times,serif" font-size="14.00"> else:</text>
</g>
<!-- Node0x85e4590&#45;&gt;Node0x146756f0 -->
<g id="edge2" class="edge"><title>Node0x85e4590&#45;&gt;Node0x146756f0</title>
<path fill="none" stroke="black" d="M892,-1226.48C892,-1216.59 892,-1207.25 892,-1199.15"/>
<polygon fill="black" stroke="black" points="895.5,-1198.92 892,-1188.92 888.5,-1198.92 895.5,-1198.92"/>
</g>
<!-- Node0x14676dc0 -->
<g id="node4" class="node"><title>Node0x14676dc0</title>
<polygon fill="none" stroke="black" points="542.5,-1045.5 542.5,-1098.5 667.5,-1098.5 667.5,-1045.5 542.5,-1045.5"/>
<text text-anchor="start" x="550.5" y="-1083.3" font-family="Times,serif" font-size="14.00">0x805b4e8:</text>
<text text-anchor="start" x="550.5" y="-1068.3" font-family="Times,serif" font-size="14.00"> g1 = &#45;20454</text>
<text text-anchor="start" x="550.5" y="-1053.3" font-family="Times,serif" font-size="14.00"> v9 = (v8 + v5)</text>
</g>
<!-- Node0x146756f0&#45;&gt;Node0x14676dc0 -->
<g id="edge3" class="edge"><title>Node0x146756f0&#45;&gt;Node0x14676dc0</title>
<path fill="none" stroke="black" d="M674.073,-1150.48C637.592,-1145.39 609.375,-1139.23 603,-1132 597.41,-1125.66 595.63,-1117.28 595.784,-1108.84"/>
<polygon fill="black" stroke="black" points="599.292,-1108.93 596.806,-1098.64 592.326,-1108.24 599.292,-1108.93"/>
<text text-anchor="middle" x="881.5" y="-1120.8" font-family="Times,serif" font-size="14.00">mbedtls_asn1_get_tag(&amp;(v5), g5, PtrToIntCastExpr&lt;int32&gt;(&amp;(v8)), 48) == 0</text>
</g>
<!-- Node0x14676f70 -->
<g id="node5" class="node"><title>Node0x14676f70</title>
<polygon fill="none" stroke="black" points="1127.5,-958.5 1127.5,-1026.5 1228.5,-1026.5 1228.5,-958.5 1127.5,-958.5"/>
<text text-anchor="start" x="1135.5" y="-1011.3" font-family="Times,serif" font-size="14.00">0x805b4c0:</text>
<text text-anchor="start" x="1135.5" y="-996.3" font-family="Times,serif" font-size="14.00"> v6 = &amp;(v7)</text>
<text text-anchor="start" x="1135.5" y="-981.3" font-family="Times,serif" font-size="14.00"> g1 = v6</text>
<text text-anchor="start" x="1135.5" y="-966.3" font-family="Times,serif" font-size="14.00"> result = v6</text>
</g>
<!-- Node0x146756f0&#45;&gt;Node0x14676f70 -->
<g id="edge4" class="edge"><title>Node0x146756f0&#45;&gt;Node0x14676f70</title>
<path fill="none" stroke="black" d="M1122.06,-1150.5C1139,-1145.68 1152.43,-1139.62 1160,-1132 1184.34,-1107.51 1187.17,-1067.41 1184.89,-1036.64"/>
<polygon fill="black" stroke="black" points="1188.37,-1036.23 1183.95,-1026.61 1181.4,-1036.89 1188.37,-1036.23"/>
<text text-anchor="middle" x="1446.5" y="-1120.8" font-family="Times,serif" font-size="14.00">mbedtls_asn1_get_tag(&amp;(v5), g5, PtrToIntCastExpr&lt;int32&gt;(&amp;(v8)), 48) != 0</text>
</g>
<!-- Node0x14676e40 -->
<g id="node6" class="node"><title>Node0x14676e40</title>
<polygon fill="none" stroke="black" points="581,-901.5 581,-939.5 695,-939.5 695,-901.5 581,-901.5"/>
<text text-anchor="start" x="589" y="-924.3" font-family="Times,serif" font-size="14.00">if (v9 == g5):</text>
<text text-anchor="start" x="589" y="-909.3" font-family="Times,serif" font-size="14.00"> else:</text>
</g>
<!-- Node0x14676dc0&#45;&gt;Node0x14676e40 -->
<g id="edge5" class="edge"><title>Node0x14676dc0&#45;&gt;Node0x14676e40</title>
<path fill="none" stroke="black" d="M610.673,-1045.3C616.555,-1018.65 625.725,-977.108 631.797,-949.602"/>
<polygon fill="black" stroke="black" points="635.221,-950.328 633.959,-939.808 628.385,-948.819 635.221,-950.328"/>
</g>
<!-- Node0x14676ae0 -->
<g id="node7" class="node"><title>Node0x14676ae0</title>
<polygon fill="none" stroke="black" points="788.5,-443.5 788.5,-541.5 1189.5,-541.5 1189.5,-443.5 788.5,-443.5"/>
<text text-anchor="start" x="796.5" y="-526.3" font-family="Times,serif" font-size="14.00">0x805b4c5:</text>
<text text-anchor="start" x="796.5" y="-511.3" font-family="Times,serif" font-size="14.00"> g1 = mbedtls_mpi_free(IntToPtrCastExpr&lt;ptr&gt;(g3))</text>
<text text-anchor="start" x="796.5" y="-496.3" font-family="Times,serif" font-size="14.00"> mbedtls_mpi_free(IntToPtrCastExpr&lt;ptr&gt;(g7))</text>
<text text-anchor="start" x="796.5" y="-481.3" font-family="Times,serif" font-size="14.00"> g3 = v2</text>
<text text-anchor="start" x="796.5" y="-466.3" font-family="Times,serif" font-size="14.00"> g5 = v1</text>
<text text-anchor="start" x="796.5" y="-451.3" font-family="Times,serif" font-size="14.00"> return result</text>
</g>
<!-- Node0x14676f70&#45;&gt;Node0x14676ae0 -->
<g id="edge6" class="edge"><title>Node0x14676f70&#45;&gt;Node0x14676ae0</title>
<path fill="none" stroke="black" d="M1172.26,-958.398C1168.78,-935.479 1165,-904.228 1165,-876.5 1165,-876.5 1165,-876.5 1165,-612.5 1165,-585.681 1150.8,-564.497 1130.47,-547.91"/>
<polygon fill="black" stroke="black" points="1132.48,-545.037 1122.4,-541.776 1128.24,-550.612 1132.48,-545.037"/>
</g>
<!-- Node0x14676fd0 -->
<g id="node8" class="node"><title>Node0x14676fd0</title>
<polygon fill="none" stroke="black" points="457.5,-811.5 457.5,-849.5 818.5,-849.5 818.5,-811.5 457.5,-811.5"/>
<text text-anchor="start" x="465.5" y="-834.3" font-family="Times,serif" font-size="14.00">0x805b4f7:</text>
<text text-anchor="start" x="465.5" y="-819.3" font-family="Times,serif" font-size="14.00"> if (mbedtls_asn1_get_mpi(&amp;(v5), v9, g3) == 0):</text>
</g>
<!-- Node0x14676e40&#45;&gt;Node0x14676fd0 -->
<g id="edge7" class="edge"><title>Node0x14676e40&#45;&gt;Node0x14676fd0</title>
<path fill="none" stroke="black" d="M638,-901.266C638,-889.349 638,-873.538 638,-859.982"/>
<polygon fill="black" stroke="black" points="641.5,-859.71 638,-849.71 634.5,-859.71 641.5,-859.71"/>
<text text-anchor="middle" x="672.5" y="-871.8" font-family="Times,serif" font-size="14.00">v9 == g5</text>
</g>
<!-- Node0x14677630 -->
<g id="node9" class="node"><title>Node0x14677630</title>
<polygon fill="none" stroke="black" points="913.5,-756.5 913.5,-792.5 1042.5,-792.5 1042.5,-756.5 913.5,-756.5"/>
<text text-anchor="start" x="921.5" y="-770.8" font-family="Times,serif" font-size="14.00">result = &#45;20454</text>
</g>
<!-- Node0x14676e40&#45;&gt;Node0x14677630 -->
<g id="edge8" class="edge"><title>Node0x14676e40&#45;&gt;Node0x14677630</title>
<path fill="none" stroke="black" d="M691.954,-901.369C730.087,-888.142 782.182,-869.232 827,-850 864.856,-833.755 906.791,-812.82 936.843,-797.28"/>
<polygon fill="black" stroke="black" points="938.51,-800.359 945.77,-792.642 935.283,-794.147 938.51,-800.359"/>
<text text-anchor="middle" x="811.5" y="-871.8" font-family="Times,serif" font-size="14.00">v9 != g5</text>
</g>
<!-- Node0xe614960 -->
<g id="node10" class="node"><title>Node0xe614960</title>
<polygon fill="none" stroke="black" points="894,-23.5 894,-59.5 948,-59.5 948,-23.5 894,-23.5"/>
<text text-anchor="start" x="902" y="-37.8" font-family="Times,serif" font-size="14.00">exit:</text>
</g>
<!-- Node0x14676ae0&#45;&gt;Node0xe614960 -->
<g id="edge9" class="edge"><title>Node0x14676ae0&#45;&gt;Node0xe614960</title>
<path fill="none" stroke="black" d="M986.743,-443.239C985.836,-419.911 985,-391.505 985,-366 985,-366 985,-366 985,-145.5 985,-115.339 964.957,-86.679 947.304,-67.2851"/>
<polygon fill="black" stroke="black" points="949.63,-64.6516 940.202,-59.817 944.557,-69.4754 949.63,-64.6516"/>
</g>
<!-- Node0x146776b0 -->
<g id="node11" class="node"><title>Node0x146776b0</title>
<polygon fill="none" stroke="black" points="183.5,-699.5 183.5,-737.5 544.5,-737.5 544.5,-699.5 183.5,-699.5"/>
<text text-anchor="start" x="191.5" y="-722.3" font-family="Times,serif" font-size="14.00">0x805b514:</text>
<text text-anchor="start" x="191.5" y="-707.3" font-family="Times,serif" font-size="14.00"> if (mbedtls_asn1_get_mpi(&amp;(v5), v9, g7) == 0):</text>
</g>
<!-- Node0x14676fd0&#45;&gt;Node0x146776b0 -->
<g id="edge10" class="edge"><title>Node0x14676fd0&#45;&gt;Node0x146776b0</title>
<path fill="none" stroke="black" d="M457.281,-823.261C415.379,-817.916 378.924,-808.693 365,-793 354.265,-780.901 353.915,-762.765 356.298,-747.536"/>
<polygon fill="black" stroke="black" points="359.762,-748.059 358.29,-737.567 352.898,-746.687 359.762,-748.059"/>
<text text-anchor="middle" x="520.5" y="-770.8" font-family="Times,serif" font-size="14.00">mbedtls_asn1_get_mpi(&amp;(v5), v9, g3) == 0</text>
</g>
<!-- Node0x146775d0 -->
<g id="node12" class="node"><title>Node0x146775d0</title>
<polygon fill="none" stroke="black" points="639.5,-579.5 639.5,-647.5 740.5,-647.5 740.5,-579.5 639.5,-579.5"/>
<text text-anchor="start" x="647.5" y="-632.3" font-family="Times,serif" font-size="14.00">0x805b4c0:</text>
<text text-anchor="start" x="647.5" y="-617.3" font-family="Times,serif" font-size="14.00"> v6 = &amp;(v7)</text>
<text text-anchor="start" x="647.5" y="-602.3" font-family="Times,serif" font-size="14.00"> g1 = v6</text>
<text text-anchor="start" x="647.5" y="-587.3" font-family="Times,serif" font-size="14.00"> result = v6</text>
</g>
<!-- Node0x14676fd0&#45;&gt;Node0x146775d0 -->
<g id="edge11" class="edge"><title>Node0x14676fd0&#45;&gt;Node0x146775d0</title>
<path fill="none" stroke="black" d="M662.355,-811.233C667.74,-805.962 672.792,-799.78 676,-793 696.232,-750.236 697.356,-695.231 694.941,-657.654"/>
<polygon fill="black" stroke="black" points="698.421,-657.251 694.179,-647.542 691.441,-657.777 698.421,-657.251"/>
<text text-anchor="middle" x="848.5" y="-714.8" font-family="Times,serif" font-size="14.00">mbedtls_asn1_get_mpi(&amp;(v5), v9, g3) != 0</text>
</g>
<!-- Node0x14677630&#45;&gt;Node0x14676ae0 -->
<g id="edge12" class="edge"><title>Node0x14677630&#45;&gt;Node0x14676ae0</title>
<path fill="none" stroke="black" d="M994.527,-756.408C998.776,-750.952 1002.77,-744.604 1005,-738 1025.64,-676.779 1016.16,-602.144 1005.03,-551.558"/>
<polygon fill="black" stroke="black" points="1008.43,-550.741 1002.79,-541.773 1001.61,-552.302 1008.43,-550.741"/>
</g>
<!-- Node0x146776b0&#45;&gt;Node0x146775d0 -->
<g id="edge14" class="edge"><title>Node0x146776b0&#45;&gt;Node0x146775d0</title>
<path fill="none" stroke="black" d="M361.502,-699.457C361.036,-688.36 362.558,-674.656 371,-666 379.958,-656.816 539.031,-634.457 629.087,-622.444"/>
<polygon fill="black" stroke="black" points="629.727,-625.889 639.179,-621.102 628.805,-618.951 629.727,-625.889"/>
<text text-anchor="middle" x="523.5" y="-669.8" font-family="Times,serif" font-size="14.00">mbedtls_asn1_get_mpi(&amp;(v5), v9, g7) != 0</text>
</g>
<!-- Node0x14677ae0 -->
<g id="node13" class="node"><title>Node0x14677ae0</title>
<polygon fill="none" stroke="black" points="0,-587 0,-640 438,-640 438,-587 0,-587"/>
<text text-anchor="start" x="8" y="-624.8" font-family="Times,serif" font-size="14.00">v10 = mbedtls_ecdsa_verify(a1, a2, a3, (a1 + 136), g3, g7)</text>
<text text-anchor="start" x="8" y="-609.8" font-family="Times,serif" font-size="14.00"> g1 = v10</text>
<text text-anchor="start" x="8" y="-594.8" font-family="Times,serif" font-size="14.00"> result = v10</text>
</g>
<!-- Node0x146776b0&#45;&gt;Node0x14677ae0 -->
<g id="edge13" class="edge"><title>Node0x146776b0&#45;&gt;Node0x14677ae0</title>
<path fill="none" stroke="black" d="M183.342,-707.429C113.598,-701.661 47.8307,-693.107 37,-681 23.5337,-665.947 26.3945,-654.297 38.6646,-645.282"/>
<polygon fill="black" stroke="black" points="40.6867,-648.15 47.4587,-640.002 37.0835,-642.149 40.6867,-648.15"/>
<text text-anchor="middle" x="192.5" y="-669.8" font-family="Times,serif" font-size="14.00">mbedtls_asn1_get_mpi(&amp;(v5), v9, g7) == 0</text>
</g>
<!-- Node0x146775d0&#45;&gt;Node0x14676ae0 -->
<g id="edge15" class="edge"><title>Node0x146775d0&#45;&gt;Node0x14676ae0</title>
<path fill="none" stroke="black" d="M740.721,-592.313C773.25,-579.367 817.072,-561.926 858.844,-545.301"/>
<polygon fill="black" stroke="black" points="860.284,-548.495 868.281,-541.545 857.695,-541.991 860.284,-548.495"/>
</g>
<!-- Node0x146736e0 -->
<g id="node14" class="node"><title>Node0x146736e0</title>
<polygon fill="none" stroke="black" points="589,-474.5 589,-510.5 703,-510.5 703,-474.5 589,-474.5"/>
<text text-anchor="start" x="597" y="-488.8" font-family="Times,serif" font-size="14.00">if (v10 == 0):</text>
</g>
<!-- Node0x14677ae0&#45;&gt;Node0x146736e0 -->
<g id="edge16" class="edge"><title>Node0x14677ae0&#45;&gt;Node0x146736e0</title>
<path fill="none" stroke="black" d="M310.602,-586.972C391.23,-564.501 506.74,-532.31 579.002,-512.172"/>
<polygon fill="black" stroke="black" points="580.21,-515.468 588.903,-509.412 578.331,-508.725 580.21,-515.468"/>
</g>
<!-- Node0x14677ca0 -->
<g id="node15" class="node"><title>Node0x14677ca0</title>
<polygon fill="none" stroke="black" points="696,-338.5 696,-391.5 808,-391.5 808,-338.5 696,-338.5"/>
<text text-anchor="start" x="704" y="-376.3" font-family="Times,serif" font-size="14.00">0x805b569:</text>
<text text-anchor="start" x="704" y="-361.3" font-family="Times,serif" font-size="14.00"> if (v9 != v5):</text>
<text text-anchor="start" x="704" y="-346.3" font-family="Times,serif" font-size="14.00"> else:</text>
</g>
<!-- Node0x146736e0&#45;&gt;Node0x14677ca0 -->
<g id="edge17" class="edge"><title>Node0x146736e0&#45;&gt;Node0x14677ca0</title>
<path fill="none" stroke="black" d="M660.517,-474.313C676.716,-455.133 703.323,-423.632 723.677,-399.533"/>
<polygon fill="black" stroke="black" points="726.538,-401.57 730.317,-391.672 721.19,-397.054 726.538,-401.57"/>
<text text-anchor="middle" x="749.5" y="-413.8" font-family="Times,serif" font-size="14.00">v10 == 0</text>
</g>
<!-- Node0x14677b40 -->
<g id="node16" class="node"><title>Node0x14677b40</title>
<polygon fill="none" stroke="black" points="554.5,-97.5 554.5,-195.5 955.5,-195.5 955.5,-97.5 554.5,-97.5"/>
<text text-anchor="start" x="562.5" y="-180.3" font-family="Times,serif" font-size="14.00">0x805b4c5:</text>
<text text-anchor="start" x="562.5" y="-165.3" font-family="Times,serif" font-size="14.00"> g1 = mbedtls_mpi_free(IntToPtrCastExpr&lt;ptr&gt;(g3))</text>
<text text-anchor="start" x="562.5" y="-150.3" font-family="Times,serif" font-size="14.00"> mbedtls_mpi_free(IntToPtrCastExpr&lt;ptr&gt;(g7))</text>
<text text-anchor="start" x="562.5" y="-135.3" font-family="Times,serif" font-size="14.00"> g3 = v2</text>
<text text-anchor="start" x="562.5" y="-120.3" font-family="Times,serif" font-size="14.00"> g5 = v1</text>
<text text-anchor="start" x="562.5" y="-105.3" font-family="Times,serif" font-size="14.00"> return result</text>
</g>
<!-- Node0x146736e0&#45;&gt;Node0x14677b40 -->
<g id="edge18" class="edge"><title>Node0x146736e0&#45;&gt;Node0x14677b40</title>
<path fill="none" stroke="black" d="M643.216,-474.423C637.031,-431.42 625.62,-316.172 665,-233 670.044,-222.348 677.04,-212.345 684.923,-203.2"/>
<polygon fill="black" stroke="black" points="687.586,-205.474 691.731,-195.724 682.41,-200.761 687.586,-205.474"/>
<text text-anchor="middle" x="675.5" y="-308.8" font-family="Times,serif" font-size="14.00">v10 != 0</text>
</g>
<!-- Node0x14676c60 -->
<g id="node17" class="node"><title>Node0x14676c60</title>
<polygon fill="none" stroke="black" points="674.5,-233.5 674.5,-286.5 829.5,-286.5 829.5,-233.5 674.5,-233.5"/>
<text text-anchor="start" x="682.5" y="-271.3" font-family="Times,serif" font-size="14.00">if_805b571_0_true:</text>
<text text-anchor="start" x="682.5" y="-256.3" font-family="Times,serif" font-size="14.00"> g1 = &#45;19456</text>
<text text-anchor="start" x="682.5" y="-241.3" font-family="Times,serif" font-size="14.00"> result = &#45;19456</text>
</g>
<!-- Node0x14677ca0&#45;&gt;Node0x14676c60 -->
<g id="edge19" class="edge"><title>Node0x14677ca0&#45;&gt;Node0x14676c60</title>
<path fill="none" stroke="black" d="M752,-338.274C752,-325.739 752,-310.459 752,-296.806"/>
<polygon fill="black" stroke="black" points="755.5,-296.755 752,-286.755 748.5,-296.755 755.5,-296.755"/>
<text text-anchor="middle" x="783" y="-308.8" font-family="Times,serif" font-size="14.00">v9 != v5</text>
</g>
<!-- Node0x14677030 -->
<g id="node18" class="node"><title>Node0x14677030</title>
<polygon fill="none" stroke="black" points="847.5,-242 847.5,-278 936.5,-278 936.5,-242 847.5,-242"/>
<text text-anchor="start" x="855.5" y="-256.3" font-family="Times,serif" font-size="14.00">result = 0</text>
</g>
<!-- Node0x14677ca0&#45;&gt;Node0x14677030 -->
<g id="edge20" class="edge"><title>Node0x14677ca0&#45;&gt;Node0x14677030</title>
<path fill="none" stroke="black" d="M791.465,-338.483C800.295,-332.555 809.546,-326.171 818,-320 833.386,-308.769 850.014,-295.609 863.602,-284.572"/>
<polygon fill="black" stroke="black" points="866.104,-287.048 871.632,-278.01 861.674,-281.627 866.104,-287.048"/>
<text text-anchor="middle" x="871" y="-308.8" font-family="Times,serif" font-size="14.00">v9 == v5</text>
</g>
<!-- Node0x14677b40&#45;&gt;Node0xe614960 -->
<g id="edge21" class="edge"><title>Node0x14677b40&#45;&gt;Node0xe614960</title>
<path fill="none" stroke="black" d="M832.654,-97.3173C850.993,-85.9378 869.683,-74.3414 885.12,-64.7629"/>
<polygon fill="black" stroke="black" points="887.154,-67.6196 893.806,-59.3732 883.464,-61.6716 887.154,-67.6196"/>
</g>
<!-- Node0x14676c60&#45;&gt;Node0x14677b40 -->
<g id="edge22" class="edge"><title>Node0x14676c60&#45;&gt;Node0x14677b40</title>
<path fill="none" stroke="black" d="M752.688,-233.42C752.912,-225.117 753.169,-215.536 753.43,-205.851"/>
<polygon fill="black" stroke="black" points="756.931,-205.859 753.701,-195.768 749.934,-205.671 756.931,-205.859"/>
</g>
<!-- Node0x14677030&#45;&gt;Node0x14677b40 -->
<g id="edge23" class="edge"><title>Node0x14677030&#45;&gt;Node0x14677b40</title>
<path fill="none" stroke="black" d="M870.894,-241.822C857.681,-231.069 839.853,-216.559 822.146,-202.148"/>
<polygon fill="black" stroke="black" points="824.001,-199.145 814.036,-195.548 819.583,-204.575 824.001,-199.145"/>
</g>
</g>
</svg>
