<?xml version="1.0" encoding="UTF-8" standalone="no"?>
<!DOCTYPE svg PUBLIC "-//W3C//DTD SVG 1.1//EN"
 "http://www.w3.org/Graphics/SVG/1.1/DTD/svg11.dtd">
<!-- Generated by graphviz version 2.38.0 (20140413.2041)
 -->
<!-- Title: Control&#45;flow graph for function &#39;mbedtls_ripemd160_init(*a1)&#39;. Pages: 1 -->
<svg width="474pt" height="233pt"
 viewBox="0.00 0.00 474.00 233.00" xmlns="http://www.w3.org/2000/svg" xmlns:xlink="http://www.w3.org/1999/xlink">
<g id="graph0" class="graph" transform="scale(1 1) rotate(0) translate(4 229)">
<title>Control&#45;flow graph for function &#39;mbedtls_ripemd160_init(*a1)&#39;.</title>
<polygon fill="white" stroke="none" points="-4,4 -4,-229 470,-229 470,4 -4,4"/>
<text text-anchor="middle" x="233" y="-7.8" font-family="Times,serif" font-size="14.00">Control&#45;flow graph for function &#39;mbedtls_ripemd160_init(*a1)&#39;.</text>
<!-- Node0x205b0cb0 -->
<g id="node1" class="node"><title>Node0x205b0cb0</title>
<polygon fill="none" stroke="black" points="203.5,-186.5 203.5,-224.5 262.5,-224.5 262.5,-186.5 203.5,-186.5"/>
<text text-anchor="start" x="211.5" y="-209.3" font-family="Times,serif" font-size="14.00">entry:</text>
<text text-anchor="start" x="211.5" y="-194.3" font-family="Times,serif" font-size="14.00"> a1</text>
</g>
<!-- Node0xd44d220 -->
<g id="node2" class="node"><title>Node0xd44d220</title>
<polygon fill="none" stroke="black" points="157.5,-96.5 157.5,-149.5 308.5,-149.5 308.5,-96.5 157.5,-96.5"/>
<text text-anchor="start" x="165.5" y="-134.3" font-family="Times,serif" font-size="14.00">0x8066bb0:</text>
<text text-anchor="start" x="165.5" y="-119.3" font-family="Times,serif" font-size="14.00"> memset(a1, 0, 23)</text>
<text text-anchor="start" x="165.5" y="-104.3" font-family="Times,serif" font-size="14.00"> return 0</text>
</g>
<!-- Node0x205b0cb0&#45;&gt;Node0xd44d220 -->
<g id="edge1" class="edge"><title>Node0x205b0cb0&#45;&gt;Node0xd44d220</title>
<path fill="none" stroke="black" d="M233,-186.233C233,-178.347 233,-168.835 233,-159.648"/>
<polygon fill="black" stroke="black" points="236.5,-159.517 233,-149.517 229.5,-159.517 236.5,-159.517"/>
</g>
<!-- Node0x2af02a10 -->
<g id="node3" class="node"><title>Node0x2af02a10</title>
<polygon fill="none" stroke="black" points="206,-23.5 206,-59.5 260,-59.5 260,-23.5 206,-23.5"/>
<text text-anchor="start" x="214" y="-37.8" font-family="Times,serif" font-size="14.00">exit:</text>
</g>
<!-- Node0xd44d220&#45;&gt;Node0x2af02a10 -->
<g id="edge2" class="edge"><title>Node0xd44d220&#45;&gt;Node0x2af02a10</title>
<path fill="none" stroke="black" d="M233,-96.4081C233,-87.9823 233,-78.5803 233,-70.0174"/>
<polygon fill="black" stroke="black" points="236.5,-69.7564 233,-59.7564 229.5,-69.7565 236.5,-69.7564"/>
</g>
</g>
</svg>
