<?xml version="1.0" encoding="UTF-8" standalone="no"?>
<!DOCTYPE svg PUBLIC "-//W3C//DTD SVG 1.1//EN"
 "http://www.w3.org/Graphics/SVG/1.1/DTD/svg11.dtd">
<!-- Generated by graphviz version 2.38.0 (20140413.2041)
 -->
<!-- Title: Control&#45;flow graph for function &#39;mbedtls_ecp_check_privkey(a1, a2)&#39;. Pages: 1 -->
<svg width="2218pt" height="1008pt"
 viewBox="0.00 0.00 2218.00 1008.00" xmlns="http://www.w3.org/2000/svg" xmlns:xlink="http://www.w3.org/1999/xlink">
<g id="graph0" class="graph" transform="scale(1 1) rotate(0) translate(4 1004)">
<title>Control&#45;flow graph for function &#39;mbedtls_ecp_check_privkey(a1, a2)&#39;.</title>
<polygon fill="white" stroke="none" points="-4,4 -4,-1004 2214,-1004 2214,4 -4,4"/>
<text text-anchor="middle" x="1105" y="-7.8" font-family="Times,serif" font-size="14.00">Control&#45;flow graph for function &#39;mbedtls_ecp_check_privkey(a1, a2)&#39;.</text>
<!-- Node0x96ac590 -->
<g id="node1" class="node"><title>Node0x96ac590</title>
<polygon fill="none" stroke="black" points="388.5,-946.5 388.5,-999.5 447.5,-999.5 447.5,-946.5 388.5,-946.5"/>
<text text-anchor="start" x="396.5" y="-984.3" font-family="Times,serif" font-size="14.00">entry:</text>
<text text-anchor="start" x="396.5" y="-969.3" font-family="Times,serif" font-size="14.00"> a1</text>
<text text-anchor="start" x="396.5" y="-954.3" font-family="Times,serif" font-size="14.00"> a2</text>
</g>
<!-- Node0x96acc10 -->
<g id="node2" class="node"><title>Node0x96acc10</title>
<polygon fill="none" stroke="black" points="254,-810.5 254,-908.5 582,-908.5 582,-810.5 254,-810.5"/>
<text text-anchor="start" x="262" y="-893.3" font-family="Times,serif" font-size="14.00">v1 = g3</text>
<text text-anchor="start" x="262" y="-878.3" font-family="Times,serif" font-size="14.00"> g3 = a1</text>
<text text-anchor="start" x="262" y="-863.3" font-family="Times,serif" font-size="14.00"> v2 = g7</text>
<text text-anchor="start" x="262" y="-848.3" font-family="Times,serif" font-size="14.00"> g7 = a2</text>
<text text-anchor="start" x="262" y="-833.3" font-family="Times,serif" font-size="14.00"> v3 = *(IntToPtrCastExpr&lt;ptr&gt;((a1 + 48)))</text>
<text text-anchor="start" x="262" y="-818.3" font-family="Times,serif" font-size="14.00"> g6 = v3</text>
</g>
<!-- Node0x96ac590&#45;&gt;Node0x96acc10 -->
<g id="edge1" class="edge"><title>Node0x96ac590&#45;&gt;Node0x96acc10</title>
<path fill="none" stroke="black" d="M418,-946.42C418,-938.117 418,-928.536 418,-918.851"/>
<polygon fill="black" stroke="black" points="421.5,-918.768 418,-908.768 414.5,-918.768 421.5,-918.768"/>
</g>
<!-- Node0x96acd90 -->
<g id="node3" class="node"><title>Node0x96acd90</title>
<polygon fill="none" stroke="black" points="365.5,-736.5 365.5,-772.5 470.5,-772.5 470.5,-736.5 365.5,-736.5"/>
<text text-anchor="start" x="373.5" y="-750.8" font-family="Times,serif" font-size="14.00">if (v3 == 0):</text>
</g>
<!-- Node0x96acc10&#45;&gt;Node0x96acd90 -->
<g id="edge2" class="edge"><title>Node0x96acc10&#45;&gt;Node0x96acd90</title>
<path fill="none" stroke="black" d="M418,-810.317C418,-800.893 418,-791.32 418,-782.868"/>
<polygon fill="black" stroke="black" points="421.5,-782.856 418,-772.856 414.5,-782.856 421.5,-782.856"/>
</g>
<!-- Node0x96ac950 -->
<g id="node4" class="node"><title>Node0x96ac950</title>
<polygon fill="none" stroke="black" points="14.5,-544.5 14.5,-612.5 135.5,-612.5 135.5,-544.5 14.5,-544.5"/>
<text text-anchor="start" x="22.5" y="-597.3" font-family="Times,serif" font-size="14.00">0x805beee:</text>
<text text-anchor="start" x="22.5" y="-582.3" font-family="Times,serif" font-size="14.00"> g3 = v1</text>
<text text-anchor="start" x="22.5" y="-567.3" font-family="Times,serif" font-size="14.00"> g7 = v2</text>
<text text-anchor="start" x="22.5" y="-552.3" font-family="Times,serif" font-size="14.00"> return &#45;20352</text>
</g>
<!-- Node0x96acd90&#45;&gt;Node0x96ac950 -->
<g id="edge3" class="edge"><title>Node0x96acd90&#45;&gt;Node0x96ac950</title>
<path fill="none" stroke="black" d="M384.487,-736.499C329.201,-708.453 217.752,-651.916 144.778,-614.898"/>
<polygon fill="black" stroke="black" points="146.135,-611.661 135.634,-610.259 142.968,-617.904 146.135,-611.661"/>
<text text-anchor="middle" x="374" y="-706.8" font-family="Times,serif" font-size="14.00">v3 == 0</text>
</g>
<!-- Node0x96ad070 -->
<g id="node5" class="node"><title>Node0x96ad070</title>
<polygon fill="none" stroke="black" points="498.5,-631.5 498.5,-684.5 859.5,-684.5 859.5,-631.5 498.5,-631.5"/>
<text text-anchor="start" x="506.5" y="-669.3" font-family="Times,serif" font-size="14.00">0x805bece:</text>
<text text-anchor="start" x="506.5" y="-654.3" font-family="Times,serif" font-size="14.00"> if (*(IntToPtrCastExpr&lt;ptr&gt;((a1 + 60))) == 0):</text>
<text text-anchor="start" x="506.5" y="-639.3" font-family="Times,serif" font-size="14.00"> else:</text>
</g>
<!-- Node0x96acd90&#45;&gt;Node0x96ad070 -->
<g id="edge4" class="edge"><title>Node0x96acd90&#45;&gt;Node0x96ad070</title>
<path fill="none" stroke="black" d="M464.963,-736.496C502.222,-723.006 555.156,-703.84 599.058,-687.944"/>
<polygon fill="black" stroke="black" points="600.356,-691.197 608.567,-684.502 597.973,-684.615 600.356,-691.197"/>
<text text-anchor="middle" x="584" y="-706.8" font-family="Times,serif" font-size="14.00">v3 != 0</text>
</g>
<!-- Node0x96acbb0 -->
<g id="node6" class="node"><title>Node0x96acbb0</title>
<polygon fill="none" stroke="black" points="659,-23.5 659,-59.5 713,-59.5 713,-23.5 659,-23.5"/>
<text text-anchor="start" x="667" y="-37.8" font-family="Times,serif" font-size="14.00">exit:</text>
</g>
<!-- Node0x96ac950&#45;&gt;Node0x96acbb0 -->
<g id="edge5" class="edge"><title>Node0x96ac950&#45;&gt;Node0x96acbb0</title>
<path fill="none" stroke="black" d="M38.8181,-544.355C19.6392,-523.107 0,-493.725 0,-462.5 0,-462.5 0,-462.5 0,-130.5 0,-64.5346 505.481,-46.9757 648.632,-43.3257"/>
<polygon fill="black" stroke="black" points="648.774,-46.8234 658.685,-43.0773 648.601,-39.8255 648.774,-46.8234"/>
</g>
<!-- Node0x96ad930 -->
<g id="node7" class="node"><title>Node0x96ad930</title>
<polygon fill="none" stroke="black" points="1002,-487.5 1002,-525.5 1290,-525.5 1290,-487.5 1002,-487.5"/>
<text text-anchor="start" x="1010" y="-510.3" font-family="Times,serif" font-size="14.00">0x805bef8:</text>
<text text-anchor="start" x="1010" y="-495.3" font-family="Times,serif" font-size="14.00"> if (mbedtls_mpi_get_bit(a2, 0) == 0):</text>
</g>
<!-- Node0x96ad070&#45;&gt;Node0x96ad930 -->
<g id="edge6" class="edge"><title>Node0x96ad070&#45;&gt;Node0x96ad930</title>
<path fill="none" stroke="black" d="M758.75,-631.47C849.337,-602.47 995.502,-555.679 1079.97,-528.639"/>
<polygon fill="black" stroke="black" points="1081.25,-531.905 1089.7,-525.523 1079.11,-525.238 1081.25,-531.905"/>
<text text-anchor="middle" x="1176.5" y="-574.8" font-family="Times,serif" font-size="14.00">*(IntToPtrCastExpr&lt;ptr&gt;((a1 + 60))) == 0</text>
</g>
<!-- Node0x28f8bc60 -->
<g id="node8" class="node"><title>Node0x28f8bc60</title>
<polygon fill="none" stroke="black" points="538,-397.5 538,-435.5 822,-435.5 822,-397.5 538,-397.5"/>
<text text-anchor="start" x="546" y="-420.3" font-family="Times,serif" font-size="14.00">0x805bed5:</text>
<text text-anchor="start" x="546" y="-405.3" font-family="Times,serif" font-size="14.00"> if (mbedtls_mpi_cmp_int(a2, 1) &gt; 0):</text>
</g>
<!-- Node0x96ad070&#45;&gt;Node0x28f8bc60 -->
<g id="edge7" class="edge"><title>Node0x96ad070&#45;&gt;Node0x28f8bc60</title>
<path fill="none" stroke="black" d="M679.107,-631.369C679.296,-586.141 679.687,-492.521 679.883,-445.597"/>
<polygon fill="black" stroke="black" points="683.383,-445.541 679.925,-435.526 676.383,-445.511 683.383,-445.541"/>
<text text-anchor="middle" x="832.5" y="-502.8" font-family="Times,serif" font-size="14.00">*(IntToPtrCastExpr&lt;ptr&gt;((a1 + 60))) != 0</text>
</g>
<!-- Node0x96a9cd0 -->
<g id="node9" class="node"><title>Node0x96a9cd0</title>
<polygon fill="none" stroke="black" points="1259.5,-397.5 1259.5,-435.5 1548.5,-435.5 1548.5,-397.5 1259.5,-397.5"/>
<text text-anchor="start" x="1267.5" y="-420.3" font-family="Times,serif" font-size="14.00">0x805bf0c:</text>
<text text-anchor="start" x="1267.5" y="-405.3" font-family="Times,serif" font-size="14.00"> if (mbedtls_mpi_get_bit(g7, 1) == 0):</text>
</g>
<!-- Node0x96ad930&#45;&gt;Node0x96a9cd0 -->
<g id="edge8" class="edge"><title>Node0x96ad930&#45;&gt;Node0x96a9cd0</title>
<path fill="none" stroke="black" d="M1198.83,-487.48C1240.09,-473.408 1297.53,-453.814 1341.15,-438.937"/>
<polygon fill="black" stroke="black" points="1342.46,-442.188 1350.8,-435.647 1340.2,-435.563 1342.46,-442.188"/>
<text text-anchor="middle" x="1410" y="-457.8" font-family="Times,serif" font-size="14.00">mbedtls_mpi_get_bit(a2, 0) == 0</text>
</g>
<!-- Node0x96ad760 -->
<g id="node10" class="node"><title>Node0x96ad760</title>
<polygon fill="none" stroke="black" points="1307.5,-97.5 1307.5,-165.5 1428.5,-165.5 1428.5,-97.5 1307.5,-97.5"/>
<text text-anchor="start" x="1315.5" y="-150.3" font-family="Times,serif" font-size="14.00">0x805beee:</text>
<text text-anchor="start" x="1315.5" y="-135.3" font-family="Times,serif" font-size="14.00"> g3 = v1</text>
<text text-anchor="start" x="1315.5" y="-120.3" font-family="Times,serif" font-size="14.00"> g7 = v2</text>
<text text-anchor="start" x="1315.5" y="-105.3" font-family="Times,serif" font-size="14.00"> return &#45;19584</text>
</g>
<!-- Node0x96ad930&#45;&gt;Node0x96ad760 -->
<g id="edge9" class="edge"><title>Node0x96ad930&#45;&gt;Node0x96ad760</title>
<path fill="none" stroke="black" d="M1140.04,-487.485C1128.45,-448.691 1107.94,-356.745 1155,-307 1182.32,-278.119 1303.26,-315.388 1333,-289 1364.46,-261.081 1370.98,-211.606 1371.04,-175.743"/>
<polygon fill="black" stroke="black" points="1374.53,-175.5 1370.88,-165.554 1367.53,-175.606 1374.53,-175.5"/>
<text text-anchor="middle" x="1271" y="-322.8" font-family="Times,serif" font-size="14.00">mbedtls_mpi_get_bit(a2, 0) != 0</text>
</g>
<!-- Node0x28f8bc60&#45;&gt;Node0x96ad760 -->
<g id="edge11" class="edge"><title>Node0x28f8bc60&#45;&gt;Node0x96ad760</title>
<path fill="none" stroke="black" d="M822.075,-403.288C854.247,-397.908 887.809,-390.16 918,-379 1000.94,-348.342 1007.13,-311.956 1087,-274 1179.54,-230.02 1218.84,-254.455 1305,-199 1315.97,-191.937 1326.39,-182.568 1335.47,-173.099"/>
<polygon fill="black" stroke="black" points="1338.25,-175.249 1342.45,-165.525 1333.1,-170.503 1338.25,-175.249"/>
<text text-anchor="middle" x="1210" y="-277.8" font-family="Times,serif" font-size="14.00">mbedtls_mpi_cmp_int(a2, 1) &lt;= 0</text>
</g>
<!-- Node0x28f8c2a0 -->
<g id="node11" class="node"><title>Node0x28f8c2a0</title>
<polygon fill="none" stroke="black" points="619,-307.5 619,-345.5 741,-345.5 741,-307.5 619,-307.5"/>
<text text-anchor="start" x="627" y="-330.3" font-family="Times,serif" font-size="14.00">v4 = (g3 + 76)</text>
<text text-anchor="start" x="627" y="-315.3" font-family="Times,serif" font-size="14.00"> g3 = v4</text>
</g>
<!-- Node0x28f8bc60&#45;&gt;Node0x28f8c2a0 -->
<g id="edge10" class="edge"><title>Node0x28f8bc60&#45;&gt;Node0x28f8c2a0</title>
<path fill="none" stroke="black" d="M680,-397.266C680,-385.349 680,-369.538 680,-355.982"/>
<polygon fill="black" stroke="black" points="683.5,-355.71 680,-345.71 676.5,-355.71 683.5,-355.71"/>
<text text-anchor="middle" x="797" y="-367.8" font-family="Times,serif" font-size="14.00">mbedtls_mpi_cmp_int(a2, 1) &gt; 0</text>
</g>
<!-- Node0x96a9cd0&#45;&gt;Node0x96ad760 -->
<g id="edge13" class="edge"><title>Node0x96a9cd0&#45;&gt;Node0x96ad760</title>
<path fill="none" stroke="black" d="M1401.69,-397.367C1396.06,-353.107 1381.49,-238.579 1373.48,-175.59"/>
<polygon fill="black" stroke="black" points="1376.94,-175.049 1372.21,-165.571 1370,-175.933 1376.94,-175.049"/>
</g>
<!-- Node0x28f8c930 -->
<g id="node12" class="node"><title>Node0x28f8c930</title>
<polygon fill="none" stroke="black" points="1431.5,-307.5 1431.5,-345.5 1720.5,-345.5 1720.5,-307.5 1431.5,-307.5"/>
<text text-anchor="start" x="1439.5" y="-330.3" font-family="Times,serif" font-size="14.00">0x805bf20:</text>
<text text-anchor="start" x="1439.5" y="-315.3" font-family="Times,serif" font-size="14.00"> if (mbedtls_mpi_get_bit(g7, 2) == 0):</text>
</g>
<!-- Node0x96a9cd0&#45;&gt;Node0x28f8c930 -->
<g id="edge12" class="edge"><title>Node0x96a9cd0&#45;&gt;Node0x28f8c930</title>
<path fill="none" stroke="black" d="M1439.22,-397.48C1465.92,-383.822 1502.78,-364.962 1531.51,-350.262"/>
<polygon fill="black" stroke="black" points="1533.22,-353.318 1540.53,-345.647 1530.03,-347.086 1533.22,-353.318"/>
<text text-anchor="middle" x="1620.5" y="-367.8" font-family="Times,serif" font-size="14.00">mbedtls_mpi_get_bit(g7, 1) == 0</text>
</g>
<!-- Node0x96ad760&#45;&gt;Node0x96acbb0 -->
<g id="edge14" class="edge"><title>Node0x96ad760&#45;&gt;Node0x96acbb0</title>
<path fill="none" stroke="black" d="M1307.48,-122.691C1169.63,-104.903 835.563,-61.7985 723.419,-47.3283"/>
<polygon fill="black" stroke="black" points="723.639,-43.8277 713.273,-46.0191 722.743,-50.7702 723.639,-43.8277"/>
</g>
<!-- Node0x28f8c300 -->
<g id="node13" class="node"><title>Node0x28f8c300</title>
<polygon fill="none" stroke="black" points="342.5,-218.5 342.5,-254.5 1017.5,-254.5 1017.5,-218.5 342.5,-218.5"/>
<text text-anchor="start" x="350.5" y="-232.8" font-family="Times,serif" font-size="14.00">if (mbedtls_mpi_cmp_mpi(IntToPtrCastExpr&lt;ptr&gt;(g7), IntToPtrCastExpr&lt;ptr&gt;(v4)) &lt;= 0):</text>
</g>
<!-- Node0x28f8c2a0&#45;&gt;Node0x28f8c300 -->
<g id="edge15" class="edge"><title>Node0x28f8c2a0&#45;&gt;Node0x28f8c300</title>
<path fill="none" stroke="black" d="M680,-307.266C680,-295.031 680,-278.692 680,-264.902"/>
<polygon fill="black" stroke="black" points="683.5,-264.516 680,-254.516 676.5,-264.516 683.5,-264.516"/>
</g>
<!-- Node0x28f8c930&#45;&gt;Node0x96ad760 -->
<g id="edge17" class="edge"><title>Node0x28f8c930&#45;&gt;Node0x96ad760</title>
<path fill="none" stroke="black" d="M1528.84,-307.495C1502.53,-295.75 1470.44,-278.423 1447,-256 1420.07,-230.233 1424.25,-215.294 1404,-184 1401.86,-180.694 1399.61,-177.297 1397.32,-173.899"/>
<polygon fill="black" stroke="black" points="1400.12,-171.793 1391.59,-165.506 1394.34,-175.739 1400.12,-171.793"/>
</g>
<!-- Node0x28f8cd70 -->
<g id="node14" class="node"><title>Node0x28f8cd70</title>
<polygon fill="none" stroke="black" points="1456.5,-217.5 1456.5,-255.5 2029.5,-255.5 2029.5,-217.5 1456.5,-217.5"/>
<text text-anchor="start" x="1464.5" y="-240.3" font-family="Times,serif" font-size="14.00">0x805bf34:</text>
<text text-anchor="start" x="1464.5" y="-225.3" font-family="Times,serif" font-size="14.00"> if ((mbedtls_mpi_bitlen(g7, 2) &#45; 1) == *(IntToPtrCastExpr&lt;ptr&gt;((g3 + 92)))):</text>
</g>
<!-- Node0x28f8c930&#45;&gt;Node0x28f8cd70 -->
<g id="edge16" class="edge"><title>Node0x28f8c930&#45;&gt;Node0x28f8cd70</title>
<path fill="none" stroke="black" d="M1610.2,-307.48C1636,-293.881 1671.6,-275.125 1699.44,-260.453"/>
<polygon fill="black" stroke="black" points="1701.35,-263.406 1708.56,-255.647 1698.08,-257.213 1701.35,-263.406"/>
<text text-anchor="middle" x="1789.5" y="-277.8" font-family="Times,serif" font-size="14.00">mbedtls_mpi_get_bit(g7, 2) == 0</text>
</g>
<!-- Node0x28f8cd10 -->
<g id="node15" class="node"><title>Node0x28f8cd10</title>
<polygon fill="none" stroke="black" points="268.5,-97.5 268.5,-165.5 367.5,-165.5 367.5,-97.5 268.5,-97.5"/>
<text text-anchor="start" x="276.5" y="-150.3" font-family="Times,serif" font-size="14.00">0x805beee:</text>
<text text-anchor="start" x="276.5" y="-135.3" font-family="Times,serif" font-size="14.00"> g3 = v1</text>
<text text-anchor="start" x="276.5" y="-120.3" font-family="Times,serif" font-size="14.00"> g7 = v2</text>
<text text-anchor="start" x="276.5" y="-105.3" font-family="Times,serif" font-size="14.00"> return 0</text>
</g>
<!-- Node0x28f8c300&#45;&gt;Node0x28f8cd10 -->
<g id="edge18" class="edge"><title>Node0x28f8c300&#45;&gt;Node0x28f8cd10</title>
<path fill="none" stroke="black" d="M342.263,-225.583C198.203,-219.647 60.2389,-210.908 49,-199 18.7065,-166.903 170.027,-146.655 258.184,-137.758"/>
<polygon fill="black" stroke="black" points="258.736,-141.221 268.344,-136.755 258.048,-134.255 258.736,-141.221"/>
<text text-anchor="middle" x="364" y="-187.8" font-family="Times,serif" font-size="14.00">mbedtls_mpi_cmp_mpi(IntToPtrCastExpr&lt;ptr&gt;(g7), IntToPtrCastExpr&lt;ptr&gt;(v4)) &lt;= 0</text>
</g>
<!-- Node0x28f8c750 -->
<g id="node16" class="node"><title>Node0x28f8c750</title>
<polygon fill="none" stroke="black" points="625.5,-97.5 625.5,-165.5 746.5,-165.5 746.5,-97.5 625.5,-97.5"/>
<text text-anchor="start" x="633.5" y="-150.3" font-family="Times,serif" font-size="14.00">0x805beee:</text>
<text text-anchor="start" x="633.5" y="-135.3" font-family="Times,serif" font-size="14.00"> g3 = v1</text>
<text text-anchor="start" x="633.5" y="-120.3" font-family="Times,serif" font-size="14.00"> g7 = v2</text>
<text text-anchor="start" x="633.5" y="-105.3" font-family="Times,serif" font-size="14.00"> return &#45;19584</text>
</g>
<!-- Node0x28f8c300&#45;&gt;Node0x28f8c750 -->
<g id="edge19" class="edge"><title>Node0x28f8c300&#45;&gt;Node0x28f8c750</title>
<path fill="none" stroke="black" d="M680.991,-218.492C681.667,-206.885 682.595,-190.954 683.469,-175.955"/>
<polygon fill="black" stroke="black" points="686.973,-175.972 684.061,-165.786 679.985,-175.565 686.973,-175.972"/>
<text text-anchor="middle" x="992" y="-187.8" font-family="Times,serif" font-size="14.00">mbedtls_mpi_cmp_mpi(IntToPtrCastExpr&lt;ptr&gt;(g7), IntToPtrCastExpr&lt;ptr&gt;(v4)) &gt; 0</text>
</g>
<!-- Node0x28f8cd70&#45;&gt;Node0x96ad760 -->
<g id="edge21" class="edge"><title>Node0x28f8cd70&#45;&gt;Node0x96ad760</title>
<path fill="none" stroke="black" d="M1677.25,-217.441C1610.38,-199.074 1507.11,-170.709 1438.56,-151.88"/>
<polygon fill="black" stroke="black" points="1439.27,-148.447 1428.7,-149.174 1437.42,-155.197 1439.27,-148.447"/>
</g>
<!-- Node0x28f8cf20 -->
<g id="node17" class="node"><title>Node0x28f8cf20</title>
<polygon fill="none" stroke="black" points="1547.5,-97.5 1547.5,-165.5 1646.5,-165.5 1646.5,-97.5 1547.5,-97.5"/>
<text text-anchor="start" x="1555.5" y="-150.3" font-family="Times,serif" font-size="14.00">0x805beee:</text>
<text text-anchor="start" x="1555.5" y="-135.3" font-family="Times,serif" font-size="14.00"> g3 = v1</text>
<text text-anchor="start" x="1555.5" y="-120.3" font-family="Times,serif" font-size="14.00"> g7 = v2</text>
<text text-anchor="start" x="1555.5" y="-105.3" font-family="Times,serif" font-size="14.00"> return 0</text>
</g>
<!-- Node0x28f8cd70&#45;&gt;Node0x28f8cf20 -->
<g id="edge20" class="edge"><title>Node0x28f8cd70&#45;&gt;Node0x28f8cf20</title>
<path fill="none" stroke="black" d="M1717.23,-217.323C1699.3,-204.674 1674.71,-187.325 1652.44,-171.612"/>
<polygon fill="black" stroke="black" points="1654.22,-168.588 1644.04,-165.683 1650.19,-174.307 1654.22,-168.588"/>
<text text-anchor="middle" x="1948.5" y="-187.8" font-family="Times,serif" font-size="14.00">(mbedtls_mpi_bitlen(g7, 2) &#45; 1) == *(IntToPtrCastExpr&lt;ptr&gt;((g3 + 92)))</text>
</g>
<!-- Node0x28f8cd10&#45;&gt;Node0x96acbb0 -->
<g id="edge22" class="edge"><title>Node0x28f8cd10&#45;&gt;Node0x96acbb0</title>
<path fill="none" stroke="black" d="M367.63,-118.632C442.306,-100.775 581.909,-67.3913 648.629,-51.4366"/>
<polygon fill="black" stroke="black" points="649.778,-54.7605 658.69,-49.0306 648.15,-47.9524 649.778,-54.7605"/>
</g>
<!-- Node0x28f8c750&#45;&gt;Node0x96acbb0 -->
<g id="edge23" class="edge"><title>Node0x28f8c750&#45;&gt;Node0x96acbb0</title>
<path fill="none" stroke="black" d="M686,-97.4817C686,-88.3281 686,-78.4972 686,-69.7155"/>
<polygon fill="black" stroke="black" points="689.5,-69.6402 686,-59.6402 682.5,-69.6403 689.5,-69.6402"/>
</g>
<!-- Node0x28f8cf20&#45;&gt;Node0x96acbb0 -->
<g id="edge24" class="edge"><title>Node0x28f8cf20&#45;&gt;Node0x96acbb0</title>
<path fill="none" stroke="black" d="M1547.22,-118.281C1515.79,-111.016 1474.24,-102.226 1437,-97 1164.82,-58.8053 833.159,-46.5873 723.306,-43.4402"/>
<polygon fill="black" stroke="black" points="723.174,-39.9352 713.08,-43.1553 722.979,-46.9325 723.174,-39.9352"/>
</g>
</g>
</svg>
