<?xml version="1.0" encoding="UTF-8" standalone="no"?>
<!DOCTYPE svg PUBLIC "-//W3C//DTD SVG 1.1//EN"
 "http://www.w3.org/Graphics/SVG/1.1/DTD/svg11.dtd">
<!-- Generated by graphviz version 2.38.0 (20140413.2041)
 -->
<!-- Title: Control&#45;flow graph for function &#39;mbedtls_cipher_info_from_type(a1)&#39;. Pages: 1 -->
<svg width="808pt" height="1060pt"
 viewBox="0.00 0.00 808.00 1060.00" xmlns="http://www.w3.org/2000/svg" xmlns:xlink="http://www.w3.org/1999/xlink">
<g id="graph0" class="graph" transform="scale(1 1) rotate(0) translate(4 1056)">
<title>Control&#45;flow graph for function &#39;mbedtls_cipher_info_from_type(a1)&#39;.</title>
<polygon fill="white" stroke="none" points="-4,4 -4,-1056 804,-1056 804,4 -4,4"/>
<text text-anchor="middle" x="400" y="-7.8" font-family="Times,serif" font-size="14.00">Control&#45;flow graph for function &#39;mbedtls_cipher_info_from_type(a1)&#39;.</text>
<!-- Node0x157a2840 -->
<g id="node1" class="node"><title>Node0x157a2840</title>
<polygon fill="none" stroke="black" points="78,-1013.5 78,-1051.5 137,-1051.5 137,-1013.5 78,-1013.5"/>
<text text-anchor="start" x="86" y="-1036.3" font-family="Times,serif" font-size="14.00">entry:</text>
<text text-anchor="start" x="86" y="-1021.3" font-family="Times,serif" font-size="14.00"> a1</text>
</g>
<!-- Node0x157a2cf0 -->
<g id="node2" class="node"><title>Node0x157a2cf0</title>
<polygon fill="none" stroke="black" points="48,-892.5 48,-975.5 167,-975.5 167,-892.5 48,-892.5"/>
<text text-anchor="start" x="56" y="-960.3" font-family="Times,serif" font-size="14.00">0x806956f:</text>
<text text-anchor="start" x="56" y="-945.3" font-family="Times,serif" font-size="14.00"> g1 = &amp;(g138)</text>
<text text-anchor="start" x="56" y="-930.3" font-family="Times,serif" font-size="14.00"> v1 = g2</text>
<text text-anchor="start" x="56" y="-915.3" font-family="Times,serif" font-size="14.00"> g4 = a1</text>
<text text-anchor="start" x="56" y="-900.3" font-family="Times,serif" font-size="14.00"> g6 = &amp;(g136)</text>
</g>
<!-- Node0x157a2840&#45;&gt;Node0x157a2cf0 -->
<g id="edge1" class="edge"><title>Node0x157a2840&#45;&gt;Node0x157a2cf0</title>
<path fill="none" stroke="black" d="M107.5,-1013.35C107.5,-1005.49 107.5,-995.852 107.5,-986.061"/>
<polygon fill="black" stroke="black" points="111,-985.87 107.5,-975.87 104,-985.87 111,-985.87"/>
</g>
<!-- Node0x157a2d90 -->
<g id="node3" class="node"><title>Node0x157a2d90</title>
<polygon fill="none" stroke="black" points="55,-818.5 55,-854.5 160,-854.5 160,-818.5 55,-818.5"/>
<text text-anchor="start" x="63" y="-832.8" font-family="Times,serif" font-size="14.00">if (a1 == 2):</text>
</g>
<!-- Node0x157a2cf0&#45;&gt;Node0x157a2d90 -->
<g id="edge2" class="edge"><title>Node0x157a2cf0&#45;&gt;Node0x157a2d90</title>
<path fill="none" stroke="black" d="M107.5,-892.499C107.5,-883.206 107.5,-873.537 107.5,-864.946"/>
<polygon fill="black" stroke="black" points="111,-864.749 107.5,-854.749 104,-864.749 111,-864.749"/>
</g>
<!-- Node0xe025790 -->
<g id="node4" class="node"><title>Node0xe025790</title>
<polygon fill="none" stroke="black" points="0,-656.5 0,-709.5 131,-709.5 131,-656.5 0,-656.5"/>
<text text-anchor="start" x="8" y="-694.3" font-family="Times,serif" font-size="14.00">0x806958e:</text>
<text text-anchor="start" x="8" y="-679.3" font-family="Times,serif" font-size="14.00"> g2 = v1</text>
<text text-anchor="start" x="8" y="-664.3" font-family="Times,serif" font-size="14.00"> return &amp;(g138)</text>
</g>
<!-- Node0x157a2d90&#45;&gt;Node0xe025790 -->
<g id="edge3" class="edge"><title>Node0x157a2d90&#45;&gt;Node0xe025790</title>
<path fill="none" stroke="black" d="M78.5074,-818.279C72.4537,-813.208 66.8868,-807.084 63.5,-800 51.6187,-775.148 53.0028,-743.743 56.8697,-719.879"/>
<polygon fill="black" stroke="black" points="60.352,-720.294 58.7146,-709.826 53.467,-719.03 60.352,-720.294"/>
<text text-anchor="middle" x="93.5" y="-788.8" font-family="Times,serif" font-size="14.00">a1 == 2</text>
</g>
<!-- Node0xd6c5200 -->
<g id="node5" class="node"><title>Node0xd6c5200</title>
<polygon fill="none" stroke="black" points="93.5,-728.5 93.5,-766.5 207.5,-766.5 207.5,-728.5 93.5,-728.5"/>
<text text-anchor="start" x="101.5" y="-751.3" font-family="Times,serif" font-size="14.00">v2 = &amp;(g136)</text>
<text text-anchor="start" x="101.5" y="-736.3" font-family="Times,serif" font-size="14.00"> result</text>
</g>
<!-- Node0x157a2d90&#45;&gt;Node0xd6c5200 -->
<g id="edge4" class="edge"><title>Node0x157a2d90&#45;&gt;Node0xd6c5200</title>
<path fill="none" stroke="black" d="M117.592,-818.34C120.869,-812.574 124.445,-806.065 127.5,-800 131.34,-792.375 135.232,-783.97 138.696,-776.201"/>
<polygon fill="black" stroke="black" points="142.005,-777.371 142.817,-766.807 135.595,-774.558 142.005,-777.371"/>
<text text-anchor="middle" x="161.5" y="-788.8" font-family="Times,serif" font-size="14.00">a1 != 2</text>
</g>
<!-- Node0x157a27a0 -->
<g id="node6" class="node"><title>Node0x157a27a0</title>
<polygon fill="none" stroke="black" points="396.5,-23.5 396.5,-59.5 450.5,-59.5 450.5,-23.5 396.5,-23.5"/>
<text text-anchor="start" x="404.5" y="-37.8" font-family="Times,serif" font-size="14.00">exit:</text>
</g>
<!-- Node0xe025790&#45;&gt;Node0x157a27a0 -->
<g id="edge5" class="edge"><title>Node0xe025790&#45;&gt;Node0x157a27a0</title>
<path fill="none" stroke="black" d="M65.5,-656.418C65.5,-635.053 65.5,-603.791 65.5,-576.5 65.5,-576.5 65.5,-576.5 65.5,-123 65.5,-57.8151 294.278,-45.4051 386.063,-43.0492"/>
<polygon fill="black" stroke="black" points="386.381,-46.5429 396.298,-42.814 386.22,-39.5448 386.381,-46.5429"/>
</g>
<!-- Node0xe026290 -->
<g id="node7" class="node"><title>Node0xe026290</title>
<polygon fill="none" stroke="black" points="102,-601.5 102,-637.5 199,-637.5 199,-601.5 102,-601.5"/>
<text text-anchor="start" x="110" y="-615.8" font-family="Times,serif" font-size="14.00">while True:</text>
</g>
<!-- Node0xd6c5200&#45;&gt;Node0xe026290 -->
<g id="edge6" class="edge"><title>Node0xd6c5200&#45;&gt;Node0xe026290</title>
<path fill="none" stroke="black" d="M150.5,-728.447C150.5,-707.345 150.5,-672.205 150.5,-647.773"/>
<polygon fill="black" stroke="black" points="154,-647.71 150.5,-637.71 147,-647.71 154,-647.71"/>
</g>
<!-- Node0x8717060 -->
<g id="node8" class="node"><title>Node0x8717060</title>
<polygon fill="none" stroke="black" points="189,-481.5 189,-549.5 542,-549.5 542,-481.5 189,-481.5"/>
<text text-anchor="start" x="197" y="-534.3" font-family="Times,serif" font-size="14.00">v3 = (v2 + 8)</text>
<text text-anchor="start" x="197" y="-519.3" font-family="Times,serif" font-size="14.00"> g6 = v3</text>
<text text-anchor="start" x="197" y="-504.3" font-family="Times,serif" font-size="14.00"> result = *(IntToPtrCastExpr&lt;ptr&gt;((v2 + 12)))</text>
<text text-anchor="start" x="197" y="-489.3" font-family="Times,serif" font-size="14.00"> g1 = result</text>
</g>
<!-- Node0xe026290&#45;&gt;Node0x8717060 -->
<g id="edge7" class="edge"><title>Node0xe026290&#45;&gt;Node0x8717060</title>
<path fill="none" stroke="black" d="M186.486,-601.427C213.81,-588.464 252.416,-570.149 286.784,-553.844"/>
<polygon fill="black" stroke="black" points="288.35,-556.975 295.885,-549.527 285.35,-550.651 288.35,-556.975"/>
<text text-anchor="middle" x="269.5" y="-571.8" font-family="Times,serif" font-size="14.00">True</text>
</g>
<!-- Node0xe026200 -->
<g id="node9" class="node"><title>Node0xe026200</title>
<polygon fill="none" stroke="black" points="346.5,-407.5 346.5,-443.5 470.5,-443.5 470.5,-407.5 346.5,-407.5"/>
<text text-anchor="start" x="354.5" y="-421.8" font-family="Times,serif" font-size="14.00">if (result != 0):</text>
</g>
<!-- Node0x8717060&#45;&gt;Node0xe026200 -->
<g id="edge8" class="edge"><title>Node0x8717060&#45;&gt;Node0xe026200</title>
<path fill="none" stroke="black" d="M381.634,-481.482C386.254,-472.026 391.228,-461.848 395.624,-452.85"/>
<polygon fill="black" stroke="black" points="398.879,-454.162 400.125,-443.64 392.59,-451.088 398.879,-454.162"/>
</g>
<!-- Node0x1ba65af0 -->
<g id="node10" class="node"><title>Node0x1ba65af0</title>
<polygon fill="none" stroke="black" points="248.5,-317.5 248.5,-355.5 568.5,-355.5 568.5,-317.5 248.5,-317.5"/>
<text text-anchor="start" x="256.5" y="-340.3" font-family="Times,serif" font-size="14.00">0x8069580:</text>
<text text-anchor="start" x="256.5" y="-325.3" font-family="Times,serif" font-size="14.00"> if (*(IntToPtrCastExpr&lt;ptr&gt;(v3)) == a1):</text>
</g>
<!-- Node0xe026200&#45;&gt;Node0x1ba65af0 -->
<g id="edge9" class="edge"><title>Node0xe026200&#45;&gt;Node0x1ba65af0</title>
<path fill="none" stroke="black" d="M408.5,-407.312C408.5,-395.511 408.5,-379.572 408.5,-365.904"/>
<polygon fill="black" stroke="black" points="412,-365.551 408.5,-355.551 405,-365.551 412,-365.551"/>
<text text-anchor="middle" x="448" y="-377.8" font-family="Times,serif" font-size="14.00">result != 0</text>
</g>
<!-- Node0xd6c1c90 -->
<g id="node11" class="node"><title>Node0xd6c1c90</title>
<polygon fill="none" stroke="black" points="699,-245.5 699,-298.5 800,-298.5 800,-245.5 699,-245.5"/>
<text text-anchor="start" x="707" y="-283.3" font-family="Times,serif" font-size="14.00">0x806958e:</text>
<text text-anchor="start" x="707" y="-268.3" font-family="Times,serif" font-size="14.00"> g2 = v1</text>
<text text-anchor="start" x="707" y="-253.3" font-family="Times,serif" font-size="14.00"> return 0</text>
</g>
<!-- Node0xe026200&#45;&gt;Node0xd6c1c90 -->
<g id="edge10" class="edge"><title>Node0xe026200&#45;&gt;Node0xd6c1c90</title>
<path fill="none" stroke="black" d="M452.951,-407.389C487.226,-393.977 535.68,-374.543 577.5,-356 615.179,-339.293 656.823,-319.24 689.696,-303.03"/>
<polygon fill="black" stroke="black" points="691.312,-306.136 698.725,-298.566 688.209,-299.861 691.312,-306.136"/>
<text text-anchor="middle" x="577" y="-377.8" font-family="Times,serif" font-size="14.00">result == 0</text>
</g>
<!-- Node0x8716f80 -->
<g id="node12" class="node"><title>Node0x8716f80</title>
<polygon fill="none" stroke="black" points="340,-188.5 340,-226.5 507,-226.5 507,-188.5 340,-188.5"/>
<text text-anchor="start" x="348" y="-211.3" font-family="Times,serif" font-size="14.00">break &#45;&gt; 0x806958e:</text>
<text text-anchor="start" x="348" y="-196.3" font-family="Times,serif" font-size="14.00"> break</text>
</g>
<!-- Node0x1ba65af0&#45;&gt;Node0x8716f80 -->
<g id="edge11" class="edge"><title>Node0x1ba65af0&#45;&gt;Node0x8716f80</title>
<path fill="none" stroke="black" d="M410.649,-317.304C413.133,-296.273 417.251,-261.409 420.155,-236.824"/>
<polygon fill="black" stroke="black" points="423.658,-237.004 421.355,-226.662 416.706,-236.183 423.658,-237.004"/>
<text text-anchor="middle" x="554.5" y="-268.3" font-family="Times,serif" font-size="14.00">*(IntToPtrCastExpr&lt;ptr&gt;(v3)) == a1</text>
</g>
<!-- Node0x157a6e50 -->
<g id="node13" class="node"><title>Node0x157a6e50</title>
<polygon fill="none" stroke="black" points="95,-188.5 95,-226.5 178,-226.5 178,-188.5 95,-188.5"/>
<text text-anchor="start" x="103" y="-211.3" font-family="Times,serif" font-size="14.00">v2 = v3</text>
<text text-anchor="start" x="103" y="-196.3" font-family="Times,serif" font-size="14.00"> continue</text>
</g>
<!-- Node0x1ba65af0&#45;&gt;Node0x157a6e50 -->
<g id="edge12" class="edge"><title>Node0x1ba65af0&#45;&gt;Node0x157a6e50</title>
<path fill="none" stroke="black" d="M248.452,-329.436C202.726,-324.302 161.039,-315.154 145.5,-299 130.005,-282.892 128.894,-256.926 130.998,-236.93"/>
<polygon fill="black" stroke="black" points="134.493,-237.201 132.379,-226.819 127.558,-236.253 134.493,-237.201"/>
<text text-anchor="middle" x="277.5" y="-268.3" font-family="Times,serif" font-size="14.00">*(IntToPtrCastExpr&lt;ptr&gt;(v3)) != a1</text>
</g>
<!-- Node0xd6c1c90&#45;&gt;Node0x157a27a0 -->
<g id="edge13" class="edge"><title>Node0xd6c1c90&#45;&gt;Node0x157a27a0</title>
<path fill="none" stroke="black" d="M713.053,-245.453C649.075,-200.61 517.553,-108.424 456.271,-65.4698"/>
<polygon fill="black" stroke="black" points="457.953,-62.3747 447.755,-59.5011 453.935,-68.1069 457.953,-62.3747"/>
</g>
<!-- Node0x8716ee0 -->
<g id="node14" class="node"><title>Node0x8716ee0</title>
<polygon fill="none" stroke="black" points="367,-97.5 367,-150.5 480,-150.5 480,-97.5 367,-97.5"/>
<text text-anchor="start" x="375" y="-135.3" font-family="Times,serif" font-size="14.00">0x806958e:</text>
<text text-anchor="start" x="375" y="-120.3" font-family="Times,serif" font-size="14.00"> g2 = v1</text>
<text text-anchor="start" x="375" y="-105.3" font-family="Times,serif" font-size="14.00"> return result</text>
</g>
<!-- Node0x8716f80&#45;&gt;Node0x8716ee0 -->
<g id="edge14" class="edge"><title>Node0x8716f80&#45;&gt;Node0x8716ee0</title>
<path fill="none" stroke="black" d="M423.5,-188.413C423.5,-180.285 423.5,-170.394 423.5,-160.864"/>
<polygon fill="black" stroke="black" points="427,-160.766 423.5,-150.766 420,-160.766 427,-160.766"/>
</g>
<!-- Node0x157a6e50&#45;&gt;Node0xe026290 -->
<g id="edge15" class="edge"><title>Node0x157a6e50&#45;&gt;Node0xe026290</title>
<path fill="none" stroke="black" d="M128.679,-226.624C118.921,-250.925 103.5,-295.634 103.5,-335.5 103.5,-516.5 103.5,-516.5 103.5,-516.5 103.5,-544.399 118.183,-572.976 131.135,-592.757"/>
<polygon fill="black" stroke="black" points="128.371,-594.915 136.906,-601.193 134.149,-590.963 128.371,-594.915"/>
</g>
<!-- Node0x8716ee0&#45;&gt;Node0x157a27a0 -->
<g id="edge16" class="edge"><title>Node0x8716ee0&#45;&gt;Node0x157a27a0</title>
<path fill="none" stroke="black" d="M423.5,-97.0862C423.5,-88.4596 423.5,-78.8224 423.5,-70.0748"/>
<polygon fill="black" stroke="black" points="427,-69.9735 423.5,-59.9735 420,-69.9735 427,-69.9735"/>
</g>
</g>
</svg>
