<?xml version="1.0" encoding="UTF-8" standalone="no"?>
<!DOCTYPE svg PUBLIC "-//W3C//DTD SVG 1.1//EN"
 "http://www.w3.org/Graphics/SVG/1.1/DTD/svg11.dtd">
<!-- Generated by graphviz version 2.38.0 (20140413.2041)
 -->
<!-- Title: Control&#45;flow graph for function &#39;mbedtls_md_hmac_update(*a1, a2, a3)&#39;. Pages: 1 -->
<svg width="865pt" height="908pt"
 viewBox="0.00 0.00 865.00 908.00" xmlns="http://www.w3.org/2000/svg" xmlns:xlink="http://www.w3.org/1999/xlink">
<g id="graph0" class="graph" transform="scale(1 1) rotate(0) translate(4 904)">
<title>Control&#45;flow graph for function &#39;mbedtls_md_hmac_update(*a1, a2, a3)&#39;.</title>
<polygon fill="white" stroke="none" points="-4,4 -4,-904 861,-904 861,4 -4,4"/>
<text text-anchor="middle" x="428.5" y="-7.8" font-family="Times,serif" font-size="14.00">Control&#45;flow graph for function &#39;mbedtls_md_hmac_update(*a1, a2, a3)&#39;.</text>
<!-- Node0x1b6a4700 -->
<g id="node1" class="node"><title>Node0x1b6a4700</title>
<polygon fill="none" stroke="black" points="106.5,-831.5 106.5,-899.5 165.5,-899.5 165.5,-831.5 106.5,-831.5"/>
<text text-anchor="start" x="114.5" y="-884.3" font-family="Times,serif" font-size="14.00">entry:</text>
<text text-anchor="start" x="114.5" y="-869.3" font-family="Times,serif" font-size="14.00"> a1</text>
<text text-anchor="start" x="114.5" y="-854.3" font-family="Times,serif" font-size="14.00"> a2</text>
<text text-anchor="start" x="114.5" y="-839.3" font-family="Times,serif" font-size="14.00"> a3</text>
</g>
<!-- Node0xab403d0 -->
<g id="node2" class="node"><title>Node0xab403d0</title>
<polygon fill="none" stroke="black" points="0,-740.5 0,-793.5 272,-793.5 272,-740.5 0,-740.5"/>
<text text-anchor="start" x="8" y="-778.3" font-family="Times,serif" font-size="14.00">v1 = PtrToIntCastExpr&lt;int32&gt;(a1)</text>
<text text-anchor="start" x="8" y="-763.3" font-family="Times,serif" font-size="14.00"> v2</text>
<text text-anchor="start" x="8" y="-748.3" font-family="Times,serif" font-size="14.00"> g2 = &amp;(v2)</text>
</g>
<!-- Node0x1b6a4700&#45;&gt;Node0xab403d0 -->
<g id="edge1" class="edge"><title>Node0x1b6a4700&#45;&gt;Node0xab403d0</title>
<path fill="none" stroke="black" d="M136,-831.29C136,-822.434 136,-812.827 136,-803.837"/>
<polygon fill="black" stroke="black" points="139.5,-803.648 136,-793.648 132.5,-803.648 139.5,-803.648"/>
</g>
<!-- Node0x9026b00 -->
<g id="node3" class="node"><title>Node0x9026b00</title>
<polygon fill="none" stroke="black" points="66,-666.5 66,-702.5 206,-702.5 206,-666.5 66,-666.5"/>
<text text-anchor="start" x="74" y="-680.8" font-family="Times,serif" font-size="14.00">if (a1 == NULL):</text>
</g>
<!-- Node0xab403d0&#45;&gt;Node0x9026b00 -->
<g id="edge2" class="edge"><title>Node0xab403d0&#45;&gt;Node0x9026b00</title>
<path fill="none" stroke="black" d="M136,-740.086C136,-731.46 136,-721.822 136,-713.075"/>
<polygon fill="black" stroke="black" points="139.5,-712.973 136,-702.974 132.5,-712.974 139.5,-712.973"/>
</g>
<!-- Node0x9027810 -->
<g id="node4" class="node"><title>Node0x9027810</title>
<polygon fill="none" stroke="black" points="17.5,-519.5 17.5,-557.5 138.5,-557.5 138.5,-519.5 17.5,-519.5"/>
<text text-anchor="start" x="25.5" y="-542.3" font-family="Times,serif" font-size="14.00">0x806231d:</text>
<text text-anchor="start" x="25.5" y="-527.3" font-family="Times,serif" font-size="14.00"> return &#45;20736</text>
</g>
<!-- Node0x9026b00&#45;&gt;Node0x9027810 -->
<g id="edge3" class="edge"><title>Node0x9026b00&#45;&gt;Node0x9027810</title>
<path fill="none" stroke="black" d="M93.2681,-666.493C85.9602,-661.631 79.3368,-655.542 75,-648 60.9886,-623.634 64.3228,-590.829 69.5466,-567.69"/>
<polygon fill="black" stroke="black" points="72.9882,-568.355 72.0242,-557.804 66.1982,-566.653 72.9882,-568.355"/>
<text text-anchor="middle" x="122" y="-636.8" font-family="Times,serif" font-size="14.00">a1 == NULL</text>
</g>
<!-- Node0x9026cd0 -->
<g id="node5" class="node"><title>Node0x9026cd0</title>
<polygon fill="none" stroke="black" points="150,-576.5 150,-614.5 240,-614.5 240,-576.5 150,-576.5"/>
<text text-anchor="start" x="158" y="-599.3" font-family="Times,serif" font-size="14.00">v3 = *(a1)</text>
<text text-anchor="start" x="158" y="-584.3" font-family="Times,serif" font-size="14.00"> g6 = v3</text>
</g>
<!-- Node0x9026b00&#45;&gt;Node0x9026cd0 -->
<g id="edge4" class="edge"><title>Node0x9026b00&#45;&gt;Node0x9026cd0</title>
<path fill="none" stroke="black" d="M156.749,-666.391C162.518,-660.934 168.444,-654.59 173,-648 178.031,-640.722 182.266,-632.111 185.634,-624.034"/>
<polygon fill="black" stroke="black" points="188.951,-625.161 189.308,-614.572 182.425,-622.627 188.951,-625.161"/>
<text text-anchor="middle" x="226" y="-636.8" font-family="Times,serif" font-size="14.00">a1 != NULL</text>
</g>
<!-- Node0x1b6a3fd0 -->
<g id="node6" class="node"><title>Node0x1b6a3fd0</title>
<polygon fill="none" stroke="black" points="136,-23.5 136,-59.5 190,-59.5 190,-23.5 136,-23.5"/>
<text text-anchor="start" x="144" y="-37.8" font-family="Times,serif" font-size="14.00">exit:</text>
</g>
<!-- Node0x9027810&#45;&gt;Node0x1b6a3fd0 -->
<g id="edge5" class="edge"><title>Node0x9027810&#45;&gt;Node0x1b6a3fd0</title>
<path fill="none" stroke="black" d="M78,-519.438C78,-499.774 78,-467.403 78,-439.5 78,-439.5 78,-439.5 78,-145.5 78,-112.524 104.238,-84.3965 127.558,-65.9087"/>
<polygon fill="black" stroke="black" points="129.786,-68.6117 135.638,-59.7792 125.555,-63.035 129.786,-68.6117"/>
</g>
<!-- Node0x9026e10 -->
<g id="node7" class="node"><title>Node0x9026e10</title>
<polygon fill="none" stroke="black" points="142.5,-464.5 142.5,-500.5 247.5,-500.5 247.5,-464.5 142.5,-464.5"/>
<text text-anchor="start" x="150.5" y="-478.8" font-family="Times,serif" font-size="14.00">if (v3 == 0):</text>
</g>
<!-- Node0x9026cd0&#45;&gt;Node0x9026e10 -->
<g id="edge6" class="edge"><title>Node0x9026cd0&#45;&gt;Node0x9026e10</title>
<path fill="none" stroke="black" d="M195,-576.171C195,-558.424 195,-531.294 195,-510.966"/>
<polygon fill="black" stroke="black" points="198.5,-510.76 195,-500.76 191.5,-510.76 198.5,-510.76"/>
</g>
<!-- Node0x9027980 -->
<g id="node8" class="node"><title>Node0x9027980</title>
<polygon fill="none" stroke="black" points="93.5,-302.5 93.5,-340.5 214.5,-340.5 214.5,-302.5 93.5,-302.5"/>
<text text-anchor="start" x="101.5" y="-325.3" font-family="Times,serif" font-size="14.00">0x806231d:</text>
<text text-anchor="start" x="101.5" y="-310.3" font-family="Times,serif" font-size="14.00"> return &#45;20736</text>
</g>
<!-- Node0x9026e10&#45;&gt;Node0x9027980 -->
<g id="edge7" class="edge"><title>Node0x9026e10&#45;&gt;Node0x9027980</title>
<path fill="none" stroke="black" d="M188.987,-464.473C184.256,-450.701 177.7,-430.75 173,-413 167.504,-392.243 162.564,-368.472 159.1,-350.502"/>
<polygon fill="black" stroke="black" points="162.536,-349.834 157.238,-340.659 155.658,-351.135 162.536,-349.834"/>
<text text-anchor="middle" x="213" y="-434.8" font-family="Times,serif" font-size="14.00">v3 == 0</text>
</g>
<!-- Node0x9026f30 -->
<g id="node9" class="node"><title>Node0x9026f30</title>
<polygon fill="none" stroke="black" points="182,-359.5 182,-412.5 496,-412.5 496,-359.5 182,-359.5"/>
<text text-anchor="start" x="190" y="-397.3" font-family="Times,serif" font-size="14.00">v4 = *(IntToPtrCastExpr&lt;ptr&gt;((v1 + 8)))</text>
<text text-anchor="start" x="190" y="-382.3" font-family="Times,serif" font-size="14.00"> g4 = v4</text>
<text text-anchor="start" x="190" y="-367.3" font-family="Times,serif" font-size="14.00"> g237 = (v4 == 0)</text>
</g>
<!-- Node0x9026e10&#45;&gt;Node0x9026f30 -->
<g id="edge8" class="edge"><title>Node0x9026e10&#45;&gt;Node0x9026f30</title>
<path fill="none" stroke="black" d="M221.077,-464.387C240.711,-451.502 268.165,-433.486 291.643,-418.078"/>
<polygon fill="black" stroke="black" points="293.651,-420.947 300.091,-412.534 289.81,-415.095 293.651,-420.947"/>
<text text-anchor="middle" x="299" y="-434.8" font-family="Times,serif" font-size="14.00">v3 != 0</text>
</g>
<!-- Node0x9027980&#45;&gt;Node0x1b6a3fd0 -->
<g id="edge9" class="edge"><title>Node0x9027980&#45;&gt;Node0x1b6a3fd0</title>
<path fill="none" stroke="black" d="M153.004,-302.498C151.12,-264.468 147.752,-173.184 154,-97 154.736,-88.0305 156.141,-78.3134 157.627,-69.6021"/>
<polygon fill="black" stroke="black" points="161.102,-70.0565 159.439,-59.5929 154.214,-68.8094 161.102,-70.0565"/>
</g>
<!-- Node0x1b6a4970 -->
<g id="node10" class="node"><title>Node0x1b6a4970</title>
<polygon fill="none" stroke="black" points="286.5,-247.5 286.5,-283.5 391.5,-283.5 391.5,-247.5 286.5,-247.5"/>
<text text-anchor="start" x="294.5" y="-261.8" font-family="Times,serif" font-size="14.00">if (v4 == 0):</text>
</g>
<!-- Node0x9026f30&#45;&gt;Node0x1b6a4970 -->
<g id="edge10" class="edge"><title>Node0x9026f30&#45;&gt;Node0x1b6a4970</title>
<path fill="none" stroke="black" d="M339,-359.287C339,-339.989 339,-313.614 339,-293.916"/>
<polygon fill="black" stroke="black" points="342.5,-293.747 339,-283.747 335.5,-293.747 342.5,-293.747"/>
</g>
<!-- Node0x1b6a1e60 -->
<g id="node11" class="node"><title>Node0x1b6a1e60</title>
<polygon fill="none" stroke="black" points="163.5,-127.5 163.5,-165.5 284.5,-165.5 284.5,-127.5 163.5,-127.5"/>
<text text-anchor="start" x="171.5" y="-150.3" font-family="Times,serif" font-size="14.00">0x806231d:</text>
<text text-anchor="start" x="171.5" y="-135.3" font-family="Times,serif" font-size="14.00"> return &#45;20736</text>
</g>
<!-- Node0x1b6a4970&#45;&gt;Node0x1b6a1e60 -->
<g id="edge11" class="edge"><title>Node0x1b6a4970&#45;&gt;Node0x1b6a1e60</title>
<path fill="none" stroke="black" d="M322.278,-247.487C303.025,-227.899 271.205,-195.526 249.006,-172.941"/>
<polygon fill="black" stroke="black" points="251.384,-170.367 241.878,-165.689 246.392,-175.274 251.384,-170.367"/>
<text text-anchor="middle" x="331" y="-217.8" font-family="Times,serif" font-size="14.00">v4 == 0</text>
</g>
<!-- Node0x90276a0 -->
<g id="node12" class="node"><title>Node0x90276a0</title>
<polygon fill="none" stroke="black" points="303,-97.5 303,-195.5 857,-195.5 857,-97.5 303,-97.5"/>
<text text-anchor="start" x="311" y="-180.3" font-family="Times,serif" font-size="14.00">0x8062335:</text>
<text text-anchor="start" x="311" y="-165.3" font-family="Times,serif" font-size="14.00"> g4 = a2</text>
<text text-anchor="start" x="311" y="-150.3" font-family="Times,serif" font-size="14.00"> v5 = *(IntToPtrCastExpr&lt;ptr&gt;((v1 + 4)))</text>
<text text-anchor="start" x="311" y="-135.3" font-family="Times,serif" font-size="14.00"> g1 = v5</text>
<text text-anchor="start" x="311" y="-120.3" font-family="Times,serif" font-size="14.00"> IntToPtrCastExpr&lt;ptr&gt;(*(IntToPtrCastExpr&lt;ptr&gt;((v3 + 20))))(v5, a2, a3)</text>
<text text-anchor="start" x="311" y="-105.3" font-family="Times,serif" font-size="14.00"> return 0</text>
</g>
<!-- Node0x1b6a4970&#45;&gt;Node0x90276a0 -->
<g id="edge12" class="edge"><title>Node0x1b6a4970&#45;&gt;Node0x90276a0</title>
<path fill="none" stroke="black" d="M374.043,-247.487C399.869,-234.95 436.484,-217.174 471.695,-200.08"/>
<polygon fill="black" stroke="black" points="473.625,-203.033 481.092,-195.517 470.568,-196.736 473.625,-203.033"/>
<text text-anchor="middle" x="464" y="-217.8" font-family="Times,serif" font-size="14.00">v4 != 0</text>
</g>
<!-- Node0x1b6a1e60&#45;&gt;Node0x1b6a3fd0 -->
<g id="edge13" class="edge"><title>Node0x1b6a1e60&#45;&gt;Node0x1b6a3fd0</title>
<path fill="none" stroke="black" d="M213.094,-127.086C203.42,-110.75 189.185,-86.7135 178.359,-68.4341"/>
<polygon fill="black" stroke="black" points="181.31,-66.548 173.203,-59.7272 175.287,-70.115 181.31,-66.548"/>
</g>
<!-- Node0x90276a0&#45;&gt;Node0x1b6a3fd0 -->
<g id="edge14" class="edge"><title>Node0x90276a0&#45;&gt;Node0x1b6a3fd0</title>
<path fill="none" stroke="black" d="M385.54,-97.4679C315.12,-80.0739 242.554,-62.1499 200.17,-51.6811"/>
<polygon fill="black" stroke="black" points="200.867,-48.2482 190.32,-49.248 199.189,-55.0439 200.867,-48.2482"/>
</g>
</g>
</svg>
