<?xml version="1.0" encoding="UTF-8" standalone="no"?>
<!DOCTYPE svg PUBLIC "-//W3C//DTD SVG 1.1//EN"
 "http://www.w3.org/Graphics/SVG/1.1/DTD/svg11.dtd">
<!-- Generated by graphviz version 2.38.0 (20140413.2041)
 -->
<!-- Title: Control&#45;flow graph for function &#39;camellia_setkey_enc_wrap(a1)&#39;. Pages: 1 -->
<svg width="659pt" height="278pt"
 viewBox="0.00 0.00 659.00 278.00" xmlns="http://www.w3.org/2000/svg" xmlns:xlink="http://www.w3.org/1999/xlink">
<g id="graph0" class="graph" transform="scale(1 1) rotate(0) translate(4 274)">
<title>Control&#45;flow graph for function &#39;camellia_setkey_enc_wrap(a1)&#39;.</title>
<polygon fill="white" stroke="none" points="-4,4 -4,-274 655,-274 655,4 -4,4"/>
<text text-anchor="middle" x="325.5" y="-7.8" font-family="Times,serif" font-size="14.00">Control&#45;flow graph for function &#39;camellia_setkey_enc_wrap(a1)&#39;.</text>
<!-- Node0x1d0c2560 -->
<g id="node1" class="node"><title>Node0x1d0c2560</title>
<polygon fill="none" stroke="black" points="296,-231.5 296,-269.5 355,-269.5 355,-231.5 296,-231.5"/>
<text text-anchor="start" x="304" y="-254.3" font-family="Times,serif" font-size="14.00">entry:</text>
<text text-anchor="start" x="304" y="-239.3" font-family="Times,serif" font-size="14.00"> a1</text>
</g>
<!-- Node0x257b0310 -->
<g id="node2" class="node"><title>Node0x257b0310</title>
<polygon fill="none" stroke="black" points="0,-96.5 0,-194.5 651,-194.5 651,-96.5 0,-96.5"/>
<text text-anchor="start" x="8" y="-179.3" font-family="Times,serif" font-size="14.00">0x806a7a0:</text>
<text text-anchor="start" x="8" y="-164.3" font-family="Times,serif" font-size="14.00"> v1</text>
<text text-anchor="start" x="8" y="-149.3" font-family="Times,serif" font-size="14.00"> v2</text>
<text text-anchor="start" x="8" y="-134.3" font-family="Times,serif" font-size="14.00"> result = mbedtls_camellia_setkey_enc(IntToPtrCastExpr&lt;ptr&gt;(v2), v1, a1, 0, 0, 0, 0, 0)</text>
<text text-anchor="start" x="8" y="-119.3" font-family="Times,serif" font-size="14.00"> g1 = result</text>
<text text-anchor="start" x="8" y="-104.3" font-family="Times,serif" font-size="14.00"> return result</text>
</g>
<!-- Node0x1d0c2560&#45;&gt;Node0x257b0310 -->
<g id="edge1" class="edge"><title>Node0x1d0c2560&#45;&gt;Node0x257b0310</title>
<path fill="none" stroke="black" d="M325.5,-231.086C325.5,-223.607 325.5,-214.513 325.5,-205.097"/>
<polygon fill="black" stroke="black" points="329,-204.814 325.5,-194.814 322,-204.815 329,-204.814"/>
</g>
<!-- Node0x8e29980 -->
<g id="node3" class="node"><title>Node0x8e29980</title>
<polygon fill="none" stroke="black" points="298.5,-23.5 298.5,-59.5 352.5,-59.5 352.5,-23.5 298.5,-23.5"/>
<text text-anchor="start" x="306.5" y="-37.8" font-family="Times,serif" font-size="14.00">exit:</text>
</g>
<!-- Node0x257b0310&#45;&gt;Node0x8e29980 -->
<g id="edge2" class="edge"><title>Node0x257b0310&#45;&gt;Node0x8e29980</title>
<path fill="none" stroke="black" d="M325.5,-96.4868C325.5,-87.2893 325.5,-77.9618 325.5,-69.7064"/>
<polygon fill="black" stroke="black" points="329,-69.5725 325.5,-59.5725 322,-69.5725 329,-69.5725"/>
</g>
</g>
</svg>
