<?xml version="1.0" encoding="UTF-8" standalone="no"?>
<!DOCTYPE svg PUBLIC "-//W3C//DTD SVG 1.1//EN"
 "http://www.w3.org/Graphics/SVG/1.1/DTD/svg11.dtd">
<!-- Generated by graphviz version 2.38.0 (20140413.2041)
 -->
<!-- Title: Control&#45;flow graph for function &#39;function_804c471()&#39;. Pages: 1 -->
<svg width="403pt" height="246pt"
 viewBox="0.00 0.00 403.00 246.00" xmlns="http://www.w3.org/2000/svg" xmlns:xlink="http://www.w3.org/1999/xlink">
<g id="graph0" class="graph" transform="scale(1 1) rotate(0) translate(4 242)">
<title>Control&#45;flow graph for function &#39;function_804c471()&#39;.</title>
<polygon fill="white" stroke="none" points="-4,4 -4,-242 399,-242 399,4 -4,4"/>
<text text-anchor="middle" x="197.5" y="-7.8" font-family="Times,serif" font-size="14.00">Control&#45;flow graph for function &#39;function_804c471()&#39;.</text>
<!-- Node0x19549cf0 -->
<g id="node1" class="node"><title>Node0x19549cf0</title>
<polygon fill="none" stroke="black" points="168,-201.5 168,-237.5 227,-237.5 227,-201.5 168,-201.5"/>
<text text-anchor="start" x="176" y="-215.8" font-family="Times,serif" font-size="14.00">entry:</text>
</g>
<!-- Node0x1954a520 -->
<g id="node2" class="node"><title>Node0x1954a520</title>
<polygon fill="none" stroke="black" points="94,-96.5 94,-164.5 301,-164.5 301,-96.5 94,-96.5"/>
<text text-anchor="start" x="102" y="-149.3" font-family="Times,serif" font-size="14.00">0x804c471:</text>
<text text-anchor="start" x="102" y="-134.3" font-family="Times,serif" font-size="14.00"> entropy_update(0, 0, 0, 0)</text>
<text text-anchor="start" x="102" y="-119.3" font-family="Times,serif" font-size="14.00"> g1 = 0</text>
<text text-anchor="start" x="102" y="-104.3" font-family="Times,serif" font-size="14.00"> return 0</text>
</g>
<!-- Node0x19549cf0&#45;&gt;Node0x1954a520 -->
<g id="edge1" class="edge"><title>Node0x19549cf0&#45;&gt;Node0x1954a520</title>
<path fill="none" stroke="black" d="M197.5,-201.312C197.5,-193.602 197.5,-184.126 197.5,-174.671"/>
<polygon fill="black" stroke="black" points="201,-174.503 197.5,-164.503 194,-174.503 201,-174.503"/>
</g>
<!-- Node0x1954a4c0 -->
<g id="node3" class="node"><title>Node0x1954a4c0</title>
<polygon fill="none" stroke="black" points="170.5,-23.5 170.5,-59.5 224.5,-59.5 224.5,-23.5 170.5,-23.5"/>
<text text-anchor="start" x="178.5" y="-37.8" font-family="Times,serif" font-size="14.00">exit:</text>
</g>
<!-- Node0x1954a520&#45;&gt;Node0x1954a4c0 -->
<g id="edge2" class="edge"><title>Node0x1954a520&#45;&gt;Node0x1954a4c0</title>
<path fill="none" stroke="black" d="M197.5,-96.1123C197.5,-87.3522 197.5,-78.0128 197.5,-69.6246"/>
<polygon fill="black" stroke="black" points="201,-69.6235 197.5,-59.6235 194,-69.6235 201,-69.6235"/>
</g>
</g>
</svg>
