<?xml version="1.0" encoding="UTF-8" standalone="no"?>
<!DOCTYPE svg PUBLIC "-//W3C//DTD SVG 1.1//EN"
 "http://www.w3.org/Graphics/SVG/1.1/DTD/svg11.dtd">
<!-- Generated by graphviz version 2.38.0 (20140413.2041)
 -->
<!-- Title: Control&#45;flow graph for function &#39;mbedtls_cipher_setup(*a1, a2)&#39;. Pages: 1 -->
<svg width="746pt" height="1009pt"
 viewBox="0.00 0.00 746.00 1009.00" xmlns="http://www.w3.org/2000/svg" xmlns:xlink="http://www.w3.org/1999/xlink">
<g id="graph0" class="graph" transform="scale(1 1) rotate(0) translate(4 1005)">
<title>Control&#45;flow graph for function &#39;mbedtls_cipher_setup(*a1, a2)&#39;.</title>
<polygon fill="white" stroke="none" points="-4,4 -4,-1005 742,-1005 742,4 -4,4"/>
<text text-anchor="middle" x="369" y="-7.8" font-family="Times,serif" font-size="14.00">Control&#45;flow graph for function &#39;mbedtls_cipher_setup(*a1, a2)&#39;.</text>
<!-- Node0x26ff1bd0 -->
<g id="node1" class="node"><title>Node0x26ff1bd0</title>
<polygon fill="none" stroke="black" points="161,-947.5 161,-1000.5 220,-1000.5 220,-947.5 161,-947.5"/>
<text text-anchor="start" x="169" y="-985.3" font-family="Times,serif" font-size="14.00">entry:</text>
<text text-anchor="start" x="169" y="-970.3" font-family="Times,serif" font-size="14.00"> a1</text>
<text text-anchor="start" x="169" y="-955.3" font-family="Times,serif" font-size="14.00"> a2</text>
</g>
<!-- Node0x257ac130 -->
<g id="node2" class="node"><title>Node0x257ac130</title>
<polygon fill="none" stroke="black" points="52.5,-781.5 52.5,-909.5 328.5,-909.5 328.5,-781.5 52.5,-781.5"/>
<text text-anchor="start" x="60.5" y="-894.3" font-family="Times,serif" font-size="14.00">v1</text>
<text text-anchor="start" x="60.5" y="-879.3" font-family="Times,serif" font-size="14.00"> g2 = &amp;(v1)</text>
<text text-anchor="start" x="60.5" y="-864.3" font-family="Times,serif" font-size="14.00"> v2 = g3</text>
<text text-anchor="start" x="60.5" y="-849.3" font-family="Times,serif" font-size="14.00"> g3 = a2</text>
<text text-anchor="start" x="60.5" y="-834.3" font-family="Times,serif" font-size="14.00"> v3 = g7</text>
<text text-anchor="start" x="60.5" y="-819.3" font-family="Times,serif" font-size="14.00"> v4 = PtrToIntCastExpr&lt;int32&gt;(a1)</text>
<text text-anchor="start" x="60.5" y="-804.3" font-family="Times,serif" font-size="14.00"> g7 = v4</text>
<text text-anchor="start" x="60.5" y="-789.3" font-family="Times,serif" font-size="14.00"> v5 = g5</text>
</g>
<!-- Node0x26ff1bd0&#45;&gt;Node0x257ac130 -->
<g id="edge1" class="edge"><title>Node0x26ff1bd0&#45;&gt;Node0x257ac130</title>
<path fill="none" stroke="black" d="M190.5,-947.401C190.5,-939.256 190.5,-929.802 190.5,-920.011"/>
<polygon fill="black" stroke="black" points="194,-919.727 190.5,-909.727 187,-919.727 194,-919.727"/>
</g>
<!-- Node0x257ae5b0 -->
<g id="node3" class="node"><title>Node0x257ae5b0</title>
<polygon fill="none" stroke="black" points="68.5,-707.5 68.5,-743.5 312.5,-743.5 312.5,-707.5 68.5,-707.5"/>
<text text-anchor="start" x="76.5" y="-721.8" font-family="Times,serif" font-size="14.00">if ((a2 == 0) or (a1 == NULL)):</text>
</g>
<!-- Node0x257ac130&#45;&gt;Node0x257ae5b0 -->
<g id="edge2" class="edge"><title>Node0x257ac130&#45;&gt;Node0x257ae5b0</title>
<path fill="none" stroke="black" d="M190.5,-781.355C190.5,-771.753 190.5,-762.299 190.5,-754.016"/>
<polygon fill="black" stroke="black" points="194,-753.887 190.5,-743.888 187,-753.888 194,-753.887"/>
</g>
<!-- Node0x2630e250 -->
<g id="node4" class="node"><title>Node0x2630e250</title>
<polygon fill="none" stroke="black" points="0,-395.5 0,-478.5 121,-478.5 121,-395.5 0,-395.5"/>
<text text-anchor="start" x="8" y="-463.3" font-family="Times,serif" font-size="14.00">0x806a41e:</text>
<text text-anchor="start" x="8" y="-448.3" font-family="Times,serif" font-size="14.00"> g3 = v2</text>
<text text-anchor="start" x="8" y="-433.3" font-family="Times,serif" font-size="14.00"> g7 = v3</text>
<text text-anchor="start" x="8" y="-418.3" font-family="Times,serif" font-size="14.00"> g5 = v5</text>
<text text-anchor="start" x="8" y="-403.3" font-family="Times,serif" font-size="14.00"> return &#45;24832</text>
</g>
<!-- Node0x257ae5b0&#45;&gt;Node0x2630e250 -->
<g id="edge3" class="edge"><title>Node0x257ae5b0&#45;&gt;Node0x2630e250</title>
<path fill="none" stroke="black" d="M86.91,-707.452C78.7123,-702.641 71.3557,-696.592 65.5,-689 21.5204,-631.981 32.2252,-544.015 45.3482,-488.796"/>
<polygon fill="black" stroke="black" points="48.797,-489.43 47.8141,-478.881 42.0039,-487.741 48.797,-489.43"/>
<text text-anchor="middle" x="165" y="-677.8" font-family="Times,serif" font-size="14.00">(a2 == 0) or (a1 == NULL)</text>
</g>
<!-- Node0x26feeb00 -->
<g id="node5" class="node"><title>Node0x26feeb00</title>
<polygon fill="none" stroke="black" points="94.5,-497.5 94.5,-655.5 578.5,-655.5 578.5,-497.5 94.5,-497.5"/>
<text text-anchor="start" x="102.5" y="-640.3" font-family="Times,serif" font-size="14.00">0x806a434:</text>
<text text-anchor="start" x="102.5" y="-625.3" font-family="Times,serif" font-size="14.00"> g237 = True</text>
<text text-anchor="start" x="102.5" y="-610.3" font-family="Times,serif" font-size="14.00"> g5 = v4</text>
<text text-anchor="start" x="102.5" y="-595.3" font-family="Times,serif" font-size="14.00"> g4 = PtrToIntCastExpr&lt;int32&gt;(memset(a1, 0, 16))</text>
<text text-anchor="start" x="102.5" y="-580.3" font-family="Times,serif" font-size="14.00"> v6 = *(IntToPtrCastExpr&lt;ptr&gt;((g3 + 28)))</text>
<text text-anchor="start" x="102.5" y="-565.3" font-family="Times,serif" font-size="14.00"> g1 = v6</text>
<text text-anchor="start" x="102.5" y="-550.3" font-family="Times,serif" font-size="14.00"> IntToPtrCastExpr&lt;ptr&gt;(*(IntToPtrCastExpr&lt;ptr&gt;((v6 + 32))))()</text>
<text text-anchor="start" x="102.5" y="-535.3" font-family="Times,serif" font-size="14.00"> g6 = g1</text>
<text text-anchor="start" x="102.5" y="-520.3" font-family="Times,serif" font-size="14.00"> *(IntToPtrCastExpr&lt;ptr&gt;((g7 + 60))) = g1</text>
<text text-anchor="start" x="102.5" y="-505.3" font-family="Times,serif" font-size="14.00"> result</text>
</g>
<!-- Node0x257ae5b0&#45;&gt;Node0x26feeb00 -->
<g id="edge4" class="edge"><title>Node0x257ae5b0&#45;&gt;Node0x26feeb00</title>
<path fill="none" stroke="black" d="M239.814,-707.454C249.996,-702.512 260.149,-696.401 268.5,-689 276.834,-681.614 284.473,-672.959 291.377,-663.792"/>
<polygon fill="black" stroke="black" points="294.255,-665.786 297.254,-655.624 288.573,-661.697 294.255,-665.786"/>
<text text-anchor="middle" x="380.5" y="-677.8" font-family="Times,serif" font-size="14.00">(a2 != 0) and (a1 != NULL)</text>
</g>
<!-- Node0x257af6a0 -->
<g id="node6" class="node"><title>Node0x257af6a0</title>
<polygon fill="none" stroke="black" points="108.5,-23.5 108.5,-59.5 162.5,-59.5 162.5,-23.5 108.5,-23.5"/>
<text text-anchor="start" x="116.5" y="-37.8" font-family="Times,serif" font-size="14.00">exit:</text>
</g>
<!-- Node0x2630e250&#45;&gt;Node0x257af6a0 -->
<g id="edge5" class="edge"><title>Node0x2630e250&#45;&gt;Node0x257af6a0</title>
<path fill="none" stroke="black" d="M60.0029,-395.446C59.752,-371.587 59.5,-340.829 59.5,-313.5 59.5,-313.5 59.5,-313.5 59.5,-138 59.5,-108.818 81.4948,-83.3959 101.82,-66.1333"/>
<polygon fill="black" stroke="black" points="104.197,-68.7115 109.77,-59.7004 99.7943,-63.2697 104.197,-68.7115"/>
</g>
<!-- Node0x2630ed10 -->
<g id="node7" class="node"><title>Node0x2630ed10</title>
<polygon fill="none" stroke="black" points="289.5,-338.5 289.5,-376.5 389.5,-376.5 389.5,-338.5 289.5,-338.5"/>
<text text-anchor="start" x="297.5" y="-361.3" font-family="Times,serif" font-size="14.00">if (g1 != 0):</text>
<text text-anchor="start" x="297.5" y="-346.3" font-family="Times,serif" font-size="14.00"> else:</text>
</g>
<!-- Node0x26feeb00&#45;&gt;Node0x2630ed10 -->
<g id="edge6" class="edge"><title>Node0x26feeb00&#45;&gt;Node0x2630ed10</title>
<path fill="none" stroke="black" d="M337.579,-497.465C338.11,-459.063 338.717,-415.12 339.104,-387.109"/>
<polygon fill="black" stroke="black" points="342.608,-386.895 339.246,-376.847 335.608,-386.798 342.608,-386.895"/>
</g>
<!-- Node0x267868b0 -->
<g id="node8" class="node"><title>Node0x267868b0</title>
<polygon fill="none" stroke="black" points="88,-218.5 88,-286.5 591,-286.5 591,-218.5 88,-218.5"/>
<text text-anchor="start" x="96" y="-271.3" font-family="Times,serif" font-size="14.00">0x806a453:</text>
<text text-anchor="start" x="96" y="-256.3" font-family="Times,serif" font-size="14.00"> *(IntToPtrCastExpr&lt;ptr&gt;(g7)) = g3</text>
<text text-anchor="start" x="96" y="-241.3" font-family="Times,serif" font-size="14.00"> mbedtls_cipher_set_padding_mode(IntToPtrCastExpr&lt;ptr&gt;(g7), 0)</text>
<text text-anchor="start" x="96" y="-226.3" font-family="Times,serif" font-size="14.00"> result = 0</text>
</g>
<!-- Node0x2630ed10&#45;&gt;Node0x267868b0 -->
<g id="edge7" class="edge"><title>Node0x2630ed10&#45;&gt;Node0x267868b0</title>
<path fill="none" stroke="black" d="M339.5,-338.086C339.5,-326.631 339.5,-311.39 339.5,-297.003"/>
<polygon fill="black" stroke="black" points="343,-296.743 339.5,-286.743 336,-296.743 343,-296.743"/>
<text text-anchor="middle" x="367" y="-308.8" font-family="Times,serif" font-size="14.00">g1 != 0</text>
</g>
<!-- Node0x2630fdd0 -->
<g id="node9" class="node"><title>Node0x2630fdd0</title>
<polygon fill="none" stroke="black" points="609,-234.5 609,-270.5 738,-270.5 738,-234.5 609,-234.5"/>
<text text-anchor="start" x="617" y="-248.8" font-family="Times,serif" font-size="14.00">result = &#45;24960</text>
</g>
<!-- Node0x2630ed10&#45;&gt;Node0x2630fdd0 -->
<g id="edge8" class="edge"><title>Node0x2630ed10&#45;&gt;Node0x2630fdd0</title>
<path fill="none" stroke="black" d="M389.822,-345.779C442.96,-333.84 528.797,-312.787 600.5,-287 610.243,-283.496 620.475,-279.207 630.093,-274.882"/>
<polygon fill="black" stroke="black" points="631.841,-277.93 639.466,-270.573 628.918,-271.57 631.841,-277.93"/>
<text text-anchor="middle" x="574" y="-308.8" font-family="Times,serif" font-size="14.00">g1 == 0</text>
</g>
<!-- Node0x26311280 -->
<g id="node10" class="node"><title>Node0x26311280</title>
<polygon fill="none" stroke="black" points="283,-97.5 283,-180.5 396,-180.5 396,-97.5 283,-97.5"/>
<text text-anchor="start" x="291" y="-165.3" font-family="Times,serif" font-size="14.00">0x806a41e:</text>
<text text-anchor="start" x="291" y="-150.3" font-family="Times,serif" font-size="14.00"> g3 = v2</text>
<text text-anchor="start" x="291" y="-135.3" font-family="Times,serif" font-size="14.00"> g7 = v3</text>
<text text-anchor="start" x="291" y="-120.3" font-family="Times,serif" font-size="14.00"> g5 = v5</text>
<text text-anchor="start" x="291" y="-105.3" font-family="Times,serif" font-size="14.00"> return result</text>
</g>
<!-- Node0x267868b0&#45;&gt;Node0x26311280 -->
<g id="edge9" class="edge"><title>Node0x267868b0&#45;&gt;Node0x26311280</title>
<path fill="none" stroke="black" d="M339.5,-218.348C339.5,-209.674 339.5,-200.121 339.5,-190.758"/>
<polygon fill="black" stroke="black" points="343,-190.722 339.5,-180.722 336,-190.722 343,-190.722"/>
</g>
<!-- Node0x2630fdd0&#45;&gt;Node0x26311280 -->
<g id="edge10" class="edge"><title>Node0x2630fdd0&#45;&gt;Node0x26311280</title>
<path fill="none" stroke="black" d="M639.017,-234.475C626.983,-228.857 613.288,-222.818 600.5,-218 535.402,-193.473 458.943,-171.38 405.672,-157.022"/>
<polygon fill="black" stroke="black" points="406.568,-153.638 396.003,-154.432 404.757,-160.4 406.568,-153.638"/>
</g>
<!-- Node0x26311280&#45;&gt;Node0x257af6a0 -->
<g id="edge11" class="edge"><title>Node0x26311280&#45;&gt;Node0x257af6a0</title>
<path fill="none" stroke="black" d="M282.946,-111.525C247.361,-94.8662 202.5,-73.8653 171.661,-59.4283"/>
<polygon fill="black" stroke="black" points="173.107,-56.2407 162.566,-55.1707 170.139,-62.5804 173.107,-56.2407"/>
</g>
</g>
</svg>
