<?xml version="1.0" encoding="UTF-8" standalone="no"?>
<!DOCTYPE svg PUBLIC "-//W3C//DTD SVG 1.1//EN"
 "http://www.w3.org/Graphics/SVG/1.1/DTD/svg11.dtd">
<!-- Generated by graphviz version 2.38.0 (20140413.2041)
 -->
<!-- Title: Control&#45;flow graph for function &#39;mbedtls_ecp_gen_key(a1, a2, a3, a4)&#39;. Pages: 1 -->
<svg width="943pt" height="685pt"
 viewBox="0.00 0.00 942.50 685.00" xmlns="http://www.w3.org/2000/svg" xmlns:xlink="http://www.w3.org/1999/xlink">
<g id="graph0" class="graph" transform="scale(1 1) rotate(0) translate(4 681)">
<title>Control&#45;flow graph for function &#39;mbedtls_ecp_gen_key(a1, a2, a3, a4)&#39;.</title>
<polygon fill="white" stroke="none" points="-4,4 -4,-681 938.5,-681 938.5,4 -4,4"/>
<text text-anchor="middle" x="467.25" y="-7.8" font-family="Times,serif" font-size="14.00">Control&#45;flow graph for function &#39;mbedtls_ecp_gen_key(a1, a2, a3, a4)&#39;.</text>
<!-- Node0xb798c50 -->
<g id="node1" class="node"><title>Node0xb798c50</title>
<polygon fill="none" stroke="black" points="592,-593.5 592,-676.5 651,-676.5 651,-593.5 592,-593.5"/>
<text text-anchor="start" x="600" y="-661.3" font-family="Times,serif" font-size="14.00">entry:</text>
<text text-anchor="start" x="600" y="-646.3" font-family="Times,serif" font-size="14.00"> a1</text>
<text text-anchor="start" x="600" y="-631.3" font-family="Times,serif" font-size="14.00"> a2</text>
<text text-anchor="start" x="600" y="-616.3" font-family="Times,serif" font-size="14.00"> a3</text>
<text text-anchor="start" x="600" y="-601.3" font-family="Times,serif" font-size="14.00"> a4</text>
</g>
<!-- Node0x9aff6f0 -->
<g id="node2" class="node"><title>Node0x9aff6f0</title>
<polygon fill="none" stroke="black" points="308.5,-412.5 308.5,-555.5 934.5,-555.5 934.5,-412.5 308.5,-412.5"/>
<text text-anchor="start" x="316.5" y="-540.3" font-family="Times,serif" font-size="14.00">v1 = g3</text>
<text text-anchor="start" x="316.5" y="-525.3" font-family="Times,serif" font-size="14.00"> g3 = a2</text>
<text text-anchor="start" x="316.5" y="-510.3" font-family="Times,serif" font-size="14.00"> g1 = a1</text>
<text text-anchor="start" x="316.5" y="-495.3" font-family="Times,serif" font-size="14.00"> v2</text>
<text text-anchor="start" x="316.5" y="-480.3" font-family="Times,serif" font-size="14.00"> v3</text>
<text text-anchor="start" x="316.5" y="-465.3" font-family="Times,serif" font-size="14.00"> v4</text>
<text text-anchor="start" x="316.5" y="-450.3" font-family="Times,serif" font-size="14.00"> v5 = mbedtls_ecp_group_load(IntToPtrCastExpr&lt;ptr&gt;(a2), a1, v4, v3, v2, 0, 0, 0, 0)</text>
<text text-anchor="start" x="316.5" y="-435.3" font-family="Times,serif" font-size="14.00"> g1 = v5</text>
<text text-anchor="start" x="316.5" y="-420.3" font-family="Times,serif" font-size="14.00"> result = v5</text>
</g>
<!-- Node0xb798c50&#45;&gt;Node0x9aff6f0 -->
<g id="edge1" class="edge"><title>Node0xb798c50&#45;&gt;Node0x9aff6f0</title>
<path fill="none" stroke="black" d="M621.5,-593.285C621.5,-584.743 621.5,-575.448 621.5,-566.014"/>
<polygon fill="black" stroke="black" points="625,-565.75 621.5,-555.75 618,-565.75 625,-565.75"/>
</g>
<!-- Node0xbf03950 -->
<g id="node3" class="node"><title>Node0xbf03950</title>
<polygon fill="none" stroke="black" points="569,-338.5 569,-374.5 674,-374.5 674,-338.5 569,-338.5"/>
<text text-anchor="start" x="577" y="-352.8" font-family="Times,serif" font-size="14.00">if (v5 == 0):</text>
</g>
<!-- Node0x9aff6f0&#45;&gt;Node0xbf03950 -->
<g id="edge2" class="edge"><title>Node0x9aff6f0&#45;&gt;Node0xbf03950</title>
<path fill="none" stroke="black" d="M621.5,-412.181C621.5,-402.439 621.5,-392.961 621.5,-384.707"/>
<polygon fill="black" stroke="black" points="625,-384.642 621.5,-374.642 618,-384.642 625,-384.642"/>
</g>
<!-- Node0xc0c3230 -->
<g id="node4" class="node"><title>Node0xc0c3230</title>
<polygon fill="none" stroke="black" points="0,-218.5 0,-286.5 679,-286.5 679,-218.5 0,-218.5"/>
<text text-anchor="start" x="8" y="-271.3" font-family="Times,serif" font-size="14.00">v6 = g3</text>
<text text-anchor="start" x="8" y="-256.3" font-family="Times,serif" font-size="14.00"> v7 = mbedtls_ecp_gen_keypair(v6, (v6 + 124), (v6 + 136), IntToPtrCastExpr&lt;ptr&gt;(a3), a4)</text>
<text text-anchor="start" x="8" y="-241.3" font-family="Times,serif" font-size="14.00"> g1 = v7</text>
<text text-anchor="start" x="8" y="-226.3" font-family="Times,serif" font-size="14.00"> result = v7</text>
</g>
<!-- Node0xbf03950&#45;&gt;Node0xc0c3230 -->
<g id="edge3" class="edge"><title>Node0xbf03950&#45;&gt;Node0xc0c3230</title>
<path fill="none" stroke="black" d="M574.3,-338.427C537.85,-325.244 486.097,-306.524 440.45,-290.014"/>
<polygon fill="black" stroke="black" points="441.404,-286.637 430.809,-286.527 439.023,-293.22 441.404,-286.637"/>
<text text-anchor="middle" x="552.5" y="-308.8" font-family="Times,serif" font-size="14.00">v5 == 0</text>
</g>
<!-- Node0xc0c3140 -->
<g id="node5" class="node"><title>Node0xc0c3140</title>
<polygon fill="none" stroke="black" points="559,-97.5 559,-180.5 672,-180.5 672,-97.5 559,-97.5"/>
<text text-anchor="start" x="567" y="-165.3" font-family="Times,serif" font-size="14.00">0x805f0f4:</text>
<text text-anchor="start" x="567" y="-150.3" font-family="Times,serif" font-size="14.00"> g3 = v1</text>
<text text-anchor="start" x="567" y="-135.3" font-family="Times,serif" font-size="14.00"> v8</text>
<text text-anchor="start" x="567" y="-120.3" font-family="Times,serif" font-size="14.00"> g2 = v8</text>
<text text-anchor="start" x="567" y="-105.3" font-family="Times,serif" font-size="14.00"> return result</text>
</g>
<!-- Node0xbf03950&#45;&gt;Node0xc0c3140 -->
<g id="edge4" class="edge"><title>Node0xbf03950&#45;&gt;Node0xc0c3140</title>
<path fill="none" stroke="black" d="M645.539,-338.458C660.73,-326.125 679.037,-307.982 687.5,-287 698.972,-258.56 698.667,-246.561 687.5,-218 683.4,-207.513 677.155,-197.588 670.023,-188.555"/>
<polygon fill="black" stroke="black" points="672.669,-186.264 663.559,-180.855 667.308,-190.764 672.669,-186.264"/>
<text text-anchor="middle" x="723.5" y="-248.8" font-family="Times,serif" font-size="14.00">v5 != 0</text>
</g>
<!-- Node0xc0c3230&#45;&gt;Node0xc0c3140 -->
<g id="edge5" class="edge"><title>Node0xc0c3230&#45;&gt;Node0xc0c3140</title>
<path fill="none" stroke="black" d="M421.189,-218.499C462.073,-201.982 510.916,-182.25 549.405,-166.701"/>
<polygon fill="black" stroke="black" points="550.995,-169.834 558.956,-162.843 548.373,-163.344 550.995,-169.834"/>
</g>
<!-- Node0xa3f3640 -->
<g id="node6" class="node"><title>Node0xa3f3640</title>
<polygon fill="none" stroke="black" points="588.5,-23.5 588.5,-59.5 642.5,-59.5 642.5,-23.5 588.5,-23.5"/>
<text text-anchor="start" x="596.5" y="-37.8" font-family="Times,serif" font-size="14.00">exit:</text>
</g>
<!-- Node0xc0c3140&#45;&gt;Node0xa3f3640 -->
<g id="edge6" class="edge"><title>Node0xc0c3140&#45;&gt;Node0xa3f3640</title>
<path fill="none" stroke="black" d="M615.5,-97.4994C615.5,-88.2058 615.5,-78.537 615.5,-69.9459"/>
<polygon fill="black" stroke="black" points="619,-69.7494 615.5,-59.7494 612,-69.7494 619,-69.7494"/>
</g>
</g>
</svg>
