<?xml version="1.0" encoding="UTF-8" standalone="no"?>
<!DOCTYPE svg PUBLIC "-//W3C//DTD SVG 1.1//EN"
 "http://www.w3.org/Graphics/SVG/1.1/DTD/svg11.dtd">
<!-- Generated by graphviz version 2.38.0 (20140413.2041)
 -->
<!-- Title: Control&#45;flow graph for function &#39;ccm_ctx_free(a1, a2, a3)&#39;. Pages: 1 -->
<svg width="440pt" height="383pt"
 viewBox="0.00 0.00 440.00 383.00" xmlns="http://www.w3.org/2000/svg" xmlns:xlink="http://www.w3.org/1999/xlink">
<g id="graph0" class="graph" transform="scale(1 1) rotate(0) translate(4 379)">
<title>Control&#45;flow graph for function &#39;ccm_ctx_free(a1, a2, a3)&#39;.</title>
<polygon fill="white" stroke="none" points="-4,4 -4,-379 436,-379 436,4 -4,4"/>
<text text-anchor="middle" x="216" y="-7.8" font-family="Times,serif" font-size="14.00">Control&#45;flow graph for function &#39;ccm_ctx_free(a1, a2, a3)&#39;.</text>
<!-- Node0x26feef40 -->
<g id="node1" class="node"><title>Node0x26feef40</title>
<polygon fill="none" stroke="black" points="186.5,-306.5 186.5,-374.5 245.5,-374.5 245.5,-306.5 186.5,-306.5"/>
<text text-anchor="start" x="194.5" y="-359.3" font-family="Times,serif" font-size="14.00">entry:</text>
<text text-anchor="start" x="194.5" y="-344.3" font-family="Times,serif" font-size="14.00"> a1</text>
<text text-anchor="start" x="194.5" y="-329.3" font-family="Times,serif" font-size="14.00"> a2</text>
<text text-anchor="start" x="194.5" y="-314.3" font-family="Times,serif" font-size="14.00"> a3</text>
</g>
<!-- Node0x99cb560 -->
<g id="node2" class="node"><title>Node0x99cb560</title>
<polygon fill="none" stroke="black" points="2.5,-96.5 2.5,-269.5 429.5,-269.5 429.5,-96.5 2.5,-96.5"/>
<text text-anchor="start" x="10.5" y="-254.3" font-family="Times,serif" font-size="14.00">0x806a950:</text>
<text text-anchor="start" x="10.5" y="-239.3" font-family="Times,serif" font-size="14.00"> v1</text>
<text text-anchor="start" x="10.5" y="-224.3" font-family="Times,serif" font-size="14.00"> v2 = IntToPtrCastExpr&lt;ptr&gt;(v1)</text>
<text text-anchor="start" x="10.5" y="-209.3" font-family="Times,serif" font-size="14.00"> v3 = g3</text>
<text text-anchor="start" x="10.5" y="-194.3" font-family="Times,serif" font-size="14.00"> g3 = a1</text>
<text text-anchor="start" x="10.5" y="-179.3" font-family="Times,serif" font-size="14.00"> result = mbedtls_ccm_free(IntToPtrCastExpr&lt;ptr&gt;(a1))</text>
<text text-anchor="start" x="10.5" y="-164.3" font-family="Times,serif" font-size="14.00"> g1 = result</text>
<text text-anchor="start" x="10.5" y="-149.3" font-family="Times,serif" font-size="14.00"> g3 = v3</text>
<text text-anchor="start" x="10.5" y="-134.3" font-family="Times,serif" font-size="14.00"> g2 = PtrToIntCastExpr&lt;int32&gt;(v2)</text>
<text text-anchor="start" x="10.5" y="-119.3" font-family="Times,serif" font-size="14.00"> free(v2)</text>
<text text-anchor="start" x="10.5" y="-104.3" font-family="Times,serif" font-size="14.00"> return result</text>
</g>
<!-- Node0x26feef40&#45;&gt;Node0x99cb560 -->
<g id="edge1" class="edge"><title>Node0x26feef40&#45;&gt;Node0x99cb560</title>
<path fill="none" stroke="black" d="M216,-306.141C216,-298.146 216,-289.209 216,-279.904"/>
<polygon fill="black" stroke="black" points="219.5,-279.69 216,-269.691 212.5,-279.691 219.5,-279.69"/>
</g>
<!-- Node0x99cb4e0 -->
<g id="node3" class="node"><title>Node0x99cb4e0</title>
<polygon fill="none" stroke="black" points="189,-23.5 189,-59.5 243,-59.5 243,-23.5 189,-23.5"/>
<text text-anchor="start" x="197" y="-37.8" font-family="Times,serif" font-size="14.00">exit:</text>
</g>
<!-- Node0x99cb560&#45;&gt;Node0x99cb4e0 -->
<g id="edge2" class="edge"><title>Node0x99cb560&#45;&gt;Node0x99cb4e0</title>
<path fill="none" stroke="black" d="M216,-96.4343C216,-86.8184 216,-77.6259 216,-69.641"/>
<polygon fill="black" stroke="black" points="219.5,-69.5749 216,-59.5749 212.5,-69.5749 219.5,-69.5749"/>
</g>
</g>
</svg>
