<?xml version="1.0" encoding="UTF-8" standalone="no"?>
<!DOCTYPE svg PUBLIC "-//W3C//DTD SVG 1.1//EN"
 "http://www.w3.org/Graphics/SVG/1.1/DTD/svg11.dtd">
<!-- Generated by graphviz version 2.38.0 (20140413.2041)
 -->
<!-- Title: Control&#45;flow graph for function &#39;des3_set3key(a1, a2)&#39;. Pages: 1 -->
<svg width="658pt" height="1028pt"
 viewBox="0.00 0.00 658.00 1028.00" xmlns="http://www.w3.org/2000/svg" xmlns:xlink="http://www.w3.org/1999/xlink">
<g id="graph0" class="graph" transform="scale(1 1) rotate(0) translate(4 1024)">
<title>Control&#45;flow graph for function &#39;des3_set3key(a1, a2)&#39;.</title>
<polygon fill="white" stroke="none" points="-4,4 -4,-1024 654,-1024 654,4 -4,4"/>
<text text-anchor="middle" x="325" y="-7.8" font-family="Times,serif" font-size="14.00">Control&#45;flow graph for function &#39;des3_set3key(a1, a2)&#39;.</text>
<!-- Node0x182dc560 -->
<g id="node1" class="node"><title>Node0x182dc560</title>
<polygon fill="none" stroke="black" points="369,-966.5 369,-1019.5 428,-1019.5 428,-966.5 369,-966.5"/>
<text text-anchor="start" x="377" y="-1004.3" font-family="Times,serif" font-size="14.00">entry:</text>
<text text-anchor="start" x="377" y="-989.3" font-family="Times,serif" font-size="14.00"> a1</text>
<text text-anchor="start" x="377" y="-974.3" font-family="Times,serif" font-size="14.00"> a2</text>
</g>
<!-- Node0x182dc0d0 -->
<g id="node2" class="node"><title>Node0x182dc0d0</title>
<polygon fill="none" stroke="black" points="147,-680.5 147,-928.5 650,-928.5 650,-680.5 147,-680.5"/>
<text text-anchor="start" x="155" y="-913.3" font-family="Times,serif" font-size="14.00">v1 = g5</text>
<text text-anchor="start" x="155" y="-898.3" font-family="Times,serif" font-size="14.00"> g5 = g4</text>
<text text-anchor="start" x="155" y="-883.3" font-family="Times,serif" font-size="14.00"> v2 = g7</text>
<text text-anchor="start" x="155" y="-868.3" font-family="Times,serif" font-size="14.00"> g7 = g6</text>
<text text-anchor="start" x="155" y="-853.3" font-family="Times,serif" font-size="14.00"> v3 = g3</text>
<text text-anchor="start" x="155" y="-838.3" font-family="Times,serif" font-size="14.00"> g3 = g1</text>
<text text-anchor="start" x="155" y="-823.3" font-family="Times,serif" font-size="14.00"> mbedtls_des_setkey(g1, IntToPtrCastExpr&lt;ptr&gt;(g4))</text>
<text text-anchor="start" x="155" y="-808.3" font-family="Times,serif" font-size="14.00"> v4 = g5</text>
<text text-anchor="start" x="155" y="-793.3" font-family="Times,serif" font-size="14.00"> v5 = (v4 + 16)</text>
<text text-anchor="start" x="155" y="-778.3" font-family="Times,serif" font-size="14.00"> g5 = v5</text>
<text text-anchor="start" x="155" y="-763.3" font-family="Times,serif" font-size="14.00"> mbedtls_des_setkey((g7 + 128), IntToPtrCastExpr&lt;ptr&gt;((v4 + 8)))</text>
<text text-anchor="start" x="155" y="-748.3" font-family="Times,serif" font-size="14.00"> mbedtls_des_setkey((g3 + 256), IntToPtrCastExpr&lt;ptr&gt;(v5))</text>
<text text-anchor="start" x="155" y="-733.3" font-family="Times,serif" font-size="14.00"> v6 = 0</text>
<text text-anchor="start" x="155" y="-718.3" font-family="Times,serif" font-size="14.00"> v7 = 0</text>
<text text-anchor="start" x="155" y="-703.3" font-family="Times,serif" font-size="14.00"> v8 = 0</text>
<text text-anchor="start" x="155" y="-688.3" font-family="Times,serif" font-size="14.00"> v9 = 0</text>
</g>
<!-- Node0x182dc560&#45;&gt;Node0x182dc0d0 -->
<g id="edge1" class="edge"><title>Node0x182dc560&#45;&gt;Node0x182dc0d0</title>
<path fill="none" stroke="black" d="M398.5,-966.459C398.5,-958.445 398.5,-948.984 398.5,-938.727"/>
<polygon fill="black" stroke="black" points="402,-938.671 398.5,-928.671 395,-938.671 402,-938.671"/>
</g>
<!-- Node0x182dc890 -->
<g id="node3" class="node"><title>Node0x182dc890</title>
<polygon fill="none" stroke="black" points="350,-606.5 350,-642.5 447,-642.5 447,-606.5 350,-606.5"/>
<text text-anchor="start" x="358" y="-620.8" font-family="Times,serif" font-size="14.00">while True:</text>
</g>
<!-- Node0x182dc0d0&#45;&gt;Node0x182dc890 -->
<g id="edge2" class="edge"><title>Node0x182dc0d0&#45;&gt;Node0x182dc890</title>
<path fill="none" stroke="black" d="M398.5,-680.358C398.5,-670.332 398.5,-660.986 398.5,-652.952"/>
<polygon fill="black" stroke="black" points="402,-652.869 398.5,-642.869 395,-652.869 402,-652.869"/>
</g>
<!-- Node0x182dcaf0 -->
<g id="node4" class="node"><title>Node0x182dcaf0</title>
<polygon fill="none" stroke="black" points="0,-306.5 0,-554.5 431,-554.5 431,-306.5 0,-306.5"/>
<text text-anchor="start" x="8" y="-539.3" font-family="Times,serif" font-size="14.00">v10 = *(IntToPtrCastExpr&lt;ptr&gt;(((v9 + 376) + g3)))</text>
<text text-anchor="start" x="8" y="-524.3" font-family="Times,serif" font-size="14.00"> *(IntToPtrCastExpr&lt;ptr&gt;((g7 + (4 * v8)))) = v10</text>
<text text-anchor="start" x="8" y="-509.3" font-family="Times,serif" font-size="14.00"> v11 = *(IntToPtrCastExpr&lt;ptr&gt;(((g3 + 380) + v6)))</text>
<text text-anchor="start" x="8" y="-494.3" font-family="Times,serif" font-size="14.00"> *(IntToPtrCastExpr&lt;ptr&gt;(((g7 + 4) + (4 * v7)))) = v11</text>
<text text-anchor="start" x="8" y="-479.3" font-family="Times,serif" font-size="14.00"> v12 = *(IntToPtrCastExpr&lt;ptr&gt;(((g7 + 248) + v6)))</text>
<text text-anchor="start" x="8" y="-464.3" font-family="Times,serif" font-size="14.00"> *(IntToPtrCastExpr&lt;ptr&gt;(((g3 + 128) + (4 * v7)))) = v12</text>
<text text-anchor="start" x="8" y="-449.3" font-family="Times,serif" font-size="14.00"> v13 = *(IntToPtrCastExpr&lt;ptr&gt;(((g7 + 252) + v6)))</text>
<text text-anchor="start" x="8" y="-434.3" font-family="Times,serif" font-size="14.00"> *(IntToPtrCastExpr&lt;ptr&gt;(((g3 + 132) + (4 * v7)))) = v13</text>
<text text-anchor="start" x="8" y="-419.3" font-family="Times,serif" font-size="14.00"> v14 = *(IntToPtrCastExpr&lt;ptr&gt;(((g3 + 120) + v6)))</text>
<text text-anchor="start" x="8" y="-404.3" font-family="Times,serif" font-size="14.00"> *(IntToPtrCastExpr&lt;ptr&gt;(((g7 + 256) + (4 * v7)))) = v14</text>
<text text-anchor="start" x="8" y="-389.3" font-family="Times,serif" font-size="14.00"> v15 = v6</text>
<text text-anchor="start" x="8" y="-374.3" font-family="Times,serif" font-size="14.00"> v16 = *(IntToPtrCastExpr&lt;ptr&gt;(((g3 + 124) + v15)))</text>
<text text-anchor="start" x="8" y="-359.3" font-family="Times,serif" font-size="14.00"> v6 = (v15 &#45; 8)</text>
<text text-anchor="start" x="8" y="-344.3" font-family="Times,serif" font-size="14.00"> *(IntToPtrCastExpr&lt;ptr&gt;(((g7 + 260) + (4 * v7)))) = v16</text>
<text text-anchor="start" x="8" y="-329.3" font-family="Times,serif" font-size="14.00"> v17 = (v7 + 2)</text>
<text text-anchor="start" x="8" y="-314.3" font-family="Times,serif" font-size="14.00"> v7 = v17</text>
</g>
<!-- Node0x182dc890&#45;&gt;Node0x182dcaf0 -->
<g id="edge3" class="edge"><title>Node0x182dc890&#45;&gt;Node0x182dcaf0</title>
<path fill="none" stroke="black" d="M382.26,-606.461C371.697,-595.379 356.842,-579.793 340.305,-562.443"/>
<polygon fill="black" stroke="black" points="342.556,-559.732 333.123,-554.908 337.489,-564.561 342.556,-559.732"/>
<text text-anchor="middle" x="380.5" y="-576.8" font-family="Times,serif" font-size="14.00">True</text>
</g>
<!-- Node0x182dc8f0 -->
<g id="node5" class="node"><title>Node0x182dc8f0</title>
<polygon fill="none" stroke="black" points="192,-232.5 192,-268.5 315,-268.5 315,-232.5 192,-232.5"/>
<text text-anchor="start" x="200" y="-246.8" font-family="Times,serif" font-size="14.00">if (v17 == 32):</text>
</g>
<!-- Node0x182dcaf0&#45;&gt;Node0x182dc8f0 -->
<g id="edge4" class="edge"><title>Node0x182dcaf0&#45;&gt;Node0x182dc8f0</title>
<path fill="none" stroke="black" d="M241.789,-306.358C243.954,-296.218 245.97,-286.774 247.698,-278.679"/>
<polygon fill="black" stroke="black" points="251.127,-279.379 249.792,-268.869 244.281,-277.917 251.127,-279.379"/>
</g>
<!-- Node0x182dd010 -->
<g id="node6" class="node"><title>Node0x182dd010</title>
<polygon fill="none" stroke="black" points="204.5,-97.5 204.5,-180.5 302.5,-180.5 302.5,-97.5 204.5,-97.5"/>
<text text-anchor="start" x="212.5" y="-165.3" font-family="Times,serif" font-size="14.00">0x806b1f2:</text>
<text text-anchor="start" x="212.5" y="-150.3" font-family="Times,serif" font-size="14.00"> g3 = v3</text>
<text text-anchor="start" x="212.5" y="-135.3" font-family="Times,serif" font-size="14.00"> g7 = v2</text>
<text text-anchor="start" x="212.5" y="-120.3" font-family="Times,serif" font-size="14.00"> g5 = v1</text>
<text text-anchor="start" x="212.5" y="-105.3" font-family="Times,serif" font-size="14.00"> return 32</text>
</g>
<!-- Node0x182dc8f0&#45;&gt;Node0x182dd010 -->
<g id="edge5" class="edge"><title>Node0x182dc8f0&#45;&gt;Node0x182dd010</title>
<path fill="none" stroke="black" d="M253.5,-232.391C253.5,-221.15 253.5,-205.807 253.5,-190.853"/>
<polygon fill="black" stroke="black" points="257,-190.618 253.5,-180.618 250,-190.618 257,-190.618"/>
<text text-anchor="middle" x="292.5" y="-202.8" font-family="Times,serif" font-size="14.00">v17 == 32</text>
</g>
<!-- Node0x182dcfb0 -->
<g id="node7" class="node"><title>Node0x182dcfb0</title>
<polygon fill="none" stroke="black" points="365,-112.5 365,-165.5 466,-165.5 466,-112.5 365,-112.5"/>
<text text-anchor="start" x="373" y="-150.3" font-family="Times,serif" font-size="14.00">0x806b1a0:</text>
<text text-anchor="start" x="373" y="-135.3" font-family="Times,serif" font-size="14.00"> v8 = v17</text>
<text text-anchor="start" x="373" y="-120.3" font-family="Times,serif" font-size="14.00"> v9 = v6</text>
</g>
<!-- Node0x182dc8f0&#45;&gt;Node0x182dcfb0 -->
<g id="edge6" class="edge"><title>Node0x182dc8f0&#45;&gt;Node0x182dcfb0</title>
<path fill="none" stroke="black" d="M300.451,-232.406C312.3,-227.232 324.712,-221.029 335.5,-214 353.318,-202.39 370.912,-186.708 385.044,-172.769"/>
<polygon fill="black" stroke="black" points="387.534,-175.229 392.102,-165.67 382.569,-170.294 387.534,-175.229"/>
<text text-anchor="middle" x="391.5" y="-202.8" font-family="Times,serif" font-size="14.00">v17 != 32</text>
</g>
<!-- Node0x182dc6f0 -->
<g id="node8" class="node"><title>Node0x182dc6f0</title>
<polygon fill="none" stroke="black" points="226.5,-23.5 226.5,-59.5 280.5,-59.5 280.5,-23.5 226.5,-23.5"/>
<text text-anchor="start" x="234.5" y="-37.8" font-family="Times,serif" font-size="14.00">exit:</text>
</g>
<!-- Node0x182dd010&#45;&gt;Node0x182dc6f0 -->
<g id="edge7" class="edge"><title>Node0x182dd010&#45;&gt;Node0x182dc6f0</title>
<path fill="none" stroke="black" d="M253.5,-97.4994C253.5,-88.2058 253.5,-78.537 253.5,-69.9459"/>
<polygon fill="black" stroke="black" points="257,-69.7494 253.5,-59.7494 250,-69.7494 257,-69.7494"/>
</g>
<!-- Node0x182dcfb0&#45;&gt;Node0x182dc890 -->
<g id="edge8" class="edge"><title>Node0x182dcfb0&#45;&gt;Node0x182dc890</title>
<path fill="none" stroke="black" d="M423.585,-165.61C426.53,-175.891 429.6,-187.912 431.5,-199 458.232,-354.988 481.664,-402.458 439.5,-555 435.251,-570.372 426.538,-585.765 418.233,-598.054"/>
<polygon fill="black" stroke="black" points="415.241,-596.223 412.327,-606.409 420.957,-600.264 415.241,-596.223"/>
</g>
</g>
</svg>
