<?xml version="1.0" encoding="UTF-8" standalone="no"?>
<!DOCTYPE svg PUBLIC "-//W3C//DTD SVG 1.1//EN"
 "http://www.w3.org/Graphics/SVG/1.1/DTD/svg11.dtd">
<!-- Generated by graphviz version 2.38.0 (20140413.2041)
 -->
<!-- Title: Control&#45;flow graph for function &#39;rsa_alt_get_bitlen(*a1)&#39;. Pages: 1 -->
<svg width="509pt" height="323pt"
 viewBox="0.00 0.00 509.00 323.00" xmlns="http://www.w3.org/2000/svg" xmlns:xlink="http://www.w3.org/1999/xlink">
<g id="graph0" class="graph" transform="scale(1 1) rotate(0) translate(4 319)">
<title>Control&#45;flow graph for function &#39;rsa_alt_get_bitlen(*a1)&#39;.</title>
<polygon fill="white" stroke="none" points="-4,4 -4,-319 505,-319 505,4 -4,4"/>
<text text-anchor="middle" x="250.5" y="-7.8" font-family="Times,serif" font-size="14.00">Control&#45;flow graph for function &#39;rsa_alt_get_bitlen(*a1)&#39;.</text>
<!-- Node0xf24a380 -->
<g id="node1" class="node"><title>Node0xf24a380</title>
<polygon fill="none" stroke="black" points="221,-276.5 221,-314.5 280,-314.5 280,-276.5 221,-276.5"/>
<text text-anchor="start" x="229" y="-299.3" font-family="Times,serif" font-size="14.00">entry:</text>
<text text-anchor="start" x="229" y="-284.3" font-family="Times,serif" font-size="14.00"> a1</text>
</g>
<!-- Node0xf24a990 -->
<g id="node2" class="node"><title>Node0xf24a990</title>
<polygon fill="none" stroke="black" points="0,-96.5 0,-239.5 501,-239.5 501,-96.5 0,-96.5"/>
<text text-anchor="start" x="8" y="-224.3" font-family="Times,serif" font-size="14.00">v1 = PtrToIntCastExpr&lt;int32&gt;(a1)</text>
<text text-anchor="start" x="8" y="-209.3" font-family="Times,serif" font-size="14.00"> v2</text>
<text text-anchor="start" x="8" y="-194.3" font-family="Times,serif" font-size="14.00"> g2 = &amp;(v2)</text>
<text text-anchor="start" x="8" y="-179.3" font-family="Times,serif" font-size="14.00"> g237 = (&amp;(v2) == IntToPtrCastExpr&lt;ptr&gt;(24))</text>
<text text-anchor="start" x="8" y="-164.3" font-family="Times,serif" font-size="14.00"> g1 = v1</text>
<text text-anchor="start" x="8" y="-149.3" font-family="Times,serif" font-size="14.00"> v3 = *(a1)</text>
<text text-anchor="start" x="8" y="-134.3" font-family="Times,serif" font-size="14.00"> g6 = v3</text>
<text text-anchor="start" x="8" y="-119.3" font-family="Times,serif" font-size="14.00"> IntToPtrCastExpr&lt;ptr&gt;(*(IntToPtrCastExpr&lt;ptr&gt;((v1 + 12))))(v3)</text>
<text text-anchor="start" x="8" y="-104.3" font-family="Times,serif" font-size="14.00"> return (8 * g1)</text>
</g>
<!-- Node0xf24a380&#45;&gt;Node0xf24a990 -->
<g id="edge1" class="edge"><title>Node0xf24a380&#45;&gt;Node0xf24a990</title>
<path fill="none" stroke="black" d="M250.5,-276.251C250.5,-268.756 250.5,-259.516 250.5,-249.63"/>
<polygon fill="black" stroke="black" points="254,-249.569 250.5,-239.569 247,-249.569 254,-249.569"/>
</g>
<!-- Node0xf24a2e0 -->
<g id="node3" class="node"><title>Node0xf24a2e0</title>
<polygon fill="none" stroke="black" points="223.5,-23.5 223.5,-59.5 277.5,-59.5 277.5,-23.5 223.5,-23.5"/>
<text text-anchor="start" x="231.5" y="-37.8" font-family="Times,serif" font-size="14.00">exit:</text>
</g>
<!-- Node0xf24a990&#45;&gt;Node0xf24a2e0 -->
<g id="edge2" class="edge"><title>Node0xf24a990&#45;&gt;Node0xf24a2e0</title>
<path fill="none" stroke="black" d="M250.5,-96.3834C250.5,-87.0259 250.5,-77.9253 250.5,-69.9482"/>
<polygon fill="black" stroke="black" points="254,-69.848 250.5,-59.848 247,-69.8481 254,-69.848"/>
</g>
</g>
</svg>
