<?xml version="1.0" encoding="UTF-8" standalone="no"?>
<!DOCTYPE svg PUBLIC "-//W3C//DTD SVG 1.1//EN"
 "http://www.w3.org/Graphics/SVG/1.1/DTD/svg11.dtd">
<!-- Generated by graphviz version 2.38.0 (20140413.2041)
 -->
<!-- Title: Control&#45;flow graph for function &#39;sc_clock_gettime(a1, a2)&#39;. Pages: 1 -->
<svg width="679pt" height="1093pt"
 viewBox="0.00 0.00 678.50 1093.00" xmlns="http://www.w3.org/2000/svg" xmlns:xlink="http://www.w3.org/1999/xlink">
<g id="graph0" class="graph" transform="scale(1 1) rotate(0) translate(4 1089)">
<title>Control&#45;flow graph for function &#39;sc_clock_gettime(a1, a2)&#39;.</title>
<polygon fill="white" stroke="none" points="-4,4 -4,-1089 674.5,-1089 674.5,4 -4,4"/>
<text text-anchor="middle" x="335.25" y="-7.8" font-family="Times,serif" font-size="14.00">Control&#45;flow graph for function &#39;sc_clock_gettime(a1, a2)&#39;.</text>
<!-- Node0x93851d0 -->
<g id="node1" class="node"><title>Node0x93851d0</title>
<polygon fill="none" stroke="black" points="84,-1031.5 84,-1084.5 143,-1084.5 143,-1031.5 84,-1031.5"/>
<text text-anchor="start" x="92" y="-1069.3" font-family="Times,serif" font-size="14.00">entry:</text>
<text text-anchor="start" x="92" y="-1054.3" font-family="Times,serif" font-size="14.00"> a1</text>
<text text-anchor="start" x="92" y="-1039.3" font-family="Times,serif" font-size="14.00"> a2</text>
</g>
<!-- Node0x140f1e10 -->
<g id="node2" class="node"><title>Node0x140f1e10</title>
<polygon fill="none" stroke="black" points="7.5,-835.5 7.5,-993.5 219.5,-993.5 219.5,-835.5 7.5,-835.5"/>
<text text-anchor="start" x="15.5" y="-978.3" font-family="Times,serif" font-size="14.00">0x807702b:</text>
<text text-anchor="start" x="15.5" y="-963.3" font-family="Times,serif" font-size="14.00"> g5 = 265</text>
<text text-anchor="start" x="15.5" y="-948.3" font-family="Times,serif" font-size="14.00"> v1 = g7</text>
<text text-anchor="start" x="15.5" y="-933.3" font-family="Times,serif" font-size="14.00"> g1 = 265</text>
<text text-anchor="start" x="15.5" y="-918.3" font-family="Times,serif" font-size="14.00"> v2 = g3</text>
<text text-anchor="start" x="15.5" y="-903.3" font-family="Times,serif" font-size="14.00"> g3 = a2</text>
<text text-anchor="start" x="15.5" y="-888.3" font-family="Times,serif" font-size="14.00"> g6 = a1</text>
<text text-anchor="start" x="15.5" y="-873.3" font-family="Times,serif" font-size="14.00"> v3</text>
<text text-anchor="start" x="15.5" y="-858.3" font-family="Times,serif" font-size="14.00"> v4 = __vsyscall(v2, v1, v3)</text>
<text text-anchor="start" x="15.5" y="-843.3" font-family="Times,serif" font-size="14.00"> g5 = v4</text>
</g>
<!-- Node0x93851d0&#45;&gt;Node0x140f1e10 -->
<g id="edge1" class="edge"><title>Node0x93851d0&#45;&gt;Node0x140f1e10</title>
<path fill="none" stroke="black" d="M113.5,-1031.38C113.5,-1023.25 113.5,-1013.77 113.5,-1003.78"/>
<polygon fill="black" stroke="black" points="117,-1003.67 113.5,-993.667 110,-1003.67 117,-1003.67"/>
</g>
<!-- Node0x140f26f0 -->
<g id="node3" class="node"><title>Node0x140f26f0</title>
<polygon fill="none" stroke="black" points="61,-761.5 61,-797.5 166,-797.5 166,-761.5 61,-761.5"/>
<text text-anchor="start" x="69" y="-775.8" font-family="Times,serif" font-size="14.00">if (v4 == 0):</text>
</g>
<!-- Node0x140f1e10&#45;&gt;Node0x140f26f0 -->
<g id="edge2" class="edge"><title>Node0x140f1e10&#45;&gt;Node0x140f26f0</title>
<path fill="none" stroke="black" d="M113.5,-835.364C113.5,-825.457 113.5,-815.905 113.5,-807.625"/>
<polygon fill="black" stroke="black" points="117,-807.552 113.5,-797.552 110,-807.552 117,-807.552"/>
</g>
<!-- Node0x140f4360 -->
<g id="node4" class="node"><title>Node0x140f4360</title>
<polygon fill="none" stroke="black" points="0,-584.5 0,-652.5 101,-652.5 101,-584.5 0,-584.5"/>
<text text-anchor="start" x="8" y="-637.3" font-family="Times,serif" font-size="14.00">0x8077082:</text>
<text text-anchor="start" x="8" y="-622.3" font-family="Times,serif" font-size="14.00"> g3 = v2</text>
<text text-anchor="start" x="8" y="-607.3" font-family="Times,serif" font-size="14.00"> g7 = v1</text>
<text text-anchor="start" x="8" y="-592.3" font-family="Times,serif" font-size="14.00"> return 0</text>
</g>
<!-- Node0x140f26f0&#45;&gt;Node0x140f4360 -->
<g id="edge3" class="edge"><title>Node0x140f26f0&#45;&gt;Node0x140f4360</title>
<path fill="none" stroke="black" d="M88.7916,-761.153C82.9643,-755.946 77.3383,-749.79 73.5,-743 59.7416,-718.663 53.9949,-687.733 51.6861,-662.915"/>
<polygon fill="black" stroke="black" points="55.156,-662.389 50.8938,-652.69 48.1769,-662.93 55.156,-662.389"/>
<text text-anchor="middle" x="103.5" y="-731.8" font-family="Times,serif" font-size="14.00">v4 == 0</text>
</g>
<!-- Node0xed46bb0 -->
<g id="node5" class="node"><title>Node0xed46bb0</title>
<polygon fill="none" stroke="black" points="113,-671.5 113,-709.5 230,-709.5 230,-671.5 113,-671.5"/>
<text text-anchor="start" x="121" y="-694.3" font-family="Times,serif" font-size="14.00">0x807704c:</text>
<text text-anchor="start" x="121" y="-679.3" font-family="Times,serif" font-size="14.00"> if (v4 != &#45;38):</text>
</g>
<!-- Node0x140f26f0&#45;&gt;Node0xed46bb0 -->
<g id="edge4" class="edge"><title>Node0x140f26f0&#45;&gt;Node0xed46bb0</title>
<path fill="none" stroke="black" d="M124.959,-761.312C133.215,-748.927 144.511,-731.984 153.906,-717.891"/>
<polygon fill="black" stroke="black" points="156.831,-719.813 159.466,-709.551 151.007,-715.93 156.831,-719.813"/>
<text text-anchor="middle" x="173.5" y="-731.8" font-family="Times,serif" font-size="14.00">v4 != 0</text>
</g>
<!-- Node0x201f6900 -->
<g id="node6" class="node"><title>Node0x201f6900</title>
<polygon fill="none" stroke="black" points="73.5,-23.5 73.5,-59.5 127.5,-59.5 127.5,-23.5 73.5,-23.5"/>
<text text-anchor="start" x="81.5" y="-37.8" font-family="Times,serif" font-size="14.00">exit:</text>
</g>
<!-- Node0x140f4360&#45;&gt;Node0x201f6900 -->
<g id="edge5" class="edge"><title>Node0x140f4360&#45;&gt;Node0x201f6900</title>
<path fill="none" stroke="black" d="M48.7512,-584.259C47.3094,-553.97 45.5,-507.993 45.5,-468 45.5,-468 45.5,-468 45.5,-130.5 45.5,-106.502 60.3906,-83.6523 74.6759,-67.2535"/>
<polygon fill="black" stroke="black" points="77.3857,-69.4772 81.5721,-59.7445 72.2301,-64.7422 77.3857,-69.4772"/>
</g>
<!-- Node0xed46b20 -->
<g id="node7" class="node"><title>Node0xed46b20</title>
<polygon fill="none" stroke="black" points="60.5,-425.5 60.5,-508.5 282.5,-508.5 282.5,-425.5 60.5,-425.5"/>
<text text-anchor="start" x="68.5" y="-493.3" font-family="Times,serif" font-size="14.00">0x8077076:</text>
<text text-anchor="start" x="68.5" y="-478.3" font-family="Times,serif" font-size="14.00"> *(__errno_location()) = &#45;(g5)</text>
<text text-anchor="start" x="68.5" y="-463.3" font-family="Times,serif" font-size="14.00"> g3 = v2</text>
<text text-anchor="start" x="68.5" y="-448.3" font-family="Times,serif" font-size="14.00"> g7 = v1</text>
<text text-anchor="start" x="68.5" y="-433.3" font-family="Times,serif" font-size="14.00"> return &#45;1</text>
</g>
<!-- Node0xed46bb0&#45;&gt;Node0xed46b20 -->
<g id="edge6" class="edge"><title>Node0xed46bb0&#45;&gt;Node0xed46b20</title>
<path fill="none" stroke="black" d="M171.5,-671.374C171.5,-638.384 171.5,-567.45 171.5,-518.725"/>
<polygon fill="black" stroke="black" points="175,-518.687 171.5,-508.687 168,-518.687 175,-518.687"/>
<text text-anchor="middle" x="205" y="-614.8" font-family="Times,serif" font-size="14.00">v4 != &#45;38</text>
</g>
<!-- Node0x140f3bd0 -->
<g id="node8" class="node"><title>Node0x140f3bd0</title>
<polygon fill="none" stroke="black" points="238,-527.5 238,-565.5 339,-565.5 339,-527.5 238,-527.5"/>
<text text-anchor="start" x="246" y="-550.3" font-family="Times,serif" font-size="14.00">0x8077051:</text>
<text text-anchor="start" x="246" y="-535.3" font-family="Times,serif" font-size="14.00"> result</text>
</g>
<!-- Node0xed46bb0&#45;&gt;Node0x140f3bd0 -->
<g id="edge7" class="edge"><title>Node0xed46bb0&#45;&gt;Node0x140f3bd0</title>
<path fill="none" stroke="black" d="M218.228,-671.316C227.068,-666.348 235.672,-660.277 242.5,-653 263.011,-631.139 275.28,-598.669 281.923,-575.531"/>
<polygon fill="black" stroke="black" points="285.368,-576.195 284.588,-565.629 278.609,-574.375 285.368,-576.195"/>
<text text-anchor="middle" x="315" y="-614.8" font-family="Times,serif" font-size="14.00">v4 == &#45;38</text>
</g>
<!-- Node0xed46b20&#45;&gt;Node0x201f6900 -->
<g id="edge8" class="edge"><title>Node0xed46b20&#45;&gt;Node0x201f6900</title>
<path fill="none" stroke="black" d="M133.713,-425.371C116.757,-402.956 100.5,-373.612 100.5,-343.5 100.5,-343.5 100.5,-343.5 100.5,-130.5 100.5,-110.13 100.5,-87.1087 100.5,-69.7225"/>
<polygon fill="black" stroke="black" points="104,-69.6994 100.5,-59.6995 97.0001,-69.6995 104,-69.6994"/>
</g>
<!-- Node0x17a6a120 -->
<g id="node9" class="node"><title>Node0x17a6a120</title>
<polygon fill="none" stroke="black" points="245,-368.5 245,-406.5 350,-406.5 350,-368.5 245,-368.5"/>
<text text-anchor="start" x="253" y="-391.3" font-family="Times,serif" font-size="14.00">if (a1 == 0):</text>
<text text-anchor="start" x="253" y="-376.3" font-family="Times,serif" font-size="14.00"> else:</text>
</g>
<!-- Node0x140f3bd0&#45;&gt;Node0x17a6a120 -->
<g id="edge9" class="edge"><title>Node0x140f3bd0&#45;&gt;Node0x17a6a120</title>
<path fill="none" stroke="black" d="M289.532,-527.49C291.084,-500.426 294.031,-449.021 295.873,-416.882"/>
<polygon fill="black" stroke="black" points="299.374,-416.967 296.452,-406.783 292.385,-416.567 299.374,-416.967"/>
</g>
<!-- Node0x140f4790 -->
<g id="node10" class="node"><title>Node0x140f4790</title>
<polygon fill="none" stroke="black" points="128.5,-203.5 128.5,-316.5 430.5,-316.5 430.5,-203.5 128.5,-203.5"/>
<text text-anchor="start" x="136.5" y="-301.3" font-family="Times,serif" font-size="14.00">0x8077055:</text>
<text text-anchor="start" x="136.5" y="-286.3" font-family="Times,serif" font-size="14.00"> g1 = 78</text>
<text text-anchor="start" x="136.5" y="-271.3" font-family="Times,serif" font-size="14.00"> g6 = g3</text>
<text text-anchor="start" x="136.5" y="-256.3" font-family="Times,serif" font-size="14.00"> __vsyscall(v2, v1, v3)</text>
<text text-anchor="start" x="136.5" y="-241.3" font-family="Times,serif" font-size="14.00"> v5 = IntToPtrCastExpr&lt;ptr&gt;((g3 + 4))</text>
<text text-anchor="start" x="136.5" y="-226.3" font-family="Times,serif" font-size="14.00"> *(v5) = (1000 * *(v5))</text>
<text text-anchor="start" x="136.5" y="-211.3" font-family="Times,serif" font-size="14.00"> result = 0</text>
</g>
<!-- Node0x17a6a120&#45;&gt;Node0x140f4790 -->
<g id="edge10" class="edge"><title>Node0x17a6a120&#45;&gt;Node0x140f4790</title>
<path fill="none" stroke="black" d="M294.883,-368.251C293.275,-357.042 291.107,-341.93 288.907,-326.59"/>
<polygon fill="black" stroke="black" points="292.347,-325.918 287.463,-316.516 285.418,-326.912 292.347,-325.918"/>
<text text-anchor="middle" x="321.5" y="-338.8" font-family="Times,serif" font-size="14.00">a1 == 0</text>
</g>
<!-- Node0x140f4a40 -->
<g id="node11" class="node"><title>Node0x140f4a40</title>
<polygon fill="none" stroke="black" points="448.5,-226 448.5,-294 670.5,-294 670.5,-226 448.5,-226"/>
<text text-anchor="start" x="456.5" y="-278.8" font-family="Times,serif" font-size="14.00">0x8077071:</text>
<text text-anchor="start" x="456.5" y="-263.8" font-family="Times,serif" font-size="14.00"> g5 = &#45;22</text>
<text text-anchor="start" x="456.5" y="-248.8" font-family="Times,serif" font-size="14.00"> *(__errno_location()) = &#45;(g5)</text>
<text text-anchor="start" x="456.5" y="-233.8" font-family="Times,serif" font-size="14.00"> result = &#45;1</text>
</g>
<!-- Node0x17a6a120&#45;&gt;Node0x140f4a40 -->
<g id="edge11" class="edge"><title>Node0x17a6a120&#45;&gt;Node0x140f4a40</title>
<path fill="none" stroke="black" d="M335.317,-368.385C373.326,-350.179 433.034,-321.578 481.276,-298.47"/>
<polygon fill="black" stroke="black" points="482.945,-301.551 490.451,-294.075 479.921,-295.238 482.945,-301.551"/>
<text text-anchor="middle" x="423.5" y="-338.8" font-family="Times,serif" font-size="14.00">a1 != 0</text>
</g>
<!-- Node0x140f4290 -->
<g id="node12" class="node"><title>Node0x140f4290</title>
<polygon fill="none" stroke="black" points="223,-97.5 223,-165.5 336,-165.5 336,-97.5 223,-97.5"/>
<text text-anchor="start" x="231" y="-150.3" font-family="Times,serif" font-size="14.00">0x8077082:</text>
<text text-anchor="start" x="231" y="-135.3" font-family="Times,serif" font-size="14.00"> g3 = v2</text>
<text text-anchor="start" x="231" y="-120.3" font-family="Times,serif" font-size="14.00"> g7 = v1</text>
<text text-anchor="start" x="231" y="-105.3" font-family="Times,serif" font-size="14.00"> return result</text>
</g>
<!-- Node0x140f4790&#45;&gt;Node0x140f4290 -->
<g id="edge12" class="edge"><title>Node0x140f4790&#45;&gt;Node0x140f4290</title>
<path fill="none" stroke="black" d="M279.5,-203.147C279.5,-193.918 279.5,-184.476 279.5,-175.622"/>
<polygon fill="black" stroke="black" points="283,-175.545 279.5,-165.545 276,-175.545 283,-175.545"/>
</g>
<!-- Node0x140f4a40&#45;&gt;Node0x140f4290 -->
<g id="edge13" class="edge"><title>Node0x140f4a40&#45;&gt;Node0x140f4290</title>
<path fill="none" stroke="black" d="M489.184,-225.876C472.901,-218.292 455.622,-210.312 439.5,-203 408.694,-189.027 374.389,-173.86 345.469,-161.186"/>
<polygon fill="black" stroke="black" points="346.844,-157.967 336.28,-157.163 344.037,-164.38 346.844,-157.967"/>
</g>
<!-- Node0x140f4290&#45;&gt;Node0x201f6900 -->
<g id="edge14" class="edge"><title>Node0x140f4290&#45;&gt;Node0x201f6900</title>
<path fill="none" stroke="black" d="M222.863,-102.656C194.709,-88.8148 161.515,-72.4963 136.809,-60.3501"/>
<polygon fill="black" stroke="black" points="138.302,-57.1841 127.784,-55.9132 135.214,-63.4661 138.302,-57.1841"/>
</g>
</g>
</svg>
