<?xml version="1.0" encoding="UTF-8" standalone="no"?>
<!DOCTYPE svg PUBLIC "-//W3C//DTD SVG 1.1//EN"
 "http://www.w3.org/Graphics/SVG/1.1/DTD/svg11.dtd">
<!-- Generated by graphviz version 2.38.0 (20140413.2041)
 -->
<!-- Title: Control&#45;flow graph for function &#39;mbedtls_mpi_grow(a1, *a2)&#39;. Pages: 1 -->
<svg width="981pt" height="1617pt"
 viewBox="0.00 0.00 980.50 1617.00" xmlns="http://www.w3.org/2000/svg" xmlns:xlink="http://www.w3.org/1999/xlink">
<g id="graph0" class="graph" transform="scale(1 1) rotate(0) translate(4 1613)">
<title>Control&#45;flow graph for function &#39;mbedtls_mpi_grow(a1, *a2)&#39;.</title>
<polygon fill="white" stroke="none" points="-4,4 -4,-1613 976.5,-1613 976.5,4 -4,4"/>
<text text-anchor="middle" x="486.25" y="-7.8" font-family="Times,serif" font-size="14.00">Control&#45;flow graph for function &#39;mbedtls_mpi_grow(a1, *a2)&#39;.</text>
<!-- Node0x20310040 -->
<g id="node1" class="node"><title>Node0x20310040</title>
<polygon fill="none" stroke="black" points="166,-1555.5 166,-1608.5 225,-1608.5 225,-1555.5 166,-1555.5"/>
<text text-anchor="start" x="174" y="-1593.3" font-family="Times,serif" font-size="14.00">entry:</text>
<text text-anchor="start" x="174" y="-1578.3" font-family="Times,serif" font-size="14.00"> a1</text>
<text text-anchor="start" x="174" y="-1563.3" font-family="Times,serif" font-size="14.00"> a2</text>
</g>
<!-- Node0xe367080 -->
<g id="node2" class="node"><title>Node0xe367080</title>
<polygon fill="none" stroke="black" points="41.5,-1479.5 41.5,-1517.5 349.5,-1517.5 349.5,-1479.5 41.5,-1479.5"/>
<text text-anchor="start" x="49.5" y="-1502.3" font-family="Times,serif" font-size="14.00">nmemb = PtrToIntCastExpr&lt;int32&gt;(a2)</text>
<text text-anchor="start" x="49.5" y="-1487.3" font-family="Times,serif" font-size="14.00"> v1</text>
</g>
<!-- Node0x20310040&#45;&gt;Node0xe367080 -->
<g id="edge1" class="edge"><title>Node0x20310040&#45;&gt;Node0xe367080</title>
<path fill="none" stroke="black" d="M195.5,-1555.21C195.5,-1546.53 195.5,-1536.79 195.5,-1527.91"/>
<polygon fill="black" stroke="black" points="199,-1527.64 195.5,-1517.64 192,-1527.64 199,-1527.64"/>
</g>
<!-- Node0x19d9e290 -->
<g id="node3" class="node"><title>Node0x19d9e290</title>
<polygon fill="none" stroke="black" points="39,-1405.5 39,-1441.5 352,-1441.5 352,-1405.5 39,-1405.5"/>
<text text-anchor="start" x="47" y="-1419.8" font-family="Times,serif" font-size="14.00">if (a2 &gt; IntToPtrCastExpr&lt;ptr&gt;(10000)):</text>
</g>
<!-- Node0xe367080&#45;&gt;Node0x19d9e290 -->
<g id="edge2" class="edge"><title>Node0xe367080&#45;&gt;Node0x19d9e290</title>
<path fill="none" stroke="black" d="M195.5,-1479.46C195.5,-1471.2 195.5,-1461.24 195.5,-1452.07"/>
<polygon fill="black" stroke="black" points="199,-1451.83 195.5,-1441.83 192,-1451.83 199,-1451.83"/>
</g>
<!-- Node0x7145080 -->
<g id="node4" class="node"><title>Node0x7145080</title>
<polygon fill="none" stroke="black" points="0,-1243.5 0,-1296.5 101,-1296.5 101,-1243.5 0,-1243.5"/>
<text text-anchor="start" x="8" y="-1281.3" font-family="Times,serif" font-size="14.00">0x8057038:</text>
<text text-anchor="start" x="8" y="-1266.3" font-family="Times,serif" font-size="14.00"> g2 = v1</text>
<text text-anchor="start" x="8" y="-1251.3" font-family="Times,serif" font-size="14.00"> return &#45;16</text>
</g>
<!-- Node0x19d9e290&#45;&gt;Node0x7145080 -->
<g id="edge3" class="edge"><title>Node0x19d9e290&#45;&gt;Node0x7145080</title>
<path fill="none" stroke="black" d="M85.1639,-1405.42C67.6736,-1400.55 53.3898,-1394.47 47.5,-1387 29.8493,-1364.61 32.6281,-1331.53 38.6443,-1306.42"/>
<polygon fill="black" stroke="black" points="42.0834,-1307.11 41.2705,-1296.55 35.3184,-1305.31 42.0834,-1307.11"/>
<text text-anchor="middle" x="181.5" y="-1375.8" font-family="Times,serif" font-size="14.00">a2 &gt; IntToPtrCastExpr&lt;ptr&gt;(10000)</text>
</g>
<!-- Node0x151ff9d0 -->
<g id="node5" class="node"><title>Node0x151ff9d0</title>
<polygon fill="none" stroke="black" points="143.5,-1315.5 143.5,-1353.5 539.5,-1353.5 539.5,-1315.5 143.5,-1315.5"/>
<text text-anchor="start" x="151.5" y="-1338.3" font-family="Times,serif" font-size="14.00">0x805701d:</text>
<text text-anchor="start" x="151.5" y="-1323.3" font-family="Times,serif" font-size="14.00"> if (nmemb &lt;= *(IntToPtrCastExpr&lt;ptr&gt;((a1 + 4)))):</text>
</g>
<!-- Node0x19d9e290&#45;&gt;Node0x151ff9d0 -->
<g id="edge4" class="edge"><title>Node0x19d9e290&#45;&gt;Node0x151ff9d0</title>
<path fill="none" stroke="black" d="M289.596,-1405.48C300.468,-1400.74 310.769,-1394.7 319.5,-1387 326.598,-1380.74 331.479,-1371.79 334.803,-1363.1"/>
<polygon fill="black" stroke="black" points="338.14,-1364.16 337.929,-1353.57 331.488,-1361.98 338.14,-1364.16"/>
<text text-anchor="middle" x="470.5" y="-1375.8" font-family="Times,serif" font-size="14.00">a2 &lt;= IntToPtrCastExpr&lt;ptr&gt;(10000)</text>
</g>
<!-- Node0x151fef80 -->
<g id="node6" class="node"><title>Node0x151fef80</title>
<polygon fill="none" stroke="black" points="99.5,-23.5 99.5,-59.5 153.5,-59.5 153.5,-23.5 99.5,-23.5"/>
<text text-anchor="start" x="107.5" y="-37.8" font-family="Times,serif" font-size="14.00">exit:</text>
</g>
<!-- Node0x7145080&#45;&gt;Node0x151fef80 -->
<g id="edge5" class="edge"><title>Node0x7145080&#45;&gt;Node0x151fef80</title>
<path fill="none" stroke="black" d="M51.1549,-1243.15C51.7382,-1217.87 52.5,-1178.29 52.5,-1144 52.5,-1144 52.5,-1144 52.5,-138 52.5,-108.929 74.1914,-83.3427 94.0863,-65.9899"/>
<polygon fill="black" stroke="black" points="96.4084,-68.6109 101.859,-59.5257 91.9325,-63.2289 96.4084,-68.6109"/>
</g>
<!-- Node0x140ee720 -->
<g id="node7" class="node"><title>Node0x140ee720</title>
<polygon fill="none" stroke="black" points="72,-1116.5 72,-1169.5 173,-1169.5 173,-1116.5 72,-1116.5"/>
<text text-anchor="start" x="80" y="-1154.3" font-family="Times,serif" font-size="14.00">0x8057022:</text>
<text text-anchor="start" x="80" y="-1139.3" font-family="Times,serif" font-size="14.00"> g2 = v1</text>
<text text-anchor="start" x="80" y="-1124.3" font-family="Times,serif" font-size="14.00"> return 0</text>
</g>
<!-- Node0x151ff9d0&#45;&gt;Node0x140ee720 -->
<g id="edge6" class="edge"><title>Node0x151ff9d0&#45;&gt;Node0x140ee720</title>
<path fill="none" stroke="black" d="M156.97,-1315.4C140.703,-1310.63 127.947,-1304.6 121.5,-1297 107.072,-1279.98 112.01,-1219.42 117.111,-1179.78"/>
<polygon fill="black" stroke="black" points="120.602,-1180.08 118.468,-1169.71 113.665,-1179.15 120.602,-1180.08"/>
<text text-anchor="middle" x="294.5" y="-1266.3" font-family="Times,serif" font-size="14.00">nmemb &lt;= *(IntToPtrCastExpr&lt;ptr&gt;((a1 + 4)))</text>
</g>
<!-- Node0x166195f0 -->
<g id="node8" class="node"><title>Node0x166195f0</title>
<polygon fill="none" stroke="black" points="395,-1188.5 395,-1224.5 592,-1224.5 592,-1188.5 395,-1188.5"/>
<text text-anchor="start" x="403" y="-1202.8" font-family="Times,serif" font-size="14.00">mem = calloc(nmemb, 4)</text>
</g>
<!-- Node0x151ff9d0&#45;&gt;Node0x166195f0 -->
<g id="edge7" class="edge"><title>Node0x151ff9d0&#45;&gt;Node0x166195f0</title>
<path fill="none" stroke="black" d="M445.91,-1315.44C455.39,-1310.62 464.164,-1304.58 471.5,-1297 487.368,-1280.61 492.384,-1254.71 493.715,-1234.98"/>
<polygon fill="black" stroke="black" points="497.221,-1234.88 494.12,-1224.75 490.227,-1234.61 497.221,-1234.88"/>
<text text-anchor="middle" x="659.5" y="-1266.3" font-family="Times,serif" font-size="14.00">nmemb &gt; *(IntToPtrCastExpr&lt;ptr&gt;((a1 + 4)))</text>
</g>
<!-- Node0x140ee720&#45;&gt;Node0x151fef80 -->
<g id="edge8" class="edge"><title>Node0x140ee720&#45;&gt;Node0x151fef80</title>
<path fill="none" stroke="black" d="M116.744,-1116.13C112.513,-1094.86 107.5,-1063.88 107.5,-1036.5 107.5,-1036.5 107.5,-1036.5 107.5,-138 107.5,-114.465 113.119,-88.2845 118.246,-69.2959"/>
<polygon fill="black" stroke="black" points="121.649,-70.1243 121.004,-59.5491 114.913,-68.2179 121.649,-70.1243"/>
</g>
<!-- Node0x1ecf9b70 -->
<g id="node9" class="node"><title>Node0x1ecf9b70</title>
<polygon fill="none" stroke="black" points="414.5,-1061.5 414.5,-1097.5 572.5,-1097.5 572.5,-1061.5 414.5,-1061.5"/>
<text text-anchor="start" x="422.5" y="-1075.8" font-family="Times,serif" font-size="14.00">if (mem == NULL):</text>
</g>
<!-- Node0x166195f0&#45;&gt;Node0x1ecf9b70 -->
<g id="edge9" class="edge"><title>Node0x166195f0&#45;&gt;Node0x1ecf9b70</title>
<path fill="none" stroke="black" d="M493.5,-1188.38C493.5,-1167.65 493.5,-1132.45 493.5,-1107.92"/>
<polygon fill="black" stroke="black" points="497,-1107.81 493.5,-1097.81 490,-1107.81 497,-1107.81"/>
</g>
<!-- Node0x151fbe10 -->
<g id="node10" class="node"><title>Node0x151fbe10</title>
<polygon fill="none" stroke="black" points="169,-901.5 169,-954.5 270,-954.5 270,-901.5 169,-901.5"/>
<text text-anchor="start" x="177" y="-939.3" font-family="Times,serif" font-size="14.00">0x8057038:</text>
<text text-anchor="start" x="177" y="-924.3" font-family="Times,serif" font-size="14.00"> g2 = v1</text>
<text text-anchor="start" x="177" y="-909.3" font-family="Times,serif" font-size="14.00"> return &#45;16</text>
</g>
<!-- Node0x1ecf9b70&#45;&gt;Node0x151fbe10 -->
<g id="edge10" class="edge"><title>Node0x1ecf9b70&#45;&gt;Node0x151fbe10</title>
<path fill="none" stroke="black" d="M437.192,-1061.44C422.357,-1056.22 406.571,-1049.98 392.5,-1043 345.116,-1019.5 295.091,-985.391 261.091,-960.607"/>
<polygon fill="black" stroke="black" points="262.935,-957.619 252.803,-954.519 258.791,-963.26 262.935,-957.619"/>
<text text-anchor="middle" x="448.5" y="-1031.8" font-family="Times,serif" font-size="14.00">mem == NULL</text>
</g>
<!-- Node0x140eda70 -->
<g id="node11" class="node"><title>Node0x140eda70</title>
<polygon fill="none" stroke="black" points="371.5,-973.5 371.5,-1009.5 685.5,-1009.5 685.5,-973.5 371.5,-973.5"/>
<text text-anchor="start" x="379.5" y="-987.8" font-family="Times,serif" font-size="14.00">v2 = *(IntToPtrCastExpr&lt;ptr&gt;((a1 + 8)))</text>
</g>
<!-- Node0x1ecf9b70&#45;&gt;Node0x140eda70 -->
<g id="edge11" class="edge"><title>Node0x1ecf9b70&#45;&gt;Node0x140eda70</title>
<path fill="none" stroke="black" d="M500.583,-1061.1C505.501,-1049.01 512.146,-1032.68 517.719,-1018.99"/>
<polygon fill="black" stroke="black" points="521.019,-1020.17 521.547,-1009.58 514.536,-1017.53 521.019,-1020.17"/>
<text text-anchor="middle" x="565.5" y="-1031.8" font-family="Times,serif" font-size="14.00">mem != NULL</text>
</g>
<!-- Node0x151fbe10&#45;&gt;Node0x151fef80 -->
<g id="edge12" class="edge"><title>Node0x151fbe10&#45;&gt;Node0x151fef80</title>
<path fill="none" stroke="black" d="M188.117,-901.356C167.949,-881.846 145.5,-853.045 145.5,-821.5 145.5,-821.5 145.5,-821.5 145.5,-138 145.5,-114.465 139.881,-88.2845 134.754,-69.2959"/>
<polygon fill="black" stroke="black" points="138.087,-68.2179 131.996,-59.5491 131.351,-70.1243 138.087,-68.2179"/>
</g>
<!-- Node0x140ee260 -->
<g id="node12" class="node"><title>Node0x140ee260</title>
<polygon fill="none" stroke="black" points="491,-846.5 491,-882.5 590,-882.5 590,-846.5 491,-846.5"/>
<text text-anchor="start" x="499" y="-860.8" font-family="Times,serif" font-size="14.00">if (v2 != 0):</text>
</g>
<!-- Node0x140eda70&#45;&gt;Node0x140ee260 -->
<g id="edge13" class="edge"><title>Node0x140eda70&#45;&gt;Node0x140ee260</title>
<path fill="none" stroke="black" d="M530.143,-973.381C532.134,-952.646 535.513,-917.453 537.868,-892.922"/>
<polygon fill="black" stroke="black" points="541.366,-893.102 538.838,-882.813 534.398,-892.433 541.366,-893.102"/>
</g>
<!-- Node0x9904a30 -->
<g id="node13" class="node"><title>Node0x9904a30</title>
<polygon fill="none" stroke="black" points="219.5,-711.5 219.5,-794.5 861.5,-794.5 861.5,-711.5 219.5,-711.5"/>
<text text-anchor="start" x="227.5" y="-779.3" font-family="Times,serif" font-size="14.00">0x805706d:</text>
<text text-anchor="start" x="227.5" y="-764.3" font-family="Times,serif" font-size="14.00"> memcpy(mem, IntToPtrCastExpr&lt;ptr&gt;(v2), (4 * *(IntToPtrCastExpr&lt;ptr&gt;((a1 + 4)))))</text>
<text text-anchor="start" x="227.5" y="-749.3" font-family="Times,serif" font-size="14.00"> v3 = *(IntToPtrCastExpr&lt;ptr&gt;((a1 + 8)))</text>
<text text-anchor="start" x="227.5" y="-734.3" font-family="Times,serif" font-size="14.00"> g6 = v3</text>
<text text-anchor="start" x="227.5" y="-719.3" font-family="Times,serif" font-size="14.00"> v4 = (4 * *(IntToPtrCastExpr&lt;ptr&gt;((a1 + 4))))</text>
</g>
<!-- Node0x140ee260&#45;&gt;Node0x9904a30 -->
<g id="edge14" class="edge"><title>Node0x140ee260&#45;&gt;Node0x9904a30</title>
<path fill="none" stroke="black" d="M540.5,-846.391C540.5,-835.15 540.5,-819.807 540.5,-804.853"/>
<polygon fill="black" stroke="black" points="544,-804.618 540.5,-794.618 537,-804.618 544,-804.618"/>
<text text-anchor="middle" x="567.5" y="-816.8" font-family="Times,serif" font-size="14.00">v2 != 0</text>
</g>
<!-- Node0x140ee6c0 -->
<g id="node14" class="node"><title>Node0x140ee6c0</title>
<polygon fill="none" stroke="black" points="436.5,-97.5 436.5,-180.5 972.5,-180.5 972.5,-97.5 436.5,-97.5"/>
<text text-anchor="start" x="444.5" y="-165.3" font-family="Times,serif" font-size="14.00">0x80570a6:</text>
<text text-anchor="start" x="444.5" y="-150.3" font-family="Times,serif" font-size="14.00"> *(IntToPtrCastExpr&lt;ptr&gt;((a1 + 4))) = nmemb</text>
<text text-anchor="start" x="444.5" y="-135.3" font-family="Times,serif" font-size="14.00"> *(IntToPtrCastExpr&lt;ptr&gt;((a1 + 8))) = PtrToIntCastExpr&lt;int32&gt;(mem)</text>
<text text-anchor="start" x="444.5" y="-120.3" font-family="Times,serif" font-size="14.00"> g2 = v1</text>
<text text-anchor="start" x="444.5" y="-105.3" font-family="Times,serif" font-size="14.00"> return 0</text>
</g>
<!-- Node0x140ee260&#45;&gt;Node0x140ee6c0 -->
<g id="edge15" class="edge"><title>Node0x140ee260&#45;&gt;Node0x140ee6c0</title>
<path fill="none" stroke="black" d="M590.013,-858.48C670.958,-849.423 826.982,-828.155 870.5,-795 886.785,-782.593 891.5,-774.473 891.5,-754 891.5,-754 891.5,-754 891.5,-236.5 891.5,-215.967 882.487,-199.799 868.418,-187.068"/>
<polygon fill="black" stroke="black" points="870.585,-184.32 860.621,-180.719 866.165,-189.748 870.585,-184.32"/>
<text text-anchor="middle" x="921.5" y="-487.8" font-family="Times,serif" font-size="14.00">v2 == 0</text>
</g>
<!-- Node0xe3690f0 -->
<g id="node15" class="node"><title>Node0xe3690f0</title>
<polygon fill="none" stroke="black" points="491,-637.5 491,-673.5 590,-673.5 590,-637.5 491,-637.5"/>
<text text-anchor="start" x="499" y="-651.8" font-family="Times,serif" font-size="14.00">if (v4 != 0):</text>
</g>
<!-- Node0x9904a30&#45;&gt;Node0xe3690f0 -->
<g id="edge16" class="edge"><title>Node0x9904a30&#45;&gt;Node0xe3690f0</title>
<path fill="none" stroke="black" d="M540.5,-711.499C540.5,-702.206 540.5,-692.537 540.5,-683.946"/>
<polygon fill="black" stroke="black" points="544,-683.749 540.5,-673.749 537,-683.749 544,-683.749"/>
</g>
<!-- Node0x140ee6c0&#45;&gt;Node0x151fef80 -->
<g id="edge17" class="edge"><title>Node0x140ee6c0&#45;&gt;Node0x151fef80</title>
<path fill="none" stroke="black" d="M459.376,-97.4994C346.176,-78.796 223.781,-58.5733 163.856,-48.6722"/>
<polygon fill="black" stroke="black" points="164.19,-45.18 153.754,-47.003 163.049,-52.0864 164.19,-45.18"/>
</g>
<!-- Node0x99058f0 -->
<g id="node16" class="node"><title>Node0x99058f0</title>
<polygon fill="none" stroke="black" points="285.5,-517.5 285.5,-585.5 551.5,-585.5 551.5,-517.5 285.5,-517.5"/>
<text text-anchor="start" x="293.5" y="-570.3" font-family="Times,serif" font-size="14.00">*(IntToPtrCastExpr&lt;ptr&gt;(v3)) = 0</text>
<text text-anchor="start" x="293.5" y="-555.3" font-family="Times,serif" font-size="14.00"> v5 = (g6 + 1)</text>
<text text-anchor="start" x="293.5" y="-540.3" font-family="Times,serif" font-size="14.00"> g6 = v5</text>
<text text-anchor="start" x="293.5" y="-525.3" font-family="Times,serif" font-size="14.00"> v6 = (v4 &#45; 1)</text>
</g>
<!-- Node0xe3690f0&#45;&gt;Node0x99058f0 -->
<g id="edge18" class="edge"><title>Node0xe3690f0&#45;&gt;Node0x99058f0</title>
<path fill="none" stroke="black" d="M520.08,-637.427C505.36,-625.121 484.871,-607.99 466.147,-592.336"/>
<polygon fill="black" stroke="black" points="468.169,-589.465 458.252,-585.735 463.679,-594.835 468.169,-589.465"/>
<text text-anchor="middle" x="524.5" y="-607.8" font-family="Times,serif" font-size="14.00">v4 != 0</text>
</g>
<!-- Node0x1b8f8c40 -->
<g id="node17" class="node"><title>Node0x1b8f8c40</title>
<polygon fill="none" stroke="black" points="574,-218.5 574,-256.5 835,-256.5 835,-218.5 574,-218.5"/>
<text text-anchor="start" x="582" y="-241.3" font-family="Times,serif" font-size="14.00">0x805709e:</text>
<text text-anchor="start" x="582" y="-226.3" font-family="Times,serif" font-size="14.00"> free(IntToPtrCastExpr&lt;ptr&gt;(v3))</text>
</g>
<!-- Node0xe3690f0&#45;&gt;Node0x1b8f8c40 -->
<g id="edge19" class="edge"><title>Node0xe3690f0&#45;&gt;Node0x1b8f8c40</title>
<path fill="none" stroke="black" d="M590.277,-645.708C666.524,-630.806 803.5,-597.739 803.5,-552.5 803.5,-552.5 803.5,-552.5 803.5,-335 803.5,-303.085 776.791,-278.29 751.119,-261.828"/>
<polygon fill="black" stroke="black" points="752.853,-258.786 742.493,-256.567 749.208,-264.762 752.853,-258.786"/>
<text text-anchor="middle" x="833.5" y="-443.8" font-family="Times,serif" font-size="14.00">v4 == 0</text>
</g>
<!-- Node0x151fd4f0 -->
<g id="node18" class="node"><title>Node0x151fd4f0</title>
<polygon fill="none" stroke="black" points="329.5,-429.5 329.5,-465.5 457.5,-465.5 457.5,-429.5 329.5,-429.5"/>
<text text-anchor="start" x="337.5" y="-443.8" font-family="Times,serif" font-size="14.00">while (v6 != 0):</text>
</g>
<!-- Node0x99058f0&#45;&gt;Node0x151fd4f0 -->
<g id="edge20" class="edge"><title>Node0x99058f0&#45;&gt;Node0x151fd4f0</title>
<path fill="none" stroke="black" d="M410.383,-517.384C407.086,-503.932 403.323,-488.579 400.188,-475.787"/>
<polygon fill="black" stroke="black" points="403.506,-474.621 397.726,-465.742 396.707,-476.287 403.506,-474.621"/>
</g>
<!-- Node0x1b8f8c40&#45;&gt;Node0x140ee6c0 -->
<g id="edge21" class="edge"><title>Node0x1b8f8c40&#45;&gt;Node0x140ee6c0</title>
<path fill="none" stroke="black" d="M704.5,-218.349C704.5,-210.488 704.5,-200.852 704.5,-191.061"/>
<polygon fill="black" stroke="black" points="708,-190.87 704.5,-180.87 701,-190.87 708,-190.87"/>
</g>
<!-- Node0x151fd090 -->
<g id="node19" class="node"><title>Node0x151fd090</title>
<polygon fill="none" stroke="black" points="173.5,-294.5 173.5,-377.5 443.5,-377.5 443.5,-294.5 173.5,-294.5"/>
<text text-anchor="start" x="181.5" y="-362.3" font-family="Times,serif" font-size="14.00">0x8057090:</text>
<text text-anchor="start" x="181.5" y="-347.3" font-family="Times,serif" font-size="14.00"> *(IntToPtrCastExpr&lt;ptr&gt;(v5)) = 0</text>
<text text-anchor="start" x="181.5" y="-332.3" font-family="Times,serif" font-size="14.00"> v5 = (g6 + 1)</text>
<text text-anchor="start" x="181.5" y="-317.3" font-family="Times,serif" font-size="14.00"> g6 = v5</text>
<text text-anchor="start" x="181.5" y="-302.3" font-family="Times,serif" font-size="14.00"> v6 = (v6 &#45; 1)</text>
</g>
<!-- Node0x151fd4f0&#45;&gt;Node0x151fd090 -->
<g id="edge22" class="edge"><title>Node0x151fd4f0&#45;&gt;Node0x151fd090</title>
<path fill="none" stroke="black" d="M336.62,-429.409C328.424,-424.661 320.939,-418.634 315.5,-411 310.656,-404.2 307.813,-396.111 306.27,-387.819"/>
<polygon fill="black" stroke="black" points="309.714,-387.157 304.984,-377.676 302.769,-388.037 309.714,-387.157"/>
<text text-anchor="middle" x="342.5" y="-399.8" font-family="Times,serif" font-size="14.00">v6 != 0</text>
</g>
<!-- Node0x1b8fa7b0 -->
<g id="node20" class="node"><title>Node0x1b8fa7b0</title>
<polygon fill="none" stroke="black" points="461.5,-309.5 461.5,-362.5 775.5,-362.5 775.5,-309.5 461.5,-309.5"/>
<text text-anchor="start" x="469.5" y="-347.3" font-family="Times,serif" font-size="14.00">v7 = *(IntToPtrCastExpr&lt;ptr&gt;((a1 + 8)))</text>
<text text-anchor="start" x="469.5" y="-332.3" font-family="Times,serif" font-size="14.00"> g6 = v7</text>
<text text-anchor="start" x="469.5" y="-317.3" font-family="Times,serif" font-size="14.00"> v3 = v7</text>
</g>
<!-- Node0x151fd4f0&#45;&gt;Node0x1b8fa7b0 -->
<g id="edge23" class="edge"><title>Node0x151fd4f0&#45;&gt;Node0x1b8fa7b0</title>
<path fill="none" stroke="black" d="M428.656,-429.391C462.898,-412.726 515.669,-387.045 556.89,-366.984"/>
<polygon fill="black" stroke="black" points="558.571,-370.058 566.031,-362.535 555.508,-363.764 558.571,-370.058"/>
<text text-anchor="middle" x="522.5" y="-399.8" font-family="Times,serif" font-size="14.00">v6 == 0</text>
</g>
<!-- Node0x151fd090&#45;&gt;Node0x151fd4f0 -->
<g id="edge24" class="edge"><title>Node0x151fd090&#45;&gt;Node0x151fd4f0</title>
<path fill="none" stroke="black" d="M354.458,-377.832C359.86,-383.648 365.031,-389.777 369.5,-396 374.734,-403.287 379.316,-411.894 383.036,-419.919"/>
<polygon fill="black" stroke="black" points="379.92,-421.529 387.131,-429.291 386.334,-418.726 379.92,-421.529"/>
</g>
<!-- Node0x1b8fa7b0&#45;&gt;Node0x1b8f8c40 -->
<g id="edge25" class="edge"><title>Node0x1b8fa7b0&#45;&gt;Node0x1b8f8c40</title>
<path fill="none" stroke="black" d="M641.321,-309.393C653.717,-295.484 669.006,-278.327 681.439,-264.376"/>
<polygon fill="black" stroke="black" points="684.346,-266.375 688.386,-256.581 679.12,-261.718 684.346,-266.375"/>
</g>
</g>
</svg>
