<?xml version="1.0" encoding="UTF-8" standalone="no"?>
<!DOCTYPE svg PUBLIC "-//W3C//DTD SVG 1.1//EN"
 "http://www.w3.org/Graphics/SVG/1.1/DTD/svg11.dtd">
<!-- Generated by graphviz version 2.38.0 (20140413.2041)
 -->
<!-- Title: Control&#45;flow graph for function &#39;__stdio_seek(a1, a2, a3, a4)&#39;. Pages: 1 -->
<svg width="1053pt" height="642pt"
 viewBox="0.00 0.00 1052.50 642.00" xmlns="http://www.w3.org/2000/svg" xmlns:xlink="http://www.w3.org/1999/xlink">
<g id="graph0" class="graph" transform="scale(1 1) rotate(0) translate(4 638)">
<title>Control&#45;flow graph for function &#39;__stdio_seek(a1, a2, a3, a4)&#39;.</title>
<polygon fill="white" stroke="none" points="-4,4 -4,-638 1048.5,-638 1048.5,4 -4,4"/>
<text text-anchor="middle" x="522.25" y="-7.8" font-family="Times,serif" font-size="14.00">Control&#45;flow graph for function &#39;__stdio_seek(a1, a2, a3, a4)&#39;.</text>
<!-- Node0x140f0520 -->
<g id="node1" class="node"><title>Node0x140f0520</title>
<polygon fill="none" stroke="black" points="246,-550.5 246,-633.5 305,-633.5 305,-550.5 246,-550.5"/>
<text text-anchor="start" x="254" y="-618.3" font-family="Times,serif" font-size="14.00">entry:</text>
<text text-anchor="start" x="254" y="-603.3" font-family="Times,serif" font-size="14.00"> a1</text>
<text text-anchor="start" x="254" y="-588.3" font-family="Times,serif" font-size="14.00"> a2</text>
<text text-anchor="start" x="254" y="-573.3" font-family="Times,serif" font-size="14.00"> a3</text>
<text text-anchor="start" x="254" y="-558.3" font-family="Times,serif" font-size="14.00"> a4</text>
</g>
<!-- Node0xdb86a10 -->
<g id="node2" class="node"><title>Node0xdb86a10</title>
<polygon fill="none" stroke="black" points="111,-384.5 111,-512.5 440,-512.5 440,-384.5 111,-384.5"/>
<text text-anchor="start" x="119" y="-497.3" font-family="Times,serif" font-size="14.00">0x80768cc:</text>
<text text-anchor="start" x="119" y="-482.3" font-family="Times,serif" font-size="14.00"> g5 = a2</text>
<text text-anchor="start" x="119" y="-467.3" font-family="Times,serif" font-size="14.00"> g6 = *(IntToPtrCastExpr&lt;ptr&gt;((a1 + 60)))</text>
<text text-anchor="start" x="119" y="-452.3" font-family="Times,serif" font-size="14.00"> g1 = 140</text>
<text text-anchor="start" x="119" y="-437.3" font-family="Times,serif" font-size="14.00"> v1</text>
<text text-anchor="start" x="119" y="-422.3" font-family="Times,serif" font-size="14.00"> v2 = __vsyscall(a4, v1, 0)</text>
<text text-anchor="start" x="119" y="-407.3" font-family="Times,serif" font-size="14.00"> result</text>
<text text-anchor="start" x="119" y="-392.3" font-family="Times,serif" font-size="14.00"> v3</text>
</g>
<!-- Node0x140f0520&#45;&gt;Node0xdb86a10 -->
<g id="edge1" class="edge"><title>Node0x140f0520&#45;&gt;Node0xdb86a10</title>
<path fill="none" stroke="black" d="M275.5,-550.452C275.5,-541.816 275.5,-532.44 275.5,-523"/>
<polygon fill="black" stroke="black" points="279,-522.762 275.5,-512.762 272,-522.762 279,-522.762"/>
</g>
<!-- Node0x140f0a20 -->
<g id="node3" class="node"><title>Node0x140f0a20</title>
<polygon fill="none" stroke="black" points="0,-308.5 0,-346.5 551,-346.5 551,-308.5 0,-308.5"/>
<text text-anchor="start" x="8" y="-331.3" font-family="Times,serif" font-size="14.00">if (__syscall_ret(ExtCastExpr&lt;int64&gt;(v2), ExtCastExpr&lt;int64&gt;(v3)) &gt; 0):</text>
<text text-anchor="start" x="8" y="-316.3" font-family="Times,serif" font-size="14.00"> else:</text>
</g>
<!-- Node0xdb86a10&#45;&gt;Node0x140f0a20 -->
<g id="edge2" class="edge"><title>Node0xdb86a10&#45;&gt;Node0x140f0a20</title>
<path fill="none" stroke="black" d="M275.5,-384.167C275.5,-374.596 275.5,-365.158 275.5,-356.848"/>
<polygon fill="black" stroke="black" points="279,-356.658 275.5,-346.659 272,-356.659 279,-356.658"/>
</g>
<!-- Node0x140f18c0 -->
<g id="node4" class="node"><title>Node0x140f18c0</title>
<polygon fill="none" stroke="black" points="182,-218.5 182,-256.5 283,-256.5 283,-218.5 182,-218.5"/>
<text text-anchor="start" x="190" y="-241.3" font-family="Times,serif" font-size="14.00">0x8076905:</text>
<text text-anchor="start" x="190" y="-226.3" font-family="Times,serif" font-size="14.00"> result = &#45;1</text>
</g>
<!-- Node0x140f0a20&#45;&gt;Node0x140f18c0 -->
<g id="edge3" class="edge"><title>Node0x140f0a20&#45;&gt;Node0x140f18c0</title>
<path fill="none" stroke="black" d="M44.3088,-308.459C29.0323,-303.625 17.0992,-297.57 10.5,-290 6.11935,-284.975 6.18526,-280.082 10.5,-275 30.8301,-251.054 113.248,-242.79 171.711,-239.955"/>
<polygon fill="black" stroke="black" points="172.128,-243.44 181.963,-239.5 171.818,-236.447 172.128,-243.44"/>
<text text-anchor="middle" x="269" y="-278.8" font-family="Times,serif" font-size="14.00">__syscall_ret(ExtCastExpr&lt;int64&gt;(v2), ExtCastExpr&lt;int64&gt;(v3)) &lt;= 0</text>
</g>
<!-- Node0x140f1740 -->
<g id="node5" class="node"><title>Node0x140f1740</title>
<polygon fill="none" stroke="black" points="401,-97.5 401,-180.5 514,-180.5 514,-97.5 401,-97.5"/>
<text text-anchor="start" x="409" y="-165.3" font-family="Times,serif" font-size="14.00">0x8076915:</text>
<text text-anchor="start" x="409" y="-150.3" font-family="Times,serif" font-size="14.00"> g1 = result</text>
<text text-anchor="start" x="409" y="-135.3" font-family="Times,serif" font-size="14.00"> v4</text>
<text text-anchor="start" x="409" y="-120.3" font-family="Times,serif" font-size="14.00"> g5 = v4</text>
<text text-anchor="start" x="409" y="-105.3" font-family="Times,serif" font-size="14.00"> return result</text>
</g>
<!-- Node0x140f0a20&#45;&gt;Node0x140f1740 -->
<g id="edge4" class="edge"><title>Node0x140f0a20&#45;&gt;Node0x140f1740</title>
<path fill="none" stroke="black" d="M493.097,-308.473C508.715,-303.658 520.918,-297.604 527.5,-290 553.074,-260.455 531.732,-219.976 506.097,-188.515"/>
<polygon fill="black" stroke="black" points="508.641,-186.103 499.514,-180.723 503.294,-190.62 508.641,-186.103"/>
<text text-anchor="middle" x="792" y="-233.8" font-family="Times,serif" font-size="14.00">__syscall_ret(ExtCastExpr&lt;int64&gt;(v2), ExtCastExpr&lt;int64&gt;(v3)) &gt; 0</text>
</g>
<!-- Node0x140f18c0&#45;&gt;Node0x140f1740 -->
<g id="edge5" class="edge"><title>Node0x140f18c0&#45;&gt;Node0x140f1740</title>
<path fill="none" stroke="black" d="M274.557,-218.462C307.389,-204.381 353.614,-184.555 391.384,-168.356"/>
<polygon fill="black" stroke="black" points="392.98,-171.48 400.791,-164.322 390.221,-165.047 392.98,-171.48"/>
</g>
<!-- Node0xdb85c20 -->
<g id="node6" class="node"><title>Node0xdb85c20</title>
<polygon fill="none" stroke="black" points="430.5,-23.5 430.5,-59.5 484.5,-59.5 484.5,-23.5 430.5,-23.5"/>
<text text-anchor="start" x="438.5" y="-37.8" font-family="Times,serif" font-size="14.00">exit:</text>
</g>
<!-- Node0x140f1740&#45;&gt;Node0xdb85c20 -->
<g id="edge6" class="edge"><title>Node0x140f1740&#45;&gt;Node0xdb85c20</title>
<path fill="none" stroke="black" d="M457.5,-97.4994C457.5,-88.2058 457.5,-78.537 457.5,-69.9459"/>
<polygon fill="black" stroke="black" points="461,-69.7494 457.5,-59.7494 454,-69.7494 461,-69.7494"/>
</g>
</g>
</svg>
