<?xml version="1.0" encoding="UTF-8" standalone="no"?>
<!DOCTYPE svg PUBLIC "-//W3C//DTD SVG 1.1//EN"
 "http://www.w3.org/Graphics/SVG/1.1/DTD/svg11.dtd">
<!-- Generated by graphviz version 2.38.0 (20140413.2041)
 -->
<!-- Title: Control&#45;flow graph for function &#39;mbedtls_ecdsa_from_keypair(a1, a2)&#39;. Pages: 1 -->
<svg width="764pt" height="1117pt"
 viewBox="0.00 0.00 764.00 1117.00" xmlns="http://www.w3.org/2000/svg" xmlns:xlink="http://www.w3.org/1999/xlink">
<g id="graph0" class="graph" transform="scale(1 1) rotate(0) translate(4 1113)">
<title>Control&#45;flow graph for function &#39;mbedtls_ecdsa_from_keypair(a1, a2)&#39;.</title>
<polygon fill="white" stroke="none" points="-4,4 -4,-1113 760,-1113 760,4 -4,4"/>
<text text-anchor="middle" x="378" y="-7.8" font-family="Times,serif" font-size="14.00">Control&#45;flow graph for function &#39;mbedtls_ecdsa_from_keypair(a1, a2)&#39;.</text>
<!-- Node0xdad6dd0 -->
<g id="node1" class="node"><title>Node0xdad6dd0</title>
<polygon fill="none" stroke="black" points="562.5,-1055.5 562.5,-1108.5 621.5,-1108.5 621.5,-1055.5 562.5,-1055.5"/>
<text text-anchor="start" x="570.5" y="-1093.3" font-family="Times,serif" font-size="14.00">entry:</text>
<text text-anchor="start" x="570.5" y="-1078.3" font-family="Times,serif" font-size="14.00"> a1</text>
<text text-anchor="start" x="570.5" y="-1063.3" font-family="Times,serif" font-size="14.00"> a2</text>
</g>
<!-- Node0xdad6d30 -->
<g id="node2" class="node"><title>Node0xdad6d30</title>
<polygon fill="none" stroke="black" points="457.5,-904.5 457.5,-1017.5 726.5,-1017.5 726.5,-904.5 457.5,-904.5"/>
<text text-anchor="start" x="465.5" y="-1002.3" font-family="Times,serif" font-size="14.00">v1 = g3</text>
<text text-anchor="start" x="465.5" y="-987.3" font-family="Times,serif" font-size="14.00"> g3 = a1</text>
<text text-anchor="start" x="465.5" y="-972.3" font-family="Times,serif" font-size="14.00"> v2 = g7</text>
<text text-anchor="start" x="465.5" y="-957.3" font-family="Times,serif" font-size="14.00"> g7 = a2</text>
<text text-anchor="start" x="465.5" y="-942.3" font-family="Times,serif" font-size="14.00"> v3 = mbedtls_ecp_group_copy(a1)</text>
<text text-anchor="start" x="465.5" y="-927.3" font-family="Times,serif" font-size="14.00"> g1 = v3</text>
<text text-anchor="start" x="465.5" y="-912.3" font-family="Times,serif" font-size="14.00"> result = v3</text>
</g>
<!-- Node0xdad6dd0&#45;&gt;Node0xdad6d30 -->
<g id="edge1" class="edge"><title>Node0xdad6dd0&#45;&gt;Node0xdad6d30</title>
<path fill="none" stroke="black" d="M592,-1055.47C592,-1047.26 592,-1037.75 592,-1028.01"/>
<polygon fill="black" stroke="black" points="595.5,-1027.81 592,-1017.81 588.5,-1027.81 595.5,-1027.81"/>
</g>
<!-- Node0xdad7710 -->
<g id="node3" class="node"><title>Node0xdad7710</title>
<polygon fill="none" stroke="black" points="539.5,-830.5 539.5,-866.5 644.5,-866.5 644.5,-830.5 539.5,-830.5"/>
<text text-anchor="start" x="547.5" y="-844.8" font-family="Times,serif" font-size="14.00">if (v3 == 0):</text>
</g>
<!-- Node0xdad6d30&#45;&gt;Node0xdad7710 -->
<g id="edge2" class="edge"><title>Node0xdad6d30&#45;&gt;Node0xdad7710</title>
<path fill="none" stroke="black" d="M592,-904.426C592,-894.86 592,-885.307 592,-876.913"/>
<polygon fill="black" stroke="black" points="595.5,-876.644 592,-866.644 588.5,-876.644 595.5,-876.644"/>
</g>
<!-- Node0xdad6fb0 -->
<g id="node4" class="node"><title>Node0xdad6fb0</title>
<polygon fill="none" stroke="black" points="0,-710.5 0,-778.5 674,-778.5 674,-710.5 0,-710.5"/>
<text text-anchor="start" x="8" y="-763.3" font-family="Times,serif" font-size="14.00">v4 = (g3 + 124)</text>
<text text-anchor="start" x="8" y="-748.3" font-family="Times,serif" font-size="14.00"> g1 = v4</text>
<text text-anchor="start" x="8" y="-733.3" font-family="Times,serif" font-size="14.00"> v5 = mbedtls_mpi_copy(IntToPtrCastExpr&lt;ptr&gt;(v4), IntToPtrCastExpr&lt;ptr&gt;((g7 + 124)))</text>
<text text-anchor="start" x="8" y="-718.3" font-family="Times,serif" font-size="14.00"> g1 = v5</text>
</g>
<!-- Node0xdad7710&#45;&gt;Node0xdad6fb0 -->
<g id="edge3" class="edge"><title>Node0xdad7710&#45;&gt;Node0xdad6fb0</title>
<path fill="none" stroke="black" d="M549.319,-830.427C516.566,-817.327 470.148,-798.759 429.062,-782.325"/>
<polygon fill="black" stroke="black" points="430.152,-778.991 419.567,-778.527 427.552,-785.49 430.152,-778.991"/>
<text text-anchor="middle" x="533" y="-800.8" font-family="Times,serif" font-size="14.00">v3 == 0</text>
</g>
<!-- Node0xdad7920 -->
<g id="node5" class="node"><title>Node0xdad7920</title>
<polygon fill="none" stroke="black" points="439,-97.5 439,-180.5 677,-180.5 677,-97.5 439,-97.5"/>
<text text-anchor="start" x="447" y="-165.3" font-family="Times,serif" font-size="14.00">0x805b0b8:</text>
<text text-anchor="start" x="447" y="-150.3" font-family="Times,serif" font-size="14.00"> mbedtls_ecp_keypair_free(g3)</text>
<text text-anchor="start" x="447" y="-135.3" font-family="Times,serif" font-size="14.00"> g3 = v1</text>
<text text-anchor="start" x="447" y="-120.3" font-family="Times,serif" font-size="14.00"> g7 = v2</text>
<text text-anchor="start" x="447" y="-105.3" font-family="Times,serif" font-size="14.00"> return result</text>
</g>
<!-- Node0xdad7710&#45;&gt;Node0xdad7920 -->
<g id="edge4" class="edge"><title>Node0xdad7710&#45;&gt;Node0xdad7920</title>
<path fill="none" stroke="black" d="M631.402,-830.44C662.965,-813.811 702,-785.217 702,-745.5 702,-745.5 702,-745.5 702,-303.5 702,-255.851 667.131,-215.506 631.71,-186.814"/>
<polygon fill="black" stroke="black" points="633.705,-183.931 623.679,-180.506 629.382,-189.436 633.705,-183.931"/>
<text text-anchor="middle" x="729" y="-529.8" font-family="Times,serif" font-size="14.00">v3 != 0</text>
</g>
<!-- Node0x7ff5790 -->
<g id="node6" class="node"><title>Node0x7ff5790</title>
<polygon fill="none" stroke="black" points="356.5,-634.5 356.5,-672.5 461.5,-672.5 461.5,-634.5 356.5,-634.5"/>
<text text-anchor="start" x="364.5" y="-657.3" font-family="Times,serif" font-size="14.00">if (v5 == 0):</text>
<text text-anchor="start" x="364.5" y="-642.3" font-family="Times,serif" font-size="14.00"> else:</text>
</g>
<!-- Node0xdad6fb0&#45;&gt;Node0x7ff5790 -->
<g id="edge5" class="edge"><title>Node0xdad6fb0&#45;&gt;Node0x7ff5790</title>
<path fill="none" stroke="black" d="M363.81,-710.36C371.727,-700.574 380.278,-690.003 387.79,-680.718"/>
<polygon fill="black" stroke="black" points="390.513,-682.917 394.082,-672.941 385.071,-678.514 390.513,-682.917"/>
</g>
<!-- Node0x8843200 -->
<g id="node7" class="node"><title>Node0x8843200</title>
<polygon fill="none" stroke="black" points="426,-23.5 426,-59.5 480,-59.5 480,-23.5 426,-23.5"/>
<text text-anchor="start" x="434" y="-37.8" font-family="Times,serif" font-size="14.00">exit:</text>
</g>
<!-- Node0xdad7920&#45;&gt;Node0x8843200 -->
<g id="edge6" class="edge"><title>Node0xdad7920&#45;&gt;Node0x8843200</title>
<path fill="none" stroke="black" d="M513.471,-97.4994C501.801,-86.8856 489.593,-75.7825 479.227,-66.3541"/>
<polygon fill="black" stroke="black" points="481.451,-63.6457 471.698,-59.5064 476.741,-68.8242 481.451,-63.6457"/>
</g>
<!-- Node0x7ff5980 -->
<g id="node8" class="node"><title>Node0x7ff5980</title>
<polygon fill="none" stroke="black" points="286.5,-484.5 286.5,-582.5 531.5,-582.5 531.5,-484.5 286.5,-484.5"/>
<text text-anchor="start" x="294.5" y="-567.3" font-family="Times,serif" font-size="14.00">v6 = (g7 + 136)</text>
<text text-anchor="start" x="294.5" y="-552.3" font-family="Times,serif" font-size="14.00"> g7 = v6</text>
<text text-anchor="start" x="294.5" y="-537.3" font-family="Times,serif" font-size="14.00"> v7 = (g3 + 136)</text>
<text text-anchor="start" x="294.5" y="-522.3" font-family="Times,serif" font-size="14.00"> g1 = v7</text>
<text text-anchor="start" x="294.5" y="-507.3" font-family="Times,serif" font-size="14.00"> v8 = mbedtls_ecp_copy(v7, v6)</text>
<text text-anchor="start" x="294.5" y="-492.3" font-family="Times,serif" font-size="14.00"> g1 = v8</text>
</g>
<!-- Node0x7ff5790&#45;&gt;Node0x7ff5980 -->
<g id="edge7" class="edge"><title>Node0x7ff5790&#45;&gt;Node0x7ff5980</title>
<path fill="none" stroke="black" d="M409,-634.321C409,-623.08 409,-607.962 409,-592.896"/>
<polygon fill="black" stroke="black" points="412.5,-592.523 409,-582.523 405.5,-592.523 412.5,-592.523"/>
<text text-anchor="middle" x="439" y="-604.8" font-family="Times,serif" font-size="14.00">v5 == 0</text>
</g>
<!-- Node0x7ff6100 -->
<g id="node9" class="node"><title>Node0x7ff6100</title>
<polygon fill="none" stroke="black" points="514.5,-429.5 514.5,-465.5 611.5,-465.5 611.5,-429.5 514.5,-429.5"/>
<text text-anchor="start" x="522.5" y="-443.8" font-family="Times,serif" font-size="14.00">result = v5</text>
</g>
<!-- Node0x7ff5790&#45;&gt;Node0x7ff6100 -->
<g id="edge8" class="edge"><title>Node0x7ff5790&#45;&gt;Node0x7ff6100</title>
<path fill="none" stroke="black" d="M461.656,-637.142C489.211,-626.394 521.064,-609.18 540,-583 562.775,-551.512 565.806,-505.151 565.045,-475.907"/>
<polygon fill="black" stroke="black" points="568.528,-475.444 564.601,-465.604 561.535,-475.746 568.528,-475.444"/>
<text text-anchor="middle" x="550" y="-604.8" font-family="Times,serif" font-size="14.00">v5 != 0</text>
</g>
<!-- Node0x7ff56b0 -->
<g id="node10" class="node"><title>Node0x7ff56b0</title>
<polygon fill="none" stroke="black" points="356.5,-374.5 356.5,-410.5 461.5,-410.5 461.5,-374.5 356.5,-374.5"/>
<text text-anchor="start" x="364.5" y="-388.8" font-family="Times,serif" font-size="14.00">if (v8 == 0):</text>
</g>
<!-- Node0x7ff5980&#45;&gt;Node0x7ff56b0 -->
<g id="edge9" class="edge"><title>Node0x7ff5980&#45;&gt;Node0x7ff56b0</title>
<path fill="none" stroke="black" d="M409,-484.275C409,-463.006 409,-438.796 409,-420.73"/>
<polygon fill="black" stroke="black" points="412.5,-420.615 409,-410.615 405.5,-420.615 412.5,-420.615"/>
</g>
<!-- Node0x7ff6100&#45;&gt;Node0xdad7920 -->
<g id="edge10" class="edge"><title>Node0x7ff6100&#45;&gt;Node0xdad7920</title>
<path fill="none" stroke="black" d="M562.717,-429.143C561.979,-383.913 559.975,-261.081 558.831,-190.926"/>
<polygon fill="black" stroke="black" points="562.324,-190.498 558.662,-180.556 555.325,-190.612 562.324,-190.498"/>
</g>
<!-- Node0x7ff61a0 -->
<g id="node11" class="node"><title>Node0x7ff61a0</title>
<polygon fill="none" stroke="black" points="356.5,-199.5 356.5,-267.5 457.5,-267.5 457.5,-199.5 356.5,-199.5"/>
<text text-anchor="start" x="364.5" y="-252.3" font-family="Times,serif" font-size="14.00">0x805b0c6:</text>
<text text-anchor="start" x="364.5" y="-237.3" font-family="Times,serif" font-size="14.00"> g3 = v1</text>
<text text-anchor="start" x="364.5" y="-222.3" font-family="Times,serif" font-size="14.00"> g7 = v2</text>
<text text-anchor="start" x="364.5" y="-207.3" font-family="Times,serif" font-size="14.00"> return 0</text>
</g>
<!-- Node0x7ff56b0&#45;&gt;Node0x7ff61a0 -->
<g id="edge11" class="edge"><title>Node0x7ff56b0&#45;&gt;Node0x7ff61a0</title>
<path fill="none" stroke="black" d="M404.902,-374.266C403.717,-368.495 402.586,-362.002 402,-356 399.473,-330.126 400.534,-301.031 402.316,-277.801"/>
<polygon fill="black" stroke="black" points="405.826,-277.831 403.175,-267.573 398.85,-277.245 405.826,-277.831"/>
<text text-anchor="middle" x="432" y="-344.8" font-family="Times,serif" font-size="14.00">v8 == 0</text>
</g>
<!-- Node0x7ff60a0 -->
<g id="node12" class="node"><title>Node0x7ff60a0</title>
<polygon fill="none" stroke="black" points="438.5,-286.5 438.5,-322.5 535.5,-322.5 535.5,-286.5 438.5,-286.5"/>
<text text-anchor="start" x="446.5" y="-300.8" font-family="Times,serif" font-size="14.00">result = v8</text>
</g>
<!-- Node0x7ff56b0&#45;&gt;Node0x7ff60a0 -->
<g id="edge12" class="edge"><title>Node0x7ff56b0&#45;&gt;Node0x7ff60a0</title>
<path fill="none" stroke="black" d="M444.22,-374.315C452.134,-369.243 459.964,-363.11 466,-356 471.767,-349.207 476.128,-340.609 479.339,-332.441"/>
<polygon fill="black" stroke="black" points="482.698,-333.437 482.702,-322.842 476.092,-331.122 482.698,-333.437"/>
<text text-anchor="middle" x="502" y="-344.8" font-family="Times,serif" font-size="14.00">v8 != 0</text>
</g>
<!-- Node0x7ff61a0&#45;&gt;Node0x8843200 -->
<g id="edge13" class="edge"><title>Node0x7ff61a0&#45;&gt;Node0x8843200</title>
<path fill="none" stroke="black" d="M410.445,-199.44C413.847,-171.704 420.014,-131.246 430,-97 432.716,-87.6876 436.558,-77.828 440.327,-69.0925"/>
<polygon fill="black" stroke="black" points="443.597,-70.3541 444.486,-59.7967 437.207,-67.4953 443.597,-70.3541"/>
</g>
<!-- Node0x7ff60a0&#45;&gt;Node0xdad7920 -->
<g id="edge14" class="edge"><title>Node0x7ff60a0&#45;&gt;Node0xdad7920</title>
<path fill="none" stroke="black" d="M494.464,-286.312C504.283,-263.701 521.957,-223 536.176,-190.256"/>
<polygon fill="black" stroke="black" points="539.502,-191.384 540.275,-180.817 533.081,-188.596 539.502,-191.384"/>
</g>
</g>
</svg>
