<?xml version="1.0" encoding="UTF-8" standalone="no"?>
<!DOCTYPE svg PUBLIC "-//W3C//DTD SVG 1.1//EN"
 "http://www.w3.org/Graphics/SVG/1.1/DTD/svg11.dtd">
<!-- Generated by graphviz version 2.38.0 (20140413.2041)
 -->
<!-- Title: Control&#45;flow graph for function &#39;putReadme(a1, a2, a3)&#39;. Pages: 1 -->
<svg width="532pt" height="507pt"
 viewBox="0.00 0.00 532.00 507.00" xmlns="http://www.w3.org/2000/svg" xmlns:xlink="http://www.w3.org/1999/xlink">
<g id="graph0" class="graph" transform="scale(1 1) rotate(0) translate(4 503)">
<title>Control&#45;flow graph for function &#39;putReadme(a1, a2, a3)&#39;.</title>
<polygon fill="white" stroke="none" points="-4,4 -4,-503 528,-503 528,4 -4,4"/>
<text text-anchor="middle" x="262" y="-7.8" font-family="Times,serif" font-size="14.00">Control&#45;flow graph for function &#39;putReadme(a1, a2, a3)&#39;.</text>
<!-- Node0xbba30f0 -->
<g id="node1" class="node"><title>Node0xbba30f0</title>
<polygon fill="none" stroke="black" points="276.5,-430.5 276.5,-498.5 335.5,-498.5 335.5,-430.5 276.5,-430.5"/>
<text text-anchor="start" x="284.5" y="-483.3" font-family="Times,serif" font-size="14.00">entry:</text>
<text text-anchor="start" x="284.5" y="-468.3" font-family="Times,serif" font-size="14.00"> a1</text>
<text text-anchor="start" x="284.5" y="-453.3" font-family="Times,serif" font-size="14.00"> a2</text>
<text text-anchor="start" x="284.5" y="-438.3" font-family="Times,serif" font-size="14.00"> a3</text>
</g>
<!-- Node0xbba33a0 -->
<g id="node2" class="node"><title>Node0xbba33a0</title>
<polygon fill="none" stroke="black" points="101.5,-354.5 101.5,-392.5 510.5,-392.5 510.5,-354.5 101.5,-354.5"/>
<text text-anchor="start" x="109.5" y="-377.3" font-family="Times,serif" font-size="14.00">stream = fopen64(IntToPtrCastExpr&lt;ptr&gt;(a1), &quot;ab+&quot;)</text>
<text text-anchor="start" x="109.5" y="-362.3" font-family="Times,serif" font-size="14.00"> result</text>
</g>
<!-- Node0xbba30f0&#45;&gt;Node0xbba33a0 -->
<g id="edge1" class="edge"><title>Node0xbba30f0&#45;&gt;Node0xbba33a0</title>
<path fill="none" stroke="black" d="M306,-430.36C306,-421.365 306,-411.707 306,-402.993"/>
<polygon fill="black" stroke="black" points="309.5,-402.941 306,-392.941 302.5,-402.941 309.5,-402.941"/>
</g>
<!-- Node0xbba3400 -->
<g id="node3" class="node"><title>Node0xbba3400</title>
<polygon fill="none" stroke="black" points="222.5,-278.5 222.5,-316.5 389.5,-316.5 389.5,-278.5 222.5,-278.5"/>
<text text-anchor="start" x="230.5" y="-301.3" font-family="Times,serif" font-size="14.00">if (stream != NULL):</text>
<text text-anchor="start" x="230.5" y="-286.3" font-family="Times,serif" font-size="14.00"> else:</text>
</g>
<!-- Node0xbba33a0&#45;&gt;Node0xbba3400 -->
<g id="edge2" class="edge"><title>Node0xbba33a0&#45;&gt;Node0xbba3400</title>
<path fill="none" stroke="black" d="M306,-354.208C306,-345.964 306,-336.038 306,-326.862"/>
<polygon fill="black" stroke="black" points="309.5,-326.582 306,-316.582 302.5,-326.582 309.5,-326.582"/>
</g>
<!-- Node0xbba3590 -->
<g id="node4" class="node"><title>Node0xbba3590</title>
<polygon fill="none" stroke="black" points="0,-173.5 0,-226.5 356,-226.5 356,-173.5 0,-173.5"/>
<text text-anchor="start" x="8" y="-211.3" font-family="Times,serif" font-size="14.00">0x80483ce:</text>
<text text-anchor="start" x="8" y="-196.3" font-family="Times,serif" font-size="14.00"> fputs(BitCastExpr&lt;ptr&gt;(g195), stream)</text>
<text text-anchor="start" x="8" y="-181.3" font-family="Times,serif" font-size="14.00"> result = IntToPtrCastExpr&lt;ptr&gt;(fclose(g195))</text>
</g>
<!-- Node0xbba3400&#45;&gt;Node0xbba3590 -->
<g id="edge3" class="edge"><title>Node0xbba3400&#45;&gt;Node0xbba3590</title>
<path fill="none" stroke="black" d="M281.623,-278.312C264.41,-265.47 240.893,-247.924 220.613,-232.793"/>
<polygon fill="black" stroke="black" points="222.548,-229.87 212.44,-226.695 218.362,-235.481 222.548,-229.87"/>
<text text-anchor="middle" x="314.5" y="-248.8" font-family="Times,serif" font-size="14.00">stream != NULL</text>
</g>
<!-- Node0xbba35f0 -->
<g id="node5" class="node"><title>Node0xbba35f0</title>
<polygon fill="none" stroke="black" points="374.5,-182 374.5,-218 497.5,-218 497.5,-182 374.5,-182"/>
<text text-anchor="start" x="382.5" y="-196.3" font-family="Times,serif" font-size="14.00">result = NULL</text>
</g>
<!-- Node0xbba3400&#45;&gt;Node0xbba35f0 -->
<g id="edge4" class="edge"><title>Node0xbba3400&#45;&gt;Node0xbba35f0</title>
<path fill="none" stroke="black" d="M348.347,-278.364C358.777,-273.09 369.633,-266.875 379,-260 392.434,-250.14 405.494,-236.969 415.717,-225.573"/>
<polygon fill="black" stroke="black" points="418.364,-227.862 422.31,-218.029 413.094,-223.256 418.364,-227.862"/>
<text text-anchor="middle" x="460.5" y="-248.8" font-family="Times,serif" font-size="14.00">stream == NULL</text>
</g>
<!-- Node0xbba3530 -->
<g id="node6" class="node"><title>Node0xbba3530</title>
<polygon fill="none" stroke="black" points="278.5,-97.5 278.5,-135.5 391.5,-135.5 391.5,-97.5 278.5,-97.5"/>
<text text-anchor="start" x="286.5" y="-120.3" font-family="Times,serif" font-size="14.00">0x80483eb:</text>
<text text-anchor="start" x="286.5" y="-105.3" font-family="Times,serif" font-size="14.00"> return result</text>
</g>
<!-- Node0xbba3590&#45;&gt;Node0xbba3530 -->
<g id="edge5" class="edge"><title>Node0xbba3590&#45;&gt;Node0xbba3530</title>
<path fill="none" stroke="black" d="M227.245,-173.437C247.585,-162.878 270.982,-150.732 290.767,-140.462"/>
<polygon fill="black" stroke="black" points="292.606,-143.451 299.868,-135.737 289.38,-137.238 292.606,-143.451"/>
</g>
<!-- Node0xbba35f0&#45;&gt;Node0xbba3530 -->
<g id="edge6" class="edge"><title>Node0xbba35f0&#45;&gt;Node0xbba3530</title>
<path fill="none" stroke="black" d="M414.58,-181.716C400.281,-170.177 381.261,-154.83 365.402,-142.032"/>
<polygon fill="black" stroke="black" points="367.419,-139.162 357.439,-135.606 363.023,-144.61 367.419,-139.162"/>
</g>
<!-- Node0xbba3340 -->
<g id="node7" class="node"><title>Node0xbba3340</title>
<polygon fill="none" stroke="black" points="308,-23.5 308,-59.5 362,-59.5 362,-23.5 308,-23.5"/>
<text text-anchor="start" x="316" y="-37.8" font-family="Times,serif" font-size="14.00">exit:</text>
</g>
<!-- Node0xbba3530&#45;&gt;Node0xbba3340 -->
<g id="edge7" class="edge"><title>Node0xbba3530&#45;&gt;Node0xbba3340</title>
<path fill="none" stroke="black" d="M335,-97.4551C335,-89.2008 335,-79.2377 335,-70.0742"/>
<polygon fill="black" stroke="black" points="338.5,-69.8347 335,-59.8347 331.5,-69.8347 338.5,-69.8347"/>
</g>
</g>
</svg>
