<?xml version="1.0" encoding="UTF-8" standalone="no"?>
<!DOCTYPE svg PUBLIC "-//W3C//DTD SVG 1.1//EN"
 "http://www.w3.org/Graphics/SVG/1.1/DTD/svg11.dtd">
<!-- Generated by graphviz version 2.38.0 (20140413.2041)
 -->
<!-- Title: Control&#45;flow graph for function &#39;eckey_can_do(a1)&#39;. Pages: 1 -->
<svg width="457pt" height="233pt"
 viewBox="0.00 0.00 457.00 233.00" xmlns="http://www.w3.org/2000/svg" xmlns:xlink="http://www.w3.org/1999/xlink">
<g id="graph0" class="graph" transform="scale(1 1) rotate(0) translate(4 229)">
<title>Control&#45;flow graph for function &#39;eckey_can_do(a1)&#39;.</title>
<polygon fill="white" stroke="none" points="-4,4 -4,-229 453,-229 453,4 -4,4"/>
<text text-anchor="middle" x="224.5" y="-7.8" font-family="Times,serif" font-size="14.00">Control&#45;flow graph for function &#39;eckey_can_do(a1)&#39;.</text>
<!-- Node0xf248a90 -->
<g id="node1" class="node"><title>Node0xf248a90</title>
<polygon fill="none" stroke="black" points="195,-186.5 195,-224.5 254,-224.5 254,-186.5 195,-186.5"/>
<text text-anchor="start" x="203" y="-209.3" font-family="Times,serif" font-size="14.00">entry:</text>
<text text-anchor="start" x="203" y="-194.3" font-family="Times,serif" font-size="14.00"> a1</text>
</g>
<!-- Node0xf249110 -->
<g id="node2" class="node"><title>Node0xf249110</title>
<polygon fill="none" stroke="black" points="0,-96.5 0,-149.5 449,-149.5 449,-96.5 0,-96.5"/>
<text text-anchor="start" x="8" y="-134.3" font-family="Times,serif" font-size="14.00">result = BitCastExpr&lt;uint1&gt;(((a1 == 4) | ((a1 &amp; &#45;2) == 2)))</text>
<text text-anchor="start" x="8" y="-119.3" font-family="Times,serif" font-size="14.00"> g1 = result</text>
<text text-anchor="start" x="8" y="-104.3" font-family="Times,serif" font-size="14.00"> return result</text>
</g>
<!-- Node0xf248a90&#45;&gt;Node0xf249110 -->
<g id="edge1" class="edge"><title>Node0xf248a90&#45;&gt;Node0xf249110</title>
<path fill="none" stroke="black" d="M224.5,-186.233C224.5,-178.347 224.5,-168.835 224.5,-159.648"/>
<polygon fill="black" stroke="black" points="228,-159.517 224.5,-149.517 221,-159.517 228,-159.517"/>
</g>
<!-- Node0xf249090 -->
<g id="node3" class="node"><title>Node0xf249090</title>
<polygon fill="none" stroke="black" points="197.5,-23.5 197.5,-59.5 251.5,-59.5 251.5,-23.5 197.5,-23.5"/>
<text text-anchor="start" x="205.5" y="-37.8" font-family="Times,serif" font-size="14.00">exit:</text>
</g>
<!-- Node0xf249110&#45;&gt;Node0xf249090 -->
<g id="edge2" class="edge"><title>Node0xf249110&#45;&gt;Node0xf249090</title>
<path fill="none" stroke="black" d="M224.5,-96.4081C224.5,-87.9823 224.5,-78.5803 224.5,-70.0174"/>
<polygon fill="black" stroke="black" points="228,-69.7564 224.5,-59.7564 221,-69.7565 228,-69.7564"/>
</g>
</g>
</svg>
