<?xml version="1.0" encoding="UTF-8" standalone="no"?>
<!DOCTYPE svg PUBLIC "-//W3C//DTD SVG 1.1//EN"
 "http://www.w3.org/Graphics/SVG/1.1/DTD/svg11.dtd">
<!-- Generated by graphviz version 2.38.0 (20140413.2041)
 -->
<!-- Title: Control&#45;flow graph for function &#39;mbedtls_ctr_drbg_set_reseed_interval(result, a2)&#39;. Pages: 1 -->
<svg width="618pt" height="248pt"
 viewBox="0.00 0.00 618.00 248.00" xmlns="http://www.w3.org/2000/svg" xmlns:xlink="http://www.w3.org/1999/xlink">
<g id="graph0" class="graph" transform="scale(1 1) rotate(0) translate(4 244)">
<title>Control&#45;flow graph for function &#39;mbedtls_ctr_drbg_set_reseed_interval(result, a2)&#39;.</title>
<polygon fill="white" stroke="none" points="-4,4 -4,-244 614,-244 614,4 -4,4"/>
<text text-anchor="middle" x="305" y="-7.8" font-family="Times,serif" font-size="14.00">Control&#45;flow graph for function &#39;mbedtls_ctr_drbg_set_reseed_interval(result, a2)&#39;.</text>
<!-- Node0x1d8891c0 -->
<g id="node1" class="node"><title>Node0x1d8891c0</title>
<polygon fill="none" stroke="black" points="273.5,-186.5 273.5,-239.5 336.5,-239.5 336.5,-186.5 273.5,-186.5"/>
<text text-anchor="start" x="281.5" y="-224.3" font-family="Times,serif" font-size="14.00">entry:</text>
<text text-anchor="start" x="281.5" y="-209.3" font-family="Times,serif" font-size="14.00"> result</text>
<text text-anchor="start" x="281.5" y="-194.3" font-family="Times,serif" font-size="14.00"> a2</text>
</g>
<!-- Node0x16531900 -->
<g id="node2" class="node"><title>Node0x16531900</title>
<polygon fill="none" stroke="black" points="128.5,-96.5 128.5,-149.5 481.5,-149.5 481.5,-96.5 128.5,-96.5"/>
<text text-anchor="start" x="136.5" y="-134.3" font-family="Times,serif" font-size="14.00">0x804b810:</text>
<text text-anchor="start" x="136.5" y="-119.3" font-family="Times,serif" font-size="14.00"> *(IntToPtrCastExpr&lt;ptr&gt;((result + 28))) = a2</text>
<text text-anchor="start" x="136.5" y="-104.3" font-family="Times,serif" font-size="14.00"> return result</text>
</g>
<!-- Node0x1d8891c0&#45;&gt;Node0x16531900 -->
<g id="edge1" class="edge"><title>Node0x1d8891c0&#45;&gt;Node0x16531900</title>
<path fill="none" stroke="black" d="M305,-186.073C305,-177.838 305,-168.58 305,-159.777"/>
<polygon fill="black" stroke="black" points="308.5,-159.742 305,-149.742 301.5,-159.742 308.5,-159.742"/>
</g>
<!-- Node0xf855290 -->
<g id="node3" class="node"><title>Node0xf855290</title>
<polygon fill="none" stroke="black" points="278,-23.5 278,-59.5 332,-59.5 332,-23.5 278,-23.5"/>
<text text-anchor="start" x="286" y="-37.8" font-family="Times,serif" font-size="14.00">exit:</text>
</g>
<!-- Node0x16531900&#45;&gt;Node0xf855290 -->
<g id="edge2" class="edge"><title>Node0x16531900&#45;&gt;Node0xf855290</title>
<path fill="none" stroke="black" d="M305,-96.4081C305,-87.9823 305,-78.5803 305,-70.0174"/>
<polygon fill="black" stroke="black" points="308.5,-69.7564 305,-59.7564 301.5,-69.7565 308.5,-69.7564"/>
</g>
</g>
</svg>
