<?xml version="1.0" encoding="UTF-8" standalone="no"?>
<!DOCTYPE svg PUBLIC "-//W3C//DTD SVG 1.1//EN"
 "http://www.w3.org/Graphics/SVG/1.1/DTD/svg11.dtd">
<!-- Generated by graphviz version 2.38.0 (20140413.2041)
 -->
<!-- Title: Control&#45;flow graph for function &#39;pem_aes_decrypt(a1, a2, a3, a4, a5, a6)&#39;. Pages: 1 -->
<svg width="730pt" height="1171pt"
 viewBox="0.00 0.00 730.00 1171.00" xmlns="http://www.w3.org/2000/svg" xmlns:xlink="http://www.w3.org/1999/xlink">
<g id="graph0" class="graph" transform="scale(1 1) rotate(0) translate(4 1167)">
<title>Control&#45;flow graph for function &#39;pem_aes_decrypt(a1, a2, a3, a4, a5, a6)&#39;.</title>
<polygon fill="white" stroke="none" points="-4,4 -4,-1167 726,-1167 726,4 -4,4"/>
<text text-anchor="middle" x="361" y="-7.8" font-family="Times,serif" font-size="14.00">Control&#45;flow graph for function &#39;pem_aes_decrypt(a1, a2, a3, a4, a5, a6)&#39;.</text>
<!-- Node0x19da7610 -->
<g id="node1" class="node"><title>Node0x19da7610</title>
<polygon fill="none" stroke="black" points="319,-1049.5 319,-1162.5 378,-1162.5 378,-1049.5 319,-1049.5"/>
<text text-anchor="start" x="327" y="-1147.3" font-family="Times,serif" font-size="14.00">entry:</text>
<text text-anchor="start" x="327" y="-1132.3" font-family="Times,serif" font-size="14.00"> a1</text>
<text text-anchor="start" x="327" y="-1117.3" font-family="Times,serif" font-size="14.00"> a2</text>
<text text-anchor="start" x="327" y="-1102.3" font-family="Times,serif" font-size="14.00"> a3</text>
<text text-anchor="start" x="327" y="-1087.3" font-family="Times,serif" font-size="14.00"> a4</text>
<text text-anchor="start" x="327" y="-1072.3" font-family="Times,serif" font-size="14.00"> a5</text>
<text text-anchor="start" x="327" y="-1057.3" font-family="Times,serif" font-size="14.00"> a6</text>
</g>
<!-- Node0x19da53f0 -->
<g id="node2" class="node"><title>Node0x19da53f0</title>
<polygon fill="none" stroke="black" points="0,-643.5 0,-1011.5 697,-1011.5 697,-643.5 0,-643.5"/>
<text text-anchor="start" x="8" y="-996.3" font-family="Times,serif" font-size="14.00">v1 = g5</text>
<text text-anchor="start" x="8" y="-981.3" font-family="Times,serif" font-size="14.00"> v2 = g7</text>
<text text-anchor="start" x="8" y="-966.3" font-family="Times,serif" font-size="14.00"> v3 = g3</text>
<text text-anchor="start" x="8" y="-951.3" font-family="Times,serif" font-size="14.00"> g3 = g6</text>
<text text-anchor="start" x="8" y="-936.3" font-family="Times,serif" font-size="14.00"> v4</text>
<text text-anchor="start" x="8" y="-921.3" font-family="Times,serif" font-size="14.00"> g7 = &amp;(v4)</text>
<text text-anchor="start" x="8" y="-906.3" font-family="Times,serif" font-size="14.00"> v5 = g1</text>
<text text-anchor="start" x="8" y="-891.3" font-family="Times,serif" font-size="14.00"> v6</text>
<text text-anchor="start" x="8" y="-876.3" font-family="Times,serif" font-size="14.00"> v7 = &amp;(v6)</text>
<text text-anchor="start" x="8" y="-861.3" font-family="Times,serif" font-size="14.00"> g5 = v7</text>
<text text-anchor="start" x="8" y="-846.3" font-family="Times,serif" font-size="14.00"> v8 = g4</text>
<text text-anchor="start" x="8" y="-831.3" font-family="Times,serif" font-size="14.00"> mbedtls_aes_init(BitCastExpr&lt;ptr&gt;(&amp;(v4)))</text>
<text text-anchor="start" x="8" y="-816.3" font-family="Times,serif" font-size="14.00"> g6 = g3</text>
<text text-anchor="start" x="8" y="-801.3" font-family="Times,serif" font-size="14.00"> g4 = v5</text>
<text text-anchor="start" x="8" y="-786.3" font-family="Times,serif" font-size="14.00"> g1 = v7</text>
<text text-anchor="start" x="8" y="-771.3" font-family="Times,serif" font-size="14.00"> v9</text>
<text text-anchor="start" x="8" y="-756.3" font-family="Times,serif" font-size="14.00"> v10</text>
<text text-anchor="start" x="8" y="-741.3" font-family="Times,serif" font-size="14.00"> v11</text>
<text text-anchor="start" x="8" y="-726.3" font-family="Times,serif" font-size="14.00"> pem_pbkdf1(IntToPtrCastExpr&lt;ptr&gt;(a2), a3, v11, v10, v9)</text>
<text text-anchor="start" x="8" y="-711.3" font-family="Times,serif" font-size="14.00"> mbedtls_aes_setkey_dec(IntToPtrCastExpr&lt;ptr&gt;(g7), g5, (8 * g3))</text>
<text text-anchor="start" x="8" y="-696.3" font-family="Times,serif" font-size="14.00"> mbedtls_aes_crypt_cbc(g7, 0, TruncCastExpr&lt;int8&gt;(a1), IntToPtrCastExpr&lt;ptr&gt;(v5), v8, v8)</text>
<text text-anchor="start" x="8" y="-681.3" font-family="Times,serif" font-size="14.00"> result = mbedtls_aes_free(IntToPtrCastExpr&lt;ptr&gt;(g7))</text>
<text text-anchor="start" x="8" y="-666.3" font-family="Times,serif" font-size="14.00"> g1 = result</text>
<text text-anchor="start" x="8" y="-651.3" font-family="Times,serif" font-size="14.00"> v12</text>
</g>
<!-- Node0x19da7610&#45;&gt;Node0x19da53f0 -->
<g id="edge1" class="edge"><title>Node0x19da7610&#45;&gt;Node0x19da53f0</title>
<path fill="none" stroke="black" d="M348.5,-1049.38C348.5,-1040.78 348.5,-1031.5 348.5,-1021.79"/>
<polygon fill="black" stroke="black" points="352,-1021.52 348.5,-1011.52 345,-1021.52 352,-1021.52"/>
</g>
<!-- Node0x19da5220 -->
<g id="node3" class="node"><title>Node0x19da5220</title>
<polygon fill="none" stroke="black" points="295.5,-569.5 295.5,-605.5 401.5,-605.5 401.5,-569.5 295.5,-569.5"/>
<text text-anchor="start" x="303.5" y="-583.8" font-family="Times,serif" font-size="14.00">if (g3 == 0):</text>
</g>
<!-- Node0x19da53f0&#45;&gt;Node0x19da5220 -->
<g id="edge2" class="edge"><title>Node0x19da53f0&#45;&gt;Node0x19da5220</title>
<path fill="none" stroke="black" d="M348.5,-643.401C348.5,-633.268 348.5,-624.019 348.5,-616.119"/>
<polygon fill="black" stroke="black" points="352,-615.898 348.5,-605.898 345,-615.898 352,-615.898"/>
</g>
<!-- Node0xe4e9480 -->
<g id="node4" class="node"><title>Node0xe4e9480</title>
<polygon fill="none" stroke="black" points="227,-302.5 227,-400.5 340,-400.5 340,-302.5 227,-302.5"/>
<text text-anchor="start" x="235" y="-385.3" font-family="Times,serif" font-size="14.00">0x8063a6b:</text>
<text text-anchor="start" x="235" y="-370.3" font-family="Times,serif" font-size="14.00"> g3 = v3</text>
<text text-anchor="start" x="235" y="-355.3" font-family="Times,serif" font-size="14.00"> g7 = v2</text>
<text text-anchor="start" x="235" y="-340.3" font-family="Times,serif" font-size="14.00"> g5 = v1</text>
<text text-anchor="start" x="235" y="-325.3" font-family="Times,serif" font-size="14.00"> g2 = v12</text>
<text text-anchor="start" x="235" y="-310.3" font-family="Times,serif" font-size="14.00"> return result</text>
</g>
<!-- Node0x19da5220&#45;&gt;Node0xe4e9480 -->
<g id="edge3" class="edge"><title>Node0x19da5220&#45;&gt;Node0xe4e9480</title>
<path fill="none" stroke="black" d="M338.082,-569.233C334.988,-563.571 331.812,-557.151 329.5,-551 312.288,-505.211 300.248,-450.972 292.816,-410.771"/>
<polygon fill="black" stroke="black" points="296.249,-410.085 291.025,-400.867 289.36,-411.33 296.249,-410.085"/>
<text text-anchor="middle" x="360" y="-539.8" font-family="Times,serif" font-size="14.00">g3 == 0</text>
</g>
<!-- Node0x1a4d21c0 -->
<g id="node5" class="node"><title>Node0x1a4d21c0</title>
<polygon fill="none" stroke="black" points="354,-419.5 354,-517.5 625,-517.5 625,-419.5 354,-419.5"/>
<text text-anchor="start" x="362" y="-502.3" font-family="Times,serif" font-size="14.00">0x8063a60:</text>
<text text-anchor="start" x="362" y="-487.3" font-family="Times,serif" font-size="14.00"> *(IntToPtrCastExpr&lt;ptr&gt;(g5)) = 0</text>
<text text-anchor="start" x="362" y="-472.3" font-family="Times,serif" font-size="14.00"> v13 = (g5 + 1)</text>
<text text-anchor="start" x="362" y="-457.3" font-family="Times,serif" font-size="14.00"> g5 = v13</text>
<text text-anchor="start" x="362" y="-442.3" font-family="Times,serif" font-size="14.00"> v14 = (g3 &#45; 1)</text>
<text text-anchor="start" x="362" y="-427.3" font-family="Times,serif" font-size="14.00"> g3 = v14</text>
</g>
<!-- Node0x19da5220&#45;&gt;Node0x1a4d21c0 -->
<g id="edge4" class="edge"><title>Node0x19da5220&#45;&gt;Node0x1a4d21c0</title>
<path fill="none" stroke="black" d="M369.003,-569.487C383.5,-557.458 403.808,-540.606 423.627,-524.161"/>
<polygon fill="black" stroke="black" points="426.018,-526.725 431.478,-517.646 421.548,-521.338 426.018,-526.725"/>
<text text-anchor="middle" x="434" y="-539.8" font-family="Times,serif" font-size="14.00">g3 != 0</text>
</g>
<!-- Node0x14436e30 -->
<g id="node6" class="node"><title>Node0x14436e30</title>
<polygon fill="none" stroke="black" points="357.5,-23.5 357.5,-59.5 411.5,-59.5 411.5,-23.5 357.5,-23.5"/>
<text text-anchor="start" x="365.5" y="-37.8" font-family="Times,serif" font-size="14.00">exit:</text>
</g>
<!-- Node0xe4e9480&#45;&gt;Node0x14436e30 -->
<g id="edge5" class="edge"><title>Node0xe4e9480&#45;&gt;Node0x14436e30</title>
<path fill="none" stroke="black" d="M275.233,-302.466C268.51,-248.577 265.383,-160.42 302.5,-97 312.845,-79.3243 331.468,-66.256 348.354,-57.3541"/>
<polygon fill="black" stroke="black" points="350.081,-60.4047 357.494,-52.8344 346.978,-54.13 350.081,-60.4047"/>
</g>
<!-- Node0x19da7ad0 -->
<g id="node7" class="node"><title>Node0x19da7ad0</title>
<polygon fill="none" stroke="black" points="422,-247.5 422,-283.5 559,-283.5 559,-247.5 422,-247.5"/>
<text text-anchor="start" x="430" y="-261.8" font-family="Times,serif" font-size="14.00">while (v14 != 0):</text>
</g>
<!-- Node0x1a4d21c0&#45;&gt;Node0x19da7ad0 -->
<g id="edge6" class="edge"><title>Node0x1a4d21c0&#45;&gt;Node0x19da7ad0</title>
<path fill="none" stroke="black" d="M489.74,-419.355C489.935,-380.122 490.203,-326.119 490.364,-293.915"/>
<polygon fill="black" stroke="black" points="493.864,-293.899 490.414,-283.882 486.864,-293.864 493.864,-293.899"/>
</g>
<!-- Node0x19da7d30 -->
<g id="node8" class="node"><title>Node0x19da7d30</title>
<polygon fill="none" stroke="black" points="312,-97.5 312,-195.5 591,-195.5 591,-97.5 312,-97.5"/>
<text text-anchor="start" x="320" y="-180.3" font-family="Times,serif" font-size="14.00">0x8063a60:</text>
<text text-anchor="start" x="320" y="-165.3" font-family="Times,serif" font-size="14.00"> *(IntToPtrCastExpr&lt;ptr&gt;(v13)) = 0</text>
<text text-anchor="start" x="320" y="-150.3" font-family="Times,serif" font-size="14.00"> v13 = (g5 + 1)</text>
<text text-anchor="start" x="320" y="-135.3" font-family="Times,serif" font-size="14.00"> g5 = v13</text>
<text text-anchor="start" x="320" y="-120.3" font-family="Times,serif" font-size="14.00"> v14 = (g3 &#45; 1)</text>
<text text-anchor="start" x="320" y="-105.3" font-family="Times,serif" font-size="14.00"> g3 = v14</text>
</g>
<!-- Node0x19da7ad0&#45;&gt;Node0x19da7d30 -->
<g id="edge7" class="edge"><title>Node0x19da7ad0&#45;&gt;Node0x19da7d30</title>
<path fill="none" stroke="black" d="M433.339,-247.481C425.474,-242.732 418.42,-236.687 413.5,-229 408.721,-221.534 407.931,-213.371 409.596,-205.186"/>
<polygon fill="black" stroke="black" points="412.947,-206.198 412.587,-195.61 406.265,-204.112 412.947,-206.198"/>
<text text-anchor="middle" x="445" y="-217.8" font-family="Times,serif" font-size="14.00">v14 != 0</text>
</g>
<!-- Node0xe4e92d0 -->
<g id="node9" class="node"><title>Node0xe4e92d0</title>
<polygon fill="none" stroke="black" points="609,-97.5 609,-195.5 722,-195.5 722,-97.5 609,-97.5"/>
<text text-anchor="start" x="617" y="-180.3" font-family="Times,serif" font-size="14.00">0x8063a6b:</text>
<text text-anchor="start" x="617" y="-165.3" font-family="Times,serif" font-size="14.00"> g3 = v3</text>
<text text-anchor="start" x="617" y="-150.3" font-family="Times,serif" font-size="14.00"> g7 = v2</text>
<text text-anchor="start" x="617" y="-135.3" font-family="Times,serif" font-size="14.00"> g5 = v1</text>
<text text-anchor="start" x="617" y="-120.3" font-family="Times,serif" font-size="14.00"> g2 = v12</text>
<text text-anchor="start" x="617" y="-105.3" font-family="Times,serif" font-size="14.00"> return result</text>
</g>
<!-- Node0x19da7ad0&#45;&gt;Node0xe4e92d0 -->
<g id="edge8" class="edge"><title>Node0x19da7ad0&#45;&gt;Node0xe4e92d0</title>
<path fill="none" stroke="black" d="M519.412,-247.407C541.847,-233.926 573.558,-214.392 600.5,-196 600.587,-195.94 600.674,-195.881 600.762,-195.821"/>
<polygon fill="black" stroke="black" points="602.769,-198.688 608.983,-190.107 598.774,-192.94 602.769,-198.688"/>
<text text-anchor="middle" x="605" y="-217.8" font-family="Times,serif" font-size="14.00">v14 == 0</text>
</g>
<!-- Node0x19da7d30&#45;&gt;Node0x19da7ad0 -->
<g id="edge9" class="edge"><title>Node0x19da7d30&#45;&gt;Node0x19da7ad0</title>
<path fill="none" stroke="black" d="M470.169,-195.628C472.386,-201.782 474.551,-208.019 476.5,-214 478.942,-221.493 481.334,-229.698 483.431,-237.274"/>
<polygon fill="black" stroke="black" points="480.096,-238.35 486.084,-247.09 486.853,-236.523 480.096,-238.35"/>
</g>
<!-- Node0xe4e92d0&#45;&gt;Node0x14436e30 -->
<g id="edge10" class="edge"><title>Node0xe4e92d0&#45;&gt;Node0x14436e30</title>
<path fill="none" stroke="black" d="M608.869,-101.349C606.094,-99.7911 603.297,-98.3308 600.5,-97 541.333,-68.8487 465.878,-54.0888 421.606,-47.3249"/>
<polygon fill="black" stroke="black" points="421.987,-43.8434 411.584,-45.8496 420.968,-50.7688 421.987,-43.8434"/>
</g>
</g>
</svg>
