<?xml version="1.0" encoding="UTF-8" standalone="no"?>
<!DOCTYPE svg PUBLIC "-//W3C//DTD SVG 1.1//EN"
 "http://www.w3.org/Graphics/SVG/1.1/DTD/svg11.dtd">
<!-- Generated by graphviz version 2.38.0 (20140413.2041)
 -->
<!-- Title: Control&#45;flow graph for function &#39;mbedtls_ctr_drbg_random(a1, a2, a3)&#39;. Pages: 1 -->
<svg width="685pt" height="293pt"
 viewBox="0.00 0.00 685.00 293.00" xmlns="http://www.w3.org/2000/svg" xmlns:xlink="http://www.w3.org/1999/xlink">
<g id="graph0" class="graph" transform="scale(1 1) rotate(0) translate(4 289)">
<title>Control&#45;flow graph for function &#39;mbedtls_ctr_drbg_random(a1, a2, a3)&#39;.</title>
<polygon fill="white" stroke="none" points="-4,4 -4,-289 681,-289 681,4 -4,4"/>
<text text-anchor="middle" x="338.5" y="-7.8" font-family="Times,serif" font-size="14.00">Control&#45;flow graph for function &#39;mbedtls_ctr_drbg_random(a1, a2, a3)&#39;.</text>
<!-- Node0x18b3d430 -->
<g id="node1" class="node"><title>Node0x18b3d430</title>
<polygon fill="none" stroke="black" points="309,-216.5 309,-284.5 368,-284.5 368,-216.5 309,-216.5"/>
<text text-anchor="start" x="317" y="-269.3" font-family="Times,serif" font-size="14.00">entry:</text>
<text text-anchor="start" x="317" y="-254.3" font-family="Times,serif" font-size="14.00"> a1</text>
<text text-anchor="start" x="317" y="-239.3" font-family="Times,serif" font-size="14.00"> a2</text>
<text text-anchor="start" x="317" y="-224.3" font-family="Times,serif" font-size="14.00"> a3</text>
</g>
<!-- Node0x18b3fe50 -->
<g id="node2" class="node"><title>Node0x18b3fe50</title>
<polygon fill="none" stroke="black" points="-5.68434e-14,-96.5 -5.68434e-14,-179.5 677,-179.5 677,-96.5 -5.68434e-14,-96.5"/>
<text text-anchor="start" x="8" y="-164.3" font-family="Times,serif" font-size="14.00">result = mbedtls_ctr_drbg_random_with_add(IntToPtrCastExpr&lt;ptr&gt;(a1), a2, a3, NULL, 0)</text>
<text text-anchor="start" x="8" y="-149.3" font-family="Times,serif" font-size="14.00"> g1 = result</text>
<text text-anchor="start" x="8" y="-134.3" font-family="Times,serif" font-size="14.00"> v1</text>
<text text-anchor="start" x="8" y="-119.3" font-family="Times,serif" font-size="14.00"> g2 = v1</text>
<text text-anchor="start" x="8" y="-104.3" font-family="Times,serif" font-size="14.00"> return result</text>
</g>
<!-- Node0x18b3d430&#45;&gt;Node0x18b3fe50 -->
<g id="edge1" class="edge"><title>Node0x18b3d430&#45;&gt;Node0x18b3fe50</title>
<path fill="none" stroke="black" d="M338.5,-216.346C338.5,-207.94 338.5,-198.717 338.5,-189.659"/>
<polygon fill="black" stroke="black" points="342,-189.555 338.5,-179.555 335,-189.555 342,-189.555"/>
</g>
<!-- Node0x18b3d310 -->
<g id="node3" class="node"><title>Node0x18b3d310</title>
<polygon fill="none" stroke="black" points="311.5,-23.5 311.5,-59.5 365.5,-59.5 365.5,-23.5 311.5,-23.5"/>
<text text-anchor="start" x="319.5" y="-37.8" font-family="Times,serif" font-size="14.00">exit:</text>
</g>
<!-- Node0x18b3fe50&#45;&gt;Node0x18b3d310 -->
<g id="edge2" class="edge"><title>Node0x18b3fe50&#45;&gt;Node0x18b3d310</title>
<path fill="none" stroke="black" d="M338.5,-96.3751C338.5,-87.4706 338.5,-78.246 338.5,-70"/>
<polygon fill="black" stroke="black" points="342,-69.8327 338.5,-59.8328 335,-69.8328 342,-69.8327"/>
</g>
</g>
</svg>
