<?xml version="1.0" encoding="UTF-8" standalone="no"?>
<!DOCTYPE svg PUBLIC "-//W3C//DTD SVG 1.1//EN"
 "http://www.w3.org/Graphics/SVG/1.1/DTD/svg11.dtd">
<!-- Generated by graphviz version 2.38.0 (20140413.2041)
 -->
<!-- Title: Control&#45;flow graph for function &#39;mbedtls_oid_get_oid_by_md(a1, *a2, *a3, a4)&#39;. Pages: 1 -->
<svg width="1114pt" height="1001pt"
 viewBox="0.00 0.00 1114.36 1001.00" xmlns="http://www.w3.org/2000/svg" xmlns:xlink="http://www.w3.org/1999/xlink">
<g id="graph0" class="graph" transform="scale(1 1) rotate(0) translate(4 997)">
<title>Control&#45;flow graph for function &#39;mbedtls_oid_get_oid_by_md(a1, *a2, *a3, a4)&#39;.</title>
<polygon fill="white" stroke="none" points="-4,4 -4,-997 1110.36,-997 1110.36,4 -4,4"/>
<text text-anchor="middle" x="553.182" y="-7.8" font-family="Times,serif" font-size="14.00">Control&#45;flow graph for function &#39;mbedtls_oid_get_oid_by_md(a1, *a2, *a3, a4)&#39;.</text>
<!-- Node0x9c74b80 -->
<g id="node1" class="node"><title>Node0x9c74b80</title>
<polygon fill="none" stroke="black" points="356.5,-909.5 356.5,-992.5 415.5,-992.5 415.5,-909.5 356.5,-909.5"/>
<text text-anchor="start" x="364.5" y="-977.3" font-family="Times,serif" font-size="14.00">entry:</text>
<text text-anchor="start" x="364.5" y="-962.3" font-family="Times,serif" font-size="14.00"> a1</text>
<text text-anchor="start" x="364.5" y="-947.3" font-family="Times,serif" font-size="14.00"> a2</text>
<text text-anchor="start" x="364.5" y="-932.3" font-family="Times,serif" font-size="14.00"> a3</text>
<text text-anchor="start" x="364.5" y="-917.3" font-family="Times,serif" font-size="14.00"> a4</text>
</g>
<!-- Node0x9c75a60 -->
<g id="node2" class="node"><title>Node0x9c75a60</title>
<polygon fill="none" stroke="black" points="331,-833.5 331,-871.5 441,-871.5 441,-833.5 331,-833.5"/>
<text text-anchor="start" x="339" y="-856.3" font-family="Times,serif" font-size="14.00">0x8063000:</text>
<text text-anchor="start" x="339" y="-841.3" font-family="Times,serif" font-size="14.00"> if (a1 == 1):</text>
</g>
<!-- Node0x9c74b80&#45;&gt;Node0x9c75a60 -->
<g id="edge1" class="edge"><title>Node0x9c74b80&#45;&gt;Node0x9c75a60</title>
<path fill="none" stroke="black" d="M386,-909.355C386,-900.083 386,-890.427 386,-881.803"/>
<polygon fill="black" stroke="black" points="389.5,-881.538 386,-871.538 382.5,-881.538 389.5,-881.538"/>
</g>
<!-- Node0x9c755d0 -->
<g id="node3" class="node"><title>Node0x9c755d0</title>
<polygon fill="none" stroke="black" points="0,-641.5 0,-709.5 578,-709.5 578,-641.5 0,-641.5"/>
<text text-anchor="start" x="8" y="-694.3" font-family="Times,serif" font-size="14.00">0x8063028:</text>
<text text-anchor="start" x="8" y="-679.3" font-family="Times,serif" font-size="14.00"> *(a2) = PtrToIntCastExpr&lt;int32&gt;(&amp;(g105))</text>
<text text-anchor="start" x="8" y="-664.3" font-family="Times,serif" font-size="14.00"> *(a3) = *(IntToPtrCastExpr&lt;ptr&gt;((PtrToIntCastExpr&lt;int32&gt;(&amp;(g111)) + 4)))</text>
<text text-anchor="start" x="8" y="-649.3" font-family="Times,serif" font-size="14.00"> return 0</text>
</g>
<!-- Node0x9c75a60&#45;&gt;Node0x9c755d0 -->
<g id="edge2" class="edge"><title>Node0x9c75a60&#45;&gt;Node0x9c755d0</title>
<path fill="none" stroke="black" d="M375.985,-833.431C361.08,-806.542 332.644,-755.239 312.341,-718.61"/>
<polygon fill="black" stroke="black" points="315.277,-716.687 307.368,-709.638 309.155,-720.081 315.277,-716.687"/>
<text text-anchor="middle" x="396" y="-803.8" font-family="Times,serif" font-size="14.00">a1 == 1</text>
</g>
<!-- Node0x9c75ca0 -->
<g id="node4" class="node"><title>Node0x9c75ca0</title>
<polygon fill="none" stroke="black" points="406,-728.5 406,-781.5 720,-781.5 720,-728.5 406,-728.5"/>
<text text-anchor="start" x="414" y="-766.3" font-family="Times,serif" font-size="14.00">v1 = PtrToIntCastExpr&lt;int32&gt;(&amp;(g111))</text>
<text text-anchor="start" x="414" y="-751.3" font-family="Times,serif" font-size="14.00"> v2</text>
<text text-anchor="start" x="414" y="-736.3" font-family="Times,serif" font-size="14.00"> v3</text>
</g>
<!-- Node0x9c75a60&#45;&gt;Node0x9c75ca0 -->
<g id="edge3" class="edge"><title>Node0x9c75a60&#45;&gt;Node0x9c75ca0</title>
<path fill="none" stroke="black" d="M419.709,-833.312C444.236,-820.079 478.021,-801.85 506.625,-786.417"/>
<polygon fill="black" stroke="black" points="508.573,-789.343 515.712,-781.514 505.249,-783.183 508.573,-789.343"/>
<text text-anchor="middle" x="507" y="-803.8" font-family="Times,serif" font-size="14.00">a1 != 1</text>
</g>
<!-- Node0x9c759b0 -->
<g id="node5" class="node"><title>Node0x9c759b0</title>
<polygon fill="none" stroke="black" points="300,-23.5 300,-59.5 354,-59.5 354,-23.5 300,-23.5"/>
<text text-anchor="start" x="308" y="-37.8" font-family="Times,serif" font-size="14.00">exit:</text>
</g>
<!-- Node0x9c755d0&#45;&gt;Node0x9c759b0 -->
<g id="edge4" class="edge"><title>Node0x9c755d0&#45;&gt;Node0x9c759b0</title>
<path fill="none" stroke="black" d="M289,-641.372C289,-618.849 289,-588.377 289,-561.5 289,-561.5 289,-561.5 289,-130.5 289,-108.315 299.305,-85.3717 309.182,-68.4761"/>
<polygon fill="black" stroke="black" points="312.29,-70.1044 314.557,-59.755 306.331,-66.4315 312.29,-70.1044"/>
</g>
<!-- Node0x9c75d50 -->
<g id="node6" class="node"><title>Node0x9c75d50</title>
<polygon fill="none" stroke="black" points="544.5,-586.5 544.5,-622.5 641.5,-622.5 641.5,-586.5 544.5,-586.5"/>
<text text-anchor="start" x="552.5" y="-600.8" font-family="Times,serif" font-size="14.00">while True:</text>
</g>
<!-- Node0x9c75ca0&#45;&gt;Node0x9c75d50 -->
<g id="edge5" class="edge"><title>Node0x9c75ca0&#45;&gt;Node0x9c75d50</title>
<path fill="none" stroke="black" d="M573.42,-728.229C575.517,-722.314 577.526,-715.999 579,-710 585.324,-684.267 588.972,-654.221 590.949,-632.968"/>
<polygon fill="black" stroke="black" points="594.46,-632.99 591.836,-622.725 587.486,-632.386 594.46,-632.99"/>
</g>
<!-- Node0x9c764d0 -->
<g id="node7" class="node"><title>Node0x9c764d0</title>
<polygon fill="none" stroke="black" points="440,-481.5 440,-534.5 718,-534.5 718,-481.5 440,-481.5"/>
<text text-anchor="start" x="448" y="-519.3" font-family="Times,serif" font-size="14.00">v4 = (v1 + 20)</text>
<text text-anchor="start" x="448" y="-504.3" font-family="Times,serif" font-size="14.00"> v2 = v4</text>
<text text-anchor="start" x="448" y="-489.3" font-family="Times,serif" font-size="14.00"> v3 = *(IntToPtrCastExpr&lt;ptr&gt;(v4))</text>
</g>
<!-- Node0x9c75d50&#45;&gt;Node0x9c764d0 -->
<g id="edge6" class="edge"><title>Node0x9c75d50&#45;&gt;Node0x9c764d0</title>
<path fill="none" stroke="black" d="M590.432,-586.167C588.717,-574.59 586.399,-558.943 584.299,-544.765"/>
<polygon fill="black" stroke="black" points="587.747,-544.159 582.819,-534.78 580.823,-545.185 587.747,-544.159"/>
<text text-anchor="middle" x="605" y="-556.8" font-family="Times,serif" font-size="14.00">True</text>
</g>
<!-- Node0x9c76630 -->
<g id="node8" class="node"><title>Node0x9c76630</title>
<polygon fill="none" stroke="black" points="517.5,-407.5 517.5,-443.5 622.5,-443.5 622.5,-407.5 517.5,-407.5"/>
<text text-anchor="start" x="525.5" y="-421.8" font-family="Times,serif" font-size="14.00">if (v3 == 0):</text>
</g>
<!-- Node0x9c764d0&#45;&gt;Node0x9c76630 -->
<g id="edge7" class="edge"><title>Node0x9c764d0&#45;&gt;Node0x9c76630</title>
<path fill="none" stroke="black" d="M576.103,-481.086C575.138,-472.46 574.061,-462.822 573.083,-454.075"/>
<polygon fill="black" stroke="black" points="576.543,-453.523 571.954,-443.974 569.586,-454.3 576.543,-453.523"/>
</g>
<!-- Node0x15aea930 -->
<g id="node9" class="node"><title>Node0x15aea930</title>
<polygon fill="none" stroke="black" points="304.5,-260.5 304.5,-298.5 405.5,-298.5 405.5,-260.5 304.5,-260.5"/>
<text text-anchor="start" x="312.5" y="-283.3" font-family="Times,serif" font-size="14.00">0x806301e:</text>
<text text-anchor="start" x="312.5" y="-268.3" font-family="Times,serif" font-size="14.00"> return &#45;46</text>
</g>
<!-- Node0x9c76630&#45;&gt;Node0x15aea930 -->
<g id="edge8" class="edge"><title>Node0x9c76630&#45;&gt;Node0x15aea930</title>
<path fill="none" stroke="black" d="M517.444,-419.274C473.697,-412.165 412.816,-395.415 376,-356 364.153,-343.317 358.899,-324.528 356.608,-308.866"/>
<polygon fill="black" stroke="black" points="360.053,-308.18 355.451,-298.637 353.097,-308.967 360.053,-308.18"/>
<text text-anchor="middle" x="451" y="-377.8" font-family="Times,serif" font-size="14.00">v3 == 0</text>
</g>
<!-- Node0x9c76850 -->
<g id="node10" class="node"><title>Node0x9c76850</title>
<polygon fill="none" stroke="black" points="385.5,-317.5 385.5,-355.5 754.5,-355.5 754.5,-317.5 385.5,-317.5"/>
<text text-anchor="start" x="393.5" y="-340.3" font-family="Times,serif" font-size="14.00">0x8063010:</text>
<text text-anchor="start" x="393.5" y="-325.3" font-family="Times,serif" font-size="14.00"> if (*(IntToPtrCastExpr&lt;ptr&gt;((v1 + 36))) == a1):</text>
</g>
<!-- Node0x9c76630&#45;&gt;Node0x9c76850 -->
<g id="edge9" class="edge"><title>Node0x9c76630&#45;&gt;Node0x9c76850</title>
<path fill="none" stroke="black" d="M570,-407.312C570,-395.511 570,-379.572 570,-365.904"/>
<polygon fill="black" stroke="black" points="573.5,-365.551 570,-355.551 566.5,-365.551 573.5,-365.551"/>
<text text-anchor="middle" x="597" y="-377.8" font-family="Times,serif" font-size="14.00">v3 != 0</text>
</g>
<!-- Node0x15aea930&#45;&gt;Node0x9c759b0 -->
<g id="edge10" class="edge"><title>Node0x15aea930&#45;&gt;Node0x9c759b0</title>
<path fill="none" stroke="black" d="M352.849,-260.373C347.968,-219.232 336.028,-118.593 330.245,-69.8478"/>
<polygon fill="black" stroke="black" points="333.698,-69.2447 329.044,-59.7267 326.746,-70.0694 333.698,-69.2447"/>
</g>
<!-- Node0x15aeaa00 -->
<g id="node11" class="node"><title>Node0x15aeaa00</title>
<polygon fill="none" stroke="black" points="397,-203.5 397,-241.5 565,-241.5 565,-203.5 397,-203.5"/>
<text text-anchor="start" x="405" y="-226.3" font-family="Times,serif" font-size="14.00">break &#45;&gt; 0x8063028:</text>
<text text-anchor="start" x="405" y="-211.3" font-family="Times,serif" font-size="14.00"> break</text>
</g>
<!-- Node0x9c76850&#45;&gt;Node0x15aeaa00 -->
<g id="edge11" class="edge"><title>Node0x9c76850&#45;&gt;Node0x15aeaa00</title>
<path fill="none" stroke="black" d="M471.272,-317.405C454.413,-312.356 440.534,-306.229 435,-299 424.464,-285.237 427.46,-275.608 435,-260 437,-255.861 439.722,-252.047 442.851,-248.573"/>
<polygon fill="black" stroke="black" points="445.421,-250.957 450.226,-241.514 440.581,-245.9 445.421,-250.957"/>
<text text-anchor="middle" x="594.5" y="-275.8" font-family="Times,serif" font-size="14.00">*(IntToPtrCastExpr&lt;ptr&gt;((v1 + 36))) == a1</text>
</g>
<!-- Node0x9c76d40 -->
<g id="node12" class="node"><title>Node0x9c76d40</title>
<polygon fill="none" stroke="black" points="904,-204.5 904,-240.5 976,-240.5 976,-204.5 904,-204.5"/>
<text text-anchor="start" x="912" y="-218.8" font-family="Times,serif" font-size="14.00">v1 = v4</text>
</g>
<!-- Node0x9c76850&#45;&gt;Node0x9c76d40 -->
<g id="edge12" class="edge"><title>Node0x9c76850&#45;&gt;Node0x9c76d40</title>
<path fill="none" stroke="black" d="M699.541,-317.459C723.32,-312.365 743.839,-306.206 754,-299 770.414,-287.359 760.73,-271.841 777,-260 810.892,-235.334 858.478,-226.886 893.488,-224.205"/>
<polygon fill="black" stroke="black" points="894.16,-227.67 903.92,-223.547 893.719,-220.684 894.16,-227.67"/>
<text text-anchor="middle" x="933.5" y="-275.8" font-family="Times,serif" font-size="14.00">*(IntToPtrCastExpr&lt;ptr&gt;((v1 + 36))) != a1</text>
</g>
<!-- Node0x9c761a0 -->
<g id="node13" class="node"><title>Node0x9c761a0</title>
<polygon fill="none" stroke="black" points="355.5,-97.5 355.5,-165.5 692.5,-165.5 692.5,-97.5 355.5,-97.5"/>
<text text-anchor="start" x="363.5" y="-150.3" font-family="Times,serif" font-size="14.00">0x8063028:</text>
<text text-anchor="start" x="363.5" y="-135.3" font-family="Times,serif" font-size="14.00"> *(a2) = v3</text>
<text text-anchor="start" x="363.5" y="-120.3" font-family="Times,serif" font-size="14.00"> *(a3) = *(IntToPtrCastExpr&lt;ptr&gt;((v2 + 4)))</text>
<text text-anchor="start" x="363.5" y="-105.3" font-family="Times,serif" font-size="14.00"> return 0</text>
</g>
<!-- Node0x15aeaa00&#45;&gt;Node0x9c761a0 -->
<g id="edge13" class="edge"><title>Node0x15aeaa00&#45;&gt;Node0x9c761a0</title>
<path fill="none" stroke="black" d="M489.702,-203.49C493.722,-195.167 498.682,-184.902 503.568,-174.789"/>
<polygon fill="black" stroke="black" points="506.807,-176.132 508.006,-165.605 500.504,-173.086 506.807,-176.132"/>
</g>
<!-- Node0x9c76d40&#45;&gt;Node0x9c75d50 -->
<g id="edge14" class="edge"><title>Node0x9c76d40&#45;&gt;Node0x9c75d50</title>
<path fill="none" stroke="black" d="M976.206,-227.773C1015.47,-233.164 1074.62,-243.744 1090,-260 1113.45,-284.79 1104,-301.372 1104,-335.5 1104,-509 1104,-509 1104,-509 1104,-554.558 785.88,-587.055 651.643,-598.739"/>
<polygon fill="black" stroke="black" points="651.197,-595.264 641.534,-599.61 651.798,-602.239 651.197,-595.264"/>
</g>
<!-- Node0x9c761a0&#45;&gt;Node0x9c759b0 -->
<g id="edge15" class="edge"><title>Node0x9c761a0&#45;&gt;Node0x9c759b0</title>
<path fill="none" stroke="black" d="M450.084,-97.4817C420.398,-84.2207 387.528,-69.5381 363.23,-58.6838"/>
<polygon fill="black" stroke="black" points="364.592,-55.4589 354.034,-54.576 361.737,-61.8503 364.592,-55.4589"/>
</g>
</g>
</svg>
