<?xml version="1.0" encoding="UTF-8" standalone="no"?>
<!DOCTYPE svg PUBLIC "-//W3C//DTD SVG 1.1//EN"
 "http://www.w3.org/Graphics/SVG/1.1/DTD/svg11.dtd">
<!-- Generated by graphviz version 2.38.0 (20140413.2041)
 -->
<!-- Title: Control&#45;flow graph for function &#39;fmt_u(a1, a2, a3)&#39;. Pages: 1 -->
<svg width="916pt" height="2073pt"
 viewBox="0.00 0.00 916.00 2073.00" xmlns="http://www.w3.org/2000/svg" xmlns:xlink="http://www.w3.org/1999/xlink">
<g id="graph0" class="graph" transform="scale(1 1) rotate(0) translate(4 2069)">
<title>Control&#45;flow graph for function &#39;fmt_u(a1, a2, a3)&#39;.</title>
<polygon fill="white" stroke="none" points="-4,4 -4,-2069 912,-2069 912,4 -4,4"/>
<text text-anchor="middle" x="454" y="-7.8" font-family="Times,serif" font-size="14.00">Control&#45;flow graph for function &#39;fmt_u(a1, a2, a3)&#39;.</text>
<!-- Node0x17cbbcf0 -->
<g id="node1" class="node"><title>Node0x17cbbcf0</title>
<polygon fill="none" stroke="black" points="660,-1996.5 660,-2064.5 719,-2064.5 719,-1996.5 660,-1996.5"/>
<text text-anchor="start" x="668" y="-2049.3" font-family="Times,serif" font-size="14.00">entry:</text>
<text text-anchor="start" x="668" y="-2034.3" font-family="Times,serif" font-size="14.00"> a1</text>
<text text-anchor="start" x="668" y="-2019.3" font-family="Times,serif" font-size="14.00"> a2</text>
<text text-anchor="start" x="668" y="-2004.3" font-family="Times,serif" font-size="14.00"> a3</text>
</g>
<!-- Node0x13d6d3b0 -->
<g id="node2" class="node"><title>Node0x13d6d3b0</title>
<polygon fill="none" stroke="black" points="651,-1755.5 651,-1958.5 728,-1958.5 728,-1755.5 651,-1755.5"/>
<text text-anchor="start" x="659" y="-1943.3" font-family="Times,serif" font-size="14.00">v1 = g4</text>
<text text-anchor="start" x="659" y="-1928.3" font-family="Times,serif" font-size="14.00"> v2 = g6</text>
<text text-anchor="start" x="659" y="-1913.3" font-family="Times,serif" font-size="14.00"> v3 = v2</text>
<text text-anchor="start" x="659" y="-1898.3" font-family="Times,serif" font-size="14.00"> v4 = g3</text>
<text text-anchor="start" x="659" y="-1883.3" font-family="Times,serif" font-size="14.00"> v5 = g1</text>
<text text-anchor="start" x="659" y="-1868.3" font-family="Times,serif" font-size="14.00"> v6 = g1</text>
<text text-anchor="start" x="659" y="-1853.3" font-family="Times,serif" font-size="14.00"> v7</text>
<text text-anchor="start" x="659" y="-1838.3" font-family="Times,serif" font-size="14.00"> v8</text>
<text text-anchor="start" x="659" y="-1823.3" font-family="Times,serif" font-size="14.00"> v9</text>
<text text-anchor="start" x="659" y="-1808.3" font-family="Times,serif" font-size="14.00"> v10</text>
<text text-anchor="start" x="659" y="-1793.3" font-family="Times,serif" font-size="14.00"> v11</text>
<text text-anchor="start" x="659" y="-1778.3" font-family="Times,serif" font-size="14.00"> result</text>
<text text-anchor="start" x="659" y="-1763.3" font-family="Times,serif" font-size="14.00"> v12</text>
</g>
<!-- Node0x17cbbcf0&#45;&gt;Node0x13d6d3b0 -->
<g id="edge1" class="edge"><title>Node0x17cbbcf0&#45;&gt;Node0x13d6d3b0</title>
<path fill="none" stroke="black" d="M689.5,-1996.43C689.5,-1988.11 689.5,-1978.71 689.5,-1968.82"/>
<polygon fill="black" stroke="black" points="693,-1968.79 689.5,-1958.79 686,-1968.79 693,-1968.79"/>
</g>
<!-- Node0x13d6e4b0 -->
<g id="node3" class="node"><title>Node0x13d6e4b0</title>
<polygon fill="none" stroke="black" points="640,-1681.5 640,-1717.5 739,-1717.5 739,-1681.5 640,-1681.5"/>
<text text-anchor="start" x="648" y="-1695.8" font-family="Times,serif" font-size="14.00">if (v2 != 0):</text>
</g>
<!-- Node0x13d6d3b0&#45;&gt;Node0x13d6e4b0 -->
<g id="edge2" class="edge"><title>Node0x13d6d3b0&#45;&gt;Node0x13d6e4b0</title>
<path fill="none" stroke="black" d="M689.5,-1755.32C689.5,-1745.37 689.5,-1735.96 689.5,-1727.85"/>
<polygon fill="black" stroke="black" points="693,-1727.65 689.5,-1717.65 686,-1727.65 693,-1727.65"/>
</g>
<!-- Node0x13d6eed0 -->
<g id="node4" class="node"><title>Node0x13d6eed0</title>
<polygon fill="none" stroke="black" points="386.5,-1591.5 386.5,-1629.5 472.5,-1629.5 472.5,-1591.5 386.5,-1591.5"/>
<text text-anchor="start" x="394.5" y="-1614.3" font-family="Times,serif" font-size="14.00">v13 = g1</text>
<text text-anchor="start" x="394.5" y="-1599.3" font-family="Times,serif" font-size="14.00"> v14 = g4</text>
</g>
<!-- Node0x13d6e4b0&#45;&gt;Node0x13d6eed0 -->
<g id="edge3" class="edge"><title>Node0x13d6e4b0&#45;&gt;Node0x13d6eed0</title>
<path fill="none" stroke="black" d="M639.984,-1681.93C594.867,-1666.83 528.426,-1644.6 482.307,-1629.17"/>
<polygon fill="black" stroke="black" points="483.383,-1625.84 472.79,-1625.99 481.162,-1632.48 483.383,-1625.84"/>
<text text-anchor="middle" x="610.5" y="-1651.8" font-family="Times,serif" font-size="14.00">v2 != 0</text>
</g>
<!-- Node0x13d6e600 -->
<g id="node5" class="node"><title>Node0x13d6e600</title>
<polygon fill="none" stroke="black" points="656.5,-1065.5 656.5,-1103.5 766.5,-1103.5 766.5,-1065.5 656.5,-1065.5"/>
<text text-anchor="start" x="664.5" y="-1088.3" font-family="Times,serif" font-size="14.00">0x8073332:</text>
<text text-anchor="start" x="664.5" y="-1073.3" font-family="Times,serif" font-size="14.00"> if (v6 == 0):</text>
</g>
<!-- Node0x13d6e4b0&#45;&gt;Node0x13d6e600 -->
<g id="edge4" class="edge"><title>Node0x13d6e4b0&#45;&gt;Node0x13d6e600</title>
<path fill="none" stroke="black" d="M696.461,-1681.49C702.906,-1664.18 711.5,-1636.43 711.5,-1611.5 711.5,-1611.5 711.5,-1611.5 711.5,-1182 711.5,-1159.07 711.5,-1133.06 711.5,-1113.84"/>
<polygon fill="black" stroke="black" points="715,-1113.64 711.5,-1103.64 708,-1113.64 715,-1113.64"/>
<text text-anchor="middle" x="741.5" y="-1405.3" font-family="Times,serif" font-size="14.00">v2 == 0</text>
</g>
<!-- Node0x2b0d9bf0 -->
<g id="node6" class="node"><title>Node0x2b0d9bf0</title>
<polygon fill="none" stroke="black" points="316,-1517.5 316,-1553.5 413,-1553.5 413,-1517.5 316,-1517.5"/>
<text text-anchor="start" x="324" y="-1531.8" font-family="Times,serif" font-size="14.00">while True:</text>
</g>
<!-- Node0x13d6eed0&#45;&gt;Node0x2b0d9bf0 -->
<g id="edge5" class="edge"><title>Node0x13d6eed0&#45;&gt;Node0x2b0d9bf0</title>
<path fill="none" stroke="black" d="M413.433,-1591.46C405.364,-1582.39 395.461,-1571.27 386.68,-1561.41"/>
<polygon fill="black" stroke="black" points="389.199,-1558.98 379.935,-1553.83 383.971,-1563.63 389.199,-1558.98"/>
</g>
<!-- Node0x13d6eac0 -->
<g id="node7" class="node"><title>Node0x13d6eac0</title>
<polygon fill="none" stroke="black" points="795,-581.5 795,-679.5 908,-679.5 908,-581.5 795,-581.5"/>
<text text-anchor="start" x="803" y="-664.3" font-family="Times,serif" font-size="14.00">0x807334b:</text>
<text text-anchor="start" x="803" y="-649.3" font-family="Times,serif" font-size="14.00"> result = v1</text>
<text text-anchor="start" x="803" y="-634.3" font-family="Times,serif" font-size="14.00"> g1 = result</text>
<text text-anchor="start" x="803" y="-619.3" font-family="Times,serif" font-size="14.00"> g3 = v4</text>
<text text-anchor="start" x="803" y="-604.3" font-family="Times,serif" font-size="14.00"> g5 = v9</text>
<text text-anchor="start" x="803" y="-589.3" font-family="Times,serif" font-size="14.00"> return result</text>
</g>
<!-- Node0x13d6e600&#45;&gt;Node0x13d6eac0 -->
<g id="edge6" class="edge"><title>Node0x13d6e600&#45;&gt;Node0x13d6eac0</title>
<path fill="none" stroke="black" d="M735.389,-1065.39C741.509,-1059.95 747.708,-1053.65 752.5,-1047 810.468,-966.56 818.007,-938.566 840.5,-842 852.234,-791.623 854.364,-732.705 853.918,-690.034"/>
<polygon fill="black" stroke="black" points="857.415,-689.769 853.759,-679.825 850.415,-689.878 857.415,-689.769"/>
<text text-anchor="middle" x="827.5" y="-991.8" font-family="Times,serif" font-size="14.00">v6 == 0</text>
</g>
<!-- Node0x13d6ea40 -->
<g id="node8" class="node"><title>Node0x13d6ea40</title>
<polygon fill="none" stroke="black" points="624,-977.5 624,-1013.5 721,-1013.5 721,-977.5 624,-977.5"/>
<text text-anchor="start" x="632" y="-991.8" font-family="Times,serif" font-size="14.00">while True:</text>
</g>
<!-- Node0x13d6e600&#45;&gt;Node0x13d6ea40 -->
<g id="edge7" class="edge"><title>Node0x13d6e600&#45;&gt;Node0x13d6ea40</title>
<path fill="none" stroke="black" d="M703.419,-1065.47C697.925,-1053.22 690.565,-1036.8 684.403,-1023.05"/>
<polygon fill="black" stroke="black" points="687.457,-1021.31 680.172,-1013.62 681.069,-1024.17 687.457,-1021.31"/>
<text text-anchor="middle" x="721.5" y="-1035.8" font-family="Times,serif" font-size="14.00">v6 != 0</text>
</g>
<!-- Node0x13d6bf30 -->
<g id="node9" class="node"><title>Node0x13d6bf30</title>
<polygon fill="none" stroke="black" points="53,-1352.5 53,-1465.5 676,-1465.5 676,-1352.5 53,-1352.5"/>
<text text-anchor="start" x="61" y="-1450.3" font-family="Times,serif" font-size="14.00">0x8073307:</text>
<text text-anchor="start" x="61" y="-1435.3" font-family="Times,serif" font-size="14.00"> v1 = (v14 &#45; 1)</text>
<text text-anchor="start" x="61" y="-1420.3" font-family="Times,serif" font-size="14.00"> *(IntToPtrCastExpr&lt;ptr&gt;(v1)) = TruncCastExpr&lt;int8&gt;((__umoddi3(v13, v2) + 48))</text>
<text text-anchor="start" x="61" y="-1405.3" font-family="Times,serif" font-size="14.00"> v15 = __udivdi3(v5, v3)</text>
<text text-anchor="start" x="61" y="-1390.3" font-family="Times,serif" font-size="14.00"> v5 = v15</text>
<text text-anchor="start" x="61" y="-1375.3" font-family="Times,serif" font-size="14.00"> v16 = g6</text>
<text text-anchor="start" x="61" y="-1360.3" font-family="Times,serif" font-size="14.00"> v3 = v16</text>
</g>
<!-- Node0x2b0d9bf0&#45;&gt;Node0x13d6bf30 -->
<g id="edge8" class="edge"><title>Node0x2b0d9bf0&#45;&gt;Node0x13d6bf30</title>
<path fill="none" stroke="black" d="M364.5,-1517.45C364.5,-1506.41 364.5,-1491.27 364.5,-1475.83"/>
<polygon fill="black" stroke="black" points="368,-1475.68 364.5,-1465.68 361,-1475.68 368,-1475.68"/>
<text text-anchor="middle" x="381.5" y="-1487.8" font-family="Times,serif" font-size="14.00">True</text>
</g>
<!-- Node0x13d6d330 -->
<g id="node10" class="node"><title>Node0x13d6d330</title>
<polygon fill="none" stroke="black" points="575.5,-23.5 575.5,-59.5 629.5,-59.5 629.5,-23.5 575.5,-23.5"/>
<text text-anchor="start" x="583.5" y="-37.8" font-family="Times,serif" font-size="14.00">exit:</text>
</g>
<!-- Node0x13d6eac0&#45;&gt;Node0x13d6d330 -->
<g id="edge9" class="edge"><title>Node0x13d6eac0&#45;&gt;Node0x13d6d330</title>
<path fill="none" stroke="black" d="M846.955,-581.392C842.867,-533.928 837.5,-459.28 837.5,-394.5 837.5,-394.5 837.5,-394.5 837.5,-145.5 837.5,-60.2991 706.319,-44.9157 639.978,-42.5836"/>
<polygon fill="black" stroke="black" points="640.008,-39.0833 629.917,-42.3127 639.82,-46.0807 640.008,-39.0833"/>
</g>
<!-- Node0x13d6eb40 -->
<g id="node11" class="node"><title>Node0x13d6eb40</title>
<polygon fill="none" stroke="black" points="371.5,-698.5 371.5,-841.5 831.5,-841.5 831.5,-698.5 371.5,-698.5"/>
<text text-anchor="start" x="379.5" y="-826.3" font-family="Times,serif" font-size="14.00">0x8073339:</text>
<text text-anchor="start" x="379.5" y="-811.3" font-family="Times,serif" font-size="14.00"> v10 = ExtCastExpr&lt;int64&gt;(v6)</text>
<text text-anchor="start" x="379.5" y="-796.3" font-family="Times,serif" font-size="14.00"> v8 = ExtCastExpr&lt;int64&gt;(10)</text>
<text text-anchor="start" x="379.5" y="-781.3" font-family="Times,serif" font-size="14.00"> v12 = (v1 &#45; 1)</text>
<text text-anchor="start" x="379.5" y="-766.3" font-family="Times,serif" font-size="14.00"> v1 = v12</text>
<text text-anchor="start" x="379.5" y="-751.3" font-family="Times,serif" font-size="14.00"> v7 = (TruncCastExpr&lt;int32&gt;((v10 % v8)) + 48)</text>
<text text-anchor="start" x="379.5" y="-736.3" font-family="Times,serif" font-size="14.00"> g6 = v7</text>
<text text-anchor="start" x="379.5" y="-721.3" font-family="Times,serif" font-size="14.00"> *(IntToPtrCastExpr&lt;ptr&gt;(v12)) = TruncCastExpr&lt;int8&gt;(v7)</text>
<text text-anchor="start" x="379.5" y="-706.3" font-family="Times,serif" font-size="14.00"> v11 = (v10 / v8)</text>
</g>
<!-- Node0x13d6ea40&#45;&gt;Node0x13d6eb40 -->
<g id="edge10" class="edge"><title>Node0x13d6ea40&#45;&gt;Node0x13d6eb40</title>
<path fill="none" stroke="black" d="M667.047,-977.333C658.528,-950.518 641.531,-897.012 626.98,-851.207"/>
<polygon fill="black" stroke="black" points="630.279,-850.033 623.916,-841.562 623.608,-852.153 630.279,-850.033"/>
<text text-anchor="middle" x="678.5" y="-905.8" font-family="Times,serif" font-size="14.00">True</text>
</g>
<!-- Node0x13d6c020 -->
<g id="node12" class="node"><title>Node0x13d6c020</title>
<polygon fill="none" stroke="black" points="142.5,-1276.5 142.5,-1314.5 250.5,-1314.5 250.5,-1276.5 142.5,-1276.5"/>
<text text-anchor="start" x="150.5" y="-1299.3" font-family="Times,serif" font-size="14.00">if (v16 != 0):</text>
<text text-anchor="start" x="150.5" y="-1284.3" font-family="Times,serif" font-size="14.00"> else:</text>
</g>
<!-- Node0x13d6bf30&#45;&gt;Node0x13d6c020 -->
<g id="edge11" class="edge"><title>Node0x13d6bf30&#45;&gt;Node0x13d6c020</title>
<path fill="none" stroke="black" d="M280.5,-1352.25C263.517,-1340.98 246.534,-1329.71 232.328,-1320.28"/>
<polygon fill="black" stroke="black" points="234.133,-1317.28 223.866,-1314.66 230.262,-1323.11 234.133,-1317.28"/>
</g>
<!-- Node0x13d6f270 -->
<g id="node13" class="node"><title>Node0x13d6f270</title>
<polygon fill="none" stroke="black" points="597.5,-473 597.5,-509 705.5,-509 705.5,-473 597.5,-473"/>
<text text-anchor="start" x="605.5" y="-487.3" font-family="Times,serif" font-size="14.00">if (v11 != 0):</text>
</g>
<!-- Node0x13d6eb40&#45;&gt;Node0x13d6f270 -->
<g id="edge12" class="edge"><title>Node0x13d6eb40&#45;&gt;Node0x13d6f270</title>
<path fill="none" stroke="black" d="M614.246,-698.384C624.764,-640.117 639.126,-560.552 646.571,-519.304"/>
<polygon fill="black" stroke="black" points="650.062,-519.669 648.394,-509.207 643.173,-518.426 650.062,-519.669"/>
</g>
<!-- Node0x13d6ff20 -->
<g id="node14" class="node"><title>Node0x13d6ff20</title>
<polygon fill="none" stroke="black" points="6,-1141.5 6,-1224.5 107,-1224.5 107,-1141.5 6,-1141.5"/>
<text text-anchor="start" x="14" y="-1209.3" font-family="Times,serif" font-size="14.00">0x8073307:</text>
<text text-anchor="start" x="14" y="-1194.3" font-family="Times,serif" font-size="14.00"> v13 = v15</text>
<text text-anchor="start" x="14" y="-1179.3" font-family="Times,serif" font-size="14.00"> v2 = v16</text>
<text text-anchor="start" x="14" y="-1164.3" font-family="Times,serif" font-size="14.00"> v14 = v1</text>
<text text-anchor="start" x="14" y="-1149.3" font-family="Times,serif" font-size="14.00"> continue</text>
</g>
<!-- Node0x13d6c020&#45;&gt;Node0x13d6ff20 -->
<g id="edge13" class="edge"><title>Node0x13d6c020&#45;&gt;Node0x13d6ff20</title>
<path fill="none" stroke="black" d="M158.793,-1276.47C148.901,-1271.07 138.494,-1264.77 129.5,-1258 119.263,-1250.29 109.088,-1241.16 99.7282,-1232"/>
<polygon fill="black" stroke="black" points="101.953,-1229.27 92.4111,-1224.67 96.998,-1234.22 101.953,-1229.27"/>
<text text-anchor="middle" x="161" y="-1246.8" font-family="Times,serif" font-size="14.00">v16 != 0</text>
</g>
<!-- Node0x13d6ffc0 -->
<g id="node15" class="node"><title>Node0x13d6ffc0</title>
<polygon fill="none" stroke="black" points="156,-1165 156,-1201 237,-1201 237,-1165 156,-1165"/>
<text text-anchor="start" x="164" y="-1179.3" font-family="Times,serif" font-size="14.00">v6 = v15</text>
</g>
<!-- Node0x13d6c020&#45;&gt;Node0x13d6ffc0 -->
<g id="edge14" class="edge"><title>Node0x13d6c020&#45;&gt;Node0x13d6ffc0</title>
<path fill="none" stroke="black" d="M196.5,-1276.25C196.5,-1258.59 196.5,-1231.58 196.5,-1211.34"/>
<polygon fill="black" stroke="black" points="200,-1211.18 196.5,-1201.18 193,-1211.18 200,-1211.18"/>
<text text-anchor="middle" x="231" y="-1246.8" font-family="Times,serif" font-size="14.00">v16 == 0</text>
</g>
<!-- Node0x13d6eff0 -->
<g id="node16" class="node"><title>Node0x13d6eff0</title>
<polygon fill="none" stroke="black" points="585,-331.5 585,-367.5 718,-367.5 718,-331.5 585,-331.5"/>
<text text-anchor="start" x="593" y="-345.8" font-family="Times,serif" font-size="14.00">goto 0x8073339</text>
</g>
<!-- Node0x13d6f270&#45;&gt;Node0x13d6eff0 -->
<g id="edge15" class="edge"><title>Node0x13d6f270&#45;&gt;Node0x13d6eff0</title>
<path fill="none" stroke="black" d="M651.5,-472.895C651.5,-449.154 651.5,-405.959 651.5,-377.751"/>
<polygon fill="black" stroke="black" points="655,-377.745 651.5,-367.745 648,-377.745 655,-377.745"/>
<text text-anchor="middle" x="683" y="-389.8" font-family="Times,serif" font-size="14.00">v11 != 0</text>
</g>
<!-- Node0x13d6f3f0 -->
<g id="node17" class="node"><title>Node0x13d6f3f0</title>
<polygon fill="none" stroke="black" points="661,-214.5 661,-312.5 774,-312.5 774,-214.5 661,-214.5"/>
<text text-anchor="start" x="669" y="-297.3" font-family="Times,serif" font-size="14.00">0x807334b:</text>
<text text-anchor="start" x="669" y="-282.3" font-family="Times,serif" font-size="14.00"> result = v1</text>
<text text-anchor="start" x="669" y="-267.3" font-family="Times,serif" font-size="14.00"> g1 = result</text>
<text text-anchor="start" x="669" y="-252.3" font-family="Times,serif" font-size="14.00"> g3 = v4</text>
<text text-anchor="start" x="669" y="-237.3" font-family="Times,serif" font-size="14.00"> g5 = v9</text>
<text text-anchor="start" x="669" y="-222.3" font-family="Times,serif" font-size="14.00"> return result</text>
</g>
<!-- Node0x13d6f270&#45;&gt;Node0x13d6f3f0 -->
<g id="edge16" class="edge"><title>Node0x13d6f270&#45;&gt;Node0x13d6f3f0</title>
<path fill="none" stroke="black" d="M667.988,-472.681C683.264,-455.706 705.524,-428.452 718.5,-401 729.849,-376.991 731.071,-347.845 728.857,-322.661"/>
<polygon fill="black" stroke="black" points="732.313,-322.07 727.763,-312.501 725.353,-322.819 732.313,-322.07"/>
<text text-anchor="middle" x="759" y="-389.8" font-family="Times,serif" font-size="14.00">v11 == 0</text>
</g>
<!-- Node0x13d6ff20&#45;&gt;Node0x2b0d9bf0 -->
<g id="edge17" class="edge"><title>Node0x13d6ff20&#45;&gt;Node0x2b0d9bf0</title>
<path fill="none" stroke="black" d="M39.4387,-1224.67C17.3042,-1284.62 -12.2985,-1397.04 43.5,-1466 75.8437,-1505.97 222.117,-1523.63 305.611,-1530.57"/>
<polygon fill="black" stroke="black" points="305.469,-1534.07 315.718,-1531.38 306.031,-1527.09 305.469,-1534.07"/>
</g>
<!-- Node0x13d6cec0 -->
<g id="node18" class="node"><title>Node0x13d6cec0</title>
<polygon fill="none" stroke="black" points="141.5,-1065.5 141.5,-1103.5 251.5,-1103.5 251.5,-1065.5 141.5,-1065.5"/>
<text text-anchor="start" x="149.5" y="-1088.3" font-family="Times,serif" font-size="14.00">0x8073332:</text>
<text text-anchor="start" x="149.5" y="-1073.3" font-family="Times,serif" font-size="14.00"> if (v6 == 0):</text>
</g>
<!-- Node0x13d6ffc0&#45;&gt;Node0x13d6cec0 -->
<g id="edge18" class="edge"><title>Node0x13d6ffc0&#45;&gt;Node0x13d6cec0</title>
<path fill="none" stroke="black" d="M196.5,-1164.75C196.5,-1150.61 196.5,-1130.3 196.5,-1113.79"/>
<polygon fill="black" stroke="black" points="200,-1113.59 196.5,-1103.59 193,-1113.59 200,-1113.59"/>
</g>
<!-- Node0x13d706b0 -->
<g id="node19" class="node"><title>Node0x13d706b0</title>
<polygon fill="none" stroke="black" points="506,-127.5 506,-165.5 607,-165.5 607,-127.5 506,-127.5"/>
<text text-anchor="start" x="514" y="-150.3" font-family="Times,serif" font-size="14.00">0x8073339:</text>
<text text-anchor="start" x="514" y="-135.3" font-family="Times,serif" font-size="14.00"> v17 = v11</text>
</g>
<!-- Node0x13d6eff0&#45;&gt;Node0x13d706b0 -->
<g id="edge19" class="edge"><title>Node0x13d6eff0&#45;&gt;Node0x13d706b0</title>
<path fill="none" stroke="black" d="M643.4,-331.363C626.916,-296.485 589.346,-216.994 569.437,-174.872"/>
<polygon fill="black" stroke="black" points="572.562,-173.293 565.124,-165.748 566.233,-176.284 572.562,-173.293"/>
</g>
<!-- Node0x13d6f3f0&#45;&gt;Node0x13d6d330 -->
<g id="edge20" class="edge"><title>Node0x13d6f3f0&#45;&gt;Node0x13d6d330</title>
<path fill="none" stroke="black" d="M692.405,-214.492C668.987,-169.693 634.923,-104.526 616.164,-68.639"/>
<polygon fill="black" stroke="black" points="619.254,-66.996 611.52,-59.7551 613.051,-70.2388 619.254,-66.996"/>
</g>
<!-- Node0x13d70040 -->
<g id="node20" class="node"><title>Node0x13d70040</title>
<polygon fill="none" stroke="black" points="0,-860.5 0,-958.5 113,-958.5 113,-860.5 0,-860.5"/>
<text text-anchor="start" x="8" y="-943.3" font-family="Times,serif" font-size="14.00">0x807334b:</text>
<text text-anchor="start" x="8" y="-928.3" font-family="Times,serif" font-size="14.00"> result = v1</text>
<text text-anchor="start" x="8" y="-913.3" font-family="Times,serif" font-size="14.00"> g1 = result</text>
<text text-anchor="start" x="8" y="-898.3" font-family="Times,serif" font-size="14.00"> g3 = v4</text>
<text text-anchor="start" x="8" y="-883.3" font-family="Times,serif" font-size="14.00"> g5 = v9</text>
<text text-anchor="start" x="8" y="-868.3" font-family="Times,serif" font-size="14.00"> return result</text>
</g>
<!-- Node0x13d6cec0&#45;&gt;Node0x13d70040 -->
<g id="edge21" class="edge"><title>Node0x13d6cec0&#45;&gt;Node0x13d70040</title>
<path fill="none" stroke="black" d="M168.682,-1065.34C161.371,-1059.91 153.78,-1053.62 147.5,-1047 124.864,-1023.15 104.137,-993.051 88.2014,-967.189"/>
<polygon fill="black" stroke="black" points="91.1661,-965.328 82.9848,-958.596 85.1824,-968.96 91.1661,-965.328"/>
<text text-anchor="middle" x="177.5" y="-1035.8" font-family="Times,serif" font-size="14.00">v6 == 0</text>
</g>
<!-- Node0xe56ab40 -->
<g id="node21" class="node"><title>Node0xe56ab40</title>
<polygon fill="none" stroke="black" points="190,-977.5 190,-1013.5 271,-1013.5 271,-977.5 190,-977.5"/>
<text text-anchor="start" x="198" y="-991.8" font-family="Times,serif" font-size="14.00">v17 = v6</text>
</g>
<!-- Node0x13d6cec0&#45;&gt;Node0xe56ab40 -->
<g id="edge22" class="edge"><title>Node0x13d6cec0&#45;&gt;Node0xe56ab40</title>
<path fill="none" stroke="black" d="M203.545,-1065.47C208.334,-1053.22 214.751,-1036.8 220.123,-1023.05"/>
<polygon fill="black" stroke="black" points="223.431,-1024.2 223.811,-1013.62 216.911,-1021.66 223.431,-1024.2"/>
<text text-anchor="middle" x="244.5" y="-1035.8" font-family="Times,serif" font-size="14.00">v6 != 0</text>
</g>
<!-- Node0x13d6ef50 -->
<g id="node22" class="node"><title>Node0x13d6ef50</title>
<polygon fill="none" stroke="black" points="250,-752 250,-788 347,-788 347,-752 250,-752"/>
<text text-anchor="start" x="258" y="-766.3" font-family="Times,serif" font-size="14.00">while True:</text>
</g>
<!-- Node0x13d706b0&#45;&gt;Node0x13d6ef50 -->
<g id="edge23" class="edge"><title>Node0x13d706b0&#45;&gt;Node0x13d6ef50</title>
<path fill="none" stroke="black" d="M557.653,-165.659C561.842,-236.324 574.159,-492.534 537.5,-563 492.164,-650.144 434.566,-631.248 362.5,-698 347.03,-712.329 331.151,-729.925 319.079,-744.015"/>
<polygon fill="black" stroke="black" points="316.232,-741.96 312.443,-751.854 321.575,-746.483 316.232,-741.96"/>
</g>
<!-- Node0x13d70040&#45;&gt;Node0x13d6d330 -->
<g id="edge24" class="edge"><title>Node0x13d70040&#45;&gt;Node0x13d6d330</title>
<path fill="none" stroke="black" d="M52.0005,-860.012C47.2681,-804.753 40.5,-711.704 40.5,-631.5 40.5,-631.5 40.5,-631.5 40.5,-145.5 40.5,-92.0061 439.533,-55.5308 565.126,-45.3753"/>
<polygon fill="black" stroke="black" points="565.704,-48.8403 575.394,-44.5546 565.146,-41.8626 565.704,-48.8403"/>
</g>
<!-- Node0xe56ab40&#45;&gt;Node0x13d6ef50 -->
<g id="edge25" class="edge"><title>Node0xe56ab40&#45;&gt;Node0x13d6ef50</title>
<path fill="none" stroke="black" d="M235.723,-977.333C247.491,-938.656 276.151,-844.454 290.309,-797.921"/>
<polygon fill="black" stroke="black" points="293.697,-798.811 293.259,-788.225 287,-796.773 293.697,-798.811"/>
</g>
<!-- Node0x13d70200 -->
<g id="node23" class="node"><title>Node0x13d70200</title>
<polygon fill="none" stroke="black" points="68.5,-419.5 68.5,-562.5 528.5,-562.5 528.5,-419.5 68.5,-419.5"/>
<text text-anchor="start" x="76.5" y="-547.3" font-family="Times,serif" font-size="14.00">0x8073339:</text>
<text text-anchor="start" x="76.5" y="-532.3" font-family="Times,serif" font-size="14.00"> v10 = ExtCastExpr&lt;int64&gt;(v17)</text>
<text text-anchor="start" x="76.5" y="-517.3" font-family="Times,serif" font-size="14.00"> v8 = ExtCastExpr&lt;int64&gt;(10)</text>
<text text-anchor="start" x="76.5" y="-502.3" font-family="Times,serif" font-size="14.00"> v12 = (v1 &#45; 1)</text>
<text text-anchor="start" x="76.5" y="-487.3" font-family="Times,serif" font-size="14.00"> v1 = v12</text>
<text text-anchor="start" x="76.5" y="-472.3" font-family="Times,serif" font-size="14.00"> v7 = (TruncCastExpr&lt;int32&gt;((v10 % v8)) + 48)</text>
<text text-anchor="start" x="76.5" y="-457.3" font-family="Times,serif" font-size="14.00"> g6 = v7</text>
<text text-anchor="start" x="76.5" y="-442.3" font-family="Times,serif" font-size="14.00"> *(IntToPtrCastExpr&lt;ptr&gt;(v12)) = TruncCastExpr&lt;int8&gt;(v7)</text>
<text text-anchor="start" x="76.5" y="-427.3" font-family="Times,serif" font-size="14.00"> v11 = (v10 / v8)</text>
</g>
<!-- Node0x13d6ef50&#45;&gt;Node0x13d70200 -->
<g id="edge26" class="edge"><title>Node0x13d6ef50&#45;&gt;Node0x13d70200</title>
<path fill="none" stroke="black" d="M298.5,-751.672C298.5,-716.611 298.5,-635.29 298.5,-572.921"/>
<polygon fill="black" stroke="black" points="302,-572.693 298.5,-562.693 295,-572.693 302,-572.693"/>
<text text-anchor="middle" x="315.5" y="-626.8" font-family="Times,serif" font-size="14.00">True</text>
</g>
<!-- Node0x13d70490 -->
<g id="node24" class="node"><title>Node0x13d70490</title>
<polygon fill="none" stroke="black" points="329.5,-331.5 329.5,-367.5 443.5,-367.5 443.5,-331.5 329.5,-331.5"/>
<text text-anchor="start" x="337.5" y="-345.8" font-family="Times,serif" font-size="14.00">if (v11 == 0):</text>
</g>
<!-- Node0x13d70200&#45;&gt;Node0x13d70490 -->
<g id="edge27" class="edge"><title>Node0x13d70200&#45;&gt;Node0x13d70490</title>
<path fill="none" stroke="black" d="M343.016,-419.433C352.731,-404.031 362.414,-388.682 370.167,-376.391"/>
<polygon fill="black" stroke="black" points="373.314,-377.963 375.689,-367.638 367.393,-374.229 373.314,-377.963"/>
</g>
<!-- Node0x13d70490&#45;&gt;Node0x13d706b0 -->
<g id="edge29" class="edge"><title>Node0x13d70490&#45;&gt;Node0x13d706b0</title>
<path fill="none" stroke="black" d="M434.341,-331.399C442.715,-326.562 450.615,-320.507 456.5,-313 484.369,-277.45 456.146,-252.666 479.5,-214 489.424,-197.569 504.798,-183.105 519.207,-171.898"/>
<polygon fill="black" stroke="black" points="521.609,-174.472 527.53,-165.686 517.423,-168.863 521.609,-174.472"/>
<text text-anchor="middle" x="511" y="-259.8" font-family="Times,serif" font-size="14.00">v11 != 0</text>
</g>
<!-- Node0x13d70790 -->
<g id="node25" class="node"><title>Node0x13d70790</title>
<polygon fill="none" stroke="black" points="352,-97.5 352,-195.5 465,-195.5 465,-97.5 352,-97.5"/>
<text text-anchor="start" x="360" y="-180.3" font-family="Times,serif" font-size="14.00">0x807334b:</text>
<text text-anchor="start" x="360" y="-165.3" font-family="Times,serif" font-size="14.00"> result = v1</text>
<text text-anchor="start" x="360" y="-150.3" font-family="Times,serif" font-size="14.00"> g1 = result</text>
<text text-anchor="start" x="360" y="-135.3" font-family="Times,serif" font-size="14.00"> g3 = v4</text>
<text text-anchor="start" x="360" y="-120.3" font-family="Times,serif" font-size="14.00"> g5 = v9</text>
<text text-anchor="start" x="360" y="-105.3" font-family="Times,serif" font-size="14.00"> return result</text>
</g>
<!-- Node0x13d70490&#45;&gt;Node0x13d70790 -->
<g id="edge28" class="edge"><title>Node0x13d70490&#45;&gt;Node0x13d70790</title>
<path fill="none" stroke="black" d="M385.009,-331.381C383.136,-305.698 380.906,-255.748 387.5,-214 387.943,-211.197 388.48,-208.35 389.092,-205.49"/>
<polygon fill="black" stroke="black" points="392.496,-206.306 391.425,-195.765 385.689,-204.673 392.496,-206.306"/>
<text text-anchor="middle" x="422" y="-259.8" font-family="Times,serif" font-size="14.00">v11 == 0</text>
</g>
<!-- Node0x13d70790&#45;&gt;Node0x13d6d330 -->
<g id="edge30" class="edge"><title>Node0x13d70790&#45;&gt;Node0x13d6d330</title>
<path fill="none" stroke="black" d="M465.175,-113.951C475.566,-108.256 486.338,-102.411 496.5,-97 519.625,-84.6861 545.803,-71.2217 566.359,-60.7569"/>
<polygon fill="black" stroke="black" points="568.047,-63.8251 575.376,-56.1746 564.876,-57.5845 568.047,-63.8251"/>
</g>
</g>
</svg>
