<?xml version="1.0" encoding="UTF-8" standalone="no"?>
<!DOCTYPE svg PUBLIC "-//W3C//DTD SVG 1.1//EN"
 "http://www.w3.org/Graphics/SVG/1.1/DTD/svg11.dtd">
<!-- Generated by graphviz version 2.38.0 (20140413.2041)
 -->
<!-- Title: Control&#45;flow graph for function &#39;mbedtls_padlock_xcryptecb(*a1, a2, *a3, *a4)&#39;. Pages: 1 -->
<svg width="594pt" height="368pt"
 viewBox="0.00 0.00 594.00 368.00" xmlns="http://www.w3.org/2000/svg" xmlns:xlink="http://www.w3.org/1999/xlink">
<g id="graph0" class="graph" transform="scale(1 1) rotate(0) translate(4 364)">
<title>Control&#45;flow graph for function &#39;mbedtls_padlock_xcryptecb(*a1, a2, *a3, *a4)&#39;.</title>
<polygon fill="white" stroke="none" points="-4,4 -4,-364 590,-364 590,4 -4,4"/>
<text text-anchor="middle" x="293" y="-7.8" font-family="Times,serif" font-size="14.00">Control&#45;flow graph for function &#39;mbedtls_padlock_xcryptecb(*a1, a2, *a3, *a4)&#39;.</text>
<!-- Node0xe696c60 -->
<g id="node1" class="node"><title>Node0xe696c60</title>
<polygon fill="none" stroke="black" points="263.5,-276.5 263.5,-359.5 322.5,-359.5 322.5,-276.5 263.5,-276.5"/>
<text text-anchor="start" x="271.5" y="-344.3" font-family="Times,serif" font-size="14.00">entry:</text>
<text text-anchor="start" x="271.5" y="-329.3" font-family="Times,serif" font-size="14.00"> a1</text>
<text text-anchor="start" x="271.5" y="-314.3" font-family="Times,serif" font-size="14.00"> a2</text>
<text text-anchor="start" x="271.5" y="-299.3" font-family="Times,serif" font-size="14.00"> a3</text>
<text text-anchor="start" x="271.5" y="-284.3" font-family="Times,serif" font-size="14.00"> a4</text>
</g>
<!-- Node0xe697bc0 -->
<g id="node2" class="node"><title>Node0xe697bc0</title>
<polygon fill="none" stroke="black" points="3.5,-96.5 3.5,-239.5 582.5,-239.5 582.5,-96.5 3.5,-96.5"/>
<text text-anchor="start" x="11.5" y="-224.3" font-family="Times,serif" font-size="14.00">v1 = PtrToIntCastExpr&lt;int32&gt;(a3)</text>
<text text-anchor="start" x="11.5" y="-209.3" font-family="Times,serif" font-size="14.00"> v2 = PtrToIntCastExpr&lt;int32&gt;(a4)</text>
<text text-anchor="start" x="11.5" y="-194.3" font-family="Times,serif" font-size="14.00"> v3 = *(IntToPtrCastExpr&lt;ptr&gt;((v1 + 8)))</text>
<text text-anchor="start" x="11.5" y="-179.3" font-family="Times,serif" font-size="14.00"> *(a4) = *(a3)</text>
<text text-anchor="start" x="11.5" y="-164.3" font-family="Times,serif" font-size="14.00"> *(IntToPtrCastExpr&lt;ptr&gt;((v2 + 4))) = *(IntToPtrCastExpr&lt;ptr&gt;((v1 + 4)))</text>
<text text-anchor="start" x="11.5" y="-149.3" font-family="Times,serif" font-size="14.00"> g4 = v3</text>
<text text-anchor="start" x="11.5" y="-134.3" font-family="Times,serif" font-size="14.00"> *(IntToPtrCastExpr&lt;ptr&gt;((v2 + 8))) = v3</text>
<text text-anchor="start" x="11.5" y="-119.3" font-family="Times,serif" font-size="14.00"> *(IntToPtrCastExpr&lt;ptr&gt;((v2 + 12))) = *(IntToPtrCastExpr&lt;ptr&gt;((v1 + 12)))</text>
<text text-anchor="start" x="11.5" y="-104.3" font-family="Times,serif" font-size="14.00"> return 0</text>
</g>
<!-- Node0xe696c60&#45;&gt;Node0xe697bc0 -->
<g id="edge1" class="edge"><title>Node0xe696c60&#45;&gt;Node0xe697bc0</title>
<path fill="none" stroke="black" d="M293,-276.167C293,-267.81 293,-258.741 293,-249.537"/>
<polygon fill="black" stroke="black" points="296.5,-249.523 293,-239.523 289.5,-249.523 296.5,-249.523"/>
</g>
<!-- Node0xe697b40 -->
<g id="node3" class="node"><title>Node0xe697b40</title>
<polygon fill="none" stroke="black" points="266,-23.5 266,-59.5 320,-59.5 320,-23.5 266,-23.5"/>
<text text-anchor="start" x="274" y="-37.8" font-family="Times,serif" font-size="14.00">exit:</text>
</g>
<!-- Node0xe697bc0&#45;&gt;Node0xe697b40 -->
<g id="edge2" class="edge"><title>Node0xe697bc0&#45;&gt;Node0xe697b40</title>
<path fill="none" stroke="black" d="M293,-96.3834C293,-87.0259 293,-77.9253 293,-69.9482"/>
<polygon fill="black" stroke="black" points="296.5,-69.848 293,-59.848 289.5,-69.8481 296.5,-69.848"/>
</g>
</g>
</svg>
