<?xml version="1.0" encoding="UTF-8" standalone="no"?>
<!DOCTYPE svg PUBLIC "-//W3C//DTD SVG 1.1//EN"
 "http://www.w3.org/Graphics/SVG/1.1/DTD/svg11.dtd">
<!-- Generated by graphviz version 2.38.0 (20140413.2041)
 -->
<!-- Title: Control&#45;flow graph for function &#39;__unlock(*a1)&#39;. Pages: 1 -->
<svg width="743pt" height="1089pt"
 viewBox="0.00 0.00 742.50 1089.00" xmlns="http://www.w3.org/2000/svg" xmlns:xlink="http://www.w3.org/1999/xlink">
<g id="graph0" class="graph" transform="scale(1 1) rotate(0) translate(4 1085)">
<title>Control&#45;flow graph for function &#39;__unlock(*a1)&#39;.</title>
<polygon fill="white" stroke="none" points="-4,4 -4,-1085 738.5,-1085 738.5,4 -4,4"/>
<text text-anchor="middle" x="367.25" y="-7.8" font-family="Times,serif" font-size="14.00">Control&#45;flow graph for function &#39;__unlock(*a1)&#39;.</text>
<!-- Node0x13d70710 -->
<g id="node1" class="node"><title>Node0x13d70710</title>
<polygon fill="none" stroke="black" points="109,-1042.5 109,-1080.5 168,-1080.5 168,-1042.5 109,-1042.5"/>
<text text-anchor="start" x="117" y="-1065.3" font-family="Times,serif" font-size="14.00">entry:</text>
<text text-anchor="start" x="117" y="-1050.3" font-family="Times,serif" font-size="14.00"> a1</text>
</g>
<!-- Node0x13d6e9e0 -->
<g id="node2" class="node"><title>Node0x13d6e9e0</title>
<polygon fill="none" stroke="black" points="0,-951.5 0,-1004.5 277,-1004.5 277,-951.5 0,-951.5"/>
<text text-anchor="start" x="8" y="-989.3" font-family="Times,serif" font-size="14.00">v1 = g3</text>
<text text-anchor="start" x="8" y="-974.3" font-family="Times,serif" font-size="14.00"> g6 = PtrToIntCastExpr&lt;int32&gt;(a1)</text>
<text text-anchor="start" x="8" y="-959.3" font-family="Times,serif" font-size="14.00"> v2</text>
</g>
<!-- Node0x13d70710&#45;&gt;Node0x13d6e9e0 -->
<g id="edge1" class="edge"><title>Node0x13d70710&#45;&gt;Node0x13d6e9e0</title>
<path fill="none" stroke="black" d="M138.5,-1042.41C138.5,-1034.28 138.5,-1024.39 138.5,-1014.86"/>
<polygon fill="black" stroke="black" points="142,-1014.77 138.5,-1004.77 135,-1014.77 142,-1014.77"/>
</g>
<!-- Node0x13d6ce00 -->
<g id="node3" class="node"><title>Node0x13d6ce00</title>
<polygon fill="none" stroke="black" points="77,-877.5 77,-913.5 200,-913.5 200,-877.5 77,-877.5"/>
<text text-anchor="start" x="85" y="-891.8" font-family="Times,serif" font-size="14.00">if (*(a1) == 0):</text>
</g>
<!-- Node0x13d6e9e0&#45;&gt;Node0x13d6ce00 -->
<g id="edge2" class="edge"><title>Node0x13d6e9e0&#45;&gt;Node0x13d6ce00</title>
<path fill="none" stroke="black" d="M138.5,-951.086C138.5,-942.46 138.5,-932.822 138.5,-924.075"/>
<polygon fill="black" stroke="black" points="142,-923.973 138.5,-913.974 135,-923.974 142,-923.973"/>
</g>
<!-- Node0x13d6fa50 -->
<g id="node4" class="node"><title>Node0x13d6fa50</title>
<polygon fill="none" stroke="black" points="12,-700.5 12,-768.5 113,-768.5 113,-700.5 12,-700.5"/>
<text text-anchor="start" x="20" y="-753.3" font-family="Times,serif" font-size="14.00">0x807567c:</text>
<text text-anchor="start" x="20" y="-738.3" font-family="Times,serif" font-size="14.00"> g3 = v1</text>
<text text-anchor="start" x="20" y="-723.3" font-family="Times,serif" font-size="14.00"> g5 = v2</text>
<text text-anchor="start" x="20" y="-708.3" font-family="Times,serif" font-size="14.00"> return 0</text>
</g>
<!-- Node0x13d6ce00&#45;&gt;Node0x13d6fa50 -->
<g id="edge3" class="edge"><title>Node0x13d6ce00&#45;&gt;Node0x13d6fa50</title>
<path fill="none" stroke="black" d="M118.567,-877.458C113.101,-872.003 107.568,-865.643 103.5,-859 88.3618,-834.277 78.0983,-803.309 71.6261,-778.569"/>
<polygon fill="black" stroke="black" points="74.987,-777.581 69.1641,-768.73 68.1964,-779.28 74.987,-777.581"/>
<text text-anchor="middle" x="142.5" y="-847.8" font-family="Times,serif" font-size="14.00">*(a1) == 0</text>
</g>
<!-- Node0x13d6f9f0 -->
<g id="node5" class="node"><title>Node0x13d6f9f0</title>
<polygon fill="none" stroke="black" points="201,-787.5 201,-825.5 302,-825.5 302,-787.5 201,-787.5"/>
<text text-anchor="start" x="209" y="-810.3" font-family="Times,serif" font-size="14.00">0x8075648:</text>
<text text-anchor="start" x="209" y="-795.3" font-family="Times,serif" font-size="14.00"> *(a1) = 0</text>
</g>
<!-- Node0x13d6ce00&#45;&gt;Node0x13d6f9f0 -->
<g id="edge4" class="edge"><title>Node0x13d6ce00&#45;&gt;Node0x13d6f9f0</title>
<path fill="none" stroke="black" d="M160.825,-877.312C177.746,-864.284 201.217,-846.214 220.039,-831.722"/>
<polygon fill="black" stroke="black" points="222.266,-834.425 228.054,-825.551 217.995,-828.878 222.266,-834.425"/>
<text text-anchor="middle" x="238.5" y="-847.8" font-family="Times,serif" font-size="14.00">*(a1) != 0</text>
</g>
<!-- Node0x13d6f110 -->
<g id="node6" class="node"><title>Node0x13d6f110</title>
<polygon fill="none" stroke="black" points="98.5,-23.5 98.5,-59.5 152.5,-59.5 152.5,-23.5 98.5,-23.5"/>
<text text-anchor="start" x="106.5" y="-37.8" font-family="Times,serif" font-size="14.00">exit:</text>
</g>
<!-- Node0x13d6fa50&#45;&gt;Node0x13d6f110 -->
<g id="edge5" class="edge"><title>Node0x13d6fa50&#45;&gt;Node0x13d6f110</title>
<path fill="none" stroke="black" d="M61.1579,-700.378C60.3592,-677.858 59.5,-647.386 59.5,-620.5 59.5,-620.5 59.5,-620.5 59.5,-130.5 59.5,-105.162 77.2285,-82.4502 94.3089,-66.4487"/>
<polygon fill="black" stroke="black" points="96.8886,-68.8388 102.045,-59.5835 92.2423,-63.6031 96.8886,-68.8388"/>
</g>
<!-- Node0x13d6f590 -->
<g id="node7" class="node"><title>Node0x13d6f590</title>
<polygon fill="none" stroke="black" points="87.5,-645.5 87.5,-681.5 435.5,-681.5 435.5,-645.5 87.5,-645.5"/>
<text text-anchor="start" x="95.5" y="-659.8" font-family="Times,serif" font-size="14.00">if (*(IntToPtrCastExpr&lt;ptr&gt;((g6 + 4))) == 0):</text>
</g>
<!-- Node0x13d6f9f0&#45;&gt;Node0x13d6f590 -->
<g id="edge6" class="edge"><title>Node0x13d6f9f0&#45;&gt;Node0x13d6f590</title>
<path fill="none" stroke="black" d="M252.787,-787.355C254.508,-763.085 257.575,-719.848 259.572,-691.68"/>
<polygon fill="black" stroke="black" points="263.064,-691.915 260.281,-681.692 256.082,-691.42 263.064,-691.915"/>
</g>
<!-- Node0x13d72730 -->
<g id="node8" class="node"><title>Node0x13d72730</title>
<polygon fill="none" stroke="black" points="75,-378.5 75,-446.5 176,-446.5 176,-378.5 75,-378.5"/>
<text text-anchor="start" x="83" y="-431.3" font-family="Times,serif" font-size="14.00">0x807567c:</text>
<text text-anchor="start" x="83" y="-416.3" font-family="Times,serif" font-size="14.00"> g3 = v1</text>
<text text-anchor="start" x="83" y="-401.3" font-family="Times,serif" font-size="14.00"> g5 = v2</text>
<text text-anchor="start" x="83" y="-386.3" font-family="Times,serif" font-size="14.00"> return 0</text>
</g>
<!-- Node0x13d6f590&#45;&gt;Node0x13d72730 -->
<g id="edge7" class="edge"><title>Node0x13d6f590&#45;&gt;Node0x13d72730</title>
<path fill="none" stroke="black" d="M158.091,-645.453C140.638,-640.523 126.281,-634.416 120.5,-627 82.7295,-578.541 95.953,-503.358 109.979,-456.354"/>
<polygon fill="black" stroke="black" points="113.331,-457.36 112.966,-446.772 106.648,-455.277 113.331,-457.36"/>
<text text-anchor="middle" x="272" y="-615.8" font-family="Times,serif" font-size="14.00">*(IntToPtrCastExpr&lt;ptr&gt;((g6 + 4))) == 0</text>
</g>
<!-- Node0x13d721f0 -->
<g id="node9" class="node"><title>Node0x13d721f0</title>
<polygon fill="none" stroke="black" points="337.5,-465.5 337.5,-593.5 549.5,-593.5 549.5,-465.5 337.5,-465.5"/>
<text text-anchor="start" x="345.5" y="-578.3" font-family="Times,serif" font-size="14.00">0x8075658:</text>
<text text-anchor="start" x="345.5" y="-563.3" font-family="Times,serif" font-size="14.00"> g3 = 240</text>
<text text-anchor="start" x="345.5" y="-548.3" font-family="Times,serif" font-size="14.00"> g5 = 1</text>
<text text-anchor="start" x="345.5" y="-533.3" font-family="Times,serif" font-size="14.00"> g4 = 129</text>
<text text-anchor="start" x="345.5" y="-518.3" font-family="Times,serif" font-size="14.00"> g1 = 240</text>
<text text-anchor="start" x="345.5" y="-503.3" font-family="Times,serif" font-size="14.00"> v3</text>
<text text-anchor="start" x="345.5" y="-488.3" font-family="Times,serif" font-size="14.00"> v4 = __vsyscall(v1, v2, v3)</text>
<text text-anchor="start" x="345.5" y="-473.3" font-family="Times,serif" font-size="14.00"> result = v4</text>
</g>
<!-- Node0x13d6f590&#45;&gt;Node0x13d721f0 -->
<g id="edge8" class="edge"><title>Node0x13d6f590&#45;&gt;Node0x13d721f0</title>
<path fill="none" stroke="black" d="M385.366,-645.43C404.515,-640.582 420.326,-634.514 427.5,-627 433.873,-620.325 438.261,-612.135 441.22,-603.374"/>
<polygon fill="black" stroke="black" points="444.606,-604.26 443.896,-593.689 437.859,-602.396 444.606,-604.26"/>
<text text-anchor="middle" x="586" y="-615.8" font-family="Times,serif" font-size="14.00">*(IntToPtrCastExpr&lt;ptr&gt;((g6 + 4))) != 0</text>
</g>
<!-- Node0x13d72730&#45;&gt;Node0x13d6f110 -->
<g id="edge9" class="edge"><title>Node0x13d72730&#45;&gt;Node0x13d6f110</title>
<path fill="none" stroke="black" d="M125.5,-378.372C125.5,-355.849 125.5,-325.377 125.5,-298.5 125.5,-298.5 125.5,-298.5 125.5,-130.5 125.5,-110.13 125.5,-87.1087 125.5,-69.7225"/>
<polygon fill="black" stroke="black" points="129,-69.6994 125.5,-59.6995 122,-69.6995 129,-69.6994"/>
</g>
<!-- Node0x13d71510 -->
<g id="node10" class="node"><title>Node0x13d71510</title>
<polygon fill="none" stroke="black" points="368,-323.5 368,-359.5 487,-359.5 487,-323.5 368,-323.5"/>
<text text-anchor="start" x="376" y="-337.8" font-family="Times,serif" font-size="14.00">if (v4 == &#45;38):</text>
</g>
<!-- Node0x13d721f0&#45;&gt;Node0x13d71510 -->
<g id="edge10" class="edge"><title>Node0x13d721f0&#45;&gt;Node0x13d71510</title>
<path fill="none" stroke="black" d="M438.061,-465.269C435.267,-432.793 432.008,-394.903 429.857,-369.901"/>
<polygon fill="black" stroke="black" points="433.324,-369.37 428.98,-359.707 426.35,-369.97 433.324,-369.37"/>
</g>
<!-- Node0x13d727d0 -->
<g id="node11" class="node"><title>Node0x13d727d0</title>
<polygon fill="none" stroke="black" points="155.5,-203.5 155.5,-271.5 391.5,-271.5 391.5,-203.5 155.5,-203.5"/>
<text text-anchor="start" x="163.5" y="-256.3" font-family="Times,serif" font-size="14.00">0x8075673:</text>
<text text-anchor="start" x="163.5" y="-241.3" font-family="Times,serif" font-size="14.00"> g1 = g3</text>
<text text-anchor="start" x="163.5" y="-226.3" font-family="Times,serif" font-size="14.00"> g4 = g5</text>
<text text-anchor="start" x="163.5" y="-211.3" font-family="Times,serif" font-size="14.00"> result = __vsyscall(v1, v2, v3)</text>
</g>
<!-- Node0x13d71510&#45;&gt;Node0x13d727d0 -->
<g id="edge11" class="edge"><title>Node0x13d71510&#45;&gt;Node0x13d727d0</title>
<path fill="none" stroke="black" d="M376.111,-323.445C363.961,-318.369 351.384,-312.201 340.5,-305 329.391,-297.649 318.582,-288.263 309.002,-278.874"/>
<polygon fill="black" stroke="black" points="311.453,-276.374 301.932,-271.727 306.477,-281.298 311.453,-276.374"/>
<text text-anchor="middle" x="377" y="-293.8" font-family="Times,serif" font-size="14.00">v4 == &#45;38</text>
</g>
<!-- Node0x13d725c0 -->
<g id="node12" class="node"><title>Node0x13d725c0</title>
<polygon fill="none" stroke="black" points="217,-97.5 217,-165.5 330,-165.5 330,-97.5 217,-97.5"/>
<text text-anchor="start" x="225" y="-150.3" font-family="Times,serif" font-size="14.00">0x807567c:</text>
<text text-anchor="start" x="225" y="-135.3" font-family="Times,serif" font-size="14.00"> g3 = v1</text>
<text text-anchor="start" x="225" y="-120.3" font-family="Times,serif" font-size="14.00"> g5 = v2</text>
<text text-anchor="start" x="225" y="-105.3" font-family="Times,serif" font-size="14.00"> return result</text>
</g>
<!-- Node0x13d71510&#45;&gt;Node0x13d725c0 -->
<g id="edge12" class="edge"><title>Node0x13d71510&#45;&gt;Node0x13d725c0</title>
<path fill="none" stroke="black" d="M428.519,-323.488C429.311,-295.595 427.12,-239.59 400.5,-203 385.309,-182.12 361.953,-166.664 339.394,-155.634"/>
<polygon fill="black" stroke="black" points="340.681,-152.373 330.138,-151.325 337.726,-158.719 340.681,-152.373"/>
<text text-anchor="middle" x="459" y="-233.8" font-family="Times,serif" font-size="14.00">v4 != &#45;38</text>
</g>
<!-- Node0x13d727d0&#45;&gt;Node0x13d725c0 -->
<g id="edge13" class="edge"><title>Node0x13d727d0&#45;&gt;Node0x13d725c0</title>
<path fill="none" stroke="black" d="M273.5,-203.308C273.5,-194.583 273.5,-185.042 273.5,-175.87"/>
<polygon fill="black" stroke="black" points="277,-175.734 273.5,-165.734 270,-175.734 277,-175.734"/>
</g>
<!-- Node0x13d725c0&#45;&gt;Node0x13d6f110 -->
<g id="edge14" class="edge"><title>Node0x13d725c0&#45;&gt;Node0x13d6f110</title>
<path fill="none" stroke="black" d="M217.969,-97.4817C199.145,-86.2889 178.617,-74.0833 161.696,-64.0217"/>
<polygon fill="black" stroke="black" points="163.083,-60.775 152.699,-58.6726 159.506,-66.7918 163.083,-60.775"/>
</g>
</g>
</svg>
