<?xml version="1.0" encoding="UTF-8" standalone="no"?>
<!DOCTYPE svg PUBLIC "-//W3C//DTD SVG 1.1//EN"
 "http://www.w3.org/Graphics/SVG/1.1/DTD/svg11.dtd">
<!-- Generated by graphviz version 2.38.0 (20140413.2041)
 -->
<!-- Title: Control&#45;flow graph for function &#39;mbedtls_ctr_drbg_update(a1, a2, a3)&#39;. Pages: 1 -->
<svg width="529pt" height="947pt"
 viewBox="0.00 0.00 529.00 947.00" xmlns="http://www.w3.org/2000/svg" xmlns:xlink="http://www.w3.org/1999/xlink">
<g id="graph0" class="graph" transform="scale(1 1) rotate(0) translate(4 943)">
<title>Control&#45;flow graph for function &#39;mbedtls_ctr_drbg_update(a1, a2, a3)&#39;.</title>
<polygon fill="white" stroke="none" points="-4,4 -4,-943 525,-943 525,4 -4,4"/>
<text text-anchor="middle" x="260.5" y="-7.8" font-family="Times,serif" font-size="14.00">Control&#45;flow graph for function &#39;mbedtls_ctr_drbg_update(a1, a2, a3)&#39;.</text>
<!-- Node0x18b403a0 -->
<g id="node1" class="node"><title>Node0x18b403a0</title>
<polygon fill="none" stroke="black" points="164,-870.5 164,-938.5 223,-938.5 223,-870.5 164,-870.5"/>
<text text-anchor="start" x="172" y="-923.3" font-family="Times,serif" font-size="14.00">entry:</text>
<text text-anchor="start" x="172" y="-908.3" font-family="Times,serif" font-size="14.00"> a1</text>
<text text-anchor="start" x="172" y="-893.3" font-family="Times,serif" font-size="14.00"> a2</text>
<text text-anchor="start" x="172" y="-878.3" font-family="Times,serif" font-size="14.00"> a3</text>
</g>
<!-- Node0x18b3ea90 -->
<g id="node2" class="node"><title>Node0x18b3ea90</title>
<polygon fill="none" stroke="black" points="143.5,-719.5 143.5,-832.5 243.5,-832.5 243.5,-719.5 143.5,-719.5"/>
<text text-anchor="start" x="151.5" y="-817.3" font-family="Times,serif" font-size="14.00">0x804bf50:</text>
<text text-anchor="start" x="151.5" y="-802.3" font-family="Times,serif" font-size="14.00"> v1</text>
<text text-anchor="start" x="151.5" y="-787.3" font-family="Times,serif" font-size="14.00"> v2 = v1</text>
<text text-anchor="start" x="151.5" y="-772.3" font-family="Times,serif" font-size="14.00"> v3 = g3</text>
<text text-anchor="start" x="151.5" y="-757.3" font-family="Times,serif" font-size="14.00"> v4 = &amp;(v2)</text>
<text text-anchor="start" x="151.5" y="-742.3" font-family="Times,serif" font-size="14.00"> g1 = a3</text>
<text text-anchor="start" x="151.5" y="-727.3" font-family="Times,serif" font-size="14.00"> v5</text>
</g>
<!-- Node0x18b403a0&#45;&gt;Node0x18b3ea90 -->
<g id="edge1" class="edge"><title>Node0x18b403a0&#45;&gt;Node0x18b3ea90</title>
<path fill="none" stroke="black" d="M193.5,-870.264C193.5,-861.679 193.5,-852.135 193.5,-842.521"/>
<polygon fill="black" stroke="black" points="197,-842.513 193.5,-832.514 190,-842.514 197,-842.513"/>
</g>
<!-- Node0x18b3eb90 -->
<g id="node3" class="node"><title>Node0x18b3eb90</title>
<polygon fill="none" stroke="black" points="141,-645.5 141,-681.5 246,-681.5 246,-645.5 141,-645.5"/>
<text text-anchor="start" x="149" y="-659.8" font-family="Times,serif" font-size="14.00">if (a3 == 0):</text>
</g>
<!-- Node0x18b3ea90&#45;&gt;Node0x18b3eb90 -->
<g id="edge2" class="edge"><title>Node0x18b3ea90&#45;&gt;Node0x18b3eb90</title>
<path fill="none" stroke="black" d="M193.5,-719.426C193.5,-709.86 193.5,-700.307 193.5,-691.913"/>
<polygon fill="black" stroke="black" points="197,-691.644 193.5,-681.644 190,-691.644 197,-691.644"/>
</g>
<!-- Node0x1d0c76c0 -->
<g id="node4" class="node"><title>Node0x1d0c76c0</title>
<polygon fill="none" stroke="black" points="97.5,-438.5 97.5,-506.5 195.5,-506.5 195.5,-438.5 97.5,-438.5"/>
<text text-anchor="start" x="105.5" y="-491.3" font-family="Times,serif" font-size="14.00">0x804bf82:</text>
<text text-anchor="start" x="105.5" y="-476.3" font-family="Times,serif" font-size="14.00"> g3 = v3</text>
<text text-anchor="start" x="105.5" y="-461.3" font-family="Times,serif" font-size="14.00"> g2 = v5</text>
<text text-anchor="start" x="105.5" y="-446.3" font-family="Times,serif" font-size="14.00"> return 0</text>
</g>
<!-- Node0x18b3eb90&#45;&gt;Node0x1d0c76c0 -->
<g id="edge3" class="edge"><title>Node0x18b3eb90&#45;&gt;Node0x1d0c76c0</title>
<path fill="none" stroke="black" d="M164.605,-645.231C158.549,-640.162 152.956,-634.051 149.5,-627 132.669,-592.661 133.761,-548.599 137.974,-516.497"/>
<polygon fill="black" stroke="black" points="141.448,-516.924 139.432,-506.523 134.522,-515.911 141.448,-516.924"/>
<text text-anchor="middle" x="179.5" y="-615.8" font-family="Times,serif" font-size="14.00">a3 == 0</text>
</g>
<!-- Node0x18b3ece0 -->
<g id="node5" class="node"><title>Node0x18b3ece0</title>
<polygon fill="none" stroke="black" points="199,-525.5 199,-593.5 296,-593.5 296,-525.5 199,-525.5"/>
<text text-anchor="start" x="207" y="-578.3" font-family="Times,serif" font-size="14.00">0x804bf5e:</text>
<text text-anchor="start" x="207" y="-563.3" font-family="Times,serif" font-size="14.00"> g6 = a2</text>
<text text-anchor="start" x="207" y="-548.3" font-family="Times,serif" font-size="14.00"> g4 = 384</text>
<text text-anchor="start" x="207" y="-533.3" font-family="Times,serif" font-size="14.00"> g3 = v4</text>
</g>
<!-- Node0x18b3eb90&#45;&gt;Node0x18b3ece0 -->
<g id="edge4" class="edge"><title>Node0x18b3eb90&#45;&gt;Node0x18b3ece0</title>
<path fill="none" stroke="black" d="M203.407,-645.244C206.671,-639.471 210.287,-632.983 213.5,-627 217.69,-619.198 222.064,-610.826 226.226,-602.743"/>
<polygon fill="black" stroke="black" points="229.37,-604.282 230.814,-593.786 223.14,-601.091 229.37,-604.282"/>
<text text-anchor="middle" x="248.5" y="-615.8" font-family="Times,serif" font-size="14.00">a3 != 0</text>
</g>
<!-- Node0x18b3ea30 -->
<g id="node6" class="node"><title>Node0x18b3ea30</title>
<polygon fill="none" stroke="black" points="162.5,-23.5 162.5,-59.5 216.5,-59.5 216.5,-23.5 162.5,-23.5"/>
<text text-anchor="start" x="170.5" y="-37.8" font-family="Times,serif" font-size="14.00">exit:</text>
</g>
<!-- Node0x1d0c76c0&#45;&gt;Node0x18b3ea30 -->
<g id="edge5" class="edge"><title>Node0x1d0c76c0&#45;&gt;Node0x18b3ea30</title>
<path fill="none" stroke="black" d="M146.053,-438.372C145.786,-415.85 145.5,-385.378 145.5,-358.5 145.5,-358.5 145.5,-358.5 145.5,-175.5 145.5,-136.897 162.414,-95.0356 175.269,-68.7958"/>
<polygon fill="black" stroke="black" points="178.559,-70.0461 179.953,-59.5434 172.313,-66.8843 178.559,-70.0461"/>
</g>
<!-- Node0x4e13020 -->
<g id="node7" class="node"><title>Node0x4e13020</title>
<polygon fill="none" stroke="black" points="194,-383.5 194,-419.5 305,-419.5 305,-383.5 194,-383.5"/>
<text text-anchor="start" x="202" y="-397.8" font-family="Times,serif" font-size="14.00">if (a3 &lt; 385):</text>
</g>
<!-- Node0x18b3ece0&#45;&gt;Node0x4e13020 -->
<g id="edge6" class="edge"><title>Node0x18b3ece0&#45;&gt;Node0x4e13020</title>
<path fill="none" stroke="black" d="M247.924,-525.416C248.289,-496.96 248.809,-456.405 249.15,-429.777"/>
<polygon fill="black" stroke="black" points="252.652,-429.676 249.28,-419.632 245.652,-429.586 252.652,-429.676"/>
</g>
<!-- Node0x18b3ed40 -->
<g id="node8" class="node"><title>Node0x18b3ed40</title>
<polygon fill="none" stroke="black" points="174,-293.5 174,-331.5 325,-331.5 325,-293.5 174,-293.5"/>
<text text-anchor="start" x="182" y="-316.3" font-family="Times,serif" font-size="14.00">if_804bf6e_0_true:</text>
<text text-anchor="start" x="182" y="-301.3" font-family="Times,serif" font-size="14.00"> g4 = a3</text>
</g>
<!-- Node0x4e13020&#45;&gt;Node0x18b3ed40 -->
<g id="edge7" class="edge"><title>Node0x4e13020&#45;&gt;Node0x18b3ed40</title>
<path fill="none" stroke="black" d="M249.5,-383.312C249.5,-371.511 249.5,-355.572 249.5,-341.904"/>
<polygon fill="black" stroke="black" points="253,-341.551 249.5,-331.551 246,-341.551 253,-341.551"/>
<text text-anchor="middle" x="282.5" y="-353.8" font-family="Times,serif" font-size="14.00">a3 &lt; 385</text>
</g>
<!-- Node0x1d0c7660 -->
<g id="node9" class="node"><title>Node0x1d0c7660</title>
<polygon fill="none" stroke="black" points="173.5,-97.5 173.5,-255.5 423.5,-255.5 423.5,-97.5 173.5,-97.5"/>
<text text-anchor="start" x="181.5" y="-240.3" font-family="Times,serif" font-size="14.00">after_if_804bf6e_0:</text>
<text text-anchor="start" x="181.5" y="-225.3" font-family="Times,serif" font-size="14.00"> g1 = v4</text>
<text text-anchor="start" x="181.5" y="-210.3" font-family="Times,serif" font-size="14.00"> block_cipher_df(v1, 0, 0)</text>
<text text-anchor="start" x="181.5" y="-195.3" font-family="Times,serif" font-size="14.00"> g1 = a1</text>
<text text-anchor="start" x="181.5" y="-180.3" font-family="Times,serif" font-size="14.00"> g6 = v4</text>
<text text-anchor="start" x="181.5" y="-165.3" font-family="Times,serif" font-size="14.00"> ctr_drbg_update_internal(v2, 0)</text>
<text text-anchor="start" x="181.5" y="-150.3" font-family="Times,serif" font-size="14.00"> g1 = 0</text>
<text text-anchor="start" x="181.5" y="-135.3" font-family="Times,serif" font-size="14.00"> g3 = v3</text>
<text text-anchor="start" x="181.5" y="-120.3" font-family="Times,serif" font-size="14.00"> g2 = v5</text>
<text text-anchor="start" x="181.5" y="-105.3" font-family="Times,serif" font-size="14.00"> return 0</text>
</g>
<!-- Node0x4e13020&#45;&gt;Node0x1d0c7660 -->
<g id="edge8" class="edge"><title>Node0x4e13020&#45;&gt;Node0x1d0c7660</title>
<path fill="none" stroke="black" d="M294.393,-383.422C303.494,-378.482 312.43,-372.379 319.5,-365 330.646,-353.367 331.089,-347.746 334.5,-332 339.177,-310.408 337.388,-287.179 332.727,-265.457"/>
<polygon fill="black" stroke="black" points="336.102,-264.522 330.396,-255.595 329.29,-266.132 336.102,-264.522"/>
<text text-anchor="middle" x="375.5" y="-308.8" font-family="Times,serif" font-size="14.00">a3 &gt;= 385</text>
</g>
<!-- Node0x18b3ed40&#45;&gt;Node0x1d0c7660 -->
<g id="edge9" class="edge"><title>Node0x18b3ed40&#45;&gt;Node0x1d0c7660</title>
<path fill="none" stroke="black" d="M256.108,-293.428C258.977,-285.582 262.566,-275.768 266.434,-265.191"/>
<polygon fill="black" stroke="black" points="269.746,-266.324 269.893,-255.73 263.172,-263.92 269.746,-266.324"/>
</g>
<!-- Node0x1d0c7660&#45;&gt;Node0x18b3ea30 -->
<g id="edge10" class="edge"><title>Node0x1d0c7660&#45;&gt;Node0x18b3ea30</title>
<path fill="none" stroke="black" d="M234.464,-97.3641C225.614,-86.566 217.111,-76.1903 209.927,-67.4243"/>
<polygon fill="black" stroke="black" points="212.52,-65.0674 203.475,-59.5516 207.106,-69.5045 212.52,-65.0674"/>
</g>
</g>
</svg>
