<?xml version="1.0" encoding="UTF-8" standalone="no"?>
<!DOCTYPE svg PUBLIC "-//W3C//DTD SVG 1.1//EN"
 "http://www.w3.org/Graphics/SVG/1.1/DTD/svg11.dtd">
<!-- Generated by graphviz version 2.38.0 (20140413.2041)
 -->
<!-- Title: Control&#45;flow graph for function &#39;mbedtls_cipher_init(*a1)&#39;. Pages: 1 -->
<svg width="442pt" height="248pt"
 viewBox="0.00 0.00 442.00 248.00" xmlns="http://www.w3.org/2000/svg" xmlns:xlink="http://www.w3.org/1999/xlink">
<g id="graph0" class="graph" transform="scale(1 1) rotate(0) translate(4 244)">
<title>Control&#45;flow graph for function &#39;mbedtls_cipher_init(*a1)&#39;.</title>
<polygon fill="white" stroke="none" points="-4,4 -4,-244 438,-244 438,4 -4,4"/>
<text text-anchor="middle" x="217" y="-7.8" font-family="Times,serif" font-size="14.00">Control&#45;flow graph for function &#39;mbedtls_cipher_init(*a1)&#39;.</text>
<!-- Node0x26ff0660 -->
<g id="node1" class="node"><title>Node0x26ff0660</title>
<polygon fill="none" stroke="black" points="187.5,-201.5 187.5,-239.5 246.5,-239.5 246.5,-201.5 187.5,-201.5"/>
<text text-anchor="start" x="195.5" y="-224.3" font-family="Times,serif" font-size="14.00">entry:</text>
<text text-anchor="start" x="195.5" y="-209.3" font-family="Times,serif" font-size="14.00"> a1</text>
</g>
<!-- Node0x98c1340 -->
<g id="node2" class="node"><title>Node0x98c1340</title>
<polygon fill="none" stroke="black" points="22.5,-96.5 22.5,-164.5 411.5,-164.5 411.5,-96.5 22.5,-96.5"/>
<text text-anchor="start" x="30.5" y="-149.3" font-family="Times,serif" font-size="14.00">0x806a470:</text>
<text text-anchor="start" x="30.5" y="-134.3" font-family="Times,serif" font-size="14.00"> g6 = PtrToIntCastExpr&lt;int32&gt;(a1)</text>
<text text-anchor="start" x="30.5" y="-119.3" font-family="Times,serif" font-size="14.00"> g4 = PtrToIntCastExpr&lt;int32&gt;(memset(a1, 0, 16))</text>
<text text-anchor="start" x="30.5" y="-104.3" font-family="Times,serif" font-size="14.00"> return 0</text>
</g>
<!-- Node0x26ff0660&#45;&gt;Node0x98c1340 -->
<g id="edge1" class="edge"><title>Node0x26ff0660&#45;&gt;Node0x98c1340</title>
<path fill="none" stroke="black" d="M217,-201.266C217,-193.502 217,-184.086 217,-174.717"/>
<polygon fill="black" stroke="black" points="220.5,-174.649 217,-164.65 213.5,-174.65 220.5,-174.649"/>
</g>
<!-- Node0x1d0bf150 -->
<g id="node3" class="node"><title>Node0x1d0bf150</title>
<polygon fill="none" stroke="black" points="190,-23.5 190,-59.5 244,-59.5 244,-23.5 190,-23.5"/>
<text text-anchor="start" x="198" y="-37.8" font-family="Times,serif" font-size="14.00">exit:</text>
</g>
<!-- Node0x98c1340&#45;&gt;Node0x1d0bf150 -->
<g id="edge2" class="edge"><title>Node0x98c1340&#45;&gt;Node0x1d0bf150</title>
<path fill="none" stroke="black" d="M217,-96.1123C217,-87.3522 217,-78.0128 217,-69.6246"/>
<polygon fill="black" stroke="black" points="220.5,-69.6235 217,-59.6235 213.5,-69.6235 220.5,-69.6235"/>
</g>
</g>
</svg>
