<?xml version="1.0" encoding="UTF-8" standalone="no"?>
<!DOCTYPE svg PUBLIC "-//W3C//DTD SVG 1.1//EN"
 "http://www.w3.org/Graphics/SVG/1.1/DTD/svg11.dtd">
<!-- Generated by graphviz version 2.38.0 (20140413.2041)
 -->
<!-- Title: Control&#45;flow graph for function &#39;mbedtls_timing_get_delay(a1)&#39;. Pages: 1 -->
<svg width="746pt" height="661pt"
 viewBox="0.00 0.00 746.00 661.00" xmlns="http://www.w3.org/2000/svg" xmlns:xlink="http://www.w3.org/1999/xlink">
<g id="graph0" class="graph" transform="scale(1 1) rotate(0) translate(4 657)">
<title>Control&#45;flow graph for function &#39;mbedtls_timing_get_delay(a1)&#39;.</title>
<polygon fill="white" stroke="none" points="-4,4 -4,-657 742,-657 742,4 -4,4"/>
<text text-anchor="middle" x="369" y="-7.8" font-family="Times,serif" font-size="14.00">Control&#45;flow graph for function &#39;mbedtls_timing_get_delay(a1)&#39;.</text>
<!-- Node0x27b8e490 -->
<g id="node1" class="node"><title>Node0x27b8e490</title>
<polygon fill="none" stroke="black" points="186.5,-614.5 186.5,-652.5 245.5,-652.5 245.5,-614.5 186.5,-614.5"/>
<text text-anchor="start" x="194.5" y="-637.3" font-family="Times,serif" font-size="14.00">entry:</text>
<text text-anchor="start" x="194.5" y="-622.3" font-family="Times,serif" font-size="14.00"> a1</text>
</g>
<!-- Node0x27b8e610 -->
<g id="node2" class="node"><title>Node0x27b8e610</title>
<polygon fill="none" stroke="black" points="165.5,-508.5 165.5,-576.5 266.5,-576.5 266.5,-508.5 165.5,-508.5"/>
<text text-anchor="start" x="173.5" y="-561.3" font-family="Times,serif" font-size="14.00">0x80558e0:</text>
<text text-anchor="start" x="173.5" y="-546.3" font-family="Times,serif" font-size="14.00"> g1 = &#45;1</text>
<text text-anchor="start" x="173.5" y="-531.3" font-family="Times,serif" font-size="14.00"> v1 = g3</text>
<text text-anchor="start" x="173.5" y="-516.3" font-family="Times,serif" font-size="14.00"> g3 = a1</text>
</g>
<!-- Node0x27b8e490&#45;&gt;Node0x27b8e610 -->
<g id="edge1" class="edge"><title>Node0x27b8e490&#45;&gt;Node0x27b8e610</title>
<path fill="none" stroke="black" d="M216,-614.49C216,-606.422 216,-596.529 216,-586.718"/>
<polygon fill="black" stroke="black" points="219.5,-586.605 216,-576.605 212.5,-586.605 219.5,-586.605"/>
</g>
<!-- Node0x27b8e700 -->
<g id="node3" class="node"><title>Node0x27b8e700</title>
<polygon fill="none" stroke="black" points="38,-434.5 38,-470.5 394,-470.5 394,-434.5 38,-434.5"/>
<text text-anchor="start" x="46" y="-448.8" font-family="Times,serif" font-size="14.00">if (*(IntToPtrCastExpr&lt;ptr&gt;((a1 + 36))) == 0):</text>
</g>
<!-- Node0x27b8e610&#45;&gt;Node0x27b8e700 -->
<g id="edge2" class="edge"><title>Node0x27b8e610&#45;&gt;Node0x27b8e700</title>
<path fill="none" stroke="black" d="M216,-508.482C216,-499.328 216,-489.497 216,-480.715"/>
<polygon fill="black" stroke="black" points="219.5,-480.64 216,-470.64 212.5,-480.64 219.5,-480.64"/>
</g>
<!-- Node0x27b8e510 -->
<g id="node4" class="node"><title>Node0x27b8e510</title>
<polygon fill="none" stroke="black" points="0,-272.5 0,-325.5 98,-325.5 98,-272.5 0,-272.5"/>
<text text-anchor="start" x="8" y="-310.3" font-family="Times,serif" font-size="14.00">0x80558f6:</text>
<text text-anchor="start" x="8" y="-295.3" font-family="Times,serif" font-size="14.00"> g3 = v1</text>
<text text-anchor="start" x="8" y="-280.3" font-family="Times,serif" font-size="14.00"> return &#45;1</text>
</g>
<!-- Node0x27b8e700&#45;&gt;Node0x27b8e510 -->
<g id="edge3" class="edge"><title>Node0x27b8e700&#45;&gt;Node0x27b8e510</title>
<path fill="none" stroke="black" d="M83.6343,-434.402C66.1817,-429.635 52.1803,-423.604 46,-416 28.0205,-393.878 30.8339,-360.77 36.947,-335.58"/>
<polygon fill="black" stroke="black" points="40.3953,-336.235 39.6159,-325.669 33.6361,-334.415 40.3953,-336.235"/>
<text text-anchor="middle" x="201.5" y="-404.8" font-family="Times,serif" font-size="14.00">*(IntToPtrCastExpr&lt;ptr&gt;((a1 + 36))) == 0</text>
</g>
<!-- Node0x27b8ebb0 -->
<g id="node5" class="node"><title>Node0x27b8ebb0</title>
<polygon fill="none" stroke="black" points="146.5,-344.5 146.5,-382.5 619.5,-382.5 619.5,-344.5 146.5,-344.5"/>
<text text-anchor="start" x="154.5" y="-367.3" font-family="Times,serif" font-size="14.00">v2 = mbedtls_timing_get_timer(IntToPtrCastExpr&lt;ptr&gt;(a1), 0)</text>
<text text-anchor="start" x="154.5" y="-352.3" font-family="Times,serif" font-size="14.00"> g1 = 2</text>
</g>
<!-- Node0x27b8e700&#45;&gt;Node0x27b8ebb0 -->
<g id="edge4" class="edge"><title>Node0x27b8e700&#45;&gt;Node0x27b8ebb0</title>
<path fill="none" stroke="black" d="M330.648,-434.44C341.632,-429.668 352.008,-423.629 361,-416 368.218,-409.876 373.128,-400.961 376.441,-392.264"/>
<polygon fill="black" stroke="black" points="379.788,-393.29 379.542,-382.698 373.129,-391.132 379.788,-393.29"/>
<text text-anchor="middle" x="525.5" y="-404.8" font-family="Times,serif" font-size="14.00">*(IntToPtrCastExpr&lt;ptr&gt;((a1 + 36))) != 0</text>
</g>
<!-- Node0x27b8e590 -->
<g id="node6" class="node"><title>Node0x27b8e590</title>
<polygon fill="none" stroke="black" points="99,-23.5 99,-59.5 153,-59.5 153,-23.5 99,-23.5"/>
<text text-anchor="start" x="107" y="-37.8" font-family="Times,serif" font-size="14.00">exit:</text>
</g>
<!-- Node0x27b8e510&#45;&gt;Node0x27b8e590 -->
<g id="edge5" class="edge"><title>Node0x27b8e510&#45;&gt;Node0x27b8e590</title>
<path fill="none" stroke="black" d="M45.8721,-272.342C42.2022,-232.566 39.7896,-154.608 68,-97 73.754,-85.2499 83.1863,-74.736 92.7886,-66.1512"/>
<polygon fill="black" stroke="black" points="95.0634,-68.8114 100.459,-59.6933 90.555,-63.4565 95.0634,-68.8114"/>
</g>
<!-- Node0x27b8ecf0 -->
<g id="node7" class="node"><title>Node0x27b8ecf0</title>
<polygon fill="none" stroke="black" points="200.5,-217.5 200.5,-253.5 565.5,-253.5 565.5,-217.5 200.5,-217.5"/>
<text text-anchor="start" x="208.5" y="-231.8" font-family="Times,serif" font-size="14.00">if (v2 &gt;= *(IntToPtrCastExpr&lt;ptr&gt;((g3 + 36)))):</text>
</g>
<!-- Node0x27b8ebb0&#45;&gt;Node0x27b8ecf0 -->
<g id="edge6" class="edge"><title>Node0x27b8ebb0&#45;&gt;Node0x27b8ecf0</title>
<path fill="none" stroke="black" d="M383,-344.447C383,-323.345 383,-288.205 383,-263.773"/>
<polygon fill="black" stroke="black" points="386.5,-263.71 383,-253.71 379.5,-263.71 386.5,-263.71"/>
</g>
<!-- Node0x27b8f310 -->
<g id="node8" class="node"><title>Node0x27b8f310</title>
<polygon fill="none" stroke="black" points="77,-105 77,-158 175,-158 175,-105 77,-105"/>
<text text-anchor="start" x="85" y="-142.8" font-family="Times,serif" font-size="14.00">0x80558f6:</text>
<text text-anchor="start" x="85" y="-127.8" font-family="Times,serif" font-size="14.00"> g3 = v1</text>
<text text-anchor="start" x="85" y="-112.8" font-family="Times,serif" font-size="14.00"> return 2</text>
</g>
<!-- Node0x27b8ecf0&#45;&gt;Node0x27b8f310 -->
<g id="edge7" class="edge"><title>Node0x27b8ecf0&#45;&gt;Node0x27b8f310</title>
<path fill="none" stroke="black" d="M200.172,-220.727C150.883,-215.169 108.874,-207.928 101,-199 93.0963,-190.039 94.7544,-178.337 99.8694,-167.252"/>
<polygon fill="black" stroke="black" points="103.115,-168.612 104.845,-158.159 96.9742,-165.252 103.115,-168.612"/>
<text text-anchor="middle" x="261" y="-187.8" font-family="Times,serif" font-size="14.00">v2 &gt;= *(IntToPtrCastExpr&lt;ptr&gt;((g3 + 36)))</text>
</g>
<!-- Node0x27b8f1d0 -->
<g id="node9" class="node"><title>Node0x27b8f1d0</title>
<polygon fill="none" stroke="black" points="217,-97.5 217,-165.5 627,-165.5 627,-97.5 217,-97.5"/>
<text text-anchor="start" x="225" y="-150.3" font-family="Times,serif" font-size="14.00">result = (v2 &gt;= *(IntToPtrCastExpr&lt;ptr&gt;((g3 + 32))))</text>
<text text-anchor="start" x="225" y="-135.3" font-family="Times,serif" font-size="14.00"> g1 = result</text>
<text text-anchor="start" x="225" y="-120.3" font-family="Times,serif" font-size="14.00"> g3 = v1</text>
<text text-anchor="start" x="225" y="-105.3" font-family="Times,serif" font-size="14.00"> return result</text>
</g>
<!-- Node0x27b8ecf0&#45;&gt;Node0x27b8f1d0 -->
<g id="edge8" class="edge"><title>Node0x27b8ecf0&#45;&gt;Node0x27b8f1d0</title>
<path fill="none" stroke="black" d="M410.265,-217.435C416.21,-212.296 421.704,-206.101 425,-199 428.281,-191.93 429.626,-183.969 429.826,-176.078"/>
<polygon fill="black" stroke="black" points="433.316,-175.708 429.496,-165.825 426.319,-175.933 433.316,-175.708"/>
<text text-anchor="middle" x="584" y="-187.8" font-family="Times,serif" font-size="14.00">v2 &lt; *(IntToPtrCastExpr&lt;ptr&gt;((g3 + 36)))</text>
</g>
<!-- Node0x27b8f310&#45;&gt;Node0x27b8e590 -->
<g id="edge9" class="edge"><title>Node0x27b8f310&#45;&gt;Node0x27b8e590</title>
<path fill="none" stroke="black" d="M126,-104.573C126,-93.5849 126,-80.7766 126,-69.6581"/>
<polygon fill="black" stroke="black" points="129.5,-69.6304 126,-59.6304 122.5,-69.6305 129.5,-69.6304"/>
</g>
<!-- Node0x27b8f1d0&#45;&gt;Node0x27b8e590 -->
<g id="edge10" class="edge"><title>Node0x27b8f1d0&#45;&gt;Node0x27b8e590</title>
<path fill="none" stroke="black" d="M310.938,-97.4817C258.757,-81.9682 200.03,-64.5089 163.032,-53.5096"/>
<polygon fill="black" stroke="black" points="163.78,-50.0804 153.197,-50.5855 161.785,-56.7902 163.78,-50.0804"/>
</g>
</g>
</svg>
