<?xml version="1.0" encoding="UTF-8" standalone="no"?>
<!DOCTYPE svg PUBLIC "-//W3C//DTD SVG 1.1//EN"
 "http://www.w3.org/Graphics/SVG/1.1/DTD/svg11.dtd">
<!-- Generated by graphviz version 2.38.0 (20140413.2041)
 -->
<!-- Title: Control&#45;flow graph for function &#39;__malloc0(size)&#39;. Pages: 1 -->
<svg width="935pt" height="1199pt"
 viewBox="0.00 0.00 935.06 1199.00" xmlns="http://www.w3.org/2000/svg" xmlns:xlink="http://www.w3.org/1999/xlink">
<g id="graph0" class="graph" transform="scale(1 1) rotate(0) translate(4 1195)">
<title>Control&#45;flow graph for function &#39;__malloc0(size)&#39;.</title>
<polygon fill="white" stroke="none" points="-4,4 -4,-1195 931.055,-1195 931.055,4 -4,4"/>
<text text-anchor="middle" x="463.528" y="-7.8" font-family="Times,serif" font-size="14.00">Control&#45;flow graph for function &#39;__malloc0(size)&#39;.</text>
<!-- Node0x194c0450 -->
<g id="node1" class="node"><title>Node0x194c0450</title>
<polygon fill="none" stroke="black" points="219.555,-1152.5 219.555,-1190.5 278.555,-1190.5 278.555,-1152.5 219.555,-1152.5"/>
<text text-anchor="start" x="227.555" y="-1175.3" font-family="Times,serif" font-size="14.00">entry:</text>
<text text-anchor="start" x="227.555" y="-1160.3" font-family="Times,serif" font-size="14.00"> size</text>
</g>
<!-- Node0x194c3e90 -->
<g id="node2" class="node"><title>Node0x194c3e90</title>
<polygon fill="none" stroke="black" points="102.055,-1076.5 102.055,-1114.5 396.055,-1114.5 396.055,-1076.5 102.055,-1076.5"/>
<text text-anchor="start" x="110.055" y="-1099.3" font-family="Times,serif" font-size="14.00">mem = malloc(size)</text>
<text text-anchor="start" x="110.055" y="-1084.3" font-family="Times,serif" font-size="14.00"> v1 = PtrToIntCastExpr&lt;int32&gt;(mem)</text>
</g>
<!-- Node0x194c0450&#45;&gt;Node0x194c3e90 -->
<g id="edge1" class="edge"><title>Node0x194c0450&#45;&gt;Node0x194c3e90</title>
<path fill="none" stroke="black" d="M249.055,-1152.21C249.055,-1143.96 249.055,-1134.04 249.055,-1124.86"/>
<polygon fill="black" stroke="black" points="252.556,-1124.58 249.055,-1114.58 245.556,-1124.58 252.556,-1124.58"/>
</g>
<!-- Node0x194c3f80 -->
<g id="node3" class="node"><title>Node0x194c3f80</title>
<polygon fill="none" stroke="black" points="0.555443,-1002.5 0.555443,-1038.5 497.555,-1038.5 497.555,-1002.5 0.555443,-1002.5"/>
<text text-anchor="start" x="8.55544" y="-1016.8" font-family="Times,serif" font-size="14.00">if ((mem == NULL) or (*(IntToPtrCastExpr&lt;ptr&gt;((v1 &#45; 4))) == 1)):</text>
</g>
<!-- Node0x194c3e90&#45;&gt;Node0x194c3f80 -->
<g id="edge2" class="edge"><title>Node0x194c3e90&#45;&gt;Node0x194c3f80</title>
<path fill="none" stroke="black" d="M249.055,-1076.46C249.055,-1068.2 249.055,-1058.24 249.055,-1049.07"/>
<polygon fill="black" stroke="black" points="252.556,-1048.83 249.055,-1038.83 245.556,-1048.83 252.556,-1048.83"/>
</g>
<!-- Node0x17cb93a0 -->
<g id="node4" class="node"><title>Node0x17cb93a0</title>
<polygon fill="none" stroke="black" points="98.5554,-857.5 98.5554,-895.5 205.555,-895.5 205.555,-857.5 98.5554,-857.5"/>
<text text-anchor="start" x="106.555" y="-880.3" font-family="Times,serif" font-size="14.00">0x807233c:</text>
<text text-anchor="start" x="106.555" y="-865.3" font-family="Times,serif" font-size="14.00"> return mem</text>
</g>
<!-- Node0x194c3f80&#45;&gt;Node0x17cb93a0 -->
<g id="edge3" class="edge"><title>Node0x194c3f80&#45;&gt;Node0x17cb93a0</title>
<path fill="none" stroke="black" d="M44.2836,-1002.43C28.225,-997.684 15.6598,-991.653 9.05544,-984 -22.4538,-947.487 37.3574,-915.971 89.004,-896.893"/>
<polygon fill="black" stroke="black" points="90.2972,-900.148 98.5287,-893.477 87.9341,-893.559 90.2972,-900.148"/>
<text text-anchor="middle" x="234.555" y="-972.8" font-family="Times,serif" font-size="14.00">(mem == NULL) or (*(IntToPtrCastExpr&lt;ptr&gt;((v1 &#45; 4))) == 1)</text>
</g>
<!-- Node0x194c4630 -->
<g id="node5" class="node"><title>Node0x194c4630</title>
<polygon fill="none" stroke="black" points="421.555,-914.5 421.555,-950.5 544.555,-950.5 544.555,-914.5 421.555,-914.5"/>
<text text-anchor="start" x="429.555" y="-928.8" font-family="Times,serif" font-size="14.00">v2 = (size + 3)</text>
</g>
<!-- Node0x194c3f80&#45;&gt;Node0x194c4630 -->
<g id="edge4" class="edge"><title>Node0x194c3f80&#45;&gt;Node0x194c4630</title>
<path fill="none" stroke="black" d="M414.927,-1002.45C436.723,-997.692 454.734,-991.651 464.055,-984 471.237,-978.105 475.706,-969.197 478.486,-960.496"/>
<polygon fill="black" stroke="black" points="481.938,-961.126 481.035,-950.57 475.158,-959.385 481.938,-961.126"/>
<text text-anchor="middle" x="701.555" y="-972.8" font-family="Times,serif" font-size="14.00">(mem != NULL) and (*(IntToPtrCastExpr&lt;ptr&gt;((v1 &#45; 4))) != 1)</text>
</g>
<!-- Node0x194c3e10 -->
<g id="node6" class="node"><title>Node0x194c3e10</title>
<polygon fill="none" stroke="black" points="200.055,-23.5 200.055,-59.5 254.055,-59.5 254.055,-23.5 200.055,-23.5"/>
<text text-anchor="start" x="208.055" y="-37.8" font-family="Times,serif" font-size="14.00">exit:</text>
</g>
<!-- Node0x17cb93a0&#45;&gt;Node0x194c3e10 -->
<g id="edge5" class="edge"><title>Node0x17cb93a0&#45;&gt;Node0x194c3e10</title>
<path fill="none" stroke="black" d="M162.747,-857.402C173.04,-838.238 187.055,-806.768 187.055,-777.5 187.055,-777.5 187.055,-777.5 187.055,-123 187.055,-103.04 197.04,-82.9313 207.032,-67.8043"/>
<polygon fill="black" stroke="black" points="209.969,-69.7107 212.84,-59.5122 204.236,-65.6945 209.969,-69.7107"/>
</g>
<!-- Node0x194c4770 -->
<g id="node7" class="node"><title>Node0x194c4770</title>
<polygon fill="none" stroke="black" points="349.555,-802.5 349.555,-838.5 442.555,-838.5 442.555,-802.5 349.555,-802.5"/>
<text text-anchor="start" x="357.555" y="-816.8" font-family="Times,serif" font-size="14.00">if (v2 &lt; 4):</text>
</g>
<!-- Node0x194c4630&#45;&gt;Node0x194c4770 -->
<g id="edge6" class="edge"><title>Node0x194c4630&#45;&gt;Node0x194c4770</title>
<path fill="none" stroke="black" d="M469.462,-914.312C455.097,-896.15 432.298,-867.324 415.919,-846.615"/>
<polygon fill="black" stroke="black" points="418.502,-844.239 409.554,-838.567 413.012,-848.581 418.502,-844.239"/>
</g>
<!-- Node0x194c46e0 -->
<g id="node8" class="node"><title>Node0x194c46e0</title>
<polygon fill="none" stroke="black" points="213.555,-657.5 213.555,-695.5 320.555,-695.5 320.555,-657.5 213.555,-657.5"/>
<text text-anchor="start" x="221.555" y="-680.3" font-family="Times,serif" font-size="14.00">0x807233c:</text>
<text text-anchor="start" x="221.555" y="-665.3" font-family="Times,serif" font-size="14.00"> return mem</text>
</g>
<!-- Node0x194c4770&#45;&gt;Node0x194c46e0 -->
<g id="edge7" class="edge"><title>Node0x194c4770&#45;&gt;Node0x194c46e0</title>
<path fill="none" stroke="black" d="M367.17,-802.369C359.247,-797.001 350.948,-790.709 344.055,-784 319.34,-759.942 296.963,-727.16 282.782,-704.346"/>
<polygon fill="black" stroke="black" points="285.6,-702.245 277.403,-695.533 279.625,-705.892 285.6,-702.245"/>
<text text-anchor="middle" x="368.055" y="-772.8" font-family="Times,serif" font-size="14.00">v2 &lt; 4</text>
</g>
<!-- Node0x17cb9220 -->
<g id="node9" class="node"><title>Node0x17cb9220</title>
<polygon fill="none" stroke="black" points="343.555,-714.5 343.555,-750.5 448.555,-750.5 448.555,-714.5 343.555,-714.5"/>
<text text-anchor="start" x="351.555" y="-728.8" font-family="Times,serif" font-size="14.00">v3 = (v2 / 4)</text>
</g>
<!-- Node0x194c4770&#45;&gt;Node0x17cb9220 -->
<g id="edge8" class="edge"><title>Node0x194c4770&#45;&gt;Node0x17cb9220</title>
<path fill="none" stroke="black" d="M396.055,-802.097C396.055,-790.246 396.055,-774.317 396.055,-760.792"/>
<polygon fill="black" stroke="black" points="399.556,-760.584 396.055,-750.584 392.556,-760.584 399.556,-760.584"/>
<text text-anchor="middle" x="426.055" y="-772.8" font-family="Times,serif" font-size="14.00">v2 &gt;= 4</text>
</g>
<!-- Node0x194c46e0&#45;&gt;Node0x194c3e10 -->
<g id="edge9" class="edge"><title>Node0x194c46e0&#45;&gt;Node0x194c3e10</title>
<path fill="none" stroke="black" d="M254.618,-657.252C242.876,-638.22 227.055,-607.086 227.055,-577.5 227.055,-577.5 227.055,-577.5 227.055,-123 227.055,-105.286 227.055,-85.379 227.055,-69.7932"/>
<polygon fill="black" stroke="black" points="230.556,-69.7734 227.055,-59.7734 223.556,-69.7735 230.556,-69.7734"/>
</g>
<!-- Node0x17cb9300 -->
<g id="node10" class="node"><title>Node0x17cb9300</title>
<polygon fill="none" stroke="black" points="347.555,-602.5 347.555,-638.5 444.555,-638.5 444.555,-602.5 347.555,-602.5"/>
<text text-anchor="start" x="355.555" y="-616.8" font-family="Times,serif" font-size="14.00">while True:</text>
</g>
<!-- Node0x17cb9220&#45;&gt;Node0x17cb9300 -->
<g id="edge10" class="edge"><title>Node0x17cb9220&#45;&gt;Node0x17cb9300</title>
<path fill="none" stroke="black" d="M396.055,-714.312C396.055,-696.715 396.055,-669.107 396.055,-648.571"/>
<polygon fill="black" stroke="black" points="399.556,-648.567 396.055,-638.567 392.556,-648.567 399.556,-648.567"/>
</g>
<!-- Node0x17cb9420 -->
<g id="node11" class="node"><title>Node0x17cb9420</title>
<polygon fill="none" stroke="black" points="255.055,-514.5 255.055,-550.5 511.055,-550.5 511.055,-514.5 255.055,-514.5"/>
<text text-anchor="start" x="263.055" y="-528.8" font-family="Times,serif" font-size="14.00">v4 = IntToPtrCastExpr&lt;ptr&gt;(v1)</text>
</g>
<!-- Node0x17cb9300&#45;&gt;Node0x17cb9420 -->
<g id="edge11" class="edge"><title>Node0x17cb9300&#45;&gt;Node0x17cb9420</title>
<path fill="none" stroke="black" d="M393.425,-602.097C391.633,-590.246 389.225,-574.317 387.181,-560.792"/>
<polygon fill="black" stroke="black" points="390.593,-559.949 385.638,-550.584 383.672,-560.995 390.593,-559.949"/>
<text text-anchor="middle" x="408.055" y="-572.8" font-family="Times,serif" font-size="14.00">True</text>
</g>
<!-- Node0x194c3cb0 -->
<g id="node12" class="node"><title>Node0x194c3cb0</title>
<polygon fill="none" stroke="black" points="324.555,-440.5 324.555,-476.5 441.555,-476.5 441.555,-440.5 324.555,-440.5"/>
<text text-anchor="start" x="332.555" y="-454.8" font-family="Times,serif" font-size="14.00">if (*(v4) != 0):</text>
</g>
<!-- Node0x17cb9420&#45;&gt;Node0x194c3cb0 -->
<g id="edge12" class="edge"><title>Node0x17cb9420&#45;&gt;Node0x194c3cb0</title>
<path fill="none" stroke="black" d="M383.055,-514.437C383.055,-506.307 383.055,-496.376 383.055,-487.205"/>
<polygon fill="black" stroke="black" points="386.556,-486.941 383.055,-476.941 379.556,-486.941 386.556,-486.941"/>
</g>
<!-- Node0x17cb9d90 -->
<g id="node13" class="node"><title>Node0x17cb9d90</title>
<polygon fill="none" stroke="black" points="275.555,-350.5 275.555,-388.5 376.555,-388.5 376.555,-350.5 275.555,-350.5"/>
<text text-anchor="start" x="283.555" y="-373.3" font-family="Times,serif" font-size="14.00">0x8072331:</text>
<text text-anchor="start" x="283.555" y="-358.3" font-family="Times,serif" font-size="14.00"> *(v4) = 0</text>
</g>
<!-- Node0x194c3cb0&#45;&gt;Node0x17cb9d90 -->
<g id="edge13" class="edge"><title>Node0x194c3cb0&#45;&gt;Node0x17cb9d90</title>
<path fill="none" stroke="black" d="M344.723,-440.44C337.675,-435.521 331.233,-429.423 327.055,-422 323.152,-415.064 321.842,-406.726 321.793,-398.8"/>
<polygon fill="black" stroke="black" points="325.291,-398.946 322.345,-388.768 318.301,-398.561 325.291,-398.946"/>
<text text-anchor="middle" x="363.055" y="-410.8" font-family="Times,serif" font-size="14.00">*(v4) != 0</text>
</g>
<!-- Node0x17cb9980 -->
<g id="node14" class="node"><title>Node0x17cb9980</title>
<polygon fill="none" stroke="black" points="332.555,-276.5 332.555,-312.5 437.555,-312.5 437.555,-276.5 332.555,-276.5"/>
<text text-anchor="start" x="340.555" y="-290.8" font-family="Times,serif" font-size="14.00">v5 = (v3 &#45; 1)</text>
</g>
<!-- Node0x194c3cb0&#45;&gt;Node0x17cb9980 -->
<g id="edge14" class="edge"><title>Node0x194c3cb0&#45;&gt;Node0x17cb9980</title>
<path fill="none" stroke="black" d="M392.564,-440.308C395.208,-434.649 397.72,-428.213 399.055,-422 406.32,-388.204 399.477,-348.472 393.056,-322.68"/>
<polygon fill="black" stroke="black" points="396.402,-321.64 390.464,-312.865 389.634,-323.428 396.402,-321.64"/>
<text text-anchor="middle" x="442.055" y="-365.8" font-family="Times,serif" font-size="14.00">*(v4) == 0</text>
</g>
<!-- Node0x17cb9d90&#45;&gt;Node0x17cb9980 -->
<g id="edge15" class="edge"><title>Node0x17cb9d90&#45;&gt;Node0x17cb9980</title>
<path fill="none" stroke="black" d="M340.64,-350.455C347.891,-341.483 356.774,-330.492 364.685,-320.704"/>
<polygon fill="black" stroke="black" points="367.481,-322.812 371.045,-312.835 362.037,-318.412 367.481,-322.812"/>
</g>
<!-- Node0x8e47db0 -->
<g id="node15" class="node"><title>Node0x8e47db0</title>
<polygon fill="none" stroke="black" points="332.555,-202.5 332.555,-238.5 437.555,-238.5 437.555,-202.5 332.555,-202.5"/>
<text text-anchor="start" x="340.555" y="-216.8" font-family="Times,serif" font-size="14.00">if (v5 == 0):</text>
</g>
<!-- Node0x17cb9980&#45;&gt;Node0x8e47db0 -->
<g id="edge16" class="edge"><title>Node0x17cb9980&#45;&gt;Node0x8e47db0</title>
<path fill="none" stroke="black" d="M385.055,-276.437C385.055,-268.307 385.055,-258.376 385.055,-249.205"/>
<polygon fill="black" stroke="black" points="388.556,-248.941 385.055,-238.941 381.556,-248.941 388.556,-248.941"/>
</g>
<!-- Node0x17cb9e10 -->
<g id="node16" class="node"><title>Node0x17cb9e10</title>
<polygon fill="none" stroke="black" points="265.555,-105 265.555,-143 372.555,-143 372.555,-105 265.555,-105"/>
<text text-anchor="start" x="273.555" y="-127.8" font-family="Times,serif" font-size="14.00">0x807233c:</text>
<text text-anchor="start" x="273.555" y="-112.8" font-family="Times,serif" font-size="14.00"> return mem</text>
</g>
<!-- Node0x8e47db0&#45;&gt;Node0x17cb9e10 -->
<g id="edge17" class="edge"><title>Node0x8e47db0&#45;&gt;Node0x17cb9e10</title>
<path fill="none" stroke="black" d="M372.95,-202.167C363.091,-188.05 349.004,-167.881 337.705,-151.703"/>
<polygon fill="black" stroke="black" points="340.354,-149.383 331.759,-143.189 334.615,-153.392 340.354,-149.383"/>
<text text-anchor="middle" x="390.055" y="-172.8" font-family="Times,serif" font-size="14.00">v5 == 0</text>
</g>
<!-- Node0x17cb9b50 -->
<g id="node17" class="node"><title>Node0x17cb9b50</title>
<polygon fill="none" stroke="black" points="440.555,-97.5 440.555,-150.5 557.555,-150.5 557.555,-97.5 440.555,-97.5"/>
<text text-anchor="start" x="448.555" y="-135.3" font-family="Times,serif" font-size="14.00">0x8072328:</text>
<text text-anchor="start" x="448.555" y="-120.3" font-family="Times,serif" font-size="14.00"> v3 = v5</text>
<text text-anchor="start" x="448.555" y="-105.3" font-family="Times,serif" font-size="14.00"> v1 = (v1 + 4)</text>
</g>
<!-- Node0x8e47db0&#45;&gt;Node0x17cb9b50 -->
<g id="edge18" class="edge"><title>Node0x8e47db0&#45;&gt;Node0x17cb9b50</title>
<path fill="none" stroke="black" d="M405.7,-202.387C420.835,-189.841 441.838,-172.43 460.091,-157.3"/>
<polygon fill="black" stroke="black" points="462.787,-159.611 468.252,-150.534 458.32,-154.221 462.787,-159.611"/>
<text text-anchor="middle" x="473.055" y="-172.8" font-family="Times,serif" font-size="14.00">v5 != 0</text>
</g>
<!-- Node0x17cb9e10&#45;&gt;Node0x194c3e10 -->
<g id="edge19" class="edge"><title>Node0x17cb9e10&#45;&gt;Node0x194c3e10</title>
<path fill="none" stroke="black" d="M298.179,-104.733C285.239,-93.4102 268.471,-78.7388 254.467,-66.4852"/>
<polygon fill="black" stroke="black" points="256.421,-63.5446 246.591,-59.5935 251.812,-68.8126 256.421,-63.5446"/>
</g>
<!-- Node0x17cb9b50&#45;&gt;Node0x17cb9300 -->
<g id="edge20" class="edge"><title>Node0x17cb9b50&#45;&gt;Node0x17cb9300</title>
<path fill="none" stroke="black" d="M516.484,-150.657C527.263,-169.005 539.055,-194.737 539.055,-219.5 539.055,-533.5 539.055,-533.5 539.055,-533.5 539.055,-575.029 494.216,-597.015 454.754,-608.322"/>
<polygon fill="black" stroke="black" points="453.621,-605.003 444.868,-610.973 455.433,-611.764 453.621,-605.003"/>
</g>
</g>
</svg>
