<?xml version="1.0" encoding="UTF-8" standalone="no"?>
<!DOCTYPE svg PUBLIC "-//W3C//DTD SVG 1.1//EN"
 "http://www.w3.org/Graphics/SVG/1.1/DTD/svg11.dtd">
<!-- Generated by graphviz version 2.38.0 (20140413.2041)
 -->
<!-- Title: Control&#45;flow graph for function &#39;md5_process_wrap(a1)&#39;. Pages: 1 -->
<svg width="451pt" height="278pt"
 viewBox="0.00 0.00 451.00 278.00" xmlns="http://www.w3.org/2000/svg" xmlns:xlink="http://www.w3.org/1999/xlink">
<g id="graph0" class="graph" transform="scale(1 1) rotate(0) translate(4 274)">
<title>Control&#45;flow graph for function &#39;md5_process_wrap(a1)&#39;.</title>
<polygon fill="white" stroke="none" points="-4,4 -4,-274 447,-274 447,4 -4,4"/>
<text text-anchor="middle" x="221.5" y="-7.8" font-family="Times,serif" font-size="14.00">Control&#45;flow graph for function &#39;md5_process_wrap(a1)&#39;.</text>
<!-- Node0x15aeb0a0 -->
<g id="node1" class="node"><title>Node0x15aeb0a0</title>
<polygon fill="none" stroke="black" points="192,-231.5 192,-269.5 251,-269.5 251,-231.5 192,-231.5"/>
<text text-anchor="start" x="200" y="-254.3" font-family="Times,serif" font-size="14.00">entry:</text>
<text text-anchor="start" x="200" y="-239.3" font-family="Times,serif" font-size="14.00"> a1</text>
</g>
<!-- Node0x9c73f90 -->
<g id="node2" class="node"><title>Node0x9c73f90</title>
<polygon fill="none" stroke="black" points="0,-96.5 0,-194.5 443,-194.5 443,-96.5 0,-96.5"/>
<text text-anchor="start" x="8" y="-179.3" font-family="Times,serif" font-size="14.00">0x8062e40:</text>
<text text-anchor="start" x="8" y="-164.3" font-family="Times,serif" font-size="14.00"> v1</text>
<text text-anchor="start" x="8" y="-149.3" font-family="Times,serif" font-size="14.00"> result</text>
<text text-anchor="start" x="8" y="-134.3" font-family="Times,serif" font-size="14.00"> mbedtls_md5_process(result, IntToPtrCastExpr&lt;ptr&gt;(v1))</text>
<text text-anchor="start" x="8" y="-119.3" font-family="Times,serif" font-size="14.00"> g1 = result</text>
<text text-anchor="start" x="8" y="-104.3" font-family="Times,serif" font-size="14.00"> return result</text>
</g>
<!-- Node0x15aeb0a0&#45;&gt;Node0x9c73f90 -->
<g id="edge1" class="edge"><title>Node0x15aeb0a0&#45;&gt;Node0x9c73f90</title>
<path fill="none" stroke="black" d="M221.5,-231.086C221.5,-223.607 221.5,-214.513 221.5,-205.097"/>
<polygon fill="black" stroke="black" points="225,-204.814 221.5,-194.814 218,-204.815 225,-204.814"/>
</g>
<!-- Node0x9c73f10 -->
<g id="node3" class="node"><title>Node0x9c73f10</title>
<polygon fill="none" stroke="black" points="194.5,-23.5 194.5,-59.5 248.5,-59.5 248.5,-23.5 194.5,-23.5"/>
<text text-anchor="start" x="202.5" y="-37.8" font-family="Times,serif" font-size="14.00">exit:</text>
</g>
<!-- Node0x9c73f90&#45;&gt;Node0x9c73f10 -->
<g id="edge2" class="edge"><title>Node0x9c73f90&#45;&gt;Node0x9c73f10</title>
<path fill="none" stroke="black" d="M221.5,-96.4868C221.5,-87.2893 221.5,-77.9618 221.5,-69.7064"/>
<polygon fill="black" stroke="black" points="225,-69.5725 221.5,-59.5725 218,-69.5725 225,-69.5725"/>
</g>
</g>
</svg>
