<?xml version="1.0" encoding="UTF-8" standalone="no"?>
<!DOCTYPE svg PUBLIC "-//W3C//DTD SVG 1.1//EN"
 "http://www.w3.org/Graphics/SVG/1.1/DTD/svg11.dtd">
<!-- Generated by graphviz version 2.38.0 (20140413.2041)
 -->
<!-- Title: Control&#45;flow graph for function &#39;mbedtls_hmac_drbg_update(*a1, a2, a3)&#39;. Pages: 1 -->
<svg width="1610pt" height="1755pt"
 viewBox="0.00 0.00 1610.00 1755.00" xmlns="http://www.w3.org/2000/svg" xmlns:xlink="http://www.w3.org/1999/xlink">
<g id="graph0" class="graph" transform="scale(1 1) rotate(0) translate(4 1751)">
<title>Control&#45;flow graph for function &#39;mbedtls_hmac_drbg_update(*a1, a2, a3)&#39;.</title>
<polygon fill="white" stroke="none" points="-4,4 -4,-1751 1606,-1751 1606,4 -4,4"/>
<text text-anchor="middle" x="801" y="-7.8" font-family="Times,serif" font-size="14.00">Control&#45;flow graph for function &#39;mbedtls_hmac_drbg_update(*a1, a2, a3)&#39;.</text>
<!-- Node0xef4f010 -->
<g id="node1" class="node"><title>Node0xef4f010</title>
<polygon fill="none" stroke="black" points="895.5,-1678.5 895.5,-1746.5 954.5,-1746.5 954.5,-1678.5 895.5,-1678.5"/>
<text text-anchor="start" x="903.5" y="-1731.3" font-family="Times,serif" font-size="14.00">entry:</text>
<text text-anchor="start" x="903.5" y="-1716.3" font-family="Times,serif" font-size="14.00"> a1</text>
<text text-anchor="start" x="903.5" y="-1701.3" font-family="Times,serif" font-size="14.00"> a2</text>
<text text-anchor="start" x="903.5" y="-1686.3" font-family="Times,serif" font-size="14.00"> a3</text>
</g>
<!-- Node0xef4f790 -->
<g id="node2" class="node"><title>Node0xef4f790</title>
<polygon fill="none" stroke="black" points="786.5,-1452.5 786.5,-1640.5 1063.5,-1640.5 1063.5,-1452.5 786.5,-1452.5"/>
<text text-anchor="start" x="794.5" y="-1625.3" font-family="Times,serif" font-size="14.00">v1 = g5</text>
<text text-anchor="start" x="794.5" y="-1610.3" font-family="Times,serif" font-size="14.00"> v2 = g7</text>
<text text-anchor="start" x="794.5" y="-1595.3" font-family="Times,serif" font-size="14.00"> v3 = g3</text>
<text text-anchor="start" x="794.5" y="-1580.3" font-family="Times,serif" font-size="14.00"> g3 = PtrToIntCastExpr&lt;int32&gt;(a1)</text>
<text text-anchor="start" x="794.5" y="-1565.3" font-family="Times,serif" font-size="14.00"> v4 = mbedtls_md_get_size(*(a1))</text>
<text text-anchor="start" x="794.5" y="-1550.3" font-family="Times,serif" font-size="14.00"> g6 = a3</text>
<text text-anchor="start" x="794.5" y="-1535.3" font-family="Times,serif" font-size="14.00"> g7 = (v4 % 256)</text>
<text text-anchor="start" x="794.5" y="-1520.3" font-family="Times,serif" font-size="14.00"> v5</text>
<text text-anchor="start" x="794.5" y="-1505.3" font-family="Times,serif" font-size="14.00"> v6</text>
<text text-anchor="start" x="794.5" y="-1490.3" font-family="Times,serif" font-size="14.00"> v7</text>
<text text-anchor="start" x="794.5" y="-1475.3" font-family="Times,serif" font-size="14.00"> v8</text>
<text text-anchor="start" x="794.5" y="-1460.3" font-family="Times,serif" font-size="14.00"> v9</text>
</g>
<!-- Node0xef4f010&#45;&gt;Node0xef4f790 -->
<g id="edge1" class="edge"><title>Node0xef4f010&#45;&gt;Node0xef4f790</title>
<path fill="none" stroke="black" d="M925,-1678.31C925,-1670.05 925,-1660.74 925,-1651"/>
<polygon fill="black" stroke="black" points="928.5,-1650.71 925,-1640.71 921.5,-1650.71 928.5,-1650.71"/>
</g>
<!-- Node0xef4f690 -->
<g id="node3" class="node"><title>Node0xef4f690</title>
<polygon fill="none" stroke="black" points="875.5,-1378.5 875.5,-1414.5 974.5,-1414.5 974.5,-1378.5 875.5,-1378.5"/>
<text text-anchor="start" x="883.5" y="-1392.8" font-family="Times,serif" font-size="14.00">if (a3 != 0):</text>
</g>
<!-- Node0xef4f790&#45;&gt;Node0xef4f690 -->
<g id="edge2" class="edge"><title>Node0xef4f790&#45;&gt;Node0xef4f690</title>
<path fill="none" stroke="black" d="M925,-1452.19C925,-1442.35 925,-1433 925,-1424.9"/>
<polygon fill="black" stroke="black" points="928.5,-1424.71 925,-1414.71 921.5,-1424.71 928.5,-1424.71"/>
</g>
<!-- Node0xef4fd20 -->
<g id="node4" class="node"><title>Node0xef4fd20</title>
<polygon fill="none" stroke="black" points="762,-1288.5 762,-1326.5 866,-1326.5 866,-1288.5 762,-1288.5"/>
<text text-anchor="start" x="770" y="-1311.3" font-family="Times,serif" font-size="14.00">0x80618d0:</text>
<text text-anchor="start" x="770" y="-1296.3" font-family="Times,serif" font-size="14.00"> if (a2 != 0):</text>
</g>
<!-- Node0xef4f690&#45;&gt;Node0xef4fd20 -->
<g id="edge3" class="edge"><title>Node0xef4f690&#45;&gt;Node0xef4fd20</title>
<path fill="none" stroke="black" d="M903.07,-1378.31C886.523,-1365.34 863.6,-1347.38 845.153,-1332.92"/>
<polygon fill="black" stroke="black" points="847.061,-1329.97 837.031,-1326.55 842.742,-1335.47 847.061,-1329.97"/>
<text text-anchor="middle" x="907" y="-1348.8" font-family="Times,serif" font-size="14.00">a3 != 0</text>
</g>
<!-- Node0xef4fbb0 -->
<g id="node5" class="node"><title>Node0xef4fbb0</title>
<polygon fill="none" stroke="black" points="1018.5,-1171.5 1018.5,-1269.5 1145.5,-1269.5 1145.5,-1171.5 1018.5,-1171.5"/>
<text text-anchor="start" x="1026.5" y="-1254.3" font-family="Times,serif" font-size="14.00">0x80618db:</text>
<text text-anchor="start" x="1026.5" y="-1239.3" font-family="Times,serif" font-size="14.00"> v8 = 1</text>
<text text-anchor="start" x="1026.5" y="-1224.3" font-family="Times,serif" font-size="14.00"> v6 = 0</text>
<text text-anchor="start" x="1026.5" y="-1209.3" font-family="Times,serif" font-size="14.00"> v9 = g3</text>
<text text-anchor="start" x="1026.5" y="-1194.3" font-family="Times,serif" font-size="14.00"> g5 = (v9 + 12)</text>
<text text-anchor="start" x="1026.5" y="-1179.3" font-family="Times,serif" font-size="14.00"> v5 = &amp;(v7)</text>
</g>
<!-- Node0xef4f690&#45;&gt;Node0xef4fbb0 -->
<g id="edge4" class="edge"><title>Node0xef4f690&#45;&gt;Node0xef4fbb0</title>
<path fill="none" stroke="black" d="M940.34,-1378.5C961.286,-1355.29 999.844,-1312.55 1031.45,-1277.52"/>
<polygon fill="black" stroke="black" points="1034.39,-1279.49 1038.49,-1269.72 1029.19,-1274.8 1034.39,-1279.49"/>
<text text-anchor="middle" x="997" y="-1348.8" font-family="Times,serif" font-size="14.00">a3 == 0</text>
</g>
<!-- Node0xef50770 -->
<g id="node6" class="node"><title>Node0xef50770</title>
<polygon fill="none" stroke="black" points="750.5,-937.5 750.5,-1035.5 877.5,-1035.5 877.5,-937.5 750.5,-937.5"/>
<text text-anchor="start" x="758.5" y="-1020.3" font-family="Times,serif" font-size="14.00">v8 = 2</text>
<text text-anchor="start" x="758.5" y="-1005.3" font-family="Times,serif" font-size="14.00"> v6 = 0</text>
<text text-anchor="start" x="758.5" y="-990.3" font-family="Times,serif" font-size="14.00"> v9 = g3</text>
<text text-anchor="start" x="758.5" y="-975.3" font-family="Times,serif" font-size="14.00"> g5 = (v9 + 12)</text>
<text text-anchor="start" x="758.5" y="-960.3" font-family="Times,serif" font-size="14.00"> v5 = &amp;(v7)</text>
<text text-anchor="start" x="758.5" y="-945.3" font-family="Times,serif" font-size="14.00"> v10 = v9</text>
</g>
<!-- Node0xef4fd20&#45;&gt;Node0xef50770 -->
<g id="edge5" class="edge"><title>Node0xef4fd20&#45;&gt;Node0xef50770</title>
<path fill="none" stroke="black" d="M814,-1288.44C814,-1242.49 814,-1119.6 814,-1045.85"/>
<polygon fill="black" stroke="black" points="817.5,-1045.78 814,-1035.78 810.5,-1045.78 817.5,-1045.78"/>
<text text-anchor="middle" x="841" y="-1216.8" font-family="Times,serif" font-size="14.00">a2 != 0</text>
</g>
<!-- Node0xef50190 -->
<g id="node7" class="node"><title>Node0xef50190</title>
<polygon fill="none" stroke="black" points="436.5,-1054.5 436.5,-1152.5 563.5,-1152.5 563.5,-1054.5 436.5,-1054.5"/>
<text text-anchor="start" x="444.5" y="-1137.3" font-family="Times,serif" font-size="14.00">0x80618db:</text>
<text text-anchor="start" x="444.5" y="-1122.3" font-family="Times,serif" font-size="14.00"> v8 = 1</text>
<text text-anchor="start" x="444.5" y="-1107.3" font-family="Times,serif" font-size="14.00"> v6 = 0</text>
<text text-anchor="start" x="444.5" y="-1092.3" font-family="Times,serif" font-size="14.00"> v9 = g3</text>
<text text-anchor="start" x="444.5" y="-1077.3" font-family="Times,serif" font-size="14.00"> g5 = (v9 + 12)</text>
<text text-anchor="start" x="444.5" y="-1062.3" font-family="Times,serif" font-size="14.00"> v5 = &amp;(v7)</text>
</g>
<!-- Node0xef4fd20&#45;&gt;Node0xef50190 -->
<g id="edge6" class="edge"><title>Node0xef4fd20&#45;&gt;Node0xef50190</title>
<path fill="none" stroke="black" d="M768.937,-1288.39C756.707,-1282.95 743.635,-1276.65 732,-1270 674.375,-1237.07 613.436,-1193.2 568.481,-1158.91"/>
<polygon fill="black" stroke="black" points="570.343,-1155.92 560.277,-1152.62 566.085,-1161.48 570.343,-1155.92"/>
<text text-anchor="middle" x="762" y="-1216.8" font-family="Times,serif" font-size="14.00">a2 == 0</text>
</g>
<!-- Node0xef4fca0 -->
<g id="node8" class="node"><title>Node0xef4fca0</title>
<polygon fill="none" stroke="black" points="1141.5,-882.5 1141.5,-918.5 1238.5,-918.5 1238.5,-882.5 1141.5,-882.5"/>
<text text-anchor="start" x="1149.5" y="-896.8" font-family="Times,serif" font-size="14.00">while True:</text>
</g>
<!-- Node0xef4fbb0&#45;&gt;Node0xef4fca0 -->
<g id="edge7" class="edge"><title>Node0xef4fbb0&#45;&gt;Node0xef4fca0</title>
<path fill="none" stroke="black" d="M1098.4,-1171.2C1121.46,-1103.3 1162.69,-981.92 1180.91,-928.264"/>
<polygon fill="black" stroke="black" points="1184.23,-929.361 1184.14,-918.766 1177.61,-927.11 1184.23,-929.361"/>
</g>
<!-- Node0xef508a0 -->
<g id="node9" class="node"><title>Node0xef508a0</title>
<polygon fill="none" stroke="black" points="765.5,-778.5 765.5,-814.5 862.5,-814.5 862.5,-778.5 765.5,-778.5"/>
<text text-anchor="start" x="773.5" y="-792.8" font-family="Times,serif" font-size="14.00">while True:</text>
</g>
<!-- Node0xef50770&#45;&gt;Node0xef508a0 -->
<g id="edge8" class="edge"><title>Node0xef50770&#45;&gt;Node0xef508a0</title>
<path fill="none" stroke="black" d="M814,-937.085C814,-901.584 814,-854.637 814,-825.254"/>
<polygon fill="black" stroke="black" points="817.5,-824.913 814,-814.913 810.5,-824.913 817.5,-824.913"/>
</g>
<!-- Node0xef501f0 -->
<g id="node10" class="node"><title>Node0xef501f0</title>
<polygon fill="none" stroke="black" points="328.5,-882.5 328.5,-918.5 425.5,-918.5 425.5,-882.5 328.5,-882.5"/>
<text text-anchor="start" x="336.5" y="-896.8" font-family="Times,serif" font-size="14.00">while True:</text>
</g>
<!-- Node0xef50190&#45;&gt;Node0xef501f0 -->
<g id="edge9" class="edge"><title>Node0xef50190&#45;&gt;Node0xef501f0</title>
<path fill="none" stroke="black" d="M470.538,-1054.36C446.217,-1014.61 412.619,-959.707 393.012,-927.666"/>
<polygon fill="black" stroke="black" points="395.842,-925.585 387.637,-918.882 389.871,-929.239 395.842,-925.585"/>
</g>
<!-- Node0xef50380 -->
<g id="node11" class="node"><title>Node0xef50380</title>
<polygon fill="none" stroke="black" points="910,-762.5 910,-830.5 1602,-830.5 1602,-762.5 910,-762.5"/>
<text text-anchor="start" x="918" y="-815.3" font-family="Times,serif" font-size="14.00">0x8061935:</text>
<text text-anchor="start" x="918" y="-800.3" font-family="Times,serif" font-size="14.00"> mbedtls_md_hmac_reset(IntToPtrCastExpr&lt;ptr&gt;(v9))</text>
<text text-anchor="start" x="918" y="-785.3" font-family="Times,serif" font-size="14.00"> mbedtls_md_hmac_update(IntToPtrCastExpr&lt;ptr&gt;(g3), g5, g7)</text>
<text text-anchor="start" x="918" y="-770.3" font-family="Times,serif" font-size="14.00"> mbedtls_md_hmac_update(IntToPtrCastExpr&lt;ptr&gt;(g3), PtrToIntCastExpr&lt;int32&gt;(&amp;(v6)), 1)</text>
</g>
<!-- Node0xef4fca0&#45;&gt;Node0xef50380 -->
<g id="edge10" class="edge"><title>Node0xef4fca0&#45;&gt;Node0xef50380</title>
<path fill="none" stroke="black" d="M1201.2,-882.197C1208.82,-870.414 1219.26,-854.287 1228.98,-839.265"/>
<polygon fill="black" stroke="black" points="1232.09,-840.887 1234.59,-830.59 1226.22,-837.084 1232.09,-840.887"/>
<text text-anchor="middle" x="1238" y="-852.8" font-family="Times,serif" font-size="14.00">True</text>
</g>
<!-- Node0xef502f0 -->
<g id="node12" class="node"><title>Node0xef502f0</title>
<polygon fill="none" stroke="black" points="508,-642.5 508,-710.5 1200,-710.5 1200,-642.5 508,-642.5"/>
<text text-anchor="start" x="516" y="-695.3" font-family="Times,serif" font-size="14.00">0x8061935:</text>
<text text-anchor="start" x="516" y="-680.3" font-family="Times,serif" font-size="14.00"> mbedtls_md_hmac_reset(IntToPtrCastExpr&lt;ptr&gt;(v10))</text>
<text text-anchor="start" x="516" y="-665.3" font-family="Times,serif" font-size="14.00"> mbedtls_md_hmac_update(IntToPtrCastExpr&lt;ptr&gt;(g3), g5, g7)</text>
<text text-anchor="start" x="516" y="-650.3" font-family="Times,serif" font-size="14.00"> mbedtls_md_hmac_update(IntToPtrCastExpr&lt;ptr&gt;(g3), PtrToIntCastExpr&lt;int32&gt;(&amp;(v6)), 1)</text>
</g>
<!-- Node0xef508a0&#45;&gt;Node0xef502f0 -->
<g id="edge11" class="edge"><title>Node0xef508a0&#45;&gt;Node0xef502f0</title>
<path fill="none" stroke="black" d="M819.816,-778.342C824.956,-763.181 832.669,-740.425 839.469,-720.365"/>
<polygon fill="black" stroke="black" points="842.823,-721.374 842.719,-710.779 836.194,-719.126 842.823,-721.374"/>
<text text-anchor="middle" x="854" y="-732.8" font-family="Times,serif" font-size="14.00">True</text>
</g>
<!-- Node0xef50920 -->
<g id="node13" class="node"><title>Node0xef50920</title>
<polygon fill="none" stroke="black" points="0,-762.5 0,-830.5 692,-830.5 692,-762.5 0,-762.5"/>
<text text-anchor="start" x="8" y="-815.3" font-family="Times,serif" font-size="14.00">0x8061935:</text>
<text text-anchor="start" x="8" y="-800.3" font-family="Times,serif" font-size="14.00"> mbedtls_md_hmac_reset(IntToPtrCastExpr&lt;ptr&gt;(v9))</text>
<text text-anchor="start" x="8" y="-785.3" font-family="Times,serif" font-size="14.00"> mbedtls_md_hmac_update(IntToPtrCastExpr&lt;ptr&gt;(g3), g5, g7)</text>
<text text-anchor="start" x="8" y="-770.3" font-family="Times,serif" font-size="14.00"> mbedtls_md_hmac_update(IntToPtrCastExpr&lt;ptr&gt;(g3), PtrToIntCastExpr&lt;int32&gt;(&amp;(v6)), 1)</text>
</g>
<!-- Node0xef501f0&#45;&gt;Node0xef50920 -->
<g id="edge12" class="edge"><title>Node0xef501f0&#45;&gt;Node0xef50920</title>
<path fill="none" stroke="black" d="M371.741,-882.197C368.261,-870.744 363.533,-855.188 359.078,-840.531"/>
<polygon fill="black" stroke="black" points="362.313,-839.14 356.057,-830.59 355.616,-841.176 362.313,-839.14"/>
<text text-anchor="middle" x="384" y="-852.8" font-family="Times,serif" font-size="14.00">True</text>
</g>
<!-- Node0xc5c6120 -->
<g id="node14" class="node"><title>Node0xc5c6120</title>
<polygon fill="none" stroke="black" points="1218.5,-658.5 1218.5,-694.5 1323.5,-694.5 1323.5,-658.5 1218.5,-658.5"/>
<text text-anchor="start" x="1226.5" y="-672.8" font-family="Times,serif" font-size="14.00">if (v8 == 2):</text>
</g>
<!-- Node0xef50380&#45;&gt;Node0xc5c6120 -->
<g id="edge13" class="edge"><title>Node0xef50380&#45;&gt;Node0xc5c6120</title>
<path fill="none" stroke="black" d="M1260.22,-762.316C1262.53,-744.139 1265.36,-721.89 1267.54,-704.74"/>
<polygon fill="black" stroke="black" points="1271.01,-705.165 1268.8,-694.803 1264.07,-704.282 1271.01,-705.165"/>
</g>
<!-- Node0xef50010 -->
<g id="node15" class="node"><title>Node0xef50010</title>
<polygon fill="none" stroke="black" points="801.5,-554.5 801.5,-590.5 906.5,-590.5 906.5,-554.5 801.5,-554.5"/>
<text text-anchor="start" x="809.5" y="-568.8" font-family="Times,serif" font-size="14.00">if (v8 == 2):</text>
</g>
<!-- Node0xef502f0&#45;&gt;Node0xef50010 -->
<g id="edge14" class="edge"><title>Node0xef502f0&#45;&gt;Node0xef50010</title>
<path fill="none" stroke="black" d="M854,-642.384C854,-628.932 854,-613.579 854,-600.787"/>
<polygon fill="black" stroke="black" points="857.5,-600.742 854,-590.742 850.5,-600.742 857.5,-600.742"/>
</g>
<!-- Node0xef50a10 -->
<g id="node16" class="node"><title>Node0xef50a10</title>
<polygon fill="none" stroke="black" points="384.5,-658.5 384.5,-694.5 489.5,-694.5 489.5,-658.5 384.5,-658.5"/>
<text text-anchor="start" x="392.5" y="-672.8" font-family="Times,serif" font-size="14.00">if (v8 == 2):</text>
</g>
<!-- Node0xef50920&#45;&gt;Node0xef50a10 -->
<g id="edge15" class="edge"><title>Node0xef50920&#45;&gt;Node0xef50a10</title>
<path fill="none" stroke="black" d="M371.591,-762.316C386.138,-743.453 404.067,-720.205 417.473,-702.821"/>
<polygon fill="black" stroke="black" points="420.321,-704.86 423.656,-694.803 414.777,-700.585 420.321,-704.86"/>
</g>
<!-- Node0x17a6de90 -->
<g id="node17" class="node"><title>Node0x17a6de90</title>
<polygon fill="none" stroke="black" points="996.5,-554.5 996.5,-590.5 1145.5,-590.5 1145.5,-554.5 996.5,-554.5"/>
<text text-anchor="start" x="1004.5" y="-568.8" font-family="Times,serif" font-size="14.00">goto 0x806196e_2</text>
</g>
<!-- Node0xc5c6120&#45;&gt;Node0x17a6de90 -->
<g id="edge16" class="edge"><title>Node0xc5c6120&#45;&gt;Node0x17a6de90</title>
<path fill="none" stroke="black" d="M1240.32,-658.356C1230.41,-652.967 1219.31,-647.097 1209,-642 1191.52,-633.361 1186.56,-632.468 1169,-624 1150.24,-614.951 1129.71,-604.468 1112.32,-595.406"/>
<polygon fill="black" stroke="black" points="1113.49,-592.069 1103.01,-590.536 1110.24,-598.272 1113.49,-592.069"/>
<text text-anchor="middle" x="1199" y="-612.8" font-family="Times,serif" font-size="14.00">v8 == 2</text>
</g>
<!-- Node0xef50710 -->
<g id="node18" class="node"><title>Node0xef50710</title>
<polygon fill="none" stroke="black" points="1110.5,-499.5 1110.5,-535.5 1259.5,-535.5 1259.5,-499.5 1110.5,-499.5"/>
<text text-anchor="start" x="1118.5" y="-513.8" font-family="Times,serif" font-size="14.00">goto 0x80618e8_2</text>
</g>
<!-- Node0xc5c6120&#45;&gt;Node0xef50710 -->
<g id="edge17" class="edge"><title>Node0xc5c6120&#45;&gt;Node0xef50710</title>
<path fill="none" stroke="black" d="M1261.63,-658.399C1246.58,-630.912 1216.89,-576.723 1199.21,-544.45"/>
<polygon fill="black" stroke="black" points="1202.23,-542.668 1194.36,-535.58 1196.09,-546.031 1202.23,-542.668"/>
<text text-anchor="middle" x="1269" y="-612.8" font-family="Times,serif" font-size="14.00">v8 != 2</text>
</g>
<!-- Node0xef4ecd0 -->
<g id="node19" class="node"><title>Node0xef4ecd0</title>
<polygon fill="none" stroke="black" points="473.5,-442.5 473.5,-480.5 950.5,-480.5 950.5,-442.5 473.5,-442.5"/>
<text text-anchor="start" x="481.5" y="-465.3" font-family="Times,serif" font-size="14.00">0x806196e_2:</text>
<text text-anchor="start" x="481.5" y="-450.3" font-family="Times,serif" font-size="14.00"> mbedtls_md_hmac_update(IntToPtrCastExpr&lt;ptr&gt;(g3), a2, a3)</text>
</g>
<!-- Node0xef50010&#45;&gt;Node0xef4ecd0 -->
<g id="edge18" class="edge"><title>Node0xef50010&#45;&gt;Node0xef4ecd0</title>
<path fill="none" stroke="black" d="M831.812,-554.469C808.202,-536.345 770.633,-507.507 743.862,-486.957"/>
<polygon fill="black" stroke="black" points="745.991,-484.18 735.928,-480.867 741.729,-489.733 745.991,-484.18"/>
<text text-anchor="middle" x="835" y="-513.8" font-family="Times,serif" font-size="14.00">v8 == 2</text>
</g>
<!-- Node0x17a6e2f0 -->
<g id="node20" class="node"><title>Node0x17a6e2f0</title>
<polygon fill="none" stroke="black" points="472.5,-306.5 472.5,-404.5 951.5,-404.5 951.5,-306.5 472.5,-306.5"/>
<text text-anchor="start" x="480.5" y="-389.3" font-family="Times,serif" font-size="14.00">0x80618e8_2:</text>
<text text-anchor="start" x="480.5" y="-374.3" font-family="Times,serif" font-size="14.00"> mbedtls_md_hmac_finish(IntToPtrCastExpr&lt;ptr&gt;(g3), v5)</text>
<text text-anchor="start" x="480.5" y="-359.3" font-family="Times,serif" font-size="14.00"> mbedtls_md_hmac_starts(IntToPtrCastExpr&lt;ptr&gt;(g3), v5, g7)</text>
<text text-anchor="start" x="480.5" y="-344.3" font-family="Times,serif" font-size="14.00"> mbedtls_md_hmac_update(IntToPtrCastExpr&lt;ptr&gt;(g3), g5, g7)</text>
<text text-anchor="start" x="480.5" y="-329.3" font-family="Times,serif" font-size="14.00"> mbedtls_md_hmac_finish(IntToPtrCastExpr&lt;ptr&gt;(g3), g5)</text>
<text text-anchor="start" x="480.5" y="-314.3" font-family="Times,serif" font-size="14.00"> result = ((v6 % 256) + 1)</text>
</g>
<!-- Node0xef50010&#45;&gt;Node0x17a6e2f0 -->
<g id="edge19" class="edge"><title>Node0xef50010&#45;&gt;Node0x17a6e2f0</title>
<path fill="none" stroke="black" d="M885.886,-554.487C927.049,-530.268 990.024,-484.109 960,-442 951.353,-429.873 940.869,-419.449 929.157,-410.491"/>
<polygon fill="black" stroke="black" points="931.021,-407.521 920.86,-404.521 926.933,-413.203 931.021,-407.521"/>
<text text-anchor="middle" x="994" y="-457.8" font-family="Times,serif" font-size="14.00">v8 != 2</text>
</g>
<!-- Node0x17a6e550 -->
<g id="node21" class="node"><title>Node0x17a6e550</title>
<polygon fill="none" stroke="black" points="585.5,-554.5 585.5,-590.5 734.5,-590.5 734.5,-554.5 585.5,-554.5"/>
<text text-anchor="start" x="593.5" y="-568.8" font-family="Times,serif" font-size="14.00">goto 0x806196e_2</text>
</g>
<!-- Node0xef50a10&#45;&gt;Node0x17a6e550 -->
<g id="edge20" class="edge"><title>Node0xef50a10&#45;&gt;Node0x17a6e550</title>
<path fill="none" stroke="black" d="M467.297,-658.4C477.29,-652.957 488.528,-647.043 499,-642 534.591,-624.859 575.569,-607.456 607.277,-594.481"/>
<polygon fill="black" stroke="black" points="608.862,-597.615 616.803,-590.601 606.222,-591.131 608.862,-597.615"/>
<text text-anchor="middle" x="600" y="-612.8" font-family="Times,serif" font-size="14.00">v8 == 2</text>
</g>
<!-- Node0xef50c20 -->
<g id="node22" class="node"><title>Node0xef50c20</title>
<polygon fill="none" stroke="black" points="370.5,-499.5 370.5,-535.5 519.5,-535.5 519.5,-499.5 370.5,-499.5"/>
<text text-anchor="start" x="378.5" y="-513.8" font-family="Times,serif" font-size="14.00">goto 0x80618e8_2</text>
</g>
<!-- Node0xef50a10&#45;&gt;Node0xef50c20 -->
<g id="edge21" class="edge"><title>Node0xef50a10&#45;&gt;Node0xef50c20</title>
<path fill="none" stroke="black" d="M437.871,-658.399C439.254,-631.266 441.962,-578.114 443.614,-545.707"/>
<polygon fill="black" stroke="black" points="447.116,-545.745 444.13,-535.58 440.125,-545.388 447.116,-545.745"/>
<text text-anchor="middle" x="468" y="-612.8" font-family="Times,serif" font-size="14.00">v8 != 2</text>
</g>
<!-- Node0x17a6de90&#45;&gt;Node0xef4ecd0 -->
<g id="edge22" class="edge"><title>Node0x17a6de90&#45;&gt;Node0xef4ecd0</title>
<path fill="none" stroke="black" d="M1028.14,-554.474C987.57,-538.755 924.756,-515.427 869,-499 849.277,-493.189 827.942,-487.707 807.545,-482.844"/>
<polygon fill="black" stroke="black" points="808.154,-479.392 797.619,-480.507 806.551,-486.206 808.154,-479.392"/>
</g>
<!-- Node0xef50710&#45;&gt;Node0x17a6e2f0 -->
<g id="edge23" class="edge"><title>Node0xef50710&#45;&gt;Node0x17a6e2f0</title>
<path fill="none" stroke="black" d="M1154.78,-499.499C1126.67,-483.907 1083.46,-460.498 1045,-442 1025.8,-432.767 1021.24,-429.638 1001,-423 984.076,-417.45 966.449,-412.185 948.618,-407.231"/>
<polygon fill="black" stroke="black" points="949.263,-403.779 938.694,-404.51 947.412,-410.53 949.263,-403.779"/>
</g>
<!-- Node0xef4ecd0&#45;&gt;Node0x17a6e2f0 -->
<g id="edge24" class="edge"><title>Node0xef4ecd0&#45;&gt;Node0x17a6e2f0</title>
<path fill="none" stroke="black" d="M712,-442.385C712,-434.528 712,-424.844 712,-414.842"/>
<polygon fill="black" stroke="black" points="715.5,-414.789 712,-404.789 708.5,-414.789 715.5,-414.789"/>
</g>
<!-- Node0x17a6e3e0 -->
<g id="node23" class="node"><title>Node0x17a6e3e0</title>
<polygon fill="none" stroke="black" points="527.5,-232.5 527.5,-268.5 838.5,-268.5 838.5,-232.5 527.5,-232.5"/>
<text text-anchor="start" x="535.5" y="-246.8" font-family="Times,serif" font-size="14.00">if (v8 &lt;= TruncCastExpr&lt;int8&gt;(result)):</text>
</g>
<!-- Node0x17a6e2f0&#45;&gt;Node0x17a6e3e0 -->
<g id="edge25" class="edge"><title>Node0x17a6e2f0&#45;&gt;Node0x17a6e3e0</title>
<path fill="none" stroke="black" d="M698.434,-306.317C695.751,-296.788 693.025,-287.107 690.626,-278.586"/>
<polygon fill="black" stroke="black" points="693.966,-277.533 687.887,-268.856 687.228,-279.43 693.966,-277.533"/>
</g>
<!-- Node0x17a6e550&#45;&gt;Node0xef4ecd0 -->
<g id="edge26" class="edge"><title>Node0x17a6e550&#45;&gt;Node0xef4ecd0</title>
<path fill="none" stroke="black" d="M668.125,-554.469C676.361,-537.204 689.236,-510.218 698.912,-489.934"/>
<polygon fill="black" stroke="black" points="702.091,-491.4 703.238,-480.867 695.773,-488.386 702.091,-491.4"/>
</g>
<!-- Node0xef50c20&#45;&gt;Node0x17a6e2f0 -->
<g id="edge27" class="edge"><title>Node0xef50c20&#45;&gt;Node0x17a6e2f0</title>
<path fill="none" stroke="black" d="M444.924,-499.242C445.775,-482.57 449.623,-457.612 464,-442 475.477,-429.538 488.854,-418.892 503.338,-409.798"/>
<polygon fill="black" stroke="black" points="505.205,-412.76 511.988,-404.621 501.61,-406.754 505.205,-412.76"/>
</g>
<!-- Node0xef4edf0 -->
<g id="node24" class="node"><title>Node0xef4edf0</title>
<polygon fill="none" stroke="black" points="626.5,-97.5 626.5,-180.5 739.5,-180.5 739.5,-97.5 626.5,-97.5"/>
<text text-anchor="start" x="634.5" y="-165.3" font-family="Times,serif" font-size="14.00">0x8061990:</text>
<text text-anchor="start" x="634.5" y="-150.3" font-family="Times,serif" font-size="14.00"> g3 = v3</text>
<text text-anchor="start" x="634.5" y="-135.3" font-family="Times,serif" font-size="14.00"> g7 = v2</text>
<text text-anchor="start" x="634.5" y="-120.3" font-family="Times,serif" font-size="14.00"> g5 = v1</text>
<text text-anchor="start" x="634.5" y="-105.3" font-family="Times,serif" font-size="14.00"> return result</text>
</g>
<!-- Node0x17a6e3e0&#45;&gt;Node0xef4edf0 -->
<g id="edge28" class="edge"><title>Node0x17a6e3e0&#45;&gt;Node0xef4edf0</title>
<path fill="none" stroke="black" d="M683,-232.391C683,-221.15 683,-205.807 683,-190.853"/>
<polygon fill="black" stroke="black" points="686.5,-190.618 683,-180.618 679.5,-190.618 686.5,-190.618"/>
<text text-anchor="middle" x="815.5" y="-202.8" font-family="Times,serif" font-size="14.00">v8 &lt;= TruncCastExpr&lt;int8&gt;(result)</text>
</g>
<!-- Node0x17a6e4f0 -->
<g id="node25" class="node"><title>Node0x17a6e4f0</title>
<polygon fill="none" stroke="black" points="328.5,-112.5 328.5,-165.5 429.5,-165.5 429.5,-112.5 328.5,-112.5"/>
<text text-anchor="start" x="336.5" y="-150.3" font-family="Times,serif" font-size="14.00">0x8061932:</text>
<text text-anchor="start" x="336.5" y="-135.3" font-family="Times,serif" font-size="14.00"> v6 = result</text>
<text text-anchor="start" x="336.5" y="-120.3" font-family="Times,serif" font-size="14.00"> v10 = g3</text>
</g>
<!-- Node0x17a6e3e0&#45;&gt;Node0x17a6e4f0 -->
<g id="edge29" class="edge"><title>Node0x17a6e3e0&#45;&gt;Node0x17a6e4f0</title>
<path fill="none" stroke="black" d="M527.265,-238.761C484.032,-233.436 444,-225.565 426,-214 411.61,-204.754 400.797,-189.365 393.193,-175.008"/>
<polygon fill="black" stroke="black" points="396.214,-173.221 388.654,-165.798 389.935,-176.315 396.214,-173.221"/>
<text text-anchor="middle" x="552.5" y="-202.8" font-family="Times,serif" font-size="14.00">v8 &gt; TruncCastExpr&lt;int8&gt;(result)</text>
</g>
<!-- Node0xef4f710 -->
<g id="node26" class="node"><title>Node0xef4f710</title>
<polygon fill="none" stroke="black" points="656,-23.5 656,-59.5 710,-59.5 710,-23.5 656,-23.5"/>
<text text-anchor="start" x="664" y="-37.8" font-family="Times,serif" font-size="14.00">exit:</text>
</g>
<!-- Node0xef4edf0&#45;&gt;Node0xef4f710 -->
<g id="edge30" class="edge"><title>Node0xef4edf0&#45;&gt;Node0xef4f710</title>
<path fill="none" stroke="black" d="M683,-97.4994C683,-88.2058 683,-78.537 683,-69.9459"/>
<polygon fill="black" stroke="black" points="686.5,-69.7494 683,-59.7494 679.5,-69.7494 686.5,-69.7494"/>
</g>
<!-- Node0x17a6e4f0&#45;&gt;Node0xef508a0 -->
<g id="edge31" class="edge"><title>Node0x17a6e4f0&#45;&gt;Node0xef508a0</title>
<path fill="none" stroke="black" d="M370.436,-165.787C363.896,-187.776 356,-220.362 356,-249.5 356,-677.5 356,-677.5 356,-677.5 356,-694.617 360.922,-701.264 375,-711 495.619,-794.413 557.938,-729.754 701,-762 718.854,-766.024 738.027,-771.326 755.417,-776.521"/>
<polygon fill="black" stroke="black" points="754.841,-780.004 765.427,-779.557 756.873,-773.306 754.841,-780.004"/>
</g>
</g>
</svg>
