<?xml version="1.0" encoding="UTF-8" standalone="no"?>
<!DOCTYPE svg PUBLIC "-//W3C//DTD SVG 1.1//EN"
 "http://www.w3.org/Graphics/SVG/1.1/DTD/svg11.dtd">
<!-- Generated by graphviz version 2.38.0 (20140413.2041)
 -->
<!-- Title: Control&#45;flow graph for function &#39;mbedtls_ccm_setkey(a1, a2, a3, a4)&#39;. Pages: 1 -->
<svg width="1135pt" height="938pt"
 viewBox="0.00 0.00 1134.50 938.00" xmlns="http://www.w3.org/2000/svg" xmlns:xlink="http://www.w3.org/1999/xlink">
<g id="graph0" class="graph" transform="scale(1 1) rotate(0) translate(4 934)">
<title>Control&#45;flow graph for function &#39;mbedtls_ccm_setkey(a1, a2, a3, a4)&#39;.</title>
<polygon fill="white" stroke="none" points="-4,4 -4,-934 1130.5,-934 1130.5,4 -4,4"/>
<text text-anchor="middle" x="563.25" y="-7.8" font-family="Times,serif" font-size="14.00">Control&#45;flow graph for function &#39;mbedtls_ccm_setkey(a1, a2, a3, a4)&#39;.</text>
<!-- Node0x1598b3f0 -->
<g id="node1" class="node"><title>Node0x1598b3f0</title>
<polygon fill="none" stroke="black" points="911.5,-846.5 911.5,-929.5 970.5,-929.5 970.5,-846.5 911.5,-846.5"/>
<text text-anchor="start" x="919.5" y="-914.3" font-family="Times,serif" font-size="14.00">entry:</text>
<text text-anchor="start" x="919.5" y="-899.3" font-family="Times,serif" font-size="14.00"> a1</text>
<text text-anchor="start" x="919.5" y="-884.3" font-family="Times,serif" font-size="14.00"> a2</text>
<text text-anchor="start" x="919.5" y="-869.3" font-family="Times,serif" font-size="14.00"> a3</text>
<text text-anchor="start" x="919.5" y="-854.3" font-family="Times,serif" font-size="14.00"> a4</text>
</g>
<!-- Node0x15989370 -->
<g id="node2" class="node"><title>Node0x15989370</title>
<polygon fill="none" stroke="black" points="755.5,-650.5 755.5,-808.5 1126.5,-808.5 1126.5,-650.5 755.5,-650.5"/>
<text text-anchor="start" x="763.5" y="-793.3" font-family="Times,serif" font-size="14.00">v1</text>
<text text-anchor="start" x="763.5" y="-778.3" font-family="Times,serif" font-size="14.00"> g2 = &amp;(v1)</text>
<text text-anchor="start" x="763.5" y="-763.3" font-family="Times,serif" font-size="14.00"> v2 = g3</text>
<text text-anchor="start" x="763.5" y="-748.3" font-family="Times,serif" font-size="14.00"> g3 = a4</text>
<text text-anchor="start" x="763.5" y="-733.3" font-family="Times,serif" font-size="14.00"> v3 = g7</text>
<text text-anchor="start" x="763.5" y="-718.3" font-family="Times,serif" font-size="14.00"> g7 = a1</text>
<text text-anchor="start" x="763.5" y="-703.3" font-family="Times,serif" font-size="14.00"> v4 = g5</text>
<text text-anchor="start" x="763.5" y="-688.3" font-family="Times,serif" font-size="14.00"> g5 = a3</text>
<text text-anchor="start" x="763.5" y="-673.3" font-family="Times,serif" font-size="14.00"> v5 = mbedtls_cipher_info_from_values(a2, a4, 1)</text>
<text text-anchor="start" x="763.5" y="-658.3" font-family="Times,serif" font-size="14.00"> g1 = v5</text>
</g>
<!-- Node0x1598b3f0&#45;&gt;Node0x15989370 -->
<g id="edge1" class="edge"><title>Node0x1598b3f0&#45;&gt;Node0x15989370</title>
<path fill="none" stroke="black" d="M941,-846.29C941,-837.686 941,-828.289 941,-818.689"/>
<polygon fill="black" stroke="black" points="944.5,-818.635 941,-808.635 937.5,-818.635 944.5,-818.635"/>
</g>
<!-- Node0x15988620 -->
<g id="node3" class="node"><title>Node0x15988620</title>
<polygon fill="none" stroke="black" points="891.5,-576.5 891.5,-612.5 990.5,-612.5 990.5,-576.5 891.5,-576.5"/>
<text text-anchor="start" x="899.5" y="-590.8" font-family="Times,serif" font-size="14.00">if (v5 != 0):</text>
</g>
<!-- Node0x15989370&#45;&gt;Node0x15988620 -->
<g id="edge2" class="edge"><title>Node0x15989370&#45;&gt;Node0x15988620</title>
<path fill="none" stroke="black" d="M941,-650.364C941,-640.457 941,-630.905 941,-622.625"/>
<polygon fill="black" stroke="black" points="944.5,-622.552 941,-612.552 937.5,-622.552 944.5,-622.552"/>
</g>
<!-- Node0xf7715e0 -->
<g id="node4" class="node"><title>Node0xf7715e0</title>
<polygon fill="none" stroke="black" points="510,-486.5 510,-524.5 880,-524.5 880,-486.5 510,-486.5"/>
<text text-anchor="start" x="518" y="-509.3" font-family="Times,serif" font-size="14.00">0x8070528:</text>
<text text-anchor="start" x="518" y="-494.3" font-family="Times,serif" font-size="14.00"> if (*(IntToPtrCastExpr&lt;ptr&gt;((v5 + 24))) == 16):</text>
</g>
<!-- Node0x15988620&#45;&gt;Node0xf7715e0 -->
<g id="edge3" class="edge"><title>Node0x15988620&#45;&gt;Node0xf7715e0</title>
<path fill="none" stroke="black" d="M892.692,-576.415C853.488,-562.551 797.992,-542.924 755.774,-527.993"/>
<polygon fill="black" stroke="black" points="756.759,-524.629 746.164,-524.595 754.425,-531.229 756.759,-524.629"/>
<text text-anchor="middle" x="868" y="-546.8" font-family="Times,serif" font-size="14.00">v5 != 0</text>
</g>
<!-- Node0x29e738b0 -->
<g id="node5" class="node"><title>Node0x29e738b0</title>
<polygon fill="none" stroke="black" points="669.5,-321.5 669.5,-434.5 770.5,-434.5 770.5,-321.5 669.5,-321.5"/>
<text text-anchor="start" x="677.5" y="-419.3" font-family="Times,serif" font-size="14.00">0x8070513:</text>
<text text-anchor="start" x="677.5" y="-404.3" font-family="Times,serif" font-size="14.00"> g1 = &#45;13</text>
<text text-anchor="start" x="677.5" y="-389.3" font-family="Times,serif" font-size="14.00"> g3 = v2</text>
<text text-anchor="start" x="677.5" y="-374.3" font-family="Times,serif" font-size="14.00"> g7 = v3</text>
<text text-anchor="start" x="677.5" y="-359.3" font-family="Times,serif" font-size="14.00"> g5 = v4</text>
<text text-anchor="start" x="677.5" y="-344.3" font-family="Times,serif" font-size="14.00"> g2 = v1</text>
<text text-anchor="start" x="677.5" y="-329.3" font-family="Times,serif" font-size="14.00"> return &#45;13</text>
</g>
<!-- Node0x15988620&#45;&gt;Node0x29e738b0 -->
<g id="edge4" class="edge"><title>Node0x15988620&#45;&gt;Node0x29e738b0</title>
<path fill="none" stroke="black" d="M961.096,-576.234C991.074,-548.395 1040.84,-492.701 1010,-453 982.162,-417.166 857.321,-395.783 780.797,-385.812"/>
<polygon fill="black" stroke="black" points="781.158,-382.33 770.795,-384.538 780.273,-389.274 781.158,-382.33"/>
<text text-anchor="middle" x="1050" y="-501.8" font-family="Times,serif" font-size="14.00">v5 == 0</text>
</g>
<!-- Node0xf7715e0&#45;&gt;Node0x29e738b0 -->
<g id="edge6" class="edge"><title>Node0xf7715e0&#45;&gt;Node0x29e738b0</title>
<path fill="none" stroke="black" d="M694.057,-486.266C693.87,-476.36 694.162,-463.936 696,-453 696.472,-450.19 697.03,-447.342 697.655,-444.479"/>
<polygon fill="black" stroke="black" points="701.064,-445.272 700.017,-434.729 694.261,-443.624 701.064,-445.272"/>
<text text-anchor="middle" x="853" y="-456.8" font-family="Times,serif" font-size="14.00">*(IntToPtrCastExpr&lt;ptr&gt;((v5 + 24))) != 16</text>
</g>
<!-- Node0x205bbde0 -->
<g id="node6" class="node"><title>Node0x205bbde0</title>
<polygon fill="none" stroke="black" points="111.5,-344 111.5,-412 592.5,-412 592.5,-344 111.5,-344"/>
<text text-anchor="start" x="119.5" y="-396.8" font-family="Times,serif" font-size="14.00">0x807052e:</text>
<text text-anchor="start" x="119.5" y="-381.8" font-family="Times,serif" font-size="14.00"> mbedtls_cipher_free(IntToPtrCastExpr&lt;ptr&gt;(g7), a4)</text>
<text text-anchor="start" x="119.5" y="-366.8" font-family="Times,serif" font-size="14.00"> result = mbedtls_cipher_setup(IntToPtrCastExpr&lt;ptr&gt;(g7), v5)</text>
<text text-anchor="start" x="119.5" y="-351.8" font-family="Times,serif" font-size="14.00"> g1 = result</text>
</g>
<!-- Node0xf7715e0&#45;&gt;Node0x205bbde0 -->
<g id="edge5" class="edge"><title>Node0xf7715e0&#45;&gt;Node0x205bbde0</title>
<path fill="none" stroke="black" d="M509.856,-492.586C443.697,-486.626 382.508,-478.43 371,-468 358.397,-456.577 353.034,-439.022 351.05,-422.513"/>
<polygon fill="black" stroke="black" points="354.529,-422.11 350.217,-412.433 347.553,-422.687 354.529,-422.11"/>
<text text-anchor="middle" x="531" y="-456.8" font-family="Times,serif" font-size="14.00">*(IntToPtrCastExpr&lt;ptr&gt;((v5 + 24))) == 16</text>
</g>
<!-- Node0x15989690 -->
<g id="node7" class="node"><title>Node0x15989690</title>
<polygon fill="none" stroke="black" points="608,-23.5 608,-59.5 662,-59.5 662,-23.5 608,-23.5"/>
<text text-anchor="start" x="616" y="-37.8" font-family="Times,serif" font-size="14.00">exit:</text>
</g>
<!-- Node0x29e738b0&#45;&gt;Node0x15989690 -->
<g id="edge7" class="edge"><title>Node0x29e738b0&#45;&gt;Node0x15989690</title>
<path fill="none" stroke="black" d="M728.276,-321.272C734.354,-262.205 736.186,-167.855 700,-97 693.263,-83.808 681.785,-72.5688 670.332,-63.7845"/>
<polygon fill="black" stroke="black" points="672.225,-60.8344 662.065,-57.8292 668.133,-66.5142 672.225,-60.8344"/>
</g>
<!-- Node0x10193250 -->
<g id="node8" class="node"><title>Node0x10193250</title>
<polygon fill="none" stroke="black" points="287,-247.5 287,-283.5 417,-283.5 417,-247.5 287,-247.5"/>
<text text-anchor="start" x="295" y="-261.8" font-family="Times,serif" font-size="14.00">if (result == 0):</text>
</g>
<!-- Node0x205bbde0&#45;&gt;Node0x10193250 -->
<g id="edge8" class="edge"><title>Node0x205bbde0&#45;&gt;Node0x10193250</title>
<path fill="none" stroke="black" d="M352,-343.846C352,-327.886 352,-308.98 352,-293.855"/>
<polygon fill="black" stroke="black" points="355.5,-293.607 352,-283.607 348.5,-293.607 355.5,-293.607"/>
</g>
<!-- Node0x159899d0 -->
<g id="node9" class="node"><title>Node0x159899d0</title>
<polygon fill="none" stroke="black" points="0,-97.5 0,-195.5 560,-195.5 560,-97.5 0,-97.5"/>
<text text-anchor="start" x="8" y="-180.3" font-family="Times,serif" font-size="14.00">0x807054c:</text>
<text text-anchor="start" x="8" y="-165.3" font-family="Times,serif" font-size="14.00"> v6</text>
<text text-anchor="start" x="8" y="-150.3" font-family="Times,serif" font-size="14.00"> mbedtls_cipher_setkey(IntToPtrCastExpr&lt;ptr&gt;(v1), v6, g7, g5, g3, 1, 0, 0)</text>
<text text-anchor="start" x="8" y="-135.3" font-family="Times,serif" font-size="14.00"> g1 = &#45;24832</text>
<text text-anchor="start" x="8" y="-120.3" font-family="Times,serif" font-size="14.00"> g7 = v3</text>
<text text-anchor="start" x="8" y="-105.3" font-family="Times,serif" font-size="14.00"> return &#45;24832</text>
</g>
<!-- Node0x10193250&#45;&gt;Node0x159899d0 -->
<g id="edge9" class="edge"><title>Node0x10193250&#45;&gt;Node0x159899d0</title>
<path fill="none" stroke="black" d="M341.531,-247.487C334.455,-235.99 324.67,-220.088 314.982,-204.346"/>
<polygon fill="black" stroke="black" points="317.85,-202.328 309.628,-195.646 311.888,-205.997 317.85,-202.328"/>
<text text-anchor="middle" x="371.5" y="-217.8" font-family="Times,serif" font-size="14.00">result == 0</text>
</g>
<!-- Node0x29e73540 -->
<g id="node10" class="node"><title>Node0x29e73540</title>
<polygon fill="none" stroke="black" points="578.5,-97.5 578.5,-195.5 691.5,-195.5 691.5,-97.5 578.5,-97.5"/>
<text text-anchor="start" x="586.5" y="-180.3" font-family="Times,serif" font-size="14.00">0x8070518:</text>
<text text-anchor="start" x="586.5" y="-165.3" font-family="Times,serif" font-size="14.00"> g3 = v2</text>
<text text-anchor="start" x="586.5" y="-150.3" font-family="Times,serif" font-size="14.00"> g7 = v3</text>
<text text-anchor="start" x="586.5" y="-135.3" font-family="Times,serif" font-size="14.00"> g5 = v4</text>
<text text-anchor="start" x="586.5" y="-120.3" font-family="Times,serif" font-size="14.00"> g2 = v1</text>
<text text-anchor="start" x="586.5" y="-105.3" font-family="Times,serif" font-size="14.00"> return result</text>
</g>
<!-- Node0x10193250&#45;&gt;Node0x29e73540 -->
<g id="edge10" class="edge"><title>Node0x10193250&#45;&gt;Node0x29e73540</title>
<path fill="none" stroke="black" d="M417.308,-249.862C461.556,-238.525 520.563,-220.589 569,-196 569.095,-195.952 569.19,-195.903 569.285,-195.855"/>
<polygon fill="black" stroke="black" points="571.051,-198.878 578.129,-190.995 567.679,-192.744 571.051,-198.878"/>
<text text-anchor="middle" x="563.5" y="-217.8" font-family="Times,serif" font-size="14.00">result != 0</text>
</g>
<!-- Node0x159899d0&#45;&gt;Node0x15989690 -->
<g id="edge11" class="edge"><title>Node0x159899d0&#45;&gt;Node0x15989690</title>
<path fill="none" stroke="black" d="M445.548,-97.4679C502.716,-80.881 561.546,-63.8121 598.171,-53.1857"/>
<polygon fill="black" stroke="black" points="599.264,-56.513 607.892,-50.365 597.313,-49.7902 599.264,-56.513"/>
</g>
<!-- Node0x29e73540&#45;&gt;Node0x15989690 -->
<g id="edge12" class="edge"><title>Node0x29e73540&#45;&gt;Node0x15989690</title>
<path fill="none" stroke="black" d="M635,-97.3173C635,-87.893 635,-78.32 635,-69.8676"/>
<polygon fill="black" stroke="black" points="638.5,-69.856 635,-59.8561 631.5,-69.8561 638.5,-69.856"/>
</g>
</g>
</svg>
