<?xml version="1.0" encoding="UTF-8" standalone="no"?>
<!DOCTYPE svg PUBLIC "-//W3C//DTD SVG 1.1//EN"
 "http://www.w3.org/Graphics/SVG/1.1/DTD/svg11.dtd">
<!-- Generated by graphviz version 2.38.0 (20140413.2041)
 -->
<!-- Title: Control&#45;flow graph for function &#39;mbedtls_ecp_tls_read_group(a1, a2, a3)&#39;. Pages: 1 -->
<svg width="1363pt" height="1791pt"
 viewBox="0.00 0.00 1363.00 1791.00" xmlns="http://www.w3.org/2000/svg" xmlns:xlink="http://www.w3.org/1999/xlink">
<g id="graph0" class="graph" transform="scale(1 1) rotate(0) translate(4 1787)">
<title>Control&#45;flow graph for function &#39;mbedtls_ecp_tls_read_group(a1, a2, a3)&#39;.</title>
<polygon fill="white" stroke="none" points="-4,4 -4,-1787 1359,-1787 1359,4 -4,4"/>
<text text-anchor="middle" x="677.5" y="-7.8" font-family="Times,serif" font-size="14.00">Control&#45;flow graph for function &#39;mbedtls_ecp_tls_read_group(a1, a2, a3)&#39;.</text>
<!-- Node0x876edb0 -->
<g id="node1" class="node"><title>Node0x876edb0</title>
<polygon fill="none" stroke="black" points="1203.5,-1714.5 1203.5,-1782.5 1262.5,-1782.5 1262.5,-1714.5 1203.5,-1714.5"/>
<text text-anchor="start" x="1211.5" y="-1767.3" font-family="Times,serif" font-size="14.00">entry:</text>
<text text-anchor="start" x="1211.5" y="-1752.3" font-family="Times,serif" font-size="14.00"> a1</text>
<text text-anchor="start" x="1211.5" y="-1737.3" font-family="Times,serif" font-size="14.00"> a2</text>
<text text-anchor="start" x="1211.5" y="-1722.3" font-family="Times,serif" font-size="14.00"> a3</text>
</g>
<!-- Node0xb68aaa0 -->
<g id="node2" class="node"><title>Node0xb68aaa0</title>
<polygon fill="none" stroke="black" points="1166,-1593.5 1166,-1676.5 1300,-1676.5 1300,-1593.5 1166,-1593.5"/>
<text text-anchor="start" x="1174" y="-1661.3" font-family="Times,serif" font-size="14.00">v1 = g3</text>
<text text-anchor="start" x="1174" y="-1646.3" font-family="Times,serif" font-size="14.00"> g6 = a1</text>
<text text-anchor="start" x="1174" y="-1631.3" font-family="Times,serif" font-size="14.00"> v2 = g7</text>
<text text-anchor="start" x="1174" y="-1616.3" font-family="Times,serif" font-size="14.00"> result = &#45;20352</text>
<text text-anchor="start" x="1174" y="-1601.3" font-family="Times,serif" font-size="14.00"> v3</text>
</g>
<!-- Node0x876edb0&#45;&gt;Node0xb68aaa0 -->
<g id="edge1" class="edge"><title>Node0x876edb0&#45;&gt;Node0xb68aaa0</title>
<path fill="none" stroke="black" d="M1233,-1714.35C1233,-1705.67 1233,-1696.12 1233,-1686.76"/>
<polygon fill="black" stroke="black" points="1236.5,-1686.72 1233,-1676.72 1229.5,-1686.72 1236.5,-1686.72"/>
</g>
<!-- Node0xb68abe0 -->
<g id="node3" class="node"><title>Node0xb68abe0</title>
<polygon fill="none" stroke="black" points="1186.5,-1519.5 1186.5,-1555.5 1279.5,-1555.5 1279.5,-1519.5 1186.5,-1519.5"/>
<text text-anchor="start" x="1194.5" y="-1533.8" font-family="Times,serif" font-size="14.00">if (a3 &gt; 2):</text>
</g>
<!-- Node0xb68aaa0&#45;&gt;Node0xb68abe0 -->
<g id="edge2" class="edge"><title>Node0xb68aaa0&#45;&gt;Node0xb68abe0</title>
<path fill="none" stroke="black" d="M1233,-1593.5C1233,-1584.21 1233,-1574.54 1233,-1565.95"/>
<polygon fill="black" stroke="black" points="1236.5,-1565.75 1233,-1555.75 1229.5,-1565.75 1236.5,-1565.75"/>
</g>
<!-- Node0xb68a5c0 -->
<g id="node4" class="node"><title>Node0xb68a5c0</title>
<polygon fill="none" stroke="black" points="982,-1414.5 982,-1467.5 1238,-1467.5 1238,-1414.5 982,-1414.5"/>
<text text-anchor="start" x="990" y="-1452.3" font-family="Times,serif" font-size="14.00">v4 = IntToPtrCastExpr&lt;ptr&gt;(a2)</text>
<text text-anchor="start" x="990" y="-1437.3" font-family="Times,serif" font-size="14.00"> v5 = *(v4)</text>
<text text-anchor="start" x="990" y="-1422.3" font-family="Times,serif" font-size="14.00"> *(v4) = (v5 + 1)</text>
</g>
<!-- Node0xb68abe0&#45;&gt;Node0xb68a5c0 -->
<g id="edge3" class="edge"><title>Node0xb68abe0&#45;&gt;Node0xb68a5c0</title>
<path fill="none" stroke="black" d="M1210.73,-1519.39C1194.18,-1506.67 1171.12,-1488.96 1151.24,-1473.69"/>
<polygon fill="black" stroke="black" points="1153.3,-1470.85 1143.23,-1467.53 1149.03,-1476.4 1153.3,-1470.85"/>
<text text-anchor="middle" x="1210" y="-1489.8" font-family="Times,serif" font-size="14.00">a3 &gt; 2</text>
</g>
<!-- Node0xb68ade0 -->
<g id="node5" class="node"><title>Node0xb68ade0</title>
<polygon fill="none" stroke="black" points="1138.5,-1037.5 1138.5,-1135.5 1251.5,-1135.5 1251.5,-1037.5 1138.5,-1037.5"/>
<text text-anchor="start" x="1146.5" y="-1120.3" font-family="Times,serif" font-size="14.00">0x805bcbe:</text>
<text text-anchor="start" x="1146.5" y="-1105.3" font-family="Times,serif" font-size="14.00"> g1 = result</text>
<text text-anchor="start" x="1146.5" y="-1090.3" font-family="Times,serif" font-size="14.00"> g3 = v1</text>
<text text-anchor="start" x="1146.5" y="-1075.3" font-family="Times,serif" font-size="14.00"> g7 = v2</text>
<text text-anchor="start" x="1146.5" y="-1060.3" font-family="Times,serif" font-size="14.00"> g2 = v3</text>
<text text-anchor="start" x="1146.5" y="-1045.3" font-family="Times,serif" font-size="14.00"> return result</text>
</g>
<!-- Node0xb68abe0&#45;&gt;Node0xb68ade0 -->
<g id="edge4" class="edge"><title>Node0xb68abe0&#45;&gt;Node0xb68ade0</title>
<path fill="none" stroke="black" d="M1253.3,-1519.19C1271.38,-1501.73 1295,-1473 1295,-1442 1295,-1442 1295,-1442 1295,-1229 1295,-1196.97 1277.7,-1167.11 1257.49,-1143.15"/>
<polygon fill="black" stroke="black" points="1260.08,-1140.78 1250.85,-1135.58 1254.82,-1145.4 1260.08,-1140.78"/>
<text text-anchor="middle" x="1325" y="-1353.8" font-family="Times,serif" font-size="14.00">a3 &lt;= 2</text>
</g>
<!-- Node0xb68af90 -->
<g id="node6" class="node"><title>Node0xb68af90</title>
<polygon fill="none" stroke="black" points="870.5,-1338.5 870.5,-1376.5 1177.5,-1376.5 1177.5,-1338.5 870.5,-1338.5"/>
<text text-anchor="start" x="878.5" y="-1361.3" font-family="Times,serif" font-size="14.00">if (*(IntToPtrCastExpr&lt;ptr&gt;(v5)) == 3):</text>
<text text-anchor="start" x="878.5" y="-1346.3" font-family="Times,serif" font-size="14.00"> else:</text>
</g>
<!-- Node0xb68a5c0&#45;&gt;Node0xb68af90 -->
<g id="edge5" class="edge"><title>Node0xb68a5c0&#45;&gt;Node0xb68af90</title>
<path fill="none" stroke="black" d="M1082.79,-1414.21C1072.52,-1404.48 1060.84,-1393.42 1050.62,-1383.73"/>
<polygon fill="black" stroke="black" points="1052.81,-1380.98 1043.14,-1376.64 1047.99,-1386.06 1052.81,-1380.98"/>
</g>
<!-- Node0xb68aa20 -->
<g id="node7" class="node"><title>Node0xb68aa20</title>
<polygon fill="none" stroke="black" points="186,-23.5 186,-59.5 240,-59.5 240,-23.5 186,-23.5"/>
<text text-anchor="start" x="194" y="-37.8" font-family="Times,serif" font-size="14.00">exit:</text>
</g>
<!-- Node0xb68ade0&#45;&gt;Node0xb68aa20 -->
<g id="edge6" class="edge"><title>Node0xb68ade0&#45;&gt;Node0xb68aa20</title>
<path fill="none" stroke="black" d="M1195,-1037.23C1195,-1013.9 1195,-985.492 1195,-960 1195,-960 1195,-960 1195,-145.5 1195,-48.6435 429.616,-42.5258 250.277,-42.4217"/>
<polygon fill="black" stroke="black" points="250.032,-38.9216 240.032,-42.4221 250.032,-45.9216 250.032,-38.9216"/>
</g>
<!-- Node0xb68b2f0 -->
<g id="node8" class="node"><title>Node0xb68b2f0</title>
<polygon fill="none" stroke="black" points="367.5,-1173.5 367.5,-1286.5 1110.5,-1286.5 1110.5,-1173.5 367.5,-1173.5"/>
<text text-anchor="start" x="375.5" y="-1271.3" font-family="Times,serif" font-size="14.00">0x805bcdf:</text>
<text text-anchor="start" x="375.5" y="-1256.3" font-family="Times,serif" font-size="14.00"> *(IntToPtrCastExpr&lt;ptr&gt;(a2)) = (v5 + 2)</text>
<text text-anchor="start" x="375.5" y="-1241.3" font-family="Times,serif" font-size="14.00"> v6 = *(IntToPtrCastExpr&lt;ptr&gt;((v5 + 2)))</text>
<text text-anchor="start" x="375.5" y="-1226.3" font-family="Times,serif" font-size="14.00"> *(IntToPtrCastExpr&lt;ptr&gt;(a2)) = (v5 + 3)</text>
<text text-anchor="start" x="375.5" y="-1211.3" font-family="Times,serif" font-size="14.00"> g1 = &amp;(g43)</text>
<text text-anchor="start" x="375.5" y="-1196.3" font-family="Times,serif" font-size="14.00"> v7 = (ExtCastExpr&lt;int32&gt;(v6) | (256 * ExtCastExpr&lt;int32&gt;(*(IntToPtrCastExpr&lt;ptr&gt;((v5 + 1))))))</text>
<text text-anchor="start" x="375.5" y="-1181.3" font-family="Times,serif" font-size="14.00"> v8</text>
</g>
<!-- Node0xb68af90&#45;&gt;Node0xb68b2f0 -->
<g id="edge7" class="edge"><title>Node0xb68af90&#45;&gt;Node0xb68b2f0</title>
<path fill="none" stroke="black" d="M870.307,-1351.74C818.745,-1346.88 769.79,-1337.58 752,-1320 745.545,-1313.62 741.351,-1305.55 738.724,-1296.88"/>
<polygon fill="black" stroke="black" points="742.075,-1295.84 736.387,-1286.91 735.26,-1297.44 742.075,-1295.84"/>
<text text-anchor="middle" x="883" y="-1308.8" font-family="Times,serif" font-size="14.00">*(IntToPtrCastExpr&lt;ptr&gt;(v5)) == 3</text>
</g>
<!-- Node0xb68bab0 -->
<g id="node9" class="node"><title>Node0xb68bab0</title>
<polygon fill="none" stroke="black" points="1129.5,-1212 1129.5,-1248 1258.5,-1248 1258.5,-1212 1129.5,-1212"/>
<text text-anchor="start" x="1137.5" y="-1226.3" font-family="Times,serif" font-size="14.00">result = &#45;20352</text>
</g>
<!-- Node0xb68af90&#45;&gt;Node0xb68bab0 -->
<g id="edge8" class="edge"><title>Node0xb68af90&#45;&gt;Node0xb68bab0</title>
<path fill="none" stroke="black" d="M1019.11,-1338.3C1017.35,-1327.43 1017.38,-1314.02 1025,-1305 1052.73,-1272.17 1080.72,-1304.43 1120,-1287 1137.68,-1279.16 1155.06,-1266.35 1168.53,-1254.96"/>
<polygon fill="black" stroke="black" points="1171.14,-1257.32 1176.37,-1248.11 1166.54,-1252.05 1171.14,-1257.32"/>
<text text-anchor="middle" x="1153" y="-1308.8" font-family="Times,serif" font-size="14.00">*(IntToPtrCastExpr&lt;ptr&gt;(v5)) != 3</text>
</g>
<!-- Node0xb68ae40 -->
<g id="node10" class="node"><title>Node0xb68ae40</title>
<polygon fill="none" stroke="black" points="682,-1067.5 682,-1105.5 796,-1105.5 796,-1067.5 682,-1067.5"/>
<text text-anchor="start" x="690" y="-1090.3" font-family="Times,serif" font-size="14.00">if (v7 == 25):</text>
<text text-anchor="start" x="690" y="-1075.3" font-family="Times,serif" font-size="14.00"> else:</text>
</g>
<!-- Node0xb68b2f0&#45;&gt;Node0xb68ae40 -->
<g id="edge9" class="edge"><title>Node0xb68b2f0&#45;&gt;Node0xb68ae40</title>
<path fill="none" stroke="black" d="M739,-1173.48C739,-1153.67 739,-1132.18 739,-1115.64"/>
<polygon fill="black" stroke="black" points="742.5,-1115.55 739,-1105.55 735.5,-1115.55 742.5,-1115.55"/>
</g>
<!-- Node0xb68bab0&#45;&gt;Node0xb68ade0 -->
<g id="edge10" class="edge"><title>Node0xb68bab0&#45;&gt;Node0xb68ade0</title>
<path fill="none" stroke="black" d="M1194.12,-1211.93C1194.24,-1195.47 1194.42,-1169.59 1194.59,-1145.69"/>
<polygon fill="black" stroke="black" points="1198.09,-1145.63 1194.66,-1135.6 1191.09,-1145.58 1198.09,-1145.63"/>
</g>
<!-- Node0xb68bb30 -->
<g id="node11" class="node"><title>Node0xb68bb30</title>
<polygon fill="none" stroke="black" points="682.5,-940 682.5,-978 783.5,-978 783.5,-940 682.5,-940"/>
<text text-anchor="start" x="690.5" y="-962.8" font-family="Times,serif" font-size="14.00">0x805bd37:</text>
<text text-anchor="start" x="690.5" y="-947.8" font-family="Times,serif" font-size="14.00"> v8 = 5</text>
</g>
<!-- Node0xb68ae40&#45;&gt;Node0xb68bb30 -->
<g id="edge11" class="edge"><title>Node0xb68ae40&#45;&gt;Node0xb68bb30</title>
<path fill="none" stroke="black" d="M738.128,-1067.25C737.137,-1046.52 735.508,-1012.45 734.352,-988.277"/>
<polygon fill="black" stroke="black" points="737.847,-988.092 733.874,-978.271 730.855,-988.427 737.847,-988.092"/>
<text text-anchor="middle" x="769.5" y="-1007.8" font-family="Times,serif" font-size="14.00">v7 == 25</text>
</g>
<!-- Node0xb68bbd0 -->
<g id="node12" class="node"><title>Node0xb68bbd0</title>
<polygon fill="none" stroke="black" points="931.5,-932.5 931.5,-985.5 1036.5,-985.5 1036.5,-932.5 931.5,-932.5"/>
<text text-anchor="start" x="939.5" y="-970.3" font-family="Times,serif" font-size="14.00">v9 = &amp;(g43)</text>
<text text-anchor="start" x="939.5" y="-955.3" font-family="Times,serif" font-size="14.00"> v10</text>
<text text-anchor="start" x="939.5" y="-940.3" font-family="Times,serif" font-size="14.00"> v11</text>
</g>
<!-- Node0xb68ae40&#45;&gt;Node0xb68bbd0 -->
<g id="edge12" class="edge"><title>Node0xb68ae40&#45;&gt;Node0xb68bbd0</title>
<path fill="none" stroke="black" d="M774.363,-1067.39C813.745,-1047.21 878.039,-1014.28 925.056,-990.194"/>
<polygon fill="black" stroke="black" points="926.912,-993.175 934.217,-985.501 923.721,-986.945 926.912,-993.175"/>
<text text-anchor="middle" x="928.5" y="-1007.8" font-family="Times,serif" font-size="14.00">v7 != 25</text>
</g>
<!-- Node0xb68b9c0 -->
<g id="node13" class="node"><title>Node0xb68b9c0</title>
<polygon fill="none" stroke="black" points="415,-796.5 415,-894.5 1051,-894.5 1051,-796.5 415,-796.5"/>
<text text-anchor="start" x="423" y="-879.3" font-family="Times,serif" font-size="14.00">0x805bd22:</text>
<text text-anchor="start" x="423" y="-864.3" font-family="Times,serif" font-size="14.00"> g3 = v1</text>
<text text-anchor="start" x="423" y="-849.3" font-family="Times,serif" font-size="14.00"> g7 = v2</text>
<text text-anchor="start" x="423" y="-834.3" font-family="Times,serif" font-size="14.00"> v12</text>
<text text-anchor="start" x="423" y="-819.3" font-family="Times,serif" font-size="14.00"> g1 = mbedtls_ecp_group_load(IntToPtrCastExpr&lt;ptr&gt;(v3), v12, g6, v8, a3, 0, 0, 0, 0)</text>
<text text-anchor="start" x="423" y="-804.3" font-family="Times,serif" font-size="14.00"> goto 0x805bd37</text>
</g>
<!-- Node0xb68bb30&#45;&gt;Node0xb68b9c0 -->
<g id="edge13" class="edge"><title>Node0xb68bb30&#45;&gt;Node0xb68b9c0</title>
<path fill="none" stroke="black" d="M727.834,-939.588C726.846,-929.924 726.321,-917.491 726.257,-904.877"/>
<polygon fill="black" stroke="black" points="729.757,-904.789 726.304,-894.772 722.757,-904.756 729.757,-904.789"/>
</g>
<!-- Node0xb688320 -->
<g id="node14" class="node"><title>Node0xb688320</title>
<polygon fill="none" stroke="black" points="1068.5,-827.5 1068.5,-863.5 1165.5,-863.5 1165.5,-827.5 1068.5,-827.5"/>
<text text-anchor="start" x="1076.5" y="-841.8" font-family="Times,serif" font-size="14.00">while True:</text>
</g>
<!-- Node0xb68bbd0&#45;&gt;Node0xb688320 -->
<g id="edge14" class="edge"><title>Node0xb68bbd0&#45;&gt;Node0xb688320</title>
<path fill="none" stroke="black" d="M1015.14,-932.342C1028.92,-920.946 1045.3,-907.345 1060,-895 1069.54,-886.986 1079.94,-878.169 1089.2,-870.277"/>
<polygon fill="black" stroke="black" points="1091.67,-872.774 1097.01,-863.622 1087.13,-867.447 1091.67,-872.774"/>
</g>
<!-- Node0xb68b9c0&#45;&gt;Node0xb68bb30 -->
<g id="edge15" class="edge"><title>Node0xb68b9c0&#45;&gt;Node0xb68bb30</title>
<path fill="none" stroke="black" d="M739.696,-894.772C739.868,-906.553 739.631,-918.787 738.986,-929.319"/>
<polygon fill="black" stroke="black" points="735.473,-929.341 738.166,-939.588 742.451,-929.898 735.473,-929.341"/>
</g>
<!-- Node0xb68b670 -->
<g id="node15" class="node"><title>Node0xb68b670</title>
<polygon fill="none" stroke="black" points="754,-676.5 754,-744.5 1050,-744.5 1050,-676.5 754,-676.5"/>
<text text-anchor="start" x="762" y="-729.3" font-family="Times,serif" font-size="14.00">0x805bd0e:</text>
<text text-anchor="start" x="762" y="-714.3" font-family="Times,serif" font-size="14.00"> v10 = (v9 + 12)</text>
<text text-anchor="start" x="762" y="-699.3" font-family="Times,serif" font-size="14.00"> g1 = v10</text>
<text text-anchor="start" x="762" y="-684.3" font-family="Times,serif" font-size="14.00"> v11 = *(IntToPtrCastExpr&lt;ptr&gt;(v10))</text>
</g>
<!-- Node0xb688320&#45;&gt;Node0xb68b670 -->
<g id="edge16" class="edge"><title>Node0xb688320&#45;&gt;Node0xb68b670</title>
<path fill="none" stroke="black" d="M1098.81,-827.273C1087.99,-817.489 1073.74,-805.364 1060,-796 1035.16,-779.079 1006.57,-762.896 980.595,-749.302"/>
<polygon fill="black" stroke="black" points="982.015,-746.097 971.526,-744.605 978.796,-752.312 982.015,-746.097"/>
<text text-anchor="middle" x="1048" y="-766.8" font-family="Times,serif" font-size="14.00">True</text>
</g>
<!-- Node0xb68c180 -->
<g id="node16" class="node"><title>Node0xb68c180</title>
<polygon fill="none" stroke="black" points="456,-602.5 456,-638.5 570,-638.5 570,-602.5 456,-602.5"/>
<text text-anchor="start" x="464" y="-616.8" font-family="Times,serif" font-size="14.00">if (v11 == 0):</text>
</g>
<!-- Node0xb68b670&#45;&gt;Node0xb68c180 -->
<g id="edge17" class="edge"><title>Node0xb68b670&#45;&gt;Node0xb68c180</title>
<path fill="none" stroke="black" d="M756.044,-676.482C695.663,-662.822 628.614,-647.654 580.26,-636.716"/>
<polygon fill="black" stroke="black" points="580.761,-633.241 570.235,-634.448 579.216,-640.068 580.761,-633.241"/>
</g>
<!-- Node0xb68b410 -->
<g id="node17" class="node"><title>Node0xb68b410</title>
<polygon fill="none" stroke="black" points="0,-380.5 0,-493.5 134,-493.5 134,-380.5 0,-380.5"/>
<text text-anchor="start" x="8" y="-478.3" font-family="Times,serif" font-size="14.00">0x805bcbe:</text>
<text text-anchor="start" x="8" y="-463.3" font-family="Times,serif" font-size="14.00"> result = &#45;20096</text>
<text text-anchor="start" x="8" y="-448.3" font-family="Times,serif" font-size="14.00"> g1 = result</text>
<text text-anchor="start" x="8" y="-433.3" font-family="Times,serif" font-size="14.00"> g3 = v1</text>
<text text-anchor="start" x="8" y="-418.3" font-family="Times,serif" font-size="14.00"> g7 = v2</text>
<text text-anchor="start" x="8" y="-403.3" font-family="Times,serif" font-size="14.00"> g2 = v3</text>
<text text-anchor="start" x="8" y="-388.3" font-family="Times,serif" font-size="14.00"> return result</text>
</g>
<!-- Node0xb68c180&#45;&gt;Node0xb68b410 -->
<g id="edge18" class="edge"><title>Node0xb68c180&#45;&gt;Node0xb68b410</title>
<path fill="none" stroke="black" d="M455.783,-610.128C398.93,-599.707 309.931,-580.37 237,-551 193.031,-533.293 181.517,-523.776 142.782,-497.242"/>
<polygon fill="black" stroke="black" points="144.317,-494.052 134.082,-491.312 140.374,-499.836 144.317,-494.052"/>
<text text-anchor="middle" x="372.5" y="-572.8" font-family="Times,serif" font-size="14.00">v11 == 0</text>
</g>
<!-- Node0xb68c3f0 -->
<g id="node18" class="node"><title>Node0xb68c3f0</title>
<polygon fill="none" stroke="black" points="246.5,-512.5 246.5,-550.5 779.5,-550.5 779.5,-512.5 246.5,-512.5"/>
<text text-anchor="start" x="254.5" y="-535.3" font-family="Times,serif" font-size="14.00">0x805bd08:</text>
<text text-anchor="start" x="254.5" y="-520.3" font-family="Times,serif" font-size="14.00"> if (v7 == ExtCastExpr&lt;int32&gt;(*(IntToPtrCastExpr&lt;ptr&gt;((v9 + 16))))):</text>
</g>
<!-- Node0xb68c180&#45;&gt;Node0xb68c3f0 -->
<g id="edge19" class="edge"><title>Node0xb68c180&#45;&gt;Node0xb68c3f0</title>
<path fill="none" stroke="black" d="M513,-602.312C513,-590.511 513,-574.572 513,-560.904"/>
<polygon fill="black" stroke="black" points="516.5,-560.551 513,-550.551 509.5,-560.551 516.5,-560.551"/>
<text text-anchor="middle" x="544.5" y="-572.8" font-family="Times,serif" font-size="14.00">v11 != 0</text>
</g>
<!-- Node0xb68b410&#45;&gt;Node0xb68aa20 -->
<g id="edge20" class="edge"><title>Node0xb68b410&#45;&gt;Node0xb68aa20</title>
<path fill="none" stroke="black" d="M67,-380.224C67,-356.967 67,-329.676 67,-305 67,-305 67,-305 67,-145.5 67,-92.1161 132.979,-63.9592 176.229,-51.2368"/>
<polygon fill="black" stroke="black" points="177.191,-54.6022 185.881,-48.5401 175.308,-47.8604 177.191,-54.6022"/>
</g>
<!-- Node0xb68cae0 -->
<g id="node19" class="node"><title>Node0xb68cae0</title>
<polygon fill="none" stroke="black" points="94.5,-323.5 94.5,-361.5 261.5,-361.5 261.5,-323.5 94.5,-323.5"/>
<text text-anchor="start" x="102.5" y="-346.3" font-family="Times,serif" font-size="14.00">break &#45;&gt; 0x805bd1e:</text>
<text text-anchor="start" x="102.5" y="-331.3" font-family="Times,serif" font-size="14.00"> break</text>
</g>
<!-- Node0xb68c3f0&#45;&gt;Node0xb68cae0 -->
<g id="edge21" class="edge"><title>Node0xb68c3f0&#45;&gt;Node0xb68cae0</title>
<path fill="none" stroke="black" d="M246.307,-514.856C201.062,-509.64 165.965,-502.825 158,-494 124.055,-456.386 145.434,-429.084 158,-380 158.781,-376.948 159.876,-373.878 161.156,-370.883"/>
<polygon fill="black" stroke="black" points="164.407,-372.205 165.712,-361.691 158.135,-369.096 164.407,-372.205"/>
<text text-anchor="middle" x="400" y="-433.3" font-family="Times,serif" font-size="14.00">v7 == ExtCastExpr&lt;int32&gt;(*(IntToPtrCastExpr&lt;ptr&gt;((v9 + 16))))</text>
</g>
<!-- Node0xb68c9c0 -->
<g id="node20" class="node"><title>Node0xb68c9c0</title>
<polygon fill="none" stroke="black" points="854.5,-324.5 854.5,-360.5 935.5,-360.5 935.5,-324.5 854.5,-324.5"/>
<text text-anchor="start" x="862.5" y="-338.8" font-family="Times,serif" font-size="14.00">v9 = v10</text>
</g>
<!-- Node0xb68c3f0&#45;&gt;Node0xb68c9c0 -->
<g id="edge22" class="edge"><title>Node0xb68c3f0&#45;&gt;Node0xb68c9c0</title>
<path fill="none" stroke="black" d="M617.25,-512.486C626.473,-507.659 634.962,-501.599 642,-494 677.121,-456.078 627.697,-415.779 665,-380 689.962,-356.058 784.301,-347.815 844.127,-344.981"/>
<polygon fill="black" stroke="black" points="844.306,-348.476 854.143,-344.541 843.999,-341.483 844.306,-348.476"/>
<text text-anchor="middle" x="904" y="-433.3" font-family="Times,serif" font-size="14.00">v7 != ExtCastExpr&lt;int32&gt;(*(IntToPtrCastExpr&lt;ptr&gt;((v9 + 16))))</text>
</g>
<!-- Node0xb688440 -->
<g id="node21" class="node"><title>Node0xb688440</title>
<polygon fill="none" stroke="black" points="118.5,-247.5 118.5,-285.5 237.5,-285.5 237.5,-247.5 118.5,-247.5"/>
<text text-anchor="start" x="126.5" y="-270.3" font-family="Times,serif" font-size="14.00">0x805bd1e:</text>
<text text-anchor="start" x="126.5" y="-255.3" font-family="Times,serif" font-size="14.00"> if (v10 == 0):</text>
</g>
<!-- Node0xb68cae0&#45;&gt;Node0xb688440 -->
<g id="edge23" class="edge"><title>Node0xb68cae0&#45;&gt;Node0xb688440</title>
<path fill="none" stroke="black" d="M178,-323.208C178,-314.964 178,-305.038 178,-295.862"/>
<polygon fill="black" stroke="black" points="181.5,-295.582 178,-285.582 174.5,-295.582 181.5,-295.582"/>
</g>
<!-- Node0xb68c9c0&#45;&gt;Node0xb688320 -->
<g id="edge24" class="edge"><title>Node0xb68c9c0&#45;&gt;Node0xb688320</title>
<path fill="none" stroke="black" d="M935.511,-343.628C998.441,-344.75 1115.34,-350.825 1143,-380 1189.22,-428.752 1157,-463.322 1157,-530.5 1157,-711.5 1157,-711.5 1157,-711.5 1157,-749.771 1141.62,-791.712 1129.94,-818.06"/>
<polygon fill="black" stroke="black" points="1126.66,-816.806 1125.68,-827.355 1133.03,-819.722 1126.66,-816.806"/>
</g>
<!-- Node0xb68c5c0 -->
<g id="node22" class="node"><title>Node0xb68c5c0</title>
<polygon fill="none" stroke="black" points="99.5,-97.5 99.5,-195.5 228.5,-195.5 228.5,-97.5 99.5,-97.5"/>
<text text-anchor="start" x="107.5" y="-180.3" font-family="Times,serif" font-size="14.00">result = &#45;20096</text>
<text text-anchor="start" x="107.5" y="-165.3" font-family="Times,serif" font-size="14.00"> g1 = result</text>
<text text-anchor="start" x="107.5" y="-150.3" font-family="Times,serif" font-size="14.00"> g3 = v1</text>
<text text-anchor="start" x="107.5" y="-135.3" font-family="Times,serif" font-size="14.00"> g7 = v2</text>
<text text-anchor="start" x="107.5" y="-120.3" font-family="Times,serif" font-size="14.00"> g2 = v3</text>
<text text-anchor="start" x="107.5" y="-105.3" font-family="Times,serif" font-size="14.00"> return result</text>
</g>
<!-- Node0xb688440&#45;&gt;Node0xb68c5c0 -->
<g id="edge25" class="edge"><title>Node0xb688440&#45;&gt;Node0xb68c5c0</title>
<path fill="none" stroke="black" d="M175.843,-247.321C174.497,-235.972 172.681,-220.671 170.877,-205.462"/>
<polygon fill="black" stroke="black" points="174.352,-205.041 169.698,-195.523 167.4,-205.866 174.352,-205.041"/>
<text text-anchor="middle" x="208.5" y="-217.8" font-family="Times,serif" font-size="14.00">v10 == 0</text>
</g>
<!-- Node0xb68be30 -->
<g id="node23" class="node"><title>Node0xb68be30</title>
<polygon fill="none" stroke="black" points="246.5,-128.5 246.5,-164.5 327.5,-164.5 327.5,-128.5 246.5,-128.5"/>
<text text-anchor="start" x="254.5" y="-142.8" font-family="Times,serif" font-size="14.00">v8 = v11</text>
</g>
<!-- Node0xb688440&#45;&gt;Node0xb68be30 -->
<g id="edge26" class="edge"><title>Node0xb688440&#45;&gt;Node0xb68be30</title>
<path fill="none" stroke="black" d="M222.449,-247.3C231.306,-242.284 240.017,-236.198 247,-229 261.954,-213.586 272.321,-191.491 278.748,-174.195"/>
<polygon fill="black" stroke="black" points="282.088,-175.247 282.081,-164.652 275.479,-172.938 282.088,-175.247"/>
<text text-anchor="middle" x="289.5" y="-217.8" font-family="Times,serif" font-size="14.00">v10 != 0</text>
</g>
<!-- Node0xb68c5c0&#45;&gt;Node0xb68aa20 -->
<g id="edge27" class="edge"><title>Node0xb68c5c0&#45;&gt;Node0xb68aa20</title>
<path fill="none" stroke="black" d="M186.922,-97.3173C191.555,-87.5789 196.263,-77.6816 200.381,-69.0261"/>
<polygon fill="black" stroke="black" points="203.608,-70.3899 204.743,-59.8561 197.287,-67.3827 203.608,-70.3899"/>
</g>
<!-- Node0xb68be30&#45;&gt;Node0xb68aa20 -->
<g id="edge28" class="edge"><title>Node0xb68be30&#45;&gt;Node0xb68aa20</title>
<path fill="none" stroke="black" d="M274.78,-128.492C262.89,-111.942 244.682,-86.5976 231.109,-67.7052"/>
<polygon fill="black" stroke="black" points="233.915,-65.6128 225.238,-59.5336 228.23,-69.6971 233.915,-65.6128"/>
</g>
</g>
</svg>
