<?xml version="1.0" encoding="UTF-8" standalone="no"?>
<!DOCTYPE svg PUBLIC "-//W3C//DTD SVG 1.1//EN"
 "http://www.w3.org/Graphics/SVG/1.1/DTD/svg11.dtd">
<!-- Generated by graphviz version 2.38.0 (20140413.2041)
 -->
<!-- Title: Control&#45;flow graph for function &#39;mgf_mask(a1, *a2, a3, a4, a5)&#39;. Pages: 1 -->
<svg width="1175pt" height="1589pt"
 viewBox="0.00 0.00 1175.00 1589.00" xmlns="http://www.w3.org/2000/svg" xmlns:xlink="http://www.w3.org/1999/xlink">
<g id="graph0" class="graph" transform="scale(1 1) rotate(0) translate(4 1585)">
<title>Control&#45;flow graph for function &#39;mgf_mask(a1, *a2, a3, a4, a5)&#39;.</title>
<polygon fill="white" stroke="none" points="-4,4 -4,-1585 1171,-1585 1171,4 -4,4"/>
<text text-anchor="middle" x="583.5" y="-7.8" font-family="Times,serif" font-size="14.00">Control&#45;flow graph for function &#39;mgf_mask(a1, *a2, a3, a4, a5)&#39;.</text>
<!-- Node0x92a0fc0 -->
<g id="node1" class="node"><title>Node0x92a0fc0</title>
<polygon fill="none" stroke="black" points="249,-1482.5 249,-1580.5 308,-1580.5 308,-1482.5 249,-1482.5"/>
<text text-anchor="start" x="257" y="-1565.3" font-family="Times,serif" font-size="14.00">entry:</text>
<text text-anchor="start" x="257" y="-1550.3" font-family="Times,serif" font-size="14.00"> a1</text>
<text text-anchor="start" x="257" y="-1535.3" font-family="Times,serif" font-size="14.00"> a2</text>
<text text-anchor="start" x="257" y="-1520.3" font-family="Times,serif" font-size="14.00"> a3</text>
<text text-anchor="start" x="257" y="-1505.3" font-family="Times,serif" font-size="14.00"> a4</text>
<text text-anchor="start" x="257" y="-1490.3" font-family="Times,serif" font-size="14.00"> a5</text>
</g>
<!-- Node0x92a19f0 -->
<g id="node2" class="node"><title>Node0x92a19f0</title>
<polygon fill="none" stroke="black" points="0,-1271.5 0,-1444.5 557,-1444.5 557,-1271.5 0,-1271.5"/>
<text text-anchor="start" x="8" y="-1429.3" font-family="Times,serif" font-size="14.00">v1 = g5</text>
<text text-anchor="start" x="8" y="-1414.3" font-family="Times,serif" font-size="14.00"> v2 = g7</text>
<text text-anchor="start" x="8" y="-1399.3" font-family="Times,serif" font-size="14.00"> v3 = g3</text>
<text text-anchor="start" x="8" y="-1384.3" font-family="Times,serif" font-size="14.00"> v4</text>
<text text-anchor="start" x="8" y="-1369.3" font-family="Times,serif" font-size="14.00"> g3 = &amp;(v4)</text>
<text text-anchor="start" x="8" y="-1354.3" font-family="Times,serif" font-size="14.00"> v5 = PtrToIntCastExpr&lt;int32&gt;(a2)</text>
<text text-anchor="start" x="8" y="-1339.3" font-family="Times,serif" font-size="14.00"> v6 = g4</text>
<text text-anchor="start" x="8" y="-1324.3" font-family="Times,serif" font-size="14.00"> g4 = PtrToIntCastExpr&lt;int32&gt;(memset(BitCastExpr&lt;ptr&gt;(&amp;(v4)), 0, 16))</text>
<text text-anchor="start" x="8" y="-1309.3" font-family="Times,serif" font-size="14.00"> v7 = 0</text>
<text text-anchor="start" x="8" y="-1294.3" font-family="Times,serif" font-size="14.00"> v8 = g6</text>
<text text-anchor="start" x="8" y="-1279.3" font-family="Times,serif" font-size="14.00"> result = (mbedtls_md_get_size(*(IntToPtrCastExpr&lt;ptr&gt;(v5))) % 256)</text>
</g>
<!-- Node0x92a0fc0&#45;&gt;Node0x92a19f0 -->
<g id="edge1" class="edge"><title>Node0x92a0fc0&#45;&gt;Node0x92a19f0</title>
<path fill="none" stroke="black" d="M278.5,-1482.27C278.5,-1473.52 278.5,-1464.12 278.5,-1454.56"/>
<polygon fill="black" stroke="black" points="282,-1454.55 278.5,-1444.55 275,-1454.55 282,-1454.55"/>
</g>
<!-- Node0x92a1380 -->
<g id="node3" class="node"><title>Node0x92a1380</title>
<polygon fill="none" stroke="black" points="226,-1197.5 226,-1233.5 331,-1233.5 331,-1197.5 226,-1197.5"/>
<text text-anchor="start" x="234" y="-1211.8" font-family="Times,serif" font-size="14.00">if (v8 == 0):</text>
</g>
<!-- Node0x92a19f0&#45;&gt;Node0x92a1380 -->
<g id="edge2" class="edge"><title>Node0x92a19f0&#45;&gt;Node0x92a1380</title>
<path fill="none" stroke="black" d="M278.5,-1271.22C278.5,-1261.48 278.5,-1252.16 278.5,-1244.06"/>
<polygon fill="black" stroke="black" points="282,-1243.84 278.5,-1233.84 275,-1243.84 282,-1243.84"/>
</g>
<!-- Node0x92a1ed0 -->
<g id="node4" class="node"><title>Node0x92a1ed0</title>
<polygon fill="none" stroke="black" points="12,-975.5 12,-1058.5 125,-1058.5 125,-975.5 12,-975.5"/>
<text text-anchor="start" x="20" y="-1043.3" font-family="Times,serif" font-size="14.00">0x804f74b:</text>
<text text-anchor="start" x="20" y="-1028.3" font-family="Times,serif" font-size="14.00"> g3 = v3</text>
<text text-anchor="start" x="20" y="-1013.3" font-family="Times,serif" font-size="14.00"> g7 = v2</text>
<text text-anchor="start" x="20" y="-998.3" font-family="Times,serif" font-size="14.00"> g5 = v1</text>
<text text-anchor="start" x="20" y="-983.3" font-family="Times,serif" font-size="14.00"> return result</text>
</g>
<!-- Node0x92a1380&#45;&gt;Node0x92a1ed0 -->
<g id="edge3" class="edge"><title>Node0x92a1380&#45;&gt;Node0x92a1ed0</title>
<path fill="none" stroke="black" d="M260.231,-1197.41C229.132,-1168.31 164.855,-1108.16 119.313,-1065.55"/>
<polygon fill="black" stroke="black" points="121.583,-1062.88 111.89,-1058.6 116.8,-1067.99 121.583,-1062.88"/>
<text text-anchor="middle" x="270.5" y="-1167.8" font-family="Times,serif" font-size="14.00">v8 == 0</text>
</g>
<!-- Node0x92a1d40 -->
<g id="node5" class="node"><title>Node0x92a1d40</title>
<polygon fill="none" stroke="black" points="545.5,-1077.5 545.5,-1145.5 805.5,-1145.5 805.5,-1077.5 545.5,-1077.5"/>
<text text-anchor="start" x="553.5" y="-1130.3" font-family="Times,serif" font-size="14.00">0x804f6b5:</text>
<text text-anchor="start" x="553.5" y="-1115.3" font-family="Times,serif" font-size="14.00"> g5 = g1</text>
<text text-anchor="start" x="553.5" y="-1100.3" font-family="Times,serif" font-size="14.00"> g4 = v8</text>
<text text-anchor="start" x="553.5" y="-1085.3" font-family="Times,serif" font-size="14.00"> v9 = IntToPtrCastExpr&lt;ptr&gt;(v5)</text>
</g>
<!-- Node0x92a1380&#45;&gt;Node0x92a1d40 -->
<g id="edge4" class="edge"><title>Node0x92a1380&#45;&gt;Node0x92a1d40</title>
<path fill="none" stroke="black" d="M331.219,-1200.96C383.494,-1187.52 465.832,-1166.37 536.879,-1148.12"/>
<polygon fill="black" stroke="black" points="538.011,-1151.44 546.825,-1145.56 536.269,-1144.66 538.011,-1151.44"/>
<text text-anchor="middle" x="492.5" y="-1167.8" font-family="Times,serif" font-size="14.00">v8 != 0</text>
</g>
<!-- Node0x92a1970 -->
<g id="node6" class="node"><title>Node0x92a1970</title>
<polygon fill="none" stroke="black" points="558.5,-23.5 558.5,-59.5 612.5,-59.5 612.5,-23.5 558.5,-23.5"/>
<text text-anchor="start" x="566.5" y="-37.8" font-family="Times,serif" font-size="14.00">exit:</text>
</g>
<!-- Node0x92a1ed0&#45;&gt;Node0x92a1970 -->
<g id="edge5" class="edge"><title>Node0x92a1ed0&#45;&gt;Node0x92a1970</title>
<path fill="none" stroke="black" d="M49.4581,-975.396C40.3922,-952.461 31.5,-922.965 31.5,-895.5 31.5,-895.5 31.5,-895.5 31.5,-138 31.5,-117.916 34.1447,-108.656 50.5,-97 90.9125,-68.1991 433.22,-49.6456 548.089,-44.1839"/>
<polygon fill="black" stroke="black" points="548.341,-47.676 558.166,-43.7108 548.013,-40.6837 548.341,-47.676"/>
</g>
<!-- Node0x92a1e50 -->
<g id="node7" class="node"><title>Node0x92a1e50</title>
<polygon fill="none" stroke="black" points="732,-920.5 732,-956.5 829,-956.5 829,-920.5 732,-920.5"/>
<text text-anchor="start" x="740" y="-934.8" font-family="Times,serif" font-size="14.00">while True:</text>
</g>
<!-- Node0x92a1d40&#45;&gt;Node0x92a1e50 -->
<g id="edge6" class="edge"><title>Node0x92a1d40&#45;&gt;Node0x92a1e50</title>
<path fill="none" stroke="black" d="M695.994,-1077.12C716.114,-1044.36 746.376,-995.073 764.701,-965.23"/>
<polygon fill="black" stroke="black" points="767.73,-966.985 769.98,-956.632 761.765,-963.322 767.73,-966.985"/>
</g>
<!-- Node0x92a1b70 -->
<g id="node8" class="node"><title>Node0x92a1b70</title>
<polygon fill="none" stroke="black" points="729.5,-830.5 729.5,-868.5 831.5,-868.5 831.5,-830.5 729.5,-830.5"/>
<text text-anchor="start" x="737.5" y="-853.3" font-family="Times,serif" font-size="14.00">0x804f6c0:</text>
<text text-anchor="start" x="737.5" y="-838.3" font-family="Times,serif" font-size="14.00"> g7 = result</text>
</g>
<!-- Node0x92a1e50&#45;&gt;Node0x92a1b70 -->
<g id="edge7" class="edge"><title>Node0x92a1e50&#45;&gt;Node0x92a1b70</title>
<path fill="none" stroke="black" d="M780.5,-920.312C780.5,-908.511 780.5,-892.572 780.5,-878.904"/>
<polygon fill="black" stroke="black" points="784,-878.551 780.5,-868.551 777,-878.551 784,-878.551"/>
<text text-anchor="middle" x="797.5" y="-890.8" font-family="Times,serif" font-size="14.00">True</text>
</g>
<!-- Node0x92a2210 -->
<g id="node9" class="node"><title>Node0x92a2210</title>
<polygon fill="none" stroke="black" points="711.5,-756.5 711.5,-792.5 849.5,-792.5 849.5,-756.5 711.5,-756.5"/>
<text text-anchor="start" x="719.5" y="-770.8" font-family="Times,serif" font-size="14.00">if (v8 &lt;= result):</text>
</g>
<!-- Node0x92a1b70&#45;&gt;Node0x92a2210 -->
<g id="edge8" class="edge"><title>Node0x92a1b70&#45;&gt;Node0x92a2210</title>
<path fill="none" stroke="black" d="M780.5,-830.455C780.5,-822.201 780.5,-812.238 780.5,-803.074"/>
<polygon fill="black" stroke="black" points="784,-802.835 780.5,-792.835 777,-802.835 784,-802.835"/>
</g>
<!-- Node0x92a2950 -->
<g id="node10" class="node"><title>Node0x92a2950</title>
<polygon fill="none" stroke="black" points="613.5,-666.5 613.5,-704.5 763.5,-704.5 763.5,-666.5 613.5,-666.5"/>
<text text-anchor="start" x="621.5" y="-689.3" font-family="Times,serif" font-size="14.00">if_804f6cc_0_true:</text>
<text text-anchor="start" x="621.5" y="-674.3" font-family="Times,serif" font-size="14.00"> g7 = v8</text>
</g>
<!-- Node0x92a2210&#45;&gt;Node0x92a2950 -->
<g id="edge9" class="edge"><title>Node0x92a2210&#45;&gt;Node0x92a2950</title>
<path fill="none" stroke="black" d="M714.141,-756.472C705.754,-751.744 698.148,-745.707 692.5,-738 687.708,-731.462 685.802,-723.12 685.34,-715.064"/>
<polygon fill="black" stroke="black" points="688.843,-714.848 685.445,-704.813 681.843,-714.776 688.843,-714.848"/>
<text text-anchor="middle" x="739" y="-726.8" font-family="Times,serif" font-size="14.00">v8 &lt;= result</text>
</g>
<!-- Node0x92a23a0 -->
<g id="node11" class="node"><title>Node0x92a23a0</title>
<polygon fill="none" stroke="black" points="472,-500.5 472,-628.5 933,-628.5 933,-500.5 472,-500.5"/>
<text text-anchor="start" x="480" y="-613.3" font-family="Times,serif" font-size="14.00">after_if_804f6cc_0:</text>
<text text-anchor="start" x="480" y="-598.3" font-family="Times,serif" font-size="14.00"> mbedtls_md_starts(v9)</text>
<text text-anchor="start" x="480" y="-583.3" font-family="Times,serif" font-size="14.00"> mbedtls_md_update(v9, v6, a1)</text>
<text text-anchor="start" x="480" y="-568.3" font-family="Times,serif" font-size="14.00"> mbedtls_md_update(v9, PtrToIntCastExpr&lt;int32&gt;(&amp;(v7)), 4)</text>
<text text-anchor="start" x="480" y="-553.3" font-family="Times,serif" font-size="14.00"> mbedtls_md_finish(v9, g3)</text>
<text text-anchor="start" x="480" y="-538.3" font-family="Times,serif" font-size="14.00"> v10 = v8</text>
<text text-anchor="start" x="480" y="-523.3" font-family="Times,serif" font-size="14.00"> v11 = 0</text>
<text text-anchor="start" x="480" y="-508.3" font-family="Times,serif" font-size="14.00"> v12 = v8</text>
</g>
<!-- Node0x92a2210&#45;&gt;Node0x92a23a0 -->
<g id="edge10" class="edge"><title>Node0x92a2210&#45;&gt;Node0x92a23a0</title>
<path fill="none" stroke="black" d="M783.428,-756.217C784.275,-750.443 785.082,-743.96 785.5,-738 787.773,-705.562 785.65,-695.74 772.5,-666 768.221,-656.322 762.96,-646.609 757.261,-637.24"/>
<polygon fill="black" stroke="black" points="760.205,-635.347 751.92,-628.744 754.279,-639.072 760.205,-635.347"/>
<text text-anchor="middle" x="825" y="-681.8" font-family="Times,serif" font-size="14.00">v8 &gt; result</text>
</g>
<!-- Node0x92a2950&#45;&gt;Node0x92a23a0 -->
<g id="edge11" class="edge"><title>Node0x92a2950&#45;&gt;Node0x92a23a0</title>
<path fill="none" stroke="black" d="M690.626,-666.426C691.548,-658.592 692.693,-648.856 693.906,-638.546"/>
<polygon fill="black" stroke="black" points="697.392,-638.87 695.085,-628.529 690.44,-638.052 697.392,-638.87"/>
</g>
<!-- Node0x92a2490 -->
<g id="node12" class="node"><title>Node0x92a2490</title>
<polygon fill="none" stroke="black" points="652.5,-426.5 652.5,-462.5 752.5,-462.5 752.5,-426.5 652.5,-426.5"/>
<text text-anchor="start" x="660.5" y="-440.8" font-family="Times,serif" font-size="14.00">if (g7 != 0):</text>
</g>
<!-- Node0x92a23a0&#45;&gt;Node0x92a2490 -->
<g id="edge12" class="edge"><title>Node0x92a23a0&#45;&gt;Node0x92a2490</title>
<path fill="none" stroke="black" d="M702.5,-500.355C702.5,-490.753 702.5,-481.299 702.5,-473.016"/>
<polygon fill="black" stroke="black" points="706,-472.887 702.5,-462.888 699,-472.888 706,-472.887"/>
</g>
<!-- Node0x92a29d0 -->
<g id="node13" class="node"><title>Node0x92a29d0</title>
<polygon fill="none" stroke="black" points="155.5,-306.5 155.5,-374.5 595.5,-374.5 595.5,-306.5 155.5,-306.5"/>
<text text-anchor="start" x="163.5" y="-359.3" font-family="Times,serif" font-size="14.00">v13 = 0</text>
<text text-anchor="start" x="163.5" y="-344.3" font-family="Times,serif" font-size="14.00"> v14 = IntToPtrCastExpr&lt;ptr&gt;((g5 + v13))</text>
<text text-anchor="start" x="163.5" y="-329.3" font-family="Times,serif" font-size="14.00"> *(v14) = (*(v14) ^ *(IntToPtrCastExpr&lt;ptr&gt;((g3 + v13))))</text>
<text text-anchor="start" x="163.5" y="-314.3" font-family="Times,serif" font-size="14.00"> v15 = 1</text>
</g>
<!-- Node0x92a2490&#45;&gt;Node0x92a29d0 -->
<g id="edge13" class="edge"><title>Node0x92a2490&#45;&gt;Node0x92a29d0</title>
<path fill="none" stroke="black" d="M652.48,-427.897C609.695,-414.552 546.452,-394.824 491.196,-377.589"/>
<polygon fill="black" stroke="black" points="491.924,-374.149 481.335,-374.513 489.84,-380.832 491.924,-374.149"/>
<text text-anchor="middle" x="615" y="-396.8" font-family="Times,serif" font-size="14.00">g7 != 0</text>
</g>
<!-- Node0x92a27d0 -->
<g id="node14" class="node"><title>Node0x92a27d0</title>
<polygon fill="none" stroke="black" points="633,-306.5 633,-374.5 812,-374.5 812,-306.5 633,-306.5"/>
<text text-anchor="start" x="641" y="-359.3" font-family="Times,serif" font-size="14.00">v16 = (v12 &#45; v11)</text>
<text text-anchor="start" x="641" y="-344.3" font-family="Times,serif" font-size="14.00"> g4 = v16</text>
<text text-anchor="start" x="641" y="-329.3" font-family="Times,serif" font-size="14.00"> v17</text>
<text text-anchor="start" x="641" y="-314.3" font-family="Times,serif" font-size="14.00"> result2 = (v17 % 256)</text>
</g>
<!-- Node0x92a2490&#45;&gt;Node0x92a27d0 -->
<g id="edge14" class="edge"><title>Node0x92a2490&#45;&gt;Node0x92a27d0</title>
<path fill="none" stroke="black" d="M705.893,-426.197C708.138,-414.744 711.189,-399.188 714.062,-384.531"/>
<polygon fill="black" stroke="black" points="717.522,-385.077 716.012,-374.59 710.653,-383.73 717.522,-385.077"/>
<text text-anchor="middle" x="743" y="-396.8" font-family="Times,serif" font-size="14.00">g7 == 0</text>
</g>
<!-- Node0x92a2090 -->
<g id="node15" class="node"><title>Node0x92a2090</title>
<polygon fill="none" stroke="black" points="296.5,-232.5 296.5,-268.5 442.5,-268.5 442.5,-232.5 296.5,-232.5"/>
<text text-anchor="start" x="304.5" y="-246.8" font-family="Times,serif" font-size="14.00">while (v15 != g7):</text>
</g>
<!-- Node0x92a29d0&#45;&gt;Node0x92a2090 -->
<g id="edge15" class="edge"><title>Node0x92a29d0&#45;&gt;Node0x92a2090</title>
<path fill="none" stroke="black" d="M373.249,-306.482C372.625,-297.328 371.954,-287.497 371.356,-278.715"/>
<polygon fill="black" stroke="black" points="374.841,-278.379 370.669,-268.64 367.857,-278.855 374.841,-278.379"/>
</g>
<!-- Node0xca0eed0 -->
<g id="node16" class="node"><title>Node0xca0eed0</title>
<polygon fill="none" stroke="black" points="667,-232.5 667,-268.5 798,-268.5 798,-232.5 667,-232.5"/>
<text text-anchor="start" x="675" y="-246.8" font-family="Times,serif" font-size="14.00">if (v12 == v11):</text>
</g>
<!-- Node0x92a27d0&#45;&gt;Node0xca0eed0 -->
<g id="edge16" class="edge"><title>Node0x92a27d0&#45;&gt;Node0xca0eed0</title>
<path fill="none" stroke="black" d="M726.252,-306.482C727.292,-297.328 728.409,-287.497 729.407,-278.715"/>
<polygon fill="black" stroke="black" points="732.901,-278.971 730.552,-268.64 725.945,-278.181 732.901,-278.971"/>
</g>
<!-- Node0x92a3460 -->
<g id="node17" class="node"><title>Node0x92a3460</title>
<polygon fill="none" stroke="black" points="59.5,-97.5 59.5,-180.5 499.5,-180.5 499.5,-97.5 59.5,-97.5"/>
<text text-anchor="start" x="67.5" y="-165.3" font-family="Times,serif" font-size="14.00">0x804f728:</text>
<text text-anchor="start" x="67.5" y="-150.3" font-family="Times,serif" font-size="14.00"> v13 = v15</text>
<text text-anchor="start" x="67.5" y="-135.3" font-family="Times,serif" font-size="14.00"> v14 = IntToPtrCastExpr&lt;ptr&gt;((g5 + v13))</text>
<text text-anchor="start" x="67.5" y="-120.3" font-family="Times,serif" font-size="14.00"> *(v14) = (*(v14) ^ *(IntToPtrCastExpr&lt;ptr&gt;((g3 + v13))))</text>
<text text-anchor="start" x="67.5" y="-105.3" font-family="Times,serif" font-size="14.00"> v15 = (v15 + 1)</text>
</g>
<!-- Node0x92a2090&#45;&gt;Node0x92a3460 -->
<g id="edge17" class="edge"><title>Node0x92a2090&#45;&gt;Node0x92a3460</title>
<path fill="none" stroke="black" d="M302.358,-232.476C294.192,-227.749 286.858,-221.712 281.5,-214 276.756,-207.172 274.282,-199.068 273.234,-190.771"/>
<polygon fill="black" stroke="black" points="276.717,-190.391 272.605,-180.626 269.73,-190.823 276.717,-190.391"/>
<text text-anchor="middle" x="317.5" y="-202.8" font-family="Times,serif" font-size="14.00">v15 != g7</text>
</g>
<!-- Node0x92a2320 -->
<g id="node18" class="node"><title>Node0x92a2320</title>
<polygon fill="none" stroke="black" points="517.5,-105 517.5,-173 653.5,-173 653.5,-105 517.5,-105"/>
<text text-anchor="start" x="525.5" y="-157.8" font-family="Times,serif" font-size="14.00">0x804f736:</text>
<text text-anchor="start" x="525.5" y="-142.8" font-family="Times,serif" font-size="14.00"> g5 = (g5 + v15)</text>
<text text-anchor="start" x="525.5" y="-127.8" font-family="Times,serif" font-size="14.00"> v11 = v15</text>
<text text-anchor="start" x="525.5" y="-112.8" font-family="Times,serif" font-size="14.00"> v12 = v10</text>
</g>
<!-- Node0x92a2090&#45;&gt;Node0x92a2320 -->
<g id="edge18" class="edge"><title>Node0x92a2090&#45;&gt;Node0x92a2320</title>
<path fill="none" stroke="black" d="M404.786,-232.49C432.973,-218.81 473.425,-198.975 508.5,-181 510.526,-179.962 512.579,-178.904 514.65,-177.833"/>
<polygon fill="black" stroke="black" points="516.554,-180.788 523.809,-173.067 513.323,-174.578 516.554,-180.788"/>
<text text-anchor="middle" x="510.5" y="-202.8" font-family="Times,serif" font-size="14.00">v15 == g7</text>
</g>
<!-- Node0x92a33c0 -->
<g id="node19" class="node"><title>Node0x92a33c0</title>
<polygon fill="none" stroke="black" points="671.5,-97.5 671.5,-180.5 793.5,-180.5 793.5,-97.5 671.5,-97.5"/>
<text text-anchor="start" x="679.5" y="-165.3" font-family="Times,serif" font-size="14.00">0x804f74b:</text>
<text text-anchor="start" x="679.5" y="-150.3" font-family="Times,serif" font-size="14.00"> g3 = v3</text>
<text text-anchor="start" x="679.5" y="-135.3" font-family="Times,serif" font-size="14.00"> g7 = v2</text>
<text text-anchor="start" x="679.5" y="-120.3" font-family="Times,serif" font-size="14.00"> g5 = v1</text>
<text text-anchor="start" x="679.5" y="-105.3" font-family="Times,serif" font-size="14.00"> return result2</text>
</g>
<!-- Node0xca0eed0&#45;&gt;Node0x92a33c0 -->
<g id="edge19" class="edge"><title>Node0xca0eed0&#45;&gt;Node0x92a33c0</title>
<path fill="none" stroke="black" d="M732.5,-232.391C732.5,-221.15 732.5,-205.807 732.5,-190.853"/>
<polygon fill="black" stroke="black" points="736,-190.618 732.5,-180.618 729,-190.618 736,-190.618"/>
<text text-anchor="middle" x="775.5" y="-202.8" font-family="Times,serif" font-size="14.00">v12 == v11</text>
</g>
<!-- Node0x92a2df0 -->
<g id="node20" class="node"><title>Node0x92a2df0</title>
<polygon fill="none" stroke="black" points="812,-112.5 812,-165.5 1167,-165.5 1167,-112.5 812,-112.5"/>
<text text-anchor="start" x="820" y="-150.3" font-family="Times,serif" font-size="14.00">0x804f740:</text>
<text text-anchor="start" x="820" y="-135.3" font-family="Times,serif" font-size="14.00"> v8 = v16</text>
<text text-anchor="start" x="820" y="-120.3" font-family="Times,serif" font-size="14.00"> v17 = ((16777216 * (result2 + 1)) / 16777216)</text>
</g>
<!-- Node0xca0eed0&#45;&gt;Node0x92a2df0 -->
<g id="edge20" class="edge"><title>Node0xca0eed0&#45;&gt;Node0x92a2df0</title>
<path fill="none" stroke="black" d="M777.051,-232.348C791.592,-226.638 807.781,-220.161 822.5,-214 856.168,-199.908 893.318,-183.529 924.014,-169.769"/>
<polygon fill="black" stroke="black" points="925.634,-172.878 933.322,-165.588 922.766,-166.493 925.634,-172.878"/>
<text text-anchor="middle" x="894.5" y="-202.8" font-family="Times,serif" font-size="14.00">v12 != v11</text>
</g>
<!-- Node0x92a3460&#45;&gt;Node0x92a2090 -->
<g id="edge21" class="edge"><title>Node0x92a3460&#45;&gt;Node0x92a2090</title>
<path fill="none" stroke="black" d="M337.822,-180.684C343.638,-186.365 349.032,-192.501 353.5,-199 358.336,-206.034 361.768,-214.605 364.179,-222.675"/>
<polygon fill="black" stroke="black" points="360.821,-223.671 366.716,-232.475 367.598,-221.917 360.821,-223.671"/>
</g>
<!-- Node0x92a2320&#45;&gt;Node0x92a1970 -->
<g id="edge22" class="edge"><title>Node0x92a2320&#45;&gt;Node0x92a1970</title>
<path fill="none" stroke="black" d="M585.5,-104.867C585.5,-93.4727 585.5,-80.8499 585.5,-69.9577"/>
<polygon fill="black" stroke="black" points="589,-69.7519 585.5,-59.752 582,-69.752 589,-69.7519"/>
</g>
<!-- Node0x92a33c0&#45;&gt;Node0x92a1970 -->
<g id="edge23" class="edge"><title>Node0x92a33c0&#45;&gt;Node0x92a1970</title>
<path fill="none" stroke="black" d="M671.436,-98.3291C654.027,-87.0195 635.66,-75.0871 620.395,-65.17"/>
<polygon fill="black" stroke="black" points="622.089,-62.0967 611.797,-59.5838 618.276,-67.9668 622.089,-62.0967"/>
</g>
<!-- Node0x92a2df0&#45;&gt;Node0x92a1e50 -->
<g id="edge24" class="edge"><title>Node0x92a2df0&#45;&gt;Node0x92a1e50</title>
<path fill="none" stroke="black" d="M979.819,-165.699C972.426,-187.635 963.5,-220.192 963.5,-249.5 963.5,-850.5 963.5,-850.5 963.5,-850.5 963.5,-906.517 892.696,-926.508 839.17,-933.617"/>
<polygon fill="black" stroke="black" points="838.569,-930.164 829.06,-934.837 839.408,-937.114 838.569,-930.164"/>
</g>
</g>
</svg>
