<?xml version="1.0" encoding="UTF-8" standalone="no"?>
<!DOCTYPE svg PUBLIC "-//W3C//DTD SVG 1.1//EN"
 "http://www.w3.org/Graphics/SVG/1.1/DTD/svg11.dtd">
<!-- Generated by graphviz version 2.38.0 (20140413.2041)
 -->
<!-- Title: Control&#45;flow graph for function &#39;mbedtls_mpi_is_prime(a1, a2, a3)&#39;. Pages: 1 -->
<svg width="1104pt" height="1323pt"
 viewBox="0.00 0.00 1103.90 1323.00" xmlns="http://www.w3.org/2000/svg" xmlns:xlink="http://www.w3.org/1999/xlink">
<g id="graph0" class="graph" transform="scale(1 1) rotate(0) translate(4 1319)">
<title>Control&#45;flow graph for function &#39;mbedtls_mpi_is_prime(a1, a2, a3)&#39;.</title>
<polygon fill="white" stroke="none" points="-4,4 -4,-1319 1099.9,-1319 1099.9,4 -4,4"/>
<text text-anchor="middle" x="547.949" y="-7.8" font-family="Times,serif" font-size="14.00">Control&#45;flow graph for function &#39;mbedtls_mpi_is_prime(a1, a2, a3)&#39;.</text>
<!-- Node0xf52dbd0 -->
<g id="node1" class="node"><title>Node0xf52dbd0</title>
<polygon fill="none" stroke="black" points="263.399,-1246.5 263.399,-1314.5 322.399,-1314.5 322.399,-1246.5 263.399,-1246.5"/>
<text text-anchor="start" x="271.399" y="-1299.3" font-family="Times,serif" font-size="14.00">entry:</text>
<text text-anchor="start" x="271.399" y="-1284.3" font-family="Times,serif" font-size="14.00"> a1</text>
<text text-anchor="start" x="271.399" y="-1269.3" font-family="Times,serif" font-size="14.00"> a2</text>
<text text-anchor="start" x="271.399" y="-1254.3" font-family="Times,serif" font-size="14.00"> a3</text>
</g>
<!-- Node0x210f4b10 -->
<g id="node2" class="node"><title>Node0x210f4b10</title>
<polygon fill="none" stroke="black" points="242.899,-1110.5 242.899,-1208.5 342.899,-1208.5 342.899,-1110.5 242.899,-1110.5"/>
<text text-anchor="start" x="250.899" y="-1193.3" font-family="Times,serif" font-size="14.00">v1 = g3</text>
<text text-anchor="start" x="250.899" y="-1178.3" font-family="Times,serif" font-size="14.00"> v2</text>
<text text-anchor="start" x="250.899" y="-1163.3" font-family="Times,serif" font-size="14.00"> v3 = &amp;(v2)</text>
<text text-anchor="start" x="250.899" y="-1148.3" font-family="Times,serif" font-size="14.00"> g3 = v3</text>
<text text-anchor="start" x="250.899" y="-1133.3" font-family="Times,serif" font-size="14.00"> v2 = 1</text>
<text text-anchor="start" x="250.899" y="-1118.3" font-family="Times,serif" font-size="14.00"> v4</text>
</g>
<!-- Node0xf52dbd0&#45;&gt;Node0x210f4b10 -->
<g id="edge1" class="edge"><title>Node0xf52dbd0&#45;&gt;Node0x210f4b10</title>
<path fill="none" stroke="black" d="M292.899,-1246.35C292.899,-1237.77 292.899,-1228.26 292.899,-1218.8"/>
<polygon fill="black" stroke="black" points="296.399,-1218.59 292.899,-1208.59 289.399,-1218.59 296.399,-1218.59"/>
</g>
<!-- Node0x7fa6cf0 -->
<g id="node3" class="node"><title>Node0x7fa6cf0</title>
<polygon fill="none" stroke="black" points="1.89884,-1036.5 1.89884,-1072.5 583.899,-1072.5 583.899,-1036.5 1.89884,-1036.5"/>
<text text-anchor="start" x="9.89884" y="-1050.8" font-family="Times,serif" font-size="14.00">if ((mbedtls_mpi_cmp_int(v3, 0) == 0) or (mbedtls_mpi_cmp_int(g3, 1) == 0)):</text>
</g>
<!-- Node0x210f4b10&#45;&gt;Node0x7fa6cf0 -->
<g id="edge2" class="edge"><title>Node0x210f4b10&#45;&gt;Node0x7fa6cf0</title>
<path fill="none" stroke="black" d="M292.899,-1110.32C292.899,-1100.89 292.899,-1091.32 292.899,-1082.87"/>
<polygon fill="black" stroke="black" points="296.399,-1082.86 292.899,-1072.86 289.399,-1082.86 296.399,-1082.86"/>
</g>
<!-- Node0xa4520c0 -->
<g id="node4" class="node"><title>Node0xa4520c0</title>
<polygon fill="none" stroke="black" points="74.3988,-846.5 74.3988,-929.5 175.399,-929.5 175.399,-846.5 74.3988,-846.5"/>
<text text-anchor="start" x="82.3988" y="-914.3" font-family="Times,serif" font-size="14.00">0x805a024:</text>
<text text-anchor="start" x="82.3988" y="-899.3" font-family="Times,serif" font-size="14.00"> g1 = &#45;14</text>
<text text-anchor="start" x="82.3988" y="-884.3" font-family="Times,serif" font-size="14.00"> g3 = v1</text>
<text text-anchor="start" x="82.3988" y="-869.3" font-family="Times,serif" font-size="14.00"> g2 = v4</text>
<text text-anchor="start" x="82.3988" y="-854.3" font-family="Times,serif" font-size="14.00"> return &#45;14</text>
</g>
<!-- Node0x7fa6cf0&#45;&gt;Node0xa4520c0 -->
<g id="edge3" class="edge"><title>Node0x7fa6cf0&#45;&gt;Node0xa4520c0</title>
<path fill="none" stroke="black" d="M82.6826,-1036.48C45.425,-1031.44 16.3285,-1025.29 9.89884,-1018 -19.6303,-984.535 23.985,-946.406 65.7117,-920.332"/>
<polygon fill="black" stroke="black" points="67.5579,-923.306 74.2844,-915.12 63.9214,-917.324 67.5579,-923.306"/>
<text text-anchor="middle" x="278.399" y="-1006.8" font-family="Times,serif" font-size="14.00">(mbedtls_mpi_cmp_int(v3, 0) == 0) or (mbedtls_mpi_cmp_int(g3, 1) == 0)</text>
</g>
<!-- Node0x210f4e30 -->
<g id="node5" class="node"><title>Node0x210f4e30</title>
<polygon fill="none" stroke="black" points="526.399,-948.5 526.399,-984.5 599.399,-984.5 599.399,-948.5 526.399,-948.5"/>
<text text-anchor="start" x="534.399" y="-962.8" font-family="Times,serif" font-size="14.00">v5 = g3</text>
</g>
<!-- Node0x7fa6cf0&#45;&gt;Node0x210f4e30 -->
<g id="edge4" class="edge"><title>Node0x7fa6cf0&#45;&gt;Node0x210f4e30</title>
<path fill="none" stroke="black" d="M508.4,-1036.43C527.288,-1031.7 542.446,-1025.67 550.899,-1018 557.35,-1012.14 560.64,-1003.51 562.236,-995.026"/>
<polygon fill="black" stroke="black" points="565.728,-995.301 563.442,-984.956 558.778,-994.469 565.728,-995.301"/>
<text text-anchor="middle" x="827.899" y="-1006.8" font-family="Times,serif" font-size="14.00">(mbedtls_mpi_cmp_int(v3, 0) != 0) and (mbedtls_mpi_cmp_int(g3, 1) != 0)</text>
</g>
<!-- Node0xe959d80 -->
<g id="node6" class="node"><title>Node0xe959d80</title>
<polygon fill="none" stroke="black" points="177.899,-23.5 177.899,-59.5 231.899,-59.5 231.899,-23.5 177.899,-23.5"/>
<text text-anchor="start" x="185.899" y="-37.8" font-family="Times,serif" font-size="14.00">exit:</text>
</g>
<!-- Node0xa4520c0&#45;&gt;Node0xe959d80 -->
<g id="edge5" class="edge"><title>Node0xa4520c0&#45;&gt;Node0xe959d80</title>
<path fill="none" stroke="black" d="M139.227,-846.273C146.116,-823.175 152.899,-793.562 152.899,-766.5 152.899,-766.5 152.899,-766.5 152.899,-130.5 152.899,-106.71 167.159,-83.7031 180.745,-67.1837"/>
<polygon fill="black" stroke="black" points="183.394,-69.4712 187.294,-59.6204 178.102,-64.8888 183.394,-69.4712"/>
</g>
<!-- Node0x2320faf0 -->
<g id="node7" class="node"><title>Node0x2320faf0</title>
<polygon fill="none" stroke="black" points="351.399,-791.5 351.399,-827.5 642.399,-827.5 642.399,-791.5 351.399,-791.5"/>
<text text-anchor="start" x="359.399" y="-805.8" font-family="Times,serif" font-size="14.00">if (mbedtls_mpi_cmp_int(v5, 2) == 0):</text>
</g>
<!-- Node0x210f4e30&#45;&gt;Node0x2320faf0 -->
<g id="edge6" class="edge"><title>Node0x210f4e30&#45;&gt;Node0x2320faf0</title>
<path fill="none" stroke="black" d="M555.584,-948.32C544.136,-921.435 521.896,-869.206 508.324,-837.332"/>
<polygon fill="black" stroke="black" points="511.385,-835.586 504.247,-827.757 504.944,-838.329 511.385,-835.586"/>
</g>
<!-- Node0xc40c1a0 -->
<g id="node8" class="node"><title>Node0xc40c1a0</title>
<polygon fill="none" stroke="black" points="169.399,-554.5 169.399,-637.5 270.399,-637.5 270.399,-554.5 169.399,-554.5"/>
<text text-anchor="start" x="177.399" y="-622.3" font-family="Times,serif" font-size="14.00">0x805a058:</text>
<text text-anchor="start" x="177.399" y="-607.3" font-family="Times,serif" font-size="14.00"> g1 = 0</text>
<text text-anchor="start" x="177.399" y="-592.3" font-family="Times,serif" font-size="14.00"> g3 = v1</text>
<text text-anchor="start" x="177.399" y="-577.3" font-family="Times,serif" font-size="14.00"> g2 = v4</text>
<text text-anchor="start" x="177.399" y="-562.3" font-family="Times,serif" font-size="14.00"> return 0</text>
</g>
<!-- Node0x2320faf0&#45;&gt;Node0xc40c1a0 -->
<g id="edge7" class="edge"><title>Node0x2320faf0&#45;&gt;Node0xc40c1a0</title>
<path fill="none" stroke="black" d="M351.258,-802.447C305.503,-797.506 262.757,-788.682 246.899,-773 214.445,-740.907 210.445,-687.289 212.873,-647.65"/>
<polygon fill="black" stroke="black" points="216.366,-647.877 213.639,-637.64 209.387,-647.343 216.366,-647.877"/>
<text text-anchor="middle" x="369.899" y="-761.8" font-family="Times,serif" font-size="14.00">mbedtls_mpi_cmp_int(v5, 2) == 0</text>
</g>
<!-- Node0xfceb870 -->
<g id="node9" class="node"><title>Node0xfceb870</title>
<polygon fill="none" stroke="black" points="362.899,-656.5 362.899,-739.5 630.899,-739.5 630.899,-656.5 362.899,-656.5"/>
<text text-anchor="start" x="370.899" y="-724.3" font-family="Times,serif" font-size="14.00">0x805a05c:</text>
<text text-anchor="start" x="370.899" y="-709.3" font-family="Times,serif" font-size="14.00"> g1 = v3</text>
<text text-anchor="start" x="370.899" y="-694.3" font-family="Times,serif" font-size="14.00"> v6 = mpi_check_small_factors(v5)</text>
<text text-anchor="start" x="370.899" y="-679.3" font-family="Times,serif" font-size="14.00"> g1 = v6</text>
<text text-anchor="start" x="370.899" y="-664.3" font-family="Times,serif" font-size="14.00"> result</text>
</g>
<!-- Node0x2320faf0&#45;&gt;Node0xfceb870 -->
<g id="edge8" class="edge"><title>Node0x2320faf0&#45;&gt;Node0xfceb870</title>
<path fill="none" stroke="black" d="M496.899,-791.391C496.899,-780.15 496.899,-764.807 496.899,-749.853"/>
<polygon fill="black" stroke="black" points="500.399,-749.618 496.899,-739.618 493.399,-749.618 500.399,-749.618"/>
<text text-anchor="middle" x="616.899" y="-761.8" font-family="Times,serif" font-size="14.00">mbedtls_mpi_cmp_int(v5, 2) != 0</text>
</g>
<!-- Node0xc40c1a0&#45;&gt;Node0xe959d80 -->
<g id="edge9" class="edge"><title>Node0xc40c1a0&#45;&gt;Node0xe959d80</title>
<path fill="none" stroke="black" d="M212.399,-554.319C208.649,-530.551 204.899,-499.926 204.899,-472.5 204.899,-472.5 204.899,-472.5 204.899,-130.5 204.899,-110.13 204.899,-87.1087 204.899,-69.7225"/>
<polygon fill="black" stroke="black" points="208.399,-69.6994 204.899,-59.6995 201.399,-69.6995 208.399,-69.6994"/>
</g>
<!-- Node0xa453290 -->
<g id="node10" class="node"><title>Node0xa453290</title>
<polygon fill="none" stroke="black" points="444.399,-497.5 444.399,-535.5 549.399,-535.5 549.399,-497.5 444.399,-497.5"/>
<text text-anchor="start" x="452.399" y="-520.3" font-family="Times,serif" font-size="14.00">if (v6 == 0):</text>
<text text-anchor="start" x="452.399" y="-505.3" font-family="Times,serif" font-size="14.00"> else:</text>
</g>
<!-- Node0xfceb870&#45;&gt;Node0xa453290 -->
<g id="edge10" class="edge"><title>Node0xfceb870&#45;&gt;Node0xa453290</title>
<path fill="none" stroke="black" d="M496.899,-656.269C496.899,-622.551 496.899,-575.519 496.899,-545.793"/>
<polygon fill="black" stroke="black" points="500.399,-545.681 496.899,-535.681 493.399,-545.681 500.399,-545.681"/>
</g>
<!-- Node0x106e0230 -->
<g id="node11" class="node"><title>Node0x106e0230</title>
<polygon fill="none" stroke="black" points="220.399,-275.5 220.399,-373.5 489.399,-373.5 489.399,-275.5 220.399,-275.5"/>
<text text-anchor="start" x="228.399" y="-358.3" font-family="Times,serif" font-size="14.00">0x805a072:</text>
<text text-anchor="start" x="228.399" y="-343.3" font-family="Times,serif" font-size="14.00"> g4 = a3</text>
<text text-anchor="start" x="228.399" y="-328.3" font-family="Times,serif" font-size="14.00"> g1 = v3</text>
<text text-anchor="start" x="228.399" y="-313.3" font-family="Times,serif" font-size="14.00"> g6 = a2</text>
<text text-anchor="start" x="228.399" y="-298.3" font-family="Times,serif" font-size="14.00"> result = mpi_miller_rabin(v5, 2, 0)</text>
<text text-anchor="start" x="228.399" y="-283.3" font-family="Times,serif" font-size="14.00"> g1 = result</text>
</g>
<!-- Node0xa453290&#45;&gt;Node0x106e0230 -->
<g id="edge11" class="edge"><title>Node0xa453290&#45;&gt;Node0x106e0230</title>
<path fill="none" stroke="black" d="M462.536,-497.382C454.509,-492.145 446.411,-485.942 439.899,-479 413.834,-451.215 392.95,-413.944 378.405,-383.086"/>
<polygon fill="black" stroke="black" points="381.459,-381.35 374.096,-373.732 375.102,-384.279 381.459,-381.35"/>
<text text-anchor="middle" x="469.899" y="-467.8" font-family="Times,serif" font-size="14.00">v6 == 0</text>
</g>
<!-- Node0xc40a170 -->
<g id="node12" class="node"><title>Node0xc40a170</title>
<polygon fill="none" stroke="black" points="457.899,-392.5 457.899,-445.5 567.899,-445.5 567.899,-392.5 457.899,-392.5"/>
<text text-anchor="start" x="465.899" y="-430.3" font-family="Times,serif" font-size="14.00">0x805a069:</text>
<text text-anchor="start" x="465.899" y="-415.3" font-family="Times,serif" font-size="14.00"> if (v6 == 1):</text>
<text text-anchor="start" x="465.899" y="-400.3" font-family="Times,serif" font-size="14.00"> else:</text>
</g>
<!-- Node0xa453290&#45;&gt;Node0xc40a170 -->
<g id="edge12" class="edge"><title>Node0xa453290&#45;&gt;Node0xc40a170</title>
<path fill="none" stroke="black" d="M499.984,-497.087C501.957,-485.311 504.581,-469.648 506.948,-455.517"/>
<polygon fill="black" stroke="black" points="510.413,-456.017 508.614,-445.577 503.509,-454.861 510.413,-456.017"/>
<text text-anchor="middle" x="532.899" y="-467.8" font-family="Times,serif" font-size="14.00">v6 != 0</text>
</g>
<!-- Node0xa453660 -->
<g id="node13" class="node"><title>Node0xa453660</title>
<polygon fill="none" stroke="black" points="335.399,-97.5 335.399,-165.5 448.399,-165.5 448.399,-97.5 335.399,-97.5"/>
<text text-anchor="start" x="343.399" y="-150.3" font-family="Times,serif" font-size="14.00">0x805a029:</text>
<text text-anchor="start" x="343.399" y="-135.3" font-family="Times,serif" font-size="14.00"> g3 = v1</text>
<text text-anchor="start" x="343.399" y="-120.3" font-family="Times,serif" font-size="14.00"> g2 = v4</text>
<text text-anchor="start" x="343.399" y="-105.3" font-family="Times,serif" font-size="14.00"> return result</text>
</g>
<!-- Node0x106e0230&#45;&gt;Node0xa453660 -->
<g id="edge13" class="edge"><title>Node0x106e0230&#45;&gt;Node0xa453660</title>
<path fill="none" stroke="black" d="M364.236,-275.303C370.172,-244.657 377.793,-205.317 383.532,-175.691"/>
<polygon fill="black" stroke="black" points="387.012,-176.13 385.478,-165.647 380.14,-174.799 387.012,-176.13"/>
</g>
<!-- Node0xc40a0b0 -->
<g id="node14" class="node"><title>Node0xc40a0b0</title>
<polygon fill="none" stroke="black" points="411.399,-203.5 411.399,-256.5 512.399,-256.5 512.399,-203.5 411.399,-203.5"/>
<text text-anchor="start" x="419.399" y="-241.3" font-family="Times,serif" font-size="14.00">0x805a058:</text>
<text text-anchor="start" x="419.399" y="-226.3" font-family="Times,serif" font-size="14.00"> g1 = 0</text>
<text text-anchor="start" x="419.399" y="-211.3" font-family="Times,serif" font-size="14.00"> result = 0</text>
</g>
<!-- Node0xc40a170&#45;&gt;Node0xc40a0b0 -->
<g id="edge14" class="edge"><title>Node0xc40a170&#45;&gt;Node0xc40a0b0</title>
<path fill="none" stroke="black" d="M512.238,-392.36C510.745,-363.071 505.978,-314.144 490.899,-275 489.644,-271.742 488.119,-268.479 486.432,-265.282"/>
<polygon fill="black" stroke="black" points="489.39,-263.406 481.34,-256.517 483.337,-266.922 489.39,-263.406"/>
<text text-anchor="middle" x="540.899" y="-320.8" font-family="Times,serif" font-size="14.00">v6 == 1</text>
</g>
<!-- Node0x8e46d50 -->
<g id="node15" class="node"><title>Node0x8e46d50</title>
<polygon fill="none" stroke="black" points="541.399,-212 541.399,-248 638.399,-248 638.399,-212 541.399,-212"/>
<text text-anchor="start" x="549.399" y="-226.3" font-family="Times,serif" font-size="14.00">result = v6</text>
</g>
<!-- Node0xc40a170&#45;&gt;Node0x8e46d50 -->
<g id="edge15" class="edge"><title>Node0xc40a170&#45;&gt;Node0x8e46d50</title>
<path fill="none" stroke="black" d="M558.166,-392.276C564.315,-386.976 569.881,-380.878 573.899,-374 594.772,-338.267 595.331,-288.9 593.126,-258.507"/>
<polygon fill="black" stroke="black" points="596.585,-257.883 592.221,-248.229 589.612,-258.497 596.585,-257.883"/>
<text text-anchor="middle" x="621.899" y="-320.8" font-family="Times,serif" font-size="14.00">v6 != 1</text>
</g>
<!-- Node0xa453660&#45;&gt;Node0xe959d80 -->
<g id="edge16" class="edge"><title>Node0xa453660&#45;&gt;Node0xe959d80</title>
<path fill="none" stroke="black" d="M335.285,-103.858C304.84,-89.531 268.18,-72.2795 241.497,-59.7228"/>
<polygon fill="black" stroke="black" points="242.687,-56.4143 232.148,-55.3232 239.706,-62.7481 242.687,-56.4143"/>
</g>
<!-- Node0xc40a0b0&#45;&gt;Node0xa453660 -->
<g id="edge17" class="edge"><title>Node0xc40a0b0&#45;&gt;Node0xa453660</title>
<path fill="none" stroke="black" d="M443.324,-203.393C436.742,-194.32 429.158,-183.864 421.871,-173.819"/>
<polygon fill="black" stroke="black" points="424.553,-171.555 415.848,-165.516 418.887,-175.666 424.553,-171.555"/>
</g>
<!-- Node0x8e46d50&#45;&gt;Node0xa453660 -->
<g id="edge18" class="edge"><title>Node0x8e46d50&#45;&gt;Node0xa453660</title>
<path fill="none" stroke="black" d="M554.956,-211.97C528.064,-198.864 490.122,-180.371 457.603,-164.523"/>
<polygon fill="black" stroke="black" points="459.112,-161.364 448.589,-160.129 456.045,-167.657 459.112,-161.364"/>
</g>
</g>
</svg>
