<?xml version="1.0" encoding="UTF-8" standalone="no"?>
<!DOCTYPE svg PUBLIC "-//W3C//DTD SVG 1.1//EN"
 "http://www.w3.org/Graphics/SVG/1.1/DTD/svg11.dtd">
<!-- Generated by graphviz version 2.38.0 (20140413.2041)
 -->
<!-- Title: Control&#45;flow graph for function &#39;pk_parse_key_pkcs1_der(a1, a2, a3)&#39;. Pages: 1 -->
<svg width="1273pt" height="3312pt"
 viewBox="0.00 0.00 1273.00 3312.00" xmlns="http://www.w3.org/2000/svg" xmlns:xlink="http://www.w3.org/1999/xlink">
<g id="graph0" class="graph" transform="scale(1 1) rotate(0) translate(4 3308)">
<title>Control&#45;flow graph for function &#39;pk_parse_key_pkcs1_der(a1, a2, a3)&#39;.</title>
<polygon fill="white" stroke="none" points="-4,4 -4,-3308 1269,-3308 1269,4 -4,4"/>
<text text-anchor="middle" x="632.5" y="-7.8" font-family="Times,serif" font-size="14.00">Control&#45;flow graph for function &#39;pk_parse_key_pkcs1_der(a1, a2, a3)&#39;.</text>
<!-- Node0xf605290 -->
<g id="node1" class="node"><title>Node0xf605290</title>
<polygon fill="none" stroke="black" points="924,-3235.5 924,-3303.5 983,-3303.5 983,-3235.5 924,-3235.5"/>
<text text-anchor="start" x="932" y="-3288.3" font-family="Times,serif" font-size="14.00">entry:</text>
<text text-anchor="start" x="932" y="-3273.3" font-family="Times,serif" font-size="14.00"> a1</text>
<text text-anchor="start" x="932" y="-3258.3" font-family="Times,serif" font-size="14.00"> a2</text>
<text text-anchor="start" x="932" y="-3243.3" font-family="Times,serif" font-size="14.00"> a3</text>
</g>
<!-- Node0xe324740 -->
<g id="node2" class="node"><title>Node0xe324740</title>
<polygon fill="none" stroke="black" points="642,-3009.5 642,-3197.5 1265,-3197.5 1265,-3009.5 642,-3009.5"/>
<text text-anchor="start" x="650" y="-3182.3" font-family="Times,serif" font-size="14.00">v1 = g3</text>
<text text-anchor="start" x="650" y="-3167.3" font-family="Times,serif" font-size="14.00"> g3 = g1</text>
<text text-anchor="start" x="650" y="-3152.3" font-family="Times,serif" font-size="14.00"> v2 = g7</text>
<text text-anchor="start" x="650" y="-3137.3" font-family="Times,serif" font-size="14.00"> v3 = g6</text>
<text text-anchor="start" x="650" y="-3122.3" font-family="Times,serif" font-size="14.00"> v4 = v3</text>
<text text-anchor="start" x="650" y="-3107.3" font-family="Times,serif" font-size="14.00"> g7 = &amp;(v4)</text>
<text text-anchor="start" x="650" y="-3092.3" font-family="Times,serif" font-size="14.00"> v5 = g5</text>
<text text-anchor="start" x="650" y="-3077.3" font-family="Times,serif" font-size="14.00"> v6</text>
<text text-anchor="start" x="650" y="-3062.3" font-family="Times,serif" font-size="14.00"> v7 = mbedtls_asn1_get_tag(&amp;(v4), (g4 + v3), PtrToIntCastExpr&lt;int32&gt;(&amp;(v6)), 48)</text>
<text text-anchor="start" x="650" y="-3047.3" font-family="Times,serif" font-size="14.00"> v8 = v7</text>
<text text-anchor="start" x="650" y="-3032.3" font-family="Times,serif" font-size="14.00"> v9</text>
<text text-anchor="start" x="650" y="-3017.3" font-family="Times,serif" font-size="14.00"> result2</text>
</g>
<!-- Node0xf605290&#45;&gt;Node0xe324740 -->
<g id="edge1" class="edge"><title>Node0xf605290&#45;&gt;Node0xe324740</title>
<path fill="none" stroke="black" d="M953.5,-3235.31C953.5,-3227.05 953.5,-3217.74 953.5,-3208"/>
<polygon fill="black" stroke="black" points="957,-3207.71 953.5,-3197.71 950,-3207.71 957,-3207.71"/>
</g>
<!-- Node0xb14f630 -->
<g id="node3" class="node"><title>Node0xb14f630</title>
<polygon fill="none" stroke="black" points="901,-2935.5 901,-2971.5 1006,-2971.5 1006,-2935.5 901,-2935.5"/>
<text text-anchor="start" x="909" y="-2949.8" font-family="Times,serif" font-size="14.00">if (v7 == 0):</text>
</g>
<!-- Node0xe324740&#45;&gt;Node0xb14f630 -->
<g id="edge2" class="edge"><title>Node0xe324740&#45;&gt;Node0xb14f630</title>
<path fill="none" stroke="black" d="M953.5,-3009.19C953.5,-2999.35 953.5,-2990 953.5,-2981.9"/>
<polygon fill="black" stroke="black" points="957,-2981.71 953.5,-2971.71 950,-2981.71 957,-2981.71"/>
</g>
<!-- Node0xc933780 -->
<g id="node4" class="node"><title>Node0xc933780</title>
<polygon fill="none" stroke="black" points="353,-2830.5 353,-2883.5 1036,-2883.5 1036,-2830.5 353,-2830.5"/>
<text text-anchor="start" x="361" y="-2868.3" font-family="Times,serif" font-size="14.00">v10 = (v6 + v4)</text>
<text text-anchor="start" x="361" y="-2853.3" font-family="Times,serif" font-size="14.00"> g5 = v10</text>
<text text-anchor="start" x="361" y="-2838.3" font-family="Times,serif" font-size="14.00"> v11 = mbedtls_asn1_get_int(IntToPtrCastExpr&lt;ptr&gt;(g7), v10, IntToPtrCastExpr&lt;ptr&gt;(g3))</text>
</g>
<!-- Node0xb14f630&#45;&gt;Node0xc933780 -->
<g id="edge3" class="edge"><title>Node0xb14f630&#45;&gt;Node0xc933780</title>
<path fill="none" stroke="black" d="M906.897,-2935.5C869.991,-2922.03 817.588,-2902.91 774.069,-2887.03"/>
<polygon fill="black" stroke="black" points="775.236,-2883.73 764.642,-2883.59 772.837,-2890.31 775.236,-2883.73"/>
<text text-anchor="middle" x="884.5" y="-2905.8" font-family="Times,serif" font-size="14.00">v7 == 0</text>
</g>
<!-- Node0x10069b90 -->
<g id="node5" class="node"><title>Node0x10069b90</title>
<polygon fill="none" stroke="black" points="941,-2455.5 941,-2583.5 1120,-2583.5 1120,-2455.5 941,-2455.5"/>
<text text-anchor="start" x="949" y="-2568.3" font-family="Times,serif" font-size="14.00">0x804e238:</text>
<text text-anchor="start" x="949" y="-2553.3" font-family="Times,serif" font-size="14.00"> result2 = (v8 &#45; 15616)</text>
<text text-anchor="start" x="949" y="-2538.3" font-family="Times,serif" font-size="14.00"> g1 = result2</text>
<text text-anchor="start" x="949" y="-2523.3" font-family="Times,serif" font-size="14.00"> g3 = v1</text>
<text text-anchor="start" x="949" y="-2508.3" font-family="Times,serif" font-size="14.00"> g7 = v2</text>
<text text-anchor="start" x="949" y="-2493.3" font-family="Times,serif" font-size="14.00"> g5 = v5</text>
<text text-anchor="start" x="949" y="-2478.3" font-family="Times,serif" font-size="14.00"> g2 = v9</text>
<text text-anchor="start" x="949" y="-2463.3" font-family="Times,serif" font-size="14.00"> return result2</text>
</g>
<!-- Node0xb14f630&#45;&gt;Node0x10069b90 -->
<g id="edge4" class="edge"><title>Node0xb14f630&#45;&gt;Node0x10069b90</title>
<path fill="none" stroke="black" d="M997.689,-2935.46C1028.64,-2920.32 1064.5,-2894.82 1064.5,-2858 1064.5,-2858 1064.5,-2858 1064.5,-2662 1064.5,-2639.43 1060.36,-2615.39 1054.97,-2593.64"/>
<polygon fill="black" stroke="black" points="1058.32,-2592.62 1052.42,-2583.83 1051.55,-2594.39 1058.32,-2592.62"/>
<text text-anchor="middle" x="1091.5" y="-2770.8" font-family="Times,serif" font-size="14.00">v7 != 0</text>
</g>
<!-- Node0xc932fb0 -->
<g id="node6" class="node"><title>Node0xc932fb0</title>
<polygon fill="none" stroke="black" points="688.5,-2756.5 688.5,-2792.5 802.5,-2792.5 802.5,-2756.5 688.5,-2756.5"/>
<text text-anchor="start" x="696.5" y="-2770.8" font-family="Times,serif" font-size="14.00">if (v11 == 0):</text>
</g>
<!-- Node0xc933780&#45;&gt;Node0xc932fb0 -->
<g id="edge5" class="edge"><title>Node0xc933780&#45;&gt;Node0xc932fb0</title>
<path fill="none" stroke="black" d="M710.917,-2830.09C716.683,-2820.99 723.161,-2810.76 728.938,-2801.64"/>
<polygon fill="black" stroke="black" points="732.035,-2803.29 734.43,-2792.97 726.121,-2799.55 732.035,-2803.29"/>
</g>
<!-- Node0xe325970 -->
<g id="node7" class="node"><title>Node0xe325970</title>
<polygon fill="none" stroke="black" points="846.5,-23.5 846.5,-59.5 900.5,-59.5 900.5,-23.5 846.5,-23.5"/>
<text text-anchor="start" x="854.5" y="-37.8" font-family="Times,serif" font-size="14.00">exit:</text>
</g>
<!-- Node0x10069b90&#45;&gt;Node0xe325970 -->
<g id="edge6" class="edge"><title>Node0x10069b90&#45;&gt;Node0xe325970</title>
<path fill="none" stroke="black" d="M1030.5,-2455.49C1030.5,-2429.21 1030.5,-2398.38 1030.5,-2370.5 1030.5,-2370.5 1030.5,-2370.5 1030.5,-145.5 1030.5,-88.4031 957.009,-61.2209 910.589,-49.7465"/>
<polygon fill="black" stroke="black" points="911.382,-46.3375 900.847,-47.4687 909.788,-53.1537 911.382,-46.3375"/>
</g>
<!-- Node0x10068d20 -->
<g id="node8" class="node"><title>Node0x10068d20</title>
<polygon fill="none" stroke="black" points="597.5,-2621.5 597.5,-2704.5 893.5,-2704.5 893.5,-2621.5 597.5,-2621.5"/>
<text text-anchor="start" x="605.5" y="-2689.3" font-family="Times,serif" font-size="14.00">v12 = g3</text>
<text text-anchor="start" x="605.5" y="-2674.3" font-family="Times,serif" font-size="14.00"> v13 = *(IntToPtrCastExpr&lt;ptr&gt;(v12))</text>
<text text-anchor="start" x="605.5" y="-2659.3" font-family="Times,serif" font-size="14.00"> g4 = v13</text>
<text text-anchor="start" x="605.5" y="-2644.3" font-family="Times,serif" font-size="14.00"> g1 = &#45;15744</text>
<text text-anchor="start" x="605.5" y="-2629.3" font-family="Times,serif" font-size="14.00"> result = &#45;15744</text>
</g>
<!-- Node0xc932fb0&#45;&gt;Node0x10068d20 -->
<g id="edge7" class="edge"><title>Node0xc932fb0&#45;&gt;Node0x10068d20</title>
<path fill="none" stroke="black" d="M745.5,-2756.39C745.5,-2745.15 745.5,-2729.81 745.5,-2714.85"/>
<polygon fill="black" stroke="black" points="749,-2714.62 745.5,-2704.62 742,-2714.62 749,-2714.62"/>
<text text-anchor="middle" x="780" y="-2726.8" font-family="Times,serif" font-size="14.00">v11 == 0</text>
</g>
<!-- Node0x10068cc0 -->
<g id="node9" class="node"><title>Node0x10068cc0</title>
<polygon fill="none" stroke="black" points="951,-2645 951,-2681 1032,-2681 1032,-2645 951,-2645"/>
<text text-anchor="start" x="959" y="-2659.3" font-family="Times,serif" font-size="14.00">v8 = v11</text>
</g>
<!-- Node0xc932fb0&#45;&gt;Node0x10068cc0 -->
<g id="edge8" class="edge"><title>Node0xc932fb0&#45;&gt;Node0x10068cc0</title>
<path fill="none" stroke="black" d="M785.281,-2756.41C817.077,-2742.68 862.747,-2722.83 902.5,-2705 916.5,-2698.72 931.681,-2691.78 945.474,-2685.42"/>
<polygon fill="black" stroke="black" points="947.16,-2688.5 954.77,-2681.12 944.224,-2682.14 947.16,-2688.5"/>
<text text-anchor="middle" x="890" y="-2726.8" font-family="Times,serif" font-size="14.00">v11 != 0</text>
</g>
<!-- Node0x10068e90 -->
<g id="node10" class="node"><title>Node0x10068e90</title>
<polygon fill="none" stroke="black" points="688.5,-2501.5 688.5,-2537.5 802.5,-2537.5 802.5,-2501.5 688.5,-2501.5"/>
<text text-anchor="start" x="696.5" y="-2515.8" font-family="Times,serif" font-size="14.00">if (v13 == 0):</text>
</g>
<!-- Node0x10068d20&#45;&gt;Node0x10068e90 -->
<g id="edge9" class="edge"><title>Node0x10068d20&#45;&gt;Node0x10068e90</title>
<path fill="none" stroke="black" d="M745.5,-2621.45C745.5,-2597.81 745.5,-2568.62 745.5,-2547.72"/>
<polygon fill="black" stroke="black" points="749,-2547.62 745.5,-2537.62 742,-2547.62 749,-2547.62"/>
</g>
<!-- Node0x10068cc0&#45;&gt;Node0x10069b90 -->
<g id="edge10" class="edge"><title>Node0x10068cc0&#45;&gt;Node0x10069b90</title>
<path fill="none" stroke="black" d="M996.204,-2644.93C999.827,-2631.79 1005.1,-2612.65 1010.43,-2593.31"/>
<polygon fill="black" stroke="black" points="1013.85,-2594.09 1013.13,-2583.52 1007.1,-2592.23 1013.85,-2594.09"/>
</g>
<!-- Node0x10069180 -->
<g id="node11" class="node"><title>Node0x10069180</title>
<polygon fill="none" stroke="black" points="409,-2335.5 409,-2403.5 924,-2403.5 924,-2335.5 409,-2335.5"/>
<text text-anchor="start" x="417" y="-2388.3" font-family="Times,serif" font-size="14.00">v14 = (v12 + 8)</text>
<text text-anchor="start" x="417" y="-2373.3" font-family="Times,serif" font-size="14.00"> v15 = g5</text>
<text text-anchor="start" x="417" y="-2358.3" font-family="Times,serif" font-size="14.00"> v16 = mbedtls_asn1_get_mpi(IntToPtrCastExpr&lt;ptr&gt;(g7), v15, v14)</text>
<text text-anchor="start" x="417" y="-2343.3" font-family="Times,serif" font-size="14.00"> v17 = v16</text>
</g>
<!-- Node0x10068e90&#45;&gt;Node0x10069180 -->
<g id="edge11" class="edge"><title>Node0x10068e90&#45;&gt;Node0x10069180</title>
<path fill="none" stroke="black" d="M736.283,-2501.23C724.738,-2479.6 704.566,-2441.81 688.87,-2412.41"/>
<polygon fill="black" stroke="black" points="691.954,-2410.75 684.157,-2403.58 685.779,-2414.05 691.954,-2410.75"/>
<text text-anchor="middle" x="736" y="-2425.8" font-family="Times,serif" font-size="14.00">v13 == 0</text>
</g>
<!-- Node0x10069090 -->
<g id="node12" class="node"><title>Node0x10069090</title>
<polygon fill="none" stroke="black" points="817,-497.5 817,-595.5 930,-595.5 930,-497.5 817,-497.5"/>
<text text-anchor="start" x="825" y="-580.3" font-family="Times,serif" font-size="14.00">0x804e23d:</text>
<text text-anchor="start" x="825" y="-565.3" font-family="Times,serif" font-size="14.00"> g3 = v1</text>
<text text-anchor="start" x="825" y="-550.3" font-family="Times,serif" font-size="14.00"> g7 = v2</text>
<text text-anchor="start" x="825" y="-535.3" font-family="Times,serif" font-size="14.00"> g5 = v5</text>
<text text-anchor="start" x="825" y="-520.3" font-family="Times,serif" font-size="14.00"> g2 = v9</text>
<text text-anchor="start" x="825" y="-505.3" font-family="Times,serif" font-size="14.00"> return result</text>
</g>
<!-- Node0x10068e90&#45;&gt;Node0x10069090 -->
<g id="edge12" class="edge"><title>Node0x10068e90&#45;&gt;Node0x10069090</title>
<path fill="none" stroke="black" d="M802.612,-2504.2C863.882,-2485.02 952.5,-2444.5 952.5,-2370.5 952.5,-2370.5 952.5,-2370.5 952.5,-688 952.5,-657.836 938.494,-628.164 922.277,-603.918"/>
<polygon fill="black" stroke="black" points="925.055,-601.782 916.468,-595.576 919.31,-605.783 925.055,-601.782"/>
<text text-anchor="middle" x="984" y="-1555.8" font-family="Times,serif" font-size="14.00">v13 != 0</text>
</g>
<!-- Node0x100691e0 -->
<g id="node13" class="node"><title>Node0x100691e0</title>
<polygon fill="none" stroke="black" points="609.5,-2261.5 609.5,-2297.5 723.5,-2297.5 723.5,-2261.5 609.5,-2261.5"/>
<text text-anchor="start" x="617.5" y="-2275.8" font-family="Times,serif" font-size="14.00">if (v16 == 0):</text>
</g>
<!-- Node0x10069180&#45;&gt;Node0x100691e0 -->
<g id="edge13" class="edge"><title>Node0x10069180&#45;&gt;Node0x100691e0</title>
<path fill="none" stroke="black" d="M666.5,-2335.48C666.5,-2326.33 666.5,-2316.5 666.5,-2307.72"/>
<polygon fill="black" stroke="black" points="670,-2307.64 666.5,-2297.64 663,-2307.64 670,-2307.64"/>
</g>
<!-- Node0x10069090&#45;&gt;Node0xe325970 -->
<g id="edge14" class="edge"><title>Node0x10069090&#45;&gt;Node0xe325970</title>
<path fill="none" stroke="black" d="M873.5,-497.309C873.5,-462.827 873.5,-415.306 873.5,-373.5 873.5,-373.5 873.5,-373.5 873.5,-145.5 873.5,-119.765 873.5,-90.414 873.5,-69.6451"/>
<polygon fill="black" stroke="black" points="877,-69.6312 873.5,-59.6313 870,-69.6313 877,-69.6312"/>
</g>
<!-- Node0x100696c0 -->
<g id="node14" class="node"><title>Node0x100696c0</title>
<polygon fill="none" stroke="black" points="276,-2171.5 276,-2209.5 833,-2209.5 833,-2171.5 276,-2171.5"/>
<text text-anchor="start" x="284" y="-2194.3" font-family="Times,serif" font-size="14.00">v18 = g5</text>
<text text-anchor="start" x="284" y="-2179.3" font-family="Times,serif" font-size="14.00"> v19 = mbedtls_asn1_get_mpi(IntToPtrCastExpr&lt;ptr&gt;(g7), v18, (g3 + 20))</text>
</g>
<!-- Node0x100691e0&#45;&gt;Node0x100696c0 -->
<g id="edge15" class="edge"><title>Node0x100691e0&#45;&gt;Node0x100696c0</title>
<path fill="none" stroke="black" d="M644.372,-2261.31C627.602,-2248.28 604.338,-2230.21 585.682,-2215.72"/>
<polygon fill="black" stroke="black" points="587.783,-2212.92 577.738,-2209.55 583.489,-2218.45 587.783,-2212.92"/>
<text text-anchor="middle" x="656" y="-2231.8" font-family="Times,serif" font-size="14.00">v16 == 0</text>
</g>
<!-- Node0x100693e0 -->
<g id="node15" class="node"><title>Node0x100693e0</title>
<polygon fill="none" stroke="black" points="635,-647.5 635,-730.5 844,-730.5 844,-647.5 635,-647.5"/>
<text text-anchor="start" x="643" y="-715.3" font-family="Times,serif" font-size="14.00">0x804e2a6:</text>
<text text-anchor="start" x="643" y="-700.3" font-family="Times,serif" font-size="14.00"> mbedtls_rsa_free(g3, v15)</text>
<text text-anchor="start" x="643" y="-685.3" font-family="Times,serif" font-size="14.00"> result2 = (v17 &#45; 15616)</text>
<text text-anchor="start" x="643" y="-670.3" font-family="Times,serif" font-size="14.00"> g1 = result2</text>
<text text-anchor="start" x="643" y="-655.3" font-family="Times,serif" font-size="14.00"> result = result2</text>
</g>
<!-- Node0x100691e0&#45;&gt;Node0x100693e0 -->
<g id="edge16" class="edge"><title>Node0x100691e0&#45;&gt;Node0x100693e0</title>
<path fill="none" stroke="black" d="M723.689,-2276.45C781.228,-2270.96 861.5,-2252.39 861.5,-2191.5 861.5,-2191.5 861.5,-2191.5 861.5,-794 861.5,-771.192 848.998,-752.329 831.999,-737.223"/>
<polygon fill="black" stroke="black" points="833.843,-734.207 823.9,-730.546 829.39,-739.608 833.843,-734.207"/>
<text text-anchor="middle" x="893" y="-1498.8" font-family="Times,serif" font-size="14.00">v16 != 0</text>
</g>
<!-- Node0x10069720 -->
<g id="node16" class="node"><title>Node0x10069720</title>
<polygon fill="none" stroke="black" points="497.5,-2095.5 497.5,-2133.5 611.5,-2133.5 611.5,-2095.5 497.5,-2095.5"/>
<text text-anchor="start" x="505.5" y="-2118.3" font-family="Times,serif" font-size="14.00">if (v19 == 0):</text>
<text text-anchor="start" x="505.5" y="-2103.3" font-family="Times,serif" font-size="14.00"> else:</text>
</g>
<!-- Node0x100696c0&#45;&gt;Node0x10069720 -->
<g id="edge17" class="edge"><title>Node0x100696c0&#45;&gt;Node0x10069720</title>
<path fill="none" stroke="black" d="M554.5,-2171.21C554.5,-2162.96 554.5,-2153.04 554.5,-2143.86"/>
<polygon fill="black" stroke="black" points="558,-2143.58 554.5,-2133.58 551,-2143.58 558,-2143.58"/>
</g>
<!-- Node0x100693e0&#45;&gt;Node0x10069090 -->
<g id="edge18" class="edge"><title>Node0x100693e0&#45;&gt;Node0x10069090</title>
<path fill="none" stroke="black" d="M778.258,-647.362C791.357,-633.628 806.218,-618.045 820.24,-603.343"/>
<polygon fill="black" stroke="black" points="823.114,-605.401 827.483,-595.749 818.048,-600.57 823.114,-605.401"/>
</g>
<!-- Node0x10069440 -->
<g id="node17" class="node"><title>Node0x10069440</title>
<polygon fill="none" stroke="black" points="198,-2005.5 198,-2043.5 755,-2043.5 755,-2005.5 198,-2005.5"/>
<text text-anchor="start" x="206" y="-2028.3" font-family="Times,serif" font-size="14.00">v20 = g5</text>
<text text-anchor="start" x="206" y="-2013.3" font-family="Times,serif" font-size="14.00"> v21 = mbedtls_asn1_get_mpi(IntToPtrCastExpr&lt;ptr&gt;(g7), v20, (g3 + 32))</text>
</g>
<!-- Node0x10069720&#45;&gt;Node0x10069440 -->
<g id="edge19" class="edge"><title>Node0x10069720&#45;&gt;Node0x10069440</title>
<path fill="none" stroke="black" d="M538.338,-2095.27C527.043,-2082.52 511.802,-2065.33 499.277,-2051.2"/>
<polygon fill="black" stroke="black" points="501.893,-2048.87 492.641,-2043.71 496.655,-2053.52 501.893,-2048.87"/>
<text text-anchor="middle" x="555" y="-2065.8" font-family="Times,serif" font-size="14.00">v19 == 0</text>
</g>
<!-- Node0xb5dfe60 -->
<g id="node18" class="node"><title>Node0xb5dfe60</title>
<polygon fill="none" stroke="black" points="743,-1948.5 743,-1986.5 838,-1986.5 838,-1948.5 743,-1948.5"/>
<text text-anchor="start" x="751" y="-1971.3" font-family="Times,serif" font-size="14.00">v17 = v19</text>
<text text-anchor="start" x="751" y="-1956.3" font-family="Times,serif" font-size="14.00"> v15 = v18</text>
</g>
<!-- Node0x10069720&#45;&gt;Node0xb5dfe60 -->
<g id="edge20" class="edge"><title>Node0x10069720&#45;&gt;Node0xb5dfe60</title>
<path fill="none" stroke="black" d="M611.697,-2108.17C658.215,-2100.96 722.627,-2083.97 763.5,-2044 776.318,-2031.47 783.073,-2012.43 786.62,-1996.62"/>
<polygon fill="black" stroke="black" points="790.059,-1997.27 788.52,-1986.79 783.186,-1995.94 790.059,-1997.27"/>
<text text-anchor="middle" x="773" y="-2065.8" font-family="Times,serif" font-size="14.00">v19 != 0</text>
</g>
<!-- Node0x10068d80 -->
<g id="node19" class="node"><title>Node0x10068d80</title>
<polygon fill="none" stroke="black" points="419.5,-1891.5 419.5,-1929.5 533.5,-1929.5 533.5,-1891.5 419.5,-1891.5"/>
<text text-anchor="start" x="427.5" y="-1914.3" font-family="Times,serif" font-size="14.00">if (v21 == 0):</text>
<text text-anchor="start" x="427.5" y="-1899.3" font-family="Times,serif" font-size="14.00"> else:</text>
</g>
<!-- Node0x10069440&#45;&gt;Node0x10068d80 -->
<g id="edge21" class="edge"><title>Node0x10069440&#45;&gt;Node0x10068d80</title>
<path fill="none" stroke="black" d="M476.5,-2005.01C476.5,-1987.23 476.5,-1960.12 476.5,-1939.66"/>
<polygon fill="black" stroke="black" points="480,-1939.65 476.5,-1929.65 473,-1939.65 480,-1939.65"/>
</g>
<!-- Node0xb5dfe60&#45;&gt;Node0x100693e0 -->
<g id="edge22" class="edge"><title>Node0xb5dfe60&#45;&gt;Node0x100693e0</title>
<path fill="none" stroke="black" d="M797.866,-1948.41C805.24,-1928.63 815.5,-1895.85 815.5,-1866.5 815.5,-1866.5 815.5,-1866.5 815.5,-794 815.5,-773.814 806.051,-754.933 793.817,-738.947"/>
<polygon fill="black" stroke="black" points="796.241,-736.383 787.2,-730.859 790.823,-740.815 796.241,-736.383"/>
</g>
<!-- Node0xb5dfec0 -->
<g id="node20" class="node"><title>Node0xb5dfec0</title>
<polygon fill="none" stroke="black" points="152,-1801.5 152,-1839.5 709,-1839.5 709,-1801.5 152,-1801.5"/>
<text text-anchor="start" x="160" y="-1824.3" font-family="Times,serif" font-size="14.00">v22 = g5</text>
<text text-anchor="start" x="160" y="-1809.3" font-family="Times,serif" font-size="14.00"> v23 = mbedtls_asn1_get_mpi(IntToPtrCastExpr&lt;ptr&gt;(g7), v22, (g3 + 44))</text>
</g>
<!-- Node0x10068d80&#45;&gt;Node0xb5dfec0 -->
<g id="edge23" class="edge"><title>Node0x10068d80&#45;&gt;Node0xb5dfec0</title>
<path fill="none" stroke="black" d="M466.969,-1891.27C460.554,-1879 451.982,-1862.6 444.76,-1848.78"/>
<polygon fill="black" stroke="black" points="447.753,-1846.95 440.019,-1839.71 441.55,-1850.19 447.753,-1846.95"/>
<text text-anchor="middle" x="491" y="-1861.8" font-family="Times,serif" font-size="14.00">v21 == 0</text>
</g>
<!-- Node0xb5e02f0 -->
<g id="node21" class="node"><title>Node0xb5e02f0</title>
<polygon fill="none" stroke="black" points="697,-1744.5 697,-1782.5 792,-1782.5 792,-1744.5 697,-1744.5"/>
<text text-anchor="start" x="705" y="-1767.3" font-family="Times,serif" font-size="14.00">v17 = v21</text>
<text text-anchor="start" x="705" y="-1752.3" font-family="Times,serif" font-size="14.00"> v15 = v20</text>
</g>
<!-- Node0x10068d80&#45;&gt;Node0xb5e02f0 -->
<g id="edge24" class="edge"><title>Node0x10068d80&#45;&gt;Node0xb5e02f0</title>
<path fill="none" stroke="black" d="M533.621,-1907.43C587.555,-1902.49 667.429,-1887.03 717.5,-1840 730.651,-1827.65 737.407,-1808.45 740.872,-1792.51"/>
<polygon fill="black" stroke="black" points="744.326,-1793.07 742.708,-1782.6 737.443,-1791.8 744.326,-1793.07"/>
<text text-anchor="middle" x="723" y="-1861.8" font-family="Times,serif" font-size="14.00">v21 != 0</text>
</g>
<!-- Node0xb5dff40 -->
<g id="node22" class="node"><title>Node0xb5dff40</title>
<polygon fill="none" stroke="black" points="373.5,-1687.5 373.5,-1725.5 487.5,-1725.5 487.5,-1687.5 373.5,-1687.5"/>
<text text-anchor="start" x="381.5" y="-1710.3" font-family="Times,serif" font-size="14.00">if (v23 == 0):</text>
<text text-anchor="start" x="381.5" y="-1695.3" font-family="Times,serif" font-size="14.00"> else:</text>
</g>
<!-- Node0xb5dfec0&#45;&gt;Node0xb5dff40 -->
<g id="edge25" class="edge"><title>Node0xb5dfec0&#45;&gt;Node0xb5dff40</title>
<path fill="none" stroke="black" d="M430.5,-1801.01C430.5,-1783.23 430.5,-1756.12 430.5,-1735.66"/>
<polygon fill="black" stroke="black" points="434,-1735.65 430.5,-1725.65 427,-1735.65 434,-1735.65"/>
</g>
<!-- Node0xb5e02f0&#45;&gt;Node0x100693e0 -->
<g id="edge26" class="edge"><title>Node0xb5e02f0&#45;&gt;Node0x100693e0</title>
<path fill="none" stroke="black" d="M754.401,-1744.29C764.121,-1724.69 777.5,-1692.3 777.5,-1662.5 777.5,-1662.5 777.5,-1662.5 777.5,-794 777.5,-775.842 772.326,-756.924 765.797,-740.28"/>
<polygon fill="black" stroke="black" points="768.907,-738.645 761.825,-730.765 762.447,-741.342 768.907,-738.645"/>
</g>
<!-- Node0xb5e0350 -->
<g id="node23" class="node"><title>Node0xb5e0350</title>
<polygon fill="none" stroke="black" points="114,-1597.5 114,-1635.5 671,-1635.5 671,-1597.5 114,-1597.5"/>
<text text-anchor="start" x="122" y="-1620.3" font-family="Times,serif" font-size="14.00">v24 = g5</text>
<text text-anchor="start" x="122" y="-1605.3" font-family="Times,serif" font-size="14.00"> v25 = mbedtls_asn1_get_mpi(IntToPtrCastExpr&lt;ptr&gt;(g7), v24, (g3 + 56))</text>
</g>
<!-- Node0xb5dff40&#45;&gt;Node0xb5e0350 -->
<g id="edge27" class="edge"><title>Node0xb5dff40&#45;&gt;Node0xb5e0350</title>
<path fill="none" stroke="black" d="M422.626,-1687.27C417.378,-1675.11 410.382,-1658.91 404.452,-1645.18"/>
<polygon fill="black" stroke="black" points="407.541,-1643.5 400.364,-1635.71 401.115,-1646.28 407.541,-1643.5"/>
<text text-anchor="middle" x="449" y="-1657.8" font-family="Times,serif" font-size="14.00">v23 == 0</text>
</g>
<!-- Node0xb5e0630 -->
<g id="node24" class="node"><title>Node0xb5e0630</title>
<polygon fill="none" stroke="black" points="659,-1540.5 659,-1578.5 754,-1578.5 754,-1540.5 659,-1540.5"/>
<text text-anchor="start" x="667" y="-1563.3" font-family="Times,serif" font-size="14.00">v17 = v23</text>
<text text-anchor="start" x="667" y="-1548.3" font-family="Times,serif" font-size="14.00"> v15 = v22</text>
</g>
<!-- Node0xb5dff40&#45;&gt;Node0xb5e0630 -->
<g id="edge28" class="edge"><title>Node0xb5dff40&#45;&gt;Node0xb5e0630</title>
<path fill="none" stroke="black" d="M487.637,-1704.11C543.344,-1699.76 627.11,-1684.78 679.5,-1636 692.704,-1623.7 699.459,-1604.51 702.91,-1588.55"/>
<polygon fill="black" stroke="black" points="706.367,-1589.1 704.736,-1578.63 699.483,-1587.83 706.367,-1589.1"/>
<text text-anchor="middle" x="688" y="-1657.8" font-family="Times,serif" font-size="14.00">v23 != 0</text>
</g>
<!-- Node0xb5e03d0 -->
<g id="node25" class="node"><title>Node0xb5e03d0</title>
<polygon fill="none" stroke="black" points="335.5,-1483.5 335.5,-1521.5 449.5,-1521.5 449.5,-1483.5 335.5,-1483.5"/>
<text text-anchor="start" x="343.5" y="-1506.3" font-family="Times,serif" font-size="14.00">if (v25 == 0):</text>
<text text-anchor="start" x="343.5" y="-1491.3" font-family="Times,serif" font-size="14.00"> else:</text>
</g>
<!-- Node0xb5e0350&#45;&gt;Node0xb5e03d0 -->
<g id="edge29" class="edge"><title>Node0xb5e0350&#45;&gt;Node0xb5e03d0</title>
<path fill="none" stroke="black" d="M392.5,-1597.01C392.5,-1579.23 392.5,-1552.12 392.5,-1531.66"/>
<polygon fill="black" stroke="black" points="396,-1531.65 392.5,-1521.65 389,-1531.65 396,-1531.65"/>
</g>
<!-- Node0xb5e0630&#45;&gt;Node0x100693e0 -->
<g id="edge30" class="edge"><title>Node0xb5e0630&#45;&gt;Node0x100693e0</title>
<path fill="none" stroke="black" d="M716.401,-1540.29C726.121,-1520.69 739.5,-1488.3 739.5,-1458.5 739.5,-1458.5 739.5,-1458.5 739.5,-794 739.5,-776.73 739.5,-757.847 739.5,-740.967"/>
<polygon fill="black" stroke="black" points="743,-740.748 739.5,-730.748 736,-740.748 743,-740.748"/>
</g>
<!-- Node0xf6050a0 -->
<g id="node26" class="node"><title>Node0xf6050a0</title>
<polygon fill="none" stroke="black" points="76,-1393.5 76,-1431.5 633,-1431.5 633,-1393.5 76,-1393.5"/>
<text text-anchor="start" x="84" y="-1416.3" font-family="Times,serif" font-size="14.00">v26 = g5</text>
<text text-anchor="start" x="84" y="-1401.3" font-family="Times,serif" font-size="14.00"> v27 = mbedtls_asn1_get_mpi(IntToPtrCastExpr&lt;ptr&gt;(g7), v26, (g3 + 68))</text>
</g>
<!-- Node0xb5e03d0&#45;&gt;Node0xf6050a0 -->
<g id="edge31" class="edge"><title>Node0xb5e03d0&#45;&gt;Node0xf6050a0</title>
<path fill="none" stroke="black" d="M384.626,-1483.27C379.378,-1471.11 372.382,-1454.91 366.452,-1441.18"/>
<polygon fill="black" stroke="black" points="369.541,-1439.5 362.364,-1431.71 363.115,-1442.28 369.541,-1439.5"/>
<text text-anchor="middle" x="411" y="-1453.8" font-family="Times,serif" font-size="14.00">v25 == 0</text>
</g>
<!-- Node0xb5e0760 -->
<g id="node27" class="node"><title>Node0xb5e0760</title>
<polygon fill="none" stroke="black" points="621,-1336.5 621,-1374.5 716,-1374.5 716,-1336.5 621,-1336.5"/>
<text text-anchor="start" x="629" y="-1359.3" font-family="Times,serif" font-size="14.00">v17 = v25</text>
<text text-anchor="start" x="629" y="-1344.3" font-family="Times,serif" font-size="14.00"> v15 = v24</text>
</g>
<!-- Node0xb5e03d0&#45;&gt;Node0xb5e0760 -->
<g id="edge32" class="edge"><title>Node0xb5e03d0&#45;&gt;Node0xb5e0760</title>
<path fill="none" stroke="black" d="M449.637,-1500.11C505.344,-1495.76 589.11,-1480.78 641.5,-1432 654.704,-1419.7 661.459,-1400.51 664.91,-1384.55"/>
<polygon fill="black" stroke="black" points="668.367,-1385.1 666.736,-1374.63 661.483,-1383.83 668.367,-1385.1"/>
<text text-anchor="middle" x="650" y="-1453.8" font-family="Times,serif" font-size="14.00">v25 != 0</text>
</g>
<!-- Node0xf605120 -->
<g id="node28" class="node"><title>Node0xf605120</title>
<polygon fill="none" stroke="black" points="297.5,-1279.5 297.5,-1317.5 411.5,-1317.5 411.5,-1279.5 297.5,-1279.5"/>
<text text-anchor="start" x="305.5" y="-1302.3" font-family="Times,serif" font-size="14.00">if (v27 == 0):</text>
<text text-anchor="start" x="305.5" y="-1287.3" font-family="Times,serif" font-size="14.00"> else:</text>
</g>
<!-- Node0xf6050a0&#45;&gt;Node0xf605120 -->
<g id="edge33" class="edge"><title>Node0xf6050a0&#45;&gt;Node0xf605120</title>
<path fill="none" stroke="black" d="M354.5,-1393.01C354.5,-1375.23 354.5,-1348.12 354.5,-1327.66"/>
<polygon fill="black" stroke="black" points="358,-1327.65 354.5,-1317.65 351,-1327.65 358,-1327.65"/>
</g>
<!-- Node0xb5e0760&#45;&gt;Node0x100693e0 -->
<g id="edge34" class="edge"><title>Node0xb5e0760&#45;&gt;Node0x100693e0</title>
<path fill="none" stroke="black" d="M678.401,-1336.29C688.121,-1316.69 701.5,-1284.3 701.5,-1254.5 701.5,-1254.5 701.5,-1254.5 701.5,-794 701.5,-775.842 706.674,-756.924 713.203,-740.28"/>
<polygon fill="black" stroke="black" points="716.553,-741.342 717.175,-730.765 710.093,-738.645 716.553,-741.342"/>
</g>
<!-- Node0xb5e0950 -->
<g id="node29" class="node"><title>Node0xb5e0950</title>
<polygon fill="none" stroke="black" points="38,-1189.5 38,-1227.5 595,-1227.5 595,-1189.5 38,-1189.5"/>
<text text-anchor="start" x="46" y="-1212.3" font-family="Times,serif" font-size="14.00">v28 = g5</text>
<text text-anchor="start" x="46" y="-1197.3" font-family="Times,serif" font-size="14.00"> v29 = mbedtls_asn1_get_mpi(IntToPtrCastExpr&lt;ptr&gt;(g7), v28, (g3 + 80))</text>
</g>
<!-- Node0xf605120&#45;&gt;Node0xb5e0950 -->
<g id="edge35" class="edge"><title>Node0xf605120&#45;&gt;Node0xb5e0950</title>
<path fill="none" stroke="black" d="M346.626,-1279.27C341.378,-1267.11 334.382,-1250.91 328.452,-1237.18"/>
<polygon fill="black" stroke="black" points="331.541,-1235.5 324.364,-1227.71 325.115,-1238.28 331.541,-1235.5"/>
<text text-anchor="middle" x="373" y="-1249.8" font-family="Times,serif" font-size="14.00">v27 == 0</text>
</g>
<!-- Node0xb5e0bc0 -->
<g id="node30" class="node"><title>Node0xb5e0bc0</title>
<polygon fill="none" stroke="black" points="583,-1132.5 583,-1170.5 678,-1170.5 678,-1132.5 583,-1132.5"/>
<text text-anchor="start" x="591" y="-1155.3" font-family="Times,serif" font-size="14.00">v17 = v27</text>
<text text-anchor="start" x="591" y="-1140.3" font-family="Times,serif" font-size="14.00"> v15 = v26</text>
</g>
<!-- Node0xf605120&#45;&gt;Node0xb5e0bc0 -->
<g id="edge36" class="edge"><title>Node0xf605120&#45;&gt;Node0xb5e0bc0</title>
<path fill="none" stroke="black" d="M411.637,-1296.11C467.344,-1291.76 551.11,-1276.78 603.5,-1228 616.704,-1215.7 623.459,-1196.51 626.91,-1180.55"/>
<polygon fill="black" stroke="black" points="630.367,-1181.1 628.736,-1170.63 623.483,-1179.83 630.367,-1181.1"/>
<text text-anchor="middle" x="612" y="-1249.8" font-family="Times,serif" font-size="14.00">v27 != 0</text>
</g>
<!-- Node0xb5e09d0 -->
<g id="node31" class="node"><title>Node0xb5e09d0</title>
<polygon fill="none" stroke="black" points="259.5,-1075.5 259.5,-1113.5 373.5,-1113.5 373.5,-1075.5 259.5,-1075.5"/>
<text text-anchor="start" x="267.5" y="-1098.3" font-family="Times,serif" font-size="14.00">if (v29 == 0):</text>
<text text-anchor="start" x="267.5" y="-1083.3" font-family="Times,serif" font-size="14.00"> else:</text>
</g>
<!-- Node0xb5e0950&#45;&gt;Node0xb5e09d0 -->
<g id="edge37" class="edge"><title>Node0xb5e0950&#45;&gt;Node0xb5e09d0</title>
<path fill="none" stroke="black" d="M316.5,-1189.01C316.5,-1171.23 316.5,-1144.12 316.5,-1123.66"/>
<polygon fill="black" stroke="black" points="320,-1123.65 316.5,-1113.65 313,-1123.65 320,-1123.65"/>
</g>
<!-- Node0xb5e0bc0&#45;&gt;Node0x100693e0 -->
<g id="edge38" class="edge"><title>Node0xb5e0bc0&#45;&gt;Node0x100693e0</title>
<path fill="none" stroke="black" d="M640.401,-1132.29C650.121,-1112.69 663.5,-1080.3 663.5,-1050.5 663.5,-1050.5 663.5,-1050.5 663.5,-794 663.5,-773.814 672.949,-754.933 685.183,-738.947"/>
<polygon fill="black" stroke="black" points="688.177,-740.815 691.8,-730.859 682.759,-736.383 688.177,-740.815"/>
</g>
<!-- Node0xb5e0c20 -->
<g id="node32" class="node"><title>Node0xb5e0c20</title>
<polygon fill="none" stroke="black" points="0,-985.5 0,-1023.5 557,-1023.5 557,-985.5 0,-985.5"/>
<text text-anchor="start" x="8" y="-1008.3" font-family="Times,serif" font-size="14.00">v30 = g5</text>
<text text-anchor="start" x="8" y="-993.3" font-family="Times,serif" font-size="14.00"> v31 = mbedtls_asn1_get_mpi(IntToPtrCastExpr&lt;ptr&gt;(g7), v30, (g3 + 92))</text>
</g>
<!-- Node0xb5e09d0&#45;&gt;Node0xb5e0c20 -->
<g id="edge39" class="edge"><title>Node0xb5e09d0&#45;&gt;Node0xb5e0c20</title>
<path fill="none" stroke="black" d="M308.626,-1075.27C303.378,-1063.11 296.382,-1046.91 290.452,-1033.18"/>
<polygon fill="black" stroke="black" points="293.541,-1031.5 286.364,-1023.71 287.115,-1034.28 293.541,-1031.5"/>
<text text-anchor="middle" x="335" y="-1045.8" font-family="Times,serif" font-size="14.00">v29 == 0</text>
</g>
<!-- Node0xc9330d0 -->
<g id="node33" class="node"><title>Node0xc9330d0</title>
<polygon fill="none" stroke="black" points="545,-928.5 545,-966.5 640,-966.5 640,-928.5 545,-928.5"/>
<text text-anchor="start" x="553" y="-951.3" font-family="Times,serif" font-size="14.00">v17 = v29</text>
<text text-anchor="start" x="553" y="-936.3" font-family="Times,serif" font-size="14.00"> v15 = v28</text>
</g>
<!-- Node0xb5e09d0&#45;&gt;Node0xc9330d0 -->
<g id="edge40" class="edge"><title>Node0xb5e09d0&#45;&gt;Node0xc9330d0</title>
<path fill="none" stroke="black" d="M373.637,-1092.11C429.344,-1087.76 513.11,-1072.78 565.5,-1024 578.704,-1011.7 585.459,-992.507 588.91,-976.547"/>
<polygon fill="black" stroke="black" points="592.367,-977.1 590.736,-966.632 585.483,-975.833 592.367,-977.1"/>
<text text-anchor="middle" x="574" y="-1045.8" font-family="Times,serif" font-size="14.00">v29 != 0</text>
</g>
<!-- Node0xb5e0ca0 -->
<g id="node34" class="node"><title>Node0xb5e0ca0</title>
<polygon fill="none" stroke="black" points="221.5,-873.5 221.5,-909.5 335.5,-909.5 335.5,-873.5 221.5,-873.5"/>
<text text-anchor="start" x="229.5" y="-887.8" font-family="Times,serif" font-size="14.00">if (v31 == 0):</text>
</g>
<!-- Node0xb5e0c20&#45;&gt;Node0xb5e0ca0 -->
<g id="edge41" class="edge"><title>Node0xb5e0c20&#45;&gt;Node0xb5e0ca0</title>
<path fill="none" stroke="black" d="M278.5,-985.171C278.5,-967.424 278.5,-940.294 278.5,-919.966"/>
<polygon fill="black" stroke="black" points="282,-919.76 278.5,-909.76 275,-919.76 282,-919.76"/>
</g>
<!-- Node0xc9330d0&#45;&gt;Node0x100693e0 -->
<g id="edge42" class="edge"><title>Node0xc9330d0&#45;&gt;Node0x100693e0</title>
<path fill="none" stroke="black" d="M593.581,-928.313C596.619,-891.153 607.966,-805.282 649.5,-749 652.398,-745.073 655.642,-741.332 659.131,-737.782"/>
<polygon fill="black" stroke="black" points="661.712,-740.159 666.605,-730.762 656.92,-735.057 661.712,-740.159"/>
</g>
<!-- Node0xc930640 -->
<g id="node35" class="node"><title>Node0xc930640</title>
<polygon fill="none" stroke="black" points="17,-768.5 17,-821.5 484,-821.5 484,-768.5 17,-768.5"/>
<text text-anchor="start" x="25" y="-806.3" font-family="Times,serif" font-size="14.00">0x804e348:</text>
<text text-anchor="start" x="25" y="-791.3" font-family="Times,serif" font-size="14.00"> *(IntToPtrCastExpr&lt;ptr&gt;((g3 + 4))) = mbedtls_mpi_size(v14)</text>
<text text-anchor="start" x="25" y="-776.3" font-family="Times,serif" font-size="14.00"> v32 = g3</text>
</g>
<!-- Node0xb5e0ca0&#45;&gt;Node0xc930640 -->
<g id="edge43" class="edge"><title>Node0xb5e0ca0&#45;&gt;Node0xc930640</title>
<path fill="none" stroke="black" d="M273.364,-873.167C269.934,-861.59 265.298,-845.943 261.097,-831.765"/>
<polygon fill="black" stroke="black" points="264.335,-830.373 258.138,-821.78 257.624,-832.362 264.335,-830.373"/>
<text text-anchor="middle" x="303" y="-843.8" font-family="Times,serif" font-size="14.00">v31 == 0</text>
</g>
<!-- Node0x1006ad60 -->
<g id="node36" class="node"><title>Node0x1006ad60</title>
<polygon fill="none" stroke="black" points="502,-776 502,-814 597,-814 597,-776 502,-776"/>
<text text-anchor="start" x="510" y="-798.8" font-family="Times,serif" font-size="14.00">v17 = v31</text>
<text text-anchor="start" x="510" y="-783.8" font-family="Times,serif" font-size="14.00"> v15 = v30</text>
</g>
<!-- Node0xb5e0ca0&#45;&gt;Node0x1006ad60 -->
<g id="edge44" class="edge"><title>Node0xb5e0ca0&#45;&gt;Node0x1006ad60</title>
<path fill="none" stroke="black" d="M335.909,-874.134C379.368,-861.263 440.286,-842.184 492.5,-822 495.691,-820.767 498.958,-819.444 502.235,-818.072"/>
<polygon fill="black" stroke="black" points="503.637,-821.279 511.439,-814.111 500.87,-814.849 503.637,-821.279"/>
<text text-anchor="middle" x="472" y="-843.8" font-family="Times,serif" font-size="14.00">v31 != 0</text>
</g>
<!-- Node0x1006b200 -->
<g id="node37" class="node"><title>Node0x1006b200</title>
<polygon fill="none" stroke="black" points="373.5,-670 373.5,-708 487.5,-708 487.5,-670 373.5,-670"/>
<text text-anchor="start" x="381.5" y="-692.8" font-family="Times,serif" font-size="14.00">if (v4 == g5):</text>
<text text-anchor="start" x="381.5" y="-677.8" font-family="Times,serif" font-size="14.00"> else:</text>
</g>
<!-- Node0xc930640&#45;&gt;Node0x1006b200 -->
<g id="edge45" class="edge"><title>Node0xc930640&#45;&gt;Node0x1006b200</title>
<path fill="none" stroke="black" d="M294.994,-768.292C324.21,-751.412 362.108,-729.516 390.393,-713.173"/>
<polygon fill="black" stroke="black" points="392.308,-716.109 399.215,-708.076 388.806,-710.048 392.308,-716.109"/>
</g>
<!-- Node0x1006ad60&#45;&gt;Node0x100693e0 -->
<g id="edge46" class="edge"><title>Node0x1006ad60&#45;&gt;Node0x100693e0</title>
<path fill="none" stroke="black" d="M572.32,-775.784C583.727,-767.113 597.958,-756.932 611.5,-749 619.57,-744.273 628.084,-739.642 636.729,-735.184"/>
<polygon fill="black" stroke="black" points="638.433,-738.245 645.773,-730.604 635.27,-732 638.433,-738.245"/>
</g>
<!-- Node0xea9b510 -->
<g id="node38" class="node"><title>Node0xea9b510</title>
<polygon fill="none" stroke="black" points="280.5,-527.5 280.5,-565.5 580.5,-565.5 580.5,-527.5 280.5,-527.5"/>
<text text-anchor="start" x="288.5" y="-550.3" font-family="Times,serif" font-size="14.00">v33 = mbedtls_rsa_check_privkey(v32)</text>
<text text-anchor="start" x="288.5" y="-535.3" font-family="Times,serif" font-size="14.00"> g1 = v33</text>
</g>
<!-- Node0x1006b200&#45;&gt;Node0xea9b510 -->
<g id="edge47" class="edge"><title>Node0x1006b200&#45;&gt;Node0xea9b510</title>
<path fill="none" stroke="black" d="M430.5,-669.92C430.5,-646.103 430.5,-603.96 430.5,-575.876"/>
<polygon fill="black" stroke="black" points="434,-575.511 430.5,-565.511 427,-575.511 434,-575.511"/>
<text text-anchor="middle" x="465" y="-617.8" font-family="Times,serif" font-size="14.00">v4 == g5</text>
</g>
<!-- Node0xc933dc0 -->
<g id="node39" class="node"><title>Node0xc933dc0</title>
<polygon fill="none" stroke="black" points="523,-410.5 523,-478.5 740,-478.5 740,-410.5 523,-410.5"/>
<text text-anchor="start" x="531" y="-463.3" font-family="Times,serif" font-size="14.00">0x804e37e:</text>
<text text-anchor="start" x="531" y="-448.3" font-family="Times,serif" font-size="14.00"> mbedtls_rsa_free(v32, v30)</text>
<text text-anchor="start" x="531" y="-433.3" font-family="Times,serif" font-size="14.00"> g1 = &#45;15718</text>
<text text-anchor="start" x="531" y="-418.3" font-family="Times,serif" font-size="14.00"> result = &#45;15718</text>
</g>
<!-- Node0x1006b200&#45;&gt;Node0xc933dc0 -->
<g id="edge48" class="edge"><title>Node0x1006b200&#45;&gt;Node0xc933dc0</title>
<path fill="none" stroke="black" d="M482.763,-669.874C517.806,-655.154 562.349,-631.042 589.5,-596 613.487,-565.041 623.777,-521.134 628.19,-488.73"/>
<polygon fill="black" stroke="black" points="631.683,-488.996 629.426,-478.645 624.735,-488.145 631.683,-488.996"/>
<text text-anchor="middle" x="605" y="-617.8" font-family="Times,serif" font-size="14.00">v4 != g5</text>
</g>
<!-- Node0x1006a4a0 -->
<g id="node40" class="node"><title>Node0x1006a4a0</title>
<polygon fill="none" stroke="black" points="376.5,-353.5 376.5,-391.5 484.5,-391.5 484.5,-353.5 376.5,-353.5"/>
<text text-anchor="start" x="384.5" y="-376.3" font-family="Times,serif" font-size="14.00">if (v33 != 0):</text>
<text text-anchor="start" x="384.5" y="-361.3" font-family="Times,serif" font-size="14.00"> else:</text>
</g>
<!-- Node0xea9b510&#45;&gt;Node0x1006a4a0 -->
<g id="edge49" class="edge"><title>Node0xea9b510&#45;&gt;Node0x1006a4a0</title>
<path fill="none" stroke="black" d="M430.5,-527.418C430.5,-497.481 430.5,-437.397 430.5,-401.799"/>
<polygon fill="black" stroke="black" points="434,-401.598 430.5,-391.598 427,-401.598 434,-401.598"/>
</g>
<!-- Node0xc9325f0 -->
<g id="node41" class="node"><title>Node0xc9325f0</title>
<polygon fill="none" stroke="black" points="554,-97.5 554,-195.5 667,-195.5 667,-97.5 554,-97.5"/>
<text text-anchor="start" x="562" y="-180.3" font-family="Times,serif" font-size="14.00">0x804e23d:</text>
<text text-anchor="start" x="562" y="-165.3" font-family="Times,serif" font-size="14.00"> g3 = v1</text>
<text text-anchor="start" x="562" y="-150.3" font-family="Times,serif" font-size="14.00"> g7 = v2</text>
<text text-anchor="start" x="562" y="-135.3" font-family="Times,serif" font-size="14.00"> g5 = v5</text>
<text text-anchor="start" x="562" y="-120.3" font-family="Times,serif" font-size="14.00"> g2 = v9</text>
<text text-anchor="start" x="562" y="-105.3" font-family="Times,serif" font-size="14.00"> return result</text>
</g>
<!-- Node0xc933dc0&#45;&gt;Node0xc9325f0 -->
<g id="edge50" class="edge"><title>Node0xc933dc0&#45;&gt;Node0xc9325f0</title>
<path fill="none" stroke="black" d="M629.152,-410.407C625.641,-360.921 618.973,-266.931 614.634,-205.774"/>
<polygon fill="black" stroke="black" points="618.105,-205.231 613.906,-195.504 611.122,-205.727 618.105,-205.231"/>
</g>
<!-- Node0x8981870 -->
<g id="node42" class="node"><title>Node0x8981870</title>
<polygon fill="none" stroke="black" points="291,-233.5 291,-301.5 500,-301.5 500,-233.5 291,-233.5"/>
<text text-anchor="start" x="299" y="-286.3" font-family="Times,serif" font-size="14.00">0x804e36b:</text>
<text text-anchor="start" x="299" y="-271.3" font-family="Times,serif" font-size="14.00"> mbedtls_rsa_free(g3, v30)</text>
<text text-anchor="start" x="299" y="-256.3" font-family="Times,serif" font-size="14.00"> g1 = v33</text>
<text text-anchor="start" x="299" y="-241.3" font-family="Times,serif" font-size="14.00"> result = v33</text>
</g>
<!-- Node0x1006a4a0&#45;&gt;Node0x8981870 -->
<g id="edge51" class="edge"><title>Node0x1006a4a0&#45;&gt;Node0x8981870</title>
<path fill="none" stroke="black" d="M424.243,-353.086C420.313,-341.52 415.071,-326.094 410.14,-311.584"/>
<polygon fill="black" stroke="black" points="413.328,-310.086 406.796,-301.743 406.7,-312.338 413.328,-310.086"/>
<text text-anchor="middle" x="449" y="-323.8" font-family="Times,serif" font-size="14.00">v33 != 0</text>
</g>
<!-- Node0x90235f0 -->
<g id="node43" class="node"><title>Node0x90235f0</title>
<polygon fill="none" stroke="black" points="518,-249.5 518,-285.5 607,-285.5 607,-249.5 518,-249.5"/>
<text text-anchor="start" x="526" y="-263.8" font-family="Times,serif" font-size="14.00">result = 0</text>
</g>
<!-- Node0x1006a4a0&#45;&gt;Node0x90235f0 -->
<g id="edge52" class="edge"><title>Node0x1006a4a0&#45;&gt;Node0x90235f0</title>
<path fill="none" stroke="black" d="M458.666,-353.326C467.111,-347.647 476.304,-341.233 484.5,-335 502.188,-321.549 521.179,-305.397 535.994,-292.38"/>
<polygon fill="black" stroke="black" points="538.59,-294.756 543.759,-285.508 533.951,-289.514 538.59,-294.756"/>
<text text-anchor="middle" x="537" y="-323.8" font-family="Times,serif" font-size="14.00">v33 == 0</text>
</g>
<!-- Node0xc9325f0&#45;&gt;Node0xe325970 -->
<g id="edge53" class="edge"><title>Node0xc9325f0&#45;&gt;Node0xe325970</title>
<path fill="none" stroke="black" d="M667.243,-123.277C718.625,-103.154 792.809,-74.1013 836.794,-56.8754"/>
<polygon fill="black" stroke="black" points="838.197,-60.0846 846.233,-53.1789 835.645,-53.5666 838.197,-60.0846"/>
</g>
<!-- Node0x8981870&#45;&gt;Node0xc9325f0 -->
<g id="edge54" class="edge"><title>Node0x8981870&#45;&gt;Node0xc9325f0</title>
<path fill="none" stroke="black" d="M455.389,-233.352C483.195,-217.962 516.325,-199.625 544.814,-183.856"/>
<polygon fill="black" stroke="black" points="546.834,-186.739 553.888,-178.834 543.444,-180.614 546.834,-186.739"/>
</g>
<!-- Node0x90235f0&#45;&gt;Node0xc9325f0 -->
<g id="edge55" class="edge"><title>Node0x90235f0&#45;&gt;Node0xc9325f0</title>
<path fill="none" stroke="black" d="M569.377,-249.45C574.123,-237.685 580.732,-221.299 587.266,-205.101"/>
<polygon fill="black" stroke="black" points="590.595,-206.205 591.09,-195.622 584.103,-203.586 590.595,-206.205"/>
</g>
</g>
</svg>
