<?xml version="1.0" encoding="UTF-8" standalone="no"?>
<!DOCTYPE svg PUBLIC "-//W3C//DTD SVG 1.1//EN"
 "http://www.w3.org/Graphics/SVG/1.1/DTD/svg11.dtd">
<!-- Generated by graphviz version 2.38.0 (20140413.2041)
 -->
<!-- Title: Control&#45;flow graph for function &#39;checkDirStart(a1)&#39;. Pages: 1 -->
<svg width="1127pt" height="900pt"
 viewBox="0.00 0.00 1127.46 900.00" xmlns="http://www.w3.org/2000/svg" xmlns:xlink="http://www.w3.org/1999/xlink">
<g id="graph0" class="graph" transform="scale(1 1) rotate(0) translate(4 896)">
<title>Control&#45;flow graph for function &#39;checkDirStart(a1)&#39;.</title>
<polygon fill="white" stroke="none" points="-4,4 -4,-896 1123.46,-896 1123.46,4 -4,4"/>
<text text-anchor="middle" x="559.732" y="-7.8" font-family="Times,serif" font-size="14.00">Control&#45;flow graph for function &#39;checkDirStart(a1)&#39;.</text>
<!-- Node0x18042a60 -->
<g id="node1" class="node"><title>Node0x18042a60</title>
<polygon fill="none" stroke="black" points="1041.46,-853.5 1041.46,-891.5 1100.46,-891.5 1100.46,-853.5 1041.46,-853.5"/>
<text text-anchor="start" x="1049.46" y="-876.3" font-family="Times,serif" font-size="14.00">entry:</text>
<text text-anchor="start" x="1049.46" y="-861.3" font-family="Times,serif" font-size="14.00"> a1</text>
</g>
<!-- Node0x163ae470 -->
<g id="node2" class="node"><title>Node0x163ae470</title>
<polygon fill="none" stroke="black" points="1032.46,-732.5 1032.46,-815.5 1109.46,-815.5 1109.46,-732.5 1032.46,-732.5"/>
<text text-anchor="start" x="1040.46" y="-800.3" font-family="Times,serif" font-size="14.00">v1 = g7</text>
<text text-anchor="start" x="1040.46" y="-785.3" font-family="Times,serif" font-size="14.00"> g7 = a1</text>
<text text-anchor="start" x="1040.46" y="-770.3" font-family="Times,serif" font-size="14.00"> v2 = g3</text>
<text text-anchor="start" x="1040.46" y="-755.3" font-family="Times,serif" font-size="14.00"> g3 = 0</text>
<text text-anchor="start" x="1040.46" y="-740.3" font-family="Times,serif" font-size="14.00"> v3 = 0</text>
</g>
<!-- Node0x18042a60&#45;&gt;Node0x163ae470 -->
<g id="edge1" class="edge"><title>Node0x18042a60&#45;&gt;Node0x163ae470</title>
<path fill="none" stroke="black" d="M1070.96,-853.349C1070.96,-845.488 1070.96,-835.852 1070.96,-826.061"/>
<polygon fill="black" stroke="black" points="1074.46,-825.87 1070.96,-815.87 1067.46,-825.87 1074.46,-825.87"/>
</g>
<!-- Node0x28d58fa0 -->
<g id="node3" class="node"><title>Node0x28d58fa0</title>
<polygon fill="none" stroke="black" points="1022.46,-658.5 1022.46,-694.5 1119.46,-694.5 1119.46,-658.5 1022.46,-658.5"/>
<text text-anchor="start" x="1030.46" y="-672.8" font-family="Times,serif" font-size="14.00">while True:</text>
</g>
<!-- Node0x163ae470&#45;&gt;Node0x28d58fa0 -->
<g id="edge2" class="edge"><title>Node0x163ae470&#45;&gt;Node0x28d58fa0</title>
<path fill="none" stroke="black" d="M1070.96,-732.499C1070.96,-723.206 1070.96,-713.537 1070.96,-704.946"/>
<polygon fill="black" stroke="black" points="1074.46,-704.749 1070.96,-694.749 1067.46,-704.749 1074.46,-704.749"/>
</g>
<!-- Node0x18042200 -->
<g id="node4" class="node"><title>Node0x18042200</title>
<polygon fill="none" stroke="black" points="358.464,-568.5 358.464,-606.5 949.464,-606.5 949.464,-568.5 358.464,-568.5"/>
<text text-anchor="start" x="366.464" y="-591.3" font-family="Times,serif" font-size="14.00">v4 = *(IntToPtrCastExpr&lt;ptr&gt;(((4 * v3) + PtrToIntCastExpr&lt;int32&gt;(&amp;(g10)))))</text>
<text text-anchor="start" x="366.464" y="-576.3" font-family="Times,serif" font-size="14.00"> result = 1</text>
</g>
<!-- Node0x28d58fa0&#45;&gt;Node0x18042200 -->
<g id="edge3" class="edge"><title>Node0x28d58fa0&#45;&gt;Node0x18042200</title>
<path fill="none" stroke="black" d="M1022.31,-665.35C955.871,-651.488 835.307,-626.334 750.242,-608.587"/>
<polygon fill="black" stroke="black" points="750.814,-605.131 740.31,-606.515 749.384,-611.983 750.814,-605.131"/>
<text text-anchor="middle" x="916.964" y="-628.8" font-family="Times,serif" font-size="14.00">True</text>
</g>
<!-- Node0x18042d30 -->
<g id="node5" class="node"><title>Node0x18042d30</title>
<polygon fill="none" stroke="black" points="256.964,-494.5 256.964,-530.5 842.964,-530.5 842.964,-494.5 256.964,-494.5"/>
<text text-anchor="start" x="264.964" y="-508.8" font-family="Times,serif" font-size="14.00">if (startsWith(IntToPtrCastExpr&lt;ptr&gt;(v4), IntToPtrCastExpr&lt;ptr&gt;(a1)) == 0):</text>
</g>
<!-- Node0x18042200&#45;&gt;Node0x18042d30 -->
<g id="edge4" class="edge"><title>Node0x18042200&#45;&gt;Node0x18042d30</title>
<path fill="none" stroke="black" d="M628.256,-568.455C614.478,-558.784 597.359,-546.768 582.646,-536.44"/>
<polygon fill="black" stroke="black" points="584.5,-533.466 574.304,-530.585 580.478,-539.195 584.5,-533.466"/>
</g>
<!-- Node0x163ac4b0 -->
<g id="node6" class="node"><title>Node0x163ac4b0</title>
<polygon fill="none" stroke="black" points="493.464,-404.5 493.464,-442.5 606.464,-442.5 606.464,-404.5 493.464,-404.5"/>
<text text-anchor="start" x="501.464" y="-427.3" font-family="Times,serif" font-size="14.00">v5 = (g3 + 1)</text>
<text text-anchor="start" x="501.464" y="-412.3" font-family="Times,serif" font-size="14.00"> g3 = v5</text>
</g>
<!-- Node0x18042d30&#45;&gt;Node0x163ac4b0 -->
<g id="edge5" class="edge"><title>Node0x18042d30&#45;&gt;Node0x163ac4b0</title>
<path fill="none" stroke="black" d="M549.964,-494.312C549.964,-482.511 549.964,-466.572 549.964,-452.904"/>
<polygon fill="black" stroke="black" points="553.464,-452.551 549.964,-442.551 546.464,-452.551 553.464,-452.551"/>
<text text-anchor="middle" x="820.464" y="-464.8" font-family="Times,serif" font-size="14.00">startsWith(IntToPtrCastExpr&lt;ptr&gt;(v4), IntToPtrCastExpr&lt;ptr&gt;(a1)) == 0</text>
</g>
<!-- Node0x18042f70 -->
<g id="node7" class="node"><title>Node0x18042f70</title>
<polygon fill="none" stroke="black" points="33.4638,-302.5 33.4638,-385.5 146.464,-385.5 146.464,-302.5 33.4638,-302.5"/>
<text text-anchor="start" x="41.4638" y="-370.3" font-family="Times,serif" font-size="14.00">0x8049112:</text>
<text text-anchor="start" x="41.4638" y="-355.3" font-family="Times,serif" font-size="14.00"> g1 = result</text>
<text text-anchor="start" x="41.4638" y="-340.3" font-family="Times,serif" font-size="14.00"> g3 = v2</text>
<text text-anchor="start" x="41.4638" y="-325.3" font-family="Times,serif" font-size="14.00"> g7 = v1</text>
<text text-anchor="start" x="41.4638" y="-310.3" font-family="Times,serif" font-size="14.00"> return result</text>
</g>
<!-- Node0x18042d30&#45;&gt;Node0x18042f70 -->
<g id="edge6" class="edge"><title>Node0x18042d30&#45;&gt;Node0x18042f70</title>
<path fill="none" stroke="black" d="M256.698,-508.98C140.272,-504.864 29.4113,-495.703 10.9638,-476 -11.9334,-451.545 6.91432,-419.384 31.9277,-393.049"/>
<polygon fill="black" stroke="black" points="34.5689,-395.356 39.1167,-385.787 29.5941,-390.432 34.5689,-395.356"/>
<text text-anchor="middle" x="278.464" y="-464.8" font-family="Times,serif" font-size="14.00">startsWith(IntToPtrCastExpr&lt;ptr&gt;(v4), IntToPtrCastExpr&lt;ptr&gt;(a1)) != 0</text>
</g>
<!-- Node0x18042330 -->
<g id="node8" class="node"><title>Node0x18042330</title>
<polygon fill="none" stroke="black" points="497.464,-247.5 497.464,-283.5 602.464,-283.5 602.464,-247.5 497.464,-247.5"/>
<text text-anchor="start" x="505.464" y="-261.8" font-family="Times,serif" font-size="14.00">if (v5 == 3):</text>
</g>
<!-- Node0x163ac4b0&#45;&gt;Node0x18042330 -->
<g id="edge7" class="edge"><title>Node0x163ac4b0&#45;&gt;Node0x18042330</title>
<path fill="none" stroke="black" d="M549.964,-404.3C549.964,-377.123 549.964,-325.741 549.964,-293.978"/>
<polygon fill="black" stroke="black" points="553.464,-293.633 549.964,-283.633 546.464,-293.633 553.464,-293.633"/>
</g>
<!-- Node0x163ae290 -->
<g id="node9" class="node"><title>Node0x163ae290</title>
<polygon fill="none" stroke="black" points="319.964,-23.5 319.964,-59.5 373.964,-59.5 373.964,-23.5 319.964,-23.5"/>
<text text-anchor="start" x="327.964" y="-37.8" font-family="Times,serif" font-size="14.00">exit:</text>
</g>
<!-- Node0x18042f70&#45;&gt;Node0x163ae290 -->
<g id="edge8" class="edge"><title>Node0x18042f70&#45;&gt;Node0x163ae290</title>
<path fill="none" stroke="black" d="M124.624,-302.473C178.596,-239.365 281.133,-119.474 325.555,-67.5325"/>
<polygon fill="black" stroke="black" points="328.329,-69.6734 332.169,-59.7988 323.01,-65.1237 328.329,-69.6734"/>
</g>
<!-- Node0x28d58ab0 -->
<g id="node10" class="node"><title>Node0x28d58ab0</title>
<polygon fill="none" stroke="black" points="421.464,-97.5 421.464,-195.5 534.464,-195.5 534.464,-97.5 421.464,-97.5"/>
<text text-anchor="start" x="429.464" y="-180.3" font-family="Times,serif" font-size="14.00">0x8049110:</text>
<text text-anchor="start" x="429.464" y="-165.3" font-family="Times,serif" font-size="14.00"> result = 0</text>
<text text-anchor="start" x="429.464" y="-150.3" font-family="Times,serif" font-size="14.00"> g1 = result</text>
<text text-anchor="start" x="429.464" y="-135.3" font-family="Times,serif" font-size="14.00"> g3 = v2</text>
<text text-anchor="start" x="429.464" y="-120.3" font-family="Times,serif" font-size="14.00"> g7 = v1</text>
<text text-anchor="start" x="429.464" y="-105.3" font-family="Times,serif" font-size="14.00"> return result</text>
</g>
<!-- Node0x18042330&#45;&gt;Node0x28d58ab0 -->
<g id="edge9" class="edge"><title>Node0x18042330&#45;&gt;Node0x28d58ab0</title>
<path fill="none" stroke="black" d="M539.494,-247.487C532.419,-235.99 522.633,-220.088 512.946,-204.346"/>
<polygon fill="black" stroke="black" points="515.814,-202.328 507.592,-195.646 509.852,-205.997 515.814,-202.328"/>
<text text-anchor="middle" x="556.964" y="-217.8" font-family="Times,serif" font-size="14.00">v5 == 3</text>
</g>
<!-- Node0x28d589e0 -->
<g id="node11" class="node"><title>Node0x28d589e0</title>
<polygon fill="none" stroke="black" points="779.464,-112.5 779.464,-180.5 880.464,-180.5 880.464,-112.5 779.464,-112.5"/>
<text text-anchor="start" x="787.464" y="-165.3" font-family="Times,serif" font-size="14.00">0x804910a:</text>
<text text-anchor="start" x="787.464" y="-150.3" font-family="Times,serif" font-size="14.00"> v3 = v5</text>
<text text-anchor="start" x="787.464" y="-135.3" font-family="Times,serif" font-size="14.00"> a1 = g7</text>
<text text-anchor="start" x="787.464" y="-120.3" font-family="Times,serif" font-size="14.00"> continue</text>
</g>
<!-- Node0x18042330&#45;&gt;Node0x28d589e0 -->
<g id="edge10" class="edge"><title>Node0x18042330&#45;&gt;Node0x28d589e0</title>
<path fill="none" stroke="black" d="M590.678,-247.487C637.753,-227.817 715.683,-195.253 769.763,-172.656"/>
<polygon fill="black" stroke="black" points="771.356,-175.783 779.234,-168.698 768.657,-169.324 771.356,-175.783"/>
<text text-anchor="middle" x="691.964" y="-217.8" font-family="Times,serif" font-size="14.00">v5 != 3</text>
</g>
<!-- Node0x28d58ab0&#45;&gt;Node0x163ae290 -->
<g id="edge11" class="edge"><title>Node0x28d58ab0&#45;&gt;Node0x163ae290</title>
<path fill="none" stroke="black" d="M421.267,-100.922C406.065,-88.9691 390.219,-76.5097 377.084,-66.1826"/>
<polygon fill="black" stroke="black" points="378.903,-63.1603 368.879,-59.7308 374.576,-68.6631 378.903,-63.1603"/>
</g>
<!-- Node0x28d589e0&#45;&gt;Node0x28d58fa0 -->
<g id="edge12" class="edge"><title>Node0x28d589e0&#45;&gt;Node0x28d58fa0</title>
<path fill="none" stroke="black" d="M880.586,-147.246C960.265,-149.798 1105.96,-167.698 1105.96,-264.5 1105.96,-588.5 1105.96,-588.5 1105.96,-588.5 1105.96,-610.003 1096.65,-632.476 1087.63,-649.194"/>
<polygon fill="black" stroke="black" points="1084.34,-647.901 1082.42,-658.322 1090.42,-651.368 1084.34,-647.901"/>
</g>
</g>
</svg>
