<?xml version="1.0" encoding="UTF-8" standalone="no"?>
<!DOCTYPE svg PUBLIC "-//W3C//DTD SVG 1.1//EN"
 "http://www.w3.org/Graphics/SVG/1.1/DTD/svg11.dtd">
<!-- Generated by graphviz version 2.38.0 (20140413.2041)
 -->
<!-- Title: Control&#45;flow graph for function &#39;mbedtls_ecp_point_read_binary(a1, a2, *a3, a4)&#39;. Pages: 1 -->
<svg width="1773pt" height="1867pt"
 viewBox="0.00 0.00 1773.30 1867.00" xmlns="http://www.w3.org/2000/svg" xmlns:xlink="http://www.w3.org/1999/xlink">
<g id="graph0" class="graph" transform="scale(1 1) rotate(0) translate(4 1863)">
<title>Control&#45;flow graph for function &#39;mbedtls_ecp_point_read_binary(a1, a2, *a3, a4)&#39;.</title>
<polygon fill="white" stroke="none" points="-4,4 -4,-1863 1769.3,-1863 1769.3,4 -4,4"/>
<text text-anchor="middle" x="882.648" y="-7.8" font-family="Times,serif" font-size="14.00">Control&#45;flow graph for function &#39;mbedtls_ecp_point_read_binary(a1, a2, *a3, a4)&#39;.</text>
<!-- Node0x96acf80 -->
<g id="node1" class="node"><title>Node0x96acf80</title>
<polygon fill="none" stroke="black" points="1595.5,-1775.5 1595.5,-1858.5 1654.5,-1858.5 1654.5,-1775.5 1595.5,-1775.5"/>
<text text-anchor="start" x="1603.5" y="-1843.3" font-family="Times,serif" font-size="14.00">entry:</text>
<text text-anchor="start" x="1603.5" y="-1828.3" font-family="Times,serif" font-size="14.00"> a1</text>
<text text-anchor="start" x="1603.5" y="-1813.3" font-family="Times,serif" font-size="14.00"> a2</text>
<text text-anchor="start" x="1603.5" y="-1798.3" font-family="Times,serif" font-size="14.00"> a3</text>
<text text-anchor="start" x="1603.5" y="-1783.3" font-family="Times,serif" font-size="14.00"> a4</text>
</g>
<!-- Node0x96ac1f0 -->
<g id="node2" class="node"><title>Node0x96ac1f0</title>
<polygon fill="none" stroke="black" points="1486.5,-1549.5 1486.5,-1737.5 1763.5,-1737.5 1763.5,-1549.5 1486.5,-1549.5"/>
<text text-anchor="start" x="1494.5" y="-1722.3" font-family="Times,serif" font-size="14.00">0x805bf60:</text>
<text text-anchor="start" x="1494.5" y="-1707.3" font-family="Times,serif" font-size="14.00"> v1</text>
<text text-anchor="start" x="1494.5" y="-1692.3" font-family="Times,serif" font-size="14.00"> v2 = v1</text>
<text text-anchor="start" x="1494.5" y="-1677.3" font-family="Times,serif" font-size="14.00"> v3 = a1</text>
<text text-anchor="start" x="1494.5" y="-1662.3" font-family="Times,serif" font-size="14.00"> g2 = &amp;(v2)</text>
<text text-anchor="start" x="1494.5" y="-1647.3" font-family="Times,serif" font-size="14.00"> v4 = g3</text>
<text text-anchor="start" x="1494.5" y="-1632.3" font-family="Times,serif" font-size="14.00"> g3 = a4</text>
<text text-anchor="start" x="1494.5" y="-1617.3" font-family="Times,serif" font-size="14.00"> v5 = g7</text>
<text text-anchor="start" x="1494.5" y="-1602.3" font-family="Times,serif" font-size="14.00"> v6 = g5</text>
<text text-anchor="start" x="1494.5" y="-1587.3" font-family="Times,serif" font-size="14.00"> g7 = PtrToIntCastExpr&lt;int32&gt;(a3)</text>
<text text-anchor="start" x="1494.5" y="-1572.3" font-family="Times,serif" font-size="14.00"> g5 = a2</text>
<text text-anchor="start" x="1494.5" y="-1557.3" font-family="Times,serif" font-size="14.00"> v7</text>
</g>
<!-- Node0x96acf80&#45;&gt;Node0x96ac1f0 -->
<g id="edge1" class="edge"><title>Node0x96acf80&#45;&gt;Node0x96ac1f0</title>
<path fill="none" stroke="black" d="M1625,-1775.36C1625,-1766.83 1625,-1757.47 1625,-1747.8"/>
<polygon fill="black" stroke="black" points="1628.5,-1747.63 1625,-1737.63 1621.5,-1747.63 1628.5,-1747.63"/>
</g>
<!-- Node0x28f8e690 -->
<g id="node3" class="node"><title>Node0x28f8e690</title>
<polygon fill="none" stroke="black" points="1575.5,-1475.5 1575.5,-1511.5 1674.5,-1511.5 1674.5,-1475.5 1575.5,-1475.5"/>
<text text-anchor="start" x="1583.5" y="-1489.8" font-family="Times,serif" font-size="14.00">if (a4 != 0):</text>
</g>
<!-- Node0x96ac1f0&#45;&gt;Node0x28f8e690 -->
<g id="edge2" class="edge"><title>Node0x96ac1f0&#45;&gt;Node0x28f8e690</title>
<path fill="none" stroke="black" d="M1625,-1549.19C1625,-1539.35 1625,-1530 1625,-1521.9"/>
<polygon fill="black" stroke="black" points="1628.5,-1521.71 1625,-1511.71 1621.5,-1521.71 1628.5,-1521.71"/>
</g>
<!-- Node0x28f8e8f0 -->
<g id="node4" class="node"><title>Node0x28f8e8f0</title>
<polygon fill="none" stroke="black" points="1483,-1310.5 1483,-1423.5 1577,-1423.5 1577,-1310.5 1483,-1310.5"/>
<text text-anchor="start" x="1491" y="-1408.3" font-family="Times,serif" font-size="14.00">0x805bf7f:</text>
<text text-anchor="start" x="1491" y="-1393.3" font-family="Times,serif" font-size="14.00"> v8</text>
<text text-anchor="start" x="1491" y="-1378.3" font-family="Times,serif" font-size="14.00"> v9</text>
<text text-anchor="start" x="1491" y="-1363.3" font-family="Times,serif" font-size="14.00"> result</text>
<text text-anchor="start" x="1491" y="-1348.3" font-family="Times,serif" font-size="14.00"> v10</text>
<text text-anchor="start" x="1491" y="-1333.3" font-family="Times,serif" font-size="14.00"> v11</text>
<text text-anchor="start" x="1491" y="-1318.3" font-family="Times,serif" font-size="14.00"> v12</text>
</g>
<!-- Node0x28f8e690&#45;&gt;Node0x28f8e8f0 -->
<g id="edge3" class="edge"><title>Node0x28f8e690&#45;&gt;Node0x28f8e8f0</title>
<path fill="none" stroke="black" d="M1611.99,-1475.45C1603.25,-1463.99 1591.13,-1448.11 1578.88,-1432.06"/>
<polygon fill="black" stroke="black" points="1581.33,-1429.5 1572.48,-1423.68 1575.77,-1433.75 1581.33,-1429.5"/>
<text text-anchor="middle" x="1624" y="-1445.8" font-family="Times,serif" font-size="14.00">a4 != 0</text>
</g>
<!-- Node0x28f8e800 -->
<g id="node5" class="node"><title>Node0x28f8e800</title>
<polygon fill="none" stroke="black" points="1412.5,-702.5 1412.5,-800.5 1733.5,-800.5 1733.5,-702.5 1412.5,-702.5"/>
<text text-anchor="start" x="1420.5" y="-785.3" font-family="Times,serif" font-size="14.00">0x805bf8e:</text>
<text text-anchor="start" x="1420.5" y="-770.3" font-family="Times,serif" font-size="14.00"> v7 = g2</text>
<text text-anchor="start" x="1420.5" y="-755.3" font-family="Times,serif" font-size="14.00"> g3 = *(IntToPtrCastExpr&lt;ptr&gt;((v7 &#45; 12)))</text>
<text text-anchor="start" x="1420.5" y="-740.3" font-family="Times,serif" font-size="14.00"> g7 = *(IntToPtrCastExpr&lt;ptr&gt;((v7 &#45; 8)))</text>
<text text-anchor="start" x="1420.5" y="-725.3" font-family="Times,serif" font-size="14.00"> g5 = *(IntToPtrCastExpr&lt;ptr&gt;((v7 &#45; 4)))</text>
<text text-anchor="start" x="1420.5" y="-710.3" font-family="Times,serif" font-size="14.00"> return &#45;20352</text>
</g>
<!-- Node0x28f8e690&#45;&gt;Node0x28f8e800 -->
<g id="edge4" class="edge"><title>Node0x28f8e690&#45;&gt;Node0x28f8e800</title>
<path fill="none" stroke="black" d="M1642.19,-1475.17C1646.88,-1469.71 1651.6,-1463.42 1655,-1457 1674.25,-1420.7 1680,-1409.09 1680,-1368 1680,-1368 1680,-1368 1680,-939.5 1680,-885.414 1690.68,-865.465 1663,-819 1660.82,-815.339 1658.35,-811.816 1655.66,-808.436"/>
<polygon fill="black" stroke="black" points="1658.22,-806.047 1649.01,-800.809 1652.94,-810.647 1658.22,-806.047"/>
<text text-anchor="middle" x="1710" y="-1161.8" font-family="Times,serif" font-size="14.00">a4 == 0</text>
</g>
<!-- Node0x28f8e970 -->
<g id="node6" class="node"><title>Node0x28f8e970</title>
<polygon fill="none" stroke="black" points="1243.5,-1236.5 1243.5,-1272.5 1366.5,-1272.5 1366.5,-1236.5 1243.5,-1236.5"/>
<text text-anchor="start" x="1251.5" y="-1250.8" font-family="Times,serif" font-size="14.00">if (*(a3) == 0):</text>
</g>
<!-- Node0x28f8e8f0&#45;&gt;Node0x28f8e970 -->
<g id="edge5" class="edge"><title>Node0x28f8e8f0&#45;&gt;Node0x28f8e970</title>
<path fill="none" stroke="black" d="M1482.83,-1342.84C1443.39,-1323.47 1387.56,-1296.05 1349.02,-1277.12"/>
<polygon fill="black" stroke="black" points="1350.14,-1273.77 1339.62,-1272.5 1347.05,-1280.05 1350.14,-1273.77"/>
</g>
<!-- Node0x28f8e220 -->
<g id="node7" class="node"><title>Node0x28f8e220</title>
<polygon fill="none" stroke="black" points="985,-23.5 985,-59.5 1039,-59.5 1039,-23.5 985,-23.5"/>
<text text-anchor="start" x="993" y="-37.8" font-family="Times,serif" font-size="14.00">exit:</text>
</g>
<!-- Node0x28f8e800&#45;&gt;Node0x28f8e220 -->
<g id="edge6" class="edge"><title>Node0x28f8e800&#45;&gt;Node0x28f8e220</title>
<path fill="none" stroke="black" d="M1518.07,-702.35C1505.62,-686.497 1496,-667.705 1496,-647.5 1496,-647.5 1496,-647.5 1496,-145.5 1496,-54.2648 1162.83,-43.5197 1049.34,-42.5061"/>
<polygon fill="black" stroke="black" points="1049.08,-39.0043 1039.06,-42.436 1049.03,-46.0042 1049.08,-39.0043"/>
</g>
<!-- Node0x28f8fb20 -->
<g id="node8" class="node"><title>Node0x28f8fb20</title>
<polygon fill="none" stroke="black" points="921,-1146.5 921,-1184.5 1031,-1184.5 1031,-1146.5 921,-1146.5"/>
<text text-anchor="start" x="929" y="-1169.3" font-family="Times,serif" font-size="14.00">0x805bf84:</text>
<text text-anchor="start" x="929" y="-1154.3" font-family="Times,serif" font-size="14.00"> if (a4 == 1):</text>
</g>
<!-- Node0x28f8e970&#45;&gt;Node0x28f8fb20 -->
<g id="edge7" class="edge"><title>Node0x28f8e970&#45;&gt;Node0x28f8fb20</title>
<path fill="none" stroke="black" d="M1243.12,-1237.14C1185.4,-1221.87 1099.63,-1199.19 1040.95,-1183.67"/>
<polygon fill="black" stroke="black" points="1041.61,-1180.23 1031.04,-1181.06 1039.82,-1187 1041.61,-1180.23"/>
<text text-anchor="middle" x="1209" y="-1206.8" font-family="Times,serif" font-size="14.00">*(a3) == 0</text>
</g>
<!-- Node0x28f8f120 -->
<g id="node9" class="node"><title>Node0x28f8f120</title>
<polygon fill="none" stroke="black" points="1175,-1146.5 1175,-1184.5 1435,-1184.5 1435,-1146.5 1175,-1146.5"/>
<text text-anchor="start" x="1183" y="-1169.3" font-family="Times,serif" font-size="14.00">v13 = mbedtls_mpi_size((a1 + 4))</text>
<text text-anchor="start" x="1183" y="-1154.3" font-family="Times,serif" font-size="14.00"> g6 = v13</text>
</g>
<!-- Node0x28f8e970&#45;&gt;Node0x28f8f120 -->
<g id="edge8" class="edge"><title>Node0x28f8e970&#45;&gt;Node0x28f8f120</title>
<path fill="none" stroke="black" d="M1305,-1236.31C1305,-1224.51 1305,-1208.57 1305,-1194.9"/>
<polygon fill="black" stroke="black" points="1308.5,-1194.55 1305,-1184.55 1301.5,-1194.55 1308.5,-1194.55"/>
<text text-anchor="middle" x="1341" y="-1206.8" font-family="Times,serif" font-size="14.00">*(a3) != 0</text>
</g>
<!-- Node0x28f8f270 -->
<g id="node10" class="node"><title>Node0x28f8f270</title>
<polygon fill="none" stroke="black" points="726.5,-1011.5 726.5,-1094.5 823.5,-1094.5 823.5,-1011.5 726.5,-1011.5"/>
<text text-anchor="start" x="734.5" y="-1079.3" font-family="Times,serif" font-size="14.00">0x805bfc8:</text>
<text text-anchor="start" x="734.5" y="-1064.3" font-family="Times,serif" font-size="14.00"> v3 = a2</text>
<text text-anchor="start" x="734.5" y="-1049.3" font-family="Times,serif" font-size="14.00"> g3 = v4</text>
<text text-anchor="start" x="734.5" y="-1034.3" font-family="Times,serif" font-size="14.00"> g7 = v5</text>
<text text-anchor="start" x="734.5" y="-1019.3" font-family="Times,serif" font-size="14.00"> g5 = v6</text>
</g>
<!-- Node0x28f8fb20&#45;&gt;Node0x28f8f270 -->
<g id="edge9" class="edge"><title>Node0x28f8fb20&#45;&gt;Node0x28f8f270</title>
<path fill="none" stroke="black" d="M938.097,-1146.43C926.433,-1140.7 913.61,-1134.24 902,-1128 878.981,-1115.64 854.059,-1101.32 832.439,-1088.6"/>
<polygon fill="black" stroke="black" points="834.094,-1085.51 823.704,-1083.44 830.534,-1091.54 834.094,-1085.51"/>
<text text-anchor="middle" x="932" y="-1116.8" font-family="Times,serif" font-size="14.00">a4 == 1</text>
</g>
<!-- Node0x28f8fcf0 -->
<g id="node11" class="node"><title>Node0x28f8fcf0</title>
<polygon fill="none" stroke="black" points="536.5,-702.5 536.5,-800.5 857.5,-800.5 857.5,-702.5 536.5,-702.5"/>
<text text-anchor="start" x="544.5" y="-785.3" font-family="Times,serif" font-size="14.00">0x805bf8e:</text>
<text text-anchor="start" x="544.5" y="-770.3" font-family="Times,serif" font-size="14.00"> v7 = g2</text>
<text text-anchor="start" x="544.5" y="-755.3" font-family="Times,serif" font-size="14.00"> g3 = *(IntToPtrCastExpr&lt;ptr&gt;((v7 &#45; 12)))</text>
<text text-anchor="start" x="544.5" y="-740.3" font-family="Times,serif" font-size="14.00"> g7 = *(IntToPtrCastExpr&lt;ptr&gt;((v7 &#45; 8)))</text>
<text text-anchor="start" x="544.5" y="-725.3" font-family="Times,serif" font-size="14.00"> g5 = *(IntToPtrCastExpr&lt;ptr&gt;((v7 &#45; 4)))</text>
<text text-anchor="start" x="544.5" y="-710.3" font-family="Times,serif" font-size="14.00"> return &#45;20352</text>
</g>
<!-- Node0x28f8fb20&#45;&gt;Node0x28f8fcf0 -->
<g id="edge10" class="edge"><title>Node0x28f8fb20&#45;&gt;Node0x28f8fcf0</title>
<path fill="none" stroke="black" d="M982.144,-1146.33C999.972,-1089.88 1045.35,-915.574 962,-819 935.787,-788.628 912.164,-807.911 867.396,-800.684"/>
<polygon fill="black" stroke="black" points="868.005,-797.237 857.514,-798.713 866.636,-804.102 868.005,-797.237"/>
<text text-anchor="middle" x="1038" y="-981.8" font-family="Times,serif" font-size="14.00">a4 != 1</text>
</g>
<!-- Node0x28f8f180 -->
<g id="node12" class="node"><title>Node0x28f8f180</title>
<polygon fill="none" stroke="black" points="1154,-1035 1154,-1071 1456,-1071 1456,-1035 1154,-1035"/>
<text text-anchor="start" x="1162" y="-1049.3" font-family="Times,serif" font-size="14.00">if (*(IntToPtrCastExpr&lt;ptr&gt;(g7)) != 4):</text>
</g>
<!-- Node0x28f8f120&#45;&gt;Node0x28f8f180 -->
<g id="edge11" class="edge"><title>Node0x28f8f120&#45;&gt;Node0x28f8f180</title>
<path fill="none" stroke="black" d="M1305,-1146.25C1305,-1128.59 1305,-1101.58 1305,-1081.34"/>
<polygon fill="black" stroke="black" points="1308.5,-1081.18 1305,-1071.18 1301.5,-1081.18 1308.5,-1081.18"/>
</g>
<!-- Node0xf846e40 -->
<g id="node13" class="node"><title>Node0xf846e40</title>
<polygon fill="none" stroke="black" points="466.5,-921.5 466.5,-959.5 833.5,-959.5 833.5,-921.5 466.5,-921.5"/>
<text text-anchor="start" x="474.5" y="-944.3" font-family="Times,serif" font-size="14.00">0x805bfdc:</text>
<text text-anchor="start" x="474.5" y="-929.3" font-family="Times,serif" font-size="14.00"> if (((2 * mbedtls_ecp_set_zero(v1)) or 1) == g3):</text>
</g>
<!-- Node0x28f8f270&#45;&gt;Node0xf846e40 -->
<g id="edge12" class="edge"><title>Node0x28f8f270&#45;&gt;Node0xf846e40</title>
<path fill="none" stroke="black" d="M729.164,-1011.48C712.233,-996.514 693.541,-979.99 678.573,-966.759"/>
<polygon fill="black" stroke="black" points="680.487,-963.779 670.676,-959.778 675.85,-969.023 680.487,-963.779"/>
</g>
<!-- Node0x28f8fcf0&#45;&gt;Node0x28f8e220 -->
<g id="edge13" class="edge"><title>Node0x28f8fcf0&#45;&gt;Node0x28f8e220</title>
<path fill="none" stroke="black" d="M742.498,-702.32C753.422,-686.135 762,-667.165 762,-647.5 762,-647.5 762,-647.5 762,-145.5 762,-54.6372 904.925,-42.2935 974.641,-41.6773"/>
<polygon fill="black" stroke="black" points="974.774,-45.1773 984.77,-41.6661 974.766,-38.1773 974.774,-45.1773"/>
</g>
<!-- Node0x28f8fe90 -->
<g id="node14" class="node"><title>Node0x28f8fe90</title>
<polygon fill="none" stroke="black" points="1533.5,-819.5 1533.5,-902.5 1654.5,-902.5 1654.5,-819.5 1533.5,-819.5"/>
<text text-anchor="start" x="1541.5" y="-887.3" font-family="Times,serif" font-size="14.00">0x805bfb2:</text>
<text text-anchor="start" x="1541.5" y="-872.3" font-family="Times,serif" font-size="14.00"> g3 = v4</text>
<text text-anchor="start" x="1541.5" y="-857.3" font-family="Times,serif" font-size="14.00"> g7 = v5</text>
<text text-anchor="start" x="1541.5" y="-842.3" font-family="Times,serif" font-size="14.00"> g5 = v6</text>
<text text-anchor="start" x="1541.5" y="-827.3" font-family="Times,serif" font-size="14.00"> return &#45;20096</text>
</g>
<!-- Node0x28f8f180&#45;&gt;Node0x28f8fe90 -->
<g id="edge14" class="edge"><title>Node0x28f8f180&#45;&gt;Node0x28f8fe90</title>
<path fill="none" stroke="black" d="M1328.53,-1034.9C1349.65,-1019.67 1381.61,-996.933 1410,-978 1431.31,-963.788 1481.7,-932.066 1524.37,-905.381"/>
<polygon fill="black" stroke="black" points="1526.44,-908.214 1533.07,-899.945 1522.73,-902.278 1526.44,-908.214"/>
<text text-anchor="middle" x="1538" y="-981.8" font-family="Times,serif" font-size="14.00">*(IntToPtrCastExpr&lt;ptr&gt;(g7)) != 4</text>
</g>
<!-- Node0x7fa8d80 -->
<g id="node15" class="node"><title>Node0x7fa8d80</title>
<polygon fill="none" stroke="black" points="1031.5,-921.5 1031.5,-959.5 1238.5,-959.5 1238.5,-921.5 1031.5,-921.5"/>
<text text-anchor="start" x="1039.5" y="-944.3" font-family="Times,serif" font-size="14.00">0x805bfdc:</text>
<text text-anchor="start" x="1039.5" y="-929.3" font-family="Times,serif" font-size="14.00"> if (((2 * v13) or 1) == g3):</text>
</g>
<!-- Node0x28f8f180&#45;&gt;Node0x7fa8d80 -->
<g id="edge15" class="edge"><title>Node0x28f8f180&#45;&gt;Node0x7fa8d80</title>
<path fill="none" stroke="black" d="M1183.54,-1035C1160.63,-1026.13 1139.38,-1012.84 1125,-993 1120.06,-986.184 1119.99,-977.576 1121.92,-969.36"/>
<polygon fill="black" stroke="black" points="1125.3,-970.271 1125.07,-959.678 1118.65,-968.106 1125.3,-970.271"/>
<text text-anchor="middle" x="1256" y="-981.8" font-family="Times,serif" font-size="14.00">*(IntToPtrCastExpr&lt;ptr&gt;(g7)) == 4</text>
</g>
<!-- Node0xf846e40&#45;&gt;Node0x28f8fcf0 -->
<g id="edge17" class="edge"><title>Node0xf846e40&#45;&gt;Node0x28f8fcf0</title>
<path fill="none" stroke="black" d="M646.917,-921.426C643.537,-897.397 639.946,-853.903 651,-819 651.996,-815.855 653.197,-812.727 654.557,-809.64"/>
<polygon fill="black" stroke="black" points="657.77,-811.037 659.066,-800.521 651.495,-807.934 657.77,-811.037"/>
<text text-anchor="middle" x="806.5" y="-857.3" font-family="Times,serif" font-size="14.00">((2 * mbedtls_ecp_set_zero(v1)) or 1) != g3</text>
</g>
<!-- Node0x28f91730 -->
<g id="node16" class="node"><title>Node0x28f91730</title>
<polygon fill="none" stroke="black" points="0,-717.5 0,-785.5 518,-785.5 518,-717.5 0,-717.5"/>
<text text-anchor="start" x="8" y="-770.3" font-family="Times,serif" font-size="14.00">0x805bfe4:</text>
<text text-anchor="start" x="8" y="-755.3" font-family="Times,serif" font-size="14.00"> *(IntToPtrCastExpr&lt;ptr&gt;((g2 &#45; 28))) = g6</text>
<text text-anchor="start" x="8" y="-740.3" font-family="Times,serif" font-size="14.00"> v8 = mbedtls_mpi_read_binary(v2, IntToPtrCastExpr&lt;ptr&gt;(v10), v3)</text>
<text text-anchor="start" x="8" y="-725.3" font-family="Times,serif" font-size="14.00"> result = v8</text>
</g>
<!-- Node0xf846e40&#45;&gt;Node0x28f91730 -->
<g id="edge16" class="edge"><title>Node0xf846e40&#45;&gt;Node0x28f91730</title>
<path fill="none" stroke="black" d="M466.254,-934.937C405.262,-930.087 346.827,-920.738 323,-903 288.901,-877.615 272.797,-830.445 265.302,-795.654"/>
<polygon fill="black" stroke="black" points="268.714,-794.868 263.325,-785.746 261.849,-796.238 268.714,-794.868"/>
<text text-anchor="middle" x="481.5" y="-857.3" font-family="Times,serif" font-size="14.00">((2 * mbedtls_ecp_set_zero(v1)) or 1) == g3</text>
</g>
<!-- Node0x28f8fe90&#45;&gt;Node0x28f8e220 -->
<g id="edge18" class="edge"><title>Node0x28f8fe90&#45;&gt;Node0x28f8e220</title>
<path fill="none" stroke="black" d="M1654.63,-850.286C1685.31,-842.219 1720.51,-827.555 1742,-801 1775.19,-759.992 1762,-736.754 1762,-684 1762,-684 1762,-684 1762,-145.5 1762,-72.7415 1200.85,-48.7886 1049.32,-43.6468"/>
<polygon fill="black" stroke="black" points="1049.25,-40.1424 1039.14,-43.3087 1049.01,-47.1386 1049.25,-40.1424"/>
</g>
<!-- Node0x7fa8d80&#45;&gt;Node0x28f8e800 -->
<g id="edge20" class="edge"><title>Node0x7fa8d80&#45;&gt;Node0x28f8e800</title>
<path fill="none" stroke="black" d="M1238.57,-925.757C1258.46,-920.468 1278.52,-913.143 1296,-903 1339.8,-877.577 1330.5,-846.539 1373,-819 1382.5,-812.844 1392.63,-807.205 1403.09,-802.048"/>
<polygon fill="black" stroke="black" points="1404.83,-805.094 1412.36,-797.639 1401.82,-798.773 1404.83,-805.094"/>
<text text-anchor="middle" x="1448.5" y="-857.3" font-family="Times,serif" font-size="14.00">((2 * v13) or 1) != g3</text>
</g>
<!-- Node0x96ad550 -->
<g id="node17" class="node"><title>Node0x96ad550</title>
<polygon fill="none" stroke="black" points="876,-717.5 876,-785.5 1394,-785.5 1394,-717.5 876,-717.5"/>
<text text-anchor="start" x="884" y="-770.3" font-family="Times,serif" font-size="14.00">0x805bfe4:</text>
<text text-anchor="start" x="884" y="-755.3" font-family="Times,serif" font-size="14.00"> *(IntToPtrCastExpr&lt;ptr&gt;((g2 &#45; 28))) = g6</text>
<text text-anchor="start" x="884" y="-740.3" font-family="Times,serif" font-size="14.00"> v8 = mbedtls_mpi_read_binary(v2, IntToPtrCastExpr&lt;ptr&gt;(v10), v3)</text>
<text text-anchor="start" x="884" y="-725.3" font-family="Times,serif" font-size="14.00"> result = v8</text>
</g>
<!-- Node0x7fa8d80&#45;&gt;Node0x96ad550 -->
<g id="edge19" class="edge"><title>Node0x7fa8d80&#45;&gt;Node0x96ad550</title>
<path fill="none" stroke="black" d="M1135,-921.229C1135,-892.377 1135,-835.468 1135,-795.758"/>
<polygon fill="black" stroke="black" points="1138.5,-795.557 1135,-785.557 1131.5,-795.557 1138.5,-795.557"/>
<text text-anchor="middle" x="1213.5" y="-857.3" font-family="Times,serif" font-size="14.00">((2 * v13) or 1) == g3</text>
</g>
<!-- Node0xb7b1ba0 -->
<g id="node18" class="node"><title>Node0xb7b1ba0</title>
<polygon fill="none" stroke="black" points="273.5,-628.5 273.5,-664.5 378.5,-664.5 378.5,-628.5 273.5,-628.5"/>
<text text-anchor="start" x="281.5" y="-642.8" font-family="Times,serif" font-size="14.00">if (v8 == 0):</text>
</g>
<!-- Node0x28f91730&#45;&gt;Node0xb7b1ba0 -->
<g id="edge21" class="edge"><title>Node0x28f91730&#45;&gt;Node0xb7b1ba0</title>
<path fill="none" stroke="black" d="M280.568,-717.343C289.83,-703.104 300.493,-686.713 309.159,-673.39"/>
<polygon fill="black" stroke="black" points="312.28,-675.011 314.799,-664.72 306.412,-671.194 312.28,-675.011"/>
</g>
<!-- Node0x96ad690 -->
<g id="node19" class="node"><title>Node0x96ad690</title>
<polygon fill="none" stroke="black" points="1082.5,-628.5 1082.5,-664.5 1187.5,-664.5 1187.5,-628.5 1082.5,-628.5"/>
<text text-anchor="start" x="1090.5" y="-642.8" font-family="Times,serif" font-size="14.00">if (v8 == 0):</text>
</g>
<!-- Node0x96ad550&#45;&gt;Node0x96ad690 -->
<g id="edge22" class="edge"><title>Node0x96ad550&#45;&gt;Node0x96ad690</title>
<path fill="none" stroke="black" d="M1135,-717.343C1135,-703.652 1135,-687.971 1135,-674.94"/>
<polygon fill="black" stroke="black" points="1138.5,-674.72 1135,-664.72 1131.5,-674.72 1138.5,-674.72"/>
</g>
<!-- Node0x273712c0 -->
<g id="node20" class="node"><title>Node0x273712c0</title>
<polygon fill="none" stroke="black" points="67,-538.5 67,-576.5 585,-576.5 585,-538.5 67,-538.5"/>
<text text-anchor="start" x="75" y="-561.3" font-family="Times,serif" font-size="14.00">0x805c001:</text>
<text text-anchor="start" x="75" y="-546.3" font-family="Times,serif" font-size="14.00"> v9 = mbedtls_mpi_read_binary(v2, IntToPtrCastExpr&lt;ptr&gt;(v10), v3)</text>
</g>
<!-- Node0xb7b1ba0&#45;&gt;Node0x273712c0 -->
<g id="edge23" class="edge"><title>Node0xb7b1ba0&#45;&gt;Node0x273712c0</title>
<path fill="none" stroke="black" d="M326,-628.312C326,-616.511 326,-600.572 326,-586.904"/>
<polygon fill="black" stroke="black" points="329.5,-586.551 326,-576.551 322.5,-586.551 329.5,-586.551"/>
<text text-anchor="middle" x="356" y="-598.8" font-family="Times,serif" font-size="14.00">v8 == 0</text>
</g>
<!-- Node0x28f914b0 -->
<g id="node21" class="node"><title>Node0x28f914b0</title>
<polygon fill="none" stroke="black" points="374.5,-97.5 374.5,-195.5 695.5,-195.5 695.5,-97.5 374.5,-97.5"/>
<text text-anchor="start" x="382.5" y="-180.3" font-family="Times,serif" font-size="14.00">0x805bf8e:</text>
<text text-anchor="start" x="382.5" y="-165.3" font-family="Times,serif" font-size="14.00"> v7 = g2</text>
<text text-anchor="start" x="382.5" y="-150.3" font-family="Times,serif" font-size="14.00"> g3 = *(IntToPtrCastExpr&lt;ptr&gt;((v7 &#45; 12)))</text>
<text text-anchor="start" x="382.5" y="-135.3" font-family="Times,serif" font-size="14.00"> g7 = *(IntToPtrCastExpr&lt;ptr&gt;((v7 &#45; 8)))</text>
<text text-anchor="start" x="382.5" y="-120.3" font-family="Times,serif" font-size="14.00"> g5 = *(IntToPtrCastExpr&lt;ptr&gt;((v7 &#45; 4)))</text>
<text text-anchor="start" x="382.5" y="-105.3" font-family="Times,serif" font-size="14.00"> return result</text>
</g>
<!-- Node0xb7b1ba0&#45;&gt;Node0x28f914b0 -->
<g id="edge24" class="edge"><title>Node0xb7b1ba0&#45;&gt;Node0x28f914b0</title>
<path fill="none" stroke="black" d="M378.606,-642.58C472.221,-635.932 658,-615.553 658,-558.5 658,-558.5 658,-558.5 658,-393.5 658,-313.48 685.854,-282.202 644,-214 641.717,-210.28 639.141,-206.74 636.33,-203.372"/>
<polygon fill="black" stroke="black" points="638.724,-200.805 629.372,-195.826 633.578,-205.551 638.724,-200.805"/>
<text text-anchor="middle" x="685" y="-478.8" font-family="Times,serif" font-size="14.00">v8 != 0</text>
</g>
<!-- Node0x28f90d70 -->
<g id="node22" class="node"><title>Node0x28f90d70</title>
<polygon fill="none" stroke="black" points="790,-538.5 790,-576.5 1308,-576.5 1308,-538.5 790,-538.5"/>
<text text-anchor="start" x="798" y="-561.3" font-family="Times,serif" font-size="14.00">0x805c001:</text>
<text text-anchor="start" x="798" y="-546.3" font-family="Times,serif" font-size="14.00"> v9 = mbedtls_mpi_read_binary(v2, IntToPtrCastExpr&lt;ptr&gt;(v10), v3)</text>
</g>
<!-- Node0x96ad690&#45;&gt;Node0x28f90d70 -->
<g id="edge25" class="edge"><title>Node0x96ad690&#45;&gt;Node0x28f90d70</title>
<path fill="none" stroke="black" d="M1118.01,-628.312C1105.42,-615.576 1088.07,-598.022 1073.91,-583.702"/>
<polygon fill="black" stroke="black" points="1076.36,-581.203 1066.84,-576.551 1071.38,-586.124 1076.36,-581.203"/>
<text text-anchor="middle" x="1130" y="-598.8" font-family="Times,serif" font-size="14.00">v8 == 0</text>
</g>
<!-- Node0xf846d50 -->
<g id="node23" class="node"><title>Node0xf846d50</title>
<polygon fill="none" stroke="black" points="1083.5,-97.5 1083.5,-195.5 1404.5,-195.5 1404.5,-97.5 1083.5,-97.5"/>
<text text-anchor="start" x="1091.5" y="-180.3" font-family="Times,serif" font-size="14.00">0x805bf8e:</text>
<text text-anchor="start" x="1091.5" y="-165.3" font-family="Times,serif" font-size="14.00"> v7 = g2</text>
<text text-anchor="start" x="1091.5" y="-150.3" font-family="Times,serif" font-size="14.00"> g3 = *(IntToPtrCastExpr&lt;ptr&gt;((v7 &#45; 12)))</text>
<text text-anchor="start" x="1091.5" y="-135.3" font-family="Times,serif" font-size="14.00"> g7 = *(IntToPtrCastExpr&lt;ptr&gt;((v7 &#45; 8)))</text>
<text text-anchor="start" x="1091.5" y="-120.3" font-family="Times,serif" font-size="14.00"> g5 = *(IntToPtrCastExpr&lt;ptr&gt;((v7 &#45; 4)))</text>
<text text-anchor="start" x="1091.5" y="-105.3" font-family="Times,serif" font-size="14.00"> return result</text>
</g>
<!-- Node0x96ad690&#45;&gt;Node0xf846d50 -->
<g id="edge26" class="edge"><title>Node0x96ad690&#45;&gt;Node0xf846d50</title>
<path fill="none" stroke="black" d="M1187.55,-644.546C1247.1,-640.347 1336,-623.237 1336,-558.5 1336,-558.5 1336,-558.5 1336,-393.5 1336,-325.604 1304.87,-253.465 1278.83,-204.99"/>
<polygon fill="black" stroke="black" points="1281.74,-203.012 1273.87,-195.919 1275.6,-206.372 1281.74,-203.012"/>
<text text-anchor="middle" x="1363" y="-478.8" font-family="Times,serif" font-size="14.00">v8 != 0</text>
</g>
<!-- Node0x27371350 -->
<g id="node24" class="node"><title>Node0x27371350</title>
<polygon fill="none" stroke="black" points="273.5,-464.5 273.5,-500.5 378.5,-500.5 378.5,-464.5 273.5,-464.5"/>
<text text-anchor="start" x="281.5" y="-478.8" font-family="Times,serif" font-size="14.00">if (v9 == 0):</text>
</g>
<!-- Node0x273712c0&#45;&gt;Node0x27371350 -->
<g id="edge27" class="edge"><title>Node0x273712c0&#45;&gt;Node0x27371350</title>
<path fill="none" stroke="black" d="M326,-538.455C326,-530.201 326,-520.238 326,-511.074"/>
<polygon fill="black" stroke="black" points="329.5,-510.835 326,-500.835 322.5,-510.835 329.5,-510.835"/>
</g>
<!-- Node0x28f914b0&#45;&gt;Node0x28f8e220 -->
<g id="edge28" class="edge"><title>Node0x28f914b0&#45;&gt;Node0x28f8e220</title>
<path fill="none" stroke="black" d="M647.571,-97.3354C668.059,-89.9381 689.453,-83.0842 710,-78 803.592,-54.8412 917.349,-46.658 974.865,-43.8696"/>
<polygon fill="black" stroke="black" points="975.103,-47.3625 984.933,-43.4094 974.783,-40.3698 975.103,-47.3625"/>
</g>
<!-- Node0x28f90dd0 -->
<g id="node25" class="node"><title>Node0x28f90dd0</title>
<polygon fill="none" stroke="black" points="996.5,-464.5 996.5,-500.5 1101.5,-500.5 1101.5,-464.5 996.5,-464.5"/>
<text text-anchor="start" x="1004.5" y="-478.8" font-family="Times,serif" font-size="14.00">if (v9 == 0):</text>
</g>
<!-- Node0x28f90d70&#45;&gt;Node0x28f90dd0 -->
<g id="edge29" class="edge"><title>Node0x28f90d70&#45;&gt;Node0x28f90dd0</title>
<path fill="none" stroke="black" d="M1049,-538.455C1049,-530.201 1049,-520.238 1049,-511.074"/>
<polygon fill="black" stroke="black" points="1052.5,-510.835 1049,-500.835 1045.5,-510.835 1052.5,-510.835"/>
</g>
<!-- Node0xf846d50&#45;&gt;Node0x28f8e220 -->
<g id="edge30" class="edge"><title>Node0xf846d50&#45;&gt;Node0x28f8e220</title>
<path fill="none" stroke="black" d="M1135.81,-97.4679C1104.46,-83.5471 1072.34,-69.2869 1048.67,-58.7805"/>
<polygon fill="black" stroke="black" points="1049.95,-55.5212 1039.39,-54.6623 1047.11,-61.919 1049.95,-55.5212"/>
</g>
<!-- Node0x273715d0 -->
<g id="node26" class="node"><title>Node0x273715d0</title>
<polygon fill="none" stroke="black" points="208.5,-214.5 208.5,-357.5 643.5,-357.5 643.5,-214.5 208.5,-214.5"/>
<text text-anchor="start" x="216.5" y="-342.3" font-family="Times,serif" font-size="14.00">0x805c020:</text>
<text text-anchor="start" x="216.5" y="-327.3" font-family="Times,serif" font-size="14.00"> v11 = g2</text>
<text text-anchor="start" x="216.5" y="-312.3" font-family="Times,serif" font-size="14.00"> g3 = *(IntToPtrCastExpr&lt;ptr&gt;((v11 &#45; 12)))</text>
<text text-anchor="start" x="216.5" y="-297.3" font-family="Times,serif" font-size="14.00"> *(IntToPtrCastExpr&lt;ptr&gt;((v11 + 8))) = (g5 + 24)</text>
<text text-anchor="start" x="216.5" y="-282.3" font-family="Times,serif" font-size="14.00"> v12 = g2</text>
<text text-anchor="start" x="216.5" y="-267.3" font-family="Times,serif" font-size="14.00"> g7 = *(IntToPtrCastExpr&lt;ptr&gt;((v12 &#45; 8)))</text>
<text text-anchor="start" x="216.5" y="-252.3" font-family="Times,serif" font-size="14.00"> *(IntToPtrCastExpr&lt;ptr&gt;((v12 + 12))) = 1</text>
<text text-anchor="start" x="216.5" y="-237.3" font-family="Times,serif" font-size="14.00"> g5 = *(IntToPtrCastExpr&lt;ptr&gt;((g2 &#45; 4)))</text>
<text text-anchor="start" x="216.5" y="-222.3" font-family="Times,serif" font-size="14.00"> return mbedtls_mpi_lset(IntToPtrCastExpr&lt;ptr&gt;(v3), a2)</text>
</g>
<!-- Node0x27371350&#45;&gt;Node0x273715d0 -->
<g id="edge31" class="edge"><title>Node0x27371350&#45;&gt;Node0x273715d0</title>
<path fill="none" stroke="black" d="M334.874,-464.239C346.155,-442.298 366.397,-402.927 384.943,-366.856"/>
<polygon fill="black" stroke="black" points="388.155,-368.263 389.615,-357.769 381.93,-365.062 388.155,-368.263"/>
<text text-anchor="middle" x="382" y="-434.8" font-family="Times,serif" font-size="14.00">v9 == 0</text>
</g>
<!-- Node0x27371570 -->
<g id="node27" class="node"><title>Node0x27371570</title>
<polygon fill="none" stroke="black" points="178.5,-376.5 178.5,-412.5 275.5,-412.5 275.5,-376.5 178.5,-376.5"/>
<text text-anchor="start" x="186.5" y="-390.8" font-family="Times,serif" font-size="14.00">result = v9</text>
</g>
<!-- Node0x27371350&#45;&gt;Node0x27371570 -->
<g id="edge32" class="edge"><title>Node0x27371350&#45;&gt;Node0x27371570</title>
<path fill="none" stroke="black" d="M305.966,-464.097C291.108,-451.19 270.682,-433.446 254.326,-419.238"/>
<polygon fill="black" stroke="black" points="256.511,-416.5 246.666,-412.584 251.921,-421.784 256.511,-416.5"/>
<text text-anchor="middle" x="310" y="-434.8" font-family="Times,serif" font-size="14.00">v9 != 0</text>
</g>
<!-- Node0x28f91630 -->
<g id="node28" class="node"><title>Node0x28f91630</title>
<polygon fill="none" stroke="black" points="794.5,-214.5 794.5,-357.5 1229.5,-357.5 1229.5,-214.5 794.5,-214.5"/>
<text text-anchor="start" x="802.5" y="-342.3" font-family="Times,serif" font-size="14.00">0x805c020:</text>
<text text-anchor="start" x="802.5" y="-327.3" font-family="Times,serif" font-size="14.00"> v11 = g2</text>
<text text-anchor="start" x="802.5" y="-312.3" font-family="Times,serif" font-size="14.00"> g3 = *(IntToPtrCastExpr&lt;ptr&gt;((v11 &#45; 12)))</text>
<text text-anchor="start" x="802.5" y="-297.3" font-family="Times,serif" font-size="14.00"> *(IntToPtrCastExpr&lt;ptr&gt;((v11 + 8))) = (g5 + 24)</text>
<text text-anchor="start" x="802.5" y="-282.3" font-family="Times,serif" font-size="14.00"> v12 = g2</text>
<text text-anchor="start" x="802.5" y="-267.3" font-family="Times,serif" font-size="14.00"> g7 = *(IntToPtrCastExpr&lt;ptr&gt;((v12 &#45; 8)))</text>
<text text-anchor="start" x="802.5" y="-252.3" font-family="Times,serif" font-size="14.00"> *(IntToPtrCastExpr&lt;ptr&gt;((v12 + 12))) = 1</text>
<text text-anchor="start" x="802.5" y="-237.3" font-family="Times,serif" font-size="14.00"> g5 = *(IntToPtrCastExpr&lt;ptr&gt;((g2 &#45; 4)))</text>
<text text-anchor="start" x="802.5" y="-222.3" font-family="Times,serif" font-size="14.00"> return mbedtls_mpi_lset(IntToPtrCastExpr&lt;ptr&gt;(v3), a2)</text>
</g>
<!-- Node0x28f90dd0&#45;&gt;Node0x28f91630 -->
<g id="edge33" class="edge"><title>Node0x28f90dd0&#45;&gt;Node0x28f91630</title>
<path fill="none" stroke="black" d="M1045.72,-464.239C1041.58,-442.484 1034.18,-403.593 1027.37,-367.774"/>
<polygon fill="black" stroke="black" points="1030.77,-366.939 1025.46,-357.769 1023.89,-368.247 1030.77,-366.939"/>
<text text-anchor="middle" x="1072" y="-434.8" font-family="Times,serif" font-size="14.00">v9 == 0</text>
</g>
<!-- Node0xb7b1b40 -->
<g id="node29" class="node"><title>Node0xb7b1b40</title>
<polygon fill="none" stroke="black" points="1176.5,-376.5 1176.5,-412.5 1273.5,-412.5 1273.5,-376.5 1176.5,-376.5"/>
<text text-anchor="start" x="1184.5" y="-390.8" font-family="Times,serif" font-size="14.00">result = v9</text>
</g>
<!-- Node0x28f90dd0&#45;&gt;Node0xb7b1b40 -->
<g id="edge34" class="edge"><title>Node0x28f90dd0&#45;&gt;Node0xb7b1b40</title>
<path fill="none" stroke="black" d="M1084.19,-464.303C1111.98,-450.724 1150.92,-431.698 1180.81,-417.094"/>
<polygon fill="black" stroke="black" points="1182.72,-420.055 1190.17,-412.52 1179.65,-413.766 1182.72,-420.055"/>
<text text-anchor="middle" x="1175" y="-434.8" font-family="Times,serif" font-size="14.00">v9 != 0</text>
</g>
<!-- Node0x273715d0&#45;&gt;Node0x28f8e220 -->
<g id="edge35" class="edge"><title>Node0x273715d0&#45;&gt;Node0x28f8e220</title>
<path fill="none" stroke="black" d="M643.834,-237.294C665.842,-226.272 686.491,-212.703 704,-196 744.499,-157.364 704.26,-112.923 748,-78 782.234,-50.6669 910.385,-44.3471 974.696,-42.9084"/>
<polygon fill="black" stroke="black" points="974.887,-46.4055 984.816,-42.7108 974.75,-39.4068 974.887,-46.4055"/>
</g>
<!-- Node0x27371570&#45;&gt;Node0x28f914b0 -->
<g id="edge36" class="edge"><title>Node0x27371570&#45;&gt;Node0x28f914b0</title>
<path fill="none" stroke="black" d="M215.524,-376.139C212.458,-370.577 209.564,-364.238 208,-358 192.432,-295.922 167.505,-263.559 208,-214 228.919,-188.398 296.186,-172.407 364.314,-162.545"/>
<polygon fill="black" stroke="black" points="364.95,-165.99 374.366,-161.134 363.977,-159.058 364.95,-165.99"/>
</g>
<!-- Node0x28f91630&#45;&gt;Node0x28f8e220 -->
<g id="edge37" class="edge"><title>Node0x28f91630&#45;&gt;Node0x28f8e220</title>
<path fill="none" stroke="black" d="M1012,-214.207C1012,-165.893 1012,-104.569 1012,-69.8119"/>
<polygon fill="black" stroke="black" points="1015.5,-69.5107 1012,-59.5107 1008.5,-69.5107 1015.5,-69.5107"/>
</g>
<!-- Node0xb7b1b40&#45;&gt;Node0xf846d50 -->
<g id="edge38" class="edge"><title>Node0xb7b1b40&#45;&gt;Node0xf846d50</title>
<path fill="none" stroke="black" d="M1227.7,-376.197C1228.53,-370.421 1229.38,-363.943 1230,-358 1235.31,-306.674 1239.02,-248.089 1241.28,-205.778"/>
<polygon fill="black" stroke="black" points="1244.78,-205.826 1241.81,-195.657 1237.79,-205.461 1244.78,-205.826"/>
</g>
</g>
</svg>
