<?xml version="1.0" encoding="UTF-8" standalone="no"?>
<!DOCTYPE svg PUBLIC "-//W3C//DTD SVG 1.1//EN"
 "http://www.w3.org/Graphics/SVG/1.1/DTD/svg11.dtd">
<!-- Generated by graphviz version 2.38.0 (20140413.2041)
 -->
<!-- Title: Control&#45;flow graph for function &#39;mbedtls_camellia_crypt_cfb128(a1, a2, a3, *a4, a5, a6, a7)&#39;. Pages: 1 -->
<svg width="1670pt" height="1675pt"
 viewBox="0.00 0.00 1670.00 1675.00" xmlns="http://www.w3.org/2000/svg" xmlns:xlink="http://www.w3.org/1999/xlink">
<g id="graph0" class="graph" transform="scale(1 1) rotate(0) translate(4 1671)">
<title>Control&#45;flow graph for function &#39;mbedtls_camellia_crypt_cfb128(a1, a2, a3, *a4, a5, a6, a7)&#39;.</title>
<polygon fill="white" stroke="none" points="-4,4 -4,-1671 1666,-1671 1666,4 -4,4"/>
<text text-anchor="middle" x="831" y="-7.8" font-family="Times,serif" font-size="14.00">Control&#45;flow graph for function &#39;mbedtls_camellia_crypt_cfb128(a1, a2, a3, *a4, a5, a6, a7)&#39;.</text>
<!-- Node0x8e42920 -->
<g id="node1" class="node"><title>Node0x8e42920</title>
<polygon fill="none" stroke="black" points="853.5,-1538.5 853.5,-1666.5 912.5,-1666.5 912.5,-1538.5 853.5,-1538.5"/>
<text text-anchor="start" x="861.5" y="-1651.3" font-family="Times,serif" font-size="14.00">entry:</text>
<text text-anchor="start" x="861.5" y="-1636.3" font-family="Times,serif" font-size="14.00"> a1</text>
<text text-anchor="start" x="861.5" y="-1621.3" font-family="Times,serif" font-size="14.00"> a2</text>
<text text-anchor="start" x="861.5" y="-1606.3" font-family="Times,serif" font-size="14.00"> a3</text>
<text text-anchor="start" x="861.5" y="-1591.3" font-family="Times,serif" font-size="14.00"> a4</text>
<text text-anchor="start" x="861.5" y="-1576.3" font-family="Times,serif" font-size="14.00"> a5</text>
<text text-anchor="start" x="861.5" y="-1561.3" font-family="Times,serif" font-size="14.00"> a6</text>
<text text-anchor="start" x="861.5" y="-1546.3" font-family="Times,serif" font-size="14.00"> a7</text>
</g>
<!-- Node0x8e448c0 -->
<g id="node2" class="node"><title>Node0x8e448c0</title>
<polygon fill="none" stroke="black" points="835.5,-1402.5 835.5,-1500.5 930.5,-1500.5 930.5,-1402.5 835.5,-1402.5"/>
<text text-anchor="start" x="843.5" y="-1485.3" font-family="Times,serif" font-size="14.00">v1 = g5</text>
<text text-anchor="start" x="843.5" y="-1470.3" font-family="Times,serif" font-size="14.00"> v2 = g7</text>
<text text-anchor="start" x="843.5" y="-1455.3" font-family="Times,serif" font-size="14.00"> v3 = g3</text>
<text text-anchor="start" x="843.5" y="-1440.3" font-family="Times,serif" font-size="14.00"> g5 = a5</text>
<text text-anchor="start" x="843.5" y="-1425.3" font-family="Times,serif" font-size="14.00"> v4 = *(a4)</text>
<text text-anchor="start" x="843.5" y="-1410.3" font-family="Times,serif" font-size="14.00"> g3 = v4</text>
</g>
<!-- Node0x8e42920&#45;&gt;Node0x8e448c0 -->
<g id="edge1" class="edge"><title>Node0x8e42920&#45;&gt;Node0x8e448c0</title>
<path fill="none" stroke="black" d="M883,-1538.31C883,-1529.3 883,-1520.07 883,-1511.15"/>
<polygon fill="black" stroke="black" points="886.5,-1510.87 883,-1500.87 879.5,-1510.87 886.5,-1510.87"/>
</g>
<!-- Node0x245f5060 -->
<g id="node3" class="node"><title>Node0x245f5060</title>
<polygon fill="none" stroke="black" points="833.5,-1328.5 833.5,-1364.5 932.5,-1364.5 932.5,-1328.5 833.5,-1328.5"/>
<text text-anchor="start" x="841.5" y="-1342.8" font-family="Times,serif" font-size="14.00">if (a2 != 0):</text>
</g>
<!-- Node0x8e448c0&#45;&gt;Node0x245f5060 -->
<g id="edge2" class="edge"><title>Node0x8e448c0&#45;&gt;Node0x245f5060</title>
<path fill="none" stroke="black" d="M883,-1402.32C883,-1392.89 883,-1383.32 883,-1374.87"/>
<polygon fill="black" stroke="black" points="886.5,-1374.86 883,-1364.86 879.5,-1374.86 886.5,-1374.86"/>
</g>
<!-- Node0x1ec11b20 -->
<g id="node4" class="node"><title>Node0x1ec11b20</title>
<polygon fill="none" stroke="black" points="778.5,-1238.5 778.5,-1276.5 879.5,-1276.5 879.5,-1238.5 778.5,-1238.5"/>
<text text-anchor="start" x="786.5" y="-1261.3" font-family="Times,serif" font-size="14.00">0x806eb48:</text>
<text text-anchor="start" x="786.5" y="-1246.3" font-family="Times,serif" font-size="14.00"> g7 = 0</text>
</g>
<!-- Node0x245f5060&#45;&gt;Node0x1ec11b20 -->
<g id="edge3" class="edge"><title>Node0x245f5060&#45;&gt;Node0x1ec11b20</title>
<path fill="none" stroke="black" d="M868.941,-1328.22C864.585,-1322.56 859.907,-1316.14 856,-1310 851.093,-1302.29 846.279,-1293.58 842.106,-1285.56"/>
<polygon fill="black" stroke="black" points="845.181,-1283.88 837.535,-1276.55 838.938,-1287.05 845.181,-1283.88"/>
<text text-anchor="middle" x="883" y="-1298.8" font-family="Times,serif" font-size="14.00">a2 != 0</text>
</g>
<!-- Node0x245f5680 -->
<g id="node5" class="node"><title>Node0x245f5680</title>
<polygon fill="none" stroke="black" points="880,-1162.5 880,-1200.5 984,-1200.5 984,-1162.5 880,-1162.5"/>
<text text-anchor="start" x="888" y="-1185.3" font-family="Times,serif" font-size="14.00">0x806eba8:</text>
<text text-anchor="start" x="888" y="-1170.3" font-family="Times,serif" font-size="14.00"> if (a3 != 0):</text>
</g>
<!-- Node0x245f5060&#45;&gt;Node0x245f5680 -->
<g id="edge4" class="edge"><title>Node0x245f5060&#45;&gt;Node0x245f5680</title>
<path fill="none" stroke="black" d="M898.827,-1328.14C903.056,-1322.67 907.219,-1316.39 910,-1310 924.025,-1277.78 929.125,-1237.32 930.97,-1210.73"/>
<polygon fill="black" stroke="black" points="934.473,-1210.77 931.562,-1200.59 927.485,-1210.37 934.473,-1210.77"/>
<text text-anchor="middle" x="959" y="-1253.8" font-family="Times,serif" font-size="14.00">a2 == 0</text>
</g>
<!-- Node0x7b923d0 -->
<g id="node6" class="node"><title>Node0x7b923d0</title>
<polygon fill="none" stroke="black" points="734.5,-1163.5 734.5,-1199.5 833.5,-1199.5 833.5,-1163.5 734.5,-1163.5"/>
<text text-anchor="start" x="742.5" y="-1177.8" font-family="Times,serif" font-size="14.00">if (a3 != 0):</text>
</g>
<!-- Node0x1ec11b20&#45;&gt;Node0x7b923d0 -->
<g id="edge5" class="edge"><title>Node0x1ec11b20&#45;&gt;Node0x7b923d0</title>
<path fill="none" stroke="black" d="M817.876,-1238.21C812.377,-1229.16 805.646,-1218.1 799.638,-1208.22"/>
<polygon fill="black" stroke="black" points="802.565,-1206.29 794.379,-1199.57 796.584,-1209.93 802.565,-1206.29"/>
</g>
<!-- Node0x8e43d10 -->
<g id="node7" class="node"><title>Node0x8e43d10</title>
<polygon fill="none" stroke="black" points="882,-1057.5 882,-1110.5 982,-1110.5 982,-1057.5 882,-1057.5"/>
<text text-anchor="start" x="890" y="-1095.3" font-family="Times,serif" font-size="14.00">0x806ebc0:</text>
<text text-anchor="start" x="890" y="-1080.3" font-family="Times,serif" font-size="14.00"> g7 = 0</text>
<text text-anchor="start" x="890" y="-1065.3" font-family="Times,serif" font-size="14.00"> v11 = 0</text>
</g>
<!-- Node0x245f5680&#45;&gt;Node0x8e43d10 -->
<g id="edge6" class="edge"><title>Node0x245f5680&#45;&gt;Node0x8e43d10</title>
<path fill="none" stroke="black" d="M932,-1162.09C932,-1150.42 932,-1134.95 932,-1120.93"/>
<polygon fill="black" stroke="black" points="935.5,-1120.58 932,-1110.58 928.5,-1120.58 935.5,-1120.58"/>
<text text-anchor="middle" x="959" y="-1132.8" font-family="Times,serif" font-size="14.00">a3 != 0</text>
</g>
<!-- Node0x8e42d70 -->
<g id="node8" class="node"><title>Node0x8e42d70</title>
<polygon fill="none" stroke="black" points="1453.5,-940.5 1453.5,-1038.5 1554.5,-1038.5 1554.5,-940.5 1453.5,-940.5"/>
<text text-anchor="start" x="1461.5" y="-1023.3" font-family="Times,serif" font-size="14.00">0x806ebb0:</text>
<text text-anchor="start" x="1461.5" y="-1008.3" font-family="Times,serif" font-size="14.00"> g1 = 0</text>
<text text-anchor="start" x="1461.5" y="-993.3" font-family="Times,serif" font-size="14.00"> *(a4) = g3</text>
<text text-anchor="start" x="1461.5" y="-978.3" font-family="Times,serif" font-size="14.00"> g3 = v3</text>
<text text-anchor="start" x="1461.5" y="-963.3" font-family="Times,serif" font-size="14.00"> g7 = v2</text>
<text text-anchor="start" x="1461.5" y="-948.3" font-family="Times,serif" font-size="14.00"> g5 = v1</text>
</g>
<!-- Node0x245f5680&#45;&gt;Node0x8e42d70 -->
<g id="edge7" class="edge"><title>Node0x245f5680&#45;&gt;Node0x8e42d70</title>
<path fill="none" stroke="black" d="M984.024,-1163.22C1090.13,-1127.98 1330.97,-1047.97 1443.7,-1010.53"/>
<polygon fill="black" stroke="black" points="1444.84,-1013.84 1453.23,-1007.37 1442.63,-1007.2 1444.84,-1013.84"/>
<text text-anchor="middle" x="1107" y="-1132.8" font-family="Times,serif" font-size="14.00">a3 == 0</text>
</g>
<!-- Node0x245f5810 -->
<g id="node9" class="node"><title>Node0x245f5810</title>
<polygon fill="none" stroke="black" points="613,-1066 613,-1102 677,-1102 677,-1066 613,-1066"/>
<text text-anchor="start" x="621" y="-1080.3" font-family="Times,serif" font-size="14.00">v5 = 0</text>
</g>
<!-- Node0x7b923d0&#45;&gt;Node0x245f5810 -->
<g id="edge8" class="edge"><title>Node0x7b923d0&#45;&gt;Node0x245f5810</title>
<path fill="none" stroke="black" d="M748.97,-1163.42C738.133,-1157.68 726.333,-1150.96 716,-1144 700.371,-1133.47 684.119,-1120.16 671.114,-1108.85"/>
<polygon fill="black" stroke="black" points="673.287,-1106.1 663.471,-1102.11 668.656,-1111.35 673.287,-1106.1"/>
<text text-anchor="middle" x="743" y="-1132.8" font-family="Times,serif" font-size="14.00">a3 != 0</text>
</g>
<!-- Node0x8e44960 -->
<g id="node10" class="node"><title>Node0x8e44960</title>
<polygon fill="none" stroke="black" points="733.5,-753.5 733.5,-866.5 834.5,-866.5 834.5,-753.5 733.5,-753.5"/>
<text text-anchor="start" x="741.5" y="-851.3" font-family="Times,serif" font-size="14.00">0x806ebb0:</text>
<text text-anchor="start" x="741.5" y="-836.3" font-family="Times,serif" font-size="14.00"> g1 = 0</text>
<text text-anchor="start" x="741.5" y="-821.3" font-family="Times,serif" font-size="14.00"> *(a4) = g3</text>
<text text-anchor="start" x="741.5" y="-806.3" font-family="Times,serif" font-size="14.00"> g3 = v3</text>
<text text-anchor="start" x="741.5" y="-791.3" font-family="Times,serif" font-size="14.00"> g7 = v2</text>
<text text-anchor="start" x="741.5" y="-776.3" font-family="Times,serif" font-size="14.00"> g5 = v1</text>
<text text-anchor="start" x="741.5" y="-761.3" font-family="Times,serif" font-size="14.00"> return</text>
</g>
<!-- Node0x7b923d0&#45;&gt;Node0x8e44960 -->
<g id="edge9" class="edge"><title>Node0x7b923d0&#45;&gt;Node0x8e44960</title>
<path fill="none" stroke="black" d="M784,-1163.17C784,-1112.74 784,-964.065 784,-876.851"/>
<polygon fill="black" stroke="black" points="787.5,-876.791 784,-866.791 780.5,-876.791 787.5,-876.791"/>
<text text-anchor="middle" x="814" y="-1080.3" font-family="Times,serif" font-size="14.00">a3 == 0</text>
</g>
<!-- Node0x245f5130 -->
<g id="node11" class="node"><title>Node0x245f5130</title>
<polygon fill="none" stroke="black" points="883.5,-885.5 883.5,-921.5 980.5,-921.5 980.5,-885.5 883.5,-885.5"/>
<text text-anchor="start" x="891.5" y="-899.8" font-family="Times,serif" font-size="14.00">while True:</text>
</g>
<!-- Node0x8e43d10&#45;&gt;Node0x245f5130 -->
<g id="edge10" class="edge"><title>Node0x8e43d10&#45;&gt;Node0x245f5130</title>
<path fill="none" stroke="black" d="M932,-1057.43C932,-1024.11 932,-966.094 932,-931.903"/>
<polygon fill="black" stroke="black" points="935.5,-931.7 932,-921.7 928.5,-931.7 935.5,-931.7"/>
</g>
<!-- Node0x8e44840 -->
<g id="node12" class="node"><title>Node0x8e44840</title>
<polygon fill="none" stroke="black" points="840,-23.5 840,-59.5 894,-59.5 894,-23.5 840,-23.5"/>
<text text-anchor="start" x="848" y="-37.8" font-family="Times,serif" font-size="14.00">exit:</text>
</g>
<!-- Node0x8e42d70&#45;&gt;Node0x8e44840 -->
<g id="edge11" class="edge"><title>Node0x8e42d70&#45;&gt;Node0x8e44840</title>
<path fill="none" stroke="black" d="M1554.86,-959.614C1601.05,-929.182 1662,-876.597 1662,-811 1662,-811 1662,-811 1662,-153 1662,-75.5261 1062.05,-49.2672 904.511,-43.7077"/>
<polygon fill="black" stroke="black" points="904.481,-40.2046 894.366,-43.3568 904.239,-47.2004 904.481,-40.2046"/>
</g>
<!-- Node0x8e44210 -->
<g id="node13" class="node"><title>Node0x8e44210</title>
<polygon fill="none" stroke="black" points="479.5,-885.5 479.5,-921.5 576.5,-921.5 576.5,-885.5 479.5,-885.5"/>
<text text-anchor="start" x="487.5" y="-899.8" font-family="Times,serif" font-size="14.00">while True:</text>
</g>
<!-- Node0x245f5810&#45;&gt;Node0x8e44210 -->
<g id="edge12" class="edge"><title>Node0x245f5810&#45;&gt;Node0x8e44210</title>
<path fill="none" stroke="black" d="M633.782,-1065.88C613.165,-1034.43 569.149,-967.278 544.898,-930.28"/>
<polygon fill="black" stroke="black" points="547.594,-928.008 539.184,-921.564 541.739,-931.846 547.594,-928.008"/>
</g>
<!-- Node0x8e44960&#45;&gt;Node0x8e44840 -->
<g id="edge13" class="edge"><title>Node0x8e44960&#45;&gt;Node0x8e44840</title>
<path fill="none" stroke="black" d="M801.255,-753.458C807.017,-730.357 812,-703.117 812,-678 812,-678 812,-678 812,-153 812,-121.17 830.516,-89.077 846.061,-67.7414"/>
<polygon fill="black" stroke="black" points="849.008,-69.6473 852.261,-59.5641 843.43,-65.4181 849.008,-69.6473"/>
</g>
<!-- Node0x245f41e0 -->
<g id="node14" class="node"><title>Node0x245f41e0</title>
<polygon fill="none" stroke="black" points="982.5,-696.5 982.5,-734.5 1077.5,-734.5 1077.5,-696.5 982.5,-696.5"/>
<text text-anchor="start" x="990.5" y="-719.3" font-family="Times,serif" font-size="14.00">v12 = v4</text>
<text text-anchor="start" x="990.5" y="-704.3" font-family="Times,serif" font-size="14.00"> v13 = v11</text>
</g>
<!-- Node0x245f5130&#45;&gt;Node0x245f41e0 -->
<g id="edge14" class="edge"><title>Node0x245f5130&#45;&gt;Node0x245f41e0</title>
<path fill="none" stroke="black" d="M941.044,-885.335C958.08,-853.001 995.054,-782.825 1015.56,-743.897"/>
<polygon fill="black" stroke="black" points="1018.84,-745.194 1020.4,-734.716 1012.64,-741.931 1018.84,-745.194"/>
<text text-anchor="middle" x="1026" y="-806.3" font-family="Times,serif" font-size="14.00">True</text>
</g>
<!-- Node0xb9c3870 -->
<g id="node15" class="node"><title>Node0xb9c3870</title>
<polygon fill="none" stroke="black" points="489.5,-696.5 489.5,-734.5 566.5,-734.5 566.5,-696.5 489.5,-696.5"/>
<text text-anchor="start" x="497.5" y="-719.3" font-family="Times,serif" font-size="14.00">v6 = v5</text>
<text text-anchor="start" x="497.5" y="-704.3" font-family="Times,serif" font-size="14.00"> v7 = v4</text>
</g>
<!-- Node0x8e44210&#45;&gt;Node0xb9c3870 -->
<g id="edge15" class="edge"><title>Node0x8e44210&#45;&gt;Node0xb9c3870</title>
<path fill="none" stroke="black" d="M528,-885.335C528,-853.275 528,-784.012 528,-744.894"/>
<polygon fill="black" stroke="black" points="531.5,-744.716 528,-734.716 524.5,-744.716 531.5,-744.716"/>
<text text-anchor="middle" x="545" y="-806.3" font-family="Times,serif" font-size="14.00">True</text>
</g>
<!-- Node0x8e40260 -->
<g id="node16" class="node"><title>Node0x8e40260</title>
<polygon fill="none" stroke="black" points="1158.5,-622.5 1158.5,-658.5 1263.5,-658.5 1263.5,-622.5 1158.5,-622.5"/>
<text text-anchor="start" x="1166.5" y="-636.8" font-family="Times,serif" font-size="14.00">if (v4 == 0):</text>
</g>
<!-- Node0x245f41e0&#45;&gt;Node0x8e40260 -->
<g id="edge16" class="edge"><title>Node0x245f41e0&#45;&gt;Node0x8e40260</title>
<path fill="none" stroke="black" d="M1074.74,-696.455C1100.29,-686.152 1132.44,-673.186 1159.09,-662.436"/>
<polygon fill="black" stroke="black" points="1160.67,-665.571 1168.64,-658.585 1158.06,-659.08 1160.67,-665.571"/>
</g>
<!-- Node0x8e43b90 -->
<g id="node17" class="node"><title>Node0x8e43b90</title>
<polygon fill="none" stroke="black" points="475.5,-622.5 475.5,-658.5 580.5,-658.5 580.5,-622.5 475.5,-622.5"/>
<text text-anchor="start" x="483.5" y="-636.8" font-family="Times,serif" font-size="14.00">if (v4 == 0):</text>
</g>
<!-- Node0xb9c3870&#45;&gt;Node0x8e43b90 -->
<g id="edge17" class="edge"><title>Node0xb9c3870&#45;&gt;Node0x8e43b90</title>
<path fill="none" stroke="black" d="M528,-696.455C528,-688.201 528,-678.238 528,-669.074"/>
<polygon fill="black" stroke="black" points="531.5,-668.835 528,-658.835 524.5,-668.835 531.5,-668.835"/>
</g>
<!-- Node0x245f6760 -->
<g id="node18" class="node"><title>Node0x245f6760</title>
<polygon fill="none" stroke="black" points="878.5,-487.5 878.5,-570.5 1543.5,-570.5 1543.5,-487.5 878.5,-487.5"/>
<text text-anchor="start" x="886.5" y="-555.3" font-family="Times,serif" font-size="14.00">0x806ebf2:</text>
<text text-anchor="start" x="886.5" y="-540.3" font-family="Times,serif" font-size="14.00"> g5 = a1</text>
<text text-anchor="start" x="886.5" y="-525.3" font-family="Times,serif" font-size="14.00"> mbedtls_camellia_crypt_ecb(IntToPtrCastExpr&lt;ptr&gt;(a1), 1, IntToPtrCastExpr&lt;ptr&gt;(a5))</text>
<text text-anchor="start" x="886.5" y="-510.3" font-family="Times,serif" font-size="14.00"> v12 = g3</text>
<text text-anchor="start" x="886.5" y="-495.3" font-family="Times,serif" font-size="14.00"> v13 = g7</text>
</g>
<!-- Node0x8e40260&#45;&gt;Node0x245f6760 -->
<g id="edge18" class="edge"><title>Node0x8e40260&#45;&gt;Node0x245f6760</title>
<path fill="none" stroke="black" d="M1211,-622.391C1211,-611.15 1211,-595.807 1211,-580.853"/>
<polygon fill="black" stroke="black" points="1214.5,-580.618 1211,-570.618 1207.5,-580.618 1214.5,-580.618"/>
<text text-anchor="middle" x="1241" y="-592.8" font-family="Times,serif" font-size="14.00">v4 == 0</text>
</g>
<!-- Node0x8e44c90 -->
<g id="node19" class="node"><title>Node0x8e44c90</title>
<polygon fill="none" stroke="black" points="894.5,-336.5 894.5,-449.5 1527.5,-449.5 1527.5,-336.5 894.5,-336.5"/>
<text text-anchor="start" x="902.5" y="-434.3" font-family="Times,serif" font-size="14.00">v14 = *(IntToPtrCastExpr&lt;ptr&gt;((v13 + a6)))</text>
<text text-anchor="start" x="902.5" y="-419.3" font-family="Times,serif" font-size="14.00"> v15 = (v12 + a5)</text>
<text text-anchor="start" x="902.5" y="-404.3" font-family="Times,serif" font-size="14.00"> g3 = ((v12 + 1) % 16)</text>
<text text-anchor="start" x="902.5" y="-389.3" font-family="Times,serif" font-size="14.00"> *(IntToPtrCastExpr&lt;ptr&gt;((v13 + a7))) = (*(IntToPtrCastExpr&lt;ptr&gt;(v15)) ^ v14)</text>
<text text-anchor="start" x="902.5" y="-374.3" font-family="Times,serif" font-size="14.00"> g7 = (g7 + 1)</text>
<text text-anchor="start" x="902.5" y="-359.3" font-family="Times,serif" font-size="14.00"> *(IntToPtrCastExpr&lt;ptr&gt;(v15)) = TruncCastExpr&lt;int8&gt;(ExtCastExpr&lt;int32&gt;(v14))</text>
<text text-anchor="start" x="902.5" y="-344.3" font-family="Times,serif" font-size="14.00"> v16 = g7</text>
</g>
<!-- Node0x8e40260&#45;&gt;Node0x8e44c90 -->
<g id="edge19" class="edge"><title>Node0x8e40260&#45;&gt;Node0x8e44c90</title>
<path fill="none" stroke="black" d="M1263.63,-636.842C1350.28,-631.244 1517.01,-614.907 1553,-571 1576.66,-542.125 1575.67,-516.661 1553,-487 1543.39,-474.428 1523.84,-463.154 1498.72,-453.164"/>
<polygon fill="black" stroke="black" points="1499.82,-449.835 1489.23,-449.541 1497.32,-456.376 1499.82,-449.835"/>
<text text-anchor="middle" x="1597" y="-525.3" font-family="Times,serif" font-size="14.00">v4 != 0</text>
</g>
<!-- Node0x245f6a70 -->
<g id="node20" class="node"><title>Node0x245f6a70</title>
<polygon fill="none" stroke="black" points="28.5,-495 28.5,-563 693.5,-563 693.5,-495 28.5,-495"/>
<text text-anchor="start" x="36.5" y="-547.8" font-family="Times,serif" font-size="14.00">0x806eb86:</text>
<text text-anchor="start" x="36.5" y="-532.8" font-family="Times,serif" font-size="14.00"> mbedtls_camellia_crypt_ecb(IntToPtrCastExpr&lt;ptr&gt;(a1), 1, IntToPtrCastExpr&lt;ptr&gt;(g5))</text>
<text text-anchor="start" x="36.5" y="-517.8" font-family="Times,serif" font-size="14.00"> v6 = g7</text>
<text text-anchor="start" x="36.5" y="-502.8" font-family="Times,serif" font-size="14.00"> v7 = g3</text>
</g>
<!-- Node0x8e43b90&#45;&gt;Node0x245f6a70 -->
<g id="edge20" class="edge"><title>Node0x8e43b90&#45;&gt;Node0x245f6a70</title>
<path fill="none" stroke="black" d="M501.906,-622.391C480.042,-608.054 447.999,-587.044 419.992,-568.68"/>
<polygon fill="black" stroke="black" points="421.727,-565.633 411.445,-563.076 417.889,-571.487 421.727,-565.633"/>
<text text-anchor="middle" x="500" y="-592.8" font-family="Times,serif" font-size="14.00">v4 == 0</text>
</g>
<!-- Node0x245f6360 -->
<g id="node21" class="node"><title>Node0x245f6360</title>
<polygon fill="none" stroke="black" points="139.5,-336.5 139.5,-449.5 754.5,-449.5 754.5,-336.5 139.5,-336.5"/>
<text text-anchor="start" x="147.5" y="-434.3" font-family="Times,serif" font-size="14.00">v8 = (g5 + v7)</text>
<text text-anchor="start" x="147.5" y="-419.3" font-family="Times,serif" font-size="14.00"> g3 = ((v7 + 1) % 16)</text>
<text text-anchor="start" x="147.5" y="-404.3" font-family="Times,serif" font-size="14.00"> v9 = (*(IntToPtrCastExpr&lt;ptr&gt;((v6 + a6))) ^ *(IntToPtrCastExpr&lt;ptr&gt;(v8)))</text>
<text text-anchor="start" x="147.5" y="-389.3" font-family="Times,serif" font-size="14.00"> *(IntToPtrCastExpr&lt;ptr&gt;((v6 + a7))) = v9</text>
<text text-anchor="start" x="147.5" y="-374.3" font-family="Times,serif" font-size="14.00"> g7 = (g7 + 1)</text>
<text text-anchor="start" x="147.5" y="-359.3" font-family="Times,serif" font-size="14.00"> *(IntToPtrCastExpr&lt;ptr&gt;(v8)) = TruncCastExpr&lt;int8&gt;(ExtCastExpr&lt;int32&gt;(v9))</text>
<text text-anchor="start" x="147.5" y="-344.3" font-family="Times,serif" font-size="14.00"> v10 = g7</text>
</g>
<!-- Node0x8e43b90&#45;&gt;Node0x245f6360 -->
<g id="edge21" class="edge"><title>Node0x8e43b90&#45;&gt;Node0x245f6360</title>
<path fill="none" stroke="black" d="M580.748,-634.345C621.389,-627.29 675.046,-610.579 702,-571 723.014,-540.143 723.404,-517.589 702,-487 693.739,-475.194 683.813,-464.881 672.738,-455.874"/>
<polygon fill="black" stroke="black" points="674.545,-452.848 664.478,-449.543 670.286,-458.404 674.545,-452.848"/>
<text text-anchor="middle" x="745" y="-525.3" font-family="Times,serif" font-size="14.00">v4 != 0</text>
</g>
<!-- Node0x245f6760&#45;&gt;Node0x8e44c90 -->
<g id="edge22" class="edge"><title>Node0x245f6760&#45;&gt;Node0x8e44c90</title>
<path fill="none" stroke="black" d="M1211,-487.432C1211,-478.72 1211,-469.299 1211,-459.906"/>
<polygon fill="black" stroke="black" points="1214.5,-459.759 1211,-449.759 1207.5,-459.759 1214.5,-459.759"/>
</g>
<!-- Node0x245f4160 -->
<g id="node22" class="node"><title>Node0x245f4160</title>
<polygon fill="none" stroke="black" points="951,-262.5 951,-298.5 1067,-298.5 1067,-262.5 951,-262.5"/>
<text text-anchor="start" x="959" y="-276.8" font-family="Times,serif" font-size="14.00">if (v16 != a3):</text>
</g>
<!-- Node0x8e44c90&#45;&gt;Node0x245f4160 -->
<g id="edge23" class="edge"><title>Node0x8e44c90&#45;&gt;Node0x245f4160</title>
<path fill="none" stroke="black" d="M1109.41,-336.426C1087.99,-324.71 1066.61,-313.014 1049.11,-303.444"/>
<polygon fill="black" stroke="black" points="1050.79,-300.373 1040.34,-298.644 1047.43,-306.514 1050.79,-300.373"/>
</g>
<!-- Node0x245f6a70&#45;&gt;Node0x245f6360 -->
<g id="edge24" class="edge"><title>Node0x245f6a70&#45;&gt;Node0x245f6360</title>
<path fill="none" stroke="black" d="M382.258,-494.876C389.371,-483.794 397.561,-471.032 405.672,-458.395"/>
<polygon fill="black" stroke="black" points="408.804,-459.994 411.26,-449.688 402.913,-456.214 408.804,-459.994"/>
</g>
<!-- Node0x245f64b0 -->
<g id="node23" class="node"><title>Node0x245f64b0</title>
<polygon fill="none" stroke="black" points="389,-262.5 389,-298.5 505,-298.5 505,-262.5 389,-262.5"/>
<text text-anchor="start" x="397" y="-276.8" font-family="Times,serif" font-size="14.00">if (v10 != a3):</text>
</g>
<!-- Node0x245f6360&#45;&gt;Node0x245f64b0 -->
<g id="edge25" class="edge"><title>Node0x245f6360&#45;&gt;Node0x245f64b0</title>
<path fill="none" stroke="black" d="M447,-336.426C447,-326.86 447,-317.307 447,-308.913"/>
<polygon fill="black" stroke="black" points="450.5,-308.644 447,-298.644 443.5,-308.644 450.5,-308.644"/>
</g>
<!-- Node0x245f6920 -->
<g id="node24" class="node"><title>Node0x245f6920</title>
<polygon fill="none" stroke="black" points="840,-120 840,-188 940,-188 940,-120 840,-120"/>
<text text-anchor="start" x="848" y="-172.8" font-family="Times,serif" font-size="14.00">0x806ebc8:</text>
<text text-anchor="start" x="848" y="-157.8" font-family="Times,serif" font-size="14.00"> v11 = v16</text>
<text text-anchor="start" x="848" y="-142.8" font-family="Times,serif" font-size="14.00"> v4 = g3</text>
<text text-anchor="start" x="848" y="-127.8" font-family="Times,serif" font-size="14.00"> continue</text>
</g>
<!-- Node0x245f4160&#45;&gt;Node0x245f6920 -->
<g id="edge26" class="edge"><title>Node0x245f4160&#45;&gt;Node0x245f6920</title>
<path fill="none" stroke="black" d="M960.314,-262.316C950.82,-257.427 941.499,-251.372 934,-244 920.951,-231.171 911.158,-213.677 904.164,-197.593"/>
<polygon fill="black" stroke="black" points="907.399,-196.256 900.366,-188.331 900.922,-198.911 907.399,-196.256"/>
<text text-anchor="middle" x="969.5" y="-232.8" font-family="Times,serif" font-size="14.00">v16 != a3</text>
</g>
<!-- Node0x8e44da0 -->
<g id="node25" class="node"><title>Node0x8e44da0</title>
<polygon fill="none" stroke="black" points="958.5,-97.5 958.5,-210.5 1059.5,-210.5 1059.5,-97.5 958.5,-97.5"/>
<text text-anchor="start" x="966.5" y="-195.3" font-family="Times,serif" font-size="14.00">0x806ebb0:</text>
<text text-anchor="start" x="966.5" y="-180.3" font-family="Times,serif" font-size="14.00"> g1 = 0</text>
<text text-anchor="start" x="966.5" y="-165.3" font-family="Times,serif" font-size="14.00"> *(a4) = g3</text>
<text text-anchor="start" x="966.5" y="-150.3" font-family="Times,serif" font-size="14.00"> g3 = v3</text>
<text text-anchor="start" x="966.5" y="-135.3" font-family="Times,serif" font-size="14.00"> g7 = v2</text>
<text text-anchor="start" x="966.5" y="-120.3" font-family="Times,serif" font-size="14.00"> g5 = v1</text>
<text text-anchor="start" x="966.5" y="-105.3" font-family="Times,serif" font-size="14.00"> return</text>
</g>
<!-- Node0x245f4160&#45;&gt;Node0x8e44da0 -->
<g id="edge27" class="edge"><title>Node0x245f4160&#45;&gt;Node0x8e44da0</title>
<path fill="none" stroke="black" d="M1009,-262.45C1009,-251.415 1009,-236.268 1009,-220.826"/>
<polygon fill="black" stroke="black" points="1012.5,-220.677 1009,-210.677 1005.5,-220.677 1012.5,-220.677"/>
<text text-anchor="middle" x="1047.5" y="-232.8" font-family="Times,serif" font-size="14.00">v16 == a3</text>
</g>
<!-- Node0x245f6b80 -->
<g id="node26" class="node"><title>Node0x245f6b80</title>
<polygon fill="none" stroke="black" points="82.5,-120 82.5,-188 183.5,-188 183.5,-120 82.5,-120"/>
<text text-anchor="start" x="90.5" y="-172.8" font-family="Times,serif" font-size="14.00">0x806eb60:</text>
<text text-anchor="start" x="90.5" y="-157.8" font-family="Times,serif" font-size="14.00"> v5 = v10</text>
<text text-anchor="start" x="90.5" y="-142.8" font-family="Times,serif" font-size="14.00"> v4 = g3</text>
<text text-anchor="start" x="90.5" y="-127.8" font-family="Times,serif" font-size="14.00"> continue</text>
</g>
<!-- Node0x245f64b0&#45;&gt;Node0x245f6b80 -->
<g id="edge28" class="edge"><title>Node0x245f64b0&#45;&gt;Node0x245f6b80</title>
<path fill="none" stroke="black" d="M403.998,-262.45C349.392,-240.799 254.868,-203.32 193.137,-178.844"/>
<polygon fill="black" stroke="black" points="194.108,-175.464 183.522,-175.032 191.528,-181.971 194.108,-175.464"/>
<text text-anchor="middle" x="390.5" y="-232.8" font-family="Times,serif" font-size="14.00">v10 != a3</text>
</g>
<!-- Node0x245f6640 -->
<g id="node27" class="node"><title>Node0x245f6640</title>
<polygon fill="none" stroke="black" points="585.5,-97.5 585.5,-210.5 686.5,-210.5 686.5,-97.5 585.5,-97.5"/>
<text text-anchor="start" x="593.5" y="-195.3" font-family="Times,serif" font-size="14.00">0x806ebb0:</text>
<text text-anchor="start" x="593.5" y="-180.3" font-family="Times,serif" font-size="14.00"> g1 = 0</text>
<text text-anchor="start" x="593.5" y="-165.3" font-family="Times,serif" font-size="14.00"> *(a4) = g3</text>
<text text-anchor="start" x="593.5" y="-150.3" font-family="Times,serif" font-size="14.00"> g3 = v3</text>
<text text-anchor="start" x="593.5" y="-135.3" font-family="Times,serif" font-size="14.00"> g7 = v2</text>
<text text-anchor="start" x="593.5" y="-120.3" font-family="Times,serif" font-size="14.00"> g5 = v1</text>
<text text-anchor="start" x="593.5" y="-105.3" font-family="Times,serif" font-size="14.00"> return</text>
</g>
<!-- Node0x245f64b0&#45;&gt;Node0x245f6640 -->
<g id="edge29" class="edge"><title>Node0x245f64b0&#45;&gt;Node0x245f6640</title>
<path fill="none" stroke="black" d="M472.883,-262.45C499.445,-244.953 541.699,-217.119 576.546,-194.164"/>
<polygon fill="black" stroke="black" points="578.806,-196.866 585.232,-188.442 574.956,-191.021 578.806,-196.866"/>
<text text-anchor="middle" x="558.5" y="-232.8" font-family="Times,serif" font-size="14.00">v10 == a3</text>
</g>
<!-- Node0x245f6920&#45;&gt;Node0x245f5130 -->
<g id="edge30" class="edge"><title>Node0x245f6920&#45;&gt;Node0x245f5130</title>
<path fill="none" stroke="black" d="M873.152,-188.159C862.221,-212.727 850,-247.376 850,-279.5 850,-716.5 850,-716.5 850,-716.5 850,-778.052 888.062,-842.069 912.323,-876.622"/>
<polygon fill="black" stroke="black" points="909.78,-879.08 918.459,-885.156 915.463,-874.994 909.78,-879.08"/>
</g>
<!-- Node0x8e44da0&#45;&gt;Node0x8e44840 -->
<g id="edge31" class="edge"><title>Node0x8e44da0&#45;&gt;Node0x8e44840</title>
<path fill="none" stroke="black" d="M958.445,-104.75C955.294,-102.076 952.13,-99.4737 949,-97 934.562,-85.5903 917.765,-74.1387 903.148,-64.6982"/>
<polygon fill="black" stroke="black" points="904.682,-61.5251 894.368,-59.0984 900.917,-67.4269 904.682,-61.5251"/>
</g>
<!-- Node0x245f6b80&#45;&gt;Node0x8e44210 -->
<g id="edge32" class="edge"><title>Node0x245f6b80&#45;&gt;Node0x8e44210</title>
<path fill="none" stroke="black" d="M82.339,-177.577C44.7533,-198.161 0,-232.532 0,-279.5 0,-716.5 0,-716.5 0,-716.5 0,-815.108 331.751,-874.257 469.319,-894.545"/>
<polygon fill="black" stroke="black" points="468.873,-898.017 479.273,-895.995 469.882,-891.09 468.873,-898.017"/>
</g>
<!-- Node0x245f6640&#45;&gt;Node0x8e44840 -->
<g id="edge33" class="edge"><title>Node0x245f6640&#45;&gt;Node0x8e44840</title>
<path fill="none" stroke="black" d="M686.694,-128.75C730.158,-107.959 791.725,-78.5081 830.495,-59.9624"/>
<polygon fill="black" stroke="black" points="832.325,-62.967 839.835,-55.4943 829.304,-56.6523 832.325,-62.967"/>
</g>
</g>
</svg>
