<?xml version="1.0" encoding="UTF-8" standalone="no"?>
<!DOCTYPE svg PUBLIC "-//W3C//DTD SVG 1.1//EN"
 "http://www.w3.org/Graphics/SVG/1.1/DTD/svg11.dtd">
<!-- Generated by graphviz version 2.38.0 (20140413.2041)
 -->
<!-- Title: Control&#45;flow graph for function &#39;mbedtls_ecp_point_read_string(a1, a2, a3, a4)&#39;. Pages: 1 -->
<svg width="1000pt" height="975pt"
 viewBox="0.00 0.00 1000.00 975.00" xmlns="http://www.w3.org/2000/svg" xmlns:xlink="http://www.w3.org/1999/xlink">
<g id="graph0" class="graph" transform="scale(1 1) rotate(0) translate(4 971)">
<title>Control&#45;flow graph for function &#39;mbedtls_ecp_point_read_string(a1, a2, a3, a4)&#39;.</title>
<polygon fill="white" stroke="none" points="-4,4 -4,-971 996,-971 996,4 -4,4"/>
<text text-anchor="middle" x="496" y="-7.8" font-family="Times,serif" font-size="14.00">Control&#45;flow graph for function &#39;mbedtls_ecp_point_read_string(a1, a2, a3, a4)&#39;.</text>
<!-- Node0x96aa050 -->
<g id="node1" class="node"><title>Node0x96aa050</title>
<polygon fill="none" stroke="black" points="618,-883.5 618,-966.5 677,-966.5 677,-883.5 618,-883.5"/>
<text text-anchor="start" x="626" y="-951.3" font-family="Times,serif" font-size="14.00">entry:</text>
<text text-anchor="start" x="626" y="-936.3" font-family="Times,serif" font-size="14.00"> a1</text>
<text text-anchor="start" x="626" y="-921.3" font-family="Times,serif" font-size="14.00"> a2</text>
<text text-anchor="start" x="626" y="-906.3" font-family="Times,serif" font-size="14.00"> a3</text>
<text text-anchor="start" x="626" y="-891.3" font-family="Times,serif" font-size="14.00"> a4</text>
</g>
<!-- Node0x96a8cf0 -->
<g id="node2" class="node"><title>Node0x96a8cf0</title>
<polygon fill="none" stroke="black" points="303,-687.5 303,-845.5 992,-845.5 992,-687.5 303,-687.5"/>
<text text-anchor="start" x="311" y="-830.3" font-family="Times,serif" font-size="14.00">v1 = g3</text>
<text text-anchor="start" x="311" y="-815.3" font-family="Times,serif" font-size="14.00"> v2 = g7</text>
<text text-anchor="start" x="311" y="-800.3" font-family="Times,serif" font-size="14.00"> g3 = a1</text>
<text text-anchor="start" x="311" y="-785.3" font-family="Times,serif" font-size="14.00"> g7 = a2</text>
<text text-anchor="start" x="311" y="-770.3" font-family="Times,serif" font-size="14.00"> v3 = g5</text>
<text text-anchor="start" x="311" y="-755.3" font-family="Times,serif" font-size="14.00"> g5 = a4</text>
<text text-anchor="start" x="311" y="-740.3" font-family="Times,serif" font-size="14.00"> v4 = mbedtls_mpi_read_string(IntToPtrCastExpr&lt;ptr&gt;(a1), a2, IntToPtrCastExpr&lt;ptr&gt;(a3))</text>
<text text-anchor="start" x="311" y="-725.3" font-family="Times,serif" font-size="14.00"> g1 = v4</text>
<text text-anchor="start" x="311" y="-710.3" font-family="Times,serif" font-size="14.00"> result2 = v4</text>
<text text-anchor="start" x="311" y="-695.3" font-family="Times,serif" font-size="14.00"> v5</text>
</g>
<!-- Node0x96aa050&#45;&gt;Node0x96a8cf0 -->
<g id="edge1" class="edge"><title>Node0x96aa050&#45;&gt;Node0x96a8cf0</title>
<path fill="none" stroke="black" d="M647.5,-883.29C647.5,-874.686 647.5,-865.289 647.5,-855.689"/>
<polygon fill="black" stroke="black" points="651,-855.635 647.5,-845.635 644,-855.635 651,-855.635"/>
</g>
<!-- Node0x96aa460 -->
<g id="node3" class="node"><title>Node0x96aa460</title>
<polygon fill="none" stroke="black" points="595,-613.5 595,-649.5 700,-649.5 700,-613.5 595,-613.5"/>
<text text-anchor="start" x="603" y="-627.8" font-family="Times,serif" font-size="14.00">if (v4 == 0):</text>
</g>
<!-- Node0x96a8cf0&#45;&gt;Node0x96aa460 -->
<g id="edge2" class="edge"><title>Node0x96a8cf0&#45;&gt;Node0x96aa460</title>
<path fill="none" stroke="black" d="M647.5,-687.364C647.5,-677.457 647.5,-667.905 647.5,-659.625"/>
<polygon fill="black" stroke="black" points="651,-659.552 647.5,-649.552 644,-659.552 651,-659.552"/>
</g>
<!-- Node0x96aad50 -->
<g id="node4" class="node"><title>Node0x96aad50</title>
<polygon fill="none" stroke="black" points="0,-523.5 0,-561.5 737,-561.5 737,-523.5 0,-523.5"/>
<text text-anchor="start" x="8" y="-546.3" font-family="Times,serif" font-size="14.00">v6 = mbedtls_mpi_read_string(IntToPtrCastExpr&lt;ptr&gt;((g3 + 12)), g7, IntToPtrCastExpr&lt;ptr&gt;(g5))</text>
<text text-anchor="start" x="8" y="-531.3" font-family="Times,serif" font-size="14.00"> g1 = v6</text>
</g>
<!-- Node0x96aa460&#45;&gt;Node0x96aad50 -->
<g id="edge3" class="edge"><title>Node0x96aa460&#45;&gt;Node0x96aad50</title>
<path fill="none" stroke="black" d="M594.694,-614.034C549.764,-600.023 484.955,-579.814 436.216,-564.616"/>
<polygon fill="black" stroke="black" points="436.972,-561.185 426.383,-561.55 434.888,-567.868 436.972,-561.185"/>
<text text-anchor="middle" x="563.5" y="-583.8" font-family="Times,serif" font-size="14.00">v4 == 0</text>
</g>
<!-- Node0x96aabd0 -->
<g id="node5" class="node"><title>Node0x96aabd0</title>
<polygon fill="none" stroke="black" points="646.5,-97.5 646.5,-195.5 768.5,-195.5 768.5,-97.5 646.5,-97.5"/>
<text text-anchor="start" x="654.5" y="-180.3" font-family="Times,serif" font-size="14.00">0x805bdef:</text>
<text text-anchor="start" x="654.5" y="-165.3" font-family="Times,serif" font-size="14.00"> g3 = v1</text>
<text text-anchor="start" x="654.5" y="-150.3" font-family="Times,serif" font-size="14.00"> g7 = v2</text>
<text text-anchor="start" x="654.5" y="-135.3" font-family="Times,serif" font-size="14.00"> g5 = v3</text>
<text text-anchor="start" x="654.5" y="-120.3" font-family="Times,serif" font-size="14.00"> g2 = v5</text>
<text text-anchor="start" x="654.5" y="-105.3" font-family="Times,serif" font-size="14.00"> return result2</text>
</g>
<!-- Node0x96aa460&#45;&gt;Node0x96aabd0 -->
<g id="edge4" class="edge"><title>Node0x96aa460&#45;&gt;Node0x96aabd0</title>
<path fill="none" stroke="black" d="M700.288,-614.184C731.706,-600.834 765.5,-578.37 765.5,-543.5 765.5,-543.5 765.5,-543.5 765.5,-378.5 765.5,-318.086 746.607,-251.388 730.387,-205.257"/>
<polygon fill="black" stroke="black" points="733.643,-203.968 726.975,-195.735 727.054,-206.33 733.643,-203.968"/>
<text text-anchor="middle" x="792.5" y="-463.8" font-family="Times,serif" font-size="14.00">v4 != 0</text>
</g>
<!-- Node0x96aadd0 -->
<g id="node6" class="node"><title>Node0x96aadd0</title>
<polygon fill="none" stroke="black" points="416,-449.5 416,-485.5 521,-485.5 521,-449.5 416,-449.5"/>
<text text-anchor="start" x="424" y="-463.8" font-family="Times,serif" font-size="14.00">if (v6 == 0):</text>
</g>
<!-- Node0x96aad50&#45;&gt;Node0x96aadd0 -->
<g id="edge5" class="edge"><title>Node0x96aad50&#45;&gt;Node0x96aadd0</title>
<path fill="none" stroke="black" d="M393.219,-523.455C406.343,-513.875 422.62,-501.993 436.678,-491.73"/>
<polygon fill="black" stroke="black" points="439.083,-494.308 445.096,-485.585 434.955,-488.654 439.083,-494.308"/>
</g>
<!-- Node0x7fb9740 -->
<g id="node7" class="node"><title>Node0x7fb9740</title>
<polygon fill="none" stroke="black" points="563.5,-23.5 563.5,-59.5 617.5,-59.5 617.5,-23.5 563.5,-23.5"/>
<text text-anchor="start" x="571.5" y="-37.8" font-family="Times,serif" font-size="14.00">exit:</text>
</g>
<!-- Node0x96aabd0&#45;&gt;Node0x7fb9740 -->
<g id="edge6" class="edge"><title>Node0x96aabd0&#45;&gt;Node0x7fb9740</title>
<path fill="none" stroke="black" d="M652.768,-97.3173C640.541,-86.553 628.093,-75.5946 617.573,-66.3337"/>
<polygon fill="black" stroke="black" points="619.759,-63.5947 609.94,-59.614 615.133,-68.8488 619.759,-63.5947"/>
</g>
<!-- Node0x96ab1d0 -->
<g id="node8" class="node"><title>Node0x96ab1d0</title>
<polygon fill="none" stroke="black" points="244.5,-214.5 244.5,-342.5 692.5,-342.5 692.5,-214.5 244.5,-214.5"/>
<text text-anchor="start" x="252.5" y="-327.3" font-family="Times,serif" font-size="14.00">0x805be17:</text>
<text text-anchor="start" x="252.5" y="-312.3" font-family="Times,serif" font-size="14.00"> g7 = v2</text>
<text text-anchor="start" x="252.5" y="-297.3" font-family="Times,serif" font-size="14.00"> g5 = v3</text>
<text text-anchor="start" x="252.5" y="-282.3" font-family="Times,serif" font-size="14.00"> g3 = v1</text>
<text text-anchor="start" x="252.5" y="-267.3" font-family="Times,serif" font-size="14.00"> v7</text>
<text text-anchor="start" x="252.5" y="-252.3" font-family="Times,serif" font-size="14.00"> result = mbedtls_mpi_lset(IntToPtrCastExpr&lt;ptr&gt;(v5), v7)</text>
<text text-anchor="start" x="252.5" y="-237.3" font-family="Times,serif" font-size="14.00"> g1 = result</text>
<text text-anchor="start" x="252.5" y="-222.3" font-family="Times,serif" font-size="14.00"> return result</text>
</g>
<!-- Node0x96aadd0&#45;&gt;Node0x96ab1d0 -->
<g id="edge7" class="edge"><title>Node0x96aadd0&#45;&gt;Node0x96ab1d0</title>
<path fill="none" stroke="black" d="M468.5,-449.243C468.5,-427.353 468.5,-388.211 468.5,-353.028"/>
<polygon fill="black" stroke="black" points="472,-352.744 468.5,-342.744 465,-352.745 472,-352.744"/>
<text text-anchor="middle" x="498.5" y="-419.8" font-family="Times,serif" font-size="14.00">v6 == 0</text>
</g>
<!-- Node0x96ab170 -->
<g id="node9" class="node"><title>Node0x96ab170</title>
<polygon fill="none" stroke="black" points="581.5,-361.5 581.5,-397.5 687.5,-397.5 687.5,-361.5 581.5,-361.5"/>
<text text-anchor="start" x="589.5" y="-375.8" font-family="Times,serif" font-size="14.00">result2 = v6</text>
</g>
<!-- Node0x96aadd0&#45;&gt;Node0x96ab170 -->
<g id="edge8" class="edge"><title>Node0x96aadd0&#45;&gt;Node0x96ab170</title>
<path fill="none" stroke="black" d="M501.694,-449.303C527.79,-435.783 564.312,-416.863 592.452,-402.284"/>
<polygon fill="black" stroke="black" points="594.378,-405.228 601.647,-397.52 591.158,-399.013 594.378,-405.228"/>
<text text-anchor="middle" x="588.5" y="-419.8" font-family="Times,serif" font-size="14.00">v6 != 0</text>
</g>
<!-- Node0x96ab1d0&#45;&gt;Node0x7fb9740 -->
<g id="edge9" class="edge"><title>Node0x96ab1d0&#45;&gt;Node0x7fb9740</title>
<path fill="none" stroke="black" d="M501.354,-214.215C526.126,-166.499 558.83,-103.504 576.948,-68.6049"/>
<polygon fill="black" stroke="black" points="580.151,-70.0304 581.652,-59.5425 573.938,-66.8051 580.151,-70.0304"/>
</g>
<!-- Node0x96ab170&#45;&gt;Node0x96aabd0 -->
<g id="edge10" class="edge"><title>Node0x96ab170&#45;&gt;Node0x96aabd0</title>
<path fill="none" stroke="black" d="M674.847,-361.417C682.178,-356.521 688.936,-350.438 693.5,-343 718.517,-302.224 720.279,-247.275 716.784,-206.016"/>
<polygon fill="black" stroke="black" points="720.245,-205.452 715.792,-195.838 713.278,-206.13 720.245,-205.452"/>
</g>
</g>
</svg>
