<?xml version="1.0" encoding="UTF-8" standalone="no"?>
<!DOCTYPE svg PUBLIC "-//W3C//DTD SVG 1.1//EN"
 "http://www.w3.org/Graphics/SVG/1.1/DTD/svg11.dtd">
<!-- Generated by graphviz version 2.38.0 (20140413.2041)
 -->
<!-- Title: Control&#45;flow graph for function &#39;decrypt_file(path3, path4)&#39;. Pages: 1 -->
<svg width="1927pt" height="2878pt"
 viewBox="0.00 0.00 1926.50 2878.00" xmlns="http://www.w3.org/2000/svg" xmlns:xlink="http://www.w3.org/1999/xlink">
<g id="graph0" class="graph" transform="scale(1 1) rotate(0) translate(4 2874)">
<title>Control&#45;flow graph for function &#39;decrypt_file(path3, path4)&#39;.</title>
<polygon fill="white" stroke="none" points="-4,4 -4,-2874 1922.5,-2874 1922.5,4 -4,4"/>
<text text-anchor="middle" x="959.25" y="-7.8" font-family="Times,serif" font-size="14.00">Control&#45;flow graph for function &#39;decrypt_file(path3, path4)&#39;.</text>
<!-- Node0xe939220 -->
<g id="node1" class="node"><title>Node0xe939220</title>
<polygon fill="none" stroke="black" points="304.5,-2816.5 304.5,-2869.5 366.5,-2869.5 366.5,-2816.5 304.5,-2816.5"/>
<text text-anchor="start" x="312.5" y="-2854.3" font-family="Times,serif" font-size="14.00">entry:</text>
<text text-anchor="start" x="312.5" y="-2839.3" font-family="Times,serif" font-size="14.00"> path3</text>
<text text-anchor="start" x="312.5" y="-2824.3" font-family="Times,serif" font-size="14.00"> path4</text>
</g>
<!-- Node0xef9ff50 -->
<g id="node2" class="node"><title>Node0xef9ff50</title>
<polygon fill="none" stroke="black" points="136.5,-2605.5 136.5,-2778.5 534.5,-2778.5 534.5,-2605.5 136.5,-2605.5"/>
<text text-anchor="start" x="144.5" y="-2763.3" font-family="Times,serif" font-size="14.00">v1 = g7</text>
<text text-anchor="start" x="144.5" y="-2748.3" font-family="Times,serif" font-size="14.00"> v2 = g3</text>
<text text-anchor="start" x="144.5" y="-2733.3" font-family="Times,serif" font-size="14.00"> path2 = IntToPtrCastExpr&lt;ptr&gt;(path4)</text>
<text text-anchor="start" x="144.5" y="-2718.3" font-family="Times,serif" font-size="14.00"> printf(&quot;Decrypting file: %s\n&quot;, path2)</text>
<text text-anchor="start" x="144.5" y="-2703.3" font-family="Times,serif" font-size="14.00"> path = IntToPtrCastExpr&lt;ptr&gt;(path3)</text>
<text text-anchor="start" x="144.5" y="-2688.3" font-family="Times,serif" font-size="14.00"> g3 = PtrToIntCastExpr&lt;int32&gt;(fopen64(path, &quot;rb&quot;))</text>
<text text-anchor="start" x="144.5" y="-2673.3" font-family="Times,serif" font-size="14.00"> v3 = fopen64(path2, &quot;wb&quot;)</text>
<text text-anchor="start" x="144.5" y="-2658.3" font-family="Times,serif" font-size="14.00"> file2 = PtrToIntCastExpr&lt;int32&gt;(v3)</text>
<text text-anchor="start" x="144.5" y="-2643.3" font-family="Times,serif" font-size="14.00"> g7 = file2</text>
<text text-anchor="start" x="144.5" y="-2628.3" font-family="Times,serif" font-size="14.00"> file = g3</text>
<text text-anchor="start" x="144.5" y="-2613.3" font-family="Times,serif" font-size="14.00"> result</text>
</g>
<!-- Node0xe939220&#45;&gt;Node0xef9ff50 -->
<g id="edge1" class="edge"><title>Node0xe939220&#45;&gt;Node0xef9ff50</title>
<path fill="none" stroke="black" d="M335.5,-2816.39C335.5,-2808.34 335.5,-2798.92 335.5,-2788.95"/>
<polygon fill="black" stroke="black" points="339,-2788.82 335.5,-2778.82 332,-2788.82 339,-2788.82"/>
</g>
<!-- Node0x17c88c50 -->
<g id="node3" class="node"><title>Node0x17c88c50</title>
<polygon fill="none" stroke="black" points="265.5,-2531.5 265.5,-2567.5 405.5,-2567.5 405.5,-2531.5 265.5,-2531.5"/>
<text text-anchor="start" x="273.5" y="-2545.8" font-family="Times,serif" font-size="14.00">if (v3 == NULL):</text>
</g>
<!-- Node0xef9ff50&#45;&gt;Node0x17c88c50 -->
<g id="edge2" class="edge"><title>Node0xef9ff50&#45;&gt;Node0x17c88c50</title>
<path fill="none" stroke="black" d="M335.5,-2605.22C335.5,-2595.48 335.5,-2586.16 335.5,-2578.06"/>
<polygon fill="black" stroke="black" points="339,-2577.84 335.5,-2567.84 332,-2577.84 339,-2577.84"/>
</g>
<!-- Node0x2501fc90 -->
<g id="node4" class="node"><title>Node0x2501fc90</title>
<polygon fill="none" stroke="black" points="233.5,-232.5 233.5,-270.5 347.5,-270.5 347.5,-232.5 233.5,-232.5"/>
<text text-anchor="start" x="241.5" y="-255.3" font-family="Times,serif" font-size="14.00">0x80485e3:</text>
<text text-anchor="start" x="241.5" y="-240.3" font-family="Times,serif" font-size="14.00"> if (file == 0):</text>
</g>
<!-- Node0x17c88c50&#45;&gt;Node0x2501fc90 -->
<g id="edge3" class="edge"><title>Node0x17c88c50&#45;&gt;Node0x2501fc90</title>
<path fill="none" stroke="black" d="M321.182,-2531.4C308.673,-2514.68 292.5,-2487.95 292.5,-2461.5 292.5,-2461.5 292.5,-2461.5 292.5,-334 292.5,-316.29 292.022,-296.423 291.534,-280.737"/>
<polygon fill="black" stroke="black" points="295.028,-280.503 291.2,-270.624 288.032,-280.734 295.028,-280.503"/>
<text text-anchor="middle" x="339.5" y="-1201.8" font-family="Times,serif" font-size="14.00">v3 == NULL</text>
</g>
<!-- Node0x2501f210 -->
<g id="node5" class="node"><title>Node0x2501f210</title>
<polygon fill="none" stroke="black" points="407.5,-2441.5 407.5,-2479.5 521.5,-2479.5 521.5,-2441.5 407.5,-2441.5"/>
<text text-anchor="start" x="415.5" y="-2464.3" font-family="Times,serif" font-size="14.00">0x80485dd:</text>
<text text-anchor="start" x="415.5" y="-2449.3" font-family="Times,serif" font-size="14.00"> if (file == 0):</text>
</g>
<!-- Node0x17c88c50&#45;&gt;Node0x2501f210 -->
<g id="edge4" class="edge"><title>Node0x17c88c50&#45;&gt;Node0x2501f210</title>
<path fill="none" stroke="black" d="M360.986,-2531.31C380.476,-2518.17 407.578,-2499.89 429.162,-2485.33"/>
<polygon fill="black" stroke="black" points="431.401,-2488.04 437.734,-2479.55 427.487,-2482.24 431.401,-2488.04"/>
<text text-anchor="middle" x="452.5" y="-2501.8" font-family="Times,serif" font-size="14.00">v3 != NULL</text>
</g>
<!-- Node0x6ee9cd0 -->
<g id="node6" class="node"><title>Node0x6ee9cd0</title>
<polygon fill="none" stroke="black" points="0,-105 0,-173 101,-173 101,-105 0,-105"/>
<text text-anchor="start" x="8" y="-157.8" font-family="Times,serif" font-size="14.00">0x804882b:</text>
<text text-anchor="start" x="8" y="-142.8" font-family="Times,serif" font-size="14.00"> g3 = v2</text>
<text text-anchor="start" x="8" y="-127.8" font-family="Times,serif" font-size="14.00"> g7 = v1</text>
<text text-anchor="start" x="8" y="-112.8" font-family="Times,serif" font-size="14.00"> return 0</text>
</g>
<!-- Node0x2501fc90&#45;&gt;Node0x6ee9cd0 -->
<g id="edge5" class="edge"><title>Node0x2501fc90&#45;&gt;Node0x6ee9cd0</title>
<path fill="none" stroke="black" d="M233.895,-232.422C197.688,-219.949 150.233,-201.886 110.5,-181 108.783,-180.097 107.056,-179.155 105.326,-178.182"/>
<polygon fill="black" stroke="black" points="107.079,-175.153 96.6874,-173.089 103.524,-181.183 107.079,-175.153"/>
<text text-anchor="middle" x="215.5" y="-202.8" font-family="Times,serif" font-size="14.00">file == 0</text>
</g>
<!-- Node0x2501fea0 -->
<g id="node7" class="node"><title>Node0x2501fea0</title>
<polygon fill="none" stroke="black" points="119.5,-97.5 119.5,-180.5 461.5,-180.5 461.5,-97.5 119.5,-97.5"/>
<text text-anchor="start" x="127.5" y="-165.3" font-family="Times,serif" font-size="14.00">0x80485f5:</text>
<text text-anchor="start" x="127.5" y="-150.3" font-family="Times,serif" font-size="14.00"> result = fclose(IntToPtrCastExpr&lt;ptr&gt;(file))</text>
<text text-anchor="start" x="127.5" y="-135.3" font-family="Times,serif" font-size="14.00"> g3 = v2</text>
<text text-anchor="start" x="127.5" y="-120.3" font-family="Times,serif" font-size="14.00"> g7 = v1</text>
<text text-anchor="start" x="127.5" y="-105.3" font-family="Times,serif" font-size="14.00"> return result</text>
</g>
<!-- Node0x2501fc90&#45;&gt;Node0x2501fea0 -->
<g id="edge6" class="edge"><title>Node0x2501fc90&#45;&gt;Node0x2501fea0</title>
<path fill="none" stroke="black" d="M290.5,-232.253C290.5,-220.898 290.5,-205.682 290.5,-190.887"/>
<polygon fill="black" stroke="black" points="294,-190.764 290.5,-180.764 287,-190.764 294,-190.764"/>
<text text-anchor="middle" x="319.5" y="-202.8" font-family="Times,serif" font-size="14.00">file != 0</text>
</g>
<!-- Node0x25020020 -->
<g id="node8" class="node"><title>Node0x25020020</title>
<polygon fill="none" stroke="black" points="312,-2099.5 312,-2182.5 663,-2182.5 663,-2099.5 312,-2099.5"/>
<text text-anchor="start" x="320" y="-2167.3" font-family="Times,serif" font-size="14.00">0x80485f5:</text>
<text text-anchor="start" x="320" y="-2152.3" font-family="Times,serif" font-size="14.00"> result = fclose(IntToPtrCastExpr&lt;ptr&gt;(file2))</text>
<text text-anchor="start" x="320" y="-2137.3" font-family="Times,serif" font-size="14.00"> g3 = v2</text>
<text text-anchor="start" x="320" y="-2122.3" font-family="Times,serif" font-size="14.00"> g7 = v1</text>
<text text-anchor="start" x="320" y="-2107.3" font-family="Times,serif" font-size="14.00"> return result</text>
</g>
<!-- Node0x2501f210&#45;&gt;Node0x25020020 -->
<g id="edge7" class="edge"><title>Node0x2501f210&#45;&gt;Node0x25020020</title>
<path fill="none" stroke="black" d="M465.836,-2441.06C469.286,-2393.44 478.586,-2265.06 483.81,-2192.94"/>
<polygon fill="black" stroke="black" points="487.318,-2192.95 484.55,-2182.73 480.336,-2192.45 487.318,-2192.95"/>
<text text-anchor="middle" x="500.5" y="-2411.8" font-family="Times,serif" font-size="14.00">file == 0</text>
</g>
<!-- Node0x2501f400 -->
<g id="node9" class="node"><title>Node0x2501f400</title>
<polygon fill="none" stroke="black" points="492.5,-2201.5 492.5,-2389.5 1088.5,-2389.5 1088.5,-2201.5 492.5,-2201.5"/>
<text text-anchor="start" x="500.5" y="-2374.3" font-family="Times,serif" font-size="14.00">0x80485ff:</text>
<text text-anchor="start" x="500.5" y="-2359.3" font-family="Times,serif" font-size="14.00"> buf</text>
<text text-anchor="start" x="500.5" y="-2344.3" font-family="Times,serif" font-size="14.00"> stat(path, BitCastExpr&lt;ptr&gt;(&amp;(buf)))</text>
<text text-anchor="start" x="500.5" y="-2329.3" font-family="Times,serif" font-size="14.00"> mode</text>
<text text-anchor="start" x="500.5" y="-2314.3" font-family="Times,serif" font-size="14.00"> fread_unlocked(BitCastExpr&lt;ptr&gt;(&amp;(mode)), 1, 4, IntToPtrCastExpr&lt;ptr&gt;(g3))</text>
<text text-anchor="start" x="500.5" y="-2299.3" font-family="Times,serif" font-size="14.00"> v4 = IntToPtrCastExpr&lt;ptr&gt;(g3)</text>
<text text-anchor="start" x="500.5" y="-2284.3" font-family="Times,serif" font-size="14.00"> v5</text>
<text text-anchor="start" x="500.5" y="-2269.3" font-family="Times,serif" font-size="14.00"> fread_unlocked(BitCastExpr&lt;ptr&gt;(&amp;(v5)), 1, 4, v4)</text>
<text text-anchor="start" x="500.5" y="-2254.3" font-family="Times,serif" font-size="14.00"> mem = malloc(2048)</text>
<text text-anchor="start" x="500.5" y="-2239.3" font-family="Times,serif" font-size="14.00"> v6 = PtrToIntCastExpr&lt;int32&gt;(mem)</text>
<text text-anchor="start" x="500.5" y="-2224.3" font-family="Times,serif" font-size="14.00"> memset(mem, 0, 512)</text>
<text text-anchor="start" x="500.5" y="-2209.3" font-family="Times,serif" font-size="14.00"> v7</text>
</g>
<!-- Node0x2501f210&#45;&gt;Node0x2501f400 -->
<g id="edge8" class="edge"><title>Node0x2501f210&#45;&gt;Node0x2501f400</title>
<path fill="none" stroke="black" d="M500.633,-2441.43C524.856,-2429.32 558.862,-2412.32 595.093,-2394.2"/>
<polygon fill="black" stroke="black" points="596.969,-2397.18 604.348,-2389.58 593.838,-2390.92 596.969,-2397.18"/>
<text text-anchor="middle" x="590.5" y="-2411.8" font-family="Times,serif" font-size="14.00">file != 0</text>
</g>
<!-- Node0xc7fdec0 -->
<g id="node10" class="node"><title>Node0xc7fdec0</title>
<polygon fill="none" stroke="black" points="538.5,-23.5 538.5,-59.5 592.5,-59.5 592.5,-23.5 538.5,-23.5"/>
<text text-anchor="start" x="546.5" y="-37.8" font-family="Times,serif" font-size="14.00">exit:</text>
</g>
<!-- Node0x6ee9cd0&#45;&gt;Node0xc7fdec0 -->
<g id="edge9" class="edge"><title>Node0x6ee9cd0&#45;&gt;Node0xc7fdec0</title>
<path fill="none" stroke="black" d="M94.0759,-104.808C99.4139,-101.787 104.949,-99.0852 110.5,-97 186.964,-68.2771 433.492,-50.5683 528.076,-44.6839"/>
<polygon fill="black" stroke="black" points="528.549,-48.1616 538.316,-44.0563 528.121,-41.1747 528.549,-48.1616"/>
</g>
<!-- Node0x2501fea0&#45;&gt;Node0xc7fdec0 -->
<g id="edge10" class="edge"><title>Node0x2501fea0&#45;&gt;Node0xc7fdec0</title>
<path fill="none" stroke="black" d="M407.125,-97.4994C450.848,-82.3156 497.454,-66.1306 528.7,-55.2795"/>
<polygon fill="black" stroke="black" points="529.984,-58.5387 538.283,-51.9518 527.688,-51.9261 529.984,-58.5387"/>
</g>
<!-- Node0x25020020&#45;&gt;Node0xc7fdec0 -->
<g id="edge11" class="edge"><title>Node0x25020020&#45;&gt;Node0xc7fdec0</title>
<path fill="none" stroke="black" d="M488.494,-2099.45C488.996,-2075.59 489.5,-2044.83 489.5,-2017.5 489.5,-2017.5 489.5,-2017.5 489.5,-138 489.5,-108.818 511.495,-83.3959 531.82,-66.1333"/>
<polygon fill="black" stroke="black" points="534.197,-68.7115 539.77,-59.7004 529.794,-63.2697 534.197,-68.7115"/>
</g>
<!-- Node0x2501f460 -->
<g id="node11" class="node"><title>Node0x2501f460</title>
<polygon fill="none" stroke="black" points="543,-2042.5 543,-2080.5 1038,-2080.5 1038,-2042.5 543,-2042.5"/>
<text text-anchor="start" x="551" y="-2065.3" font-family="Times,serif" font-size="14.00">if (fread_unlocked(mem, 1, v5, IntToPtrCastExpr&lt;ptr&gt;(g3)) &lt; v5):</text>
<text text-anchor="start" x="551" y="-2050.3" font-family="Times,serif" font-size="14.00"> else:</text>
</g>
<!-- Node0x2501f400&#45;&gt;Node0x2501f460 -->
<g id="edge12" class="edge"><title>Node0x2501f400&#45;&gt;Node0x2501f460</title>
<path fill="none" stroke="black" d="M790.5,-2201.47C790.5,-2161.85 790.5,-2118.51 790.5,-2090.94"/>
<polygon fill="black" stroke="black" points="794,-2090.84 790.5,-2080.84 787,-2090.84 794,-2090.84"/>
</g>
<!-- Node0x25020240 -->
<g id="node12" class="node"><title>Node0x25020240</title>
<polygon fill="none" stroke="black" points="504.5,-1820.5 504.5,-1903.5 818.5,-1903.5 818.5,-1820.5 504.5,-1820.5"/>
<text text-anchor="start" x="512.5" y="-1888.3" font-family="Times,serif" font-size="14.00">0x804867a:</text>
<text text-anchor="start" x="512.5" y="-1873.3" font-family="Times,serif" font-size="14.00"> fclose(IntToPtrCastExpr&lt;ptr&gt;(g3))</text>
<text text-anchor="start" x="512.5" y="-1858.3" font-family="Times,serif" font-size="14.00"> v7 = fclose(IntToPtrCastExpr&lt;ptr&gt;(g7))</text>
<text text-anchor="start" x="512.5" y="-1843.3" font-family="Times,serif" font-size="14.00"> free(IntToPtrCastExpr&lt;ptr&gt;(v6))</text>
<text text-anchor="start" x="512.5" y="-1828.3" font-family="Times,serif" font-size="14.00"> result = v7</text>
</g>
<!-- Node0x2501f460&#45;&gt;Node0x25020240 -->
<g id="edge13" class="edge"><title>Node0x2501f460&#45;&gt;Node0x25020240</title>
<path fill="none" stroke="black" d="M694.609,-2042.4C677.828,-2037.33 663.972,-2031.19 658.5,-2024 634.924,-1993.02 637.885,-1948.11 645.488,-1913.58"/>
<polygon fill="black" stroke="black" points="648.933,-1914.23 647.854,-1903.69 642.125,-1912.6 648.933,-1914.23"/>
<text text-anchor="middle" x="883.5" y="-2012.8" font-family="Times,serif" font-size="14.00">fread_unlocked(mem, 1, v5, IntToPtrCastExpr&lt;ptr&gt;(g3)) &lt; v5</text>
</g>
<!-- Node0x25020410 -->
<g id="node13" class="node"><title>Node0x25020410</title>
<polygon fill="none" stroke="black" points="983,-1922.5 983,-1990.5 1286,-1990.5 1286,-1922.5 983,-1922.5"/>
<text text-anchor="start" x="991" y="-1975.3" font-family="Times,serif" font-size="14.00">mem2 = malloc(1024)</text>
<text text-anchor="start" x="991" y="-1960.3" font-family="Times,serif" font-size="14.00"> v8 = PtrToIntCastExpr&lt;int32&gt;(mem2)</text>
<text text-anchor="start" x="991" y="-1945.3" font-family="Times,serif" font-size="14.00"> g5 = v8</text>
<text text-anchor="start" x="991" y="-1930.3" font-family="Times,serif" font-size="14.00"> memset(mem2, 0, 256)</text>
</g>
<!-- Node0x2501f460&#45;&gt;Node0x25020410 -->
<g id="edge14" class="edge"><title>Node0x2501f460&#45;&gt;Node0x25020410</title>
<path fill="none" stroke="black" d="M1038.22,-2048.92C1071.2,-2043.37 1098.47,-2035.39 1112.5,-2024 1119.92,-2017.98 1124.85,-2009.38 1128.13,-2000.37"/>
<polygon fill="black" stroke="black" points="1131.57,-2001.11 1131.08,-1990.52 1124.86,-1999.1 1131.57,-2001.11"/>
<text text-anchor="middle" x="1354.5" y="-2012.8" font-family="Times,serif" font-size="14.00">fread_unlocked(mem, 1, v5, IntToPtrCastExpr&lt;ptr&gt;(g3)) &gt;= v5</text>
</g>
<!-- Node0x2501fac0 -->
<g id="node14" class="node"><title>Node0x2501fac0</title>
<polygon fill="none" stroke="black" points="553,-1524.5 553,-1592.5 666,-1592.5 666,-1524.5 553,-1524.5"/>
<text text-anchor="start" x="561" y="-1577.3" font-family="Times,serif" font-size="14.00">0x804882b:</text>
<text text-anchor="start" x="561" y="-1562.3" font-family="Times,serif" font-size="14.00"> g3 = v2</text>
<text text-anchor="start" x="561" y="-1547.3" font-family="Times,serif" font-size="14.00"> g7 = v1</text>
<text text-anchor="start" x="561" y="-1532.3" font-family="Times,serif" font-size="14.00"> return result</text>
</g>
<!-- Node0x25020240&#45;&gt;Node0x2501fac0 -->
<g id="edge15" class="edge"><title>Node0x25020240&#45;&gt;Node0x2501fac0</title>
<path fill="none" stroke="black" d="M650.821,-1820.38C643.413,-1791 633.786,-1750.26 627.5,-1714 621.015,-1676.59 616.224,-1633.67 613.222,-1602.57"/>
<polygon fill="black" stroke="black" points="616.696,-1602.13 612.273,-1592.5 609.727,-1602.79 616.696,-1602.13"/>
</g>
<!-- Node0x2501f6e0 -->
<g id="node15" class="node"><title>Node0x2501f6e0</title>
<polygon fill="none" stroke="black" points="881.5,-1765.5 881.5,-1801.5 1387.5,-1801.5 1387.5,-1765.5 881.5,-1765.5"/>
<text text-anchor="start" x="889.5" y="-1779.8" font-family="Times,serif" font-size="14.00">if (private_decrypt(v6, v5, v8, PtrToIntCastExpr&lt;int32&gt;(v4)) != &#45;1):</text>
</g>
<!-- Node0x25020410&#45;&gt;Node0x2501f6e0 -->
<g id="edge16" class="edge"><title>Node0x25020410&#45;&gt;Node0x2501f6e0</title>
<path fill="none" stroke="black" d="M1134.5,-1922.12C1134.5,-1889.92 1134.5,-1841.77 1134.5,-1811.79"/>
<polygon fill="black" stroke="black" points="1138,-1811.63 1134.5,-1801.63 1131,-1811.63 1138,-1811.63"/>
</g>
<!-- Node0x2501fac0&#45;&gt;Node0xc7fdec0 -->
<g id="edge17" class="edge"><title>Node0x2501fac0&#45;&gt;Node0xc7fdec0</title>
<path fill="none" stroke="black" d="M576.62,-1524.26C553.807,-1497.59 527.5,-1457.95 527.5,-1417 527.5,-1417 527.5,-1417 527.5,-138 527.5,-113.118 538.774,-87.008 549.041,-68.3902"/>
<polygon fill="black" stroke="black" points="552.126,-70.0469 554.099,-59.6374 546.065,-66.5445 552.126,-70.0469"/>
</g>
<!-- Node0x2501fb20 -->
<g id="node16" class="node"><title>Node0x2501fb20</title>
<polygon fill="none" stroke="black" points="1241,-1630.5 1241,-1713.5 1378,-1713.5 1378,-1630.5 1241,-1630.5"/>
<text text-anchor="start" x="1249" y="-1698.3" font-family="Times,serif" font-size="14.00">0x80486ec:</text>
<text text-anchor="start" x="1249" y="-1683.3" font-family="Times,serif" font-size="14.00"> v9</text>
<text text-anchor="start" x="1249" y="-1668.3" font-family="Times,serif" font-size="14.00"> v10 = (v9 &#45; v5)</text>
<text text-anchor="start" x="1249" y="-1653.3" font-family="Times,serif" font-size="14.00"> v11 = (v10 &#45; 24)</text>
<text text-anchor="start" x="1249" y="-1638.3" font-family="Times,serif" font-size="14.00"> v12</text>
</g>
<!-- Node0x2501f6e0&#45;&gt;Node0x2501fb20 -->
<g id="edge18" class="edge"><title>Node0x2501f6e0&#45;&gt;Node0x2501fb20</title>
<path fill="none" stroke="black" d="M1242.31,-1765.45C1262.53,-1760.43 1279.75,-1754.29 1287.5,-1747 1294.31,-1740.59 1299.04,-1732.18 1302.32,-1723.34"/>
<polygon fill="black" stroke="black" points="1305.71,-1724.23 1305.34,-1713.64 1299.03,-1722.15 1305.71,-1724.23"/>
<text text-anchor="middle" x="1528" y="-1735.8" font-family="Times,serif" font-size="14.00">private_decrypt(v6, v5, v8, PtrToIntCastExpr&lt;int32&gt;(v4)) != &#45;1</text>
</g>
<!-- Node0x25020b30 -->
<g id="node17" class="node"><title>Node0x25020b30</title>
<polygon fill="none" stroke="black" points="637,-1638 637,-1706 1002,-1706 1002,-1638 637,-1638"/>
<text text-anchor="start" x="645" y="-1690.8" font-family="Times,serif" font-size="14.00">0x80486d2:</text>
<text text-anchor="start" x="645" y="-1675.8" font-family="Times,serif" font-size="14.00"> fclose(IntToPtrCastExpr&lt;ptr&gt;(g3))</text>
<text text-anchor="start" x="645" y="-1660.8" font-family="Times,serif" font-size="14.00"> fclose(IntToPtrCastExpr&lt;ptr&gt;(g7))</text>
<text text-anchor="start" x="645" y="-1645.8" font-family="Times,serif" font-size="14.00"> result = unlink(IntToPtrCastExpr&lt;ptr&gt;(path4))</text>
</g>
<!-- Node0x2501f6e0&#45;&gt;Node0x25020b30 -->
<g id="edge19" class="edge"><title>Node0x2501f6e0&#45;&gt;Node0x25020b30</title>
<path fill="none" stroke="black" d="M888.916,-1765.5C851.629,-1760.61 823.213,-1754.5 816.5,-1747 809.083,-1738.71 807.022,-1727.57 807.544,-1716.46"/>
<polygon fill="black" stroke="black" points="811.042,-1716.66 808.67,-1706.34 804.085,-1715.89 811.042,-1716.66"/>
<text text-anchor="middle" x="1050" y="-1735.8" font-family="Times,serif" font-size="14.00">private_decrypt(v6, v5, v8, PtrToIntCastExpr&lt;int32&gt;(v4)) == &#45;1</text>
</g>
<!-- Node0x250210b0 -->
<g id="node18" class="node"><title>Node0x250210b0</title>
<polygon fill="none" stroke="black" points="981.5,-1539.5 981.5,-1577.5 1637.5,-1577.5 1637.5,-1539.5 981.5,-1539.5"/>
<text text-anchor="start" x="989.5" y="-1562.3" font-family="Times,serif" font-size="14.00">if (fread_unlocked(BitCastExpr&lt;ptr&gt;(&amp;(v12)), 1, 16, IntToPtrCastExpr&lt;ptr&gt;(g3)) &gt; 15):</text>
<text text-anchor="start" x="989.5" y="-1547.3" font-family="Times,serif" font-size="14.00"> else:</text>
</g>
<!-- Node0x2501fb20&#45;&gt;Node0x250210b0 -->
<g id="edge20" class="edge"><title>Node0x2501fb20&#45;&gt;Node0x250210b0</title>
<path fill="none" stroke="black" d="M1309.5,-1630.43C1309.5,-1616.32 1309.5,-1600.81 1309.5,-1587.9"/>
<polygon fill="black" stroke="black" points="1313,-1587.76 1309.5,-1577.76 1306,-1587.76 1313,-1587.76"/>
</g>
<!-- Node0x25020b30&#45;&gt;Node0x2501fac0 -->
<g id="edge21" class="edge"><title>Node0x25020b30&#45;&gt;Node0x2501fac0</title>
<path fill="none" stroke="black" d="M757.345,-1638C731.488,-1624.27 701.447,-1608.32 675.224,-1594.4"/>
<polygon fill="black" stroke="black" points="676.595,-1591.16 666.121,-1589.56 673.312,-1597.34 676.595,-1591.16"/>
</g>
<!-- Node0x25021c20 -->
<g id="node19" class="node"><title>Node0x25021c20</title>
<polygon fill="none" stroke="black" points="1179,-1359.5 1179,-1472.5 1316,-1472.5 1316,-1359.5 1179,-1359.5"/>
<text text-anchor="start" x="1187" y="-1457.3" font-family="Times,serif" font-size="14.00">0x8048757:</text>
<text text-anchor="start" x="1187" y="-1442.3" font-family="Times,serif" font-size="14.00"> v13</text>
<text text-anchor="start" x="1187" y="-1427.3" font-family="Times,serif" font-size="14.00"> g5 = (v13 % 16)</text>
<text text-anchor="start" x="1187" y="-1412.3" font-family="Times,serif" font-size="14.00"> v14</text>
<text text-anchor="start" x="1187" y="-1397.3" font-family="Times,serif" font-size="14.00"> v15 = &amp;(v14)</text>
<text text-anchor="start" x="1187" y="-1382.3" font-family="Times,serif" font-size="14.00"> data</text>
<text text-anchor="start" x="1187" y="-1367.3" font-family="Times,serif" font-size="14.00"> v16 = &amp;(data)</text>
</g>
<!-- Node0x250210b0&#45;&gt;Node0x25021c20 -->
<g id="edge22" class="edge"><title>Node0x250210b0&#45;&gt;Node0x25021c20</title>
<path fill="none" stroke="black" d="M1311.26,-1539.39C1311.93,-1525.67 1311.4,-1506.57 1305.5,-1491 1304.31,-1487.87 1302.95,-1484.77 1301.43,-1481.71"/>
<polygon fill="black" stroke="black" points="1304.36,-1479.77 1296.49,-1472.67 1298.22,-1483.13 1304.36,-1479.77"/>
<text text-anchor="middle" x="1613.5" y="-1494.8" font-family="Times,serif" font-size="14.00">fread_unlocked(BitCastExpr&lt;ptr&gt;(&amp;(v12)), 1, 16, IntToPtrCastExpr&lt;ptr&gt;(g3)) &gt; 15</text>
</g>
<!-- Node0xbba4f30 -->
<g id="node20" class="node"><title>Node0xbba4f30</title>
<polygon fill="none" stroke="black" points="542.5,-1242.5 542.5,-1340.5 856.5,-1340.5 856.5,-1242.5 542.5,-1242.5"/>
<text text-anchor="start" x="550.5" y="-1325.3" font-family="Times,serif" font-size="14.00">0x8048729:</text>
<text text-anchor="start" x="550.5" y="-1310.3" font-family="Times,serif" font-size="14.00"> fclose(IntToPtrCastExpr&lt;ptr&gt;(g3))</text>
<text text-anchor="start" x="550.5" y="-1295.3" font-family="Times,serif" font-size="14.00"> v7 = fclose(IntToPtrCastExpr&lt;ptr&gt;(g7))</text>
<text text-anchor="start" x="550.5" y="-1280.3" font-family="Times,serif" font-size="14.00"> free(mem)</text>
<text text-anchor="start" x="550.5" y="-1265.3" font-family="Times,serif" font-size="14.00"> free(IntToPtrCastExpr&lt;ptr&gt;(v8))</text>
<text text-anchor="start" x="550.5" y="-1250.3" font-family="Times,serif" font-size="14.00"> result = v7</text>
</g>
<!-- Node0x250210b0&#45;&gt;Node0xbba4f30 -->
<g id="edge23" class="edge"><title>Node0x250210b0&#45;&gt;Node0xbba4f30</title>
<path fill="none" stroke="black" d="M981.23,-1549.71C839.89,-1542.88 701.671,-1530.06 679.5,-1506 641.499,-1464.77 655.139,-1398.14 672.807,-1350.28"/>
<polygon fill="black" stroke="black" points="676.18,-1351.26 676.501,-1340.67 669.646,-1348.75 676.18,-1351.26"/>
<text text-anchor="middle" x="990.5" y="-1494.8" font-family="Times,serif" font-size="14.00">fread_unlocked(BitCastExpr&lt;ptr&gt;(&amp;(v12)), 1, 16, IntToPtrCastExpr&lt;ptr&gt;(g3)) &lt;= 15</text>
</g>
<!-- Node0x25021e80 -->
<g id="node21" class="node"><title>Node0x25021e80</title>
<polygon fill="none" stroke="black" points="1061.5,-1187.5 1061.5,-1223.5 1163.5,-1223.5 1163.5,-1187.5 1061.5,-1187.5"/>
<text text-anchor="start" x="1069.5" y="-1201.8" font-family="Times,serif" font-size="14.00">if (v11 &gt; 0):</text>
</g>
<!-- Node0x25021c20&#45;&gt;Node0x25021e80 -->
<g id="edge24" class="edge"><title>Node0x25021c20&#45;&gt;Node0x25021e80</title>
<path fill="none" stroke="black" d="M1211.5,-1359.4C1184.77,-1318.12 1149.54,-1263.71 1129.12,-1232.17"/>
<polygon fill="black" stroke="black" points="1131.9,-1230.02 1123.53,-1223.53 1126.03,-1233.83 1131.9,-1230.02"/>
</g>
<!-- Node0x25021b00 -->
<g id="node22" class="node"><title>Node0x25021b00</title>
<polygon fill="none" stroke="black" points="609,-916.5 609,-984.5 722,-984.5 722,-916.5 609,-916.5"/>
<text text-anchor="start" x="617" y="-969.3" font-family="Times,serif" font-size="14.00">0x804882b:</text>
<text text-anchor="start" x="617" y="-954.3" font-family="Times,serif" font-size="14.00"> g3 = v2</text>
<text text-anchor="start" x="617" y="-939.3" font-family="Times,serif" font-size="14.00"> g7 = v1</text>
<text text-anchor="start" x="617" y="-924.3" font-family="Times,serif" font-size="14.00"> return result</text>
</g>
<!-- Node0xbba4f30&#45;&gt;Node0x25021b00 -->
<g id="edge25" class="edge"><title>Node0xbba4f30&#45;&gt;Node0x25021b00</title>
<path fill="none" stroke="black" d="M694.665,-1242.29C688.031,-1176.14 676.206,-1058.25 669.842,-994.789"/>
<polygon fill="black" stroke="black" points="673.312,-994.316 668.831,-984.715 666.347,-995.015 673.312,-994.316"/>
</g>
<!-- Node0x250224e0 -->
<g id="node23" class="node"><title>Node0x250224e0</title>
<polygon fill="none" stroke="black" points="1076,-1061 1076,-1097 1149,-1097 1149,-1061 1076,-1061"/>
<text text-anchor="start" x="1084" y="-1075.3" font-family="Times,serif" font-size="14.00">v17 = 0</text>
</g>
<!-- Node0x25021e80&#45;&gt;Node0x250224e0 -->
<g id="edge26" class="edge"><title>Node0x25021e80&#45;&gt;Node0x250224e0</title>
<path fill="none" stroke="black" d="M1112.5,-1187.45C1112.5,-1166.8 1112.5,-1131.74 1112.5,-1107.31"/>
<polygon fill="black" stroke="black" points="1116,-1107.24 1112.5,-1097.24 1109,-1107.24 1116,-1107.24"/>
<text text-anchor="middle" x="1141" y="-1157.8" font-family="Times,serif" font-size="14.00">v11 &gt; 0</text>
</g>
<!-- Node0x25022010 -->
<g id="node24" class="node"><title>Node0x25022010</title>
<polygon fill="none" stroke="black" points="693,-1022.5 693,-1135.5 1058,-1135.5 1058,-1022.5 693,-1022.5"/>
<text text-anchor="start" x="701" y="-1120.3" font-family="Times,serif" font-size="14.00">0x80487e9:</text>
<text text-anchor="start" x="701" y="-1105.3" font-family="Times,serif" font-size="14.00"> fclose(IntToPtrCastExpr&lt;ptr&gt;(g3))</text>
<text text-anchor="start" x="701" y="-1090.3" font-family="Times,serif" font-size="14.00"> fclose(IntToPtrCastExpr&lt;ptr&gt;(g7))</text>
<text text-anchor="start" x="701" y="-1075.3" font-family="Times,serif" font-size="14.00"> chmod(path2, mode)</text>
<text text-anchor="start" x="701" y="-1060.3" font-family="Times,serif" font-size="14.00"> free(mem)</text>
<text text-anchor="start" x="701" y="-1045.3" font-family="Times,serif" font-size="14.00"> free(mem2)</text>
<text text-anchor="start" x="701" y="-1030.3" font-family="Times,serif" font-size="14.00"> result = unlink(IntToPtrCastExpr&lt;ptr&gt;(path3))</text>
</g>
<!-- Node0x25021e80&#45;&gt;Node0x25022010 -->
<g id="edge27" class="edge"><title>Node0x25021e80&#45;&gt;Node0x25022010</title>
<path fill="none" stroke="black" d="M1076.7,-1187.48C1064.81,-1181.73 1051.53,-1175.19 1039.5,-1169 1021.8,-1159.9 1003.15,-1150.04 985.019,-1140.31"/>
<polygon fill="black" stroke="black" points="986.634,-1137.2 976.169,-1135.55 983.317,-1143.37 986.634,-1137.2"/>
<text text-anchor="middle" x="1074" y="-1157.8" font-family="Times,serif" font-size="14.00">v11 &lt;= 0</text>
</g>
<!-- Node0x25021b00&#45;&gt;Node0xc7fdec0 -->
<g id="edge28" class="edge"><title>Node0x25021b00&#45;&gt;Node0xc7fdec0</title>
<path fill="none" stroke="black" d="M608.78,-916.944C586.21,-899.475 565.5,-875.536 565.5,-846.5 565.5,-846.5 565.5,-846.5 565.5,-138 565.5,-115.025 565.5,-88.94 565.5,-69.8443"/>
<polygon fill="black" stroke="black" points="569,-69.7523 565.5,-59.7523 562,-69.7523 569,-69.7523"/>
</g>
<!-- Node0x25022570 -->
<g id="node25" class="node"><title>Node0x25022570</title>
<polygon fill="none" stroke="black" points="995,-932.5 995,-968.5 1092,-968.5 1092,-932.5 995,-932.5"/>
<text text-anchor="start" x="1003" y="-946.8" font-family="Times,serif" font-size="14.00">while True:</text>
</g>
<!-- Node0x250224e0&#45;&gt;Node0x25022570 -->
<g id="edge29" class="edge"><title>Node0x250224e0&#45;&gt;Node0x25022570</title>
<path fill="none" stroke="black" d="M1103.19,-1060.94C1091.52,-1039.53 1071.37,-1002.6 1057.75,-977.624"/>
<polygon fill="black" stroke="black" points="1060.74,-975.797 1052.88,-968.694 1054.59,-979.149 1060.74,-975.797"/>
</g>
<!-- Node0x25022010&#45;&gt;Node0x25021b00 -->
<g id="edge30" class="edge"><title>Node0x25022010&#45;&gt;Node0x25021b00</title>
<path fill="none" stroke="black" d="M783.085,-1022.33C764.906,-1011.38 746.217,-1000.12 729.239,-989.895"/>
<polygon fill="black" stroke="black" points="730.9,-986.81 720.528,-984.648 727.288,-992.806 730.9,-986.81"/>
</g>
<!-- Node0xbba50b0 -->
<g id="node26" class="node"><title>Node0xbba50b0</title>
<polygon fill="none" stroke="black" points="655,-826.5 655,-864.5 1318,-864.5 1318,-826.5 655,-826.5"/>
<text text-anchor="start" x="663" y="-849.3" font-family="Times,serif" font-size="14.00">0x8048773:</text>
<text text-anchor="start" x="663" y="-834.3" font-family="Times,serif" font-size="14.00"> if (fread_unlocked(BitCastExpr&lt;ptr&gt;(&amp;(v14)), 1, 16, IntToPtrCastExpr&lt;ptr&gt;(g3)) &gt;= 1):</text>
</g>
<!-- Node0x25022570&#45;&gt;Node0xbba50b0 -->
<g id="edge31" class="edge"><title>Node0x25022570&#45;&gt;Node0xbba50b0</title>
<path fill="none" stroke="black" d="M1016.93,-932.444C1005.67,-923.648 993.74,-911.849 987.5,-898 984.318,-890.937 983.175,-882.757 983.055,-875.025"/>
<polygon fill="black" stroke="black" points="986.557,-875.029 983.431,-864.906 979.562,-874.769 986.557,-875.029"/>
<text text-anchor="middle" x="1004.5" y="-886.8" font-family="Times,serif" font-size="14.00">True</text>
</g>
<!-- Node0xbba50b0&#45;&gt;Node0x25022570 -->
<g id="edge33" class="edge"><title>Node0xbba50b0&#45;&gt;Node0x25022570</title>
<path fill="none" stroke="black" d="M1007.15,-864.853C1012.38,-870.29 1017.61,-876.532 1021.5,-883 1028.8,-895.127 1034.01,-909.975 1037.52,-922.562"/>
<polygon fill="black" stroke="black" points="1034.2,-923.684 1040.08,-932.495 1040.98,-921.938 1034.2,-923.684"/>
<text text-anchor="middle" x="1328" y="-886.8" font-family="Times,serif" font-size="14.00">fread_unlocked(BitCastExpr&lt;ptr&gt;(&amp;(v14)), 1, 16, IntToPtrCastExpr&lt;ptr&gt;(g3)) &lt; 1</text>
</g>
<!-- Node0x25022c70 -->
<g id="node27" class="node"><title>Node0x25022c70</title>
<polygon fill="none" stroke="black" points="720,-706.5 720,-774.5 1211,-774.5 1211,-706.5 720,-706.5"/>
<text text-anchor="start" x="728" y="-759.3" font-family="Times,serif" font-size="14.00">0x8048788:</text>
<text text-anchor="start" x="728" y="-744.3" font-family="Times,serif" font-size="14.00"> aes_decrypt(v15, 16, v8, PtrToIntCastExpr&lt;int32&gt;(&amp;(v12)), v16)</text>
<text text-anchor="start" x="728" y="-729.3" font-family="Times,serif" font-size="14.00"> nmemb = g5</text>
<text text-anchor="start" x="728" y="-714.3" font-family="Times,serif" font-size="14.00"> v18</text>
</g>
<!-- Node0xbba50b0&#45;&gt;Node0x25022c70 -->
<g id="edge32" class="edge"><title>Node0xbba50b0&#45;&gt;Node0x25022c70</title>
<path fill="none" stroke="black" d="M982.746,-826.086C980.388,-814.52 977.242,-799.094 974.284,-784.584"/>
<polygon fill="black" stroke="black" points="977.705,-783.843 972.278,-774.743 970.846,-785.241 977.705,-783.843"/>
<text text-anchor="middle" x="1284" y="-796.8" font-family="Times,serif" font-size="14.00">fread_unlocked(BitCastExpr&lt;ptr&gt;(&amp;(v14)), 1, 16, IntToPtrCastExpr&lt;ptr&gt;(g3)) &gt;= 1</text>
</g>
<!-- Node0x16530360 -->
<g id="node28" class="node"><title>Node0x16530360</title>
<polygon fill="none" stroke="black" points="884,-630.5 884,-668.5 1025,-668.5 1025,-630.5 884,-630.5"/>
<text text-anchor="start" x="892" y="-653.3" font-family="Times,serif" font-size="14.00">if (nmemb == 0):</text>
<text text-anchor="start" x="892" y="-638.3" font-family="Times,serif" font-size="14.00"> else:</text>
</g>
<!-- Node0x25022c70&#45;&gt;Node0x16530360 -->
<g id="edge34" class="edge"><title>Node0x25022c70&#45;&gt;Node0x16530360</title>
<path fill="none" stroke="black" d="M961.404,-706.36C960.292,-697.365 959.099,-687.707 958.022,-678.993"/>
<polygon fill="black" stroke="black" points="961.479,-678.436 956.779,-668.941 954.532,-679.295 961.479,-678.436"/>
</g>
<!-- Node0x25020bf0 -->
<g id="node29" class="node"><title>Node0x25020bf0</title>
<polygon fill="none" stroke="black" points="868.5,-540.5 868.5,-578.5 1040.5,-578.5 1040.5,-540.5 868.5,-540.5"/>
<text text-anchor="start" x="876.5" y="-563.3" font-family="Times,serif" font-size="14.00">0x80487af:</text>
<text text-anchor="start" x="876.5" y="-548.3" font-family="Times,serif" font-size="14.00"> if (v17 != (v10 &#45; 40)):</text>
</g>
<!-- Node0x16530360&#45;&gt;Node0x25020bf0 -->
<g id="edge35" class="edge"><title>Node0x16530360&#45;&gt;Node0x25020bf0</title>
<path fill="none" stroke="black" d="M954.5,-630.266C954.5,-618.349 954.5,-602.538 954.5,-588.982"/>
<polygon fill="black" stroke="black" points="958,-588.71 954.5,-578.71 951,-588.71 958,-588.71"/>
<text text-anchor="middle" x="999.5" y="-600.8" font-family="Times,serif" font-size="14.00">nmemb != 0</text>
</g>
<!-- Node0x16530560 -->
<g id="node30" class="node"><title>Node0x16530560</title>
<polygon fill="none" stroke="black" points="593.5,-308.5 593.5,-361.5 1123.5,-361.5 1123.5,-308.5 593.5,-308.5"/>
<text text-anchor="start" x="601.5" y="-346.3" font-family="Times,serif" font-size="14.00">0x80487c4:</text>
<text text-anchor="start" x="601.5" y="-331.3" font-family="Times,serif" font-size="14.00"> fwrite(BitCastExpr&lt;ptr&gt;(&amp;(data)), 1, 16, IntToPtrCastExpr&lt;ptr&gt;(g7))</text>
<text text-anchor="start" x="601.5" y="-316.3" font-family="Times,serif" font-size="14.00"> v18 = (v17 + 16)</text>
</g>
<!-- Node0x16530360&#45;&gt;Node0x16530560 -->
<g id="edge36" class="edge"><title>Node0x16530360&#45;&gt;Node0x16530560</title>
<path fill="none" stroke="black" d="M918.386,-630.33C898.175,-618.381 874.167,-600.905 859.5,-579 817.448,-516.196 833.765,-422.284 847.349,-371.563"/>
<polygon fill="black" stroke="black" points="850.78,-372.293 850.098,-361.72 844.038,-370.41 850.78,-372.293"/>
<text text-anchor="middle" x="885.5" y="-510.8" font-family="Times,serif" font-size="14.00">nmemb == 0</text>
</g>
<!-- Node0x250220a0 -->
<g id="node31" class="node"><title>Node0x250220a0</title>
<polygon fill="none" stroke="black" points="876,-452.5 876,-488.5 1005,-488.5 1005,-452.5 876,-452.5"/>
<text text-anchor="start" x="884" y="-466.8" font-family="Times,serif" font-size="14.00">goto 0x80487bf</text>
</g>
<!-- Node0x25020bf0&#45;&gt;Node0x250220a0 -->
<g id="edge37" class="edge"><title>Node0x25020bf0&#45;&gt;Node0x250220a0</title>
<path fill="none" stroke="black" d="M951.599,-540.474C949.665,-528.456 947.087,-512.434 944.902,-498.857"/>
<polygon fill="black" stroke="black" points="948.299,-497.932 943.254,-488.615 941.387,-499.044 948.299,-497.932"/>
<text text-anchor="middle" x="1008.5" y="-510.8" font-family="Times,serif" font-size="14.00">v17 != (v10 &#45; 40)</text>
</g>
<!-- Node0x25020c50 -->
<g id="node32" class="node"><title>Node0x25020c50</title>
<polygon fill="none" stroke="black" points="874,-380.5 874,-433.5 1439,-433.5 1439,-380.5 874,-380.5"/>
<text text-anchor="start" x="882" y="-418.3" font-family="Times,serif" font-size="14.00">0x80487c4:</text>
<text text-anchor="start" x="882" y="-403.3" font-family="Times,serif" font-size="14.00"> fwrite(BitCastExpr&lt;ptr&gt;(&amp;(data)), 1, nmemb, IntToPtrCastExpr&lt;ptr&gt;(g7))</text>
<text text-anchor="start" x="882" y="-388.3" font-family="Times,serif" font-size="14.00"> v18 = (v17 + 16)</text>
</g>
<!-- Node0x25020bf0&#45;&gt;Node0x25020c50 -->
<g id="edge38" class="edge"><title>Node0x25020bf0&#45;&gt;Node0x25020c50</title>
<path fill="none" stroke="black" d="M1038.08,-540.434C1050.6,-535.633 1062.86,-529.592 1073.5,-522 1102.26,-501.49 1124.96,-467.887 1139.31,-442.465"/>
<polygon fill="black" stroke="black" points="1142.48,-443.961 1144.21,-433.508 1136.34,-440.601 1142.48,-443.961"/>
<text text-anchor="middle" x="1153.5" y="-510.8" font-family="Times,serif" font-size="14.00">v17 == (v10 &#45; 40)</text>
</g>
<!-- Node0x165305c0 -->
<g id="node33" class="node"><title>Node0x165305c0</title>
<polygon fill="none" stroke="black" points="758,-233.5 758,-269.5 889,-269.5 889,-233.5 758,-233.5"/>
<text text-anchor="start" x="766" y="-247.8" font-family="Times,serif" font-size="14.00">if (v18 &gt;= v11):</text>
</g>
<!-- Node0x16530560&#45;&gt;Node0x165305c0 -->
<g id="edge39" class="edge"><title>Node0x16530560&#45;&gt;Node0x165305c0</title>
<path fill="none" stroke="black" d="M847.426,-308.213C843.413,-298.868 838.876,-288.303 834.84,-278.906"/>
<polygon fill="black" stroke="black" points="838.021,-277.442 830.858,-269.635 831.589,-280.204 838.021,-277.442"/>
</g>
<!-- Node0x250220a0&#45;&gt;Node0x16530560 -->
<g id="edge40" class="edge"><title>Node0x250220a0&#45;&gt;Node0x16530560</title>
<path fill="none" stroke="black" d="M893.153,-452.354C885.194,-447.538 877.808,-441.501 872.5,-434 859.878,-416.161 856.341,-391.867 855.977,-371.931"/>
<polygon fill="black" stroke="black" points="859.479,-371.693 856.054,-361.667 852.479,-371.641 859.479,-371.693"/>
</g>
<!-- Node0x25021140 -->
<g id="node34" class="node"><title>Node0x25021140</title>
<polygon fill="none" stroke="black" points="1052,-233.5 1052,-269.5 1183,-269.5 1183,-233.5 1052,-233.5"/>
<text text-anchor="start" x="1060" y="-247.8" font-family="Times,serif" font-size="14.00">if (v18 &gt;= v11):</text>
</g>
<!-- Node0x25020c50&#45;&gt;Node0x25021140 -->
<g id="edge41" class="edge"><title>Node0x25020c50&#45;&gt;Node0x25021140</title>
<path fill="none" stroke="black" d="M1150.35,-380.166C1145.6,-360.381 1138.79,-332.427 1132.5,-308 1130.14,-298.83 1127.47,-288.834 1125.04,-279.883"/>
<polygon fill="black" stroke="black" points="1128.34,-278.696 1122.34,-269.969 1121.59,-280.538 1128.34,-278.696"/>
</g>
<!-- Node0x250216a0 -->
<g id="node35" class="node"><title>Node0x250216a0</title>
<polygon fill="none" stroke="black" points="593,-120 593,-158 760,-158 760,-120 593,-120"/>
<text text-anchor="start" x="601" y="-142.8" font-family="Times,serif" font-size="14.00">break &#45;&gt; 0x80487e9:</text>
<text text-anchor="start" x="601" y="-127.8" font-family="Times,serif" font-size="14.00"> break</text>
</g>
<!-- Node0x165305c0&#45;&gt;Node0x250216a0 -->
<g id="edge42" class="edge"><title>Node0x165305c0&#45;&gt;Node0x250216a0</title>
<path fill="none" stroke="black" d="M768.19,-233.442C756.097,-228.288 743.837,-221.856 733.5,-214 716.663,-201.204 702.189,-182.243 692.039,-166.717"/>
<polygon fill="black" stroke="black" points="694.869,-164.642 686.578,-158.046 688.945,-168.373 694.869,-164.642"/>
<text text-anchor="middle" x="776.5" y="-202.8" font-family="Times,serif" font-size="14.00">v18 &gt;= v11</text>
</g>
<!-- Node0x165306d0 -->
<g id="node36" class="node"><title>Node0x165306d0</title>
<polygon fill="none" stroke="black" points="778.5,-120 778.5,-158 868.5,-158 868.5,-120 778.5,-120"/>
<text text-anchor="start" x="786.5" y="-142.8" font-family="Times,serif" font-size="14.00">v17 = v18</text>
<text text-anchor="start" x="786.5" y="-127.8" font-family="Times,serif" font-size="14.00"> continue</text>
</g>
<!-- Node0x165305c0&#45;&gt;Node0x165306d0 -->
<g id="edge43" class="edge"><title>Node0x165305c0&#45;&gt;Node0x165306d0</title>
<path fill="none" stroke="black" d="M823.5,-233.234C823.5,-215.867 823.5,-188.793 823.5,-168.286"/>
<polygon fill="black" stroke="black" points="827,-168.247 823.5,-158.247 820,-168.247 827,-168.247"/>
<text text-anchor="middle" x="860.5" y="-202.8" font-family="Times,serif" font-size="14.00">v18 &lt; v11</text>
</g>
<!-- Node0x25022130 -->
<g id="node37" class="node"><title>Node0x25022130</title>
<polygon fill="none" stroke="black" points="887,-120 887,-158 1054,-158 1054,-120 887,-120"/>
<text text-anchor="start" x="895" y="-142.8" font-family="Times,serif" font-size="14.00">break &#45;&gt; 0x80487e9:</text>
<text text-anchor="start" x="895" y="-127.8" font-family="Times,serif" font-size="14.00"> break</text>
</g>
<!-- Node0x25021140&#45;&gt;Node0x25022130 -->
<g id="edge44" class="edge"><title>Node0x25021140&#45;&gt;Node0x25022130</title>
<path fill="none" stroke="black" d="M1062.19,-233.442C1050.1,-228.288 1037.84,-221.856 1027.5,-214 1010.66,-201.204 996.189,-182.243 986.039,-166.717"/>
<polygon fill="black" stroke="black" points="988.869,-164.642 980.578,-158.046 982.945,-168.373 988.869,-164.642"/>
<text text-anchor="middle" x="1070.5" y="-202.8" font-family="Times,serif" font-size="14.00">v18 &gt;= v11</text>
</g>
<!-- Node0x25021250 -->
<g id="node38" class="node"><title>Node0x25021250</title>
<polygon fill="none" stroke="black" points="1072.5,-120 1072.5,-158 1162.5,-158 1162.5,-120 1072.5,-120"/>
<text text-anchor="start" x="1080.5" y="-142.8" font-family="Times,serif" font-size="14.00">v17 = v18</text>
<text text-anchor="start" x="1080.5" y="-127.8" font-family="Times,serif" font-size="14.00"> continue</text>
</g>
<!-- Node0x25021140&#45;&gt;Node0x25021250 -->
<g id="edge45" class="edge"><title>Node0x25021140&#45;&gt;Node0x25021250</title>
<path fill="none" stroke="black" d="M1117.5,-233.234C1117.5,-215.867 1117.5,-188.793 1117.5,-168.286"/>
<polygon fill="black" stroke="black" points="1121,-168.247 1117.5,-158.247 1114,-168.247 1121,-168.247"/>
<text text-anchor="middle" x="1154.5" y="-202.8" font-family="Times,serif" font-size="14.00">v18 &lt; v11</text>
</g>
<!-- Node0x250216a0&#45;&gt;Node0xc7fdec0 -->
<g id="edge46" class="edge"><title>Node0x250216a0&#45;&gt;Node0xc7fdec0</title>
<path fill="none" stroke="black" d="M655.36,-119.812C637.669,-104.592 612.299,-82.764 593.024,-66.1809"/>
<polygon fill="black" stroke="black" points="595.304,-63.525 585.441,-59.6562 590.739,-68.8314 595.304,-63.525"/>
</g>
<!-- Node0x165306d0&#45;&gt;Node0xc7fdec0 -->
<g id="edge47" class="edge"><title>Node0x165306d0&#45;&gt;Node0xc7fdec0</title>
<path fill="none" stroke="black" d="M803.041,-119.826C793.175,-111.856 780.824,-102.975 768.5,-97 713.862,-70.5101 644.487,-55.4309 602.617,-48.1205"/>
<polygon fill="black" stroke="black" points="603.034,-44.6413 592.59,-46.427 601.868,-51.5436 603.034,-44.6413"/>
</g>
<!-- Node0x25022130&#45;&gt;Node0xc7fdec0 -->
<g id="edge48" class="edge"><title>Node0x25022130&#45;&gt;Node0xc7fdec0</title>
<path fill="none" stroke="black" d="M935.056,-119.949C918.021,-111.907 897.09,-102.933 877.5,-97 780.691,-67.6803 661.91,-52.3563 602.721,-46.0534"/>
<polygon fill="black" stroke="black" points="603.03,-42.5667 592.722,-45.0145 602.307,-49.5292 603.03,-42.5667"/>
</g>
<!-- Node0x25021250&#45;&gt;Node0xc7fdec0 -->
<g id="edge49" class="edge"><title>Node0x25021250&#45;&gt;Node0xc7fdec0</title>
<path fill="none" stroke="black" d="M1098.59,-119.585C1088.88,-111.254 1076.4,-102.142 1063.5,-97 979.516,-63.5332 703.516,-48.4805 602.751,-44.0049"/>
<polygon fill="black" stroke="black" points="602.871,-40.5069 592.728,-43.5692 602.567,-47.5003 602.871,-40.5069"/>
</g>
</g>
</svg>
