<?xml version="1.0" encoding="UTF-8" standalone="no"?>
<!DOCTYPE svg PUBLIC "-//W3C//DTD SVG 1.1//EN"
 "http://www.w3.org/Graphics/SVG/1.1/DTD/svg11.dtd">
<!-- Generated by graphviz version 2.38.0 (20140413.2041)
 -->
<!-- Title: Control&#45;flow graph for function &#39;sha224_starts_wrap(a1)&#39;. Pages: 1 -->
<svg width="484pt" height="233pt"
 viewBox="0.00 0.00 484.00 233.00" xmlns="http://www.w3.org/2000/svg" xmlns:xlink="http://www.w3.org/1999/xlink">
<g id="graph0" class="graph" transform="scale(1 1) rotate(0) translate(4 229)">
<title>Control&#45;flow graph for function &#39;sha224_starts_wrap(a1)&#39;.</title>
<polygon fill="white" stroke="none" points="-4,4 -4,-229 480,-229 480,4 -4,4"/>
<text text-anchor="middle" x="238" y="-7.8" font-family="Times,serif" font-size="14.00">Control&#45;flow graph for function &#39;sha224_starts_wrap(a1)&#39;.</text>
<!-- Node0x15ae66d0 -->
<g id="node1" class="node"><title>Node0x15ae66d0</title>
<polygon fill="none" stroke="black" points="208.5,-186.5 208.5,-224.5 267.5,-224.5 267.5,-186.5 208.5,-186.5"/>
<text text-anchor="start" x="216.5" y="-209.3" font-family="Times,serif" font-size="14.00">entry:</text>
<text text-anchor="start" x="216.5" y="-194.3" font-family="Times,serif" font-size="14.00"> a1</text>
</g>
<!-- Node0x15ae6630 -->
<g id="node2" class="node"><title>Node0x15ae6630</title>
<polygon fill="none" stroke="black" points="0,-96.5 0,-149.5 476,-149.5 476,-96.5 0,-96.5"/>
<text text-anchor="start" x="8" y="-134.3" font-family="Times,serif" font-size="14.00">result = mbedtls_sha256_starts(IntToPtrCastExpr&lt;ptr&gt;(a1), 1)</text>
<text text-anchor="start" x="8" y="-119.3" font-family="Times,serif" font-size="14.00"> g1 = result</text>
<text text-anchor="start" x="8" y="-104.3" font-family="Times,serif" font-size="14.00"> return result</text>
</g>
<!-- Node0x15ae66d0&#45;&gt;Node0x15ae6630 -->
<g id="edge1" class="edge"><title>Node0x15ae66d0&#45;&gt;Node0x15ae6630</title>
<path fill="none" stroke="black" d="M238,-186.233C238,-178.347 238,-168.835 238,-159.648"/>
<polygon fill="black" stroke="black" points="241.5,-159.517 238,-149.517 234.5,-159.517 241.5,-159.517"/>
</g>
<!-- Node0x29d8fe60 -->
<g id="node3" class="node"><title>Node0x29d8fe60</title>
<polygon fill="none" stroke="black" points="211,-23.5 211,-59.5 265,-59.5 265,-23.5 211,-23.5"/>
<text text-anchor="start" x="219" y="-37.8" font-family="Times,serif" font-size="14.00">exit:</text>
</g>
<!-- Node0x15ae6630&#45;&gt;Node0x29d8fe60 -->
<g id="edge2" class="edge"><title>Node0x15ae6630&#45;&gt;Node0x29d8fe60</title>
<path fill="none" stroke="black" d="M238,-96.4081C238,-87.9823 238,-78.5803 238,-70.0174"/>
<polygon fill="black" stroke="black" points="241.5,-69.7564 238,-59.7564 234.5,-69.7565 241.5,-69.7564"/>
</g>
</g>
</svg>
