<?xml version="1.0" encoding="UTF-8" standalone="no"?>
<!DOCTYPE svg PUBLIC "-//W3C//DTD SVG 1.1//EN"
 "http://www.w3.org/Graphics/SVG/1.1/DTD/svg11.dtd">
<!-- Generated by graphviz version 2.38.0 (20140413.2041)
 -->
<!-- Title: Control&#45;flow graph for function &#39;mbedtls_ripemd160_clone(*a1, *a2)&#39;. Pages: 1 -->
<svg width="522pt" height="248pt"
 viewBox="0.00 0.00 522.00 248.00" xmlns="http://www.w3.org/2000/svg" xmlns:xlink="http://www.w3.org/1999/xlink">
<g id="graph0" class="graph" transform="scale(1 1) rotate(0) translate(4 244)">
<title>Control&#45;flow graph for function &#39;mbedtls_ripemd160_clone(*a1, *a2)&#39;.</title>
<polygon fill="white" stroke="none" points="-4,4 -4,-244 518,-244 518,4 -4,4"/>
<text text-anchor="middle" x="257" y="-7.8" font-family="Times,serif" font-size="14.00">Control&#45;flow graph for function &#39;mbedtls_ripemd160_clone(*a1, *a2)&#39;.</text>
<!-- Node0x2aeffb30 -->
<g id="node1" class="node"><title>Node0x2aeffb30</title>
<polygon fill="none" stroke="black" points="227.5,-186.5 227.5,-239.5 286.5,-239.5 286.5,-186.5 227.5,-186.5"/>
<text text-anchor="start" x="235.5" y="-224.3" font-family="Times,serif" font-size="14.00">entry:</text>
<text text-anchor="start" x="235.5" y="-209.3" font-family="Times,serif" font-size="14.00"> a1</text>
<text text-anchor="start" x="235.5" y="-194.3" font-family="Times,serif" font-size="14.00"> a2</text>
</g>
<!-- Node0xdea5250 -->
<g id="node2" class="node"><title>Node0xdea5250</title>
<polygon fill="none" stroke="black" points="118.5,-96.5 118.5,-149.5 395.5,-149.5 395.5,-96.5 118.5,-96.5"/>
<text text-anchor="start" x="126.5" y="-134.3" font-family="Times,serif" font-size="14.00">0x8065090:</text>
<text text-anchor="start" x="126.5" y="-119.3" font-family="Times,serif" font-size="14.00"> g1 = PtrToIntCastExpr&lt;int32&gt;(a1)</text>
<text text-anchor="start" x="126.5" y="-104.3" font-family="Times,serif" font-size="14.00"> memcpy(a1, a2, 23)</text>
</g>
<!-- Node0x2aeffb30&#45;&gt;Node0xdea5250 -->
<g id="edge1" class="edge"><title>Node0x2aeffb30&#45;&gt;Node0xdea5250</title>
<path fill="none" stroke="black" d="M257,-186.073C257,-177.838 257,-168.58 257,-159.777"/>
<polygon fill="black" stroke="black" points="260.5,-159.742 257,-149.742 253.5,-159.742 260.5,-159.742"/>
</g>
<!-- Node0x2aefe390 -->
<g id="node3" class="node"><title>Node0x2aefe390</title>
<polygon fill="none" stroke="black" points="230,-23.5 230,-59.5 284,-59.5 284,-23.5 230,-23.5"/>
<text text-anchor="start" x="238" y="-37.8" font-family="Times,serif" font-size="14.00">exit:</text>
</g>
<!-- Node0xdea5250&#45;&gt;Node0x2aefe390 -->
<g id="edge2" class="edge"><title>Node0xdea5250&#45;&gt;Node0x2aefe390</title>
<path fill="none" stroke="black" d="M257,-96.4081C257,-87.9823 257,-78.5803 257,-70.0174"/>
<polygon fill="black" stroke="black" points="260.5,-69.7564 257,-59.7564 253.5,-69.7565 260.5,-69.7564"/>
</g>
</g>
</svg>
